<?xml version="1.0" encoding="UTF-8" standalone="no"?>
<!DOCTYPE svg PUBLIC "-//W3C//DTD SVG 1.1//EN"
 "http://www.w3.org/Graphics/SVG/1.1/DTD/svg11.dtd">
<!-- Generated by graphviz version 2.40.1 (20161225.0304)
 -->
<!-- Title: align.h Pages: 1 -->
<svg width="2043pt" height="588pt"
 viewBox="0.00 0.00 2042.50 588.00" xmlns="http://www.w3.org/2000/svg" xmlns:xlink="http://www.w3.org/1999/xlink">
<g id="graph0" class="graph" transform="scale(1 1) rotate(0) translate(4 584)">
<title>align.h</title>
<polygon fill="#ffffff" stroke="transparent" points="-4,4 -4,-584 2038.5,-584 2038.5,4 -4,4"/>
<!-- Node2 -->
<g id="node1" class="node">
<title>Node2</title>
<polygon fill="#bfbfbf" stroke="#000000" points="967.5,-560.5 967.5,-579.5 1017.5,-579.5 1017.5,-560.5 967.5,-560.5"/>
<text text-anchor="middle" x="992.5" y="-567.5" font-family="Helvetica,sans-Serif" font-size="10.00" fill="#000000">align.h</text>
</g>
<!-- Node3 -->
<g id="node2" class="node">
<title>Node3</title>
<g id="a_node2"><a xlink:href="arch_2arm32-linux_2odp_2api_2abi_2align_8h_source.html" target="_top" xlink:title="align.h">
<polygon fill="#ffffff" stroke="#000000" points="763.5,-504.5 763.5,-523.5 813.5,-523.5 813.5,-504.5 763.5,-504.5"/>
<text text-anchor="middle" x="788.5" y="-511.5" font-family="Helvetica,sans-Serif" font-size="10.00" fill="#000000">align.h</text>
</a>
</g>
</g>
<!-- Node2&#45;&gt;Node3 -->
<g id="edge1" class="edge">
<title>Node2&#45;&gt;Node3</title>
<path fill="none" stroke="#191970" d="M957.3669,-560.7327C922.9476,-551.5972 869.0331,-537.1371 822.5,-524 819.6578,-523.1976 816.686,-522.3445 813.7333,-521.488"/>
<polygon fill="#191970" stroke="#191970" points="956.8303,-564.2112 967.3932,-563.3895 958.6234,-557.4447 956.8303,-564.2112"/>
</g>
<!-- Node4 -->
<g id="node3" class="node">
<title>Node4</title>
<g id="a_node3"><a xlink:href="arch_2arm64-linux_2odp_2api_2abi_2align_8h_source.html" target="_top" xlink:title="align.h">
<polygon fill="#ffffff" stroke="#000000" points="831.5,-504.5 831.5,-523.5 881.5,-523.5 881.5,-504.5 831.5,-504.5"/>
<text text-anchor="middle" x="856.5" y="-511.5" font-family="Helvetica,sans-Serif" font-size="10.00" fill="#000000">align.h</text>
</a>
</g>
</g>
<!-- Node2&#45;&gt;Node4 -->
<g id="edge2" class="edge">
<title>Node2&#45;&gt;Node4</title>
<path fill="none" stroke="#191970" d="M959.7601,-556.5189C934.9917,-546.3201 901.595,-532.5685 879.5742,-523.5011"/>
<polygon fill="#191970" stroke="#191970" points="958.5413,-559.8021 969.1208,-560.3733 961.2066,-553.3293 958.5413,-559.8021"/>
</g>
<!-- Node5 -->
<g id="node4" class="node">
<title>Node5</title>
<g id="a_node4"><a xlink:href="arch_2default-linux_2odp_2api_2abi_2align_8h_source.html" target="_top" xlink:title="align.h">
<polygon fill="#ffffff" stroke="#000000" points="899.5,-504.5 899.5,-523.5 949.5,-523.5 949.5,-504.5 899.5,-504.5"/>
<text text-anchor="middle" x="924.5" y="-511.5" font-family="Helvetica,sans-Serif" font-size="10.00" fill="#000000">align.h</text>
</a>
</g>
</g>
<!-- Node2&#45;&gt;Node5 -->
<g id="edge3" class="edge">
<title>Node2&#45;&gt;Node5</title>
<path fill="none" stroke="#191970" d="M972.6404,-553.645C960.8142,-543.9058 946.2108,-531.8795 936.209,-523.6427"/>
<polygon fill="#191970" stroke="#191970" points="970.711,-556.5902 980.6553,-560.2455 975.161,-551.1867 970.711,-556.5902"/>
</g>
<!-- Node6 -->
<g id="node5" class="node">
<title>Node6</title>
<g id="a_node5"><a xlink:href="arch_2mips64-linux_2odp_2api_2abi_2align_8h_source.html" target="_top" xlink:title="align.h">
<polygon fill="#ffffff" stroke="#000000" points="967.5,-504.5 967.5,-523.5 1017.5,-523.5 1017.5,-504.5 967.5,-504.5"/>
<text text-anchor="middle" x="992.5" y="-511.5" font-family="Helvetica,sans-Serif" font-size="10.00" fill="#000000">align.h</text>
</a>
</g>
</g>
<!-- Node2&#45;&gt;Node6 -->
<g id="edge4" class="edge">
<title>Node2&#45;&gt;Node6</title>
<path fill="none" stroke="#191970" d="M992.5,-550.1575C992.5,-541.155 992.5,-530.9199 992.5,-523.6427"/>
<polygon fill="#191970" stroke="#191970" points="989.0001,-550.2455 992.5,-560.2455 996.0001,-550.2456 989.0001,-550.2455"/>
</g>
<!-- Node7 -->
<g id="node6" class="node">
<title>Node7</title>
<g id="a_node6"><a xlink:href="arch_2power64-linux_2odp_2api_2abi_2align_8h_source.html" target="_top" xlink:title="align.h">
<polygon fill="#ffffff" stroke="#000000" points="1035.5,-504.5 1035.5,-523.5 1085.5,-523.5 1085.5,-504.5 1035.5,-504.5"/>
<text text-anchor="middle" x="1060.5" y="-511.5" font-family="Helvetica,sans-Serif" font-size="10.00" fill="#000000">align.h</text>
</a>
</g>
</g>
<!-- Node2&#45;&gt;Node7 -->
<g id="edge5" class="edge">
<title>Node2&#45;&gt;Node7</title>
<path fill="none" stroke="#191970" d="M1012.3596,-553.645C1024.1858,-543.9058 1038.7892,-531.8795 1048.791,-523.6427"/>
<polygon fill="#191970" stroke="#191970" points="1009.839,-551.1867 1004.3447,-560.2455 1014.289,-556.5902 1009.839,-551.1867"/>
</g>
<!-- Node8 -->
<g id="node7" class="node">
<title>Node8</title>
<g id="a_node7"><a xlink:href="arch_2x86__32-linux_2odp_2api_2abi_2align_8h_source.html" target="_top" xlink:title="align.h">
<polygon fill="#ffffff" stroke="#000000" points="1103.5,-504.5 1103.5,-523.5 1153.5,-523.5 1153.5,-504.5 1103.5,-504.5"/>
<text text-anchor="middle" x="1128.5" y="-511.5" font-family="Helvetica,sans-Serif" font-size="10.00" fill="#000000">align.h</text>
</a>
</g>
</g>
<!-- Node2&#45;&gt;Node8 -->
<g id="edge6" class="edge">
<title>Node2&#45;&gt;Node8</title>
<path fill="none" stroke="#191970" d="M1025.2399,-556.5189C1050.0083,-546.3201 1083.405,-532.5685 1105.4258,-523.5011"/>
<polygon fill="#191970" stroke="#191970" points="1023.7934,-553.3293 1015.8792,-560.3733 1026.4587,-559.8021 1023.7934,-553.3293"/>
</g>
<!-- Node9 -->
<g id="node8" class="node">
<title>Node9</title>
<g id="a_node8"><a xlink:href="arch_2x86__64-linux_2odp_2api_2abi_2align_8h_source.html" target="_top" xlink:title="align.h">
<polygon fill="#ffffff" stroke="#000000" points="1171.5,-504.5 1171.5,-523.5 1221.5,-523.5 1221.5,-504.5 1171.5,-504.5"/>
<text text-anchor="middle" x="1196.5" y="-511.5" font-family="Helvetica,sans-Serif" font-size="10.00" fill="#000000">align.h</text>
</a>
</g>
</g>
<!-- Node2&#45;&gt;Node9 -->
<g id="edge7" class="edge">
<title>Node2&#45;&gt;Node9</title>
<path fill="none" stroke="#191970" d="M1027.6331,-560.7327C1062.0524,-551.5972 1115.9669,-537.1371 1162.5,-524 1165.3422,-523.1976 1168.314,-522.3445 1171.2667,-521.488"/>
<polygon fill="#191970" stroke="#191970" points="1026.3766,-557.4447 1017.6068,-563.3895 1028.1697,-564.2112 1026.3766,-557.4447"/>
</g>
<!-- Node10 -->
<g id="node9" class="node">
<title>Node10</title>
<g id="a_node9"><a xlink:href="api_2align_8h.html" target="_top" xlink:title="ODP alignments. ">
<polygon fill="#ffffff" stroke="#000000" points="1171.5,-448.5 1171.5,-467.5 1221.5,-467.5 1221.5,-448.5 1171.5,-448.5"/>
<text text-anchor="middle" x="1196.5" y="-455.5" font-family="Helvetica,sans-Serif" font-size="10.00" fill="#000000">align.h</text>
</a>
</g>
</g>
<!-- Node9&#45;&gt;Node10 -->
<g id="edge8" class="edge">
<title>Node9&#45;&gt;Node10</title>
<path fill="none" stroke="#191970" d="M1196.5,-494.1575C1196.5,-485.155 1196.5,-474.9199 1196.5,-467.6427"/>
<polygon fill="#191970" stroke="#191970" points="1193.0001,-494.2455 1196.5,-504.2455 1200.0001,-494.2456 1193.0001,-494.2455"/>
</g>
<!-- Node11 -->
<g id="node10" class="node">
<title>Node11</title>
<g id="a_node10"><a xlink:href="api_2abi-default_2atomic_8h.html" target="_top" xlink:title="ODP atomic operations. ">
<polygon fill="#ffffff" stroke="#000000" points="269,-280.5 269,-299.5 328,-299.5 328,-280.5 269,-280.5"/>
<text text-anchor="middle" x="298.5" y="-287.5" font-family="Helvetica,sans-Serif" font-size="10.00" fill="#000000">atomic.h</text>
</a>
</g>
</g>
<!-- Node10&#45;&gt;Node11 -->
<g id="edge9" class="edge">
<title>Node10&#45;&gt;Node11</title>
<path fill="none" stroke="#191970" d="M1161.1105,-451.9824C1044.0777,-431.9692 658.9871,-365.2134 342.5,-300 337.8965,-299.0514 333.0339,-297.9982 328.2865,-296.9414"/>
<polygon fill="#191970" stroke="#191970" points="1160.8308,-455.4852 1171.2773,-453.7186 1162.0092,-448.5851 1160.8308,-455.4852"/>
</g>
<!-- Node29 -->
<g id="node21" class="node">
<title>Node29</title>
<g id="a_node21"><a xlink:href="odp__api_8h.html" target="_top" xlink:title="The OpenDataPlane API. ">
<polygon fill="#ffffff" stroke="#000000" points="1008.5,-56.5 1008.5,-75.5 1072.5,-75.5 1072.5,-56.5 1008.5,-56.5"/>
<text text-anchor="middle" x="1040.5" y="-63.5" font-family="Helvetica,sans-Serif" font-size="10.00" fill="#000000">odp_api.h</text>
</a>
</g>
</g>
<!-- Node10&#45;&gt;Node29 -->
<g id="edge63" class="edge">
<title>Node10&#45;&gt;Node29</title>
<path fill="none" stroke="#191970" d="M1231.7697,-457.0623C1390.9272,-452.3733 2034.5,-428.3233 2034.5,-346 2034.5,-346 2034.5,-346 2034.5,-178 2034.5,-78.8502 1243.4507,-67.4691 1072.7261,-66.1674"/>
<polygon fill="#191970" stroke="#191970" points="1231.4749,-453.5692 1221.5797,-457.3553 1231.6762,-460.5663 1231.4749,-453.5692"/>
</g>
<!-- Node58 -->
<g id="node23" class="node">
<title>Node58</title>
<g id="a_node23"><a xlink:href="api_2abi-default_2cpumask_8h.html" target="_top" xlink:title="ODP CPU masks and enumeration. ">
<polygon fill="#ffffff" stroke="#000000" points="1672.5,-280.5 1672.5,-299.5 1742.5,-299.5 1742.5,-280.5 1672.5,-280.5"/>
<text text-anchor="middle" x="1707.5" y="-287.5" font-family="Helvetica,sans-Serif" font-size="10.00" fill="#000000">cpumask.h</text>
</a>
</g>
</g>
<!-- Node10&#45;&gt;Node58 -->
<g id="edge23" class="edge">
<title>Node10&#45;&gt;Node58</title>
<path fill="none" stroke="#191970" d="M1231.6017,-446.4597C1327.1712,-415.0396 1590.7279,-328.3908 1678.5789,-299.5083"/>
<polygon fill="#191970" stroke="#191970" points="1230.2472,-443.2207 1221.8406,-449.6689 1232.4335,-449.8705 1230.2472,-443.2207"/>
</g>
<!-- Node82 -->
<g id="node32" class="node">
<title>Node82</title>
<g id="a_node32"><a xlink:href="api_2spec_2std__types_8h.html" target="_top" xlink:title="Standard C language types and definitions for ODP. ">
<polygon fill="#ffffff" stroke="#000000" points="1128,-392.5 1128,-411.5 1201,-411.5 1201,-392.5 1128,-392.5"/>
<text text-anchor="middle" x="1164.5" y="-399.5" font-family="Helvetica,sans-Serif" font-size="10.00" fill="#000000">std_types.h</text>
</a>
</g>
</g>
<!-- Node10&#45;&gt;Node82 -->
<g id="edge33" class="edge">
<title>Node10&#45;&gt;Node82</title>
<path fill="none" stroke="#191970" d="M1185.8355,-439.3372C1180.5346,-430.0605 1174.3513,-419.2398 1170.0101,-411.6427"/>
<polygon fill="#191970" stroke="#191970" points="1182.9257,-441.2996 1190.926,-448.2455 1189.0034,-437.8266 1182.9257,-441.2996"/>
</g>
<!-- Node12 -->
<g id="node11" class="node">
<title>Node12</title>
<g id="a_node11"><a xlink:href="arch_2arm32-linux_2odp_2api_2abi_2atomic_8h_source.html" target="_top" xlink:title="atomic.h">
<polygon fill="#ffffff" stroke="#000000" points="0,-224.5 0,-243.5 59,-243.5 59,-224.5 0,-224.5"/>
<text text-anchor="middle" x="29.5" y="-231.5" font-family="Helvetica,sans-Serif" font-size="10.00" fill="#000000">atomic.h</text>
</a>
</g>
</g>
<!-- Node11&#45;&gt;Node12 -->
<g id="edge10" class="edge">
<title>Node11&#45;&gt;Node12</title>
<path fill="none" stroke="#191970" d="M258.9489,-282.8807C212.8231,-274.4031 134.3601,-259.4394 67.5,-244 64.8412,-243.386 62.0856,-242.7198 59.3283,-242.0326"/>
<polygon fill="#191970" stroke="#191970" points="258.3739,-286.3335 268.8406,-284.6903 259.6337,-279.4478 258.3739,-286.3335"/>
</g>
<!-- Node13 -->
<g id="node12" class="node">
<title>Node13</title>
<g id="a_node12"><a xlink:href="arch_2arm64-linux_2odp_2api_2abi_2atomic_8h_source.html" target="_top" xlink:title="atomic.h">
<polygon fill="#ffffff" stroke="#000000" points="77,-224.5 77,-243.5 136,-243.5 136,-224.5 77,-224.5"/>
<text text-anchor="middle" x="106.5" y="-231.5" font-family="Helvetica,sans-Serif" font-size="10.00" fill="#000000">atomic.h</text>
</a>
</g>
</g>
<!-- Node11&#45;&gt;Node13 -->
<g id="edge11" class="edge">
<title>Node11&#45;&gt;Node13</title>
<path fill="none" stroke="#191970" d="M259.106,-278.5101C222.6005,-267.8626 169.1065,-252.2602 136.1128,-242.6371"/>
<polygon fill="#191970" stroke="#191970" points="258.3407,-281.9327 268.9208,-281.3727 260.3008,-275.2127 258.3407,-281.9327"/>
</g>
<!-- Node14 -->
<g id="node13" class="node">
<title>Node14</title>
<g id="a_node13"><a xlink:href="arch_2default-linux_2odp_2api_2abi_2atomic_8h_source.html" target="_top" xlink:title="atomic.h">
<polygon fill="#ffffff" stroke="#000000" points="154,-224.5 154,-243.5 213,-243.5 213,-224.5 154,-224.5"/>
<text text-anchor="middle" x="183.5" y="-231.5" font-family="Helvetica,sans-Serif" font-size="10.00" fill="#000000">atomic.h</text>
</a>
</g>
</g>
<!-- Node11&#45;&gt;Node14 -->
<g id="edge12" class="edge">
<title>Node11&#45;&gt;Node14</title>
<path fill="none" stroke="#191970" d="M269.6967,-275.9741C248.875,-265.8348 221.3022,-252.408 203.0112,-243.5011"/>
<polygon fill="#191970" stroke="#191970" points="268.2078,-279.1419 278.7308,-280.3733 271.2724,-272.8484 268.2078,-279.1419"/>
</g>
<!-- Node15 -->
<g id="node14" class="node">
<title>Node15</title>
<g id="a_node14"><a xlink:href="arch_2mips64-linux_2odp_2api_2abi_2atomic_8h_source.html" target="_top" xlink:title="atomic.h">
<polygon fill="#ffffff" stroke="#000000" points="231,-224.5 231,-243.5 290,-243.5 290,-224.5 231,-224.5"/>
<text text-anchor="middle" x="260.5" y="-231.5" font-family="Helvetica,sans-Serif" font-size="10.00" fill="#000000">atomic.h</text>
</a>
</g>
</g>
<!-- Node11&#45;&gt;Node15 -->
<g id="edge13" class="edge">
<title>Node11&#45;&gt;Node15</title>
<path fill="none" stroke="#191970" d="M286.2321,-271.9209C279.8512,-262.5176 272.3069,-251.3997 267.0432,-243.6427"/>
<polygon fill="#191970" stroke="#191970" points="283.3697,-273.936 291.8809,-280.2455 289.162,-270.0055 283.3697,-273.936"/>
</g>
<!-- Node16 -->
<g id="node15" class="node">
<title>Node16</title>
<g id="a_node15"><a xlink:href="arch_2power64-linux_2odp_2api_2abi_2atomic_8h_source.html" target="_top" xlink:title="atomic.h">
<polygon fill="#ffffff" stroke="#000000" points="308,-224.5 308,-243.5 367,-243.5 367,-224.5 308,-224.5"/>
<text text-anchor="middle" x="337.5" y="-231.5" font-family="Helvetica,sans-Serif" font-size="10.00" fill="#000000">atomic.h</text>
</a>
</g>
</g>
<!-- Node11&#45;&gt;Node16 -->
<g id="edge14" class="edge">
<title>Node11&#45;&gt;Node16</title>
<path fill="none" stroke="#191970" d="M311.0908,-271.9209C317.6395,-262.5176 325.3824,-251.3997 330.7846,-243.6427"/>
<polygon fill="#191970" stroke="#191970" points="308.1361,-270.0392 305.2933,-280.2455 313.8804,-274.0397 308.1361,-270.0392"/>
</g>
<!-- Node17 -->
<g id="node16" class="node">
<title>Node17</title>
<g id="a_node16"><a xlink:href="arch_2x86__32-linux_2odp_2api_2abi_2atomic_8h_source.html" target="_top" xlink:title="atomic.h">
<polygon fill="#ffffff" stroke="#000000" points="385,-224.5 385,-243.5 444,-243.5 444,-224.5 385,-224.5"/>
<text text-anchor="middle" x="414.5" y="-231.5" font-family="Helvetica,sans-Serif" font-size="10.00" fill="#000000">atomic.h</text>
</a>
</g>
</g>
<!-- Node11&#45;&gt;Node17 -->
<g id="edge15" class="edge">
<title>Node11&#45;&gt;Node17</title>
<path fill="none" stroke="#191970" d="M327.5537,-275.9741C348.5565,-265.8348 376.3691,-252.408 394.8191,-243.5011"/>
<polygon fill="#191970" stroke="#191970" points="325.925,-272.8738 318.4411,-280.3733 328.9683,-279.1776 325.925,-272.8738"/>
</g>
<!-- Node18 -->
<g id="node17" class="node">
<title>Node18</title>
<g id="a_node17"><a xlink:href="arch_2x86__64-linux_2odp_2api_2abi_2atomic_8h_source.html" target="_top" xlink:title="atomic.h">
<polygon fill="#ffffff" stroke="#000000" points="462,-224.5 462,-243.5 521,-243.5 521,-224.5 462,-224.5"/>
<text text-anchor="middle" x="491.5" y="-231.5" font-family="Helvetica,sans-Serif" font-size="10.00" fill="#000000">atomic.h</text>
</a>
</g>
</g>
<!-- Node11&#45;&gt;Node18 -->
<g id="edge16" class="edge">
<title>Node11&#45;&gt;Node18</title>
<path fill="none" stroke="#191970" d="M338.0992,-278.5101C374.7948,-267.8626 428.5675,-252.2602 461.7329,-242.6371"/>
<polygon fill="#191970" stroke="#191970" points="336.8618,-275.2247 328.2333,-281.3727 338.8125,-281.9474 336.8618,-275.2247"/>
</g>
<!-- Node19 -->
<g id="node18" class="node">
<title>Node19</title>
<g id="a_node18"><a xlink:href="api_2atomic_8h.html" target="_top" xlink:title="ODP atomic operations. ">
<polygon fill="#ffffff" stroke="#ff0000" points="462,-168.5 462,-187.5 521,-187.5 521,-168.5 462,-168.5"/>
<text text-anchor="middle" x="491.5" y="-175.5" font-family="Helvetica,sans-Serif" font-size="10.00" fill="#000000">atomic.h</text>
</a>
</g>
</g>
<!-- Node18&#45;&gt;Node19 -->
<g id="edge17" class="edge">
<title>Node18&#45;&gt;Node19</title>
<path fill="none" stroke="#191970" d="M491.5,-214.1575C491.5,-205.155 491.5,-194.9199 491.5,-187.6427"/>
<polygon fill="#191970" stroke="#191970" points="488.0001,-214.2455 491.5,-224.2455 495.0001,-214.2456 488.0001,-214.2455"/>
</g>
<!-- Node20 -->
<g id="node19" class="node">
<title>Node20</title>
<g id="a_node19"><a xlink:href="api_2abi-default_2barrier_8h.html" target="_top" xlink:title="ODP barrier. ">
<polygon fill="#ffffff" stroke="#ff0000" points="702,-112.5 702,-131.5 759,-131.5 759,-112.5 702,-112.5"/>
<text text-anchor="middle" x="730.5" y="-119.5" font-family="Helvetica,sans-Serif" font-size="10.00" fill="#000000">barrier.h</text>
</a>
</g>
</g>
<!-- Node19&#45;&gt;Node20 -->
<g id="edge18" class="edge">
<title>Node19&#45;&gt;Node20</title>
<path fill="none" stroke="#191970" d="M531.0451,-168.7342C579.1683,-157.4585 659.2546,-138.6935 701.8325,-128.7171"/>
<polygon fill="#191970" stroke="#191970" points="530.2241,-165.3317 521.2863,-171.0208 531.8211,-172.1471 530.2241,-165.3317"/>
</g>
<!-- Node28 -->
<g id="node20" class="node">
<title>Node28</title>
<g id="a_node20"><a xlink:href="api_2barrier_8h.html" target="_top" xlink:title="ODP execution barriers. ">
<polygon fill="#ffffff" stroke="#000000" points="521,-112.5 521,-131.5 578,-131.5 578,-112.5 521,-112.5"/>
<text text-anchor="middle" x="549.5" y="-119.5" font-family="Helvetica,sans-Serif" font-size="10.00" fill="#000000">barrier.h</text>
</a>
</g>
</g>
<!-- Node19&#45;&gt;Node28 -->
<g id="edge19" class="edge">
<title>Node19&#45;&gt;Node28</title>
<path fill="none" stroke="#191970" d="M509.0293,-161.0751C519.0083,-151.4402 531.1476,-139.7196 539.5129,-131.6427"/>
<polygon fill="#191970" stroke="#191970" points="506.3658,-158.7817 501.6028,-168.2455 511.228,-163.8175 506.3658,-158.7817"/>
</g>
<!-- Node19&#45;&gt;Node29 -->
<g id="edge22" class="edge">
<title>Node19&#45;&gt;Node29</title>
<path fill="none" stroke="#191970" d="M491.9151,-157.7147C493.391,-142.6681 498.0159,-122.9409 511.5,-112 550.1118,-80.6706 899.3729,-69.4761 1008.2446,-66.7304"/>
<polygon fill="#191970" stroke="#191970" points="488.3984,-157.8974 491.3056,-168.0856 495.3863,-158.3081 488.3984,-157.8974"/>
</g>
<!-- Node28&#45;&gt;Node29 -->
<g id="edge20" class="edge">
<title>Node28&#45;&gt;Node29</title>
<path fill="none" stroke="#191970" d="M588.2373,-117.5819C682.3462,-106.8485 921.6389,-79.5565 1008.4329,-69.6574"/>
<polygon fill="#191970" stroke="#191970" points="587.5595,-114.1364 578.0205,-118.7472 588.3527,-121.0913 587.5595,-114.1364"/>
</g>
<!-- Node30 -->
<g id="node22" class="node">
<title>Node30</title>
<g id="a_node22"><a xlink:href="odp_8h.html" target="_top" xlink:title="WARNING: THIS FILE IS DEPRECATED AND WILL BE REMOVED!!! ODP APPLICATIONS SHOULD NOW INCLUDE odp_api...">
<polygon fill="#ffffff" stroke="#000000" points="1018.5,-.5 1018.5,-19.5 1062.5,-19.5 1062.5,-.5 1018.5,-.5"/>
<text text-anchor="middle" x="1040.5" y="-7.5" font-family="Helvetica,sans-Serif" font-size="10.00" fill="#000000">odp.h</text>
</a>
</g>
</g>
<!-- Node29&#45;&gt;Node30 -->
<g id="edge21" class="edge">
<title>Node29&#45;&gt;Node30</title>
<path fill="none" stroke="#191970" d="M1040.5,-46.1575C1040.5,-37.155 1040.5,-26.9199 1040.5,-19.6427"/>
<polygon fill="#191970" stroke="#191970" points="1037.0001,-46.2455 1040.5,-56.2455 1044.0001,-46.2456 1037.0001,-46.2455"/>
</g>
<!-- Node59 -->
<g id="node24" class="node">
<title>Node59</title>
<g id="a_node24"><a xlink:href="arch_2arm32-linux_2odp_2api_2abi_2cpumask_8h_source.html" target="_top" xlink:title="cpumask.h">
<polygon fill="#ffffff" stroke="#000000" points="1496.5,-224.5 1496.5,-243.5 1566.5,-243.5 1566.5,-224.5 1496.5,-224.5"/>
<text text-anchor="middle" x="1531.5" y="-231.5" font-family="Helvetica,sans-Serif" font-size="10.00" fill="#000000">cpumask.h</text>
</a>
</g>
</g>
<!-- Node58&#45;&gt;Node59 -->
<g id="edge24" class="edge">
<title>Node58&#45;&gt;Node59</title>
<path fill="none" stroke="#191970" d="M1667.6596,-277.3235C1635.3827,-267.0536 1590.6148,-252.8093 1561.3607,-243.5011"/>
<polygon fill="#191970" stroke="#191970" points="1666.654,-280.6764 1677.2445,-280.3733 1668.7765,-274.0059 1666.654,-280.6764"/>
</g>
<!-- Node60 -->
<g id="node25" class="node">
<title>Node60</title>
<g id="a_node25"><a xlink:href="arch_2arm64-linux_2odp_2api_2abi_2cpumask_8h_source.html" target="_top" xlink:title="cpumask.h">
<polygon fill="#ffffff" stroke="#000000" points="1584.5,-224.5 1584.5,-243.5 1654.5,-243.5 1654.5,-224.5 1584.5,-224.5"/>
<text text-anchor="middle" x="1619.5" y="-231.5" font-family="Helvetica,sans-Serif" font-size="10.00" fill="#000000">cpumask.h</text>
</a>
</g>
</g>
<!-- Node58&#45;&gt;Node60 -->
<g id="edge25" class="edge">
<title>Node58&#45;&gt;Node60</title>
<path fill="none" stroke="#191970" d="M1683.5655,-274.769C1667.9717,-264.8456 1648.099,-252.1994 1634.6528,-243.6427"/>
<polygon fill="#191970" stroke="#191970" points="1681.8559,-277.8296 1692.1716,-280.2455 1685.614,-271.9239 1681.8559,-277.8296"/>
</g>
<!-- Node61 -->
<g id="node26" class="node">
<title>Node61</title>
<g id="a_node26"><a xlink:href="arch_2default-linux_2odp_2api_2abi_2cpumask_8h_source.html" target="_top" xlink:title="cpumask.h">
<polygon fill="#ffffff" stroke="#000000" points="1672.5,-224.5 1672.5,-243.5 1742.5,-243.5 1742.5,-224.5 1672.5,-224.5"/>
<text text-anchor="middle" x="1707.5" y="-231.5" font-family="Helvetica,sans-Serif" font-size="10.00" fill="#000000">cpumask.h</text>
</a>
</g>
</g>
<!-- Node58&#45;&gt;Node61 -->
<g id="edge26" class="edge">
<title>Node58&#45;&gt;Node61</title>
<path fill="none" stroke="#191970" d="M1707.5,-270.1575C1707.5,-261.155 1707.5,-250.9199 1707.5,-243.6427"/>
<polygon fill="#191970" stroke="#191970" points="1704.0001,-270.2455 1707.5,-280.2455 1711.0001,-270.2456 1704.0001,-270.2455"/>
</g>
<!-- Node62 -->
<g id="node27" class="node">
<title>Node62</title>
<g id="a_node27"><a xlink:href="arch_2mips64-linux_2odp_2api_2abi_2cpumask_8h_source.html" target="_top" xlink:title="cpumask.h">
<polygon fill="#ffffff" stroke="#000000" points="1760.5,-224.5 1760.5,-243.5 1830.5,-243.5 1830.5,-224.5 1760.5,-224.5"/>
<text text-anchor="middle" x="1795.5" y="-231.5" font-family="Helvetica,sans-Serif" font-size="10.00" fill="#000000">cpumask.h</text>
</a>
</g>
</g>
<!-- Node58&#45;&gt;Node62 -->
<g id="edge27" class="edge">
<title>Node58&#45;&gt;Node62</title>
<path fill="none" stroke="#191970" d="M1731.4345,-274.769C1747.0283,-264.8456 1766.901,-252.1994 1780.3472,-243.6427"/>
<polygon fill="#191970" stroke="#191970" points="1729.386,-271.9239 1722.8284,-280.2455 1733.1441,-277.8296 1729.386,-271.9239"/>
</g>
<!-- Node63 -->
<g id="node28" class="node">
<title>Node63</title>
<g id="a_node28"><a xlink:href="arch_2power64-linux_2odp_2api_2abi_2cpumask_8h_source.html" target="_top" xlink:title="cpumask.h">
<polygon fill="#ffffff" stroke="#000000" points="1848.5,-224.5 1848.5,-243.5 1918.5,-243.5 1918.5,-224.5 1848.5,-224.5"/>
<text text-anchor="middle" x="1883.5" y="-231.5" font-family="Helvetica,sans-Serif" font-size="10.00" fill="#000000">cpumask.h</text>
</a>
</g>
</g>
<!-- Node58&#45;&gt;Node63 -->
<g id="edge28" class="edge">
<title>Node58&#45;&gt;Node63</title>
<path fill="none" stroke="#191970" d="M1747.3404,-277.3235C1779.6173,-267.0536 1824.3852,-252.8093 1853.6393,-243.5011"/>
<polygon fill="#191970" stroke="#191970" points="1746.2235,-274.0059 1737.7555,-280.3733 1748.346,-280.6764 1746.2235,-274.0059"/>
</g>
<!-- Node64 -->
<g id="node29" class="node">
<title>Node64</title>
<g id="a_node29"><a xlink:href="arch_2x86__32-linux_2odp_2api_2abi_2cpumask_8h_source.html" target="_top" xlink:title="cpumask.h">
<polygon fill="#ffffff" stroke="#000000" points="1408.5,-224.5 1408.5,-243.5 1478.5,-243.5 1478.5,-224.5 1408.5,-224.5"/>
<text text-anchor="middle" x="1443.5" y="-231.5" font-family="Helvetica,sans-Serif" font-size="10.00" fill="#000000">cpumask.h</text>
</a>
</g>
</g>
<!-- Node58&#45;&gt;Node64 -->
<g id="edge29" class="edge">
<title>Node58&#45;&gt;Node64</title>
<path fill="none" stroke="#191970" d="M1662.5557,-279.8315C1583.8118,-262.9495 1562.4953,-260.1902 1487.5,-244 1484.5902,-243.3718 1481.5748,-242.7098 1478.5492,-242.0378"/>
<polygon fill="#191970" stroke="#191970" points="1661.938,-283.2787 1672.4508,-281.9622 1663.4116,-276.4355 1661.938,-283.2787"/>
</g>
<!-- Node65 -->
<g id="node30" class="node">
<title>Node65</title>
<g id="a_node30"><a xlink:href="arch_2x86__64-linux_2odp_2api_2abi_2cpumask_8h_source.html" target="_top" xlink:title="cpumask.h">
<polygon fill="#ffffff" stroke="#000000" points="1936.5,-224.5 1936.5,-243.5 2006.5,-243.5 2006.5,-224.5 1936.5,-224.5"/>
<text text-anchor="middle" x="1971.5" y="-231.5" font-family="Helvetica,sans-Serif" font-size="10.00" fill="#000000">cpumask.h</text>
</a>
</g>
</g>
<!-- Node58&#45;&gt;Node65 -->
<g id="edge30" class="edge">
<title>Node58&#45;&gt;Node65</title>
<path fill="none" stroke="#191970" d="M1752.5125,-280.8264C1797.0128,-271.7011 1867.0196,-257.1947 1927.5,-244 1930.4084,-243.3655 1933.4228,-242.699 1936.4478,-242.024"/>
<polygon fill="#191970" stroke="#191970" points="1751.6888,-277.4224 1742.5944,-282.8577 1753.0933,-284.28 1751.6888,-277.4224"/>
</g>
<!-- Node66 -->
<g id="node31" class="node">
<title>Node66</title>
<g id="a_node31"><a xlink:href="api_2cpumask_8h.html" target="_top" xlink:title="ODP CPU masks and enumeration. ">
<polygon fill="#ffffff" stroke="#ff0000" points="1665.5,-168.5 1665.5,-187.5 1735.5,-187.5 1735.5,-168.5 1665.5,-168.5"/>
<text text-anchor="middle" x="1700.5" y="-175.5" font-family="Helvetica,sans-Serif" font-size="10.00" fill="#000000">cpumask.h</text>
</a>
</g>
</g>
<!-- Node65&#45;&gt;Node66 -->
<g id="edge31" class="edge">
<title>Node65&#45;&gt;Node66</title>
<path fill="none" stroke="#191970" d="M1926.5442,-223.8298C1852.9181,-208.0783 1778.2751,-193.2291 1735.552,-184.8372"/>
<polygon fill="#191970" stroke="#191970" points="1925.9402,-227.2798 1936.452,-225.9564 1927.4092,-220.4357 1925.9402,-227.2798"/>
</g>
<!-- Node66&#45;&gt;Node29 -->
<g id="edge32" class="edge">
<title>Node66&#45;&gt;Node29</title>
<path fill="none" stroke="#191970" d="M1655.4734,-170.3591C1530.3698,-149.1294 1180.6881,-89.7895 1072.6885,-71.4623"/>
<polygon fill="#191970" stroke="#191970" points="1655.0369,-173.835 1665.4815,-172.0575 1656.2081,-166.9337 1655.0369,-173.835"/>
</g>
<!-- Node83 -->
<g id="node33" class="node">
<title>Node83</title>
<g id="a_node33"><a xlink:href="api_2std__types_8h.html" target="_top" xlink:title="Standard C language types and definitions for ODP. ">
<polygon fill="#ffffff" stroke="#ff0000" points="969,-336.5 969,-355.5 1042,-355.5 1042,-336.5 969,-336.5"/>
<text text-anchor="middle" x="1005.5" y="-343.5" font-family="Helvetica,sans-Serif" font-size="10.00" fill="#000000">std_types.h</text>
</a>
</g>
</g>
<!-- Node82&#45;&gt;Node83 -->
<g id="edge34" class="edge">
<title>Node82&#45;&gt;Node83</title>
<path fill="none" stroke="#191970" d="M1127.371,-388.9231C1098.305,-378.686 1058.5631,-364.6889 1032.4764,-355.5011"/>
<polygon fill="#191970" stroke="#191970" points="1126.5721,-392.3524 1137.1669,-392.3733 1128.8975,-385.75 1126.5721,-392.3524"/>
</g>
<!-- Node83&#45;&gt;Node11 -->
<g id="edge35" class="edge">
<title>Node83&#45;&gt;Node11</title>
<path fill="none" stroke="#191970" d="M958.7016,-345.2284C849.9573,-342.8969 571.9983,-333.8345 342.5,-300 337.85,-299.3145 332.9628,-298.401 328.2048,-297.404"/>
<polygon fill="#191970" stroke="#191970" points="958.9243,-348.7336 968.9941,-345.4396 959.068,-341.7351 958.9243,-348.7336"/>
</g>
<!-- Node83&#45;&gt;Node20 -->
<g id="edge36" class="edge">
<title>Node83&#45;&gt;Node20</title>
<path fill="none" stroke="#191970" d="M965.5584,-333.0265C944.8093,-325.2395 919.6513,-314.0956 899.5,-300 825.8231,-248.4638 758.7901,-160.9599 737.5003,-131.7892"/>
<polygon fill="#191970" stroke="#191970" points="964.4533,-336.3488 975.0474,-336.472 966.8424,-329.7691 964.4533,-336.3488"/>
</g>
<!-- Node83&#45;&gt;Node28 -->
<g id="edge46" class="edge">
<title>Node83&#45;&gt;Node28</title>
<path fill="none" stroke="#191970" d="M958.6959,-344.3099C816.067,-338.9349 395.3277,-321.3282 375.5,-300 369.4478,-293.4898 369.9761,-286.9641 375.5,-280 419.1807,-224.9306 481.4942,-295.3428 529.5,-244 559.1107,-212.3309 554.4444,-154.68 551.1583,-131.7676"/>
<polygon fill="#191970" stroke="#191970" points="958.7468,-347.8141 968.8706,-344.6903 959.0084,-340.819 958.7468,-347.8141"/>
</g>
<!-- Node83&#45;&gt;Node29 -->
<g id="edge62" class="edge">
<title>Node83&#45;&gt;Node29</title>
<path fill="none" stroke="#191970" d="M985.2208,-329.823C962.7071,-309.8958 929.5,-273.7639 929.5,-234 929.5,-234 929.5,-234 929.5,-178 929.5,-127.4911 987.1548,-91.6118 1019.3605,-75.5099"/>
<polygon fill="#191970" stroke="#191970" points="983.0683,-332.5872 992.9501,-336.4082 987.6079,-327.2588 983.0683,-332.5872"/>
</g>
<!-- Node83&#45;&gt;Node58 -->
<g id="edge38" class="edge">
<title>Node83&#45;&gt;Node58</title>
<path fill="none" stroke="#191970" d="M1052.3359,-345.1929C1160.5337,-342.7914 1436.0071,-333.5998 1663.5,-300 1666.2899,-299.5879 1669.1652,-299.094 1672.0468,-298.5494"/>
<polygon fill="#191970" stroke="#191970" points="1052.0147,-341.6988 1042.0915,-345.4108 1052.1637,-348.6972 1052.0147,-341.6988"/>
</g>
<!-- Node84 -->
<g id="node34" class="node">
<title>Node84</title>
<g id="a_node34"><a xlink:href="api_2abi-default_2byteorder_8h.html" target="_top" xlink:title="ODP byteorder. ">
<polygon fill="#ffffff" stroke="#ff0000" points="1071.5,-280.5 1071.5,-299.5 1143.5,-299.5 1143.5,-280.5 1071.5,-280.5"/>
<text text-anchor="middle" x="1107.5" y="-287.5" font-family="Helvetica,sans-Serif" font-size="10.00" fill="#000000">byteorder.h</text>
</a>
</g>
</g>
<!-- Node83&#45;&gt;Node84 -->
<g id="edge37" class="edge">
<title>Node83&#45;&gt;Node84</title>
<path fill="none" stroke="#191970" d="M1032.234,-331.3225C1050.4532,-321.3198 1074.0598,-308.3593 1089.9366,-299.6427"/>
<polygon fill="#191970" stroke="#191970" points="1030.3484,-328.3649 1023.267,-336.2455 1033.7173,-334.5009 1030.3484,-328.3649"/>
</g>
<!-- Node93 -->
<g id="node35" class="node">
<title>Node93</title>
<g id="a_node35"><a xlink:href="api_2abi-default_2init_8h.html" target="_top" xlink:title="ODP initialization. ">
<polygon fill="#ffffff" stroke="#ff0000" points="1162,-280.5 1162,-299.5 1203,-299.5 1203,-280.5 1162,-280.5"/>
<text text-anchor="middle" x="1182.5" y="-287.5" font-family="Helvetica,sans-Serif" font-size="10.00" fill="#000000">init.h</text>
</a>
</g>
</g>
<!-- Node83&#45;&gt;Node93 -->
<g id="edge39" class="edge">
<title>Node83&#45;&gt;Node93</title>
<path fill="none" stroke="#191970" d="M1046.0861,-333.5204C1075.6395,-324.3795 1116.6073,-311.5969 1152.5,-300 1155.53,-299.021 1158.727,-297.9723 1161.8597,-296.9358"/>
<polygon fill="#191970" stroke="#191970" points="1045.0466,-330.1783 1036.5251,-336.4738 1047.1126,-336.8665 1045.0466,-330.1783"/>
</g>
<!-- Node101 -->
<g id="node36" class="node">
<title>Node101</title>
<g id="a_node36"><a xlink:href="api_2abi-default_2ipsec_8h.html" target="_top" xlink:title="ODP IPSEC API &#45; platform specific types. ">
<polygon fill="#ffffff" stroke="#ff0000" points="1260,-280.5 1260,-299.5 1311,-299.5 1311,-280.5 1260,-280.5"/>
<text text-anchor="middle" x="1285.5" y="-287.5" font-family="Helvetica,sans-Serif" font-size="10.00" fill="#000000">ipsec.h</text>
</a>
</g>
</g>
<!-- Node83&#45;&gt;Node101 -->
<g id="edge40" class="edge">
<title>Node83&#45;&gt;Node101</title>
<path fill="none" stroke="#191970" d="M1052.1044,-337.8602C1100.5764,-329.2088 1178.588,-314.7644 1245.5,-300 1250.1134,-298.982 1255.0067,-297.8243 1259.729,-296.6665"/>
<polygon fill="#191970" stroke="#191970" points="1051.4572,-334.4203 1042.224,-339.6164 1052.6823,-341.3123 1051.4572,-334.4203"/>
</g>
<!-- Node110 -->
<g id="node37" class="node">
<title>Node110</title>
<g id="a_node37"><a xlink:href="api_2abi-default_2packet__io_8h.html" target="_top" xlink:title="ODP Packet IO. ">
<polygon fill="#ffffff" stroke="#ff0000" points="1329,-280.5 1329,-299.5 1402,-299.5 1402,-280.5 1329,-280.5"/>
<text text-anchor="middle" x="1365.5" y="-287.5" font-family="Helvetica,sans-Serif" font-size="10.00" fill="#000000">packet_io.h</text>
</a>
</g>
</g>
<!-- Node83&#45;&gt;Node110 -->
<g id="edge41" class="edge">
<title>Node83&#45;&gt;Node110</title>
<path fill="none" stroke="#191970" d="M1052.5447,-340.132C1114.0947,-332.2206 1225.212,-317.1343 1319.5,-300 1322.5556,-299.4447 1325.7176,-298.834 1328.8871,-298.1964"/>
<polygon fill="#191970" stroke="#191970" points="1051.8485,-336.6924 1042.373,-341.432 1052.736,-343.6359 1051.8485,-336.6924"/>
</g>
<!-- Node40 -->
<g id="node38" class="node">
<title>Node40</title>
<g id="a_node38"><a xlink:href="api_2abi-default_2rwlock__recursive_8h.html" target="_top" xlink:title="ODP recursive read/write lock. ">
<polygon fill="#ffffff" stroke="#ff0000" points="1458.5,-280.5 1458.5,-299.5 1566.5,-299.5 1566.5,-280.5 1458.5,-280.5"/>
<text text-anchor="middle" x="1512.5" y="-287.5" font-family="Helvetica,sans-Serif" font-size="10.00" fill="#000000">rwlock_recursive.h</text>
</a>
</g>
</g>
<!-- Node83&#45;&gt;Node40 -->
<g id="edge42" class="edge">
<title>Node83&#45;&gt;Node40</title>
<path fill="none" stroke="#191970" d="M1052.5599,-341.7169C1133.0004,-334.2509 1302.0613,-317.9282 1444.5,-300 1448.9989,-299.4337 1453.6604,-298.8153 1458.3372,-298.1725"/>
<polygon fill="#191970" stroke="#191970" points="1051.9066,-338.2623 1042.2714,-342.6684 1052.5513,-345.2326 1051.9066,-338.2623"/>
</g>
<!-- Node138 -->
<g id="node39" class="node">
<title>Node138</title>
<g id="a_node39"><a xlink:href="api_2abi-default_2schedule_8h.html" target="_top" xlink:title="ODP schedule. ">
<polygon fill="#ffffff" stroke="#ff0000" points="1585,-280.5 1585,-299.5 1654,-299.5 1654,-280.5 1585,-280.5"/>
<text text-anchor="middle" x="1619.5" y="-287.5" font-family="Helvetica,sans-Serif" font-size="10.00" fill="#000000">schedule.h</text>
</a>
</g>
</g>
<!-- Node83&#45;&gt;Node138 -->
<g id="edge43" class="edge">
<title>Node83&#45;&gt;Node138</title>
<path fill="none" stroke="#191970" d="M1052.1804,-344.4923C1149.8252,-340.8432 1382.5787,-329.5524 1575.5,-300 1578.4425,-299.5493 1581.4809,-299.012 1584.5219,-298.4238"/>
<polygon fill="#191970" stroke="#191970" points="1051.9191,-340.9994 1042.0532,-344.8613 1052.1741,-347.9948 1051.9191,-340.9994"/>
</g>
<!-- Node146 -->
<g id="node40" class="node">
<title>Node146</title>
<g id="a_node40"><a xlink:href="api_2abi-default_2spinlock__recursive_8h.html" target="_top" xlink:title="ODP recursive spinlock. ">
<polygon fill="#ffffff" stroke="#ff0000" points="384.5,-280.5 384.5,-299.5 500.5,-299.5 500.5,-280.5 384.5,-280.5"/>
<text text-anchor="middle" x="442.5" y="-287.5" font-family="Helvetica,sans-Serif" font-size="10.00" fill="#000000">spinlock_recursive.h</text>
</a>
</g>
</g>
<!-- Node83&#45;&gt;Node146 -->
<g id="edge44" class="edge">
<title>Node83&#45;&gt;Node146</title>
<path fill="none" stroke="#191970" d="M958.5044,-342.5186C870.3214,-335.7914 674.0909,-319.8995 509.5,-300 506.5811,-299.6471 503.5933,-299.2677 500.5779,-298.8705"/>
<polygon fill="#191970" stroke="#191970" points="958.4773,-346.0265 968.7134,-343.2932 959.0069,-339.0466 958.4773,-346.0265"/>
</g>
<!-- Node155 -->
<g id="node41" class="node">
<title>Node155</title>
<g id="a_node41"><a xlink:href="api_2abi-default_2traffic__mngr_8h.html" target="_top" xlink:title="ODP traffic mngr. ">
<polygon fill="#ffffff" stroke="#ff0000" points="518.5,-280.5 518.5,-299.5 602.5,-299.5 602.5,-280.5 518.5,-280.5"/>
<text text-anchor="middle" x="560.5" y="-287.5" font-family="Helvetica,sans-Serif" font-size="10.00" fill="#000000">traffic_mngr.h</text>
</a>
</g>
</g>
<!-- Node83&#45;&gt;Node155 -->
<g id="edge45" class="edge">
<title>Node83&#45;&gt;Node155</title>
<path fill="none" stroke="#191970" d="M958.6115,-341.7107C884.6189,-334.6756 736.3422,-319.4972 611.5,-300 608.6473,-299.5545 605.7109,-299.0641 602.7563,-298.547"/>
<polygon fill="#191970" stroke="#191970" points="958.6932,-345.2339 968.9778,-342.6891 959.351,-338.2649 958.6932,-345.2339"/>
</g>
<!-- Node163 -->
<g id="node42" class="node">
<title>Node163</title>
<g id="a_node42"><a xlink:href="api_2buffer_8h.html" target="_top" xlink:title="ODP buffer descriptor. ">
<polygon fill="#ffffff" stroke="#000000" points="958,-168.5 958,-187.5 1011,-187.5 1011,-168.5 958,-168.5"/>
<text text-anchor="middle" x="984.5" y="-175.5" font-family="Helvetica,sans-Serif" font-size="10.00" fill="#000000">buffer.h</text>
</a>
</g>
</g>
<!-- Node83&#45;&gt;Node163 -->
<g id="edge47" class="edge">
<title>Node83&#45;&gt;Node163</title>
<path fill="none" stroke="#191970" d="M998.4932,-326.6582C995.8446,-318.5327 993.0888,-308.9143 991.5,-300 984.1294,-258.6452 983.9727,-208.28 984.2801,-187.5811"/>
<polygon fill="#191970" stroke="#191970" points="995.2453,-327.9764 1001.8062,-336.2953 1001.865,-325.7006 995.2453,-327.9764"/>
</g>
<!-- Node118 -->
<g id="node43" class="node">
<title>Node118</title>
<g id="a_node43"><a xlink:href="api_2classification_8h.html" target="_top" xlink:title="ODP classification descriptor. ">
<polygon fill="#ffffff" stroke="#ff0000" points="996,-112.5 996,-131.5 1085,-131.5 1085,-112.5 996,-112.5"/>
<text text-anchor="middle" x="1040.5" y="-119.5" font-family="Helvetica,sans-Serif" font-size="10.00" fill="#000000">classification.h</text>
</a>
</g>
</g>
<!-- Node83&#45;&gt;Node118 -->
<g id="edge49" class="edge">
<title>Node83&#45;&gt;Node118</title>
<path fill="none" stroke="#191970" d="M1008.5606,-326.4119C1015.7882,-280.1557 1033.7041,-165.494 1039.0017,-131.5891"/>
<polygon fill="#191970" stroke="#191970" points="1005.0897,-325.9545 1007.0039,-336.375 1012.0058,-327.0352 1005.0897,-325.9545"/>
</g>
<!-- Node124 -->
<g id="node44" class="node">
<title>Node124</title>
<g id="a_node44"><a xlink:href="api_2crypto_8h.html" target="_top" xlink:title="ODP crypto. ">
<polygon fill="#ffffff" stroke="#ff0000" points="1076.5,-168.5 1076.5,-187.5 1132.5,-187.5 1132.5,-168.5 1076.5,-168.5"/>
<text text-anchor="middle" x="1104.5" y="-175.5" font-family="Helvetica,sans-Serif" font-size="10.00" fill="#000000">crypto.h</text>
</a>
</g>
</g>
<!-- Node83&#45;&gt;Node124 -->
<g id="edge51" class="edge">
<title>Node83&#45;&gt;Node124</title>
<path fill="none" stroke="#191970" d="M1016.3156,-327.6463C1037.2427,-292.1336 1082.6284,-215.1154 1098.7086,-187.8279"/>
<polygon fill="#191970" stroke="#191970" points="1013.1679,-326.0939 1011.1063,-336.4862 1019.1987,-329.6478 1013.1679,-326.0939"/>
</g>
<!-- Node120 -->
<g id="node45" class="node">
<title>Node120</title>
<g id="a_node45"><a xlink:href="api_2packet_8h.html" target="_top" xlink:title="ODP packet descriptor. ">
<polygon fill="#ffffff" stroke="#ff0000" points="1172,-112.5 1172,-131.5 1231,-131.5 1231,-112.5 1172,-112.5"/>
<text text-anchor="middle" x="1201.5" y="-119.5" font-family="Helvetica,sans-Serif" font-size="10.00" fill="#000000">packet.h</text>
</a>
</g>
</g>
<!-- Node83&#45;&gt;Node120 -->
<g id="edge53" class="edge">
<title>Node83&#45;&gt;Node120</title>
<path fill="none" stroke="#191970" d="M1052.5389,-342.193C1107.0637,-336.69 1191.9638,-324.3798 1211.5,-300 1252.3386,-249.0363 1219.064,-161.1612 1206.104,-131.8423"/>
<polygon fill="#191970" stroke="#191970" points="1052.0174,-338.727 1042.4008,-343.1736 1052.6913,-345.6945 1052.0174,-338.727"/>
</g>
<!-- Node132 -->
<g id="node46" class="node">
<title>Node132</title>
<g id="a_node46"><a xlink:href="api_2packet__io_8h.html" target="_top" xlink:title="ODP Packet IO. ">
<polygon fill="#ffffff" stroke="#ff0000" points="1302,-168.5 1302,-187.5 1375,-187.5 1375,-168.5 1302,-168.5"/>
<text text-anchor="middle" x="1338.5" y="-175.5" font-family="Helvetica,sans-Serif" font-size="10.00" fill="#000000">packet_io.h</text>
</a>
</g>
</g>
<!-- Node83&#45;&gt;Node132 -->
<g id="edge55" class="edge">
<title>Node83&#45;&gt;Node132</title>
<path fill="none" stroke="#191970" d="M1052.6285,-344.1103C1154.3019,-339.5492 1387.0007,-326.3194 1410.5,-300 1427.4532,-281.0122 1369.9146,-212.9647 1347.267,-187.6109"/>
<polygon fill="#191970" stroke="#191970" points="1052.1782,-340.6266 1042.3415,-344.5621 1052.4855,-347.6198 1052.1782,-340.6266"/>
</g>
<!-- Node128 -->
<g id="node47" class="node">
<title>Node128</title>
<g id="a_node47"><a xlink:href="api_2queue_8h.html" target="_top" xlink:title="ODP queue. ">
<polygon fill="#ffffff" stroke="#ff0000" points="845.5,-112.5 845.5,-131.5 901.5,-131.5 901.5,-112.5 845.5,-112.5"/>
<text text-anchor="middle" x="873.5" y="-119.5" font-family="Helvetica,sans-Serif" font-size="10.00" fill="#000000">queue.h</text>
</a>
</g>
</g>
<!-- Node83&#45;&gt;Node128 -->
<g id="edge57" class="edge">
<title>Node83&#45;&gt;Node128</title>
<path fill="none" stroke="#191970" d="M961.6884,-332.5737C944.9854,-325.3983 927.1765,-314.8904 915.5,-300 874.1594,-247.2805 872.4341,-160.5439 873.1049,-131.6795"/>
<polygon fill="#191970" stroke="#191970" points="960.7552,-335.9694 971.3404,-336.4212 963.3473,-329.467 960.7552,-335.9694"/>
</g>
<!-- Node164 -->
<g id="node48" class="node">
<title>Node164</title>
<g id="a_node48"><a xlink:href="spec_2chksum_8h.html" target="_top" xlink:title="ODP checksum functions. ">
<polygon fill="#ffffff" stroke="#ff0000" points="620.5,-280.5 620.5,-299.5 684.5,-299.5 684.5,-280.5 620.5,-280.5"/>
<text text-anchor="middle" x="652.5" y="-287.5" font-family="Helvetica,sans-Serif" font-size="10.00" fill="#000000">chksum.h</text>
</a>
</g>
</g>
<!-- Node83&#45;&gt;Node164 -->
<g id="edge59" class="edge">
<title>Node83&#45;&gt;Node164</title>
<path fill="none" stroke="#191970" d="M958.6879,-340.4754C897.4575,-332.9348 786.97,-318.2483 693.5,-300 690.6236,-299.4384 687.6451,-298.8082 684.6667,-298.1445"/>
<polygon fill="#191970" stroke="#191970" points="958.4567,-343.9731 968.8073,-341.7117 959.3056,-337.0248 958.4567,-343.9731"/>
</g>
<!-- Node166 -->
<g id="node49" class="node">
<title>Node166</title>
<g id="a_node49"><a xlink:href="api_2spec_2cpu_8h.html" target="_top" xlink:title="ODP CPU API. ">
<polygon fill="#ffffff" stroke="#ff0000" points="703,-280.5 703,-299.5 746,-299.5 746,-280.5 703,-280.5"/>
<text text-anchor="middle" x="724.5" y="-287.5" font-family="Helvetica,sans-Serif" font-size="10.00" fill="#000000">cpu.h</text>
</a>
</g>
</g>
<!-- Node83&#45;&gt;Node166 -->
<g id="edge60" class="edge">
<title>Node83&#45;&gt;Node166</title>
<path fill="none" stroke="#191970" d="M958.9889,-339.4789C908.28,-331.9059 824.9506,-318.1018 754.5,-300 751.735,-299.2895 748.8555,-298.4551 746.022,-297.5764"/>
<polygon fill="#191970" stroke="#191970" points="958.5862,-342.9573 968.9901,-340.9548 959.6082,-336.0323 958.5862,-342.9573"/>
</g>
<!-- Node168 -->
<g id="node50" class="node">
<title>Node168</title>
<g id="a_node50"><a xlink:href="spec_2feature_8h.html" target="_top" xlink:title="ODP features. ">
<polygon fill="#ffffff" stroke="#ff0000" points="764,-280.5 764,-299.5 825,-299.5 825,-280.5 764,-280.5"/>
<text text-anchor="middle" x="794.5" y="-287.5" font-family="Helvetica,sans-Serif" font-size="10.00" fill="#000000">feature.h</text>
</a>
</g>
</g>
<!-- Node83&#45;&gt;Node168 -->
<g id="edge61" class="edge">
<title>Node83&#45;&gt;Node168</title>
<path fill="none" stroke="#191970" d="M959.5339,-333.8005C918.8006,-322.9897 860.4649,-307.5073 825.1662,-298.1389"/>
<polygon fill="#191970" stroke="#191970" points="958.6646,-337.1908 969.2278,-336.3733 960.4603,-330.4251 958.6646,-337.1908"/>
</g>
<!-- Node163&#45;&gt;Node29 -->
<g id="edge48" class="edge">
<title>Node163&#45;&gt;Node29</title>
<path fill="none" stroke="#191970" d="M981.0504,-158.2625C979.6045,-144.6034 979.5981,-126.37 986.5,-112 994.178,-96.0141 1010.3042,-83.4577 1022.945,-75.5306"/>
<polygon fill="#191970" stroke="#191970" points="977.6277,-159.0586 982.4835,-168.4751 984.5598,-158.0858 977.6277,-159.0586"/>
</g>
<!-- Node118&#45;&gt;Node29 -->
<g id="edge50" class="edge">
<title>Node118&#45;&gt;Node29</title>
<path fill="none" stroke="#191970" d="M1040.5,-102.1575C1040.5,-93.155 1040.5,-82.9199 1040.5,-75.6427"/>
<polygon fill="#191970" stroke="#191970" points="1037.0001,-102.2455 1040.5,-112.2455 1044.0001,-102.2456 1037.0001,-102.2455"/>
</g>
<!-- Node124&#45;&gt;Node29 -->
<g id="edge52" class="edge">
<title>Node124&#45;&gt;Node29</title>
<path fill="none" stroke="#191970" d="M1104.6526,-158.0897C1103.9577,-144.3511 1101.394,-126.0939 1093.5,-112 1084.8074,-96.4803 1068.7912,-83.701 1056.6322,-75.5842"/>
<polygon fill="#191970" stroke="#191970" points="1101.1595,-158.4539 1104.8728,-168.3767 1108.1579,-158.304 1101.1595,-158.4539"/>
</g>
<!-- Node120&#45;&gt;Node29 -->
<g id="edge54" class="edge">
<title>Node120&#45;&gt;Node29</title>
<path fill="none" stroke="#191970" d="M1164.2889,-109.057C1134.8241,-98.8084 1094.3459,-84.729 1067.8157,-75.5011"/>
<polygon fill="#191970" stroke="#191970" points="1163.2283,-112.3937 1173.8231,-112.3733 1165.528,-105.7822 1163.2283,-112.3937"/>
</g>
<!-- Node132&#45;&gt;Node29 -->
<g id="edge56" class="edge">
<title>Node132&#45;&gt;Node29</title>
<path fill="none" stroke="#191970" d="M1319.1946,-162.0278C1300.0856,-146.9978 1269.4315,-124.9233 1239.5,-112 1183.5057,-87.8238 1112.922,-75.3692 1072.6301,-69.7989"/>
<polygon fill="#191970" stroke="#191970" points="1317.1263,-164.8555 1327.1179,-168.3796 1321.5047,-159.3939 1317.1263,-164.8555"/>
</g>
<!-- Node128&#45;&gt;Node29 -->
<g id="edge58" class="edge">
<title>Node128&#45;&gt;Node29</title>
<path fill="none" stroke="#191970" d="M911.7059,-109.1884C942.2514,-98.9456 984.3927,-84.8144 1012.0318,-75.5462"/>
<polygon fill="#191970" stroke="#191970" points="910.1976,-106.0026 901.8293,-112.5004 912.4232,-112.6394 910.1976,-106.0026"/>
</g>
</g>
</svg>
