<?xml version="1.0" encoding="UTF-8" standalone="no"?>
<!DOCTYPE svg PUBLIC "-//W3C//DTD SVG 1.1//EN"
 "http://www.w3.org/Graphics/SVG/1.1/DTD/svg11.dtd">
<!-- Generated by graphviz version 2.43.0 (0)
 -->
<!-- Title: packet_io_types.h Pages: 1 -->
<svg width="366pt" height="467pt"
 viewBox="0.00 0.00 366.00 467.00" xmlns="http://www.w3.org/2000/svg" xmlns:xlink="http://www.w3.org/1999/xlink">
<g id="graph0" class="graph" transform="scale(1 1) rotate(0) translate(4 463)">
<title>packet_io_types.h</title>
<!-- Node1 -->
<g id="Node000001" class="node">
<title>Node1</title>
<g id="a_Node000001"><a xlink:title="ODP Packet IO types.">
<polygon fill="#999999" stroke="#666666" points="222,-459 118,-459 118,-440 222,-440 222,-459"/>
<text text-anchor="middle" x="170" y="-447" font-family="Helvetica,sans-Serif" font-size="10.00">packet_io_types.h</text>
</a>
</g>
</g>
<!-- Node2 -->
<g id="Node000002" class="node">
<title>Node2</title>
<g id="a_Node000002"><a xlink:href="api_2packet__io__types_8h.html" target="_top" xlink:title="ODP Packet IO.">
<polygon fill="white" stroke="#666666" points="222,-404 118,-404 118,-385 222,-385 222,-404"/>
<text text-anchor="middle" x="170" y="-392" font-family="Helvetica,sans-Serif" font-size="10.00">packet_io_types.h</text>
</a>
</g>
</g>
<!-- Node1&#45;&gt;Node2 -->
<g id="edge1_Node000001_Node000002" class="edge">
<title>Node1&#45;&gt;Node2</title>
<g id="a_edge1_Node000001_Node000002"><a xlink:title=" ">
<path fill="none" stroke="#63b8ff" d="M170,-429.66C170,-420.93 170,-410.99 170,-404.09"/>
<polygon fill="#63b8ff" stroke="#63b8ff" points="166.5,-429.75 170,-439.75 173.5,-429.75 166.5,-429.75"/>
</a>
</g>
</g>
<!-- Node3 -->
<g id="Node000003" class="node">
<title>Node3</title>
<g id="a_Node000003"><a xlink:href="api_2spec_2classification_8h.html" target="_top" xlink:title="ODP classification descriptor.">
<polygon fill="white" stroke="#666666" points="141.5,-349 52.5,-349 52.5,-330 141.5,-330 141.5,-349"/>
<text text-anchor="middle" x="97" y="-337" font-family="Helvetica,sans-Serif" font-size="10.00">classification.h</text>
</a>
</g>
</g>
<!-- Node2&#45;&gt;Node3 -->
<g id="edge2_Node000002_Node000003" class="edge">
<title>Node2&#45;&gt;Node3</title>
<g id="a_edge2_Node000002_Node000003"><a xlink:title=" ">
<path fill="none" stroke="#63b8ff" d="M149.86,-378.88C136.72,-369.34 120.02,-357.21 108.94,-349.17"/>
<polygon fill="#63b8ff" stroke="#63b8ff" points="148.12,-381.94 158.27,-384.98 152.24,-376.28 148.12,-381.94"/>
</a>
</g>
</g>
<!-- Node5 -->
<g id="Node000005" class="node">
<title>Node5</title>
<g id="a_Node000005"><a xlink:href="api_2spec_2ipsec__types_8h.html" target="_top" xlink:title="ODP IPsec API type definitions.">
<polygon fill="white" stroke="#666666" points="211.5,-239 128.5,-239 128.5,-220 211.5,-220 211.5,-239"/>
<text text-anchor="middle" x="170" y="-227" font-family="Helvetica,sans-Serif" font-size="10.00">ipsec_types.h</text>
</a>
</g>
</g>
<!-- Node2&#45;&gt;Node5 -->
<g id="edge13_Node000002_Node000005" class="edge">
<title>Node2&#45;&gt;Node5</title>
<g id="a_edge13_Node000002_Node000005"><a xlink:title=" ">
<path fill="none" stroke="#63b8ff" d="M170,-374.37C170,-339.03 170,-264.79 170,-239.31"/>
<polygon fill="#63b8ff" stroke="#63b8ff" points="166.5,-374.74 170,-384.74 173.5,-374.74 166.5,-374.74"/>
</a>
</g>
</g>
<!-- Node10 -->
<g id="Node000010" class="node">
<title>Node10</title>
<g id="a_Node000010"><a xlink:href="api_2spec_2packet__io_8h.html" target="_top" xlink:title="ODP Packet IO.">
<polygon fill="white" stroke="#666666" points="72,-239 0,-239 0,-220 72,-220 72,-239"/>
<text text-anchor="middle" x="36" y="-227" font-family="Helvetica,sans-Serif" font-size="10.00">packet_io.h</text>
</a>
</g>
</g>
<!-- Node2&#45;&gt;Node10 -->
<g id="edge17_Node000002_Node000010" class="edge">
<title>Node2&#45;&gt;Node10</title>
<g id="a_edge17_Node000002_Node000010"><a xlink:title=" ">
<path fill="none" stroke="#63b8ff" d="M107.92,-386.51C83.84,-380.5 58.4,-369.41 43,-349 17.68,-315.44 28.27,-260.12 33.61,-239.03"/>
<polygon fill="#63b8ff" stroke="#63b8ff" points="107.24,-389.95 117.76,-388.72 108.77,-383.12 107.24,-389.95"/>
</a>
</g>
</g>
<!-- Node12 -->
<g id="Node000012" class="node">
<title>Node12</title>
<g id="a_Node000012"><a xlink:href="api_2spec_2packet_8h.html" target="_top" xlink:title="ODP packet descriptor.">
<polygon fill="white" stroke="#666666" points="358,-349 300,-349 300,-330 358,-330 358,-349"/>
<text text-anchor="middle" x="329" y="-337" font-family="Helvetica,sans-Serif" font-size="10.00">packet.h</text>
</a>
</g>
</g>
<!-- Node2&#45;&gt;Node12 -->
<g id="edge14_Node000002_Node000012" class="edge">
<title>Node2&#45;&gt;Node12</title>
<g id="a_edge14_Node000002_Node000012"><a xlink:title=" ">
<path fill="none" stroke="#63b8ff" d="M205.1,-381.8C234.78,-371.91 276.6,-357.97 303.25,-349.08"/>
<polygon fill="#63b8ff" stroke="#63b8ff" points="203.93,-378.5 195.55,-384.98 206.14,-385.14 203.93,-378.5"/>
</a>
</g>
</g>
<!-- Node14 -->
<g id="Node000014" class="node">
<title>Node14</title>
<g id="a_Node000014"><a xlink:href="api_2spec_2traffic__mngr_8h.html" target="_top" xlink:title=" ">
<polygon fill="white" stroke="#666666" points="282,-349 198,-349 198,-330 282,-330 282,-349"/>
<text text-anchor="middle" x="240" y="-337" font-family="Helvetica,sans-Serif" font-size="10.00">traffic_mngr.h</text>
</a>
</g>
</g>
<!-- Node2&#45;&gt;Node14 -->
<g id="edge18_Node000002_Node000014" class="edge">
<title>Node2&#45;&gt;Node14</title>
<g id="a_edge18_Node000002_Node000014"><a xlink:title=" ">
<path fill="none" stroke="#63b8ff" d="M189.31,-378.88C201.91,-369.34 217.93,-357.21 228.55,-349.17"/>
<polygon fill="#63b8ff" stroke="#63b8ff" points="187.11,-376.16 181.25,-384.98 191.33,-381.74 187.11,-376.16"/>
</a>
</g>
</g>
<!-- Node4 -->
<g id="Node000004" class="node">
<title>Node4</title>
<g id="a_Node000004"><a xlink:href="api_2classification_8h.html" target="_top" xlink:title="ODP classification descriptor.">
<polygon fill="white" stroke="#666666" points="141.5,-294 52.5,-294 52.5,-275 141.5,-275 141.5,-294"/>
<text text-anchor="middle" x="97" y="-282" font-family="Helvetica,sans-Serif" font-size="10.00">classification.h</text>
</a>
</g>
</g>
<!-- Node3&#45;&gt;Node4 -->
<g id="edge3_Node000003_Node000004" class="edge">
<title>Node3&#45;&gt;Node4</title>
<g id="a_edge3_Node000003_Node000004"><a xlink:title=" ">
<path fill="none" stroke="#63b8ff" d="M97,-319.66C97,-310.93 97,-300.99 97,-294.09"/>
<polygon fill="#63b8ff" stroke="#63b8ff" points="93.5,-319.75 97,-329.75 100.5,-319.75 93.5,-319.75"/>
</a>
</g>
</g>
<!-- Node4&#45;&gt;Node5 -->
<g id="edge4_Node000004_Node000005" class="edge">
<title>Node4&#45;&gt;Node5</title>
<g id="a_edge4_Node000004_Node000005"><a xlink:title=" ">
<path fill="none" stroke="#63b8ff" d="M117.14,-268.88C130.28,-259.34 146.98,-247.21 158.06,-239.17"/>
<polygon fill="#63b8ff" stroke="#63b8ff" points="114.76,-266.28 108.73,-274.98 118.88,-271.94 114.76,-266.28"/>
</a>
</g>
</g>
<!-- Node9 -->
<g id="Node000009" class="node">
<title>Node9</title>
<g id="a_Node000009"><a xlink:href="odp__api_8h.html" target="_top" xlink:title="The OpenDataPlane API.">
<polygon fill="white" stroke="#666666" points="202,-19 138,-19 138,0 202,0 202,-19"/>
<text text-anchor="middle" x="170" y="-7" font-family="Helvetica,sans-Serif" font-size="10.00">odp_api.h</text>
</a>
</g>
</g>
<!-- Node4&#45;&gt;Node9 -->
<g id="edge9_Node000004_Node000009" class="edge">
<title>Node4&#45;&gt;Node9</title>
<g id="a_edge9_Node000004_Node000009"><a xlink:title=" ">
<path fill="none" stroke="#63b8ff" d="M97.84,-264.77C98.72,-243.23 100,-206.82 100,-175.5 100,-175.5 100,-175.5 100,-118.5 100,-75.38 139.79,-35.89 159.37,-19.07"/>
<polygon fill="#63b8ff" stroke="#63b8ff" points="94.34,-264.68 97.4,-274.82 101.33,-264.98 94.34,-264.68"/>
</a>
</g>
</g>
<!-- Node4&#45;&gt;Node10 -->
<g id="edge10_Node000004_Node000010" class="edge">
<title>Node4&#45;&gt;Node10</title>
<g id="a_edge10_Node000004_Node000010"><a xlink:title=" ">
<path fill="none" stroke="#63b8ff" d="M79.53,-268.32C68.66,-258.87 55.06,-247.06 45.98,-239.17"/>
<polygon fill="#63b8ff" stroke="#63b8ff" points="77.35,-271.07 87.2,-274.98 81.95,-265.78 77.35,-271.07"/>
</a>
</g>
</g>
<!-- Node6 -->
<g id="Node000006" class="node">
<title>Node6</title>
<g id="a_Node000006"><a xlink:href="api_2ipsec__types_8h.html" target="_top" xlink:title="ODP IPsec.">
<polygon fill="white" stroke="#666666" points="211.5,-184 128.5,-184 128.5,-165 211.5,-165 211.5,-184"/>
<text text-anchor="middle" x="170" y="-172" font-family="Helvetica,sans-Serif" font-size="10.00">ipsec_types.h</text>
</a>
</g>
</g>
<!-- Node5&#45;&gt;Node6 -->
<g id="edge5_Node000005_Node000006" class="edge">
<title>Node5&#45;&gt;Node6</title>
<g id="a_edge5_Node000005_Node000006"><a xlink:title=" ">
<path fill="none" stroke="#63b8ff" d="M170,-209.66C170,-200.93 170,-190.99 170,-184.09"/>
<polygon fill="#63b8ff" stroke="#63b8ff" points="166.5,-209.75 170,-219.75 173.5,-209.75 166.5,-209.75"/>
</a>
</g>
</g>
<!-- Node7 -->
<g id="Node000007" class="node">
<title>Node7</title>
<g id="a_Node000007"><a xlink:href="api_2spec_2ipsec_8h.html" target="_top" xlink:title="ODP IPsec API.">
<polygon fill="white" stroke="#666666" points="195.5,-129 144.5,-129 144.5,-110 195.5,-110 195.5,-129"/>
<text text-anchor="middle" x="170" y="-117" font-family="Helvetica,sans-Serif" font-size="10.00">ipsec.h</text>
</a>
</g>
</g>
<!-- Node6&#45;&gt;Node7 -->
<g id="edge6_Node000006_Node000007" class="edge">
<title>Node6&#45;&gt;Node7</title>
<g id="a_edge6_Node000006_Node000007"><a xlink:title=" ">
<path fill="none" stroke="#63b8ff" d="M170,-154.66C170,-145.93 170,-135.99 170,-129.09"/>
<polygon fill="#63b8ff" stroke="#63b8ff" points="166.5,-154.75 170,-164.75 173.5,-154.75 166.5,-154.75"/>
</a>
</g>
</g>
<!-- Node8 -->
<g id="Node000008" class="node">
<title>Node8</title>
<g id="a_Node000008"><a xlink:href="api_2ipsec_8h.html" target="_top" xlink:title="ODP IPSEC API &#45; platform specific header.">
<polygon fill="white" stroke="#666666" points="195.5,-74 144.5,-74 144.5,-55 195.5,-55 195.5,-74"/>
<text text-anchor="middle" x="170" y="-62" font-family="Helvetica,sans-Serif" font-size="10.00">ipsec.h</text>
</a>
</g>
</g>
<!-- Node7&#45;&gt;Node8 -->
<g id="edge7_Node000007_Node000008" class="edge">
<title>Node7&#45;&gt;Node8</title>
<g id="a_edge7_Node000007_Node000008"><a xlink:title=" ">
<path fill="none" stroke="#63b8ff" d="M170,-99.66C170,-90.93 170,-80.99 170,-74.09"/>
<polygon fill="#63b8ff" stroke="#63b8ff" points="166.5,-99.75 170,-109.75 173.5,-99.75 166.5,-99.75"/>
</a>
</g>
</g>
<!-- Node8&#45;&gt;Node9 -->
<g id="edge8_Node000008_Node000009" class="edge">
<title>Node8&#45;&gt;Node9</title>
<g id="a_edge8_Node000008_Node000009"><a xlink:title=" ">
<path fill="none" stroke="#63b8ff" d="M170,-44.66C170,-35.93 170,-25.99 170,-19.09"/>
<polygon fill="#63b8ff" stroke="#63b8ff" points="166.5,-44.75 170,-54.75 173.5,-44.75 166.5,-44.75"/>
</a>
</g>
</g>
<!-- Node11 -->
<g id="Node000011" class="node">
<title>Node11</title>
<g id="a_Node000011"><a xlink:href="api_2packet__io_8h.html" target="_top" xlink:title="ODP Packet IO.">
<polygon fill="white" stroke="#666666" points="72,-74 0,-74 0,-55 72,-55 72,-74"/>
<text text-anchor="middle" x="36" y="-62" font-family="Helvetica,sans-Serif" font-size="10.00">packet_io.h</text>
</a>
</g>
</g>
<!-- Node10&#45;&gt;Node11 -->
<g id="edge11_Node000010_Node000011" class="edge">
<title>Node10&#45;&gt;Node11</title>
<g id="a_edge11_Node000010_Node000011"><a xlink:title=" ">
<path fill="none" stroke="#63b8ff" d="M36,-209.37C36,-174.03 36,-99.79 36,-74.31"/>
<polygon fill="#63b8ff" stroke="#63b8ff" points="32.5,-209.74 36,-219.74 39.5,-209.74 32.5,-209.74"/>
</a>
</g>
</g>
<!-- Node11&#45;&gt;Node9 -->
<g id="edge12_Node000011_Node000009" class="edge">
<title>Node11&#45;&gt;Node9</title>
<g id="a_edge12_Node000011_Node000009"><a xlink:title=" ">
<path fill="none" stroke="#63b8ff" d="M66.87,-51.29C91.7,-41.47 125.99,-27.91 148.08,-19.17"/>
<polygon fill="#63b8ff" stroke="#63b8ff" points="65.54,-48.05 57.53,-54.98 68.12,-54.56 65.54,-48.05"/>
</a>
</g>
</g>
<!-- Node13 -->
<g id="Node000013" class="node">
<title>Node13</title>
<g id="a_Node000013"><a xlink:href="api_2packet_8h.html" target="_top" xlink:title="ODP packet descriptor.">
<polygon fill="white" stroke="#666666" points="337,-129 279,-129 279,-110 337,-110 337,-129"/>
<text text-anchor="middle" x="308" y="-117" font-family="Helvetica,sans-Serif" font-size="10.00">packet.h</text>
</a>
</g>
</g>
<!-- Node12&#45;&gt;Node13 -->
<g id="edge15_Node000012_Node000013" class="edge">
<title>Node12&#45;&gt;Node13</title>
<g id="a_edge15_Node000012_Node000013"><a xlink:title=" ">
<path fill="none" stroke="#63b8ff" d="M327.2,-319.85C322.87,-274.82 311.95,-161.53 308.84,-129.22"/>
<polygon fill="#63b8ff" stroke="#63b8ff" points="323.73,-320.34 328.18,-329.95 330.7,-319.66 323.73,-320.34"/>
</a>
</g>
</g>
<!-- Node13&#45;&gt;Node9 -->
<g id="edge16_Node000013_Node000009" class="edge">
<title>Node13&#45;&gt;Node9</title>
<g id="a_edge16_Node000013_Node000009"><a xlink:title=" ">
<path fill="none" stroke="#63b8ff" d="M296.17,-101.26C286.11,-87.51 270.69,-68.4 254,-55 234.7,-39.5 209.18,-26.89 191.35,-19.1"/>
<polygon fill="#63b8ff" stroke="#63b8ff" points="293.58,-103.66 302.22,-109.78 299.29,-99.6 293.58,-103.66"/>
</a>
</g>
</g>
<!-- Node15 -->
<g id="Node000015" class="node">
<title>Node15</title>
<g id="a_Node000015"><a xlink:href="api_2traffic__mngr_8h.html" target="_top" xlink:title="ODP Traffic manager.">
<polygon fill="white" stroke="#666666" points="282,-294 198,-294 198,-275 282,-275 282,-294"/>
<text text-anchor="middle" x="240" y="-282" font-family="Helvetica,sans-Serif" font-size="10.00">traffic_mngr.h</text>
</a>
</g>
</g>
<!-- Node14&#45;&gt;Node15 -->
<g id="edge19_Node000014_Node000015" class="edge">
<title>Node14&#45;&gt;Node15</title>
<g id="a_edge19_Node000014_Node000015"><a xlink:title=" ">
<path fill="none" stroke="#63b8ff" d="M240,-319.66C240,-310.93 240,-300.99 240,-294.09"/>
<polygon fill="#63b8ff" stroke="#63b8ff" points="236.5,-319.75 240,-329.75 243.5,-319.75 236.5,-319.75"/>
</a>
</g>
</g>
<!-- Node15&#45;&gt;Node5 -->
<g id="edge20_Node000015_Node000005" class="edge">
<title>Node15&#45;&gt;Node5</title>
<g id="a_edge20_Node000015_Node000005"><a xlink:title=" ">
<path fill="none" stroke="#63b8ff" d="M220.69,-268.88C208.09,-259.34 192.07,-247.21 181.45,-239.17"/>
<polygon fill="#63b8ff" stroke="#63b8ff" points="218.67,-271.74 228.75,-274.98 222.89,-266.16 218.67,-271.74"/>
</a>
</g>
</g>
<!-- Node15&#45;&gt;Node9 -->
<g id="edge21_Node000015_Node000009" class="edge">
<title>Node15&#45;&gt;Node9</title>
<g id="a_edge21_Node000015_Node000009"><a xlink:title=" ">
<path fill="none" stroke="#63b8ff" d="M240,-264.77C240,-243.23 240,-206.81 240,-175.5 240,-175.5 240,-175.5 240,-118.5 240,-75.38 200.21,-35.89 180.63,-19.07"/>
<polygon fill="#63b8ff" stroke="#63b8ff" points="236.5,-264.82 240,-274.82 243.5,-264.82 236.5,-264.82"/>
</a>
</g>
</g>
</g>
</svg>
