<?xml version="1.0" encoding="UTF-8" standalone="no"?>
<!DOCTYPE svg PUBLIC "-//W3C//DTD SVG 1.1//EN"
 "http://www.w3.org/Graphics/SVG/1.1/DTD/svg11.dtd">
<!-- Generated by graphviz version 2.43.0 (0)
 -->
<!-- Title: pool_types.h Pages: 1 -->
<svg width="757pt" height="588pt"
 viewBox="0.00 0.00 757.00 588.00" xmlns="http://www.w3.org/2000/svg" xmlns:xlink="http://www.w3.org/1999/xlink">
<g id="graph0" class="graph" transform="scale(1 1) rotate(0) translate(4 584)">
<title>pool_types.h</title>
<polygon fill="white" stroke="transparent" points="-4,4 -4,-584 753,-584 753,4 -4,4"/>
<!-- Node1 -->
<g id="node1" class="node">
<title>Node1</title>
<g id="a_node1"><a xlink:title="Type definitions for pools.">
<polygon fill="#bfbfbf" stroke="black" points="411,-560.5 411,-579.5 490,-579.5 490,-560.5 411,-560.5"/>
<text text-anchor="middle" x="450.5" y="-567.5" font-family="Helvetica,sans-Serif" font-size="10.00">pool_types.h</text>
</a>
</g>
</g>
<!-- Node2 -->
<g id="node2" class="node">
<title>Node2</title>
<g id="a_node2"><a xlink:href="api_2pool__types_8h.html" target="_top" xlink:title="ODP pool.">
<polygon fill="white" stroke="black" points="411,-504.5 411,-523.5 490,-523.5 490,-504.5 411,-504.5"/>
<text text-anchor="middle" x="450.5" y="-511.5" font-family="Helvetica,sans-Serif" font-size="10.00">pool_types.h</text>
</a>
</g>
</g>
<!-- Node1&#45;&gt;Node2 -->
<g id="edge1" class="edge">
<title>Node1&#45;&gt;Node2</title>
<path fill="none" stroke="midnightblue" d="M450.5,-549.8C450.5,-540.91 450.5,-530.78 450.5,-523.75"/>
<polygon fill="midnightblue" stroke="midnightblue" points="447,-550.08 450.5,-560.08 454,-550.08 447,-550.08"/>
</g>
<!-- Node3 -->
<g id="node3" class="node">
<title>Node3</title>
<g id="a_node3"><a xlink:href="api_2spec_2buffer_8h.html" target="_top" xlink:title="ODP buffer.">
<polygon fill="white" stroke="black" points="13,-448.5 13,-467.5 66,-467.5 66,-448.5 13,-448.5"/>
<text text-anchor="middle" x="39.5" y="-455.5" font-family="Helvetica,sans-Serif" font-size="10.00">buffer.h</text>
</a>
</g>
</g>
<!-- Node2&#45;&gt;Node3 -->
<g id="edge2" class="edge">
<title>Node2&#45;&gt;Node3</title>
<path fill="none" stroke="midnightblue" d="M400.74,-506.46C313.05,-494.94 133.86,-471.4 66.18,-462.51"/>
<polygon fill="midnightblue" stroke="midnightblue" points="400.35,-509.94 410.72,-507.77 401.26,-503 400.35,-509.94"/>
</g>
<!-- Node6 -->
<g id="node6" class="node">
<title>Node6</title>
<g id="a_node6"><a xlink:href="api_2spec_2classification_8h.html" target="_top" xlink:title="ODP classification descriptor.">
<polygon fill="white" stroke="black" points="182,-336.5 182,-355.5 271,-355.5 271,-336.5 182,-336.5"/>
<text text-anchor="middle" x="226.5" y="-343.5" font-family="Helvetica,sans-Serif" font-size="10.00">classification.h</text>
</a>
</g>
</g>
<!-- Node2&#45;&gt;Node6 -->
<g id="edge5" class="edge">
<title>Node2&#45;&gt;Node6</title>
<path fill="none" stroke="midnightblue" d="M400.83,-512.97C360.71,-510.34 305.25,-500.41 269.5,-468 235.48,-437.15 228.37,-377.6 226.89,-355.51"/>
<polygon fill="midnightblue" stroke="midnightblue" points="400.76,-516.47 410.93,-513.51 401.13,-509.48 400.76,-516.47"/>
</g>
<!-- Node14 -->
<g id="node14" class="node">
<title>Node14</title>
<g id="a_node14"><a xlink:href="api_2spec_2crypto__types_8h.html" target="_top" xlink:title="ODP crypto types.">
<polygon fill="white" stroke="black" points="73,-392.5 73,-411.5 162,-411.5 162,-392.5 73,-392.5"/>
<text text-anchor="middle" x="117.5" y="-399.5" font-family="Helvetica,sans-Serif" font-size="10.00">crypto_types.h</text>
</a>
</g>
</g>
<!-- Node2&#45;&gt;Node14 -->
<g id="edge16" class="edge">
<title>Node2&#45;&gt;Node14</title>
<path fill="none" stroke="midnightblue" d="M400.78,-508.15C354.03,-502.43 282.73,-490.67 224.5,-468 186.83,-453.33 147.41,-425.67 128.67,-411.63"/>
<polygon fill="midnightblue" stroke="midnightblue" points="400.61,-511.65 410.95,-509.35 401.43,-504.7 400.61,-511.65"/>
</g>
<!-- Node18 -->
<g id="node18" class="node">
<title>Node18</title>
<g id="a_node18"><a xlink:href="api_2spec_2dma_8h.html" target="_top" xlink:title="ODP DMA.">
<polygon fill="white" stroke="black" points="401,-448.5 401,-467.5 448,-467.5 448,-448.5 401,-448.5"/>
<text text-anchor="middle" x="424.5" y="-455.5" font-family="Helvetica,sans-Serif" font-size="10.00">dma.h</text>
</a>
</g>
</g>
<!-- Node2&#45;&gt;Node18 -->
<g id="edge23" class="edge">
<title>Node2&#45;&gt;Node18</title>
<path fill="none" stroke="midnightblue" d="M441.83,-494.98C437.41,-485.82 432.25,-475.09 428.71,-467.75"/>
<polygon fill="midnightblue" stroke="midnightblue" points="438.71,-496.59 446.21,-504.08 445.02,-493.55 438.71,-496.59"/>
</g>
<!-- Node20 -->
<g id="node20" class="node">
<title>Node20</title>
<g id="a_node20"><a xlink:href="api_2spec_2event_8h.html" target="_top" xlink:title="ODP event.">
<polygon fill="white" stroke="black" points="505,-448.5 505,-467.5 558,-467.5 558,-448.5 505,-448.5"/>
<text text-anchor="middle" x="531.5" y="-455.5" font-family="Helvetica,sans-Serif" font-size="10.00">event.h</text>
</a>
</g>
</g>
<!-- Node2&#45;&gt;Node20 -->
<g id="edge26" class="edge">
<title>Node2&#45;&gt;Node20</title>
<path fill="none" stroke="midnightblue" d="M472.07,-498.62C486.86,-488.76 506.01,-475.99 518.52,-467.65"/>
<polygon fill="midnightblue" stroke="midnightblue" points="469.89,-495.86 463.51,-504.32 473.78,-501.69 469.89,-495.86"/>
</g>
<!-- Node22 -->
<g id="node22" class="node">
<title>Node22</title>
<g id="a_node22"><a xlink:href="spec_2ml_8h.html" target="_top" xlink:title="ODP Machine Learning (ML) offload.">
<polygon fill="white" stroke="black" points="576.5,-448.5 576.5,-467.5 614.5,-467.5 614.5,-448.5 576.5,-448.5"/>
<text text-anchor="middle" x="595.5" y="-455.5" font-family="Helvetica,sans-Serif" font-size="10.00">ml.h</text>
</a>
</g>
</g>
<!-- Node2&#45;&gt;Node22 -->
<g id="edge29" class="edge">
<title>Node2&#45;&gt;Node22</title>
<path fill="none" stroke="midnightblue" d="M483.07,-500.87C511.77,-490.18 552.59,-474.98 576.34,-466.14"/>
<polygon fill="midnightblue" stroke="midnightblue" points="481.63,-497.67 473.48,-504.44 484.07,-504.23 481.63,-497.67"/>
</g>
<!-- Node24 -->
<g id="node24" class="node">
<title>Node24</title>
<g id="a_node24"><a xlink:href="api_2spec_2packet_8h.html" target="_top" xlink:title="ODP packet descriptor.">
<polygon fill="white" stroke="black" points="466.5,-336.5 466.5,-355.5 524.5,-355.5 524.5,-336.5 466.5,-336.5"/>
<text text-anchor="middle" x="495.5" y="-343.5" font-family="Helvetica,sans-Serif" font-size="10.00">packet.h</text>
</a>
</g>
</g>
<!-- Node2&#45;&gt;Node24 -->
<g id="edge32" class="edge">
<title>Node2&#45;&gt;Node24</title>
<path fill="none" stroke="midnightblue" d="M455.54,-494.39C465.25,-458.59 486.19,-381.34 493.18,-355.57"/>
<polygon fill="midnightblue" stroke="midnightblue" points="452.16,-493.51 452.92,-504.08 458.91,-495.34 452.16,-493.51"/>
</g>
<!-- Node26 -->
<g id="node26" class="node">
<title>Node26</title>
<g id="a_node26"><a xlink:href="api_2spec_2packet__io__types_8h.html" target="_top" xlink:title="ODP Packet IO types.">
<polygon fill="white" stroke="black" points="278.5,-448.5 278.5,-467.5 382.5,-467.5 382.5,-448.5 278.5,-448.5"/>
<text text-anchor="middle" x="330.5" y="-455.5" font-family="Helvetica,sans-Serif" font-size="10.00">packet_io_types.h</text>
</a>
</g>
</g>
<!-- Node2&#45;&gt;Node26 -->
<g id="edge35" class="edge">
<title>Node2&#45;&gt;Node26</title>
<path fill="none" stroke="midnightblue" d="M422.13,-500.23C399.68,-490.13 368.96,-476.31 349.43,-467.52"/>
<polygon fill="midnightblue" stroke="midnightblue" points="420.93,-503.53 431.49,-504.44 423.8,-497.15 420.93,-503.53"/>
</g>
<!-- Node30 -->
<g id="node30" class="node">
<title>Node30</title>
<g id="a_node30"><a xlink:href="api_2spec_2pool_8h.html" target="_top" xlink:title="ODP pool.">
<polygon fill="white" stroke="black" points="633,-448.5 633,-467.5 680,-467.5 680,-448.5 633,-448.5"/>
<text text-anchor="middle" x="656.5" y="-455.5" font-family="Helvetica,sans-Serif" font-size="10.00">pool.h</text>
</a>
</g>
</g>
<!-- Node2&#45;&gt;Node30 -->
<g id="edge45" class="edge">
<title>Node2&#45;&gt;Node30</title>
<path fill="none" stroke="midnightblue" d="M493.59,-501.94C528.61,-492.92 579.28,-479.78 623.5,-468 626.48,-467.21 629.62,-466.36 632.72,-465.52"/>
<polygon fill="midnightblue" stroke="midnightblue" points="492.51,-498.61 483.7,-504.49 494.25,-505.39 492.51,-498.61"/>
</g>
<!-- Node32 -->
<g id="node32" class="node">
<title>Node32</title>
<g id="a_node32"><a xlink:href="api_2spec_2timer_8h.html" target="_top" xlink:title="ODP timer service.">
<polygon fill="white" stroke="black" points="698,-448.5 698,-467.5 749,-467.5 749,-448.5 698,-448.5"/>
<text text-anchor="middle" x="723.5" y="-455.5" font-family="Helvetica,sans-Serif" font-size="10.00">timer.h</text>
</a>
</g>
</g>
<!-- Node2&#45;&gt;Node32 -->
<g id="edge48" class="edge">
<title>Node2&#45;&gt;Node32</title>
<path fill="none" stroke="midnightblue" d="M500.12,-504.58C548.4,-496.17 623.74,-482.43 688.5,-468 691.56,-467.32 694.76,-466.56 697.93,-465.78"/>
<polygon fill="midnightblue" stroke="midnightblue" points="499.5,-501.14 490.25,-506.3 500.7,-508.04 499.5,-501.14"/>
</g>
<!-- Node4 -->
<g id="node4" class="node">
<title>Node4</title>
<g id="a_node4"><a xlink:href="api_2buffer_8h.html" target="_top" xlink:title="ODP buffer descriptor.">
<polygon fill="white" stroke="black" points="0,-112.5 0,-131.5 53,-131.5 53,-112.5 0,-112.5"/>
<text text-anchor="middle" x="26.5" y="-119.5" font-family="Helvetica,sans-Serif" font-size="10.00">buffer.h</text>
</a>
</g>
</g>
<!-- Node3&#45;&gt;Node4 -->
<g id="edge3" class="edge">
<title>Node3&#45;&gt;Node4</title>
<path fill="none" stroke="midnightblue" d="M30.97,-439.28C21.49,-417.92 7.5,-380.67 7.5,-347 7.5,-347 7.5,-347 7.5,-233 7.5,-194.82 18.75,-150.26 23.94,-131.75"/>
<polygon fill="midnightblue" stroke="midnightblue" points="27.82,-440.79 35.18,-448.41 34.17,-437.86 27.82,-440.79"/>
</g>
<!-- Node5 -->
<g id="node5" class="node">
<title>Node5</title>
<g id="a_node5"><a xlink:href="odp__api_8h.html" target="_top" xlink:title="The OpenDataPlane API.">
<polygon fill="white" stroke="black" points="381.5,-0.5 381.5,-19.5 445.5,-19.5 445.5,-0.5 381.5,-0.5"/>
<text text-anchor="middle" x="413.5" y="-7.5" font-family="Helvetica,sans-Serif" font-size="10.00">odp_api.h</text>
</a>
</g>
</g>
<!-- Node4&#45;&gt;Node5 -->
<g id="edge4" class="edge">
<title>Node4&#45;&gt;Node5</title>
<path fill="none" stroke="midnightblue" d="M40.92,-104.39C55.18,-89.14 78.46,-67.26 103.5,-56 152.79,-33.83 312.4,-18.96 381.32,-13.42"/>
<polygon fill="midnightblue" stroke="midnightblue" points="38.08,-102.31 33.97,-112.07 43.27,-107.01 38.08,-102.31"/>
</g>
<!-- Node7 -->
<g id="node7" class="node">
<title>Node7</title>
<g id="a_node7"><a xlink:href="api_2classification_8h.html" target="_top" xlink:title="ODP classification descriptor.">
<polygon fill="white" stroke="black" points="182,-280.5 182,-299.5 271,-299.5 271,-280.5 182,-280.5"/>
<text text-anchor="middle" x="226.5" y="-287.5" font-family="Helvetica,sans-Serif" font-size="10.00">classification.h</text>
</a>
</g>
</g>
<!-- Node6&#45;&gt;Node7 -->
<g id="edge6" class="edge">
<title>Node6&#45;&gt;Node7</title>
<path fill="none" stroke="midnightblue" d="M226.5,-325.8C226.5,-316.91 226.5,-306.78 226.5,-299.75"/>
<polygon fill="midnightblue" stroke="midnightblue" points="223,-326.08 226.5,-336.08 230,-326.08 223,-326.08"/>
</g>
<!-- Node7&#45;&gt;Node5 -->
<g id="edge15" class="edge">
<title>Node7&#45;&gt;Node5</title>
<path fill="none" stroke="midnightblue" d="M235.29,-271.31C245.07,-249.97 259.5,-212.75 259.5,-179 259.5,-179 259.5,-179 259.5,-121 259.5,-61.69 336.06,-31.33 381.22,-18.58"/>
<polygon fill="midnightblue" stroke="midnightblue" points="232.09,-269.89 230.95,-280.42 238.41,-272.9 232.09,-269.89"/>
</g>
<!-- Node8 -->
<g id="node8" class="node">
<title>Node8</title>
<g id="a_node8"><a xlink:href="api_2spec_2ipsec__types_8h.html" target="_top" xlink:title="ODP IPsec API type definitions.">
<polygon fill="white" stroke="black" points="148,-224.5 148,-243.5 231,-243.5 231,-224.5 148,-224.5"/>
<text text-anchor="middle" x="189.5" y="-231.5" font-family="Helvetica,sans-Serif" font-size="10.00">ipsec_types.h</text>
</a>
</g>
</g>
<!-- Node7&#45;&gt;Node8 -->
<g id="edge7" class="edge">
<title>Node7&#45;&gt;Node8</title>
<path fill="none" stroke="midnightblue" d="M214.55,-271.57C208.19,-262.27 200.63,-251.25 195.5,-243.75"/>
<polygon fill="midnightblue" stroke="midnightblue" points="211.85,-273.81 220.39,-280.08 217.63,-269.86 211.85,-273.81"/>
</g>
<!-- Node12 -->
<g id="node12" class="node">
<title>Node12</title>
<g id="a_node12"><a xlink:href="api_2spec_2packet__io_8h.html" target="_top" xlink:title="ODP Packet IO.">
<polygon fill="white" stroke="black" points="287.5,-224.5 287.5,-243.5 359.5,-243.5 359.5,-224.5 287.5,-224.5"/>
<text text-anchor="middle" x="323.5" y="-231.5" font-family="Helvetica,sans-Serif" font-size="10.00">packet_io.h</text>
</a>
</g>
</g>
<!-- Node7&#45;&gt;Node12 -->
<g id="edge12" class="edge">
<title>Node7&#45;&gt;Node12</title>
<path fill="none" stroke="midnightblue" d="M250.84,-275.45C268.74,-265.48 292.55,-252.23 307.95,-243.65"/>
<polygon fill="midnightblue" stroke="midnightblue" points="249.12,-272.4 242.08,-280.32 252.52,-278.52 249.12,-272.4"/>
</g>
<!-- Node9 -->
<g id="node9" class="node">
<title>Node9</title>
<g id="a_node9"><a xlink:href="api_2ipsec__types_8h.html" target="_top" xlink:title="ODP IPsec.">
<polygon fill="white" stroke="black" points="148,-168.5 148,-187.5 231,-187.5 231,-168.5 148,-168.5"/>
<text text-anchor="middle" x="189.5" y="-175.5" font-family="Helvetica,sans-Serif" font-size="10.00">ipsec_types.h</text>
</a>
</g>
</g>
<!-- Node8&#45;&gt;Node9 -->
<g id="edge8" class="edge">
<title>Node8&#45;&gt;Node9</title>
<path fill="none" stroke="midnightblue" d="M189.5,-213.8C189.5,-204.91 189.5,-194.78 189.5,-187.75"/>
<polygon fill="midnightblue" stroke="midnightblue" points="186,-214.08 189.5,-224.08 193,-214.08 186,-214.08"/>
</g>
<!-- Node10 -->
<g id="node10" class="node">
<title>Node10</title>
<g id="a_node10"><a xlink:href="api_2spec_2ipsec_8h.html" target="_top" xlink:title="ODP IPsec API.">
<polygon fill="white" stroke="black" points="164,-112.5 164,-131.5 215,-131.5 215,-112.5 164,-112.5"/>
<text text-anchor="middle" x="189.5" y="-119.5" font-family="Helvetica,sans-Serif" font-size="10.00">ipsec.h</text>
</a>
</g>
</g>
<!-- Node9&#45;&gt;Node10 -->
<g id="edge9" class="edge">
<title>Node9&#45;&gt;Node10</title>
<path fill="none" stroke="midnightblue" d="M189.5,-157.8C189.5,-148.91 189.5,-138.78 189.5,-131.75"/>
<polygon fill="midnightblue" stroke="midnightblue" points="186,-158.08 189.5,-168.08 193,-158.08 186,-158.08"/>
</g>
<!-- Node11 -->
<g id="node11" class="node">
<title>Node11</title>
<g id="a_node11"><a xlink:href="api_2ipsec_8h.html" target="_top" xlink:title="ODP IPSEC API &#45; platform specific header.">
<polygon fill="white" stroke="black" points="172,-56.5 172,-75.5 223,-75.5 223,-56.5 172,-56.5"/>
<text text-anchor="middle" x="197.5" y="-63.5" font-family="Helvetica,sans-Serif" font-size="10.00">ipsec.h</text>
</a>
</g>
</g>
<!-- Node10&#45;&gt;Node11 -->
<g id="edge10" class="edge">
<title>Node10&#45;&gt;Node11</title>
<path fill="none" stroke="midnightblue" d="M192.3,-102.1C193.63,-93.14 195.15,-82.86 196.2,-75.75"/>
<polygon fill="midnightblue" stroke="midnightblue" points="188.82,-101.68 190.82,-112.08 195.75,-102.7 188.82,-101.68"/>
</g>
<!-- Node11&#45;&gt;Node5 -->
<g id="edge11" class="edge">
<title>Node11&#45;&gt;Node5</title>
<path fill="none" stroke="midnightblue" d="M233,-56.12C274.18,-45.83 341.49,-29 381.24,-19.07"/>
<polygon fill="midnightblue" stroke="midnightblue" points="231.98,-52.77 223.13,-58.59 233.68,-59.56 231.98,-52.77"/>
</g>
<!-- Node13 -->
<g id="node13" class="node">
<title>Node13</title>
<g id="a_node13"><a xlink:href="api_2packet__io_8h.html" target="_top" xlink:title="ODP Packet IO.">
<polygon fill="white" stroke="black" points="287.5,-168.5 287.5,-187.5 359.5,-187.5 359.5,-168.5 287.5,-168.5"/>
<text text-anchor="middle" x="323.5" y="-175.5" font-family="Helvetica,sans-Serif" font-size="10.00">packet_io.h</text>
</a>
</g>
</g>
<!-- Node12&#45;&gt;Node13 -->
<g id="edge13" class="edge">
<title>Node12&#45;&gt;Node13</title>
<path fill="none" stroke="midnightblue" d="M323.5,-213.8C323.5,-204.91 323.5,-194.78 323.5,-187.75"/>
<polygon fill="midnightblue" stroke="midnightblue" points="320,-214.08 323.5,-224.08 327,-214.08 320,-214.08"/>
</g>
<!-- Node13&#45;&gt;Node5 -->
<g id="edge14" class="edge">
<title>Node13&#45;&gt;Node5</title>
<path fill="none" stroke="midnightblue" d="M328.99,-158.52C336.75,-133.97 352.38,-89.75 373.5,-56 382.26,-42 395.45,-28.14 404.25,-19.58"/>
<polygon fill="midnightblue" stroke="midnightblue" points="325.57,-157.73 325.98,-168.31 332.26,-159.78 325.57,-157.73"/>
</g>
<!-- Node15 -->
<g id="node15" class="node">
<title>Node15</title>
<g id="a_node15"><a xlink:href="api_2crypto__types_8h.html" target="_top" xlink:title="ODP crypto.">
<polygon fill="white" stroke="black" points="36,-280.5 36,-299.5 125,-299.5 125,-280.5 36,-280.5"/>
<text text-anchor="middle" x="80.5" y="-287.5" font-family="Helvetica,sans-Serif" font-size="10.00">crypto_types.h</text>
</a>
</g>
</g>
<!-- Node14&#45;&gt;Node15 -->
<g id="edge17" class="edge">
<title>Node14&#45;&gt;Node15</title>
<path fill="none" stroke="midnightblue" d="M111.34,-382.67C103.25,-358.62 89.38,-317.39 83.39,-299.59"/>
<polygon fill="midnightblue" stroke="midnightblue" points="108.09,-384.01 114.6,-392.37 114.73,-381.77 108.09,-384.01"/>
</g>
<!-- Node15&#45;&gt;Node8 -->
<g id="edge22" class="edge">
<title>Node15&#45;&gt;Node8</title>
<path fill="none" stroke="midnightblue" d="M107.02,-275.86C127.23,-265.85 154.49,-252.35 172.03,-243.65"/>
<polygon fill="midnightblue" stroke="midnightblue" points="105.42,-272.75 98.01,-280.32 108.53,-279.02 105.42,-272.75"/>
</g>
<!-- Node15&#45;&gt;Node10 -->
<g id="edge21" class="edge">
<title>Node15&#45;&gt;Node10</title>
<path fill="none" stroke="midnightblue" d="M88.64,-271.01C102.97,-239.51 131.81,-176.85 138.5,-168 149.61,-153.31 166.12,-139.81 177.32,-131.51"/>
<polygon fill="midnightblue" stroke="midnightblue" points="85.34,-269.83 84.39,-280.38 91.71,-272.72 85.34,-269.83"/>
</g>
<!-- Node16 -->
<g id="node16" class="node">
<title>Node16</title>
<g id="a_node16"><a xlink:href="api_2spec_2crypto_8h.html" target="_top" xlink:title="ODP crypto.">
<polygon fill="white" stroke="black" points="35.5,-224.5 35.5,-243.5 91.5,-243.5 91.5,-224.5 35.5,-224.5"/>
<text text-anchor="middle" x="63.5" y="-231.5" font-family="Helvetica,sans-Serif" font-size="10.00">crypto.h</text>
</a>
</g>
</g>
<!-- Node15&#45;&gt;Node16 -->
<g id="edge18" class="edge">
<title>Node15&#45;&gt;Node16</title>
<path fill="none" stroke="midnightblue" d="M74.64,-270.4C71.8,-261.36 68.52,-250.94 66.25,-243.75"/>
<polygon fill="midnightblue" stroke="midnightblue" points="71.35,-271.6 77.69,-280.08 78.03,-269.49 71.35,-271.6"/>
</g>
<!-- Node17 -->
<g id="node17" class="node">
<title>Node17</title>
<g id="a_node17"><a xlink:href="api_2crypto_8h.html" target="_top" xlink:title="ODP crypto.">
<polygon fill="white" stroke="black" points="35.5,-168.5 35.5,-187.5 91.5,-187.5 91.5,-168.5 35.5,-168.5"/>
<text text-anchor="middle" x="63.5" y="-175.5" font-family="Helvetica,sans-Serif" font-size="10.00">crypto.h</text>
</a>
</g>
</g>
<!-- Node16&#45;&gt;Node17 -->
<g id="edge19" class="edge">
<title>Node16&#45;&gt;Node17</title>
<path fill="none" stroke="midnightblue" d="M63.5,-213.8C63.5,-204.91 63.5,-194.78 63.5,-187.75"/>
<polygon fill="midnightblue" stroke="midnightblue" points="60,-214.08 63.5,-224.08 67,-214.08 60,-214.08"/>
</g>
<!-- Node17&#45;&gt;Node5 -->
<g id="edge20" class="edge">
<title>Node17&#45;&gt;Node5</title>
<path fill="none" stroke="midnightblue" d="M72.69,-159.08C87.61,-131.99 119.75,-81.12 162.5,-56 199.14,-34.47 322.01,-19.92 381.15,-13.99"/>
<polygon fill="midnightblue" stroke="midnightblue" points="69.45,-157.73 67.84,-168.2 75.63,-161.02 69.45,-157.73"/>
</g>
<!-- Node19 -->
<g id="node19" class="node">
<title>Node19</title>
<g id="a_node19"><a xlink:href="api_2dma_8h.html" target="_top" xlink:title="ODP DMA.">
<polygon fill="white" stroke="black" points="416,-56.5 416,-75.5 463,-75.5 463,-56.5 416,-56.5"/>
<text text-anchor="middle" x="439.5" y="-63.5" font-family="Helvetica,sans-Serif" font-size="10.00">dma.h</text>
</a>
</g>
</g>
<!-- Node18&#45;&gt;Node19 -->
<g id="edge24" class="edge">
<title>Node18&#45;&gt;Node19</title>
<path fill="none" stroke="midnightblue" d="M428.28,-438.64C432.43,-416.88 438.5,-379.46 438.5,-347 438.5,-347 438.5,-347 438.5,-177 438.5,-139.19 439.1,-94.06 439.37,-75.56"/>
<polygon fill="midnightblue" stroke="midnightblue" points="424.84,-438 426.33,-448.49 431.71,-439.36 424.84,-438"/>
</g>
<!-- Node19&#45;&gt;Node5 -->
<g id="edge25" class="edge">
<title>Node19&#45;&gt;Node5</title>
<path fill="none" stroke="midnightblue" d="M430.83,-46.98C426.41,-37.82 421.25,-27.09 417.71,-19.75"/>
<polygon fill="midnightblue" stroke="midnightblue" points="427.71,-48.59 435.21,-56.08 434.02,-45.55 427.71,-48.59"/>
</g>
<!-- Node21 -->
<g id="node21" class="node">
<title>Node21</title>
<g id="a_node21"><a xlink:href="api_2event_8h.html" target="_top" xlink:title="ODP event.">
<polygon fill="white" stroke="black" points="520,-112.5 520,-131.5 573,-131.5 573,-112.5 520,-112.5"/>
<text text-anchor="middle" x="546.5" y="-119.5" font-family="Helvetica,sans-Serif" font-size="10.00">event.h</text>
</a>
</g>
</g>
<!-- Node20&#45;&gt;Node21 -->
<g id="edge27" class="edge">
<title>Node20&#45;&gt;Node21</title>
<path fill="none" stroke="midnightblue" d="M537.27,-438.43C543.48,-416.72 552.5,-379.62 552.5,-347 552.5,-347 552.5,-347 552.5,-233 552.5,-195.13 548.91,-150.04 547.28,-131.55"/>
<polygon fill="midnightblue" stroke="midnightblue" points="533.83,-437.68 534.33,-448.27 540.54,-439.68 533.83,-437.68"/>
</g>
<!-- Node21&#45;&gt;Node5 -->
<g id="edge28" class="edge">
<title>Node21&#45;&gt;Node5</title>
<path fill="none" stroke="midnightblue" d="M538.62,-103.12C531.61,-88.87 520.2,-69.2 505.5,-56 486.58,-39.02 460.09,-26.97 440.39,-19.64"/>
<polygon fill="midnightblue" stroke="midnightblue" points="535.53,-104.77 542.93,-112.36 541.88,-101.82 535.53,-104.77"/>
</g>
<!-- Node23 -->
<g id="node23" class="node">
<title>Node23</title>
<g id="a_node23"><a xlink:href="ml_8h.html" target="_top" xlink:title="ODP Machine Learning (ML) offload.">
<polygon fill="white" stroke="black" points="574.5,-56.5 574.5,-75.5 612.5,-75.5 612.5,-56.5 574.5,-56.5"/>
<text text-anchor="middle" x="593.5" y="-63.5" font-family="Helvetica,sans-Serif" font-size="10.00">ml.h</text>
</a>
</g>
</g>
<!-- Node22&#45;&gt;Node23 -->
<g id="edge30" class="edge">
<title>Node22&#45;&gt;Node23</title>
<path fill="none" stroke="midnightblue" d="M597.14,-438.27C598.92,-416.39 601.5,-379.1 601.5,-347 601.5,-347 601.5,-347 601.5,-177 601.5,-139.09 596.71,-94.02 594.55,-75.54"/>
<polygon fill="midnightblue" stroke="midnightblue" points="593.64,-438.19 596.28,-448.45 600.61,-438.78 593.64,-438.19"/>
</g>
<!-- Node23&#45;&gt;Node5 -->
<g id="edge31" class="edge">
<title>Node23&#45;&gt;Node5</title>
<path fill="none" stroke="midnightblue" d="M564.52,-56.31C530.83,-46.2 475.57,-29.62 442.06,-19.57"/>
<polygon fill="midnightblue" stroke="midnightblue" points="563.65,-59.7 574.24,-59.22 565.66,-53 563.65,-59.7"/>
</g>
<!-- Node25 -->
<g id="node25" class="node">
<title>Node25</title>
<g id="a_node25"><a xlink:href="api_2packet_8h.html" target="_top" xlink:title="ODP packet descriptor.">
<polygon fill="white" stroke="black" points="466.5,-224.5 466.5,-243.5 524.5,-243.5 524.5,-224.5 466.5,-224.5"/>
<text text-anchor="middle" x="495.5" y="-231.5" font-family="Helvetica,sans-Serif" font-size="10.00">packet.h</text>
</a>
</g>
</g>
<!-- Node24&#45;&gt;Node25 -->
<g id="edge33" class="edge">
<title>Node24&#45;&gt;Node25</title>
<path fill="none" stroke="midnightblue" d="M495.5,-326.35C495.5,-302.25 495.5,-261.31 495.5,-243.59"/>
<polygon fill="midnightblue" stroke="midnightblue" points="492,-326.37 495.5,-336.37 499,-326.37 492,-326.37"/>
</g>
<!-- Node25&#45;&gt;Node5 -->
<g id="edge34" class="edge">
<title>Node25&#45;&gt;Node5</title>
<path fill="none" stroke="midnightblue" d="M497.42,-213.76C499.89,-179.55 500.87,-106.95 471.5,-56 462.08,-39.66 444.17,-27.17 430.73,-19.54"/>
<polygon fill="midnightblue" stroke="midnightblue" points="493.89,-213.9 496.53,-224.16 500.87,-214.49 493.89,-213.9"/>
</g>
<!-- Node27 -->
<g id="node27" class="node">
<title>Node27</title>
<g id="a_node27"><a xlink:href="api_2packet__io__types_8h.html" target="_top" xlink:title="ODP Packet IO.">
<polygon fill="white" stroke="black" points="278.5,-392.5 278.5,-411.5 382.5,-411.5 382.5,-392.5 278.5,-392.5"/>
<text text-anchor="middle" x="330.5" y="-399.5" font-family="Helvetica,sans-Serif" font-size="10.00">packet_io_types.h</text>
</a>
</g>
</g>
<!-- Node26&#45;&gt;Node27 -->
<g id="edge36" class="edge">
<title>Node26&#45;&gt;Node27</title>
<path fill="none" stroke="midnightblue" d="M330.5,-437.8C330.5,-428.91 330.5,-418.78 330.5,-411.75"/>
<polygon fill="midnightblue" stroke="midnightblue" points="327,-438.08 330.5,-448.08 334,-438.08 327,-438.08"/>
</g>
<!-- Node27&#45;&gt;Node6 -->
<g id="edge37" class="edge">
<title>Node27&#45;&gt;Node6</title>
<path fill="none" stroke="midnightblue" d="M304.67,-387.59C285.44,-377.61 259.76,-364.27 243.17,-355.65"/>
<polygon fill="midnightblue" stroke="midnightblue" points="303.3,-390.82 313.79,-392.32 306.53,-384.61 303.3,-390.82"/>
</g>
<!-- Node27&#45;&gt;Node8 -->
<g id="edge38" class="edge">
<title>Node27&#45;&gt;Node8</title>
<path fill="none" stroke="midnightblue" d="M268.04,-391.09C229.15,-383.5 184.33,-371.67 172.5,-356 146.43,-321.46 172.7,-265.13 184.45,-243.67"/>
<polygon fill="midnightblue" stroke="midnightblue" points="267.82,-394.61 278.3,-393.02 269.12,-387.73 267.82,-394.61"/>
</g>
<!-- Node27&#45;&gt;Node12 -->
<g id="edge40" class="edge">
<title>Node27&#45;&gt;Node12</title>
<path fill="none" stroke="midnightblue" d="M354.62,-386.47C364.94,-378.83 375.88,-368.44 381.5,-356 395.39,-325.21 396.36,-310.33 381.5,-280 373.31,-263.29 355.6,-251 341.89,-243.53"/>
<polygon fill="midnightblue" stroke="midnightblue" points="352.49,-383.69 346.23,-392.24 356.46,-389.46 352.49,-383.69"/>
</g>
<!-- Node27&#45;&gt;Node24 -->
<g id="edge39" class="edge">
<title>Node27&#45;&gt;Node24</title>
<path fill="none" stroke="midnightblue" d="M366.24,-389.3C397.33,-379.13 441.65,-364.62 469.48,-355.52"/>
<polygon fill="midnightblue" stroke="midnightblue" points="365.06,-386.01 356.64,-392.44 367.24,-392.66 365.06,-386.01"/>
</g>
<!-- Node28 -->
<g id="node28" class="node">
<title>Node28</title>
<g id="a_node28"><a xlink:href="api_2spec_2traffic__mngr_8h.html" target="_top" xlink:title=" ">
<polygon fill="white" stroke="black" points="288.5,-336.5 288.5,-355.5 372.5,-355.5 372.5,-336.5 288.5,-336.5"/>
<text text-anchor="middle" x="330.5" y="-343.5" font-family="Helvetica,sans-Serif" font-size="10.00">traffic_mngr.h</text>
</a>
</g>
</g>
<!-- Node27&#45;&gt;Node28 -->
<g id="edge41" class="edge">
<title>Node27&#45;&gt;Node28</title>
<path fill="none" stroke="midnightblue" d="M330.5,-381.8C330.5,-372.91 330.5,-362.78 330.5,-355.75"/>
<polygon fill="midnightblue" stroke="midnightblue" points="327,-382.08 330.5,-392.08 334,-382.08 327,-382.08"/>
</g>
<!-- Node29 -->
<g id="node29" class="node">
<title>Node29</title>
<g id="a_node29"><a xlink:href="api_2traffic__mngr_8h.html" target="_top" xlink:title="ODP Traffic manager.">
<polygon fill="white" stroke="black" points="288.5,-280.5 288.5,-299.5 372.5,-299.5 372.5,-280.5 288.5,-280.5"/>
<text text-anchor="middle" x="330.5" y="-287.5" font-family="Helvetica,sans-Serif" font-size="10.00">traffic_mngr.h</text>
</a>
</g>
</g>
<!-- Node28&#45;&gt;Node29 -->
<g id="edge42" class="edge">
<title>Node28&#45;&gt;Node29</title>
<path fill="none" stroke="midnightblue" d="M330.5,-325.8C330.5,-316.91 330.5,-306.78 330.5,-299.75"/>
<polygon fill="midnightblue" stroke="midnightblue" points="327,-326.08 330.5,-336.08 334,-326.08 327,-326.08"/>
</g>
<!-- Node29&#45;&gt;Node5 -->
<g id="edge44" class="edge">
<title>Node29&#45;&gt;Node5</title>
<path fill="none" stroke="midnightblue" d="M346.94,-272.93C354.42,-264.85 362.84,-254.54 368.5,-244 382.74,-217.48 387.5,-209.1 387.5,-179 387.5,-179 387.5,-179 387.5,-121 387.5,-82.34 402.9,-38.04 409.99,-19.68"/>
<polygon fill="midnightblue" stroke="midnightblue" points="344.34,-270.58 339.91,-280.2 349.38,-275.44 344.34,-270.58"/>
</g>
<!-- Node29&#45;&gt;Node8 -->
<g id="edge43" class="edge">
<title>Node29&#45;&gt;Node8</title>
<path fill="none" stroke="midnightblue" d="M298.57,-276.77C272.09,-266.63 235.11,-252.47 211.74,-243.52"/>
<polygon fill="midnightblue" stroke="midnightblue" points="297.57,-280.14 308.16,-280.44 300.07,-273.6 297.57,-280.14"/>
</g>
<!-- Node31 -->
<g id="node31" class="node">
<title>Node31</title>
<g id="a_node31"><a xlink:href="api_2pool_8h.html" target="_top" xlink:title="ODP pool.">
<polygon fill="white" stroke="black" points="631,-392.5 631,-411.5 678,-411.5 678,-392.5 631,-392.5"/>
<text text-anchor="middle" x="654.5" y="-399.5" font-family="Helvetica,sans-Serif" font-size="10.00">pool.h</text>
</a>
</g>
</g>
<!-- Node30&#45;&gt;Node31 -->
<g id="edge46" class="edge">
<title>Node30&#45;&gt;Node31</title>
<path fill="none" stroke="midnightblue" d="M655.79,-437.8C655.46,-428.91 655.08,-418.78 654.82,-411.75"/>
<polygon fill="midnightblue" stroke="midnightblue" points="652.3,-438.22 656.17,-448.08 659.3,-437.96 652.3,-438.22"/>
</g>
<!-- Node31&#45;&gt;Node5 -->
<g id="edge47" class="edge">
<title>Node31&#45;&gt;Node5</title>
<path fill="none" stroke="midnightblue" d="M652.58,-382.27C650.51,-360.4 647.5,-323.12 647.5,-291 647.5,-291 647.5,-291 647.5,-121 647.5,-89.89 645.26,-76.08 621.5,-56 595.26,-33.82 497.35,-20.12 445.76,-14.28"/>
<polygon fill="midnightblue" stroke="midnightblue" points="649.12,-382.85 653.58,-392.45 656.09,-382.16 649.12,-382.85"/>
</g>
<!-- Node33 -->
<g id="node33" class="node">
<title>Node33</title>
<g id="a_node33"><a xlink:href="api_2timer_8h.html" target="_top" xlink:title="ODP timer service.">
<polygon fill="white" stroke="black" points="697,-392.5 697,-411.5 748,-411.5 748,-392.5 697,-392.5"/>
<text text-anchor="middle" x="722.5" y="-399.5" font-family="Helvetica,sans-Serif" font-size="10.00">timer.h</text>
</a>
</g>
</g>
<!-- Node32&#45;&gt;Node33 -->
<g id="edge49" class="edge">
<title>Node32&#45;&gt;Node33</title>
<path fill="none" stroke="midnightblue" d="M723.14,-437.8C722.98,-428.91 722.79,-418.78 722.66,-411.75"/>
<polygon fill="midnightblue" stroke="midnightblue" points="719.65,-438.15 723.33,-448.08 726.65,-438.02 719.65,-438.15"/>
</g>
<!-- Node33&#45;&gt;Node5 -->
<g id="edge50" class="edge">
<title>Node33&#45;&gt;Node5</title>
<path fill="none" stroke="midnightblue" d="M716.46,-382.45C709.95,-360.76 700.5,-323.67 700.5,-291 700.5,-291 700.5,-291 700.5,-121 700.5,-82.87 677.48,-75.15 644.5,-56 580.9,-19.07 492.53,-11.83 445.67,-10.78"/>
<polygon fill="midnightblue" stroke="midnightblue" points="713.21,-383.78 719.53,-392.28 719.89,-381.69 713.21,-383.78"/>
</g>
</g>
</svg>
