<?xml version="1.0" encoding="UTF-8" standalone="no"?>
<!DOCTYPE svg PUBLIC "-//W3C//DTD SVG 1.1//EN"
 "http://www.w3.org/Graphics/SVG/1.1/DTD/svg11.dtd">
<!-- Generated by graphviz version 2.43.0 (0)
 -->
<!-- Title: debug.h Pages: 1 -->
<svg width="323pt" height="140pt"
 viewBox="0.00 0.00 322.50 140.00" xmlns="http://www.w3.org/2000/svg" xmlns:xlink="http://www.w3.org/1999/xlink">
<g id="graph0" class="graph" transform="scale(1 1) rotate(0) translate(4 136)">
<title>debug.h</title>
<polygon fill="white" stroke="transparent" points="-4,4 -4,-136 318.5,-136 318.5,4 -4,4"/>
<!-- Node1 -->
<g id="node1" class="node">
<title>Node1</title>
<g id="a_node1"><a xlink:title="ODP debug.">
<polygon fill="#bfbfbf" stroke="black" points="95.5,-112.5 95.5,-131.5 151.5,-131.5 151.5,-112.5 95.5,-112.5"/>
<text text-anchor="middle" x="123.5" y="-119.5" font-family="Helvetica,sans-Serif" font-size="10.00">debug.h</text>
</a>
</g>
</g>
<!-- Node2 -->
<g id="node2" class="node">
<title>Node2</title>
<g id="a_node2"><a xlink:title=" ">
<polygon fill="white" stroke="#bfbfbf" points="0,-56.5 0,-75.5 113,-75.5 113,-56.5 0,-56.5"/>
<text text-anchor="middle" x="56.5" y="-63.5" font-family="Helvetica,sans-Serif" font-size="10.00">odp/api/abi/debug.h</text>
</a>
</g>
</g>
<!-- Node1&#45;&gt;Node2 -->
<g id="edge1" class="edge">
<title>Node1&#45;&gt;Node2</title>
<path fill="none" stroke="midnightblue" d="M112.74,-112.32C102.73,-104.26 87.61,-92.08 75.57,-82.37"/>
<polygon fill="midnightblue" stroke="midnightblue" points="77.44,-79.38 67.46,-75.83 73.05,-84.83 77.44,-79.38"/>
</g>
<!-- Node3 -->
<g id="node3" class="node">
<title>Node3</title>
<g id="a_node3"><a xlink:href="api_2spec_2debug_8h.html" target="_top" xlink:title="ODP debug.">
<polygon fill="white" stroke="black" points="131.5,-56.5 131.5,-75.5 251.5,-75.5 251.5,-56.5 131.5,-56.5"/>
<text text-anchor="middle" x="191.5" y="-63.5" font-family="Helvetica,sans-Serif" font-size="10.00">odp/api/spec/debug.h</text>
</a>
</g>
</g>
<!-- Node1&#45;&gt;Node3 -->
<g id="edge2" class="edge">
<title>Node1&#45;&gt;Node3</title>
<path fill="none" stroke="midnightblue" d="M134.43,-112.32C144.67,-104.18 160.22,-91.84 172.5,-82.09"/>
<polygon fill="midnightblue" stroke="midnightblue" points="174.72,-84.79 180.38,-75.83 170.37,-79.31 174.72,-84.79"/>
</g>
<!-- Node4 -->
<g id="node4" class="node">
<title>Node4</title>
<g id="a_node4"><a xlink:href="visibility__begin_8h_source.html" target="_top" xlink:title=" ">
<polygon fill="white" stroke="black" points="63,-0.5 63,-19.5 184,-19.5 184,-0.5 63,-0.5"/>
<text text-anchor="middle" x="123.5" y="-7.5" font-family="Helvetica,sans-Serif" font-size="10.00">odp/visibility_begin.h</text>
</a>
</g>
</g>
<!-- Node3&#45;&gt;Node4 -->
<g id="edge3" class="edge">
<title>Node3&#45;&gt;Node4</title>
<path fill="none" stroke="midnightblue" d="M180.57,-56.32C170.33,-48.18 154.78,-35.84 142.5,-26.09"/>
<polygon fill="midnightblue" stroke="midnightblue" points="144.63,-23.31 134.62,-19.83 140.28,-28.79 144.63,-23.31"/>
</g>
<!-- Node5 -->
<g id="node5" class="node">
<title>Node5</title>
<g id="a_node5"><a xlink:href="visibility__end_8h_source.html" target="_top" xlink:title=" ">
<polygon fill="white" stroke="black" points="202.5,-0.5 202.5,-19.5 314.5,-19.5 314.5,-0.5 202.5,-0.5"/>
<text text-anchor="middle" x="258.5" y="-7.5" font-family="Helvetica,sans-Serif" font-size="10.00">odp/visibility_end.h</text>
</a>
</g>
</g>
<!-- Node3&#45;&gt;Node5 -->
<g id="edge4" class="edge">
<title>Node3&#45;&gt;Node5</title>
<path fill="none" stroke="midnightblue" d="M202.26,-56.32C212.27,-48.26 227.39,-36.08 239.43,-26.37"/>
<polygon fill="midnightblue" stroke="midnightblue" points="241.95,-28.83 247.54,-19.83 237.56,-23.38 241.95,-28.83"/>
</g>
</g>
</svg>
