<?xml version="1.0" encoding="UTF-8" standalone="no"?>
<!DOCTYPE svg PUBLIC "-//W3C//DTD SVG 1.1//EN"
 "http://www.w3.org/Graphics/SVG/1.1/DTD/svg11.dtd">
<!-- Generated by graphviz version 2.40.1 (20161225.0304)
 -->
<!-- Title: queue_types.h Pages: 1 -->
<svg width="480pt" height="386pt"
 viewBox="0.00 0.00 479.50 386.00" xmlns="http://www.w3.org/2000/svg" xmlns:xlink="http://www.w3.org/1999/xlink">
<g id="graph0" class="graph" transform="scale(1 1) rotate(0) translate(4 382)">
<title>queue_types.h</title>
<polygon fill="#ffffff" stroke="transparent" points="-4,4 -4,-382 475.5,-382 475.5,4 -4,4"/>
<!-- Node0 -->
<g id="node1" class="node">
<title>Node0</title>
<polygon fill="#bfbfbf" stroke="#000000" points="101.5,-358.5 101.5,-377.5 189.5,-377.5 189.5,-358.5 101.5,-358.5"/>
<text text-anchor="middle" x="145.5" y="-365.5" font-family="Helvetica,sans-Serif" font-size="10.00" fill="#000000">queue_types.h</text>
</g>
<!-- Node1 -->
<g id="node2" class="node">
<title>Node1</title>
<polygon fill="#ffffff" stroke="#bfbfbf" points="0,-297 0,-316 145,-316 145,-297 0,-297"/>
<text text-anchor="middle" x="72.5" y="-304" font-family="Helvetica,sans-Serif" font-size="10.00" fill="#000000">odp/api/abi/queue_types.h</text>
</g>
<!-- Node0&#45;&gt;Node1 -->
<g id="edge1" class="edge">
<title>Node0&#45;&gt;Node1</title>
<path fill="none" stroke="#191970" d="M134.0938,-358.3906C122.8031,-348.8786 105.3033,-334.1357 91.8381,-322.7917"/>
<polygon fill="#191970" stroke="#191970" points="93.9699,-320.0111 84.0671,-316.2449 89.4598,-325.3646 93.9699,-320.0111"/>
</g>
<!-- Node2 -->
<g id="node3" class="node">
<title>Node2</title>
<g id="a_node3"><a xlink:href="api_2spec_2queue__types_8h.html" target="_top" xlink:title="ODP queue types. ">
<polygon fill="#ffffff" stroke="#000000" points="163,-291.5 163,-321.5 274,-321.5 274,-291.5 163,-291.5"/>
<text text-anchor="start" x="171" y="-309.5" font-family="Helvetica,sans-Serif" font-size="10.00" fill="#000000">odp/api/spec/queue</text>
<text text-anchor="middle" x="218.5" y="-298.5" font-family="Helvetica,sans-Serif" font-size="10.00" fill="#000000">_types.h</text>
</a>
</g>
</g>
<!-- Node0&#45;&gt;Node2 -->
<g id="edge2" class="edge">
<title>Node0&#45;&gt;Node2</title>
<path fill="none" stroke="#191970" d="M156.9063,-358.3906C166.5115,-350.2986 180.6104,-338.4207 192.896,-328.0705"/>
<polygon fill="#191970" stroke="#191970" points="195.2495,-330.6643 200.6422,-321.5446 190.7394,-325.3109 195.2495,-330.6643"/>
</g>
<!-- Node3 -->
<g id="node4" class="node">
<title>Node3</title>
<g id="a_node4"><a xlink:href="visibility__begin_8h_source.html" target="_top" xlink:title="odp/visibility_begin.h">
<polygon fill="#ffffff" stroke="#000000" points="149,-.5 149,-19.5 270,-19.5 270,-.5 149,-.5"/>
<text text-anchor="middle" x="209.5" y="-7.5" font-family="Helvetica,sans-Serif" font-size="10.00" fill="#000000">odp/visibility_begin.h</text>
</a>
</g>
</g>
<!-- Node2&#45;&gt;Node3 -->
<g id="edge3" class="edge">
<title>Node2&#45;&gt;Node3</title>
<path fill="none" stroke="#191970" d="M163.1192,-291.4296C128.7745,-281.177 88.7522,-267.2921 75.5,-255 49.9747,-231.324 43.5,-218.3152 43.5,-183.5 43.5,-183.5 43.5,-183.5 43.5,-122 43.5,-91.4754 41.1652,-77.8307 62.5,-56 75.3986,-42.8016 117.1195,-30.4636 152.834,-21.8947"/>
<polygon fill="#191970" stroke="#191970" points="153.7803,-25.2679 162.7191,-19.5802 152.1845,-18.4522 153.7803,-25.2679"/>
</g>
<!-- Node4 -->
<g id="node5" class="node">
<title>Node4</title>
<g id="a_node5"><a xlink:href="api_2schedule__types_8h.html" target="_top" xlink:title="ODP schedule. ">
<polygon fill="#ffffff" stroke="#000000" points="222.5,-235.5 222.5,-254.5 362.5,-254.5 362.5,-235.5 222.5,-235.5"/>
<text text-anchor="middle" x="292.5" y="-242.5" font-family="Helvetica,sans-Serif" font-size="10.00" fill="#000000">odp/api/schedule_types.h</text>
</a>
</g>
</g>
<!-- Node2&#45;&gt;Node4 -->
<g id="edge4" class="edge">
<title>Node2&#45;&gt;Node4</title>
<path fill="none" stroke="#191970" d="M236.7921,-291.2977C247.7061,-282.2274 261.5671,-270.7077 272.7324,-261.4285"/>
<polygon fill="#191970" stroke="#191970" points="275.198,-263.9303 280.6517,-254.8469 270.7238,-258.5468 275.198,-263.9303"/>
</g>
<!-- Node9 -->
<g id="node10" class="node">
<title>Node9</title>
<g id="a_node10"><a xlink:href="visibility__end_8h_source.html" target="_top" xlink:title="odp/visibility_end.h">
<polygon fill="#ffffff" stroke="#000000" points="317.5,-.5 317.5,-19.5 429.5,-19.5 429.5,-.5 317.5,-.5"/>
<text text-anchor="middle" x="373.5" y="-7.5" font-family="Helvetica,sans-Serif" font-size="10.00" fill="#000000">odp/visibility_end.h</text>
</a>
</g>
</g>
<!-- Node2&#45;&gt;Node9 -->
<g id="edge17" class="edge">
<title>Node2&#45;&gt;Node9</title>
<path fill="none" stroke="#191970" d="M274.0219,-291.4917C348.4966,-269.6919 471.5,-227.0891 471.5,-183.5 471.5,-183.5 471.5,-183.5 471.5,-122 471.5,-78.4482 429.0118,-43.6916 399.9879,-25.0299"/>
<polygon fill="#191970" stroke="#191970" points="401.8203,-22.0479 391.4747,-19.7631 398.1374,-28.0008 401.8203,-22.0479"/>
</g>
<!-- Node10 -->
<g id="node11" class="node">
<title>Node10</title>
<g id="a_node11"><a xlink:href="deprecated_8h.html" target="_top" xlink:title="Control deprecated API definitions. ">
<polygon fill="#ffffff" stroke="#000000" points="85,-235.5 85,-254.5 204,-254.5 204,-235.5 85,-235.5"/>
<text text-anchor="middle" x="144.5" y="-242.5" font-family="Helvetica,sans-Serif" font-size="10.00" fill="#000000">odp/api/deprecated.h</text>
</a>
</g>
</g>
<!-- Node2&#45;&gt;Node10 -->
<g id="edge13" class="edge">
<title>Node2&#45;&gt;Node10</title>
<path fill="none" stroke="#191970" d="M200.2079,-291.2977C189.2939,-282.2274 175.4329,-270.7077 164.2676,-261.4285"/>
<polygon fill="#191970" stroke="#191970" points="166.2762,-258.5468 156.3483,-254.8469 161.802,-263.9303 166.2762,-258.5468"/>
</g>
<!-- Node5 -->
<g id="node6" class="node">
<title>Node5</title>
<polygon fill="#ffffff" stroke="#bfbfbf" points="326,-168.5 326,-198.5 443,-198.5 443,-168.5 326,-168.5"/>
<text text-anchor="start" x="334" y="-186.5" font-family="Helvetica,sans-Serif" font-size="10.00" fill="#000000">odp/api/abi/schedule</text>
<text text-anchor="middle" x="384.5" y="-175.5" font-family="Helvetica,sans-Serif" font-size="10.00" fill="#000000">_types.h</text>
</g>
<!-- Node4&#45;&gt;Node5 -->
<g id="edge5" class="edge">
<title>Node4&#45;&gt;Node5</title>
<path fill="none" stroke="#191970" d="M306.875,-235.3906C319.3261,-227.0673 337.7686,-214.7389 353.5534,-204.1872"/>
<polygon fill="#191970" stroke="#191970" points="355.6258,-207.0118 361.9943,-198.5446 351.7356,-201.1923 355.6258,-207.0118"/>
</g>
<!-- Node6 -->
<g id="node7" class="node">
<title>Node6</title>
<g id="a_node7"><a xlink:href="api_2spec_2schedule__types_8h.html" target="_top" xlink:title="ODP schedule types. ">
<polygon fill="#ffffff" stroke="#000000" points="183,-168.5 183,-198.5 308,-198.5 308,-168.5 183,-168.5"/>
<text text-anchor="start" x="191" y="-186.5" font-family="Helvetica,sans-Serif" font-size="10.00" fill="#000000">odp/api/spec/schedule</text>
<text text-anchor="middle" x="245.5" y="-175.5" font-family="Helvetica,sans-Serif" font-size="10.00" fill="#000000">_types.h</text>
</a>
</g>
</g>
<!-- Node4&#45;&gt;Node6 -->
<g id="edge6" class="edge">
<title>Node4&#45;&gt;Node6</title>
<path fill="none" stroke="#191970" d="M285.1563,-235.3906C279.2665,-227.6839 270.7527,-216.5434 263.1222,-206.5589"/>
<polygon fill="#191970" stroke="#191970" points="265.8505,-204.3648 256.9975,-198.5446 260.2887,-208.6153 265.8505,-204.3648"/>
</g>
<!-- Node6&#45;&gt;Node3 -->
<g id="edge7" class="edge">
<title>Node6&#45;&gt;Node3</title>
<path fill="none" stroke="#191970" d="M244.0184,-168.4076C241.4607,-144.3635 235.5066,-95.9944 225.5,-56 223.2489,-47.0028 219.9895,-37.2708 216.9991,-29.0853"/>
<polygon fill="#191970" stroke="#191970" points="220.2658,-27.8285 213.4513,-19.716 213.7194,-30.3074 220.2658,-27.8285"/>
</g>
<!-- Node7 -->
<g id="node8" class="node">
<title>Node7</title>
<g id="a_node8"><a xlink:href="support_8h.html" target="_top" xlink:title="ODP support API &#45; platform specific header. ">
<polygon fill="#ffffff" stroke="#000000" points="281,-112.5 281,-131.5 382,-131.5 382,-112.5 281,-112.5"/>
<text text-anchor="middle" x="331.5" y="-119.5" font-family="Helvetica,sans-Serif" font-size="10.00" fill="#000000">odp/api/support.h</text>
</a>
</g>
</g>
<!-- Node6&#45;&gt;Node7 -->
<g id="edge8" class="edge">
<title>Node6&#45;&gt;Node7</title>
<path fill="none" stroke="#191970" d="M266.7584,-168.2977C279.7718,-158.9917 296.3903,-147.1075 309.5317,-137.7099"/>
<polygon fill="#191970" stroke="#191970" points="311.8889,-140.3271 317.9871,-131.6633 307.8171,-134.6332 311.8889,-140.3271"/>
</g>
<!-- Node6&#45;&gt;Node9 -->
<g id="edge12" class="edge">
<title>Node6&#45;&gt;Node9</title>
<path fill="none" stroke="#191970" d="M304.3592,-168.3986C339.1398,-158.4207 378.7958,-144.8578 391.5,-132 415.9712,-107.233 422.0682,-88.8394 410.5,-56 406.6691,-45.125 399.0598,-34.9246 391.7328,-26.9061"/>
<polygon fill="#191970" stroke="#191970" points="394.1466,-24.3686 384.6502,-19.6707 389.1443,-29.2652 394.1466,-24.3686"/>
</g>
<!-- Node8 -->
<g id="node9" class="node">
<title>Node8</title>
<g id="a_node9"><a xlink:href="spec_2support_8h.html" target="_top" xlink:title="ODP support API. ">
<polygon fill="#ffffff" stroke="#000000" points="274,-56.5 274,-75.5 401,-75.5 401,-56.5 274,-56.5"/>
<text text-anchor="middle" x="337.5" y="-63.5" font-family="Helvetica,sans-Serif" font-size="10.00" fill="#000000">odp/api/spec/support.h</text>
</a>
</g>
</g>
<!-- Node7&#45;&gt;Node8 -->
<g id="edge9" class="edge">
<title>Node7&#45;&gt;Node8</title>
<path fill="none" stroke="#191970" d="M332.5451,-112.2455C333.328,-104.9382 334.4256,-94.6944 335.3888,-85.7046"/>
<polygon fill="#191970" stroke="#191970" points="338.8815,-85.9587 336.4669,-75.6427 331.9214,-85.2129 338.8815,-85.9587"/>
</g>
<!-- Node8&#45;&gt;Node3 -->
<g id="edge10" class="edge">
<title>Node8&#45;&gt;Node3</title>
<path fill="none" stroke="#191970" d="M315.496,-56.3733C294.8565,-47.3435 263.7842,-33.7494 240.6111,-23.6111"/>
<polygon fill="#191970" stroke="#191970" points="241.7813,-20.3028 231.2169,-19.5011 238.9755,-26.7159 241.7813,-20.3028"/>
</g>
<!-- Node8&#45;&gt;Node9 -->
<g id="edge11" class="edge">
<title>Node8&#45;&gt;Node9</title>
<path fill="none" stroke="#191970" d="M343.7707,-56.2455C348.7264,-48.5367 355.783,-37.5598 361.7776,-28.2348"/>
<polygon fill="#191970" stroke="#191970" points="364.8376,-29.9471 367.3011,-19.6427 358.9494,-26.1618 364.8376,-29.9471"/>
</g>
<!-- Node11 -->
<g id="node12" class="node">
<title>Node11</title>
<g id="a_node12"><a xlink:href="spec_2deprecated_8h.html" target="_top" xlink:title="Macro for deprecated API definitions. ">
<polygon fill="#ffffff" stroke="#000000" points="72,-56.5 72,-75.5 217,-75.5 217,-56.5 72,-56.5"/>
<text text-anchor="middle" x="144.5" y="-63.5" font-family="Helvetica,sans-Serif" font-size="10.00" fill="#000000">odp/api/spec/deprecated.h</text>
</a>
</g>
</g>
<!-- Node10&#45;&gt;Node11 -->
<g id="edge14" class="edge">
<title>Node10&#45;&gt;Node11</title>
<path fill="none" stroke="#191970" d="M144.5,-235.3762C144.5,-207.2097 144.5,-124.5126 144.5,-86.0713"/>
<polygon fill="#191970" stroke="#191970" points="148.0001,-85.6714 144.5,-75.6714 141.0001,-85.6714 148.0001,-85.6714"/>
</g>
<!-- Node11&#45;&gt;Node3 -->
<g id="edge15" class="edge">
<title>Node11&#45;&gt;Node3</title>
<path fill="none" stroke="#191970" d="M155.8221,-56.2455C165.4223,-47.9746 179.3892,-35.9416 190.6695,-26.2232"/>
<polygon fill="#191970" stroke="#191970" points="193.016,-28.8214 198.3076,-19.6427 188.447,-23.5182 193.016,-28.8214"/>
</g>
<!-- Node11&#45;&gt;Node9 -->
<g id="edge16" class="edge">
<title>Node11&#45;&gt;Node9</title>
<path fill="none" stroke="#191970" d="M183.6063,-56.4369C222.6332,-46.8932 282.6965,-32.2052 324.7962,-21.9101"/>
<polygon fill="#191970" stroke="#191970" points="325.6726,-25.299 334.555,-19.5237 324.0098,-18.4993 325.6726,-25.299"/>
</g>
</g>
</svg>
