<?xml version="1.0" encoding="UTF-8" standalone="no"?>
<!DOCTYPE svg PUBLIC "-//W3C//DTD SVG 1.1//EN"
 "http://www.w3.org/Graphics/SVG/1.1/DTD/svg11.dtd">
<!-- Generated by graphviz version 2.43.0 (0)
 -->
<!-- Title: packet_flags.h Pages: 1 -->
<svg width="954pt" height="811pt"
 viewBox="0.00 0.00 954.00 811.00" xmlns="http://www.w3.org/2000/svg" xmlns:xlink="http://www.w3.org/1999/xlink">
<g id="graph0" class="graph" transform="scale(1 1) rotate(0) translate(4 807)">
<title>packet_flags.h</title>
<polygon fill="white" stroke="transparent" points="-4,4 -4,-807 950,-807 950,4 -4,4"/>
<!-- Node1 -->
<g id="node1" class="node">
<title>Node1</title>
<g id="a_node1"><a xlink:title="ODP packet flags.">
<polygon fill="#bfbfbf" stroke="black" points="108,-783.5 108,-802.5 194,-802.5 194,-783.5 108,-783.5"/>
<text text-anchor="middle" x="151" y="-790.5" font-family="Helvetica,sans-Serif" font-size="10.00">packet_flags.h</text>
</a>
</g>
</g>
<!-- Node2 -->
<g id="node2" class="node">
<title>Node2</title>
<g id="a_node2"><a xlink:href="visibility__begin_8h_source.html" target="_top" xlink:title=" ">
<polygon fill="white" stroke="black" points="72.5,-0.5 72.5,-19.5 193.5,-19.5 193.5,-0.5 72.5,-0.5"/>
<text text-anchor="middle" x="133" y="-7.5" font-family="Helvetica,sans-Serif" font-size="10.00">odp/visibility_begin.h</text>
</a>
</g>
</g>
<!-- Node1&#45;&gt;Node2 -->
<g id="edge1" class="edge">
<title>Node1&#45;&gt;Node2</title>
<path fill="none" stroke="midnightblue" d="M119.71,-783.45C75.48,-769.24 0,-736.24 0,-676.5 0,-676.5 0,-676.5 0,-121 0,-70.73 57.13,-39.1 96.5,-23.27"/>
<polygon fill="midnightblue" stroke="midnightblue" points="98.01,-26.45 106.09,-19.59 95.5,-19.91 98.01,-26.45"/>
</g>
<!-- Node3 -->
<g id="node3" class="node">
<title>Node3</title>
<g id="a_node3"><a xlink:href="api_2std__types_8h.html" target="_top" xlink:title="Standard C language types and definitions for ODP.">
<polygon fill="white" stroke="black" points="222,-224.5 222,-243.5 334,-243.5 334,-224.5 222,-224.5"/>
<text text-anchor="middle" x="278" y="-231.5" font-family="Helvetica,sans-Serif" font-size="10.00">odp/api/std_types.h</text>
</a>
</g>
</g>
<!-- Node1&#45;&gt;Node3 -->
<g id="edge2" class="edge">
<title>Node1&#45;&gt;Node3</title>
<path fill="none" stroke="midnightblue" d="M140.25,-783.39C119.52,-765.73 76,-723.12 76,-676.5 76,-676.5 76,-676.5 76,-551.5 76,-415.93 209.31,-291.75 259.34,-249.93"/>
<polygon fill="midnightblue" stroke="midnightblue" points="261.64,-252.56 267.14,-243.51 257.19,-247.16 261.64,-252.56"/>
</g>
<!-- Node10 -->
<g id="node10" class="node">
<title>Node10</title>
<g id="a_node10"><a xlink:href="visibility__end_8h_source.html" target="_top" xlink:title=" ">
<polygon fill="white" stroke="black" points="544,-0.5 544,-19.5 656,-19.5 656,-0.5 544,-0.5"/>
<text text-anchor="middle" x="600" y="-7.5" font-family="Helvetica,sans-Serif" font-size="10.00">odp/visibility_end.h</text>
</a>
</g>
</g>
<!-- Node1&#45;&gt;Node10 -->
<g id="edge42" class="edge">
<title>Node1&#45;&gt;Node10</title>
<path fill="none" stroke="midnightblue" d="M194.02,-790.33C359.54,-783.34 946,-753.16 946,-676.5 946,-676.5 946,-676.5 946,-121 946,-62.96 766.92,-31.49 666.43,-18.41"/>
<polygon fill="midnightblue" stroke="midnightblue" points="666.72,-14.92 656.36,-17.13 665.84,-21.86 666.72,-14.92"/>
</g>
<!-- Node11 -->
<g id="node11" class="node">
<title>Node11</title>
<g id="a_node11"><a xlink:href="api_2packet__types_8h.html" target="_top" xlink:title="ODP packet.">
<polygon fill="white" stroke="black" points="419.5,-727.5 419.5,-746.5 548.5,-746.5 548.5,-727.5 419.5,-727.5"/>
<text text-anchor="middle" x="484" y="-734.5" font-family="Helvetica,sans-Serif" font-size="10.00">odp/api/packet_types.h</text>
</a>
</g>
</g>
<!-- Node1&#45;&gt;Node11 -->
<g id="edge13" class="edge">
<title>Node1&#45;&gt;Node11</title>
<path fill="none" stroke="midnightblue" d="M194.19,-785C252.11,-775.6 355.31,-758.87 421.65,-748.11"/>
<polygon fill="midnightblue" stroke="midnightblue" points="422.25,-751.56 431.56,-746.5 421.13,-744.65 422.25,-751.56"/>
</g>
<!-- Node4 -->
<g id="node4" class="node">
<title>Node4</title>
<g id="a_node4"><a xlink:title=" ">
<polygon fill="white" stroke="#bfbfbf" points="144,-168.5 144,-187.5 274,-187.5 274,-168.5 144,-168.5"/>
<text text-anchor="middle" x="209" y="-175.5" font-family="Helvetica,sans-Serif" font-size="10.00">odp/api/abi/std_types.h</text>
</a>
</g>
</g>
<!-- Node3&#45;&gt;Node4 -->
<g id="edge3" class="edge">
<title>Node3&#45;&gt;Node4</title>
<path fill="none" stroke="midnightblue" d="M266.91,-224.32C256.51,-216.18 240.74,-203.84 228.28,-194.09"/>
<polygon fill="midnightblue" stroke="midnightblue" points="230.32,-191.24 220.29,-187.83 226.01,-196.75 230.32,-191.24"/>
</g>
<!-- Node5 -->
<g id="node5" class="node">
<title>Node5</title>
<g id="a_node5"><a xlink:href="api_2spec_2std__types_8h.html" target="_top" xlink:title="Common types and definitions for ODP API files.">
<polygon fill="white" stroke="black" points="292.5,-168.5 292.5,-187.5 429.5,-187.5 429.5,-168.5 292.5,-168.5"/>
<text text-anchor="middle" x="361" y="-175.5" font-family="Helvetica,sans-Serif" font-size="10.00">odp/api/spec/std_types.h</text>
</a>
</g>
</g>
<!-- Node3&#45;&gt;Node5 -->
<g id="edge4" class="edge">
<title>Node3&#45;&gt;Node5</title>
<path fill="none" stroke="midnightblue" d="M291.34,-224.32C304.16,-215.98 323.78,-203.21 338.94,-193.35"/>
<polygon fill="midnightblue" stroke="midnightblue" points="341.22,-196.04 347.7,-187.65 337.41,-190.17 341.22,-196.04"/>
</g>
<!-- Node5&#45;&gt;Node2 -->
<g id="edge5" class="edge">
<title>Node5&#45;&gt;Node2</title>
<path fill="none" stroke="midnightblue" d="M327.74,-168.43C301.94,-160.98 265.82,-148.73 237,-132 203.73,-112.69 195.73,-105.47 171,-76 158.81,-61.48 148.24,-42.55 141.36,-28.87"/>
<polygon fill="midnightblue" stroke="midnightblue" points="144.37,-27.05 136.86,-19.59 138.07,-30.11 144.37,-27.05"/>
</g>
<!-- Node6 -->
<g id="node6" class="node">
<title>Node6</title>
<g id="a_node6"><a xlink:title=" ">
<polygon fill="white" stroke="#bfbfbf" points="246.5,-112.5 246.5,-131.5 299.5,-131.5 299.5,-112.5 246.5,-112.5"/>
<text text-anchor="middle" x="273" y="-119.5" font-family="Helvetica,sans-Serif" font-size="10.00">stdint.h</text>
</a>
</g>
</g>
<!-- Node5&#45;&gt;Node6 -->
<g id="edge6" class="edge">
<title>Node5&#45;&gt;Node6</title>
<path fill="none" stroke="midnightblue" d="M346.86,-168.32C333.13,-159.9 312.06,-146.97 295.94,-137.07"/>
<polygon fill="midnightblue" stroke="midnightblue" points="297.46,-133.9 287.1,-131.65 293.8,-139.87 297.46,-133.9"/>
</g>
<!-- Node7 -->
<g id="node7" class="node">
<title>Node7</title>
<g id="a_node7"><a xlink:href="api_2align_8h.html" target="_top" xlink:title="ODP alignments.">
<polygon fill="white" stroke="black" points="317.5,-112.5 317.5,-131.5 406.5,-131.5 406.5,-112.5 317.5,-112.5"/>
<text text-anchor="middle" x="362" y="-119.5" font-family="Helvetica,sans-Serif" font-size="10.00">odp/api/align.h</text>
</a>
</g>
</g>
<!-- Node5&#45;&gt;Node7 -->
<g id="edge7" class="edge">
<title>Node5&#45;&gt;Node7</title>
<path fill="none" stroke="midnightblue" d="M361.17,-168.08C361.3,-161.01 361.48,-150.86 361.65,-141.99"/>
<polygon fill="midnightblue" stroke="midnightblue" points="365.15,-141.81 361.84,-131.75 358.15,-141.68 365.15,-141.81"/>
</g>
<!-- Node5&#45;&gt;Node10 -->
<g id="edge12" class="edge">
<title>Node5&#45;&gt;Node10</title>
<path fill="none" stroke="midnightblue" d="M371.38,-168.35C402.72,-142.27 495.16,-65.57 510,-56 529.2,-43.62 552.27,-32.14 570.25,-23.88"/>
<polygon fill="midnightblue" stroke="midnightblue" points="571.98,-26.94 579.65,-19.63 569.1,-20.56 571.98,-26.94"/>
</g>
<!-- Node8 -->
<g id="node8" class="node">
<title>Node8</title>
<g id="a_node8"><a xlink:title=" ">
<polygon fill="white" stroke="#bfbfbf" points="180.5,-56.5 180.5,-75.5 287.5,-75.5 287.5,-56.5 180.5,-56.5"/>
<text text-anchor="middle" x="234" y="-63.5" font-family="Helvetica,sans-Serif" font-size="10.00">odp/api/abi/align.h</text>
</a>
</g>
</g>
<!-- Node7&#45;&gt;Node8 -->
<g id="edge8" class="edge">
<title>Node7&#45;&gt;Node8</title>
<path fill="none" stroke="midnightblue" d="M341.72,-112.44C320.65,-103.56 287.48,-89.56 263.51,-79.45"/>
<polygon fill="midnightblue" stroke="midnightblue" points="264.76,-76.18 254.19,-75.52 262.04,-82.63 264.76,-76.18"/>
</g>
<!-- Node9 -->
<g id="node9" class="node">
<title>Node9</title>
<g id="a_node9"><a xlink:href="api_2spec_2align_8h.html" target="_top" xlink:title="ODP alignments.">
<polygon fill="white" stroke="black" points="306,-56.5 306,-75.5 420,-75.5 420,-56.5 306,-56.5"/>
<text text-anchor="middle" x="363" y="-63.5" font-family="Helvetica,sans-Serif" font-size="10.00">odp/api/spec/align.h</text>
</a>
</g>
</g>
<!-- Node7&#45;&gt;Node9 -->
<g id="edge9" class="edge">
<title>Node7&#45;&gt;Node9</title>
<path fill="none" stroke="midnightblue" d="M362.17,-112.08C362.3,-105.01 362.48,-94.86 362.65,-85.99"/>
<polygon fill="midnightblue" stroke="midnightblue" points="366.15,-85.81 362.84,-75.75 359.15,-85.68 366.15,-85.81"/>
</g>
<!-- Node9&#45;&gt;Node2 -->
<g id="edge10" class="edge">
<title>Node9&#45;&gt;Node2</title>
<path fill="none" stroke="midnightblue" d="M326.56,-56.44C286.6,-47.06 222.41,-31.99 179.02,-21.8"/>
<polygon fill="midnightblue" stroke="midnightblue" points="179.81,-18.39 169.27,-19.52 178.21,-25.21 179.81,-18.39"/>
</g>
<!-- Node9&#45;&gt;Node10 -->
<g id="edge11" class="edge">
<title>Node9&#45;&gt;Node10</title>
<path fill="none" stroke="midnightblue" d="M400.55,-56.44C441.81,-47.04 508.14,-31.93 552.87,-21.74"/>
<polygon fill="midnightblue" stroke="midnightblue" points="553.65,-25.15 562.62,-19.52 552.09,-18.33 553.65,-25.15"/>
</g>
<!-- Node12 -->
<g id="node12" class="node">
<title>Node12</title>
<g id="a_node12"><a xlink:title=" ">
<polygon fill="white" stroke="#bfbfbf" points="495,-660.5 495,-690.5 601,-690.5 601,-660.5 495,-660.5"/>
<text text-anchor="start" x="503" y="-678.5" font-family="Helvetica,sans-Serif" font-size="10.00">odp/api/abi/packet</text>
<text text-anchor="middle" x="548" y="-667.5" font-family="Helvetica,sans-Serif" font-size="10.00">_io_types.h</text>
</a>
</g>
</g>
<!-- Node11&#45;&gt;Node12 -->
<g id="edge14" class="edge">
<title>Node11&#45;&gt;Node12</title>
<path fill="none" stroke="midnightblue" d="M493.17,-727.48C501.59,-719.64 514.42,-707.71 525.56,-697.37"/>
<polygon fill="midnightblue" stroke="midnightblue" points="527.98,-699.9 532.92,-690.52 523.21,-694.77 527.98,-699.9"/>
</g>
<!-- Node13 -->
<g id="node13" class="node">
<title>Node13</title>
<g id="a_node13"><a xlink:title=" ">
<polygon fill="white" stroke="#bfbfbf" points="619,-660.5 619,-690.5 725,-690.5 725,-660.5 619,-660.5"/>
<text text-anchor="start" x="627" y="-678.5" font-family="Helvetica,sans-Serif" font-size="10.00">odp/api/abi/packet</text>
<text text-anchor="middle" x="672" y="-667.5" font-family="Helvetica,sans-Serif" font-size="10.00">_types.h</text>
</a>
</g>
</g>
<!-- Node11&#45;&gt;Node13 -->
<g id="edge15" class="edge">
<title>Node11&#45;&gt;Node13</title>
<path fill="none" stroke="midnightblue" d="M510.94,-727.48C538.78,-718.66 583,-704.67 618.07,-693.57"/>
<polygon fill="midnightblue" stroke="midnightblue" points="619.21,-696.88 627.69,-690.52 617.1,-690.2 619.21,-696.88"/>
</g>
<!-- Node14 -->
<g id="node14" class="node">
<title>Node14</title>
<g id="a_node14"><a xlink:href="api_2spec_2packet__types_8h.html" target="_top" xlink:title="ODP packet types.">
<polygon fill="white" stroke="black" points="363.5,-660.5 363.5,-690.5 476.5,-690.5 476.5,-660.5 363.5,-660.5"/>
<text text-anchor="start" x="371.5" y="-678.5" font-family="Helvetica,sans-Serif" font-size="10.00">odp/api/spec/packet</text>
<text text-anchor="middle" x="420" y="-667.5" font-family="Helvetica,sans-Serif" font-size="10.00">_types.h</text>
</a>
</g>
</g>
<!-- Node11&#45;&gt;Node14 -->
<g id="edge16" class="edge">
<title>Node11&#45;&gt;Node14</title>
<path fill="none" stroke="midnightblue" d="M474.83,-727.48C466.41,-719.64 453.58,-707.71 442.44,-697.37"/>
<polygon fill="midnightblue" stroke="midnightblue" points="444.79,-694.77 435.08,-690.52 440.02,-699.9 444.79,-694.77"/>
</g>
<!-- Node14&#45;&gt;Node2 -->
<g id="edge17" class="edge">
<title>Node14&#45;&gt;Node2</title>
<path fill="none" stroke="midnightblue" d="M363.22,-672.64C256.81,-665.79 38,-634.4 38,-492 38,-492 38,-492 38,-121 38,-77.74 80.61,-43.09 108.75,-24.91"/>
<polygon fill="midnightblue" stroke="midnightblue" points="110.66,-27.85 117.31,-19.6 106.97,-21.9 110.66,-27.85"/>
</g>
<!-- Node14&#45;&gt;Node10 -->
<g id="edge41" class="edge">
<title>Node14&#45;&gt;Node10</title>
<path fill="none" stroke="midnightblue" d="M476.93,-661.88C605.66,-633.15 908,-564.49 908,-553.5 908,-553.5 908,-553.5 908,-121 908,-70.03 756.54,-36.46 666.04,-20.94"/>
<polygon fill="midnightblue" stroke="midnightblue" points="666.58,-17.48 656.13,-19.27 665.41,-24.38 666.58,-17.48"/>
</g>
<!-- Node15 -->
<g id="node15" class="node">
<title>Node15</title>
<g id="a_node15"><a xlink:href="api_2proto__stats__types_8h.html" target="_top" xlink:title="ODP proto stats types.">
<polygon fill="white" stroke="black" points="626,-347.5 626,-377.5 736,-377.5 736,-347.5 626,-347.5"/>
<text text-anchor="start" x="634" y="-365.5" font-family="Helvetica,sans-Serif" font-size="10.00">odp/api/proto_stats</text>
<text text-anchor="middle" x="681" y="-354.5" font-family="Helvetica,sans-Serif" font-size="10.00">_types.h</text>
</a>
</g>
</g>
<!-- Node14&#45;&gt;Node15 -->
<g id="edge18" class="edge">
<title>Node14&#45;&gt;Node15</title>
<path fill="none" stroke="midnightblue" d="M468.45,-660.5C538.04,-638.92 658,-595.62 658,-553.5 658,-553.5 658,-553.5 658,-490 658,-453.87 667.2,-412.85 673.96,-387.57"/>
<polygon fill="midnightblue" stroke="midnightblue" points="677.38,-388.34 676.67,-377.76 670.63,-386.47 677.38,-388.34"/>
</g>
<!-- Node18 -->
<g id="node18" class="node">
<title>Node18</title>
<g id="a_node18"><a xlink:href="api_2queue__types_8h.html" target="_top" xlink:title="ODP queue.">
<polygon fill="white" stroke="black" points="356.5,-604.5 356.5,-623.5 483.5,-623.5 483.5,-604.5 356.5,-604.5"/>
<text text-anchor="middle" x="420" y="-611.5" font-family="Helvetica,sans-Serif" font-size="10.00">odp/api/queue_types.h</text>
</a>
</g>
</g>
<!-- Node14&#45;&gt;Node18 -->
<g id="edge24" class="edge">
<title>Node14&#45;&gt;Node18</title>
<path fill="none" stroke="midnightblue" d="M420,-660.4C420,-652.47 420,-642.46 420,-633.86"/>
<polygon fill="midnightblue" stroke="midnightblue" points="423.5,-633.66 420,-623.66 416.5,-633.66 423.5,-633.66"/>
</g>
<!-- Node16 -->
<g id="node16" class="node">
<title>Node16</title>
<g id="a_node16"><a xlink:title=" ">
<polygon fill="white" stroke="#bfbfbf" points="752,-280.5 752,-310.5 880,-310.5 880,-280.5 752,-280.5"/>
<text text-anchor="start" x="760" y="-298.5" font-family="Helvetica,sans-Serif" font-size="10.00">odp/api/abi/proto_stats</text>
<text text-anchor="middle" x="816" y="-287.5" font-family="Helvetica,sans-Serif" font-size="10.00">_types.h</text>
</a>
</g>
</g>
<!-- Node15&#45;&gt;Node16 -->
<g id="edge19" class="edge">
<title>Node15&#45;&gt;Node16</title>
<path fill="none" stroke="midnightblue" d="M710.29,-347.4C730.02,-337.9 756.23,-325.28 777.62,-314.98"/>
<polygon fill="midnightblue" stroke="midnightblue" points="779.27,-318.07 786.76,-310.58 776.24,-311.76 779.27,-318.07"/>
</g>
<!-- Node17 -->
<g id="node17" class="node">
<title>Node17</title>
<g id="a_node17"><a xlink:href="api_2spec_2proto__stats__types_8h.html" target="_top" xlink:title="ODP proto stats types.">
<polygon fill="white" stroke="black" points="626.5,-280.5 626.5,-310.5 733.5,-310.5 733.5,-280.5 626.5,-280.5"/>
<text text-anchor="start" x="634.5" y="-298.5" font-family="Helvetica,sans-Serif" font-size="10.00">odp/api/spec/proto</text>
<text text-anchor="middle" x="680" y="-287.5" font-family="Helvetica,sans-Serif" font-size="10.00">_stats_types.h</text>
</a>
</g>
</g>
<!-- Node15&#45;&gt;Node17 -->
<g id="edge20" class="edge">
<title>Node15&#45;&gt;Node17</title>
<path fill="none" stroke="midnightblue" d="M680.78,-347.4C680.66,-339.64 680.51,-329.81 680.37,-320.86"/>
<polygon fill="midnightblue" stroke="midnightblue" points="683.87,-320.52 680.22,-310.58 676.87,-320.63 683.87,-320.52"/>
</g>
<!-- Node17&#45;&gt;Node2 -->
<g id="edge21" class="edge">
<title>Node17&#45;&gt;Node2</title>
<path fill="none" stroke="midnightblue" d="M672.26,-280.41C647.8,-237.5 567.41,-108.19 460,-56 416.15,-34.69 286.13,-21.83 203.86,-15.6"/>
<polygon fill="midnightblue" stroke="midnightblue" points="204.06,-12.1 193.82,-14.85 203.54,-19.08 204.06,-12.1"/>
</g>
<!-- Node17&#45;&gt;Node3 -->
<g id="edge22" class="edge">
<title>Node17&#45;&gt;Node3</title>
<path fill="none" stroke="midnightblue" d="M626.2,-286.54C553.31,-275.75 423.24,-256.5 344.37,-244.82"/>
<polygon fill="midnightblue" stroke="midnightblue" points="344.47,-241.3 334.06,-243.3 343.44,-248.22 344.47,-241.3"/>
</g>
<!-- Node17&#45;&gt;Node10 -->
<g id="edge23" class="edge">
<title>Node17&#45;&gt;Node10</title>
<path fill="none" stroke="midnightblue" d="M679.8,-280.28C679.51,-258.48 679,-215.5 679,-179 679,-179 679,-179 679,-121 679,-89.72 670.32,-81.36 652,-56 643.59,-44.36 631.6,-33.72 621.25,-25.71"/>
<polygon fill="midnightblue" stroke="midnightblue" points="623.18,-22.78 613.06,-19.64 619.01,-28.41 623.18,-22.78"/>
</g>
<!-- Node19 -->
<g id="node19" class="node">
<title>Node19</title>
<g id="a_node19"><a xlink:title=" ">
<polygon fill="white" stroke="#bfbfbf" points="420.5,-543 420.5,-562 565.5,-562 565.5,-543 420.5,-543"/>
<text text-anchor="middle" x="493" y="-550" font-family="Helvetica,sans-Serif" font-size="10.00">odp/api/abi/queue_types.h</text>
</a>
</g>
</g>
<!-- Node18&#45;&gt;Node19 -->
<g id="edge25" class="edge">
<title>Node18&#45;&gt;Node19</title>
<path fill="none" stroke="midnightblue" d="M430.46,-604.48C441.95,-595.11 460.63,-579.88 474.59,-568.51"/>
<polygon fill="midnightblue" stroke="midnightblue" points="477.02,-571.04 482.56,-562.01 472.6,-565.61 477.02,-571.04"/>
</g>
<!-- Node20 -->
<g id="node20" class="node">
<title>Node20</title>
<g id="a_node20"><a xlink:href="api_2spec_2queue__types_8h.html" target="_top" xlink:title="ODP queue types.">
<polygon fill="white" stroke="black" points="291.5,-537.5 291.5,-567.5 402.5,-567.5 402.5,-537.5 291.5,-537.5"/>
<text text-anchor="start" x="299.5" y="-555.5" font-family="Helvetica,sans-Serif" font-size="10.00">odp/api/spec/queue</text>
<text text-anchor="middle" x="347" y="-544.5" font-family="Helvetica,sans-Serif" font-size="10.00">_types.h</text>
</a>
</g>
</g>
<!-- Node18&#45;&gt;Node20 -->
<g id="edge26" class="edge">
<title>Node18&#45;&gt;Node20</title>
<path fill="none" stroke="midnightblue" d="M409.54,-604.48C399.84,-596.57 385.01,-584.48 372.23,-574.07"/>
<polygon fill="midnightblue" stroke="midnightblue" points="374.17,-571.13 364.2,-567.52 369.74,-576.55 374.17,-571.13"/>
</g>
<!-- Node20&#45;&gt;Node2 -->
<g id="edge27" class="edge">
<title>Node20&#45;&gt;Node2</title>
<path fill="none" stroke="midnightblue" d="M291.18,-539.32C211.85,-518.35 76,-467.29 76,-363.5 76,-363.5 76,-363.5 76,-121 76,-84.3 101.32,-47.66 118.21,-27.3"/>
<polygon fill="midnightblue" stroke="midnightblue" points="120.95,-29.48 124.83,-19.62 115.65,-24.9 120.95,-29.48"/>
</g>
<!-- Node20&#45;&gt;Node10 -->
<g id="edge40" class="edge">
<title>Node20&#45;&gt;Node10</title>
<path fill="none" stroke="midnightblue" d="M399.92,-537.44C473.56,-516.29 598,-474.1 598,-430.5 598,-430.5 598,-430.5 598,-361.5 598,-234.78 599.32,-82.28 599.82,-29.81"/>
<polygon fill="midnightblue" stroke="midnightblue" points="603.32,-29.7 599.91,-19.67 596.32,-29.64 603.32,-29.7"/>
</g>
<!-- Node21 -->
<g id="node21" class="node">
<title>Node21</title>
<g id="a_node21"><a xlink:href="api_2schedule__types_8h.html" target="_top" xlink:title="ODP schedule.">
<polygon fill="white" stroke="black" points="277,-481.5 277,-500.5 417,-500.5 417,-481.5 277,-481.5"/>
<text text-anchor="middle" x="347" y="-488.5" font-family="Helvetica,sans-Serif" font-size="10.00">odp/api/schedule_types.h</text>
</a>
</g>
</g>
<!-- Node20&#45;&gt;Node21 -->
<g id="edge28" class="edge">
<title>Node20&#45;&gt;Node21</title>
<path fill="none" stroke="midnightblue" d="M347,-537.4C347,-529.47 347,-519.46 347,-510.86"/>
<polygon fill="midnightblue" stroke="midnightblue" points="350.5,-510.66 347,-500.66 343.5,-510.66 350.5,-510.66"/>
</g>
<!-- Node22 -->
<g id="node22" class="node">
<title>Node22</title>
<g id="a_node22"><a xlink:title=" ">
<polygon fill="white" stroke="#bfbfbf" points="358.5,-414.5 358.5,-444.5 475.5,-444.5 475.5,-414.5 358.5,-414.5"/>
<text text-anchor="start" x="366.5" y="-432.5" font-family="Helvetica,sans-Serif" font-size="10.00">odp/api/abi/schedule</text>
<text text-anchor="middle" x="417" y="-421.5" font-family="Helvetica,sans-Serif" font-size="10.00">_types.h</text>
</a>
</g>
</g>
<!-- Node21&#45;&gt;Node22 -->
<g id="edge29" class="edge">
<title>Node21&#45;&gt;Node22</title>
<path fill="none" stroke="midnightblue" d="M357.03,-481.48C366.33,-473.57 380.55,-461.48 392.8,-451.07"/>
<polygon fill="midnightblue" stroke="midnightblue" points="395.15,-453.67 400.5,-444.52 390.62,-448.33 395.15,-453.67"/>
</g>
<!-- Node23 -->
<g id="node23" class="node">
<title>Node23</title>
<g id="a_node23"><a xlink:href="api_2spec_2schedule__types_8h.html" target="_top" xlink:title="ODP schedule types.">
<polygon fill="white" stroke="black" points="215.5,-414.5 215.5,-444.5 340.5,-444.5 340.5,-414.5 215.5,-414.5"/>
<text text-anchor="start" x="223.5" y="-432.5" font-family="Helvetica,sans-Serif" font-size="10.00">odp/api/spec/schedule</text>
<text text-anchor="middle" x="278" y="-421.5" font-family="Helvetica,sans-Serif" font-size="10.00">_types.h</text>
</a>
</g>
</g>
<!-- Node21&#45;&gt;Node23 -->
<g id="edge30" class="edge">
<title>Node21&#45;&gt;Node23</title>
<path fill="none" stroke="midnightblue" d="M337.11,-481.48C327.94,-473.57 313.93,-461.48 301.85,-451.07"/>
<polygon fill="midnightblue" stroke="midnightblue" points="304.12,-448.4 294.26,-444.52 299.55,-453.7 304.12,-448.4"/>
</g>
<!-- Node23&#45;&gt;Node2 -->
<g id="edge31" class="edge">
<title>Node23&#45;&gt;Node2</title>
<path fill="none" stroke="midnightblue" d="M252.73,-414.34C206.73,-386.47 114,-319.77 114,-235 114,-235 114,-235 114,-121 114,-88.49 122.16,-51.35 127.78,-29.61"/>
<polygon fill="midnightblue" stroke="midnightblue" points="131.22,-30.32 130.44,-19.75 124.46,-28.5 131.22,-30.32"/>
</g>
<!-- Node23&#45;&gt;Node3 -->
<g id="edge32" class="edge">
<title>Node23&#45;&gt;Node3</title>
<path fill="none" stroke="midnightblue" d="M271.03,-414.38C258.83,-387.75 236.16,-328.43 250,-280 252.9,-269.84 258.83,-259.75 264.49,-251.7"/>
<polygon fill="midnightblue" stroke="midnightblue" points="267.38,-253.69 270.59,-243.59 261.78,-249.48 267.38,-253.69"/>
</g>
<!-- Node23&#45;&gt;Node10 -->
<g id="edge39" class="edge">
<title>Node23&#45;&gt;Node10</title>
<path fill="none" stroke="midnightblue" d="M322.34,-414.42C389.72,-392.12 513.04,-347.46 541,-311 577.15,-263.86 562,-238.4 562,-179 562,-179 562,-179 562,-121 562,-86.81 578.6,-49.76 589.86,-28.57"/>
<polygon fill="midnightblue" stroke="midnightblue" points="592.95,-30.22 594.72,-19.77 586.82,-26.83 592.95,-30.22"/>
</g>
<!-- Node24 -->
<g id="node24" class="node">
<title>Node24</title>
<g id="a_node24"><a xlink:href="api_2thrmask_8h.html" target="_top" xlink:title="ODP thread masks.">
<polygon fill="white" stroke="black" points="272.5,-353 272.5,-372 377.5,-372 377.5,-353 272.5,-353"/>
<text text-anchor="middle" x="325" y="-360" font-family="Helvetica,sans-Serif" font-size="10.00">odp/api/thrmask.h</text>
</a>
</g>
</g>
<!-- Node23&#45;&gt;Node24 -->
<g id="edge33" class="edge">
<title>Node23&#45;&gt;Node24</title>
<path fill="none" stroke="midnightblue" d="M288.2,-414.4C295.38,-404.46 305.04,-391.11 312.66,-380.57"/>
<polygon fill="midnightblue" stroke="midnightblue" points="315.69,-382.35 318.71,-372.19 310.02,-378.25 315.69,-382.35"/>
</g>
<!-- Node25 -->
<g id="node25" class="node">
<title>Node25</title>
<g id="a_node25"><a xlink:title=" ">
<polygon fill="white" stroke="#bfbfbf" points="408.5,-286 408.5,-305 531.5,-305 531.5,-286 408.5,-286"/>
<text text-anchor="middle" x="470" y="-293" font-family="Helvetica,sans-Serif" font-size="10.00">odp/api/abi/thrmask.h</text>
</a>
</g>
</g>
<!-- Node24&#45;&gt;Node25 -->
<g id="edge34" class="edge">
<title>Node24&#45;&gt;Node25</title>
<path fill="none" stroke="midnightblue" d="M344.25,-352.87C369.17,-341.7 412.79,-322.15 441.53,-309.26"/>
<polygon fill="midnightblue" stroke="midnightblue" points="442.97,-312.45 450.67,-305.17 440.11,-306.06 442.97,-312.45"/>
</g>
<!-- Node26 -->
<g id="node26" class="node">
<title>Node26</title>
<g id="a_node26"><a xlink:href="api_2spec_2thrmask_8h.html" target="_top" xlink:title="ODP thread masks.">
<polygon fill="white" stroke="black" points="259.5,-286 259.5,-305 390.5,-305 390.5,-286 259.5,-286"/>
<text text-anchor="middle" x="325" y="-293" font-family="Helvetica,sans-Serif" font-size="10.00">odp/api/spec/thrmask.h</text>
</a>
</g>
</g>
<!-- Node24&#45;&gt;Node26 -->
<g id="edge35" class="edge">
<title>Node24&#45;&gt;Node26</title>
<path fill="none" stroke="midnightblue" d="M325,-352.73C325,-343.18 325,-327.62 325,-315.28"/>
<polygon fill="midnightblue" stroke="midnightblue" points="328.5,-315.13 325,-305.13 321.5,-315.13 328.5,-315.13"/>
</g>
<!-- Node26&#45;&gt;Node2 -->
<g id="edge36" class="edge">
<title>Node26&#45;&gt;Node2</title>
<path fill="none" stroke="midnightblue" d="M360.73,-285.92C408.16,-272.15 486,-240.23 486,-179 486,-179 486,-179 486,-121 486,-82.58 462.7,-74.45 429,-56 391.33,-35.38 278.98,-22.63 204.05,-16.18"/>
<polygon fill="midnightblue" stroke="midnightblue" points="203.99,-12.67 193.73,-15.31 203.4,-19.64 203.99,-12.67"/>
</g>
<!-- Node26&#45;&gt;Node3 -->
<g id="edge37" class="edge">
<title>Node26&#45;&gt;Node3</title>
<path fill="none" stroke="midnightblue" d="M318.27,-285.98C311.22,-277.05 299.97,-262.81 291.15,-251.64"/>
<polygon fill="midnightblue" stroke="midnightblue" points="293.67,-249.19 284.72,-243.51 288.17,-253.53 293.67,-249.19"/>
</g>
<!-- Node26&#45;&gt;Node10 -->
<g id="edge38" class="edge">
<title>Node26&#45;&gt;Node10</title>
<path fill="none" stroke="midnightblue" d="M372.27,-285.94C403.33,-278.61 443.68,-265.69 474,-244 503.64,-222.8 524,-215.45 524,-179 524,-179 524,-179 524,-121 524,-90.2 530.47,-81.32 548,-56 556.18,-44.19 568.15,-33.54 578.55,-25.57"/>
<polygon fill="midnightblue" stroke="midnightblue" points="580.79,-28.27 586.8,-19.54 576.66,-22.62 580.79,-28.27"/>
</g>
</g>
</svg>
