<?xml version="1.0" encoding="UTF-8" standalone="no"?>
<!DOCTYPE svg PUBLIC "-//W3C//DTD SVG 1.1//EN"
 "http://www.w3.org/Graphics/SVG/1.1/DTD/svg11.dtd">
<!-- Generated by graphviz version 2.43.0 (0)
 -->
<!-- Title: std_types.h Pages: 1 -->
<svg width="301pt" height="196pt"
 viewBox="0.00 0.00 300.59 196.00" xmlns="http://www.w3.org/2000/svg" xmlns:xlink="http://www.w3.org/1999/xlink">
<g id="graph0" class="graph" transform="scale(1 1) rotate(0) translate(4 192)">
<title>std_types.h</title>
<polygon fill="white" stroke="transparent" points="-4,4 -4,-192 296.59,-192 296.59,4 -4,4"/>
<!-- Node1 -->
<g id="node1" class="node">
<title>Node1</title>
<g id="a_node1"><a xlink:title="Common types and definitions for ODP API files.">
<polygon fill="#bfbfbf" stroke="black" points="79.09,-168.5 79.09,-187.5 152.09,-187.5 152.09,-168.5 79.09,-168.5"/>
<text text-anchor="middle" x="115.59" y="-175.5" font-family="Helvetica,sans-Serif" font-size="10.00">std_types.h</text>
</a>
</g>
</g>
<!-- Node2 -->
<g id="node2" class="node">
<title>Node2</title>
<g id="a_node2"><a xlink:href="visibility__begin_8h_source.html" target="_top" xlink:title=" ">
<polygon fill="white" stroke="black" points="3.09,-0.5 3.09,-19.5 124.09,-19.5 124.09,-0.5 3.09,-0.5"/>
<text text-anchor="middle" x="63.59" y="-7.5" font-family="Helvetica,sans-Serif" font-size="10.00">odp/visibility_begin.h</text>
</a>
</g>
</g>
<!-- Node1&#45;&gt;Node2 -->
<g id="edge1" class="edge">
<title>Node1&#45;&gt;Node2</title>
<path fill="none" stroke="midnightblue" d="M93.53,-168.39C76.21,-160.8 52.32,-148.4 35.59,-132 14.96,-111.78 10.19,-103.87 2.59,-76 0.25,-67.42 -1.42,-63.93 2.59,-56 9.39,-42.52 22.36,-32.08 34.59,-24.67"/>
<polygon fill="midnightblue" stroke="midnightblue" points="36.66,-27.52 43.68,-19.59 33.24,-21.41 36.66,-27.52"/>
</g>
<!-- Node3 -->
<g id="node3" class="node">
<title>Node3</title>
<g id="a_node3"><a xlink:title=" ">
<polygon fill="white" stroke="#bfbfbf" points="45.09,-112.5 45.09,-131.5 98.09,-131.5 98.09,-112.5 45.09,-112.5"/>
<text text-anchor="middle" x="71.59" y="-119.5" font-family="Helvetica,sans-Serif" font-size="10.00">stdint.h</text>
</a>
</g>
</g>
<!-- Node1&#45;&gt;Node3 -->
<g id="edge2" class="edge">
<title>Node1&#45;&gt;Node3</title>
<path fill="none" stroke="midnightblue" d="M108.32,-168.08C102.04,-160.38 92.8,-149.03 85.16,-139.65"/>
<polygon fill="midnightblue" stroke="midnightblue" points="87.75,-137.29 78.72,-131.75 82.32,-141.71 87.75,-137.29"/>
</g>
<!-- Node4 -->
<g id="node4" class="node">
<title>Node4</title>
<g id="a_node4"><a xlink:href="api_2align_8h.html" target="_top" xlink:title="ODP alignments.">
<polygon fill="white" stroke="black" points="116.09,-112.5 116.09,-131.5 205.09,-131.5 205.09,-112.5 116.09,-112.5"/>
<text text-anchor="middle" x="160.59" y="-119.5" font-family="Helvetica,sans-Serif" font-size="10.00">odp/api/align.h</text>
</a>
</g>
</g>
<!-- Node1&#45;&gt;Node4 -->
<g id="edge3" class="edge">
<title>Node1&#45;&gt;Node4</title>
<path fill="none" stroke="midnightblue" d="M123.02,-168.08C129.44,-160.38 138.89,-149.03 146.71,-139.65"/>
<polygon fill="midnightblue" stroke="midnightblue" points="149.58,-141.67 153.3,-131.75 144.2,-137.19 149.58,-141.67"/>
</g>
<!-- Node7 -->
<g id="node7" class="node">
<title>Node7</title>
<g id="a_node7"><a xlink:href="visibility__end_8h_source.html" target="_top" xlink:title=" ">
<polygon fill="white" stroke="black" points="180.59,-0.5 180.59,-19.5 292.59,-19.5 292.59,-0.5 180.59,-0.5"/>
<text text-anchor="middle" x="236.59" y="-7.5" font-family="Helvetica,sans-Serif" font-size="10.00">odp/visibility_end.h</text>
</a>
</g>
</g>
<!-- Node1&#45;&gt;Node7 -->
<g id="edge8" class="edge">
<title>Node1&#45;&gt;Node7</title>
<path fill="none" stroke="midnightblue" d="M143.89,-168.47C180.68,-155.51 242.39,-126.83 260.59,-76 266.4,-59.78 258.19,-41.36 249.84,-28.28"/>
<polygon fill="midnightblue" stroke="midnightblue" points="252.52,-26.01 243.92,-19.81 246.78,-30.01 252.52,-26.01"/>
</g>
<!-- Node5 -->
<g id="node5" class="node">
<title>Node5</title>
<g id="a_node5"><a xlink:title=" ">
<polygon fill="white" stroke="#bfbfbf" points="12.09,-56.5 12.09,-75.5 119.09,-75.5 119.09,-56.5 12.09,-56.5"/>
<text text-anchor="middle" x="65.59" y="-63.5" font-family="Helvetica,sans-Serif" font-size="10.00">odp/api/abi/align.h</text>
</a>
</g>
</g>
<!-- Node4&#45;&gt;Node5 -->
<g id="edge4" class="edge">
<title>Node4&#45;&gt;Node5</title>
<path fill="none" stroke="midnightblue" d="M145.32,-112.32C130.37,-103.82 107.33,-90.73 89.86,-80.8"/>
<polygon fill="midnightblue" stroke="midnightblue" points="91.24,-77.55 80.81,-75.65 87.78,-83.64 91.24,-77.55"/>
</g>
<!-- Node6 -->
<g id="node6" class="node">
<title>Node6</title>
<g id="a_node6"><a xlink:href="api_2spec_2align_8h.html" target="_top" xlink:title="ODP alignments.">
<polygon fill="white" stroke="black" points="137.59,-56.5 137.59,-75.5 251.59,-75.5 251.59,-56.5 137.59,-56.5"/>
<text text-anchor="middle" x="194.59" y="-63.5" font-family="Helvetica,sans-Serif" font-size="10.00">odp/api/spec/align.h</text>
</a>
</g>
</g>
<!-- Node4&#45;&gt;Node6 -->
<g id="edge5" class="edge">
<title>Node4&#45;&gt;Node6</title>
<path fill="none" stroke="midnightblue" d="M166.2,-112.08C170.96,-104.53 177.91,-93.49 183.74,-84.23"/>
<polygon fill="midnightblue" stroke="midnightblue" points="186.71,-86.08 189.08,-75.75 180.79,-82.35 186.71,-86.08"/>
</g>
<!-- Node6&#45;&gt;Node2 -->
<g id="edge6" class="edge">
<title>Node6&#45;&gt;Node2</title>
<path fill="none" stroke="midnightblue" d="M173.83,-56.44C152.27,-47.56 118.32,-33.56 93.79,-23.45"/>
<polygon fill="midnightblue" stroke="midnightblue" points="94.83,-20.09 84.25,-19.52 92.16,-26.56 94.83,-20.09"/>
</g>
<!-- Node6&#45;&gt;Node7 -->
<g id="edge7" class="edge">
<title>Node6&#45;&gt;Node7</title>
<path fill="none" stroke="midnightblue" d="M201.52,-56.08C207.52,-48.38 216.34,-37.03 223.64,-27.65"/>
<polygon fill="midnightblue" stroke="midnightblue" points="226.4,-29.79 229.78,-19.75 220.88,-25.5 226.4,-29.79"/>
</g>
</g>
</svg>
