<?xml version="1.0" encoding="UTF-8" standalone="no"?>
<!DOCTYPE svg PUBLIC "-//W3C//DTD SVG 1.1//EN"
 "http://www.w3.org/Graphics/SVG/1.1/DTD/svg11.dtd">
<!-- Generated by graphviz version 2.40.1 (20161225.0304)
 -->
<!-- Title: packet_types.h Pages: 1 -->
<svg width="648pt" height="924pt"
 viewBox="0.00 0.00 647.50 924.00" xmlns="http://www.w3.org/2000/svg" xmlns:xlink="http://www.w3.org/1999/xlink">
<g id="graph0" class="graph" transform="scale(1 1) rotate(0) translate(4 920)">
<title>packet_types.h</title>
<polygon fill="#ffffff" stroke="transparent" points="-4,4 -4,-920 643.5,-920 643.5,4 -4,4"/>
<!-- Node15 -->
<g id="node1" class="node">
<title>Node15</title>
<polygon fill="#bfbfbf" stroke="#000000" points="158.5,-896.5 158.5,-915.5 249.5,-915.5 249.5,-896.5 158.5,-896.5"/>
<text text-anchor="middle" x="204" y="-903.5" font-family="Helvetica,sans-Serif" font-size="10.00" fill="#000000">packet_types.h</text>
</g>
<!-- Node16 -->
<g id="node2" class="node">
<title>Node16</title>
<g id="a_node2"><a xlink:href="api_2spec_2packet_8h.html" target="_top" xlink:title="ODP packet descriptor. ">
<polygon fill="#ffffff" stroke="#000000" points="174.5,-840.5 174.5,-859.5 233.5,-859.5 233.5,-840.5 174.5,-840.5"/>
<text text-anchor="middle" x="204" y="-847.5" font-family="Helvetica,sans-Serif" font-size="10.00" fill="#000000">packet.h</text>
</a>
</g>
</g>
<!-- Node15&#45;&gt;Node16 -->
<g id="edge1" class="edge">
<title>Node15&#45;&gt;Node16</title>
<path fill="none" stroke="#191970" d="M204,-886.1575C204,-877.155 204,-866.9199 204,-859.6427"/>
<polygon fill="#191970" stroke="#191970" points="200.5001,-886.2455 204,-896.2455 207.5001,-886.2456 200.5001,-886.2455"/>
</g>
<!-- Node17 -->
<g id="node3" class="node">
<title>Node17</title>
<g id="a_node3"><a xlink:href="api_2packet_8h.html" target="_top" xlink:title="ODP packet descriptor. ">
<polygon fill="#ffffff" stroke="#000000" points="174.5,-784.5 174.5,-803.5 233.5,-803.5 233.5,-784.5 174.5,-784.5"/>
<text text-anchor="middle" x="204" y="-791.5" font-family="Helvetica,sans-Serif" font-size="10.00" fill="#000000">packet.h</text>
</a>
</g>
</g>
<!-- Node16&#45;&gt;Node17 -->
<g id="edge2" class="edge">
<title>Node16&#45;&gt;Node17</title>
<path fill="none" stroke="#191970" d="M204,-830.1575C204,-821.155 204,-810.9199 204,-803.6427"/>
<polygon fill="#191970" stroke="#191970" points="200.5001,-830.2455 204,-840.2455 207.5001,-830.2456 200.5001,-830.2455"/>
</g>
<!-- Node18 -->
<g id="node4" class="node">
<title>Node18</title>
<g id="a_node4"><a xlink:href="api_2spec_2comp_8h.html" target="_top" xlink:title="ODP Compression. ">
<polygon fill="#ffffff" stroke="#000000" points="53.5,-728.5 53.5,-747.5 106.5,-747.5 106.5,-728.5 53.5,-728.5"/>
<text text-anchor="middle" x="80" y="-735.5" font-family="Helvetica,sans-Serif" font-size="10.00" fill="#000000">comp.h</text>
</a>
</g>
</g>
<!-- Node17&#45;&gt;Node18 -->
<g id="edge3" class="edge">
<title>Node17&#45;&gt;Node18</title>
<path fill="none" stroke="#191970" d="M173.5476,-780.2473C151.0278,-770.0771 120.9383,-756.4883 101.0382,-747.5011"/>
<polygon fill="#191970" stroke="#191970" points="172.1294,-783.4471 182.6836,-784.3733 175.0105,-777.0675 172.1294,-783.4471"/>
</g>
<!-- Node20 -->
<g id="node6" class="node">
<title>Node20</title>
<g id="a_node6"><a xlink:href="odp__api_8h.html" target="_top" xlink:title="The OpenDataPlane API. ">
<polygon fill="#ffffff" stroke="#000000" points="293,-56.5 293,-75.5 357,-75.5 357,-56.5 293,-56.5"/>
<text text-anchor="middle" x="325" y="-63.5" font-family="Helvetica,sans-Serif" font-size="10.00" fill="#000000">odp_api.h</text>
</a>
</g>
</g>
<!-- Node17&#45;&gt;Node20 -->
<g id="edge40" class="edge">
<title>Node17&#45;&gt;Node20</title>
<path fill="none" stroke="#191970" d="M164.1664,-789.9761C104.7958,-781.5341 0,-756.1333 0,-682 0,-682 0,-682 0,-178 0,-130.87 40.1569,-131.6393 83,-112 153.3659,-79.7441 245.2042,-70.105 292.9761,-67.2256"/>
<polygon fill="#191970" stroke="#191970" points="163.9643,-793.4797 174.3366,-791.3202 164.8814,-786.5401 163.9643,-793.4797"/>
</g>
<!-- Node22 -->
<g id="node8" class="node">
<title>Node22</title>
<g id="a_node8"><a xlink:href="api_2spec_2crypto_8h.html" target="_top" xlink:title="ODP crypto. ">
<polygon fill="#ffffff" stroke="#000000" points="133,-560.5 133,-579.5 189,-579.5 189,-560.5 133,-560.5"/>
<text text-anchor="middle" x="161" y="-567.5" font-family="Helvetica,sans-Serif" font-size="10.00" fill="#000000">crypto.h</text>
</a>
</g>
</g>
<!-- Node17&#45;&gt;Node22 -->
<g id="edge7" class="edge">
<title>Node17&#45;&gt;Node22</title>
<path fill="none" stroke="#191970" d="M200.2398,-774.4119C191.3603,-728.1557 169.3493,-613.494 162.8408,-579.5891"/>
<polygon fill="#191970" stroke="#191970" points="196.8298,-775.2142 202.1523,-784.375 203.7043,-773.8945 196.8298,-775.2142"/>
</g>
<!-- Node26 -->
<g id="node12" class="node">
<title>Node26</title>
<g id="a_node12"><a xlink:href="api_2spec_2event_8h.html" target="_top" xlink:title="ODP event. ">
<polygon fill="#ffffff" stroke="#000000" points="302.5,-728.5 302.5,-747.5 355.5,-747.5 355.5,-728.5 302.5,-728.5"/>
<text text-anchor="middle" x="329" y="-735.5" font-family="Helvetica,sans-Serif" font-size="10.00" fill="#000000">event.h</text>
</a>
</g>
</g>
<!-- Node17&#45;&gt;Node26 -->
<g id="edge13" class="edge">
<title>Node17&#45;&gt;Node26</title>
<path fill="none" stroke="#191970" d="M234.698,-780.2473C257.3993,-770.0771 287.7315,-756.4883 307.7921,-747.5011"/>
<polygon fill="#191970" stroke="#191970" points="233.1833,-777.0906 225.4883,-784.3733 236.0453,-783.4789 233.1833,-777.0906"/>
</g>
<!-- Node32 -->
<g id="node18" class="node">
<title>Node32</title>
<g id="a_node18"><a xlink:href="api_2spec_2packet__io_8h.html" target="_top" xlink:title="ODP Packet IO. ">
<polygon fill="#ffffff" stroke="#000000" points="245.5,-392.5 245.5,-411.5 318.5,-411.5 318.5,-392.5 245.5,-392.5"/>
<text text-anchor="middle" x="282" y="-399.5" font-family="Helvetica,sans-Serif" font-size="10.00" fill="#000000">packet_io.h</text>
</a>
</g>
</g>
<!-- Node17&#45;&gt;Node32 -->
<g id="edge39" class="edge">
<title>Node17&#45;&gt;Node32</title>
<path fill="none" stroke="#191970" d="M211.8415,-774.8271C220.1246,-752.8089 232,-715.4152 232,-682 232,-682 232,-682 232,-514 232,-483.4754 238.0909,-475.6606 251,-448 257.272,-434.5608 267.2162,-420.6443 274.1448,-411.6881"/>
<polygon fill="#191970" stroke="#191970" points="208.5132,-773.7281 208.1315,-784.3161 215.0326,-776.2771 208.5132,-773.7281"/>
</g>
<!-- Node40 -->
<g id="node26" class="node">
<title>Node40</title>
<g id="a_node26"><a xlink:href="api_2spec_2packet__flags_8h.html" target="_top" xlink:title="ODP packet flags. ">
<polygon fill="#ffffff" stroke="#000000" points="503.5,-672.5 503.5,-691.5 590.5,-691.5 590.5,-672.5 503.5,-672.5"/>
<text text-anchor="middle" x="547" y="-679.5" font-family="Helvetica,sans-Serif" font-size="10.00" fill="#000000">packet_flags.h</text>
</a>
</g>
</g>
<!-- Node17&#45;&gt;Node40 -->
<g id="edge36" class="edge">
<title>Node17&#45;&gt;Node40</title>
<path fill="none" stroke="#191970" d="M243.683,-783.3776C276.1948,-774.4866 323.3068,-761.1718 364,-748 421.0353,-729.5385 486.9554,-704.9486 522.0201,-691.604"/>
<polygon fill="#191970" stroke="#191970" points="242.3971,-780.1002 233.6669,-786.103 244.235,-786.8546 242.3971,-780.1002"/>
</g>
<!-- Node19 -->
<g id="node5" class="node">
<title>Node19</title>
<g id="a_node5"><a xlink:href="api_2comp_8h.html" target="_top" xlink:title="ODP crypto. ">
<polygon fill="#ffffff" stroke="#000000" points="28.5,-504.5 28.5,-523.5 81.5,-523.5 81.5,-504.5 28.5,-504.5"/>
<text text-anchor="middle" x="55" y="-511.5" font-family="Helvetica,sans-Serif" font-size="10.00" fill="#000000">comp.h</text>
</a>
</g>
</g>
<!-- Node18&#45;&gt;Node19 -->
<g id="edge4" class="edge">
<title>Node18&#45;&gt;Node19</title>
<path fill="none" stroke="#191970" d="M77.8138,-718.4119C72.6513,-672.1557 59.8542,-557.494 56.0702,-523.5891"/>
<polygon fill="#191970" stroke="#191970" points="74.3381,-718.8249 78.9258,-728.375 81.2949,-718.0485 74.3381,-718.8249"/>
</g>
<!-- Node19&#45;&gt;Node20 -->
<g id="edge5" class="edge">
<title>Node19&#45;&gt;Node20</title>
<path fill="none" stroke="#191970" d="M50.248,-494.6376C45.2185,-472.416 38,-434.808 38,-402 38,-402 38,-402 38,-178 38,-123.7785 218.0212,-85.1908 292.9129,-71.4838"/>
<polygon fill="#191970" stroke="#191970" points="46.8676,-495.5526 52.5643,-504.4856 53.6816,-493.9498 46.8676,-495.5526"/>
</g>
<!-- Node21 -->
<g id="node7" class="node">
<title>Node21</title>
<g id="a_node7"><a xlink:href="odp_8h.html" target="_top" xlink:title="WARNING: THIS FILE IS DEPRECATED AND WILL BE REMOVED!!! ODP APPLICATIONS SHOULD NOW INCLUDE odp_api...">
<polygon fill="#ffffff" stroke="#000000" points="303,-.5 303,-19.5 347,-19.5 347,-.5 303,-.5"/>
<text text-anchor="middle" x="325" y="-7.5" font-family="Helvetica,sans-Serif" font-size="10.00" fill="#000000">odp.h</text>
</a>
</g>
</g>
<!-- Node20&#45;&gt;Node21 -->
<g id="edge6" class="edge">
<title>Node20&#45;&gt;Node21</title>
<path fill="none" stroke="#191970" d="M325,-46.1575C325,-37.155 325,-26.9199 325,-19.6427"/>
<polygon fill="#191970" stroke="#191970" points="321.5001,-46.2455 325,-56.2455 328.5001,-46.2456 321.5001,-46.2455"/>
</g>
<!-- Node23 -->
<g id="node9" class="node">
<title>Node23</title>
<g id="a_node9"><a xlink:href="api_2crypto_8h.html" target="_top" xlink:title="ODP crypto. ">
<polygon fill="#ffffff" stroke="#000000" points="66,-224.5 66,-243.5 122,-243.5 122,-224.5 66,-224.5"/>
<text text-anchor="middle" x="94" y="-231.5" font-family="Helvetica,sans-Serif" font-size="10.00" fill="#000000">crypto.h</text>
</a>
</g>
</g>
<!-- Node22&#45;&gt;Node23 -->
<g id="edge8" class="edge">
<title>Node22&#45;&gt;Node23</title>
<path fill="none" stroke="#191970" d="M147.3693,-552.1231C132.5643,-530.8825 111,-493.7999 111,-458 111,-458 111,-458 111,-346 111,-307.649 101.1363,-262.7392 96.4357,-243.5144"/>
<polygon fill="#191970" stroke="#191970" points="144.7051,-554.4114 153.4061,-560.4565 150.3739,-550.3048 144.7051,-554.4114"/>
</g>
<!-- Node23&#45;&gt;Node20 -->
<g id="edge12" class="edge">
<title>Node23&#45;&gt;Node20</title>
<path fill="none" stroke="#191970" d="M106.8581,-216.2312C126.4868,-190.2109 166.2811,-141.6253 210,-112 235.6337,-94.6298 268.8162,-82.2464 292.9445,-74.7357"/>
<polygon fill="#191970" stroke="#191970" points="103.9269,-214.3082 100.7828,-224.4258 109.5501,-218.4771 103.9269,-214.3082"/>
</g>
<!-- Node24 -->
<g id="node10" class="node">
<title>Node24</title>
<g id="a_node10"><a xlink:href="api_2spec_2ipsec_8h.html" target="_top" xlink:title="ODP IPSEC API. ">
<polygon fill="#ffffff" stroke="#000000" points="226.5,-168.5 226.5,-187.5 277.5,-187.5 277.5,-168.5 226.5,-168.5"/>
<text text-anchor="middle" x="252" y="-175.5" font-family="Helvetica,sans-Serif" font-size="10.00" fill="#000000">ipsec.h</text>
</a>
</g>
</g>
<!-- Node23&#45;&gt;Node24 -->
<g id="edge9" class="edge">
<title>Node23&#45;&gt;Node24</title>
<path fill="none" stroke="#191970" d="M130.6664,-221.0043C160.0578,-210.5871 200.5441,-196.2375 226.4987,-187.0384"/>
<polygon fill="#191970" stroke="#191970" points="129.4174,-217.7336 121.1612,-224.3733 131.7559,-224.3314 129.4174,-217.7336"/>
</g>
<!-- Node25 -->
<g id="node11" class="node">
<title>Node25</title>
<g id="a_node11"><a xlink:href="api_2ipsec_8h.html" target="_top" xlink:title="ODP IPSEC API &#45; platform specific header. ">
<polygon fill="#ffffff" stroke="#000000" points="236.5,-112.5 236.5,-131.5 287.5,-131.5 287.5,-112.5 236.5,-112.5"/>
<text text-anchor="middle" x="262" y="-119.5" font-family="Helvetica,sans-Serif" font-size="10.00" fill="#000000">ipsec.h</text>
</a>
</g>
</g>
<!-- Node24&#45;&gt;Node25 -->
<g id="edge10" class="edge">
<title>Node24&#45;&gt;Node25</title>
<path fill="none" stroke="#191970" d="M255.5433,-158.1575C257.1509,-149.155 258.9786,-138.9199 260.2781,-131.6427"/>
<polygon fill="#191970" stroke="#191970" points="252.0544,-157.786 253.7419,-168.2455 258.9454,-159.0166 252.0544,-157.786"/>
</g>
<!-- Node25&#45;&gt;Node20 -->
<g id="edge11" class="edge">
<title>Node25&#45;&gt;Node20</title>
<path fill="none" stroke="#191970" d="M280.7192,-105.3607C291.6182,-95.6727 304.9755,-83.7995 314.152,-75.6427"/>
<polygon fill="#191970" stroke="#191970" points="278.1226,-102.9859 272.9738,-112.2455 282.7732,-108.2178 278.1226,-102.9859"/>
</g>
<!-- Node27 -->
<g id="node13" class="node">
<title>Node27</title>
<g id="a_node13"><a xlink:href="api_2event_8h.html" target="_top" xlink:title="ODP event. ">
<polygon fill="#ffffff" stroke="#000000" points="385.5,-672.5 385.5,-691.5 438.5,-691.5 438.5,-672.5 385.5,-672.5"/>
<text text-anchor="middle" x="412" y="-679.5" font-family="Helvetica,sans-Serif" font-size="10.00" fill="#000000">event.h</text>
</a>
</g>
</g>
<!-- Node26&#45;&gt;Node27 -->
<g id="edge14" class="edge">
<title>Node26&#45;&gt;Node27</title>
<path fill="none" stroke="#191970" d="M351.988,-722.49C366.6322,-712.6096 385.1444,-700.1194 397.7082,-691.6427"/>
<polygon fill="#191970" stroke="#191970" points="349.7896,-719.7511 343.4575,-728.2455 353.7047,-725.5539 349.7896,-719.7511"/>
</g>
<!-- Node27&#45;&gt;Node20 -->
<g id="edge35" class="edge">
<title>Node27&#45;&gt;Node20</title>
<path fill="none" stroke="#191970" d="M448.0532,-672.0396C467.4735,-664.9451 490.3799,-653.5034 505,-636 524.5681,-612.5726 524,-600.5246 524,-570 524,-570 524,-570 524,-178 524,-102.4771 413.8047,-77.334 357.4157,-69.4119"/>
<polygon fill="#191970" stroke="#191970" points="446.9026,-668.7339 438.5652,-675.2714 449.1597,-675.3601 446.9026,-668.7339"/>
</g>
<!-- Node28 -->
<g id="node14" class="node">
<title>Node28</title>
<g id="a_node14"><a xlink:href="api_2spec_2queue_8h.html" target="_top" xlink:title="ODP queue. ">
<polygon fill="#ffffff" stroke="#000000" points="352,-616.5 352,-635.5 408,-635.5 408,-616.5 352,-616.5"/>
<text text-anchor="middle" x="380" y="-623.5" font-family="Helvetica,sans-Serif" font-size="10.00" fill="#000000">queue.h</text>
</a>
</g>
</g>
<!-- Node27&#45;&gt;Node28 -->
<g id="edge15" class="edge">
<title>Node27&#45;&gt;Node28</title>
<path fill="none" stroke="#191970" d="M401.3355,-663.3372C396.0346,-654.0605 389.8513,-643.2398 385.5101,-635.6427"/>
<polygon fill="#191970" stroke="#191970" points="398.4257,-665.2996 406.426,-672.2455 404.5034,-661.8266 398.4257,-665.2996"/>
</g>
<!-- Node38 -->
<g id="node24" class="node">
<title>Node38</title>
<g id="a_node24"><a xlink:href="api_2spec_2schedule_8h.html" target="_top" xlink:title="ODP schedule. ">
<polygon fill="#ffffff" stroke="#000000" points="426.5,-616.5 426.5,-635.5 495.5,-635.5 495.5,-616.5 426.5,-616.5"/>
<text text-anchor="middle" x="461" y="-623.5" font-family="Helvetica,sans-Serif" font-size="10.00" fill="#000000">schedule.h</text>
</a>
</g>
</g>
<!-- Node27&#45;&gt;Node38 -->
<g id="edge32" class="edge">
<title>Node27&#45;&gt;Node38</title>
<path fill="none" stroke="#191970" d="M427.3122,-664.5004C435.6447,-654.9775 445.6353,-643.5596 452.5627,-635.6427"/>
<polygon fill="#191970" stroke="#191970" points="424.4862,-662.415 420.5351,-672.2455 429.7543,-667.0245 424.4862,-662.415"/>
</g>
<!-- Node29 -->
<g id="node15" class="node">
<title>Node29</title>
<g id="a_node15"><a xlink:href="api_2queue_8h.html" target="_top" xlink:title="ODP queue. ">
<polygon fill="#ffffff" stroke="#000000" points="352,-560.5 352,-579.5 408,-579.5 408,-560.5 352,-560.5"/>
<text text-anchor="middle" x="380" y="-567.5" font-family="Helvetica,sans-Serif" font-size="10.00" fill="#000000">queue.h</text>
</a>
</g>
</g>
<!-- Node28&#45;&gt;Node29 -->
<g id="edge16" class="edge">
<title>Node28&#45;&gt;Node29</title>
<path fill="none" stroke="#191970" d="M380,-606.1575C380,-597.155 380,-586.9199 380,-579.6427"/>
<polygon fill="#191970" stroke="#191970" points="376.5001,-606.2455 380,-616.2455 383.5001,-606.2456 376.5001,-606.2455"/>
</g>
<!-- Node29&#45;&gt;Node20 -->
<g id="edge31" class="edge">
<title>Node29&#45;&gt;Node20</title>
<path fill="none" stroke="#191970" d="M385.5005,-550.7635C399.6125,-499.6538 436,-356.0362 436,-234 436,-234 436,-234 436,-178 436,-127.4911 378.3452,-91.6118 346.1395,-75.5099"/>
<polygon fill="#191970" stroke="#191970" points="382.1074,-549.9011 382.777,-560.4748 388.8473,-551.7913 382.1074,-549.9011"/>
</g>
<!-- Node30 -->
<g id="node16" class="node">
<title>Node30</title>
<g id="a_node16"><a xlink:href="spec_2packet__io__stats_8h.html" target="_top" xlink:title="ODP Packet IO statistics. ">
<polygon fill="#ffffff" stroke="#000000" points="260,-504.5 260,-523.5 362,-523.5 362,-504.5 260,-504.5"/>
<text text-anchor="middle" x="311" y="-511.5" font-family="Helvetica,sans-Serif" font-size="10.00" fill="#000000">packet_io_stats.h</text>
</a>
</g>
</g>
<!-- Node29&#45;&gt;Node30 -->
<g id="edge17" class="edge">
<title>Node29&#45;&gt;Node30</title>
<path fill="none" stroke="#191970" d="M360.197,-553.928C348.1364,-544.1397 333.1286,-531.9595 322.8812,-523.6427"/>
<polygon fill="#191970" stroke="#191970" points="358.0109,-556.6614 367.9811,-560.2455 362.4221,-551.2262 358.0109,-556.6614"/>
</g>
<!-- Node31 -->
<g id="node17" class="node">
<title>Node31</title>
<g id="a_node17"><a xlink:href="packet__io__stats_8h.html" target="_top" xlink:title="ODP packet IO stats. ">
<polygon fill="#ffffff" stroke="#000000" points="260,-448.5 260,-467.5 362,-467.5 362,-448.5 260,-448.5"/>
<text text-anchor="middle" x="311" y="-455.5" font-family="Helvetica,sans-Serif" font-size="10.00" fill="#000000">packet_io_stats.h</text>
</a>
</g>
</g>
<!-- Node30&#45;&gt;Node31 -->
<g id="edge18" class="edge">
<title>Node30&#45;&gt;Node31</title>
<path fill="none" stroke="#191970" d="M311,-494.1575C311,-485.155 311,-474.9199 311,-467.6427"/>
<polygon fill="#191970" stroke="#191970" points="307.5001,-494.2455 311,-504.2455 314.5001,-494.2456 307.5001,-494.2455"/>
</g>
<!-- Node31&#45;&gt;Node32 -->
<g id="edge19" class="edge">
<title>Node31&#45;&gt;Node32</title>
<path fill="none" stroke="#191970" d="M301.3353,-439.3372C296.5313,-430.0605 290.9277,-419.2398 286.9935,-411.6427"/>
<polygon fill="#191970" stroke="#191970" points="298.242,-440.9751 305.9486,-448.2455 304.458,-437.7561 298.242,-440.9751"/>
</g>
<!-- Node33 -->
<g id="node19" class="node">
<title>Node33</title>
<g id="a_node19"><a xlink:href="api_2packet__io_8h.html" target="_top" xlink:title="ODP Packet IO. ">
<polygon fill="#ffffff" stroke="#000000" points="245.5,-336.5 245.5,-355.5 318.5,-355.5 318.5,-336.5 245.5,-336.5"/>
<text text-anchor="middle" x="282" y="-343.5" font-family="Helvetica,sans-Serif" font-size="10.00" fill="#000000">packet_io.h</text>
</a>
</g>
</g>
<!-- Node32&#45;&gt;Node33 -->
<g id="edge20" class="edge">
<title>Node32&#45;&gt;Node33</title>
<path fill="none" stroke="#191970" d="M282,-382.1575C282,-373.155 282,-362.9199 282,-355.6427"/>
<polygon fill="#191970" stroke="#191970" points="278.5001,-382.2455 282,-392.2455 285.5001,-382.2456 278.5001,-382.2455"/>
</g>
<!-- Node33&#45;&gt;Node20 -->
<g id="edge30" class="edge">
<title>Node33&#45;&gt;Node20</title>
<path fill="none" stroke="#191970" d="M328.1268,-332.8424C345.8866,-325.7024 365.0033,-315.1485 378,-300 397.958,-276.7377 398,-264.6506 398,-234 398,-234 398,-234 398,-178 398,-133.9009 357.7885,-93.5671 337.0545,-75.7011"/>
<polygon fill="#191970" stroke="#191970" points="326.586,-329.6819 318.4474,-336.4653 329.0398,-336.2378 326.586,-329.6819"/>
</g>
<!-- Node33&#45;&gt;Node24 -->
<g id="edge25" class="edge">
<title>Node33&#45;&gt;Node24</title>
<path fill="none" stroke="#191970" d="M276.8993,-326.2078C274.9098,-318.1147 272.703,-308.6404 271,-300 262.7922,-258.3582 255.9149,-208.15 253.22,-187.5369"/>
<polygon fill="#191970" stroke="#191970" points="273.5742,-327.3367 279.4099,-336.1796 280.3624,-325.6276 273.5742,-327.3367"/>
</g>
<!-- Node34 -->
<g id="node20" class="node">
<title>Node34</title>
<g id="a_node20"><a xlink:href="api_2spec_2classification_8h.html" target="_top" xlink:title="ODP classification descriptor. ">
<polygon fill="#ffffff" stroke="#000000" points="280.5,-280.5 280.5,-299.5 369.5,-299.5 369.5,-280.5 280.5,-280.5"/>
<text text-anchor="middle" x="325" y="-287.5" font-family="Helvetica,sans-Serif" font-size="10.00" fill="#000000">classification.h</text>
</a>
</g>
</g>
<!-- Node33&#45;&gt;Node34 -->
<g id="edge21" class="edge">
<title>Node33&#45;&gt;Node34</title>
<path fill="none" stroke="#191970" d="M295.6592,-328.2112C302.9263,-318.7472 311.5781,-307.4797 317.5958,-299.6427"/>
<polygon fill="#191970" stroke="#191970" points="292.8043,-326.1824 289.49,-336.2455 298.3564,-330.4456 292.8043,-326.1824"/>
</g>
<!-- Node36 -->
<g id="node22" class="node">
<title>Node36</title>
<g id="a_node22"><a xlink:href="api_2spec_2traffic__mngr_8h.html" target="_top" xlink:title="traffic_mngr.h">
<polygon fill="#ffffff" stroke="#000000" points="140,-280.5 140,-299.5 224,-299.5 224,-280.5 140,-280.5"/>
<text text-anchor="middle" x="182" y="-287.5" font-family="Helvetica,sans-Serif" font-size="10.00" fill="#000000">traffic_mngr.h</text>
</a>
</g>
</g>
<!-- Node33&#45;&gt;Node36 -->
<g id="edge26" class="edge">
<title>Node33&#45;&gt;Node36</title>
<path fill="none" stroke="#191970" d="M255.7902,-331.3225C237.9283,-321.3198 214.7845,-308.3593 199.2191,-299.6427"/>
<polygon fill="#191970" stroke="#191970" points="254.1461,-334.4132 264.5813,-336.2455 257.5664,-328.3057 254.1461,-334.4132"/>
</g>
<!-- Node35 -->
<g id="node21" class="node">
<title>Node35</title>
<g id="a_node21"><a xlink:href="api_2classification_8h.html" target="_top" xlink:title="ODP classification descriptor. ">
<polygon fill="#ffffff" stroke="#000000" points="280.5,-224.5 280.5,-243.5 369.5,-243.5 369.5,-224.5 280.5,-224.5"/>
<text text-anchor="middle" x="325" y="-231.5" font-family="Helvetica,sans-Serif" font-size="10.00" fill="#000000">classification.h</text>
</a>
</g>
</g>
<!-- Node34&#45;&gt;Node35 -->
<g id="edge22" class="edge">
<title>Node34&#45;&gt;Node35</title>
<path fill="none" stroke="#191970" d="M325,-270.1575C325,-261.155 325,-250.9199 325,-243.6427"/>
<polygon fill="#191970" stroke="#191970" points="321.5001,-270.2455 325,-280.2455 328.5001,-270.2456 321.5001,-270.2455"/>
</g>
<!-- Node35&#45;&gt;Node20 -->
<g id="edge24" class="edge">
<title>Node35&#45;&gt;Node20</title>
<path fill="none" stroke="#191970" d="M325,-214.2601C325,-178.1669 325,-102.7656 325,-75.8279"/>
<polygon fill="#191970" stroke="#191970" points="321.5001,-214.4862 325,-224.4862 328.5001,-214.4863 321.5001,-214.4862"/>
</g>
<!-- Node35&#45;&gt;Node24 -->
<g id="edge23" class="edge">
<title>Node35&#45;&gt;Node24</title>
<path fill="none" stroke="#191970" d="M304.049,-217.928C291.2893,-208.1397 275.4115,-195.9595 264.5699,-187.6427"/>
<polygon fill="#191970" stroke="#191970" points="302.2197,-220.9359 312.2844,-224.2455 306.4804,-215.3819 302.2197,-220.9359"/>
</g>
<!-- Node37 -->
<g id="node23" class="node">
<title>Node37</title>
<g id="a_node23"><a xlink:href="api_2traffic__mngr_8h.html" target="_top" xlink:title="ODP Traffic manager. ">
<polygon fill="#ffffff" stroke="#000000" points="140,-224.5 140,-243.5 224,-243.5 224,-224.5 140,-224.5"/>
<text text-anchor="middle" x="182" y="-231.5" font-family="Helvetica,sans-Serif" font-size="10.00" fill="#000000">traffic_mngr.h</text>
</a>
</g>
</g>
<!-- Node36&#45;&gt;Node37 -->
<g id="edge27" class="edge">
<title>Node36&#45;&gt;Node37</title>
<path fill="none" stroke="#191970" d="M182,-270.1575C182,-261.155 182,-250.9199 182,-243.6427"/>
<polygon fill="#191970" stroke="#191970" points="178.5001,-270.2455 182,-280.2455 185.5001,-270.2456 178.5001,-270.2455"/>
</g>
<!-- Node37&#45;&gt;Node20 -->
<g id="edge29" class="edge">
<title>Node37&#45;&gt;Node20</title>
<path fill="none" stroke="#191970" d="M184.5681,-214.2618C188.9422,-187.9372 200.1369,-141.2637 227,-112 244.5398,-92.8928 271.6472,-81.0185 292.9102,-74.1314"/>
<polygon fill="#191970" stroke="#191970" points="181.0563,-214.083 183.0456,-224.4893 187.98,-215.1137 181.0563,-214.083"/>
</g>
<!-- Node37&#45;&gt;Node24 -->
<g id="edge28" class="edge">
<title>Node37&#45;&gt;Node24</title>
<path fill="none" stroke="#191970" d="M202.09,-217.928C214.3253,-208.1397 229.5507,-195.9595 239.9467,-187.6427"/>
<polygon fill="#191970" stroke="#191970" points="199.8153,-215.2655 194.1931,-224.2455 204.1882,-220.7316 199.8153,-215.2655"/>
</g>
<!-- Node39 -->
<g id="node25" class="node">
<title>Node39</title>
<g id="a_node25"><a xlink:href="api_2schedule_8h.html" target="_top" xlink:title="ODP schedule. ">
<polygon fill="#ffffff" stroke="#000000" points="426.5,-448.5 426.5,-467.5 495.5,-467.5 495.5,-448.5 426.5,-448.5"/>
<text text-anchor="middle" x="461" y="-455.5" font-family="Helvetica,sans-Serif" font-size="10.00" fill="#000000">schedule.h</text>
</a>
</g>
</g>
<!-- Node38&#45;&gt;Node39 -->
<g id="edge33" class="edge">
<title>Node38&#45;&gt;Node39</title>
<path fill="none" stroke="#191970" d="M461,-606.2601C461,-570.1669 461,-494.7656 461,-467.8279"/>
<polygon fill="#191970" stroke="#191970" points="457.5001,-606.4862 461,-616.4862 464.5001,-606.4863 457.5001,-606.4862"/>
</g>
<!-- Node39&#45;&gt;Node20 -->
<g id="edge34" class="edge">
<title>Node39&#45;&gt;Node20</title>
<path fill="none" stroke="#191970" d="M464.6339,-438.5816C468.48,-416.3089 474,-378.6543 474,-346 474,-346 474,-346 474,-178 474,-146.7875 472.0281,-134.113 450,-112 424.9491,-86.8525 384.9983,-75.3239 357.0224,-70.1235"/>
<polygon fill="#191970" stroke="#191970" points="461.1835,-437.9941 462.8626,-448.455 468.0735,-439.2302 461.1835,-437.9941"/>
</g>
<!-- Node41 -->
<g id="node27" class="node">
<title>Node41</title>
<g id="a_node27"><a xlink:href="api_2packet__flags_8h.html" target="_top" xlink:title="ODP packet flags. ">
<polygon fill="#ffffff" stroke="#000000" points="552.5,-392.5 552.5,-411.5 639.5,-411.5 639.5,-392.5 552.5,-392.5"/>
<text text-anchor="middle" x="596" y="-399.5" font-family="Helvetica,sans-Serif" font-size="10.00" fill="#000000">packet_flags.h</text>
</a>
</g>
</g>
<!-- Node40&#45;&gt;Node41 -->
<g id="edge37" class="edge">
<title>Node40&#45;&gt;Node41</title>
<path fill="none" stroke="#191970" d="M555.8328,-663.2343C565.3045,-641.357 579,-603.868 579,-570 579,-570 579,-570 579,-514 579,-475.649 588.8637,-430.7392 593.5643,-411.5144"/>
<polygon fill="#191970" stroke="#191970" points="552.6305,-661.8216 551.7217,-672.3774 559.0149,-664.6923 552.6305,-661.8216"/>
</g>
<!-- Node41&#45;&gt;Node20 -->
<g id="edge38" class="edge">
<title>Node41&#45;&gt;Node20</title>
<path fill="none" stroke="#191970" d="M591.248,-382.6376C586.2185,-360.416 579,-322.808 579,-290 579,-290 579,-290 579,-178 579,-143.4675 566.2289,-131.8903 538,-112 509.1616,-91.6803 409.2951,-76.5532 357.1962,-69.8373"/>
<polygon fill="#191970" stroke="#191970" points="587.8676,-383.5526 593.5643,-392.4856 594.6816,-381.9498 587.8676,-383.5526"/>
</g>
</g>
</svg>
