<?xml version="1.0" encoding="UTF-8" standalone="no"?>
<!DOCTYPE svg PUBLIC "-//W3C//DTD SVG 1.1//EN"
 "http://www.w3.org/Graphics/SVG/1.1/DTD/svg11.dtd">
<!-- Generated by graphviz version 2.43.0 (0)
 -->
<!-- Title: barrier.h Pages: 1 -->
<svg width="440pt" height="82pt"
 viewBox="0.00 0.00 440.00 82.00" xmlns="http://www.w3.org/2000/svg" xmlns:xlink="http://www.w3.org/1999/xlink">
<g id="graph0" class="graph" transform="scale(1 1) rotate(0) translate(4 78)">
<title>barrier.h</title>
<!-- Node1 -->
<g id="Node000001" class="node">
<title>Node1</title>
<g id="a_Node000001"><a xlink:title="ODP barrier.">
<polygon fill="#999999" stroke="#666666" points="244,-74 187,-74 187,-55 244,-55 244,-74"/>
<text text-anchor="middle" x="215.5" y="-62" font-family="Helvetica,sans-Serif" font-size="10.00">barrier.h</text>
</a>
</g>
</g>
<!-- Node2 -->
<g id="Node000002" class="node">
<title>Node2</title>
<g id="a_Node000002"><a xlink:href="arch_2arm32-linux_2odp_2api_2abi_2barrier_8h_source.html" target="_top" xlink:title=" ">
<polygon fill="white" stroke="#666666" points="57,-19 0,-19 0,0 57,0 57,-19"/>
<text text-anchor="middle" x="28.5" y="-7" font-family="Helvetica,sans-Serif" font-size="10.00">barrier.h</text>
</a>
</g>
</g>
<!-- Node1&#45;&gt;Node2 -->
<g id="edge1_Node000001_Node000002" class="edge">
<title>Node1&#45;&gt;Node2</title>
<g id="a_edge1_Node000001_Node000002"><a xlink:title=" ">
<path fill="none" stroke="#63b8ff" d="M176.64,-52.49C140.99,-42.38 89,-27.65 57.03,-18.59"/>
<polygon fill="#63b8ff" stroke="#63b8ff" points="176.12,-55.98 186.69,-55.33 178.02,-49.24 176.12,-55.98"/>
</a>
</g>
</g>
<!-- Node3 -->
<g id="Node000003" class="node">
<title>Node3</title>
<g id="a_Node000003"><a xlink:href="arch_2arm64-linux_2odp_2api_2abi_2barrier_8h_source.html" target="_top" xlink:title=" ">
<polygon fill="white" stroke="#666666" points="132,-19 75,-19 75,0 132,0 132,-19"/>
<text text-anchor="middle" x="103.5" y="-7" font-family="Helvetica,sans-Serif" font-size="10.00">barrier.h</text>
</a>
</g>
</g>
<!-- Node1&#45;&gt;Node3 -->
<g id="edge2_Node000001_Node000003" class="edge">
<title>Node1&#45;&gt;Node3</title>
<g id="a_edge2_Node000001_Node000003"><a xlink:title=" ">
<path fill="none" stroke="#63b8ff" d="M188.31,-50.63C167.68,-40.87 139.88,-27.71 121.82,-19.17"/>
<polygon fill="#63b8ff" stroke="#63b8ff" points="186.97,-53.87 197.51,-54.98 189.96,-47.54 186.97,-53.87"/>
</a>
</g>
</g>
<!-- Node4 -->
<g id="Node000004" class="node">
<title>Node4</title>
<g id="a_Node000004"><a xlink:href="arch_2default-linux_2odp_2api_2abi_2barrier_8h_source.html" target="_top" xlink:title=" ">
<polygon fill="white" stroke="#666666" points="207,-19 150,-19 150,0 207,0 207,-19"/>
<text text-anchor="middle" x="178.5" y="-7" font-family="Helvetica,sans-Serif" font-size="10.00">barrier.h</text>
</a>
</g>
</g>
<!-- Node1&#45;&gt;Node4 -->
<g id="edge3_Node000001_Node000004" class="edge">
<title>Node1&#45;&gt;Node4</title>
<g id="a_edge3_Node000001_Node000004"><a xlink:title=" ">
<path fill="none" stroke="#63b8ff" d="M203.55,-46.39C197.19,-37.27 189.63,-26.45 184.5,-19.09"/>
<polygon fill="#63b8ff" stroke="#63b8ff" points="200.8,-48.55 209.39,-54.75 206.54,-44.55 200.8,-48.55"/>
</a>
</g>
</g>
<!-- Node5 -->
<g id="Node000005" class="node">
<title>Node5</title>
<g id="a_Node000005"><a xlink:href="arch_2power64-linux_2odp_2api_2abi_2barrier_8h_source.html" target="_top" xlink:title=" ">
<polygon fill="white" stroke="#666666" points="282,-19 225,-19 225,0 282,0 282,-19"/>
<text text-anchor="middle" x="253.5" y="-7" font-family="Helvetica,sans-Serif" font-size="10.00">barrier.h</text>
</a>
</g>
</g>
<!-- Node1&#45;&gt;Node5 -->
<g id="edge4_Node000001_Node000005" class="edge">
<title>Node1&#45;&gt;Node5</title>
<g id="a_edge4_Node000001_Node000005"><a xlink:title=" ">
<path fill="none" stroke="#63b8ff" d="M227.77,-46.39C234.31,-37.27 242.07,-26.45 247.34,-19.09"/>
<polygon fill="#63b8ff" stroke="#63b8ff" points="224.76,-44.58 221.77,-54.75 230.45,-48.66 224.76,-44.58"/>
</a>
</g>
</g>
<!-- Node6 -->
<g id="Node000006" class="node">
<title>Node6</title>
<g id="a_Node000006"><a xlink:href="arch_2x86__32-linux_2odp_2api_2abi_2barrier_8h_source.html" target="_top" xlink:title=" ">
<polygon fill="white" stroke="#666666" points="357,-19 300,-19 300,0 357,0 357,-19"/>
<text text-anchor="middle" x="328.5" y="-7" font-family="Helvetica,sans-Serif" font-size="10.00">barrier.h</text>
</a>
</g>
</g>
<!-- Node1&#45;&gt;Node6 -->
<g id="edge5_Node000001_Node000006" class="edge">
<title>Node1&#45;&gt;Node6</title>
<g id="a_edge5_Node000001_Node000006"><a xlink:title=" ">
<path fill="none" stroke="#63b8ff" d="M242.93,-50.63C263.75,-40.87 291.8,-27.71 310.01,-19.17"/>
<polygon fill="#63b8ff" stroke="#63b8ff" points="241.22,-47.57 233.66,-54.98 244.2,-53.91 241.22,-47.57"/>
</a>
</g>
</g>
<!-- Node7 -->
<g id="Node000007" class="node">
<title>Node7</title>
<g id="a_Node000007"><a xlink:href="arch_2x86__64-linux_2odp_2api_2abi_2barrier_8h_source.html" target="_top" xlink:title=" ">
<polygon fill="white" stroke="#666666" points="432,-19 375,-19 375,0 432,0 432,-19"/>
<text text-anchor="middle" x="403.5" y="-7" font-family="Helvetica,sans-Serif" font-size="10.00">barrier.h</text>
</a>
</g>
</g>
<!-- Node1&#45;&gt;Node7 -->
<g id="edge6_Node000001_Node000007" class="edge">
<title>Node1&#45;&gt;Node7</title>
<g id="a_edge6_Node000001_Node000007"><a xlink:title=" ">
<path fill="none" stroke="#63b8ff" d="M253.7,-52.73C289.63,-42.6 342.61,-27.67 374.99,-18.54"/>
<polygon fill="#63b8ff" stroke="#63b8ff" points="252.73,-49.37 244.05,-55.45 254.63,-56.11 252.73,-49.37"/>
</a>
</g>
</g>
</g>
</svg>
