<?xml version="1.0" encoding="UTF-8" standalone="no"?>
<!DOCTYPE svg PUBLIC "-//W3C//DTD SVG 1.1//EN"
 "http://www.w3.org/Graphics/SVG/1.1/DTD/svg11.dtd">
<!-- Generated by graphviz version 2.40.1 (20161225.0304)
 -->
<!-- Title: thrmask.h Pages: 1 -->
<svg width="344pt" height="196pt"
 viewBox="0.00 0.00 343.50 196.00" xmlns="http://www.w3.org/2000/svg" xmlns:xlink="http://www.w3.org/1999/xlink">
<g id="graph0" class="graph" transform="scale(1 1) rotate(0) translate(4 192)">
<title>thrmask.h</title>
<polygon fill="#ffffff" stroke="transparent" points="-4,4 -4,-192 339.5,-192 339.5,4 -4,4"/>
<!-- Node0 -->
<g id="node1" class="node">
<title>Node0</title>
<polygon fill="#bfbfbf" stroke="#000000" points="104.5,-168.5 104.5,-187.5 170.5,-187.5 170.5,-168.5 104.5,-168.5"/>
<text text-anchor="middle" x="137.5" y="-175.5" font-family="Helvetica,sans-Serif" font-size="10.00" fill="#000000">thrmask.h</text>
</g>
<!-- Node1 -->
<g id="node2" class="node">
<title>Node1</title>
<g id="a_node2"><a xlink:href="api_2cpumask_8h.html" target="_top" xlink:title="ODP CPU masks and enumeration. ">
<polygon fill="#ffffff" stroke="#000000" points="83,-112.5 83,-131.5 192,-131.5 192,-112.5 83,-112.5"/>
<text text-anchor="middle" x="137.5" y="-119.5" font-family="Helvetica,sans-Serif" font-size="10.00" fill="#000000">odp/api/cpumask.h</text>
</a>
</g>
</g>
<!-- Node0&#45;&gt;Node1 -->
<g id="edge1" class="edge">
<title>Node0&#45;&gt;Node1</title>
<path fill="none" stroke="#191970" d="M137.5,-168.2455C137.5,-160.9382 137.5,-150.6944 137.5,-141.7046"/>
<polygon fill="#191970" stroke="#191970" points="141.0001,-141.6426 137.5,-131.6427 134.0001,-141.6427 141.0001,-141.6426"/>
</g>
<!-- Node2 -->
<g id="node3" class="node">
<title>Node2</title>
<polygon fill="#ffffff" stroke="#bfbfbf" points="0,-56.5 0,-75.5 127,-75.5 127,-56.5 0,-56.5"/>
<text text-anchor="middle" x="63.5" y="-63.5" font-family="Helvetica,sans-Serif" font-size="10.00" fill="#000000">odp/api/abi/cpumask.h</text>
</g>
<!-- Node1&#45;&gt;Node2 -->
<g id="edge2" class="edge">
<title>Node1&#45;&gt;Node2</title>
<path fill="none" stroke="#191970" d="M124.6102,-112.2455C113.5746,-103.8943 97.4708,-91.7076 84.5647,-81.9408"/>
<polygon fill="#191970" stroke="#191970" points="86.3283,-78.8862 76.2421,-75.6427 82.1041,-84.4681 86.3283,-78.8862"/>
</g>
<!-- Node3 -->
<g id="node4" class="node">
<title>Node3</title>
<g id="a_node4"><a xlink:href="api_2spec_2cpumask_8h.html" target="_top" xlink:title="ODP CPU masks and enumeration. ">
<polygon fill="#ffffff" stroke="#000000" points="145.5,-56.5 145.5,-75.5 279.5,-75.5 279.5,-56.5 145.5,-56.5"/>
<text text-anchor="middle" x="212.5" y="-63.5" font-family="Helvetica,sans-Serif" font-size="10.00" fill="#000000">odp/api/spec/cpumask.h</text>
</a>
</g>
</g>
<!-- Node1&#45;&gt;Node3 -->
<g id="edge3" class="edge">
<title>Node1&#45;&gt;Node3</title>
<path fill="none" stroke="#191970" d="M150.564,-112.2455C161.8562,-103.814 178.3845,-91.4729 191.5271,-81.6598"/>
<polygon fill="#191970" stroke="#191970" points="193.6669,-84.4301 199.5857,-75.6427 189.4789,-78.8211 193.6669,-84.4301"/>
</g>
<!-- Node4 -->
<g id="node5" class="node">
<title>Node4</title>
<g id="a_node5"><a xlink:href="visibility__begin_8h_source.html" target="_top" xlink:title="odp/visibility_begin.h">
<polygon fill="#ffffff" stroke="#000000" points="84,-.5 84,-19.5 205,-19.5 205,-.5 84,-.5"/>
<text text-anchor="middle" x="144.5" y="-7.5" font-family="Helvetica,sans-Serif" font-size="10.00" fill="#000000">odp/visibility_begin.h</text>
</a>
</g>
</g>
<!-- Node3&#45;&gt;Node4 -->
<g id="edge4" class="edge">
<title>Node3&#45;&gt;Node4</title>
<path fill="none" stroke="#191970" d="M200.6553,-56.2455C190.612,-47.9746 176.0005,-35.9416 164.1996,-26.2232"/>
<polygon fill="#191970" stroke="#191970" points="166.1533,-23.298 156.209,-19.6427 161.7033,-28.7015 166.1533,-23.298"/>
</g>
<!-- Node5 -->
<g id="node6" class="node">
<title>Node5</title>
<g id="a_node6"><a xlink:href="visibility__end_8h_source.html" target="_top" xlink:title="odp/visibility_end.h">
<polygon fill="#ffffff" stroke="#000000" points="223.5,-.5 223.5,-19.5 335.5,-19.5 335.5,-.5 223.5,-.5"/>
<text text-anchor="middle" x="279.5" y="-7.5" font-family="Helvetica,sans-Serif" font-size="10.00" fill="#000000">odp/visibility_end.h</text>
</a>
</g>
</g>
<!-- Node3&#45;&gt;Node5 -->
<g id="edge5" class="edge">
<title>Node3&#45;&gt;Node5</title>
<path fill="none" stroke="#191970" d="M224.1705,-56.2455C234.0661,-47.9746 248.4627,-35.9416 260.0901,-26.2232"/>
<polygon fill="#191970" stroke="#191970" points="262.535,-28.7413 267.9632,-19.6427 258.0458,-23.3703 262.535,-28.7413"/>
</g>
</g>
</svg>
