<?xml version="1.0" encoding="UTF-8" standalone="no"?>
<!DOCTYPE svg PUBLIC "-//W3C//DTD SVG 1.1//EN"
 "http://www.w3.org/Graphics/SVG/1.1/DTD/svg11.dtd">
<!-- Generated by graphviz version 2.40.1 (20161225.0304)
 -->
<!-- Title: atomic.h Pages: 1 -->
<svg width="1721pt" height="532pt"
 viewBox="0.00 0.00 1720.50 532.00" xmlns="http://www.w3.org/2000/svg" xmlns:xlink="http://www.w3.org/1999/xlink">
<g id="graph0" class="graph" transform="scale(1 1) rotate(0) translate(4 528)">
<title>atomic.h</title>
<polygon fill="#ffffff" stroke="transparent" points="-4,4 -4,-528 1716.5,-528 1716.5,4 -4,4"/>
<!-- Node3 -->
<g id="node1" class="node">
<title>Node3</title>
<polygon fill="#bfbfbf" stroke="#000000" points="544,-504.5 544,-523.5 603,-523.5 603,-504.5 544,-504.5"/>
<text text-anchor="middle" x="573.5" y="-511.5" font-family="Helvetica,sans-Serif" font-size="10.00" fill="#000000">atomic.h</text>
</g>
<!-- Node4 -->
<g id="node2" class="node">
<title>Node4</title>
<g id="a_node2"><a xlink:href="api_2atomic_8h.html" target="_top" xlink:title="ODP atomic operations. ">
<polygon fill="#ffffff" stroke="#000000" points="544,-448.5 544,-467.5 603,-467.5 603,-448.5 544,-448.5"/>
<text text-anchor="middle" x="573.5" y="-455.5" font-family="Helvetica,sans-Serif" font-size="10.00" fill="#000000">atomic.h</text>
</a>
</g>
</g>
<!-- Node3&#45;&gt;Node4 -->
<g id="edge1" class="edge">
<title>Node3&#45;&gt;Node4</title>
<path fill="none" stroke="#191970" d="M573.5,-494.1575C573.5,-485.155 573.5,-474.9199 573.5,-467.6427"/>
<polygon fill="#191970" stroke="#191970" points="570.0001,-494.2455 573.5,-504.2455 577.0001,-494.2456 570.0001,-494.2455"/>
</g>
<!-- Node5 -->
<g id="node3" class="node">
<title>Node5</title>
<g id="a_node3"><a xlink:href="api_2abi-default_2barrier_8h.html" target="_top" xlink:title="ODP barrier. ">
<polygon fill="#ffffff" stroke="#000000" points="263,-392.5 263,-411.5 320,-411.5 320,-392.5 263,-392.5"/>
<text text-anchor="middle" x="291.5" y="-399.5" font-family="Helvetica,sans-Serif" font-size="10.00" fill="#000000">barrier.h</text>
</a>
</g>
</g>
<!-- Node4&#45;&gt;Node5 -->
<g id="edge2" class="edge">
<title>Node4&#45;&gt;Node5</title>
<path fill="none" stroke="#191970" d="M534.0399,-450.1639C476.5517,-438.7478 371.1068,-417.8085 320.3281,-407.7247"/>
<polygon fill="#191970" stroke="#191970" points="533.3638,-453.598 543.8541,-452.1129 534.7273,-446.732 533.3638,-453.598"/>
</g>
<!-- Node13 -->
<g id="node11" class="node">
<title>Node13</title>
<g id="a_node11"><a xlink:href="api_2barrier_8h.html" target="_top" xlink:title="ODP execution barriers. ">
<polygon fill="#ffffff" stroke="#000000" points="488,-280.5 488,-299.5 545,-299.5 545,-280.5 488,-280.5"/>
<text text-anchor="middle" x="516.5" y="-287.5" font-family="Helvetica,sans-Serif" font-size="10.00" fill="#000000">barrier.h</text>
</a>
</g>
</g>
<!-- Node4&#45;&gt;Node13 -->
<g id="edge43" class="edge">
<title>Node4&#45;&gt;Node13</title>
<path fill="none" stroke="#191970" d="M566.9608,-438.7267C554.7784,-402.8207 529.0136,-326.8822 519.8345,-299.8279"/>
<polygon fill="#191970" stroke="#191970" points="563.7447,-440.141 570.2721,-448.4862 570.3735,-437.8919 563.7447,-440.141"/>
</g>
<!-- Node14 -->
<g id="node12" class="node">
<title>Node14</title>
<g id="a_node12"><a xlink:href="odp__api_8h.html" target="_top" xlink:title="The OpenDataPlane API. ">
<polygon fill="#ffffff" stroke="#000000" points="586.5,-56.5 586.5,-75.5 650.5,-75.5 650.5,-56.5 586.5,-56.5"/>
<text text-anchor="middle" x="618.5" y="-63.5" font-family="Helvetica,sans-Serif" font-size="10.00" fill="#000000">odp_api.h</text>
</a>
</g>
</g>
<!-- Node4&#45;&gt;Node14 -->
<g id="edge44" class="edge">
<title>Node4&#45;&gt;Node14</title>
<path fill="none" stroke="#191970" d="M573.5,-438.1952C573.5,-415.8128 573.5,-378.2884 573.5,-346 573.5,-346 573.5,-346 573.5,-178 573.5,-137.5564 599.0769,-94.4362 611.6655,-75.6623"/>
<polygon fill="#191970" stroke="#191970" points="570.0001,-438.4116 573.5,-448.4116 577.0001,-438.4117 570.0001,-438.4116"/>
</g>
<!-- Node16 -->
<g id="node14" class="node">
<title>Node16</title>
<g id="a_node14"><a xlink:href="api_2abi-default_2rwlock_8h.html" target="_top" xlink:title="ODP rwlock. ">
<polygon fill="#ffffff" stroke="#000000" points="791.5,-392.5 791.5,-411.5 849.5,-411.5 849.5,-392.5 791.5,-392.5"/>
<text text-anchor="middle" x="820.5" y="-399.5" font-family="Helvetica,sans-Serif" font-size="10.00" fill="#000000">rwlock.h</text>
</a>
</g>
</g>
<!-- Node4&#45;&gt;Node16 -->
<g id="edge13" class="edge">
<title>Node4&#45;&gt;Node16</title>
<path fill="none" stroke="#191970" d="M613.0634,-449.0301C662.8277,-437.7476 747.1077,-418.6396 791.3674,-408.605"/>
<polygon fill="#191970" stroke="#191970" points="612.2726,-445.6206 603.294,-451.2451 613.8204,-452.4473 612.2726,-445.6206"/>
</g>
<!-- Node34 -->
<g id="node32" class="node">
<title>Node34</title>
<g id="a_node32"><a xlink:href="api_2abi-default_2ticketlock_8h.html" target="_top" xlink:title="ODP ticketlock. ">
<polygon fill="#ffffff" stroke="#000000" points="1363.5,-392.5 1363.5,-411.5 1437.5,-411.5 1437.5,-392.5 1363.5,-392.5"/>
<text text-anchor="middle" x="1400.5" y="-399.5" font-family="Helvetica,sans-Serif" font-size="10.00" fill="#000000">ticketlock.h</text>
</a>
</g>
</g>
<!-- Node4&#45;&gt;Node34 -->
<g id="edge33" class="edge">
<title>Node4&#45;&gt;Node34</title>
<path fill="none" stroke="#191970" d="M613.7799,-455.2725C755.0724,-445.7049 1226.9605,-413.7512 1363.3103,-404.5183"/>
<polygon fill="#191970" stroke="#191970" points="613.1626,-451.8062 603.4219,-455.9738 613.6356,-458.7902 613.1626,-451.8062"/>
</g>
<!-- Node6 -->
<g id="node4" class="node">
<title>Node6</title>
<g id="a_node4"><a xlink:href="arch_2arm32-linux_2odp_2api_2abi_2barrier_8h_source.html" target="_top" xlink:title="barrier.h">
<polygon fill="#ffffff" stroke="#000000" points="0,-336.5 0,-355.5 57,-355.5 57,-336.5 0,-336.5"/>
<text text-anchor="middle" x="28.5" y="-343.5" font-family="Helvetica,sans-Serif" font-size="10.00" fill="#000000">barrier.h</text>
</a>
</g>
</g>
<!-- Node5&#45;&gt;Node6 -->
<g id="edge3" class="edge">
<title>Node5&#45;&gt;Node6</title>
<path fill="none" stroke="#191970" d="M252.8851,-394.9098C207.7606,-386.4467 130.9289,-371.4841 65.5,-356 62.7804,-355.3564 59.9573,-354.6548 57.1378,-353.9316"/>
<polygon fill="#191970" stroke="#191970" points="252.36,-398.3722 262.8324,-396.7664 253.6443,-391.491 252.36,-398.3722"/>
</g>
<!-- Node7 -->
<g id="node5" class="node">
<title>Node7</title>
<g id="a_node5"><a xlink:href="arch_2arm64-linux_2odp_2api_2abi_2barrier_8h_source.html" target="_top" xlink:title="barrier.h">
<polygon fill="#ffffff" stroke="#000000" points="75,-336.5 75,-355.5 132,-355.5 132,-336.5 75,-336.5"/>
<text text-anchor="middle" x="103.5" y="-343.5" font-family="Helvetica,sans-Serif" font-size="10.00" fill="#000000">barrier.h</text>
</a>
</g>
</g>
<!-- Node5&#45;&gt;Node7 -->
<g id="edge4" class="edge">
<title>Node5&#45;&gt;Node7</title>
<path fill="none" stroke="#191970" d="M253.2958,-390.62C217.3652,-379.9173 164.3891,-364.1372 132.0132,-354.4933"/>
<polygon fill="#191970" stroke="#191970" points="252.3638,-393.9943 262.9468,-393.4948 254.3622,-387.2856 252.3638,-393.9943"/>
</g>
<!-- Node8 -->
<g id="node6" class="node">
<title>Node8</title>
<g id="a_node6"><a xlink:href="arch_2default-linux_2odp_2api_2abi_2barrier_8h_source.html" target="_top" xlink:title="barrier.h">
<polygon fill="#ffffff" stroke="#000000" points="150,-336.5 150,-355.5 207,-355.5 207,-336.5 150,-336.5"/>
<text text-anchor="middle" x="178.5" y="-343.5" font-family="Helvetica,sans-Serif" font-size="10.00" fill="#000000">barrier.h</text>
</a>
</g>
</g>
<!-- Node5&#45;&gt;Node8 -->
<g id="edge5" class="edge">
<title>Node5&#45;&gt;Node8</title>
<path fill="none" stroke="#191970" d="M262.9208,-387.8368C242.4942,-377.7139 215.5638,-364.3679 197.6719,-355.5011"/>
<polygon fill="#191970" stroke="#191970" points="261.5604,-391.0688 272.0746,-392.3733 264.6687,-384.7968 261.5604,-391.0688"/>
</g>
<!-- Node9 -->
<g id="node7" class="node">
<title>Node9</title>
<g id="a_node7"><a xlink:href="arch_2mips64-linux_2odp_2api_2abi_2barrier_8h_source.html" target="_top" xlink:title="barrier.h">
<polygon fill="#ffffff" stroke="#000000" points="225,-336.5 225,-355.5 282,-355.5 282,-336.5 225,-336.5"/>
<text text-anchor="middle" x="253.5" y="-343.5" font-family="Helvetica,sans-Serif" font-size="10.00" fill="#000000">barrier.h</text>
</a>
</g>
</g>
<!-- Node5&#45;&gt;Node9 -->
<g id="edge6" class="edge">
<title>Node5&#45;&gt;Node9</title>
<path fill="none" stroke="#191970" d="M279.2321,-383.9209C272.8512,-374.5176 265.3069,-363.3997 260.0432,-355.6427"/>
<polygon fill="#191970" stroke="#191970" points="276.3697,-385.936 284.8809,-392.2455 282.162,-382.0055 276.3697,-385.936"/>
</g>
<!-- Node10 -->
<g id="node8" class="node">
<title>Node10</title>
<g id="a_node8"><a xlink:href="arch_2power64-linux_2odp_2api_2abi_2barrier_8h_source.html" target="_top" xlink:title="barrier.h">
<polygon fill="#ffffff" stroke="#000000" points="300,-336.5 300,-355.5 357,-355.5 357,-336.5 300,-336.5"/>
<text text-anchor="middle" x="328.5" y="-343.5" font-family="Helvetica,sans-Serif" font-size="10.00" fill="#000000">barrier.h</text>
</a>
</g>
</g>
<!-- Node5&#45;&gt;Node10 -->
<g id="edge7" class="edge">
<title>Node5&#45;&gt;Node10</title>
<path fill="none" stroke="#191970" d="M303.6376,-383.6296C309.8093,-374.2887 317.0566,-363.3197 322.1289,-355.6427"/>
<polygon fill="#191970" stroke="#191970" points="300.5373,-381.9728 297.9449,-392.2455 306.3777,-385.8316 300.5373,-381.9728"/>
</g>
<!-- Node11 -->
<g id="node9" class="node">
<title>Node11</title>
<g id="a_node9"><a xlink:href="arch_2x86__32-linux_2odp_2api_2abi_2barrier_8h_source.html" target="_top" xlink:title="barrier.h">
<polygon fill="#ffffff" stroke="#000000" points="375,-336.5 375,-355.5 432,-355.5 432,-336.5 375,-336.5"/>
<text text-anchor="middle" x="403.5" y="-343.5" font-family="Helvetica,sans-Serif" font-size="10.00" fill="#000000">barrier.h</text>
</a>
</g>
</g>
<!-- Node5&#45;&gt;Node11 -->
<g id="edge8" class="edge">
<title>Node5&#45;&gt;Node11</title>
<path fill="none" stroke="#191970" d="M319.8263,-387.8368C340.0721,-377.7139 366.7642,-364.3679 384.4978,-355.5011"/>
<polygon fill="#191970" stroke="#191970" points="318.1325,-384.7706 310.7535,-392.3733 321.263,-391.0316 318.1325,-384.7706"/>
</g>
<!-- Node12 -->
<g id="node10" class="node">
<title>Node12</title>
<g id="a_node10"><a xlink:href="arch_2x86__64-linux_2odp_2api_2abi_2barrier_8h_source.html" target="_top" xlink:title="barrier.h">
<polygon fill="#ffffff" stroke="#000000" points="450,-336.5 450,-355.5 507,-355.5 507,-336.5 450,-336.5"/>
<text text-anchor="middle" x="478.5" y="-343.5" font-family="Helvetica,sans-Serif" font-size="10.00" fill="#000000">barrier.h</text>
</a>
</g>
</g>
<!-- Node5&#45;&gt;Node12 -->
<g id="edge9" class="edge">
<title>Node5&#45;&gt;Node12</title>
<path fill="none" stroke="#191970" d="M329.8974,-390.5013C365.5649,-379.8201 417.8652,-364.158 449.9652,-354.5452"/>
<polygon fill="#191970" stroke="#191970" points="328.8845,-387.151 320.3089,-393.3727 330.8927,-393.8568 328.8845,-387.151"/>
</g>
<!-- Node12&#45;&gt;Node13 -->
<g id="edge10" class="edge">
<title>Node12&#45;&gt;Node13</title>
<path fill="none" stroke="#191970" d="M490.7679,-327.9209C497.1488,-318.5176 504.6931,-307.3997 509.9568,-299.6427"/>
<polygon fill="#191970" stroke="#191970" points="487.838,-326.0055 485.1191,-336.2455 493.6303,-329.936 487.838,-326.0055"/>
</g>
<!-- Node13&#45;&gt;Node14 -->
<g id="edge11" class="edge">
<title>Node13&#45;&gt;Node14</title>
<path fill="none" stroke="#191970" d="M517.1123,-269.9998C519.0436,-235.1985 526.9902,-162.4079 559.5,-112 569.7074,-96.1729 587.2799,-83.5174 600.5995,-75.5183"/>
<polygon fill="#191970" stroke="#191970" points="513.604,-270.1143 516.6612,-280.2584 520.5972,-270.4219 513.604,-270.1143"/>
</g>
<!-- Node15 -->
<g id="node13" class="node">
<title>Node15</title>
<g id="a_node13"><a xlink:href="odp_8h.html" target="_top" xlink:title="WARNING: THIS FILE IS DEPRECATED AND WILL BE REMOVED!!! ODP APPLICATIONS SHOULD NOW INCLUDE odp_api...">
<polygon fill="#ffffff" stroke="#000000" points="596.5,-.5 596.5,-19.5 640.5,-19.5 640.5,-.5 596.5,-.5"/>
<text text-anchor="middle" x="618.5" y="-7.5" font-family="Helvetica,sans-Serif" font-size="10.00" fill="#000000">odp.h</text>
</a>
</g>
</g>
<!-- Node14&#45;&gt;Node15 -->
<g id="edge12" class="edge">
<title>Node14&#45;&gt;Node15</title>
<path fill="none" stroke="#191970" d="M618.5,-46.1575C618.5,-37.155 618.5,-26.9199 618.5,-19.6427"/>
<polygon fill="#191970" stroke="#191970" points="615.0001,-46.2455 618.5,-56.2455 622.0001,-46.2456 615.0001,-46.2455"/>
</g>
<!-- Node17 -->
<g id="node15" class="node">
<title>Node17</title>
<g id="a_node15"><a xlink:href="arch_2arm32-linux_2odp_2api_2abi_2rwlock_8h_source.html" target="_top" xlink:title="rwlock.h">
<polygon fill="#ffffff" stroke="#000000" points="601.5,-336.5 601.5,-355.5 659.5,-355.5 659.5,-336.5 601.5,-336.5"/>
<text text-anchor="middle" x="630.5" y="-343.5" font-family="Helvetica,sans-Serif" font-size="10.00" fill="#000000">rwlock.h</text>
</a>
</g>
</g>
<!-- Node16&#45;&gt;Node17 -->
<g id="edge14" class="edge">
<title>Node16&#45;&gt;Node17</title>
<path fill="none" stroke="#191970" d="M781.5164,-390.5101C745.3911,-379.8626 692.4543,-364.2602 659.8044,-354.6371"/>
<polygon fill="#191970" stroke="#191970" points="780.6473,-393.9027 791.2289,-393.3727 782.6264,-387.1883 780.6473,-393.9027"/>
</g>
<!-- Node18 -->
<g id="node16" class="node">
<title>Node18</title>
<g id="a_node16"><a xlink:href="arch_2arm64-linux_2odp_2api_2abi_2rwlock_8h_source.html" target="_top" xlink:title="rwlock.h">
<polygon fill="#ffffff" stroke="#000000" points="677.5,-336.5 677.5,-355.5 735.5,-355.5 735.5,-336.5 677.5,-336.5"/>
<text text-anchor="middle" x="706.5" y="-343.5" font-family="Helvetica,sans-Serif" font-size="10.00" fill="#000000">rwlock.h</text>
</a>
</g>
</g>
<!-- Node16&#45;&gt;Node18 -->
<g id="edge15" class="edge">
<title>Node16&#45;&gt;Node18</title>
<path fill="none" stroke="#191970" d="M791.6679,-387.8368C771.0605,-377.7139 743.8918,-364.3679 725.8416,-355.5011"/>
<polygon fill="#191970" stroke="#191970" points="790.384,-391.1056 800.9027,-392.3733 793.4703,-384.8227 790.384,-391.1056"/>
</g>
<!-- Node19 -->
<g id="node17" class="node">
<title>Node19</title>
<g id="a_node17"><a xlink:href="arch_2default-linux_2odp_2api_2abi_2rwlock_8h_source.html" target="_top" xlink:title="rwlock.h">
<polygon fill="#ffffff" stroke="#000000" points="753.5,-336.5 753.5,-355.5 811.5,-355.5 811.5,-336.5 753.5,-336.5"/>
<text text-anchor="middle" x="782.5" y="-343.5" font-family="Helvetica,sans-Serif" font-size="10.00" fill="#000000">rwlock.h</text>
</a>
</g>
</g>
<!-- Node16&#45;&gt;Node19 -->
<g id="edge16" class="edge">
<title>Node16&#45;&gt;Node19</title>
<path fill="none" stroke="#191970" d="M808.2321,-383.9209C801.8512,-374.5176 794.3069,-363.3997 789.0432,-355.6427"/>
<polygon fill="#191970" stroke="#191970" points="805.3697,-385.936 813.8809,-392.2455 811.162,-382.0055 805.3697,-385.936"/>
</g>
<!-- Node20 -->
<g id="node18" class="node">
<title>Node20</title>
<g id="a_node18"><a xlink:href="arch_2mips64-linux_2odp_2api_2abi_2rwlock_8h_source.html" target="_top" xlink:title="rwlock.h">
<polygon fill="#ffffff" stroke="#000000" points="829.5,-336.5 829.5,-355.5 887.5,-355.5 887.5,-336.5 829.5,-336.5"/>
<text text-anchor="middle" x="858.5" y="-343.5" font-family="Helvetica,sans-Serif" font-size="10.00" fill="#000000">rwlock.h</text>
</a>
</g>
</g>
<!-- Node16&#45;&gt;Node20 -->
<g id="edge17" class="edge">
<title>Node16&#45;&gt;Node20</title>
<path fill="none" stroke="#191970" d="M832.7679,-383.9209C839.1488,-374.5176 846.6931,-363.3997 851.9568,-355.6427"/>
<polygon fill="#191970" stroke="#191970" points="829.838,-382.0055 827.1191,-392.2455 835.6303,-385.936 829.838,-382.0055"/>
</g>
<!-- Node21 -->
<g id="node19" class="node">
<title>Node21</title>
<g id="a_node19"><a xlink:href="arch_2power64-linux_2odp_2api_2abi_2rwlock_8h_source.html" target="_top" xlink:title="rwlock.h">
<polygon fill="#ffffff" stroke="#000000" points="905.5,-336.5 905.5,-355.5 963.5,-355.5 963.5,-336.5 905.5,-336.5"/>
<text text-anchor="middle" x="934.5" y="-343.5" font-family="Helvetica,sans-Serif" font-size="10.00" fill="#000000">rwlock.h</text>
</a>
</g>
</g>
<!-- Node16&#45;&gt;Node21 -->
<g id="edge18" class="edge">
<title>Node16&#45;&gt;Node21</title>
<path fill="none" stroke="#191970" d="M849.3321,-387.8368C869.9395,-377.7139 897.1082,-364.3679 915.1584,-355.5011"/>
<polygon fill="#191970" stroke="#191970" points="847.5297,-384.8227 840.0973,-392.3733 850.616,-391.1056 847.5297,-384.8227"/>
</g>
<!-- Node22 -->
<g id="node20" class="node">
<title>Node22</title>
<g id="a_node20"><a xlink:href="arch_2x86__32-linux_2odp_2api_2abi_2rwlock_8h_source.html" target="_top" xlink:title="rwlock.h">
<polygon fill="#ffffff" stroke="#000000" points="981.5,-336.5 981.5,-355.5 1039.5,-355.5 1039.5,-336.5 981.5,-336.5"/>
<text text-anchor="middle" x="1010.5" y="-343.5" font-family="Helvetica,sans-Serif" font-size="10.00" fill="#000000">rwlock.h</text>
</a>
</g>
</g>
<!-- Node16&#45;&gt;Node22 -->
<g id="edge19" class="edge">
<title>Node16&#45;&gt;Node22</title>
<path fill="none" stroke="#191970" d="M859.4836,-390.5101C895.6089,-379.8626 948.5457,-364.2602 981.1956,-354.6371"/>
<polygon fill="#191970" stroke="#191970" points="858.3736,-387.1883 849.7711,-393.3727 860.3527,-393.9027 858.3736,-387.1883"/>
</g>
<!-- Node23 -->
<g id="node21" class="node">
<title>Node23</title>
<g id="a_node21"><a xlink:href="arch_2x86__64-linux_2odp_2api_2abi_2rwlock_8h_source.html" target="_top" xlink:title="rwlock.h">
<polygon fill="#ffffff" stroke="#000000" points="1057.5,-336.5 1057.5,-355.5 1115.5,-355.5 1115.5,-336.5 1057.5,-336.5"/>
<text text-anchor="middle" x="1086.5" y="-343.5" font-family="Helvetica,sans-Serif" font-size="10.00" fill="#000000">rwlock.h</text>
</a>
</g>
</g>
<!-- Node16&#45;&gt;Node23 -->
<g id="edge20" class="edge">
<title>Node16&#45;&gt;Node23</title>
<path fill="none" stroke="#191970" d="M859.8197,-394.7879C905.3798,-386.2645 982.6328,-371.2976 1048.5,-356 1051.4238,-355.321 1054.4651,-354.5799 1057.4971,-353.8183"/>
<polygon fill="#191970" stroke="#191970" points="858.9604,-391.3877 849.7703,-396.6595 860.2421,-398.2694 858.9604,-391.3877"/>
</g>
<!-- Node24 -->
<g id="node22" class="node">
<title>Node24</title>
<g id="a_node22"><a xlink:href="api_2rwlock_8h.html" target="_top" xlink:title="ODP RW Locks. ">
<polygon fill="#ffffff" stroke="#000000" points="1049.5,-280.5 1049.5,-299.5 1107.5,-299.5 1107.5,-280.5 1049.5,-280.5"/>
<text text-anchor="middle" x="1078.5" y="-287.5" font-family="Helvetica,sans-Serif" font-size="10.00" fill="#000000">rwlock.h</text>
</a>
</g>
</g>
<!-- Node23&#45;&gt;Node24 -->
<g id="edge21" class="edge">
<title>Node23&#45;&gt;Node24</title>
<path fill="none" stroke="#191970" d="M1083.6654,-326.1575C1082.3793,-317.155 1080.9171,-306.9199 1079.8775,-299.6427"/>
<polygon fill="#191970" stroke="#191970" points="1080.2274,-326.8411 1085.1065,-336.2455 1087.157,-325.851 1080.2274,-326.8411"/>
</g>
<!-- Node24&#45;&gt;Node14 -->
<g id="edge32" class="edge">
<title>Node24&#45;&gt;Node14</title>
<path fill="none" stroke="#191970" d="M1039.194,-286.4624C941.6279,-276.85 692.2891,-246.9303 637.5,-188 608.0165,-156.288 613.2319,-98.6619 616.744,-75.7619"/>
<polygon fill="#191970" stroke="#191970" points="1038.9477,-289.9548 1049.2379,-287.4326 1039.6208,-282.9872 1038.9477,-289.9548"/>
</g>
<!-- Node25 -->
<g id="node23" class="node">
<title>Node25</title>
<g id="a_node23"><a xlink:href="api_2abi-default_2rwlock__recursive_8h.html" target="_top" xlink:title="ODP recursive read/write lock. ">
<polygon fill="#ffffff" stroke="#000000" points="1024.5,-224.5 1024.5,-243.5 1132.5,-243.5 1132.5,-224.5 1024.5,-224.5"/>
<text text-anchor="middle" x="1078.5" y="-231.5" font-family="Helvetica,sans-Serif" font-size="10.00" fill="#000000">rwlock_recursive.h</text>
</a>
</g>
</g>
<!-- Node24&#45;&gt;Node25 -->
<g id="edge22" class="edge">
<title>Node24&#45;&gt;Node25</title>
<path fill="none" stroke="#191970" d="M1078.5,-270.1575C1078.5,-261.155 1078.5,-250.9199 1078.5,-243.6427"/>
<polygon fill="#191970" stroke="#191970" points="1075.0001,-270.2455 1078.5,-280.2455 1082.0001,-270.2456 1075.0001,-270.2455"/>
</g>
<!-- Node26 -->
<g id="node24" class="node">
<title>Node26</title>
<g id="a_node24"><a xlink:href="arch_2arm32-linux_2odp_2api_2abi_2rwlock__recursive_8h_source.html" target="_top" xlink:title="rwlock_recursive.h">
<polygon fill="#ffffff" stroke="#000000" points="646.5,-168.5 646.5,-187.5 754.5,-187.5 754.5,-168.5 646.5,-168.5"/>
<text text-anchor="middle" x="700.5" y="-175.5" font-family="Helvetica,sans-Serif" font-size="10.00" fill="#000000">rwlock_recursive.h</text>
</a>
</g>
</g>
<!-- Node25&#45;&gt;Node26 -->
<g id="edge23" class="edge">
<title>Node25&#45;&gt;Node26</title>
<path fill="none" stroke="#191970" d="M1014.1145,-224.8361C950.426,-215.7153 850.1907,-201.2095 763.5,-188 760.6535,-187.5663 757.7354,-187.1175 754.7895,-186.6612"/>
<polygon fill="#191970" stroke="#191970" points="1014.0078,-228.3564 1024.4027,-226.3082 1014.9993,-221.427 1014.0078,-228.3564"/>
</g>
<!-- Node27 -->
<g id="node25" class="node">
<title>Node27</title>
<g id="a_node25"><a xlink:href="arch_2arm64-linux_2odp_2api_2abi_2rwlock__recursive_8h_source.html" target="_top" xlink:title="rwlock_recursive.h">
<polygon fill="#ffffff" stroke="#000000" points="772.5,-168.5 772.5,-187.5 880.5,-187.5 880.5,-168.5 772.5,-168.5"/>
<text text-anchor="middle" x="826.5" y="-175.5" font-family="Helvetica,sans-Serif" font-size="10.00" fill="#000000">rwlock_recursive.h</text>
</a>
</g>
</g>
<!-- Node25&#45;&gt;Node27 -->
<g id="edge24" class="edge">
<title>Node25&#45;&gt;Node27</title>
<path fill="none" stroke="#191970" d="M1025.5911,-222.2425C979.1678,-211.9262 912.5107,-197.1135 869.3565,-187.5237"/>
<polygon fill="#191970" stroke="#191970" points="1024.9448,-225.6842 1035.466,-224.4369 1026.4634,-218.8508 1024.9448,-225.6842"/>
</g>
<!-- Node28 -->
<g id="node26" class="node">
<title>Node28</title>
<g id="a_node26"><a xlink:href="arch_2default-linux_2odp_2api_2abi_2rwlock__recursive_8h_source.html" target="_top" xlink:title="rwlock_recursive.h">
<polygon fill="#ffffff" stroke="#000000" points="898.5,-168.5 898.5,-187.5 1006.5,-187.5 1006.5,-168.5 898.5,-168.5"/>
<text text-anchor="middle" x="952.5" y="-175.5" font-family="Helvetica,sans-Serif" font-size="10.00" fill="#000000">rwlock_recursive.h</text>
</a>
</g>
</g>
<!-- Node25&#45;&gt;Node28 -->
<g id="edge25" class="edge">
<title>Node25&#45;&gt;Node28</title>
<path fill="none" stroke="#191970" d="M1047.5564,-220.2473C1024.6735,-210.0771 994.0986,-196.4883 973.8775,-187.5011"/>
<polygon fill="#191970" stroke="#191970" points="1046.2802,-223.5102 1056.8398,-224.3733 1049.1232,-217.1135 1046.2802,-223.5102"/>
</g>
<!-- Node29 -->
<g id="node27" class="node">
<title>Node29</title>
<g id="a_node27"><a xlink:href="arch_2mips64-linux_2odp_2api_2abi_2rwlock__recursive_8h_source.html" target="_top" xlink:title="rwlock_recursive.h">
<polygon fill="#ffffff" stroke="#000000" points="1024.5,-168.5 1024.5,-187.5 1132.5,-187.5 1132.5,-168.5 1024.5,-168.5"/>
<text text-anchor="middle" x="1078.5" y="-175.5" font-family="Helvetica,sans-Serif" font-size="10.00" fill="#000000">rwlock_recursive.h</text>
</a>
</g>
</g>
<!-- Node25&#45;&gt;Node29 -->
<g id="edge26" class="edge">
<title>Node25&#45;&gt;Node29</title>
<path fill="none" stroke="#191970" d="M1078.5,-214.1575C1078.5,-205.155 1078.5,-194.9199 1078.5,-187.6427"/>
<polygon fill="#191970" stroke="#191970" points="1075.0001,-214.2455 1078.5,-224.2455 1082.0001,-214.2456 1075.0001,-214.2455"/>
</g>
<!-- Node30 -->
<g id="node28" class="node">
<title>Node30</title>
<g id="a_node28"><a xlink:href="arch_2power64-linux_2odp_2api_2abi_2rwlock__recursive_8h_source.html" target="_top" xlink:title="rwlock_recursive.h">
<polygon fill="#ffffff" stroke="#000000" points="1150.5,-168.5 1150.5,-187.5 1258.5,-187.5 1258.5,-168.5 1150.5,-168.5"/>
<text text-anchor="middle" x="1204.5" y="-175.5" font-family="Helvetica,sans-Serif" font-size="10.00" fill="#000000">rwlock_recursive.h</text>
</a>
</g>
</g>
<!-- Node25&#45;&gt;Node30 -->
<g id="edge27" class="edge">
<title>Node25&#45;&gt;Node30</title>
<path fill="none" stroke="#191970" d="M1109.4436,-220.2473C1132.3265,-210.0771 1162.9014,-196.4883 1183.1225,-187.5011"/>
<polygon fill="#191970" stroke="#191970" points="1107.8768,-217.1135 1100.1602,-224.3733 1110.7198,-223.5102 1107.8768,-217.1135"/>
</g>
<!-- Node31 -->
<g id="node29" class="node">
<title>Node31</title>
<g id="a_node29"><a xlink:href="arch_2x86__32-linux_2odp_2api_2abi_2rwlock__recursive_8h_source.html" target="_top" xlink:title="rwlock_recursive.h">
<polygon fill="#ffffff" stroke="#000000" points="1276.5,-168.5 1276.5,-187.5 1384.5,-187.5 1384.5,-168.5 1276.5,-168.5"/>
<text text-anchor="middle" x="1330.5" y="-175.5" font-family="Helvetica,sans-Serif" font-size="10.00" fill="#000000">rwlock_recursive.h</text>
</a>
</g>
</g>
<!-- Node25&#45;&gt;Node31 -->
<g id="edge28" class="edge">
<title>Node25&#45;&gt;Node31</title>
<path fill="none" stroke="#191970" d="M1131.4089,-222.2425C1177.8322,-211.9262 1244.4893,-197.1135 1287.6435,-187.5237"/>
<polygon fill="#191970" stroke="#191970" points="1130.5366,-218.8508 1121.534,-224.4369 1132.0552,-225.6842 1130.5366,-218.8508"/>
</g>
<!-- Node32 -->
<g id="node30" class="node">
<title>Node32</title>
<g id="a_node30"><a xlink:href="arch_2x86__64-linux_2odp_2api_2abi_2rwlock__recursive_8h_source.html" target="_top" xlink:title="rwlock_recursive.h">
<polygon fill="#ffffff" stroke="#000000" points="1402.5,-168.5 1402.5,-187.5 1510.5,-187.5 1510.5,-168.5 1402.5,-168.5"/>
<text text-anchor="middle" x="1456.5" y="-175.5" font-family="Helvetica,sans-Serif" font-size="10.00" fill="#000000">rwlock_recursive.h</text>
</a>
</g>
</g>
<!-- Node25&#45;&gt;Node32 -->
<g id="edge29" class="edge">
<title>Node25&#45;&gt;Node32</title>
<path fill="none" stroke="#191970" d="M1142.8855,-224.8361C1206.574,-215.7153 1306.8093,-201.2095 1393.5,-188 1396.3465,-187.5663 1399.2646,-187.1175 1402.2105,-186.6612"/>
<polygon fill="#191970" stroke="#191970" points="1142.0007,-221.427 1132.5973,-226.3082 1142.9922,-228.3564 1142.0007,-221.427"/>
</g>
<!-- Node33 -->
<g id="node31" class="node">
<title>Node33</title>
<g id="a_node31"><a xlink:href="api_2rwlock__recursive_8h.html" target="_top" xlink:title="ODP resursive read/write lock. ">
<polygon fill="#ffffff" stroke="#000000" points="1102.5,-112.5 1102.5,-131.5 1210.5,-131.5 1210.5,-112.5 1102.5,-112.5"/>
<text text-anchor="middle" x="1156.5" y="-119.5" font-family="Helvetica,sans-Serif" font-size="10.00" fill="#000000">rwlock_recursive.h</text>
</a>
</g>
</g>
<!-- Node32&#45;&gt;Node33 -->
<g id="edge30" class="edge">
<title>Node32&#45;&gt;Node33</title>
<path fill="none" stroke="#191970" d="M1395.2432,-166.5654C1339.9141,-156.2373 1259.4322,-141.214 1207.5197,-131.5237"/>
<polygon fill="#191970" stroke="#191970" points="1394.7966,-170.0424 1405.269,-168.4369 1396.0811,-163.1613 1394.7966,-170.0424"/>
</g>
<!-- Node33&#45;&gt;Node14 -->
<g id="edge31" class="edge">
<title>Node33&#45;&gt;Node14</title>
<path fill="none" stroke="#191970" d="M1092.3197,-115.3195C976.5994,-103.2743 736.9833,-78.3328 650.5039,-69.3313"/>
<polygon fill="#191970" stroke="#191970" points="1092.1426,-118.8199 1102.4512,-116.3741 1092.8674,-111.8575 1092.1426,-118.8199"/>
</g>
<!-- Node35 -->
<g id="node33" class="node">
<title>Node35</title>
<g id="a_node33"><a xlink:href="arch_2arm32-linux_2odp_2api_2abi_2ticketlock_8h_source.html" target="_top" xlink:title="ticketlock.h">
<polygon fill="#ffffff" stroke="#000000" points="1133.5,-336.5 1133.5,-355.5 1207.5,-355.5 1207.5,-336.5 1133.5,-336.5"/>
<text text-anchor="middle" x="1170.5" y="-343.5" font-family="Helvetica,sans-Serif" font-size="10.00" fill="#000000">ticketlock.h</text>
</a>
</g>
</g>
<!-- Node34&#45;&gt;Node35 -->
<g id="edge34" class="edge">
<title>Node34&#45;&gt;Node35</title>
<path fill="none" stroke="#191970" d="M1353.325,-390.5139C1310.2091,-380.0161 1247.3005,-364.6992 1207.6556,-355.0466"/>
<polygon fill="#191970" stroke="#191970" points="1352.7467,-393.9753 1363.2909,-392.9404 1354.4028,-387.174 1352.7467,-393.9753"/>
</g>
<!-- Node36 -->
<g id="node34" class="node">
<title>Node36</title>
<g id="a_node34"><a xlink:href="arch_2arm64-linux_2odp_2api_2abi_2ticketlock_8h_source.html" target="_top" xlink:title="ticketlock.h">
<polygon fill="#ffffff" stroke="#000000" points="1225.5,-336.5 1225.5,-355.5 1299.5,-355.5 1299.5,-336.5 1225.5,-336.5"/>
<text text-anchor="middle" x="1262.5" y="-343.5" font-family="Helvetica,sans-Serif" font-size="10.00" fill="#000000">ticketlock.h</text>
</a>
</g>
</g>
<!-- Node34&#45;&gt;Node36 -->
<g id="edge35" class="edge">
<title>Node34&#45;&gt;Node36</title>
<path fill="none" stroke="#191970" d="M1367.2787,-388.5189C1342.146,-378.3201 1308.2582,-364.5685 1285.9135,-355.5011"/>
<polygon fill="#191970" stroke="#191970" points="1366.1947,-391.8562 1376.777,-392.3733 1368.8269,-385.3699 1366.1947,-391.8562"/>
</g>
<!-- Node37 -->
<g id="node35" class="node">
<title>Node37</title>
<g id="a_node35"><a xlink:href="arch_2default-linux_2odp_2api_2abi_2ticketlock_8h_source.html" target="_top" xlink:title="ticketlock.h">
<polygon fill="#ffffff" stroke="#000000" points="1317.5,-336.5 1317.5,-355.5 1391.5,-355.5 1391.5,-336.5 1317.5,-336.5"/>
<text text-anchor="middle" x="1354.5" y="-343.5" font-family="Helvetica,sans-Serif" font-size="10.00" fill="#000000">ticketlock.h</text>
</a>
</g>
</g>
<!-- Node34&#45;&gt;Node37 -->
<g id="edge36" class="edge">
<title>Node34&#45;&gt;Node37</title>
<path fill="none" stroke="#191970" d="M1386.1253,-384.5004C1378.3029,-374.9775 1368.924,-363.5596 1362.4208,-355.6427"/>
<polygon fill="#191970" stroke="#191970" points="1383.4354,-386.7399 1392.4874,-392.2455 1388.8445,-382.2967 1383.4354,-386.7399"/>
</g>
<!-- Node38 -->
<g id="node36" class="node">
<title>Node38</title>
<g id="a_node36"><a xlink:href="arch_2mips64-linux_2odp_2api_2abi_2ticketlock_8h_source.html" target="_top" xlink:title="ticketlock.h">
<polygon fill="#ffffff" stroke="#000000" points="1409.5,-336.5 1409.5,-355.5 1483.5,-355.5 1483.5,-336.5 1409.5,-336.5"/>
<text text-anchor="middle" x="1446.5" y="-343.5" font-family="Helvetica,sans-Serif" font-size="10.00" fill="#000000">ticketlock.h</text>
</a>
</g>
</g>
<!-- Node34&#45;&gt;Node38 -->
<g id="edge37" class="edge">
<title>Node34&#45;&gt;Node38</title>
<path fill="none" stroke="#191970" d="M1414.8747,-384.5004C1422.6971,-374.9775 1432.076,-363.5596 1438.5792,-355.6427"/>
<polygon fill="#191970" stroke="#191970" points="1412.1555,-382.2967 1408.5126,-392.2455 1417.5646,-386.7399 1412.1555,-382.2967"/>
</g>
<!-- Node39 -->
<g id="node37" class="node">
<title>Node39</title>
<g id="a_node37"><a xlink:href="arch_2power64-linux_2odp_2api_2abi_2ticketlock_8h_source.html" target="_top" xlink:title="ticketlock.h">
<polygon fill="#ffffff" stroke="#000000" points="1501.5,-336.5 1501.5,-355.5 1575.5,-355.5 1575.5,-336.5 1501.5,-336.5"/>
<text text-anchor="middle" x="1538.5" y="-343.5" font-family="Helvetica,sans-Serif" font-size="10.00" fill="#000000">ticketlock.h</text>
</a>
</g>
</g>
<!-- Node34&#45;&gt;Node39 -->
<g id="edge38" class="edge">
<title>Node34&#45;&gt;Node39</title>
<path fill="none" stroke="#191970" d="M1433.7213,-388.5189C1458.854,-378.3201 1492.7418,-364.5685 1515.0865,-355.5011"/>
<polygon fill="#191970" stroke="#191970" points="1432.1731,-385.3699 1424.223,-392.3733 1434.8053,-391.8562 1432.1731,-385.3699"/>
</g>
<!-- Node40 -->
<g id="node38" class="node">
<title>Node40</title>
<g id="a_node38"><a xlink:href="arch_2x86__32-linux_2odp_2api_2abi_2ticketlock_8h_source.html" target="_top" xlink:title="ticketlock.h">
<polygon fill="#ffffff" stroke="#000000" points="1593.5,-336.5 1593.5,-355.5 1667.5,-355.5 1667.5,-336.5 1593.5,-336.5"/>
<text text-anchor="middle" x="1630.5" y="-343.5" font-family="Helvetica,sans-Serif" font-size="10.00" fill="#000000">ticketlock.h</text>
</a>
</g>
</g>
<!-- Node34&#45;&gt;Node40 -->
<g id="edge39" class="edge">
<title>Node34&#45;&gt;Node40</title>
<path fill="none" stroke="#191970" d="M1447.675,-390.5139C1490.7909,-380.0161 1553.6995,-364.6992 1593.3444,-355.0466"/>
<polygon fill="#191970" stroke="#191970" points="1446.5972,-387.174 1437.7091,-392.9404 1448.2533,-393.9753 1446.5972,-387.174"/>
</g>
<!-- Node41 -->
<g id="node39" class="node">
<title>Node41</title>
<g id="a_node39"><a xlink:href="arch_2x86__64-linux_2odp_2api_2abi_2ticketlock_8h_source.html" target="_top" xlink:title="ticketlock.h">
<polygon fill="#ffffff" stroke="#000000" points="1638.5,-280.5 1638.5,-299.5 1712.5,-299.5 1712.5,-280.5 1638.5,-280.5"/>
<text text-anchor="middle" x="1675.5" y="-287.5" font-family="Helvetica,sans-Serif" font-size="10.00" fill="#000000">ticketlock.h</text>
</a>
</g>
</g>
<!-- Node34&#45;&gt;Node41 -->
<g id="edge40" class="edge">
<title>Node34&#45;&gt;Node41</title>
<path fill="none" stroke="#191970" d="M1447.8459,-397.4291C1522.8146,-389.709 1661.8992,-373.2357 1676.5,-356 1689.833,-340.2609 1683.9221,-314.0255 1679.2374,-299.8354"/>
<polygon fill="#191970" stroke="#191970" points="1447.3072,-393.9657 1437.7126,-398.4595 1448.0154,-400.9298 1447.3072,-393.9657"/>
</g>
<!-- Node42 -->
<g id="node40" class="node">
<title>Node42</title>
<g id="a_node40"><a xlink:href="api_2ticketlock_8h.html" target="_top" xlink:title="ODP ticketlock. ">
<polygon fill="#ffffff" stroke="#000000" points="1618.5,-224.5 1618.5,-243.5 1692.5,-243.5 1692.5,-224.5 1618.5,-224.5"/>
<text text-anchor="middle" x="1655.5" y="-231.5" font-family="Helvetica,sans-Serif" font-size="10.00" fill="#000000">ticketlock.h</text>
</a>
</g>
</g>
<!-- Node41&#45;&gt;Node42 -->
<g id="edge41" class="edge">
<title>Node41&#45;&gt;Node42</title>
<path fill="none" stroke="#191970" d="M1668.6247,-270.7493C1665.3594,-261.6064 1661.5999,-251.0798 1658.9438,-243.6427"/>
<polygon fill="#191970" stroke="#191970" points="1665.3567,-272.0053 1672.0163,-280.2455 1671.9489,-269.6509 1665.3567,-272.0053"/>
</g>
<!-- Node42&#45;&gt;Node14 -->
<g id="edge42" class="edge">
<title>Node42&#45;&gt;Node14</title>
<path fill="none" stroke="#191970" d="M1630.3366,-219.2451C1603.6677,-204.224 1559.9056,-181.3083 1519.5,-168 1390.6716,-125.5679 1353.9837,-129.6458 1219.5,-112 1003.1685,-83.6148 740.5571,-70.9531 650.5514,-67.2316"/>
<polygon fill="#191970" stroke="#191970" points="1628.9308,-222.4726 1639.3507,-224.3896 1632.4005,-216.3931 1628.9308,-222.4726"/>
</g>
</g>
</svg>
