<?xml version="1.0" encoding="UTF-8" standalone="no"?>
<!DOCTYPE svg PUBLIC "-//W3C//DTD SVG 1.1//EN"
 "http://www.w3.org/Graphics/SVG/1.1/DTD/svg11.dtd">
<!-- Generated by graphviz version 2.40.1 (20161225.0304)
 -->
<!-- Title: spinlock_recursive.h Pages: 1 -->
<svg width="324pt" height="151pt"
 viewBox="0.00 0.00 324.00 151.00" xmlns="http://www.w3.org/2000/svg" xmlns:xlink="http://www.w3.org/1999/xlink">
<g id="graph0" class="graph" transform="scale(1 1) rotate(0) translate(4 147)">
<title>spinlock_recursive.h</title>
<polygon fill="#ffffff" stroke="transparent" points="-4,4 -4,-147 320,-147 320,4 -4,4"/>
<!-- Node0 -->
<g id="node1" class="node">
<title>Node0</title>
<polygon fill="#bfbfbf" stroke="#000000" points="67,-123.5 67,-142.5 183,-142.5 183,-123.5 67,-123.5"/>
<text text-anchor="middle" x="125" y="-130.5" font-family="Helvetica,sans-Serif" font-size="10.00" fill="#000000">spinlock_recursive.h</text>
</g>
<!-- Node1 -->
<g id="node2" class="node">
<title>Node1</title>
<polygon fill="#ffffff" stroke="#bfbfbf" points="0,-56.5 0,-86.5 114,-86.5 114,-56.5 0,-56.5"/>
<text text-anchor="start" x="8" y="-74.5" font-family="Helvetica,sans-Serif" font-size="10.00" fill="#000000">odp/api/abi/spinlock</text>
<text text-anchor="middle" x="57" y="-63.5" font-family="Helvetica,sans-Serif" font-size="10.00" fill="#000000">_recursive.h</text>
</g>
<!-- Node0&#45;&gt;Node1 -->
<g id="edge1" class="edge">
<title>Node0&#45;&gt;Node1</title>
<path fill="none" stroke="#191970" d="M114.375,-123.3906C105.5129,-115.3756 92.5442,-103.6466 81.1777,-93.3666"/>
<polygon fill="#191970" stroke="#191970" points="83.3991,-90.6565 73.6347,-86.5446 78.7036,-95.8482 83.3991,-90.6565"/>
</g>
<!-- Node2 -->
<g id="node3" class="node">
<title>Node2</title>
<g id="a_node3"><a xlink:href="api_2spec_2spinlock__recursive_8h.html" target="_top" xlink:title="ODP recursive spinlock. ">
<polygon fill="#ffffff" stroke="#000000" points="132,-56.5 132,-86.5 254,-86.5 254,-56.5 132,-56.5"/>
<text text-anchor="start" x="140" y="-74.5" font-family="Helvetica,sans-Serif" font-size="10.00" fill="#000000">odp/api/spec/spinlock</text>
<text text-anchor="middle" x="193" y="-63.5" font-family="Helvetica,sans-Serif" font-size="10.00" fill="#000000">_recursive.h</text>
</a>
</g>
</g>
<!-- Node0&#45;&gt;Node2 -->
<g id="edge2" class="edge">
<title>Node0&#45;&gt;Node2</title>
<path fill="none" stroke="#191970" d="M135.625,-123.3906C144.4871,-115.3756 157.4558,-103.6466 168.8223,-93.3666"/>
<polygon fill="#191970" stroke="#191970" points="171.2964,-95.8482 176.3653,-86.5446 166.6009,-90.6565 171.2964,-95.8482"/>
</g>
<!-- Node3 -->
<g id="node4" class="node">
<title>Node3</title>
<g id="a_node4"><a xlink:href="visibility__begin_8h_source.html" target="_top" xlink:title="odp/visibility_begin.h">
<polygon fill="#ffffff" stroke="#000000" points="64.5,-.5 64.5,-19.5 185.5,-19.5 185.5,-.5 64.5,-.5"/>
<text text-anchor="middle" x="125" y="-7.5" font-family="Helvetica,sans-Serif" font-size="10.00" fill="#000000">odp/visibility_begin.h</text>
</a>
</g>
</g>
<!-- Node2&#45;&gt;Node3 -->
<g id="edge3" class="edge">
<title>Node2&#45;&gt;Node3</title>
<path fill="none" stroke="#191970" d="M176.191,-56.2977C166.2603,-47.3163 153.6743,-35.9334 143.4673,-26.702"/>
<polygon fill="#191970" stroke="#191970" points="145.652,-23.9588 135.8877,-19.8469 140.9566,-29.1505 145.652,-23.9588"/>
</g>
<!-- Node4 -->
<g id="node5" class="node">
<title>Node4</title>
<g id="a_node5"><a xlink:href="visibility__end_8h_source.html" target="_top" xlink:title="odp/visibility_end.h">
<polygon fill="#ffffff" stroke="#000000" points="204,-.5 204,-19.5 316,-19.5 316,-.5 204,-.5"/>
<text text-anchor="middle" x="260" y="-7.5" font-family="Helvetica,sans-Serif" font-size="10.00" fill="#000000">odp/visibility_end.h</text>
</a>
</g>
</g>
<!-- Node2&#45;&gt;Node4 -->
<g id="edge4" class="edge">
<title>Node2&#45;&gt;Node4</title>
<path fill="none" stroke="#191970" d="M209.5618,-56.2977C219.3465,-47.3163 231.7474,-35.9334 241.8043,-26.702"/>
<polygon fill="#191970" stroke="#191970" points="244.2722,-29.1876 249.2725,-19.8469 239.5387,-24.0307 244.2722,-29.1876"/>
</g>
</g>
</svg>
