<?xml version="1.0" encoding="UTF-8" standalone="no"?>
<!DOCTYPE svg PUBLIC "-//W3C//DTD SVG 1.1//EN"
 "http://www.w3.org/Graphics/SVG/1.1/DTD/svg11.dtd">
<!-- Generated by graphviz version 2.43.0 (0)
 -->
<!-- Title: event_vector_types.h Pages: 1 -->
<svg width="748pt" height="341pt"
 viewBox="0.00 0.00 747.63 341.00" xmlns="http://www.w3.org/2000/svg" xmlns:xlink="http://www.w3.org/1999/xlink">
<g id="graph0" class="graph" transform="scale(1 1) rotate(0) translate(4 337)">
<title>event_vector_types.h</title>
<polygon fill="white" stroke="transparent" points="-4,4 -4,-337 743.63,-337 743.63,4 -4,4"/>
<!-- Node1 -->
<g id="node1" class="node">
<title>Node1</title>
<g id="a_node1"><a xlink:title="ODP event vector API type definitions.">
<polygon fill="#bfbfbf" stroke="black" points="186.63,-313.5 186.63,-332.5 308.63,-332.5 308.63,-313.5 186.63,-313.5"/>
<text text-anchor="middle" x="247.63" y="-320.5" font-family="Helvetica,sans-Serif" font-size="10.00">event_vector_types.h</text>
</a>
</g>
</g>
<!-- Node2 -->
<g id="node2" class="node">
<title>Node2</title>
<g id="a_node2"><a xlink:href="visibility__begin_8h_source.html" target="_top" xlink:title=" ">
<polygon fill="white" stroke="black" points="224.13,-0.5 224.13,-19.5 345.13,-19.5 345.13,-0.5 224.13,-0.5"/>
<text text-anchor="middle" x="284.63" y="-7.5" font-family="Helvetica,sans-Serif" font-size="10.00">odp/visibility_begin.h</text>
</a>
</g>
</g>
<!-- Node1&#45;&gt;Node2 -->
<g id="edge1" class="edge">
<title>Node1&#45;&gt;Node2</title>
<path fill="none" stroke="midnightblue" d="M186.51,-316.89C113.65,-307.06 1.63,-278.46 1.63,-195.5 1.63,-195.5 1.63,-195.5 1.63,-132 1.63,-97.18 -4.9,-79.66 20.63,-56 48.05,-30.6 145.12,-19.36 213.57,-14.5"/>
<polygon fill="midnightblue" stroke="midnightblue" points="214.13,-17.97 223.87,-13.81 213.66,-10.99 214.13,-17.97"/>
</g>
<!-- Node3 -->
<g id="node3" class="node">
<title>Node3</title>
<g id="a_node3"><a xlink:href="api_2event__types_8h.html" target="_top" xlink:title="ODP event API type definitions.">
<polygon fill="white" stroke="black" points="48.13,-123.5 48.13,-142.5 173.13,-142.5 173.13,-123.5 48.13,-123.5"/>
<text text-anchor="middle" x="110.63" y="-130.5" font-family="Helvetica,sans-Serif" font-size="10.00">odp/api/event_types.h</text>
</a>
</g>
</g>
<!-- Node1&#45;&gt;Node3 -->
<g id="edge2" class="edge">
<title>Node1&#45;&gt;Node3</title>
<path fill="none" stroke="midnightblue" d="M230.38,-313.47C215.88,-305.61 195.39,-292.79 181.63,-277 148.06,-238.45 126.01,-181.22 116.31,-152.24"/>
<polygon fill="midnightblue" stroke="midnightblue" points="119.6,-151.05 113.19,-142.61 112.94,-153.2 119.6,-151.05"/>
</g>
<!-- Node6 -->
<g id="node6" class="node">
<title>Node6</title>
<g id="a_node6"><a xlink:href="visibility__end_8h_source.html" target="_top" xlink:title=" ">
<polygon fill="white" stroke="black" points="481.63,-0.5 481.63,-19.5 593.63,-19.5 593.63,-0.5 481.63,-0.5"/>
<text text-anchor="middle" x="537.63" y="-7.5" font-family="Helvetica,sans-Serif" font-size="10.00">odp/visibility_end.h</text>
</a>
</g>
</g>
<!-- Node1&#45;&gt;Node6 -->
<g id="edge23" class="edge">
<title>Node1&#45;&gt;Node6</title>
<path fill="none" stroke="midnightblue" d="M308.95,-319.09C440.84,-311.16 739.63,-283.47 739.63,-195.5 739.63,-195.5 739.63,-195.5 739.63,-132 739.63,-93.83 729.35,-79.96 699.63,-56 672.57,-34.18 635.62,-22.92 603.84,-17.12"/>
<polygon fill="midnightblue" stroke="midnightblue" points="604.17,-13.62 593.73,-15.42 603.01,-20.53 604.17,-13.62"/>
</g>
<!-- Node7 -->
<g id="node7" class="node">
<title>Node7</title>
<g id="a_node7"><a xlink:href="queue__stats__types_8h.html" target="_top" xlink:title="ODP queue.">
<polygon fill="white" stroke="black" points="190.13,-246.5 190.13,-276.5 305.13,-276.5 305.13,-246.5 190.13,-246.5"/>
<text text-anchor="start" x="198.13" y="-264.5" font-family="Helvetica,sans-Serif" font-size="10.00">odp/api/queue_stats</text>
<text text-anchor="middle" x="247.63" y="-253.5" font-family="Helvetica,sans-Serif" font-size="10.00">_types.h</text>
</a>
</g>
</g>
<!-- Node1&#45;&gt;Node7 -->
<g id="edge7" class="edge">
<title>Node1&#45;&gt;Node7</title>
<path fill="none" stroke="midnightblue" d="M247.63,-313.48C247.63,-306.47 247.63,-296.19 247.63,-286.7"/>
<polygon fill="midnightblue" stroke="midnightblue" points="251.13,-286.52 247.63,-276.52 244.13,-286.52 251.13,-286.52"/>
</g>
<!-- Node10 -->
<g id="node10" class="node">
<title>Node10</title>
<g id="a_node10"><a xlink:href="api_2std__types_8h.html" target="_top" xlink:title="Standard C language types and definitions for ODP.">
<polygon fill="white" stroke="black" points="333.63,-252 333.63,-271 445.63,-271 445.63,-252 333.63,-252"/>
<text text-anchor="middle" x="389.63" y="-259" font-family="Helvetica,sans-Serif" font-size="10.00">odp/api/std_types.h</text>
</a>
</g>
</g>
<!-- Node1&#45;&gt;Node10 -->
<g id="edge12" class="edge">
<title>Node1&#45;&gt;Node10</title>
<path fill="none" stroke="midnightblue" d="M267.98,-313.48C292.02,-303.4 332.23,-286.55 359.8,-275"/>
<polygon fill="midnightblue" stroke="midnightblue" points="361.46,-278.1 369.33,-271.01 358.75,-271.65 361.46,-278.1"/>
</g>
<!-- Node4 -->
<g id="node4" class="node">
<title>Node4</title>
<g id="a_node4"><a xlink:title=" ">
<polygon fill="white" stroke="#bfbfbf" points="30.13,-62 30.13,-81 173.13,-81 173.13,-62 30.13,-62"/>
<text text-anchor="middle" x="101.63" y="-69" font-family="Helvetica,sans-Serif" font-size="10.00">odp/api/abi/event_types.h</text>
</a>
</g>
</g>
<!-- Node3&#45;&gt;Node4 -->
<g id="edge3" class="edge">
<title>Node3&#45;&gt;Node4</title>
<path fill="none" stroke="midnightblue" d="M109.35,-123.48C108.08,-115.08 106.09,-101.98 104.46,-91.16"/>
<polygon fill="midnightblue" stroke="midnightblue" points="107.88,-90.37 102.92,-81.01 100.96,-91.42 107.88,-90.37"/>
</g>
<!-- Node5 -->
<g id="node5" class="node">
<title>Node5</title>
<g id="a_node5"><a xlink:href="api_2spec_2event__types_8h.html" target="_top" xlink:title="ODP event API type definitions.">
<polygon fill="white" stroke="black" points="230.13,-56.5 230.13,-86.5 339.13,-86.5 339.13,-56.5 230.13,-56.5"/>
<text text-anchor="start" x="238.13" y="-74.5" font-family="Helvetica,sans-Serif" font-size="10.00">odp/api/spec/event</text>
<text text-anchor="middle" x="284.63" y="-63.5" font-family="Helvetica,sans-Serif" font-size="10.00">_types.h</text>
</a>
</g>
</g>
<!-- Node3&#45;&gt;Node5 -->
<g id="edge4" class="edge">
<title>Node3&#45;&gt;Node5</title>
<path fill="none" stroke="midnightblue" d="M135.56,-123.48C161.11,-114.74 201.56,-100.91 233.88,-89.86"/>
<polygon fill="midnightblue" stroke="midnightblue" points="235.3,-93.07 243.63,-86.52 233.03,-86.45 235.3,-93.07"/>
</g>
<!-- Node5&#45;&gt;Node2 -->
<g id="edge5" class="edge">
<title>Node5&#45;&gt;Node2</title>
<path fill="none" stroke="midnightblue" d="M284.63,-56.4C284.63,-48.47 284.63,-38.46 284.63,-29.86"/>
<polygon fill="midnightblue" stroke="midnightblue" points="288.13,-29.66 284.63,-19.66 281.13,-29.66 288.13,-29.66"/>
</g>
<!-- Node5&#45;&gt;Node6 -->
<g id="edge6" class="edge">
<title>Node5&#45;&gt;Node6</title>
<path fill="none" stroke="midnightblue" d="M339.22,-57.66C384.68,-46.97 448.68,-31.92 491.58,-21.83"/>
<polygon fill="midnightblue" stroke="midnightblue" points="492.54,-25.2 501.48,-19.5 490.94,-18.39 492.54,-25.2"/>
</g>
<!-- Node8 -->
<g id="node8" class="node">
<title>Node8</title>
<g id="a_node8"><a xlink:href="spec_2queue__stats__types_8h.html" target="_top" xlink:title="ODP queue statistics types.">
<polygon fill="white" stroke="black" points="192.13,-179.5 192.13,-209.5 303.13,-209.5 303.13,-179.5 192.13,-179.5"/>
<text text-anchor="start" x="200.13" y="-197.5" font-family="Helvetica,sans-Serif" font-size="10.00">odp/api/spec/queue</text>
<text text-anchor="middle" x="247.63" y="-186.5" font-family="Helvetica,sans-Serif" font-size="10.00">_stats_types.h</text>
</a>
</g>
</g>
<!-- Node7&#45;&gt;Node8 -->
<g id="edge8" class="edge">
<title>Node7&#45;&gt;Node8</title>
<path fill="none" stroke="midnightblue" d="M247.63,-246.4C247.63,-238.64 247.63,-228.81 247.63,-219.86"/>
<polygon fill="midnightblue" stroke="midnightblue" points="251.13,-219.58 247.63,-209.58 244.13,-219.58 251.13,-219.58"/>
</g>
<!-- Node8&#45;&gt;Node2 -->
<g id="edge9" class="edge">
<title>Node8&#45;&gt;Node2</title>
<path fill="none" stroke="midnightblue" d="M239.35,-179.39C225.33,-153.49 200.4,-97.26 221.63,-56 228.71,-42.25 242.16,-31.77 254.81,-24.39"/>
<polygon fill="midnightblue" stroke="midnightblue" points="256.63,-27.39 263.79,-19.57 253.32,-21.22 256.63,-27.39"/>
</g>
<!-- Node8&#45;&gt;Node6 -->
<g id="edge11" class="edge">
<title>Node8&#45;&gt;Node6</title>
<path fill="none" stroke="midnightblue" d="M250.76,-179.32C255.15,-162.97 264.8,-136.6 283.63,-123 369.3,-61.15 440.53,-158.16 518.63,-87 534.47,-72.57 538.01,-47.13 538.39,-29.69"/>
<polygon fill="midnightblue" stroke="midnightblue" points="541.89,-29.54 538.29,-19.58 534.89,-29.61 541.89,-29.54"/>
</g>
<!-- Node9 -->
<g id="node9" class="node">
<title>Node9</title>
<g id="a_node9"><a xlink:title=" ">
<polygon fill="white" stroke="#bfbfbf" points="292.13,-123.5 292.13,-142.5 345.13,-142.5 345.13,-123.5 292.13,-123.5"/>
<text text-anchor="middle" x="318.63" y="-130.5" font-family="Helvetica,sans-Serif" font-size="10.00">stdint.h</text>
</a>
</g>
</g>
<!-- Node8&#45;&gt;Node9 -->
<g id="edge10" class="edge">
<title>Node8&#45;&gt;Node9</title>
<path fill="none" stroke="midnightblue" d="M264.46,-179.4C275.31,-170.31 289.41,-158.49 300.51,-149.19"/>
<polygon fill="midnightblue" stroke="midnightblue" points="302.89,-151.76 308.3,-142.66 298.39,-146.4 302.89,-151.76"/>
</g>
<!-- Node11 -->
<g id="node11" class="node">
<title>Node11</title>
<g id="a_node11"><a xlink:title=" ">
<polygon fill="white" stroke="#bfbfbf" points="476.63,-185 476.63,-204 606.63,-204 606.63,-185 476.63,-185"/>
<text text-anchor="middle" x="541.63" y="-192" font-family="Helvetica,sans-Serif" font-size="10.00">odp/api/abi/std_types.h</text>
</a>
</g>
</g>
<!-- Node10&#45;&gt;Node11 -->
<g id="edge13" class="edge">
<title>Node10&#45;&gt;Node11</title>
<path fill="none" stroke="midnightblue" d="M409.82,-251.87C435.94,-240.7 481.66,-221.15 511.8,-208.26"/>
<polygon fill="midnightblue" stroke="midnightblue" points="513.55,-211.32 521.37,-204.17 510.8,-204.88 513.55,-211.32"/>
</g>
<!-- Node12 -->
<g id="node12" class="node">
<title>Node12</title>
<g id="a_node12"><a xlink:href="api_2spec_2std__types_8h.html" target="_top" xlink:title="Common types and definitions for ODP API files.">
<polygon fill="white" stroke="black" points="321.13,-185 321.13,-204 458.13,-204 458.13,-185 321.13,-185"/>
<text text-anchor="middle" x="389.63" y="-192" font-family="Helvetica,sans-Serif" font-size="10.00">odp/api/spec/std_types.h</text>
</a>
</g>
</g>
<!-- Node10&#45;&gt;Node12 -->
<g id="edge14" class="edge">
<title>Node10&#45;&gt;Node12</title>
<path fill="none" stroke="midnightblue" d="M389.63,-251.73C389.63,-242.18 389.63,-226.62 389.63,-214.28"/>
<polygon fill="midnightblue" stroke="midnightblue" points="393.13,-214.13 389.63,-204.13 386.13,-214.13 393.13,-214.13"/>
</g>
<!-- Node12&#45;&gt;Node2 -->
<g id="edge15" class="edge">
<title>Node12&#45;&gt;Node2</title>
<path fill="none" stroke="midnightblue" d="M389.01,-184.92C386.97,-161.92 378.76,-97.85 348.63,-56 339.18,-42.87 324.68,-32.22 311.86,-24.58"/>
<polygon fill="midnightblue" stroke="midnightblue" points="313.36,-21.41 302.93,-19.56 309.93,-27.51 313.36,-21.41"/>
</g>
<!-- Node12&#45;&gt;Node6 -->
<g id="edge22" class="edge">
<title>Node12&#45;&gt;Node6</title>
<path fill="none" stroke="midnightblue" d="M429.26,-184.97C502.13,-168.39 652.75,-129.67 682.63,-87 707.12,-52.05 653,-31.95 604.06,-21.31"/>
<polygon fill="midnightblue" stroke="midnightblue" points="604.54,-17.83 594.04,-19.24 603.13,-24.69 604.54,-17.83"/>
</g>
<!-- Node12&#45;&gt;Node9 -->
<g id="edge16" class="edge">
<title>Node12&#45;&gt;Node9</title>
<path fill="none" stroke="midnightblue" d="M379.46,-184.98C368.28,-175.61 350.12,-160.38 336.54,-149.01"/>
<polygon fill="midnightblue" stroke="midnightblue" points="338.7,-146.25 328.79,-142.51 334.2,-151.61 338.7,-146.25"/>
</g>
<!-- Node13 -->
<g id="node13" class="node">
<title>Node13</title>
<g id="a_node13"><a xlink:href="api_2align_8h.html" target="_top" xlink:title="ODP alignments.">
<polygon fill="white" stroke="black" points="408.13,-123.5 408.13,-142.5 497.13,-142.5 497.13,-123.5 408.13,-123.5"/>
<text text-anchor="middle" x="452.63" y="-130.5" font-family="Helvetica,sans-Serif" font-size="10.00">odp/api/align.h</text>
</a>
</g>
</g>
<!-- Node12&#45;&gt;Node13 -->
<g id="edge17" class="edge">
<title>Node12&#45;&gt;Node13</title>
<path fill="none" stroke="midnightblue" d="M398.66,-184.98C408.39,-175.78 424.09,-160.96 436.06,-149.66"/>
<polygon fill="midnightblue" stroke="midnightblue" points="438.76,-151.92 443.63,-142.51 433.95,-146.83 438.76,-151.92"/>
</g>
<!-- Node14 -->
<g id="node14" class="node">
<title>Node14</title>
<g id="a_node14"><a xlink:title=" ">
<polygon fill="white" stroke="#bfbfbf" points="566.13,-62 566.13,-81 673.13,-81 673.13,-62 566.13,-62"/>
<text text-anchor="middle" x="619.63" y="-69" font-family="Helvetica,sans-Serif" font-size="10.00">odp/api/abi/align.h</text>
</a>
</g>
</g>
<!-- Node13&#45;&gt;Node14 -->
<g id="edge18" class="edge">
<title>Node13&#45;&gt;Node14</title>
<path fill="none" stroke="midnightblue" d="M476.56,-123.48C505.33,-113.22 553.79,-95.96 586.24,-84.4"/>
<polygon fill="midnightblue" stroke="midnightblue" points="587.51,-87.66 595.75,-81.01 585.16,-81.07 587.51,-87.66"/>
</g>
<!-- Node15 -->
<g id="node15" class="node">
<title>Node15</title>
<g id="a_node15"><a xlink:href="api_2spec_2align_8h.html" target="_top" xlink:title="ODP alignments.">
<polygon fill="white" stroke="black" points="395.63,-62 395.63,-81 509.63,-81 509.63,-62 395.63,-62"/>
<text text-anchor="middle" x="452.63" y="-69" font-family="Helvetica,sans-Serif" font-size="10.00">odp/api/spec/align.h</text>
</a>
</g>
</g>
<!-- Node13&#45;&gt;Node15 -->
<g id="edge19" class="edge">
<title>Node13&#45;&gt;Node15</title>
<path fill="none" stroke="midnightblue" d="M452.63,-123.48C452.63,-115.08 452.63,-101.98 452.63,-91.16"/>
<polygon fill="midnightblue" stroke="midnightblue" points="456.13,-91.01 452.63,-81.01 449.13,-91.01 456.13,-91.01"/>
</g>
<!-- Node15&#45;&gt;Node2 -->
<g id="edge20" class="edge">
<title>Node15&#45;&gt;Node2</title>
<path fill="none" stroke="midnightblue" d="M428.56,-61.98C399.62,-51.72 350.87,-34.46 318.23,-22.9"/>
<polygon fill="midnightblue" stroke="midnightblue" points="319.26,-19.55 308.66,-19.51 316.92,-26.15 319.26,-19.55"/>
</g>
<!-- Node15&#45;&gt;Node6 -->
<g id="edge21" class="edge">
<title>Node15&#45;&gt;Node6</title>
<path fill="none" stroke="midnightblue" d="M464.81,-61.98C478.45,-52.43 500.77,-36.81 517.11,-25.37"/>
<polygon fill="midnightblue" stroke="midnightblue" points="519.29,-28.11 525.48,-19.51 515.28,-22.38 519.29,-28.11"/>
</g>
</g>
</svg>
