<?xml version="1.0" encoding="UTF-8" standalone="no"?>
<!DOCTYPE svg PUBLIC "-//W3C//DTD SVG 1.1//EN"
 "http://www.w3.org/Graphics/SVG/1.1/DTD/svg11.dtd">
<!-- Generated by graphviz version 2.43.0 (0)
 -->
<!-- Title: proto_stats.h Pages: 1 -->
<svg width="649pt" height="500pt"
 viewBox="0.00 0.00 649.00 500.00" xmlns="http://www.w3.org/2000/svg" xmlns:xlink="http://www.w3.org/1999/xlink">
<g id="graph0" class="graph" transform="scale(1 1) rotate(0) translate(4 496)">
<title>proto_stats.h</title>
<!-- Node1 -->
<g id="Node000001" class="node">
<title>Node1</title>
<g id="a_Node000001"><a xlink:title="ODP proto stats.">
<polygon fill="#999999" stroke="#666666" points="280,-492 200,-492 200,-473 280,-473 280,-492"/>
<text text-anchor="middle" x="240" y="-480" font-family="Helvetica,sans-Serif" font-size="10.00">proto_stats.h</text>
</a>
</g>
</g>
<!-- Node2 -->
<g id="Node000002" class="node">
<title>Node2</title>
<g id="a_Node000002"><a xlink:href="api_2std__types_8h.html" target="_top" xlink:title="Standard C language types and definitions for ODP.">
<polygon fill="white" stroke="#666666" points="475,-239 363,-239 363,-220 475,-220 475,-239"/>
<text text-anchor="middle" x="419" y="-227" font-family="Helvetica,sans-Serif" font-size="10.00">odp/api/std_types.h</text>
</a>
</g>
</g>
<!-- Node1&#45;&gt;Node2 -->
<g id="edge1_Node000001_Node000002" class="edge">
<title>Node1&#45;&gt;Node2</title>
<g id="a_edge1_Node000001_Node000002"><a xlink:title=" ">
<path fill="none" stroke="#63b8ff" d="M280.42,-479.18C337.17,-474.99 436.01,-463.93 458,-437 504.16,-380.47 454.36,-286.19 430.39,-247.68"/>
<polygon fill="#63b8ff" stroke="#63b8ff" points="433.27,-245.68 424.93,-239.15 427.37,-249.46 433.27,-245.68"/>
</a>
</g>
</g>
<!-- Node11 -->
<g id="Node000011" class="node">
<title>Node11</title>
<g id="a_Node000011"><a xlink:title=" ">
<polygon fill="#e0e0e0" stroke="#999999" points="168.5,-431.5 55.5,-431.5 55.5,-412.5 168.5,-412.5 168.5,-431.5"/>
<text text-anchor="middle" x="112" y="-419.5" font-family="Helvetica,sans-Serif" font-size="10.00">odp/api/abi/queue.h</text>
</a>
</g>
</g>
<!-- Node1&#45;&gt;Node11 -->
<g id="edge12_Node000001_Node000011" class="edge">
<title>Node1&#45;&gt;Node11</title>
<g id="a_edge12_Node000001_Node000011"><a xlink:title=" ">
<path fill="none" stroke="#63b8ff" d="M221.39,-472.99C199.96,-463.2 164.56,-447.02 139.85,-435.73"/>
<polygon fill="#63b8ff" stroke="#63b8ff" points="141.18,-432.49 130.63,-431.52 138.28,-438.86 141.18,-432.49"/>
</a>
</g>
</g>
<!-- Node12 -->
<g id="Node000012" class="node">
<title>Node12</title>
<g id="a_Node000012"><a xlink:title=" ">
<polygon fill="#e0e0e0" stroke="#999999" points="128,-305 0,-305 0,-275 128,-275 128,-305"/>
<text text-anchor="start" x="8" y="-293" font-family="Helvetica,sans-Serif" font-size="10.00">odp/api/abi/proto_stats</text>
<text text-anchor="middle" x="64" y="-282" font-family="Helvetica,sans-Serif" font-size="10.00">_types.h</text>
</a>
</g>
</g>
<!-- Node1&#45;&gt;Node12 -->
<g id="edge13_Node000001_Node000012" class="edge">
<title>Node1&#45;&gt;Node12</title>
<g id="a_edge13_Node000001_Node000012"><a xlink:title=" ">
<path fill="none" stroke="#63b8ff" d="M199.68,-478.06C148.58,-472.76 64.84,-460.65 46,-437 18,-401.85 36.99,-346.05 51.61,-314.59"/>
<polygon fill="#63b8ff" stroke="#63b8ff" points="54.91,-315.81 56.14,-305.28 48.61,-312.74 54.91,-315.81"/>
</a>
</g>
</g>
<!-- Node13 -->
<g id="Node000013" class="node">
<title>Node13</title>
<g id="a_Node000013"><a xlink:title=" ">
<polygon fill="#e0e0e0" stroke="#999999" points="448.5,-431.5 311.5,-431.5 311.5,-412.5 448.5,-412.5 448.5,-431.5"/>
<text text-anchor="middle" x="380" y="-419.5" font-family="Helvetica,sans-Serif" font-size="10.00">odp/api/abi/proto_stats.h</text>
</a>
</g>
</g>
<!-- Node1&#45;&gt;Node13 -->
<g id="edge14_Node000001_Node000013" class="edge">
<title>Node1&#45;&gt;Node13</title>
<g id="a_edge14_Node000001_Node000013"><a xlink:title=" ">
<path fill="none" stroke="#63b8ff" d="M260.36,-472.99C284,-463.12 323.2,-446.73 350.25,-435.43"/>
<polygon fill="#63b8ff" stroke="#63b8ff" points="351.74,-438.6 359.62,-431.52 349.04,-432.14 351.74,-438.6"/>
</a>
</g>
</g>
<!-- Node14 -->
<g id="Node000014" class="node">
<title>Node14</title>
<g id="a_Node000014"><a xlink:href="api_2spec_2proto__stats_8h.html" target="_top" xlink:title="ODP Proto Stats.">
<polygon fill="white" stroke="#666666" points="293.5,-437 186.5,-437 186.5,-407 293.5,-407 293.5,-437"/>
<text text-anchor="start" x="194.5" y="-425" font-family="Helvetica,sans-Serif" font-size="10.00">odp/api/spec/proto</text>
<text text-anchor="middle" x="240" y="-414" font-family="Helvetica,sans-Serif" font-size="10.00">_stats.h</text>
</a>
</g>
</g>
<!-- Node1&#45;&gt;Node14 -->
<g id="edge15_Node000001_Node000014" class="edge">
<title>Node1&#45;&gt;Node14</title>
<g id="a_edge15_Node000001_Node000014"><a xlink:title=" ">
<path fill="none" stroke="#63b8ff" d="M240,-472.87C240,-466.11 240,-456.35 240,-447.26"/>
<polygon fill="#63b8ff" stroke="#63b8ff" points="243.5,-447.11 240,-437.11 236.5,-447.11 243.5,-447.11"/>
</a>
</g>
</g>
<!-- Node3 -->
<g id="Node000003" class="node">
<title>Node3</title>
<g id="a_Node000003"><a xlink:title=" ">
<polygon fill="#e0e0e0" stroke="#999999" points="560,-184 430,-184 430,-165 560,-165 560,-184"/>
<text text-anchor="middle" x="495" y="-172" font-family="Helvetica,sans-Serif" font-size="10.00">odp/api/abi/std_types.h</text>
</a>
</g>
</g>
<!-- Node2&#45;&gt;Node3 -->
<g id="edge2_Node000002_Node000003" class="edge">
<title>Node2&#45;&gt;Node3</title>
<g id="a_edge2_Node000002_Node000003"><a xlink:title=" ">
<path fill="none" stroke="#63b8ff" d="M431.21,-219.98C442.78,-211.92 460.38,-199.65 474.16,-190.03"/>
<polygon fill="#63b8ff" stroke="#63b8ff" points="476.37,-192.76 482.57,-184.17 472.36,-187.02 476.37,-192.76"/>
</a>
</g>
</g>
<!-- Node4 -->
<g id="Node000004" class="node">
<title>Node4</title>
<g id="a_Node000004"><a xlink:href="api_2spec_2std__types_8h.html" target="_top" xlink:title="Common types and definitions for ODP API files.">
<polygon fill="white" stroke="#666666" points="411.5,-184 274.5,-184 274.5,-165 411.5,-165 411.5,-184"/>
<text text-anchor="middle" x="343" y="-172" font-family="Helvetica,sans-Serif" font-size="10.00">odp/api/spec/std_types.h</text>
</a>
</g>
</g>
<!-- Node2&#45;&gt;Node4 -->
<g id="edge3_Node000002_Node000004" class="edge">
<title>Node2&#45;&gt;Node4</title>
<g id="a_edge3_Node000002_Node000004"><a xlink:title=" ">
<path fill="none" stroke="#63b8ff" d="M406.79,-219.98C395.22,-211.92 377.62,-199.65 363.84,-190.03"/>
<polygon fill="#63b8ff" stroke="#63b8ff" points="365.64,-187.02 355.43,-184.17 361.63,-192.76 365.64,-187.02"/>
</a>
</g>
</g>
<!-- Node5 -->
<g id="Node000005" class="node">
<title>Node5</title>
<g id="a_Node000005"><a xlink:href="visibility__begin_8h_source.html" target="_top" xlink:title=" ">
<polygon fill="white" stroke="#666666" points="310.5,-19 189.5,-19 189.5,0 310.5,0 310.5,-19"/>
<text text-anchor="middle" x="250" y="-7" font-family="Helvetica,sans-Serif" font-size="10.00">odp/visibility_begin.h</text>
</a>
</g>
</g>
<!-- Node4&#45;&gt;Node5 -->
<g id="edge4_Node000004_Node000005" class="edge">
<title>Node4&#45;&gt;Node5</title>
<g id="a_edge4_Node000004_Node000005"><a xlink:title=" ">
<path fill="none" stroke="#63b8ff" d="M332.12,-164.96C322.14,-156.67 307.51,-143.26 298,-129 276.43,-96.65 261.91,-53.09 254.88,-28.8"/>
<polygon fill="#63b8ff" stroke="#63b8ff" points="258.24,-27.81 252.19,-19.11 251.5,-29.69 258.24,-27.81"/>
</a>
</g>
</g>
<!-- Node6 -->
<g id="Node000006" class="node">
<title>Node6</title>
<g id="a_Node000006"><a xlink:title=" ">
<polygon fill="#e0e0e0" stroke="#999999" points="360.5,-129 307.5,-129 307.5,-110 360.5,-110 360.5,-129"/>
<text text-anchor="middle" x="334" y="-117" font-family="Helvetica,sans-Serif" font-size="10.00">stdint.h</text>
</a>
</g>
</g>
<!-- Node4&#45;&gt;Node6 -->
<g id="edge5_Node000004_Node000006" class="edge">
<title>Node4&#45;&gt;Node6</title>
<g id="a_edge5_Node000004_Node000006"><a xlink:title=" ">
<path fill="none" stroke="#63b8ff" d="M341.51,-164.75C340.33,-157.8 338.64,-147.85 337.16,-139.13"/>
<polygon fill="#63b8ff" stroke="#63b8ff" points="340.58,-138.36 335.46,-129.09 333.68,-139.53 340.58,-138.36"/>
</a>
</g>
</g>
<!-- Node7 -->
<g id="Node000007" class="node">
<title>Node7</title>
<g id="a_Node000007"><a xlink:href="api_2align_8h.html" target="_top" xlink:title="ODP alignments.">
<polygon fill="white" stroke="#666666" points="467.5,-129 378.5,-129 378.5,-110 467.5,-110 467.5,-129"/>
<text text-anchor="middle" x="423" y="-117" font-family="Helvetica,sans-Serif" font-size="10.00">odp/api/align.h</text>
</a>
</g>
</g>
<!-- Node4&#45;&gt;Node7 -->
<g id="edge6_Node000004_Node000007" class="edge">
<title>Node4&#45;&gt;Node7</title>
<g id="a_edge6_Node000004_Node000007"><a xlink:title=" ">
<path fill="none" stroke="#63b8ff" d="M355.85,-164.98C368.14,-156.84 386.91,-144.41 401.48,-134.76"/>
<polygon fill="#63b8ff" stroke="#63b8ff" points="403.51,-137.61 409.91,-129.17 399.64,-131.78 403.51,-137.61"/>
</a>
</g>
</g>
<!-- Node10 -->
<g id="Node000010" class="node">
<title>Node10</title>
<g id="a_Node000010"><a xlink:href="visibility__end_8h_source.html" target="_top" xlink:title=" ">
<polygon fill="white" stroke="#666666" points="640,-19 528,-19 528,0 640,0 640,-19"/>
<text text-anchor="middle" x="584" y="-7" font-family="Helvetica,sans-Serif" font-size="10.00">odp/visibility_end.h</text>
</a>
</g>
</g>
<!-- Node4&#45;&gt;Node10 -->
<g id="edge11_Node000004_Node000010" class="edge">
<title>Node4&#45;&gt;Node10</title>
<g id="a_edge11_Node000004_Node000010"><a xlink:title=" ">
<path fill="none" stroke="#63b8ff" d="M379.97,-164.99C407.72,-157.72 446.08,-145.77 477,-129 511.48,-110.31 520.18,-103.52 546,-74 558.13,-60.13 568.6,-41.87 575.46,-28.49"/>
<polygon fill="#63b8ff" stroke="#63b8ff" points="578.67,-29.88 579.97,-19.36 572.4,-26.78 578.67,-29.88"/>
</a>
</g>
</g>
<!-- Node8 -->
<g id="Node000008" class="node">
<title>Node8</title>
<g id="a_Node000008"><a xlink:title=" ">
<polygon fill="#e0e0e0" stroke="#999999" points="536.5,-74 429.5,-74 429.5,-55 536.5,-55 536.5,-74"/>
<text text-anchor="middle" x="483" y="-62" font-family="Helvetica,sans-Serif" font-size="10.00">odp/api/abi/align.h</text>
</a>
</g>
</g>
<!-- Node7&#45;&gt;Node8 -->
<g id="edge7_Node000007_Node000008" class="edge">
<title>Node7&#45;&gt;Node8</title>
<g id="a_edge7_Node000007_Node000008"><a xlink:title=" ">
<path fill="none" stroke="#63b8ff" d="M432.64,-109.98C441.51,-102.15 454.87,-90.34 465.61,-80.86"/>
<polygon fill="#63b8ff" stroke="#63b8ff" points="468.01,-83.41 473.18,-74.17 463.37,-78.17 468.01,-83.41"/>
</a>
</g>
</g>
<!-- Node9 -->
<g id="Node000009" class="node">
<title>Node9</title>
<g id="a_Node000009"><a xlink:href="api_2spec_2align_8h.html" target="_top" xlink:title="ODP alignments.">
<polygon fill="white" stroke="#666666" points="411,-74 297,-74 297,-55 411,-55 411,-74"/>
<text text-anchor="middle" x="354" y="-62" font-family="Helvetica,sans-Serif" font-size="10.00">odp/api/spec/align.h</text>
</a>
</g>
</g>
<!-- Node7&#45;&gt;Node9 -->
<g id="edge8_Node000007_Node000009" class="edge">
<title>Node7&#45;&gt;Node9</title>
<g id="a_edge8_Node000007_Node000009"><a xlink:title=" ">
<path fill="none" stroke="#63b8ff" d="M411.91,-109.98C401.51,-102 385.74,-89.88 373.28,-80.31"/>
<polygon fill="#63b8ff" stroke="#63b8ff" points="375.35,-77.49 365.29,-74.17 371.09,-83.04 375.35,-77.49"/>
</a>
</g>
</g>
<!-- Node9&#45;&gt;Node5 -->
<g id="edge9_Node000009_Node000005" class="edge">
<title>Node9&#45;&gt;Node5</title>
<g id="a_edge9_Node000009_Node000005"><a xlink:title=" ">
<path fill="none" stroke="#63b8ff" d="M337.29,-54.98C320.79,-46.57 295.3,-33.59 276.12,-23.81"/>
<polygon fill="#63b8ff" stroke="#63b8ff" points="277.51,-20.59 267.01,-19.17 274.33,-26.83 277.51,-20.59"/>
</a>
</g>
</g>
<!-- Node9&#45;&gt;Node10 -->
<g id="edge10_Node000009_Node000010" class="edge">
<title>Node9&#45;&gt;Node10</title>
<g id="a_edge10_Node000009_Node000010"><a xlink:title=" ">
<path fill="none" stroke="#63b8ff" d="M390.95,-54.98C430.57,-45.86 493.59,-31.33 536.77,-21.38"/>
<polygon fill="#63b8ff" stroke="#63b8ff" points="537.8,-24.74 546.76,-19.08 536.23,-17.92 537.8,-24.74"/>
</a>
</g>
</g>
<!-- Node14&#45;&gt;Node5 -->
<g id="edge16_Node000014_Node000005" class="edge">
<title>Node14&#45;&gt;Node5</title>
<g id="a_edge16_Node000014_Node000005"><a xlink:title=" ">
<path fill="none" stroke="#63b8ff" d="M231.16,-406.79C217.54,-383.52 193,-335.4 193,-291 193,-291 193,-291 193,-118.5 193,-82.51 218.06,-46.76 234.95,-26.76"/>
<polygon fill="#63b8ff" stroke="#63b8ff" points="237.62,-29.02 241.59,-19.2 232.36,-24.4 237.62,-29.02"/>
</a>
</g>
</g>
<!-- Node14&#45;&gt;Node10 -->
<g id="edge23_Node000014_Node000010" class="edge">
<title>Node14&#45;&gt;Node10</title>
<g id="a_edge23_Node000014_Node000010"><a xlink:title=" ">
<path fill="none" stroke="#63b8ff" d="M293.66,-407.52C402.93,-378.49 641,-306.51 641,-230.5 641,-230.5 641,-230.5 641,-118.5 641,-82.51 615.94,-46.76 599.05,-26.76"/>
<polygon fill="#63b8ff" stroke="#63b8ff" points="601.64,-24.4 592.41,-19.2 596.38,-29.02 601.64,-24.4"/>
</a>
</g>
</g>
<!-- Node15 -->
<g id="Node000015" class="node">
<title>Node15</title>
<g id="a_Node000015"><a xlink:href="api_2proto__stats__types_8h.html" target="_top" xlink:title="ODP proto stats types.">
<polygon fill="white" stroke="#666666" points="165,-371 55,-371 55,-341 165,-341 165,-371"/>
<text text-anchor="start" x="63" y="-359" font-family="Helvetica,sans-Serif" font-size="10.00">odp/api/proto_stats</text>
<text text-anchor="middle" x="110" y="-348" font-family="Helvetica,sans-Serif" font-size="10.00">_types.h</text>
</a>
</g>
</g>
<!-- Node14&#45;&gt;Node15 -->
<g id="edge17_Node000014_Node000015" class="edge">
<title>Node14&#45;&gt;Node15</title>
<g id="a_edge17_Node000014_Node000015"><a xlink:title=" ">
<path fill="none" stroke="#63b8ff" d="M211.47,-406.95C192.67,-397.7 167.86,-385.49 147.48,-375.45"/>
<polygon fill="#63b8ff" stroke="#63b8ff" points="148.98,-372.29 138.46,-371.01 145.89,-378.57 148.98,-372.29"/>
</a>
</g>
</g>
<!-- Node15&#45;&gt;Node12 -->
<g id="edge18_Node000015_Node000012" class="edge">
<title>Node15&#45;&gt;Node12</title>
<g id="a_edge18_Node000015_Node000012"><a xlink:title=" ">
<path fill="none" stroke="#63b8ff" d="M99.79,-340.8C94.01,-332.76 86.66,-322.53 80.12,-313.43"/>
<polygon fill="#63b8ff" stroke="#63b8ff" points="82.86,-311.24 74.18,-305.16 77.17,-315.33 82.86,-311.24"/>
</a>
</g>
</g>
<!-- Node16 -->
<g id="Node000016" class="node">
<title>Node16</title>
<g id="a_Node000016"><a xlink:href="api_2spec_2proto__stats__types_8h.html" target="_top" xlink:title="ODP proto stats types.">
<polygon fill="white" stroke="#666666" points="400.5,-305 293.5,-305 293.5,-275 400.5,-275 400.5,-305"/>
<text text-anchor="start" x="301.5" y="-293" font-family="Helvetica,sans-Serif" font-size="10.00">odp/api/spec/proto</text>
<text text-anchor="middle" x="347" y="-282" font-family="Helvetica,sans-Serif" font-size="10.00">_stats_types.h</text>
</a>
</g>
</g>
<!-- Node15&#45;&gt;Node16 -->
<g id="edge19_Node000015_Node000016" class="edge">
<title>Node15&#45;&gt;Node16</title>
<g id="a_edge19_Node000015_Node000016"><a xlink:title=" ">
<path fill="none" stroke="#63b8ff" d="M162.01,-340.95C198.28,-331.16 246.85,-318.05 285.11,-307.71"/>
<polygon fill="#63b8ff" stroke="#63b8ff" points="286.37,-311 295.11,-305.01 284.54,-304.24 286.37,-311"/>
</a>
</g>
</g>
<!-- Node16&#45;&gt;Node2 -->
<g id="edge21_Node000016_Node000002" class="edge">
<title>Node16&#45;&gt;Node2</title>
<g id="a_edge21_Node000016_Node000002"><a xlink:title=" ">
<path fill="none" stroke="#63b8ff" d="M364.43,-274.84C375.31,-266 389.3,-254.63 400.39,-245.62"/>
<polygon fill="#63b8ff" stroke="#63b8ff" points="402.66,-248.29 408.21,-239.27 398.24,-242.86 402.66,-248.29"/>
</a>
</g>
</g>
<!-- Node16&#45;&gt;Node5 -->
<g id="edge20_Node000016_Node000005" class="edge">
<title>Node16&#45;&gt;Node5</title>
<g id="a_edge20_Node000016_Node000005"><a xlink:title=" ">
<path fill="none" stroke="#63b8ff" d="M315.61,-274.92C281.25,-257.13 231,-222.98 231,-175.5 231,-175.5 231,-175.5 231,-118.5 231,-86.56 239.16,-50.1 244.78,-28.77"/>
<polygon fill="#63b8ff" stroke="#63b8ff" points="248.17,-29.66 247.44,-19.09 241.42,-27.81 248.17,-29.66"/>
</a>
</g>
</g>
<!-- Node16&#45;&gt;Node10 -->
<g id="edge22_Node000016_Node000010" class="edge">
<title>Node16&#45;&gt;Node10</title>
<g id="a_edge22_Node000016_Node000010"><a xlink:title=" ">
<path fill="none" stroke="#63b8ff" d="M400.67,-288.1C475.73,-283.69 603,-263.25 603,-175.5 603,-175.5 603,-175.5 603,-118.5 603,-86.56 594.84,-50.1 589.22,-28.77"/>
<polygon fill="#63b8ff" stroke="#63b8ff" points="592.58,-27.81 586.56,-19.09 585.83,-29.66 592.58,-27.81"/>
</a>
</g>
</g>
</g>
</svg>
