<?xml version="1.0" encoding="UTF-8" standalone="no"?>
<!DOCTYPE svg PUBLIC "-//W3C//DTD SVG 1.1//EN"
 "http://www.w3.org/Graphics/SVG/1.1/DTD/svg11.dtd">
<!-- Generated by graphviz version 2.43.0 (0)
 -->
<!-- Title: hash.h Pages: 1 -->
<svg width="392pt" height="84pt"
 viewBox="0.00 0.00 392.00 84.00" xmlns="http://www.w3.org/2000/svg" xmlns:xlink="http://www.w3.org/1999/xlink">
<g id="graph0" class="graph" transform="scale(1 1) rotate(0) translate(4 80)">
<title>hash.h</title>
<polygon fill="white" stroke="transparent" points="-4,4 -4,-80 388,-80 388,4 -4,4"/>
<!-- Node1 -->
<g id="node1" class="node">
<title>Node1</title>
<g id="a_node1"><a xlink:title="ODP hash.">
<polygon fill="#bfbfbf" stroke="black" points="167,-56.5 167,-75.5 216,-75.5 216,-56.5 167,-56.5"/>
<text text-anchor="middle" x="191.5" y="-63.5" font-family="Helvetica,sans-Serif" font-size="10.00">hash.h</text>
</a>
</g>
</g>
<!-- Node2 -->
<g id="node2" class="node">
<title>Node2</title>
<g id="a_node2"><a xlink:href="arch_2arm32-linux_2odp_2api_2abi_2hash_8h_source.html" target="_top" xlink:title=" ">
<polygon fill="white" stroke="black" points="0,-0.5 0,-19.5 49,-19.5 49,-0.5 0,-0.5"/>
<text text-anchor="middle" x="24.5" y="-7.5" font-family="Helvetica,sans-Serif" font-size="10.00">hash.h</text>
</a>
</g>
</g>
<!-- Node1&#45;&gt;Node2 -->
<g id="edge1" class="edge">
<title>Node1&#45;&gt;Node2</title>
<path fill="none" stroke="midnightblue" d="M157,-53.84C124.87,-43.46 77.78,-28.23 49.24,-19"/>
<polygon fill="midnightblue" stroke="midnightblue" points="156.27,-57.29 166.86,-57.03 158.42,-50.63 156.27,-57.29"/>
</g>
<!-- Node3 -->
<g id="node3" class="node">
<title>Node3</title>
<g id="a_node3"><a xlink:href="arch_2arm64-linux_2odp_2api_2abi_2hash_8h_source.html" target="_top" xlink:title=" ">
<polygon fill="white" stroke="black" points="67,-0.5 67,-19.5 116,-19.5 116,-0.5 67,-0.5"/>
<text text-anchor="middle" x="91.5" y="-7.5" font-family="Helvetica,sans-Serif" font-size="10.00">hash.h</text>
</a>
</g>
</g>
<!-- Node1&#45;&gt;Node3 -->
<g id="edge2" class="edge">
<title>Node1&#45;&gt;Node3</title>
<path fill="none" stroke="midnightblue" d="M166.41,-51.45C147.95,-41.48 123.4,-28.23 107.53,-19.65"/>
<polygon fill="midnightblue" stroke="midnightblue" points="164.97,-54.65 175.43,-56.32 168.3,-48.49 164.97,-54.65"/>
</g>
<!-- Node4 -->
<g id="node4" class="node">
<title>Node4</title>
<g id="a_node4"><a xlink:href="arch_2default-linux_2odp_2api_2abi_2hash_8h_source.html" target="_top" xlink:title=" ">
<polygon fill="white" stroke="black" points="134,-0.5 134,-19.5 183,-19.5 183,-0.5 134,-0.5"/>
<text text-anchor="middle" x="158.5" y="-7.5" font-family="Helvetica,sans-Serif" font-size="10.00">hash.h</text>
</a>
</g>
</g>
<!-- Node1&#45;&gt;Node4 -->
<g id="edge3" class="edge">
<title>Node1&#45;&gt;Node4</title>
<path fill="none" stroke="midnightblue" d="M180.67,-47.27C175.03,-38.05 168.38,-27.17 163.85,-19.75"/>
<polygon fill="midnightblue" stroke="midnightblue" points="177.85,-49.38 186.05,-56.08 183.82,-45.73 177.85,-49.38"/>
</g>
<!-- Node5 -->
<g id="node5" class="node">
<title>Node5</title>
<g id="a_node5"><a xlink:href="arch_2power64-linux_2odp_2api_2abi_2hash_8h_source.html" target="_top" xlink:title=" ">
<polygon fill="white" stroke="black" points="201,-0.5 201,-19.5 250,-19.5 250,-0.5 201,-0.5"/>
<text text-anchor="middle" x="225.5" y="-7.5" font-family="Helvetica,sans-Serif" font-size="10.00">hash.h</text>
</a>
</g>
</g>
<!-- Node1&#45;&gt;Node5 -->
<g id="edge4" class="edge">
<title>Node1&#45;&gt;Node5</title>
<path fill="none" stroke="midnightblue" d="M202.48,-47.57C208.33,-38.27 215.27,-27.25 219.99,-19.75"/>
<polygon fill="midnightblue" stroke="midnightblue" points="199.48,-45.76 197.11,-56.08 205.4,-49.49 199.48,-45.76"/>
</g>
<!-- Node6 -->
<g id="node6" class="node">
<title>Node6</title>
<g id="a_node6"><a xlink:href="arch_2x86__32-linux_2odp_2api_2abi_2hash_8h_source.html" target="_top" xlink:title=" ">
<polygon fill="white" stroke="black" points="268,-0.5 268,-19.5 317,-19.5 317,-0.5 268,-0.5"/>
<text text-anchor="middle" x="292.5" y="-7.5" font-family="Helvetica,sans-Serif" font-size="10.00">hash.h</text>
</a>
</g>
</g>
<!-- Node1&#45;&gt;Node6 -->
<g id="edge5" class="edge">
<title>Node1&#45;&gt;Node6</title>
<path fill="none" stroke="midnightblue" d="M216.58,-51.59C235.26,-41.61 260.2,-28.27 276.31,-19.65"/>
<polygon fill="midnightblue" stroke="midnightblue" points="214.9,-48.52 207.73,-56.32 218.2,-54.7 214.9,-48.52"/>
</g>
<!-- Node7 -->
<g id="node7" class="node">
<title>Node7</title>
<g id="a_node7"><a xlink:href="arch_2x86__64-linux_2odp_2api_2abi_2hash_8h_source.html" target="_top" xlink:title=" ">
<polygon fill="white" stroke="black" points="335,-0.5 335,-19.5 384,-19.5 384,-0.5 335,-0.5"/>
<text text-anchor="middle" x="359.5" y="-7.5" font-family="Helvetica,sans-Serif" font-size="10.00">hash.h</text>
</a>
</g>
</g>
<!-- Node1&#45;&gt;Node7 -->
<g id="edge6" class="edge">
<title>Node1&#45;&gt;Node7</title>
<path fill="none" stroke="midnightblue" d="M225.82,-53.97C258.25,-43.55 306.09,-28.17 334.88,-18.91"/>
<polygon fill="midnightblue" stroke="midnightblue" points="224.74,-50.64 216.29,-57.03 226.88,-57.3 224.74,-50.64"/>
</g>
</g>
</svg>
