<?xml version="1.0" encoding="UTF-8" standalone="no"?>
<!DOCTYPE svg PUBLIC "-//W3C//DTD SVG 1.1//EN"
 "http://www.w3.org/Graphics/SVG/1.1/DTD/svg11.dtd">
<!-- Generated by graphviz version 2.43.0 (0)
 -->
<!-- Title: proto_stats_types.h Pages: 1 -->
<svg width="421pt" height="302pt"
 viewBox="0.00 0.00 420.50 302.00" xmlns="http://www.w3.org/2000/svg" xmlns:xlink="http://www.w3.org/1999/xlink">
<g id="graph0" class="graph" transform="scale(1 1) rotate(0) translate(4 298)">
<title>proto_stats_types.h</title>
<!-- Node1 -->
<g id="Node000001" class="node">
<title>Node1</title>
<g id="a_Node000001"><a xlink:title="ODP proto stats types.">
<polygon fill="#999999" stroke="#666666" points="249,-294 136,-294 136,-275 249,-275 249,-294"/>
<text text-anchor="middle" x="192.5" y="-282" font-family="Helvetica,sans-Serif" font-size="10.00">proto_stats_types.h</text>
</a>
</g>
</g>
<!-- Node2 -->
<g id="Node000002" class="node">
<title>Node2</title>
<g id="a_Node000002"><a xlink:href="visibility__begin_8h_source.html" target="_top" xlink:title=" ">
<polygon fill="white" stroke="#666666" points="121,-19 0,-19 0,0 121,0 121,-19"/>
<text text-anchor="middle" x="60.5" y="-7" font-family="Helvetica,sans-Serif" font-size="10.00">odp/visibility_begin.h</text>
</a>
</g>
</g>
<!-- Node1&#45;&gt;Node2 -->
<g id="edge1_Node000001_Node000002" class="edge">
<title>Node1&#45;&gt;Node2</title>
<g id="a_edge1_Node000001_Node000002"><a xlink:title=" ">
<path fill="none" stroke="#63b8ff" d="M146.5,-274.92C96.15,-262.56 22.5,-234.42 22.5,-175.5 22.5,-175.5 22.5,-175.5 22.5,-118.5 22.5,-85.02 38.95,-48.84 50.2,-28.01"/>
<polygon fill="#63b8ff" stroke="#63b8ff" points="53.37,-29.53 55.22,-19.1 47.26,-26.1 53.37,-29.53"/>
</a>
</g>
</g>
<!-- Node3 -->
<g id="Node000003" class="node">
<title>Node3</title>
<g id="a_Node000003"><a xlink:href="api_2std__types_8h.html" target="_top" xlink:title="Standard C language types and definitions for ODP.">
<polygon fill="white" stroke="#666666" points="248.5,-239 136.5,-239 136.5,-220 248.5,-220 248.5,-239"/>
<text text-anchor="middle" x="192.5" y="-227" font-family="Helvetica,sans-Serif" font-size="10.00">odp/api/std_types.h</text>
</a>
</g>
</g>
<!-- Node1&#45;&gt;Node3 -->
<g id="edge2_Node000001_Node000003" class="edge">
<title>Node1&#45;&gt;Node3</title>
<g id="a_edge2_Node000001_Node000003"><a xlink:title=" ">
<path fill="none" stroke="#63b8ff" d="M192.5,-274.75C192.5,-267.8 192.5,-257.85 192.5,-249.13"/>
<polygon fill="#63b8ff" stroke="#63b8ff" points="196,-249.09 192.5,-239.09 189,-249.09 196,-249.09"/>
</a>
</g>
</g>
<!-- Node10 -->
<g id="Node000010" class="node">
<title>Node10</title>
<g id="a_Node000010"><a xlink:href="visibility__end_8h_source.html" target="_top" xlink:title=" ">
<polygon fill="white" stroke="#666666" points="412.5,-19 300.5,-19 300.5,0 412.5,0 412.5,-19"/>
<text text-anchor="middle" x="356.5" y="-7" font-family="Helvetica,sans-Serif" font-size="10.00">odp/visibility_end.h</text>
</a>
</g>
</g>
<!-- Node1&#45;&gt;Node10 -->
<g id="edge13_Node000001_Node000010" class="edge">
<title>Node1&#45;&gt;Node10</title>
<g id="a_edge13_Node000001_Node000010"><a xlink:title=" ">
<path fill="none" stroke="#63b8ff" d="M249.04,-277.45C308.8,-267.56 394.5,-241.81 394.5,-175.5 394.5,-175.5 394.5,-175.5 394.5,-118.5 394.5,-85.02 378.05,-48.84 366.8,-28.01"/>
<polygon fill="#63b8ff" stroke="#63b8ff" points="369.74,-26.1 361.78,-19.1 363.63,-29.53 369.74,-26.1"/>
</a>
</g>
</g>
<!-- Node4 -->
<g id="Node000004" class="node">
<title>Node4</title>
<g id="a_Node000004"><a xlink:title=" ">
<polygon fill="#e0e0e0" stroke="#999999" points="181.5,-184 51.5,-184 51.5,-165 181.5,-165 181.5,-184"/>
<text text-anchor="middle" x="116.5" y="-172" font-family="Helvetica,sans-Serif" font-size="10.00">odp/api/abi/std_types.h</text>
</a>
</g>
</g>
<!-- Node3&#45;&gt;Node4 -->
<g id="edge3_Node000003_Node000004" class="edge">
<title>Node3&#45;&gt;Node4</title>
<g id="a_edge3_Node000003_Node000004"><a xlink:title=" ">
<path fill="none" stroke="#63b8ff" d="M180.29,-219.98C168.72,-211.92 151.12,-199.65 137.34,-190.03"/>
<polygon fill="#63b8ff" stroke="#63b8ff" points="139.14,-187.02 128.93,-184.17 135.13,-192.76 139.14,-187.02"/>
</a>
</g>
</g>
<!-- Node5 -->
<g id="Node000005" class="node">
<title>Node5</title>
<g id="a_Node000005"><a xlink:href="api_2spec_2std__types_8h.html" target="_top" xlink:title="Common types and definitions for ODP API files.">
<polygon fill="white" stroke="#666666" points="337,-184 200,-184 200,-165 337,-165 337,-184"/>
<text text-anchor="middle" x="268.5" y="-172" font-family="Helvetica,sans-Serif" font-size="10.00">odp/api/spec/std_types.h</text>
</a>
</g>
</g>
<!-- Node3&#45;&gt;Node5 -->
<g id="edge4_Node000003_Node000005" class="edge">
<title>Node3&#45;&gt;Node5</title>
<g id="a_edge4_Node000003_Node000005"><a xlink:title=" ">
<path fill="none" stroke="#63b8ff" d="M204.71,-219.98C216.28,-211.92 233.88,-199.65 247.66,-190.03"/>
<polygon fill="#63b8ff" stroke="#63b8ff" points="249.87,-192.76 256.07,-184.17 245.86,-187.02 249.87,-192.76"/>
</a>
</g>
</g>
<!-- Node5&#45;&gt;Node2 -->
<g id="edge5_Node000005_Node000002" class="edge">
<title>Node5&#45;&gt;Node2</title>
<g id="a_edge5_Node000005_Node000002"><a xlink:title=" ">
<path fill="none" stroke="#63b8ff" d="M229.35,-164.9C184.78,-152.84 113.72,-126.28 79.5,-74 70.64,-60.46 65.78,-42.64 63.2,-29.32"/>
<polygon fill="#63b8ff" stroke="#63b8ff" points="66.64,-28.67 61.53,-19.38 59.73,-29.83 66.64,-28.67"/>
</a>
</g>
</g>
<!-- Node6 -->
<g id="Node000006" class="node">
<title>Node6</title>
<g id="a_Node000006"><a xlink:title=" ">
<polygon fill="#e0e0e0" stroke="#999999" points="207,-129 154,-129 154,-110 207,-110 207,-129"/>
<text text-anchor="middle" x="180.5" y="-117" font-family="Helvetica,sans-Serif" font-size="10.00">stdint.h</text>
</a>
</g>
</g>
<!-- Node5&#45;&gt;Node6 -->
<g id="edge6_Node000005_Node000006" class="edge">
<title>Node5&#45;&gt;Node6</title>
<g id="a_edge6_Node000005_Node000006"><a xlink:title=" ">
<path fill="none" stroke="#63b8ff" d="M254.36,-164.98C240.71,-156.77 219.81,-144.18 203.72,-134.49"/>
<polygon fill="#63b8ff" stroke="#63b8ff" points="205.27,-131.33 194.9,-129.17 201.66,-137.33 205.27,-131.33"/>
</a>
</g>
</g>
<!-- Node7 -->
<g id="Node000007" class="node">
<title>Node7</title>
<g id="a_Node000007"><a xlink:href="api_2align_8h.html" target="_top" xlink:title="ODP alignments.">
<polygon fill="white" stroke="#666666" points="314,-129 225,-129 225,-110 314,-110 314,-129"/>
<text text-anchor="middle" x="269.5" y="-117" font-family="Helvetica,sans-Serif" font-size="10.00">odp/api/align.h</text>
</a>
</g>
</g>
<!-- Node5&#45;&gt;Node7 -->
<g id="edge7_Node000005_Node000007" class="edge">
<title>Node5&#45;&gt;Node7</title>
<g id="a_edge7_Node000005_Node000007"><a xlink:title=" ">
<path fill="none" stroke="#63b8ff" d="M268.67,-164.75C268.8,-157.8 268.98,-147.85 269.15,-139.13"/>
<polygon fill="#63b8ff" stroke="#63b8ff" points="272.65,-139.15 269.34,-129.09 265.65,-139.02 272.65,-139.15"/>
</a>
</g>
</g>
<!-- Node5&#45;&gt;Node10 -->
<g id="edge12_Node000005_Node000010" class="edge">
<title>Node5&#45;&gt;Node10</title>
<g id="a_edge12_Node000005_Node000010"><a xlink:title=" ">
<path fill="none" stroke="#63b8ff" d="M283.78,-164.85C296.24,-157.03 313.39,-144.4 323.5,-129 343.94,-97.87 351.85,-54.17 354.81,-29.46"/>
<polygon fill="#63b8ff" stroke="#63b8ff" points="358.32,-29.59 355.88,-19.28 351.35,-28.86 358.32,-29.59"/>
</a>
</g>
</g>
<!-- Node8 -->
<g id="Node000008" class="node">
<title>Node8</title>
<g id="a_Node000008"><a xlink:title=" ">
<polygon fill="#e0e0e0" stroke="#999999" points="196,-74 89,-74 89,-55 196,-55 196,-74"/>
<text text-anchor="middle" x="142.5" y="-62" font-family="Helvetica,sans-Serif" font-size="10.00">odp/api/abi/align.h</text>
</a>
</g>
</g>
<!-- Node7&#45;&gt;Node8 -->
<g id="edge8_Node000007_Node000008" class="edge">
<title>Node7&#45;&gt;Node8</title>
<g id="a_edge8_Node000007_Node000008"><a xlink:title=" ">
<path fill="none" stroke="#63b8ff" d="M249.1,-109.98C228.48,-101.38 196.39,-87.99 172.81,-78.15"/>
<polygon fill="#63b8ff" stroke="#63b8ff" points="173.85,-74.79 163.28,-74.17 171.16,-81.25 173.85,-74.79"/>
</a>
</g>
</g>
<!-- Node9 -->
<g id="Node000009" class="node">
<title>Node9</title>
<g id="a_Node000009"><a xlink:href="api_2spec_2align_8h.html" target="_top" xlink:title="ODP alignments.">
<polygon fill="white" stroke="#666666" points="328.5,-74 214.5,-74 214.5,-55 328.5,-55 328.5,-74"/>
<text text-anchor="middle" x="271.5" y="-62" font-family="Helvetica,sans-Serif" font-size="10.00">odp/api/spec/align.h</text>
</a>
</g>
</g>
<!-- Node7&#45;&gt;Node9 -->
<g id="edge9_Node000007_Node000009" class="edge">
<title>Node7&#45;&gt;Node9</title>
<g id="a_edge9_Node000007_Node000009"><a xlink:title=" ">
<path fill="none" stroke="#63b8ff" d="M269.83,-109.75C270.09,-102.8 270.47,-92.85 270.8,-84.13"/>
<polygon fill="#63b8ff" stroke="#63b8ff" points="274.3,-84.21 271.18,-74.09 267.3,-83.95 274.3,-84.21"/>
</a>
</g>
</g>
<!-- Node9&#45;&gt;Node2 -->
<g id="edge10_Node000009_Node000002" class="edge">
<title>Node9&#45;&gt;Node2</title>
<g id="a_edge10_Node000009_Node000002"><a xlink:title=" ">
<path fill="none" stroke="#63b8ff" d="M237.6,-54.98C201.48,-45.91 144.18,-31.52 104.58,-21.57"/>
<polygon fill="#63b8ff" stroke="#63b8ff" points="105.22,-18.12 94.67,-19.08 103.51,-24.91 105.22,-18.12"/>
</a>
</g>
</g>
<!-- Node9&#45;&gt;Node10 -->
<g id="edge11_Node000009_Node000010" class="edge">
<title>Node9&#45;&gt;Node10</title>
<g id="a_edge11_Node000009_Node000010"><a xlink:title=" ">
<path fill="none" stroke="#63b8ff" d="M285.16,-54.98C298.34,-46.77 318.53,-34.18 334.07,-24.49"/>
<polygon fill="#63b8ff" stroke="#63b8ff" points="335.96,-27.43 342.59,-19.17 332.26,-21.49 335.96,-27.43"/>
</a>
</g>
</g>
</g>
</svg>
