<?xml version="1.0" encoding="UTF-8" standalone="no"?>
<!DOCTYPE svg PUBLIC "-//W3C//DTD SVG 1.1//EN"
 "http://www.w3.org/Graphics/SVG/1.1/DTD/svg11.dtd">
<!-- Generated by graphviz version 2.43.0 (0)
 -->
<!-- Title: spinlock_recursive.h Pages: 1 -->
<svg width="589pt" height="302pt"
 viewBox="0.00 0.00 589.27 302.00" xmlns="http://www.w3.org/2000/svg" xmlns:xlink="http://www.w3.org/1999/xlink">
<g id="graph0" class="graph" transform="scale(1 1) rotate(0) translate(4 298)">
<title>spinlock_recursive.h</title>
<!-- Node1 -->
<g id="Node000001" class="node">
<title>Node1</title>
<g id="a_Node000001"><a xlink:title="ODP recursive spinlock.">
<polygon fill="#999999" stroke="#666666" points="203.5,-294 87.5,-294 87.5,-275 203.5,-275 203.5,-294"/>
<text text-anchor="middle" x="145.5" y="-282" font-family="Helvetica,sans-Serif" font-size="10.00">spinlock_recursive.h</text>
</a>
</g>
</g>
<!-- Node2 -->
<g id="Node000002" class="node">
<title>Node2</title>
<g id="a_Node000002"><a xlink:href="api_2spinlock_8h.html" target="_top" xlink:title="ODP spinlock.">
<polygon fill="white" stroke="#666666" points="152,-129 47,-129 47,-110 152,-110 152,-129"/>
<text text-anchor="middle" x="99.5" y="-117" font-family="Helvetica,sans-Serif" font-size="10.00">odp/api/spinlock.h</text>
</a>
</g>
</g>
<!-- Node1&#45;&gt;Node2 -->
<g id="edge1_Node000001_Node000002" class="edge">
<title>Node1&#45;&gt;Node2</title>
<g id="a_edge1_Node000001_Node000002"><a xlink:title=" ">
<path fill="none" stroke="#63b8ff" d="M141.51,-274.78C137.56,-265.91 131.54,-251.71 127.5,-239 116.48,-204.38 107.64,-162.83 103.01,-139.26"/>
<polygon fill="#63b8ff" stroke="#63b8ff" points="106.41,-138.41 101.09,-129.25 99.54,-139.73 106.41,-138.41"/>
</a>
</g>
</g>
<!-- Node7 -->
<g id="Node000007" class="node">
<title>Node7</title>
<g id="a_Node000007"><a xlink:href="api_2std__types_8h.html" target="_top" xlink:title="Standard C language types and definitions for ODP.">
<polygon fill="white" stroke="#666666" points="248.5,-239 136.5,-239 136.5,-220 248.5,-220 248.5,-239"/>
<text text-anchor="middle" x="192.5" y="-227" font-family="Helvetica,sans-Serif" font-size="10.00">odp/api/std_types.h</text>
</a>
</g>
</g>
<!-- Node1&#45;&gt;Node7 -->
<g id="edge6_Node000001_Node000007" class="edge">
<title>Node1&#45;&gt;Node7</title>
<g id="a_edge6_Node000001_Node000007"><a xlink:title=" ">
<path fill="none" stroke="#63b8ff" d="M153.26,-274.75C159.97,-267.18 169.84,-256.05 178.01,-246.84"/>
<polygon fill="#63b8ff" stroke="#63b8ff" points="180.87,-248.89 184.88,-239.09 175.63,-244.25 180.87,-248.89"/>
</a>
</g>
</g>
<!-- Node3 -->
<g id="Node000003" class="node">
<title>Node3</title>
<g id="a_Node000003"><a xlink:title=" ">
<polygon fill="#e0e0e0" stroke="#999999" points="123,-74 0,-74 0,-55 123,-55 123,-74"/>
<text text-anchor="middle" x="61.5" y="-62" font-family="Helvetica,sans-Serif" font-size="10.00">odp/api/abi/spinlock.h</text>
</a>
</g>
</g>
<!-- Node2&#45;&gt;Node3 -->
<g id="edge2_Node000002_Node000003" class="edge">
<title>Node2&#45;&gt;Node3</title>
<g id="a_edge2_Node000002_Node000003"><a xlink:title=" ">
<path fill="none" stroke="#63b8ff" d="M93.23,-109.75C87.91,-102.34 80.14,-91.5 73.62,-82.41"/>
<polygon fill="#63b8ff" stroke="#63b8ff" points="76.33,-80.18 67.66,-74.09 70.64,-84.26 76.33,-80.18"/>
</a>
</g>
</g>
<!-- Node4 -->
<g id="Node000004" class="node">
<title>Node4</title>
<g id="a_Node000004"><a xlink:href="api_2spec_2spinlock_8h.html" target="_top" xlink:title="ODP spinlock.">
<polygon fill="white" stroke="#666666" points="272,-74 141,-74 141,-55 272,-55 272,-74"/>
<text text-anchor="middle" x="206.5" y="-62" font-family="Helvetica,sans-Serif" font-size="10.00">odp/api/spec/spinlock.h</text>
</a>
</g>
</g>
<!-- Node2&#45;&gt;Node4 -->
<g id="edge3_Node000002_Node000004" class="edge">
<title>Node2&#45;&gt;Node4</title>
<g id="a_edge3_Node000002_Node000004"><a xlink:title=" ">
<path fill="none" stroke="#63b8ff" d="M116.69,-109.98C133.75,-101.54 160.13,-88.47 179.9,-78.68"/>
<polygon fill="#63b8ff" stroke="#63b8ff" points="181.59,-81.75 189,-74.17 178.48,-75.47 181.59,-81.75"/>
</a>
</g>
</g>
<!-- Node5 -->
<g id="Node000005" class="node">
<title>Node5</title>
<g id="a_Node000005"><a xlink:href="visibility__begin_8h_source.html" target="_top" xlink:title=" ">
<polygon fill="white" stroke="#666666" points="572,-19 451,-19 451,0 572,0 572,-19"/>
<text text-anchor="middle" x="511.5" y="-7" font-family="Helvetica,sans-Serif" font-size="10.00">odp/visibility_begin.h</text>
</a>
</g>
</g>
<!-- Node4&#45;&gt;Node5 -->
<g id="edge4_Node000004_Node000005" class="edge">
<title>Node4&#45;&gt;Node5</title>
<g id="a_edge4_Node000004_Node000005"><a xlink:title=" ">
<path fill="none" stroke="#63b8ff" d="M255.5,-54.98C309.12,-45.67 395.04,-30.74 452.36,-20.78"/>
<polygon fill="#63b8ff" stroke="#63b8ff" points="453.11,-24.2 462.37,-19.04 451.91,-17.3 453.11,-24.2"/>
</a>
</g>
</g>
<!-- Node6 -->
<g id="Node000006" class="node">
<title>Node6</title>
<g id="a_Node000006"><a xlink:href="visibility__end_8h_source.html" target="_top" xlink:title=" ">
<polygon fill="white" stroke="#666666" points="356.5,-19 244.5,-19 244.5,0 356.5,0 356.5,-19"/>
<text text-anchor="middle" x="300.5" y="-7" font-family="Helvetica,sans-Serif" font-size="10.00">odp/visibility_end.h</text>
</a>
</g>
</g>
<!-- Node4&#45;&gt;Node6 -->
<g id="edge5_Node000004_Node000006" class="edge">
<title>Node4&#45;&gt;Node6</title>
<g id="a_edge5_Node000004_Node000006"><a xlink:title=" ">
<path fill="none" stroke="#63b8ff" d="M221.6,-54.98C236.32,-46.69 258.92,-33.94 276.17,-24.22"/>
<polygon fill="#63b8ff" stroke="#63b8ff" points="278.13,-27.13 285.12,-19.17 274.69,-21.03 278.13,-27.13"/>
</a>
</g>
</g>
<!-- Node8 -->
<g id="Node000008" class="node">
<title>Node8</title>
<g id="a_Node000008"><a xlink:title=" ">
<polygon fill="#e0e0e0" stroke="#999999" points="257.5,-184 127.5,-184 127.5,-165 257.5,-165 257.5,-184"/>
<text text-anchor="middle" x="192.5" y="-172" font-family="Helvetica,sans-Serif" font-size="10.00">odp/api/abi/std_types.h</text>
</a>
</g>
</g>
<!-- Node7&#45;&gt;Node8 -->
<g id="edge7_Node000007_Node000008" class="edge">
<title>Node7&#45;&gt;Node8</title>
<g id="a_edge7_Node000007_Node000008"><a xlink:title=" ">
<path fill="none" stroke="#63b8ff" d="M192.5,-219.75C192.5,-212.8 192.5,-202.85 192.5,-194.13"/>
<polygon fill="#63b8ff" stroke="#63b8ff" points="196,-194.09 192.5,-184.09 189,-194.09 196,-194.09"/>
</a>
</g>
</g>
<!-- Node9 -->
<g id="Node000009" class="node">
<title>Node9</title>
<g id="a_Node000009"><a xlink:href="api_2spec_2std__types_8h.html" target="_top" xlink:title="Common types and definitions for ODP API files.">
<polygon fill="white" stroke="#666666" points="413,-184 276,-184 276,-165 413,-165 413,-184"/>
<text text-anchor="middle" x="344.5" y="-172" font-family="Helvetica,sans-Serif" font-size="10.00">odp/api/spec/std_types.h</text>
</a>
</g>
</g>
<!-- Node7&#45;&gt;Node9 -->
<g id="edge8_Node000007_Node000009" class="edge">
<title>Node7&#45;&gt;Node9</title>
<g id="a_edge8_Node000007_Node000009"><a xlink:title=" ">
<path fill="none" stroke="#63b8ff" d="M216.92,-219.98C242.22,-211.16 281.95,-197.31 310.36,-187.41"/>
<polygon fill="#63b8ff" stroke="#63b8ff" points="311.6,-190.68 319.89,-184.08 309.29,-184.07 311.6,-190.68"/>
</a>
</g>
</g>
<!-- Node9&#45;&gt;Node5 -->
<g id="edge9_Node000009_Node000005" class="edge">
<title>Node9&#45;&gt;Node5</title>
<g id="a_edge9_Node000009_Node000005"><a xlink:title=" ">
<path fill="none" stroke="#63b8ff" d="M411.47,-164.99C466.41,-154.08 540.9,-129.42 577.5,-74 590.75,-53.94 565.33,-35.43 542.3,-23.63"/>
<polygon fill="#63b8ff" stroke="#63b8ff" points="543.55,-20.35 533.02,-19.15 540.51,-26.65 543.55,-20.35"/>
</a>
</g>
</g>
<!-- Node9&#45;&gt;Node6 -->
<g id="edge16_Node000009_Node000006" class="edge">
<title>Node9&#45;&gt;Node6</title>
<g id="a_edge16_Node000009_Node000006"><a xlink:title=" ">
<path fill="none" stroke="#63b8ff" d="M341.29,-164.7C338.09,-155.78 333.14,-141.53 329.5,-129 319.35,-94.04 309.76,-52.61 304.55,-29.15"/>
<polygon fill="#63b8ff" stroke="#63b8ff" points="307.92,-28.21 302.36,-19.19 301.09,-29.71 307.92,-28.21"/>
</a>
</g>
</g>
<!-- Node10 -->
<g id="Node000010" class="node">
<title>Node10</title>
<g id="a_Node000010"><a xlink:title=" ">
<polygon fill="#e0e0e0" stroke="#999999" points="272,-129 219,-129 219,-110 272,-110 272,-129"/>
<text text-anchor="middle" x="245.5" y="-117" font-family="Helvetica,sans-Serif" font-size="10.00">stdint.h</text>
</a>
</g>
</g>
<!-- Node9&#45;&gt;Node10 -->
<g id="edge10_Node000009_Node000010" class="edge">
<title>Node9&#45;&gt;Node10</title>
<g id="a_edge10_Node000009_Node000010"><a xlink:title=" ">
<path fill="none" stroke="#63b8ff" d="M328.59,-164.98C312.95,-156.61 288.84,-143.7 270.62,-133.95"/>
<polygon fill="#63b8ff" stroke="#63b8ff" points="272.16,-130.8 261.7,-129.17 268.86,-136.98 272.16,-130.8"/>
</a>
</g>
</g>
<!-- Node11 -->
<g id="Node000011" class="node">
<title>Node11</title>
<g id="a_Node000011"><a xlink:href="api_2align_8h.html" target="_top" xlink:title="ODP alignments.">
<polygon fill="white" stroke="#666666" points="427,-129 338,-129 338,-110 427,-110 427,-129"/>
<text text-anchor="middle" x="382.5" y="-117" font-family="Helvetica,sans-Serif" font-size="10.00">odp/api/align.h</text>
</a>
</g>
</g>
<!-- Node9&#45;&gt;Node11 -->
<g id="edge11_Node000009_Node000011" class="edge">
<title>Node9&#45;&gt;Node11</title>
<g id="a_edge11_Node000009_Node000011"><a xlink:title=" ">
<path fill="none" stroke="#63b8ff" d="M350.77,-164.75C356.09,-157.34 363.86,-146.5 370.38,-137.41"/>
<polygon fill="#63b8ff" stroke="#63b8ff" points="373.36,-139.26 376.34,-129.09 367.67,-135.18 373.36,-139.26"/>
</a>
</g>
</g>
<!-- Node12 -->
<g id="Node000012" class="node">
<title>Node12</title>
<g id="a_Node000012"><a xlink:title=" ">
<polygon fill="#e0e0e0" stroke="#999999" points="436,-74 329,-74 329,-55 436,-55 436,-74"/>
<text text-anchor="middle" x="382.5" y="-62" font-family="Helvetica,sans-Serif" font-size="10.00">odp/api/abi/align.h</text>
</a>
</g>
</g>
<!-- Node11&#45;&gt;Node12 -->
<g id="edge12_Node000011_Node000012" class="edge">
<title>Node11&#45;&gt;Node12</title>
<g id="a_edge12_Node000011_Node000012"><a xlink:title=" ">
<path fill="none" stroke="#63b8ff" d="M382.5,-109.75C382.5,-102.8 382.5,-92.85 382.5,-84.13"/>
<polygon fill="#63b8ff" stroke="#63b8ff" points="386,-84.09 382.5,-74.09 379,-84.09 386,-84.09"/>
</a>
</g>
</g>
<!-- Node13 -->
<g id="Node000013" class="node">
<title>Node13</title>
<g id="a_Node000013"><a xlink:href="api_2spec_2align_8h.html" target="_top" xlink:title="ODP alignments.">
<polygon fill="white" stroke="#666666" points="568.5,-74 454.5,-74 454.5,-55 568.5,-55 568.5,-74"/>
<text text-anchor="middle" x="511.5" y="-62" font-family="Helvetica,sans-Serif" font-size="10.00">odp/api/spec/align.h</text>
</a>
</g>
</g>
<!-- Node11&#45;&gt;Node13 -->
<g id="edge13_Node000011_Node000013" class="edge">
<title>Node11&#45;&gt;Node13</title>
<g id="a_edge13_Node000011_Node000013"><a xlink:title=" ">
<path fill="none" stroke="#63b8ff" d="M403.23,-109.98C424.26,-101.34 457.05,-87.87 481.04,-78.02"/>
<polygon fill="#63b8ff" stroke="#63b8ff" points="482.48,-81.21 490.4,-74.17 479.82,-74.73 482.48,-81.21"/>
</a>
</g>
</g>
<!-- Node13&#45;&gt;Node5 -->
<g id="edge14_Node000013_Node000005" class="edge">
<title>Node13&#45;&gt;Node5</title>
<g id="a_edge14_Node000013_Node000005"><a xlink:title=" ">
<path fill="none" stroke="#63b8ff" d="M511.5,-54.75C511.5,-47.8 511.5,-37.85 511.5,-29.13"/>
<polygon fill="#63b8ff" stroke="#63b8ff" points="515,-29.09 511.5,-19.09 508,-29.09 515,-29.09"/>
</a>
</g>
</g>
<!-- Node13&#45;&gt;Node6 -->
<g id="edge15_Node000013_Node000006" class="edge">
<title>Node13&#45;&gt;Node6</title>
<g id="a_edge15_Node000013_Node000006"><a xlink:title=" ">
<path fill="none" stroke="#63b8ff" d="M477.6,-54.98C441.48,-45.91 384.18,-31.52 344.58,-21.57"/>
<polygon fill="#63b8ff" stroke="#63b8ff" points="345.22,-18.12 334.67,-19.08 343.51,-24.91 345.22,-18.12"/>
</a>
</g>
</g>
</g>
</svg>
