<?xml version="1.0" encoding="UTF-8" standalone="no"?>
<!DOCTYPE svg PUBLIC "-//W3C//DTD SVG 1.1//EN"
 "http://www.w3.org/Graphics/SVG/1.1/DTD/svg11.dtd">
<!-- Generated by graphviz version 2.43.0 (0)
 -->
<!-- Title: byteorder.h Pages: 1 -->
<svg width="530pt" height="82pt"
 viewBox="0.00 0.00 530.00 82.00" xmlns="http://www.w3.org/2000/svg" xmlns:xlink="http://www.w3.org/1999/xlink">
<g id="graph0" class="graph" transform="scale(1 1) rotate(0) translate(4 78)">
<title>byteorder.h</title>
<!-- Node1 -->
<g id="Node000001" class="node">
<title>Node1</title>
<g id="a_Node000001"><a xlink:title="ODP byteorder.">
<polygon fill="#999999" stroke="#666666" points="297,-74 225,-74 225,-55 297,-55 297,-74"/>
<text text-anchor="middle" x="261" y="-62" font-family="Helvetica,sans-Serif" font-size="10.00">byteorder.h</text>
</a>
</g>
</g>
<!-- Node2 -->
<g id="Node000002" class="node">
<title>Node2</title>
<g id="a_Node000002"><a xlink:href="arch_2arm32-linux_2odp_2api_2abi_2byteorder_8h_source.html" target="_top" xlink:title=" ">
<polygon fill="white" stroke="#666666" points="72,-19 0,-19 0,0 72,0 72,-19"/>
<text text-anchor="middle" x="36" y="-7" font-family="Helvetica,sans-Serif" font-size="10.00">byteorder.h</text>
</a>
</g>
</g>
<!-- Node1&#45;&gt;Node2 -->
<g id="edge1_Node000001_Node000002" class="edge">
<title>Node1&#45;&gt;Node2</title>
<g id="a_edge1_Node000001_Node000002"><a xlink:title=" ">
<path fill="none" stroke="#63b8ff" d="M215.08,-52.68C172.79,-42.72 110.9,-28.14 72.06,-18.99"/>
<polygon fill="#63b8ff" stroke="#63b8ff" points="214.31,-56.1 224.85,-54.98 215.92,-49.28 214.31,-56.1"/>
</a>
</g>
</g>
<!-- Node3 -->
<g id="Node000003" class="node">
<title>Node3</title>
<g id="a_Node000003"><a xlink:href="arch_2arm64-linux_2odp_2api_2abi_2byteorder_8h_source.html" target="_top" xlink:title=" ">
<polygon fill="white" stroke="#666666" points="162,-19 90,-19 90,0 162,0 162,-19"/>
<text text-anchor="middle" x="126" y="-7" font-family="Helvetica,sans-Serif" font-size="10.00">byteorder.h</text>
</a>
</g>
</g>
<!-- Node1&#45;&gt;Node3 -->
<g id="edge2_Node000001_Node000003" class="edge">
<title>Node1&#45;&gt;Node3</title>
<g id="a_edge2_Node000001_Node000003"><a xlink:title=" ">
<path fill="none" stroke="#63b8ff" d="M229.9,-51.29C204.88,-41.47 170.34,-27.91 148.08,-19.17"/>
<polygon fill="#63b8ff" stroke="#63b8ff" points="228.72,-54.59 239.31,-54.98 231.28,-48.07 228.72,-54.59"/>
</a>
</g>
</g>
<!-- Node4 -->
<g id="Node000004" class="node">
<title>Node4</title>
<g id="a_Node000004"><a xlink:href="arch_2default-linux_2odp_2api_2abi_2byteorder_8h_source.html" target="_top" xlink:title=" ">
<polygon fill="white" stroke="#666666" points="252,-19 180,-19 180,0 252,0 252,-19"/>
<text text-anchor="middle" x="216" y="-7" font-family="Helvetica,sans-Serif" font-size="10.00">byteorder.h</text>
</a>
</g>
</g>
<!-- Node1&#45;&gt;Node4 -->
<g id="edge3_Node000001_Node000004" class="edge">
<title>Node1&#45;&gt;Node4</title>
<g id="a_edge3_Node000001_Node000004"><a xlink:title=" ">
<path fill="none" stroke="#63b8ff" d="M246.95,-46.96C239.11,-37.72 229.67,-26.6 223.29,-19.09"/>
<polygon fill="#63b8ff" stroke="#63b8ff" points="244.43,-49.39 253.57,-54.75 249.76,-44.86 244.43,-49.39"/>
</a>
</g>
</g>
<!-- Node5 -->
<g id="Node000005" class="node">
<title>Node5</title>
<g id="a_Node000005"><a xlink:href="arch_2power64-linux_2odp_2api_2abi_2byteorder_8h_source.html" target="_top" xlink:title=" ">
<polygon fill="white" stroke="#666666" points="342,-19 270,-19 270,0 342,0 342,-19"/>
<text text-anchor="middle" x="306" y="-7" font-family="Helvetica,sans-Serif" font-size="10.00">byteorder.h</text>
</a>
</g>
</g>
<!-- Node1&#45;&gt;Node5 -->
<g id="edge4_Node000001_Node000005" class="edge">
<title>Node1&#45;&gt;Node5</title>
<g id="a_edge4_Node000001_Node000005"><a xlink:title=" ">
<path fill="none" stroke="#63b8ff" d="M275.05,-46.96C282.89,-37.72 292.33,-26.6 298.71,-19.09"/>
<polygon fill="#63b8ff" stroke="#63b8ff" points="272.24,-44.86 268.43,-54.75 277.57,-49.39 272.24,-44.86"/>
</a>
</g>
</g>
<!-- Node6 -->
<g id="Node000006" class="node">
<title>Node6</title>
<g id="a_Node000006"><a xlink:href="arch_2x86__32-linux_2odp_2api_2abi_2byteorder_8h_source.html" target="_top" xlink:title=" ">
<polygon fill="white" stroke="#666666" points="432,-19 360,-19 360,0 432,0 432,-19"/>
<text text-anchor="middle" x="396" y="-7" font-family="Helvetica,sans-Serif" font-size="10.00">byteorder.h</text>
</a>
</g>
</g>
<!-- Node1&#45;&gt;Node6 -->
<g id="edge5_Node000001_Node000006" class="edge">
<title>Node1&#45;&gt;Node6</title>
<g id="a_edge5_Node000001_Node000006"><a xlink:title=" ">
<path fill="none" stroke="#63b8ff" d="M292.1,-51.29C317.12,-41.47 351.66,-27.91 373.92,-19.17"/>
<polygon fill="#63b8ff" stroke="#63b8ff" points="290.72,-48.07 282.69,-54.98 293.28,-54.59 290.72,-48.07"/>
</a>
</g>
</g>
<!-- Node7 -->
<g id="Node000007" class="node">
<title>Node7</title>
<g id="a_Node000007"><a xlink:href="arch_2x86__64-linux_2odp_2api_2abi_2byteorder_8h_source.html" target="_top" xlink:title=" ">
<polygon fill="white" stroke="#666666" points="522,-19 450,-19 450,0 522,0 522,-19"/>
<text text-anchor="middle" x="486" y="-7" font-family="Helvetica,sans-Serif" font-size="10.00">byteorder.h</text>
</a>
</g>
</g>
<!-- Node1&#45;&gt;Node7 -->
<g id="edge6_Node000001_Node000007" class="edge">
<title>Node1&#45;&gt;Node7</title>
<g id="a_edge6_Node000001_Node000007"><a xlink:title=" ">
<path fill="none" stroke="#63b8ff" d="M306.92,-52.68C349.21,-42.72 411.1,-28.14 449.94,-18.99"/>
<polygon fill="#63b8ff" stroke="#63b8ff" points="306.08,-49.28 297.15,-54.98 307.69,-56.1 306.08,-49.28"/>
</a>
</g>
</g>
</g>
</svg>
