<?xml version="1.0" encoding="UTF-8" standalone="no"?>
<!DOCTYPE svg PUBLIC "-//W3C//DTD SVG 1.1//EN"
 "http://www.w3.org/Graphics/SVG/1.1/DTD/svg11.dtd">
<!-- Generated by graphviz version 2.43.0 (0)
 -->
<!-- Title: packet_types.h Pages: 1 -->
<svg width="1312pt" height="721pt"
 viewBox="0.00 0.00 1312.00 721.00" xmlns="http://www.w3.org/2000/svg" xmlns:xlink="http://www.w3.org/1999/xlink">
<g id="graph0" class="graph" transform="scale(1 1) rotate(0) translate(4 717)">
<title>packet_types.h</title>
<polygon fill="white" stroke="transparent" points="-4,4 -4,-717 1308,-717 1308,4 -4,4"/>
<!-- Node1 -->
<g id="node1" class="node">
<title>Node1</title>
<g id="a_node1"><a xlink:title="ODP packet types.">
<polygon fill="#bfbfbf" stroke="black" points="404,-693.5 404,-712.5 494,-712.5 494,-693.5 404,-693.5"/>
<text text-anchor="middle" x="449" y="-700.5" font-family="Helvetica,sans-Serif" font-size="10.00">packet_types.h</text>
</a>
</g>
</g>
<!-- Node2 -->
<g id="node2" class="node">
<title>Node2</title>
<g id="a_node2"><a xlink:href="visibility__begin_8h_source.html" target="_top" xlink:title=" ">
<polygon fill="white" stroke="black" points="256.5,-0.5 256.5,-19.5 377.5,-19.5 377.5,-0.5 256.5,-0.5"/>
<text text-anchor="middle" x="317" y="-7.5" font-family="Helvetica,sans-Serif" font-size="10.00">odp/visibility_begin.h</text>
</a>
</g>
</g>
<!-- Node1&#45;&gt;Node2 -->
<g id="edge1" class="edge">
<title>Node1&#45;&gt;Node2</title>
<path fill="none" stroke="midnightblue" d="M403.89,-699.97C290.03,-693.61 0,-669.3 0,-586.5 0,-586.5 0,-586.5 0,-132 0,-77.78 163.94,-38.96 256.03,-21.44"/>
<polygon fill="midnightblue" stroke="midnightblue" points="256.88,-24.84 266.07,-19.56 255.6,-17.96 256.88,-24.84"/>
</g>
<!-- Node3 -->
<g id="node3" class="node">
<title>Node3</title>
<g id="a_node3"><a xlink:href="api_2proto__stats__types_8h.html" target="_top" xlink:title="ODP proto stats types.">
<polygon fill="white" stroke="black" points="46,-380.5 46,-410.5 156,-410.5 156,-380.5 46,-380.5"/>
<text text-anchor="start" x="54" y="-398.5" font-family="Helvetica,sans-Serif" font-size="10.00">odp/api/proto_stats</text>
<text text-anchor="middle" x="101" y="-387.5" font-family="Helvetica,sans-Serif" font-size="10.00">_types.h</text>
</a>
</g>
</g>
<!-- Node1&#45;&gt;Node3 -->
<g id="edge2" class="edge">
<title>Node1&#45;&gt;Node3</title>
<path fill="none" stroke="midnightblue" d="M403.67,-695.64C314.1,-681.79 123,-645.34 123,-586.5 123,-586.5 123,-586.5 123,-523 123,-486.92 114.2,-445.89 107.74,-420.59"/>
<polygon fill="midnightblue" stroke="midnightblue" points="111.08,-419.55 105.14,-410.78 104.31,-421.34 111.08,-419.55"/>
</g>
<!-- Node13 -->
<g id="node13" class="node">
<title>Node13</title>
<g id="a_node13"><a xlink:href="visibility__end_8h_source.html" target="_top" xlink:title=" ">
<polygon fill="white" stroke="black" points="875,-0.5 875,-19.5 987,-19.5 987,-0.5 875,-0.5"/>
<text text-anchor="middle" x="931" y="-7.5" font-family="Helvetica,sans-Serif" font-size="10.00">odp/visibility_end.h</text>
</a>
</g>
</g>
<!-- Node1&#45;&gt;Node13 -->
<g id="edge55" class="edge">
<title>Node1&#45;&gt;Node13</title>
<path fill="none" stroke="midnightblue" d="M494.06,-700.71C670.41,-695.06 1304,-669.02 1304,-586.5 1304,-586.5 1304,-586.5 1304,-132 1304,-86.38 1275.25,-77.48 1235,-56 1194.97,-34.63 1073.9,-21.79 997.18,-15.58"/>
<polygon fill="midnightblue" stroke="midnightblue" points="997.37,-12.09 987.12,-14.78 996.81,-19.06 997.37,-12.09"/>
</g>
<!-- Node14 -->
<g id="node14" class="node">
<title>Node14</title>
<g id="a_node14"><a xlink:href="api_2queue__types_8h.html" target="_top" xlink:title="ODP queue.">
<polygon fill="white" stroke="black" points="640.5,-637.5 640.5,-656.5 767.5,-656.5 767.5,-637.5 640.5,-637.5"/>
<text text-anchor="middle" x="704" y="-644.5" font-family="Helvetica,sans-Serif" font-size="10.00">odp/api/queue_types.h</text>
</a>
</g>
</g>
<!-- Node1&#45;&gt;Node14 -->
<g id="edge18" class="edge">
<title>Node1&#45;&gt;Node14</title>
<path fill="none" stroke="midnightblue" d="M489.41,-693.44C533.98,-684 605.77,-668.8 653.89,-658.61"/>
<polygon fill="midnightblue" stroke="midnightblue" points="654.73,-662.01 663.78,-656.52 653.28,-655.16 654.73,-662.01"/>
</g>
<!-- Node4 -->
<g id="node4" class="node">
<title>Node4</title>
<g id="a_node4"><a xlink:title=" ">
<polygon fill="white" stroke="#bfbfbf" points="28,-313.5 28,-343.5 156,-343.5 156,-313.5 28,-313.5"/>
<text text-anchor="start" x="36" y="-331.5" font-family="Helvetica,sans-Serif" font-size="10.00">odp/api/abi/proto_stats</text>
<text text-anchor="middle" x="92" y="-320.5" font-family="Helvetica,sans-Serif" font-size="10.00">_types.h</text>
</a>
</g>
</g>
<!-- Node3&#45;&gt;Node4 -->
<g id="edge3" class="edge">
<title>Node3&#45;&gt;Node4</title>
<path fill="none" stroke="midnightblue" d="M99.05,-380.4C97.96,-372.56 96.58,-362.6 95.33,-353.57"/>
<polygon fill="midnightblue" stroke="midnightblue" points="98.79,-353 93.95,-343.58 91.85,-353.96 98.79,-353"/>
</g>
<!-- Node5 -->
<g id="node5" class="node">
<title>Node5</title>
<g id="a_node5"><a xlink:href="api_2spec_2proto__stats__types_8h.html" target="_top" xlink:title="ODP proto stats types.">
<polygon fill="white" stroke="black" points="250.5,-313.5 250.5,-343.5 357.5,-343.5 357.5,-313.5 250.5,-313.5"/>
<text text-anchor="start" x="258.5" y="-331.5" font-family="Helvetica,sans-Serif" font-size="10.00">odp/api/spec/proto</text>
<text text-anchor="middle" x="304" y="-320.5" font-family="Helvetica,sans-Serif" font-size="10.00">_stats_types.h</text>
</a>
</g>
</g>
<!-- Node3&#45;&gt;Node5 -->
<g id="edge4" class="edge">
<title>Node3&#45;&gt;Node5</title>
<path fill="none" stroke="midnightblue" d="M145.05,-380.4C175.91,-370.52 217.33,-357.25 250.15,-346.74"/>
<polygon fill="midnightblue" stroke="midnightblue" points="251.58,-349.96 260.04,-343.58 249.45,-343.29 251.58,-349.96"/>
</g>
<!-- Node5&#45;&gt;Node2 -->
<g id="edge5" class="edge">
<title>Node5&#45;&gt;Node2</title>
<path fill="none" stroke="midnightblue" d="M295.93,-313.37C283.23,-289.75 260,-240.43 260,-195.5 260,-195.5 260,-195.5 260,-132 260,-96.58 267.98,-87.59 284,-56 289.08,-45.97 296.34,-35.79 302.75,-27.66"/>
<polygon fill="midnightblue" stroke="midnightblue" points="305.61,-29.69 309.24,-19.73 300.2,-25.25 305.61,-29.69"/>
</g>
<!-- Node6 -->
<g id="node6" class="node">
<title>Node6</title>
<g id="a_node6"><a xlink:href="api_2std__types_8h.html" target="_top" xlink:title="Standard C language types and definitions for ODP.">
<polygon fill="white" stroke="black" points="401,-252 401,-271 513,-271 513,-252 401,-252"/>
<text text-anchor="middle" x="457" y="-259" font-family="Helvetica,sans-Serif" font-size="10.00">odp/api/std_types.h</text>
</a>
</g>
</g>
<!-- Node5&#45;&gt;Node6 -->
<g id="edge6" class="edge">
<title>Node5&#45;&gt;Node6</title>
<path fill="none" stroke="midnightblue" d="M337.2,-313.4C364.16,-301.94 401.83,-285.94 427.69,-274.95"/>
<polygon fill="midnightblue" stroke="midnightblue" points="429.14,-278.14 436.98,-271.01 426.4,-271.7 429.14,-278.14"/>
</g>
<!-- Node5&#45;&gt;Node13 -->
<g id="edge17" class="edge">
<title>Node5&#45;&gt;Node13</title>
<path fill="none" stroke="midnightblue" d="M304.83,-313.29C307.43,-283.15 318.02,-212.81 361,-179 458.92,-101.97 526.89,-197.35 639,-143 688.77,-118.87 679.35,-82.33 728,-56 770.23,-33.14 823.39,-21.89 864.72,-16.35"/>
<polygon fill="midnightblue" stroke="midnightblue" points="865.2,-19.82 874.68,-15.1 864.32,-12.87 865.2,-19.82"/>
</g>
<!-- Node7 -->
<g id="node7" class="node">
<title>Node7</title>
<g id="a_node7"><a xlink:title=" ">
<polygon fill="white" stroke="#bfbfbf" points="370,-185 370,-204 500,-204 500,-185 370,-185"/>
<text text-anchor="middle" x="435" y="-192" font-family="Helvetica,sans-Serif" font-size="10.00">odp/api/abi/std_types.h</text>
</a>
</g>
</g>
<!-- Node6&#45;&gt;Node7 -->
<g id="edge7" class="edge">
<title>Node6&#45;&gt;Node7</title>
<path fill="none" stroke="midnightblue" d="M454.03,-251.73C450.77,-242.09 445.42,-226.3 441.23,-213.91"/>
<polygon fill="midnightblue" stroke="midnightblue" points="444.44,-212.48 437.92,-204.13 437.81,-214.72 444.44,-212.48"/>
</g>
<!-- Node8 -->
<g id="node8" class="node">
<title>Node8</title>
<g id="a_node8"><a xlink:href="api_2spec_2std__types_8h.html" target="_top" xlink:title="Common types and definitions for ODP API files.">
<polygon fill="white" stroke="black" points="556.5,-185 556.5,-204 693.5,-204 693.5,-185 556.5,-185"/>
<text text-anchor="middle" x="625" y="-192" font-family="Helvetica,sans-Serif" font-size="10.00">odp/api/spec/std_types.h</text>
</a>
</g>
</g>
<!-- Node6&#45;&gt;Node8 -->
<g id="edge8" class="edge">
<title>Node6&#45;&gt;Node8</title>
<path fill="none" stroke="midnightblue" d="M479.31,-251.87C508.51,-240.57 559.88,-220.7 593.16,-207.82"/>
<polygon fill="midnightblue" stroke="midnightblue" points="594.8,-210.94 602.87,-204.06 592.28,-204.41 594.8,-210.94"/>
</g>
<!-- Node8&#45;&gt;Node2 -->
<g id="edge9" class="edge">
<title>Node8&#45;&gt;Node2</title>
<path fill="none" stroke="midnightblue" d="M599.21,-184.95C554.85,-169.54 462.27,-134.25 394,-87 369.27,-69.89 345.36,-44.46 330.91,-27.8"/>
<polygon fill="midnightblue" stroke="midnightblue" points="333.41,-25.34 324.27,-19.98 328.08,-29.87 333.41,-25.34"/>
</g>
<!-- Node9 -->
<g id="node9" class="node">
<title>Node9</title>
<g id="a_node9"><a xlink:title=" ">
<polygon fill="white" stroke="#bfbfbf" points="724.5,-123.5 724.5,-142.5 777.5,-142.5 777.5,-123.5 724.5,-123.5"/>
<text text-anchor="middle" x="751" y="-130.5" font-family="Helvetica,sans-Serif" font-size="10.00">stdint.h</text>
</a>
</g>
</g>
<!-- Node8&#45;&gt;Node9 -->
<g id="edge10" class="edge">
<title>Node8&#45;&gt;Node9</title>
<path fill="none" stroke="midnightblue" d="M643.05,-184.98C664.2,-174.99 699.44,-158.35 723.88,-146.81"/>
<polygon fill="midnightblue" stroke="midnightblue" points="725.43,-149.94 732.98,-142.51 722.44,-143.61 725.43,-149.94"/>
</g>
<!-- Node10 -->
<g id="node10" class="node">
<title>Node10</title>
<g id="a_node10"><a xlink:href="api_2align_8h.html" target="_top" xlink:title="ODP alignments.">
<polygon fill="white" stroke="black" points="540.5,-123.5 540.5,-142.5 629.5,-142.5 629.5,-123.5 540.5,-123.5"/>
<text text-anchor="middle" x="585" y="-130.5" font-family="Helvetica,sans-Serif" font-size="10.00">odp/api/align.h</text>
</a>
</g>
</g>
<!-- Node8&#45;&gt;Node10 -->
<g id="edge11" class="edge">
<title>Node8&#45;&gt;Node10</title>
<path fill="none" stroke="midnightblue" d="M619.27,-184.98C613.33,-176.14 603.88,-162.09 596.41,-150.98"/>
<polygon fill="midnightblue" stroke="midnightblue" points="599.2,-148.86 590.72,-142.51 593.39,-152.76 599.2,-148.86"/>
</g>
<!-- Node8&#45;&gt;Node13 -->
<g id="edge16" class="edge">
<title>Node8&#45;&gt;Node13</title>
<path fill="none" stroke="midnightblue" d="M633.46,-184.75C661.44,-155.91 750.05,-65.12 766,-56 796.23,-38.71 833.41,-27.81 864.81,-21.09"/>
<polygon fill="midnightblue" stroke="midnightblue" points="865.69,-24.48 874.78,-19.05 864.29,-17.62 865.69,-24.48"/>
</g>
<!-- Node11 -->
<g id="node11" class="node">
<title>Node11</title>
<g id="a_node11"><a xlink:title=" ">
<polygon fill="white" stroke="#bfbfbf" points="402.5,-62 402.5,-81 509.5,-81 509.5,-62 402.5,-62"/>
<text text-anchor="middle" x="456" y="-69" font-family="Helvetica,sans-Serif" font-size="10.00">odp/api/abi/align.h</text>
</a>
</g>
</g>
<!-- Node10&#45;&gt;Node11 -->
<g id="edge12" class="edge">
<title>Node10&#45;&gt;Node11</title>
<path fill="none" stroke="midnightblue" d="M566.52,-123.48C544.87,-113.49 508.79,-96.85 483.77,-85.31"/>
<polygon fill="midnightblue" stroke="midnightblue" points="484.99,-82.02 474.45,-81.01 482.06,-88.38 484.99,-82.02"/>
</g>
<!-- Node12 -->
<g id="node12" class="node">
<title>Node12</title>
<g id="a_node12"><a xlink:href="api_2spec_2align_8h.html" target="_top" xlink:title="ODP alignments.">
<polygon fill="white" stroke="black" points="528,-62 528,-81 642,-81 642,-62 528,-62"/>
<text text-anchor="middle" x="585" y="-69" font-family="Helvetica,sans-Serif" font-size="10.00">odp/api/spec/align.h</text>
</a>
</g>
</g>
<!-- Node10&#45;&gt;Node12 -->
<g id="edge13" class="edge">
<title>Node10&#45;&gt;Node12</title>
<path fill="none" stroke="midnightblue" d="M585,-123.48C585,-115.08 585,-101.98 585,-91.16"/>
<polygon fill="midnightblue" stroke="midnightblue" points="588.5,-91.01 585,-81.01 581.5,-91.01 588.5,-91.01"/>
</g>
<!-- Node12&#45;&gt;Node2 -->
<g id="edge14" class="edge">
<title>Node12&#45;&gt;Node2</title>
<path fill="none" stroke="midnightblue" d="M546.6,-61.98C498.84,-51.37 417.26,-33.26 365.3,-21.72"/>
<polygon fill="midnightblue" stroke="midnightblue" points="365.85,-18.26 355.33,-19.51 364.33,-25.09 365.85,-18.26"/>
</g>
<!-- Node12&#45;&gt;Node13 -->
<g id="edge15" class="edge">
<title>Node12&#45;&gt;Node13</title>
<path fill="none" stroke="midnightblue" d="M625.5,-61.94C635.46,-59.92 646.1,-57.82 656,-56 727.11,-42.93 808.91,-29.78 864.69,-21.1"/>
<polygon fill="midnightblue" stroke="midnightblue" points="865.45,-24.53 874.8,-19.54 864.38,-17.61 865.45,-24.53"/>
</g>
<!-- Node15 -->
<g id="node15" class="node">
<title>Node15</title>
<g id="a_node15"><a xlink:title=" ">
<polygon fill="white" stroke="#bfbfbf" points="777.5,-576 777.5,-595 922.5,-595 922.5,-576 777.5,-576"/>
<text text-anchor="middle" x="850" y="-583" font-family="Helvetica,sans-Serif" font-size="10.00">odp/api/abi/queue_types.h</text>
</a>
</g>
</g>
<!-- Node14&#45;&gt;Node15 -->
<g id="edge19" class="edge">
<title>Node14&#45;&gt;Node15</title>
<path fill="none" stroke="midnightblue" d="M724.92,-637.48C749.75,-627.36 791.34,-610.4 819.69,-598.85"/>
<polygon fill="midnightblue" stroke="midnightblue" points="821.18,-602.02 829.12,-595.01 818.54,-595.54 821.18,-602.02"/>
</g>
<!-- Node16 -->
<g id="node16" class="node">
<title>Node16</title>
<g id="a_node16"><a xlink:href="api_2spec_2queue__types_8h.html" target="_top" xlink:title="ODP queue types.">
<polygon fill="white" stroke="black" points="648.5,-570.5 648.5,-600.5 759.5,-600.5 759.5,-570.5 648.5,-570.5"/>
<text text-anchor="start" x="656.5" y="-588.5" font-family="Helvetica,sans-Serif" font-size="10.00">odp/api/spec/queue</text>
<text text-anchor="middle" x="704" y="-577.5" font-family="Helvetica,sans-Serif" font-size="10.00">_types.h</text>
</a>
</g>
</g>
<!-- Node14&#45;&gt;Node16 -->
<g id="edge20" class="edge">
<title>Node14&#45;&gt;Node16</title>
<path fill="none" stroke="midnightblue" d="M704,-637.48C704,-630.47 704,-620.19 704,-610.7"/>
<polygon fill="midnightblue" stroke="midnightblue" points="707.5,-610.52 704,-600.52 700.5,-610.52 707.5,-610.52"/>
</g>
<!-- Node16&#45;&gt;Node2 -->
<g id="edge21" class="edge">
<title>Node16&#45;&gt;Node2</title>
<path fill="none" stroke="midnightblue" d="M648.35,-583.25C514.21,-578.74 184,-558.04 184,-463.5 184,-463.5 184,-463.5 184,-132 184,-77.75 245.28,-41.4 284.65,-23.64"/>
<polygon fill="midnightblue" stroke="midnightblue" points="286.35,-26.72 294.14,-19.53 283.57,-20.3 286.35,-26.72"/>
</g>
<!-- Node16&#45;&gt;Node13 -->
<g id="edge54" class="edge">
<title>Node16&#45;&gt;Node13</title>
<path fill="none" stroke="midnightblue" d="M759.66,-572.05C762.82,-571.35 765.95,-570.67 769,-570 879.34,-545.87 1266,-576.45 1266,-463.5 1266,-463.5 1266,-463.5 1266,-132 1266,-85.78 1235.7,-77.92 1195,-56 1133.44,-22.84 1053.1,-13.11 997.29,-10.73"/>
<polygon fill="midnightblue" stroke="midnightblue" points="997.28,-7.22 987.16,-10.36 997.03,-14.22 997.28,-7.22"/>
</g>
<!-- Node17 -->
<g id="node17" class="node">
<title>Node17</title>
<g id="a_node17"><a xlink:href="api_2event__vector__types_8h.html" target="_top" xlink:title="ODP event vector API type definitions.">
<polygon fill="white" stroke="black" points="781.5,-380.5 781.5,-410.5 900.5,-410.5 900.5,-380.5 781.5,-380.5"/>
<text text-anchor="start" x="789.5" y="-398.5" font-family="Helvetica,sans-Serif" font-size="10.00">odp/api/event_vector</text>
<text text-anchor="middle" x="841" y="-387.5" font-family="Helvetica,sans-Serif" font-size="10.00">_types.h</text>
</a>
</g>
</g>
<!-- Node16&#45;&gt;Node17 -->
<g id="edge22" class="edge">
<title>Node16&#45;&gt;Node17</title>
<path fill="none" stroke="midnightblue" d="M725.69,-570.44C738.78,-561.2 755.16,-548.22 767,-534 796.64,-498.41 819.68,-449.08 831.72,-420.2"/>
<polygon fill="midnightblue" stroke="midnightblue" points="834.98,-421.48 835.52,-410.9 828.5,-418.83 834.98,-421.48"/>
</g>
<!-- Node24 -->
<g id="node24" class="node">
<title>Node24</title>
<g id="a_node24"><a xlink:href="queue__stats__types_8h.html" target="_top" xlink:title="ODP queue.">
<polygon fill="white" stroke="black" points="693.5,-246.5 693.5,-276.5 808.5,-276.5 808.5,-246.5 693.5,-246.5"/>
<text text-anchor="start" x="701.5" y="-264.5" font-family="Helvetica,sans-Serif" font-size="10.00">odp/api/queue_stats</text>
<text text-anchor="middle" x="751" y="-253.5" font-family="Helvetica,sans-Serif" font-size="10.00">_types.h</text>
</a>
</g>
</g>
<!-- Node16&#45;&gt;Node24 -->
<g id="edge39" class="edge">
<title>Node16&#45;&gt;Node24</title>
<path fill="none" stroke="midnightblue" d="M713.92,-570.35C728.23,-548.5 753,-504.75 753,-463.5 753,-463.5 753,-463.5 753,-394.5 753,-357 752.18,-313.51 751.59,-287.01"/>
<polygon fill="midnightblue" stroke="midnightblue" points="755.09,-286.68 751.36,-276.76 748.09,-286.84 755.09,-286.68"/>
</g>
<!-- Node26 -->
<g id="node26" class="node">
<title>Node26</title>
<g id="a_node26"><a xlink:href="api_2schedule__types_8h.html" target="_top" xlink:title="ODP schedule.">
<polygon fill="white" stroke="black" points="585,-514.5 585,-533.5 725,-533.5 725,-514.5 585,-514.5"/>
<text text-anchor="middle" x="655" y="-521.5" font-family="Helvetica,sans-Serif" font-size="10.00">odp/api/schedule_types.h</text>
</a>
</g>
</g>
<!-- Node16&#45;&gt;Node26 -->
<g id="edge40" class="edge">
<title>Node16&#45;&gt;Node26</title>
<path fill="none" stroke="midnightblue" d="M692.39,-570.4C685.27,-561.75 676.12,-550.64 668.65,-541.58"/>
<polygon fill="midnightblue" stroke="midnightblue" points="671.19,-539.15 662.13,-533.66 665.79,-543.6 671.19,-539.15"/>
</g>
<!-- Node18 -->
<g id="node18" class="node">
<title>Node18</title>
<g id="a_node18"><a xlink:title=" ">
<polygon fill="white" stroke="#bfbfbf" points="908.5,-313.5 908.5,-343.5 1045.5,-343.5 1045.5,-313.5 908.5,-313.5"/>
<text text-anchor="start" x="916.5" y="-331.5" font-family="Helvetica,sans-Serif" font-size="10.00">odp/api/abi/event_vector</text>
<text text-anchor="middle" x="977" y="-320.5" font-family="Helvetica,sans-Serif" font-size="10.00">_types.h</text>
</a>
</g>
</g>
<!-- Node17&#45;&gt;Node18 -->
<g id="edge23" class="edge">
<title>Node17&#45;&gt;Node18</title>
<path fill="none" stroke="midnightblue" d="M870.51,-380.4C890.38,-370.9 916.79,-358.28 938.34,-347.98"/>
<polygon fill="midnightblue" stroke="midnightblue" points="940.03,-351.05 947.55,-343.58 937.02,-344.73 940.03,-351.05"/>
</g>
<!-- Node19 -->
<g id="node19" class="node">
<title>Node19</title>
<g id="a_node19"><a xlink:title=" ">
<polygon fill="white" stroke="#bfbfbf" points="1064,-319 1064,-338 1200,-338 1200,-319 1064,-319"/>
<text text-anchor="middle" x="1132" y="-326" font-family="Helvetica,sans-Serif" font-size="10.00">odp/api/abi/pool_types.h</text>
</a>
</g>
</g>
<!-- Node17&#45;&gt;Node19 -->
<g id="edge24" class="edge">
<title>Node17&#45;&gt;Node19</title>
<path fill="none" stroke="midnightblue" d="M900.59,-381.19C954.73,-369.1 1033.58,-351.48 1083.83,-340.26"/>
<polygon fill="midnightblue" stroke="midnightblue" points="1084.8,-343.63 1093.79,-338.03 1083.27,-336.8 1084.8,-343.63"/>
</g>
<!-- Node20 -->
<g id="node20" class="node">
<title>Node20</title>
<g id="a_node20"><a xlink:href="api_2spec_2event__vector__types_8h.html" target="_top" xlink:title="ODP event vector API type definitions.">
<polygon fill="white" stroke="black" points="781.5,-313.5 781.5,-343.5 890.5,-343.5 890.5,-313.5 781.5,-313.5"/>
<text text-anchor="start" x="789.5" y="-331.5" font-family="Helvetica,sans-Serif" font-size="10.00">odp/api/spec/event</text>
<text text-anchor="middle" x="836" y="-320.5" font-family="Helvetica,sans-Serif" font-size="10.00">_vector_types.h</text>
</a>
</g>
</g>
<!-- Node17&#45;&gt;Node20 -->
<g id="edge25" class="edge">
<title>Node17&#45;&gt;Node20</title>
<path fill="none" stroke="midnightblue" d="M839.92,-380.4C839.31,-372.56 838.55,-362.6 837.85,-353.57"/>
<polygon fill="midnightblue" stroke="midnightblue" points="841.34,-353.28 837.08,-343.58 834.36,-353.82 841.34,-353.28"/>
</g>
<!-- Node20&#45;&gt;Node2 -->
<g id="edge26" class="edge">
<title>Node20&#45;&gt;Node2</title>
<path fill="none" stroke="midnightblue" d="M837.34,-313.34C838.23,-294.94 836.67,-263.15 818,-246 728.84,-164.1 659.41,-257.38 548,-210 527.62,-201.34 527.23,-191.57 509,-179 443.05,-133.53 408.26,-145.94 354,-87 338.67,-70.35 328.38,-46.18 322.63,-29.59"/>
<polygon fill="midnightblue" stroke="midnightblue" points="325.91,-28.37 319.49,-19.94 319.25,-30.53 325.91,-28.37"/>
</g>
<!-- Node20&#45;&gt;Node6 -->
<g id="edge37" class="edge">
<title>Node20&#45;&gt;Node6</title>
<path fill="none" stroke="midnightblue" d="M781.29,-318.12C711.01,-306.06 589.43,-285.21 516.77,-272.75"/>
<polygon fill="midnightblue" stroke="midnightblue" points="517.3,-269.29 506.85,-271.05 516.12,-276.19 517.3,-269.29"/>
</g>
<!-- Node20&#45;&gt;Node13 -->
<g id="edge38" class="edge">
<title>Node20&#45;&gt;Node13</title>
<path fill="none" stroke="midnightblue" d="M880.99,-313.5C967.81,-285.83 1150,-224.33 1150,-195.5 1150,-195.5 1150,-195.5 1150,-132 1150,-97.18 1155.91,-80.33 1131,-56 1112.08,-37.52 1047.74,-25.34 997.08,-18.36"/>
<polygon fill="midnightblue" stroke="midnightblue" points="997.53,-14.89 987.15,-17.03 996.6,-21.83 997.53,-14.89"/>
</g>
<!-- Node21 -->
<g id="node21" class="node">
<title>Node21</title>
<g id="a_node21"><a xlink:href="api_2event__types_8h.html" target="_top" xlink:title="ODP event API type definitions.">
<polygon fill="white" stroke="black" points="978.5,-123.5 978.5,-142.5 1103.5,-142.5 1103.5,-123.5 978.5,-123.5"/>
<text text-anchor="middle" x="1041" y="-130.5" font-family="Helvetica,sans-Serif" font-size="10.00">odp/api/event_types.h</text>
</a>
</g>
</g>
<!-- Node20&#45;&gt;Node21 -->
<g id="edge27" class="edge">
<title>Node20&#45;&gt;Node21</title>
<path fill="none" stroke="midnightblue" d="M851.07,-313.27C888.54,-277.91 985.65,-186.24 1024.54,-149.54"/>
<polygon fill="midnightblue" stroke="midnightblue" points="1027.04,-151.99 1031.91,-142.58 1022.24,-146.9 1027.04,-151.99"/>
</g>
<!-- Node20&#45;&gt;Node24 -->
<g id="edge32" class="edge">
<title>Node20&#45;&gt;Node24</title>
<path fill="none" stroke="midnightblue" d="M817.56,-313.4C805.86,-304.45 790.54,-292.74 777.55,-282.8"/>
<polygon fill="midnightblue" stroke="midnightblue" points="779.48,-279.87 769.41,-276.58 775.23,-285.43 779.48,-279.87"/>
</g>
<!-- Node22 -->
<g id="node22" class="node">
<title>Node22</title>
<g id="a_node22"><a xlink:title=" ">
<polygon fill="white" stroke="#bfbfbf" points="978.5,-62 978.5,-81 1121.5,-81 1121.5,-62 978.5,-62"/>
<text text-anchor="middle" x="1050" y="-69" font-family="Helvetica,sans-Serif" font-size="10.00">odp/api/abi/event_types.h</text>
</a>
</g>
</g>
<!-- Node21&#45;&gt;Node22 -->
<g id="edge28" class="edge">
<title>Node21&#45;&gt;Node22</title>
<path fill="none" stroke="midnightblue" d="M1042.29,-123.48C1043.56,-115.08 1045.54,-101.98 1047.18,-91.16"/>
<polygon fill="midnightblue" stroke="midnightblue" points="1050.68,-91.42 1048.71,-81.01 1043.76,-90.37 1050.68,-91.42"/>
</g>
<!-- Node23 -->
<g id="node23" class="node">
<title>Node23</title>
<g id="a_node23"><a xlink:href="api_2spec_2event__types_8h.html" target="_top" xlink:title="ODP event API type definitions.">
<polygon fill="white" stroke="black" points="774.5,-56.5 774.5,-86.5 883.5,-86.5 883.5,-56.5 774.5,-56.5"/>
<text text-anchor="start" x="782.5" y="-74.5" font-family="Helvetica,sans-Serif" font-size="10.00">odp/api/spec/event</text>
<text text-anchor="middle" x="829" y="-63.5" font-family="Helvetica,sans-Serif" font-size="10.00">_types.h</text>
</a>
</g>
</g>
<!-- Node21&#45;&gt;Node23 -->
<g id="edge29" class="edge">
<title>Node21&#45;&gt;Node23</title>
<path fill="none" stroke="midnightblue" d="M1010.63,-123.48C978.96,-114.59 928.51,-100.43 888.81,-89.29"/>
<polygon fill="midnightblue" stroke="midnightblue" points="889.54,-85.86 878.96,-86.52 887.65,-92.6 889.54,-85.86"/>
</g>
<!-- Node23&#45;&gt;Node2 -->
<g id="edge30" class="edge">
<title>Node23&#45;&gt;Node2</title>
<path fill="none" stroke="midnightblue" d="M774.48,-58.49C769.6,-57.58 764.72,-56.73 760,-56 629.39,-35.7 475.63,-22.44 387.91,-15.88"/>
<polygon fill="midnightblue" stroke="midnightblue" points="388.04,-12.38 377.81,-15.13 387.52,-19.36 388.04,-12.38"/>
</g>
<!-- Node23&#45;&gt;Node13 -->
<g id="edge31" class="edge">
<title>Node23&#45;&gt;Node13</title>
<path fill="none" stroke="midnightblue" d="M853.17,-56.4C869.52,-46.86 891.01,-34.32 907.27,-24.84"/>
<polygon fill="midnightblue" stroke="midnightblue" points="909.28,-27.72 916.16,-19.66 905.76,-21.67 909.28,-27.72"/>
</g>
<!-- Node25 -->
<g id="node25" class="node">
<title>Node25</title>
<g id="a_node25"><a xlink:href="spec_2queue__stats__types_8h.html" target="_top" xlink:title="ODP queue statistics types.">
<polygon fill="white" stroke="black" points="750.5,-179.5 750.5,-209.5 861.5,-209.5 861.5,-179.5 750.5,-179.5"/>
<text text-anchor="start" x="758.5" y="-197.5" font-family="Helvetica,sans-Serif" font-size="10.00">odp/api/spec/queue</text>
<text text-anchor="middle" x="806" y="-186.5" font-family="Helvetica,sans-Serif" font-size="10.00">_stats_types.h</text>
</a>
</g>
</g>
<!-- Node24&#45;&gt;Node25 -->
<g id="edge33" class="edge">
<title>Node24&#45;&gt;Node25</title>
<path fill="none" stroke="midnightblue" d="M762.93,-246.4C770.14,-237.88 779.48,-226.85 787.61,-217.23"/>
<polygon fill="midnightblue" stroke="midnightblue" points="790.3,-219.47 794.09,-209.58 784.96,-214.95 790.3,-219.47"/>
</g>
<!-- Node25&#45;&gt;Node2 -->
<g id="edge34" class="edge">
<title>Node25&#45;&gt;Node2</title>
<path fill="none" stroke="midnightblue" d="M805.54,-179.23C804.34,-163.77 800.28,-139.16 787,-123 744.21,-70.95 715.45,-75.64 651,-56 562.76,-29.11 456.53,-18.27 387.93,-13.91"/>
<polygon fill="midnightblue" stroke="midnightblue" points="387.87,-10.4 377.68,-13.29 387.45,-17.39 387.87,-10.4"/>
</g>
<!-- Node25&#45;&gt;Node9 -->
<g id="edge35" class="edge">
<title>Node25&#45;&gt;Node9</title>
<path fill="none" stroke="midnightblue" d="M792.97,-179.4C784.81,-170.58 774.28,-159.18 765.81,-150.02"/>
<polygon fill="midnightblue" stroke="midnightblue" points="768.36,-147.63 759,-142.66 763.22,-152.38 768.36,-147.63"/>
</g>
<!-- Node25&#45;&gt;Node13 -->
<g id="edge36" class="edge">
<title>Node25&#45;&gt;Node13</title>
<path fill="none" stroke="midnightblue" d="M838.4,-179.3C855.72,-170.59 876.58,-158.19 892,-143 912.74,-122.56 917.24,-114.77 926,-87 931.96,-68.13 932.66,-45.34 932.21,-29.67"/>
<polygon fill="midnightblue" stroke="midnightblue" points="935.71,-29.5 931.74,-19.68 928.71,-29.83 935.71,-29.5"/>
</g>
<!-- Node27 -->
<g id="node27" class="node">
<title>Node27</title>
<g id="a_node27"><a xlink:title=" ">
<polygon fill="white" stroke="#bfbfbf" points="607.5,-447.5 607.5,-477.5 724.5,-477.5 724.5,-447.5 607.5,-447.5"/>
<text text-anchor="start" x="615.5" y="-465.5" font-family="Helvetica,sans-Serif" font-size="10.00">odp/api/abi/schedule</text>
<text text-anchor="middle" x="666" y="-454.5" font-family="Helvetica,sans-Serif" font-size="10.00">_types.h</text>
</a>
</g>
</g>
<!-- Node26&#45;&gt;Node27 -->
<g id="edge41" class="edge">
<title>Node26&#45;&gt;Node27</title>
<path fill="none" stroke="midnightblue" d="M656.58,-514.48C657.88,-507.4 659.81,-496.97 661.58,-487.39"/>
<polygon fill="midnightblue" stroke="midnightblue" points="665.03,-487.99 663.41,-477.52 658.15,-486.72 665.03,-487.99"/>
</g>
<!-- Node28 -->
<g id="node28" class="node">
<title>Node28</title>
<g id="a_node28"><a xlink:href="api_2spec_2schedule__types_8h.html" target="_top" xlink:title="ODP schedule types.">
<polygon fill="white" stroke="black" points="464.5,-447.5 464.5,-477.5 589.5,-477.5 589.5,-447.5 464.5,-447.5"/>
<text text-anchor="start" x="472.5" y="-465.5" font-family="Helvetica,sans-Serif" font-size="10.00">odp/api/spec/schedule</text>
<text text-anchor="middle" x="527" y="-454.5" font-family="Helvetica,sans-Serif" font-size="10.00">_types.h</text>
</a>
</g>
</g>
<!-- Node26&#45;&gt;Node28 -->
<g id="edge42" class="edge">
<title>Node26&#45;&gt;Node28</title>
<path fill="none" stroke="midnightblue" d="M636.66,-514.48C618.43,-506 589.9,-492.74 566.5,-481.86"/>
<polygon fill="midnightblue" stroke="midnightblue" points="567.71,-478.56 557.17,-477.52 564.76,-484.91 567.71,-478.56"/>
</g>
<!-- Node28&#45;&gt;Node2 -->
<g id="edge43" class="edge">
<title>Node28&#45;&gt;Node2</title>
<path fill="none" stroke="midnightblue" d="M464.17,-461.06C374.89,-456.74 222,-434.08 222,-329.5 222,-329.5 222,-329.5 222,-132 222,-85.25 266.42,-45.86 294.51,-25.62"/>
<polygon fill="midnightblue" stroke="midnightblue" points="296.77,-28.32 302.98,-19.74 292.77,-22.57 296.77,-28.32"/>
</g>
<!-- Node28&#45;&gt;Node6 -->
<g id="edge46" class="edge">
<title>Node28&#45;&gt;Node6</title>
<path fill="none" stroke="midnightblue" d="M502.79,-447.38C472.99,-428.34 424.09,-391.32 406,-344 401.08,-331.13 400.7,-325.72 406,-313 412.04,-298.52 424.47,-286.07 435.55,-277.15"/>
<polygon fill="midnightblue" stroke="midnightblue" points="437.76,-279.87 443.63,-271.05 433.54,-274.28 437.76,-279.87"/>
</g>
<!-- Node28&#45;&gt;Node13 -->
<g id="edge53" class="edge">
<title>Node28&#45;&gt;Node13</title>
<path fill="none" stroke="midnightblue" d="M589.77,-448.54C592.89,-447.99 595.98,-447.48 599,-447 739.45,-424.77 1228,-471.7 1228,-329.5 1228,-329.5 1228,-329.5 1228,-132 1228,-84.86 1195.4,-78.56 1154,-56 1105.64,-29.65 1043.79,-18.65 997.5,-14.1"/>
<polygon fill="midnightblue" stroke="midnightblue" points="997.55,-10.59 987.28,-13.18 996.92,-17.56 997.55,-10.59"/>
</g>
<!-- Node28&#45;&gt;Node17 -->
<g id="edge44" class="edge">
<title>Node28&#45;&gt;Node17</title>
<path fill="none" stroke="midnightblue" d="M589.79,-448.5C642.27,-437.64 717.04,-422.16 771.36,-410.92"/>
<polygon fill="midnightblue" stroke="midnightblue" points="772.17,-414.32 781.25,-408.87 770.75,-407.47 772.17,-414.32"/>
</g>
<!-- Node28&#45;&gt;Node24 -->
<g id="edge45" class="edge">
<title>Node28&#45;&gt;Node24</title>
<path fill="none" stroke="midnightblue" d="M553.26,-447.37C588.52,-427.52 651.84,-388.78 696,-344 713.29,-326.46 728.56,-302.81 738.6,-285.5"/>
<polygon fill="midnightblue" stroke="midnightblue" points="741.75,-287.04 743.61,-276.61 735.65,-283.6 741.75,-287.04"/>
</g>
<!-- Node29 -->
<g id="node29" class="node">
<title>Node29</title>
<g id="a_node29"><a xlink:href="api_2thrmask_8h.html" target="_top" xlink:title="ODP thread masks.">
<polygon fill="white" stroke="black" points="474.5,-386 474.5,-405 579.5,-405 579.5,-386 474.5,-386"/>
<text text-anchor="middle" x="527" y="-393" font-family="Helvetica,sans-Serif" font-size="10.00">odp/api/thrmask.h</text>
</a>
</g>
</g>
<!-- Node28&#45;&gt;Node29 -->
<g id="edge47" class="edge">
<title>Node28&#45;&gt;Node29</title>
<path fill="none" stroke="midnightblue" d="M527,-447.4C527,-438.06 527,-425.71 527,-415.52"/>
<polygon fill="midnightblue" stroke="midnightblue" points="530.5,-415.19 527,-405.19 523.5,-415.19 530.5,-415.19"/>
</g>
<!-- Node30 -->
<g id="node30" class="node">
<title>Node30</title>
<g id="a_node30"><a xlink:title=" ">
<polygon fill="white" stroke="#bfbfbf" points="563.5,-319 563.5,-338 686.5,-338 686.5,-319 563.5,-319"/>
<text text-anchor="middle" x="625" y="-326" font-family="Helvetica,sans-Serif" font-size="10.00">odp/api/abi/thrmask.h</text>
</a>
</g>
</g>
<!-- Node29&#45;&gt;Node30 -->
<g id="edge48" class="edge">
<title>Node29&#45;&gt;Node30</title>
<path fill="none" stroke="midnightblue" d="M540.22,-385.73C556.45,-374.96 584.22,-356.55 603.53,-343.74"/>
<polygon fill="midnightblue" stroke="midnightblue" points="605.59,-346.57 611.99,-338.13 601.72,-340.74 605.59,-346.57"/>
</g>
<!-- Node31 -->
<g id="node31" class="node">
<title>Node31</title>
<g id="a_node31"><a xlink:href="api_2spec_2thrmask_8h.html" target="_top" xlink:title="ODP thread masks.">
<polygon fill="white" stroke="black" points="414.5,-319 414.5,-338 545.5,-338 545.5,-319 414.5,-319"/>
<text text-anchor="middle" x="480" y="-326" font-family="Helvetica,sans-Serif" font-size="10.00">odp/api/spec/thrmask.h</text>
</a>
</g>
</g>
<!-- Node29&#45;&gt;Node31 -->
<g id="edge49" class="edge">
<title>Node29&#45;&gt;Node31</title>
<path fill="none" stroke="midnightblue" d="M520.66,-385.73C513.4,-375.7 501.34,-359.01 492.24,-346.42"/>
<polygon fill="midnightblue" stroke="midnightblue" points="494.93,-344.18 486.24,-338.13 489.26,-348.28 494.93,-344.18"/>
</g>
<!-- Node31&#45;&gt;Node2 -->
<g id="edge50" class="edge">
<title>Node31&#45;&gt;Node2</title>
<path fill="none" stroke="midnightblue" d="M457.8,-318.99C438.46,-310.67 410.68,-296.43 392,-277 345.44,-228.56 339.25,-207.94 322,-143 311.58,-103.79 313.18,-55.74 315.15,-29.79"/>
<polygon fill="midnightblue" stroke="midnightblue" points="318.67,-29.8 316.05,-19.53 311.69,-29.19 318.67,-29.8"/>
</g>
<!-- Node31&#45;&gt;Node6 -->
<g id="edge51" class="edge">
<title>Node31&#45;&gt;Node6</title>
<path fill="none" stroke="midnightblue" d="M476.9,-318.73C473.48,-309.09 467.9,-293.3 463.51,-280.91"/>
<polygon fill="midnightblue" stroke="midnightblue" points="466.69,-279.39 460.05,-271.13 460.09,-281.72 466.69,-279.39"/>
</g>
<!-- Node31&#45;&gt;Node13 -->
<g id="edge52" class="edge">
<title>Node31&#45;&gt;Node13</title>
<path fill="none" stroke="midnightblue" d="M499.17,-318.89C538.61,-300.85 631.17,-256.88 703,-210 721.54,-197.9 723.84,-191.67 742,-179 806.44,-134.02 839.8,-144.84 893,-87 908.4,-70.26 919.04,-46.1 925.06,-29.55"/>
<polygon fill="midnightblue" stroke="midnightblue" points="928.43,-30.51 928.35,-19.92 921.81,-28.25 928.43,-30.51"/>
</g>
</g>
</svg>
