<?xml version="1.0" encoding="UTF-8" standalone="no"?>
<!DOCTYPE svg PUBLIC "-//W3C//DTD SVG 1.1//EN"
 "http://www.w3.org/Graphics/SVG/1.1/DTD/svg11.dtd">
<!-- Generated by graphviz version 2.43.0 (0)
 -->
<!-- Title: std_types.h Pages: 1 -->
<svg width="402pt" height="247pt"
 viewBox="0.00 0.00 402.00 247.00" xmlns="http://www.w3.org/2000/svg" xmlns:xlink="http://www.w3.org/1999/xlink">
<g id="graph0" class="graph" transform="scale(1 1) rotate(0) translate(4 243)">
<title>std_types.h</title>
<!-- Node1 -->
<g id="Node000001" class="node">
<title>Node1</title>
<g id="a_Node000001"><a xlink:title="Standard C language types and definitions for ODP.">
<polygon fill="#999999" stroke="#666666" points="177.5,-239 104.5,-239 104.5,-220 177.5,-220 177.5,-239"/>
<text text-anchor="middle" x="141" y="-227" font-family="Helvetica,sans-Serif" font-size="10.00">std_types.h</text>
</a>
</g>
</g>
<!-- Node2 -->
<g id="Node000002" class="node">
<title>Node2</title>
<g id="a_Node000002"><a xlink:title=" ">
<polygon fill="#e0e0e0" stroke="#999999" points="130,-184 0,-184 0,-165 130,-165 130,-184"/>
<text text-anchor="middle" x="65" y="-172" font-family="Helvetica,sans-Serif" font-size="10.00">odp/api/abi/std_types.h</text>
</a>
</g>
</g>
<!-- Node1&#45;&gt;Node2 -->
<g id="edge1_Node000001_Node000002" class="edge">
<title>Node1&#45;&gt;Node2</title>
<g id="a_edge1_Node000001_Node000002"><a xlink:title=" ">
<path fill="none" stroke="#63b8ff" d="M128.79,-219.98C117.22,-211.92 99.62,-199.65 85.84,-190.03"/>
<polygon fill="#63b8ff" stroke="#63b8ff" points="87.64,-187.02 77.43,-184.17 83.63,-192.76 87.64,-187.02"/>
</a>
</g>
</g>
<!-- Node3 -->
<g id="Node000003" class="node">
<title>Node3</title>
<g id="a_Node000003"><a xlink:href="api_2spec_2std__types_8h.html" target="_top" xlink:title="Common types and definitions for ODP API files.">
<polygon fill="white" stroke="#666666" points="285.5,-184 148.5,-184 148.5,-165 285.5,-165 285.5,-184"/>
<text text-anchor="middle" x="217" y="-172" font-family="Helvetica,sans-Serif" font-size="10.00">odp/api/spec/std_types.h</text>
</a>
</g>
</g>
<!-- Node1&#45;&gt;Node3 -->
<g id="edge2_Node000001_Node000003" class="edge">
<title>Node1&#45;&gt;Node3</title>
<g id="a_edge2_Node000001_Node000003"><a xlink:title=" ">
<path fill="none" stroke="#63b8ff" d="M153.21,-219.98C164.78,-211.92 182.38,-199.65 196.16,-190.03"/>
<polygon fill="#63b8ff" stroke="#63b8ff" points="198.37,-192.76 204.57,-184.17 194.36,-187.02 198.37,-192.76"/>
</a>
</g>
</g>
<!-- Node4 -->
<g id="Node000004" class="node">
<title>Node4</title>
<g id="a_Node000004"><a xlink:href="visibility__begin_8h_source.html" target="_top" xlink:title=" ">
<polygon fill="white" stroke="#666666" points="225.5,-19 104.5,-19 104.5,0 225.5,0 225.5,-19"/>
<text text-anchor="middle" x="165" y="-7" font-family="Helvetica,sans-Serif" font-size="10.00">odp/visibility_begin.h</text>
</a>
</g>
</g>
<!-- Node3&#45;&gt;Node4 -->
<g id="edge3_Node000003_Node000004" class="edge">
<title>Node3&#45;&gt;Node4</title>
<g id="a_edge3_Node000003_Node000004"><a xlink:title=" ">
<path fill="none" stroke="#63b8ff" d="M194.62,-164.85C177.35,-157.34 153.67,-145.14 137,-129 116.51,-109.18 111.61,-101.47 104,-74 101.75,-65.86 100.17,-62.53 104,-55 110.77,-41.68 123.6,-31.41 135.75,-24.1"/>
<polygon fill="#63b8ff" stroke="#63b8ff" points="137.75,-26.99 144.8,-19.09 134.36,-20.87 137.75,-26.99"/>
</a>
</g>
</g>
<!-- Node5 -->
<g id="Node000005" class="node">
<title>Node5</title>
<g id="a_Node000005"><a xlink:title=" ">
<polygon fill="#e0e0e0" stroke="#999999" points="199.5,-129 146.5,-129 146.5,-110 199.5,-110 199.5,-129"/>
<text text-anchor="middle" x="173" y="-117" font-family="Helvetica,sans-Serif" font-size="10.00">stdint.h</text>
</a>
</g>
</g>
<!-- Node3&#45;&gt;Node5 -->
<g id="edge4_Node000003_Node000005" class="edge">
<title>Node3&#45;&gt;Node5</title>
<g id="a_edge4_Node000003_Node000005"><a xlink:title=" ">
<path fill="none" stroke="#63b8ff" d="M209.73,-164.75C203.46,-157.18 194.21,-146.05 186.57,-136.84"/>
<polygon fill="#63b8ff" stroke="#63b8ff" points="189.21,-134.55 180.13,-129.09 183.83,-139.02 189.21,-134.55"/>
</a>
</g>
</g>
<!-- Node6 -->
<g id="Node000006" class="node">
<title>Node6</title>
<g id="a_Node000006"><a xlink:href="api_2align_8h.html" target="_top" xlink:title="ODP alignments.">
<polygon fill="white" stroke="#666666" points="306.5,-129 217.5,-129 217.5,-110 306.5,-110 306.5,-129"/>
<text text-anchor="middle" x="262" y="-117" font-family="Helvetica,sans-Serif" font-size="10.00">odp/api/align.h</text>
</a>
</g>
</g>
<!-- Node3&#45;&gt;Node6 -->
<g id="edge5_Node000003_Node000006" class="edge">
<title>Node3&#45;&gt;Node6</title>
<g id="a_edge5_Node000003_Node000006"><a xlink:title=" ">
<path fill="none" stroke="#63b8ff" d="M224.43,-164.75C230.85,-157.18 240.31,-146.05 248.12,-136.84"/>
<polygon fill="#63b8ff" stroke="#63b8ff" points="250.9,-138.98 254.71,-129.09 245.57,-134.45 250.9,-138.98"/>
</a>
</g>
</g>
<!-- Node9 -->
<g id="Node000009" class="node">
<title>Node9</title>
<g id="a_Node000009"><a xlink:href="visibility__end_8h_source.html" target="_top" xlink:title=" ">
<polygon fill="white" stroke="#666666" points="394,-19 282,-19 282,0 394,0 394,-19"/>
<text text-anchor="middle" x="338" y="-7" font-family="Helvetica,sans-Serif" font-size="10.00">odp/visibility_end.h</text>
</a>
</g>
</g>
<!-- Node3&#45;&gt;Node9 -->
<g id="edge10_Node000003_Node000009" class="edge">
<title>Node3&#45;&gt;Node9</title>
<g id="a_edge10_Node000003_Node000009"><a xlink:title=" ">
<path fill="none" stroke="#63b8ff" d="M246.2,-164.89C283.05,-152.12 343.82,-124.08 362,-74 367.76,-58.13 359.56,-40.14 351.22,-27.37"/>
<polygon fill="#63b8ff" stroke="#63b8ff" points="353.98,-25.21 345.32,-19.1 348.28,-29.27 353.98,-25.21"/>
</a>
</g>
</g>
<!-- Node7 -->
<g id="Node000007" class="node">
<title>Node7</title>
<g id="a_Node000007"><a xlink:title=" ">
<polygon fill="#e0e0e0" stroke="#999999" points="220.5,-74 113.5,-74 113.5,-55 220.5,-55 220.5,-74"/>
<text text-anchor="middle" x="167" y="-62" font-family="Helvetica,sans-Serif" font-size="10.00">odp/api/abi/align.h</text>
</a>
</g>
</g>
<!-- Node6&#45;&gt;Node7 -->
<g id="edge6_Node000006_Node000007" class="edge">
<title>Node6&#45;&gt;Node7</title>
<g id="a_edge6_Node000006_Node000007"><a xlink:title=" ">
<path fill="none" stroke="#63b8ff" d="M246.74,-109.98C231.87,-101.69 209.02,-88.94 191.58,-79.22"/>
<polygon fill="#63b8ff" stroke="#63b8ff" points="192.98,-75.99 182.54,-74.17 189.57,-82.1 192.98,-75.99"/>
</a>
</g>
</g>
<!-- Node8 -->
<g id="Node000008" class="node">
<title>Node8</title>
<g id="a_Node000008"><a xlink:href="api_2spec_2align_8h.html" target="_top" xlink:title="ODP alignments.">
<polygon fill="white" stroke="#666666" points="353,-74 239,-74 239,-55 353,-55 353,-74"/>
<text text-anchor="middle" x="296" y="-62" font-family="Helvetica,sans-Serif" font-size="10.00">odp/api/spec/align.h</text>
</a>
</g>
</g>
<!-- Node6&#45;&gt;Node8 -->
<g id="edge7_Node000006_Node000008" class="edge">
<title>Node6&#45;&gt;Node8</title>
<g id="a_edge7_Node000006_Node000008"><a xlink:title=" ">
<path fill="none" stroke="#63b8ff" d="M267.61,-109.75C272.32,-102.42 279.17,-91.73 284.97,-82.7"/>
<polygon fill="#63b8ff" stroke="#63b8ff" points="288.04,-84.4 290.49,-74.09 282.14,-80.62 288.04,-84.4"/>
</a>
</g>
</g>
<!-- Node8&#45;&gt;Node4 -->
<g id="edge8_Node000008_Node000004" class="edge">
<title>Node8&#45;&gt;Node4</title>
<g id="a_edge8_Node000008_Node000004"><a xlink:title=" ">
<path fill="none" stroke="#63b8ff" d="M274.95,-54.98C253.59,-46.34 220.3,-32.87 195.94,-23.02"/>
<polygon fill="#63b8ff" stroke="#63b8ff" points="197.01,-19.68 186.43,-19.17 194.39,-26.17 197.01,-19.68"/>
</a>
</g>
</g>
<!-- Node8&#45;&gt;Node9 -->
<g id="edge9_Node000008_Node000009" class="edge">
<title>Node8&#45;&gt;Node9</title>
<g id="a_edge9_Node000008_Node000009"><a xlink:title=" ">
<path fill="none" stroke="#63b8ff" d="M302.94,-54.75C308.87,-47.26 317.57,-36.28 324.82,-27.13"/>
<polygon fill="#63b8ff" stroke="#63b8ff" points="327.73,-29.1 331.19,-19.09 322.24,-24.75 327.73,-29.1"/>
</a>
</g>
</g>
</g>
</svg>
