<?xml version="1.0" encoding="UTF-8" standalone="no"?>
<!DOCTYPE svg PUBLIC "-//W3C//DTD SVG 1.1//EN"
 "http://www.w3.org/Graphics/SVG/1.1/DTD/svg11.dtd">
<!-- Generated by graphviz version 2.40.1 (20161225.0304)
 -->
<!-- Title: align.h Pages: 1 -->
<svg width="2858pt" height="532pt"
 viewBox="0.00 0.00 2857.50 532.00" xmlns="http://www.w3.org/2000/svg" xmlns:xlink="http://www.w3.org/1999/xlink">
<g id="graph0" class="graph" transform="scale(1 1) rotate(0) translate(4 528)">
<title>align.h</title>
<polygon fill="#ffffff" stroke="transparent" points="-4,4 -4,-528 2853.5,-528 2853.5,4 -4,4"/>
<!-- Node3 -->
<g id="node1" class="node">
<title>Node3</title>
<polygon fill="#bfbfbf" stroke="#000000" points="1774.5,-504.5 1774.5,-523.5 1824.5,-523.5 1824.5,-504.5 1774.5,-504.5"/>
<text text-anchor="middle" x="1799.5" y="-511.5" font-family="Helvetica,sans-Serif" font-size="10.00" fill="#000000">align.h</text>
</g>
<!-- Node4 -->
<g id="node2" class="node">
<title>Node4</title>
<g id="a_node2"><a xlink:href="api_2align_8h.html" target="_top" xlink:title="ODP alignments. ">
<polygon fill="#ffffff" stroke="#000000" points="1774.5,-448.5 1774.5,-467.5 1824.5,-467.5 1824.5,-448.5 1774.5,-448.5"/>
<text text-anchor="middle" x="1799.5" y="-455.5" font-family="Helvetica,sans-Serif" font-size="10.00" fill="#000000">align.h</text>
</a>
</g>
</g>
<!-- Node3&#45;&gt;Node4 -->
<g id="edge1" class="edge">
<title>Node3&#45;&gt;Node4</title>
<path fill="none" stroke="#191970" d="M1799.5,-494.1575C1799.5,-485.155 1799.5,-474.9199 1799.5,-467.6427"/>
<polygon fill="#191970" stroke="#191970" points="1796.0001,-494.2455 1799.5,-504.2455 1803.0001,-494.2456 1796.0001,-494.2455"/>
</g>
<!-- Node5 -->
<g id="node3" class="node">
<title>Node5</title>
<g id="a_node3"><a xlink:href="api_2abi-default_2atomic_8h.html" target="_top" xlink:title="ODP atomic operations. ">
<polygon fill="#ffffff" stroke="#000000" points="308,-280.5 308,-299.5 367,-299.5 367,-280.5 308,-280.5"/>
<text text-anchor="middle" x="337.5" y="-287.5" font-family="Helvetica,sans-Serif" font-size="10.00" fill="#000000">atomic.h</text>
</a>
</g>
</g>
<!-- Node4&#45;&gt;Node5 -->
<g id="edge2" class="edge">
<title>Node4&#45;&gt;Node5</title>
<path fill="none" stroke="#191970" d="M1764.0226,-454.0353C1606.4791,-436.4088 954.4228,-363.2388 419.5,-300 402.1243,-297.9458 382.6866,-295.5784 367.0985,-293.6629"/>
<polygon fill="#191970" stroke="#191970" points="1763.7644,-457.5282 1774.0916,-455.1615 1764.5426,-450.5715 1763.7644,-457.5282"/>
</g>
<!-- Node23 -->
<g id="node14" class="node">
<title>Node23</title>
<g id="a_node14"><a xlink:href="odp__api_8h.html" target="_top" xlink:title="The OpenDataPlane API. ">
<polygon fill="#ffffff" stroke="#000000" points="1993.5,-56.5 1993.5,-75.5 2057.5,-75.5 2057.5,-56.5 1993.5,-56.5"/>
<text text-anchor="middle" x="2025.5" y="-63.5" font-family="Helvetica,sans-Serif" font-size="10.00" fill="#000000">odp_api.h</text>
</a>
</g>
</g>
<!-- Node4&#45;&gt;Node23 -->
<g id="edge66" class="edge">
<title>Node4&#45;&gt;Node23</title>
<path fill="none" stroke="#191970" d="M1834.8285,-456.1273C2017.8211,-446.2002 2849.5,-398.2104 2849.5,-346 2849.5,-346 2849.5,-346 2849.5,-178 2849.5,-96.5657 2209.4385,-71.6766 2057.5489,-66.9168"/>
<polygon fill="#191970" stroke="#191970" points="1834.4735,-452.6413 1824.6766,-456.675 1834.8507,-459.6311 1834.4735,-452.6413"/>
</g>
<!-- Node52 -->
<g id="node16" class="node">
<title>Node52</title>
<g id="a_node16"><a xlink:href="api_2abi-default_2cpumask_8h.html" target="_top" xlink:title="ODP CPU masks and enumeration. ">
<polygon fill="#ffffff" stroke="#000000" points="2399.5,-280.5 2399.5,-299.5 2469.5,-299.5 2469.5,-280.5 2399.5,-280.5"/>
<text text-anchor="middle" x="2434.5" y="-287.5" font-family="Helvetica,sans-Serif" font-size="10.00" fill="#000000">cpumask.h</text>
</a>
</g>
</g>
<!-- Node4&#45;&gt;Node52 -->
<g id="edge16" class="edge">
<title>Node4&#45;&gt;Node52</title>
<path fill="none" stroke="#191970" d="M1834.4788,-448.7458C1945.3839,-419.4039 2288.3919,-328.6554 2399.4276,-299.279"/>
<polygon fill="#191970" stroke="#191970" points="1833.5568,-445.3692 1824.7846,-451.3105 1835.3472,-452.1364 1833.5568,-445.3692"/>
</g>
<!-- Node76 -->
<g id="node26" class="node">
<title>Node76</title>
<g id="a_node26"><a xlink:href="api_2spec_2std__types_8h.html" target="_top" xlink:title="Standard C language types and definitions for ODP. ">
<polygon fill="#ffffff" stroke="#000000" points="1731,-392.5 1731,-411.5 1804,-411.5 1804,-392.5 1731,-392.5"/>
<text text-anchor="middle" x="1767.5" y="-399.5" font-family="Helvetica,sans-Serif" font-size="10.00" fill="#000000">std_types.h</text>
</a>
</g>
</g>
<!-- Node4&#45;&gt;Node76 -->
<g id="edge27" class="edge">
<title>Node4&#45;&gt;Node76</title>
<path fill="none" stroke="#191970" d="M1788.8355,-439.3372C1783.5346,-430.0605 1777.3513,-419.2398 1773.0101,-411.6427"/>
<polygon fill="#191970" stroke="#191970" points="1785.9257,-441.2996 1793.926,-448.2455 1792.0034,-437.8266 1785.9257,-441.2996"/>
</g>
<!-- Node6 -->
<g id="node4" class="node">
<title>Node6</title>
<g id="a_node4"><a xlink:href="arch_2arm32-linux_2odp_2api_2abi_2atomic_8h_source.html" target="_top" xlink:title="atomic.h">
<polygon fill="#ffffff" stroke="#000000" points="385,-224.5 385,-243.5 444,-243.5 444,-224.5 385,-224.5"/>
<text text-anchor="middle" x="414.5" y="-231.5" font-family="Helvetica,sans-Serif" font-size="10.00" fill="#000000">atomic.h</text>
</a>
</g>
</g>
<!-- Node5&#45;&gt;Node6 -->
<g id="edge3" class="edge">
<title>Node5&#45;&gt;Node6</title>
<path fill="none" stroke="#191970" d="M359.2116,-274.2097C372.7353,-264.3743 389.6958,-252.0394 401.2413,-243.6427"/>
<polygon fill="#191970" stroke="#191970" points="356.9411,-271.5332 350.9124,-280.2455 361.0584,-277.1944 356.9411,-271.5332"/>
</g>
<!-- Node7 -->
<g id="node5" class="node">
<title>Node7</title>
<g id="a_node5"><a xlink:href="arch_2arm64-linux_2odp_2api_2abi_2atomic_8h_source.html" target="_top" xlink:title="atomic.h">
<polygon fill="#ffffff" stroke="#000000" points="0,-224.5 0,-243.5 59,-243.5 59,-224.5 0,-224.5"/>
<text text-anchor="middle" x="29.5" y="-231.5" font-family="Helvetica,sans-Serif" font-size="10.00" fill="#000000">atomic.h</text>
</a>
</g>
</g>
<!-- Node5&#45;&gt;Node7 -->
<g id="edge4" class="edge">
<title>Node5&#45;&gt;Node7</title>
<path fill="none" stroke="#191970" d="M297.7994,-284.3619C244.9671,-276.6025 148.7595,-261.578 67.5,-244 64.833,-243.4231 62.0716,-242.7823 59.3106,-242.1117"/>
<polygon fill="#191970" stroke="#191970" points="297.3699,-287.8362 307.7702,-285.8156 298.3798,-280.9095 297.3699,-287.8362"/>
</g>
<!-- Node8 -->
<g id="node6" class="node">
<title>Node8</title>
<g id="a_node6"><a xlink:href="arch_2default-linux_2odp_2api_2abi_2atomic_8h_source.html" target="_top" xlink:title="atomic.h">
<polygon fill="#ffffff" stroke="#000000" points="77,-224.5 77,-243.5 136,-243.5 136,-224.5 77,-224.5"/>
<text text-anchor="middle" x="106.5" y="-231.5" font-family="Helvetica,sans-Serif" font-size="10.00" fill="#000000">atomic.h</text>
</a>
</g>
</g>
<!-- Node5&#45;&gt;Node8 -->
<g id="edge5" class="edge">
<title>Node5&#45;&gt;Node8</title>
<path fill="none" stroke="#191970" d="M297.7721,-280.8169C258.7057,-271.7194 197.4069,-257.2645 144.5,-244 141.8532,-243.3364 139.1058,-242.636 136.3538,-241.9266"/>
<polygon fill="#191970" stroke="#191970" points="297.1579,-284.2674 307.6908,-283.1228 298.7431,-277.4492 297.1579,-284.2674"/>
</g>
<!-- Node9 -->
<g id="node7" class="node">
<title>Node9</title>
<g id="a_node7"><a xlink:href="arch_2mips64-linux_2odp_2api_2abi_2atomic_8h_source.html" target="_top" xlink:title="atomic.h">
<polygon fill="#ffffff" stroke="#000000" points="154,-224.5 154,-243.5 213,-243.5 213,-224.5 154,-224.5"/>
<text text-anchor="middle" x="183.5" y="-231.5" font-family="Helvetica,sans-Serif" font-size="10.00" fill="#000000">atomic.h</text>
</a>
</g>
</g>
<!-- Node5&#45;&gt;Node9 -->
<g id="edge6" class="edge">
<title>Node5&#45;&gt;Node9</title>
<path fill="none" stroke="#191970" d="M301.5386,-276.9231C273.3866,-266.686 234.8945,-252.6889 209.6281,-243.5011"/>
<polygon fill="#191970" stroke="#191970" points="300.4324,-280.245 311.0265,-280.3733 302.8246,-273.6665 300.4324,-280.245"/>
</g>
<!-- Node10 -->
<g id="node8" class="node">
<title>Node10</title>
<g id="a_node8"><a xlink:href="arch_2power64-linux_2odp_2api_2abi_2atomic_8h_source.html" target="_top" xlink:title="atomic.h">
<polygon fill="#ffffff" stroke="#000000" points="231,-224.5 231,-243.5 290,-243.5 290,-224.5 231,-224.5"/>
<text text-anchor="middle" x="260.5" y="-231.5" font-family="Helvetica,sans-Serif" font-size="10.00" fill="#000000">atomic.h</text>
</a>
</g>
</g>
<!-- Node5&#45;&gt;Node10 -->
<g id="edge7" class="edge">
<title>Node5&#45;&gt;Node10</title>
<path fill="none" stroke="#191970" d="M315.7884,-274.2097C302.2647,-264.3743 285.3042,-252.0394 273.7587,-243.6427"/>
<polygon fill="#191970" stroke="#191970" points="313.9416,-277.1944 324.0876,-280.2455 318.0589,-271.5332 313.9416,-277.1944"/>
</g>
<!-- Node11 -->
<g id="node9" class="node">
<title>Node11</title>
<g id="a_node9"><a xlink:href="arch_2x86__32-linux_2odp_2api_2abi_2atomic_8h_source.html" target="_top" xlink:title="atomic.h">
<polygon fill="#ffffff" stroke="#000000" points="308,-224.5 308,-243.5 367,-243.5 367,-224.5 308,-224.5"/>
<text text-anchor="middle" x="337.5" y="-231.5" font-family="Helvetica,sans-Serif" font-size="10.00" fill="#000000">atomic.h</text>
</a>
</g>
</g>
<!-- Node5&#45;&gt;Node11 -->
<g id="edge8" class="edge">
<title>Node5&#45;&gt;Node11</title>
<path fill="none" stroke="#191970" d="M337.5,-270.1575C337.5,-261.155 337.5,-250.9199 337.5,-243.6427"/>
<polygon fill="#191970" stroke="#191970" points="334.0001,-270.2455 337.5,-280.2455 341.0001,-270.2456 334.0001,-270.2455"/>
</g>
<!-- Node12 -->
<g id="node10" class="node">
<title>Node12</title>
<g id="a_node10"><a xlink:href="arch_2x86__64-linux_2odp_2api_2abi_2atomic_8h_source.html" target="_top" xlink:title="atomic.h">
<polygon fill="#ffffff" stroke="#000000" points="970,-224.5 970,-243.5 1029,-243.5 1029,-224.5 970,-224.5"/>
<text text-anchor="middle" x="999.5" y="-231.5" font-family="Helvetica,sans-Serif" font-size="10.00" fill="#000000">atomic.h</text>
</a>
</g>
</g>
<!-- Node5&#45;&gt;Node12 -->
<g id="edge9" class="edge">
<title>Node5&#45;&gt;Node12</title>
<path fill="none" stroke="#191970" d="M377.3203,-286.5093C399.4585,-284.5758 427.5052,-282.1377 452.5,-280 650.004,-263.1083 887.6695,-243.2984 969.8505,-236.4636"/>
<polygon fill="#191970" stroke="#191970" points="376.9395,-283.0292 367.2824,-287.3869 377.5492,-290.0026 376.9395,-283.0292"/>
</g>
<!-- Node13 -->
<g id="node11" class="node">
<title>Node13</title>
<g id="a_node11"><a xlink:href="api_2atomic_8h.html" target="_top" xlink:title="ODP atomic operations. ">
<polygon fill="#ffffff" stroke="#ff0000" points="1706,-168.5 1706,-187.5 1765,-187.5 1765,-168.5 1706,-168.5"/>
<text text-anchor="middle" x="1735.5" y="-175.5" font-family="Helvetica,sans-Serif" font-size="10.00" fill="#000000">atomic.h</text>
</a>
</g>
</g>
<!-- Node12&#45;&gt;Node13 -->
<g id="edge10" class="edge">
<title>Node12&#45;&gt;Node13</title>
<path fill="none" stroke="#191970" d="M1039.3121,-230.9708C1170.9306,-220.9564 1590.2267,-189.0534 1705.7704,-180.262"/>
<polygon fill="#191970" stroke="#191970" points="1038.9692,-227.4867 1029.2636,-231.7354 1039.5004,-234.4665 1038.9692,-227.4867"/>
</g>
<!-- Node14 -->
<g id="node12" class="node">
<title>Node14</title>
<g id="a_node12"><a xlink:href="api_2abi-default_2barrier_8h.html" target="_top" xlink:title="ODP barrier. ">
<polygon fill="#ffffff" stroke="#ff0000" points="1839,-112.5 1839,-131.5 1896,-131.5 1896,-112.5 1839,-112.5"/>
<text text-anchor="middle" x="1867.5" y="-119.5" font-family="Helvetica,sans-Serif" font-size="10.00" fill="#000000">barrier.h</text>
</a>
</g>
</g>
<!-- Node13&#45;&gt;Node14 -->
<g id="edge11" class="edge">
<title>Node13&#45;&gt;Node14</title>
<path fill="none" stroke="#191970" d="M1767.5965,-164.3833C1791.6035,-154.1985 1823.8259,-140.5284 1845.1045,-131.5011"/>
<polygon fill="#191970" stroke="#191970" points="1766.0305,-161.2457 1758.1916,-168.3733 1768.7644,-167.6897 1766.0305,-161.2457"/>
</g>
<!-- Node22 -->
<g id="node13" class="node">
<title>Node22</title>
<g id="a_node13"><a xlink:href="api_2barrier_8h.html" target="_top" xlink:title="ODP execution barriers. ">
<polygon fill="#ffffff" stroke="#000000" points="1764,-112.5 1764,-131.5 1821,-131.5 1821,-112.5 1764,-112.5"/>
<text text-anchor="middle" x="1792.5" y="-119.5" font-family="Helvetica,sans-Serif" font-size="10.00" fill="#000000">barrier.h</text>
</a>
</g>
</g>
<!-- Node13&#45;&gt;Node22 -->
<g id="edge12" class="edge">
<title>Node13&#45;&gt;Node22</title>
<path fill="none" stroke="#191970" d="M1752.7271,-161.0751C1762.5341,-151.4402 1774.464,-139.7196 1782.6851,-131.6427"/>
<polygon fill="#191970" stroke="#191970" points="1750.1091,-158.7406 1745.4286,-168.2455 1755.0149,-163.734 1750.1091,-158.7406"/>
</g>
<!-- Node13&#45;&gt;Node23 -->
<g id="edge15" class="edge">
<title>Node13&#45;&gt;Node23</title>
<path fill="none" stroke="#191970" d="M1735.8468,-158.0431C1737.2233,-143.1731 1741.6058,-123.5234 1754.5,-112 1789.282,-80.9157 1928.9857,-70.4808 1993.0749,-67.2848"/>
<polygon fill="#191970" stroke="#191970" points="1732.3389,-158.093 1735.2888,-168.2688 1739.3285,-158.4744 1732.3389,-158.093"/>
</g>
<!-- Node22&#45;&gt;Node23 -->
<g id="edge13" class="edge">
<title>Node22&#45;&gt;Node23</title>
<path fill="none" stroke="#191970" d="M1831.1881,-111.6261C1893.7047,-95.9476 1956.2194,-81.5894 1993.1649,-73.2404"/>
<polygon fill="#191970" stroke="#191970" points="1830.0003,-108.3159 1821.1584,-114.153 1831.7105,-115.1038 1830.0003,-108.3159"/>
</g>
<!-- Node24 -->
<g id="node15" class="node">
<title>Node24</title>
<g id="a_node15"><a xlink:href="odp_8h.html" target="_top" xlink:title="WARNING: THIS FILE IS DEPRECATED AND WILL BE REMOVED!!! ODP APPLICATIONS SHOULD NOW INCLUDE odp_api...">
<polygon fill="#ffffff" stroke="#000000" points="2003.5,-.5 2003.5,-19.5 2047.5,-19.5 2047.5,-.5 2003.5,-.5"/>
<text text-anchor="middle" x="2025.5" y="-7.5" font-family="Helvetica,sans-Serif" font-size="10.00" fill="#000000">odp.h</text>
</a>
</g>
</g>
<!-- Node23&#45;&gt;Node24 -->
<g id="edge14" class="edge">
<title>Node23&#45;&gt;Node24</title>
<path fill="none" stroke="#191970" d="M2025.5,-46.1575C2025.5,-37.155 2025.5,-26.9199 2025.5,-19.6427"/>
<polygon fill="#191970" stroke="#191970" points="2022.0001,-46.2455 2025.5,-56.2455 2029.0001,-46.2456 2022.0001,-46.2455"/>
</g>
<!-- Node53 -->
<g id="node17" class="node">
<title>Node53</title>
<g id="a_node17"><a xlink:href="arch_2arm32-linux_2odp_2api_2abi_2cpumask_8h_source.html" target="_top" xlink:title="cpumask.h">
<polygon fill="#ffffff" stroke="#000000" points="2311.5,-224.5 2311.5,-243.5 2381.5,-243.5 2381.5,-224.5 2311.5,-224.5"/>
<text text-anchor="middle" x="2346.5" y="-231.5" font-family="Helvetica,sans-Serif" font-size="10.00" fill="#000000">cpumask.h</text>
</a>
</g>
</g>
<!-- Node52&#45;&gt;Node53 -->
<g id="edge17" class="edge">
<title>Node52&#45;&gt;Node53</title>
<path fill="none" stroke="#191970" d="M2410.5655,-274.769C2394.9717,-264.8456 2375.099,-252.1994 2361.6528,-243.6427"/>
<polygon fill="#191970" stroke="#191970" points="2408.8559,-277.8296 2419.1716,-280.2455 2412.614,-271.9239 2408.8559,-277.8296"/>
</g>
<!-- Node54 -->
<g id="node18" class="node">
<title>Node54</title>
<g id="a_node18"><a xlink:href="arch_2arm64-linux_2odp_2api_2abi_2cpumask_8h_source.html" target="_top" xlink:title="cpumask.h">
<polygon fill="#ffffff" stroke="#000000" points="2399.5,-224.5 2399.5,-243.5 2469.5,-243.5 2469.5,-224.5 2399.5,-224.5"/>
<text text-anchor="middle" x="2434.5" y="-231.5" font-family="Helvetica,sans-Serif" font-size="10.00" fill="#000000">cpumask.h</text>
</a>
</g>
</g>
<!-- Node52&#45;&gt;Node54 -->
<g id="edge18" class="edge">
<title>Node52&#45;&gt;Node54</title>
<path fill="none" stroke="#191970" d="M2434.5,-270.1575C2434.5,-261.155 2434.5,-250.9199 2434.5,-243.6427"/>
<polygon fill="#191970" stroke="#191970" points="2431.0001,-270.2455 2434.5,-280.2455 2438.0001,-270.2456 2431.0001,-270.2455"/>
</g>
<!-- Node55 -->
<g id="node19" class="node">
<title>Node55</title>
<g id="a_node19"><a xlink:href="arch_2default-linux_2odp_2api_2abi_2cpumask_8h_source.html" target="_top" xlink:title="cpumask.h">
<polygon fill="#ffffff" stroke="#000000" points="2487.5,-224.5 2487.5,-243.5 2557.5,-243.5 2557.5,-224.5 2487.5,-224.5"/>
<text text-anchor="middle" x="2522.5" y="-231.5" font-family="Helvetica,sans-Serif" font-size="10.00" fill="#000000">cpumask.h</text>
</a>
</g>
</g>
<!-- Node52&#45;&gt;Node55 -->
<g id="edge19" class="edge">
<title>Node52&#45;&gt;Node55</title>
<path fill="none" stroke="#191970" d="M2458.4345,-274.769C2474.0283,-264.8456 2493.901,-252.1994 2507.3472,-243.6427"/>
<polygon fill="#191970" stroke="#191970" points="2456.386,-271.9239 2449.8284,-280.2455 2460.1441,-277.8296 2456.386,-271.9239"/>
</g>
<!-- Node56 -->
<g id="node20" class="node">
<title>Node56</title>
<g id="a_node20"><a xlink:href="arch_2mips64-linux_2odp_2api_2abi_2cpumask_8h_source.html" target="_top" xlink:title="cpumask.h">
<polygon fill="#ffffff" stroke="#000000" points="2575.5,-224.5 2575.5,-243.5 2645.5,-243.5 2645.5,-224.5 2575.5,-224.5"/>
<text text-anchor="middle" x="2610.5" y="-231.5" font-family="Helvetica,sans-Serif" font-size="10.00" fill="#000000">cpumask.h</text>
</a>
</g>
</g>
<!-- Node52&#45;&gt;Node56 -->
<g id="edge20" class="edge">
<title>Node52&#45;&gt;Node56</title>
<path fill="none" stroke="#191970" d="M2474.3404,-277.3235C2506.6173,-267.0536 2551.3852,-252.8093 2580.6393,-243.5011"/>
<polygon fill="#191970" stroke="#191970" points="2473.2235,-274.0059 2464.7555,-280.3733 2475.346,-280.6764 2473.2235,-274.0059"/>
</g>
<!-- Node57 -->
<g id="node21" class="node">
<title>Node57</title>
<g id="a_node21"><a xlink:href="arch_2power64-linux_2odp_2api_2abi_2cpumask_8h_source.html" target="_top" xlink:title="cpumask.h">
<polygon fill="#ffffff" stroke="#000000" points="2663.5,-224.5 2663.5,-243.5 2733.5,-243.5 2733.5,-224.5 2663.5,-224.5"/>
<text text-anchor="middle" x="2698.5" y="-231.5" font-family="Helvetica,sans-Serif" font-size="10.00" fill="#000000">cpumask.h</text>
</a>
</g>
</g>
<!-- Node52&#45;&gt;Node57 -->
<g id="edge21" class="edge">
<title>Node52&#45;&gt;Node57</title>
<path fill="none" stroke="#191970" d="M2479.5125,-280.8264C2524.0128,-271.7011 2594.0196,-257.1947 2654.5,-244 2657.4084,-243.3655 2660.4228,-242.699 2663.4478,-242.024"/>
<polygon fill="#191970" stroke="#191970" points="2478.6888,-277.4224 2469.5944,-282.8577 2480.0933,-284.28 2478.6888,-277.4224"/>
</g>
<!-- Node58 -->
<g id="node22" class="node">
<title>Node58</title>
<g id="a_node22"><a xlink:href="arch_2x86__32-linux_2odp_2api_2abi_2cpumask_8h_source.html" target="_top" xlink:title="cpumask.h">
<polygon fill="#ffffff" stroke="#000000" points="2223.5,-224.5 2223.5,-243.5 2293.5,-243.5 2293.5,-224.5 2223.5,-224.5"/>
<text text-anchor="middle" x="2258.5" y="-231.5" font-family="Helvetica,sans-Serif" font-size="10.00" fill="#000000">cpumask.h</text>
</a>
</g>
</g>
<!-- Node52&#45;&gt;Node58 -->
<g id="edge22" class="edge">
<title>Node52&#45;&gt;Node58</title>
<path fill="none" stroke="#191970" d="M2394.6596,-277.3235C2362.3827,-267.0536 2317.6148,-252.8093 2288.3607,-243.5011"/>
<polygon fill="#191970" stroke="#191970" points="2393.654,-280.6764 2404.2445,-280.3733 2395.7765,-274.0059 2393.654,-280.6764"/>
</g>
<!-- Node59 -->
<g id="node23" class="node">
<title>Node59</title>
<g id="a_node23"><a xlink:href="arch_2x86__64-linux_2odp_2api_2abi_2cpumask_8h_source.html" target="_top" xlink:title="cpumask.h">
<polygon fill="#ffffff" stroke="#000000" points="2751.5,-224.5 2751.5,-243.5 2821.5,-243.5 2821.5,-224.5 2751.5,-224.5"/>
<text text-anchor="middle" x="2786.5" y="-231.5" font-family="Helvetica,sans-Serif" font-size="10.00" fill="#000000">cpumask.h</text>
</a>
</g>
</g>
<!-- Node52&#45;&gt;Node59 -->
<g id="edge23" class="edge">
<title>Node52&#45;&gt;Node59</title>
<path fill="none" stroke="#191970" d="M2479.6857,-284.3342C2539.8766,-276.54 2649.5776,-261.4728 2742.5,-244 2745.4255,-243.4499 2748.452,-242.8428 2751.4851,-242.2077"/>
<polygon fill="#191970" stroke="#191970" points="2479.2207,-280.8651 2469.7493,-285.613 2480.1143,-287.8079 2479.2207,-280.8651"/>
</g>
<!-- Node60 -->
<g id="node24" class="node">
<title>Node60</title>
<g id="a_node24"><a xlink:href="api_2cpumask_8h.html" target="_top" xlink:title="ODP CPU masks and enumeration. ">
<polygon fill="#ffffff" stroke="#ff0000" points="2326.5,-168.5 2326.5,-187.5 2396.5,-187.5 2396.5,-168.5 2326.5,-168.5"/>
<text text-anchor="middle" x="2361.5" y="-175.5" font-family="Helvetica,sans-Serif" font-size="10.00" fill="#000000">cpumask.h</text>
</a>
</g>
</g>
<!-- Node59&#45;&gt;Node60 -->
<g id="edge24" class="edge">
<title>Node59&#45;&gt;Node60</title>
<path fill="none" stroke="#191970" d="M2741.1015,-223.8955C2608.5983,-201.3179 2462.3408,-186.925 2396.6086,-181.0156"/>
<polygon fill="#191970" stroke="#191970" points="2740.5725,-227.3559 2751.0218,-225.6059 2741.7619,-220.4577 2740.5725,-227.3559"/>
</g>
<!-- Node60&#45;&gt;Node23 -->
<g id="edge26" class="edge">
<title>Node60&#45;&gt;Node23</title>
<path fill="none" stroke="#191970" d="M2358.1129,-158.2026C2354.453,-143.1285 2347.0612,-123.1331 2332.5,-112 2289.7935,-79.3477 2127.2069,-69.6511 2057.5204,-66.9615"/>
<polygon fill="#191970" stroke="#191970" points="2354.7101,-159.0308 2360.1674,-168.112 2361.5643,-157.6097 2354.7101,-159.0308"/>
</g>
<!-- Node72 -->
<g id="node25" class="node">
<title>Node72</title>
<g id="a_node25"><a xlink:href="api_2spec_2init_8h.html" target="_top" xlink:title="init.h">
<polygon fill="#ffffff" stroke="#ff0000" points="2282,-112.5 2282,-131.5 2323,-131.5 2323,-112.5 2282,-112.5"/>
<text text-anchor="middle" x="2302.5" y="-119.5" font-family="Helvetica,sans-Serif" font-size="10.00" fill="#000000">init.h</text>
</a>
</g>
</g>
<!-- Node60&#45;&gt;Node72 -->
<g id="edge25" class="edge">
<title>Node60&#45;&gt;Node72</title>
<path fill="none" stroke="#191970" d="M2343.9693,-161.3607C2333.7623,-151.6727 2321.2531,-139.7995 2312.6592,-131.6427"/>
<polygon fill="#191970" stroke="#191970" points="2341.5604,-163.8998 2351.223,-168.2455 2346.3794,-158.8227 2341.5604,-163.8998"/>
</g>
<!-- Node77 -->
<g id="node27" class="node">
<title>Node77</title>
<g id="a_node27"><a xlink:href="api_2std__types_8h.html" target="_top" xlink:title="Standard C language types and definitions for ODP. ">
<polygon fill="#ffffff" stroke="#ff0000" points="1545,-336.5 1545,-355.5 1618,-355.5 1618,-336.5 1545,-336.5"/>
<text text-anchor="middle" x="1581.5" y="-343.5" font-family="Helvetica,sans-Serif" font-size="10.00" fill="#000000">std_types.h</text>
</a>
</g>
</g>
<!-- Node76&#45;&gt;Node77 -->
<g id="edge28" class="edge">
<title>Node76&#45;&gt;Node77</title>
<path fill="none" stroke="#191970" d="M1725.8363,-389.4561C1691.6933,-379.1765 1644.1069,-364.8494 1613.0573,-355.5011"/>
<polygon fill="#191970" stroke="#191970" points="1724.941,-392.8417 1735.5255,-392.3733 1726.9591,-386.1389 1724.941,-392.8417"/>
</g>
<!-- Node77&#45;&gt;Node5 -->
<g id="edge29" class="edge">
<title>Node77&#45;&gt;Node5</title>
<path fill="none" stroke="#191970" d="M1534.5164,-345.5179C1376.783,-343.6053 851.7942,-334.8573 419.5,-300 402.0599,-298.5937 382.6192,-296.2567 367.0456,-294.1954"/>
<polygon fill="#191970" stroke="#191970" points="1534.7613,-349.0209 1544.8019,-345.6391 1534.8439,-342.0214 1534.7613,-349.0209"/>
</g>
<!-- Node77&#45;&gt;Node14 -->
<g id="edge30" class="edge">
<title>Node77&#45;&gt;Node14</title>
<path fill="none" stroke="#191970" d="M1628.126,-339.5086C1677.9572,-331.7896 1752.8534,-317.6956 1775.5,-300 1833.8849,-254.379 1858.8031,-161.4491 1865.5268,-131.5175"/>
<polygon fill="#191970" stroke="#191970" points="1627.5713,-336.0526 1618.209,-341.0123 1628.6207,-342.9735 1627.5713,-336.0526"/>
</g>
<!-- Node77&#45;&gt;Node22 -->
<g id="edge40" class="edge">
<title>Node77&#45;&gt;Node22</title>
<path fill="none" stroke="#191970" d="M1628.2976,-339.0593C1673.1087,-331.4628 1736.3646,-317.9357 1753.5,-300 1799.8299,-251.5062 1796.1718,-161.2594 1793.5456,-131.6697"/>
<polygon fill="#191970" stroke="#191970" points="1627.4894,-335.6453 1618.1923,-340.7259 1628.6285,-342.552 1627.4894,-335.6453"/>
</g>
<!-- Node77&#45;&gt;Node23 -->
<g id="edge65" class="edge">
<title>Node77&#45;&gt;Node23</title>
<path fill="none" stroke="#191970" d="M1628.3913,-343.189C1735.769,-336.4638 1992.926,-318.6159 2027.5,-300 2060.8706,-282.0321 2081.5,-271.9005 2081.5,-234 2081.5,-234 2081.5,-234 2081.5,-178 2081.5,-147.4754 2076.5643,-139.0915 2062.5,-112 2055.3222,-98.1737 2043.6241,-84.5494 2035.304,-75.7614"/>
<polygon fill="#191970" stroke="#191970" points="1627.9401,-339.7101 1618.1763,-343.8234 1628.3741,-346.6967 1627.9401,-339.7101"/>
</g>
<!-- Node77&#45;&gt;Node52 -->
<g id="edge32" class="edge">
<title>Node77&#45;&gt;Node52</title>
<path fill="none" stroke="#191970" d="M1628.158,-342.9369C1781.0342,-332.9004 2264.7435,-301.1446 2399.4041,-292.3041"/>
<polygon fill="#191970" stroke="#191970" points="1627.9015,-339.4461 1618.1523,-343.5938 1628.3602,-346.431 1627.9015,-339.4461"/>
</g>
<!-- Node77&#45;&gt;Node72 -->
<g id="edge58" class="edge">
<title>Node77&#45;&gt;Node72</title>
<path fill="none" stroke="#191970" d="M1628.4429,-344.1462C1755.4942,-338.8524 2099.6354,-322.5814 2145.5,-300 2186.4302,-279.848 2178.8259,-252.4383 2214.5,-224 2240.0194,-203.6567 2257.3861,-212.8855 2278.5,-188 2292.6984,-171.2654 2298.7955,-145.4344 2301.1643,-131.5722"/>
<polygon fill="#191970" stroke="#191970" points="1628.101,-340.6572 1618.2538,-344.5665 1628.3896,-347.6512 1628.101,-340.6572"/>
</g>
<!-- Node78 -->
<g id="node28" class="node">
<title>Node78</title>
<g id="a_node28"><a xlink:href="api_2abi-default_2byteorder_8h.html" target="_top" xlink:title="ODP byteorder. ">
<polygon fill="#ffffff" stroke="#ff0000" points="461.5,-280.5 461.5,-299.5 533.5,-299.5 533.5,-280.5 461.5,-280.5"/>
<text text-anchor="middle" x="497.5" y="-287.5" font-family="Helvetica,sans-Serif" font-size="10.00" fill="#000000">byteorder.h</text>
</a>
</g>
</g>
<!-- Node77&#45;&gt;Node78 -->
<g id="edge31" class="edge">
<title>Node77&#45;&gt;Node78</title>
<path fill="none" stroke="#191970" d="M1534.7122,-345.014C1358.9767,-341.1418 738.4192,-325.9043 542.5,-300 539.6438,-299.6223 536.7009,-299.1532 533.7524,-298.6256"/>
<polygon fill="#191970" stroke="#191970" points="1534.8437,-348.5176 1544.9179,-345.2371 1534.9968,-341.5193 1534.8437,-348.5176"/>
</g>
<!-- Node87 -->
<g id="node29" class="node">
<title>Node87</title>
<g id="a_node29"><a xlink:href="api_2abi-default_2init_8h.html" target="_top" xlink:title="ODP initialization. ">
<polygon fill="#ffffff" stroke="#ff0000" points="552,-280.5 552,-299.5 593,-299.5 593,-280.5 552,-280.5"/>
<text text-anchor="middle" x="572.5" y="-287.5" font-family="Helvetica,sans-Serif" font-size="10.00" fill="#000000">init.h</text>
</a>
</g>
</g>
<!-- Node77&#45;&gt;Node87 -->
<g id="edge33" class="edge">
<title>Node77&#45;&gt;Node87</title>
<path fill="none" stroke="#191970" d="M1534.7519,-345.567C1365.295,-343.7236 783.6776,-334.9385 601.5,-300 598.7802,-299.4784 595.9688,-298.7561 593.2152,-297.9362"/>
<polygon fill="#191970" stroke="#191970" points="1534.8097,-349.0677 1544.8463,-345.6738 1534.8839,-342.0681 1534.8097,-349.0677"/>
</g>
<!-- Node95 -->
<g id="node30" class="node">
<title>Node95</title>
<g id="a_node30"><a xlink:href="api_2abi-default_2ipsec_8h.html" target="_top" xlink:title="ODP IPSEC API &#45; platform specific types. ">
<polygon fill="#ffffff" stroke="#ff0000" points="611,-280.5 611,-299.5 662,-299.5 662,-280.5 611,-280.5"/>
<text text-anchor="middle" x="636.5" y="-287.5" font-family="Helvetica,sans-Serif" font-size="10.00" fill="#000000">ipsec.h</text>
</a>
</g>
</g>
<!-- Node77&#45;&gt;Node95 -->
<g id="edge34" class="edge">
<title>Node77&#45;&gt;Node95</title>
<path fill="none" stroke="#191970" d="M1534.643,-345.0913C1372.989,-341.7286 839.3117,-328.6739 670.5,-300 667.831,-299.5467 665.0751,-298.9537 662.3409,-298.2826"/>
<polygon fill="#191970" stroke="#191970" points="1534.6753,-348.5926 1544.7451,-345.2988 1534.8191,-341.5941 1534.6753,-348.5926"/>
</g>
<!-- Node104 -->
<g id="node31" class="node">
<title>Node104</title>
<g id="a_node31"><a xlink:href="api_2abi-default_2packet__io_8h.html" target="_top" xlink:title="ODP Packet IO. ">
<polygon fill="#ffffff" stroke="#ff0000" points="680,-280.5 680,-299.5 753,-299.5 753,-280.5 680,-280.5"/>
<text text-anchor="middle" x="716.5" y="-287.5" font-family="Helvetica,sans-Serif" font-size="10.00" fill="#000000">packet_io.h</text>
</a>
</g>
</g>
<!-- Node77&#45;&gt;Node104 -->
<g id="edge35" class="edge">
<title>Node77&#45;&gt;Node104</title>
<path fill="none" stroke="#191970" d="M1534.5116,-344.3387C1383.7702,-338.8553 913.3985,-320.5089 762.5,-300 759.4227,-299.5818 756.2454,-299.0673 753.0656,-298.4945"/>
<polygon fill="#191970" stroke="#191970" points="1534.6838,-347.8471 1544.8038,-344.7111 1534.937,-340.8517 1534.6838,-347.8471"/>
</g>
<!-- Node34 -->
<g id="node32" class="node">
<title>Node34</title>
<g id="a_node32"><a xlink:href="api_2abi-default_2rwlock__recursive_8h.html" target="_top" xlink:title="ODP recursive read/write lock. ">
<polygon fill="#ffffff" stroke="#ff0000" points="771.5,-280.5 771.5,-299.5 879.5,-299.5 879.5,-280.5 771.5,-280.5"/>
<text text-anchor="middle" x="825.5" y="-287.5" font-family="Helvetica,sans-Serif" font-size="10.00" fill="#000000">rwlock_recursive.h</text>
</a>
</g>
</g>
<!-- Node77&#45;&gt;Node34 -->
<g id="edge36" class="edge">
<title>Node77&#45;&gt;Node34</title>
<path fill="none" stroke="#191970" d="M1534.69,-344.3663C1422.7418,-340.1385 1130.8156,-327.2163 888.5,-300 885.6386,-299.6786 882.7087,-299.3194 879.7535,-298.9333"/>
<polygon fill="#191970" stroke="#191970" points="1534.8308,-347.8739 1544.9542,-344.7485 1535.0914,-340.8787 1534.8308,-347.8739"/>
</g>
<!-- Node132 -->
<g id="node33" class="node">
<title>Node132</title>
<g id="a_node33"><a xlink:href="api_2abi-default_2schedule_8h.html" target="_top" xlink:title="ODP schedule. ">
<polygon fill="#ffffff" stroke="#ff0000" points="898,-280.5 898,-299.5 967,-299.5 967,-280.5 898,-280.5"/>
<text text-anchor="middle" x="932.5" y="-287.5" font-family="Helvetica,sans-Serif" font-size="10.00" fill="#000000">schedule.h</text>
</a>
</g>
</g>
<!-- Node77&#45;&gt;Node132 -->
<g id="edge37" class="edge">
<title>Node77&#45;&gt;Node132</title>
<path fill="none" stroke="#191970" d="M1534.5286,-344.7871C1432.4559,-341.6357 1182.9813,-331.1394 976.5,-300 973.5565,-299.5561 970.5173,-299.0236 967.4758,-298.4387"/>
<polygon fill="#191970" stroke="#191970" points="1534.7029,-348.2937 1544.8032,-345.0946 1534.9124,-341.2969 1534.7029,-348.2937"/>
</g>
<!-- Node140 -->
<g id="node34" class="node">
<title>Node140</title>
<g id="a_node34"><a xlink:href="api_2abi-default_2spinlock__recursive_8h.html" target="_top" xlink:title="ODP recursive spinlock. ">
<polygon fill="#ffffff" stroke="#ff0000" points="985.5,-280.5 985.5,-299.5 1101.5,-299.5 1101.5,-280.5 985.5,-280.5"/>
<text text-anchor="middle" x="1043.5" y="-287.5" font-family="Helvetica,sans-Serif" font-size="10.00" fill="#000000">spinlock_recursive.h</text>
</a>
</g>
</g>
<!-- Node77&#45;&gt;Node140 -->
<g id="edge38" class="edge">
<title>Node77&#45;&gt;Node140</title>
<path fill="none" stroke="#191970" d="M1534.7138,-342.2236C1449.9723,-335.2071 1265.488,-319.1222 1110.5,-300 1107.5819,-299.64 1104.5948,-299.2549 1101.58,-298.8531"/>
<polygon fill="#191970" stroke="#191970" points="1534.5336,-345.7205 1544.7873,-343.0538 1535.1086,-338.7442 1534.5336,-345.7205"/>
</g>
<!-- Node149 -->
<g id="node35" class="node">
<title>Node149</title>
<g id="a_node35"><a xlink:href="api_2abi-default_2traffic__mngr_8h.html" target="_top" xlink:title="ODP traffic mngr. ">
<polygon fill="#ffffff" stroke="#ff0000" points="1119.5,-280.5 1119.5,-299.5 1203.5,-299.5 1203.5,-280.5 1119.5,-280.5"/>
<text text-anchor="middle" x="1161.5" y="-287.5" font-family="Helvetica,sans-Serif" font-size="10.00" fill="#000000">traffic_mngr.h</text>
</a>
</g>
</g>
<!-- Node77&#45;&gt;Node149 -->
<g id="edge39" class="edge">
<title>Node77&#45;&gt;Node149</title>
<path fill="none" stroke="#191970" d="M1534.7064,-341.2225C1464.5063,-333.8168 1327.8548,-318.4765 1212.5,-300 1209.6491,-299.5434 1206.714,-299.0446 1203.7603,-298.5215"/>
<polygon fill="#191970" stroke="#191970" points="1534.6698,-344.7378 1544.9803,-342.2996 1535.3997,-337.7759 1534.6698,-344.7378"/>
</g>
<!-- Node157 -->
<g id="node36" class="node">
<title>Node157</title>
<g id="a_node36"><a xlink:href="api_2buffer_8h.html" target="_top" xlink:title="ODP buffer descriptor. ">
<polygon fill="#ffffff" stroke="#000000" points="2110,-168.5 2110,-187.5 2163,-187.5 2163,-168.5 2110,-168.5"/>
<text text-anchor="middle" x="2136.5" y="-175.5" font-family="Helvetica,sans-Serif" font-size="10.00" fill="#000000">buffer.h</text>
</a>
</g>
</g>
<!-- Node77&#45;&gt;Node157 -->
<g id="edge41" class="edge">
<title>Node77&#45;&gt;Node157</title>
<path fill="none" stroke="#191970" d="M1628.4623,-344.6933C1748.4275,-340.9528 2059.2692,-328.5817 2095.5,-300 2131.2877,-271.7678 2136.0742,-211.0595 2136.5421,-187.5616"/>
<polygon fill="#191970" stroke="#191970" points="1628.0232,-341.205 1618.1347,-345.0086 1628.2369,-348.2017 1628.0232,-341.205"/>
</g>
<!-- Node112 -->
<g id="node37" class="node">
<title>Node112</title>
<g id="a_node37"><a xlink:href="api_2classification_8h.html" target="_top" xlink:title="ODP classification descriptor. ">
<polygon fill="#ffffff" stroke="#ff0000" points="2181,-168.5 2181,-187.5 2270,-187.5 2270,-168.5 2181,-168.5"/>
<text text-anchor="middle" x="2225.5" y="-175.5" font-family="Helvetica,sans-Serif" font-size="10.00" fill="#000000">classification.h</text>
</a>
</g>
</g>
<!-- Node77&#45;&gt;Node112 -->
<g id="edge43" class="edge">
<title>Node77&#45;&gt;Node112</title>
<path fill="none" stroke="#191970" d="M1628.3315,-344.0541C1751.0732,-338.6645 2075.6019,-322.4452 2118.5,-300 2157.3745,-279.66 2152.3182,-256.7622 2181.5,-224 2192.9668,-211.1264 2206.7973,-196.8609 2215.8527,-187.6804"/>
<polygon fill="#191970" stroke="#191970" points="1627.9641,-340.5667 1618.1255,-344.4977 1628.2681,-347.5601 1627.9641,-340.5667"/>
</g>
<!-- Node118 -->
<g id="node38" class="node">
<title>Node118</title>
<g id="a_node38"><a xlink:href="api_2crypto_8h.html" target="_top" xlink:title="ODP crypto. ">
<polygon fill="#ffffff" stroke="#ff0000" points="943.5,-112.5 943.5,-131.5 999.5,-131.5 999.5,-112.5 943.5,-112.5"/>
<text text-anchor="middle" x="971.5" y="-119.5" font-family="Helvetica,sans-Serif" font-size="10.00" fill="#000000">crypto.h</text>
</a>
</g>
</g>
<!-- Node77&#45;&gt;Node118 -->
<g id="edge45" class="edge">
<title>Node77&#45;&gt;Node118</title>
<path fill="none" stroke="#191970" d="M1534.6849,-345.8804C1326.1694,-345.1228 490.5355,-339.6168 452.5,-300 379.1073,-223.556 825.3472,-145.531 943.3933,-126.4194"/>
<polygon fill="#191970" stroke="#191970" points="1534.6902,-349.3804 1544.7022,-345.9149 1534.7143,-342.3804 1534.6902,-349.3804"/>
</g>
<!-- Node114 -->
<g id="node39" class="node">
<title>Node114</title>
<g id="a_node39"><a xlink:href="api_2packet_8h.html" target="_top" xlink:title="ODP packet descriptor. ">
<polygon fill="#ffffff" stroke="#ff0000" points="1511,-280.5 1511,-299.5 1570,-299.5 1570,-280.5 1511,-280.5"/>
<text text-anchor="middle" x="1540.5" y="-287.5" font-family="Helvetica,sans-Serif" font-size="10.00" fill="#000000">packet.h</text>
</a>
</g>
</g>
<!-- Node77&#45;&gt;Node114 -->
<g id="edge47" class="edge">
<title>Node77&#45;&gt;Node114</title>
<path fill="none" stroke="#191970" d="M1568.2636,-327.9209C1561.3789,-318.5176 1553.2391,-307.3997 1547.5598,-299.6427"/>
<polygon fill="#191970" stroke="#191970" points="1565.6269,-330.2445 1574.3583,-336.2455 1571.2749,-326.1093 1565.6269,-330.2445"/>
</g>
<!-- Node130 -->
<g id="node40" class="node">
<title>Node130</title>
<g id="a_node40"><a xlink:href="api_2spec_2packet__flags_8h.html" target="_top" xlink:title="ODP packet flags. ">
<polygon fill="#ffffff" stroke="#ff0000" points="1651,-224.5 1651,-243.5 1738,-243.5 1738,-224.5 1651,-224.5"/>
<text text-anchor="middle" x="1694.5" y="-231.5" font-family="Helvetica,sans-Serif" font-size="10.00" fill="#000000">packet_flags.h</text>
</a>
</g>
</g>
<!-- Node77&#45;&gt;Node130 -->
<g id="edge59" class="edge">
<title>Node77&#45;&gt;Node130</title>
<path fill="none" stroke="#191970" d="M1628.1405,-338.4286C1668.8542,-330.7551 1723.4216,-317.5235 1736.5,-300 1750.7973,-280.8434 1725.5842,-256.8318 1708.4299,-243.6953"/>
<polygon fill="#191970" stroke="#191970" points="1627.3299,-335.0187 1618.1217,-340.259 1628.5879,-341.9047 1627.3299,-335.0187"/>
</g>
<!-- Node126 -->
<g id="node41" class="node">
<title>Node126</title>
<g id="a_node41"><a xlink:href="api_2packet__io_8h.html" target="_top" xlink:title="ODP Packet IO. ">
<polygon fill="#ffffff" stroke="#ff0000" points="1938,-168.5 1938,-187.5 2011,-187.5 2011,-168.5 1938,-168.5"/>
<text text-anchor="middle" x="1974.5" y="-175.5" font-family="Helvetica,sans-Serif" font-size="10.00" fill="#000000">packet_io.h</text>
</a>
</g>
</g>
<!-- Node77&#45;&gt;Node126 -->
<g id="edge50" class="edge">
<title>Node77&#45;&gt;Node126</title>
<path fill="none" stroke="#191970" d="M1628.5126,-344.1013C1729.9358,-339.5223 1962.0616,-326.2585 1985.5,-300 2014.1063,-267.9517 1990.7195,-210.52 1979.5803,-187.717"/>
<polygon fill="#191970" stroke="#191970" points="1628.0865,-340.6167 1618.2508,-344.5551 1628.3957,-347.6098 1628.0865,-340.6167"/>
</g>
<!-- Node122 -->
<g id="node42" class="node">
<title>Node122</title>
<g id="a_node42"><a xlink:href="api_2queue_8h.html" target="_top" xlink:title="ODP queue. ">
<polygon fill="#ffffff" stroke="#ff0000" points="1997.5,-112.5 1997.5,-131.5 2053.5,-131.5 2053.5,-112.5 1997.5,-112.5"/>
<text text-anchor="middle" x="2025.5" y="-119.5" font-family="Helvetica,sans-Serif" font-size="10.00" fill="#000000">queue.h</text>
</a>
</g>
</g>
<!-- Node77&#45;&gt;Node122 -->
<g id="edge52" class="edge">
<title>Node77&#45;&gt;Node122</title>
<path fill="none" stroke="#191970" d="M1628.3619,-344.1457C1733.0826,-339.55 1978.9971,-326.0747 2005.5,-300 2052.4949,-253.7643 2035.3703,-162.0357 2028.0955,-131.8698"/>
<polygon fill="#191970" stroke="#191970" points="1627.9269,-340.6611 1618.0867,-344.588 1628.228,-347.6546 1627.9269,-340.6611"/>
</g>
<!-- Node158 -->
<g id="node43" class="node">
<title>Node158</title>
<g id="a_node43"><a xlink:href="spec_2chksum_8h.html" target="_top" xlink:title="ODP checksum functions. ">
<polygon fill="#ffffff" stroke="#ff0000" points="1221.5,-280.5 1221.5,-299.5 1285.5,-299.5 1285.5,-280.5 1221.5,-280.5"/>
<text text-anchor="middle" x="1253.5" y="-287.5" font-family="Helvetica,sans-Serif" font-size="10.00" fill="#000000">chksum.h</text>
</a>
</g>
</g>
<!-- Node77&#45;&gt;Node158 -->
<g id="edge54" class="edge">
<title>Node77&#45;&gt;Node158</title>
<path fill="none" stroke="#191970" d="M1534.4877,-339.6472C1477.4713,-331.6706 1378.5539,-316.958 1294.5,-300 1291.6272,-299.4204 1288.6512,-298.7778 1285.6743,-298.106"/>
<polygon fill="#191970" stroke="#191970" points="1534.2466,-343.1473 1544.6333,-341.0573 1535.2103,-336.2139 1534.2466,-343.1473"/>
</g>
<!-- Node160 -->
<g id="node44" class="node">
<title>Node160</title>
<g id="a_node44"><a xlink:href="api_2spec_2cpu_8h.html" target="_top" xlink:title="ODP CPU API. ">
<polygon fill="#ffffff" stroke="#ff0000" points="1304,-280.5 1304,-299.5 1347,-299.5 1347,-280.5 1304,-280.5"/>
<text text-anchor="middle" x="1325.5" y="-287.5" font-family="Helvetica,sans-Serif" font-size="10.00" fill="#000000">cpu.h</text>
</a>
</g>
</g>
<!-- Node77&#45;&gt;Node160 -->
<g id="edge55" class="edge">
<title>Node77&#45;&gt;Node160</title>
<path fill="none" stroke="#191970" d="M1534.8144,-338.2008C1488.8457,-330.1227 1416.815,-316.3948 1355.5,-300 1352.7421,-299.2626 1349.8667,-298.4121 1347.0355,-297.525"/>
<polygon fill="#191970" stroke="#191970" points="1534.3291,-341.6688 1544.7812,-339.9353 1535.5294,-334.7725 1534.3291,-341.6688"/>
</g>
<!-- Node162 -->
<g id="node45" class="node">
<title>Node162</title>
<g id="a_node45"><a xlink:href="spec_2feature_8h.html" target="_top" xlink:title="ODP features. ">
<polygon fill="#ffffff" stroke="#ff0000" points="1365,-280.5 1365,-299.5 1426,-299.5 1426,-280.5 1365,-280.5"/>
<text text-anchor="middle" x="1395.5" y="-287.5" font-family="Helvetica,sans-Serif" font-size="10.00" fill="#000000">feature.h</text>
</a>
</g>
</g>
<!-- Node77&#45;&gt;Node162 -->
<g id="edge56" class="edge">
<title>Node77&#45;&gt;Node162</title>
<path fill="none" stroke="#191970" d="M1539.7443,-333.4284C1505.2666,-323.048 1457.1273,-308.5545 1426.1319,-299.2225"/>
<polygon fill="#191970" stroke="#191970" points="1538.941,-336.8417 1549.5255,-336.3733 1540.9591,-330.1389 1538.941,-336.8417"/>
</g>
<!-- Node164 -->
<g id="node46" class="node">
<title>Node164</title>
<g id="a_node46"><a xlink:href="api_2spec_2hash_8h.html" target="_top" xlink:title="ODP Hash functions. ">
<polygon fill="#ffffff" stroke="#ff0000" points="1444,-280.5 1444,-299.5 1493,-299.5 1493,-280.5 1444,-280.5"/>
<text text-anchor="middle" x="1468.5" y="-287.5" font-family="Helvetica,sans-Serif" font-size="10.00" fill="#000000">hash.h</text>
</a>
</g>
</g>
<!-- Node77&#45;&gt;Node164 -->
<g id="edge57" class="edge">
<title>Node77&#45;&gt;Node164</title>
<path fill="none" stroke="#191970" d="M1552.9208,-331.8368C1532.4942,-321.7139 1505.5638,-308.3679 1487.6719,-299.5011"/>
<polygon fill="#191970" stroke="#191970" points="1551.5604,-335.0688 1562.0746,-336.3733 1554.6687,-328.7968 1551.5604,-335.0688"/>
</g>
<!-- Node166 -->
<g id="node47" class="node">
<title>Node166</title>
<g id="a_node47"><a xlink:href="api_2spec_2pool_8h.html" target="_top" xlink:title="ODP pool. ">
<polygon fill="#ffffff" stroke="#ff0000" points="1887,-224.5 1887,-243.5 1934,-243.5 1934,-224.5 1887,-224.5"/>
<text text-anchor="middle" x="1910.5" y="-231.5" font-family="Helvetica,sans-Serif" font-size="10.00" fill="#000000">pool.h</text>
</a>
</g>
</g>
<!-- Node77&#45;&gt;Node166 -->
<g id="edge60" class="edge">
<title>Node77&#45;&gt;Node166</title>
<path fill="none" stroke="#191970" d="M1628.3338,-341.3131C1693.7284,-334.1845 1808.537,-319.3737 1845.5,-300 1871.4245,-286.412 1893.3407,-258.7859 1903.8448,-243.95"/>
<polygon fill="#191970" stroke="#191970" points="1627.852,-337.8446 1618.2821,-342.3908 1628.5983,-344.8048 1627.852,-337.8446"/>
</g>
<!-- Node168 -->
<g id="node48" class="node">
<title>Node168</title>
<g id="a_node48"><a xlink:href="pool__types_8h.html" target="_top" xlink:title="Type definitions for pools. ">
<polygon fill="#ffffff" stroke="#000000" points="1898,-280.5 1898,-299.5 1977,-299.5 1977,-280.5 1898,-280.5"/>
<text text-anchor="middle" x="1937.5" y="-287.5" font-family="Helvetica,sans-Serif" font-size="10.00" fill="#000000">pool_types.h</text>
</a>
</g>
</g>
<!-- Node77&#45;&gt;Node168 -->
<g id="edge61" class="edge">
<title>Node77&#45;&gt;Node168</title>
<path fill="none" stroke="#191970" d="M1628.4847,-339.3182C1687.943,-330.7533 1793.4651,-315.1895 1883.5,-300 1888.1068,-299.2228 1892.9283,-298.3768 1897.7138,-297.5167"/>
<polygon fill="#191970" stroke="#191970" points="1627.6868,-335.8968 1618.2863,-340.7836 1628.6825,-342.8256 1627.6868,-335.8968"/>
</g>
<!-- Node70 -->
<g id="node49" class="node">
<title>Node70</title>
<g id="a_node49"><a xlink:href="api_2spec_2schedule_8h.html" target="_top" xlink:title="ODP schedule. ">
<polygon fill="#ffffff" stroke="#ff0000" points="1588,-280.5 1588,-299.5 1657,-299.5 1657,-280.5 1588,-280.5"/>
<text text-anchor="middle" x="1622.5" y="-287.5" font-family="Helvetica,sans-Serif" font-size="10.00" fill="#000000">schedule.h</text>
</a>
</g>
</g>
<!-- Node77&#45;&gt;Node70 -->
<g id="edge63" class="edge">
<title>Node77&#45;&gt;Node70</title>
<path fill="none" stroke="#191970" d="M1594.7364,-327.9209C1601.6211,-318.5176 1609.7609,-307.3997 1615.4402,-299.6427"/>
<polygon fill="#191970" stroke="#191970" points="1591.7251,-326.1093 1588.6417,-336.2455 1597.3731,-330.2445 1591.7251,-326.1093"/>
</g>
<!-- Node169 -->
<g id="node50" class="node">
<title>Node169</title>
<g id="a_node50"><a xlink:href="api_2spec_2stash_8h.html" target="_top" xlink:title="ODP stash. ">
<polygon fill="#ffffff" stroke="#ff0000" points="1675.5,-280.5 1675.5,-299.5 1727.5,-299.5 1727.5,-280.5 1675.5,-280.5"/>
<text text-anchor="middle" x="1701.5" y="-287.5" font-family="Helvetica,sans-Serif" font-size="10.00" fill="#000000">stash.h</text>
</a>
</g>
</g>
<!-- Node77&#45;&gt;Node169 -->
<g id="edge64" class="edge">
<title>Node77&#45;&gt;Node169</title>
<path fill="none" stroke="#191970" d="M1611.2624,-332.1109C1633.0232,-321.9559 1661.9682,-308.4482 1681.1405,-299.5011"/>
<polygon fill="#191970" stroke="#191970" points="1609.7105,-328.9727 1602.1287,-336.3733 1612.6707,-335.316 1609.7105,-328.9727"/>
</g>
<!-- Node157&#45;&gt;Node23 -->
<g id="edge42" class="edge">
<title>Node157&#45;&gt;Node23</title>
<path fill="none" stroke="#191970" d="M2127.4932,-158.9171C2120.2167,-144.85 2108.9868,-125.8353 2095.5,-112 2080.5784,-96.6929 2059.7125,-83.7976 2044.6489,-75.5914"/>
<polygon fill="#191970" stroke="#191970" points="2124.4893,-160.7378 2132.0686,-168.1409 2130.7602,-157.6271 2124.4893,-160.7378"/>
</g>
<!-- Node112&#45;&gt;Node23 -->
<g id="edge44" class="edge">
<title>Node112&#45;&gt;Node23</title>
<path fill="none" stroke="#191970" d="M2202.191,-162.9633C2180.5445,-149.19 2147.266,-128.4977 2117.5,-112 2093.2907,-98.582 2064.6708,-84.5491 2045.8563,-75.5649"/>
<polygon fill="#191970" stroke="#191970" points="2200.4011,-165.9731 2210.7118,-168.4101 2204.1713,-160.0751 2200.4011,-165.9731"/>
</g>
<!-- Node118&#45;&gt;Node23 -->
<g id="edge46" class="edge">
<title>Node118&#45;&gt;Node23</title>
<path fill="none" stroke="#191970" d="M1009.9822,-119.9554C1177.2373,-111.069 1839.5029,-75.8822 1993.4221,-67.7043"/>
<polygon fill="#191970" stroke="#191970" points="1009.4921,-116.4764 999.692,-120.5021 1009.8636,-123.4666 1009.4921,-116.4764"/>
</g>
<!-- Node114&#45;&gt;Node23 -->
<g id="edge49" class="edge">
<title>Node114&#45;&gt;Node23</title>
<path fill="none" stroke="#191970" d="M1554.3966,-271.8879C1583.8485,-234.9504 1656.5982,-151.1187 1738.5,-112 1783.2381,-90.6317 1928.3898,-74.965 1993.4459,-68.8367"/>
<polygon fill="#191970" stroke="#191970" points="1551.2836,-270.1854 1547.8625,-280.2127 1556.79,-274.5074 1551.2836,-270.1854"/>
</g>
<!-- Node114&#45;&gt;Node130 -->
<g id="edge48" class="edge">
<title>Node114&#45;&gt;Node130</title>
<path fill="none" stroke="#191970" d="M1576.4614,-276.9231C1604.6134,-266.686 1643.1055,-252.6889 1668.3719,-243.5011"/>
<polygon fill="#191970" stroke="#191970" points="1575.1754,-273.6665 1566.9735,-280.3733 1577.5676,-280.245 1575.1754,-273.6665"/>
</g>
<!-- Node126&#45;&gt;Node23 -->
<g id="edge51" class="edge">
<title>Node126&#45;&gt;Node23</title>
<path fill="none" stroke="#191970" d="M1976.2825,-158.0196C1978.0671,-144.5099 1981.5933,-126.5497 1988.5,-112 1995.1806,-97.9268 2006.9719,-84.3487 2015.4498,-75.6392"/>
<polygon fill="#191970" stroke="#191970" points="1972.7828,-157.8231 1975.157,-168.1485 1979.74,-158.5962 1972.7828,-157.8231"/>
</g>
<!-- Node122&#45;&gt;Node23 -->
<g id="edge53" class="edge">
<title>Node122&#45;&gt;Node23</title>
<path fill="none" stroke="#191970" d="M2025.5,-102.1575C2025.5,-93.155 2025.5,-82.9199 2025.5,-75.6427"/>
<polygon fill="#191970" stroke="#191970" points="2022.0001,-102.2455 2025.5,-112.2455 2029.0001,-102.2456 2022.0001,-102.2455"/>
</g>
<!-- Node168&#45;&gt;Node166 -->
<g id="edge62" class="edge">
<title>Node168&#45;&gt;Node166</title>
<path fill="none" stroke="#191970" d="M1928.3604,-271.0437C1923.9195,-261.8331 1918.7735,-251.1598 1915.1491,-243.6427"/>
<polygon fill="#191970" stroke="#191970" points="1925.3012,-272.7579 1932.797,-280.2455 1931.6066,-269.7178 1925.3012,-272.7579"/>
</g>
</g>
</svg>
