<?xml version="1.0" encoding="UTF-8" standalone="no"?>
<!DOCTYPE svg PUBLIC "-//W3C//DTD SVG 1.1//EN"
 "http://www.w3.org/Graphics/SVG/1.1/DTD/svg11.dtd">
<!-- Generated by graphviz version 2.43.0 (0)
 -->
<!-- Title: crypto_types.h Pages: 1 -->
<svg width="1369pt" height="1046pt"
 viewBox="0.00 0.00 1369.00 1046.00" xmlns="http://www.w3.org/2000/svg" xmlns:xlink="http://www.w3.org/1999/xlink">
<g id="graph0" class="graph" transform="scale(1 1) rotate(0) translate(4 1042)">
<title>crypto_types.h</title>
<polygon fill="white" stroke="transparent" points="-4,4 -4,-1042 1365,-1042 1365,4 -4,4"/>
<!-- Node1 -->
<g id="node1" class="node">
<title>Node1</title>
<g id="a_node1"><a xlink:title="ODP crypto types.">
<polygon fill="#bfbfbf" stroke="black" points="499.5,-1018.5 499.5,-1037.5 588.5,-1037.5 588.5,-1018.5 499.5,-1018.5"/>
<text text-anchor="middle" x="544" y="-1025.5" font-family="Helvetica,sans-Serif" font-size="10.00">crypto_types.h</text>
</a>
</g>
</g>
<!-- Node2 -->
<g id="node2" class="node">
<title>Node2</title>
<g id="a_node2"><a xlink:href="visibility__begin_8h_source.html" target="_top" xlink:title=" ">
<polygon fill="white" stroke="black" points="218.5,-0.5 218.5,-19.5 339.5,-19.5 339.5,-0.5 218.5,-0.5"/>
<text text-anchor="middle" x="279" y="-7.5" font-family="Helvetica,sans-Serif" font-size="10.00">odp/visibility_begin.h</text>
</a>
</g>
</g>
<!-- Node1&#45;&gt;Node2 -->
<g id="edge1" class="edge">
<title>Node1&#45;&gt;Node2</title>
<path fill="none" stroke="midnightblue" d="M499.48,-1027.42C369.56,-1027.47 0,-1018.66 0,-917 0,-917 0,-917 0,-132 0,-41.28 125.7,-17.83 208.36,-12.22"/>
<polygon fill="midnightblue" stroke="midnightblue" points="208.69,-15.7 218.46,-11.61 208.27,-8.72 208.69,-15.7"/>
</g>
<!-- Node3 -->
<g id="node3" class="node">
<title>Node3</title>
<g id="a_node3"><a xlink:href="deprecated_8h.html" target="_top" xlink:title="Control deprecated API definitions.">
<polygon fill="white" stroke="black" points="346.5,-615.5 346.5,-634.5 465.5,-634.5 465.5,-615.5 346.5,-615.5"/>
<text text-anchor="middle" x="406" y="-622.5" font-family="Helvetica,sans-Serif" font-size="10.00">odp/api/deprecated.h</text>
</a>
</g>
</g>
<!-- Node1&#45;&gt;Node3 -->
<g id="edge2" class="edge">
<title>Node1&#45;&gt;Node3</title>
<path fill="none" stroke="midnightblue" d="M537.05,-1018.48C523.31,-1000.75 494,-958.12 494,-917 494,-917 494,-917 494,-747 494,-712.07 494.34,-699.39 474,-671 464.29,-657.44 449.11,-646.83 435.56,-639.33"/>
<polygon fill="midnightblue" stroke="midnightblue" points="437.01,-636.14 426.52,-634.63 433.78,-642.35 437.01,-636.14"/>
</g>
<!-- Node5 -->
<g id="node5" class="node">
<title>Node5</title>
<g id="a_node5"><a xlink:href="visibility__end_8h_source.html" target="_top" xlink:title=" ">
<polygon fill="white" stroke="black" points="1039,-0.5 1039,-19.5 1151,-19.5 1151,-0.5 1039,-0.5"/>
<text text-anchor="middle" x="1095" y="-7.5" font-family="Helvetica,sans-Serif" font-size="10.00">odp/visibility_end.h</text>
</a>
</g>
</g>
<!-- Node1&#45;&gt;Node5 -->
<g id="edge74" class="edge">
<title>Node1&#45;&gt;Node5</title>
<path fill="none" stroke="midnightblue" d="M588.54,-1025.99C718.1,-1022.73 1093.15,-1011 1212,-982 1282.19,-964.87 1361,-989.25 1361,-917 1361,-917 1361,-917 1361,-132 1361,-44.48 1240.22,-19.97 1161.43,-13.29"/>
<polygon fill="midnightblue" stroke="midnightblue" points="1161.33,-9.77 1151.09,-12.49 1160.79,-16.75 1161.33,-9.77"/>
</g>
<!-- Node6 -->
<g id="node6" class="node">
<title>Node6</title>
<g id="a_node6"><a xlink:href="api_2packet__types_8h.html" target="_top" xlink:title="ODP packet.">
<polygon fill="white" stroke="black" points="216.5,-738.5 216.5,-757.5 345.5,-757.5 345.5,-738.5 216.5,-738.5"/>
<text text-anchor="middle" x="281" y="-745.5" font-family="Helvetica,sans-Serif" font-size="10.00">odp/api/packet_types.h</text>
</a>
</g>
</g>
<!-- Node1&#45;&gt;Node6 -->
<g id="edge6" class="edge">
<title>Node1&#45;&gt;Node6</title>
<path fill="none" stroke="midnightblue" d="M499.13,-1025.95C381.99,-1021.99 76,-1003.39 76,-917 76,-917 76,-917 76,-859 76,-797.81 147.78,-770.52 206.39,-758.44"/>
<polygon fill="midnightblue" stroke="midnightblue" points="207.27,-761.83 216.42,-756.49 205.93,-754.96 207.27,-761.83"/>
</g>
<!-- Node13 -->
<g id="node13" class="node">
<title>Node13</title>
<g id="a_node13"><a xlink:href="api_2std__types_8h.html" target="_top" xlink:title="Standard C language types and definitions for ODP.">
<polygon fill="white" stroke="black" points="596,-235.5 596,-254.5 708,-254.5 708,-235.5 596,-235.5"/>
<text text-anchor="middle" x="652" y="-242.5" font-family="Helvetica,sans-Serif" font-size="10.00">odp/api/std_types.h</text>
</a>
</g>
</g>
<!-- Node1&#45;&gt;Node13 -->
<g id="edge73" class="edge">
<title>Node1&#45;&gt;Node13</title>
<path fill="none" stroke="midnightblue" d="M588.68,-1025.44C754.21,-1019.05 1323,-991.69 1323,-917 1323,-917 1323,-917 1323,-747 1323,-494.73 1202.2,-419.32 985,-291 941.18,-265.11 802.42,-253.61 718.48,-248.91"/>
<polygon fill="midnightblue" stroke="midnightblue" points="718.44,-245.4 708.27,-248.36 718.07,-252.39 718.44,-245.4"/>
</g>
<!-- Node29 -->
<g id="node29" class="node">
<title>Node29</title>
<g id="a_node29"><a xlink:href="api_2pool__types_8h.html" target="_top" xlink:title="ODP pool.">
<polygon fill="white" stroke="black" points="554,-962.5 554,-981.5 672,-981.5 672,-962.5 554,-962.5"/>
<text text-anchor="middle" x="613" y="-969.5" font-family="Helvetica,sans-Serif" font-size="10.00">odp/api/pool_types.h</text>
</a>
</g>
</g>
<!-- Node1&#45;&gt;Node29 -->
<g id="edge46" class="edge">
<title>Node1&#45;&gt;Node29</title>
<path fill="none" stroke="midnightblue" d="M555.09,-1018.32C565.49,-1010.18 581.26,-997.84 593.72,-988.09"/>
<polygon fill="midnightblue" stroke="midnightblue" points="595.99,-990.75 601.71,-981.83 591.68,-985.24 595.99,-990.75"/>
</g>
<!-- Node4 -->
<g id="node4" class="node">
<title>Node4</title>
<g id="a_node4"><a xlink:href="spec_2deprecated_8h.html" target="_top" xlink:title="Macro for deprecated API definitions.">
<polygon fill="white" stroke="black" points="383.5,-62 383.5,-81 528.5,-81 528.5,-62 383.5,-62"/>
<text text-anchor="middle" x="456" y="-69" font-family="Helvetica,sans-Serif" font-size="10.00">odp/api/spec/deprecated.h</text>
</a>
</g>
</g>
<!-- Node3&#45;&gt;Node4 -->
<g id="edge3" class="edge">
<title>Node3&#45;&gt;Node4</title>
<path fill="none" stroke="midnightblue" d="M402.08,-615.4C393.53,-595.87 374,-546.46 374,-503 374,-503 374,-503 374,-305.5 374,-220.47 423.19,-127.38 445.37,-89.72"/>
<polygon fill="midnightblue" stroke="midnightblue" points="448.47,-91.38 450.62,-81 442.47,-87.77 448.47,-91.38"/>
</g>
<!-- Node4&#45;&gt;Node2 -->
<g id="edge4" class="edge">
<title>Node4&#45;&gt;Node2</title>
<path fill="none" stroke="midnightblue" d="M430.64,-61.98C400.02,-51.68 348.34,-34.31 313.95,-22.75"/>
<polygon fill="midnightblue" stroke="midnightblue" points="314.91,-19.38 304.31,-19.51 312.68,-26.01 314.91,-19.38"/>
</g>
<!-- Node4&#45;&gt;Node5 -->
<g id="edge5" class="edge">
<title>Node4&#45;&gt;Node5</title>
<path fill="none" stroke="midnightblue" d="M523.79,-61.98C541.13,-59.91 559.74,-57.78 577,-56 739.17,-39.24 930.34,-23.73 1028.88,-16.05"/>
<polygon fill="midnightblue" stroke="midnightblue" points="1029.29,-19.53 1038.99,-15.26 1028.75,-12.55 1029.29,-19.53"/>
</g>
<!-- Node7 -->
<g id="node7" class="node">
<title>Node7</title>
<g id="a_node7"><a xlink:title=" ">
<polygon fill="white" stroke="#bfbfbf" points="228,-671.5 228,-701.5 334,-701.5 334,-671.5 228,-671.5"/>
<text text-anchor="start" x="236" y="-689.5" font-family="Helvetica,sans-Serif" font-size="10.00">odp/api/abi/packet</text>
<text text-anchor="middle" x="281" y="-678.5" font-family="Helvetica,sans-Serif" font-size="10.00">_io_types.h</text>
</a>
</g>
</g>
<!-- Node6&#45;&gt;Node7 -->
<g id="edge7" class="edge">
<title>Node6&#45;&gt;Node7</title>
<path fill="none" stroke="midnightblue" d="M281,-738.48C281,-731.47 281,-721.19 281,-711.7"/>
<polygon fill="midnightblue" stroke="midnightblue" points="284.5,-711.52 281,-701.52 277.5,-711.52 284.5,-711.52"/>
</g>
<!-- Node8 -->
<g id="node8" class="node">
<title>Node8</title>
<g id="a_node8"><a xlink:title=" ">
<polygon fill="white" stroke="#bfbfbf" points="104,-671.5 104,-701.5 210,-701.5 210,-671.5 104,-671.5"/>
<text text-anchor="start" x="112" y="-689.5" font-family="Helvetica,sans-Serif" font-size="10.00">odp/api/abi/packet</text>
<text text-anchor="middle" x="157" y="-678.5" font-family="Helvetica,sans-Serif" font-size="10.00">_types.h</text>
</a>
</g>
</g>
<!-- Node6&#45;&gt;Node8 -->
<g id="edge8" class="edge">
<title>Node6&#45;&gt;Node8</title>
<path fill="none" stroke="midnightblue" d="M263.23,-738.48C245.58,-730 217.93,-716.74 195.27,-705.86"/>
<polygon fill="midnightblue" stroke="midnightblue" points="196.75,-702.69 186.22,-701.52 193.73,-709 196.75,-702.69"/>
</g>
<!-- Node9 -->
<g id="node9" class="node">
<title>Node9</title>
<g id="a_node9"><a xlink:href="api_2spec_2packet__types_8h.html" target="_top" xlink:title="ODP packet types.">
<polygon fill="white" stroke="black" points="352.5,-671.5 352.5,-701.5 465.5,-701.5 465.5,-671.5 352.5,-671.5"/>
<text text-anchor="start" x="360.5" y="-689.5" font-family="Helvetica,sans-Serif" font-size="10.00">odp/api/spec/packet</text>
<text text-anchor="middle" x="409" y="-678.5" font-family="Helvetica,sans-Serif" font-size="10.00">_types.h</text>
</a>
</g>
</g>
<!-- Node6&#45;&gt;Node9 -->
<g id="edge9" class="edge">
<title>Node6&#45;&gt;Node9</title>
<path fill="none" stroke="midnightblue" d="M299.34,-738.48C317.57,-730 346.1,-716.74 369.5,-705.86"/>
<polygon fill="midnightblue" stroke="midnightblue" points="371.24,-708.91 378.83,-701.52 368.29,-702.56 371.24,-708.91"/>
</g>
<!-- Node9&#45;&gt;Node2 -->
<g id="edge10" class="edge">
<title>Node9&#45;&gt;Node2</title>
<path fill="none" stroke="midnightblue" d="M354.38,-671.44C259.91,-646.36 76,-593.76 76,-564.5 76,-564.5 76,-564.5 76,-132 76,-96.58 74.22,-80.29 100,-56 128.89,-28.79 171.72,-17.37 208.25,-12.84"/>
<polygon fill="midnightblue" stroke="midnightblue" points="208.8,-16.3 218.36,-11.73 208.04,-9.34 208.8,-16.3"/>
</g>
<!-- Node9&#45;&gt;Node3 -->
<g id="edge11" class="edge">
<title>Node9&#45;&gt;Node3</title>
<path fill="none" stroke="midnightblue" d="M408.29,-671.4C407.89,-663.47 407.38,-653.46 406.95,-644.86"/>
<polygon fill="midnightblue" stroke="midnightblue" points="410.44,-644.47 406.44,-634.66 403.44,-644.82 410.44,-644.47"/>
</g>
<!-- Node9&#45;&gt;Node5 -->
<g id="edge45" class="edge">
<title>Node9&#45;&gt;Node5</title>
<path fill="none" stroke="midnightblue" d="M442.18,-671.48C478.05,-656.57 537.07,-632.73 589,-615 642.9,-596.6 661.43,-605.21 712,-579 731.66,-568.81 732.44,-560.07 751,-548 873.24,-468.5 919.86,-474.48 1038,-389 1108.32,-338.12 1171,-332.8 1171,-246 1171,-246 1171,-246 1171,-132 1171,-88.48 1135.3,-47.77 1112.84,-26.47"/>
<polygon fill="midnightblue" stroke="midnightblue" points="1114.99,-23.7 1105.25,-19.53 1110.27,-28.86 1114.99,-23.7"/>
</g>
<!-- Node10 -->
<g id="node10" class="node">
<title>Node10</title>
<g id="a_node10"><a xlink:href="api_2proto__stats__types_8h.html" target="_top" xlink:title="ODP proto stats types.">
<polygon fill="white" stroke="black" points="236,-358.5 236,-388.5 346,-388.5 346,-358.5 236,-358.5"/>
<text text-anchor="start" x="244" y="-376.5" font-family="Helvetica,sans-Serif" font-size="10.00">odp/api/proto_stats</text>
<text text-anchor="middle" x="291" y="-365.5" font-family="Helvetica,sans-Serif" font-size="10.00">_types.h</text>
</a>
</g>
</g>
<!-- Node9&#45;&gt;Node10 -->
<g id="edge12" class="edge">
<title>Node9&#45;&gt;Node10</title>
<path fill="none" stroke="midnightblue" d="M382.01,-671.32C367.2,-662.47 349.38,-649.92 337,-635 315.03,-608.52 305,-598.91 305,-564.5 305,-564.5 305,-564.5 305,-501 305,-465.39 299.45,-424.49 295.34,-399.06"/>
<polygon fill="midnightblue" stroke="midnightblue" points="298.74,-398.15 293.63,-388.86 291.83,-399.3 298.74,-398.15"/>
</g>
<!-- Node20 -->
<g id="node20" class="node">
<title>Node20</title>
<g id="a_node20"><a xlink:href="api_2queue__types_8h.html" target="_top" xlink:title="ODP queue.">
<polygon fill="white" stroke="black" points="598.5,-615.5 598.5,-634.5 725.5,-634.5 725.5,-615.5 598.5,-615.5"/>
<text text-anchor="middle" x="662" y="-622.5" font-family="Helvetica,sans-Serif" font-size="10.00">odp/api/queue_types.h</text>
</a>
</g>
</g>
<!-- Node9&#45;&gt;Node20 -->
<g id="edge28" class="edge">
<title>Node9&#45;&gt;Node20</title>
<path fill="none" stroke="midnightblue" d="M465.78,-672.15C511.1,-661.49 573.78,-646.75 615.99,-636.82"/>
<polygon fill="midnightblue" stroke="midnightblue" points="616.8,-640.23 625.73,-634.53 615.2,-633.41 616.8,-640.23"/>
</g>
<!-- Node11 -->
<g id="node11" class="node">
<title>Node11</title>
<g id="a_node11"><a xlink:title=" ">
<polygon fill="white" stroke="#bfbfbf" points="180,-291.5 180,-321.5 308,-321.5 308,-291.5 180,-291.5"/>
<text text-anchor="start" x="188" y="-309.5" font-family="Helvetica,sans-Serif" font-size="10.00">odp/api/abi/proto_stats</text>
<text text-anchor="middle" x="244" y="-298.5" font-family="Helvetica,sans-Serif" font-size="10.00">_types.h</text>
</a>
</g>
</g>
<!-- Node10&#45;&gt;Node11 -->
<g id="edge13" class="edge">
<title>Node10&#45;&gt;Node11</title>
<path fill="none" stroke="midnightblue" d="M280.8,-358.4C274.77,-350.05 266.98,-339.29 260.13,-329.81"/>
<polygon fill="midnightblue" stroke="midnightblue" points="262.87,-327.63 254.18,-321.58 257.2,-331.73 262.87,-327.63"/>
</g>
<!-- Node12 -->
<g id="node12" class="node">
<title>Node12</title>
<g id="a_node12"><a xlink:href="api_2spec_2proto__stats__types_8h.html" target="_top" xlink:title="ODP proto stats types.">
<polygon fill="white" stroke="black" points="440.5,-291.5 440.5,-321.5 547.5,-321.5 547.5,-291.5 440.5,-291.5"/>
<text text-anchor="start" x="448.5" y="-309.5" font-family="Helvetica,sans-Serif" font-size="10.00">odp/api/spec/proto</text>
<text text-anchor="middle" x="494" y="-298.5" font-family="Helvetica,sans-Serif" font-size="10.00">_stats_types.h</text>
</a>
</g>
</g>
<!-- Node10&#45;&gt;Node12 -->
<g id="edge14" class="edge">
<title>Node10&#45;&gt;Node12</title>
<path fill="none" stroke="midnightblue" d="M335.05,-358.4C365.91,-348.52 407.33,-335.25 440.15,-324.74"/>
<polygon fill="midnightblue" stroke="midnightblue" points="441.58,-327.96 450.04,-321.58 439.45,-321.29 441.58,-327.96"/>
</g>
<!-- Node12&#45;&gt;Node2 -->
<g id="edge15" class="edge">
<title>Node12&#45;&gt;Node2</title>
<path fill="none" stroke="midnightblue" d="M480.48,-291.38C444.13,-253.4 346.67,-151.33 341,-143 315.35,-105.28 295.09,-55.27 285.34,-28.95"/>
<polygon fill="midnightblue" stroke="midnightblue" points="288.62,-27.73 281.93,-19.52 282.04,-30.11 288.62,-27.73"/>
</g>
<!-- Node12&#45;&gt;Node5 -->
<g id="edge27" class="edge">
<title>Node12&#45;&gt;Node5</title>
<path fill="none" stroke="midnightblue" d="M508.08,-291.41C525.19,-275.15 555.69,-248.87 587,-235 666.38,-199.84 696.79,-226.9 779,-199 883.27,-163.61 907.41,-146.6 1000,-87 1028.96,-68.36 1059.56,-42.64 1077.97,-26.42"/>
<polygon fill="midnightblue" stroke="midnightblue" points="1080.38,-28.95 1085.52,-19.69 1075.72,-23.73 1080.38,-28.95"/>
</g>
<!-- Node12&#45;&gt;Node13 -->
<g id="edge16" class="edge">
<title>Node12&#45;&gt;Node13</title>
<path fill="none" stroke="midnightblue" d="M531.44,-291.4C558.19,-281.33 593.82,-267.91 619.4,-258.28"/>
<polygon fill="midnightblue" stroke="midnightblue" points="620.88,-261.46 629.01,-254.66 618.42,-254.91 620.88,-261.46"/>
</g>
<!-- Node14 -->
<g id="node14" class="node">
<title>Node14</title>
<g id="a_node14"><a xlink:title=" ">
<polygon fill="white" stroke="#bfbfbf" points="446,-179.5 446,-198.5 576,-198.5 576,-179.5 446,-179.5"/>
<text text-anchor="middle" x="511" y="-186.5" font-family="Helvetica,sans-Serif" font-size="10.00">odp/api/abi/std_types.h</text>
</a>
</g>
</g>
<!-- Node13&#45;&gt;Node14 -->
<g id="edge17" class="edge">
<title>Node13&#45;&gt;Node14</title>
<path fill="none" stroke="midnightblue" d="M629.66,-235.44C606.25,-226.48 569.26,-212.31 542.81,-202.18"/>
<polygon fill="midnightblue" stroke="midnightblue" points="543.83,-198.82 533.24,-198.52 541.32,-205.36 543.83,-198.82"/>
</g>
<!-- Node15 -->
<g id="node15" class="node">
<title>Node15</title>
<g id="a_node15"><a xlink:href="api_2spec_2std__types_8h.html" target="_top" xlink:title="Common types and definitions for ODP API files.">
<polygon fill="white" stroke="black" points="632.5,-179.5 632.5,-198.5 769.5,-198.5 769.5,-179.5 632.5,-179.5"/>
<text text-anchor="middle" x="701" y="-186.5" font-family="Helvetica,sans-Serif" font-size="10.00">odp/api/spec/std_types.h</text>
</a>
</g>
</g>
<!-- Node13&#45;&gt;Node15 -->
<g id="edge18" class="edge">
<title>Node13&#45;&gt;Node15</title>
<path fill="none" stroke="midnightblue" d="M660.09,-235.08C667.16,-227.3 677.59,-215.8 686.15,-206.37"/>
<polygon fill="midnightblue" stroke="midnightblue" points="688.93,-208.51 693.06,-198.75 683.75,-203.8 688.93,-208.51"/>
</g>
<!-- Node15&#45;&gt;Node2 -->
<g id="edge19" class="edge">
<title>Node15&#45;&gt;Node2</title>
<path fill="none" stroke="midnightblue" d="M677.71,-179.4C658.61,-171.67 631.49,-159.06 611,-143 571.05,-111.68 581.07,-81.19 537,-56 505.81,-38.17 414.8,-25.2 349.71,-17.89"/>
<polygon fill="midnightblue" stroke="midnightblue" points="349.83,-14.38 339.5,-16.77 349.06,-21.34 349.83,-14.38"/>
</g>
<!-- Node15&#45;&gt;Node5 -->
<g id="edge26" class="edge">
<title>Node15&#45;&gt;Node5</title>
<path fill="none" stroke="midnightblue" d="M722.4,-179.44C740.95,-171.48 768.05,-158.53 789,-143 832.18,-111 825.87,-81.84 873,-56 921.09,-29.64 982.66,-18.64 1028.76,-14.1"/>
<polygon fill="midnightblue" stroke="midnightblue" points="1029.3,-17.56 1038.94,-13.17 1028.66,-10.59 1029.3,-17.56"/>
</g>
<!-- Node16 -->
<g id="node16" class="node">
<title>Node16</title>
<g id="a_node16"><a xlink:title=" ">
<polygon fill="white" stroke="#bfbfbf" points="619.5,-123.5 619.5,-142.5 672.5,-142.5 672.5,-123.5 619.5,-123.5"/>
<text text-anchor="middle" x="646" y="-130.5" font-family="Helvetica,sans-Serif" font-size="10.00">stdint.h</text>
</a>
</g>
</g>
<!-- Node15&#45;&gt;Node16 -->
<g id="edge20" class="edge">
<title>Node15&#45;&gt;Node16</title>
<path fill="none" stroke="midnightblue" d="M691.92,-179.08C683.83,-171.14 671.8,-159.34 662.09,-149.8"/>
<polygon fill="midnightblue" stroke="midnightblue" points="664.5,-147.26 654.91,-142.75 659.6,-152.25 664.5,-147.26"/>
</g>
<!-- Node17 -->
<g id="node17" class="node">
<title>Node17</title>
<g id="a_node17"><a xlink:href="api_2align_8h.html" target="_top" xlink:title="ODP alignments.">
<polygon fill="white" stroke="black" points="690.5,-123.5 690.5,-142.5 779.5,-142.5 779.5,-123.5 690.5,-123.5"/>
<text text-anchor="middle" x="735" y="-130.5" font-family="Helvetica,sans-Serif" font-size="10.00">odp/api/align.h</text>
</a>
</g>
</g>
<!-- Node15&#45;&gt;Node17 -->
<g id="edge21" class="edge">
<title>Node15&#45;&gt;Node17</title>
<path fill="none" stroke="midnightblue" d="M706.61,-179.08C711.37,-171.53 718.32,-160.49 724.15,-151.23"/>
<polygon fill="midnightblue" stroke="midnightblue" points="727.12,-153.08 729.49,-142.75 721.2,-149.35 727.12,-153.08"/>
</g>
<!-- Node18 -->
<g id="node18" class="node">
<title>Node18</title>
<g id="a_node18"><a xlink:title=" ">
<polygon fill="white" stroke="#bfbfbf" points="585.5,-62 585.5,-81 692.5,-81 692.5,-62 585.5,-62"/>
<text text-anchor="middle" x="639" y="-69" font-family="Helvetica,sans-Serif" font-size="10.00">odp/api/abi/align.h</text>
</a>
</g>
</g>
<!-- Node17&#45;&gt;Node18 -->
<g id="edge22" class="edge">
<title>Node17&#45;&gt;Node18</title>
<path fill="none" stroke="midnightblue" d="M721.25,-123.48C705.63,-113.8 679.94,-97.87 661.42,-86.39"/>
<polygon fill="midnightblue" stroke="midnightblue" points="663.07,-83.3 652.73,-81.01 659.38,-89.25 663.07,-83.3"/>
</g>
<!-- Node19 -->
<g id="node19" class="node">
<title>Node19</title>
<g id="a_node19"><a xlink:href="api_2spec_2align_8h.html" target="_top" xlink:title="ODP alignments.">
<polygon fill="white" stroke="black" points="711,-62 711,-81 825,-81 825,-62 711,-62"/>
<text text-anchor="middle" x="768" y="-69" font-family="Helvetica,sans-Serif" font-size="10.00">odp/api/spec/align.h</text>
</a>
</g>
</g>
<!-- Node17&#45;&gt;Node19 -->
<g id="edge23" class="edge">
<title>Node17&#45;&gt;Node19</title>
<path fill="none" stroke="midnightblue" d="M739.73,-123.48C744.58,-114.73 752.27,-100.87 758.4,-89.81"/>
<polygon fill="midnightblue" stroke="midnightblue" points="761.49,-91.45 763.28,-81.01 755.37,-88.06 761.49,-91.45"/>
</g>
<!-- Node19&#45;&gt;Node2 -->
<g id="edge24" class="edge">
<title>Node19&#45;&gt;Node2</title>
<path fill="none" stroke="midnightblue" d="M732.52,-61.95C722.67,-59.79 711.96,-57.62 702,-56 578.84,-35.98 434,-22.79 349.74,-16.13"/>
<polygon fill="midnightblue" stroke="midnightblue" points="349.76,-12.62 339.52,-15.33 349.22,-19.6 349.76,-12.62"/>
</g>
<!-- Node19&#45;&gt;Node5 -->
<g id="edge25" class="edge">
<title>Node19&#45;&gt;Node5</title>
<path fill="none" stroke="midnightblue" d="M808.89,-61.95C818.74,-59.95 829.24,-57.85 839,-56 905.5,-43.37 981.96,-30.09 1033.88,-21.26"/>
<polygon fill="midnightblue" stroke="midnightblue" points="1034.65,-24.68 1043.92,-19.55 1033.48,-17.78 1034.65,-24.68"/>
</g>
<!-- Node21 -->
<g id="node21" class="node">
<title>Node21</title>
<g id="a_node21"><a xlink:title=" ">
<polygon fill="white" stroke="#bfbfbf" points="759.5,-554 759.5,-573 904.5,-573 904.5,-554 759.5,-554"/>
<text text-anchor="middle" x="832" y="-561" font-family="Helvetica,sans-Serif" font-size="10.00">odp/api/abi/queue_types.h</text>
</a>
</g>
</g>
<!-- Node20&#45;&gt;Node21 -->
<g id="edge29" class="edge">
<title>Node20&#45;&gt;Node21</title>
<path fill="none" stroke="midnightblue" d="M686.36,-615.48C715.64,-605.22 764.97,-587.96 798,-576.4"/>
<polygon fill="midnightblue" stroke="midnightblue" points="799.41,-579.62 807.69,-573.01 797.09,-573.01 799.41,-579.62"/>
</g>
<!-- Node22 -->
<g id="node22" class="node">
<title>Node22</title>
<g id="a_node22"><a xlink:href="api_2spec_2queue__types_8h.html" target="_top" xlink:title="ODP queue types.">
<polygon fill="white" stroke="black" points="591.5,-548.5 591.5,-578.5 702.5,-578.5 702.5,-548.5 591.5,-548.5"/>
<text text-anchor="start" x="599.5" y="-566.5" font-family="Helvetica,sans-Serif" font-size="10.00">odp/api/spec/queue</text>
<text text-anchor="middle" x="647" y="-555.5" font-family="Helvetica,sans-Serif" font-size="10.00">_types.h</text>
</a>
</g>
</g>
<!-- Node20&#45;&gt;Node22 -->
<g id="edge30" class="edge">
<title>Node20&#45;&gt;Node22</title>
<path fill="none" stroke="midnightblue" d="M659.85,-615.48C658.07,-608.4 655.44,-597.97 653.02,-588.39"/>
<polygon fill="midnightblue" stroke="midnightblue" points="656.37,-587.36 650.54,-578.52 649.59,-589.08 656.37,-587.36"/>
</g>
<!-- Node22&#45;&gt;Node2 -->
<g id="edge31" class="edge">
<title>Node22&#45;&gt;Node2</title>
<path fill="none" stroke="midnightblue" d="M591.18,-560.59C461.72,-554.65 152,-531.07 152,-441.5 152,-441.5 152,-441.5 152,-132 152,-79.02 210.64,-42.17 248.23,-23.99"/>
<polygon fill="midnightblue" stroke="midnightblue" points="250.15,-26.96 257.74,-19.57 247.2,-20.61 250.15,-26.96"/>
</g>
<!-- Node22&#45;&gt;Node5 -->
<g id="edge44" class="edge">
<title>Node22&#45;&gt;Node5</title>
<path fill="none" stroke="midnightblue" d="M681.95,-548.44C793.39,-502.52 1133,-353.74 1133,-246 1133,-246 1133,-246 1133,-132 1133,-93.81 1115.56,-51.83 1104.31,-28.72"/>
<polygon fill="midnightblue" stroke="midnightblue" points="1107.29,-26.86 1099.66,-19.52 1101.04,-30.02 1107.29,-26.86"/>
</g>
<!-- Node23 -->
<g id="node23" class="node">
<title>Node23</title>
<g id="a_node23"><a xlink:href="api_2schedule__types_8h.html" target="_top" xlink:title="ODP schedule.">
<polygon fill="white" stroke="black" points="591,-492.5 591,-511.5 731,-511.5 731,-492.5 591,-492.5"/>
<text text-anchor="middle" x="661" y="-499.5" font-family="Helvetica,sans-Serif" font-size="10.00">odp/api/schedule_types.h</text>
</a>
</g>
</g>
<!-- Node22&#45;&gt;Node23 -->
<g id="edge32" class="edge">
<title>Node22&#45;&gt;Node23</title>
<path fill="none" stroke="midnightblue" d="M650.32,-548.4C652.21,-540.38 654.59,-530.23 656.63,-521.57"/>
<polygon fill="midnightblue" stroke="midnightblue" points="660.08,-522.19 658.96,-511.66 653.27,-520.59 660.08,-522.19"/>
</g>
<!-- Node24 -->
<g id="node24" class="node">
<title>Node24</title>
<g id="a_node24"><a xlink:title=" ">
<polygon fill="white" stroke="#bfbfbf" points="591.5,-425.5 591.5,-455.5 708.5,-455.5 708.5,-425.5 591.5,-425.5"/>
<text text-anchor="start" x="599.5" y="-443.5" font-family="Helvetica,sans-Serif" font-size="10.00">odp/api/abi/schedule</text>
<text text-anchor="middle" x="650" y="-432.5" font-family="Helvetica,sans-Serif" font-size="10.00">_types.h</text>
</a>
</g>
</g>
<!-- Node23&#45;&gt;Node24 -->
<g id="edge33" class="edge">
<title>Node23&#45;&gt;Node24</title>
<path fill="none" stroke="midnightblue" d="M659.42,-492.48C658.12,-485.4 656.19,-474.97 654.42,-465.39"/>
<polygon fill="midnightblue" stroke="midnightblue" points="657.85,-464.72 652.59,-455.52 650.97,-465.99 657.85,-464.72"/>
</g>
<!-- Node25 -->
<g id="node25" class="node">
<title>Node25</title>
<g id="a_node25"><a xlink:href="api_2spec_2schedule__types_8h.html" target="_top" xlink:title="ODP schedule types.">
<polygon fill="white" stroke="black" points="726.5,-425.5 726.5,-455.5 851.5,-455.5 851.5,-425.5 726.5,-425.5"/>
<text text-anchor="start" x="734.5" y="-443.5" font-family="Helvetica,sans-Serif" font-size="10.00">odp/api/spec/schedule</text>
<text text-anchor="middle" x="789" y="-432.5" font-family="Helvetica,sans-Serif" font-size="10.00">_types.h</text>
</a>
</g>
</g>
<!-- Node23&#45;&gt;Node25 -->
<g id="edge34" class="edge">
<title>Node23&#45;&gt;Node25</title>
<path fill="none" stroke="midnightblue" d="M679.34,-492.48C697.57,-484 726.1,-470.74 749.5,-459.86"/>
<polygon fill="midnightblue" stroke="midnightblue" points="751.24,-462.91 758.83,-455.52 748.29,-456.56 751.24,-462.91"/>
</g>
<!-- Node25&#45;&gt;Node2 -->
<g id="edge35" class="edge">
<title>Node25&#45;&gt;Node2</title>
<path fill="none" stroke="midnightblue" d="M726.22,-425.86C652.6,-408.32 528.29,-373.81 431,-322 352.45,-280.17 317.65,-275.98 273,-199 241.22,-144.22 261.04,-64.54 272.51,-29.13"/>
<polygon fill="midnightblue" stroke="midnightblue" points="275.83,-30.23 275.74,-19.64 269.2,-27.98 275.83,-30.23"/>
</g>
<!-- Node25&#45;&gt;Node5 -->
<g id="edge43" class="edge">
<title>Node25&#45;&gt;Node5</title>
<path fill="none" stroke="midnightblue" d="M836.14,-425.42C921.98,-396.54 1095,-321.95 1095,-190 1095,-190 1095,-190 1095,-132 1095,-95.71 1095,-53.31 1095,-29.56"/>
<polygon fill="midnightblue" stroke="midnightblue" points="1098.5,-29.51 1095,-19.51 1091.5,-29.51 1098.5,-29.51"/>
</g>
<!-- Node25&#45;&gt;Node13 -->
<g id="edge36" class="edge">
<title>Node25&#45;&gt;Node13</title>
<path fill="none" stroke="midnightblue" d="M768.68,-425.44C741.83,-405.67 695.25,-367.02 672,-322 662.63,-303.86 657.38,-280.95 654.63,-265.05"/>
<polygon fill="midnightblue" stroke="midnightblue" points="658.05,-264.23 653.06,-254.88 651.13,-265.3 658.05,-264.23"/>
</g>
<!-- Node26 -->
<g id="node26" class="node">
<title>Node26</title>
<g id="a_node26"><a xlink:href="api_2thrmask_8h.html" target="_top" xlink:title="ODP thread masks.">
<polygon fill="white" stroke="black" points="736.5,-364 736.5,-383 841.5,-383 841.5,-364 736.5,-364"/>
<text text-anchor="middle" x="789" y="-371" font-family="Helvetica,sans-Serif" font-size="10.00">odp/api/thrmask.h</text>
</a>
</g>
</g>
<!-- Node25&#45;&gt;Node26 -->
<g id="edge37" class="edge">
<title>Node25&#45;&gt;Node26</title>
<path fill="none" stroke="midnightblue" d="M789,-425.4C789,-416.06 789,-403.71 789,-393.52"/>
<polygon fill="midnightblue" stroke="midnightblue" points="792.5,-393.19 789,-383.19 785.5,-393.19 792.5,-393.19"/>
</g>
<!-- Node27 -->
<g id="node27" class="node">
<title>Node27</title>
<g id="a_node27"><a xlink:title=" ">
<polygon fill="white" stroke="#bfbfbf" points="829.5,-297 829.5,-316 952.5,-316 952.5,-297 829.5,-297"/>
<text text-anchor="middle" x="891" y="-304" font-family="Helvetica,sans-Serif" font-size="10.00">odp/api/abi/thrmask.h</text>
</a>
</g>
</g>
<!-- Node26&#45;&gt;Node27 -->
<g id="edge38" class="edge">
<title>Node26&#45;&gt;Node27</title>
<path fill="none" stroke="midnightblue" d="M802.76,-363.73C819.73,-352.92 848.81,-334.38 868.93,-321.57"/>
<polygon fill="midnightblue" stroke="midnightblue" points="870.91,-324.45 877.46,-316.13 867.15,-318.55 870.91,-324.45"/>
</g>
<!-- Node28 -->
<g id="node28" class="node">
<title>Node28</title>
<g id="a_node28"><a xlink:href="api_2spec_2thrmask_8h.html" target="_top" xlink:title="ODP thread masks.">
<polygon fill="white" stroke="black" points="680.5,-297 680.5,-316 811.5,-316 811.5,-297 680.5,-297"/>
<text text-anchor="middle" x="746" y="-304" font-family="Helvetica,sans-Serif" font-size="10.00">odp/api/spec/thrmask.h</text>
</a>
</g>
</g>
<!-- Node26&#45;&gt;Node28 -->
<g id="edge39" class="edge">
<title>Node26&#45;&gt;Node28</title>
<path fill="none" stroke="midnightblue" d="M783.2,-363.73C776.62,-353.79 765.74,-337.34 757.44,-324.79"/>
<polygon fill="midnightblue" stroke="midnightblue" points="760.14,-322.54 751.71,-316.13 754.31,-326.4 760.14,-322.54"/>
</g>
<!-- Node28&#45;&gt;Node2 -->
<g id="edge40" class="edge">
<title>Node28&#45;&gt;Node2</title>
<path fill="none" stroke="midnightblue" d="M744.71,-296.9C742.08,-282.27 734.78,-252.41 717,-235 685.33,-203.99 664.44,-217.14 624,-199 606.23,-191.03 602.6,-187.34 585,-179 492.55,-135.19 461.59,-139.86 374,-87 344.36,-69.11 313.73,-42.98 295.53,-26.49"/>
<polygon fill="midnightblue" stroke="midnightblue" points="297.82,-23.84 288.09,-19.65 293.09,-29 297.82,-23.84"/>
</g>
<!-- Node28&#45;&gt;Node5 -->
<g id="edge42" class="edge">
<title>Node28&#45;&gt;Node5</title>
<path fill="none" stroke="midnightblue" d="M772.07,-296.92C827.05,-277.63 956.14,-225.95 1033,-143 1049.39,-125.31 1075.71,-60.88 1088.11,-29.04"/>
<polygon fill="midnightblue" stroke="midnightblue" points="1091.42,-30.2 1091.75,-19.61 1084.89,-27.68 1091.42,-30.2"/>
</g>
<!-- Node28&#45;&gt;Node13 -->
<g id="edge41" class="edge">
<title>Node28&#45;&gt;Node13</title>
<path fill="none" stroke="midnightblue" d="M732.53,-296.98C717.32,-287.34 692.31,-271.52 674.2,-260.05"/>
<polygon fill="midnightblue" stroke="midnightblue" points="675.76,-256.9 665.44,-254.51 672.02,-262.81 675.76,-256.9"/>
</g>
<!-- Node30 -->
<g id="node30" class="node">
<title>Node30</title>
<g id="a_node30"><a xlink:title=" ">
<polygon fill="white" stroke="#bfbfbf" points="703,-906.5 703,-925.5 839,-925.5 839,-906.5 703,-906.5"/>
<text text-anchor="middle" x="771" y="-913.5" font-family="Helvetica,sans-Serif" font-size="10.00">odp/api/abi/pool_types.h</text>
</a>
</g>
</g>
<!-- Node29&#45;&gt;Node30 -->
<g id="edge47" class="edge">
<title>Node29&#45;&gt;Node30</title>
<path fill="none" stroke="midnightblue" d="M638.04,-962.44C664.62,-953.36 706.81,-938.94 736.52,-928.78"/>
<polygon fill="midnightblue" stroke="midnightblue" points="737.75,-932.06 746.08,-925.52 735.49,-925.44 737.75,-932.06"/>
</g>
<!-- Node31 -->
<g id="node31" class="node">
<title>Node31</title>
<g id="a_node31"><a xlink:href="api_2spec_2pool__types_8h.html" target="_top" xlink:title="Type definitions for pools.">
<polygon fill="white" stroke="black" points="541.5,-906.5 541.5,-925.5 684.5,-925.5 684.5,-906.5 541.5,-906.5"/>
<text text-anchor="middle" x="613" y="-913.5" font-family="Helvetica,sans-Serif" font-size="10.00">odp/api/spec/pool_types.h</text>
</a>
</g>
</g>
<!-- Node29&#45;&gt;Node31 -->
<g id="edge48" class="edge">
<title>Node29&#45;&gt;Node31</title>
<path fill="none" stroke="midnightblue" d="M613,-962.08C613,-955.01 613,-944.86 613,-935.99"/>
<polygon fill="midnightblue" stroke="midnightblue" points="616.5,-935.75 613,-925.75 609.5,-935.75 616.5,-935.75"/>
</g>
<!-- Node31&#45;&gt;Node2 -->
<g id="edge49" class="edge">
<title>Node31&#45;&gt;Node2</title>
<path fill="none" stroke="midnightblue" d="M541.34,-909.46C387.2,-895.56 38,-852.64 38,-749 38,-749 38,-749 38,-132 38,-94.24 46.23,-79.23 76,-56 96.5,-40 158.22,-27.76 208.28,-20.11"/>
<polygon fill="midnightblue" stroke="midnightblue" points="209.06,-23.53 218.44,-18.59 208.03,-16.61 209.06,-23.53"/>
</g>
<!-- Node31&#45;&gt;Node5 -->
<g id="edge72" class="edge">
<title>Node31&#45;&gt;Node5</title>
<path fill="none" stroke="midnightblue" d="M684.6,-907C857.75,-887.16 1285,-835.16 1285,-805 1285,-805 1285,-805 1285,-747 1285,-664.15 1323,-647.35 1323,-564.5 1323,-564.5 1323,-564.5 1323,-132 1323,-58.15 1228.52,-29.24 1161.2,-18.01"/>
<polygon fill="midnightblue" stroke="midnightblue" points="1161.49,-14.51 1151.07,-16.42 1160.4,-21.43 1161.49,-14.51"/>
</g>
<!-- Node31&#45;&gt;Node13 -->
<g id="edge50" class="edge">
<title>Node31&#45;&gt;Node13</title>
<path fill="none" stroke="midnightblue" d="M600.34,-906.35C577.56,-889.64 532,-850.54 532,-805 532,-805 532,-805 532,-685.5 532,-537.91 547.94,-500.33 587,-358 595.37,-327.5 594.7,-318.11 611,-291 617.37,-280.4 626.48,-270.09 634.5,-262.02"/>
<polygon fill="midnightblue" stroke="midnightblue" points="637.25,-264.23 642.01,-254.77 632.39,-259.2 637.25,-264.23"/>
</g>
<!-- Node32 -->
<g id="node32" class="node">
<title>Node32</title>
<g id="a_node32"><a xlink:href="api_2dma__types_8h.html" target="_top" xlink:title="ODP DMA.">
<polygon fill="white" stroke="black" points="572.5,-850.5 572.5,-869.5 691.5,-869.5 691.5,-850.5 572.5,-850.5"/>
<text text-anchor="middle" x="632" y="-857.5" font-family="Helvetica,sans-Serif" font-size="10.00">odp/api/dma_types.h</text>
</a>
</g>
</g>
<!-- Node31&#45;&gt;Node32 -->
<g id="edge51" class="edge">
<title>Node31&#45;&gt;Node32</title>
<path fill="none" stroke="midnightblue" d="M616.14,-906.08C618.68,-898.85 622.36,-888.41 625.53,-879.4"/>
<polygon fill="midnightblue" stroke="midnightblue" points="628.9,-880.35 628.92,-869.75 622.3,-878.02 628.9,-880.35"/>
</g>
<!-- Node38 -->
<g id="node38" class="node">
<title>Node38</title>
<g id="a_node38"><a xlink:href="api_2ml__types_8h.html" target="_top" xlink:title="ODP Machine Learning (ML) types.">
<polygon fill="white" stroke="black" points="1074,-738.5 1074,-757.5 1184,-757.5 1184,-738.5 1074,-738.5"/>
<text text-anchor="middle" x="1129" y="-745.5" font-family="Helvetica,sans-Serif" font-size="10.00">odp/api/ml_types.h</text>
</a>
</g>
</g>
<!-- Node31&#45;&gt;Node38 -->
<g id="edge64" class="edge">
<title>Node31&#45;&gt;Node38</title>
<path fill="none" stroke="midnightblue" d="M639.66,-906.42C725.46,-878.82 994.62,-792.23 1092.74,-760.66"/>
<polygon fill="midnightblue" stroke="midnightblue" points="1094.06,-763.92 1102.5,-757.52 1091.91,-757.25 1094.06,-763.92"/>
</g>
<!-- Node33 -->
<g id="node33" class="node">
<title>Node33</title>
<g id="a_node33"><a xlink:title=" ">
<polygon fill="white" stroke="#bfbfbf" points="722.5,-794.5 722.5,-813.5 859.5,-813.5 859.5,-794.5 722.5,-794.5"/>
<text text-anchor="middle" x="791" y="-801.5" font-family="Helvetica,sans-Serif" font-size="10.00">odp/api/abi/dma_types.h</text>
</a>
</g>
</g>
<!-- Node32&#45;&gt;Node33 -->
<g id="edge52" class="edge">
<title>Node32&#45;&gt;Node33</title>
<path fill="none" stroke="midnightblue" d="M657.19,-850.44C683.94,-841.36 726.4,-826.94 756.31,-816.78"/>
<polygon fill="midnightblue" stroke="midnightblue" points="757.58,-820.05 765.92,-813.52 755.33,-813.42 757.58,-820.05"/>
</g>
<!-- Node34 -->
<g id="node34" class="node">
<title>Node34</title>
<g id="a_node34"><a xlink:href="api_2spec_2dma__types_8h.html" target="_top" xlink:title="ODP DMA.">
<polygon fill="white" stroke="black" points="560,-794.5 560,-813.5 704,-813.5 704,-794.5 560,-794.5"/>
<text text-anchor="middle" x="632" y="-801.5" font-family="Helvetica,sans-Serif" font-size="10.00">odp/api/spec/dma_types.h</text>
</a>
</g>
</g>
<!-- Node32&#45;&gt;Node34 -->
<g id="edge53" class="edge">
<title>Node32&#45;&gt;Node34</title>
<path fill="none" stroke="midnightblue" d="M632,-850.08C632,-843.01 632,-832.86 632,-823.99"/>
<polygon fill="midnightblue" stroke="midnightblue" points="635.5,-823.75 632,-813.75 628.5,-823.75 635.5,-823.75"/>
</g>
<!-- Node34&#45;&gt;Node2 -->
<g id="edge54" class="edge">
<title>Node34&#45;&gt;Node2</title>
<path fill="none" stroke="midnightblue" d="M559.81,-803.14C474.02,-801.54 327.35,-793.2 207,-758 153.58,-742.38 124.26,-749.34 95,-702 87.76,-690.28 93.79,-684.72 95,-671 99.24,-623.11 114,-612.58 114,-564.5 114,-564.5 114,-564.5 114,-132 114,-71.85 186.19,-38.33 235.07,-22.53"/>
<polygon fill="midnightblue" stroke="midnightblue" points="236.29,-25.82 244.81,-19.52 234.22,-19.13 236.29,-25.82"/>
</g>
<!-- Node34&#45;&gt;Node5 -->
<g id="edge63" class="edge">
<title>Node34&#45;&gt;Node5</title>
<path fill="none" stroke="midnightblue" d="M704.42,-794.91C707.66,-794.6 710.86,-794.29 714,-794 767.15,-789.09 1150.5,-790.29 1193,-758 1288.93,-685.11 1285,-623.48 1285,-503 1285,-503 1285,-503 1285,-132 1285,-68.18 1207.78,-36.55 1151.8,-22.01"/>
<polygon fill="midnightblue" stroke="midnightblue" points="1152.51,-18.58 1141.97,-19.57 1150.83,-25.38 1152.51,-18.58"/>
</g>
<!-- Node34&#45;&gt;Node6 -->
<g id="edge60" class="edge">
<title>Node34&#45;&gt;Node6</title>
<path fill="none" stroke="midnightblue" d="M576.38,-794.44C513.87,-784.83 412.48,-769.23 346.27,-759.04"/>
<polygon fill="midnightblue" stroke="midnightblue" points="346.77,-755.58 336.36,-757.52 345.71,-762.5 346.77,-755.58"/>
</g>
<!-- Node34&#45;&gt;Node13 -->
<g id="edge62" class="edge">
<title>Node34&#45;&gt;Node13</title>
<path fill="none" stroke="midnightblue" d="M628.86,-794.43C614.2,-753.25 554.34,-571.69 582,-425 593.67,-363.13 626.16,-295.23 642.44,-263.79"/>
<polygon fill="midnightblue" stroke="midnightblue" points="645.73,-265.07 647.29,-254.59 639.53,-261.81 645.73,-265.07"/>
</g>
<!-- Node34&#45;&gt;Node20 -->
<g id="edge61" class="edge">
<title>Node34&#45;&gt;Node20</title>
<path fill="none" stroke="midnightblue" d="M633.45,-794.46C638.03,-767.43 652.3,-683.24 658.76,-645.11"/>
<polygon fill="midnightblue" stroke="midnightblue" points="662.28,-645.31 660.5,-634.87 655.37,-644.14 662.28,-645.31"/>
</g>
<!-- Node35 -->
<g id="node35" class="node">
<title>Node35</title>
<g id="a_node35"><a xlink:href="api_2event__types_8h.html" target="_top" xlink:title="ODP event API type definitions.">
<polygon fill="white" stroke="black" points="1003.5,-615.5 1003.5,-634.5 1128.5,-634.5 1128.5,-615.5 1003.5,-615.5"/>
<text text-anchor="middle" x="1066" y="-622.5" font-family="Helvetica,sans-Serif" font-size="10.00">odp/api/event_types.h</text>
</a>
</g>
</g>
<!-- Node34&#45;&gt;Node35 -->
<g id="edge55" class="edge">
<title>Node34&#45;&gt;Node35</title>
<path fill="none" stroke="midnightblue" d="M688.26,-794.44C784.33,-778.89 974.72,-743.72 1027,-702 1045.26,-687.43 1055.81,-662.02 1061.23,-644.63"/>
<polygon fill="midnightblue" stroke="midnightblue" points="1064.73,-645.12 1064.08,-634.54 1057.99,-643.22 1064.73,-645.12"/>
</g>
<!-- Node36 -->
<g id="node36" class="node">
<title>Node36</title>
<g id="a_node36"><a xlink:title=" ">
<polygon fill="white" stroke="#bfbfbf" points="999.5,-554 999.5,-573 1142.5,-573 1142.5,-554 999.5,-554"/>
<text text-anchor="middle" x="1071" y="-561" font-family="Helvetica,sans-Serif" font-size="10.00">odp/api/abi/event_types.h</text>
</a>
</g>
</g>
<!-- Node35&#45;&gt;Node36 -->
<g id="edge56" class="edge">
<title>Node35&#45;&gt;Node36</title>
<path fill="none" stroke="midnightblue" d="M1066.72,-615.48C1067.42,-607.08 1068.52,-593.98 1069.43,-583.16"/>
<polygon fill="midnightblue" stroke="midnightblue" points="1072.94,-583.27 1070.28,-573.01 1065.96,-582.68 1072.94,-583.27"/>
</g>
<!-- Node37 -->
<g id="node37" class="node">
<title>Node37</title>
<g id="a_node37"><a xlink:href="api_2spec_2event__types_8h.html" target="_top" xlink:title="ODP event API type definitions.">
<polygon fill="white" stroke="black" points="881.5,-56.5 881.5,-86.5 990.5,-86.5 990.5,-56.5 881.5,-56.5"/>
<text text-anchor="start" x="889.5" y="-74.5" font-family="Helvetica,sans-Serif" font-size="10.00">odp/api/spec/event</text>
<text text-anchor="middle" x="936" y="-63.5" font-family="Helvetica,sans-Serif" font-size="10.00">_types.h</text>
</a>
</g>
</g>
<!-- Node35&#45;&gt;Node37 -->
<g id="edge57" class="edge">
<title>Node35&#45;&gt;Node37</title>
<path fill="none" stroke="midnightblue" d="M1100.18,-615.49C1118.99,-608.88 1140.74,-597.6 1152,-579 1159.14,-567.21 1154.1,-561.62 1152,-548 1133.79,-429.63 1120.86,-399.89 1071,-291 1036.29,-215.18 980.25,-133.54 952.57,-95.04"/>
<polygon fill="midnightblue" stroke="midnightblue" points="955.18,-92.68 946.48,-86.63 949.51,-96.78 955.18,-92.68"/>
</g>
<!-- Node37&#45;&gt;Node2 -->
<g id="edge58" class="edge">
<title>Node37&#45;&gt;Node2</title>
<path fill="none" stroke="midnightblue" d="M881.29,-62.1C866.01,-59.93 849.38,-57.71 834,-56 660.59,-36.66 455.83,-22.22 350.11,-15.39"/>
<polygon fill="midnightblue" stroke="midnightblue" points="350.09,-11.88 339.89,-14.73 349.64,-18.87 350.09,-11.88"/>
</g>
<!-- Node37&#45;&gt;Node5 -->
<g id="edge59" class="edge">
<title>Node37&#45;&gt;Node5</title>
<path fill="none" stroke="midnightblue" d="M973.68,-56.4C1000.6,-46.33 1036.45,-32.91 1062.19,-23.28"/>
<polygon fill="midnightblue" stroke="midnightblue" points="1063.73,-26.44 1071.86,-19.66 1061.27,-19.88 1063.73,-26.44"/>
</g>
<!-- Node39 -->
<g id="node39" class="node">
<title>Node39</title>
<g id="a_node39"><a xlink:title=" ">
<polygon fill="white" stroke="#bfbfbf" points="1074,-677 1074,-696 1202,-696 1202,-677 1074,-677"/>
<text text-anchor="middle" x="1138" y="-684" font-family="Helvetica,sans-Serif" font-size="10.00">odp/api/abi/ml_types.h</text>
</a>
</g>
</g>
<!-- Node38&#45;&gt;Node39 -->
<g id="edge65" class="edge">
<title>Node38&#45;&gt;Node39</title>
<path fill="none" stroke="midnightblue" d="M1130.29,-738.48C1131.56,-730.08 1133.54,-716.98 1135.18,-706.16"/>
<polygon fill="midnightblue" stroke="midnightblue" points="1138.68,-706.42 1136.71,-696.01 1131.76,-705.37 1138.68,-706.42"/>
</g>
<!-- Node40 -->
<g id="node40" class="node">
<title>Node40</title>
<g id="a_node40"><a xlink:href="api_2spec_2ml__types_8h.html" target="_top" xlink:title="ODP Machine Learning (ML) types.">
<polygon fill="white" stroke="black" points="882.5,-677 882.5,-696 1017.5,-696 1017.5,-677 882.5,-677"/>
<text text-anchor="middle" x="950" y="-684" font-family="Helvetica,sans-Serif" font-size="10.00">odp/api/spec/ml_types.h</text>
</a>
</g>
</g>
<!-- Node38&#45;&gt;Node40 -->
<g id="edge66" class="edge">
<title>Node38&#45;&gt;Node40</title>
<path fill="none" stroke="midnightblue" d="M1103.35,-738.48C1072.38,-728.18 1020.13,-710.81 985.35,-699.25"/>
<polygon fill="midnightblue" stroke="midnightblue" points="986.19,-695.84 975.6,-696.01 983.98,-702.48 986.19,-695.84"/>
</g>
<!-- Node40&#45;&gt;Node2 -->
<g id="edge67" class="edge">
<title>Node40&#45;&gt;Node2</title>
<path fill="none" stroke="midnightblue" d="M950.76,-676.7C952.34,-652.01 953.07,-581.67 914,-548 857.79,-499.55 647,-547.82 582,-512 487.53,-459.94 492.18,-410.84 431,-322 362.3,-222.25 334.61,-200.75 293,-87 286.1,-68.14 282.48,-45.36 280.67,-29.68"/>
<polygon fill="midnightblue" stroke="midnightblue" points="284.15,-29.27 279.65,-19.68 277.18,-29.99 284.15,-29.27"/>
</g>
<!-- Node40&#45;&gt;Node5 -->
<g id="edge71" class="edge">
<title>Node40&#45;&gt;Node5</title>
<path fill="none" stroke="midnightblue" d="M1013.25,-676.93C1051.3,-669.79 1099.63,-657.08 1138,-635 1176.54,-612.82 1209,-608.97 1209,-564.5 1209,-564.5 1209,-564.5 1209,-132 1209,-96.58 1208,-82.94 1185,-56 1172.08,-40.86 1152.84,-30.29 1135.46,-23.21"/>
<polygon fill="midnightblue" stroke="midnightblue" points="1136.64,-19.92 1126.05,-19.63 1134.15,-26.46 1136.64,-19.92"/>
</g>
<!-- Node40&#45;&gt;Node13 -->
<g id="edge70" class="edge">
<title>Node40&#45;&gt;Node13</title>
<path fill="none" stroke="midnightblue" d="M951.94,-676.69C958.73,-645.05 981,-534.16 981,-441.5 981,-441.5 981,-441.5 981,-372.5 981,-335.31 989.39,-316.16 962,-291 927.43,-259.25 798.54,-249.86 718.24,-247.11"/>
<polygon fill="midnightblue" stroke="midnightblue" points="718.32,-243.61 708.21,-246.79 718.1,-250.6 718.32,-243.61"/>
</g>
<!-- Node40&#45;&gt;Node20 -->
<g id="edge69" class="edge">
<title>Node40&#45;&gt;Node20</title>
<path fill="none" stroke="midnightblue" d="M908.74,-676.98C857.2,-666.33 769.02,-648.11 713.21,-636.58"/>
<polygon fill="midnightblue" stroke="midnightblue" points="713.69,-633.1 703.19,-634.51 712.27,-639.96 713.69,-633.1"/>
</g>
<!-- Node40&#45;&gt;Node35 -->
<g id="edge68" class="edge">
<title>Node40&#45;&gt;Node35</title>
<path fill="none" stroke="midnightblue" d="M966.62,-676.98C985.92,-667.08 1017.96,-650.64 1040.43,-639.12"/>
<polygon fill="midnightblue" stroke="midnightblue" points="1042.11,-642.19 1049.41,-634.51 1038.92,-635.96 1042.11,-642.19"/>
</g>
</g>
</svg>
