<?xml version="1.0" encoding="UTF-8" standalone="no"?>
<!DOCTYPE svg PUBLIC "-//W3C//DTD SVG 1.1//EN"
 "http://www.w3.org/Graphics/SVG/1.1/DTD/svg11.dtd">
<!-- Generated by graphviz version 2.40.1 (20161225.0304)
 -->
<!-- Title: event.h Pages: 1 -->
<svg width="440pt" height="756pt"
 viewBox="0.00 0.00 439.50 756.00" xmlns="http://www.w3.org/2000/svg" xmlns:xlink="http://www.w3.org/1999/xlink">
<g id="graph0" class="graph" transform="scale(1 1) rotate(0) translate(4 752)">
<title>event.h</title>
<polygon fill="#ffffff" stroke="transparent" points="-4,4 -4,-752 435.5,-752 435.5,4 -4,4"/>
<!-- Node33 -->
<g id="node1" class="node">
<title>Node33</title>
<polygon fill="#bfbfbf" stroke="#000000" points="307.5,-728.5 307.5,-747.5 360.5,-747.5 360.5,-728.5 307.5,-728.5"/>
<text text-anchor="middle" x="334" y="-735.5" font-family="Helvetica,sans-Serif" font-size="10.00" fill="#000000">event.h</text>
</g>
<!-- Node34 -->
<g id="node2" class="node">
<title>Node34</title>
<g id="a_node2"><a xlink:href="api_2event_8h.html" target="_top" xlink:title="ODP event. ">
<polygon fill="#ffffff" stroke="#000000" points="307.5,-672.5 307.5,-691.5 360.5,-691.5 360.5,-672.5 307.5,-672.5"/>
<text text-anchor="middle" x="334" y="-679.5" font-family="Helvetica,sans-Serif" font-size="10.00" fill="#000000">event.h</text>
</a>
</g>
</g>
<!-- Node33&#45;&gt;Node34 -->
<g id="edge1" class="edge">
<title>Node33&#45;&gt;Node34</title>
<path fill="none" stroke="#191970" d="M334,-718.1575C334,-709.155 334,-698.9199 334,-691.6427"/>
<polygon fill="#191970" stroke="#191970" points="330.5001,-718.2455 334,-728.2455 337.5001,-718.2456 330.5001,-718.2455"/>
</g>
<!-- Node35 -->
<g id="node3" class="node">
<title>Node35</title>
<g id="a_node3"><a xlink:href="api_2spec_2queue_8h.html" target="_top" xlink:title="ODP queue. ">
<polygon fill="#ffffff" stroke="#000000" points="250,-616.5 250,-635.5 306,-635.5 306,-616.5 250,-616.5"/>
<text text-anchor="middle" x="278" y="-623.5" font-family="Helvetica,sans-Serif" font-size="10.00" fill="#000000">queue.h</text>
</a>
</g>
</g>
<!-- Node34&#45;&gt;Node35 -->
<g id="edge2" class="edge">
<title>Node34&#45;&gt;Node35</title>
<path fill="none" stroke="#191970" d="M317.0751,-665.0751C307.4402,-655.4402 295.7196,-643.7196 287.6427,-635.6427"/>
<polygon fill="#191970" stroke="#191970" points="314.6996,-667.6493 324.2455,-672.2455 319.6493,-662.6996 314.6996,-667.6493"/>
</g>
<!-- Node45 -->
<g id="node13" class="node">
<title>Node45</title>
<g id="a_node13"><a xlink:href="odp__api_8h.html" target="_top" xlink:title="The OpenDataPlane API. ">
<polygon fill="#ffffff" stroke="#000000" points="226,-56.5 226,-75.5 290,-75.5 290,-56.5 226,-56.5"/>
<text text-anchor="middle" x="258" y="-63.5" font-family="Helvetica,sans-Serif" font-size="10.00" fill="#000000">odp_api.h</text>
</a>
</g>
</g>
<!-- Node34&#45;&gt;Node45 -->
<g id="edge25" class="edge">
<title>Node34&#45;&gt;Node45</title>
<path fill="none" stroke="#191970" d="M334,-662.1952C334,-639.8128 334,-602.2884 334,-570 334,-570 334,-570 334,-178 334,-133.3528 292.136,-93.2845 270.5499,-75.5918"/>
<polygon fill="#191970" stroke="#191970" points="330.5001,-662.4116 334,-672.4116 337.5001,-662.4117 330.5001,-662.4116"/>
</g>
<!-- Node49 -->
<g id="node17" class="node">
<title>Node49</title>
<g id="a_node17"><a xlink:href="api_2spec_2schedule_8h.html" target="_top" xlink:title="ODP schedule. ">
<polygon fill="#ffffff" stroke="#000000" points="362.5,-560.5 362.5,-579.5 431.5,-579.5 431.5,-560.5 362.5,-560.5"/>
<text text-anchor="middle" x="397" y="-567.5" font-family="Helvetica,sans-Serif" font-size="10.00" fill="#000000">schedule.h</text>
</a>
</g>
</g>
<!-- Node34&#45;&gt;Node49 -->
<g id="edge22" class="edge">
<title>Node34&#45;&gt;Node49</title>
<path fill="none" stroke="#191970" d="M344.3656,-663.5723C357.9277,-639.4618 381.1922,-598.1028 391.6423,-579.5249"/>
<polygon fill="#191970" stroke="#191970" points="341.2235,-662.0192 339.3713,-672.4509 347.3245,-665.4511 341.2235,-662.0192"/>
</g>
<!-- Node36 -->
<g id="node4" class="node">
<title>Node36</title>
<g id="a_node4"><a xlink:href="api_2queue_8h.html" target="_top" xlink:title="ODP queue. ">
<polygon fill="#ffffff" stroke="#000000" points="250,-560.5 250,-579.5 306,-579.5 306,-560.5 250,-560.5"/>
<text text-anchor="middle" x="278" y="-567.5" font-family="Helvetica,sans-Serif" font-size="10.00" fill="#000000">queue.h</text>
</a>
</g>
</g>
<!-- Node35&#45;&gt;Node36 -->
<g id="edge3" class="edge">
<title>Node35&#45;&gt;Node36</title>
<path fill="none" stroke="#191970" d="M278,-606.1575C278,-597.155 278,-586.9199 278,-579.6427"/>
<polygon fill="#191970" stroke="#191970" points="274.5001,-606.2455 278,-616.2455 281.5001,-606.2456 274.5001,-606.2455"/>
</g>
<!-- Node37 -->
<g id="node5" class="node">
<title>Node37</title>
<g id="a_node5"><a xlink:href="spec_2packet__io__stats_8h.html" target="_top" xlink:title="ODP Packet IO statistics. ">
<polygon fill="#ffffff" stroke="#000000" points="166,-504.5 166,-523.5 268,-523.5 268,-504.5 166,-504.5"/>
<text text-anchor="middle" x="217" y="-511.5" font-family="Helvetica,sans-Serif" font-size="10.00" fill="#000000">packet_io_stats.h</text>
</a>
</g>
</g>
<!-- Node36&#45;&gt;Node37 -->
<g id="edge4" class="edge">
<title>Node36&#45;&gt;Node37</title>
<path fill="none" stroke="#191970" d="M259.8751,-553.3607C249.322,-543.6727 236.3888,-531.7995 227.5036,-523.6427"/>
<polygon fill="#191970" stroke="#191970" points="257.6411,-556.0611 267.3746,-560.2455 262.375,-550.9045 257.6411,-556.0611"/>
</g>
<!-- Node36&#45;&gt;Node45 -->
<g id="edge21" class="edge">
<title>Node36&#45;&gt;Node45</title>
<path fill="none" stroke="#191970" d="M283.0316,-550.6538C288.3569,-528.4472 296,-490.8528 296,-458 296,-458 296,-458 296,-178 296,-138.1657 274.1774,-94.3859 263.607,-75.5166"/>
<polygon fill="#191970" stroke="#191970" points="279.6013,-549.9449 280.579,-560.4945 286.3935,-551.6378 279.6013,-549.9449"/>
</g>
<!-- Node38 -->
<g id="node6" class="node">
<title>Node38</title>
<g id="a_node6"><a xlink:href="packet__io__stats_8h.html" target="_top" xlink:title="ODP packet IO stats. ">
<polygon fill="#ffffff" stroke="#000000" points="158,-448.5 158,-467.5 260,-467.5 260,-448.5 158,-448.5"/>
<text text-anchor="middle" x="209" y="-455.5" font-family="Helvetica,sans-Serif" font-size="10.00" fill="#000000">packet_io_stats.h</text>
</a>
</g>
</g>
<!-- Node37&#45;&gt;Node38 -->
<g id="edge5" class="edge">
<title>Node37&#45;&gt;Node38</title>
<path fill="none" stroke="#191970" d="M214.1654,-494.1575C212.8793,-485.155 211.4171,-474.9199 210.3775,-467.6427"/>
<polygon fill="#191970" stroke="#191970" points="210.7274,-494.8411 215.6065,-504.2455 217.657,-493.851 210.7274,-494.8411"/>
</g>
<!-- Node39 -->
<g id="node7" class="node">
<title>Node39</title>
<g id="a_node7"><a xlink:href="api_2spec_2packet__io_8h.html" target="_top" xlink:title="ODP Packet IO. ">
<polygon fill="#ffffff" stroke="#000000" points="156.5,-392.5 156.5,-411.5 229.5,-411.5 229.5,-392.5 156.5,-392.5"/>
<text text-anchor="middle" x="193" y="-399.5" font-family="Helvetica,sans-Serif" font-size="10.00" fill="#000000">packet_io.h</text>
</a>
</g>
</g>
<!-- Node38&#45;&gt;Node39 -->
<g id="edge6" class="edge">
<title>Node38&#45;&gt;Node39</title>
<path fill="none" stroke="#191970" d="M203.4154,-438.4538C200.823,-429.3803 197.8571,-418.9998 195.755,-411.6427"/>
<polygon fill="#191970" stroke="#191970" points="200.1004,-439.5919 206.213,-448.2455 206.8311,-437.6688 200.1004,-439.5919"/>
</g>
<!-- Node40 -->
<g id="node8" class="node">
<title>Node40</title>
<g id="a_node8"><a xlink:href="api_2packet__io_8h.html" target="_top" xlink:title="ODP Packet IO. ">
<polygon fill="#ffffff" stroke="#000000" points="148.5,-336.5 148.5,-355.5 221.5,-355.5 221.5,-336.5 148.5,-336.5"/>
<text text-anchor="middle" x="185" y="-343.5" font-family="Helvetica,sans-Serif" font-size="10.00" fill="#000000">packet_io.h</text>
</a>
</g>
</g>
<!-- Node39&#45;&gt;Node40 -->
<g id="edge7" class="edge">
<title>Node39&#45;&gt;Node40</title>
<path fill="none" stroke="#191970" d="M190.1654,-382.1575C188.8793,-373.155 187.4171,-362.9199 186.3775,-355.6427"/>
<polygon fill="#191970" stroke="#191970" points="186.7274,-382.8411 191.6065,-392.2455 193.657,-381.851 186.7274,-382.8411"/>
</g>
<!-- Node41 -->
<g id="node9" class="node">
<title>Node41</title>
<g id="a_node9"><a xlink:href="api_2spec_2classification_8h.html" target="_top" xlink:title="ODP classification descriptor. ">
<polygon fill="#ffffff" stroke="#000000" points="140.5,-280.5 140.5,-299.5 229.5,-299.5 229.5,-280.5 140.5,-280.5"/>
<text text-anchor="middle" x="185" y="-287.5" font-family="Helvetica,sans-Serif" font-size="10.00" fill="#000000">classification.h</text>
</a>
</g>
</g>
<!-- Node40&#45;&gt;Node41 -->
<g id="edge8" class="edge">
<title>Node40&#45;&gt;Node41</title>
<path fill="none" stroke="#191970" d="M185,-326.1575C185,-317.155 185,-306.9199 185,-299.6427"/>
<polygon fill="#191970" stroke="#191970" points="181.5001,-326.2455 185,-336.2455 188.5001,-326.2456 181.5001,-326.2455"/>
</g>
<!-- Node43 -->
<g id="node11" class="node">
<title>Node43</title>
<g id="a_node11"><a xlink:href="api_2spec_2ipsec_8h.html" target="_top" xlink:title="ODP IPSEC API. ">
<polygon fill="#ffffff" stroke="#000000" points="106.5,-168.5 106.5,-187.5 157.5,-187.5 157.5,-168.5 106.5,-168.5"/>
<text text-anchor="middle" x="132" y="-175.5" font-family="Helvetica,sans-Serif" font-size="10.00" fill="#000000">ipsec.h</text>
</a>
</g>
</g>
<!-- Node40&#45;&gt;Node43 -->
<g id="edge15" class="edge">
<title>Node40&#45;&gt;Node43</title>
<path fill="none" stroke="#191970" d="M159.0726,-330.5977C148.6131,-322.8639 137.6889,-312.4704 132,-300 114.5061,-261.6526 124.2097,-209.2033 129.3982,-187.7481"/>
<polygon fill="#191970" stroke="#191970" points="157.3963,-333.6918 167.6242,-336.4558 161.3523,-327.9168 157.3963,-333.6918"/>
</g>
<!-- Node40&#45;&gt;Node45 -->
<g id="edge20" class="edge">
<title>Node40&#45;&gt;Node45</title>
<path fill="none" stroke="#191970" d="M209.3716,-330.1454C219.8379,-322.2228 231.387,-311.8054 239,-300 255.543,-274.3469 258,-264.5246 258,-234 258,-234 258,-234 258,-178 258,-140.0833 258,-94.9462 258,-75.5884"/>
<polygon fill="#191970" stroke="#191970" points="207.0309,-327.5171 200.9447,-336.1894 211.1107,-333.2053 207.0309,-327.5171"/>
</g>
<!-- Node47 -->
<g id="node15" class="node">
<title>Node47</title>
<g id="a_node15"><a xlink:href="api_2spec_2traffic__mngr_8h.html" target="_top" xlink:title="traffic_mngr.h">
<polygon fill="#ffffff" stroke="#000000" points="0,-280.5 0,-299.5 84,-299.5 84,-280.5 0,-280.5"/>
<text text-anchor="middle" x="42" y="-287.5" font-family="Helvetica,sans-Serif" font-size="10.00" fill="#000000">traffic_mngr.h</text>
</a>
</g>
</g>
<!-- Node40&#45;&gt;Node47 -->
<g id="edge16" class="edge">
<title>Node40&#45;&gt;Node47</title>
<path fill="none" stroke="#191970" d="M150.9202,-332.6541C124.8427,-322.4419 89.5185,-308.6086 66.2618,-299.5011"/>
<polygon fill="#191970" stroke="#191970" points="149.8297,-335.9858 160.4174,-336.3733 152.3822,-329.4677 149.8297,-335.9858"/>
</g>
<!-- Node42 -->
<g id="node10" class="node">
<title>Node42</title>
<g id="a_node10"><a xlink:href="api_2classification_8h.html" target="_top" xlink:title="ODP classification descriptor. ">
<polygon fill="#ffffff" stroke="#000000" points="140.5,-224.5 140.5,-243.5 229.5,-243.5 229.5,-224.5 140.5,-224.5"/>
<text text-anchor="middle" x="185" y="-231.5" font-family="Helvetica,sans-Serif" font-size="10.00" fill="#000000">classification.h</text>
</a>
</g>
</g>
<!-- Node41&#45;&gt;Node42 -->
<g id="edge9" class="edge">
<title>Node41&#45;&gt;Node42</title>
<path fill="none" stroke="#191970" d="M185,-270.1575C185,-261.155 185,-250.9199 185,-243.6427"/>
<polygon fill="#191970" stroke="#191970" points="181.5001,-270.2455 185,-280.2455 188.5001,-270.2456 181.5001,-270.2455"/>
</g>
<!-- Node42&#45;&gt;Node43 -->
<g id="edge10" class="edge">
<title>Node42&#45;&gt;Node43</title>
<path fill="none" stroke="#191970" d="M168.7104,-216.7884C159.6438,-207.2085 148.6946,-195.6396 141.1261,-187.6427"/>
<polygon fill="#191970" stroke="#191970" points="166.3522,-219.3884 175.7681,-224.2455 171.4363,-214.5767 166.3522,-219.3884"/>
</g>
<!-- Node42&#45;&gt;Node45 -->
<g id="edge14" class="edge">
<title>Node42&#45;&gt;Node45</title>
<path fill="none" stroke="#191970" d="M193.1739,-215.1887C208.6919,-179.4762 241.9231,-102.9988 253.7296,-75.8279"/>
<polygon fill="#191970" stroke="#191970" points="189.9092,-213.9198 189.134,-224.4862 196.3293,-216.7095 189.9092,-213.9198"/>
</g>
<!-- Node44 -->
<g id="node12" class="node">
<title>Node44</title>
<g id="a_node12"><a xlink:href="api_2ipsec_8h.html" target="_top" xlink:title="ODP IPSEC API &#45; platform specific header. ">
<polygon fill="#ffffff" stroke="#000000" points="120.5,-112.5 120.5,-131.5 171.5,-131.5 171.5,-112.5 120.5,-112.5"/>
<text text-anchor="middle" x="146" y="-119.5" font-family="Helvetica,sans-Serif" font-size="10.00" fill="#000000">ipsec.h</text>
</a>
</g>
</g>
<!-- Node43&#45;&gt;Node44 -->
<g id="edge11" class="edge">
<title>Node43&#45;&gt;Node44</title>
<path fill="none" stroke="#191970" d="M136.8865,-158.4538C139.1549,-149.3803 141.75,-138.9998 143.5893,-131.6427"/>
<polygon fill="#191970" stroke="#191970" points="133.4685,-157.6952 134.4386,-168.2455 140.2595,-159.393 133.4685,-157.6952"/>
</g>
<!-- Node44&#45;&gt;Node45 -->
<g id="edge12" class="edge">
<title>Node44&#45;&gt;Node45</title>
<path fill="none" stroke="#191970" d="M174.3263,-107.8368C194.5721,-97.7139 221.2642,-84.3679 238.9978,-75.5011"/>
<polygon fill="#191970" stroke="#191970" points="172.6325,-104.7706 165.2535,-112.3733 175.763,-111.0316 172.6325,-104.7706"/>
</g>
<!-- Node46 -->
<g id="node14" class="node">
<title>Node46</title>
<g id="a_node14"><a xlink:href="odp_8h.html" target="_top" xlink:title="WARNING: THIS FILE IS DEPRECATED AND WILL BE REMOVED!!! ODP APPLICATIONS SHOULD NOW INCLUDE odp_api...">
<polygon fill="#ffffff" stroke="#000000" points="236,-.5 236,-19.5 280,-19.5 280,-.5 236,-.5"/>
<text text-anchor="middle" x="258" y="-7.5" font-family="Helvetica,sans-Serif" font-size="10.00" fill="#000000">odp.h</text>
</a>
</g>
</g>
<!-- Node45&#45;&gt;Node46 -->
<g id="edge13" class="edge">
<title>Node45&#45;&gt;Node46</title>
<path fill="none" stroke="#191970" d="M258,-46.1575C258,-37.155 258,-26.9199 258,-19.6427"/>
<polygon fill="#191970" stroke="#191970" points="254.5001,-46.2455 258,-56.2455 261.5001,-46.2456 254.5001,-46.2455"/>
</g>
<!-- Node48 -->
<g id="node16" class="node">
<title>Node48</title>
<g id="a_node16"><a xlink:href="api_2traffic__mngr_8h.html" target="_top" xlink:title="ODP Traffic manager. ">
<polygon fill="#ffffff" stroke="#000000" points="0,-224.5 0,-243.5 84,-243.5 84,-224.5 0,-224.5"/>
<text text-anchor="middle" x="42" y="-231.5" font-family="Helvetica,sans-Serif" font-size="10.00" fill="#000000">traffic_mngr.h</text>
</a>
</g>
</g>
<!-- Node47&#45;&gt;Node48 -->
<g id="edge17" class="edge">
<title>Node47&#45;&gt;Node48</title>
<path fill="none" stroke="#191970" d="M42,-270.1575C42,-261.155 42,-250.9199 42,-243.6427"/>
<polygon fill="#191970" stroke="#191970" points="38.5001,-270.2455 42,-280.2455 45.5001,-270.2456 38.5001,-270.2455"/>
</g>
<!-- Node48&#45;&gt;Node43 -->
<g id="edge18" class="edge">
<title>Node48&#45;&gt;Node43</title>
<path fill="none" stroke="#191970" d="M66.4784,-218.769C82.4266,-208.8456 102.751,-196.1994 116.5028,-187.6427"/>
<polygon fill="#191970" stroke="#191970" points="64.3183,-215.9908 57.6768,-224.2455 68.0165,-221.9342 64.3183,-215.9908"/>
</g>
<!-- Node48&#45;&gt;Node45 -->
<g id="edge19" class="edge">
<title>Node48&#45;&gt;Node45</title>
<path fill="none" stroke="#191970" d="M48.0376,-214.7024C57.4246,-187.8139 78.0554,-139.3127 112,-112 145.1283,-85.3441 193.8775,-74.0393 225.7807,-69.3092"/>
<polygon fill="#191970" stroke="#191970" points="44.6227,-213.8802 44.7925,-224.4736 51.266,-216.0864 44.6227,-213.8802"/>
</g>
<!-- Node50 -->
<g id="node18" class="node">
<title>Node50</title>
<g id="a_node18"><a xlink:href="api_2schedule_8h.html" target="_top" xlink:title="ODP schedule. ">
<polygon fill="#ffffff" stroke="#000000" points="362.5,-504.5 362.5,-523.5 431.5,-523.5 431.5,-504.5 362.5,-504.5"/>
<text text-anchor="middle" x="397" y="-511.5" font-family="Helvetica,sans-Serif" font-size="10.00" fill="#000000">schedule.h</text>
</a>
</g>
</g>
<!-- Node49&#45;&gt;Node50 -->
<g id="edge23" class="edge">
<title>Node49&#45;&gt;Node50</title>
<path fill="none" stroke="#191970" d="M397,-550.1575C397,-541.155 397,-530.9199 397,-523.6427"/>
<polygon fill="#191970" stroke="#191970" points="393.5001,-550.2455 397,-560.2455 400.5001,-550.2456 393.5001,-550.2455"/>
</g>
<!-- Node50&#45;&gt;Node45 -->
<g id="edge24" class="edge">
<title>Node50&#45;&gt;Node45</title>
<path fill="none" stroke="#191970" d="M393.3661,-494.5816C389.52,-472.3089 384,-434.6543 384,-402 384,-402 384,-402 384,-178 384,-144.5868 371.9418,-135.3074 348,-112 330.6486,-95.1083 305.8512,-83.0609 286.6777,-75.5436"/>
<polygon fill="#191970" stroke="#191970" points="389.9265,-495.2302 395.1374,-504.455 396.8165,-493.9941 389.9265,-495.2302"/>
</g>
</g>
</svg>
