<?xml version="1.0" encoding="UTF-8" standalone="no"?>
<!DOCTYPE svg PUBLIC "-//W3C//DTD SVG 1.1//EN"
 "http://www.w3.org/Graphics/SVG/1.1/DTD/svg11.dtd">
<!-- Generated by graphviz version 2.40.1 (20161225.0304)
 -->
<!-- Title: schedule_types.h Pages: 1 -->
<svg width="652pt" height="1204pt"
 viewBox="0.00 0.00 652.08 1204.00" xmlns="http://www.w3.org/2000/svg" xmlns:xlink="http://www.w3.org/1999/xlink">
<g id="graph0" class="graph" transform="scale(1 1) rotate(0) translate(4 1200)">
<title>schedule_types.h</title>
<polygon fill="#ffffff" stroke="transparent" points="-4,4 -4,-1200 648.0791,-1200 648.0791,4 -4,4"/>
<!-- Node5 -->
<g id="node1" class="node">
<title>Node5</title>
<polygon fill="#bfbfbf" stroke="#000000" points="482.0791,-1176.5 482.0791,-1195.5 583.0791,-1195.5 583.0791,-1176.5 482.0791,-1176.5"/>
<text text-anchor="middle" x="532.5791" y="-1183.5" font-family="Helvetica,sans-Serif" font-size="10.00" fill="#000000">schedule_types.h</text>
</g>
<!-- Node6 -->
<g id="node2" class="node">
<title>Node6</title>
<g id="a_node2"><a xlink:href="api_2schedule__types_8h.html" target="_top" xlink:title="ODP schedule. ">
<polygon fill="#ffffff" stroke="#000000" points="482.0791,-1120.5 482.0791,-1139.5 583.0791,-1139.5 583.0791,-1120.5 482.0791,-1120.5"/>
<text text-anchor="middle" x="532.5791" y="-1127.5" font-family="Helvetica,sans-Serif" font-size="10.00" fill="#000000">schedule_types.h</text>
</a>
</g>
</g>
<!-- Node5&#45;&gt;Node6 -->
<g id="edge1" class="edge">
<title>Node5&#45;&gt;Node6</title>
<path fill="none" stroke="#191970" d="M532.5791,-1166.1575C532.5791,-1157.155 532.5791,-1146.9199 532.5791,-1139.6427"/>
<polygon fill="#191970" stroke="#191970" points="529.0792,-1166.2455 532.5791,-1176.2455 536.0792,-1166.2456 529.0792,-1166.2455"/>
</g>
<!-- Node7 -->
<g id="node3" class="node">
<title>Node7</title>
<g id="a_node3"><a xlink:href="api_2spec_2queue__types_8h.html" target="_top" xlink:title="ODP queue types. ">
<polygon fill="#ffffff" stroke="#000000" points="452.5791,-1064.5 452.5791,-1083.5 540.5791,-1083.5 540.5791,-1064.5 452.5791,-1064.5"/>
<text text-anchor="middle" x="496.5791" y="-1071.5" font-family="Helvetica,sans-Serif" font-size="10.00" fill="#000000">queue_types.h</text>
</a>
</g>
</g>
<!-- Node6&#45;&gt;Node7 -->
<g id="edge2" class="edge">
<title>Node6&#45;&gt;Node7</title>
<path fill="none" stroke="#191970" d="M520.7695,-1111.6296C514.7647,-1102.2887 507.7132,-1091.3197 502.778,-1083.6427"/>
<polygon fill="#191970" stroke="#191970" points="517.9566,-1113.7264 526.3084,-1120.2455 523.8449,-1109.9411 517.9566,-1113.7264"/>
</g>
<!-- Node33 -->
<g id="node29" class="node">
<title>Node33</title>
<g id="a_node29"><a xlink:href="api_2spec_2schedule_8h.html" target="_top" xlink:title="ODP schedule. ">
<polygon fill="#ffffff" stroke="#000000" points="530.0791,-616.5 530.0791,-635.5 599.0791,-635.5 599.0791,-616.5 530.0791,-616.5"/>
<text text-anchor="middle" x="564.5791" y="-623.5" font-family="Helvetica,sans-Serif" font-size="10.00" fill="#000000">schedule.h</text>
</a>
</g>
</g>
<!-- Node6&#45;&gt;Node33 -->
<g id="edge49" class="edge">
<title>Node6&#45;&gt;Node33</title>
<path fill="none" stroke="#191970" d="M543.0681,-1111.4209C554.3157,-1089.7168 570.5791,-1052.3882 570.5791,-1018 570.5791,-1018 570.5791,-1018 570.5791,-738 570.5791,-700.029 567.0978,-654.9203 565.4388,-635.5791"/>
<polygon fill="#191970" stroke="#191970" points="539.8474,-1110.0196 538.1861,-1120.4834 546.0101,-1113.3395 539.8474,-1110.0196"/>
</g>
<!-- Node8 -->
<g id="node4" class="node">
<title>Node8</title>
<g id="a_node4"><a xlink:href="api_2queue__types_8h.html" target="_top" xlink:title="ODP queue. ">
<polygon fill="#ffffff" stroke="#000000" points="450.5791,-1008.5 450.5791,-1027.5 538.5791,-1027.5 538.5791,-1008.5 450.5791,-1008.5"/>
<text text-anchor="middle" x="494.5791" y="-1015.5" font-family="Helvetica,sans-Serif" font-size="10.00" fill="#000000">queue_types.h</text>
</a>
</g>
</g>
<!-- Node7&#45;&gt;Node8 -->
<g id="edge3" class="edge">
<title>Node7&#45;&gt;Node8</title>
<path fill="none" stroke="#191970" d="M495.8704,-1054.1575C495.5489,-1045.155 495.1834,-1034.9199 494.9235,-1027.6427"/>
<polygon fill="#191970" stroke="#191970" points="492.3759,-1054.3769 496.2307,-1064.2455 499.3715,-1054.127 492.3759,-1054.3769"/>
</g>
<!-- Node9 -->
<g id="node5" class="node">
<title>Node9</title>
<g id="a_node5"><a xlink:href="api_2spec_2packet__io_8h.html" target="_top" xlink:title="ODP Packet IO. ">
<polygon fill="#ffffff" stroke="#000000" points="270.0791,-392.5 270.0791,-411.5 343.0791,-411.5 343.0791,-392.5 270.0791,-392.5"/>
<text text-anchor="middle" x="306.5791" y="-399.5" font-family="Helvetica,sans-Serif" font-size="10.00" fill="#000000">packet_io.h</text>
</a>
</g>
</g>
<!-- Node8&#45;&gt;Node9 -->
<g id="edge4" class="edge">
<title>Node8&#45;&gt;Node9</title>
<path fill="none" stroke="#191970" d="M494.5791,-998.1952C494.5791,-975.8128 494.5791,-938.2884 494.5791,-906 494.5791,-906 494.5791,-906 494.5791,-626 494.5791,-520.3974 370.4697,-438.524 323.9287,-411.5341"/>
<polygon fill="#191970" stroke="#191970" points="491.0792,-998.4116 494.5791,-1008.4116 498.0792,-998.4117 491.0792,-998.4116"/>
</g>
<!-- Node19 -->
<g id="node15" class="node">
<title>Node19</title>
<g id="a_node15"><a xlink:href="api_2spec_2packet__types_8h.html" target="_top" xlink:title="ODP packet types. ">
<polygon fill="#ffffff" stroke="#000000" points="263.0791,-952.5 263.0791,-971.5 354.0791,-971.5 354.0791,-952.5 263.0791,-952.5"/>
<text text-anchor="middle" x="308.5791" y="-959.5" font-family="Helvetica,sans-Serif" font-size="10.00" fill="#000000">packet_types.h</text>
</a>
</g>
</g>
<!-- Node8&#45;&gt;Node19 -->
<g id="edge19" class="edge">
<title>Node8&#45;&gt;Node19</title>
<path fill="none" stroke="#191970" d="M452.9154,-1005.4561C418.7724,-995.1765 371.186,-980.8494 340.1364,-971.5011"/>
<polygon fill="#191970" stroke="#191970" points="452.0201,-1008.8417 462.6046,-1008.3733 454.0382,-1002.1389 452.0201,-1008.8417"/>
</g>
<!-- Node29 -->
<g id="node25" class="node">
<title>Node29</title>
<g id="a_node25"><a xlink:href="api_2spec_2queue_8h.html" target="_top" xlink:title="ODP queue. ">
<polygon fill="#ffffff" stroke="#000000" points="372.5791,-616.5 372.5791,-635.5 428.5791,-635.5 428.5791,-616.5 372.5791,-616.5"/>
<text text-anchor="middle" x="400.5791" y="-623.5" font-family="Helvetica,sans-Serif" font-size="10.00" fill="#000000">queue.h</text>
</a>
</g>
</g>
<!-- Node8&#45;&gt;Node29 -->
<g id="edge47" class="edge">
<title>Node8&#45;&gt;Node29</title>
<path fill="none" stroke="#191970" d="M464.4768,-1003.6023C431.9092,-985.6822 384.5791,-951.7663 384.5791,-906 384.5791,-906 384.5791,-906 384.5791,-738 384.5791,-699.6984 393.8625,-654.7628 398.2867,-635.5228"/>
<polygon fill="#191970" stroke="#191970" points="463.1531,-1006.8613 473.63,-1008.4375 466.4227,-1000.6718 463.1531,-1006.8613"/>
</g>
<!-- Node8&#45;&gt;Node33 -->
<g id="edge48" class="edge">
<title>Node8&#45;&gt;Node33</title>
<path fill="none" stroke="#191970" d="M505.0681,-999.4209C516.3157,-977.7168 532.5791,-940.3882 532.5791,-906 532.5791,-906 532.5791,-906 532.5791,-738 532.5791,-698.7683 550.9561,-654.6778 559.8574,-635.6226"/>
<polygon fill="#191970" stroke="#191970" points="501.8474,-998.0196 500.1861,-1008.4834 508.0101,-1001.3395 501.8474,-998.0196"/>
</g>
<!-- Node10 -->
<g id="node6" class="node">
<title>Node10</title>
<g id="a_node6"><a xlink:href="api_2packet__io_8h.html" target="_top" xlink:title="ODP Packet IO. ">
<polygon fill="#ffffff" stroke="#000000" points="270.0791,-336.5 270.0791,-355.5 343.0791,-355.5 343.0791,-336.5 270.0791,-336.5"/>
<text text-anchor="middle" x="306.5791" y="-343.5" font-family="Helvetica,sans-Serif" font-size="10.00" fill="#000000">packet_io.h</text>
</a>
</g>
</g>
<!-- Node9&#45;&gt;Node10 -->
<g id="edge5" class="edge">
<title>Node9&#45;&gt;Node10</title>
<path fill="none" stroke="#191970" d="M306.5791,-382.1575C306.5791,-373.155 306.5791,-362.9199 306.5791,-355.6427"/>
<polygon fill="#191970" stroke="#191970" points="303.0792,-382.2455 306.5791,-392.2455 310.0792,-382.2456 303.0792,-382.2455"/>
</g>
<!-- Node11 -->
<g id="node7" class="node">
<title>Node11</title>
<g id="a_node7"><a xlink:href="api_2spec_2classification_8h.html" target="_top" xlink:title="ODP classification descriptor. ">
<polygon fill="#ffffff" stroke="#000000" points="215.0791,-280.5 215.0791,-299.5 304.0791,-299.5 304.0791,-280.5 215.0791,-280.5"/>
<text text-anchor="middle" x="259.5791" y="-287.5" font-family="Helvetica,sans-Serif" font-size="10.00" fill="#000000">classification.h</text>
</a>
</g>
</g>
<!-- Node10&#45;&gt;Node11 -->
<g id="edge6" class="edge">
<title>Node10&#45;&gt;Node11</title>
<path fill="none" stroke="#191970" d="M291.8919,-328.5004C283.8995,-318.9775 274.3166,-307.5596 267.6721,-299.6427"/>
<polygon fill="#191970" stroke="#191970" points="289.2827,-330.8358 298.3923,-336.2455 294.6445,-326.3357 289.2827,-330.8358"/>
</g>
<!-- Node13 -->
<g id="node9" class="node">
<title>Node13</title>
<g id="a_node9"><a xlink:href="api_2spec_2ipsec_8h.html" target="_top" xlink:title="ODP IPSEC API. ">
<polygon fill="#ffffff" stroke="#000000" points="307.0791,-168.5 307.0791,-187.5 358.0791,-187.5 358.0791,-168.5 307.0791,-168.5"/>
<text text-anchor="middle" x="332.5791" y="-175.5" font-family="Helvetica,sans-Serif" font-size="10.00" fill="#000000">ipsec.h</text>
</a>
</g>
</g>
<!-- Node10&#45;&gt;Node13 -->
<g id="edge13" class="edge">
<title>Node10&#45;&gt;Node13</title>
<path fill="none" stroke="#191970" d="M309.6341,-326.2601C315.2199,-290.1669 326.8892,-214.7656 331.0581,-187.8279"/>
<polygon fill="#191970" stroke="#191970" points="306.1221,-326.0686 308.0515,-336.4862 313.0398,-327.1392 306.1221,-326.0686"/>
</g>
<!-- Node15 -->
<g id="node11" class="node">
<title>Node15</title>
<g id="a_node11"><a xlink:href="odp__api_8h.html" target="_top" xlink:title="The OpenDataPlane API. ">
<polygon fill="#ffffff" stroke="#000000" points="227.5791,-56.5 227.5791,-75.5 291.5791,-75.5 291.5791,-56.5 227.5791,-56.5"/>
<text text-anchor="middle" x="259.5791" y="-63.5" font-family="Helvetica,sans-Serif" font-size="10.00" fill="#000000">odp_api.h</text>
</a>
</g>
</g>
<!-- Node10&#45;&gt;Node15 -->
<g id="edge18" class="edge">
<title>Node10&#45;&gt;Node15</title>
<path fill="none" stroke="#191970" d="M260.075,-334.2319C240.7952,-327.199 219.6844,-316.3488 205.5791,-300 185.6391,-276.8884 186.5791,-264.5246 186.5791,-234 186.5791,-234 186.5791,-234 186.5791,-178 186.5791,-133.9009 226.7906,-93.5671 247.5246,-75.7011"/>
<polygon fill="#191970" stroke="#191970" points="259.0532,-337.5811 269.6475,-337.4776 261.3011,-330.9518 259.0532,-337.5811"/>
</g>
<!-- Node17 -->
<g id="node13" class="node">
<title>Node17</title>
<g id="a_node13"><a xlink:href="api_2spec_2traffic__mngr_8h.html" target="_top" xlink:title="traffic_mngr.h">
<polygon fill="#ffffff" stroke="#000000" points="360.5791,-280.5 360.5791,-299.5 444.5791,-299.5 444.5791,-280.5 360.5791,-280.5"/>
<text text-anchor="middle" x="402.5791" y="-287.5" font-family="Helvetica,sans-Serif" font-size="10.00" fill="#000000">traffic_mngr.h</text>
</a>
</g>
</g>
<!-- Node10&#45;&gt;Node17 -->
<g id="edge14" class="edge">
<title>Node10&#45;&gt;Node17</title>
<path fill="none" stroke="#191970" d="M332.2137,-331.0465C349.295,-321.0824 371.2431,-308.2794 386.0488,-299.6427"/>
<polygon fill="#191970" stroke="#191970" points="330.1753,-328.1836 323.301,-336.2455 333.7024,-334.23 330.1753,-328.1836"/>
</g>
<!-- Node12 -->
<g id="node8" class="node">
<title>Node12</title>
<g id="a_node8"><a xlink:href="api_2classification_8h.html" target="_top" xlink:title="ODP classification descriptor. ">
<polygon fill="#ffffff" stroke="#000000" points="215.0791,-224.5 215.0791,-243.5 304.0791,-243.5 304.0791,-224.5 215.0791,-224.5"/>
<text text-anchor="middle" x="259.5791" y="-231.5" font-family="Helvetica,sans-Serif" font-size="10.00" fill="#000000">classification.h</text>
</a>
</g>
</g>
<!-- Node11&#45;&gt;Node12 -->
<g id="edge7" class="edge">
<title>Node11&#45;&gt;Node12</title>
<path fill="none" stroke="#191970" d="M259.5791,-270.1575C259.5791,-261.155 259.5791,-250.9199 259.5791,-243.6427"/>
<polygon fill="#191970" stroke="#191970" points="256.0792,-270.2455 259.5791,-280.2455 263.0792,-270.2456 256.0792,-270.2455"/>
</g>
<!-- Node12&#45;&gt;Node13 -->
<g id="edge8" class="edge">
<title>Node12&#45;&gt;Node13</title>
<path fill="none" stroke="#191970" d="M280.5301,-217.928C293.2898,-208.1397 309.1676,-195.9595 320.0092,-187.6427"/>
<polygon fill="#191970" stroke="#191970" points="278.0987,-215.3819 272.2947,-224.2455 282.3594,-220.9359 278.0987,-215.3819"/>
</g>
<!-- Node12&#45;&gt;Node15 -->
<g id="edge12" class="edge">
<title>Node12&#45;&gt;Node15</title>
<path fill="none" stroke="#191970" d="M259.5791,-214.2601C259.5791,-178.1669 259.5791,-102.7656 259.5791,-75.8279"/>
<polygon fill="#191970" stroke="#191970" points="256.0792,-214.4862 259.5791,-224.4862 263.0792,-214.4863 256.0792,-214.4862"/>
</g>
<!-- Node14 -->
<g id="node10" class="node">
<title>Node14</title>
<g id="a_node10"><a xlink:href="api_2ipsec_8h.html" target="_top" xlink:title="ODP IPSEC API &#45; platform specific header. ">
<polygon fill="#ffffff" stroke="#000000" points="298.0791,-112.5 298.0791,-131.5 349.0791,-131.5 349.0791,-112.5 298.0791,-112.5"/>
<text text-anchor="middle" x="323.5791" y="-119.5" font-family="Helvetica,sans-Serif" font-size="10.00" fill="#000000">ipsec.h</text>
</a>
</g>
</g>
<!-- Node13&#45;&gt;Node14 -->
<g id="edge9" class="edge">
<title>Node13&#45;&gt;Node14</title>
<path fill="none" stroke="#191970" d="M329.3901,-158.1575C327.9433,-149.155 326.2984,-138.9199 325.1288,-131.6427"/>
<polygon fill="#191970" stroke="#191970" points="325.9689,-158.9276 331.0114,-168.2455 332.8802,-157.8168 325.9689,-158.9276"/>
</g>
<!-- Node14&#45;&gt;Node15 -->
<g id="edge10" class="edge">
<title>Node14&#45;&gt;Node15</title>
<path fill="none" stroke="#191970" d="M304.8877,-105.645C293.7572,-95.9058 280.0128,-83.8795 270.5993,-75.6427"/>
<polygon fill="#191970" stroke="#191970" points="302.6006,-108.2945 312.4312,-112.2455 307.2101,-103.0264 302.6006,-108.2945"/>
</g>
<!-- Node16 -->
<g id="node12" class="node">
<title>Node16</title>
<g id="a_node12"><a xlink:href="odp_8h.html" target="_top" xlink:title="WARNING: THIS FILE IS DEPRECATED AND WILL BE REMOVED!!! ODP APPLICATIONS SHOULD NOW INCLUDE odp_api...">
<polygon fill="#ffffff" stroke="#000000" points="237.5791,-.5 237.5791,-19.5 281.5791,-19.5 281.5791,-.5 237.5791,-.5"/>
<text text-anchor="middle" x="259.5791" y="-7.5" font-family="Helvetica,sans-Serif" font-size="10.00" fill="#000000">odp.h</text>
</a>
</g>
</g>
<!-- Node15&#45;&gt;Node16 -->
<g id="edge11" class="edge">
<title>Node15&#45;&gt;Node16</title>
<path fill="none" stroke="#191970" d="M259.5791,-46.1575C259.5791,-37.155 259.5791,-26.9199 259.5791,-19.6427"/>
<polygon fill="#191970" stroke="#191970" points="256.0792,-46.2455 259.5791,-56.2455 263.0792,-46.2456 256.0792,-46.2455"/>
</g>
<!-- Node18 -->
<g id="node14" class="node">
<title>Node18</title>
<g id="a_node14"><a xlink:href="api_2traffic__mngr_8h.html" target="_top" xlink:title="ODP Traffic manager. ">
<polygon fill="#ffffff" stroke="#000000" points="360.5791,-224.5 360.5791,-243.5 444.5791,-243.5 444.5791,-224.5 360.5791,-224.5"/>
<text text-anchor="middle" x="402.5791" y="-231.5" font-family="Helvetica,sans-Serif" font-size="10.00" fill="#000000">traffic_mngr.h</text>
</a>
</g>
</g>
<!-- Node17&#45;&gt;Node18 -->
<g id="edge15" class="edge">
<title>Node17&#45;&gt;Node18</title>
<path fill="none" stroke="#191970" d="M402.5791,-270.1575C402.5791,-261.155 402.5791,-250.9199 402.5791,-243.6427"/>
<polygon fill="#191970" stroke="#191970" points="399.0792,-270.2455 402.5791,-280.2455 406.0792,-270.2456 399.0792,-270.2455"/>
</g>
<!-- Node18&#45;&gt;Node13 -->
<g id="edge16" class="edge">
<title>Node18&#45;&gt;Node13</title>
<path fill="none" stroke="#191970" d="M382.4891,-217.928C370.2538,-208.1397 355.0284,-195.9595 344.6324,-187.6427"/>
<polygon fill="#191970" stroke="#191970" points="380.3909,-220.7316 390.386,-224.2455 384.7638,-215.2655 380.3909,-220.7316"/>
</g>
<!-- Node18&#45;&gt;Node15 -->
<g id="edge17" class="edge">
<title>Node18&#45;&gt;Node15</title>
<path fill="none" stroke="#191970" d="M400.208,-214.2523C396.0896,-187.917 385.3227,-141.2313 358.5791,-112 340.9247,-92.7033 313.5357,-80.8438 292.0374,-74.0107"/>
<polygon fill="#191970" stroke="#191970" points="396.7867,-215.0613 401.6298,-224.4844 403.7201,-214.0978 396.7867,-215.0613"/>
</g>
<!-- Node20 -->
<g id="node16" class="node">
<title>Node20</title>
<g id="a_node16"><a xlink:href="api_2packet__types_8h.html" target="_top" xlink:title="ODP packet. ">
<polygon fill="#ffffff" stroke="#000000" points="262.0791,-896.5 262.0791,-915.5 353.0791,-915.5 353.0791,-896.5 262.0791,-896.5"/>
<text text-anchor="middle" x="307.5791" y="-903.5" font-family="Helvetica,sans-Serif" font-size="10.00" fill="#000000">packet_types.h</text>
</a>
</g>
</g>
<!-- Node19&#45;&gt;Node20 -->
<g id="edge20" class="edge">
<title>Node19&#45;&gt;Node20</title>
<path fill="none" stroke="#191970" d="M308.2248,-942.1575C308.064,-933.155 307.8812,-922.9199 307.7513,-915.6427"/>
<polygon fill="#191970" stroke="#191970" points="304.7268,-942.3097 308.4049,-952.2455 311.7257,-942.1846 304.7268,-942.3097"/>
</g>
<!-- Node21 -->
<g id="node17" class="node">
<title>Node21</title>
<g id="a_node17"><a xlink:href="api_2spec_2packet_8h.html" target="_top" xlink:title="ODP packet descriptor. ">
<polygon fill="#ffffff" stroke="#000000" points="277.0791,-840.5 277.0791,-859.5 336.0791,-859.5 336.0791,-840.5 277.0791,-840.5"/>
<text text-anchor="middle" x="306.5791" y="-847.5" font-family="Helvetica,sans-Serif" font-size="10.00" fill="#000000">packet.h</text>
</a>
</g>
</g>
<!-- Node20&#45;&gt;Node21 -->
<g id="edge21" class="edge">
<title>Node20&#45;&gt;Node21</title>
<path fill="none" stroke="#191970" d="M307.2248,-886.1575C307.064,-877.155 306.8812,-866.9199 306.7513,-859.6427"/>
<polygon fill="#191970" stroke="#191970" points="303.7268,-886.3097 307.4049,-896.2455 310.7257,-886.1846 303.7268,-886.3097"/>
</g>
<!-- Node22 -->
<g id="node18" class="node">
<title>Node22</title>
<g id="a_node18"><a xlink:href="api_2packet_8h.html" target="_top" xlink:title="ODP packet descriptor. ">
<polygon fill="#ffffff" stroke="#000000" points="277.0791,-784.5 277.0791,-803.5 336.0791,-803.5 336.0791,-784.5 277.0791,-784.5"/>
<text text-anchor="middle" x="306.5791" y="-791.5" font-family="Helvetica,sans-Serif" font-size="10.00" fill="#000000">packet.h</text>
</a>
</g>
</g>
<!-- Node21&#45;&gt;Node22 -->
<g id="edge22" class="edge">
<title>Node21&#45;&gt;Node22</title>
<path fill="none" stroke="#191970" d="M306.5791,-830.1575C306.5791,-821.155 306.5791,-810.9199 306.5791,-803.6427"/>
<polygon fill="#191970" stroke="#191970" points="303.0792,-830.2455 306.5791,-840.2455 310.0792,-830.2456 303.0792,-830.2455"/>
</g>
<!-- Node22&#45;&gt;Node9 -->
<g id="edge45" class="edge">
<title>Node22&#45;&gt;Node9</title>
<path fill="none" stroke="#191970" d="M306.5791,-774.1952C306.5791,-751.8128 306.5791,-714.2884 306.5791,-682 306.5791,-682 306.5791,-682 306.5791,-514 306.5791,-476.0833 306.5791,-430.9462 306.5791,-411.5884"/>
<polygon fill="#191970" stroke="#191970" points="303.0792,-774.4116 306.5791,-784.4116 310.0792,-774.4117 303.0792,-774.4116"/>
</g>
<!-- Node22&#45;&gt;Node15 -->
<g id="edge46" class="edge">
<title>Node22&#45;&gt;Node15</title>
<path fill="none" stroke="#191970" d="M266.4434,-792.5903C196.8112,-789.3413 57.5986,-779.0466 21.5791,-748 -1.7373,-727.9027 .5791,-712.7824 .5791,-682 .5791,-682 .5791,-682 .5791,-178 .5791,-134.5898 34.3091,-132.4902 72.5791,-112 122.6855,-85.1725 188.7074,-73.6902 227.4112,-69.0032"/>
<polygon fill="#191970" stroke="#191970" points="266.4494,-796.0938 276.5936,-793.0368 266.7571,-789.1006 266.4494,-796.0938"/>
</g>
<!-- Node23 -->
<g id="node19" class="node">
<title>Node23</title>
<g id="a_node19"><a xlink:href="api_2spec_2comp_8h.html" target="_top" xlink:title="ODP Compression. ">
<polygon fill="#ffffff" stroke="#000000" points="31.0791,-728.5 31.0791,-747.5 84.0791,-747.5 84.0791,-728.5 31.0791,-728.5"/>
<text text-anchor="middle" x="57.5791" y="-735.5" font-family="Helvetica,sans-Serif" font-size="10.00" fill="#000000">comp.h</text>
</a>
</g>
</g>
<!-- Node22&#45;&gt;Node23 -->
<g id="edge23" class="edge">
<title>Node22&#45;&gt;Node23</title>
<path fill="none" stroke="#191970" d="M267.0255,-785.1044C215.9433,-773.6161 128.3916,-753.9257 84.4279,-744.0383"/>
<polygon fill="#191970" stroke="#191970" points="266.5134,-788.5766 277.0377,-787.3562 268.0494,-781.7472 266.5134,-788.5766"/>
</g>
<!-- Node25 -->
<g id="node21" class="node">
<title>Node25</title>
<g id="a_node21"><a xlink:href="api_2spec_2crypto_8h.html" target="_top" xlink:title="ODP crypto. ">
<polygon fill="#ffffff" stroke="#000000" points="462.5791,-448.5 462.5791,-467.5 518.5791,-467.5 518.5791,-448.5 462.5791,-448.5"/>
<text text-anchor="middle" x="490.5791" y="-455.5" font-family="Helvetica,sans-Serif" font-size="10.00" fill="#000000">crypto.h</text>
</a>
</g>
</g>
<!-- Node22&#45;&gt;Node25 -->
<g id="edge26" class="edge">
<title>Node22&#45;&gt;Node25</title>
<path fill="none" stroke="#191970" d="M317.0681,-775.4209C328.3157,-753.7168 344.5791,-716.3882 344.5791,-682 344.5791,-682 344.5791,-682 344.5791,-570 344.5791,-511.2188 420.0029,-479.0762 462.4288,-465.6457"/>
<polygon fill="#191970" stroke="#191970" points="313.8474,-774.0196 312.1861,-784.4834 320.0101,-777.3395 313.8474,-774.0196"/>
</g>
<!-- Node27 -->
<g id="node23" class="node">
<title>Node27</title>
<g id="a_node23"><a xlink:href="api_2spec_2event_8h.html" target="_top" xlink:title="ODP event. ">
<polygon fill="#ffffff" stroke="#000000" points="413.0791,-728.5 413.0791,-747.5 466.0791,-747.5 466.0791,-728.5 413.0791,-728.5"/>
<text text-anchor="middle" x="439.5791" y="-735.5" font-family="Helvetica,sans-Serif" font-size="10.00" fill="#000000">event.h</text>
</a>
</g>
</g>
<!-- Node22&#45;&gt;Node27 -->
<g id="edge30" class="edge">
<title>Node22&#45;&gt;Node27</title>
<path fill="none" stroke="#191970" d="M338.9188,-780.3833C363.1076,-770.1985 395.5741,-756.5284 417.0139,-747.5011"/>
<polygon fill="#191970" stroke="#191970" points="337.3008,-777.2669 329.4426,-784.3733 340.0172,-783.7184 337.3008,-777.2669"/>
</g>
<!-- Node35 -->
<g id="node31" class="node">
<title>Node35</title>
<g id="a_node31"><a xlink:href="api_2spec_2packet__flags_8h.html" target="_top" xlink:title="ODP packet flags. ">
<polygon fill="#ffffff" stroke="#000000" points="147.0791,-728.5 147.0791,-747.5 234.0791,-747.5 234.0791,-728.5 147.0791,-728.5"/>
<text text-anchor="middle" x="190.5791" y="-735.5" font-family="Helvetica,sans-Serif" font-size="10.00" fill="#000000">packet_flags.h</text>
</a>
</g>
</g>
<!-- Node22&#45;&gt;Node35 -->
<g id="edge42" class="edge">
<title>Node22&#45;&gt;Node35</title>
<path fill="none" stroke="#191970" d="M277.5254,-779.9741C256.5226,-769.8348 228.71,-756.408 210.26,-747.5011"/>
<polygon fill="#191970" stroke="#191970" points="276.1108,-783.1776 286.638,-784.3733 279.1541,-776.8738 276.1108,-783.1776"/>
</g>
<!-- Node24 -->
<g id="node20" class="node">
<title>Node24</title>
<g id="a_node20"><a xlink:href="api_2comp_8h.html" target="_top" xlink:title="ODP crypto. ">
<polygon fill="#ffffff" stroke="#000000" points="29.0791,-504.5 29.0791,-523.5 82.0791,-523.5 82.0791,-504.5 29.0791,-504.5"/>
<text text-anchor="middle" x="55.5791" y="-511.5" font-family="Helvetica,sans-Serif" font-size="10.00" fill="#000000">comp.h</text>
</a>
</g>
</g>
<!-- Node23&#45;&gt;Node24 -->
<g id="edge24" class="edge">
<title>Node23&#45;&gt;Node24</title>
<path fill="none" stroke="#191970" d="M57.4016,-718.1177C56.9869,-671.6713 55.9668,-557.4223 55.6647,-523.5891"/>
<polygon fill="#191970" stroke="#191970" points="53.9039,-718.4067 57.4932,-728.375 60.9036,-718.3441 53.9039,-718.4067"/>
</g>
<!-- Node24&#45;&gt;Node15 -->
<g id="edge25" class="edge">
<title>Node24&#45;&gt;Node15</title>
<path fill="none" stroke="#191970" d="M57.8478,-494.2257C60.2131,-471.8706 63.5791,-434.3707 63.5791,-402 63.5791,-402 63.5791,-402 63.5791,-178 63.5791,-145.2043 71.3086,-132.9035 96.5791,-112 116.4606,-95.5542 185.6886,-80.0383 227.2605,-71.9064"/>
<polygon fill="#191970" stroke="#191970" points="54.3401,-494.1052 56.7253,-504.4281 61.2981,-494.8709 54.3401,-494.1052"/>
</g>
<!-- Node26 -->
<g id="node22" class="node">
<title>Node26</title>
<g id="a_node22"><a xlink:href="api_2crypto_8h.html" target="_top" xlink:title="ODP crypto. ">
<polygon fill="#ffffff" stroke="#000000" points="462.5791,-224.5 462.5791,-243.5 518.5791,-243.5 518.5791,-224.5 462.5791,-224.5"/>
<text text-anchor="middle" x="490.5791" y="-231.5" font-family="Helvetica,sans-Serif" font-size="10.00" fill="#000000">crypto.h</text>
</a>
</g>
</g>
<!-- Node25&#45;&gt;Node26 -->
<g id="edge27" class="edge">
<title>Node25&#45;&gt;Node26</title>
<path fill="none" stroke="#191970" d="M490.5791,-438.1177C490.5791,-391.6713 490.5791,-277.4223 490.5791,-243.5891"/>
<polygon fill="#191970" stroke="#191970" points="487.0792,-438.375 490.5791,-448.375 494.0792,-438.375 487.0792,-438.375"/>
</g>
<!-- Node26&#45;&gt;Node13 -->
<g id="edge28" class="edge">
<title>Node26&#45;&gt;Node13</title>
<path fill="none" stroke="#191970" d="M453.9127,-221.0043C424.5213,-210.5871 384.035,-196.2375 358.0804,-187.0384"/>
<polygon fill="#191970" stroke="#191970" points="452.8232,-224.3314 463.4179,-224.3733 455.1617,-217.7336 452.8232,-224.3314"/>
</g>
<!-- Node26&#45;&gt;Node15 -->
<g id="edge29" class="edge">
<title>Node26&#45;&gt;Node15</title>
<path fill="none" stroke="#191970" d="M478.3494,-216.1392C459.6318,-190.0022 421.5032,-141.2706 378.5791,-112 351.8615,-93.7809 316.9131,-81.3811 291.8123,-74.089"/>
<polygon fill="#191970" stroke="#191970" points="475.5227,-218.2042 484.1365,-224.3729 481.2496,-214.1789 475.5227,-218.2042"/>
</g>
<!-- Node28 -->
<g id="node24" class="node">
<title>Node28</title>
<g id="a_node24"><a xlink:href="api_2event_8h.html" target="_top" xlink:title="ODP event. ">
<polygon fill="#ffffff" stroke="#000000" points="413.0791,-672.5 413.0791,-691.5 466.0791,-691.5 466.0791,-672.5 413.0791,-672.5"/>
<text text-anchor="middle" x="439.5791" y="-679.5" font-family="Helvetica,sans-Serif" font-size="10.00" fill="#000000">event.h</text>
</a>
</g>
</g>
<!-- Node27&#45;&gt;Node28 -->
<g id="edge31" class="edge">
<title>Node27&#45;&gt;Node28</title>
<path fill="none" stroke="#191970" d="M439.5791,-718.1575C439.5791,-709.155 439.5791,-698.9199 439.5791,-691.6427"/>
<polygon fill="#191970" stroke="#191970" points="436.0792,-718.2455 439.5791,-728.2455 443.0792,-718.2456 436.0792,-718.2455"/>
</g>
<!-- Node28&#45;&gt;Node15 -->
<g id="edge41" class="edge">
<title>Node28&#45;&gt;Node15</title>
<path fill="none" stroke="#191970" d="M451.9612,-663.7464C480.1287,-620.3912 546.5791,-506.9859 546.5791,-402 546.5791,-402 546.5791,-402 546.5791,-178 546.5791,-123.7785 366.5579,-85.1908 291.6662,-71.4838"/>
<polygon fill="#191970" stroke="#191970" points="448.8698,-662.0758 446.2724,-672.3473 454.7083,-665.9374 448.8698,-662.0758"/>
</g>
<!-- Node28&#45;&gt;Node29 -->
<g id="edge32" class="edge">
<title>Node28&#45;&gt;Node29</title>
<path fill="none" stroke="#191970" d="M426.9883,-663.9209C420.4396,-654.5176 412.6967,-643.3997 407.2945,-635.6427"/>
<polygon fill="#191970" stroke="#191970" points="424.1987,-666.0397 432.7858,-672.2455 429.943,-662.0392 424.1987,-666.0397"/>
</g>
<!-- Node28&#45;&gt;Node33 -->
<g id="edge38" class="edge">
<title>Node28&#45;&gt;Node33</title>
<path fill="none" stroke="#191970" d="M470.2771,-668.2473C492.9784,-658.0771 523.3106,-644.4883 543.3712,-635.5011"/>
<polygon fill="#191970" stroke="#191970" points="468.7624,-665.0906 461.0674,-672.3733 471.6244,-671.4789 468.7624,-665.0906"/>
</g>
<!-- Node30 -->
<g id="node26" class="node">
<title>Node30</title>
<g id="a_node26"><a xlink:href="api_2queue_8h.html" target="_top" xlink:title="ODP queue. ">
<polygon fill="#ffffff" stroke="#000000" points="199.5791,-560.5 199.5791,-579.5 255.5791,-579.5 255.5791,-560.5 199.5791,-560.5"/>
<text text-anchor="middle" x="227.5791" y="-567.5" font-family="Helvetica,sans-Serif" font-size="10.00" fill="#000000">queue.h</text>
</a>
</g>
</g>
<!-- Node29&#45;&gt;Node30 -->
<g id="edge33" class="edge">
<title>Node29&#45;&gt;Node30</title>
<path fill="none" stroke="#191970" d="M362.8527,-613.788C330.5962,-603.3466 284.8974,-588.5539 255.7475,-579.1181"/>
<polygon fill="#191970" stroke="#191970" points="361.8067,-617.1282 372.3986,-616.878 363.9626,-610.4684 361.8067,-617.1282"/>
</g>
<!-- Node30&#45;&gt;Node15 -->
<g id="edge37" class="edge">
<title>Node30&#45;&gt;Node15</title>
<path fill="none" stroke="#191970" d="M200.9312,-554.9692C189.1786,-547.1204 176.124,-536.5301 167.5791,-524 150.3812,-498.7812 148.5791,-488.5246 148.5791,-458 148.5791,-458 148.5791,-458 148.5791,-178 148.5791,-127.4911 206.2339,-91.6118 238.4396,-75.5099"/>
<polygon fill="#191970" stroke="#191970" points="199.2444,-558.0434 209.5684,-560.4236 202.982,-552.1248 199.2444,-558.0434"/>
</g>
<!-- Node31 -->
<g id="node27" class="node">
<title>Node31</title>
<g id="a_node27"><a xlink:href="spec_2packet__io__stats_8h.html" target="_top" xlink:title="ODP Packet IO statistics. ">
<polygon fill="#ffffff" stroke="#000000" points="176.5791,-504.5 176.5791,-523.5 278.5791,-523.5 278.5791,-504.5 176.5791,-504.5"/>
<text text-anchor="middle" x="227.5791" y="-511.5" font-family="Helvetica,sans-Serif" font-size="10.00" fill="#000000">packet_io_stats.h</text>
</a>
</g>
</g>
<!-- Node30&#45;&gt;Node31 -->
<g id="edge34" class="edge">
<title>Node30&#45;&gt;Node31</title>
<path fill="none" stroke="#191970" d="M227.5791,-550.1575C227.5791,-541.155 227.5791,-530.9199 227.5791,-523.6427"/>
<polygon fill="#191970" stroke="#191970" points="224.0792,-550.2455 227.5791,-560.2455 231.0792,-550.2456 224.0792,-550.2455"/>
</g>
<!-- Node32 -->
<g id="node28" class="node">
<title>Node32</title>
<g id="a_node28"><a xlink:href="packet__io__stats_8h.html" target="_top" xlink:title="ODP packet IO stats. ">
<polygon fill="#ffffff" stroke="#000000" points="176.5791,-448.5 176.5791,-467.5 278.5791,-467.5 278.5791,-448.5 176.5791,-448.5"/>
<text text-anchor="middle" x="227.5791" y="-455.5" font-family="Helvetica,sans-Serif" font-size="10.00" fill="#000000">packet_io_stats.h</text>
</a>
</g>
</g>
<!-- Node31&#45;&gt;Node32 -->
<g id="edge35" class="edge">
<title>Node31&#45;&gt;Node32</title>
<path fill="none" stroke="#191970" d="M227.5791,-494.1575C227.5791,-485.155 227.5791,-474.9199 227.5791,-467.6427"/>
<polygon fill="#191970" stroke="#191970" points="224.0792,-494.2455 227.5791,-504.2455 231.0792,-494.2456 224.0792,-494.2455"/>
</g>
<!-- Node32&#45;&gt;Node9 -->
<g id="edge36" class="edge">
<title>Node32&#45;&gt;Node9</title>
<path fill="none" stroke="#191970" d="M249.8547,-442.2097C263.7296,-432.3743 281.1306,-420.0394 292.976,-411.6427"/>
<polygon fill="#191970" stroke="#191970" points="247.474,-439.6071 241.3399,-448.2455 251.5222,-445.3178 247.474,-439.6071"/>
</g>
<!-- Node34 -->
<g id="node30" class="node">
<title>Node34</title>
<g id="a_node30"><a xlink:href="api_2schedule_8h.html" target="_top" xlink:title="ODP schedule. ">
<polygon fill="#ffffff" stroke="#000000" points="575.0791,-392.5 575.0791,-411.5 644.0791,-411.5 644.0791,-392.5 575.0791,-392.5"/>
<text text-anchor="middle" x="609.5791" y="-399.5" font-family="Helvetica,sans-Serif" font-size="10.00" fill="#000000">schedule.h</text>
</a>
</g>
</g>
<!-- Node33&#45;&gt;Node34 -->
<g id="edge39" class="edge">
<title>Node33&#45;&gt;Node34</title>
<path fill="none" stroke="#191970" d="M568.5142,-606.4119C577.8067,-560.1557 600.8415,-445.494 607.6527,-411.5891"/>
<polygon fill="#191970" stroke="#191970" points="565.0509,-605.8815 566.5127,-616.375 571.9138,-607.2603 565.0509,-605.8815"/>
</g>
<!-- Node34&#45;&gt;Node15 -->
<g id="edge40" class="edge">
<title>Node34&#45;&gt;Node15</title>
<path fill="none" stroke="#191970" d="M605.9452,-382.5816C602.0991,-360.3089 596.5791,-322.6543 596.5791,-290 596.5791,-290 596.5791,-290 596.5791,-178 596.5791,-144.5868 587.9365,-131.1838 560.5791,-112 517.6211,-81.8766 360.3112,-70.8114 291.8118,-67.3604"/>
<polygon fill="#191970" stroke="#191970" points="602.5056,-383.2302 607.7165,-392.455 609.3956,-381.9941 602.5056,-383.2302"/>
</g>
<!-- Node36 -->
<g id="node32" class="node">
<title>Node36</title>
<g id="a_node32"><a xlink:href="api_2packet__flags_8h.html" target="_top" xlink:title="ODP packet flags. ">
<polygon fill="#ffffff" stroke="#000000" points="91.0791,-560.5 91.0791,-579.5 178.0791,-579.5 178.0791,-560.5 91.0791,-560.5"/>
<text text-anchor="middle" x="134.5791" y="-567.5" font-family="Helvetica,sans-Serif" font-size="10.00" fill="#000000">packet_flags.h</text>
</a>
</g>
</g>
<!-- Node35&#45;&gt;Node36 -->
<g id="edge43" class="edge">
<title>Node35&#45;&gt;Node36</title>
<path fill="none" stroke="#191970" d="M184.1547,-718.7267C172.186,-682.8207 146.8732,-606.8822 137.8551,-579.8279"/>
<polygon fill="#191970" stroke="#191970" points="180.9251,-720.1062 187.4078,-728.4862 187.5659,-717.8926 180.9251,-720.1062"/>
</g>
<!-- Node36&#45;&gt;Node15 -->
<g id="edge44" class="edge">
<title>Node36&#45;&gt;Node15</title>
<path fill="none" stroke="#191970" d="M127.8579,-550.7316C120.758,-528.6263 110.5791,-491.1535 110.5791,-458 110.5791,-458 110.5791,-458 110.5791,-178 110.5791,-120.0736 183.4262,-88.3961 227.2483,-74.5806"/>
<polygon fill="#191970" stroke="#191970" points="124.5527,-551.8843 131.0378,-560.2625 131.1929,-549.6688 124.5527,-551.8843"/>
</g>
</g>
</svg>
