<?xml version="1.0" encoding="UTF-8" standalone="no"?>
<!DOCTYPE svg PUBLIC "-//W3C//DTD SVG 1.1//EN"
 "http://www.w3.org/Graphics/SVG/1.1/DTD/svg11.dtd">
<!-- Generated by graphviz version 2.43.0 (0)
 -->
<!-- Title: errno.h Pages: 1 -->
<svg width="404pt" height="82pt"
 viewBox="0.00 0.00 404.00 82.00" xmlns="http://www.w3.org/2000/svg" xmlns:xlink="http://www.w3.org/1999/xlink">
<g id="graph0" class="graph" transform="scale(1 1) rotate(0) translate(4 78)">
<title>errno.h</title>
<!-- Node1 -->
<g id="Node000001" class="node">
<title>Node1</title>
<g id="a_Node000001"><a xlink:title="ODP errno.">
<polygon fill="#999999" stroke="#666666" points="223,-74 172,-74 172,-55 223,-55 223,-74"/>
<text text-anchor="middle" x="197.5" y="-62" font-family="Helvetica,sans-Serif" font-size="10.00">errno.h</text>
</a>
</g>
</g>
<!-- Node2 -->
<g id="Node000002" class="node">
<title>Node2</title>
<g id="a_Node000002"><a xlink:href="arch_2arm32-linux_2odp_2api_2abi_2errno_8h_source.html" target="_top" xlink:title=" ">
<polygon fill="white" stroke="#666666" points="51,-19 0,-19 0,0 51,0 51,-19"/>
<text text-anchor="middle" x="25.5" y="-7" font-family="Helvetica,sans-Serif" font-size="10.00">errno.h</text>
</a>
</g>
</g>
<!-- Node1&#45;&gt;Node2 -->
<g id="edge1_Node000001_Node000002" class="edge">
<title>Node1&#45;&gt;Node2</title>
<g id="a_edge1_Node000001_Node000002"><a xlink:title=" ">
<path fill="none" stroke="#63b8ff" d="M162.03,-52.57C129.01,-42.39 80.57,-27.47 51.14,-18.4"/>
<polygon fill="#63b8ff" stroke="#63b8ff" points="161.16,-55.97 171.75,-55.57 163.22,-49.28 161.16,-55.97"/>
</a>
</g>
</g>
<!-- Node3 -->
<g id="Node000003" class="node">
<title>Node3</title>
<g id="a_Node000003"><a xlink:href="arch_2arm64-linux_2odp_2api_2abi_2errno_8h_source.html" target="_top" xlink:title=" ">
<polygon fill="white" stroke="#666666" points="120,-19 69,-19 69,0 120,0 120,-19"/>
<text text-anchor="middle" x="94.5" y="-7" font-family="Helvetica,sans-Serif" font-size="10.00">errno.h</text>
</a>
</g>
</g>
<!-- Node1&#45;&gt;Node3 -->
<g id="edge2_Node000001_Node000003" class="edge">
<title>Node1&#45;&gt;Node3</title>
<g id="a_edge2_Node000001_Node000003"><a xlink:title=" ">
<path fill="none" stroke="#63b8ff" d="M171.98,-50.37C153.06,-40.63 127.8,-27.64 111.35,-19.17"/>
<polygon fill="#63b8ff" stroke="#63b8ff" points="170.46,-53.52 180.95,-54.98 173.66,-47.3 170.46,-53.52"/>
</a>
</g>
</g>
<!-- Node4 -->
<g id="Node000004" class="node">
<title>Node4</title>
<g id="a_Node000004"><a xlink:href="arch_2default-linux_2odp_2api_2abi_2errno_8h_source.html" target="_top" xlink:title=" ">
<polygon fill="white" stroke="#666666" points="189,-19 138,-19 138,0 189,0 189,-19"/>
<text text-anchor="middle" x="163.5" y="-7" font-family="Helvetica,sans-Serif" font-size="10.00">errno.h</text>
</a>
</g>
</g>
<!-- Node1&#45;&gt;Node4 -->
<g id="edge3_Node000001_Node000004" class="edge">
<title>Node1&#45;&gt;Node4</title>
<g id="a_edge3_Node000001_Node000004"><a xlink:title=" ">
<path fill="none" stroke="#63b8ff" d="M186.34,-46.1C180.53,-37.04 173.68,-26.37 169.01,-19.09"/>
<polygon fill="#63b8ff" stroke="#63b8ff" points="183.54,-48.22 191.89,-54.75 189.43,-44.44 183.54,-48.22"/>
</a>
</g>
</g>
<!-- Node5 -->
<g id="Node000005" class="node">
<title>Node5</title>
<g id="a_Node000005"><a xlink:href="arch_2power64-linux_2odp_2api_2abi_2errno_8h_source.html" target="_top" xlink:title=" ">
<polygon fill="white" stroke="#666666" points="258,-19 207,-19 207,0 258,0 258,-19"/>
<text text-anchor="middle" x="232.5" y="-7" font-family="Helvetica,sans-Serif" font-size="10.00">errno.h</text>
</a>
</g>
</g>
<!-- Node1&#45;&gt;Node5 -->
<g id="edge4_Node000001_Node000005" class="edge">
<title>Node1&#45;&gt;Node5</title>
<g id="a_edge4_Node000001_Node000005"><a xlink:title=" ">
<path fill="none" stroke="#63b8ff" d="M208.8,-46.39C214.82,-37.27 221.97,-26.45 226.83,-19.09"/>
<polygon fill="#63b8ff" stroke="#63b8ff" points="205.87,-44.47 203.28,-54.75 211.71,-48.33 205.87,-44.47"/>
</a>
</g>
</g>
<!-- Node6 -->
<g id="Node000006" class="node">
<title>Node6</title>
<g id="a_Node000006"><a xlink:href="arch_2x86__32-linux_2odp_2api_2abi_2errno_8h_source.html" target="_top" xlink:title=" ">
<polygon fill="white" stroke="#666666" points="327,-19 276,-19 276,0 327,0 327,-19"/>
<text text-anchor="middle" x="301.5" y="-7" font-family="Helvetica,sans-Serif" font-size="10.00">errno.h</text>
</a>
</g>
</g>
<!-- Node1&#45;&gt;Node6 -->
<g id="edge5_Node000001_Node000006" class="edge">
<title>Node1&#45;&gt;Node6</title>
<g id="a_edge5_Node000001_Node000006"><a xlink:title=" ">
<path fill="none" stroke="#63b8ff" d="M223.27,-50.37C242.37,-40.63 267.87,-27.64 284.49,-19.17"/>
<polygon fill="#63b8ff" stroke="#63b8ff" points="221.53,-47.33 214.21,-54.98 224.71,-53.56 221.53,-47.33"/>
</a>
</g>
</g>
<!-- Node7 -->
<g id="Node000007" class="node">
<title>Node7</title>
<g id="a_Node000007"><a xlink:href="arch_2x86__64-linux_2odp_2api_2abi_2errno_8h_source.html" target="_top" xlink:title=" ">
<polygon fill="white" stroke="#666666" points="396,-19 345,-19 345,0 396,0 396,-19"/>
<text text-anchor="middle" x="370.5" y="-7" font-family="Helvetica,sans-Serif" font-size="10.00">errno.h</text>
</a>
</g>
</g>
<!-- Node1&#45;&gt;Node7 -->
<g id="edge6_Node000001_Node000007" class="edge">
<title>Node1&#45;&gt;Node7</title>
<g id="a_edge6_Node000001_Node000007"><a xlink:title=" ">
<path fill="none" stroke="#63b8ff" d="M232.81,-52.68C266.1,-42.48 315.18,-27.45 344.87,-18.35"/>
<polygon fill="#63b8ff" stroke="#63b8ff" points="231.56,-49.4 223.03,-55.68 233.61,-56.1 231.56,-49.4"/>
</a>
</g>
</g>
</g>
</svg>
