<?xml version="1.0" encoding="UTF-8" standalone="no"?>
<!DOCTYPE svg PUBLIC "-//W3C//DTD SVG 1.1//EN"
 "http://www.w3.org/Graphics/SVG/1.1/DTD/svg11.dtd">
<!-- Generated by graphviz version 2.43.0 (0)
 -->
<!-- Title: time_types.h Pages: 1 -->
<svg width="359pt" height="140pt"
 viewBox="0.00 0.00 358.50 140.00" xmlns="http://www.w3.org/2000/svg" xmlns:xlink="http://www.w3.org/1999/xlink">
<g id="graph0" class="graph" transform="scale(1 1) rotate(0) translate(4 136)">
<title>time_types.h</title>
<polygon fill="white" stroke="transparent" points="-4,4 -4,-136 354.5,-136 354.5,4 -4,4"/>
<!-- Node1 -->
<g id="node1" class="node">
<title>Node1</title>
<g id="a_node1"><a xlink:title="ODP time.">
<polygon fill="#bfbfbf" stroke="black" points="107.5,-112.5 107.5,-131.5 187.5,-131.5 187.5,-112.5 107.5,-112.5"/>
<text text-anchor="middle" x="147.5" y="-119.5" font-family="Helvetica,sans-Serif" font-size="10.00">time_types.h</text>
</a>
</g>
</g>
<!-- Node2 -->
<g id="node2" class="node">
<title>Node2</title>
<g id="a_node2"><a xlink:title=" ">
<polygon fill="white" stroke="#bfbfbf" points="0,-56.5 0,-75.5 137,-75.5 137,-56.5 0,-56.5"/>
<text text-anchor="middle" x="68.5" y="-63.5" font-family="Helvetica,sans-Serif" font-size="10.00">odp/api/abi/time_types.h</text>
</a>
</g>
</g>
<!-- Node1&#45;&gt;Node2 -->
<g id="edge1" class="edge">
<title>Node1&#45;&gt;Node2</title>
<path fill="none" stroke="midnightblue" d="M134.81,-112.32C122.6,-103.98 103.92,-91.21 89.5,-81.35"/>
<polygon fill="midnightblue" stroke="midnightblue" points="91.39,-78.41 81.16,-75.65 87.44,-84.19 91.39,-78.41"/>
</g>
<!-- Node3 -->
<g id="node3" class="node">
<title>Node3</title>
<g id="a_node3"><a xlink:href="api_2spec_2time__types_8h.html" target="_top" xlink:title="ODP time.">
<polygon fill="white" stroke="black" points="155,-56.5 155,-75.5 300,-75.5 300,-56.5 155,-56.5"/>
<text text-anchor="middle" x="227.5" y="-63.5" font-family="Helvetica,sans-Serif" font-size="10.00">odp/api/spec/time_types.h</text>
</a>
</g>
</g>
<!-- Node1&#45;&gt;Node3 -->
<g id="edge2" class="edge">
<title>Node1&#45;&gt;Node3</title>
<path fill="none" stroke="midnightblue" d="M160.35,-112.32C172.72,-103.98 191.63,-91.21 206.24,-81.35"/>
<polygon fill="midnightblue" stroke="midnightblue" points="208.35,-84.15 214.68,-75.65 204.43,-78.35 208.35,-84.15"/>
</g>
<!-- Node4 -->
<g id="node4" class="node">
<title>Node4</title>
<g id="a_node4"><a xlink:href="visibility__begin_8h_source.html" target="_top" xlink:title=" ">
<polygon fill="white" stroke="black" points="99,-0.5 99,-19.5 220,-19.5 220,-0.5 99,-0.5"/>
<text text-anchor="middle" x="159.5" y="-7.5" font-family="Helvetica,sans-Serif" font-size="10.00">odp/visibility_begin.h</text>
</a>
</g>
</g>
<!-- Node3&#45;&gt;Node4 -->
<g id="edge3" class="edge">
<title>Node3&#45;&gt;Node4</title>
<path fill="none" stroke="midnightblue" d="M216.57,-56.32C206.33,-48.18 190.78,-35.84 178.5,-26.09"/>
<polygon fill="midnightblue" stroke="midnightblue" points="180.63,-23.31 170.62,-19.83 176.28,-28.79 180.63,-23.31"/>
</g>
<!-- Node5 -->
<g id="node5" class="node">
<title>Node5</title>
<g id="a_node5"><a xlink:href="visibility__end_8h_source.html" target="_top" xlink:title=" ">
<polygon fill="white" stroke="black" points="238.5,-0.5 238.5,-19.5 350.5,-19.5 350.5,-0.5 238.5,-0.5"/>
<text text-anchor="middle" x="294.5" y="-7.5" font-family="Helvetica,sans-Serif" font-size="10.00">odp/visibility_end.h</text>
</a>
</g>
</g>
<!-- Node3&#45;&gt;Node5 -->
<g id="edge4" class="edge">
<title>Node3&#45;&gt;Node5</title>
<path fill="none" stroke="midnightblue" d="M238.26,-56.32C248.27,-48.26 263.39,-36.08 275.43,-26.37"/>
<polygon fill="midnightblue" stroke="midnightblue" points="277.95,-28.83 283.54,-19.83 273.56,-23.38 277.95,-28.83"/>
</g>
</g>
</svg>
