<?xml version="1.0" encoding="UTF-8" standalone="no"?>
<!DOCTYPE svg PUBLIC "-//W3C//DTD SVG 1.1//EN"
 "http://www.w3.org/Graphics/SVG/1.1/DTD/svg11.dtd">
<!-- Generated by graphviz version 2.43.0 (0)
 -->
<!-- Title: buffer_types.h Pages: 1 -->
<svg width="306pt" height="148pt"
 viewBox="0.00 0.00 306.00 148.00" xmlns="http://www.w3.org/2000/svg" xmlns:xlink="http://www.w3.org/1999/xlink">
<g id="graph0" class="graph" transform="scale(1 1) rotate(0) translate(4 144)">
<title>buffer_types.h</title>
<!-- Node1 -->
<g id="Node000001" class="node">
<title>Node1</title>
<g id="a_Node000001"><a xlink:title="ODP buffer types.">
<polygon fill="#999999" stroke="#666666" points="156,-140 70,-140 70,-121 156,-121 156,-140"/>
<text text-anchor="middle" x="113" y="-128" font-family="Helvetica,sans-Serif" font-size="10.00">buffer_types.h</text>
</a>
</g>
</g>
<!-- Node2 -->
<g id="Node000002" class="node">
<title>Node2</title>
<g id="a_Node000002"><a xlink:title=" ">
<polygon fill="#e0e0e0" stroke="#999999" points="102,-85 0,-85 0,-55 102,-55 102,-85"/>
<text text-anchor="start" x="8" y="-73" font-family="Helvetica,sans-Serif" font-size="10.00">odp/api/abi/buffer</text>
<text text-anchor="middle" x="51" y="-62" font-family="Helvetica,sans-Serif" font-size="10.00">_types.h</text>
</a>
</g>
</g>
<!-- Node1&#45;&gt;Node2 -->
<g id="edge1_Node000001_Node000002" class="edge">
<title>Node1&#45;&gt;Node2</title>
<g id="a_edge1_Node000001_Node000002"><a xlink:title=" ">
<path fill="none" stroke="#63b8ff" d="M103.85,-120.87C95.83,-113.3 83.83,-101.98 73.3,-92.04"/>
<polygon fill="#63b8ff" stroke="#63b8ff" points="75.63,-89.43 65.96,-85.11 70.83,-94.52 75.63,-89.43"/>
</a>
</g>
</g>
<!-- Node3 -->
<g id="Node000003" class="node">
<title>Node3</title>
<g id="a_Node000003"><a xlink:href="api_2spec_2buffer__types_8h.html" target="_top" xlink:title="ODP buffer types.">
<polygon fill="white" stroke="#666666" points="230,-85 120,-85 120,-55 230,-55 230,-85"/>
<text text-anchor="start" x="128" y="-73" font-family="Helvetica,sans-Serif" font-size="10.00">odp/api/spec/buffer</text>
<text text-anchor="middle" x="175" y="-62" font-family="Helvetica,sans-Serif" font-size="10.00">_types.h</text>
</a>
</g>
</g>
<!-- Node1&#45;&gt;Node3 -->
<g id="edge2_Node000001_Node000003" class="edge">
<title>Node1&#45;&gt;Node3</title>
<g id="a_edge2_Node000001_Node000003"><a xlink:title=" ">
<path fill="none" stroke="#63b8ff" d="M122.15,-120.87C130.17,-113.3 142.17,-101.98 152.7,-92.04"/>
<polygon fill="#63b8ff" stroke="#63b8ff" points="155.17,-94.52 160.04,-85.11 150.37,-89.43 155.17,-94.52"/>
</a>
</g>
</g>
<!-- Node4 -->
<g id="Node000004" class="node">
<title>Node4</title>
<g id="a_Node000004"><a xlink:href="visibility__begin_8h_source.html" target="_top" xlink:title=" ">
<polygon fill="white" stroke="#666666" points="167.5,-19 46.5,-19 46.5,0 167.5,0 167.5,-19"/>
<text text-anchor="middle" x="107" y="-7" font-family="Helvetica,sans-Serif" font-size="10.00">odp/visibility_begin.h</text>
</a>
</g>
</g>
<!-- Node3&#45;&gt;Node4 -->
<g id="edge3_Node000003_Node000004" class="edge">
<title>Node3&#45;&gt;Node4</title>
<g id="a_edge3_Node000003_Node000004"><a xlink:title=" ">
<path fill="none" stroke="#63b8ff" d="M158.54,-54.84C148.37,-46.09 135.31,-34.85 124.88,-25.88"/>
<polygon fill="#63b8ff" stroke="#63b8ff" points="127.05,-23.13 117.19,-19.27 122.49,-28.44 127.05,-23.13"/>
</a>
</g>
</g>
<!-- Node5 -->
<g id="Node000005" class="node">
<title>Node5</title>
<g id="a_Node000005"><a xlink:href="visibility__end_8h_source.html" target="_top" xlink:title=" ">
<polygon fill="white" stroke="#666666" points="298,-19 186,-19 186,0 298,0 298,-19"/>
<text text-anchor="middle" x="242" y="-7" font-family="Helvetica,sans-Serif" font-size="10.00">odp/visibility_end.h</text>
</a>
</g>
</g>
<!-- Node3&#45;&gt;Node5 -->
<g id="edge4_Node000003_Node000005" class="edge">
<title>Node3&#45;&gt;Node5</title>
<g id="a_edge4_Node000003_Node000005"><a xlink:title=" ">
<path fill="none" stroke="#63b8ff" d="M191.22,-54.84C201.24,-46.09 214.11,-34.85 224.38,-25.88"/>
<polygon fill="#63b8ff" stroke="#63b8ff" points="226.73,-28.48 231.96,-19.27 222.13,-23.21 226.73,-28.48"/>
</a>
</g>
</g>
</g>
</svg>
