<?xml version="1.0" encoding="UTF-8" standalone="no"?>
<!DOCTYPE svg PUBLIC "-//W3C//DTD SVG 1.1//EN"
 "http://www.w3.org/Graphics/SVG/1.1/DTD/svg11.dtd">
<!-- Generated by graphviz version 2.43.0 (0)
 -->
<!-- Title: packet_types.h Pages: 1 -->
<svg width="1238pt" height="766pt"
 viewBox="0.00 0.00 1238.00 766.00" xmlns="http://www.w3.org/2000/svg" xmlns:xlink="http://www.w3.org/1999/xlink">
<g id="graph0" class="graph" transform="scale(1 1) rotate(0) translate(4 762)">
<title>packet_types.h</title>
<polygon fill="white" stroke="transparent" points="-4,4 -4,-762 1234,-762 1234,4 -4,4"/>
<!-- Node1 -->
<g id="node1" class="node">
<title>Node1</title>
<g id="a_node1"><a xlink:title="ODP packet.">
<polygon fill="#bfbfbf" stroke="black" points="712,-738.5 712,-757.5 802,-757.5 802,-738.5 712,-738.5"/>
<text text-anchor="middle" x="757" y="-745.5" font-family="Helvetica,sans-Serif" font-size="10.00">packet_types.h</text>
</a>
</g>
</g>
<!-- Node2 -->
<g id="node2" class="node">
<title>Node2</title>
<g id="a_node2"><a xlink:title=" ">
<polygon fill="white" stroke="#bfbfbf" points="580,-671.5 580,-701.5 686,-701.5 686,-671.5 580,-671.5"/>
<text text-anchor="start" x="588" y="-689.5" font-family="Helvetica,sans-Serif" font-size="10.00">odp/api/abi/packet</text>
<text text-anchor="middle" x="633" y="-678.5" font-family="Helvetica,sans-Serif" font-size="10.00">_io_types.h</text>
</a>
</g>
</g>
<!-- Node1&#45;&gt;Node2 -->
<g id="edge1" class="edge">
<title>Node1&#45;&gt;Node2</title>
<path fill="none" stroke="midnightblue" d="M739.23,-738.48C721.58,-730 693.93,-716.74 671.27,-705.86"/>
<polygon fill="midnightblue" stroke="midnightblue" points="672.75,-702.69 662.22,-701.52 669.73,-709 672.75,-702.69"/>
</g>
<!-- Node3 -->
<g id="node3" class="node">
<title>Node3</title>
<g id="a_node3"><a xlink:title=" ">
<polygon fill="white" stroke="#bfbfbf" points="704,-671.5 704,-701.5 810,-701.5 810,-671.5 704,-671.5"/>
<text text-anchor="start" x="712" y="-689.5" font-family="Helvetica,sans-Serif" font-size="10.00">odp/api/abi/packet</text>
<text text-anchor="middle" x="757" y="-678.5" font-family="Helvetica,sans-Serif" font-size="10.00">_types.h</text>
</a>
</g>
</g>
<!-- Node1&#45;&gt;Node3 -->
<g id="edge2" class="edge">
<title>Node1&#45;&gt;Node3</title>
<path fill="none" stroke="midnightblue" d="M757,-738.48C757,-731.47 757,-721.19 757,-711.7"/>
<polygon fill="midnightblue" stroke="midnightblue" points="760.5,-711.52 757,-701.52 753.5,-711.52 760.5,-711.52"/>
</g>
<!-- Node4 -->
<g id="node4" class="node">
<title>Node4</title>
<g id="a_node4"><a xlink:href="api_2spec_2packet__types_8h.html" target="_top" xlink:title="ODP packet types.">
<polygon fill="white" stroke="black" points="828.5,-671.5 828.5,-701.5 941.5,-701.5 941.5,-671.5 828.5,-671.5"/>
<text text-anchor="start" x="836.5" y="-689.5" font-family="Helvetica,sans-Serif" font-size="10.00">odp/api/spec/packet</text>
<text text-anchor="middle" x="885" y="-678.5" font-family="Helvetica,sans-Serif" font-size="10.00">_types.h</text>
</a>
</g>
</g>
<!-- Node1&#45;&gt;Node4 -->
<g id="edge3" class="edge">
<title>Node1&#45;&gt;Node4</title>
<path fill="none" stroke="midnightblue" d="M775.34,-738.48C793.57,-730 822.1,-716.74 845.5,-705.86"/>
<polygon fill="midnightblue" stroke="midnightblue" points="847.24,-708.91 854.83,-701.52 844.29,-702.56 847.24,-708.91"/>
</g>
<!-- Node5 -->
<g id="node5" class="node">
<title>Node5</title>
<g id="a_node5"><a xlink:href="visibility__begin_8h_source.html" target="_top" xlink:title=" ">
<polygon fill="white" stroke="black" points="297.5,-0.5 297.5,-19.5 418.5,-19.5 418.5,-0.5 297.5,-0.5"/>
<text text-anchor="middle" x="358" y="-7.5" font-family="Helvetica,sans-Serif" font-size="10.00">odp/visibility_begin.h</text>
</a>
</g>
</g>
<!-- Node4&#45;&gt;Node5 -->
<g id="edge4" class="edge">
<title>Node4&#45;&gt;Node5</title>
<path fill="none" stroke="midnightblue" d="M828.18,-672.69C825.08,-672.09 822,-671.52 819,-671 728.6,-655.22 0,-656.27 0,-564.5 0,-564.5 0,-564.5 0,-132 0,-92.05 14.49,-77.75 48,-56 86.31,-31.13 207.79,-19.52 286.82,-14.48"/>
<polygon fill="midnightblue" stroke="midnightblue" points="287.43,-17.95 297.19,-13.84 287,-10.96 287.43,-17.95"/>
</g>
<!-- Node6 -->
<g id="node6" class="node">
<title>Node6</title>
<g id="a_node6"><a xlink:href="api_2proto__stats__types_8h.html" target="_top" xlink:title="ODP proto stats types.">
<polygon fill="white" stroke="black" points="910,-358.5 910,-388.5 1020,-388.5 1020,-358.5 910,-358.5"/>
<text text-anchor="start" x="918" y="-376.5" font-family="Helvetica,sans-Serif" font-size="10.00">odp/api/proto_stats</text>
<text text-anchor="middle" x="965" y="-365.5" font-family="Helvetica,sans-Serif" font-size="10.00">_types.h</text>
</a>
</g>
</g>
<!-- Node4&#45;&gt;Node6 -->
<g id="edge5" class="edge">
<title>Node4&#45;&gt;Node6</title>
<path fill="none" stroke="midnightblue" d="M897.43,-671.36C915.01,-649.85 945,-606.94 945,-564.5 945,-564.5 945,-564.5 945,-501 945,-465.01 953,-423.95 958.88,-398.63"/>
<polygon fill="midnightblue" stroke="midnightblue" points="962.31,-399.34 961.24,-388.8 955.5,-397.71 962.31,-399.34"/>
</g>
<!-- Node16 -->
<g id="node16" class="node">
<title>Node16</title>
<g id="a_node16"><a xlink:href="visibility__end_8h_source.html" target="_top" xlink:title=" ">
<polygon fill="white" stroke="black" points="833,-0.5 833,-19.5 945,-19.5 945,-0.5 833,-0.5"/>
<text text-anchor="middle" x="889" y="-7.5" font-family="Helvetica,sans-Serif" font-size="10.00">odp/visibility_end.h</text>
</a>
</g>
</g>
<!-- Node4&#45;&gt;Node16 -->
<g id="edge51" class="edge">
<title>Node4&#45;&gt;Node16</title>
<path fill="none" stroke="midnightblue" d="M941.58,-677.6C1039.46,-662.34 1230,-624.88 1230,-564.5 1230,-564.5 1230,-564.5 1230,-132 1230,-76.18 1181.03,-78.62 1130,-56 1074.12,-31.23 1005.1,-20.09 955.26,-15.08"/>
<polygon fill="midnightblue" stroke="midnightblue" points="955.53,-11.59 945.24,-14.13 954.87,-18.56 955.53,-11.59"/>
</g>
<!-- Node17 -->
<g id="node17" class="node">
<title>Node17</title>
<g id="a_node17"><a xlink:href="api_2queue__types_8h.html" target="_top" xlink:title="ODP queue.">
<polygon fill="white" stroke="black" points="761.5,-615.5 761.5,-634.5 888.5,-634.5 888.5,-615.5 761.5,-615.5"/>
<text text-anchor="middle" x="825" y="-622.5" font-family="Helvetica,sans-Serif" font-size="10.00">odp/api/queue_types.h</text>
</a>
</g>
</g>
<!-- Node4&#45;&gt;Node17 -->
<g id="edge21" class="edge">
<title>Node4&#45;&gt;Node17</title>
<path fill="none" stroke="midnightblue" d="M870.78,-671.4C861.79,-662.49 850.16,-650.95 840.87,-641.74"/>
<polygon fill="midnightblue" stroke="midnightblue" points="843.3,-639.21 833.73,-634.66 838.37,-644.18 843.3,-639.21"/>
</g>
<!-- Node7 -->
<g id="node7" class="node">
<title>Node7</title>
<g id="a_node7"><a xlink:title=" ">
<polygon fill="white" stroke="#bfbfbf" points="1036,-291.5 1036,-321.5 1164,-321.5 1164,-291.5 1036,-291.5"/>
<text text-anchor="start" x="1044" y="-309.5" font-family="Helvetica,sans-Serif" font-size="10.00">odp/api/abi/proto_stats</text>
<text text-anchor="middle" x="1100" y="-298.5" font-family="Helvetica,sans-Serif" font-size="10.00">_types.h</text>
</a>
</g>
</g>
<!-- Node6&#45;&gt;Node7 -->
<g id="edge6" class="edge">
<title>Node6&#45;&gt;Node7</title>
<path fill="none" stroke="midnightblue" d="M994.29,-358.4C1014.02,-348.9 1040.23,-336.28 1061.62,-325.98"/>
<polygon fill="midnightblue" stroke="midnightblue" points="1063.27,-329.07 1070.76,-321.58 1060.24,-322.76 1063.27,-329.07"/>
</g>
<!-- Node8 -->
<g id="node8" class="node">
<title>Node8</title>
<g id="a_node8"><a xlink:href="api_2spec_2proto__stats__types_8h.html" target="_top" xlink:title="ODP proto stats types.">
<polygon fill="white" stroke="black" points="910.5,-291.5 910.5,-321.5 1017.5,-321.5 1017.5,-291.5 910.5,-291.5"/>
<text text-anchor="start" x="918.5" y="-309.5" font-family="Helvetica,sans-Serif" font-size="10.00">odp/api/spec/proto</text>
<text text-anchor="middle" x="964" y="-298.5" font-family="Helvetica,sans-Serif" font-size="10.00">_stats_types.h</text>
</a>
</g>
</g>
<!-- Node6&#45;&gt;Node8 -->
<g id="edge7" class="edge">
<title>Node6&#45;&gt;Node8</title>
<path fill="none" stroke="midnightblue" d="M964.78,-358.4C964.66,-350.64 964.51,-340.81 964.37,-331.86"/>
<polygon fill="midnightblue" stroke="midnightblue" points="967.87,-331.52 964.22,-321.58 960.87,-331.63 967.87,-331.52"/>
</g>
<!-- Node8&#45;&gt;Node5 -->
<g id="edge8" class="edge">
<title>Node8&#45;&gt;Node5</title>
<path fill="none" stroke="midnightblue" d="M946.6,-291.35C914.56,-265.88 843.34,-211.89 776,-179 729.78,-156.43 713.48,-162.8 666,-143 648.02,-135.5 644.74,-131.04 627,-123 587.38,-105.06 574.68,-106.89 536,-87 513.42,-75.38 510.83,-67.12 488,-56 459.25,-41.99 425.01,-30.33 398.89,-22.39"/>
<polygon fill="midnightblue" stroke="midnightblue" points="399.89,-19.03 389.31,-19.53 397.89,-25.74 399.89,-19.03"/>
</g>
<!-- Node9 -->
<g id="node9" class="node">
<title>Node9</title>
<g id="a_node9"><a xlink:href="api_2std__types_8h.html" target="_top" xlink:title="Standard C language types and definitions for ODP.">
<polygon fill="white" stroke="black" points="564,-235.5 564,-254.5 676,-254.5 676,-235.5 564,-235.5"/>
<text text-anchor="middle" x="620" y="-242.5" font-family="Helvetica,sans-Serif" font-size="10.00">odp/api/std_types.h</text>
</a>
</g>
</g>
<!-- Node8&#45;&gt;Node9 -->
<g id="edge9" class="edge">
<title>Node8&#45;&gt;Node9</title>
<path fill="none" stroke="midnightblue" d="M910.25,-296.2C847.56,-285.36 744.25,-267.49 679.28,-256.25"/>
<polygon fill="midnightblue" stroke="midnightblue" points="679.65,-252.76 669.2,-254.51 678.45,-259.66 679.65,-252.76"/>
</g>
<!-- Node8&#45;&gt;Node16 -->
<g id="edge20" class="edge">
<title>Node8&#45;&gt;Node16</title>
<path fill="none" stroke="midnightblue" d="M964.2,-291.28C964.49,-269.48 965,-226.5 965,-190 965,-190 965,-190 965,-132 965,-96.58 960.46,-85.6 941,-56 933.21,-44.15 921.46,-33.62 911.1,-25.72"/>
<polygon fill="midnightblue" stroke="midnightblue" points="912.99,-22.77 902.84,-19.74 908.88,-28.44 912.99,-22.77"/>
</g>
<!-- Node10 -->
<g id="node10" class="node">
<title>Node10</title>
<g id="a_node10"><a xlink:title=" ">
<polygon fill="white" stroke="#bfbfbf" points="482,-179.5 482,-198.5 612,-198.5 612,-179.5 482,-179.5"/>
<text text-anchor="middle" x="547" y="-186.5" font-family="Helvetica,sans-Serif" font-size="10.00">odp/api/abi/std_types.h</text>
</a>
</g>
</g>
<!-- Node9&#45;&gt;Node10 -->
<g id="edge10" class="edge">
<title>Node9&#45;&gt;Node10</title>
<path fill="none" stroke="midnightblue" d="M608.27,-235.32C597.16,-227.11 580.26,-214.6 567.02,-204.81"/>
<polygon fill="midnightblue" stroke="midnightblue" points="569.06,-201.97 558.94,-198.83 564.9,-207.59 569.06,-201.97"/>
</g>
<!-- Node11 -->
<g id="node11" class="node">
<title>Node11</title>
<g id="a_node11"><a xlink:href="api_2spec_2std__types_8h.html" target="_top" xlink:title="Common types and definitions for ODP API files.">
<polygon fill="white" stroke="black" points="630.5,-179.5 630.5,-198.5 767.5,-198.5 767.5,-179.5 630.5,-179.5"/>
<text text-anchor="middle" x="699" y="-186.5" font-family="Helvetica,sans-Serif" font-size="10.00">odp/api/spec/std_types.h</text>
</a>
</g>
</g>
<!-- Node9&#45;&gt;Node11 -->
<g id="edge11" class="edge">
<title>Node9&#45;&gt;Node11</title>
<path fill="none" stroke="midnightblue" d="M632.69,-235.32C644.9,-226.98 663.58,-214.21 678,-204.35"/>
<polygon fill="midnightblue" stroke="midnightblue" points="680.06,-207.19 686.34,-198.65 676.11,-201.41 680.06,-207.19"/>
</g>
<!-- Node11&#45;&gt;Node5 -->
<g id="edge12" class="edge">
<title>Node11&#45;&gt;Node5</title>
<path fill="none" stroke="midnightblue" d="M656.82,-179.5C627.34,-172.44 587.72,-160.66 556,-143 504.23,-114.18 504.79,-88.11 455,-56 434.58,-42.83 409.68,-31.37 390.23,-23.3"/>
<polygon fill="midnightblue" stroke="midnightblue" points="391.46,-20.03 380.88,-19.52 388.83,-26.52 391.46,-20.03"/>
</g>
<!-- Node12 -->
<g id="node12" class="node">
<title>Node12</title>
<g id="a_node12"><a xlink:title=" ">
<polygon fill="white" stroke="#bfbfbf" points="565.5,-123.5 565.5,-142.5 618.5,-142.5 618.5,-123.5 565.5,-123.5"/>
<text text-anchor="middle" x="592" y="-130.5" font-family="Helvetica,sans-Serif" font-size="10.00">stdint.h</text>
</a>
</g>
</g>
<!-- Node11&#45;&gt;Node12 -->
<g id="edge13" class="edge">
<title>Node11&#45;&gt;Node12</title>
<path fill="none" stroke="midnightblue" d="M681.81,-179.32C664.65,-170.66 638.05,-157.24 618.25,-147.25"/>
<polygon fill="midnightblue" stroke="midnightblue" points="619.65,-144.04 609.15,-142.65 616.5,-150.28 619.65,-144.04"/>
</g>
<!-- Node13 -->
<g id="node13" class="node">
<title>Node13</title>
<g id="a_node13"><a xlink:href="api_2align_8h.html" target="_top" xlink:title="ODP alignments.">
<polygon fill="white" stroke="black" points="675.5,-123.5 675.5,-142.5 764.5,-142.5 764.5,-123.5 675.5,-123.5"/>
<text text-anchor="middle" x="720" y="-130.5" font-family="Helvetica,sans-Serif" font-size="10.00">odp/api/align.h</text>
</a>
</g>
</g>
<!-- Node11&#45;&gt;Node13 -->
<g id="edge14" class="edge">
<title>Node11&#45;&gt;Node13</title>
<path fill="none" stroke="midnightblue" d="M702.47,-179.08C705.31,-171.77 709.43,-161.18 712.96,-152.1"/>
<polygon fill="midnightblue" stroke="midnightblue" points="716.23,-153.34 716.6,-142.75 709.71,-150.8 716.23,-153.34"/>
</g>
<!-- Node11&#45;&gt;Node16 -->
<g id="edge19" class="edge">
<title>Node11&#45;&gt;Node16</title>
<path fill="none" stroke="midnightblue" d="M717.37,-179.4C733.22,-171.41 756.14,-158.44 773,-143 808.4,-110.58 804.43,-91.26 837,-56 847,-45.18 859.45,-34.33 869.65,-25.99"/>
<polygon fill="midnightblue" stroke="midnightblue" points="871.98,-28.62 877.6,-19.64 867.6,-23.15 871.98,-28.62"/>
</g>
<!-- Node14 -->
<g id="node14" class="node">
<title>Node14</title>
<g id="a_node14"><a xlink:title=" ">
<polygon fill="white" stroke="#bfbfbf" points="545.5,-62 545.5,-81 652.5,-81 652.5,-62 545.5,-62"/>
<text text-anchor="middle" x="599" y="-69" font-family="Helvetica,sans-Serif" font-size="10.00">odp/api/abi/align.h</text>
</a>
</g>
</g>
<!-- Node13&#45;&gt;Node14 -->
<g id="edge15" class="edge">
<title>Node13&#45;&gt;Node14</title>
<path fill="none" stroke="midnightblue" d="M702.66,-123.48C682.45,-113.53 648.81,-96.99 625.36,-85.46"/>
<polygon fill="midnightblue" stroke="midnightblue" points="626.82,-82.28 616.3,-81.01 623.73,-88.56 626.82,-82.28"/>
</g>
<!-- Node15 -->
<g id="node15" class="node">
<title>Node15</title>
<g id="a_node15"><a xlink:href="api_2spec_2align_8h.html" target="_top" xlink:title="ODP alignments.">
<polygon fill="white" stroke="black" points="671,-62 671,-81 785,-81 785,-62 671,-62"/>
<text text-anchor="middle" x="728" y="-69" font-family="Helvetica,sans-Serif" font-size="10.00">odp/api/spec/align.h</text>
</a>
</g>
</g>
<!-- Node13&#45;&gt;Node15 -->
<g id="edge16" class="edge">
<title>Node13&#45;&gt;Node15</title>
<path fill="none" stroke="midnightblue" d="M721.15,-123.48C722.27,-115.08 724.04,-101.98 725.49,-91.16"/>
<polygon fill="midnightblue" stroke="midnightblue" points="728.99,-91.39 726.86,-81.01 722.05,-90.45 728.99,-91.39"/>
</g>
<!-- Node15&#45;&gt;Node5 -->
<g id="edge17" class="edge">
<title>Node15&#45;&gt;Node5</title>
<path fill="none" stroke="midnightblue" d="M690.52,-61.94C680.93,-59.87 670.6,-57.75 661,-56 581.7,-41.55 490.1,-28.43 428.55,-20.14"/>
<polygon fill="midnightblue" stroke="midnightblue" points="428.93,-16.66 418.56,-18.8 428,-23.6 428.93,-16.66"/>
</g>
<!-- Node15&#45;&gt;Node16 -->
<g id="edge18" class="edge">
<title>Node15&#45;&gt;Node16</title>
<path fill="none" stroke="midnightblue" d="M751.07,-61.98C778.68,-51.77 825.12,-34.61 856.4,-23.05"/>
<polygon fill="midnightblue" stroke="midnightblue" points="857.81,-26.26 865.98,-19.51 855.38,-19.69 857.81,-26.26"/>
</g>
<!-- Node18 -->
<g id="node18" class="node">
<title>Node18</title>
<g id="a_node18"><a xlink:title=" ">
<polygon fill="white" stroke="#bfbfbf" points="752.5,-554 752.5,-573 897.5,-573 897.5,-554 752.5,-554"/>
<text text-anchor="middle" x="825" y="-561" font-family="Helvetica,sans-Serif" font-size="10.00">odp/api/abi/queue_types.h</text>
</a>
</g>
</g>
<!-- Node17&#45;&gt;Node18 -->
<g id="edge22" class="edge">
<title>Node17&#45;&gt;Node18</title>
<path fill="none" stroke="midnightblue" d="M825,-615.48C825,-607.08 825,-593.98 825,-583.16"/>
<polygon fill="midnightblue" stroke="midnightblue" points="828.5,-583.01 825,-573.01 821.5,-583.01 828.5,-583.01"/>
</g>
<!-- Node19 -->
<g id="node19" class="node">
<title>Node19</title>
<g id="a_node19"><a xlink:href="api_2spec_2queue__types_8h.html" target="_top" xlink:title="ODP queue types.">
<polygon fill="white" stroke="black" points="544.5,-548.5 544.5,-578.5 655.5,-578.5 655.5,-548.5 544.5,-548.5"/>
<text text-anchor="start" x="552.5" y="-566.5" font-family="Helvetica,sans-Serif" font-size="10.00">odp/api/spec/queue</text>
<text text-anchor="middle" x="600" y="-555.5" font-family="Helvetica,sans-Serif" font-size="10.00">_types.h</text>
</a>
</g>
</g>
<!-- Node17&#45;&gt;Node19 -->
<g id="edge23" class="edge">
<title>Node17&#45;&gt;Node19</title>
<path fill="none" stroke="midnightblue" d="M792.76,-615.48C759.01,-606.55 705.16,-592.31 662.94,-581.14"/>
<polygon fill="midnightblue" stroke="midnightblue" points="663.59,-577.7 653.03,-578.52 661.8,-584.46 663.59,-577.7"/>
</g>
<!-- Node19&#45;&gt;Node5 -->
<g id="edge24" class="edge">
<title>Node19&#45;&gt;Node5</title>
<path fill="none" stroke="midnightblue" d="M544.32,-562.22C402.35,-560.03 38,-544.36 38,-441.5 38,-441.5 38,-441.5 38,-132 38,-90.82 56.21,-78.03 91,-56 122.83,-35.85 219.46,-23.29 287.27,-16.72"/>
<polygon fill="midnightblue" stroke="midnightblue" points="287.85,-20.18 297.47,-15.75 287.19,-13.21 287.85,-20.18"/>
</g>
<!-- Node19&#45;&gt;Node16 -->
<g id="edge50" class="edge">
<title>Node19&#45;&gt;Node16</title>
<path fill="none" stroke="midnightblue" d="M655.69,-556.98C803.06,-541.61 1192,-495.92 1192,-441.5 1192,-441.5 1192,-441.5 1192,-132 1192,-79.49 1033.06,-39.57 945.41,-21.55"/>
<polygon fill="midnightblue" stroke="midnightblue" points="945.84,-18.07 935.35,-19.51 944.46,-24.93 945.84,-18.07"/>
</g>
<!-- Node20 -->
<g id="node20" class="node">
<title>Node20</title>
<g id="a_node20"><a xlink:href="api_2event__vector__types_8h.html" target="_top" xlink:title="ODP event vector API type definitions.">
<polygon fill="white" stroke="black" points="403.5,-358.5 403.5,-388.5 522.5,-388.5 522.5,-358.5 403.5,-358.5"/>
<text text-anchor="start" x="411.5" y="-376.5" font-family="Helvetica,sans-Serif" font-size="10.00">odp/api/event_vector</text>
<text text-anchor="middle" x="463" y="-365.5" font-family="Helvetica,sans-Serif" font-size="10.00">_types.h</text>
</a>
</g>
</g>
<!-- Node19&#45;&gt;Node20 -->
<g id="edge25" class="edge">
<title>Node19&#45;&gt;Node20</title>
<path fill="none" stroke="midnightblue" d="M572.51,-548.5C556.39,-539.46 536.26,-526.66 521,-512 499.13,-490.98 494.33,-483.71 482,-456 473.81,-437.6 468.92,-415.23 466.16,-398.58"/>
<polygon fill="midnightblue" stroke="midnightblue" points="469.6,-397.93 464.63,-388.57 462.68,-398.98 469.6,-397.93"/>
</g>
<!-- Node27 -->
<g id="node27" class="node">
<title>Node27</title>
<g id="a_node27"><a xlink:href="api_2schedule__types_8h.html" target="_top" xlink:title="ODP schedule.">
<polygon fill="white" stroke="black" points="530,-492.5 530,-511.5 670,-511.5 670,-492.5 530,-492.5"/>
<text text-anchor="middle" x="600" y="-499.5" font-family="Helvetica,sans-Serif" font-size="10.00">odp/api/schedule_types.h</text>
</a>
</g>
</g>
<!-- Node19&#45;&gt;Node27 -->
<g id="edge37" class="edge">
<title>Node19&#45;&gt;Node27</title>
<path fill="none" stroke="midnightblue" d="M600,-548.4C600,-540.47 600,-530.46 600,-521.86"/>
<polygon fill="midnightblue" stroke="midnightblue" points="603.5,-521.66 600,-511.66 596.5,-521.66 603.5,-521.66"/>
</g>
<!-- Node21 -->
<g id="node21" class="node">
<title>Node21</title>
<g id="a_node21"><a xlink:title=" ">
<polygon fill="white" stroke="#bfbfbf" points="105.5,-291.5 105.5,-321.5 242.5,-321.5 242.5,-291.5 105.5,-291.5"/>
<text text-anchor="start" x="113.5" y="-309.5" font-family="Helvetica,sans-Serif" font-size="10.00">odp/api/abi/event_vector</text>
<text text-anchor="middle" x="174" y="-298.5" font-family="Helvetica,sans-Serif" font-size="10.00">_types.h</text>
</a>
</g>
</g>
<!-- Node20&#45;&gt;Node21 -->
<g id="edge26" class="edge">
<title>Node20&#45;&gt;Node21</title>
<path fill="none" stroke="midnightblue" d="M403.47,-359.11C357.87,-348.85 294.75,-334.66 246.26,-323.75"/>
<polygon fill="midnightblue" stroke="midnightblue" points="246.98,-320.33 236.45,-321.55 245.44,-327.16 246.98,-320.33"/>
</g>
<!-- Node22 -->
<g id="node22" class="node">
<title>Node22</title>
<g id="a_node22"><a xlink:title=" ">
<polygon fill="white" stroke="#bfbfbf" points="261,-297 261,-316 397,-316 397,-297 261,-297"/>
<text text-anchor="middle" x="329" y="-304" font-family="Helvetica,sans-Serif" font-size="10.00">odp/api/abi/pool_types.h</text>
</a>
</g>
</g>
<!-- Node20&#45;&gt;Node22 -->
<g id="edge27" class="edge">
<title>Node20&#45;&gt;Node22</title>
<path fill="none" stroke="midnightblue" d="M433.92,-358.4C410.62,-347.09 378.19,-331.36 355.57,-320.39"/>
<polygon fill="midnightblue" stroke="midnightblue" points="357.06,-317.22 346.54,-316.01 354.01,-323.52 357.06,-317.22"/>
</g>
<!-- Node23 -->
<g id="node23" class="node">
<title>Node23</title>
<g id="a_node23"><a xlink:href="api_2spec_2event__vector__types_8h.html" target="_top" xlink:title="ODP event vector API type definitions.">
<polygon fill="white" stroke="black" points="415.5,-291.5 415.5,-321.5 524.5,-321.5 524.5,-291.5 415.5,-291.5"/>
<text text-anchor="start" x="423.5" y="-309.5" font-family="Helvetica,sans-Serif" font-size="10.00">odp/api/spec/event</text>
<text text-anchor="middle" x="470" y="-298.5" font-family="Helvetica,sans-Serif" font-size="10.00">_vector_types.h</text>
</a>
</g>
</g>
<!-- Node20&#45;&gt;Node23 -->
<g id="edge28" class="edge">
<title>Node20&#45;&gt;Node23</title>
<path fill="none" stroke="midnightblue" d="M464.52,-358.4C465.36,-350.56 466.44,-340.6 467.41,-331.57"/>
<polygon fill="midnightblue" stroke="midnightblue" points="470.89,-331.89 468.48,-321.58 463.93,-331.14 470.89,-331.89"/>
</g>
<!-- Node23&#45;&gt;Node5 -->
<g id="edge29" class="edge">
<title>Node23&#45;&gt;Node5</title>
<path fill="none" stroke="midnightblue" d="M415.16,-291.76C329.86,-267.1 168.14,-206.37 100,-87 93.17,-75.03 91.13,-66.55 100,-56 123.52,-28.03 219.23,-17.44 287.19,-13.44"/>
<polygon fill="midnightblue" stroke="midnightblue" points="287.64,-16.92 297.43,-12.87 287.25,-9.93 287.64,-16.92"/>
</g>
<!-- Node23&#45;&gt;Node9 -->
<g id="edge35" class="edge">
<title>Node23&#45;&gt;Node9</title>
<path fill="none" stroke="midnightblue" d="M505.55,-291.4C530.83,-281.37 564.47,-268.03 588.73,-258.4"/>
<polygon fill="midnightblue" stroke="midnightblue" points="590.17,-261.6 598.17,-254.66 587.59,-255.09 590.17,-261.6"/>
</g>
<!-- Node23&#45;&gt;Node16 -->
<g id="edge36" class="edge">
<title>Node23&#45;&gt;Node16</title>
<path fill="none" stroke="midnightblue" d="M482.56,-291.26C497.91,-274.84 525.51,-248.42 555,-235 645.58,-193.79 693.62,-254.82 776,-199 838.26,-156.81 871.71,-67.82 883.75,-29.35"/>
<polygon fill="midnightblue" stroke="midnightblue" points="887.17,-30.12 886.69,-19.53 880.47,-28.11 887.17,-30.12"/>
</g>
<!-- Node24 -->
<g id="node24" class="node">
<title>Node24</title>
<g id="a_node24"><a xlink:href="api_2event__types_8h.html" target="_top" xlink:title="ODP event API type definitions.">
<polygon fill="white" stroke="black" points="287.5,-123.5 287.5,-142.5 412.5,-142.5 412.5,-123.5 287.5,-123.5"/>
<text text-anchor="middle" x="350" y="-130.5" font-family="Helvetica,sans-Serif" font-size="10.00">odp/api/event_types.h</text>
</a>
</g>
</g>
<!-- Node23&#45;&gt;Node24 -->
<g id="edge30" class="edge">
<title>Node23&#45;&gt;Node24</title>
<path fill="none" stroke="midnightblue" d="M460.18,-291.47C438.28,-260.17 385.52,-184.76 361.85,-150.93"/>
<polygon fill="midnightblue" stroke="midnightblue" points="364.59,-148.75 355.99,-142.56 358.85,-152.76 364.59,-148.75"/>
</g>
<!-- Node25 -->
<g id="node25" class="node">
<title>Node25</title>
<g id="a_node25"><a xlink:title=" ">
<polygon fill="white" stroke="#bfbfbf" points="142.5,-62 142.5,-81 285.5,-81 285.5,-62 142.5,-62"/>
<text text-anchor="middle" x="214" y="-69" font-family="Helvetica,sans-Serif" font-size="10.00">odp/api/abi/event_types.h</text>
</a>
</g>
</g>
<!-- Node24&#45;&gt;Node25 -->
<g id="edge31" class="edge">
<title>Node24&#45;&gt;Node25</title>
<path fill="none" stroke="midnightblue" d="M330.51,-123.48C307.59,-113.45 269.31,-96.7 242.92,-85.15"/>
<polygon fill="midnightblue" stroke="midnightblue" points="244.01,-81.81 233.45,-81.01 241.21,-88.22 244.01,-81.81"/>
</g>
<!-- Node26 -->
<g id="node26" class="node">
<title>Node26</title>
<g id="a_node26"><a xlink:href="api_2spec_2event__types_8h.html" target="_top" xlink:title="ODP event API type definitions.">
<polygon fill="white" stroke="black" points="303.5,-56.5 303.5,-86.5 412.5,-86.5 412.5,-56.5 303.5,-56.5"/>
<text text-anchor="start" x="311.5" y="-74.5" font-family="Helvetica,sans-Serif" font-size="10.00">odp/api/spec/event</text>
<text text-anchor="middle" x="358" y="-63.5" font-family="Helvetica,sans-Serif" font-size="10.00">_types.h</text>
</a>
</g>
</g>
<!-- Node24&#45;&gt;Node26 -->
<g id="edge32" class="edge">
<title>Node24&#45;&gt;Node26</title>
<path fill="none" stroke="midnightblue" d="M351.15,-123.48C352.09,-116.47 353.47,-106.19 354.75,-96.7"/>
<polygon fill="midnightblue" stroke="midnightblue" points="358.25,-96.9 356.11,-86.52 351.31,-95.97 358.25,-96.9"/>
</g>
<!-- Node26&#45;&gt;Node5 -->
<g id="edge33" class="edge">
<title>Node26&#45;&gt;Node5</title>
<path fill="none" stroke="midnightblue" d="M358,-56.4C358,-48.47 358,-38.46 358,-29.86"/>
<polygon fill="midnightblue" stroke="midnightblue" points="361.5,-29.66 358,-19.66 354.5,-29.66 361.5,-29.66"/>
</g>
<!-- Node26&#45;&gt;Node16 -->
<g id="edge34" class="edge">
<title>Node26&#45;&gt;Node16</title>
<path fill="none" stroke="midnightblue" d="M412.83,-64.36C511.04,-53.35 716.61,-30.32 822.62,-18.44"/>
<polygon fill="midnightblue" stroke="midnightblue" points="823.33,-21.88 832.88,-17.29 822.55,-14.92 823.33,-21.88"/>
</g>
<!-- Node28 -->
<g id="node28" class="node">
<title>Node28</title>
<g id="a_node28"><a xlink:title=" ">
<polygon fill="white" stroke="#bfbfbf" points="634.5,-425.5 634.5,-455.5 751.5,-455.5 751.5,-425.5 634.5,-425.5"/>
<text text-anchor="start" x="642.5" y="-443.5" font-family="Helvetica,sans-Serif" font-size="10.00">odp/api/abi/schedule</text>
<text text-anchor="middle" x="693" y="-432.5" font-family="Helvetica,sans-Serif" font-size="10.00">_types.h</text>
</a>
</g>
</g>
<!-- Node27&#45;&gt;Node28 -->
<g id="edge38" class="edge">
<title>Node27&#45;&gt;Node28</title>
<path fill="none" stroke="midnightblue" d="M613.32,-492.48C626.04,-484.34 645.65,-471.79 662.24,-461.18"/>
<polygon fill="midnightblue" stroke="midnightblue" points="664.54,-463.86 671.08,-455.52 660.77,-457.96 664.54,-463.86"/>
</g>
<!-- Node29 -->
<g id="node29" class="node">
<title>Node29</title>
<g id="a_node29"><a xlink:href="api_2spec_2schedule__types_8h.html" target="_top" xlink:title="ODP schedule types.">
<polygon fill="white" stroke="black" points="491.5,-425.5 491.5,-455.5 616.5,-455.5 616.5,-425.5 491.5,-425.5"/>
<text text-anchor="start" x="499.5" y="-443.5" font-family="Helvetica,sans-Serif" font-size="10.00">odp/api/spec/schedule</text>
<text text-anchor="middle" x="554" y="-432.5" font-family="Helvetica,sans-Serif" font-size="10.00">_types.h</text>
</a>
</g>
</g>
<!-- Node27&#45;&gt;Node29 -->
<g id="edge39" class="edge">
<title>Node27&#45;&gt;Node29</title>
<path fill="none" stroke="midnightblue" d="M593.41,-492.48C587.59,-484.94 578.84,-473.63 571.06,-463.57"/>
<polygon fill="midnightblue" stroke="midnightblue" points="573.73,-461.29 564.84,-455.52 568.19,-465.58 573.73,-461.29"/>
</g>
<!-- Node29&#45;&gt;Node5 -->
<g id="edge40" class="edge">
<title>Node29&#45;&gt;Node5</title>
<path fill="none" stroke="midnightblue" d="M491.49,-432.82C377.78,-419.23 144.31,-384.26 96,-322 84.05,-306.59 54.14,-138.18 133,-56 153.98,-34.14 229.47,-22.37 287.28,-16.42"/>
<polygon fill="midnightblue" stroke="midnightblue" points="287.88,-19.87 297.49,-15.41 287.19,-12.91 287.88,-19.87"/>
</g>
<!-- Node29&#45;&gt;Node9 -->
<g id="edge42" class="edge">
<title>Node29&#45;&gt;Node9</title>
<path fill="none" stroke="midnightblue" d="M552.65,-425.5C550.63,-398.05 549.22,-335.94 572,-291 578.07,-279.02 588.69,-268.56 598.4,-260.74"/>
<polygon fill="midnightblue" stroke="midnightblue" points="600.68,-263.4 606.56,-254.58 596.47,-257.81 600.68,-263.4"/>
</g>
<!-- Node29&#45;&gt;Node16 -->
<g id="edge49" class="edge">
<title>Node29&#45;&gt;Node16</title>
<path fill="none" stroke="midnightblue" d="M610.65,-425.44C690.63,-404.4 830.45,-362.8 862,-322 926.68,-238.36 890.75,-192.41 899,-87 900.07,-73.26 900.5,-69.7 899,-56 898.03,-47.14 896.01,-37.47 894.04,-29.38"/>
<polygon fill="midnightblue" stroke="midnightblue" points="897.38,-28.33 891.48,-19.53 890.61,-30.09 897.38,-28.33"/>
</g>
<!-- Node29&#45;&gt;Node20 -->
<g id="edge41" class="edge">
<title>Node29&#45;&gt;Node20</title>
<path fill="none" stroke="midnightblue" d="M534.25,-425.4C521.61,-416.37 505.02,-404.51 491.03,-394.52"/>
<polygon fill="midnightblue" stroke="midnightblue" points="492.88,-391.54 482.71,-388.58 488.81,-397.24 492.88,-391.54"/>
</g>
<!-- Node30 -->
<g id="node30" class="node">
<title>Node30</title>
<g id="a_node30"><a xlink:href="api_2thrmask_8h.html" target="_top" xlink:title="ODP thread masks.">
<polygon fill="white" stroke="black" points="594.5,-364 594.5,-383 699.5,-383 699.5,-364 594.5,-364"/>
<text text-anchor="middle" x="647" y="-371" font-family="Helvetica,sans-Serif" font-size="10.00">odp/api/thrmask.h</text>
</a>
</g>
</g>
<!-- Node29&#45;&gt;Node30 -->
<g id="edge43" class="edge">
<title>Node29&#45;&gt;Node30</title>
<path fill="none" stroke="midnightblue" d="M574.18,-425.4C589.63,-414.6 610.86,-399.76 626.42,-388.89"/>
<polygon fill="midnightblue" stroke="midnightblue" points="628.64,-391.6 634.83,-383.01 624.63,-385.87 628.64,-391.6"/>
</g>
<!-- Node31 -->
<g id="node31" class="node">
<title>Node31</title>
<g id="a_node31"><a xlink:title=" ">
<polygon fill="white" stroke="#bfbfbf" points="730.5,-297 730.5,-316 853.5,-316 853.5,-297 730.5,-297"/>
<text text-anchor="middle" x="792" y="-304" font-family="Helvetica,sans-Serif" font-size="10.00">odp/api/abi/thrmask.h</text>
</a>
</g>
</g>
<!-- Node30&#45;&gt;Node31 -->
<g id="edge44" class="edge">
<title>Node30&#45;&gt;Node31</title>
<path fill="none" stroke="midnightblue" d="M666.25,-363.87C691.17,-352.7 734.79,-333.15 763.53,-320.26"/>
<polygon fill="midnightblue" stroke="midnightblue" points="764.97,-323.45 772.67,-316.17 762.11,-317.06 764.97,-323.45"/>
</g>
<!-- Node32 -->
<g id="node32" class="node">
<title>Node32</title>
<g id="a_node32"><a xlink:href="api_2spec_2thrmask_8h.html" target="_top" xlink:title="ODP thread masks.">
<polygon fill="white" stroke="black" points="581.5,-297 581.5,-316 712.5,-316 712.5,-297 581.5,-297"/>
<text text-anchor="middle" x="647" y="-304" font-family="Helvetica,sans-Serif" font-size="10.00">odp/api/spec/thrmask.h</text>
</a>
</g>
</g>
<!-- Node30&#45;&gt;Node32 -->
<g id="edge45" class="edge">
<title>Node30&#45;&gt;Node32</title>
<path fill="none" stroke="midnightblue" d="M647,-363.73C647,-354.18 647,-338.62 647,-326.28"/>
<polygon fill="midnightblue" stroke="midnightblue" points="650.5,-326.13 647,-316.13 643.5,-326.13 650.5,-326.13"/>
</g>
<!-- Node32&#45;&gt;Node5 -->
<g id="edge46" class="edge">
<title>Node32&#45;&gt;Node5</title>
<path fill="none" stroke="midnightblue" d="M622.32,-296.95C584.58,-282.62 512.75,-250.19 473,-199 431.53,-145.58 461.91,-109.85 421,-56 411.25,-43.17 396.81,-32.48 384.22,-24.75"/>
<polygon fill="midnightblue" stroke="midnightblue" points="385.87,-21.66 375.47,-19.65 382.35,-27.71 385.87,-21.66"/>
</g>
<!-- Node32&#45;&gt;Node9 -->
<g id="edge47" class="edge">
<title>Node32&#45;&gt;Node9</title>
<path fill="none" stroke="midnightblue" d="M643.13,-296.98C639.2,-288.32 633,-274.65 628.01,-263.65"/>
<polygon fill="midnightblue" stroke="midnightblue" points="631.18,-262.17 623.86,-254.51 624.81,-265.06 631.18,-262.17"/>
</g>
<!-- Node32&#45;&gt;Node16 -->
<g id="edge48" class="edge">
<title>Node32&#45;&gt;Node16</title>
<path fill="none" stroke="midnightblue" d="M669.96,-296.93C717.29,-277.84 824.61,-226.76 865,-143 883.07,-105.53 887.61,-56.11 888.7,-29.64"/>
<polygon fill="midnightblue" stroke="midnightblue" points="892.2,-29.6 888.99,-19.51 885.21,-29.4 892.2,-29.6"/>
</g>
</g>
</svg>
