<?xml version="1.0" encoding="UTF-8" standalone="no"?>
<!DOCTYPE svg PUBLIC "-//W3C//DTD SVG 1.1//EN"
 "http://www.w3.org/Graphics/SVG/1.1/DTD/svg11.dtd">
<!-- Generated by graphviz version 2.40.1 (20161225.0304)
 -->
<!-- Title: packet.h Pages: 1 -->
<svg width="1049pt" height="621pt"
 viewBox="0.00 0.00 1049.00 621.00" xmlns="http://www.w3.org/2000/svg" xmlns:xlink="http://www.w3.org/1999/xlink">
<g id="graph0" class="graph" transform="scale(1 1) rotate(0) translate(4 617)">
<title>packet.h</title>
<polygon fill="#ffffff" stroke="transparent" points="-4,4 -4,-617 1045,-617 1045,4 -4,4"/>
<!-- Node0 -->
<g id="node1" class="node">
<title>Node0</title>
<polygon fill="#bfbfbf" stroke="#000000" points="360.5,-593.5 360.5,-612.5 419.5,-612.5 419.5,-593.5 360.5,-593.5"/>
<text text-anchor="middle" x="390" y="-600.5" font-family="Helvetica,sans-Serif" font-size="10.00" fill="#000000">packet.h</text>
</g>
<!-- Node1 -->
<g id="node2" class="node">
<title>Node1</title>
<g id="a_node2"><a xlink:href="api_2std__types_8h.html" target="_top" xlink:title="Standard C language types and definitions for ODP. ">
<polygon fill="#ffffff" stroke="#000000" points="60,-235.5 60,-254.5 172,-254.5 172,-235.5 60,-235.5"/>
<text text-anchor="middle" x="116" y="-242.5" font-family="Helvetica,sans-Serif" font-size="10.00" fill="#000000">odp/api/std_types.h</text>
</a>
</g>
</g>
<!-- Node0&#45;&gt;Node1 -->
<g id="edge1" class="edge">
<title>Node0&#45;&gt;Node1</title>
<path fill="none" stroke="#191970" d="M360.2888,-600.5958C296.2974,-595.0413 147.6289,-580.0067 103,-557 66.4058,-538.1353 38,-532.1705 38,-491 38,-491 38,-491 38,-368 38,-324.1191 73.8434,-283.2085 96.9346,-261.4058"/>
<polygon fill="#191970" stroke="#191970" points="99.4588,-263.8408 104.4908,-254.5172 94.7428,-258.6678 99.4588,-263.8408"/>
</g>
<!-- Node10 -->
<g id="node11" class="node">
<title>Node10</title>
<polygon fill="#ffffff" stroke="#bfbfbf" points="266,-537.5 266,-556.5 376,-556.5 376,-537.5 266,-537.5"/>
<text text-anchor="middle" x="321" y="-544.5" font-family="Helvetica,sans-Serif" font-size="10.00" fill="#000000">odp/api/abi/event.h</text>
</g>
<!-- Node0&#45;&gt;Node10 -->
<g id="edge12" class="edge">
<title>Node0&#45;&gt;Node10</title>
<path fill="none" stroke="#191970" d="M377.9811,-593.2455C367.7902,-584.9746 352.9638,-572.9416 340.9893,-563.2232"/>
<polygon fill="#191970" stroke="#191970" points="342.8514,-560.2268 332.8812,-556.6427 338.4402,-565.662 342.8514,-560.2268"/>
</g>
<!-- Node11 -->
<g id="node12" class="node">
<title>Node11</title>
<polygon fill="#ffffff" stroke="#bfbfbf" points="394,-537.5 394,-556.5 524,-556.5 524,-537.5 394,-537.5"/>
<text text-anchor="middle" x="459" y="-544.5" font-family="Helvetica,sans-Serif" font-size="10.00" fill="#000000">odp/api/abi/packet_io.h</text>
</g>
<!-- Node0&#45;&gt;Node11 -->
<g id="edge13" class="edge">
<title>Node0&#45;&gt;Node11</title>
<path fill="none" stroke="#191970" d="M402.0189,-593.2455C412.2098,-584.9746 427.0362,-572.9416 439.0107,-563.2232"/>
<polygon fill="#191970" stroke="#191970" points="441.5598,-565.662 447.1188,-556.6427 437.1486,-560.2268 441.5598,-565.662"/>
</g>
<!-- Node12 -->
<g id="node13" class="node">
<title>Node12</title>
<polygon fill="#ffffff" stroke="#bfbfbf" points="129.5,-414.5 129.5,-444.5 236.5,-444.5 236.5,-414.5 129.5,-414.5"/>
<text text-anchor="start" x="137.5" y="-432.5" font-family="Helvetica,sans-Serif" font-size="10.00" fill="#000000">odp/api/abi/packet</text>
<text text-anchor="middle" x="183" y="-421.5" font-family="Helvetica,sans-Serif" font-size="10.00" fill="#000000">_types.h</text>
</g>
<!-- Node0&#45;&gt;Node12 -->
<g id="edge14" class="edge">
<title>Node0&#45;&gt;Node12</title>
<path fill="none" stroke="#191970" d="M360.3107,-600.1887C292.483,-593.4672 130.7757,-575.6338 115,-557 87.323,-524.3088 126.814,-478.5083 156.1878,-451.6276"/>
<polygon fill="#191970" stroke="#191970" points="158.6126,-454.1551 163.7649,-444.8974 153.964,-448.9215 158.6126,-454.1551"/>
</g>
<!-- Node13 -->
<g id="node14" class="node">
<title>Node13</title>
<polygon fill="#ffffff" stroke="#bfbfbf" points="542,-537.5 542,-556.5 658,-556.5 658,-537.5 542,-537.5"/>
<text text-anchor="middle" x="600" y="-544.5" font-family="Helvetica,sans-Serif" font-size="10.00" fill="#000000">odp/api/abi/packet.h</text>
</g>
<!-- Node0&#45;&gt;Node13 -->
<g id="edge15" class="edge">
<title>Node0&#45;&gt;Node13</title>
<path fill="none" stroke="#191970" d="M419.6425,-595.0953C454.737,-585.7368 513.5696,-570.0481 554.4582,-559.1445"/>
<polygon fill="#191970" stroke="#191970" points="555.4225,-562.5097 564.183,-556.5512 553.6188,-555.7461 555.4225,-562.5097"/>
</g>
<!-- Node14 -->
<g id="node15" class="node">
<title>Node14</title>
<polygon fill="#ffffff" stroke="#bfbfbf" points="676,-537.5 676,-556.5 786,-556.5 786,-537.5 676,-537.5"/>
<text text-anchor="middle" x="731" y="-544.5" font-family="Helvetica,sans-Serif" font-size="10.00" fill="#000000">odp/api/abi/buffer.h</text>
</g>
<!-- Node0&#45;&gt;Node14 -->
<g id="edge16" class="edge">
<title>Node0&#45;&gt;Node14</title>
<path fill="none" stroke="#191970" d="M419.665,-598.1283C474.2173,-589.1696 591.6401,-569.8861 665.6657,-557.7294"/>
<polygon fill="#191970" stroke="#191970" points="666.5114,-561.1375 675.812,-556.0631 665.3769,-554.23 666.5114,-561.1375"/>
</g>
<!-- Node15 -->
<g id="node16" class="node">
<title>Node15</title>
<polygon fill="#ffffff" stroke="#bfbfbf" points="804,-537.5 804,-556.5 908,-556.5 908,-537.5 804,-537.5"/>
<text text-anchor="middle" x="856" y="-544.5" font-family="Helvetica,sans-Serif" font-size="10.00" fill="#000000">odp/api/abi/pool.h</text>
</g>
<!-- Node0&#45;&gt;Node15 -->
<g id="edge17" class="edge">
<title>Node0&#45;&gt;Node15</title>
<path fill="none" stroke="#191970" d="M419.5363,-600.1502C484.972,-593.7287 647.3015,-577.2047 793.7163,-557.1241"/>
<polygon fill="#191970" stroke="#191970" points="794.355,-560.5692 803.7823,-555.7343 793.3975,-553.635 794.355,-560.5692"/>
</g>
<!-- Node16 -->
<g id="node17" class="node">
<title>Node16</title>
<g id="a_node17"><a xlink:href="api_2spec_2packet_8h.html" target="_top" xlink:title="ODP packet descriptor. ">
<polygon fill="#ffffff" stroke="#000000" points="124.5,-537.5 124.5,-556.5 247.5,-556.5 247.5,-537.5 124.5,-537.5"/>
<text text-anchor="middle" x="186" y="-544.5" font-family="Helvetica,sans-Serif" font-size="10.00" fill="#000000">odp/api/spec/packet.h</text>
</a>
</g>
</g>
<!-- Node0&#45;&gt;Node16 -->
<g id="edge18" class="edge">
<title>Node0&#45;&gt;Node16</title>
<path fill="none" stroke="#191970" d="M360.3366,-594.8571C326.2817,-585.5087 270.0625,-570.076 230.6981,-559.2701"/>
<polygon fill="#191970" stroke="#191970" points="231.3969,-555.8325 220.8271,-556.5604 229.5438,-562.5828 231.3969,-555.8325"/>
</g>
<!-- Node2 -->
<g id="node3" class="node">
<title>Node2</title>
<polygon fill="#ffffff" stroke="#bfbfbf" points="184,-174 184,-193 314,-193 314,-174 184,-174"/>
<text text-anchor="middle" x="249" y="-181" font-family="Helvetica,sans-Serif" font-size="10.00" fill="#000000">odp/api/abi/std_types.h</text>
</g>
<!-- Node1&#45;&gt;Node2 -->
<g id="edge2" class="edge">
<title>Node1&#45;&gt;Node2</title>
<path fill="none" stroke="#191970" d="M136.7813,-235.3906C158.8394,-225.1908 193.905,-208.9763 218.9669,-197.3875"/>
<polygon fill="#191970" stroke="#191970" points="220.7571,-200.4158 228.3647,-193.0419 217.8191,-194.0622 220.7571,-200.4158"/>
</g>
<!-- Node3 -->
<g id="node4" class="node">
<title>Node3</title>
<g id="a_node4"><a xlink:href="api_2spec_2std__types_8h.html" target="_top" xlink:title="Standard C language types and definitions for ODP. ">
<polygon fill="#ffffff" stroke="#000000" points="28.5,-174 28.5,-193 165.5,-193 165.5,-174 28.5,-174"/>
<text text-anchor="middle" x="97" y="-181" font-family="Helvetica,sans-Serif" font-size="10.00" fill="#000000">odp/api/spec/std_types.h</text>
</a>
</g>
</g>
<!-- Node1&#45;&gt;Node3 -->
<g id="edge3" class="edge">
<title>Node1&#45;&gt;Node3</title>
<path fill="none" stroke="#191970" d="M113.0313,-235.3906C110.3698,-226.776 106.3829,-213.8708 103.0509,-203.0858"/>
<polygon fill="#191970" stroke="#191970" points="106.3065,-201.7661 100.0106,-193.2449 99.6184,-203.8324 106.3065,-201.7661"/>
</g>
<!-- Node4 -->
<g id="node5" class="node">
<title>Node4</title>
<g id="a_node5"><a xlink:href="visibility__begin_8h_source.html" target="_top" xlink:title="odp/visibility_begin.h">
<polygon fill="#ffffff" stroke="#000000" points="765.5,-.5 765.5,-19.5 886.5,-19.5 886.5,-.5 765.5,-.5"/>
<text text-anchor="middle" x="826" y="-7.5" font-family="Helvetica,sans-Serif" font-size="10.00" fill="#000000">odp/visibility_begin.h</text>
</a>
</g>
</g>
<!-- Node3&#45;&gt;Node4 -->
<g id="edge4" class="edge">
<title>Node3&#45;&gt;Node4</title>
<path fill="none" stroke="#191970" d="M132.2309,-173.956C214.0617,-151.923 423.4678,-96.3154 600,-56 655.888,-43.2366 719.9513,-30.3617 765.5651,-21.4921"/>
<polygon fill="#191970" stroke="#191970" points="766.4348,-24.8888 775.5863,-19.5502 765.103,-18.0166 766.4348,-24.8888"/>
</g>
<!-- Node5 -->
<g id="node6" class="node">
<title>Node5</title>
<polygon fill="#ffffff" stroke="#bfbfbf" points="68.5,-112.5 68.5,-131.5 121.5,-131.5 121.5,-112.5 68.5,-112.5"/>
<text text-anchor="middle" x="95" y="-119.5" font-family="Helvetica,sans-Serif" font-size="10.00" fill="#000000">stdint.h</text>
</g>
<!-- Node3&#45;&gt;Node5 -->
<g id="edge5" class="edge">
<title>Node3&#45;&gt;Node5</title>
<path fill="none" stroke="#191970" d="M96.6875,-173.8906C96.4103,-165.3657 95.9964,-152.6392 95.6479,-141.9235"/>
<polygon fill="#191970" stroke="#191970" points="99.1402,-141.6258 95.3169,-131.7449 92.1439,-141.8534 99.1402,-141.6258"/>
</g>
<!-- Node6 -->
<g id="node7" class="node">
<title>Node6</title>
<g id="a_node7"><a xlink:href="api_2align_8h.html" target="_top" xlink:title="ODP alignments. ">
<polygon fill="#ffffff" stroke="#000000" points="139.5,-112.5 139.5,-131.5 228.5,-131.5 228.5,-112.5 139.5,-112.5"/>
<text text-anchor="middle" x="184" y="-119.5" font-family="Helvetica,sans-Serif" font-size="10.00" fill="#000000">odp/api/align.h</text>
</a>
</g>
</g>
<!-- Node3&#45;&gt;Node6 -->
<g id="edge6" class="edge">
<title>Node3&#45;&gt;Node6</title>
<path fill="none" stroke="#191970" d="M110.5938,-173.8906C124.3843,-164.1421 145.9472,-148.8994 162.141,-137.4521"/>
<polygon fill="#191970" stroke="#191970" points="164.3563,-140.1723 170.5017,-131.5419 160.3156,-134.4563 164.3563,-140.1723"/>
</g>
<!-- Node9 -->
<g id="node10" class="node">
<title>Node9</title>
<g id="a_node10"><a xlink:href="visibility__end_8h_source.html" target="_top" xlink:title="odp/visibility_end.h">
<polygon fill="#ffffff" stroke="#000000" points="363,-.5 363,-19.5 475,-19.5 475,-.5 363,-.5"/>
<text text-anchor="middle" x="419" y="-7.5" font-family="Helvetica,sans-Serif" font-size="10.00" fill="#000000">odp/visibility_end.h</text>
</a>
</g>
</g>
<!-- Node3&#45;&gt;Node9 -->
<g id="edge11" class="edge">
<title>Node3&#45;&gt;Node9</title>
<path fill="none" stroke="#191970" d="M87.0349,-173.9468C77.7895,-164.3475 64.6353,-148.6271 59,-132 48.1568,-100.0069 35.6741,-81.3513 58,-56 77.1312,-34.2764 253.8762,-20.0816 352.7667,-13.7691"/>
<polygon fill="#191970" stroke="#191970" points="353.2019,-17.2487 362.9627,-13.1285 352.7629,-10.2625 353.2019,-17.2487"/>
</g>
<!-- Node7 -->
<g id="node8" class="node">
<title>Node7</title>
<polygon fill="#ffffff" stroke="#bfbfbf" points="66.5,-56.5 66.5,-75.5 173.5,-75.5 173.5,-56.5 66.5,-56.5"/>
<text text-anchor="middle" x="120" y="-63.5" font-family="Helvetica,sans-Serif" font-size="10.00" fill="#000000">odp/api/abi/align.h</text>
</g>
<!-- Node6&#45;&gt;Node7 -->
<g id="edge7" class="edge">
<title>Node6&#45;&gt;Node7</title>
<path fill="none" stroke="#191970" d="M172.8521,-112.2455C163.4913,-104.0549 149.9142,-92.1749 138.8651,-82.5069"/>
<polygon fill="#191970" stroke="#191970" points="140.8508,-79.5937 131.0202,-75.6427 136.2412,-84.8618 140.8508,-79.5937"/>
</g>
<!-- Node8 -->
<g id="node9" class="node">
<title>Node8</title>
<g id="a_node9"><a xlink:href="api_2spec_2align_8h.html" target="_top" xlink:title="ODP alignments. ">
<polygon fill="#ffffff" stroke="#000000" points="230,-56.5 230,-75.5 344,-75.5 344,-56.5 230,-56.5"/>
<text text-anchor="middle" x="287" y="-63.5" font-family="Helvetica,sans-Serif" font-size="10.00" fill="#000000">odp/api/spec/align.h</text>
</a>
</g>
</g>
<!-- Node6&#45;&gt;Node8 -->
<g id="edge8" class="edge">
<title>Node6&#45;&gt;Node8</title>
<path fill="none" stroke="#191970" d="M201.9412,-112.2455C218.04,-103.4928 241.8879,-90.527 260.2391,-80.5496"/>
<polygon fill="#191970" stroke="#191970" points="262.1507,-83.4942 269.2644,-75.6427 258.8071,-77.3444 262.1507,-83.4942"/>
</g>
<!-- Node8&#45;&gt;Node4 -->
<g id="edge9" class="edge">
<title>Node8&#45;&gt;Node4</title>
<path fill="none" stroke="#191970" d="M344.3559,-57.2429C347.6164,-56.8063 350.8484,-56.3885 354,-56 495.9677,-38.499 662.6334,-23.5658 755.0866,-15.7757"/>
<polygon fill="#191970" stroke="#191970" points="755.4936,-19.2539 765.1659,-14.9299 754.9083,-12.2784 755.4936,-19.2539"/>
</g>
<!-- Node8&#45;&gt;Node9 -->
<g id="edge10" class="edge">
<title>Node8&#45;&gt;Node9</title>
<path fill="none" stroke="#191970" d="M309.6916,-56.3733C331.0711,-47.3032 363.3057,-33.6279 387.2362,-23.4755"/>
<polygon fill="#191970" stroke="#191970" points="388.7656,-26.6287 396.6045,-19.5011 386.0317,-20.1846 388.7656,-26.6287"/>
</g>
<!-- Node16&#45;&gt;Node4 -->
<g id="edge19" class="edge">
<title>Node16&#45;&gt;Node4</title>
<path fill="none" stroke="#191970" d="M247.5717,-538.3139C250.7601,-537.8685 253.9176,-537.4284 257,-537 344.0891,-524.8963 1041,-517.4262 1041,-429.5 1041,-429.5 1041,-429.5 1041,-122 1041,-55.5829 959.3014,-28.4904 896.6282,-17.4783"/>
<polygon fill="#191970" stroke="#191970" points="897.1852,-14.0229 886.7483,-15.8454 896.0437,-20.9292 897.1852,-14.0229"/>
</g>
<!-- Node16&#45;&gt;Node9 -->
<g id="edge49" class="edge">
<title>Node16&#45;&gt;Node9</title>
<path fill="none" stroke="#191970" d="M172.0841,-537.2533C160.5655,-528.6784 144.314,-515.3524 133,-501 53.6238,-400.3078 0,-373.2166 0,-245 0,-245 0,-245 0,-122 0,-86.9903 13.2923,-74.5238 43,-56 93.225,-24.6829 258.7134,-14.6638 352.543,-11.475"/>
<polygon fill="#191970" stroke="#191970" points="352.9015,-14.9654 362.7834,-11.1444 352.6756,-7.969 352.9015,-14.9654"/>
</g>
<!-- Node17 -->
<g id="node18" class="node">
<title>Node17</title>
<g id="a_node18"><a xlink:href="api_2time_8h.html" target="_top" xlink:title="ODP time. ">
<polygon fill="#ffffff" stroke="#000000" points="237.5,-297 237.5,-316 324.5,-316 324.5,-297 237.5,-297"/>
<text text-anchor="middle" x="281" y="-304" font-family="Helvetica,sans-Serif" font-size="10.00" fill="#000000">odp/api/time.h</text>
</a>
</g>
</g>
<!-- Node16&#45;&gt;Node17 -->
<g id="edge20" class="edge">
<title>Node16&#45;&gt;Node17</title>
<path fill="none" stroke="#191970" d="M228.5505,-537.4528C248.076,-530.7153 269.418,-519.4765 281,-501 315.6057,-445.7945 298.0451,-363.3132 287.2967,-326.035"/>
<polygon fill="#191970" stroke="#191970" points="290.6221,-324.9398 284.3696,-316.3867 283.9236,-326.9721 290.6221,-324.9398"/>
</g>
<!-- Node20 -->
<g id="node21" class="node">
<title>Node20</title>
<g id="a_node21"><a xlink:href="api_2packet__types_8h.html" target="_top" xlink:title="ODP packet. ">
<polygon fill="#ffffff" stroke="#000000" points="142,-481.5 142,-500.5 272,-500.5 272,-481.5 142,-481.5"/>
<text text-anchor="middle" x="207" y="-488.5" font-family="Helvetica,sans-Serif" font-size="10.00" fill="#000000">odp/api/packet_types.h</text>
</a>
</g>
</g>
<!-- Node16&#45;&gt;Node20 -->
<g id="edge26" class="edge">
<title>Node16&#45;&gt;Node20</title>
<path fill="none" stroke="#191970" d="M189.6579,-537.2455C192.4584,-529.7776 196.409,-519.2427 199.8324,-510.1137"/>
<polygon fill="#191970" stroke="#191970" points="203.1499,-511.2349 203.384,-500.6427 196.5955,-508.777 203.1499,-511.2349"/>
</g>
<!-- Node17&#45;&gt;Node1 -->
<g id="edge21" class="edge">
<title>Node17&#45;&gt;Node1</title>
<path fill="none" stroke="#191970" d="M255.2188,-296.8906C227.248,-286.4652 182.4181,-269.7559 151.214,-258.1252"/>
<polygon fill="#191970" stroke="#191970" points="152.1929,-254.7549 141.6002,-254.5419 149.7481,-261.3141 152.1929,-254.7549"/>
</g>
<!-- Node18 -->
<g id="node19" class="node">
<title>Node18</title>
<polygon fill="#ffffff" stroke="#bfbfbf" points="208.5,-235.5 208.5,-254.5 313.5,-254.5 313.5,-235.5 208.5,-235.5"/>
<text text-anchor="middle" x="261" y="-242.5" font-family="Helvetica,sans-Serif" font-size="10.00" fill="#000000">odp/api/abi/time.h</text>
</g>
<!-- Node17&#45;&gt;Node18 -->
<g id="edge22" class="edge">
<title>Node17&#45;&gt;Node18</title>
<path fill="none" stroke="#191970" d="M277.875,-296.8906C275.0735,-288.276 270.8767,-275.3708 267.3694,-264.5858"/>
<polygon fill="#191970" stroke="#191970" points="270.5902,-263.1722 264.1691,-254.7449 263.9333,-265.3371 270.5902,-263.1722"/>
</g>
<!-- Node19 -->
<g id="node20" class="node">
<title>Node19</title>
<g id="a_node20"><a xlink:href="api_2spec_2time_8h.html" target="_top" xlink:title="ODP time. ">
<polygon fill="#ffffff" stroke="#000000" points="362.5,-56.5 362.5,-75.5 475.5,-75.5 475.5,-56.5 362.5,-56.5"/>
<text text-anchor="middle" x="419" y="-63.5" font-family="Helvetica,sans-Serif" font-size="10.00" fill="#000000">odp/api/spec/time.h</text>
</a>
</g>
</g>
<!-- Node17&#45;&gt;Node19 -->
<g id="edge23" class="edge">
<title>Node17&#45;&gt;Node19</title>
<path fill="none" stroke="#191970" d="M290.0404,-296.7317C299.0406,-286.7201 312.9291,-270.4705 323,-255 361.2112,-196.3014 395.6643,-120.4249 410.8293,-85.351"/>
<polygon fill="#191970" stroke="#191970" points="414.1828,-86.4107 414.8992,-75.8401 407.7472,-83.6568 414.1828,-86.4107"/>
</g>
<!-- Node19&#45;&gt;Node4 -->
<g id="edge24" class="edge">
<title>Node19&#45;&gt;Node4</title>
<path fill="none" stroke="#191970" d="M475.5916,-58.2134C548.6946,-48.155 675.9551,-30.645 755.3325,-19.7233"/>
<polygon fill="#191970" stroke="#191970" points="755.8171,-23.1897 765.2467,-18.3592 754.8629,-16.255 755.8171,-23.1897"/>
</g>
<!-- Node19&#45;&gt;Node9 -->
<g id="edge25" class="edge">
<title>Node19&#45;&gt;Node9</title>
<path fill="none" stroke="#191970" d="M419,-56.2455C419,-48.9382 419,-38.6944 419,-29.7046"/>
<polygon fill="#191970" stroke="#191970" points="422.5001,-29.6426 419,-19.6427 415.5001,-29.6427 422.5001,-29.6426"/>
</g>
<!-- Node20&#45;&gt;Node12 -->
<g id="edge27" class="edge">
<title>Node20&#45;&gt;Node12</title>
<path fill="none" stroke="#191970" d="M203.25,-481.3906C200.3929,-474.0692 196.3264,-463.6488 192.5862,-454.0647"/>
<polygon fill="#191970" stroke="#191970" points="195.7671,-452.588 188.8711,-444.5446 189.246,-455.1328 195.7671,-452.588"/>
</g>
<!-- Node21 -->
<g id="node22" class="node">
<title>Node21</title>
<g id="a_node22"><a xlink:href="api_2spec_2packet__types_8h.html" target="_top" xlink:title="ODP packet types. ">
<polygon fill="#ffffff" stroke="#000000" points="383,-414.5 383,-444.5 497,-444.5 497,-414.5 383,-414.5"/>
<text text-anchor="start" x="391" y="-432.5" font-family="Helvetica,sans-Serif" font-size="10.00" fill="#000000">odp/api/spec/packet</text>
<text text-anchor="middle" x="440" y="-421.5" font-family="Helvetica,sans-Serif" font-size="10.00" fill="#000000">_types.h</text>
</a>
</g>
</g>
<!-- Node20&#45;&gt;Node21 -->
<g id="edge28" class="edge">
<title>Node20&#45;&gt;Node21</title>
<path fill="none" stroke="#191970" d="M243.1506,-481.4581C277.7776,-472.3183 330.8695,-458.3048 373.1931,-447.1336"/>
<polygon fill="#191970" stroke="#191970" points="374.098,-450.5147 382.8736,-444.5784 372.3115,-443.7465 374.098,-450.5147"/>
</g>
<!-- Node21&#45;&gt;Node4 -->
<g id="edge29" class="edge">
<title>Node21&#45;&gt;Node4</title>
<path fill="none" stroke="#191970" d="M497.0817,-423.0297C640.2127,-406.0379 1003,-357.8999 1003,-306.5 1003,-306.5 1003,-306.5 1003,-122 1003,-65.4608 937.7111,-36.2861 886.4386,-22.0919"/>
<polygon fill="#191970" stroke="#191970" points="887.2829,-18.695 876.7211,-19.5309 885.4989,-25.4639 887.2829,-18.695"/>
</g>
<!-- Node21&#45;&gt;Node9 -->
<g id="edge48" class="edge">
<title>Node21&#45;&gt;Node9</title>
<path fill="none" stroke="#191970" d="M426.9809,-414.3536C409.3344,-392.2196 380,-349.0293 380,-306.5 380,-306.5 380,-306.5 380,-245 380,-141.8716 262.9056,-170.2304 221,-76 217.3881,-67.878 215.4713,-62.9603 221,-56 237.3594,-35.4042 301.7983,-23.1972 352.7791,-16.5927"/>
<polygon fill="#191970" stroke="#191970" points="353.2877,-20.0565 362.7776,-15.3457 352.4213,-13.1103 353.2877,-20.0565"/>
</g>
<!-- Node22 -->
<g id="node23" class="node">
<title>Node22</title>
<g id="a_node23"><a xlink:href="api_2queue__types_8h.html" target="_top" xlink:title="ODP queue. ">
<polygon fill="#ffffff" stroke="#000000" points="430.5,-358.5 430.5,-377.5 557.5,-377.5 557.5,-358.5 430.5,-358.5"/>
<text text-anchor="middle" x="494" y="-365.5" font-family="Helvetica,sans-Serif" font-size="10.00" fill="#000000">odp/api/queue_types.h</text>
</a>
</g>
</g>
<!-- Node21&#45;&gt;Node22 -->
<g id="edge30" class="edge">
<title>Node21&#45;&gt;Node22</title>
<path fill="none" stroke="#191970" d="M453.3483,-414.2977C461.0002,-405.5831 470.6373,-394.6075 478.6076,-385.5302"/>
<polygon fill="#191970" stroke="#191970" points="481.3859,-387.6707 485.3539,-377.8469 476.1258,-383.052 481.3859,-387.6707"/>
</g>
<!-- Node23 -->
<g id="node24" class="node">
<title>Node23</title>
<polygon fill="#ffffff" stroke="#bfbfbf" points="421.5,-297 421.5,-316 566.5,-316 566.5,-297 421.5,-297"/>
<text text-anchor="middle" x="494" y="-304" font-family="Helvetica,sans-Serif" font-size="10.00" fill="#000000">odp/api/abi/queue_types.h</text>
</g>
<!-- Node22&#45;&gt;Node23 -->
<g id="edge31" class="edge">
<title>Node22&#45;&gt;Node23</title>
<path fill="none" stroke="#191970" d="M494,-358.3906C494,-349.8657 494,-337.1392 494,-326.4235"/>
<polygon fill="#191970" stroke="#191970" points="497.5001,-326.2448 494,-316.2449 490.5001,-326.2449 497.5001,-326.2448"/>
</g>
<!-- Node24 -->
<g id="node25" class="node">
<title>Node24</title>
<g id="a_node25"><a xlink:href="api_2spec_2queue__types_8h.html" target="_top" xlink:title="ODP queue types. ">
<polygon fill="#ffffff" stroke="#000000" points="635.5,-291.5 635.5,-321.5 746.5,-321.5 746.5,-291.5 635.5,-291.5"/>
<text text-anchor="start" x="643.5" y="-309.5" font-family="Helvetica,sans-Serif" font-size="10.00" fill="#000000">odp/api/spec/queue</text>
<text text-anchor="middle" x="691" y="-298.5" font-family="Helvetica,sans-Serif" font-size="10.00" fill="#000000">_types.h</text>
</a>
</g>
</g>
<!-- Node22&#45;&gt;Node24 -->
<g id="edge32" class="edge">
<title>Node22&#45;&gt;Node24</title>
<path fill="none" stroke="#191970" d="M524.7813,-358.3906C553.6646,-349.3737 597.6049,-335.6563 633.0545,-324.5896"/>
<polygon fill="#191970" stroke="#191970" points="634.3057,-327.8656 642.8084,-321.5446 632.2197,-321.1837 634.3057,-327.8656"/>
</g>
<!-- Node24&#45;&gt;Node4 -->
<g id="edge33" class="edge">
<title>Node24&#45;&gt;Node4</title>
<path fill="none" stroke="#191970" d="M746.625,-300.537C808.9192,-292.8638 904.8563,-277.7508 933,-255 960.0751,-233.113 965,-218.3152 965,-183.5 965,-183.5 965,-183.5 965,-122 965,-71.0738 907.7272,-39.3787 866.7083,-23.2092"/>
<polygon fill="#191970" stroke="#191970" points="867.786,-19.875 857.1943,-19.6178 865.3138,-26.4239 867.786,-19.875"/>
</g>
<!-- Node24&#45;&gt;Node9 -->
<g id="edge47" class="edge">
<title>Node24&#45;&gt;Node9</title>
<path fill="none" stroke="#191970" d="M635.4001,-294.8135C580.2776,-279.5851 504,-247.0339 504,-183.5 504,-183.5 504,-183.5 504,-122 504,-91.4754 502.7658,-80.822 485,-56 475.7115,-43.0223 461.5658,-32.4653 448.7494,-24.7535"/>
<polygon fill="#191970" stroke="#191970" points="450.1661,-21.5334 439.7405,-19.6471 446.7142,-27.6232 450.1661,-21.5334"/>
</g>
<!-- Node25 -->
<g id="node26" class="node">
<title>Node25</title>
<g id="a_node26"><a xlink:href="api_2schedule__types_8h.html" target="_top" xlink:title="ODP schedule. ">
<polygon fill="#ffffff" stroke="#000000" points="621,-235.5 621,-254.5 761,-254.5 761,-235.5 621,-235.5"/>
<text text-anchor="middle" x="691" y="-242.5" font-family="Helvetica,sans-Serif" font-size="10.00" fill="#000000">odp/api/schedule_types.h</text>
</a>
</g>
</g>
<!-- Node24&#45;&gt;Node25 -->
<g id="edge34" class="edge">
<title>Node24&#45;&gt;Node25</title>
<path fill="none" stroke="#191970" d="M691,-291.2977C691,-283.3834 691,-273.6043 691,-265.0759"/>
<polygon fill="#191970" stroke="#191970" points="694.5001,-264.8469 691,-254.8469 687.5001,-264.847 694.5001,-264.8469"/>
</g>
<!-- Node30 -->
<g id="node31" class="node">
<title>Node30</title>
<g id="a_node31"><a xlink:href="deprecated_8h.html" target="_top" xlink:title="Control deprecated API definitions. ">
<polygon fill="#ffffff" stroke="#000000" points="804.5,-235.5 804.5,-254.5 923.5,-254.5 923.5,-235.5 804.5,-235.5"/>
<text text-anchor="middle" x="864" y="-242.5" font-family="Helvetica,sans-Serif" font-size="10.00" fill="#000000">odp/api/deprecated.h</text>
</a>
</g>
</g>
<!-- Node24&#45;&gt;Node30 -->
<g id="edge43" class="edge">
<title>Node24&#45;&gt;Node30</title>
<path fill="none" stroke="#191970" d="M733.3206,-291.4554C762.1861,-281.194 800.0239,-267.7429 827.5516,-257.9571"/>
<polygon fill="#191970" stroke="#191970" points="828.9412,-261.1778 837.1911,-254.5303 826.5964,-254.5821 828.9412,-261.1778"/>
</g>
<!-- Node26 -->
<g id="node27" class="node">
<title>Node26</title>
<polygon fill="#ffffff" stroke="#bfbfbf" points="752.5,-168.5 752.5,-198.5 869.5,-198.5 869.5,-168.5 752.5,-168.5"/>
<text text-anchor="start" x="760.5" y="-186.5" font-family="Helvetica,sans-Serif" font-size="10.00" fill="#000000">odp/api/abi/schedule</text>
<text text-anchor="middle" x="811" y="-175.5" font-family="Helvetica,sans-Serif" font-size="10.00" fill="#000000">_types.h</text>
</g>
<!-- Node25&#45;&gt;Node26 -->
<g id="edge35" class="edge">
<title>Node25&#45;&gt;Node26</title>
<path fill="none" stroke="#191970" d="M709.75,-235.3906C726.5169,-226.7976 751.6134,-213.9356 772.6252,-203.1671"/>
<polygon fill="#191970" stroke="#191970" points="774.3417,-206.2203 781.6447,-198.5446 771.149,-199.9908 774.3417,-206.2203"/>
</g>
<!-- Node27 -->
<g id="node28" class="node">
<title>Node27</title>
<g id="a_node28"><a xlink:href="api_2spec_2schedule__types_8h.html" target="_top" xlink:title="ODP schedule types. ">
<polygon fill="#ffffff" stroke="#000000" points="609.5,-168.5 609.5,-198.5 734.5,-198.5 734.5,-168.5 609.5,-168.5"/>
<text text-anchor="start" x="617.5" y="-186.5" font-family="Helvetica,sans-Serif" font-size="10.00" fill="#000000">odp/api/spec/schedule</text>
<text text-anchor="middle" x="672" y="-175.5" font-family="Helvetica,sans-Serif" font-size="10.00" fill="#000000">_types.h</text>
</a>
</g>
</g>
<!-- Node25&#45;&gt;Node27 -->
<g id="edge36" class="edge">
<title>Node25&#45;&gt;Node27</title>
<path fill="none" stroke="#191970" d="M688.0313,-235.3906C685.7932,-228.1463 682.6177,-217.8679 679.6827,-208.3676"/>
<polygon fill="#191970" stroke="#191970" points="682.9438,-207.0659 676.6479,-198.5446 676.2557,-209.1322 682.9438,-207.0659"/>
</g>
<!-- Node27&#45;&gt;Node4 -->
<g id="edge37" class="edge">
<title>Node27&#45;&gt;Node4</title>
<path fill="none" stroke="#191970" d="M720.1896,-168.4169C782.7612,-147.7444 886.5332,-109.3673 908,-76 922.5494,-53.3848 893.2797,-34.9618 865.7587,-23.3837"/>
<polygon fill="#191970" stroke="#191970" points="866.7576,-20.0146 856.1718,-19.5782 864.175,-26.5208 866.7576,-20.0146"/>
</g>
<!-- Node27&#45;&gt;Node9 -->
<g id="edge42" class="edge">
<title>Node27&#45;&gt;Node9</title>
<path fill="none" stroke="#191970" d="M654.8096,-168.3103C620.9898,-138.5888 546.6146,-74.0698 518,-56 497.7114,-43.188 473.2758,-31.7973 453.7577,-23.5559"/>
<polygon fill="#191970" stroke="#191970" points="454.9084,-20.2443 444.3298,-19.6567 452.2331,-26.7129 454.9084,-20.2443"/>
</g>
<!-- Node28 -->
<g id="node29" class="node">
<title>Node28</title>
<g id="a_node29"><a xlink:href="support_8h.html" target="_top" xlink:title="ODP support API &#45; platform specific header. ">
<polygon fill="#ffffff" stroke="#000000" points="621.5,-112.5 621.5,-131.5 722.5,-131.5 722.5,-112.5 621.5,-112.5"/>
<text text-anchor="middle" x="672" y="-119.5" font-family="Helvetica,sans-Serif" font-size="10.00" fill="#000000">odp/api/support.h</text>
</a>
</g>
</g>
<!-- Node27&#45;&gt;Node28 -->
<g id="edge38" class="edge">
<title>Node27&#45;&gt;Node28</title>
<path fill="none" stroke="#191970" d="M672,-168.2977C672,-160.3834 672,-150.6043 672,-142.0759"/>
<polygon fill="#191970" stroke="#191970" points="675.5001,-141.8469 672,-131.8469 668.5001,-141.847 675.5001,-141.8469"/>
</g>
<!-- Node29 -->
<g id="node30" class="node">
<title>Node29</title>
<g id="a_node30"><a xlink:href="spec_2support_8h.html" target="_top" xlink:title="ODP support API. ">
<polygon fill="#ffffff" stroke="#000000" points="608.5,-56.5 608.5,-75.5 735.5,-75.5 735.5,-56.5 608.5,-56.5"/>
<text text-anchor="middle" x="672" y="-63.5" font-family="Helvetica,sans-Serif" font-size="10.00" fill="#000000">odp/api/spec/support.h</text>
</a>
</g>
</g>
<!-- Node28&#45;&gt;Node29 -->
<g id="edge39" class="edge">
<title>Node28&#45;&gt;Node29</title>
<path fill="none" stroke="#191970" d="M672,-112.2455C672,-104.9382 672,-94.6944 672,-85.7046"/>
<polygon fill="#191970" stroke="#191970" points="675.5001,-85.6426 672,-75.6427 668.5001,-85.6427 675.5001,-85.6426"/>
</g>
<!-- Node29&#45;&gt;Node4 -->
<g id="edge40" class="edge">
<title>Node29&#45;&gt;Node4</title>
<path fill="none" stroke="#191970" d="M698.4735,-56.3733C723.8597,-47.1419 762.3645,-33.1402 790.422,-22.9375"/>
<polygon fill="#191970" stroke="#191970" points="791.6701,-26.2079 799.8719,-19.5011 789.2778,-19.6293 791.6701,-26.2079"/>
</g>
<!-- Node29&#45;&gt;Node9 -->
<g id="edge41" class="edge">
<title>Node29&#45;&gt;Node9</title>
<path fill="none" stroke="#191970" d="M628.7952,-56.4369C585.4053,-46.8328 518.4791,-32.0191 471.9274,-21.7152"/>
<polygon fill="#191970" stroke="#191970" points="472.5467,-18.2676 462.0266,-19.5237 471.0338,-25.1022 472.5467,-18.2676"/>
</g>
<!-- Node31 -->
<g id="node32" class="node">
<title>Node31</title>
<g id="a_node32"><a xlink:href="spec_2deprecated_8h.html" target="_top" xlink:title="Macro for deprecated API definitions. ">
<polygon fill="#ffffff" stroke="#000000" points="753.5,-56.5 753.5,-75.5 898.5,-75.5 898.5,-56.5 753.5,-56.5"/>
<text text-anchor="middle" x="826" y="-63.5" font-family="Helvetica,sans-Serif" font-size="10.00" fill="#000000">odp/api/spec/deprecated.h</text>
</a>
</g>
</g>
<!-- Node30&#45;&gt;Node31 -->
<g id="edge44" class="edge">
<title>Node30&#45;&gt;Node31</title>
<path fill="none" stroke="#191970" d="M868.51,-235.4538C874.8193,-220.839 884.8825,-192.0791 879,-168 871.2727,-136.3696 851.8663,-103.6249 838.8069,-84.0348"/>
<polygon fill="#191970" stroke="#191970" points="841.6885,-82.0482 833.1514,-75.7738 835.9124,-86.0026 841.6885,-82.0482"/>
</g>
<!-- Node31&#45;&gt;Node4 -->
<g id="edge45" class="edge">
<title>Node31&#45;&gt;Node4</title>
<path fill="none" stroke="#191970" d="M826,-56.2455C826,-48.9382 826,-38.6944 826,-29.7046"/>
<polygon fill="#191970" stroke="#191970" points="829.5001,-29.6426 826,-19.6427 822.5001,-29.6427 829.5001,-29.6426"/>
</g>
<!-- Node31&#45;&gt;Node9 -->
<g id="edge46" class="edge">
<title>Node31&#45;&gt;Node9</title>
<path fill="none" stroke="#191970" d="M756.4967,-56.4369C680.6026,-45.9945 559.9477,-29.3933 485.3299,-19.1265"/>
<polygon fill="#191970" stroke="#191970" points="485.4997,-15.6169 475.116,-17.7211 484.5455,-22.5516 485.4997,-15.6169"/>
</g>
</g>
</svg>
