<?xml version="1.0" encoding="UTF-8" standalone="no"?>
<!DOCTYPE svg PUBLIC "-//W3C//DTD SVG 1.1//EN"
 "http://www.w3.org/Graphics/SVG/1.1/DTD/svg11.dtd">
<!-- Generated by graphviz version 2.43.0 (0)
 -->
<!-- Title: std_types.h Pages: 1 -->
<svg width="402pt" height="252pt"
 viewBox="0.00 0.00 402.00 252.00" xmlns="http://www.w3.org/2000/svg" xmlns:xlink="http://www.w3.org/1999/xlink">
<g id="graph0" class="graph" transform="scale(1 1) rotate(0) translate(4 248)">
<title>std_types.h</title>
<polygon fill="white" stroke="transparent" points="-4,4 -4,-248 398,-248 398,4 -4,4"/>
<!-- Node1 -->
<g id="node1" class="node">
<title>Node1</title>
<g id="a_node1"><a xlink:title="Standard C language types and definitions for ODP.">
<polygon fill="#bfbfbf" stroke="black" points="104.5,-224.5 104.5,-243.5 177.5,-243.5 177.5,-224.5 104.5,-224.5"/>
<text text-anchor="middle" x="141" y="-231.5" font-family="Helvetica,sans-Serif" font-size="10.00">std_types.h</text>
</a>
</g>
</g>
<!-- Node2 -->
<g id="node2" class="node">
<title>Node2</title>
<g id="a_node2"><a xlink:title=" ">
<polygon fill="white" stroke="#bfbfbf" points="0,-168.5 0,-187.5 130,-187.5 130,-168.5 0,-168.5"/>
<text text-anchor="middle" x="65" y="-175.5" font-family="Helvetica,sans-Serif" font-size="10.00">odp/api/abi/std_types.h</text>
</a>
</g>
</g>
<!-- Node1&#45;&gt;Node2 -->
<g id="edge1" class="edge">
<title>Node1&#45;&gt;Node2</title>
<path fill="none" stroke="midnightblue" d="M128.79,-224.32C117.22,-216.11 99.62,-203.6 85.84,-193.81"/>
<polygon fill="midnightblue" stroke="midnightblue" points="87.61,-190.77 77.43,-187.83 83.56,-196.48 87.61,-190.77"/>
</g>
<!-- Node3 -->
<g id="node3" class="node">
<title>Node3</title>
<g id="a_node3"><a xlink:href="api_2spec_2std__types_8h.html" target="_top" xlink:title="Common types and definitions for ODP API files.">
<polygon fill="white" stroke="black" points="148.5,-168.5 148.5,-187.5 285.5,-187.5 285.5,-168.5 148.5,-168.5"/>
<text text-anchor="middle" x="217" y="-175.5" font-family="Helvetica,sans-Serif" font-size="10.00">odp/api/spec/std_types.h</text>
</a>
</g>
</g>
<!-- Node1&#45;&gt;Node3 -->
<g id="edge2" class="edge">
<title>Node1&#45;&gt;Node3</title>
<path fill="none" stroke="midnightblue" d="M153.21,-224.32C164.78,-216.11 182.38,-203.6 196.16,-193.81"/>
<polygon fill="midnightblue" stroke="midnightblue" points="198.44,-196.48 204.57,-187.83 194.39,-190.77 198.44,-196.48"/>
</g>
<!-- Node4 -->
<g id="node4" class="node">
<title>Node4</title>
<g id="a_node4"><a xlink:href="visibility__begin_8h_source.html" target="_top" xlink:title=" ">
<polygon fill="white" stroke="black" points="104.5,-0.5 104.5,-19.5 225.5,-19.5 225.5,-0.5 104.5,-0.5"/>
<text text-anchor="middle" x="165" y="-7.5" font-family="Helvetica,sans-Serif" font-size="10.00">odp/visibility_begin.h</text>
</a>
</g>
</g>
<!-- Node3&#45;&gt;Node4 -->
<g id="edge3" class="edge">
<title>Node3&#45;&gt;Node4</title>
<path fill="none" stroke="midnightblue" d="M194.94,-168.39C177.62,-160.8 153.73,-148.4 137,-132 116.37,-111.78 111.6,-103.87 104,-76 101.66,-67.42 99.99,-63.93 104,-56 110.81,-42.52 123.77,-32.08 136,-24.67"/>
<polygon fill="midnightblue" stroke="midnightblue" points="138.07,-27.52 145.09,-19.59 134.66,-21.41 138.07,-27.52"/>
</g>
<!-- Node5 -->
<g id="node5" class="node">
<title>Node5</title>
<g id="a_node5"><a xlink:title=" ">
<polygon fill="white" stroke="#bfbfbf" points="146.5,-112.5 146.5,-131.5 199.5,-131.5 199.5,-112.5 146.5,-112.5"/>
<text text-anchor="middle" x="173" y="-119.5" font-family="Helvetica,sans-Serif" font-size="10.00">stdint.h</text>
</a>
</g>
</g>
<!-- Node3&#45;&gt;Node5 -->
<g id="edge4" class="edge">
<title>Node3&#45;&gt;Node5</title>
<path fill="none" stroke="midnightblue" d="M209.73,-168.08C203.46,-160.38 194.21,-149.03 186.57,-139.65"/>
<polygon fill="midnightblue" stroke="midnightblue" points="189.16,-137.29 180.13,-131.75 183.73,-141.71 189.16,-137.29"/>
</g>
<!-- Node6 -->
<g id="node6" class="node">
<title>Node6</title>
<g id="a_node6"><a xlink:href="api_2align_8h.html" target="_top" xlink:title="ODP alignments.">
<polygon fill="white" stroke="black" points="217.5,-112.5 217.5,-131.5 306.5,-131.5 306.5,-112.5 217.5,-112.5"/>
<text text-anchor="middle" x="262" y="-119.5" font-family="Helvetica,sans-Serif" font-size="10.00">odp/api/align.h</text>
</a>
</g>
</g>
<!-- Node3&#45;&gt;Node6 -->
<g id="edge5" class="edge">
<title>Node3&#45;&gt;Node6</title>
<path fill="none" stroke="midnightblue" d="M224.43,-168.08C230.85,-160.38 240.31,-149.03 248.12,-139.65"/>
<polygon fill="midnightblue" stroke="midnightblue" points="250.99,-141.67 254.71,-131.75 245.62,-137.19 250.99,-141.67"/>
</g>
<!-- Node9 -->
<g id="node9" class="node">
<title>Node9</title>
<g id="a_node9"><a xlink:href="visibility__end_8h_source.html" target="_top" xlink:title=" ">
<polygon fill="white" stroke="black" points="282,-0.5 282,-19.5 394,-19.5 394,-0.5 282,-0.5"/>
<text text-anchor="middle" x="338" y="-7.5" font-family="Helvetica,sans-Serif" font-size="10.00">odp/visibility_end.h</text>
</a>
</g>
</g>
<!-- Node3&#45;&gt;Node9 -->
<g id="edge10" class="edge">
<title>Node3&#45;&gt;Node9</title>
<path fill="none" stroke="midnightblue" d="M245.3,-168.47C282.09,-155.51 343.8,-126.83 362,-76 367.81,-59.78 359.6,-41.36 351.25,-28.28"/>
<polygon fill="midnightblue" stroke="midnightblue" points="353.93,-26.01 345.34,-19.81 348.19,-30.01 353.93,-26.01"/>
</g>
<!-- Node7 -->
<g id="node7" class="node">
<title>Node7</title>
<g id="a_node7"><a xlink:title=" ">
<polygon fill="white" stroke="#bfbfbf" points="113.5,-56.5 113.5,-75.5 220.5,-75.5 220.5,-56.5 113.5,-56.5"/>
<text text-anchor="middle" x="167" y="-63.5" font-family="Helvetica,sans-Serif" font-size="10.00">odp/api/abi/align.h</text>
</a>
</g>
</g>
<!-- Node6&#45;&gt;Node7 -->
<g id="edge6" class="edge">
<title>Node6&#45;&gt;Node7</title>
<path fill="none" stroke="midnightblue" d="M246.74,-112.32C231.78,-103.82 208.75,-90.73 191.27,-80.8"/>
<polygon fill="midnightblue" stroke="midnightblue" points="192.65,-77.55 182.23,-75.65 189.19,-83.64 192.65,-77.55"/>
</g>
<!-- Node8 -->
<g id="node8" class="node">
<title>Node8</title>
<g id="a_node8"><a xlink:href="api_2spec_2align_8h.html" target="_top" xlink:title="ODP alignments.">
<polygon fill="white" stroke="black" points="239,-56.5 239,-75.5 353,-75.5 353,-56.5 239,-56.5"/>
<text text-anchor="middle" x="296" y="-63.5" font-family="Helvetica,sans-Serif" font-size="10.00">odp/api/spec/align.h</text>
</a>
</g>
</g>
<!-- Node6&#45;&gt;Node8 -->
<g id="edge7" class="edge">
<title>Node6&#45;&gt;Node8</title>
<path fill="none" stroke="midnightblue" d="M267.61,-112.08C272.37,-104.53 279.32,-93.49 285.15,-84.23"/>
<polygon fill="midnightblue" stroke="midnightblue" points="288.12,-86.08 290.49,-75.75 282.2,-82.35 288.12,-86.08"/>
</g>
<!-- Node8&#45;&gt;Node4 -->
<g id="edge8" class="edge">
<title>Node8&#45;&gt;Node4</title>
<path fill="none" stroke="midnightblue" d="M275.24,-56.44C253.68,-47.56 219.74,-33.56 195.21,-23.45"/>
<polygon fill="midnightblue" stroke="midnightblue" points="196.24,-20.09 185.66,-19.52 193.57,-26.56 196.24,-20.09"/>
</g>
<!-- Node8&#45;&gt;Node9 -->
<g id="edge9" class="edge">
<title>Node8&#45;&gt;Node9</title>
<path fill="none" stroke="midnightblue" d="M302.94,-56.08C308.93,-48.38 317.75,-37.03 325.05,-27.65"/>
<polygon fill="midnightblue" stroke="midnightblue" points="327.82,-29.79 331.19,-19.75 322.29,-25.5 327.82,-29.79"/>
</g>
</g>
</svg>
