<?xml version="1.0" encoding="UTF-8" standalone="no"?>
<!DOCTYPE svg PUBLIC "-//W3C//DTD SVG 1.1//EN"
 "http://www.w3.org/Graphics/SVG/1.1/DTD/svg11.dtd">
<!-- Generated by graphviz version 2.43.0 (0)
 -->
<!-- Title: atomic.h Pages: 1 -->
<svg width="1525pt" height="192pt"
 viewBox="0.00 0.00 1525.00 192.00" xmlns="http://www.w3.org/2000/svg" xmlns:xlink="http://www.w3.org/1999/xlink">
<g id="graph0" class="graph" transform="scale(1 1) rotate(0) translate(4 188)">
<title>atomic.h</title>
<!-- Node1 -->
<g id="Node000001" class="node">
<title>Node1</title>
<g id="a_Node000001"><a xlink:title="ODP atomic operations.">
<polygon fill="#999999" stroke="#666666" points="569,-184 510,-184 510,-165 569,-165 569,-184"/>
<text text-anchor="middle" x="539.5" y="-172" font-family="Helvetica,sans-Serif" font-size="10.00">atomic.h</text>
</a>
</g>
</g>
<!-- Node2 -->
<g id="Node000002" class="node">
<title>Node2</title>
<g id="a_Node000002"><a xlink:href="api_2atomic_8h.html" target="_top" xlink:title="ODP atomic operations.">
<polygon fill="white" stroke="#666666" points="569,-129 510,-129 510,-110 569,-110 569,-129"/>
<text text-anchor="middle" x="539.5" y="-117" font-family="Helvetica,sans-Serif" font-size="10.00">atomic.h</text>
</a>
</g>
</g>
<!-- Node1&#45;&gt;Node2 -->
<g id="edge1_Node000001_Node000002" class="edge">
<title>Node1&#45;&gt;Node2</title>
<g id="a_edge1_Node000001_Node000002"><a xlink:title=" ">
<path fill="none" stroke="#63b8ff" d="M539.5,-154.66C539.5,-145.93 539.5,-135.99 539.5,-129.09"/>
<polygon fill="#63b8ff" stroke="#63b8ff" points="536,-154.75 539.5,-164.75 543,-154.75 536,-154.75"/>
</a>
</g>
</g>
<!-- Node3 -->
<g id="Node000003" class="node">
<title>Node3</title>
<g id="a_Node000003"><a xlink:href="api_2abi-default_2barrier_8h.html" target="_top" xlink:title="ODP barrier.">
<polygon fill="white" stroke="#666666" points="282,-74 225,-74 225,-55 282,-55 282,-74"/>
<text text-anchor="middle" x="253.5" y="-62" font-family="Helvetica,sans-Serif" font-size="10.00">barrier.h</text>
</a>
</g>
</g>
<!-- Node2&#45;&gt;Node3 -->
<g id="edge2_Node000002_Node000003" class="edge">
<title>Node2&#45;&gt;Node3</title>
<g id="a_edge2_Node000002_Node000003"><a xlink:title=" ">
<path fill="none" stroke="#63b8ff" d="M500,-111.18C441.55,-100.35 333.39,-80.3 282.02,-70.79"/>
<polygon fill="#63b8ff" stroke="#63b8ff" points="499.5,-114.65 509.97,-113.03 500.78,-107.76 499.5,-114.65"/>
</a>
</g>
</g>
<!-- Node10 -->
<g id="Node000010" class="node">
<title>Node10</title>
<g id="a_Node000010"><a xlink:href="api_2barrier_8h.html" target="_top" xlink:title="ODP execution barriers.">
<polygon fill="white" stroke="#666666" points="511,-74 454,-74 454,-55 511,-55 511,-74"/>
<text text-anchor="middle" x="482.5" y="-62" font-family="Helvetica,sans-Serif" font-size="10.00">barrier.h</text>
</a>
</g>
</g>
<!-- Node2&#45;&gt;Node10 -->
<g id="edge9_Node000002_Node000010" class="edge">
<title>Node2&#45;&gt;Node10</title>
<g id="a_edge9_Node000002_Node000010"><a xlink:title=" ">
<path fill="none" stroke="#63b8ff" d="M522.88,-103.04C512.77,-93.64 500.22,-81.98 491.82,-74.17"/>
<polygon fill="#63b8ff" stroke="#63b8ff" points="520.64,-105.74 530.34,-109.98 525.4,-100.61 520.64,-105.74"/>
</a>
</g>
</g>
<!-- Node11 -->
<g id="Node000011" class="node">
<title>Node11</title>
<g id="a_Node000011"><a xlink:href="odp__api_8h.html" target="_top" xlink:title="The OpenDataPlane API.">
<polygon fill="white" stroke="#666666" points="514.5,-19 450.5,-19 450.5,0 514.5,0 514.5,-19"/>
<text text-anchor="middle" x="482.5" y="-7" font-family="Helvetica,sans-Serif" font-size="10.00">odp_api.h</text>
</a>
</g>
</g>
<!-- Node2&#45;&gt;Node11 -->
<g id="edge11_Node000002_Node000011" class="edge">
<title>Node2&#45;&gt;Node11</title>
<g id="a_edge11_Node000002_Node000011"><a xlink:title=" ">
<path fill="none" stroke="#63b8ff" d="M535.62,-99.73C532.45,-86.67 527.21,-69.13 519.5,-55 511.99,-41.24 499.9,-27.73 491.59,-19.27"/>
<polygon fill="#63b8ff" stroke="#63b8ff" points="532.29,-100.87 537.89,-109.86 539.12,-99.34 532.29,-100.87"/>
</a>
</g>
</g>
<!-- Node12 -->
<g id="Node000012" class="node">
<title>Node12</title>
<g id="a_Node000012"><a xlink:href="api_2abi-default_2rwlock_8h.html" target="_top" xlink:title="ODP rwlock.">
<polygon fill="white" stroke="#666666" points="742.5,-74 684.5,-74 684.5,-55 742.5,-55 742.5,-74"/>
<text text-anchor="middle" x="713.5" y="-62" font-family="Helvetica,sans-Serif" font-size="10.00">rwlock.h</text>
</a>
</g>
</g>
<!-- Node2&#45;&gt;Node12 -->
<g id="edge12_Node000002_Node000012" class="edge">
<title>Node2&#45;&gt;Node12</title>
<g id="a_edge12_Node000002_Node000012"><a xlink:title=" ">
<path fill="none" stroke="#63b8ff" d="M577.07,-107.06C609.59,-97.15 655.9,-83.04 685.32,-74.08"/>
<polygon fill="#63b8ff" stroke="#63b8ff" points="576,-103.72 567.46,-109.98 578.04,-110.42 576,-103.72"/>
</a>
</g>
</g>
<!-- Node19 -->
<g id="Node000019" class="node">
<title>Node19</title>
<g id="a_Node000019"><a xlink:href="api_2abi-default_2ticketlock_8h.html" target="_top" xlink:title="ODP ticketlock.">
<polygon fill="white" stroke="#666666" points="1244,-74 1171,-74 1171,-55 1244,-55 1244,-74"/>
<text text-anchor="middle" x="1207.5" y="-62" font-family="Helvetica,sans-Serif" font-size="10.00">ticketlock.h</text>
</a>
</g>
</g>
<!-- Node2&#45;&gt;Node19 -->
<g id="edge19_Node000002_Node000019" class="edge">
<title>Node2&#45;&gt;Node19</title>
<g id="a_edge19_Node000002_Node000019"><a xlink:title=" ">
<path fill="none" stroke="#63b8ff" d="M579.25,-115.35C698.97,-105.85 1055.02,-77.6 1170.73,-68.42"/>
<polygon fill="#63b8ff" stroke="#63b8ff" points="578.76,-111.87 569.07,-116.15 579.31,-118.85 578.76,-111.87"/>
</a>
</g>
</g>
<!-- Node4 -->
<g id="Node000004" class="node">
<title>Node4</title>
<g id="a_Node000004"><a xlink:href="arch_2arm32-linux_2odp_2api_2abi_2barrier_8h_source.html" target="_top" xlink:title=" ">
<polygon fill="white" stroke="#666666" points="57,-19 0,-19 0,0 57,0 57,-19"/>
<text text-anchor="middle" x="28.5" y="-7" font-family="Helvetica,sans-Serif" font-size="10.00">barrier.h</text>
</a>
</g>
</g>
<!-- Node3&#45;&gt;Node4 -->
<g id="edge3_Node000003_Node000004" class="edge">
<title>Node3&#45;&gt;Node4</title>
<g id="a_edge3_Node000003_Node000004"><a xlink:title=" ">
<path fill="none" stroke="#63b8ff" d="M214.62,-54.34C169.85,-43.8 97.36,-26.72 57.34,-17.29"/>
<polygon fill="#63b8ff" stroke="#63b8ff" points="214.01,-57.79 224.55,-56.68 215.61,-50.98 214.01,-57.79"/>
</a>
</g>
</g>
<!-- Node5 -->
<g id="Node000005" class="node">
<title>Node5</title>
<g id="a_Node000005"><a xlink:href="arch_2arm64-linux_2odp_2api_2abi_2barrier_8h_source.html" target="_top" xlink:title=" ">
<polygon fill="white" stroke="#666666" points="132,-19 75,-19 75,0 132,0 132,-19"/>
<text text-anchor="middle" x="103.5" y="-7" font-family="Helvetica,sans-Serif" font-size="10.00">barrier.h</text>
</a>
</g>
</g>
<!-- Node3&#45;&gt;Node5 -->
<g id="edge4_Node000003_Node000005" class="edge">
<title>Node3&#45;&gt;Node5</title>
<g id="a_edge4_Node000003_Node000005"><a xlink:title=" ">
<path fill="none" stroke="#63b8ff" d="M219.68,-51.55C191.82,-41.71 152.99,-27.98 128.04,-19.17"/>
<polygon fill="#63b8ff" stroke="#63b8ff" points="218.81,-54.95 229.4,-54.98 221.14,-48.35 218.81,-54.95"/>
</a>
</g>
</g>
<!-- Node6 -->
<g id="Node000006" class="node">
<title>Node6</title>
<g id="a_Node000006"><a xlink:href="arch_2default-linux_2odp_2api_2abi_2barrier_8h_source.html" target="_top" xlink:title=" ">
<polygon fill="white" stroke="#666666" points="207,-19 150,-19 150,0 207,0 207,-19"/>
<text text-anchor="middle" x="178.5" y="-7" font-family="Helvetica,sans-Serif" font-size="10.00">barrier.h</text>
</a>
</g>
</g>
<!-- Node3&#45;&gt;Node6 -->
<g id="edge5_Node000003_Node000006" class="edge">
<title>Node3&#45;&gt;Node6</title>
<g id="a_edge5_Node000003_Node000006"><a xlink:title=" ">
<path fill="none" stroke="#63b8ff" d="M233.19,-49.15C219.64,-39.57 202.26,-27.29 190.77,-19.17"/>
<polygon fill="#63b8ff" stroke="#63b8ff" points="231.26,-52.07 241.45,-54.98 235.3,-46.36 231.26,-52.07"/>
</a>
</g>
</g>
<!-- Node7 -->
<g id="Node000007" class="node">
<title>Node7</title>
<g id="a_Node000007"><a xlink:href="arch_2power64-linux_2odp_2api_2abi_2barrier_8h_source.html" target="_top" xlink:title=" ">
<polygon fill="white" stroke="#666666" points="282,-19 225,-19 225,0 282,0 282,-19"/>
<text text-anchor="middle" x="253.5" y="-7" font-family="Helvetica,sans-Serif" font-size="10.00">barrier.h</text>
</a>
</g>
</g>
<!-- Node3&#45;&gt;Node7 -->
<g id="edge6_Node000003_Node000007" class="edge">
<title>Node3&#45;&gt;Node7</title>
<g id="a_edge6_Node000003_Node000007"><a xlink:title=" ">
<path fill="none" stroke="#63b8ff" d="M253.5,-44.66C253.5,-35.93 253.5,-25.99 253.5,-19.09"/>
<polygon fill="#63b8ff" stroke="#63b8ff" points="250,-44.75 253.5,-54.75 257,-44.75 250,-44.75"/>
</a>
</g>
</g>
<!-- Node8 -->
<g id="Node000008" class="node">
<title>Node8</title>
<g id="a_Node000008"><a xlink:href="arch_2x86__32-linux_2odp_2api_2abi_2barrier_8h_source.html" target="_top" xlink:title=" ">
<polygon fill="white" stroke="#666666" points="357,-19 300,-19 300,0 357,0 357,-19"/>
<text text-anchor="middle" x="328.5" y="-7" font-family="Helvetica,sans-Serif" font-size="10.00">barrier.h</text>
</a>
</g>
</g>
<!-- Node3&#45;&gt;Node8 -->
<g id="edge7_Node000003_Node000008" class="edge">
<title>Node3&#45;&gt;Node8</title>
<g id="a_edge7_Node000003_Node000008"><a xlink:title=" ">
<path fill="none" stroke="#63b8ff" d="M273.81,-49.15C287.36,-39.57 304.74,-27.29 316.23,-19.17"/>
<polygon fill="#63b8ff" stroke="#63b8ff" points="271.7,-46.36 265.55,-54.98 275.74,-52.07 271.7,-46.36"/>
</a>
</g>
</g>
<!-- Node9 -->
<g id="Node000009" class="node">
<title>Node9</title>
<g id="a_Node000009"><a xlink:href="arch_2x86__64-linux_2odp_2api_2abi_2barrier_8h_source.html" target="_top" xlink:title=" ">
<polygon fill="white" stroke="#666666" points="432,-19 375,-19 375,0 432,0 432,-19"/>
<text text-anchor="middle" x="403.5" y="-7" font-family="Helvetica,sans-Serif" font-size="10.00">barrier.h</text>
</a>
</g>
</g>
<!-- Node3&#45;&gt;Node9 -->
<g id="edge8_Node000003_Node000009" class="edge">
<title>Node3&#45;&gt;Node9</title>
<g id="a_edge8_Node000003_Node000009"><a xlink:title=" ">
<path fill="none" stroke="#63b8ff" d="M287.32,-51.55C315.18,-41.71 354.01,-27.98 378.96,-19.17"/>
<polygon fill="#63b8ff" stroke="#63b8ff" points="285.86,-48.35 277.6,-54.98 288.19,-54.95 285.86,-48.35"/>
</a>
</g>
</g>
<!-- Node10&#45;&gt;Node11 -->
<g id="edge10_Node000010_Node000011" class="edge">
<title>Node10&#45;&gt;Node11</title>
<g id="a_edge10_Node000010_Node000011"><a xlink:title=" ">
<path fill="none" stroke="#63b8ff" d="M482.5,-44.66C482.5,-35.93 482.5,-25.99 482.5,-19.09"/>
<polygon fill="#63b8ff" stroke="#63b8ff" points="479,-44.75 482.5,-54.75 486,-44.75 479,-44.75"/>
</a>
</g>
</g>
<!-- Node13 -->
<g id="Node000013" class="node">
<title>Node13</title>
<g id="a_Node000013"><a xlink:href="arch_2arm32-linux_2odp_2api_2abi_2rwlock_8h_source.html" target="_top" xlink:title=" ">
<polygon fill="white" stroke="#666666" points="590.5,-19 532.5,-19 532.5,0 590.5,0 590.5,-19"/>
<text text-anchor="middle" x="561.5" y="-7" font-family="Helvetica,sans-Serif" font-size="10.00">rwlock.h</text>
</a>
</g>
</g>
<!-- Node12&#45;&gt;Node13 -->
<g id="edge13_Node000012_Node000013" class="edge">
<title>Node12&#45;&gt;Node13</title>
<g id="a_edge13_Node000012_Node000013"><a xlink:title=" ">
<path fill="none" stroke="#63b8ff" d="M679.57,-51.67C651.23,-41.79 611.48,-27.93 586.11,-19.08"/>
<polygon fill="#63b8ff" stroke="#63b8ff" points="678.48,-55 689.08,-54.98 680.79,-48.39 678.48,-55"/>
</a>
</g>
</g>
<!-- Node14 -->
<g id="Node000014" class="node">
<title>Node14</title>
<g id="a_Node000014"><a xlink:href="arch_2arm64-linux_2odp_2api_2abi_2rwlock_8h_source.html" target="_top" xlink:title=" ">
<polygon fill="white" stroke="#666666" points="666.5,-19 608.5,-19 608.5,0 666.5,0 666.5,-19"/>
<text text-anchor="middle" x="637.5" y="-7" font-family="Helvetica,sans-Serif" font-size="10.00">rwlock.h</text>
</a>
</g>
</g>
<!-- Node12&#45;&gt;Node14 -->
<g id="edge14_Node000012_Node000014" class="edge">
<title>Node12&#45;&gt;Node14</title>
<g id="a_edge14_Node000012_Node000014"><a xlink:title=" ">
<path fill="none" stroke="#63b8ff" d="M692.92,-49.15C679.19,-39.57 661.57,-27.29 649.93,-19.17"/>
<polygon fill="#63b8ff" stroke="#63b8ff" points="691.08,-52.14 701.29,-54.98 695.09,-46.39 691.08,-52.14"/>
</a>
</g>
</g>
<!-- Node15 -->
<g id="Node000015" class="node">
<title>Node15</title>
<g id="a_Node000015"><a xlink:href="arch_2default-linux_2odp_2api_2abi_2rwlock_8h_source.html" target="_top" xlink:title=" ">
<polygon fill="white" stroke="#666666" points="742.5,-19 684.5,-19 684.5,0 742.5,0 742.5,-19"/>
<text text-anchor="middle" x="713.5" y="-7" font-family="Helvetica,sans-Serif" font-size="10.00">rwlock.h</text>
</a>
</g>
</g>
<!-- Node12&#45;&gt;Node15 -->
<g id="edge15_Node000012_Node000015" class="edge">
<title>Node12&#45;&gt;Node15</title>
<g id="a_edge15_Node000012_Node000015"><a xlink:title=" ">
<path fill="none" stroke="#63b8ff" d="M713.5,-44.66C713.5,-35.93 713.5,-25.99 713.5,-19.09"/>
<polygon fill="#63b8ff" stroke="#63b8ff" points="710,-44.75 713.5,-54.75 717,-44.75 710,-44.75"/>
</a>
</g>
</g>
<!-- Node16 -->
<g id="Node000016" class="node">
<title>Node16</title>
<g id="a_Node000016"><a xlink:href="arch_2power64-linux_2odp_2api_2abi_2rwlock_8h_source.html" target="_top" xlink:title=" ">
<polygon fill="white" stroke="#666666" points="818.5,-19 760.5,-19 760.5,0 818.5,0 818.5,-19"/>
<text text-anchor="middle" x="789.5" y="-7" font-family="Helvetica,sans-Serif" font-size="10.00">rwlock.h</text>
</a>
</g>
</g>
<!-- Node12&#45;&gt;Node16 -->
<g id="edge16_Node000012_Node000016" class="edge">
<title>Node12&#45;&gt;Node16</title>
<g id="a_edge16_Node000012_Node000016"><a xlink:title=" ">
<path fill="none" stroke="#63b8ff" d="M734.08,-49.15C747.81,-39.57 765.43,-27.29 777.07,-19.17"/>
<polygon fill="#63b8ff" stroke="#63b8ff" points="731.91,-46.39 725.71,-54.98 735.92,-52.14 731.91,-46.39"/>
</a>
</g>
</g>
<!-- Node17 -->
<g id="Node000017" class="node">
<title>Node17</title>
<g id="a_Node000017"><a xlink:href="arch_2x86__32-linux_2odp_2api_2abi_2rwlock_8h_source.html" target="_top" xlink:title=" ">
<polygon fill="white" stroke="#666666" points="894.5,-19 836.5,-19 836.5,0 894.5,0 894.5,-19"/>
<text text-anchor="middle" x="865.5" y="-7" font-family="Helvetica,sans-Serif" font-size="10.00">rwlock.h</text>
</a>
</g>
</g>
<!-- Node12&#45;&gt;Node17 -->
<g id="edge17_Node000012_Node000017" class="edge">
<title>Node12&#45;&gt;Node17</title>
<g id="a_edge17_Node000012_Node000017"><a xlink:title=" ">
<path fill="none" stroke="#63b8ff" d="M747.43,-51.67C775.77,-41.79 815.52,-27.93 840.89,-19.08"/>
<polygon fill="#63b8ff" stroke="#63b8ff" points="746.21,-48.39 737.92,-54.98 748.52,-55 746.21,-48.39"/>
</a>
</g>
</g>
<!-- Node18 -->
<g id="Node000018" class="node">
<title>Node18</title>
<g id="a_Node000018"><a xlink:href="arch_2x86__64-linux_2odp_2api_2abi_2rwlock_8h_source.html" target="_top" xlink:title=" ">
<polygon fill="white" stroke="#666666" points="970.5,-19 912.5,-19 912.5,0 970.5,0 970.5,-19"/>
<text text-anchor="middle" x="941.5" y="-7" font-family="Helvetica,sans-Serif" font-size="10.00">rwlock.h</text>
</a>
</g>
</g>
<!-- Node12&#45;&gt;Node18 -->
<g id="edge18_Node000012_Node000018" class="edge">
<title>Node12&#45;&gt;Node18</title>
<g id="a_edge18_Node000012_Node000018"><a xlink:title=" ">
<path fill="none" stroke="#63b8ff" d="M752.61,-54.41C797.95,-43.87 871.63,-26.74 912.27,-17.29"/>
<polygon fill="#63b8ff" stroke="#63b8ff" points="751.79,-51.01 742.84,-56.68 753.37,-57.82 751.79,-51.01"/>
</a>
</g>
</g>
<!-- Node20 -->
<g id="Node000020" class="node">
<title>Node20</title>
<g id="a_Node000020"><a xlink:href="arch_2arm32-linux_2odp_2api_2abi_2ticketlock_8h_source.html" target="_top" xlink:title=" ">
<polygon fill="white" stroke="#666666" points="1062,-19 989,-19 989,0 1062,0 1062,-19"/>
<text text-anchor="middle" x="1025.5" y="-7" font-family="Helvetica,sans-Serif" font-size="10.00">ticketlock.h</text>
</a>
</g>
</g>
<!-- Node19&#45;&gt;Node20 -->
<g id="edge20_Node000019_Node000020" class="edge">
<title>Node19&#45;&gt;Node20</title>
<g id="a_edge20_Node000019_Node000020"><a xlink:title=" ">
<path fill="none" stroke="#63b8ff" d="M1168.64,-52.18C1134.6,-42.27 1085.88,-28.08 1054.97,-19.08"/>
<polygon fill="#63b8ff" stroke="#63b8ff" points="1167.68,-55.55 1178.26,-54.98 1169.64,-48.83 1167.68,-55.55"/>
</a>
</g>
</g>
<!-- Node21 -->
<g id="Node000021" class="node">
<title>Node21</title>
<g id="a_Node000021"><a xlink:href="arch_2arm64-linux_2odp_2api_2abi_2ticketlock_8h_source.html" target="_top" xlink:title=" ">
<polygon fill="white" stroke="#666666" points="1153,-19 1080,-19 1080,0 1153,0 1153,-19"/>
<text text-anchor="middle" x="1116.5" y="-7" font-family="Helvetica,sans-Serif" font-size="10.00">ticketlock.h</text>
</a>
</g>
</g>
<!-- Node19&#45;&gt;Node21 -->
<g id="edge21_Node000019_Node000021" class="edge">
<title>Node19&#45;&gt;Node21</title>
<g id="a_edge21_Node000019_Node000021"><a xlink:title=" ">
<path fill="none" stroke="#63b8ff" d="M1183.8,-49.7C1167.22,-40.04 1145.59,-27.44 1131.39,-19.17"/>
<polygon fill="#63b8ff" stroke="#63b8ff" points="1182.48,-52.98 1192.88,-54.98 1186,-46.93 1182.48,-52.98"/>
</a>
</g>
</g>
<!-- Node22 -->
<g id="Node000022" class="node">
<title>Node22</title>
<g id="a_Node000022"><a xlink:href="arch_2default-linux_2odp_2api_2abi_2ticketlock_8h_source.html" target="_top" xlink:title=" ">
<polygon fill="white" stroke="#666666" points="1244,-19 1171,-19 1171,0 1244,0 1244,-19"/>
<text text-anchor="middle" x="1207.5" y="-7" font-family="Helvetica,sans-Serif" font-size="10.00">ticketlock.h</text>
</a>
</g>
</g>
<!-- Node19&#45;&gt;Node22 -->
<g id="edge22_Node000019_Node000022" class="edge">
<title>Node19&#45;&gt;Node22</title>
<g id="a_edge22_Node000019_Node000022"><a xlink:title=" ">
<path fill="none" stroke="#63b8ff" d="M1207.5,-44.66C1207.5,-35.93 1207.5,-25.99 1207.5,-19.09"/>
<polygon fill="#63b8ff" stroke="#63b8ff" points="1204,-44.75 1207.5,-54.75 1211,-44.75 1204,-44.75"/>
</a>
</g>
</g>
<!-- Node23 -->
<g id="Node000023" class="node">
<title>Node23</title>
<g id="a_Node000023"><a xlink:href="arch_2power64-linux_2odp_2api_2abi_2ticketlock_8h_source.html" target="_top" xlink:title=" ">
<polygon fill="white" stroke="#666666" points="1335,-19 1262,-19 1262,0 1335,0 1335,-19"/>
<text text-anchor="middle" x="1298.5" y="-7" font-family="Helvetica,sans-Serif" font-size="10.00">ticketlock.h</text>
</a>
</g>
</g>
<!-- Node19&#45;&gt;Node23 -->
<g id="edge23_Node000019_Node000023" class="edge">
<title>Node19&#45;&gt;Node23</title>
<g id="a_edge23_Node000019_Node000023"><a xlink:title=" ">
<path fill="none" stroke="#63b8ff" d="M1231.2,-49.7C1247.78,-40.04 1269.41,-27.44 1283.61,-19.17"/>
<polygon fill="#63b8ff" stroke="#63b8ff" points="1229,-46.93 1222.12,-54.98 1232.52,-52.98 1229,-46.93"/>
</a>
</g>
</g>
<!-- Node24 -->
<g id="Node000024" class="node">
<title>Node24</title>
<g id="a_Node000024"><a xlink:href="arch_2x86__32-linux_2odp_2api_2abi_2ticketlock_8h_source.html" target="_top" xlink:title=" ">
<polygon fill="white" stroke="#666666" points="1426,-19 1353,-19 1353,0 1426,0 1426,-19"/>
<text text-anchor="middle" x="1389.5" y="-7" font-family="Helvetica,sans-Serif" font-size="10.00">ticketlock.h</text>
</a>
</g>
</g>
<!-- Node19&#45;&gt;Node24 -->
<g id="edge24_Node000019_Node000024" class="edge">
<title>Node19&#45;&gt;Node24</title>
<g id="a_edge24_Node000019_Node000024"><a xlink:title=" ">
<path fill="none" stroke="#63b8ff" d="M1246.36,-52.18C1280.4,-42.27 1329.12,-28.08 1360.03,-19.08"/>
<polygon fill="#63b8ff" stroke="#63b8ff" points="1245.36,-48.83 1236.74,-54.98 1247.32,-55.55 1245.36,-48.83"/>
</a>
</g>
</g>
<!-- Node25 -->
<g id="Node000025" class="node">
<title>Node25</title>
<g id="a_Node000025"><a xlink:href="arch_2x86__64-linux_2odp_2api_2abi_2ticketlock_8h_source.html" target="_top" xlink:title=" ">
<polygon fill="white" stroke="#666666" points="1517,-19 1444,-19 1444,0 1517,0 1517,-19"/>
<text text-anchor="middle" x="1480.5" y="-7" font-family="Helvetica,sans-Serif" font-size="10.00">ticketlock.h</text>
</a>
</g>
</g>
<!-- Node19&#45;&gt;Node25 -->
<g id="edge25_Node000019_Node000025" class="edge">
<title>Node19&#45;&gt;Node25</title>
<g id="a_edge25_Node000019_Node000025"><a xlink:title=" ">
<path fill="none" stroke="#63b8ff" d="M1253.96,-54.48C1307.57,-44.07 1394.63,-27.17 1443.75,-17.64"/>
<polygon fill="#63b8ff" stroke="#63b8ff" points="1253.18,-51.07 1244.03,-56.41 1254.52,-57.94 1253.18,-51.07"/>
</a>
</g>
</g>
</g>
</svg>
