<?xml version="1.0" encoding="UTF-8" standalone="no"?>
<!DOCTYPE svg PUBLIC "-//W3C//DTD SVG 1.1//EN"
 "http://www.w3.org/Graphics/SVG/1.1/DTD/svg11.dtd">
<!-- Generated by graphviz version 2.43.0 (0)
 -->
<!-- Title: traffic_mngr.h Pages: 1 -->
<svg width="127pt" height="308pt"
 viewBox="0.00 0.00 126.50 308.00" xmlns="http://www.w3.org/2000/svg" xmlns:xlink="http://www.w3.org/1999/xlink">
<g id="graph0" class="graph" transform="scale(1 1) rotate(0) translate(4 304)">
<title>traffic_mngr.h</title>
<polygon fill="white" stroke="transparent" points="-4,4 -4,-304 122.5,-304 122.5,4 -4,4"/>
<!-- Node1 -->
<g id="node1" class="node">
<title>Node1</title>
<g id="a_node1"><a xlink:title="ODP Traffic manager.">
<polygon fill="#bfbfbf" stroke="black" points="34.5,-280.5 34.5,-299.5 118.5,-299.5 118.5,-280.5 34.5,-280.5"/>
<text text-anchor="middle" x="76.5" y="-287.5" font-family="Helvetica,sans-Serif" font-size="10.00">traffic_mngr.h</text>
</a>
</g>
</g>
<!-- Node2 -->
<g id="node2" class="node">
<title>Node2</title>
<g id="a_node2"><a xlink:href="api_2spec_2ipsec__types_8h.html" target="_top" xlink:title="ODP IPsec API type definitions.">
<polygon fill="white" stroke="black" points="0,-224.5 0,-243.5 83,-243.5 83,-224.5 0,-224.5"/>
<text text-anchor="middle" x="41.5" y="-231.5" font-family="Helvetica,sans-Serif" font-size="10.00">ipsec_types.h</text>
</a>
</g>
</g>
<!-- Node1&#45;&gt;Node2 -->
<g id="edge1" class="edge">
<title>Node1&#45;&gt;Node2</title>
<path fill="none" stroke="midnightblue" d="M65.2,-271.57C59.18,-262.27 52.03,-251.25 47.17,-243.75"/>
<polygon fill="midnightblue" stroke="midnightblue" points="62.34,-273.6 70.72,-280.08 68.22,-269.79 62.34,-273.6"/>
</g>
<!-- Node6 -->
<g id="node6" class="node">
<title>Node6</title>
<g id="a_node6"><a xlink:href="odp__api_8h.html" target="_top" xlink:title="The OpenDataPlane API.">
<polygon fill="white" stroke="black" points="48.5,-0.5 48.5,-19.5 112.5,-19.5 112.5,-0.5 48.5,-0.5"/>
<text text-anchor="middle" x="80.5" y="-7.5" font-family="Helvetica,sans-Serif" font-size="10.00">odp_api.h</text>
</a>
</g>
</g>
<!-- Node1&#45;&gt;Node6 -->
<g id="edge6" class="edge">
<title>Node1&#45;&gt;Node6</title>
<path fill="none" stroke="midnightblue" d="M85.82,-271.37C96.19,-250.09 111.5,-212.93 111.5,-179 111.5,-179 111.5,-179 111.5,-121 111.5,-81.91 93.14,-37.84 84.68,-19.61"/>
<polygon fill="midnightblue" stroke="midnightblue" points="82.62,-269.95 81.22,-280.46 88.86,-273.12 82.62,-269.95"/>
</g>
<!-- Node3 -->
<g id="node3" class="node">
<title>Node3</title>
<g id="a_node3"><a xlink:href="api_2ipsec__types_8h.html" target="_top" xlink:title="ODP IPsec.">
<polygon fill="white" stroke="black" points="0,-168.5 0,-187.5 83,-187.5 83,-168.5 0,-168.5"/>
<text text-anchor="middle" x="41.5" y="-175.5" font-family="Helvetica,sans-Serif" font-size="10.00">ipsec_types.h</text>
</a>
</g>
</g>
<!-- Node2&#45;&gt;Node3 -->
<g id="edge2" class="edge">
<title>Node2&#45;&gt;Node3</title>
<path fill="none" stroke="midnightblue" d="M41.5,-213.8C41.5,-204.91 41.5,-194.78 41.5,-187.75"/>
<polygon fill="midnightblue" stroke="midnightblue" points="38,-214.08 41.5,-224.08 45,-214.08 38,-214.08"/>
</g>
<!-- Node4 -->
<g id="node4" class="node">
<title>Node4</title>
<g id="a_node4"><a xlink:href="api_2spec_2ipsec_8h.html" target="_top" xlink:title="ODP IPsec API.">
<polygon fill="white" stroke="black" points="24,-112.5 24,-131.5 75,-131.5 75,-112.5 24,-112.5"/>
<text text-anchor="middle" x="49.5" y="-119.5" font-family="Helvetica,sans-Serif" font-size="10.00">ipsec.h</text>
</a>
</g>
</g>
<!-- Node3&#45;&gt;Node4 -->
<g id="edge3" class="edge">
<title>Node3&#45;&gt;Node4</title>
<path fill="none" stroke="midnightblue" d="M44.3,-158.1C45.63,-149.14 47.15,-138.86 48.2,-131.75"/>
<polygon fill="midnightblue" stroke="midnightblue" points="40.82,-157.68 42.82,-168.08 47.75,-158.7 40.82,-157.68"/>
</g>
<!-- Node5 -->
<g id="node5" class="node">
<title>Node5</title>
<g id="a_node5"><a xlink:href="api_2ipsec_8h.html" target="_top" xlink:title="ODP IPSEC API &#45; platform specific header.">
<polygon fill="white" stroke="black" points="28,-56.5 28,-75.5 79,-75.5 79,-56.5 28,-56.5"/>
<text text-anchor="middle" x="53.5" y="-63.5" font-family="Helvetica,sans-Serif" font-size="10.00">ipsec.h</text>
</a>
</g>
</g>
<!-- Node4&#45;&gt;Node5 -->
<g id="edge4" class="edge">
<title>Node4&#45;&gt;Node5</title>
<path fill="none" stroke="midnightblue" d="M50.9,-102.1C51.56,-93.14 52.33,-82.86 52.85,-75.75"/>
<polygon fill="midnightblue" stroke="midnightblue" points="47.41,-101.85 50.16,-112.08 54.39,-102.37 47.41,-101.85"/>
</g>
<!-- Node5&#45;&gt;Node6 -->
<g id="edge5" class="edge">
<title>Node5&#45;&gt;Node6</title>
<path fill="none" stroke="midnightblue" d="M62.51,-46.98C67.09,-37.82 72.45,-27.09 76.12,-19.75"/>
<polygon fill="midnightblue" stroke="midnightblue" points="59.3,-45.57 57.96,-56.08 65.56,-48.7 59.3,-45.57"/>
</g>
</g>
</svg>
