<?xml version="1.0" encoding="UTF-8" standalone="no"?>
<!DOCTYPE svg PUBLIC "-//W3C//DTD SVG 1.1//EN"
 "http://www.w3.org/Graphics/SVG/1.1/DTD/svg11.dtd">
<!-- Generated by graphviz version 2.43.0 (0)
 -->
<!-- Title: ml_types.h Pages: 1 -->
<svg width="1041pt" height="755pt"
 viewBox="0.00 0.00 1041.00 755.00" xmlns="http://www.w3.org/2000/svg" xmlns:xlink="http://www.w3.org/1999/xlink">
<g id="graph0" class="graph" transform="scale(1 1) rotate(0) translate(4 751)">
<title>ml_types.h</title>
<polygon fill="white" stroke="transparent" points="-4,4 -4,-751 1037,-751 1037,4 -4,4"/>
<!-- Node1 -->
<g id="node1" class="node">
<title>Node1</title>
<g id="a_node1"><a xlink:title="ODP Machine Learning (ML) types.">
<polygon fill="#bfbfbf" stroke="black" points="369.5,-727.5 369.5,-746.5 440.5,-746.5 440.5,-727.5 369.5,-727.5"/>
<text text-anchor="middle" x="405" y="-734.5" font-family="Helvetica,sans-Serif" font-size="10.00">ml_types.h</text>
</a>
</g>
</g>
<!-- Node2 -->
<g id="node2" class="node">
<title>Node2</title>
<g id="a_node2"><a xlink:title=" ">
<polygon fill="white" stroke="#bfbfbf" points="266,-671.5 266,-690.5 394,-690.5 394,-671.5 266,-671.5"/>
<text text-anchor="middle" x="330" y="-678.5" font-family="Helvetica,sans-Serif" font-size="10.00">odp/api/abi/ml_types.h</text>
</a>
</g>
</g>
<!-- Node1&#45;&gt;Node2 -->
<g id="edge1" class="edge">
<title>Node1&#45;&gt;Node2</title>
<path fill="none" stroke="midnightblue" d="M392.95,-727.32C381.54,-719.11 364.17,-706.6 350.57,-696.81"/>
<polygon fill="midnightblue" stroke="midnightblue" points="352.43,-693.84 342.27,-690.83 348.34,-699.52 352.43,-693.84"/>
</g>
<!-- Node3 -->
<g id="node3" class="node">
<title>Node3</title>
<g id="a_node3"><a xlink:href="api_2spec_2ml__types_8h.html" target="_top" xlink:title="ODP Machine Learning (ML) types.">
<polygon fill="white" stroke="black" points="412.5,-671.5 412.5,-690.5 547.5,-690.5 547.5,-671.5 412.5,-671.5"/>
<text text-anchor="middle" x="480" y="-678.5" font-family="Helvetica,sans-Serif" font-size="10.00">odp/api/spec/ml_types.h</text>
</a>
</g>
</g>
<!-- Node1&#45;&gt;Node3 -->
<g id="edge2" class="edge">
<title>Node1&#45;&gt;Node3</title>
<path fill="none" stroke="midnightblue" d="M417.05,-727.32C428.46,-719.11 445.83,-706.6 459.43,-696.81"/>
<polygon fill="midnightblue" stroke="midnightblue" points="461.66,-699.52 467.73,-690.83 457.57,-693.84 461.66,-699.52"/>
</g>
<!-- Node4 -->
<g id="node4" class="node">
<title>Node4</title>
<g id="a_node4"><a xlink:href="visibility__begin_8h_source.html" target="_top" xlink:title=" ">
<polygon fill="white" stroke="black" points="292.5,-0.5 292.5,-19.5 413.5,-19.5 413.5,-0.5 292.5,-0.5"/>
<text text-anchor="middle" x="353" y="-7.5" font-family="Helvetica,sans-Serif" font-size="10.00">odp/visibility_begin.h</text>
</a>
</g>
</g>
<!-- Node3&#45;&gt;Node4 -->
<g id="edge3" class="edge">
<title>Node3&#45;&gt;Node4</title>
<path fill="none" stroke="midnightblue" d="M412.4,-671.6C338.03,-662.04 223.42,-646.3 181,-635 97.58,-612.77 0,-650.83 0,-564.5 0,-564.5 0,-564.5 0,-132 0,-84.86 32.17,-77.74 74,-56 109.27,-37.67 211.66,-24.52 282.08,-17.33"/>
<polygon fill="midnightblue" stroke="midnightblue" points="282.62,-20.79 292.22,-16.31 281.93,-13.83 282.62,-20.79"/>
</g>
<!-- Node5 -->
<g id="node5" class="node">
<title>Node5</title>
<g id="a_node5"><a xlink:href="api_2event__types_8h.html" target="_top" xlink:title="ODP event API type definitions.">
<polygon fill="white" stroke="black" points="114.5,-235.5 114.5,-254.5 239.5,-254.5 239.5,-235.5 114.5,-235.5"/>
<text text-anchor="middle" x="177" y="-242.5" font-family="Helvetica,sans-Serif" font-size="10.00">odp/api/event_types.h</text>
</a>
</g>
</g>
<!-- Node3&#45;&gt;Node5 -->
<g id="edge4" class="edge">
<title>Node3&#45;&gt;Node5</title>
<path fill="none" stroke="midnightblue" d="M432.47,-671.45C325.67,-651.58 76,-601.2 76,-564.5 76,-564.5 76,-564.5 76,-372.5 76,-335.31 72.52,-320.63 95,-291 106.13,-276.32 123.51,-265.82 139.4,-258.67"/>
<polygon fill="midnightblue" stroke="midnightblue" points="141.15,-261.73 149.03,-254.64 138.46,-255.27 141.15,-261.73"/>
</g>
<!-- Node8 -->
<g id="node8" class="node">
<title>Node8</title>
<g id="a_node8"><a xlink:href="visibility__end_8h_source.html" target="_top" xlink:title=" ">
<polygon fill="white" stroke="black" points="812,-0.5 812,-19.5 924,-19.5 924,-0.5 812,-0.5"/>
<text text-anchor="middle" x="868" y="-7.5" font-family="Helvetica,sans-Serif" font-size="10.00">odp/visibility_end.h</text>
</a>
</g>
</g>
<!-- Node3&#45;&gt;Node8 -->
<g id="edge46" class="edge">
<title>Node3&#45;&gt;Node8</title>
<path fill="none" stroke="midnightblue" d="M547.53,-679.92C695.05,-677.92 1033,-662.64 1033,-564.5 1033,-564.5 1033,-564.5 1033,-132 1033,-71.85 960.81,-38.33 911.93,-22.53"/>
<polygon fill="midnightblue" stroke="midnightblue" points="912.78,-19.13 902.19,-19.52 910.71,-25.82 912.78,-19.13"/>
</g>
<!-- Node9 -->
<g id="node9" class="node">
<title>Node9</title>
<g id="a_node9"><a xlink:href="api_2queue__types_8h.html" target="_top" xlink:title="ODP queue.">
<polygon fill="white" stroke="black" points="416.5,-615.5 416.5,-634.5 543.5,-634.5 543.5,-615.5 416.5,-615.5"/>
<text text-anchor="middle" x="480" y="-622.5" font-family="Helvetica,sans-Serif" font-size="10.00">odp/api/queue_types.h</text>
</a>
</g>
</g>
<!-- Node3&#45;&gt;Node9 -->
<g id="edge9" class="edge">
<title>Node3&#45;&gt;Node9</title>
<path fill="none" stroke="midnightblue" d="M480,-671.08C480,-664.01 480,-653.86 480,-644.99"/>
<polygon fill="midnightblue" stroke="midnightblue" points="483.5,-644.75 480,-634.75 476.5,-644.75 483.5,-644.75"/>
</g>
<!-- Node16 -->
<g id="node16" class="node">
<title>Node16</title>
<g id="a_node16"><a xlink:href="api_2std__types_8h.html" target="_top" xlink:title="Standard C language types and definitions for ODP.">
<polygon fill="white" stroke="black" points="584,-235.5 584,-254.5 696,-254.5 696,-235.5 584,-235.5"/>
<text text-anchor="middle" x="640" y="-242.5" font-family="Helvetica,sans-Serif" font-size="10.00">odp/api/std_types.h</text>
</a>
</g>
</g>
<!-- Node3&#45;&gt;Node16 -->
<g id="edge45" class="edge">
<title>Node3&#45;&gt;Node16</title>
<path fill="none" stroke="midnightblue" d="M547.59,-678.86C687.31,-674.67 995,-655.16 995,-564.5 995,-564.5 995,-564.5 995,-439.5 995,-361.15 965.26,-334.36 900,-291 868.97,-270.38 772.42,-257.8 706.12,-251.36"/>
<polygon fill="midnightblue" stroke="midnightblue" points="706.45,-247.88 696.17,-250.42 705.79,-254.85 706.45,-247.88"/>
</g>
<!-- Node6 -->
<g id="node6" class="node">
<title>Node6</title>
<g id="a_node6"><a xlink:title=" ">
<polygon fill="white" stroke="#bfbfbf" points="101.5,-179.5 101.5,-198.5 244.5,-198.5 244.5,-179.5 101.5,-179.5"/>
<text text-anchor="middle" x="173" y="-186.5" font-family="Helvetica,sans-Serif" font-size="10.00">odp/api/abi/event_types.h</text>
</a>
</g>
</g>
<!-- Node5&#45;&gt;Node6 -->
<g id="edge5" class="edge">
<title>Node5&#45;&gt;Node6</title>
<path fill="none" stroke="midnightblue" d="M176.34,-235.08C175.82,-228.01 175.06,-217.86 174.41,-208.99"/>
<polygon fill="midnightblue" stroke="midnightblue" points="177.88,-208.47 173.65,-198.75 170.9,-208.98 177.88,-208.47"/>
</g>
<!-- Node7 -->
<g id="node7" class="node">
<title>Node7</title>
<g id="a_node7"><a xlink:href="api_2spec_2event__types_8h.html" target="_top" xlink:title="ODP event API type definitions.">
<polygon fill="white" stroke="black" points="339.5,-56.5 339.5,-86.5 448.5,-86.5 448.5,-56.5 339.5,-56.5"/>
<text text-anchor="start" x="347.5" y="-74.5" font-family="Helvetica,sans-Serif" font-size="10.00">odp/api/spec/event</text>
<text text-anchor="middle" x="394" y="-63.5" font-family="Helvetica,sans-Serif" font-size="10.00">_types.h</text>
</a>
</g>
</g>
<!-- Node5&#45;&gt;Node7 -->
<g id="edge6" class="edge">
<title>Node5&#45;&gt;Node7</title>
<path fill="none" stroke="midnightblue" d="M193.6,-235.4C209.4,-226.94 233.59,-213.24 253,-199 298.37,-165.71 346.08,-120.41 372.74,-94.02"/>
<polygon fill="midnightblue" stroke="midnightblue" points="375.38,-96.33 379.99,-86.79 370.44,-91.37 375.38,-96.33"/>
</g>
<!-- Node7&#45;&gt;Node4 -->
<g id="edge7" class="edge">
<title>Node7&#45;&gt;Node4</title>
<path fill="none" stroke="midnightblue" d="M384.28,-56.4C378.45,-47.93 370.98,-37.1 364.81,-28.14"/>
<polygon fill="midnightblue" stroke="midnightblue" points="367.52,-25.91 358.97,-19.66 361.76,-29.88 367.52,-25.91"/>
</g>
<!-- Node7&#45;&gt;Node8 -->
<g id="edge8" class="edge">
<title>Node7&#45;&gt;Node8</title>
<path fill="none" stroke="midnightblue" d="M448.84,-63.62C536.42,-52.62 707.59,-31.14 801.83,-19.31"/>
<polygon fill="midnightblue" stroke="midnightblue" points="802.34,-22.77 811.82,-18.05 801.46,-15.82 802.34,-22.77"/>
</g>
<!-- Node10 -->
<g id="node10" class="node">
<title>Node10</title>
<g id="a_node10"><a xlink:title=" ">
<polygon fill="white" stroke="#bfbfbf" points="480.5,-554 480.5,-573 625.5,-573 625.5,-554 480.5,-554"/>
<text text-anchor="middle" x="553" y="-561" font-family="Helvetica,sans-Serif" font-size="10.00">odp/api/abi/queue_types.h</text>
</a>
</g>
</g>
<!-- Node9&#45;&gt;Node10 -->
<g id="edge10" class="edge">
<title>Node9&#45;&gt;Node10</title>
<path fill="none" stroke="midnightblue" d="M490.46,-615.48C501.95,-606.11 520.63,-590.88 534.59,-579.51"/>
<polygon fill="midnightblue" stroke="midnightblue" points="537.02,-582.04 542.56,-573.01 532.6,-576.61 537.02,-582.04"/>
</g>
<!-- Node11 -->
<g id="node11" class="node">
<title>Node11</title>
<g id="a_node11"><a xlink:href="api_2spec_2queue__types_8h.html" target="_top" xlink:title="ODP queue types.">
<polygon fill="white" stroke="black" points="351.5,-548.5 351.5,-578.5 462.5,-578.5 462.5,-548.5 351.5,-548.5"/>
<text text-anchor="start" x="359.5" y="-566.5" font-family="Helvetica,sans-Serif" font-size="10.00">odp/api/spec/queue</text>
<text text-anchor="middle" x="407" y="-555.5" font-family="Helvetica,sans-Serif" font-size="10.00">_types.h</text>
</a>
</g>
</g>
<!-- Node9&#45;&gt;Node11 -->
<g id="edge11" class="edge">
<title>Node9&#45;&gt;Node11</title>
<path fill="none" stroke="midnightblue" d="M469.54,-615.48C459.84,-607.57 445.01,-595.48 432.23,-585.07"/>
<polygon fill="midnightblue" stroke="midnightblue" points="434.17,-582.13 424.2,-578.52 429.74,-587.55 434.17,-582.13"/>
</g>
<!-- Node11&#45;&gt;Node4 -->
<g id="edge12" class="edge">
<title>Node11&#45;&gt;Node4</title>
<path fill="none" stroke="midnightblue" d="M363.22,-548.44C265.48,-514.01 38,-415.64 38,-246 38,-246 38,-246 38,-132 38,-78 201.33,-39.03 292.77,-21.44"/>
<polygon fill="midnightblue" stroke="midnightblue" points="293.56,-24.85 302.74,-19.56 292.26,-17.98 293.56,-24.85"/>
</g>
<!-- Node11&#45;&gt;Node8 -->
<g id="edge44" class="edge">
<title>Node11&#45;&gt;Node8</title>
<path fill="none" stroke="midnightblue" d="M462.2,-548.41C549.58,-524.52 723.06,-470.57 852,-389 888.67,-365.8 892.29,-352.65 923,-322 955.93,-289.13 995,-292.53 995,-246 995,-246 995,-246 995,-132 995,-79.02 936.36,-42.17 898.77,-23.99"/>
<polygon fill="midnightblue" stroke="midnightblue" points="899.8,-20.61 889.26,-19.57 896.85,-26.96 899.8,-20.61"/>
</g>
<!-- Node12 -->
<g id="node12" class="node">
<title>Node12</title>
<g id="a_node12"><a xlink:href="api_2event__vector__types_8h.html" target="_top" xlink:title="ODP event vector API type definitions.">
<polygon fill="white" stroke="black" points="298.5,-358.5 298.5,-388.5 417.5,-388.5 417.5,-358.5 298.5,-358.5"/>
<text text-anchor="start" x="306.5" y="-376.5" font-family="Helvetica,sans-Serif" font-size="10.00">odp/api/event_vector</text>
<text text-anchor="middle" x="358" y="-365.5" font-family="Helvetica,sans-Serif" font-size="10.00">_types.h</text>
</a>
</g>
</g>
<!-- Node11&#45;&gt;Node12 -->
<g id="edge13" class="edge">
<title>Node11&#45;&gt;Node12</title>
<path fill="none" stroke="midnightblue" d="M396.42,-548.24C389.76,-538.52 381.58,-525.09 377,-512 363.65,-473.85 359.64,-426.66 358.46,-398.66"/>
<polygon fill="midnightblue" stroke="midnightblue" points="361.95,-398.47 358.12,-388.59 354.96,-398.7 361.95,-398.47"/>
</g>
<!-- Node23 -->
<g id="node23" class="node">
<title>Node23</title>
<g id="a_node23"><a xlink:href="api_2schedule__types_8h.html" target="_top" xlink:title="ODP schedule.">
<polygon fill="white" stroke="black" points="386,-492.5 386,-511.5 526,-511.5 526,-492.5 386,-492.5"/>
<text text-anchor="middle" x="456" y="-499.5" font-family="Helvetica,sans-Serif" font-size="10.00">odp/api/schedule_types.h</text>
</a>
</g>
</g>
<!-- Node11&#45;&gt;Node23 -->
<g id="edge31" class="edge">
<title>Node11&#45;&gt;Node23</title>
<path fill="none" stroke="midnightblue" d="M418.61,-548.4C425.73,-539.75 434.88,-528.64 442.35,-519.58"/>
<polygon fill="midnightblue" stroke="midnightblue" points="445.21,-521.6 448.87,-511.66 439.81,-517.15 445.21,-521.6"/>
</g>
<!-- Node13 -->
<g id="node13" class="node">
<title>Node13</title>
<g id="a_node13"><a xlink:title=" ">
<polygon fill="white" stroke="#bfbfbf" points="104.5,-291.5 104.5,-321.5 241.5,-321.5 241.5,-291.5 104.5,-291.5"/>
<text text-anchor="start" x="112.5" y="-309.5" font-family="Helvetica,sans-Serif" font-size="10.00">odp/api/abi/event_vector</text>
<text text-anchor="middle" x="173" y="-298.5" font-family="Helvetica,sans-Serif" font-size="10.00">_types.h</text>
</a>
</g>
</g>
<!-- Node12&#45;&gt;Node13 -->
<g id="edge14" class="edge">
<title>Node12&#45;&gt;Node13</title>
<path fill="none" stroke="midnightblue" d="M317.86,-358.4C289.98,-348.6 252.64,-335.48 222.85,-325.02"/>
<polygon fill="midnightblue" stroke="midnightblue" points="223.66,-321.59 213.06,-321.58 221.34,-328.19 223.66,-321.59"/>
</g>
<!-- Node14 -->
<g id="node14" class="node">
<title>Node14</title>
<g id="a_node14"><a xlink:title=" ">
<polygon fill="white" stroke="#bfbfbf" points="260,-297 260,-316 396,-316 396,-297 260,-297"/>
<text text-anchor="middle" x="328" y="-304" font-family="Helvetica,sans-Serif" font-size="10.00">odp/api/abi/pool_types.h</text>
</a>
</g>
</g>
<!-- Node12&#45;&gt;Node14 -->
<g id="edge15" class="edge">
<title>Node12&#45;&gt;Node14</title>
<path fill="none" stroke="midnightblue" d="M351.49,-358.4C347.04,-348.76 341.11,-335.91 336.32,-325.54"/>
<polygon fill="midnightblue" stroke="midnightblue" points="339.38,-323.81 332.01,-316.19 333.03,-326.74 339.38,-323.81"/>
</g>
<!-- Node15 -->
<g id="node15" class="node">
<title>Node15</title>
<g id="a_node15"><a xlink:href="api_2spec_2event__vector__types_8h.html" target="_top" xlink:title="ODP event vector API type definitions.">
<polygon fill="white" stroke="black" points="414.5,-291.5 414.5,-321.5 523.5,-321.5 523.5,-291.5 414.5,-291.5"/>
<text text-anchor="start" x="422.5" y="-309.5" font-family="Helvetica,sans-Serif" font-size="10.00">odp/api/spec/event</text>
<text text-anchor="middle" x="469" y="-298.5" font-family="Helvetica,sans-Serif" font-size="10.00">_vector_types.h</text>
</a>
</g>
</g>
<!-- Node12&#45;&gt;Node15 -->
<g id="edge16" class="edge">
<title>Node12&#45;&gt;Node15</title>
<path fill="none" stroke="midnightblue" d="M382.09,-358.4C397.94,-349.11 418.89,-336.84 436.26,-326.67"/>
<polygon fill="midnightblue" stroke="midnightblue" points="438.1,-329.65 444.96,-321.58 434.56,-323.61 438.1,-329.65"/>
</g>
<!-- Node15&#45;&gt;Node4 -->
<g id="edge17" class="edge">
<title>Node15&#45;&gt;Node4</title>
<path fill="none" stroke="midnightblue" d="M430.28,-291.5C373.16,-269.63 273,-226.14 273,-190 273,-190 273,-190 273,-132 273,-96.58 277,-85.24 297,-56 305.39,-43.73 318.1,-33.14 329.29,-25.31"/>
<polygon fill="midnightblue" stroke="midnightblue" points="331.43,-28.1 337.83,-19.66 327.56,-22.26 331.43,-28.1"/>
</g>
<!-- Node15&#45;&gt;Node5 -->
<g id="edge18" class="edge">
<title>Node15&#45;&gt;Node5</title>
<path fill="none" stroke="midnightblue" d="M414.21,-292.98C411.1,-292.3 408.01,-291.64 405,-291 346.1,-278.52 278.41,-265.3 232.17,-256.44"/>
<polygon fill="midnightblue" stroke="midnightblue" points="232.55,-252.95 222.07,-254.51 231.23,-259.83 232.55,-252.95"/>
</g>
<!-- Node15&#45;&gt;Node8 -->
<g id="edge30" class="edge">
<title>Node15&#45;&gt;Node8</title>
<path fill="none" stroke="midnightblue" d="M487.31,-291.32C507.81,-275.94 542.43,-251.39 575,-235 617.2,-213.77 633.13,-220.86 675,-199 712.35,-179.5 800.74,-119.13 828,-87 842.88,-69.47 854.35,-45.48 861.11,-29.17"/>
<polygon fill="midnightblue" stroke="midnightblue" points="864.43,-30.3 864.87,-19.71 857.93,-27.72 864.43,-30.3"/>
</g>
<!-- Node15&#45;&gt;Node16 -->
<g id="edge19" class="edge">
<title>Node15&#45;&gt;Node16</title>
<path fill="none" stroke="midnightblue" d="M509.52,-291.4C538.73,-281.24 577.72,-267.67 605.45,-258.02"/>
<polygon fill="midnightblue" stroke="midnightblue" points="606.82,-261.25 615.12,-254.66 604.52,-254.64 606.82,-261.25"/>
</g>
<!-- Node17 -->
<g id="node17" class="node">
<title>Node17</title>
<g id="a_node17"><a xlink:title=" ">
<polygon fill="white" stroke="#bfbfbf" points="722,-179.5 722,-198.5 852,-198.5 852,-179.5 722,-179.5"/>
<text text-anchor="middle" x="787" y="-186.5" font-family="Helvetica,sans-Serif" font-size="10.00">odp/api/abi/std_types.h</text>
</a>
</g>
</g>
<!-- Node16&#45;&gt;Node17 -->
<g id="edge20" class="edge">
<title>Node16&#45;&gt;Node17</title>
<path fill="none" stroke="midnightblue" d="M663.29,-235.44C687.81,-226.44 726.6,-212.19 754.2,-202.05"/>
<polygon fill="midnightblue" stroke="midnightblue" points="755.64,-205.25 763.82,-198.52 753.22,-198.68 755.64,-205.25"/>
</g>
<!-- Node18 -->
<g id="node18" class="node">
<title>Node18</title>
<g id="a_node18"><a xlink:href="api_2spec_2std__types_8h.html" target="_top" xlink:title="Common types and definitions for ODP API files.">
<polygon fill="white" stroke="black" points="528.5,-179.5 528.5,-198.5 665.5,-198.5 665.5,-179.5 528.5,-179.5"/>
<text text-anchor="middle" x="597" y="-186.5" font-family="Helvetica,sans-Serif" font-size="10.00">odp/api/spec/std_types.h</text>
</a>
</g>
</g>
<!-- Node16&#45;&gt;Node18 -->
<g id="edge21" class="edge">
<title>Node16&#45;&gt;Node18</title>
<path fill="none" stroke="midnightblue" d="M632.9,-235.08C626.76,-227.38 617.73,-216.03 610.26,-206.65"/>
<polygon fill="midnightblue" stroke="midnightblue" points="612.94,-204.39 603.97,-198.75 607.46,-208.75 612.94,-204.39"/>
</g>
<!-- Node18&#45;&gt;Node4 -->
<g id="edge22" class="edge">
<title>Node18&#45;&gt;Node4</title>
<path fill="none" stroke="midnightblue" d="M586.15,-179.38C575.71,-170.79 559.81,-156.91 548,-143 518.08,-107.76 527.72,-84.09 491,-56 469.27,-39.37 441.14,-28.76 415.96,-22.04"/>
<polygon fill="midnightblue" stroke="midnightblue" points="416.66,-18.61 406.11,-19.57 414.95,-25.4 416.66,-18.61"/>
</g>
<!-- Node18&#45;&gt;Node8 -->
<g id="edge29" class="edge">
<title>Node18&#45;&gt;Node8</title>
<path fill="none" stroke="midnightblue" d="M632.45,-179.44C659.24,-172.08 696.35,-159.96 726,-143 780.84,-111.63 831.59,-55.31 854.78,-27.48"/>
<polygon fill="midnightblue" stroke="midnightblue" points="857.67,-29.47 861.3,-19.52 852.26,-25.03 857.67,-29.47"/>
</g>
<!-- Node19 -->
<g id="node19" class="node">
<title>Node19</title>
<g id="a_node19"><a xlink:title=" ">
<polygon fill="white" stroke="#bfbfbf" points="556.5,-123.5 556.5,-142.5 609.5,-142.5 609.5,-123.5 556.5,-123.5"/>
<text text-anchor="middle" x="583" y="-130.5" font-family="Helvetica,sans-Serif" font-size="10.00">stdint.h</text>
</a>
</g>
</g>
<!-- Node18&#45;&gt;Node19 -->
<g id="edge23" class="edge">
<title>Node18&#45;&gt;Node19</title>
<path fill="none" stroke="midnightblue" d="M594.69,-179.08C592.83,-171.93 590.16,-161.64 587.85,-152.69"/>
<polygon fill="midnightblue" stroke="midnightblue" points="591.17,-151.55 585.27,-142.75 584.39,-153.31 591.17,-151.55"/>
</g>
<!-- Node20 -->
<g id="node20" class="node">
<title>Node20</title>
<g id="a_node20"><a xlink:href="api_2align_8h.html" target="_top" xlink:title="ODP alignments.">
<polygon fill="white" stroke="black" points="627.5,-123.5 627.5,-142.5 716.5,-142.5 716.5,-123.5 627.5,-123.5"/>
<text text-anchor="middle" x="672" y="-130.5" font-family="Helvetica,sans-Serif" font-size="10.00">odp/api/align.h</text>
</a>
</g>
</g>
<!-- Node18&#45;&gt;Node20 -->
<g id="edge24" class="edge">
<title>Node18&#45;&gt;Node20</title>
<path fill="none" stroke="midnightblue" d="M609.05,-179.32C620.46,-171.11 637.83,-158.6 651.43,-148.81"/>
<polygon fill="midnightblue" stroke="midnightblue" points="653.66,-151.52 659.73,-142.83 649.57,-145.84 653.66,-151.52"/>
</g>
<!-- Node21 -->
<g id="node21" class="node">
<title>Node21</title>
<g id="a_node21"><a xlink:title=" ">
<polygon fill="white" stroke="#bfbfbf" points="675.5,-62 675.5,-81 782.5,-81 782.5,-62 675.5,-62"/>
<text text-anchor="middle" x="729" y="-69" font-family="Helvetica,sans-Serif" font-size="10.00">odp/api/abi/align.h</text>
</a>
</g>
</g>
<!-- Node20&#45;&gt;Node21 -->
<g id="edge25" class="edge">
<title>Node20&#45;&gt;Node21</title>
<path fill="none" stroke="midnightblue" d="M680.17,-123.48C688.89,-114.37 702.9,-99.74 713.69,-88.48"/>
<polygon fill="midnightblue" stroke="midnightblue" points="716.46,-90.65 720.85,-81.01 711.4,-85.81 716.46,-90.65"/>
</g>
<!-- Node22 -->
<g id="node22" class="node">
<title>Node22</title>
<g id="a_node22"><a xlink:href="api_2spec_2align_8h.html" target="_top" xlink:title="ODP alignments.">
<polygon fill="white" stroke="black" points="543,-62 543,-81 657,-81 657,-62 543,-62"/>
<text text-anchor="middle" x="600" y="-69" font-family="Helvetica,sans-Serif" font-size="10.00">odp/api/spec/align.h</text>
</a>
</g>
</g>
<!-- Node20&#45;&gt;Node22 -->
<g id="edge26" class="edge">
<title>Node20&#45;&gt;Node22</title>
<path fill="none" stroke="midnightblue" d="M661.68,-123.48C650.35,-114.11 631.93,-98.88 618.16,-87.51"/>
<polygon fill="midnightblue" stroke="midnightblue" points="620.23,-84.68 610.3,-81.01 615.78,-90.08 620.23,-84.68"/>
</g>
<!-- Node22&#45;&gt;Node4 -->
<g id="edge27" class="edge">
<title>Node22&#45;&gt;Node4</title>
<path fill="none" stroke="midnightblue" d="M564.61,-61.98C520.77,-51.42 446.03,-33.41 398.12,-21.87"/>
<polygon fill="midnightblue" stroke="midnightblue" points="398.87,-18.45 388.32,-19.51 397.23,-25.25 398.87,-18.45"/>
</g>
<!-- Node22&#45;&gt;Node8 -->
<g id="edge28" class="edge">
<title>Node22&#45;&gt;Node8</title>
<path fill="none" stroke="midnightblue" d="M638.4,-61.98C686.16,-51.37 767.74,-33.26 819.7,-21.72"/>
<polygon fill="midnightblue" stroke="midnightblue" points="820.67,-25.09 829.67,-19.51 819.15,-18.26 820.67,-25.09"/>
</g>
<!-- Node24 -->
<g id="node24" class="node">
<title>Node24</title>
<g id="a_node24"><a xlink:title=" ">
<polygon fill="white" stroke="#bfbfbf" points="392.5,-425.5 392.5,-455.5 509.5,-455.5 509.5,-425.5 392.5,-425.5"/>
<text text-anchor="start" x="400.5" y="-443.5" font-family="Helvetica,sans-Serif" font-size="10.00">odp/api/abi/schedule</text>
<text text-anchor="middle" x="451" y="-432.5" font-family="Helvetica,sans-Serif" font-size="10.00">_types.h</text>
</a>
</g>
</g>
<!-- Node23&#45;&gt;Node24 -->
<g id="edge32" class="edge">
<title>Node23&#45;&gt;Node24</title>
<path fill="none" stroke="midnightblue" d="M455.28,-492.48C454.7,-485.47 453.83,-475.19 453.03,-465.7"/>
<polygon fill="midnightblue" stroke="midnightblue" points="456.5,-465.19 452.18,-455.52 449.53,-465.78 456.5,-465.19"/>
</g>
<!-- Node25 -->
<g id="node25" class="node">
<title>Node25</title>
<g id="a_node25"><a xlink:href="api_2spec_2schedule__types_8h.html" target="_top" xlink:title="ODP schedule types.">
<polygon fill="white" stroke="black" points="527.5,-425.5 527.5,-455.5 652.5,-455.5 652.5,-425.5 527.5,-425.5"/>
<text text-anchor="start" x="535.5" y="-443.5" font-family="Helvetica,sans-Serif" font-size="10.00">odp/api/spec/schedule</text>
<text text-anchor="middle" x="590" y="-432.5" font-family="Helvetica,sans-Serif" font-size="10.00">_types.h</text>
</a>
</g>
</g>
<!-- Node23&#45;&gt;Node25 -->
<g id="edge33" class="edge">
<title>Node23&#45;&gt;Node25</title>
<path fill="none" stroke="midnightblue" d="M475.2,-492.48C494.37,-483.96 524.42,-470.62 548.97,-459.72"/>
<polygon fill="midnightblue" stroke="midnightblue" points="550.7,-462.78 558.42,-455.52 547.86,-456.38 550.7,-462.78"/>
</g>
<!-- Node25&#45;&gt;Node4 -->
<g id="edge34" class="edge">
<title>Node25&#45;&gt;Node4</title>
<path fill="none" stroke="midnightblue" d="M586.61,-425.07C579.66,-397.42 561.97,-335.73 533,-291 463.47,-183.64 378.8,-205.23 330,-87 321.9,-67.37 331.87,-43.85 341.1,-28.23"/>
<polygon fill="midnightblue" stroke="midnightblue" points="344.16,-29.94 346.59,-19.62 338.26,-26.17 344.16,-29.94"/>
</g>
<!-- Node25&#45;&gt;Node8 -->
<g id="edge43" class="edge">
<title>Node25&#45;&gt;Node8</title>
<path fill="none" stroke="midnightblue" d="M652.68,-434.26C724.33,-424.71 839.49,-397.79 900,-322 937.26,-275.34 925,-249.71 925,-190 925,-190 925,-190 925,-132 925,-91.59 898.66,-50.21 881.79,-27.85"/>
<polygon fill="midnightblue" stroke="midnightblue" points="884.37,-25.46 875.45,-19.74 878.85,-29.77 884.37,-25.46"/>
</g>
<!-- Node25&#45;&gt;Node12 -->
<g id="edge35" class="edge">
<title>Node25&#45;&gt;Node12</title>
<path fill="none" stroke="midnightblue" d="M539.95,-425.48C504.24,-415.47 456.05,-401.97 418.24,-391.38"/>
<polygon fill="midnightblue" stroke="midnightblue" points="418.94,-387.94 408.37,-388.61 417.05,-394.68 418.94,-387.94"/>
</g>
<!-- Node25&#45;&gt;Node16 -->
<g id="edge36" class="edge">
<title>Node25&#45;&gt;Node16</title>
<path fill="none" stroke="midnightblue" d="M589.82,-425.48C589.91,-398.52 592.27,-337.97 610,-291 613.81,-280.92 620.23,-270.83 626.16,-262.76"/>
<polygon fill="midnightblue" stroke="midnightblue" points="629.11,-264.68 632.48,-254.63 623.58,-260.38 629.11,-264.68"/>
</g>
<!-- Node26 -->
<g id="node26" class="node">
<title>Node26</title>
<g id="a_node26"><a xlink:href="api_2thrmask_8h.html" target="_top" xlink:title="ODP thread masks.">
<polygon fill="white" stroke="black" points="631.5,-364 631.5,-383 736.5,-383 736.5,-364 631.5,-364"/>
<text text-anchor="middle" x="684" y="-371" font-family="Helvetica,sans-Serif" font-size="10.00">odp/api/thrmask.h</text>
</a>
</g>
</g>
<!-- Node25&#45;&gt;Node26 -->
<g id="edge37" class="edge">
<title>Node25&#45;&gt;Node26</title>
<path fill="none" stroke="midnightblue" d="M610.4,-425.4C626.01,-414.6 647.48,-399.76 663.19,-388.89"/>
<polygon fill="midnightblue" stroke="midnightblue" points="665.46,-391.57 671.7,-383.01 661.48,-385.82 665.46,-391.57"/>
</g>
<!-- Node27 -->
<g id="node27" class="node">
<title>Node27</title>
<g id="a_node27"><a xlink:title=" ">
<polygon fill="white" stroke="#bfbfbf" points="767.5,-297 767.5,-316 890.5,-316 890.5,-297 767.5,-297"/>
<text text-anchor="middle" x="829" y="-304" font-family="Helvetica,sans-Serif" font-size="10.00">odp/api/abi/thrmask.h</text>
</a>
</g>
</g>
<!-- Node26&#45;&gt;Node27 -->
<g id="edge38" class="edge">
<title>Node26&#45;&gt;Node27</title>
<path fill="none" stroke="midnightblue" d="M703.25,-363.87C728.17,-352.7 771.79,-333.15 800.53,-320.26"/>
<polygon fill="midnightblue" stroke="midnightblue" points="801.97,-323.45 809.67,-316.17 799.11,-317.06 801.97,-323.45"/>
</g>
<!-- Node28 -->
<g id="node28" class="node">
<title>Node28</title>
<g id="a_node28"><a xlink:href="api_2spec_2thrmask_8h.html" target="_top" xlink:title="ODP thread masks.">
<polygon fill="white" stroke="black" points="618.5,-297 618.5,-316 749.5,-316 749.5,-297 618.5,-297"/>
<text text-anchor="middle" x="684" y="-304" font-family="Helvetica,sans-Serif" font-size="10.00">odp/api/spec/thrmask.h</text>
</a>
</g>
</g>
<!-- Node26&#45;&gt;Node28 -->
<g id="edge39" class="edge">
<title>Node26&#45;&gt;Node28</title>
<path fill="none" stroke="midnightblue" d="M684,-363.73C684,-354.18 684,-338.62 684,-326.28"/>
<polygon fill="midnightblue" stroke="midnightblue" points="687.5,-326.13 684,-316.13 680.5,-326.13 687.5,-326.13"/>
</g>
<!-- Node28&#45;&gt;Node4 -->
<g id="edge40" class="edge">
<title>Node28&#45;&gt;Node4</title>
<path fill="none" stroke="midnightblue" d="M659.27,-296.99C636.25,-288.4 601.59,-273.75 575,-255 546.49,-234.9 539.49,-227.93 520,-199 481.3,-141.55 507.09,-104.88 458,-56 442.12,-40.19 419.8,-29.56 399.82,-22.63"/>
<polygon fill="midnightblue" stroke="midnightblue" points="400.83,-19.28 390.23,-19.52 398.66,-25.94 400.83,-19.28"/>
</g>
<!-- Node28&#45;&gt;Node8 -->
<g id="edge42" class="edge">
<title>Node28&#45;&gt;Node8</title>
<path fill="none" stroke="midnightblue" d="M709.71,-296.87C764.33,-277.76 887,-230.35 887,-190 887,-190 887,-190 887,-132 887,-95.29 878.36,-53.06 872.73,-29.45"/>
<polygon fill="midnightblue" stroke="midnightblue" points="876.13,-28.6 870.33,-19.73 869.33,-30.28 876.13,-28.6"/>
</g>
<!-- Node28&#45;&gt;Node16 -->
<g id="edge41" class="edge">
<title>Node28&#45;&gt;Node16</title>
<path fill="none" stroke="midnightblue" d="M677.7,-296.98C671.1,-288.05 660.56,-273.81 652.31,-262.64"/>
<polygon fill="midnightblue" stroke="midnightblue" points="655.05,-260.47 646.29,-254.51 649.42,-264.63 655.05,-260.47"/>
</g>
</g>
</svg>
