<?xml version="1.0" encoding="UTF-8" standalone="no"?>
<!DOCTYPE svg PUBLIC "-//W3C//DTD SVG 1.1//EN"
 "http://www.w3.org/Graphics/SVG/1.1/DTD/svg11.dtd">
<!-- Generated by graphviz version 2.43.0 (0)
 -->
<!-- Title: timer_types.h Pages: 1 -->
<svg width="92pt" height="196pt"
 viewBox="0.00 0.00 92.00 196.00" xmlns="http://www.w3.org/2000/svg" xmlns:xlink="http://www.w3.org/1999/xlink">
<g id="graph0" class="graph" transform="scale(1 1) rotate(0) translate(4 192)">
<title>timer_types.h</title>
<polygon fill="white" stroke="transparent" points="-4,4 -4,-192 88,-192 88,4 -4,4"/>
<!-- Node1 -->
<g id="node1" class="node">
<title>Node1</title>
<g id="a_node1"><a xlink:title="ODP timer service.">
<polygon fill="#bfbfbf" stroke="black" points="0,-168.5 0,-187.5 84,-187.5 84,-168.5 0,-168.5"/>
<text text-anchor="middle" x="42" y="-175.5" font-family="Helvetica,sans-Serif" font-size="10.00">timer_types.h</text>
</a>
</g>
</g>
<!-- Node2 -->
<g id="node2" class="node">
<title>Node2</title>
<g id="a_node2"><a xlink:href="api_2spec_2timer_8h.html" target="_top" xlink:title="ODP timer service.">
<polygon fill="white" stroke="black" points="16.5,-112.5 16.5,-131.5 67.5,-131.5 67.5,-112.5 16.5,-112.5"/>
<text text-anchor="middle" x="42" y="-119.5" font-family="Helvetica,sans-Serif" font-size="10.00">timer.h</text>
</a>
</g>
</g>
<!-- Node1&#45;&gt;Node2 -->
<g id="edge1" class="edge">
<title>Node1&#45;&gt;Node2</title>
<path fill="none" stroke="midnightblue" d="M42,-157.8C42,-148.91 42,-138.78 42,-131.75"/>
<polygon fill="midnightblue" stroke="midnightblue" points="38.5,-158.08 42,-168.08 45.5,-158.08 38.5,-158.08"/>
</g>
<!-- Node3 -->
<g id="node3" class="node">
<title>Node3</title>
<g id="a_node3"><a xlink:href="api_2timer_8h.html" target="_top" xlink:title="ODP timer service.">
<polygon fill="white" stroke="black" points="16.5,-56.5 16.5,-75.5 67.5,-75.5 67.5,-56.5 16.5,-56.5"/>
<text text-anchor="middle" x="42" y="-63.5" font-family="Helvetica,sans-Serif" font-size="10.00">timer.h</text>
</a>
</g>
</g>
<!-- Node2&#45;&gt;Node3 -->
<g id="edge2" class="edge">
<title>Node2&#45;&gt;Node3</title>
<path fill="none" stroke="midnightblue" d="M42,-101.8C42,-92.91 42,-82.78 42,-75.75"/>
<polygon fill="midnightblue" stroke="midnightblue" points="38.5,-102.08 42,-112.08 45.5,-102.08 38.5,-102.08"/>
</g>
<!-- Node4 -->
<g id="node4" class="node">
<title>Node4</title>
<g id="a_node4"><a xlink:href="odp__api_8h.html" target="_top" xlink:title="The OpenDataPlane API.">
<polygon fill="white" stroke="black" points="10,-0.5 10,-19.5 74,-19.5 74,-0.5 10,-0.5"/>
<text text-anchor="middle" x="42" y="-7.5" font-family="Helvetica,sans-Serif" font-size="10.00">odp_api.h</text>
</a>
</g>
</g>
<!-- Node3&#45;&gt;Node4 -->
<g id="edge3" class="edge">
<title>Node3&#45;&gt;Node4</title>
<path fill="none" stroke="midnightblue" d="M42,-45.8C42,-36.91 42,-26.78 42,-19.75"/>
<polygon fill="midnightblue" stroke="midnightblue" points="38.5,-46.08 42,-56.08 45.5,-46.08 38.5,-46.08"/>
</g>
</g>
</svg>
