<?xml version="1.0" encoding="UTF-8" standalone="no"?>
<!DOCTYPE svg PUBLIC "-//W3C//DTD SVG 1.1//EN"
 "http://www.w3.org/Graphics/SVG/1.1/DTD/svg11.dtd">
<!-- Generated by graphviz version 2.43.0 (0)
 -->
<!-- Title: packet_io_types.h Pages: 1 -->
<svg width="1533pt" height="1046pt"
 viewBox="0.00 0.00 1533.00 1046.00" xmlns="http://www.w3.org/2000/svg" xmlns:xlink="http://www.w3.org/1999/xlink">
<g id="graph0" class="graph" transform="scale(1 1) rotate(0) translate(4 1042)">
<title>packet_io_types.h</title>
<polygon fill="white" stroke="transparent" points="-4,4 -4,-1042 1529,-1042 1529,4 -4,4"/>
<!-- Node1 -->
<g id="node1" class="node">
<title>Node1</title>
<g id="a_node1"><a xlink:title="ODP Packet IO types.">
<polygon fill="#bfbfbf" stroke="black" points="684,-1018.5 684,-1037.5 788,-1037.5 788,-1018.5 684,-1018.5"/>
<text text-anchor="middle" x="736" y="-1025.5" font-family="Helvetica,sans-Serif" font-size="10.00">packet_io_types.h</text>
</a>
</g>
</g>
<!-- Node2 -->
<g id="node2" class="node">
<title>Node2</title>
<g id="a_node2"><a xlink:href="visibility__begin_8h_source.html" target="_top" xlink:title=" ">
<polygon fill="white" stroke="black" points="186.5,-0.5 186.5,-19.5 307.5,-19.5 307.5,-0.5 186.5,-0.5"/>
<text text-anchor="middle" x="247" y="-7.5" font-family="Helvetica,sans-Serif" font-size="10.00">odp/visibility_begin.h</text>
</a>
</g>
</g>
<!-- Node1&#45;&gt;Node2 -->
<g id="edge1" class="edge">
<title>Node1&#45;&gt;Node2</title>
<path fill="none" stroke="midnightblue" d="M683.95,-1024.71C516.11,-1016.65 0,-986.24 0,-917 0,-917 0,-917 0,-132 0,-92.97 12.51,-79.06 44,-56 82.07,-28.12 134.19,-16.98 176.09,-12.75"/>
<polygon fill="midnightblue" stroke="midnightblue" points="176.58,-16.22 186.23,-11.84 175.96,-9.25 176.58,-16.22"/>
</g>
<!-- Node3 -->
<g id="node3" class="node">
<title>Node3</title>
<g id="a_node3"><a xlink:href="api_2packet__types_8h.html" target="_top" xlink:title="ODP packet.">
<polygon fill="white" stroke="black" points="402.5,-738.5 402.5,-757.5 531.5,-757.5 531.5,-738.5 402.5,-738.5"/>
<text text-anchor="middle" x="467" y="-745.5" font-family="Helvetica,sans-Serif" font-size="10.00">odp/api/packet_types.h</text>
</a>
</g>
</g>
<!-- Node1&#45;&gt;Node3 -->
<g id="edge2" class="edge">
<title>Node1&#45;&gt;Node3</title>
<path fill="none" stroke="midnightblue" d="M686.89,-1018.47C634.2,-1006.16 558,-977.85 558,-917 558,-917 558,-917 558,-859 558,-816.47 517.11,-781.53 490.15,-763.12"/>
<polygon fill="midnightblue" stroke="midnightblue" points="491.9,-760.08 481.62,-757.52 488.06,-765.93 491.9,-760.08"/>
</g>
<!-- Node10 -->
<g id="node10" class="node">
<title>Node10</title>
<g id="a_node10"><a xlink:href="api_2std__types_8h.html" target="_top" xlink:title="Standard C language types and definitions for ODP.">
<polygon fill="white" stroke="black" points="963,-235.5 963,-254.5 1075,-254.5 1075,-235.5 963,-235.5"/>
<text text-anchor="middle" x="1019" y="-242.5" font-family="Helvetica,sans-Serif" font-size="10.00">odp/api/std_types.h</text>
</a>
</g>
</g>
<!-- Node1&#45;&gt;Node10 -->
<g id="edge80" class="edge">
<title>Node1&#45;&gt;Node10</title>
<path fill="none" stroke="midnightblue" d="M788.43,-1025.81C911.58,-1021.6 1209,-1002.57 1209,-917 1209,-917 1209,-917 1209,-803 1209,-603.31 1203.32,-549.58 1147,-358 1137.75,-326.52 1139.19,-314.21 1116,-291 1100.81,-275.79 1079.51,-265.13 1060.74,-258.02"/>
<polygon fill="midnightblue" stroke="midnightblue" points="1061.79,-254.68 1051.2,-254.62 1059.44,-261.27 1061.79,-254.68"/>
</g>
<!-- Node17 -->
<g id="node17" class="node">
<title>Node17</title>
<g id="a_node17"><a xlink:href="visibility__end_8h_source.html" target="_top" xlink:title=" ">
<polygon fill="white" stroke="black" points="1027,-0.5 1027,-19.5 1139,-19.5 1139,-0.5 1027,-0.5"/>
<text text-anchor="middle" x="1083" y="-7.5" font-family="Helvetica,sans-Serif" font-size="10.00">odp/visibility_end.h</text>
</a>
</g>
</g>
<!-- Node1&#45;&gt;Node17 -->
<g id="edge81" class="edge">
<title>Node1&#45;&gt;Node17</title>
<path fill="none" stroke="midnightblue" d="M788.02,-1025.4C918.41,-1021.05 1256.56,-1007.59 1366,-982 1440.34,-964.62 1525,-993.34 1525,-917 1525,-917 1525,-917 1525,-132 1525,-90.31 1505.97,-77.08 1470,-56 1417.14,-25.03 1245.31,-15.35 1149.35,-12.35"/>
<polygon fill="midnightblue" stroke="midnightblue" points="1149.27,-8.84 1139.17,-12.04 1149.06,-15.84 1149.27,-8.84"/>
</g>
<!-- Node18 -->
<g id="node18" class="node">
<title>Node18</title>
<g id="a_node18"><a xlink:href="api_2queue__types_8h.html" target="_top" xlink:title="ODP queue.">
<polygon fill="white" stroke="black" points="198.5,-615.5 198.5,-634.5 325.5,-634.5 325.5,-615.5 198.5,-615.5"/>
<text text-anchor="middle" x="262" y="-622.5" font-family="Helvetica,sans-Serif" font-size="10.00">odp/api/queue_types.h</text>
</a>
</g>
</g>
<!-- Node1&#45;&gt;Node18 -->
<g id="edge74" class="edge">
<title>Node1&#45;&gt;Node18</title>
<path fill="none" stroke="midnightblue" d="M683.76,-1026.92C551.89,-1025.32 216,-1011.93 216,-917 216,-917 216,-917 216,-747 216,-712.18 221.68,-703.17 235,-671 239.01,-661.32 244.87,-651.26 250.1,-643.11"/>
<polygon fill="midnightblue" stroke="midnightblue" points="253.17,-644.82 255.81,-634.56 247.35,-640.93 253.17,-644.82"/>
</g>
<!-- Node27 -->
<g id="node27" class="node">
<title>Node27</title>
<g id="a_node27"><a xlink:href="packet__io__stats_8h.html" target="_top" xlink:title="ODP packet IO stats.">
<polygon fill="white" stroke="black" points="244,-738.5 244,-757.5 384,-757.5 384,-738.5 244,-738.5"/>
<text text-anchor="middle" x="314" y="-745.5" font-family="Helvetica,sans-Serif" font-size="10.00">odp/api/packet_io_stats.h</text>
</a>
</g>
</g>
<!-- Node1&#45;&gt;Node27 -->
<g id="edge41" class="edge">
<title>Node1&#45;&gt;Node27</title>
<path fill="none" stroke="midnightblue" d="M683.68,-1019.99C593.18,-1006.38 417,-972.73 417,-917 417,-917 417,-917 417,-859 417,-814.43 371.38,-780.46 340.86,-762.73"/>
<polygon fill="midnightblue" stroke="midnightblue" points="342.38,-759.57 331.94,-757.75 338.97,-765.68 342.38,-759.57"/>
</g>
<!-- Node29 -->
<g id="node29" class="node">
<title>Node29</title>
<g id="a_node29"><a xlink:href="api_2pool__types_8h.html" target="_top" xlink:title="ODP pool.">
<polygon fill="white" stroke="black" points="723,-962.5 723,-981.5 841,-981.5 841,-962.5 723,-962.5"/>
<text text-anchor="middle" x="782" y="-969.5" font-family="Helvetica,sans-Serif" font-size="10.00">odp/api/pool_types.h</text>
</a>
</g>
</g>
<!-- Node1&#45;&gt;Node29 -->
<g id="edge47" class="edge">
<title>Node1&#45;&gt;Node29</title>
<path fill="none" stroke="midnightblue" d="M743.6,-1018.08C750.23,-1010.3 760.02,-998.8 768.06,-989.37"/>
<polygon fill="midnightblue" stroke="midnightblue" points="770.73,-991.63 774.55,-981.75 765.4,-987.09 770.73,-991.63"/>
</g>
<!-- Node41 -->
<g id="node41" class="node">
<title>Node41</title>
<g id="a_node41"><a xlink:href="reassembly_8h.html" target="_top" xlink:title="ODP REASSEMBLY API &#45; platform specific header.">
<polygon fill="white" stroke="black" points="1237,-962.5 1237,-981.5 1357,-981.5 1357,-962.5 1237,-962.5"/>
<text text-anchor="middle" x="1297" y="-969.5" font-family="Helvetica,sans-Serif" font-size="10.00">odp/api/reassembly.h</text>
</a>
</g>
</g>
<!-- Node1&#45;&gt;Node41 -->
<g id="edge75" class="edge">
<title>Node1&#45;&gt;Node41</title>
<path fill="none" stroke="midnightblue" d="M788.3,-1022.67C877.54,-1015.16 1064.91,-998.91 1223,-982 1224.27,-981.86 1225.55,-981.73 1226.83,-981.59"/>
<polygon fill="midnightblue" stroke="midnightblue" points="1227.29,-985.06 1236.84,-980.46 1226.51,-978.1 1227.29,-985.06"/>
</g>
<!-- Node4 -->
<g id="node4" class="node">
<title>Node4</title>
<g id="a_node4"><a xlink:title=" ">
<polygon fill="white" stroke="#bfbfbf" points="244,-671.5 244,-701.5 350,-701.5 350,-671.5 244,-671.5"/>
<text text-anchor="start" x="252" y="-689.5" font-family="Helvetica,sans-Serif" font-size="10.00">odp/api/abi/packet</text>
<text text-anchor="middle" x="297" y="-678.5" font-family="Helvetica,sans-Serif" font-size="10.00">_io_types.h</text>
</a>
</g>
</g>
<!-- Node3&#45;&gt;Node4 -->
<g id="edge3" class="edge">
<title>Node3&#45;&gt;Node4</title>
<path fill="none" stroke="midnightblue" d="M442.64,-738.48C417.68,-729.74 378.16,-715.91 346.59,-704.86"/>
<polygon fill="midnightblue" stroke="midnightblue" points="347.66,-701.52 337.07,-701.52 345.35,-708.13 347.66,-701.52"/>
</g>
<!-- Node5 -->
<g id="node5" class="node">
<title>Node5</title>
<g id="a_node5"><a xlink:title=" ">
<polygon fill="white" stroke="#bfbfbf" points="368,-671.5 368,-701.5 474,-701.5 474,-671.5 368,-671.5"/>
<text text-anchor="start" x="376" y="-689.5" font-family="Helvetica,sans-Serif" font-size="10.00">odp/api/abi/packet</text>
<text text-anchor="middle" x="421" y="-678.5" font-family="Helvetica,sans-Serif" font-size="10.00">_types.h</text>
</a>
</g>
</g>
<!-- Node3&#45;&gt;Node5 -->
<g id="edge4" class="edge">
<title>Node3&#45;&gt;Node5</title>
<path fill="none" stroke="midnightblue" d="M460.41,-738.48C454.59,-730.94 445.84,-719.63 438.06,-709.57"/>
<polygon fill="midnightblue" stroke="midnightblue" points="440.73,-707.29 431.84,-701.52 435.19,-711.58 440.73,-707.29"/>
</g>
<!-- Node6 -->
<g id="node6" class="node">
<title>Node6</title>
<g id="a_node6"><a xlink:href="api_2spec_2packet__types_8h.html" target="_top" xlink:title="ODP packet types.">
<polygon fill="white" stroke="black" points="530.5,-671.5 530.5,-701.5 643.5,-701.5 643.5,-671.5 530.5,-671.5"/>
<text text-anchor="start" x="538.5" y="-689.5" font-family="Helvetica,sans-Serif" font-size="10.00">odp/api/spec/packet</text>
<text text-anchor="middle" x="587" y="-678.5" font-family="Helvetica,sans-Serif" font-size="10.00">_types.h</text>
</a>
</g>
</g>
<!-- Node3&#45;&gt;Node6 -->
<g id="edge5" class="edge">
<title>Node3&#45;&gt;Node6</title>
<path fill="none" stroke="midnightblue" d="M484.19,-738.48C501.2,-730.04 527.8,-716.86 549.67,-706.01"/>
<polygon fill="midnightblue" stroke="midnightblue" points="551.31,-709.1 558.72,-701.52 548.2,-702.83 551.31,-709.1"/>
</g>
<!-- Node6&#45;&gt;Node2 -->
<g id="edge6" class="edge">
<title>Node6&#45;&gt;Node2</title>
<path fill="none" stroke="midnightblue" d="M556.16,-671.48C514.72,-652.26 439.21,-615.9 378,-579 357.51,-566.65 355.85,-557.73 334,-548 268.21,-518.7 237.89,-548.83 176,-512 140.14,-490.66 114,-483.23 114,-441.5 114,-441.5 114,-441.5 114,-132 114,-96.58 114.05,-82.1 138,-56 152.81,-39.86 174.28,-29.35 194.26,-22.59"/>
<polygon fill="midnightblue" stroke="midnightblue" points="195.42,-25.89 203.91,-19.56 193.32,-19.21 195.42,-25.89"/>
</g>
<!-- Node7 -->
<g id="node7" class="node">
<title>Node7</title>
<g id="a_node7"><a xlink:href="api_2proto__stats__types_8h.html" target="_top" xlink:title="ODP proto stats types.">
<polygon fill="white" stroke="black" points="708,-358.5 708,-388.5 818,-388.5 818,-358.5 708,-358.5"/>
<text text-anchor="start" x="716" y="-376.5" font-family="Helvetica,sans-Serif" font-size="10.00">odp/api/proto_stats</text>
<text text-anchor="middle" x="763" y="-365.5" font-family="Helvetica,sans-Serif" font-size="10.00">_types.h</text>
</a>
</g>
</g>
<!-- Node6&#45;&gt;Node7 -->
<g id="edge7" class="edge">
<title>Node6&#45;&gt;Node7</title>
<path fill="none" stroke="midnightblue" d="M595.02,-671.33C622.85,-622.15 715.44,-458.53 749.92,-397.62"/>
<polygon fill="midnightblue" stroke="midnightblue" points="753.05,-399.18 754.93,-388.75 746.96,-395.73 753.05,-399.18"/>
</g>
<!-- Node6&#45;&gt;Node17 -->
<g id="edge40" class="edge">
<title>Node6&#45;&gt;Node17</title>
<path fill="none" stroke="midnightblue" d="M618.73,-671.38C760.23,-608.28 1327.84,-353.91 1354,-322 1376.07,-295.07 1373,-280.82 1373,-246 1373,-246 1373,-246 1373,-132 1373,-35.67 1235.04,-14.66 1149.43,-10.9"/>
<polygon fill="midnightblue" stroke="midnightblue" points="1149.38,-7.39 1139.26,-10.52 1149.12,-14.39 1149.38,-7.39"/>
</g>
<!-- Node6&#45;&gt;Node18 -->
<g id="edge23" class="edge">
<title>Node6&#45;&gt;Node18</title>
<path fill="none" stroke="midnightblue" d="M530.45,-673.81C525.56,-672.84 520.7,-671.9 516,-671 450.01,-658.42 374.15,-645.13 322.64,-636.29"/>
<polygon fill="midnightblue" stroke="midnightblue" points="323.12,-632.82 312.67,-634.58 321.94,-639.72 323.12,-632.82"/>
</g>
<!-- Node8 -->
<g id="node8" class="node">
<title>Node8</title>
<g id="a_node8"><a xlink:title=" ">
<polygon fill="white" stroke="#bfbfbf" points="699,-291.5 699,-321.5 827,-321.5 827,-291.5 699,-291.5"/>
<text text-anchor="start" x="707" y="-309.5" font-family="Helvetica,sans-Serif" font-size="10.00">odp/api/abi/proto_stats</text>
<text text-anchor="middle" x="763" y="-298.5" font-family="Helvetica,sans-Serif" font-size="10.00">_types.h</text>
</a>
</g>
</g>
<!-- Node7&#45;&gt;Node8 -->
<g id="edge8" class="edge">
<title>Node7&#45;&gt;Node8</title>
<path fill="none" stroke="midnightblue" d="M763,-358.4C763,-350.64 763,-340.81 763,-331.86"/>
<polygon fill="midnightblue" stroke="midnightblue" points="766.5,-331.58 763,-321.58 759.5,-331.58 766.5,-331.58"/>
</g>
<!-- Node9 -->
<g id="node9" class="node">
<title>Node9</title>
<g id="a_node9"><a xlink:href="api_2spec_2proto__stats__types_8h.html" target="_top" xlink:title="ODP proto stats types.">
<polygon fill="white" stroke="black" points="883.5,-291.5 883.5,-321.5 990.5,-321.5 990.5,-291.5 883.5,-291.5"/>
<text text-anchor="start" x="891.5" y="-309.5" font-family="Helvetica,sans-Serif" font-size="10.00">odp/api/spec/proto</text>
<text text-anchor="middle" x="937" y="-298.5" font-family="Helvetica,sans-Serif" font-size="10.00">_stats_types.h</text>
</a>
</g>
</g>
<!-- Node7&#45;&gt;Node9 -->
<g id="edge9" class="edge">
<title>Node7&#45;&gt;Node9</title>
<path fill="none" stroke="midnightblue" d="M800.76,-358.4C826.86,-348.64 861.79,-335.59 889.75,-325.15"/>
<polygon fill="midnightblue" stroke="midnightblue" points="891.18,-328.35 899.32,-321.58 888.73,-321.8 891.18,-328.35"/>
</g>
<!-- Node9&#45;&gt;Node2 -->
<g id="edge10" class="edge">
<title>Node9&#45;&gt;Node2</title>
<path fill="none" stroke="midnightblue" d="M883.42,-291.94C817.37,-274.37 702.4,-240.94 609,-199 494.33,-147.51 478.33,-110.36 365,-56 338.19,-43.14 306.67,-31.28 282.95,-22.96"/>
<polygon fill="midnightblue" stroke="midnightblue" points="283.9,-19.59 273.3,-19.62 281.61,-26.2 283.9,-19.59"/>
</g>
<!-- Node9&#45;&gt;Node10 -->
<g id="edge11" class="edge">
<title>Node9&#45;&gt;Node10</title>
<path fill="none" stroke="midnightblue" d="M956.43,-291.4C969.21,-282.13 985.89,-270.03 998.81,-260.65"/>
<polygon fill="midnightblue" stroke="midnightblue" points="1001.03,-263.36 1007.07,-254.66 996.92,-257.7 1001.03,-263.36"/>
</g>
<!-- Node9&#45;&gt;Node17 -->
<g id="edge22" class="edge">
<title>Node9&#45;&gt;Node17</title>
<path fill="none" stroke="midnightblue" d="M927.67,-291.22C914.75,-270.03 893,-228.62 893,-190 893,-190 893,-190 893,-132 893,-97.18 887.53,-80.77 912,-56 939.19,-28.47 981.07,-17.14 1016.57,-12.73"/>
<polygon fill="midnightblue" stroke="midnightblue" points="1017.31,-16.17 1026.88,-11.62 1016.56,-9.21 1017.31,-16.17"/>
</g>
<!-- Node11 -->
<g id="node11" class="node">
<title>Node11</title>
<g id="a_node11"><a xlink:title=" ">
<polygon fill="white" stroke="#bfbfbf" points="1102,-179.5 1102,-198.5 1232,-198.5 1232,-179.5 1102,-179.5"/>
<text text-anchor="middle" x="1167" y="-186.5" font-family="Helvetica,sans-Serif" font-size="10.00">odp/api/abi/std_types.h</text>
</a>
</g>
</g>
<!-- Node10&#45;&gt;Node11 -->
<g id="edge12" class="edge">
<title>Node10&#45;&gt;Node11</title>
<path fill="none" stroke="midnightblue" d="M1042.45,-235.44C1067.13,-226.44 1106.19,-212.19 1133.98,-202.05"/>
<polygon fill="midnightblue" stroke="midnightblue" points="1135.46,-205.23 1143.66,-198.52 1133.06,-198.66 1135.46,-205.23"/>
</g>
<!-- Node12 -->
<g id="node12" class="node">
<title>Node12</title>
<g id="a_node12"><a xlink:href="api_2spec_2std__types_8h.html" target="_top" xlink:title="Common types and definitions for ODP API files.">
<polygon fill="white" stroke="black" points="946.5,-179.5 946.5,-198.5 1083.5,-198.5 1083.5,-179.5 946.5,-179.5"/>
<text text-anchor="middle" x="1015" y="-186.5" font-family="Helvetica,sans-Serif" font-size="10.00">odp/api/spec/std_types.h</text>
</a>
</g>
</g>
<!-- Node10&#45;&gt;Node12 -->
<g id="edge13" class="edge">
<title>Node10&#45;&gt;Node12</title>
<path fill="none" stroke="midnightblue" d="M1018.34,-235.08C1017.82,-228.01 1017.06,-217.86 1016.41,-208.99"/>
<polygon fill="midnightblue" stroke="midnightblue" points="1019.88,-208.47 1015.65,-198.75 1012.9,-208.98 1019.88,-208.47"/>
</g>
<!-- Node12&#45;&gt;Node2 -->
<g id="edge14" class="edge">
<title>Node12&#45;&gt;Node2</title>
<path fill="none" stroke="midnightblue" d="M1000.64,-179.48C959.06,-155.28 834.33,-85.94 721,-56 581.38,-19.11 411.58,-11.61 317.81,-10.57"/>
<polygon fill="midnightblue" stroke="midnightblue" points="317.62,-7.07 307.59,-10.48 317.56,-14.07 317.62,-7.07"/>
</g>
<!-- Node13 -->
<g id="node13" class="node">
<title>Node13</title>
<g id="a_node13"><a xlink:title=" ">
<polygon fill="white" stroke="#bfbfbf" points="1073.5,-123.5 1073.5,-142.5 1126.5,-142.5 1126.5,-123.5 1073.5,-123.5"/>
<text text-anchor="middle" x="1100" y="-130.5" font-family="Helvetica,sans-Serif" font-size="10.00">stdint.h</text>
</a>
</g>
</g>
<!-- Node12&#45;&gt;Node13 -->
<g id="edge15" class="edge">
<title>Node12&#45;&gt;Node13</title>
<path fill="none" stroke="midnightblue" d="M1028.66,-179.32C1041.92,-170.9 1062.27,-157.97 1077.85,-148.07"/>
<polygon fill="midnightblue" stroke="midnightblue" points="1079.81,-150.97 1086.38,-142.65 1076.06,-145.06 1079.81,-150.97"/>
</g>
<!-- Node14 -->
<g id="node14" class="node">
<title>Node14</title>
<g id="a_node14"><a xlink:href="api_2align_8h.html" target="_top" xlink:title="ODP alignments.">
<polygon fill="white" stroke="black" points="966.5,-123.5 966.5,-142.5 1055.5,-142.5 1055.5,-123.5 966.5,-123.5"/>
<text text-anchor="middle" x="1011" y="-130.5" font-family="Helvetica,sans-Serif" font-size="10.00">odp/api/align.h</text>
</a>
</g>
</g>
<!-- Node12&#45;&gt;Node14 -->
<g id="edge16" class="edge">
<title>Node12&#45;&gt;Node14</title>
<path fill="none" stroke="midnightblue" d="M1014.34,-179.08C1013.82,-172.01 1013.06,-161.86 1012.41,-152.99"/>
<polygon fill="midnightblue" stroke="midnightblue" points="1015.88,-152.47 1011.65,-142.75 1008.9,-152.98 1015.88,-152.47"/>
</g>
<!-- Node12&#45;&gt;Node17 -->
<g id="edge21" class="edge">
<title>Node12&#45;&gt;Node17</title>
<path fill="none" stroke="midnightblue" d="M1057.41,-179.44C1082.13,-172.77 1112.73,-161.46 1135,-143 1157.42,-124.42 1161.15,-115.04 1169,-87 1172.71,-73.73 1176.14,-67.79 1169,-56 1159.59,-40.46 1142.85,-30.02 1126.62,-23.15"/>
<polygon fill="midnightblue" stroke="midnightblue" points="1127.77,-19.85 1117.18,-19.51 1125.25,-26.37 1127.77,-19.85"/>
</g>
<!-- Node15 -->
<g id="node15" class="node">
<title>Node15</title>
<g id="a_node15"><a xlink:title=" ">
<polygon fill="white" stroke="#bfbfbf" points="1053.5,-62 1053.5,-81 1160.5,-81 1160.5,-62 1053.5,-62"/>
<text text-anchor="middle" x="1107" y="-69" font-family="Helvetica,sans-Serif" font-size="10.00">odp/api/abi/align.h</text>
</a>
</g>
</g>
<!-- Node14&#45;&gt;Node15 -->
<g id="edge17" class="edge">
<title>Node14&#45;&gt;Node15</title>
<path fill="none" stroke="midnightblue" d="M1024.75,-123.48C1040.37,-113.8 1066.06,-97.87 1084.58,-86.39"/>
<polygon fill="midnightblue" stroke="midnightblue" points="1086.62,-89.25 1093.27,-81.01 1082.93,-83.3 1086.62,-89.25"/>
</g>
<!-- Node16 -->
<g id="node16" class="node">
<title>Node16</title>
<g id="a_node16"><a xlink:href="api_2spec_2align_8h.html" target="_top" xlink:title="ODP alignments.">
<polygon fill="white" stroke="black" points="921,-62 921,-81 1035,-81 1035,-62 921,-62"/>
<text text-anchor="middle" x="978" y="-69" font-family="Helvetica,sans-Serif" font-size="10.00">odp/api/spec/align.h</text>
</a>
</g>
</g>
<!-- Node14&#45;&gt;Node16 -->
<g id="edge18" class="edge">
<title>Node14&#45;&gt;Node16</title>
<path fill="none" stroke="midnightblue" d="M1006.27,-123.48C1001.42,-114.73 993.73,-100.87 987.6,-89.81"/>
<polygon fill="midnightblue" stroke="midnightblue" points="990.63,-88.06 982.72,-81.01 984.51,-91.45 990.63,-88.06"/>
</g>
<!-- Node16&#45;&gt;Node2 -->
<g id="edge19" class="edge">
<title>Node16&#45;&gt;Node2</title>
<path fill="none" stroke="midnightblue" d="M920.94,-65.86C788.87,-55.11 462.38,-28.53 317.82,-16.76"/>
<polygon fill="midnightblue" stroke="midnightblue" points="317.98,-13.27 307.73,-15.94 317.42,-20.24 317.98,-13.27"/>
</g>
<!-- Node16&#45;&gt;Node17 -->
<g id="edge20" class="edge">
<title>Node16&#45;&gt;Node17</title>
<path fill="none" stroke="midnightblue" d="M993.04,-61.98C1010.28,-52.21 1038.74,-36.08 1059.03,-24.58"/>
<polygon fill="midnightblue" stroke="midnightblue" points="1061.01,-27.48 1067.98,-19.51 1057.56,-21.39 1061.01,-27.48"/>
</g>
<!-- Node19 -->
<g id="node19" class="node">
<title>Node19</title>
<g id="a_node19"><a xlink:title=" ">
<polygon fill="white" stroke="#bfbfbf" points="180.5,-554 180.5,-573 325.5,-573 325.5,-554 180.5,-554"/>
<text text-anchor="middle" x="253" y="-561" font-family="Helvetica,sans-Serif" font-size="10.00">odp/api/abi/queue_types.h</text>
</a>
</g>
</g>
<!-- Node18&#45;&gt;Node19 -->
<g id="edge24" class="edge">
<title>Node18&#45;&gt;Node19</title>
<path fill="none" stroke="midnightblue" d="M260.71,-615.48C259.44,-607.08 257.46,-593.98 255.82,-583.16"/>
<polygon fill="midnightblue" stroke="midnightblue" points="259.24,-582.37 254.29,-573.01 252.32,-583.42 259.24,-582.37"/>
</g>
<!-- Node20 -->
<g id="node20" class="node">
<title>Node20</title>
<g id="a_node20"><a xlink:href="api_2spec_2queue__types_8h.html" target="_top" xlink:title="ODP queue types.">
<polygon fill="white" stroke="black" points="420.5,-548.5 420.5,-578.5 531.5,-578.5 531.5,-548.5 420.5,-548.5"/>
<text text-anchor="start" x="428.5" y="-566.5" font-family="Helvetica,sans-Serif" font-size="10.00">odp/api/spec/queue</text>
<text text-anchor="middle" x="476" y="-555.5" font-family="Helvetica,sans-Serif" font-size="10.00">_types.h</text>
</a>
</g>
</g>
<!-- Node18&#45;&gt;Node20 -->
<g id="edge25" class="edge">
<title>Node18&#45;&gt;Node20</title>
<path fill="none" stroke="midnightblue" d="M292.66,-615.48C324.69,-606.57 375.77,-592.37 415.88,-581.22"/>
<polygon fill="midnightblue" stroke="midnightblue" points="416.87,-584.57 425.56,-578.52 414.99,-577.83 416.87,-584.57"/>
</g>
<!-- Node20&#45;&gt;Node2 -->
<g id="edge26" class="edge">
<title>Node20&#45;&gt;Node2</title>
<path fill="none" stroke="midnightblue" d="M424.01,-548.42C351.29,-527.16 228,-484.74 228,-441.5 228,-441.5 228,-441.5 228,-372.5 228,-289.65 190,-272.85 190,-190 190,-190 190,-190 190,-132 190,-96.58 197.98,-87.59 214,-56 219.08,-45.97 226.34,-35.79 232.75,-27.66"/>
<polygon fill="midnightblue" stroke="midnightblue" points="235.61,-29.69 239.24,-19.73 230.2,-25.25 235.61,-29.69"/>
</g>
<!-- Node20&#45;&gt;Node17 -->
<g id="edge39" class="edge">
<title>Node20&#45;&gt;Node17</title>
<path fill="none" stroke="midnightblue" d="M531.55,-551.33C610.37,-532.41 753.28,-486.23 827,-389 866.13,-337.39 855,-310.76 855,-246 855,-246 855,-246 855,-132 855,-94.62 861.92,-79.48 891,-56 926.36,-27.45 976.68,-16.41 1016.93,-12.39"/>
<polygon fill="midnightblue" stroke="midnightblue" points="1017.27,-15.88 1026.93,-11.52 1016.66,-8.9 1017.27,-15.88"/>
</g>
<!-- Node21 -->
<g id="node21" class="node">
<title>Node21</title>
<g id="a_node21"><a xlink:href="api_2schedule__types_8h.html" target="_top" xlink:title="ODP schedule.">
<polygon fill="white" stroke="black" points="406,-492.5 406,-511.5 546,-511.5 546,-492.5 406,-492.5"/>
<text text-anchor="middle" x="476" y="-499.5" font-family="Helvetica,sans-Serif" font-size="10.00">odp/api/schedule_types.h</text>
</a>
</g>
</g>
<!-- Node20&#45;&gt;Node21 -->
<g id="edge27" class="edge">
<title>Node20&#45;&gt;Node21</title>
<path fill="none" stroke="midnightblue" d="M476,-548.4C476,-540.47 476,-530.46 476,-521.86"/>
<polygon fill="midnightblue" stroke="midnightblue" points="479.5,-521.66 476,-511.66 472.5,-521.66 479.5,-521.66"/>
</g>
<!-- Node22 -->
<g id="node22" class="node">
<title>Node22</title>
<g id="a_node22"><a xlink:title=" ">
<polygon fill="white" stroke="#bfbfbf" points="348.5,-425.5 348.5,-455.5 465.5,-455.5 465.5,-425.5 348.5,-425.5"/>
<text text-anchor="start" x="356.5" y="-443.5" font-family="Helvetica,sans-Serif" font-size="10.00">odp/api/abi/schedule</text>
<text text-anchor="middle" x="407" y="-432.5" font-family="Helvetica,sans-Serif" font-size="10.00">_types.h</text>
</a>
</g>
</g>
<!-- Node21&#45;&gt;Node22 -->
<g id="edge28" class="edge">
<title>Node21&#45;&gt;Node22</title>
<path fill="none" stroke="midnightblue" d="M466.11,-492.48C456.94,-484.57 442.93,-472.48 430.85,-462.07"/>
<polygon fill="midnightblue" stroke="midnightblue" points="433.12,-459.4 423.26,-455.52 428.55,-464.7 433.12,-459.4"/>
</g>
<!-- Node23 -->
<g id="node23" class="node">
<title>Node23</title>
<g id="a_node23"><a xlink:href="api_2spec_2schedule__types_8h.html" target="_top" xlink:title="ODP schedule types.">
<polygon fill="white" stroke="black" points="560.5,-425.5 560.5,-455.5 685.5,-455.5 685.5,-425.5 560.5,-425.5"/>
<text text-anchor="start" x="568.5" y="-443.5" font-family="Helvetica,sans-Serif" font-size="10.00">odp/api/spec/schedule</text>
<text text-anchor="middle" x="623" y="-432.5" font-family="Helvetica,sans-Serif" font-size="10.00">_types.h</text>
</a>
</g>
</g>
<!-- Node21&#45;&gt;Node23 -->
<g id="edge29" class="edge">
<title>Node21&#45;&gt;Node23</title>
<path fill="none" stroke="midnightblue" d="M497.06,-492.48C518.37,-483.85 551.94,-470.26 579.06,-459.29"/>
<polygon fill="midnightblue" stroke="midnightblue" points="580.4,-462.52 588.36,-455.52 577.77,-456.03 580.4,-462.52"/>
</g>
<!-- Node23&#45;&gt;Node2 -->
<g id="edge30" class="edge">
<title>Node23&#45;&gt;Node2</title>
<path fill="none" stroke="midnightblue" d="M560.36,-430.26C467.46,-412.61 304,-364.7 304,-246 304,-246 304,-246 304,-188 304,-127.09 273.04,-59.82 256.75,-28.65"/>
<polygon fill="midnightblue" stroke="midnightblue" points="259.67,-26.68 251.86,-19.52 253.5,-29.99 259.67,-26.68"/>
</g>
<!-- Node23&#45;&gt;Node10 -->
<g id="edge31" class="edge">
<title>Node23&#45;&gt;Node10</title>
<path fill="none" stroke="midnightblue" d="M685.66,-438.63C769.95,-433.87 918.54,-412.21 999,-322 1013.02,-306.28 1017.4,-281.88 1018.68,-264.99"/>
<polygon fill="midnightblue" stroke="midnightblue" points="1022.19,-264.84 1019.14,-254.69 1015.19,-264.52 1022.19,-264.84"/>
</g>
<!-- Node23&#45;&gt;Node17 -->
<g id="edge38" class="edge">
<title>Node23&#45;&gt;Node17</title>
<path fill="none" stroke="midnightblue" d="M628.61,-425.24C639.36,-398.39 664.09,-338.72 690,-291 749.24,-181.9 737.96,-125.25 841,-56 869.14,-37.09 955.36,-24.33 1016.86,-17.37"/>
<polygon fill="midnightblue" stroke="midnightblue" points="1017.33,-20.84 1026.88,-16.26 1016.56,-13.88 1017.33,-20.84"/>
</g>
<!-- Node24 -->
<g id="node24" class="node">
<title>Node24</title>
<g id="a_node24"><a xlink:href="api_2thrmask_8h.html" target="_top" xlink:title="ODP thread masks.">
<polygon fill="white" stroke="black" points="524.5,-364 524.5,-383 629.5,-383 629.5,-364 524.5,-364"/>
<text text-anchor="middle" x="577" y="-371" font-family="Helvetica,sans-Serif" font-size="10.00">odp/api/thrmask.h</text>
</a>
</g>
</g>
<!-- Node23&#45;&gt;Node24 -->
<g id="edge32" class="edge">
<title>Node23&#45;&gt;Node24</title>
<path fill="none" stroke="midnightblue" d="M613.02,-425.4C605.99,-415.46 596.54,-402.11 589.08,-391.57"/>
<polygon fill="midnightblue" stroke="midnightblue" points="591.79,-389.34 583.15,-383.19 586.07,-393.38 591.79,-389.34"/>
</g>
<!-- Node25 -->
<g id="node25" class="node">
<title>Node25</title>
<g id="a_node25"><a xlink:title=" ">
<polygon fill="white" stroke="#bfbfbf" points="370.5,-297 370.5,-316 493.5,-316 493.5,-297 370.5,-297"/>
<text text-anchor="middle" x="432" y="-304" font-family="Helvetica,sans-Serif" font-size="10.00">odp/api/abi/thrmask.h</text>
</a>
</g>
</g>
<!-- Node24&#45;&gt;Node25 -->
<g id="edge33" class="edge">
<title>Node24&#45;&gt;Node25</title>
<path fill="none" stroke="midnightblue" d="M557.75,-363.87C532.83,-352.7 489.21,-333.15 460.47,-320.26"/>
<polygon fill="midnightblue" stroke="midnightblue" points="461.89,-317.06 451.33,-316.17 459.03,-323.45 461.89,-317.06"/>
</g>
<!-- Node26 -->
<g id="node26" class="node">
<title>Node26</title>
<g id="a_node26"><a xlink:href="api_2spec_2thrmask_8h.html" target="_top" xlink:title="ODP thread masks.">
<polygon fill="white" stroke="black" points="511.5,-297 511.5,-316 642.5,-316 642.5,-297 511.5,-297"/>
<text text-anchor="middle" x="577" y="-304" font-family="Helvetica,sans-Serif" font-size="10.00">odp/api/spec/thrmask.h</text>
</a>
</g>
</g>
<!-- Node24&#45;&gt;Node26 -->
<g id="edge34" class="edge">
<title>Node24&#45;&gt;Node26</title>
<path fill="none" stroke="midnightblue" d="M577,-363.73C577,-354.18 577,-338.62 577,-326.28"/>
<polygon fill="midnightblue" stroke="midnightblue" points="580.5,-326.13 577,-316.13 573.5,-326.13 580.5,-326.13"/>
</g>
<!-- Node26&#45;&gt;Node2 -->
<g id="edge35" class="edge">
<title>Node26&#45;&gt;Node2</title>
<path fill="none" stroke="midnightblue" d="M552.45,-296.88C499.64,-277.6 380,-229.55 380,-190 380,-190 380,-190 380,-132 380,-77.75 318.72,-41.4 279.35,-23.64"/>
<polygon fill="midnightblue" stroke="midnightblue" points="280.43,-20.3 269.86,-19.53 277.65,-26.72 280.43,-20.3"/>
</g>
<!-- Node26&#45;&gt;Node10 -->
<g id="edge36" class="edge">
<title>Node26&#45;&gt;Node10</title>
<path fill="none" stroke="midnightblue" d="M640.33,-296.98C723.36,-285.8 868.36,-266.28 952.8,-254.91"/>
<polygon fill="midnightblue" stroke="midnightblue" points="953.35,-258.37 962.79,-253.57 952.41,-251.43 953.35,-258.37"/>
</g>
<!-- Node26&#45;&gt;Node17 -->
<g id="edge37" class="edge">
<title>Node26&#45;&gt;Node17</title>
<path fill="none" stroke="midnightblue" d="M581.87,-296.74C602.75,-260.06 688.95,-117.87 803,-56 838.89,-36.53 945.79,-23.4 1016.63,-16.57"/>
<polygon fill="midnightblue" stroke="midnightblue" points="1017.18,-20.03 1026.81,-15.61 1016.52,-13.06 1017.18,-20.03"/>
</g>
<!-- Node27&#45;&gt;Node4 -->
<g id="edge42" class="edge">
<title>Node27&#45;&gt;Node4</title>
<path fill="none" stroke="midnightblue" d="M311.56,-738.48C309.54,-731.4 306.56,-720.97 303.83,-711.39"/>
<polygon fill="midnightblue" stroke="midnightblue" points="307.12,-710.18 301.01,-701.52 300.39,-712.1 307.12,-710.18"/>
</g>
<!-- Node28 -->
<g id="node28" class="node">
<title>Node28</title>
<g id="a_node28"><a xlink:href="spec_2packet__io__stats_8h.html" target="_top" xlink:title="ODP Packet IO statistics.">
<polygon fill="white" stroke="black" points="74.5,-671.5 74.5,-701.5 187.5,-701.5 187.5,-671.5 74.5,-671.5"/>
<text text-anchor="start" x="82.5" y="-689.5" font-family="Helvetica,sans-Serif" font-size="10.00">odp/api/spec/packet</text>
<text text-anchor="middle" x="131" y="-678.5" font-family="Helvetica,sans-Serif" font-size="10.00">_io_stats.h</text>
</a>
</g>
</g>
<!-- Node27&#45;&gt;Node28 -->
<g id="edge43" class="edge">
<title>Node27&#45;&gt;Node28</title>
<path fill="none" stroke="midnightblue" d="M287.78,-738.48C260.8,-729.7 218,-715.79 183.94,-704.71"/>
<polygon fill="midnightblue" stroke="midnightblue" points="184.72,-701.29 174.13,-701.52 182.56,-707.94 184.72,-701.29"/>
</g>
<!-- Node28&#45;&gt;Node2 -->
<g id="edge44" class="edge">
<title>Node28&#45;&gt;Node2</title>
<path fill="none" stroke="midnightblue" d="M119.6,-671.18C103.49,-649.46 76,-606.27 76,-564.5 76,-564.5 76,-564.5 76,-132 76,-96.58 74.84,-80.94 100,-56 120.34,-35.84 149.46,-24.67 176.43,-18.5"/>
<polygon fill="midnightblue" stroke="midnightblue" points="177.17,-21.92 186.24,-16.45 175.74,-15.07 177.17,-21.92"/>
</g>
<!-- Node28&#45;&gt;Node17 -->
<g id="edge46" class="edge">
<title>Node28&#45;&gt;Node17</title>
<path fill="none" stroke="midnightblue" d="M133.17,-671.1C142.77,-611.55 186.07,-380.79 300,-235 394.2,-114.46 447.64,-100.52 594,-56 671.29,-32.49 902.17,-19.13 1016.85,-13.77"/>
<polygon fill="midnightblue" stroke="midnightblue" points="1017.08,-17.26 1026.91,-13.31 1016.76,-10.27 1017.08,-17.26"/>
</g>
<!-- Node28&#45;&gt;Node18 -->
<g id="edge45" class="edge">
<title>Node28&#45;&gt;Node18</title>
<path fill="none" stroke="midnightblue" d="M162.05,-671.4C183.73,-661.55 212.46,-648.5 233.55,-638.92"/>
<polygon fill="midnightblue" stroke="midnightblue" points="235.28,-641.98 242.94,-634.66 232.39,-635.61 235.28,-641.98"/>
</g>
<!-- Node30 -->
<g id="node30" class="node">
<title>Node30</title>
<g id="a_node30"><a xlink:title=" ">
<polygon fill="white" stroke="#bfbfbf" points="872,-906.5 872,-925.5 1008,-925.5 1008,-906.5 872,-906.5"/>
<text text-anchor="middle" x="940" y="-913.5" font-family="Helvetica,sans-Serif" font-size="10.00">odp/api/abi/pool_types.h</text>
</a>
</g>
</g>
<!-- Node29&#45;&gt;Node30 -->
<g id="edge48" class="edge">
<title>Node29&#45;&gt;Node30</title>
<path fill="none" stroke="midnightblue" d="M807.04,-962.44C833.62,-953.36 875.81,-938.94 905.52,-928.78"/>
<polygon fill="midnightblue" stroke="midnightblue" points="906.75,-932.06 915.08,-925.52 904.49,-925.44 906.75,-932.06"/>
</g>
<!-- Node31 -->
<g id="node31" class="node">
<title>Node31</title>
<g id="a_node31"><a xlink:href="api_2spec_2pool__types_8h.html" target="_top" xlink:title="Type definitions for pools.">
<polygon fill="white" stroke="black" points="710.5,-906.5 710.5,-925.5 853.5,-925.5 853.5,-906.5 710.5,-906.5"/>
<text text-anchor="middle" x="782" y="-913.5" font-family="Helvetica,sans-Serif" font-size="10.00">odp/api/spec/pool_types.h</text>
</a>
</g>
</g>
<!-- Node29&#45;&gt;Node31 -->
<g id="edge49" class="edge">
<title>Node29&#45;&gt;Node31</title>
<path fill="none" stroke="midnightblue" d="M782,-962.08C782,-955.01 782,-944.86 782,-935.99"/>
<polygon fill="midnightblue" stroke="midnightblue" points="785.5,-935.75 782,-925.75 778.5,-935.75 785.5,-935.75"/>
</g>
<!-- Node31&#45;&gt;Node2 -->
<g id="edge50" class="edge">
<title>Node31&#45;&gt;Node2</title>
<path fill="none" stroke="midnightblue" d="M710.32,-911.86C523.86,-902.75 38,-872.53 38,-805 38,-805 38,-805 38,-132 38,-94.24 46.69,-79.81 76,-56 104.18,-33.11 142.82,-21.76 176.24,-16.18"/>
<polygon fill="midnightblue" stroke="midnightblue" points="177.07,-19.6 186.42,-14.63 176.01,-12.68 177.07,-19.6"/>
</g>
<!-- Node31&#45;&gt;Node10 -->
<g id="edge51" class="edge">
<title>Node31&#45;&gt;Node10</title>
<path fill="none" stroke="midnightblue" d="M823.3,-906.47C916.08,-886.72 1133,-837.13 1133,-805 1133,-805 1133,-805 1133,-372.5 1133,-320.07 1078.3,-279.58 1044.68,-259.64"/>
<polygon fill="midnightblue" stroke="midnightblue" points="1046.24,-256.5 1035.82,-254.57 1042.76,-262.58 1046.24,-256.5"/>
</g>
<!-- Node31&#45;&gt;Node17 -->
<g id="edge73" class="edge">
<title>Node31&#45;&gt;Node17</title>
<path fill="none" stroke="midnightblue" d="M852.18,-906.48C900.86,-899.47 966.79,-887.75 1023,-870 1080.28,-851.91 1096.46,-847.97 1146,-814 1349.9,-674.19 1487,-621.73 1487,-374.5 1487,-374.5 1487,-374.5 1487,-132 1487,-92.05 1472.71,-77.44 1439,-56 1392.25,-26.26 1238.56,-16.12 1149.14,-12.7"/>
<polygon fill="midnightblue" stroke="midnightblue" points="1149.22,-9.21 1139.1,-12.34 1148.96,-16.2 1149.22,-9.21"/>
</g>
<!-- Node32 -->
<g id="node32" class="node">
<title>Node32</title>
<g id="a_node32"><a xlink:href="api_2dma__types_8h.html" target="_top" xlink:title="ODP DMA.">
<polygon fill="white" stroke="black" points="767.5,-850.5 767.5,-869.5 886.5,-869.5 886.5,-850.5 767.5,-850.5"/>
<text text-anchor="middle" x="827" y="-857.5" font-family="Helvetica,sans-Serif" font-size="10.00">odp/api/dma_types.h</text>
</a>
</g>
</g>
<!-- Node31&#45;&gt;Node32 -->
<g id="edge52" class="edge">
<title>Node31&#45;&gt;Node32</title>
<path fill="none" stroke="midnightblue" d="M789.43,-906.08C795.85,-898.38 805.31,-887.03 813.12,-877.65"/>
<polygon fill="midnightblue" stroke="midnightblue" points="815.99,-879.67 819.71,-869.75 810.62,-875.19 815.99,-879.67"/>
</g>
<!-- Node38 -->
<g id="node38" class="node">
<title>Node38</title>
<g id="a_node38"><a xlink:href="api_2ml__types_8h.html" target="_top" xlink:title="ODP Machine Learning (ML) types.">
<polygon fill="white" stroke="black" points="675,-738.5 675,-757.5 785,-757.5 785,-738.5 675,-738.5"/>
<text text-anchor="middle" x="730" y="-745.5" font-family="Helvetica,sans-Serif" font-size="10.00">odp/api/ml_types.h</text>
</a>
</g>
</g>
<!-- Node31&#45;&gt;Node38 -->
<g id="edge65" class="edge">
<title>Node31&#45;&gt;Node38</title>
<path fill="none" stroke="midnightblue" d="M776.5,-906.36C771.1,-897.53 762.97,-883.27 758,-870 744.87,-834.97 736.67,-791.83 732.76,-767.68"/>
<polygon fill="midnightblue" stroke="midnightblue" points="736.21,-767.08 731.22,-757.74 729.29,-768.15 736.21,-767.08"/>
</g>
<!-- Node33 -->
<g id="node33" class="node">
<title>Node33</title>
<g id="a_node33"><a xlink:title=" ">
<polygon fill="white" stroke="#bfbfbf" points="758.5,-794.5 758.5,-813.5 895.5,-813.5 895.5,-794.5 758.5,-794.5"/>
<text text-anchor="middle" x="827" y="-801.5" font-family="Helvetica,sans-Serif" font-size="10.00">odp/api/abi/dma_types.h</text>
</a>
</g>
</g>
<!-- Node32&#45;&gt;Node33 -->
<g id="edge53" class="edge">
<title>Node32&#45;&gt;Node33</title>
<path fill="none" stroke="midnightblue" d="M827,-850.08C827,-843.01 827,-832.86 827,-823.99"/>
<polygon fill="midnightblue" stroke="midnightblue" points="830.5,-823.75 827,-813.75 823.5,-823.75 830.5,-823.75"/>
</g>
<!-- Node34 -->
<g id="node34" class="node">
<title>Node34</title>
<g id="a_node34"><a xlink:href="api_2spec_2dma__types_8h.html" target="_top" xlink:title="ODP DMA.">
<polygon fill="white" stroke="black" points="914,-794.5 914,-813.5 1058,-813.5 1058,-794.5 914,-794.5"/>
<text text-anchor="middle" x="986" y="-801.5" font-family="Helvetica,sans-Serif" font-size="10.00">odp/api/spec/dma_types.h</text>
</a>
</g>
</g>
<!-- Node32&#45;&gt;Node34 -->
<g id="edge54" class="edge">
<title>Node32&#45;&gt;Node34</title>
<path fill="none" stroke="midnightblue" d="M852.19,-850.44C878.94,-841.36 921.4,-826.94 951.31,-816.78"/>
<polygon fill="midnightblue" stroke="midnightblue" points="952.58,-820.05 960.92,-813.52 950.33,-813.42 952.58,-820.05"/>
</g>
<!-- Node34&#45;&gt;Node2 -->
<g id="edge55" class="edge">
<title>Node34&#45;&gt;Node2</title>
<path fill="none" stroke="midnightblue" d="M972.57,-794.47C946.12,-777.54 885.63,-738.21 837,-702 819.52,-688.98 816.21,-684.37 799,-671 767.25,-646.34 539.06,-481.52 508,-456 492.2,-443.02 491.35,-435.83 474,-425 437.1,-401.97 419.94,-411.97 383,-389 345.32,-365.57 330.89,-360.59 309,-322 252.69,-222.7 246.92,-80.23 246.76,-29.67"/>
<polygon fill="midnightblue" stroke="midnightblue" points="250.27,-29.6 246.81,-19.59 243.27,-29.57 250.27,-29.6"/>
</g>
<!-- Node34&#45;&gt;Node3 -->
<g id="edge61" class="edge">
<title>Node34&#45;&gt;Node3</title>
<path fill="none" stroke="midnightblue" d="M913.57,-795.01C910.33,-794.67 907.13,-794.33 904,-794 744.96,-777.28 705,-775.05 546,-758 544.69,-757.86 543.36,-757.72 542.03,-757.57"/>
<polygon fill="midnightblue" stroke="midnightblue" points="541.98,-754.05 531.66,-756.44 541.22,-761 541.98,-754.05"/>
</g>
<!-- Node34&#45;&gt;Node10 -->
<g id="edge63" class="edge">
<title>Node34&#45;&gt;Node10</title>
<path fill="none" stroke="midnightblue" d="M993.49,-794.14C1018.12,-764.08 1095,-662.38 1095,-564.5 1095,-564.5 1095,-564.5 1095,-372.5 1095,-327.12 1058.62,-283.98 1036.2,-261.7"/>
<polygon fill="midnightblue" stroke="midnightblue" points="1038.57,-259.13 1028.94,-254.73 1033.72,-264.18 1038.57,-259.13"/>
</g>
<!-- Node34&#45;&gt;Node17 -->
<g id="edge64" class="edge">
<title>Node34&#45;&gt;Node17</title>
<path fill="none" stroke="midnightblue" d="M1010.24,-794.5C1105.51,-759.38 1449,-616 1449,-374.5 1449,-374.5 1449,-374.5 1449,-132 1449,-94.24 1441.7,-78 1411,-56 1370.24,-26.79 1232.69,-16.5 1149.21,-12.9"/>
<polygon fill="midnightblue" stroke="midnightblue" points="1149.19,-9.4 1139.06,-12.48 1148.9,-16.39 1149.19,-9.4"/>
</g>
<!-- Node34&#45;&gt;Node18 -->
<g id="edge62" class="edge">
<title>Node34&#45;&gt;Node18</title>
<path fill="none" stroke="midnightblue" d="M913.66,-794.78C834.07,-785.39 711.41,-769.79 666,-758 599.14,-740.63 580.73,-736.71 521,-702 502.16,-691.05 502.7,-680.33 483,-671 456.31,-658.35 384.33,-644.98 329.71,-636.14"/>
<polygon fill="midnightblue" stroke="midnightblue" points="330.15,-632.66 319.72,-634.54 329.05,-639.57 330.15,-632.66"/>
</g>
<!-- Node35 -->
<g id="node35" class="node">
<title>Node35</title>
<g id="a_node35"><a xlink:href="api_2event__types_8h.html" target="_top" xlink:title="ODP event API type definitions.">
<polygon fill="white" stroke="black" points="903.5,-615.5 903.5,-634.5 1028.5,-634.5 1028.5,-615.5 903.5,-615.5"/>
<text text-anchor="middle" x="966" y="-622.5" font-family="Helvetica,sans-Serif" font-size="10.00">odp/api/event_types.h</text>
</a>
</g>
</g>
<!-- Node34&#45;&gt;Node35 -->
<g id="edge56" class="edge">
<title>Node34&#45;&gt;Node35</title>
<path fill="none" stroke="midnightblue" d="M987.83,-794.49C992.07,-773.25 1001.34,-716.37 990,-671 987.56,-661.25 982.56,-651.29 977.76,-643.23"/>
<polygon fill="midnightblue" stroke="midnightblue" points="980.69,-641.32 972.37,-634.77 974.79,-645.08 980.69,-641.32"/>
</g>
<!-- Node36 -->
<g id="node36" class="node">
<title>Node36</title>
<g id="a_node36"><a xlink:title=" ">
<polygon fill="white" stroke="#bfbfbf" points="903.5,-554 903.5,-573 1046.5,-573 1046.5,-554 903.5,-554"/>
<text text-anchor="middle" x="975" y="-561" font-family="Helvetica,sans-Serif" font-size="10.00">odp/api/abi/event_types.h</text>
</a>
</g>
</g>
<!-- Node35&#45;&gt;Node36 -->
<g id="edge57" class="edge">
<title>Node35&#45;&gt;Node36</title>
<path fill="none" stroke="midnightblue" d="M967.29,-615.48C968.56,-607.08 970.54,-593.98 972.18,-583.16"/>
<polygon fill="midnightblue" stroke="midnightblue" points="975.68,-583.42 973.71,-573.01 968.76,-582.37 975.68,-583.42"/>
</g>
<!-- Node37 -->
<g id="node37" class="node">
<title>Node37</title>
<g id="a_node37"><a xlink:href="api_2spec_2event__types_8h.html" target="_top" xlink:title="ODP event API type definitions.">
<polygon fill="white" stroke="black" points="603.5,-56.5 603.5,-86.5 712.5,-86.5 712.5,-56.5 603.5,-56.5"/>
<text text-anchor="start" x="611.5" y="-74.5" font-family="Helvetica,sans-Serif" font-size="10.00">odp/api/spec/event</text>
<text text-anchor="middle" x="658" y="-63.5" font-family="Helvetica,sans-Serif" font-size="10.00">_types.h</text>
</a>
</g>
</g>
<!-- Node35&#45;&gt;Node37 -->
<g id="edge58" class="edge">
<title>Node35&#45;&gt;Node37</title>
<path fill="none" stroke="midnightblue" d="M942.84,-615.46C866.58,-587.23 624.06,-496.35 551,-456 530.38,-444.61 527.2,-438.65 508,-425 442.98,-378.78 397.82,-392.77 361,-322 301.15,-206.98 499.33,-123.84 601.26,-89.69"/>
<polygon fill="midnightblue" stroke="midnightblue" points="602.41,-93 610.81,-86.54 600.22,-86.35 602.41,-93"/>
</g>
<!-- Node37&#45;&gt;Node2 -->
<g id="edge59" class="edge">
<title>Node37&#45;&gt;Node2</title>
<path fill="none" stroke="midnightblue" d="M603.46,-58.64C598.58,-57.7 593.71,-56.8 589,-56 495.6,-40.06 387.01,-26.64 317.69,-18.71"/>
<polygon fill="midnightblue" stroke="midnightblue" points="318.08,-15.23 307.75,-17.58 317.29,-22.18 318.08,-15.23"/>
</g>
<!-- Node37&#45;&gt;Node17 -->
<g id="edge60" class="edge">
<title>Node37&#45;&gt;Node17</title>
<path fill="none" stroke="midnightblue" d="M712.54,-58.61C717.42,-57.68 722.29,-56.79 727,-56 827.57,-39.11 945.09,-25.42 1016.76,-17.74"/>
<polygon fill="midnightblue" stroke="midnightblue" points="1017.42,-21.19 1026.99,-16.65 1016.68,-14.23 1017.42,-21.19"/>
</g>
<!-- Node39 -->
<g id="node39" class="node">
<title>Node39</title>
<g id="a_node39"><a xlink:title=" ">
<polygon fill="white" stroke="#bfbfbf" points="662,-677 662,-696 790,-696 790,-677 662,-677"/>
<text text-anchor="middle" x="726" y="-684" font-family="Helvetica,sans-Serif" font-size="10.00">odp/api/abi/ml_types.h</text>
</a>
</g>
</g>
<!-- Node38&#45;&gt;Node39 -->
<g id="edge66" class="edge">
<title>Node38&#45;&gt;Node39</title>
<path fill="none" stroke="midnightblue" d="M729.43,-738.48C728.86,-730.08 727.98,-716.98 727.25,-706.16"/>
<polygon fill="midnightblue" stroke="midnightblue" points="730.74,-705.75 726.57,-696.01 723.75,-706.22 730.74,-705.75"/>
</g>
<!-- Node40 -->
<g id="node40" class="node">
<title>Node40</title>
<g id="a_node40"><a xlink:href="api_2spec_2ml__types_8h.html" target="_top" xlink:title="ODP Machine Learning (ML) types.">
<polygon fill="white" stroke="black" points="846.5,-677 846.5,-696 981.5,-696 981.5,-677 846.5,-677"/>
<text text-anchor="middle" x="914" y="-684" font-family="Helvetica,sans-Serif" font-size="10.00">odp/api/spec/ml_types.h</text>
</a>
</g>
</g>
<!-- Node38&#45;&gt;Node40 -->
<g id="edge67" class="edge">
<title>Node38&#45;&gt;Node40</title>
<path fill="none" stroke="midnightblue" d="M756.36,-738.48C788.34,-728.14 842.38,-710.66 878.12,-699.1"/>
<polygon fill="midnightblue" stroke="midnightblue" points="879.25,-702.42 887.69,-696.01 877.09,-695.76 879.25,-702.42"/>
</g>
<!-- Node40&#45;&gt;Node2 -->
<g id="edge68" class="edge">
<title>Node40&#45;&gt;Node2</title>
<path fill="none" stroke="midnightblue" d="M858.91,-676.95C745.74,-658.89 490.99,-615.49 411,-579 390.22,-569.52 389.94,-559.16 370,-548 331.68,-526.56 314.53,-536.37 278,-512 209.05,-466 152,-457.39 152,-374.5 152,-374.5 152,-374.5 152,-132 152,-85.25 196.42,-45.86 224.51,-25.62"/>
<polygon fill="midnightblue" stroke="midnightblue" points="226.77,-28.32 232.98,-19.74 222.77,-22.57 226.77,-28.32"/>
</g>
<!-- Node40&#45;&gt;Node10 -->
<g id="edge71" class="edge">
<title>Node40&#45;&gt;Node10</title>
<path fill="none" stroke="midnightblue" d="M909.41,-676.87C904.47,-667.05 896.93,-650.38 894,-635 886.75,-597.02 884.21,-585.41 894,-548 923.17,-436.54 991.83,-433.46 1021,-322 1026,-302.89 1024.47,-280.15 1022.34,-264.55"/>
<polygon fill="midnightblue" stroke="midnightblue" points="1025.78,-263.94 1020.76,-254.61 1018.87,-265.04 1025.78,-263.94"/>
</g>
<!-- Node40&#45;&gt;Node17 -->
<g id="edge72" class="edge">
<title>Node40&#45;&gt;Node17</title>
<path fill="none" stroke="midnightblue" d="M972.96,-676.93C1104.61,-654.13 1411,-579.09 1411,-374.5 1411,-374.5 1411,-374.5 1411,-132 1411,-96.58 1413.96,-78.98 1387,-56 1352.22,-26.35 1227.86,-16.23 1149.38,-12.78"/>
<polygon fill="midnightblue" stroke="midnightblue" points="1149.24,-9.27 1139.1,-12.36 1148.95,-16.27 1149.24,-9.27"/>
</g>
<!-- Node40&#45;&gt;Node18 -->
<g id="edge70" class="edge">
<title>Node40&#45;&gt;Node18</title>
<path fill="none" stroke="midnightblue" d="M850.19,-676.97C833.54,-674.88 815.61,-672.74 799,-671 633.76,-653.67 439.36,-638.73 335.77,-631.2"/>
<polygon fill="midnightblue" stroke="midnightblue" points="335.96,-627.71 325.73,-630.47 335.45,-634.69 335.96,-627.71"/>
</g>
<!-- Node40&#45;&gt;Node35 -->
<g id="edge69" class="edge">
<title>Node40&#45;&gt;Node35</title>
<path fill="none" stroke="midnightblue" d="M921.45,-676.98C929.33,-667.96 941.94,-653.52 951.74,-642.31"/>
<polygon fill="midnightblue" stroke="midnightblue" points="954.62,-644.34 958.56,-634.51 949.35,-639.74 954.62,-644.34"/>
</g>
<!-- Node42 -->
<g id="node42" class="node">
<title>Node42</title>
<g id="a_node42"><a xlink:href="spec_2reassembly_8h.html" target="_top" xlink:title="ODP REASSEMBLY API.">
<polygon fill="white" stroke="black" points="1199,-297 1199,-316 1345,-316 1345,-297 1199,-297"/>
<text text-anchor="middle" x="1272" y="-304" font-family="Helvetica,sans-Serif" font-size="10.00">odp/api/spec/reassembly.h</text>
</a>
</g>
</g>
<!-- Node41&#45;&gt;Node42 -->
<g id="edge76" class="edge">
<title>Node41&#45;&gt;Node42</title>
<path fill="none" stroke="midnightblue" d="M1295.56,-962.47C1292.58,-944.02 1286,-899 1286,-861 1286,-861 1286,-861 1286,-439.5 1286,-398.93 1279.38,-351.74 1275.24,-326.22"/>
<polygon fill="midnightblue" stroke="midnightblue" points="1278.66,-325.4 1273.55,-316.12 1271.75,-326.56 1278.66,-325.4"/>
</g>
<!-- Node42&#45;&gt;Node2 -->
<g id="edge77" class="edge">
<title>Node42&#45;&gt;Node2</title>
<path fill="none" stroke="midnightblue" d="M1251.69,-296.97C1217.51,-282.83 1146.12,-254.18 1084,-235 1019.73,-215.16 1002.12,-215.84 937,-199 808.85,-165.86 415.49,-57.5 287.62,-22.22"/>
<polygon fill="midnightblue" stroke="midnightblue" points="288.4,-18.8 277.83,-19.51 286.53,-25.55 288.4,-18.8"/>
</g>
<!-- Node42&#45;&gt;Node10 -->
<g id="edge78" class="edge">
<title>Node42&#45;&gt;Node10</title>
<path fill="none" stroke="midnightblue" d="M1235.75,-296.98C1190.85,-286.42 1114.29,-268.41 1065.22,-256.87"/>
<polygon fill="midnightblue" stroke="midnightblue" points="1065.72,-253.39 1055.18,-254.51 1064.11,-260.21 1065.72,-253.39"/>
</g>
<!-- Node42&#45;&gt;Node17 -->
<g id="edge79" class="edge">
<title>Node42&#45;&gt;Node17</title>
<path fill="none" stroke="midnightblue" d="M1271.49,-296.81C1270.42,-277.57 1268,-229.93 1268,-190 1268,-190 1268,-190 1268,-132 1268,-68.77 1191.38,-36.81 1136.76,-22.06"/>
<polygon fill="midnightblue" stroke="midnightblue" points="1137.4,-18.61 1126.84,-19.5 1135.65,-25.39 1137.4,-18.61"/>
</g>
</g>
</svg>
