<?xml version="1.0" encoding="UTF-8" standalone="no"?>
<!DOCTYPE svg PUBLIC "-//W3C//DTD SVG 1.1//EN"
 "http://www.w3.org/Graphics/SVG/1.1/DTD/svg11.dtd">
<!-- Generated by graphviz version 2.43.0 (0)
 -->
<!-- Title: packet_types.h Pages: 1 -->
<svg width="1133pt" height="756pt"
 viewBox="0.00 0.00 1132.50 756.00" xmlns="http://www.w3.org/2000/svg" xmlns:xlink="http://www.w3.org/1999/xlink">
<g id="graph0" class="graph" transform="scale(1 1) rotate(0) translate(4 752)">
<title>packet_types.h</title>
<polygon fill="white" stroke="transparent" points="-4,4 -4,-752 1128.5,-752 1128.5,4 -4,4"/>
<!-- Node1 -->
<g id="node1" class="node">
<title>Node1</title>
<g id="a_node1"><a xlink:title="ODP packet.">
<polygon fill="#bfbfbf" stroke="black" points="678.5,-728.5 678.5,-747.5 768.5,-747.5 768.5,-728.5 678.5,-728.5"/>
<text text-anchor="middle" x="723.5" y="-735.5" font-family="Helvetica,sans-Serif" font-size="10.00">packet_types.h</text>
</a>
</g>
</g>
<!-- Node2 -->
<g id="node2" class="node">
<title>Node2</title>
<g id="a_node2"><a xlink:href="api_2spec_2comp_8h.html" target="_top" xlink:title="ODP Compression.">
<polygon fill="white" stroke="black" points="0,-672.5 0,-691.5 53,-691.5 53,-672.5 0,-672.5"/>
<text text-anchor="middle" x="26.5" y="-679.5" font-family="Helvetica,sans-Serif" font-size="10.00">comp.h</text>
</a>
</g>
</g>
<!-- Node1&#45;&gt;Node2 -->
<g id="edge1" class="edge">
<title>Node1&#45;&gt;Node2</title>
<path fill="none" stroke="midnightblue" d="M668.17,-735.96C554.88,-733.22 288.58,-723.67 67.5,-692 62.88,-691.34 58.01,-690.45 53.3,-689.48"/>
<polygon fill="midnightblue" stroke="midnightblue" points="668.24,-739.46 678.32,-736.19 668.41,-732.46 668.24,-739.46"/>
</g>
<!-- Node5 -->
<g id="node5" class="node">
<title>Node5</title>
<g id="a_node5"><a xlink:href="api_2spec_2crypto_8h.html" target="_top" xlink:title="ODP crypto.">
<polygon fill="white" stroke="black" points="54.5,-224.5 54.5,-243.5 110.5,-243.5 110.5,-224.5 54.5,-224.5"/>
<text text-anchor="middle" x="82.5" y="-231.5" font-family="Helvetica,sans-Serif" font-size="10.00">crypto.h</text>
</a>
</g>
</g>
<!-- Node1&#45;&gt;Node5 -->
<g id="edge4" class="edge">
<title>Node1&#45;&gt;Node5</title>
<path fill="none" stroke="midnightblue" d="M667.76,-736.34C524.18,-734.18 149.85,-725.36 105.5,-692 80.89,-673.49 81.5,-657.8 81.5,-627 81.5,-627 81.5,-627 81.5,-345 81.5,-307.19 82.1,-262.06 82.37,-243.56"/>
<polygon fill="midnightblue" stroke="midnightblue" points="668.04,-739.85 678.09,-736.49 668.14,-732.85 668.04,-739.85"/>
</g>
<!-- Node7 -->
<g id="node7" class="node">
<title>Node7</title>
<g id="a_node7"><a xlink:href="api_2spec_2crypto__types_8h.html" target="_top" xlink:title="ODP crypto types.">
<polygon fill="white" stroke="black" points="148,-448.5 148,-467.5 237,-467.5 237,-448.5 148,-448.5"/>
<text text-anchor="middle" x="192.5" y="-455.5" font-family="Helvetica,sans-Serif" font-size="10.00">crypto_types.h</text>
</a>
</g>
</g>
<!-- Node1&#45;&gt;Node7 -->
<g id="edge7" class="edge">
<title>Node1&#45;&gt;Node7</title>
<path fill="none" stroke="midnightblue" d="M667.94,-735.1C547.17,-729.46 271.5,-707.73 271.5,-627 271.5,-627 271.5,-627 271.5,-569 271.5,-523.86 227.06,-484.55 204.84,-467.72"/>
<polygon fill="midnightblue" stroke="midnightblue" points="667.94,-738.6 678.09,-735.55 668.26,-731.61 667.94,-738.6"/>
</g>
<!-- Node9 -->
<g id="node9" class="node">
<title>Node9</title>
<g id="a_node9"><a xlink:href="api_2spec_2ipsec_8h.html" target="_top" xlink:title="ODP IPsec API.">
<polygon fill="white" stroke="black" points="167,-112.5 167,-131.5 218,-131.5 218,-112.5 167,-112.5"/>
<text text-anchor="middle" x="192.5" y="-119.5" font-family="Helvetica,sans-Serif" font-size="10.00">ipsec.h</text>
</a>
</g>
</g>
<!-- Node1&#45;&gt;Node9 -->
<g id="edge65" class="edge">
<title>Node1&#45;&gt;Node9</title>
<path fill="none" stroke="midnightblue" d="M667.81,-735C587.22,-731.21 433.82,-720.61 306.5,-692 220.65,-672.71 119.5,-714.99 119.5,-627 119.5,-627 119.5,-627 119.5,-345 119.5,-257.77 170.99,-160.47 187.48,-131.55"/>
<polygon fill="midnightblue" stroke="midnightblue" points="668.06,-738.52 678.21,-735.47 668.38,-731.53 668.06,-738.52"/>
</g>
<!-- Node13 -->
<g id="node13" class="node">
<title>Node13</title>
<g id="a_node13"><a xlink:href="api_2spec_2dma__types_8h.html" target="_top" xlink:title="ODP DMA.">
<polygon fill="white" stroke="black" points="560.5,-672.5 560.5,-691.5 640.5,-691.5 640.5,-672.5 560.5,-672.5"/>
<text text-anchor="middle" x="600.5" y="-679.5" font-family="Helvetica,sans-Serif" font-size="10.00">dma_types.h</text>
</a>
</g>
</g>
<!-- Node1&#45;&gt;Node13 -->
<g id="edge16" class="edge">
<title>Node1&#45;&gt;Node13</title>
<path fill="none" stroke="midnightblue" d="M694.73,-724.37C671.69,-714.26 640.02,-700.35 619.9,-691.52"/>
<polygon fill="midnightblue" stroke="midnightblue" points="693.45,-727.63 704.01,-728.44 696.26,-721.22 693.45,-727.63"/>
</g>
<!-- Node23 -->
<g id="node23" class="node">
<title>Node23</title>
<g id="a_node23"><a xlink:href="api_2spec_2packet__io_8h.html" target="_top" xlink:title="ODP Packet IO.">
<polygon fill="white" stroke="black" points="819.5,-224.5 819.5,-243.5 891.5,-243.5 891.5,-224.5 819.5,-224.5"/>
<text text-anchor="middle" x="855.5" y="-231.5" font-family="Helvetica,sans-Serif" font-size="10.00">packet_io.h</text>
</a>
</g>
</g>
<!-- Node1&#45;&gt;Node23 -->
<g id="edge70" class="edge">
<title>Node1&#45;&gt;Node23</title>
<path fill="none" stroke="midnightblue" d="M778.39,-726.18C829.05,-712.62 896.5,-683.89 896.5,-627 896.5,-627 896.5,-627 896.5,-457 896.5,-377.42 887.37,-357.54 869.5,-280 866.52,-267.08 861.71,-252.49 858.57,-243.52"/>
<polygon fill="midnightblue" stroke="midnightblue" points="777.33,-722.84 768.5,-728.69 779.06,-729.62 777.33,-722.84"/>
</g>
<!-- Node25 -->
<g id="node25" class="node">
<title>Node25</title>
<g id="a_node25"><a xlink:href="api_2spec_2event_8h.html" target="_top" xlink:title="ODP event.">
<polygon fill="white" stroke="black" points="925,-448.5 925,-467.5 978,-467.5 978,-448.5 925,-448.5"/>
<text text-anchor="middle" x="951.5" y="-455.5" font-family="Helvetica,sans-Serif" font-size="10.00">event.h</text>
</a>
</g>
</g>
<!-- Node1&#45;&gt;Node25 -->
<g id="edge64" class="edge">
<title>Node1&#45;&gt;Node25</title>
<path fill="none" stroke="midnightblue" d="M778.8,-735.88C819.2,-732.38 873.2,-721.84 910.5,-692 935.64,-671.88 942.5,-659.2 942.5,-627 942.5,-627 942.5,-627 942.5,-569 942.5,-531.06 947.88,-486.01 950.32,-467.54"/>
<polygon fill="midnightblue" stroke="midnightblue" points="778.3,-732.4 768.58,-736.64 778.82,-739.38 778.3,-732.4"/>
</g>
<!-- Node31 -->
<g id="node31" class="node">
<title>Node31</title>
<g id="a_node31"><a xlink:href="api_2spec_2packet_8h.html" target="_top" xlink:title="ODP packet descriptor.">
<polygon fill="white" stroke="black" points="925.5,-336.5 925.5,-355.5 983.5,-355.5 983.5,-336.5 925.5,-336.5"/>
<text text-anchor="middle" x="954.5" y="-343.5" font-family="Helvetica,sans-Serif" font-size="10.00">packet.h</text>
</a>
</g>
</g>
<!-- Node1&#45;&gt;Node31 -->
<g id="edge66" class="edge">
<title>Node1&#45;&gt;Node31</title>
<path fill="none" stroke="midnightblue" d="M778.79,-732.74C822.85,-727.61 885.12,-716.39 934.5,-692 974.35,-672.31 1010.5,-671.45 1010.5,-627 1010.5,-627 1010.5,-627 1010.5,-457 1010.5,-415.21 978.01,-373.26 962.52,-355.64"/>
<polygon fill="midnightblue" stroke="midnightblue" points="778.4,-729.26 768.84,-733.83 779.17,-736.22 778.4,-729.26"/>
</g>
<!-- Node33 -->
<g id="node33" class="node">
<title>Node33</title>
<g id="a_node33"><a xlink:href="api_2spec_2packet__io__types_8h.html" target="_top" xlink:title="ODP Packet IO types.">
<polygon fill="white" stroke="black" points="764.5,-448.5 764.5,-467.5 868.5,-467.5 868.5,-448.5 764.5,-448.5"/>
<text text-anchor="middle" x="816.5" y="-455.5" font-family="Helvetica,sans-Serif" font-size="10.00">packet_io_types.h</text>
</a>
</g>
</g>
<!-- Node1&#45;&gt;Node33 -->
<g id="edge71" class="edge">
<title>Node1&#45;&gt;Node33</title>
<path fill="none" stroke="midnightblue" d="M731.76,-719.25C740.94,-697.86 754.5,-660.59 754.5,-627 754.5,-627 754.5,-627 754.5,-569 754.5,-526.47 790.11,-485.23 807.35,-467.75"/>
<polygon fill="midnightblue" stroke="midnightblue" points="728.56,-717.83 727.68,-728.39 734.95,-720.69 728.56,-717.83"/>
</g>
<!-- Node41 -->
<g id="node41" class="node">
<title>Node41</title>
<g id="a_node41"><a xlink:href="api_2spec_2packet__flags_8h.html" target="_top" xlink:title="ODP packet flags.">
<polygon fill="white" stroke="black" points="1038.5,-672.5 1038.5,-691.5 1124.5,-691.5 1124.5,-672.5 1038.5,-672.5"/>
<text text-anchor="middle" x="1081.5" y="-679.5" font-family="Helvetica,sans-Serif" font-size="10.00">packet_flags.h</text>
</a>
</g>
</g>
<!-- Node1&#45;&gt;Node41 -->
<g id="edge67" class="edge">
<title>Node1&#45;&gt;Node41</title>
<path fill="none" stroke="midnightblue" d="M778.72,-728.88C839.11,-719.97 938.72,-705.18 1024.5,-692 1028.96,-691.32 1033.61,-690.59 1038.25,-689.87"/>
<polygon fill="midnightblue" stroke="midnightblue" points="778.03,-725.45 768.65,-730.37 779.05,-732.37 778.03,-725.45"/>
</g>
<!-- Node3 -->
<g id="node3" class="node">
<title>Node3</title>
<g id="a_node3"><a xlink:href="api_2comp_8h.html" target="_top" xlink:title="ODP crypto.">
<polygon fill="white" stroke="black" points="0,-560.5 0,-579.5 53,-579.5 53,-560.5 0,-560.5"/>
<text text-anchor="middle" x="26.5" y="-567.5" font-family="Helvetica,sans-Serif" font-size="10.00">comp.h</text>
</a>
</g>
</g>
<!-- Node2&#45;&gt;Node3 -->
<g id="edge2" class="edge">
<title>Node2&#45;&gt;Node3</title>
<path fill="none" stroke="midnightblue" d="M26.5,-662.35C26.5,-638.25 26.5,-597.31 26.5,-579.59"/>
<polygon fill="midnightblue" stroke="midnightblue" points="23,-662.37 26.5,-672.37 30,-662.37 23,-662.37"/>
</g>
<!-- Node4 -->
<g id="node4" class="node">
<title>Node4</title>
<g id="a_node4"><a xlink:href="odp__api_8h.html" target="_top" xlink:title="The OpenDataPlane API.">
<polygon fill="white" stroke="black" points="537.5,-0.5 537.5,-19.5 601.5,-19.5 601.5,-0.5 537.5,-0.5"/>
<text text-anchor="middle" x="569.5" y="-7.5" font-family="Helvetica,sans-Serif" font-size="10.00">odp_api.h</text>
</a>
</g>
</g>
<!-- Node3&#45;&gt;Node4 -->
<g id="edge3" class="edge">
<title>Node3&#45;&gt;Node4</title>
<path fill="none" stroke="midnightblue" d="M26.5,-550.25C26.5,-528.36 26.5,-491.05 26.5,-459 26.5,-459 26.5,-459 26.5,-121 26.5,-16.16 420.26,-10.11 537.16,-10.62"/>
<polygon fill="midnightblue" stroke="midnightblue" points="23,-550.44 26.5,-560.44 30,-550.44 23,-550.44"/>
</g>
<!-- Node6 -->
<g id="node6" class="node">
<title>Node6</title>
<g id="a_node6"><a xlink:href="api_2crypto_8h.html" target="_top" xlink:title="ODP crypto.">
<polygon fill="white" stroke="black" points="54.5,-168.5 54.5,-187.5 110.5,-187.5 110.5,-168.5 54.5,-168.5"/>
<text text-anchor="middle" x="82.5" y="-175.5" font-family="Helvetica,sans-Serif" font-size="10.00">crypto.h</text>
</a>
</g>
</g>
<!-- Node5&#45;&gt;Node6 -->
<g id="edge5" class="edge">
<title>Node5&#45;&gt;Node6</title>
<path fill="none" stroke="midnightblue" d="M82.5,-213.8C82.5,-204.91 82.5,-194.78 82.5,-187.75"/>
<polygon fill="midnightblue" stroke="midnightblue" points="79,-214.08 82.5,-224.08 86,-214.08 79,-214.08"/>
</g>
<!-- Node6&#45;&gt;Node4 -->
<g id="edge6" class="edge">
<title>Node6&#45;&gt;Node4</title>
<path fill="none" stroke="midnightblue" d="M89.05,-158.83C99.99,-131.37 124.8,-79.96 164.5,-56 227.12,-18.22 452.75,-12.11 537.25,-11.16"/>
<polygon fill="midnightblue" stroke="midnightblue" points="85.7,-157.79 85.42,-168.38 92.24,-160.28 85.7,-157.79"/>
</g>
<!-- Node8 -->
<g id="node8" class="node">
<title>Node8</title>
<g id="a_node8"><a xlink:href="api_2crypto__types_8h.html" target="_top" xlink:title="ODP crypto.">
<polygon fill="white" stroke="black" points="148,-280.5 148,-299.5 237,-299.5 237,-280.5 148,-280.5"/>
<text text-anchor="middle" x="192.5" y="-287.5" font-family="Helvetica,sans-Serif" font-size="10.00">crypto_types.h</text>
</a>
</g>
</g>
<!-- Node7&#45;&gt;Node8 -->
<g id="edge8" class="edge">
<title>Node7&#45;&gt;Node8</title>
<path fill="none" stroke="midnightblue" d="M192.5,-437.93C192.5,-401.92 192.5,-325.23 192.5,-299.57"/>
<polygon fill="midnightblue" stroke="midnightblue" points="189,-438.08 192.5,-448.08 196,-438.08 189,-438.08"/>
</g>
<!-- Node8&#45;&gt;Node5 -->
<g id="edge9" class="edge">
<title>Node8&#45;&gt;Node5</title>
<path fill="none" stroke="midnightblue" d="M165.74,-275.86C145.34,-265.85 117.83,-252.35 100.13,-243.65"/>
<polygon fill="midnightblue" stroke="midnightblue" points="164.31,-279.06 174.83,-280.32 167.39,-272.78 164.31,-279.06"/>
</g>
<!-- Node8&#45;&gt;Node9 -->
<g id="edge10" class="edge">
<title>Node8&#45;&gt;Node9</title>
<path fill="none" stroke="midnightblue" d="M192.5,-269.93C192.5,-233.92 192.5,-157.23 192.5,-131.57"/>
<polygon fill="midnightblue" stroke="midnightblue" points="189,-270.08 192.5,-280.08 196,-270.08 189,-270.08"/>
</g>
<!-- Node11 -->
<g id="node11" class="node">
<title>Node11</title>
<g id="a_node11"><a xlink:href="api_2spec_2ipsec__types_8h.html" target="_top" xlink:title="ODP IPsec API type definitions.">
<polygon fill="white" stroke="black" points="598,-224.5 598,-243.5 681,-243.5 681,-224.5 598,-224.5"/>
<text text-anchor="middle" x="639.5" y="-231.5" font-family="Helvetica,sans-Serif" font-size="10.00">ipsec_types.h</text>
</a>
</g>
</g>
<!-- Node8&#45;&gt;Node11 -->
<g id="edge13" class="edge">
<title>Node8&#45;&gt;Node11</title>
<path fill="none" stroke="midnightblue" d="M247.48,-282.36C338.12,-271.41 516.91,-249.81 597.89,-240.03"/>
<polygon fill="midnightblue" stroke="midnightblue" points="246.91,-278.9 237.41,-283.58 247.75,-285.85 246.91,-278.9"/>
</g>
<!-- Node10 -->
<g id="node10" class="node">
<title>Node10</title>
<g id="a_node10"><a xlink:href="api_2ipsec_8h.html" target="_top" xlink:title="ODP IPSEC API &#45; platform specific header.">
<polygon fill="white" stroke="black" points="174,-56.5 174,-75.5 225,-75.5 225,-56.5 174,-56.5"/>
<text text-anchor="middle" x="199.5" y="-63.5" font-family="Helvetica,sans-Serif" font-size="10.00">ipsec.h</text>
</a>
</g>
</g>
<!-- Node9&#45;&gt;Node10 -->
<g id="edge11" class="edge">
<title>Node9&#45;&gt;Node10</title>
<path fill="none" stroke="midnightblue" d="M194.95,-102.1C196.11,-93.14 197.44,-82.86 198.37,-75.75"/>
<polygon fill="midnightblue" stroke="midnightblue" points="191.47,-101.72 193.66,-112.08 198.41,-102.62 191.47,-101.72"/>
</g>
<!-- Node10&#45;&gt;Node4 -->
<g id="edge12" class="edge">
<title>Node10&#45;&gt;Node4</title>
<path fill="none" stroke="midnightblue" d="M235.22,-58.8C240.99,-57.83 246.91,-56.87 252.5,-56 356.31,-39.82 479.62,-23 537.06,-15.31"/>
<polygon fill="midnightblue" stroke="midnightblue" points="234.36,-55.39 225.09,-60.51 235.53,-62.3 234.36,-55.39"/>
</g>
<!-- Node12 -->
<g id="node12" class="node">
<title>Node12</title>
<g id="a_node12"><a xlink:href="api_2ipsec__types_8h.html" target="_top" xlink:title="ODP IPsec.">
<polygon fill="white" stroke="black" points="331,-168.5 331,-187.5 414,-187.5 414,-168.5 331,-168.5"/>
<text text-anchor="middle" x="372.5" y="-175.5" font-family="Helvetica,sans-Serif" font-size="10.00">ipsec_types.h</text>
</a>
</g>
</g>
<!-- Node11&#45;&gt;Node12 -->
<g id="edge14" class="edge">
<title>Node11&#45;&gt;Node12</title>
<path fill="none" stroke="midnightblue" d="M587.71,-222.53C537.16,-212.3 461.22,-196.94 414.37,-187.47"/>
<polygon fill="midnightblue" stroke="midnightblue" points="587.29,-226.01 597.78,-224.56 588.67,-219.15 587.29,-226.01"/>
</g>
<!-- Node12&#45;&gt;Node9 -->
<g id="edge15" class="edge">
<title>Node12&#45;&gt;Node9</title>
<path fill="none" stroke="midnightblue" d="M334.13,-165.49C299.19,-155.01 248.58,-139.82 218.26,-130.73"/>
<polygon fill="midnightblue" stroke="midnightblue" points="333.39,-168.92 343.98,-168.44 335.41,-162.22 333.39,-168.92"/>
</g>
<!-- Node14 -->
<g id="node14" class="node">
<title>Node14</title>
<g id="a_node14"><a xlink:href="api_2dma__types_8h.html" target="_top" xlink:title="ODP DMA.">
<polygon fill="white" stroke="black" points="492.5,-616.5 492.5,-635.5 572.5,-635.5 572.5,-616.5 492.5,-616.5"/>
<text text-anchor="middle" x="532.5" y="-623.5" font-family="Helvetica,sans-Serif" font-size="10.00">dma_types.h</text>
</a>
</g>
</g>
<!-- Node13&#45;&gt;Node14 -->
<g id="edge17" class="edge">
<title>Node13&#45;&gt;Node14</title>
<path fill="none" stroke="midnightblue" d="M581.74,-666.1C569.5,-656.38 553.94,-644.03 543.62,-635.83"/>
<polygon fill="midnightblue" stroke="midnightblue" points="579.57,-668.85 589.57,-672.32 583.92,-663.36 579.57,-668.85"/>
</g>
<!-- Node15 -->
<g id="node15" class="node">
<title>Node15</title>
<g id="a_node15"><a xlink:href="api_2spec_2dma_8h.html" target="_top" xlink:title="ODP DMA.">
<polygon fill="white" stroke="black" points="255,-448.5 255,-467.5 302,-467.5 302,-448.5 255,-448.5"/>
<text text-anchor="middle" x="278.5" y="-455.5" font-family="Helvetica,sans-Serif" font-size="10.00">dma.h</text>
</a>
</g>
</g>
<!-- Node14&#45;&gt;Node15 -->
<g id="edge18" class="edge">
<title>Node14&#45;&gt;Node15</title>
<path fill="none" stroke="midnightblue" d="M510.54,-610.65C459.24,-577.12 332.81,-494.49 291.67,-467.61"/>
<polygon fill="midnightblue" stroke="midnightblue" points="508.92,-613.77 519.2,-616.31 512.75,-607.91 508.92,-613.77"/>
</g>
<!-- Node17 -->
<g id="node17" class="node">
<title>Node17</title>
<g id="a_node17"><a xlink:href="api_2spec_2pool__types_8h.html" target="_top" xlink:title="Type definitions for pools.">
<polygon fill="white" stroke="black" points="493,-560.5 493,-579.5 572,-579.5 572,-560.5 493,-560.5"/>
<text text-anchor="middle" x="532.5" y="-567.5" font-family="Helvetica,sans-Serif" font-size="10.00">pool_types.h</text>
</a>
</g>
</g>
<!-- Node14&#45;&gt;Node17 -->
<g id="edge21" class="edge">
<title>Node14&#45;&gt;Node17</title>
<path fill="none" stroke="midnightblue" d="M532.5,-605.8C532.5,-596.91 532.5,-586.78 532.5,-579.75"/>
<polygon fill="midnightblue" stroke="midnightblue" points="529,-606.08 532.5,-616.08 536,-606.08 529,-606.08"/>
</g>
<!-- Node16 -->
<g id="node16" class="node">
<title>Node16</title>
<g id="a_node16"><a xlink:href="api_2dma_8h.html" target="_top" xlink:title="ODP DMA.">
<polygon fill="white" stroke="black" points="236,-112.5 236,-131.5 283,-131.5 283,-112.5 236,-112.5"/>
<text text-anchor="middle" x="259.5" y="-119.5" font-family="Helvetica,sans-Serif" font-size="10.00">dma.h</text>
</a>
</g>
</g>
<!-- Node15&#45;&gt;Node16 -->
<g id="edge19" class="edge">
<title>Node15&#45;&gt;Node16</title>
<path fill="none" stroke="midnightblue" d="M277.42,-438.05C273.85,-375.23 262.48,-175.33 259.99,-131.54"/>
<polygon fill="midnightblue" stroke="midnightblue" points="273.95,-438.62 278.01,-448.41 280.94,-438.23 273.95,-438.62"/>
</g>
<!-- Node16&#45;&gt;Node4 -->
<g id="edge20" class="edge">
<title>Node16&#45;&gt;Node4</title>
<path fill="none" stroke="midnightblue" d="M265.38,-102.42C271.12,-87.43 281.38,-67.09 297.5,-56 335.94,-29.54 473.64,-17.28 537.08,-12.94"/>
<polygon fill="midnightblue" stroke="midnightblue" points="261.97,-101.58 261.98,-112.17 268.58,-103.88 261.97,-101.58"/>
</g>
<!-- Node18 -->
<g id="node18" class="node">
<title>Node18</title>
<g id="a_node18"><a xlink:href="api_2pool__types_8h.html" target="_top" xlink:title="ODP pool.">
<polygon fill="white" stroke="black" points="530,-504.5 530,-523.5 609,-523.5 609,-504.5 530,-504.5"/>
<text text-anchor="middle" x="569.5" y="-511.5" font-family="Helvetica,sans-Serif" font-size="10.00">pool_types.h</text>
</a>
</g>
</g>
<!-- Node17&#45;&gt;Node18 -->
<g id="edge22" class="edge">
<title>Node17&#45;&gt;Node18</title>
<path fill="none" stroke="midnightblue" d="M544.45,-551.57C550.81,-542.27 558.37,-531.25 563.5,-523.75"/>
<polygon fill="midnightblue" stroke="midnightblue" points="541.37,-549.86 538.61,-560.08 547.15,-553.81 541.37,-549.86"/>
</g>
<!-- Node18&#45;&gt;Node7 -->
<g id="edge33" class="edge">
<title>Node18&#45;&gt;Node7</title>
<path fill="none" stroke="midnightblue" d="M519.63,-506.55C455.95,-498.2 342.39,-482.95 245.5,-468 242.73,-467.57 239.89,-467.12 237.02,-466.66"/>
<polygon fill="midnightblue" stroke="midnightblue" points="519.42,-510.05 529.79,-507.88 520.33,-503.11 519.42,-510.05"/>
</g>
<!-- Node18&#45;&gt;Node13 -->
<g id="edge35" class="edge">
<title>Node18&#45;&gt;Node13</title>
<path fill="none" stroke="midnightblue" d="M574.35,-533.46C576.39,-541.57 578.7,-551.22 580.5,-560 589.08,-601.93 596.51,-652.61 599.31,-672.45"/>
<polygon fill="midnightblue" stroke="midnightblue" points="577.69,-532.39 571.8,-523.58 570.91,-534.14 577.69,-532.39"/>
</g>
<!-- Node18&#45;&gt;Node15 -->
<g id="edge34" class="edge">
<title>Node18&#45;&gt;Node15</title>
<path fill="none" stroke="midnightblue" d="M519.73,-505.9C467.36,-498.07 382.69,-484.38 310.5,-468 307.8,-467.39 304.99,-466.69 302.2,-465.96"/>
<polygon fill="midnightblue" stroke="midnightblue" points="519.35,-509.38 529.76,-507.39 520.38,-502.46 519.35,-509.38"/>
</g>
<!-- Node19 -->
<g id="node19" class="node">
<title>Node19</title>
<g id="a_node19"><a xlink:href="api_2spec_2buffer_8h.html" target="_top" xlink:title="ODP buffer.">
<polygon fill="white" stroke="black" points="454,-448.5 454,-467.5 507,-467.5 507,-448.5 454,-448.5"/>
<text text-anchor="middle" x="480.5" y="-455.5" font-family="Helvetica,sans-Serif" font-size="10.00">buffer.h</text>
</a>
</g>
</g>
<!-- Node18&#45;&gt;Node19 -->
<g id="edge23" class="edge">
<title>Node18&#45;&gt;Node19</title>
<path fill="none" stroke="midnightblue" d="M546.26,-498.9C529.94,-489 508.63,-476.07 494.76,-467.65"/>
<polygon fill="midnightblue" stroke="midnightblue" points="544.84,-502.13 555.2,-504.32 548.47,-496.14 544.84,-502.13"/>
</g>
<!-- Node21 -->
<g id="node21" class="node">
<title>Node21</title>
<g id="a_node21"><a xlink:href="api_2spec_2classification_8h.html" target="_top" xlink:title="ODP classification descriptor.">
<polygon fill="white" stroke="black" points="641,-336.5 641,-355.5 730,-355.5 730,-336.5 641,-336.5"/>
<text text-anchor="middle" x="685.5" y="-343.5" font-family="Helvetica,sans-Serif" font-size="10.00">classification.h</text>
</a>
</g>
</g>
<!-- Node18&#45;&gt;Node21 -->
<g id="edge26" class="edge">
<title>Node18&#45;&gt;Node21</title>
<path fill="none" stroke="midnightblue" d="M619.2,-505.04C641.35,-498.81 665.54,-487.72 679.5,-468 704.29,-432.98 693.38,-376.94 687.93,-355.61"/>
<polygon fill="midnightblue" stroke="midnightblue" points="618.04,-501.73 609.21,-507.58 619.76,-508.51 618.04,-501.73"/>
</g>
<!-- Node18&#45;&gt;Node25 -->
<g id="edge36" class="edge">
<title>Node18&#45;&gt;Node25</title>
<path fill="none" stroke="midnightblue" d="M619.35,-505.95C701.12,-494.39 860.99,-471.79 924.53,-462.81"/>
<polygon fill="midnightblue" stroke="midnightblue" points="618.71,-502.51 609.3,-507.37 619.69,-509.44 618.71,-502.51"/>
</g>
<!-- Node27 -->
<g id="node27" class="node">
<title>Node27</title>
<g id="a_node27"><a xlink:href="api_2spec_2event__vector_8h.html" target="_top" xlink:title="ODP event vector.">
<polygon fill="white" stroke="black" points="525,-448.5 525,-467.5 614,-467.5 614,-448.5 525,-448.5"/>
<text text-anchor="middle" x="569.5" y="-455.5" font-family="Helvetica,sans-Serif" font-size="10.00">event_vector.h</text>
</a>
</g>
</g>
<!-- Node18&#45;&gt;Node27 -->
<g id="edge39" class="edge">
<title>Node18&#45;&gt;Node27</title>
<path fill="none" stroke="midnightblue" d="M569.5,-493.8C569.5,-484.91 569.5,-474.78 569.5,-467.75"/>
<polygon fill="midnightblue" stroke="midnightblue" points="566,-494.08 569.5,-504.08 573,-494.08 566,-494.08"/>
</g>
<!-- Node29 -->
<g id="node29" class="node">
<title>Node29</title>
<g id="a_node29"><a xlink:href="spec_2ml_8h.html" target="_top" xlink:title="ODP Machine Learning (ML) offload.">
<polygon fill="white" stroke="black" points="632.5,-448.5 632.5,-467.5 670.5,-467.5 670.5,-448.5 632.5,-448.5"/>
<text text-anchor="middle" x="651.5" y="-455.5" font-family="Helvetica,sans-Serif" font-size="10.00">ml.h</text>
</a>
</g>
</g>
<!-- Node18&#45;&gt;Node29 -->
<g id="edge42" class="edge">
<title>Node18&#45;&gt;Node29</title>
<path fill="none" stroke="midnightblue" d="M591.33,-498.62C606.31,-488.76 625.7,-475.99 638.36,-467.65"/>
<polygon fill="midnightblue" stroke="midnightblue" points="589.1,-495.9 582.67,-504.32 592.95,-501.75 589.1,-495.9"/>
</g>
<!-- Node18&#45;&gt;Node31 -->
<g id="edge45" class="edge">
<title>Node18&#45;&gt;Node31</title>
<path fill="none" stroke="midnightblue" d="M603.99,-500.99C629.98,-491.93 666.48,-479.2 698.5,-468 723.84,-459.13 730.1,-456.69 755.5,-448 803.37,-431.62 818.41,-434.96 863.5,-412 895.33,-395.79 928.42,-369.3 944.51,-355.69"/>
<polygon fill="midnightblue" stroke="midnightblue" points="602.53,-497.79 594.23,-504.39 604.83,-504.4 602.53,-497.79"/>
</g>
<!-- Node18&#45;&gt;Node33 -->
<g id="edge48" class="edge">
<title>Node18&#45;&gt;Node33</title>
<path fill="none" stroke="midnightblue" d="M618.53,-502.28C665.2,-492.08 734.53,-476.92 777.55,-467.52"/>
<polygon fill="midnightblue" stroke="midnightblue" points="617.66,-498.89 608.64,-504.44 619.15,-505.73 617.66,-498.89"/>
</g>
<!-- Node37 -->
<g id="node37" class="node">
<title>Node37</title>
<g id="a_node37"><a xlink:href="api_2spec_2pool_8h.html" target="_top" xlink:title="ODP pool.">
<polygon fill="white" stroke="black" points="320,-448.5 320,-467.5 367,-467.5 367,-448.5 320,-448.5"/>
<text text-anchor="middle" x="343.5" y="-455.5" font-family="Helvetica,sans-Serif" font-size="10.00">pool.h</text>
</a>
</g>
</g>
<!-- Node18&#45;&gt;Node37 -->
<g id="edge58" class="edge">
<title>Node18&#45;&gt;Node37</title>
<path fill="none" stroke="midnightblue" d="M520.5,-502.29C481.18,-493.54 424.64,-480.6 375.5,-468 372.82,-467.31 370.01,-466.57 367.23,-465.81"/>
<polygon fill="midnightblue" stroke="midnightblue" points="519.83,-505.73 530.35,-504.48 521.35,-498.9 519.83,-505.73"/>
</g>
<!-- Node39 -->
<g id="node39" class="node">
<title>Node39</title>
<g id="a_node39"><a xlink:href="api_2spec_2timer_8h.html" target="_top" xlink:title="ODP timer service.">
<polygon fill="white" stroke="black" points="385,-448.5 385,-467.5 436,-467.5 436,-448.5 385,-448.5"/>
<text text-anchor="middle" x="410.5" y="-455.5" font-family="Helvetica,sans-Serif" font-size="10.00">timer.h</text>
</a>
</g>
</g>
<!-- Node18&#45;&gt;Node39 -->
<g id="edge61" class="edge">
<title>Node18&#45;&gt;Node39</title>
<path fill="none" stroke="midnightblue" d="M534.67,-501.17C504.73,-491 462.28,-476.59 435.58,-467.52"/>
<polygon fill="midnightblue" stroke="midnightblue" points="533.71,-504.54 544.31,-504.44 535.96,-497.91 533.71,-504.54"/>
</g>
<!-- Node20 -->
<g id="node20" class="node">
<title>Node20</title>
<g id="a_node20"><a xlink:href="api_2buffer_8h.html" target="_top" xlink:title="ODP buffer descriptor.">
<polygon fill="white" stroke="black" points="454,-56.5 454,-75.5 507,-75.5 507,-56.5 454,-56.5"/>
<text text-anchor="middle" x="480.5" y="-63.5" font-family="Helvetica,sans-Serif" font-size="10.00">buffer.h</text>
</a>
</g>
</g>
<!-- Node19&#45;&gt;Node20 -->
<g id="edge24" class="edge">
<title>Node19&#45;&gt;Node20</title>
<path fill="none" stroke="midnightblue" d="M480.5,-438.25C480.5,-416.36 480.5,-379.05 480.5,-347 480.5,-347 480.5,-347 480.5,-177 480.5,-139.19 480.5,-94.06 480.5,-75.56"/>
<polygon fill="midnightblue" stroke="midnightblue" points="477,-438.44 480.5,-448.44 484,-438.44 477,-438.44"/>
</g>
<!-- Node20&#45;&gt;Node4 -->
<g id="edge25" class="edge">
<title>Node20&#45;&gt;Node4</title>
<path fill="none" stroke="midnightblue" d="M503.74,-50.9C520.06,-41 541.37,-28.07 555.24,-19.65"/>
<polygon fill="midnightblue" stroke="midnightblue" points="501.53,-48.14 494.8,-56.32 505.16,-54.13 501.53,-48.14"/>
</g>
<!-- Node22 -->
<g id="node22" class="node">
<title>Node22</title>
<g id="a_node22"><a xlink:href="api_2classification_8h.html" target="_top" xlink:title="ODP classification descriptor.">
<polygon fill="white" stroke="black" points="742,-280.5 742,-299.5 831,-299.5 831,-280.5 742,-280.5"/>
<text text-anchor="middle" x="786.5" y="-287.5" font-family="Helvetica,sans-Serif" font-size="10.00">classification.h</text>
</a>
</g>
</g>
<!-- Node21&#45;&gt;Node22 -->
<g id="edge27" class="edge">
<title>Node21&#45;&gt;Node22</title>
<path fill="none" stroke="midnightblue" d="M710.58,-331.59C729.26,-321.61 754.2,-308.27 770.31,-299.65"/>
<polygon fill="midnightblue" stroke="midnightblue" points="708.9,-328.52 701.73,-336.32 712.2,-334.7 708.9,-328.52"/>
</g>
<!-- Node22&#45;&gt;Node4 -->
<g id="edge32" class="edge">
<title>Node22&#45;&gt;Node4</title>
<path fill="none" stroke="midnightblue" d="M781.28,-270.39C775.66,-248.65 767.5,-211.51 767.5,-179 767.5,-179 767.5,-179 767.5,-121 767.5,-46.09 657.86,-21.75 601.75,-14.21"/>
<polygon fill="midnightblue" stroke="midnightblue" points="777.96,-271.5 783.94,-280.25 784.72,-269.68 777.96,-271.5"/>
</g>
<!-- Node22&#45;&gt;Node11 -->
<g id="edge28" class="edge">
<title>Node22&#45;&gt;Node11</title>
<path fill="none" stroke="midnightblue" d="M753.58,-276.91C725.94,-266.75 687.16,-252.51 662.68,-243.52"/>
<polygon fill="midnightblue" stroke="midnightblue" points="752.61,-280.28 763.21,-280.44 755.03,-273.71 752.61,-280.28"/>
</g>
<!-- Node22&#45;&gt;Node23 -->
<g id="edge29" class="edge">
<title>Node22&#45;&gt;Node23</title>
<path fill="none" stroke="midnightblue" d="M805.54,-274.1C817.96,-264.38 833.74,-252.03 844.21,-243.83"/>
<polygon fill="midnightblue" stroke="midnightblue" points="803.3,-271.4 797.59,-280.32 807.62,-276.92 803.3,-271.4"/>
</g>
<!-- Node24 -->
<g id="node24" class="node">
<title>Node24</title>
<g id="a_node24"><a xlink:href="api_2packet__io_8h.html" target="_top" xlink:title="ODP Packet IO.">
<polygon fill="white" stroke="black" points="817.5,-168.5 817.5,-187.5 889.5,-187.5 889.5,-168.5 817.5,-168.5"/>
<text text-anchor="middle" x="853.5" y="-175.5" font-family="Helvetica,sans-Serif" font-size="10.00">packet_io.h</text>
</a>
</g>
</g>
<!-- Node23&#45;&gt;Node24 -->
<g id="edge30" class="edge">
<title>Node23&#45;&gt;Node24</title>
<path fill="none" stroke="midnightblue" d="M854.79,-213.8C854.46,-204.91 854.08,-194.78 853.82,-187.75"/>
<polygon fill="midnightblue" stroke="midnightblue" points="851.3,-214.22 855.17,-224.08 858.3,-213.96 851.3,-214.22"/>
</g>
<!-- Node24&#45;&gt;Node4 -->
<g id="edge31" class="edge">
<title>Node24&#45;&gt;Node4</title>
<path fill="none" stroke="midnightblue" d="M847.85,-158.59C838.58,-131.61 817.48,-81.77 781.5,-56 727.21,-17.11 646.28,-10.52 601.76,-10.13"/>
<polygon fill="midnightblue" stroke="midnightblue" points="844.59,-159.89 851.02,-168.31 851.25,-157.72 844.59,-159.89"/>
</g>
<!-- Node26 -->
<g id="node26" class="node">
<title>Node26</title>
<g id="a_node26"><a xlink:href="api_2event_8h.html" target="_top" xlink:title="ODP event.">
<polygon fill="white" stroke="black" points="967,-112.5 967,-131.5 1020,-131.5 1020,-112.5 967,-112.5"/>
<text text-anchor="middle" x="993.5" y="-119.5" font-family="Helvetica,sans-Serif" font-size="10.00">event.h</text>
</a>
</g>
</g>
<!-- Node25&#45;&gt;Node26 -->
<g id="edge37" class="edge">
<title>Node25&#45;&gt;Node26</title>
<path fill="none" stroke="midnightblue" d="M962.26,-439.75C979.53,-410.38 1011.5,-348.27 1011.5,-291 1011.5,-291 1011.5,-291 1011.5,-233 1011.5,-194.88 1000.84,-150.29 995.93,-131.76"/>
<polygon fill="midnightblue" stroke="midnightblue" points="959.21,-438.03 957.04,-448.4 965.2,-441.65 959.21,-438.03"/>
</g>
<!-- Node26&#45;&gt;Node4 -->
<g id="edge38" class="edge">
<title>Node26&#45;&gt;Node4</title>
<path fill="none" stroke="midnightblue" d="M984.61,-103.49C975.85,-88.21 960.97,-66.85 941.5,-56 883.39,-23.63 680.74,-14.26 601.55,-11.8"/>
<polygon fill="midnightblue" stroke="midnightblue" points="981.63,-105.34 989.47,-112.48 987.79,-102.01 981.63,-105.34"/>
</g>
<!-- Node28 -->
<g id="node28" class="node">
<title>Node28</title>
<g id="a_node28"><a xlink:href="api_2event__vector_8h.html" target="_top" xlink:title="ODP event vector.">
<polygon fill="white" stroke="black" points="525,-56.5 525,-75.5 614,-75.5 614,-56.5 525,-56.5"/>
<text text-anchor="middle" x="569.5" y="-63.5" font-family="Helvetica,sans-Serif" font-size="10.00">event_vector.h</text>
</a>
</g>
</g>
<!-- Node27&#45;&gt;Node28 -->
<g id="edge40" class="edge">
<title>Node27&#45;&gt;Node28</title>
<path fill="none" stroke="midnightblue" d="M556.06,-440.16C540.95,-419.49 518.5,-382.76 518.5,-347 518.5,-347 518.5,-347 518.5,-177 518.5,-135.95 548.09,-93.61 562.19,-75.77"/>
<polygon fill="midnightblue" stroke="midnightblue" points="553.36,-442.39 562.19,-448.23 558.93,-438.15 553.36,-442.39"/>
</g>
<!-- Node28&#45;&gt;Node4 -->
<g id="edge41" class="edge">
<title>Node28&#45;&gt;Node4</title>
<path fill="none" stroke="midnightblue" d="M569.5,-45.8C569.5,-36.91 569.5,-26.78 569.5,-19.75"/>
<polygon fill="midnightblue" stroke="midnightblue" points="566,-46.08 569.5,-56.08 573,-46.08 566,-46.08"/>
</g>
<!-- Node30 -->
<g id="node30" class="node">
<title>Node30</title>
<g id="a_node30"><a xlink:href="ml_8h.html" target="_top" xlink:title="ODP Machine Learning (ML) offload.">
<polygon fill="white" stroke="black" points="546.5,-336.5 546.5,-355.5 584.5,-355.5 584.5,-336.5 546.5,-336.5"/>
<text text-anchor="middle" x="565.5" y="-343.5" font-family="Helvetica,sans-Serif" font-size="10.00">ml.h</text>
</a>
</g>
</g>
<!-- Node29&#45;&gt;Node30 -->
<g id="edge43" class="edge">
<title>Node29&#45;&gt;Node30</title>
<path fill="none" stroke="midnightblue" d="M638.42,-440.27C619.83,-416.49 586.44,-373.79 572.22,-355.59"/>
<polygon fill="midnightblue" stroke="midnightblue" points="635.84,-442.65 644.75,-448.37 641.35,-438.33 635.84,-442.65"/>
</g>
<!-- Node30&#45;&gt;Node4 -->
<g id="edge44" class="edge">
<title>Node30&#45;&gt;Node4</title>
<path fill="none" stroke="midnightblue" d="M568.81,-326.4C573.09,-302.6 580.92,-260.15 588.5,-224 602.36,-157.95 614.9,-143.06 622.5,-76 623.5,-67.17 626.23,-64.07 622.5,-56 615,-39.79 598.46,-27.28 585.83,-19.61"/>
<polygon fill="midnightblue" stroke="midnightblue" points="565.32,-326.01 567.01,-336.47 572.21,-327.24 565.32,-326.01"/>
</g>
<!-- Node32 -->
<g id="node32" class="node">
<title>Node32</title>
<g id="a_node32"><a xlink:href="api_2packet_8h.html" target="_top" xlink:title="ODP packet descriptor.">
<polygon fill="white" stroke="black" points="914.5,-224.5 914.5,-243.5 972.5,-243.5 972.5,-224.5 914.5,-224.5"/>
<text text-anchor="middle" x="943.5" y="-231.5" font-family="Helvetica,sans-Serif" font-size="10.00">packet.h</text>
</a>
</g>
</g>
<!-- Node31&#45;&gt;Node32 -->
<g id="edge46" class="edge">
<title>Node31&#45;&gt;Node32</title>
<path fill="none" stroke="midnightblue" d="M952.63,-326.35C950.23,-302.25 946.13,-261.31 944.36,-243.59"/>
<polygon fill="midnightblue" stroke="midnightblue" points="949.16,-326.77 953.64,-336.37 956.12,-326.07 949.16,-326.77"/>
</g>
<!-- Node32&#45;&gt;Node4 -->
<g id="edge47" class="edge">
<title>Node32&#45;&gt;Node4</title>
<path fill="none" stroke="midnightblue" d="M935.16,-214.61C917.37,-177.7 871.9,-94.79 806.5,-56 741.3,-17.33 649.82,-10.84 601.82,-10.37"/>
<polygon fill="midnightblue" stroke="midnightblue" points="932.2,-216.54 939.61,-224.11 938.54,-213.57 932.2,-216.54"/>
</g>
<!-- Node34 -->
<g id="node34" class="node">
<title>Node34</title>
<g id="a_node34"><a xlink:href="api_2packet__io__types_8h.html" target="_top" xlink:title="ODP Packet IO.">
<polygon fill="white" stroke="black" points="750.5,-392.5 750.5,-411.5 854.5,-411.5 854.5,-392.5 750.5,-392.5"/>
<text text-anchor="middle" x="802.5" y="-399.5" font-family="Helvetica,sans-Serif" font-size="10.00">packet_io_types.h</text>
</a>
</g>
</g>
<!-- Node33&#45;&gt;Node34 -->
<g id="edge49" class="edge">
<title>Node33&#45;&gt;Node34</title>
<path fill="none" stroke="midnightblue" d="M811.68,-438.4C809.33,-429.36 806.63,-418.94 804.77,-411.75"/>
<polygon fill="midnightblue" stroke="midnightblue" points="808.29,-439.28 814.19,-448.08 815.07,-437.52 808.29,-439.28"/>
</g>
<!-- Node34&#45;&gt;Node11 -->
<g id="edge51" class="edge">
<title>Node34&#45;&gt;Node11</title>
<path fill="none" stroke="midnightblue" d="M740.52,-392.72C697.27,-385.52 644.98,-373.48 631.5,-356 605.28,-321.99 625.93,-265.35 635.4,-243.74"/>
<polygon fill="midnightblue" stroke="midnightblue" points="740.01,-396.18 750.43,-394.31 741.12,-389.27 740.01,-396.18"/>
</g>
<!-- Node34&#45;&gt;Node21 -->
<g id="edge50" class="edge">
<title>Node34&#45;&gt;Node21</title>
<path fill="none" stroke="midnightblue" d="M774.84,-388.23C752.95,-378.13 723,-364.31 703.95,-355.52"/>
<polygon fill="midnightblue" stroke="midnightblue" points="773.41,-391.43 783.96,-392.44 776.35,-385.08 773.41,-391.43"/>
</g>
<!-- Node34&#45;&gt;Node23 -->
<g id="edge53" class="edge">
<title>Node34&#45;&gt;Node23</title>
<path fill="none" stroke="midnightblue" d="M819.7,-385.3C827.36,-377.3 835.71,-366.96 840.5,-356 857.63,-316.82 857.07,-264.14 856.07,-243.65"/>
<polygon fill="midnightblue" stroke="midnightblue" points="817.11,-382.94 812.44,-392.46 822.02,-387.93 817.11,-382.94"/>
</g>
<!-- Node34&#45;&gt;Node31 -->
<g id="edge52" class="edge">
<title>Node34&#45;&gt;Node31</title>
<path fill="none" stroke="midnightblue" d="M836.17,-389.04C864.77,-378.88 905.11,-364.55 930.53,-355.52"/>
<polygon fill="midnightblue" stroke="midnightblue" points="834.84,-385.8 826.58,-392.44 837.18,-392.39 834.84,-385.8"/>
</g>
<!-- Node35 -->
<g id="node35" class="node">
<title>Node35</title>
<g id="a_node35"><a xlink:href="api_2spec_2traffic__mngr_8h.html" target="_top" xlink:title=" ">
<polygon fill="white" stroke="black" points="747.5,-336.5 747.5,-355.5 831.5,-355.5 831.5,-336.5 747.5,-336.5"/>
<text text-anchor="middle" x="789.5" y="-343.5" font-family="Helvetica,sans-Serif" font-size="10.00">traffic_mngr.h</text>
</a>
</g>
</g>
<!-- Node34&#45;&gt;Node35 -->
<g id="edge54" class="edge">
<title>Node34&#45;&gt;Node35</title>
<path fill="none" stroke="midnightblue" d="M797.95,-382.1C795.79,-373.14 793.32,-362.86 791.61,-355.75"/>
<polygon fill="midnightblue" stroke="midnightblue" points="794.61,-383.18 800.35,-392.08 801.42,-381.54 794.61,-383.18"/>
</g>
<!-- Node36 -->
<g id="node36" class="node">
<title>Node36</title>
<g id="a_node36"><a xlink:href="api_2traffic__mngr_8h.html" target="_top" xlink:title="ODP Traffic manager.">
<polygon fill="white" stroke="black" points="640.5,-280.5 640.5,-299.5 724.5,-299.5 724.5,-280.5 640.5,-280.5"/>
<text text-anchor="middle" x="682.5" y="-287.5" font-family="Helvetica,sans-Serif" font-size="10.00">traffic_mngr.h</text>
</a>
</g>
</g>
<!-- Node35&#45;&gt;Node36 -->
<g id="edge55" class="edge">
<title>Node35&#45;&gt;Node36</title>
<path fill="none" stroke="midnightblue" d="M763.2,-331.73C743.39,-321.73 716.79,-308.31 699.65,-299.65"/>
<polygon fill="midnightblue" stroke="midnightblue" points="761.8,-334.94 772.31,-336.32 764.96,-328.69 761.8,-334.94"/>
</g>
<!-- Node36&#45;&gt;Node4 -->
<g id="edge57" class="edge">
<title>Node36&#45;&gt;Node4</title>
<path fill="none" stroke="midnightblue" d="M689.8,-270.86C697.8,-249.32 709.5,-212.14 709.5,-179 709.5,-179 709.5,-179 709.5,-121 709.5,-65.21 639.9,-33.41 598.85,-19.5"/>
<polygon fill="midnightblue" stroke="midnightblue" points="686.48,-269.75 686.14,-280.34 693.01,-272.27 686.48,-269.75"/>
</g>
<!-- Node36&#45;&gt;Node11 -->
<g id="edge56" class="edge">
<title>Node36&#45;&gt;Node11</title>
<path fill="none" stroke="midnightblue" d="M669.08,-272.14C661.59,-262.74 652.56,-251.4 646.47,-243.75"/>
<polygon fill="midnightblue" stroke="midnightblue" points="666.43,-274.44 675.4,-280.08 671.91,-270.08 666.43,-274.44"/>
</g>
<!-- Node38 -->
<g id="node38" class="node">
<title>Node38</title>
<g id="a_node38"><a xlink:href="api_2pool_8h.html" target="_top" xlink:title="ODP pool.">
<polygon fill="white" stroke="black" points="307,-392.5 307,-411.5 354,-411.5 354,-392.5 307,-392.5"/>
<text text-anchor="middle" x="330.5" y="-399.5" font-family="Helvetica,sans-Serif" font-size="10.00">pool.h</text>
</a>
</g>
</g>
<!-- Node37&#45;&gt;Node38 -->
<g id="edge59" class="edge">
<title>Node37&#45;&gt;Node38</title>
<path fill="none" stroke="midnightblue" d="M338.95,-438.1C336.79,-429.14 334.32,-418.86 332.61,-411.75"/>
<polygon fill="midnightblue" stroke="midnightblue" points="335.61,-439.18 341.35,-448.08 342.42,-437.54 335.61,-439.18"/>
</g>
<!-- Node38&#45;&gt;Node4 -->
<g id="edge60" class="edge">
<title>Node38&#45;&gt;Node4</title>
<path fill="none" stroke="midnightblue" d="M324.84,-382.46C313.46,-341.84 291.38,-242.62 321.5,-168 347.38,-103.88 370.81,-92.57 429.5,-56 463.19,-35 507.61,-22.91 537.29,-16.65"/>
<polygon fill="midnightblue" stroke="midnightblue" points="321.49,-383.48 327.65,-392.1 328.21,-381.52 321.49,-383.48"/>
</g>
<!-- Node40 -->
<g id="node40" class="node">
<title>Node40</title>
<g id="a_node40"><a xlink:href="api_2timer_8h.html" target="_top" xlink:title="ODP timer service.">
<polygon fill="white" stroke="black" points="393,-392.5 393,-411.5 444,-411.5 444,-392.5 393,-392.5"/>
<text text-anchor="middle" x="418.5" y="-399.5" font-family="Helvetica,sans-Serif" font-size="10.00">timer.h</text>
</a>
</g>
</g>
<!-- Node39&#45;&gt;Node40 -->
<g id="edge62" class="edge">
<title>Node39&#45;&gt;Node40</title>
<path fill="none" stroke="midnightblue" d="M413.3,-438.1C414.63,-429.14 416.15,-418.86 417.2,-411.75"/>
<polygon fill="midnightblue" stroke="midnightblue" points="409.82,-437.68 411.82,-448.08 416.75,-438.7 409.82,-437.68"/>
</g>
<!-- Node40&#45;&gt;Node4 -->
<g id="edge63" class="edge">
<title>Node40&#45;&gt;Node4</title>
<path fill="none" stroke="midnightblue" d="M424.99,-382.79C432.1,-361.18 442.5,-323.94 442.5,-291 442.5,-291 442.5,-291 442.5,-233 442.5,-154.33 398.9,-120.11 444.5,-56 465.49,-26.49 507.75,-16.25 537.29,-12.75"/>
<polygon fill="midnightblue" stroke="midnightblue" points="421.66,-381.71 421.74,-392.3 428.28,-383.97 421.66,-381.71"/>
</g>
<!-- Node42 -->
<g id="node42" class="node">
<title>Node42</title>
<g id="a_node42"><a xlink:href="api_2packet__flags_8h.html" target="_top" xlink:title="ODP packet flags.">
<polygon fill="white" stroke="black" points="1038.5,-504.5 1038.5,-523.5 1124.5,-523.5 1124.5,-504.5 1038.5,-504.5"/>
<text text-anchor="middle" x="1081.5" y="-511.5" font-family="Helvetica,sans-Serif" font-size="10.00">packet_flags.h</text>
</a>
</g>
</g>
<!-- Node41&#45;&gt;Node42 -->
<g id="edge68" class="edge">
<title>Node41&#45;&gt;Node42</title>
<path fill="none" stroke="midnightblue" d="M1081.5,-661.93C1081.5,-625.92 1081.5,-549.23 1081.5,-523.57"/>
<polygon fill="midnightblue" stroke="midnightblue" points="1078,-662.08 1081.5,-672.08 1085,-662.08 1078,-662.08"/>
</g>
<!-- Node42&#45;&gt;Node4 -->
<g id="edge69" class="edge">
<title>Node42&#45;&gt;Node4</title>
<path fill="none" stroke="midnightblue" d="M1077.11,-494.34C1072.37,-472.56 1065.5,-435.37 1065.5,-403 1065.5,-403 1065.5,-403 1065.5,-121 1065.5,-25.63 711.57,-12.89 601.66,-11.23"/>
<polygon fill="midnightblue" stroke="midnightblue" points="1073.72,-495.24 1079.34,-504.22 1080.55,-493.7 1073.72,-495.24"/>
</g>
</g>
</svg>
