<?xml version="1.0" encoding="UTF-8" standalone="no"?>
<!DOCTYPE svg PUBLIC "-//W3C//DTD SVG 1.1//EN"
 "http://www.w3.org/Graphics/SVG/1.1/DTD/svg11.dtd">
<!-- Generated by graphviz version 2.40.1 (20161225.0304)
 -->
<!-- Title: spinlock.h Pages: 1 -->
<svg width="947pt" height="420pt"
 viewBox="0.00 0.00 946.58 420.00" xmlns="http://www.w3.org/2000/svg" xmlns:xlink="http://www.w3.org/1999/xlink">
<g id="graph0" class="graph" transform="scale(1 1) rotate(0) translate(4 416)">
<title>spinlock.h</title>
<polygon fill="#ffffff" stroke="transparent" points="-4,4 -4,-416 942.5825,-416 942.5825,4 -4,4"/>
<!-- Node1 -->
<g id="node1" class="node">
<title>Node1</title>
<polygon fill="#bfbfbf" stroke="#000000" points="486,-392.5 486,-411.5 552,-411.5 552,-392.5 486,-392.5"/>
<text text-anchor="middle" x="519" y="-399.5" font-family="Helvetica,sans-Serif" font-size="10.00" fill="#000000">spinlock.h</text>
</g>
<!-- Node2 -->
<g id="node2" class="node">
<title>Node2</title>
<g id="a_node2"><a xlink:href="arch_2arm32-linux_2odp_2api_2abi_2spinlock_8h_source.html" target="_top" xlink:title="spinlock.h">
<polygon fill="#ffffff" stroke="#000000" points="234,-336.5 234,-355.5 300,-355.5 300,-336.5 234,-336.5"/>
<text text-anchor="middle" x="267" y="-343.5" font-family="Helvetica,sans-Serif" font-size="10.00" fill="#000000">spinlock.h</text>
</a>
</g>
</g>
<!-- Node1&#45;&gt;Node2 -->
<g id="edge1" class="edge">
<title>Node1&#45;&gt;Node2</title>
<path fill="none" stroke="#191970" d="M475.8635,-392.7898C433.3749,-383.6616 366.6464,-369.1752 309,-356 306.0772,-355.332 303.0423,-354.6286 300.0018,-353.9172"/>
<polygon fill="#191970" stroke="#191970" points="475.3486,-396.2589 485.8604,-394.9347 476.8171,-389.4147 475.3486,-396.2589"/>
</g>
<!-- Node3 -->
<g id="node3" class="node">
<title>Node3</title>
<g id="a_node3"><a xlink:href="arch_2arm64-linux_2odp_2api_2abi_2spinlock_8h_source.html" target="_top" xlink:title="spinlock.h">
<polygon fill="#ffffff" stroke="#000000" points="318,-336.5 318,-355.5 384,-355.5 384,-336.5 318,-336.5"/>
<text text-anchor="middle" x="351" y="-343.5" font-family="Helvetica,sans-Serif" font-size="10.00" fill="#000000">spinlock.h</text>
</a>
</g>
</g>
<!-- Node1&#45;&gt;Node3 -->
<g id="edge2" class="edge">
<title>Node1&#45;&gt;Node3</title>
<path fill="none" stroke="#191970" d="M480.5714,-389.1905C449.7927,-378.9309 407.3074,-364.7691 379.5034,-355.5011"/>
<polygon fill="#191970" stroke="#191970" points="479.5261,-392.5313 490.1198,-392.3733 481.7398,-385.8905 479.5261,-392.5313"/>
</g>
<!-- Node4 -->
<g id="node4" class="node">
<title>Node4</title>
<g id="a_node4"><a xlink:href="arch_2default-linux_2odp_2api_2abi_2spinlock_8h_source.html" target="_top" xlink:title="spinlock.h">
<polygon fill="#ffffff" stroke="#000000" points="402,-336.5 402,-355.5 468,-355.5 468,-336.5 402,-336.5"/>
<text text-anchor="middle" x="435" y="-343.5" font-family="Helvetica,sans-Serif" font-size="10.00" fill="#000000">spinlock.h</text>
</a>
</g>
</g>
<!-- Node1&#45;&gt;Node4 -->
<g id="edge3" class="edge">
<title>Node1&#45;&gt;Node4</title>
<path fill="none" stroke="#191970" d="M495.7351,-386.49C480.9144,-376.6096 462.1791,-364.1194 449.464,-355.6427"/>
<polygon fill="#191970" stroke="#191970" points="494.1063,-389.6107 504.3683,-392.2455 497.9893,-383.7863 494.1063,-389.6107"/>
</g>
<!-- Node5 -->
<g id="node5" class="node">
<title>Node5</title>
<g id="a_node5"><a xlink:href="arch_2mips64-linux_2odp_2api_2abi_2spinlock_8h_source.html" target="_top" xlink:title="spinlock.h">
<polygon fill="#ffffff" stroke="#000000" points="486,-336.5 486,-355.5 552,-355.5 552,-336.5 486,-336.5"/>
<text text-anchor="middle" x="519" y="-343.5" font-family="Helvetica,sans-Serif" font-size="10.00" fill="#000000">spinlock.h</text>
</a>
</g>
</g>
<!-- Node1&#45;&gt;Node5 -->
<g id="edge4" class="edge">
<title>Node1&#45;&gt;Node5</title>
<path fill="none" stroke="#191970" d="M519,-382.1575C519,-373.155 519,-362.9199 519,-355.6427"/>
<polygon fill="#191970" stroke="#191970" points="515.5001,-382.2455 519,-392.2455 522.5001,-382.2456 515.5001,-382.2455"/>
</g>
<!-- Node6 -->
<g id="node6" class="node">
<title>Node6</title>
<g id="a_node6"><a xlink:href="arch_2power64-linux_2odp_2api_2abi_2spinlock_8h_source.html" target="_top" xlink:title="spinlock.h">
<polygon fill="#ffffff" stroke="#000000" points="570,-336.5 570,-355.5 636,-355.5 636,-336.5 570,-336.5"/>
<text text-anchor="middle" x="603" y="-343.5" font-family="Helvetica,sans-Serif" font-size="10.00" fill="#000000">spinlock.h</text>
</a>
</g>
</g>
<!-- Node1&#45;&gt;Node6 -->
<g id="edge5" class="edge">
<title>Node1&#45;&gt;Node6</title>
<path fill="none" stroke="#191970" d="M542.2649,-386.49C557.0856,-376.6096 575.8209,-364.1194 588.536,-355.6427"/>
<polygon fill="#191970" stroke="#191970" points="540.0107,-383.7863 533.6317,-392.2455 543.8937,-389.6107 540.0107,-383.7863"/>
</g>
<!-- Node7 -->
<g id="node7" class="node">
<title>Node7</title>
<g id="a_node7"><a xlink:href="arch_2x86__32-linux_2odp_2api_2abi_2spinlock_8h_source.html" target="_top" xlink:title="spinlock.h">
<polygon fill="#ffffff" stroke="#000000" points="654,-336.5 654,-355.5 720,-355.5 720,-336.5 654,-336.5"/>
<text text-anchor="middle" x="687" y="-343.5" font-family="Helvetica,sans-Serif" font-size="10.00" fill="#000000">spinlock.h</text>
</a>
</g>
</g>
<!-- Node1&#45;&gt;Node7 -->
<g id="edge6" class="edge">
<title>Node1&#45;&gt;Node7</title>
<path fill="none" stroke="#191970" d="M557.4286,-389.1905C588.2073,-378.9309 630.6926,-364.7691 658.4966,-355.5011"/>
<polygon fill="#191970" stroke="#191970" points="556.2602,-385.8905 547.8802,-392.3733 558.4739,-392.5313 556.2602,-385.8905"/>
</g>
<!-- Node8 -->
<g id="node8" class="node">
<title>Node8</title>
<g id="a_node8"><a xlink:href="arch_2x86__64-linux_2odp_2api_2abi_2spinlock_8h_source.html" target="_top" xlink:title="spinlock.h">
<polygon fill="#ffffff" stroke="#000000" points="738,-336.5 738,-355.5 804,-355.5 804,-336.5 738,-336.5"/>
<text text-anchor="middle" x="771" y="-343.5" font-family="Helvetica,sans-Serif" font-size="10.00" fill="#000000">spinlock.h</text>
</a>
</g>
</g>
<!-- Node1&#45;&gt;Node8 -->
<g id="edge7" class="edge">
<title>Node1&#45;&gt;Node8</title>
<path fill="none" stroke="#191970" d="M562.1365,-392.7898C604.6251,-383.6616 671.3536,-369.1752 729,-356 731.9228,-355.332 734.9577,-354.6286 737.9982,-353.9172"/>
<polygon fill="#191970" stroke="#191970" points="561.1829,-389.4147 552.1396,-394.9347 562.6514,-396.2589 561.1829,-389.4147"/>
</g>
<!-- Node9 -->
<g id="node9" class="node">
<title>Node9</title>
<g id="a_node9"><a xlink:href="api_2spinlock_8h.html" target="_top" xlink:title="ODP spinlock. ">
<polygon fill="#ffffff" stroke="#000000" points="738,-280.5 738,-299.5 804,-299.5 804,-280.5 738,-280.5"/>
<text text-anchor="middle" x="771" y="-287.5" font-family="Helvetica,sans-Serif" font-size="10.00" fill="#000000">spinlock.h</text>
</a>
</g>
</g>
<!-- Node8&#45;&gt;Node9 -->
<g id="edge8" class="edge">
<title>Node8&#45;&gt;Node9</title>
<path fill="none" stroke="#191970" d="M771,-326.1575C771,-317.155 771,-306.9199 771,-299.6427"/>
<polygon fill="#191970" stroke="#191970" points="767.5001,-326.2455 771,-336.2455 774.5001,-326.2456 767.5001,-326.2455"/>
</g>
<!-- Node10 -->
<g id="node10" class="node">
<title>Node10</title>
<g id="a_node10"><a xlink:href="api_2abi-default_2spinlock__recursive_8h.html" target="_top" xlink:title="ODP recursive spinlock. ">
<polygon fill="#ffffff" stroke="#000000" points="469,-224.5 469,-243.5 585,-243.5 585,-224.5 469,-224.5"/>
<text text-anchor="middle" x="527" y="-231.5" font-family="Helvetica,sans-Serif" font-size="10.00" fill="#000000">spinlock_recursive.h</text>
</a>
</g>
</g>
<!-- Node9&#45;&gt;Node10 -->
<g id="edge9" class="edge">
<title>Node9&#45;&gt;Node10</title>
<path fill="none" stroke="#191970" d="M727.8177,-280.0893C682.8888,-269.7777 613.0242,-253.7433 568.6662,-243.5627"/>
<polygon fill="#191970" stroke="#191970" points="727.3096,-283.5636 737.8391,-282.3893 728.8755,-276.741 727.3096,-283.5636"/>
</g>
<!-- Node19 -->
<g id="node19" class="node">
<title>Node19</title>
<g id="a_node19"><a xlink:href="odp__api_8h.html" target="_top" xlink:title="The OpenDataPlane API. ">
<polygon fill="#ffffff" stroke="#000000" points="873,-56.5 873,-75.5 937,-75.5 937,-56.5 873,-56.5"/>
<text text-anchor="middle" x="905" y="-63.5" font-family="Helvetica,sans-Serif" font-size="10.00" fill="#000000">odp_api.h</text>
</a>
</g>
</g>
<!-- Node9&#45;&gt;Node19 -->
<g id="edge20" class="edge">
<title>Node9&#45;&gt;Node19</title>
<path fill="none" stroke="#191970" d="M811.3038,-276.7468C849.3641,-261.8269 904.1973,-233.534 929,-188 945.1575,-158.3373 937.0436,-144.8061 929,-112 925.6966,-98.5272 917.6826,-84.6175 911.8208,-75.672"/>
<polygon fill="#191970" stroke="#191970" points="809.6583,-273.6266 801.5356,-280.429 812.1274,-280.1767 809.6583,-273.6266"/>
</g>
<!-- Node11 -->
<g id="node11" class="node">
<title>Node11</title>
<g id="a_node11"><a xlink:href="arch_2arm32-linux_2odp_2api_2abi_2spinlock__recursive_8h_source.html" target="_top" xlink:title="spinlock_recursive.h">
<polygon fill="#ffffff" stroke="#000000" points="0,-168.5 0,-187.5 116,-187.5 116,-168.5 0,-168.5"/>
<text text-anchor="middle" x="58" y="-175.5" font-family="Helvetica,sans-Serif" font-size="10.00" fill="#000000">spinlock_recursive.h</text>
</a>
</g>
</g>
<!-- Node10&#45;&gt;Node11 -->
<g id="edge10" class="edge">
<title>Node10&#45;&gt;Node11</title>
<path fill="none" stroke="#191970" d="M458.7171,-226.9064C378.6675,-218.4237 242.0464,-203.4269 125,-188 122.085,-187.6158 119.1004,-187.2113 116.0876,-186.794"/>
<polygon fill="#191970" stroke="#191970" points="458.3593,-230.388 468.6718,-227.9586 459.0951,-223.4268 458.3593,-230.388"/>
</g>
<!-- Node12 -->
<g id="node12" class="node">
<title>Node12</title>
<g id="a_node12"><a xlink:href="arch_2arm64-linux_2odp_2api_2abi_2spinlock__recursive_8h_source.html" target="_top" xlink:title="spinlock_recursive.h">
<polygon fill="#ffffff" stroke="#000000" points="134,-168.5 134,-187.5 250,-187.5 250,-168.5 134,-168.5"/>
<text text-anchor="middle" x="192" y="-175.5" font-family="Helvetica,sans-Serif" font-size="10.00" fill="#000000">spinlock_recursive.h</text>
</a>
</g>
</g>
<!-- Node10&#45;&gt;Node12 -->
<g id="edge11" class="edge">
<title>Node10&#45;&gt;Node12</title>
<path fill="none" stroke="#191970" d="M459.7469,-222.7577C397.9324,-212.4245 307.3017,-197.2743 248.972,-187.5237"/>
<polygon fill="#191970" stroke="#191970" points="459.3518,-226.2401 469.7921,-224.4369 460.506,-219.3359 459.3518,-226.2401"/>
</g>
<!-- Node13 -->
<g id="node13" class="node">
<title>Node13</title>
<g id="a_node13"><a xlink:href="arch_2default-linux_2odp_2api_2abi_2spinlock__recursive_8h_source.html" target="_top" xlink:title="spinlock_recursive.h">
<polygon fill="#ffffff" stroke="#000000" points="268,-168.5 268,-187.5 384,-187.5 384,-168.5 268,-168.5"/>
<text text-anchor="middle" x="326" y="-175.5" font-family="Helvetica,sans-Serif" font-size="10.00" fill="#000000">spinlock_recursive.h</text>
</a>
</g>
</g>
<!-- Node10&#45;&gt;Node13 -->
<g id="edge12" class="edge">
<title>Node10&#45;&gt;Node13</title>
<path fill="none" stroke="#191970" d="M482.4506,-221.5882C445.5216,-211.2996 393.7998,-196.8895 360.1022,-187.5011"/>
<polygon fill="#191970" stroke="#191970" points="481.8744,-225.0609 492.4469,-224.3733 483.7531,-218.3177 481.8744,-225.0609"/>
</g>
<!-- Node14 -->
<g id="node14" class="node">
<title>Node14</title>
<g id="a_node14"><a xlink:href="arch_2mips64-linux_2odp_2api_2abi_2spinlock__recursive_8h_source.html" target="_top" xlink:title="spinlock_recursive.h">
<polygon fill="#ffffff" stroke="#000000" points="402,-168.5 402,-187.5 518,-187.5 518,-168.5 402,-168.5"/>
<text text-anchor="middle" x="460" y="-175.5" font-family="Helvetica,sans-Serif" font-size="10.00" fill="#000000">spinlock_recursive.h</text>
</a>
</g>
</g>
<!-- Node10&#45;&gt;Node14 -->
<g id="edge13" class="edge">
<title>Node10&#45;&gt;Node14</title>
<path fill="none" stroke="#191970" d="M507.4324,-217.645C495.7802,-207.9058 481.3916,-195.8795 471.5368,-187.6427"/>
<polygon fill="#191970" stroke="#191970" points="505.4121,-220.5179 515.3295,-224.2455 509.9012,-215.1469 505.4121,-220.5179"/>
</g>
<!-- Node15 -->
<g id="node15" class="node">
<title>Node15</title>
<g id="a_node15"><a xlink:href="arch_2power64-linux_2odp_2api_2abi_2spinlock__recursive_8h_source.html" target="_top" xlink:title="spinlock_recursive.h">
<polygon fill="#ffffff" stroke="#000000" points="536,-168.5 536,-187.5 652,-187.5 652,-168.5 536,-168.5"/>
<text text-anchor="middle" x="594" y="-175.5" font-family="Helvetica,sans-Serif" font-size="10.00" fill="#000000">spinlock_recursive.h</text>
</a>
</g>
</g>
<!-- Node10&#45;&gt;Node15 -->
<g id="edge14" class="edge">
<title>Node10&#45;&gt;Node15</title>
<path fill="none" stroke="#191970" d="M546.5676,-217.645C558.2198,-207.9058 572.6084,-195.8795 582.4632,-187.6427"/>
<polygon fill="#191970" stroke="#191970" points="544.0988,-215.1469 538.6705,-224.2455 548.5879,-220.5179 544.0988,-215.1469"/>
</g>
<!-- Node16 -->
<g id="node16" class="node">
<title>Node16</title>
<g id="a_node16"><a xlink:href="arch_2x86__32-linux_2odp_2api_2abi_2spinlock__recursive_8h_source.html" target="_top" xlink:title="spinlock_recursive.h">
<polygon fill="#ffffff" stroke="#000000" points="670,-168.5 670,-187.5 786,-187.5 786,-168.5 670,-168.5"/>
<text text-anchor="middle" x="728" y="-175.5" font-family="Helvetica,sans-Serif" font-size="10.00" fill="#000000">spinlock_recursive.h</text>
</a>
</g>
</g>
<!-- Node10&#45;&gt;Node16 -->
<g id="edge15" class="edge">
<title>Node10&#45;&gt;Node16</title>
<path fill="none" stroke="#191970" d="M571.5494,-221.5882C608.4784,-211.2996 660.2002,-196.8895 693.8978,-187.5011"/>
<polygon fill="#191970" stroke="#191970" points="570.2469,-218.3177 561.5531,-224.3733 572.1256,-225.0609 570.2469,-218.3177"/>
</g>
<!-- Node17 -->
<g id="node17" class="node">
<title>Node17</title>
<g id="a_node17"><a xlink:href="arch_2x86__64-linux_2odp_2api_2abi_2spinlock__recursive_8h_source.html" target="_top" xlink:title="spinlock_recursive.h">
<polygon fill="#ffffff" stroke="#000000" points="804,-168.5 804,-187.5 920,-187.5 920,-168.5 804,-168.5"/>
<text text-anchor="middle" x="862" y="-175.5" font-family="Helvetica,sans-Serif" font-size="10.00" fill="#000000">spinlock_recursive.h</text>
</a>
</g>
</g>
<!-- Node10&#45;&gt;Node17 -->
<g id="edge16" class="edge">
<title>Node10&#45;&gt;Node17</title>
<path fill="none" stroke="#191970" d="M594.2531,-222.7577C656.0676,-212.4245 746.6983,-197.2743 805.028,-187.5237"/>
<polygon fill="#191970" stroke="#191970" points="593.494,-219.3359 584.2079,-224.4369 594.6482,-226.2401 593.494,-219.3359"/>
</g>
<!-- Node18 -->
<g id="node18" class="node">
<title>Node18</title>
<g id="a_node18"><a xlink:href="api_2spinlock__recursive_8h.html" target="_top" xlink:title="ODP resursive spinlock. ">
<polygon fill="#ffffff" stroke="#000000" points="804,-112.5 804,-131.5 920,-131.5 920,-112.5 804,-112.5"/>
<text text-anchor="middle" x="862" y="-119.5" font-family="Helvetica,sans-Serif" font-size="10.00" fill="#000000">spinlock_recursive.h</text>
</a>
</g>
</g>
<!-- Node17&#45;&gt;Node18 -->
<g id="edge17" class="edge">
<title>Node17&#45;&gt;Node18</title>
<path fill="none" stroke="#191970" d="M862,-158.1575C862,-149.155 862,-138.9199 862,-131.6427"/>
<polygon fill="#191970" stroke="#191970" points="858.5001,-158.2455 862,-168.2455 865.5001,-158.2456 858.5001,-158.2455"/>
</g>
<!-- Node18&#45;&gt;Node19 -->
<g id="edge18" class="edge">
<title>Node18&#45;&gt;Node19</title>
<path fill="none" stroke="#191970" d="M875.6592,-104.2112C882.9263,-94.7472 891.5781,-83.4797 897.5958,-75.6427"/>
<polygon fill="#191970" stroke="#191970" points="872.8043,-102.1824 869.49,-112.2455 878.3564,-106.4456 872.8043,-102.1824"/>
</g>
<!-- Node20 -->
<g id="node20" class="node">
<title>Node20</title>
<g id="a_node20"><a xlink:href="odp_8h.html" target="_top" xlink:title="WARNING: THIS FILE IS DEPRECATED AND WILL BE REMOVED!!! ODP APPLICATIONS SHOULD NOW INCLUDE odp_api...">
<polygon fill="#ffffff" stroke="#000000" points="883,-.5 883,-19.5 927,-19.5 927,-.5 883,-.5"/>
<text text-anchor="middle" x="905" y="-7.5" font-family="Helvetica,sans-Serif" font-size="10.00" fill="#000000">odp.h</text>
</a>
</g>
</g>
<!-- Node19&#45;&gt;Node20 -->
<g id="edge19" class="edge">
<title>Node19&#45;&gt;Node20</title>
<path fill="none" stroke="#191970" d="M905,-46.1575C905,-37.155 905,-26.9199 905,-19.6427"/>
<polygon fill="#191970" stroke="#191970" points="901.5001,-46.2455 905,-56.2455 908.5001,-46.2456 901.5001,-46.2455"/>
</g>
</g>
</svg>
