<?xml version="1.0" encoding="UTF-8" standalone="no"?>
<!DOCTYPE svg PUBLIC "-//W3C//DTD SVG 1.1//EN"
 "http://www.w3.org/Graphics/SVG/1.1/DTD/svg11.dtd">
<!-- Generated by graphviz version 2.43.0 (0)
 -->
<!-- Title: pool_types.h Pages: 1 -->
<svg width="974pt" height="522pt"
 viewBox="0.00 0.00 974.00 522.00" xmlns="http://www.w3.org/2000/svg" xmlns:xlink="http://www.w3.org/1999/xlink">
<g id="graph0" class="graph" transform="scale(1 1) rotate(0) translate(4 518)">
<title>pool_types.h</title>
<!-- Node1 -->
<g id="Node000001" class="node">
<title>Node1</title>
<g id="a_Node000001"><a xlink:title="ODP pool.">
<polygon fill="#999999" stroke="#666666" points="561,-514 482,-514 482,-495 561,-495 561,-514"/>
<text text-anchor="middle" x="521.5" y="-502" font-family="Helvetica,sans-Serif" font-size="10.00">pool_types.h</text>
</a>
</g>
</g>
<!-- Node2 -->
<g id="Node000002" class="node">
<title>Node2</title>
<g id="a_Node000002"><a xlink:href="api_2spec_2buffer_8h.html" target="_top" xlink:title="ODP buffer.">
<polygon fill="white" stroke="#666666" points="96,-459 43,-459 43,-440 96,-440 96,-459"/>
<text text-anchor="middle" x="69.5" y="-447" font-family="Helvetica,sans-Serif" font-size="10.00">buffer.h</text>
</a>
</g>
</g>
<!-- Node1&#45;&gt;Node2 -->
<g id="edge1_Node000001_Node000002" class="edge">
<title>Node1&#45;&gt;Node2</title>
<g id="a_edge1_Node000001_Node000002"><a xlink:title=" ">
<path fill="none" stroke="#63b8ff" d="M471.79,-497.67C376.19,-486.46 169.68,-462.25 96.16,-453.63"/>
<polygon fill="#63b8ff" stroke="#63b8ff" points="471.44,-501.15 481.78,-498.84 472.26,-494.2 471.44,-501.15"/>
</a>
</g>
</g>
<!-- Node5 -->
<g id="Node000005" class="node">
<title>Node5</title>
<g id="a_Node000005"><a xlink:href="api_2spec_2classification_8h.html" target="_top" xlink:title="ODP classification descriptor.">
<polygon fill="white" stroke="#666666" points="418,-349 329,-349 329,-330 418,-330 418,-349"/>
<text text-anchor="middle" x="373.5" y="-337" font-family="Helvetica,sans-Serif" font-size="10.00">classification.h</text>
</a>
</g>
</g>
<!-- Node1&#45;&gt;Node5 -->
<g id="edge4_Node000001_Node000005" class="edge">
<title>Node1&#45;&gt;Node5</title>
<g id="a_edge4_Node000001_Node000005"><a xlink:title=" ">
<path fill="none" stroke="#63b8ff" d="M475.75,-491.78C456.61,-484.92 435.4,-474.47 420.5,-459 389.18,-426.48 377.93,-370.54 374.65,-349.16"/>
<polygon fill="#63b8ff" stroke="#63b8ff" points="474.64,-495.1 485.23,-494.96 476.86,-488.47 474.64,-495.1"/>
</a>
</g>
</g>
<!-- Node13 -->
<g id="Node000013" class="node">
<title>Node13</title>
<g id="a_Node000013"><a xlink:href="api_2spec_2crypto__types_8h.html" target="_top" xlink:title="ODP crypto types.">
<polygon fill="white" stroke="#666666" points="178,-404 89,-404 89,-385 178,-385 178,-404"/>
<text text-anchor="middle" x="133.5" y="-392" font-family="Helvetica,sans-Serif" font-size="10.00">crypto_types.h</text>
</a>
</g>
</g>
<!-- Node1&#45;&gt;Node13 -->
<g id="edge15_Node000001_Node000013" class="edge">
<title>Node1&#45;&gt;Node13</title>
<g id="a_edge15_Node000001_Node000013"><a xlink:title=" ">
<path fill="none" stroke="#63b8ff" d="M471.71,-502.08C412.83,-499 312.68,-489.32 232.5,-459 196.98,-445.57 160.81,-418.13 143.69,-404.13"/>
<polygon fill="#63b8ff" stroke="#63b8ff" points="471.7,-505.59 481.86,-502.57 472.04,-498.59 471.7,-505.59"/>
</a>
</g>
</g>
<!-- Node17 -->
<g id="Node000017" class="node">
<title>Node17</title>
<g id="a_Node000017"><a xlink:href="api_2spec_2dma_8h.html" target="_top" xlink:title="ODP DMA.">
<polygon fill="white" stroke="#666666" points="597,-349 550,-349 550,-330 597,-330 597,-349"/>
<text text-anchor="middle" x="573.5" y="-337" font-family="Helvetica,sans-Serif" font-size="10.00">dma.h</text>
</a>
</g>
</g>
<!-- Node1&#45;&gt;Node17 -->
<g id="edge22_Node000001_Node000017" class="edge">
<title>Node1&#45;&gt;Node17</title>
<g id="a_edge22_Node000001_Node000017"><a xlink:title=" ">
<path fill="none" stroke="#63b8ff" d="M521.79,-484.57C522.76,-460.53 526.53,-418.17 540.5,-385 546.32,-371.17 557.3,-357.67 564.99,-349.24"/>
<polygon fill="#63b8ff" stroke="#63b8ff" points="518.29,-484.69 521.5,-494.79 525.28,-484.89 518.29,-484.69"/>
</a>
</g>
</g>
<!-- Node19 -->
<g id="Node000019" class="node">
<title>Node19</title>
<g id="a_Node000019"><a xlink:href="api_2spec_2dma__types_8h.html" target="_top" xlink:title="ODP DMA.">
<polygon fill="white" stroke="#666666" points="629.5,-459 549.5,-459 549.5,-440 629.5,-440 629.5,-459"/>
<text text-anchor="middle" x="589.5" y="-447" font-family="Helvetica,sans-Serif" font-size="10.00">dma_types.h</text>
</a>
</g>
</g>
<!-- Node1&#45;&gt;Node19 -->
<g id="edge25_Node000001_Node000019" class="edge">
<title>Node1&#45;&gt;Node19</title>
<g id="a_edge25_Node000001_Node000019"><a xlink:title=" ">
<path fill="none" stroke="#63b8ff" d="M540.62,-488.6C552.8,-479.11 568.16,-467.13 578.38,-459.17"/>
<polygon fill="#63b8ff" stroke="#63b8ff" points="538.16,-486.08 532.43,-494.98 542.46,-491.6 538.16,-486.08"/>
</a>
</g>
</g>
<!-- Node22 -->
<g id="Node000022" class="node">
<title>Node22</title>
<g id="a_Node000022"><a xlink:href="api_2spec_2event_8h.html" target="_top" xlink:title="ODP event.">
<polygon fill="white" stroke="#666666" points="493,-459 440,-459 440,-440 493,-440 493,-459"/>
<text text-anchor="middle" x="466.5" y="-447" font-family="Helvetica,sans-Serif" font-size="10.00">event.h</text>
</a>
</g>
</g>
<!-- Node1&#45;&gt;Node22 -->
<g id="edge30_Node000001_Node000022" class="edge">
<title>Node1&#45;&gt;Node22</title>
<g id="a_edge30_Node000001_Node000022"><a xlink:title=" ">
<path fill="none" stroke="#63b8ff" d="M505.21,-487.8C495.46,-478.41 483.45,-466.83 475.41,-459.09"/>
<polygon fill="#63b8ff" stroke="#63b8ff" points="502.79,-490.33 512.42,-494.75 507.65,-485.29 502.79,-490.33"/>
</a>
</g>
</g>
<!-- Node24 -->
<g id="Node000024" class="node">
<title>Node24</title>
<g id="a_Node000024"><a xlink:href="api_2spec_2event__vector_8h.html" target="_top" xlink:title="ODP event vector.">
<polygon fill="white" stroke="#666666" points="775,-459 686,-459 686,-440 775,-440 775,-459"/>
<text text-anchor="middle" x="730.5" y="-447" font-family="Helvetica,sans-Serif" font-size="10.00">event_vector.h</text>
</a>
</g>
</g>
<!-- Node1&#45;&gt;Node24 -->
<g id="edge33_Node000001_Node000024" class="edge">
<title>Node1&#45;&gt;Node24</title>
<g id="a_edge33_Node000001_Node000024"><a xlink:title=" ">
<path fill="none" stroke="#63b8ff" d="M564.87,-492.5C604.01,-482.58 660.78,-468.18 696.66,-459.08"/>
<polygon fill="#63b8ff" stroke="#63b8ff" points="563.91,-489.13 555.08,-494.98 565.63,-495.92 563.91,-489.13"/>
</a>
</g>
</g>
<!-- Node26 -->
<g id="Node000026" class="node">
<title>Node26</title>
<g id="a_Node000026"><a xlink:href="spec_2ml_8h.html" target="_top" xlink:title="ODP Machine Learning (ML) offload.">
<polygon fill="white" stroke="#666666" points="831.5,-459 793.5,-459 793.5,-440 831.5,-440 831.5,-459"/>
<text text-anchor="middle" x="812.5" y="-447" font-family="Helvetica,sans-Serif" font-size="10.00">ml.h</text>
</a>
</g>
</g>
<!-- Node1&#45;&gt;Node26 -->
<g id="edge36_Node000001_Node000026" class="edge">
<title>Node1&#45;&gt;Node26</title>
<g id="a_edge36_Node000001_Node000026"><a xlink:title=" ">
<path fill="none" stroke="#63b8ff" d="M571.43,-496.79C624.4,-489.26 710.37,-475.87 783.5,-459 786.67,-458.27 790,-457.39 793.24,-456.49"/>
<polygon fill="#63b8ff" stroke="#63b8ff" points="570.7,-493.36 561.29,-498.22 571.68,-500.29 570.7,-493.36"/>
</a>
</g>
</g>
<!-- Node28 -->
<g id="Node000028" class="node">
<title>Node28</title>
<g id="a_Node000028"><a xlink:href="api_2spec_2packet_8h.html" target="_top" xlink:title="ODP packet descriptor.">
<polygon fill="white" stroke="#666666" points="493.5,-349 435.5,-349 435.5,-330 493.5,-330 493.5,-349"/>
<text text-anchor="middle" x="464.5" y="-337" font-family="Helvetica,sans-Serif" font-size="10.00">packet.h</text>
</a>
</g>
</g>
<!-- Node1&#45;&gt;Node28 -->
<g id="edge39_Node000001_Node000028" class="edge">
<title>Node1&#45;&gt;Node28</title>
<g id="a_edge39_Node000001_Node000028"><a xlink:title=" ">
<path fill="none" stroke="#63b8ff" d="M473.43,-491.41C456.91,-484.7 440.15,-474.46 430.5,-459 407.61,-422.32 442.01,-369.75 457.54,-349.2"/>
<polygon fill="#63b8ff" stroke="#63b8ff" points="472.48,-494.79 483.08,-494.96 474.9,-488.22 472.48,-494.79"/>
</a>
</g>
</g>
<!-- Node30 -->
<g id="Node000030" class="node">
<title>Node30</title>
<g id="a_Node000030"><a xlink:href="api_2spec_2packet__io__types_8h.html" target="_top" xlink:title="ODP Packet IO types.">
<polygon fill="white" stroke="#666666" points="345.5,-459 241.5,-459 241.5,-440 345.5,-440 345.5,-459"/>
<text text-anchor="middle" x="293.5" y="-447" font-family="Helvetica,sans-Serif" font-size="10.00">packet_io_types.h</text>
</a>
</g>
</g>
<!-- Node1&#45;&gt;Node30 -->
<g id="edge42_Node000001_Node000030" class="edge">
<title>Node1&#45;&gt;Node30</title>
<g id="a_edge42_Node000001_Node000030"><a xlink:title=" ">
<path fill="none" stroke="#63b8ff" d="M475,-492.69C432.28,-482.76 369.8,-468.24 330.42,-459.08"/>
<polygon fill="#63b8ff" stroke="#63b8ff" points="474.34,-496.13 484.87,-494.98 475.92,-489.31 474.34,-496.13"/>
</a>
</g>
</g>
<!-- Node34 -->
<g id="Node000034" class="node">
<title>Node34</title>
<g id="a_Node000034"><a xlink:href="api_2spec_2pool_8h.html" target="_top" xlink:title="ODP pool.">
<polygon fill="white" stroke="#666666" points="897,-459 850,-459 850,-440 897,-440 897,-459"/>
<text text-anchor="middle" x="873.5" y="-447" font-family="Helvetica,sans-Serif" font-size="10.00">pool.h</text>
</a>
</g>
</g>
<!-- Node1&#45;&gt;Node34 -->
<g id="edge52_Node000001_Node000034" class="edge">
<title>Node1&#45;&gt;Node34</title>
<g id="a_edge52_Node000001_Node000034"><a xlink:title=" ">
<path fill="none" stroke="#63b8ff" d="M571.08,-498.35C634.06,-491.4 745.93,-477.71 840.5,-459 843.52,-458.4 846.67,-457.7 849.78,-456.95"/>
<polygon fill="#63b8ff" stroke="#63b8ff" points="570.59,-494.88 561.03,-499.45 571.35,-501.84 570.59,-494.88"/>
</a>
</g>
</g>
<!-- Node36 -->
<g id="Node000036" class="node">
<title>Node36</title>
<g id="a_Node000036"><a xlink:href="api_2spec_2timer_8h.html" target="_top" xlink:title="ODP timer service.">
<polygon fill="white" stroke="#666666" points="966,-459 915,-459 915,-440 966,-440 966,-459"/>
<text text-anchor="middle" x="940.5" y="-447" font-family="Helvetica,sans-Serif" font-size="10.00">timer.h</text>
</a>
</g>
</g>
<!-- Node1&#45;&gt;Node36 -->
<g id="edge55_Node000001_Node000036" class="edge">
<title>Node1&#45;&gt;Node36</title>
<g id="a_edge55_Node000001_Node000036"><a xlink:title=" ">
<path fill="none" stroke="#63b8ff" d="M571.61,-499.67C645.2,-493.6 786.64,-480.24 905.5,-459 908.58,-458.45 911.79,-457.79 914.96,-457.09"/>
<polygon fill="#63b8ff" stroke="#63b8ff" points="570.94,-496.21 561.26,-500.51 571.51,-503.19 570.94,-496.21"/>
</a>
</g>
</g>
<!-- Node3 -->
<g id="Node000003" class="node">
<title>Node3</title>
<g id="a_Node000003"><a xlink:href="api_2buffer_8h.html" target="_top" xlink:title="ODP buffer descriptor.">
<polygon fill="white" stroke="#666666" points="53,-129 0,-129 0,-110 53,-110 53,-129"/>
<text text-anchor="middle" x="26.5" y="-117" font-family="Helvetica,sans-Serif" font-size="10.00">buffer.h</text>
</a>
</g>
</g>
<!-- Node2&#45;&gt;Node3 -->
<g id="edge2_Node000002_Node000003" class="edge">
<title>Node2&#45;&gt;Node3</title>
<g id="a_edge2_Node000002_Node000003"><a xlink:title=" ">
<path fill="none" stroke="#63b8ff" d="M54.76,-431.88C38.47,-411.73 14.5,-376.06 14.5,-340.5 14.5,-340.5 14.5,-340.5 14.5,-228.5 14.5,-191.34 21.61,-147.41 24.88,-129.14"/>
<polygon fill="#63b8ff" stroke="#63b8ff" points="52.27,-434.35 61.38,-439.75 57.62,-429.84 52.27,-434.35"/>
</a>
</g>
</g>
<!-- Node4 -->
<g id="Node000004" class="node">
<title>Node4</title>
<g id="a_Node000004"><a xlink:href="odp__api_8h.html" target="_top" xlink:title="The OpenDataPlane API.">
<polygon fill="white" stroke="#666666" points="495.5,-19 431.5,-19 431.5,0 495.5,0 495.5,-19"/>
<text text-anchor="middle" x="463.5" y="-7" font-family="Helvetica,sans-Serif" font-size="10.00">odp_api.h</text>
</a>
</g>
</g>
<!-- Node3&#45;&gt;Node4 -->
<g id="edge3_Node000003_Node000004" class="edge">
<title>Node3&#45;&gt;Node4</title>
<g id="a_edge3_Node000003_Node000004"><a xlink:title=" ">
<path fill="none" stroke="#63b8ff" d="M38.54,-101.29C50.04,-86.34 68.79,-65.49 90.5,-55 150.47,-26.02 352.18,-14.96 431.29,-11.67"/>
<polygon fill="#63b8ff" stroke="#63b8ff" points="35.47,-99.57 32.36,-109.69 41.11,-103.71 35.47,-99.57"/>
</a>
</g>
</g>
<!-- Node6 -->
<g id="Node000006" class="node">
<title>Node6</title>
<g id="a_Node000006"><a xlink:href="api_2classification_8h.html" target="_top" xlink:title="ODP classification descriptor.">
<polygon fill="white" stroke="#666666" points="418,-294 329,-294 329,-275 418,-275 418,-294"/>
<text text-anchor="middle" x="373.5" y="-282" font-family="Helvetica,sans-Serif" font-size="10.00">classification.h</text>
</a>
</g>
</g>
<!-- Node5&#45;&gt;Node6 -->
<g id="edge5_Node000005_Node000006" class="edge">
<title>Node5&#45;&gt;Node6</title>
<g id="a_edge5_Node000005_Node000006"><a xlink:title=" ">
<path fill="none" stroke="#63b8ff" d="M373.5,-319.66C373.5,-310.93 373.5,-300.99 373.5,-294.09"/>
<polygon fill="#63b8ff" stroke="#63b8ff" points="370,-319.75 373.5,-329.75 377,-319.75 370,-319.75"/>
</a>
</g>
</g>
<!-- Node6&#45;&gt;Node4 -->
<g id="edge11_Node000006_Node000004" class="edge">
<title>Node6&#45;&gt;Node4</title>
<g id="a_edge11_Node000006_Node000004"><a xlink:title=" ">
<path fill="none" stroke="#63b8ff" d="M382.71,-265.86C392.78,-244.9 407.5,-208.61 407.5,-175.5 407.5,-175.5 407.5,-175.5 407.5,-118.5 407.5,-77.53 439.66,-36.63 455.24,-19.23"/>
<polygon fill="#63b8ff" stroke="#63b8ff" points="379.57,-264.32 378.23,-274.83 385.83,-267.45 379.57,-264.32"/>
</a>
</g>
</g>
<!-- Node7 -->
<g id="Node000007" class="node">
<title>Node7</title>
<g id="a_Node000007"><a xlink:href="api_2spec_2ipsec__types_8h.html" target="_top" xlink:title="ODP IPsec API type definitions.">
<polygon fill="white" stroke="#666666" points="251,-239 168,-239 168,-220 251,-220 251,-239"/>
<text text-anchor="middle" x="209.5" y="-227" font-family="Helvetica,sans-Serif" font-size="10.00">ipsec_types.h</text>
</a>
</g>
</g>
<!-- Node6&#45;&gt;Node7 -->
<g id="edge6_Node000006_Node000007" class="edge">
<title>Node6&#45;&gt;Node7</title>
<g id="a_edge6_Node000006_Node000007"><a xlink:title=" ">
<path fill="none" stroke="#63b8ff" d="M337.29,-271.8C306.68,-261.91 263.55,-247.97 236.06,-239.08"/>
<polygon fill="#63b8ff" stroke="#63b8ff" points="336.56,-275.24 347.15,-274.98 338.71,-268.58 336.56,-275.24"/>
</a>
</g>
</g>
<!-- Node11 -->
<g id="Node000011" class="node">
<title>Node11</title>
<g id="a_Node000011"><a xlink:href="api_2spec_2packet__io_8h.html" target="_top" xlink:title="ODP Packet IO.">
<polygon fill="white" stroke="#666666" points="379.5,-239 307.5,-239 307.5,-220 379.5,-220 379.5,-239"/>
<text text-anchor="middle" x="343.5" y="-227" font-family="Helvetica,sans-Serif" font-size="10.00">packet_io.h</text>
</a>
</g>
</g>
<!-- Node6&#45;&gt;Node11 -->
<g id="edge12_Node000006_Node000011" class="edge">
<title>Node6&#45;&gt;Node11</title>
<g id="a_edge12_Node000006_Node000011"><a xlink:title=" ">
<path fill="none" stroke="#63b8ff" d="M363.49,-265.82C358.4,-256.82 352.44,-246.29 348.36,-239.09"/>
<polygon fill="#63b8ff" stroke="#63b8ff" points="360.57,-267.77 368.55,-274.75 366.67,-264.32 360.57,-267.77"/>
</a>
</g>
</g>
<!-- Node8 -->
<g id="Node000008" class="node">
<title>Node8</title>
<g id="a_Node000008"><a xlink:href="api_2ipsec__types_8h.html" target="_top" xlink:title="ODP IPsec.">
<polygon fill="white" stroke="#666666" points="251,-184 168,-184 168,-165 251,-165 251,-184"/>
<text text-anchor="middle" x="209.5" y="-172" font-family="Helvetica,sans-Serif" font-size="10.00">ipsec_types.h</text>
</a>
</g>
</g>
<!-- Node7&#45;&gt;Node8 -->
<g id="edge7_Node000007_Node000008" class="edge">
<title>Node7&#45;&gt;Node8</title>
<g id="a_edge7_Node000007_Node000008"><a xlink:title=" ">
<path fill="none" stroke="#63b8ff" d="M209.5,-209.66C209.5,-200.93 209.5,-190.99 209.5,-184.09"/>
<polygon fill="#63b8ff" stroke="#63b8ff" points="206,-209.75 209.5,-219.75 213,-209.75 206,-209.75"/>
</a>
</g>
</g>
<!-- Node9 -->
<g id="Node000009" class="node">
<title>Node9</title>
<g id="a_Node000009"><a xlink:href="api_2spec_2ipsec_8h.html" target="_top" xlink:title="ODP IPsec API.">
<polygon fill="white" stroke="#666666" points="235,-129 184,-129 184,-110 235,-110 235,-129"/>
<text text-anchor="middle" x="209.5" y="-117" font-family="Helvetica,sans-Serif" font-size="10.00">ipsec.h</text>
</a>
</g>
</g>
<!-- Node8&#45;&gt;Node9 -->
<g id="edge8_Node000008_Node000009" class="edge">
<title>Node8&#45;&gt;Node9</title>
<g id="a_edge8_Node000008_Node000009"><a xlink:title=" ">
<path fill="none" stroke="#63b8ff" d="M209.5,-154.66C209.5,-145.93 209.5,-135.99 209.5,-129.09"/>
<polygon fill="#63b8ff" stroke="#63b8ff" points="206,-154.75 209.5,-164.75 213,-154.75 206,-154.75"/>
</a>
</g>
</g>
<!-- Node10 -->
<g id="Node000010" class="node">
<title>Node10</title>
<g id="a_Node000010"><a xlink:href="api_2ipsec_8h.html" target="_top" xlink:title="ODP IPSEC API &#45; platform specific header.">
<polygon fill="white" stroke="#666666" points="243,-74 192,-74 192,-55 243,-55 243,-74"/>
<text text-anchor="middle" x="217.5" y="-62" font-family="Helvetica,sans-Serif" font-size="10.00">ipsec.h</text>
</a>
</g>
</g>
<!-- Node9&#45;&gt;Node10 -->
<g id="edge9_Node000009_Node000010" class="edge">
<title>Node9&#45;&gt;Node10</title>
<g id="a_edge9_Node000009_Node000010"><a xlink:title=" ">
<path fill="none" stroke="#63b8ff" d="M212.34,-99.66C213.66,-90.93 215.16,-80.99 216.2,-74.09"/>
<polygon fill="#63b8ff" stroke="#63b8ff" points="208.85,-99.34 210.82,-109.75 215.77,-100.38 208.85,-99.34"/>
</a>
</g>
</g>
<!-- Node10&#45;&gt;Node4 -->
<g id="edge10_Node000010_Node000004" class="edge">
<title>Node10&#45;&gt;Node4</title>
<g id="a_edge10_Node000010_Node000004"><a xlink:title=" ">
<path fill="none" stroke="#63b8ff" d="M253.29,-55.79C301.21,-45.47 385.48,-27.31 431.43,-17.41"/>
<polygon fill="#63b8ff" stroke="#63b8ff" points="252.4,-52.4 243.36,-57.93 253.87,-59.24 252.4,-52.4"/>
</a>
</g>
</g>
<!-- Node12 -->
<g id="Node000012" class="node">
<title>Node12</title>
<g id="a_Node000012"><a xlink:href="api_2packet__io_8h.html" target="_top" xlink:title="ODP Packet IO.">
<polygon fill="white" stroke="#666666" points="379.5,-184 307.5,-184 307.5,-165 379.5,-165 379.5,-184"/>
<text text-anchor="middle" x="343.5" y="-172" font-family="Helvetica,sans-Serif" font-size="10.00">packet_io.h</text>
</a>
</g>
</g>
<!-- Node11&#45;&gt;Node12 -->
<g id="edge13_Node000011_Node000012" class="edge">
<title>Node11&#45;&gt;Node12</title>
<g id="a_edge13_Node000011_Node000012"><a xlink:title=" ">
<path fill="none" stroke="#63b8ff" d="M343.5,-209.66C343.5,-200.93 343.5,-190.99 343.5,-184.09"/>
<polygon fill="#63b8ff" stroke="#63b8ff" points="340,-209.75 343.5,-219.75 347,-209.75 340,-209.75"/>
</a>
</g>
</g>
<!-- Node12&#45;&gt;Node4 -->
<g id="edge14_Node000012_Node000004" class="edge">
<title>Node12&#45;&gt;Node4</title>
<g id="a_edge14_Node000012_Node000004"><a xlink:title=" ">
<path fill="none" stroke="#63b8ff" d="M347.66,-154.82C354,-129.79 368.12,-85.02 393.5,-55 407.17,-38.84 428.22,-26.56 443.67,-19.04"/>
<polygon fill="#63b8ff" stroke="#63b8ff" points="344.19,-154.28 345.28,-164.82 351,-155.9 344.19,-154.28"/>
</a>
</g>
</g>
<!-- Node14 -->
<g id="Node000014" class="node">
<title>Node14</title>
<g id="a_Node000014"><a xlink:href="api_2crypto__types_8h.html" target="_top" xlink:title="ODP crypto.">
<polygon fill="white" stroke="#666666" points="132,-294 43,-294 43,-275 132,-275 132,-294"/>
<text text-anchor="middle" x="87.5" y="-282" font-family="Helvetica,sans-Serif" font-size="10.00">crypto_types.h</text>
</a>
</g>
</g>
<!-- Node13&#45;&gt;Node14 -->
<g id="edge16_Node000013_Node000014" class="edge">
<title>Node13&#45;&gt;Node14</title>
<g id="a_edge16_Node000013_Node000014"><a xlink:title=" ">
<path fill="none" stroke="#63b8ff" d="M125.81,-375.44C115.79,-351.92 98.67,-311.73 91.19,-294.16"/>
<polygon fill="#63b8ff" stroke="#63b8ff" points="122.6,-376.83 129.74,-384.66 129.04,-374.09 122.6,-376.83"/>
</a>
</g>
</g>
<!-- Node14&#45;&gt;Node7 -->
<g id="edge21_Node000014_Node000007" class="edge">
<title>Node14&#45;&gt;Node7</title>
<g id="a_edge21_Node000014_Node000007"><a xlink:title=" ">
<path fill="none" stroke="#63b8ff" d="M116.51,-270.9C139.04,-261.11 169.7,-247.79 189.54,-239.17"/>
<polygon fill="#63b8ff" stroke="#63b8ff" points="114.88,-267.79 107.1,-274.98 117.67,-274.21 114.88,-267.79"/>
</a>
</g>
</g>
<!-- Node14&#45;&gt;Node9 -->
<g id="edge20_Node000014_Node000009" class="edge">
<title>Node14&#45;&gt;Node9</title>
<g id="a_edge20_Node000014_Node000009"><a xlink:title=" ">
<path fill="none" stroke="#63b8ff" d="M100.79,-266.95C107.09,-258.76 114.53,-248.6 120.5,-239 140.02,-207.6 135.72,-194.12 158.5,-165 169.65,-150.75 185.84,-137.54 196.97,-129.28"/>
<polygon fill="#63b8ff" stroke="#63b8ff" points="97.94,-264.91 94.51,-274.93 103.44,-269.23 97.94,-264.91"/>
</a>
</g>
</g>
<!-- Node15 -->
<g id="Node000015" class="node">
<title>Node15</title>
<g id="a_Node000015"><a xlink:href="api_2spec_2crypto_8h.html" target="_top" xlink:title="ODP crypto.">
<polygon fill="white" stroke="#666666" points="111.5,-239 55.5,-239 55.5,-220 111.5,-220 111.5,-239"/>
<text text-anchor="middle" x="83.5" y="-227" font-family="Helvetica,sans-Serif" font-size="10.00">crypto.h</text>
</a>
</g>
</g>
<!-- Node14&#45;&gt;Node15 -->
<g id="edge17_Node000014_Node000015" class="edge">
<title>Node14&#45;&gt;Node15</title>
<g id="a_edge17_Node000014_Node000015"><a xlink:title=" ">
<path fill="none" stroke="#63b8ff" d="M86.08,-264.66C85.42,-255.93 84.67,-245.99 84.15,-239.09"/>
<polygon fill="#63b8ff" stroke="#63b8ff" points="82.6,-265.04 86.84,-274.75 89.58,-264.51 82.6,-265.04"/>
</a>
</g>
</g>
<!-- Node16 -->
<g id="Node000016" class="node">
<title>Node16</title>
<g id="a_Node000016"><a xlink:href="api_2crypto_8h.html" target="_top" xlink:title="ODP crypto.">
<polygon fill="white" stroke="#666666" points="155.5,-74 99.5,-74 99.5,-55 155.5,-55 155.5,-74"/>
<text text-anchor="middle" x="127.5" y="-62" font-family="Helvetica,sans-Serif" font-size="10.00">crypto.h</text>
</a>
</g>
</g>
<!-- Node15&#45;&gt;Node16 -->
<g id="edge18_Node000015_Node000016" class="edge">
<title>Node15&#45;&gt;Node16</title>
<g id="a_edge18_Node000015_Node000016"><a xlink:title=" ">
<path fill="none" stroke="#63b8ff" d="M88.54,-209.83C98.03,-174.67 118.21,-99.9 125.12,-74.31"/>
<polygon fill="#63b8ff" stroke="#63b8ff" points="85.09,-209.17 85.87,-219.74 91.85,-210.99 85.09,-209.17"/>
</a>
</g>
</g>
<!-- Node16&#45;&gt;Node4 -->
<g id="edge19_Node000016_Node000004" class="edge">
<title>Node16&#45;&gt;Node4</title>
<g id="a_edge19_Node000016_Node000004"><a xlink:title=" ">
<path fill="none" stroke="#63b8ff" d="M165.66,-57.48C232.4,-46.95 369.14,-25.38 431.37,-15.57"/>
<polygon fill="#63b8ff" stroke="#63b8ff" points="164.9,-54.06 155.57,-59.07 165.99,-60.97 164.9,-54.06"/>
</a>
</g>
</g>
<!-- Node18 -->
<g id="Node000018" class="node">
<title>Node18</title>
<g id="a_Node000018"><a xlink:href="api_2dma_8h.html" target="_top" xlink:title="ODP DMA.">
<polygon fill="white" stroke="#666666" points="597,-129 550,-129 550,-110 597,-110 597,-129"/>
<text text-anchor="middle" x="573.5" y="-117" font-family="Helvetica,sans-Serif" font-size="10.00">dma.h</text>
</a>
</g>
</g>
<!-- Node17&#45;&gt;Node18 -->
<g id="edge23_Node000017_Node000018" class="edge">
<title>Node17&#45;&gt;Node18</title>
<g id="a_edge23_Node000017_Node000018"><a xlink:title=" ">
<path fill="none" stroke="#63b8ff" d="M573.5,-319.85C573.5,-274.82 573.5,-161.53 573.5,-129.22"/>
<polygon fill="#63b8ff" stroke="#63b8ff" points="570,-319.95 573.5,-329.95 577,-319.95 570,-319.95"/>
</a>
</g>
</g>
<!-- Node18&#45;&gt;Node4 -->
<g id="edge24_Node000018_Node000004" class="edge">
<title>Node18&#45;&gt;Node4</title>
<g id="a_edge24_Node000018_Node000004"><a xlink:title=" ">
<path fill="none" stroke="#63b8ff" d="M571.5,-99.41C569.18,-85.69 564.19,-67.48 553.5,-55 538.3,-37.26 514.36,-25.9 494.98,-19.1"/>
<polygon fill="#63b8ff" stroke="#63b8ff" points="568.07,-100.21 572.88,-109.65 575.01,-99.28 568.07,-100.21"/>
</a>
</g>
</g>
<!-- Node20 -->
<g id="Node000020" class="node">
<title>Node20</title>
<g id="a_Node000020"><a xlink:href="api_2dma__types_8h.html" target="_top" xlink:title="ODP DMA.">
<polygon fill="white" stroke="#666666" points="629.5,-404 549.5,-404 549.5,-385 629.5,-385 629.5,-404"/>
<text text-anchor="middle" x="589.5" y="-392" font-family="Helvetica,sans-Serif" font-size="10.00">dma_types.h</text>
</a>
</g>
</g>
<!-- Node19&#45;&gt;Node20 -->
<g id="edge26_Node000019_Node000020" class="edge">
<title>Node19&#45;&gt;Node20</title>
<g id="a_edge26_Node000019_Node000020"><a xlink:title=" ">
<path fill="none" stroke="#63b8ff" d="M589.5,-429.66C589.5,-420.93 589.5,-410.99 589.5,-404.09"/>
<polygon fill="#63b8ff" stroke="#63b8ff" points="586,-429.75 589.5,-439.75 593,-429.75 586,-429.75"/>
</a>
</g>
</g>
<!-- Node20&#45;&gt;Node17 -->
<g id="edge27_Node000020_Node000017" class="edge">
<title>Node20&#45;&gt;Node17</title>
<g id="a_edge27_Node000020_Node000017"><a xlink:title=" ">
<path fill="none" stroke="#63b8ff" d="M583.9,-374.95C581.24,-366.15 578.2,-356.06 576.09,-349.09"/>
<polygon fill="#63b8ff" stroke="#63b8ff" points="580.62,-376.19 586.86,-384.75 587.32,-374.16 580.62,-376.19"/>
</a>
</g>
</g>
<!-- Node21 -->
<g id="Node000021" class="node">
<title>Node21</title>
<g id="a_Node000021"><a xlink:href="api_2spec_2pool__types_8h.html" target="_top" xlink:title="Type definitions for pools.">
<polygon fill="white" stroke="#666666" points="696,-349 617,-349 617,-330 696,-330 696,-349"/>
<text text-anchor="middle" x="656.5" y="-337" font-family="Helvetica,sans-Serif" font-size="10.00">pool_types.h</text>
</a>
</g>
</g>
<!-- Node20&#45;&gt;Node21 -->
<g id="edge28_Node000020_Node000021" class="edge">
<title>Node20&#45;&gt;Node21</title>
<g id="a_edge28_Node000020_Node000021"><a xlink:title=" ">
<path fill="none" stroke="#63b8ff" d="M608.33,-378.6C620.34,-369.11 635.47,-357.13 645.54,-349.17"/>
<polygon fill="#63b8ff" stroke="#63b8ff" points="605.94,-376.04 600.26,-384.98 610.28,-381.53 605.94,-376.04"/>
</a>
</g>
</g>
<!-- Node21&#45;&gt;Node1 -->
<g id="edge29_Node000021_Node000001" class="edge">
<title>Node21&#45;&gt;Node1</title>
<g id="a_edge29_Node000021_Node000001"><a xlink:title=" ">
<path fill="none" stroke="#63b8ff" d="M659.03,-359.24C661.38,-384.71 661.62,-430.35 638.5,-459 619.66,-482.34 587.14,-493.45 561.15,-498.73"/>
<polygon fill="#63b8ff" stroke="#63b8ff" points="662.48,-358.63 657.87,-349.09 655.53,-359.42 662.48,-358.63"/>
</a>
</g>
</g>
<!-- Node23 -->
<g id="Node000023" class="node">
<title>Node23</title>
<g id="a_Node000023"><a xlink:href="api_2event_8h.html" target="_top" xlink:title="ODP event.">
<polygon fill="white" stroke="#666666" points="545,-74 492,-74 492,-55 545,-55 545,-74"/>
<text text-anchor="middle" x="518.5" y="-62" font-family="Helvetica,sans-Serif" font-size="10.00">event.h</text>
</a>
</g>
</g>
<!-- Node22&#45;&gt;Node23 -->
<g id="edge31_Node000022_Node000023" class="edge">
<title>Node22&#45;&gt;Node23</title>
<g id="a_edge31_Node000022_Node000023"><a xlink:title=" ">
<path fill="none" stroke="#63b8ff" d="M476.8,-430.67C492.73,-401.38 521.5,-340.8 521.5,-285.5 521.5,-285.5 521.5,-285.5 521.5,-173.5 521.5,-136.55 519.72,-92.51 518.9,-74.18"/>
<polygon fill="#63b8ff" stroke="#63b8ff" points="473.6,-429.23 471.77,-439.67 479.71,-432.64 473.6,-429.23"/>
</a>
</g>
</g>
<!-- Node23&#45;&gt;Node4 -->
<g id="edge32_Node000023_Node000004" class="edge">
<title>Node23&#45;&gt;Node4</title>
<g id="a_edge32_Node000023_Node000004"><a xlink:title=" ">
<path fill="none" stroke="#63b8ff" d="M502.21,-47.8C492.46,-38.41 480.45,-26.83 472.41,-19.09"/>
<polygon fill="#63b8ff" stroke="#63b8ff" points="499.79,-50.33 509.42,-54.75 504.65,-45.29 499.79,-50.33"/>
</a>
</g>
</g>
<!-- Node25 -->
<g id="Node000025" class="node">
<title>Node25</title>
<g id="a_Node000025"><a xlink:href="api_2event__vector_8h.html" target="_top" xlink:title="ODP event vector.">
<polygon fill="white" stroke="#666666" points="727,-129 638,-129 638,-110 727,-110 727,-129"/>
<text text-anchor="middle" x="682.5" y="-117" font-family="Helvetica,sans-Serif" font-size="10.00">event_vector.h</text>
</a>
</g>
</g>
<!-- Node24&#45;&gt;Node25 -->
<g id="edge34_Node000024_Node000025" class="edge">
<title>Node24&#45;&gt;Node25</title>
<g id="a_edge34_Node000024_Node000025"><a xlink:title=" ">
<path fill="none" stroke="#63b8ff" d="M729.39,-429.77C728.2,-408.24 726.5,-371.83 726.5,-340.5 726.5,-340.5 726.5,-340.5 726.5,-228.5 726.5,-189.02 700.97,-147.02 688.8,-129.25"/>
<polygon fill="#63b8ff" stroke="#63b8ff" points="725.9,-430.04 729.96,-439.82 732.88,-429.64 725.9,-430.04"/>
</a>
</g>
</g>
<!-- Node25&#45;&gt;Node4 -->
<g id="edge35_Node000025_Node000004" class="edge">
<title>Node25&#45;&gt;Node4</title>
<g id="a_edge35_Node000025_Node000004"><a xlink:title=" ">
<path fill="none" stroke="#63b8ff" d="M660.33,-104.32C638.66,-90.77 604.5,-70.2 573.5,-55 544.65,-40.85 510.11,-27.42 487.53,-19.09"/>
<polygon fill="#63b8ff" stroke="#63b8ff" points="658.75,-107.46 669.08,-109.84 662.49,-101.54 658.75,-107.46"/>
</a>
</g>
</g>
<!-- Node27 -->
<g id="Node000027" class="node">
<title>Node27</title>
<g id="a_Node000027"><a xlink:href="ml_8h.html" target="_top" xlink:title="ODP Machine Learning (ML) offload.">
<polygon fill="white" stroke="#666666" points="784.5,-74 746.5,-74 746.5,-55 784.5,-55 784.5,-74"/>
<text text-anchor="middle" x="765.5" y="-62" font-family="Helvetica,sans-Serif" font-size="10.00">ml.h</text>
</a>
</g>
</g>
<!-- Node26&#45;&gt;Node27 -->
<g id="edge37_Node000026_Node000027" class="edge">
<title>Node26&#45;&gt;Node27</title>
<g id="a_edge37_Node000026_Node000027"><a xlink:title=" ">
<path fill="none" stroke="#63b8ff" d="M803.29,-430.86C793.22,-409.9 778.5,-373.61 778.5,-340.5 778.5,-340.5 778.5,-340.5 778.5,-173.5 778.5,-136.3 770.8,-92.4 767.25,-74.14"/>
<polygon fill="#63b8ff" stroke="#63b8ff" points="800.17,-432.45 807.77,-439.83 806.43,-429.32 800.17,-432.45"/>
</a>
</g>
</g>
<!-- Node27&#45;&gt;Node4 -->
<g id="edge38_Node000027_Node000004" class="edge">
<title>Node27&#45;&gt;Node4</title>
<g id="a_edge38_Node000027_Node000004"><a xlink:title=" ">
<path fill="none" stroke="#63b8ff" d="M736.04,-58.33C679.21,-48.36 554.86,-26.53 495.83,-16.17"/>
<polygon fill="#63b8ff" stroke="#63b8ff" points="735.69,-61.82 746.15,-60.1 736.9,-54.93 735.69,-61.82"/>
</a>
</g>
</g>
<!-- Node29 -->
<g id="Node000029" class="node">
<title>Node29</title>
<g id="a_Node000029"><a xlink:href="api_2packet_8h.html" target="_top" xlink:title="ODP packet descriptor.">
<polygon fill="white" stroke="#666666" points="493.5,-184 435.5,-184 435.5,-165 493.5,-165 493.5,-184"/>
<text text-anchor="middle" x="464.5" y="-172" font-family="Helvetica,sans-Serif" font-size="10.00">packet.h</text>
</a>
</g>
</g>
<!-- Node28&#45;&gt;Node29 -->
<g id="edge40_Node000028_Node000029" class="edge">
<title>Node28&#45;&gt;Node29</title>
<g id="a_edge40_Node000028_Node000029"><a xlink:title=" ">
<path fill="none" stroke="#63b8ff" d="M464.5,-319.37C464.5,-284.03 464.5,-209.79 464.5,-184.31"/>
<polygon fill="#63b8ff" stroke="#63b8ff" points="461,-319.74 464.5,-329.74 468,-319.74 461,-319.74"/>
</a>
</g>
</g>
<!-- Node29&#45;&gt;Node4 -->
<g id="edge41_Node000029_Node000004" class="edge">
<title>Node29&#45;&gt;Node4</title>
<g id="a_edge41_Node000029_Node000004"><a xlink:title=" ">
<path fill="none" stroke="#63b8ff" d="M464.38,-154.37C464.17,-119.03 463.71,-44.79 463.55,-19.31"/>
<polygon fill="#63b8ff" stroke="#63b8ff" points="460.88,-154.76 464.45,-164.74 467.88,-154.72 460.88,-154.76"/>
</a>
</g>
</g>
<!-- Node31 -->
<g id="Node000031" class="node">
<title>Node31</title>
<g id="a_Node000031"><a xlink:href="api_2packet__io__types_8h.html" target="_top" xlink:title="ODP Packet IO.">
<polygon fill="white" stroke="#666666" points="345.5,-404 241.5,-404 241.5,-385 345.5,-385 345.5,-404"/>
<text text-anchor="middle" x="293.5" y="-392" font-family="Helvetica,sans-Serif" font-size="10.00">packet_io_types.h</text>
</a>
</g>
</g>
<!-- Node30&#45;&gt;Node31 -->
<g id="edge43_Node000030_Node000031" class="edge">
<title>Node30&#45;&gt;Node31</title>
<g id="a_edge43_Node000030_Node000031"><a xlink:title=" ">
<path fill="none" stroke="#63b8ff" d="M293.5,-429.66C293.5,-420.93 293.5,-410.99 293.5,-404.09"/>
<polygon fill="#63b8ff" stroke="#63b8ff" points="290,-429.75 293.5,-439.75 297,-429.75 290,-429.75"/>
</a>
</g>
</g>
<!-- Node31&#45;&gt;Node5 -->
<g id="edge44_Node000031_Node000005" class="edge">
<title>Node31&#45;&gt;Node5</title>
<g id="a_edge44_Node000031_Node000005"><a xlink:title=" ">
<path fill="none" stroke="#63b8ff" d="M314.75,-379.42C329.26,-369.81 348.04,-357.37 360.41,-349.17"/>
<polygon fill="#63b8ff" stroke="#63b8ff" points="312.76,-376.54 306.35,-384.98 316.62,-382.38 312.76,-376.54"/>
</a>
</g>
</g>
<!-- Node31&#45;&gt;Node7 -->
<g id="edge45_Node000031_Node000007" class="edge">
<title>Node31&#45;&gt;Node7</title>
<g id="a_edge45_Node000031_Node000007"><a xlink:title=" ">
<path fill="none" stroke="#63b8ff" d="M231.52,-383.63C211.55,-377.2 191.5,-366.56 179.5,-349 160.95,-321.84 169.89,-306.45 179.5,-275 183.75,-261.1 193.96,-247.62 201.29,-239.2"/>
<polygon fill="#63b8ff" stroke="#63b8ff" points="230.7,-387.04 241.28,-386.47 232.65,-380.32 230.7,-387.04"/>
</a>
</g>
</g>
<!-- Node31&#45;&gt;Node11 -->
<g id="edge47_Node000031_Node000011" class="edge">
<title>Node31&#45;&gt;Node11</title>
<g id="a_edge47_Node000031_Node000011"><a xlink:title=" ">
<path fill="none" stroke="#63b8ff" d="M295.95,-374.87C299.43,-351.14 306.84,-309.11 319.5,-275 324.39,-261.83 332.54,-247.74 337.97,-239.03"/>
<polygon fill="#63b8ff" stroke="#63b8ff" points="292.46,-374.55 294.55,-384.94 299.39,-375.52 292.46,-374.55"/>
</a>
</g>
</g>
<!-- Node31&#45;&gt;Node28 -->
<g id="edge46_Node000031_Node000028" class="edge">
<title>Node31&#45;&gt;Node28</title>
<g id="a_edge46_Node000031_Node000028"><a xlink:title=" ">
<path fill="none" stroke="#63b8ff" d="M330.84,-381.93C362.78,-372.03 408.02,-358.01 436.81,-349.08"/>
<polygon fill="#63b8ff" stroke="#63b8ff" points="329.49,-378.68 320.97,-384.98 331.56,-385.37 329.49,-378.68"/>
</a>
</g>
</g>
<!-- Node32 -->
<g id="Node000032" class="node">
<title>Node32</title>
<g id="a_Node000032"><a xlink:href="api_2spec_2traffic__mngr_8h.html" target="_top" xlink:title=" ">
<polygon fill="white" stroke="#666666" points="272.5,-349 188.5,-349 188.5,-330 272.5,-330 272.5,-349"/>
<text text-anchor="middle" x="230.5" y="-337" font-family="Helvetica,sans-Serif" font-size="10.00">traffic_mngr.h</text>
</a>
</g>
</g>
<!-- Node31&#45;&gt;Node32 -->
<g id="edge48_Node000031_Node000032" class="edge">
<title>Node31&#45;&gt;Node32</title>
<g id="a_edge48_Node000031_Node000032"><a xlink:title=" ">
<path fill="none" stroke="#63b8ff" d="M275.46,-378.32C264.23,-368.87 250.18,-357.06 240.81,-349.17"/>
<polygon fill="#63b8ff" stroke="#63b8ff" points="273.47,-381.23 283.38,-384.98 277.98,-375.87 273.47,-381.23"/>
</a>
</g>
</g>
<!-- Node33 -->
<g id="Node000033" class="node">
<title>Node33</title>
<g id="a_Node000033"><a xlink:href="api_2traffic__mngr_8h.html" target="_top" xlink:title="ODP Traffic manager.">
<polygon fill="white" stroke="#666666" points="272.5,-294 188.5,-294 188.5,-275 272.5,-275 272.5,-294"/>
<text text-anchor="middle" x="230.5" y="-282" font-family="Helvetica,sans-Serif" font-size="10.00">traffic_mngr.h</text>
</a>
</g>
</g>
<!-- Node32&#45;&gt;Node33 -->
<g id="edge49_Node000032_Node000033" class="edge">
<title>Node32&#45;&gt;Node33</title>
<g id="a_edge49_Node000032_Node000033"><a xlink:title=" ">
<path fill="none" stroke="#63b8ff" d="M230.5,-319.66C230.5,-310.93 230.5,-300.99 230.5,-294.09"/>
<polygon fill="#63b8ff" stroke="#63b8ff" points="227,-319.75 230.5,-329.75 234,-319.75 227,-319.75"/>
</a>
</g>
</g>
<!-- Node33&#45;&gt;Node4 -->
<g id="edge51_Node000033_Node000004" class="edge">
<title>Node33&#45;&gt;Node4</title>
<g id="a_edge51_Node000033_Node000004"><a xlink:title=" ">
<path fill="none" stroke="#63b8ff" d="M243.6,-266.65C258.12,-246.26 279.5,-210.32 279.5,-175.5 279.5,-175.5 279.5,-175.5 279.5,-118.5 279.5,-48.86 378.73,-23.26 431.45,-14.57"/>
<polygon fill="#63b8ff" stroke="#63b8ff" points="240.66,-264.75 237.52,-274.87 246.29,-268.91 240.66,-264.75"/>
</a>
</g>
</g>
<!-- Node33&#45;&gt;Node7 -->
<g id="edge50_Node000033_Node000007" class="edge">
<title>Node33&#45;&gt;Node7</title>
<g id="a_edge50_Node000033_Node000007"><a xlink:title=" ">
<path fill="none" stroke="#63b8ff" d="M223.26,-265.24C219.75,-256.37 215.7,-246.14 212.9,-239.09"/>
<polygon fill="#63b8ff" stroke="#63b8ff" points="220.09,-266.74 227.03,-274.75 226.6,-264.16 220.09,-266.74"/>
</a>
</g>
</g>
<!-- Node35 -->
<g id="Node000035" class="node">
<title>Node35</title>
<g id="a_Node000035"><a xlink:href="api_2pool_8h.html" target="_top" xlink:title="ODP pool.">
<polygon fill="white" stroke="#666666" points="865,-239 818,-239 818,-220 865,-220 865,-239"/>
<text text-anchor="middle" x="841.5" y="-227" font-family="Helvetica,sans-Serif" font-size="10.00">pool.h</text>
</a>
</g>
</g>
<!-- Node34&#45;&gt;Node35 -->
<g id="edge53_Node000034_Node000035" class="edge">
<title>Node34&#45;&gt;Node35</title>
<g id="a_edge53_Node000034_Node000035"><a xlink:title=" ">
<path fill="none" stroke="#63b8ff" d="M870.76,-429.85C864.15,-384.82 847.52,-271.53 842.78,-239.22"/>
<polygon fill="#63b8ff" stroke="#63b8ff" points="867.33,-430.57 872.25,-439.95 874.26,-429.55 867.33,-430.57"/>
</a>
</g>
</g>
<!-- Node35&#45;&gt;Node4 -->
<g id="edge54_Node000035_Node000004" class="edge">
<title>Node35&#45;&gt;Node4</title>
<g id="a_edge54_Node000035_Node000004"><a xlink:title=" ">
<path fill="none" stroke="#63b8ff" d="M842.46,-209.92C843.19,-173.95 839.18,-94.86 793.5,-55 749.56,-16.66 569.92,-11.11 495.76,-10.48"/>
<polygon fill="#63b8ff" stroke="#63b8ff" points="838.96,-209.86 842.1,-219.97 845.95,-210.11 838.96,-209.86"/>
</a>
</g>
</g>
<!-- Node37 -->
<g id="Node000037" class="node">
<title>Node37</title>
<g id="a_Node000037"><a xlink:href="api_2timer_8h.html" target="_top" xlink:title="ODP timer service.">
<polygon fill="white" stroke="#666666" points="961,-404 910,-404 910,-385 961,-385 961,-404"/>
<text text-anchor="middle" x="935.5" y="-392" font-family="Helvetica,sans-Serif" font-size="10.00">timer.h</text>
</a>
</g>
</g>
<!-- Node36&#45;&gt;Node37 -->
<g id="edge56_Node000036_Node000037" class="edge">
<title>Node36&#45;&gt;Node37</title>
<g id="a_edge56_Node000036_Node000037"><a xlink:title=" ">
<path fill="none" stroke="#63b8ff" d="M938.72,-429.66C937.9,-420.93 936.96,-410.99 936.31,-404.09"/>
<polygon fill="#63b8ff" stroke="#63b8ff" points="935.25,-430.12 939.67,-439.75 942.22,-429.46 935.25,-430.12"/>
</a>
</g>
</g>
<!-- Node37&#45;&gt;Node4 -->
<g id="edge57_Node000037_Node000004" class="edge">
<title>Node37&#45;&gt;Node4</title>
<g id="a_edge57_Node000037_Node000004"><a xlink:title=" ">
<path fill="none" stroke="#63b8ff" d="M925.48,-375.96C914.52,-355.09 898.5,-318.88 898.5,-285.5 898.5,-285.5 898.5,-285.5 898.5,-118.5 898.5,-35.53 596.65,-15.85 495.84,-11.59"/>
<polygon fill="#63b8ff" stroke="#63b8ff" points="922.49,-377.79 930.36,-384.88 928.63,-374.43 922.49,-377.79"/>
</a>
</g>
</g>
</g>
</svg>
