<?xml version="1.0" encoding="UTF-8" standalone="no"?>
<!DOCTYPE svg PUBLIC "-//W3C//DTD SVG 1.1//EN"
 "http://www.w3.org/Graphics/SVG/1.1/DTD/svg11.dtd">
<!-- Generated by graphviz version 2.43.0 (0)
 -->
<!-- Title: dma_types.h Pages: 1 -->
<svg width="1049pt" height="822pt"
 viewBox="0.00 0.00 1049.00 822.00" xmlns="http://www.w3.org/2000/svg" xmlns:xlink="http://www.w3.org/1999/xlink">
<g id="graph0" class="graph" transform="scale(1 1) rotate(0) translate(4 818)">
<title>dma_types.h</title>
<polygon fill="white" stroke="transparent" points="-4,4 -4,-818 1045,-818 1045,4 -4,4"/>
<!-- Node1 -->
<g id="node1" class="node">
<title>Node1</title>
<g id="a_node1"><a xlink:title="ODP DMA.">
<polygon fill="#bfbfbf" stroke="black" points="490,-794.5 490,-813.5 570,-813.5 570,-794.5 490,-794.5"/>
<text text-anchor="middle" x="530" y="-801.5" font-family="Helvetica,sans-Serif" font-size="10.00">dma_types.h</text>
</a>
</g>
</g>
<!-- Node2 -->
<g id="node2" class="node">
<title>Node2</title>
<g id="a_node2"><a xlink:href="visibility__begin_8h_source.html" target="_top" xlink:title=" ">
<polygon fill="white" stroke="black" points="253.5,-0.5 253.5,-19.5 374.5,-19.5 374.5,-0.5 253.5,-0.5"/>
<text text-anchor="middle" x="314" y="-7.5" font-family="Helvetica,sans-Serif" font-size="10.00">odp/visibility_begin.h</text>
</a>
</g>
</g>
<!-- Node1&#45;&gt;Node2 -->
<g id="edge1" class="edge">
<title>Node1&#45;&gt;Node2</title>
<path fill="none" stroke="midnightblue" d="M489.73,-802.8C366.05,-801.12 0,-787.68 0,-687.5 0,-687.5 0,-687.5 0,-132 0,-93.41 10.48,-78.26 42,-56 73.63,-33.66 173.92,-21.58 243.46,-15.72"/>
<polygon fill="midnightblue" stroke="midnightblue" points="243.8,-19.21 253.48,-14.9 243.23,-12.23 243.8,-19.21"/>
</g>
<!-- Node3 -->
<g id="node3" class="node">
<title>Node3</title>
<g id="a_node3"><a xlink:href="api_2event__types_8h.html" target="_top" xlink:title="ODP event API type definitions.">
<polygon fill="white" stroke="black" points="113.5,-123.5 113.5,-142.5 238.5,-142.5 238.5,-123.5 113.5,-123.5"/>
<text text-anchor="middle" x="176" y="-130.5" font-family="Helvetica,sans-Serif" font-size="10.00">odp/api/event_types.h</text>
</a>
</g>
</g>
<!-- Node1&#45;&gt;Node3 -->
<g id="edge2" class="edge">
<title>Node1&#45;&gt;Node3</title>
<path fill="none" stroke="midnightblue" d="M489.71,-801.34C378.6,-795.69 76,-772.49 76,-687.5 76,-687.5 76,-687.5 76,-372.5 76,-283.1 136.5,-188.48 163.39,-150.85"/>
<polygon fill="midnightblue" stroke="midnightblue" points="166.37,-152.69 169.44,-142.55 160.72,-148.56 166.37,-152.69"/>
</g>
<!-- Node6 -->
<g id="node6" class="node">
<title>Node6</title>
<g id="a_node6"><a xlink:href="visibility__end_8h_source.html" target="_top" xlink:title=" ">
<polygon fill="white" stroke="black" points="833,-0.5 833,-19.5 945,-19.5 945,-0.5 833,-0.5"/>
<text text-anchor="middle" x="889" y="-7.5" font-family="Helvetica,sans-Serif" font-size="10.00">odp/visibility_end.h</text>
</a>
</g>
</g>
<!-- Node1&#45;&gt;Node6 -->
<g id="edge48" class="edge">
<title>Node1&#45;&gt;Node6</title>
<path fill="none" stroke="midnightblue" d="M570.1,-802.48C690.56,-799.85 1041,-783.91 1041,-687.5 1041,-687.5 1041,-687.5 1041,-132 1041,-74.18 972.85,-39.54 927.81,-22.96"/>
<polygon fill="midnightblue" stroke="midnightblue" points="928.9,-19.64 918.31,-19.6 926.57,-26.24 928.9,-19.64"/>
</g>
<!-- Node7 -->
<g id="node7" class="node">
<title>Node7</title>
<g id="a_node7"><a xlink:href="api_2packet__types_8h.html" target="_top" xlink:title="ODP packet.">
<polygon fill="white" stroke="black" points="519.5,-738.5 519.5,-757.5 648.5,-757.5 648.5,-738.5 519.5,-738.5"/>
<text text-anchor="middle" x="584" y="-745.5" font-family="Helvetica,sans-Serif" font-size="10.00">odp/api/packet_types.h</text>
</a>
</g>
</g>
<!-- Node1&#45;&gt;Node7 -->
<g id="edge7" class="edge">
<title>Node1&#45;&gt;Node7</title>
<path fill="none" stroke="midnightblue" d="M538.92,-794.08C546.78,-786.22 558.43,-774.57 567.92,-765.08"/>
<polygon fill="midnightblue" stroke="midnightblue" points="570.65,-767.3 575.25,-757.75 565.7,-762.35 570.65,-767.3"/>
</g>
<!-- Node14 -->
<g id="node14" class="node">
<title>Node14</title>
<g id="a_node14"><a xlink:href="api_2std__types_8h.html" target="_top" xlink:title="Standard C language types and definitions for ODP.">
<polygon fill="white" stroke="black" points="406,-235.5 406,-254.5 518,-254.5 518,-235.5 406,-235.5"/>
<text text-anchor="middle" x="462" y="-242.5" font-family="Helvetica,sans-Serif" font-size="10.00">odp/api/std_types.h</text>
</a>
</g>
</g>
<!-- Node1&#45;&gt;Node14 -->
<g id="edge47" class="edge">
<title>Node1&#45;&gt;Node14</title>
<path fill="none" stroke="midnightblue" d="M512.97,-794.5C483.01,-778.19 424,-739.48 424,-687.5 424,-687.5 424,-687.5 424,-372.5 424,-332.35 441.78,-287.95 453.01,-263.89"/>
<polygon fill="midnightblue" stroke="midnightblue" points="456.29,-265.15 457.49,-254.63 449.99,-262.1 456.29,-265.15"/>
</g>
<!-- Node21 -->
<g id="node21" class="node">
<title>Node21</title>
<g id="a_node21"><a xlink:href="api_2queue__types_8h.html" target="_top" xlink:title="ODP queue.">
<polygon fill="white" stroke="black" points="735.5,-615.5 735.5,-634.5 862.5,-634.5 862.5,-615.5 735.5,-615.5"/>
<text text-anchor="middle" x="799" y="-622.5" font-family="Helvetica,sans-Serif" font-size="10.00">odp/api/queue_types.h</text>
</a>
</g>
</g>
<!-- Node1&#45;&gt;Node21 -->
<g id="edge46" class="edge">
<title>Node1&#45;&gt;Node21</title>
<path fill="none" stroke="midnightblue" d="M570.18,-802.78C635.86,-799.97 764.74,-783.7 823,-702 835.74,-684.13 823.48,-659.23 812.31,-642.87"/>
<polygon fill="midnightblue" stroke="midnightblue" points="815.1,-640.76 806.38,-634.75 809.45,-644.89 815.1,-640.76"/>
</g>
<!-- Node4 -->
<g id="node4" class="node">
<title>Node4</title>
<g id="a_node4"><a xlink:title=" ">
<polygon fill="white" stroke="#bfbfbf" points="104.5,-62 104.5,-81 247.5,-81 247.5,-62 104.5,-62"/>
<text text-anchor="middle" x="176" y="-69" font-family="Helvetica,sans-Serif" font-size="10.00">odp/api/abi/event_types.h</text>
</a>
</g>
</g>
<!-- Node3&#45;&gt;Node4 -->
<g id="edge3" class="edge">
<title>Node3&#45;&gt;Node4</title>
<path fill="none" stroke="midnightblue" d="M176,-123.48C176,-115.08 176,-101.98 176,-91.16"/>
<polygon fill="midnightblue" stroke="midnightblue" points="179.5,-91.01 176,-81.01 172.5,-91.01 179.5,-91.01"/>
</g>
<!-- Node5 -->
<g id="node5" class="node">
<title>Node5</title>
<g id="a_node5"><a xlink:href="api_2spec_2event__types_8h.html" target="_top" xlink:title="ODP event API type definitions.">
<polygon fill="white" stroke="black" points="418.5,-56.5 418.5,-86.5 527.5,-86.5 527.5,-56.5 418.5,-56.5"/>
<text text-anchor="start" x="426.5" y="-74.5" font-family="Helvetica,sans-Serif" font-size="10.00">odp/api/spec/event</text>
<text text-anchor="middle" x="473" y="-63.5" font-family="Helvetica,sans-Serif" font-size="10.00">_types.h</text>
</a>
</g>
</g>
<!-- Node3&#45;&gt;Node5 -->
<g id="edge4" class="edge">
<title>Node3&#45;&gt;Node5</title>
<path fill="none" stroke="midnightblue" d="M218.55,-123.48C268.18,-113.53 350.76,-96.99 408.33,-85.46"/>
<polygon fill="midnightblue" stroke="midnightblue" points="409.3,-88.83 418.42,-83.43 407.92,-81.97 409.3,-88.83"/>
</g>
<!-- Node5&#45;&gt;Node2 -->
<g id="edge5" class="edge">
<title>Node5&#45;&gt;Node2</title>
<path fill="none" stroke="midnightblue" d="M435.32,-56.4C408.4,-46.33 372.55,-32.91 346.81,-23.28"/>
<polygon fill="midnightblue" stroke="midnightblue" points="347.73,-19.88 337.14,-19.66 345.27,-26.44 347.73,-19.88"/>
</g>
<!-- Node5&#45;&gt;Node6 -->
<g id="edge6" class="edge">
<title>Node5&#45;&gt;Node6</title>
<path fill="none" stroke="midnightblue" d="M527.74,-57.74C530.87,-57.12 533.97,-56.54 537,-56 636.02,-38.49 751.87,-25.02 822.83,-17.55"/>
<polygon fill="midnightblue" stroke="midnightblue" points="823.39,-21.01 832.97,-16.49 822.66,-14.05 823.39,-21.01"/>
</g>
<!-- Node8 -->
<g id="node8" class="node">
<title>Node8</title>
<g id="a_node8"><a xlink:title=" ">
<polygon fill="white" stroke="#bfbfbf" points="708,-671.5 708,-701.5 814,-701.5 814,-671.5 708,-671.5"/>
<text text-anchor="start" x="716" y="-689.5" font-family="Helvetica,sans-Serif" font-size="10.00">odp/api/abi/packet</text>
<text text-anchor="middle" x="761" y="-678.5" font-family="Helvetica,sans-Serif" font-size="10.00">_io_types.h</text>
</a>
</g>
</g>
<!-- Node7&#45;&gt;Node8 -->
<g id="edge8" class="edge">
<title>Node7&#45;&gt;Node8</title>
<path fill="none" stroke="midnightblue" d="M609.36,-738.48C635.46,-729.7 676.85,-715.79 709.8,-704.71"/>
<polygon fill="midnightblue" stroke="midnightblue" points="710.92,-708.03 719.28,-701.52 708.69,-701.39 710.92,-708.03"/>
</g>
<!-- Node9 -->
<g id="node9" class="node">
<title>Node9</title>
<g id="a_node9"><a xlink:title=" ">
<polygon fill="white" stroke="#bfbfbf" points="584,-671.5 584,-701.5 690,-701.5 690,-671.5 584,-671.5"/>
<text text-anchor="start" x="592" y="-689.5" font-family="Helvetica,sans-Serif" font-size="10.00">odp/api/abi/packet</text>
<text text-anchor="middle" x="637" y="-678.5" font-family="Helvetica,sans-Serif" font-size="10.00">_types.h</text>
</a>
</g>
</g>
<!-- Node7&#45;&gt;Node9 -->
<g id="edge9" class="edge">
<title>Node7&#45;&gt;Node9</title>
<path fill="none" stroke="midnightblue" d="M591.59,-738.48C598.37,-730.87 608.59,-719.4 617.61,-709.26"/>
<polygon fill="midnightblue" stroke="midnightblue" points="620.47,-711.32 624.51,-701.52 615.24,-706.66 620.47,-711.32"/>
</g>
<!-- Node10 -->
<g id="node10" class="node">
<title>Node10</title>
<g id="a_node10"><a xlink:href="api_2spec_2packet__types_8h.html" target="_top" xlink:title="ODP packet types.">
<polygon fill="white" stroke="black" points="452.5,-671.5 452.5,-701.5 565.5,-701.5 565.5,-671.5 452.5,-671.5"/>
<text text-anchor="start" x="460.5" y="-689.5" font-family="Helvetica,sans-Serif" font-size="10.00">odp/api/spec/packet</text>
<text text-anchor="middle" x="509" y="-678.5" font-family="Helvetica,sans-Serif" font-size="10.00">_types.h</text>
</a>
</g>
</g>
<!-- Node7&#45;&gt;Node10 -->
<g id="edge10" class="edge">
<title>Node7&#45;&gt;Node10</title>
<path fill="none" stroke="midnightblue" d="M573.25,-738.48C563.19,-730.49 547.77,-718.25 534.55,-707.77"/>
<polygon fill="midnightblue" stroke="midnightblue" points="536.69,-705 526.68,-701.52 532.33,-710.48 536.69,-705"/>
</g>
<!-- Node10&#45;&gt;Node2 -->
<g id="edge11" class="edge">
<title>Node10&#45;&gt;Node2</title>
<path fill="none" stroke="midnightblue" d="M452.19,-675.69C326.91,-650.46 38,-570.97 38,-374.5 38,-374.5 38,-374.5 38,-132 38,-94.81 43.67,-78.86 73,-56 99.04,-35.71 182,-23.49 243.35,-17"/>
<polygon fill="midnightblue" stroke="midnightblue" points="243.79,-20.48 253.38,-15.97 243.07,-13.51 243.79,-20.48"/>
</g>
<!-- Node10&#45;&gt;Node6 -->
<g id="edge45" class="edge">
<title>Node10&#45;&gt;Node6</title>
<path fill="none" stroke="midnightblue" d="M565.81,-672.66C568.92,-672.07 571.99,-671.51 575,-671 671.62,-654.57 1003,-662.51 1003,-564.5 1003,-564.5 1003,-564.5 1003,-132 1003,-81.35 949.42,-43.28 915.73,-24.34"/>
<polygon fill="midnightblue" stroke="midnightblue" points="917.27,-21.2 906.81,-19.52 913.94,-27.36 917.27,-21.2"/>
</g>
<!-- Node11 -->
<g id="node11" class="node">
<title>Node11</title>
<g id="a_node11"><a xlink:href="api_2proto__stats__types_8h.html" target="_top" xlink:title="ODP proto stats types.">
<polygon fill="white" stroke="black" points="277,-358.5 277,-388.5 387,-388.5 387,-358.5 277,-358.5"/>
<text text-anchor="start" x="285" y="-376.5" font-family="Helvetica,sans-Serif" font-size="10.00">odp/api/proto_stats</text>
<text text-anchor="middle" x="332" y="-365.5" font-family="Helvetica,sans-Serif" font-size="10.00">_types.h</text>
</a>
</g>
</g>
<!-- Node10&#45;&gt;Node11 -->
<g id="edge12" class="edge">
<title>Node10&#45;&gt;Node11</title>
<path fill="none" stroke="midnightblue" d="M465.61,-671.43C421.31,-654.01 359,-619.71 359,-564.5 359,-564.5 359,-564.5 359,-501 359,-464.65 348.2,-423.69 340.27,-398.49"/>
<polygon fill="midnightblue" stroke="midnightblue" points="343.51,-397.13 337.08,-388.71 336.85,-399.3 343.51,-397.13"/>
</g>
<!-- Node10&#45;&gt;Node21 -->
<g id="edge28" class="edge">
<title>Node10&#45;&gt;Node21</title>
<path fill="none" stroke="midnightblue" d="M565.51,-673.01C568.72,-672.33 571.9,-671.65 575,-671 633.1,-658.78 699.84,-645.47 745.25,-636.52"/>
<polygon fill="midnightblue" stroke="midnightblue" points="746.04,-639.93 755.17,-634.56 744.68,-633.06 746.04,-639.93"/>
</g>
<!-- Node12 -->
<g id="node12" class="node">
<title>Node12</title>
<g id="a_node12"><a xlink:title=" ">
<polygon fill="white" stroke="#bfbfbf" points="268,-291.5 268,-321.5 396,-321.5 396,-291.5 268,-291.5"/>
<text text-anchor="start" x="276" y="-309.5" font-family="Helvetica,sans-Serif" font-size="10.00">odp/api/abi/proto_stats</text>
<text text-anchor="middle" x="332" y="-298.5" font-family="Helvetica,sans-Serif" font-size="10.00">_types.h</text>
</a>
</g>
</g>
<!-- Node11&#45;&gt;Node12 -->
<g id="edge13" class="edge">
<title>Node11&#45;&gt;Node12</title>
<path fill="none" stroke="midnightblue" d="M332,-358.4C332,-350.64 332,-340.81 332,-331.86"/>
<polygon fill="midnightblue" stroke="midnightblue" points="335.5,-331.58 332,-321.58 328.5,-331.58 335.5,-331.58"/>
</g>
<!-- Node13 -->
<g id="node13" class="node">
<title>Node13</title>
<g id="a_node13"><a xlink:href="api_2spec_2proto__stats__types_8h.html" target="_top" xlink:title="ODP proto stats types.">
<polygon fill="white" stroke="black" points="142.5,-291.5 142.5,-321.5 249.5,-321.5 249.5,-291.5 142.5,-291.5"/>
<text text-anchor="start" x="150.5" y="-309.5" font-family="Helvetica,sans-Serif" font-size="10.00">odp/api/spec/proto</text>
<text text-anchor="middle" x="196" y="-298.5" font-family="Helvetica,sans-Serif" font-size="10.00">_stats_types.h</text>
</a>
</g>
</g>
<!-- Node11&#45;&gt;Node13 -->
<g id="edge14" class="edge">
<title>Node11&#45;&gt;Node13</title>
<path fill="none" stroke="midnightblue" d="M302.49,-358.4C282.62,-348.9 256.21,-336.28 234.66,-325.98"/>
<polygon fill="midnightblue" stroke="midnightblue" points="235.98,-322.73 225.45,-321.58 232.97,-329.05 235.98,-322.73"/>
</g>
<!-- Node13&#45;&gt;Node2 -->
<g id="edge15" class="edge">
<title>Node13&#45;&gt;Node2</title>
<path fill="none" stroke="midnightblue" d="M214.55,-291.29C238.19,-271.42 276,-232.93 276,-190 276,-190 276,-190 276,-132 276,-93.81 293.44,-51.83 304.69,-28.72"/>
<polygon fill="midnightblue" stroke="midnightblue" points="307.96,-30.02 309.34,-19.52 301.71,-26.86 307.96,-30.02"/>
</g>
<!-- Node13&#45;&gt;Node6 -->
<g id="edge27" class="edge">
<title>Node13&#45;&gt;Node6</title>
<path fill="none" stroke="midnightblue" d="M232.72,-291.49C272.76,-276.48 338.92,-252.46 397,-235 459.76,-216.13 478.79,-222.43 540,-199 557.82,-192.18 560.29,-186.12 578,-179 631.64,-157.42 648.74,-162.95 703,-143 759.76,-122.13 779.06,-123.85 827,-87 848.44,-70.52 867.14,-45.23 878.25,-28.41"/>
<polygon fill="midnightblue" stroke="midnightblue" points="881.44,-29.93 883.88,-19.62 875.54,-26.16 881.44,-29.93"/>
</g>
<!-- Node13&#45;&gt;Node14 -->
<g id="edge16" class="edge">
<title>Node13&#45;&gt;Node14</title>
<path fill="none" stroke="midnightblue" d="M249.61,-293.13C252.79,-292.41 255.93,-291.69 259,-291 311.59,-279.12 371.9,-265.79 413.04,-256.74"/>
<polygon fill="midnightblue" stroke="midnightblue" points="414.05,-260.1 423.06,-254.53 412.54,-253.26 414.05,-260.1"/>
</g>
<!-- Node15 -->
<g id="node15" class="node">
<title>Node15</title>
<g id="a_node15"><a xlink:title=" ">
<polygon fill="white" stroke="#bfbfbf" points="587,-179.5 587,-198.5 717,-198.5 717,-179.5 587,-179.5"/>
<text text-anchor="middle" x="652" y="-186.5" font-family="Helvetica,sans-Serif" font-size="10.00">odp/api/abi/std_types.h</text>
</a>
</g>
</g>
<!-- Node14&#45;&gt;Node15 -->
<g id="edge17" class="edge">
<title>Node14&#45;&gt;Node15</title>
<path fill="none" stroke="midnightblue" d="M492.11,-235.44C524.63,-226.2 576.58,-211.44 612.39,-201.26"/>
<polygon fill="midnightblue" stroke="midnightblue" points="613.37,-204.62 622.03,-198.52 611.46,-197.88 613.37,-204.62"/>
</g>
<!-- Node16 -->
<g id="node16" class="node">
<title>Node16</title>
<g id="a_node16"><a xlink:href="api_2spec_2std__types_8h.html" target="_top" xlink:title="Common types and definitions for ODP API files.">
<polygon fill="white" stroke="black" points="393.5,-179.5 393.5,-198.5 530.5,-198.5 530.5,-179.5 393.5,-179.5"/>
<text text-anchor="middle" x="462" y="-186.5" font-family="Helvetica,sans-Serif" font-size="10.00">odp/api/spec/std_types.h</text>
</a>
</g>
</g>
<!-- Node14&#45;&gt;Node16 -->
<g id="edge18" class="edge">
<title>Node14&#45;&gt;Node16</title>
<path fill="none" stroke="midnightblue" d="M462,-235.08C462,-228.01 462,-217.86 462,-208.99"/>
<polygon fill="midnightblue" stroke="midnightblue" points="465.5,-208.75 462,-198.75 458.5,-208.75 465.5,-208.75"/>
</g>
<!-- Node16&#45;&gt;Node2 -->
<g id="edge19" class="edge">
<title>Node16&#45;&gt;Node2</title>
<path fill="none" stroke="midnightblue" d="M454.58,-179.41C439.6,-162.04 404.75,-121.5 376,-87 359.23,-66.88 340.23,-43.5 327.73,-28.04"/>
<polygon fill="midnightblue" stroke="midnightblue" points="330.2,-25.52 321.19,-19.94 324.75,-29.92 330.2,-25.52"/>
</g>
<!-- Node16&#45;&gt;Node6 -->
<g id="edge26" class="edge">
<title>Node16&#45;&gt;Node6</title>
<path fill="none" stroke="midnightblue" d="M515.95,-179.49C584.29,-167 704.01,-139.29 794,-87 809.95,-77.73 848.37,-45.73 871.16,-26.33"/>
<polygon fill="midnightblue" stroke="midnightblue" points="873.72,-28.74 879.05,-19.58 869.18,-23.42 873.72,-28.74"/>
</g>
<!-- Node17 -->
<g id="node17" class="node">
<title>Node17</title>
<g id="a_node17"><a xlink:title=" ">
<polygon fill="white" stroke="#bfbfbf" points="435.5,-123.5 435.5,-142.5 488.5,-142.5 488.5,-123.5 435.5,-123.5"/>
<text text-anchor="middle" x="462" y="-130.5" font-family="Helvetica,sans-Serif" font-size="10.00">stdint.h</text>
</a>
</g>
</g>
<!-- Node16&#45;&gt;Node17 -->
<g id="edge20" class="edge">
<title>Node16&#45;&gt;Node17</title>
<path fill="none" stroke="midnightblue" d="M462,-179.08C462,-172.01 462,-161.86 462,-152.99"/>
<polygon fill="midnightblue" stroke="midnightblue" points="465.5,-152.75 462,-142.75 458.5,-152.75 465.5,-152.75"/>
</g>
<!-- Node18 -->
<g id="node18" class="node">
<title>Node18</title>
<g id="a_node18"><a xlink:href="api_2align_8h.html" target="_top" xlink:title="ODP alignments.">
<polygon fill="white" stroke="black" points="554.5,-123.5 554.5,-142.5 643.5,-142.5 643.5,-123.5 554.5,-123.5"/>
<text text-anchor="middle" x="599" y="-130.5" font-family="Helvetica,sans-Serif" font-size="10.00">odp/api/align.h</text>
</a>
</g>
</g>
<!-- Node16&#45;&gt;Node18 -->
<g id="edge21" class="edge">
<title>Node16&#45;&gt;Node18</title>
<path fill="none" stroke="midnightblue" d="M483.71,-179.44C506.35,-170.52 542.07,-156.44 567.75,-146.32"/>
<polygon fill="midnightblue" stroke="midnightblue" points="569.37,-149.44 577.39,-142.52 566.81,-142.93 569.37,-149.44"/>
</g>
<!-- Node19 -->
<g id="node19" class="node">
<title>Node19</title>
<g id="a_node19"><a xlink:title=" ">
<polygon fill="white" stroke="#bfbfbf" points="545.5,-62 545.5,-81 652.5,-81 652.5,-62 545.5,-62"/>
<text text-anchor="middle" x="599" y="-69" font-family="Helvetica,sans-Serif" font-size="10.00">odp/api/abi/align.h</text>
</a>
</g>
</g>
<!-- Node18&#45;&gt;Node19 -->
<g id="edge22" class="edge">
<title>Node18&#45;&gt;Node19</title>
<path fill="none" stroke="midnightblue" d="M599,-123.48C599,-115.08 599,-101.98 599,-91.16"/>
<polygon fill="midnightblue" stroke="midnightblue" points="602.5,-91.01 599,-81.01 595.5,-91.01 602.5,-91.01"/>
</g>
<!-- Node20 -->
<g id="node20" class="node">
<title>Node20</title>
<g id="a_node20"><a xlink:href="api_2spec_2align_8h.html" target="_top" xlink:title="ODP alignments.">
<polygon fill="white" stroke="black" points="671,-62 671,-81 785,-81 785,-62 671,-62"/>
<text text-anchor="middle" x="728" y="-69" font-family="Helvetica,sans-Serif" font-size="10.00">odp/api/spec/align.h</text>
</a>
</g>
</g>
<!-- Node18&#45;&gt;Node20 -->
<g id="edge23" class="edge">
<title>Node18&#45;&gt;Node20</title>
<path fill="none" stroke="midnightblue" d="M617.48,-123.48C639.13,-113.49 675.21,-96.85 700.23,-85.31"/>
<polygon fill="midnightblue" stroke="midnightblue" points="701.94,-88.38 709.55,-81.01 699.01,-82.02 701.94,-88.38"/>
</g>
<!-- Node20&#45;&gt;Node2 -->
<g id="edge24" class="edge">
<title>Node20&#45;&gt;Node2</title>
<path fill="none" stroke="midnightblue" d="M691.8,-61.95C682.15,-59.83 671.71,-57.69 662,-56 566.47,-39.36 455.2,-26.02 384.7,-18.3"/>
<polygon fill="midnightblue" stroke="midnightblue" points="384.92,-14.81 374.6,-17.21 384.16,-21.77 384.92,-14.81"/>
</g>
<!-- Node20&#45;&gt;Node6 -->
<g id="edge25" class="edge">
<title>Node20&#45;&gt;Node6</title>
<path fill="none" stroke="midnightblue" d="M751.07,-61.98C778.68,-51.77 825.12,-34.61 856.4,-23.05"/>
<polygon fill="midnightblue" stroke="midnightblue" points="857.81,-26.26 865.98,-19.51 855.38,-19.69 857.81,-26.26"/>
</g>
<!-- Node22 -->
<g id="node22" class="node">
<title>Node22</title>
<g id="a_node22"><a xlink:title=" ">
<polygon fill="white" stroke="#bfbfbf" points="829.5,-554 829.5,-573 974.5,-573 974.5,-554 829.5,-554"/>
<text text-anchor="middle" x="902" y="-561" font-family="Helvetica,sans-Serif" font-size="10.00">odp/api/abi/queue_types.h</text>
</a>
</g>
</g>
<!-- Node21&#45;&gt;Node22 -->
<g id="edge29" class="edge">
<title>Node21&#45;&gt;Node22</title>
<path fill="none" stroke="midnightblue" d="M813.76,-615.48C830.66,-605.71 858.58,-589.58 878.49,-578.08"/>
<polygon fill="midnightblue" stroke="midnightblue" points="880.36,-581.04 887.27,-573.01 876.86,-574.98 880.36,-581.04"/>
</g>
<!-- Node23 -->
<g id="node23" class="node">
<title>Node23</title>
<g id="a_node23"><a xlink:href="api_2spec_2queue__types_8h.html" target="_top" xlink:title="ODP queue types.">
<polygon fill="white" stroke="black" points="700.5,-548.5 700.5,-578.5 811.5,-578.5 811.5,-548.5 700.5,-548.5"/>
<text text-anchor="start" x="708.5" y="-566.5" font-family="Helvetica,sans-Serif" font-size="10.00">odp/api/spec/queue</text>
<text text-anchor="middle" x="756" y="-555.5" font-family="Helvetica,sans-Serif" font-size="10.00">_types.h</text>
</a>
</g>
</g>
<!-- Node21&#45;&gt;Node23 -->
<g id="edge30" class="edge">
<title>Node21&#45;&gt;Node23</title>
<path fill="none" stroke="midnightblue" d="M792.84,-615.48C787.45,-608.02 779.38,-596.85 772.17,-586.87"/>
<polygon fill="midnightblue" stroke="midnightblue" points="774.83,-584.58 766.13,-578.52 769.15,-588.68 774.83,-584.58"/>
</g>
<!-- Node23&#45;&gt;Node2 -->
<g id="edge31" class="edge">
<title>Node23&#45;&gt;Node2</title>
<path fill="none" stroke="midnightblue" d="M762.91,-548.36C773.11,-526.15 791,-481.52 791,-441.5 791,-441.5 791,-441.5 791,-372.5 791,-281.78 796.01,-236.7 726,-179 663.04,-127.12 624.03,-166.81 546,-143 523.89,-136.26 519.36,-131.82 498,-123 458.94,-106.87 445.72,-109.58 410,-87 392.72,-76.07 391.85,-68.91 376,-56 362.72,-45.19 347.12,-33.87 334.89,-25.29"/>
<polygon fill="midnightblue" stroke="midnightblue" points="336.87,-22.4 326.66,-19.57 332.87,-28.15 336.87,-22.4"/>
</g>
<!-- Node23&#45;&gt;Node6 -->
<g id="edge44" class="edge">
<title>Node23&#45;&gt;Node6</title>
<path fill="none" stroke="midnightblue" d="M796.3,-548.32C857.03,-525.71 965,-480.07 965,-441.5 965,-441.5 965,-441.5 965,-132 965,-88.48 929.3,-47.77 906.84,-26.47"/>
<polygon fill="midnightblue" stroke="midnightblue" points="908.99,-23.7 899.25,-19.53 904.27,-28.86 908.99,-23.7"/>
</g>
<!-- Node24 -->
<g id="node24" class="node">
<title>Node24</title>
<g id="a_node24"><a xlink:href="api_2schedule__types_8h.html" target="_top" xlink:title="ODP schedule.">
<polygon fill="white" stroke="black" points="623,-492.5 623,-511.5 763,-511.5 763,-492.5 623,-492.5"/>
<text text-anchor="middle" x="693" y="-499.5" font-family="Helvetica,sans-Serif" font-size="10.00">odp/api/schedule_types.h</text>
</a>
</g>
</g>
<!-- Node23&#45;&gt;Node24 -->
<g id="edge32" class="edge">
<title>Node23&#45;&gt;Node24</title>
<path fill="none" stroke="midnightblue" d="M741.07,-548.4C731.63,-539.49 719.42,-527.95 709.67,-518.74"/>
<polygon fill="midnightblue" stroke="midnightblue" points="711.84,-515.98 702.17,-511.66 707.03,-521.07 711.84,-515.98"/>
</g>
<!-- Node25 -->
<g id="node25" class="node">
<title>Node25</title>
<g id="a_node25"><a xlink:title=" ">
<polygon fill="white" stroke="#bfbfbf" points="635.5,-425.5 635.5,-455.5 752.5,-455.5 752.5,-425.5 635.5,-425.5"/>
<text text-anchor="start" x="643.5" y="-443.5" font-family="Helvetica,sans-Serif" font-size="10.00">odp/api/abi/schedule</text>
<text text-anchor="middle" x="694" y="-432.5" font-family="Helvetica,sans-Serif" font-size="10.00">_types.h</text>
</a>
</g>
</g>
<!-- Node24&#45;&gt;Node25 -->
<g id="edge33" class="edge">
<title>Node24&#45;&gt;Node25</title>
<path fill="none" stroke="midnightblue" d="M693.14,-492.48C693.26,-485.47 693.43,-475.19 693.59,-465.7"/>
<polygon fill="midnightblue" stroke="midnightblue" points="697.1,-465.58 693.76,-455.52 690.1,-465.46 697.1,-465.58"/>
</g>
<!-- Node26 -->
<g id="node26" class="node">
<title>Node26</title>
<g id="a_node26"><a xlink:href="api_2spec_2schedule__types_8h.html" target="_top" xlink:title="ODP schedule types.">
<polygon fill="white" stroke="black" points="492.5,-425.5 492.5,-455.5 617.5,-455.5 617.5,-425.5 492.5,-425.5"/>
<text text-anchor="start" x="500.5" y="-443.5" font-family="Helvetica,sans-Serif" font-size="10.00">odp/api/spec/schedule</text>
<text text-anchor="middle" x="555" y="-432.5" font-family="Helvetica,sans-Serif" font-size="10.00">_types.h</text>
</a>
</g>
</g>
<!-- Node24&#45;&gt;Node26 -->
<g id="edge34" class="edge">
<title>Node24&#45;&gt;Node26</title>
<path fill="none" stroke="midnightblue" d="M673.23,-492.48C653.4,-483.93 622.26,-470.5 596.92,-459.57"/>
<polygon fill="midnightblue" stroke="midnightblue" points="598.09,-456.27 587.52,-455.52 595.32,-462.7 598.09,-456.27"/>
</g>
<!-- Node26&#45;&gt;Node2 -->
<g id="edge35" class="edge">
<title>Node26&#45;&gt;Node2</title>
<path fill="none" stroke="midnightblue" d="M492.42,-433.76C433.41,-427.13 343.06,-413.78 268,-389 151.3,-350.47 76,-312.9 76,-190 76,-190 76,-190 76,-132 76,-97.07 70.65,-80.02 96,-56 116.99,-36.11 187.97,-24.09 243.3,-17.54"/>
<polygon fill="midnightblue" stroke="midnightblue" points="243.89,-21 253.43,-16.38 243.1,-14.04 243.89,-21"/>
</g>
<!-- Node26&#45;&gt;Node6 -->
<g id="edge43" class="edge">
<title>Node26&#45;&gt;Node6</title>
<path fill="none" stroke="midnightblue" d="M611.5,-425.46C715.56,-398.8 927,-340.57 927,-307.5 927,-307.5 927,-307.5 927,-132 927,-93.81 909.56,-51.83 898.31,-28.72"/>
<polygon fill="midnightblue" stroke="midnightblue" points="901.29,-26.86 893.66,-19.52 895.04,-30.02 901.29,-26.86"/>
</g>
<!-- Node26&#45;&gt;Node14 -->
<g id="edge36" class="edge">
<title>Node26&#45;&gt;Node14</title>
<path fill="none" stroke="midnightblue" d="M531.82,-425.4C519.09,-416.49 504.09,-403.87 495,-389 470.81,-349.46 464.34,-293.89 462.61,-265.05"/>
<polygon fill="midnightblue" stroke="midnightblue" points="466.1,-264.59 462.14,-254.77 459.1,-264.92 466.1,-264.59"/>
</g>
<!-- Node27 -->
<g id="node27" class="node">
<title>Node27</title>
<g id="a_node27"><a xlink:href="api_2thrmask_8h.html" target="_top" xlink:title="ODP thread masks.">
<polygon fill="white" stroke="black" points="503.5,-364 503.5,-383 608.5,-383 608.5,-364 503.5,-364"/>
<text text-anchor="middle" x="556" y="-371" font-family="Helvetica,sans-Serif" font-size="10.00">odp/api/thrmask.h</text>
</a>
</g>
</g>
<!-- Node26&#45;&gt;Node27 -->
<g id="edge37" class="edge">
<title>Node26&#45;&gt;Node27</title>
<path fill="none" stroke="midnightblue" d="M555.22,-425.4C555.36,-416.06 555.55,-403.71 555.71,-393.52"/>
<polygon fill="midnightblue" stroke="midnightblue" points="559.21,-393.25 555.87,-383.19 552.21,-393.14 559.21,-393.25"/>
</g>
<!-- Node28 -->
<g id="node28" class="node">
<title>Node28</title>
<g id="a_node28"><a xlink:title=" ">
<polygon fill="white" stroke="#bfbfbf" points="639.5,-297 639.5,-316 762.5,-316 762.5,-297 639.5,-297"/>
<text text-anchor="middle" x="701" y="-304" font-family="Helvetica,sans-Serif" font-size="10.00">odp/api/abi/thrmask.h</text>
</a>
</g>
</g>
<!-- Node27&#45;&gt;Node28 -->
<g id="edge38" class="edge">
<title>Node27&#45;&gt;Node28</title>
<path fill="none" stroke="midnightblue" d="M575.25,-363.87C600.17,-352.7 643.79,-333.15 672.53,-320.26"/>
<polygon fill="midnightblue" stroke="midnightblue" points="673.97,-323.45 681.67,-316.17 671.11,-317.06 673.97,-323.45"/>
</g>
<!-- Node29 -->
<g id="node29" class="node">
<title>Node29</title>
<g id="a_node29"><a xlink:href="api_2spec_2thrmask_8h.html" target="_top" xlink:title="ODP thread masks.">
<polygon fill="white" stroke="black" points="490.5,-297 490.5,-316 621.5,-316 621.5,-297 490.5,-297"/>
<text text-anchor="middle" x="556" y="-304" font-family="Helvetica,sans-Serif" font-size="10.00">odp/api/spec/thrmask.h</text>
</a>
</g>
</g>
<!-- Node27&#45;&gt;Node29 -->
<g id="edge39" class="edge">
<title>Node27&#45;&gt;Node29</title>
<path fill="none" stroke="midnightblue" d="M556,-363.73C556,-354.18 556,-338.62 556,-326.28"/>
<polygon fill="midnightblue" stroke="midnightblue" points="559.5,-326.13 556,-316.13 552.5,-326.13 559.5,-326.13"/>
</g>
<!-- Node29&#45;&gt;Node2 -->
<g id="edge40" class="edge">
<title>Node29&#45;&gt;Node2</title>
<path fill="none" stroke="midnightblue" d="M554.93,-296.67C552.63,-281.68 545.8,-251.3 527,-235 477.81,-192.34 433.56,-242.37 385,-199 334.06,-153.51 319.51,-67.67 315.48,-29.78"/>
<polygon fill="midnightblue" stroke="midnightblue" points="318.95,-29.29 314.54,-19.66 311.98,-29.94 318.95,-29.29"/>
</g>
<!-- Node29&#45;&gt;Node6 -->
<g id="edge42" class="edge">
<title>Node29&#45;&gt;Node6</title>
<path fill="none" stroke="midnightblue" d="M591.95,-296.93C678.06,-275.89 889,-221.17 889,-190 889,-190 889,-190 889,-132 889,-95.71 889,-53.31 889,-29.56"/>
<polygon fill="midnightblue" stroke="midnightblue" points="892.5,-29.51 889,-19.51 885.5,-29.51 892.5,-29.51"/>
</g>
<!-- Node29&#45;&gt;Node14 -->
<g id="edge41" class="edge">
<title>Node29&#45;&gt;Node14</title>
<path fill="none" stroke="midnightblue" d="M542.53,-296.98C527.32,-287.34 502.31,-271.52 484.2,-260.05"/>
<polygon fill="midnightblue" stroke="midnightblue" points="485.76,-256.9 475.44,-254.51 482.02,-262.81 485.76,-256.9"/>
</g>
</g>
</svg>
