<?xml version="1.0" encoding="UTF-8" standalone="no"?>
<!DOCTYPE svg PUBLIC "-//W3C//DTD SVG 1.1//EN"
 "http://www.w3.org/Graphics/SVG/1.1/DTD/svg11.dtd">
<!-- Generated by graphviz version 2.43.0 (0)
 -->
<!-- Title: dma_types.h Pages: 1 -->
<svg width="1886pt" height="956pt"
 viewBox="0.00 0.00 1886.00 956.00" xmlns="http://www.w3.org/2000/svg" xmlns:xlink="http://www.w3.org/1999/xlink">
<g id="graph0" class="graph" transform="scale(1 1) rotate(0) translate(4 952)">
<title>dma_types.h</title>
<polygon fill="white" stroke="transparent" points="-4,4 -4,-952 1882,-952 1882,4 -4,4"/>
<!-- Node1 -->
<g id="node1" class="node">
<title>Node1</title>
<g id="a_node1"><a xlink:title="ODP DMA.">
<polygon fill="#bfbfbf" stroke="black" points="1338,-928.5 1338,-947.5 1418,-947.5 1418,-928.5 1338,-928.5"/>
<text text-anchor="middle" x="1378" y="-935.5" font-family="Helvetica,sans-Serif" font-size="10.00">dma_types.h</text>
</a>
</g>
</g>
<!-- Node2 -->
<g id="node2" class="node">
<title>Node2</title>
<g id="a_node2"><a xlink:href="visibility__begin_8h_source.html" target="_top" xlink:title=" ">
<polygon fill="white" stroke="black" points="1154.5,-0.5 1154.5,-19.5 1275.5,-19.5 1275.5,-0.5 1154.5,-0.5"/>
<text text-anchor="middle" x="1215" y="-7.5" font-family="Helvetica,sans-Serif" font-size="10.00">odp/visibility_begin.h</text>
</a>
</g>
</g>
<!-- Node1&#45;&gt;Node2 -->
<g id="edge1" class="edge">
<title>Node1&#45;&gt;Node2</title>
<path fill="none" stroke="midnightblue" d="M1418.07,-936.7C1536.72,-934.76 1878,-920.99 1878,-827 1878,-827 1878,-827 1878,-132 1878,-20.96 1748.66,-78.85 1640,-56 1517.03,-30.14 1370.75,-18.8 1285.83,-14.09"/>
<polygon fill="midnightblue" stroke="midnightblue" points="1285.95,-10.59 1275.78,-13.54 1285.58,-17.58 1285.95,-10.59"/>
</g>
<!-- Node3 -->
<g id="node3" class="node">
<title>Node3</title>
<g id="a_node3"><a xlink:href="api_2event__types_8h.html" target="_top" xlink:title="ODP event API type definitions.">
<polygon fill="white" stroke="black" points="1445.5,-252 1445.5,-271 1570.5,-271 1570.5,-252 1445.5,-252"/>
<text text-anchor="middle" x="1508" y="-259" font-family="Helvetica,sans-Serif" font-size="10.00">odp/api/event_types.h</text>
</a>
</g>
</g>
<!-- Node1&#45;&gt;Node3 -->
<g id="edge2" class="edge">
<title>Node1&#45;&gt;Node3</title>
<path fill="none" stroke="midnightblue" d="M1418,-931.23C1500.95,-918.13 1684,-882.89 1684,-827 1684,-827 1684,-827 1684,-523 1684,-412.5 1573.93,-313.85 1527.88,-277.42"/>
<polygon fill="midnightblue" stroke="midnightblue" points="1529.87,-274.53 1519.82,-271.17 1525.57,-280.06 1529.87,-274.53"/>
</g>
<!-- Node6 -->
<g id="node6" class="node">
<title>Node6</title>
<g id="a_node6"><a xlink:href="visibility__end_8h_source.html" target="_top" xlink:title=" ">
<polygon fill="white" stroke="black" points="362,-0.5 362,-19.5 474,-19.5 474,-0.5 362,-0.5"/>
<text text-anchor="middle" x="418" y="-7.5" font-family="Helvetica,sans-Serif" font-size="10.00">odp/visibility_end.h</text>
</a>
</g>
</g>
<!-- Node1&#45;&gt;Node6 -->
<g id="edge81" class="edge">
<title>Node1&#45;&gt;Node6</title>
<path fill="none" stroke="midnightblue" d="M1337.88,-935.95C1111.1,-929.77 0,-895.96 0,-827 0,-827 0,-827 0,-132 0,-94.43 6.37,-77.76 37,-56 86.12,-21.11 256.08,-13.06 351.56,-11.34"/>
<polygon fill="midnightblue" stroke="midnightblue" points="351.75,-14.84 361.7,-11.17 351.64,-7.84 351.75,-14.84"/>
</g>
<!-- Node7 -->
<g id="node7" class="node">
<title>Node7</title>
<g id="a_node7"><a xlink:href="api_2packet__types_8h.html" target="_top" xlink:title="ODP packet.">
<polygon fill="white" stroke="black" points="193.5,-760.5 193.5,-779.5 322.5,-779.5 322.5,-760.5 193.5,-760.5"/>
<text text-anchor="middle" x="258" y="-767.5" font-family="Helvetica,sans-Serif" font-size="10.00">odp/api/packet_types.h</text>
</a>
</g>
</g>
<!-- Node1&#45;&gt;Node7 -->
<g id="edge7" class="edge">
<title>Node1&#45;&gt;Node7</title>
<path fill="none" stroke="midnightblue" d="M1337.97,-936.32C1170.13,-933.3 527.95,-919.99 442,-892 372.88,-869.49 304.94,-813.67 274.55,-786.44"/>
<polygon fill="midnightblue" stroke="midnightblue" points="276.76,-783.71 267.01,-779.57 272.04,-788.89 276.76,-783.71"/>
</g>
<!-- Node14 -->
<g id="node14" class="node">
<title>Node14</title>
<g id="a_node14"><a xlink:href="api_2std__types_8h.html" target="_top" xlink:title="Standard C language types and definitions for ODP.">
<polygon fill="white" stroke="black" points="1025,-252 1025,-271 1137,-271 1137,-252 1025,-252"/>
<text text-anchor="middle" x="1081" y="-259" font-family="Helvetica,sans-Serif" font-size="10.00">odp/api/std_types.h</text>
</a>
</g>
</g>
<!-- Node1&#45;&gt;Node14 -->
<g id="edge63" class="edge">
<title>Node1&#45;&gt;Node14</title>
<path fill="none" stroke="midnightblue" d="M1344.56,-928.41C1300.63,-914.88 1229,-884.07 1229,-827 1229,-827 1229,-827 1229,-646 1229,-495.62 1255.65,-435.91 1169,-313 1156.61,-295.43 1136.03,-283.13 1117.89,-275.07"/>
<polygon fill="midnightblue" stroke="midnightblue" points="1118.98,-271.74 1108.4,-271.14 1116.29,-278.2 1118.98,-271.74"/>
</g>
<!-- Node21 -->
<g id="node21" class="node">
<title>Node21</title>
<g id="a_node21"><a xlink:href="api_2queue__types_8h.html" target="_top" xlink:title="ODP queue.">
<polygon fill="white" stroke="black" points="392.5,-637.5 392.5,-656.5 519.5,-656.5 519.5,-637.5 392.5,-637.5"/>
<text text-anchor="middle" x="456" y="-644.5" font-family="Helvetica,sans-Serif" font-size="10.00">odp/api/queue_types.h</text>
</a>
</g>
</g>
<!-- Node1&#45;&gt;Node21 -->
<g id="edge62" class="edge">
<title>Node1&#45;&gt;Node21</title>
<path fill="none" stroke="midnightblue" d="M1337.79,-936.5C1160.33,-933.75 456,-917.17 456,-827 456,-827 456,-827 456,-769 456,-732.71 456,-690.31 456,-666.56"/>
<polygon fill="midnightblue" stroke="midnightblue" points="459.5,-666.51 456,-656.51 452.5,-666.51 459.5,-666.51"/>
</g>
<!-- Node36 -->
<g id="node36" class="node">
<title>Node36</title>
<g id="a_node36"><a xlink:href="api_2pool__types_8h.html" target="_top" xlink:title="ODP pool.">
<polygon fill="white" stroke="black" points="1368,-872.5 1368,-891.5 1486,-891.5 1486,-872.5 1368,-872.5"/>
<text text-anchor="middle" x="1427" y="-879.5" font-family="Helvetica,sans-Serif" font-size="10.00">odp/api/pool_types.h</text>
</a>
</g>
</g>
<!-- Node1&#45;&gt;Node36 -->
<g id="edge64" class="edge">
<title>Node1&#45;&gt;Node36</title>
<path fill="none" stroke="midnightblue" d="M1386.09,-928.08C1393.16,-920.3 1403.59,-908.8 1412.15,-899.37"/>
<polygon fill="midnightblue" stroke="midnightblue" points="1414.93,-901.51 1419.06,-891.75 1409.75,-896.8 1414.93,-901.51"/>
</g>
<!-- Node4 -->
<g id="node4" class="node">
<title>Node4</title>
<g id="a_node4"><a xlink:title=" ">
<polygon fill="white" stroke="#bfbfbf" points="1436.5,-185 1436.5,-204 1579.5,-204 1579.5,-185 1436.5,-185"/>
<text text-anchor="middle" x="1508" y="-192" font-family="Helvetica,sans-Serif" font-size="10.00">odp/api/abi/event_types.h</text>
</a>
</g>
</g>
<!-- Node3&#45;&gt;Node4 -->
<g id="edge3" class="edge">
<title>Node3&#45;&gt;Node4</title>
<path fill="none" stroke="midnightblue" d="M1508,-251.73C1508,-242.18 1508,-226.62 1508,-214.28"/>
<polygon fill="midnightblue" stroke="midnightblue" points="1511.5,-214.13 1508,-204.13 1504.5,-214.13 1511.5,-214.13"/>
</g>
<!-- Node5 -->
<g id="node5" class="node">
<title>Node5</title>
<g id="a_node5"><a xlink:href="api_2spec_2event__types_8h.html" target="_top" xlink:title="ODP event API type definitions.">
<polygon fill="white" stroke="black" points="1039.5,-56.5 1039.5,-86.5 1148.5,-86.5 1148.5,-56.5 1039.5,-56.5"/>
<text text-anchor="start" x="1047.5" y="-74.5" font-family="Helvetica,sans-Serif" font-size="10.00">odp/api/spec/event</text>
<text text-anchor="middle" x="1094" y="-63.5" font-family="Helvetica,sans-Serif" font-size="10.00">_types.h</text>
</a>
</g>
</g>
<!-- Node3&#45;&gt;Node5 -->
<g id="edge4" class="edge">
<title>Node3&#45;&gt;Node5</title>
<path fill="none" stroke="midnightblue" d="M1489.14,-251.93C1426.09,-223.3 1221.76,-130.52 1134.31,-90.81"/>
<polygon fill="midnightblue" stroke="midnightblue" points="1135.54,-87.52 1124.98,-86.57 1132.64,-93.89 1135.54,-87.52"/>
</g>
<!-- Node5&#45;&gt;Node2 -->
<g id="edge5" class="edge">
<title>Node5&#45;&gt;Node2</title>
<path fill="none" stroke="midnightblue" d="M1122.68,-56.4C1142.52,-46.64 1168.76,-33.74 1188.19,-24.18"/>
<polygon fill="midnightblue" stroke="midnightblue" points="1189.96,-27.21 1197.39,-19.66 1186.88,-20.93 1189.96,-27.21"/>
</g>
<!-- Node5&#45;&gt;Node6 -->
<g id="edge6" class="edge">
<title>Node5&#45;&gt;Node6</title>
<path fill="none" stroke="midnightblue" d="M1039.25,-65.68C916.1,-54.84 617.64,-28.57 484.29,-16.83"/>
<polygon fill="midnightblue" stroke="midnightblue" points="484.48,-13.34 474.21,-15.95 483.86,-20.31 484.48,-13.34"/>
</g>
<!-- Node8 -->
<g id="node8" class="node">
<title>Node8</title>
<g id="a_node8"><a xlink:title=" ">
<polygon fill="white" stroke="#bfbfbf" points="28,-693.5 28,-723.5 134,-723.5 134,-693.5 28,-693.5"/>
<text text-anchor="start" x="36" y="-711.5" font-family="Helvetica,sans-Serif" font-size="10.00">odp/api/abi/packet</text>
<text text-anchor="middle" x="81" y="-700.5" font-family="Helvetica,sans-Serif" font-size="10.00">_io_types.h</text>
</a>
</g>
</g>
<!-- Node7&#45;&gt;Node8 -->
<g id="edge8" class="edge">
<title>Node7&#45;&gt;Node8</title>
<path fill="none" stroke="midnightblue" d="M232.64,-760.48C206.54,-751.7 165.15,-737.79 132.2,-726.71"/>
<polygon fill="midnightblue" stroke="midnightblue" points="133.31,-723.39 122.72,-723.52 131.08,-730.03 133.31,-723.39"/>
</g>
<!-- Node9 -->
<g id="node9" class="node">
<title>Node9</title>
<g id="a_node9"><a xlink:title=" ">
<polygon fill="white" stroke="#bfbfbf" points="152,-693.5 152,-723.5 258,-723.5 258,-693.5 152,-693.5"/>
<text text-anchor="start" x="160" y="-711.5" font-family="Helvetica,sans-Serif" font-size="10.00">odp/api/abi/packet</text>
<text text-anchor="middle" x="205" y="-700.5" font-family="Helvetica,sans-Serif" font-size="10.00">_types.h</text>
</a>
</g>
</g>
<!-- Node7&#45;&gt;Node9 -->
<g id="edge9" class="edge">
<title>Node7&#45;&gt;Node9</title>
<path fill="none" stroke="midnightblue" d="M250.41,-760.48C243.63,-752.87 233.41,-741.4 224.39,-731.26"/>
<polygon fill="midnightblue" stroke="midnightblue" points="226.76,-728.66 217.49,-723.52 221.53,-733.32 226.76,-728.66"/>
</g>
<!-- Node10 -->
<g id="node10" class="node">
<title>Node10</title>
<g id="a_node10"><a xlink:href="api_2spec_2packet__types_8h.html" target="_top" xlink:title="ODP packet types.">
<polygon fill="white" stroke="black" points="314.5,-693.5 314.5,-723.5 427.5,-723.5 427.5,-693.5 314.5,-693.5"/>
<text text-anchor="start" x="322.5" y="-711.5" font-family="Helvetica,sans-Serif" font-size="10.00">odp/api/spec/packet</text>
<text text-anchor="middle" x="371" y="-700.5" font-family="Helvetica,sans-Serif" font-size="10.00">_types.h</text>
</a>
</g>
</g>
<!-- Node7&#45;&gt;Node10 -->
<g id="edge10" class="edge">
<title>Node7&#45;&gt;Node10</title>
<path fill="none" stroke="midnightblue" d="M274.19,-760.48C290.07,-752.12 314.8,-739.09 335.3,-728.3"/>
<polygon fill="midnightblue" stroke="midnightblue" points="337.15,-731.28 344.37,-723.52 333.89,-725.09 337.15,-731.28"/>
</g>
<!-- Node10&#45;&gt;Node2 -->
<g id="edge11" class="edge">
<title>Node10&#45;&gt;Node2</title>
<path fill="none" stroke="midnightblue" d="M427.62,-707.65C605.26,-704.69 1153.32,-668.6 1383,-344 1440.7,-262.45 1399.69,-204.56 1342,-123 1320.23,-92.23 1318.2,-81.01 1290,-56 1275.74,-43.35 1257.44,-32.29 1242.48,-24.3"/>
<polygon fill="midnightblue" stroke="midnightblue" points="1243.7,-20.99 1233.21,-19.5 1240.49,-27.21 1243.7,-20.99"/>
</g>
<!-- Node10&#45;&gt;Node6 -->
<g id="edge61" class="edge">
<title>Node10&#45;&gt;Node6</title>
<path fill="none" stroke="midnightblue" d="M316.18,-693.49C240.7,-672.56 114,-630.82 114,-586.5 114,-586.5 114,-586.5 114,-523 114,-430.6 38,-421.9 38,-329.5 38,-329.5 38,-329.5 38,-132 38,-96.58 34.8,-78.69 62,-56 104.72,-20.36 261.13,-12.55 351.79,-11.08"/>
<polygon fill="midnightblue" stroke="midnightblue" points="352.02,-14.58 361.97,-10.94 351.92,-7.58 352.02,-14.58"/>
</g>
<!-- Node11 -->
<g id="node11" class="node">
<title>Node11</title>
<g id="a_node11"><a xlink:href="api_2proto__stats__types_8h.html" target="_top" xlink:title="ODP proto stats types.">
<polygon fill="white" stroke="black" points="151,-380.5 151,-410.5 261,-410.5 261,-380.5 151,-380.5"/>
<text text-anchor="start" x="159" y="-398.5" font-family="Helvetica,sans-Serif" font-size="10.00">odp/api/proto_stats</text>
<text text-anchor="middle" x="206" y="-387.5" font-family="Helvetica,sans-Serif" font-size="10.00">_types.h</text>
</a>
</g>
</g>
<!-- Node10&#45;&gt;Node11 -->
<g id="edge12" class="edge">
<title>Node10&#45;&gt;Node11</title>
<path fill="none" stroke="midnightblue" d="M314.23,-694.87C261.15,-679.32 190,-647.17 190,-586.5 190,-586.5 190,-586.5 190,-523 190,-487.17 196.4,-446.07 201.1,-420.69"/>
<polygon fill="midnightblue" stroke="midnightblue" points="204.54,-421.32 202.99,-410.84 197.67,-420.01 204.54,-421.32"/>
</g>
<!-- Node10&#45;&gt;Node21 -->
<g id="edge28" class="edge">
<title>Node10&#45;&gt;Node21</title>
<path fill="none" stroke="midnightblue" d="M391.14,-693.4C404.39,-684.13 421.68,-672.03 435.08,-662.65"/>
<polygon fill="midnightblue" stroke="midnightblue" points="437.45,-665.26 443.63,-656.66 433.43,-659.53 437.45,-665.26"/>
</g>
<!-- Node12 -->
<g id="node12" class="node">
<title>Node12</title>
<g id="a_node12"><a xlink:title=" ">
<polygon fill="white" stroke="#bfbfbf" points="142,-313.5 142,-343.5 270,-343.5 270,-313.5 142,-313.5"/>
<text text-anchor="start" x="150" y="-331.5" font-family="Helvetica,sans-Serif" font-size="10.00">odp/api/abi/proto_stats</text>
<text text-anchor="middle" x="206" y="-320.5" font-family="Helvetica,sans-Serif" font-size="10.00">_types.h</text>
</a>
</g>
</g>
<!-- Node11&#45;&gt;Node12 -->
<g id="edge13" class="edge">
<title>Node11&#45;&gt;Node12</title>
<path fill="none" stroke="midnightblue" d="M206,-380.4C206,-372.64 206,-362.81 206,-353.86"/>
<polygon fill="midnightblue" stroke="midnightblue" points="209.5,-353.58 206,-343.58 202.5,-353.58 209.5,-353.58"/>
</g>
<!-- Node13 -->
<g id="node13" class="node">
<title>Node13</title>
<g id="a_node13"><a xlink:href="api_2spec_2proto__stats__types_8h.html" target="_top" xlink:title="ODP proto stats types.">
<polygon fill="white" stroke="black" points="364.5,-313.5 364.5,-343.5 471.5,-343.5 471.5,-313.5 364.5,-313.5"/>
<text text-anchor="start" x="372.5" y="-331.5" font-family="Helvetica,sans-Serif" font-size="10.00">odp/api/spec/proto</text>
<text text-anchor="middle" x="418" y="-320.5" font-family="Helvetica,sans-Serif" font-size="10.00">_stats_types.h</text>
</a>
</g>
</g>
<!-- Node11&#45;&gt;Node13 -->
<g id="edge14" class="edge">
<title>Node11&#45;&gt;Node13</title>
<path fill="none" stroke="midnightblue" d="M251.74,-380.48C284.09,-370.56 327.65,-357.2 362.07,-346.65"/>
<polygon fill="midnightblue" stroke="midnightblue" points="363.44,-349.89 371.98,-343.61 361.39,-343.2 363.44,-349.89"/>
</g>
<!-- Node13&#45;&gt;Node2 -->
<g id="edge15" class="edge">
<title>Node13&#45;&gt;Node2</title>
<path fill="none" stroke="midnightblue" d="M439.41,-313.19C468.82,-294.33 523.99,-261.69 576,-246 715.98,-203.78 771.19,-273.27 903,-210 940.96,-191.78 942.92,-175.25 970,-143 1000.37,-106.83 992.01,-82.65 1031,-56 1064.25,-33.27 1107.81,-21.99 1144.19,-16.41"/>
<polygon fill="midnightblue" stroke="midnightblue" points="1144.84,-19.85 1154.25,-14.98 1143.86,-12.92 1144.84,-19.85"/>
</g>
<!-- Node13&#45;&gt;Node6 -->
<g id="edge27" class="edge">
<title>Node13&#45;&gt;Node6</title>
<path fill="none" stroke="midnightblue" d="M418,-313.24C418,-289.03 418,-238.35 418,-195.5 418,-195.5 418,-195.5 418,-132 418,-95.71 418,-53.31 418,-29.56"/>
<polygon fill="midnightblue" stroke="midnightblue" points="421.5,-29.51 418,-19.51 414.5,-29.51 421.5,-29.51"/>
</g>
<!-- Node13&#45;&gt;Node14 -->
<g id="edge16" class="edge">
<title>Node13&#45;&gt;Node14</title>
<path fill="none" stroke="midnightblue" d="M471.51,-321.87C497.59,-319.15 529.43,-315.86 558,-313 722.15,-296.57 915.39,-278.15 1014.69,-268.75"/>
<polygon fill="midnightblue" stroke="midnightblue" points="1015.25,-272.22 1024.87,-267.79 1014.59,-265.25 1015.25,-272.22"/>
</g>
<!-- Node15 -->
<g id="node15" class="node">
<title>Node15</title>
<g id="a_node15"><a xlink:title=" ">
<polygon fill="white" stroke="#bfbfbf" points="1016,-185 1016,-204 1146,-204 1146,-185 1016,-185"/>
<text text-anchor="middle" x="1081" y="-192" font-family="Helvetica,sans-Serif" font-size="10.00">odp/api/abi/std_types.h</text>
</a>
</g>
</g>
<!-- Node14&#45;&gt;Node15 -->
<g id="edge17" class="edge">
<title>Node14&#45;&gt;Node15</title>
<path fill="none" stroke="midnightblue" d="M1081,-251.73C1081,-242.18 1081,-226.62 1081,-214.28"/>
<polygon fill="midnightblue" stroke="midnightblue" points="1084.5,-214.13 1081,-204.13 1077.5,-214.13 1084.5,-214.13"/>
</g>
<!-- Node16 -->
<g id="node16" class="node">
<title>Node16</title>
<g id="a_node16"><a xlink:href="api_2spec_2std__types_8h.html" target="_top" xlink:title="Common types and definitions for ODP API files.">
<polygon fill="white" stroke="black" points="756.5,-185 756.5,-204 893.5,-204 893.5,-185 756.5,-185"/>
<text text-anchor="middle" x="825" y="-192" font-family="Helvetica,sans-Serif" font-size="10.00">odp/api/spec/std_types.h</text>
</a>
</g>
</g>
<!-- Node14&#45;&gt;Node16 -->
<g id="edge18" class="edge">
<title>Node14&#45;&gt;Node16</title>
<path fill="none" stroke="midnightblue" d="M1047.27,-251.94C1001.41,-240.29 919.34,-219.45 868.78,-206.62"/>
<polygon fill="midnightblue" stroke="midnightblue" points="869.36,-203.15 858.81,-204.08 867.64,-209.94 869.36,-203.15"/>
</g>
<!-- Node16&#45;&gt;Node2 -->
<g id="edge19" class="edge">
<title>Node16&#45;&gt;Node2</title>
<path fill="none" stroke="midnightblue" d="M863.9,-184.95C890.37,-177.51 924.85,-164.47 949,-143 982.01,-113.66 961.45,-82.2 997,-56 1020.14,-38.95 1089.98,-26.52 1144.45,-19.1"/>
<polygon fill="midnightblue" stroke="midnightblue" points="1144.97,-22.56 1154.42,-17.77 1144.05,-15.62 1144.97,-22.56"/>
</g>
<!-- Node16&#45;&gt;Node6 -->
<g id="edge26" class="edge">
<title>Node16&#45;&gt;Node6</title>
<path fill="none" stroke="midnightblue" d="M811.72,-184.97C767.18,-156.43 624.61,-65.46 602,-56 563.45,-39.88 517.85,-28.67 481.68,-21.48"/>
<polygon fill="midnightblue" stroke="midnightblue" points="482.23,-18.02 471.74,-19.55 480.9,-24.89 482.23,-18.02"/>
</g>
<!-- Node17 -->
<g id="node17" class="node">
<title>Node17</title>
<g id="a_node17"><a xlink:title=" ">
<polygon fill="white" stroke="#bfbfbf" points="629.5,-123.5 629.5,-142.5 682.5,-142.5 682.5,-123.5 629.5,-123.5"/>
<text text-anchor="middle" x="656" y="-130.5" font-family="Helvetica,sans-Serif" font-size="10.00">stdint.h</text>
</a>
</g>
</g>
<!-- Node16&#45;&gt;Node17 -->
<g id="edge20" class="edge">
<title>Node16&#45;&gt;Node17</title>
<path fill="none" stroke="midnightblue" d="M800.79,-184.98C771.67,-174.72 722.63,-157.46 689.8,-145.9"/>
<polygon fill="midnightblue" stroke="midnightblue" points="690.76,-142.53 680.17,-142.51 688.44,-149.13 690.76,-142.53"/>
</g>
<!-- Node18 -->
<g id="node18" class="node">
<title>Node18</title>
<g id="a_node18"><a xlink:href="api_2align_8h.html" target="_top" xlink:title="ODP alignments.">
<polygon fill="white" stroke="black" points="780.5,-123.5 780.5,-142.5 869.5,-142.5 869.5,-123.5 780.5,-123.5"/>
<text text-anchor="middle" x="825" y="-130.5" font-family="Helvetica,sans-Serif" font-size="10.00">odp/api/align.h</text>
</a>
</g>
</g>
<!-- Node16&#45;&gt;Node18 -->
<g id="edge21" class="edge">
<title>Node16&#45;&gt;Node18</title>
<path fill="none" stroke="midnightblue" d="M825,-184.98C825,-176.58 825,-163.48 825,-152.66"/>
<polygon fill="midnightblue" stroke="midnightblue" points="828.5,-152.51 825,-142.51 821.5,-152.51 828.5,-152.51"/>
</g>
<!-- Node19 -->
<g id="node19" class="node">
<title>Node19</title>
<g id="a_node19"><a xlink:title=" ">
<polygon fill="white" stroke="#bfbfbf" points="799.5,-62 799.5,-81 906.5,-81 906.5,-62 799.5,-62"/>
<text text-anchor="middle" x="853" y="-69" font-family="Helvetica,sans-Serif" font-size="10.00">odp/api/abi/align.h</text>
</a>
</g>
</g>
<!-- Node18&#45;&gt;Node19 -->
<g id="edge22" class="edge">
<title>Node18&#45;&gt;Node19</title>
<path fill="none" stroke="midnightblue" d="M829.01,-123.48C833.09,-114.82 839.52,-101.15 844.7,-90.15"/>
<polygon fill="midnightblue" stroke="midnightblue" points="847.9,-91.55 849,-81.01 841.57,-88.57 847.9,-91.55"/>
</g>
<!-- Node20 -->
<g id="node20" class="node">
<title>Node20</title>
<g id="a_node20"><a xlink:href="api_2spec_2align_8h.html" target="_top" xlink:title="ODP alignments.">
<polygon fill="white" stroke="black" points="667,-62 667,-81 781,-81 781,-62 667,-62"/>
<text text-anchor="middle" x="724" y="-69" font-family="Helvetica,sans-Serif" font-size="10.00">odp/api/spec/align.h</text>
</a>
</g>
</g>
<!-- Node18&#45;&gt;Node20 -->
<g id="edge23" class="edge">
<title>Node18&#45;&gt;Node20</title>
<path fill="none" stroke="midnightblue" d="M810.53,-123.48C794.03,-113.75 766.82,-97.73 747.32,-86.24"/>
<polygon fill="midnightblue" stroke="midnightblue" points="748.84,-83.07 738.44,-81.01 745.28,-89.1 748.84,-83.07"/>
</g>
<!-- Node20&#45;&gt;Node2 -->
<g id="edge24" class="edge">
<title>Node20&#45;&gt;Node2</title>
<path fill="none" stroke="midnightblue" d="M760.03,-61.96C770.02,-59.79 780.89,-57.62 791,-56 914.61,-36.12 1059.95,-22.87 1144.36,-16.16"/>
<polygon fill="midnightblue" stroke="midnightblue" points="1144.65,-19.65 1154.34,-15.38 1144.1,-12.67 1144.65,-19.65"/>
</g>
<!-- Node20&#45;&gt;Node6 -->
<g id="edge25" class="edge">
<title>Node20&#45;&gt;Node6</title>
<path fill="none" stroke="midnightblue" d="M682.72,-61.98C672.98,-59.99 662.63,-57.9 653,-56 591.69,-43.87 521.27,-30.45 473.63,-21.45"/>
<polygon fill="midnightblue" stroke="midnightblue" points="474,-17.96 463.52,-19.55 472.7,-24.84 474,-17.96"/>
</g>
<!-- Node22 -->
<g id="node22" class="node">
<title>Node22</title>
<g id="a_node22"><a xlink:title=" ">
<polygon fill="white" stroke="#bfbfbf" points="380.5,-576 380.5,-595 525.5,-595 525.5,-576 380.5,-576"/>
<text text-anchor="middle" x="453" y="-583" font-family="Helvetica,sans-Serif" font-size="10.00">odp/api/abi/queue_types.h</text>
</a>
</g>
</g>
<!-- Node21&#45;&gt;Node22 -->
<g id="edge29" class="edge">
<title>Node21&#45;&gt;Node22</title>
<path fill="none" stroke="midnightblue" d="M455.57,-637.48C455.15,-629.08 454.49,-615.98 453.94,-605.16"/>
<polygon fill="midnightblue" stroke="midnightblue" points="457.43,-604.82 453.43,-595.01 450.44,-605.17 457.43,-604.82"/>
</g>
<!-- Node23 -->
<g id="node23" class="node">
<title>Node23</title>
<g id="a_node23"><a xlink:href="api_2spec_2queue__types_8h.html" target="_top" xlink:title="ODP queue types.">
<polygon fill="white" stroke="black" points="582.5,-570.5 582.5,-600.5 693.5,-600.5 693.5,-570.5 582.5,-570.5"/>
<text text-anchor="start" x="590.5" y="-588.5" font-family="Helvetica,sans-Serif" font-size="10.00">odp/api/spec/queue</text>
<text text-anchor="middle" x="638" y="-577.5" font-family="Helvetica,sans-Serif" font-size="10.00">_types.h</text>
</a>
</g>
</g>
<!-- Node21&#45;&gt;Node23 -->
<g id="edge30" class="edge">
<title>Node21&#45;&gt;Node23</title>
<path fill="none" stroke="midnightblue" d="M482.08,-637.48C508.91,-628.7 551.47,-614.79 585.35,-603.71"/>
<polygon fill="midnightblue" stroke="midnightblue" points="586.69,-606.96 595.11,-600.52 584.51,-600.3 586.69,-606.96"/>
</g>
<!-- Node23&#45;&gt;Node2 -->
<g id="edge31" class="edge">
<title>Node23&#45;&gt;Node2</title>
<path fill="none" stroke="midnightblue" d="M693.88,-579.04C826.4,-564.67 1168.32,-519.2 1432,-411 1483.56,-389.84 1498.66,-383.48 1538,-344 1592.17,-289.62 1623.62,-247.5 1589,-179 1532.6,-67.41 1377.5,-29.86 1285.71,-17.28"/>
<polygon fill="midnightblue" stroke="midnightblue" points="1286.03,-13.79 1275.66,-15.97 1285.13,-20.73 1286.03,-13.79"/>
</g>
<!-- Node23&#45;&gt;Node6 -->
<g id="edge60" class="edge">
<title>Node23&#45;&gt;Node6</title>
<path fill="none" stroke="midnightblue" d="M582.23,-572.36C465.4,-545.82 200.89,-479.47 142,-411 98.2,-360.08 114,-329.66 114,-262.5 114,-262.5 114,-262.5 114,-132 114,-79.35 273.37,-39.51 361.33,-21.53"/>
<polygon fill="midnightblue" stroke="midnightblue" points="362.05,-24.95 371.17,-19.55 360.67,-18.09 362.05,-24.95"/>
</g>
<!-- Node24 -->
<g id="node24" class="node">
<title>Node24</title>
<g id="a_node24"><a xlink:href="api_2event__vector__types_8h.html" target="_top" xlink:title="ODP event vector API type definitions.">
<polygon fill="white" stroke="black" points="904.5,-380.5 904.5,-410.5 1023.5,-410.5 1023.5,-380.5 904.5,-380.5"/>
<text text-anchor="start" x="912.5" y="-398.5" font-family="Helvetica,sans-Serif" font-size="10.00">odp/api/event_vector</text>
<text text-anchor="middle" x="964" y="-387.5" font-family="Helvetica,sans-Serif" font-size="10.00">_types.h</text>
</a>
</g>
</g>
<!-- Node23&#45;&gt;Node24 -->
<g id="edge32" class="edge">
<title>Node23&#45;&gt;Node24</title>
<path fill="none" stroke="midnightblue" d="M668.82,-570.43C710.22,-551.16 785.69,-514.74 847,-478 879.01,-458.82 913.89,-433.97 937.16,-416.78"/>
<polygon fill="midnightblue" stroke="midnightblue" points="939.54,-419.37 945.48,-410.59 935.37,-413.75 939.54,-419.37"/>
</g>
<!-- Node28 -->
<g id="node28" class="node">
<title>Node28</title>
<g id="a_node28"><a xlink:href="queue__stats__types_8h.html" target="_top" xlink:title="ODP queue.">
<polygon fill="white" stroke="black" points="584.5,-246.5 584.5,-276.5 699.5,-276.5 699.5,-246.5 584.5,-246.5"/>
<text text-anchor="start" x="592.5" y="-264.5" font-family="Helvetica,sans-Serif" font-size="10.00">odp/api/queue_stats</text>
<text text-anchor="middle" x="642" y="-253.5" font-family="Helvetica,sans-Serif" font-size="10.00">_types.h</text>
</a>
</g>
</g>
<!-- Node23&#45;&gt;Node28 -->
<g id="edge45" class="edge">
<title>Node23&#45;&gt;Node28</title>
<path fill="none" stroke="midnightblue" d="M600.29,-570.41C559.43,-552.41 500,-517.03 500,-463.5 500,-463.5 500,-463.5 500,-394.5 500,-340.21 556.37,-301.93 598.08,-281.04"/>
<polygon fill="midnightblue" stroke="midnightblue" points="599.78,-284.1 607.26,-276.6 596.74,-277.8 599.78,-284.1"/>
</g>
<!-- Node30 -->
<g id="node30" class="node">
<title>Node30</title>
<g id="a_node30"><a xlink:href="api_2schedule__types_8h.html" target="_top" xlink:title="ODP schedule.">
<polygon fill="white" stroke="black" points="568,-514.5 568,-533.5 708,-533.5 708,-514.5 568,-514.5"/>
<text text-anchor="middle" x="638" y="-521.5" font-family="Helvetica,sans-Serif" font-size="10.00">odp/api/schedule_types.h</text>
</a>
</g>
</g>
<!-- Node23&#45;&gt;Node30 -->
<g id="edge46" class="edge">
<title>Node23&#45;&gt;Node30</title>
<path fill="none" stroke="midnightblue" d="M638,-570.4C638,-562.47 638,-552.46 638,-543.86"/>
<polygon fill="midnightblue" stroke="midnightblue" points="641.5,-543.66 638,-533.66 634.5,-543.66 641.5,-543.66"/>
</g>
<!-- Node25 -->
<g id="node25" class="node">
<title>Node25</title>
<g id="a_node25"><a xlink:title=" ">
<polygon fill="white" stroke="#bfbfbf" points="895.5,-313.5 895.5,-343.5 1032.5,-343.5 1032.5,-313.5 895.5,-313.5"/>
<text text-anchor="start" x="903.5" y="-331.5" font-family="Helvetica,sans-Serif" font-size="10.00">odp/api/abi/event_vector</text>
<text text-anchor="middle" x="964" y="-320.5" font-family="Helvetica,sans-Serif" font-size="10.00">_types.h</text>
</a>
</g>
</g>
<!-- Node24&#45;&gt;Node25 -->
<g id="edge33" class="edge">
<title>Node24&#45;&gt;Node25</title>
<path fill="none" stroke="midnightblue" d="M964,-380.4C964,-372.64 964,-362.81 964,-353.86"/>
<polygon fill="midnightblue" stroke="midnightblue" points="967.5,-353.58 964,-343.58 960.5,-353.58 967.5,-353.58"/>
</g>
<!-- Node26 -->
<g id="node26" class="node">
<title>Node26</title>
<g id="a_node26"><a xlink:title=" ">
<polygon fill="white" stroke="#bfbfbf" points="1216,-319 1216,-338 1352,-338 1352,-319 1216,-319"/>
<text text-anchor="middle" x="1284" y="-326" font-family="Helvetica,sans-Serif" font-size="10.00">odp/api/abi/pool_types.h</text>
</a>
</g>
</g>
<!-- Node24&#45;&gt;Node26 -->
<g id="edge34" class="edge">
<title>Node24&#45;&gt;Node26</title>
<path fill="none" stroke="midnightblue" d="M1023.81,-382.35C1083.71,-370.18 1174.96,-351.65 1231.95,-340.07"/>
<polygon fill="midnightblue" stroke="midnightblue" points="1232.73,-343.49 1241.83,-338.07 1231.34,-336.63 1232.73,-343.49"/>
</g>
<!-- Node27 -->
<g id="node27" class="node">
<title>Node27</title>
<g id="a_node27"><a xlink:href="api_2spec_2event__vector__types_8h.html" target="_top" xlink:title="ODP event vector API type definitions.">
<polygon fill="white" stroke="black" points="1050.5,-313.5 1050.5,-343.5 1159.5,-343.5 1159.5,-313.5 1050.5,-313.5"/>
<text text-anchor="start" x="1058.5" y="-331.5" font-family="Helvetica,sans-Serif" font-size="10.00">odp/api/spec/event</text>
<text text-anchor="middle" x="1105" y="-320.5" font-family="Helvetica,sans-Serif" font-size="10.00">_vector_types.h</text>
</a>
</g>
</g>
<!-- Node24&#45;&gt;Node27 -->
<g id="edge35" class="edge">
<title>Node24&#45;&gt;Node27</title>
<path fill="none" stroke="midnightblue" d="M994.59,-380.4C1015.29,-370.86 1042.82,-358.16 1065.22,-347.84"/>
<polygon fill="midnightblue" stroke="midnightblue" points="1066.85,-350.94 1074.46,-343.58 1063.92,-344.58 1066.85,-350.94"/>
</g>
<!-- Node27&#45;&gt;Node2 -->
<g id="edge36" class="edge">
<title>Node27&#45;&gt;Node2</title>
<path fill="none" stroke="midnightblue" d="M1128.87,-313.35C1161.22,-292.16 1215,-248.9 1215,-195.5 1215,-195.5 1215,-195.5 1215,-132 1215,-95.71 1215,-53.31 1215,-29.56"/>
<polygon fill="midnightblue" stroke="midnightblue" points="1218.5,-29.51 1215,-19.51 1211.5,-29.51 1218.5,-29.51"/>
</g>
<!-- Node27&#45;&gt;Node3 -->
<g id="edge37" class="edge">
<title>Node27&#45;&gt;Node3</title>
<path fill="none" stroke="midnightblue" d="M1159.77,-318.67C1234.12,-306.67 1366.69,-285.29 1445.05,-272.65"/>
<polygon fill="midnightblue" stroke="midnightblue" points="1445.96,-276.05 1455.27,-271 1444.84,-269.14 1445.96,-276.05"/>
</g>
<!-- Node27&#45;&gt;Node6 -->
<g id="edge44" class="edge">
<title>Node27&#45;&gt;Node6</title>
<path fill="none" stroke="midnightblue" d="M1050.37,-314.92C1047.54,-314.27 1044.74,-313.63 1042,-313 991.79,-301.5 634.15,-236.53 590,-210 569.59,-197.74 468.28,-73.38 431.43,-27.71"/>
<polygon fill="midnightblue" stroke="midnightblue" points="434.15,-25.5 425.15,-19.91 428.69,-29.89 434.15,-25.5"/>
</g>
<!-- Node27&#45;&gt;Node14 -->
<g id="edge43" class="edge">
<title>Node27&#45;&gt;Node14</title>
<path fill="none" stroke="midnightblue" d="M1099.79,-313.4C1096.27,-303.86 1091.59,-291.18 1087.78,-280.86"/>
<polygon fill="midnightblue" stroke="midnightblue" points="1090.96,-279.36 1084.21,-271.19 1084.39,-281.79 1090.96,-279.36"/>
</g>
<!-- Node27&#45;&gt;Node28 -->
<g id="edge38" class="edge">
<title>Node27&#45;&gt;Node28</title>
<path fill="none" stroke="midnightblue" d="M1050.43,-314.59C1047.59,-314.02 1044.76,-313.49 1042,-313 926.09,-292.4 789.82,-277.07 709.98,-268.98"/>
<polygon fill="midnightblue" stroke="midnightblue" points="709.87,-265.45 699.57,-267.93 709.17,-272.41 709.87,-265.45"/>
</g>
<!-- Node29 -->
<g id="node29" class="node">
<title>Node29</title>
<g id="a_node29"><a xlink:href="spec_2queue__stats__types_8h.html" target="_top" xlink:title="ODP queue statistics types.">
<polygon fill="white" stroke="black" points="598.5,-179.5 598.5,-209.5 709.5,-209.5 709.5,-179.5 598.5,-179.5"/>
<text text-anchor="start" x="606.5" y="-197.5" font-family="Helvetica,sans-Serif" font-size="10.00">odp/api/spec/queue</text>
<text text-anchor="middle" x="654" y="-186.5" font-family="Helvetica,sans-Serif" font-size="10.00">_stats_types.h</text>
</a>
</g>
</g>
<!-- Node28&#45;&gt;Node29 -->
<g id="edge39" class="edge">
<title>Node28&#45;&gt;Node29</title>
<path fill="none" stroke="midnightblue" d="M644.6,-246.4C646.05,-238.56 647.89,-228.6 649.56,-219.57"/>
<polygon fill="midnightblue" stroke="midnightblue" points="653.03,-220.05 651.4,-209.58 646.14,-218.77 653.03,-220.05"/>
</g>
<!-- Node29&#45;&gt;Node2 -->
<g id="edge40" class="edge">
<title>Node29&#45;&gt;Node2</title>
<path fill="none" stroke="midnightblue" d="M709.6,-184.54C766.37,-174.77 850.15,-158.46 879,-143 928.32,-116.57 920.17,-81.46 970,-56 1024.31,-28.25 1093.14,-17.42 1144.01,-13.29"/>
<polygon fill="midnightblue" stroke="midnightblue" points="1144.54,-16.76 1154.25,-12.53 1144.02,-9.78 1144.54,-16.76"/>
</g>
<!-- Node29&#45;&gt;Node6 -->
<g id="edge42" class="edge">
<title>Node29&#45;&gt;Node6</title>
<path fill="none" stroke="midnightblue" d="M644.04,-179.18C637.25,-169.21 628.23,-155.52 621,-143 599.34,-105.47 610.44,-83.55 577,-56 550.93,-34.52 515.2,-23.28 484.21,-17.4"/>
<polygon fill="midnightblue" stroke="midnightblue" points="484.79,-13.95 474.34,-15.68 483.59,-20.84 484.79,-13.95"/>
</g>
<!-- Node29&#45;&gt;Node17 -->
<g id="edge41" class="edge">
<title>Node29&#45;&gt;Node17</title>
<path fill="none" stroke="midnightblue" d="M654.47,-179.4C654.74,-171.47 655.08,-161.46 655.37,-152.86"/>
<polygon fill="midnightblue" stroke="midnightblue" points="658.87,-152.77 655.71,-142.66 651.87,-152.53 658.87,-152.77"/>
</g>
<!-- Node31 -->
<g id="node31" class="node">
<title>Node31</title>
<g id="a_node31"><a xlink:title=" ">
<polygon fill="white" stroke="#bfbfbf" points="577.5,-447.5 577.5,-477.5 694.5,-477.5 694.5,-447.5 577.5,-447.5"/>
<text text-anchor="start" x="585.5" y="-465.5" font-family="Helvetica,sans-Serif" font-size="10.00">odp/api/abi/schedule</text>
<text text-anchor="middle" x="636" y="-454.5" font-family="Helvetica,sans-Serif" font-size="10.00">_types.h</text>
</a>
</g>
</g>
<!-- Node30&#45;&gt;Node31 -->
<g id="edge47" class="edge">
<title>Node30&#45;&gt;Node31</title>
<path fill="none" stroke="midnightblue" d="M637.71,-514.48C637.48,-507.47 637.13,-497.19 636.81,-487.7"/>
<polygon fill="midnightblue" stroke="midnightblue" points="640.31,-487.4 636.47,-477.52 633.31,-487.63 640.31,-487.4"/>
</g>
<!-- Node32 -->
<g id="node32" class="node">
<title>Node32</title>
<g id="a_node32"><a xlink:href="api_2spec_2schedule__types_8h.html" target="_top" xlink:title="ODP schedule types.">
<polygon fill="white" stroke="black" points="712.5,-447.5 712.5,-477.5 837.5,-477.5 837.5,-447.5 712.5,-447.5"/>
<text text-anchor="start" x="720.5" y="-465.5" font-family="Helvetica,sans-Serif" font-size="10.00">odp/api/spec/schedule</text>
<text text-anchor="middle" x="775" y="-454.5" font-family="Helvetica,sans-Serif" font-size="10.00">_types.h</text>
</a>
</g>
</g>
<!-- Node30&#45;&gt;Node32 -->
<g id="edge48" class="edge">
<title>Node30&#45;&gt;Node32</title>
<path fill="none" stroke="midnightblue" d="M657.63,-514.48C677.31,-505.93 708.22,-492.5 733.39,-481.57"/>
<polygon fill="midnightblue" stroke="midnightblue" points="734.93,-484.72 742.71,-477.52 732.15,-478.3 734.93,-484.72"/>
</g>
<!-- Node32&#45;&gt;Node2 -->
<g id="edge49" class="edge">
<title>Node32&#45;&gt;Node2</title>
<path fill="none" stroke="midnightblue" d="M837.69,-458.62C975.03,-450.85 1295.42,-424.33 1361,-344 1446.44,-239.35 1286.99,-76.95 1232.39,-26.49"/>
<polygon fill="midnightblue" stroke="midnightblue" points="1234.6,-23.77 1224.86,-19.63 1229.89,-28.95 1234.6,-23.77"/>
</g>
<!-- Node32&#45;&gt;Node6 -->
<g id="edge59" class="edge">
<title>Node32&#45;&gt;Node6</title>
<path fill="none" stroke="midnightblue" d="M719.85,-447.46C681.41,-437.56 628.98,-423.83 583,-411 471.65,-379.93 336,-445.1 336,-329.5 336,-329.5 336,-329.5 336,-132 336,-87.51 374.46,-47.2 398.7,-26.22"/>
<polygon fill="midnightblue" stroke="midnightblue" points="401.17,-28.72 406.6,-19.63 396.68,-23.35 401.17,-28.72"/>
</g>
<!-- Node32&#45;&gt;Node14 -->
<g id="edge52" class="edge">
<title>Node32&#45;&gt;Node14</title>
<path fill="none" stroke="midnightblue" d="M795.36,-447.48C807.87,-438.17 823.62,-425.09 835,-411 865.98,-372.64 848.32,-343.57 887,-313 923.25,-284.35 974.07,-271.84 1014.6,-266.42"/>
<polygon fill="midnightblue" stroke="midnightblue" points="1015.17,-269.88 1024.67,-265.2 1014.32,-262.93 1015.17,-269.88"/>
</g>
<!-- Node32&#45;&gt;Node24 -->
<g id="edge50" class="edge">
<title>Node32&#45;&gt;Node24</title>
<path fill="none" stroke="midnightblue" d="M816.01,-447.4C844.62,-437.56 882.97,-424.37 913.47,-413.88"/>
<polygon fill="midnightblue" stroke="midnightblue" points="914.75,-417.14 923.07,-410.58 912.48,-410.52 914.75,-417.14"/>
</g>
<!-- Node32&#45;&gt;Node28 -->
<g id="edge51" class="edge">
<title>Node32&#45;&gt;Node28</title>
<path fill="none" stroke="midnightblue" d="M715.44,-447.48C663.67,-431.79 591.82,-400.77 558,-344 550.95,-332.16 551.22,-324.99 558,-313 565.77,-299.27 578.92,-288.86 592.54,-281.17"/>
<polygon fill="midnightblue" stroke="midnightblue" points="594.26,-284.22 601.51,-276.5 591.03,-278.02 594.26,-284.22"/>
</g>
<!-- Node33 -->
<g id="node33" class="node">
<title>Node33</title>
<g id="a_node33"><a xlink:href="api_2thrmask_8h.html" target="_top" xlink:title="ODP thread masks.">
<polygon fill="white" stroke="black" points="720.5,-386 720.5,-405 825.5,-405 825.5,-386 720.5,-386"/>
<text text-anchor="middle" x="773" y="-393" font-family="Helvetica,sans-Serif" font-size="10.00">odp/api/thrmask.h</text>
</a>
</g>
</g>
<!-- Node32&#45;&gt;Node33 -->
<g id="edge53" class="edge">
<title>Node32&#45;&gt;Node33</title>
<path fill="none" stroke="midnightblue" d="M774.57,-447.4C774.28,-438.06 773.9,-425.71 773.59,-415.52"/>
<polygon fill="midnightblue" stroke="midnightblue" points="777.07,-415.08 773.27,-405.19 770.08,-415.3 777.07,-415.08"/>
</g>
<!-- Node34 -->
<g id="node34" class="node">
<title>Node34</title>
<g id="a_node34"><a xlink:title=" ">
<polygon fill="white" stroke="#bfbfbf" points="566.5,-319 566.5,-338 689.5,-338 689.5,-319 566.5,-319"/>
<text text-anchor="middle" x="628" y="-326" font-family="Helvetica,sans-Serif" font-size="10.00">odp/api/abi/thrmask.h</text>
</a>
</g>
</g>
<!-- Node33&#45;&gt;Node34 -->
<g id="edge54" class="edge">
<title>Node33&#45;&gt;Node34</title>
<path fill="none" stroke="midnightblue" d="M753.75,-385.87C728.83,-374.7 685.21,-355.15 656.47,-342.26"/>
<polygon fill="midnightblue" stroke="midnightblue" points="657.89,-339.06 647.33,-338.17 655.03,-345.45 657.89,-339.06"/>
</g>
<!-- Node35 -->
<g id="node35" class="node">
<title>Node35</title>
<g id="a_node35"><a xlink:href="api_2spec_2thrmask_8h.html" target="_top" xlink:title="ODP thread masks.">
<polygon fill="white" stroke="black" points="707.5,-319 707.5,-338 838.5,-338 838.5,-319 707.5,-319"/>
<text text-anchor="middle" x="773" y="-326" font-family="Helvetica,sans-Serif" font-size="10.00">odp/api/spec/thrmask.h</text>
</a>
</g>
</g>
<!-- Node33&#45;&gt;Node35 -->
<g id="edge55" class="edge">
<title>Node33&#45;&gt;Node35</title>
<path fill="none" stroke="midnightblue" d="M773,-385.73C773,-376.18 773,-360.62 773,-348.28"/>
<polygon fill="midnightblue" stroke="midnightblue" points="776.5,-348.13 773,-338.13 769.5,-348.13 776.5,-348.13"/>
</g>
<!-- Node35&#45;&gt;Node2 -->
<g id="edge56" class="edge">
<title>Node35&#45;&gt;Node2</title>
<path fill="none" stroke="midnightblue" d="M786.4,-318.88C822.11,-295.92 922.63,-231.47 1007,-179 1073.73,-137.5 1099.82,-139.83 1158,-87 1177.19,-69.58 1194.3,-44.9 1204.65,-28.45"/>
<polygon fill="midnightblue" stroke="midnightblue" points="1207.69,-30.18 1209.93,-19.83 1201.72,-26.53 1207.69,-30.18"/>
</g>
<!-- Node35&#45;&gt;Node6 -->
<g id="edge58" class="edge">
<title>Node35&#45;&gt;Node6</title>
<path fill="none" stroke="midnightblue" d="M732.78,-318.92C678.9,-307.15 588.58,-286.42 576,-277 487.06,-210.38 438.68,-77.71 423.39,-29.26"/>
<polygon fill="midnightblue" stroke="midnightblue" points="426.69,-28.08 420.42,-19.54 420,-30.13 426.69,-28.08"/>
</g>
<!-- Node35&#45;&gt;Node14 -->
<g id="edge57" class="edge">
<title>Node35&#45;&gt;Node14</title>
<path fill="none" stroke="midnightblue" d="M813.58,-318.94C869.33,-307.17 969.56,-286.02 1030.21,-273.22"/>
<polygon fill="midnightblue" stroke="midnightblue" points="1031.27,-276.57 1040.33,-271.08 1029.82,-269.72 1031.27,-276.57"/>
</g>
<!-- Node36&#45;&gt;Node26 -->
<g id="edge65" class="edge">
<title>Node36&#45;&gt;Node26</title>
<path fill="none" stroke="midnightblue" d="M1478.38,-872.41C1531.89,-860.17 1608,-832.04 1608,-771 1608,-771 1608,-771 1608,-646 1608,-483.49 1396.85,-377.1 1315.47,-342.13"/>
<polygon fill="midnightblue" stroke="midnightblue" points="1316.34,-338.7 1305.76,-338.03 1313.61,-345.15 1316.34,-338.7"/>
</g>
<!-- Node37 -->
<g id="node37" class="node">
<title>Node37</title>
<g id="a_node37"><a xlink:href="api_2spec_2pool__types_8h.html" target="_top" xlink:title="Type definitions for pools.">
<polygon fill="white" stroke="black" points="1355.5,-816.5 1355.5,-835.5 1498.5,-835.5 1498.5,-816.5 1355.5,-816.5"/>
<text text-anchor="middle" x="1427" y="-823.5" font-family="Helvetica,sans-Serif" font-size="10.00">odp/api/spec/pool_types.h</text>
</a>
</g>
</g>
<!-- Node36&#45;&gt;Node37 -->
<g id="edge66" class="edge">
<title>Node36&#45;&gt;Node37</title>
<path fill="none" stroke="midnightblue" d="M1427,-872.08C1427,-865.01 1427,-854.86 1427,-845.99"/>
<polygon fill="midnightblue" stroke="midnightblue" points="1430.5,-845.75 1427,-835.75 1423.5,-845.75 1430.5,-845.75"/>
</g>
<!-- Node37&#45;&gt;Node2 -->
<g id="edge67" class="edge">
<title>Node37&#45;&gt;Node2</title>
<path fill="none" stroke="midnightblue" d="M1456.54,-816.48C1516.31,-797.21 1646,-744.31 1646,-648 1646,-648 1646,-648 1646,-523 1646,-435.36 1684,-417.14 1684,-329.5 1684,-329.5 1684,-329.5 1684,-132 1684,-77.93 1638.86,-76.92 1589,-56 1535.89,-33.72 1378.8,-20.79 1285.96,-14.9"/>
<polygon fill="midnightblue" stroke="midnightblue" points="1286,-11.39 1275.8,-14.27 1285.57,-18.38 1286,-11.39"/>
</g>
<!-- Node37&#45;&gt;Node6 -->
<g id="edge80" class="edge">
<title>Node37&#45;&gt;Node6</title>
<path fill="none" stroke="midnightblue" d="M1355.21,-824C1138.93,-820.12 496.75,-802.16 305,-724 284.82,-715.77 286.08,-703.53 267,-693 181.91,-646.03 76,-683.69 76,-586.5 76,-586.5 76,-586.5 76,-132 76,-83.28 111.51,-77.97 155,-56 216.99,-24.69 296.57,-14.62 351.88,-11.65"/>
<polygon fill="midnightblue" stroke="midnightblue" points="352.09,-15.14 361.91,-11.17 351.76,-8.15 352.09,-15.14"/>
</g>
<!-- Node37&#45;&gt;Node14 -->
<g id="edge68" class="edge">
<title>Node37&#45;&gt;Node14</title>
<path fill="none" stroke="midnightblue" d="M1404.71,-816.42C1372.35,-802.6 1313.66,-771.97 1290,-724 1283.91,-711.64 1287.44,-706.54 1290,-693 1310.35,-585.34 1380,-573.06 1380,-463.5 1380,-463.5 1380,-463.5 1380,-394.5 1380,-357.31 1387.96,-338.63 1361,-313 1330.95,-284.44 1219.93,-271.62 1147.04,-266.18"/>
<polygon fill="midnightblue" stroke="midnightblue" points="1147.24,-262.69 1137.02,-265.46 1146.74,-269.67 1147.24,-262.69"/>
</g>
<!-- Node38 -->
<g id="node38" class="node">
<title>Node38</title>
<g id="a_node38"><a xlink:href="api_2dma__types_8h.html" target="_top" xlink:title="ODP DMA.">
<polygon fill="white" stroke="black" points="1712.5,-760.5 1712.5,-779.5 1831.5,-779.5 1831.5,-760.5 1712.5,-760.5"/>
<text text-anchor="middle" x="1772" y="-767.5" font-family="Helvetica,sans-Serif" font-size="10.00">odp/api/dma_types.h</text>
</a>
</g>
</g>
<!-- Node37&#45;&gt;Node38 -->
<g id="edge69" class="edge">
<title>Node37&#45;&gt;Node38</title>
<path fill="none" stroke="midnightblue" d="M1481.67,-816.44C1542.99,-806.85 1642.36,-791.29 1707.45,-781.1"/>
<polygon fill="midnightblue" stroke="midnightblue" points="1708.25,-784.52 1717.59,-779.52 1707.17,-777.61 1708.25,-784.52"/>
</g>
<!-- Node40 -->
<g id="node40" class="node">
<title>Node40</title>
<g id="a_node40"><a xlink:href="api_2ml__types_8h.html" target="_top" xlink:title="ODP Machine Learning (ML) types.">
<polygon fill="white" stroke="black" points="1372,-760.5 1372,-779.5 1482,-779.5 1482,-760.5 1372,-760.5"/>
<text text-anchor="middle" x="1427" y="-767.5" font-family="Helvetica,sans-Serif" font-size="10.00">odp/api/ml_types.h</text>
</a>
</g>
</g>
<!-- Node37&#45;&gt;Node40 -->
<g id="edge72" class="edge">
<title>Node37&#45;&gt;Node40</title>
<path fill="none" stroke="midnightblue" d="M1427,-816.08C1427,-809.01 1427,-798.86 1427,-789.99"/>
<polygon fill="midnightblue" stroke="midnightblue" points="1430.5,-789.75 1427,-779.75 1423.5,-789.75 1430.5,-789.75"/>
</g>
<!-- Node38&#45;&gt;Node1 -->
<g id="edge71" class="edge">
<title>Node38&#45;&gt;Node1</title>
<path fill="none" stroke="midnightblue" d="M1769.59,-779.53C1762.7,-802.18 1740.61,-864.03 1698,-892 1654.63,-920.47 1506.91,-931.29 1428.25,-935.1"/>
<polygon fill="midnightblue" stroke="midnightblue" points="1427.91,-931.61 1418.08,-935.58 1428.24,-938.61 1427.91,-931.61"/>
</g>
<!-- Node39 -->
<g id="node39" class="node">
<title>Node39</title>
<g id="a_node39"><a xlink:title=" ">
<polygon fill="white" stroke="#bfbfbf" points="1712.5,-699 1712.5,-718 1849.5,-718 1849.5,-699 1712.5,-699"/>
<text text-anchor="middle" x="1781" y="-706" font-family="Helvetica,sans-Serif" font-size="10.00">odp/api/abi/dma_types.h</text>
</a>
</g>
</g>
<!-- Node38&#45;&gt;Node39 -->
<g id="edge70" class="edge">
<title>Node38&#45;&gt;Node39</title>
<path fill="none" stroke="midnightblue" d="M1773.29,-760.48C1774.56,-752.08 1776.54,-738.98 1778.18,-728.16"/>
<polygon fill="midnightblue" stroke="midnightblue" points="1781.68,-728.42 1779.71,-718.01 1774.76,-727.37 1781.68,-728.42"/>
</g>
<!-- Node41 -->
<g id="node41" class="node">
<title>Node41</title>
<g id="a_node41"><a xlink:title=" ">
<polygon fill="white" stroke="#bfbfbf" points="1452,-699 1452,-718 1580,-718 1580,-699 1452,-699"/>
<text text-anchor="middle" x="1516" y="-706" font-family="Helvetica,sans-Serif" font-size="10.00">odp/api/abi/ml_types.h</text>
</a>
</g>
</g>
<!-- Node40&#45;&gt;Node41 -->
<g id="edge73" class="edge">
<title>Node40&#45;&gt;Node41</title>
<path fill="none" stroke="midnightblue" d="M1439.75,-760.48C1454.03,-750.93 1477.4,-735.31 1494.51,-723.87"/>
<polygon fill="midnightblue" stroke="midnightblue" points="1496.9,-726.48 1503.27,-718.01 1493.01,-720.66 1496.9,-726.48"/>
</g>
<!-- Node42 -->
<g id="node42" class="node">
<title>Node42</title>
<g id="a_node42"><a xlink:href="api_2spec_2ml__types_8h.html" target="_top" xlink:title="ODP Machine Learning (ML) types.">
<polygon fill="white" stroke="black" points="1298.5,-699 1298.5,-718 1433.5,-718 1433.5,-699 1298.5,-699"/>
<text text-anchor="middle" x="1366" y="-706" font-family="Helvetica,sans-Serif" font-size="10.00">odp/api/spec/ml_types.h</text>
</a>
</g>
</g>
<!-- Node40&#45;&gt;Node42 -->
<g id="edge74" class="edge">
<title>Node40&#45;&gt;Node42</title>
<path fill="none" stroke="midnightblue" d="M1418.26,-760.48C1408.84,-751.28 1393.64,-736.46 1382.05,-725.16"/>
<polygon fill="midnightblue" stroke="midnightblue" points="1384.33,-722.49 1374.72,-718.01 1379.44,-727.5 1384.33,-722.49"/>
</g>
<!-- Node42&#45;&gt;Node2 -->
<g id="edge75" class="edge">
<title>Node42&#45;&gt;Node2</title>
<path fill="none" stroke="midnightblue" d="M1400.51,-698.96C1438.8,-688.94 1497.49,-671.83 1515,-657 1549.55,-627.73 1646,-430.76 1646,-329.5 1646,-329.5 1646,-329.5 1646,-132 1646,-58.11 1408.2,-27.23 1285.87,-16.23"/>
<polygon fill="midnightblue" stroke="midnightblue" points="1286.11,-12.74 1275.84,-15.35 1285.49,-19.71 1286.11,-12.74"/>
</g>
<!-- Node42&#45;&gt;Node3 -->
<g id="edge76" class="edge">
<title>Node42&#45;&gt;Node3</title>
<path fill="none" stroke="midnightblue" d="M1400.8,-698.93C1449.48,-684.62 1532,-650.87 1532,-586.5 1532,-586.5 1532,-586.5 1532,-394.5 1532,-353.31 1520.55,-306.04 1513.47,-280.75"/>
<polygon fill="midnightblue" stroke="midnightblue" points="1516.8,-279.68 1510.66,-271.05 1510.08,-281.63 1516.8,-279.68"/>
</g>
<!-- Node42&#45;&gt;Node6 -->
<g id="edge79" class="edge">
<title>Node42&#45;&gt;Node6</title>
<path fill="none" stroke="midnightblue" d="M1298.48,-703.29C1131.57,-692.1 703.68,-658.52 574,-601 566.52,-597.68 354.36,-417.18 349,-411 321.01,-378.72 298,-372.23 298,-329.5 298,-329.5 298,-329.5 298,-132 298,-80.13 354.29,-42.55 389.76,-24.02"/>
<polygon fill="midnightblue" stroke="midnightblue" points="391.36,-27.13 398.72,-19.51 388.21,-20.88 391.36,-27.13"/>
</g>
<!-- Node42&#45;&gt;Node14 -->
<g id="edge78" class="edge">
<title>Node42&#45;&gt;Node14</title>
<path fill="none" stroke="midnightblue" d="M1378.89,-698.86C1403.78,-681.04 1456,-637.55 1456,-586.5 1456,-586.5 1456,-586.5 1456,-461.5 1456,-389.98 1450.17,-357.28 1394,-313 1356.69,-283.59 1227.39,-270.88 1147.11,-265.72"/>
<polygon fill="midnightblue" stroke="midnightblue" points="1147.29,-262.23 1137.09,-265.1 1146.86,-269.21 1147.29,-262.23"/>
</g>
<!-- Node42&#45;&gt;Node21 -->
<g id="edge77" class="edge">
<title>Node42&#45;&gt;Node21</title>
<path fill="none" stroke="midnightblue" d="M1298.35,-703.08C1131.65,-692.18 702.22,-664.1 529.53,-652.81"/>
<polygon fill="midnightblue" stroke="midnightblue" points="529.73,-649.31 519.52,-652.15 529.27,-656.3 529.73,-649.31"/>
</g>
</g>
</svg>
