<?xml version="1.0" encoding="UTF-8" standalone="no"?>
<!DOCTYPE svg PUBLIC "-//W3C//DTD SVG 1.1//EN"
 "http://www.w3.org/Graphics/SVG/1.1/DTD/svg11.dtd">
<!-- Generated by graphviz version 2.43.0 (0)
 -->
<!-- Title: schedule.h Pages: 1 -->
<svg width="1223pt" height="764pt"
 viewBox="0.00 0.00 1223.00 764.00" xmlns="http://www.w3.org/2000/svg" xmlns:xlink="http://www.w3.org/1999/xlink">
<g id="graph0" class="graph" transform="scale(1 1) rotate(0) translate(4 760)">
<title>schedule.h</title>
<!-- Node1 -->
<g id="Node000001" class="node">
<title>Node1</title>
<g id="a_Node000001"><a xlink:title="ODP schedule.">
<polygon fill="#999999" stroke="#666666" points="358.5,-756 289.5,-756 289.5,-737 358.5,-737 358.5,-756"/>
<text text-anchor="middle" x="324" y="-744" font-family="Helvetica,sans-Serif" font-size="10.00">schedule.h</text>
</a>
</g>
</g>
<!-- Node2 -->
<g id="Node000002" class="node">
<title>Node2</title>
<g id="a_Node000002"><a xlink:title=" ">
<polygon fill="#e0e0e0" stroke="#999999" points="313,-701 187,-701 187,-682 313,-682 313,-701"/>
<text text-anchor="middle" x="250" y="-689" font-family="Helvetica,sans-Serif" font-size="10.00">odp/api/abi/schedule.h</text>
</a>
</g>
</g>
<!-- Node1&#45;&gt;Node2 -->
<g id="edge1_Node000001_Node000002" class="edge">
<title>Node1&#45;&gt;Node2</title>
<g id="a_edge1_Node000001_Node000002"><a xlink:title=" ">
<path fill="none" stroke="#63b8ff" d="M312.11,-736.98C300.85,-728.92 283.71,-716.65 270.29,-707.03"/>
<polygon fill="#63b8ff" stroke="#63b8ff" points="272.27,-704.15 262.11,-701.17 268.2,-709.84 272.27,-704.15"/>
</a>
</g>
</g>
<!-- Node3 -->
<g id="Node000003" class="node">
<title>Node3</title>
<g id="a_Node000003"><a xlink:href="api_2spec_2schedule_8h.html" target="_top" xlink:title="ODP schedule.">
<polygon fill="white" stroke="#666666" points="465,-701 331,-701 331,-682 465,-682 465,-701"/>
<text text-anchor="middle" x="398" y="-689" font-family="Helvetica,sans-Serif" font-size="10.00">odp/api/spec/schedule.h</text>
</a>
</g>
</g>
<!-- Node1&#45;&gt;Node3 -->
<g id="edge2_Node000001_Node000003" class="edge">
<title>Node1&#45;&gt;Node3</title>
<g id="a_edge2_Node000001_Node000003"><a xlink:title=" ">
<path fill="none" stroke="#63b8ff" d="M335.89,-736.98C347.15,-728.92 364.29,-716.65 377.71,-707.03"/>
<polygon fill="#63b8ff" stroke="#63b8ff" points="379.8,-709.84 385.89,-701.17 375.73,-704.15 379.8,-709.84"/>
</a>
</g>
</g>
<!-- Node4 -->
<g id="Node000004" class="node">
<title>Node4</title>
<g id="a_Node000004"><a xlink:href="visibility__begin_8h_source.html" target="_top" xlink:title=" ">
<polygon fill="white" stroke="#666666" points="374.5,-19 253.5,-19 253.5,0 374.5,0 374.5,-19"/>
<text text-anchor="middle" x="314" y="-7" font-family="Helvetica,sans-Serif" font-size="10.00">odp/visibility_begin.h</text>
</a>
</g>
</g>
<!-- Node3&#45;&gt;Node4 -->
<g id="edge3_Node000003_Node000004" class="edge">
<title>Node3&#45;&gt;Node4</title>
<g id="a_edge3_Node000003_Node000004"><a xlink:title=" ">
<path fill="none" stroke="#63b8ff" d="M337.14,-681.99C273.03,-672.67 176.54,-657.51 141,-646 74.63,-624.5 0,-646.77 0,-577 0,-577 0,-577 0,-129.5 0,-89.87 15.8,-76.64 49,-55 80.22,-34.65 175.72,-22.36 243.09,-16.01"/>
<polygon fill="#63b8ff" stroke="#63b8ff" points="243.59,-19.47 253.22,-15.07 242.95,-12.5 243.59,-19.47"/>
</a>
</g>
</g>
<!-- Node5 -->
<g id="Node000005" class="node">
<title>Node5</title>
<g id="a_Node000005"><a xlink:href="api_2std__types_8h.html" target="_top" xlink:title="Standard C language types and definitions for ODP.">
<polygon fill="white" stroke="#666666" points="875,-266.5 763,-266.5 763,-247.5 875,-247.5 875,-266.5"/>
<text text-anchor="middle" x="819" y="-254.5" font-family="Helvetica,sans-Serif" font-size="10.00">odp/api/std_types.h</text>
</a>
</g>
</g>
<!-- Node3&#45;&gt;Node5 -->
<g id="edge4_Node000003_Node000005" class="edge">
<title>Node3&#45;&gt;Node5</title>
<g id="a_edge4_Node000003_Node000005"><a xlink:title=" ">
<path fill="none" stroke="#63b8ff" d="M465.07,-687.23C647.47,-677.46 1139,-644.84 1139,-577 1139,-577 1139,-577 1139,-388 1139,-351.35 1145.93,-332.86 1119,-308 1085.86,-277.41 963.36,-265.38 885.52,-260.76"/>
<polygon fill="#63b8ff" stroke="#63b8ff" points="885.5,-257.26 875.32,-260.18 885.1,-264.24 885.5,-257.26"/>
</a>
</g>
</g>
<!-- Node12 -->
<g id="Node000012" class="node">
<title>Node12</title>
<g id="a_Node000012"><a xlink:href="visibility__end_8h_source.html" target="_top" xlink:title=" ">
<polygon fill="white" stroke="#666666" points="946,-19 834,-19 834,0 946,0 946,-19"/>
<text text-anchor="middle" x="890" y="-7" font-family="Helvetica,sans-Serif" font-size="10.00">odp/visibility_end.h</text>
</a>
</g>
</g>
<!-- Node3&#45;&gt;Node12 -->
<g id="edge55_Node000003_Node000012" class="edge">
<title>Node3&#45;&gt;Node12</title>
<g id="a_edge55_Node000003_Node000012"><a xlink:title=" ">
<path fill="none" stroke="#63b8ff" d="M465.21,-688.2C660.64,-680.63 1215,-652.49 1215,-577 1215,-577 1215,-577 1215,-129.5 1215,-89.87 1199.27,-76.53 1166,-55 1132.26,-33.16 1026.67,-20.96 956.31,-15.06"/>
<polygon fill="#63b8ff" stroke="#63b8ff" points="956.45,-11.56 946.2,-14.23 955.88,-18.54 956.45,-11.56"/>
</a>
</g>
</g>
<!-- Node13 -->
<g id="Node000013" class="node">
<title>Node13</title>
<g id="a_Node000013"><a xlink:href="api_2event__types_8h.html" target="_top" xlink:title="ODP event API type definitions.">
<polygon fill="white" stroke="#666666" points="229.5,-266.5 104.5,-266.5 104.5,-247.5 229.5,-247.5 229.5,-266.5"/>
<text text-anchor="middle" x="167" y="-254.5" font-family="Helvetica,sans-Serif" font-size="10.00">odp/api/event_types.h</text>
</a>
</g>
</g>
<!-- Node3&#45;&gt;Node13 -->
<g id="edge15_Node000003_Node000013" class="edge">
<title>Node3&#45;&gt;Node13</title>
<g id="a_edge15_Node000003_Node000013"><a xlink:title=" ">
<path fill="none" stroke="#63b8ff" d="M357.05,-681.97C262.7,-661.76 38,-610.13 38,-577 38,-577 38,-577 38,-514.5 38,-413.94 118.11,-312.58 152.07,-274.13"/>
<polygon fill="#63b8ff" stroke="#63b8ff" points="154.84,-276.29 158.93,-266.51 149.64,-271.6 154.84,-276.29"/>
</a>
</g>
</g>
<!-- Node16 -->
<g id="Node000016" class="node">
<title>Node16</title>
<g id="a_Node000016"><a xlink:href="api_2queue__types_8h.html" target="_top" xlink:title="ODP queue.">
<polygon fill="white" stroke="#666666" points="461.5,-646 334.5,-646 334.5,-627 461.5,-627 461.5,-646"/>
<text text-anchor="middle" x="398" y="-634" font-family="Helvetica,sans-Serif" font-size="10.00">odp/api/queue_types.h</text>
</a>
</g>
</g>
<!-- Node3&#45;&gt;Node16 -->
<g id="edge20_Node000003_Node000016" class="edge">
<title>Node3&#45;&gt;Node16</title>
<g id="a_edge20_Node000003_Node000016"><a xlink:title=" ">
<path fill="none" stroke="#63b8ff" d="M398,-681.75C398,-674.8 398,-664.85 398,-656.13"/>
<polygon fill="#63b8ff" stroke="#63b8ff" points="401.5,-656.09 398,-646.09 394.5,-656.09 401.5,-656.09"/>
</a>
</g>
</g>
<!-- Node25 -->
<g id="Node000025" class="node">
<title>Node25</title>
<g id="a_Node000025"><a xlink:href="api_2schedule__types_8h.html" target="_top" xlink:title="ODP schedule.">
<polygon fill="white" stroke="#666666" points="365,-525 225,-525 225,-506 365,-506 365,-525"/>
<text text-anchor="middle" x="295" y="-513" font-family="Helvetica,sans-Serif" font-size="10.00">odp/api/schedule_types.h</text>
</a>
</g>
</g>
<!-- Node3&#45;&gt;Node25 -->
<g id="edge53_Node000003_Node000025" class="edge">
<title>Node3&#45;&gt;Node25</title>
<g id="a_edge53_Node000003_Node000025"><a xlink:title=" ">
<path fill="none" stroke="#63b8ff" d="M374.46,-681.9C358.15,-674.74 337.25,-662.97 325,-646 300.76,-612.44 295.76,-562.33 294.94,-535.34"/>
<polygon fill="#63b8ff" stroke="#63b8ff" points="298.44,-535.25 294.8,-525.3 291.44,-535.35 298.44,-535.25"/>
</a>
</g>
</g>
<!-- Node28 -->
<g id="Node000028" class="node">
<title>Node28</title>
<g id="a_Node000028"><a xlink:href="api_2thrmask_8h.html" target="_top" xlink:title="ODP thread masks.">
<polygon fill="white" stroke="#666666" points="948.5,-398.5 843.5,-398.5 843.5,-379.5 948.5,-379.5 948.5,-398.5"/>
<text text-anchor="middle" x="896" y="-386.5" font-family="Helvetica,sans-Serif" font-size="10.00">odp/api/thrmask.h</text>
</a>
</g>
</g>
<!-- Node3&#45;&gt;Node28 -->
<g id="edge54_Node000003_Node000028" class="edge">
<title>Node3&#45;&gt;Node28</title>
<g id="a_edge54_Node000003_Node000028"><a xlink:title=" ">
<path fill="none" stroke="#63b8ff" d="M465.37,-683.87C572.57,-671.43 770,-639.96 770,-577 770,-577 770,-577 770,-514.5 770,-460.44 829.41,-421.92 866.64,-403.09"/>
<polygon fill="#63b8ff" stroke="#63b8ff" points="868.58,-406.04 876.03,-398.51 865.51,-399.74 868.58,-406.04"/>
</a>
</g>
</g>
<!-- Node6 -->
<g id="Node000006" class="node">
<title>Node6</title>
<g id="a_Node000006"><a xlink:title=" ">
<polygon fill="#e0e0e0" stroke="#999999" points="894,-200.5 764,-200.5 764,-181.5 894,-181.5 894,-200.5"/>
<text text-anchor="middle" x="829" y="-188.5" font-family="Helvetica,sans-Serif" font-size="10.00">odp/api/abi/std_types.h</text>
</a>
</g>
</g>
<!-- Node5&#45;&gt;Node6 -->
<g id="edge5_Node000005_Node000006" class="edge">
<title>Node5&#45;&gt;Node6</title>
<g id="a_edge5_Node000005_Node000006"><a xlink:title=" ">
<path fill="none" stroke="#63b8ff" d="M820.35,-247.37C821.8,-238.07 824.16,-222.98 826.05,-210.9"/>
<polygon fill="#63b8ff" stroke="#63b8ff" points="829.52,-211.33 827.61,-200.91 822.61,-210.25 829.52,-211.33"/>
</a>
</g>
</g>
<!-- Node7 -->
<g id="Node000007" class="node">
<title>Node7</title>
<g id="a_Node000007"><a xlink:href="api_2spec_2std__types_8h.html" target="_top" xlink:title="Common types and definitions for ODP API files.">
<polygon fill="white" stroke="#666666" points="707.5,-200.5 570.5,-200.5 570.5,-181.5 707.5,-181.5 707.5,-200.5"/>
<text text-anchor="middle" x="639" y="-188.5" font-family="Helvetica,sans-Serif" font-size="10.00">odp/api/spec/std_types.h</text>
</a>
</g>
</g>
<!-- Node5&#45;&gt;Node7 -->
<g id="edge6_Node000005_Node000007" class="edge">
<title>Node5&#45;&gt;Node7</title>
<g id="a_edge6_Node000005_Node000007"><a xlink:title=" ">
<path fill="none" stroke="#63b8ff" d="M794.72,-247.37C763.23,-236.17 708.14,-216.58 672.64,-203.96"/>
<polygon fill="#63b8ff" stroke="#63b8ff" points="673.77,-200.65 663.18,-200.6 671.43,-207.24 673.77,-200.65"/>
</a>
</g>
</g>
<!-- Node7&#45;&gt;Node4 -->
<g id="edge7_Node000007_Node000004" class="edge">
<title>Node7&#45;&gt;Node4</title>
<g id="a_edge7_Node000007_Node000004"><a xlink:title=" ">
<path fill="none" stroke="#63b8ff" d="M631.08,-181.32C606.25,-154.28 529.67,-72.32 498,-55 463.36,-36.05 420.71,-25.09 385.19,-18.79"/>
<polygon fill="#63b8ff" stroke="#63b8ff" points="385.34,-15.26 374.9,-17.06 384.18,-22.17 385.34,-15.26"/>
</a>
</g>
</g>
<!-- Node8 -->
<g id="Node000008" class="node">
<title>Node8</title>
<g id="a_Node000008"><a xlink:title=" ">
<polygon fill="#e0e0e0" stroke="#999999" points="555.5,-140 502.5,-140 502.5,-121 555.5,-121 555.5,-140"/>
<text text-anchor="middle" x="529" y="-128" font-family="Helvetica,sans-Serif" font-size="10.00">stdint.h</text>
</a>
</g>
</g>
<!-- Node7&#45;&gt;Node8 -->
<g id="edge8_Node000007_Node000008" class="edge">
<title>Node7&#45;&gt;Node8</title>
<g id="a_edge8_Node000007_Node000008"><a xlink:title=" ">
<path fill="none" stroke="#63b8ff" d="M622.77,-181.37C604.73,-171.78 575.38,-156.17 554.32,-144.97"/>
<polygon fill="#63b8ff" stroke="#63b8ff" points="555.77,-141.77 545.3,-140.17 552.48,-147.95 555.77,-141.77"/>
</a>
</g>
</g>
<!-- Node9 -->
<g id="Node000009" class="node">
<title>Node9</title>
<g id="a_Node000009"><a xlink:href="api_2align_8h.html" target="_top" xlink:title="ODP alignments.">
<polygon fill="white" stroke="#666666" points="701.5,-140 612.5,-140 612.5,-121 701.5,-121 701.5,-140"/>
<text text-anchor="middle" x="657" y="-128" font-family="Helvetica,sans-Serif" font-size="10.00">odp/api/align.h</text>
</a>
</g>
</g>
<!-- Node7&#45;&gt;Node9 -->
<g id="edge9_Node000007_Node000009" class="edge">
<title>Node7&#45;&gt;Node9</title>
<g id="a_edge9_Node000007_Node000009"><a xlink:title=" ">
<path fill="none" stroke="#63b8ff" d="M641.66,-181.37C644.18,-173.16 648.06,-160.54 651.29,-150.05"/>
<polygon fill="#63b8ff" stroke="#63b8ff" points="654.74,-150.75 654.33,-140.17 648.05,-148.7 654.74,-150.75"/>
</a>
</g>
</g>
<!-- Node7&#45;&gt;Node12 -->
<g id="edge14_Node000007_Node000012" class="edge">
<title>Node7&#45;&gt;Node12</title>
<g id="a_edge14_Node000007_Node000012"><a xlink:title=" ">
<path fill="none" stroke="#63b8ff" d="M684.69,-181.43C737.11,-169.19 822,-141.62 870,-85 883.23,-69.4 887.79,-45.89 889.32,-29.47"/>
<polygon fill="#63b8ff" stroke="#63b8ff" points="892.82,-29.61 889.96,-19.41 885.83,-29.17 892.82,-29.61"/>
</a>
</g>
</g>
<!-- Node10 -->
<g id="Node000010" class="node">
<title>Node10</title>
<g id="a_Node000010"><a xlink:title=" ">
<polygon fill="#e0e0e0" stroke="#999999" points="861.5,-79.5 754.5,-79.5 754.5,-60.5 861.5,-60.5 861.5,-79.5"/>
<text text-anchor="middle" x="808" y="-67.5" font-family="Helvetica,sans-Serif" font-size="10.00">odp/api/abi/align.h</text>
</a>
</g>
</g>
<!-- Node9&#45;&gt;Node10 -->
<g id="edge10_Node000009_Node000010" class="edge">
<title>Node9&#45;&gt;Node10</title>
<g id="a_edge10_Node000009_Node000010"><a xlink:title=" ">
<path fill="none" stroke="#63b8ff" d="M678.96,-120.99C704.68,-111.03 747.48,-94.45 776.68,-83.13"/>
<polygon fill="#63b8ff" stroke="#63b8ff" points="777.96,-86.39 786.02,-79.52 775.43,-79.87 777.96,-86.39"/>
</a>
</g>
</g>
<!-- Node11 -->
<g id="Node000011" class="node">
<title>Node11</title>
<g id="a_Node000011"><a xlink:href="api_2spec_2align_8h.html" target="_top" xlink:title="ODP alignments.">
<polygon fill="white" stroke="#666666" points="660,-79.5 546,-79.5 546,-60.5 660,-60.5 660,-79.5"/>
<text text-anchor="middle" x="603" y="-67.5" font-family="Helvetica,sans-Serif" font-size="10.00">odp/api/spec/align.h</text>
</a>
</g>
</g>
<!-- Node9&#45;&gt;Node11 -->
<g id="edge11_Node000009_Node000011" class="edge">
<title>Node9&#45;&gt;Node11</title>
<g id="a_edge11_Node000009_Node000011"><a xlink:title=" ">
<path fill="none" stroke="#63b8ff" d="M649.03,-120.87C640.9,-112.05 628.07,-98.16 618.02,-87.27"/>
<polygon fill="#63b8ff" stroke="#63b8ff" points="620.36,-84.64 611,-79.67 615.21,-89.39 620.36,-84.64"/>
</a>
</g>
</g>
<!-- Node11&#45;&gt;Node4 -->
<g id="edge12_Node000011_Node000004" class="edge">
<title>Node11&#45;&gt;Node4</title>
<g id="a_edge12_Node000011_Node000004"><a xlink:title=" ">
<path fill="none" stroke="#63b8ff" d="M560.98,-60.49C509.4,-50.05 421.92,-32.35 366.11,-21.05"/>
<polygon fill="#63b8ff" stroke="#63b8ff" points="366.57,-17.57 356.07,-19.02 365.18,-24.43 366.57,-17.57"/>
</a>
</g>
</g>
<!-- Node11&#45;&gt;Node12 -->
<g id="edge13_Node000011_Node000012" class="edge">
<title>Node11&#45;&gt;Node12</title>
<g id="a_edge13_Node000011_Node000012"><a xlink:title=" ">
<path fill="none" stroke="#63b8ff" d="M644.73,-60.49C695.96,-50.05 782.83,-32.35 838.25,-21.05"/>
<polygon fill="#63b8ff" stroke="#63b8ff" points="839.12,-24.44 848.22,-19.02 837.72,-17.58 839.12,-24.44"/>
</a>
</g>
</g>
<!-- Node14 -->
<g id="Node000014" class="node">
<title>Node14</title>
<g id="a_Node000014"><a xlink:title=" ">
<polygon fill="#e0e0e0" stroke="#999999" points="247.5,-200.5 104.5,-200.5 104.5,-181.5 247.5,-181.5 247.5,-200.5"/>
<text text-anchor="middle" x="176" y="-188.5" font-family="Helvetica,sans-Serif" font-size="10.00">odp/api/abi/event_types.h</text>
</a>
</g>
</g>
<!-- Node13&#45;&gt;Node14 -->
<g id="edge16_Node000013_Node000014" class="edge">
<title>Node13&#45;&gt;Node14</title>
<g id="a_edge16_Node000013_Node000014"><a xlink:title=" ">
<path fill="none" stroke="#63b8ff" d="M168.21,-247.37C169.52,-238.07 171.64,-222.98 173.34,-210.9"/>
<polygon fill="#63b8ff" stroke="#63b8ff" points="176.82,-211.3 174.75,-200.91 169.89,-210.32 176.82,-211.3"/>
</a>
</g>
</g>
<!-- Node15 -->
<g id="Node000015" class="node">
<title>Node15</title>
<g id="a_Node000015"><a xlink:href="api_2spec_2event__types_8h.html" target="_top" xlink:title="ODP event API type definitions.">
<polygon fill="white" stroke="#666666" points="489.5,-85 380.5,-85 380.5,-55 489.5,-55 489.5,-85"/>
<text text-anchor="start" x="388.5" y="-73" font-family="Helvetica,sans-Serif" font-size="10.00">odp/api/spec/event</text>
<text text-anchor="middle" x="435" y="-62" font-family="Helvetica,sans-Serif" font-size="10.00">_types.h</text>
</a>
</g>
</g>
<!-- Node13&#45;&gt;Node15 -->
<g id="edge17_Node000013_Node000015" class="edge">
<title>Node13&#45;&gt;Node15</title>
<g id="a_edge17_Node000013_Node000015"><a xlink:title=" ">
<path fill="none" stroke="#63b8ff" d="M183.8,-247.43C201.99,-237.95 231.67,-221.9 256,-206 313.06,-168.69 375.84,-119.24 409.79,-91.72"/>
<polygon fill="#63b8ff" stroke="#63b8ff" points="412.24,-94.25 417.78,-85.22 407.82,-88.82 412.24,-94.25"/>
</a>
</g>
</g>
<!-- Node15&#45;&gt;Node4 -->
<g id="edge18_Node000015_Node000004" class="edge">
<title>Node15&#45;&gt;Node4</title>
<g id="a_edge18_Node000015_Node000004"><a xlink:title=" ">
<path fill="none" stroke="#63b8ff" d="M406.02,-54.99C386.28,-45.45 360.33,-32.9 341.03,-23.57"/>
<polygon fill="#63b8ff" stroke="#63b8ff" points="342.4,-20.34 331.87,-19.14 339.35,-26.64 342.4,-20.34"/>
</a>
</g>
</g>
<!-- Node15&#45;&gt;Node12 -->
<g id="edge19_Node000015_Node000012" class="edge">
<title>Node15&#45;&gt;Node12</title>
<g id="a_edge19_Node000015_Node000012"><a xlink:title=" ">
<path fill="none" stroke="#63b8ff" d="M489.51,-61.41C504.86,-59.3 521.58,-57.03 537,-55 636.81,-41.86 752.62,-27.41 823.59,-18.65"/>
<polygon fill="#63b8ff" stroke="#63b8ff" points="824.23,-22.1 833.73,-17.4 823.38,-15.15 824.23,-22.1"/>
</a>
</g>
</g>
<!-- Node17 -->
<g id="Node000017" class="node">
<title>Node17</title>
<g id="a_Node000017"><a xlink:title=" ">
<polygon fill="#e0e0e0" stroke="#999999" points="611.5,-585.5 466.5,-585.5 466.5,-566.5 611.5,-566.5 611.5,-585.5"/>
<text text-anchor="middle" x="539" y="-573.5" font-family="Helvetica,sans-Serif" font-size="10.00">odp/api/abi/queue_types.h</text>
</a>
</g>
</g>
<!-- Node16&#45;&gt;Node17 -->
<g id="edge21_Node000016_Node000017" class="edge">
<title>Node16&#45;&gt;Node17</title>
<g id="a_edge21_Node000016_Node000017"><a xlink:title=" ">
<path fill="none" stroke="#63b8ff" d="M418.5,-626.99C442.31,-617.12 481.79,-600.73 509.04,-589.43"/>
<polygon fill="#63b8ff" stroke="#63b8ff" points="510.58,-592.58 518.47,-585.52 507.89,-586.12 510.58,-592.58"/>
</a>
</g>
</g>
<!-- Node18 -->
<g id="Node000018" class="node">
<title>Node18</title>
<g id="a_Node000018"><a xlink:href="api_2spec_2queue__types_8h.html" target="_top" xlink:title="ODP queue types.">
<polygon fill="white" stroke="#666666" points="448.5,-591 337.5,-591 337.5,-561 448.5,-561 448.5,-591"/>
<text text-anchor="start" x="345.5" y="-579" font-family="Helvetica,sans-Serif" font-size="10.00">odp/api/spec/queue</text>
<text text-anchor="middle" x="393" y="-568" font-family="Helvetica,sans-Serif" font-size="10.00">_types.h</text>
</a>
</g>
</g>
<!-- Node16&#45;&gt;Node18 -->
<g id="edge22_Node000016_Node000018" class="edge">
<title>Node16&#45;&gt;Node18</title>
<g id="a_edge22_Node000016_Node000018"><a xlink:title=" ">
<path fill="none" stroke="#63b8ff" d="M397.26,-626.87C396.68,-620.11 395.85,-610.35 395.07,-601.26"/>
<polygon fill="#63b8ff" stroke="#63b8ff" points="398.55,-600.78 394.21,-591.11 391.57,-601.38 398.55,-600.78"/>
</a>
</g>
</g>
<!-- Node18&#45;&gt;Node4 -->
<g id="edge23_Node000018_Node000004" class="edge">
<title>Node18&#45;&gt;Node4</title>
<g id="a_edge23_Node000018_Node000004"><a xlink:title=" ">
<path fill="none" stroke="#63b8ff" d="M337.3,-570.45C270.47,-562.01 159.4,-538.01 95,-470 47.1,-419.42 38,-393.66 38,-324 38,-324 38,-324 38,-129.5 38,-40.09 161.66,-17.06 243.43,-11.6"/>
<polygon fill="#63b8ff" stroke="#63b8ff" points="243.66,-15.09 253.43,-11.01 243.24,-8.11 243.66,-15.09"/>
</a>
</g>
</g>
<!-- Node18&#45;&gt;Node12 -->
<g id="edge52_Node000018_Node000012" class="edge">
<title>Node18&#45;&gt;Node12</title>
<g id="a_edge52_Node000018_Node000012"><a xlink:title=" ">
<path fill="none" stroke="#63b8ff" d="M448.75,-562.59C627.87,-522.63 1177,-399.36 1177,-390 1177,-390 1177,-390 1177,-129.5 1177,-34.39 1040.84,-13.84 956.09,-10.27"/>
<polygon fill="#63b8ff" stroke="#63b8ff" points="956.14,-6.77 946.02,-9.91 955.89,-13.76 956.14,-6.77"/>
</a>
</g>
</g>
<!-- Node19 -->
<g id="Node000019" class="node">
<title>Node19</title>
<g id="a_Node000019"><a xlink:href="api_2event__vector__types_8h.html" target="_top" xlink:title="ODP event vector API type definitions.">
<polygon fill="white" stroke="#666666" points="490.5,-404 371.5,-404 371.5,-374 490.5,-374 490.5,-404"/>
<text text-anchor="start" x="379.5" y="-392" font-family="Helvetica,sans-Serif" font-size="10.00">odp/api/event_vector</text>
<text text-anchor="middle" x="431" y="-381" font-family="Helvetica,sans-Serif" font-size="10.00">_types.h</text>
</a>
</g>
</g>
<!-- Node18&#45;&gt;Node19 -->
<g id="edge24_Node000018_Node000019" class="edge">
<title>Node18&#45;&gt;Node19</title>
<g id="a_edge24_Node000018_Node000019"><a xlink:title=" ">
<path fill="none" stroke="#63b8ff" d="M397.42,-560.65C400.38,-550.71 404.23,-537.13 407,-525 415.76,-486.65 423.21,-441.57 427.39,-414.42"/>
<polygon fill="#63b8ff" stroke="#63b8ff" points="430.89,-414.69 428.93,-404.28 423.97,-413.64 430.89,-414.69"/>
</a>
</g>
</g>
<!-- Node23 -->
<g id="Node000023" class="node">
<title>Node23</title>
<g id="a_Node000023"><a xlink:href="queue__stats__types_8h.html" target="_top" xlink:title="ODP queue.">
<polygon fill="white" stroke="#666666" points="401.5,-272 286.5,-272 286.5,-242 401.5,-242 401.5,-272"/>
<text text-anchor="start" x="294.5" y="-260" font-family="Helvetica,sans-Serif" font-size="10.00">odp/api/queue_stats</text>
<text text-anchor="middle" x="344" y="-249" font-family="Helvetica,sans-Serif" font-size="10.00">_types.h</text>
</a>
</g>
</g>
<!-- Node18&#45;&gt;Node23 -->
<g id="edge37_Node000018_Node000023" class="edge">
<title>Node18&#45;&gt;Node23</title>
<g id="a_edge37_Node000018_Node000023"><a xlink:title=" ">
<path fill="none" stroke="#63b8ff" d="M391.59,-560.68C388.99,-535.89 382.8,-483.45 373,-440 369.32,-423.68 365.59,-420.34 362,-404 355.65,-375.08 356.66,-367.38 353,-338 350.67,-319.29 348.3,-298.09 346.57,-282.22"/>
<polygon fill="#63b8ff" stroke="#63b8ff" points="350.04,-281.74 345.49,-272.17 343.08,-282.49 350.04,-281.74"/>
</a>
</g>
</g>
<!-- Node18&#45;&gt;Node25 -->
<g id="edge38_Node000018_Node000025" class="edge">
<title>Node18&#45;&gt;Node25</title>
<g id="a_edge38_Node000018_Node000025"><a xlink:title=" ">
<path fill="none" stroke="#63b8ff" d="M369.28,-560.84C353.8,-551.6 333.68,-539.59 318.29,-530.4"/>
<polygon fill="#63b8ff" stroke="#63b8ff" points="319.78,-527.21 309.4,-525.09 316.19,-533.23 319.78,-527.21"/>
</a>
</g>
</g>
<!-- Node20 -->
<g id="Node000020" class="node">
<title>Node20</title>
<g id="a_Node000020"><a xlink:title=" ">
<polygon fill="#e0e0e0" stroke="#999999" points="781.5,-338 644.5,-338 644.5,-308 781.5,-308 781.5,-338"/>
<text text-anchor="start" x="652.5" y="-326" font-family="Helvetica,sans-Serif" font-size="10.00">odp/api/abi/event_vector</text>
<text text-anchor="middle" x="713" y="-315" font-family="Helvetica,sans-Serif" font-size="10.00">_types.h</text>
</a>
</g>
</g>
<!-- Node19&#45;&gt;Node20 -->
<g id="edge25_Node000019_Node000020" class="edge">
<title>Node19&#45;&gt;Node20</title>
<g id="a_edge25_Node000019_Node000020"><a xlink:title=" ">
<path fill="none" stroke="#63b8ff" d="M490.8,-374.43C534.64,-364.48 594.35,-350.93 640.83,-340.38"/>
<polygon fill="#63b8ff" stroke="#63b8ff" points="641.86,-343.73 650.84,-338.11 640.31,-336.91 641.86,-343.73"/>
</a>
</g>
</g>
<!-- Node21 -->
<g id="Node000021" class="node">
<title>Node21</title>
<g id="a_Node000021"><a xlink:title=" ">
<polygon fill="#e0e0e0" stroke="#999999" points="626,-332.5 490,-332.5 490,-313.5 626,-313.5 626,-332.5"/>
<text text-anchor="middle" x="558" y="-320.5" font-family="Helvetica,sans-Serif" font-size="10.00">odp/api/abi/pool_types.h</text>
</a>
</g>
</g>
<!-- Node19&#45;&gt;Node21 -->
<g id="edge26_Node000019_Node000021" class="edge">
<title>Node19&#45;&gt;Node21</title>
<g id="a_edge26_Node000019_Node000021"><a xlink:title=" ">
<path fill="none" stroke="#63b8ff" d="M458.87,-373.95C480.65,-362.98 510.7,-347.83 531.99,-337.11"/>
<polygon fill="#63b8ff" stroke="#63b8ff" points="533.74,-340.14 541.1,-332.52 530.59,-333.89 533.74,-340.14"/>
</a>
</g>
</g>
<!-- Node22 -->
<g id="Node000022" class="node">
<title>Node22</title>
<g id="a_Node000022"><a xlink:href="api_2spec_2event__vector__types_8h.html" target="_top" xlink:title="ODP event vector API type definitions.">
<polygon fill="white" stroke="#666666" points="471.5,-338 362.5,-338 362.5,-308 471.5,-308 471.5,-338"/>
<text text-anchor="start" x="370.5" y="-326" font-family="Helvetica,sans-Serif" font-size="10.00">odp/api/spec/event</text>
<text text-anchor="middle" x="417" y="-315" font-family="Helvetica,sans-Serif" font-size="10.00">_vector_types.h</text>
</a>
</g>
</g>
<!-- Node19&#45;&gt;Node22 -->
<g id="edge27_Node000019_Node000022" class="edge">
<title>Node19&#45;&gt;Node22</title>
<g id="a_edge27_Node000019_Node000022"><a xlink:title=" ">
<path fill="none" stroke="#63b8ff" d="M427.89,-373.8C426.24,-366.26 424.17,-356.78 422.28,-348.13"/>
<polygon fill="#63b8ff" stroke="#63b8ff" points="425.65,-347.19 420.1,-338.16 418.82,-348.68 425.65,-347.19"/>
</a>
</g>
</g>
<!-- Node22&#45;&gt;Node4 -->
<g id="edge28_Node000022_Node000004" class="edge">
<title>Node22&#45;&gt;Node4</title>
<g id="a_edge28_Node000022_Node000004"><a xlink:title=" ">
<path fill="none" stroke="#63b8ff" d="M418.49,-307.71C419.61,-291.14 419.59,-263.37 410,-242 400.98,-221.92 389.47,-223.4 376,-206 337.12,-155.79 317.58,-146.03 300,-85 294.55,-66.09 300.24,-43.86 305.92,-28.64"/>
<polygon fill="#63b8ff" stroke="#63b8ff" points="309.17,-29.92 309.71,-19.34 302.69,-27.28 309.17,-29.92"/>
</a>
</g>
</g>
<!-- Node22&#45;&gt;Node5 -->
<g id="edge35_Node000022_Node000005" class="edge">
<title>Node22&#45;&gt;Node5</title>
<g id="a_edge35_Node000022_Node000005"><a xlink:title=" ">
<path fill="none" stroke="#63b8ff" d="M471.76,-309.76C474.88,-309.15 477.98,-308.55 481,-308 574.93,-290.8 684.39,-275.46 752.7,-266.44"/>
<polygon fill="#63b8ff" stroke="#63b8ff" points="753.43,-269.88 762.89,-265.1 752.52,-262.94 753.43,-269.88"/>
</a>
</g>
</g>
<!-- Node22&#45;&gt;Node12 -->
<g id="edge36_Node000022_Node000012" class="edge">
<title>Node22&#45;&gt;Node12</title>
<g id="a_edge36_Node000022_Node000012"><a xlink:title=" ">
<path fill="none" stroke="#63b8ff" d="M465.23,-307.99C525.96,-289.31 632.43,-253.06 716,-206 735.05,-195.27 736.44,-187.56 755,-176 785.71,-156.88 797.82,-159.95 828,-140 859.29,-119.32 876.35,-119.08 892,-85 900.08,-67.4 898.03,-44.91 894.93,-29.27"/>
<polygon fill="#63b8ff" stroke="#63b8ff" points="898.28,-28.22 892.62,-19.26 891.46,-29.79 898.28,-28.22"/>
</a>
</g>
</g>
<!-- Node22&#45;&gt;Node13 -->
<g id="edge29_Node000022_Node000013" class="edge">
<title>Node22&#45;&gt;Node13</title>
<g id="a_edge29_Node000022_Node000013"><a xlink:title=" ">
<path fill="none" stroke="#63b8ff" d="M362.45,-308.03C316.69,-296.32 252.24,-279.82 210.05,-269.02"/>
<polygon fill="#63b8ff" stroke="#63b8ff" points="210.91,-265.63 200.36,-266.54 209.18,-272.41 210.91,-265.63"/>
</a>
</g>
</g>
<!-- Node22&#45;&gt;Node23 -->
<g id="edge30_Node000022_Node000023" class="edge">
<title>Node22&#45;&gt;Node23</title>
<g id="a_edge30_Node000022_Node000023"><a xlink:title=" ">
<path fill="none" stroke="#63b8ff" d="M400.8,-307.8C391.16,-299.34 378.75,-288.46 367.99,-279.03"/>
<polygon fill="#63b8ff" stroke="#63b8ff" points="369.98,-276.12 360.16,-272.16 365.37,-281.39 369.98,-276.12"/>
</a>
</g>
</g>
<!-- Node24 -->
<g id="Node000024" class="node">
<title>Node24</title>
<g id="a_Node000024"><a xlink:href="spec_2queue__stats__types_8h.html" target="_top" xlink:title="ODP queue statistics types.">
<polygon fill="white" stroke="#666666" points="529.5,-206 418.5,-206 418.5,-176 529.5,-176 529.5,-206"/>
<text text-anchor="start" x="426.5" y="-194" font-family="Helvetica,sans-Serif" font-size="10.00">odp/api/spec/queue</text>
<text text-anchor="middle" x="474" y="-183" font-family="Helvetica,sans-Serif" font-size="10.00">_stats_types.h</text>
</a>
</g>
</g>
<!-- Node23&#45;&gt;Node24 -->
<g id="edge31_Node000023_Node000024" class="edge">
<title>Node23&#45;&gt;Node24</title>
<g id="a_edge31_Node000023_Node000024"><a xlink:title=" ">
<path fill="none" stroke="#63b8ff" d="M372.53,-241.95C391.33,-232.7 416.14,-220.49 436.52,-210.45"/>
<polygon fill="#63b8ff" stroke="#63b8ff" points="438.11,-213.57 445.54,-206.01 435.02,-207.29 438.11,-213.57"/>
</a>
</g>
</g>
<!-- Node24&#45;&gt;Node4 -->
<g id="edge32_Node000024_Node000004" class="edge">
<title>Node24&#45;&gt;Node4</title>
<g id="a_edge32_Node000024_Node000004"><a xlink:title=" ">
<path fill="none" stroke="#63b8ff" d="M459.09,-175.93C438.52,-156.27 400.61,-119.15 371,-85 354.56,-66.05 337.27,-42.93 326.1,-27.52"/>
<polygon fill="#63b8ff" stroke="#63b8ff" points="328.68,-25.11 320,-19.03 322.99,-29.2 328.68,-25.11"/>
</a>
</g>
</g>
<!-- Node24&#45;&gt;Node8 -->
<g id="edge33_Node000024_Node000008" class="edge">
<title>Node24&#45;&gt;Node8</title>
<g id="a_edge33_Node000024_Node000008"><a xlink:title=" ">
<path fill="none" stroke="#63b8ff" d="M487.31,-175.84C495.3,-167.35 505.48,-156.52 513.78,-147.69"/>
<polygon fill="#63b8ff" stroke="#63b8ff" points="516.46,-149.95 520.76,-140.27 511.36,-145.15 516.46,-149.95"/>
</a>
</g>
</g>
<!-- Node24&#45;&gt;Node12 -->
<g id="edge34_Node000024_Node000012" class="edge">
<title>Node24&#45;&gt;Node12</title>
<g id="a_edge34_Node000024_Node000012"><a xlink:title=" ">
<path fill="none" stroke="#63b8ff" d="M473.72,-175.83C474.22,-160.05 477.63,-134.94 493,-121 562.84,-57.7 614.82,-120.82 702,-85 723.55,-76.14 724.05,-65.21 745,-55 775.49,-40.14 812.01,-28.97 840.77,-21.53"/>
<polygon fill="#63b8ff" stroke="#63b8ff" points="841.75,-24.9 850.6,-19.06 840.04,-18.11 841.75,-24.9"/>
</a>
</g>
</g>
<!-- Node26 -->
<g id="Node000026" class="node">
<title>Node26</title>
<g id="a_Node000026"><a xlink:title=" ">
<polygon fill="#e0e0e0" stroke="#999999" points="221.5,-470 104.5,-470 104.5,-440 221.5,-440 221.5,-470"/>
<text text-anchor="start" x="112.5" y="-458" font-family="Helvetica,sans-Serif" font-size="10.00">odp/api/abi/schedule</text>
<text text-anchor="middle" x="163" y="-447" font-family="Helvetica,sans-Serif" font-size="10.00">_types.h</text>
</a>
</g>
</g>
<!-- Node25&#45;&gt;Node26 -->
<g id="edge39_Node000025_Node000026" class="edge">
<title>Node25&#45;&gt;Node26</title>
<g id="a_edge39_Node000025_Node000026"><a xlink:title=" ">
<path fill="none" stroke="#63b8ff" d="M275.81,-505.99C257.06,-497.68 227.93,-484.78 203.97,-474.16"/>
<polygon fill="#63b8ff" stroke="#63b8ff" points="205.3,-470.92 194.73,-470.06 202.46,-477.32 205.3,-470.92"/>
</a>
</g>
</g>
<!-- Node27 -->
<g id="Node000027" class="node">
<title>Node27</title>
<g id="a_Node000027"><a xlink:href="api_2spec_2schedule__types_8h.html" target="_top" xlink:title="ODP schedule types.">
<polygon fill="white" stroke="#666666" points="364.5,-470 239.5,-470 239.5,-440 364.5,-440 364.5,-470"/>
<text text-anchor="start" x="247.5" y="-458" font-family="Helvetica,sans-Serif" font-size="10.00">odp/api/spec/schedule</text>
<text text-anchor="middle" x="302" y="-447" font-family="Helvetica,sans-Serif" font-size="10.00">_types.h</text>
</a>
</g>
</g>
<!-- Node25&#45;&gt;Node27 -->
<g id="edge40_Node000025_Node000027" class="edge">
<title>Node25&#45;&gt;Node27</title>
<g id="a_edge40_Node000025_Node000027"><a xlink:title=" ">
<path fill="none" stroke="#63b8ff" d="M296.03,-505.87C296.84,-499.11 298.01,-489.35 299.1,-480.26"/>
<polygon fill="#63b8ff" stroke="#63b8ff" points="302.6,-480.46 300.31,-470.11 295.65,-479.63 302.6,-480.46"/>
</a>
</g>
</g>
<!-- Node27&#45;&gt;Node4 -->
<g id="edge41_Node000027_Node000004" class="edge">
<title>Node27&#45;&gt;Node4</title>
<g id="a_edge41_Node000027_Node000004"><a xlink:title=" ">
<path fill="none" stroke="#63b8ff" d="M261.07,-439.92C195.95,-414.62 76,-354.86 76,-258 76,-258 76,-258 76,-129.5 76,-53.99 173.03,-26.39 243.19,-16.31"/>
<polygon fill="#63b8ff" stroke="#63b8ff" points="243.88,-19.74 253.33,-14.94 242.95,-12.81 243.88,-19.74"/>
</a>
</g>
</g>
<!-- Node27&#45;&gt;Node5 -->
<g id="edge44_Node000027_Node000005" class="edge">
<title>Node27&#45;&gt;Node5</title>
<g id="a_edge44_Node000027_Node000005"><a xlink:title=" ">
<path fill="none" stroke="#63b8ff" d="M364.72,-446.54C481.76,-431.46 727.28,-393.93 790,-338 807.53,-322.37 814.47,-295.29 817.22,-277.02"/>
<polygon fill="#63b8ff" stroke="#63b8ff" points="820.71,-277.31 818.44,-266.96 813.76,-276.47 820.71,-277.31"/>
</a>
</g>
</g>
<!-- Node27&#45;&gt;Node12 -->
<g id="edge51_Node000027_Node000012" class="edge">
<title>Node27&#45;&gt;Node12</title>
<g id="a_edge51_Node000027_Node000012"><a xlink:title=" ">
<path fill="none" stroke="#63b8ff" d="M294.98,-439.99C278.17,-404.31 239.69,-308.18 277,-242 328.02,-151.5 379.94,-158.06 477,-121 558.11,-90.03 591.27,-123.67 669,-85 686.75,-76.17 684.47,-64.24 702,-55 739.7,-35.13 786.28,-24.02 823.65,-17.87"/>
<polygon fill="#63b8ff" stroke="#63b8ff" points="824.59,-21.27 833.93,-16.27 823.51,-14.35 824.59,-21.27"/>
</a>
</g>
</g>
<!-- Node27&#45;&gt;Node19 -->
<g id="edge42_Node000027_Node000019" class="edge">
<title>Node27&#45;&gt;Node19</title>
<g id="a_edge42_Node000027_Node000019"><a xlink:title=" ">
<path fill="none" stroke="#63b8ff" d="M330.31,-439.95C348.88,-430.74 373.36,-418.6 393.54,-408.59"/>
<polygon fill="#63b8ff" stroke="#63b8ff" points="395.35,-411.59 402.76,-404.01 392.24,-405.32 395.35,-411.59"/>
</a>
</g>
</g>
<!-- Node27&#45;&gt;Node23 -->
<g id="edge43_Node000027_Node000023" class="edge">
<title>Node27&#45;&gt;Node23</title>
<g id="a_edge43_Node000027_Node000023"><a xlink:title=" ">
<path fill="none" stroke="#63b8ff" d="M302.24,-439.6C303.01,-413.04 306.28,-354.81 320,-308 322.65,-298.97 326.77,-289.54 330.86,-281.34"/>
<polygon fill="#63b8ff" stroke="#63b8ff" points="334.02,-282.86 335.55,-272.38 327.81,-279.61 334.02,-282.86"/>
</a>
</g>
</g>
<!-- Node27&#45;&gt;Node28 -->
<g id="edge45_Node000027_Node000028" class="edge">
<title>Node27&#45;&gt;Node28</title>
<g id="a_edge45_Node000027_Node000028"><a xlink:title=" ">
<path fill="none" stroke="#63b8ff" d="M364.51,-449.97C462.69,-443.21 658.89,-427.9 824,-404 831.1,-402.97 838.57,-401.72 845.9,-400.39"/>
<polygon fill="#63b8ff" stroke="#63b8ff" points="846.57,-403.82 855.75,-398.54 845.28,-396.94 846.57,-403.82"/>
</a>
</g>
</g>
<!-- Node29 -->
<g id="Node000029" class="node">
<title>Node29</title>
<g id="a_Node000029"><a xlink:title=" ">
<polygon fill="#e0e0e0" stroke="#999999" points="961.5,-332.5 838.5,-332.5 838.5,-313.5 961.5,-313.5 961.5,-332.5"/>
<text text-anchor="middle" x="900" y="-320.5" font-family="Helvetica,sans-Serif" font-size="10.00">odp/api/abi/thrmask.h</text>
</a>
</g>
</g>
<!-- Node28&#45;&gt;Node29 -->
<g id="edge46_Node000028_Node000029" class="edge">
<title>Node28&#45;&gt;Node29</title>
<g id="a_edge46_Node000028_Node000029"><a xlink:title=" ">
<path fill="none" stroke="#63b8ff" d="M896.54,-379.37C897.12,-370.07 898.06,-354.98 898.82,-342.9"/>
<polygon fill="#63b8ff" stroke="#63b8ff" points="902.31,-343.1 899.44,-332.91 895.33,-342.67 902.31,-343.1"/>
</a>
</g>
</g>
<!-- Node30 -->
<g id="Node000030" class="node">
<title>Node30</title>
<g id="a_Node000030"><a xlink:href="api_2spec_2thrmask_8h.html" target="_top" xlink:title="ODP thread masks.">
<polygon fill="white" stroke="#666666" points="1110.5,-332.5 979.5,-332.5 979.5,-313.5 1110.5,-313.5 1110.5,-332.5"/>
<text text-anchor="middle" x="1045" y="-320.5" font-family="Helvetica,sans-Serif" font-size="10.00">odp/api/spec/thrmask.h</text>
</a>
</g>
</g>
<!-- Node28&#45;&gt;Node30 -->
<g id="edge47_Node000028_Node000030" class="edge">
<title>Node28&#45;&gt;Node30</title>
<g id="a_edge47_Node000028_Node000030"><a xlink:title=" ">
<path fill="none" stroke="#63b8ff" d="M916.09,-379.37C941.64,-368.39 985.96,-349.36 1015.39,-336.72"/>
<polygon fill="#63b8ff" stroke="#63b8ff" points="1016.94,-339.86 1024.75,-332.7 1014.18,-333.43 1016.94,-339.86"/>
</a>
</g>
</g>
<!-- Node30&#45;&gt;Node4 -->
<g id="edge48_Node000030_Node000004" class="edge">
<title>Node30&#45;&gt;Node4</title>
<g id="a_edge48_Node000030_Node000004"><a xlink:title=" ">
<path fill="none" stroke="#63b8ff" d="M1000.21,-313.49C990.27,-311.65 979.78,-309.73 970,-308 720.44,-263.92 613.74,-355.35 409,-206 348.66,-161.98 324.84,-69.17 317.13,-29.32"/>
<polygon fill="#63b8ff" stroke="#63b8ff" points="320.56,-28.59 315.34,-19.37 313.67,-29.83 320.56,-28.59"/>
</a>
</g>
</g>
<!-- Node30&#45;&gt;Node5 -->
<g id="edge49_Node000030_Node000005" class="edge">
<title>Node30&#45;&gt;Node5</title>
<g id="a_edge49_Node000030_Node000005"><a xlink:title=" ">
<path fill="none" stroke="#63b8ff" d="M1014.52,-313.37C974.39,-302 903.74,-282 859.25,-269.4"/>
<polygon fill="#63b8ff" stroke="#63b8ff" points="859.93,-265.95 849.36,-266.6 858.02,-272.69 859.93,-265.95"/>
</a>
</g>
</g>
<!-- Node30&#45;&gt;Node12 -->
<g id="edge50_Node000030_Node000012" class="edge">
<title>Node30&#45;&gt;Node12</title>
<g id="a_edge50_Node000030_Node000012"><a xlink:title=" ">
<path fill="none" stroke="#63b8ff" d="M1040.41,-313.45C1029.9,-293.06 1005,-239.7 1005,-192 1005,-192 1005,-192 1005,-129.5 1005,-79.34 951.51,-42.25 917.5,-23.73"/>
<polygon fill="#63b8ff" stroke="#63b8ff" points="918.96,-20.55 908.48,-19.01 915.71,-26.75 918.96,-20.55"/>
</a>
</g>
</g>
</g>
</svg>
