<?xml version="1.0" encoding="UTF-8" standalone="no"?>
<!DOCTYPE svg PUBLIC "-//W3C//DTD SVG 1.1//EN"
 "http://www.w3.org/Graphics/SVG/1.1/DTD/svg11.dtd">
<!-- Generated by graphviz version 2.43.0 (0)
 -->
<!-- Title: std_types.h Pages: 1 -->
<svg width="4634pt" height="252pt"
 viewBox="0.00 0.00 4633.72 252.00" xmlns="http://www.w3.org/2000/svg" xmlns:xlink="http://www.w3.org/1999/xlink">
<g id="graph0" class="graph" transform="scale(1 1) rotate(0) translate(4 248)">
<title>std_types.h</title>
<polygon fill="white" stroke="transparent" points="-4,4 -4,-248 4629.72,-248 4629.72,4 -4,4"/>
<!-- Node1 -->
<g id="node1" class="node">
<title>Node1</title>
<g id="a_node1"><a xlink:title="Common types and definitions for ODP API files.">
<polygon fill="#bfbfbf" stroke="black" points="2396,-224.5 2396,-243.5 2469,-243.5 2469,-224.5 2396,-224.5"/>
<text text-anchor="middle" x="2432.5" y="-231.5" font-family="Helvetica,sans-Serif" font-size="10.00">std_types.h</text>
</a>
</g>
</g>
<!-- Node2 -->
<g id="node2" class="node">
<title>Node2</title>
<g id="a_node2"><a xlink:href="api_2std__types_8h.html" target="_top" xlink:title="Standard C language types and definitions for ODP.">
<polygon fill="white" stroke="black" points="2396,-168.5 2396,-187.5 2469,-187.5 2469,-168.5 2396,-168.5"/>
<text text-anchor="middle" x="2432.5" y="-175.5" font-family="Helvetica,sans-Serif" font-size="10.00">std_types.h</text>
</a>
</g>
</g>
<!-- Node1&#45;&gt;Node2 -->
<g id="edge1" class="edge">
<title>Node1&#45;&gt;Node2</title>
<path fill="none" stroke="midnightblue" d="M2432.5,-213.8C2432.5,-204.91 2432.5,-194.78 2432.5,-187.75"/>
<polygon fill="midnightblue" stroke="midnightblue" points="2429,-214.08 2432.5,-224.08 2436,-214.08 2429,-214.08"/>
</g>
<!-- Node3 -->
<g id="node3" class="node">
<title>Node3</title>
<g id="a_node3"><a xlink:href="api_2abi-default_2atomic_8h.html" target="_top" xlink:title="ODP atomic operations.">
<polygon fill="white" stroke="black" points="231,-112.5 231,-131.5 290,-131.5 290,-112.5 231,-112.5"/>
<text text-anchor="middle" x="260.5" y="-119.5" font-family="Helvetica,sans-Serif" font-size="10.00">atomic.h</text>
</a>
</g>
</g>
<!-- Node2&#45;&gt;Node3 -->
<g id="edge2" class="edge">
<title>Node2&#45;&gt;Node3</title>
<path fill="none" stroke="midnightblue" d="M2385.89,-176.95C2162.57,-176.5 1179.71,-172.23 375.5,-132 346.5,-130.55 313.46,-127.85 290.25,-125.79"/>
<polygon fill="midnightblue" stroke="midnightblue" points="2385.94,-180.45 2395.95,-176.97 2385.95,-173.45 2385.94,-180.45"/>
</g>
<!-- Node10 -->
<g id="node10" class="node">
<title>Node10</title>
<g id="a_node10"><a xlink:href="api_2abi-default_2barrier_8h.html" target="_top" xlink:title="ODP barrier.">
<polygon fill="white" stroke="red" points="385,-112.5 385,-131.5 442,-131.5 442,-112.5 385,-112.5"/>
<text text-anchor="middle" x="413.5" y="-119.5" font-family="Helvetica,sans-Serif" font-size="10.00">barrier.h</text>
</a>
</g>
</g>
<!-- Node2&#45;&gt;Node10 -->
<g id="edge9" class="edge">
<title>Node2&#45;&gt;Node10</title>
<path fill="none" stroke="midnightblue" d="M2385.61,-177.27C2124.04,-178.57 842.95,-182.24 451.5,-132 448.41,-131.6 445.2,-131.06 442.02,-130.43"/>
<polygon fill="midnightblue" stroke="midnightblue" points="2385.91,-180.77 2395.89,-177.22 2385.88,-173.77 2385.91,-180.77"/>
</g>
<!-- Node17 -->
<g id="node12" class="node">
<title>Node17</title>
<g id="a_node12"><a xlink:href="api_2abi-default_2byteorder_8h.html" target="_top" xlink:title="ODP byteorder.">
<polygon fill="white" stroke="red" points="460.5,-112.5 460.5,-131.5 532.5,-131.5 532.5,-112.5 460.5,-112.5"/>
<text text-anchor="middle" x="496.5" y="-119.5" font-family="Helvetica,sans-Serif" font-size="10.00">byteorder.h</text>
</a>
</g>
</g>
<!-- Node2&#45;&gt;Node17 -->
<g id="edge11" class="edge">
<title>Node2&#45;&gt;Node17</title>
<path fill="none" stroke="midnightblue" d="M2385.73,-176.99C2131.65,-176.76 914.93,-173.47 541.5,-132 538.65,-131.68 535.71,-131.28 532.76,-130.81"/>
<polygon fill="midnightblue" stroke="midnightblue" points="2385.74,-180.49 2395.74,-177 2385.74,-173.49 2385.74,-180.49"/>
</g>
<!-- Node24 -->
<g id="node13" class="node">
<title>Node24</title>
<g id="a_node13"><a xlink:href="api_2abi-default_2cpumask_8h.html" target="_top" xlink:title="ODP CPU masks and enumeration.">
<polygon fill="white" stroke="red" points="550.5,-112.5 550.5,-131.5 620.5,-131.5 620.5,-112.5 550.5,-112.5"/>
<text text-anchor="middle" x="585.5" y="-119.5" font-family="Helvetica,sans-Serif" font-size="10.00">cpumask.h</text>
</a>
</g>
</g>
<!-- Node2&#45;&gt;Node24 -->
<g id="edge12" class="edge">
<title>Node2&#45;&gt;Node24</title>
<path fill="none" stroke="midnightblue" d="M2385.56,-176.95C2138.24,-176.53 984.32,-172.39 629.5,-132 626.71,-131.68 623.84,-131.28 620.96,-130.81"/>
<polygon fill="midnightblue" stroke="midnightblue" points="2385.65,-180.45 2395.65,-176.97 2385.66,-173.45 2385.65,-180.45"/>
</g>
<!-- Node31 -->
<g id="node14" class="node">
<title>Node31</title>
<g id="a_node14"><a xlink:href="api_2abi-default_2init_8h.html" target="_top" xlink:title="ODP initialization.">
<polygon fill="white" stroke="red" points="639,-112.5 639,-131.5 680,-131.5 680,-112.5 639,-112.5"/>
<text text-anchor="middle" x="659.5" y="-119.5" font-family="Helvetica,sans-Serif" font-size="10.00">init.h</text>
</a>
</g>
</g>
<!-- Node2&#45;&gt;Node31 -->
<g id="edge13" class="edge">
<title>Node2&#45;&gt;Node31</title>
<path fill="none" stroke="midnightblue" d="M2385.63,-176.56C2125.01,-174.01 859.92,-160.25 688.5,-132 685.8,-131.55 682.99,-130.92 680.24,-130.19"/>
<polygon fill="midnightblue" stroke="midnightblue" points="2385.85,-180.06 2395.88,-176.66 2385.92,-173.06 2385.85,-180.06"/>
</g>
<!-- Node38 -->
<g id="node15" class="node">
<title>Node38</title>
<g id="a_node15"><a xlink:href="api_2abi-default_2ipsec__types_8h_source.html" target="_top" xlink:title=" ">
<polygon fill="white" stroke="red" points="698,-112.5 698,-131.5 781,-131.5 781,-112.5 698,-112.5"/>
<text text-anchor="middle" x="739.5" y="-119.5" font-family="Helvetica,sans-Serif" font-size="10.00">ipsec_types.h</text>
</a>
</g>
</g>
<!-- Node2&#45;&gt;Node38 -->
<g id="edge14" class="edge">
<title>Node2&#45;&gt;Node38</title>
<path fill="none" stroke="midnightblue" d="M2385.73,-176.65C2152.36,-174.76 1112.19,-164.61 790.5,-132 787.46,-131.69 784.33,-131.31 781.18,-130.87"/>
<polygon fill="midnightblue" stroke="midnightblue" points="2385.89,-180.15 2395.92,-176.73 2385.95,-173.15 2385.89,-180.15"/>
</g>
<!-- Node45 -->
<g id="node16" class="node">
<title>Node45</title>
<g id="a_node16"><a xlink:href="api_2abi-default_2packet__io__types_8h.html" target="_top" xlink:title="ODP Packet IO.">
<polygon fill="white" stroke="red" points="799.5,-112.5 799.5,-131.5 903.5,-131.5 903.5,-112.5 799.5,-112.5"/>
<text text-anchor="middle" x="851.5" y="-119.5" font-family="Helvetica,sans-Serif" font-size="10.00">packet_io_types.h</text>
</a>
</g>
</g>
<!-- Node2&#45;&gt;Node45 -->
<g id="edge15" class="edge">
<title>Node2&#45;&gt;Node45</title>
<path fill="none" stroke="midnightblue" d="M2385.67,-176.35C2162.92,-173.16 1209.07,-158.18 912.5,-132 909.62,-131.75 906.67,-131.45 903.7,-131.11"/>
<polygon fill="midnightblue" stroke="midnightblue" points="2385.67,-179.85 2395.72,-176.5 2385.77,-172.85 2385.67,-179.85"/>
</g>
<!-- Node52 -->
<g id="node17" class="node">
<title>Node52</title>
<g id="a_node17"><a xlink:href="api_2abi-default_2rwlock__recursive_8h.html" target="_top" xlink:title="ODP recursive read/write lock.">
<polygon fill="white" stroke="red" points="921.5,-112.5 921.5,-131.5 1029.5,-131.5 1029.5,-112.5 921.5,-112.5"/>
<text text-anchor="middle" x="975.5" y="-119.5" font-family="Helvetica,sans-Serif" font-size="10.00">rwlock_recursive.h</text>
</a>
</g>
</g>
<!-- Node2&#45;&gt;Node52 -->
<g id="edge16" class="edge">
<title>Node2&#45;&gt;Node52</title>
<path fill="none" stroke="midnightblue" d="M2385.54,-177.35C2208.64,-178.26 1565.66,-178.02 1038.5,-132 1035.64,-131.75 1032.71,-131.46 1029.75,-131.14"/>
<polygon fill="midnightblue" stroke="midnightblue" points="2385.82,-180.85 2395.8,-177.29 2385.78,-173.85 2385.82,-180.85"/>
</g>
<!-- Node59 -->
<g id="node18" class="node">
<title>Node59</title>
<g id="a_node18"><a xlink:href="api_2abi-default_2schedule__types_8h.html" target="_top" xlink:title="ODP schedule.">
<polygon fill="white" stroke="red" points="1048,-112.5 1048,-131.5 1149,-131.5 1149,-112.5 1048,-112.5"/>
<text text-anchor="middle" x="1098.5" y="-119.5" font-family="Helvetica,sans-Serif" font-size="10.00">schedule_types.h</text>
</a>
</g>
</g>
<!-- Node2&#45;&gt;Node59 -->
<g id="edge17" class="edge">
<title>Node2&#45;&gt;Node59</title>
<path fill="none" stroke="midnightblue" d="M2385.51,-177.26C2218.22,-177.79 1636.16,-176.12 1158.5,-132 1155.46,-131.72 1152.34,-131.39 1149.19,-131.02"/>
<polygon fill="midnightblue" stroke="midnightblue" points="2385.93,-180.76 2395.92,-177.22 2385.91,-173.76 2385.93,-180.76"/>
</g>
<!-- Node66 -->
<g id="node19" class="node">
<title>Node66</title>
<g id="a_node19"><a xlink:href="api_2abi-default_2spinlock__recursive_8h.html" target="_top" xlink:title="ODP recursive spinlock.">
<polygon fill="white" stroke="red" points="1167.5,-112.5 1167.5,-131.5 1283.5,-131.5 1283.5,-112.5 1167.5,-112.5"/>
<text text-anchor="middle" x="1225.5" y="-119.5" font-family="Helvetica,sans-Serif" font-size="10.00">spinlock_recursive.h</text>
</a>
</g>
</g>
<!-- Node2&#45;&gt;Node66 -->
<g id="edge18" class="edge">
<title>Node2&#45;&gt;Node66</title>
<path fill="none" stroke="midnightblue" d="M2385.33,-176.73C2229.25,-175.48 1715.43,-168.67 1292.5,-132 1289.58,-131.75 1286.59,-131.46 1283.57,-131.14"/>
<polygon fill="midnightblue" stroke="midnightblue" points="2385.49,-180.23 2395.51,-176.8 2385.54,-173.23 2385.49,-180.23"/>
</g>
<!-- Node73 -->
<g id="node20" class="node">
<title>Node73</title>
<g id="a_node20"><a xlink:href="api_2abi-default_2traffic__mngr_8h.html" target="_top" xlink:title="ODP traffic mngr.">
<polygon fill="white" stroke="red" points="1301.5,-112.5 1301.5,-131.5 1385.5,-131.5 1385.5,-112.5 1301.5,-112.5"/>
<text text-anchor="middle" x="1343.5" y="-119.5" font-family="Helvetica,sans-Serif" font-size="10.00">traffic_mngr.h</text>
</a>
</g>
</g>
<!-- Node2&#45;&gt;Node73 -->
<g id="edge19" class="edge">
<title>Node2&#45;&gt;Node73</title>
<path fill="none" stroke="midnightblue" d="M2385.39,-176.89C2238.89,-176.12 1778.44,-170.57 1399.5,-132 1394.99,-131.54 1390.3,-130.96 1385.63,-130.31"/>
<polygon fill="midnightblue" stroke="midnightblue" points="2385.78,-180.39 2395.79,-176.94 2385.81,-173.39 2385.78,-180.39"/>
</g>
<!-- Node80 -->
<g id="node21" class="node">
<title>Node80</title>
<g id="a_node21"><a xlink:href="api_2barrier_8h.html" target="_top" xlink:title="ODP execution barriers.">
<polygon fill="white" stroke="black" points="1359,-56.5 1359,-75.5 1416,-75.5 1416,-56.5 1359,-56.5"/>
<text text-anchor="middle" x="1387.5" y="-63.5" font-family="Helvetica,sans-Serif" font-size="10.00">barrier.h</text>
</a>
</g>
</g>
<!-- Node2&#45;&gt;Node80 -->
<g id="edge20" class="edge">
<title>Node2&#45;&gt;Node80</title>
<path fill="none" stroke="midnightblue" d="M2385.64,-176.19C2206.97,-172.91 1574.25,-159.44 1488.5,-132 1450.96,-119.99 1413.8,-90.28 1396.92,-75.56"/>
<polygon fill="midnightblue" stroke="midnightblue" points="2385.7,-179.69 2395.77,-176.37 2385.83,-172.69 2385.7,-179.69"/>
</g>
<!-- Node81 -->
<g id="node22" class="node">
<title>Node81</title>
<g id="a_node22"><a xlink:href="odp__api_8h.html" target="_top" xlink:title="The OpenDataPlane API.">
<polygon fill="white" stroke="black" points="1442.5,-0.5 1442.5,-19.5 1506.5,-19.5 1506.5,-0.5 1442.5,-0.5"/>
<text text-anchor="middle" x="1474.5" y="-7.5" font-family="Helvetica,sans-Serif" font-size="10.00">odp_api.h</text>
</a>
</g>
</g>
<!-- Node2&#45;&gt;Node81 -->
<g id="edge65" class="edge">
<title>Node2&#45;&gt;Node81</title>
<path fill="none" stroke="midnightblue" d="M2385.86,-177C2217.04,-176.65 1644.09,-172.47 1573.5,-132 1538.42,-111.89 1549.7,-86.8 1523.5,-56 1511.68,-42.1 1495.78,-28.22 1485.35,-19.62"/>
<polygon fill="midnightblue" stroke="midnightblue" points="2385.92,-180.5 2395.92,-177.01 2385.93,-173.5 2385.92,-180.5"/>
</g>
<!-- Node82 -->
<g id="node23" class="node">
<title>Node82</title>
<g id="a_node23"><a xlink:href="api_2classification_8h.html" target="_top" xlink:title="ODP classification descriptor.">
<polygon fill="white" stroke="red" points="1667,-56.5 1667,-75.5 1756,-75.5 1756,-56.5 1667,-56.5"/>
<text text-anchor="middle" x="1711.5" y="-63.5" font-family="Helvetica,sans-Serif" font-size="10.00">classification.h</text>
</a>
</g>
</g>
<!-- Node2&#45;&gt;Node82 -->
<g id="edge22" class="edge">
<title>Node2&#45;&gt;Node82</title>
<path fill="none" stroke="midnightblue" d="M2385.75,-176.28C2212.17,-173.36 1613.21,-161.22 1585.5,-132 1557.05,-101.99 1620.2,-83.38 1666.98,-74.12"/>
<polygon fill="midnightblue" stroke="midnightblue" points="2385.79,-179.78 2395.85,-176.44 2385.91,-172.78 2385.79,-179.78"/>
</g>
<!-- Node83 -->
<g id="node24" class="node">
<title>Node83</title>
<g id="a_node24"><a xlink:href="api_2spec_2ipsec__types_8h.html" target="_top" xlink:title="ODP IPsec API type definitions.">
<polygon fill="white" stroke="red" points="3133,-0.5 3133,-19.5 3216,-19.5 3216,-0.5 3133,-0.5"/>
<text text-anchor="middle" x="3174.5" y="-7.5" font-family="Helvetica,sans-Serif" font-size="10.00">ipsec_types.h</text>
</a>
</g>
</g>
<!-- Node2&#45;&gt;Node83 -->
<g id="edge40" class="edge">
<title>Node2&#45;&gt;Node83</title>
<path fill="none" stroke="midnightblue" d="M2479.42,-176.94C2793.63,-176.4 4580.72,-171.59 4619.5,-132 4721.24,-28.15 3462.82,-13.19 3216.06,-11.27"/>
<polygon fill="midnightblue" stroke="midnightblue" points="2479.28,-173.44 2469.29,-176.95 2479.3,-180.44 2479.28,-173.44"/>
</g>
<!-- Node89 -->
<g id="node25" class="node">
<title>Node89</title>
<g id="a_node25"><a xlink:href="api_2proto__stats_8h.html" target="_top" xlink:title="ODP proto stats.">
<polygon fill="white" stroke="black" points="1434.5,-56.5 1434.5,-75.5 1514.5,-75.5 1514.5,-56.5 1434.5,-56.5"/>
<text text-anchor="middle" x="1474.5" y="-63.5" font-family="Helvetica,sans-Serif" font-size="10.00">proto_stats.h</text>
</a>
</g>
</g>
<!-- Node2&#45;&gt;Node89 -->
<g id="edge25" class="edge">
<title>Node2&#45;&gt;Node89</title>
<path fill="none" stroke="midnightblue" d="M2385.78,-177.27C2209.19,-177.92 1588.62,-176.99 1513.5,-132 1492.27,-119.29 1481.19,-90.19 1476.8,-75.63"/>
<polygon fill="midnightblue" stroke="midnightblue" points="2385.81,-180.77 2395.8,-177.22 2385.79,-173.77 2385.81,-180.77"/>
</g>
<!-- Node90 -->
<g id="node26" class="node">
<title>Node90</title>
<g id="a_node26"><a xlink:href="api_2spec_2buffer_8h.html" target="_top" xlink:title="ODP buffer.">
<polygon fill="white" stroke="red" points="1594,-112.5 1594,-131.5 1647,-131.5 1647,-112.5 1594,-112.5"/>
<text text-anchor="middle" x="1620.5" y="-119.5" font-family="Helvetica,sans-Serif" font-size="10.00">buffer.h</text>
</a>
</g>
</g>
<!-- Node2&#45;&gt;Node90 -->
<g id="edge27" class="edge">
<title>Node2&#45;&gt;Node90</title>
<path fill="none" stroke="midnightblue" d="M2385.84,-177.32C2264.73,-177.5 1930.66,-173.84 1656.5,-132 1653.44,-131.53 1650.27,-130.93 1647.12,-130.25"/>
<polygon fill="midnightblue" stroke="midnightblue" points="2385.89,-180.82 2395.88,-177.3 2385.88,-173.82 2385.89,-180.82"/>
</g>
<!-- Node92 -->
<g id="node27" class="node">
<title>Node92</title>
<g id="a_node27"><a xlink:href="spec_2chksum_8h.html" target="_top" xlink:title="ODP checksum functions.">
<polygon fill="white" stroke="red" points="1665.5,-112.5 1665.5,-131.5 1729.5,-131.5 1729.5,-112.5 1665.5,-112.5"/>
<text text-anchor="middle" x="1697.5" y="-119.5" font-family="Helvetica,sans-Serif" font-size="10.00">chksum.h</text>
</a>
</g>
</g>
<!-- Node2&#45;&gt;Node92 -->
<g id="edge28" class="edge">
<title>Node2&#45;&gt;Node92</title>
<path fill="none" stroke="midnightblue" d="M2385.58,-176.32C2273.4,-174.17 1981,-165.53 1739.5,-132 1736.25,-131.55 1732.88,-130.99 1729.52,-130.37"/>
<polygon fill="midnightblue" stroke="midnightblue" points="2385.81,-179.82 2395.87,-176.5 2385.93,-172.82 2385.81,-179.82"/>
</g>
<!-- Node94 -->
<g id="node28" class="node">
<title>Node94</title>
<g id="a_node28"><a xlink:href="api_2spec_2classification_8h.html" target="_top" xlink:title="ODP classification descriptor.">
<polygon fill="white" stroke="black" points="1748,-112.5 1748,-131.5 1837,-131.5 1837,-112.5 1748,-112.5"/>
<text text-anchor="middle" x="1792.5" y="-119.5" font-family="Helvetica,sans-Serif" font-size="10.00">classification.h</text>
</a>
</g>
</g>
<!-- Node2&#45;&gt;Node94 -->
<g id="edge29" class="edge">
<title>Node2&#45;&gt;Node94</title>
<path fill="none" stroke="midnightblue" d="M2385.67,-174.81C2286.15,-169.86 2046.32,-156.28 1846.5,-132 1843.48,-131.63 1840.37,-131.22 1837.25,-130.77"/>
<polygon fill="midnightblue" stroke="midnightblue" points="2385.55,-178.31 2395.71,-175.31 2385.89,-171.32 2385.55,-178.31"/>
</g>
<!-- Node95 -->
<g id="node29" class="node">
<title>Node95</title>
<g id="a_node29"><a xlink:href="api_2spec_2comp_8h.html" target="_top" xlink:title="ODP Compression.">
<polygon fill="white" stroke="red" points="1855,-112.5 1855,-131.5 1908,-131.5 1908,-112.5 1855,-112.5"/>
<text text-anchor="middle" x="1881.5" y="-119.5" font-family="Helvetica,sans-Serif" font-size="10.00">comp.h</text>
</a>
</g>
</g>
<!-- Node2&#45;&gt;Node95 -->
<g id="edge31" class="edge">
<title>Node2&#45;&gt;Node95</title>
<path fill="none" stroke="midnightblue" d="M2385.47,-175.37C2294.52,-171.68 2088.43,-160.65 1917.5,-132 1914.45,-131.49 1911.28,-130.85 1908.14,-130.16"/>
<polygon fill="midnightblue" stroke="midnightblue" points="2385.59,-178.88 2395.72,-175.78 2385.87,-171.89 2385.59,-178.88"/>
</g>
<!-- Node97 -->
<g id="node30" class="node">
<title>Node97</title>
<g id="a_node30"><a xlink:href="api_2spec_2cpu_8h.html" target="_top" xlink:title="ODP CPU API.">
<polygon fill="white" stroke="red" points="1926,-112.5 1926,-131.5 1969,-131.5 1969,-112.5 1926,-112.5"/>
<text text-anchor="middle" x="1947.5" y="-119.5" font-family="Helvetica,sans-Serif" font-size="10.00">cpu.h</text>
</a>
</g>
</g>
<!-- Node2&#45;&gt;Node97 -->
<g id="edge32" class="edge">
<title>Node2&#45;&gt;Node97</title>
<path fill="none" stroke="midnightblue" d="M2385.9,-175.21C2303.19,-171.4 2125.61,-160.4 1978.5,-132 1975.42,-131.41 1972.2,-130.64 1969.06,-129.81"/>
<polygon fill="midnightblue" stroke="midnightblue" points="2385.83,-178.71 2395.98,-175.66 2386.15,-171.71 2385.83,-178.71"/>
</g>
<!-- Node99 -->
<g id="node31" class="node">
<title>Node99</title>
<g id="a_node31"><a xlink:href="api_2spec_2crypto_8h.html" target="_top" xlink:title="ODP crypto.">
<polygon fill="white" stroke="red" points="1987.5,-112.5 1987.5,-131.5 2043.5,-131.5 2043.5,-112.5 1987.5,-112.5"/>
<text text-anchor="middle" x="2015.5" y="-119.5" font-family="Helvetica,sans-Serif" font-size="10.00">crypto.h</text>
</a>
</g>
</g>
<!-- Node2&#45;&gt;Node99 -->
<g id="edge33" class="edge">
<title>Node2&#45;&gt;Node99</title>
<path fill="none" stroke="midnightblue" d="M2385.91,-173.2C2314.15,-166.95 2172.43,-153.07 2053.5,-132 2050.3,-131.43 2046.96,-130.76 2043.65,-130.04"/>
<polygon fill="midnightblue" stroke="midnightblue" points="2385.71,-176.69 2395.98,-174.06 2386.31,-169.72 2385.71,-176.69"/>
</g>
<!-- Node101 -->
<g id="node32" class="node">
<title>Node101</title>
<g id="a_node32"><a xlink:href="api_2spec_2crypto__types_8h.html" target="_top" xlink:title="ODP crypto types.">
<polygon fill="white" stroke="red" points="2062,-112.5 2062,-131.5 2151,-131.5 2151,-112.5 2062,-112.5"/>
<text text-anchor="middle" x="2106.5" y="-119.5" font-family="Helvetica,sans-Serif" font-size="10.00">crypto_types.h</text>
</a>
</g>
</g>
<!-- Node2&#45;&gt;Node101 -->
<g id="edge34" class="edge">
<title>Node2&#45;&gt;Node101</title>
<path fill="none" stroke="midnightblue" d="M2386,-169.32C2331.84,-160.38 2239.68,-145.15 2160.5,-132 2157.5,-131.5 2154.41,-130.99 2151.29,-130.47"/>
<polygon fill="midnightblue" stroke="midnightblue" points="2385.55,-172.8 2395.98,-170.97 2386.69,-165.89 2385.55,-172.8"/>
</g>
<!-- Node103 -->
<g id="node33" class="node">
<title>Node103</title>
<g id="a_node33"><a xlink:href="api_2spec_2dma__types_8h.html" target="_top" xlink:title="ODP DMA.">
<polygon fill="white" stroke="red" points="2169.5,-112.5 2169.5,-131.5 2249.5,-131.5 2249.5,-112.5 2169.5,-112.5"/>
<text text-anchor="middle" x="2209.5" y="-119.5" font-family="Helvetica,sans-Serif" font-size="10.00">dma_types.h</text>
</a>
</g>
</g>
<!-- Node2&#45;&gt;Node103 -->
<g id="edge35" class="edge">
<title>Node2&#45;&gt;Node103</title>
<path fill="none" stroke="midnightblue" d="M2387.44,-166.09C2345.31,-155.89 2283.26,-140.86 2244.67,-131.52"/>
<polygon fill="midnightblue" stroke="midnightblue" points="2386.62,-169.49 2397.16,-168.44 2388.27,-162.69 2386.62,-169.49"/>
</g>
<!-- Node125 -->
<g id="node34" class="node">
<title>Node125</title>
<g id="a_node34"><a xlink:href="api_2spec_2event__vector__types_8h.html" target="_top" xlink:title="ODP event vector API type definitions.">
<polygon fill="white" stroke="red" points="2267.5,-112.5 2267.5,-131.5 2389.5,-131.5 2389.5,-112.5 2267.5,-112.5"/>
<text text-anchor="middle" x="2328.5" y="-119.5" font-family="Helvetica,sans-Serif" font-size="10.00">event_vector_types.h</text>
</a>
</g>
</g>
<!-- Node2&#45;&gt;Node125 -->
<g id="edge36" class="edge">
<title>Node2&#45;&gt;Node125</title>
<path fill="none" stroke="midnightblue" d="M2406.67,-163.59C2387.44,-153.61 2361.76,-140.27 2345.17,-131.65"/>
<polygon fill="midnightblue" stroke="midnightblue" points="2405.3,-166.82 2415.79,-168.32 2408.53,-160.61 2405.3,-166.82"/>
</g>
<!-- Node143 -->
<g id="node35" class="node">
<title>Node143</title>
<g id="a_node35"><a xlink:href="api_2spec_2hash_8h.html" target="_top" xlink:title="ODP Hash functions.">
<polygon fill="white" stroke="red" points="2408,-112.5 2408,-131.5 2457,-131.5 2457,-112.5 2408,-112.5"/>
<text text-anchor="middle" x="2432.5" y="-119.5" font-family="Helvetica,sans-Serif" font-size="10.00">hash.h</text>
</a>
</g>
</g>
<!-- Node2&#45;&gt;Node143 -->
<g id="edge37" class="edge">
<title>Node2&#45;&gt;Node143</title>
<path fill="none" stroke="midnightblue" d="M2432.5,-157.8C2432.5,-148.91 2432.5,-138.78 2432.5,-131.75"/>
<polygon fill="midnightblue" stroke="midnightblue" points="2429,-158.08 2432.5,-168.08 2436,-158.08 2429,-158.08"/>
</g>
<!-- Node145 -->
<g id="node36" class="node">
<title>Node145</title>
<g id="a_node36"><a xlink:href="api_2spec_2init_8h.html" target="_top" xlink:title=" ">
<polygon fill="white" stroke="red" points="2475,-112.5 2475,-131.5 2516,-131.5 2516,-112.5 2475,-112.5"/>
<text text-anchor="middle" x="2495.5" y="-119.5" font-family="Helvetica,sans-Serif" font-size="10.00">init.h</text>
</a>
</g>
</g>
<!-- Node2&#45;&gt;Node145 -->
<g id="edge38" class="edge">
<title>Node2&#45;&gt;Node145</title>
<path fill="none" stroke="midnightblue" d="M2450.54,-161.54C2461.77,-151.91 2475.82,-139.87 2485.19,-131.83"/>
<polygon fill="midnightblue" stroke="midnightblue" points="2447.94,-159.16 2442.62,-168.32 2452.49,-164.47 2447.94,-159.16"/>
</g>
<!-- Node85 -->
<g id="node37" class="node">
<title>Node85</title>
<g id="a_node37"><a xlink:href="api_2spec_2ipsec_8h.html" target="_top" xlink:title="ODP IPsec API.">
<polygon fill="white" stroke="red" points="2534,-112.5 2534,-131.5 2585,-131.5 2585,-112.5 2534,-112.5"/>
<text text-anchor="middle" x="2559.5" y="-119.5" font-family="Helvetica,sans-Serif" font-size="10.00">ipsec.h</text>
</a>
</g>
</g>
<!-- Node2&#45;&gt;Node85 -->
<g id="edge39" class="edge">
<title>Node2&#45;&gt;Node85</title>
<path fill="none" stroke="midnightblue" d="M2461.89,-164.5C2485.7,-154.38 2518.61,-140.39 2539.47,-131.52"/>
<polygon fill="midnightblue" stroke="midnightblue" points="2460.46,-161.31 2452.62,-168.44 2463.2,-167.75 2460.46,-161.31"/>
</g>
<!-- Node113 -->
<g id="node38" class="node">
<title>Node113</title>
<g id="a_node38"><a xlink:href="spec_2ml_8h.html" target="_top" xlink:title="ODP Machine Learning (ML) offload.">
<polygon fill="white" stroke="red" points="2603.5,-112.5 2603.5,-131.5 2641.5,-131.5 2641.5,-112.5 2603.5,-112.5"/>
<text text-anchor="middle" x="2622.5" y="-119.5" font-family="Helvetica,sans-Serif" font-size="10.00">ml.h</text>
</a>
</g>
</g>
<!-- Node2&#45;&gt;Node113 -->
<g id="edge41" class="edge">
<title>Node2&#45;&gt;Node113</title>
<path fill="none" stroke="midnightblue" d="M2474.28,-165.89C2507.08,-157.05 2553.83,-144.18 2594.5,-132 2597.34,-131.15 2600.33,-130.22 2603.25,-129.3"/>
<polygon fill="midnightblue" stroke="midnightblue" points="2473.32,-162.52 2464.58,-168.5 2475.14,-169.28 2473.32,-162.52"/>
</g>
<!-- Node149 -->
<g id="node39" class="node">
<title>Node149</title>
<g id="a_node39"><a xlink:href="spec_2ml__quantize_8h.html" target="_top" xlink:title="ODP Machine Learning (ML) quantization functions.">
<polygon fill="white" stroke="red" points="2659.5,-112.5 2659.5,-131.5 2745.5,-131.5 2745.5,-112.5 2659.5,-112.5"/>
<text text-anchor="middle" x="2702.5" y="-119.5" font-family="Helvetica,sans-Serif" font-size="10.00">ml_quantize.h</text>
</a>
</g>
</g>
<!-- Node2&#45;&gt;Node149 -->
<g id="edge42" class="edge">
<title>Node2&#45;&gt;Node149</title>
<path fill="none" stroke="midnightblue" d="M2479.25,-167.65C2530.02,-157.5 2610.45,-141.41 2659.65,-131.57"/>
<polygon fill="midnightblue" stroke="midnightblue" points="2478.31,-164.27 2469.19,-169.66 2479.69,-171.13 2478.31,-164.27"/>
</g>
<!-- Node129 -->
<g id="node40" class="node">
<title>Node129</title>
<g id="a_node40"><a xlink:href="api_2spec_2ml__types_8h.html" target="_top" xlink:title="ODP Machine Learning (ML) types.">
<polygon fill="white" stroke="red" points="2764,-112.5 2764,-131.5 2835,-131.5 2835,-112.5 2764,-112.5"/>
<text text-anchor="middle" x="2799.5" y="-119.5" font-family="Helvetica,sans-Serif" font-size="10.00">ml_types.h</text>
</a>
</g>
</g>
<!-- Node2&#45;&gt;Node129 -->
<g id="edge43" class="edge">
<title>Node2&#45;&gt;Node129</title>
<path fill="none" stroke="midnightblue" d="M2479.3,-171.33C2542.08,-163.53 2656.98,-148.55 2754.5,-132 2757.48,-131.49 2760.58,-130.94 2763.67,-130.36"/>
<polygon fill="midnightblue" stroke="midnightblue" points="2478.8,-167.87 2469.31,-172.57 2479.66,-174.81 2478.8,-167.87"/>
</g>
<!-- Node115 -->
<g id="node41" class="node">
<title>Node115</title>
<g id="a_node41"><a xlink:href="api_2spec_2packet_8h.html" target="_top" xlink:title="ODP packet descriptor.">
<polygon fill="white" stroke="red" points="2853.5,-112.5 2853.5,-131.5 2911.5,-131.5 2911.5,-112.5 2853.5,-112.5"/>
<text text-anchor="middle" x="2882.5" y="-119.5" font-family="Helvetica,sans-Serif" font-size="10.00">packet.h</text>
</a>
</g>
</g>
<!-- Node2&#45;&gt;Node115 -->
<g id="edge44" class="edge">
<title>Node2&#45;&gt;Node115</title>
<path fill="none" stroke="midnightblue" d="M2479.37,-173.78C2556.09,-168.08 2713.12,-154.64 2844.5,-132 2847.31,-131.52 2850.21,-130.95 2853.12,-130.34"/>
<polygon fill="midnightblue" stroke="midnightblue" points="2478.8,-170.31 2469.09,-174.53 2479.32,-177.29 2478.8,-170.31"/>
</g>
<!-- Node135 -->
<g id="node42" class="node">
<title>Node135</title>
<g id="a_node42"><a xlink:href="api_2spec_2packet__flags_8h.html" target="_top" xlink:title="ODP packet flags.">
<polygon fill="white" stroke="red" points="2929.5,-112.5 2929.5,-131.5 3015.5,-131.5 3015.5,-112.5 2929.5,-112.5"/>
<text text-anchor="middle" x="2972.5" y="-119.5" font-family="Helvetica,sans-Serif" font-size="10.00">packet_flags.h</text>
</a>
</g>
</g>
<!-- Node2&#45;&gt;Node135 -->
<g id="edge45" class="edge">
<title>Node2&#45;&gt;Node135</title>
<path fill="none" stroke="midnightblue" d="M2479.11,-173.94C2566.1,-167.95 2759.01,-153.39 2920.5,-132 2923.41,-131.62 2926.4,-131.19 2929.41,-130.73"/>
<polygon fill="midnightblue" stroke="midnightblue" points="2478.77,-170.45 2469.04,-174.63 2479.25,-177.44 2478.77,-170.45"/>
</g>
<!-- Node117 -->
<g id="node43" class="node">
<title>Node117</title>
<g id="a_node43"><a xlink:href="api_2spec_2packet__io__types_8h.html" target="_top" xlink:title="ODP Packet IO types.">
<polygon fill="white" stroke="red" points="3033.5,-112.5 3033.5,-131.5 3137.5,-131.5 3137.5,-112.5 3033.5,-112.5"/>
<text text-anchor="middle" x="3085.5" y="-119.5" font-family="Helvetica,sans-Serif" font-size="10.00">packet_io_types.h</text>
</a>
</g>
</g>
<!-- Node2&#45;&gt;Node117 -->
<g id="edge46" class="edge">
<title>Node2&#45;&gt;Node117</title>
<path fill="none" stroke="midnightblue" d="M2479.4,-174.56C2579.66,-169.11 2822.17,-154.59 3024.5,-132 3027.37,-131.68 3030.32,-131.33 3033.29,-130.95"/>
<polygon fill="midnightblue" stroke="midnightblue" points="2479.1,-171.07 2469.3,-175.11 2479.48,-178.06 2479.1,-171.07"/>
</g>
<!-- Node121 -->
<g id="node44" class="node">
<title>Node121</title>
<g id="a_node44"><a xlink:href="api_2spec_2pool_8h.html" target="_top" xlink:title="ODP pool.">
<polygon fill="white" stroke="red" points="3156,-112.5 3156,-131.5 3203,-131.5 3203,-112.5 3156,-112.5"/>
<text text-anchor="middle" x="3179.5" y="-119.5" font-family="Helvetica,sans-Serif" font-size="10.00">pool.h</text>
</a>
</g>
</g>
<!-- Node2&#45;&gt;Node121 -->
<g id="edge47" class="edge">
<title>Node2&#45;&gt;Node121</title>
<path fill="none" stroke="midnightblue" d="M2479.39,-177.32C2594.08,-177.41 2897.58,-173.35 3146.5,-132 3149.55,-131.49 3152.72,-130.82 3155.83,-130.07"/>
<polygon fill="midnightblue" stroke="midnightblue" points="2479.21,-173.82 2469.21,-177.31 2479.2,-180.82 2479.21,-173.82"/>
</g>
<!-- Node107 -->
<g id="node45" class="node">
<title>Node107</title>
<g id="a_node45"><a xlink:href="api_2spec_2pool__types_8h.html" target="_top" xlink:title="Type definitions for pools.">
<polygon fill="white" stroke="red" points="3221,-112.5 3221,-131.5 3300,-131.5 3300,-112.5 3221,-112.5"/>
<text text-anchor="middle" x="3260.5" y="-119.5" font-family="Helvetica,sans-Serif" font-size="10.00">pool_types.h</text>
</a>
</g>
</g>
<!-- Node2&#45;&gt;Node107 -->
<g id="edge48" class="edge">
<title>Node2&#45;&gt;Node107</title>
<path fill="none" stroke="midnightblue" d="M2479.26,-176.38C2600.69,-174.33 2935.8,-165.78 3212.5,-132 3215.19,-131.67 3217.96,-131.28 3220.75,-130.86"/>
<polygon fill="midnightblue" stroke="midnightblue" points="2479.14,-172.88 2469.2,-176.55 2479.25,-179.88 2479.14,-172.88"/>
</g>
<!-- Node151 -->
<g id="node46" class="node">
<title>Node151</title>
<g id="a_node46"><a xlink:href="api_2spec_2proto__stats__types_8h.html" target="_top" xlink:title="ODP proto stats types.">
<polygon fill="white" stroke="red" points="3318,-112.5 3318,-131.5 3431,-131.5 3431,-112.5 3318,-112.5"/>
<text text-anchor="middle" x="3374.5" y="-119.5" font-family="Helvetica,sans-Serif" font-size="10.00">proto_stats_types.h</text>
</a>
</g>
</g>
<!-- Node2&#45;&gt;Node151 -->
<g id="edge49" class="edge">
<title>Node2&#45;&gt;Node151</title>
<path fill="none" stroke="midnightblue" d="M2479.46,-176.02C2610.84,-172.96 2993.26,-161.95 3309.5,-132 3312.22,-131.74 3315,-131.45 3317.81,-131.14"/>
<polygon fill="midnightblue" stroke="midnightblue" points="2479.26,-172.52 2469.34,-176.25 2479.42,-179.52 2479.26,-172.52"/>
</g>
<!-- Node137 -->
<g id="node47" class="node">
<title>Node137</title>
<g id="a_node47"><a xlink:href="api_2spec_2queue_8h.html" target="_top" xlink:title="ODP queue.">
<polygon fill="white" stroke="red" points="3449.5,-112.5 3449.5,-131.5 3505.5,-131.5 3505.5,-112.5 3449.5,-112.5"/>
<text text-anchor="middle" x="3477.5" y="-119.5" font-family="Helvetica,sans-Serif" font-size="10.00">queue.h</text>
</a>
</g>
</g>
<!-- Node2&#45;&gt;Node137 -->
<g id="edge50" class="edge">
<title>Node2&#45;&gt;Node137</title>
<path fill="none" stroke="midnightblue" d="M2479.06,-176.12C2651.15,-172.68 3251.11,-159 3440.5,-132 3443.38,-131.59 3446.36,-131.05 3449.33,-130.45"/>
<polygon fill="midnightblue" stroke="midnightblue" points="2478.98,-172.62 2469.06,-176.32 2479.12,-179.62 2478.98,-172.62"/>
</g>
<!-- Node154 -->
<g id="node48" class="node">
<title>Node154</title>
<g id="a_node48"><a xlink:href="api_2spec_2random_8h.html" target="_top" xlink:title="ODP random number API.">
<polygon fill="white" stroke="red" points="3524,-112.5 3524,-131.5 3587,-131.5 3587,-112.5 3524,-112.5"/>
<text text-anchor="middle" x="3555.5" y="-119.5" font-family="Helvetica,sans-Serif" font-size="10.00">random.h</text>
</a>
</g>
</g>
<!-- Node2&#45;&gt;Node154 -->
<g id="edge51" class="edge">
<title>Node2&#45;&gt;Node154</title>
<path fill="none" stroke="midnightblue" d="M2479.43,-176.14C2659.95,-172.66 3309.75,-158.52 3514.5,-132 3517.54,-131.61 3520.68,-131.1 3523.81,-130.53"/>
<polygon fill="midnightblue" stroke="midnightblue" points="2479.13,-172.64 2469.2,-176.33 2479.27,-179.64 2479.13,-172.64"/>
</g>
<!-- Node156 -->
<g id="node49" class="node">
<title>Node156</title>
<g id="a_node49"><a xlink:href="spec_2random__types_8h.html" target="_top" xlink:title="ODP random number API.">
<polygon fill="white" stroke="red" points="3605,-112.5 3605,-131.5 3700,-131.5 3700,-112.5 3605,-112.5"/>
<text text-anchor="middle" x="3652.5" y="-119.5" font-family="Helvetica,sans-Serif" font-size="10.00">random_types.h</text>
</a>
</g>
</g>
<!-- Node2&#45;&gt;Node156 -->
<g id="edge52" class="edge">
<title>Node2&#45;&gt;Node156</title>
<path fill="none" stroke="midnightblue" d="M2479.62,-177.21C2637.81,-177.5 3164.2,-174.94 3596.5,-132 3599.24,-131.73 3602.06,-131.41 3604.89,-131.05"/>
<polygon fill="midnightblue" stroke="midnightblue" points="2479.31,-173.71 2469.31,-177.19 2479.3,-180.71 2479.31,-173.71"/>
</g>
<!-- Node158 -->
<g id="node50" class="node">
<title>Node158</title>
<g id="a_node50"><a xlink:href="spec_2reassembly_8h.html" target="_top" xlink:title="ODP REASSEMBLY API.">
<polygon fill="white" stroke="red" points="3718,-112.5 3718,-131.5 3799,-131.5 3799,-112.5 3718,-112.5"/>
<text text-anchor="middle" x="3758.5" y="-119.5" font-family="Helvetica,sans-Serif" font-size="10.00">reassembly.h</text>
</a>
</g>
</g>
<!-- Node2&#45;&gt;Node158 -->
<g id="edge53" class="edge">
<title>Node2&#45;&gt;Node158</title>
<path fill="none" stroke="midnightblue" d="M2479.39,-176.27C2679.64,-173 3464,-158.73 3709.5,-132 3712.25,-131.7 3715.08,-131.34 3717.93,-130.93"/>
<polygon fill="midnightblue" stroke="midnightblue" points="2479.15,-172.77 2469.21,-176.43 2479.27,-179.77 2479.15,-172.77"/>
</g>
<!-- Node139 -->
<g id="node51" class="node">
<title>Node139</title>
<g id="a_node51"><a xlink:href="api_2spec_2schedule_8h.html" target="_top" xlink:title="ODP schedule.">
<polygon fill="white" stroke="red" points="3817,-112.5 3817,-131.5 3886,-131.5 3886,-112.5 3817,-112.5"/>
<text text-anchor="middle" x="3851.5" y="-119.5" font-family="Helvetica,sans-Serif" font-size="10.00">schedule.h</text>
</a>
</g>
</g>
<!-- Node2&#45;&gt;Node139 -->
<g id="edge54" class="edge">
<title>Node2&#45;&gt;Node139</title>
<path fill="none" stroke="midnightblue" d="M2479.25,-176.56C2688.79,-174.43 3542.75,-163.91 3808.5,-132 3811.23,-131.67 3814.04,-131.26 3816.85,-130.79"/>
<polygon fill="midnightblue" stroke="midnightblue" points="2479.16,-173.06 2469.2,-176.66 2479.23,-180.06 2479.16,-173.06"/>
</g>
<!-- Node141 -->
<g id="node52" class="node">
<title>Node141</title>
<g id="a_node52"><a xlink:href="api_2spec_2schedule__types_8h.html" target="_top" xlink:title="ODP schedule types.">
<polygon fill="white" stroke="red" points="3904,-112.5 3904,-131.5 4005,-131.5 4005,-112.5 3904,-112.5"/>
<text text-anchor="middle" x="3954.5" y="-119.5" font-family="Helvetica,sans-Serif" font-size="10.00">schedule_types.h</text>
</a>
</g>
</g>
<!-- Node2&#45;&gt;Node141 -->
<g id="edge55" class="edge">
<title>Node2&#45;&gt;Node141</title>
<path fill="none" stroke="midnightblue" d="M2479.31,-176.32C2696.9,-173.05 3610.88,-157.99 3895.5,-132 3898.18,-131.76 3900.93,-131.47 3903.7,-131.15"/>
<polygon fill="midnightblue" stroke="midnightblue" points="2479.13,-172.82 2469.19,-176.47 2479.24,-179.82 2479.13,-172.82"/>
</g>
<!-- Node160 -->
<g id="node53" class="node">
<title>Node160</title>
<g id="a_node53"><a xlink:href="api_2spec_2stash__types_8h.html" target="_top" xlink:title="ODP stash types.">
<polygon fill="white" stroke="red" points="4023.5,-112.5 4023.5,-131.5 4107.5,-131.5 4107.5,-112.5 4023.5,-112.5"/>
<text text-anchor="middle" x="4065.5" y="-119.5" font-family="Helvetica,sans-Serif" font-size="10.00">stash_types.h</text>
</a>
</g>
</g>
<!-- Node2&#45;&gt;Node160 -->
<g id="edge56" class="edge">
<title>Node2&#45;&gt;Node160</title>
<path fill="none" stroke="midnightblue" d="M2479.37,-176.59C2707.75,-174.46 3705.4,-163.5 4014.5,-132 4017.36,-131.71 4020.31,-131.35 4023.27,-130.94"/>
<polygon fill="midnightblue" stroke="midnightblue" points="2479.05,-173.09 2469.08,-176.69 2479.12,-180.09 2479.05,-173.09"/>
</g>
<!-- Node164 -->
<g id="node54" class="node">
<title>Node164</title>
<g id="a_node54"><a xlink:href="api_2spec_2std_8h.html" target="_top" xlink:title="ODP standard types and optimized C library functions.">
<polygon fill="white" stroke="red" points="4126,-112.5 4126,-131.5 4167,-131.5 4167,-112.5 4126,-112.5"/>
<text text-anchor="middle" x="4146.5" y="-119.5" font-family="Helvetica,sans-Serif" font-size="10.00">std.h</text>
</a>
</g>
</g>
<!-- Node2&#45;&gt;Node164 -->
<g id="edge57" class="edge">
<title>Node2&#45;&gt;Node164</title>
<path fill="none" stroke="midnightblue" d="M2479.39,-176.49C2734.63,-173.6 3951.21,-158.52 4116.5,-132 4119.51,-131.52 4122.63,-130.82 4125.68,-130.01"/>
<polygon fill="midnightblue" stroke="midnightblue" points="2479.3,-172.99 2469.34,-176.6 2479.38,-179.99 2479.3,-172.99"/>
</g>
<!-- Node166 -->
<g id="node55" class="node">
<title>Node166</title>
<g id="a_node55"><a xlink:href="spec_2threshold_8h.html" target="_top" xlink:title="ODP threshold descriptor.">
<polygon fill="white" stroke="red" points="4185,-112.5 4185,-131.5 4256,-131.5 4256,-112.5 4185,-112.5"/>
<text text-anchor="middle" x="4220.5" y="-119.5" font-family="Helvetica,sans-Serif" font-size="10.00">threshold.h</text>
</a>
</g>
</g>
<!-- Node2&#45;&gt;Node166 -->
<g id="edge58" class="edge">
<title>Node2&#45;&gt;Node166</title>
<path fill="none" stroke="midnightblue" d="M2479.43,-176.91C2721.85,-176.25 3834.03,-171.14 4176.5,-132 4179.13,-131.7 4181.84,-131.32 4184.56,-130.89"/>
<polygon fill="midnightblue" stroke="midnightblue" points="2479.19,-173.41 2469.2,-176.93 2479.21,-180.41 2479.19,-173.41"/>
</g>
<!-- Node168 -->
<g id="node56" class="node">
<title>Node168</title>
<g id="a_node56"><a xlink:href="api_2spec_2thrmask_8h.html" target="_top" xlink:title="ODP thread masks.">
<polygon fill="white" stroke="red" points="4274.5,-112.5 4274.5,-131.5 4340.5,-131.5 4340.5,-112.5 4274.5,-112.5"/>
<text text-anchor="middle" x="4307.5" y="-119.5" font-family="Helvetica,sans-Serif" font-size="10.00">thrmask.h</text>
</a>
</g>
</g>
<!-- Node2&#45;&gt;Node168 -->
<g id="edge59" class="edge">
<title>Node2&#45;&gt;Node168</title>
<path fill="none" stroke="midnightblue" d="M2479.41,-177.03C2729.16,-177.03 3904.58,-174.72 4265.5,-132 4268.31,-131.67 4271.22,-131.23 4274.12,-130.74"/>
<polygon fill="midnightblue" stroke="midnightblue" points="2479.23,-173.53 2469.23,-177.03 2479.23,-180.53 2479.23,-173.53"/>
</g>
<!-- Node170 -->
<g id="node57" class="node">
<title>Node170</title>
<g id="a_node57"><a xlink:href="api_2spec_2time_8h.html" target="_top" xlink:title="ODP time.">
<polygon fill="white" stroke="red" points="4358.5,-112.5 4358.5,-131.5 4406.5,-131.5 4406.5,-112.5 4358.5,-112.5"/>
<text text-anchor="middle" x="4382.5" y="-119.5" font-family="Helvetica,sans-Serif" font-size="10.00">time.h</text>
</a>
</g>
</g>
<!-- Node2&#45;&gt;Node170 -->
<g id="edge60" class="edge">
<title>Node2&#45;&gt;Node170</title>
<path fill="none" stroke="midnightblue" d="M2479.11,-176.58C2754.13,-174.03 4159.44,-159.73 4349.5,-132 4352.44,-131.57 4355.49,-130.97 4358.49,-130.27"/>
<polygon fill="midnightblue" stroke="midnightblue" points="2479.03,-173.08 2469.06,-176.68 2479.1,-180.08 2479.03,-173.08"/>
</g>
<!-- Node172 -->
<g id="node58" class="node">
<title>Node172</title>
<g id="a_node58"><a xlink:href="api_2spec_2timer__types_8h.html" target="_top" xlink:title="ODP timer API type definitions.">
<polygon fill="white" stroke="red" points="4424.5,-112.5 4424.5,-131.5 4508.5,-131.5 4508.5,-112.5 4424.5,-112.5"/>
<text text-anchor="middle" x="4466.5" y="-119.5" font-family="Helvetica,sans-Serif" font-size="10.00">timer_types.h</text>
</a>
</g>
</g>
<!-- Node2&#45;&gt;Node172 -->
<g id="edge61" class="edge">
<title>Node2&#45;&gt;Node172</title>
<path fill="none" stroke="midnightblue" d="M2479.4,-176.9C2741,-176.22 4022.36,-170.92 4415.5,-132 4418.36,-131.72 4421.31,-131.36 4424.27,-130.96"/>
<polygon fill="midnightblue" stroke="midnightblue" points="2479.1,-173.4 2469.11,-176.93 2479.12,-180.4 2479.1,-173.4"/>
</g>
<!-- Node119 -->
<g id="node59" class="node">
<title>Node119</title>
<g id="a_node59"><a xlink:href="api_2spec_2traffic__mngr_8h.html" target="_top" xlink:title=" ">
<polygon fill="white" stroke="red" points="4526.5,-112.5 4526.5,-131.5 4610.5,-131.5 4610.5,-112.5 4526.5,-112.5"/>
<text text-anchor="middle" x="4568.5" y="-119.5" font-family="Helvetica,sans-Serif" font-size="10.00">traffic_mngr.h</text>
</a>
</g>
</g>
<!-- Node2&#45;&gt;Node119 -->
<g id="edge62" class="edge">
<title>Node2&#45;&gt;Node119</title>
<path fill="none" stroke="midnightblue" d="M2479.21,-176.96C2748.28,-176.62 4102.81,-172.82 4517.5,-132 4520.36,-131.72 4523.31,-131.37 4526.27,-130.97"/>
<polygon fill="midnightblue" stroke="midnightblue" points="2479.01,-173.46 2469.02,-176.98 2479.02,-180.46 2479.01,-173.46"/>
</g>
<!-- Node174 -->
<g id="node60" class="node">
<title>Node174</title>
<g id="a_node60"><a xlink:href="system__info_8h.html" target="_top" xlink:title="ODP system information.">
<polygon fill="white" stroke="black" points="1254.5,-56.5 1254.5,-75.5 1340.5,-75.5 1340.5,-56.5 1254.5,-56.5"/>
<text text-anchor="middle" x="1297.5" y="-63.5" font-family="Helvetica,sans-Serif" font-size="10.00">system_info.h</text>
</a>
</g>
</g>
<!-- Node2&#45;&gt;Node174 -->
<g id="edge63" class="edge">
<title>Node2&#45;&gt;Node174</title>
<path fill="none" stroke="midnightblue" d="M2385.74,-177.19C2214.89,-177.51 1625,-175.39 1442.5,-132 1435.89,-130.43 1353.59,-92.78 1316,-75.52"/>
<polygon fill="midnightblue" stroke="midnightblue" points="2385.92,-180.69 2395.91,-177.16 2385.9,-173.69 2385.92,-180.69"/>
</g>
<!-- Node4 -->
<g id="node4" class="node">
<title>Node4</title>
<g id="a_node4"><a xlink:href="arch_2arm32-linux_2odp_2api_2abi_2atomic_8h_source.html" target="_top" xlink:title=" ">
<polygon fill="white" stroke="black" points="385,-56.5 385,-75.5 444,-75.5 444,-56.5 385,-56.5"/>
<text text-anchor="middle" x="414.5" y="-63.5" font-family="Helvetica,sans-Serif" font-size="10.00">atomic.h</text>
</a>
</g>
</g>
<!-- Node3&#45;&gt;Node4 -->
<g id="edge3" class="edge">
<title>Node3&#45;&gt;Node4</title>
<path fill="none" stroke="midnightblue" d="M294.61,-109.04C323.59,-98.88 364.46,-84.55 390.21,-75.52"/>
<polygon fill="midnightblue" stroke="midnightblue" points="293.18,-105.83 284.9,-112.44 295.5,-112.44 293.18,-105.83"/>
</g>
<!-- Node5 -->
<g id="node5" class="node">
<title>Node5</title>
<g id="a_node5"><a xlink:href="arch_2arm64-linux_2odp_2api_2abi_2atomic_8h_source.html" target="_top" xlink:title=" ">
<polygon fill="white" stroke="black" points="0,-56.5 0,-75.5 59,-75.5 59,-56.5 0,-56.5"/>
<text text-anchor="middle" x="29.5" y="-63.5" font-family="Helvetica,sans-Serif" font-size="10.00">atomic.h</text>
</a>
</g>
</g>
<!-- Node3&#45;&gt;Node5 -->
<g id="edge4" class="edge">
<title>Node3&#45;&gt;Node5</title>
<path fill="none" stroke="midnightblue" d="M220.83,-111.79C181.8,-102.73 120.54,-88.46 67.5,-76 64.86,-75.38 62.12,-74.73 59.37,-74.08"/>
<polygon fill="midnightblue" stroke="midnightblue" points="220.2,-115.24 230.74,-114.09 221.79,-108.42 220.2,-115.24"/>
</g>
<!-- Node6 -->
<g id="node6" class="node">
<title>Node6</title>
<g id="a_node6"><a xlink:href="arch_2default-linux_2odp_2api_2abi_2atomic_8h_source.html" target="_top" xlink:title=" ">
<polygon fill="white" stroke="black" points="77,-56.5 77,-75.5 136,-75.5 136,-56.5 77,-56.5"/>
<text text-anchor="middle" x="106.5" y="-63.5" font-family="Helvetica,sans-Serif" font-size="10.00">atomic.h</text>
</a>
</g>
</g>
<!-- Node3&#45;&gt;Node6 -->
<g id="edge5" class="edge">
<title>Node3&#45;&gt;Node6</title>
<path fill="none" stroke="midnightblue" d="M226.39,-109.04C197.41,-98.88 156.54,-84.55 130.79,-75.52"/>
<polygon fill="midnightblue" stroke="midnightblue" points="225.5,-112.44 236.1,-112.44 227.82,-105.83 225.5,-112.44"/>
</g>
<!-- Node7 -->
<g id="node7" class="node">
<title>Node7</title>
<g id="a_node7"><a xlink:href="arch_2power64-linux_2odp_2api_2abi_2atomic_8h_source.html" target="_top" xlink:title=" ">
<polygon fill="white" stroke="black" points="154,-56.5 154,-75.5 213,-75.5 213,-56.5 154,-56.5"/>
<text text-anchor="middle" x="183.5" y="-63.5" font-family="Helvetica,sans-Serif" font-size="10.00">atomic.h</text>
</a>
</g>
</g>
<!-- Node3&#45;&gt;Node7 -->
<g id="edge6" class="edge">
<title>Node3&#45;&gt;Node7</title>
<path fill="none" stroke="midnightblue" d="M239.6,-106.34C225.59,-96.52 207.62,-83.91 195.84,-75.65"/>
<polygon fill="midnightblue" stroke="midnightblue" points="237.93,-109.45 248.13,-112.32 241.95,-103.72 237.93,-109.45"/>
</g>
<!-- Node8 -->
<g id="node8" class="node">
<title>Node8</title>
<g id="a_node8"><a xlink:href="arch_2x86__32-linux_2odp_2api_2abi_2atomic_8h_source.html" target="_top" xlink:title=" ">
<polygon fill="white" stroke="black" points="231,-56.5 231,-75.5 290,-75.5 290,-56.5 231,-56.5"/>
<text text-anchor="middle" x="260.5" y="-63.5" font-family="Helvetica,sans-Serif" font-size="10.00">atomic.h</text>
</a>
</g>
</g>
<!-- Node3&#45;&gt;Node8 -->
<g id="edge7" class="edge">
<title>Node3&#45;&gt;Node8</title>
<path fill="none" stroke="midnightblue" d="M260.5,-101.8C260.5,-92.91 260.5,-82.78 260.5,-75.75"/>
<polygon fill="midnightblue" stroke="midnightblue" points="257,-102.08 260.5,-112.08 264,-102.08 257,-102.08"/>
</g>
<!-- Node9 -->
<g id="node9" class="node">
<title>Node9</title>
<g id="a_node9"><a xlink:href="arch_2x86__64-linux_2odp_2api_2abi_2atomic_8h_source.html" target="_top" xlink:title=" ">
<polygon fill="white" stroke="black" points="308,-56.5 308,-75.5 367,-75.5 367,-56.5 308,-56.5"/>
<text text-anchor="middle" x="337.5" y="-63.5" font-family="Helvetica,sans-Serif" font-size="10.00">atomic.h</text>
</a>
</g>
</g>
<!-- Node3&#45;&gt;Node9 -->
<g id="edge8" class="edge">
<title>Node3&#45;&gt;Node9</title>
<path fill="none" stroke="midnightblue" d="M281.4,-106.34C295.41,-96.52 313.38,-83.91 325.16,-75.65"/>
<polygon fill="midnightblue" stroke="midnightblue" points="279.05,-103.72 272.87,-112.32 283.07,-109.45 279.05,-103.72"/>
</g>
<!-- Node11 -->
<g id="node11" class="node">
<title>Node11</title>
<g id="a_node11"><a xlink:href="arch_2arm32-linux_2odp_2api_2abi_2barrier_8h_source.html" target="_top" xlink:title=" ">
<polygon fill="white" stroke="black" points="462,-56.5 462,-75.5 519,-75.5 519,-56.5 462,-56.5"/>
<text text-anchor="middle" x="490.5" y="-63.5" font-family="Helvetica,sans-Serif" font-size="10.00">barrier.h</text>
</a>
</g>
</g>
<!-- Node10&#45;&gt;Node11 -->
<g id="edge10" class="edge">
<title>Node10&#45;&gt;Node11</title>
<path fill="none" stroke="midnightblue" d="M434.4,-106.34C448.41,-96.52 466.38,-83.91 478.16,-75.65"/>
<polygon fill="midnightblue" stroke="midnightblue" points="432.05,-103.72 425.87,-112.32 436.07,-109.45 432.05,-103.72"/>
</g>
<!-- Node80&#45;&gt;Node81 -->
<g id="edge21" class="edge">
<title>Node80&#45;&gt;Node81</title>
<path fill="none" stroke="midnightblue" d="M1410.22,-50.9C1426.17,-41 1447,-28.07 1460.56,-19.65"/>
<polygon fill="midnightblue" stroke="midnightblue" points="1408.13,-48.08 1401.48,-56.32 1411.82,-54.02 1408.13,-48.08"/>
</g>
<!-- Node82&#45;&gt;Node81 -->
<g id="edge24" class="edge">
<title>Node82&#45;&gt;Node81</title>
<path fill="none" stroke="midnightblue" d="M1664.05,-54.19C1617.28,-43.53 1547.11,-27.54 1506.56,-18.3"/>
<polygon fill="midnightblue" stroke="midnightblue" points="1663.42,-57.63 1673.95,-56.44 1664.97,-50.81 1663.42,-57.63"/>
</g>
<!-- Node82&#45;&gt;Node83 -->
<g id="edge23" class="edge">
<title>Node82&#45;&gt;Node83</title>
<path fill="none" stroke="midnightblue" d="M1766.11,-62.98C2001.23,-54.31 2924.73,-20.22 3132.74,-12.54"/>
<polygon fill="midnightblue" stroke="midnightblue" points="1765.95,-59.49 1756.08,-63.35 1766.21,-66.48 1765.95,-59.49"/>
</g>
<!-- Node89&#45;&gt;Node81 -->
<g id="edge26" class="edge">
<title>Node89&#45;&gt;Node81</title>
<path fill="none" stroke="midnightblue" d="M1474.5,-45.8C1474.5,-36.91 1474.5,-26.78 1474.5,-19.75"/>
<polygon fill="midnightblue" stroke="midnightblue" points="1471,-46.08 1474.5,-56.08 1478,-46.08 1471,-46.08"/>
</g>
<!-- Node94&#45;&gt;Node82 -->
<g id="edge30" class="edge">
<title>Node94&#45;&gt;Node82</title>
<path fill="none" stroke="midnightblue" d="M1770.93,-106.62C1756.14,-96.76 1736.99,-83.99 1724.48,-75.65"/>
<polygon fill="midnightblue" stroke="midnightblue" points="1769.22,-109.69 1779.49,-112.32 1773.11,-103.86 1769.22,-109.69"/>
</g>
<!-- Node174&#45;&gt;Node81 -->
<g id="edge64" class="edge">
<title>Node174&#45;&gt;Node81</title>
<path fill="none" stroke="midnightblue" d="M1335.4,-53.44C1368.78,-43.26 1416.6,-28.66 1446.59,-19.52"/>
<polygon fill="midnightblue" stroke="midnightblue" points="1334.09,-50.18 1325.55,-56.44 1336.13,-56.87 1334.09,-50.18"/>
</g>
</g>
</svg>
