<?xml version="1.0" encoding="UTF-8" standalone="no"?>
<!DOCTYPE svg PUBLIC "-//W3C//DTD SVG 1.1//EN"
 "http://www.w3.org/Graphics/SVG/1.1/DTD/svg11.dtd">
<!-- Generated by graphviz version 2.43.0 (0)
 -->
<!-- Title: pool_types.h Pages: 1 -->
<svg width="1217pt" height="990pt"
 viewBox="0.00 0.00 1217.00 990.00" xmlns="http://www.w3.org/2000/svg" xmlns:xlink="http://www.w3.org/1999/xlink">
<g id="graph0" class="graph" transform="scale(1 1) rotate(0) translate(4 986)">
<title>pool_types.h</title>
<polygon fill="white" stroke="transparent" points="-4,4 -4,-986 1213,-986 1213,4 -4,4"/>
<!-- Node1 -->
<g id="node1" class="node">
<title>Node1</title>
<g id="a_node1"><a xlink:title="ODP pool.">
<polygon fill="#bfbfbf" stroke="black" points="917.5,-962.5 917.5,-981.5 996.5,-981.5 996.5,-962.5 917.5,-962.5"/>
<text text-anchor="middle" x="957" y="-969.5" font-family="Helvetica,sans-Serif" font-size="10.00">pool_types.h</text>
</a>
</g>
</g>
<!-- Node2 -->
<g id="node2" class="node">
<title>Node2</title>
<g id="a_node2"><a xlink:title=" ">
<polygon fill="white" stroke="#bfbfbf" points="810,-906.5 810,-925.5 946,-925.5 946,-906.5 810,-906.5"/>
<text text-anchor="middle" x="878" y="-913.5" font-family="Helvetica,sans-Serif" font-size="10.00">odp/api/abi/pool_types.h</text>
</a>
</g>
</g>
<!-- Node1&#45;&gt;Node2 -->
<g id="edge1" class="edge">
<title>Node1&#45;&gt;Node2</title>
<path fill="none" stroke="midnightblue" d="M944.31,-962.32C932.1,-953.98 913.42,-941.21 899,-931.35"/>
<polygon fill="midnightblue" stroke="midnightblue" points="900.89,-928.41 890.66,-925.65 896.94,-934.19 900.89,-928.41"/>
</g>
<!-- Node3 -->
<g id="node3" class="node">
<title>Node3</title>
<g id="a_node3"><a xlink:href="api_2spec_2pool__types_8h.html" target="_top" xlink:title="Type definitions for pools.">
<polygon fill="white" stroke="black" points="964.5,-906.5 964.5,-925.5 1107.5,-925.5 1107.5,-906.5 964.5,-906.5"/>
<text text-anchor="middle" x="1036" y="-913.5" font-family="Helvetica,sans-Serif" font-size="10.00">odp/api/spec/pool_types.h</text>
</a>
</g>
</g>
<!-- Node1&#45;&gt;Node3 -->
<g id="edge2" class="edge">
<title>Node1&#45;&gt;Node3</title>
<path fill="none" stroke="midnightblue" d="M969.69,-962.32C981.9,-953.98 1000.58,-941.21 1015,-931.35"/>
<polygon fill="midnightblue" stroke="midnightblue" points="1017.06,-934.19 1023.34,-925.65 1013.11,-928.41 1017.06,-934.19"/>
</g>
<!-- Node4 -->
<g id="node4" class="node">
<title>Node4</title>
<g id="a_node4"><a xlink:href="visibility__begin_8h_source.html" target="_top" xlink:title=" ">
<polygon fill="white" stroke="black" points="148.5,-0.5 148.5,-19.5 269.5,-19.5 269.5,-0.5 148.5,-0.5"/>
<text text-anchor="middle" x="209" y="-7.5" font-family="Helvetica,sans-Serif" font-size="10.00">odp/visibility_begin.h</text>
</a>
</g>
</g>
<!-- Node3&#45;&gt;Node4 -->
<g id="edge3" class="edge">
<title>Node3&#45;&gt;Node4</title>
<path fill="none" stroke="midnightblue" d="M964.45,-907.03C961.26,-906.68 958.09,-906.34 955,-906 848.92,-894.5 0,-911.7 0,-805 0,-805 0,-805 0,-132 0,-92.05 15.96,-79.86 48,-56 74.04,-36.61 108.06,-25.58 138.12,-19.29"/>
<polygon fill="midnightblue" stroke="midnightblue" points="138.99,-22.69 148.14,-17.34 137.66,-15.82 138.99,-22.69"/>
</g>
<!-- Node5 -->
<g id="node5" class="node">
<title>Node5</title>
<g id="a_node5"><a xlink:href="api_2std__types_8h.html" target="_top" xlink:title="Standard C language types and definitions for ODP.">
<polygon fill="white" stroke="black" points="543,-235.5 543,-254.5 655,-254.5 655,-235.5 543,-235.5"/>
<text text-anchor="middle" x="599" y="-242.5" font-family="Helvetica,sans-Serif" font-size="10.00">odp/api/std_types.h</text>
</a>
</g>
</g>
<!-- Node3&#45;&gt;Node5 -->
<g id="edge4" class="edge">
<title>Node3&#45;&gt;Node5</title>
<path fill="none" stroke="midnightblue" d="M1063.65,-906.42C1103.14,-892.23 1171,-859.87 1171,-805 1171,-805 1171,-805 1171,-624 1171,-435.68 1072.03,-385.25 909,-291 868.73,-267.72 743.85,-255.46 665.42,-249.89"/>
<polygon fill="midnightblue" stroke="midnightblue" points="665.37,-246.37 655.15,-249.17 664.89,-253.36 665.37,-246.37"/>
</g>
<!-- Node12 -->
<g id="node12" class="node">
<title>Node12</title>
<g id="a_node12"><a xlink:href="visibility__end_8h_source.html" target="_top" xlink:title=" ">
<polygon fill="white" stroke="black" points="907,-0.5 907,-19.5 1019,-19.5 1019,-0.5 907,-0.5"/>
<text text-anchor="middle" x="963" y="-7.5" font-family="Helvetica,sans-Serif" font-size="10.00">odp/visibility_end.h</text>
</a>
</g>
</g>
<!-- Node3&#45;&gt;Node12 -->
<g id="edge68" class="edge">
<title>Node3&#45;&gt;Node12</title>
<path fill="none" stroke="midnightblue" d="M1081.91,-906.47C1133.16,-893.99 1209,-865.33 1209,-805 1209,-805 1209,-805 1209,-132 1209,-51.65 1102.03,-24.66 1029.17,-15.59"/>
<polygon fill="midnightblue" stroke="midnightblue" points="1029.47,-12.1 1019.13,-14.42 1028.66,-19.05 1029.47,-12.1"/>
</g>
<!-- Node13 -->
<g id="node13" class="node">
<title>Node13</title>
<g id="a_node13"><a xlink:href="api_2dma__types_8h.html" target="_top" xlink:title="ODP DMA.">
<polygon fill="white" stroke="black" points="792.5,-850.5 792.5,-869.5 911.5,-869.5 911.5,-850.5 792.5,-850.5"/>
<text text-anchor="middle" x="852" y="-857.5" font-family="Helvetica,sans-Serif" font-size="10.00">odp/api/dma_types.h</text>
</a>
</g>
</g>
<!-- Node3&#45;&gt;Node13 -->
<g id="edge15" class="edge">
<title>Node3&#45;&gt;Node13</title>
<path fill="none" stroke="midnightblue" d="M1006.84,-906.44C975.49,-897.24 925.47,-882.56 890.8,-872.39"/>
<polygon fill="midnightblue" stroke="midnightblue" points="891.6,-868.97 881.02,-869.52 889.63,-875.69 891.6,-868.97"/>
</g>
<!-- Node37 -->
<g id="node37" class="node">
<title>Node37</title>
<g id="a_node37"><a xlink:href="api_2ml__types_8h.html" target="_top" xlink:title="ODP Machine Learning (ML) types.">
<polygon fill="white" stroke="black" points="981,-738.5 981,-757.5 1091,-757.5 1091,-738.5 981,-738.5"/>
<text text-anchor="middle" x="1036" y="-745.5" font-family="Helvetica,sans-Serif" font-size="10.00">odp/api/ml_types.h</text>
</a>
</g>
</g>
<!-- Node3&#45;&gt;Node37 -->
<g id="edge60" class="edge">
<title>Node3&#45;&gt;Node37</title>
<path fill="none" stroke="midnightblue" d="M1036,-906.08C1036,-879.95 1036,-803.21 1036,-767.58"/>
<polygon fill="midnightblue" stroke="midnightblue" points="1039.5,-767.57 1036,-757.57 1032.5,-767.57 1039.5,-767.57"/>
</g>
<!-- Node6 -->
<g id="node6" class="node">
<title>Node6</title>
<g id="a_node6"><a xlink:title=" ">
<polygon fill="white" stroke="#bfbfbf" points="398,-179.5 398,-198.5 528,-198.5 528,-179.5 398,-179.5"/>
<text text-anchor="middle" x="463" y="-186.5" font-family="Helvetica,sans-Serif" font-size="10.00">odp/api/abi/std_types.h</text>
</a>
</g>
</g>
<!-- Node5&#45;&gt;Node6 -->
<g id="edge5" class="edge">
<title>Node5&#45;&gt;Node6</title>
<path fill="none" stroke="midnightblue" d="M577.45,-235.44C554.97,-226.52 519.51,-212.44 494.02,-202.32"/>
<polygon fill="midnightblue" stroke="midnightblue" points="495.03,-198.95 484.45,-198.52 492.45,-205.46 495.03,-198.95"/>
</g>
<!-- Node7 -->
<g id="node7" class="node">
<title>Node7</title>
<g id="a_node7"><a xlink:href="api_2spec_2std__types_8h.html" target="_top" xlink:title="Common types and definitions for ODP API files.">
<polygon fill="white" stroke="black" points="546.5,-179.5 546.5,-198.5 683.5,-198.5 683.5,-179.5 546.5,-179.5"/>
<text text-anchor="middle" x="615" y="-186.5" font-family="Helvetica,sans-Serif" font-size="10.00">odp/api/spec/std_types.h</text>
</a>
</g>
</g>
<!-- Node5&#45;&gt;Node7 -->
<g id="edge6" class="edge">
<title>Node5&#45;&gt;Node7</title>
<path fill="none" stroke="midnightblue" d="M601.64,-235.08C603.79,-227.85 606.88,-217.41 609.55,-208.4"/>
<polygon fill="midnightblue" stroke="midnightblue" points="612.92,-209.33 612.41,-198.75 606.21,-207.34 612.92,-209.33"/>
</g>
<!-- Node7&#45;&gt;Node4 -->
<g id="edge7" class="edge">
<title>Node7&#45;&gt;Node4</title>
<path fill="none" stroke="midnightblue" d="M579.95,-179.44C523.73,-164.93 410.84,-132.6 323,-87 302.09,-76.15 299.51,-69.2 280,-56 264.04,-45.2 245.65,-33.57 231.58,-24.83"/>
<polygon fill="midnightblue" stroke="midnightblue" points="233.38,-21.83 223.04,-19.55 229.7,-27.79 233.38,-21.83"/>
</g>
<!-- Node8 -->
<g id="node8" class="node">
<title>Node8</title>
<g id="a_node8"><a xlink:title=" ">
<polygon fill="white" stroke="#bfbfbf" points="559.5,-123.5 559.5,-142.5 612.5,-142.5 612.5,-123.5 559.5,-123.5"/>
<text text-anchor="middle" x="586" y="-130.5" font-family="Helvetica,sans-Serif" font-size="10.00">stdint.h</text>
</a>
</g>
</g>
<!-- Node7&#45;&gt;Node8 -->
<g id="edge8" class="edge">
<title>Node7&#45;&gt;Node8</title>
<path fill="none" stroke="midnightblue" d="M610.21,-179.08C606.24,-171.69 600.47,-160.95 595.57,-151.81"/>
<polygon fill="midnightblue" stroke="midnightblue" points="598.51,-149.91 590.7,-142.75 592.35,-153.22 598.51,-149.91"/>
</g>
<!-- Node9 -->
<g id="node9" class="node">
<title>Node9</title>
<g id="a_node9"><a xlink:href="api_2align_8h.html" target="_top" xlink:title="ODP alignments.">
<polygon fill="white" stroke="black" points="630.5,-123.5 630.5,-142.5 719.5,-142.5 719.5,-123.5 630.5,-123.5"/>
<text text-anchor="middle" x="675" y="-130.5" font-family="Helvetica,sans-Serif" font-size="10.00">odp/api/align.h</text>
</a>
</g>
</g>
<!-- Node7&#45;&gt;Node9 -->
<g id="edge9" class="edge">
<title>Node7&#45;&gt;Node9</title>
<path fill="none" stroke="midnightblue" d="M624.64,-179.32C633.51,-171.34 646.87,-159.31 657.61,-149.65"/>
<polygon fill="midnightblue" stroke="midnightblue" points="660.09,-152.13 665.18,-142.83 655.41,-146.92 660.09,-152.13"/>
</g>
<!-- Node7&#45;&gt;Node12 -->
<g id="edge14" class="edge">
<title>Node7&#45;&gt;Node12</title>
<path fill="none" stroke="midnightblue" d="M652.35,-179.44C676.17,-172.58 706.65,-161.05 729,-143 765.15,-113.8 749.09,-82.87 787,-56 818.97,-33.34 861.36,-22.08 896.53,-16.49"/>
<polygon fill="midnightblue" stroke="midnightblue" points="897.33,-19.91 906.71,-14.99 896.31,-12.98 897.33,-19.91"/>
</g>
<!-- Node10 -->
<g id="node10" class="node">
<title>Node10</title>
<g id="a_node10"><a xlink:title=" ">
<polygon fill="white" stroke="#bfbfbf" points="495.5,-62 495.5,-81 602.5,-81 602.5,-62 495.5,-62"/>
<text text-anchor="middle" x="549" y="-69" font-family="Helvetica,sans-Serif" font-size="10.00">odp/api/abi/align.h</text>
</a>
</g>
</g>
<!-- Node9&#45;&gt;Node10 -->
<g id="edge10" class="edge">
<title>Node9&#45;&gt;Node10</title>
<path fill="none" stroke="midnightblue" d="M656.95,-123.48C635.8,-113.49 600.56,-96.85 576.12,-85.31"/>
<polygon fill="midnightblue" stroke="midnightblue" points="577.56,-82.11 567.02,-81.01 574.57,-88.44 577.56,-82.11"/>
</g>
<!-- Node11 -->
<g id="node11" class="node">
<title>Node11</title>
<g id="a_node11"><a xlink:href="api_2spec_2align_8h.html" target="_top" xlink:title="ODP alignments.">
<polygon fill="white" stroke="black" points="621,-62 621,-81 735,-81 735,-62 621,-62"/>
<text text-anchor="middle" x="678" y="-69" font-family="Helvetica,sans-Serif" font-size="10.00">odp/api/spec/align.h</text>
</a>
</g>
</g>
<!-- Node9&#45;&gt;Node11 -->
<g id="edge11" class="edge">
<title>Node9&#45;&gt;Node11</title>
<path fill="none" stroke="midnightblue" d="M675.43,-123.48C675.85,-115.08 676.51,-101.98 677.06,-91.16"/>
<polygon fill="midnightblue" stroke="midnightblue" points="680.56,-91.17 677.57,-81.01 673.57,-90.82 680.56,-91.17"/>
</g>
<!-- Node11&#45;&gt;Node4 -->
<g id="edge12" class="edge">
<title>Node11&#45;&gt;Node4</title>
<path fill="none" stroke="midnightblue" d="M641.97,-62C631.98,-59.83 621.1,-57.65 611,-56 495.52,-37.09 360.07,-23.73 279.56,-16.71"/>
<polygon fill="midnightblue" stroke="midnightblue" points="279.8,-13.22 269.54,-15.84 279.2,-20.19 279.8,-13.22"/>
</g>
<!-- Node11&#45;&gt;Node12 -->
<g id="edge13" class="edge">
<title>Node11&#45;&gt;Node12</title>
<path fill="none" stroke="midnightblue" d="M718.83,-61.98C769.84,-51.33 857.1,-33.11 912.32,-21.58"/>
<polygon fill="midnightblue" stroke="midnightblue" points="913.17,-24.98 922.24,-19.51 911.74,-18.13 913.17,-24.98"/>
</g>
<!-- Node14 -->
<g id="node14" class="node">
<title>Node14</title>
<g id="a_node14"><a xlink:title=" ">
<polygon fill="white" stroke="#bfbfbf" points="783.5,-794.5 783.5,-813.5 920.5,-813.5 920.5,-794.5 783.5,-794.5"/>
<text text-anchor="middle" x="852" y="-801.5" font-family="Helvetica,sans-Serif" font-size="10.00">odp/api/abi/dma_types.h</text>
</a>
</g>
</g>
<!-- Node13&#45;&gt;Node14 -->
<g id="edge16" class="edge">
<title>Node13&#45;&gt;Node14</title>
<path fill="none" stroke="midnightblue" d="M852,-850.08C852,-843.01 852,-832.86 852,-823.99"/>
<polygon fill="midnightblue" stroke="midnightblue" points="855.5,-823.75 852,-813.75 848.5,-823.75 855.5,-823.75"/>
</g>
<!-- Node15 -->
<g id="node15" class="node">
<title>Node15</title>
<g id="a_node15"><a xlink:href="api_2spec_2dma__types_8h.html" target="_top" xlink:title="ODP DMA.">
<polygon fill="white" stroke="black" points="530,-794.5 530,-813.5 674,-813.5 674,-794.5 530,-794.5"/>
<text text-anchor="middle" x="602" y="-801.5" font-family="Helvetica,sans-Serif" font-size="10.00">odp/api/spec/dma_types.h</text>
</a>
</g>
</g>
<!-- Node13&#45;&gt;Node15 -->
<g id="edge17" class="edge">
<title>Node13&#45;&gt;Node15</title>
<path fill="none" stroke="midnightblue" d="M812.39,-850.44C768.77,-841.02 698.6,-825.87 651.42,-815.68"/>
<polygon fill="midnightblue" stroke="midnightblue" points="651.94,-812.21 641.43,-813.52 650.46,-819.05 651.94,-812.21"/>
</g>
<!-- Node15&#45;&gt;Node4 -->
<g id="edge18" class="edge">
<title>Node15&#45;&gt;Node4</title>
<path fill="none" stroke="midnightblue" d="M529.69,-801.8C413.06,-798.95 189.21,-789.43 117,-758 73.85,-739.22 38,-734.56 38,-687.5 38,-687.5 38,-687.5 38,-132 38,-92.28 54.18,-81.05 85,-56 104.98,-39.76 131.33,-29.1 154.6,-22.26"/>
<polygon fill="midnightblue" stroke="midnightblue" points="155.65,-25.6 164.36,-19.55 153.79,-18.85 155.65,-25.6"/>
</g>
<!-- Node15&#45;&gt;Node5 -->
<g id="edge58" class="edge">
<title>Node15&#45;&gt;Node5</title>
<path fill="none" stroke="midnightblue" d="M529.96,-802.07C385.91,-798.25 76,-779.36 76,-687.5 76,-687.5 76,-687.5 76,-501 76,-338.94 278.02,-461.41 423,-389 490.61,-355.23 555.78,-291.71 584.16,-262.03"/>
<polygon fill="midnightblue" stroke="midnightblue" points="586.84,-264.29 591.16,-254.61 581.75,-259.49 586.84,-264.29"/>
</g>
<!-- Node15&#45;&gt;Node12 -->
<g id="edge59" class="edge">
<title>Node15&#45;&gt;Node12</title>
<path fill="none" stroke="midnightblue" d="M674,-798.38C807.8,-789.55 1082.83,-770.04 1100,-758 1128.33,-738.14 1133,-722.1 1133,-687.5 1133,-687.5 1133,-687.5 1133,-624 1133,-541.15 1171,-524.35 1171,-441.5 1171,-441.5 1171,-441.5 1171,-132 1171,-92.05 1155.02,-79.88 1123,-56 1095.87,-35.76 1060,-24.62 1029.11,-18.49"/>
<polygon fill="midnightblue" stroke="midnightblue" points="1029.74,-15.05 1019.27,-16.67 1028.47,-21.93 1029.74,-15.05"/>
</g>
<!-- Node16 -->
<g id="node16" class="node">
<title>Node16</title>
<g id="a_node16"><a xlink:href="api_2event__types_8h.html" target="_top" xlink:title="ODP event API type definitions.">
<polygon fill="white" stroke="black" points="890.5,-615.5 890.5,-634.5 1015.5,-634.5 1015.5,-615.5 890.5,-615.5"/>
<text text-anchor="middle" x="953" y="-622.5" font-family="Helvetica,sans-Serif" font-size="10.00">odp/api/event_types.h</text>
</a>
</g>
</g>
<!-- Node15&#45;&gt;Node16 -->
<g id="edge19" class="edge">
<title>Node15&#45;&gt;Node16</title>
<path fill="none" stroke="midnightblue" d="M674.31,-799.85C748.3,-792.76 861.81,-770.52 930,-702 945.09,-686.84 950.34,-662.13 952.13,-645.02"/>
<polygon fill="midnightblue" stroke="midnightblue" points="955.65,-644.83 952.9,-634.6 948.67,-644.32 955.65,-644.83"/>
</g>
<!-- Node19 -->
<g id="node19" class="node">
<title>Node19</title>
<g id="a_node19"><a xlink:href="api_2packet__types_8h.html" target="_top" xlink:title="ODP packet.">
<polygon fill="white" stroke="black" points="537.5,-738.5 537.5,-757.5 666.5,-757.5 666.5,-738.5 537.5,-738.5"/>
<text text-anchor="middle" x="602" y="-745.5" font-family="Helvetica,sans-Serif" font-size="10.00">odp/api/packet_types.h</text>
</a>
</g>
</g>
<!-- Node15&#45;&gt;Node19 -->
<g id="edge24" class="edge">
<title>Node15&#45;&gt;Node19</title>
<path fill="none" stroke="midnightblue" d="M602,-794.08C602,-787.01 602,-776.86 602,-767.99"/>
<polygon fill="midnightblue" stroke="midnightblue" points="605.5,-767.75 602,-757.75 598.5,-767.75 605.5,-767.75"/>
</g>
<!-- Node28 -->
<g id="node28" class="node">
<title>Node28</title>
<g id="a_node28"><a xlink:href="api_2queue__types_8h.html" target="_top" xlink:title="ODP queue.">
<polygon fill="white" stroke="black" points="581.5,-615.5 581.5,-634.5 708.5,-634.5 708.5,-615.5 581.5,-615.5"/>
<text text-anchor="middle" x="645" y="-622.5" font-family="Helvetica,sans-Serif" font-size="10.00">odp/api/queue_types.h</text>
</a>
</g>
</g>
<!-- Node15&#45;&gt;Node28 -->
<g id="edge57" class="edge">
<title>Node15&#45;&gt;Node28</title>
<path fill="none" stroke="midnightblue" d="M575.07,-794.36C558.28,-787.41 538.02,-775.82 528,-758 509.05,-724.3 506.11,-702.87 528,-671 539.17,-654.73 557.11,-644.34 575.63,-637.71"/>
<polygon fill="midnightblue" stroke="midnightblue" points="576.89,-640.98 585.32,-634.57 574.73,-634.32 576.89,-640.98"/>
</g>
<!-- Node17 -->
<g id="node17" class="node">
<title>Node17</title>
<g id="a_node17"><a xlink:title=" ">
<polygon fill="white" stroke="#bfbfbf" points="885.5,-554 885.5,-573 1028.5,-573 1028.5,-554 885.5,-554"/>
<text text-anchor="middle" x="957" y="-561" font-family="Helvetica,sans-Serif" font-size="10.00">odp/api/abi/event_types.h</text>
</a>
</g>
</g>
<!-- Node16&#45;&gt;Node17 -->
<g id="edge20" class="edge">
<title>Node16&#45;&gt;Node17</title>
<path fill="none" stroke="midnightblue" d="M953.57,-615.48C954.14,-607.08 955.02,-593.98 955.75,-583.16"/>
<polygon fill="midnightblue" stroke="midnightblue" points="959.25,-583.22 956.43,-573.01 952.26,-582.75 959.25,-583.22"/>
</g>
<!-- Node18 -->
<g id="node18" class="node">
<title>Node18</title>
<g id="a_node18"><a xlink:href="api_2spec_2event__types_8h.html" target="_top" xlink:title="ODP event API type definitions.">
<polygon fill="white" stroke="black" points="867.5,-56.5 867.5,-86.5 976.5,-86.5 976.5,-56.5 867.5,-56.5"/>
<text text-anchor="start" x="875.5" y="-74.5" font-family="Helvetica,sans-Serif" font-size="10.00">odp/api/spec/event</text>
<text text-anchor="middle" x="922" y="-63.5" font-family="Helvetica,sans-Serif" font-size="10.00">_types.h</text>
</a>
</g>
</g>
<!-- Node16&#45;&gt;Node18 -->
<g id="edge21" class="edge">
<title>Node16&#45;&gt;Node18</title>
<path fill="none" stroke="midnightblue" d="M986.8,-615.39C1005.39,-608.74 1026.89,-597.45 1038,-579 1045.11,-567.2 1039.64,-561.68 1038,-548 1016.77,-371.42 952.72,-165.73 930.05,-96.57"/>
<polygon fill="midnightblue" stroke="midnightblue" points="933.24,-95.06 926.78,-86.66 926.59,-97.26 933.24,-95.06"/>
</g>
<!-- Node18&#45;&gt;Node4 -->
<g id="edge22" class="edge">
<title>Node18&#45;&gt;Node4</title>
<path fill="none" stroke="midnightblue" d="M867.24,-65.93C739.59,-55.28 422.36,-28.8 280.05,-16.93"/>
<polygon fill="midnightblue" stroke="midnightblue" points="279.96,-13.41 269.71,-16.07 279.38,-20.39 279.96,-13.41"/>
</g>
<!-- Node18&#45;&gt;Node12 -->
<g id="edge23" class="edge">
<title>Node18&#45;&gt;Node12</title>
<path fill="none" stroke="midnightblue" d="M931.72,-56.4C937.55,-47.93 945.02,-37.1 951.19,-28.14"/>
<polygon fill="midnightblue" stroke="midnightblue" points="954.24,-29.88 957.03,-19.66 948.48,-25.91 954.24,-29.88"/>
</g>
<!-- Node20 -->
<g id="node20" class="node">
<title>Node20</title>
<g id="a_node20"><a xlink:title=" ">
<polygon fill="white" stroke="#bfbfbf" points="537,-671.5 537,-701.5 643,-701.5 643,-671.5 537,-671.5"/>
<text text-anchor="start" x="545" y="-689.5" font-family="Helvetica,sans-Serif" font-size="10.00">odp/api/abi/packet</text>
<text text-anchor="middle" x="590" y="-678.5" font-family="Helvetica,sans-Serif" font-size="10.00">_io_types.h</text>
</a>
</g>
</g>
<!-- Node19&#45;&gt;Node20 -->
<g id="edge25" class="edge">
<title>Node19&#45;&gt;Node20</title>
<path fill="none" stroke="midnightblue" d="M600.28,-738.48C598.85,-731.4 596.75,-720.97 594.82,-711.39"/>
<polygon fill="midnightblue" stroke="midnightblue" points="598.24,-710.63 592.83,-701.52 591.37,-712.02 598.24,-710.63"/>
</g>
<!-- Node21 -->
<g id="node21" class="node">
<title>Node21</title>
<g id="a_node21"><a xlink:title=" ">
<polygon fill="white" stroke="#bfbfbf" points="661,-671.5 661,-701.5 767,-701.5 767,-671.5 661,-671.5"/>
<text text-anchor="start" x="669" y="-689.5" font-family="Helvetica,sans-Serif" font-size="10.00">odp/api/abi/packet</text>
<text text-anchor="middle" x="714" y="-678.5" font-family="Helvetica,sans-Serif" font-size="10.00">_types.h</text>
</a>
</g>
</g>
<!-- Node19&#45;&gt;Node21 -->
<g id="edge26" class="edge">
<title>Node19&#45;&gt;Node21</title>
<path fill="none" stroke="midnightblue" d="M618.05,-738.48C633.78,-730.12 658.3,-717.09 678.61,-706.3"/>
<polygon fill="midnightblue" stroke="midnightblue" points="680.41,-709.31 687.6,-701.52 677.13,-703.12 680.41,-709.31"/>
</g>
<!-- Node22 -->
<g id="node22" class="node">
<title>Node22</title>
<g id="a_node22"><a xlink:href="api_2spec_2packet__types_8h.html" target="_top" xlink:title="ODP packet types.">
<polygon fill="white" stroke="black" points="334.5,-671.5 334.5,-701.5 447.5,-701.5 447.5,-671.5 334.5,-671.5"/>
<text text-anchor="start" x="342.5" y="-689.5" font-family="Helvetica,sans-Serif" font-size="10.00">odp/api/spec/packet</text>
<text text-anchor="middle" x="391" y="-678.5" font-family="Helvetica,sans-Serif" font-size="10.00">_types.h</text>
</a>
</g>
</g>
<!-- Node19&#45;&gt;Node22 -->
<g id="edge27" class="edge">
<title>Node19&#45;&gt;Node22</title>
<path fill="none" stroke="midnightblue" d="M571.77,-738.48C540.25,-729.59 490.04,-715.43 450.53,-704.29"/>
<polygon fill="midnightblue" stroke="midnightblue" points="451.3,-700.87 440.73,-701.52 449.4,-707.61 451.3,-700.87"/>
</g>
<!-- Node22&#45;&gt;Node4 -->
<g id="edge28" class="edge">
<title>Node22&#45;&gt;Node4</title>
<path fill="none" stroke="midnightblue" d="M334.28,-684.92C253.24,-680.76 114,-659.75 114,-564.5 114,-564.5 114,-564.5 114,-501 114,-413.36 76,-395.14 76,-307.5 76,-307.5 76,-307.5 76,-132 76,-93.83 88.56,-82.53 116,-56 131.3,-41.21 152.4,-30.46 170.64,-23.18"/>
<polygon fill="midnightblue" stroke="midnightblue" points="172.02,-26.4 180.14,-19.59 169.55,-19.85 172.02,-26.4"/>
</g>
<!-- Node22&#45;&gt;Node12 -->
<g id="edge56" class="edge">
<title>Node22&#45;&gt;Node12</title>
<path fill="none" stroke="midnightblue" d="M410.42,-671.2C437.89,-650.92 489.58,-612.52 533,-579 550.53,-565.47 553.09,-559.52 572,-548 605.3,-527.71 616.53,-528.19 652,-512 705.91,-487.4 721.47,-485.27 773,-456 818.88,-429.94 830.15,-422.39 871,-389 904.1,-361.95 913.12,-355.24 940,-322 1009.02,-236.65 1010.14,-196.61 1016,-87 1016.73,-73.24 1021.79,-68.5 1016,-56 1010.08,-43.21 998.53,-32.72 987.72,-25.1"/>
<polygon fill="midnightblue" stroke="midnightblue" points="989.62,-22.16 979.33,-19.61 985.79,-28.02 989.62,-22.16"/>
</g>
<!-- Node23 -->
<g id="node23" class="node">
<title>Node23</title>
<g id="a_node23"><a xlink:href="deprecated_8h.html" target="_top" xlink:title="Control deprecated API definitions.">
<polygon fill="white" stroke="black" points="142.5,-492.5 142.5,-511.5 261.5,-511.5 261.5,-492.5 142.5,-492.5"/>
<text text-anchor="middle" x="202" y="-499.5" font-family="Helvetica,sans-Serif" font-size="10.00">odp/api/deprecated.h</text>
</a>
</g>
</g>
<!-- Node22&#45;&gt;Node23 -->
<g id="edge29" class="edge">
<title>Node22&#45;&gt;Node23</title>
<path fill="none" stroke="midnightblue" d="M376.48,-671.48C341.93,-638.12 254.96,-554.14 218.5,-518.93"/>
<polygon fill="midnightblue" stroke="midnightblue" points="220.76,-516.25 211.13,-511.82 215.9,-521.28 220.76,-516.25"/>
</g>
<!-- Node25 -->
<g id="node25" class="node">
<title>Node25</title>
<g id="a_node25"><a xlink:href="api_2proto__stats__types_8h.html" target="_top" xlink:title="ODP proto stats types.">
<polygon fill="white" stroke="black" points="304,-358.5 304,-388.5 414,-388.5 414,-358.5 304,-358.5"/>
<text text-anchor="start" x="312" y="-376.5" font-family="Helvetica,sans-Serif" font-size="10.00">odp/api/proto_stats</text>
<text text-anchor="middle" x="359" y="-365.5" font-family="Helvetica,sans-Serif" font-size="10.00">_types.h</text>
</a>
</g>
</g>
<!-- Node22&#45;&gt;Node25 -->
<g id="edge33" class="edge">
<title>Node22&#45;&gt;Node25</title>
<path fill="none" stroke="midnightblue" d="M384.68,-671.29C375.35,-649.01 359,-604.26 359,-564.5 359,-564.5 359,-564.5 359,-501 359,-465.42 359,-424.2 359,-398.74"/>
<polygon fill="midnightblue" stroke="midnightblue" points="362.5,-398.54 359,-388.54 355.5,-398.54 362.5,-398.54"/>
</g>
<!-- Node22&#45;&gt;Node28 -->
<g id="edge39" class="edge">
<title>Node22&#45;&gt;Node28</title>
<path fill="none" stroke="midnightblue" d="M447.69,-672.22C493.17,-661.57 556.21,-646.8 598.7,-636.85"/>
<polygon fill="midnightblue" stroke="midnightblue" points="599.56,-640.24 608.5,-634.55 597.96,-633.42 599.56,-640.24"/>
</g>
<!-- Node24 -->
<g id="node24" class="node">
<title>Node24</title>
<g id="a_node24"><a xlink:href="spec_2deprecated_8h.html" target="_top" xlink:title="Macro for deprecated API definitions.">
<polygon fill="white" stroke="black" points="332.5,-62 332.5,-81 477.5,-81 477.5,-62 332.5,-62"/>
<text text-anchor="middle" x="405" y="-69" font-family="Helvetica,sans-Serif" font-size="10.00">odp/api/spec/deprecated.h</text>
</a>
</g>
</g>
<!-- Node23&#45;&gt;Node24 -->
<g id="edge30" class="edge">
<title>Node23&#45;&gt;Node24</title>
<path fill="none" stroke="midnightblue" d="M202.59,-492.2C204.82,-462.58 214.42,-364.24 247,-291 284.36,-207.01 357.37,-123.32 389.35,-88.88"/>
<polygon fill="midnightblue" stroke="midnightblue" points="392.26,-90.9 396.55,-81.21 387.16,-86.1 392.26,-90.9"/>
</g>
<!-- Node24&#45;&gt;Node4 -->
<g id="edge31" class="edge">
<title>Node24&#45;&gt;Node4</title>
<path fill="none" stroke="midnightblue" d="M376.92,-61.98C342.71,-51.59 284.8,-34.01 246.73,-22.45"/>
<polygon fill="midnightblue" stroke="midnightblue" points="247.62,-19.06 237.03,-19.51 245.58,-25.76 247.62,-19.06"/>
</g>
<!-- Node24&#45;&gt;Node12 -->
<g id="edge32" class="edge">
<title>Node24&#45;&gt;Node12</title>
<path fill="none" stroke="midnightblue" d="M449.04,-61.93C461,-59.79 473.97,-57.64 486,-56 631.97,-36.08 804.28,-22.19 896.61,-15.51"/>
<polygon fill="midnightblue" stroke="midnightblue" points="896.93,-19 906.65,-14.79 896.43,-12.02 896.93,-19"/>
</g>
<!-- Node26 -->
<g id="node26" class="node">
<title>Node26</title>
<g id="a_node26"><a xlink:title=" ">
<polygon fill="white" stroke="#bfbfbf" points="256,-291.5 256,-321.5 384,-321.5 384,-291.5 256,-291.5"/>
<text text-anchor="start" x="264" y="-309.5" font-family="Helvetica,sans-Serif" font-size="10.00">odp/api/abi/proto_stats</text>
<text text-anchor="middle" x="320" y="-298.5" font-family="Helvetica,sans-Serif" font-size="10.00">_types.h</text>
</a>
</g>
</g>
<!-- Node25&#45;&gt;Node26 -->
<g id="edge34" class="edge">
<title>Node25&#45;&gt;Node26</title>
<path fill="none" stroke="midnightblue" d="M350.54,-358.4C345.63,-350.22 339.34,-339.73 333.74,-330.39"/>
<polygon fill="midnightblue" stroke="midnightblue" points="336.59,-328.35 328.45,-321.58 330.59,-331.95 336.59,-328.35"/>
</g>
<!-- Node27 -->
<g id="node27" class="node">
<title>Node27</title>
<g id="a_node27"><a xlink:href="api_2spec_2proto__stats__types_8h.html" target="_top" xlink:title="ODP proto stats types.">
<polygon fill="white" stroke="black" points="402.5,-291.5 402.5,-321.5 509.5,-321.5 509.5,-291.5 402.5,-291.5"/>
<text text-anchor="start" x="410.5" y="-309.5" font-family="Helvetica,sans-Serif" font-size="10.00">odp/api/spec/proto</text>
<text text-anchor="middle" x="456" y="-298.5" font-family="Helvetica,sans-Serif" font-size="10.00">_stats_types.h</text>
</a>
</g>
</g>
<!-- Node25&#45;&gt;Node27 -->
<g id="edge35" class="edge">
<title>Node25&#45;&gt;Node27</title>
<path fill="none" stroke="midnightblue" d="M380.05,-358.4C393.65,-349.28 411.54,-337.29 426.55,-327.24"/>
<polygon fill="midnightblue" stroke="midnightblue" points="428.63,-330.05 434.99,-321.58 424.74,-324.24 428.63,-330.05"/>
</g>
<!-- Node27&#45;&gt;Node4 -->
<g id="edge36" class="edge">
<title>Node27&#45;&gt;Node4</title>
<path fill="none" stroke="midnightblue" d="M429.7,-291.41C386.41,-266.92 300.14,-212.38 252,-143 227.36,-107.48 216.14,-56.93 211.63,-29.85"/>
<polygon fill="midnightblue" stroke="midnightblue" points="215.06,-29.15 210.09,-19.8 208.14,-30.21 215.06,-29.15"/>
</g>
<!-- Node27&#45;&gt;Node5 -->
<g id="edge37" class="edge">
<title>Node27&#45;&gt;Node5</title>
<path fill="none" stroke="midnightblue" d="M489.89,-291.4C513.88,-281.42 545.77,-268.15 568.88,-258.53"/>
<polygon fill="midnightblue" stroke="midnightblue" points="570.3,-261.73 578.19,-254.66 567.61,-255.27 570.3,-261.73"/>
</g>
<!-- Node27&#45;&gt;Node12 -->
<g id="edge38" class="edge">
<title>Node27&#45;&gt;Node12</title>
<path fill="none" stroke="midnightblue" d="M467.67,-291.24C481.7,-275.07 506.78,-249.13 534,-235 598.31,-201.62 629.25,-233.44 693,-199 772.36,-156.13 760.92,-104.45 837,-56 861.19,-40.59 891.36,-29.58 916.12,-22.3"/>
<polygon fill="midnightblue" stroke="midnightblue" points="917.34,-25.6 926.01,-19.51 915.43,-18.86 917.34,-25.6"/>
</g>
<!-- Node29 -->
<g id="node29" class="node">
<title>Node29</title>
<g id="a_node29"><a xlink:title=" ">
<polygon fill="white" stroke="#bfbfbf" points="581.5,-554 581.5,-573 726.5,-573 726.5,-554 581.5,-554"/>
<text text-anchor="middle" x="654" y="-561" font-family="Helvetica,sans-Serif" font-size="10.00">odp/api/abi/queue_types.h</text>
</a>
</g>
</g>
<!-- Node28&#45;&gt;Node29 -->
<g id="edge40" class="edge">
<title>Node28&#45;&gt;Node29</title>
<path fill="none" stroke="midnightblue" d="M646.29,-615.48C647.56,-607.08 649.54,-593.98 651.18,-583.16"/>
<polygon fill="midnightblue" stroke="midnightblue" points="654.68,-583.42 652.71,-573.01 647.76,-582.37 654.68,-583.42"/>
</g>
<!-- Node30 -->
<g id="node30" class="node">
<title>Node30</title>
<g id="a_node30"><a xlink:href="api_2spec_2queue__types_8h.html" target="_top" xlink:title="ODP queue types.">
<polygon fill="white" stroke="black" points="413.5,-548.5 413.5,-578.5 524.5,-578.5 524.5,-548.5 413.5,-548.5"/>
<text text-anchor="start" x="421.5" y="-566.5" font-family="Helvetica,sans-Serif" font-size="10.00">odp/api/spec/queue</text>
<text text-anchor="middle" x="469" y="-555.5" font-family="Helvetica,sans-Serif" font-size="10.00">_types.h</text>
</a>
</g>
</g>
<!-- Node28&#45;&gt;Node30 -->
<g id="edge41" class="edge">
<title>Node28&#45;&gt;Node30</title>
<path fill="none" stroke="midnightblue" d="M619.78,-615.48C593.94,-606.74 553.03,-592.91 520.34,-581.86"/>
<polygon fill="midnightblue" stroke="midnightblue" points="521.07,-578.41 510.48,-578.52 518.83,-585.04 521.07,-578.41"/>
</g>
<!-- Node30&#45;&gt;Node4 -->
<g id="edge42" class="edge">
<title>Node30&#45;&gt;Node4</title>
<path fill="none" stroke="midnightblue" d="M414.7,-548.49C341.19,-526.73 210.85,-477.77 138,-389 114.05,-359.81 114,-345.26 114,-307.5 114,-307.5 114,-307.5 114,-132 114,-96.58 116.4,-84.07 138,-56 148.59,-42.24 164.66,-31.56 178.84,-24.05"/>
<polygon fill="midnightblue" stroke="midnightblue" points="180.42,-27.18 187.81,-19.59 177.3,-20.91 180.42,-27.18"/>
</g>
<!-- Node30&#45;&gt;Node12 -->
<g id="edge55" class="edge">
<title>Node30&#45;&gt;Node12</title>
<path fill="none" stroke="midnightblue" d="M515.95,-548.47C604.72,-519.75 798.51,-446.27 913,-322 988.57,-239.98 990.2,-198 1001,-87 1002.33,-73.29 1005.73,-68.94 1001,-56 996.94,-44.91 988.81,-34.67 981.11,-26.76"/>
<polygon fill="midnightblue" stroke="midnightblue" points="983.36,-24.07 973.71,-19.7 978.53,-29.14 983.36,-24.07"/>
</g>
<!-- Node31 -->
<g id="node31" class="node">
<title>Node31</title>
<g id="a_node31"><a xlink:href="api_2schedule__types_8h.html" target="_top" xlink:title="ODP schedule.">
<polygon fill="white" stroke="black" points="425,-492.5 425,-511.5 565,-511.5 565,-492.5 425,-492.5"/>
<text text-anchor="middle" x="495" y="-499.5" font-family="Helvetica,sans-Serif" font-size="10.00">odp/api/schedule_types.h</text>
</a>
</g>
</g>
<!-- Node30&#45;&gt;Node31 -->
<g id="edge43" class="edge">
<title>Node30&#45;&gt;Node31</title>
<path fill="none" stroke="midnightblue" d="M475.16,-548.4C478.74,-540.2 483.3,-529.78 487.14,-520.99"/>
<polygon fill="midnightblue" stroke="midnightblue" points="490.42,-522.22 491.22,-511.66 484.01,-519.42 490.42,-522.22"/>
</g>
<!-- Node32 -->
<g id="node32" class="node">
<title>Node32</title>
<g id="a_node32"><a xlink:title=" ">
<polygon fill="white" stroke="#bfbfbf" points="431.5,-425.5 431.5,-455.5 548.5,-455.5 548.5,-425.5 431.5,-425.5"/>
<text text-anchor="start" x="439.5" y="-443.5" font-family="Helvetica,sans-Serif" font-size="10.00">odp/api/abi/schedule</text>
<text text-anchor="middle" x="490" y="-432.5" font-family="Helvetica,sans-Serif" font-size="10.00">_types.h</text>
</a>
</g>
</g>
<!-- Node31&#45;&gt;Node32 -->
<g id="edge44" class="edge">
<title>Node31&#45;&gt;Node32</title>
<path fill="none" stroke="midnightblue" d="M494.28,-492.48C493.7,-485.47 492.83,-475.19 492.03,-465.7"/>
<polygon fill="midnightblue" stroke="midnightblue" points="495.5,-465.19 491.18,-455.52 488.53,-465.78 495.5,-465.19"/>
</g>
<!-- Node33 -->
<g id="node33" class="node">
<title>Node33</title>
<g id="a_node33"><a xlink:href="api_2spec_2schedule__types_8h.html" target="_top" xlink:title="ODP schedule types.">
<polygon fill="white" stroke="black" points="566.5,-425.5 566.5,-455.5 691.5,-455.5 691.5,-425.5 566.5,-425.5"/>
<text text-anchor="start" x="574.5" y="-443.5" font-family="Helvetica,sans-Serif" font-size="10.00">odp/api/spec/schedule</text>
<text text-anchor="middle" x="629" y="-432.5" font-family="Helvetica,sans-Serif" font-size="10.00">_types.h</text>
</a>
</g>
</g>
<!-- Node31&#45;&gt;Node33 -->
<g id="edge45" class="edge">
<title>Node31&#45;&gt;Node33</title>
<path fill="none" stroke="midnightblue" d="M514.2,-492.48C533.37,-483.96 563.42,-470.62 587.97,-459.72"/>
<polygon fill="midnightblue" stroke="midnightblue" points="589.7,-462.78 597.42,-455.52 586.86,-456.38 589.7,-462.78"/>
</g>
<!-- Node33&#45;&gt;Node4 -->
<g id="edge46" class="edge">
<title>Node33&#45;&gt;Node4</title>
<path fill="none" stroke="midnightblue" d="M566.21,-426.62C563.1,-426.05 560.02,-425.51 557,-425 441.11,-405.39 395.64,-449.72 295,-389 209.37,-337.34 190,-290 190,-190 190,-190 190,-190 190,-132 190,-95.29 198.64,-53.06 204.27,-29.45"/>
<polygon fill="midnightblue" stroke="midnightblue" points="207.67,-30.28 206.67,-19.73 200.87,-28.6 207.67,-30.28"/>
</g>
<!-- Node33&#45;&gt;Node5 -->
<g id="edge47" class="edge">
<title>Node33&#45;&gt;Node5</title>
<path fill="none" stroke="midnightblue" d="M620.89,-425.37C615.58,-415.49 608.91,-401.81 605,-389 592.23,-347.12 593.06,-334.74 595,-291 595.38,-282.37 596.18,-272.84 596.96,-264.78"/>
<polygon fill="midnightblue" stroke="midnightblue" points="600.46,-264.92 598.01,-254.61 593.5,-264.2 600.46,-264.92"/>
</g>
<!-- Node33&#45;&gt;Node12 -->
<g id="edge54" class="edge">
<title>Node33&#45;&gt;Node12</title>
<path fill="none" stroke="midnightblue" d="M689.38,-425.44C746.7,-409.28 831.92,-377.53 886,-322 965.19,-240.68 963.32,-198.22 986,-87 988.75,-73.5 989.22,-69.4 986,-56 983.69,-46.42 978.98,-36.58 974.42,-28.56"/>
<polygon fill="midnightblue" stroke="midnightblue" points="977.29,-26.54 969.1,-19.81 971.31,-30.17 977.29,-26.54"/>
</g>
<!-- Node34 -->
<g id="node34" class="node">
<title>Node34</title>
<g id="a_node34"><a xlink:href="api_2thrmask_8h.html" target="_top" xlink:title="ODP thread masks.">
<polygon fill="white" stroke="black" points="613.5,-364 613.5,-383 718.5,-383 718.5,-364 613.5,-364"/>
<text text-anchor="middle" x="666" y="-371" font-family="Helvetica,sans-Serif" font-size="10.00">odp/api/thrmask.h</text>
</a>
</g>
</g>
<!-- Node33&#45;&gt;Node34 -->
<g id="edge48" class="edge">
<title>Node33&#45;&gt;Node34</title>
<path fill="none" stroke="midnightblue" d="M637.03,-425.4C642.63,-415.56 650.13,-402.38 656.1,-391.89"/>
<polygon fill="midnightblue" stroke="midnightblue" points="659.15,-393.62 661.05,-383.19 653.06,-390.15 659.15,-393.62"/>
</g>
<!-- Node35 -->
<g id="node35" class="node">
<title>Node35</title>
<g id="a_node35"><a xlink:title=" ">
<polygon fill="white" stroke="#bfbfbf" points="604.5,-297 604.5,-316 727.5,-316 727.5,-297 604.5,-297"/>
<text text-anchor="middle" x="666" y="-304" font-family="Helvetica,sans-Serif" font-size="10.00">odp/api/abi/thrmask.h</text>
</a>
</g>
</g>
<!-- Node34&#45;&gt;Node35 -->
<g id="edge49" class="edge">
<title>Node34&#45;&gt;Node35</title>
<path fill="none" stroke="midnightblue" d="M666,-363.73C666,-354.18 666,-338.62 666,-326.28"/>
<polygon fill="midnightblue" stroke="midnightblue" points="669.5,-326.13 666,-316.13 662.5,-326.13 669.5,-326.13"/>
</g>
<!-- Node36 -->
<g id="node36" class="node">
<title>Node36</title>
<g id="a_node36"><a xlink:href="api_2spec_2thrmask_8h.html" target="_top" xlink:title="ODP thread masks.">
<polygon fill="white" stroke="black" points="745.5,-297 745.5,-316 876.5,-316 876.5,-297 745.5,-297"/>
<text text-anchor="middle" x="811" y="-304" font-family="Helvetica,sans-Serif" font-size="10.00">odp/api/spec/thrmask.h</text>
</a>
</g>
</g>
<!-- Node34&#45;&gt;Node36 -->
<g id="edge50" class="edge">
<title>Node34&#45;&gt;Node36</title>
<path fill="none" stroke="midnightblue" d="M685.25,-363.87C710.17,-352.7 753.79,-333.15 782.53,-320.26"/>
<polygon fill="midnightblue" stroke="midnightblue" points="783.97,-323.45 791.67,-316.17 781.11,-317.06 783.97,-323.45"/>
</g>
<!-- Node36&#45;&gt;Node4 -->
<g id="edge51" class="edge">
<title>Node36&#45;&gt;Node4</title>
<path fill="none" stroke="midnightblue" d="M767.98,-296.94C757.83,-294.95 747.04,-292.87 737,-291 579.74,-261.65 522.49,-287.18 389,-199 314.59,-149.85 247.93,-64.74 221.29,-28.33"/>
<polygon fill="midnightblue" stroke="midnightblue" points="223.82,-25.86 215.13,-19.8 218.15,-29.96 223.82,-25.86"/>
</g>
<!-- Node36&#45;&gt;Node5 -->
<g id="edge52" class="edge">
<title>Node36&#45;&gt;Node5</title>
<path fill="none" stroke="midnightblue" d="M780.63,-296.98C743.39,-286.53 680.19,-268.79 639.02,-257.23"/>
<polygon fill="midnightblue" stroke="midnightblue" points="639.89,-253.84 629.32,-254.51 638,-260.58 639.89,-253.84"/>
</g>
<!-- Node36&#45;&gt;Node12 -->
<g id="edge53" class="edge">
<title>Node36&#45;&gt;Node12</title>
<path fill="none" stroke="midnightblue" d="M814.55,-296.98C822.08,-278.08 839,-231.06 839,-190 839,-190 839,-190 839,-132 839,-97.07 836.24,-82.49 859,-56 872.77,-39.98 893.28,-29.48 912.45,-22.69"/>
<polygon fill="midnightblue" stroke="midnightblue" points="913.61,-26 922.02,-19.56 911.43,-19.35 913.61,-26"/>
</g>
<!-- Node38 -->
<g id="node38" class="node">
<title>Node38</title>
<g id="a_node38"><a xlink:title=" ">
<polygon fill="white" stroke="#bfbfbf" points="977,-677 977,-696 1105,-696 1105,-677 977,-677"/>
<text text-anchor="middle" x="1041" y="-684" font-family="Helvetica,sans-Serif" font-size="10.00">odp/api/abi/ml_types.h</text>
</a>
</g>
</g>
<!-- Node37&#45;&gt;Node38 -->
<g id="edge61" class="edge">
<title>Node37&#45;&gt;Node38</title>
<path fill="none" stroke="midnightblue" d="M1036.72,-738.48C1037.42,-730.08 1038.52,-716.98 1039.43,-706.16"/>
<polygon fill="midnightblue" stroke="midnightblue" points="1042.94,-706.27 1040.28,-696.01 1035.96,-705.68 1042.94,-706.27"/>
</g>
<!-- Node39 -->
<g id="node39" class="node">
<title>Node39</title>
<g id="a_node39"><a xlink:href="api_2spec_2ml__types_8h.html" target="_top" xlink:title="ODP Machine Learning (ML) types.">
<polygon fill="white" stroke="black" points="785.5,-677 785.5,-696 920.5,-696 920.5,-677 785.5,-677"/>
<text text-anchor="middle" x="853" y="-684" font-family="Helvetica,sans-Serif" font-size="10.00">odp/api/spec/ml_types.h</text>
</a>
</g>
</g>
<!-- Node37&#45;&gt;Node39 -->
<g id="edge62" class="edge">
<title>Node37&#45;&gt;Node39</title>
<path fill="none" stroke="midnightblue" d="M1009.78,-738.48C977.98,-728.14 924.23,-710.66 888.68,-699.1"/>
<polygon fill="midnightblue" stroke="midnightblue" points="889.76,-695.77 879.17,-696.01 887.6,-702.43 889.76,-695.77"/>
</g>
<!-- Node39&#45;&gt;Node4 -->
<g id="edge63" class="edge">
<title>Node39&#45;&gt;Node4</title>
<path fill="none" stroke="midnightblue" d="M848.65,-676.77C835.61,-651.64 794.11,-578.91 736,-548 609.65,-480.78 549.33,-564.02 416,-512 346.87,-485.03 152,-381.71 152,-307.5 152,-307.5 152,-307.5 152,-132 152,-91.59 178.34,-50.21 195.21,-27.85"/>
<polygon fill="midnightblue" stroke="midnightblue" points="198.15,-29.77 201.55,-19.74 192.63,-25.46 198.15,-29.77"/>
</g>
<!-- Node39&#45;&gt;Node5 -->
<g id="edge66" class="edge">
<title>Node39&#45;&gt;Node5</title>
<path fill="none" stroke="midnightblue" d="M854.26,-676.76C857.48,-654.93 866.46,-596.3 877,-548 887.44,-500.18 905,-490.44 905,-441.5 905,-441.5 905,-441.5 905,-372.5 905,-335.31 913.25,-316.32 886,-291 854.81,-262.03 739.96,-251.7 665.34,-248.02"/>
<polygon fill="midnightblue" stroke="midnightblue" points="665.25,-244.51 655.1,-247.55 664.92,-251.51 665.25,-244.51"/>
</g>
<!-- Node39&#45;&gt;Node12 -->
<g id="edge67" class="edge">
<title>Node39&#45;&gt;Node12</title>
<path fill="none" stroke="midnightblue" d="M920.68,-678.57C955.11,-672.07 995.75,-659.45 1025,-635 1072.68,-595.14 1133,-504.15 1133,-374.5 1133,-374.5 1133,-374.5 1133,-132 1133,-94.24 1123.45,-80.84 1095,-56 1075.93,-39.35 1050.42,-28.79 1026.91,-22.13"/>
<polygon fill="midnightblue" stroke="midnightblue" points="1027.54,-18.68 1016.98,-19.51 1025.75,-25.44 1027.54,-18.68"/>
</g>
<!-- Node39&#45;&gt;Node16 -->
<g id="edge64" class="edge">
<title>Node39&#45;&gt;Node16</title>
<path fill="none" stroke="midnightblue" d="M867.33,-676.98C883.66,-667.25 910.6,-651.23 929.91,-639.74"/>
<polygon fill="midnightblue" stroke="midnightblue" points="931.89,-642.63 938.7,-634.51 928.32,-636.61 931.89,-642.63"/>
</g>
<!-- Node39&#45;&gt;Node28 -->
<g id="edge65" class="edge">
<title>Node39&#45;&gt;Node28</title>
<path fill="none" stroke="midnightblue" d="M823.2,-676.98C786.75,-666.55 724.92,-648.86 684.53,-637.31"/>
<polygon fill="midnightblue" stroke="midnightblue" points="685.32,-633.89 674.75,-634.51 683.4,-640.62 685.32,-633.89"/>
</g>
</g>
</svg>
