<?xml version="1.0" encoding="UTF-8" standalone="no"?>
<!DOCTYPE svg PUBLIC "-//W3C//DTD SVG 1.1//EN"
 "http://www.w3.org/Graphics/SVG/1.1/DTD/svg11.dtd">
<!-- Generated by graphviz version 2.40.1 (20161225.0304)
 -->
<!-- Title: traffic_mngr.h Pages: 1 -->
<svg width="704pt" height="364pt"
 viewBox="0.00 0.00 704.00 364.00" xmlns="http://www.w3.org/2000/svg" xmlns:xlink="http://www.w3.org/1999/xlink">
<g id="graph0" class="graph" transform="scale(1 1) rotate(0) translate(4 360)">
<title>traffic_mngr.h</title>
<polygon fill="#ffffff" stroke="transparent" points="-4,4 -4,-360 700,-360 700,4 -4,4"/>
<!-- Node10 -->
<g id="node1" class="node">
<title>Node10</title>
<polygon fill="#bfbfbf" stroke="#000000" points="306,-336.5 306,-355.5 390,-355.5 390,-336.5 306,-336.5"/>
<text text-anchor="middle" x="348" y="-343.5" font-family="Helvetica,sans-Serif" font-size="10.00" fill="#000000">traffic_mngr.h</text>
</g>
<!-- Node11 -->
<g id="node2" class="node">
<title>Node11</title>
<g id="a_node2"><a xlink:href="arch_2arm32-linux_2odp_2api_2abi_2traffic__mngr_8h_source.html" target="_top" xlink:title="traffic_mngr.h">
<polygon fill="#ffffff" stroke="#000000" points="0,-280.5 0,-299.5 84,-299.5 84,-280.5 0,-280.5"/>
<text text-anchor="middle" x="42" y="-287.5" font-family="Helvetica,sans-Serif" font-size="10.00" fill="#000000">traffic_mngr.h</text>
</a>
</g>
</g>
<!-- Node10&#45;&gt;Node11 -->
<g id="edge1" class="edge">
<title>Node10&#45;&gt;Node11</title>
<path fill="none" stroke="#191970" d="M296.0972,-336.8746C244.5407,-327.7541 163.251,-313.2229 93,-300 90.0739,-299.4492 87.0547,-298.8743 84.015,-298.2906"/>
<polygon fill="#191970" stroke="#191970" points="295.5434,-340.3309 306,-338.6245 296.7616,-333.4377 295.5434,-340.3309"/>
</g>
<!-- Node12 -->
<g id="node3" class="node">
<title>Node12</title>
<g id="a_node3"><a xlink:href="arch_2arm64-linux_2odp_2api_2abi_2traffic__mngr_8h_source.html" target="_top" xlink:title="traffic_mngr.h">
<polygon fill="#ffffff" stroke="#000000" points="102,-280.5 102,-299.5 186,-299.5 186,-280.5 102,-280.5"/>
<text text-anchor="middle" x="144" y="-287.5" font-family="Helvetica,sans-Serif" font-size="10.00" fill="#000000">traffic_mngr.h</text>
</a>
</g>
</g>
<!-- Node10&#45;&gt;Node12 -->
<g id="edge2" class="edge">
<title>Node10&#45;&gt;Node12</title>
<path fill="none" stroke="#191970" d="M303.2653,-333.7199C265.7545,-323.4228 212.9579,-308.9296 178.6112,-299.5011"/>
<polygon fill="#191970" stroke="#191970" points="302.3613,-337.1012 312.9311,-336.3733 304.2144,-330.3509 302.3613,-337.1012"/>
</g>
<!-- Node13 -->
<g id="node4" class="node">
<title>Node13</title>
<g id="a_node4"><a xlink:href="arch_2default-linux_2odp_2api_2abi_2traffic__mngr_8h_source.html" target="_top" xlink:title="traffic_mngr.h">
<polygon fill="#ffffff" stroke="#000000" points="204,-280.5 204,-299.5 288,-299.5 288,-280.5 204,-280.5"/>
<text text-anchor="middle" x="246" y="-287.5" font-family="Helvetica,sans-Serif" font-size="10.00" fill="#000000">traffic_mngr.h</text>
</a>
</g>
</g>
<!-- Node10&#45;&gt;Node13 -->
<g id="edge3" class="edge">
<title>Node10&#45;&gt;Node13</title>
<path fill="none" stroke="#191970" d="M321.266,-331.3225C303.0468,-321.3198 279.4402,-308.3593 263.5634,-299.6427"/>
<polygon fill="#191970" stroke="#191970" points="319.7827,-334.5009 330.233,-336.2455 323.1516,-328.3649 319.7827,-334.5009"/>
</g>
<!-- Node14 -->
<g id="node5" class="node">
<title>Node14</title>
<g id="a_node5"><a xlink:href="arch_2mips64-linux_2odp_2api_2abi_2traffic__mngr_8h_source.html" target="_top" xlink:title="traffic_mngr.h">
<polygon fill="#ffffff" stroke="#000000" points="306,-280.5 306,-299.5 390,-299.5 390,-280.5 306,-280.5"/>
<text text-anchor="middle" x="348" y="-287.5" font-family="Helvetica,sans-Serif" font-size="10.00" fill="#000000">traffic_mngr.h</text>
</a>
</g>
</g>
<!-- Node10&#45;&gt;Node14 -->
<g id="edge4" class="edge">
<title>Node10&#45;&gt;Node14</title>
<path fill="none" stroke="#191970" d="M348,-326.1575C348,-317.155 348,-306.9199 348,-299.6427"/>
<polygon fill="#191970" stroke="#191970" points="344.5001,-326.2455 348,-336.2455 351.5001,-326.2456 344.5001,-326.2455"/>
</g>
<!-- Node15 -->
<g id="node6" class="node">
<title>Node15</title>
<g id="a_node6"><a xlink:href="arch_2power64-linux_2odp_2api_2abi_2traffic__mngr_8h_source.html" target="_top" xlink:title="traffic_mngr.h">
<polygon fill="#ffffff" stroke="#000000" points="408,-280.5 408,-299.5 492,-299.5 492,-280.5 408,-280.5"/>
<text text-anchor="middle" x="450" y="-287.5" font-family="Helvetica,sans-Serif" font-size="10.00" fill="#000000">traffic_mngr.h</text>
</a>
</g>
</g>
<!-- Node10&#45;&gt;Node15 -->
<g id="edge5" class="edge">
<title>Node10&#45;&gt;Node15</title>
<path fill="none" stroke="#191970" d="M374.734,-331.3225C392.9532,-321.3198 416.5598,-308.3593 432.4366,-299.6427"/>
<polygon fill="#191970" stroke="#191970" points="372.8484,-328.3649 365.767,-336.2455 376.2173,-334.5009 372.8484,-328.3649"/>
</g>
<!-- Node16 -->
<g id="node7" class="node">
<title>Node16</title>
<g id="a_node7"><a xlink:href="arch_2x86__32-linux_2odp_2api_2abi_2traffic__mngr_8h_source.html" target="_top" xlink:title="traffic_mngr.h">
<polygon fill="#ffffff" stroke="#000000" points="510,-280.5 510,-299.5 594,-299.5 594,-280.5 510,-280.5"/>
<text text-anchor="middle" x="552" y="-287.5" font-family="Helvetica,sans-Serif" font-size="10.00" fill="#000000">traffic_mngr.h</text>
</a>
</g>
</g>
<!-- Node10&#45;&gt;Node16 -->
<g id="edge6" class="edge">
<title>Node10&#45;&gt;Node16</title>
<path fill="none" stroke="#191970" d="M392.7347,-333.7199C430.2455,-323.4228 483.0421,-308.9296 517.3888,-299.5011"/>
<polygon fill="#191970" stroke="#191970" points="391.7856,-330.3509 383.0689,-336.3733 393.6387,-337.1012 391.7856,-330.3509"/>
</g>
<!-- Node17 -->
<g id="node8" class="node">
<title>Node17</title>
<g id="a_node8"><a xlink:href="arch_2x86__64-linux_2odp_2api_2abi_2traffic__mngr_8h_source.html" target="_top" xlink:title="traffic_mngr.h">
<polygon fill="#ffffff" stroke="#000000" points="612,-280.5 612,-299.5 696,-299.5 696,-280.5 612,-280.5"/>
<text text-anchor="middle" x="654" y="-287.5" font-family="Helvetica,sans-Serif" font-size="10.00" fill="#000000">traffic_mngr.h</text>
</a>
</g>
</g>
<!-- Node10&#45;&gt;Node17 -->
<g id="edge7" class="edge">
<title>Node10&#45;&gt;Node17</title>
<path fill="none" stroke="#191970" d="M399.9028,-336.8746C451.4593,-327.7541 532.749,-313.2229 603,-300 605.9261,-299.4492 608.9453,-298.8743 611.985,-298.2906"/>
<polygon fill="#191970" stroke="#191970" points="399.2384,-333.4377 390,-338.6245 400.4566,-340.3309 399.2384,-333.4377"/>
</g>
<!-- Node18 -->
<g id="node9" class="node">
<title>Node18</title>
<g id="a_node9"><a xlink:href="api_2traffic__mngr_8h.html" target="_top" xlink:title="ODP Traffic manager. ">
<polygon fill="#ffffff" stroke="#000000" points="612,-224.5 612,-243.5 696,-243.5 696,-224.5 612,-224.5"/>
<text text-anchor="middle" x="654" y="-231.5" font-family="Helvetica,sans-Serif" font-size="10.00" fill="#000000">traffic_mngr.h</text>
</a>
</g>
</g>
<!-- Node17&#45;&gt;Node18 -->
<g id="edge8" class="edge">
<title>Node17&#45;&gt;Node18</title>
<path fill="none" stroke="#191970" d="M654,-270.1575C654,-261.155 654,-250.9199 654,-243.6427"/>
<polygon fill="#191970" stroke="#191970" points="650.5001,-270.2455 654,-280.2455 657.5001,-270.2456 650.5001,-270.2455"/>
</g>
<!-- Node19 -->
<g id="node10" class="node">
<title>Node19</title>
<g id="a_node10"><a xlink:href="api_2spec_2ipsec_8h.html" target="_top" xlink:title="ODP IPSEC API. ">
<polygon fill="#ffffff" stroke="#000000" points="601.5,-168.5 601.5,-187.5 652.5,-187.5 652.5,-168.5 601.5,-168.5"/>
<text text-anchor="middle" x="627" y="-175.5" font-family="Helvetica,sans-Serif" font-size="10.00" fill="#000000">ipsec.h</text>
</a>
</g>
</g>
<!-- Node18&#45;&gt;Node19 -->
<g id="edge9" class="edge">
<title>Node18&#45;&gt;Node19</title>
<path fill="none" stroke="#191970" d="M644.8604,-215.0437C640.4195,-205.8331 635.2735,-195.1598 631.6491,-187.6427"/>
<polygon fill="#191970" stroke="#191970" points="641.8012,-216.7579 649.297,-224.2455 648.1066,-213.7178 641.8012,-216.7579"/>
</g>
<!-- Node21 -->
<g id="node12" class="node">
<title>Node21</title>
<g id="a_node12"><a xlink:href="odp__api_8h.html" target="_top" xlink:title="The OpenDataPlane API. ">
<polygon fill="#ffffff" stroke="#000000" points="622,-56.5 622,-75.5 686,-75.5 686,-56.5 622,-56.5"/>
<text text-anchor="middle" x="654" y="-63.5" font-family="Helvetica,sans-Serif" font-size="10.00" fill="#000000">odp_api.h</text>
</a>
</g>
</g>
<!-- Node18&#45;&gt;Node21 -->
<g id="edge13" class="edge">
<title>Node18&#45;&gt;Node21</title>
<path fill="none" stroke="#191970" d="M658.207,-214.2292C659.7271,-206.1393 661.2524,-196.6615 662,-188 664.9045,-154.3473 664.9045,-145.6527 662,-112 660.9126,-99.4015 658.1798,-85.0759 656.2107,-75.8064"/>
<polygon fill="#191970" stroke="#191970" points="654.7433,-213.7009 656.2107,-224.1936 661.6069,-215.076 654.7433,-213.7009"/>
</g>
<!-- Node20 -->
<g id="node11" class="node">
<title>Node20</title>
<g id="a_node11"><a xlink:href="api_2ipsec_8h.html" target="_top" xlink:title="ODP IPSEC API &#45; platform specific header. ">
<polygon fill="#ffffff" stroke="#000000" points="601.5,-112.5 601.5,-131.5 652.5,-131.5 652.5,-112.5 601.5,-112.5"/>
<text text-anchor="middle" x="627" y="-119.5" font-family="Helvetica,sans-Serif" font-size="10.00" fill="#000000">ipsec.h</text>
</a>
</g>
</g>
<!-- Node19&#45;&gt;Node20 -->
<g id="edge10" class="edge">
<title>Node19&#45;&gt;Node20</title>
<path fill="none" stroke="#191970" d="M627,-158.1575C627,-149.155 627,-138.9199 627,-131.6427"/>
<polygon fill="#191970" stroke="#191970" points="623.5001,-158.2455 627,-168.2455 630.5001,-158.2456 623.5001,-158.2455"/>
</g>
<!-- Node20&#45;&gt;Node21 -->
<g id="edge11" class="edge">
<title>Node20&#45;&gt;Node21</title>
<path fill="none" stroke="#191970" d="M636.1396,-103.0437C640.5805,-93.8331 645.7265,-83.1598 649.3509,-75.6427"/>
<polygon fill="#191970" stroke="#191970" points="632.8934,-101.7178 631.703,-112.2455 639.1988,-104.7579 632.8934,-101.7178"/>
</g>
<!-- Node22 -->
<g id="node13" class="node">
<title>Node22</title>
<g id="a_node13"><a xlink:href="odp_8h.html" target="_top" xlink:title="WARNING: THIS FILE IS DEPRECATED AND WILL BE REMOVED!!! ODP APPLICATIONS SHOULD NOW INCLUDE odp_api...">
<polygon fill="#ffffff" stroke="#000000" points="632,-.5 632,-19.5 676,-19.5 676,-.5 632,-.5"/>
<text text-anchor="middle" x="654" y="-7.5" font-family="Helvetica,sans-Serif" font-size="10.00" fill="#000000">odp.h</text>
</a>
</g>
</g>
<!-- Node21&#45;&gt;Node22 -->
<g id="edge12" class="edge">
<title>Node21&#45;&gt;Node22</title>
<path fill="none" stroke="#191970" d="M654,-46.1575C654,-37.155 654,-26.9199 654,-19.6427"/>
<polygon fill="#191970" stroke="#191970" points="650.5001,-46.2455 654,-56.2455 657.5001,-46.2456 650.5001,-46.2455"/>
</g>
</g>
</svg>
