<?xml version="1.0" encoding="UTF-8" standalone="no"?>
<!DOCTYPE svg PUBLIC "-//W3C//DTD SVG 1.1//EN"
 "http://www.w3.org/Graphics/SVG/1.1/DTD/svg11.dtd">
<!-- Generated by graphviz version 2.43.0 (0)
 -->
<!-- Title: std_types.h Pages: 1 -->
<svg width="4607pt" height="196pt"
 viewBox="0.00 0.00 4607.31 196.00" xmlns="http://www.w3.org/2000/svg" xmlns:xlink="http://www.w3.org/1999/xlink">
<g id="graph0" class="graph" transform="scale(1 1) rotate(0) translate(4 192)">
<title>std_types.h</title>
<polygon fill="white" stroke="transparent" points="-4,4 -4,-192 4603.31,-192 4603.31,4 -4,4"/>
<!-- Node1 -->
<g id="node1" class="node">
<title>Node1</title>
<g id="a_node1"><a xlink:title="Standard C language types and definitions for ODP.">
<polygon fill="#bfbfbf" stroke="black" points="2401,-168.5 2401,-187.5 2474,-187.5 2474,-168.5 2401,-168.5"/>
<text text-anchor="middle" x="2437.5" y="-175.5" font-family="Helvetica,sans-Serif" font-size="10.00">std_types.h</text>
</a>
</g>
</g>
<!-- Node2 -->
<g id="node2" class="node">
<title>Node2</title>
<g id="a_node2"><a xlink:href="api_2abi-default_2atomic_8h.html" target="_top" xlink:title="ODP atomic operations.">
<polygon fill="white" stroke="black" points="231,-112.5 231,-131.5 290,-131.5 290,-112.5 231,-112.5"/>
<text text-anchor="middle" x="260.5" y="-119.5" font-family="Helvetica,sans-Serif" font-size="10.00">atomic.h</text>
</a>
</g>
</g>
<!-- Node1&#45;&gt;Node2 -->
<g id="edge1" class="edge">
<title>Node1&#45;&gt;Node2</title>
<path fill="none" stroke="midnightblue" d="M2390.96,-176.2C2175,-172.45 1248.82,-155.69 489.5,-132 417.92,-129.77 333.78,-126.22 290.14,-124.32"/>
<polygon fill="midnightblue" stroke="midnightblue" points="2390.94,-179.7 2401,-176.38 2391.06,-172.7 2390.94,-179.7"/>
</g>
<!-- Node9 -->
<g id="node9" class="node">
<title>Node9</title>
<g id="a_node9"><a xlink:href="api_2abi-default_2barrier_8h.html" target="_top" xlink:title="ODP barrier.">
<polygon fill="white" stroke="red" points="499,-112.5 499,-131.5 556,-131.5 556,-112.5 499,-112.5"/>
<text text-anchor="middle" x="527.5" y="-119.5" font-family="Helvetica,sans-Serif" font-size="10.00">barrier.h</text>
</a>
</g>
</g>
<!-- Node1&#45;&gt;Node9 -->
<g id="edge8" class="edge">
<title>Node1&#45;&gt;Node9</title>
<path fill="none" stroke="midnightblue" d="M2390.39,-177.2C2137.02,-178.06 934.01,-179.54 565.5,-132 562.41,-131.6 559.2,-131.05 556.02,-130.43"/>
<polygon fill="midnightblue" stroke="midnightblue" points="2390.73,-180.7 2400.72,-177.16 2390.71,-173.7 2390.73,-180.7"/>
</g>
<!-- Node16 -->
<g id="node13" class="node">
<title>Node16</title>
<g id="a_node13"><a xlink:href="api_2abi-default_2byteorder_8h.html" target="_top" xlink:title="ODP byteorder.">
<polygon fill="white" stroke="red" points="574.5,-112.5 574.5,-131.5 646.5,-131.5 646.5,-112.5 574.5,-112.5"/>
<text text-anchor="middle" x="610.5" y="-119.5" font-family="Helvetica,sans-Serif" font-size="10.00">byteorder.h</text>
</a>
</g>
</g>
<!-- Node1&#45;&gt;Node16 -->
<g id="edge12" class="edge">
<title>Node1&#45;&gt;Node16</title>
<path fill="none" stroke="midnightblue" d="M2390.71,-176.91C2145.46,-176.27 1006.08,-171.19 655.5,-132 652.65,-131.68 649.71,-131.27 646.77,-130.81"/>
<polygon fill="midnightblue" stroke="midnightblue" points="2390.71,-180.41 2400.72,-176.93 2390.73,-173.41 2390.71,-180.41"/>
</g>
<!-- Node23 -->
<g id="node14" class="node">
<title>Node23</title>
<g id="a_node14"><a xlink:href="api_2abi-default_2cpumask_8h.html" target="_top" xlink:title="ODP CPU masks and enumeration.">
<polygon fill="white" stroke="red" points="664.5,-112.5 664.5,-131.5 734.5,-131.5 734.5,-112.5 664.5,-112.5"/>
<text text-anchor="middle" x="699.5" y="-119.5" font-family="Helvetica,sans-Serif" font-size="10.00">cpumask.h</text>
</a>
</g>
</g>
<!-- Node1&#45;&gt;Node23 -->
<g id="edge13" class="edge">
<title>Node1&#45;&gt;Node23</title>
<path fill="none" stroke="midnightblue" d="M2390.76,-176.87C2152.94,-176.01 1075.61,-170.08 743.5,-132 740.71,-131.68 737.84,-131.27 734.96,-130.81"/>
<polygon fill="midnightblue" stroke="midnightblue" points="2390.79,-180.37 2400.8,-176.9 2390.82,-173.37 2390.79,-180.37"/>
</g>
<!-- Node30 -->
<g id="node15" class="node">
<title>Node30</title>
<g id="a_node15"><a xlink:href="api_2abi-default_2init_8h.html" target="_top" xlink:title="ODP initialization.">
<polygon fill="white" stroke="red" points="753,-112.5 753,-131.5 794,-131.5 794,-112.5 753,-112.5"/>
<text text-anchor="middle" x="773.5" y="-119.5" font-family="Helvetica,sans-Serif" font-size="10.00">init.h</text>
</a>
</g>
</g>
<!-- Node1&#45;&gt;Node30 -->
<g id="edge14" class="edge">
<title>Node1&#45;&gt;Node30</title>
<path fill="none" stroke="midnightblue" d="M2390.39,-176.47C2139.15,-173.54 962.51,-158.52 802.5,-132 799.8,-131.55 796.99,-130.91 794.24,-130.18"/>
<polygon fill="midnightblue" stroke="midnightblue" points="2390.6,-179.97 2400.64,-176.59 2390.68,-172.97 2390.6,-179.97"/>
</g>
<!-- Node37 -->
<g id="node16" class="node">
<title>Node37</title>
<g id="a_node16"><a xlink:href="api_2abi-default_2ipsec__types_8h_source.html" target="_top" xlink:title=" ">
<polygon fill="white" stroke="red" points="812,-112.5 812,-131.5 895,-131.5 895,-112.5 812,-112.5"/>
<text text-anchor="middle" x="853.5" y="-119.5" font-family="Helvetica,sans-Serif" font-size="10.00">ipsec_types.h</text>
</a>
</g>
</g>
<!-- Node1&#45;&gt;Node37 -->
<g id="edge15" class="edge">
<title>Node1&#45;&gt;Node37</title>
<path fill="none" stroke="midnightblue" d="M2390.62,-176.54C2166.57,-174.22 1203.37,-162.59 904.5,-132 901.46,-131.69 898.33,-131.3 895.18,-130.86"/>
<polygon fill="midnightblue" stroke="midnightblue" points="2390.69,-180.04 2400.73,-176.65 2390.76,-173.04 2390.69,-180.04"/>
</g>
<!-- Node44 -->
<g id="node17" class="node">
<title>Node44</title>
<g id="a_node17"><a xlink:href="api_2abi-default_2packet__io__types_8h.html" target="_top" xlink:title="ODP Packet IO.">
<polygon fill="white" stroke="red" points="913.5,-112.5 913.5,-131.5 1017.5,-131.5 1017.5,-112.5 913.5,-112.5"/>
<text text-anchor="middle" x="965.5" y="-119.5" font-family="Helvetica,sans-Serif" font-size="10.00">packet_io_types.h</text>
</a>
</g>
</g>
<!-- Node1&#45;&gt;Node44 -->
<g id="edge16" class="edge">
<title>Node1&#45;&gt;Node44</title>
<path fill="none" stroke="midnightblue" d="M2390.83,-177.45C2212.99,-178.75 1560.84,-179.78 1026.5,-132 1023.62,-131.74 1020.67,-131.44 1017.7,-131.1"/>
<polygon fill="midnightblue" stroke="midnightblue" points="2390.92,-180.95 2400.89,-177.37 2390.86,-173.95 2390.92,-180.95"/>
</g>
<!-- Node51 -->
<g id="node18" class="node">
<title>Node51</title>
<g id="a_node18"><a xlink:href="api_2abi-default_2rwlock__recursive_8h.html" target="_top" xlink:title="ODP recursive read/write lock.">
<polygon fill="white" stroke="red" points="1035.5,-112.5 1035.5,-131.5 1143.5,-131.5 1143.5,-112.5 1035.5,-112.5"/>
<text text-anchor="middle" x="1089.5" y="-119.5" font-family="Helvetica,sans-Serif" font-size="10.00">rwlock_recursive.h</text>
</a>
</g>
</g>
<!-- Node1&#45;&gt;Node51 -->
<g id="edge17" class="edge">
<title>Node1&#45;&gt;Node51</title>
<path fill="none" stroke="midnightblue" d="M2390.65,-177.16C2222.66,-177.37 1634.95,-174.78 1152.5,-132 1149.64,-131.75 1146.71,-131.45 1143.75,-131.13"/>
<polygon fill="midnightblue" stroke="midnightblue" points="2390.88,-180.66 2400.87,-177.15 2390.86,-173.66 2390.88,-180.66"/>
</g>
<!-- Node58 -->
<g id="node19" class="node">
<title>Node58</title>
<g id="a_node19"><a xlink:href="api_2abi-default_2schedule__types_8h.html" target="_top" xlink:title="ODP schedule.">
<polygon fill="white" stroke="red" points="1162,-112.5 1162,-131.5 1263,-131.5 1263,-112.5 1162,-112.5"/>
<text text-anchor="middle" x="1212.5" y="-119.5" font-family="Helvetica,sans-Serif" font-size="10.00">schedule_types.h</text>
</a>
</g>
</g>
<!-- Node1&#45;&gt;Node58 -->
<g id="edge18" class="edge">
<title>Node1&#45;&gt;Node58</title>
<path fill="none" stroke="midnightblue" d="M2390.35,-177.04C2232.09,-176.78 1705.39,-172.7 1272.5,-132 1269.46,-131.71 1266.34,-131.38 1263.19,-131.01"/>
<polygon fill="midnightblue" stroke="midnightblue" points="2390.67,-180.54 2400.68,-177.05 2390.68,-173.54 2390.67,-180.54"/>
</g>
<!-- Node65 -->
<g id="node20" class="node">
<title>Node65</title>
<g id="a_node20"><a xlink:href="api_2abi-default_2spinlock__recursive_8h.html" target="_top" xlink:title="ODP recursive spinlock.">
<polygon fill="white" stroke="red" points="1281.5,-112.5 1281.5,-131.5 1397.5,-131.5 1397.5,-112.5 1281.5,-112.5"/>
<text text-anchor="middle" x="1339.5" y="-119.5" font-family="Helvetica,sans-Serif" font-size="10.00">spinlock_recursive.h</text>
</a>
</g>
</g>
<!-- Node1&#45;&gt;Node65 -->
<g id="edge19" class="edge">
<title>Node1&#45;&gt;Node65</title>
<path fill="none" stroke="midnightblue" d="M2390.52,-176.45C2244.43,-174.43 1785.18,-165.63 1406.5,-132 1403.58,-131.74 1400.59,-131.45 1397.57,-131.13"/>
<polygon fill="midnightblue" stroke="midnightblue" points="2390.85,-179.96 2400.9,-176.59 2390.94,-172.96 2390.85,-179.96"/>
</g>
<!-- Node72 -->
<g id="node21" class="node">
<title>Node72</title>
<g id="a_node21"><a xlink:href="api_2abi-default_2traffic__mngr_8h.html" target="_top" xlink:title="ODP traffic mngr.">
<polygon fill="white" stroke="red" points="1415.5,-112.5 1415.5,-131.5 1499.5,-131.5 1499.5,-112.5 1415.5,-112.5"/>
<text text-anchor="middle" x="1457.5" y="-119.5" font-family="Helvetica,sans-Serif" font-size="10.00">traffic_mngr.h</text>
</a>
</g>
</g>
<!-- Node1&#45;&gt;Node72 -->
<g id="edge20" class="edge">
<title>Node1&#45;&gt;Node72</title>
<path fill="none" stroke="midnightblue" d="M2390.8,-176.55C2254.99,-174.85 1848.61,-166.98 1513.5,-132 1508.99,-131.53 1504.3,-130.94 1499.63,-130.28"/>
<polygon fill="midnightblue" stroke="midnightblue" points="2390.81,-180.05 2400.85,-176.67 2390.9,-173.05 2390.81,-180.05"/>
</g>
<!-- Node79 -->
<g id="node22" class="node">
<title>Node79</title>
<g id="a_node22"><a xlink:href="api_2barrier_8h.html" target="_top" xlink:title="ODP execution barriers.">
<polygon fill="white" stroke="black" points="1698,-56.5 1698,-75.5 1755,-75.5 1755,-56.5 1698,-56.5"/>
<text text-anchor="middle" x="1726.5" y="-63.5" font-family="Helvetica,sans-Serif" font-size="10.00">barrier.h</text>
</a>
</g>
</g>
<!-- Node1&#45;&gt;Node79 -->
<g id="edge21" class="edge">
<title>Node1&#45;&gt;Node79</title>
<path fill="none" stroke="midnightblue" d="M2390.67,-176.04C2226.66,-172.44 1686.62,-158.62 1661.5,-132 1642,-111.34 1681.04,-87.99 1706.64,-75.67"/>
<polygon fill="midnightblue" stroke="midnightblue" points="2390.85,-179.54 2400.93,-176.26 2391,-172.54 2390.85,-179.54"/>
</g>
<!-- Node80 -->
<g id="node23" class="node">
<title>Node80</title>
<g id="a_node23"><a xlink:href="odp__api_8h.html" target="_top" xlink:title="The OpenDataPlane API.">
<polygon fill="white" stroke="black" points="1604.5,-0.5 1604.5,-19.5 1668.5,-19.5 1668.5,-0.5 1604.5,-0.5"/>
<text text-anchor="middle" x="1636.5" y="-7.5" font-family="Helvetica,sans-Serif" font-size="10.00">odp_api.h</text>
</a>
</g>
</g>
<!-- Node1&#45;&gt;Node80 -->
<g id="edge65" class="edge">
<title>Node1&#45;&gt;Node80</title>
<path fill="none" stroke="midnightblue" d="M2390.9,-176.46C2229.81,-174.31 1702.58,-164.8 1634.5,-132 1598.07,-114.45 1567.69,-92.77 1584.5,-56 1591.89,-39.82 1608.3,-27.23 1620.72,-19.53"/>
<polygon fill="midnightblue" stroke="midnightblue" points="2390.93,-179.96 2400.97,-176.59 2391.02,-172.96 2390.93,-179.96"/>
</g>
<!-- Node81 -->
<g id="node24" class="node">
<title>Node81</title>
<g id="a_node24"><a xlink:href="api_2classification_8h.html" target="_top" xlink:title="ODP classification descriptor.">
<polygon fill="white" stroke="red" points="1834,-56.5 1834,-75.5 1923,-75.5 1923,-56.5 1834,-56.5"/>
<text text-anchor="middle" x="1878.5" y="-63.5" font-family="Helvetica,sans-Serif" font-size="10.00">classification.h</text>
</a>
</g>
</g>
<!-- Node1&#45;&gt;Node81 -->
<g id="edge23" class="edge">
<title>Node1&#45;&gt;Node81</title>
<path fill="none" stroke="midnightblue" d="M2390.67,-175.95C2286.32,-173.07 2037.82,-163.08 1960.5,-132 1928.81,-119.26 1899.44,-90.18 1886.08,-75.63"/>
<polygon fill="midnightblue" stroke="midnightblue" points="2390.81,-179.46 2400.9,-176.22 2390.99,-172.46 2390.81,-179.46"/>
</g>
<!-- Node82 -->
<g id="node25" class="node">
<title>Node82</title>
<g id="a_node25"><a xlink:href="api_2spec_2ipsec__types_8h.html" target="_top" xlink:title="ODP IPsec API type definitions.">
<polygon fill="white" stroke="red" points="3204,-0.5 3204,-19.5 3287,-19.5 3287,-0.5 3204,-0.5"/>
<text text-anchor="middle" x="3245.5" y="-7.5" font-family="Helvetica,sans-Serif" font-size="10.00">ipsec_types.h</text>
</a>
</g>
</g>
<!-- Node1&#45;&gt;Node82 -->
<g id="edge40" class="edge">
<title>Node1&#45;&gt;Node82</title>
<path fill="none" stroke="midnightblue" d="M2484.25,-176.92C2795.38,-176.29 4555.3,-171.01 4593.5,-132 4688.03,-35.47 3524.61,-14.72 3287.31,-11.5"/>
<polygon fill="midnightblue" stroke="midnightblue" points="2484.21,-173.42 2474.21,-176.94 2484.22,-180.42 2484.21,-173.42"/>
</g>
<!-- Node88 -->
<g id="node26" class="node">
<title>Node88</title>
<g id="a_node26"><a xlink:href="api_2proto__stats_8h.html" target="_top" xlink:title="ODP proto stats.">
<polygon fill="white" stroke="black" points="1457.5,-56.5 1457.5,-75.5 1537.5,-75.5 1537.5,-56.5 1457.5,-56.5"/>
<text text-anchor="middle" x="1497.5" y="-63.5" font-family="Helvetica,sans-Serif" font-size="10.00">proto_stats.h</text>
</a>
</g>
</g>
<!-- Node1&#45;&gt;Node88 -->
<g id="edge26" class="edge">
<title>Node1&#45;&gt;Node88</title>
<path fill="none" stroke="midnightblue" d="M2390.71,-176.81C2218.58,-175.81 1626.71,-169.65 1551.5,-132 1526.84,-119.65 1509.28,-90.39 1501.69,-75.71"/>
<polygon fill="midnightblue" stroke="midnightblue" points="2390.94,-180.31 2400.96,-176.87 2390.98,-173.31 2390.94,-180.31"/>
</g>
<!-- Node89 -->
<g id="node27" class="node">
<title>Node89</title>
<g id="a_node27"><a xlink:href="api_2spec_2buffer_8h.html" target="_top" xlink:title="ODP buffer.">
<polygon fill="white" stroke="red" points="1777,-112.5 1777,-131.5 1830,-131.5 1830,-112.5 1777,-112.5"/>
<text text-anchor="middle" x="1803.5" y="-119.5" font-family="Helvetica,sans-Serif" font-size="10.00">buffer.h</text>
</a>
</g>
</g>
<!-- Node1&#45;&gt;Node89 -->
<g id="edge28" class="edge">
<title>Node1&#45;&gt;Node89</title>
<path fill="none" stroke="midnightblue" d="M2390.65,-176.18C2289.43,-173.8 2043,-164.85 1839.5,-132 1836.45,-131.51 1833.27,-130.88 1830.13,-130.19"/>
<polygon fill="midnightblue" stroke="midnightblue" points="2390.77,-179.68 2400.84,-176.4 2390.92,-172.68 2390.77,-179.68"/>
</g>
<!-- Node91 -->
<g id="node28" class="node">
<title>Node91</title>
<g id="a_node28"><a xlink:href="spec_2chksum_8h.html" target="_top" xlink:title="ODP checksum functions.">
<polygon fill="white" stroke="red" points="1848.5,-112.5 1848.5,-131.5 1912.5,-131.5 1912.5,-112.5 1848.5,-112.5"/>
<text text-anchor="middle" x="1880.5" y="-119.5" font-family="Helvetica,sans-Serif" font-size="10.00">chksum.h</text>
</a>
</g>
</g>
<!-- Node1&#45;&gt;Node91 -->
<g id="edge29" class="edge">
<title>Node1&#45;&gt;Node91</title>
<path fill="none" stroke="midnightblue" d="M2390.62,-174.53C2300.42,-169.41 2096.57,-156.06 1926.5,-132 1921.99,-131.36 1917.25,-130.57 1912.6,-129.73"/>
<polygon fill="midnightblue" stroke="midnightblue" points="2390.61,-178.03 2400.79,-175.1 2391,-171.04 2390.61,-178.03"/>
</g>
<!-- Node93 -->
<g id="node29" class="node">
<title>Node93</title>
<g id="a_node29"><a xlink:href="api_2spec_2classification_8h.html" target="_top" xlink:title="ODP classification descriptor.">
<polygon fill="white" stroke="black" points="1670,-112.5 1670,-131.5 1759,-131.5 1759,-112.5 1670,-112.5"/>
<text text-anchor="middle" x="1714.5" y="-119.5" font-family="Helvetica,sans-Serif" font-size="10.00">classification.h</text>
</a>
</g>
</g>
<!-- Node1&#45;&gt;Node93 -->
<g id="edge30" class="edge">
<title>Node1&#45;&gt;Node93</title>
<path fill="none" stroke="midnightblue" d="M2390.73,-175.43C2281.5,-171.42 2001.2,-159.15 1768.5,-132 1765.48,-131.65 1762.37,-131.24 1759.24,-130.8"/>
<polygon fill="midnightblue" stroke="midnightblue" points="2390.64,-178.93 2400.76,-175.79 2390.89,-171.94 2390.64,-178.93"/>
</g>
<!-- Node94 -->
<g id="node30" class="node">
<title>Node94</title>
<g id="a_node30"><a xlink:href="api_2spec_2comp_8h.html" target="_top" xlink:title="ODP Compression.">
<polygon fill="white" stroke="red" points="1969,-112.5 1969,-131.5 2022,-131.5 2022,-112.5 1969,-112.5"/>
<text text-anchor="middle" x="1995.5" y="-119.5" font-family="Helvetica,sans-Serif" font-size="10.00">comp.h</text>
</a>
</g>
</g>
<!-- Node1&#45;&gt;Node94 -->
<g id="edge32" class="edge">
<title>Node1&#45;&gt;Node94</title>
<path fill="none" stroke="midnightblue" d="M2390.7,-173.87C2314.83,-168.34 2160.5,-155.17 2031.5,-132 2028.46,-131.45 2025.29,-130.8 2022.15,-130.09"/>
<polygon fill="midnightblue" stroke="midnightblue" points="2390.64,-177.37 2400.87,-174.6 2391.15,-170.39 2390.64,-177.37"/>
</g>
<!-- Node96 -->
<g id="node31" class="node">
<title>Node96</title>
<g id="a_node31"><a xlink:href="api_2spec_2cpu_8h.html" target="_top" xlink:title="ODP CPU API.">
<polygon fill="white" stroke="red" points="2040,-112.5 2040,-131.5 2083,-131.5 2083,-112.5 2040,-112.5"/>
<text text-anchor="middle" x="2061.5" y="-119.5" font-family="Helvetica,sans-Serif" font-size="10.00">cpu.h</text>
</a>
</g>
</g>
<!-- Node1&#45;&gt;Node96 -->
<g id="edge33" class="edge">
<title>Node1&#45;&gt;Node96</title>
<path fill="none" stroke="midnightblue" d="M2390.75,-173.19C2324.07,-167.23 2198.01,-154.06 2092.5,-132 2089.43,-131.36 2086.22,-130.57 2083.07,-129.72"/>
<polygon fill="midnightblue" stroke="midnightblue" points="2390.67,-176.69 2400.93,-174.08 2391.28,-169.72 2390.67,-176.69"/>
</g>
<!-- Node98 -->
<g id="node32" class="node">
<title>Node98</title>
<g id="a_node32"><a xlink:href="api_2spec_2crypto_8h.html" target="_top" xlink:title="ODP crypto.">
<polygon fill="white" stroke="red" points="2101.5,-112.5 2101.5,-131.5 2157.5,-131.5 2157.5,-112.5 2101.5,-112.5"/>
<text text-anchor="middle" x="2129.5" y="-119.5" font-family="Helvetica,sans-Serif" font-size="10.00">crypto.h</text>
</a>
</g>
</g>
<!-- Node1&#45;&gt;Node98 -->
<g id="edge34" class="edge">
<title>Node1&#45;&gt;Node98</title>
<path fill="none" stroke="midnightblue" d="M2390.71,-170.18C2336.74,-162.09 2245.4,-147.7 2167.5,-132 2164.31,-131.36 2160.98,-130.64 2157.68,-129.9"/>
<polygon fill="midnightblue" stroke="midnightblue" points="2390.27,-173.65 2400.67,-171.67 2391.3,-166.73 2390.27,-173.65"/>
</g>
<!-- Node100 -->
<g id="node33" class="node">
<title>Node100</title>
<g id="a_node33"><a xlink:href="api_2spec_2crypto__types_8h.html" target="_top" xlink:title="ODP crypto types.">
<polygon fill="white" stroke="red" points="2176,-112.5 2176,-131.5 2265,-131.5 2265,-112.5 2176,-112.5"/>
<text text-anchor="middle" x="2220.5" y="-119.5" font-family="Helvetica,sans-Serif" font-size="10.00">crypto_types.h</text>
</a>
</g>
</g>
<!-- Node1&#45;&gt;Node100 -->
<g id="edge35" class="edge">
<title>Node1&#45;&gt;Node100</title>
<path fill="none" stroke="midnightblue" d="M2393.39,-166.02C2352.4,-155.82 2292.2,-140.84 2254.72,-131.52"/>
<polygon fill="midnightblue" stroke="midnightblue" points="2392.57,-169.43 2403.12,-168.44 2394.26,-162.63 2392.57,-169.43"/>
</g>
<!-- Node102 -->
<g id="node34" class="node">
<title>Node102</title>
<g id="a_node34"><a xlink:href="api_2spec_2dma__types_8h.html" target="_top" xlink:title="ODP DMA.">
<polygon fill="white" stroke="red" points="2283.5,-112.5 2283.5,-131.5 2363.5,-131.5 2363.5,-112.5 2283.5,-112.5"/>
<text text-anchor="middle" x="2323.5" y="-119.5" font-family="Helvetica,sans-Serif" font-size="10.00">dma_types.h</text>
</a>
</g>
</g>
<!-- Node1&#45;&gt;Node102 -->
<g id="edge36" class="edge">
<title>Node1&#45;&gt;Node102</title>
<path fill="none" stroke="midnightblue" d="M2410.26,-164.1C2388.96,-154.01 2359.96,-140.27 2341.48,-131.52"/>
<polygon fill="midnightblue" stroke="midnightblue" points="2408.9,-167.33 2419.44,-168.44 2411.9,-161 2408.9,-167.33"/>
</g>
<!-- Node122 -->
<g id="node35" class="node">
<title>Node122</title>
<g id="a_node35"><a xlink:href="api_2spec_2hash_8h.html" target="_top" xlink:title="ODP Hash functions.">
<polygon fill="white" stroke="red" points="2382,-112.5 2382,-131.5 2431,-131.5 2431,-112.5 2382,-112.5"/>
<text text-anchor="middle" x="2406.5" y="-119.5" font-family="Helvetica,sans-Serif" font-size="10.00">hash.h</text>
</a>
</g>
</g>
<!-- Node1&#45;&gt;Node122 -->
<g id="edge37" class="edge">
<title>Node1&#45;&gt;Node122</title>
<path fill="none" stroke="midnightblue" d="M2427.32,-159.27C2422.03,-150.05 2415.78,-139.17 2411.52,-131.75"/>
<polygon fill="midnightblue" stroke="midnightblue" points="2424.37,-161.15 2432.38,-168.08 2430.44,-157.67 2424.37,-161.15"/>
</g>
<!-- Node124 -->
<g id="node36" class="node">
<title>Node124</title>
<g id="a_node36"><a xlink:href="api_2spec_2init_8h.html" target="_top" xlink:title=" ">
<polygon fill="white" stroke="red" points="2449,-112.5 2449,-131.5 2490,-131.5 2490,-112.5 2449,-112.5"/>
<text text-anchor="middle" x="2469.5" y="-119.5" font-family="Helvetica,sans-Serif" font-size="10.00">init.h</text>
</a>
</g>
</g>
<!-- Node1&#45;&gt;Node124 -->
<g id="edge38" class="edge">
<title>Node1&#45;&gt;Node124</title>
<path fill="none" stroke="midnightblue" d="M2448,-159.27C2453.47,-150.05 2459.92,-139.17 2464.31,-131.75"/>
<polygon fill="midnightblue" stroke="midnightblue" points="2444.87,-157.7 2442.78,-168.08 2450.89,-161.26 2444.87,-157.7"/>
</g>
<!-- Node84 -->
<g id="node37" class="node">
<title>Node84</title>
<g id="a_node37"><a xlink:href="api_2spec_2ipsec_8h.html" target="_top" xlink:title="ODP IPsec API.">
<polygon fill="white" stroke="red" points="2508,-112.5 2508,-131.5 2559,-131.5 2559,-112.5 2508,-112.5"/>
<text text-anchor="middle" x="2533.5" y="-119.5" font-family="Helvetica,sans-Serif" font-size="10.00">ipsec.h</text>
</a>
</g>
</g>
<!-- Node1&#45;&gt;Node84 -->
<g id="edge39" class="edge">
<title>Node1&#45;&gt;Node84</title>
<path fill="none" stroke="midnightblue" d="M2462.07,-163.18C2479.74,-153.24 2503.01,-140.15 2518.11,-131.65"/>
<polygon fill="midnightblue" stroke="midnightblue" points="2459.92,-160.37 2452.92,-168.32 2463.36,-166.47 2459.92,-160.37"/>
</g>
<!-- Node110 -->
<g id="node38" class="node">
<title>Node110</title>
<g id="a_node38"><a xlink:href="spec_2ml_8h.html" target="_top" xlink:title="ODP Machine Learning (ML) offload.">
<polygon fill="white" stroke="red" points="2577.5,-112.5 2577.5,-131.5 2615.5,-131.5 2615.5,-112.5 2577.5,-112.5"/>
<text text-anchor="middle" x="2596.5" y="-119.5" font-family="Helvetica,sans-Serif" font-size="10.00">ml.h</text>
</a>
</g>
</g>
<!-- Node1&#45;&gt;Node110 -->
<g id="edge41" class="edge">
<title>Node1&#45;&gt;Node110</title>
<path fill="none" stroke="midnightblue" d="M2472.21,-165.21C2504.5,-154.24 2551.44,-138.3 2577.41,-129.48"/>
<polygon fill="midnightblue" stroke="midnightblue" points="2471.04,-161.91 2462.69,-168.44 2473.29,-168.54 2471.04,-161.91"/>
</g>
<!-- Node128 -->
<g id="node39" class="node">
<title>Node128</title>
<g id="a_node39"><a xlink:href="spec_2ml__quantize_8h.html" target="_top" xlink:title="ODP Machine Learning (ML) quantization functions.">
<polygon fill="white" stroke="red" points="2633.5,-112.5 2633.5,-131.5 2719.5,-131.5 2719.5,-112.5 2633.5,-112.5"/>
<text text-anchor="middle" x="2676.5" y="-119.5" font-family="Helvetica,sans-Serif" font-size="10.00">ml_quantize.h</text>
</a>
</g>
</g>
<!-- Node1&#45;&gt;Node128 -->
<g id="edge42" class="edge">
<title>Node1&#45;&gt;Node128</title>
<path fill="none" stroke="midnightblue" d="M2483.89,-166.52C2529.05,-156.32 2596.81,-141 2638.76,-131.53"/>
<polygon fill="midnightblue" stroke="midnightblue" points="2483.04,-163.12 2474.06,-168.74 2484.58,-169.95 2483.04,-163.12"/>
</g>
<!-- Node130 -->
<g id="node40" class="node">
<title>Node130</title>
<g id="a_node40"><a xlink:href="api_2spec_2ml__types_8h.html" target="_top" xlink:title="ODP Machine Learning (ML) types.">
<polygon fill="white" stroke="red" points="2738,-112.5 2738,-131.5 2809,-131.5 2809,-112.5 2738,-112.5"/>
<text text-anchor="middle" x="2773.5" y="-119.5" font-family="Helvetica,sans-Serif" font-size="10.00">ml_types.h</text>
</a>
</g>
</g>
<!-- Node1&#45;&gt;Node130 -->
<g id="edge43" class="edge">
<title>Node1&#45;&gt;Node130</title>
<path fill="none" stroke="midnightblue" d="M2484.58,-170.37C2542.22,-162.1 2642.73,-147.2 2728.5,-132 2731.48,-131.47 2734.57,-130.9 2737.67,-130.31"/>
<polygon fill="midnightblue" stroke="midnightblue" points="2483.74,-166.95 2474.34,-171.83 2484.73,-173.88 2483.74,-166.95"/>
</g>
<!-- Node112 -->
<g id="node41" class="node">
<title>Node112</title>
<g id="a_node41"><a xlink:href="api_2spec_2packet_8h.html" target="_top" xlink:title="ODP packet descriptor.">
<polygon fill="white" stroke="red" points="2827.5,-112.5 2827.5,-131.5 2885.5,-131.5 2885.5,-112.5 2827.5,-112.5"/>
<text text-anchor="middle" x="2856.5" y="-119.5" font-family="Helvetica,sans-Serif" font-size="10.00">packet.h</text>
</a>
</g>
</g>
<!-- Node1&#45;&gt;Node112 -->
<g id="edge44" class="edge">
<title>Node1&#45;&gt;Node112</title>
<path fill="none" stroke="midnightblue" d="M2484.34,-173.22C2556.47,-166.99 2698.94,-153.15 2818.5,-132 2821.3,-131.5 2824.21,-130.93 2827.11,-130.31"/>
<polygon fill="midnightblue" stroke="midnightblue" points="2483.88,-169.74 2474.22,-174.08 2484.48,-176.72 2483.88,-169.74"/>
</g>
<!-- Node132 -->
<g id="node42" class="node">
<title>Node132</title>
<g id="a_node42"><a xlink:href="api_2spec_2packet__flags_8h.html" target="_top" xlink:title="ODP packet flags.">
<polygon fill="white" stroke="red" points="2903.5,-112.5 2903.5,-131.5 2989.5,-131.5 2989.5,-112.5 2903.5,-112.5"/>
<text text-anchor="middle" x="2946.5" y="-119.5" font-family="Helvetica,sans-Serif" font-size="10.00">packet_flags.h</text>
</a>
</g>
</g>
<!-- Node1&#45;&gt;Node132 -->
<g id="edge45" class="edge">
<title>Node1&#45;&gt;Node132</title>
<path fill="none" stroke="midnightblue" d="M2484.13,-173.54C2566.95,-167.15 2745.06,-152.26 2894.5,-132 2897.41,-131.61 2900.4,-131.17 2903.41,-130.71"/>
<polygon fill="midnightblue" stroke="midnightblue" points="2483.74,-170.06 2474.04,-174.32 2484.28,-177.04 2483.74,-170.06"/>
</g>
<!-- Node114 -->
<g id="node43" class="node">
<title>Node114</title>
<g id="a_node43"><a xlink:href="api_2spec_2packet__io__types_8h.html" target="_top" xlink:title="ODP Packet IO types.">
<polygon fill="white" stroke="red" points="3007.5,-112.5 3007.5,-131.5 3111.5,-131.5 3111.5,-112.5 3007.5,-112.5"/>
<text text-anchor="middle" x="3059.5" y="-119.5" font-family="Helvetica,sans-Serif" font-size="10.00">packet_io_types.h</text>
</a>
</g>
</g>
<!-- Node1&#45;&gt;Node114 -->
<g id="edge46" class="edge">
<title>Node1&#45;&gt;Node114</title>
<path fill="none" stroke="midnightblue" d="M2483.99,-174.32C2580.21,-168.54 2808.12,-153.66 2998.5,-132 3001.37,-131.67 3004.32,-131.32 3007.29,-130.94"/>
<polygon fill="midnightblue" stroke="midnightblue" points="2483.78,-170.83 2474.01,-174.91 2484.2,-177.81 2483.78,-170.83"/>
</g>
<!-- Node118 -->
<g id="node44" class="node">
<title>Node118</title>
<g id="a_node44"><a xlink:href="api_2spec_2pool_8h.html" target="_top" xlink:title="ODP pool.">
<polygon fill="white" stroke="red" points="3130,-112.5 3130,-131.5 3177,-131.5 3177,-112.5 3130,-112.5"/>
<text text-anchor="middle" x="3153.5" y="-119.5" font-family="Helvetica,sans-Serif" font-size="10.00">pool.h</text>
</a>
</g>
</g>
<!-- Node1&#45;&gt;Node118 -->
<g id="edge47" class="edge">
<title>Node1&#45;&gt;Node118</title>
<path fill="none" stroke="midnightblue" d="M2484.27,-177.13C2595.42,-176.75 2883.78,-171.67 3120.5,-132 3123.55,-131.49 3126.72,-130.82 3129.83,-130.06"/>
<polygon fill="midnightblue" stroke="midnightblue" points="2484.07,-173.63 2474.08,-177.16 2484.09,-180.63 2484.07,-173.63"/>
</g>
<!-- Node106 -->
<g id="node45" class="node">
<title>Node106</title>
<g id="a_node45"><a xlink:href="api_2spec_2pool__types_8h.html" target="_top" xlink:title="Type definitions for pools.">
<polygon fill="white" stroke="red" points="3195,-112.5 3195,-131.5 3274,-131.5 3274,-112.5 3195,-112.5"/>
<text text-anchor="middle" x="3234.5" y="-119.5" font-family="Helvetica,sans-Serif" font-size="10.00">pool_types.h</text>
</a>
</g>
</g>
<!-- Node1&#45;&gt;Node106 -->
<g id="edge48" class="edge">
<title>Node1&#45;&gt;Node106</title>
<path fill="none" stroke="midnightblue" d="M2484.43,-176.22C2602.69,-173.82 2922.32,-164.57 3186.5,-132 3189.19,-131.67 3191.96,-131.28 3194.75,-130.85"/>
<polygon fill="midnightblue" stroke="midnightblue" points="2484.21,-172.72 2474.28,-176.42 2484.35,-179.72 2484.21,-172.72"/>
</g>
<!-- Node134 -->
<g id="node46" class="node">
<title>Node134</title>
<g id="a_node46"><a xlink:href="api_2spec_2proto__stats__types_8h.html" target="_top" xlink:title="ODP proto stats types.">
<polygon fill="white" stroke="red" points="3292,-112.5 3292,-131.5 3405,-131.5 3405,-112.5 3292,-112.5"/>
<text text-anchor="middle" x="3348.5" y="-119.5" font-family="Helvetica,sans-Serif" font-size="10.00">proto_stats_types.h</text>
</a>
</g>
</g>
<!-- Node1&#45;&gt;Node134 -->
<g id="edge49" class="edge">
<title>Node1&#45;&gt;Node134</title>
<path fill="none" stroke="midnightblue" d="M2484.53,-175.89C2612.86,-172.57 2979.81,-161.05 3283.5,-132 3286.22,-131.74 3289,-131.45 3291.81,-131.14"/>
<polygon fill="midnightblue" stroke="midnightblue" points="2484.18,-172.4 2474.28,-176.15 2484.36,-179.4 2484.18,-172.4"/>
</g>
<!-- Node139 -->
<g id="node47" class="node">
<title>Node139</title>
<g id="a_node47"><a xlink:href="api_2spec_2queue_8h.html" target="_top" xlink:title="ODP queue.">
<polygon fill="white" stroke="red" points="3423.5,-112.5 3423.5,-131.5 3479.5,-131.5 3479.5,-112.5 3423.5,-112.5"/>
<text text-anchor="middle" x="3451.5" y="-119.5" font-family="Helvetica,sans-Serif" font-size="10.00">queue.h</text>
</a>
</g>
</g>
<!-- Node1&#45;&gt;Node139 -->
<g id="edge50" class="edge">
<title>Node1&#45;&gt;Node139</title>
<path fill="none" stroke="midnightblue" d="M2484.29,-176.04C2653.27,-172.39 3231.55,-158.21 3414.5,-132 3417.38,-131.59 3420.36,-131.05 3423.33,-130.44"/>
<polygon fill="midnightblue" stroke="midnightblue" points="2484.15,-172.54 2474.23,-176.26 2484.3,-179.54 2484.15,-172.54"/>
</g>
<!-- Node141 -->
<g id="node48" class="node">
<title>Node141</title>
<g id="a_node48"><a xlink:href="api_2spec_2random_8h.html" target="_top" xlink:title="ODP random number API.">
<polygon fill="white" stroke="red" points="3498,-112.5 3498,-131.5 3561,-131.5 3561,-112.5 3498,-112.5"/>
<text text-anchor="middle" x="3529.5" y="-119.5" font-family="Helvetica,sans-Serif" font-size="10.00">random.h</text>
</a>
</g>
</g>
<!-- Node1&#45;&gt;Node141 -->
<g id="edge51" class="edge">
<title>Node1&#45;&gt;Node141</title>
<path fill="none" stroke="midnightblue" d="M2484.26,-176.08C2661.25,-172.41 3290.07,-157.83 3488.5,-132 3491.54,-131.6 3494.68,-131.1 3497.81,-130.52"/>
<polygon fill="midnightblue" stroke="midnightblue" points="2484.16,-172.58 2474.23,-176.28 2484.3,-179.58 2484.16,-172.58"/>
</g>
<!-- Node143 -->
<g id="node49" class="node">
<title>Node143</title>
<g id="a_node49"><a xlink:href="spec_2random__types_8h.html" target="_top" xlink:title="ODP random number API.">
<polygon fill="white" stroke="red" points="3579,-112.5 3579,-131.5 3674,-131.5 3674,-112.5 3579,-112.5"/>
<text text-anchor="middle" x="3626.5" y="-119.5" font-family="Helvetica,sans-Serif" font-size="10.00">random_types.h</text>
</a>
</g>
</g>
<!-- Node1&#45;&gt;Node143 -->
<g id="edge52" class="edge">
<title>Node1&#45;&gt;Node143</title>
<path fill="none" stroke="midnightblue" d="M2484.42,-177.14C2639.67,-177.19 3150.67,-173.92 3570.5,-132 3573.24,-131.73 3576.06,-131.4 3578.89,-131.05"/>
<polygon fill="midnightblue" stroke="midnightblue" points="2484.29,-173.64 2474.29,-177.14 2484.29,-180.64 2484.29,-173.64"/>
</g>
<!-- Node145 -->
<g id="node50" class="node">
<title>Node145</title>
<g id="a_node50"><a xlink:href="spec_2reassembly_8h.html" target="_top" xlink:title="ODP REASSEMBLY API.">
<polygon fill="white" stroke="red" points="3692,-112.5 3692,-131.5 3773,-131.5 3773,-112.5 3692,-112.5"/>
<text text-anchor="middle" x="3732.5" y="-119.5" font-family="Helvetica,sans-Serif" font-size="10.00">reassembly.h</text>
</a>
</g>
</g>
<!-- Node1&#45;&gt;Node145 -->
<g id="edge53" class="edge">
<title>Node1&#45;&gt;Node145</title>
<path fill="none" stroke="midnightblue" d="M2484.23,-176.22C2681.17,-172.81 3444.36,-158.14 3683.5,-132 3686.25,-131.7 3689.08,-131.33 3691.93,-130.92"/>
<polygon fill="midnightblue" stroke="midnightblue" points="2484.15,-172.72 2474.21,-176.4 2484.27,-179.72 2484.15,-172.72"/>
</g>
<!-- Node147 -->
<g id="node51" class="node">
<title>Node147</title>
<g id="a_node51"><a xlink:href="api_2spec_2schedule_8h.html" target="_top" xlink:title="ODP schedule.">
<polygon fill="white" stroke="red" points="3791,-112.5 3791,-131.5 3860,-131.5 3860,-112.5 3791,-112.5"/>
<text text-anchor="middle" x="3825.5" y="-119.5" font-family="Helvetica,sans-Serif" font-size="10.00">schedule.h</text>
</a>
</g>
</g>
<!-- Node1&#45;&gt;Node147 -->
<g id="edge54" class="edge">
<title>Node1&#45;&gt;Node147</title>
<path fill="none" stroke="midnightblue" d="M2484.53,-176.52C2691.59,-174.23 3523.3,-163.22 3782.5,-132 3785.23,-131.67 3788.04,-131.26 3790.85,-130.79"/>
<polygon fill="midnightblue" stroke="midnightblue" points="2484.26,-173.02 2474.3,-176.63 2484.33,-180.02 2484.26,-173.02"/>
</g>
<!-- Node149 -->
<g id="node52" class="node">
<title>Node149</title>
<g id="a_node52"><a xlink:href="api_2spec_2schedule__types_8h.html" target="_top" xlink:title="ODP schedule types.">
<polygon fill="white" stroke="red" points="3878,-112.5 3878,-131.5 3979,-131.5 3979,-112.5 3878,-112.5"/>
<text text-anchor="middle" x="3928.5" y="-119.5" font-family="Helvetica,sans-Serif" font-size="10.00">schedule_types.h</text>
</a>
</g>
</g>
<!-- Node1&#45;&gt;Node149 -->
<g id="edge55" class="edge">
<title>Node1&#45;&gt;Node149</title>
<path fill="none" stroke="midnightblue" d="M2484.34,-176.28C2699.14,-172.89 3591.36,-157.49 3869.5,-132 3872.18,-131.75 3874.93,-131.47 3877.7,-131.14"/>
<polygon fill="midnightblue" stroke="midnightblue" points="2483.99,-172.79 2474.05,-176.45 2484.1,-179.79 2483.99,-172.79"/>
</g>
<!-- Node155 -->
<g id="node53" class="node">
<title>Node155</title>
<g id="a_node53"><a xlink:href="api_2spec_2stash__types_8h.html" target="_top" xlink:title="ODP stash types.">
<polygon fill="white" stroke="red" points="3997.5,-112.5 3997.5,-131.5 4081.5,-131.5 4081.5,-112.5 3997.5,-112.5"/>
<text text-anchor="middle" x="4039.5" y="-119.5" font-family="Helvetica,sans-Serif" font-size="10.00">stash_types.h</text>
</a>
</g>
</g>
<!-- Node1&#45;&gt;Node155 -->
<g id="edge56" class="edge">
<title>Node1&#45;&gt;Node155</title>
<path fill="none" stroke="midnightblue" d="M2484.19,-176.56C2709.48,-174.32 3685.79,-162.93 3988.5,-132 3991.36,-131.71 3994.31,-131.35 3997.27,-130.94"/>
<polygon fill="midnightblue" stroke="midnightblue" points="2484,-173.06 2474.03,-176.66 2484.07,-180.06 2484,-173.06"/>
</g>
<!-- Node159 -->
<g id="node54" class="node">
<title>Node159</title>
<g id="a_node54"><a xlink:href="api_2spec_2std_8h.html" target="_top" xlink:title="ODP standard types and optimized C library functions.">
<polygon fill="white" stroke="red" points="4100,-112.5 4100,-131.5 4141,-131.5 4141,-112.5 4100,-112.5"/>
<text text-anchor="middle" x="4120.5" y="-119.5" font-family="Helvetica,sans-Serif" font-size="10.00">std.h</text>
</a>
</g>
</g>
<!-- Node1&#45;&gt;Node159 -->
<g id="edge57" class="edge">
<title>Node1&#45;&gt;Node159</title>
<path fill="none" stroke="midnightblue" d="M2484.31,-176.46C2736.54,-173.47 3928.43,-158.04 4090.5,-132 4093.51,-131.52 4096.63,-130.81 4099.68,-130.01"/>
<polygon fill="midnightblue" stroke="midnightblue" points="2483.98,-172.97 2474.03,-176.58 2484.07,-179.97 2483.98,-172.97"/>
</g>
<!-- Node161 -->
<g id="node55" class="node">
<title>Node161</title>
<g id="a_node55"><a xlink:href="spec_2threshold_8h.html" target="_top" xlink:title="ODP threshold descriptor.">
<polygon fill="white" stroke="red" points="4159,-112.5 4159,-131.5 4230,-131.5 4230,-112.5 4159,-112.5"/>
<text text-anchor="middle" x="4194.5" y="-119.5" font-family="Helvetica,sans-Serif" font-size="10.00">threshold.h</text>
</a>
</g>
</g>
<!-- Node1&#45;&gt;Node161 -->
<g id="edge58" class="edge">
<title>Node1&#45;&gt;Node161</title>
<path fill="none" stroke="midnightblue" d="M2484.38,-176.88C2724.07,-176.1 3814.48,-170.48 4150.5,-132 4153.13,-131.7 4155.84,-131.32 4158.56,-130.89"/>
<polygon fill="midnightblue" stroke="midnightblue" points="2484.24,-173.38 2474.25,-176.91 2484.27,-180.38 2484.24,-173.38"/>
</g>
<!-- Node163 -->
<g id="node56" class="node">
<title>Node163</title>
<g id="a_node56"><a xlink:href="api_2spec_2thrmask_8h.html" target="_top" xlink:title="ODP thread masks.">
<polygon fill="white" stroke="red" points="4248.5,-112.5 4248.5,-131.5 4314.5,-131.5 4314.5,-112.5 4248.5,-112.5"/>
<text text-anchor="middle" x="4281.5" y="-119.5" font-family="Helvetica,sans-Serif" font-size="10.00">thrmask.h</text>
</a>
</g>
</g>
<!-- Node1&#45;&gt;Node163 -->
<g id="edge59" class="edge">
<title>Node1&#45;&gt;Node163</title>
<path fill="none" stroke="midnightblue" d="M2484.42,-177.01C2731.63,-176.89 3885.07,-174.03 4239.5,-132 4242.31,-131.67 4245.22,-131.23 4248.12,-130.74"/>
<polygon fill="midnightblue" stroke="midnightblue" points="2484.33,-173.51 2474.33,-177.01 2484.33,-180.51 2484.33,-173.51"/>
</g>
<!-- Node165 -->
<g id="node57" class="node">
<title>Node165</title>
<g id="a_node57"><a xlink:href="api_2spec_2time_8h.html" target="_top" xlink:title="ODP time.">
<polygon fill="white" stroke="red" points="4332.5,-112.5 4332.5,-131.5 4380.5,-131.5 4380.5,-112.5 4332.5,-112.5"/>
<text text-anchor="middle" x="4356.5" y="-119.5" font-family="Helvetica,sans-Serif" font-size="10.00">time.h</text>
</a>
</g>
</g>
<!-- Node1&#45;&gt;Node165 -->
<g id="edge60" class="edge">
<title>Node1&#45;&gt;Node165</title>
<path fill="none" stroke="midnightblue" d="M2484.63,-176.56C2758.25,-173.91 4136.81,-159.27 4323.5,-132 4326.44,-131.57 4329.49,-130.97 4332.49,-130.27"/>
<polygon fill="midnightblue" stroke="midnightblue" points="2484.23,-173.06 2474.26,-176.66 2484.29,-180.06 2484.23,-173.06"/>
</g>
<!-- Node167 -->
<g id="node58" class="node">
<title>Node167</title>
<g id="a_node58"><a xlink:href="api_2spec_2timer__types_8h.html" target="_top" xlink:title="ODP timer API type definitions.">
<polygon fill="white" stroke="red" points="4398.5,-112.5 4398.5,-131.5 4482.5,-131.5 4482.5,-112.5 4398.5,-112.5"/>
<text text-anchor="middle" x="4440.5" y="-119.5" font-family="Helvetica,sans-Serif" font-size="10.00">timer_types.h</text>
</a>
</g>
</g>
<!-- Node1&#45;&gt;Node167 -->
<g id="edge61" class="edge">
<title>Node1&#45;&gt;Node167</title>
<path fill="none" stroke="midnightblue" d="M2484.5,-176.88C2743.89,-176.1 4002.93,-170.34 4389.5,-132 4392.36,-131.72 4395.31,-131.36 4398.27,-130.96"/>
<polygon fill="midnightblue" stroke="midnightblue" points="2484.28,-173.38 2474.29,-176.91 2484.3,-180.38 2484.28,-173.38"/>
</g>
<!-- Node116 -->
<g id="node59" class="node">
<title>Node116</title>
<g id="a_node59"><a xlink:href="api_2spec_2traffic__mngr_8h.html" target="_top" xlink:title=" ">
<polygon fill="white" stroke="red" points="4500.5,-112.5 4500.5,-131.5 4584.5,-131.5 4584.5,-112.5 4500.5,-112.5"/>
<text text-anchor="middle" x="4542.5" y="-119.5" font-family="Helvetica,sans-Serif" font-size="10.00">traffic_mngr.h</text>
</a>
</g>
</g>
<!-- Node1&#45;&gt;Node116 -->
<g id="edge62" class="edge">
<title>Node1&#45;&gt;Node116</title>
<path fill="none" stroke="midnightblue" d="M2484.38,-176.95C2751.45,-176.5 4083.42,-172.24 4491.5,-132 4494.36,-131.72 4497.31,-131.37 4500.27,-130.96"/>
<polygon fill="midnightblue" stroke="midnightblue" points="2484.24,-173.45 2474.25,-176.96 2484.25,-180.45 2484.24,-173.45"/>
</g>
<!-- Node169 -->
<g id="node60" class="node">
<title>Node169</title>
<g id="a_node60"><a xlink:href="system__info_8h.html" target="_top" xlink:title="ODP system information.">
<polygon fill="white" stroke="black" points="1593.5,-56.5 1593.5,-75.5 1679.5,-75.5 1679.5,-56.5 1593.5,-56.5"/>
<text text-anchor="middle" x="1636.5" y="-63.5" font-family="Helvetica,sans-Serif" font-size="10.00">system_info.h</text>
</a>
</g>
</g>
<!-- Node1&#45;&gt;Node169 -->
<g id="edge63" class="edge">
<title>Node1&#45;&gt;Node169</title>
<path fill="none" stroke="midnightblue" d="M2390.62,-177.53C2229.91,-178.9 1707.99,-179.64 1651.5,-132 1635.03,-118.11 1634.58,-90.09 1635.56,-75.81"/>
<polygon fill="midnightblue" stroke="midnightblue" points="2390.71,-181.03 2400.68,-177.44 2390.65,-174.03 2390.71,-181.03"/>
</g>
<!-- Node3 -->
<g id="node3" class="node">
<title>Node3</title>
<g id="a_node3"><a xlink:href="arch_2arm32-linux_2odp_2api_2abi_2atomic_8h_source.html" target="_top" xlink:title=" ">
<polygon fill="white" stroke="black" points="231,-56.5 231,-75.5 290,-75.5 290,-56.5 231,-56.5"/>
<text text-anchor="middle" x="260.5" y="-63.5" font-family="Helvetica,sans-Serif" font-size="10.00">atomic.h</text>
</a>
</g>
</g>
<!-- Node2&#45;&gt;Node3 -->
<g id="edge2" class="edge">
<title>Node2&#45;&gt;Node3</title>
<path fill="none" stroke="midnightblue" d="M260.5,-101.8C260.5,-92.91 260.5,-82.78 260.5,-75.75"/>
<polygon fill="midnightblue" stroke="midnightblue" points="257,-102.08 260.5,-112.08 264,-102.08 257,-102.08"/>
</g>
<!-- Node4 -->
<g id="node4" class="node">
<title>Node4</title>
<g id="a_node4"><a xlink:href="arch_2arm64-linux_2odp_2api_2abi_2atomic_8h_source.html" target="_top" xlink:title=" ">
<polygon fill="white" stroke="black" points="308,-56.5 308,-75.5 367,-75.5 367,-56.5 308,-56.5"/>
<text text-anchor="middle" x="337.5" y="-63.5" font-family="Helvetica,sans-Serif" font-size="10.00">atomic.h</text>
</a>
</g>
</g>
<!-- Node2&#45;&gt;Node4 -->
<g id="edge3" class="edge">
<title>Node2&#45;&gt;Node4</title>
<path fill="none" stroke="midnightblue" d="M281.4,-106.34C295.41,-96.52 313.38,-83.91 325.16,-75.65"/>
<polygon fill="midnightblue" stroke="midnightblue" points="279.05,-103.72 272.87,-112.32 283.07,-109.45 279.05,-103.72"/>
</g>
<!-- Node5 -->
<g id="node5" class="node">
<title>Node5</title>
<g id="a_node5"><a xlink:href="arch_2default-linux_2odp_2api_2abi_2atomic_8h_source.html" target="_top" xlink:title=" ">
<polygon fill="white" stroke="black" points="385,-56.5 385,-75.5 444,-75.5 444,-56.5 385,-56.5"/>
<text text-anchor="middle" x="414.5" y="-63.5" font-family="Helvetica,sans-Serif" font-size="10.00">atomic.h</text>
</a>
</g>
</g>
<!-- Node2&#45;&gt;Node5 -->
<g id="edge4" class="edge">
<title>Node2&#45;&gt;Node5</title>
<path fill="none" stroke="midnightblue" d="M294.61,-109.04C323.59,-98.88 364.46,-84.55 390.21,-75.52"/>
<polygon fill="midnightblue" stroke="midnightblue" points="293.18,-105.83 284.9,-112.44 295.5,-112.44 293.18,-105.83"/>
</g>
<!-- Node6 -->
<g id="node6" class="node">
<title>Node6</title>
<g id="a_node6"><a xlink:href="arch_2power64-linux_2odp_2api_2abi_2atomic_8h_source.html" target="_top" xlink:title=" ">
<polygon fill="white" stroke="black" points="0,-56.5 0,-75.5 59,-75.5 59,-56.5 0,-56.5"/>
<text text-anchor="middle" x="29.5" y="-63.5" font-family="Helvetica,sans-Serif" font-size="10.00">atomic.h</text>
</a>
</g>
</g>
<!-- Node2&#45;&gt;Node6 -->
<g id="edge5" class="edge">
<title>Node2&#45;&gt;Node6</title>
<path fill="none" stroke="midnightblue" d="M220.83,-111.79C181.8,-102.73 120.54,-88.46 67.5,-76 64.86,-75.38 62.12,-74.73 59.37,-74.08"/>
<polygon fill="midnightblue" stroke="midnightblue" points="220.2,-115.24 230.74,-114.09 221.79,-108.42 220.2,-115.24"/>
</g>
<!-- Node7 -->
<g id="node7" class="node">
<title>Node7</title>
<g id="a_node7"><a xlink:href="arch_2x86__32-linux_2odp_2api_2abi_2atomic_8h_source.html" target="_top" xlink:title=" ">
<polygon fill="white" stroke="black" points="77,-56.5 77,-75.5 136,-75.5 136,-56.5 77,-56.5"/>
<text text-anchor="middle" x="106.5" y="-63.5" font-family="Helvetica,sans-Serif" font-size="10.00">atomic.h</text>
</a>
</g>
</g>
<!-- Node2&#45;&gt;Node7 -->
<g id="edge6" class="edge">
<title>Node2&#45;&gt;Node7</title>
<path fill="none" stroke="midnightblue" d="M226.39,-109.04C197.41,-98.88 156.54,-84.55 130.79,-75.52"/>
<polygon fill="midnightblue" stroke="midnightblue" points="225.5,-112.44 236.1,-112.44 227.82,-105.83 225.5,-112.44"/>
</g>
<!-- Node8 -->
<g id="node8" class="node">
<title>Node8</title>
<g id="a_node8"><a xlink:href="arch_2x86__64-linux_2odp_2api_2abi_2atomic_8h_source.html" target="_top" xlink:title=" ">
<polygon fill="white" stroke="black" points="154,-56.5 154,-75.5 213,-75.5 213,-56.5 154,-56.5"/>
<text text-anchor="middle" x="183.5" y="-63.5" font-family="Helvetica,sans-Serif" font-size="10.00">atomic.h</text>
</a>
</g>
</g>
<!-- Node2&#45;&gt;Node8 -->
<g id="edge7" class="edge">
<title>Node2&#45;&gt;Node8</title>
<path fill="none" stroke="midnightblue" d="M239.6,-106.34C225.59,-96.52 207.62,-83.91 195.84,-75.65"/>
<polygon fill="midnightblue" stroke="midnightblue" points="237.93,-109.45 248.13,-112.32 241.95,-103.72 237.93,-109.45"/>
</g>
<!-- Node10 -->
<g id="node10" class="node">
<title>Node10</title>
<g id="a_node10"><a xlink:href="arch_2arm32-linux_2odp_2api_2abi_2barrier_8h_source.html" target="_top" xlink:title=" ">
<polygon fill="white" stroke="black" points="462,-56.5 462,-75.5 519,-75.5 519,-56.5 462,-56.5"/>
<text text-anchor="middle" x="490.5" y="-63.5" font-family="Helvetica,sans-Serif" font-size="10.00">barrier.h</text>
</a>
</g>
</g>
<!-- Node9&#45;&gt;Node10 -->
<g id="edge9" class="edge">
<title>Node9&#45;&gt;Node10</title>
<path fill="none" stroke="midnightblue" d="M515.55,-103.57C509.19,-94.27 501.63,-83.25 496.5,-75.75"/>
<polygon fill="midnightblue" stroke="midnightblue" points="512.85,-105.81 521.39,-112.08 518.63,-101.86 512.85,-105.81"/>
</g>
<!-- Node11 -->
<g id="node11" class="node">
<title>Node11</title>
<g id="a_node11"><a xlink:href="arch_2arm64-linux_2odp_2api_2abi_2barrier_8h_source.html" target="_top" xlink:title=" ">
<polygon fill="white" stroke="black" points="537,-56.5 537,-75.5 594,-75.5 594,-56.5 537,-56.5"/>
<text text-anchor="middle" x="565.5" y="-63.5" font-family="Helvetica,sans-Serif" font-size="10.00">barrier.h</text>
</a>
</g>
</g>
<!-- Node9&#45;&gt;Node11 -->
<g id="edge10" class="edge">
<title>Node9&#45;&gt;Node11</title>
<path fill="none" stroke="midnightblue" d="M539.56,-103.86C546.14,-94.5 554.01,-83.33 559.34,-75.75"/>
<polygon fill="midnightblue" stroke="midnightblue" points="536.67,-101.89 533.77,-112.08 542.39,-105.92 536.67,-101.89"/>
</g>
<!-- Node12 -->
<g id="node12" class="node">
<title>Node12</title>
<g id="a_node12"><a xlink:href="arch_2default-linux_2odp_2api_2abi_2barrier_8h_source.html" target="_top" xlink:title=" ">
<polygon fill="white" stroke="black" points="612,-56.5 612,-75.5 669,-75.5 669,-56.5 612,-56.5"/>
<text text-anchor="middle" x="640.5" y="-63.5" font-family="Helvetica,sans-Serif" font-size="10.00">barrier.h</text>
</a>
</g>
</g>
<!-- Node9&#45;&gt;Node12 -->
<g id="edge11" class="edge">
<title>Node9&#45;&gt;Node12</title>
<path fill="none" stroke="midnightblue" d="M554.5,-108.1C575.61,-98.01 604.36,-84.27 622.68,-75.52"/>
<polygon fill="midnightblue" stroke="midnightblue" points="552.92,-104.97 545.41,-112.44 555.94,-111.29 552.92,-104.97"/>
</g>
<!-- Node79&#45;&gt;Node80 -->
<g id="edge22" class="edge">
<title>Node79&#45;&gt;Node80</title>
<path fill="none" stroke="midnightblue" d="M1703.46,-51.18C1686.9,-41.24 1665.08,-28.15 1650.92,-19.65"/>
<polygon fill="midnightblue" stroke="midnightblue" points="1701.66,-54.18 1712.04,-56.32 1705.27,-48.18 1701.66,-54.18"/>
</g>
<!-- Node81&#45;&gt;Node80 -->
<g id="edge25" class="edge">
<title>Node81&#45;&gt;Node80</title>
<path fill="none" stroke="midnightblue" d="M1830.32,-54.25C1782.42,-43.56 1710.29,-27.46 1668.86,-18.22"/>
<polygon fill="midnightblue" stroke="midnightblue" points="1829.63,-57.68 1840.15,-56.44 1831.16,-50.85 1829.63,-57.68"/>
</g>
<!-- Node81&#45;&gt;Node82 -->
<g id="edge24" class="edge">
<title>Node81&#45;&gt;Node82</title>
<path fill="none" stroke="midnightblue" d="M1933.44,-62.83C2158.25,-53.95 3005.64,-20.48 3203.85,-12.65"/>
<polygon fill="midnightblue" stroke="midnightblue" points="1933.06,-59.34 1923.21,-63.23 1933.34,-66.34 1933.06,-59.34"/>
</g>
<!-- Node88&#45;&gt;Node80 -->
<g id="edge27" class="edge">
<title>Node88&#45;&gt;Node80</title>
<path fill="none" stroke="midnightblue" d="M1528.98,-52.77C1555.09,-42.63 1591.54,-28.47 1614.58,-19.52"/>
<polygon fill="midnightblue" stroke="midnightblue" points="1527.58,-49.56 1519.52,-56.44 1530.11,-56.08 1527.58,-49.56"/>
</g>
<!-- Node93&#45;&gt;Node81 -->
<g id="edge31" class="edge">
<title>Node93&#45;&gt;Node81</title>
<path fill="none" stroke="midnightblue" d="M1750.02,-109.3C1780.92,-99.13 1824.97,-84.62 1852.64,-75.52"/>
<polygon fill="midnightblue" stroke="midnightblue" points="1748.89,-105.99 1740.49,-112.44 1751.08,-112.64 1748.89,-105.99"/>
</g>
<!-- Node169&#45;&gt;Node80 -->
<g id="edge64" class="edge">
<title>Node169&#45;&gt;Node80</title>
<path fill="none" stroke="midnightblue" d="M1636.5,-45.8C1636.5,-36.91 1636.5,-26.78 1636.5,-19.75"/>
<polygon fill="midnightblue" stroke="midnightblue" points="1633,-46.08 1636.5,-56.08 1640,-46.08 1633,-46.08"/>
</g>
</g>
</svg>
