<?xml version="1.0" encoding="UTF-8" standalone="no"?>
<!DOCTYPE svg PUBLIC "-//W3C//DTD SVG 1.1//EN"
 "http://www.w3.org/Graphics/SVG/1.1/DTD/svg11.dtd">
<!-- Generated by graphviz version 2.40.1 (20161225.0304)
 -->
<!-- Title: queue.h Pages: 1 -->
<svg width="304pt" height="588pt"
 viewBox="0.00 0.00 304.00 588.00" xmlns="http://www.w3.org/2000/svg" xmlns:xlink="http://www.w3.org/1999/xlink">
<g id="graph0" class="graph" transform="scale(1 1) rotate(0) translate(4 584)">
<title>queue.h</title>
<polygon fill="#ffffff" stroke="transparent" points="-4,4 -4,-584 300,-584 300,4 -4,4"/>
<!-- Node37 -->
<g id="node1" class="node">
<title>Node37</title>
<polygon fill="#bfbfbf" stroke="#000000" points="11,-560.5 11,-579.5 67,-579.5 67,-560.5 11,-560.5"/>
<text text-anchor="middle" x="39" y="-567.5" font-family="Helvetica,sans-Serif" font-size="10.00" fill="#000000">queue.h</text>
</g>
<!-- Node38 -->
<g id="node2" class="node">
<title>Node38</title>
<g id="a_node2"><a xlink:href="spec_2packet__io__stats_8h.html" target="_top" xlink:title="ODP Packet IO statistics. ">
<polygon fill="#ffffff" stroke="#000000" points="44,-504.5 44,-523.5 146,-523.5 146,-504.5 44,-504.5"/>
<text text-anchor="middle" x="95" y="-511.5" font-family="Helvetica,sans-Serif" font-size="10.00" fill="#000000">packet_io_stats.h</text>
</a>
</g>
</g>
<!-- Node37&#45;&gt;Node38 -->
<g id="edge1" class="edge">
<title>Node37&#45;&gt;Node38</title>
<path fill="none" stroke="#191970" d="M55.9249,-553.0751C65.5598,-543.4402 77.2804,-531.7196 85.3573,-523.6427"/>
<polygon fill="#191970" stroke="#191970" points="53.3507,-550.6996 48.7545,-560.2455 58.3004,-555.6493 53.3507,-550.6996"/>
</g>
<!-- Node46 -->
<g id="node10" class="node">
<title>Node46</title>
<g id="a_node10"><a xlink:href="odp__api_8h.html" target="_top" xlink:title="The OpenDataPlane API. ">
<polygon fill="#ffffff" stroke="#000000" points="79,-56.5 79,-75.5 143,-75.5 143,-56.5 79,-56.5"/>
<text text-anchor="middle" x="111" y="-63.5" font-family="Helvetica,sans-Serif" font-size="10.00" fill="#000000">odp_api.h</text>
</a>
</g>
</g>
<!-- Node37&#45;&gt;Node46 -->
<g id="edge18" class="edge">
<title>Node37&#45;&gt;Node46</title>
<path fill="none" stroke="#191970" d="M28.2124,-551.4123C16.6696,-529.7334 0,-492.4602 0,-458 0,-458 0,-458 0,-178 0,-127.4911 57.6548,-91.6118 89.8605,-75.5099"/>
<polygon fill="#191970" stroke="#191970" points="25.1748,-553.1519 33.0767,-560.2094 31.3006,-549.7645 25.1748,-553.1519"/>
</g>
<!-- Node39 -->
<g id="node3" class="node">
<title>Node39</title>
<g id="a_node3"><a xlink:href="packet__io__stats_8h.html" target="_top" xlink:title="ODP packet IO stats. ">
<polygon fill="#ffffff" stroke="#000000" points="48,-448.5 48,-467.5 150,-467.5 150,-448.5 48,-448.5"/>
<text text-anchor="middle" x="99" y="-455.5" font-family="Helvetica,sans-Serif" font-size="10.00" fill="#000000">packet_io_stats.h</text>
</a>
</g>
</g>
<!-- Node38&#45;&gt;Node39 -->
<g id="edge2" class="edge">
<title>Node38&#45;&gt;Node39</title>
<path fill="none" stroke="#191970" d="M96.4173,-494.1575C97.0604,-485.155 97.7914,-474.9199 98.3112,-467.6427"/>
<polygon fill="#191970" stroke="#191970" points="92.9182,-494.0216 95.6967,-504.2455 99.9004,-494.5204 92.9182,-494.0216"/>
</g>
<!-- Node40 -->
<g id="node4" class="node">
<title>Node40</title>
<g id="a_node4"><a xlink:href="api_2spec_2packet__io_8h.html" target="_top" xlink:title="ODP Packet IO. ">
<polygon fill="#ffffff" stroke="#000000" points="66.5,-392.5 66.5,-411.5 139.5,-411.5 139.5,-392.5 66.5,-392.5"/>
<text text-anchor="middle" x="103" y="-399.5" font-family="Helvetica,sans-Serif" font-size="10.00" fill="#000000">packet_io.h</text>
</a>
</g>
</g>
<!-- Node39&#45;&gt;Node40 -->
<g id="edge3" class="edge">
<title>Node39&#45;&gt;Node40</title>
<path fill="none" stroke="#191970" d="M100.4173,-438.1575C101.0604,-429.155 101.7914,-418.9199 102.3112,-411.6427"/>
<polygon fill="#191970" stroke="#191970" points="96.9182,-438.0216 99.6967,-448.2455 103.9004,-438.5204 96.9182,-438.0216"/>
</g>
<!-- Node41 -->
<g id="node5" class="node">
<title>Node41</title>
<g id="a_node5"><a xlink:href="api_2packet__io_8h.html" target="_top" xlink:title="ODP Packet IO. ">
<polygon fill="#ffffff" stroke="#000000" points="74.5,-336.5 74.5,-355.5 147.5,-355.5 147.5,-336.5 74.5,-336.5"/>
<text text-anchor="middle" x="111" y="-343.5" font-family="Helvetica,sans-Serif" font-size="10.00" fill="#000000">packet_io.h</text>
</a>
</g>
</g>
<!-- Node40&#45;&gt;Node41 -->
<g id="edge4" class="edge">
<title>Node40&#45;&gt;Node41</title>
<path fill="none" stroke="#191970" d="M105.8346,-382.1575C107.1207,-373.155 108.5829,-362.9199 109.6225,-355.6427"/>
<polygon fill="#191970" stroke="#191970" points="102.343,-381.851 104.3935,-392.2455 109.2726,-382.8411 102.343,-381.851"/>
</g>
<!-- Node42 -->
<g id="node6" class="node">
<title>Node42</title>
<g id="a_node6"><a xlink:href="api_2spec_2classification_8h.html" target="_top" xlink:title="ODP classification descriptor. ">
<polygon fill="#ffffff" stroke="#000000" points="66.5,-280.5 66.5,-299.5 155.5,-299.5 155.5,-280.5 66.5,-280.5"/>
<text text-anchor="middle" x="111" y="-287.5" font-family="Helvetica,sans-Serif" font-size="10.00" fill="#000000">classification.h</text>
</a>
</g>
</g>
<!-- Node41&#45;&gt;Node42 -->
<g id="edge5" class="edge">
<title>Node41&#45;&gt;Node42</title>
<path fill="none" stroke="#191970" d="M111,-326.1575C111,-317.155 111,-306.9199 111,-299.6427"/>
<polygon fill="#191970" stroke="#191970" points="107.5001,-326.2455 111,-336.2455 114.5001,-326.2456 107.5001,-326.2455"/>
</g>
<!-- Node44 -->
<g id="node8" class="node">
<title>Node44</title>
<g id="a_node8"><a xlink:href="api_2spec_2ipsec_8h.html" target="_top" xlink:title="ODP IPSEC API. ">
<polygon fill="#ffffff" stroke="#000000" points="148.5,-168.5 148.5,-187.5 199.5,-187.5 199.5,-168.5 148.5,-168.5"/>
<text text-anchor="middle" x="174" y="-175.5" font-family="Helvetica,sans-Serif" font-size="10.00" fill="#000000">ipsec.h</text>
</a>
</g>
</g>
<!-- Node41&#45;&gt;Node44 -->
<g id="edge12" class="edge">
<title>Node41&#45;&gt;Node44</title>
<path fill="none" stroke="#191970" d="M136.2353,-330.5303C146.6679,-322.7354 157.763,-312.3123 164,-300 183.2069,-262.0841 178.5065,-208.9489 175.531,-187.5166"/>
<polygon fill="#191970" stroke="#191970" points="133.9526,-327.855 127.7491,-336.4437 137.9546,-333.5982 133.9526,-327.855"/>
</g>
<!-- Node41&#45;&gt;Node46 -->
<g id="edge17" class="edge">
<title>Node41&#45;&gt;Node46</title>
<path fill="none" stroke="#191970" d="M86.6284,-330.1454C76.1621,-322.2228 64.613,-311.8054 57,-300 40.457,-274.3469 38,-264.5246 38,-234 38,-234 38,-234 38,-178 38,-133.9009 78.2115,-93.5671 98.9455,-75.7011"/>
<polygon fill="#191970" stroke="#191970" points="84.8893,-333.2053 95.0553,-336.1894 88.9691,-327.5171 84.8893,-333.2053"/>
</g>
<!-- Node48 -->
<g id="node12" class="node">
<title>Node48</title>
<g id="a_node12"><a xlink:href="api_2spec_2traffic__mngr_8h.html" target="_top" xlink:title="traffic_mngr.h">
<polygon fill="#ffffff" stroke="#000000" points="212,-280.5 212,-299.5 296,-299.5 296,-280.5 212,-280.5"/>
<text text-anchor="middle" x="254" y="-287.5" font-family="Helvetica,sans-Serif" font-size="10.00" fill="#000000">traffic_mngr.h</text>
</a>
</g>
</g>
<!-- Node41&#45;&gt;Node48 -->
<g id="edge13" class="edge">
<title>Node41&#45;&gt;Node48</title>
<path fill="none" stroke="#191970" d="M145.0798,-332.6541C171.1573,-322.4419 206.4815,-308.6086 229.7382,-299.5011"/>
<polygon fill="#191970" stroke="#191970" points="143.6178,-329.4677 135.5826,-336.3733 146.1703,-335.9858 143.6178,-329.4677"/>
</g>
<!-- Node43 -->
<g id="node7" class="node">
<title>Node43</title>
<g id="a_node7"><a xlink:href="api_2classification_8h.html" target="_top" xlink:title="ODP classification descriptor. ">
<polygon fill="#ffffff" stroke="#000000" points="66.5,-224.5 66.5,-243.5 155.5,-243.5 155.5,-224.5 66.5,-224.5"/>
<text text-anchor="middle" x="111" y="-231.5" font-family="Helvetica,sans-Serif" font-size="10.00" fill="#000000">classification.h</text>
</a>
</g>
</g>
<!-- Node42&#45;&gt;Node43 -->
<g id="edge6" class="edge">
<title>Node42&#45;&gt;Node43</title>
<path fill="none" stroke="#191970" d="M111,-270.1575C111,-261.155 111,-250.9199 111,-243.6427"/>
<polygon fill="#191970" stroke="#191970" points="107.5001,-270.2455 111,-280.2455 114.5001,-270.2456 107.5001,-270.2455"/>
</g>
<!-- Node43&#45;&gt;Node44 -->
<g id="edge7" class="edge">
<title>Node43&#45;&gt;Node44</title>
<path fill="none" stroke="#191970" d="M129.7192,-217.3607C140.6182,-207.6727 153.9755,-195.7995 163.152,-187.6427"/>
<polygon fill="#191970" stroke="#191970" points="127.1226,-214.9859 121.9738,-224.2455 131.7732,-220.2178 127.1226,-214.9859"/>
</g>
<!-- Node43&#45;&gt;Node46 -->
<g id="edge11" class="edge">
<title>Node43&#45;&gt;Node46</title>
<path fill="none" stroke="#191970" d="M111,-214.2601C111,-178.1669 111,-102.7656 111,-75.8279"/>
<polygon fill="#191970" stroke="#191970" points="107.5001,-214.4862 111,-224.4862 114.5001,-214.4863 107.5001,-214.4862"/>
</g>
<!-- Node45 -->
<g id="node9" class="node">
<title>Node45</title>
<g id="a_node9"><a xlink:href="api_2ipsec_8h.html" target="_top" xlink:title="ODP IPSEC API &#45; platform specific header. ">
<polygon fill="#ffffff" stroke="#000000" points="144.5,-112.5 144.5,-131.5 195.5,-131.5 195.5,-112.5 144.5,-112.5"/>
<text text-anchor="middle" x="170" y="-119.5" font-family="Helvetica,sans-Serif" font-size="10.00" fill="#000000">ipsec.h</text>
</a>
</g>
</g>
<!-- Node44&#45;&gt;Node45 -->
<g id="edge8" class="edge">
<title>Node44&#45;&gt;Node45</title>
<path fill="none" stroke="#191970" d="M172.5827,-158.1575C171.9396,-149.155 171.2086,-138.9199 170.6888,-131.6427"/>
<polygon fill="#191970" stroke="#191970" points="169.0996,-158.5204 173.3033,-168.2455 176.0818,-158.0216 169.0996,-158.5204"/>
</g>
<!-- Node45&#45;&gt;Node46 -->
<g id="edge9" class="edge">
<title>Node45&#45;&gt;Node46</title>
<path fill="none" stroke="#191970" d="M152.4693,-105.3607C142.2623,-95.6727 129.7531,-83.7995 121.1592,-75.6427"/>
<polygon fill="#191970" stroke="#191970" points="150.0604,-107.8998 159.723,-112.2455 154.8794,-102.8227 150.0604,-107.8998"/>
</g>
<!-- Node47 -->
<g id="node11" class="node">
<title>Node47</title>
<g id="a_node11"><a xlink:href="odp_8h.html" target="_top" xlink:title="WARNING: THIS FILE IS DEPRECATED AND WILL BE REMOVED!!! ODP APPLICATIONS SHOULD NOW INCLUDE odp_api...">
<polygon fill="#ffffff" stroke="#000000" points="89,-.5 89,-19.5 133,-19.5 133,-.5 89,-.5"/>
<text text-anchor="middle" x="111" y="-7.5" font-family="Helvetica,sans-Serif" font-size="10.00" fill="#000000">odp.h</text>
</a>
</g>
</g>
<!-- Node46&#45;&gt;Node47 -->
<g id="edge10" class="edge">
<title>Node46&#45;&gt;Node47</title>
<path fill="none" stroke="#191970" d="M111,-46.1575C111,-37.155 111,-26.9199 111,-19.6427"/>
<polygon fill="#191970" stroke="#191970" points="107.5001,-46.2455 111,-56.2455 114.5001,-46.2456 107.5001,-46.2455"/>
</g>
<!-- Node49 -->
<g id="node13" class="node">
<title>Node49</title>
<g id="a_node13"><a xlink:href="api_2traffic__mngr_8h.html" target="_top" xlink:title="ODP Traffic manager. ">
<polygon fill="#ffffff" stroke="#000000" points="212,-224.5 212,-243.5 296,-243.5 296,-224.5 212,-224.5"/>
<text text-anchor="middle" x="254" y="-231.5" font-family="Helvetica,sans-Serif" font-size="10.00" fill="#000000">traffic_mngr.h</text>
</a>
</g>
</g>
<!-- Node48&#45;&gt;Node49 -->
<g id="edge14" class="edge">
<title>Node48&#45;&gt;Node49</title>
<path fill="none" stroke="#191970" d="M254,-270.1575C254,-261.155 254,-250.9199 254,-243.6427"/>
<polygon fill="#191970" stroke="#191970" points="250.5001,-270.2455 254,-280.2455 257.5001,-270.2456 250.5001,-270.2455"/>
</g>
<!-- Node49&#45;&gt;Node44 -->
<g id="edge15" class="edge">
<title>Node49&#45;&gt;Node44</title>
<path fill="none" stroke="#191970" d="M231.8429,-218.49C217.728,-208.6096 199.8849,-196.1194 187.7752,-187.6427"/>
<polygon fill="#191970" stroke="#191970" points="229.8656,-221.3782 240.0651,-224.2455 233.8799,-215.6436 229.8656,-221.3782"/>
</g>
<!-- Node49&#45;&gt;Node46 -->
<g id="edge16" class="edge">
<title>Node49&#45;&gt;Node46</title>
<path fill="none" stroke="#191970" d="M250.6358,-214.269C245.2342,-187.9892 232.3284,-141.4052 205,-112 188.426,-94.1665 163.4482,-82.399 143.4053,-75.2334"/>
<polygon fill="#191970" stroke="#191970" points="247.2128,-215.0048 252.5115,-224.1795 254.0907,-213.703 247.2128,-215.0048"/>
</g>
</g>
</svg>
