<?xml version="1.0" encoding="UTF-8" standalone="no"?>
<!DOCTYPE svg PUBLIC "-//W3C//DTD SVG 1.1//EN"
 "http://www.w3.org/Graphics/SVG/1.1/DTD/svg11.dtd">
<!-- Generated by graphviz version 2.40.1 (20161225.0304)
 -->
<!-- Title: thread.h Pages: 1 -->
<svg width="972pt" height="308pt"
 viewBox="0.00 0.00 971.50 308.00" xmlns="http://www.w3.org/2000/svg" xmlns:xlink="http://www.w3.org/1999/xlink">
<g id="graph0" class="graph" transform="scale(1 1) rotate(0) translate(4 304)">
<title>thread.h</title>
<polygon fill="#ffffff" stroke="transparent" points="-4,4 -4,-304 967.5,-304 967.5,4 -4,4"/>
<!-- Node6 -->
<g id="node1" class="node">
<title>Node6</title>
<polygon fill="#bfbfbf" stroke="#000000" points="863.5,-280.5 863.5,-299.5 920.5,-299.5 920.5,-280.5 863.5,-280.5"/>
<text text-anchor="middle" x="892" y="-287.5" font-family="Helvetica,sans-Serif" font-size="10.00" fill="#000000">thread.h</text>
</g>
<!-- Node7 -->
<g id="node2" class="node">
<title>Node7</title>
<g id="a_node2"><a xlink:href="api_2abi-default_2rwlock__recursive_8h.html" target="_top" xlink:title="ODP recursive read/write lock. ">
<polygon fill="#ffffff" stroke="#000000" points="441,-224.5 441,-243.5 549,-243.5 549,-224.5 441,-224.5"/>
<text text-anchor="middle" x="495" y="-231.5" font-family="Helvetica,sans-Serif" font-size="10.00" fill="#000000">rwlock_recursive.h</text>
</a>
</g>
</g>
<!-- Node6&#45;&gt;Node7 -->
<g id="edge1" class="edge">
<title>Node6&#45;&gt;Node7</title>
<path fill="none" stroke="#191970" d="M853.1368,-284.518C781.9218,-274.4726 630.3734,-253.0955 549.1225,-241.6344"/>
<polygon fill="#191970" stroke="#191970" points="853.0579,-288.0415 863.4487,-285.9726 854.0357,-281.1101 853.0579,-288.0415"/>
</g>
<!-- Node16 -->
<g id="node11" class="node">
<title>Node16</title>
<g id="a_node11"><a xlink:href="odp__api_8h.html" target="_top" xlink:title="The OpenDataPlane API. ">
<polygon fill="#ffffff" stroke="#000000" points="860,-56.5 860,-75.5 924,-75.5 924,-56.5 860,-56.5"/>
<text text-anchor="middle" x="892" y="-63.5" font-family="Helvetica,sans-Serif" font-size="10.00" fill="#000000">odp_api.h</text>
</a>
</g>
</g>
<!-- Node6&#45;&gt;Node16 -->
<g id="edge14" class="edge">
<title>Node6&#45;&gt;Node16</title>
<path fill="none" stroke="#191970" d="M892,-270.1177C892,-223.6713 892,-109.4223 892,-75.5891"/>
<polygon fill="#191970" stroke="#191970" points="888.5001,-270.375 892,-280.375 895.5001,-270.375 888.5001,-270.375"/>
</g>
<!-- Node18 -->
<g id="node13" class="node">
<title>Node18</title>
<g id="a_node13"><a xlink:href="api_2cpu_8h.html" target="_top" xlink:title="ODP CPU. ">
<polygon fill="#ffffff" stroke="#000000" points="920.5,-112.5 920.5,-131.5 963.5,-131.5 963.5,-112.5 920.5,-112.5"/>
<text text-anchor="middle" x="942" y="-119.5" font-family="Helvetica,sans-Serif" font-size="10.00" fill="#000000">cpu.h</text>
</a>
</g>
</g>
<!-- Node6&#45;&gt;Node18 -->
<g id="edge12" class="edge">
<title>Node6&#45;&gt;Node18</title>
<path fill="none" stroke="#191970" d="M897.9041,-270.7317C900.4158,-262.5011 903.3671,-252.7848 906,-244 918.4898,-202.327 933.0754,-152.5456 939.1351,-131.813"/>
<polygon fill="#191970" stroke="#191970" points="894.4967,-269.906 894.9194,-280.4924 901.1907,-271.953 894.4967,-269.906"/>
</g>
<!-- Node8 -->
<g id="node3" class="node">
<title>Node8</title>
<g id="a_node3"><a xlink:href="arch_2arm32-linux_2odp_2api_2abi_2rwlock__recursive_8h_source.html" target="_top" xlink:title="rwlock_recursive.h">
<polygon fill="#ffffff" stroke="#000000" points="0,-168.5 0,-187.5 108,-187.5 108,-168.5 0,-168.5"/>
<text text-anchor="middle" x="54" y="-175.5" font-family="Helvetica,sans-Serif" font-size="10.00" fill="#000000">rwlock_recursive.h</text>
</a>
</g>
</g>
<!-- Node7&#45;&gt;Node8 -->
<g id="edge2" class="edge">
<title>Node7&#45;&gt;Node8</title>
<path fill="none" stroke="#191970" d="M430.5047,-226.8733C355.1862,-218.3835 226.8933,-203.4031 117,-188 114.1485,-187.6003 111.2264,-187.1787 108.2774,-186.7437"/>
<polygon fill="#191970" stroke="#191970" points="430.4451,-230.3886 440.7735,-228.0276 431.227,-223.4324 430.4451,-230.3886"/>
</g>
<!-- Node9 -->
<g id="node4" class="node">
<title>Node9</title>
<g id="a_node4"><a xlink:href="arch_2arm64-linux_2odp_2api_2abi_2rwlock__recursive_8h_source.html" target="_top" xlink:title="rwlock_recursive.h">
<polygon fill="#ffffff" stroke="#000000" points="126,-168.5 126,-187.5 234,-187.5 234,-168.5 126,-168.5"/>
<text text-anchor="middle" x="180" y="-175.5" font-family="Helvetica,sans-Serif" font-size="10.00" fill="#000000">rwlock_recursive.h</text>
</a>
</g>
</g>
<!-- Node7&#45;&gt;Node9 -->
<g id="edge3" class="edge">
<title>Node7&#45;&gt;Node9</title>
<path fill="none" stroke="#191970" d="M431.0416,-222.6296C372.9356,-212.2997 288.1918,-197.2341 233.5706,-187.5237"/>
<polygon fill="#191970" stroke="#191970" points="430.7492,-226.1324 441.2075,-224.4369 431.9745,-219.2405 430.7492,-226.1324"/>
</g>
<!-- Node10 -->
<g id="node5" class="node">
<title>Node10</title>
<g id="a_node5"><a xlink:href="arch_2default-linux_2odp_2api_2abi_2rwlock__recursive_8h_source.html" target="_top" xlink:title="rwlock_recursive.h">
<polygon fill="#ffffff" stroke="#000000" points="252,-168.5 252,-187.5 360,-187.5 360,-168.5 252,-168.5"/>
<text text-anchor="middle" x="306" y="-175.5" font-family="Helvetica,sans-Serif" font-size="10.00" fill="#000000">rwlock_recursive.h</text>
</a>
</g>
</g>
<!-- Node7&#45;&gt;Node10 -->
<g id="edge4" class="edge">
<title>Node7&#45;&gt;Node10</title>
<path fill="none" stroke="#191970" d="M452.6643,-221.4561C417.9706,-211.1765 369.6166,-196.8494 338.0663,-187.5011"/>
<polygon fill="#191970" stroke="#191970" points="451.9274,-224.8881 462.5097,-224.3733 453.9161,-218.1765 451.9274,-224.8881"/>
</g>
<!-- Node11 -->
<g id="node6" class="node">
<title>Node11</title>
<g id="a_node6"><a xlink:href="arch_2mips64-linux_2odp_2api_2abi_2rwlock__recursive_8h_source.html" target="_top" xlink:title="rwlock_recursive.h">
<polygon fill="#ffffff" stroke="#000000" points="378,-168.5 378,-187.5 486,-187.5 486,-168.5 378,-168.5"/>
<text text-anchor="middle" x="432" y="-175.5" font-family="Helvetica,sans-Serif" font-size="10.00" fill="#000000">rwlock_recursive.h</text>
</a>
</g>
</g>
<!-- Node7&#45;&gt;Node11 -->
<g id="edge5" class="edge">
<title>Node7&#45;&gt;Node11</title>
<path fill="none" stroke="#191970" d="M476.2808,-217.3607C465.3818,-207.6727 452.0245,-195.7995 442.848,-187.6427"/>
<polygon fill="#191970" stroke="#191970" points="474.2268,-220.2178 484.0262,-224.2455 478.8774,-214.9859 474.2268,-220.2178"/>
</g>
<!-- Node12 -->
<g id="node7" class="node">
<title>Node12</title>
<g id="a_node7"><a xlink:href="arch_2power64-linux_2odp_2api_2abi_2rwlock__recursive_8h_source.html" target="_top" xlink:title="rwlock_recursive.h">
<polygon fill="#ffffff" stroke="#000000" points="504,-168.5 504,-187.5 612,-187.5 612,-168.5 504,-168.5"/>
<text text-anchor="middle" x="558" y="-175.5" font-family="Helvetica,sans-Serif" font-size="10.00" fill="#000000">rwlock_recursive.h</text>
</a>
</g>
</g>
<!-- Node7&#45;&gt;Node12 -->
<g id="edge6" class="edge">
<title>Node7&#45;&gt;Node12</title>
<path fill="none" stroke="#191970" d="M513.7192,-217.3607C524.6182,-207.6727 537.9755,-195.7995 547.152,-187.6427"/>
<polygon fill="#191970" stroke="#191970" points="511.1226,-214.9859 505.9738,-224.2455 515.7732,-220.2178 511.1226,-214.9859"/>
</g>
<!-- Node13 -->
<g id="node8" class="node">
<title>Node13</title>
<g id="a_node8"><a xlink:href="arch_2x86__32-linux_2odp_2api_2abi_2rwlock__recursive_8h_source.html" target="_top" xlink:title="rwlock_recursive.h">
<polygon fill="#ffffff" stroke="#000000" points="630,-168.5 630,-187.5 738,-187.5 738,-168.5 630,-168.5"/>
<text text-anchor="middle" x="684" y="-175.5" font-family="Helvetica,sans-Serif" font-size="10.00" fill="#000000">rwlock_recursive.h</text>
</a>
</g>
</g>
<!-- Node7&#45;&gt;Node13 -->
<g id="edge7" class="edge">
<title>Node7&#45;&gt;Node13</title>
<path fill="none" stroke="#191970" d="M537.3357,-221.4561C572.0294,-211.1765 620.3834,-196.8494 651.9337,-187.5011"/>
<polygon fill="#191970" stroke="#191970" points="536.0839,-218.1765 527.4903,-224.3733 538.0726,-224.8881 536.0839,-218.1765"/>
</g>
<!-- Node14 -->
<g id="node9" class="node">
<title>Node14</title>
<g id="a_node9"><a xlink:href="arch_2x86__64-linux_2odp_2api_2abi_2rwlock__recursive_8h_source.html" target="_top" xlink:title="rwlock_recursive.h">
<polygon fill="#ffffff" stroke="#000000" points="756,-168.5 756,-187.5 864,-187.5 864,-168.5 756,-168.5"/>
<text text-anchor="middle" x="810" y="-175.5" font-family="Helvetica,sans-Serif" font-size="10.00" fill="#000000">rwlock_recursive.h</text>
</a>
</g>
</g>
<!-- Node7&#45;&gt;Node14 -->
<g id="edge8" class="edge">
<title>Node7&#45;&gt;Node14</title>
<path fill="none" stroke="#191970" d="M558.9584,-222.6296C617.0644,-212.2997 701.8082,-197.2341 756.4294,-187.5237"/>
<polygon fill="#191970" stroke="#191970" points="558.0255,-219.2405 548.7925,-224.4369 559.2508,-226.1324 558.0255,-219.2405"/>
</g>
<!-- Node15 -->
<g id="node10" class="node">
<title>Node15</title>
<g id="a_node10"><a xlink:href="api_2rwlock__recursive_8h.html" target="_top" xlink:title="ODP resursive read/write lock. ">
<polygon fill="#ffffff" stroke="#000000" points="756,-112.5 756,-131.5 864,-131.5 864,-112.5 756,-112.5"/>
<text text-anchor="middle" x="810" y="-119.5" font-family="Helvetica,sans-Serif" font-size="10.00" fill="#000000">rwlock_recursive.h</text>
</a>
</g>
</g>
<!-- Node14&#45;&gt;Node15 -->
<g id="edge9" class="edge">
<title>Node14&#45;&gt;Node15</title>
<path fill="none" stroke="#191970" d="M810,-158.1575C810,-149.155 810,-138.9199 810,-131.6427"/>
<polygon fill="#191970" stroke="#191970" points="806.5001,-158.2455 810,-168.2455 813.5001,-158.2456 806.5001,-158.2455"/>
</g>
<!-- Node15&#45;&gt;Node16 -->
<g id="edge10" class="edge">
<title>Node15&#45;&gt;Node16</title>
<path fill="none" stroke="#191970" d="M832.711,-106.49C847.1788,-96.6096 865.468,-84.1194 877.8804,-75.6427"/>
<polygon fill="#191970" stroke="#191970" points="830.5675,-103.7156 824.2833,-112.2455 834.5152,-109.4962 830.5675,-103.7156"/>
</g>
<!-- Node17 -->
<g id="node12" class="node">
<title>Node17</title>
<g id="a_node12"><a xlink:href="odp_8h.html" target="_top" xlink:title="WARNING: THIS FILE IS DEPRECATED AND WILL BE REMOVED!!! ODP APPLICATIONS SHOULD NOW INCLUDE odp_api...">
<polygon fill="#ffffff" stroke="#000000" points="870,-.5 870,-19.5 914,-19.5 914,-.5 870,-.5"/>
<text text-anchor="middle" x="892" y="-7.5" font-family="Helvetica,sans-Serif" font-size="10.00" fill="#000000">odp.h</text>
</a>
</g>
</g>
<!-- Node16&#45;&gt;Node17 -->
<g id="edge11" class="edge">
<title>Node16&#45;&gt;Node17</title>
<path fill="none" stroke="#191970" d="M892,-46.1575C892,-37.155 892,-26.9199 892,-19.6427"/>
<polygon fill="#191970" stroke="#191970" points="888.5001,-46.2455 892,-56.2455 895.5001,-46.2456 888.5001,-46.2455"/>
</g>
<!-- Node18&#45;&gt;Node16 -->
<g id="edge13" class="edge">
<title>Node18&#45;&gt;Node16</title>
<path fill="none" stroke="#191970" d="M926.3753,-104.5004C917.8727,-94.9775 907.6782,-83.5596 900.6095,-75.6427"/>
<polygon fill="#191970" stroke="#191970" points="924.0197,-107.1172 933.2907,-112.2455 929.2413,-102.4551 924.0197,-107.1172"/>
</g>
</g>
</svg>
