<?xml version="1.0" encoding="UTF-8" standalone="no"?>
<!DOCTYPE svg PUBLIC "-//W3C//DTD SVG 1.1//EN"
 "http://www.w3.org/Graphics/SVG/1.1/DTD/svg11.dtd">
<!-- Generated by graphviz version 2.40.1 (20161225.0304)
 -->
<!-- Title: thrmask.h Pages: 1 -->
<svg width="578pt" height="364pt"
 viewBox="0.00 0.00 578.00 364.00" xmlns="http://www.w3.org/2000/svg" xmlns:xlink="http://www.w3.org/1999/xlink">
<g id="graph0" class="graph" transform="scale(1 1) rotate(0) translate(4 360)">
<title>thrmask.h</title>
<polygon fill="#ffffff" stroke="transparent" points="-4,4 -4,-360 574,-360 574,4 -4,4"/>
<!-- Node6 -->
<g id="node1" class="node">
<title>Node6</title>
<polygon fill="#bfbfbf" stroke="#000000" points="252,-336.5 252,-355.5 318,-355.5 318,-336.5 252,-336.5"/>
<text text-anchor="middle" x="285" y="-343.5" font-family="Helvetica,sans-Serif" font-size="10.00" fill="#000000">thrmask.h</text>
</g>
<!-- Node7 -->
<g id="node2" class="node">
<title>Node7</title>
<g id="a_node2"><a xlink:href="arch_2arm32-linux_2odp_2api_2abi_2thrmask_8h_source.html" target="_top" xlink:title="thrmask.h">
<polygon fill="#ffffff" stroke="#000000" points="0,-280.5 0,-299.5 66,-299.5 66,-280.5 0,-280.5"/>
<text text-anchor="middle" x="33" y="-287.5" font-family="Helvetica,sans-Serif" font-size="10.00" fill="#000000">thrmask.h</text>
</a>
</g>
</g>
<!-- Node6&#45;&gt;Node7 -->
<g id="edge1" class="edge">
<title>Node6&#45;&gt;Node7</title>
<path fill="none" stroke="#191970" d="M241.8635,-336.7898C199.3749,-327.6616 132.6464,-313.1752 75,-300 72.0772,-299.332 69.0423,-298.6286 66.0018,-297.9172"/>
<polygon fill="#191970" stroke="#191970" points="241.3486,-340.2589 251.8604,-338.9347 242.8171,-333.4147 241.3486,-340.2589"/>
</g>
<!-- Node8 -->
<g id="node3" class="node">
<title>Node8</title>
<g id="a_node3"><a xlink:href="arch_2arm64-linux_2odp_2api_2abi_2thrmask_8h_source.html" target="_top" xlink:title="thrmask.h">
<polygon fill="#ffffff" stroke="#000000" points="84,-280.5 84,-299.5 150,-299.5 150,-280.5 84,-280.5"/>
<text text-anchor="middle" x="117" y="-287.5" font-family="Helvetica,sans-Serif" font-size="10.00" fill="#000000">thrmask.h</text>
</a>
</g>
</g>
<!-- Node6&#45;&gt;Node8 -->
<g id="edge2" class="edge">
<title>Node6&#45;&gt;Node8</title>
<path fill="none" stroke="#191970" d="M246.5714,-333.1905C215.7927,-322.9309 173.3074,-308.7691 145.5034,-299.5011"/>
<polygon fill="#191970" stroke="#191970" points="245.5261,-336.5313 256.1198,-336.3733 247.7398,-329.8905 245.5261,-336.5313"/>
</g>
<!-- Node9 -->
<g id="node4" class="node">
<title>Node9</title>
<g id="a_node4"><a xlink:href="arch_2default-linux_2odp_2api_2abi_2thrmask_8h_source.html" target="_top" xlink:title="thrmask.h">
<polygon fill="#ffffff" stroke="#000000" points="168,-280.5 168,-299.5 234,-299.5 234,-280.5 168,-280.5"/>
<text text-anchor="middle" x="201" y="-287.5" font-family="Helvetica,sans-Serif" font-size="10.00" fill="#000000">thrmask.h</text>
</a>
</g>
</g>
<!-- Node6&#45;&gt;Node9 -->
<g id="edge3" class="edge">
<title>Node6&#45;&gt;Node9</title>
<path fill="none" stroke="#191970" d="M261.7351,-330.49C246.9144,-320.6096 228.1791,-308.1194 215.464,-299.6427"/>
<polygon fill="#191970" stroke="#191970" points="260.1063,-333.6107 270.3683,-336.2455 263.9893,-327.7863 260.1063,-333.6107"/>
</g>
<!-- Node10 -->
<g id="node5" class="node">
<title>Node10</title>
<g id="a_node5"><a xlink:href="arch_2mips64-linux_2odp_2api_2abi_2thrmask_8h_source.html" target="_top" xlink:title="thrmask.h">
<polygon fill="#ffffff" stroke="#000000" points="252,-280.5 252,-299.5 318,-299.5 318,-280.5 252,-280.5"/>
<text text-anchor="middle" x="285" y="-287.5" font-family="Helvetica,sans-Serif" font-size="10.00" fill="#000000">thrmask.h</text>
</a>
</g>
</g>
<!-- Node6&#45;&gt;Node10 -->
<g id="edge4" class="edge">
<title>Node6&#45;&gt;Node10</title>
<path fill="none" stroke="#191970" d="M285,-326.1575C285,-317.155 285,-306.9199 285,-299.6427"/>
<polygon fill="#191970" stroke="#191970" points="281.5001,-326.2455 285,-336.2455 288.5001,-326.2456 281.5001,-326.2455"/>
</g>
<!-- Node11 -->
<g id="node6" class="node">
<title>Node11</title>
<g id="a_node6"><a xlink:href="arch_2power64-linux_2odp_2api_2abi_2thrmask_8h_source.html" target="_top" xlink:title="thrmask.h">
<polygon fill="#ffffff" stroke="#000000" points="336,-280.5 336,-299.5 402,-299.5 402,-280.5 336,-280.5"/>
<text text-anchor="middle" x="369" y="-287.5" font-family="Helvetica,sans-Serif" font-size="10.00" fill="#000000">thrmask.h</text>
</a>
</g>
</g>
<!-- Node6&#45;&gt;Node11 -->
<g id="edge5" class="edge">
<title>Node6&#45;&gt;Node11</title>
<path fill="none" stroke="#191970" d="M308.2649,-330.49C323.0856,-320.6096 341.8209,-308.1194 354.536,-299.6427"/>
<polygon fill="#191970" stroke="#191970" points="306.0107,-327.7863 299.6317,-336.2455 309.8937,-333.6107 306.0107,-327.7863"/>
</g>
<!-- Node12 -->
<g id="node7" class="node">
<title>Node12</title>
<g id="a_node7"><a xlink:href="arch_2x86__32-linux_2odp_2api_2abi_2thrmask_8h_source.html" target="_top" xlink:title="thrmask.h">
<polygon fill="#ffffff" stroke="#000000" points="420,-280.5 420,-299.5 486,-299.5 486,-280.5 420,-280.5"/>
<text text-anchor="middle" x="453" y="-287.5" font-family="Helvetica,sans-Serif" font-size="10.00" fill="#000000">thrmask.h</text>
</a>
</g>
</g>
<!-- Node6&#45;&gt;Node12 -->
<g id="edge6" class="edge">
<title>Node6&#45;&gt;Node12</title>
<path fill="none" stroke="#191970" d="M323.4286,-333.1905C354.2073,-322.9309 396.6926,-308.7691 424.4966,-299.5011"/>
<polygon fill="#191970" stroke="#191970" points="322.2602,-329.8905 313.8802,-336.3733 324.4739,-336.5313 322.2602,-329.8905"/>
</g>
<!-- Node13 -->
<g id="node8" class="node">
<title>Node13</title>
<g id="a_node8"><a xlink:href="arch_2x86__64-linux_2odp_2api_2abi_2thrmask_8h_source.html" target="_top" xlink:title="thrmask.h">
<polygon fill="#ffffff" stroke="#000000" points="504,-280.5 504,-299.5 570,-299.5 570,-280.5 504,-280.5"/>
<text text-anchor="middle" x="537" y="-287.5" font-family="Helvetica,sans-Serif" font-size="10.00" fill="#000000">thrmask.h</text>
</a>
</g>
</g>
<!-- Node6&#45;&gt;Node13 -->
<g id="edge7" class="edge">
<title>Node6&#45;&gt;Node13</title>
<path fill="none" stroke="#191970" d="M328.1365,-336.7898C370.6251,-327.6616 437.3536,-313.1752 495,-300 497.9228,-299.332 500.9577,-298.6286 503.9982,-297.9172"/>
<polygon fill="#191970" stroke="#191970" points="327.1829,-333.4147 318.1396,-338.9347 328.6514,-340.2589 327.1829,-333.4147"/>
</g>
<!-- Node14 -->
<g id="node9" class="node">
<title>Node14</title>
<g id="a_node9"><a xlink:href="api_2thrmask_8h.html" target="_top" xlink:title="ODP thread masks. ">
<polygon fill="#ffffff" stroke="#000000" points="504,-224.5 504,-243.5 570,-243.5 570,-224.5 504,-224.5"/>
<text text-anchor="middle" x="537" y="-231.5" font-family="Helvetica,sans-Serif" font-size="10.00" fill="#000000">thrmask.h</text>
</a>
</g>
</g>
<!-- Node13&#45;&gt;Node14 -->
<g id="edge8" class="edge">
<title>Node13&#45;&gt;Node14</title>
<path fill="none" stroke="#191970" d="M537,-270.1575C537,-261.155 537,-250.9199 537,-243.6427"/>
<polygon fill="#191970" stroke="#191970" points="533.5001,-270.2455 537,-280.2455 540.5001,-270.2456 533.5001,-270.2455"/>
</g>
<!-- Node15 -->
<g id="node10" class="node">
<title>Node15</title>
<g id="a_node10"><a xlink:href="api_2spec_2schedule_8h.html" target="_top" xlink:title="ODP schedule. ">
<polygon fill="#ffffff" stroke="#000000" points="471.5,-168.5 471.5,-187.5 540.5,-187.5 540.5,-168.5 471.5,-168.5"/>
<text text-anchor="middle" x="506" y="-175.5" font-family="Helvetica,sans-Serif" font-size="10.00" fill="#000000">schedule.h</text>
</a>
</g>
</g>
<!-- Node14&#45;&gt;Node15 -->
<g id="edge9" class="edge">
<title>Node14&#45;&gt;Node15</title>
<path fill="none" stroke="#191970" d="M526.6688,-215.3372C521.5335,-206.0605 515.5434,-195.2398 511.3379,-187.6427"/>
<polygon fill="#191970" stroke="#191970" points="523.6949,-217.1917 531.6002,-224.2455 529.8191,-213.8015 523.6949,-217.1917"/>
</g>
<!-- Node17 -->
<g id="node12" class="node">
<title>Node17</title>
<g id="a_node12"><a xlink:href="odp__api_8h.html" target="_top" xlink:title="The OpenDataPlane API. ">
<polygon fill="#ffffff" stroke="#000000" points="505,-56.5 505,-75.5 569,-75.5 569,-56.5 505,-56.5"/>
<text text-anchor="middle" x="537" y="-63.5" font-family="Helvetica,sans-Serif" font-size="10.00" fill="#000000">odp_api.h</text>
</a>
</g>
</g>
<!-- Node14&#45;&gt;Node17 -->
<g id="edge13" class="edge">
<title>Node14&#45;&gt;Node17</title>
<path fill="none" stroke="#191970" d="M543.745,-214.6605C546.2419,-206.5353 548.7643,-196.9165 550,-188 554.637,-154.542 554.637,-145.458 550,-112 548.2228,-99.1763 543.7841,-84.8999 540.5876,-75.7033"/>
<polygon fill="#191970" stroke="#191970" points="540.3753,-213.704 540.5876,-224.2967 547.0274,-215.8836 540.3753,-213.704"/>
</g>
<!-- Node16 -->
<g id="node11" class="node">
<title>Node16</title>
<g id="a_node11"><a xlink:href="api_2schedule_8h.html" target="_top" xlink:title="ODP schedule. ">
<polygon fill="#ffffff" stroke="#000000" points="471.5,-112.5 471.5,-131.5 540.5,-131.5 540.5,-112.5 471.5,-112.5"/>
<text text-anchor="middle" x="506" y="-119.5" font-family="Helvetica,sans-Serif" font-size="10.00" fill="#000000">schedule.h</text>
</a>
</g>
</g>
<!-- Node15&#45;&gt;Node16 -->
<g id="edge10" class="edge">
<title>Node15&#45;&gt;Node16</title>
<path fill="none" stroke="#191970" d="M506,-158.1575C506,-149.155 506,-138.9199 506,-131.6427"/>
<polygon fill="#191970" stroke="#191970" points="502.5001,-158.2455 506,-168.2455 509.5001,-158.2456 502.5001,-158.2455"/>
</g>
<!-- Node16&#45;&gt;Node17 -->
<g id="edge11" class="edge">
<title>Node16&#45;&gt;Node17</title>
<path fill="none" stroke="#191970" d="M516.3312,-103.3372C521.4665,-94.0605 527.4566,-83.2398 531.6621,-75.6427"/>
<polygon fill="#191970" stroke="#191970" points="513.1809,-101.8015 511.3998,-112.2455 519.3051,-105.1917 513.1809,-101.8015"/>
</g>
<!-- Node18 -->
<g id="node13" class="node">
<title>Node18</title>
<g id="a_node13"><a xlink:href="odp_8h.html" target="_top" xlink:title="WARNING: THIS FILE IS DEPRECATED AND WILL BE REMOVED!!! ODP APPLICATIONS SHOULD NOW INCLUDE odp_api...">
<polygon fill="#ffffff" stroke="#000000" points="515,-.5 515,-19.5 559,-19.5 559,-.5 515,-.5"/>
<text text-anchor="middle" x="537" y="-7.5" font-family="Helvetica,sans-Serif" font-size="10.00" fill="#000000">odp.h</text>
</a>
</g>
</g>
<!-- Node17&#45;&gt;Node18 -->
<g id="edge12" class="edge">
<title>Node17&#45;&gt;Node18</title>
<path fill="none" stroke="#191970" d="M537,-46.1575C537,-37.155 537,-26.9199 537,-19.6427"/>
<polygon fill="#191970" stroke="#191970" points="533.5001,-46.2455 537,-56.2455 540.5001,-46.2456 533.5001,-46.2455"/>
</g>
</g>
</svg>
