<?xml version="1.0" encoding="UTF-8" standalone="no"?>
<!DOCTYPE svg PUBLIC "-//W3C//DTD SVG 1.1//EN"
 "http://www.w3.org/Graphics/SVG/1.1/DTD/svg11.dtd">
<!-- Generated by graphviz version 2.43.0 (0)
 -->
<!-- Title: queue_types.h Pages: 1 -->
<svg width="898pt" height="643pt"
 viewBox="0.00 0.00 898.00 643.00" xmlns="http://www.w3.org/2000/svg" xmlns:xlink="http://www.w3.org/1999/xlink">
<g id="graph0" class="graph" transform="scale(1 1) rotate(0) translate(4 639)">
<title>queue_types.h</title>
<polygon fill="white" stroke="transparent" points="-4,4 -4,-639 894,-639 894,4 -4,4"/>
<!-- Node1 -->
<g id="node1" class="node">
<title>Node1</title>
<g id="a_node1"><a xlink:title="ODP queue.">
<polygon fill="#bfbfbf" stroke="black" points="197,-615.5 197,-634.5 285,-634.5 285,-615.5 197,-615.5"/>
<text text-anchor="middle" x="241" y="-622.5" font-family="Helvetica,sans-Serif" font-size="10.00">queue_types.h</text>
</a>
</g>
</g>
<!-- Node2 -->
<g id="node2" class="node">
<title>Node2</title>
<g id="a_node2"><a xlink:title=" ">
<polygon fill="white" stroke="#bfbfbf" points="95.5,-554 95.5,-573 240.5,-573 240.5,-554 95.5,-554"/>
<text text-anchor="middle" x="168" y="-561" font-family="Helvetica,sans-Serif" font-size="10.00">odp/api/abi/queue_types.h</text>
</a>
</g>
</g>
<!-- Node1&#45;&gt;Node2 -->
<g id="edge1" class="edge">
<title>Node1&#45;&gt;Node2</title>
<path fill="none" stroke="midnightblue" d="M230.54,-615.48C219.05,-606.11 200.37,-590.88 186.41,-579.51"/>
<polygon fill="midnightblue" stroke="midnightblue" points="188.4,-576.61 178.44,-573.01 183.98,-582.04 188.4,-576.61"/>
</g>
<!-- Node3 -->
<g id="node3" class="node">
<title>Node3</title>
<g id="a_node3"><a xlink:href="api_2spec_2queue__types_8h.html" target="_top" xlink:title="ODP queue types.">
<polygon fill="white" stroke="black" points="258.5,-548.5 258.5,-578.5 369.5,-578.5 369.5,-548.5 258.5,-548.5"/>
<text text-anchor="start" x="266.5" y="-566.5" font-family="Helvetica,sans-Serif" font-size="10.00">odp/api/spec/queue</text>
<text text-anchor="middle" x="314" y="-555.5" font-family="Helvetica,sans-Serif" font-size="10.00">_types.h</text>
</a>
</g>
</g>
<!-- Node1&#45;&gt;Node3 -->
<g id="edge2" class="edge">
<title>Node1&#45;&gt;Node3</title>
<path fill="none" stroke="midnightblue" d="M251.46,-615.48C261.16,-607.57 275.99,-595.48 288.77,-585.07"/>
<polygon fill="midnightblue" stroke="midnightblue" points="291.26,-587.55 296.8,-578.52 286.83,-582.13 291.26,-587.55"/>
</g>
<!-- Node4 -->
<g id="node4" class="node">
<title>Node4</title>
<g id="a_node4"><a xlink:href="visibility__begin_8h_source.html" target="_top" xlink:title=" ">
<polygon fill="white" stroke="black" points="215.5,-0.5 215.5,-19.5 336.5,-19.5 336.5,-0.5 215.5,-0.5"/>
<text text-anchor="middle" x="276" y="-7.5" font-family="Helvetica,sans-Serif" font-size="10.00">odp/visibility_begin.h</text>
</a>
</g>
</g>
<!-- Node3&#45;&gt;Node4 -->
<g id="edge3" class="edge">
<title>Node3&#45;&gt;Node4</title>
<path fill="none" stroke="midnightblue" d="M263.55,-548.45C174.79,-523.02 0,-469.4 0,-441.5 0,-441.5 0,-441.5 0,-132 0,-42.35 123.66,-18.5 205.43,-12.53"/>
<polygon fill="midnightblue" stroke="midnightblue" points="205.68,-16.03 215.43,-11.88 205.22,-9.04 205.68,-16.03"/>
</g>
<!-- Node5 -->
<g id="node5" class="node">
<title>Node5</title>
<g id="a_node5"><a xlink:href="api_2event__vector__types_8h.html" target="_top" xlink:title="ODP event vector API type definitions.">
<polygon fill="white" stroke="black" points="200.5,-358.5 200.5,-388.5 319.5,-388.5 319.5,-358.5 200.5,-358.5"/>
<text text-anchor="start" x="208.5" y="-376.5" font-family="Helvetica,sans-Serif" font-size="10.00">odp/api/event_vector</text>
<text text-anchor="middle" x="260" y="-365.5" font-family="Helvetica,sans-Serif" font-size="10.00">_types.h</text>
</a>
</g>
</g>
<!-- Node3&#45;&gt;Node5 -->
<g id="edge4" class="edge">
<title>Node3&#45;&gt;Node5</title>
<path fill="none" stroke="midnightblue" d="M303.18,-548.25C296.35,-538.54 287.9,-525.1 283,-512 268.77,-473.98 263.31,-426.75 261.24,-398.71"/>
<polygon fill="midnightblue" stroke="midnightblue" points="264.73,-398.37 260.58,-388.62 257.74,-398.82 264.73,-398.37"/>
</g>
<!-- Node12 -->
<g id="node12" class="node">
<title>Node12</title>
<g id="a_node12"><a xlink:href="visibility__end_8h_source.html" target="_top" xlink:title=" ">
<polygon fill="white" stroke="black" points="720,-0.5 720,-19.5 832,-19.5 832,-0.5 720,-0.5"/>
<text text-anchor="middle" x="776" y="-7.5" font-family="Helvetica,sans-Serif" font-size="10.00">odp/visibility_end.h</text>
</a>
</g>
</g>
<!-- Node3&#45;&gt;Node12 -->
<g id="edge39" class="edge">
<title>Node3&#45;&gt;Node12</title>
<path fill="none" stroke="midnightblue" d="M369.75,-562.52C514.31,-561.07 890,-547.13 890,-441.5 890,-441.5 890,-441.5 890,-132 890,-81.35 836.42,-43.28 802.73,-24.34"/>
<polygon fill="midnightblue" stroke="midnightblue" points="804.27,-21.2 793.81,-19.52 800.94,-27.36 804.27,-21.2"/>
</g>
<!-- Node20 -->
<g id="node20" class="node">
<title>Node20</title>
<g id="a_node20"><a xlink:href="api_2schedule__types_8h.html" target="_top" xlink:title="ODP schedule.">
<polygon fill="white" stroke="black" points="292,-492.5 292,-511.5 432,-511.5 432,-492.5 292,-492.5"/>
<text text-anchor="middle" x="362" y="-499.5" font-family="Helvetica,sans-Serif" font-size="10.00">odp/api/schedule_types.h</text>
</a>
</g>
</g>
<!-- Node3&#45;&gt;Node20 -->
<g id="edge26" class="edge">
<title>Node3&#45;&gt;Node20</title>
<path fill="none" stroke="midnightblue" d="M325.38,-548.4C332.35,-539.75 341.31,-528.64 348.63,-519.58"/>
<polygon fill="midnightblue" stroke="midnightblue" points="351.46,-521.64 355.02,-511.66 346.01,-517.24 351.46,-521.64"/>
</g>
<!-- Node6 -->
<g id="node6" class="node">
<title>Node6</title>
<g id="a_node6"><a xlink:title=" ">
<polygon fill="white" stroke="#bfbfbf" points="28.5,-291.5 28.5,-321.5 165.5,-321.5 165.5,-291.5 28.5,-291.5"/>
<text text-anchor="start" x="36.5" y="-309.5" font-family="Helvetica,sans-Serif" font-size="10.00">odp/api/abi/event_vector</text>
<text text-anchor="middle" x="97" y="-298.5" font-family="Helvetica,sans-Serif" font-size="10.00">_types.h</text>
</a>
</g>
</g>
<!-- Node5&#45;&gt;Node6 -->
<g id="edge5" class="edge">
<title>Node5&#45;&gt;Node6</title>
<path fill="none" stroke="midnightblue" d="M224.63,-358.4C200.28,-348.69 167.74,-335.71 141.61,-325.29"/>
<polygon fill="midnightblue" stroke="midnightblue" points="142.88,-322.03 132.3,-321.58 140.29,-328.53 142.88,-322.03"/>
</g>
<!-- Node7 -->
<g id="node7" class="node">
<title>Node7</title>
<g id="a_node7"><a xlink:title=" ">
<polygon fill="white" stroke="#bfbfbf" points="184,-297 184,-316 320,-316 320,-297 184,-297"/>
<text text-anchor="middle" x="252" y="-304" font-family="Helvetica,sans-Serif" font-size="10.00">odp/api/abi/pool_types.h</text>
</a>
</g>
</g>
<!-- Node5&#45;&gt;Node7 -->
<g id="edge6" class="edge">
<title>Node5&#45;&gt;Node7</title>
<path fill="none" stroke="midnightblue" d="M258.26,-358.4C257.1,-348.96 255.56,-336.45 254.3,-326.19"/>
<polygon fill="midnightblue" stroke="midnightblue" points="257.77,-325.69 253.07,-316.19 250.82,-326.55 257.77,-325.69"/>
</g>
<!-- Node8 -->
<g id="node8" class="node">
<title>Node8</title>
<g id="a_node8"><a xlink:href="api_2spec_2event__vector__types_8h.html" target="_top" xlink:title="ODP event vector API type definitions.">
<polygon fill="white" stroke="black" points="376.5,-291.5 376.5,-321.5 485.5,-321.5 485.5,-291.5 376.5,-291.5"/>
<text text-anchor="start" x="384.5" y="-309.5" font-family="Helvetica,sans-Serif" font-size="10.00">odp/api/spec/event</text>
<text text-anchor="middle" x="431" y="-298.5" font-family="Helvetica,sans-Serif" font-size="10.00">_vector_types.h</text>
</a>
</g>
</g>
<!-- Node5&#45;&gt;Node8 -->
<g id="edge7" class="edge">
<title>Node5&#45;&gt;Node8</title>
<path fill="none" stroke="midnightblue" d="M297.1,-358.4C322.76,-348.64 357.09,-335.59 384.56,-325.15"/>
<polygon fill="midnightblue" stroke="midnightblue" points="385.86,-328.4 393.97,-321.58 383.38,-321.86 385.86,-328.4"/>
</g>
<!-- Node8&#45;&gt;Node4 -->
<g id="edge8" class="edge">
<title>Node8&#45;&gt;Node4</title>
<path fill="none" stroke="midnightblue" d="M376.46,-298.3C336.35,-291.37 281.47,-278.37 238,-255 142.75,-203.8 101.04,-187.85 62,-87 57.03,-74.15 53.32,-66.7 62,-56 79.91,-33.94 150.03,-22.29 205.19,-16.42"/>
<polygon fill="midnightblue" stroke="midnightblue" points="205.71,-19.89 215.3,-15.39 205,-12.92 205.71,-19.89"/>
</g>
<!-- Node9 -->
<g id="node9" class="node">
<title>Node9</title>
<g id="a_node9"><a xlink:href="api_2event__types_8h.html" target="_top" xlink:title="ODP event API type definitions.">
<polygon fill="white" stroke="black" points="122.5,-123.5 122.5,-142.5 247.5,-142.5 247.5,-123.5 122.5,-123.5"/>
<text text-anchor="middle" x="185" y="-130.5" font-family="Helvetica,sans-Serif" font-size="10.00">odp/api/event_types.h</text>
</a>
</g>
</g>
<!-- Node8&#45;&gt;Node9 -->
<g id="edge9" class="edge">
<title>Node8&#45;&gt;Node9</title>
<path fill="none" stroke="midnightblue" d="M376.22,-293.52C334.1,-283.51 280.14,-268.71 262,-255 226.04,-227.82 202.43,-178.56 191.69,-152.05"/>
<polygon fill="midnightblue" stroke="midnightblue" points="194.86,-150.56 187.98,-142.5 188.34,-153.09 194.86,-150.56"/>
</g>
<!-- Node8&#45;&gt;Node12 -->
<g id="edge25" class="edge">
<title>Node8&#45;&gt;Node12</title>
<path fill="none" stroke="midnightblue" d="M456.54,-291.48C491.52,-271.98 555.93,-234.99 608,-199 641.06,-176.15 647.89,-168.45 679,-143 708.77,-118.64 722.42,-118.15 745,-87 757.78,-69.38 766.34,-45.73 771.17,-29.52"/>
<polygon fill="midnightblue" stroke="midnightblue" points="774.61,-30.22 773.93,-19.65 767.87,-28.34 774.61,-30.22"/>
</g>
<!-- Node13 -->
<g id="node13" class="node">
<title>Node13</title>
<g id="a_node13"><a xlink:href="api_2std__types_8h.html" target="_top" xlink:title="Standard C language types and definitions for ODP.">
<polygon fill="white" stroke="black" points="607,-235.5 607,-254.5 719,-254.5 719,-235.5 607,-235.5"/>
<text text-anchor="middle" x="663" y="-242.5" font-family="Helvetica,sans-Serif" font-size="10.00">odp/api/std_types.h</text>
</a>
</g>
</g>
<!-- Node8&#45;&gt;Node13 -->
<g id="edge14" class="edge">
<title>Node8&#45;&gt;Node13</title>
<path fill="none" stroke="midnightblue" d="M485.69,-291.47C526.76,-280.94 582.23,-266.72 620.12,-257"/>
<polygon fill="midnightblue" stroke="midnightblue" points="621.02,-260.38 629.83,-254.51 619.28,-253.6 621.02,-260.38"/>
</g>
<!-- Node10 -->
<g id="node10" class="node">
<title>Node10</title>
<g id="a_node10"><a xlink:title=" ">
<polygon fill="white" stroke="#bfbfbf" points="104.5,-62 104.5,-81 247.5,-81 247.5,-62 104.5,-62"/>
<text text-anchor="middle" x="176" y="-69" font-family="Helvetica,sans-Serif" font-size="10.00">odp/api/abi/event_types.h</text>
</a>
</g>
</g>
<!-- Node9&#45;&gt;Node10 -->
<g id="edge10" class="edge">
<title>Node9&#45;&gt;Node10</title>
<path fill="none" stroke="midnightblue" d="M183.71,-123.48C182.44,-115.08 180.46,-101.98 178.82,-91.16"/>
<polygon fill="midnightblue" stroke="midnightblue" points="182.24,-90.37 177.29,-81.01 175.32,-91.42 182.24,-90.37"/>
</g>
<!-- Node11 -->
<g id="node11" class="node">
<title>Node11</title>
<g id="a_node11"><a xlink:href="api_2spec_2event__types_8h.html" target="_top" xlink:title="ODP event API type definitions.">
<polygon fill="white" stroke="black" points="342.5,-56.5 342.5,-86.5 451.5,-86.5 451.5,-56.5 342.5,-56.5"/>
<text text-anchor="start" x="350.5" y="-74.5" font-family="Helvetica,sans-Serif" font-size="10.00">odp/api/spec/event</text>
<text text-anchor="middle" x="397" y="-63.5" font-family="Helvetica,sans-Serif" font-size="10.00">_types.h</text>
</a>
</g>
</g>
<!-- Node9&#45;&gt;Node11 -->
<g id="edge11" class="edge">
<title>Node9&#45;&gt;Node11</title>
<path fill="none" stroke="midnightblue" d="M215.37,-123.48C247.04,-114.59 297.49,-100.43 337.19,-89.29"/>
<polygon fill="midnightblue" stroke="midnightblue" points="338.35,-92.6 347.04,-86.52 336.46,-85.86 338.35,-92.6"/>
</g>
<!-- Node11&#45;&gt;Node4 -->
<g id="edge12" class="edge">
<title>Node11&#45;&gt;Node4</title>
<path fill="none" stroke="midnightblue" d="M368.32,-56.4C348.48,-46.64 322.24,-33.74 302.81,-24.18"/>
<polygon fill="midnightblue" stroke="midnightblue" points="304.12,-20.93 293.61,-19.66 301.04,-27.21 304.12,-20.93"/>
</g>
<!-- Node11&#45;&gt;Node12 -->
<g id="edge13" class="edge">
<title>Node11&#45;&gt;Node12</title>
<path fill="none" stroke="midnightblue" d="M451.75,-57.79C454.88,-57.16 457.97,-56.56 461,-56 546.47,-40.24 645.87,-26.85 709.78,-18.88"/>
<polygon fill="midnightblue" stroke="midnightblue" points="710.24,-22.35 719.73,-17.64 709.37,-15.4 710.24,-22.35"/>
</g>
<!-- Node14 -->
<g id="node14" class="node">
<title>Node14</title>
<g id="a_node14"><a xlink:title=" ">
<polygon fill="white" stroke="#bfbfbf" points="655,-179.5 655,-198.5 785,-198.5 785,-179.5 655,-179.5"/>
<text text-anchor="middle" x="720" y="-186.5" font-family="Helvetica,sans-Serif" font-size="10.00">odp/api/abi/std_types.h</text>
</a>
</g>
</g>
<!-- Node13&#45;&gt;Node14 -->
<g id="edge15" class="edge">
<title>Node13&#45;&gt;Node14</title>
<path fill="none" stroke="midnightblue" d="M672.16,-235.32C680.5,-227.42 693.03,-215.55 703.18,-205.94"/>
<polygon fill="midnightblue" stroke="midnightblue" points="705.82,-208.25 710.68,-198.83 701.01,-203.17 705.82,-208.25"/>
</g>
<!-- Node15 -->
<g id="node15" class="node">
<title>Node15</title>
<g id="a_node15"><a xlink:href="api_2spec_2std__types_8h.html" target="_top" xlink:title="Common types and definitions for ODP API files.">
<polygon fill="white" stroke="black" points="461.5,-179.5 461.5,-198.5 598.5,-198.5 598.5,-179.5 461.5,-179.5"/>
<text text-anchor="middle" x="530" y="-186.5" font-family="Helvetica,sans-Serif" font-size="10.00">odp/api/spec/std_types.h</text>
</a>
</g>
</g>
<!-- Node13&#45;&gt;Node15 -->
<g id="edge16" class="edge">
<title>Node13&#45;&gt;Node15</title>
<path fill="none" stroke="midnightblue" d="M641.93,-235.44C619.94,-226.52 585.27,-212.44 560.34,-202.32"/>
<polygon fill="midnightblue" stroke="midnightblue" points="561.56,-199.04 550.98,-198.52 558.92,-205.52 561.56,-199.04"/>
</g>
<!-- Node15&#45;&gt;Node4 -->
<g id="edge17" class="edge">
<title>Node15&#45;&gt;Node4</title>
<path fill="none" stroke="midnightblue" d="M505.17,-179.46C465.61,-164.99 387.21,-132.71 333,-87 312.97,-70.11 295.86,-44.93 285.75,-28.24"/>
<polygon fill="midnightblue" stroke="midnightblue" points="288.71,-26.38 280.64,-19.52 282.67,-29.92 288.71,-26.38"/>
</g>
<!-- Node15&#45;&gt;Node12 -->
<g id="edge24" class="edge">
<title>Node15&#45;&gt;Node12</title>
<path fill="none" stroke="midnightblue" d="M562.72,-179.47C588.34,-171.99 624.31,-159.7 653,-143 703.59,-113.55 745.86,-56.76 765,-28.23"/>
<polygon fill="midnightblue" stroke="midnightblue" points="768.03,-30.01 770.59,-19.72 762.18,-26.17 768.03,-30.01"/>
</g>
<!-- Node16 -->
<g id="node16" class="node">
<title>Node16</title>
<g id="a_node16"><a xlink:title=" ">
<polygon fill="white" stroke="#bfbfbf" points="590.5,-123.5 590.5,-142.5 643.5,-142.5 643.5,-123.5 590.5,-123.5"/>
<text text-anchor="middle" x="617" y="-130.5" font-family="Helvetica,sans-Serif" font-size="10.00">stdint.h</text>
</a>
</g>
</g>
<!-- Node15&#45;&gt;Node16 -->
<g id="edge18" class="edge">
<title>Node15&#45;&gt;Node16</title>
<path fill="none" stroke="midnightblue" d="M543.98,-179.32C557.55,-170.9 578.38,-157.97 594.32,-148.07"/>
<polygon fill="midnightblue" stroke="midnightblue" points="596.41,-150.9 603.06,-142.65 592.71,-144.95 596.41,-150.9"/>
</g>
<!-- Node17 -->
<g id="node17" class="node">
<title>Node17</title>
<g id="a_node17"><a xlink:href="api_2align_8h.html" target="_top" xlink:title="ODP alignments.">
<polygon fill="white" stroke="black" points="483.5,-123.5 483.5,-142.5 572.5,-142.5 572.5,-123.5 483.5,-123.5"/>
<text text-anchor="middle" x="528" y="-130.5" font-family="Helvetica,sans-Serif" font-size="10.00">odp/api/align.h</text>
</a>
</g>
</g>
<!-- Node15&#45;&gt;Node17 -->
<g id="edge19" class="edge">
<title>Node15&#45;&gt;Node17</title>
<path fill="none" stroke="midnightblue" d="M529.67,-179.08C529.41,-172.01 529.03,-161.86 528.7,-152.99"/>
<polygon fill="midnightblue" stroke="midnightblue" points="532.19,-152.61 528.32,-142.75 525.2,-152.87 532.19,-152.61"/>
</g>
<!-- Node18 -->
<g id="node18" class="node">
<title>Node18</title>
<g id="a_node18"><a xlink:title=" ">
<polygon fill="white" stroke="#bfbfbf" points="602.5,-62 602.5,-81 709.5,-81 709.5,-62 602.5,-62"/>
<text text-anchor="middle" x="656" y="-69" font-family="Helvetica,sans-Serif" font-size="10.00">odp/api/abi/align.h</text>
</a>
</g>
</g>
<!-- Node17&#45;&gt;Node18 -->
<g id="edge20" class="edge">
<title>Node17&#45;&gt;Node18</title>
<path fill="none" stroke="midnightblue" d="M546.34,-123.48C567.82,-113.49 603.62,-96.85 628.45,-85.31"/>
<polygon fill="midnightblue" stroke="midnightblue" points="630.1,-88.4 637.69,-81.01 627.15,-82.05 630.1,-88.4"/>
</g>
<!-- Node19 -->
<g id="node19" class="node">
<title>Node19</title>
<g id="a_node19"><a xlink:href="api_2spec_2align_8h.html" target="_top" xlink:title="ODP alignments.">
<polygon fill="white" stroke="black" points="470,-62 470,-81 584,-81 584,-62 470,-62"/>
<text text-anchor="middle" x="527" y="-69" font-family="Helvetica,sans-Serif" font-size="10.00">odp/api/spec/align.h</text>
</a>
</g>
</g>
<!-- Node17&#45;&gt;Node19 -->
<g id="edge21" class="edge">
<title>Node17&#45;&gt;Node19</title>
<path fill="none" stroke="midnightblue" d="M527.86,-123.48C527.72,-115.08 527.5,-101.98 527.31,-91.16"/>
<polygon fill="midnightblue" stroke="midnightblue" points="530.81,-90.95 527.14,-81.01 523.81,-91.07 530.81,-90.95"/>
</g>
<!-- Node19&#45;&gt;Node4 -->
<g id="edge22" class="edge">
<title>Node19&#45;&gt;Node4</title>
<path fill="none" stroke="midnightblue" d="M491.04,-61.98C446.49,-51.42 370.54,-33.41 321.85,-21.87"/>
<polygon fill="midnightblue" stroke="midnightblue" points="322.43,-18.41 311.9,-19.51 320.82,-25.22 322.43,-18.41"/>
</g>
<!-- Node19&#45;&gt;Node12 -->
<g id="edge23" class="edge">
<title>Node19&#45;&gt;Node12</title>
<path fill="none" stroke="midnightblue" d="M562.68,-61.98C606.87,-51.42 682.21,-33.41 730.51,-21.87"/>
<polygon fill="midnightblue" stroke="midnightblue" points="731.48,-25.24 740.39,-19.51 729.85,-18.43 731.48,-25.24"/>
</g>
<!-- Node21 -->
<g id="node21" class="node">
<title>Node21</title>
<g id="a_node21"><a xlink:title=" ">
<polygon fill="white" stroke="#bfbfbf" points="303.5,-425.5 303.5,-455.5 420.5,-455.5 420.5,-425.5 303.5,-425.5"/>
<text text-anchor="start" x="311.5" y="-443.5" font-family="Helvetica,sans-Serif" font-size="10.00">odp/api/abi/schedule</text>
<text text-anchor="middle" x="362" y="-432.5" font-family="Helvetica,sans-Serif" font-size="10.00">_types.h</text>
</a>
</g>
</g>
<!-- Node20&#45;&gt;Node21 -->
<g id="edge27" class="edge">
<title>Node20&#45;&gt;Node21</title>
<path fill="none" stroke="midnightblue" d="M362,-492.48C362,-485.47 362,-475.19 362,-465.7"/>
<polygon fill="midnightblue" stroke="midnightblue" points="365.5,-465.52 362,-455.52 358.5,-465.52 365.5,-465.52"/>
</g>
<!-- Node22 -->
<g id="node22" class="node">
<title>Node22</title>
<g id="a_node22"><a xlink:href="api_2spec_2schedule__types_8h.html" target="_top" xlink:title="ODP schedule types.">
<polygon fill="white" stroke="black" points="451.5,-425.5 451.5,-455.5 576.5,-455.5 576.5,-425.5 451.5,-425.5"/>
<text text-anchor="start" x="459.5" y="-443.5" font-family="Helvetica,sans-Serif" font-size="10.00">odp/api/spec/schedule</text>
<text text-anchor="middle" x="514" y="-432.5" font-family="Helvetica,sans-Serif" font-size="10.00">_types.h</text>
</a>
</g>
</g>
<!-- Node20&#45;&gt;Node22 -->
<g id="edge28" class="edge">
<title>Node20&#45;&gt;Node22</title>
<path fill="none" stroke="midnightblue" d="M383.78,-492.48C405.81,-483.85 440.52,-470.26 468.57,-459.29"/>
<polygon fill="midnightblue" stroke="midnightblue" points="470.14,-462.43 478.18,-455.52 467.59,-455.91 470.14,-462.43"/>
</g>
<!-- Node22&#45;&gt;Node4 -->
<g id="edge29" class="edge">
<title>Node22&#45;&gt;Node4</title>
<path fill="none" stroke="midnightblue" d="M496.51,-425.41C450.84,-388.61 331.3,-292.34 329,-291 224.33,-230.15 76,-311.07 76,-190 76,-190 76,-190 76,-132 76,-97.18 70.36,-80.6 95,-56 110.68,-40.34 161.31,-28.57 205.05,-21"/>
<polygon fill="midnightblue" stroke="midnightblue" points="205.84,-24.41 215.13,-19.3 204.68,-17.51 205.84,-24.41"/>
</g>
<!-- Node22&#45;&gt;Node5 -->
<g id="edge30" class="edge">
<title>Node22&#45;&gt;Node5</title>
<path fill="none" stroke="midnightblue" d="M459.2,-425.48C419.77,-415.39 366.45,-401.74 324.9,-391.11"/>
<polygon fill="midnightblue" stroke="midnightblue" points="325.7,-387.7 315.14,-388.61 323.96,-394.48 325.7,-387.7"/>
</g>
<!-- Node22&#45;&gt;Node12 -->
<g id="edge38" class="edge">
<title>Node22&#45;&gt;Node12</title>
<path fill="none" stroke="midnightblue" d="M576.78,-428.28C674.53,-408.99 852,-365.93 852,-307.5 852,-307.5 852,-307.5 852,-132 852,-88.48 816.3,-47.77 793.84,-26.47"/>
<polygon fill="midnightblue" stroke="midnightblue" points="795.99,-23.7 786.25,-19.53 791.27,-28.86 795.99,-23.7"/>
</g>
<!-- Node22&#45;&gt;Node13 -->
<g id="edge31" class="edge">
<title>Node22&#45;&gt;Node13</title>
<path fill="none" stroke="midnightblue" d="M512.31,-425.33C509.69,-396.48 507.97,-330.33 541,-291 555.23,-274.06 576.44,-263.5 597.2,-256.91"/>
<polygon fill="midnightblue" stroke="midnightblue" points="598.37,-260.21 607,-254.07 596.42,-253.49 598.37,-260.21"/>
</g>
<!-- Node23 -->
<g id="node23" class="node">
<title>Node23</title>
<g id="a_node23"><a xlink:href="api_2thrmask_8h.html" target="_top" xlink:title="ODP thread masks.">
<polygon fill="white" stroke="black" points="562.5,-364 562.5,-383 667.5,-383 667.5,-364 562.5,-364"/>
<text text-anchor="middle" x="615" y="-371" font-family="Helvetica,sans-Serif" font-size="10.00">odp/api/thrmask.h</text>
</a>
</g>
</g>
<!-- Node22&#45;&gt;Node23 -->
<g id="edge32" class="edge">
<title>Node22&#45;&gt;Node23</title>
<path fill="none" stroke="midnightblue" d="M535.92,-425.4C552.85,-414.5 576.19,-399.48 593.12,-388.58"/>
<polygon fill="midnightblue" stroke="midnightblue" points="595.27,-391.36 601.78,-383.01 591.48,-385.48 595.27,-391.36"/>
</g>
<!-- Node24 -->
<g id="node24" class="node">
<title>Node24</title>
<g id="a_node24"><a xlink:title=" ">
<polygon fill="white" stroke="#bfbfbf" points="698.5,-297 698.5,-316 821.5,-316 821.5,-297 698.5,-297"/>
<text text-anchor="middle" x="760" y="-304" font-family="Helvetica,sans-Serif" font-size="10.00">odp/api/abi/thrmask.h</text>
</a>
</g>
</g>
<!-- Node23&#45;&gt;Node24 -->
<g id="edge33" class="edge">
<title>Node23&#45;&gt;Node24</title>
<path fill="none" stroke="midnightblue" d="M634.25,-363.87C659.17,-352.7 702.79,-333.15 731.53,-320.26"/>
<polygon fill="midnightblue" stroke="midnightblue" points="732.97,-323.45 740.67,-316.17 730.11,-317.06 732.97,-323.45"/>
</g>
<!-- Node25 -->
<g id="node25" class="node">
<title>Node25</title>
<g id="a_node25"><a xlink:href="api_2spec_2thrmask_8h.html" target="_top" xlink:title="ODP thread masks.">
<polygon fill="white" stroke="black" points="549.5,-297 549.5,-316 680.5,-316 680.5,-297 549.5,-297"/>
<text text-anchor="middle" x="615" y="-304" font-family="Helvetica,sans-Serif" font-size="10.00">odp/api/spec/thrmask.h</text>
</a>
</g>
</g>
<!-- Node23&#45;&gt;Node25 -->
<g id="edge34" class="edge">
<title>Node23&#45;&gt;Node25</title>
<path fill="none" stroke="midnightblue" d="M615,-363.73C615,-354.18 615,-338.62 615,-326.28"/>
<polygon fill="midnightblue" stroke="midnightblue" points="618.5,-326.13 615,-316.13 611.5,-326.13 618.5,-326.13"/>
</g>
<!-- Node25&#45;&gt;Node4 -->
<g id="edge35" class="edge">
<title>Node25&#45;&gt;Node4</title>
<path fill="none" stroke="midnightblue" d="M550.84,-296.99C452.56,-282.13 276,-247.44 276,-190 276,-190 276,-190 276,-132 276,-95.71 276,-53.31 276,-29.56"/>
<polygon fill="midnightblue" stroke="midnightblue" points="279.5,-29.51 276,-19.51 272.5,-29.51 279.5,-29.51"/>
</g>
<!-- Node25&#45;&gt;Node12 -->
<g id="edge37" class="edge">
<title>Node25&#45;&gt;Node12</title>
<path fill="none" stroke="midnightblue" d="M639.8,-296.93C693.15,-277.73 814,-229.85 814,-190 814,-190 814,-190 814,-132 814,-93.81 796.56,-51.83 785.31,-28.72"/>
<polygon fill="midnightblue" stroke="midnightblue" points="788.29,-26.86 780.66,-19.52 782.04,-30.02 788.29,-26.86"/>
</g>
<!-- Node25&#45;&gt;Node13 -->
<g id="edge36" class="edge">
<title>Node25&#45;&gt;Node13</title>
<path fill="none" stroke="midnightblue" d="M621.88,-296.98C629.15,-287.96 640.8,-273.52 649.84,-262.31"/>
<polygon fill="midnightblue" stroke="midnightblue" points="652.58,-264.49 656.14,-254.51 647.13,-260.09 652.58,-264.49"/>
</g>
</g>
</svg>
