<?xml version="1.0" encoding="UTF-8" standalone="no"?>
<!DOCTYPE svg PUBLIC "-//W3C//DTD SVG 1.1//EN"
 "http://www.w3.org/Graphics/SVG/1.1/DTD/svg11.dtd">
<!-- Generated by graphviz version 2.43.0 (0)
 -->
<!-- Title: barrier.h Pages: 1 -->
<svg width="968pt" height="313pt"
 viewBox="0.00 0.00 968.00 313.00" xmlns="http://www.w3.org/2000/svg" xmlns:xlink="http://www.w3.org/1999/xlink">
<g id="graph0" class="graph" transform="scale(1 1) rotate(0) translate(4 309)">
<title>barrier.h</title>
<!-- Node1 -->
<g id="Node000001" class="node">
<title>Node1</title>
<g id="a_Node000001"><a xlink:title="ODP execution barriers.">
<polygon fill="#999999" stroke="#666666" points="720.5,-305 663.5,-305 663.5,-286 720.5,-286 720.5,-305"/>
<text text-anchor="middle" x="692" y="-293" font-family="Helvetica,sans-Serif" font-size="10.00">barrier.h</text>
</a>
</g>
</g>
<!-- Node2 -->
<g id="Node000002" class="node">
<title>Node2</title>
<g id="a_Node000002"><a xlink:href="api_2std__types_8h.html" target="_top" xlink:title="Standard C language types and definitions for ODP.">
<polygon fill="white" stroke="#666666" points="273,-244.5 161,-244.5 161,-225.5 273,-225.5 273,-244.5"/>
<text text-anchor="middle" x="217" y="-232.5" font-family="Helvetica,sans-Serif" font-size="10.00">odp/api/std_types.h</text>
</a>
</g>
</g>
<!-- Node1&#45;&gt;Node2 -->
<g id="edge1_Node000001_Node000002" class="edge">
<title>Node1&#45;&gt;Node2</title>
<g id="a_edge1_Node000001_Node000002"><a xlink:title=" ">
<path fill="none" stroke="#63b8ff" d="M663.36,-290.97C589.01,-281.82 388.38,-257.11 283.27,-244.16"/>
<polygon fill="#63b8ff" stroke="#63b8ff" points="283.45,-240.66 273.1,-242.91 282.59,-247.6 283.45,-240.66"/>
</a>
</g>
</g>
<!-- Node11 -->
<g id="Node000011" class="node">
<title>Node11</title>
<g id="a_Node000011"><a xlink:href="api_2atomic_8h.html" target="_top" xlink:title="ODP atomic operations.">
<polygon fill="white" stroke="#666666" points="541,-129 443,-129 443,-110 541,-110 541,-129"/>
<text text-anchor="middle" x="492" y="-117" font-family="Helvetica,sans-Serif" font-size="10.00">odp/api/atomic.h</text>
</a>
</g>
</g>
<!-- Node1&#45;&gt;Node11 -->
<g id="edge12_Node000001_Node000011" class="edge">
<title>Node1&#45;&gt;Node11</title>
<g id="a_edge12_Node000001_Node000011"><a xlink:title=" ">
<path fill="none" stroke="#63b8ff" d="M682.08,-285.87C650.29,-258.21 550.64,-171.52 509.76,-135.95"/>
<polygon fill="#63b8ff" stroke="#63b8ff" points="511.82,-133.1 501.98,-129.18 507.23,-138.39 511.82,-133.1"/>
</a>
</g>
</g>
<!-- Node14 -->
<g id="Node000014" class="node">
<title>Node14</title>
<g id="a_Node000014"><a xlink:title=" ">
<polygon fill="#e0e0e0" stroke="#999999" points="827.5,-250 720.5,-250 720.5,-220 827.5,-220 827.5,-250"/>
<text text-anchor="start" x="728.5" y="-238" font-family="Helvetica,sans-Serif" font-size="10.00">odp/api/abi/shared</text>
<text text-anchor="middle" x="774" y="-227" font-family="Helvetica,sans-Serif" font-size="10.00">_memory.h</text>
</a>
</g>
</g>
<!-- Node1&#45;&gt;Node14 -->
<g id="edge17_Node000001_Node000014" class="edge">
<title>Node1&#45;&gt;Node14</title>
<g id="a_edge17_Node000001_Node000014"><a xlink:title=" ">
<path fill="none" stroke="#63b8ff" d="M704.1,-285.87C715.02,-278.08 731.51,-266.32 745.72,-256.17"/>
<polygon fill="#63b8ff" stroke="#63b8ff" points="748.11,-258.77 754.22,-250.11 744.04,-253.07 748.11,-258.77"/>
</a>
</g>
</g>
<!-- Node15 -->
<g id="Node000015" class="node">
<title>Node15</title>
<g id="a_Node000015"><a xlink:title=" ">
<polygon fill="#e0e0e0" stroke="#999999" points="960,-244.5 846,-244.5 846,-225.5 960,-225.5 960,-244.5"/>
<text text-anchor="middle" x="903" y="-232.5" font-family="Helvetica,sans-Serif" font-size="10.00">odp/api/abi/barrier.h</text>
</a>
</g>
</g>
<!-- Node1&#45;&gt;Node15 -->
<g id="edge18_Node000001_Node000015" class="edge">
<title>Node1&#45;&gt;Node15</title>
<g id="a_edge18_Node000001_Node000015"><a xlink:title=" ">
<path fill="none" stroke="#63b8ff" d="M720.9,-286.49C757.49,-276.34 820.78,-258.8 862.27,-247.29"/>
<polygon fill="#63b8ff" stroke="#63b8ff" points="863.36,-250.62 872.06,-244.58 861.48,-243.88 863.36,-250.62"/>
</a>
</g>
</g>
<!-- Node16 -->
<g id="Node000016" class="node">
<title>Node16</title>
<g id="a_Node000016"><a xlink:href="api_2spec_2barrier_8h.html" target="_top" xlink:title="ODP execution barriers.">
<polygon fill="white" stroke="#666666" points="690,-74 568,-74 568,-55 690,-55 690,-74"/>
<text text-anchor="middle" x="629" y="-62" font-family="Helvetica,sans-Serif" font-size="10.00">odp/api/spec/barrier.h</text>
</a>
</g>
</g>
<!-- Node1&#45;&gt;Node16 -->
<g id="edge19_Node000001_Node000016" class="edge">
<title>Node1&#45;&gt;Node16</title>
<g id="a_edge19_Node000001_Node000016"><a xlink:title=" ">
<path fill="none" stroke="#63b8ff" d="M689.61,-285.8C680.37,-252.22 646.9,-130.57 634.06,-83.9"/>
<polygon fill="#63b8ff" stroke="#63b8ff" points="637.42,-82.92 631.4,-74.21 630.67,-84.78 637.42,-82.92"/>
</a>
</g>
</g>
<!-- Node3 -->
<g id="Node000003" class="node">
<title>Node3</title>
<g id="a_Node000003"><a xlink:title=" ">
<polygon fill="#e0e0e0" stroke="#999999" points="130,-184 0,-184 0,-165 130,-165 130,-184"/>
<text text-anchor="middle" x="65" y="-172" font-family="Helvetica,sans-Serif" font-size="10.00">odp/api/abi/std_types.h</text>
</a>
</g>
</g>
<!-- Node2&#45;&gt;Node3 -->
<g id="edge2_Node000002_Node000003" class="edge">
<title>Node2&#45;&gt;Node3</title>
<g id="a_edge2_Node000002_Node000003"><a xlink:title=" ">
<path fill="none" stroke="#63b8ff" d="M194.9,-225.49C169.01,-215.53 125.92,-198.95 96.53,-187.63"/>
<polygon fill="#63b8ff" stroke="#63b8ff" points="97.72,-184.34 87.13,-184.02 95.2,-190.88 97.72,-184.34"/>
</a>
</g>
</g>
<!-- Node4 -->
<g id="Node000004" class="node">
<title>Node4</title>
<g id="a_Node000004"><a xlink:href="api_2spec_2std__types_8h.html" target="_top" xlink:title="Common types and definitions for ODP API files.">
<polygon fill="white" stroke="#666666" points="285.5,-184 148.5,-184 148.5,-165 285.5,-165 285.5,-184"/>
<text text-anchor="middle" x="217" y="-172" font-family="Helvetica,sans-Serif" font-size="10.00">odp/api/spec/std_types.h</text>
</a>
</g>
</g>
<!-- Node2&#45;&gt;Node4 -->
<g id="edge3_Node000002_Node000004" class="edge">
<title>Node2&#45;&gt;Node4</title>
<g id="a_edge3_Node000002_Node000004"><a xlink:title=" ">
<path fill="none" stroke="#63b8ff" d="M217,-225.37C217,-217.25 217,-204.81 217,-194.39"/>
<polygon fill="#63b8ff" stroke="#63b8ff" points="220.5,-194.17 217,-184.17 213.5,-194.17 220.5,-194.17"/>
</a>
</g>
</g>
<!-- Node5 -->
<g id="Node000005" class="node">
<title>Node5</title>
<g id="a_Node000005"><a xlink:href="visibility__begin_8h_source.html" target="_top" xlink:title=" ">
<polygon fill="white" stroke="#666666" points="482.5,-19 361.5,-19 361.5,0 482.5,0 482.5,-19"/>
<text text-anchor="middle" x="422" y="-7" font-family="Helvetica,sans-Serif" font-size="10.00">odp/visibility_begin.h</text>
</a>
</g>
</g>
<!-- Node4&#45;&gt;Node5 -->
<g id="edge4_Node000004_Node000005" class="edge">
<title>Node4&#45;&gt;Node5</title>
<g id="a_edge4_Node000004_Node000005"><a xlink:title=" ">
<path fill="none" stroke="#63b8ff" d="M285.9,-170.43C407.64,-163.33 652.41,-140.86 699,-74 703.83,-67.07 704.48,-61.43 699,-55 673.01,-24.51 566.03,-14.83 492.89,-11.8"/>
<polygon fill="#63b8ff" stroke="#63b8ff" points="492.93,-8.3 482.81,-11.42 492.66,-15.3 492.93,-8.3"/>
</a>
</g>
</g>
<!-- Node6 -->
<g id="Node000006" class="node">
<title>Node6</title>
<g id="a_Node000006"><a xlink:title=" ">
<polygon fill="#e0e0e0" stroke="#999999" points="154.5,-129 101.5,-129 101.5,-110 154.5,-110 154.5,-129"/>
<text text-anchor="middle" x="128" y="-117" font-family="Helvetica,sans-Serif" font-size="10.00">stdint.h</text>
</a>
</g>
</g>
<!-- Node4&#45;&gt;Node6 -->
<g id="edge5_Node000004_Node000006" class="edge">
<title>Node4&#45;&gt;Node6</title>
<g id="a_edge5_Node000004_Node000006"><a xlink:title=" ">
<path fill="none" stroke="#63b8ff" d="M202.7,-164.98C188.9,-156.77 167.76,-144.18 151.49,-134.49"/>
<polygon fill="#63b8ff" stroke="#63b8ff" points="152.94,-131.28 142.56,-129.17 149.36,-137.29 152.94,-131.28"/>
</a>
</g>
</g>
<!-- Node7 -->
<g id="Node000007" class="node">
<title>Node7</title>
<g id="a_Node000007"><a xlink:href="api_2align_8h.html" target="_top" xlink:title="ODP alignments.">
<polygon fill="white" stroke="#666666" points="261.5,-129 172.5,-129 172.5,-110 261.5,-110 261.5,-129"/>
<text text-anchor="middle" x="217" y="-117" font-family="Helvetica,sans-Serif" font-size="10.00">odp/api/align.h</text>
</a>
</g>
</g>
<!-- Node4&#45;&gt;Node7 -->
<g id="edge6_Node000004_Node000007" class="edge">
<title>Node4&#45;&gt;Node7</title>
<g id="a_edge6_Node000004_Node000007"><a xlink:title=" ">
<path fill="none" stroke="#63b8ff" d="M217,-164.75C217,-157.8 217,-147.85 217,-139.13"/>
<polygon fill="#63b8ff" stroke="#63b8ff" points="220.5,-139.09 217,-129.09 213.5,-139.09 220.5,-139.09"/>
</a>
</g>
</g>
<!-- Node10 -->
<g id="Node000010" class="node">
<title>Node10</title>
<g id="a_Node000010"><a xlink:href="visibility__end_8h_source.html" target="_top" xlink:title=" ">
<polygon fill="white" stroke="#666666" points="342,-19 230,-19 230,0 342,0 342,-19"/>
<text text-anchor="middle" x="286" y="-7" font-family="Helvetica,sans-Serif" font-size="10.00">odp/visibility_end.h</text>
</a>
</g>
</g>
<!-- Node4&#45;&gt;Node10 -->
<g id="edge11_Node000004_Node000010" class="edge">
<title>Node4&#45;&gt;Node10</title>
<g id="a_edge11_Node000004_Node000010"><a xlink:title=" ">
<path fill="none" stroke="#63b8ff" d="M174.34,-164.96C104.32,-149.1 -22.68,-111.5 25,-55 49.43,-26.06 150.56,-15.94 219.52,-12.4"/>
<polygon fill="#63b8ff" stroke="#63b8ff" points="220.05,-15.88 229.87,-11.9 219.71,-8.89 220.05,-15.88"/>
</a>
</g>
</g>
<!-- Node8 -->
<g id="Node000008" class="node">
<title>Node8</title>
<g id="a_Node000008"><a xlink:title=" ">
<polygon fill="#e0e0e0" stroke="#999999" points="141.5,-74 34.5,-74 34.5,-55 141.5,-55 141.5,-74"/>
<text text-anchor="middle" x="88" y="-62" font-family="Helvetica,sans-Serif" font-size="10.00">odp/api/abi/align.h</text>
</a>
</g>
</g>
<!-- Node7&#45;&gt;Node8 -->
<g id="edge7_Node000007_Node000008" class="edge">
<title>Node7&#45;&gt;Node8</title>
<g id="a_edge7_Node000007_Node000008"><a xlink:title=" ">
<path fill="none" stroke="#63b8ff" d="M196.27,-109.98C175.24,-101.34 142.45,-87.87 118.46,-78.02"/>
<polygon fill="#63b8ff" stroke="#63b8ff" points="119.68,-74.73 109.1,-74.17 117.02,-81.21 119.68,-74.73"/>
</a>
</g>
</g>
<!-- Node9 -->
<g id="Node000009" class="node">
<title>Node9</title>
<g id="a_Node000009"><a xlink:href="api_2spec_2align_8h.html" target="_top" xlink:title="ODP alignments.">
<polygon fill="white" stroke="#666666" points="274,-74 160,-74 160,-55 274,-55 274,-74"/>
<text text-anchor="middle" x="217" y="-62" font-family="Helvetica,sans-Serif" font-size="10.00">odp/api/spec/align.h</text>
</a>
</g>
</g>
<!-- Node7&#45;&gt;Node9 -->
<g id="edge8_Node000007_Node000009" class="edge">
<title>Node7&#45;&gt;Node9</title>
<g id="a_edge8_Node000007_Node000009"><a xlink:title=" ">
<path fill="none" stroke="#63b8ff" d="M217,-109.75C217,-102.8 217,-92.85 217,-84.13"/>
<polygon fill="#63b8ff" stroke="#63b8ff" points="220.5,-84.09 217,-74.09 213.5,-84.09 220.5,-84.09"/>
</a>
</g>
</g>
<!-- Node9&#45;&gt;Node5 -->
<g id="edge9_Node000009_Node000005" class="edge">
<title>Node9&#45;&gt;Node5</title>
<g id="a_edge9_Node000009_Node000005"><a xlink:title=" ">
<path fill="none" stroke="#63b8ff" d="M249.94,-54.98C284.95,-45.93 340.47,-31.58 378.93,-21.64"/>
<polygon fill="#63b8ff" stroke="#63b8ff" points="380,-24.97 388.81,-19.08 378.25,-18.2 380,-24.97"/>
</a>
</g>
</g>
<!-- Node9&#45;&gt;Node10 -->
<g id="edge10_Node000009_Node000010" class="edge">
<title>Node9&#45;&gt;Node10</title>
<g id="a_edge10_Node000009_Node000010"><a xlink:title=" ">
<path fill="none" stroke="#63b8ff" d="M228.09,-54.98C238.49,-47 254.26,-34.88 266.72,-25.31"/>
<polygon fill="#63b8ff" stroke="#63b8ff" points="268.91,-28.04 274.71,-19.17 264.65,-22.49 268.91,-28.04"/>
</a>
</g>
</g>
<!-- Node12 -->
<g id="Node000012" class="node">
<title>Node12</title>
<g id="a_Node000012"><a xlink:title=" ">
<polygon fill="#e0e0e0" stroke="#999999" points="550,-74 434,-74 434,-55 550,-55 550,-74"/>
<text text-anchor="middle" x="492" y="-62" font-family="Helvetica,sans-Serif" font-size="10.00">odp/api/abi/atomic.h</text>
</a>
</g>
</g>
<!-- Node11&#45;&gt;Node12 -->
<g id="edge13_Node000011_Node000012" class="edge">
<title>Node11&#45;&gt;Node12</title>
<g id="a_edge13_Node000011_Node000012"><a xlink:title=" ">
<path fill="none" stroke="#63b8ff" d="M492,-109.75C492,-102.8 492,-92.85 492,-84.13"/>
<polygon fill="#63b8ff" stroke="#63b8ff" points="495.5,-84.09 492,-74.09 488.5,-84.09 495.5,-84.09"/>
</a>
</g>
</g>
<!-- Node13 -->
<g id="Node000013" class="node">
<title>Node13</title>
<g id="a_Node000013"><a xlink:href="api_2spec_2atomic_8h.html" target="_top" xlink:title="ODP atomic operations.">
<polygon fill="white" stroke="#666666" points="416,-74 292,-74 292,-55 416,-55 416,-74"/>
<text text-anchor="middle" x="354" y="-62" font-family="Helvetica,sans-Serif" font-size="10.00">odp/api/spec/atomic.h</text>
</a>
</g>
</g>
<!-- Node11&#45;&gt;Node13 -->
<g id="edge14_Node000011_Node000013" class="edge">
<title>Node11&#45;&gt;Node13</title>
<g id="a_edge14_Node000011_Node000013"><a xlink:title=" ">
<path fill="none" stroke="#63b8ff" d="M469.83,-109.98C447.23,-101.3 411.94,-87.75 386.25,-77.88"/>
<polygon fill="#63b8ff" stroke="#63b8ff" points="387.17,-74.49 376.58,-74.17 384.66,-81.02 387.17,-74.49"/>
</a>
</g>
</g>
<!-- Node13&#45;&gt;Node5 -->
<g id="edge15_Node000013_Node000005" class="edge">
<title>Node13&#45;&gt;Node5</title>
<g id="a_edge15_Node000013_Node000005"><a xlink:title=" ">
<path fill="none" stroke="#63b8ff" d="M364.93,-54.98C375.08,-47.07 390.42,-35.11 402.65,-25.58"/>
<polygon fill="#63b8ff" stroke="#63b8ff" points="405.14,-28.08 410.88,-19.17 400.84,-22.56 405.14,-28.08"/>
</a>
</g>
</g>
<!-- Node13&#45;&gt;Node10 -->
<g id="edge16_Node000013_Node000010" class="edge">
<title>Node13&#45;&gt;Node10</title>
<g id="a_edge16_Node000013_Node000010"><a xlink:title=" ">
<path fill="none" stroke="#63b8ff" d="M343.07,-54.98C332.92,-47.07 317.58,-35.11 305.35,-25.58"/>
<polygon fill="#63b8ff" stroke="#63b8ff" points="307.16,-22.56 297.12,-19.17 302.86,-28.08 307.16,-22.56"/>
</a>
</g>
</g>
<!-- Node16&#45;&gt;Node5 -->
<g id="edge20_Node000016_Node000005" class="edge">
<title>Node16&#45;&gt;Node5</title>
<g id="a_edge20_Node000016_Node000005"><a xlink:title=" ">
<path fill="none" stroke="#63b8ff" d="M595.74,-54.98C560.39,-45.93 504.33,-31.58 465.49,-21.64"/>
<polygon fill="#63b8ff" stroke="#63b8ff" points="466.07,-18.17 455.52,-19.08 464.34,-24.95 466.07,-18.17"/>
</a>
</g>
</g>
<!-- Node16&#45;&gt;Node10 -->
<g id="edge21_Node000016_Node000010" class="edge">
<title>Node16&#45;&gt;Node10</title>
<g id="a_edge21_Node000016_Node000010"><a xlink:title=" ">
<path fill="none" stroke="#63b8ff" d="M573.89,-54.98C513.22,-45.61 415.76,-30.55 351.31,-20.59"/>
<polygon fill="#63b8ff" stroke="#63b8ff" points="351.67,-17.11 341.26,-19.04 350.6,-24.02 351.67,-17.11"/>
</a>
</g>
</g>
</g>
</svg>
