<?xml version="1.0" encoding="UTF-8" standalone="no"?>
<!DOCTYPE svg PUBLIC "-//W3C//DTD SVG 1.1//EN"
 "http://www.w3.org/Graphics/SVG/1.1/DTD/svg11.dtd">
<!-- Generated by graphviz version 2.43.0 (0)
 -->
<!-- Title: packet_types.h Pages: 1 -->
<svg width="994pt" height="688pt"
 viewBox="0.00 0.00 994.00 688.00" xmlns="http://www.w3.org/2000/svg" xmlns:xlink="http://www.w3.org/1999/xlink">
<g id="graph0" class="graph" transform="scale(1 1) rotate(0) translate(4 684)">
<title>packet_types.h</title>
<polygon fill="white" stroke="transparent" points="-4,4 -4,-684 990,-684 990,4 -4,4"/>
<!-- Node1 -->
<g id="node1" class="node">
<title>Node1</title>
<g id="a_node1"><a xlink:title="ODP packet types.">
<polygon fill="#bfbfbf" stroke="black" points="535,-660.5 535,-679.5 625,-679.5 625,-660.5 535,-660.5"/>
<text text-anchor="middle" x="580" y="-667.5" font-family="Helvetica,sans-Serif" font-size="10.00">packet_types.h</text>
</a>
</g>
</g>
<!-- Node2 -->
<g id="node2" class="node">
<title>Node2</title>
<g id="a_node2"><a xlink:href="visibility__begin_8h_source.html" target="_top" xlink:title=" ">
<polygon fill="white" stroke="black" points="697.5,-0.5 697.5,-19.5 818.5,-19.5 818.5,-0.5 697.5,-0.5"/>
<text text-anchor="middle" x="758" y="-7.5" font-family="Helvetica,sans-Serif" font-size="10.00">odp/visibility_begin.h</text>
</a>
</g>
</g>
<!-- Node1&#45;&gt;Node2 -->
<g id="edge1" class="edge">
<title>Node1&#45;&gt;Node2</title>
<path fill="none" stroke="midnightblue" d="M625.27,-667.19C707.13,-663.27 876,-651.96 927,-624 962.83,-604.36 986,-594.36 986,-553.5 986,-553.5 986,-553.5 986,-121 986,-50.14 895.57,-24.91 828.61,-15.93"/>
<polygon fill="midnightblue" stroke="midnightblue" points="828.86,-12.44 818.5,-14.67 827.99,-19.38 828.86,-12.44"/>
</g>
<!-- Node3 -->
<g id="node3" class="node">
<title>Node3</title>
<g id="a_node3"><a xlink:href="deprecated_8h.html" target="_top" xlink:title="Control deprecated API definitions.">
<polygon fill="white" stroke="black" points="798.5,-604.5 798.5,-623.5 917.5,-623.5 917.5,-604.5 798.5,-604.5"/>
<text text-anchor="middle" x="858" y="-611.5" font-family="Helvetica,sans-Serif" font-size="10.00">odp/api/deprecated.h</text>
</a>
</g>
</g>
<!-- Node1&#45;&gt;Node3 -->
<g id="edge2" class="edge">
<title>Node1&#45;&gt;Node3</title>
<path fill="none" stroke="midnightblue" d="M624.05,-660.44C672.85,-650.96 751.56,-635.67 804.03,-625.48"/>
<polygon fill="midnightblue" stroke="midnightblue" points="805.01,-628.86 814.16,-623.52 803.67,-621.99 805.01,-628.86"/>
</g>
<!-- Node5 -->
<g id="node5" class="node">
<title>Node5</title>
<g id="a_node5"><a xlink:href="visibility__end_8h_source.html" target="_top" xlink:title=" ">
<polygon fill="white" stroke="black" points="223,-0.5 223,-19.5 335,-19.5 335,-0.5 223,-0.5"/>
<text text-anchor="middle" x="279" y="-7.5" font-family="Helvetica,sans-Serif" font-size="10.00">odp/visibility_end.h</text>
</a>
</g>
</g>
<!-- Node1&#45;&gt;Node5 -->
<g id="edge39" class="edge">
<title>Node1&#45;&gt;Node5</title>
<path fill="none" stroke="midnightblue" d="M534.97,-669.58C398.7,-670.14 0,-662.46 0,-553.5 0,-553.5 0,-553.5 0,-121 0,-73.82 139.85,-38.31 221.53,-21.59"/>
<polygon fill="midnightblue" stroke="midnightblue" points="222.56,-24.95 231.67,-19.55 221.18,-18.09 222.56,-24.95"/>
</g>
<!-- Node6 -->
<g id="node6" class="node">
<title>Node6</title>
<g id="a_node6"><a xlink:href="api_2proto__stats__types_8h.html" target="_top" xlink:title="ODP proto stats types.">
<polygon fill="white" stroke="black" points="46,-347.5 46,-377.5 156,-377.5 156,-347.5 46,-347.5"/>
<text text-anchor="start" x="54" y="-365.5" font-family="Helvetica,sans-Serif" font-size="10.00">odp/api/proto_stats</text>
<text text-anchor="middle" x="101" y="-354.5" font-family="Helvetica,sans-Serif" font-size="10.00">_types.h</text>
</a>
</g>
</g>
<!-- Node1&#45;&gt;Node6 -->
<g id="edge6" class="edge">
<title>Node1&#45;&gt;Node6</title>
<path fill="none" stroke="midnightblue" d="M534.61,-667.13C419.27,-661.15 124,-637.62 124,-553.5 124,-553.5 124,-553.5 124,-490 124,-453.87 114.8,-412.85 108.04,-387.57"/>
<polygon fill="midnightblue" stroke="midnightblue" points="111.37,-386.47 105.33,-377.76 104.62,-388.34 111.37,-386.47"/>
</g>
<!-- Node16 -->
<g id="node16" class="node">
<title>Node16</title>
<g id="a_node16"><a xlink:href="api_2queue__types_8h.html" target="_top" xlink:title="ODP queue.">
<polygon fill="white" stroke="black" points="516.5,-604.5 516.5,-623.5 643.5,-623.5 643.5,-604.5 516.5,-604.5"/>
<text text-anchor="middle" x="580" y="-611.5" font-family="Helvetica,sans-Serif" font-size="10.00">odp/api/queue_types.h</text>
</a>
</g>
</g>
<!-- Node1&#45;&gt;Node16 -->
<g id="edge22" class="edge">
<title>Node1&#45;&gt;Node16</title>
<path fill="none" stroke="midnightblue" d="M580,-660.08C580,-653.01 580,-642.86 580,-633.99"/>
<polygon fill="midnightblue" stroke="midnightblue" points="583.5,-633.75 580,-623.75 576.5,-633.75 583.5,-633.75"/>
</g>
<!-- Node4 -->
<g id="node4" class="node">
<title>Node4</title>
<g id="a_node4"><a xlink:href="spec_2deprecated_8h.html" target="_top" xlink:title="Macro for deprecated API definitions.">
<polygon fill="white" stroke="black" points="736.5,-56.5 736.5,-75.5 881.5,-75.5 881.5,-56.5 736.5,-56.5"/>
<text text-anchor="middle" x="809" y="-63.5" font-family="Helvetica,sans-Serif" font-size="10.00">odp/api/spec/deprecated.h</text>
</a>
</g>
</g>
<!-- Node3&#45;&gt;Node4 -->
<g id="edge3" class="edge">
<title>Node3&#45;&gt;Node4</title>
<path fill="none" stroke="midnightblue" d="M870.89,-604.36C895.78,-586.54 948,-543.05 948,-492 948,-492 948,-492 948,-233 948,-162.21 872.77,-105.74 833,-80.83"/>
<polygon fill="midnightblue" stroke="midnightblue" points="834.77,-77.8 824.41,-75.59 831.12,-83.78 834.77,-77.8"/>
</g>
<!-- Node4&#45;&gt;Node2 -->
<g id="edge4" class="edge">
<title>Node4&#45;&gt;Node2</title>
<path fill="none" stroke="midnightblue" d="M800.58,-56.08C793.15,-48.22 782.15,-36.57 773.19,-27.08"/>
<polygon fill="midnightblue" stroke="midnightblue" points="775.68,-24.62 766.26,-19.75 770.59,-29.42 775.68,-24.62"/>
</g>
<!-- Node4&#45;&gt;Node5 -->
<g id="edge5" class="edge">
<title>Node4&#45;&gt;Node5</title>
<path fill="none" stroke="midnightblue" d="M736.42,-57.6C633.09,-47.08 445.07,-27.92 345.3,-17.76"/>
<polygon fill="midnightblue" stroke="midnightblue" points="345.64,-14.27 335.34,-16.74 344.93,-21.24 345.64,-14.27"/>
</g>
<!-- Node7 -->
<g id="node7" class="node">
<title>Node7</title>
<g id="a_node7"><a xlink:title=" ">
<polygon fill="white" stroke="#bfbfbf" points="28,-280.5 28,-310.5 156,-310.5 156,-280.5 28,-280.5"/>
<text text-anchor="start" x="36" y="-298.5" font-family="Helvetica,sans-Serif" font-size="10.00">odp/api/abi/proto_stats</text>
<text text-anchor="middle" x="92" y="-287.5" font-family="Helvetica,sans-Serif" font-size="10.00">_types.h</text>
</a>
</g>
</g>
<!-- Node6&#45;&gt;Node7 -->
<g id="edge7" class="edge">
<title>Node6&#45;&gt;Node7</title>
<path fill="none" stroke="midnightblue" d="M99.05,-347.4C97.96,-339.56 96.58,-329.6 95.33,-320.57"/>
<polygon fill="midnightblue" stroke="midnightblue" points="98.79,-320 93.95,-310.58 91.85,-320.96 98.79,-320"/>
</g>
<!-- Node8 -->
<g id="node8" class="node">
<title>Node8</title>
<g id="a_node8"><a xlink:href="api_2spec_2proto__stats__types_8h.html" target="_top" xlink:title="ODP proto stats types.">
<polygon fill="white" stroke="black" points="250.5,-280.5 250.5,-310.5 357.5,-310.5 357.5,-280.5 250.5,-280.5"/>
<text text-anchor="start" x="258.5" y="-298.5" font-family="Helvetica,sans-Serif" font-size="10.00">odp/api/spec/proto</text>
<text text-anchor="middle" x="304" y="-287.5" font-family="Helvetica,sans-Serif" font-size="10.00">_stats_types.h</text>
</a>
</g>
</g>
<!-- Node6&#45;&gt;Node8 -->
<g id="edge8" class="edge">
<title>Node6&#45;&gt;Node8</title>
<path fill="none" stroke="midnightblue" d="M145.05,-347.4C175.91,-337.52 217.33,-324.25 250.15,-313.74"/>
<polygon fill="midnightblue" stroke="midnightblue" points="251.58,-316.96 260.04,-310.58 249.45,-310.29 251.58,-316.96"/>
</g>
<!-- Node8&#45;&gt;Node2 -->
<g id="edge9" class="edge">
<title>Node8&#45;&gt;Node2</title>
<path fill="none" stroke="midnightblue" d="M332.1,-280.4C370.63,-260.8 441.71,-223.7 500,-188 591.68,-131.85 695.81,-56.72 738.34,-25.53"/>
<polygon fill="midnightblue" stroke="midnightblue" points="740.48,-28.3 746.46,-19.56 736.33,-22.66 740.48,-28.3"/>
</g>
<!-- Node8&#45;&gt;Node5 -->
<g id="edge21" class="edge">
<title>Node8&#45;&gt;Node5</title>
<path fill="none" stroke="midnightblue" d="M294.67,-280.22C281.75,-259.03 260,-217.62 260,-179 260,-179 260,-179 260,-121 260,-88.49 268.16,-51.35 273.78,-29.61"/>
<polygon fill="midnightblue" stroke="midnightblue" points="277.22,-30.32 276.44,-19.75 270.46,-28.5 277.22,-30.32"/>
</g>
<!-- Node9 -->
<g id="node9" class="node">
<title>Node9</title>
<g id="a_node9"><a xlink:href="api_2std__types_8h.html" target="_top" xlink:title="Standard C language types and definitions for ODP.">
<polygon fill="white" stroke="black" points="526,-224.5 526,-243.5 638,-243.5 638,-224.5 526,-224.5"/>
<text text-anchor="middle" x="582" y="-231.5" font-family="Helvetica,sans-Serif" font-size="10.00">odp/api/std_types.h</text>
</a>
</g>
</g>
<!-- Node8&#45;&gt;Node9 -->
<g id="edge10" class="edge">
<title>Node8&#45;&gt;Node9</title>
<path fill="none" stroke="midnightblue" d="M357.75,-281.84C360.54,-281.21 363.3,-280.6 366,-280 421.69,-267.69 485.67,-254.47 529.46,-245.57"/>
<polygon fill="midnightblue" stroke="midnightblue" points="530.21,-248.99 539.31,-243.57 528.81,-242.13 530.21,-248.99"/>
</g>
<!-- Node10 -->
<g id="node10" class="node">
<title>Node10</title>
<g id="a_node10"><a xlink:title=" ">
<polygon fill="white" stroke="#bfbfbf" points="548,-168.5 548,-187.5 678,-187.5 678,-168.5 548,-168.5"/>
<text text-anchor="middle" x="613" y="-175.5" font-family="Helvetica,sans-Serif" font-size="10.00">odp/api/abi/std_types.h</text>
</a>
</g>
</g>
<!-- Node9&#45;&gt;Node10 -->
<g id="edge11" class="edge">
<title>Node9&#45;&gt;Node10</title>
<path fill="none" stroke="midnightblue" d="M587.12,-224.08C591.41,-216.61 597.66,-205.72 602.94,-196.52"/>
<polygon fill="midnightblue" stroke="midnightblue" points="606.03,-198.17 607.98,-187.75 599.96,-194.68 606.03,-198.17"/>
</g>
<!-- Node11 -->
<g id="node11" class="node">
<title>Node11</title>
<g id="a_node11"><a xlink:href="api_2spec_2std__types_8h.html" target="_top" xlink:title="Common types and definitions for ODP API files.">
<polygon fill="white" stroke="black" points="354.5,-168.5 354.5,-187.5 491.5,-187.5 491.5,-168.5 354.5,-168.5"/>
<text text-anchor="middle" x="423" y="-175.5" font-family="Helvetica,sans-Serif" font-size="10.00">odp/api/spec/std_types.h</text>
</a>
</g>
</g>
<!-- Node9&#45;&gt;Node11 -->
<g id="edge12" class="edge">
<title>Node9&#45;&gt;Node11</title>
<path fill="none" stroke="midnightblue" d="M556.81,-224.44C530.06,-215.36 487.6,-200.94 457.69,-190.78"/>
<polygon fill="midnightblue" stroke="midnightblue" points="458.67,-187.42 448.08,-187.52 456.42,-194.05 458.67,-187.42"/>
</g>
<!-- Node11&#45;&gt;Node2 -->
<g id="edge13" class="edge">
<title>Node11&#45;&gt;Node2</title>
<path fill="none" stroke="midnightblue" d="M452.71,-168.47C478.19,-160.6 515.51,-147.78 546,-132 598.77,-104.68 604.14,-85.01 656,-56 678.5,-43.41 705.2,-31.74 725.64,-23.44"/>
<polygon fill="midnightblue" stroke="midnightblue" points="727.14,-26.61 735.12,-19.65 724.54,-20.11 727.14,-26.61"/>
</g>
<!-- Node11&#45;&gt;Node5 -->
<g id="edge20" class="edge">
<title>Node11&#45;&gt;Node5</title>
<path fill="none" stroke="midnightblue" d="M410.89,-168.48C399.23,-159.96 381.42,-146.13 368,-132 366.9,-130.84 315.52,-60.81 291.34,-27.83"/>
<polygon fill="midnightblue" stroke="midnightblue" points="294.04,-25.6 285.3,-19.6 288.39,-29.73 294.04,-25.6"/>
</g>
<!-- Node12 -->
<g id="node12" class="node">
<title>Node12</title>
<g id="a_node12"><a xlink:title=" ">
<polygon fill="white" stroke="#bfbfbf" points="484.5,-112.5 484.5,-131.5 537.5,-131.5 537.5,-112.5 484.5,-112.5"/>
<text text-anchor="middle" x="511" y="-119.5" font-family="Helvetica,sans-Serif" font-size="10.00">stdint.h</text>
</a>
</g>
</g>
<!-- Node11&#45;&gt;Node12 -->
<g id="edge14" class="edge">
<title>Node11&#45;&gt;Node12</title>
<path fill="none" stroke="midnightblue" d="M437.14,-168.32C450.87,-159.9 471.94,-146.97 488.06,-137.07"/>
<polygon fill="midnightblue" stroke="midnightblue" points="490.2,-139.87 496.9,-131.65 486.54,-133.9 490.2,-139.87"/>
</g>
<!-- Node13 -->
<g id="node13" class="node">
<title>Node13</title>
<g id="a_node13"><a xlink:href="api_2align_8h.html" target="_top" xlink:title="ODP alignments.">
<polygon fill="white" stroke="black" points="377.5,-112.5 377.5,-131.5 466.5,-131.5 466.5,-112.5 377.5,-112.5"/>
<text text-anchor="middle" x="422" y="-119.5" font-family="Helvetica,sans-Serif" font-size="10.00">odp/api/align.h</text>
</a>
</g>
</g>
<!-- Node11&#45;&gt;Node13 -->
<g id="edge15" class="edge">
<title>Node11&#45;&gt;Node13</title>
<path fill="none" stroke="midnightblue" d="M422.83,-168.08C422.7,-161.01 422.52,-150.86 422.35,-141.99"/>
<polygon fill="midnightblue" stroke="midnightblue" points="425.85,-141.68 422.16,-131.75 418.85,-141.81 425.85,-141.68"/>
</g>
<!-- Node14 -->
<g id="node14" class="node">
<title>Node14</title>
<g id="a_node14"><a xlink:title=" ">
<polygon fill="white" stroke="#bfbfbf" points="496.5,-56.5 496.5,-75.5 603.5,-75.5 603.5,-56.5 496.5,-56.5"/>
<text text-anchor="middle" x="550" y="-63.5" font-family="Helvetica,sans-Serif" font-size="10.00">odp/api/abi/align.h</text>
</a>
</g>
</g>
<!-- Node13&#45;&gt;Node14 -->
<g id="edge16" class="edge">
<title>Node13&#45;&gt;Node14</title>
<path fill="none" stroke="midnightblue" d="M442.28,-112.44C463.35,-103.56 496.52,-89.56 520.49,-79.45"/>
<polygon fill="midnightblue" stroke="midnightblue" points="521.96,-82.63 529.81,-75.52 519.24,-76.18 521.96,-82.63"/>
</g>
<!-- Node15 -->
<g id="node15" class="node">
<title>Node15</title>
<g id="a_node15"><a xlink:href="api_2spec_2align_8h.html" target="_top" xlink:title="ODP alignments.">
<polygon fill="white" stroke="black" points="364,-56.5 364,-75.5 478,-75.5 478,-56.5 364,-56.5"/>
<text text-anchor="middle" x="421" y="-63.5" font-family="Helvetica,sans-Serif" font-size="10.00">odp/api/spec/align.h</text>
</a>
</g>
</g>
<!-- Node13&#45;&gt;Node15 -->
<g id="edge17" class="edge">
<title>Node13&#45;&gt;Node15</title>
<path fill="none" stroke="midnightblue" d="M421.83,-112.08C421.7,-105.01 421.52,-94.86 421.35,-85.99"/>
<polygon fill="midnightblue" stroke="midnightblue" points="424.85,-85.68 421.16,-75.75 417.85,-85.81 424.85,-85.68"/>
</g>
<!-- Node15&#45;&gt;Node2 -->
<g id="edge18" class="edge">
<title>Node15&#45;&gt;Node2</title>
<path fill="none" stroke="midnightblue" d="M474.4,-56.44C534.3,-46.85 631.37,-31.29 694.95,-21.1"/>
<polygon fill="midnightblue" stroke="midnightblue" points="695.53,-24.55 704.85,-19.52 694.42,-17.64 695.53,-24.55"/>
</g>
<!-- Node15&#45;&gt;Node5 -->
<g id="edge19" class="edge">
<title>Node15&#45;&gt;Node5</title>
<path fill="none" stroke="midnightblue" d="M398.5,-56.44C374.92,-47.48 337.68,-33.31 311.04,-23.18"/>
<polygon fill="midnightblue" stroke="midnightblue" points="311.99,-19.8 301.4,-19.52 309.5,-26.34 311.99,-19.8"/>
</g>
<!-- Node17 -->
<g id="node17" class="node">
<title>Node17</title>
<g id="a_node17"><a xlink:title=" ">
<polygon fill="white" stroke="#bfbfbf" points="633.5,-543 633.5,-562 778.5,-562 778.5,-543 633.5,-543"/>
<text text-anchor="middle" x="706" y="-550" font-family="Helvetica,sans-Serif" font-size="10.00">odp/api/abi/queue_types.h</text>
</a>
</g>
</g>
<!-- Node16&#45;&gt;Node17 -->
<g id="edge23" class="edge">
<title>Node16&#45;&gt;Node17</title>
<path fill="none" stroke="midnightblue" d="M598.05,-604.48C619.2,-594.49 654.44,-577.85 678.88,-566.31"/>
<polygon fill="midnightblue" stroke="midnightblue" points="680.43,-569.44 687.98,-562.01 677.44,-563.11 680.43,-569.44"/>
</g>
<!-- Node18 -->
<g id="node18" class="node">
<title>Node18</title>
<g id="a_node18"><a xlink:href="api_2spec_2queue__types_8h.html" target="_top" xlink:title="ODP queue types.">
<polygon fill="white" stroke="black" points="504.5,-537.5 504.5,-567.5 615.5,-567.5 615.5,-537.5 504.5,-537.5"/>
<text text-anchor="start" x="512.5" y="-555.5" font-family="Helvetica,sans-Serif" font-size="10.00">odp/api/spec/queue</text>
<text text-anchor="middle" x="560" y="-544.5" font-family="Helvetica,sans-Serif" font-size="10.00">_types.h</text>
</a>
</g>
</g>
<!-- Node16&#45;&gt;Node18 -->
<g id="edge24" class="edge">
<title>Node16&#45;&gt;Node18</title>
<path fill="none" stroke="midnightblue" d="M577.13,-604.48C574.73,-597.32 571.18,-586.75 567.93,-577.08"/>
<polygon fill="midnightblue" stroke="midnightblue" points="571.22,-575.89 564.71,-567.52 564.58,-578.12 571.22,-575.89"/>
</g>
<!-- Node18&#45;&gt;Node2 -->
<g id="edge25" class="edge">
<title>Node18&#45;&gt;Node2</title>
<path fill="none" stroke="midnightblue" d="M615.85,-538.09C714.66,-513.58 910,-461.24 910,-430.5 910,-430.5 910,-430.5 910,-233 910,-154.33 956.19,-118.94 909,-56 890.28,-31.03 858.24,-19.38 828.49,-14.13"/>
<polygon fill="midnightblue" stroke="midnightblue" points="828.93,-10.66 818.51,-12.59 827.86,-17.58 828.93,-10.66"/>
</g>
<!-- Node18&#45;&gt;Node5 -->
<g id="edge38" class="edge">
<title>Node18&#45;&gt;Node5</title>
<path fill="none" stroke="midnightblue" d="M504.12,-545.3C399.37,-532.12 184,-496.93 184,-430.5 184,-430.5 184,-430.5 184,-121 184,-77.74 226.61,-43.09 254.75,-24.91"/>
<polygon fill="midnightblue" stroke="midnightblue" points="256.66,-27.85 263.31,-19.6 252.97,-21.9 256.66,-27.85"/>
</g>
<!-- Node19 -->
<g id="node19" class="node">
<title>Node19</title>
<g id="a_node19"><a xlink:href="api_2schedule__types_8h.html" target="_top" xlink:title="ODP schedule.">
<polygon fill="white" stroke="black" points="490,-481.5 490,-500.5 630,-500.5 630,-481.5 490,-481.5"/>
<text text-anchor="middle" x="560" y="-488.5" font-family="Helvetica,sans-Serif" font-size="10.00">odp/api/schedule_types.h</text>
</a>
</g>
</g>
<!-- Node18&#45;&gt;Node19 -->
<g id="edge26" class="edge">
<title>Node18&#45;&gt;Node19</title>
<path fill="none" stroke="midnightblue" d="M560,-537.4C560,-529.47 560,-519.46 560,-510.86"/>
<polygon fill="midnightblue" stroke="midnightblue" points="563.5,-510.66 560,-500.66 556.5,-510.66 563.5,-510.66"/>
</g>
<!-- Node20 -->
<g id="node20" class="node">
<title>Node20</title>
<g id="a_node20"><a xlink:title=" ">
<polygon fill="white" stroke="#bfbfbf" points="431.5,-414.5 431.5,-444.5 548.5,-444.5 548.5,-414.5 431.5,-414.5"/>
<text text-anchor="start" x="439.5" y="-432.5" font-family="Helvetica,sans-Serif" font-size="10.00">odp/api/abi/schedule</text>
<text text-anchor="middle" x="490" y="-421.5" font-family="Helvetica,sans-Serif" font-size="10.00">_types.h</text>
</a>
</g>
</g>
<!-- Node19&#45;&gt;Node20 -->
<g id="edge27" class="edge">
<title>Node19&#45;&gt;Node20</title>
<path fill="none" stroke="midnightblue" d="M549.97,-481.48C540.67,-473.57 526.45,-461.48 514.2,-451.07"/>
<polygon fill="midnightblue" stroke="midnightblue" points="516.38,-448.33 506.5,-444.52 511.85,-453.67 516.38,-448.33"/>
</g>
<!-- Node21 -->
<g id="node21" class="node">
<title>Node21</title>
<g id="a_node21"><a xlink:href="api_2spec_2schedule__types_8h.html" target="_top" xlink:title="ODP schedule types.">
<polygon fill="white" stroke="black" points="566.5,-414.5 566.5,-444.5 691.5,-444.5 691.5,-414.5 566.5,-414.5"/>
<text text-anchor="start" x="574.5" y="-432.5" font-family="Helvetica,sans-Serif" font-size="10.00">odp/api/spec/schedule</text>
<text text-anchor="middle" x="629" y="-421.5" font-family="Helvetica,sans-Serif" font-size="10.00">_types.h</text>
</a>
</g>
</g>
<!-- Node19&#45;&gt;Node21 -->
<g id="edge28" class="edge">
<title>Node19&#45;&gt;Node21</title>
<path fill="none" stroke="midnightblue" d="M569.89,-481.48C579.06,-473.57 593.07,-461.48 605.15,-451.07"/>
<polygon fill="midnightblue" stroke="midnightblue" points="607.45,-453.7 612.74,-444.52 602.88,-448.4 607.45,-453.7"/>
</g>
<!-- Node21&#45;&gt;Node2 -->
<g id="edge29" class="edge">
<title>Node21&#45;&gt;Node2</title>
<path fill="none" stroke="midnightblue" d="M691.58,-421.66C763.58,-409.91 872,-378.6 872,-296.5 872,-296.5 872,-296.5 872,-177 872,-122.63 921.64,-100.21 890,-56 875.7,-36.02 851.99,-24.8 828.58,-18.55"/>
<polygon fill="midnightblue" stroke="midnightblue" points="829.13,-15.08 818.59,-16.16 827.5,-21.89 829.13,-15.08"/>
</g>
<!-- Node21&#45;&gt;Node5 -->
<g id="edge37" class="edge">
<title>Node21&#45;&gt;Node5</title>
<path fill="none" stroke="midnightblue" d="M566.3,-414.76C452.13,-388.87 222,-332.25 222,-296.5 222,-296.5 222,-296.5 222,-121 222,-84.3 247.32,-47.66 264.21,-27.3"/>
<polygon fill="midnightblue" stroke="midnightblue" points="266.95,-29.48 270.83,-19.62 261.65,-24.9 266.95,-29.48"/>
</g>
<!-- Node21&#45;&gt;Node9 -->
<g id="edge30" class="edge">
<title>Node21&#45;&gt;Node9</title>
<path fill="none" stroke="midnightblue" d="M637.37,-414.39C652.56,-386.74 680.92,-324.31 656,-280 647.78,-265.38 632.67,-254.95 618.24,-247.85"/>
<polygon fill="midnightblue" stroke="midnightblue" points="619.48,-244.57 608.93,-243.64 616.6,-250.95 619.48,-244.57"/>
</g>
<!-- Node22 -->
<g id="node22" class="node">
<title>Node22</title>
<g id="a_node22"><a xlink:href="api_2thrmask_8h.html" target="_top" xlink:title="ODP thread masks.">
<polygon fill="white" stroke="black" points="529.5,-353 529.5,-372 634.5,-372 634.5,-353 529.5,-353"/>
<text text-anchor="middle" x="582" y="-360" font-family="Helvetica,sans-Serif" font-size="10.00">odp/api/thrmask.h</text>
</a>
</g>
</g>
<!-- Node21&#45;&gt;Node22 -->
<g id="edge31" class="edge">
<title>Node21&#45;&gt;Node22</title>
<path fill="none" stroke="midnightblue" d="M618.8,-414.4C611.62,-404.46 601.96,-391.11 594.34,-380.57"/>
<polygon fill="midnightblue" stroke="midnightblue" points="596.98,-378.25 588.29,-372.19 591.31,-382.35 596.98,-378.25"/>
</g>
<!-- Node23 -->
<g id="node23" class="node">
<title>Node23</title>
<g id="a_node23"><a xlink:title=" ">
<polygon fill="white" stroke="#bfbfbf" points="375.5,-286 375.5,-305 498.5,-305 498.5,-286 375.5,-286"/>
<text text-anchor="middle" x="437" y="-293" font-family="Helvetica,sans-Serif" font-size="10.00">odp/api/abi/thrmask.h</text>
</a>
</g>
</g>
<!-- Node22&#45;&gt;Node23 -->
<g id="edge32" class="edge">
<title>Node22&#45;&gt;Node23</title>
<path fill="none" stroke="midnightblue" d="M562.75,-352.87C537.83,-341.7 494.21,-322.15 465.47,-309.26"/>
<polygon fill="midnightblue" stroke="midnightblue" points="466.89,-306.06 456.33,-305.17 464.03,-312.45 466.89,-306.06"/>
</g>
<!-- Node24 -->
<g id="node24" class="node">
<title>Node24</title>
<g id="a_node24"><a xlink:href="api_2spec_2thrmask_8h.html" target="_top" xlink:title="ODP thread masks.">
<polygon fill="white" stroke="black" points="516.5,-286 516.5,-305 647.5,-305 647.5,-286 516.5,-286"/>
<text text-anchor="middle" x="582" y="-293" font-family="Helvetica,sans-Serif" font-size="10.00">odp/api/spec/thrmask.h</text>
</a>
</g>
</g>
<!-- Node22&#45;&gt;Node24 -->
<g id="edge33" class="edge">
<title>Node22&#45;&gt;Node24</title>
<path fill="none" stroke="midnightblue" d="M582,-352.73C582,-343.18 582,-327.62 582,-315.28"/>
<polygon fill="midnightblue" stroke="midnightblue" points="585.5,-315.13 582,-305.13 578.5,-315.13 585.5,-315.13"/>
</g>
<!-- Node24&#45;&gt;Node2 -->
<g id="edge34" class="edge">
<title>Node24&#45;&gt;Node2</title>
<path fill="none" stroke="midnightblue" d="M604.53,-285.94C640.77,-270.54 708,-234.49 708,-179 708,-179 708,-179 708,-121 708,-90.9 714.08,-83.18 727,-56 731.73,-46.06 738.54,-35.88 744.57,-27.73"/>
<polygon fill="midnightblue" stroke="midnightblue" points="747.36,-29.85 750.68,-19.78 741.81,-25.58 747.36,-29.85"/>
</g>
<!-- Node24&#45;&gt;Node5 -->
<g id="edge36" class="edge">
<title>Node24&#45;&gt;Node5</title>
<path fill="none" stroke="midnightblue" d="M539.33,-285.92C486.79,-273.24 398.04,-244.63 345,-188 301.9,-141.98 286.31,-65.25 281.22,-29.89"/>
<polygon fill="midnightblue" stroke="midnightblue" points="284.64,-29.05 279.87,-19.59 277.7,-29.96 284.64,-29.05"/>
</g>
<!-- Node24&#45;&gt;Node9 -->
<g id="edge35" class="edge">
<title>Node24&#45;&gt;Node9</title>
<path fill="none" stroke="midnightblue" d="M582,-285.98C582,-277.58 582,-264.48 582,-253.66"/>
<polygon fill="midnightblue" stroke="midnightblue" points="585.5,-253.51 582,-243.51 578.5,-253.51 585.5,-253.51"/>
</g>
</g>
</svg>
