<?xml version="1.0" encoding="UTF-8" standalone="no"?>
<!DOCTYPE svg PUBLIC "-//W3C//DTD SVG 1.1//EN"
 "http://www.w3.org/Graphics/SVG/1.1/DTD/svg11.dtd">
<!-- Generated by graphviz version 2.40.1 (20161225.0304)
 -->
<!-- Title: schedule.h Pages: 1 -->
<svg width="599pt" height="252pt"
 viewBox="0.00 0.00 599.00 252.00" xmlns="http://www.w3.org/2000/svg" xmlns:xlink="http://www.w3.org/1999/xlink">
<g id="graph0" class="graph" transform="scale(1 1) rotate(0) translate(4 248)">
<title>schedule.h</title>
<polygon fill="#ffffff" stroke="transparent" points="-4,4 -4,-248 595,-248 595,4 -4,4"/>
<!-- Node10 -->
<g id="node1" class="node">
<title>Node10</title>
<polygon fill="#bfbfbf" stroke="#000000" points="261,-224.5 261,-243.5 330,-243.5 330,-224.5 261,-224.5"/>
<text text-anchor="middle" x="295.5" y="-231.5" font-family="Helvetica,sans-Serif" font-size="10.00" fill="#000000">schedule.h</text>
</g>
<!-- Node11 -->
<g id="node2" class="node">
<title>Node11</title>
<g id="a_node2"><a xlink:href="arch_2arm32-linux_2odp_2api_2abi_2schedule_8h_source.html" target="_top" xlink:title="schedule.h">
<polygon fill="#ffffff" stroke="#000000" points="0,-168.5 0,-187.5 69,-187.5 69,-168.5 0,-168.5"/>
<text text-anchor="middle" x="34.5" y="-175.5" font-family="Helvetica,sans-Serif" font-size="10.00" fill="#000000">schedule.h</text>
</a>
</g>
</g>
<!-- Node10&#45;&gt;Node11 -->
<g id="edge1" class="edge">
<title>Node10&#45;&gt;Node11</title>
<path fill="none" stroke="#191970" d="M250.831,-224.7296C206.9299,-215.5717 138.0468,-201.0774 78.5,-188 75.4395,-187.3279 72.2611,-186.6216 69.0765,-185.9084"/>
<polygon fill="#191970" stroke="#191970" points="250.3864,-228.212 260.8901,-226.8257 251.8144,-221.3592 250.3864,-228.212"/>
</g>
<!-- Node12 -->
<g id="node3" class="node">
<title>Node12</title>
<g id="a_node3"><a xlink:href="arch_2arm64-linux_2odp_2api_2abi_2schedule_8h_source.html" target="_top" xlink:title="schedule.h">
<polygon fill="#ffffff" stroke="#000000" points="87,-168.5 87,-187.5 156,-187.5 156,-168.5 87,-168.5"/>
<text text-anchor="middle" x="121.5" y="-175.5" font-family="Helvetica,sans-Serif" font-size="10.00" fill="#000000">schedule.h</text>
</a>
</g>
</g>
<!-- Node10&#45;&gt;Node12 -->
<g id="edge2" class="edge">
<title>Node10&#45;&gt;Node12</title>
<path fill="none" stroke="#191970" d="M255.699,-221.1905C223.821,-210.9309 179.8184,-196.7691 151.0213,-187.5011"/>
<polygon fill="#191970" stroke="#191970" points="254.9969,-224.6413 265.5883,-224.3733 257.1415,-217.9779 254.9969,-224.6413"/>
</g>
<!-- Node13 -->
<g id="node4" class="node">
<title>Node13</title>
<g id="a_node4"><a xlink:href="arch_2default-linux_2odp_2api_2abi_2schedule_8h_source.html" target="_top" xlink:title="schedule.h">
<polygon fill="#ffffff" stroke="#000000" points="174,-168.5 174,-187.5 243,-187.5 243,-168.5 174,-168.5"/>
<text text-anchor="middle" x="208.5" y="-175.5" font-family="Helvetica,sans-Serif" font-size="10.00" fill="#000000">schedule.h</text>
</a>
</g>
</g>
<!-- Node10&#45;&gt;Node13 -->
<g id="edge3" class="edge">
<title>Node10&#45;&gt;Node13</title>
<path fill="none" stroke="#191970" d="M271.8375,-218.769C256.4209,-208.8456 236.774,-196.1994 223.4806,-187.6427"/>
<polygon fill="#191970" stroke="#191970" points="270.0427,-221.7761 280.3458,-224.2455 273.8315,-215.89 270.0427,-221.7761"/>
</g>
<!-- Node14 -->
<g id="node5" class="node">
<title>Node14</title>
<g id="a_node5"><a xlink:href="arch_2mips64-linux_2odp_2api_2abi_2schedule_8h_source.html" target="_top" xlink:title="schedule.h">
<polygon fill="#ffffff" stroke="#000000" points="261,-168.5 261,-187.5 330,-187.5 330,-168.5 261,-168.5"/>
<text text-anchor="middle" x="295.5" y="-175.5" font-family="Helvetica,sans-Serif" font-size="10.00" fill="#000000">schedule.h</text>
</a>
</g>
</g>
<!-- Node10&#45;&gt;Node14 -->
<g id="edge4" class="edge">
<title>Node10&#45;&gt;Node14</title>
<path fill="none" stroke="#191970" d="M295.5,-214.1575C295.5,-205.155 295.5,-194.9199 295.5,-187.6427"/>
<polygon fill="#191970" stroke="#191970" points="292.0001,-214.2455 295.5,-224.2455 299.0001,-214.2456 292.0001,-214.2455"/>
</g>
<!-- Node15 -->
<g id="node6" class="node">
<title>Node15</title>
<g id="a_node6"><a xlink:href="arch_2power64-linux_2odp_2api_2abi_2schedule_8h_source.html" target="_top" xlink:title="schedule.h">
<polygon fill="#ffffff" stroke="#000000" points="348,-168.5 348,-187.5 417,-187.5 417,-168.5 348,-168.5"/>
<text text-anchor="middle" x="382.5" y="-175.5" font-family="Helvetica,sans-Serif" font-size="10.00" fill="#000000">schedule.h</text>
</a>
</g>
</g>
<!-- Node10&#45;&gt;Node15 -->
<g id="edge5" class="edge">
<title>Node10&#45;&gt;Node15</title>
<path fill="none" stroke="#191970" d="M319.1625,-218.769C334.5791,-208.8456 354.226,-196.1994 367.5194,-187.6427"/>
<polygon fill="#191970" stroke="#191970" points="317.1685,-215.89 310.6542,-224.2455 320.9573,-221.7761 317.1685,-215.89"/>
</g>
<!-- Node16 -->
<g id="node7" class="node">
<title>Node16</title>
<g id="a_node7"><a xlink:href="arch_2x86__32-linux_2odp_2api_2abi_2schedule_8h_source.html" target="_top" xlink:title="schedule.h">
<polygon fill="#ffffff" stroke="#000000" points="435,-168.5 435,-187.5 504,-187.5 504,-168.5 435,-168.5"/>
<text text-anchor="middle" x="469.5" y="-175.5" font-family="Helvetica,sans-Serif" font-size="10.00" fill="#000000">schedule.h</text>
</a>
</g>
</g>
<!-- Node10&#45;&gt;Node16 -->
<g id="edge6" class="edge">
<title>Node10&#45;&gt;Node16</title>
<path fill="none" stroke="#191970" d="M335.301,-221.1905C367.179,-210.9309 411.1816,-196.7691 439.9787,-187.5011"/>
<polygon fill="#191970" stroke="#191970" points="333.8585,-217.9779 325.4117,-224.3733 336.0031,-224.6413 333.8585,-217.9779"/>
</g>
<!-- Node17 -->
<g id="node8" class="node">
<title>Node17</title>
<g id="a_node8"><a xlink:href="arch_2x86__64-linux_2odp_2api_2abi_2schedule_8h_source.html" target="_top" xlink:title="schedule.h">
<polygon fill="#ffffff" stroke="#000000" points="522,-168.5 522,-187.5 591,-187.5 591,-168.5 522,-168.5"/>
<text text-anchor="middle" x="556.5" y="-175.5" font-family="Helvetica,sans-Serif" font-size="10.00" fill="#000000">schedule.h</text>
</a>
</g>
</g>
<!-- Node10&#45;&gt;Node17 -->
<g id="edge7" class="edge">
<title>Node10&#45;&gt;Node17</title>
<path fill="none" stroke="#191970" d="M340.1129,-224.8657C384.2158,-215.77 453.5915,-201.2853 513.5,-188 516.1938,-187.4026 518.9803,-186.7755 521.7801,-186.1388"/>
<polygon fill="#191970" stroke="#191970" points="339.3717,-221.4448 330.2832,-226.89 340.7837,-228.3009 339.3717,-221.4448"/>
</g>
<!-- Node18 -->
<g id="node9" class="node">
<title>Node18</title>
<g id="a_node9"><a xlink:href="api_2schedule_8h.html" target="_top" xlink:title="ODP schedule. ">
<polygon fill="#ffffff" stroke="#000000" points="522,-112.5 522,-131.5 591,-131.5 591,-112.5 522,-112.5"/>
<text text-anchor="middle" x="556.5" y="-119.5" font-family="Helvetica,sans-Serif" font-size="10.00" fill="#000000">schedule.h</text>
</a>
</g>
</g>
<!-- Node17&#45;&gt;Node18 -->
<g id="edge8" class="edge">
<title>Node17&#45;&gt;Node18</title>
<path fill="none" stroke="#191970" d="M556.5,-158.1575C556.5,-149.155 556.5,-138.9199 556.5,-131.6427"/>
<polygon fill="#191970" stroke="#191970" points="553.0001,-158.2455 556.5,-168.2455 560.0001,-158.2456 553.0001,-158.2455"/>
</g>
<!-- Node19 -->
<g id="node10" class="node">
<title>Node19</title>
<g id="a_node10"><a xlink:href="odp__api_8h.html" target="_top" xlink:title="The OpenDataPlane API. ">
<polygon fill="#ffffff" stroke="#000000" points="524.5,-56.5 524.5,-75.5 588.5,-75.5 588.5,-56.5 524.5,-56.5"/>
<text text-anchor="middle" x="556.5" y="-63.5" font-family="Helvetica,sans-Serif" font-size="10.00" fill="#000000">odp_api.h</text>
</a>
</g>
</g>
<!-- Node18&#45;&gt;Node19 -->
<g id="edge9" class="edge">
<title>Node18&#45;&gt;Node19</title>
<path fill="none" stroke="#191970" d="M556.5,-102.1575C556.5,-93.155 556.5,-82.9199 556.5,-75.6427"/>
<polygon fill="#191970" stroke="#191970" points="553.0001,-102.2455 556.5,-112.2455 560.0001,-102.2456 553.0001,-102.2455"/>
</g>
<!-- Node20 -->
<g id="node11" class="node">
<title>Node20</title>
<g id="a_node11"><a xlink:href="odp_8h.html" target="_top" xlink:title="WARNING: THIS FILE IS DEPRECATED AND WILL BE REMOVED!!! ODP APPLICATIONS SHOULD NOW INCLUDE odp_api...">
<polygon fill="#ffffff" stroke="#000000" points="534.5,-.5 534.5,-19.5 578.5,-19.5 578.5,-.5 534.5,-.5"/>
<text text-anchor="middle" x="556.5" y="-7.5" font-family="Helvetica,sans-Serif" font-size="10.00" fill="#000000">odp.h</text>
</a>
</g>
</g>
<!-- Node19&#45;&gt;Node20 -->
<g id="edge10" class="edge">
<title>Node19&#45;&gt;Node20</title>
<path fill="none" stroke="#191970" d="M556.5,-46.1575C556.5,-37.155 556.5,-26.9199 556.5,-19.6427"/>
<polygon fill="#191970" stroke="#191970" points="553.0001,-46.2455 556.5,-56.2455 560.0001,-46.2456 553.0001,-46.2455"/>
</g>
</g>
</svg>
