<?xml version="1.0" encoding="UTF-8" standalone="no"?>
<!DOCTYPE svg PUBLIC "-//W3C//DTD SVG 1.1//EN"
 "http://www.w3.org/Graphics/SVG/1.1/DTD/svg11.dtd">
<!-- Generated by graphviz version 2.43.0 (0)
 -->
<!-- Title: comp.h Pages: 1 -->
<svg width="1213pt" height="878pt"
 viewBox="0.00 0.00 1213.00 878.00" xmlns="http://www.w3.org/2000/svg" xmlns:xlink="http://www.w3.org/1999/xlink">
<g id="graph0" class="graph" transform="scale(1 1) rotate(0) translate(4 874)">
<title>comp.h</title>
<polygon fill="white" stroke="transparent" points="-4,4 -4,-874 1209,-874 1209,4 -4,4"/>
<!-- Node1 -->
<g id="node1" class="node">
<title>Node1</title>
<g id="a_node1"><a xlink:title="ODP crypto.">
<polygon fill="#bfbfbf" stroke="black" points="670.5,-850.5 670.5,-869.5 723.5,-869.5 723.5,-850.5 670.5,-850.5"/>
<text text-anchor="middle" x="697" y="-857.5" font-family="Helvetica,sans-Serif" font-size="10.00">comp.h</text>
</a>
</g>
</g>
<!-- Node2 -->
<g id="node2" class="node">
<title>Node2</title>
<g id="a_node2"><a xlink:title=" ">
<polygon fill="white" stroke="#bfbfbf" points="576,-794.5 576,-813.5 686,-813.5 686,-794.5 576,-794.5"/>
<text text-anchor="middle" x="631" y="-801.5" font-family="Helvetica,sans-Serif" font-size="10.00">odp/api/abi/comp.h</text>
</a>
</g>
</g>
<!-- Node1&#45;&gt;Node2 -->
<g id="edge1" class="edge">
<title>Node1&#45;&gt;Node2</title>
<path fill="none" stroke="midnightblue" d="M686.4,-850.32C676.54,-842.26 661.65,-830.08 649.78,-820.37"/>
<polygon fill="midnightblue" stroke="midnightblue" points="651.75,-817.46 641.8,-813.83 647.32,-822.88 651.75,-817.46"/>
</g>
<!-- Node3 -->
<g id="node3" class="node">
<title>Node3</title>
<g id="a_node3"><a xlink:href="api_2spec_2comp_8h.html" target="_top" xlink:title="ODP Compression.">
<polygon fill="white" stroke="black" points="704.5,-794.5 704.5,-813.5 821.5,-813.5 821.5,-794.5 704.5,-794.5"/>
<text text-anchor="middle" x="763" y="-801.5" font-family="Helvetica,sans-Serif" font-size="10.00">odp/api/spec/comp.h</text>
</a>
</g>
</g>
<!-- Node1&#45;&gt;Node3 -->
<g id="edge2" class="edge">
<title>Node1&#45;&gt;Node3</title>
<path fill="none" stroke="midnightblue" d="M707.6,-850.32C717.46,-842.26 732.35,-830.08 744.22,-820.37"/>
<polygon fill="midnightblue" stroke="midnightblue" points="746.68,-822.88 752.2,-813.83 742.25,-817.46 746.68,-822.88"/>
</g>
<!-- Node4 -->
<g id="node4" class="node">
<title>Node4</title>
<g id="a_node4"><a xlink:href="visibility__begin_8h_source.html" target="_top" xlink:title=" ">
<polygon fill="white" stroke="black" points="361.5,-0.5 361.5,-19.5 482.5,-19.5 482.5,-0.5 361.5,-0.5"/>
<text text-anchor="middle" x="422" y="-7.5" font-family="Helvetica,sans-Serif" font-size="10.00">odp/visibility_begin.h</text>
</a>
</g>
</g>
<!-- Node3&#45;&gt;Node4 -->
<g id="edge3" class="edge">
<title>Node3&#45;&gt;Node4</title>
<path fill="none" stroke="midnightblue" d="M704.41,-795.1C701.23,-794.72 698.08,-794.35 695,-794 539.74,-776.47 0,-843.75 0,-687.5 0,-687.5 0,-687.5 0,-132 0,-93.62 9.26,-77.57 41,-56 90.04,-22.68 255.1,-13.94 351.12,-11.71"/>
<polygon fill="midnightblue" stroke="midnightblue" points="351.41,-15.2 361.33,-11.49 351.26,-8.2 351.41,-15.2"/>
</g>
<!-- Node5 -->
<g id="node5" class="node">
<title>Node5</title>
<g id="a_node5"><a xlink:href="api_2event__types_8h.html" target="_top" xlink:title="ODP event API type definitions.">
<polygon fill="white" stroke="black" points="113.5,-123.5 113.5,-142.5 238.5,-142.5 238.5,-123.5 113.5,-123.5"/>
<text text-anchor="middle" x="176" y="-130.5" font-family="Helvetica,sans-Serif" font-size="10.00">odp/api/event_types.h</text>
</a>
</g>
</g>
<!-- Node3&#45;&gt;Node5 -->
<g id="edge4" class="edge">
<title>Node3&#45;&gt;Node5</title>
<path fill="none" stroke="midnightblue" d="M704.28,-795.19C531.69,-772.03 38,-704.33 38,-687.5 38,-687.5 38,-687.5 38,-501 38,-413.36 76,-395.14 76,-307.5 76,-307.5 76,-307.5 76,-244 76,-199.98 120.38,-165.8 150.01,-147.87"/>
<polygon fill="midnightblue" stroke="midnightblue" points="152.14,-150.68 159.04,-142.64 148.63,-144.63 152.14,-150.68"/>
</g>
<!-- Node8 -->
<g id="node8" class="node">
<title>Node8</title>
<g id="a_node8"><a xlink:href="visibility__end_8h_source.html" target="_top" xlink:title=" ">
<polygon fill="white" stroke="black" points="978,-0.5 978,-19.5 1090,-19.5 1090,-0.5 978,-0.5"/>
<text text-anchor="middle" x="1034" y="-7.5" font-family="Helvetica,sans-Serif" font-size="10.00">odp/visibility_end.h</text>
</a>
</g>
</g>
<!-- Node3&#45;&gt;Node8 -->
<g id="edge54" class="edge">
<title>Node3&#45;&gt;Node8</title>
<path fill="none" stroke="midnightblue" d="M821.58,-798.81C905.76,-792.21 1056.39,-778.03 1107,-758 1156.89,-738.26 1205,-741.16 1205,-687.5 1205,-687.5 1205,-687.5 1205,-132 1205,-70.97 1131.52,-37.96 1080.9,-22.46"/>
<polygon fill="midnightblue" stroke="midnightblue" points="1081.69,-19.04 1071.1,-19.59 1079.72,-25.76 1081.69,-19.04"/>
</g>
<!-- Node9 -->
<g id="node9" class="node">
<title>Node9</title>
<g id="a_node9"><a xlink:href="api_2packet__types_8h.html" target="_top" xlink:title="ODP packet.">
<polygon fill="white" stroke="black" points="596.5,-738.5 596.5,-757.5 725.5,-757.5 725.5,-738.5 596.5,-738.5"/>
<text text-anchor="middle" x="661" y="-745.5" font-family="Helvetica,sans-Serif" font-size="10.00">odp/api/packet_types.h</text>
</a>
</g>
</g>
<!-- Node3&#45;&gt;Node9 -->
<g id="edge9" class="edge">
<title>Node3&#45;&gt;Node9</title>
<path fill="none" stroke="midnightblue" d="M746.61,-794.32C730.33,-785.7 705.13,-772.36 686.28,-762.39"/>
<polygon fill="midnightblue" stroke="midnightblue" points="687.82,-759.24 677.35,-757.65 684.55,-765.43 687.82,-759.24"/>
</g>
<!-- Node18 -->
<g id="node18" class="node">
<title>Node18</title>
<g id="a_node18"><a xlink:href="api_2std__types_8h.html" target="_top" xlink:title="Standard C language types and definitions for ODP.">
<polygon fill="white" stroke="black" points="744,-235.5 744,-254.5 856,-254.5 856,-235.5 744,-235.5"/>
<text text-anchor="middle" x="800" y="-242.5" font-family="Helvetica,sans-Serif" font-size="10.00">odp/api/std_types.h</text>
</a>
</g>
</g>
<!-- Node3&#45;&gt;Node18 -->
<g id="edge53" class="edge">
<title>Node3&#45;&gt;Node18</title>
<path fill="none" stroke="midnightblue" d="M821.75,-798.49C933.79,-788.26 1167,-758.44 1167,-687.5 1167,-687.5 1167,-687.5 1167,-562.5 1167,-427.14 1136.98,-372.63 1029,-291 1003.85,-271.98 924.62,-259.46 866.38,-252.56"/>
<polygon fill="midnightblue" stroke="midnightblue" points="866.46,-249.04 856.13,-251.37 865.66,-256 866.46,-249.04"/>
</g>
<!-- Node25 -->
<g id="node25" class="node">
<title>Node25</title>
<g id="a_node25"><a xlink:href="api_2queue__types_8h.html" target="_top" xlink:title="ODP queue.">
<polygon fill="white" stroke="black" points="738.5,-615.5 738.5,-634.5 865.5,-634.5 865.5,-615.5 738.5,-615.5"/>
<text text-anchor="middle" x="802" y="-622.5" font-family="Helvetica,sans-Serif" font-size="10.00">odp/api/queue_types.h</text>
</a>
</g>
</g>
<!-- Node3&#45;&gt;Node25 -->
<g id="edge52" class="edge">
<title>Node3&#45;&gt;Node25</title>
<path fill="none" stroke="midnightblue" d="M766.63,-794.27C773.65,-777 788.99,-737.09 796,-702 799.85,-682.76 801.25,-660.33 801.75,-644.84"/>
<polygon fill="midnightblue" stroke="midnightblue" points="805.26,-644.6 801.98,-634.52 798.26,-644.44 805.26,-644.6"/>
</g>
<!-- Node6 -->
<g id="node6" class="node">
<title>Node6</title>
<g id="a_node6"><a xlink:title=" ">
<polygon fill="white" stroke="#bfbfbf" points="104.5,-62 104.5,-81 247.5,-81 247.5,-62 104.5,-62"/>
<text text-anchor="middle" x="176" y="-69" font-family="Helvetica,sans-Serif" font-size="10.00">odp/api/abi/event_types.h</text>
</a>
</g>
</g>
<!-- Node5&#45;&gt;Node6 -->
<g id="edge5" class="edge">
<title>Node5&#45;&gt;Node6</title>
<path fill="none" stroke="midnightblue" d="M176,-123.48C176,-115.08 176,-101.98 176,-91.16"/>
<polygon fill="midnightblue" stroke="midnightblue" points="179.5,-91.01 176,-81.01 172.5,-91.01 179.5,-91.01"/>
</g>
<!-- Node7 -->
<g id="node7" class="node">
<title>Node7</title>
<g id="a_node7"><a xlink:href="api_2spec_2event__types_8h.html" target="_top" xlink:title="ODP event API type definitions.">
<polygon fill="white" stroke="black" points="265.5,-56.5 265.5,-86.5 374.5,-86.5 374.5,-56.5 265.5,-56.5"/>
<text text-anchor="start" x="273.5" y="-74.5" font-family="Helvetica,sans-Serif" font-size="10.00">odp/api/spec/event</text>
<text text-anchor="middle" x="320" y="-63.5" font-family="Helvetica,sans-Serif" font-size="10.00">_types.h</text>
</a>
</g>
</g>
<!-- Node5&#45;&gt;Node7 -->
<g id="edge6" class="edge">
<title>Node5&#45;&gt;Node7</title>
<path fill="none" stroke="midnightblue" d="M196.63,-123.48C217.41,-114.89 250.1,-101.38 276.61,-90.43"/>
<polygon fill="midnightblue" stroke="midnightblue" points="278.16,-93.58 286.06,-86.52 275.48,-87.11 278.16,-93.58"/>
</g>
<!-- Node7&#45;&gt;Node4 -->
<g id="edge7" class="edge">
<title>Node7&#45;&gt;Node4</title>
<path fill="none" stroke="midnightblue" d="M344.17,-56.4C360.52,-46.86 382.01,-34.32 398.27,-24.84"/>
<polygon fill="midnightblue" stroke="midnightblue" points="400.28,-27.72 407.16,-19.66 396.76,-21.67 400.28,-27.72"/>
</g>
<!-- Node7&#45;&gt;Node8 -->
<g id="edge8" class="edge">
<title>Node7&#45;&gt;Node8</title>
<path fill="none" stroke="midnightblue" d="M374.55,-65.95C503.67,-55.19 827.67,-28.19 967.76,-16.52"/>
<polygon fill="midnightblue" stroke="midnightblue" points="968.25,-19.99 977.93,-15.67 967.67,-13.02 968.25,-19.99"/>
</g>
<!-- Node10 -->
<g id="node10" class="node">
<title>Node10</title>
<g id="a_node10"><a xlink:title=" ">
<polygon fill="white" stroke="#bfbfbf" points="681,-671.5 681,-701.5 787,-701.5 787,-671.5 681,-671.5"/>
<text text-anchor="start" x="689" y="-689.5" font-family="Helvetica,sans-Serif" font-size="10.00">odp/api/abi/packet</text>
<text text-anchor="middle" x="734" y="-678.5" font-family="Helvetica,sans-Serif" font-size="10.00">_io_types.h</text>
</a>
</g>
</g>
<!-- Node9&#45;&gt;Node10 -->
<g id="edge10" class="edge">
<title>Node9&#45;&gt;Node10</title>
<path fill="none" stroke="midnightblue" d="M671.46,-738.48C681.16,-730.57 695.99,-718.48 708.77,-708.07"/>
<polygon fill="midnightblue" stroke="midnightblue" points="711.26,-710.55 716.8,-701.52 706.83,-705.13 711.26,-710.55"/>
</g>
<!-- Node11 -->
<g id="node11" class="node">
<title>Node11</title>
<g id="a_node11"><a xlink:title=" ">
<polygon fill="white" stroke="#bfbfbf" points="557,-671.5 557,-701.5 663,-701.5 663,-671.5 557,-671.5"/>
<text text-anchor="start" x="565" y="-689.5" font-family="Helvetica,sans-Serif" font-size="10.00">odp/api/abi/packet</text>
<text text-anchor="middle" x="610" y="-678.5" font-family="Helvetica,sans-Serif" font-size="10.00">_types.h</text>
</a>
</g>
</g>
<!-- Node9&#45;&gt;Node11 -->
<g id="edge11" class="edge">
<title>Node9&#45;&gt;Node11</title>
<path fill="none" stroke="midnightblue" d="M653.69,-738.48C647.17,-730.87 637.34,-719.4 628.66,-709.26"/>
<polygon fill="midnightblue" stroke="midnightblue" points="631.19,-706.84 622.02,-701.52 625.87,-711.39 631.19,-706.84"/>
</g>
<!-- Node12 -->
<g id="node12" class="node">
<title>Node12</title>
<g id="a_node12"><a xlink:href="api_2spec_2packet__types_8h.html" target="_top" xlink:title="ODP packet types.">
<polygon fill="white" stroke="black" points="425.5,-671.5 425.5,-701.5 538.5,-701.5 538.5,-671.5 425.5,-671.5"/>
<text text-anchor="start" x="433.5" y="-689.5" font-family="Helvetica,sans-Serif" font-size="10.00">odp/api/spec/packet</text>
<text text-anchor="middle" x="482" y="-678.5" font-family="Helvetica,sans-Serif" font-size="10.00">_types.h</text>
</a>
</g>
</g>
<!-- Node9&#45;&gt;Node12 -->
<g id="edge12" class="edge">
<title>Node9&#45;&gt;Node12</title>
<path fill="none" stroke="midnightblue" d="M635.35,-738.48C608.96,-729.7 567.1,-715.79 533.78,-704.71"/>
<polygon fill="midnightblue" stroke="midnightblue" points="534.78,-701.36 524.19,-701.52 532.57,-708 534.78,-701.36"/>
</g>
<!-- Node12&#45;&gt;Node4 -->
<g id="edge13" class="edge">
<title>Node12&#45;&gt;Node4</title>
<path fill="none" stroke="midnightblue" d="M425.12,-680.51C313.38,-669.13 76,-636.49 76,-564.5 76,-564.5 76,-564.5 76,-501 76,-413.36 38,-395.14 38,-307.5 38,-307.5 38,-307.5 38,-132 38,-94.62 43.77,-77.97 74,-56 116.9,-24.82 262.41,-15.24 351.12,-12.3"/>
<polygon fill="midnightblue" stroke="midnightblue" points="351.49,-15.79 361.38,-11.98 351.27,-8.79 351.49,-15.79"/>
</g>
<!-- Node12&#45;&gt;Node8 -->
<g id="edge51" class="edge">
<title>Node12&#45;&gt;Node8</title>
<path fill="none" stroke="midnightblue" d="M538.81,-672.62C541.91,-672.04 544.99,-671.49 548,-671 692.27,-647.28 733.64,-672.33 875,-635 1043.15,-590.59 1167,-548.42 1167,-374.5 1167,-374.5 1167,-374.5 1167,-132 1167,-77.75 1105.72,-41.4 1066.35,-23.64"/>
<polygon fill="midnightblue" stroke="midnightblue" points="1067.43,-20.3 1056.86,-19.53 1064.65,-26.72 1067.43,-20.3"/>
</g>
<!-- Node13 -->
<g id="node13" class="node">
<title>Node13</title>
<g id="a_node13"><a xlink:href="deprecated_8h.html" target="_top" xlink:title="Control deprecated API definitions.">
<polygon fill="white" stroke="black" points="507.5,-615.5 507.5,-634.5 626.5,-634.5 626.5,-615.5 507.5,-615.5"/>
<text text-anchor="middle" x="567" y="-622.5" font-family="Helvetica,sans-Serif" font-size="10.00">odp/api/deprecated.h</text>
</a>
</g>
</g>
<!-- Node12&#45;&gt;Node13 -->
<g id="edge14" class="edge">
<title>Node12&#45;&gt;Node13</title>
<path fill="none" stroke="midnightblue" d="M502.14,-671.4C515.39,-662.13 532.68,-650.03 546.08,-640.65"/>
<polygon fill="midnightblue" stroke="midnightblue" points="548.45,-643.26 554.63,-634.66 544.43,-637.53 548.45,-643.26"/>
</g>
<!-- Node15 -->
<g id="node15" class="node">
<title>Node15</title>
<g id="a_node15"><a xlink:href="api_2proto__stats__types_8h.html" target="_top" xlink:title="ODP proto stats types.">
<polygon fill="white" stroke="black" points="424,-358.5 424,-388.5 534,-388.5 534,-358.5 424,-358.5"/>
<text text-anchor="start" x="432" y="-376.5" font-family="Helvetica,sans-Serif" font-size="10.00">odp/api/proto_stats</text>
<text text-anchor="middle" x="479" y="-365.5" font-family="Helvetica,sans-Serif" font-size="10.00">_types.h</text>
</a>
</g>
</g>
<!-- Node12&#45;&gt;Node15 -->
<g id="edge18" class="edge">
<title>Node12&#45;&gt;Node15</title>
<path fill="none" stroke="midnightblue" d="M481.42,-671.35C480.55,-648.76 479,-603.16 479,-564.5 479,-564.5 479,-564.5 479,-501 479,-465.42 479,-424.2 479,-398.74"/>
<polygon fill="midnightblue" stroke="midnightblue" points="482.5,-398.54 479,-388.54 475.5,-398.54 482.5,-398.54"/>
</g>
<!-- Node12&#45;&gt;Node25 -->
<g id="edge34" class="edge">
<title>Node12&#45;&gt;Node25</title>
<path fill="none" stroke="midnightblue" d="M538.85,-672.86C541.94,-672.22 545.01,-671.59 548,-671 613.48,-658.01 688.82,-644.89 740.34,-636.2"/>
<polygon fill="midnightblue" stroke="midnightblue" points="741.04,-639.63 750.32,-634.52 739.88,-632.73 741.04,-639.63"/>
</g>
<!-- Node14 -->
<g id="node14" class="node">
<title>Node14</title>
<g id="a_node14"><a xlink:href="spec_2deprecated_8h.html" target="_top" xlink:title="Macro for deprecated API definitions.">
<polygon fill="white" stroke="black" points="545.5,-62 545.5,-81 690.5,-81 690.5,-62 545.5,-62"/>
<text text-anchor="middle" x="618" y="-69" font-family="Helvetica,sans-Serif" font-size="10.00">odp/api/spec/deprecated.h</text>
</a>
</g>
</g>
<!-- Node13&#45;&gt;Node14 -->
<g id="edge15" class="edge">
<title>Node13&#45;&gt;Node14</title>
<path fill="none" stroke="midnightblue" d="M567,-615.49C567,-595.74 567,-545.22 567,-503 567,-503 567,-503 567,-188 567,-150.22 590.12,-110.95 605.23,-89.33"/>
<polygon fill="midnightblue" stroke="midnightblue" points="608.09,-91.35 611.12,-81.2 602.42,-87.24 608.09,-91.35"/>
</g>
<!-- Node14&#45;&gt;Node4 -->
<g id="edge16" class="edge">
<title>Node14&#45;&gt;Node4</title>
<path fill="none" stroke="midnightblue" d="M589.92,-61.98C555.71,-51.59 497.8,-34.01 459.73,-22.45"/>
<polygon fill="midnightblue" stroke="midnightblue" points="460.62,-19.06 450.03,-19.51 458.58,-25.76 460.62,-19.06"/>
</g>
<!-- Node14&#45;&gt;Node8 -->
<g id="edge17" class="edge">
<title>Node14&#45;&gt;Node8</title>
<path fill="none" stroke="midnightblue" d="M664.35,-61.96C675.97,-59.91 688.43,-57.8 700,-56 792.66,-41.57 900.21,-27.57 967.69,-19.12"/>
<polygon fill="midnightblue" stroke="midnightblue" points="968.27,-22.57 977.76,-17.86 967.4,-15.63 968.27,-22.57"/>
</g>
<!-- Node16 -->
<g id="node16" class="node">
<title>Node16</title>
<g id="a_node16"><a xlink:title=" ">
<polygon fill="white" stroke="#bfbfbf" points="247,-291.5 247,-321.5 375,-321.5 375,-291.5 247,-291.5"/>
<text text-anchor="start" x="255" y="-309.5" font-family="Helvetica,sans-Serif" font-size="10.00">odp/api/abi/proto_stats</text>
<text text-anchor="middle" x="311" y="-298.5" font-family="Helvetica,sans-Serif" font-size="10.00">_types.h</text>
</a>
</g>
</g>
<!-- Node15&#45;&gt;Node16 -->
<g id="edge19" class="edge">
<title>Node15&#45;&gt;Node16</title>
<path fill="none" stroke="midnightblue" d="M442.55,-358.4C417.45,-348.69 383.91,-335.71 356.98,-325.29"/>
<polygon fill="midnightblue" stroke="midnightblue" points="357.97,-321.92 347.38,-321.58 355.45,-328.45 357.97,-321.92"/>
</g>
<!-- Node17 -->
<g id="node17" class="node">
<title>Node17</title>
<g id="a_node17"><a xlink:href="api_2spec_2proto__stats__types_8h.html" target="_top" xlink:title="ODP proto stats types.">
<polygon fill="white" stroke="black" points="431.5,-291.5 431.5,-321.5 538.5,-321.5 538.5,-291.5 431.5,-291.5"/>
<text text-anchor="start" x="439.5" y="-309.5" font-family="Helvetica,sans-Serif" font-size="10.00">odp/api/spec/proto</text>
<text text-anchor="middle" x="485" y="-298.5" font-family="Helvetica,sans-Serif" font-size="10.00">_stats_types.h</text>
</a>
</g>
</g>
<!-- Node15&#45;&gt;Node17 -->
<g id="edge20" class="edge">
<title>Node15&#45;&gt;Node17</title>
<path fill="none" stroke="midnightblue" d="M480.3,-358.4C481.03,-350.56 481.95,-340.6 482.78,-331.57"/>
<polygon fill="midnightblue" stroke="midnightblue" points="486.27,-331.86 483.7,-321.58 479.3,-331.21 486.27,-331.86"/>
</g>
<!-- Node17&#45;&gt;Node4 -->
<g id="edge21" class="edge">
<title>Node17&#45;&gt;Node4</title>
<path fill="none" stroke="midnightblue" d="M475.67,-291.22C462.75,-270.03 441,-228.62 441,-190 441,-190 441,-190 441,-132 441,-95.29 432.36,-53.06 426.73,-29.45"/>
<polygon fill="midnightblue" stroke="midnightblue" points="430.13,-28.6 424.33,-19.73 423.33,-30.28 430.13,-28.6"/>
</g>
<!-- Node17&#45;&gt;Node8 -->
<g id="edge33" class="edge">
<title>Node17&#45;&gt;Node8</title>
<path fill="none" stroke="midnightblue" d="M497.37,-291.28C510.51,-276.51 532.22,-253.08 553,-235 616.84,-179.44 630.96,-160.16 707,-123 758.94,-97.61 780.61,-113.49 832,-87 851.68,-76.85 851.26,-66.04 871,-56 902.99,-39.73 941.61,-28.73 973.22,-21.69"/>
<polygon fill="midnightblue" stroke="midnightblue" points="974.18,-25.06 983.22,-19.54 972.71,-18.22 974.18,-25.06"/>
</g>
<!-- Node17&#45;&gt;Node18 -->
<g id="edge22" class="edge">
<title>Node17&#45;&gt;Node18</title>
<path fill="none" stroke="midnightblue" d="M538.79,-295.34C596.15,-284.51 686.53,-267.43 744.52,-256.48"/>
<polygon fill="midnightblue" stroke="midnightblue" points="745.43,-259.87 754.6,-254.57 744.13,-252.99 745.43,-259.87"/>
</g>
<!-- Node19 -->
<g id="node19" class="node">
<title>Node19</title>
<g id="a_node19"><a xlink:title=" ">
<polygon fill="white" stroke="#bfbfbf" points="874,-179.5 874,-198.5 1004,-198.5 1004,-179.5 874,-179.5"/>
<text text-anchor="middle" x="939" y="-186.5" font-family="Helvetica,sans-Serif" font-size="10.00">odp/api/abi/std_types.h</text>
</a>
</g>
</g>
<!-- Node18&#45;&gt;Node19 -->
<g id="edge23" class="edge">
<title>Node18&#45;&gt;Node19</title>
<path fill="none" stroke="midnightblue" d="M822.02,-235.44C845.1,-226.48 881.56,-212.31 907.64,-202.18"/>
<polygon fill="midnightblue" stroke="midnightblue" points="909.02,-205.4 917.08,-198.52 906.49,-198.88 909.02,-205.4"/>
</g>
<!-- Node20 -->
<g id="node20" class="node">
<title>Node20</title>
<g id="a_node20"><a xlink:href="api_2spec_2std__types_8h.html" target="_top" xlink:title="Common types and definitions for ODP API files.">
<polygon fill="white" stroke="black" points="718.5,-179.5 718.5,-198.5 855.5,-198.5 855.5,-179.5 718.5,-179.5"/>
<text text-anchor="middle" x="787" y="-186.5" font-family="Helvetica,sans-Serif" font-size="10.00">odp/api/spec/std_types.h</text>
</a>
</g>
</g>
<!-- Node18&#45;&gt;Node20 -->
<g id="edge24" class="edge">
<title>Node18&#45;&gt;Node20</title>
<path fill="none" stroke="midnightblue" d="M797.85,-235.08C796.13,-227.93 793.65,-217.64 791.5,-208.69"/>
<polygon fill="midnightblue" stroke="midnightblue" points="794.85,-207.65 789.11,-198.75 788.04,-209.29 794.85,-207.65"/>
</g>
<!-- Node20&#45;&gt;Node4 -->
<g id="edge25" class="edge">
<title>Node20&#45;&gt;Node4</title>
<path fill="none" stroke="midnightblue" d="M760.18,-179.44C713.41,-164.02 614.48,-129.22 537,-87 515.99,-75.56 512.89,-69.3 493,-56 476.98,-45.29 458.59,-33.65 444.54,-24.9"/>
<polygon fill="midnightblue" stroke="midnightblue" points="446.35,-21.9 436.01,-19.6 442.66,-27.84 446.35,-21.9"/>
</g>
<!-- Node20&#45;&gt;Node8 -->
<g id="edge32" class="edge">
<title>Node20&#45;&gt;Node8</title>
<path fill="none" stroke="midnightblue" d="M820.42,-179.41C865.47,-166.3 945.8,-137.39 996,-87 1012.23,-70.71 1022.78,-46.09 1028.55,-29.31"/>
<polygon fill="midnightblue" stroke="midnightblue" points="1031.95,-30.18 1031.67,-19.59 1025.29,-28.05 1031.95,-30.18"/>
</g>
<!-- Node21 -->
<g id="node21" class="node">
<title>Node21</title>
<g id="a_node21"><a xlink:title=" ">
<polygon fill="white" stroke="#bfbfbf" points="715.5,-123.5 715.5,-142.5 768.5,-142.5 768.5,-123.5 715.5,-123.5"/>
<text text-anchor="middle" x="742" y="-130.5" font-family="Helvetica,sans-Serif" font-size="10.00">stdint.h</text>
</a>
</g>
</g>
<!-- Node20&#45;&gt;Node21 -->
<g id="edge26" class="edge">
<title>Node20&#45;&gt;Node21</title>
<path fill="none" stroke="midnightblue" d="M779.57,-179.08C773.15,-171.38 763.69,-160.03 755.88,-150.65"/>
<polygon fill="midnightblue" stroke="midnightblue" points="758.38,-148.19 749.29,-142.75 753.01,-152.67 758.38,-148.19"/>
</g>
<!-- Node22 -->
<g id="node22" class="node">
<title>Node22</title>
<g id="a_node22"><a xlink:href="api_2align_8h.html" target="_top" xlink:title="ODP alignments.">
<polygon fill="white" stroke="black" points="786.5,-123.5 786.5,-142.5 875.5,-142.5 875.5,-123.5 786.5,-123.5"/>
<text text-anchor="middle" x="831" y="-130.5" font-family="Helvetica,sans-Serif" font-size="10.00">odp/api/align.h</text>
</a>
</g>
</g>
<!-- Node20&#45;&gt;Node22 -->
<g id="edge27" class="edge">
<title>Node20&#45;&gt;Node22</title>
<path fill="none" stroke="midnightblue" d="M794.27,-179.08C800.54,-171.38 809.79,-160.03 817.43,-150.65"/>
<polygon fill="midnightblue" stroke="midnightblue" points="820.27,-152.71 823.87,-142.75 814.84,-148.29 820.27,-152.71"/>
</g>
<!-- Node23 -->
<g id="node23" class="node">
<title>Node23</title>
<g id="a_node23"><a xlink:title=" ">
<polygon fill="white" stroke="#bfbfbf" points="879.5,-62 879.5,-81 986.5,-81 986.5,-62 879.5,-62"/>
<text text-anchor="middle" x="933" y="-69" font-family="Helvetica,sans-Serif" font-size="10.00">odp/api/abi/align.h</text>
</a>
</g>
</g>
<!-- Node22&#45;&gt;Node23 -->
<g id="edge28" class="edge">
<title>Node22&#45;&gt;Node23</title>
<path fill="none" stroke="midnightblue" d="M845.61,-123.48C862.35,-113.71 890,-97.58 909.72,-86.08"/>
<polygon fill="midnightblue" stroke="midnightblue" points="911.54,-89.07 918.41,-81.01 908.01,-83.02 911.54,-89.07"/>
</g>
<!-- Node24 -->
<g id="node24" class="node">
<title>Node24</title>
<g id="a_node24"><a xlink:href="api_2spec_2align_8h.html" target="_top" xlink:title="ODP alignments.">
<polygon fill="white" stroke="black" points="709,-62 709,-81 823,-81 823,-62 709,-62"/>
<text text-anchor="middle" x="766" y="-69" font-family="Helvetica,sans-Serif" font-size="10.00">odp/api/spec/align.h</text>
</a>
</g>
</g>
<!-- Node22&#45;&gt;Node24 -->
<g id="edge29" class="edge">
<title>Node22&#45;&gt;Node24</title>
<path fill="none" stroke="midnightblue" d="M821.69,-123.48C811.55,-114.2 795.14,-99.17 782.75,-87.83"/>
<polygon fill="midnightblue" stroke="midnightblue" points="785.04,-85.18 775.3,-81.01 780.31,-90.34 785.04,-85.18"/>
</g>
<!-- Node24&#45;&gt;Node4 -->
<g id="edge30" class="edge">
<title>Node24&#45;&gt;Node4</title>
<path fill="none" stroke="midnightblue" d="M728.73,-61.93C719.37,-59.88 709.33,-57.78 700,-56 629.02,-42.47 547.33,-29.56 490.96,-21.07"/>
<polygon fill="midnightblue" stroke="midnightblue" points="491.15,-17.56 480.74,-19.54 490.11,-24.48 491.15,-17.56"/>
</g>
<!-- Node24&#45;&gt;Node8 -->
<g id="edge31" class="edge">
<title>Node24&#45;&gt;Node8</title>
<path fill="none" stroke="midnightblue" d="M804.4,-61.98C852.16,-51.37 933.74,-33.26 985.7,-21.72"/>
<polygon fill="midnightblue" stroke="midnightblue" points="986.67,-25.09 995.67,-19.51 985.15,-18.26 986.67,-25.09"/>
</g>
<!-- Node26 -->
<g id="node26" class="node">
<title>Node26</title>
<g id="a_node26"><a xlink:title=" ">
<polygon fill="white" stroke="#bfbfbf" points="850.5,-554 850.5,-573 995.5,-573 995.5,-554 850.5,-554"/>
<text text-anchor="middle" x="923" y="-561" font-family="Helvetica,sans-Serif" font-size="10.00">odp/api/abi/queue_types.h</text>
</a>
</g>
</g>
<!-- Node25&#45;&gt;Node26 -->
<g id="edge35" class="edge">
<title>Node25&#45;&gt;Node26</title>
<path fill="none" stroke="midnightblue" d="M819.34,-615.48C839.55,-605.53 873.19,-588.99 896.64,-577.46"/>
<polygon fill="midnightblue" stroke="midnightblue" points="898.27,-580.56 905.7,-573.01 895.18,-574.28 898.27,-580.56"/>
</g>
<!-- Node27 -->
<g id="node27" class="node">
<title>Node27</title>
<g id="a_node27"><a xlink:href="api_2spec_2queue__types_8h.html" target="_top" xlink:title="ODP queue types.">
<polygon fill="white" stroke="black" points="721.5,-548.5 721.5,-578.5 832.5,-578.5 832.5,-548.5 721.5,-548.5"/>
<text text-anchor="start" x="729.5" y="-566.5" font-family="Helvetica,sans-Serif" font-size="10.00">odp/api/spec/queue</text>
<text text-anchor="middle" x="777" y="-555.5" font-family="Helvetica,sans-Serif" font-size="10.00">_types.h</text>
</a>
</g>
</g>
<!-- Node25&#45;&gt;Node27 -->
<g id="edge36" class="edge">
<title>Node25&#45;&gt;Node27</title>
<path fill="none" stroke="midnightblue" d="M798.42,-615.48C795.38,-608.25 790.88,-597.53 786.78,-587.78"/>
<polygon fill="midnightblue" stroke="midnightblue" points="789.99,-586.39 782.89,-578.52 783.54,-589.1 789.99,-586.39"/>
</g>
<!-- Node27&#45;&gt;Node4 -->
<g id="edge37" class="edge">
<title>Node27&#45;&gt;Node4</title>
<path fill="none" stroke="midnightblue" d="M721.33,-558.2C561.74,-545.15 114,-503.04 114,-441.5 114,-441.5 114,-441.5 114,-244 114,-160.06 40.85,-119.28 96,-56 128.42,-18.8 265.5,-11.31 351.25,-10.38"/>
<polygon fill="midnightblue" stroke="midnightblue" points="351.47,-13.88 361.44,-10.3 351.42,-6.88 351.47,-13.88"/>
</g>
<!-- Node27&#45;&gt;Node8 -->
<g id="edge50" class="edge">
<title>Node27&#45;&gt;Node8</title>
<path fill="none" stroke="midnightblue" d="M832.78,-549.61C932.03,-523.01 1129,-452.01 1129,-307.5 1129,-307.5 1129,-307.5 1129,-132 1129,-85.25 1084.58,-45.86 1056.49,-25.62"/>
<polygon fill="midnightblue" stroke="midnightblue" points="1058.23,-22.57 1048.02,-19.74 1054.23,-28.32 1058.23,-22.57"/>
</g>
<!-- Node28 -->
<g id="node28" class="node">
<title>Node28</title>
<g id="a_node28"><a xlink:href="api_2schedule__types_8h.html" target="_top" xlink:title="ODP schedule.">
<polygon fill="white" stroke="black" points="707,-492.5 707,-511.5 847,-511.5 847,-492.5 707,-492.5"/>
<text text-anchor="middle" x="777" y="-499.5" font-family="Helvetica,sans-Serif" font-size="10.00">odp/api/schedule_types.h</text>
</a>
</g>
</g>
<!-- Node27&#45;&gt;Node28 -->
<g id="edge38" class="edge">
<title>Node27&#45;&gt;Node28</title>
<path fill="none" stroke="midnightblue" d="M777,-548.4C777,-540.47 777,-530.46 777,-521.86"/>
<polygon fill="midnightblue" stroke="midnightblue" points="780.5,-521.66 777,-511.66 773.5,-521.66 780.5,-521.66"/>
</g>
<!-- Node29 -->
<g id="node29" class="node">
<title>Node29</title>
<g id="a_node29"><a xlink:title=" ">
<polygon fill="white" stroke="#bfbfbf" points="812.5,-425.5 812.5,-455.5 929.5,-455.5 929.5,-425.5 812.5,-425.5"/>
<text text-anchor="start" x="820.5" y="-443.5" font-family="Helvetica,sans-Serif" font-size="10.00">odp/api/abi/schedule</text>
<text text-anchor="middle" x="871" y="-432.5" font-family="Helvetica,sans-Serif" font-size="10.00">_types.h</text>
</a>
</g>
</g>
<!-- Node28&#45;&gt;Node29 -->
<g id="edge39" class="edge">
<title>Node28&#45;&gt;Node29</title>
<path fill="none" stroke="midnightblue" d="M790.47,-492.48C803.44,-484.27 823.51,-471.56 840.38,-460.88"/>
<polygon fill="midnightblue" stroke="midnightblue" points="842.27,-463.83 848.85,-455.52 838.52,-457.91 842.27,-463.83"/>
</g>
<!-- Node30 -->
<g id="node30" class="node">
<title>Node30</title>
<g id="a_node30"><a xlink:href="api_2spec_2schedule__types_8h.html" target="_top" xlink:title="ODP schedule types.">
<polygon fill="white" stroke="black" points="669.5,-425.5 669.5,-455.5 794.5,-455.5 794.5,-425.5 669.5,-425.5"/>
<text text-anchor="start" x="677.5" y="-443.5" font-family="Helvetica,sans-Serif" font-size="10.00">odp/api/spec/schedule</text>
<text text-anchor="middle" x="732" y="-432.5" font-family="Helvetica,sans-Serif" font-size="10.00">_types.h</text>
</a>
</g>
</g>
<!-- Node28&#45;&gt;Node30 -->
<g id="edge40" class="edge">
<title>Node28&#45;&gt;Node30</title>
<path fill="none" stroke="midnightblue" d="M770.55,-492.48C764.86,-484.94 756.3,-473.63 748.69,-463.57"/>
<polygon fill="midnightblue" stroke="midnightblue" points="751.43,-461.39 742.61,-455.52 745.85,-465.61 751.43,-461.39"/>
</g>
<!-- Node30&#45;&gt;Node4 -->
<g id="edge41" class="edge">
<title>Node30&#45;&gt;Node4</title>
<path fill="none" stroke="midnightblue" d="M702.32,-425.43C665.45,-408.25 600.41,-378.91 543,-358 490.68,-338.94 461.7,-362.04 423,-322 398.73,-296.88 403,-280.93 403,-246 403,-246 403,-246 403,-132 403,-95.29 411.64,-53.06 417.27,-29.45"/>
<polygon fill="midnightblue" stroke="midnightblue" points="420.67,-30.28 419.67,-19.73 413.87,-28.6 420.67,-30.28"/>
</g>
<!-- Node30&#45;&gt;Node8 -->
<g id="edge49" class="edge">
<title>Node30&#45;&gt;Node8</title>
<path fill="none" stroke="midnightblue" d="M774.21,-425.47C802.84,-415.74 841.43,-402.21 875,-389 982.13,-346.84 1091,-361.13 1091,-246 1091,-246 1091,-246 1091,-132 1091,-91.59 1064.66,-50.21 1047.79,-27.85"/>
<polygon fill="midnightblue" stroke="midnightblue" points="1050.37,-25.46 1041.45,-19.74 1044.85,-29.77 1050.37,-25.46"/>
</g>
<!-- Node30&#45;&gt;Node18 -->
<g id="edge42" class="edge">
<title>Node30&#45;&gt;Node18</title>
<path fill="none" stroke="midnightblue" d="M728.88,-425.36C723.54,-397.67 715.38,-335.15 739,-291 746.17,-277.59 759.3,-267.12 771.54,-259.66"/>
<polygon fill="midnightblue" stroke="midnightblue" points="773.62,-262.51 780.62,-254.55 770.19,-256.41 773.62,-262.51"/>
</g>
<!-- Node31 -->
<g id="node31" class="node">
<title>Node31</title>
<g id="a_node31"><a xlink:href="api_2thrmask_8h.html" target="_top" xlink:title="ODP thread masks.">
<polygon fill="white" stroke="black" points="760.5,-364 760.5,-383 865.5,-383 865.5,-364 760.5,-364"/>
<text text-anchor="middle" x="813" y="-371" font-family="Helvetica,sans-Serif" font-size="10.00">odp/api/thrmask.h</text>
</a>
</g>
</g>
<!-- Node30&#45;&gt;Node31 -->
<g id="edge43" class="edge">
<title>Node30&#45;&gt;Node31</title>
<path fill="none" stroke="midnightblue" d="M749.58,-425.4C762.71,-414.86 780.63,-400.48 794.07,-389.69"/>
<polygon fill="midnightblue" stroke="midnightblue" points="796.56,-392.18 802.17,-383.19 792.18,-386.72 796.56,-392.18"/>
</g>
<!-- Node32 -->
<g id="node32" class="node">
<title>Node32</title>
<g id="a_node32"><a xlink:title=" ">
<polygon fill="white" stroke="#bfbfbf" points="896.5,-297 896.5,-316 1019.5,-316 1019.5,-297 896.5,-297"/>
<text text-anchor="middle" x="958" y="-304" font-family="Helvetica,sans-Serif" font-size="10.00">odp/api/abi/thrmask.h</text>
</a>
</g>
</g>
<!-- Node31&#45;&gt;Node32 -->
<g id="edge44" class="edge">
<title>Node31&#45;&gt;Node32</title>
<path fill="none" stroke="midnightblue" d="M832.25,-363.87C857.17,-352.7 900.79,-333.15 929.53,-320.26"/>
<polygon fill="midnightblue" stroke="midnightblue" points="930.97,-323.45 938.67,-316.17 928.11,-317.06 930.97,-323.45"/>
</g>
<!-- Node33 -->
<g id="node33" class="node">
<title>Node33</title>
<g id="a_node33"><a xlink:href="api_2spec_2thrmask_8h.html" target="_top" xlink:title="ODP thread masks.">
<polygon fill="white" stroke="black" points="747.5,-297 747.5,-316 878.5,-316 878.5,-297 747.5,-297"/>
<text text-anchor="middle" x="813" y="-304" font-family="Helvetica,sans-Serif" font-size="10.00">odp/api/spec/thrmask.h</text>
</a>
</g>
</g>
<!-- Node31&#45;&gt;Node33 -->
<g id="edge45" class="edge">
<title>Node31&#45;&gt;Node33</title>
<path fill="none" stroke="midnightblue" d="M813,-363.73C813,-354.18 813,-338.62 813,-326.28"/>
<polygon fill="midnightblue" stroke="midnightblue" points="816.5,-326.13 813,-316.13 809.5,-326.13 816.5,-326.13"/>
</g>
<!-- Node33&#45;&gt;Node4 -->
<g id="edge46" class="edge">
<title>Node33&#45;&gt;Node4</title>
<path fill="none" stroke="midnightblue" d="M750.96,-296.99C654.37,-281.99 479,-246.91 479,-190 479,-190 479,-190 479,-132 479,-91.59 452.66,-50.21 435.79,-27.85"/>
<polygon fill="midnightblue" stroke="midnightblue" points="438.37,-25.46 429.45,-19.74 432.85,-29.77 438.37,-25.46"/>
</g>
<!-- Node33&#45;&gt;Node8 -->
<g id="edge48" class="edge">
<title>Node33&#45;&gt;Node8</title>
<path fill="none" stroke="midnightblue" d="M846.12,-296.98C911.96,-279.06 1053,-235.37 1053,-190 1053,-190 1053,-190 1053,-132 1053,-95.29 1044.36,-53.06 1038.73,-29.45"/>
<polygon fill="midnightblue" stroke="midnightblue" points="1042.13,-28.6 1036.33,-19.73 1035.33,-30.28 1042.13,-28.6"/>
</g>
<!-- Node33&#45;&gt;Node18 -->
<g id="edge47" class="edge">
<title>Node33&#45;&gt;Node18</title>
<path fill="none" stroke="midnightblue" d="M811.14,-296.98C809.28,-288.49 806.38,-275.2 804,-264.32"/>
<polygon fill="midnightblue" stroke="midnightblue" points="807.41,-263.53 801.86,-254.51 800.57,-265.03 807.41,-263.53"/>
</g>
</g>
</svg>
