<?xml version="1.0" encoding="UTF-8" standalone="no"?>
<!DOCTYPE svg PUBLIC "-//W3C//DTD SVG 1.1//EN"
 "http://www.w3.org/Graphics/SVG/1.1/DTD/svg11.dtd">
<!-- Generated by graphviz version 2.43.0 (0)
 -->
<!-- Title: thrmask.h Pages: 1 -->
<svg width="434pt" height="357pt"
 viewBox="0.00 0.00 433.50 357.00" xmlns="http://www.w3.org/2000/svg" xmlns:xlink="http://www.w3.org/1999/xlink">
<g id="graph0" class="graph" transform="scale(1 1) rotate(0) translate(4 353)">
<title>thrmask.h</title>
<!-- Node1 -->
<g id="Node000001" class="node">
<title>Node1</title>
<g id="a_Node000001"><a xlink:title="ODP thread masks.">
<polygon fill="#999999" stroke="#666666" points="166.5,-349 100.5,-349 100.5,-330 166.5,-330 166.5,-349"/>
<text text-anchor="middle" x="133.5" y="-337" font-family="Helvetica,sans-Serif" font-size="10.00">thrmask.h</text>
</a>
</g>
</g>
<!-- Node2 -->
<g id="Node000002" class="node">
<title>Node2</title>
<g id="a_Node000002"><a xlink:title=" ">
<polygon fill="#e0e0e0" stroke="#999999" points="123,-294 0,-294 0,-275 123,-275 123,-294"/>
<text text-anchor="middle" x="61.5" y="-282" font-family="Helvetica,sans-Serif" font-size="10.00">odp/api/abi/thrmask.h</text>
</a>
</g>
</g>
<!-- Node1&#45;&gt;Node2 -->
<g id="edge1_Node000001_Node000002" class="edge">
<title>Node1&#45;&gt;Node2</title>
<g id="a_edge1_Node000001_Node000002"><a xlink:title=" ">
<path fill="none" stroke="#63b8ff" d="M121.93,-329.98C111.08,-322 94.62,-309.88 81.62,-300.31"/>
<polygon fill="#63b8ff" stroke="#63b8ff" points="83.41,-297.28 73.28,-294.17 79.26,-302.92 83.41,-297.28"/>
</a>
</g>
</g>
<!-- Node3 -->
<g id="Node000003" class="node">
<title>Node3</title>
<g id="a_Node000003"><a xlink:href="api_2spec_2thrmask_8h.html" target="_top" xlink:title="ODP thread masks.">
<polygon fill="white" stroke="#666666" points="272,-294 141,-294 141,-275 272,-275 272,-294"/>
<text text-anchor="middle" x="206.5" y="-282" font-family="Helvetica,sans-Serif" font-size="10.00">odp/api/spec/thrmask.h</text>
</a>
</g>
</g>
<!-- Node1&#45;&gt;Node3 -->
<g id="edge2_Node000001_Node000003" class="edge">
<title>Node1&#45;&gt;Node3</title>
<g id="a_edge2_Node000001_Node000003"><a xlink:title=" ">
<path fill="none" stroke="#63b8ff" d="M145.23,-329.98C156.23,-322 172.92,-309.88 186.1,-300.31"/>
<polygon fill="#63b8ff" stroke="#63b8ff" points="188.52,-302.88 194.56,-294.17 184.41,-297.21 188.52,-302.88"/>
</a>
</g>
</g>
<!-- Node4 -->
<g id="Node000004" class="node">
<title>Node4</title>
<g id="a_Node000004"><a xlink:href="visibility__begin_8h_source.html" target="_top" xlink:title=" ">
<polygon fill="white" stroke="#666666" points="134,-19 13,-19 13,0 134,0 134,-19"/>
<text text-anchor="middle" x="73.5" y="-7" font-family="Helvetica,sans-Serif" font-size="10.00">odp/visibility_begin.h</text>
</a>
</g>
</g>
<!-- Node3&#45;&gt;Node4 -->
<g id="edge3_Node000003_Node000004" class="edge">
<title>Node3&#45;&gt;Node4</title>
<g id="a_edge3_Node000003_Node000004"><a xlink:title=" ">
<path fill="none" stroke="#63b8ff" d="M159.77,-274.9C109.14,-262.57 35.5,-234.49 35.5,-175.5 35.5,-175.5 35.5,-175.5 35.5,-118.5 35.5,-85.02 51.95,-48.84 63.2,-28.01"/>
<polygon fill="#63b8ff" stroke="#63b8ff" points="66.37,-29.53 68.22,-19.1 60.26,-26.1 66.37,-29.53"/>
</a>
</g>
</g>
<!-- Node5 -->
<g id="Node000005" class="node">
<title>Node5</title>
<g id="a_Node000005"><a xlink:href="api_2std__types_8h.html" target="_top" xlink:title="Standard C language types and definitions for ODP.">
<polygon fill="white" stroke="#666666" points="262.5,-239 150.5,-239 150.5,-220 262.5,-220 262.5,-239"/>
<text text-anchor="middle" x="206.5" y="-227" font-family="Helvetica,sans-Serif" font-size="10.00">odp/api/std_types.h</text>
</a>
</g>
</g>
<!-- Node3&#45;&gt;Node5 -->
<g id="edge4_Node000003_Node000005" class="edge">
<title>Node3&#45;&gt;Node5</title>
<g id="a_edge4_Node000003_Node000005"><a xlink:title=" ">
<path fill="none" stroke="#63b8ff" d="M206.5,-274.75C206.5,-267.8 206.5,-257.85 206.5,-249.13"/>
<polygon fill="#63b8ff" stroke="#63b8ff" points="210,-249.09 206.5,-239.09 203,-249.09 210,-249.09"/>
</a>
</g>
</g>
<!-- Node12 -->
<g id="Node000012" class="node">
<title>Node12</title>
<g id="a_Node000012"><a xlink:href="visibility__end_8h_source.html" target="_top" xlink:title=" ">
<polygon fill="white" stroke="#666666" points="425.5,-19 313.5,-19 313.5,0 425.5,0 425.5,-19"/>
<text text-anchor="middle" x="369.5" y="-7" font-family="Helvetica,sans-Serif" font-size="10.00">odp/visibility_end.h</text>
</a>
</g>
</g>
<!-- Node3&#45;&gt;Node12 -->
<g id="edge15_Node000003_Node000012" class="edge">
<title>Node3&#45;&gt;Node12</title>
<g id="a_edge15_Node000003_Node000012"><a xlink:title=" ">
<path fill="none" stroke="#63b8ff" d="M272.04,-275.71C330.69,-264.64 407.5,-238.19 407.5,-175.5 407.5,-175.5 407.5,-175.5 407.5,-118.5 407.5,-85.02 391.05,-48.84 379.8,-28.01"/>
<polygon fill="#63b8ff" stroke="#63b8ff" points="382.74,-26.1 374.78,-19.1 376.63,-29.53 382.74,-26.1"/>
</a>
</g>
</g>
<!-- Node6 -->
<g id="Node000006" class="node">
<title>Node6</title>
<g id="a_Node000006"><a xlink:title=" ">
<polygon fill="#e0e0e0" stroke="#999999" points="195.5,-184 65.5,-184 65.5,-165 195.5,-165 195.5,-184"/>
<text text-anchor="middle" x="130.5" y="-172" font-family="Helvetica,sans-Serif" font-size="10.00">odp/api/abi/std_types.h</text>
</a>
</g>
</g>
<!-- Node5&#45;&gt;Node6 -->
<g id="edge5_Node000005_Node000006" class="edge">
<title>Node5&#45;&gt;Node6</title>
<g id="a_edge5_Node000005_Node000006"><a xlink:title=" ">
<path fill="none" stroke="#63b8ff" d="M194.29,-219.98C182.72,-211.92 165.12,-199.65 151.34,-190.03"/>
<polygon fill="#63b8ff" stroke="#63b8ff" points="153.14,-187.02 142.93,-184.17 149.13,-192.76 153.14,-187.02"/>
</a>
</g>
</g>
<!-- Node7 -->
<g id="Node000007" class="node">
<title>Node7</title>
<g id="a_Node000007"><a xlink:href="api_2spec_2std__types_8h.html" target="_top" xlink:title="Common types and definitions for ODP API files.">
<polygon fill="white" stroke="#666666" points="351,-184 214,-184 214,-165 351,-165 351,-184"/>
<text text-anchor="middle" x="282.5" y="-172" font-family="Helvetica,sans-Serif" font-size="10.00">odp/api/spec/std_types.h</text>
</a>
</g>
</g>
<!-- Node5&#45;&gt;Node7 -->
<g id="edge6_Node000005_Node000007" class="edge">
<title>Node5&#45;&gt;Node7</title>
<g id="a_edge6_Node000005_Node000007"><a xlink:title=" ">
<path fill="none" stroke="#63b8ff" d="M218.71,-219.98C230.28,-211.92 247.88,-199.65 261.66,-190.03"/>
<polygon fill="#63b8ff" stroke="#63b8ff" points="263.87,-192.76 270.07,-184.17 259.86,-187.02 263.87,-192.76"/>
</a>
</g>
</g>
<!-- Node7&#45;&gt;Node4 -->
<g id="edge7_Node000007_Node000004" class="edge">
<title>Node7&#45;&gt;Node4</title>
<g id="a_edge7_Node000007_Node000004"><a xlink:title=" ">
<path fill="none" stroke="#63b8ff" d="M243.2,-164.93C198.44,-152.9 127.06,-126.36 92.5,-74 83.59,-60.49 78.73,-42.67 76.17,-29.34"/>
<polygon fill="#63b8ff" stroke="#63b8ff" points="79.61,-28.69 74.51,-19.4 72.7,-29.83 79.61,-28.69"/>
</a>
</g>
</g>
<!-- Node8 -->
<g id="Node000008" class="node">
<title>Node8</title>
<g id="a_Node000008"><a xlink:title=" ">
<polygon fill="#e0e0e0" stroke="#999999" points="221,-129 168,-129 168,-110 221,-110 221,-129"/>
<text text-anchor="middle" x="194.5" y="-117" font-family="Helvetica,sans-Serif" font-size="10.00">stdint.h</text>
</a>
</g>
</g>
<!-- Node7&#45;&gt;Node8 -->
<g id="edge8_Node000007_Node000008" class="edge">
<title>Node7&#45;&gt;Node8</title>
<g id="a_edge8_Node000007_Node000008"><a xlink:title=" ">
<path fill="none" stroke="#63b8ff" d="M268.36,-164.98C254.71,-156.77 233.81,-144.18 217.72,-134.49"/>
<polygon fill="#63b8ff" stroke="#63b8ff" points="219.27,-131.33 208.9,-129.17 215.66,-137.33 219.27,-131.33"/>
</a>
</g>
</g>
<!-- Node9 -->
<g id="Node000009" class="node">
<title>Node9</title>
<g id="a_Node000009"><a xlink:href="api_2align_8h.html" target="_top" xlink:title="ODP alignments.">
<polygon fill="white" stroke="#666666" points="328,-129 239,-129 239,-110 328,-110 328,-129"/>
<text text-anchor="middle" x="283.5" y="-117" font-family="Helvetica,sans-Serif" font-size="10.00">odp/api/align.h</text>
</a>
</g>
</g>
<!-- Node7&#45;&gt;Node9 -->
<g id="edge9_Node000007_Node000009" class="edge">
<title>Node7&#45;&gt;Node9</title>
<g id="a_edge9_Node000007_Node000009"><a xlink:title=" ">
<path fill="none" stroke="#63b8ff" d="M282.67,-164.75C282.8,-157.8 282.98,-147.85 283.15,-139.13"/>
<polygon fill="#63b8ff" stroke="#63b8ff" points="286.65,-139.15 283.34,-129.09 279.65,-139.02 286.65,-139.15"/>
</a>
</g>
</g>
<!-- Node7&#45;&gt;Node12 -->
<g id="edge14_Node000007_Node000012" class="edge">
<title>Node7&#45;&gt;Node12</title>
<g id="a_edge14_Node000007_Node000012"><a xlink:title=" ">
<path fill="none" stroke="#63b8ff" d="M297.81,-164.87C310.29,-157.06 327.45,-144.44 337.5,-129 357.78,-97.86 365.28,-54.16 368,-29.46"/>
<polygon fill="#63b8ff" stroke="#63b8ff" points="371.5,-29.56 368.96,-19.28 364.54,-28.9 371.5,-29.56"/>
</a>
</g>
</g>
<!-- Node10 -->
<g id="Node000010" class="node">
<title>Node10</title>
<g id="a_Node000010"><a xlink:title=" ">
<polygon fill="#e0e0e0" stroke="#999999" points="209,-74 102,-74 102,-55 209,-55 209,-74"/>
<text text-anchor="middle" x="155.5" y="-62" font-family="Helvetica,sans-Serif" font-size="10.00">odp/api/abi/align.h</text>
</a>
</g>
</g>
<!-- Node9&#45;&gt;Node10 -->
<g id="edge10_Node000009_Node000010" class="edge">
<title>Node9&#45;&gt;Node10</title>
<g id="a_edge10_Node000009_Node000010"><a xlink:title=" ">
<path fill="none" stroke="#63b8ff" d="M262.93,-109.98C242.07,-101.34 209.53,-87.87 185.73,-78.02"/>
<polygon fill="#63b8ff" stroke="#63b8ff" points="187.02,-74.76 176.44,-74.17 184.34,-81.23 187.02,-74.76"/>
</a>
</g>
</g>
<!-- Node11 -->
<g id="Node000011" class="node">
<title>Node11</title>
<g id="a_Node000011"><a xlink:href="api_2spec_2align_8h.html" target="_top" xlink:title="ODP alignments.">
<polygon fill="white" stroke="#666666" points="341.5,-74 227.5,-74 227.5,-55 341.5,-55 341.5,-74"/>
<text text-anchor="middle" x="284.5" y="-62" font-family="Helvetica,sans-Serif" font-size="10.00">odp/api/spec/align.h</text>
</a>
</g>
</g>
<!-- Node9&#45;&gt;Node11 -->
<g id="edge11_Node000009_Node000011" class="edge">
<title>Node9&#45;&gt;Node11</title>
<g id="a_edge11_Node000009_Node000011"><a xlink:title=" ">
<path fill="none" stroke="#63b8ff" d="M283.67,-109.75C283.8,-102.8 283.98,-92.85 284.15,-84.13"/>
<polygon fill="#63b8ff" stroke="#63b8ff" points="287.65,-84.15 284.34,-74.09 280.65,-84.02 287.65,-84.15"/>
</a>
</g>
</g>
<!-- Node11&#45;&gt;Node4 -->
<g id="edge12_Node000011_Node000004" class="edge">
<title>Node11&#45;&gt;Node4</title>
<g id="a_edge12_Node000011_Node000004"><a xlink:title=" ">
<path fill="none" stroke="#63b8ff" d="M250.6,-54.98C214.48,-45.91 157.18,-31.52 117.58,-21.57"/>
<polygon fill="#63b8ff" stroke="#63b8ff" points="118.22,-18.12 107.67,-19.08 116.51,-24.91 118.22,-18.12"/>
</a>
</g>
</g>
<!-- Node11&#45;&gt;Node12 -->
<g id="edge13_Node000011_Node000012" class="edge">
<title>Node11&#45;&gt;Node12</title>
<g id="a_edge13_Node000011_Node000012"><a xlink:title=" ">
<path fill="none" stroke="#63b8ff" d="M298.16,-54.98C311.34,-46.77 331.53,-34.18 347.07,-24.49"/>
<polygon fill="#63b8ff" stroke="#63b8ff" points="348.96,-27.43 355.59,-19.17 345.26,-21.49 348.96,-27.43"/>
</a>
</g>
</g>
</g>
</svg>
