<?xml version="1.0" encoding="UTF-8" standalone="no"?>
<!DOCTYPE svg PUBLIC "-//W3C//DTD SVG 1.1//EN"
 "http://www.w3.org/Graphics/SVG/1.1/DTD/svg11.dtd">
<!-- Generated by graphviz version 2.43.0 (0)
 -->
<!-- Title: packet_flags.h Pages: 1 -->
<svg width="614pt" height="84pt"
 viewBox="0.00 0.00 614.00 84.00" xmlns="http://www.w3.org/2000/svg" xmlns:xlink="http://www.w3.org/1999/xlink">
<g id="graph0" class="graph" transform="scale(1 1) rotate(0) translate(4 80)">
<title>packet_flags.h</title>
<polygon fill="white" stroke="transparent" points="-4,4 -4,-80 610,-80 610,4 -4,4"/>
<!-- Node1 -->
<g id="node1" class="node">
<title>Node1</title>
<g id="a_node1"><a xlink:title="ODP packet descriptor.">
<polygon fill="#bfbfbf" stroke="black" points="260,-56.5 260,-75.5 346,-75.5 346,-56.5 260,-56.5"/>
<text text-anchor="middle" x="303" y="-63.5" font-family="Helvetica,sans-Serif" font-size="10.00">packet_flags.h</text>
</a>
</g>
</g>
<!-- Node2 -->
<g id="node2" class="node">
<title>Node2</title>
<g id="a_node2"><a xlink:href="arch_2arm32-linux_2odp_2api_2abi_2packet__flags_8h_source.html" target="_top" xlink:title=" ">
<polygon fill="white" stroke="black" points="0,-0.5 0,-19.5 86,-19.5 86,-0.5 0,-0.5"/>
<text text-anchor="middle" x="43" y="-7.5" font-family="Helvetica,sans-Serif" font-size="10.00">packet_flags.h</text>
</a>
</g>
</g>
<!-- Node1&#45;&gt;Node2 -->
<g id="edge1" class="edge">
<title>Node1&#45;&gt;Node2</title>
<path fill="none" stroke="midnightblue" d="M252.01,-54.41C202.87,-44.2 129.47,-28.96 84.01,-19.52"/>
<polygon fill="midnightblue" stroke="midnightblue" points="251.3,-57.84 261.8,-56.44 252.72,-50.98 251.3,-57.84"/>
</g>
<!-- Node3 -->
<g id="node3" class="node">
<title>Node3</title>
<g id="a_node3"><a xlink:href="arch_2arm64-linux_2odp_2api_2abi_2packet__flags_8h_source.html" target="_top" xlink:title=" ">
<polygon fill="white" stroke="black" points="104,-0.5 104,-19.5 190,-19.5 190,-0.5 104,-0.5"/>
<text text-anchor="middle" x="147" y="-7.5" font-family="Helvetica,sans-Serif" font-size="10.00">packet_flags.h</text>
</a>
</g>
</g>
<!-- Node1&#45;&gt;Node3 -->
<g id="edge2" class="edge">
<title>Node1&#45;&gt;Node3</title>
<path fill="none" stroke="midnightblue" d="M268.83,-53.17C239.46,-43 197.8,-28.59 171.6,-19.52"/>
<polygon fill="midnightblue" stroke="midnightblue" points="267.69,-56.48 278.28,-56.44 269.98,-49.86 267.69,-56.48"/>
</g>
<!-- Node4 -->
<g id="node4" class="node">
<title>Node4</title>
<g id="a_node4"><a xlink:href="arch_2default-linux_2odp_2api_2abi_2packet__flags_8h_source.html" target="_top" xlink:title=" ">
<polygon fill="white" stroke="black" points="208,-0.5 208,-19.5 294,-19.5 294,-0.5 208,-0.5"/>
<text text-anchor="middle" x="251" y="-7.5" font-family="Helvetica,sans-Serif" font-size="10.00">packet_flags.h</text>
</a>
</g>
</g>
<!-- Node1&#45;&gt;Node4 -->
<g id="edge3" class="edge">
<title>Node1&#45;&gt;Node4</title>
<path fill="none" stroke="midnightblue" d="M287.32,-48.72C278.16,-39.2 266.95,-27.56 259.43,-19.75"/>
<polygon fill="midnightblue" stroke="midnightblue" points="284.96,-51.31 294.41,-56.08 290,-46.45 284.96,-51.31"/>
</g>
<!-- Node5 -->
<g id="node5" class="node">
<title>Node5</title>
<g id="a_node5"><a xlink:href="arch_2power64-linux_2odp_2api_2abi_2packet__flags_8h_source.html" target="_top" xlink:title=" ">
<polygon fill="white" stroke="black" points="312,-0.5 312,-19.5 398,-19.5 398,-0.5 312,-0.5"/>
<text text-anchor="middle" x="355" y="-7.5" font-family="Helvetica,sans-Serif" font-size="10.00">packet_flags.h</text>
</a>
</g>
</g>
<!-- Node1&#45;&gt;Node5 -->
<g id="edge4" class="edge">
<title>Node1&#45;&gt;Node5</title>
<path fill="none" stroke="midnightblue" d="M318.68,-48.72C327.84,-39.2 339.05,-27.56 346.57,-19.75"/>
<polygon fill="midnightblue" stroke="midnightblue" points="316,-46.45 311.59,-56.08 321.04,-51.31 316,-46.45"/>
</g>
<!-- Node6 -->
<g id="node6" class="node">
<title>Node6</title>
<g id="a_node6"><a xlink:href="arch_2x86__32-linux_2odp_2api_2abi_2packet__flags_8h_source.html" target="_top" xlink:title=" ">
<polygon fill="white" stroke="black" points="416,-0.5 416,-19.5 502,-19.5 502,-0.5 416,-0.5"/>
<text text-anchor="middle" x="459" y="-7.5" font-family="Helvetica,sans-Serif" font-size="10.00">packet_flags.h</text>
</a>
</g>
</g>
<!-- Node1&#45;&gt;Node6 -->
<g id="edge5" class="edge">
<title>Node1&#45;&gt;Node6</title>
<path fill="none" stroke="midnightblue" d="M337.17,-53.17C366.54,-43 408.2,-28.59 434.4,-19.52"/>
<polygon fill="midnightblue" stroke="midnightblue" points="336.02,-49.86 327.72,-56.44 338.31,-56.48 336.02,-49.86"/>
</g>
<!-- Node7 -->
<g id="node7" class="node">
<title>Node7</title>
<g id="a_node7"><a xlink:href="arch_2x86__64-linux_2odp_2api_2abi_2packet__flags_8h_source.html" target="_top" xlink:title=" ">
<polygon fill="white" stroke="black" points="520,-0.5 520,-19.5 606,-19.5 606,-0.5 520,-0.5"/>
<text text-anchor="middle" x="563" y="-7.5" font-family="Helvetica,sans-Serif" font-size="10.00">packet_flags.h</text>
</a>
</g>
</g>
<!-- Node1&#45;&gt;Node7 -->
<g id="edge6" class="edge">
<title>Node1&#45;&gt;Node7</title>
<path fill="none" stroke="midnightblue" d="M353.99,-54.41C403.13,-44.2 476.53,-28.96 521.99,-19.52"/>
<polygon fill="midnightblue" stroke="midnightblue" points="353.28,-50.98 344.2,-56.44 354.7,-57.84 353.28,-50.98"/>
</g>
</g>
</svg>
