<?xml version="1.0" encoding="UTF-8" standalone="no"?>
<!DOCTYPE svg PUBLIC "-//W3C//DTD SVG 1.1//EN"
 "http://www.w3.org/Graphics/SVG/1.1/DTD/svg11.dtd">
<!-- Generated by graphviz version 2.43.0 (0)
 -->
<!-- Title: proto_stats_types.h Pages: 1 -->
<svg width="1265pt" height="868pt"
 viewBox="0.00 0.00 1265.00 868.00" xmlns="http://www.w3.org/2000/svg" xmlns:xlink="http://www.w3.org/1999/xlink">
<g id="graph0" class="graph" transform="scale(1 1) rotate(0) translate(4 864)">
<title>proto_stats_types.h</title>
<polygon fill="white" stroke="transparent" points="-4,4 -4,-864 1261,-864 1261,4 -4,4"/>
<!-- Node1 -->
<g id="node1" class="node">
<title>Node1</title>
<g id="a_node1"><a xlink:title="ODP proto stats types.">
<polygon fill="#bfbfbf" stroke="black" points="1092.5,-840.5 1092.5,-859.5 1205.5,-859.5 1205.5,-840.5 1092.5,-840.5"/>
<text text-anchor="middle" x="1149" y="-847.5" font-family="Helvetica,sans-Serif" font-size="10.00">proto_stats_types.h</text>
</a>
</g>
</g>
<!-- Node2 -->
<g id="node2" class="node">
<title>Node2</title>
<g id="a_node2"><a xlink:href="api_2spec_2packet_8h.html" target="_top" xlink:title="ODP packet descriptor.">
<polygon fill="white" stroke="black" points="945,-336.5 945,-355.5 1003,-355.5 1003,-336.5 945,-336.5"/>
<text text-anchor="middle" x="974" y="-343.5" font-family="Helvetica,sans-Serif" font-size="10.00">packet.h</text>
</a>
</g>
</g>
<!-- Node1&#45;&gt;Node2 -->
<g id="edge1" class="edge">
<title>Node1&#45;&gt;Node2</title>
<path fill="none" stroke="midnightblue" d="M1149,-830.25C1149,-808.36 1149,-771.05 1149,-739 1149,-739 1149,-739 1149,-457 1149,-389 1053.11,-361.4 1003.29,-351.65"/>
<polygon fill="midnightblue" stroke="midnightblue" points="1145.5,-830.44 1149,-840.44 1152.5,-830.44 1145.5,-830.44"/>
</g>
<!-- Node5 -->
<g id="node5" class="node">
<title>Node5</title>
<g id="a_node5"><a xlink:href="api_2spec_2packet__types_8h.html" target="_top" xlink:title="ODP packet types.">
<polygon fill="white" stroke="black" points="710,-784.5 710,-803.5 800,-803.5 800,-784.5 710,-784.5"/>
<text text-anchor="middle" x="755" y="-791.5" font-family="Helvetica,sans-Serif" font-size="10.00">packet_types.h</text>
</a>
</g>
</g>
<!-- Node1&#45;&gt;Node5 -->
<g id="edge4" class="edge">
<title>Node1&#45;&gt;Node5</title>
<path fill="none" stroke="midnightblue" d="M1082.12,-839.83C1001.83,-828.83 869.38,-810.68 800.22,-801.2"/>
<polygon fill="midnightblue" stroke="midnightblue" points="1081.75,-843.32 1092.13,-841.21 1082.7,-836.38 1081.75,-843.32"/>
</g>
<!-- Node45 -->
<g id="node45" class="node">
<title>Node45</title>
<g id="a_node45"><a xlink:href="api_2spec_2proto__stats_8h.html" target="_top" xlink:title="ODP Proto Stats.">
<polygon fill="white" stroke="black" points="1177,-784.5 1177,-803.5 1257,-803.5 1257,-784.5 1177,-784.5"/>
<text text-anchor="middle" x="1217" y="-791.5" font-family="Helvetica,sans-Serif" font-size="10.00">proto_stats.h</text>
</a>
</g>
</g>
<!-- Node1&#45;&gt;Node45 -->
<g id="edge75" class="edge">
<title>Node1&#45;&gt;Node45</title>
<path fill="none" stroke="midnightblue" d="M1167.76,-834.1C1180,-824.38 1195.56,-812.03 1205.88,-803.83"/>
<polygon fill="midnightblue" stroke="midnightblue" points="1165.58,-831.36 1159.93,-840.32 1169.93,-836.85 1165.58,-831.36"/>
</g>
<!-- Node3 -->
<g id="node3" class="node">
<title>Node3</title>
<g id="a_node3"><a xlink:href="api_2packet_8h.html" target="_top" xlink:title="ODP packet descriptor.">
<polygon fill="white" stroke="black" points="945,-168.5 945,-187.5 1003,-187.5 1003,-168.5 945,-168.5"/>
<text text-anchor="middle" x="974" y="-175.5" font-family="Helvetica,sans-Serif" font-size="10.00">packet.h</text>
</a>
</g>
</g>
<!-- Node2&#45;&gt;Node3 -->
<g id="edge2" class="edge">
<title>Node2&#45;&gt;Node3</title>
<path fill="none" stroke="midnightblue" d="M974,-325.93C974,-289.92 974,-213.23 974,-187.57"/>
<polygon fill="midnightblue" stroke="midnightblue" points="970.5,-326.08 974,-336.08 977.5,-326.08 970.5,-326.08"/>
</g>
<!-- Node4 -->
<g id="node4" class="node">
<title>Node4</title>
<g id="a_node4"><a xlink:href="odp__api_8h.html" target="_top" xlink:title="The OpenDataPlane API.">
<polygon fill="white" stroke="black" points="651,-0.5 651,-19.5 715,-19.5 715,-0.5 651,-0.5"/>
<text text-anchor="middle" x="683" y="-7.5" font-family="Helvetica,sans-Serif" font-size="10.00">odp_api.h</text>
</a>
</g>
</g>
<!-- Node3&#45;&gt;Node4 -->
<g id="edge3" class="edge">
<title>Node3&#45;&gt;Node4</title>
<path fill="none" stroke="midnightblue" d="M971.98,-158.28C968.02,-131.28 956.64,-81.84 925,-56 893.31,-30.11 773.61,-17.78 715.31,-13.2"/>
<polygon fill="midnightblue" stroke="midnightblue" points="968.52,-158.86 973.26,-168.34 975.47,-157.97 968.52,-158.86"/>
</g>
<!-- Node6 -->
<g id="node6" class="node">
<title>Node6</title>
<g id="a_node6"><a xlink:href="api_2packet__types_8h.html" target="_top" xlink:title="ODP packet.">
<polygon fill="white" stroke="black" points="384,-728.5 384,-747.5 474,-747.5 474,-728.5 384,-728.5"/>
<text text-anchor="middle" x="429" y="-735.5" font-family="Helvetica,sans-Serif" font-size="10.00">packet_types.h</text>
</a>
</g>
</g>
<!-- Node5&#45;&gt;Node6 -->
<g id="edge5" class="edge">
<title>Node5&#45;&gt;Node6</title>
<path fill="none" stroke="midnightblue" d="M699.44,-783.8C635.89,-773.27 533.06,-756.24 474.21,-746.49"/>
<polygon fill="midnightblue" stroke="midnightblue" points="699.23,-787.31 709.67,-785.49 700.38,-780.4 699.23,-787.31"/>
</g>
<!-- Node6&#45;&gt;Node2 -->
<g id="edge69" class="edge">
<title>Node6&#45;&gt;Node2</title>
<path fill="none" stroke="midnightblue" d="M484.49,-730.18C602.31,-712.28 874.91,-651.86 976,-468 996.55,-430.63 983.25,-376.44 976.86,-355.61"/>
<polygon fill="midnightblue" stroke="midnightblue" points="483.64,-726.77 474.25,-731.69 484.66,-733.69 483.64,-726.77"/>
</g>
<!-- Node7 -->
<g id="node7" class="node">
<title>Node7</title>
<g id="a_node7"><a xlink:href="api_2spec_2comp_8h.html" target="_top" xlink:title="ODP Compression.">
<polygon fill="white" stroke="black" points="1067.5,-672.5 1067.5,-691.5 1120.5,-691.5 1120.5,-672.5 1067.5,-672.5"/>
<text text-anchor="middle" x="1094" y="-679.5" font-family="Helvetica,sans-Serif" font-size="10.00">comp.h</text>
</a>
</g>
</g>
<!-- Node6&#45;&gt;Node7 -->
<g id="edge6" class="edge">
<title>Node6&#45;&gt;Node7</title>
<path fill="none" stroke="midnightblue" d="M484.51,-736.26C594.57,-734.07 848.01,-725.5 1058,-692 1061.05,-691.51 1064.23,-690.89 1067.37,-690.2"/>
<polygon fill="midnightblue" stroke="midnightblue" points="484.24,-732.76 474.31,-736.45 484.37,-739.76 484.24,-732.76"/>
</g>
<!-- Node9 -->
<g id="node9" class="node">
<title>Node9</title>
<g id="a_node9"><a xlink:href="api_2spec_2crypto_8h.html" target="_top" xlink:title="ODP crypto.">
<polygon fill="white" stroke="black" points="0,-224.5 0,-243.5 56,-243.5 56,-224.5 0,-224.5"/>
<text text-anchor="middle" x="28" y="-231.5" font-family="Helvetica,sans-Serif" font-size="10.00">crypto.h</text>
</a>
</g>
</g>
<!-- Node6&#45;&gt;Node9 -->
<g id="edge9" class="edge">
<title>Node6&#45;&gt;Node9</title>
<path fill="none" stroke="midnightblue" d="M373.75,-736.73C284.18,-735.24 112.53,-727.65 65,-692 39.84,-673.13 37,-658.46 37,-627 37,-627 37,-627 37,-345 37,-307.06 31.62,-262.01 29.18,-243.54"/>
<polygon fill="midnightblue" stroke="midnightblue" points="373.93,-740.23 383.99,-736.88 374.04,-733.24 373.93,-740.23"/>
</g>
<!-- Node11 -->
<g id="node11" class="node">
<title>Node11</title>
<g id="a_node11"><a xlink:href="api_2spec_2crypto__types_8h.html" target="_top" xlink:title="ODP crypto types.">
<polygon fill="white" stroke="black" points="134.5,-448.5 134.5,-467.5 223.5,-467.5 223.5,-448.5 134.5,-448.5"/>
<text text-anchor="middle" x="179" y="-455.5" font-family="Helvetica,sans-Serif" font-size="10.00">crypto_types.h</text>
</a>
</g>
</g>
<!-- Node6&#45;&gt;Node11 -->
<g id="edge12" class="edge">
<title>Node6&#45;&gt;Node11</title>
<path fill="none" stroke="midnightblue" d="M373.52,-734.42C304.6,-727.88 196,-705.18 196,-627 196,-627 196,-627 196,-569 196,-530.93 185.93,-486.31 181.29,-467.77"/>
<polygon fill="midnightblue" stroke="midnightblue" points="373.54,-737.93 383.8,-735.3 374.14,-730.96 373.54,-737.93"/>
</g>
<!-- Node13 -->
<g id="node13" class="node">
<title>Node13</title>
<g id="a_node13"><a xlink:href="api_2spec_2ipsec_8h.html" target="_top" xlink:title="ODP IPsec API.">
<polygon fill="white" stroke="black" points="164.5,-112.5 164.5,-131.5 215.5,-131.5 215.5,-112.5 164.5,-112.5"/>
<text text-anchor="middle" x="190" y="-119.5" font-family="Helvetica,sans-Serif" font-size="10.00">ipsec.h</text>
</a>
</g>
</g>
<!-- Node6&#45;&gt;Node13 -->
<g id="edge68" class="edge">
<title>Node6&#45;&gt;Node13</title>
<path fill="none" stroke="midnightblue" d="M373.87,-731.22C275.29,-719.36 79,-688.06 79,-627 79,-627 79,-627 79,-345 79,-252.79 156.57,-159.61 182.02,-131.52"/>
<polygon fill="midnightblue" stroke="midnightblue" points="373.62,-734.72 383.96,-732.41 374.44,-727.77 373.62,-734.72"/>
</g>
<!-- Node17 -->
<g id="node17" class="node">
<title>Node17</title>
<g id="a_node17"><a xlink:href="api_2spec_2dma__types_8h.html" target="_top" xlink:title="ODP DMA.">
<polygon fill="white" stroke="black" points="534,-672.5 534,-691.5 614,-691.5 614,-672.5 534,-672.5"/>
<text text-anchor="middle" x="574" y="-679.5" font-family="Helvetica,sans-Serif" font-size="10.00">dma_types.h</text>
</a>
</g>
</g>
<!-- Node6&#45;&gt;Node17 -->
<g id="edge21" class="edge">
<title>Node6&#45;&gt;Node17</title>
<path fill="none" stroke="midnightblue" d="M461.48,-724.91C488.74,-714.75 526.99,-700.51 551.13,-691.52"/>
<polygon fill="midnightblue" stroke="midnightblue" points="460.13,-721.67 451.98,-728.44 462.57,-728.23 460.13,-721.67"/>
</g>
<!-- Node27 -->
<g id="node27" class="node">
<title>Node27</title>
<g id="a_node27"><a xlink:href="api_2spec_2packet__io_8h.html" target="_top" xlink:title="ODP Packet IO.">
<polygon fill="white" stroke="black" points="370,-224.5 370,-243.5 442,-243.5 442,-224.5 370,-224.5"/>
<text text-anchor="middle" x="406" y="-231.5" font-family="Helvetica,sans-Serif" font-size="10.00">packet_io.h</text>
</a>
</g>
</g>
<!-- Node6&#45;&gt;Node27 -->
<g id="edge73" class="edge">
<title>Node6&#45;&gt;Node27</title>
<path fill="none" stroke="midnightblue" d="M374.08,-726.89C322.11,-713.78 252,-685.29 252,-627 252,-627 252,-627 252,-513 252,-433.21 236.09,-401.25 282,-336 300.78,-309.31 320.4,-320.24 346,-300 367.93,-282.67 389,-257.13 399.35,-243.81"/>
<polygon fill="midnightblue" stroke="midnightblue" points="373.34,-730.31 383.88,-729.24 374.97,-723.51 373.34,-730.31"/>
</g>
<!-- Node29 -->
<g id="node29" class="node">
<title>Node29</title>
<g id="a_node29"><a xlink:href="api_2spec_2event_8h.html" target="_top" xlink:title="ODP event.">
<polygon fill="white" stroke="black" points="402.5,-448.5 402.5,-467.5 455.5,-467.5 455.5,-448.5 402.5,-448.5"/>
<text text-anchor="middle" x="429" y="-455.5" font-family="Helvetica,sans-Serif" font-size="10.00">event.h</text>
</a>
</g>
</g>
<!-- Node6&#45;&gt;Node29 -->
<g id="edge67" class="edge">
<title>Node6&#45;&gt;Node29</title>
<path fill="none" stroke="midnightblue" d="M429,-718.25C429,-696.36 429,-659.05 429,-627 429,-627 429,-627 429,-569 429,-531.19 429,-486.06 429,-467.56"/>
<polygon fill="midnightblue" stroke="midnightblue" points="425.5,-718.44 429,-728.44 432.5,-718.44 425.5,-718.44"/>
</g>
<!-- Node35 -->
<g id="node35" class="node">
<title>Node35</title>
<g id="a_node35"><a xlink:href="api_2spec_2packet__io__types_8h.html" target="_top" xlink:title="ODP Packet IO types.">
<polygon fill="white" stroke="black" points="280,-448.5 280,-467.5 384,-467.5 384,-448.5 280,-448.5"/>
<text text-anchor="middle" x="332" y="-455.5" font-family="Helvetica,sans-Serif" font-size="10.00">packet_io_types.h</text>
</a>
</g>
</g>
<!-- Node6&#45;&gt;Node35 -->
<g id="edge74" class="edge">
<title>Node6&#45;&gt;Node35</title>
<path fill="none" stroke="midnightblue" d="M411.84,-721.41C391.99,-701.58 362,-665.3 362,-627 362,-627 362,-627 362,-569 362,-530 344.23,-485.89 336.05,-467.62"/>
<polygon fill="midnightblue" stroke="midnightblue" points="409.48,-724 419.11,-728.4 414.33,-718.95 409.48,-724"/>
</g>
<!-- Node43 -->
<g id="node43" class="node">
<title>Node43</title>
<g id="a_node43"><a xlink:href="api_2spec_2packet__flags_8h.html" target="_top" xlink:title="ODP packet flags.">
<polygon fill="white" stroke="black" points="963,-672.5 963,-691.5 1049,-691.5 1049,-672.5 963,-672.5"/>
<text text-anchor="middle" x="1006" y="-679.5" font-family="Helvetica,sans-Serif" font-size="10.00">packet_flags.h</text>
</a>
</g>
</g>
<!-- Node6&#45;&gt;Node43 -->
<g id="edge70" class="edge">
<title>Node6&#45;&gt;Node43</title>
<path fill="none" stroke="midnightblue" d="M484.59,-733.48C579.85,-727.15 780.37,-712.58 949,-692 953.48,-691.45 958.14,-690.82 962.78,-690.15"/>
<polygon fill="midnightblue" stroke="midnightblue" points="484.07,-730 474.32,-734.15 484.53,-736.99 484.07,-730"/>
</g>
<!-- Node8 -->
<g id="node8" class="node">
<title>Node8</title>
<g id="a_node8"><a xlink:href="api_2comp_8h.html" target="_top" xlink:title="ODP crypto.">
<polygon fill="white" stroke="black" points="1067.5,-504.5 1067.5,-523.5 1120.5,-523.5 1120.5,-504.5 1067.5,-504.5"/>
<text text-anchor="middle" x="1094" y="-511.5" font-family="Helvetica,sans-Serif" font-size="10.00">comp.h</text>
</a>
</g>
</g>
<!-- Node7&#45;&gt;Node8 -->
<g id="edge7" class="edge">
<title>Node7&#45;&gt;Node8</title>
<path fill="none" stroke="midnightblue" d="M1094,-661.93C1094,-625.92 1094,-549.23 1094,-523.57"/>
<polygon fill="midnightblue" stroke="midnightblue" points="1090.5,-662.08 1094,-672.08 1097.5,-662.08 1090.5,-662.08"/>
</g>
<!-- Node8&#45;&gt;Node4 -->
<g id="edge8" class="edge">
<title>Node8&#45;&gt;Node4</title>
<path fill="none" stroke="midnightblue" d="M1094.82,-494.26C1095.71,-472.37 1097,-435.06 1097,-403 1097,-403 1097,-403 1097,-121 1097,-42.08 812.41,-18.41 715.14,-12.62"/>
<polygon fill="midnightblue" stroke="midnightblue" points="1091.32,-494.31 1094.39,-504.44 1098.31,-494.6 1091.32,-494.31"/>
</g>
<!-- Node10 -->
<g id="node10" class="node">
<title>Node10</title>
<g id="a_node10"><a xlink:href="api_2crypto_8h.html" target="_top" xlink:title="ODP crypto.">
<polygon fill="white" stroke="black" points="50,-112.5 50,-131.5 106,-131.5 106,-112.5 50,-112.5"/>
<text text-anchor="middle" x="78" y="-119.5" font-family="Helvetica,sans-Serif" font-size="10.00">crypto.h</text>
</a>
</g>
</g>
<!-- Node9&#45;&gt;Node10 -->
<g id="edge10" class="edge">
<title>Node9&#45;&gt;Node10</title>
<path fill="none" stroke="midnightblue" d="M36.18,-215C47.09,-191 65.97,-149.47 74.09,-131.59"/>
<polygon fill="midnightblue" stroke="midnightblue" points="32.88,-213.82 31.92,-224.37 39.25,-216.71 32.88,-213.82"/>
</g>
<!-- Node10&#45;&gt;Node4 -->
<g id="edge11" class="edge">
<title>Node10&#45;&gt;Node4</title>
<path fill="none" stroke="midnightblue" d="M97.39,-106.33C118.97,-90.87 155.51,-67.24 191,-56 277.27,-28.69 555.56,-15.83 650.73,-12.15"/>
<polygon fill="midnightblue" stroke="midnightblue" points="95.1,-103.67 89.1,-112.4 99.23,-109.32 95.1,-103.67"/>
</g>
<!-- Node12 -->
<g id="node12" class="node">
<title>Node12</title>
<g id="a_node12"><a xlink:href="api_2crypto__types_8h.html" target="_top" xlink:title="ODP crypto.">
<polygon fill="white" stroke="black" points="107.5,-280.5 107.5,-299.5 196.5,-299.5 196.5,-280.5 107.5,-280.5"/>
<text text-anchor="middle" x="152" y="-287.5" font-family="Helvetica,sans-Serif" font-size="10.00">crypto_types.h</text>
</a>
</g>
</g>
<!-- Node11&#45;&gt;Node12 -->
<g id="edge13" class="edge">
<title>Node11&#45;&gt;Node12</title>
<path fill="none" stroke="midnightblue" d="M175.9,-437.93C170.04,-401.92 157.57,-325.23 153.39,-299.57"/>
<polygon fill="midnightblue" stroke="midnightblue" points="172.49,-438.77 177.55,-448.08 179.4,-437.64 172.49,-438.77"/>
</g>
<!-- Node12&#45;&gt;Node9 -->
<g id="edge14" class="edge">
<title>Node12&#45;&gt;Node9</title>
<path fill="none" stroke="midnightblue" d="M122.99,-276.37C99.77,-266.26 67.84,-252.35 47.56,-243.52"/>
<polygon fill="midnightblue" stroke="midnightblue" points="121.79,-279.66 132.35,-280.44 124.58,-273.24 121.79,-279.66"/>
</g>
<!-- Node12&#45;&gt;Node13 -->
<g id="edge15" class="edge">
<title>Node12&#45;&gt;Node13</title>
<path fill="none" stroke="midnightblue" d="M154.45,-270.23C157.8,-246.27 164.49,-203.63 174,-168 177.42,-155.18 182.82,-140.81 186.38,-131.83"/>
<polygon fill="midnightblue" stroke="midnightblue" points="150.95,-270.01 153.08,-280.39 157.89,-270.95 150.95,-270.01"/>
</g>
<!-- Node15 -->
<g id="node15" class="node">
<title>Node15</title>
<g id="a_node15"><a xlink:href="api_2spec_2ipsec__types_8h.html" target="_top" xlink:title="ODP IPsec API type definitions.">
<polygon fill="white" stroke="black" points="183.5,-224.5 183.5,-243.5 266.5,-243.5 266.5,-224.5 183.5,-224.5"/>
<text text-anchor="middle" x="225" y="-231.5" font-family="Helvetica,sans-Serif" font-size="10.00">ipsec_types.h</text>
</a>
</g>
</g>
<!-- Node12&#45;&gt;Node15 -->
<g id="edge18" class="edge">
<title>Node12&#45;&gt;Node15</title>
<path fill="none" stroke="midnightblue" d="M172.14,-274.1C185.28,-264.38 201.98,-252.03 213.06,-243.83"/>
<polygon fill="midnightblue" stroke="midnightblue" points="169.69,-271.56 163.73,-280.32 173.85,-277.19 169.69,-271.56"/>
</g>
<!-- Node14 -->
<g id="node14" class="node">
<title>Node14</title>
<g id="a_node14"><a xlink:href="api_2ipsec_8h.html" target="_top" xlink:title="ODP IPSEC API &#45; platform specific header.">
<polygon fill="white" stroke="black" points="200.5,-56.5 200.5,-75.5 251.5,-75.5 251.5,-56.5 200.5,-56.5"/>
<text text-anchor="middle" x="226" y="-63.5" font-family="Helvetica,sans-Serif" font-size="10.00">ipsec.h</text>
</a>
</g>
</g>
<!-- Node13&#45;&gt;Node14 -->
<g id="edge16" class="edge">
<title>Node13&#45;&gt;Node14</title>
<path fill="none" stroke="midnightblue" d="M201.62,-103.57C207.82,-94.27 215.17,-83.25 220.17,-75.75"/>
<polygon fill="midnightblue" stroke="midnightblue" points="198.58,-101.82 195.94,-112.08 204.4,-105.7 198.58,-101.82"/>
</g>
<!-- Node14&#45;&gt;Node4 -->
<g id="edge17" class="edge">
<title>Node14&#45;&gt;Node4</title>
<path fill="none" stroke="midnightblue" d="M261.66,-60.79C348.14,-50.57 568.02,-24.59 650.81,-14.8"/>
<polygon fill="midnightblue" stroke="midnightblue" points="261.07,-57.33 251.55,-61.98 261.89,-64.28 261.07,-57.33"/>
</g>
<!-- Node16 -->
<g id="node16" class="node">
<title>Node16</title>
<g id="a_node16"><a xlink:href="api_2ipsec__types_8h.html" target="_top" xlink:title="ODP IPsec.">
<polygon fill="white" stroke="black" points="183.5,-168.5 183.5,-187.5 266.5,-187.5 266.5,-168.5 183.5,-168.5"/>
<text text-anchor="middle" x="225" y="-175.5" font-family="Helvetica,sans-Serif" font-size="10.00">ipsec_types.h</text>
</a>
</g>
</g>
<!-- Node15&#45;&gt;Node16 -->
<g id="edge19" class="edge">
<title>Node15&#45;&gt;Node16</title>
<path fill="none" stroke="midnightblue" d="M225,-213.8C225,-204.91 225,-194.78 225,-187.75"/>
<polygon fill="midnightblue" stroke="midnightblue" points="221.5,-214.08 225,-224.08 228.5,-214.08 221.5,-214.08"/>
</g>
<!-- Node16&#45;&gt;Node13 -->
<g id="edge20" class="edge">
<title>Node16&#45;&gt;Node13</title>
<path fill="none" stroke="midnightblue" d="M213.7,-159.57C207.68,-150.27 200.53,-139.25 195.67,-131.75"/>
<polygon fill="midnightblue" stroke="midnightblue" points="210.84,-161.6 219.22,-168.08 216.72,-157.79 210.84,-161.6"/>
</g>
<!-- Node18 -->
<g id="node18" class="node">
<title>Node18</title>
<g id="a_node18"><a xlink:href="api_2dma__types_8h.html" target="_top" xlink:title="ODP DMA.">
<polygon fill="white" stroke="black" points="602,-616.5 602,-635.5 682,-635.5 682,-616.5 602,-616.5"/>
<text text-anchor="middle" x="642" y="-623.5" font-family="Helvetica,sans-Serif" font-size="10.00">dma_types.h</text>
</a>
</g>
</g>
<!-- Node17&#45;&gt;Node18 -->
<g id="edge22" class="edge">
<title>Node17&#45;&gt;Node18</title>
<path fill="none" stroke="midnightblue" d="M592.76,-666.1C605,-656.38 620.56,-644.03 630.88,-635.83"/>
<polygon fill="midnightblue" stroke="midnightblue" points="590.58,-663.36 584.93,-672.32 594.93,-668.85 590.58,-663.36"/>
</g>
<!-- Node19 -->
<g id="node19" class="node">
<title>Node19</title>
<g id="a_node19"><a xlink:href="api_2spec_2dma_8h.html" target="_top" xlink:title="ODP DMA.">
<polygon fill="white" stroke="black" points="920.5,-448.5 920.5,-467.5 967.5,-467.5 967.5,-448.5 920.5,-448.5"/>
<text text-anchor="middle" x="944" y="-455.5" font-family="Helvetica,sans-Serif" font-size="10.00">dma.h</text>
</a>
</g>
</g>
<!-- Node18&#45;&gt;Node19 -->
<g id="edge23" class="edge">
<title>Node18&#45;&gt;Node19</title>
<path fill="none" stroke="midnightblue" d="M666.62,-611.47C726.6,-578.5 879.03,-494.71 928.34,-467.61"/>
<polygon fill="midnightblue" stroke="midnightblue" points="664.89,-608.42 657.81,-616.31 668.26,-614.56 664.89,-608.42"/>
</g>
<!-- Node21 -->
<g id="node21" class="node">
<title>Node21</title>
<g id="a_node21"><a xlink:href="api_2spec_2pool__types_8h.html" target="_top" xlink:title="Type definitions for pools.">
<polygon fill="white" stroke="black" points="602.5,-560.5 602.5,-579.5 681.5,-579.5 681.5,-560.5 602.5,-560.5"/>
<text text-anchor="middle" x="642" y="-567.5" font-family="Helvetica,sans-Serif" font-size="10.00">pool_types.h</text>
</a>
</g>
</g>
<!-- Node18&#45;&gt;Node21 -->
<g id="edge26" class="edge">
<title>Node18&#45;&gt;Node21</title>
<path fill="none" stroke="midnightblue" d="M642,-605.8C642,-596.91 642,-586.78 642,-579.75"/>
<polygon fill="midnightblue" stroke="midnightblue" points="638.5,-606.08 642,-616.08 645.5,-606.08 638.5,-606.08"/>
</g>
<!-- Node20 -->
<g id="node20" class="node">
<title>Node20</title>
<g id="a_node20"><a xlink:href="api_2dma_8h.html" target="_top" xlink:title="ODP DMA.">
<polygon fill="white" stroke="black" points="869.5,-56.5 869.5,-75.5 916.5,-75.5 916.5,-56.5 869.5,-56.5"/>
<text text-anchor="middle" x="893" y="-63.5" font-family="Helvetica,sans-Serif" font-size="10.00">dma.h</text>
</a>
</g>
</g>
<!-- Node19&#45;&gt;Node20 -->
<g id="edge24" class="edge">
<title>Node19&#45;&gt;Node20</title>
<path fill="none" stroke="midnightblue" d="M938.96,-438.4C931.15,-407.87 917,-345.11 917,-291 917,-291 917,-291 917,-177 917,-138.49 902.79,-94.11 896.24,-75.7"/>
<polygon fill="midnightblue" stroke="midnightblue" points="935.67,-439.66 941.6,-448.44 942.44,-437.88 935.67,-439.66"/>
</g>
<!-- Node20&#45;&gt;Node4 -->
<g id="edge25" class="edge">
<title>Node20&#45;&gt;Node4</title>
<path fill="none" stroke="midnightblue" d="M859.59,-56.41C819.93,-46.21 754.25,-29.32 715.15,-19.27"/>
<polygon fill="midnightblue" stroke="midnightblue" points="858.76,-59.81 869.32,-58.91 860.51,-53.03 858.76,-59.81"/>
</g>
<!-- Node22 -->
<g id="node22" class="node">
<title>Node22</title>
<g id="a_node22"><a xlink:href="api_2pool__types_8h.html" target="_top" xlink:title="ODP pool.">
<polygon fill="white" stroke="black" points="568.5,-504.5 568.5,-523.5 647.5,-523.5 647.5,-504.5 568.5,-504.5"/>
<text text-anchor="middle" x="608" y="-511.5" font-family="Helvetica,sans-Serif" font-size="10.00">pool_types.h</text>
</a>
</g>
</g>
<!-- Node21&#45;&gt;Node22 -->
<g id="edge27" class="edge">
<title>Node21&#45;&gt;Node22</title>
<path fill="none" stroke="midnightblue" d="M631.02,-551.57C625.17,-542.27 618.23,-531.25 613.51,-523.75"/>
<polygon fill="midnightblue" stroke="midnightblue" points="628.1,-553.49 636.39,-560.08 634.02,-549.76 628.1,-553.49"/>
</g>
<!-- Node22&#45;&gt;Node2 -->
<g id="edge50" class="edge">
<title>Node22&#45;&gt;Node2</title>
<path fill="none" stroke="midnightblue" d="M657.93,-508.6C724.02,-502.09 836.33,-488.41 872,-468 921.13,-439.9 957.24,-378.67 969.47,-355.83"/>
<polygon fill="midnightblue" stroke="midnightblue" points="657.36,-505.14 647.74,-509.59 658.03,-512.11 657.36,-505.14"/>
</g>
<!-- Node22&#45;&gt;Node11 -->
<g id="edge38" class="edge">
<title>Node22&#45;&gt;Node11</title>
<path fill="none" stroke="midnightblue" d="M558.32,-506.75C474.03,-496.14 304.3,-474.77 223.6,-464.61"/>
<polygon fill="midnightblue" stroke="midnightblue" points="558.05,-510.24 568.41,-508.02 558.93,-503.3 558.05,-510.24"/>
</g>
<!-- Node22&#45;&gt;Node17 -->
<g id="edge40" class="edge">
<title>Node22&#45;&gt;Node17</title>
<path fill="none" stroke="midnightblue" d="M601.22,-533.05C598.36,-541.19 595.19,-550.99 593,-560 582.89,-601.53 576.94,-652.44 574.85,-672.4"/>
<polygon fill="midnightblue" stroke="midnightblue" points="604.56,-534.1 604.69,-523.5 597.99,-531.7 604.56,-534.1"/>
</g>
<!-- Node22&#45;&gt;Node19 -->
<g id="edge39" class="edge">
<title>Node22&#45;&gt;Node19</title>
<path fill="none" stroke="midnightblue" d="M657.93,-506.74C717.29,-499.01 819.26,-484.79 906,-468 910.66,-467.1 915.61,-466.02 920.35,-464.92"/>
<polygon fill="midnightblue" stroke="midnightblue" points="657.17,-503.31 647.71,-508.07 658.07,-510.25 657.17,-503.31"/>
</g>
<!-- Node23 -->
<g id="node23" class="node">
<title>Node23</title>
<g id="a_node23"><a xlink:href="api_2spec_2buffer_8h.html" target="_top" xlink:title="ODP buffer.">
<polygon fill="white" stroke="black" points="581.5,-448.5 581.5,-467.5 634.5,-467.5 634.5,-448.5 581.5,-448.5"/>
<text text-anchor="middle" x="608" y="-455.5" font-family="Helvetica,sans-Serif" font-size="10.00">buffer.h</text>
</a>
</g>
</g>
<!-- Node22&#45;&gt;Node23 -->
<g id="edge28" class="edge">
<title>Node22&#45;&gt;Node23</title>
<path fill="none" stroke="midnightblue" d="M608,-493.8C608,-484.91 608,-474.78 608,-467.75"/>
<polygon fill="midnightblue" stroke="midnightblue" points="604.5,-494.08 608,-504.08 611.5,-494.08 604.5,-494.08"/>
</g>
<!-- Node25 -->
<g id="node25" class="node">
<title>Node25</title>
<g id="a_node25"><a xlink:href="api_2spec_2classification_8h.html" target="_top" xlink:title="ODP classification descriptor.">
<polygon fill="white" stroke="black" points="431.5,-336.5 431.5,-355.5 520.5,-355.5 520.5,-336.5 431.5,-336.5"/>
<text text-anchor="middle" x="476" y="-343.5" font-family="Helvetica,sans-Serif" font-size="10.00">classification.h</text>
</a>
</g>
</g>
<!-- Node22&#45;&gt;Node25 -->
<g id="edge31" class="edge">
<title>Node22&#45;&gt;Node25</title>
<path fill="none" stroke="midnightblue" d="M558.79,-502.4C538.78,-495.71 517.1,-484.98 503,-468 474.96,-434.21 474.46,-377.44 475.42,-355.77"/>
<polygon fill="midnightblue" stroke="midnightblue" points="557.85,-505.77 568.44,-505.37 559.91,-499.08 557.85,-505.77"/>
</g>
<!-- Node22&#45;&gt;Node29 -->
<g id="edge41" class="edge">
<title>Node22&#45;&gt;Node29</title>
<path fill="none" stroke="midnightblue" d="M569.96,-501.52C535.65,-491.17 486.06,-476.21 455.77,-467.08"/>
<polygon fill="midnightblue" stroke="midnightblue" points="569.05,-504.91 579.64,-504.44 571.07,-498.2 569.05,-504.91"/>
</g>
<!-- Node31 -->
<g id="node31" class="node">
<title>Node31</title>
<g id="a_node31"><a xlink:href="api_2spec_2event__vector_8h.html" target="_top" xlink:title="ODP event vector.">
<polygon fill="white" stroke="black" points="652.5,-448.5 652.5,-467.5 741.5,-467.5 741.5,-448.5 652.5,-448.5"/>
<text text-anchor="middle" x="697" y="-455.5" font-family="Helvetica,sans-Serif" font-size="10.00">event_vector.h</text>
</a>
</g>
</g>
<!-- Node22&#45;&gt;Node31 -->
<g id="edge44" class="edge">
<title>Node22&#45;&gt;Node31</title>
<path fill="none" stroke="midnightblue" d="M631.24,-498.9C647.56,-489 668.87,-476.07 682.74,-467.65"/>
<polygon fill="midnightblue" stroke="midnightblue" points="629.03,-496.14 622.3,-504.32 632.66,-502.13 629.03,-496.14"/>
</g>
<!-- Node33 -->
<g id="node33" class="node">
<title>Node33</title>
<g id="a_node33"><a xlink:href="spec_2ml_8h.html" target="_top" xlink:title="ODP Machine Learning (ML) offload.">
<polygon fill="white" stroke="black" points="760,-448.5 760,-467.5 798,-467.5 798,-448.5 760,-448.5"/>
<text text-anchor="middle" x="779" y="-455.5" font-family="Helvetica,sans-Serif" font-size="10.00">ml.h</text>
</a>
</g>
</g>
<!-- Node22&#45;&gt;Node33 -->
<g id="edge47" class="edge">
<title>Node22&#45;&gt;Node33</title>
<path fill="none" stroke="midnightblue" d="M645.05,-501.3C680.42,-490.13 732.31,-473.75 759.97,-465.01"/>
<polygon fill="midnightblue" stroke="midnightblue" points="643.58,-498.09 635.1,-504.44 645.69,-504.77 643.58,-498.09"/>
</g>
<!-- Node22&#45;&gt;Node35 -->
<g id="edge51" class="edge">
<title>Node22&#45;&gt;Node35</title>
<path fill="none" stroke="midnightblue" d="M558.45,-503.3C506.38,-493.12 425.27,-477.25 375.57,-467.52"/>
<polygon fill="midnightblue" stroke="midnightblue" points="557.97,-506.78 568.46,-505.26 559.31,-499.91 557.97,-506.78"/>
</g>
<!-- Node39 -->
<g id="node39" class="node">
<title>Node39</title>
<g id="a_node39"><a xlink:href="api_2spec_2pool_8h.html" target="_top" xlink:title="ODP pool.">
<polygon fill="white" stroke="black" points="816.5,-448.5 816.5,-467.5 863.5,-467.5 863.5,-448.5 816.5,-448.5"/>
<text text-anchor="middle" x="840" y="-455.5" font-family="Helvetica,sans-Serif" font-size="10.00">pool.h</text>
</a>
</g>
</g>
<!-- Node22&#45;&gt;Node39 -->
<g id="edge61" class="edge">
<title>Node22&#45;&gt;Node39</title>
<path fill="none" stroke="midnightblue" d="M657.62,-502.41C697.97,-493.65 756.31,-480.64 807,-468 810,-467.25 813.14,-466.44 816.24,-465.61"/>
<polygon fill="midnightblue" stroke="midnightblue" points="656.8,-499.01 647.77,-504.55 658.28,-505.85 656.8,-499.01"/>
</g>
<!-- Node41 -->
<g id="node41" class="node">
<title>Node41</title>
<g id="a_node41"><a xlink:href="api_2spec_2timer_8h.html" target="_top" xlink:title="ODP timer service.">
<polygon fill="white" stroke="black" points="512.5,-448.5 512.5,-467.5 563.5,-467.5 563.5,-448.5 512.5,-448.5"/>
<text text-anchor="middle" x="538" y="-455.5" font-family="Helvetica,sans-Serif" font-size="10.00">timer.h</text>
</a>
</g>
</g>
<!-- Node22&#45;&gt;Node41 -->
<g id="edge64" class="edge">
<title>Node22&#45;&gt;Node41</title>
<path fill="none" stroke="midnightblue" d="M588.69,-498.1C576.09,-488.38 560.07,-476.03 549.45,-467.83"/>
<polygon fill="midnightblue" stroke="midnightblue" points="586.7,-500.99 596.75,-504.32 590.97,-495.44 586.7,-500.99"/>
</g>
<!-- Node24 -->
<g id="node24" class="node">
<title>Node24</title>
<g id="a_node24"><a xlink:href="api_2buffer_8h.html" target="_top" xlink:title="ODP buffer descriptor.">
<polygon fill="white" stroke="black" points="619.5,-112.5 619.5,-131.5 672.5,-131.5 672.5,-112.5 619.5,-112.5"/>
<text text-anchor="middle" x="646" y="-119.5" font-family="Helvetica,sans-Serif" font-size="10.00">buffer.h</text>
</a>
</g>
</g>
<!-- Node23&#45;&gt;Node24 -->
<g id="edge29" class="edge">
<title>Node23&#45;&gt;Node24</title>
<path fill="none" stroke="midnightblue" d="M613.77,-438.43C619.98,-416.72 629,-379.62 629,-347 629,-347 629,-347 629,-233 629,-194.93 639.07,-150.31 643.71,-131.77"/>
<polygon fill="midnightblue" stroke="midnightblue" points="610.33,-437.68 610.83,-448.27 617.04,-439.68 610.33,-437.68"/>
</g>
<!-- Node24&#45;&gt;Node4 -->
<g id="edge30" class="edge">
<title>Node24&#45;&gt;Node4</title>
<path fill="none" stroke="midnightblue" d="M652.16,-102.67C660.25,-78.62 674.12,-37.39 680.11,-19.59"/>
<polygon fill="midnightblue" stroke="midnightblue" points="648.77,-101.77 648.9,-112.37 655.41,-104.01 648.77,-101.77"/>
</g>
<!-- Node26 -->
<g id="node26" class="node">
<title>Node26</title>
<g id="a_node26"><a xlink:href="api_2classification_8h.html" target="_top" xlink:title="ODP classification descriptor.">
<polygon fill="white" stroke="black" points="431.5,-280.5 431.5,-299.5 520.5,-299.5 520.5,-280.5 431.5,-280.5"/>
<text text-anchor="middle" x="476" y="-287.5" font-family="Helvetica,sans-Serif" font-size="10.00">classification.h</text>
</a>
</g>
</g>
<!-- Node25&#45;&gt;Node26 -->
<g id="edge32" class="edge">
<title>Node25&#45;&gt;Node26</title>
<path fill="none" stroke="midnightblue" d="M476,-325.8C476,-316.91 476,-306.78 476,-299.75"/>
<polygon fill="midnightblue" stroke="midnightblue" points="472.5,-326.08 476,-336.08 479.5,-326.08 472.5,-326.08"/>
</g>
<!-- Node26&#45;&gt;Node4 -->
<g id="edge37" class="edge">
<title>Node26&#45;&gt;Node4</title>
<path fill="none" stroke="midnightblue" d="M476.82,-270.26C477.71,-248.37 479,-211.06 479,-179 479,-179 479,-179 479,-121 479,-90.64 477.78,-76.69 500,-56 521.67,-35.82 604.18,-21.68 650.66,-15.13"/>
<polygon fill="midnightblue" stroke="midnightblue" points="473.32,-270.31 476.39,-280.44 480.31,-270.6 473.32,-270.31"/>
</g>
<!-- Node26&#45;&gt;Node15 -->
<g id="edge33" class="edge">
<title>Node26&#45;&gt;Node15</title>
<path fill="none" stroke="midnightblue" d="M426.18,-278.28C378.75,-268.08 308.3,-252.92 264.59,-243.52"/>
<polygon fill="midnightblue" stroke="midnightblue" points="425.72,-281.76 436.23,-280.44 427.19,-274.92 425.72,-281.76"/>
</g>
<!-- Node26&#45;&gt;Node27 -->
<g id="edge34" class="edge">
<title>Node26&#45;&gt;Node27</title>
<path fill="none" stroke="midnightblue" d="M456.69,-274.1C444.09,-264.38 428.07,-252.03 417.45,-243.83"/>
<polygon fill="midnightblue" stroke="midnightblue" points="454.7,-276.99 464.75,-280.32 458.97,-271.44 454.7,-276.99"/>
</g>
<!-- Node28 -->
<g id="node28" class="node">
<title>Node28</title>
<g id="a_node28"><a xlink:href="api_2packet__io_8h.html" target="_top" xlink:title="ODP Packet IO.">
<polygon fill="white" stroke="black" points="376,-168.5 376,-187.5 448,-187.5 448,-168.5 376,-168.5"/>
<text text-anchor="middle" x="412" y="-175.5" font-family="Helvetica,sans-Serif" font-size="10.00">packet_io.h</text>
</a>
</g>
</g>
<!-- Node27&#45;&gt;Node28 -->
<g id="edge35" class="edge">
<title>Node27&#45;&gt;Node28</title>
<path fill="none" stroke="midnightblue" d="M408.1,-214.1C409.1,-205.14 410.24,-194.86 411.03,-187.75"/>
<polygon fill="midnightblue" stroke="midnightblue" points="404.62,-213.76 406.99,-224.08 411.57,-214.53 404.62,-213.76"/>
</g>
<!-- Node28&#45;&gt;Node4 -->
<g id="edge36" class="edge">
<title>Node28&#45;&gt;Node4</title>
<path fill="none" stroke="midnightblue" d="M414.74,-158.32C419.71,-131.38 432.88,-82.02 465,-56 493.15,-33.2 597.01,-19.66 650.58,-14.04"/>
<polygon fill="midnightblue" stroke="midnightblue" points="411.26,-157.92 413.07,-168.36 418.16,-159.07 411.26,-157.92"/>
</g>
<!-- Node30 -->
<g id="node30" class="node">
<title>Node30</title>
<g id="a_node30"><a xlink:href="api_2event_8h.html" target="_top" xlink:title="ODP event.">
<polygon fill="white" stroke="black" points="509.5,-56.5 509.5,-75.5 562.5,-75.5 562.5,-56.5 509.5,-56.5"/>
<text text-anchor="middle" x="536" y="-63.5" font-family="Helvetica,sans-Serif" font-size="10.00">event.h</text>
</a>
</g>
</g>
<!-- Node29&#45;&gt;Node30 -->
<g id="edge42" class="edge">
<title>Node29&#45;&gt;Node30</title>
<path fill="none" stroke="midnightblue" d="M450.31,-441.93C484.79,-415.59 549,-357.59 549,-291 549,-291 549,-291 549,-177 549,-138.92 541.22,-93.94 537.7,-75.52"/>
<polygon fill="midnightblue" stroke="midnightblue" points="447.78,-439.44 441.84,-448.21 451.96,-445.06 447.78,-439.44"/>
</g>
<!-- Node30&#45;&gt;Node4 -->
<g id="edge43" class="edge">
<title>Node30&#45;&gt;Node4</title>
<path fill="none" stroke="midnightblue" d="M568.92,-52.91C596.56,-42.75 635.34,-28.51 659.82,-19.52"/>
<polygon fill="midnightblue" stroke="midnightblue" points="567.47,-49.71 559.29,-56.44 569.89,-56.28 567.47,-49.71"/>
</g>
<!-- Node32 -->
<g id="node32" class="node">
<title>Node32</title>
<g id="a_node32"><a xlink:href="api_2event__vector_8h.html" target="_top" xlink:title="ODP event vector.">
<polygon fill="white" stroke="black" points="657.5,-336.5 657.5,-355.5 746.5,-355.5 746.5,-336.5 657.5,-336.5"/>
<text text-anchor="middle" x="702" y="-343.5" font-family="Helvetica,sans-Serif" font-size="10.00">event_vector.h</text>
</a>
</g>
</g>
<!-- Node31&#45;&gt;Node32 -->
<g id="edge45" class="edge">
<title>Node31&#45;&gt;Node32</title>
<path fill="none" stroke="midnightblue" d="M697.85,-438.35C698.94,-414.25 700.8,-373.31 701.61,-355.59"/>
<polygon fill="midnightblue" stroke="midnightblue" points="694.35,-438.22 697.39,-448.37 701.34,-438.54 694.35,-438.22"/>
</g>
<!-- Node32&#45;&gt;Node4 -->
<g id="edge46" class="edge">
<title>Node32&#45;&gt;Node4</title>
<path fill="none" stroke="midnightblue" d="M702,-326.25C702,-304.36 702,-267.05 702,-235 702,-235 702,-235 702,-121 702,-82.82 690.75,-38.26 685.56,-19.75"/>
<polygon fill="midnightblue" stroke="midnightblue" points="698.5,-326.44 702,-336.44 705.5,-326.44 698.5,-326.44"/>
</g>
<!-- Node34 -->
<g id="node34" class="node">
<title>Node34</title>
<g id="a_node34"><a xlink:href="ml_8h.html" target="_top" xlink:title="ODP Machine Learning (ML) offload.">
<polygon fill="white" stroke="black" points="754,-224.5 754,-243.5 792,-243.5 792,-224.5 754,-224.5"/>
<text text-anchor="middle" x="773" y="-231.5" font-family="Helvetica,sans-Serif" font-size="10.00">ml.h</text>
</a>
</g>
</g>
<!-- Node33&#45;&gt;Node34 -->
<g id="edge48" class="edge">
<title>Node33&#45;&gt;Node34</title>
<path fill="none" stroke="midnightblue" d="M778.49,-438.3C777.26,-392.64 774.13,-276.85 773.24,-243.88"/>
<polygon fill="midnightblue" stroke="midnightblue" points="775,-438.4 778.76,-448.3 781.99,-438.21 775,-438.4"/>
</g>
<!-- Node34&#45;&gt;Node4 -->
<g id="edge49" class="edge">
<title>Node34&#45;&gt;Node4</title>
<path fill="none" stroke="midnightblue" d="M769,-214.01C761.55,-180.73 743.71,-110.27 716,-56 709.04,-42.37 698.1,-28.42 690.74,-19.74"/>
<polygon fill="midnightblue" stroke="midnightblue" points="765.66,-215.11 771.21,-224.14 772.5,-213.62 765.66,-215.11"/>
</g>
<!-- Node36 -->
<g id="node36" class="node">
<title>Node36</title>
<g id="a_node36"><a xlink:href="api_2packet__io__types_8h.html" target="_top" xlink:title="ODP Packet IO.">
<polygon fill="white" stroke="black" points="296,-392.5 296,-411.5 400,-411.5 400,-392.5 296,-392.5"/>
<text text-anchor="middle" x="348" y="-399.5" font-family="Helvetica,sans-Serif" font-size="10.00">packet_io_types.h</text>
</a>
</g>
</g>
<!-- Node35&#45;&gt;Node36 -->
<g id="edge52" class="edge">
<title>Node35&#45;&gt;Node36</title>
<path fill="none" stroke="midnightblue" d="M337.51,-438.4C340.19,-429.36 343.28,-418.94 345.41,-411.75"/>
<polygon fill="midnightblue" stroke="midnightblue" points="334.13,-437.5 334.64,-448.08 340.84,-439.49 334.13,-437.5"/>
</g>
<!-- Node36&#45;&gt;Node2 -->
<g id="edge55" class="edge">
<title>Node36&#45;&gt;Node2</title>
<path fill="none" stroke="midnightblue" d="M410.03,-395.65C542.6,-384.21 849.26,-357.76 944.94,-349.51"/>
<polygon fill="midnightblue" stroke="midnightblue" points="409.69,-392.17 400.03,-396.51 410.29,-399.14 409.69,-392.17"/>
</g>
<!-- Node36&#45;&gt;Node15 -->
<g id="edge54" class="edge">
<title>Node36&#45;&gt;Node15</title>
<path fill="none" stroke="midnightblue" d="M323.12,-387.14C309.99,-379.1 294.14,-368.17 282,-356 260.76,-334.71 256.82,-327.21 244,-300 234.98,-280.86 229.25,-256.5 226.64,-243.72"/>
<polygon fill="midnightblue" stroke="midnightblue" points="321.71,-390.38 332.1,-392.46 325.28,-384.35 321.71,-390.38"/>
</g>
<!-- Node36&#45;&gt;Node25 -->
<g id="edge53" class="edge">
<title>Node36&#45;&gt;Node25</title>
<path fill="none" stroke="midnightblue" d="M377.62,-388.5C401.62,-378.38 434.78,-364.39 455.81,-355.52"/>
<polygon fill="midnightblue" stroke="midnightblue" points="376.14,-385.33 368.28,-392.44 378.86,-391.78 376.14,-385.33"/>
</g>
<!-- Node36&#45;&gt;Node27 -->
<g id="edge56" class="edge">
<title>Node36&#45;&gt;Node27</title>
<path fill="none" stroke="midnightblue" d="M364.25,-384.78C371.38,-376.75 379.2,-366.54 384,-356 401.87,-316.75 405.24,-264.1 405.86,-243.64"/>
<polygon fill="midnightblue" stroke="midnightblue" points="361.51,-382.58 357.23,-392.27 366.62,-387.37 361.51,-382.58"/>
</g>
<!-- Node37 -->
<g id="node37" class="node">
<title>Node37</title>
<g id="a_node37"><a xlink:href="api_2spec_2traffic__mngr_8h.html" target="_top" xlink:title=" ">
<polygon fill="white" stroke="black" points="291,-336.5 291,-355.5 375,-355.5 375,-336.5 291,-336.5"/>
<text text-anchor="middle" x="333" y="-343.5" font-family="Helvetica,sans-Serif" font-size="10.00">traffic_mngr.h</text>
</a>
</g>
</g>
<!-- Node36&#45;&gt;Node37 -->
<g id="edge57" class="edge">
<title>Node36&#45;&gt;Node37</title>
<path fill="none" stroke="midnightblue" d="M342.83,-382.4C340.32,-373.36 337.43,-362.94 335.43,-355.75"/>
<polygon fill="midnightblue" stroke="midnightblue" points="339.47,-383.38 345.52,-392.08 346.22,-381.51 339.47,-383.38"/>
</g>
<!-- Node38 -->
<g id="node38" class="node">
<title>Node38</title>
<g id="a_node38"><a xlink:href="api_2traffic__mngr_8h.html" target="_top" xlink:title="ODP Traffic manager.">
<polygon fill="white" stroke="black" points="253,-280.5 253,-299.5 337,-299.5 337,-280.5 253,-280.5"/>
<text text-anchor="middle" x="295" y="-287.5" font-family="Helvetica,sans-Serif" font-size="10.00">traffic_mngr.h</text>
</a>
</g>
</g>
<!-- Node37&#45;&gt;Node38 -->
<g id="edge58" class="edge">
<title>Node37&#45;&gt;Node38</title>
<path fill="none" stroke="midnightblue" d="M320.94,-327.86C314.36,-318.5 306.49,-307.33 301.16,-299.75"/>
<polygon fill="midnightblue" stroke="midnightblue" points="318.11,-329.92 326.73,-336.08 323.83,-325.89 318.11,-329.92"/>
</g>
<!-- Node38&#45;&gt;Node4 -->
<g id="edge60" class="edge">
<title>Node38&#45;&gt;Node4</title>
<path fill="none" stroke="midnightblue" d="M301.04,-270.45C307.55,-248.76 317,-211.67 317,-179 317,-179 317,-179 317,-121 317,-51.58 561.53,-22.15 650.84,-13.72"/>
<polygon fill="midnightblue" stroke="midnightblue" points="297.61,-269.69 297.97,-280.28 304.29,-271.78 297.61,-269.69"/>
</g>
<!-- Node38&#45;&gt;Node15 -->
<g id="edge59" class="edge">
<title>Node38&#45;&gt;Node15</title>
<path fill="none" stroke="midnightblue" d="M275.69,-274.1C263.09,-264.38 247.07,-252.03 236.45,-243.83"/>
<polygon fill="midnightblue" stroke="midnightblue" points="273.7,-276.99 283.75,-280.32 277.97,-271.44 273.7,-276.99"/>
</g>
<!-- Node40 -->
<g id="node40" class="node">
<title>Node40</title>
<g id="a_node40"><a xlink:href="api_2pool_8h.html" target="_top" xlink:title="ODP pool.">
<polygon fill="white" stroke="black" points="812.5,-392.5 812.5,-411.5 859.5,-411.5 859.5,-392.5 812.5,-392.5"/>
<text text-anchor="middle" x="836" y="-399.5" font-family="Helvetica,sans-Serif" font-size="10.00">pool.h</text>
</a>
</g>
</g>
<!-- Node39&#45;&gt;Node40 -->
<g id="edge62" class="edge">
<title>Node39&#45;&gt;Node40</title>
<path fill="none" stroke="midnightblue" d="M838.6,-438.1C837.94,-429.14 837.17,-418.86 836.65,-411.75"/>
<polygon fill="midnightblue" stroke="midnightblue" points="835.11,-438.37 839.34,-448.08 842.09,-437.85 835.11,-438.37"/>
</g>
<!-- Node40&#45;&gt;Node4 -->
<g id="edge63" class="edge">
<title>Node40&#45;&gt;Node4</title>
<path fill="none" stroke="midnightblue" d="M834.08,-382.27C832.01,-360.4 829,-323.12 829,-291 829,-291 829,-291 829,-121 829,-64.35 758.02,-33.22 715.04,-19.56"/>
<polygon fill="midnightblue" stroke="midnightblue" points="830.62,-382.85 835.08,-392.45 837.59,-382.16 830.62,-382.85"/>
</g>
<!-- Node42 -->
<g id="node42" class="node">
<title>Node42</title>
<g id="a_node42"><a xlink:href="api_2timer_8h.html" target="_top" xlink:title="ODP timer service.">
<polygon fill="white" stroke="black" points="530.5,-392.5 530.5,-411.5 581.5,-411.5 581.5,-392.5 530.5,-392.5"/>
<text text-anchor="middle" x="556" y="-399.5" font-family="Helvetica,sans-Serif" font-size="10.00">timer.h</text>
</a>
</g>
</g>
<!-- Node41&#45;&gt;Node42 -->
<g id="edge65" class="edge">
<title>Node41&#45;&gt;Node42</title>
<path fill="none" stroke="midnightblue" d="M544.2,-438.4C547.21,-429.36 550.69,-418.94 553.08,-411.75"/>
<polygon fill="midnightblue" stroke="midnightblue" points="540.81,-437.49 540.97,-448.08 547.46,-439.7 540.81,-437.49"/>
</g>
<!-- Node42&#45;&gt;Node4 -->
<g id="edge66" class="edge">
<title>Node42&#45;&gt;Node4</title>
<path fill="none" stroke="midnightblue" d="M565.32,-383.37C575.69,-362.09 591,-324.93 591,-291 591,-291 591,-291 591,-121 591,-73.7 641.68,-36.02 667.81,-19.73"/>
<polygon fill="midnightblue" stroke="midnightblue" points="562.12,-381.95 560.72,-392.46 568.36,-385.12 562.12,-381.95"/>
</g>
<!-- Node44 -->
<g id="node44" class="node">
<title>Node44</title>
<g id="a_node44"><a xlink:href="api_2packet__flags_8h.html" target="_top" xlink:title="ODP packet flags.">
<polygon fill="white" stroke="black" points="983,-112.5 983,-131.5 1069,-131.5 1069,-112.5 983,-112.5"/>
<text text-anchor="middle" x="1026" y="-119.5" font-family="Helvetica,sans-Serif" font-size="10.00">packet_flags.h</text>
</a>
</g>
</g>
<!-- Node43&#45;&gt;Node44 -->
<g id="edge71" class="edge">
<title>Node43&#45;&gt;Node44</title>
<path fill="none" stroke="midnightblue" d="M1013.57,-662.88C1021.87,-641.37 1034,-604.21 1034,-571 1034,-571 1034,-571 1034,-233 1034,-195.09 1029.21,-150.02 1027.05,-131.54"/>
<polygon fill="midnightblue" stroke="midnightblue" points="1010.25,-661.77 1009.78,-672.35 1016.75,-664.37 1010.25,-661.77"/>
</g>
<!-- Node44&#45;&gt;Node4 -->
<g id="edge72" class="edge">
<title>Node44&#45;&gt;Node4</title>
<path fill="none" stroke="midnightblue" d="M1015.71,-103.59C1005.77,-88.42 989.25,-67.15 969,-56 925.74,-32.17 780.39,-18.41 715.16,-13.3"/>
<polygon fill="midnightblue" stroke="midnightblue" points="1012.76,-105.47 1021.03,-112.1 1018.7,-101.76 1012.76,-105.47"/>
</g>
<!-- Node46 -->
<g id="node46" class="node">
<title>Node46</title>
<g id="a_node46"><a xlink:href="api_2proto__stats_8h.html" target="_top" xlink:title="ODP proto stats.">
<polygon fill="white" stroke="black" points="1177,-560.5 1177,-579.5 1257,-579.5 1257,-560.5 1177,-560.5"/>
<text text-anchor="middle" x="1217" y="-567.5" font-family="Helvetica,sans-Serif" font-size="10.00">proto_stats.h</text>
</a>
</g>
</g>
<!-- Node45&#45;&gt;Node46 -->
<g id="edge76" class="edge">
<title>Node45&#45;&gt;Node46</title>
<path fill="none" stroke="midnightblue" d="M1217,-774.3C1217,-728.64 1217,-612.85 1217,-579.88"/>
<polygon fill="midnightblue" stroke="midnightblue" points="1213.5,-774.3 1217,-784.3 1220.5,-774.3 1213.5,-774.3"/>
</g>
<!-- Node46&#45;&gt;Node4 -->
<g id="edge77" class="edge">
<title>Node46&#45;&gt;Node4</title>
<path fill="none" stroke="midnightblue" d="M1212.95,-550.66C1208.51,-528.9 1202,-491.5 1202,-459 1202,-459 1202,-459 1202,-121 1202,-20.95 828.23,-11.49 715.07,-10.92"/>
<polygon fill="midnightblue" stroke="midnightblue" points="1209.54,-551.44 1215.04,-560.5 1216.39,-549.99 1209.54,-551.44"/>
</g>
</g>
</svg>
