<?xml version="1.0" encoding="UTF-8" standalone="no"?>
<!DOCTYPE svg PUBLIC "-//W3C//DTD SVG 1.1//EN"
 "http://www.w3.org/Graphics/SVG/1.1/DTD/svg11.dtd">
<!-- Generated by graphviz version 2.40.1 (20161225.0304)
 -->
<!-- Title: queue_types.h Pages: 1 -->
<svg width="437pt" height="319pt"
 viewBox="0.00 0.00 436.58 319.00" xmlns="http://www.w3.org/2000/svg" xmlns:xlink="http://www.w3.org/1999/xlink">
<g id="graph0" class="graph" transform="scale(1 1) rotate(0) translate(4 315)">
<title>queue_types.h</title>
<polygon fill="#ffffff" stroke="transparent" points="-4,4 -4,-315 432.5837,-315 432.5837,4 -4,4"/>
<!-- Node0 -->
<g id="node1" class="node">
<title>Node0</title>
<polygon fill="#bfbfbf" stroke="#000000" points="131.5837,-291.5 131.5837,-310.5 219.5837,-310.5 219.5837,-291.5 131.5837,-291.5"/>
<text text-anchor="middle" x="175.5837" y="-298.5" font-family="Helvetica,sans-Serif" font-size="10.00" fill="#000000">queue_types.h</text>
</g>
<!-- Node1 -->
<g id="node2" class="node">
<title>Node1</title>
<g id="a_node2"><a xlink:href="visibility__begin_8h_source.html" target="_top" xlink:title="odp/visibility_begin.h">
<polygon fill="#ffffff" stroke="#000000" points="106.0837,-.5 106.0837,-19.5 227.0837,-19.5 227.0837,-.5 106.0837,-.5"/>
<text text-anchor="middle" x="166.5837" y="-7.5" font-family="Helvetica,sans-Serif" font-size="10.00" fill="#000000">odp/visibility_begin.h</text>
</a>
</g>
</g>
<!-- Node0&#45;&gt;Node1 -->
<g id="edge1" class="edge">
<title>Node0&#45;&gt;Node1</title>
<path fill="none" stroke="#191970" d="M131.5185,-296.3473C100.5693,-291.0008 59.9703,-279.5385 32.5837,-255 6.6543,-231.7672 .5837,-218.3152 .5837,-183.5 .5837,-183.5 .5837,-183.5 .5837,-122 .5837,-91.4754 -1.7511,-77.8307 19.5837,-56 32.4823,-42.8016 74.2032,-30.4636 109.9177,-21.8947"/>
<polygon fill="#191970" stroke="#191970" points="110.864,-25.2679 119.8028,-19.5802 109.2682,-18.4522 110.864,-25.2679"/>
</g>
<!-- Node2 -->
<g id="node3" class="node">
<title>Node2</title>
<g id="a_node3"><a xlink:href="api_2schedule__types_8h.html" target="_top" xlink:title="ODP schedule. ">
<polygon fill="#ffffff" stroke="#000000" points="179.5837,-235.5 179.5837,-254.5 319.5837,-254.5 319.5837,-235.5 179.5837,-235.5"/>
<text text-anchor="middle" x="249.5837" y="-242.5" font-family="Helvetica,sans-Serif" font-size="10.00" fill="#000000">odp/api/schedule_types.h</text>
</a>
</g>
</g>
<!-- Node0&#45;&gt;Node2 -->
<g id="edge2" class="edge">
<title>Node0&#45;&gt;Node2</title>
<path fill="none" stroke="#191970" d="M188.4735,-291.2455C199.5091,-282.8943 215.6129,-270.7076 228.5191,-260.9408"/>
<polygon fill="#191970" stroke="#191970" points="230.9796,-263.4681 236.8416,-254.6427 226.7555,-257.8862 230.9796,-263.4681"/>
</g>
<!-- Node7 -->
<g id="node8" class="node">
<title>Node7</title>
<g id="a_node8"><a xlink:href="visibility__end_8h_source.html" target="_top" xlink:title="odp/visibility_end.h">
<polygon fill="#ffffff" stroke="#000000" points="274.5837,-.5 274.5837,-19.5 386.5837,-19.5 386.5837,-.5 274.5837,-.5"/>
<text text-anchor="middle" x="330.5837" y="-7.5" font-family="Helvetica,sans-Serif" font-size="10.00" fill="#000000">odp/visibility_end.h</text>
</a>
</g>
</g>
<!-- Node0&#45;&gt;Node7 -->
<g id="edge15" class="edge">
<title>Node0&#45;&gt;Node7</title>
<path fill="none" stroke="#191970" d="M214.8374,-291.4301C285.9004,-272.9515 428.5837,-230.0528 428.5837,-183.5 428.5837,-183.5 428.5837,-183.5 428.5837,-122 428.5837,-78.4482 386.0955,-43.6916 357.0716,-25.0299"/>
<polygon fill="#191970" stroke="#191970" points="358.904,-22.0479 348.5584,-19.7631 355.2211,-28.0008 358.904,-22.0479"/>
</g>
<!-- Node8 -->
<g id="node9" class="node">
<title>Node8</title>
<g id="a_node9"><a xlink:href="deprecated_8h.html" target="_top" xlink:title="Control deprecated API definitions. ">
<polygon fill="#ffffff" stroke="#000000" points="42.0837,-235.5 42.0837,-254.5 161.0837,-254.5 161.0837,-235.5 42.0837,-235.5"/>
<text text-anchor="middle" x="101.5837" y="-242.5" font-family="Helvetica,sans-Serif" font-size="10.00" fill="#000000">odp/api/deprecated.h</text>
</a>
</g>
</g>
<!-- Node0&#45;&gt;Node8 -->
<g id="edge11" class="edge">
<title>Node0&#45;&gt;Node8</title>
<path fill="none" stroke="#191970" d="M162.6939,-291.2455C151.6583,-282.8943 135.5545,-270.7076 122.6484,-260.9408"/>
<polygon fill="#191970" stroke="#191970" points="124.412,-257.8862 114.3258,-254.6427 120.1878,-263.4681 124.412,-257.8862"/>
</g>
<!-- Node3 -->
<g id="node4" class="node">
<title>Node3</title>
<polygon fill="#ffffff" stroke="#bfbfbf" points="283.0837,-168.5 283.0837,-198.5 400.0837,-198.5 400.0837,-168.5 283.0837,-168.5"/>
<text text-anchor="start" x="291.0837" y="-186.5" font-family="Helvetica,sans-Serif" font-size="10.00" fill="#000000">odp/api/abi/schedule</text>
<text text-anchor="middle" x="341.5837" y="-175.5" font-family="Helvetica,sans-Serif" font-size="10.00" fill="#000000">_types.h</text>
</g>
<!-- Node2&#45;&gt;Node3 -->
<g id="edge3" class="edge">
<title>Node2&#45;&gt;Node3</title>
<path fill="none" stroke="#191970" d="M263.9587,-235.3906C276.4098,-227.0673 294.8523,-214.7389 310.6371,-204.1872"/>
<polygon fill="#191970" stroke="#191970" points="312.7095,-207.0118 319.078,-198.5446 308.8193,-201.1923 312.7095,-207.0118"/>
</g>
<!-- Node4 -->
<g id="node5" class="node">
<title>Node4</title>
<g id="a_node5"><a xlink:href="api_2spec_2schedule__types_8h.html" target="_top" xlink:title="ODP schedule types. ">
<polygon fill="#ffffff" stroke="#000000" points="140.0837,-168.5 140.0837,-198.5 265.0837,-198.5 265.0837,-168.5 140.0837,-168.5"/>
<text text-anchor="start" x="148.0837" y="-186.5" font-family="Helvetica,sans-Serif" font-size="10.00" fill="#000000">odp/api/spec/schedule</text>
<text text-anchor="middle" x="202.5837" y="-175.5" font-family="Helvetica,sans-Serif" font-size="10.00" fill="#000000">_types.h</text>
</a>
</g>
</g>
<!-- Node2&#45;&gt;Node4 -->
<g id="edge4" class="edge">
<title>Node2&#45;&gt;Node4</title>
<path fill="none" stroke="#191970" d="M242.24,-235.3906C236.3503,-227.6839 227.8364,-216.5434 220.2059,-206.5589"/>
<polygon fill="#191970" stroke="#191970" points="222.9342,-204.3648 214.0812,-198.5446 217.3724,-208.6153 222.9342,-204.3648"/>
</g>
<!-- Node4&#45;&gt;Node1 -->
<g id="edge5" class="edge">
<title>Node4&#45;&gt;Node1</title>
<path fill="none" stroke="#191970" d="M201.1021,-168.4076C198.5444,-144.3635 192.5903,-95.9944 182.5837,-56 180.3326,-47.0028 177.0732,-37.2708 174.0828,-29.0853"/>
<polygon fill="#191970" stroke="#191970" points="177.3495,-27.8285 170.535,-19.716 170.8031,-30.3074 177.3495,-27.8285"/>
</g>
<!-- Node5 -->
<g id="node6" class="node">
<title>Node5</title>
<g id="a_node6"><a xlink:href="support_8h.html" target="_top" xlink:title="ODP support API &#45; platform specific header. ">
<polygon fill="#ffffff" stroke="#000000" points="238.0837,-112.5 238.0837,-131.5 339.0837,-131.5 339.0837,-112.5 238.0837,-112.5"/>
<text text-anchor="middle" x="288.5837" y="-119.5" font-family="Helvetica,sans-Serif" font-size="10.00" fill="#000000">odp/api/support.h</text>
</a>
</g>
</g>
<!-- Node4&#45;&gt;Node5 -->
<g id="edge6" class="edge">
<title>Node4&#45;&gt;Node5</title>
<path fill="none" stroke="#191970" d="M223.8421,-168.2977C236.8555,-158.9917 253.474,-147.1075 266.6155,-137.7099"/>
<polygon fill="#191970" stroke="#191970" points="268.9726,-140.3271 275.0708,-131.6633 264.9008,-134.6332 268.9726,-140.3271"/>
</g>
<!-- Node4&#45;&gt;Node7 -->
<g id="edge10" class="edge">
<title>Node4&#45;&gt;Node7</title>
<path fill="none" stroke="#191970" d="M261.4429,-168.3986C296.2235,-158.4207 335.8795,-144.8578 348.5837,-132 373.0549,-107.233 379.1519,-88.8394 367.5837,-56 363.7528,-45.125 356.1435,-34.9246 348.8165,-26.9061"/>
<polygon fill="#191970" stroke="#191970" points="351.2303,-24.3686 341.7339,-19.6707 346.228,-29.2652 351.2303,-24.3686"/>
</g>
<!-- Node6 -->
<g id="node7" class="node">
<title>Node6</title>
<g id="a_node7"><a xlink:href="spec_2support_8h.html" target="_top" xlink:title="ODP support API. ">
<polygon fill="#ffffff" stroke="#000000" points="231.0837,-56.5 231.0837,-75.5 358.0837,-75.5 358.0837,-56.5 231.0837,-56.5"/>
<text text-anchor="middle" x="294.5837" y="-63.5" font-family="Helvetica,sans-Serif" font-size="10.00" fill="#000000">odp/api/spec/support.h</text>
</a>
</g>
</g>
<!-- Node5&#45;&gt;Node6 -->
<g id="edge7" class="edge">
<title>Node5&#45;&gt;Node6</title>
<path fill="none" stroke="#191970" d="M289.6288,-112.2455C290.4118,-104.9382 291.5093,-94.6944 292.4725,-85.7046"/>
<polygon fill="#191970" stroke="#191970" points="295.9652,-85.9587 293.5506,-75.6427 289.0051,-85.2129 295.9652,-85.9587"/>
</g>
<!-- Node6&#45;&gt;Node1 -->
<g id="edge8" class="edge">
<title>Node6&#45;&gt;Node1</title>
<path fill="none" stroke="#191970" d="M272.5797,-56.3733C251.9403,-47.3435 220.8679,-33.7494 197.6948,-23.6111"/>
<polygon fill="#191970" stroke="#191970" points="198.865,-20.3028 188.3006,-19.5011 196.0593,-26.7159 198.865,-20.3028"/>
</g>
<!-- Node6&#45;&gt;Node7 -->
<g id="edge9" class="edge">
<title>Node6&#45;&gt;Node7</title>
<path fill="none" stroke="#191970" d="M300.8544,-56.2455C305.8101,-48.5367 312.8667,-37.5598 318.8613,-28.2348"/>
<polygon fill="#191970" stroke="#191970" points="321.9214,-29.9471 324.3848,-19.6427 316.0331,-26.1618 321.9214,-29.9471"/>
</g>
<!-- Node9 -->
<g id="node10" class="node">
<title>Node9</title>
<g id="a_node10"><a xlink:href="spec_2deprecated_8h.html" target="_top" xlink:title="Macro for deprecated API definitions. ">
<polygon fill="#ffffff" stroke="#000000" points="29.0837,-56.5 29.0837,-75.5 174.0837,-75.5 174.0837,-56.5 29.0837,-56.5"/>
<text text-anchor="middle" x="101.5837" y="-63.5" font-family="Helvetica,sans-Serif" font-size="10.00" fill="#000000">odp/api/spec/deprecated.h</text>
</a>
</g>
</g>
<!-- Node8&#45;&gt;Node9 -->
<g id="edge12" class="edge">
<title>Node8&#45;&gt;Node9</title>
<path fill="none" stroke="#191970" d="M101.5837,-235.3762C101.5837,-207.2097 101.5837,-124.5126 101.5837,-86.0713"/>
<polygon fill="#191970" stroke="#191970" points="105.0838,-85.6714 101.5837,-75.6714 98.0838,-85.6714 105.0838,-85.6714"/>
</g>
<!-- Node9&#45;&gt;Node1 -->
<g id="edge13" class="edge">
<title>Node9&#45;&gt;Node1</title>
<path fill="none" stroke="#191970" d="M112.9058,-56.2455C122.506,-47.9746 136.4729,-35.9416 147.7532,-26.2232"/>
<polygon fill="#191970" stroke="#191970" points="150.0997,-28.8214 155.3913,-19.6427 145.5307,-23.5182 150.0997,-28.8214"/>
</g>
<!-- Node9&#45;&gt;Node7 -->
<g id="edge14" class="edge">
<title>Node9&#45;&gt;Node7</title>
<path fill="none" stroke="#191970" d="M140.69,-56.4369C179.7169,-46.8932 239.7802,-32.2052 281.8799,-21.9101"/>
<polygon fill="#191970" stroke="#191970" points="282.7563,-25.299 291.6387,-19.5237 281.0935,-18.4993 282.7563,-25.299"/>
</g>
</g>
</svg>
