<?xml version="1.0" encoding="UTF-8" standalone="no"?>
<!DOCTYPE svg PUBLIC "-//W3C//DTD SVG 1.1//EN"
 "http://www.w3.org/Graphics/SVG/1.1/DTD/svg11.dtd">
<!-- Generated by graphviz version 2.43.0 (0)
 -->
<!-- Title: pool.h Pages: 1 -->
<svg width="1393pt" height="1046pt"
 viewBox="0.00 0.00 1393.00 1046.00" xmlns="http://www.w3.org/2000/svg" xmlns:xlink="http://www.w3.org/1999/xlink">
<g id="graph0" class="graph" transform="scale(1 1) rotate(0) translate(4 1042)">
<title>pool.h</title>
<polygon fill="white" stroke="transparent" points="-4,4 -4,-1042 1389,-1042 1389,4 -4,4"/>
<!-- Node1 -->
<g id="node1" class="node">
<title>Node1</title>
<g id="a_node1"><a xlink:title="ODP pool.">
<polygon fill="#bfbfbf" stroke="black" points="730.5,-1018.5 730.5,-1037.5 777.5,-1037.5 777.5,-1018.5 730.5,-1018.5"/>
<text text-anchor="middle" x="754" y="-1025.5" font-family="Helvetica,sans-Serif" font-size="10.00">pool.h</text>
</a>
</g>
</g>
<!-- Node2 -->
<g id="node2" class="node">
<title>Node2</title>
<g id="a_node2"><a xlink:href="visibility__begin_8h_source.html" target="_top" xlink:title=" ">
<polygon fill="white" stroke="black" points="167.5,-0.5 167.5,-19.5 288.5,-19.5 288.5,-0.5 167.5,-0.5"/>
<text text-anchor="middle" x="228" y="-7.5" font-family="Helvetica,sans-Serif" font-size="10.00">odp/visibility_begin.h</text>
</a>
</g>
</g>
<!-- Node1&#45;&gt;Node2 -->
<g id="edge1" class="edge">
<title>Node1&#45;&gt;Node2</title>
<path fill="none" stroke="midnightblue" d="M730.19,-1026.1C602.02,-1020.93 0,-992.65 0,-917 0,-917 0,-917 0,-132 0,-59.75 90.43,-30.51 157.39,-18.77"/>
<polygon fill="midnightblue" stroke="midnightblue" points="158.2,-22.18 167.5,-17.09 157.06,-15.27 158.2,-22.18"/>
</g>
<!-- Node3 -->
<g id="node3" class="node">
<title>Node3</title>
<g id="a_node3"><a xlink:href="api_2std__types_8h.html" target="_top" xlink:title="Standard C language types and definitions for ODP.">
<polygon fill="white" stroke="black" points="849,-235.5 849,-254.5 961,-254.5 961,-235.5 849,-235.5"/>
<text text-anchor="middle" x="905" y="-242.5" font-family="Helvetica,sans-Serif" font-size="10.00">odp/api/std_types.h</text>
</a>
</g>
</g>
<!-- Node1&#45;&gt;Node3 -->
<g id="edge2" class="edge">
<title>Node1&#45;&gt;Node3</title>
<path fill="none" stroke="midnightblue" d="M730.46,-1026.37C672.21,-1023.44 526,-1007.1 526,-917 526,-917 526,-917 526,-624 526,-472.86 484.96,-394.61 595,-291 629.17,-258.82 758.21,-249.58 838.64,-246.97"/>
<polygon fill="midnightblue" stroke="midnightblue" points="838.79,-250.47 848.68,-246.67 838.58,-243.47 838.79,-250.47"/>
</g>
<!-- Node10 -->
<g id="node10" class="node">
<title>Node10</title>
<g id="a_node10"><a xlink:href="visibility__end_8h_source.html" target="_top" xlink:title=" ">
<polygon fill="white" stroke="black" points="988,-0.5 988,-19.5 1100,-19.5 1100,-0.5 988,-0.5"/>
<text text-anchor="middle" x="1044" y="-7.5" font-family="Helvetica,sans-Serif" font-size="10.00">odp/visibility_end.h</text>
</a>
</g>
</g>
<!-- Node1&#45;&gt;Node10 -->
<g id="edge72" class="edge">
<title>Node1&#45;&gt;Node10</title>
<path fill="none" stroke="midnightblue" d="M777.58,-1025.44C892.14,-1017.54 1385,-979.9 1385,-917 1385,-917 1385,-917 1385,-132 1385,-84.54 1352.1,-77.91 1310,-56 1247.42,-23.43 1166.39,-13.61 1110.29,-11.04"/>
<polygon fill="midnightblue" stroke="midnightblue" points="1110.25,-7.54 1100.12,-10.64 1109.97,-14.53 1110.25,-7.54"/>
</g>
<!-- Node11 -->
<g id="node11" class="node">
<title>Node11</title>
<g id="a_node11"><a xlink:href="api_2pool__types_8h.html" target="_top" xlink:title="ODP pool.">
<polygon fill="white" stroke="black" points="851,-962.5 851,-981.5 969,-981.5 969,-962.5 851,-962.5"/>
<text text-anchor="middle" x="910" y="-969.5" font-family="Helvetica,sans-Serif" font-size="10.00">odp/api/pool_types.h</text>
</a>
</g>
</g>
<!-- Node1&#45;&gt;Node11 -->
<g id="edge13" class="edge">
<title>Node1&#45;&gt;Node11</title>
<path fill="none" stroke="midnightblue" d="M777.69,-1018.8C803.81,-1009.76 846.04,-995.14 875.75,-984.85"/>
<polygon fill="midnightblue" stroke="midnightblue" points="877,-988.13 885.31,-981.55 874.71,-981.51 877,-988.13"/>
</g>
<!-- Node4 -->
<g id="node4" class="node">
<title>Node4</title>
<g id="a_node4"><a xlink:title=" ">
<polygon fill="white" stroke="#bfbfbf" points="848,-179.5 848,-198.5 978,-198.5 978,-179.5 848,-179.5"/>
<text text-anchor="middle" x="913" y="-186.5" font-family="Helvetica,sans-Serif" font-size="10.00">odp/api/abi/std_types.h</text>
</a>
</g>
</g>
<!-- Node3&#45;&gt;Node4 -->
<g id="edge3" class="edge">
<title>Node3&#45;&gt;Node4</title>
<path fill="none" stroke="midnightblue" d="M906.32,-235.08C907.38,-227.93 908.91,-217.64 910.23,-208.69"/>
<polygon fill="midnightblue" stroke="midnightblue" points="913.7,-209.16 911.7,-198.75 906.78,-208.13 913.7,-209.16"/>
</g>
<!-- Node5 -->
<g id="node5" class="node">
<title>Node5</title>
<g id="a_node5"><a xlink:href="api_2spec_2std__types_8h.html" target="_top" xlink:title="Common types and definitions for ODP API files.">
<polygon fill="white" stroke="black" points="616.5,-179.5 616.5,-198.5 753.5,-198.5 753.5,-179.5 616.5,-179.5"/>
<text text-anchor="middle" x="685" y="-186.5" font-family="Helvetica,sans-Serif" font-size="10.00">odp/api/spec/std_types.h</text>
</a>
</g>
</g>
<!-- Node3&#45;&gt;Node5 -->
<g id="edge4" class="edge">
<title>Node3&#45;&gt;Node5</title>
<path fill="none" stroke="midnightblue" d="M870.14,-235.44C832.08,-226.1 771.04,-211.12 729.54,-200.93"/>
<polygon fill="midnightblue" stroke="midnightblue" points="730.24,-197.5 719.7,-198.52 728.57,-204.3 730.24,-197.5"/>
</g>
<!-- Node5&#45;&gt;Node2 -->
<g id="edge5" class="edge">
<title>Node5&#45;&gt;Node2</title>
<path fill="none" stroke="midnightblue" d="M642.96,-179.46C579.54,-165.59 456.66,-134.8 361,-87 339.93,-76.47 338.16,-68.2 318,-56 298.2,-44.02 274.79,-32.39 256.81,-23.95"/>
<polygon fill="midnightblue" stroke="midnightblue" points="257.99,-20.64 247.44,-19.61 255.04,-26.99 257.99,-20.64"/>
</g>
<!-- Node6 -->
<g id="node6" class="node">
<title>Node6</title>
<g id="a_node6"><a xlink:title=" ">
<polygon fill="white" stroke="#bfbfbf" points="684.5,-123.5 684.5,-142.5 737.5,-142.5 737.5,-123.5 684.5,-123.5"/>
<text text-anchor="middle" x="711" y="-130.5" font-family="Helvetica,sans-Serif" font-size="10.00">stdint.h</text>
</a>
</g>
</g>
<!-- Node5&#45;&gt;Node6 -->
<g id="edge6" class="edge">
<title>Node5&#45;&gt;Node6</title>
<path fill="none" stroke="midnightblue" d="M689.29,-179.08C692.85,-171.69 698.02,-160.95 702.42,-151.81"/>
<polygon fill="midnightblue" stroke="midnightblue" points="705.6,-153.28 706.79,-142.75 699.29,-150.24 705.6,-153.28"/>
</g>
<!-- Node7 -->
<g id="node7" class="node">
<title>Node7</title>
<g id="a_node7"><a xlink:href="api_2align_8h.html" target="_top" xlink:title="ODP alignments.">
<polygon fill="white" stroke="black" points="577.5,-123.5 577.5,-142.5 666.5,-142.5 666.5,-123.5 577.5,-123.5"/>
<text text-anchor="middle" x="622" y="-130.5" font-family="Helvetica,sans-Serif" font-size="10.00">odp/api/align.h</text>
</a>
</g>
</g>
<!-- Node5&#45;&gt;Node7 -->
<g id="edge7" class="edge">
<title>Node5&#45;&gt;Node7</title>
<path fill="none" stroke="midnightblue" d="M674.88,-179.32C665.47,-171.26 651.26,-159.08 639.93,-149.37"/>
<polygon fill="midnightblue" stroke="midnightblue" points="642.18,-146.68 632.31,-142.83 637.62,-152 642.18,-146.68"/>
</g>
<!-- Node5&#45;&gt;Node10 -->
<g id="edge12" class="edge">
<title>Node5&#45;&gt;Node10</title>
<path fill="none" stroke="midnightblue" d="M716.48,-179.41C767.43,-164.77 870.22,-132.11 949,-87 965.01,-77.83 1003.4,-45.79 1026.18,-26.36"/>
<polygon fill="midnightblue" stroke="midnightblue" points="1028.75,-28.77 1034.06,-19.6 1024.19,-23.45 1028.75,-28.77"/>
</g>
<!-- Node8 -->
<g id="node8" class="node">
<title>Node8</title>
<g id="a_node8"><a xlink:title=" ">
<polygon fill="white" stroke="#bfbfbf" points="666.5,-62 666.5,-81 773.5,-81 773.5,-62 666.5,-62"/>
<text text-anchor="middle" x="720" y="-69" font-family="Helvetica,sans-Serif" font-size="10.00">odp/api/abi/align.h</text>
</a>
</g>
</g>
<!-- Node7&#45;&gt;Node8 -->
<g id="edge8" class="edge">
<title>Node7&#45;&gt;Node8</title>
<path fill="none" stroke="midnightblue" d="M636.04,-123.48C652.05,-113.75 678.45,-97.73 697.37,-86.24"/>
<polygon fill="midnightblue" stroke="midnightblue" points="699.25,-89.19 705.99,-81.01 695.62,-83.21 699.25,-89.19"/>
</g>
<!-- Node9 -->
<g id="node9" class="node">
<title>Node9</title>
<g id="a_node9"><a xlink:href="api_2spec_2align_8h.html" target="_top" xlink:title="ODP alignments.">
<polygon fill="white" stroke="black" points="534,-62 534,-81 648,-81 648,-62 534,-62"/>
<text text-anchor="middle" x="591" y="-69" font-family="Helvetica,sans-Serif" font-size="10.00">odp/api/spec/align.h</text>
</a>
</g>
</g>
<!-- Node7&#45;&gt;Node9 -->
<g id="edge9" class="edge">
<title>Node7&#45;&gt;Node9</title>
<path fill="none" stroke="midnightblue" d="M617.56,-123.48C613.05,-114.82 605.93,-101.15 600.19,-90.15"/>
<polygon fill="midnightblue" stroke="midnightblue" points="603.16,-88.26 595.43,-81.01 596.95,-91.49 603.16,-88.26"/>
</g>
<!-- Node9&#45;&gt;Node2 -->
<g id="edge10" class="edge">
<title>Node9&#45;&gt;Node2</title>
<path fill="none" stroke="midnightblue" d="M553.52,-61.96C543.92,-59.89 533.6,-57.77 524,-56 447.28,-41.88 358.79,-28.85 298.7,-20.49"/>
<polygon fill="midnightblue" stroke="midnightblue" points="298.95,-16.99 288.56,-19.08 297.98,-23.92 298.95,-16.99"/>
</g>
<!-- Node9&#45;&gt;Node10 -->
<g id="edge11" class="edge">
<title>Node9&#45;&gt;Node10</title>
<path fill="none" stroke="midnightblue" d="M626.84,-61.94C636.59,-59.8 647.17,-57.65 657,-56 769.05,-37.23 900.65,-23.72 977.92,-16.64"/>
<polygon fill="midnightblue" stroke="midnightblue" points="978.35,-20.12 988,-15.73 977.72,-13.15 978.35,-20.12"/>
</g>
<!-- Node12 -->
<g id="node12" class="node">
<title>Node12</title>
<g id="a_node12"><a xlink:title=" ">
<polygon fill="white" stroke="#bfbfbf" points="1000,-906.5 1000,-925.5 1136,-925.5 1136,-906.5 1000,-906.5"/>
<text text-anchor="middle" x="1068" y="-913.5" font-family="Helvetica,sans-Serif" font-size="10.00">odp/api/abi/pool_types.h</text>
</a>
</g>
</g>
<!-- Node11&#45;&gt;Node12 -->
<g id="edge14" class="edge">
<title>Node11&#45;&gt;Node12</title>
<path fill="none" stroke="midnightblue" d="M935.04,-962.44C961.62,-953.36 1003.81,-938.94 1033.52,-928.78"/>
<polygon fill="midnightblue" stroke="midnightblue" points="1034.75,-932.06 1043.08,-925.52 1032.49,-925.44 1034.75,-932.06"/>
</g>
<!-- Node13 -->
<g id="node13" class="node">
<title>Node13</title>
<g id="a_node13"><a xlink:href="api_2spec_2pool__types_8h.html" target="_top" xlink:title="Type definitions for pools.">
<polygon fill="white" stroke="black" points="838.5,-906.5 838.5,-925.5 981.5,-925.5 981.5,-906.5 838.5,-906.5"/>
<text text-anchor="middle" x="910" y="-913.5" font-family="Helvetica,sans-Serif" font-size="10.00">odp/api/spec/pool_types.h</text>
</a>
</g>
</g>
<!-- Node11&#45;&gt;Node13 -->
<g id="edge15" class="edge">
<title>Node11&#45;&gt;Node13</title>
<path fill="none" stroke="midnightblue" d="M910,-962.08C910,-955.01 910,-944.86 910,-935.99"/>
<polygon fill="midnightblue" stroke="midnightblue" points="913.5,-935.75 910,-925.75 906.5,-935.75 913.5,-935.75"/>
</g>
<!-- Node13&#45;&gt;Node2 -->
<g id="edge16" class="edge">
<title>Node13&#45;&gt;Node2</title>
<path fill="none" stroke="midnightblue" d="M838.27,-911.66C629.68,-900.02 38,-852.46 38,-687.5 38,-687.5 38,-687.5 38,-132 38,-68.18 115.22,-36.55 171.2,-22.01"/>
<polygon fill="midnightblue" stroke="midnightblue" points="172.17,-25.38 181.03,-19.57 170.49,-18.58 172.17,-25.38"/>
</g>
<!-- Node13&#45;&gt;Node3 -->
<g id="edge17" class="edge">
<title>Node13&#45;&gt;Node3</title>
<path fill="none" stroke="midnightblue" d="M914.61,-906.27C919.13,-897.37 925.92,-883.06 930,-870 973.42,-730.97 938.19,-683.75 991,-548 1011.19,-496.1 1057,-497.19 1057,-441.5 1057,-441.5 1057,-441.5 1057,-372.5 1057,-312.69 986.6,-275.7 941.63,-258.17"/>
<polygon fill="midnightblue" stroke="midnightblue" points="942.77,-254.86 932.17,-254.62 940.31,-261.41 942.77,-254.86"/>
</g>
<!-- Node13&#45;&gt;Node10 -->
<g id="edge71" class="edge">
<title>Node13&#45;&gt;Node10</title>
<path fill="none" stroke="midnightblue" d="M968.03,-906.44C1086.9,-888.13 1347,-843.63 1347,-805 1347,-805 1347,-805 1347,-132 1347,-82.96 1310.51,-78.62 1267,-56 1218.13,-30.59 1156.33,-19.51 1110.19,-14.69"/>
<polygon fill="midnightblue" stroke="midnightblue" points="1110.29,-11.18 1100,-13.7 1109.62,-18.15 1110.29,-11.18"/>
</g>
<!-- Node14 -->
<g id="node14" class="node">
<title>Node14</title>
<g id="a_node14"><a xlink:href="api_2dma__types_8h.html" target="_top" xlink:title="ODP DMA.">
<polygon fill="white" stroke="black" points="801.5,-850.5 801.5,-869.5 920.5,-869.5 920.5,-850.5 801.5,-850.5"/>
<text text-anchor="middle" x="861" y="-857.5" font-family="Helvetica,sans-Serif" font-size="10.00">odp/api/dma_types.h</text>
</a>
</g>
</g>
<!-- Node13&#45;&gt;Node14 -->
<g id="edge18" class="edge">
<title>Node13&#45;&gt;Node14</title>
<path fill="none" stroke="midnightblue" d="M901.91,-906.08C894.84,-898.3 884.41,-886.8 875.85,-877.37"/>
<polygon fill="midnightblue" stroke="midnightblue" points="878.25,-874.8 868.94,-869.75 873.07,-879.51 878.25,-874.8"/>
</g>
<!-- Node38 -->
<g id="node38" class="node">
<title>Node38</title>
<g id="a_node38"><a xlink:href="api_2ml__types_8h.html" target="_top" xlink:title="ODP Machine Learning (ML) types.">
<polygon fill="white" stroke="black" points="1191,-738.5 1191,-757.5 1301,-757.5 1301,-738.5 1191,-738.5"/>
<text text-anchor="middle" x="1246" y="-745.5" font-family="Helvetica,sans-Serif" font-size="10.00">odp/api/ml_types.h</text>
</a>
</g>
</g>
<!-- Node13&#45;&gt;Node38 -->
<g id="edge63" class="edge">
<title>Node13&#45;&gt;Node38</title>
<path fill="none" stroke="midnightblue" d="M927.59,-906.31C982.82,-879.02 1153,-794.95 1219.23,-762.22"/>
<polygon fill="midnightblue" stroke="midnightblue" points="1221.17,-765.17 1228.58,-757.61 1218.07,-758.9 1221.17,-765.17"/>
</g>
<!-- Node15 -->
<g id="node15" class="node">
<title>Node15</title>
<g id="a_node15"><a xlink:title=" ">
<polygon fill="white" stroke="#bfbfbf" points="792.5,-794.5 792.5,-813.5 929.5,-813.5 929.5,-794.5 792.5,-794.5"/>
<text text-anchor="middle" x="861" y="-801.5" font-family="Helvetica,sans-Serif" font-size="10.00">odp/api/abi/dma_types.h</text>
</a>
</g>
</g>
<!-- Node14&#45;&gt;Node15 -->
<g id="edge19" class="edge">
<title>Node14&#45;&gt;Node15</title>
<path fill="none" stroke="midnightblue" d="M861,-850.08C861,-843.01 861,-832.86 861,-823.99"/>
<polygon fill="midnightblue" stroke="midnightblue" points="864.5,-823.75 861,-813.75 857.5,-823.75 864.5,-823.75"/>
</g>
<!-- Node16 -->
<g id="node16" class="node">
<title>Node16</title>
<g id="a_node16"><a xlink:href="api_2spec_2dma__types_8h.html" target="_top" xlink:title="ODP DMA.">
<polygon fill="white" stroke="black" points="630,-794.5 630,-813.5 774,-813.5 774,-794.5 630,-794.5"/>
<text text-anchor="middle" x="702" y="-801.5" font-family="Helvetica,sans-Serif" font-size="10.00">odp/api/spec/dma_types.h</text>
</a>
</g>
</g>
<!-- Node14&#45;&gt;Node16 -->
<g id="edge20" class="edge">
<title>Node14&#45;&gt;Node16</title>
<path fill="none" stroke="midnightblue" d="M835.81,-850.44C809.06,-841.36 766.6,-826.94 736.69,-816.78"/>
<polygon fill="midnightblue" stroke="midnightblue" points="737.67,-813.42 727.08,-813.52 735.42,-820.05 737.67,-813.42"/>
</g>
<!-- Node16&#45;&gt;Node2 -->
<g id="edge21" class="edge">
<title>Node16&#45;&gt;Node2</title>
<path fill="none" stroke="midnightblue" d="M629.88,-797.17C465.28,-782.91 76,-743.28 76,-687.5 76,-687.5 76,-687.5 76,-132 76,-74.18 144.15,-39.54 189.19,-22.96"/>
<polygon fill="midnightblue" stroke="midnightblue" points="190.43,-26.24 198.69,-19.6 188.1,-19.64 190.43,-26.24"/>
</g>
<!-- Node16&#45;&gt;Node3 -->
<g id="edge61" class="edge">
<title>Node16&#45;&gt;Node3</title>
<path fill="none" stroke="midnightblue" d="M734.87,-794.48C780.37,-780.47 857,-747.91 857,-687.5 857,-687.5 857,-687.5 857,-624 857,-580.41 889.34,-579.94 919,-548 934.83,-530.95 947.81,-533.37 957,-512 994.95,-423.78 939.33,-307.15 915.22,-263.49"/>
<polygon fill="midnightblue" stroke="midnightblue" points="918.2,-261.63 910.22,-254.66 912.11,-265.09 918.2,-261.63"/>
</g>
<!-- Node16&#45;&gt;Node10 -->
<g id="edge62" class="edge">
<title>Node16&#45;&gt;Node10</title>
<path fill="none" stroke="midnightblue" d="M740.55,-794.47C781.03,-785.48 846.52,-770.88 903,-758 1010.21,-733.54 1045.29,-750.45 1144,-702 1163.57,-692.4 1164.83,-684.43 1182,-671 1233.86,-630.42 1285,-630.35 1285,-564.5 1285,-564.5 1285,-564.5 1285,-132 1285,-53.57 1181.81,-25.98 1110.48,-16.27"/>
<polygon fill="midnightblue" stroke="midnightblue" points="1110.56,-12.75 1100.2,-14.96 1109.68,-19.69 1110.56,-12.75"/>
</g>
<!-- Node17 -->
<g id="node17" class="node">
<title>Node17</title>
<g id="a_node17"><a xlink:href="api_2event__types_8h.html" target="_top" xlink:title="ODP event API type definitions.">
<polygon fill="white" stroke="black" points="1006.5,-615.5 1006.5,-634.5 1131.5,-634.5 1131.5,-615.5 1006.5,-615.5"/>
<text text-anchor="middle" x="1069" y="-622.5" font-family="Helvetica,sans-Serif" font-size="10.00">odp/api/event_types.h</text>
</a>
</g>
</g>
<!-- Node16&#45;&gt;Node17 -->
<g id="edge22" class="edge">
<title>Node16&#45;&gt;Node17</title>
<path fill="none" stroke="midnightblue" d="M753.25,-794.45C787.67,-787.49 833.43,-775.86 871,-758 930.49,-729.72 935.73,-706.84 991,-671 1008.27,-659.8 1028.41,-648.22 1043.9,-639.61"/>
<polygon fill="midnightblue" stroke="midnightblue" points="1045.81,-642.55 1052.87,-634.66 1042.43,-636.42 1045.81,-642.55"/>
</g>
<!-- Node20 -->
<g id="node20" class="node">
<title>Node20</title>
<g id="a_node20"><a xlink:href="api_2packet__types_8h.html" target="_top" xlink:title="ODP packet.">
<polygon fill="white" stroke="black" points="312.5,-738.5 312.5,-757.5 441.5,-757.5 441.5,-738.5 312.5,-738.5"/>
<text text-anchor="middle" x="377" y="-745.5" font-family="Helvetica,sans-Serif" font-size="10.00">odp/api/packet_types.h</text>
</a>
</g>
</g>
<!-- Node16&#45;&gt;Node20 -->
<g id="edge27" class="edge">
<title>Node16&#45;&gt;Node20</title>
<path fill="none" stroke="midnightblue" d="M650.5,-794.44C592.86,-784.87 499.51,-769.36 438.19,-759.17"/>
<polygon fill="midnightblue" stroke="midnightblue" points="438.69,-755.7 428.26,-757.52 437.55,-762.61 438.69,-755.7"/>
</g>
<!-- Node29 -->
<g id="node29" class="node">
<title>Node29</title>
<g id="a_node29"><a xlink:href="api_2queue__types_8h.html" target="_top" xlink:title="ODP queue.">
<polygon fill="white" stroke="black" points="638.5,-615.5 638.5,-634.5 765.5,-634.5 765.5,-615.5 638.5,-615.5"/>
<text text-anchor="middle" x="702" y="-622.5" font-family="Helvetica,sans-Serif" font-size="10.00">odp/api/queue_types.h</text>
</a>
</g>
</g>
<!-- Node16&#45;&gt;Node29 -->
<g id="edge60" class="edge">
<title>Node16&#45;&gt;Node29</title>
<path fill="none" stroke="midnightblue" d="M702,-794.46C702,-767.43 702,-683.24 702,-645.11"/>
<polygon fill="midnightblue" stroke="midnightblue" points="705.5,-644.87 702,-634.87 698.5,-644.87 705.5,-644.87"/>
</g>
<!-- Node18 -->
<g id="node18" class="node">
<title>Node18</title>
<g id="a_node18"><a xlink:title=" ">
<polygon fill="white" stroke="#bfbfbf" points="999.5,-554 999.5,-573 1142.5,-573 1142.5,-554 999.5,-554"/>
<text text-anchor="middle" x="1071" y="-561" font-family="Helvetica,sans-Serif" font-size="10.00">odp/api/abi/event_types.h</text>
</a>
</g>
</g>
<!-- Node17&#45;&gt;Node18 -->
<g id="edge23" class="edge">
<title>Node17&#45;&gt;Node18</title>
<path fill="none" stroke="midnightblue" d="M1069.29,-615.48C1069.57,-607.08 1070.01,-593.98 1070.37,-583.16"/>
<polygon fill="midnightblue" stroke="midnightblue" points="1073.88,-583.12 1070.71,-573.01 1066.88,-582.89 1073.88,-583.12"/>
</g>
<!-- Node19 -->
<g id="node19" class="node">
<title>Node19</title>
<g id="a_node19"><a xlink:href="api_2spec_2event__types_8h.html" target="_top" xlink:title="ODP event API type definitions.">
<polygon fill="white" stroke="black" points="830.5,-56.5 830.5,-86.5 939.5,-86.5 939.5,-56.5 830.5,-56.5"/>
<text text-anchor="start" x="838.5" y="-74.5" font-family="Helvetica,sans-Serif" font-size="10.00">odp/api/spec/event</text>
<text text-anchor="middle" x="885" y="-63.5" font-family="Helvetica,sans-Serif" font-size="10.00">_types.h</text>
</a>
</g>
</g>
<!-- Node17&#45;&gt;Node19 -->
<g id="edge24" class="edge">
<title>Node17&#45;&gt;Node19</title>
<path fill="none" stroke="midnightblue" d="M1097.21,-615.37C1115.44,-608.39 1138.24,-596.75 1152,-579 1173.33,-551.48 1171,-537.82 1171,-503 1171,-503 1171,-503 1171,-372.5 1171,-231.61 1003.71,-130.75 925.02,-91.1"/>
<polygon fill="midnightblue" stroke="midnightblue" points="926.39,-87.87 915.88,-86.57 923.28,-94.14 926.39,-87.87"/>
</g>
<!-- Node19&#45;&gt;Node2 -->
<g id="edge25" class="edge">
<title>Node19&#45;&gt;Node2</title>
<path fill="none" stroke="midnightblue" d="M830.28,-62.19C814.71,-59.99 797.7,-57.74 782,-56 608.89,-36.8 404.5,-22.31 298.98,-15.42"/>
<polygon fill="midnightblue" stroke="midnightblue" points="298.98,-11.92 288.77,-14.76 298.53,-18.9 298.98,-11.92"/>
</g>
<!-- Node19&#45;&gt;Node10 -->
<g id="edge26" class="edge">
<title>Node19&#45;&gt;Node10</title>
<path fill="none" stroke="midnightblue" d="M922.68,-56.4C949.6,-46.33 985.45,-32.91 1011.19,-23.28"/>
<polygon fill="midnightblue" stroke="midnightblue" points="1012.73,-26.44 1020.86,-19.66 1010.27,-19.88 1012.73,-26.44"/>
</g>
<!-- Node21 -->
<g id="node21" class="node">
<title>Node21</title>
<g id="a_node21"><a xlink:title=" ">
<polygon fill="white" stroke="#bfbfbf" points="268,-671.5 268,-701.5 374,-701.5 374,-671.5 268,-671.5"/>
<text text-anchor="start" x="276" y="-689.5" font-family="Helvetica,sans-Serif" font-size="10.00">odp/api/abi/packet</text>
<text text-anchor="middle" x="321" y="-678.5" font-family="Helvetica,sans-Serif" font-size="10.00">_io_types.h</text>
</a>
</g>
</g>
<!-- Node20&#45;&gt;Node21 -->
<g id="edge28" class="edge">
<title>Node20&#45;&gt;Node21</title>
<path fill="none" stroke="midnightblue" d="M368.98,-738.48C361.75,-730.79 350.81,-719.17 341.2,-708.96"/>
<polygon fill="midnightblue" stroke="midnightblue" points="343.6,-706.41 334.2,-701.52 338.5,-711.2 343.6,-706.41"/>
</g>
<!-- Node22 -->
<g id="node22" class="node">
<title>Node22</title>
<g id="a_node22"><a xlink:title=" ">
<polygon fill="white" stroke="#bfbfbf" points="392,-671.5 392,-701.5 498,-701.5 498,-671.5 392,-671.5"/>
<text text-anchor="start" x="400" y="-689.5" font-family="Helvetica,sans-Serif" font-size="10.00">odp/api/abi/packet</text>
<text text-anchor="middle" x="445" y="-678.5" font-family="Helvetica,sans-Serif" font-size="10.00">_types.h</text>
</a>
</g>
</g>
<!-- Node20&#45;&gt;Node22 -->
<g id="edge29" class="edge">
<title>Node20&#45;&gt;Node22</title>
<path fill="none" stroke="midnightblue" d="M386.74,-738.48C395.69,-730.64 409.33,-718.71 421.15,-708.37"/>
<polygon fill="midnightblue" stroke="midnightblue" points="423.75,-710.74 428.97,-701.52 419.14,-705.47 423.75,-710.74"/>
</g>
<!-- Node23 -->
<g id="node23" class="node">
<title>Node23</title>
<g id="a_node23"><a xlink:href="api_2spec_2packet__types_8h.html" target="_top" xlink:title="ODP packet types.">
<polygon fill="white" stroke="black" points="136.5,-671.5 136.5,-701.5 249.5,-701.5 249.5,-671.5 136.5,-671.5"/>
<text text-anchor="start" x="144.5" y="-689.5" font-family="Helvetica,sans-Serif" font-size="10.00">odp/api/spec/packet</text>
<text text-anchor="middle" x="193" y="-678.5" font-family="Helvetica,sans-Serif" font-size="10.00">_types.h</text>
</a>
</g>
</g>
<!-- Node20&#45;&gt;Node23 -->
<g id="edge30" class="edge">
<title>Node20&#45;&gt;Node23</title>
<path fill="none" stroke="midnightblue" d="M350.64,-738.48C323.5,-729.7 280.48,-715.79 246.23,-704.71"/>
<polygon fill="midnightblue" stroke="midnightblue" points="246.96,-701.27 236.37,-701.52 244.8,-707.93 246.96,-701.27"/>
</g>
<!-- Node23&#45;&gt;Node2 -->
<g id="edge31" class="edge">
<title>Node23&#45;&gt;Node2</title>
<path fill="none" stroke="midnightblue" d="M175.86,-671.43C152.62,-650.67 114,-609.41 114,-564.5 114,-564.5 114,-564.5 114,-132 114,-93.62 128.66,-83.91 155,-56 167.49,-42.77 184.7,-31.91 199.26,-24.18"/>
<polygon fill="midnightblue" stroke="midnightblue" points="201.05,-27.2 208.38,-19.56 197.88,-20.96 201.05,-27.2"/>
</g>
<!-- Node23&#45;&gt;Node10 -->
<g id="edge59" class="edge">
<title>Node23&#45;&gt;Node10</title>
<path fill="none" stroke="midnightblue" d="M249.79,-672.47C252.89,-671.93 255.98,-671.43 259,-671 372.55,-654.65 667.85,-678.51 774,-635 991.68,-545.77 1133,-481.26 1133,-246 1133,-246 1133,-246 1133,-132 1133,-86.31 1091.32,-46.49 1065,-25.9"/>
<polygon fill="midnightblue" stroke="midnightblue" points="1066.84,-22.9 1056.75,-19.67 1062.63,-28.49 1066.84,-22.9"/>
</g>
<!-- Node24 -->
<g id="node24" class="node">
<title>Node24</title>
<g id="a_node24"><a xlink:href="deprecated_8h.html" target="_top" xlink:title="Control deprecated API definitions.">
<polygon fill="white" stroke="black" points="142.5,-492.5 142.5,-511.5 261.5,-511.5 261.5,-492.5 142.5,-492.5"/>
<text text-anchor="middle" x="202" y="-499.5" font-family="Helvetica,sans-Serif" font-size="10.00">odp/api/deprecated.h</text>
</a>
</g>
</g>
<!-- Node23&#45;&gt;Node24 -->
<g id="edge32" class="edge">
<title>Node23&#45;&gt;Node24</title>
<path fill="none" stroke="midnightblue" d="M193.69,-671.48C195.29,-639.1 199.24,-559.04 201.06,-522.16"/>
<polygon fill="midnightblue" stroke="midnightblue" points="204.57,-521.98 201.57,-511.82 197.58,-521.63 204.57,-521.98"/>
</g>
<!-- Node26 -->
<g id="node26" class="node">
<title>Node26</title>
<g id="a_node26"><a xlink:href="api_2proto__stats__types_8h.html" target="_top" xlink:title="ODP proto stats types.">
<polygon fill="white" stroke="black" points="311,-358.5 311,-388.5 421,-388.5 421,-358.5 311,-358.5"/>
<text text-anchor="start" x="319" y="-376.5" font-family="Helvetica,sans-Serif" font-size="10.00">odp/api/proto_stats</text>
<text text-anchor="middle" x="366" y="-365.5" font-family="Helvetica,sans-Serif" font-size="10.00">_types.h</text>
</a>
</g>
</g>
<!-- Node23&#45;&gt;Node26 -->
<g id="edge36" class="edge">
<title>Node23&#45;&gt;Node26</title>
<path fill="none" stroke="midnightblue" d="M249.17,-671.49C299.68,-655.13 366,-622.59 366,-564.5 366,-564.5 366,-564.5 366,-501 366,-465.42 366,-424.2 366,-398.74"/>
<polygon fill="midnightblue" stroke="midnightblue" points="369.5,-398.54 366,-388.54 362.5,-398.54 369.5,-398.54"/>
</g>
<!-- Node23&#45;&gt;Node29 -->
<g id="edge42" class="edge">
<title>Node23&#45;&gt;Node29</title>
<path fill="none" stroke="midnightblue" d="M249.8,-672.59C252.91,-672.02 255.99,-671.48 259,-671 388.05,-650.34 539.85,-637.34 628.07,-630.9"/>
<polygon fill="midnightblue" stroke="midnightblue" points="628.52,-634.37 638.24,-630.16 628.02,-627.39 628.52,-634.37"/>
</g>
<!-- Node25 -->
<g id="node25" class="node">
<title>Node25</title>
<g id="a_node25"><a xlink:href="spec_2deprecated_8h.html" target="_top" xlink:title="Macro for deprecated API definitions.">
<polygon fill="white" stroke="black" points="370.5,-62 370.5,-81 515.5,-81 515.5,-62 370.5,-62"/>
<text text-anchor="middle" x="443" y="-69" font-family="Helvetica,sans-Serif" font-size="10.00">odp/api/spec/deprecated.h</text>
</a>
</g>
</g>
<!-- Node24&#45;&gt;Node25 -->
<g id="edge33" class="edge">
<title>Node24&#45;&gt;Node25</title>
<path fill="none" stroke="midnightblue" d="M204.59,-492.25C213.48,-462.8 244.5,-364.92 285,-291 329.38,-210.01 399.19,-124.08 428.88,-88.93"/>
<polygon fill="midnightblue" stroke="midnightblue" points="431.71,-91 435.52,-81.12 426.38,-86.47 431.71,-91"/>
</g>
<!-- Node25&#45;&gt;Node2 -->
<g id="edge34" class="edge">
<title>Node25&#45;&gt;Node2</title>
<path fill="none" stroke="midnightblue" d="M412.2,-61.98C374.44,-51.53 310.34,-33.79 268.59,-22.23"/>
<polygon fill="midnightblue" stroke="midnightblue" points="269.32,-18.8 258.75,-19.51 267.45,-25.55 269.32,-18.8"/>
</g>
<!-- Node25&#45;&gt;Node10 -->
<g id="edge35" class="edge">
<title>Node25&#45;&gt;Node10</title>
<path fill="none" stroke="midnightblue" d="M487.15,-61.95C499.37,-59.79 512.67,-57.62 525,-56 686.95,-34.7 878.71,-21.06 977.61,-14.87"/>
<polygon fill="midnightblue" stroke="midnightblue" points="977.99,-18.35 987.76,-14.24 977.56,-11.36 977.99,-18.35"/>
</g>
<!-- Node27 -->
<g id="node27" class="node">
<title>Node27</title>
<g id="a_node27"><a xlink:title=" ">
<polygon fill="white" stroke="#bfbfbf" points="294,-291.5 294,-321.5 422,-321.5 422,-291.5 294,-291.5"/>
<text text-anchor="start" x="302" y="-309.5" font-family="Helvetica,sans-Serif" font-size="10.00">odp/api/abi/proto_stats</text>
<text text-anchor="middle" x="358" y="-298.5" font-family="Helvetica,sans-Serif" font-size="10.00">_types.h</text>
</a>
</g>
</g>
<!-- Node26&#45;&gt;Node27 -->
<g id="edge37" class="edge">
<title>Node26&#45;&gt;Node27</title>
<path fill="none" stroke="midnightblue" d="M364.26,-358.4C363.3,-350.56 362.07,-340.6 360.96,-331.57"/>
<polygon fill="midnightblue" stroke="midnightblue" points="364.43,-331.07 359.73,-321.58 357.48,-331.93 364.43,-331.07"/>
</g>
<!-- Node28 -->
<g id="node28" class="node">
<title>Node28</title>
<g id="a_node28"><a xlink:href="api_2spec_2proto__stats__types_8h.html" target="_top" xlink:title="ODP proto stats types.">
<polygon fill="white" stroke="black" points="440.5,-291.5 440.5,-321.5 547.5,-321.5 547.5,-291.5 440.5,-291.5"/>
<text text-anchor="start" x="448.5" y="-309.5" font-family="Helvetica,sans-Serif" font-size="10.00">odp/api/spec/proto</text>
<text text-anchor="middle" x="494" y="-298.5" font-family="Helvetica,sans-Serif" font-size="10.00">_stats_types.h</text>
</a>
</g>
</g>
<!-- Node26&#45;&gt;Node28 -->
<g id="edge38" class="edge">
<title>Node26&#45;&gt;Node28</title>
<path fill="none" stroke="midnightblue" d="M393.77,-358.4C412.39,-348.94 437.11,-336.39 457.34,-326.12"/>
<polygon fill="midnightblue" stroke="midnightblue" points="458.95,-329.23 466.28,-321.58 455.78,-322.98 458.95,-329.23"/>
</g>
<!-- Node28&#45;&gt;Node2 -->
<g id="edge39" class="edge">
<title>Node28&#45;&gt;Node2</title>
<path fill="none" stroke="midnightblue" d="M469.64,-291.33C428.05,-266.12 342.77,-209.8 290,-143 261.72,-107.2 242.54,-56.41 233.65,-29.46"/>
<polygon fill="midnightblue" stroke="midnightblue" points="236.94,-28.25 230.57,-19.78 230.27,-30.37 236.94,-28.25"/>
</g>
<!-- Node28&#45;&gt;Node3 -->
<g id="edge40" class="edge">
<title>Node28&#45;&gt;Node3</title>
<path fill="none" stroke="midnightblue" d="M547.75,-293.63C552.56,-292.69 557.36,-291.8 562,-291 657.71,-274.54 769.36,-260.92 838.62,-253.12"/>
<polygon fill="midnightblue" stroke="midnightblue" points="839.4,-256.56 848.95,-251.97 838.62,-249.6 839.4,-256.56"/>
</g>
<!-- Node28&#45;&gt;Node10 -->
<g id="edge41" class="edge">
<title>Node28&#45;&gt;Node10</title>
<path fill="none" stroke="midnightblue" d="M541.79,-291.46C609.8,-270.67 729.84,-230.74 762,-199 810.93,-150.7 767.94,-99.73 821,-56 844.58,-36.57 921.1,-24.19 977.97,-17.43"/>
<polygon fill="midnightblue" stroke="midnightblue" points="978.45,-20.9 987.98,-16.28 977.65,-13.95 978.45,-20.9"/>
</g>
<!-- Node30 -->
<g id="node30" class="node">
<title>Node30</title>
<g id="a_node30"><a xlink:title=" ">
<polygon fill="white" stroke="#bfbfbf" points="554.5,-554 554.5,-573 699.5,-573 699.5,-554 554.5,-554"/>
<text text-anchor="middle" x="627" y="-561" font-family="Helvetica,sans-Serif" font-size="10.00">odp/api/abi/queue_types.h</text>
</a>
</g>
</g>
<!-- Node29&#45;&gt;Node30 -->
<g id="edge43" class="edge">
<title>Node29&#45;&gt;Node30</title>
<path fill="none" stroke="midnightblue" d="M691.25,-615.48C679.45,-606.11 660.26,-590.88 645.92,-579.51"/>
<polygon fill="midnightblue" stroke="midnightblue" points="647.74,-576.48 637.73,-573.01 643.38,-581.97 647.74,-576.48"/>
</g>
<!-- Node31 -->
<g id="node31" class="node">
<title>Node31</title>
<g id="a_node31"><a xlink:href="api_2spec_2queue__types_8h.html" target="_top" xlink:title="ODP queue types.">
<polygon fill="white" stroke="black" points="717.5,-548.5 717.5,-578.5 828.5,-578.5 828.5,-548.5 717.5,-548.5"/>
<text text-anchor="start" x="725.5" y="-566.5" font-family="Helvetica,sans-Serif" font-size="10.00">odp/api/spec/queue</text>
<text text-anchor="middle" x="773" y="-555.5" font-family="Helvetica,sans-Serif" font-size="10.00">_types.h</text>
</a>
</g>
</g>
<!-- Node29&#45;&gt;Node31 -->
<g id="edge44" class="edge">
<title>Node29&#45;&gt;Node31</title>
<path fill="none" stroke="midnightblue" d="M712.17,-615.48C721.61,-607.57 736.03,-595.48 748.46,-585.07"/>
<polygon fill="midnightblue" stroke="midnightblue" points="750.85,-587.63 756.27,-578.52 746.35,-582.26 750.85,-587.63"/>
</g>
<!-- Node31&#45;&gt;Node2 -->
<g id="edge45" class="edge">
<title>Node31&#45;&gt;Node2</title>
<path fill="none" stroke="midnightblue" d="M717.42,-549.61C714.24,-549.03 711.08,-548.48 708,-548 534.28,-520.8 475.3,-582.02 314,-512 207.64,-465.83 152,-423.45 152,-307.5 152,-307.5 152,-307.5 152,-132 152,-96.58 156.54,-85.6 176,-56 183.79,-44.15 195.54,-33.62 205.9,-25.72"/>
<polygon fill="midnightblue" stroke="midnightblue" points="208.12,-28.44 214.16,-19.74 204.01,-22.77 208.12,-28.44"/>
</g>
<!-- Node31&#45;&gt;Node10 -->
<g id="edge58" class="edge">
<title>Node31&#45;&gt;Node10</title>
<path fill="none" stroke="midnightblue" d="M798.72,-548.39C814.77,-539.04 835.45,-525.95 852,-512 877.74,-490.3 884.73,-484.28 903,-456 984.47,-329.9 987.6,-287.01 1030,-143 1037.28,-118.28 1041.64,-112.55 1045,-87 1046.8,-73.34 1045.15,-69.78 1045,-56 1044.9,-47.4 1044.71,-37.87 1044.51,-29.8"/>
<polygon fill="midnightblue" stroke="midnightblue" points="1048.01,-29.53 1044.25,-19.63 1041.01,-29.71 1048.01,-29.53"/>
</g>
<!-- Node32 -->
<g id="node32" class="node">
<title>Node32</title>
<g id="a_node32"><a xlink:href="api_2schedule__types_8h.html" target="_top" xlink:title="ODP schedule.">
<polygon fill="white" stroke="black" points="703,-492.5 703,-511.5 843,-511.5 843,-492.5 703,-492.5"/>
<text text-anchor="middle" x="773" y="-499.5" font-family="Helvetica,sans-Serif" font-size="10.00">odp/api/schedule_types.h</text>
</a>
</g>
</g>
<!-- Node31&#45;&gt;Node32 -->
<g id="edge46" class="edge">
<title>Node31&#45;&gt;Node32</title>
<path fill="none" stroke="midnightblue" d="M773,-548.4C773,-540.47 773,-530.46 773,-521.86"/>
<polygon fill="midnightblue" stroke="midnightblue" points="776.5,-521.66 773,-511.66 769.5,-521.66 776.5,-521.66"/>
</g>
<!-- Node33 -->
<g id="node33" class="node">
<title>Node33</title>
<g id="a_node33"><a xlink:title=" ">
<polygon fill="white" stroke="#bfbfbf" points="634.5,-425.5 634.5,-455.5 751.5,-455.5 751.5,-425.5 634.5,-425.5"/>
<text text-anchor="start" x="642.5" y="-443.5" font-family="Helvetica,sans-Serif" font-size="10.00">odp/api/abi/schedule</text>
<text text-anchor="middle" x="693" y="-432.5" font-family="Helvetica,sans-Serif" font-size="10.00">_types.h</text>
</a>
</g>
</g>
<!-- Node32&#45;&gt;Node33 -->
<g id="edge47" class="edge">
<title>Node32&#45;&gt;Node33</title>
<path fill="none" stroke="midnightblue" d="M761.54,-492.48C750.8,-484.49 734.35,-472.25 720.25,-461.77"/>
<polygon fill="midnightblue" stroke="midnightblue" points="721.97,-458.68 711.85,-455.52 717.79,-464.3 721.97,-458.68"/>
</g>
<!-- Node34 -->
<g id="node34" class="node">
<title>Node34</title>
<g id="a_node34"><a xlink:href="api_2spec_2schedule__types_8h.html" target="_top" xlink:title="ODP schedule types.">
<polygon fill="white" stroke="black" points="769.5,-425.5 769.5,-455.5 894.5,-455.5 894.5,-425.5 769.5,-425.5"/>
<text text-anchor="start" x="777.5" y="-443.5" font-family="Helvetica,sans-Serif" font-size="10.00">odp/api/spec/schedule</text>
<text text-anchor="middle" x="832" y="-432.5" font-family="Helvetica,sans-Serif" font-size="10.00">_types.h</text>
</a>
</g>
</g>
<!-- Node32&#45;&gt;Node34 -->
<g id="edge48" class="edge">
<title>Node32&#45;&gt;Node34</title>
<path fill="none" stroke="midnightblue" d="M781.45,-492.48C789.15,-484.72 800.82,-472.94 811.01,-462.66"/>
<polygon fill="midnightblue" stroke="midnightblue" points="813.54,-465.09 818.09,-455.52 808.57,-460.16 813.54,-465.09"/>
</g>
<!-- Node34&#45;&gt;Node2 -->
<g id="edge49" class="edge">
<title>Node34&#45;&gt;Node2</title>
<path fill="none" stroke="midnightblue" d="M769.25,-426.4C766.13,-425.89 763.03,-425.42 760,-425 658.89,-410.9 383.48,-450.51 302,-389 226.69,-332.15 228,-284.36 228,-190 228,-190 228,-190 228,-132 228,-95.71 228,-53.31 228,-29.56"/>
<polygon fill="midnightblue" stroke="midnightblue" points="231.5,-29.51 228,-19.51 224.5,-29.51 231.5,-29.51"/>
</g>
<!-- Node34&#45;&gt;Node3 -->
<g id="edge50" class="edge">
<title>Node34&#45;&gt;Node3</title>
<path fill="none" stroke="midnightblue" d="M846.17,-425.23C854.85,-415.71 865.5,-402.51 872,-389 892,-347.43 900.21,-293.13 903.31,-264.9"/>
<polygon fill="midnightblue" stroke="midnightblue" points="906.81,-265.12 904.32,-254.82 899.84,-264.42 906.81,-265.12"/>
</g>
<!-- Node34&#45;&gt;Node10 -->
<g id="edge57" class="edge">
<title>Node34&#45;&gt;Node10</title>
<path fill="none" stroke="midnightblue" d="M852.17,-425.33C864.61,-415.95 880.35,-402.86 892,-389 988.87,-273.79 1029.73,-88.91 1040.75,-29.81"/>
<polygon fill="midnightblue" stroke="midnightblue" points="1044.24,-30.18 1042.57,-19.72 1037.35,-28.94 1044.24,-30.18"/>
</g>
<!-- Node35 -->
<g id="node35" class="node">
<title>Node35</title>
<g id="a_node35"><a xlink:href="api_2thrmask_8h.html" target="_top" xlink:title="ODP thread masks.">
<polygon fill="white" stroke="black" points="758.5,-364 758.5,-383 863.5,-383 863.5,-364 758.5,-364"/>
<text text-anchor="middle" x="811" y="-371" font-family="Helvetica,sans-Serif" font-size="10.00">odp/api/thrmask.h</text>
</a>
</g>
</g>
<!-- Node34&#45;&gt;Node35 -->
<g id="edge51" class="edge">
<title>Node34&#45;&gt;Node35</title>
<path fill="none" stroke="midnightblue" d="M827.44,-425.4C824.36,-415.86 820.27,-403.18 816.93,-392.86"/>
<polygon fill="midnightblue" stroke="midnightblue" points="820.21,-391.63 813.81,-383.19 813.55,-393.79 820.21,-391.63"/>
</g>
<!-- Node36 -->
<g id="node36" class="node">
<title>Node36</title>
<g id="a_node36"><a xlink:title=" ">
<polygon fill="white" stroke="#bfbfbf" points="604.5,-297 604.5,-316 727.5,-316 727.5,-297 604.5,-297"/>
<text text-anchor="middle" x="666" y="-304" font-family="Helvetica,sans-Serif" font-size="10.00">odp/api/abi/thrmask.h</text>
</a>
</g>
</g>
<!-- Node35&#45;&gt;Node36 -->
<g id="edge52" class="edge">
<title>Node35&#45;&gt;Node36</title>
<path fill="none" stroke="midnightblue" d="M791.75,-363.87C766.83,-352.7 723.21,-333.15 694.47,-320.26"/>
<polygon fill="midnightblue" stroke="midnightblue" points="695.89,-317.06 685.33,-316.17 693.03,-323.45 695.89,-317.06"/>
</g>
<!-- Node37 -->
<g id="node37" class="node">
<title>Node37</title>
<g id="a_node37"><a xlink:href="api_2spec_2thrmask_8h.html" target="_top" xlink:title="ODP thread masks.">
<polygon fill="white" stroke="black" points="745.5,-297 745.5,-316 876.5,-316 876.5,-297 745.5,-297"/>
<text text-anchor="middle" x="811" y="-304" font-family="Helvetica,sans-Serif" font-size="10.00">odp/api/spec/thrmask.h</text>
</a>
</g>
</g>
<!-- Node35&#45;&gt;Node37 -->
<g id="edge53" class="edge">
<title>Node35&#45;&gt;Node37</title>
<path fill="none" stroke="midnightblue" d="M811,-363.73C811,-354.18 811,-338.62 811,-326.28"/>
<polygon fill="midnightblue" stroke="midnightblue" points="814.5,-326.13 811,-316.13 807.5,-326.13 814.5,-326.13"/>
</g>
<!-- Node37&#45;&gt;Node2 -->
<g id="edge54" class="edge">
<title>Node37&#45;&gt;Node2</title>
<path fill="none" stroke="midnightblue" d="M784.82,-296.92C709.03,-271.44 484.25,-191.51 318,-87 290.03,-69.41 261.52,-43.76 244.29,-27.22"/>
<polygon fill="midnightblue" stroke="midnightblue" points="246.39,-24.38 236.79,-19.91 241.5,-29.39 246.39,-24.38"/>
</g>
<!-- Node37&#45;&gt;Node3 -->
<g id="edge55" class="edge">
<title>Node37&#45;&gt;Node3</title>
<path fill="none" stroke="midnightblue" d="M824.47,-296.98C839.68,-287.34 864.69,-271.52 882.8,-260.05"/>
<polygon fill="midnightblue" stroke="midnightblue" points="884.98,-262.81 891.56,-254.51 881.24,-256.9 884.98,-262.81"/>
</g>
<!-- Node37&#45;&gt;Node10 -->
<g id="edge56" class="edge">
<title>Node37&#45;&gt;Node10</title>
<path fill="none" stroke="midnightblue" d="M810.75,-296.94C810.54,-275.19 812.64,-216.84 839,-179 882.2,-116.99 925.64,-137.35 982,-87 1001.96,-69.17 1020.78,-44.59 1032.33,-28.27"/>
<polygon fill="midnightblue" stroke="midnightblue" points="1035.44,-29.94 1038.25,-19.72 1029.68,-25.95 1035.44,-29.94"/>
</g>
<!-- Node39 -->
<g id="node39" class="node">
<title>Node39</title>
<g id="a_node39"><a xlink:title=" ">
<polygon fill="white" stroke="#bfbfbf" points="1191,-677 1191,-696 1319,-696 1319,-677 1191,-677"/>
<text text-anchor="middle" x="1255" y="-684" font-family="Helvetica,sans-Serif" font-size="10.00">odp/api/abi/ml_types.h</text>
</a>
</g>
</g>
<!-- Node38&#45;&gt;Node39 -->
<g id="edge64" class="edge">
<title>Node38&#45;&gt;Node39</title>
<path fill="none" stroke="midnightblue" d="M1247.29,-738.48C1248.56,-730.08 1250.54,-716.98 1252.18,-706.16"/>
<polygon fill="midnightblue" stroke="midnightblue" points="1255.68,-706.42 1253.71,-696.01 1248.76,-705.37 1255.68,-706.42"/>
</g>
<!-- Node40 -->
<g id="node40" class="node">
<title>Node40</title>
<g id="a_node40"><a xlink:href="api_2spec_2ml__types_8h.html" target="_top" xlink:title="ODP Machine Learning (ML) types.">
<polygon fill="white" stroke="black" points="999.5,-677 999.5,-696 1134.5,-696 1134.5,-677 999.5,-677"/>
<text text-anchor="middle" x="1067" y="-684" font-family="Helvetica,sans-Serif" font-size="10.00">odp/api/spec/ml_types.h</text>
</a>
</g>
</g>
<!-- Node38&#45;&gt;Node40 -->
<g id="edge65" class="edge">
<title>Node38&#45;&gt;Node40</title>
<path fill="none" stroke="midnightblue" d="M1220.35,-738.48C1189.38,-728.18 1137.13,-710.81 1102.35,-699.25"/>
<polygon fill="midnightblue" stroke="midnightblue" points="1103.19,-695.84 1092.6,-696.01 1100.98,-702.48 1103.19,-695.84"/>
</g>
<!-- Node40&#45;&gt;Node2 -->
<g id="edge66" class="edge">
<title>Node40&#45;&gt;Node2</title>
<path fill="none" stroke="midnightblue" d="M1055.2,-676.72C1022.36,-652.66 926.4,-585.03 837,-548 776.45,-522.92 757.29,-529.03 694,-512 502.47,-460.45 433.78,-493.19 265,-389 223.11,-363.14 190,-356.73 190,-307.5 190,-307.5 190,-307.5 190,-132 190,-93.81 207.44,-51.83 218.69,-28.72"/>
<polygon fill="midnightblue" stroke="midnightblue" points="221.96,-30.02 223.34,-19.52 215.71,-26.86 221.96,-30.02"/>
</g>
<!-- Node40&#45;&gt;Node3 -->
<g id="edge69" class="edge">
<title>Node40&#45;&gt;Node3</title>
<path fill="none" stroke="midnightblue" d="M1087.61,-676.88C1104.65,-668.65 1128.07,-654.61 1141,-635 1154.96,-613.82 1149.54,-604.25 1152,-579 1164.87,-446.66 1166.91,-383.09 1071,-291 1044.55,-265.6 1005.28,-254.22 971.58,-249.24"/>
<polygon fill="midnightblue" stroke="midnightblue" points="971.69,-245.73 961.32,-247.9 970.77,-252.67 971.69,-245.73"/>
</g>
<!-- Node40&#45;&gt;Node10 -->
<g id="edge70" class="edge">
<title>Node40&#45;&gt;Node10</title>
<path fill="none" stroke="midnightblue" d="M1108.3,-676.97C1161.44,-663.29 1247,-630.96 1247,-564.5 1247,-564.5 1247,-564.5 1247,-132 1247,-66.65 1168.41,-35.78 1109.03,-21.78"/>
<polygon fill="midnightblue" stroke="midnightblue" points="1109.46,-18.29 1098.93,-19.51 1107.93,-25.12 1109.46,-18.29"/>
</g>
<!-- Node40&#45;&gt;Node17 -->
<g id="edge67" class="edge">
<title>Node40&#45;&gt;Node17</title>
<path fill="none" stroke="midnightblue" d="M1067.29,-676.98C1067.57,-668.58 1068.01,-655.48 1068.37,-644.66"/>
<polygon fill="midnightblue" stroke="midnightblue" points="1071.88,-644.62 1068.71,-634.51 1064.88,-644.39 1071.88,-644.62"/>
</g>
<!-- Node40&#45;&gt;Node29 -->
<g id="edge68" class="edge">
<title>Node40&#45;&gt;Node29</title>
<path fill="none" stroke="midnightblue" d="M1014.7,-676.98C948.57,-666.19 834.84,-647.65 764.28,-636.15"/>
<polygon fill="midnightblue" stroke="midnightblue" points="764.63,-632.66 754.2,-634.51 763.51,-639.57 764.63,-632.66"/>
</g>
</g>
</svg>
