<?xml version="1.0" encoding="UTF-8" standalone="no"?>
<!DOCTYPE svg PUBLIC "-//W3C//DTD SVG 1.1//EN"
 "http://www.w3.org/Graphics/SVG/1.1/DTD/svg11.dtd">
<!-- Generated by graphviz version 2.43.0 (0)
 -->
<!-- Title: queue.h Pages: 1 -->
<svg width="1116pt" height="709pt"
 viewBox="0.00 0.00 1116.00 709.00" xmlns="http://www.w3.org/2000/svg" xmlns:xlink="http://www.w3.org/1999/xlink">
<g id="graph0" class="graph" transform="scale(1 1) rotate(0) translate(4 705)">
<title>queue.h</title>
<!-- Node1 -->
<g id="Node000001" class="node">
<title>Node1</title>
<g id="a_Node000001"><a xlink:title="ODP queue.">
<polygon fill="#999999" stroke="#666666" points="180,-701 124,-701 124,-682 180,-682 180,-701"/>
<text text-anchor="middle" x="152" y="-689" font-family="Helvetica,sans-Serif" font-size="10.00">queue.h</text>
</a>
</g>
</g>
<!-- Node2 -->
<g id="Node000002" class="node">
<title>Node2</title>
<g id="a_Node000002"><a xlink:href="visibility__begin_8h_source.html" target="_top" xlink:title=" ">
<polygon fill="white" stroke="#666666" points="371.5,-19 250.5,-19 250.5,0 371.5,0 371.5,-19"/>
<text text-anchor="middle" x="311" y="-7" font-family="Helvetica,sans-Serif" font-size="10.00">odp/visibility_begin.h</text>
</a>
</g>
</g>
<!-- Node1&#45;&gt;Node2 -->
<g id="edge1_Node000001_Node000002" class="edge">
<title>Node1&#45;&gt;Node2</title>
<g id="a_edge1_Node000001_Node000002"><a xlink:title=" ">
<path fill="none" stroke="#63b8ff" d="M123.77,-683.32C79.81,-670.24 0,-638.09 0,-577 0,-577 0,-577 0,-129.5 0,-89.87 15.82,-76.67 49,-55 79.77,-34.9 173.72,-22.58 240.29,-16.15"/>
<polygon fill="#63b8ff" stroke="#63b8ff" points="240.69,-19.62 250.31,-15.2 240.03,-12.66 240.69,-19.62"/>
</a>
</g>
</g>
<!-- Node3 -->
<g id="Node000003" class="node">
<title>Node3</title>
<g id="a_Node000003"><a xlink:href="api_2event__types_8h.html" target="_top" xlink:title="ODP event API type definitions.">
<polygon fill="white" stroke="#666666" points="308.5,-266.5 183.5,-266.5 183.5,-247.5 308.5,-247.5 308.5,-266.5"/>
<text text-anchor="middle" x="246" y="-254.5" font-family="Helvetica,sans-Serif" font-size="10.00">odp/api/event_types.h</text>
</a>
</g>
</g>
<!-- Node1&#45;&gt;Node3 -->
<g id="edge2_Node000001_Node000003" class="edge">
<title>Node1&#45;&gt;Node3</title>
<g id="a_edge2_Node000001_Node000003"><a xlink:title=" ">
<path fill="none" stroke="#63b8ff" d="M147.03,-682C136.73,-663.54 114,-618.14 114,-577 114,-577 114,-577 114,-388 114,-350.88 113.68,-336.05 138,-308 154.08,-289.45 178.5,-277.35 200.05,-269.71"/>
<polygon fill="#63b8ff" stroke="#63b8ff" points="201.32,-272.98 209.71,-266.5 199.11,-266.33 201.32,-272.98"/>
</a>
</g>
</g>
<!-- Node6 -->
<g id="Node000006" class="node">
<title>Node6</title>
<g id="a_Node000006"><a xlink:href="visibility__end_8h_source.html" target="_top" xlink:title=" ">
<polygon fill="white" stroke="#666666" points="898,-19 786,-19 786,0 898,0 898,-19"/>
<text text-anchor="middle" x="842" y="-7" font-family="Helvetica,sans-Serif" font-size="10.00">odp/visibility_end.h</text>
</a>
</g>
</g>
<!-- Node1&#45;&gt;Node6 -->
<g id="edge51_Node000001_Node000006" class="edge">
<title>Node1&#45;&gt;Node6</title>
<g id="a_edge51_Node000001_Node000006"><a xlink:title=" ">
<path fill="none" stroke="#63b8ff" d="M180.09,-690.19C338,-688.1 1108,-673 1108,-577 1108,-577 1108,-577 1108,-129.5 1108,-42.23 987.22,-18.54 908.43,-12.37"/>
<polygon fill="#63b8ff" stroke="#63b8ff" points="908.31,-8.85 898.09,-11.64 907.82,-15.83 908.31,-8.85"/>
</a>
</g>
</g>
<!-- Node7 -->
<g id="Node000007" class="node">
<title>Node7</title>
<g id="a_Node000007"><a xlink:href="api_2queue__types_8h.html" target="_top" xlink:title="ODP queue.">
<polygon fill="white" stroke="#666666" points="458.5,-646 331.5,-646 331.5,-627 458.5,-627 458.5,-646"/>
<text text-anchor="middle" x="395" y="-634" font-family="Helvetica,sans-Serif" font-size="10.00">odp/api/queue_types.h</text>
</a>
</g>
</g>
<!-- Node1&#45;&gt;Node7 -->
<g id="edge7_Node000001_Node000007" class="edge">
<title>Node1&#45;&gt;Node7</title>
<g id="a_edge7_Node000001_Node000007"><a xlink:title=" ">
<path fill="none" stroke="#63b8ff" d="M180.35,-684.32C220.99,-675.45 296.39,-659.01 346.13,-648.16"/>
<polygon fill="#63b8ff" stroke="#63b8ff" points="347,-651.55 356.03,-646 345.51,-644.71 347,-651.55"/>
</a>
</g>
</g>
<!-- Node17 -->
<g id="Node000017" class="node">
<title>Node17</title>
<g id="a_Node000017"><a xlink:href="api_2std__types_8h.html" target="_top" xlink:title="Standard C language types and definitions for ODP.">
<polygon fill="white" stroke="#666666" points="467,-266.5 355,-266.5 355,-247.5 467,-247.5 467,-266.5"/>
<text text-anchor="middle" x="411" y="-254.5" font-family="Helvetica,sans-Serif" font-size="10.00">odp/api/std_types.h</text>
</a>
</g>
</g>
<!-- Node1&#45;&gt;Node17 -->
<g id="edge50_Node000001_Node000017" class="edge">
<title>Node1&#45;&gt;Node17</title>
<g id="a_edge50_Node000001_Node000017"><a xlink:title=" ">
<path fill="none" stroke="#63b8ff" d="M152,-681.96C152,-663.05 152,-616.21 152,-577 152,-577 152,-577 152,-388 152,-346.54 166.53,-332.48 200,-308 222.91,-291.24 292.03,-276.88 344.98,-267.9"/>
<polygon fill="#63b8ff" stroke="#63b8ff" points="345.71,-271.33 355,-266.24 344.56,-264.43 345.71,-271.33"/>
</a>
</g>
</g>
<!-- Node4 -->
<g id="Node000004" class="node">
<title>Node4</title>
<g id="a_Node000004"><a xlink:title=" ">
<polygon fill="#e0e0e0" stroke="#999999" points="285.5,-200.5 142.5,-200.5 142.5,-181.5 285.5,-181.5 285.5,-200.5"/>
<text text-anchor="middle" x="214" y="-188.5" font-family="Helvetica,sans-Serif" font-size="10.00">odp/api/abi/event_types.h</text>
</a>
</g>
</g>
<!-- Node3&#45;&gt;Node4 -->
<g id="edge3_Node000003_Node000004" class="edge">
<title>Node3&#45;&gt;Node4</title>
<g id="a_edge3_Node000003_Node000004"><a xlink:title=" ">
<path fill="none" stroke="#63b8ff" d="M241.68,-247.37C236.94,-237.88 229.18,-222.36 223.08,-210.16"/>
<polygon fill="#63b8ff" stroke="#63b8ff" points="226.06,-208.28 218.45,-200.91 219.79,-211.41 226.06,-208.28"/>
</a>
</g>
</g>
<!-- Node5 -->
<g id="Node000005" class="node">
<title>Node5</title>
<g id="a_Node000005"><a xlink:href="api_2spec_2event__types_8h.html" target="_top" xlink:title="ODP event API type definitions.">
<polygon fill="white" stroke="#666666" points="365.5,-85 256.5,-85 256.5,-55 365.5,-55 365.5,-85"/>
<text text-anchor="start" x="264.5" y="-73" font-family="Helvetica,sans-Serif" font-size="10.00">odp/api/spec/event</text>
<text text-anchor="middle" x="311" y="-62" font-family="Helvetica,sans-Serif" font-size="10.00">_types.h</text>
</a>
</g>
</g>
<!-- Node3&#45;&gt;Node5 -->
<g id="edge4_Node000003_Node000005" class="edge">
<title>Node3&#45;&gt;Node5</title>
<g id="a_edge4_Node000003_Node000005"><a xlink:title=" ">
<path fill="none" stroke="#63b8ff" d="M258.12,-247.17C269.45,-238.18 285.81,-223.16 294,-206 311.06,-170.24 313.06,-123.38 312.42,-95.33"/>
<polygon fill="#63b8ff" stroke="#63b8ff" points="315.91,-95.08 312.05,-85.21 308.91,-95.34 315.91,-95.08"/>
</a>
</g>
</g>
<!-- Node5&#45;&gt;Node2 -->
<g id="edge5_Node000005_Node000002" class="edge">
<title>Node5&#45;&gt;Node2</title>
<g id="a_edge5_Node000005_Node000002"><a xlink:title=" ">
<path fill="none" stroke="#63b8ff" d="M311,-54.84C311,-47.21 311,-37.7 311,-29.45"/>
<polygon fill="#63b8ff" stroke="#63b8ff" points="314.5,-29.27 311,-19.27 307.5,-29.27 314.5,-29.27"/>
</a>
</g>
</g>
<!-- Node5&#45;&gt;Node6 -->
<g id="edge6_Node000005_Node000006" class="edge">
<title>Node5&#45;&gt;Node6</title>
<g id="a_edge6_Node000005_Node000006"><a xlink:title=" ">
<path fill="none" stroke="#63b8ff" d="M365.83,-62.96C464.04,-52.14 669.61,-29.49 775.62,-17.81"/>
<polygon fill="#63b8ff" stroke="#63b8ff" points="776.32,-21.26 785.88,-16.68 775.55,-14.3 776.32,-21.26"/>
</a>
</g>
</g>
<!-- Node8 -->
<g id="Node000008" class="node">
<title>Node8</title>
<g id="a_Node000008"><a xlink:title=" ">
<polygon fill="#e0e0e0" stroke="#999999" points="467.5,-585.5 322.5,-585.5 322.5,-566.5 467.5,-566.5 467.5,-585.5"/>
<text text-anchor="middle" x="395" y="-573.5" font-family="Helvetica,sans-Serif" font-size="10.00">odp/api/abi/queue_types.h</text>
</a>
</g>
</g>
<!-- Node7&#45;&gt;Node8 -->
<g id="edge8_Node000007_Node000008" class="edge">
<title>Node7&#45;&gt;Node8</title>
<g id="a_edge8_Node000007_Node000008"><a xlink:title=" ">
<path fill="none" stroke="#63b8ff" d="M395,-626.87C395,-618.75 395,-606.31 395,-595.89"/>
<polygon fill="#63b8ff" stroke="#63b8ff" points="398.5,-595.67 395,-585.67 391.5,-595.67 398.5,-595.67"/>
</a>
</g>
</g>
<!-- Node9 -->
<g id="Node000009" class="node">
<title>Node9</title>
<g id="a_Node000009"><a xlink:href="api_2spec_2queue__types_8h.html" target="_top" xlink:title="ODP queue types.">
<polygon fill="white" stroke="#666666" points="690.5,-591 579.5,-591 579.5,-561 690.5,-561 690.5,-591"/>
<text text-anchor="start" x="587.5" y="-579" font-family="Helvetica,sans-Serif" font-size="10.00">odp/api/spec/queue</text>
<text text-anchor="middle" x="635" y="-568" font-family="Helvetica,sans-Serif" font-size="10.00">_types.h</text>
</a>
</g>
</g>
<!-- Node7&#45;&gt;Node9 -->
<g id="edge9_Node000007_Node000009" class="edge">
<title>Node7&#45;&gt;Node9</title>
<g id="a_edge9_Node000007_Node000009"><a xlink:title=" ">
<path fill="none" stroke="#63b8ff" d="M429.9,-626.99C466.28,-618.13 524.16,-604.02 569.17,-593.05"/>
<polygon fill="#63b8ff" stroke="#63b8ff" points="570.26,-596.38 579.15,-590.61 568.6,-589.58 570.26,-596.38"/>
</a>
</g>
</g>
<!-- Node9&#45;&gt;Node2 -->
<g id="edge10_Node000009_Node000002" class="edge">
<title>Node9&#45;&gt;Node2</title>
<g id="a_edge10_Node000009_Node000002"><a xlink:title=" ">
<path fill="none" stroke="#63b8ff" d="M579.37,-564.06C431.17,-533.33 38,-440.79 38,-324 38,-324 38,-324 38,-129.5 38,-41.24 159.38,-17.78 240.27,-11.94"/>
<polygon fill="#63b8ff" stroke="#63b8ff" points="240.66,-15.42 250.41,-11.28 240.21,-8.43 240.66,-15.42"/>
</a>
</g>
</g>
<!-- Node9&#45;&gt;Node6 -->
<g id="edge49_Node000009_Node000006" class="edge">
<title>Node9&#45;&gt;Node6</title>
<g id="a_edge49_Node000009_Node000006"><a xlink:title=" ">
<path fill="none" stroke="#63b8ff" d="M690.53,-571.48C807.81,-562.53 1070,-533.81 1070,-456 1070,-456 1070,-456 1070,-129.5 1070,-55.92 975.52,-27.76 908.2,-17.03"/>
<polygon fill="#63b8ff" stroke="#63b8ff" points="908.48,-13.53 898.07,-15.52 907.44,-20.46 908.48,-13.53"/>
</a>
</g>
</g>
<!-- Node10 -->
<g id="Node000010" class="node">
<title>Node10</title>
<g id="a_Node000010"><a xlink:href="api_2event__vector__types_8h.html" target="_top" xlink:title="ODP event vector API type definitions.">
<polygon fill="white" stroke="#666666" points="831.5,-404 712.5,-404 712.5,-374 831.5,-374 831.5,-404"/>
<text text-anchor="start" x="720.5" y="-392" font-family="Helvetica,sans-Serif" font-size="10.00">odp/api/event_vector</text>
<text text-anchor="middle" x="772" y="-381" font-family="Helvetica,sans-Serif" font-size="10.00">_types.h</text>
</a>
</g>
</g>
<!-- Node9&#45;&gt;Node10 -->
<g id="edge11_Node000009_Node000010" class="edge">
<title>Node9&#45;&gt;Node10</title>
<g id="a_edge11_Node000009_Node000010"><a xlink:title=" ">
<path fill="none" stroke="#63b8ff" d="M656.96,-560.88C669.99,-551.75 686.21,-538.98 698,-525 727.31,-490.25 750.34,-442.07 762.5,-413.66"/>
<polygon fill="#63b8ff" stroke="#63b8ff" points="765.85,-414.72 766.48,-404.14 759.39,-412.02 765.85,-414.72"/>
</a>
</g>
</g>
<!-- Node14 -->
<g id="Node000014" class="node">
<title>Node14</title>
<g id="a_Node000014"><a xlink:href="queue__stats__types_8h.html" target="_top" xlink:title="ODP queue.">
<polygon fill="white" stroke="#666666" points="875.5,-272 760.5,-272 760.5,-242 875.5,-242 875.5,-272"/>
<text text-anchor="start" x="768.5" y="-260" font-family="Helvetica,sans-Serif" font-size="10.00">odp/api/queue_stats</text>
<text text-anchor="middle" x="818" y="-249" font-family="Helvetica,sans-Serif" font-size="10.00">_types.h</text>
</a>
</g>
</g>
<!-- Node9&#45;&gt;Node14 -->
<g id="edge34_Node000009_Node000014" class="edge">
<title>Node9&#45;&gt;Node14</title>
<g id="a_edge34_Node000009_Node000014"><a xlink:title=" ">
<path fill="none" stroke="#63b8ff" d="M645.15,-560.76C659.51,-539.18 684,-496.44 684,-456 684,-456 684,-456 684,-388 684,-351.35 680.36,-336 704,-308 716.23,-293.51 733.48,-283.08 750.85,-275.63"/>
<polygon fill="#63b8ff" stroke="#63b8ff" points="752.5,-278.74 760.49,-271.79 749.91,-272.24 752.5,-278.74"/>
</a>
</g>
</g>
<!-- Node23 -->
<g id="Node000023" class="node">
<title>Node23</title>
<g id="a_Node000023"><a xlink:href="api_2schedule__types_8h.html" target="_top" xlink:title="ODP schedule.">
<polygon fill="white" stroke="#666666" points="656,-525 516,-525 516,-506 656,-506 656,-525"/>
<text text-anchor="middle" x="586" y="-513" font-family="Helvetica,sans-Serif" font-size="10.00">odp/api/schedule_types.h</text>
</a>
</g>
</g>
<!-- Node9&#45;&gt;Node23 -->
<g id="edge35_Node000009_Node000023" class="edge">
<title>Node9&#45;&gt;Node23</title>
<g id="a_edge35_Node000009_Node000023"><a xlink:title=" ">
<path fill="none" stroke="#63b8ff" d="M623.14,-560.84C616.1,-552.43 607.14,-541.74 599.79,-532.96"/>
<polygon fill="#63b8ff" stroke="#63b8ff" points="602.45,-530.68 593.34,-525.27 597.08,-535.18 602.45,-530.68"/>
</a>
</g>
</g>
<!-- Node11 -->
<g id="Node000011" class="node">
<title>Node11</title>
<g id="a_Node000011"><a xlink:title=" ">
<polygon fill="#e0e0e0" stroke="#999999" points="849.5,-338 712.5,-338 712.5,-308 849.5,-308 849.5,-338"/>
<text text-anchor="start" x="720.5" y="-326" font-family="Helvetica,sans-Serif" font-size="10.00">odp/api/abi/event_vector</text>
<text text-anchor="middle" x="781" y="-315" font-family="Helvetica,sans-Serif" font-size="10.00">_types.h</text>
</a>
</g>
</g>
<!-- Node10&#45;&gt;Node11 -->
<g id="edge12_Node000010_Node000011" class="edge">
<title>Node10&#45;&gt;Node11</title>
<g id="a_edge12_Node000010_Node000011"><a xlink:title=" ">
<path fill="none" stroke="#63b8ff" d="M774,-373.8C775.06,-366.26 776.39,-356.78 777.61,-348.13"/>
<polygon fill="#63b8ff" stroke="#63b8ff" points="781.08,-348.55 779.01,-338.16 774.15,-347.58 781.08,-348.55"/>
</a>
</g>
</g>
<!-- Node12 -->
<g id="Node000012" class="node">
<title>Node12</title>
<g id="a_Node000012"><a xlink:title=" ">
<polygon fill="#e0e0e0" stroke="#999999" points="1004,-332.5 868,-332.5 868,-313.5 1004,-313.5 1004,-332.5"/>
<text text-anchor="middle" x="936" y="-320.5" font-family="Helvetica,sans-Serif" font-size="10.00">odp/api/abi/pool_types.h</text>
</a>
</g>
</g>
<!-- Node10&#45;&gt;Node12 -->
<g id="edge13_Node000010_Node000012" class="edge">
<title>Node10&#45;&gt;Node12</title>
<g id="a_edge13_Node000010_Node000012"><a xlink:title=" ">
<path fill="none" stroke="#63b8ff" d="M807.99,-373.95C836.88,-362.68 877.03,-347.01 904.62,-336.25"/>
<polygon fill="#63b8ff" stroke="#63b8ff" points="906.13,-339.41 914.17,-332.52 903.59,-332.89 906.13,-339.41"/>
</a>
</g>
</g>
<!-- Node13 -->
<g id="Node000013" class="node">
<title>Node13</title>
<g id="a_Node000013"><a xlink:href="api_2spec_2event__vector__types_8h.html" target="_top" xlink:title="ODP event vector API type definitions.">
<polygon fill="white" stroke="#666666" points="617.5,-338 508.5,-338 508.5,-308 617.5,-308 617.5,-338"/>
<text text-anchor="start" x="516.5" y="-326" font-family="Helvetica,sans-Serif" font-size="10.00">odp/api/spec/event</text>
<text text-anchor="middle" x="563" y="-315" font-family="Helvetica,sans-Serif" font-size="10.00">_vector_types.h</text>
</a>
</g>
</g>
<!-- Node10&#45;&gt;Node13 -->
<g id="edge14_Node000010_Node000013" class="edge">
<title>Node10&#45;&gt;Node13</title>
<g id="a_edge14_Node000010_Node000013"><a xlink:title=" ">
<path fill="none" stroke="#63b8ff" d="M726.13,-373.95C694.42,-364.24 652.05,-351.27 618.44,-340.98"/>
<polygon fill="#63b8ff" stroke="#63b8ff" points="619.35,-337.59 608.76,-338.01 617.3,-344.29 619.35,-337.59"/>
</a>
</g>
</g>
<!-- Node13&#45;&gt;Node2 -->
<g id="edge15_Node000013_Node000002" class="edge">
<title>Node13&#45;&gt;Node2</title>
<g id="a_edge15_Node000013_Node000002"><a xlink:title=" ">
<path fill="none" stroke="#63b8ff" d="M556.25,-307.72C543.29,-280.87 513.34,-221.5 481,-176 439.41,-117.49 427.45,-102.92 374,-55 361.4,-43.71 345.9,-32.72 333.42,-24.49"/>
<polygon fill="#63b8ff" stroke="#63b8ff" points="335.25,-21.51 324.95,-19.02 331.45,-27.39 335.25,-21.51"/>
</a>
</g>
</g>
<!-- Node13&#45;&gt;Node3 -->
<g id="edge16_Node000013_Node000003" class="edge">
<title>Node13&#45;&gt;Node3</title>
<g id="a_edge16_Node000013_Node000003"><a xlink:title=" ">
<path fill="none" stroke="#63b8ff" d="M508.38,-309.78C505.55,-309.17 502.74,-308.57 500,-308 431.54,-293.66 352.45,-278.28 300.95,-268.42"/>
<polygon fill="#63b8ff" stroke="#63b8ff" points="301.51,-264.96 291.03,-266.52 300.2,-271.84 301.51,-264.96"/>
</a>
</g>
</g>
<!-- Node13&#45;&gt;Node6 -->
<g id="edge33_Node000013_Node000006" class="edge">
<title>Node13&#45;&gt;Node6</title>
<g id="a_edge33_Node000013_Node000006"><a xlink:title=" ">
<path fill="none" stroke="#63b8ff" d="M617.82,-313.68C647.44,-306.79 682.95,-294.32 708,-272 743.32,-240.52 728.12,-215.6 754,-176 765.55,-158.33 772.63,-157.11 785,-140 801.69,-116.89 806.22,-110.96 818,-85 826.41,-66.48 833.19,-44.15 837.37,-28.8"/>
<polygon fill="#63b8ff" stroke="#63b8ff" points="840.79,-29.56 839.94,-19 834.02,-27.78 840.79,-29.56"/>
</a>
</g>
</g>
<!-- Node13&#45;&gt;Node14 -->
<g id="edge17_Node000013_Node000014" class="edge">
<title>Node13&#45;&gt;Node14</title>
<g id="a_edge17_Node000013_Node000014"><a xlink:title=" ">
<path fill="none" stroke="#63b8ff" d="M617.7,-308.27C657.13,-298.38 710.52,-284.98 752.26,-274.5"/>
<polygon fill="#63b8ff" stroke="#63b8ff" points="753.22,-277.87 762.07,-272.04 751.51,-271.08 753.22,-277.87"/>
</a>
</g>
</g>
<!-- Node13&#45;&gt;Node17 -->
<g id="edge22_Node000013_Node000017" class="edge">
<title>Node13&#45;&gt;Node17</title>
<g id="a_edge22_Node000013_Node000017"><a xlink:title=" ">
<path fill="none" stroke="#63b8ff" d="M529.64,-307.95C503.1,-296.78 466.31,-281.29 440.76,-270.53"/>
<polygon fill="#63b8ff" stroke="#63b8ff" points="441.8,-267.17 431.23,-266.52 439.09,-273.62 441.8,-267.17"/>
</a>
</g>
</g>
<!-- Node15 -->
<g id="Node000015" class="node">
<title>Node15</title>
<g id="a_Node000015"><a xlink:href="spec_2queue__stats__types_8h.html" target="_top" xlink:title="ODP queue statistics types.">
<polygon fill="white" stroke="#666666" points="873.5,-206 762.5,-206 762.5,-176 873.5,-176 873.5,-206"/>
<text text-anchor="start" x="770.5" y="-194" font-family="Helvetica,sans-Serif" font-size="10.00">odp/api/spec/queue</text>
<text text-anchor="middle" x="818" y="-183" font-family="Helvetica,sans-Serif" font-size="10.00">_stats_types.h</text>
</a>
</g>
</g>
<!-- Node14&#45;&gt;Node15 -->
<g id="edge18_Node000014_Node000015" class="edge">
<title>Node14&#45;&gt;Node15</title>
<g id="a_edge18_Node000014_Node000015"><a xlink:title=" ">
<path fill="none" stroke="#63b8ff" d="M818,-241.8C818,-234.34 818,-224.99 818,-216.41"/>
<polygon fill="#63b8ff" stroke="#63b8ff" points="821.5,-216.16 818,-206.16 814.5,-216.16 821.5,-216.16"/>
</a>
</g>
</g>
<!-- Node15&#45;&gt;Node2 -->
<g id="edge19_Node000015_Node000002" class="edge">
<title>Node15&#45;&gt;Node2</title>
<g id="a_edge19_Node000015_Node000002"><a xlink:title=" ">
<path fill="none" stroke="#63b8ff" d="M815.13,-175.75C811.16,-159.9 802.43,-134.71 785,-121 724.31,-73.24 684.92,-117.79 615,-85 595.52,-75.86 596.67,-63.72 577,-55 514.53,-27.33 436.86,-16.74 381.6,-12.76"/>
<polygon fill="#63b8ff" stroke="#63b8ff" points="381.77,-9.26 371.56,-12.09 381.3,-16.25 381.77,-9.26"/>
</a>
</g>
</g>
<!-- Node15&#45;&gt;Node6 -->
<g id="edge21_Node000015_Node000006" class="edge">
<title>Node15&#45;&gt;Node6</title>
<g id="a_edge21_Node000015_Node000006"><a xlink:title=" ">
<path fill="none" stroke="#63b8ff" d="M832.88,-175.77C841.45,-166.51 851.41,-153.64 856,-140 868.82,-101.93 857.11,-54.35 848.74,-28.78"/>
<polygon fill="#63b8ff" stroke="#63b8ff" points="852.02,-27.56 845.44,-19.26 845.41,-29.85 852.02,-27.56"/>
</a>
</g>
</g>
<!-- Node16 -->
<g id="Node000016" class="node">
<title>Node16</title>
<g id="a_Node000016"><a xlink:title=" ">
<polygon fill="#e0e0e0" stroke="#999999" points="775.5,-140 722.5,-140 722.5,-121 775.5,-121 775.5,-140"/>
<text text-anchor="middle" x="749" y="-128" font-family="Helvetica,sans-Serif" font-size="10.00">stdint.h</text>
</a>
</g>
</g>
<!-- Node15&#45;&gt;Node16 -->
<g id="edge20_Node000015_Node000016" class="edge">
<title>Node15&#45;&gt;Node16</title>
<g id="a_edge20_Node000015_Node000016"><a xlink:title=" ">
<path fill="none" stroke="#63b8ff" d="M801.3,-175.84C790.97,-167.09 777.72,-155.85 767.14,-146.88"/>
<polygon fill="#63b8ff" stroke="#63b8ff" points="769.23,-144.06 759.34,-140.27 764.7,-149.4 769.23,-144.06"/>
</a>
</g>
</g>
<!-- Node18 -->
<g id="Node000018" class="node">
<title>Node18</title>
<g id="a_Node000018"><a xlink:title=" ">
<polygon fill="#e0e0e0" stroke="#999999" points="472,-200.5 342,-200.5 342,-181.5 472,-181.5 472,-200.5"/>
<text text-anchor="middle" x="407" y="-188.5" font-family="Helvetica,sans-Serif" font-size="10.00">odp/api/abi/std_types.h</text>
</a>
</g>
</g>
<!-- Node17&#45;&gt;Node18 -->
<g id="edge23_Node000017_Node000018" class="edge">
<title>Node17&#45;&gt;Node18</title>
<g id="a_edge23_Node000017_Node000018"><a xlink:title=" ">
<path fill="none" stroke="#63b8ff" d="M410.46,-247.37C409.88,-238.07 408.94,-222.98 408.18,-210.9"/>
<polygon fill="#63b8ff" stroke="#63b8ff" points="411.67,-210.67 407.56,-200.91 404.69,-211.1 411.67,-210.67"/>
</a>
</g>
</g>
<!-- Node19 -->
<g id="Node000019" class="node">
<title>Node19</title>
<g id="a_Node000019"><a xlink:href="api_2spec_2std__types_8h.html" target="_top" xlink:title="Common types and definitions for ODP API files.">
<polygon fill="white" stroke="#666666" points="665.5,-200.5 528.5,-200.5 528.5,-181.5 665.5,-181.5 665.5,-200.5"/>
<text text-anchor="middle" x="597" y="-188.5" font-family="Helvetica,sans-Serif" font-size="10.00">odp/api/spec/std_types.h</text>
</a>
</g>
</g>
<!-- Node17&#45;&gt;Node19 -->
<g id="edge24_Node000017_Node000019" class="edge">
<title>Node17&#45;&gt;Node19</title>
<g id="a_edge24_Node000017_Node000019"><a xlink:title=" ">
<path fill="none" stroke="#63b8ff" d="M436.08,-247.37C468.62,-236.17 525.55,-216.58 562.24,-203.96"/>
<polygon fill="#63b8ff" stroke="#63b8ff" points="563.7,-207.16 572.02,-200.6 561.42,-200.54 563.7,-207.16"/>
</a>
</g>
</g>
<!-- Node19&#45;&gt;Node2 -->
<g id="edge25_Node000019_Node000002" class="edge">
<title>Node19&#45;&gt;Node2</title>
<g id="a_edge25_Node000019_Node000002"><a xlink:title=" ">
<path fill="none" stroke="#63b8ff" d="M585.18,-181.36C546.76,-153.29 426.71,-65.84 408,-55 386.74,-42.68 361.48,-31.19 342.07,-22.97"/>
<polygon fill="#63b8ff" stroke="#63b8ff" points="343.36,-19.71 332.78,-19.09 340.66,-26.17 343.36,-19.71"/>
</a>
</g>
</g>
<!-- Node19&#45;&gt;Node6 -->
<g id="edge32_Node000019_Node000006" class="edge">
<title>Node19&#45;&gt;Node6</title>
<g id="a_edge32_Node000019_Node000006"><a xlink:title=" ">
<path fill="none" stroke="#63b8ff" d="M606.22,-181.27C621.04,-167.49 651.41,-140.28 680,-121 708.03,-102.1 718.71,-103.5 747,-85 775.45,-66.4 805.98,-41.47 824.53,-25.69"/>
<polygon fill="#63b8ff" stroke="#63b8ff" points="826.86,-28.31 832.17,-19.14 822.3,-23 826.86,-28.31"/>
</a>
</g>
</g>
<!-- Node19&#45;&gt;Node16 -->
<g id="edge26_Node000019_Node000016" class="edge">
<title>Node19&#45;&gt;Node16</title>
<g id="a_edge26_Node000019_Node000016"><a xlink:title=" ">
<path fill="none" stroke="#63b8ff" d="M619.1,-181.49C644.99,-171.53 688.08,-154.95 717.47,-143.63"/>
<polygon fill="#63b8ff" stroke="#63b8ff" points="718.8,-146.88 726.87,-140.02 716.28,-140.34 718.8,-146.88"/>
</a>
</g>
</g>
<!-- Node20 -->
<g id="Node000020" class="node">
<title>Node20</title>
<g id="a_Node000020"><a xlink:href="api_2align_8h.html" target="_top" xlink:title="ODP alignments.">
<polygon fill="white" stroke="#666666" points="627.5,-140 538.5,-140 538.5,-121 627.5,-121 627.5,-140"/>
<text text-anchor="middle" x="583" y="-128" font-family="Helvetica,sans-Serif" font-size="10.00">odp/api/align.h</text>
</a>
</g>
</g>
<!-- Node19&#45;&gt;Node20 -->
<g id="edge27_Node000019_Node000020" class="edge">
<title>Node19&#45;&gt;Node20</title>
<g id="a_edge27_Node000019_Node000020"><a xlink:title=" ">
<path fill="none" stroke="#63b8ff" d="M594.93,-181.37C592.97,-173.16 589.95,-160.54 587.44,-150.05"/>
<polygon fill="#63b8ff" stroke="#63b8ff" points="590.81,-149.08 585.07,-140.17 584,-150.71 590.81,-149.08"/>
</a>
</g>
</g>
<!-- Node21 -->
<g id="Node000021" class="node">
<title>Node21</title>
<g id="a_Node000021"><a xlink:title=" ">
<polygon fill="#e0e0e0" stroke="#999999" points="567.5,-79.5 460.5,-79.5 460.5,-60.5 567.5,-60.5 567.5,-79.5"/>
<text text-anchor="middle" x="514" y="-67.5" font-family="Helvetica,sans-Serif" font-size="10.00">odp/api/abi/align.h</text>
</a>
</g>
</g>
<!-- Node20&#45;&gt;Node21 -->
<g id="edge28_Node000020_Node000021" class="edge">
<title>Node20&#45;&gt;Node21</title>
<g id="a_edge28_Node000020_Node000021"><a xlink:title=" ">
<path fill="none" stroke="#63b8ff" d="M572.82,-120.87C562.12,-111.8 545.06,-97.34 532.07,-86.32"/>
<polygon fill="#63b8ff" stroke="#63b8ff" points="534.11,-83.46 524.22,-79.67 529.59,-88.8 534.11,-83.46"/>
</a>
</g>
</g>
<!-- Node22 -->
<g id="Node000022" class="node">
<title>Node22</title>
<g id="a_Node000022"><a xlink:href="api_2spec_2align_8h.html" target="_top" xlink:title="ODP alignments.">
<polygon fill="white" stroke="#666666" points="738,-79.5 624,-79.5 624,-60.5 738,-60.5 738,-79.5"/>
<text text-anchor="middle" x="681" y="-67.5" font-family="Helvetica,sans-Serif" font-size="10.00">odp/api/spec/align.h</text>
</a>
</g>
</g>
<!-- Node20&#45;&gt;Node22 -->
<g id="edge29_Node000020_Node000022" class="edge">
<title>Node20&#45;&gt;Node22</title>
<g id="a_edge29_Node000020_Node000022"><a xlink:title=" ">
<path fill="none" stroke="#63b8ff" d="M597.46,-120.87C613.31,-111.41 638.97,-96.09 657.68,-84.92"/>
<polygon fill="#63b8ff" stroke="#63b8ff" points="659.69,-87.8 666.48,-79.67 656.1,-81.79 659.69,-87.8"/>
</a>
</g>
</g>
<!-- Node22&#45;&gt;Node2 -->
<g id="edge30_Node000022_Node000002" class="edge">
<title>Node22&#45;&gt;Node2</title>
<g id="a_edge30_Node000022_Node000002"><a xlink:title=" ">
<path fill="none" stroke="#63b8ff" d="M639.39,-60.46C629.75,-58.57 619.53,-56.65 610,-55 532.15,-41.54 442.46,-28.52 381.78,-20.08"/>
<polygon fill="#63b8ff" stroke="#63b8ff" points="381.94,-16.57 371.55,-18.66 380.98,-23.5 381.94,-16.57"/>
</a>
</g>
</g>
<!-- Node22&#45;&gt;Node6 -->
<g id="edge31_Node000022_Node000006" class="edge">
<title>Node22&#45;&gt;Node6</title>
<g id="a_edge31_Node000022_Node000006"><a xlink:title=" ">
<path fill="none" stroke="#63b8ff" d="M704.41,-60.49C731.95,-50.49 777.87,-33.8 809.01,-22.49"/>
<polygon fill="#63b8ff" stroke="#63b8ff" points="810.36,-25.72 818.56,-19.02 807.97,-19.14 810.36,-25.72"/>
</a>
</g>
</g>
<!-- Node24 -->
<g id="Node000024" class="node">
<title>Node24</title>
<g id="a_Node000024"><a xlink:title=" ">
<polygon fill="#e0e0e0" stroke="#999999" points="509.5,-470 392.5,-470 392.5,-440 509.5,-440 509.5,-470"/>
<text text-anchor="start" x="400.5" y="-458" font-family="Helvetica,sans-Serif" font-size="10.00">odp/api/abi/schedule</text>
<text text-anchor="middle" x="451" y="-447" font-family="Helvetica,sans-Serif" font-size="10.00">_types.h</text>
</a>
</g>
</g>
<!-- Node23&#45;&gt;Node24 -->
<g id="edge36_Node000023_Node000024" class="edge">
<title>Node23&#45;&gt;Node24</title>
<g id="a_edge36_Node000023_Node000024"><a xlink:title=" ">
<path fill="none" stroke="#63b8ff" d="M566.37,-505.99C547.2,-497.68 517.4,-484.78 492.9,-474.16"/>
<polygon fill="#63b8ff" stroke="#63b8ff" points="494.02,-470.83 483.46,-470.06 491.24,-477.25 494.02,-470.83"/>
</a>
</g>
</g>
<!-- Node25 -->
<g id="Node000025" class="node">
<title>Node25</title>
<g id="a_Node000025"><a xlink:href="api_2spec_2schedule__types_8h.html" target="_top" xlink:title="ODP schedule types.">
<polygon fill="white" stroke="#666666" points="652.5,-470 527.5,-470 527.5,-440 652.5,-440 652.5,-470"/>
<text text-anchor="start" x="535.5" y="-458" font-family="Helvetica,sans-Serif" font-size="10.00">odp/api/spec/schedule</text>
<text text-anchor="middle" x="590" y="-447" font-family="Helvetica,sans-Serif" font-size="10.00">_types.h</text>
</a>
</g>
</g>
<!-- Node23&#45;&gt;Node25 -->
<g id="edge37_Node000023_Node000025" class="edge">
<title>Node23&#45;&gt;Node25</title>
<g id="a_edge37_Node000023_Node000025"><a xlink:title=" ">
<path fill="none" stroke="#63b8ff" d="M586.59,-505.87C587.05,-499.11 587.72,-489.35 588.34,-480.26"/>
<polygon fill="#63b8ff" stroke="#63b8ff" points="591.84,-480.33 589.03,-470.11 584.86,-479.85 591.84,-480.33"/>
</a>
</g>
</g>
<!-- Node25&#45;&gt;Node2 -->
<g id="edge38_Node000025_Node000002" class="edge">
<title>Node25&#45;&gt;Node2</title>
<g id="a_edge38_Node000025_Node000002"><a xlink:title=" ">
<path fill="none" stroke="#63b8ff" d="M527.32,-441.41C524.51,-440.92 521.73,-440.45 519,-440 418.57,-423.59 76,-425.76 76,-324 76,-324 76,-324 76,-129.5 76,-54.97 171.25,-27.1 240.47,-16.69"/>
<polygon fill="#63b8ff" stroke="#63b8ff" points="241.07,-20.14 250.48,-15.28 240.09,-13.21 241.07,-20.14"/>
</a>
</g>
</g>
<!-- Node25&#45;&gt;Node6 -->
<g id="edge48_Node000025_Node000006" class="edge">
<title>Node25&#45;&gt;Node6</title>
<g id="a_edge48_Node000025_Node000006"><a xlink:title=" ">
<path fill="none" stroke="#63b8ff" d="M652.86,-448.7C774.89,-436.68 1032,-402.09 1032,-324 1032,-324 1032,-324 1032,-129.5 1032,-66.53 956.11,-35.62 900.26,-21.4"/>
<polygon fill="#63b8ff" stroke="#63b8ff" points="900.98,-17.98 890.44,-19.02 899.33,-24.78 900.98,-17.98"/>
</a>
</g>
</g>
<!-- Node25&#45;&gt;Node10 -->
<g id="edge39_Node000025_Node000010" class="edge">
<title>Node25&#45;&gt;Node10</title>
<g id="a_edge39_Node000025_Node000010"><a xlink:title=" ">
<path fill="none" stroke="#63b8ff" d="M629.94,-439.95C657.2,-430.37 693.51,-417.6 722.59,-407.37"/>
<polygon fill="#63b8ff" stroke="#63b8ff" points="723.88,-410.63 732.15,-404.01 721.56,-404.03 723.88,-410.63"/>
</a>
</g>
</g>
<!-- Node25&#45;&gt;Node14 -->
<g id="edge40_Node000025_Node000014" class="edge">
<title>Node25&#45;&gt;Node14</title>
<g id="a_edge40_Node000025_Node000014"><a xlink:title=" ">
<path fill="none" stroke="#63b8ff" d="M593.97,-439.7C602.76,-410.64 626.59,-344.39 670,-308 683.19,-296.94 719.71,-284.55 753.16,-274.87"/>
<polygon fill="#63b8ff" stroke="#63b8ff" points="754.29,-278.19 762.95,-272.09 752.38,-271.46 754.29,-278.19"/>
</a>
</g>
</g>
<!-- Node25&#45;&gt;Node17 -->
<g id="edge41_Node000025_Node000017" class="edge">
<title>Node25&#45;&gt;Node17</title>
<g id="a_edge41_Node000025_Node000017"><a xlink:title=" ">
<path fill="none" stroke="#63b8ff" d="M527.41,-441.59C471.2,-430.19 393.06,-413.66 363,-404 292.1,-381.22 249.99,-400.17 209,-338 201.66,-326.87 200.78,-318.5 209,-308 218.06,-296.43 297.22,-279.36 353.7,-268.47"/>
<polygon fill="#63b8ff" stroke="#63b8ff" points="354.45,-271.89 363.61,-266.57 353.13,-265.01 354.45,-271.89"/>
</a>
</g>
</g>
<!-- Node26 -->
<g id="Node000026" class="node">
<title>Node26</title>
<g id="a_Node000026"><a xlink:href="api_2thrmask_8h.html" target="_top" xlink:title="ODP thread masks.">
<polygon fill="white" stroke="#666666" points="477.5,-398.5 372.5,-398.5 372.5,-379.5 477.5,-379.5 477.5,-398.5"/>
<text text-anchor="middle" x="425" y="-386.5" font-family="Helvetica,sans-Serif" font-size="10.00">odp/api/thrmask.h</text>
</a>
</g>
</g>
<!-- Node25&#45;&gt;Node26 -->
<g id="edge42_Node000025_Node000026" class="edge">
<title>Node25&#45;&gt;Node26</title>
<g id="a_edge42_Node000025_Node000026"><a xlink:title=" ">
<path fill="none" stroke="#63b8ff" d="M553.79,-439.95C524.73,-428.68 484.33,-413.01 456.57,-402.25"/>
<polygon fill="#63b8ff" stroke="#63b8ff" points="457.55,-398.87 446.96,-398.52 455.02,-405.4 457.55,-398.87"/>
</a>
</g>
</g>
<!-- Node27 -->
<g id="Node000027" class="node">
<title>Node27</title>
<g id="a_Node000027"><a xlink:title=" ">
<polygon fill="#e0e0e0" stroke="#999999" points="341.5,-332.5 218.5,-332.5 218.5,-313.5 341.5,-313.5 341.5,-332.5"/>
<text text-anchor="middle" x="280" y="-320.5" font-family="Helvetica,sans-Serif" font-size="10.00">odp/api/abi/thrmask.h</text>
</a>
</g>
</g>
<!-- Node26&#45;&gt;Node27 -->
<g id="edge43_Node000026_Node000027" class="edge">
<title>Node26&#45;&gt;Node27</title>
<g id="a_edge43_Node000026_Node000027"><a xlink:title=" ">
<path fill="none" stroke="#63b8ff" d="M405.44,-379.37C380.69,-368.44 337.83,-349.52 309.19,-336.88"/>
<polygon fill="#63b8ff" stroke="#63b8ff" points="310.27,-333.54 299.71,-332.7 307.44,-339.94 310.27,-333.54"/>
</a>
</g>
</g>
<!-- Node28 -->
<g id="Node000028" class="node">
<title>Node28</title>
<g id="a_Node000028"><a xlink:href="api_2spec_2thrmask_8h.html" target="_top" xlink:title="ODP thread masks.">
<polygon fill="white" stroke="#666666" points="490.5,-332.5 359.5,-332.5 359.5,-313.5 490.5,-313.5 490.5,-332.5"/>
<text text-anchor="middle" x="425" y="-320.5" font-family="Helvetica,sans-Serif" font-size="10.00">odp/api/spec/thrmask.h</text>
</a>
</g>
</g>
<!-- Node26&#45;&gt;Node28 -->
<g id="edge44_Node000026_Node000028" class="edge">
<title>Node26&#45;&gt;Node28</title>
<g id="a_edge44_Node000026_Node000028"><a xlink:title=" ">
<path fill="none" stroke="#63b8ff" d="M425,-379.37C425,-370.16 425,-355.29 425,-343.27"/>
<polygon fill="#63b8ff" stroke="#63b8ff" points="428.5,-342.91 425,-332.91 421.5,-342.91 428.5,-342.91"/>
</a>
</g>
</g>
<!-- Node28&#45;&gt;Node2 -->
<g id="edge45_Node000028_Node000002" class="edge">
<title>Node28&#45;&gt;Node2</title>
<g id="a_edge45_Node000028_Node000002"><a xlink:title=" ">
<path fill="none" stroke="#63b8ff" d="M379.94,-313.45C308.89,-299.9 178.37,-274.75 174,-272 136.39,-248.32 114,-236.44 114,-192 114,-192 114,-192 114,-129.5 114,-65.76 190.49,-35.25 248.15,-21.31"/>
<polygon fill="#63b8ff" stroke="#63b8ff" points="248.99,-24.7 257.95,-19.05 247.42,-17.88 248.99,-24.7"/>
</a>
</g>
</g>
<!-- Node28&#45;&gt;Node6 -->
<g id="edge47_Node000028_Node000006" class="edge">
<title>Node28&#45;&gt;Node6</title>
<g id="a_edge47_Node000028_Node000006"><a xlink:title=" ">
<path fill="none" stroke="#63b8ff" d="M462.4,-313.42C515.87,-299.4 614.4,-266.86 675,-206 704.33,-176.55 685.55,-151.3 714,-121 737.14,-96.36 754.9,-106.49 781,-85 801.28,-68.3 819.65,-44.03 830.81,-27.77"/>
<polygon fill="#63b8ff" stroke="#63b8ff" points="833.86,-29.51 836.51,-19.25 828.04,-25.62 833.86,-29.51"/>
</a>
</g>
</g>
<!-- Node28&#45;&gt;Node17 -->
<g id="edge46_Node000028_Node000017" class="edge">
<title>Node28&#45;&gt;Node17</title>
<g id="a_edge46_Node000028_Node000017"><a xlink:title=" ">
<path fill="none" stroke="#63b8ff" d="M423.11,-313.37C421.08,-304.07 417.78,-288.98 415.13,-276.9"/>
<polygon fill="#63b8ff" stroke="#63b8ff" points="418.5,-275.93 412.95,-266.91 411.67,-277.42 418.5,-275.93"/>
</a>
</g>
</g>
</g>
</svg>
