<?xml version="1.0" encoding="UTF-8" standalone="no"?>
<!DOCTYPE svg PUBLIC "-//W3C//DTD SVG 1.1//EN"
 "http://www.w3.org/Graphics/SVG/1.1/DTD/svg11.dtd">
<!-- Generated by graphviz version 2.43.0 (0)
 -->
<!-- Title: packet_io_types.h Pages: 1 -->
<svg width="722pt" height="82pt"
 viewBox="0.00 0.00 722.00 82.00" xmlns="http://www.w3.org/2000/svg" xmlns:xlink="http://www.w3.org/1999/xlink">
<g id="graph0" class="graph" transform="scale(1 1) rotate(0) translate(4 78)">
<title>packet_io_types.h</title>
<!-- Node1 -->
<g id="Node000001" class="node">
<title>Node1</title>
<g id="a_Node000001"><a xlink:title="ODP Packet IO.">
<polygon fill="#999999" stroke="#666666" points="409,-74 305,-74 305,-55 409,-55 409,-74"/>
<text text-anchor="middle" x="357" y="-62" font-family="Helvetica,sans-Serif" font-size="10.00">packet_io_types.h</text>
</a>
</g>
</g>
<!-- Node2 -->
<g id="Node000002" class="node">
<title>Node2</title>
<g id="a_Node000002"><a xlink:href="arch_2arm32-linux_2odp_2api_2abi_2packet__io__types_8h_source.html" target="_top" xlink:title=" ">
<polygon fill="white" stroke="#666666" points="104,-19 0,-19 0,0 104,0 104,-19"/>
<text text-anchor="middle" x="52" y="-7" font-family="Helvetica,sans-Serif" font-size="10.00">packet_io_types.h</text>
</a>
</g>
</g>
<!-- Node1&#45;&gt;Node2 -->
<g id="edge1_Node000001_Node000002" class="edge">
<title>Node1&#45;&gt;Node2</title>
<g id="a_edge1_Node000001_Node000002"><a xlink:title=" ">
<path fill="none" stroke="#63b8ff" d="M298,-53.25C240.73,-43.3 154.8,-28.36 101.13,-19.04"/>
<polygon fill="#63b8ff" stroke="#63b8ff" points="297.54,-56.72 308,-54.98 298.74,-49.82 297.54,-56.72"/>
</a>
</g>
</g>
<!-- Node3 -->
<g id="Node000003" class="node">
<title>Node3</title>
<g id="a_Node000003"><a xlink:href="arch_2arm64-linux_2odp_2api_2abi_2packet__io__types_8h_source.html" target="_top" xlink:title=" ">
<polygon fill="white" stroke="#666666" points="226,-19 122,-19 122,0 226,0 226,-19"/>
<text text-anchor="middle" x="174" y="-7" font-family="Helvetica,sans-Serif" font-size="10.00">packet_io_types.h</text>
</a>
</g>
</g>
<!-- Node1&#45;&gt;Node3 -->
<g id="edge2_Node000001_Node000003" class="edge">
<title>Node1&#45;&gt;Node3</title>
<g id="a_edge2_Node000001_Node000003"><a xlink:title=" ">
<path fill="none" stroke="#63b8ff" d="M317.93,-52.18C283.7,-42.27 234.71,-28.08 203.63,-19.08"/>
<polygon fill="#63b8ff" stroke="#63b8ff" points="317.02,-55.56 327.6,-54.98 318.97,-48.84 317.02,-55.56"/>
</a>
</g>
</g>
<!-- Node4 -->
<g id="Node000004" class="node">
<title>Node4</title>
<g id="a_Node000004"><a xlink:href="arch_2default-linux_2odp_2api_2abi_2packet__io__types_8h_source.html" target="_top" xlink:title=" ">
<polygon fill="white" stroke="#666666" points="348,-19 244,-19 244,0 348,0 348,-19"/>
<text text-anchor="middle" x="296" y="-7" font-family="Helvetica,sans-Serif" font-size="10.00">packet_io_types.h</text>
</a>
</g>
</g>
<!-- Node1&#45;&gt;Node4 -->
<g id="edge3_Node000001_Node000004" class="edge">
<title>Node1&#45;&gt;Node4</title>
<g id="a_edge3_Node000001_Node000004"><a xlink:title=" ">
<path fill="none" stroke="#63b8ff" d="M339.53,-48.32C328.66,-38.87 315.06,-27.06 305.98,-19.17"/>
<polygon fill="#63b8ff" stroke="#63b8ff" points="337.35,-51.07 347.2,-54.98 341.95,-45.78 337.35,-51.07"/>
</a>
</g>
</g>
<!-- Node5 -->
<g id="Node000005" class="node">
<title>Node5</title>
<g id="a_Node000005"><a xlink:href="arch_2power64-linux_2odp_2api_2abi_2packet__io__types_8h_source.html" target="_top" xlink:title=" ">
<polygon fill="white" stroke="#666666" points="470,-19 366,-19 366,0 470,0 470,-19"/>
<text text-anchor="middle" x="418" y="-7" font-family="Helvetica,sans-Serif" font-size="10.00">packet_io_types.h</text>
</a>
</g>
</g>
<!-- Node1&#45;&gt;Node5 -->
<g id="edge4_Node000001_Node000005" class="edge">
<title>Node1&#45;&gt;Node5</title>
<g id="a_edge4_Node000001_Node000005"><a xlink:title=" ">
<path fill="none" stroke="#63b8ff" d="M374.47,-48.32C385.34,-38.87 398.94,-27.06 408.02,-19.17"/>
<polygon fill="#63b8ff" stroke="#63b8ff" points="372.05,-45.78 366.8,-54.98 376.65,-51.07 372.05,-45.78"/>
</a>
</g>
</g>
<!-- Node6 -->
<g id="Node000006" class="node">
<title>Node6</title>
<g id="a_Node000006"><a xlink:href="arch_2x86__32-linux_2odp_2api_2abi_2packet__io__types_8h_source.html" target="_top" xlink:title=" ">
<polygon fill="white" stroke="#666666" points="592,-19 488,-19 488,0 592,0 592,-19"/>
<text text-anchor="middle" x="540" y="-7" font-family="Helvetica,sans-Serif" font-size="10.00">packet_io_types.h</text>
</a>
</g>
</g>
<!-- Node1&#45;&gt;Node6 -->
<g id="edge5_Node000001_Node000006" class="edge">
<title>Node1&#45;&gt;Node6</title>
<g id="a_edge5_Node000001_Node000006"><a xlink:title=" ">
<path fill="none" stroke="#63b8ff" d="M396.07,-52.18C430.3,-42.27 479.29,-28.08 510.37,-19.08"/>
<polygon fill="#63b8ff" stroke="#63b8ff" points="395.03,-48.84 386.4,-54.98 396.98,-55.56 395.03,-48.84"/>
</a>
</g>
</g>
<!-- Node7 -->
<g id="Node000007" class="node">
<title>Node7</title>
<g id="a_Node000007"><a xlink:href="arch_2x86__64-linux_2odp_2api_2abi_2packet__io__types_8h_source.html" target="_top" xlink:title=" ">
<polygon fill="white" stroke="#666666" points="714,-19 610,-19 610,0 714,0 714,-19"/>
<text text-anchor="middle" x="662" y="-7" font-family="Helvetica,sans-Serif" font-size="10.00">packet_io_types.h</text>
</a>
</g>
</g>
<!-- Node1&#45;&gt;Node7 -->
<g id="edge6_Node000001_Node000007" class="edge">
<title>Node1&#45;&gt;Node7</title>
<g id="a_edge6_Node000001_Node000007"><a xlink:title=" ">
<path fill="none" stroke="#63b8ff" d="M416,-53.25C473.27,-43.3 559.2,-28.36 612.87,-19.04"/>
<polygon fill="#63b8ff" stroke="#63b8ff" points="415.26,-49.82 406,-54.98 416.46,-56.72 415.26,-49.82"/>
</a>
</g>
</g>
</g>
</svg>
