<?xml version="1.0" encoding="UTF-8" standalone="no"?>
<!DOCTYPE svg PUBLIC "-//W3C//DTD SVG 1.1//EN"
 "http://www.w3.org/Graphics/SVG/1.1/DTD/svg11.dtd">
<!-- Generated by graphviz version 2.40.1 (20161225.0304)
 -->
<!-- Title: align.h Pages: 1 -->
<svg width="2615pt" height="476pt"
 viewBox="0.00 0.00 2614.50 476.00" xmlns="http://www.w3.org/2000/svg" xmlns:xlink="http://www.w3.org/1999/xlink">
<g id="graph0" class="graph" transform="scale(1 1) rotate(0) translate(4 472)">
<title>align.h</title>
<polygon fill="#ffffff" stroke="transparent" points="-4,4 -4,-472 2610.5,-472 2610.5,4 -4,4"/>
<!-- Node5 -->
<g id="node1" class="node">
<title>Node5</title>
<polygon fill="#bfbfbf" stroke="#000000" points="1635.5,-448.5 1635.5,-467.5 1685.5,-467.5 1685.5,-448.5 1635.5,-448.5"/>
<text text-anchor="middle" x="1660.5" y="-455.5" font-family="Helvetica,sans-Serif" font-size="10.00" fill="#000000">align.h</text>
</g>
<!-- Node6 -->
<g id="node2" class="node">
<title>Node6</title>
<g id="a_node2"><a xlink:href="api_2abi-default_2atomic_8h.html" target="_top" xlink:title="ODP atomic operations. ">
<polygon fill="#ffffff" stroke="#000000" points="192,-280.5 192,-299.5 251,-299.5 251,-280.5 192,-280.5"/>
<text text-anchor="middle" x="221.5" y="-287.5" font-family="Helvetica,sans-Serif" font-size="10.00" fill="#000000">atomic.h</text>
</a>
</g>
</g>
<!-- Node5&#45;&gt;Node6 -->
<g id="edge1" class="edge">
<title>Node5&#45;&gt;Node6</title>
<path fill="none" stroke="#191970" d="M1625.2584,-455.915C1466.0215,-446.0992 798.1048,-400.6901 259.5,-300 256.8177,-299.4986 254.0459,-298.9097 251.2781,-298.2729"/>
<polygon fill="#191970" stroke="#191970" points="1625.2266,-459.4195 1635.4213,-456.5354 1625.6532,-452.4325 1625.2266,-459.4195"/>
</g>
<!-- Node24 -->
<g id="node13" class="node">
<title>Node24</title>
<g id="a_node13"><a xlink:href="odp__api_8h.html" target="_top" xlink:title="The OpenDataPlane API. ">
<polygon fill="#ffffff" stroke="#000000" points="1735.5,-56.5 1735.5,-75.5 1799.5,-75.5 1799.5,-56.5 1735.5,-56.5"/>
<text text-anchor="middle" x="1767.5" y="-63.5" font-family="Helvetica,sans-Serif" font-size="10.00" fill="#000000">odp_api.h</text>
</a>
</g>
</g>
<!-- Node5&#45;&gt;Node24 -->
<g id="edge66" class="edge">
<title>Node5&#45;&gt;Node24</title>
<path fill="none" stroke="#191970" d="M1695.8289,-457.6042C1867.5125,-455.2249 2606.5,-439.5501 2606.5,-346 2606.5,-346 2606.5,-346 2606.5,-178 2606.5,-95.0181 1953.3418,-71.2785 1799.62,-66.8405"/>
<polygon fill="#191970" stroke="#191970" points="1695.756,-454.1048 1685.8032,-457.7368 1695.8486,-461.1042 1695.756,-454.1048"/>
</g>
<!-- Node53 -->
<g id="node15" class="node">
<title>Node53</title>
<g id="a_node15"><a xlink:href="api_2abi-default_2cpumask_8h.html" target="_top" xlink:title="ODP CPU masks and enumeration. ">
<polygon fill="#ffffff" stroke="#000000" points="2156.5,-280.5 2156.5,-299.5 2226.5,-299.5 2226.5,-280.5 2156.5,-280.5"/>
<text text-anchor="middle" x="2191.5" y="-287.5" font-family="Helvetica,sans-Serif" font-size="10.00" fill="#000000">cpumask.h</text>
</a>
</g>
</g>
<!-- Node5&#45;&gt;Node53 -->
<g id="edge15" class="edge">
<title>Node5&#45;&gt;Node53</title>
<path fill="none" stroke="#191970" d="M1695.4683,-446.9366C1793.4159,-415.9475 2069.3049,-328.6606 2161.2541,-299.5693"/>
<polygon fill="#191970" stroke="#191970" points="1694.2324,-443.6565 1685.754,-450.01 1696.344,-450.3305 1694.2324,-443.6565"/>
</g>
<!-- Node77 -->
<g id="node25" class="node">
<title>Node77</title>
<g id="a_node25"><a xlink:href="api_2spec_2std__types_8h.html" target="_top" xlink:title="Standard C language types and definitions for ODP. ">
<polygon fill="#ffffff" stroke="#000000" points="1592,-392.5 1592,-411.5 1665,-411.5 1665,-392.5 1592,-392.5"/>
<text text-anchor="middle" x="1628.5" y="-399.5" font-family="Helvetica,sans-Serif" font-size="10.00" fill="#000000">std_types.h</text>
</a>
</g>
</g>
<!-- Node5&#45;&gt;Node77 -->
<g id="edge26" class="edge">
<title>Node5&#45;&gt;Node77</title>
<path fill="none" stroke="#191970" d="M1649.8355,-439.3372C1644.5346,-430.0605 1638.3513,-419.2398 1634.0101,-411.6427"/>
<polygon fill="#191970" stroke="#191970" points="1646.9257,-441.2996 1654.926,-448.2455 1653.0034,-437.8266 1646.9257,-441.2996"/>
</g>
<!-- Node7 -->
<g id="node3" class="node">
<title>Node7</title>
<g id="a_node3"><a xlink:href="arch_2arm32-linux_2odp_2api_2abi_2atomic_8h_source.html" target="_top" xlink:title="atomic.h">
<polygon fill="#ffffff" stroke="#000000" points="385,-224.5 385,-243.5 444,-243.5 444,-224.5 385,-224.5"/>
<text text-anchor="middle" x="414.5" y="-231.5" font-family="Helvetica,sans-Serif" font-size="10.00" fill="#000000">atomic.h</text>
</a>
</g>
</g>
<!-- Node6&#45;&gt;Node7 -->
<g id="edge2" class="edge">
<title>Node6&#45;&gt;Node7</title>
<path fill="none" stroke="#191970" d="M261.0992,-278.5101C297.7948,-267.8626 351.5675,-252.2602 384.7329,-242.6371"/>
<polygon fill="#191970" stroke="#191970" points="259.8618,-275.2247 251.2333,-281.3727 261.8125,-281.9474 259.8618,-275.2247"/>
</g>
<!-- Node8 -->
<g id="node4" class="node">
<title>Node8</title>
<g id="a_node4"><a xlink:href="arch_2arm64-linux_2odp_2api_2abi_2atomic_8h_source.html" target="_top" xlink:title="atomic.h">
<polygon fill="#ffffff" stroke="#000000" points="0,-224.5 0,-243.5 59,-243.5 59,-224.5 0,-224.5"/>
<text text-anchor="middle" x="29.5" y="-231.5" font-family="Helvetica,sans-Serif" font-size="10.00" fill="#000000">atomic.h</text>
</a>
</g>
</g>
<!-- Node6&#45;&gt;Node8 -->
<g id="edge3" class="edge">
<title>Node6&#45;&gt;Node8</title>
<path fill="none" stroke="#191970" d="M182.106,-278.5101C145.6005,-267.8626 92.1065,-252.2602 59.1128,-242.6371"/>
<polygon fill="#191970" stroke="#191970" points="181.3407,-281.9327 191.9208,-281.3727 183.3008,-275.2127 181.3407,-281.9327"/>
</g>
<!-- Node9 -->
<g id="node5" class="node">
<title>Node9</title>
<g id="a_node5"><a xlink:href="arch_2default-linux_2odp_2api_2abi_2atomic_8h_source.html" target="_top" xlink:title="atomic.h">
<polygon fill="#ffffff" stroke="#000000" points="77,-224.5 77,-243.5 136,-243.5 136,-224.5 77,-224.5"/>
<text text-anchor="middle" x="106.5" y="-231.5" font-family="Helvetica,sans-Serif" font-size="10.00" fill="#000000">atomic.h</text>
</a>
</g>
</g>
<!-- Node6&#45;&gt;Node9 -->
<g id="edge4" class="edge">
<title>Node6&#45;&gt;Node9</title>
<path fill="none" stroke="#191970" d="M192.6967,-275.9741C171.875,-265.8348 144.3022,-252.408 126.0112,-243.5011"/>
<polygon fill="#191970" stroke="#191970" points="191.2078,-279.1419 201.7308,-280.3733 194.2724,-272.8484 191.2078,-279.1419"/>
</g>
<!-- Node10 -->
<g id="node6" class="node">
<title>Node10</title>
<g id="a_node6"><a xlink:href="arch_2mips64-linux_2odp_2api_2abi_2atomic_8h_source.html" target="_top" xlink:title="atomic.h">
<polygon fill="#ffffff" stroke="#000000" points="154,-224.5 154,-243.5 213,-243.5 213,-224.5 154,-224.5"/>
<text text-anchor="middle" x="183.5" y="-231.5" font-family="Helvetica,sans-Serif" font-size="10.00" fill="#000000">atomic.h</text>
</a>
</g>
</g>
<!-- Node6&#45;&gt;Node10 -->
<g id="edge5" class="edge">
<title>Node6&#45;&gt;Node10</title>
<path fill="none" stroke="#191970" d="M209.2321,-271.9209C202.8512,-262.5176 195.3069,-251.3997 190.0432,-243.6427"/>
<polygon fill="#191970" stroke="#191970" points="206.3697,-273.936 214.8809,-280.2455 212.162,-270.0055 206.3697,-273.936"/>
</g>
<!-- Node11 -->
<g id="node7" class="node">
<title>Node11</title>
<g id="a_node7"><a xlink:href="arch_2power64-linux_2odp_2api_2abi_2atomic_8h_source.html" target="_top" xlink:title="atomic.h">
<polygon fill="#ffffff" stroke="#000000" points="231,-224.5 231,-243.5 290,-243.5 290,-224.5 231,-224.5"/>
<text text-anchor="middle" x="260.5" y="-231.5" font-family="Helvetica,sans-Serif" font-size="10.00" fill="#000000">atomic.h</text>
</a>
</g>
</g>
<!-- Node6&#45;&gt;Node11 -->
<g id="edge6" class="edge">
<title>Node6&#45;&gt;Node11</title>
<path fill="none" stroke="#191970" d="M234.0908,-271.9209C240.6395,-262.5176 248.3824,-251.3997 253.7846,-243.6427"/>
<polygon fill="#191970" stroke="#191970" points="231.1361,-270.0392 228.2933,-280.2455 236.8804,-274.0397 231.1361,-270.0392"/>
</g>
<!-- Node12 -->
<g id="node8" class="node">
<title>Node12</title>
<g id="a_node8"><a xlink:href="arch_2x86__32-linux_2odp_2api_2abi_2atomic_8h_source.html" target="_top" xlink:title="atomic.h">
<polygon fill="#ffffff" stroke="#000000" points="308,-224.5 308,-243.5 367,-243.5 367,-224.5 308,-224.5"/>
<text text-anchor="middle" x="337.5" y="-231.5" font-family="Helvetica,sans-Serif" font-size="10.00" fill="#000000">atomic.h</text>
</a>
</g>
</g>
<!-- Node6&#45;&gt;Node12 -->
<g id="edge7" class="edge">
<title>Node6&#45;&gt;Node12</title>
<path fill="none" stroke="#191970" d="M250.5537,-275.9741C271.5565,-265.8348 299.3691,-252.408 317.8191,-243.5011"/>
<polygon fill="#191970" stroke="#191970" points="248.925,-272.8738 241.4411,-280.3733 251.9683,-279.1776 248.925,-272.8738"/>
</g>
<!-- Node13 -->
<g id="node9" class="node">
<title>Node13</title>
<g id="a_node9"><a xlink:href="arch_2x86__64-linux_2odp_2api_2abi_2atomic_8h_source.html" target="_top" xlink:title="atomic.h">
<polygon fill="#ffffff" stroke="#000000" points="556,-224.5 556,-243.5 615,-243.5 615,-224.5 556,-224.5"/>
<text text-anchor="middle" x="585.5" y="-231.5" font-family="Helvetica,sans-Serif" font-size="10.00" fill="#000000">atomic.h</text>
</a>
</g>
</g>
<!-- Node6&#45;&gt;Node13 -->
<g id="edge8" class="edge">
<title>Node6&#45;&gt;Node13</title>
<path fill="none" stroke="#191970" d="M261.2105,-279.8232C374.9691,-257.3717 499.6486,-242.9615 555.6357,-237.0291"/>
<polygon fill="#191970" stroke="#191970" points="260.4128,-276.4134 251.2936,-281.8068 261.7858,-283.2774 260.4128,-276.4134"/>
</g>
<!-- Node14 -->
<g id="node10" class="node">
<title>Node14</title>
<g id="a_node10"><a xlink:href="api_2atomic_8h.html" target="_top" xlink:title="ODP atomic operations. ">
<polygon fill="#ffffff" stroke="#ff0000" points="1421,-168.5 1421,-187.5 1480,-187.5 1480,-168.5 1421,-168.5"/>
<text text-anchor="middle" x="1450.5" y="-175.5" font-family="Helvetica,sans-Serif" font-size="10.00" fill="#000000">atomic.h</text>
</a>
</g>
</g>
<!-- Node13&#45;&gt;Node14 -->
<g id="edge9" class="edge">
<title>Node13&#45;&gt;Node14</title>
<path fill="none" stroke="#191970" d="M625.2926,-231.4238C773.4369,-221.833 1291.1297,-188.3176 1420.85,-179.9195"/>
<polygon fill="#191970" stroke="#191970" points="625.0282,-227.9335 615.2753,-232.0724 625.4805,-234.9189 625.0282,-227.9335"/>
</g>
<!-- Node15 -->
<g id="node11" class="node">
<title>Node15</title>
<g id="a_node11"><a xlink:href="api_2abi-default_2barrier_8h.html" target="_top" xlink:title="ODP barrier. ">
<polygon fill="#ffffff" stroke="#ff0000" points="1477,-112.5 1477,-131.5 1534,-131.5 1534,-112.5 1477,-112.5"/>
<text text-anchor="middle" x="1505.5" y="-119.5" font-family="Helvetica,sans-Serif" font-size="10.00" fill="#000000">barrier.h</text>
</a>
</g>
</g>
<!-- Node14&#45;&gt;Node15 -->
<g id="edge10" class="edge">
<title>Node14&#45;&gt;Node15</title>
<path fill="none" stroke="#191970" d="M1467.1226,-161.0751C1476.5855,-151.4402 1488.0969,-139.7196 1496.0295,-131.6427"/>
<polygon fill="#191970" stroke="#191970" points="1464.5903,-158.6585 1460.0803,-168.2455 1469.5845,-163.5635 1464.5903,-158.6585"/>
</g>
<!-- Node23 -->
<g id="node12" class="node">
<title>Node23</title>
<g id="a_node12"><a xlink:href="api_2barrier_8h.html" target="_top" xlink:title="ODP execution barriers. ">
<polygon fill="#ffffff" stroke="#000000" points="1552,-112.5 1552,-131.5 1609,-131.5 1609,-112.5 1552,-112.5"/>
<text text-anchor="middle" x="1580.5" y="-119.5" font-family="Helvetica,sans-Serif" font-size="10.00" fill="#000000">barrier.h</text>
</a>
</g>
</g>
<!-- Node14&#45;&gt;Node23 -->
<g id="edge11" class="edge">
<title>Node14&#45;&gt;Node23</title>
<path fill="none" stroke="#191970" d="M1482.1102,-164.3833C1505.7535,-154.1985 1537.4876,-140.5284 1558.4438,-131.5011"/>
<polygon fill="#191970" stroke="#191970" points="1480.6472,-161.2025 1472.8478,-168.3733 1483.4166,-167.6314 1480.6472,-161.2025"/>
</g>
<!-- Node14&#45;&gt;Node24 -->
<g id="edge14" class="edge">
<title>Node14&#45;&gt;Node24</title>
<path fill="none" stroke="#191970" d="M1450.1403,-158.0373C1451.0116,-143.1642 1454.7746,-123.5131 1467.5,-112 1506.3782,-76.8256 1666.0919,-68.5403 1735.287,-66.5945"/>
<polygon fill="#191970" stroke="#191970" points="1446.6366,-158.198 1449.9372,-168.2656 1453.6352,-158.3371 1446.6366,-158.198"/>
</g>
<!-- Node23&#45;&gt;Node24 -->
<g id="edge12" class="edge">
<title>Node23&#45;&gt;Node24</title>
<path fill="none" stroke="#191970" d="M1619.0184,-110.4651C1653.4341,-100.1588 1703.2642,-85.2364 1735.5237,-75.5758"/>
<polygon fill="#191970" stroke="#191970" points="1617.8845,-107.151 1609.3089,-113.3727 1619.8927,-113.8568 1617.8845,-107.151"/>
</g>
<!-- Node25 -->
<g id="node14" class="node">
<title>Node25</title>
<g id="a_node14"><a xlink:href="odp_8h.html" target="_top" xlink:title="WARNING: THIS FILE IS DEPRECATED AND WILL BE REMOVED!!! ODP APPLICATIONS SHOULD NOW INCLUDE odp_api...">
<polygon fill="#ffffff" stroke="#000000" points="1745.5,-.5 1745.5,-19.5 1789.5,-19.5 1789.5,-.5 1745.5,-.5"/>
<text text-anchor="middle" x="1767.5" y="-7.5" font-family="Helvetica,sans-Serif" font-size="10.00" fill="#000000">odp.h</text>
</a>
</g>
</g>
<!-- Node24&#45;&gt;Node25 -->
<g id="edge13" class="edge">
<title>Node24&#45;&gt;Node25</title>
<path fill="none" stroke="#191970" d="M1767.5,-46.1575C1767.5,-37.155 1767.5,-26.9199 1767.5,-19.6427"/>
<polygon fill="#191970" stroke="#191970" points="1764.0001,-46.2455 1767.5,-56.2455 1771.0001,-46.2456 1764.0001,-46.2455"/>
</g>
<!-- Node54 -->
<g id="node16" class="node">
<title>Node54</title>
<g id="a_node16"><a xlink:href="arch_2arm32-linux_2odp_2api_2abi_2cpumask_8h_source.html" target="_top" xlink:title="cpumask.h">
<polygon fill="#ffffff" stroke="#000000" points="2068.5,-224.5 2068.5,-243.5 2138.5,-243.5 2138.5,-224.5 2068.5,-224.5"/>
<text text-anchor="middle" x="2103.5" y="-231.5" font-family="Helvetica,sans-Serif" font-size="10.00" fill="#000000">cpumask.h</text>
</a>
</g>
</g>
<!-- Node53&#45;&gt;Node54 -->
<g id="edge16" class="edge">
<title>Node53&#45;&gt;Node54</title>
<path fill="none" stroke="#191970" d="M2167.5655,-274.769C2151.9717,-264.8456 2132.099,-252.1994 2118.6528,-243.6427"/>
<polygon fill="#191970" stroke="#191970" points="2165.8559,-277.8296 2176.1716,-280.2455 2169.614,-271.9239 2165.8559,-277.8296"/>
</g>
<!-- Node55 -->
<g id="node17" class="node">
<title>Node55</title>
<g id="a_node17"><a xlink:href="arch_2arm64-linux_2odp_2api_2abi_2cpumask_8h_source.html" target="_top" xlink:title="cpumask.h">
<polygon fill="#ffffff" stroke="#000000" points="2156.5,-224.5 2156.5,-243.5 2226.5,-243.5 2226.5,-224.5 2156.5,-224.5"/>
<text text-anchor="middle" x="2191.5" y="-231.5" font-family="Helvetica,sans-Serif" font-size="10.00" fill="#000000">cpumask.h</text>
</a>
</g>
</g>
<!-- Node53&#45;&gt;Node55 -->
<g id="edge17" class="edge">
<title>Node53&#45;&gt;Node55</title>
<path fill="none" stroke="#191970" d="M2191.5,-270.1575C2191.5,-261.155 2191.5,-250.9199 2191.5,-243.6427"/>
<polygon fill="#191970" stroke="#191970" points="2188.0001,-270.2455 2191.5,-280.2455 2195.0001,-270.2456 2188.0001,-270.2455"/>
</g>
<!-- Node56 -->
<g id="node18" class="node">
<title>Node56</title>
<g id="a_node18"><a xlink:href="arch_2default-linux_2odp_2api_2abi_2cpumask_8h_source.html" target="_top" xlink:title="cpumask.h">
<polygon fill="#ffffff" stroke="#000000" points="2244.5,-224.5 2244.5,-243.5 2314.5,-243.5 2314.5,-224.5 2244.5,-224.5"/>
<text text-anchor="middle" x="2279.5" y="-231.5" font-family="Helvetica,sans-Serif" font-size="10.00" fill="#000000">cpumask.h</text>
</a>
</g>
</g>
<!-- Node53&#45;&gt;Node56 -->
<g id="edge18" class="edge">
<title>Node53&#45;&gt;Node56</title>
<path fill="none" stroke="#191970" d="M2215.4345,-274.769C2231.0283,-264.8456 2250.901,-252.1994 2264.3472,-243.6427"/>
<polygon fill="#191970" stroke="#191970" points="2213.386,-271.9239 2206.8284,-280.2455 2217.1441,-277.8296 2213.386,-271.9239"/>
</g>
<!-- Node57 -->
<g id="node19" class="node">
<title>Node57</title>
<g id="a_node19"><a xlink:href="arch_2mips64-linux_2odp_2api_2abi_2cpumask_8h_source.html" target="_top" xlink:title="cpumask.h">
<polygon fill="#ffffff" stroke="#000000" points="2332.5,-224.5 2332.5,-243.5 2402.5,-243.5 2402.5,-224.5 2332.5,-224.5"/>
<text text-anchor="middle" x="2367.5" y="-231.5" font-family="Helvetica,sans-Serif" font-size="10.00" fill="#000000">cpumask.h</text>
</a>
</g>
</g>
<!-- Node53&#45;&gt;Node57 -->
<g id="edge19" class="edge">
<title>Node53&#45;&gt;Node57</title>
<path fill="none" stroke="#191970" d="M2231.3404,-277.3235C2263.6173,-267.0536 2308.3852,-252.8093 2337.6393,-243.5011"/>
<polygon fill="#191970" stroke="#191970" points="2230.2235,-274.0059 2221.7555,-280.3733 2232.346,-280.6764 2230.2235,-274.0059"/>
</g>
<!-- Node58 -->
<g id="node20" class="node">
<title>Node58</title>
<g id="a_node20"><a xlink:href="arch_2power64-linux_2odp_2api_2abi_2cpumask_8h_source.html" target="_top" xlink:title="cpumask.h">
<polygon fill="#ffffff" stroke="#000000" points="2420.5,-224.5 2420.5,-243.5 2490.5,-243.5 2490.5,-224.5 2420.5,-224.5"/>
<text text-anchor="middle" x="2455.5" y="-231.5" font-family="Helvetica,sans-Serif" font-size="10.00" fill="#000000">cpumask.h</text>
</a>
</g>
</g>
<!-- Node53&#45;&gt;Node58 -->
<g id="edge20" class="edge">
<title>Node53&#45;&gt;Node58</title>
<path fill="none" stroke="#191970" d="M2236.5125,-280.8264C2281.0128,-271.7011 2351.0196,-257.1947 2411.5,-244 2414.4084,-243.3655 2417.4228,-242.699 2420.4478,-242.024"/>
<polygon fill="#191970" stroke="#191970" points="2235.6888,-277.4224 2226.5944,-282.8577 2237.0933,-284.28 2235.6888,-277.4224"/>
</g>
<!-- Node59 -->
<g id="node21" class="node">
<title>Node59</title>
<g id="a_node21"><a xlink:href="arch_2x86__32-linux_2odp_2api_2abi_2cpumask_8h_source.html" target="_top" xlink:title="cpumask.h">
<polygon fill="#ffffff" stroke="#000000" points="1980.5,-224.5 1980.5,-243.5 2050.5,-243.5 2050.5,-224.5 1980.5,-224.5"/>
<text text-anchor="middle" x="2015.5" y="-231.5" font-family="Helvetica,sans-Serif" font-size="10.00" fill="#000000">cpumask.h</text>
</a>
</g>
</g>
<!-- Node53&#45;&gt;Node59 -->
<g id="edge21" class="edge">
<title>Node53&#45;&gt;Node59</title>
<path fill="none" stroke="#191970" d="M2151.6596,-277.3235C2119.3827,-267.0536 2074.6148,-252.8093 2045.3607,-243.5011"/>
<polygon fill="#191970" stroke="#191970" points="2150.654,-280.6764 2161.2445,-280.3733 2152.7765,-274.0059 2150.654,-280.6764"/>
</g>
<!-- Node60 -->
<g id="node22" class="node">
<title>Node60</title>
<g id="a_node22"><a xlink:href="arch_2x86__64-linux_2odp_2api_2abi_2cpumask_8h_source.html" target="_top" xlink:title="cpumask.h">
<polygon fill="#ffffff" stroke="#000000" points="2508.5,-224.5 2508.5,-243.5 2578.5,-243.5 2578.5,-224.5 2508.5,-224.5"/>
<text text-anchor="middle" x="2543.5" y="-231.5" font-family="Helvetica,sans-Serif" font-size="10.00" fill="#000000">cpumask.h</text>
</a>
</g>
</g>
<!-- Node53&#45;&gt;Node60 -->
<g id="edge22" class="edge">
<title>Node53&#45;&gt;Node60</title>
<path fill="none" stroke="#191970" d="M2236.6857,-284.3342C2296.8766,-276.54 2406.5776,-261.4728 2499.5,-244 2502.4255,-243.4499 2505.452,-242.8428 2508.4851,-242.2077"/>
<polygon fill="#191970" stroke="#191970" points="2236.2207,-280.8651 2226.7493,-285.613 2237.1143,-287.8079 2236.2207,-280.8651"/>
</g>
<!-- Node61 -->
<g id="node23" class="node">
<title>Node61</title>
<g id="a_node23"><a xlink:href="api_2cpumask_8h.html" target="_top" xlink:title="ODP CPU masks and enumeration. ">
<polygon fill="#ffffff" stroke="#ff0000" points="2069.5,-168.5 2069.5,-187.5 2139.5,-187.5 2139.5,-168.5 2069.5,-168.5"/>
<text text-anchor="middle" x="2104.5" y="-175.5" font-family="Helvetica,sans-Serif" font-size="10.00" fill="#000000">cpumask.h</text>
</a>
</g>
</g>
<!-- Node60&#45;&gt;Node61 -->
<g id="edge23" class="edge">
<title>Node60&#45;&gt;Node61</title>
<path fill="none" stroke="#191970" d="M2498.1139,-223.906C2360.0936,-200.6925 2207.0946,-186.4898 2139.554,-180.807"/>
<polygon fill="#191970" stroke="#191970" points="2497.5785,-227.3651 2508.0241,-225.5929 2498.7533,-220.4644 2497.5785,-227.3651"/>
</g>
<!-- Node61&#45;&gt;Node24 -->
<g id="edge25" class="edge">
<title>Node61&#45;&gt;Node24</title>
<path fill="none" stroke="#191970" d="M2089.3683,-160.3002C2075.2335,-144.9886 2052.7247,-123.5461 2028.5,-112 1988.4193,-92.8966 1860.427,-76.4523 1799.8582,-69.5156"/>
<polygon fill="#191970" stroke="#191970" points="2087.0433,-162.9511 2096.3172,-168.0742 2092.2623,-158.286 2087.0433,-162.9511"/>
</g>
<!-- Node73 -->
<g id="node24" class="node">
<title>Node73</title>
<g id="a_node24"><a xlink:href="api_2spec_2init_8h.html" target="_top" xlink:title="init.h">
<polygon fill="#ffffff" stroke="#ff0000" points="1979,-112.5 1979,-131.5 2020,-131.5 2020,-112.5 1979,-112.5"/>
<text text-anchor="middle" x="1999.5" y="-119.5" font-family="Helvetica,sans-Serif" font-size="10.00" fill="#000000">init.h</text>
</a>
</g>
</g>
<!-- Node61&#45;&gt;Node73 -->
<g id="edge24" class="edge">
<title>Node61&#45;&gt;Node73</title>
<path fill="none" stroke="#191970" d="M2077.2375,-163.46C2058.4478,-153.4388 2033.9987,-140.3993 2017.58,-131.6427"/>
<polygon fill="#191970" stroke="#191970" points="2075.7398,-166.6278 2086.2104,-168.2455 2079.0339,-160.4514 2075.7398,-166.6278"/>
</g>
<!-- Node78 -->
<g id="node26" class="node">
<title>Node78</title>
<g id="a_node26"><a xlink:href="api_2std__types_8h.html" target="_top" xlink:title="Standard C language types and definitions for ODP. ">
<polygon fill="#ffffff" stroke="#ff0000" points="1427,-336.5 1427,-355.5 1500,-355.5 1500,-336.5 1427,-336.5"/>
<text text-anchor="middle" x="1463.5" y="-343.5" font-family="Helvetica,sans-Serif" font-size="10.00" fill="#000000">std_types.h</text>
</a>
</g>
</g>
<!-- Node77&#45;&gt;Node78 -->
<g id="edge27" class="edge">
<title>Node77&#45;&gt;Node78</title>
<path fill="none" stroke="#191970" d="M1590.3644,-389.057C1560.1675,-378.8084 1518.6837,-364.729 1491.4944,-355.5011"/>
<polygon fill="#191970" stroke="#191970" points="1589.5411,-392.4736 1600.1355,-392.3733 1591.7909,-385.845 1589.5411,-392.4736"/>
</g>
<!-- Node78&#45;&gt;Node6 -->
<g id="edge28" class="edge">
<title>Node78&#45;&gt;Node6</title>
<path fill="none" stroke="#191970" d="M1416.7273,-345.5816C1223.7493,-343.6443 488.8203,-334.1321 259.5,-300 256.801,-299.5983 254.0177,-299.078 251.2423,-298.4859"/>
<polygon fill="#191970" stroke="#191970" points="1416.7881,-349.0823 1426.8221,-345.681 1416.857,-342.0826 1416.7881,-349.0823"/>
</g>
<!-- Node78&#45;&gt;Node15 -->
<g id="edge29" class="edge">
<title>Node78&#45;&gt;Node15</title>
<path fill="none" stroke="#191970" d="M1477.5859,-328.2205C1483.245,-320.085 1489.2002,-310.0346 1492.5,-300 1512.7296,-238.482 1508.5928,-158.7709 1506.392,-131.5756"/>
<polygon fill="#191970" stroke="#191970" points="1474.6048,-326.3656 1471.4798,-336.4891 1480.2358,-330.5239 1474.6048,-326.3656"/>
</g>
<!-- Node78&#45;&gt;Node23 -->
<g id="edge39" class="edge">
<title>Node78&#45;&gt;Node23</title>
<path fill="none" stroke="#191970" d="M1483.1725,-329.6707C1492.1073,-321.4791 1502.27,-310.9762 1509.5,-300 1547.9334,-241.6528 1571.0888,-159.253 1578.1693,-131.5245"/>
<polygon fill="#191970" stroke="#191970" points="1480.6208,-327.2541 1475.4315,-336.4911 1485.2485,-332.5063 1480.6208,-327.2541"/>
</g>
<!-- Node78&#45;&gt;Node24 -->
<g id="edge65" class="edge">
<title>Node78&#45;&gt;Node24</title>
<path fill="none" stroke="#191970" d="M1510.1976,-345.1343C1588.2427,-342.7454 1740.572,-333.7643 1780.5,-300 1844.8194,-245.6096 1832.487,-191.4483 1804.5,-112 1799.3921,-97.5 1787.5671,-84.1993 1778.6502,-75.6707"/>
<polygon fill="#191970" stroke="#191970" points="1510.0488,-341.637 1500.1516,-345.4179 1510.2464,-348.6342 1510.0488,-341.637"/>
</g>
<!-- Node78&#45;&gt;Node53 -->
<g id="edge31" class="edge">
<title>Node78&#45;&gt;Node53</title>
<path fill="none" stroke="#191970" d="M1510.4869,-343.842C1618.4404,-338.6367 1892.4246,-324.0162 2120.5,-300 2132.1368,-298.7746 2144.8006,-297.1009 2156.1681,-295.4732"/>
<polygon fill="#191970" stroke="#191970" points="1510.0841,-340.3572 1500.2626,-344.3307 1510.4183,-347.3492 1510.0841,-340.3572"/>
</g>
<!-- Node78&#45;&gt;Node73 -->
<g id="edge57" class="edge">
<title>Node78&#45;&gt;Node73</title>
<path fill="none" stroke="#191970" d="M1510.4175,-343.104C1611.7626,-336.5127 1844.4431,-319.4473 1874.5,-300 1931.7125,-262.9827 1910.4551,-221.6263 1952.5,-168 1963.2078,-154.3426 1977.7695,-140.6866 1987.8336,-131.8451"/>
<polygon fill="#191970" stroke="#191970" points="1509.9205,-339.6286 1500.1661,-343.764 1510.3704,-346.6142 1509.9205,-339.6286"/>
</g>
<!-- Node79 -->
<g id="node27" class="node">
<title>Node79</title>
<g id="a_node27"><a xlink:href="api_2abi-default_2byteorder_8h.html" target="_top" xlink:title="ODP byteorder. ">
<polygon fill="#ffffff" stroke="#ff0000" points="1980.5,-280.5 1980.5,-299.5 2052.5,-299.5 2052.5,-280.5 1980.5,-280.5"/>
<text text-anchor="middle" x="2016.5" y="-287.5" font-family="Helvetica,sans-Serif" font-size="10.00" fill="#000000">byteorder.h</text>
</a>
</g>
</g>
<!-- Node78&#45;&gt;Node79 -->
<g id="edge30" class="edge">
<title>Node78&#45;&gt;Node79</title>
<path fill="none" stroke="#191970" d="M1510.3197,-343.384C1599.458,-338.0351 1799.5512,-324.2587 1966.5,-300 1970.9678,-299.3508 1975.6399,-298.5634 1980.2576,-297.7186"/>
<polygon fill="#191970" stroke="#191970" points="1510.0379,-339.8945 1500.2625,-343.9798 1510.452,-346.8822 1510.0379,-339.8945"/>
</g>
<!-- Node88 -->
<g id="node28" class="node">
<title>Node88</title>
<g id="a_node28"><a xlink:href="api_2abi-default_2init_8h.html" target="_top" xlink:title="ODP initialization. ">
<polygon fill="#ffffff" stroke="#ff0000" points="2071,-280.5 2071,-299.5 2112,-299.5 2112,-280.5 2071,-280.5"/>
<text text-anchor="middle" x="2091.5" y="-287.5" font-family="Helvetica,sans-Serif" font-size="10.00" fill="#000000">init.h</text>
</a>
</g>
</g>
<!-- Node78&#45;&gt;Node88 -->
<g id="edge32" class="edge">
<title>Node78&#45;&gt;Node88</title>
<path fill="none" stroke="#191970" d="M1510.1393,-343.891C1631.7031,-338.1576 1956.1263,-321.2793 2061.5,-300 2064.5136,-299.3914 2067.6443,-298.5706 2070.6967,-297.6595"/>
<polygon fill="#191970" stroke="#191970" points="1509.863,-340.4 1500.0376,-344.3638 1510.1903,-347.3924 1509.863,-340.4"/>
</g>
<!-- Node96 -->
<g id="node29" class="node">
<title>Node96</title>
<g id="a_node29"><a xlink:href="api_2abi-default_2ipsec_8h.html" target="_top" xlink:title="ODP IPSEC API &#45; platform specific types. ">
<polygon fill="#ffffff" stroke="#ff0000" points="346,-280.5 346,-299.5 397,-299.5 397,-280.5 346,-280.5"/>
<text text-anchor="middle" x="371.5" y="-287.5" font-family="Helvetica,sans-Serif" font-size="10.00" fill="#000000">ipsec.h</text>
</a>
</g>
</g>
<!-- Node78&#45;&gt;Node96 -->
<g id="edge33" class="edge">
<title>Node78&#45;&gt;Node96</title>
<path fill="none" stroke="#191970" d="M1416.66,-345.4721C1238.6672,-343.2322 604.3275,-333.0567 405.5,-300 402.8294,-299.556 400.0725,-298.9692 397.3377,-298.3018"/>
<polygon fill="#191970" stroke="#191970" points="1416.7042,-348.9728 1426.7467,-345.5967 1416.7907,-341.9734 1416.7042,-348.9728"/>
</g>
<!-- Node105 -->
<g id="node30" class="node">
<title>Node105</title>
<g id="a_node30"><a xlink:href="api_2abi-default_2packet__io_8h.html" target="_top" xlink:title="ODP Packet IO. ">
<polygon fill="#ffffff" stroke="#ff0000" points="415,-280.5 415,-299.5 488,-299.5 488,-280.5 415,-280.5"/>
<text text-anchor="middle" x="451.5" y="-287.5" font-family="Helvetica,sans-Serif" font-size="10.00" fill="#000000">packet_io.h</text>
</a>
</g>
</g>
<!-- Node78&#45;&gt;Node105 -->
<g id="edge34" class="edge">
<title>Node78&#45;&gt;Node105</title>
<path fill="none" stroke="#191970" d="M1416.7201,-344.8055C1249.0405,-340.3628 678.497,-323.8144 497.5,-300 494.4209,-299.5949 491.2424,-299.0897 488.0618,-298.5231"/>
<polygon fill="#191970" stroke="#191970" points="1416.8561,-348.3102 1426.9448,-345.0746 1417.0403,-341.3126 1416.8561,-348.3102"/>
</g>
<!-- Node35 -->
<g id="node31" class="node">
<title>Node35</title>
<g id="a_node31"><a xlink:href="api_2abi-default_2rwlock__recursive_8h.html" target="_top" xlink:title="ODP recursive read/write lock. ">
<polygon fill="#ffffff" stroke="#ff0000" points="506.5,-280.5 506.5,-299.5 614.5,-299.5 614.5,-280.5 506.5,-280.5"/>
<text text-anchor="middle" x="560.5" y="-287.5" font-family="Helvetica,sans-Serif" font-size="10.00" fill="#000000">rwlock_recursive.h</text>
</a>
</g>
</g>
<!-- Node78&#45;&gt;Node35 -->
<g id="edge35" class="edge">
<title>Node78&#45;&gt;Node35</title>
<path fill="none" stroke="#191970" d="M1416.7746,-345.1238C1289.2687,-342.3696 924.7369,-332.0701 623.5,-300 620.6368,-299.6952 617.7054,-299.3491 614.7491,-298.9734"/>
<polygon fill="#191970" stroke="#191970" points="1416.8879,-348.6269 1426.9594,-345.3385 1417.0355,-341.6284 1416.8879,-348.6269"/>
</g>
<!-- Node133 -->
<g id="node32" class="node">
<title>Node133</title>
<g id="a_node32"><a xlink:href="api_2abi-default_2schedule_8h.html" target="_top" xlink:title="ODP schedule. ">
<polygon fill="#ffffff" stroke="#ff0000" points="633,-280.5 633,-299.5 702,-299.5 702,-280.5 633,-280.5"/>
<text text-anchor="middle" x="667.5" y="-287.5" font-family="Helvetica,sans-Serif" font-size="10.00" fill="#000000">schedule.h</text>
</a>
</g>
</g>
<!-- Node78&#45;&gt;Node133 -->
<g id="edge36" class="edge">
<title>Node78&#45;&gt;Node133</title>
<path fill="none" stroke="#191970" d="M1416.5463,-344.1284C1274.1767,-338.2954 848.7115,-319.656 711.5,-300 708.5533,-299.5779 705.5119,-299.0607 702.4688,-298.4861"/>
<polygon fill="#191970" stroke="#191970" points="1416.5596,-347.6318 1426.6939,-344.5421 1416.8448,-340.6376 1416.5596,-347.6318"/>
</g>
<!-- Node141 -->
<g id="node33" class="node">
<title>Node141</title>
<g id="a_node33"><a xlink:href="api_2abi-default_2spinlock__recursive_8h.html" target="_top" xlink:title="ODP recursive spinlock. ">
<polygon fill="#ffffff" stroke="#ff0000" points="720.5,-280.5 720.5,-299.5 836.5,-299.5 836.5,-280.5 720.5,-280.5"/>
<text text-anchor="middle" x="778.5" y="-287.5" font-family="Helvetica,sans-Serif" font-size="10.00" fill="#000000">spinlock_recursive.h</text>
</a>
</g>
</g>
<!-- Node78&#45;&gt;Node141 -->
<g id="edge37" class="edge">
<title>Node78&#45;&gt;Node141</title>
<path fill="none" stroke="#191970" d="M1416.7489,-343.702C1313.4781,-338.367 1058.1908,-323.7553 845.5,-300 842.578,-299.6736 839.5877,-299.3157 836.5704,-298.9353"/>
<polygon fill="#191970" stroke="#191970" points="1416.6772,-347.2028 1426.8431,-344.2189 1417.0352,-340.212 1416.6772,-347.2028"/>
</g>
<!-- Node150 -->
<g id="node34" class="node">
<title>Node150</title>
<g id="a_node34"><a xlink:href="api_2abi-default_2traffic__mngr_8h.html" target="_top" xlink:title="ODP traffic mngr. ">
<polygon fill="#ffffff" stroke="#ff0000" points="854.5,-280.5 854.5,-299.5 938.5,-299.5 938.5,-280.5 854.5,-280.5"/>
<text text-anchor="middle" x="896.5" y="-287.5" font-family="Helvetica,sans-Serif" font-size="10.00" fill="#000000">traffic_mngr.h</text>
</a>
</g>
</g>
<!-- Node78&#45;&gt;Node150 -->
<g id="edge38" class="edge">
<title>Node78&#45;&gt;Node150</title>
<path fill="none" stroke="#191970" d="M1416.5013,-343.4625C1325.5874,-338.1891 1119.4452,-324.4531 947.5,-300 944.6415,-299.5935 941.7007,-299.1323 938.7429,-298.6366"/>
<polygon fill="#191970" stroke="#191970" points="1416.5652,-346.9718 1426.749,-344.0493 1416.9654,-339.9833 1416.5652,-346.9718"/>
</g>
<!-- Node158 -->
<g id="node35" class="node">
<title>Node158</title>
<g id="a_node35"><a xlink:href="api_2buffer_8h.html" target="_top" xlink:title="ODP buffer descriptor. ">
<polygon fill="#ffffff" stroke="#000000" points="1852,-168.5 1852,-187.5 1905,-187.5 1905,-168.5 1852,-168.5"/>
<text text-anchor="middle" x="1878.5" y="-175.5" font-family="Helvetica,sans-Serif" font-size="10.00" fill="#000000">buffer.h</text>
</a>
</g>
</g>
<!-- Node78&#45;&gt;Node158 -->
<g id="edge40" class="edge">
<title>Node78&#45;&gt;Node158</title>
<path fill="none" stroke="#191970" d="M1510.4736,-343.4818C1608.4507,-337.7995 1827.6202,-322.6839 1852.5,-300 1884.9864,-270.3808 1882.3002,-211.0223 1879.7955,-187.7137"/>
<polygon fill="#191970" stroke="#191970" points="1510.0456,-340.0004 1500.2615,-344.0652 1510.4449,-346.989 1510.0456,-340.0004"/>
</g>
<!-- Node113 -->
<g id="node36" class="node">
<title>Node113</title>
<g id="a_node36"><a xlink:href="api_2classification_8h.html" target="_top" xlink:title="ODP classification descriptor. ">
<polygon fill="#ffffff" stroke="#ff0000" points="1962,-168.5 1962,-187.5 2051,-187.5 2051,-168.5 1962,-168.5"/>
<text text-anchor="middle" x="2006.5" y="-175.5" font-family="Helvetica,sans-Serif" font-size="10.00" fill="#000000">classification.h</text>
</a>
</g>
</g>
<!-- Node78&#45;&gt;Node113 -->
<g id="edge42" class="edge">
<title>Node78&#45;&gt;Node113</title>
<path fill="none" stroke="#191970" d="M1510.2832,-343.8065C1621.2996,-338.2581 1893.9679,-322.4893 1928.5,-300 1961.0209,-278.8206 1950.1454,-256.4061 1971.5,-224 1980.1138,-210.9284 1991.2263,-196.7062 1998.5937,-187.5898"/>
<polygon fill="#191970" stroke="#191970" points="1509.8729,-340.3224 1500.0577,-344.3114 1510.2182,-347.3139 1509.8729,-340.3224"/>
</g>
<!-- Node119 -->
<g id="node37" class="node">
<title>Node119</title>
<g id="a_node37"><a xlink:href="api_2crypto_8h.html" target="_top" xlink:title="ODP crypto. ">
<polygon fill="#ffffff" stroke="#ff0000" points="1627.5,-112.5 1627.5,-131.5 1683.5,-131.5 1683.5,-112.5 1627.5,-112.5"/>
<text text-anchor="middle" x="1655.5" y="-119.5" font-family="Helvetica,sans-Serif" font-size="10.00" fill="#000000">crypto.h</text>
</a>
</g>
</g>
<!-- Node78&#45;&gt;Node119 -->
<g id="edge44" class="edge">
<title>Node78&#45;&gt;Node119</title>
<path fill="none" stroke="#191970" d="M1489.2935,-330.9878C1502.1815,-322.7804 1517.5359,-311.8771 1529.5,-300 1585.9263,-243.9839 1634.5652,-160.0908 1650.2229,-131.7503"/>
<polygon fill="#191970" stroke="#191970" points="1487.0976,-328.2303 1480.4287,-336.4629 1490.776,-334.1859 1487.0976,-328.2303"/>
</g>
<!-- Node115 -->
<g id="node38" class="node">
<title>Node115</title>
<g id="a_node38"><a xlink:href="api_2packet_8h.html" target="_top" xlink:title="ODP packet descriptor. ">
<polygon fill="#ffffff" stroke="#ff0000" points="269,-280.5 269,-299.5 328,-299.5 328,-280.5 269,-280.5"/>
<text text-anchor="middle" x="298.5" y="-287.5" font-family="Helvetica,sans-Serif" font-size="10.00" fill="#000000">packet.h</text>
</a>
</g>
</g>
<!-- Node78&#45;&gt;Node115 -->
<g id="edge46" class="edge">
<title>Node78&#45;&gt;Node115</title>
<path fill="none" stroke="#191970" d="M1416.7358,-345.4403C1231.6338,-343.016 549.9715,-332.0576 336.5,-300 333.8015,-299.5948 331.0186,-299.072 328.2435,-298.4784"/>
<polygon fill="#191970" stroke="#191970" points="1416.903,-348.9426 1426.9473,-345.5719 1416.9933,-341.9432 1416.903,-348.9426"/>
</g>
<!-- Node131 -->
<g id="node39" class="node">
<title>Node131</title>
<g id="a_node39"><a xlink:href="api_2spec_2packet__flags_8h.html" target="_top" xlink:title="ODP packet flags. ">
<polygon fill="#ffffff" stroke="#ff0000" points="1119,-224.5 1119,-243.5 1206,-243.5 1206,-224.5 1119,-224.5"/>
<text text-anchor="middle" x="1162.5" y="-231.5" font-family="Helvetica,sans-Serif" font-size="10.00" fill="#000000">packet_flags.h</text>
</a>
</g>
</g>
<!-- Node78&#45;&gt;Node131 -->
<g id="edge58" class="edge">
<title>Node78&#45;&gt;Node131</title>
<path fill="none" stroke="#191970" d="M1416.8835,-338.4713C1378.1148,-331.3022 1321.9678,-318.7917 1275.5,-300 1255.5963,-291.9509 1203.49,-259.8129 1177.5789,-243.542"/>
<polygon fill="#191970" stroke="#191970" points="1416.379,-341.9366 1426.8412,-340.2659 1417.6206,-335.0476 1416.379,-341.9366"/>
</g>
<!-- Node127 -->
<g id="node40" class="node">
<title>Node127</title>
<g id="a_node40"><a xlink:href="api_2packet__io_8h.html" target="_top" xlink:title="ODP Packet IO. ">
<polygon fill="#ffffff" stroke="#ff0000" points="1647,-168.5 1647,-187.5 1720,-187.5 1720,-168.5 1647,-168.5"/>
<text text-anchor="middle" x="1683.5" y="-175.5" font-family="Helvetica,sans-Serif" font-size="10.00" fill="#000000">packet_io.h</text>
</a>
</g>
</g>
<!-- Node78&#45;&gt;Node127 -->
<g id="edge49" class="edge">
<title>Node78&#45;&gt;Node127</title>
<path fill="none" stroke="#191970" d="M1510.1358,-338.5975C1539.0056,-332.1816 1575.5727,-320.5613 1602.5,-300 1643.3172,-268.8326 1670.1519,-210.8917 1679.6567,-187.8346"/>
<polygon fill="#191970" stroke="#191970" points="1509.3475,-335.1865 1500.2736,-340.6559 1510.7778,-342.0388 1509.3475,-335.1865"/>
</g>
<!-- Node123 -->
<g id="node41" class="node">
<title>Node123</title>
<g id="a_node41"><a xlink:href="api_2queue_8h.html" target="_top" xlink:title="ODP queue. ">
<polygon fill="#ffffff" stroke="#ff0000" points="1739.5,-112.5 1739.5,-131.5 1795.5,-131.5 1795.5,-112.5 1739.5,-112.5"/>
<text text-anchor="middle" x="1767.5" y="-119.5" font-family="Helvetica,sans-Serif" font-size="10.00" fill="#000000">queue.h</text>
</a>
</g>
</g>
<!-- Node78&#45;&gt;Node123 -->
<g id="edge51" class="edge">
<title>Node78&#45;&gt;Node123</title>
<path fill="none" stroke="#191970" d="M1510.325,-341.9584C1589.5554,-334.6531 1743.0979,-318.2997 1759.5,-300 1803.2709,-251.1651 1780.0326,-161.1422 1770.7514,-131.6395"/>
<polygon fill="#191970" stroke="#191970" points="1509.7632,-338.495 1500.1216,-342.8871 1510.3977,-345.4662 1509.7632,-338.495"/>
</g>
<!-- Node159 -->
<g id="node42" class="node">
<title>Node159</title>
<g id="a_node42"><a xlink:href="spec_2chksum_8h.html" target="_top" xlink:title="ODP checksum functions. ">
<polygon fill="#ffffff" stroke="#ff0000" points="956.5,-280.5 956.5,-299.5 1020.5,-299.5 1020.5,-280.5 956.5,-280.5"/>
<text text-anchor="middle" x="988.5" y="-287.5" font-family="Helvetica,sans-Serif" font-size="10.00" fill="#000000">chksum.h</text>
</a>
</g>
</g>
<!-- Node78&#45;&gt;Node159 -->
<g id="edge53" class="edge">
<title>Node78&#45;&gt;Node159</title>
<path fill="none" stroke="#191970" d="M1416.7655,-343.1033C1336.9284,-337.6969 1169.3407,-324.3523 1029.5,-300 1026.6128,-299.4972 1023.6268,-298.9074 1020.6435,-298.27"/>
<polygon fill="#191970" stroke="#191970" points="1416.7674,-346.6111 1426.978,-343.7838 1417.2328,-339.6266 1416.7674,-346.6111"/>
</g>
<!-- Node161 -->
<g id="node43" class="node">
<title>Node161</title>
<g id="a_node43"><a xlink:href="api_2spec_2cpu_8h.html" target="_top" xlink:title="ODP CPU API. ">
<polygon fill="#ffffff" stroke="#ff0000" points="1039,-280.5 1039,-299.5 1082,-299.5 1082,-280.5 1039,-280.5"/>
<text text-anchor="middle" x="1060.5" y="-287.5" font-family="Helvetica,sans-Serif" font-size="10.00" fill="#000000">cpu.h</text>
</a>
</g>
</g>
<!-- Node78&#45;&gt;Node161 -->
<g id="edge54" class="edge">
<title>Node78&#45;&gt;Node161</title>
<path fill="none" stroke="#191970" d="M1416.8288,-343.2366C1345.6968,-338.3554 1206.2085,-326.1455 1090.5,-300 1087.8225,-299.395 1085.0464,-298.6448 1082.3125,-297.8293"/>
<polygon fill="#191970" stroke="#191970" points="1416.6055,-346.7294 1426.8167,-343.9044 1417.0725,-339.745 1416.6055,-346.7294"/>
</g>
<!-- Node163 -->
<g id="node44" class="node">
<title>Node163</title>
<g id="a_node44"><a xlink:href="spec_2feature_8h.html" target="_top" xlink:title="ODP features. ">
<polygon fill="#ffffff" stroke="#ff0000" points="1100,-280.5 1100,-299.5 1161,-299.5 1161,-280.5 1100,-280.5"/>
<text text-anchor="middle" x="1130.5" y="-287.5" font-family="Helvetica,sans-Serif" font-size="10.00" fill="#000000">feature.h</text>
</a>
</g>
</g>
<!-- Node78&#45;&gt;Node163 -->
<g id="edge55" class="edge">
<title>Node78&#45;&gt;Node163</title>
<path fill="none" stroke="#191970" d="M1416.6296,-340.077C1358.3995,-332.3951 1256.1385,-317.8426 1169.5,-300 1166.7615,-299.436 1163.9267,-298.8042 1161.0924,-298.1394"/>
<polygon fill="#191970" stroke="#191970" points="1416.2595,-343.5584 1426.6292,-341.3857 1417.1679,-336.6176 1416.2595,-343.5584"/>
</g>
<!-- Node165 -->
<g id="node45" class="node">
<title>Node165</title>
<g id="a_node45"><a xlink:href="api_2spec_2hash_8h.html" target="_top" xlink:title="ODP Hash functions. ">
<polygon fill="#ffffff" stroke="#ff0000" points="1179,-280.5 1179,-299.5 1228,-299.5 1228,-280.5 1179,-280.5"/>
<text text-anchor="middle" x="1203.5" y="-287.5" font-family="Helvetica,sans-Serif" font-size="10.00" fill="#000000">hash.h</text>
</a>
</g>
</g>
<!-- Node78&#45;&gt;Node165 -->
<g id="edge56" class="edge">
<title>Node78&#45;&gt;Node165</title>
<path fill="none" stroke="#191970" d="M1416.6178,-336.8891C1371.7886,-328.0244 1302.3538,-313.895 1242.5,-300 1237.87,-298.9252 1232.948,-297.7158 1228.2158,-296.5191"/>
<polygon fill="#191970" stroke="#191970" points="1416.1416,-340.3625 1426.6297,-338.8622 1417.4952,-333.4946 1416.1416,-340.3625"/>
</g>
<!-- Node167 -->
<g id="node46" class="node">
<title>Node167</title>
<g id="a_node46"><a xlink:href="api_2spec_2pool_8h.html" target="_top" xlink:title="ODP pool. ">
<polygon fill="#ffffff" stroke="#ff0000" points="1692,-224.5 1692,-243.5 1739,-243.5 1739,-224.5 1692,-224.5"/>
<text text-anchor="middle" x="1715.5" y="-231.5" font-family="Helvetica,sans-Serif" font-size="10.00" fill="#000000">pool.h</text>
</a>
</g>
</g>
<!-- Node78&#45;&gt;Node167 -->
<g id="edge59" class="edge">
<title>Node78&#45;&gt;Node167</title>
<path fill="none" stroke="#191970" d="M1510.1959,-341.5845C1585.691,-333.97 1727.6537,-317.4945 1742.5,-300 1756.9187,-283.0093 1737.7127,-257.2824 1725.0384,-243.5045"/>
<polygon fill="#191970" stroke="#191970" points="1509.6084,-338.1256 1500.0045,-342.5993 1510.3021,-345.0911 1509.6084,-338.1256"/>
</g>
<!-- Node169 -->
<g id="node47" class="node">
<title>Node169</title>
<g id="a_node47"><a xlink:href="pool__types_8h.html" target="_top" xlink:title="Type definitions for pools. ">
<polygon fill="#ffffff" stroke="#000000" points="1655,-280.5 1655,-299.5 1734,-299.5 1734,-280.5 1655,-280.5"/>
<text text-anchor="middle" x="1694.5" y="-287.5" font-family="Helvetica,sans-Serif" font-size="10.00" fill="#000000">pool_types.h</text>
</a>
</g>
</g>
<!-- Node78&#45;&gt;Node169 -->
<g id="edge60" class="edge">
<title>Node78&#45;&gt;Node169</title>
<path fill="none" stroke="#191970" d="M1509.9309,-334.744C1552.469,-324.4318 1614.7624,-309.3303 1654.9743,-299.582"/>
<polygon fill="#191970" stroke="#191970" points="1508.9965,-331.3691 1500.1026,-337.1266 1510.6458,-338.172 1508.9965,-331.3691"/>
</g>
<!-- Node71 -->
<g id="node48" class="node">
<title>Node71</title>
<g id="a_node48"><a xlink:href="api_2spec_2schedule_8h.html" target="_top" xlink:title="ODP schedule. ">
<polygon fill="#ffffff" stroke="#ff0000" points="1285,-280.5 1285,-299.5 1354,-299.5 1354,-280.5 1285,-280.5"/>
<text text-anchor="middle" x="1319.5" y="-287.5" font-family="Helvetica,sans-Serif" font-size="10.00" fill="#000000">schedule.h</text>
</a>
</g>
</g>
<!-- Node78&#45;&gt;Node71 -->
<g id="edge62" class="edge">
<title>Node78&#45;&gt;Node71</title>
<path fill="none" stroke="#191970" d="M1429.1818,-332.6541C1402.922,-322.4419 1367.3508,-308.6086 1343.9315,-299.5011"/>
<polygon fill="#191970" stroke="#191970" points="1428.1569,-336.0108 1438.7455,-336.3733 1430.694,-329.4867 1428.1569,-336.0108"/>
</g>
<!-- Node170 -->
<g id="node49" class="node">
<title>Node170</title>
<g id="a_node49"><a xlink:href="api_2spec_2stash_8h.html" target="_top" xlink:title="ODP stash. ">
<polygon fill="#ffffff" stroke="#ff0000" points="1372.5,-280.5 1372.5,-299.5 1424.5,-299.5 1424.5,-280.5 1372.5,-280.5"/>
<text text-anchor="middle" x="1398.5" y="-287.5" font-family="Helvetica,sans-Serif" font-size="10.00" fill="#000000">stash.h</text>
</a>
</g>
</g>
<!-- Node78&#45;&gt;Node170 -->
<g id="edge63" class="edge">
<title>Node78&#45;&gt;Node170</title>
<path fill="none" stroke="#191970" d="M1444.5165,-329.645C1433.2121,-319.9058 1419.253,-307.8795 1409.6924,-299.6427"/>
<polygon fill="#191970" stroke="#191970" points="1442.3173,-332.3701 1452.1779,-336.2455 1446.8862,-327.0668 1442.3173,-332.3701"/>
</g>
<!-- Node172 -->
<g id="node50" class="node">
<title>Node172</title>
<g id="a_node50"><a xlink:href="api_2spec_2std_8h.html" target="_top" xlink:title="ODP standard types and optimized C library functions. ">
<polygon fill="#ffffff" stroke="#ff0000" points="1443,-280.5 1443,-299.5 1484,-299.5 1484,-280.5 1443,-280.5"/>
<text text-anchor="middle" x="1463.5" y="-287.5" font-family="Helvetica,sans-Serif" font-size="10.00" fill="#000000">std.h</text>
</a>
</g>
</g>
<!-- Node78&#45;&gt;Node172 -->
<g id="edge64" class="edge">
<title>Node78&#45;&gt;Node172</title>
<path fill="none" stroke="#191970" d="M1463.5,-326.1575C1463.5,-317.155 1463.5,-306.9199 1463.5,-299.6427"/>
<polygon fill="#191970" stroke="#191970" points="1460.0001,-326.2455 1463.5,-336.2455 1467.0001,-326.2456 1460.0001,-326.2455"/>
</g>
<!-- Node158&#45;&gt;Node24 -->
<g id="edge41" class="edge">
<title>Node158&#45;&gt;Node24</title>
<path fill="none" stroke="#191970" d="M1869.4932,-158.9171C1862.2167,-144.85 1850.9868,-125.8353 1837.5,-112 1822.5784,-96.6929 1801.7125,-83.7976 1786.6489,-75.5914"/>
<polygon fill="#191970" stroke="#191970" points="1866.4893,-160.7378 1874.0686,-168.1409 1872.7602,-157.6271 1866.4893,-160.7378"/>
</g>
<!-- Node113&#45;&gt;Node24 -->
<g id="edge43" class="edge">
<title>Node113&#45;&gt;Node24</title>
<path fill="none" stroke="#191970" d="M1976.9504,-164.1525C1927.7103,-141.0776 1830.1122,-95.3413 1787.8254,-75.5249"/>
<polygon fill="#191970" stroke="#191970" points="1975.5827,-167.3768 1986.123,-168.4509 1978.5531,-161.0382 1975.5827,-167.3768"/>
</g>
<!-- Node119&#45;&gt;Node24 -->
<g id="edge45" class="edge">
<title>Node119&#45;&gt;Node24</title>
<path fill="none" stroke="#191970" d="M1683.8263,-107.8368C1704.0721,-97.7139 1730.7642,-84.3679 1748.4978,-75.5011"/>
<polygon fill="#191970" stroke="#191970" points="1682.1325,-104.7706 1674.7535,-112.3733 1685.263,-111.0316 1682.1325,-104.7706"/>
</g>
<!-- Node115&#45;&gt;Node24 -->
<g id="edge48" class="edge">
<title>Node115&#45;&gt;Node24</title>
<path fill="none" stroke="#191970" d="M338.3328,-279.8314C464.4783,-255.9041 499.4601,-261.6618 623.5,-244 992.4259,-191.4695 1083.1114,-168.1748 1451.5,-112 1555.083,-96.2049 1677.9579,-78.6595 1735.1802,-70.5575"/>
<polygon fill="#191970" stroke="#191970" points="337.4444,-276.438 328.2849,-281.7628 338.7658,-283.3121 337.4444,-276.438"/>
</g>
<!-- Node115&#45;&gt;Node131 -->
<g id="edge47" class="edge">
<title>Node115&#45;&gt;Node131</title>
<path fill="none" stroke="#191970" d="M338.281,-280.3433C428.6756,-271.1588 961.2764,-244.1086 1118.7245,-236.1925"/>
<polygon fill="#191970" stroke="#191970" points="337.7538,-276.8815 328.25,-281.5643 338.5997,-283.8303 337.7538,-276.8815"/>
</g>
<!-- Node127&#45;&gt;Node24 -->
<g id="edge50" class="edge">
<title>Node127&#45;&gt;Node24</title>
<path fill="none" stroke="#191970" d="M1695.7901,-160.148C1705.1146,-146.7512 1718.3568,-128.0367 1730.5,-112 1740.1517,-99.2536 1751.7799,-84.9603 1759.3917,-75.7387"/>
<polygon fill="#191970" stroke="#191970" points="1692.8393,-158.2614 1690.0223,-168.4749 1698.5937,-162.2473 1692.8393,-158.2614"/>
</g>
<!-- Node123&#45;&gt;Node24 -->
<g id="edge52" class="edge">
<title>Node123&#45;&gt;Node24</title>
<path fill="none" stroke="#191970" d="M1767.5,-102.1575C1767.5,-93.155 1767.5,-82.9199 1767.5,-75.6427"/>
<polygon fill="#191970" stroke="#191970" points="1764.0001,-102.2455 1767.5,-112.2455 1771.0001,-102.2456 1764.0001,-102.2455"/>
</g>
<!-- Node169&#45;&gt;Node167 -->
<g id="edge61" class="edge">
<title>Node169&#45;&gt;Node167</title>
<path fill="none" stroke="#191970" d="M1701.719,-270.7493C1705.1476,-261.6064 1709.0951,-251.0798 1711.884,-243.6427"/>
<polygon fill="#191970" stroke="#191970" points="1698.3921,-269.6533 1698.1579,-280.2455 1704.9464,-272.1112 1698.3921,-269.6533"/>
</g>
</g>
</svg>
