<?xml version="1.0" encoding="UTF-8" standalone="no"?>
<!DOCTYPE svg PUBLIC "-//W3C//DTD SVG 1.1//EN"
 "http://www.w3.org/Graphics/SVG/1.1/DTD/svg11.dtd">
<!-- Generated by graphviz version 2.43.0 (0)
 -->
<!-- Title: random.h Pages: 1 -->
<svg width="496pt" height="487pt"
 viewBox="0.00 0.00 496.00 487.00" xmlns="http://www.w3.org/2000/svg" xmlns:xlink="http://www.w3.org/1999/xlink">
<g id="graph0" class="graph" transform="scale(1 1) rotate(0) translate(4 483)">
<title>random.h</title>
<polygon fill="white" stroke="transparent" points="-4,4 -4,-483 492,-483 492,4 -4,4"/>
<!-- Node1 -->
<g id="node1" class="node">
<title>Node1</title>
<g id="a_node1"><a xlink:title="ODP random number API.">
<polygon fill="#bfbfbf" stroke="black" points="99.5,-459.5 99.5,-478.5 162.5,-478.5 162.5,-459.5 99.5,-459.5"/>
<text text-anchor="middle" x="131" y="-466.5" font-family="Helvetica,sans-Serif" font-size="10.00">random.h</text>
</a>
</g>
</g>
<!-- Node2 -->
<g id="node2" class="node">
<title>Node2</title>
<g id="a_node2"><a xlink:title=" ">
<polygon fill="white" stroke="#bfbfbf" points="0,-403.5 0,-422.5 120,-422.5 120,-403.5 0,-403.5"/>
<text text-anchor="middle" x="60" y="-410.5" font-family="Helvetica,sans-Serif" font-size="10.00">odp/api/abi/random.h</text>
</a>
</g>
</g>
<!-- Node1&#45;&gt;Node2 -->
<g id="edge1" class="edge">
<title>Node1&#45;&gt;Node2</title>
<path fill="none" stroke="midnightblue" d="M119.59,-459.32C108.89,-451.18 92.66,-438.84 79.84,-429.09"/>
<polygon fill="midnightblue" stroke="midnightblue" points="81.69,-426.1 71.61,-422.83 77.46,-431.67 81.69,-426.1"/>
</g>
<!-- Node3 -->
<g id="node3" class="node">
<title>Node3</title>
<g id="a_node3"><a xlink:href="api_2spec_2random_8h.html" target="_top" xlink:title="ODP random number API.">
<polygon fill="white" stroke="black" points="138,-403.5 138,-422.5 266,-422.5 266,-403.5 138,-403.5"/>
<text text-anchor="middle" x="202" y="-410.5" font-family="Helvetica,sans-Serif" font-size="10.00">odp/api/spec/random.h</text>
</a>
</g>
</g>
<!-- Node1&#45;&gt;Node3 -->
<g id="edge2" class="edge">
<title>Node1&#45;&gt;Node3</title>
<path fill="none" stroke="midnightblue" d="M142.41,-459.32C153.11,-451.18 169.34,-438.84 182.16,-429.09"/>
<polygon fill="midnightblue" stroke="midnightblue" points="184.54,-431.67 190.39,-422.83 180.31,-426.1 184.54,-431.67"/>
</g>
<!-- Node4 -->
<g id="node4" class="node">
<title>Node4</title>
<g id="a_node4"><a xlink:href="visibility__begin_8h_source.html" target="_top" xlink:title=" ">
<polygon fill="white" stroke="black" points="36.5,-0.5 36.5,-19.5 157.5,-19.5 157.5,-0.5 36.5,-0.5"/>
<text text-anchor="middle" x="97" y="-7.5" font-family="Helvetica,sans-Serif" font-size="10.00">odp/visibility_begin.h</text>
</a>
</g>
</g>
<!-- Node3&#45;&gt;Node4 -->
<g id="edge3" class="edge">
<title>Node3&#45;&gt;Node4</title>
<path fill="none" stroke="midnightblue" d="M156.19,-403.47C131.14,-396.92 100.85,-385.71 79,-367 51.8,-343.71 40,-332.31 40,-296.5 40,-296.5 40,-296.5 40,-121 40,-84.3 65.32,-47.66 82.21,-27.3"/>
<polygon fill="midnightblue" stroke="midnightblue" points="84.95,-29.48 88.83,-19.62 79.65,-24.9 84.95,-29.48"/>
</g>
<!-- Node5 -->
<g id="node5" class="node">
<title>Node5</title>
<g id="a_node5"><a xlink:href="random__types_8h.html" target="_top" xlink:title="ODP random number API.">
<polygon fill="white" stroke="black" points="88,-347.5 88,-366.5 222,-366.5 222,-347.5 88,-347.5"/>
<text text-anchor="middle" x="155" y="-354.5" font-family="Helvetica,sans-Serif" font-size="10.00">odp/api/random_types.h</text>
</a>
</g>
</g>
<!-- Node3&#45;&gt;Node5 -->
<g id="edge4" class="edge">
<title>Node3&#45;&gt;Node5</title>
<path fill="none" stroke="midnightblue" d="M194.24,-403.08C187.46,-395.3 177.46,-383.8 169.24,-374.37"/>
<polygon fill="midnightblue" stroke="midnightblue" points="171.82,-372 162.62,-366.75 166.54,-376.59 171.82,-372"/>
</g>
<!-- Node7 -->
<g id="node7" class="node">
<title>Node7</title>
<g id="a_node7"><a xlink:href="api_2std__types_8h.html" target="_top" xlink:title="Standard C language types and definitions for ODP.">
<polygon fill="white" stroke="black" points="154,-224.5 154,-243.5 266,-243.5 266,-224.5 154,-224.5"/>
<text text-anchor="middle" x="210" y="-231.5" font-family="Helvetica,sans-Serif" font-size="10.00">odp/api/std_types.h</text>
</a>
</g>
</g>
<!-- Node3&#45;&gt;Node7 -->
<g id="edge19" class="edge">
<title>Node3&#45;&gt;Node7</title>
<path fill="none" stroke="midnightblue" d="M209.67,-403.46C216.78,-394.93 226.85,-381.09 231,-367 242.69,-327.26 227.87,-278.77 217.82,-253.04"/>
<polygon fill="midnightblue" stroke="midnightblue" points="220.94,-251.42 213.9,-243.51 214.47,-254.08 220.94,-251.42"/>
</g>
<!-- Node14 -->
<g id="node14" class="node">
<title>Node14</title>
<g id="a_node14"><a xlink:href="visibility__end_8h_source.html" target="_top" xlink:title=" ">
<polygon fill="white" stroke="black" points="375,-0.5 375,-19.5 487,-19.5 487,-0.5 375,-0.5"/>
<text text-anchor="middle" x="431" y="-7.5" font-family="Helvetica,sans-Serif" font-size="10.00">odp/visibility_end.h</text>
</a>
</g>
</g>
<!-- Node3&#45;&gt;Node14 -->
<g id="edge20" class="edge">
<title>Node3&#45;&gt;Node14</title>
<path fill="none" stroke="midnightblue" d="M247.32,-403.46C327.96,-386.97 488,-347.77 488,-296.5 488,-296.5 488,-296.5 488,-121 488,-84.3 462.68,-47.66 445.79,-27.3"/>
<polygon fill="midnightblue" stroke="midnightblue" points="448.35,-24.9 439.17,-19.62 443.05,-29.48 448.35,-24.9"/>
</g>
<!-- Node6 -->
<g id="node6" class="node">
<title>Node6</title>
<g id="a_node6"><a xlink:href="spec_2random__types_8h.html" target="_top" xlink:title="ODP random number API.">
<polygon fill="white" stroke="black" points="98.5,-280.5 98.5,-310.5 217.5,-310.5 217.5,-280.5 98.5,-280.5"/>
<text text-anchor="start" x="106.5" y="-298.5" font-family="Helvetica,sans-Serif" font-size="10.00">odp/api/spec/random</text>
<text text-anchor="middle" x="158" y="-287.5" font-family="Helvetica,sans-Serif" font-size="10.00">_types.h</text>
</a>
</g>
</g>
<!-- Node5&#45;&gt;Node6 -->
<g id="edge5" class="edge">
<title>Node5&#45;&gt;Node6</title>
<path fill="none" stroke="midnightblue" d="M155.43,-347.48C155.78,-340.47 156.3,-330.19 156.78,-320.7"/>
<polygon fill="midnightblue" stroke="midnightblue" points="160.28,-320.69 157.29,-310.52 153.29,-320.33 160.28,-320.69"/>
</g>
<!-- Node6&#45;&gt;Node4 -->
<g id="edge6" class="edge">
<title>Node6&#45;&gt;Node4</title>
<path fill="none" stroke="midnightblue" d="M139.45,-280.29C115.81,-260.42 78,-221.93 78,-179 78,-179 78,-179 78,-121 78,-88.49 86.16,-51.35 91.78,-29.61"/>
<polygon fill="midnightblue" stroke="midnightblue" points="95.22,-30.32 94.44,-19.75 88.46,-28.5 95.22,-30.32"/>
</g>
<!-- Node6&#45;&gt;Node7 -->
<g id="edge7" class="edge">
<title>Node6&#45;&gt;Node7</title>
<path fill="none" stroke="midnightblue" d="M170.32,-280.4C177.96,-271.66 187.79,-260.41 195.76,-251.3"/>
<polygon fill="midnightblue" stroke="midnightblue" points="198.49,-253.49 202.43,-243.66 193.22,-248.88 198.49,-253.49"/>
</g>
<!-- Node6&#45;&gt;Node14 -->
<g id="edge18" class="edge">
<title>Node6&#45;&gt;Node14</title>
<path fill="none" stroke="midnightblue" d="M217.8,-283.42C303.22,-265.85 450,-228.47 450,-179 450,-179 450,-179 450,-121 450,-88.49 441.84,-51.35 436.22,-29.61"/>
<polygon fill="midnightblue" stroke="midnightblue" points="439.54,-28.5 433.56,-19.75 432.78,-30.32 439.54,-28.5"/>
</g>
<!-- Node8 -->
<g id="node8" class="node">
<title>Node8</title>
<g id="a_node8"><a xlink:title=" ">
<polygon fill="white" stroke="#bfbfbf" points="107,-168.5 107,-187.5 237,-187.5 237,-168.5 107,-168.5"/>
<text text-anchor="middle" x="172" y="-175.5" font-family="Helvetica,sans-Serif" font-size="10.00">odp/api/abi/std_types.h</text>
</a>
</g>
</g>
<!-- Node7&#45;&gt;Node8 -->
<g id="edge8" class="edge">
<title>Node7&#45;&gt;Node8</title>
<path fill="none" stroke="midnightblue" d="M203.73,-224.08C198.36,-216.46 190.48,-205.26 183.92,-195.94"/>
<polygon fill="midnightblue" stroke="midnightblue" points="186.78,-193.91 178.16,-187.75 181.05,-197.94 186.78,-193.91"/>
</g>
<!-- Node9 -->
<g id="node9" class="node">
<title>Node9</title>
<g id="a_node9"><a xlink:href="api_2spec_2std__types_8h.html" target="_top" xlink:title="Common types and definitions for ODP API files.">
<polygon fill="white" stroke="black" points="255.5,-168.5 255.5,-187.5 392.5,-187.5 392.5,-168.5 255.5,-168.5"/>
<text text-anchor="middle" x="324" y="-175.5" font-family="Helvetica,sans-Serif" font-size="10.00">odp/api/spec/std_types.h</text>
</a>
</g>
</g>
<!-- Node7&#45;&gt;Node9 -->
<g id="edge9" class="edge">
<title>Node7&#45;&gt;Node9</title>
<path fill="none" stroke="midnightblue" d="M228.06,-224.44C246.57,-215.68 275.58,-201.94 296.86,-191.86"/>
<polygon fill="midnightblue" stroke="midnightblue" points="298.48,-194.96 306.02,-187.52 295.49,-188.63 298.48,-194.96"/>
</g>
<!-- Node9&#45;&gt;Node4 -->
<g id="edge10" class="edge">
<title>Node9&#45;&gt;Node4</title>
<path fill="none" stroke="midnightblue" d="M290.71,-168.5C264.88,-161.07 228.76,-148.83 200,-132 167.09,-112.74 159.4,-105.3 135,-76 122.87,-61.43 112.29,-42.51 105.39,-28.84"/>
<polygon fill="midnightblue" stroke="midnightblue" points="108.4,-27.03 100.87,-19.57 102.11,-30.09 108.4,-27.03"/>
</g>
<!-- Node10 -->
<g id="node10" class="node">
<title>Node10</title>
<g id="a_node10"><a xlink:title=" ">
<polygon fill="white" stroke="#bfbfbf" points="209.5,-112.5 209.5,-131.5 262.5,-131.5 262.5,-112.5 209.5,-112.5"/>
<text text-anchor="middle" x="236" y="-119.5" font-family="Helvetica,sans-Serif" font-size="10.00">stdint.h</text>
</a>
</g>
</g>
<!-- Node9&#45;&gt;Node10 -->
<g id="edge11" class="edge">
<title>Node9&#45;&gt;Node10</title>
<path fill="none" stroke="midnightblue" d="M309.86,-168.32C296.13,-159.9 275.06,-146.97 258.94,-137.07"/>
<polygon fill="midnightblue" stroke="midnightblue" points="260.46,-133.9 250.1,-131.65 256.8,-139.87 260.46,-133.9"/>
</g>
<!-- Node11 -->
<g id="node11" class="node">
<title>Node11</title>
<g id="a_node11"><a xlink:href="api_2align_8h.html" target="_top" xlink:title="ODP alignments.">
<polygon fill="white" stroke="black" points="280.5,-112.5 280.5,-131.5 369.5,-131.5 369.5,-112.5 280.5,-112.5"/>
<text text-anchor="middle" x="325" y="-119.5" font-family="Helvetica,sans-Serif" font-size="10.00">odp/api/align.h</text>
</a>
</g>
</g>
<!-- Node9&#45;&gt;Node11 -->
<g id="edge12" class="edge">
<title>Node9&#45;&gt;Node11</title>
<path fill="none" stroke="midnightblue" d="M324.17,-168.08C324.3,-161.01 324.48,-150.86 324.65,-141.99"/>
<polygon fill="midnightblue" stroke="midnightblue" points="328.15,-141.81 324.84,-131.75 321.15,-141.68 328.15,-141.81"/>
</g>
<!-- Node9&#45;&gt;Node14 -->
<g id="edge17" class="edge">
<title>Node9&#45;&gt;Node14</title>
<path fill="none" stroke="midnightblue" d="M337.79,-168.49C349.99,-160.38 367.57,-147.18 379,-132 403.32,-99.7 418.85,-54.29 426.14,-29.29"/>
<polygon fill="midnightblue" stroke="midnightblue" points="429.51,-30.22 428.83,-19.64 422.77,-28.34 429.51,-30.22"/>
</g>
<!-- Node12 -->
<g id="node12" class="node">
<title>Node12</title>
<g id="a_node12"><a xlink:title=" ">
<polygon fill="white" stroke="#bfbfbf" points="144.5,-56.5 144.5,-75.5 251.5,-75.5 251.5,-56.5 144.5,-56.5"/>
<text text-anchor="middle" x="198" y="-63.5" font-family="Helvetica,sans-Serif" font-size="10.00">odp/api/abi/align.h</text>
</a>
</g>
</g>
<!-- Node11&#45;&gt;Node12 -->
<g id="edge13" class="edge">
<title>Node11&#45;&gt;Node12</title>
<path fill="none" stroke="midnightblue" d="M304.88,-112.44C283.98,-103.56 251.07,-89.56 227.28,-79.45"/>
<polygon fill="midnightblue" stroke="midnightblue" points="228.6,-76.21 218.03,-75.52 225.86,-82.65 228.6,-76.21"/>
</g>
<!-- Node13 -->
<g id="node13" class="node">
<title>Node13</title>
<g id="a_node13"><a xlink:href="api_2spec_2align_8h.html" target="_top" xlink:title="ODP alignments.">
<polygon fill="white" stroke="black" points="270,-56.5 270,-75.5 384,-75.5 384,-56.5 270,-56.5"/>
<text text-anchor="middle" x="327" y="-63.5" font-family="Helvetica,sans-Serif" font-size="10.00">odp/api/spec/align.h</text>
</a>
</g>
</g>
<!-- Node11&#45;&gt;Node13 -->
<g id="edge14" class="edge">
<title>Node11&#45;&gt;Node13</title>
<path fill="none" stroke="midnightblue" d="M325.33,-112.08C325.59,-105.01 325.97,-94.86 326.3,-85.99"/>
<polygon fill="midnightblue" stroke="midnightblue" points="329.8,-85.87 326.68,-75.75 322.81,-85.61 329.8,-85.87"/>
</g>
<!-- Node13&#45;&gt;Node4 -->
<g id="edge15" class="edge">
<title>Node13&#45;&gt;Node4</title>
<path fill="none" stroke="midnightblue" d="M290.56,-56.44C250.6,-47.06 186.41,-31.99 143.02,-21.8"/>
<polygon fill="midnightblue" stroke="midnightblue" points="143.81,-18.39 133.27,-19.52 142.21,-25.21 143.81,-18.39"/>
</g>
<!-- Node13&#45;&gt;Node14 -->
<g id="edge16" class="edge">
<title>Node13&#45;&gt;Node14</title>
<path fill="none" stroke="midnightblue" d="M343.71,-56.32C360.31,-47.7 386,-34.36 405.22,-24.39"/>
<polygon fill="midnightblue" stroke="midnightblue" points="407.07,-27.37 414.33,-19.65 403.84,-21.16 407.07,-27.37"/>
</g>
</g>
</svg>
