<?xml version="1.0" encoding="UTF-8" standalone="no"?>
<!DOCTYPE svg PUBLIC "-//W3C//DTD SVG 1.1//EN"
 "http://www.w3.org/Graphics/SVG/1.1/DTD/svg11.dtd">
<!-- Generated by graphviz version 2.43.0 (0)
 -->
<!-- Title: proto_stats_types.h Pages: 1 -->
<svg width="1112pt" height="868pt"
 viewBox="0.00 0.00 1111.50 868.00" xmlns="http://www.w3.org/2000/svg" xmlns:xlink="http://www.w3.org/1999/xlink">
<g id="graph0" class="graph" transform="scale(1 1) rotate(0) translate(4 864)">
<title>proto_stats_types.h</title>
<polygon fill="white" stroke="transparent" points="-4,4 -4,-864 1107.5,-864 1107.5,4 -4,4"/>
<!-- Node1 -->
<g id="node1" class="node">
<title>Node1</title>
<g id="a_node1"><a xlink:title="ODP proto stats types.">
<polygon fill="#bfbfbf" stroke="black" points="516,-840.5 516,-859.5 629,-859.5 629,-840.5 516,-840.5"/>
<text text-anchor="middle" x="572.5" y="-847.5" font-family="Helvetica,sans-Serif" font-size="10.00">proto_stats_types.h</text>
</a>
</g>
</g>
<!-- Node2 -->
<g id="node2" class="node">
<title>Node2</title>
<g id="a_node2"><a xlink:href="api_2spec_2packet_8h.html" target="_top" xlink:title="ODP packet descriptor.">
<polygon fill="white" stroke="black" points="617.5,-336.5 617.5,-355.5 675.5,-355.5 675.5,-336.5 617.5,-336.5"/>
<text text-anchor="middle" x="646.5" y="-343.5" font-family="Helvetica,sans-Serif" font-size="10.00">packet.h</text>
</a>
</g>
</g>
<!-- Node1&#45;&gt;Node2 -->
<g id="edge1" class="edge">
<title>Node1&#45;&gt;Node2</title>
<path fill="none" stroke="midnightblue" d="M574.23,-830.41C579.19,-778.57 594.34,-628.03 614.5,-504 623.74,-447.16 638.96,-379.59 644.45,-355.81"/>
<polygon fill="midnightblue" stroke="midnightblue" points="570.74,-830.14 573.29,-840.43 577.71,-830.8 570.74,-830.14"/>
</g>
<!-- Node5 -->
<g id="node5" class="node">
<title>Node5</title>
<g id="a_node5"><a xlink:href="api_2spec_2packet__types_8h.html" target="_top" xlink:title="ODP packet types.">
<polygon fill="white" stroke="black" points="385.5,-784.5 385.5,-803.5 475.5,-803.5 475.5,-784.5 385.5,-784.5"/>
<text text-anchor="middle" x="430.5" y="-791.5" font-family="Helvetica,sans-Serif" font-size="10.00">packet_types.h</text>
</a>
</g>
</g>
<!-- Node1&#45;&gt;Node5 -->
<g id="edge4" class="edge">
<title>Node1&#45;&gt;Node5</title>
<path fill="none" stroke="midnightblue" d="M540.34,-836.77C513.67,-826.63 476.43,-812.47 452.9,-803.52"/>
<polygon fill="midnightblue" stroke="midnightblue" points="539.41,-840.16 550,-840.44 541.9,-833.62 539.41,-840.16"/>
</g>
<!-- Node43 -->
<g id="node43" class="node">
<title>Node43</title>
<g id="a_node43"><a xlink:href="api_2spec_2proto__stats_8h.html" target="_top" xlink:title="ODP Proto Stats.">
<polygon fill="white" stroke="black" points="795.5,-784.5 795.5,-803.5 875.5,-803.5 875.5,-784.5 795.5,-784.5"/>
<text text-anchor="middle" x="835.5" y="-791.5" font-family="Helvetica,sans-Serif" font-size="10.00">proto_stats.h</text>
</a>
</g>
</g>
<!-- Node1&#45;&gt;Node43 -->
<g id="edge71" class="edge">
<title>Node1&#45;&gt;Node43</title>
<path fill="none" stroke="midnightblue" d="M624.17,-838.39C674.34,-828.09 749.46,-812.67 795.32,-803.25"/>
<polygon fill="midnightblue" stroke="midnightblue" points="623.26,-835 614.17,-840.44 624.67,-841.86 623.26,-835"/>
</g>
<!-- Node3 -->
<g id="node3" class="node">
<title>Node3</title>
<g id="a_node3"><a xlink:href="api_2packet_8h.html" target="_top" xlink:title="ODP packet descriptor.">
<polygon fill="white" stroke="black" points="617.5,-224.5 617.5,-243.5 675.5,-243.5 675.5,-224.5 617.5,-224.5"/>
<text text-anchor="middle" x="646.5" y="-231.5" font-family="Helvetica,sans-Serif" font-size="10.00">packet.h</text>
</a>
</g>
</g>
<!-- Node2&#45;&gt;Node3 -->
<g id="edge2" class="edge">
<title>Node2&#45;&gt;Node3</title>
<path fill="none" stroke="midnightblue" d="M646.5,-326.35C646.5,-302.25 646.5,-261.31 646.5,-243.59"/>
<polygon fill="midnightblue" stroke="midnightblue" points="643,-326.37 646.5,-336.37 650,-326.37 643,-326.37"/>
</g>
<!-- Node4 -->
<g id="node4" class="node">
<title>Node4</title>
<g id="a_node4"><a xlink:href="odp__api_8h.html" target="_top" xlink:title="The OpenDataPlane API.">
<polygon fill="white" stroke="black" points="614.5,-0.5 614.5,-19.5 678.5,-19.5 678.5,-0.5 614.5,-0.5"/>
<text text-anchor="middle" x="646.5" y="-7.5" font-family="Helvetica,sans-Serif" font-size="10.00">odp_api.h</text>
</a>
</g>
</g>
<!-- Node3&#45;&gt;Node4 -->
<g id="edge3" class="edge">
<title>Node3&#45;&gt;Node4</title>
<path fill="none" stroke="midnightblue" d="M646.5,-214.3C646.5,-168.64 646.5,-52.85 646.5,-19.88"/>
<polygon fill="midnightblue" stroke="midnightblue" points="643,-214.3 646.5,-224.3 650,-214.3 643,-214.3"/>
</g>
<!-- Node6 -->
<g id="node6" class="node">
<title>Node6</title>
<g id="a_node6"><a xlink:href="api_2packet__types_8h.html" target="_top" xlink:title="ODP packet.">
<polygon fill="white" stroke="black" points="315.5,-728.5 315.5,-747.5 405.5,-747.5 405.5,-728.5 315.5,-728.5"/>
<text text-anchor="middle" x="360.5" y="-735.5" font-family="Helvetica,sans-Serif" font-size="10.00">packet_types.h</text>
</a>
</g>
</g>
<!-- Node5&#45;&gt;Node6 -->
<g id="edge5" class="edge">
<title>Node5&#45;&gt;Node6</title>
<path fill="none" stroke="midnightblue" d="M411.19,-778.1C398.59,-768.38 382.57,-756.03 371.95,-747.83"/>
<polygon fill="midnightblue" stroke="midnightblue" points="409.2,-780.99 419.25,-784.32 413.47,-775.44 409.2,-780.99"/>
</g>
<!-- Node6&#45;&gt;Node2 -->
<g id="edge65" class="edge">
<title>Node6&#45;&gt;Node2</title>
<path fill="none" stroke="midnightblue" d="M376.67,-721.04C384.63,-712.75 394.08,-702.25 401.5,-692 492.18,-566.8 467.2,-500.3 577.5,-392 593.11,-376.67 614.71,-363.59 629.56,-355.55"/>
<polygon fill="midnightblue" stroke="midnightblue" points="374.13,-718.63 369.62,-728.21 379.13,-723.53 374.13,-718.63"/>
</g>
<!-- Node7 -->
<g id="node7" class="node">
<title>Node7</title>
<g id="a_node7"><a xlink:href="api_2spec_2comp_8h.html" target="_top" xlink:title="ODP Compression.">
<polygon fill="white" stroke="black" points="0,-672.5 0,-691.5 53,-691.5 53,-672.5 0,-672.5"/>
<text text-anchor="middle" x="26.5" y="-679.5" font-family="Helvetica,sans-Serif" font-size="10.00">comp.h</text>
</a>
</g>
</g>
<!-- Node6&#45;&gt;Node7 -->
<g id="edge6" class="edge">
<title>Node6&#45;&gt;Node7</title>
<path fill="none" stroke="midnightblue" d="M305.2,-729.58C246.16,-721.4 149.95,-707.36 67.5,-692 62.91,-691.15 58.06,-690.16 53.36,-689.15"/>
<polygon fill="midnightblue" stroke="midnightblue" points="305.04,-733.09 315.42,-730.99 306,-726.15 305.04,-733.09"/>
</g>
<!-- Node9 -->
<g id="node9" class="node">
<title>Node9</title>
<g id="a_node9"><a xlink:href="api_2spec_2crypto_8h.html" target="_top" xlink:title="ODP crypto.">
<polygon fill="white" stroke="black" points="54.5,-224.5 54.5,-243.5 110.5,-243.5 110.5,-224.5 54.5,-224.5"/>
<text text-anchor="middle" x="82.5" y="-231.5" font-family="Helvetica,sans-Serif" font-size="10.00">crypto.h</text>
</a>
</g>
</g>
<!-- Node6&#45;&gt;Node9 -->
<g id="edge9" class="edge">
<title>Node6&#45;&gt;Node9</title>
<path fill="none" stroke="midnightblue" d="M305.25,-733.61C239.56,-728.52 135.1,-716.72 105.5,-692 81.87,-672.26 81.5,-657.8 81.5,-627 81.5,-627 81.5,-627 81.5,-345 81.5,-307.19 82.1,-262.06 82.37,-243.56"/>
<polygon fill="midnightblue" stroke="midnightblue" points="305.2,-737.12 315.44,-734.37 305.72,-730.14 305.2,-737.12"/>
</g>
<!-- Node11 -->
<g id="node11" class="node">
<title>Node11</title>
<g id="a_node11"><a xlink:href="api_2spec_2crypto__types_8h.html" target="_top" xlink:title="ODP crypto types.">
<polygon fill="white" stroke="black" points="148,-448.5 148,-467.5 237,-467.5 237,-448.5 148,-448.5"/>
<text text-anchor="middle" x="192.5" y="-455.5" font-family="Helvetica,sans-Serif" font-size="10.00">crypto_types.h</text>
</a>
</g>
</g>
<!-- Node6&#45;&gt;Node11 -->
<g id="edge12" class="edge">
<title>Node6&#45;&gt;Node11</title>
<path fill="none" stroke="midnightblue" d="M317.13,-725.39C272.83,-710.59 210.5,-680.29 210.5,-627 210.5,-627 210.5,-627 210.5,-569 210.5,-530.88 199.84,-486.29 194.93,-467.76"/>
<polygon fill="midnightblue" stroke="midnightblue" points="316.25,-728.78 326.84,-728.48 318.37,-722.11 316.25,-728.78"/>
</g>
<!-- Node13 -->
<g id="node13" class="node">
<title>Node13</title>
<g id="a_node13"><a xlink:href="api_2spec_2ipsec_8h.html" target="_top" xlink:title="ODP IPsec API.">
<polygon fill="white" stroke="black" points="203,-112.5 203,-131.5 254,-131.5 254,-112.5 203,-112.5"/>
<text text-anchor="middle" x="228.5" y="-119.5" font-family="Helvetica,sans-Serif" font-size="10.00">ipsec.h</text>
</a>
</g>
</g>
<!-- Node6&#45;&gt;Node13 -->
<g id="edge64" class="edge">
<title>Node6&#45;&gt;Node13</title>
<path fill="none" stroke="midnightblue" d="M305.29,-735.26C234.14,-729.72 119.5,-708.21 119.5,-627 119.5,-627 119.5,-627 119.5,-345 119.5,-253.12 195.67,-159.72 220.66,-131.55"/>
<polygon fill="midnightblue" stroke="midnightblue" points="305.23,-738.76 315.45,-735.96 305.72,-731.78 305.23,-738.76"/>
</g>
<!-- Node17 -->
<g id="node17" class="node">
<title>Node17</title>
<g id="a_node17"><a xlink:href="api_2spec_2dma__types_8h.html" target="_top" xlink:title="ODP DMA.">
<polygon fill="white" stroke="black" points="464.5,-672.5 464.5,-691.5 544.5,-691.5 544.5,-672.5 464.5,-672.5"/>
<text text-anchor="middle" x="504.5" y="-679.5" font-family="Helvetica,sans-Serif" font-size="10.00">dma_types.h</text>
</a>
</g>
</g>
<!-- Node6&#45;&gt;Node17 -->
<g id="edge21" class="edge">
<title>Node6&#45;&gt;Node17</title>
<path fill="none" stroke="midnightblue" d="M392.75,-724.91C419.82,-714.75 457.82,-700.51 481.79,-691.52"/>
<polygon fill="midnightblue" stroke="midnightblue" points="391.45,-721.66 383.32,-728.44 393.91,-728.21 391.45,-721.66"/>
</g>
<!-- Node27 -->
<g id="node27" class="node">
<title>Node27</title>
<g id="a_node27"><a xlink:href="api_2spec_2packet__io_8h.html" target="_top" xlink:title="ODP Packet IO.">
<polygon fill="white" stroke="black" points="421.5,-224.5 421.5,-243.5 493.5,-243.5 493.5,-224.5 421.5,-224.5"/>
<text text-anchor="middle" x="457.5" y="-231.5" font-family="Helvetica,sans-Serif" font-size="10.00">packet_io.h</text>
</a>
</g>
</g>
<!-- Node6&#45;&gt;Node27 -->
<g id="edge69" class="edge">
<title>Node6&#45;&gt;Node27</title>
<path fill="none" stroke="midnightblue" d="M336.25,-723.09C308.11,-704.91 265.5,-670.26 265.5,-627 265.5,-627 265.5,-627 265.5,-401 265.5,-330.95 329.77,-341.09 386.5,-300 411.13,-282.16 436.63,-256.83 449.31,-243.68"/>
<polygon fill="midnightblue" stroke="midnightblue" points="334.47,-726.1 344.81,-728.4 338.16,-720.15 334.47,-726.1"/>
</g>
<!-- Node29 -->
<g id="node29" class="node">
<title>Node29</title>
<g id="a_node29"><a xlink:href="api_2spec_2event_8h.html" target="_top" xlink:title="ODP event.">
<polygon fill="white" stroke="black" points="434,-448.5 434,-467.5 487,-467.5 487,-448.5 434,-448.5"/>
<text text-anchor="middle" x="460.5" y="-455.5" font-family="Helvetica,sans-Serif" font-size="10.00">event.h</text>
</a>
</g>
</g>
<!-- Node6&#45;&gt;Node29 -->
<g id="edge63" class="edge">
<title>Node6&#45;&gt;Node29</title>
<path fill="none" stroke="midnightblue" d="M370.64,-719.43C381.9,-698.24 398.5,-661.19 398.5,-627 398.5,-627 398.5,-627 398.5,-569 398.5,-526.47 434.11,-485.23 451.35,-467.75"/>
<polygon fill="midnightblue" stroke="midnightblue" points="367.55,-717.78 365.78,-728.23 373.68,-721.17 367.55,-717.78"/>
</g>
<!-- Node33 -->
<g id="node33" class="node">
<title>Node33</title>
<g id="a_node33"><a xlink:href="api_2spec_2packet__io__types_8h.html" target="_top" xlink:title="ODP Packet IO types.">
<polygon fill="white" stroke="black" points="311.5,-448.5 311.5,-467.5 415.5,-467.5 415.5,-448.5 311.5,-448.5"/>
<text text-anchor="middle" x="363.5" y="-455.5" font-family="Helvetica,sans-Serif" font-size="10.00">packet_io_types.h</text>
</a>
</g>
</g>
<!-- Node6&#45;&gt;Node33 -->
<g id="edge70" class="edge">
<title>Node6&#45;&gt;Node33</title>
<path fill="none" stroke="midnightblue" d="M360.5,-718.25C360.5,-696.36 360.5,-659.05 360.5,-627 360.5,-627 360.5,-627 360.5,-569 360.5,-531.17 362.29,-486.06 363.11,-467.56"/>
<polygon fill="midnightblue" stroke="midnightblue" points="357,-718.44 360.5,-728.44 364,-718.44 357,-718.44"/>
</g>
<!-- Node41 -->
<g id="node41" class="node">
<title>Node41</title>
<g id="a_node41"><a xlink:href="api_2spec_2packet__flags_8h.html" target="_top" xlink:title="ODP packet flags.">
<polygon fill="white" stroke="black" points="776.5,-672.5 776.5,-691.5 862.5,-691.5 862.5,-672.5 776.5,-672.5"/>
<text text-anchor="middle" x="819.5" y="-679.5" font-family="Helvetica,sans-Serif" font-size="10.00">packet_flags.h</text>
</a>
</g>
</g>
<!-- Node6&#45;&gt;Node41 -->
<g id="edge66" class="edge">
<title>Node6&#45;&gt;Node41</title>
<path fill="none" stroke="midnightblue" d="M415.77,-730.5C508.27,-719.62 692.49,-697.94 776.25,-688.09"/>
<polygon fill="midnightblue" stroke="midnightblue" points="415.29,-727.03 405.77,-731.67 416.11,-733.98 415.29,-727.03"/>
</g>
<!-- Node8 -->
<g id="node8" class="node">
<title>Node8</title>
<g id="a_node8"><a xlink:href="api_2comp_8h.html" target="_top" xlink:title="ODP crypto.">
<polygon fill="white" stroke="black" points="0,-504.5 0,-523.5 53,-523.5 53,-504.5 0,-504.5"/>
<text text-anchor="middle" x="26.5" y="-511.5" font-family="Helvetica,sans-Serif" font-size="10.00">comp.h</text>
</a>
</g>
</g>
<!-- Node7&#45;&gt;Node8 -->
<g id="edge7" class="edge">
<title>Node7&#45;&gt;Node8</title>
<path fill="none" stroke="midnightblue" d="M26.5,-661.93C26.5,-625.92 26.5,-549.23 26.5,-523.57"/>
<polygon fill="midnightblue" stroke="midnightblue" points="23,-662.08 26.5,-672.08 30,-662.08 23,-662.08"/>
</g>
<!-- Node8&#45;&gt;Node4 -->
<g id="edge8" class="edge">
<title>Node8&#45;&gt;Node4</title>
<path fill="none" stroke="midnightblue" d="M26.5,-494.25C26.5,-472.36 26.5,-435.05 26.5,-403 26.5,-403 26.5,-403 26.5,-121 26.5,-54.81 96.74,-73.78 160.5,-56 246.51,-32.01 520.28,-17.02 614.38,-12.47"/>
<polygon fill="midnightblue" stroke="midnightblue" points="23,-494.44 26.5,-504.44 30,-494.44 23,-494.44"/>
</g>
<!-- Node10 -->
<g id="node10" class="node">
<title>Node10</title>
<g id="a_node10"><a xlink:href="api_2crypto_8h.html" target="_top" xlink:title="ODP crypto.">
<polygon fill="white" stroke="black" points="54.5,-168.5 54.5,-187.5 110.5,-187.5 110.5,-168.5 54.5,-168.5"/>
<text text-anchor="middle" x="82.5" y="-175.5" font-family="Helvetica,sans-Serif" font-size="10.00">crypto.h</text>
</a>
</g>
</g>
<!-- Node9&#45;&gt;Node10 -->
<g id="edge10" class="edge">
<title>Node9&#45;&gt;Node10</title>
<path fill="none" stroke="midnightblue" d="M82.5,-213.8C82.5,-204.91 82.5,-194.78 82.5,-187.75"/>
<polygon fill="midnightblue" stroke="midnightblue" points="79,-214.08 82.5,-224.08 86,-214.08 79,-214.08"/>
</g>
<!-- Node10&#45;&gt;Node4 -->
<g id="edge11" class="edge">
<title>Node10&#45;&gt;Node4</title>
<path fill="none" stroke="midnightblue" d="M92.67,-159.4C109.62,-131.91 146.5,-79.51 193.5,-56 267.54,-18.97 523.78,-12.41 614.42,-11.25"/>
<polygon fill="midnightblue" stroke="midnightblue" points="89.48,-157.92 87.34,-168.3 95.48,-161.52 89.48,-157.92"/>
</g>
<!-- Node12 -->
<g id="node12" class="node">
<title>Node12</title>
<g id="a_node12"><a xlink:href="api_2crypto__types_8h.html" target="_top" xlink:title="ODP crypto.">
<polygon fill="white" stroke="black" points="148,-280.5 148,-299.5 237,-299.5 237,-280.5 148,-280.5"/>
<text text-anchor="middle" x="192.5" y="-287.5" font-family="Helvetica,sans-Serif" font-size="10.00">crypto_types.h</text>
</a>
</g>
</g>
<!-- Node11&#45;&gt;Node12 -->
<g id="edge13" class="edge">
<title>Node11&#45;&gt;Node12</title>
<path fill="none" stroke="midnightblue" d="M192.5,-437.93C192.5,-401.92 192.5,-325.23 192.5,-299.57"/>
<polygon fill="midnightblue" stroke="midnightblue" points="189,-438.08 192.5,-448.08 196,-438.08 189,-438.08"/>
</g>
<!-- Node12&#45;&gt;Node9 -->
<g id="edge14" class="edge">
<title>Node12&#45;&gt;Node9</title>
<path fill="none" stroke="midnightblue" d="M165.74,-275.86C145.34,-265.85 117.83,-252.35 100.13,-243.65"/>
<polygon fill="midnightblue" stroke="midnightblue" points="164.31,-279.06 174.83,-280.32 167.39,-272.78 164.31,-279.06"/>
</g>
<!-- Node12&#45;&gt;Node13 -->
<g id="edge15" class="edge">
<title>Node12&#45;&gt;Node13</title>
<path fill="none" stroke="midnightblue" d="M194.86,-270.26C198.09,-246.32 204.5,-203.71 213.5,-168 216.76,-155.06 221.9,-140.48 225.24,-131.51"/>
<polygon fill="midnightblue" stroke="midnightblue" points="191.36,-270.03 193.54,-280.4 198.31,-270.94 191.36,-270.03"/>
</g>
<!-- Node15 -->
<g id="node15" class="node">
<title>Node15</title>
<g id="a_node15"><a xlink:href="api_2spec_2ipsec__types_8h.html" target="_top" xlink:title="ODP IPsec API type definitions.">
<polygon fill="white" stroke="black" points="224,-224.5 224,-243.5 307,-243.5 307,-224.5 224,-224.5"/>
<text text-anchor="middle" x="265.5" y="-231.5" font-family="Helvetica,sans-Serif" font-size="10.00">ipsec_types.h</text>
</a>
</g>
</g>
<!-- Node12&#45;&gt;Node15 -->
<g id="edge18" class="edge">
<title>Node12&#45;&gt;Node15</title>
<path fill="none" stroke="midnightblue" d="M212.64,-274.1C225.78,-264.38 242.48,-252.03 253.56,-243.83"/>
<polygon fill="midnightblue" stroke="midnightblue" points="210.19,-271.56 204.23,-280.32 214.35,-277.19 210.19,-271.56"/>
</g>
<!-- Node14 -->
<g id="node14" class="node">
<title>Node14</title>
<g id="a_node14"><a xlink:href="api_2ipsec_8h.html" target="_top" xlink:title="ODP IPSEC API &#45; platform specific header.">
<polygon fill="white" stroke="black" points="203,-56.5 203,-75.5 254,-75.5 254,-56.5 203,-56.5"/>
<text text-anchor="middle" x="228.5" y="-63.5" font-family="Helvetica,sans-Serif" font-size="10.00">ipsec.h</text>
</a>
</g>
</g>
<!-- Node13&#45;&gt;Node14 -->
<g id="edge16" class="edge">
<title>Node13&#45;&gt;Node14</title>
<path fill="none" stroke="midnightblue" d="M228.5,-101.8C228.5,-92.91 228.5,-82.78 228.5,-75.75"/>
<polygon fill="midnightblue" stroke="midnightblue" points="225,-102.08 228.5,-112.08 232,-102.08 225,-102.08"/>
</g>
<!-- Node14&#45;&gt;Node4 -->
<g id="edge17" class="edge">
<title>Node14&#45;&gt;Node4</title>
<path fill="none" stroke="midnightblue" d="M264.1,-60.4C344.2,-50.05 537.59,-25.07 614.34,-15.16"/>
<polygon fill="midnightblue" stroke="midnightblue" points="263.49,-56.95 254.02,-61.7 264.38,-63.89 263.49,-56.95"/>
</g>
<!-- Node16 -->
<g id="node16" class="node">
<title>Node16</title>
<g id="a_node16"><a xlink:href="api_2ipsec__types_8h.html" target="_top" xlink:title="ODP IPsec.">
<polygon fill="white" stroke="black" points="223,-168.5 223,-187.5 306,-187.5 306,-168.5 223,-168.5"/>
<text text-anchor="middle" x="264.5" y="-175.5" font-family="Helvetica,sans-Serif" font-size="10.00">ipsec_types.h</text>
</a>
</g>
</g>
<!-- Node15&#45;&gt;Node16 -->
<g id="edge19" class="edge">
<title>Node15&#45;&gt;Node16</title>
<path fill="none" stroke="midnightblue" d="M265.14,-213.8C264.98,-204.91 264.79,-194.78 264.66,-187.75"/>
<polygon fill="midnightblue" stroke="midnightblue" points="261.65,-214.15 265.33,-224.08 268.65,-214.02 261.65,-214.15"/>
</g>
<!-- Node16&#45;&gt;Node13 -->
<g id="edge20" class="edge">
<title>Node16&#45;&gt;Node13</title>
<path fill="none" stroke="midnightblue" d="M252.88,-159.57C246.68,-150.27 239.33,-139.25 234.33,-131.75"/>
<polygon fill="midnightblue" stroke="midnightblue" points="250.1,-161.7 258.56,-168.08 255.92,-157.82 250.1,-161.7"/>
</g>
<!-- Node18 -->
<g id="node18" class="node">
<title>Node18</title>
<g id="a_node18"><a xlink:href="api_2dma__types_8h.html" target="_top" xlink:title="ODP DMA.">
<polygon fill="white" stroke="black" points="623.5,-616.5 623.5,-635.5 703.5,-635.5 703.5,-616.5 623.5,-616.5"/>
<text text-anchor="middle" x="663.5" y="-623.5" font-family="Helvetica,sans-Serif" font-size="10.00">dma_types.h</text>
</a>
</g>
</g>
<!-- Node17&#45;&gt;Node18 -->
<g id="edge22" class="edge">
<title>Node17&#45;&gt;Node18</title>
<path fill="none" stroke="midnightblue" d="M539.33,-669.17C569.27,-659 611.72,-644.59 638.42,-635.52"/>
<polygon fill="midnightblue" stroke="midnightblue" points="538.04,-665.91 529.69,-672.44 540.29,-672.54 538.04,-665.91"/>
</g>
<!-- Node19 -->
<g id="node19" class="node">
<title>Node19</title>
<g id="a_node19"><a xlink:href="api_2spec_2dma_8h.html" target="_top" xlink:title="ODP DMA.">
<polygon fill="white" stroke="black" points="920,-448.5 920,-467.5 967,-467.5 967,-448.5 920,-448.5"/>
<text text-anchor="middle" x="943.5" y="-455.5" font-family="Helvetica,sans-Serif" font-size="10.00">dma.h</text>
</a>
</g>
</g>
<!-- Node18&#45;&gt;Node19 -->
<g id="edge23" class="edge">
<title>Node18&#45;&gt;Node19</title>
<path fill="none" stroke="midnightblue" d="M687.01,-611.06C743.1,-577.81 883.45,-494.6 928.99,-467.61"/>
<polygon fill="midnightblue" stroke="midnightblue" points="684.98,-608.2 678.16,-616.31 688.55,-614.22 684.98,-608.2"/>
</g>
<!-- Node21 -->
<g id="node21" class="node">
<title>Node21</title>
<g id="a_node21"><a xlink:href="api_2spec_2pool__types_8h.html" target="_top" xlink:title="Type definitions for pools.">
<polygon fill="white" stroke="black" points="624,-560.5 624,-579.5 703,-579.5 703,-560.5 624,-560.5"/>
<text text-anchor="middle" x="663.5" y="-567.5" font-family="Helvetica,sans-Serif" font-size="10.00">pool_types.h</text>
</a>
</g>
</g>
<!-- Node18&#45;&gt;Node21 -->
<g id="edge26" class="edge">
<title>Node18&#45;&gt;Node21</title>
<path fill="none" stroke="midnightblue" d="M663.5,-605.8C663.5,-596.91 663.5,-586.78 663.5,-579.75"/>
<polygon fill="midnightblue" stroke="midnightblue" points="660,-606.08 663.5,-616.08 667,-606.08 660,-606.08"/>
</g>
<!-- Node20 -->
<g id="node20" class="node">
<title>Node20</title>
<g id="a_node20"><a xlink:href="api_2dma_8h.html" target="_top" xlink:title="ODP DMA.">
<polygon fill="white" stroke="black" points="894,-56.5 894,-75.5 941,-75.5 941,-56.5 894,-56.5"/>
<text text-anchor="middle" x="917.5" y="-63.5" font-family="Helvetica,sans-Serif" font-size="10.00">dma.h</text>
</a>
</g>
</g>
<!-- Node19&#45;&gt;Node20 -->
<g id="edge24" class="edge">
<title>Node19&#45;&gt;Node20</title>
<path fill="none" stroke="midnightblue" d="M937.01,-438.79C929.9,-417.18 919.5,-379.94 919.5,-347 919.5,-347 919.5,-347 919.5,-177 919.5,-139.18 918.3,-94.06 917.76,-75.56"/>
<polygon fill="midnightblue" stroke="midnightblue" points="933.72,-439.97 940.26,-448.3 940.34,-437.71 933.72,-439.97"/>
</g>
<!-- Node20&#45;&gt;Node4 -->
<g id="edge25" class="edge">
<title>Node20&#45;&gt;Node4</title>
<path fill="none" stroke="midnightblue" d="M883.84,-57.35C881.69,-56.89 879.57,-56.43 877.5,-56 806.72,-41.15 723.39,-25.32 678.7,-16.97"/>
<polygon fill="midnightblue" stroke="midnightblue" points="883.32,-60.82 893.84,-59.56 884.82,-53.99 883.32,-60.82"/>
</g>
<!-- Node22 -->
<g id="node22" class="node">
<title>Node22</title>
<g id="a_node22"><a xlink:href="api_2pool__types_8h.html" target="_top" xlink:title="ODP pool.">
<polygon fill="white" stroke="black" points="624,-504.5 624,-523.5 703,-523.5 703,-504.5 624,-504.5"/>
<text text-anchor="middle" x="663.5" y="-511.5" font-family="Helvetica,sans-Serif" font-size="10.00">pool_types.h</text>
</a>
</g>
</g>
<!-- Node21&#45;&gt;Node22 -->
<g id="edge27" class="edge">
<title>Node21&#45;&gt;Node22</title>
<path fill="none" stroke="midnightblue" d="M663.5,-549.8C663.5,-540.91 663.5,-530.78 663.5,-523.75"/>
<polygon fill="midnightblue" stroke="midnightblue" points="660,-550.08 663.5,-560.08 667,-550.08 660,-550.08"/>
</g>
<!-- Node22&#45;&gt;Node2 -->
<g id="edge46" class="edge">
<title>Node22&#45;&gt;Node2</title>
<path fill="none" stroke="midnightblue" d="M656.02,-494.77C653.08,-486.71 650.04,-477.03 648.5,-468 641.39,-426.37 644.21,-375.52 645.75,-355.59"/>
<polygon fill="midnightblue" stroke="midnightblue" points="652.81,-496.18 659.69,-504.24 659.34,-493.65 652.81,-496.18"/>
</g>
<!-- Node22&#45;&gt;Node11 -->
<g id="edge38" class="edge">
<title>Node22&#45;&gt;Node11</title>
<path fill="none" stroke="midnightblue" d="M613.55,-507.27C521.21,-496.69 325.23,-474.22 237.08,-464.11"/>
<polygon fill="midnightblue" stroke="midnightblue" points="613.42,-510.78 623.75,-508.44 614.21,-503.83 613.42,-510.78"/>
</g>
<!-- Node22&#45;&gt;Node19 -->
<g id="edge39" class="edge">
<title>Node22&#45;&gt;Node19</title>
<path fill="none" stroke="midnightblue" d="M713.21,-505.4C763.48,-497.38 843.29,-483.74 911.5,-468 914.2,-467.38 917.01,-466.67 919.8,-465.94"/>
<polygon fill="midnightblue" stroke="midnightblue" points="712.58,-501.96 703.25,-506.98 713.68,-508.87 712.58,-501.96"/>
</g>
<!-- Node23 -->
<g id="node23" class="node">
<title>Node23</title>
<g id="a_node23"><a xlink:href="api_2spec_2buffer_8h.html" target="_top" xlink:title="ODP buffer.">
<polygon fill="white" stroke="black" points="727,-448.5 727,-467.5 780,-467.5 780,-448.5 727,-448.5"/>
<text text-anchor="middle" x="753.5" y="-455.5" font-family="Helvetica,sans-Serif" font-size="10.00">buffer.h</text>
</a>
</g>
</g>
<!-- Node22&#45;&gt;Node23 -->
<g id="edge28" class="edge">
<title>Node22&#45;&gt;Node23</title>
<path fill="none" stroke="midnightblue" d="M686.54,-499.18C703.1,-489.24 724.92,-476.15 739.08,-467.65"/>
<polygon fill="midnightblue" stroke="midnightblue" points="684.73,-496.18 677.96,-504.32 688.34,-502.18 684.73,-496.18"/>
</g>
<!-- Node25 -->
<g id="node25" class="node">
<title>Node25</title>
<g id="a_node25"><a xlink:href="api_2spec_2classification_8h.html" target="_top" xlink:title="ODP classification descriptor.">
<polygon fill="white" stroke="black" points="472,-336.5 472,-355.5 561,-355.5 561,-336.5 472,-336.5"/>
<text text-anchor="middle" x="516.5" y="-343.5" font-family="Helvetica,sans-Serif" font-size="10.00">classification.h</text>
</a>
</g>
</g>
<!-- Node22&#45;&gt;Node25 -->
<g id="edge31" class="edge">
<title>Node22&#45;&gt;Node25</title>
<path fill="none" stroke="midnightblue" d="M648.63,-496.21C617.69,-461.26 547.31,-381.79 524.09,-355.57"/>
<polygon fill="midnightblue" stroke="midnightblue" points="646.35,-498.91 655.6,-504.08 651.59,-494.27 646.35,-498.91"/>
</g>
<!-- Node22&#45;&gt;Node29 -->
<g id="edge40" class="edge">
<title>Node22&#45;&gt;Node29</title>
<path fill="none" stroke="midnightblue" d="M621.51,-501.83C581.09,-491.08 521.21,-475.15 487.02,-466.05"/>
<polygon fill="midnightblue" stroke="midnightblue" points="620.77,-505.26 631.33,-504.44 622.57,-498.49 620.77,-505.26"/>
</g>
<!-- Node31 -->
<g id="node31" class="node">
<title>Node31</title>
<g id="a_node31"><a xlink:href="spec_2ml_8h.html" target="_top" xlink:title="ODP Machine Learning (ML) offload.">
<polygon fill="white" stroke="black" points="798.5,-448.5 798.5,-467.5 836.5,-467.5 836.5,-448.5 798.5,-448.5"/>
<text text-anchor="middle" x="817.5" y="-455.5" font-family="Helvetica,sans-Serif" font-size="10.00">ml.h</text>
</a>
</g>
</g>
<!-- Node22&#45;&gt;Node31 -->
<g id="edge43" class="edge">
<title>Node22&#45;&gt;Node31</title>
<path fill="none" stroke="midnightblue" d="M697.41,-501.11C728.3,-490.28 772.83,-474.66 798.09,-465.81"/>
<polygon fill="midnightblue" stroke="midnightblue" points="696.18,-497.83 687.9,-504.44 698.5,-504.44 696.18,-497.83"/>
</g>
<!-- Node22&#45;&gt;Node33 -->
<g id="edge47" class="edge">
<title>Node22&#45;&gt;Node33</title>
<path fill="none" stroke="midnightblue" d="M613.87,-504.07C557.49,-493.92 466.16,-477.48 410.78,-467.51"/>
<polygon fill="midnightblue" stroke="midnightblue" points="613.51,-507.56 623.97,-505.88 614.75,-500.67 613.51,-507.56"/>
</g>
<!-- Node37 -->
<g id="node37" class="node">
<title>Node37</title>
<g id="a_node37"><a xlink:href="api_2spec_2pool_8h.html" target="_top" xlink:title="ODP pool.">
<polygon fill="white" stroke="black" points="855,-448.5 855,-467.5 902,-467.5 902,-448.5 855,-448.5"/>
<text text-anchor="middle" x="878.5" y="-455.5" font-family="Helvetica,sans-Serif" font-size="10.00">pool.h</text>
</a>
</g>
</g>
<!-- Node22&#45;&gt;Node37 -->
<g id="edge57" class="edge">
<title>Node22&#45;&gt;Node37</title>
<path fill="none" stroke="midnightblue" d="M709.08,-502.05C745.94,-493.12 799.14,-480.05 845.5,-468 848.49,-467.22 851.62,-466.39 854.73,-465.56"/>
<polygon fill="midnightblue" stroke="midnightblue" points="708.03,-498.7 699.14,-504.46 709.68,-505.51 708.03,-498.7"/>
</g>
<!-- Node39 -->
<g id="node39" class="node">
<title>Node39</title>
<g id="a_node39"><a xlink:href="api_2spec_2timer_8h.html" target="_top" xlink:title="ODP timer service.">
<polygon fill="white" stroke="black" points="658,-448.5 658,-467.5 709,-467.5 709,-448.5 658,-448.5"/>
<text text-anchor="middle" x="683.5" y="-455.5" font-family="Helvetica,sans-Serif" font-size="10.00">timer.h</text>
</a>
</g>
</g>
<!-- Node22&#45;&gt;Node39 -->
<g id="edge60" class="edge">
<title>Node22&#45;&gt;Node39</title>
<path fill="none" stroke="midnightblue" d="M670.28,-494.69C673.65,-485.59 677.57,-475.01 680.26,-467.75"/>
<polygon fill="midnightblue" stroke="midnightblue" points="666.99,-493.49 666.8,-504.08 673.56,-495.92 666.99,-493.49"/>
</g>
<!-- Node24 -->
<g id="node24" class="node">
<title>Node24</title>
<g id="a_node24"><a xlink:href="api_2buffer_8h.html" target="_top" xlink:title="ODP buffer descriptor.">
<polygon fill="white" stroke="black" points="732,-112.5 732,-131.5 785,-131.5 785,-112.5 732,-112.5"/>
<text text-anchor="middle" x="758.5" y="-119.5" font-family="Helvetica,sans-Serif" font-size="10.00">buffer.h</text>
</a>
</g>
</g>
<!-- Node23&#45;&gt;Node24 -->
<g id="edge29" class="edge">
<title>Node23&#45;&gt;Node24</title>
<path fill="none" stroke="midnightblue" d="M754.05,-438.25C754.64,-416.36 755.5,-379.06 755.5,-347 755.5,-347 755.5,-347 755.5,-233 755.5,-195.17 757.29,-150.06 758.11,-131.56"/>
<polygon fill="midnightblue" stroke="midnightblue" points="750.54,-438.35 753.76,-448.44 757.54,-438.55 750.54,-438.35"/>
</g>
<!-- Node24&#45;&gt;Node4 -->
<g id="edge30" class="edge">
<title>Node24&#45;&gt;Node4</title>
<path fill="none" stroke="midnightblue" d="M749.98,-103.08C742.73,-89.11 731.3,-69.83 717.5,-56 701.93,-40.4 680.03,-27.55 664.68,-19.63"/>
<polygon fill="midnightblue" stroke="midnightblue" points="746.91,-104.76 754.5,-112.16 753.18,-101.64 746.91,-104.76"/>
</g>
<!-- Node26 -->
<g id="node26" class="node">
<title>Node26</title>
<g id="a_node26"><a xlink:href="api_2classification_8h.html" target="_top" xlink:title="ODP classification descriptor.">
<polygon fill="white" stroke="black" points="472,-280.5 472,-299.5 561,-299.5 561,-280.5 472,-280.5"/>
<text text-anchor="middle" x="516.5" y="-287.5" font-family="Helvetica,sans-Serif" font-size="10.00">classification.h</text>
</a>
</g>
</g>
<!-- Node25&#45;&gt;Node26 -->
<g id="edge32" class="edge">
<title>Node25&#45;&gt;Node26</title>
<path fill="none" stroke="midnightblue" d="M516.5,-325.8C516.5,-316.91 516.5,-306.78 516.5,-299.75"/>
<polygon fill="midnightblue" stroke="midnightblue" points="513,-326.08 516.5,-336.08 520,-326.08 513,-326.08"/>
</g>
<!-- Node26&#45;&gt;Node4 -->
<g id="edge37" class="edge">
<title>Node26&#45;&gt;Node4</title>
<path fill="none" stroke="midnightblue" d="M518.97,-270.29C521.63,-248.43 525.5,-211.16 525.5,-179 525.5,-179 525.5,-179 525.5,-121 525.5,-89.37 532.53,-78.76 554.5,-56 571.54,-38.35 596.94,-26.65 616.74,-19.62"/>
<polygon fill="midnightblue" stroke="midnightblue" points="515.46,-270.1 517.68,-280.46 522.41,-270.98 515.46,-270.1"/>
</g>
<!-- Node26&#45;&gt;Node15 -->
<g id="edge33" class="edge">
<title>Node26&#45;&gt;Node15</title>
<path fill="none" stroke="midnightblue" d="M466.68,-278.28C419.25,-268.08 348.8,-252.92 305.09,-243.52"/>
<polygon fill="midnightblue" stroke="midnightblue" points="466.22,-281.76 476.73,-280.44 467.69,-274.92 466.22,-281.76"/>
</g>
<!-- Node26&#45;&gt;Node27 -->
<g id="edge34" class="edge">
<title>Node26&#45;&gt;Node27</title>
<path fill="none" stroke="midnightblue" d="M499.61,-273.54C489.09,-263.91 475.93,-251.87 467.15,-243.83"/>
<polygon fill="midnightblue" stroke="midnightblue" points="497.28,-276.15 507.02,-280.32 502.01,-270.99 497.28,-276.15"/>
</g>
<!-- Node28 -->
<g id="node28" class="node">
<title>Node28</title>
<g id="a_node28"><a xlink:href="api_2packet__io_8h.html" target="_top" xlink:title="ODP Packet IO.">
<polygon fill="white" stroke="black" points="423.5,-168.5 423.5,-187.5 495.5,-187.5 495.5,-168.5 423.5,-168.5"/>
<text text-anchor="middle" x="459.5" y="-175.5" font-family="Helvetica,sans-Serif" font-size="10.00">packet_io.h</text>
</a>
</g>
</g>
<!-- Node27&#45;&gt;Node28 -->
<g id="edge35" class="edge">
<title>Node27&#45;&gt;Node28</title>
<path fill="none" stroke="midnightblue" d="M458.21,-213.8C458.54,-204.91 458.92,-194.78 459.18,-187.75"/>
<polygon fill="midnightblue" stroke="midnightblue" points="454.7,-213.96 457.83,-224.08 461.7,-214.22 454.7,-213.96"/>
</g>
<!-- Node28&#45;&gt;Node4 -->
<g id="edge36" class="edge">
<title>Node28&#45;&gt;Node4</title>
<path fill="none" stroke="midnightblue" d="M462.57,-158.43C467.89,-132.02 481.31,-83.76 511.5,-56 540.06,-29.75 584.36,-18.77 614.36,-14.21"/>
<polygon fill="midnightblue" stroke="midnightblue" points="459.13,-157.82 460.76,-168.28 466.01,-159.08 459.13,-157.82"/>
</g>
<!-- Node30 -->
<g id="node30" class="node">
<title>Node30</title>
<g id="a_node30"><a xlink:href="api_2event_8h.html" target="_top" xlink:title="ODP event.">
<polygon fill="white" stroke="black" points="564,-56.5 564,-75.5 617,-75.5 617,-56.5 564,-56.5"/>
<text text-anchor="middle" x="590.5" y="-63.5" font-family="Helvetica,sans-Serif" font-size="10.00">event.h</text>
</a>
</g>
</g>
<!-- Node29&#45;&gt;Node30 -->
<g id="edge41" class="edge">
<title>Node29&#45;&gt;Node30</title>
<path fill="none" stroke="midnightblue" d="M478.94,-441.94C506.6,-419.04 556.94,-375.99 569.5,-356 585.58,-330.41 589.5,-321.23 589.5,-291 589.5,-291 589.5,-291 589.5,-177 589.5,-139.19 590.1,-94.06 590.37,-75.56"/>
<polygon fill="midnightblue" stroke="midnightblue" points="476.65,-439.3 471.15,-448.36 481.1,-444.7 476.65,-439.3"/>
</g>
<!-- Node30&#45;&gt;Node4 -->
<g id="edge42" class="edge">
<title>Node30&#45;&gt;Node4</title>
<path fill="none" stroke="midnightblue" d="M606.83,-49.25C616.76,-39.67 629.09,-27.79 637.34,-19.83"/>
<polygon fill="midnightblue" stroke="midnightblue" points="604.27,-46.86 599.5,-56.32 609.13,-51.9 604.27,-46.86"/>
</g>
<!-- Node32 -->
<g id="node32" class="node">
<title>Node32</title>
<g id="a_node32"><a xlink:href="ml_8h.html" target="_top" xlink:title="ODP Machine Learning (ML) offload.">
<polygon fill="white" stroke="black" points="794.5,-336.5 794.5,-355.5 832.5,-355.5 832.5,-336.5 794.5,-336.5"/>
<text text-anchor="middle" x="813.5" y="-343.5" font-family="Helvetica,sans-Serif" font-size="10.00">ml.h</text>
</a>
</g>
</g>
<!-- Node31&#45;&gt;Node32 -->
<g id="edge44" class="edge">
<title>Node31&#45;&gt;Node32</title>
<path fill="none" stroke="midnightblue" d="M816.82,-438.35C815.95,-414.25 814.46,-373.31 813.81,-355.59"/>
<polygon fill="midnightblue" stroke="midnightblue" points="813.32,-438.5 817.19,-448.37 820.32,-438.25 813.32,-438.5"/>
</g>
<!-- Node32&#45;&gt;Node4 -->
<g id="edge45" class="edge">
<title>Node32&#45;&gt;Node4</title>
<path fill="none" stroke="midnightblue" d="M813.5,-326.25C813.5,-304.36 813.5,-267.05 813.5,-235 813.5,-235 813.5,-235 813.5,-121 813.5,-57.12 727.23,-28.24 678.7,-17.05"/>
<polygon fill="midnightblue" stroke="midnightblue" points="810,-326.44 813.5,-336.44 817,-326.44 810,-326.44"/>
</g>
<!-- Node34 -->
<g id="node34" class="node">
<title>Node34</title>
<g id="a_node34"><a xlink:href="api_2packet__io__types_8h.html" target="_top" xlink:title="ODP Packet IO.">
<polygon fill="white" stroke="black" points="333.5,-392.5 333.5,-411.5 437.5,-411.5 437.5,-392.5 333.5,-392.5"/>
<text text-anchor="middle" x="385.5" y="-399.5" font-family="Helvetica,sans-Serif" font-size="10.00">packet_io_types.h</text>
</a>
</g>
</g>
<!-- Node33&#45;&gt;Node34 -->
<g id="edge48" class="edge">
<title>Node33&#45;&gt;Node34</title>
<path fill="none" stroke="midnightblue" d="M370.96,-438.69C374.67,-429.59 378.98,-419.01 381.93,-411.75"/>
<polygon fill="midnightblue" stroke="midnightblue" points="367.66,-437.5 367.13,-448.08 374.15,-440.14 367.66,-437.5"/>
</g>
<!-- Node34&#45;&gt;Node2 -->
<g id="edge51" class="edge">
<title>Node34&#45;&gt;Node2</title>
<path fill="none" stroke="midnightblue" d="M436.91,-390.36C490.9,-379.19 573.87,-362.03 617.46,-353.01"/>
<polygon fill="midnightblue" stroke="midnightblue" points="435.94,-386.99 426.86,-392.44 437.36,-393.84 435.94,-386.99"/>
</g>
<!-- Node34&#45;&gt;Node15 -->
<g id="edge50" class="edge">
<title>Node34&#45;&gt;Node15</title>
<path fill="none" stroke="midnightblue" d="M362.03,-387.1C349.47,-378.98 334.21,-368 322.5,-356 301.49,-334.48 297.32,-327.21 284.5,-300 275.48,-280.86 269.75,-256.5 267.14,-243.72"/>
<polygon fill="midnightblue" stroke="midnightblue" points="360.28,-390.13 370.61,-392.47 364,-384.2 360.28,-390.13"/>
</g>
<!-- Node34&#45;&gt;Node25 -->
<g id="edge49" class="edge">
<title>Node34&#45;&gt;Node25</title>
<path fill="none" stroke="midnightblue" d="M415.82,-388.5C440.38,-378.38 474.32,-364.39 495.84,-355.52"/>
<polygon fill="midnightblue" stroke="midnightblue" points="414.17,-385.4 406.26,-392.44 416.84,-391.87 414.17,-385.4"/>
</g>
<!-- Node34&#45;&gt;Node27 -->
<g id="edge52" class="edge">
<title>Node34&#45;&gt;Node27</title>
<path fill="none" stroke="midnightblue" d="M402.47,-385.05C410.17,-376.99 418.81,-366.67 424.5,-356 445.21,-317.2 453.78,-264.29 456.48,-243.7"/>
<polygon fill="midnightblue" stroke="midnightblue" points="399.83,-382.74 395.23,-392.28 404.78,-387.69 399.83,-382.74"/>
</g>
<!-- Node35 -->
<g id="node35" class="node">
<title>Node35</title>
<g id="a_node35"><a xlink:href="api_2spec_2traffic__mngr_8h.html" target="_top" xlink:title=" ">
<polygon fill="white" stroke="black" points="331.5,-336.5 331.5,-355.5 415.5,-355.5 415.5,-336.5 331.5,-336.5"/>
<text text-anchor="middle" x="373.5" y="-343.5" font-family="Helvetica,sans-Serif" font-size="10.00">traffic_mngr.h</text>
</a>
</g>
</g>
<!-- Node34&#45;&gt;Node35 -->
<g id="edge53" class="edge">
<title>Node34&#45;&gt;Node35</title>
<path fill="none" stroke="midnightblue" d="M381.3,-382.1C379.31,-373.14 377.02,-362.86 375.44,-355.75"/>
<polygon fill="midnightblue" stroke="midnightblue" points="377.93,-383.08 383.52,-392.08 384.77,-381.56 377.93,-383.08"/>
</g>
<!-- Node36 -->
<g id="node36" class="node">
<title>Node36</title>
<g id="a_node36"><a xlink:href="api_2traffic__mngr_8h.html" target="_top" xlink:title="ODP Traffic manager.">
<polygon fill="white" stroke="black" points="293.5,-280.5 293.5,-299.5 377.5,-299.5 377.5,-280.5 293.5,-280.5"/>
<text text-anchor="middle" x="335.5" y="-287.5" font-family="Helvetica,sans-Serif" font-size="10.00">traffic_mngr.h</text>
</a>
</g>
</g>
<!-- Node35&#45;&gt;Node36 -->
<g id="edge54" class="edge">
<title>Node35&#45;&gt;Node36</title>
<path fill="none" stroke="midnightblue" d="M361.44,-327.86C354.86,-318.5 346.99,-307.33 341.66,-299.75"/>
<polygon fill="midnightblue" stroke="midnightblue" points="358.61,-329.92 367.23,-336.08 364.33,-325.89 358.61,-329.92"/>
</g>
<!-- Node36&#45;&gt;Node4 -->
<g id="edge56" class="edge">
<title>Node36&#45;&gt;Node4</title>
<path fill="none" stroke="midnightblue" d="M342.53,-270.83C350.23,-249.27 361.5,-212.07 361.5,-179 361.5,-179 361.5,-179 361.5,-121 361.5,-67.3 539.83,-29.73 614.36,-16.37"/>
<polygon fill="midnightblue" stroke="midnightblue" points="339.21,-269.73 339.01,-280.32 345.77,-272.17 339.21,-269.73"/>
</g>
<!-- Node36&#45;&gt;Node15 -->
<g id="edge55" class="edge">
<title>Node36&#45;&gt;Node15</title>
<path fill="none" stroke="midnightblue" d="M316.19,-274.1C303.59,-264.38 287.57,-252.03 276.95,-243.83"/>
<polygon fill="midnightblue" stroke="midnightblue" points="314.2,-276.99 324.25,-280.32 318.47,-271.44 314.2,-276.99"/>
</g>
<!-- Node38 -->
<g id="node38" class="node">
<title>Node38</title>
<g id="a_node38"><a xlink:href="api_2pool_8h.html" target="_top" xlink:title="ODP pool.">
<polygon fill="white" stroke="black" points="843,-392.5 843,-411.5 890,-411.5 890,-392.5 843,-392.5"/>
<text text-anchor="middle" x="866.5" y="-399.5" font-family="Helvetica,sans-Serif" font-size="10.00">pool.h</text>
</a>
</g>
</g>
<!-- Node37&#45;&gt;Node38 -->
<g id="edge58" class="edge">
<title>Node37&#45;&gt;Node38</title>
<path fill="none" stroke="midnightblue" d="M874.3,-438.1C872.31,-429.14 870.02,-418.86 868.44,-411.75"/>
<polygon fill="midnightblue" stroke="midnightblue" points="870.93,-439.08 876.52,-448.08 877.77,-437.56 870.93,-439.08"/>
</g>
<!-- Node38&#45;&gt;Node4 -->
<g id="edge59" class="edge">
<title>Node38&#45;&gt;Node4</title>
<path fill="none" stroke="midnightblue" d="M865.68,-382.26C864.79,-360.37 863.5,-323.06 863.5,-291 863.5,-291 863.5,-291 863.5,-121 863.5,-39.06 738.88,-18.14 678.52,-12.81"/>
<polygon fill="midnightblue" stroke="midnightblue" points="862.19,-382.6 866.11,-392.44 869.18,-382.31 862.19,-382.6"/>
</g>
<!-- Node40 -->
<g id="node40" class="node">
<title>Node40</title>
<g id="a_node40"><a xlink:href="api_2timer_8h.html" target="_top" xlink:title="ODP timer service.">
<polygon fill="white" stroke="black" points="668,-392.5 668,-411.5 719,-411.5 719,-392.5 668,-392.5"/>
<text text-anchor="middle" x="693.5" y="-399.5" font-family="Helvetica,sans-Serif" font-size="10.00">timer.h</text>
</a>
</g>
</g>
<!-- Node39&#45;&gt;Node40 -->
<g id="edge61" class="edge">
<title>Node39&#45;&gt;Node40</title>
<path fill="none" stroke="midnightblue" d="M687,-438.1C688.66,-429.14 690.56,-418.86 691.88,-411.75"/>
<polygon fill="midnightblue" stroke="midnightblue" points="683.53,-437.61 685.15,-448.08 690.41,-438.89 683.53,-437.61"/>
</g>
<!-- Node40&#45;&gt;Node4 -->
<g id="edge62" class="edge">
<title>Node40&#45;&gt;Node4</title>
<path fill="none" stroke="midnightblue" d="M696.24,-382.3C699.2,-360.45 703.5,-323.18 703.5,-291 703.5,-291 703.5,-291 703.5,-121 703.5,-79.06 670.43,-37.19 654.67,-19.62"/>
<polygon fill="midnightblue" stroke="midnightblue" points="692.74,-382.08 694.81,-392.47 699.67,-383.05 692.74,-382.08"/>
</g>
<!-- Node42 -->
<g id="node42" class="node">
<title>Node42</title>
<g id="a_node42"><a xlink:href="api_2packet__flags_8h.html" target="_top" xlink:title="ODP packet flags.">
<polygon fill="white" stroke="black" points="947.5,-112.5 947.5,-131.5 1033.5,-131.5 1033.5,-112.5 947.5,-112.5"/>
<text text-anchor="middle" x="990.5" y="-119.5" font-family="Helvetica,sans-Serif" font-size="10.00">packet_flags.h</text>
</a>
</g>
</g>
<!-- Node41&#45;&gt;Node42 -->
<g id="edge67" class="edge">
<title>Node41&#45;&gt;Node42</title>
<path fill="none" stroke="midnightblue" d="M872.31,-671.25C924.15,-658.27 995.5,-629.73 995.5,-571 995.5,-571 995.5,-571 995.5,-233 995.5,-195.15 992.51,-150.05 991.15,-131.55"/>
<polygon fill="midnightblue" stroke="midnightblue" points="871.47,-667.85 862.55,-673.57 873.09,-674.66 871.47,-667.85"/>
</g>
<!-- Node42&#45;&gt;Node4 -->
<g id="edge68" class="edge">
<title>Node42&#45;&gt;Node4</title>
<path fill="none" stroke="midnightblue" d="M984.1,-102.33C977.93,-87.29 967.06,-66.92 950.5,-56 906.24,-26.81 747.47,-15.82 678.67,-12.37"/>
<polygon fill="midnightblue" stroke="midnightblue" points="980.99,-103.99 987.78,-112.12 987.54,-101.53 980.99,-103.99"/>
</g>
<!-- Node44 -->
<g id="node44" class="node">
<title>Node44</title>
<g id="a_node44"><a xlink:href="api_2proto__stats_8h.html" target="_top" xlink:title="ODP proto stats.">
<polygon fill="white" stroke="black" points="1023.5,-560.5 1023.5,-579.5 1103.5,-579.5 1103.5,-560.5 1023.5,-560.5"/>
<text text-anchor="middle" x="1063.5" y="-567.5" font-family="Helvetica,sans-Serif" font-size="10.00">proto_stats.h</text>
</a>
</g>
</g>
<!-- Node43&#45;&gt;Node44 -->
<g id="edge72" class="edge">
<title>Node43&#45;&gt;Node44</title>
<path fill="none" stroke="midnightblue" d="M854.02,-777.81C886.71,-750.68 956.22,-691.51 1009.5,-636 1027.79,-616.95 1047.06,-592.55 1056.88,-579.75"/>
<polygon fill="midnightblue" stroke="midnightblue" points="851.66,-775.22 846.18,-784.29 856.12,-780.62 851.66,-775.22"/>
</g>
<!-- Node44&#45;&gt;Node4 -->
<g id="edge73" class="edge">
<title>Node44&#45;&gt;Node4</title>
<path fill="none" stroke="midnightblue" d="M1062.95,-550.25C1062.36,-528.36 1061.5,-491.06 1061.5,-459 1061.5,-459 1061.5,-459 1061.5,-121 1061.5,-41.9 776.23,-18.35 678.72,-12.61"/>
<polygon fill="midnightblue" stroke="midnightblue" points="1059.46,-550.55 1063.24,-560.44 1066.46,-550.35 1059.46,-550.55"/>
</g>
</g>
</svg>
