<?xml version="1.0" encoding="UTF-8" standalone="no"?>
<!DOCTYPE svg PUBLIC "-//W3C//DTD SVG 1.1//EN"
 "http://www.w3.org/Graphics/SVG/1.1/DTD/svg11.dtd">
<!-- Generated by graphviz version 2.40.1 (20161225.0304)
 -->
<!-- Title: spinlock_recursive.h Pages: 1 -->
<svg width="928pt" height="252pt"
 viewBox="0.00 0.00 928.00 252.00" xmlns="http://www.w3.org/2000/svg" xmlns:xlink="http://www.w3.org/1999/xlink">
<g id="graph0" class="graph" transform="scale(1 1) rotate(0) translate(4 248)">
<title>spinlock_recursive.h</title>
<polygon fill="#ffffff" stroke="transparent" points="-4,4 -4,-248 924,-248 924,4 -4,4"/>
<!-- Node13 -->
<g id="node1" class="node">
<title>Node13</title>
<polygon fill="#bfbfbf" stroke="#000000" points="402,-224.5 402,-243.5 518,-243.5 518,-224.5 402,-224.5"/>
<text text-anchor="middle" x="460" y="-231.5" font-family="Helvetica,sans-Serif" font-size="10.00" fill="#000000">spinlock_recursive.h</text>
</g>
<!-- Node14 -->
<g id="node2" class="node">
<title>Node14</title>
<g id="a_node2"><a xlink:href="arch_2arm32-linux_2odp_2api_2abi_2spinlock__recursive_8h_source.html" target="_top" xlink:title="spinlock_recursive.h">
<polygon fill="#ffffff" stroke="#000000" points="0,-168.5 0,-187.5 116,-187.5 116,-168.5 0,-168.5"/>
<text text-anchor="middle" x="58" y="-175.5" font-family="Helvetica,sans-Serif" font-size="10.00" fill="#000000">spinlock_recursive.h</text>
</a>
</g>
</g>
<!-- Node13&#45;&gt;Node14 -->
<g id="edge1" class="edge">
<title>Node13&#45;&gt;Node14</title>
<path fill="none" stroke="#191970" d="M391.7594,-224.8676C324.0418,-215.7491 217.3084,-201.2258 125,-188 122.0895,-187.583 119.1085,-187.1521 116.0986,-186.7139"/>
<polygon fill="#191970" stroke="#191970" points="391.4951,-228.3635 401.8726,-226.2282 392.4286,-221.426 391.4951,-228.3635"/>
</g>
<!-- Node15 -->
<g id="node3" class="node">
<title>Node15</title>
<g id="a_node3"><a xlink:href="arch_2arm64-linux_2odp_2api_2abi_2spinlock__recursive_8h_source.html" target="_top" xlink:title="spinlock_recursive.h">
<polygon fill="#ffffff" stroke="#000000" points="134,-168.5 134,-187.5 250,-187.5 250,-168.5 134,-168.5"/>
<text text-anchor="middle" x="192" y="-175.5" font-family="Helvetica,sans-Serif" font-size="10.00" fill="#000000">spinlock_recursive.h</text>
</a>
</g>
</g>
<!-- Node13&#45;&gt;Node15 -->
<g id="edge2" class="edge">
<title>Node13&#45;&gt;Node15</title>
<path fill="none" stroke="#191970" d="M404.3517,-222.372C354.9559,-212.0505 283.6641,-197.1537 237.5776,-187.5237"/>
<polygon fill="#191970" stroke="#191970" points="403.7292,-225.8174 414.2337,-224.4369 405.161,-218.9654 403.7292,-225.8174"/>
</g>
<!-- Node16 -->
<g id="node4" class="node">
<title>Node16</title>
<g id="a_node4"><a xlink:href="arch_2default-linux_2odp_2api_2abi_2spinlock__recursive_8h_source.html" target="_top" xlink:title="spinlock_recursive.h">
<polygon fill="#ffffff" stroke="#000000" points="268,-168.5 268,-187.5 384,-187.5 384,-168.5 268,-168.5"/>
<text text-anchor="middle" x="326" y="-175.5" font-family="Helvetica,sans-Serif" font-size="10.00" fill="#000000">spinlock_recursive.h</text>
</a>
</g>
</g>
<!-- Node13&#45;&gt;Node16 -->
<g id="edge3" class="edge">
<title>Node13&#45;&gt;Node16</title>
<path fill="none" stroke="#191970" d="M427.4172,-220.3833C403.0464,-210.1985 370.3358,-196.5284 348.7348,-187.5011"/>
<polygon fill="#191970" stroke="#191970" points="426.3883,-223.7466 436.9646,-224.3733 429.0875,-217.2879 426.3883,-223.7466"/>
</g>
<!-- Node17 -->
<g id="node5" class="node">
<title>Node17</title>
<g id="a_node5"><a xlink:href="arch_2mips64-linux_2odp_2api_2abi_2spinlock__recursive_8h_source.html" target="_top" xlink:title="spinlock_recursive.h">
<polygon fill="#ffffff" stroke="#000000" points="402,-168.5 402,-187.5 518,-187.5 518,-168.5 402,-168.5"/>
<text text-anchor="middle" x="460" y="-175.5" font-family="Helvetica,sans-Serif" font-size="10.00" fill="#000000">spinlock_recursive.h</text>
</a>
</g>
</g>
<!-- Node13&#45;&gt;Node17 -->
<g id="edge4" class="edge">
<title>Node13&#45;&gt;Node17</title>
<path fill="none" stroke="#191970" d="M460,-214.1575C460,-205.155 460,-194.9199 460,-187.6427"/>
<polygon fill="#191970" stroke="#191970" points="456.5001,-214.2455 460,-224.2455 463.5001,-214.2456 456.5001,-214.2455"/>
</g>
<!-- Node18 -->
<g id="node6" class="node">
<title>Node18</title>
<g id="a_node6"><a xlink:href="arch_2power64-linux_2odp_2api_2abi_2spinlock__recursive_8h_source.html" target="_top" xlink:title="spinlock_recursive.h">
<polygon fill="#ffffff" stroke="#000000" points="536,-168.5 536,-187.5 652,-187.5 652,-168.5 536,-168.5"/>
<text text-anchor="middle" x="594" y="-175.5" font-family="Helvetica,sans-Serif" font-size="10.00" fill="#000000">spinlock_recursive.h</text>
</a>
</g>
</g>
<!-- Node13&#45;&gt;Node18 -->
<g id="edge5" class="edge">
<title>Node13&#45;&gt;Node18</title>
<path fill="none" stroke="#191970" d="M492.5828,-220.3833C516.9536,-210.1985 549.6642,-196.5284 571.2652,-187.5011"/>
<polygon fill="#191970" stroke="#191970" points="490.9125,-217.2879 483.0354,-224.3733 493.6117,-223.7466 490.9125,-217.2879"/>
</g>
<!-- Node19 -->
<g id="node7" class="node">
<title>Node19</title>
<g id="a_node7"><a xlink:href="arch_2x86__32-linux_2odp_2api_2abi_2spinlock__recursive_8h_source.html" target="_top" xlink:title="spinlock_recursive.h">
<polygon fill="#ffffff" stroke="#000000" points="670,-168.5 670,-187.5 786,-187.5 786,-168.5 670,-168.5"/>
<text text-anchor="middle" x="728" y="-175.5" font-family="Helvetica,sans-Serif" font-size="10.00" fill="#000000">spinlock_recursive.h</text>
</a>
</g>
</g>
<!-- Node13&#45;&gt;Node19 -->
<g id="edge6" class="edge">
<title>Node13&#45;&gt;Node19</title>
<path fill="none" stroke="#191970" d="M515.6483,-222.372C565.0441,-212.0505 636.3359,-197.1537 682.4224,-187.5237"/>
<polygon fill="#191970" stroke="#191970" points="514.839,-218.9654 505.7663,-224.4369 516.2708,-225.8174 514.839,-218.9654"/>
</g>
<!-- Node20 -->
<g id="node8" class="node">
<title>Node20</title>
<g id="a_node8"><a xlink:href="arch_2x86__64-linux_2odp_2api_2abi_2spinlock__recursive_8h_source.html" target="_top" xlink:title="spinlock_recursive.h">
<polygon fill="#ffffff" stroke="#000000" points="804,-168.5 804,-187.5 920,-187.5 920,-168.5 804,-168.5"/>
<text text-anchor="middle" x="862" y="-175.5" font-family="Helvetica,sans-Serif" font-size="10.00" fill="#000000">spinlock_recursive.h</text>
</a>
</g>
</g>
<!-- Node13&#45;&gt;Node20 -->
<g id="edge7" class="edge">
<title>Node13&#45;&gt;Node20</title>
<path fill="none" stroke="#191970" d="M528.2406,-224.8676C595.9582,-215.7491 702.6916,-201.2258 795,-188 797.9105,-187.583 800.8915,-187.1521 803.9014,-186.7139"/>
<polygon fill="#191970" stroke="#191970" points="527.5714,-221.426 518.1274,-226.2282 528.5049,-228.3635 527.5714,-221.426"/>
</g>
<!-- Node21 -->
<g id="node9" class="node">
<title>Node21</title>
<g id="a_node9"><a xlink:href="api_2spinlock__recursive_8h.html" target="_top" xlink:title="ODP resursive spinlock. ">
<polygon fill="#ffffff" stroke="#000000" points="804,-112.5 804,-131.5 920,-131.5 920,-112.5 804,-112.5"/>
<text text-anchor="middle" x="862" y="-119.5" font-family="Helvetica,sans-Serif" font-size="10.00" fill="#000000">spinlock_recursive.h</text>
</a>
</g>
</g>
<!-- Node20&#45;&gt;Node21 -->
<g id="edge8" class="edge">
<title>Node20&#45;&gt;Node21</title>
<path fill="none" stroke="#191970" d="M862,-158.1575C862,-149.155 862,-138.9199 862,-131.6427"/>
<polygon fill="#191970" stroke="#191970" points="858.5001,-158.2455 862,-168.2455 865.5001,-158.2456 858.5001,-158.2455"/>
</g>
<!-- Node22 -->
<g id="node10" class="node">
<title>Node22</title>
<g id="a_node10"><a xlink:href="odp__api_8h.html" target="_top" xlink:title="The OpenDataPlane API. ">
<polygon fill="#ffffff" stroke="#000000" points="830,-56.5 830,-75.5 894,-75.5 894,-56.5 830,-56.5"/>
<text text-anchor="middle" x="862" y="-63.5" font-family="Helvetica,sans-Serif" font-size="10.00" fill="#000000">odp_api.h</text>
</a>
</g>
</g>
<!-- Node21&#45;&gt;Node22 -->
<g id="edge9" class="edge">
<title>Node21&#45;&gt;Node22</title>
<path fill="none" stroke="#191970" d="M862,-102.1575C862,-93.155 862,-82.9199 862,-75.6427"/>
<polygon fill="#191970" stroke="#191970" points="858.5001,-102.2455 862,-112.2455 865.5001,-102.2456 858.5001,-102.2455"/>
</g>
<!-- Node23 -->
<g id="node11" class="node">
<title>Node23</title>
<g id="a_node11"><a xlink:href="odp_8h.html" target="_top" xlink:title="WARNING: THIS FILE IS DEPRECATED AND WILL BE REMOVED!!! ODP APPLICATIONS SHOULD NOW INCLUDE odp_api...">
<polygon fill="#ffffff" stroke="#000000" points="840,-.5 840,-19.5 884,-19.5 884,-.5 840,-.5"/>
<text text-anchor="middle" x="862" y="-7.5" font-family="Helvetica,sans-Serif" font-size="10.00" fill="#000000">odp.h</text>
</a>
</g>
</g>
<!-- Node22&#45;&gt;Node23 -->
<g id="edge10" class="edge">
<title>Node22&#45;&gt;Node23</title>
<path fill="none" stroke="#191970" d="M862,-46.1575C862,-37.155 862,-26.9199 862,-19.6427"/>
<polygon fill="#191970" stroke="#191970" points="858.5001,-46.2455 862,-56.2455 865.5001,-46.2456 858.5001,-46.2455"/>
</g>
</g>
</svg>
