<?xml version="1.0" encoding="UTF-8" standalone="no"?>
<!DOCTYPE svg PUBLIC "-//W3C//DTD SVG 1.1//EN"
 "http://www.w3.org/Graphics/SVG/1.1/DTD/svg11.dtd">
<!-- Generated by graphviz version 2.43.0 (0)
 -->
<!-- Title: event_vector_types.h Pages: 1 -->
<svg width="865pt" height="401pt"
 viewBox="0.00 0.00 864.50 401.00" xmlns="http://www.w3.org/2000/svg" xmlns:xlink="http://www.w3.org/1999/xlink">
<g id="graph0" class="graph" transform="scale(1 1) rotate(0) translate(4 397)">
<title>event_vector_types.h</title>
<!-- Node1 -->
<g id="Node000001" class="node">
<title>Node1</title>
<g id="a_Node000001"><a xlink:title="ODP event vector API type definitions.">
<polygon fill="#999999" stroke="#666666" points="284.5,-393 162.5,-393 162.5,-374 284.5,-374 284.5,-393"/>
<text text-anchor="middle" x="223.5" y="-381" font-family="Helvetica,sans-Serif" font-size="10.00">event_vector_types.h</text>
</a>
</g>
</g>
<!-- Node2 -->
<g id="Node000002" class="node">
<title>Node2</title>
<g id="a_Node000002"><a xlink:title=" ">
<polygon fill="#e0e0e0" stroke="#999999" points="137,-338 0,-338 0,-308 137,-308 137,-338"/>
<text text-anchor="start" x="8" y="-326" font-family="Helvetica,sans-Serif" font-size="10.00">odp/api/abi/event_vector</text>
<text text-anchor="middle" x="68.5" y="-315" font-family="Helvetica,sans-Serif" font-size="10.00">_types.h</text>
</a>
</g>
</g>
<!-- Node1&#45;&gt;Node2 -->
<g id="edge1_Node000001_Node000002" class="edge">
<title>Node1&#45;&gt;Node2</title>
<g id="a_edge1_Node000001_Node000002"><a xlink:title=" ">
<path fill="none" stroke="#63b8ff" d="M200.96,-373.99C178.65,-365.57 143.83,-352.43 115.49,-341.73"/>
<polygon fill="#63b8ff" stroke="#63b8ff" points="116.36,-338.32 105.76,-338.06 113.88,-344.87 116.36,-338.32"/>
</a>
</g>
</g>
<!-- Node3 -->
<g id="Node000003" class="node">
<title>Node3</title>
<g id="a_Node000003"><a xlink:title=" ">
<polygon fill="#e0e0e0" stroke="#999999" points="291.5,-332.5 155.5,-332.5 155.5,-313.5 291.5,-313.5 291.5,-332.5"/>
<text text-anchor="middle" x="223.5" y="-320.5" font-family="Helvetica,sans-Serif" font-size="10.00">odp/api/abi/pool_types.h</text>
</a>
</g>
</g>
<!-- Node1&#45;&gt;Node3 -->
<g id="edge2_Node000001_Node000003" class="edge">
<title>Node1&#45;&gt;Node3</title>
<g id="a_edge2_Node000001_Node000003"><a xlink:title=" ">
<path fill="none" stroke="#63b8ff" d="M223.5,-373.87C223.5,-365.75 223.5,-353.31 223.5,-342.89"/>
<polygon fill="#63b8ff" stroke="#63b8ff" points="227,-342.67 223.5,-332.67 220,-342.67 227,-342.67"/>
</a>
</g>
</g>
<!-- Node4 -->
<g id="Node000004" class="node">
<title>Node4</title>
<g id="a_Node000004"><a xlink:href="api_2spec_2event__vector__types_8h.html" target="_top" xlink:title="ODP event vector API type definitions.">
<polygon fill="white" stroke="#666666" points="419,-338 310,-338 310,-308 419,-308 419,-338"/>
<text text-anchor="start" x="318" y="-326" font-family="Helvetica,sans-Serif" font-size="10.00">odp/api/spec/event</text>
<text text-anchor="middle" x="364.5" y="-315" font-family="Helvetica,sans-Serif" font-size="10.00">_vector_types.h</text>
</a>
</g>
</g>
<!-- Node1&#45;&gt;Node4 -->
<g id="edge3_Node000001_Node000004" class="edge">
<title>Node1&#45;&gt;Node4</title>
<g id="a_edge3_Node000001_Node000004"><a xlink:title=" ">
<path fill="none" stroke="#63b8ff" d="M244,-373.99C264.12,-365.65 295.42,-352.66 321.08,-342.02"/>
<polygon fill="#63b8ff" stroke="#63b8ff" points="322.71,-345.13 330.6,-338.06 320.02,-338.66 322.71,-345.13"/>
</a>
</g>
</g>
<!-- Node5 -->
<g id="Node000005" class="node">
<title>Node5</title>
<g id="a_Node000005"><a xlink:href="visibility__begin_8h_source.html" target="_top" xlink:title=" ">
<polygon fill="white" stroke="#666666" points="462,-19 341,-19 341,0 462,0 462,-19"/>
<text text-anchor="middle" x="401.5" y="-7" font-family="Helvetica,sans-Serif" font-size="10.00">odp/visibility_begin.h</text>
</a>
</g>
</g>
<!-- Node4&#45;&gt;Node5 -->
<g id="edge4_Node000004_Node000005" class="edge">
<title>Node4&#45;&gt;Node5</title>
<g id="a_edge4_Node000004_Node000005"><a xlink:title=" ">
<path fill="none" stroke="#63b8ff" d="M318.52,-307.95C247.32,-284.8 118.5,-236.74 118.5,-192 118.5,-192 118.5,-192 118.5,-129.5 118.5,-95.33 112.36,-78.14 137.5,-55 164.99,-29.7 262.05,-18.63 330.47,-13.89"/>
<polygon fill="#63b8ff" stroke="#63b8ff" points="331.02,-17.36 340.76,-13.21 330.56,-10.38 331.02,-17.36"/>
</a>
</g>
</g>
<!-- Node6 -->
<g id="Node000006" class="node">
<title>Node6</title>
<g id="a_Node000006"><a xlink:href="api_2event__types_8h.html" target="_top" xlink:title="ODP event API type definitions.">
<polygon fill="white" stroke="#666666" points="290,-140 165,-140 165,-121 290,-121 290,-140"/>
<text text-anchor="middle" x="227.5" y="-128" font-family="Helvetica,sans-Serif" font-size="10.00">odp/api/event_types.h</text>
</a>
</g>
</g>
<!-- Node4&#45;&gt;Node6 -->
<g id="edge5_Node000004_Node000006" class="edge">
<title>Node4&#45;&gt;Node6</title>
<g id="a_edge5_Node000004_Node000006"><a xlink:title=" ">
<path fill="none" stroke="#63b8ff" d="M340.66,-307.81C327.04,-298.83 310.38,-286.24 298.5,-272 266.51,-233.65 244.01,-178.46 233.76,-150.01"/>
<polygon fill="#63b8ff" stroke="#63b8ff" points="236.93,-148.48 230.33,-140.2 230.32,-150.79 236.93,-148.48"/>
</a>
</g>
</g>
<!-- Node9 -->
<g id="Node000009" class="node">
<title>Node9</title>
<g id="a_Node000009"><a xlink:href="visibility__end_8h_source.html" target="_top" xlink:title=" ">
<polygon fill="white" stroke="#666666" points="710.5,-19 598.5,-19 598.5,0 710.5,0 710.5,-19"/>
<text text-anchor="middle" x="654.5" y="-7" font-family="Helvetica,sans-Serif" font-size="10.00">odp/visibility_end.h</text>
</a>
</g>
</g>
<!-- Node4&#45;&gt;Node9 -->
<g id="edge26_Node000004_Node000009" class="edge">
<title>Node4&#45;&gt;Node9</title>
<g id="a_edge26_Node000004_Node000009"><a xlink:title=" ">
<path fill="none" stroke="#63b8ff" d="M419.03,-319.12C547.13,-310.87 856.5,-281.67 856.5,-192 856.5,-192 856.5,-192 856.5,-129.5 856.5,-91.92 845.89,-78.43 816.5,-55 789.34,-33.34 752.38,-22.21 720.62,-16.49"/>
<polygon fill="#63b8ff" stroke="#63b8ff" points="720.95,-12.99 710.52,-14.81 719.81,-19.9 720.95,-12.99"/>
</a>
</g>
</g>
<!-- Node10 -->
<g id="Node000010" class="node">
<title>Node10</title>
<g id="a_Node000010"><a xlink:href="queue__stats__types_8h.html" target="_top" xlink:title="ODP queue.">
<polygon fill="white" stroke="#666666" points="422,-272 307,-272 307,-242 422,-242 422,-272"/>
<text text-anchor="start" x="315" y="-260" font-family="Helvetica,sans-Serif" font-size="10.00">odp/api/queue_stats</text>
<text text-anchor="middle" x="364.5" y="-249" font-family="Helvetica,sans-Serif" font-size="10.00">_types.h</text>
</a>
</g>
</g>
<!-- Node4&#45;&gt;Node10 -->
<g id="edge10_Node000004_Node000010" class="edge">
<title>Node4&#45;&gt;Node10</title>
<g id="a_edge10_Node000004_Node000010"><a xlink:title=" ">
<path fill="none" stroke="#63b8ff" d="M364.5,-307.8C364.5,-300.34 364.5,-290.99 364.5,-282.41"/>
<polygon fill="#63b8ff" stroke="#63b8ff" points="368,-282.16 364.5,-272.16 361,-282.16 368,-282.16"/>
</a>
</g>
</g>
<!-- Node13 -->
<g id="Node000013" class="node">
<title>Node13</title>
<g id="a_Node000013"><a xlink:href="api_2std__types_8h.html" target="_top" xlink:title="Standard C language types and definitions for ODP.">
<polygon fill="white" stroke="#666666" points="562.5,-266.5 450.5,-266.5 450.5,-247.5 562.5,-247.5 562.5,-266.5"/>
<text text-anchor="middle" x="506.5" y="-254.5" font-family="Helvetica,sans-Serif" font-size="10.00">odp/api/std_types.h</text>
</a>
</g>
</g>
<!-- Node4&#45;&gt;Node13 -->
<g id="edge15_Node000004_Node000013" class="edge">
<title>Node4&#45;&gt;Node13</title>
<g id="a_edge15_Node000004_Node000013"><a xlink:title=" ">
<path fill="none" stroke="#63b8ff" d="M395.66,-307.95C420.35,-296.83 454.53,-281.42 478.38,-270.67"/>
<polygon fill="#63b8ff" stroke="#63b8ff" points="479.92,-273.82 487.6,-266.52 477.05,-267.44 479.92,-273.82"/>
</a>
</g>
</g>
<!-- Node7 -->
<g id="Node000007" class="node">
<title>Node7</title>
<g id="a_Node000007"><a xlink:title=" ">
<polygon fill="#e0e0e0" stroke="#999999" points="290,-79.5 147,-79.5 147,-60.5 290,-60.5 290,-79.5"/>
<text text-anchor="middle" x="218.5" y="-67.5" font-family="Helvetica,sans-Serif" font-size="10.00">odp/api/abi/event_types.h</text>
</a>
</g>
</g>
<!-- Node6&#45;&gt;Node7 -->
<g id="edge6_Node000006_Node000007" class="edge">
<title>Node6&#45;&gt;Node7</title>
<g id="a_edge6_Node000006_Node000007"><a xlink:title=" ">
<path fill="none" stroke="#63b8ff" d="M226.17,-120.87C224.91,-112.66 222.97,-100.04 221.35,-89.55"/>
<polygon fill="#63b8ff" stroke="#63b8ff" points="224.81,-89.02 219.83,-79.67 217.89,-90.08 224.81,-89.02"/>
</a>
</g>
</g>
<!-- Node8 -->
<g id="Node000008" class="node">
<title>Node8</title>
<g id="a_Node000008"><a xlink:href="api_2spec_2event__types_8h.html" target="_top" xlink:title="ODP event API type definitions.">
<polygon fill="white" stroke="#666666" points="456,-85 347,-85 347,-55 456,-55 456,-85"/>
<text text-anchor="start" x="355" y="-73" font-family="Helvetica,sans-Serif" font-size="10.00">odp/api/spec/event</text>
<text text-anchor="middle" x="401.5" y="-62" font-family="Helvetica,sans-Serif" font-size="10.00">_types.h</text>
</a>
</g>
</g>
<!-- Node6&#45;&gt;Node8 -->
<g id="edge7_Node000006_Node000008" class="edge">
<title>Node6&#45;&gt;Node8</title>
<g id="a_edge7_Node000006_Node000008"><a xlink:title=" ">
<path fill="none" stroke="#63b8ff" d="M252.8,-120.99C278.17,-112.46 317.96,-99.09 350,-88.32"/>
<polygon fill="#63b8ff" stroke="#63b8ff" points="351.3,-91.57 359.67,-85.06 349.07,-84.93 351.3,-91.57"/>
</a>
</g>
</g>
<!-- Node8&#45;&gt;Node5 -->
<g id="edge8_Node000008_Node000005" class="edge">
<title>Node8&#45;&gt;Node5</title>
<g id="a_edge8_Node000008_Node000005"><a xlink:title=" ">
<path fill="none" stroke="#63b8ff" d="M401.5,-54.84C401.5,-47.21 401.5,-37.7 401.5,-29.45"/>
<polygon fill="#63b8ff" stroke="#63b8ff" points="405,-29.27 401.5,-19.27 398,-29.27 405,-29.27"/>
</a>
</g>
</g>
<!-- Node8&#45;&gt;Node9 -->
<g id="edge9_Node000008_Node000009" class="edge">
<title>Node8&#45;&gt;Node9</title>
<g id="a_edge9_Node000008_Node000009"><a xlink:title=" ">
<path fill="none" stroke="#63b8ff" d="M456.09,-56.38C501.27,-45.93 564.79,-31.24 607.69,-21.32"/>
<polygon fill="#63b8ff" stroke="#63b8ff" points="608.63,-24.7 617.58,-19.04 607.05,-17.88 608.63,-24.7"/>
</a>
</g>
</g>
<!-- Node11 -->
<g id="Node000011" class="node">
<title>Node11</title>
<g id="a_Node000011"><a xlink:href="spec_2queue__stats__types_8h.html" target="_top" xlink:title="ODP queue statistics types.">
<polygon fill="white" stroke="#666666" points="420,-206 309,-206 309,-176 420,-176 420,-206"/>
<text text-anchor="start" x="317" y="-194" font-family="Helvetica,sans-Serif" font-size="10.00">odp/api/spec/queue</text>
<text text-anchor="middle" x="364.5" y="-183" font-family="Helvetica,sans-Serif" font-size="10.00">_stats_types.h</text>
</a>
</g>
</g>
<!-- Node10&#45;&gt;Node11 -->
<g id="edge11_Node000010_Node000011" class="edge">
<title>Node10&#45;&gt;Node11</title>
<g id="a_edge11_Node000010_Node000011"><a xlink:title=" ">
<path fill="none" stroke="#63b8ff" d="M364.5,-241.8C364.5,-234.34 364.5,-224.99 364.5,-216.41"/>
<polygon fill="#63b8ff" stroke="#63b8ff" points="368,-216.16 364.5,-206.16 361,-216.16 368,-216.16"/>
</a>
</g>
</g>
<!-- Node11&#45;&gt;Node5 -->
<g id="edge12_Node000011_Node000005" class="edge">
<title>Node11&#45;&gt;Node5</title>
<g id="a_edge12_Node000011_Node000005"><a xlink:title=" ">
<path fill="none" stroke="#63b8ff" d="M356.05,-175.74C342.07,-150.13 317.64,-95.27 338.5,-55 345.54,-41.41 358.84,-31.09 371.42,-23.82"/>
<polygon fill="#63b8ff" stroke="#63b8ff" points="373.17,-26.86 380.35,-19.07 369.88,-20.68 373.17,-26.86"/>
</a>
</g>
</g>
<!-- Node11&#45;&gt;Node9 -->
<g id="edge14_Node000011_Node000009" class="edge">
<title>Node11&#45;&gt;Node9</title>
<g id="a_edge14_Node000011_Node000009"><a xlink:title=" ">
<path fill="none" stroke="#63b8ff" d="M367.79,-175.83C372.3,-159.8 382.04,-134.21 400.5,-121 486.44,-59.52 557.23,-155.98 635.5,-85 650.85,-71.09 654.57,-46.66 655.12,-29.59"/>
<polygon fill="#63b8ff" stroke="#63b8ff" points="658.62,-29.15 655.1,-19.16 651.62,-29.16 658.62,-29.15"/>
</a>
</g>
</g>
<!-- Node12 -->
<g id="Node000012" class="node">
<title>Node12</title>
<g id="a_Node000012"><a xlink:title=" ">
<polygon fill="#e0e0e0" stroke="#999999" points="462,-140 409,-140 409,-121 462,-121 462,-140"/>
<text text-anchor="middle" x="435.5" y="-128" font-family="Helvetica,sans-Serif" font-size="10.00">stdint.h</text>
</a>
</g>
</g>
<!-- Node11&#45;&gt;Node12 -->
<g id="edge13_Node000011_Node000012" class="edge">
<title>Node11&#45;&gt;Node12</title>
<g id="a_edge13_Node000011_Node000012"><a xlink:title=" ">
<path fill="none" stroke="#63b8ff" d="M381.69,-175.84C392.31,-167.09 405.94,-155.85 416.83,-146.88"/>
<polygon fill="#63b8ff" stroke="#63b8ff" points="419.37,-149.33 424.86,-140.27 414.92,-143.92 419.37,-149.33"/>
</a>
</g>
</g>
<!-- Node14 -->
<g id="Node000014" class="node">
<title>Node14</title>
<g id="a_Node000014"><a xlink:title=" ">
<polygon fill="#e0e0e0" stroke="#999999" points="723.5,-200.5 593.5,-200.5 593.5,-181.5 723.5,-181.5 723.5,-200.5"/>
<text text-anchor="middle" x="658.5" y="-188.5" font-family="Helvetica,sans-Serif" font-size="10.00">odp/api/abi/std_types.h</text>
</a>
</g>
</g>
<!-- Node13&#45;&gt;Node14 -->
<g id="edge16_Node000013_Node000014" class="edge">
<title>Node13&#45;&gt;Node14</title>
<g id="a_edge16_Node000013_Node000014"><a xlink:title=" ">
<path fill="none" stroke="#63b8ff" d="M527,-247.37C553.06,-236.39 598.28,-217.36 628.29,-204.72"/>
<polygon fill="#63b8ff" stroke="#63b8ff" points="629.98,-207.81 637.84,-200.7 627.27,-201.35 629.98,-207.81"/>
</a>
</g>
</g>
<!-- Node15 -->
<g id="Node000015" class="node">
<title>Node15</title>
<g id="a_Node000015"><a xlink:href="api_2spec_2std__types_8h.html" target="_top" xlink:title="Common types and definitions for ODP API files.">
<polygon fill="white" stroke="#666666" points="575,-200.5 438,-200.5 438,-181.5 575,-181.5 575,-200.5"/>
<text text-anchor="middle" x="506.5" y="-188.5" font-family="Helvetica,sans-Serif" font-size="10.00">odp/api/spec/std_types.h</text>
</a>
</g>
</g>
<!-- Node13&#45;&gt;Node15 -->
<g id="edge17_Node000013_Node000015" class="edge">
<title>Node13&#45;&gt;Node15</title>
<g id="a_edge17_Node000013_Node000015"><a xlink:title=" ">
<path fill="none" stroke="#63b8ff" d="M506.5,-247.37C506.5,-238.16 506.5,-223.29 506.5,-211.27"/>
<polygon fill="#63b8ff" stroke="#63b8ff" points="510,-210.91 506.5,-200.91 503,-210.91 510,-210.91"/>
</a>
</g>
</g>
<!-- Node15&#45;&gt;Node5 -->
<g id="edge18_Node000015_Node000005" class="edge">
<title>Node15&#45;&gt;Node5</title>
<g id="a_edge18_Node000015_Node000005"><a xlink:title=" ">
<path fill="none" stroke="#63b8ff" d="M505.82,-181.23C503.65,-158.35 495.19,-95.8 465.5,-55 456.08,-42.06 441.7,-31.57 428.96,-24.04"/>
<polygon fill="#63b8ff" stroke="#63b8ff" points="430.5,-20.89 420.06,-19.08 427.09,-27.01 430.5,-20.89"/>
</a>
</g>
</g>
<!-- Node15&#45;&gt;Node9 -->
<g id="edge25_Node000015_Node000009" class="edge">
<title>Node15&#45;&gt;Node9</title>
<g id="a_edge25_Node000015_Node000009"><a xlink:title=" ">
<path fill="none" stroke="#63b8ff" d="M546.97,-181.48C620.15,-165.17 769.68,-127.36 799.5,-85 823.96,-50.25 769.84,-30.63 720.91,-20.35"/>
<polygon fill="#63b8ff" stroke="#63b8ff" points="721.39,-16.88 710.9,-18.36 720.02,-23.75 721.39,-16.88"/>
</a>
</g>
</g>
<!-- Node15&#45;&gt;Node12 -->
<g id="edge19_Node000015_Node000012" class="edge">
<title>Node15&#45;&gt;Node12</title>
<g id="a_edge19_Node000015_Node000012"><a xlink:title=" ">
<path fill="none" stroke="#63b8ff" d="M496.02,-181.37C485.01,-172.3 467.46,-157.84 454.09,-146.82"/>
<polygon fill="#63b8ff" stroke="#63b8ff" points="455.96,-143.83 446.02,-140.17 451.51,-149.23 455.96,-143.83"/>
</a>
</g>
</g>
<!-- Node16 -->
<g id="Node000016" class="node">
<title>Node16</title>
<g id="a_Node000016"><a xlink:href="api_2align_8h.html" target="_top" xlink:title="ODP alignments.">
<polygon fill="white" stroke="#666666" points="614,-140 525,-140 525,-121 614,-121 614,-140"/>
<text text-anchor="middle" x="569.5" y="-128" font-family="Helvetica,sans-Serif" font-size="10.00">odp/api/align.h</text>
</a>
</g>
</g>
<!-- Node15&#45;&gt;Node16 -->
<g id="edge20_Node000015_Node000016" class="edge">
<title>Node15&#45;&gt;Node16</title>
<g id="a_edge20_Node000015_Node000016"><a xlink:title=" ">
<path fill="none" stroke="#63b8ff" d="M515.8,-181.37C525.47,-172.38 540.84,-158.11 552.66,-147.14"/>
<polygon fill="#63b8ff" stroke="#63b8ff" points="555.22,-149.54 560.17,-140.17 550.46,-144.41 555.22,-149.54"/>
</a>
</g>
</g>
<!-- Node17 -->
<g id="Node000017" class="node">
<title>Node17</title>
<g id="a_Node000017"><a xlink:title=" ">
<polygon fill="#e0e0e0" stroke="#999999" points="790,-79.5 683,-79.5 683,-60.5 790,-60.5 790,-79.5"/>
<text text-anchor="middle" x="736.5" y="-67.5" font-family="Helvetica,sans-Serif" font-size="10.00">odp/api/abi/align.h</text>
</a>
</g>
</g>
<!-- Node16&#45;&gt;Node17 -->
<g id="edge21_Node000016_Node000017" class="edge">
<title>Node16&#45;&gt;Node17</title>
<g id="a_edge21_Node000016_Node000017"><a xlink:title=" ">
<path fill="none" stroke="#63b8ff" d="M593.78,-120.99C622.48,-110.94 670.39,-94.16 702.7,-82.84"/>
<polygon fill="#63b8ff" stroke="#63b8ff" points="703.91,-86.13 712.19,-79.52 701.59,-79.52 703.91,-86.13"/>
</a>
</g>
</g>
<!-- Node18 -->
<g id="Node000018" class="node">
<title>Node18</title>
<g id="a_Node000018"><a xlink:href="api_2spec_2align_8h.html" target="_top" xlink:title="ODP alignments.">
<polygon fill="white" stroke="#666666" points="626.5,-79.5 512.5,-79.5 512.5,-60.5 626.5,-60.5 626.5,-79.5"/>
<text text-anchor="middle" x="569.5" y="-67.5" font-family="Helvetica,sans-Serif" font-size="10.00">odp/api/spec/align.h</text>
</a>
</g>
</g>
<!-- Node16&#45;&gt;Node18 -->
<g id="edge22_Node000016_Node000018" class="edge">
<title>Node16&#45;&gt;Node18</title>
<g id="a_edge22_Node000016_Node000018"><a xlink:title=" ">
<path fill="none" stroke="#63b8ff" d="M569.5,-120.87C569.5,-112.75 569.5,-100.31 569.5,-89.89"/>
<polygon fill="#63b8ff" stroke="#63b8ff" points="573,-89.67 569.5,-79.67 566,-89.67 573,-89.67"/>
</a>
</g>
</g>
<!-- Node18&#45;&gt;Node5 -->
<g id="edge23_Node000018_Node000005" class="edge">
<title>Node18&#45;&gt;Node5</title>
<g id="a_edge23_Node000018_Node000005"><a xlink:title=" ">
<path fill="none" stroke="#63b8ff" d="M545.07,-60.49C516.21,-50.44 468,-33.66 435.5,-22.34"/>
<polygon fill="#63b8ff" stroke="#63b8ff" points="436.55,-19 425.96,-19.02 434.25,-25.61 436.55,-19"/>
</a>
</g>
</g>
<!-- Node18&#45;&gt;Node9 -->
<g id="edge24_Node000018_Node000009" class="edge">
<title>Node18&#45;&gt;Node9</title>
<g id="a_edge24_Node000018_Node000009"><a xlink:title=" ">
<path fill="none" stroke="#63b8ff" d="M582.04,-60.37C595.6,-51.04 617.44,-36.01 633.6,-24.88"/>
<polygon fill="#63b8ff" stroke="#63b8ff" points="635.65,-27.72 641.91,-19.17 631.68,-21.95 635.65,-27.72"/>
</a>
</g>
</g>
</g>
</svg>
