<?xml version="1.0" encoding="UTF-8" standalone="no"?>
<!DOCTYPE svg PUBLIC "-//W3C//DTD SVG 1.1//EN"
 "http://www.w3.org/Graphics/SVG/1.1/DTD/svg11.dtd">
<!-- Generated by graphviz version 2.43.0 (0)
 -->
<!-- Title: schedule_types.h Pages: 1 -->
<svg width="897pt" height="533pt"
 viewBox="0.00 0.00 897.00 533.00" xmlns="http://www.w3.org/2000/svg" xmlns:xlink="http://www.w3.org/1999/xlink">
<g id="graph0" class="graph" transform="scale(1 1) rotate(0) translate(4 529)">
<title>schedule_types.h</title>
<!-- Node1 -->
<g id="Node000001" class="node">
<title>Node1</title>
<g id="a_Node000001"><a xlink:title="ODP schedule.">
<polygon fill="#999999" stroke="#666666" points="510.5,-525 409.5,-525 409.5,-506 510.5,-506 510.5,-525"/>
<text text-anchor="middle" x="460" y="-513" font-family="Helvetica,sans-Serif" font-size="10.00">schedule_types.h</text>
</a>
</g>
</g>
<!-- Node2 -->
<g id="Node000002" class="node">
<title>Node2</title>
<g id="a_Node000002"><a xlink:title=" ">
<polygon fill="#e0e0e0" stroke="#999999" points="449.5,-470 332.5,-470 332.5,-440 449.5,-440 449.5,-470"/>
<text text-anchor="start" x="340.5" y="-458" font-family="Helvetica,sans-Serif" font-size="10.00">odp/api/abi/schedule</text>
<text text-anchor="middle" x="391" y="-447" font-family="Helvetica,sans-Serif" font-size="10.00">_types.h</text>
</a>
</g>
</g>
<!-- Node1&#45;&gt;Node2 -->
<g id="edge1_Node000001_Node000002" class="edge">
<title>Node1&#45;&gt;Node2</title>
<g id="a_edge1_Node000001_Node000002"><a xlink:title=" ">
<path fill="none" stroke="#63b8ff" d="M449.82,-505.87C440.8,-498.22 427.28,-486.76 415.47,-476.75"/>
<polygon fill="#63b8ff" stroke="#63b8ff" points="417.54,-473.91 407.65,-470.11 413.01,-479.25 417.54,-473.91"/>
</a>
</g>
</g>
<!-- Node3 -->
<g id="Node000003" class="node">
<title>Node3</title>
<g id="a_Node000003"><a xlink:href="api_2spec_2schedule__types_8h.html" target="_top" xlink:title="ODP schedule types.">
<polygon fill="white" stroke="#666666" points="592.5,-470 467.5,-470 467.5,-440 592.5,-440 592.5,-470"/>
<text text-anchor="start" x="475.5" y="-458" font-family="Helvetica,sans-Serif" font-size="10.00">odp/api/spec/schedule</text>
<text text-anchor="middle" x="530" y="-447" font-family="Helvetica,sans-Serif" font-size="10.00">_types.h</text>
</a>
</g>
</g>
<!-- Node1&#45;&gt;Node3 -->
<g id="edge2_Node000001_Node000003" class="edge">
<title>Node1&#45;&gt;Node3</title>
<g id="a_edge2_Node000001_Node000003"><a xlink:title=" ">
<path fill="none" stroke="#63b8ff" d="M470.33,-505.87C479.48,-498.22 493.19,-486.76 505.17,-476.75"/>
<polygon fill="#63b8ff" stroke="#63b8ff" points="507.68,-479.21 513.11,-470.11 503.19,-473.84 507.68,-479.21"/>
</a>
</g>
</g>
<!-- Node4 -->
<g id="Node000004" class="node">
<title>Node4</title>
<g id="a_Node000004"><a xlink:href="visibility__begin_8h_source.html" target="_top" xlink:title=" ">
<polygon fill="white" stroke="#666666" points="425.5,-19 304.5,-19 304.5,0 425.5,0 425.5,-19"/>
<text text-anchor="middle" x="365" y="-7" font-family="Helvetica,sans-Serif" font-size="10.00">odp/visibility_begin.h</text>
</a>
</g>
</g>
<!-- Node3&#45;&gt;Node4 -->
<g id="edge3_Node000003_Node000004" class="edge">
<title>Node3&#45;&gt;Node4</title>
<g id="a_edge3_Node000003_Node000004"><a xlink:title=" ">
<path fill="none" stroke="#63b8ff" d="M467.29,-441.6C464.49,-441.06 461.71,-440.52 459,-440 355.68,-420.18 0,-429.21 0,-324 0,-324 0,-324 0,-129.5 0,-92.92 5.5,-76.64 35,-55 75.04,-25.64 209.91,-15.64 294.33,-12.25"/>
<polygon fill="#63b8ff" stroke="#63b8ff" points="294.51,-15.74 304.37,-11.86 294.24,-8.75 294.51,-15.74"/>
</a>
</g>
</g>
<!-- Node5 -->
<g id="Node000005" class="node">
<title>Node5</title>
<g id="a_Node000005"><a xlink:href="api_2event__vector__types_8h.html" target="_top" xlink:title="ODP event vector API type definitions.">
<polygon fill="white" stroke="#666666" points="394.5,-404 275.5,-404 275.5,-374 394.5,-374 394.5,-404"/>
<text text-anchor="start" x="283.5" y="-392" font-family="Helvetica,sans-Serif" font-size="10.00">odp/api/event_vector</text>
<text text-anchor="middle" x="335" y="-381" font-family="Helvetica,sans-Serif" font-size="10.00">_types.h</text>
</a>
</g>
</g>
<!-- Node3&#45;&gt;Node5 -->
<g id="edge4_Node000003_Node000005" class="edge">
<title>Node3&#45;&gt;Node5</title>
<g id="a_edge4_Node000003_Node000005"><a xlink:title=" ">
<path fill="none" stroke="#63b8ff" d="M487.21,-439.95C457.87,-430.33 418.76,-417.49 387.53,-407.24"/>
<polygon fill="#63b8ff" stroke="#63b8ff" points="388.29,-403.81 377.69,-404.01 386.1,-410.46 388.29,-403.81"/>
</a>
</g>
</g>
<!-- Node12 -->
<g id="Node000012" class="node">
<title>Node12</title>
<g id="a_Node000012"><a xlink:href="visibility__end_8h_source.html" target="_top" xlink:title=" ">
<polygon fill="white" stroke="#666666" points="667,-19 555,-19 555,0 667,0 667,-19"/>
<text text-anchor="middle" x="611" y="-7" font-family="Helvetica,sans-Serif" font-size="10.00">odp/visibility_end.h</text>
</a>
</g>
</g>
<!-- Node3&#45;&gt;Node12 -->
<g id="edge39_Node000003_Node000012" class="edge">
<title>Node3&#45;&gt;Node12</title>
<g id="a_edge39_Node000003_Node000012"><a xlink:title=" ">
<path fill="none" stroke="#63b8ff" d="M592.53,-444.54C695.39,-427.21 889,-386.31 889,-324 889,-324 889,-324 889,-129.5 889,-37.78 759.52,-15.82 677.29,-11.13"/>
<polygon fill="#63b8ff" stroke="#63b8ff" points="677.42,-7.63 667.26,-10.63 677.07,-14.62 677.42,-7.63"/>
</a>
</g>
</g>
<!-- Node13 -->
<g id="Node000013" class="node">
<title>Node13</title>
<g id="a_Node000013"><a xlink:href="queue__stats__types_8h.html" target="_top" xlink:title="ODP queue.">
<polygon fill="white" stroke="#666666" points="478.5,-272 363.5,-272 363.5,-242 478.5,-242 478.5,-272"/>
<text text-anchor="start" x="371.5" y="-260" font-family="Helvetica,sans-Serif" font-size="10.00">odp/api/queue_stats</text>
<text text-anchor="middle" x="421" y="-249" font-family="Helvetica,sans-Serif" font-size="10.00">_types.h</text>
</a>
</g>
</g>
<!-- Node3&#45;&gt;Node13 -->
<g id="edge31_Node000003_Node000013" class="edge">
<title>Node3&#45;&gt;Node13</title>
<g id="a_edge31_Node000003_Node000013"><a xlink:title=" ">
<path fill="none" stroke="#63b8ff" d="M526.17,-439.85C518.43,-412.72 499.1,-352.16 470,-308 463.17,-297.64 454,-287.59 445.43,-279.25"/>
<polygon fill="#63b8ff" stroke="#63b8ff" points="447.82,-276.69 438.14,-272.4 443.03,-281.8 447.82,-276.69"/>
</a>
</g>
</g>
<!-- Node16 -->
<g id="Node000016" class="node">
<title>Node16</title>
<g id="a_Node000016"><a xlink:href="api_2std__types_8h.html" target="_top" xlink:title="Standard C language types and definitions for ODP.">
<polygon fill="white" stroke="#666666" points="617,-266.5 505,-266.5 505,-247.5 617,-247.5 617,-266.5"/>
<text text-anchor="middle" x="561" y="-254.5" font-family="Helvetica,sans-Serif" font-size="10.00">odp/api/std_types.h</text>
</a>
</g>
</g>
<!-- Node3&#45;&gt;Node16 -->
<g id="edge32_Node000003_Node000016" class="edge">
<title>Node3&#45;&gt;Node16</title>
<g id="a_edge32_Node000003_Node000016"><a xlink:title=" ">
<path fill="none" stroke="#63b8ff" d="M532.23,-439.9C537.71,-405.23 551.86,-315.79 558.04,-276.72"/>
<polygon fill="#63b8ff" stroke="#63b8ff" points="561.51,-277.15 559.62,-266.73 554.6,-276.06 561.51,-277.15"/>
</a>
</g>
</g>
<!-- Node22 -->
<g id="Node000022" class="node">
<title>Node22</title>
<g id="a_Node000022"><a xlink:href="api_2thrmask_8h.html" target="_top" xlink:title="ODP thread masks.">
<polygon fill="white" stroke="#666666" points="704.5,-398.5 599.5,-398.5 599.5,-379.5 704.5,-379.5 704.5,-398.5"/>
<text text-anchor="middle" x="652" y="-386.5" font-family="Helvetica,sans-Serif" font-size="10.00">odp/api/thrmask.h</text>
</a>
</g>
</g>
<!-- Node3&#45;&gt;Node22 -->
<g id="edge33_Node000003_Node000022" class="edge">
<title>Node3&#45;&gt;Node22</title>
<g id="a_edge33_Node000003_Node000022"><a xlink:title=" ">
<path fill="none" stroke="#63b8ff" d="M556.77,-439.95C577.6,-429.03 606.31,-413.97 626.74,-403.25"/>
<polygon fill="#63b8ff" stroke="#63b8ff" points="628.53,-406.26 635.76,-398.52 625.28,-400.06 628.53,-406.26"/>
</a>
</g>
</g>
<!-- Node6 -->
<g id="Node000006" class="node">
<title>Node6</title>
<g id="a_Node000006"><a xlink:title=" ">
<polygon fill="#e0e0e0" stroke="#999999" points="178.5,-338 41.5,-338 41.5,-308 178.5,-308 178.5,-338"/>
<text text-anchor="start" x="49.5" y="-326" font-family="Helvetica,sans-Serif" font-size="10.00">odp/api/abi/event_vector</text>
<text text-anchor="middle" x="110" y="-315" font-family="Helvetica,sans-Serif" font-size="10.00">_types.h</text>
</a>
</g>
</g>
<!-- Node5&#45;&gt;Node6 -->
<g id="edge5_Node000005_Node000006" class="edge">
<title>Node5&#45;&gt;Node6</title>
<g id="a_edge5_Node000005_Node000006"><a xlink:title=" ">
<path fill="none" stroke="#63b8ff" d="M285.62,-373.95C251.33,-364.2 205.47,-351.16 169.22,-340.84"/>
<polygon fill="#63b8ff" stroke="#63b8ff" points="169.84,-337.38 159.26,-338.01 167.92,-344.11 169.84,-337.38"/>
</a>
</g>
</g>
<!-- Node7 -->
<g id="Node000007" class="node">
<title>Node7</title>
<g id="a_Node000007"><a xlink:title=" ">
<polygon fill="#e0e0e0" stroke="#999999" points="333,-332.5 197,-332.5 197,-313.5 333,-313.5 333,-332.5"/>
<text text-anchor="middle" x="265" y="-320.5" font-family="Helvetica,sans-Serif" font-size="10.00">odp/api/abi/pool_types.h</text>
</a>
</g>
</g>
<!-- Node5&#45;&gt;Node7 -->
<g id="edge6_Node000005_Node000007" class="edge">
<title>Node5&#45;&gt;Node7</title>
<g id="a_edge6_Node000005_Node000007"><a xlink:title=" ">
<path fill="none" stroke="#63b8ff" d="M319.46,-373.8C308.44,-363.72 293.65,-350.19 282.26,-339.78"/>
<polygon fill="#63b8ff" stroke="#63b8ff" points="284.42,-337.01 274.67,-332.84 279.69,-342.18 284.42,-337.01"/>
</a>
</g>
</g>
<!-- Node8 -->
<g id="Node000008" class="node">
<title>Node8</title>
<g id="a_Node000008"><a xlink:href="api_2spec_2event__vector__types_8h.html" target="_top" xlink:title="ODP event vector API type definitions.">
<polygon fill="white" stroke="#666666" points="460.5,-338 351.5,-338 351.5,-308 460.5,-308 460.5,-338"/>
<text text-anchor="start" x="359.5" y="-326" font-family="Helvetica,sans-Serif" font-size="10.00">odp/api/spec/event</text>
<text text-anchor="middle" x="406" y="-315" font-family="Helvetica,sans-Serif" font-size="10.00">_vector_types.h</text>
</a>
</g>
</g>
<!-- Node5&#45;&gt;Node8 -->
<g id="edge7_Node000005_Node000008" class="edge">
<title>Node5&#45;&gt;Node8</title>
<g id="a_edge7_Node000005_Node000008"><a xlink:title=" ">
<path fill="none" stroke="#63b8ff" d="M350.76,-373.8C360.13,-365.34 372.2,-354.46 382.67,-345.03"/>
<polygon fill="#63b8ff" stroke="#63b8ff" points="385.2,-347.46 390.29,-338.16 380.52,-342.26 385.2,-347.46"/>
</a>
</g>
</g>
<!-- Node8&#45;&gt;Node4 -->
<g id="edge8_Node000008_Node000004" class="edge">
<title>Node8&#45;&gt;Node4</title>
<g id="a_edge8_Node000008_Node000004"><a xlink:title=" ">
<path fill="none" stroke="#63b8ff" d="M351.3,-308.5C248.79,-282.43 38,-224.82 38,-192 38,-192 38,-192 38,-129.5 38,-95.33 31.59,-77.85 57,-55 90.95,-24.47 214.33,-14.86 294.25,-11.85"/>
<polygon fill="#63b8ff" stroke="#63b8ff" points="294.39,-15.35 304.26,-11.5 294.14,-8.35 294.39,-15.35"/>
</a>
</g>
</g>
<!-- Node9 -->
<g id="Node000009" class="node">
<title>Node9</title>
<g id="a_Node000009"><a xlink:href="api_2event__types_8h.html" target="_top" xlink:title="ODP event API type definitions.">
<polygon fill="white" stroke="#666666" points="306.5,-140 181.5,-140 181.5,-121 306.5,-121 306.5,-140"/>
<text text-anchor="middle" x="244" y="-128" font-family="Helvetica,sans-Serif" font-size="10.00">odp/api/event_types.h</text>
</a>
</g>
</g>
<!-- Node8&#45;&gt;Node9 -->
<g id="edge9_Node000008_Node000009" class="edge">
<title>Node8&#45;&gt;Node9</title>
<g id="a_edge9_Node000008_Node000009"><a xlink:title=" ">
<path fill="none" stroke="#63b8ff" d="M373.3,-307.98C356.19,-299.45 335.78,-287.24 321,-272 285.28,-235.18 261.06,-178.48 250.31,-149.67"/>
<polygon fill="#63b8ff" stroke="#63b8ff" points="253.54,-148.31 246.86,-140.09 246.96,-150.68 253.54,-148.31"/>
</a>
</g>
</g>
<!-- Node8&#45;&gt;Node12 -->
<g id="edge30_Node000008_Node000012" class="edge">
<title>Node8&#45;&gt;Node12</title>
<g id="a_edge30_Node000008_Node000012"><a xlink:title=" ">
<path fill="none" stroke="#63b8ff" d="M385.11,-307.97C373.9,-299.13 361.15,-286.63 355,-272 338.48,-232.66 340.08,-215.97 355,-176 379.91,-109.3 400.11,-93.5 460,-55 485.59,-38.55 517.48,-27.99 545.35,-21.31"/>
<polygon fill="#63b8ff" stroke="#63b8ff" points="546.45,-24.65 555.42,-19.02 544.89,-17.82 546.45,-24.65"/>
</a>
</g>
</g>
<!-- Node8&#45;&gt;Node13 -->
<g id="edge14_Node000008_Node000013" class="edge">
<title>Node8&#45;&gt;Node13</title>
<g id="a_edge14_Node000008_Node000013"><a xlink:title=" ">
<path fill="none" stroke="#63b8ff" d="M409.33,-307.8C411.1,-300.26 413.32,-290.78 415.34,-282.13"/>
<polygon fill="#63b8ff" stroke="#63b8ff" points="418.81,-282.7 417.68,-272.16 411.99,-281.1 418.81,-282.7"/>
</a>
</g>
</g>
<!-- Node8&#45;&gt;Node16 -->
<g id="edge19_Node000008_Node000016" class="edge">
<title>Node8&#45;&gt;Node16</title>
<g id="a_edge19_Node000008_Node000016"><a xlink:title=" ">
<path fill="none" stroke="#63b8ff" d="M440.02,-307.95C467.2,-296.73 504.93,-281.15 531,-270.39"/>
<polygon fill="#63b8ff" stroke="#63b8ff" points="532.46,-273.57 540.37,-266.52 529.79,-267.1 532.46,-273.57"/>
</a>
</g>
</g>
<!-- Node10 -->
<g id="Node000010" class="node">
<title>Node10</title>
<g id="a_Node000010"><a xlink:title=" ">
<polygon fill="#e0e0e0" stroke="#999999" points="209.5,-79.5 66.5,-79.5 66.5,-60.5 209.5,-60.5 209.5,-79.5"/>
<text text-anchor="middle" x="138" y="-67.5" font-family="Helvetica,sans-Serif" font-size="10.00">odp/api/abi/event_types.h</text>
</a>
</g>
</g>
<!-- Node9&#45;&gt;Node10 -->
<g id="edge10_Node000009_Node000010" class="edge">
<title>Node9&#45;&gt;Node10</title>
<g id="a_edge10_Node000009_Node000010"><a xlink:title=" ">
<path fill="none" stroke="#63b8ff" d="M228.36,-120.87C211.06,-111.32 182.95,-95.81 162.67,-84.62"/>
<polygon fill="#63b8ff" stroke="#63b8ff" points="164.15,-81.43 153.7,-79.67 160.77,-87.56 164.15,-81.43"/>
</a>
</g>
</g>
<!-- Node11 -->
<g id="Node000011" class="node">
<title>Node11</title>
<g id="a_Node000011"><a xlink:href="api_2spec_2event__types_8h.html" target="_top" xlink:title="ODP event API type definitions.">
<polygon fill="white" stroke="#666666" points="336.5,-85 227.5,-85 227.5,-55 336.5,-55 336.5,-85"/>
<text text-anchor="start" x="235.5" y="-73" font-family="Helvetica,sans-Serif" font-size="10.00">odp/api/spec/event</text>
<text text-anchor="middle" x="282" y="-62" font-family="Helvetica,sans-Serif" font-size="10.00">_types.h</text>
</a>
</g>
</g>
<!-- Node9&#45;&gt;Node11 -->
<g id="edge11_Node000009_Node000011" class="edge">
<title>Node9&#45;&gt;Node11</title>
<g id="a_edge11_Node000009_Node000011"><a xlink:title=" ">
<path fill="none" stroke="#63b8ff" d="M249.61,-120.87C254.24,-113.74 261.03,-103.28 267.2,-93.79"/>
<polygon fill="#63b8ff" stroke="#63b8ff" points="270.32,-95.41 272.83,-85.11 264.45,-91.59 270.32,-95.41"/>
</a>
</g>
</g>
<!-- Node11&#45;&gt;Node4 -->
<g id="edge12_Node000011_Node000004" class="edge">
<title>Node11&#45;&gt;Node4</title>
<g id="a_edge12_Node000011_Node000004"><a xlink:title=" ">
<path fill="none" stroke="#63b8ff" d="M302.09,-54.84C314.88,-45.83 331.4,-34.18 344.3,-25.09"/>
<polygon fill="#63b8ff" stroke="#63b8ff" points="346.41,-27.89 352.56,-19.27 342.37,-22.17 346.41,-27.89"/>
</a>
</g>
</g>
<!-- Node11&#45;&gt;Node12 -->
<g id="edge13_Node000011_Node000012" class="edge">
<title>Node11&#45;&gt;Node12</title>
<g id="a_edge13_Node000011_Node000012"><a xlink:title=" ">
<path fill="none" stroke="#63b8ff" d="M336.7,-59.27C396.58,-48.63 492.2,-31.62 553.27,-20.77"/>
<polygon fill="#63b8ff" stroke="#63b8ff" points="553.9,-24.21 563.13,-19.01 552.67,-17.32 553.9,-24.21"/>
</a>
</g>
</g>
<!-- Node14 -->
<g id="Node000014" class="node">
<title>Node14</title>
<g id="a_Node000014"><a xlink:href="spec_2queue__stats__types_8h.html" target="_top" xlink:title="ODP queue statistics types.">
<polygon fill="white" stroke="#666666" points="474.5,-206 363.5,-206 363.5,-176 474.5,-176 474.5,-206"/>
<text text-anchor="start" x="371.5" y="-194" font-family="Helvetica,sans-Serif" font-size="10.00">odp/api/spec/queue</text>
<text text-anchor="middle" x="419" y="-183" font-family="Helvetica,sans-Serif" font-size="10.00">_stats_types.h</text>
</a>
</g>
</g>
<!-- Node13&#45;&gt;Node14 -->
<g id="edge15_Node000013_Node000014" class="edge">
<title>Node13&#45;&gt;Node14</title>
<g id="a_edge15_Node000013_Node000014"><a xlink:title=" ">
<path fill="none" stroke="#63b8ff" d="M420.56,-241.8C420.32,-234.34 420.03,-224.99 419.76,-216.41"/>
<polygon fill="#63b8ff" stroke="#63b8ff" points="423.25,-216.05 419.44,-206.16 416.26,-216.27 423.25,-216.05"/>
</a>
</g>
</g>
<!-- Node14&#45;&gt;Node4 -->
<g id="edge16_Node000014_Node000004" class="edge">
<title>Node14&#45;&gt;Node4</title>
<g id="a_edge16_Node000014_Node000004"><a xlink:title=" ">
<path fill="none" stroke="#63b8ff" d="M414.76,-175.91C405.07,-143.71 381.31,-64.7 370.5,-28.8"/>
<polygon fill="#63b8ff" stroke="#63b8ff" points="373.83,-27.7 367.6,-19.13 367.13,-29.72 373.83,-27.7"/>
</a>
</g>
</g>
<!-- Node14&#45;&gt;Node12 -->
<g id="edge18_Node000014_Node000012" class="edge">
<title>Node14&#45;&gt;Node12</title>
<g id="a_edge18_Node000014_Node000012"><a xlink:title=" ">
<path fill="none" stroke="#63b8ff" d="M419.1,-175.98C419.99,-160.34 423.9,-135.35 439,-121 489.64,-72.88 542.15,-133.93 592,-85 606.71,-70.57 610.58,-46.45 611.35,-29.58"/>
<polygon fill="#63b8ff" stroke="#63b8ff" points="614.85,-29.3 611.47,-19.26 607.85,-29.22 614.85,-29.3"/>
</a>
</g>
</g>
<!-- Node15 -->
<g id="Node000015" class="node">
<title>Node15</title>
<g id="a_Node000015"><a xlink:title=" ">
<polygon fill="#e0e0e0" stroke="#999999" points="500.5,-140 447.5,-140 447.5,-121 500.5,-121 500.5,-140"/>
<text text-anchor="middle" x="474" y="-128" font-family="Helvetica,sans-Serif" font-size="10.00">stdint.h</text>
</a>
</g>
</g>
<!-- Node14&#45;&gt;Node15 -->
<g id="edge17_Node000014_Node000015" class="edge">
<title>Node14&#45;&gt;Node15</title>
<g id="a_edge17_Node000014_Node000015"><a xlink:title=" ">
<path fill="none" stroke="#63b8ff" d="M432.31,-175.84C440.3,-167.35 450.48,-156.52 458.78,-147.69"/>
<polygon fill="#63b8ff" stroke="#63b8ff" points="461.46,-149.95 465.76,-140.27 456.36,-145.15 461.46,-149.95"/>
</a>
</g>
</g>
<!-- Node17 -->
<g id="Node000017" class="node">
<title>Node17</title>
<g id="a_Node000017"><a xlink:title=" ">
<polygon fill="#e0e0e0" stroke="#999999" points="778,-200.5 648,-200.5 648,-181.5 778,-181.5 778,-200.5"/>
<text text-anchor="middle" x="713" y="-188.5" font-family="Helvetica,sans-Serif" font-size="10.00">odp/api/abi/std_types.h</text>
</a>
</g>
</g>
<!-- Node16&#45;&gt;Node17 -->
<g id="edge20_Node000016_Node000017" class="edge">
<title>Node16&#45;&gt;Node17</title>
<g id="a_edge20_Node000016_Node000017"><a xlink:title=" ">
<path fill="none" stroke="#63b8ff" d="M581.5,-247.37C607.56,-236.39 652.78,-217.36 682.79,-204.72"/>
<polygon fill="#63b8ff" stroke="#63b8ff" points="684.48,-207.81 692.34,-200.7 681.77,-201.35 684.48,-207.81"/>
</a>
</g>
</g>
<!-- Node18 -->
<g id="Node000018" class="node">
<title>Node18</title>
<g id="a_Node000018"><a xlink:href="api_2spec_2std__types_8h.html" target="_top" xlink:title="Common types and definitions for ODP API files.">
<polygon fill="white" stroke="#666666" points="629.5,-200.5 492.5,-200.5 492.5,-181.5 629.5,-181.5 629.5,-200.5"/>
<text text-anchor="middle" x="561" y="-188.5" font-family="Helvetica,sans-Serif" font-size="10.00">odp/api/spec/std_types.h</text>
</a>
</g>
</g>
<!-- Node16&#45;&gt;Node18 -->
<g id="edge21_Node000016_Node000018" class="edge">
<title>Node16&#45;&gt;Node18</title>
<g id="a_edge21_Node000016_Node000018"><a xlink:title=" ">
<path fill="none" stroke="#63b8ff" d="M561,-247.37C561,-238.16 561,-223.29 561,-211.27"/>
<polygon fill="#63b8ff" stroke="#63b8ff" points="564.5,-210.91 561,-200.91 557.5,-210.91 564.5,-210.91"/>
</a>
</g>
</g>
<!-- Node18&#45;&gt;Node4 -->
<g id="edge22_Node000018_Node000004" class="edge">
<title>Node18&#45;&gt;Node4</title>
<g id="a_edge22_Node000018_Node000004"><a xlink:title=" ">
<path fill="none" stroke="#63b8ff" d="M555.79,-181.27C547.32,-167.48 529.5,-140.26 510,-121 490.52,-101.76 481.89,-101.45 460,-85 433.12,-64.8 402.62,-40.66 383.6,-25.45"/>
<polygon fill="#63b8ff" stroke="#63b8ff" points="385.71,-22.66 375.72,-19.14 381.33,-28.12 385.71,-22.66"/>
</a>
</g>
</g>
<!-- Node18&#45;&gt;Node12 -->
<g id="edge29_Node000018_Node000012" class="edge">
<title>Node18&#45;&gt;Node12</title>
<g id="a_edge29_Node000018_Node000012"><a xlink:title=" ">
<path fill="none" stroke="#63b8ff" d="M600.97,-181.46C647.66,-169.11 722.73,-141.27 756,-85 777.45,-48.72 724.89,-29.44 677.16,-19.66"/>
<polygon fill="#63b8ff" stroke="#63b8ff" points="677.55,-16.17 667.07,-17.71 676.23,-23.04 677.55,-16.17"/>
</a>
</g>
</g>
<!-- Node18&#45;&gt;Node15 -->
<g id="edge23_Node000018_Node000015" class="edge">
<title>Node18&#45;&gt;Node15</title>
<g id="a_edge23_Node000018_Node000015"><a xlink:title=" ">
<path fill="none" stroke="#63b8ff" d="M548.16,-181.37C534.28,-172.04 511.93,-157.01 495.39,-145.88"/>
<polygon fill="#63b8ff" stroke="#63b8ff" points="497.14,-142.84 486.89,-140.17 493.24,-148.65 497.14,-142.84"/>
</a>
</g>
</g>
<!-- Node19 -->
<g id="Node000019" class="node">
<title>Node19</title>
<g id="a_Node000019"><a xlink:href="api_2align_8h.html" target="_top" xlink:title="ODP alignments.">
<polygon fill="white" stroke="#666666" points="646.5,-140 557.5,-140 557.5,-121 646.5,-121 646.5,-140"/>
<text text-anchor="middle" x="602" y="-128" font-family="Helvetica,sans-Serif" font-size="10.00">odp/api/align.h</text>
</a>
</g>
</g>
<!-- Node18&#45;&gt;Node19 -->
<g id="edge24_Node000018_Node000019" class="edge">
<title>Node18&#45;&gt;Node19</title>
<g id="a_edge24_Node000018_Node000019"><a xlink:title=" ">
<path fill="none" stroke="#63b8ff" d="M567.05,-181.37C573.11,-172.73 582.59,-159.2 590.14,-148.42"/>
<polygon fill="#63b8ff" stroke="#63b8ff" points="593.05,-150.37 595.93,-140.17 587.32,-146.35 593.05,-150.37"/>
</a>
</g>
</g>
<!-- Node20 -->
<g id="Node000020" class="node">
<title>Node20</title>
<g id="a_Node000020"><a xlink:title=" ">
<polygon fill="#e0e0e0" stroke="#999999" points="746.5,-79.5 639.5,-79.5 639.5,-60.5 746.5,-60.5 746.5,-79.5"/>
<text text-anchor="middle" x="693" y="-67.5" font-family="Helvetica,sans-Serif" font-size="10.00">odp/api/abi/align.h</text>
</a>
</g>
</g>
<!-- Node19&#45;&gt;Node20 -->
<g id="edge25_Node000019_Node000020" class="edge">
<title>Node19&#45;&gt;Node20</title>
<g id="a_edge25_Node000019_Node000020"><a xlink:title=" ">
<path fill="none" stroke="#63b8ff" d="M615.43,-120.87C630.08,-111.45 653.76,-96.23 671.1,-85.08"/>
<polygon fill="#63b8ff" stroke="#63b8ff" points="673,-88.02 679.52,-79.67 669.21,-82.13 673,-88.02"/>
</a>
</g>
</g>
<!-- Node21 -->
<g id="Node000021" class="node">
<title>Node21</title>
<g id="a_Node000021"><a xlink:href="api_2spec_2align_8h.html" target="_top" xlink:title="ODP alignments.">
<polygon fill="white" stroke="#666666" points="583,-79.5 469,-79.5 469,-60.5 583,-60.5 583,-79.5"/>
<text text-anchor="middle" x="526" y="-67.5" font-family="Helvetica,sans-Serif" font-size="10.00">odp/api/spec/align.h</text>
</a>
</g>
</g>
<!-- Node19&#45;&gt;Node21 -->
<g id="edge26_Node000019_Node000021" class="edge">
<title>Node19&#45;&gt;Node21</title>
<g id="a_edge26_Node000019_Node000021"><a xlink:title=" ">
<path fill="none" stroke="#63b8ff" d="M590.79,-120.87C578.89,-111.71 559.86,-97.06 545.49,-86.01"/>
<polygon fill="#63b8ff" stroke="#63b8ff" points="547.32,-82.99 537.26,-79.67 543.05,-88.54 547.32,-82.99"/>
</a>
</g>
</g>
<!-- Node21&#45;&gt;Node4 -->
<g id="edge27_Node000021_Node000004" class="edge">
<title>Node21&#45;&gt;Node4</title>
<g id="a_edge27_Node000021_Node000004"><a xlink:title=" ">
<path fill="none" stroke="#63b8ff" d="M502.59,-60.49C475.05,-50.49 429.13,-33.8 397.99,-22.49"/>
<polygon fill="#63b8ff" stroke="#63b8ff" points="399.03,-19.14 388.44,-19.02 396.64,-25.72 399.03,-19.14"/>
</a>
</g>
</g>
<!-- Node21&#45;&gt;Node12 -->
<g id="edge28_Node000021_Node000012" class="edge">
<title>Node21&#45;&gt;Node12</title>
<g id="a_edge28_Node000021_Node000012"><a xlink:title=" ">
<path fill="none" stroke="#63b8ff" d="M538.54,-60.37C552.1,-51.04 573.94,-36.01 590.1,-24.88"/>
<polygon fill="#63b8ff" stroke="#63b8ff" points="592.15,-27.72 598.41,-19.17 588.18,-21.95 592.15,-27.72"/>
</a>
</g>
</g>
<!-- Node23 -->
<g id="Node000023" class="node">
<title>Node23</title>
<g id="a_Node000023"><a xlink:title=" ">
<polygon fill="#e0e0e0" stroke="#999999" points="858.5,-332.5 735.5,-332.5 735.5,-313.5 858.5,-313.5 858.5,-332.5"/>
<text text-anchor="middle" x="797" y="-320.5" font-family="Helvetica,sans-Serif" font-size="10.00">odp/api/abi/thrmask.h</text>
</a>
</g>
</g>
<!-- Node22&#45;&gt;Node23 -->
<g id="edge34_Node000022_Node000023" class="edge">
<title>Node22&#45;&gt;Node23</title>
<g id="a_edge34_Node000022_Node000023"><a xlink:title=" ">
<path fill="none" stroke="#63b8ff" d="M671.56,-379.37C696.31,-368.44 739.17,-349.52 767.81,-336.88"/>
<polygon fill="#63b8ff" stroke="#63b8ff" points="769.56,-339.94 777.29,-332.7 766.73,-333.54 769.56,-339.94"/>
</a>
</g>
</g>
<!-- Node24 -->
<g id="Node000024" class="node">
<title>Node24</title>
<g id="a_Node000024"><a xlink:href="api_2spec_2thrmask_8h.html" target="_top" xlink:title="ODP thread masks.">
<polygon fill="white" stroke="#666666" points="717.5,-332.5 586.5,-332.5 586.5,-313.5 717.5,-313.5 717.5,-332.5"/>
<text text-anchor="middle" x="652" y="-320.5" font-family="Helvetica,sans-Serif" font-size="10.00">odp/api/spec/thrmask.h</text>
</a>
</g>
</g>
<!-- Node22&#45;&gt;Node24 -->
<g id="edge35_Node000022_Node000024" class="edge">
<title>Node22&#45;&gt;Node24</title>
<g id="a_edge35_Node000022_Node000024"><a xlink:title=" ">
<path fill="none" stroke="#63b8ff" d="M652,-379.37C652,-370.16 652,-355.29 652,-343.27"/>
<polygon fill="#63b8ff" stroke="#63b8ff" points="655.5,-342.91 652,-332.91 648.5,-342.91 655.5,-342.91"/>
</a>
</g>
</g>
<!-- Node24&#45;&gt;Node4 -->
<g id="edge36_Node000024_Node000004" class="edge">
<title>Node24&#45;&gt;Node4</title>
<g id="a_edge36_Node000024_Node000004"><a xlink:title=" ">
<path fill="none" stroke="#63b8ff" d="M669.41,-313.48C700,-297.41 762.5,-259.36 787,-206 807.66,-161 797.4,-91.06 756,-55 732.36,-34.4 541.56,-20.46 435.5,-14.22"/>
<polygon fill="#63b8ff" stroke="#63b8ff" points="435.69,-10.73 425.5,-13.64 435.28,-17.72 435.69,-10.73"/>
</a>
</g>
</g>
<!-- Node24&#45;&gt;Node12 -->
<g id="edge38_Node000024_Node000012" class="edge">
<title>Node24&#45;&gt;Node12</title>
<g id="a_edge38_Node000024_Node000012"><a xlink:title=" ">
<path fill="none" stroke="#63b8ff" d="M695.99,-313.49C739.42,-304.3 801.88,-288.71 820,-272 848.03,-246.14 851,-230.13 851,-192 851,-192 851,-192 851,-129.5 851,-51.71 748.53,-24.77 677.5,-15.44"/>
<polygon fill="#63b8ff" stroke="#63b8ff" points="677.62,-11.93 667.27,-14.19 676.77,-18.88 677.62,-11.93"/>
</a>
</g>
</g>
<!-- Node24&#45;&gt;Node16 -->
<g id="edge37_Node000024_Node000016" class="edge">
<title>Node24&#45;&gt;Node16</title>
<g id="a_edge37_Node000024_Node000016"><a xlink:title=" ">
<path fill="none" stroke="#63b8ff" d="M639.73,-313.37C624.94,-302.97 599.85,-285.32 581.97,-272.75"/>
<polygon fill="#63b8ff" stroke="#63b8ff" points="583.56,-269.59 573.37,-266.7 579.54,-275.31 583.56,-269.59"/>
</a>
</g>
</g>
</g>
</svg>
