<?xml version="1.0" encoding="UTF-8" standalone="no"?>
<!DOCTYPE svg PUBLIC "-//W3C//DTD SVG 1.1//EN"
 "http://www.w3.org/Graphics/SVG/1.1/DTD/svg11.dtd">
<!-- Generated by graphviz version 2.43.0 (0)
 -->
<!-- Title: time_types.h Pages: 1 -->
<svg width="222pt" height="247pt"
 viewBox="0.00 0.00 222.00 247.00" xmlns="http://www.w3.org/2000/svg" xmlns:xlink="http://www.w3.org/1999/xlink">
<g id="graph0" class="graph" transform="scale(1 1) rotate(0) translate(4 243)">
<title>time_types.h</title>
<!-- Node1 -->
<g id="Node000001" class="node">
<title>Node1</title>
<g id="a_Node000001"><a xlink:title="ODP time.">
<polygon fill="#999999" stroke="#666666" points="152,-239 72,-239 72,-220 152,-220 152,-239"/>
<text text-anchor="middle" x="112" y="-227" font-family="Helvetica,sans-Serif" font-size="10.00">time_types.h</text>
</a>
</g>
</g>
<!-- Node2 -->
<g id="Node000002" class="node">
<title>Node2</title>
<g id="a_Node000002"><a xlink:href="api_2time__types_8h.html" target="_top" xlink:title="ODP time.">
<polygon fill="white" stroke="#666666" points="152,-184 72,-184 72,-165 152,-165 152,-184"/>
<text text-anchor="middle" x="112" y="-172" font-family="Helvetica,sans-Serif" font-size="10.00">time_types.h</text>
</a>
</g>
</g>
<!-- Node1&#45;&gt;Node2 -->
<g id="edge1_Node000001_Node000002" class="edge">
<title>Node1&#45;&gt;Node2</title>
<g id="a_edge1_Node000001_Node000002"><a xlink:title=" ">
<path fill="none" stroke="#63b8ff" d="M112,-209.66C112,-200.93 112,-190.99 112,-184.09"/>
<polygon fill="#63b8ff" stroke="#63b8ff" points="108.5,-209.75 112,-219.75 115.5,-209.75 108.5,-209.75"/>
</a>
</g>
</g>
<!-- Node3 -->
<g id="Node000003" class="node">
<title>Node3</title>
<g id="a_Node000003"><a xlink:href="api_2spec_2packet_8h.html" target="_top" xlink:title="ODP packet descriptor.">
<polygon fill="white" stroke="#666666" points="58,-129 0,-129 0,-110 58,-110 58,-129"/>
<text text-anchor="middle" x="29" y="-117" font-family="Helvetica,sans-Serif" font-size="10.00">packet.h</text>
</a>
</g>
</g>
<!-- Node2&#45;&gt;Node3 -->
<g id="edge2_Node000002_Node000003" class="edge">
<title>Node2&#45;&gt;Node3</title>
<g id="a_edge2_Node000002_Node000003"><a xlink:title=" ">
<path fill="none" stroke="#63b8ff" d="M89.96,-159.42C74.89,-149.81 55.41,-137.37 42.58,-129.17"/>
<polygon fill="#63b8ff" stroke="#63b8ff" points="88.35,-162.55 98.66,-164.98 92.12,-156.65 88.35,-162.55"/>
</a>
</g>
</g>
<!-- Node6 -->
<g id="Node000006" class="node">
<title>Node6</title>
<g id="a_Node000006"><a xlink:href="api_2spec_2packet__io_8h.html" target="_top" xlink:title="ODP Packet IO.">
<polygon fill="white" stroke="#666666" points="148,-129 76,-129 76,-110 148,-110 148,-129"/>
<text text-anchor="middle" x="112" y="-117" font-family="Helvetica,sans-Serif" font-size="10.00">packet_io.h</text>
</a>
</g>
</g>
<!-- Node2&#45;&gt;Node6 -->
<g id="edge5_Node000002_Node000006" class="edge">
<title>Node2&#45;&gt;Node6</title>
<g id="a_edge5_Node000002_Node000006"><a xlink:title=" ">
<path fill="none" stroke="#63b8ff" d="M112,-154.66C112,-145.93 112,-135.99 112,-129.09"/>
<polygon fill="#63b8ff" stroke="#63b8ff" points="108.5,-154.75 112,-164.75 115.5,-154.75 108.5,-154.75"/>
</a>
</g>
</g>
<!-- Node8 -->
<g id="Node000008" class="node">
<title>Node8</title>
<g id="a_Node000008"><a xlink:href="api_2spec_2time_8h.html" target="_top" xlink:title="ODP time.">
<polygon fill="white" stroke="#666666" points="214,-129 166,-129 166,-110 214,-110 214,-129"/>
<text text-anchor="middle" x="190" y="-117" font-family="Helvetica,sans-Serif" font-size="10.00">time.h</text>
</a>
</g>
</g>
<!-- Node2&#45;&gt;Node8 -->
<g id="edge8_Node000002_Node000008" class="edge">
<title>Node2&#45;&gt;Node8</title>
<g id="a_edge8_Node000002_Node000008"><a xlink:title=" ">
<path fill="none" stroke="#63b8ff" d="M133.12,-159.15C147.21,-149.57 165.29,-137.29 177.24,-129.17"/>
<polygon fill="#63b8ff" stroke="#63b8ff" points="130.84,-156.47 124.53,-164.98 134.77,-162.26 130.84,-156.47"/>
</a>
</g>
</g>
<!-- Node4 -->
<g id="Node000004" class="node">
<title>Node4</title>
<g id="a_Node000004"><a xlink:href="api_2packet_8h.html" target="_top" xlink:title="ODP packet descriptor.">
<polygon fill="white" stroke="#666666" points="58,-74 0,-74 0,-55 58,-55 58,-74"/>
<text text-anchor="middle" x="29" y="-62" font-family="Helvetica,sans-Serif" font-size="10.00">packet.h</text>
</a>
</g>
</g>
<!-- Node3&#45;&gt;Node4 -->
<g id="edge3_Node000003_Node000004" class="edge">
<title>Node3&#45;&gt;Node4</title>
<g id="a_edge3_Node000003_Node000004"><a xlink:title=" ">
<path fill="none" stroke="#63b8ff" d="M29,-99.66C29,-90.93 29,-80.99 29,-74.09"/>
<polygon fill="#63b8ff" stroke="#63b8ff" points="25.5,-99.75 29,-109.75 32.5,-99.75 25.5,-99.75"/>
</a>
</g>
</g>
<!-- Node5 -->
<g id="Node000005" class="node">
<title>Node5</title>
<g id="a_Node000005"><a xlink:href="odp__api_8h.html" target="_top" xlink:title="The OpenDataPlane API.">
<polygon fill="white" stroke="#666666" points="144,-19 80,-19 80,0 144,0 144,-19"/>
<text text-anchor="middle" x="112" y="-7" font-family="Helvetica,sans-Serif" font-size="10.00">odp_api.h</text>
</a>
</g>
</g>
<!-- Node4&#45;&gt;Node5 -->
<g id="edge4_Node000004_Node000005" class="edge">
<title>Node4&#45;&gt;Node5</title>
<g id="a_edge4_Node000004_Node000005"><a xlink:title=" ">
<path fill="none" stroke="#63b8ff" d="M51.04,-49.42C66.11,-39.81 85.59,-27.37 98.42,-19.17"/>
<polygon fill="#63b8ff" stroke="#63b8ff" points="48.88,-46.65 42.34,-54.98 52.65,-52.55 48.88,-46.65"/>
</a>
</g>
</g>
<!-- Node7 -->
<g id="Node000007" class="node">
<title>Node7</title>
<g id="a_Node000007"><a xlink:href="api_2packet__io_8h.html" target="_top" xlink:title="ODP Packet IO.">
<polygon fill="white" stroke="#666666" points="148,-74 76,-74 76,-55 148,-55 148,-74"/>
<text text-anchor="middle" x="112" y="-62" font-family="Helvetica,sans-Serif" font-size="10.00">packet_io.h</text>
</a>
</g>
</g>
<!-- Node6&#45;&gt;Node7 -->
<g id="edge6_Node000006_Node000007" class="edge">
<title>Node6&#45;&gt;Node7</title>
<g id="a_edge6_Node000006_Node000007"><a xlink:title=" ">
<path fill="none" stroke="#63b8ff" d="M112,-99.66C112,-90.93 112,-80.99 112,-74.09"/>
<polygon fill="#63b8ff" stroke="#63b8ff" points="108.5,-99.75 112,-109.75 115.5,-99.75 108.5,-99.75"/>
</a>
</g>
</g>
<!-- Node7&#45;&gt;Node5 -->
<g id="edge7_Node000007_Node000005" class="edge">
<title>Node7&#45;&gt;Node5</title>
<g id="a_edge7_Node000007_Node000005"><a xlink:title=" ">
<path fill="none" stroke="#63b8ff" d="M112,-44.66C112,-35.93 112,-25.99 112,-19.09"/>
<polygon fill="#63b8ff" stroke="#63b8ff" points="108.5,-44.75 112,-54.75 115.5,-44.75 108.5,-44.75"/>
</a>
</g>
</g>
<!-- Node9 -->
<g id="Node000009" class="node">
<title>Node9</title>
<g id="a_Node000009"><a xlink:href="api_2time_8h.html" target="_top" xlink:title="ODP time.">
<polygon fill="white" stroke="#666666" points="214,-74 166,-74 166,-55 214,-55 214,-74"/>
<text text-anchor="middle" x="190" y="-62" font-family="Helvetica,sans-Serif" font-size="10.00">time.h</text>
</a>
</g>
</g>
<!-- Node8&#45;&gt;Node9 -->
<g id="edge9_Node000008_Node000009" class="edge">
<title>Node8&#45;&gt;Node9</title>
<g id="a_edge9_Node000008_Node000009"><a xlink:title=" ">
<path fill="none" stroke="#63b8ff" d="M190,-99.66C190,-90.93 190,-80.99 190,-74.09"/>
<polygon fill="#63b8ff" stroke="#63b8ff" points="186.5,-99.75 190,-109.75 193.5,-99.75 186.5,-99.75"/>
</a>
</g>
</g>
<!-- Node9&#45;&gt;Node5 -->
<g id="edge10_Node000009_Node000005" class="edge">
<title>Node9&#45;&gt;Node5</title>
<g id="a_edge10_Node000009_Node000005"><a xlink:title=" ">
<path fill="none" stroke="#63b8ff" d="M168.88,-49.15C154.79,-39.57 136.71,-27.29 124.76,-19.17"/>
<polygon fill="#63b8ff" stroke="#63b8ff" points="167.23,-52.26 177.47,-54.98 171.16,-46.47 167.23,-52.26"/>
</a>
</g>
</g>
</g>
</svg>
