<?xml version="1.0" encoding="UTF-8" standalone="no"?>
<!DOCTYPE svg PUBLIC "-//W3C//DTD SVG 1.1//EN"
 "http://www.w3.org/Graphics/SVG/1.1/DTD/svg11.dtd">
<!-- Generated by graphviz version 2.43.0 (0)
 -->
<!-- Title: cpumask.h Pages: 1 -->
<svg width="582pt" height="364pt"
 viewBox="0.00 0.00 582.00 364.00" xmlns="http://www.w3.org/2000/svg" xmlns:xlink="http://www.w3.org/1999/xlink">
<g id="graph0" class="graph" transform="scale(1 1) rotate(0) translate(4 360)">
<title>cpumask.h</title>
<polygon fill="white" stroke="transparent" points="-4,4 -4,-360 578,-360 578,4 -4,4"/>
<!-- Node1 -->
<g id="node1" class="node">
<title>Node1</title>
<g id="a_node1"><a xlink:title="ODP CPU masks and enumeration.">
<polygon fill="#bfbfbf" stroke="black" points="490,-336.5 490,-355.5 560,-355.5 560,-336.5 490,-336.5"/>
<text text-anchor="middle" x="525" y="-343.5" font-family="Helvetica,sans-Serif" font-size="10.00">cpumask.h</text>
</a>
</g>
</g>
<!-- Node2 -->
<g id="node2" class="node">
<title>Node2</title>
<g id="a_node2"><a xlink:href="api_2cpumask_8h.html" target="_top" xlink:title="ODP CPU masks and enumeration.">
<polygon fill="white" stroke="black" points="490,-280.5 490,-299.5 560,-299.5 560,-280.5 490,-280.5"/>
<text text-anchor="middle" x="525" y="-287.5" font-family="Helvetica,sans-Serif" font-size="10.00">cpumask.h</text>
</a>
</g>
</g>
<!-- Node1&#45;&gt;Node2 -->
<g id="edge1" class="edge">
<title>Node1&#45;&gt;Node2</title>
<path fill="none" stroke="midnightblue" d="M525,-325.8C525,-316.91 525,-306.78 525,-299.75"/>
<polygon fill="midnightblue" stroke="midnightblue" points="521.5,-326.08 525,-336.08 528.5,-326.08 521.5,-326.08"/>
</g>
<!-- Node3 -->
<g id="node3" class="node">
<title>Node3</title>
<g id="a_node3"><a xlink:href="api_2abi-default_2thrmask_8h.html" target="_top" xlink:title="ODP thread masks.">
<polygon fill="white" stroke="black" points="252,-224.5 252,-243.5 318,-243.5 318,-224.5 252,-224.5"/>
<text text-anchor="middle" x="285" y="-231.5" font-family="Helvetica,sans-Serif" font-size="10.00">thrmask.h</text>
</a>
</g>
</g>
<!-- Node2&#45;&gt;Node3 -->
<g id="edge2" class="edge">
<title>Node2&#45;&gt;Node3</title>
<path fill="none" stroke="midnightblue" d="M479.94,-278.86C432.94,-268.29 360.39,-251.96 318.31,-242.5"/>
<polygon fill="midnightblue" stroke="midnightblue" points="479.32,-282.31 489.84,-281.09 480.86,-275.48 479.32,-282.31"/>
</g>
<!-- Node10 -->
<g id="node10" class="node">
<title>Node10</title>
<g id="a_node10"><a xlink:href="api_2spec_2init_8h.html" target="_top" xlink:title=" ">
<polygon fill="white" stroke="black" points="504.5,-224.5 504.5,-243.5 545.5,-243.5 545.5,-224.5 504.5,-224.5"/>
<text text-anchor="middle" x="525" y="-231.5" font-family="Helvetica,sans-Serif" font-size="10.00">init.h</text>
</a>
</g>
</g>
<!-- Node2&#45;&gt;Node10 -->
<g id="edge9" class="edge">
<title>Node2&#45;&gt;Node10</title>
<path fill="none" stroke="midnightblue" d="M525,-269.8C525,-260.91 525,-250.78 525,-243.75"/>
<polygon fill="midnightblue" stroke="midnightblue" points="521.5,-270.08 525,-280.08 528.5,-270.08 521.5,-270.08"/>
</g>
<!-- Node14 -->
<g id="node14" class="node">
<title>Node14</title>
<g id="a_node14"><a xlink:href="odp__api_8h.html" target="_top" xlink:title="The OpenDataPlane API.">
<polygon fill="white" stroke="black" points="504,-0.5 504,-19.5 568,-19.5 568,-0.5 504,-0.5"/>
<text text-anchor="middle" x="536" y="-7.5" font-family="Helvetica,sans-Serif" font-size="10.00">odp_api.h</text>
</a>
</g>
</g>
<!-- Node2&#45;&gt;Node14 -->
<g id="edge15" class="edge">
<title>Node2&#45;&gt;Node14</title>
<path fill="none" stroke="midnightblue" d="M537.88,-272.12C552.4,-251.37 574,-214.53 574,-179 574,-179 574,-179 574,-121 574,-81.4 551.73,-37.96 541.28,-19.77"/>
<polygon fill="midnightblue" stroke="midnightblue" points="534.87,-270.31 531.81,-280.46 540.53,-274.43 534.87,-270.31"/>
</g>
<!-- Node4 -->
<g id="node4" class="node">
<title>Node4</title>
<g id="a_node4"><a xlink:href="arch_2arm32-linux_2odp_2api_2abi_2thrmask_8h_source.html" target="_top" xlink:title=" ">
<polygon fill="white" stroke="black" points="0,-168.5 0,-187.5 66,-187.5 66,-168.5 0,-168.5"/>
<text text-anchor="middle" x="33" y="-175.5" font-family="Helvetica,sans-Serif" font-size="10.00">thrmask.h</text>
</a>
</g>
</g>
<!-- Node3&#45;&gt;Node4 -->
<g id="edge3" class="edge">
<title>Node3&#45;&gt;Node4</title>
<path fill="none" stroke="midnightblue" d="M241.98,-223.78C192.25,-213.12 111.45,-195.81 66.28,-186.13"/>
<polygon fill="midnightblue" stroke="midnightblue" points="241.28,-227.21 251.8,-225.88 242.75,-220.37 241.28,-227.21"/>
</g>
<!-- Node5 -->
<g id="node5" class="node">
<title>Node5</title>
<g id="a_node5"><a xlink:href="arch_2arm64-linux_2odp_2api_2abi_2thrmask_8h_source.html" target="_top" xlink:title=" ">
<polygon fill="white" stroke="black" points="84,-168.5 84,-187.5 150,-187.5 150,-168.5 84,-168.5"/>
<text text-anchor="middle" x="117" y="-175.5" font-family="Helvetica,sans-Serif" font-size="10.00">thrmask.h</text>
</a>
</g>
</g>
<!-- Node3&#45;&gt;Node5 -->
<g id="edge4" class="edge">
<title>Node3&#45;&gt;Node5</title>
<path fill="none" stroke="midnightblue" d="M248.61,-221.3C216.96,-211.13 171.83,-196.62 143.5,-187.52"/>
<polygon fill="midnightblue" stroke="midnightblue" points="247.79,-224.72 258.38,-224.44 249.93,-218.05 247.79,-224.72"/>
</g>
<!-- Node6 -->
<g id="node6" class="node">
<title>Node6</title>
<g id="a_node6"><a xlink:href="arch_2default-linux_2odp_2api_2abi_2thrmask_8h_source.html" target="_top" xlink:title=" ">
<polygon fill="white" stroke="black" points="168,-168.5 168,-187.5 234,-187.5 234,-168.5 168,-168.5"/>
<text text-anchor="middle" x="201" y="-175.5" font-family="Helvetica,sans-Serif" font-size="10.00">thrmask.h</text>
</a>
</g>
</g>
<!-- Node3&#45;&gt;Node6 -->
<g id="edge5" class="edge">
<title>Node3&#45;&gt;Node6</title>
<path fill="none" stroke="midnightblue" d="M263.07,-218.9C247.66,-209 227.55,-196.07 214.46,-187.65"/>
<polygon fill="midnightblue" stroke="midnightblue" points="261.2,-221.86 271.5,-224.32 264.98,-215.97 261.2,-221.86"/>
</g>
<!-- Node7 -->
<g id="node7" class="node">
<title>Node7</title>
<g id="a_node7"><a xlink:href="arch_2power64-linux_2odp_2api_2abi_2thrmask_8h_source.html" target="_top" xlink:title=" ">
<polygon fill="white" stroke="black" points="252,-168.5 252,-187.5 318,-187.5 318,-168.5 252,-168.5"/>
<text text-anchor="middle" x="285" y="-175.5" font-family="Helvetica,sans-Serif" font-size="10.00">thrmask.h</text>
</a>
</g>
</g>
<!-- Node3&#45;&gt;Node7 -->
<g id="edge6" class="edge">
<title>Node3&#45;&gt;Node7</title>
<path fill="none" stroke="midnightblue" d="M285,-213.8C285,-204.91 285,-194.78 285,-187.75"/>
<polygon fill="midnightblue" stroke="midnightblue" points="281.5,-214.08 285,-224.08 288.5,-214.08 281.5,-214.08"/>
</g>
<!-- Node8 -->
<g id="node8" class="node">
<title>Node8</title>
<g id="a_node8"><a xlink:href="arch_2x86__32-linux_2odp_2api_2abi_2thrmask_8h_source.html" target="_top" xlink:title=" ">
<polygon fill="white" stroke="black" points="336,-168.5 336,-187.5 402,-187.5 402,-168.5 336,-168.5"/>
<text text-anchor="middle" x="369" y="-175.5" font-family="Helvetica,sans-Serif" font-size="10.00">thrmask.h</text>
</a>
</g>
</g>
<!-- Node3&#45;&gt;Node8 -->
<g id="edge7" class="edge">
<title>Node3&#45;&gt;Node8</title>
<path fill="none" stroke="midnightblue" d="M306.93,-218.9C322.34,-209 342.45,-196.07 355.54,-187.65"/>
<polygon fill="midnightblue" stroke="midnightblue" points="305.02,-215.97 298.5,-224.32 308.8,-221.86 305.02,-215.97"/>
</g>
<!-- Node9 -->
<g id="node9" class="node">
<title>Node9</title>
<g id="a_node9"><a xlink:href="arch_2x86__64-linux_2odp_2api_2abi_2thrmask_8h_source.html" target="_top" xlink:title=" ">
<polygon fill="white" stroke="black" points="420,-168.5 420,-187.5 486,-187.5 486,-168.5 420,-168.5"/>
<text text-anchor="middle" x="453" y="-175.5" font-family="Helvetica,sans-Serif" font-size="10.00">thrmask.h</text>
</a>
</g>
</g>
<!-- Node3&#45;&gt;Node9 -->
<g id="edge8" class="edge">
<title>Node3&#45;&gt;Node9</title>
<path fill="none" stroke="midnightblue" d="M321.39,-221.3C353.04,-211.13 398.17,-196.62 426.5,-187.52"/>
<polygon fill="midnightblue" stroke="midnightblue" points="320.07,-218.05 311.62,-224.44 322.21,-224.72 320.07,-218.05"/>
</g>
<!-- Node11 -->
<g id="node11" class="node">
<title>Node11</title>
<g id="a_node11"><a xlink:href="api_2init_8h.html" target="_top" xlink:title="ODP initialization.">
<polygon fill="white" stroke="black" points="504.5,-168.5 504.5,-187.5 545.5,-187.5 545.5,-168.5 504.5,-168.5"/>
<text text-anchor="middle" x="525" y="-175.5" font-family="Helvetica,sans-Serif" font-size="10.00">init.h</text>
</a>
</g>
</g>
<!-- Node10&#45;&gt;Node11 -->
<g id="edge10" class="edge">
<title>Node10&#45;&gt;Node11</title>
<path fill="none" stroke="midnightblue" d="M525,-213.8C525,-204.91 525,-194.78 525,-187.75"/>
<polygon fill="midnightblue" stroke="midnightblue" points="521.5,-214.08 525,-224.08 528.5,-214.08 521.5,-214.08"/>
</g>
<!-- Node12 -->
<g id="node12" class="node">
<title>Node12</title>
<g id="a_node12"><a xlink:href="api_2spec_2shared__memory_8h.html" target="_top" xlink:title="ODP shared memory.">
<polygon fill="white" stroke="black" points="404,-112.5 404,-131.5 508,-131.5 508,-112.5 404,-112.5"/>
<text text-anchor="middle" x="456" y="-119.5" font-family="Helvetica,sans-Serif" font-size="10.00">shared_memory.h</text>
</a>
</g>
</g>
<!-- Node11&#45;&gt;Node12 -->
<g id="edge11" class="edge">
<title>Node11&#45;&gt;Node12</title>
<path fill="none" stroke="midnightblue" d="M505.96,-162.1C493.54,-152.38 477.76,-140.03 467.29,-131.83"/>
<polygon fill="midnightblue" stroke="midnightblue" points="503.88,-164.92 513.91,-168.32 508.2,-159.4 503.88,-164.92"/>
</g>
<!-- Node11&#45;&gt;Node14 -->
<g id="edge14" class="edge">
<title>Node11&#45;&gt;Node14</title>
<path fill="none" stroke="midnightblue" d="M526.26,-157.93C528.65,-121.92 533.73,-45.23 535.43,-19.57"/>
<polygon fill="midnightblue" stroke="midnightblue" points="522.76,-157.87 525.59,-168.08 529.75,-158.33 522.76,-157.87"/>
</g>
<!-- Node13 -->
<g id="node13" class="node">
<title>Node13</title>
<g id="a_node13"><a xlink:href="api_2shared__memory_8h.html" target="_top" xlink:title="ODP shared memory.">
<polygon fill="white" stroke="black" points="404,-56.5 404,-75.5 508,-75.5 508,-56.5 404,-56.5"/>
<text text-anchor="middle" x="456" y="-63.5" font-family="Helvetica,sans-Serif" font-size="10.00">shared_memory.h</text>
</a>
</g>
</g>
<!-- Node12&#45;&gt;Node13 -->
<g id="edge12" class="edge">
<title>Node12&#45;&gt;Node13</title>
<path fill="none" stroke="midnightblue" d="M456,-101.8C456,-92.91 456,-82.78 456,-75.75"/>
<polygon fill="midnightblue" stroke="midnightblue" points="452.5,-102.08 456,-112.08 459.5,-102.08 452.5,-102.08"/>
</g>
<!-- Node13&#45;&gt;Node14 -->
<g id="edge13" class="edge">
<title>Node13&#45;&gt;Node14</title>
<path fill="none" stroke="midnightblue" d="M477.3,-50.62C491.92,-40.76 510.83,-27.99 523.18,-19.65"/>
<polygon fill="midnightblue" stroke="midnightblue" points="475.18,-47.83 468.85,-56.32 479.1,-53.63 475.18,-47.83"/>
</g>
</g>
</svg>
