<?xml version="1.0" encoding="UTF-8" standalone="no"?>
<!DOCTYPE svg PUBLIC "-//W3C//DTD SVG 1.1//EN"
 "http://www.w3.org/Graphics/SVG/1.1/DTD/svg11.dtd">
<!-- Generated by graphviz version 2.43.0 (0)
 -->
<!-- Title: deprecated.h Pages: 1 -->
<svg width="125pt" height="308pt"
 viewBox="0.00 0.00 125.00 308.00" xmlns="http://www.w3.org/2000/svg" xmlns:xlink="http://www.w3.org/1999/xlink">
<g id="graph0" class="graph" transform="scale(1 1) rotate(0) translate(4 304)">
<title>deprecated.h</title>
<polygon fill="white" stroke="transparent" points="-4,4 -4,-304 121,-304 121,4 -4,4"/>
<!-- Node1 -->
<g id="node1" class="node">
<title>Node1</title>
<g id="a_node1"><a xlink:title="Control deprecated API definitions.">
<polygon fill="#bfbfbf" stroke="black" points="37,-280.5 37,-299.5 117,-299.5 117,-280.5 37,-280.5"/>
<text text-anchor="middle" x="77" y="-287.5" font-family="Helvetica,sans-Serif" font-size="10.00">deprecated.h</text>
</a>
</g>
</g>
<!-- Node2 -->
<g id="node2" class="node">
<title>Node2</title>
<g id="a_node2"><a xlink:href="api_2spec_2timer__types_8h.html" target="_top" xlink:title="ODP timer API type definitions.">
<polygon fill="white" stroke="black" points="0,-224.5 0,-243.5 84,-243.5 84,-224.5 0,-224.5"/>
<text text-anchor="middle" x="42" y="-231.5" font-family="Helvetica,sans-Serif" font-size="10.00">timer_types.h</text>
</a>
</g>
</g>
<!-- Node1&#45;&gt;Node2 -->
<g id="edge1" class="edge">
<title>Node1&#45;&gt;Node2</title>
<path fill="none" stroke="midnightblue" d="M65.7,-271.57C59.68,-262.27 52.53,-251.25 47.67,-243.75"/>
<polygon fill="midnightblue" stroke="midnightblue" points="62.84,-273.6 71.22,-280.08 68.72,-269.79 62.84,-273.6"/>
</g>
<!-- Node6 -->
<g id="node6" class="node">
<title>Node6</title>
<g id="a_node6"><a xlink:href="odp__api_8h.html" target="_top" xlink:title="The OpenDataPlane API.">
<polygon fill="white" stroke="black" points="49,-0.5 49,-19.5 113,-19.5 113,-0.5 49,-0.5"/>
<text text-anchor="middle" x="81" y="-7.5" font-family="Helvetica,sans-Serif" font-size="10.00">odp_api.h</text>
</a>
</g>
</g>
<!-- Node1&#45;&gt;Node6 -->
<g id="edge6" class="edge">
<title>Node1&#45;&gt;Node6</title>
<path fill="none" stroke="midnightblue" d="M86.32,-271.37C96.69,-250.09 112,-212.93 112,-179 112,-179 112,-179 112,-121 112,-81.91 93.64,-37.84 85.18,-19.61"/>
<polygon fill="midnightblue" stroke="midnightblue" points="83.12,-269.95 81.72,-280.46 89.36,-273.12 83.12,-269.95"/>
</g>
<!-- Node3 -->
<g id="node3" class="node">
<title>Node3</title>
<g id="a_node3"><a xlink:href="api_2timer__types_8h.html" target="_top" xlink:title="ODP timer service.">
<polygon fill="white" stroke="black" points="0,-168.5 0,-187.5 84,-187.5 84,-168.5 0,-168.5"/>
<text text-anchor="middle" x="42" y="-175.5" font-family="Helvetica,sans-Serif" font-size="10.00">timer_types.h</text>
</a>
</g>
</g>
<!-- Node2&#45;&gt;Node3 -->
<g id="edge2" class="edge">
<title>Node2&#45;&gt;Node3</title>
<path fill="none" stroke="midnightblue" d="M42,-213.8C42,-204.91 42,-194.78 42,-187.75"/>
<polygon fill="midnightblue" stroke="midnightblue" points="38.5,-214.08 42,-224.08 45.5,-214.08 38.5,-214.08"/>
</g>
<!-- Node4 -->
<g id="node4" class="node">
<title>Node4</title>
<g id="a_node4"><a xlink:href="api_2spec_2timer_8h.html" target="_top" xlink:title="ODP timer service.">
<polygon fill="white" stroke="black" points="24.5,-112.5 24.5,-131.5 75.5,-131.5 75.5,-112.5 24.5,-112.5"/>
<text text-anchor="middle" x="50" y="-119.5" font-family="Helvetica,sans-Serif" font-size="10.00">timer.h</text>
</a>
</g>
</g>
<!-- Node3&#45;&gt;Node4 -->
<g id="edge3" class="edge">
<title>Node3&#45;&gt;Node4</title>
<path fill="none" stroke="midnightblue" d="M44.8,-158.1C46.13,-149.14 47.65,-138.86 48.7,-131.75"/>
<polygon fill="midnightblue" stroke="midnightblue" points="41.32,-157.68 43.32,-168.08 48.25,-158.7 41.32,-157.68"/>
</g>
<!-- Node5 -->
<g id="node5" class="node">
<title>Node5</title>
<g id="a_node5"><a xlink:href="api_2timer_8h.html" target="_top" xlink:title="ODP timer service.">
<polygon fill="white" stroke="black" points="28.5,-56.5 28.5,-75.5 79.5,-75.5 79.5,-56.5 28.5,-56.5"/>
<text text-anchor="middle" x="54" y="-63.5" font-family="Helvetica,sans-Serif" font-size="10.00">timer.h</text>
</a>
</g>
</g>
<!-- Node4&#45;&gt;Node5 -->
<g id="edge4" class="edge">
<title>Node4&#45;&gt;Node5</title>
<path fill="none" stroke="midnightblue" d="M51.4,-102.1C52.06,-93.14 52.83,-82.86 53.35,-75.75"/>
<polygon fill="midnightblue" stroke="midnightblue" points="47.91,-101.85 50.66,-112.08 54.89,-102.37 47.91,-101.85"/>
</g>
<!-- Node5&#45;&gt;Node6 -->
<g id="edge5" class="edge">
<title>Node5&#45;&gt;Node6</title>
<path fill="none" stroke="midnightblue" d="M63.01,-46.98C67.59,-37.82 72.95,-27.09 76.62,-19.75"/>
<polygon fill="midnightblue" stroke="midnightblue" points="59.8,-45.57 58.46,-56.08 66.06,-48.7 59.8,-45.57"/>
</g>
</g>
</svg>
