<?xml version="1.0" encoding="UTF-8" standalone="no"?>
<!DOCTYPE svg PUBLIC "-//W3C//DTD SVG 1.1//EN"
 "http://www.w3.org/Graphics/SVG/1.1/DTD/svg11.dtd">
<!-- Generated by graphviz version 2.43.0 (0)
 -->
<!-- Title: deprecated.h Pages: 1 -->
<svg width="1073pt" height="868pt"
 viewBox="0.00 0.00 1072.50 868.00" xmlns="http://www.w3.org/2000/svg" xmlns:xlink="http://www.w3.org/1999/xlink">
<g id="graph0" class="graph" transform="scale(1 1) rotate(0) translate(4 864)">
<title>deprecated.h</title>
<polygon fill="white" stroke="transparent" points="-4,4 -4,-864 1068.5,-864 1068.5,4 -4,4"/>
<!-- Node1 -->
<g id="node1" class="node">
<title>Node1</title>
<g id="a_node1"><a xlink:title="Control deprecated API definitions.">
<polygon fill="#bfbfbf" stroke="black" points="310,-840.5 310,-859.5 390,-859.5 390,-840.5 310,-840.5"/>
<text text-anchor="middle" x="350" y="-847.5" font-family="Helvetica,sans-Serif" font-size="10.00">deprecated.h</text>
</a>
</g>
</g>
<!-- Node2 -->
<g id="node2" class="node">
<title>Node2</title>
<g id="a_node2"><a xlink:href="api_2spec_2crypto__types_8h.html" target="_top" xlink:title="ODP crypto types.">
<polygon fill="white" stroke="black" points="208.5,-448.5 208.5,-467.5 297.5,-467.5 297.5,-448.5 208.5,-448.5"/>
<text text-anchor="middle" x="253" y="-455.5" font-family="Helvetica,sans-Serif" font-size="10.00">crypto_types.h</text>
</a>
</g>
</g>
<!-- Node1&#45;&gt;Node2 -->
<g id="edge1" class="edge">
<title>Node1&#45;&gt;Node2</title>
<path fill="none" stroke="midnightblue" d="M300.22,-838.84C231.45,-821.83 109.91,-780.37 57,-692 -1.38,-594.49 176.55,-496.42 235.04,-467.51"/>
<polygon fill="midnightblue" stroke="midnightblue" points="299.42,-842.25 309.97,-841.17 301.06,-835.44 299.42,-842.25"/>
</g>
<!-- Node6 -->
<g id="node6" class="node">
<title>Node6</title>
<g id="a_node6"><a xlink:href="odp__api_8h.html" target="_top" xlink:title="The OpenDataPlane API.">
<polygon fill="white" stroke="black" points="553,-0.5 553,-19.5 617,-19.5 617,-0.5 553,-0.5"/>
<text text-anchor="middle" x="585" y="-7.5" font-family="Helvetica,sans-Serif" font-size="10.00">odp_api.h</text>
</a>
</g>
</g>
<!-- Node1&#45;&gt;Node6 -->
<g id="edge73" class="edge">
<title>Node1&#45;&gt;Node6</title>
<path fill="none" stroke="midnightblue" d="M299.7,-843.8C202.86,-832.39 0,-801.07 0,-739 0,-739 0,-739 0,-121 0,-68.36 49.32,-73.39 99,-56 183.28,-26.5 458.17,-15.08 552.71,-11.96"/>
<polygon fill="midnightblue" stroke="midnightblue" points="299.52,-847.3 309.85,-844.97 300.32,-840.35 299.52,-847.3"/>
</g>
<!-- Node11 -->
<g id="node11" class="node">
<title>Node11</title>
<g id="a_node11"><a xlink:href="api_2spec_2packet__io__types_8h.html" target="_top" xlink:title="ODP Packet IO types.">
<polygon fill="white" stroke="black" points="520,-448.5 520,-467.5 624,-467.5 624,-448.5 520,-448.5"/>
<text text-anchor="middle" x="572" y="-455.5" font-family="Helvetica,sans-Serif" font-size="10.00">packet_io_types.h</text>
</a>
</g>
</g>
<!-- Node1&#45;&gt;Node11 -->
<g id="edge12" class="edge">
<title>Node1&#45;&gt;Node11</title>
<path fill="none" stroke="midnightblue" d="M400.14,-842.78C492.01,-829.97 678,-796.89 678,-739 678,-739 678,-739 678,-569 678,-519.14 620.83,-483.19 590.46,-467.61"/>
<polygon fill="midnightblue" stroke="midnightblue" points="399.65,-839.31 390.22,-844.13 400.6,-846.25 399.65,-839.31"/>
</g>
<!-- Node21 -->
<g id="node21" class="node">
<title>Node21</title>
<g id="a_node21"><a xlink:href="api_2spec_2packet__types_8h.html" target="_top" xlink:title="ODP packet types.">
<polygon fill="white" stroke="black" points="305,-784.5 305,-803.5 395,-803.5 395,-784.5 305,-784.5"/>
<text text-anchor="middle" x="350" y="-791.5" font-family="Helvetica,sans-Serif" font-size="10.00">packet_types.h</text>
</a>
</g>
</g>
<!-- Node1&#45;&gt;Node21 -->
<g id="edge30" class="edge">
<title>Node1&#45;&gt;Node21</title>
<path fill="none" stroke="midnightblue" d="M350,-829.8C350,-820.91 350,-810.78 350,-803.75"/>
<polygon fill="midnightblue" stroke="midnightblue" points="346.5,-830.08 350,-840.08 353.5,-830.08 346.5,-830.08"/>
</g>
<!-- Node39 -->
<g id="node39" class="node">
<title>Node39</title>
<g id="a_node39"><a xlink:href="api_2spec_2timer_8h.html" target="_top" xlink:title="ODP timer service.">
<polygon fill="white" stroke="black" points="1013.5,-448.5 1013.5,-467.5 1064.5,-467.5 1064.5,-448.5 1013.5,-448.5"/>
<text text-anchor="middle" x="1039" y="-455.5" font-family="Helvetica,sans-Serif" font-size="10.00">timer.h</text>
</a>
</g>
</g>
<!-- Node1&#45;&gt;Node39 -->
<g id="edge72" class="edge">
<title>Node1&#45;&gt;Node39</title>
<path fill="none" stroke="midnightblue" d="M400.26,-845.71C551.83,-835.14 994,-799.15 994,-739 994,-739 994,-739 994,-569 994,-528.56 1020.38,-485.56 1032.74,-467.63"/>
<polygon fill="midnightblue" stroke="midnightblue" points="400.02,-842.22 390.29,-846.4 400.5,-849.21 400.02,-842.22"/>
</g>
<!-- Node3 -->
<g id="node3" class="node">
<title>Node3</title>
<g id="a_node3"><a xlink:href="api_2crypto__types_8h.html" target="_top" xlink:title="ODP crypto.">
<polygon fill="white" stroke="black" points="208.5,-280.5 208.5,-299.5 297.5,-299.5 297.5,-280.5 208.5,-280.5"/>
<text text-anchor="middle" x="253" y="-287.5" font-family="Helvetica,sans-Serif" font-size="10.00">crypto_types.h</text>
</a>
</g>
</g>
<!-- Node2&#45;&gt;Node3 -->
<g id="edge2" class="edge">
<title>Node2&#45;&gt;Node3</title>
<path fill="none" stroke="midnightblue" d="M253,-437.93C253,-401.92 253,-325.23 253,-299.57"/>
<polygon fill="midnightblue" stroke="midnightblue" points="249.5,-438.08 253,-448.08 256.5,-438.08 249.5,-438.08"/>
</g>
<!-- Node4 -->
<g id="node4" class="node">
<title>Node4</title>
<g id="a_node4"><a xlink:href="api_2spec_2crypto_8h.html" target="_top" xlink:title="ODP crypto.">
<polygon fill="white" stroke="black" points="204,-224.5 204,-243.5 260,-243.5 260,-224.5 204,-224.5"/>
<text text-anchor="middle" x="232" y="-231.5" font-family="Helvetica,sans-Serif" font-size="10.00">crypto.h</text>
</a>
</g>
</g>
<!-- Node3&#45;&gt;Node4 -->
<g id="edge3" class="edge">
<title>Node3&#45;&gt;Node4</title>
<path fill="none" stroke="midnightblue" d="M245.88,-270.69C242.34,-261.59 238.23,-251.01 235.4,-243.75"/>
<polygon fill="midnightblue" stroke="midnightblue" points="242.65,-272.03 249.53,-280.08 249.17,-269.49 242.65,-272.03"/>
</g>
<!-- Node7 -->
<g id="node7" class="node">
<title>Node7</title>
<g id="a_node7"><a xlink:href="api_2spec_2ipsec_8h.html" target="_top" xlink:title="ODP IPsec API.">
<polygon fill="white" stroke="black" points="343.5,-112.5 343.5,-131.5 394.5,-131.5 394.5,-112.5 343.5,-112.5"/>
<text text-anchor="middle" x="369" y="-119.5" font-family="Helvetica,sans-Serif" font-size="10.00">ipsec.h</text>
</a>
</g>
</g>
<!-- Node3&#45;&gt;Node7 -->
<g id="edge6" class="edge">
<title>Node3&#45;&gt;Node7</title>
<path fill="none" stroke="midnightblue" d="M259,-270.68C267.81,-245.64 286.07,-200.18 312,-168 324.18,-152.88 342.33,-139.67 354.87,-131.54"/>
<polygon fill="midnightblue" stroke="midnightblue" points="255.62,-269.75 255.71,-280.34 262.25,-272 255.62,-269.75"/>
</g>
<!-- Node9 -->
<g id="node9" class="node">
<title>Node9</title>
<g id="a_node9"><a xlink:href="api_2spec_2ipsec__types_8h.html" target="_top" xlink:title="ODP IPsec API type definitions.">
<polygon fill="white" stroke="black" points="392.5,-224.5 392.5,-243.5 475.5,-243.5 475.5,-224.5 392.5,-224.5"/>
<text text-anchor="middle" x="434" y="-231.5" font-family="Helvetica,sans-Serif" font-size="10.00">ipsec_types.h</text>
</a>
</g>
</g>
<!-- Node3&#45;&gt;Node9 -->
<g id="edge9" class="edge">
<title>Node3&#45;&gt;Node9</title>
<path fill="none" stroke="midnightblue" d="M291.32,-277.57C325.46,-267.38 374.66,-252.7 405.45,-243.52"/>
<polygon fill="midnightblue" stroke="midnightblue" points="290.26,-274.23 281.68,-280.44 292.26,-280.94 290.26,-274.23"/>
</g>
<!-- Node5 -->
<g id="node5" class="node">
<title>Node5</title>
<g id="a_node5"><a xlink:href="api_2crypto_8h.html" target="_top" xlink:title="ODP crypto.">
<polygon fill="white" stroke="black" points="204,-168.5 204,-187.5 260,-187.5 260,-168.5 204,-168.5"/>
<text text-anchor="middle" x="232" y="-175.5" font-family="Helvetica,sans-Serif" font-size="10.00">crypto.h</text>
</a>
</g>
</g>
<!-- Node4&#45;&gt;Node5 -->
<g id="edge4" class="edge">
<title>Node4&#45;&gt;Node5</title>
<path fill="none" stroke="midnightblue" d="M232,-213.8C232,-204.91 232,-194.78 232,-187.75"/>
<polygon fill="midnightblue" stroke="midnightblue" points="228.5,-214.08 232,-224.08 235.5,-214.08 228.5,-214.08"/>
</g>
<!-- Node5&#45;&gt;Node6 -->
<g id="edge5" class="edge">
<title>Node5&#45;&gt;Node6</title>
<path fill="none" stroke="midnightblue" d="M242.53,-159.47C259.71,-132.51 296.49,-81.34 342,-56 410.22,-18.01 504.26,-11.29 552.93,-10.58"/>
<polygon fill="midnightblue" stroke="midnightblue" points="239.4,-157.87 237.1,-168.21 245.35,-161.56 239.4,-157.87"/>
</g>
<!-- Node8 -->
<g id="node8" class="node">
<title>Node8</title>
<g id="a_node8"><a xlink:href="api_2ipsec_8h.html" target="_top" xlink:title="ODP IPSEC API &#45; platform specific header.">
<polygon fill="white" stroke="black" points="351.5,-56.5 351.5,-75.5 402.5,-75.5 402.5,-56.5 351.5,-56.5"/>
<text text-anchor="middle" x="377" y="-63.5" font-family="Helvetica,sans-Serif" font-size="10.00">ipsec.h</text>
</a>
</g>
</g>
<!-- Node7&#45;&gt;Node8 -->
<g id="edge7" class="edge">
<title>Node7&#45;&gt;Node8</title>
<path fill="none" stroke="midnightblue" d="M371.8,-102.1C373.13,-93.14 374.65,-82.86 375.7,-75.75"/>
<polygon fill="midnightblue" stroke="midnightblue" points="368.32,-101.68 370.32,-112.08 375.25,-102.7 368.32,-101.68"/>
</g>
<!-- Node8&#45;&gt;Node6 -->
<g id="edge8" class="edge">
<title>Node8&#45;&gt;Node6</title>
<path fill="none" stroke="midnightblue" d="M412.21,-55.86C451.55,-45.65 514.72,-29.25 552.8,-19.36"/>
<polygon fill="midnightblue" stroke="midnightblue" points="411.3,-52.48 402.5,-58.38 413.06,-59.25 411.3,-52.48"/>
</g>
<!-- Node10 -->
<g id="node10" class="node">
<title>Node10</title>
<g id="a_node10"><a xlink:href="api_2ipsec__types_8h.html" target="_top" xlink:title="ODP IPsec.">
<polygon fill="white" stroke="black" points="354.5,-168.5 354.5,-187.5 437.5,-187.5 437.5,-168.5 354.5,-168.5"/>
<text text-anchor="middle" x="396" y="-175.5" font-family="Helvetica,sans-Serif" font-size="10.00">ipsec_types.h</text>
</a>
</g>
</g>
<!-- Node9&#45;&gt;Node10 -->
<g id="edge10" class="edge">
<title>Node9&#45;&gt;Node10</title>
<path fill="none" stroke="midnightblue" d="M421.94,-215.86C415.36,-206.5 407.49,-195.33 402.16,-187.75"/>
<polygon fill="midnightblue" stroke="midnightblue" points="419.11,-217.92 427.73,-224.08 424.83,-213.89 419.11,-217.92"/>
</g>
<!-- Node10&#45;&gt;Node7 -->
<g id="edge11" class="edge">
<title>Node10&#45;&gt;Node7</title>
<path fill="none" stroke="midnightblue" d="M386.99,-158.98C382.41,-149.82 377.05,-139.09 373.38,-131.75"/>
<polygon fill="midnightblue" stroke="midnightblue" points="383.94,-160.7 391.54,-168.08 390.2,-157.57 383.94,-160.7"/>
</g>
<!-- Node12 -->
<g id="node12" class="node">
<title>Node12</title>
<g id="a_node12"><a xlink:href="api_2packet__io__types_8h.html" target="_top" xlink:title="ODP Packet IO.">
<polygon fill="white" stroke="black" points="520,-392.5 520,-411.5 624,-411.5 624,-392.5 520,-392.5"/>
<text text-anchor="middle" x="572" y="-399.5" font-family="Helvetica,sans-Serif" font-size="10.00">packet_io_types.h</text>
</a>
</g>
</g>
<!-- Node11&#45;&gt;Node12 -->
<g id="edge13" class="edge">
<title>Node11&#45;&gt;Node12</title>
<path fill="none" stroke="midnightblue" d="M572,-437.8C572,-428.91 572,-418.78 572,-411.75"/>
<polygon fill="midnightblue" stroke="midnightblue" points="568.5,-438.08 572,-448.08 575.5,-438.08 568.5,-438.08"/>
</g>
<!-- Node12&#45;&gt;Node9 -->
<g id="edge21" class="edge">
<title>Node12&#45;&gt;Node9</title>
<path fill="none" stroke="midnightblue" d="M509.53,-399.19C477.64,-394.7 441.36,-383.31 421,-356 395.24,-321.44 418.79,-265.13 429.42,-243.67"/>
<polygon fill="midnightblue" stroke="midnightblue" points="509.36,-402.7 519.71,-400.42 510.2,-395.75 509.36,-402.7"/>
</g>
<!-- Node13 -->
<g id="node13" class="node">
<title>Node13</title>
<g id="a_node13"><a xlink:href="api_2spec_2classification_8h.html" target="_top" xlink:title="ODP classification descriptor.">
<polygon fill="white" stroke="black" points="608.5,-336.5 608.5,-355.5 697.5,-355.5 697.5,-336.5 608.5,-336.5"/>
<text text-anchor="middle" x="653" y="-343.5" font-family="Helvetica,sans-Serif" font-size="10.00">classification.h</text>
</a>
</g>
</g>
<!-- Node12&#45;&gt;Node13 -->
<g id="edge14" class="edge">
<title>Node12&#45;&gt;Node13</title>
<path fill="none" stroke="midnightblue" d="M593.57,-386.62C608.36,-376.76 627.51,-363.99 640.02,-355.65"/>
<polygon fill="midnightblue" stroke="midnightblue" points="591.39,-383.86 585.01,-392.32 595.28,-389.69 591.39,-383.86"/>
</g>
<!-- Node15 -->
<g id="node15" class="node">
<title>Node15</title>
<g id="a_node15"><a xlink:href="api_2spec_2packet__io_8h.html" target="_top" xlink:title="ODP Packet IO.">
<polygon fill="white" stroke="black" points="549,-224.5 549,-243.5 621,-243.5 621,-224.5 549,-224.5"/>
<text text-anchor="middle" x="585" y="-231.5" font-family="Helvetica,sans-Serif" font-size="10.00">packet_io.h</text>
</a>
</g>
</g>
<!-- Node12&#45;&gt;Node15 -->
<g id="edge25" class="edge">
<title>Node12&#45;&gt;Node15</title>
<path fill="none" stroke="midnightblue" d="M573.49,-381.93C576.31,-345.92 582.32,-269.23 584.33,-243.57"/>
<polygon fill="midnightblue" stroke="midnightblue" points="569.99,-381.83 572.7,-392.08 576.97,-382.38 569.99,-381.83"/>
</g>
<!-- Node17 -->
<g id="node17" class="node">
<title>Node17</title>
<g id="a_node17"><a xlink:href="api_2spec_2packet_8h.html" target="_top" xlink:title="ODP packet descriptor.">
<polygon fill="white" stroke="black" points="754,-336.5 754,-355.5 812,-355.5 812,-336.5 754,-336.5"/>
<text text-anchor="middle" x="783" y="-343.5" font-family="Helvetica,sans-Serif" font-size="10.00">packet.h</text>
</a>
</g>
</g>
<!-- Node12&#45;&gt;Node17 -->
<g id="edge22" class="edge">
<title>Node12&#45;&gt;Node17</title>
<path fill="none" stroke="midnightblue" d="M615.24,-389.93C656.61,-379.35 717.89,-363.66 753.8,-354.47"/>
<polygon fill="midnightblue" stroke="midnightblue" points="614.25,-386.57 605.43,-392.44 615.99,-393.35 614.25,-386.57"/>
</g>
<!-- Node19 -->
<g id="node19" class="node">
<title>Node19</title>
<g id="a_node19"><a xlink:href="api_2spec_2traffic__mngr_8h.html" target="_top" xlink:title=" ">
<polygon fill="white" stroke="black" points="430,-336.5 430,-355.5 514,-355.5 514,-336.5 430,-336.5"/>
<text text-anchor="middle" x="472" y="-343.5" font-family="Helvetica,sans-Serif" font-size="10.00">traffic_mngr.h</text>
</a>
</g>
</g>
<!-- Node12&#45;&gt;Node19 -->
<g id="edge26" class="edge">
<title>Node12&#45;&gt;Node19</title>
<path fill="none" stroke="midnightblue" d="M546.91,-387.45C528.45,-377.48 503.9,-364.23 488.03,-355.65"/>
<polygon fill="midnightblue" stroke="midnightblue" points="545.47,-390.65 555.93,-392.32 548.8,-384.49 545.47,-390.65"/>
</g>
<!-- Node14 -->
<g id="node14" class="node">
<title>Node14</title>
<g id="a_node14"><a xlink:href="api_2classification_8h.html" target="_top" xlink:title="ODP classification descriptor.">
<polygon fill="white" stroke="black" points="608.5,-280.5 608.5,-299.5 697.5,-299.5 697.5,-280.5 608.5,-280.5"/>
<text text-anchor="middle" x="653" y="-287.5" font-family="Helvetica,sans-Serif" font-size="10.00">classification.h</text>
</a>
</g>
</g>
<!-- Node13&#45;&gt;Node14 -->
<g id="edge15" class="edge">
<title>Node13&#45;&gt;Node14</title>
<path fill="none" stroke="midnightblue" d="M653,-325.8C653,-316.91 653,-306.78 653,-299.75"/>
<polygon fill="midnightblue" stroke="midnightblue" points="649.5,-326.08 653,-336.08 656.5,-326.08 649.5,-326.08"/>
</g>
<!-- Node14&#45;&gt;Node6 -->
<g id="edge20" class="edge">
<title>Node14&#45;&gt;Node6</title>
<path fill="none" stroke="midnightblue" d="M652.45,-270.25C651.86,-248.36 651,-211.06 651,-179 651,-179 651,-179 651,-121 651,-77.79 613.1,-36.9 594.74,-19.63"/>
<polygon fill="midnightblue" stroke="midnightblue" points="648.96,-270.55 652.74,-280.44 655.96,-270.35 648.96,-270.55"/>
</g>
<!-- Node14&#45;&gt;Node9 -->
<g id="edge16" class="edge">
<title>Node14&#45;&gt;Node9</title>
<path fill="none" stroke="midnightblue" d="M608.49,-278.02C567.12,-267.82 506.36,-252.84 468.54,-243.52"/>
<polygon fill="midnightblue" stroke="midnightblue" points="607.75,-281.45 618.3,-280.44 609.43,-274.65 607.75,-281.45"/>
</g>
<!-- Node14&#45;&gt;Node15 -->
<g id="edge17" class="edge">
<title>Node14&#45;&gt;Node15</title>
<path fill="none" stroke="midnightblue" d="M634.24,-274.1C622,-264.38 606.44,-252.03 596.12,-243.83"/>
<polygon fill="midnightblue" stroke="midnightblue" points="632.07,-276.85 642.07,-280.32 636.42,-271.36 632.07,-276.85"/>
</g>
<!-- Node16 -->
<g id="node16" class="node">
<title>Node16</title>
<g id="a_node16"><a xlink:href="api_2packet__io_8h.html" target="_top" xlink:title="ODP Packet IO.">
<polygon fill="white" stroke="black" points="549,-168.5 549,-187.5 621,-187.5 621,-168.5 549,-168.5"/>
<text text-anchor="middle" x="585" y="-175.5" font-family="Helvetica,sans-Serif" font-size="10.00">packet_io.h</text>
</a>
</g>
</g>
<!-- Node15&#45;&gt;Node16 -->
<g id="edge18" class="edge">
<title>Node15&#45;&gt;Node16</title>
<path fill="none" stroke="midnightblue" d="M585,-213.8C585,-204.91 585,-194.78 585,-187.75"/>
<polygon fill="midnightblue" stroke="midnightblue" points="581.5,-214.08 585,-224.08 588.5,-214.08 581.5,-214.08"/>
</g>
<!-- Node16&#45;&gt;Node6 -->
<g id="edge19" class="edge">
<title>Node16&#45;&gt;Node6</title>
<path fill="none" stroke="midnightblue" d="M585,-157.93C585,-121.92 585,-45.23 585,-19.57"/>
<polygon fill="midnightblue" stroke="midnightblue" points="581.5,-158.08 585,-168.08 588.5,-158.08 581.5,-158.08"/>
</g>
<!-- Node18 -->
<g id="node18" class="node">
<title>Node18</title>
<g id="a_node18"><a xlink:href="api_2packet_8h.html" target="_top" xlink:title="ODP packet descriptor.">
<polygon fill="white" stroke="black" points="754,-224.5 754,-243.5 812,-243.5 812,-224.5 754,-224.5"/>
<text text-anchor="middle" x="783" y="-231.5" font-family="Helvetica,sans-Serif" font-size="10.00">packet.h</text>
</a>
</g>
</g>
<!-- Node17&#45;&gt;Node18 -->
<g id="edge23" class="edge">
<title>Node17&#45;&gt;Node18</title>
<path fill="none" stroke="midnightblue" d="M783,-326.35C783,-302.25 783,-261.31 783,-243.59"/>
<polygon fill="midnightblue" stroke="midnightblue" points="779.5,-326.37 783,-336.37 786.5,-326.37 779.5,-326.37"/>
</g>
<!-- Node18&#45;&gt;Node6 -->
<g id="edge24" class="edge">
<title>Node18&#45;&gt;Node6</title>
<path fill="none" stroke="midnightblue" d="M784.01,-214.18C784.84,-178.38 781.35,-100.11 739,-56 707.07,-22.75 652.06,-13.68 617.16,-11.43"/>
<polygon fill="midnightblue" stroke="midnightblue" points="780.51,-214.09 783.63,-224.22 787.5,-214.36 780.51,-214.09"/>
</g>
<!-- Node20 -->
<g id="node20" class="node">
<title>Node20</title>
<g id="a_node20"><a xlink:href="api_2traffic__mngr_8h.html" target="_top" xlink:title="ODP Traffic manager.">
<polygon fill="white" stroke="black" points="430,-280.5 430,-299.5 514,-299.5 514,-280.5 430,-280.5"/>
<text text-anchor="middle" x="472" y="-287.5" font-family="Helvetica,sans-Serif" font-size="10.00">traffic_mngr.h</text>
</a>
</g>
</g>
<!-- Node19&#45;&gt;Node20 -->
<g id="edge27" class="edge">
<title>Node19&#45;&gt;Node20</title>
<path fill="none" stroke="midnightblue" d="M472,-325.8C472,-316.91 472,-306.78 472,-299.75"/>
<polygon fill="midnightblue" stroke="midnightblue" points="468.5,-326.08 472,-336.08 475.5,-326.08 468.5,-326.08"/>
</g>
<!-- Node20&#45;&gt;Node6 -->
<g id="edge29" class="edge">
<title>Node20&#45;&gt;Node6</title>
<path fill="none" stroke="midnightblue" d="M484.88,-272.12C499.4,-251.37 521,-214.53 521,-179 521,-179 521,-179 521,-121 521,-78.14 557.75,-37.07 575.56,-19.69"/>
<polygon fill="midnightblue" stroke="midnightblue" points="481.87,-270.31 478.81,-280.46 487.53,-274.43 481.87,-270.31"/>
</g>
<!-- Node20&#45;&gt;Node9 -->
<g id="edge28" class="edge">
<title>Node20&#45;&gt;Node9</title>
<path fill="none" stroke="midnightblue" d="M459.94,-271.86C453.36,-262.5 445.49,-251.33 440.16,-243.75"/>
<polygon fill="midnightblue" stroke="midnightblue" points="457.11,-273.92 465.73,-280.08 462.83,-269.89 457.11,-273.92"/>
</g>
<!-- Node22 -->
<g id="node22" class="node">
<title>Node22</title>
<g id="a_node22"><a xlink:href="api_2packet__types_8h.html" target="_top" xlink:title="ODP packet.">
<polygon fill="white" stroke="black" points="305,-728.5 305,-747.5 395,-747.5 395,-728.5 305,-728.5"/>
<text text-anchor="middle" x="350" y="-735.5" font-family="Helvetica,sans-Serif" font-size="10.00">packet_types.h</text>
</a>
</g>
</g>
<!-- Node21&#45;&gt;Node22 -->
<g id="edge31" class="edge">
<title>Node21&#45;&gt;Node22</title>
<path fill="none" stroke="midnightblue" d="M350,-773.8C350,-764.91 350,-754.78 350,-747.75"/>
<polygon fill="midnightblue" stroke="midnightblue" points="346.5,-774.08 350,-784.08 353.5,-774.08 346.5,-774.08"/>
</g>
<!-- Node22&#45;&gt;Node2 -->
<g id="edge36" class="edge">
<title>Node22&#45;&gt;Node2</title>
<path fill="none" stroke="midnightblue" d="M334.43,-720.84C316.65,-700.62 290,-664.12 290,-627 290,-627 290,-627 290,-569 290,-529.31 268.09,-485.56 257.99,-467.51"/>
<polygon fill="midnightblue" stroke="midnightblue" points="332.07,-723.45 341.4,-728.47 337.24,-718.72 332.07,-723.45"/>
</g>
<!-- Node22&#45;&gt;Node4 -->
<g id="edge35" class="edge">
<title>Node22&#45;&gt;Node4</title>
<path fill="none" stroke="midnightblue" d="M329.51,-722.33C319.17,-714.21 306.96,-703.47 298,-692 226.55,-600.52 180,-575.08 180,-459 180,-459 180,-459 180,-345 180,-314.9 185.68,-306.99 199,-280 205.78,-266.27 216.76,-252.35 224.17,-243.7"/>
<polygon fill="midnightblue" stroke="midnightblue" points="327.56,-725.24 337.64,-728.48 331.78,-719.66 327.56,-725.24"/>
</g>
<!-- Node22&#45;&gt;Node7 -->
<g id="edge65" class="edge">
<title>Node22&#45;&gt;Node7</title>
<path fill="none" stroke="midnightblue" d="M343.96,-718.45C337.45,-696.76 328,-659.67 328,-627 328,-627 328,-627 328,-569 328,-495.22 326,-476.78 326,-403 326,-403 326,-403 326,-233 326,-192.81 351.21,-149.68 363.02,-131.67"/>
<polygon fill="midnightblue" stroke="midnightblue" points="340.71,-719.78 347.03,-728.28 347.39,-717.69 340.71,-719.78"/>
</g>
<!-- Node22&#45;&gt;Node11 -->
<g id="edge71" class="edge">
<title>Node22&#45;&gt;Node11</title>
<path fill="none" stroke="midnightblue" d="M405.14,-730.59C464.65,-720.25 551,-693.75 551,-627 551,-627 551,-627 551,-569 551,-530.7 563.44,-486.21 569.17,-467.73"/>
<polygon fill="midnightblue" stroke="midnightblue" points="404.41,-727.17 395.11,-732.23 405.54,-734.08 404.41,-727.17"/>
</g>
<!-- Node22&#45;&gt;Node15 -->
<g id="edge70" class="edge">
<title>Node22&#45;&gt;Node15</title>
<path fill="none" stroke="midnightblue" d="M389.91,-725.11C431.91,-709.85 492,-678.93 492,-627 492,-627 492,-627 492,-457 492,-410.83 561.31,-278.93 580.26,-243.72"/>
<polygon fill="midnightblue" stroke="midnightblue" points="388.76,-721.81 380.46,-728.4 391.06,-728.42 388.76,-721.81"/>
</g>
<!-- Node22&#45;&gt;Node17 -->
<g id="edge66" class="edge">
<title>Node22&#45;&gt;Node17</title>
<path fill="none" stroke="midnightblue" d="M405.4,-733.2C445.33,-728.34 499.16,-717.26 540,-692 681.75,-604.33 763.47,-400.02 779.91,-355.62"/>
<polygon fill="midnightblue" stroke="midnightblue" points="404.85,-729.74 395.31,-734.34 405.64,-736.7 404.85,-729.74"/>
</g>
<!-- Node23 -->
<g id="node23" class="node">
<title>Node23</title>
<g id="a_node23"><a xlink:href="api_2spec_2comp_8h.html" target="_top" xlink:title="ODP Compression.">
<polygon fill="white" stroke="black" points="170.5,-672.5 170.5,-691.5 223.5,-691.5 223.5,-672.5 170.5,-672.5"/>
<text text-anchor="middle" x="197" y="-679.5" font-family="Helvetica,sans-Serif" font-size="10.00">comp.h</text>
</a>
</g>
</g>
<!-- Node22&#45;&gt;Node23 -->
<g id="edge32" class="edge">
<title>Node22&#45;&gt;Node23</title>
<path fill="none" stroke="midnightblue" d="M316.11,-725.04C287.32,-714.88 246.71,-700.55 221.13,-691.52"/>
<polygon fill="midnightblue" stroke="midnightblue" points="315.16,-728.42 325.76,-728.44 317.49,-721.81 315.16,-728.42"/>
</g>
<!-- Node25 -->
<g id="node25" class="node">
<title>Node25</title>
<g id="a_node25"><a xlink:href="api_2spec_2dma__types_8h.html" target="_top" xlink:title="ODP DMA.">
<polygon fill="white" stroke="black" points="725,-672.5 725,-691.5 805,-691.5 805,-672.5 725,-672.5"/>
<text text-anchor="middle" x="765" y="-679.5" font-family="Helvetica,sans-Serif" font-size="10.00">dma_types.h</text>
</a>
</g>
</g>
<!-- Node22&#45;&gt;Node25 -->
<g id="edge37" class="edge">
<title>Node22&#45;&gt;Node25</title>
<path fill="none" stroke="midnightblue" d="M405.15,-729.82C489.88,-718.8 650.09,-697.95 724.78,-688.23"/>
<polygon fill="midnightblue" stroke="midnightblue" points="404.67,-726.36 395.2,-731.12 405.57,-733.3 404.67,-726.36"/>
</g>
<!-- Node33 -->
<g id="node33" class="node">
<title>Node33</title>
<g id="a_node33"><a xlink:href="api_2spec_2event_8h.html" target="_top" xlink:title="ODP event.">
<polygon fill="white" stroke="black" points="354.5,-448.5 354.5,-467.5 407.5,-467.5 407.5,-448.5 354.5,-448.5"/>
<text text-anchor="middle" x="381" y="-455.5" font-family="Helvetica,sans-Serif" font-size="10.00">event.h</text>
</a>
</g>
</g>
<!-- Node22&#45;&gt;Node33 -->
<g id="edge64" class="edge">
<title>Node22&#45;&gt;Node33</title>
<path fill="none" stroke="midnightblue" d="M356.22,-718.76C363.03,-697.14 373,-659.88 373,-627 373,-627 373,-627 373,-569 373,-531.09 377.79,-486.02 379.95,-467.54"/>
<polygon fill="midnightblue" stroke="midnightblue" points="352.89,-717.7 353.1,-728.29 359.54,-719.88 352.89,-717.7"/>
</g>
<!-- Node41 -->
<g id="node41" class="node">
<title>Node41</title>
<g id="a_node41"><a xlink:href="api_2spec_2packet__flags_8h.html" target="_top" xlink:title="ODP packet flags.">
<polygon fill="white" stroke="black" points="66,-672.5 66,-691.5 152,-691.5 152,-672.5 66,-672.5"/>
<text text-anchor="middle" x="109" y="-679.5" font-family="Helvetica,sans-Serif" font-size="10.00">packet_flags.h</text>
</a>
</g>
</g>
<!-- Node22&#45;&gt;Node41 -->
<g id="edge67" class="edge">
<title>Node22&#45;&gt;Node41</title>
<path fill="none" stroke="midnightblue" d="M301.88,-726.22C256.34,-716.01 188.89,-700.9 147.01,-691.52"/>
<polygon fill="midnightblue" stroke="midnightblue" points="301.29,-729.67 311.81,-728.44 302.82,-722.84 301.29,-729.67"/>
</g>
<!-- Node24 -->
<g id="node24" class="node">
<title>Node24</title>
<g id="a_node24"><a xlink:href="api_2comp_8h.html" target="_top" xlink:title="ODP crypto.">
<polygon fill="white" stroke="black" points="122.5,-560.5 122.5,-579.5 175.5,-579.5 175.5,-560.5 122.5,-560.5"/>
<text text-anchor="middle" x="149" y="-567.5" font-family="Helvetica,sans-Serif" font-size="10.00">comp.h</text>
</a>
</g>
</g>
<!-- Node23&#45;&gt;Node24 -->
<g id="edge33" class="edge">
<title>Node23&#45;&gt;Node24</title>
<path fill="none" stroke="midnightblue" d="M189.14,-663C178.67,-639 160.55,-597.47 152.75,-579.59"/>
<polygon fill="midnightblue" stroke="midnightblue" points="186.03,-664.6 193.23,-672.37 192.44,-661.8 186.03,-664.6"/>
</g>
<!-- Node24&#45;&gt;Node6 -->
<g id="edge34" class="edge">
<title>Node24&#45;&gt;Node6</title>
<path fill="none" stroke="midnightblue" d="M147.08,-550.27C145.01,-528.4 142,-491.12 142,-459 142,-459 142,-459 142,-121 142,-36.31 450.84,-16.36 552.78,-12.08"/>
<polygon fill="midnightblue" stroke="midnightblue" points="143.62,-550.85 148.08,-560.45 150.59,-550.16 143.62,-550.85"/>
</g>
<!-- Node26 -->
<g id="node26" class="node">
<title>Node26</title>
<g id="a_node26"><a xlink:href="api_2dma__types_8h.html" target="_top" xlink:title="ODP DMA.">
<polygon fill="white" stroke="black" points="744,-616.5 744,-635.5 824,-635.5 824,-616.5 744,-616.5"/>
<text text-anchor="middle" x="784" y="-623.5" font-family="Helvetica,sans-Serif" font-size="10.00">dma_types.h</text>
</a>
</g>
</g>
<!-- Node25&#45;&gt;Node26 -->
<g id="edge38" class="edge">
<title>Node25&#45;&gt;Node26</title>
<path fill="none" stroke="midnightblue" d="M771.55,-662.4C774.72,-653.36 778.39,-642.94 780.92,-635.75"/>
<polygon fill="midnightblue" stroke="midnightblue" points="768.15,-661.49 768.14,-672.08 774.76,-663.81 768.15,-661.49"/>
</g>
<!-- Node27 -->
<g id="node27" class="node">
<title>Node27</title>
<g id="a_node27"><a xlink:href="api_2spec_2dma_8h.html" target="_top" xlink:title="ODP DMA.">
<polygon fill="white" stroke="black" points="948.5,-448.5 948.5,-467.5 995.5,-467.5 995.5,-448.5 948.5,-448.5"/>
<text text-anchor="middle" x="972" y="-455.5" font-family="Helvetica,sans-Serif" font-size="10.00">dma.h</text>
</a>
</g>
</g>
<!-- Node26&#45;&gt;Node27 -->
<g id="edge39" class="edge">
<title>Node26&#45;&gt;Node27</title>
<path fill="none" stroke="midnightblue" d="M801.7,-609.37C840.54,-575.07 932.18,-494.16 962.25,-467.61"/>
<polygon fill="midnightblue" stroke="midnightblue" points="799.02,-607.07 793.84,-616.31 803.66,-612.31 799.02,-607.07"/>
</g>
<!-- Node29 -->
<g id="node29" class="node">
<title>Node29</title>
<g id="a_node29"><a xlink:href="api_2spec_2pool__types_8h.html" target="_top" xlink:title="Type definitions for pools.">
<polygon fill="white" stroke="black" points="744.5,-560.5 744.5,-579.5 823.5,-579.5 823.5,-560.5 744.5,-560.5"/>
<text text-anchor="middle" x="784" y="-567.5" font-family="Helvetica,sans-Serif" font-size="10.00">pool_types.h</text>
</a>
</g>
</g>
<!-- Node26&#45;&gt;Node29 -->
<g id="edge42" class="edge">
<title>Node26&#45;&gt;Node29</title>
<path fill="none" stroke="midnightblue" d="M784,-605.8C784,-596.91 784,-586.78 784,-579.75"/>
<polygon fill="midnightblue" stroke="midnightblue" points="780.5,-606.08 784,-616.08 787.5,-606.08 780.5,-606.08"/>
</g>
<!-- Node28 -->
<g id="node28" class="node">
<title>Node28</title>
<g id="a_node28"><a xlink:href="api_2dma_8h.html" target="_top" xlink:title="ODP DMA.">
<polygon fill="white" stroke="black" points="931.5,-112.5 931.5,-131.5 978.5,-131.5 978.5,-112.5 931.5,-112.5"/>
<text text-anchor="middle" x="955" y="-119.5" font-family="Helvetica,sans-Serif" font-size="10.00">dma.h</text>
</a>
</g>
</g>
<!-- Node27&#45;&gt;Node28 -->
<g id="edge40" class="edge">
<title>Node27&#45;&gt;Node28</title>
<path fill="none" stroke="midnightblue" d="M969.26,-438.3C966.3,-416.45 962,-379.18 962,-347 962,-347 962,-347 962,-233 962,-195.11 957.81,-150.03 955.92,-131.55"/>
<polygon fill="midnightblue" stroke="midnightblue" points="965.83,-439.05 970.69,-448.47 972.76,-438.08 965.83,-439.05"/>
</g>
<!-- Node28&#45;&gt;Node6 -->
<g id="edge41" class="edge">
<title>Node28&#45;&gt;Node6</title>
<path fill="none" stroke="midnightblue" d="M954.16,-102.11C952.42,-87.25 947.52,-67.23 934,-56 886.25,-16.32 694.33,-11.28 617.26,-10.89"/>
<polygon fill="midnightblue" stroke="midnightblue" points="950.68,-102.55 954.95,-112.24 957.66,-102 950.68,-102.55"/>
</g>
<!-- Node30 -->
<g id="node30" class="node">
<title>Node30</title>
<g id="a_node30"><a xlink:href="api_2pool__types_8h.html" target="_top" xlink:title="ODP pool.">
<polygon fill="white" stroke="black" points="744.5,-504.5 744.5,-523.5 823.5,-523.5 823.5,-504.5 744.5,-504.5"/>
<text text-anchor="middle" x="784" y="-511.5" font-family="Helvetica,sans-Serif" font-size="10.00">pool_types.h</text>
</a>
</g>
</g>
<!-- Node29&#45;&gt;Node30 -->
<g id="edge43" class="edge">
<title>Node29&#45;&gt;Node30</title>
<path fill="none" stroke="midnightblue" d="M784,-549.8C784,-540.91 784,-530.78 784,-523.75"/>
<polygon fill="midnightblue" stroke="midnightblue" points="780.5,-550.08 784,-560.08 787.5,-550.08 780.5,-550.08"/>
</g>
<!-- Node30&#45;&gt;Node2 -->
<g id="edge48" class="edge">
<title>Node30&#45;&gt;Node2</title>
<path fill="none" stroke="midnightblue" d="M733.94,-507.91C630.86,-497.43 396.3,-473.57 297.84,-463.56"/>
<polygon fill="midnightblue" stroke="midnightblue" points="733.79,-511.41 744.09,-508.94 734.49,-504.45 733.79,-511.41"/>
</g>
<!-- Node30&#45;&gt;Node11 -->
<g id="edge57" class="edge">
<title>Node30&#45;&gt;Node11</title>
<path fill="none" stroke="midnightblue" d="M740.65,-501.96C700.61,-491.76 641.97,-476.82 605.43,-467.52"/>
<polygon fill="midnightblue" stroke="midnightblue" points="739.85,-505.37 750.41,-504.44 741.58,-498.58 739.85,-505.37"/>
</g>
<!-- Node30&#45;&gt;Node13 -->
<g id="edge47" class="edge">
<title>Node30&#45;&gt;Node13</title>
<path fill="none" stroke="midnightblue" d="M734.4,-504.9C711.7,-498.63 686.47,-487.54 671,-468 644.1,-434.03 648.64,-377.36 651.6,-355.74"/>
<polygon fill="midnightblue" stroke="midnightblue" points="733.71,-508.34 744.27,-507.39 735.42,-501.55 733.71,-508.34"/>
</g>
<!-- Node30&#45;&gt;Node17 -->
<g id="edge56" class="edge">
<title>Node30&#45;&gt;Node17</title>
<path fill="none" stroke="midnightblue" d="M783.89,-493.93C783.67,-457.92 783.21,-381.23 783.05,-355.57"/>
<polygon fill="midnightblue" stroke="midnightblue" points="780.39,-494.1 783.95,-504.08 787.39,-494.05 780.39,-494.1"/>
</g>
<!-- Node30&#45;&gt;Node27 -->
<g id="edge49" class="edge">
<title>Node30&#45;&gt;Node27</title>
<path fill="none" stroke="midnightblue" d="M823.45,-501.67C861.22,-490.82 916.94,-474.82 948.3,-465.81"/>
<polygon fill="midnightblue" stroke="midnightblue" points="822.43,-498.32 813.79,-504.44 824.37,-505.05 822.43,-498.32"/>
</g>
<!-- Node31 -->
<g id="node31" class="node">
<title>Node31</title>
<g id="a_node31"><a xlink:href="api_2spec_2buffer_8h.html" target="_top" xlink:title="ODP buffer.">
<polygon fill="white" stroke="black" points="877.5,-448.5 877.5,-467.5 930.5,-467.5 930.5,-448.5 877.5,-448.5"/>
<text text-anchor="middle" x="904" y="-455.5" font-family="Helvetica,sans-Serif" font-size="10.00">buffer.h</text>
</a>
</g>
</g>
<!-- Node30&#45;&gt;Node31 -->
<g id="edge44" class="edge">
<title>Node30&#45;&gt;Node31</title>
<path fill="none" stroke="midnightblue" d="M812.37,-500.23C834.82,-490.13 865.54,-476.31 885.07,-467.52"/>
<polygon fill="midnightblue" stroke="midnightblue" points="810.7,-497.15 803.01,-504.44 813.57,-503.53 810.7,-497.15"/>
</g>
<!-- Node30&#45;&gt;Node33 -->
<g id="edge50" class="edge">
<title>Node30&#45;&gt;Node33</title>
<path fill="none" stroke="midnightblue" d="M734.21,-506.33C648.14,-494.8 474.37,-471.51 407.8,-462.59"/>
<polygon fill="midnightblue" stroke="midnightblue" points="733.88,-509.82 744.26,-507.67 734.81,-502.88 733.88,-509.82"/>
</g>
<!-- Node35 -->
<g id="node35" class="node">
<title>Node35</title>
<g id="a_node35"><a xlink:href="spec_2ml_8h.html" target="_top" xlink:title="ODP Machine Learning (ML) offload.">
<polygon fill="white" stroke="black" points="680,-448.5 680,-467.5 718,-467.5 718,-448.5 680,-448.5"/>
<text text-anchor="middle" x="699" y="-455.5" font-family="Helvetica,sans-Serif" font-size="10.00">ml.h</text>
</a>
</g>
</g>
<!-- Node30&#45;&gt;Node35 -->
<g id="edge53" class="edge">
<title>Node30&#45;&gt;Node35</title>
<path fill="none" stroke="midnightblue" d="M761.81,-498.9C746.22,-489 725.87,-476.07 712.62,-467.65"/>
<polygon fill="midnightblue" stroke="midnightblue" points="760.03,-501.92 770.34,-504.32 763.78,-496.01 760.03,-501.92"/>
</g>
<!-- Node37 -->
<g id="node37" class="node">
<title>Node37</title>
<g id="a_node37"><a xlink:href="api_2spec_2pool_8h.html" target="_top" xlink:title="ODP pool.">
<polygon fill="white" stroke="black" points="812.5,-448.5 812.5,-467.5 859.5,-467.5 859.5,-448.5 812.5,-448.5"/>
<text text-anchor="middle" x="836" y="-455.5" font-family="Helvetica,sans-Serif" font-size="10.00">pool.h</text>
</a>
</g>
</g>
<!-- Node30&#45;&gt;Node37 -->
<g id="edge58" class="edge">
<title>Node30&#45;&gt;Node37</title>
<path fill="none" stroke="midnightblue" d="M799.68,-496.72C808.84,-487.2 820.05,-475.56 827.57,-467.75"/>
<polygon fill="midnightblue" stroke="midnightblue" points="797,-494.45 792.59,-504.08 802.04,-499.31 797,-494.45"/>
</g>
<!-- Node30&#45;&gt;Node39 -->
<g id="edge61" class="edge">
<title>Node30&#45;&gt;Node39</title>
<path fill="none" stroke="midnightblue" d="M833.74,-503.73C878.64,-495.15 946.46,-481.7 1005,-468 1007.73,-467.36 1010.58,-466.66 1013.42,-465.94"/>
<polygon fill="midnightblue" stroke="midnightblue" points="832.84,-500.33 823.67,-505.64 834.15,-507.21 832.84,-500.33"/>
</g>
<!-- Node32 -->
<g id="node32" class="node">
<title>Node32</title>
<g id="a_node32"><a xlink:href="api_2buffer_8h.html" target="_top" xlink:title="ODP buffer descriptor.">
<polygon fill="white" stroke="black" points="871.5,-56.5 871.5,-75.5 924.5,-75.5 924.5,-56.5 871.5,-56.5"/>
<text text-anchor="middle" x="898" y="-63.5" font-family="Helvetica,sans-Serif" font-size="10.00">buffer.h</text>
</a>
</g>
</g>
<!-- Node31&#45;&gt;Node32 -->
<g id="edge45" class="edge">
<title>Node31&#45;&gt;Node32</title>
<path fill="none" stroke="midnightblue" d="M903.45,-438.25C902.86,-416.36 902,-379.06 902,-347 902,-347 902,-347 902,-177 902,-139.16 899.61,-94.05 898.52,-75.55"/>
<polygon fill="midnightblue" stroke="midnightblue" points="899.96,-438.55 903.74,-448.44 906.96,-438.35 899.96,-438.55"/>
</g>
<!-- Node32&#45;&gt;Node6 -->
<g id="edge46" class="edge">
<title>Node32&#45;&gt;Node6</title>
<path fill="none" stroke="midnightblue" d="M861.14,-57.36C858.72,-56.89 856.33,-56.43 854,-56 768.81,-40.17 667.95,-23.98 617.36,-16.03"/>
<polygon fill="midnightblue" stroke="midnightblue" points="860.55,-60.81 871.04,-59.33 861.91,-53.94 860.55,-60.81"/>
</g>
<!-- Node34 -->
<g id="node34" class="node">
<title>Node34</title>
<g id="a_node34"><a xlink:href="api_2event_8h.html" target="_top" xlink:title="ODP event.">
<polygon fill="white" stroke="black" points="439.5,-112.5 439.5,-131.5 492.5,-131.5 492.5,-112.5 439.5,-112.5"/>
<text text-anchor="middle" x="466" y="-119.5" font-family="Helvetica,sans-Serif" font-size="10.00">event.h</text>
</a>
</g>
</g>
<!-- Node33&#45;&gt;Node34 -->
<g id="edge51" class="edge">
<title>Node33&#45;&gt;Node34</title>
<path fill="none" stroke="midnightblue" d="M376.33,-438.36C371.3,-416.58 364,-379.42 364,-347 364,-347 364,-347 364,-289 364,-258.9 364.36,-247.63 383,-224 402.98,-198.68 425.85,-213.18 446,-188 459.58,-171.04 463.97,-144.88 465.37,-131.51"/>
<polygon fill="midnightblue" stroke="midnightblue" points="372.97,-439.33 378.71,-448.23 379.77,-437.69 372.97,-439.33"/>
</g>
<!-- Node34&#45;&gt;Node6 -->
<g id="edge52" class="edge">
<title>Node34&#45;&gt;Node6</title>
<path fill="none" stroke="midnightblue" d="M474.36,-102.92C481.53,-88.86 492.91,-69.54 507,-56 523.79,-39.86 547.46,-27.26 564.31,-19.55"/>
<polygon fill="midnightblue" stroke="midnightblue" points="471.14,-101.54 469.91,-112.06 477.43,-104.6 471.14,-101.54"/>
</g>
<!-- Node36 -->
<g id="node36" class="node">
<title>Node36</title>
<g id="a_node36"><a xlink:href="ml_8h.html" target="_top" xlink:title="ODP Machine Learning (ML) offload.">
<polygon fill="white" stroke="black" points="692,-56.5 692,-75.5 730,-75.5 730,-56.5 692,-56.5"/>
<text text-anchor="middle" x="711" y="-63.5" font-family="Helvetica,sans-Serif" font-size="10.00">ml.h</text>
</a>
</g>
</g>
<!-- Node35&#45;&gt;Node36 -->
<g id="edge54" class="edge">
<title>Node35&#45;&gt;Node36</title>
<path fill="none" stroke="midnightblue" d="M704.04,-438.4C711.85,-407.87 726,-345.11 726,-291 726,-291 726,-291 726,-177 726,-138.84 717.03,-93.91 712.96,-75.5"/>
<polygon fill="midnightblue" stroke="midnightblue" points="700.56,-437.88 701.4,-448.44 707.33,-439.66 700.56,-437.88"/>
</g>
<!-- Node36&#45;&gt;Node6 -->
<g id="edge55" class="edge">
<title>Node36&#45;&gt;Node6</title>
<path fill="none" stroke="midnightblue" d="M682.4,-52.74C658.84,-42.65 626.03,-28.58 605.15,-19.64"/>
<polygon fill="midnightblue" stroke="midnightblue" points="681.29,-56.08 691.86,-56.8 684.05,-49.64 681.29,-56.08"/>
</g>
<!-- Node38 -->
<g id="node38" class="node">
<title>Node38</title>
<g id="a_node38"><a xlink:href="api_2pool_8h.html" target="_top" xlink:title="ODP pool.">
<polygon fill="white" stroke="black" points="814.5,-392.5 814.5,-411.5 861.5,-411.5 861.5,-392.5 814.5,-392.5"/>
<text text-anchor="middle" x="838" y="-399.5" font-family="Helvetica,sans-Serif" font-size="10.00">pool.h</text>
</a>
</g>
</g>
<!-- Node37&#45;&gt;Node38 -->
<g id="edge59" class="edge">
<title>Node37&#45;&gt;Node38</title>
<path fill="none" stroke="midnightblue" d="M836.71,-437.8C837.04,-428.91 837.42,-418.78 837.68,-411.75"/>
<polygon fill="midnightblue" stroke="midnightblue" points="833.2,-437.96 836.33,-448.08 840.2,-438.22 833.2,-437.96"/>
</g>
<!-- Node38&#45;&gt;Node6 -->
<g id="edge60" class="edge">
<title>Node38&#45;&gt;Node6</title>
<path fill="none" stroke="midnightblue" d="M838.55,-382.25C839.14,-360.36 840,-323.06 840,-291 840,-291 840,-291 840,-121 840,-24.93 685.53,-11.77 617.04,-10.66"/>
<polygon fill="midnightblue" stroke="midnightblue" points="835.04,-382.35 838.26,-392.44 842.04,-382.55 835.04,-382.35"/>
</g>
<!-- Node40 -->
<g id="node40" class="node">
<title>Node40</title>
<g id="a_node40"><a xlink:href="api_2timer_8h.html" target="_top" xlink:title="ODP timer service.">
<polygon fill="white" stroke="black" points="1007.5,-392.5 1007.5,-411.5 1058.5,-411.5 1058.5,-392.5 1007.5,-392.5"/>
<text text-anchor="middle" x="1033" y="-399.5" font-family="Helvetica,sans-Serif" font-size="10.00">timer.h</text>
</a>
</g>
</g>
<!-- Node39&#45;&gt;Node40 -->
<g id="edge62" class="edge">
<title>Node39&#45;&gt;Node40</title>
<path fill="none" stroke="midnightblue" d="M1036.9,-438.1C1035.9,-429.14 1034.76,-418.86 1033.97,-411.75"/>
<polygon fill="midnightblue" stroke="midnightblue" points="1033.43,-438.53 1038.01,-448.08 1040.38,-437.76 1033.43,-438.53"/>
</g>
<!-- Node40&#45;&gt;Node6 -->
<g id="edge63" class="edge">
<title>Node40&#45;&gt;Node6</title>
<path fill="none" stroke="midnightblue" d="M1029.49,-382.63C1025.64,-360.85 1020,-323.42 1020,-291 1020,-291 1020,-291 1020,-121 1020,-79.83 991.08,-73.89 954,-56 894.71,-27.39 695.6,-15.8 617.15,-12.27"/>
<polygon fill="midnightblue" stroke="midnightblue" points="1026.05,-383.28 1031.3,-392.48 1032.93,-382.01 1026.05,-383.28"/>
</g>
<!-- Node42 -->
<g id="node42" class="node">
<title>Node42</title>
<g id="a_node42"><a xlink:href="api_2packet__flags_8h.html" target="_top" xlink:title="ODP packet flags.">
<polygon fill="white" stroke="black" points="28,-504.5 28,-523.5 114,-523.5 114,-504.5 28,-504.5"/>
<text text-anchor="middle" x="71" y="-511.5" font-family="Helvetica,sans-Serif" font-size="10.00">packet_flags.h</text>
</a>
</g>
</g>
<!-- Node41&#45;&gt;Node42 -->
<g id="edge68" class="edge">
<title>Node41&#45;&gt;Node42</title>
<path fill="none" stroke="midnightblue" d="M104.63,-661.93C96.39,-625.92 78.84,-549.23 72.96,-523.57"/>
<polygon fill="midnightblue" stroke="midnightblue" points="101.31,-663.11 106.96,-672.08 108.14,-661.55 101.31,-663.11"/>
</g>
<!-- Node42&#45;&gt;Node6 -->
<g id="edge69" class="edge">
<title>Node42&#45;&gt;Node6</title>
<path fill="none" stroke="midnightblue" d="M75.39,-494.34C80.13,-472.56 87,-435.37 87,-403 87,-403 87,-403 87,-121 87,-86.84 98.94,-73.94 128,-56 199.23,-12.02 461.12,-9.92 552.94,-10.58"/>
<polygon fill="midnightblue" stroke="midnightblue" points="71.95,-493.7 73.16,-504.22 78.78,-495.24 71.95,-493.7"/>
</g>
</g>
</svg>
