<?xml version="1.0" encoding="UTF-8" standalone="no"?>
<!DOCTYPE svg PUBLIC "-//W3C//DTD SVG 1.1//EN"
 "http://www.w3.org/Graphics/SVG/1.1/DTD/svg11.dtd">
<!-- Generated by graphviz version 2.43.0 (0)
 -->
<!-- Title: api Pages: 1 -->
<svg width="198pt" height="183pt"
 viewBox="0.00 0.00 198.00 183.00" xmlns="http://www.w3.org/2000/svg" xmlns:xlink="http://www.w3.org/1999/xlink">
<g id="graph0" class="graph" transform="scale(1 1) rotate(0) translate(4 179)">
<title>api</title>
<polygon fill="white" stroke="transparent" points="-4,4 -4,-179 194,-179 194,4 -4,4"/>
<g id="clust1" class="cluster">
<title>clusterdir_a97ec78d987d17ef5986981beb9a2005</title>
<g id="a_clust1"><a xlink:href="dir_a97ec78d987d17ef5986981beb9a2005.html" target="_top" xlink:title="odp">
<polygon fill="#ddddee" stroke="black" points="8,-8 8,-167 182,-167 182,-8 8,-8"/>
<text text-anchor="middle" x="95" y="-155" font-family="Helvetica,sans-Serif" font-size="10.00">odp</text>
</a>
</g>
</g>
<g id="clust2" class="cluster">
<title>clusterdir_be9f6d876b8eda462084eff1b3ea4553</title>
<g id="a_clust2"><a xlink:href="dir_be9f6d876b8eda462084eff1b3ea4553.html" target="_top">
<polygon fill="#eeeeff" stroke="black" points="16,-16 16,-140 174,-140 174,-16 16,-16"/>
</a>
</g>
</g>
<!-- dir_be9f6d876b8eda462084eff1b3ea4553 -->
<g id="node1" class="node">
<title>dir_be9f6d876b8eda462084eff1b3ea4553</title>
<text text-anchor="middle" x="139" y="-111.5" font-family="Helvetica,sans-Serif" font-size="10.00">api</text>
</g>
<!-- dir_6c22a75485a92e225a6a44114cdc818e -->
<g id="node3" class="node">
<title>dir_6c22a75485a92e225a6a44114cdc818e</title>
<g id="a_node3"><a xlink:href="dir_6c22a75485a92e225a6a44114cdc818e.html" target="_top" xlink:title="spec">
<polygon fill="white" stroke="black" points="166,-60 112,-60 112,-24 166,-24 166,-60"/>
<text text-anchor="middle" x="139" y="-39.5" font-family="Helvetica,sans-Serif" font-size="10.00">spec</text>
</a>
</g>
</g>
<!-- dir_be9f6d876b8eda462084eff1b3ea4553&#45;&gt;dir_6c22a75485a92e225a6a44114cdc818e -->
<g id="edge1" class="edge">
<title>dir_be9f6d876b8eda462084eff1b3ea4553&#45;&gt;dir_6c22a75485a92e225a6a44114cdc818e</title>
<path fill="none" stroke="black" d="M139,-95.7C139,-87.98 139,-78.71 139,-70.11"/>
<polygon fill="black" stroke="black" points="142.5,-70.1 139,-60.1 135.5,-70.1 142.5,-70.1"/>
<g id="a_edge1&#45;headlabel"><a xlink:href="dir_000002_000004.html" target="_top" xlink:title="70">
<text text-anchor="middle" x="145.34" y="-71.2" font-family="Helvetica,sans-Serif" font-size="10.00">70</text>
</a>
</g>
</g>
<!-- dir_c59afd88e2a7495c965f6b2c01e1c7d5 -->
<g id="node2" class="node">
<title>dir_c59afd88e2a7495c965f6b2c01e1c7d5</title>
<g id="a_node2"><a xlink:href="dir_c59afd88e2a7495c965f6b2c01e1c7d5.html" target="_top" xlink:title="abi&#45;default">
<polygon fill="white" stroke="black" points="94,-132 24,-132 24,-96 94,-96 94,-132"/>
<text text-anchor="middle" x="59" y="-111.5" font-family="Helvetica,sans-Serif" font-size="10.00">abi&#45;default</text>
</a>
</g>
</g>
</g>
</svg>
