<?xml version="1.0" encoding="UTF-8" standalone="no"?>
<!DOCTYPE svg PUBLIC "-//W3C//DTD SVG 1.1//EN"
 "http://www.w3.org/Graphics/SVG/1.1/DTD/svg11.dtd">
<!-- Generated by graphviz version 2.43.0 (0)
 -->
<!-- Title: arm64&#45;linux Pages: 1 -->
<svg width="204pt" height="159pt"
 viewBox="0.00 0.00 204.00 159.00" xmlns="http://www.w3.org/2000/svg" xmlns:xlink="http://www.w3.org/1999/xlink">
<g id="graph0" class="graph" transform="scale(1 1) rotate(0) translate(4 155)">
<title>arm64&#45;linux</title>
<polygon fill="white" stroke="transparent" points="-4,4 -4,-155 200,-155 200,4 -4,4"/>
<g id="clust1" class="cluster">
<title>clusterdir_4eda4fd55dd0f0d3e72752e79818319a</title>
<g id="a_clust1"><a xlink:href="dir_4eda4fd55dd0f0d3e72752e79818319a.html" target="_top" xlink:title="arch">
<polygon fill="#ddddee" stroke="black" points="8,-56 8,-143 188,-143 188,-56 8,-56"/>
<text text-anchor="middle" x="98" y="-131" font-family="Helvetica,sans-Serif" font-size="10.00">arch</text>
</a>
</g>
</g>
<g id="clust2" class="cluster">
<title>clusterdir_70eaa2f41713610ea0cf8498c63ac358</title>
<g id="a_clust2"><a xlink:href="dir_70eaa2f41713610ea0cf8498c63ac358.html" target="_top">
<polygon fill="#eeeeff" stroke="black" points="16,-64 16,-116 180,-116 180,-64 16,-64"/>
</a>
</g>
</g>
<!-- dir_70eaa2f41713610ea0cf8498c63ac358 -->
<g id="node1" class="node">
<title>dir_70eaa2f41713610ea0cf8498c63ac358</title>
<text text-anchor="middle" x="134" y="-87.5" font-family="Helvetica,sans-Serif" font-size="10.00">arm64&#45;linux</text>
</g>
<!-- dir_16fe0ae1499d13e7cb7a453977af99ef -->
<g id="node2" class="node">
<title>dir_16fe0ae1499d13e7cb7a453977af99ef</title>
<g id="a_node2"><a xlink:href="dir_16fe0ae1499d13e7cb7a453977af99ef.html" target="_top" xlink:title="odp">
<polygon fill="white" stroke="red" points="78,-108 24,-108 24,-72 78,-72 78,-108"/>
<text text-anchor="middle" x="51" y="-87.5" font-family="Helvetica,sans-Serif" font-size="10.00">odp</text>
</a>
</g>
</g>
<!-- dir_be9f6d876b8eda462084eff1b3ea4553 -->
<g id="node3" class="node">
<title>dir_be9f6d876b8eda462084eff1b3ea4553</title>
<g id="a_node3"><a xlink:href="dir_be9f6d876b8eda462084eff1b3ea4553.html" target="_top" xlink:title="api">
<polygon fill="white" stroke="red" points="78,-36 24,-36 24,0 78,0 78,-36"/>
<text text-anchor="middle" x="51" y="-15.5" font-family="Helvetica,sans-Serif" font-size="10.00">api</text>
</a>
</g>
</g>
<!-- dir_16fe0ae1499d13e7cb7a453977af99ef&#45;&gt;dir_be9f6d876b8eda462084eff1b3ea4553 -->
<g id="edge1" class="edge">
<title>dir_16fe0ae1499d13e7cb7a453977af99ef&#45;&gt;dir_be9f6d876b8eda462084eff1b3ea4553</title>
<path fill="none" stroke="black" d="M51,-71.7C51,-63.98 51,-54.71 51,-46.11"/>
<polygon fill="black" stroke="black" points="54.5,-46.1 51,-36.1 47.5,-46.1 54.5,-46.1"/>
<g id="a_edge1&#45;headlabel"><a xlink:href="dir_000011_000002.html" target="_top" xlink:title="21">
<text text-anchor="middle" x="57.34" y="-47.2" font-family="Helvetica,sans-Serif" font-size="10.00">21</text>
</a>
</g>
</g>
</g>
</svg>
