<?xml version="1.0" encoding="UTF-8" standalone="no"?>
<!DOCTYPE svg PUBLIC "-//W3C//DTD SVG 1.1//EN"
 "http://www.w3.org/Graphics/SVG/1.1/DTD/svg11.dtd">
<!-- Generated by graphviz version 2.40.1 (20161225.0304)
 -->
<!-- Title: mips64&#45;linux Pages: 1 -->
<svg width="208pt" height="159pt"
 viewBox="0.00 0.00 208.00 159.00" xmlns="http://www.w3.org/2000/svg" xmlns:xlink="http://www.w3.org/1999/xlink">
<g id="graph0" class="graph" transform="scale(1 1) rotate(0) translate(4 155)">
<title>mips64&#45;linux</title>
<polygon fill="#ffffff" stroke="transparent" points="-4,4 -4,-155 204,-155 204,4 -4,4"/>
<g id="clust1" class="cluster">
<title>clusterdir_4eda4fd55dd0f0d3e72752e79818319a</title>
<g id="a_clust1"><a xlink:href="dir_4eda4fd55dd0f0d3e72752e79818319a.html" target="_top" xlink:title="arch">
<polygon fill="#ddddee" stroke="#000000" points="8,-56 8,-143 192,-143 192,-56 8,-56"/>
<text text-anchor="middle" x="100" y="-131" font-family="Helvetica,sans-Serif" font-size="10.00" fill="#000000">arch</text>
</a>
</g>
</g>
<g id="clust2" class="cluster">
<title>clusterdir_178cc946f187f307d85774a5fd402eaa</title>
<g id="a_clust2"><a xlink:href="dir_178cc946f187f307d85774a5fd402eaa.html" target="_top">
<polygon fill="#eeeeff" stroke="#000000" points="16,-64 16,-116 184,-116 184,-64 16,-64"/>
</a>
</g>
</g>
<!-- dir_178cc946f187f307d85774a5fd402eaa -->
<g id="node1" class="node">
<title>dir_178cc946f187f307d85774a5fd402eaa</title>
<text text-anchor="middle" x="136" y="-87.5" font-family="Helvetica,sans-Serif" font-size="10.00" fill="#000000">mips64&#45;linux</text>
</g>
<!-- dir_c40a23bdcdea7faff67c4b2ea26bd393 -->
<g id="node2" class="node">
<title>dir_c40a23bdcdea7faff67c4b2ea26bd393</title>
<g id="a_node2"><a xlink:href="dir_c40a23bdcdea7faff67c4b2ea26bd393.html" target="_top" xlink:title="odp">
<polygon fill="#ffffff" stroke="#ff0000" points="78,-108 24,-108 24,-72 78,-72 78,-108"/>
<text text-anchor="middle" x="51" y="-87.5" font-family="Helvetica,sans-Serif" font-size="10.00" fill="#000000">odp</text>
</a>
</g>
</g>
<!-- dir_be9f6d876b8eda462084eff1b3ea4553 -->
<g id="node3" class="node">
<title>dir_be9f6d876b8eda462084eff1b3ea4553</title>
<g id="a_node3"><a xlink:href="dir_be9f6d876b8eda462084eff1b3ea4553.html" target="_top" xlink:title="api">
<polygon fill="#ffffff" stroke="#ff0000" points="78,-36 24,-36 24,0 78,0 78,-36"/>
<text text-anchor="middle" x="51" y="-15.5" font-family="Helvetica,sans-Serif" font-size="10.00" fill="#000000">api</text>
</a>
</g>
</g>
<!-- dir_c40a23bdcdea7faff67c4b2ea26bd393&#45;&gt;dir_be9f6d876b8eda462084eff1b3ea4553 -->
<g id="edge1" class="edge">
<title>dir_c40a23bdcdea7faff67c4b2ea26bd393&#45;&gt;dir_be9f6d876b8eda462084eff1b3ea4553</title>
<path fill="none" stroke="#000000" d="M51,-71.8314C51,-64.131 51,-54.9743 51,-46.4166"/>
<polygon fill="#000000" stroke="#000000" points="54.5001,-46.4132 51,-36.4133 47.5001,-46.4133 54.5001,-46.4132"/>
<g id="a_edge1&#45;headlabel"><a xlink:href="dir_000019_000002.html" target="_top" xlink:title="25">
<text text-anchor="middle" x="57.3393" y="-47.5079" font-family="Helvetica,sans-Serif" font-size="10.00" fill="#000000">25</text>
</a>
</g>
</g>
</g>
</svg>
