<?xml version="1.0" encoding="UTF-8" standalone="no"?>
<!DOCTYPE svg PUBLIC "-//W3C//DTD SVG 1.1//EN"
 "http://www.w3.org/Graphics/SVG/1.1/DTD/svg11.dtd">
<!-- Generated by graphviz version 2.43.0 (0)
 -->
<!-- Title: arch Pages: 1 -->
<svg width="680pt" height="141pt"
 viewBox="0.00 0.00 680.00 141.00" xmlns="http://www.w3.org/2000/svg" xmlns:xlink="http://www.w3.org/1999/xlink">
<g id="graph0" class="graph" transform="scale(1 1) rotate(0) translate(4 137)">
<title>arch</title>
<g id="clust1" class="cluster">
<title>clusterdir_a97ec78d987d17ef5986981beb9a2005</title>
<g id="a_clust1"><a xlink:href="dir_a97ec78d987d17ef5986981beb9a2005.html" target="_top" xlink:title="odp">
<polygon fill="#edf0f7" stroke="#7f7f7f" stroke-dasharray="5,2" points="8,-8 8,-125 664,-125 664,-8 8,-8"/>
<text text-anchor="middle" x="336" y="-113" font-family="Helvetica,sans-Serif" font-size="10.00">odp</text>
</a>
</g>
</g>
<g id="clust2" class="cluster">
<title>clusterdir_4eda4fd55dd0f0d3e72752e79818319a</title>
<g id="a_clust2"><a xlink:href="dir_4eda4fd55dd0f0d3e72752e79818319a.html" target="_top">
<polygon fill="#edf0f7" stroke="#404040" stroke-width="2" points="16,-63 16,-98 656,-98 656,-63 16,-63"/>
</a>
</g>
</g>
<!-- dir_be9f6d876b8eda462084eff1b3ea4553 -->
<g id="node1" class="node">
<title>dir_be9f6d876b8eda462084eff1b3ea4553</title>
<g id="a_node1"><a xlink:href="dir_be9f6d876b8eda462084eff1b3ea4553.html" target="_top" xlink:title="api">
<polygon fill="#a2b4d6" stroke="red" points="329,-35 297,-35 297,-16 329,-16 329,-35"/>
<text text-anchor="middle" x="313" y="-23" font-family="Helvetica,sans-Serif" font-size="10.00">api</text>
</a>
</g>
</g>
<!-- dir_4eda4fd55dd0f0d3e72752e79818319a -->
<g id="node2" class="node">
<title>dir_4eda4fd55dd0f0d3e72752e79818319a</title>
<text text-anchor="middle" x="629" y="-78" font-family="Helvetica,sans-Serif" font-size="10.00">arch</text>
</g>
<!-- dir_052e7602a29a4e1039e7de666bce86ca -->
<g id="node3" class="node">
<title>dir_052e7602a29a4e1039e7de666bce86ca</title>
<g id="a_node3"><a xlink:href="dir_052e7602a29a4e1039e7de666bce86ca.html" target="_top" xlink:title="arm32&#45;linux">
<polygon fill="#a2b4d6" stroke="#404040" points="592,-90 516,-90 516,-71 592,-71 592,-90"/>
<text text-anchor="middle" x="554" y="-78" font-family="Helvetica,sans-Serif" font-size="10.00">arm32&#45;linux</text>
</a>
</g>
</g>
<!-- dir_052e7602a29a4e1039e7de666bce86ca&#45;&gt;dir_be9f6d876b8eda462084eff1b3ea4553 -->
<g id="edge1" class="edge">
<title>dir_052e7602a29a4e1039e7de666bce86ca&#45;&gt;dir_be9f6d876b8eda462084eff1b3ea4553</title>
<g id="a_edge1"><a xlink:href="dir_000016_000007.html" target="_top">
<path fill="none" stroke="#63b8ff" d="M531.74,-70.91C523.99,-68.13 515.19,-65.19 507,-63 447.8,-47.14 376.63,-35.62 339.11,-30.12"/>
<polygon fill="#63b8ff" stroke="#63b8ff" points="339.42,-26.63 329.03,-28.67 338.43,-33.56 339.42,-26.63"/>
</a>
</g>
<g id="a_edge1&#45;headlabel"><a xlink:href="dir_000016_000007.html" target="_top" xlink:title="21">
<text text-anchor="middle" x="343.39" y="-21.84" font-family="Helvetica,sans-Serif" font-size="10.00" fill="#63b8ff">21</text>
</a>
</g>
</g>
<!-- dir_70eaa2f41713610ea0cf8498c63ac358 -->
<g id="node4" class="node">
<title>dir_70eaa2f41713610ea0cf8498c63ac358</title>
<g id="a_node4"><a xlink:href="dir_70eaa2f41713610ea0cf8498c63ac358.html" target="_top" xlink:title="arm64&#45;linux">
<polygon fill="#a2b4d6" stroke="#404040" points="498,-90 422,-90 422,-71 498,-71 498,-90"/>
<text text-anchor="middle" x="460" y="-78" font-family="Helvetica,sans-Serif" font-size="10.00">arm64&#45;linux</text>
</a>
</g>
</g>
<!-- dir_70eaa2f41713610ea0cf8498c63ac358&#45;&gt;dir_be9f6d876b8eda462084eff1b3ea4553 -->
<g id="edge2" class="edge">
<title>dir_70eaa2f41713610ea0cf8498c63ac358&#45;&gt;dir_be9f6d876b8eda462084eff1b3ea4553</title>
<g id="a_edge2"><a xlink:href="dir_000017_000007.html" target="_top">
<path fill="none" stroke="#63b8ff" d="M436.38,-70.98C409.75,-61.38 366.59,-45.82 339.02,-35.88"/>
<polygon fill="#63b8ff" stroke="#63b8ff" points="339.87,-32.47 329.28,-32.37 337.5,-39.05 339.87,-32.47"/>
</a>
</g>
<g id="a_edge2&#45;headlabel"><a xlink:href="dir_000017_000007.html" target="_top" xlink:title="21">
<text text-anchor="middle" x="344.22" y="-28.52" font-family="Helvetica,sans-Serif" font-size="10.00" fill="#63b8ff">21</text>
</a>
</g>
</g>
<!-- dir_48117faa50f292645806ea8fb70008d8 -->
<g id="node5" class="node">
<title>dir_48117faa50f292645806ea8fb70008d8</title>
<g id="a_node5"><a xlink:href="dir_48117faa50f292645806ea8fb70008d8.html" target="_top" xlink:title="default&#45;linux">
<polygon fill="#a2b4d6" stroke="#404040" points="403.5,-90 324.5,-90 324.5,-71 403.5,-71 403.5,-90"/>
<text text-anchor="middle" x="364" y="-78" font-family="Helvetica,sans-Serif" font-size="10.00">default&#45;linux</text>
</a>
</g>
</g>
<!-- dir_48117faa50f292645806ea8fb70008d8&#45;&gt;dir_be9f6d876b8eda462084eff1b3ea4553 -->
<g id="edge3" class="edge">
<title>dir_48117faa50f292645806ea8fb70008d8&#45;&gt;dir_be9f6d876b8eda462084eff1b3ea4553</title>
<g id="a_edge3"><a xlink:href="dir_000021_000007.html" target="_top">
<path fill="none" stroke="#63b8ff" d="M355.58,-70.75C348.23,-63.11 337.37,-51.82 328.46,-42.56"/>
<polygon fill="#63b8ff" stroke="#63b8ff" points="330.72,-39.87 321.26,-35.09 325.68,-44.72 330.72,-39.87"/>
</a>
</g>
<g id="a_edge3&#45;headlabel"><a xlink:href="dir_000021_000007.html" target="_top" xlink:title="21">
<text text-anchor="middle" x="335.26" y="-37.99" font-family="Helvetica,sans-Serif" font-size="10.00" fill="#63b8ff">21</text>
</a>
</g>
</g>
<!-- dir_03c05aea247c636c5180e1c14df87c04 -->
<g id="node6" class="node">
<title>dir_03c05aea247c636c5180e1c14df87c04</title>
<g id="a_node6"><a xlink:href="dir_03c05aea247c636c5180e1c14df87c04.html" target="_top" xlink:title="power64&#45;linux">
<polygon fill="#a2b4d6" stroke="#404040" points="306,-90 220,-90 220,-71 306,-71 306,-90"/>
<text text-anchor="middle" x="263" y="-78" font-family="Helvetica,sans-Serif" font-size="10.00">power64&#45;linux</text>
</a>
</g>
</g>
<!-- dir_03c05aea247c636c5180e1c14df87c04&#45;&gt;dir_be9f6d876b8eda462084eff1b3ea4553 -->
<g id="edge4" class="edge">
<title>dir_03c05aea247c636c5180e1c14df87c04&#45;&gt;dir_be9f6d876b8eda462084eff1b3ea4553</title>
<g id="a_edge4"><a xlink:href="dir_000042_000007.html" target="_top">
<path fill="none" stroke="#63b8ff" d="M271.26,-70.75C278.46,-63.11 289.11,-51.82 297.85,-42.56"/>
<polygon fill="#63b8ff" stroke="#63b8ff" points="300.58,-44.76 304.9,-35.09 295.49,-39.96 300.58,-44.76"/>
</a>
</g>
<g id="a_edge4&#45;headlabel"><a xlink:href="dir_000042_000007.html" target="_top" xlink:title="21">
<text text-anchor="middle" x="300.18" y="-46.83" font-family="Helvetica,sans-Serif" font-size="10.00" fill="#63b8ff">21</text>
</a>
</g>
</g>
<!-- dir_8bf6b7e80d8919b75edbcc15956e61d9 -->
<g id="node7" class="node">
<title>dir_8bf6b7e80d8919b75edbcc15956e61d9</title>
<g id="a_node7"><a xlink:href="dir_8bf6b7e80d8919b75edbcc15956e61d9.html" target="_top" xlink:title="x86_32&#45;linux">
<polygon fill="#a2b4d6" stroke="#404040" points="202,-90 122,-90 122,-71 202,-71 202,-90"/>
<text text-anchor="middle" x="162" y="-78" font-family="Helvetica,sans-Serif" font-size="10.00">x86_32&#45;linux</text>
</a>
</g>
</g>
<!-- dir_8bf6b7e80d8919b75edbcc15956e61d9&#45;&gt;dir_be9f6d876b8eda462084eff1b3ea4553 -->
<g id="edge5" class="edge">
<title>dir_8bf6b7e80d8919b75edbcc15956e61d9&#45;&gt;dir_be9f6d876b8eda462084eff1b3ea4553</title>
<g id="a_edge5"><a xlink:href="dir_000050_000007.html" target="_top">
<path fill="none" stroke="#63b8ff" d="M186.26,-70.98C213.88,-61.29 258.83,-45.51 287.11,-35.59"/>
<polygon fill="#63b8ff" stroke="#63b8ff" points="288.43,-38.83 296.71,-32.22 286.12,-32.23 288.43,-38.83"/>
</a>
</g>
<g id="a_edge5&#45;headlabel"><a xlink:href="dir_000050_000007.html" target="_top" xlink:title="21">
<text text-anchor="middle" x="285.98" y="-40.2" font-family="Helvetica,sans-Serif" font-size="10.00" fill="#63b8ff">21</text>
</a>
</g>
</g>
<!-- dir_e8c392aee706068680f6562db90ecbae -->
<g id="node8" class="node">
<title>dir_e8c392aee706068680f6562db90ecbae</title>
<g id="a_node8"><a xlink:href="dir_e8c392aee706068680f6562db90ecbae.html" target="_top" xlink:title="x86_64&#45;linux">
<polygon fill="#a2b4d6" stroke="#404040" points="104,-90 24,-90 24,-71 104,-71 104,-90"/>
<text text-anchor="middle" x="64" y="-78" font-family="Helvetica,sans-Serif" font-size="10.00">x86_64&#45;linux</text>
</a>
</g>
</g>
<!-- dir_e8c392aee706068680f6562db90ecbae&#45;&gt;dir_be9f6d876b8eda462084eff1b3ea4553 -->
<g id="edge6" class="edge">
<title>dir_e8c392aee706068680f6562db90ecbae&#45;&gt;dir_be9f6d876b8eda462084eff1b3ea4553</title>
<g id="a_edge6"><a xlink:href="dir_000051_000007.html" target="_top">
<path fill="none" stroke="#63b8ff" d="M87.22,-70.92C95.31,-68.13 104.48,-65.2 113,-63 174.28,-47.18 247.83,-35.62 286.4,-30.11"/>
<polygon fill="#63b8ff" stroke="#63b8ff" points="287.34,-33.51 296.76,-28.65 286.37,-26.58 287.34,-33.51"/>
</a>
</g>
<g id="a_edge6&#45;headlabel"><a xlink:href="dir_000051_000007.html" target="_top" xlink:title="21">
<text text-anchor="middle" x="284.17" y="-34.32" font-family="Helvetica,sans-Serif" font-size="10.00" fill="#63b8ff">21</text>
</a>
</g>
</g>
</g>
</svg>
