<?xml version="1.0" encoding="UTF-8" standalone="no"?>
<!DOCTYPE svg PUBLIC "-//W3C//DTD SVG 1.1//EN"
 "http://www.w3.org/Graphics/SVG/1.1/DTD/svg11.dtd">
<!-- Generated by graphviz version 2.43.0 (0)
 -->
<!-- Title: hints.h Pages: 1 -->
<svg width="160pt" height="302pt"
 viewBox="0.00 0.00 160.18 302.00" xmlns="http://www.w3.org/2000/svg" xmlns:xlink="http://www.w3.org/1999/xlink">
<g id="graph0" class="graph" transform="scale(1 1) rotate(0) translate(4 298)">
<title>hints.h</title>
<!-- Node1 -->
<g id="Node000001" class="node">
<title>Node1</title>
<g id="a_Node000001"><a xlink:title="ODP compiler hints.">
<polygon fill="#999999" stroke="#666666" points="137.18,-294 87.18,-294 87.18,-275 137.18,-275 137.18,-294"/>
<text text-anchor="middle" x="112.18" y="-282" font-family="Helvetica,sans-Serif" font-size="10.00">hints.h</text>
</a>
</g>
</g>
<!-- Node2 -->
<g id="Node000002" class="node">
<title>Node2</title>
<g id="a_Node000002"><a xlink:href="api_2spec_2init_8h.html" target="_top" xlink:title=" ">
<polygon fill="white" stroke="#666666" points="108.68,-239 67.68,-239 67.68,-220 108.68,-220 108.68,-239"/>
<text text-anchor="middle" x="88.18" y="-227" font-family="Helvetica,sans-Serif" font-size="10.00">init.h</text>
</a>
</g>
</g>
<!-- Node1&#45;&gt;Node2 -->
<g id="edge1_Node000001_Node000002" class="edge">
<title>Node1&#45;&gt;Node2</title>
<g id="a_edge1_Node000001_Node000002"><a xlink:title=" ">
<path fill="none" stroke="#63b8ff" d="M104.04,-265.53C99.99,-256.6 95.29,-246.22 92.07,-239.09"/>
<polygon fill="#63b8ff" stroke="#63b8ff" points="100.9,-267.08 108.21,-274.75 107.28,-264.19 100.9,-267.08"/>
</a>
</g>
</g>
<!-- Node4 -->
<g id="Node000004" class="node">
<title>Node4</title>
<g id="a_Node000004"><a xlink:href="odp__api_8h.html" target="_top" xlink:title="The OpenDataPlane API.">
<polygon fill="white" stroke="#666666" points="104.18,-19 40.18,-19 40.18,0 104.18,0 104.18,-19"/>
<text text-anchor="middle" x="72.18" y="-7" font-family="Helvetica,sans-Serif" font-size="10.00">odp_api.h</text>
</a>
</g>
</g>
<!-- Node1&#45;&gt;Node4 -->
<g id="edge7_Node000001_Node000004" class="edge">
<title>Node1&#45;&gt;Node4</title>
<g id="a_edge7_Node000001_Node000004"><a xlink:title=" ">
<path fill="none" stroke="#63b8ff" d="M122.85,-266.34C134.7,-245.62 152.18,-209.33 152.18,-175.5 152.18,-175.5 152.18,-175.5 152.18,-118.5 152.18,-89.04 150.19,-79.05 133.18,-55 121.97,-39.16 103.34,-26.76 89.6,-19.12"/>
<polygon fill="#63b8ff" stroke="#63b8ff" points="119.84,-264.56 117.74,-274.94 125.86,-268.14 119.84,-264.56"/>
</a>
</g>
</g>
<!-- Node3 -->
<g id="Node000003" class="node">
<title>Node3</title>
<g id="a_Node000003"><a xlink:href="api_2init_8h.html" target="_top" xlink:title="ODP initialization.">
<polygon fill="white" stroke="#666666" points="92.68,-184 51.68,-184 51.68,-165 92.68,-165 92.68,-184"/>
<text text-anchor="middle" x="72.18" y="-172" font-family="Helvetica,sans-Serif" font-size="10.00">init.h</text>
</a>
</g>
</g>
<!-- Node2&#45;&gt;Node3 -->
<g id="edge2_Node000002_Node000003" class="edge">
<title>Node2&#45;&gt;Node3</title>
<g id="a_edge2_Node000002_Node000003"><a xlink:title=" ">
<path fill="none" stroke="#63b8ff" d="M82.58,-209.95C79.92,-201.15 76.88,-191.06 74.77,-184.09"/>
<polygon fill="#63b8ff" stroke="#63b8ff" points="79.29,-211.19 85.54,-219.75 86,-209.16 79.29,-211.19"/>
</a>
</g>
</g>
<!-- Node3&#45;&gt;Node4 -->
<g id="edge3_Node000003_Node000004" class="edge">
<title>Node3&#45;&gt;Node4</title>
<g id="a_edge3_Node000003_Node000004"><a xlink:title=" ">
<path fill="none" stroke="#63b8ff" d="M42.93,-159.9C30.78,-152.59 17.95,-142.32 11.18,-129 -3.73,-99.68 -3.73,-84.32 11.18,-55 19.67,-38.29 37.71,-26.36 51.98,-19.09"/>
<polygon fill="#63b8ff" stroke="#63b8ff" points="41.53,-163.13 51.98,-164.91 44.92,-157.01 41.53,-163.13"/>
</a>
</g>
</g>
<!-- Node5 -->
<g id="Node000005" class="node">
<title>Node5</title>
<g id="a_Node000005"><a xlink:href="api_2spec_2shared__memory_8h.html" target="_top" xlink:title="ODP shared memory.">
<polygon fill="white" stroke="#666666" points="124.18,-129 20.18,-129 20.18,-110 124.18,-110 124.18,-129"/>
<text text-anchor="middle" x="72.18" y="-117" font-family="Helvetica,sans-Serif" font-size="10.00">shared_memory.h</text>
</a>
</g>
</g>
<!-- Node3&#45;&gt;Node5 -->
<g id="edge4_Node000003_Node000005" class="edge">
<title>Node3&#45;&gt;Node5</title>
<g id="a_edge4_Node000003_Node000005"><a xlink:title=" ">
<path fill="none" stroke="#63b8ff" d="M72.18,-154.66C72.18,-145.93 72.18,-135.99 72.18,-129.09"/>
<polygon fill="#63b8ff" stroke="#63b8ff" points="68.68,-154.75 72.18,-164.75 75.68,-154.75 68.68,-154.75"/>
</a>
</g>
</g>
<!-- Node6 -->
<g id="Node000006" class="node">
<title>Node6</title>
<g id="a_Node000006"><a xlink:href="api_2shared__memory_8h.html" target="_top" xlink:title="ODP shared memory.">
<polygon fill="white" stroke="#666666" points="124.18,-74 20.18,-74 20.18,-55 124.18,-55 124.18,-74"/>
<text text-anchor="middle" x="72.18" y="-62" font-family="Helvetica,sans-Serif" font-size="10.00">shared_memory.h</text>
</a>
</g>
</g>
<!-- Node5&#45;&gt;Node6 -->
<g id="edge5_Node000005_Node000006" class="edge">
<title>Node5&#45;&gt;Node6</title>
<g id="a_edge5_Node000005_Node000006"><a xlink:title=" ">
<path fill="none" stroke="#63b8ff" d="M72.18,-99.66C72.18,-90.93 72.18,-80.99 72.18,-74.09"/>
<polygon fill="#63b8ff" stroke="#63b8ff" points="68.68,-99.75 72.18,-109.75 75.68,-99.75 68.68,-99.75"/>
</a>
</g>
</g>
<!-- Node6&#45;&gt;Node4 -->
<g id="edge6_Node000006_Node000004" class="edge">
<title>Node6&#45;&gt;Node4</title>
<g id="a_edge6_Node000006_Node000004"><a xlink:title=" ">
<path fill="none" stroke="#63b8ff" d="M72.18,-44.66C72.18,-35.93 72.18,-25.99 72.18,-19.09"/>
<polygon fill="#63b8ff" stroke="#63b8ff" points="68.68,-44.75 72.18,-54.75 75.68,-44.75 68.68,-44.75"/>
</a>
</g>
</g>
</g>
</svg>
