<?xml version="1.0" encoding="UTF-8" standalone="no"?>
<!DOCTYPE svg PUBLIC "-//W3C//DTD SVG 1.1//EN"
 "http://www.w3.org/Graphics/SVG/1.1/DTD/svg11.dtd">
<!-- Generated by graphviz version 2.40.1 (20161225.0304)
 -->
<!-- Title: odp.h Pages: 1 -->
<svg width="5358pt" height="196pt"
 viewBox="0.00 0.00 5357.50 196.00" xmlns="http://www.w3.org/2000/svg" xmlns:xlink="http://www.w3.org/1999/xlink">
<g id="graph0" class="graph" transform="scale(1 1) rotate(0) translate(4 192)">
<title>odp.h</title>
<polygon fill="#ffffff" stroke="transparent" points="-4,4 -4,-192 5353.5,-192 5353.5,4 -4,4"/>
<!-- Node0 -->
<g id="node1" class="node">
<title>Node0</title>
<polygon fill="#bfbfbf" stroke="#000000" points="2574.5,-168.5 2574.5,-187.5 2618.5,-187.5 2618.5,-168.5 2574.5,-168.5"/>
<text text-anchor="middle" x="2596.5" y="-175.5" font-family="Helvetica,sans-Serif" font-size="10.00" fill="#000000">odp.h</text>
</g>
<!-- Node1 -->
<g id="node2" class="node">
<title>Node1</title>
<g id="a_node2"><a xlink:href="odp__api_8h.html" target="_top" xlink:title="The OpenDataPlane API. ">
<polygon fill="#ffffff" stroke="#000000" points="2564.5,-112.5 2564.5,-131.5 2628.5,-131.5 2628.5,-112.5 2564.5,-112.5"/>
<text text-anchor="middle" x="2596.5" y="-119.5" font-family="Helvetica,sans-Serif" font-size="10.00" fill="#000000">odp_api.h</text>
</a>
</g>
</g>
<!-- Node0&#45;&gt;Node1 -->
<g id="edge1" class="edge">
<title>Node0&#45;&gt;Node1</title>
<path fill="none" stroke="#191970" d="M2596.5,-168.2455C2596.5,-160.9382 2596.5,-150.6944 2596.5,-141.7046"/>
<polygon fill="#191970" stroke="#191970" points="2600.0001,-141.6426 2596.5,-131.6427 2593.0001,-141.6427 2600.0001,-141.6426"/>
</g>
<!-- Node2 -->
<g id="node3" class="node">
<title>Node2</title>
<g id="a_node3"><a xlink:href="deprecated_8h.html" target="_top" xlink:title="Control deprecated API definitions. ">
<polygon fill="#ffffff" stroke="#000000" points="24,-56.5 24,-75.5 143,-75.5 143,-56.5 24,-56.5"/>
<text text-anchor="middle" x="83.5" y="-63.5" font-family="Helvetica,sans-Serif" font-size="10.00" fill="#000000">odp/api/deprecated.h</text>
</a>
</g>
</g>
<!-- Node1&#45;&gt;Node2 -->
<g id="edge2" class="edge">
<title>Node1&#45;&gt;Node2</title>
<path fill="none" stroke="#191970" d="M2564.4823,-121.9139C2313.2816,-121.1612 655.7415,-114.7662 156.5,-76 155.4159,-75.9158 154.3234,-75.8262 153.2241,-75.7316"/>
<polygon fill="#191970" stroke="#191970" points="153.4878,-72.2409 143.1964,-74.7581 152.8113,-79.2081 153.4878,-72.2409"/>
</g>
<!-- Node6 -->
<g id="node5" class="node">
<title>Node6</title>
<g id="a_node5"><a xlink:href="api_2version_8h.html" target="_top" xlink:title="ODP version. ">
<polygon fill="#ffffff" stroke="#ff0000" points="166,-56.5 166,-75.5 267,-75.5 267,-56.5 166,-56.5"/>
<text text-anchor="middle" x="216.5" y="-63.5" font-family="Helvetica,sans-Serif" font-size="10.00" fill="#000000">odp/api/version.h</text>
</a>
</g>
</g>
<!-- Node1&#45;&gt;Node6 -->
<g id="edge4" class="edge">
<title>Node1&#45;&gt;Node6</title>
<path fill="none" stroke="#191970" d="M2564.1979,-121.9483C2319.4298,-121.4687 753.5829,-116.8225 281.5,-76 280.1883,-75.8866 278.8629,-75.7631 277.5277,-75.6306"/>
<polygon fill="#191970" stroke="#191970" points="277.4935,-72.1046 267.1637,-74.4593 276.7073,-79.0603 277.4935,-72.1046"/>
</g>
<!-- Node9 -->
<g id="node7" class="node">
<title>Node9</title>
<g id="a_node7"><a xlink:href="api_2std__types_8h.html" target="_top" xlink:title="Standard C language types and definitions for ODP. ">
<polygon fill="#ffffff" stroke="#ff0000" points="2695.5,-.5 2695.5,-19.5 2807.5,-19.5 2807.5,-.5 2695.5,-.5"/>
<text text-anchor="middle" x="2751.5" y="-7.5" font-family="Helvetica,sans-Serif" font-size="10.00" fill="#000000">odp/api/std_types.h</text>
</a>
</g>
</g>
<!-- Node1&#45;&gt;Node9 -->
<g id="edge6" class="edge">
<title>Node1&#45;&gt;Node9</title>
<path fill="none" stroke="#191970" d="M2628.5361,-114.7974C2663.9874,-106.2195 2718.0385,-91.1403 2732.5,-76 2744.3132,-63.6322 2748.8533,-44.4039 2750.562,-29.8857"/>
<polygon fill="#191970" stroke="#191970" points="2754.0521,-30.1482 2751.3902,-19.8933 2747.0761,-29.5699 2754.0521,-30.1482"/>
</g>
<!-- Node13 -->
<g id="node8" class="node">
<title>Node13</title>
<g id="a_node8"><a xlink:href="api_2align_8h.html" target="_top" xlink:title="ODP alignments. ">
<polygon fill="#ffffff" stroke="#ff0000" points="324,-56.5 324,-75.5 413,-75.5 413,-56.5 324,-56.5"/>
<text text-anchor="middle" x="368.5" y="-63.5" font-family="Helvetica,sans-Serif" font-size="10.00" fill="#000000">odp/api/align.h</text>
</a>
</g>
</g>
<!-- Node1&#45;&gt;Node13 -->
<g id="edge7" class="edge">
<title>Node1&#45;&gt;Node13</title>
<path fill="none" stroke="#191970" d="M2564.4296,-121.6428C2315.065,-118.8236 688.951,-99.6755 423.4902,-75.9687"/>
<polygon fill="#191970" stroke="#191970" points="423.5327,-72.4567 413.2429,-74.9803 422.8606,-79.4243 423.5327,-72.4567"/>
</g>
<!-- Node16 -->
<g id="node9" class="node">
<title>Node16</title>
<g id="a_node9"><a xlink:href="api_2hash_8h.html" target="_top" xlink:title="ODP Hash function. ">
<polygon fill="#ffffff" stroke="#ff0000" points="430.5,-56.5 430.5,-75.5 518.5,-75.5 518.5,-56.5 430.5,-56.5"/>
<text text-anchor="middle" x="474.5" y="-63.5" font-family="Helvetica,sans-Serif" font-size="10.00" fill="#000000">odp/api/hash.h</text>
</a>
</g>
</g>
<!-- Node1&#45;&gt;Node16 -->
<g id="edge8" class="edge">
<title>Node1&#45;&gt;Node16</title>
<path fill="none" stroke="#191970" d="M2564.4652,-121.5992C2322.4056,-118.5305 783.7321,-98.3012 528.8034,-75.7416"/>
<polygon fill="#191970" stroke="#191970" points="528.9083,-72.2358 518.6206,-74.7681 528.2421,-79.204 528.9083,-72.2358"/>
</g>
<!-- Node19 -->
<g id="node10" class="node">
<title>Node19</title>
<g id="a_node10"><a xlink:href="chksum_8h.html" target="_top" xlink:title="ODP checksum functions. ">
<polygon fill="#ffffff" stroke="#ff0000" points="537,-56.5 537,-75.5 640,-75.5 640,-56.5 537,-56.5"/>
<text text-anchor="middle" x="588.5" y="-63.5" font-family="Helvetica,sans-Serif" font-size="10.00" fill="#000000">odp/api/chksum.h</text>
</a>
</g>
</g>
<!-- Node1&#45;&gt;Node19 -->
<g id="edge9" class="edge">
<title>Node1&#45;&gt;Node19</title>
<path fill="none" stroke="#191970" d="M2564.2064,-121.8519C2344.3879,-120.7521 1064.6702,-112.8719 650.2433,-75.8966"/>
<polygon fill="#191970" stroke="#191970" points="650.2968,-72.387 640.0197,-74.962 649.6595,-79.3579 650.2968,-72.387"/>
</g>
<!-- Node21 -->
<g id="node11" class="node">
<title>Node21</title>
<g id="a_node11"><a xlink:href="api_2comp_8h.html" target="_top" xlink:title="ODP crypto. ">
<polygon fill="#ffffff" stroke="#ff0000" points="658.5,-56.5 658.5,-75.5 750.5,-75.5 750.5,-56.5 658.5,-56.5"/>
<text text-anchor="middle" x="704.5" y="-63.5" font-family="Helvetica,sans-Serif" font-size="10.00" fill="#000000">odp/api/comp.h</text>
</a>
</g>
</g>
<!-- Node1&#45;&gt;Node21 -->
<g id="edge10" class="edge">
<title>Node1&#45;&gt;Node21</title>
<path fill="none" stroke="#191970" d="M2564.3437,-121.862C2350.4354,-120.8435 1130.4683,-113.4492 760.5,-76 760.3987,-75.9897 760.2973,-75.9794 760.1957,-75.969"/>
<polygon fill="#191970" stroke="#191970" points="760.9166,-72.531 750.567,-74.7972 760.0709,-79.4797 760.9166,-72.531"/>
</g>
<!-- Node45 -->
<g id="node12" class="node">
<title>Node45</title>
<g id="a_node12"><a xlink:href="hints_8h.html" target="_top" xlink:title="ODP compiler hints. ">
<polygon fill="#ffffff" stroke="#ff0000" points="769,-56.5 769,-75.5 858,-75.5 858,-56.5 769,-56.5"/>
<text text-anchor="middle" x="813.5" y="-63.5" font-family="Helvetica,sans-Serif" font-size="10.00" fill="#000000">odp/api/hints.h</text>
</a>
</g>
</g>
<!-- Node1&#45;&gt;Node45 -->
<g id="edge11" class="edge">
<title>Node1&#45;&gt;Node45</title>
<path fill="none" stroke="#191970" d="M2564.2419,-121.8319C2359.2914,-120.6609 1235.7803,-112.6851 868.3327,-75.8785"/>
<polygon fill="#191970" stroke="#191970" points="868.5162,-72.3789 858.2104,-74.8369 867.7996,-79.3422 868.5162,-72.3789"/>
</g>
<!-- Node47 -->
<g id="node13" class="node">
<title>Node47</title>
<g id="a_node13"><a xlink:href="api_2debug_8h.html" target="_top" xlink:title="ODP debug. ">
<polygon fill="#ffffff" stroke="#ff0000" points="876,-56.5 876,-75.5 971,-75.5 971,-56.5 876,-56.5"/>
<text text-anchor="middle" x="923.5" y="-63.5" font-family="Helvetica,sans-Serif" font-size="10.00" fill="#000000">odp/api/debug.h</text>
</a>
</g>
</g>
<!-- Node1&#45;&gt;Node47 -->
<g id="edge12" class="edge">
<title>Node1&#45;&gt;Node47</title>
<path fill="none" stroke="#191970" d="M2564.4557,-121.7232C2368.0815,-119.9321 1324.7273,-109.0287 980.9785,-75.8554"/>
<polygon fill="#191970" stroke="#191970" points="981.3106,-72.3712 971.014,-74.8674 980.6198,-79.3371 981.3106,-72.3712"/>
</g>
<!-- Node50 -->
<g id="node14" class="node">
<title>Node50</title>
<g id="a_node14"><a xlink:href="api_2byteorder_8h.html" target="_top" xlink:title="ODP byteorder. ">
<polygon fill="#ffffff" stroke="#ff0000" points="989,-56.5 989,-75.5 1100,-75.5 1100,-56.5 989,-56.5"/>
<text text-anchor="middle" x="1044.5" y="-63.5" font-family="Helvetica,sans-Serif" font-size="10.00" fill="#000000">odp/api/byteorder.h</text>
</a>
</g>
</g>
<!-- Node1&#45;&gt;Node50 -->
<g id="edge13" class="edge">
<title>Node1&#45;&gt;Node50</title>
<path fill="none" stroke="#191970" d="M2564.3086,-121.5384C2377.1504,-118.7746 1426.8083,-103.6292 1110.2023,-75.9186"/>
<polygon fill="#191970" stroke="#191970" points="1110.3876,-72.4213 1100.1143,-75.0115 1109.7606,-79.3931 1110.3876,-72.4213"/>
</g>
<!-- Node53 -->
<g id="node15" class="node">
<title>Node53</title>
<g id="a_node15"><a xlink:href="api_2cpu_8h.html" target="_top" xlink:title="ODP CPU. ">
<polygon fill="#ffffff" stroke="#ff0000" points="1118.5,-56.5 1118.5,-75.5 1200.5,-75.5 1200.5,-56.5 1118.5,-56.5"/>
<text text-anchor="middle" x="1159.5" y="-63.5" font-family="Helvetica,sans-Serif" font-size="10.00" fill="#000000">odp/api/cpu.h</text>
</a>
</g>
</g>
<!-- Node1&#45;&gt;Node53 -->
<g id="edge14" class="edge">
<title>Node1&#45;&gt;Node53</title>
<path fill="none" stroke="#191970" d="M2564.2416,-121.5693C2382.8731,-119.0504 1488.5594,-105.3157 1214.5,-76 1213.2244,-75.8635 1211.9338,-75.7145 1210.6333,-75.5546"/>
<polygon fill="#191970" stroke="#191970" points="1210.9388,-72.0633 1200.55,-74.1425 1209.9679,-78.9957 1210.9388,-72.0633"/>
</g>
<!-- Node55 -->
<g id="node16" class="node">
<title>Node55</title>
<g id="a_node16"><a xlink:href="api_2thread_8h.html" target="_top" xlink:title="ODP thread API. ">
<polygon fill="#ffffff" stroke="#ff0000" points="785.5,-.5 785.5,-19.5 881.5,-19.5 881.5,-.5 785.5,-.5"/>
<text text-anchor="middle" x="833.5" y="-7.5" font-family="Helvetica,sans-Serif" font-size="10.00" fill="#000000">odp/api/thread.h</text>
</a>
</g>
</g>
<!-- Node1&#45;&gt;Node55 -->
<g id="edge26" class="edge">
<title>Node1&#45;&gt;Node55</title>
<path fill="none" stroke="#191970" d="M2564.4367,-121.9734C2290.7774,-121.6723 356.7175,-118.0571 315.5,-76 309.2783,-69.6516 309.499,-62.5575 315.5,-56 346.0255,-22.6437 645.9677,-13.3238 774.9872,-10.8477"/>
<polygon fill="#191970" stroke="#191970" points="775.1508,-14.3454 785.0844,-10.6613 775.0215,-7.3466 775.1508,-14.3454"/>
</g>
<!-- Node60 -->
<g id="node17" class="node">
<title>Node60</title>
<g id="a_node17"><a xlink:href="api_2cpumask_8h.html" target="_top" xlink:title="ODP CPU masks and enumeration. ">
<polygon fill="#ffffff" stroke="#ff0000" points="1257,-56.5 1257,-75.5 1366,-75.5 1366,-56.5 1257,-56.5"/>
<text text-anchor="middle" x="1311.5" y="-63.5" font-family="Helvetica,sans-Serif" font-size="10.00" fill="#000000">odp/api/cpumask.h</text>
</a>
</g>
</g>
<!-- Node1&#45;&gt;Node60 -->
<g id="edge16" class="edge">
<title>Node1&#45;&gt;Node60</title>
<path fill="none" stroke="#191970" d="M2564.2372,-121.2981C2398.0324,-117.6048 1636.5279,-99.7259 1376.4133,-75.945"/>
<polygon fill="#191970" stroke="#191970" points="1376.5433,-72.4418 1366.2592,-74.9887 1375.8869,-79.411 1376.5433,-72.4418"/>
</g>
<!-- Node63 -->
<g id="node18" class="node">
<title>Node63</title>
<g id="a_node18"><a xlink:href="api_2barrier_8h.html" target="_top" xlink:title="ODP execution barriers. ">
<polygon fill="#ffffff" stroke="#ff0000" points="1384.5,-56.5 1384.5,-75.5 1480.5,-75.5 1480.5,-56.5 1384.5,-56.5"/>
<text text-anchor="middle" x="1432.5" y="-63.5" font-family="Helvetica,sans-Serif" font-size="10.00" fill="#000000">odp/api/barrier.h</text>
</a>
</g>
</g>
<!-- Node1&#45;&gt;Node63 -->
<g id="edge17" class="edge">
<title>Node1&#45;&gt;Node63</title>
<path fill="none" stroke="#191970" d="M2564.4163,-121.2402C2408.3067,-117.4572 1726.4692,-99.919 1490.8478,-75.978"/>
<polygon fill="#191970" stroke="#191970" points="1490.9492,-72.4695 1480.6384,-74.906 1490.2182,-79.4312 1490.9492,-72.4695"/>
</g>
<!-- Node64 -->
<g id="node19" class="node">
<title>Node64</title>
<g id="a_node19"><a xlink:href="api_2atomic_8h.html" target="_top" xlink:title="ODP atomic operations. ">
<polygon fill="#ffffff" stroke="#ff0000" points="1281.5,-.5 1281.5,-19.5 1379.5,-19.5 1379.5,-.5 1281.5,-.5"/>
<text text-anchor="middle" x="1330.5" y="-7.5" font-family="Helvetica,sans-Serif" font-size="10.00" fill="#000000">odp/api/atomic.h</text>
</a>
</g>
</g>
<!-- Node1&#45;&gt;Node64 -->
<g id="edge21" class="edge">
<title>Node1&#45;&gt;Node64</title>
<path fill="none" stroke="#191970" d="M2564.4563,-121.5168C2362.3678,-118.3958 1272.1214,-100.4412 1248.5,-76 1228.9041,-55.724 1262.7205,-35.9129 1292.6811,-23.3724"/>
<polygon fill="#191970" stroke="#191970" points="1294.2155,-26.5284 1302.2005,-19.5649 1291.6158,-20.029 1294.2155,-26.5284"/>
</g>
<!-- Node70 -->
<g id="node20" class="node">
<title>Node70</title>
<g id="a_node20"><a xlink:href="api_2spinlock_8h.html" target="_top" xlink:title="ODP spinlock. ">
<polygon fill="#ffffff" stroke="#ff0000" points="1615,-56.5 1615,-75.5 1720,-75.5 1720,-56.5 1615,-56.5"/>
<text text-anchor="middle" x="1667.5" y="-63.5" font-family="Helvetica,sans-Serif" font-size="10.00" fill="#000000">odp/api/spinlock.h</text>
</a>
</g>
</g>
<!-- Node1&#45;&gt;Node70 -->
<g id="edge20" class="edge">
<title>Node1&#45;&gt;Node70</title>
<path fill="none" stroke="#191970" d="M2564.1221,-121.5292C2450.8984,-119.6204 2062.0745,-110.8584 1730.5003,-75.9876"/>
<polygon fill="#191970" stroke="#191970" points="1730.5273,-72.4709 1720.2136,-74.8953 1729.7881,-79.4317 1730.5273,-72.4709"/>
</g>
<!-- Node73 -->
<g id="node21" class="node">
<title>Node73</title>
<g id="a_node21"><a xlink:href="feature_8h.html" target="_top" xlink:title="ODP features. ">
<polygon fill="#ffffff" stroke="#ff0000" points="1738.5,-56.5 1738.5,-75.5 1838.5,-75.5 1838.5,-56.5 1738.5,-56.5"/>
<text text-anchor="middle" x="1788.5" y="-63.5" font-family="Helvetica,sans-Serif" font-size="10.00" fill="#000000">odp/api/feature.h</text>
</a>
</g>
</g>
<!-- Node1&#45;&gt;Node73 -->
<g id="edge22" class="edge">
<title>Node1&#45;&gt;Node73</title>
<path fill="none" stroke="#191970" d="M2564.2715,-121.2477C2461.4191,-118.588 2131.6741,-108.0614 1848.706,-76.0244"/>
<polygon fill="#191970" stroke="#191970" points="1848.993,-72.5345 1838.6601,-74.8756 1848.1977,-79.4891 1848.993,-72.5345"/>
</g>
<!-- Node75 -->
<g id="node22" class="node">
<title>Node75</title>
<g id="a_node22"><a xlink:href="api_2init_8h.html" target="_top" xlink:title="ODP initialization. ">
<polygon fill="#ffffff" stroke="#ff0000" points="1856.5,-56.5 1856.5,-75.5 1936.5,-75.5 1936.5,-56.5 1856.5,-56.5"/>
<text text-anchor="middle" x="1896.5" y="-63.5" font-family="Helvetica,sans-Serif" font-size="10.00" fill="#000000">odp/api/init.h</text>
</a>
</g>
</g>
<!-- Node1&#45;&gt;Node75 -->
<g id="edge23" class="edge">
<title>Node1&#45;&gt;Node75</title>
<path fill="none" stroke="#191970" d="M2564.171,-121.2107C2470.2705,-118.602 2189.3453,-108.5613 1946.6096,-75.983"/>
<polygon fill="#191970" stroke="#191970" points="1946.9183,-72.4928 1936.5383,-74.6152 1945.9763,-79.4292 1946.9183,-72.4928"/>
</g>
<!-- Node78 -->
<g id="node23" class="node">
<title>Node78</title>
<g id="a_node23"><a xlink:href="system__info_8h.html" target="_top" xlink:title="ODP system information. ">
<polygon fill="#ffffff" stroke="#ff0000" points="2780,-56.5 2780,-75.5 2905,-75.5 2905,-56.5 2780,-56.5"/>
<text text-anchor="middle" x="2842.5" y="-63.5" font-family="Helvetica,sans-Serif" font-size="10.00" fill="#000000">odp/api/system_info.h</text>
</a>
</g>
</g>
<!-- Node1&#45;&gt;Node78 -->
<g id="edge24" class="edge">
<title>Node1&#45;&gt;Node78</title>
<path fill="none" stroke="#191970" d="M2628.6602,-114.679C2669.843,-105.304 2741.723,-88.9411 2790.6738,-77.7978"/>
<polygon fill="#191970" stroke="#191970" points="2791.4733,-81.2055 2800.447,-75.573 2789.9195,-74.3801 2791.4733,-81.2055"/>
</g>
<!-- Node80 -->
<g id="node24" class="node">
<title>Node80</title>
<g id="a_node24"><a xlink:href="api_2shared__memory_8h.html" target="_top" xlink:title="ODP shared memory. ">
<polygon fill="#ffffff" stroke="#ff0000" points="2085,-56.5 2085,-75.5 2228,-75.5 2228,-56.5 2085,-56.5"/>
<text text-anchor="middle" x="2156.5" y="-63.5" font-family="Helvetica,sans-Serif" font-size="10.00" fill="#000000">odp/api/shared_memory.h</text>
</a>
</g>
</g>
<!-- Node1&#45;&gt;Node80 -->
<g id="edge27" class="edge">
<title>Node1&#45;&gt;Node80</title>
<path fill="none" stroke="#191970" d="M2564.1457,-117.8822C2496.0998,-109.2218 2336.3824,-88.8941 2238.286,-76.4091"/>
<polygon fill="#191970" stroke="#191970" points="2238.4715,-72.9046 2228.1096,-75.114 2237.5877,-79.8486 2238.4715,-72.9046"/>
</g>
<!-- Node82 -->
<g id="node25" class="node">
<title>Node82</title>
<g id="a_node25"><a xlink:href="api_2buffer_8h.html" target="_top" xlink:title="ODP buffer descriptor. ">
<polygon fill="#ffffff" stroke="#ff0000" points="3155.5,-56.5 3155.5,-75.5 3247.5,-75.5 3247.5,-56.5 3155.5,-56.5"/>
<text text-anchor="middle" x="3201.5" y="-63.5" font-family="Helvetica,sans-Serif" font-size="10.00" fill="#000000">odp/api/buffer.h</text>
</a>
</g>
</g>
<!-- Node1&#45;&gt;Node82 -->
<g id="edge28" class="edge">
<title>Node1&#45;&gt;Node82</title>
<path fill="none" stroke="#191970" d="M2628.544,-120.4027C2711.9838,-116.0132 2942.9768,-102.3908 3145.4151,-76.0319"/>
<polygon fill="#191970" stroke="#191970" points="3145.8794,-79.5011 3155.3374,-74.7266 3144.9663,-72.5609 3145.8794,-79.5011"/>
</g>
<!-- Node84 -->
<g id="node26" class="node">
<title>Node84</title>
<g id="a_node26"><a xlink:href="api_2pool_8h.html" target="_top" xlink:title="ODP pool. ">
<polygon fill="#ffffff" stroke="#ff0000" points="2359.5,-56.5 2359.5,-75.5 2445.5,-75.5 2445.5,-56.5 2359.5,-56.5"/>
<text text-anchor="middle" x="2402.5" y="-63.5" font-family="Helvetica,sans-Serif" font-size="10.00" fill="#000000">odp/api/pool.h</text>
</a>
</g>
</g>
<!-- Node1&#45;&gt;Node84 -->
<g id="edge30" class="edge">
<title>Node1&#45;&gt;Node84</title>
<path fill="none" stroke="#191970" d="M2564.4648,-112.7527C2531.9039,-103.3537 2481.268,-88.7371 2445.2891,-78.3515"/>
<polygon fill="#191970" stroke="#191970" points="2446.1356,-74.953 2435.5571,-75.5423 2444.1942,-81.6784 2446.1356,-74.953"/>
</g>
<!-- Node87 -->
<g id="node27" class="node">
<title>Node87</title>
<g id="a_node27"><a xlink:href="api_2queue_8h.html" target="_top" xlink:title="ODP queue. ">
<polygon fill="#ffffff" stroke="#ff0000" points="3410,-56.5 3410,-75.5 3505,-75.5 3505,-56.5 3410,-56.5"/>
<text text-anchor="middle" x="3457.5" y="-63.5" font-family="Helvetica,sans-Serif" font-size="10.00" fill="#000000">odp/api/queue.h</text>
</a>
</g>
</g>
<!-- Node1&#45;&gt;Node87 -->
<g id="edge31" class="edge">
<title>Node1&#45;&gt;Node87</title>
<path fill="none" stroke="#191970" d="M2628.7853,-121.5019C2736.5942,-119.5543 3094.1109,-110.8059 3400.0278,-75.9105"/>
<polygon fill="#191970" stroke="#191970" points="3400.4412,-79.3861 3409.9748,-74.7644 3399.6399,-72.4321 3400.4412,-79.3861"/>
</g>
<!-- Node92 -->
<g id="node28" class="node">
<title>Node92</title>
<g id="a_node28"><a xlink:href="api_2ticketlock_8h.html" target="_top" xlink:title="ODP ticketlock. ">
<polygon fill="#ffffff" stroke="#ff0000" points="2610,-56.5 2610,-75.5 2723,-75.5 2723,-56.5 2610,-56.5"/>
<text text-anchor="middle" x="2666.5" y="-63.5" font-family="Helvetica,sans-Serif" font-size="10.00" fill="#000000">odp/api/ticketlock.h</text>
</a>
</g>
</g>
<!-- Node1&#45;&gt;Node92 -->
<g id="edge33" class="edge">
<title>Node1&#45;&gt;Node92</title>
<path fill="none" stroke="#191970" d="M2608.6931,-112.2455C2619.1321,-103.8943 2634.3655,-91.7076 2646.574,-81.9408"/>
<polygon fill="#191970" stroke="#191970" points="2648.8244,-84.6227 2654.4467,-75.6427 2644.4515,-79.1566 2648.8244,-84.6227"/>
</g>
<!-- Node35 -->
<g id="node29" class="node">
<title>Node35</title>
<g id="a_node29"><a xlink:href="api_2time_8h.html" target="_top" xlink:title="ODP time. ">
<polygon fill="#ffffff" stroke="#ff0000" points="3523,-56.5 3523,-75.5 3610,-75.5 3610,-56.5 3523,-56.5"/>
<text text-anchor="middle" x="3566.5" y="-63.5" font-family="Helvetica,sans-Serif" font-size="10.00" fill="#000000">odp/api/time.h</text>
</a>
</g>
</g>
<!-- Node1&#45;&gt;Node35 -->
<g id="edge34" class="edge">
<title>Node1&#45;&gt;Node35</title>
<path fill="none" stroke="#191970" d="M2628.5696,-120.9965C2767.3551,-116.5626 3317.6343,-98.0206 3512.749,-76.0317"/>
<polygon fill="#191970" stroke="#191970" points="3513.3508,-79.4852 3522.8769,-74.8481 3512.5382,-72.5326 3513.3508,-79.4852"/>
</g>
<!-- Node95 -->
<g id="node30" class="node">
<title>Node95</title>
<g id="a_node30"><a xlink:href="api_2timer_8h.html" target="_top" xlink:title="ODP timer service. ">
<polygon fill="#ffffff" stroke="#ff0000" points="3628.5,-56.5 3628.5,-75.5 3718.5,-75.5 3718.5,-56.5 3628.5,-56.5"/>
<text text-anchor="middle" x="3673.5" y="-63.5" font-family="Helvetica,sans-Serif" font-size="10.00" fill="#000000">odp/api/timer.h</text>
</a>
</g>
</g>
<!-- Node1&#45;&gt;Node95 -->
<g id="edge36" class="edge">
<title>Node1&#45;&gt;Node95</title>
<path fill="none" stroke="#191970" d="M2628.6236,-121.1544C2777.3496,-117.1493 3400.6641,-99.3498 3618.4291,-75.9355"/>
<polygon fill="#191970" stroke="#191970" points="3618.9372,-79.4006 3628.4888,-74.8163 3618.1631,-72.4436 3618.9372,-79.4006"/>
</g>
<!-- Node98 -->
<g id="node31" class="node">
<title>Node98</title>
<g id="a_node31"><a xlink:href="api_2schedule_8h.html" target="_top" xlink:title="ODP schedule. ">
<polygon fill="#ffffff" stroke="#ff0000" points="2923.5,-56.5 2923.5,-75.5 3031.5,-75.5 3031.5,-56.5 2923.5,-56.5"/>
<text text-anchor="middle" x="2977.5" y="-63.5" font-family="Helvetica,sans-Serif" font-size="10.00" fill="#000000">odp/api/schedule.h</text>
</a>
</g>
</g>
<!-- Node1&#45;&gt;Node98 -->
<g id="edge38" class="edge">
<title>Node1&#45;&gt;Node98</title>
<path fill="none" stroke="#191970" d="M2628.569,-117.5098C2684.2738,-109.6781 2802.7765,-92.8755 2913.234,-76.1772"/>
<polygon fill="#191970" stroke="#191970" points="2913.8483,-79.6242 2923.2112,-74.6658 2912.7998,-72.7031 2913.8483,-79.6242"/>
</g>
<!-- Node104 -->
<g id="node32" class="node">
<title>Node104</title>
<g id="a_node32"><a xlink:href="api_2sync_8h.html" target="_top" xlink:title="ODP synchronisation. ">
<polygon fill="#ffffff" stroke="#ff0000" points="3050,-56.5 3050,-75.5 3137,-75.5 3137,-56.5 3050,-56.5"/>
<text text-anchor="middle" x="3093.5" y="-63.5" font-family="Helvetica,sans-Serif" font-size="10.00" fill="#000000">odp/api/sync.h</text>
</a>
</g>
</g>
<!-- Node1&#45;&gt;Node104 -->
<g id="edge39" class="edge">
<title>Node1&#45;&gt;Node104</title>
<path fill="none" stroke="#191970" d="M2628.6513,-119.5927C2700.4403,-114.0201 2879.3991,-99.0335 3039.8245,-75.9871"/>
<polygon fill="#191970" stroke="#191970" points="3040.4817,-79.4285 3049.8755,-74.5289 3039.4766,-72.501 3040.4817,-79.4285"/>
</g>
<!-- Node28 -->
<g id="node33" class="node">
<title>Node28</title>
<g id="a_node33"><a xlink:href="api_2packet_8h.html" target="_top" xlink:title="ODP packet descriptor. ">
<polygon fill="#ffffff" stroke="#ff0000" points="1498.5,-56.5 1498.5,-75.5 1596.5,-75.5 1596.5,-56.5 1498.5,-56.5"/>
<text text-anchor="middle" x="1547.5" y="-63.5" font-family="Helvetica,sans-Serif" font-size="10.00" fill="#000000">odp/api/packet.h</text>
</a>
</g>
</g>
<!-- Node1&#45;&gt;Node28 -->
<g id="edge40" class="edge">
<title>Node1&#45;&gt;Node28</title>
<path fill="none" stroke="#191970" d="M2564.4391,-121.0355C2418.8714,-116.577 1818.5295,-97.3156 1606.7805,-75.8535"/>
<polygon fill="#191970" stroke="#191970" points="1607.0034,-72.3578 1596.6933,-74.7973 1606.2744,-79.3197 1607.0034,-72.3578"/>
</g>
<!-- Node107 -->
<g id="node34" class="node">
<title>Node107</title>
<g id="a_node34"><a xlink:href="api_2packet__flags_8h.html" target="_top" xlink:title="ODP packet flags. ">
<polygon fill="#ffffff" stroke="#ff0000" points="3265.5,-56.5 3265.5,-75.5 3391.5,-75.5 3391.5,-56.5 3265.5,-56.5"/>
<text text-anchor="middle" x="3328.5" y="-63.5" font-family="Helvetica,sans-Serif" font-size="10.00" fill="#000000">odp/api/packet_flags.h</text>
</a>
</g>
</g>
<!-- Node1&#45;&gt;Node107 -->
<g id="edge42" class="edge">
<title>Node1&#45;&gt;Node107</title>
<path fill="none" stroke="#191970" d="M2628.505,-120.5473C2722.7779,-116.1035 3007.7945,-101.4878 3255.054,-76.0874"/>
<polygon fill="#191970" stroke="#191970" points="3255.7274,-79.5365 3265.3137,-75.025 3255.0063,-72.5737 3255.7274,-79.5365"/>
</g>
<!-- Node110 -->
<g id="node35" class="node">
<title>Node110</title>
<g id="a_node35"><a xlink:href="api_2packet__io_8h.html" target="_top" xlink:title="ODP Packet IO. ">
<polygon fill="#ffffff" stroke="#ff0000" points="1954.5,-56.5 1954.5,-75.5 2066.5,-75.5 2066.5,-56.5 1954.5,-56.5"/>
<text text-anchor="middle" x="2010.5" y="-63.5" font-family="Helvetica,sans-Serif" font-size="10.00" fill="#000000">odp/api/packet_io.h</text>
</a>
</g>
</g>
<!-- Node1&#45;&gt;Node110 -->
<g id="edge43" class="edge">
<title>Node1&#45;&gt;Node110</title>
<path fill="none" stroke="#191970" d="M2564.4753,-119.8628C2484.3021,-114.3642 2268.2989,-98.6358 2076.6128,-75.9385"/>
<polygon fill="#191970" stroke="#191970" points="2076.9814,-72.4577 2066.6371,-74.7482 2076.152,-79.4084 2076.9814,-72.4577"/>
</g>
<!-- Node117 -->
<g id="node36" class="node">
<title>Node117</title>
<g id="a_node36"><a xlink:href="api_2crypto_8h.html" target="_top" xlink:title="ODP crypto. ">
<polygon fill="#ffffff" stroke="#ff0000" points="2246,-56.5 2246,-75.5 2341,-75.5 2341,-56.5 2246,-56.5"/>
<text text-anchor="middle" x="2293.5" y="-63.5" font-family="Helvetica,sans-Serif" font-size="10.00" fill="#000000">odp/api/crypto.h</text>
</a>
</g>
</g>
<!-- Node1&#45;&gt;Node117 -->
<g id="edge45" class="edge">
<title>Node1&#45;&gt;Node117</title>
<path fill="none" stroke="#191970" d="M2564.3606,-116.06C2513.7203,-106.7008 2414.6254,-88.3862 2351.364,-76.6943"/>
<polygon fill="#191970" stroke="#191970" points="2351.616,-73.1817 2341.1464,-74.8059 2350.3438,-80.0651 2351.616,-73.1817"/>
</g>
<!-- Node120 -->
<g id="node37" class="node">
<title>Node120</title>
<g id="a_node37"><a xlink:href="api_2classification_8h.html" target="_top" xlink:title="ODP classification descriptor. ">
<polygon fill="#ffffff" stroke="#ff0000" points="2463.5,-56.5 2463.5,-75.5 2591.5,-75.5 2591.5,-56.5 2463.5,-56.5"/>
<text text-anchor="middle" x="2527.5" y="-63.5" font-family="Helvetica,sans-Serif" font-size="10.00" fill="#000000">odp/api/classification.h</text>
</a>
</g>
</g>
<!-- Node1&#45;&gt;Node120 -->
<g id="edge47" class="edge">
<title>Node1&#45;&gt;Node120</title>
<path fill="none" stroke="#191970" d="M2584.4811,-112.2455C2574.2902,-103.9746 2559.4638,-91.9416 2547.4893,-82.2232"/>
<polygon fill="#191970" stroke="#191970" points="2549.3514,-79.2268 2539.3812,-75.6427 2544.9402,-84.662 2549.3514,-79.2268"/>
</g>
<!-- Node124 -->
<g id="node38" class="node">
<title>Node124</title>
<g id="a_node38"><a xlink:href="api_2rwlock_8h.html" target="_top" xlink:title="ODP RW Locks. ">
<polygon fill="#ffffff" stroke="#ff0000" points="3737,-56.5 3737,-75.5 3834,-75.5 3834,-56.5 3737,-56.5"/>
<text text-anchor="middle" x="3785.5" y="-63.5" font-family="Helvetica,sans-Serif" font-size="10.00" fill="#000000">odp/api/rwlock.h</text>
</a>
</g>
</g>
<!-- Node1&#45;&gt;Node124 -->
<g id="edge49" class="edge">
<title>Node1&#45;&gt;Node124</title>
<path fill="none" stroke="#191970" d="M2628.7439,-121.2562C2787.2797,-117.5137 3485.7658,-100.0102 3726.7327,-75.9068"/>
<polygon fill="#191970" stroke="#191970" points="3727.2424,-79.3729 3736.83,-74.8641 3726.5233,-72.4099 3727.2424,-79.3729"/>
</g>
<!-- Node90 -->
<g id="node39" class="node">
<title>Node90</title>
<g id="a_node39"><a xlink:href="api_2event_8h.html" target="_top" xlink:title="ODP event. ">
<polygon fill="#ffffff" stroke="#ff0000" points="3852.5,-56.5 3852.5,-75.5 3944.5,-75.5 3944.5,-56.5 3852.5,-56.5"/>
<text text-anchor="middle" x="3898.5" y="-63.5" font-family="Helvetica,sans-Serif" font-size="10.00" fill="#000000">odp/api/event.h</text>
</a>
</g>
</g>
<!-- Node1&#45;&gt;Node90 -->
<g id="edge50" class="edge">
<title>Node1&#45;&gt;Node90</title>
<path fill="none" stroke="#191970" d="M2628.6167,-121.4382C2796.7447,-118.4039 3577.5286,-103.134 3842.3972,-75.939"/>
<polygon fill="#191970" stroke="#191970" points="3842.7808,-79.418 3852.3564,-74.884 3842.0433,-72.4569 3842.7808,-79.418"/>
</g>
<!-- Node127 -->
<g id="node40" class="node">
<title>Node127</title>
<g id="a_node40"><a xlink:href="random_8h.html" target="_top" xlink:title="ODP random number API. ">
<polygon fill="#ffffff" stroke="#ff0000" points="3962.5,-56.5 3962.5,-75.5 4064.5,-75.5 4064.5,-56.5 3962.5,-56.5"/>
<text text-anchor="middle" x="4013.5" y="-63.5" font-family="Helvetica,sans-Serif" font-size="10.00" fill="#000000">odp/api/random.h</text>
</a>
</g>
</g>
<!-- Node1&#45;&gt;Node127 -->
<g id="edge51" class="edge">
<title>Node1&#45;&gt;Node127</title>
<path fill="none" stroke="#191970" d="M2628.7525,-121.4824C2806.0299,-118.551 3664.0459,-103.225 3952.4797,-75.9437"/>
<polygon fill="#191970" stroke="#191970" points="3952.8842,-79.421 3962.4978,-74.9682 3952.2057,-72.4539 3952.8842,-79.421"/>
</g>
<!-- Node129 -->
<g id="node41" class="node">
<title>Node129</title>
<g id="a_node41"><a xlink:href="api_2errno_8h.html" target="_top" xlink:title="ODP errno API. ">
<polygon fill="#ffffff" stroke="#ff0000" points="4082.5,-56.5 4082.5,-75.5 4172.5,-75.5 4172.5,-56.5 4082.5,-56.5"/>
<text text-anchor="middle" x="4127.5" y="-63.5" font-family="Helvetica,sans-Serif" font-size="10.00" fill="#000000">odp/api/errno.h</text>
</a>
</g>
</g>
<!-- Node1&#45;&gt;Node129 -->
<g id="edge52" class="edge">
<title>Node1&#45;&gt;Node129</title>
<path fill="none" stroke="#191970" d="M2628.7945,-121.6627C2815.4982,-119.6124 3758.9446,-107.8687 4072.5039,-75.9115"/>
<polygon fill="#191970" stroke="#191970" points="4072.9139,-79.3878 4082.494,-74.8633 4072.1833,-72.426 4072.9139,-79.3878"/>
</g>
<!-- Node101 -->
<g id="node42" class="node">
<title>Node101</title>
<g id="a_node42"><a xlink:href="api_2thrmask_8h.html" target="_top" xlink:title="ODP thread masks. ">
<polygon fill="#ffffff" stroke="#ff0000" points="4191,-56.5 4191,-75.5 4296,-75.5 4296,-56.5 4191,-56.5"/>
<text text-anchor="middle" x="4243.5" y="-63.5" font-family="Helvetica,sans-Serif" font-size="10.00" fill="#000000">odp/api/thrmask.h</text>
</a>
</g>
</g>
<!-- Node1&#45;&gt;Node101 -->
<g id="edge53" class="edge">
<title>Node1&#45;&gt;Node101</title>
<path fill="none" stroke="#191970" d="M2628.5563,-121.6425C2822.6319,-119.3928 3843.0412,-106.3277 4180.5275,-75.9323"/>
<polygon fill="#191970" stroke="#191970" points="4181.1603,-79.3888 4190.7951,-74.9821 4180.5151,-72.4186 4181.1603,-79.3888"/>
</g>
<!-- Node132 -->
<g id="node43" class="node">
<title>Node132</title>
<g id="a_node43"><a xlink:href="api_2traffic__mngr_8h.html" target="_top" xlink:title="ODP Traffic manager. ">
<polygon fill="#ffffff" stroke="#ff0000" points="4314,-56.5 4314,-75.5 4437,-75.5 4437,-56.5 4314,-56.5"/>
<text text-anchor="middle" x="4375.5" y="-63.5" font-family="Helvetica,sans-Serif" font-size="10.00" fill="#000000">odp/api/traffic_mngr.h</text>
</a>
</g>
</g>
<!-- Node1&#45;&gt;Node132 -->
<g id="edge54" class="edge">
<title>Node1&#45;&gt;Node132</title>
<path fill="none" stroke="#191970" d="M2628.6984,-121.6398C2832.0483,-119.2894 3941.0241,-105.3348 4303.7162,-76.0472"/>
<polygon fill="#191970" stroke="#191970" points="4304.0302,-79.5333 4313.7075,-75.2204 4303.4529,-72.5572 4304.0302,-79.5333"/>
</g>
<!-- Node135 -->
<g id="node44" class="node">
<title>Node135</title>
<g id="a_node44"><a xlink:href="api_2spinlock__recursive_8h.html" target="_top" xlink:title="ODP resursive spinlock. ">
<polygon fill="#ffffff" stroke="#ff0000" points="4455,-56.5 4455,-75.5 4610,-75.5 4610,-56.5 4455,-56.5"/>
<text text-anchor="middle" x="4532.5" y="-63.5" font-family="Helvetica,sans-Serif" font-size="10.00" fill="#000000">odp/api/spinlock_recursive.h</text>
</a>
</g>
</g>
<!-- Node1&#45;&gt;Node135 -->
<g id="edge55" class="edge">
<title>Node1&#45;&gt;Node135</title>
<path fill="none" stroke="#191970" d="M2628.533,-121.6028C2841.1181,-118.9069 4051.5936,-102.6186 4444.7323,-76.0549"/>
<polygon fill="#191970" stroke="#191970" points="4444.9788,-79.5463 4454.7139,-75.3658 4444.4966,-72.5629 4444.9788,-79.5463"/>
</g>
<!-- Node138 -->
<g id="node45" class="node">
<title>Node138</title>
<g id="a_node45"><a xlink:href="api_2rwlock__recursive_8h.html" target="_top" xlink:title="ODP resursive read/write lock. ">
<polygon fill="#ffffff" stroke="#ff0000" points="4628,-56.5 4628,-75.5 4775,-75.5 4775,-56.5 4628,-56.5"/>
<text text-anchor="middle" x="4701.5" y="-63.5" font-family="Helvetica,sans-Serif" font-size="10.00" fill="#000000">odp/api/rwlock_recursive.h</text>
</a>
</g>
</g>
<!-- Node1&#45;&gt;Node138 -->
<g id="edge56" class="edge">
<title>Node1&#45;&gt;Node138</title>
<path fill="none" stroke="#191970" d="M2628.5773,-121.7051C2852.7041,-119.5799 4187.7873,-105.8506 4617.788,-76.0456"/>
<polygon fill="#191970" stroke="#191970" points="4618.0483,-79.5361 4627.7761,-75.3386 4617.5539,-72.5535 4618.0483,-79.5361"/>
</g>
<!-- Node141 -->
<g id="node46" class="node">
<title>Node141</title>
<g id="a_node46"><a xlink:href="api_2std_8h_source.html" target="_top" xlink:title="odp/api/std.h">
<polygon fill="#ffffff" stroke="#ff0000" points="4793.5,-56.5 4793.5,-75.5 4873.5,-75.5 4873.5,-56.5 4793.5,-56.5"/>
<text text-anchor="middle" x="4833.5" y="-63.5" font-family="Helvetica,sans-Serif" font-size="10.00" fill="#000000">odp/api/std.h</text>
</a>
</g>
</g>
<!-- Node1&#45;&gt;Node141 -->
<g id="edge57" class="edge">
<title>Node1&#45;&gt;Node141</title>
<path fill="none" stroke="#191970" d="M2628.7652,-121.6738C2879.6439,-119.0916 4515.6241,-101.4148 4783.1532,-75.8466"/>
<polygon fill="#191970" stroke="#191970" points="4783.895,-79.2887 4793.4821,-74.7788 4783.1751,-72.3258 4783.895,-79.2887"/>
</g>
<!-- Node26 -->
<g id="node47" class="node">
<title>Node26</title>
<g id="a_node47"><a xlink:href="support_8h.html" target="_top" xlink:title="ODP support API &#45; platform specific header. ">
<polygon fill="#ffffff" stroke="#ff0000" points="4892,-56.5 4892,-75.5 4993,-75.5 4993,-56.5 4892,-56.5"/>
<text text-anchor="middle" x="4942.5" y="-63.5" font-family="Helvetica,sans-Serif" font-size="10.00" fill="#000000">odp/api/support.h</text>
</a>
</g>
</g>
<!-- Node1&#45;&gt;Node26 -->
<g id="edge58" class="edge">
<title>Node1&#45;&gt;Node26</title>
<path fill="none" stroke="#191970" d="M2628.5376,-121.637C2885.1737,-118.6925 4603.8707,-98.2838 4881.8268,-75.8425"/>
<polygon fill="#191970" stroke="#191970" points="4882.1678,-79.3262 4891.8283,-74.9759 4881.5635,-72.3523 4882.1678,-79.3262"/>
</g>
<!-- Node144 -->
<g id="node48" class="node">
<title>Node144</title>
<g id="a_node48"><a xlink:href="api_2ipsec_8h.html" target="_top" xlink:title="ODP IPSEC API &#45; platform specific header. ">
<polygon fill="#ffffff" stroke="#ff0000" points="5011.5,-56.5 5011.5,-75.5 5101.5,-75.5 5101.5,-56.5 5011.5,-56.5"/>
<text text-anchor="middle" x="5056.5" y="-63.5" font-family="Helvetica,sans-Serif" font-size="10.00" fill="#000000">odp/api/ipsec.h</text>
</a>
</g>
</g>
<!-- Node1&#45;&gt;Node144 -->
<g id="edge59" class="edge">
<title>Node1&#45;&gt;Node144</title>
<path fill="none" stroke="#191970" d="M2628.5122,-121.7063C2892.7427,-119.2412 4710.5418,-101.4808 5001.4198,-75.8577"/>
<polygon fill="#191970" stroke="#191970" points="5001.8724,-79.3306 5011.4983,-74.9042 5001.2131,-72.3617 5001.8724,-79.3306"/>
</g>
<!-- Node149 -->
<g id="node49" class="node">
<title>Node149</title>
<g id="a_node49"><a xlink:href="api_2stash_8h.html" target="_top" xlink:title="ODP stash. ">
<polygon fill="#ffffff" stroke="#ff0000" points="5120,-56.5 5120,-75.5 5211,-75.5 5211,-56.5 5120,-56.5"/>
<text text-anchor="middle" x="5165.5" y="-63.5" font-family="Helvetica,sans-Serif" font-size="10.00" fill="#000000">odp/api/stash.h</text>
</a>
</g>
</g>
<!-- Node1&#45;&gt;Node149 -->
<g id="edge60" class="edge">
<title>Node1&#45;&gt;Node149</title>
<path fill="none" stroke="#191970" d="M2628.6369,-121.727C2900.086,-119.3807 4806.7266,-102.0898 5109.86,-75.8036"/>
<polygon fill="#191970" stroke="#191970" points="5110.3284,-79.2752 5119.9616,-74.8647 5109.6806,-72.3053 5110.3284,-79.2752"/>
</g>
<!-- Node115 -->
<g id="node50" class="node">
<title>Node115</title>
<g id="a_node50"><a xlink:href="reassembly_8h.html" target="_top" xlink:title="ODP REASSEMBLY API &#45; platform specific header. ">
<polygon fill="#ffffff" stroke="#ff0000" points="5229.5,-56.5 5229.5,-75.5 5349.5,-75.5 5349.5,-56.5 5229.5,-56.5"/>
<text text-anchor="middle" x="5289.5" y="-63.5" font-family="Helvetica,sans-Serif" font-size="10.00" fill="#000000">odp/api/reassembly.h</text>
</a>
</g>
</g>
<!-- Node1&#45;&gt;Node115 -->
<g id="edge61" class="edge">
<title>Node1&#45;&gt;Node115</title>
<path fill="none" stroke="#191970" d="M2628.6939,-121.6829C2907.0877,-118.9085 4904.4088,-98.3533 5219.2675,-75.94"/>
<polygon fill="#191970" stroke="#191970" points="5219.6335,-79.4224 5229.3399,-75.1756 5219.1037,-72.4425 5219.6335,-79.4224"/>
</g>
<!-- Node3 -->
<g id="node4" class="node">
<title>Node3</title>
<g id="a_node4"><a xlink:href="spec_2deprecated_8h.html" target="_top" xlink:title="Macro for deprecated API definitions. ">
<polygon fill="#ffffff" stroke="#ff0000" points="0,-.5 0,-19.5 145,-19.5 145,-.5 0,-.5"/>
<text text-anchor="middle" x="72.5" y="-7.5" font-family="Helvetica,sans-Serif" font-size="10.00" fill="#000000">odp/api/spec/deprecated.h</text>
</a>
</g>
</g>
<!-- Node2&#45;&gt;Node3 -->
<g id="edge3" class="edge">
<title>Node2&#45;&gt;Node3</title>
<path fill="none" stroke="#191970" d="M81.5839,-56.2455C80.1486,-48.9382 78.1364,-38.6944 76.3705,-29.7046"/>
<polygon fill="#191970" stroke="#191970" points="79.756,-28.7805 74.3941,-19.6427 72.8873,-30.1298 79.756,-28.7805"/>
</g>
<!-- Node7 -->
<g id="node6" class="node">
<title>Node7</title>
<polygon fill="#ffffff" stroke="#bfbfbf" points="163,-.5 163,-19.5 282,-19.5 282,-.5 163,-.5"/>
<text text-anchor="middle" x="222.5" y="-7.5" font-family="Helvetica,sans-Serif" font-size="10.00" fill="#000000">odp/api/abi/version.h</text>
</g>
<!-- Node6&#45;&gt;Node7 -->
<g id="edge5" class="edge">
<title>Node6&#45;&gt;Node7</title>
<path fill="none" stroke="#191970" d="M217.5451,-56.2455C218.328,-48.9382 219.4256,-38.6944 220.3888,-29.7046"/>
<polygon fill="#191970" stroke="#191970" points="223.8815,-29.9587 221.4669,-19.6427 216.9214,-29.2129 223.8815,-29.9587"/>
</g>
<!-- Node53&#45;&gt;Node55 -->
<g id="edge15" class="edge">
<title>Node53&#45;&gt;Node55</title>
<path fill="none" stroke="#191970" d="M1118.3195,-57.6546C1115.3369,-57.0837 1112.3734,-56.5267 1109.5,-56 1034.605,-42.2729 947.9543,-28.1106 892.0209,-19.1922"/>
<polygon fill="#191970" stroke="#191970" points="892.3698,-15.7038 881.9441,-17.5893 891.27,-22.6169 892.3698,-15.7038"/>
</g>
<!-- Node63&#45;&gt;Node9 -->
<g id="edge18" class="edge">
<title>Node63&#45;&gt;Node9</title>
<path fill="none" stroke="#191970" d="M1480.6365,-57.0766C1483.6299,-56.6701 1486.6024,-56.3055 1489.5,-56 1724.7676,-31.1932 2460.2142,-15.5208 2685.3443,-11.2111"/>
<polygon fill="#191970" stroke="#191970" points="2685.4278,-14.7103 2695.3594,-11.0205 2685.2945,-7.7115 2685.4278,-14.7103"/>
</g>
<!-- Node63&#45;&gt;Node64 -->
<g id="edge19" class="edge">
<title>Node63&#45;&gt;Node64</title>
<path fill="none" stroke="#191970" d="M1414.733,-56.2455C1398.7905,-47.4928 1375.1741,-34.527 1357.0011,-24.5496"/>
<polygon fill="#191970" stroke="#191970" points="1358.5137,-21.3873 1348.0634,-19.6427 1355.1448,-27.5233 1358.5137,-21.3873"/>
</g>
<!-- Node78&#45;&gt;Node9 -->
<g id="edge25" class="edge">
<title>Node78&#45;&gt;Node9</title>
<path fill="none" stroke="#191970" d="M2826.649,-56.2455C2812.6868,-47.6534 2792.1272,-35.0014 2776.0404,-25.1018"/>
<polygon fill="#191970" stroke="#191970" points="2777.5203,-21.9029 2767.1693,-19.6427 2773.8516,-27.8645 2777.5203,-21.9029"/>
</g>
<!-- Node82&#45;&gt;Node9 -->
<g id="edge29" class="edge">
<title>Node82&#45;&gt;Node9</title>
<path fill="none" stroke="#191970" d="M3155.322,-57.3829C3152.3399,-56.8948 3149.3798,-56.429 3146.5,-56 3031.3171,-38.8399 2896.4351,-24.3227 2817.8189,-16.4155"/>
<polygon fill="#191970" stroke="#191970" points="2817.8757,-12.9038 2807.5769,-15.3908 2817.1788,-19.869 2817.8757,-12.9038"/>
</g>
<!-- Node87&#45;&gt;Node9 -->
<g id="edge32" class="edge">
<title>Node87&#45;&gt;Node9</title>
<path fill="none" stroke="#191970" d="M3409.969,-57.2843C3406.7698,-56.8141 3403.5913,-56.3797 3400.5,-56 3188.5552,-29.9673 2935.724,-17.298 2817.9686,-12.4517"/>
<polygon fill="#191970" stroke="#191970" points="2817.8144,-8.9426 2807.6806,-12.0341 2817.5304,-15.9368 2817.8144,-8.9426"/>
</g>
<!-- Node35&#45;&gt;Node9 -->
<g id="edge35" class="edge">
<title>Node35&#45;&gt;Node9</title>
<path fill="none" stroke="#191970" d="M3522.8729,-57.1844C3520.0456,-56.7449 3517.2364,-56.3441 3514.5,-56 3258.1697,-23.7643 2950.4537,-13.9547 2817.742,-11.1048"/>
<polygon fill="#191970" stroke="#191970" points="2817.801,-7.6054 2807.7301,-10.896 2817.6549,-14.6039 2817.801,-7.6054"/>
</g>
<!-- Node95&#45;&gt;Node9 -->
<g id="edge37" class="edge">
<title>Node95&#45;&gt;Node9</title>
<path fill="none" stroke="#191970" d="M3628.4856,-57.211C3625.4512,-56.7584 3622.4351,-56.348 3619.5,-56 3321.6904,-20.6859 2963.1739,-12.479 2817.6711,-10.5743"/>
<polygon fill="#191970" stroke="#191970" points="2817.6099,-7.0734 2807.5668,-10.4478 2817.5222,-14.0729 2817.6099,-7.0734"/>
</g>
<!-- Node28&#45;&gt;Node9 -->
<g id="edge41" class="edge">
<title>Node28&#45;&gt;Node9</title>
<path fill="none" stroke="#191970" d="M1596.6908,-57.1794C1600.0042,-56.7345 1603.2968,-56.3344 1606.5,-56 1817.8509,-33.9347 2473.7915,-16.6631 2685.146,-11.55"/>
<polygon fill="#191970" stroke="#191970" points="2685.2557,-15.0485 2695.1685,-11.3086 2685.0871,-8.0505 2685.2557,-15.0485"/>
</g>
<!-- Node110&#45;&gt;Node9 -->
<g id="edge44" class="edge">
<title>Node110&#45;&gt;Node9</title>
<path fill="none" stroke="#191970" d="M2066.6283,-57.1743C2069.9648,-56.7496 2073.2744,-56.3537 2076.5,-56 2298.8677,-31.6188 2563.9568,-18.0553 2685.1333,-12.7078"/>
<polygon fill="#191970" stroke="#191970" points="2685.5196,-16.1944 2695.3573,-12.2611 2685.214,-9.201 2685.5196,-16.1944"/>
</g>
<!-- Node117&#45;&gt;Node9 -->
<g id="edge46" class="edge">
<title>Node117&#45;&gt;Node9</title>
<path fill="none" stroke="#191970" d="M2341.0518,-57.4398C2344.246,-56.932 2347.4176,-56.4468 2350.5,-56 2467.809,-38.9966 2605.1708,-24.3797 2684.8671,-16.4193"/>
<polygon fill="#191970" stroke="#191970" points="2685.6411,-19.8597 2695.2459,-15.3877 2684.9487,-12.894 2685.6411,-19.8597"/>
</g>
<!-- Node120&#45;&gt;Node9 -->
<g id="edge48" class="edge">
<title>Node120&#45;&gt;Node9</title>
<path fill="none" stroke="#191970" d="M2565.7525,-56.4369C2603.8467,-46.9133 2662.4313,-32.2672 2703.5987,-21.9753"/>
<polygon fill="#191970" stroke="#191970" points="2704.5528,-25.3446 2713.4053,-19.5237 2702.855,-18.5536 2704.5528,-25.3446"/>
</g>
</g>
</svg>
