<?xml version="1.0" encoding="UTF-8" standalone="no"?>
<!DOCTYPE svg PUBLIC "-//W3C//DTD SVG 1.1//EN"
 "http://www.w3.org/Graphics/SVG/1.1/DTD/svg11.dtd">
<!-- Generated by graphviz version 2.43.0 (0)
 -->
<!-- Title: packet_io_stats.h Pages: 1 -->
<svg width="974pt" height="766pt"
 viewBox="0.00 0.00 974.00 766.00" xmlns="http://www.w3.org/2000/svg" xmlns:xlink="http://www.w3.org/1999/xlink">
<g id="graph0" class="graph" transform="scale(1 1) rotate(0) translate(4 762)">
<title>packet_io_stats.h</title>
<polygon fill="white" stroke="transparent" points="-4,4 -4,-762 970,-762 970,4 -4,4"/>
<!-- Node1 -->
<g id="node1" class="node">
<title>Node1</title>
<g id="a_node1"><a xlink:title="ODP packet IO stats.">
<polygon fill="#bfbfbf" stroke="black" points="473.5,-738.5 473.5,-757.5 574.5,-757.5 574.5,-738.5 473.5,-738.5"/>
<text text-anchor="middle" x="524" y="-745.5" font-family="Helvetica,sans-Serif" font-size="10.00">packet_io_stats.h</text>
</a>
</g>
</g>
<!-- Node2 -->
<g id="node2" class="node">
<title>Node2</title>
<g id="a_node2"><a xlink:title=" ">
<polygon fill="white" stroke="#bfbfbf" points="407,-671.5 407,-701.5 513,-701.5 513,-671.5 407,-671.5"/>
<text text-anchor="start" x="415" y="-689.5" font-family="Helvetica,sans-Serif" font-size="10.00">odp/api/abi/packet</text>
<text text-anchor="middle" x="460" y="-678.5" font-family="Helvetica,sans-Serif" font-size="10.00">_io_types.h</text>
</a>
</g>
</g>
<!-- Node1&#45;&gt;Node2 -->
<g id="edge1" class="edge">
<title>Node1&#45;&gt;Node2</title>
<path fill="none" stroke="midnightblue" d="M514.83,-738.48C506.41,-730.64 493.58,-718.71 482.44,-708.37"/>
<polygon fill="midnightblue" stroke="midnightblue" points="484.79,-705.77 475.08,-701.52 480.02,-710.9 484.79,-705.77"/>
</g>
<!-- Node3 -->
<g id="node3" class="node">
<title>Node3</title>
<g id="a_node3"><a xlink:href="spec_2packet__io__stats_8h.html" target="_top" xlink:title="ODP Packet IO statistics.">
<polygon fill="white" stroke="black" points="531.5,-671.5 531.5,-701.5 644.5,-701.5 644.5,-671.5 531.5,-671.5"/>
<text text-anchor="start" x="539.5" y="-689.5" font-family="Helvetica,sans-Serif" font-size="10.00">odp/api/spec/packet</text>
<text text-anchor="middle" x="588" y="-678.5" font-family="Helvetica,sans-Serif" font-size="10.00">_io_stats.h</text>
</a>
</g>
</g>
<!-- Node1&#45;&gt;Node3 -->
<g id="edge2" class="edge">
<title>Node1&#45;&gt;Node3</title>
<path fill="none" stroke="midnightblue" d="M533.17,-738.48C541.59,-730.64 554.42,-718.71 565.56,-708.37"/>
<polygon fill="midnightblue" stroke="midnightblue" points="567.98,-710.9 572.92,-701.52 563.21,-705.77 567.98,-710.9"/>
</g>
<!-- Node4 -->
<g id="node4" class="node">
<title>Node4</title>
<g id="a_node4"><a xlink:href="visibility__begin_8h_source.html" target="_top" xlink:title=" ">
<polygon fill="white" stroke="black" points="772.5,-0.5 772.5,-19.5 893.5,-19.5 893.5,-0.5 772.5,-0.5"/>
<text text-anchor="middle" x="833" y="-7.5" font-family="Helvetica,sans-Serif" font-size="10.00">odp/visibility_begin.h</text>
</a>
</g>
</g>
<!-- Node3&#45;&gt;Node4 -->
<g id="edge3" class="edge">
<title>Node3&#45;&gt;Node4</title>
<path fill="none" stroke="midnightblue" d="M644.59,-679.31C750.04,-666.18 966,-631.17 966,-564.5 966,-564.5 966,-564.5 966,-132 966,-77.75 904.72,-41.4 865.35,-23.64"/>
<polygon fill="midnightblue" stroke="midnightblue" points="866.43,-20.3 855.86,-19.53 863.65,-26.72 866.43,-20.3"/>
</g>
<!-- Node5 -->
<g id="node5" class="node">
<title>Node5</title>
<g id="a_node5"><a xlink:href="api_2queue__types_8h.html" target="_top" xlink:title="ODP queue.">
<polygon fill="white" stroke="black" points="524.5,-615.5 524.5,-634.5 651.5,-634.5 651.5,-615.5 524.5,-615.5"/>
<text text-anchor="middle" x="588" y="-622.5" font-family="Helvetica,sans-Serif" font-size="10.00">odp/api/queue_types.h</text>
</a>
</g>
</g>
<!-- Node3&#45;&gt;Node5 -->
<g id="edge4" class="edge">
<title>Node3&#45;&gt;Node5</title>
<path fill="none" stroke="midnightblue" d="M588,-671.4C588,-663.47 588,-653.46 588,-644.86"/>
<polygon fill="midnightblue" stroke="midnightblue" points="591.5,-644.66 588,-634.66 584.5,-644.66 591.5,-644.66"/>
</g>
<!-- Node15 -->
<g id="node15" class="node">
<title>Node15</title>
<g id="a_node15"><a xlink:href="visibility__end_8h_source.html" target="_top" xlink:title=" ">
<polygon fill="white" stroke="black" points="158,-0.5 158,-19.5 270,-19.5 270,-0.5 158,-0.5"/>
<text text-anchor="middle" x="214" y="-7.5" font-family="Helvetica,sans-Serif" font-size="10.00">odp/visibility_end.h</text>
</a>
</g>
</g>
<!-- Node3&#45;&gt;Node15 -->
<g id="edge44" class="edge">
<title>Node3&#45;&gt;Node15</title>
<path fill="none" stroke="midnightblue" d="M531.49,-673.03C528.28,-672.34 525.1,-671.66 522,-671 406.18,-646.46 0,-682.89 0,-564.5 0,-564.5 0,-564.5 0,-132 0,-63.13 85.03,-33 147.89,-20.15"/>
<polygon fill="midnightblue" stroke="midnightblue" points="148.62,-23.57 157.77,-18.23 147.29,-16.7 148.62,-23.57"/>
</g>
<!-- Node6 -->
<g id="node6" class="node">
<title>Node6</title>
<g id="a_node6"><a xlink:title=" ">
<polygon fill="white" stroke="#bfbfbf" points="588.5,-554 588.5,-573 733.5,-573 733.5,-554 588.5,-554"/>
<text text-anchor="middle" x="661" y="-561" font-family="Helvetica,sans-Serif" font-size="10.00">odp/api/abi/queue_types.h</text>
</a>
</g>
</g>
<!-- Node5&#45;&gt;Node6 -->
<g id="edge5" class="edge">
<title>Node5&#45;&gt;Node6</title>
<path fill="none" stroke="midnightblue" d="M598.46,-615.48C609.95,-606.11 628.63,-590.88 642.59,-579.51"/>
<polygon fill="midnightblue" stroke="midnightblue" points="645.02,-582.04 650.56,-573.01 640.6,-576.61 645.02,-582.04"/>
</g>
<!-- Node7 -->
<g id="node7" class="node">
<title>Node7</title>
<g id="a_node7"><a xlink:href="api_2spec_2queue__types_8h.html" target="_top" xlink:title="ODP queue types.">
<polygon fill="white" stroke="black" points="459.5,-548.5 459.5,-578.5 570.5,-578.5 570.5,-548.5 459.5,-548.5"/>
<text text-anchor="start" x="467.5" y="-566.5" font-family="Helvetica,sans-Serif" font-size="10.00">odp/api/spec/queue</text>
<text text-anchor="middle" x="515" y="-555.5" font-family="Helvetica,sans-Serif" font-size="10.00">_types.h</text>
</a>
</g>
</g>
<!-- Node5&#45;&gt;Node7 -->
<g id="edge6" class="edge">
<title>Node5&#45;&gt;Node7</title>
<path fill="none" stroke="midnightblue" d="M577.54,-615.48C567.84,-607.57 553.01,-595.48 540.23,-585.07"/>
<polygon fill="midnightblue" stroke="midnightblue" points="542.17,-582.13 532.2,-578.52 537.74,-587.55 542.17,-582.13"/>
</g>
<!-- Node7&#45;&gt;Node4 -->
<g id="edge7" class="edge">
<title>Node7&#45;&gt;Node4</title>
<path fill="none" stroke="midnightblue" d="M570.7,-549.11C683.43,-521.63 928,-459.9 928,-441.5 928,-441.5 928,-441.5 928,-132 928,-85.25 883.58,-45.86 855.49,-25.62"/>
<polygon fill="midnightblue" stroke="midnightblue" points="857.23,-22.57 847.02,-19.74 853.23,-28.32 857.23,-22.57"/>
</g>
<!-- Node8 -->
<g id="node8" class="node">
<title>Node8</title>
<g id="a_node8"><a xlink:href="api_2event__vector__types_8h.html" target="_top" xlink:title="ODP event vector API type definitions.">
<polygon fill="white" stroke="black" points="406.5,-358.5 406.5,-388.5 525.5,-388.5 525.5,-358.5 406.5,-358.5"/>
<text text-anchor="start" x="414.5" y="-376.5" font-family="Helvetica,sans-Serif" font-size="10.00">odp/api/event_vector</text>
<text text-anchor="middle" x="466" y="-365.5" font-family="Helvetica,sans-Serif" font-size="10.00">_types.h</text>
</a>
</g>
</g>
<!-- Node7&#45;&gt;Node8 -->
<g id="edge8" class="edge">
<title>Node7&#45;&gt;Node8</title>
<path fill="none" stroke="midnightblue" d="M504.42,-548.24C497.76,-538.52 489.58,-525.09 485,-512 471.65,-473.85 467.64,-426.66 466.46,-398.66"/>
<polygon fill="midnightblue" stroke="midnightblue" points="469.95,-398.47 466.12,-388.59 462.96,-398.7 469.95,-398.47"/>
</g>
<!-- Node7&#45;&gt;Node15 -->
<g id="edge43" class="edge">
<title>Node7&#45;&gt;Node15</title>
<path fill="none" stroke="midnightblue" d="M459.35,-560.09C333.52,-553.11 38,-527.58 38,-441.5 38,-441.5 38,-441.5 38,-132 38,-70.17 112.68,-37.55 164.74,-22.32"/>
<polygon fill="midnightblue" stroke="midnightblue" points="165.82,-25.65 174.5,-19.59 163.93,-18.91 165.82,-25.65"/>
</g>
<!-- Node23 -->
<g id="node23" class="node">
<title>Node23</title>
<g id="a_node23"><a xlink:href="api_2schedule__types_8h.html" target="_top" xlink:title="ODP schedule.">
<polygon fill="white" stroke="black" points="494,-492.5 494,-511.5 634,-511.5 634,-492.5 494,-492.5"/>
<text text-anchor="middle" x="564" y="-499.5" font-family="Helvetica,sans-Serif" font-size="10.00">odp/api/schedule_types.h</text>
</a>
</g>
</g>
<!-- Node7&#45;&gt;Node23 -->
<g id="edge30" class="edge">
<title>Node7&#45;&gt;Node23</title>
<path fill="none" stroke="midnightblue" d="M526.61,-548.4C533.73,-539.75 542.88,-528.64 550.35,-519.58"/>
<polygon fill="midnightblue" stroke="midnightblue" points="553.21,-521.6 556.87,-511.66 547.81,-517.15 553.21,-521.6"/>
</g>
<!-- Node9 -->
<g id="node9" class="node">
<title>Node9</title>
<g id="a_node9"><a xlink:title=" ">
<polygon fill="white" stroke="#bfbfbf" points="113.5,-291.5 113.5,-321.5 250.5,-321.5 250.5,-291.5 113.5,-291.5"/>
<text text-anchor="start" x="121.5" y="-309.5" font-family="Helvetica,sans-Serif" font-size="10.00">odp/api/abi/event_vector</text>
<text text-anchor="middle" x="182" y="-298.5" font-family="Helvetica,sans-Serif" font-size="10.00">_types.h</text>
</a>
</g>
</g>
<!-- Node8&#45;&gt;Node9 -->
<g id="edge9" class="edge">
<title>Node8&#45;&gt;Node9</title>
<path fill="none" stroke="midnightblue" d="M406.46,-358.87C361.82,-348.66 300.53,-334.63 253.28,-323.81"/>
<polygon fill="midnightblue" stroke="midnightblue" points="253.95,-320.38 243.42,-321.56 252.39,-327.2 253.95,-320.38"/>
</g>
<!-- Node10 -->
<g id="node10" class="node">
<title>Node10</title>
<g id="a_node10"><a xlink:title=" ">
<polygon fill="white" stroke="#bfbfbf" points="269,-297 269,-316 405,-316 405,-297 269,-297"/>
<text text-anchor="middle" x="337" y="-304" font-family="Helvetica,sans-Serif" font-size="10.00">odp/api/abi/pool_types.h</text>
</a>
</g>
</g>
<!-- Node8&#45;&gt;Node10 -->
<g id="edge10" class="edge">
<title>Node8&#45;&gt;Node10</title>
<path fill="none" stroke="midnightblue" d="M438.01,-358.4C415.67,-347.14 384.63,-331.5 362.87,-320.54"/>
<polygon fill="midnightblue" stroke="midnightblue" points="364.39,-317.38 353.88,-316.01 361.24,-323.63 364.39,-317.38"/>
</g>
<!-- Node11 -->
<g id="node11" class="node">
<title>Node11</title>
<g id="a_node11"><a xlink:href="api_2spec_2event__vector__types_8h.html" target="_top" xlink:title="ODP event vector API type definitions.">
<polygon fill="white" stroke="black" points="423.5,-291.5 423.5,-321.5 532.5,-321.5 532.5,-291.5 423.5,-291.5"/>
<text text-anchor="start" x="431.5" y="-309.5" font-family="Helvetica,sans-Serif" font-size="10.00">odp/api/spec/event</text>
<text text-anchor="middle" x="478" y="-298.5" font-family="Helvetica,sans-Serif" font-size="10.00">_vector_types.h</text>
</a>
</g>
</g>
<!-- Node8&#45;&gt;Node11 -->
<g id="edge11" class="edge">
<title>Node8&#45;&gt;Node11</title>
<path fill="none" stroke="midnightblue" d="M468.6,-358.4C470.05,-350.56 471.89,-340.6 473.56,-331.57"/>
<polygon fill="midnightblue" stroke="midnightblue" points="477.03,-332.05 475.4,-321.58 470.14,-330.77 477.03,-332.05"/>
</g>
<!-- Node11&#45;&gt;Node4 -->
<g id="edge12" class="edge">
<title>Node11&#45;&gt;Node4</title>
<path fill="none" stroke="midnightblue" d="M501.4,-291.47C566.52,-252.11 748,-140.03 793,-87 807.88,-69.47 819.35,-45.48 826.11,-29.17"/>
<polygon fill="midnightblue" stroke="midnightblue" points="829.43,-30.3 829.87,-19.71 822.93,-27.72 829.43,-30.3"/>
</g>
<!-- Node12 -->
<g id="node12" class="node">
<title>Node12</title>
<g id="a_node12"><a xlink:href="api_2event__types_8h.html" target="_top" xlink:title="ODP event API type definitions.">
<polygon fill="white" stroke="black" points="160.5,-123.5 160.5,-142.5 285.5,-142.5 285.5,-123.5 160.5,-123.5"/>
<text text-anchor="middle" x="223" y="-130.5" font-family="Helvetica,sans-Serif" font-size="10.00">odp/api/event_types.h</text>
</a>
</g>
</g>
<!-- Node11&#45;&gt;Node12 -->
<g id="edge13" class="edge">
<title>Node11&#45;&gt;Node12</title>
<path fill="none" stroke="midnightblue" d="M423.26,-292.06C374.77,-279.82 310.11,-262.53 300,-255 263.85,-228.07 240.32,-178.71 229.64,-152.11"/>
<polygon fill="midnightblue" stroke="midnightblue" points="232.81,-150.62 225.96,-142.54 226.28,-153.13 232.81,-150.62"/>
</g>
<!-- Node11&#45;&gt;Node15 -->
<g id="edge29" class="edge">
<title>Node11&#45;&gt;Node15</title>
<path fill="none" stroke="midnightblue" d="M423.37,-292.53C365.84,-278.77 282.64,-258.52 276,-255 180.47,-204.32 139.04,-187.85 100,-87 95.03,-74.15 92.25,-67.39 100,-56 111.21,-39.52 129.48,-29.08 148.14,-22.46"/>
<polygon fill="midnightblue" stroke="midnightblue" points="149.45,-25.71 157.9,-19.33 147.31,-19.05 149.45,-25.71"/>
</g>
<!-- Node16 -->
<g id="node16" class="node">
<title>Node16</title>
<g id="a_node16"><a xlink:href="api_2std__types_8h.html" target="_top" xlink:title="Standard C language types and definitions for ODP.">
<polygon fill="white" stroke="black" points="646,-235.5 646,-254.5 758,-254.5 758,-235.5 646,-235.5"/>
<text text-anchor="middle" x="702" y="-242.5" font-family="Helvetica,sans-Serif" font-size="10.00">odp/api/std_types.h</text>
</a>
</g>
</g>
<!-- Node11&#45;&gt;Node16 -->
<g id="edge18" class="edge">
<title>Node11&#45;&gt;Node16</title>
<path fill="none" stroke="midnightblue" d="M530.8,-291.47C570.29,-280.99 623.56,-266.84 660.13,-257.12"/>
<polygon fill="midnightblue" stroke="midnightblue" points="661.21,-260.46 669.98,-254.51 659.41,-253.69 661.21,-260.46"/>
</g>
<!-- Node13 -->
<g id="node13" class="node">
<title>Node13</title>
<g id="a_node13"><a xlink:title=" ">
<polygon fill="white" stroke="#bfbfbf" points="142.5,-62 142.5,-81 285.5,-81 285.5,-62 142.5,-62"/>
<text text-anchor="middle" x="214" y="-69" font-family="Helvetica,sans-Serif" font-size="10.00">odp/api/abi/event_types.h</text>
</a>
</g>
</g>
<!-- Node12&#45;&gt;Node13 -->
<g id="edge14" class="edge">
<title>Node12&#45;&gt;Node13</title>
<path fill="none" stroke="midnightblue" d="M221.71,-123.48C220.44,-115.08 218.46,-101.98 216.82,-91.16"/>
<polygon fill="midnightblue" stroke="midnightblue" points="220.24,-90.37 215.29,-81.01 213.32,-91.42 220.24,-90.37"/>
</g>
<!-- Node14 -->
<g id="node14" class="node">
<title>Node14</title>
<g id="a_node14"><a xlink:href="api_2spec_2event__types_8h.html" target="_top" xlink:title="ODP event API type definitions.">
<polygon fill="white" stroke="black" points="380.5,-56.5 380.5,-86.5 489.5,-86.5 489.5,-56.5 380.5,-56.5"/>
<text text-anchor="start" x="388.5" y="-74.5" font-family="Helvetica,sans-Serif" font-size="10.00">odp/api/spec/event</text>
<text text-anchor="middle" x="435" y="-63.5" font-family="Helvetica,sans-Serif" font-size="10.00">_types.h</text>
</a>
</g>
</g>
<!-- Node12&#45;&gt;Node14 -->
<g id="edge15" class="edge">
<title>Node12&#45;&gt;Node14</title>
<path fill="none" stroke="midnightblue" d="M253.37,-123.48C285.04,-114.59 335.49,-100.43 375.19,-89.29"/>
<polygon fill="midnightblue" stroke="midnightblue" points="376.35,-92.6 385.04,-86.52 374.46,-85.86 376.35,-92.6"/>
</g>
<!-- Node14&#45;&gt;Node4 -->
<g id="edge16" class="edge">
<title>Node14&#45;&gt;Node4</title>
<path fill="none" stroke="midnightblue" d="M489.75,-57.76C492.87,-57.14 495.97,-56.55 499,-56 589.37,-39.71 694.47,-26.48 762.27,-18.68"/>
<polygon fill="midnightblue" stroke="midnightblue" points="762.87,-22.13 772.41,-17.52 762.08,-15.18 762.87,-22.13"/>
</g>
<!-- Node14&#45;&gt;Node15 -->
<g id="edge17" class="edge">
<title>Node14&#45;&gt;Node15</title>
<path fill="none" stroke="midnightblue" d="M382.91,-56.47C343.95,-45.99 291.39,-31.84 255.31,-22.12"/>
<polygon fill="midnightblue" stroke="midnightblue" points="256.16,-18.73 245.6,-19.51 254.34,-25.49 256.16,-18.73"/>
</g>
<!-- Node17 -->
<g id="node17" class="node">
<title>Node17</title>
<g id="a_node17"><a xlink:title=" ">
<polygon fill="white" stroke="#bfbfbf" points="692,-179.5 692,-198.5 822,-198.5 822,-179.5 692,-179.5"/>
<text text-anchor="middle" x="757" y="-186.5" font-family="Helvetica,sans-Serif" font-size="10.00">odp/api/abi/std_types.h</text>
</a>
</g>
</g>
<!-- Node16&#45;&gt;Node17 -->
<g id="edge19" class="edge">
<title>Node16&#45;&gt;Node17</title>
<path fill="none" stroke="midnightblue" d="M711.08,-235.08C719.17,-227.14 731.2,-215.34 740.91,-205.8"/>
<polygon fill="midnightblue" stroke="midnightblue" points="743.4,-208.25 748.09,-198.75 738.5,-203.26 743.4,-208.25"/>
</g>
<!-- Node18 -->
<g id="node18" class="node">
<title>Node18</title>
<g id="a_node18"><a xlink:href="api_2spec_2std__types_8h.html" target="_top" xlink:title="Common types and definitions for ODP API files.">
<polygon fill="white" stroke="black" points="498.5,-179.5 498.5,-198.5 635.5,-198.5 635.5,-179.5 498.5,-179.5"/>
<text text-anchor="middle" x="567" y="-186.5" font-family="Helvetica,sans-Serif" font-size="10.00">odp/api/spec/std_types.h</text>
</a>
</g>
</g>
<!-- Node16&#45;&gt;Node18 -->
<g id="edge20" class="edge">
<title>Node16&#45;&gt;Node18</title>
<path fill="none" stroke="midnightblue" d="M680.61,-235.44C658.29,-226.52 623.1,-212.44 597.79,-202.32"/>
<polygon fill="midnightblue" stroke="midnightblue" points="598.88,-198.98 588.29,-198.52 596.28,-205.48 598.88,-198.98"/>
</g>
<!-- Node18&#45;&gt;Node4 -->
<g id="edge21" class="edge">
<title>Node18&#45;&gt;Node4</title>
<path fill="none" stroke="midnightblue" d="M600.26,-179.43C626.06,-171.98 662.18,-159.73 691,-143 745.38,-111.44 796,-55.66 819.4,-27.81"/>
<polygon fill="midnightblue" stroke="midnightblue" points="822.33,-29.75 826.01,-19.81 816.94,-25.29 822.33,-29.75"/>
</g>
<!-- Node18&#45;&gt;Node15 -->
<g id="edge28" class="edge">
<title>Node18&#45;&gt;Node15</title>
<path fill="none" stroke="midnightblue" d="M548.12,-179.42C512.57,-163.03 433.65,-125.43 371,-87 350.92,-74.68 348.67,-67.3 328,-56 303.28,-42.49 273.63,-30.91 250.77,-22.89"/>
<polygon fill="midnightblue" stroke="midnightblue" points="251.7,-19.51 241.11,-19.56 249.42,-26.13 251.7,-19.51"/>
</g>
<!-- Node19 -->
<g id="node19" class="node">
<title>Node19</title>
<g id="a_node19"><a xlink:title=" ">
<polygon fill="white" stroke="#bfbfbf" points="628.5,-123.5 628.5,-142.5 681.5,-142.5 681.5,-123.5 628.5,-123.5"/>
<text text-anchor="middle" x="655" y="-130.5" font-family="Helvetica,sans-Serif" font-size="10.00">stdint.h</text>
</a>
</g>
</g>
<!-- Node18&#45;&gt;Node19 -->
<g id="edge22" class="edge">
<title>Node18&#45;&gt;Node19</title>
<path fill="none" stroke="midnightblue" d="M581.14,-179.32C594.87,-170.9 615.94,-157.97 632.06,-148.07"/>
<polygon fill="midnightblue" stroke="midnightblue" points="634.2,-150.87 640.9,-142.65 630.54,-144.9 634.2,-150.87"/>
</g>
<!-- Node20 -->
<g id="node20" class="node">
<title>Node20</title>
<g id="a_node20"><a xlink:href="api_2align_8h.html" target="_top" xlink:title="ODP alignments.">
<polygon fill="white" stroke="black" points="521.5,-123.5 521.5,-142.5 610.5,-142.5 610.5,-123.5 521.5,-123.5"/>
<text text-anchor="middle" x="566" y="-130.5" font-family="Helvetica,sans-Serif" font-size="10.00">odp/api/align.h</text>
</a>
</g>
</g>
<!-- Node18&#45;&gt;Node20 -->
<g id="edge23" class="edge">
<title>Node18&#45;&gt;Node20</title>
<path fill="none" stroke="midnightblue" d="M566.83,-179.08C566.7,-172.01 566.52,-161.86 566.35,-152.99"/>
<polygon fill="midnightblue" stroke="midnightblue" points="569.85,-152.68 566.16,-142.75 562.85,-152.81 569.85,-152.68"/>
</g>
<!-- Node21 -->
<g id="node21" class="node">
<title>Node21</title>
<g id="a_node21"><a xlink:title=" ">
<polygon fill="white" stroke="#bfbfbf" points="640.5,-62 640.5,-81 747.5,-81 747.5,-62 640.5,-62"/>
<text text-anchor="middle" x="694" y="-69" font-family="Helvetica,sans-Serif" font-size="10.00">odp/api/abi/align.h</text>
</a>
</g>
</g>
<!-- Node20&#45;&gt;Node21 -->
<g id="edge24" class="edge">
<title>Node20&#45;&gt;Node21</title>
<path fill="none" stroke="midnightblue" d="M584.34,-123.48C605.82,-113.49 641.62,-96.85 666.45,-85.31"/>
<polygon fill="midnightblue" stroke="midnightblue" points="668.1,-88.4 675.69,-81.01 665.15,-82.05 668.1,-88.4"/>
</g>
<!-- Node22 -->
<g id="node22" class="node">
<title>Node22</title>
<g id="a_node22"><a xlink:href="api_2spec_2align_8h.html" target="_top" xlink:title="ODP alignments.">
<polygon fill="white" stroke="black" points="508,-62 508,-81 622,-81 622,-62 508,-62"/>
<text text-anchor="middle" x="565" y="-69" font-family="Helvetica,sans-Serif" font-size="10.00">odp/api/spec/align.h</text>
</a>
</g>
</g>
<!-- Node20&#45;&gt;Node22 -->
<g id="edge25" class="edge">
<title>Node20&#45;&gt;Node22</title>
<path fill="none" stroke="midnightblue" d="M565.86,-123.48C565.72,-115.08 565.5,-101.98 565.31,-91.16"/>
<polygon fill="midnightblue" stroke="midnightblue" points="568.81,-90.95 565.14,-81.01 561.81,-91.07 568.81,-90.95"/>
</g>
<!-- Node22&#45;&gt;Node4 -->
<g id="edge26" class="edge">
<title>Node22&#45;&gt;Node4</title>
<path fill="none" stroke="midnightblue" d="M603.4,-61.98C651.16,-51.37 732.74,-33.26 784.7,-21.72"/>
<polygon fill="midnightblue" stroke="midnightblue" points="785.67,-25.09 794.67,-19.51 784.15,-18.26 785.67,-25.09"/>
</g>
<!-- Node22&#45;&gt;Node15 -->
<g id="edge27" class="edge">
<title>Node22&#45;&gt;Node15</title>
<path fill="none" stroke="midnightblue" d="M527.51,-62C517.91,-59.93 507.59,-57.8 498,-56 423.71,-42.09 337.95,-28.89 280.28,-20.43"/>
<polygon fill="midnightblue" stroke="midnightblue" points="280.6,-16.94 270.2,-18.96 279.59,-23.87 280.6,-16.94"/>
</g>
<!-- Node24 -->
<g id="node24" class="node">
<title>Node24</title>
<g id="a_node24"><a xlink:title=" ">
<polygon fill="white" stroke="#bfbfbf" points="641.5,-425.5 641.5,-455.5 758.5,-455.5 758.5,-425.5 641.5,-425.5"/>
<text text-anchor="start" x="649.5" y="-443.5" font-family="Helvetica,sans-Serif" font-size="10.00">odp/api/abi/schedule</text>
<text text-anchor="middle" x="700" y="-432.5" font-family="Helvetica,sans-Serif" font-size="10.00">_types.h</text>
</a>
</g>
</g>
<!-- Node23&#45;&gt;Node24 -->
<g id="edge31" class="edge">
<title>Node23&#45;&gt;Node24</title>
<path fill="none" stroke="midnightblue" d="M583.49,-492.48C603.02,-483.93 633.71,-470.5 658.69,-459.57"/>
<polygon fill="midnightblue" stroke="midnightblue" points="660.19,-462.74 667.95,-455.52 657.38,-456.32 660.19,-462.74"/>
</g>
<!-- Node25 -->
<g id="node25" class="node">
<title>Node25</title>
<g id="a_node25"><a xlink:href="api_2spec_2schedule__types_8h.html" target="_top" xlink:title="ODP schedule types.">
<polygon fill="white" stroke="black" points="498.5,-425.5 498.5,-455.5 623.5,-455.5 623.5,-425.5 498.5,-425.5"/>
<text text-anchor="start" x="506.5" y="-443.5" font-family="Helvetica,sans-Serif" font-size="10.00">odp/api/spec/schedule</text>
<text text-anchor="middle" x="561" y="-432.5" font-family="Helvetica,sans-Serif" font-size="10.00">_types.h</text>
</a>
</g>
</g>
<!-- Node23&#45;&gt;Node25 -->
<g id="edge32" class="edge">
<title>Node23&#45;&gt;Node25</title>
<path fill="none" stroke="midnightblue" d="M563.57,-492.48C563.22,-485.47 562.7,-475.19 562.22,-465.7"/>
<polygon fill="midnightblue" stroke="midnightblue" points="565.71,-465.33 561.71,-455.52 558.72,-465.69 565.71,-465.33"/>
</g>
<!-- Node25&#45;&gt;Node4 -->
<g id="edge33" class="edge">
<title>Node25&#45;&gt;Node4</title>
<path fill="none" stroke="midnightblue" d="M608.84,-425.49C700.09,-398.07 890,-337.43 890,-307.5 890,-307.5 890,-307.5 890,-132 890,-91.59 863.66,-50.21 846.79,-27.85"/>
<polygon fill="midnightblue" stroke="midnightblue" points="849.37,-25.46 840.45,-19.74 843.85,-29.77 849.37,-25.46"/>
</g>
<!-- Node25&#45;&gt;Node8 -->
<g id="edge34" class="edge">
<title>Node25&#45;&gt;Node8</title>
<path fill="none" stroke="midnightblue" d="M540.39,-425.4C527.07,-416.28 509.54,-404.29 494.84,-394.24"/>
<polygon fill="midnightblue" stroke="midnightblue" points="496.8,-391.33 486.57,-388.58 492.85,-397.11 496.8,-391.33"/>
</g>
<!-- Node25&#45;&gt;Node15 -->
<g id="edge42" class="edge">
<title>Node25&#45;&gt;Node15</title>
<path fill="none" stroke="midnightblue" d="M498.19,-432.74C384.55,-419.08 152.13,-384.07 104,-322 83.88,-296.05 -0.53,-254.04 133,-56 143.05,-41.09 159.77,-30.62 175.42,-23.56"/>
<polygon fill="midnightblue" stroke="midnightblue" points="177.07,-26.66 184.96,-19.59 174.38,-20.2 177.07,-26.66"/>
</g>
<!-- Node25&#45;&gt;Node16 -->
<g id="edge35" class="edge">
<title>Node25&#45;&gt;Node16</title>
<path fill="none" stroke="midnightblue" d="M558.53,-425.42C554.35,-396.72 549.17,-330.83 581,-291 594.65,-273.92 615.47,-263.32 636.01,-256.75"/>
<polygon fill="midnightblue" stroke="midnightblue" points="637.1,-260.08 645.72,-253.92 635.14,-253.36 637.1,-260.08"/>
</g>
<!-- Node26 -->
<g id="node26" class="node">
<title>Node26</title>
<g id="a_node26"><a xlink:href="api_2thrmask_8h.html" target="_top" xlink:title="ODP thread masks.">
<polygon fill="white" stroke="black" points="602.5,-364 602.5,-383 707.5,-383 707.5,-364 602.5,-364"/>
<text text-anchor="middle" x="655" y="-371" font-family="Helvetica,sans-Serif" font-size="10.00">odp/api/thrmask.h</text>
</a>
</g>
</g>
<!-- Node25&#45;&gt;Node26 -->
<g id="edge36" class="edge">
<title>Node25&#45;&gt;Node26</title>
<path fill="none" stroke="midnightblue" d="M581.4,-425.4C597.01,-414.6 618.48,-399.76 634.19,-388.89"/>
<polygon fill="midnightblue" stroke="midnightblue" points="636.46,-391.57 642.7,-383.01 632.48,-385.82 636.46,-391.57"/>
</g>
<!-- Node27 -->
<g id="node27" class="node">
<title>Node27</title>
<g id="a_node27"><a xlink:title=" ">
<polygon fill="white" stroke="#bfbfbf" points="738.5,-297 738.5,-316 861.5,-316 861.5,-297 738.5,-297"/>
<text text-anchor="middle" x="800" y="-304" font-family="Helvetica,sans-Serif" font-size="10.00">odp/api/abi/thrmask.h</text>
</a>
</g>
</g>
<!-- Node26&#45;&gt;Node27 -->
<g id="edge37" class="edge">
<title>Node26&#45;&gt;Node27</title>
<path fill="none" stroke="midnightblue" d="M674.25,-363.87C699.17,-352.7 742.79,-333.15 771.53,-320.26"/>
<polygon fill="midnightblue" stroke="midnightblue" points="772.97,-323.45 780.67,-316.17 770.11,-317.06 772.97,-323.45"/>
</g>
<!-- Node28 -->
<g id="node28" class="node">
<title>Node28</title>
<g id="a_node28"><a xlink:href="api_2spec_2thrmask_8h.html" target="_top" xlink:title="ODP thread masks.">
<polygon fill="white" stroke="black" points="589.5,-297 589.5,-316 720.5,-316 720.5,-297 589.5,-297"/>
<text text-anchor="middle" x="655" y="-304" font-family="Helvetica,sans-Serif" font-size="10.00">odp/api/spec/thrmask.h</text>
</a>
</g>
</g>
<!-- Node26&#45;&gt;Node28 -->
<g id="edge38" class="edge">
<title>Node26&#45;&gt;Node28</title>
<path fill="none" stroke="midnightblue" d="M655,-363.73C655,-354.18 655,-338.62 655,-326.28"/>
<polygon fill="midnightblue" stroke="midnightblue" points="658.5,-326.13 655,-316.13 651.5,-326.13 658.5,-326.13"/>
</g>
<!-- Node28&#45;&gt;Node4 -->
<g id="edge39" class="edge">
<title>Node28&#45;&gt;Node4</title>
<path fill="none" stroke="midnightblue" d="M679.55,-296.88C732.36,-277.6 852,-229.55 852,-190 852,-190 852,-190 852,-132 852,-95.29 843.36,-53.06 837.73,-29.45"/>
<polygon fill="midnightblue" stroke="midnightblue" points="841.13,-28.6 835.33,-19.73 834.33,-30.28 841.13,-28.6"/>
</g>
<!-- Node28&#45;&gt;Node15 -->
<g id="edge41" class="edge">
<title>Node28&#45;&gt;Node15</title>
<path fill="none" stroke="midnightblue" d="M590.06,-297C491.12,-282.2 314,-247.66 314,-190 314,-190 314,-190 314,-132 314,-97.07 315.36,-83.64 294,-56 282.78,-41.49 265.48,-30.93 249.83,-23.7"/>
<polygon fill="midnightblue" stroke="midnightblue" points="250.94,-20.36 240.37,-19.62 248.17,-26.79 250.94,-20.36"/>
</g>
<!-- Node28&#45;&gt;Node16 -->
<g id="edge40" class="edge">
<title>Node28&#45;&gt;Node16</title>
<path fill="none" stroke="midnightblue" d="M661.73,-296.98C668.78,-288.05 680.03,-273.81 688.85,-262.64"/>
<polygon fill="midnightblue" stroke="midnightblue" points="691.83,-264.53 695.28,-254.51 686.33,-260.19 691.83,-264.53"/>
</g>
</g>
</svg>
