<?xml version="1.0" encoding="UTF-8" standalone="no"?>
<!DOCTYPE svg PUBLIC "-//W3C//DTD SVG 1.1//EN"
 "http://www.w3.org/Graphics/SVG/1.1/DTD/svg11.dtd">
<!-- Generated by graphviz version 2.40.1 (20161225.0304)
 -->
<!-- Title: reassembly.h Pages: 1 -->
<svg width="313pt" height="532pt"
 viewBox="0.00 0.00 312.50 532.00" xmlns="http://www.w3.org/2000/svg" xmlns:xlink="http://www.w3.org/1999/xlink">
<g id="graph0" class="graph" transform="scale(1 1) rotate(0) translate(4 528)">
<title>reassembly.h</title>
<polygon fill="#ffffff" stroke="transparent" points="-4,4 -4,-528 308.5,-528 308.5,4 -4,4"/>
<!-- Node3 -->
<g id="node1" class="node">
<title>Node3</title>
<polygon fill="#bfbfbf" stroke="#000000" points="0,-504.5 0,-523.5 81,-523.5 81,-504.5 0,-504.5"/>
<text text-anchor="middle" x="40.5" y="-511.5" font-family="Helvetica,sans-Serif" font-size="10.00" fill="#000000">reassembly.h</text>
</g>
<!-- Node4 -->
<g id="node2" class="node">
<title>Node4</title>
<g id="a_node2"><a xlink:href="reassembly_8h.html" target="_top" xlink:title="ODP REASSEMBLY API &#45; platform specific header. ">
<polygon fill="#ffffff" stroke="#000000" points="0,-448.5 0,-467.5 81,-467.5 81,-448.5 0,-448.5"/>
<text text-anchor="middle" x="40.5" y="-455.5" font-family="Helvetica,sans-Serif" font-size="10.00" fill="#000000">reassembly.h</text>
</a>
</g>
</g>
<!-- Node3&#45;&gt;Node4 -->
<g id="edge1" class="edge">
<title>Node3&#45;&gt;Node4</title>
<path fill="none" stroke="#191970" d="M40.5,-494.1575C40.5,-485.155 40.5,-474.9199 40.5,-467.6427"/>
<polygon fill="#191970" stroke="#191970" points="37.0001,-494.2455 40.5,-504.2455 44.0001,-494.2456 37.0001,-494.2455"/>
</g>
<!-- Node5 -->
<g id="node3" class="node">
<title>Node5</title>
<g id="a_node3"><a xlink:href="api_2spec_2packet__io_8h.html" target="_top" xlink:title="ODP Packet IO. ">
<polygon fill="#ffffff" stroke="#000000" points="60,-392.5 60,-411.5 133,-411.5 133,-392.5 60,-392.5"/>
<text text-anchor="middle" x="96.5" y="-399.5" font-family="Helvetica,sans-Serif" font-size="10.00" fill="#000000">packet_io.h</text>
</a>
</g>
</g>
<!-- Node4&#45;&gt;Node5 -->
<g id="edge2" class="edge">
<title>Node4&#45;&gt;Node5</title>
<path fill="none" stroke="#191970" d="M57.4249,-441.0751C67.0598,-431.4402 78.7804,-419.7196 86.8573,-411.6427"/>
<polygon fill="#191970" stroke="#191970" points="54.8507,-438.6996 50.2545,-448.2455 59.8004,-443.6493 54.8507,-438.6996"/>
</g>
<!-- Node11 -->
<g id="node9" class="node">
<title>Node11</title>
<g id="a_node9"><a xlink:href="odp__api_8h.html" target="_top" xlink:title="The OpenDataPlane API. ">
<polygon fill="#ffffff" stroke="#000000" points="87.5,-56.5 87.5,-75.5 151.5,-75.5 151.5,-56.5 87.5,-56.5"/>
<text text-anchor="middle" x="119.5" y="-63.5" font-family="Helvetica,sans-Serif" font-size="10.00" fill="#000000">odp_api.h</text>
</a>
</g>
</g>
<!-- Node4&#45;&gt;Node11 -->
<g id="edge17" class="edge">
<title>Node4&#45;&gt;Node11</title>
<path fill="none" stroke="#191970" d="M31.6672,-439.2343C22.1955,-417.357 8.5,-379.868 8.5,-346 8.5,-346 8.5,-346 8.5,-178 8.5,-127.4911 66.1548,-91.6118 98.3605,-75.5099"/>
<polygon fill="#191970" stroke="#191970" points="28.4851,-440.6923 35.7783,-448.3774 34.8695,-437.8216 28.4851,-440.6923"/>
</g>
<!-- Node6 -->
<g id="node4" class="node">
<title>Node6</title>
<g id="a_node4"><a xlink:href="api_2packet__io_8h.html" target="_top" xlink:title="ODP Packet IO. ">
<polygon fill="#ffffff" stroke="#000000" points="83,-336.5 83,-355.5 156,-355.5 156,-336.5 83,-336.5"/>
<text text-anchor="middle" x="119.5" y="-343.5" font-family="Helvetica,sans-Serif" font-size="10.00" fill="#000000">packet_io.h</text>
</a>
</g>
</g>
<!-- Node5&#45;&gt;Node6 -->
<g id="edge3" class="edge">
<title>Node5&#45;&gt;Node6</title>
<path fill="none" stroke="#191970" d="M104.4066,-382.7493C108.1617,-373.6064 112.4851,-363.0798 115.5396,-355.6427"/>
<polygon fill="#191970" stroke="#191970" points="101.068,-381.6656 100.5063,-392.2455 107.5431,-384.3251 101.068,-381.6656"/>
</g>
<!-- Node7 -->
<g id="node5" class="node">
<title>Node7</title>
<g id="a_node5"><a xlink:href="api_2spec_2classification_8h.html" target="_top" xlink:title="ODP classification descriptor. ">
<polygon fill="#ffffff" stroke="#000000" points="75,-280.5 75,-299.5 164,-299.5 164,-280.5 75,-280.5"/>
<text text-anchor="middle" x="119.5" y="-287.5" font-family="Helvetica,sans-Serif" font-size="10.00" fill="#000000">classification.h</text>
</a>
</g>
</g>
<!-- Node6&#45;&gt;Node7 -->
<g id="edge4" class="edge">
<title>Node6&#45;&gt;Node7</title>
<path fill="none" stroke="#191970" d="M119.5,-326.1575C119.5,-317.155 119.5,-306.9199 119.5,-299.6427"/>
<polygon fill="#191970" stroke="#191970" points="116.0001,-326.2455 119.5,-336.2455 123.0001,-326.2456 116.0001,-326.2455"/>
</g>
<!-- Node9 -->
<g id="node7" class="node">
<title>Node9</title>
<g id="a_node7"><a xlink:href="api_2spec_2ipsec_8h.html" target="_top" xlink:title="ODP IPSEC API. ">
<polygon fill="#ffffff" stroke="#000000" points="157,-168.5 157,-187.5 208,-187.5 208,-168.5 157,-168.5"/>
<text text-anchor="middle" x="182.5" y="-175.5" font-family="Helvetica,sans-Serif" font-size="10.00" fill="#000000">ipsec.h</text>
</a>
</g>
</g>
<!-- Node6&#45;&gt;Node9 -->
<g id="edge11" class="edge">
<title>Node6&#45;&gt;Node9</title>
<path fill="none" stroke="#191970" d="M144.7353,-330.5303C155.1679,-322.7354 166.263,-312.3123 172.5,-300 191.7069,-262.0841 187.0065,-208.9489 184.031,-187.5166"/>
<polygon fill="#191970" stroke="#191970" points="142.4526,-327.855 136.2491,-336.4437 146.4546,-333.5982 142.4526,-327.855"/>
</g>
<!-- Node6&#45;&gt;Node11 -->
<g id="edge16" class="edge">
<title>Node6&#45;&gt;Node11</title>
<path fill="none" stroke="#191970" d="M95.1284,-330.1454C84.6621,-322.2228 73.113,-311.8054 65.5,-300 48.957,-274.3469 46.5,-264.5246 46.5,-234 46.5,-234 46.5,-234 46.5,-178 46.5,-133.9009 86.7115,-93.5671 107.4455,-75.7011"/>
<polygon fill="#191970" stroke="#191970" points="93.3893,-333.2053 103.5553,-336.1894 97.4691,-327.5171 93.3893,-333.2053"/>
</g>
<!-- Node13 -->
<g id="node11" class="node">
<title>Node13</title>
<g id="a_node11"><a xlink:href="api_2spec_2traffic__mngr_8h.html" target="_top" xlink:title="traffic_mngr.h">
<polygon fill="#ffffff" stroke="#000000" points="220.5,-280.5 220.5,-299.5 304.5,-299.5 304.5,-280.5 220.5,-280.5"/>
<text text-anchor="middle" x="262.5" y="-287.5" font-family="Helvetica,sans-Serif" font-size="10.00" fill="#000000">traffic_mngr.h</text>
</a>
</g>
</g>
<!-- Node6&#45;&gt;Node13 -->
<g id="edge12" class="edge">
<title>Node6&#45;&gt;Node13</title>
<path fill="none" stroke="#191970" d="M153.5798,-332.6541C179.6573,-322.4419 214.9815,-308.6086 238.2382,-299.5011"/>
<polygon fill="#191970" stroke="#191970" points="152.1178,-329.4677 144.0826,-336.3733 154.6703,-335.9858 152.1178,-329.4677"/>
</g>
<!-- Node8 -->
<g id="node6" class="node">
<title>Node8</title>
<g id="a_node6"><a xlink:href="api_2classification_8h.html" target="_top" xlink:title="ODP classification descriptor. ">
<polygon fill="#ffffff" stroke="#000000" points="75,-224.5 75,-243.5 164,-243.5 164,-224.5 75,-224.5"/>
<text text-anchor="middle" x="119.5" y="-231.5" font-family="Helvetica,sans-Serif" font-size="10.00" fill="#000000">classification.h</text>
</a>
</g>
</g>
<!-- Node7&#45;&gt;Node8 -->
<g id="edge5" class="edge">
<title>Node7&#45;&gt;Node8</title>
<path fill="none" stroke="#191970" d="M119.5,-270.1575C119.5,-261.155 119.5,-250.9199 119.5,-243.6427"/>
<polygon fill="#191970" stroke="#191970" points="116.0001,-270.2455 119.5,-280.2455 123.0001,-270.2456 116.0001,-270.2455"/>
</g>
<!-- Node8&#45;&gt;Node9 -->
<g id="edge6" class="edge">
<title>Node8&#45;&gt;Node9</title>
<path fill="none" stroke="#191970" d="M138.2192,-217.3607C149.1182,-207.6727 162.4755,-195.7995 171.652,-187.6427"/>
<polygon fill="#191970" stroke="#191970" points="135.6226,-214.9859 130.4738,-224.2455 140.2732,-220.2178 135.6226,-214.9859"/>
</g>
<!-- Node8&#45;&gt;Node11 -->
<g id="edge10" class="edge">
<title>Node8&#45;&gt;Node11</title>
<path fill="none" stroke="#191970" d="M119.5,-214.2601C119.5,-178.1669 119.5,-102.7656 119.5,-75.8279"/>
<polygon fill="#191970" stroke="#191970" points="116.0001,-214.4862 119.5,-224.4862 123.0001,-214.4863 116.0001,-214.4862"/>
</g>
<!-- Node10 -->
<g id="node8" class="node">
<title>Node10</title>
<g id="a_node8"><a xlink:href="api_2ipsec_8h.html" target="_top" xlink:title="ODP IPSEC API &#45; platform specific header. ">
<polygon fill="#ffffff" stroke="#000000" points="153,-112.5 153,-131.5 204,-131.5 204,-112.5 153,-112.5"/>
<text text-anchor="middle" x="178.5" y="-119.5" font-family="Helvetica,sans-Serif" font-size="10.00" fill="#000000">ipsec.h</text>
</a>
</g>
</g>
<!-- Node9&#45;&gt;Node10 -->
<g id="edge7" class="edge">
<title>Node9&#45;&gt;Node10</title>
<path fill="none" stroke="#191970" d="M181.0827,-158.1575C180.4396,-149.155 179.7086,-138.9199 179.1888,-131.6427"/>
<polygon fill="#191970" stroke="#191970" points="177.5996,-158.5204 181.8033,-168.2455 184.5818,-158.0216 177.5996,-158.5204"/>
</g>
<!-- Node10&#45;&gt;Node11 -->
<g id="edge8" class="edge">
<title>Node10&#45;&gt;Node11</title>
<path fill="none" stroke="#191970" d="M160.9693,-105.3607C150.7623,-95.6727 138.2531,-83.7995 129.6592,-75.6427"/>
<polygon fill="#191970" stroke="#191970" points="158.5604,-107.8998 168.223,-112.2455 163.3794,-102.8227 158.5604,-107.8998"/>
</g>
<!-- Node12 -->
<g id="node10" class="node">
<title>Node12</title>
<g id="a_node10"><a xlink:href="odp_8h.html" target="_top" xlink:title="WARNING: THIS FILE IS DEPRECATED AND WILL BE REMOVED!!! ODP APPLICATIONS SHOULD NOW INCLUDE odp_api...">
<polygon fill="#ffffff" stroke="#000000" points="97.5,-.5 97.5,-19.5 141.5,-19.5 141.5,-.5 97.5,-.5"/>
<text text-anchor="middle" x="119.5" y="-7.5" font-family="Helvetica,sans-Serif" font-size="10.00" fill="#000000">odp.h</text>
</a>
</g>
</g>
<!-- Node11&#45;&gt;Node12 -->
<g id="edge9" class="edge">
<title>Node11&#45;&gt;Node12</title>
<path fill="none" stroke="#191970" d="M119.5,-46.1575C119.5,-37.155 119.5,-26.9199 119.5,-19.6427"/>
<polygon fill="#191970" stroke="#191970" points="116.0001,-46.2455 119.5,-56.2455 123.0001,-46.2456 116.0001,-46.2455"/>
</g>
<!-- Node14 -->
<g id="node12" class="node">
<title>Node14</title>
<g id="a_node12"><a xlink:href="api_2traffic__mngr_8h.html" target="_top" xlink:title="ODP Traffic manager. ">
<polygon fill="#ffffff" stroke="#000000" points="220.5,-224.5 220.5,-243.5 304.5,-243.5 304.5,-224.5 220.5,-224.5"/>
<text text-anchor="middle" x="262.5" y="-231.5" font-family="Helvetica,sans-Serif" font-size="10.00" fill="#000000">traffic_mngr.h</text>
</a>
</g>
</g>
<!-- Node13&#45;&gt;Node14 -->
<g id="edge13" class="edge">
<title>Node13&#45;&gt;Node14</title>
<path fill="none" stroke="#191970" d="M262.5,-270.1575C262.5,-261.155 262.5,-250.9199 262.5,-243.6427"/>
<polygon fill="#191970" stroke="#191970" points="259.0001,-270.2455 262.5,-280.2455 266.0001,-270.2456 259.0001,-270.2455"/>
</g>
<!-- Node14&#45;&gt;Node9 -->
<g id="edge14" class="edge">
<title>Node14&#45;&gt;Node9</title>
<path fill="none" stroke="#191970" d="M240.3429,-218.49C226.228,-208.6096 208.3849,-196.1194 196.2752,-187.6427"/>
<polygon fill="#191970" stroke="#191970" points="238.3656,-221.3782 248.5651,-224.2455 242.3799,-215.6436 238.3656,-221.3782"/>
</g>
<!-- Node14&#45;&gt;Node11 -->
<g id="edge15" class="edge">
<title>Node14&#45;&gt;Node11</title>
<path fill="none" stroke="#191970" d="M259.1358,-214.269C253.7342,-187.9892 240.8284,-141.4052 213.5,-112 196.926,-94.1665 171.9482,-82.399 151.9053,-75.2334"/>
<polygon fill="#191970" stroke="#191970" points="255.7128,-215.0048 261.0115,-224.1795 262.5907,-213.703 255.7128,-215.0048"/>
</g>
</g>
</svg>
