<?xml version="1.0" encoding="UTF-8" standalone="no"?>
<!DOCTYPE svg PUBLIC "-//W3C//DTD SVG 1.1//EN"
 "http://www.w3.org/Graphics/SVG/1.1/DTD/svg11.dtd">
<!-- Generated by graphviz version 2.40.1 (20161225.0304)
 -->
<!-- Title: hints.h Pages: 1 -->
<svg width="178pt" height="420pt"
 viewBox="0.00 0.00 178.00 420.00" xmlns="http://www.w3.org/2000/svg" xmlns:xlink="http://www.w3.org/1999/xlink">
<g id="graph0" class="graph" transform="scale(1 1) rotate(0) translate(4 416)">
<title>hints.h</title>
<polygon fill="#ffffff" stroke="transparent" points="-4,4 -4,-416 174,-416 174,4 -4,4"/>
<!-- Node3 -->
<g id="node1" class="node">
<title>Node3</title>
<polygon fill="#bfbfbf" stroke="#000000" points="120,-392.5 120,-411.5 170,-411.5 170,-392.5 120,-392.5"/>
<text text-anchor="middle" x="145" y="-399.5" font-family="Helvetica,sans-Serif" font-size="10.00" fill="#000000">hints.h</text>
</g>
<!-- Node4 -->
<g id="node2" class="node">
<title>Node4</title>
<g id="a_node2"><a xlink:href="hints_8h.html" target="_top" xlink:title="ODP compiler hints. ">
<polygon fill="#ffffff" stroke="#000000" points="120,-336.5 120,-355.5 170,-355.5 170,-336.5 120,-336.5"/>
<text text-anchor="middle" x="145" y="-343.5" font-family="Helvetica,sans-Serif" font-size="10.00" fill="#000000">hints.h</text>
</a>
</g>
</g>
<!-- Node3&#45;&gt;Node4 -->
<g id="edge1" class="edge">
<title>Node3&#45;&gt;Node4</title>
<path fill="none" stroke="#191970" d="M145,-382.1575C145,-373.155 145,-362.9199 145,-355.6427"/>
<polygon fill="#191970" stroke="#191970" points="141.5001,-382.2455 145,-392.2455 148.5001,-382.2456 141.5001,-382.2455"/>
</g>
<!-- Node5 -->
<g id="node3" class="node">
<title>Node5</title>
<g id="a_node3"><a xlink:href="api_2spec_2init_8h.html" target="_top" xlink:title="init.h">
<polygon fill="#ffffff" stroke="#000000" points="100.5,-280.5 100.5,-299.5 141.5,-299.5 141.5,-280.5 100.5,-280.5"/>
<text text-anchor="middle" x="121" y="-287.5" font-family="Helvetica,sans-Serif" font-size="10.00" fill="#000000">init.h</text>
</a>
</g>
</g>
<!-- Node4&#45;&gt;Node5 -->
<g id="edge2" class="edge">
<title>Node4&#45;&gt;Node5</title>
<path fill="none" stroke="#191970" d="M136.8759,-327.0437C132.9285,-317.8331 128.3542,-307.1598 125.1326,-299.6427"/>
<polygon fill="#191970" stroke="#191970" points="133.6633,-328.4328 140.8195,-336.2455 140.0973,-325.6753 133.6633,-328.4328"/>
</g>
<!-- Node9 -->
<g id="node7" class="node">
<title>Node9</title>
<g id="a_node7"><a xlink:href="odp__api_8h.html" target="_top" xlink:title="The OpenDataPlane API. ">
<polygon fill="#ffffff" stroke="#000000" points="100,-56.5 100,-75.5 164,-75.5 164,-56.5 100,-56.5"/>
<text text-anchor="middle" x="132" y="-63.5" font-family="Helvetica,sans-Serif" font-size="10.00" fill="#000000">odp_api.h</text>
</a>
</g>
</g>
<!-- Node4&#45;&gt;Node9 -->
<g id="edge9" class="edge">
<title>Node4&#45;&gt;Node9</title>
<path fill="none" stroke="#191970" d="M152.0013,-326.7541C159.397,-304.6695 170,-267.2153 170,-234 170,-234 170,-234 170,-178 170,-138.1657 148.1774,-94.3859 137.607,-75.5166"/>
<polygon fill="#191970" stroke="#191970" points="148.6692,-325.6803 148.6888,-336.2751 155.2805,-327.9805 148.6692,-325.6803"/>
</g>
<!-- Node6 -->
<g id="node4" class="node">
<title>Node6</title>
<g id="a_node4"><a xlink:href="api_2init_8h.html" target="_top" xlink:title="ODP initialization. ">
<polygon fill="#ffffff" stroke="#000000" points="100.5,-224.5 100.5,-243.5 141.5,-243.5 141.5,-224.5 100.5,-224.5"/>
<text text-anchor="middle" x="121" y="-231.5" font-family="Helvetica,sans-Serif" font-size="10.00" fill="#000000">init.h</text>
</a>
</g>
</g>
<!-- Node5&#45;&gt;Node6 -->
<g id="edge3" class="edge">
<title>Node5&#45;&gt;Node6</title>
<path fill="none" stroke="#191970" d="M121,-270.1575C121,-261.155 121,-250.9199 121,-243.6427"/>
<polygon fill="#191970" stroke="#191970" points="117.5001,-270.2455 121,-280.2455 124.5001,-270.2456 117.5001,-270.2455"/>
</g>
<!-- Node7 -->
<g id="node5" class="node">
<title>Node7</title>
<g id="a_node5"><a xlink:href="api_2spec_2shared__memory_8h.html" target="_top" xlink:title="ODP shared memory. ">
<polygon fill="#ffffff" stroke="#000000" points="0,-168.5 0,-187.5 104,-187.5 104,-168.5 0,-168.5"/>
<text text-anchor="middle" x="52" y="-175.5" font-family="Helvetica,sans-Serif" font-size="10.00" fill="#000000">shared_memory.h</text>
</a>
</g>
</g>
<!-- Node6&#45;&gt;Node7 -->
<g id="edge4" class="edge">
<title>Node6&#45;&gt;Node7</title>
<path fill="none" stroke="#191970" d="M101.197,-217.928C89.1364,-208.1397 74.1286,-195.9595 63.8812,-187.6427"/>
<polygon fill="#191970" stroke="#191970" points="99.0109,-220.6614 108.9811,-224.2455 103.4221,-215.2262 99.0109,-220.6614"/>
</g>
<!-- Node6&#45;&gt;Node9 -->
<g id="edge8" class="edge">
<title>Node6&#45;&gt;Node9</title>
<path fill="none" stroke="#191970" d="M122.2925,-214.2601C124.6557,-178.1669 129.5927,-102.7656 131.3565,-75.8279"/>
<polygon fill="#191970" stroke="#191970" points="118.7839,-214.2789 121.6229,-224.4862 125.7689,-214.7363 118.7839,-214.2789"/>
</g>
<!-- Node8 -->
<g id="node6" class="node">
<title>Node8</title>
<g id="a_node6"><a xlink:href="api_2shared__memory_8h.html" target="_top" xlink:title="ODP shared memory. ">
<polygon fill="#ffffff" stroke="#000000" points="0,-112.5 0,-131.5 104,-131.5 104,-112.5 0,-112.5"/>
<text text-anchor="middle" x="52" y="-119.5" font-family="Helvetica,sans-Serif" font-size="10.00" fill="#000000">shared_memory.h</text>
</a>
</g>
</g>
<!-- Node7&#45;&gt;Node8 -->
<g id="edge5" class="edge">
<title>Node7&#45;&gt;Node8</title>
<path fill="none" stroke="#191970" d="M52,-158.1575C52,-149.155 52,-138.9199 52,-131.6427"/>
<polygon fill="#191970" stroke="#191970" points="48.5001,-158.2455 52,-168.2455 55.5001,-158.2456 48.5001,-158.2455"/>
</g>
<!-- Node8&#45;&gt;Node9 -->
<g id="edge6" class="edge">
<title>Node8&#45;&gt;Node9</title>
<path fill="none" stroke="#191970" d="M74.1571,-106.49C88.272,-96.6096 106.1151,-84.1194 118.2248,-75.6427"/>
<polygon fill="#191970" stroke="#191970" points="72.1201,-103.6436 65.9349,-112.2455 76.1344,-109.3782 72.1201,-103.6436"/>
</g>
<!-- Node10 -->
<g id="node8" class="node">
<title>Node10</title>
<g id="a_node8"><a xlink:href="odp_8h.html" target="_top" xlink:title="WARNING: THIS FILE IS DEPRECATED AND WILL BE REMOVED!!! ODP APPLICATIONS SHOULD NOW INCLUDE odp_api...">
<polygon fill="#ffffff" stroke="#000000" points="110,-.5 110,-19.5 154,-19.5 154,-.5 110,-.5"/>
<text text-anchor="middle" x="132" y="-7.5" font-family="Helvetica,sans-Serif" font-size="10.00" fill="#000000">odp.h</text>
</a>
</g>
</g>
<!-- Node9&#45;&gt;Node10 -->
<g id="edge7" class="edge">
<title>Node9&#45;&gt;Node10</title>
<path fill="none" stroke="#191970" d="M132,-46.1575C132,-37.155 132,-26.9199 132,-19.6427"/>
<polygon fill="#191970" stroke="#191970" points="128.5001,-46.2455 132,-56.2455 135.5001,-46.2456 128.5001,-46.2455"/>
</g>
</g>
</svg>
