<?xml version="1.0" encoding="UTF-8" standalone="no"?>
<!DOCTYPE svg PUBLIC "-//W3C//DTD SVG 1.1//EN"
 "http://www.w3.org/Graphics/SVG/1.1/DTD/svg11.dtd">
<!-- Generated by graphviz version 2.43.0 (0)
 -->
<!-- Title: odp_timer_pool_info_t Pages: 1 -->
<svg width="286pt" height="184pt"
 viewBox="0.00 0.00 286.00 184.00" xmlns="http://www.w3.org/2000/svg" xmlns:xlink="http://www.w3.org/1999/xlink">
<g id="graph0" class="graph" transform="scale(1 1) rotate(0) translate(4 180)">
<title>odp_timer_pool_info_t</title>
<polygon fill="white" stroke="transparent" points="-4,4 -4,-180 282,-180 282,4 -4,4"/>
<!-- Node1 -->
<g id="node1" class="node">
<title>Node1</title>
<g id="a_node1"><a xlink:title="ODP timer pool information and configuration.">
<polygon fill="#bfbfbf" stroke="black" points="80.5,-0.5 80.5,-19.5 205.5,-19.5 205.5,-0.5 80.5,-0.5"/>
<text text-anchor="middle" x="143" y="-7.5" font-family="Helvetica,sans-Serif" font-size="10.00">odp_timer_pool_info_t</text>
</a>
</g>
</g>
<!-- Node2 -->
<g id="node2" class="node">
<title>Node2</title>
<g id="a_node2"><a xlink:href="structodp__timer__pool__param__t.html" target="_top" xlink:title="Timer pool parameters.">
<polygon fill="white" stroke="black" points="0,-67.5 0,-86.5 138,-86.5 138,-67.5 0,-67.5"/>
<text text-anchor="middle" x="69" y="-74.5" font-family="Helvetica,sans-Serif" font-size="10.00">odp_timer_pool_param_t</text>
</a>
</g>
</g>
<!-- Node2&#45;&gt;Node1 -->
<g id="edge1" class="edge">
<title>Node2&#45;&gt;Node1</title>
<path fill="none" stroke="#9a32cd" stroke-dasharray="5,2" d="M86.81,-60.36C101.36,-47.58 121.38,-29.99 133.18,-19.63"/>
<polygon fill="#9a32cd" stroke="#9a32cd" points="84.18,-58 78.98,-67.23 88.8,-63.26 84.18,-58"/>
<text text-anchor="middle" x="128.5" y="-41" font-family="Helvetica,sans-Serif" font-size="10.00"> param</text>
</g>
<!-- Node3 -->
<g id="node3" class="node">
<title>Node3</title>
<g id="a_node3"><a xlink:href="structodp__fract__u64__t.html" target="_top" xlink:title="Unsigned 64 bit fractional number.">
<polygon fill="white" stroke="black" points="94.5,-156.5 94.5,-175.5 189.5,-175.5 189.5,-156.5 94.5,-156.5"/>
<text text-anchor="middle" x="142" y="-163.5" font-family="Helvetica,sans-Serif" font-size="10.00">odp_fract_u64_t</text>
</a>
</g>
</g>
<!-- Node3&#45;&gt;Node2 -->
<g id="edge2" class="edge">
<title>Node3&#45;&gt;Node2</title>
<path fill="none" stroke="#9a32cd" stroke-dasharray="5,2" d="M123.44,-149.44C119.51,-145.84 115.5,-141.91 112,-138 96.79,-121 81.94,-98.63 74.31,-86.58"/>
<polygon fill="#9a32cd" stroke="#9a32cd" points="121.38,-152.29 131.2,-156.27 126.01,-147.04 121.38,-152.29"/>
<text text-anchor="middle" x="146" y="-119" font-family="Helvetica,sans-Serif" font-size="10.00"> base_freq_hz</text>
</g>
<!-- Node4 -->
<g id="node4" class="node">
<title>Node4</title>
<g id="a_node4"><a xlink:href="structodp__timer__tick__info__t.html" target="_top" xlink:title="Timer tick information.">
<polygon fill="white" stroke="black" points="156,-67.5 156,-86.5 278,-86.5 278,-67.5 156,-67.5"/>
<text text-anchor="middle" x="217" y="-74.5" font-family="Helvetica,sans-Serif" font-size="10.00">odp_timer_tick_info_t</text>
</a>
</g>
</g>
<!-- Node3&#45;&gt;Node4 -->
<g id="edge4" class="edge">
<title>Node3&#45;&gt;Node4</title>
<path fill="none" stroke="#9a32cd" stroke-dasharray="5,2" d="M165.28,-150.7C170.45,-146.93 175.68,-142.62 180,-138 194.89,-122.1 206.96,-99.31 212.94,-86.89"/>
<polygon fill="#9a32cd" stroke="#9a32cd" points="163.08,-147.95 156.79,-156.47 167.02,-153.74 163.08,-147.95"/>
<text text-anchor="middle" x="227.5" y="-130" font-family="Helvetica,sans-Serif" font-size="10.00"> clk_cycle</text>
<text text-anchor="middle" x="227.5" y="-119" font-family="Helvetica,sans-Serif" font-size="10.00">freq</text>
<text text-anchor="middle" x="227.5" y="-108" font-family="Helvetica,sans-Serif" font-size="10.00">nsec</text>
</g>
<!-- Node4&#45;&gt;Node1 -->
<g id="edge3" class="edge">
<title>Node4&#45;&gt;Node1</title>
<path fill="none" stroke="#9a32cd" stroke-dasharray="5,2" d="M199.19,-60.36C184.64,-47.58 164.62,-29.99 152.82,-19.63"/>
<polygon fill="#9a32cd" stroke="#9a32cd" points="197.2,-63.26 207.02,-67.23 201.82,-58 197.2,-63.26"/>
<text text-anchor="middle" x="207" y="-41" font-family="Helvetica,sans-Serif" font-size="10.00"> tick_info</text>
</g>
</g>
</svg>
