<?xml version="1.0" encoding="UTF-8" standalone="no"?>
<!DOCTYPE svg PUBLIC "-//W3C//DTD SVG 1.1//EN"
 "http://www.w3.org/Graphics/SVG/1.1/DTD/svg11.dtd">
<!-- Generated by graphviz version 2.43.0 (0)
 -->
<!-- Title: odp_ipsec_out_param_t Pages: 1 -->
<svg width="346pt" height="159pt"
 viewBox="0.00 0.00 345.50 159.00" xmlns="http://www.w3.org/2000/svg" xmlns:xlink="http://www.w3.org/1999/xlink">
<g id="graph0" class="graph" transform="scale(1 1) rotate(0) translate(4 155)">
<title>odp_ipsec_out_param_t</title>
<!-- Node1 -->
<g id="Node000001" class="node">
<title>Node1</title>
<g id="a_Node000001"><a xlink:title="IPSEC outbound operation parameters.">
<polygon fill="#999999" stroke="#666666" points="167,-19 35,-19 35,0 167,0 167,-19"/>
<text text-anchor="middle" x="101" y="-7" font-family="Helvetica,sans-Serif" font-size="10.00">odp_ipsec_out_param_t</text>
</a>
</g>
</g>
<!-- Node2 -->
<g id="Node000002" class="node">
<title>Node2</title>
<g id="a_Node000002"><a xlink:href="struct__odp__abi__ipsec__sa__t.html" target="_top" xlink:title=" ">
<polygon fill="white" stroke="#666666" points="116,-85 0,-85 0,-66 116,-66 116,-85"/>
<text text-anchor="middle" x="58" y="-73" font-family="Helvetica,sans-Serif" font-size="10.00">_odp_abi_ipsec_sa_t</text>
</a>
</g>
</g>
<!-- Node2&#45;&gt;Node1 -->
<g id="edge1_Node000001_Node000002" class="edge">
<title>Node2&#45;&gt;Node1</title>
<g id="a_edge1_Node000001_Node000002"><a xlink:title=" ">
<path fill="none" stroke="#9a32cd" stroke-dasharray="5,2" d="M69.48,-57.41C77.7,-45.18 88.44,-29.2 95.02,-19.41"/>
<polygon fill="#9a32cd" stroke="#9a32cd" points="66.47,-55.62 63.8,-65.87 72.28,-59.52 66.47,-55.62"/>
</a>
</g>
<text text-anchor="middle" x="90.5" y="-40" font-family="Helvetica,sans-Serif" font-size="10.00" fill="grey"> sa</text>
</g>
<!-- Node3 -->
<g id="Node000003" class="node">
<title>Node3</title>
<g id="a_Node000003"><a xlink:href="structodp__ipsec__out__opt__t.html" target="_top" xlink:title="IPSEC outbound operation options.">
<polygon fill="white" stroke="#666666" points="250,-85 134,-85 134,-66 250,-66 250,-85"/>
<text text-anchor="middle" x="192" y="-73" font-family="Helvetica,sans-Serif" font-size="10.00">odp_ipsec_out_opt_t</text>
</a>
</g>
</g>
<!-- Node3&#45;&gt;Node1 -->
<g id="edge2_Node000001_Node000003" class="edge">
<title>Node3&#45;&gt;Node1</title>
<g id="a_edge2_Node000001_Node000003"><a xlink:title=" ">
<path fill="none" stroke="#9a32cd" stroke-dasharray="5,2" d="M171.15,-59.83C153.3,-47.28 128.2,-29.63 113.37,-19.2"/>
<polygon fill="#9a32cd" stroke="#9a32cd" points="169.53,-62.98 179.73,-65.87 173.56,-57.25 169.53,-62.98"/>
</a>
</g>
<text text-anchor="middle" x="160.5" y="-40" font-family="Helvetica,sans-Serif" font-size="10.00" fill="grey"> opt</text>
</g>
<!-- Node4 -->
<g id="Node000004" class="node">
<title>Node4</title>
<g id="a_Node000004"><a xlink:href="structodp__ipsec__ipv4__param__t.html" target="_top" xlink:title="IPv4 header parameters.">
<polygon fill="white" stroke="#666666" points="182.5,-151 45.5,-151 45.5,-132 182.5,-132 182.5,-151"/>
<text text-anchor="middle" x="114" y="-139" font-family="Helvetica,sans-Serif" font-size="10.00">odp_ipsec_ipv4_param_t</text>
</a>
</g>
</g>
<!-- Node4&#45;&gt;Node3 -->
<g id="edge3_Node000003_Node000004" class="edge">
<title>Node4&#45;&gt;Node3</title>
<g id="a_edge3_Node000003_Node000004"><a xlink:title=" ">
<path fill="none" stroke="#9a32cd" stroke-dasharray="5,2" d="M132.3,-125.49C147.57,-112.96 168.8,-95.54 181.4,-85.2"/>
<polygon fill="#9a32cd" stroke="#9a32cd" points="130.03,-122.82 124.52,-131.87 134.47,-128.23 130.03,-122.82"/>
</a>
</g>
<text text-anchor="middle" x="169.5" y="-106" font-family="Helvetica,sans-Serif" font-size="10.00" fill="grey"> ipv4</text>
</g>
<!-- Node5 -->
<g id="Node000005" class="node">
<title>Node5</title>
<g id="a_Node000005"><a xlink:href="structodp__ipsec__ipv6__param__t.html" target="_top" xlink:title="IPv6 header parameters.">
<polygon fill="white" stroke="#666666" points="337.5,-151 200.5,-151 200.5,-132 337.5,-132 337.5,-151"/>
<text text-anchor="middle" x="269" y="-139" font-family="Helvetica,sans-Serif" font-size="10.00">odp_ipsec_ipv6_param_t</text>
</a>
</g>
</g>
<!-- Node5&#45;&gt;Node3 -->
<g id="edge4_Node000003_Node000005" class="edge">
<title>Node5&#45;&gt;Node3</title>
<g id="a_edge4_Node000003_Node000005"><a xlink:title=" ">
<path fill="none" stroke="#9a32cd" stroke-dasharray="5,2" d="M250.57,-125.18C235.62,-112.76 215.08,-95.68 202.71,-85.41"/>
<polygon fill="#9a32cd" stroke="#9a32cd" points="248.69,-128.17 258.62,-131.87 253.16,-122.78 248.69,-128.17"/>
</a>
</g>
<text text-anchor="middle" x="247.5" y="-106" font-family="Helvetica,sans-Serif" font-size="10.00" fill="grey"> ipv6</text>
</g>
</g>
</svg>
