<?xml version="1.0" encoding="UTF-8" standalone="no"?>
<!DOCTYPE svg PUBLIC "-//W3C//DTD SVG 1.1//EN"
 "http://www.w3.org/Graphics/SVG/1.1/DTD/svg11.dtd">
<!-- Generated by graphviz version 2.43.0 (0)
 -->
<!-- Title: odp_init_t Pages: 1 -->
<svg width="204pt" height="106pt"
 viewBox="0.00 0.00 203.50 106.00" xmlns="http://www.w3.org/2000/svg" xmlns:xlink="http://www.w3.org/1999/xlink">
<g id="graph0" class="graph" transform="scale(1 1) rotate(0) translate(4 102)">
<title>odp_init_t</title>
<polygon fill="white" stroke="transparent" points="-4,4 -4,-102 199.5,-102 199.5,4 -4,4"/>
<!-- Node1 -->
<g id="node1" class="node">
<title>Node1</title>
<g id="a_node1"><a xlink:title="Global initialization parameters.">
<polygon fill="#bfbfbf" stroke="black" points="67,-0.5 67,-19.5 132,-19.5 132,-0.5 67,-0.5"/>
<text text-anchor="middle" x="99.5" y="-7.5" font-family="Helvetica,sans-Serif" font-size="10.00">odp_init_t</text>
</a>
</g>
</g>
<!-- Node2 -->
<g id="node2" class="node">
<title>Node2</title>
<g id="a_node2"><a xlink:href="structodp__cpumask__t.html" target="_top" xlink:title="CPU mask.">
<polygon fill="white" stroke="black" points="0,-78.5 0,-97.5 93,-97.5 93,-78.5 0,-78.5"/>
<text text-anchor="middle" x="46.5" y="-85.5" font-family="Helvetica,sans-Serif" font-size="10.00">odp_cpumask_t</text>
</a>
</g>
</g>
<!-- Node2&#45;&gt;Node1 -->
<g id="edge1" class="edge">
<title>Node2&#45;&gt;Node1</title>
<path fill="none" stroke="#9a32cd" stroke-dasharray="5,2" d="M51.61,-68.55C54.86,-58.85 59.76,-47.13 66.5,-38 71.78,-30.86 79.36,-24.48 85.92,-19.71"/>
<polygon fill="#9a32cd" stroke="#9a32cd" points="48.18,-67.79 48.61,-78.38 54.87,-69.83 48.18,-67.79"/>
<text text-anchor="middle" x="99" y="-52" font-family="Helvetica,sans-Serif" font-size="10.00"> control_cpus</text>
<text text-anchor="middle" x="99" y="-41" font-family="Helvetica,sans-Serif" font-size="10.00">worker_cpus</text>
</g>
<!-- Node3 -->
<g id="node3" class="node">
<title>Node3</title>
<g id="a_node3"><a xlink:href="unionodp__feature__t.html" target="_top" xlink:title="Definition of ODP features.">
<polygon fill="white" stroke="black" points="111.5,-78.5 111.5,-97.5 195.5,-97.5 195.5,-78.5 111.5,-78.5"/>
<text text-anchor="middle" x="153.5" y="-85.5" font-family="Helvetica,sans-Serif" font-size="10.00">odp_feature_t</text>
</a>
</g>
</g>
<!-- Node3&#45;&gt;Node1 -->
<g id="edge2" class="edge">
<title>Node3&#45;&gt;Node1</title>
<path fill="none" stroke="#9a32cd" stroke-dasharray="5,2" d="M147.61,-68.91C143.91,-59.18 138.51,-47.3 131.5,-38 126.16,-30.92 118.64,-24.45 112.24,-19.63"/>
<polygon fill="#9a32cd" stroke="#9a32cd" points="144.33,-70.14 150.95,-78.41 150.94,-67.82 144.33,-70.14"/>
<text text-anchor="middle" x="167.5" y="-46.5" font-family="Helvetica,sans-Serif" font-size="10.00"> not_used</text>
</g>
</g>
</svg>
