<?xml version="1.0" encoding="UTF-8" standalone="no"?>
<!DOCTYPE svg PUBLIC "-//W3C//DTD SVG 1.1//EN"
 "http://www.w3.org/Graphics/SVG/1.1/DTD/svg11.dtd">
<!-- Generated by graphviz version 2.43.0 (0)
 -->
<!-- Title: odp_cls_cos_param Pages: 1 -->
<svg width="848pt" height="304pt"
 viewBox="0.00 0.00 848.00 304.00" xmlns="http://www.w3.org/2000/svg" xmlns:xlink="http://www.w3.org/1999/xlink">
<g id="graph0" class="graph" transform="scale(1 1) rotate(0) translate(4 300)">
<title>odp_cls_cos_param</title>
<polygon fill="white" stroke="transparent" points="-4,4 -4,-300 844,-300 844,4 -4,4"/>
<!-- Node1 -->
<g id="node1" class="node">
<title>Node1</title>
<g id="a_node1"><a xlink:title="Class of service parameters Used to communicate class of service creation options.">
<polygon fill="#bfbfbf" stroke="black" points="728,-141.5 728,-160.5 840,-160.5 840,-141.5 728,-141.5"/>
<text text-anchor="middle" x="784" y="-148.5" font-family="Helvetica,sans-Serif" font-size="10.00">odp_cls_cos_param</text>
</a>
</g>
</g>
<!-- Node2 -->
<g id="node2" class="node">
<title>Node2</title>
<g id="a_node2"><a xlink:href="structodp__red__param__t.html" target="_top" xlink:title="Random Early Detection (RED) Random Early Detection is enabled to initiate a drop probability for the...">
<polygon fill="white" stroke="black" points="490,-275.5 490,-294.5 591,-294.5 591,-275.5 490,-275.5"/>
<text text-anchor="middle" x="540.5" y="-282.5" font-family="Helvetica,sans-Serif" font-size="10.00">odp_red_param_t</text>
</a>
</g>
</g>
<!-- Node2&#45;&gt;Node1 -->
<g id="edge1" class="edge">
<title>Node2&#45;&gt;Node1</title>
<path fill="none" stroke="#9a32cd" stroke-dasharray="5,2" d="M601.56,-287.22C635.72,-285.8 677.94,-279.31 710,-259 748.23,-234.77 771.28,-182.48 779.54,-160.77"/>
<polygon fill="#9a32cd" stroke="#9a32cd" points="601.14,-283.73 591.24,-287.5 601.33,-290.72 601.14,-283.73"/>
<text text-anchor="middle" x="667.5" y="-288" font-family="Helvetica,sans-Serif" font-size="10.00"> red</text>
</g>
<!-- Node3 -->
<g id="node3" class="node">
<title>Node3</title>
<g id="a_node3"><a xlink:href="structodp__threshold__t.html" target="_top" xlink:title="ODP Threshold.">
<polygon fill="white" stroke="black" points="177.5,-256.5 177.5,-275.5 272.5,-275.5 272.5,-256.5 177.5,-256.5"/>
<text text-anchor="middle" x="225" y="-263.5" font-family="Helvetica,sans-Serif" font-size="10.00">odp_threshold_t</text>
</a>
</g>
</g>
<!-- Node3&#45;&gt;Node2 -->
<g id="edge2" class="edge">
<title>Node3&#45;&gt;Node2</title>
<path fill="none" stroke="#9a32cd" stroke-dasharray="5,2" d="M282.87,-269.45C341.97,-273.03 433.51,-278.58 489.8,-281.99"/>
<polygon fill="#9a32cd" stroke="#9a32cd" points="282.79,-265.94 272.6,-268.82 282.37,-272.92 282.79,-265.94"/>
<text text-anchor="middle" x="384" y="-282" font-family="Helvetica,sans-Serif" font-size="10.00"> threshold</text>
</g>
<!-- Node12 -->
<g id="node12" class="node">
<title>Node12</title>
<g id="a_node12"><a xlink:href="structodp__bp__param__t.html" target="_top" xlink:title="Back pressure (BP)">
<polygon fill="white" stroke="black" points="491.5,-237.5 491.5,-256.5 589.5,-256.5 589.5,-237.5 491.5,-237.5"/>
<text text-anchor="middle" x="540.5" y="-244.5" font-family="Helvetica,sans-Serif" font-size="10.00">odp_bp_param_t</text>
</a>
</g>
</g>
<!-- Node3&#45;&gt;Node12 -->
<g id="edge14" class="edge">
<title>Node3&#45;&gt;Node12</title>
<path fill="none" stroke="#9a32cd" stroke-dasharray="5,2" d="M282.8,-258.78C292.53,-257.72 302.55,-256.74 312,-256 373.67,-251.2 444.96,-248.91 491.06,-247.85"/>
<polygon fill="#9a32cd" stroke="#9a32cd" points="282.35,-255.3 272.8,-259.9 283.13,-262.26 282.35,-255.3"/>
<text text-anchor="middle" x="384" y="-259" font-family="Helvetica,sans-Serif" font-size="10.00"> threshold</text>
</g>
<!-- Node4 -->
<g id="node4" class="node">
<title>Node4</title>
<g id="a_node4"><a xlink:href="structodp__queue__param__t.html" target="_top" xlink:title="ODP Queue parameters.">
<polygon fill="white" stroke="black" points="482.5,-161.5 482.5,-180.5 598.5,-180.5 598.5,-161.5 482.5,-161.5"/>
<text text-anchor="middle" x="540.5" y="-168.5" font-family="Helvetica,sans-Serif" font-size="10.00">odp_queue_param_t</text>
</a>
</g>
</g>
<!-- Node4&#45;&gt;Node1 -->
<g id="edge3" class="edge">
<title>Node4&#45;&gt;Node1</title>
<path fill="none" stroke="#9a32cd" stroke-dasharray="5,2" d="M609.06,-165.41C646.53,-162.3 692.55,-158.49 727.84,-155.57"/>
<polygon fill="#9a32cd" stroke="#9a32cd" points="608.41,-161.95 598.73,-166.26 608.99,-168.92 608.41,-161.95"/>
<text text-anchor="middle" x="667.5" y="-166" font-family="Helvetica,sans-Serif" font-size="10.00"> queue_param</text>
</g>
<!-- Node5 -->
<g id="node5" class="node">
<title>Node5</title>
<g id="a_node5"><a xlink:href="structodp__event__aggr__config__t.html" target="_top" xlink:title="Event vector configuration.">
<polygon fill="white" stroke="black" points="156,-161.5 156,-180.5 294,-180.5 294,-161.5 156,-161.5"/>
<text text-anchor="middle" x="225" y="-168.5" font-family="Helvetica,sans-Serif" font-size="10.00">odp_event_aggr_config_t</text>
</a>
</g>
</g>
<!-- Node5&#45;&gt;Node4 -->
<g id="edge4" class="edge">
<title>Node5&#45;&gt;Node4</title>
<path fill="none" stroke="#9a32cd" stroke-dasharray="5,2" d="M304.14,-171C359.47,-171 432.44,-171 482.37,-171"/>
<polygon fill="#9a32cd" stroke="#9a32cd" points="304.02,-167.5 294.02,-171 304.02,-174.5 304.02,-167.5"/>
<text text-anchor="middle" x="384" y="-174" font-family="Helvetica,sans-Serif" font-size="10.00"> aggr</text>
</g>
<!-- Node6 -->
<g id="node6" class="node">
<title>Node6</title>
<g id="a_node6"><a xlink:href="struct__odp__abi__pool__t.html" target="_top" xlink:title=" ">
<polygon fill="white" stroke="black" points="0,-161.5 0,-180.5 95,-180.5 95,-161.5 0,-161.5"/>
<text text-anchor="middle" x="47.5" y="-168.5" font-family="Helvetica,sans-Serif" font-size="10.00">_odp_abi_pool_t</text>
</a>
</g>
</g>
<!-- Node6&#45;&gt;Node1 -->
<g id="edge7" class="edge">
<title>Node6&#45;&gt;Node1</title>
<path fill="none" stroke="#9a32cd" stroke-dasharray="5,2" d="M95.34,-182.68C101.26,-183.92 107.26,-185.07 113,-186 131.95,-189.07 136.83,-189.11 156,-190 356.23,-199.29 406.89,-201.62 607,-190 653.01,-187.33 665.18,-188.74 710,-178 727.74,-173.75 747.07,-166.47 761.38,-160.55"/>
<polygon fill="#9a32cd" stroke="#9a32cd" points="96.02,-179.24 85.51,-180.51 94.52,-186.08 96.02,-179.24"/>
<text text-anchor="middle" x="384" y="-200" font-family="Helvetica,sans-Serif" font-size="10.00"> pool</text>
</g>
<!-- Node6&#45;&gt;Node5 -->
<g id="edge5" class="edge">
<title>Node6&#45;&gt;Node5</title>
<path fill="none" stroke="#9a32cd" stroke-dasharray="5,2" d="M105.37,-171C121.43,-171 139.07,-171 155.73,-171"/>
<polygon fill="#9a32cd" stroke="#9a32cd" points="105.07,-167.5 95.07,-171 105.07,-174.5 105.07,-167.5"/>
<text text-anchor="middle" x="125.5" y="-174" font-family="Helvetica,sans-Serif" font-size="10.00"> pool</text>
</g>
<!-- Node11 -->
<g id="node11" class="node">
<title>Node11</title>
<g id="a_node11"><a xlink:href="structodp__pktin__vector__config__t.html" target="_top" xlink:title="Packet input vector configuration.">
<polygon fill="white" stroke="black" points="312,-87.5 312,-106.5 456,-106.5 456,-87.5 312,-87.5"/>
<text text-anchor="middle" x="384" y="-94.5" font-family="Helvetica,sans-Serif" font-size="10.00">odp_pktin_vector_config_t</text>
</a>
</g>
</g>
<!-- Node6&#45;&gt;Node11 -->
<g id="edge12" class="edge">
<title>Node6&#45;&gt;Node11</title>
<path fill="none" stroke="#9a32cd" stroke-dasharray="5,2" d="M70.43,-155.87C91.38,-142.29 124.35,-123.14 156,-114 206.78,-99.33 266.46,-95.35 311.88,-94.89"/>
<polygon fill="#9a32cd" stroke="#9a32cd" points="68.37,-153.04 61.97,-161.48 72.24,-158.87 68.37,-153.04"/>
<text text-anchor="middle" x="125.5" y="-133" font-family="Helvetica,sans-Serif" font-size="10.00"> pool</text>
</g>
<!-- Node7 -->
<g id="node7" class="node">
<title>Node7</title>
<g id="a_node7"><a xlink:href="structodp__schedule__param__t.html" target="_top" xlink:title="Scheduler parameters.">
<polygon fill="white" stroke="black" points="160.5,-123.5 160.5,-142.5 289.5,-142.5 289.5,-123.5 160.5,-123.5"/>
<text text-anchor="middle" x="225" y="-130.5" font-family="Helvetica,sans-Serif" font-size="10.00">odp_schedule_param_t</text>
</a>
</g>
</g>
<!-- Node7&#45;&gt;Node4 -->
<g id="edge6" class="edge">
<title>Node7&#45;&gt;Node4</title>
<path fill="none" stroke="#9a32cd" stroke-dasharray="5,2" d="M299.63,-138.89C344.85,-142.87 403.9,-148.73 456,-156 467.09,-157.55 478.95,-159.5 490.15,-161.48"/>
<polygon fill="#9a32cd" stroke="#9a32cd" points="299.88,-135.4 289.61,-138.02 299.27,-142.37 299.88,-135.4"/>
<text text-anchor="middle" x="384" y="-159" font-family="Helvetica,sans-Serif" font-size="10.00"> sched</text>
</g>
<!-- Node8 -->
<g id="node8" class="node">
<title>Node8</title>
<g id="a_node8"><a xlink:href="struct__odp__abi__queue__t.html" target="_top" xlink:title=" ">
<polygon fill="white" stroke="black" points="488.5,-76.5 488.5,-95.5 592.5,-95.5 592.5,-76.5 488.5,-76.5"/>
<text text-anchor="middle" x="540.5" y="-83.5" font-family="Helvetica,sans-Serif" font-size="10.00">_odp_abi_queue_t</text>
</a>
</g>
</g>
<!-- Node8&#45;&gt;Node1 -->
<g id="edge8" class="edge">
<title>Node8&#45;&gt;Node1</title>
<path fill="none" stroke="#9a32cd" stroke-dasharray="5,2" d="M602.8,-87.5C635.39,-89.81 675.69,-95.12 710,-107 733.21,-115.03 757.02,-131.15 770.88,-141.49"/>
<polygon fill="#9a32cd" stroke="#9a32cd" points="602.71,-83.99 592.51,-86.85 602.27,-90.98 602.71,-83.99"/>
<text text-anchor="middle" x="667.5" y="-110" font-family="Helvetica,sans-Serif" font-size="10.00"> queue</text>
</g>
<!-- Node9 -->
<g id="node9" class="node">
<title>Node9</title>
<g id="a_node9"><a xlink:href="unionodp__pktin__hash__proto__t.html" target="_top" xlink:title="Packet input hash protocols.">
<polygon fill="white" stroke="black" points="474,-38.5 474,-57.5 607,-57.5 607,-38.5 474,-38.5"/>
<text text-anchor="middle" x="540.5" y="-45.5" font-family="Helvetica,sans-Serif" font-size="10.00">odp_pktin_hash_proto_t</text>
</a>
</g>
</g>
<!-- Node9&#45;&gt;Node1 -->
<g id="edge9" class="edge">
<title>Node9&#45;&gt;Node1</title>
<path fill="none" stroke="#9a32cd" stroke-dasharray="5,2" d="M617.45,-49.82C647.64,-53.12 681.82,-60.25 710,-75 740.64,-91.04 765.82,-124.82 776.91,-141.4"/>
<polygon fill="#9a32cd" stroke="#9a32cd" points="617.67,-46.32 607.38,-48.84 616.99,-53.29 617.67,-46.32"/>
<text text-anchor="middle" x="667.5" y="-78" font-family="Helvetica,sans-Serif" font-size="10.00"> hash_proto</text>
</g>
<!-- Node10 -->
<g id="node10" class="node">
<title>Node10</title>
<g id="a_node10"><a xlink:href="structodp__aggr__enq__profile__t.html" target="_top" xlink:title="Event aggregator enqueuing profile.">
<polygon fill="white" stroke="black" points="475.5,-0.5 475.5,-19.5 605.5,-19.5 605.5,-0.5 475.5,-0.5"/>
<text text-anchor="middle" x="540.5" y="-7.5" font-family="Helvetica,sans-Serif" font-size="10.00">odp_aggr_enq_profile_t</text>
</a>
</g>
</g>
<!-- Node10&#45;&gt;Node1 -->
<g id="edge10" class="edge">
<title>Node10&#45;&gt;Node1</title>
<path fill="none" stroke="#9a32cd" stroke-dasharray="5,2" d="M615.6,-8.24C646.89,-10.68 682.39,-17.95 710,-36 749.98,-62.14 772.32,-118.63 779.96,-141.3"/>
<polygon fill="#9a32cd" stroke="#9a32cd" points="615.8,-4.74 605.6,-7.61 615.36,-11.73 615.8,-4.74"/>
<text text-anchor="middle" x="667.5" y="-39" font-family="Helvetica,sans-Serif" font-size="10.00"> aggr_enq_profile</text>
</g>
<!-- Node11&#45;&gt;Node1 -->
<g id="edge11" class="edge">
<title>Node11&#45;&gt;Node1</title>
<path fill="none" stroke="#9a32cd" stroke-dasharray="5,2" d="M465.51,-107.92C543.55,-118.51 659.82,-134.29 727.87,-143.52"/>
<polygon fill="#9a32cd" stroke="#9a32cd" points="465.62,-104.41 455.24,-106.53 464.68,-111.34 465.62,-104.41"/>
<text text-anchor="middle" x="540.5" y="-129" font-family="Helvetica,sans-Serif" font-size="10.00"> vector</text>
</g>
<!-- Node12&#45;&gt;Node1 -->
<g id="edge13" class="edge">
<title>Node12&#45;&gt;Node1</title>
<path fill="none" stroke="#9a32cd" stroke-dasharray="5,2" d="M599.76,-247.12C633.49,-245.1 675.89,-238.88 710,-222 739.47,-207.42 764.65,-176.55 776.22,-160.75"/>
<polygon fill="#9a32cd" stroke="#9a32cd" points="599.41,-243.63 589.59,-247.62 599.75,-250.63 599.41,-243.63"/>
<text text-anchor="middle" x="667.5" y="-247" font-family="Helvetica,sans-Serif" font-size="10.00"> bp</text>
</g>
</g>
</svg>
