<?xml version="1.0" encoding="UTF-8" standalone="no"?>
<!DOCTYPE svg PUBLIC "-//W3C//DTD SVG 1.1//EN"
 "http://www.w3.org/Graphics/SVG/1.1/DTD/svg11.dtd">
<!-- Generated by graphviz version 2.43.0 (0)
 -->
<!-- Title: odp_ipsec_capability_t Pages: 1 -->
<svg width="399pt" height="249pt"
 viewBox="0.00 0.00 399.00 249.00" xmlns="http://www.w3.org/2000/svg" xmlns:xlink="http://www.w3.org/1999/xlink">
<g id="graph0" class="graph" transform="scale(1 1) rotate(0) translate(4 245)">
<title>odp_ipsec_capability_t</title>
<!-- Node1 -->
<g id="Node000001" class="node">
<title>Node1</title>
<g id="a_Node000001"><a xlink:title="IPSEC capability.">
<polygon fill="#999999" stroke="#666666" points="391,-130 263,-130 263,-111 391,-111 391,-130"/>
<text text-anchor="middle" x="327" y="-118" font-family="Helvetica,sans-Serif" font-size="10.00">odp_ipsec_capability_t</text>
</a>
</g>
</g>
<!-- Node2 -->
<g id="Node000002" class="node">
<title>Node2</title>
<g id="a_Node000002"><a xlink:href="structodp__ipsec__out__op__capability__t.html" target="_top" xlink:title="Capabilities regarding IPsec outbound operation parameters.">
<polygon fill="white" stroke="#666666" points="166,-241 0,-241 0,-222 166,-222 166,-241"/>
<text text-anchor="middle" x="83" y="-229" font-family="Helvetica,sans-Serif" font-size="10.00">odp_ipsec_out_op_capability_t</text>
</a>
</g>
</g>
<!-- Node2&#45;&gt;Node1 -->
<g id="edge1_Node000001_Node000002" class="edge">
<title>Node2&#45;&gt;Node1</title>
<g id="a_edge1_Node000001_Node000002"><a xlink:title=" ">
<path fill="none" stroke="#9a32cd" stroke-dasharray="5,2" d="M161.74,-219.85C189.16,-213.67 219.5,-204.37 245,-190.5 275.04,-174.16 303.74,-145.15 317.51,-130.12"/>
<polygon fill="#9a32cd" stroke="#9a32cd" points="160.82,-216.46 151.78,-221.99 162.29,-223.31 160.82,-216.46"/>
</a>
</g>
<text text-anchor="middle" x="214.5" y="-216.5" font-family="Helvetica,sans-Serif" font-size="10.00" fill="grey"> out_op</text>
</g>
<!-- Node3 -->
<g id="Node000003" class="node">
<title>Node3</title>
<g id="a_Node000003"><a xlink:href="unionodp__proto__chksums__t.html" target="_top" xlink:title="Flags to control packet data checksum checking.">
<polygon fill="white" stroke="#666666" points="144.5,-204 21.5,-204 21.5,-185 144.5,-185 144.5,-204"/>
<text text-anchor="middle" x="83" y="-192" font-family="Helvetica,sans-Serif" font-size="10.00">odp_proto_chksums_t</text>
</a>
</g>
</g>
<!-- Node3&#45;&gt;Node1 -->
<g id="edge2_Node000001_Node000003" class="edge">
<title>Node3&#45;&gt;Node1</title>
<g id="a_edge2_Node000001_Node000003"><a xlink:title=" ">
<path fill="none" stroke="#9a32cd" stroke-dasharray="5,2" d="M151.22,-182.95C180.45,-177.04 214.84,-168.88 245,-158.5 267.62,-150.72 292.34,-138.55 308.44,-130.08"/>
<polygon fill="#9a32cd" stroke="#9a32cd" points="150.24,-179.57 141.11,-184.94 151.6,-186.44 150.24,-179.57"/>
</a>
</g>
<text text-anchor="middle" x="214.5" y="-178.5" font-family="Helvetica,sans-Serif" font-size="10.00" fill="grey"> chksums_in</text>
</g>
<!-- Node4 -->
<g id="Node000004" class="node">
<title>Node4</title>
<g id="a_Node000004"><a xlink:href="structodp__pktin__vector__capability__t.html" target="_top" xlink:title="Packet input vector capabilities.">
<polygon fill="white" stroke="#666666" points="164.5,-167 1.5,-167 1.5,-148 164.5,-148 164.5,-167"/>
<text text-anchor="middle" x="83" y="-155" font-family="Helvetica,sans-Serif" font-size="10.00">odp_pktin_vector_capability_t</text>
</a>
</g>
</g>
<!-- Node4&#45;&gt;Node1 -->
<g id="edge3_Node000001_Node000004" class="edge">
<title>Node4&#45;&gt;Node1</title>
<g id="a_edge3_Node000001_Node000004"><a xlink:title=" ">
<path fill="none" stroke="#9a32cd" stroke-dasharray="5,2" d="M169.06,-146.64C193.6,-143.3 220.4,-139.46 245,-135.5 255.17,-133.86 266.02,-131.96 276.37,-130.07"/>
<polygon fill="#9a32cd" stroke="#9a32cd" points="168.5,-143.19 159.06,-147.99 169.44,-150.12 168.5,-143.19"/>
</a>
</g>
<text text-anchor="middle" x="214.5" y="-146.5" font-family="Helvetica,sans-Serif" font-size="10.00" fill="grey"> vector</text>
</g>
<!-- Node5 -->
<g id="Node000005" class="node">
<title>Node5</title>
<g id="a_Node000005"><a xlink:href="unionodp__crypto__cipher__algos__t.html" target="_top" xlink:title="Cipher algorithms in a bit field structure.">
<polygon fill="white" stroke="#666666" points="156,-130 10,-130 10,-111 156,-111 156,-130"/>
<text text-anchor="middle" x="83" y="-118" font-family="Helvetica,sans-Serif" font-size="10.00">odp_crypto_cipher_algos_t</text>
</a>
</g>
</g>
<!-- Node5&#45;&gt;Node1 -->
<g id="edge4_Node000001_Node000005" class="edge">
<title>Node5&#45;&gt;Node1</title>
<g id="a_edge4_Node000001_Node000005"><a xlink:title=" ">
<path fill="none" stroke="#9a32cd" stroke-dasharray="5,2" d="M166.36,-120.5C197.86,-120.5 233.26,-120.5 262.71,-120.5"/>
<polygon fill="#9a32cd" stroke="#9a32cd" points="166.28,-117 156.28,-120.5 166.28,-124 166.28,-117"/>
</a>
</g>
<text text-anchor="middle" x="214.5" y="-123.5" font-family="Helvetica,sans-Serif" font-size="10.00" fill="grey"> ciphers</text>
</g>
<!-- Node6 -->
<g id="Node000006" class="node">
<title>Node6</title>
<g id="a_Node000006"><a xlink:href="unionodp__crypto__auth__algos__t.html" target="_top" xlink:title="Authentication algorithms in a bit field structure.">
<polygon fill="white" stroke="#666666" points="152,-93 14,-93 14,-74 152,-74 152,-93"/>
<text text-anchor="middle" x="83" y="-81" font-family="Helvetica,sans-Serif" font-size="10.00">odp_crypto_auth_algos_t</text>
</a>
</g>
</g>
<!-- Node6&#45;&gt;Node1 -->
<g id="edge5_Node000001_Node000006" class="edge">
<title>Node6&#45;&gt;Node1</title>
<g id="a_edge5_Node000001_Node000006"><a xlink:title=" ">
<path fill="none" stroke="#9a32cd" stroke-dasharray="5,2" d="M162.19,-93.43C188.54,-96.97 218.08,-101.17 245,-105.5 255.17,-107.14 266.02,-109.04 276.37,-110.93"/>
<polygon fill="#9a32cd" stroke="#9a32cd" points="162.64,-89.96 152.26,-92.1 161.71,-96.89 162.64,-89.96"/>
</a>
</g>
<text text-anchor="middle" x="214.5" y="-108.5" font-family="Helvetica,sans-Serif" font-size="10.00" fill="grey"> auths</text>
</g>
<!-- Node7 -->
<g id="Node000007" class="node">
<title>Node7</title>
<g id="a_Node000007"><a xlink:href="structodp__ipsec__test__capability__t.html" target="_top" xlink:title="IPSEC TEST capability.">
<polygon fill="white" stroke="#666666" points="159,-56 7,-56 7,-37 159,-37 159,-56"/>
<text text-anchor="middle" x="83" y="-44" font-family="Helvetica,sans-Serif" font-size="10.00">odp_ipsec_test_capability_t</text>
</a>
</g>
</g>
<!-- Node7&#45;&gt;Node1 -->
<g id="edge6_Node000001_Node000007" class="edge">
<title>Node7&#45;&gt;Node1</title>
<g id="a_edge6_Node000001_Node000007"><a xlink:title=" ">
<path fill="none" stroke="#9a32cd" stroke-dasharray="5,2" d="M153.73,-57.95C182.42,-63.61 215.72,-71.43 245,-81.5 268.02,-89.42 293.07,-102.17 309.12,-110.92"/>
<polygon fill="#9a32cd" stroke="#9a32cd" points="154.27,-54.49 143.79,-56.04 152.95,-61.37 154.27,-54.49"/>
</a>
</g>
<text text-anchor="middle" x="214.5" y="-84.5" font-family="Helvetica,sans-Serif" font-size="10.00" fill="grey"> test</text>
</g>
<!-- Node8 -->
<g id="Node000008" class="node">
<title>Node8</title>
<g id="a_Node000008"><a xlink:href="structodp__reass__capability__t.html" target="_top" xlink:title="Reassembly capabilities.">
<polygon fill="white" stroke="#666666" points="147,-19 19,-19 19,0 147,0 147,-19"/>
<text text-anchor="middle" x="83" y="-7" font-family="Helvetica,sans-Serif" font-size="10.00">odp_reass_capability_t</text>
</a>
</g>
</g>
<!-- Node8&#45;&gt;Node1 -->
<g id="edge7_Node000001_Node000008" class="edge">
<title>Node8&#45;&gt;Node1</title>
<g id="a_edge7_Node000001_Node000008"><a xlink:title=" ">
<path fill="none" stroke="#9a32cd" stroke-dasharray="5,2" d="M157.3,-19.28C185.83,-25.09 218.06,-34.23 245,-48.5 275.92,-64.89 304.67,-95.47 318.08,-110.97"/>
<polygon fill="#9a32cd" stroke="#9a32cd" points="157.87,-15.82 147.38,-17.36 156.54,-22.69 157.87,-15.82"/>
</a>
</g>
<text text-anchor="middle" x="214.5" y="-51.5" font-family="Helvetica,sans-Serif" font-size="10.00" fill="grey"> reassembly</text>
</g>
</g>
</svg>
