<?xml version="1.0" encoding="UTF-8" standalone="no"?>
<!DOCTYPE svg PUBLIC "-//W3C//DTD SVG 1.1//EN"
 "http://www.w3.org/Graphics/SVG/1.1/DTD/svg11.dtd">
<!-- Generated by graphviz version 2.43.0 (0)
 -->
<!-- Title: odp_pktio_info_t Pages: 1 -->
<svg width="232pt" height="93pt"
 viewBox="0.00 0.00 231.50 93.00" xmlns="http://www.w3.org/2000/svg" xmlns:xlink="http://www.w3.org/1999/xlink">
<g id="graph0" class="graph" transform="scale(1 1) rotate(0) translate(4 89)">
<title>odp_pktio_info_t</title>
<!-- Node1 -->
<g id="Node000001" class="node">
<title>Node1</title>
<g id="a_Node000001"><a xlink:title="Packet IO information.">
<polygon fill="#999999" stroke="#666666" points="156.5,-19 58.5,-19 58.5,0 156.5,0 156.5,-19"/>
<text text-anchor="middle" x="107.5" y="-7" font-family="Helvetica,sans-Serif" font-size="10.00">odp_pktio_info_t</text>
</a>
</g>
</g>
<!-- Node2 -->
<g id="Node000002" class="node">
<title>Node2</title>
<g id="a_Node000002"><a xlink:href="struct__odp__abi__pool__t.html" target="_top" xlink:title=" ">
<polygon fill="white" stroke="#666666" points="95,-85 0,-85 0,-66 95,-66 95,-85"/>
<text text-anchor="middle" x="47.5" y="-73" font-family="Helvetica,sans-Serif" font-size="10.00">_odp_abi_pool_t</text>
</a>
</g>
</g>
<!-- Node2&#45;&gt;Node1 -->
<g id="edge1_Node000001_Node000002" class="edge">
<title>Node2&#45;&gt;Node1</title>
<g id="a_edge1_Node000001_Node000002"><a xlink:title=" ">
<path fill="none" stroke="#9a32cd" stroke-dasharray="5,2" d="M62.52,-58.48C74.1,-46.12 89.7,-29.49 99.15,-19.41"/>
<polygon fill="#9a32cd" stroke="#9a32cd" points="59.88,-56.18 55.59,-65.87 64.98,-60.97 59.88,-56.18"/>
</a>
</g>
<text text-anchor="middle" x="94" y="-40" font-family="Helvetica,sans-Serif" font-size="10.00" fill="grey"> pool</text>
</g>
<!-- Node3 -->
<g id="Node000003" class="node">
<title>Node3</title>
<g id="a_Node000003"><a xlink:href="structodp__pktio__param__t.html" target="_top" xlink:title="Packet IO parameters.">
<polygon fill="white" stroke="#666666" points="223.5,-85 113.5,-85 113.5,-66 223.5,-66 223.5,-85"/>
<text text-anchor="middle" x="168.5" y="-73" font-family="Helvetica,sans-Serif" font-size="10.00">odp_pktio_param_t</text>
</a>
</g>
</g>
<!-- Node3&#45;&gt;Node1 -->
<g id="edge2_Node000001_Node000003" class="edge">
<title>Node3&#45;&gt;Node1</title>
<g id="a_edge2_Node000001_Node000003"><a xlink:title=" ">
<path fill="none" stroke="#9a32cd" stroke-dasharray="5,2" d="M153.23,-58.48C141.45,-46.12 125.6,-29.49 115.99,-19.41"/>
<polygon fill="#9a32cd" stroke="#9a32cd" points="150.84,-61.04 160.27,-65.87 155.91,-56.22 150.84,-61.04"/>
</a>
</g>
<text text-anchor="middle" x="159" y="-40" font-family="Helvetica,sans-Serif" font-size="10.00" fill="grey"> param</text>
</g>
</g>
</svg>
