<?xml version="1.0" encoding="UTF-8" standalone="no"?>
<!DOCTYPE svg PUBLIC "-//W3C//DTD SVG 1.1//EN"
 "http://www.w3.org/Graphics/SVG/1.1/DTD/svg11.dtd">
<!-- Generated by graphviz version 2.43.0 (0)
 -->
<!-- Title: odp_queue_capability_t Pages: 1 -->
<svg width="262pt" height="159pt"
 viewBox="0.00 0.00 261.50 159.00" xmlns="http://www.w3.org/2000/svg" xmlns:xlink="http://www.w3.org/1999/xlink">
<g id="graph0" class="graph" transform="scale(1 1) rotate(0) translate(4 155)">
<title>odp_queue_capability_t</title>
<!-- Node1 -->
<g id="Node000001" class="node">
<title>Node1</title>
<g id="a_Node000001"><a xlink:title="Queue capabilities.">
<polygon fill="#999999" stroke="#666666" points="132,-19 0,-19 0,0 132,0 132,-19"/>
<text text-anchor="middle" x="66" y="-7" font-family="Helvetica,sans-Serif" font-size="10.00">odp_queue_capability_t</text>
</a>
</g>
</g>
<!-- Node2 -->
<g id="Node000002" class="node">
<title>Node2</title>
<g id="a_Node000002"><a xlink:href="unionodp__queue__stats__opt__t.html" target="_top" xlink:title="Queue statistics counters options.">
<polygon fill="white" stroke="#666666" points="130.5,-151 1.5,-151 1.5,-132 130.5,-132 130.5,-151"/>
<text text-anchor="middle" x="66" y="-139" font-family="Helvetica,sans-Serif" font-size="10.00">odp_queue_stats_opt_t</text>
</a>
</g>
</g>
<!-- Node2&#45;&gt;Node1 -->
<g id="edge1_Node000001_Node000002" class="edge">
<title>Node2&#45;&gt;Node1</title>
<g id="a_edge1_Node000001_Node000002"><a xlink:title=" ">
<path fill="none" stroke="#9a32cd" stroke-dasharray="5,2" d="M62.6,-121.73C60.28,-106.68 57.81,-85.01 59,-66 60.05,-49.33 62.85,-30.01 64.57,-19.12"/>
<polygon fill="#9a32cd" stroke="#9a32cd" points="59.19,-122.51 64.29,-131.8 66.09,-121.36 59.19,-122.51"/>
</a>
</g>
<text text-anchor="middle" x="73" y="-73" font-family="Helvetica,sans-Serif" font-size="10.00" fill="grey"> stats</text>
</g>
<!-- Node3 -->
<g id="Node000003" class="node">
<title>Node3</title>
<g id="a_Node000003"><a xlink:href="structodp__event__aggr__capability__t.html" target="_top" xlink:title="Event aggregator capabilities.">
<polygon fill="white" stroke="#666666" points="253.5,-85 96.5,-85 96.5,-66 253.5,-66 253.5,-85"/>
<text text-anchor="middle" x="175" y="-73" font-family="Helvetica,sans-Serif" font-size="10.00">odp_event_aggr_capability_t</text>
</a>
</g>
</g>
<!-- Node2&#45;&gt;Node3 -->
<g id="edge3_Node000003_Node000002" class="edge">
<title>Node2&#45;&gt;Node3</title>
<g id="a_edge3_Node000003_Node000002"><a xlink:title=" ">
<path fill="none" stroke="#9a32cd" stroke-dasharray="5,2" d="M89.52,-126.69C110.97,-114.09 142.01,-95.87 160.18,-85.2"/>
<polygon fill="#9a32cd" stroke="#9a32cd" points="87.55,-123.79 80.7,-131.87 91.1,-129.82 87.55,-123.79"/>
</a>
</g>
<text text-anchor="middle" x="141" y="-106" font-family="Helvetica,sans-Serif" font-size="10.00" fill="grey"> stats</text>
</g>
<!-- Node3&#45;&gt;Node1 -->
<g id="edge2_Node000001_Node000003" class="edge">
<title>Node3&#45;&gt;Node1</title>
<g id="a_edge2_Node000001_Node000003"><a xlink:title=" ">
<path fill="none" stroke="#9a32cd" stroke-dasharray="5,2" d="M151.48,-60.69C130.03,-48.09 98.99,-29.87 80.82,-19.2"/>
<polygon fill="#9a32cd" stroke="#9a32cd" points="149.9,-63.82 160.3,-65.87 153.45,-57.79 149.9,-63.82"/>
</a>
</g>
<text text-anchor="middle" x="139.5" y="-40" font-family="Helvetica,sans-Serif" font-size="10.00" fill="grey"> aggr</text>
</g>
</g>
</svg>
