<?xml version="1.0" encoding="UTF-8" standalone="no"?>
<!DOCTYPE svg PUBLIC "-//W3C//DTD SVG 1.1//EN"
 "http://www.w3.org/Graphics/SVG/1.1/DTD/svg11.dtd">
<!-- Generated by graphviz version 2.40.1 (20161225.0304)
 -->
<!-- Title: odp_init_t Pages: 1 -->
<svg width="204pt" height="106pt"
 viewBox="0.00 0.00 203.50 106.00" xmlns="http://www.w3.org/2000/svg" xmlns:xlink="http://www.w3.org/1999/xlink">
<g id="graph0" class="graph" transform="scale(1 1) rotate(0) translate(4 102)">
<title>odp_init_t</title>
<polygon fill="#ffffff" stroke="transparent" points="-4,4 -4,-102 199.5,-102 199.5,4 -4,4"/>
<!-- Node1 -->
<g id="node1" class="node">
<title>Node1</title>
<polygon fill="#bfbfbf" stroke="#000000" points="67,-.5 67,-19.5 132,-19.5 132,-.5 67,-.5"/>
<text text-anchor="middle" x="99.5" y="-7.5" font-family="Helvetica,sans-Serif" font-size="10.00" fill="#000000">odp_init_t</text>
</g>
<!-- Node2 -->
<g id="node2" class="node">
<title>Node2</title>
<g id="a_node2"><a xlink:href="structodp__cpumask__t.html" target="_top" xlink:title="CPU mask. ">
<polygon fill="#ffffff" stroke="#000000" points="0,-78.5 0,-97.5 93,-97.5 93,-78.5 0,-78.5"/>
<text text-anchor="middle" x="46.5" y="-85.5" font-family="Helvetica,sans-Serif" font-size="10.00" fill="#000000">odp_cpumask_t</text>
</a>
</g>
</g>
<!-- Node2&#45;&gt;Node1 -->
<g id="edge1" class="edge">
<title>Node2&#45;&gt;Node1</title>
<path fill="none" stroke="#9a32cd" stroke-dasharray="5,2" d="M51.7334,-68.8303C54.9899,-59.029 59.8421,-47.2505 66.5,-38 71.5914,-30.926 78.8443,-24.5138 85.2546,-19.616"/>
<polygon fill="#9a32cd" stroke="#9a32cd" points="48.3609,-67.8913 48.8161,-78.4764 55.0612,-69.9177 48.3609,-67.8913"/>
<text text-anchor="middle" x="99" y="-52" font-family="Helvetica,sans-Serif" font-size="10.00" fill="#000000"> control_cpus</text>
<text text-anchor="middle" x="99" y="-41" font-family="Helvetica,sans-Serif" font-size="10.00" fill="#000000">worker_cpus</text>
</g>
<!-- Node3 -->
<g id="node3" class="node">
<title>Node3</title>
<g id="a_node3"><a xlink:href="unionodp__feature__t.html" target="_top" xlink:title="Definition of ODP features. ">
<polygon fill="#ffffff" stroke="#000000" points="111.5,-78.5 111.5,-97.5 195.5,-97.5 195.5,-78.5 111.5,-78.5"/>
<text text-anchor="middle" x="153.5" y="-85.5" font-family="Helvetica,sans-Serif" font-size="10.00" fill="#000000">odp_feature_t</text>
</a>
</g>
</g>
<!-- Node3&#45;&gt;Node1 -->
<g id="edge2" class="edge">
<title>Node3&#45;&gt;Node1</title>
<path fill="none" stroke="#9a32cd" stroke-dasharray="5,2" d="M147.2122,-68.5326C143.5276,-58.818 138.259,-47.2074 131.5,-38 126.3453,-30.9781 119.1438,-24.4805 112.8775,-19.5158"/>
<polygon fill="#9a32cd" stroke="#9a32cd" points="143.9663,-69.8529 150.5843,-78.1265 150.5703,-67.5317 143.9663,-69.8529"/>
<text text-anchor="middle" x="166.5" y="-46.5" font-family="Helvetica,sans-Serif" font-size="10.00" fill="#000000"> not_used</text>
</g>
</g>
</svg>
