<?xml version="1.0" encoding="UTF-8" standalone="no"?>
<!DOCTYPE svg PUBLIC "-//W3C//DTD SVG 1.1//EN"
 "http://www.w3.org/Graphics/SVG/1.1/DTD/svg11.dtd">
<!-- Generated by graphviz version 2.40.1 (20161225.0304)
 -->
<!-- Title: odp_comp_capability_t Pages: 1 -->
<svg width="270pt" height="95pt"
 viewBox="0.00 0.00 269.50 95.00" xmlns="http://www.w3.org/2000/svg" xmlns:xlink="http://www.w3.org/1999/xlink">
<g id="graph0" class="graph" transform="scale(1 1) rotate(0) translate(4 91)">
<title>odp_comp_capability_t</title>
<polygon fill="#ffffff" stroke="transparent" points="-4,4 -4,-91 265.5,-91 265.5,4 -4,4"/>
<!-- Node1 -->
<g id="node1" class="node">
<title>Node1</title>
<polygon fill="#bfbfbf" stroke="#000000" points="59,-.5 59,-19.5 188,-19.5 188,-.5 59,-.5"/>
<text text-anchor="middle" x="123.5" y="-7.5" font-family="Helvetica,sans-Serif" font-size="10.00" fill="#000000">odp_comp_capability_t</text>
</g>
<!-- Node2 -->
<g id="node2" class="node">
<title>Node2</title>
<g id="a_node2"><a xlink:href="unionodp__comp__algos__t.html" target="_top" xlink:title="Compression algorithms in a bit field structure. ">
<polygon fill="#ffffff" stroke="#000000" points="0,-67.5 0,-86.5 107,-86.5 107,-67.5 0,-67.5"/>
<text text-anchor="middle" x="53.5" y="-74.5" font-family="Helvetica,sans-Serif" font-size="10.00" fill="#000000">odp_comp_algos_t</text>
</a>
</g>
</g>
<!-- Node2&#45;&gt;Node1 -->
<g id="edge1" class="edge">
<title>Node2&#45;&gt;Node1</title>
<path fill="none" stroke="#9a32cd" stroke-dasharray="5,2" d="M70.8014,-60.44C84.2291,-47.5879 102.3733,-30.2212 113.4893,-19.5817"/>
<polygon fill="#9a32cd" stroke="#9a32cd" points="68.3334,-57.9575 63.5293,-67.4005 73.1736,-63.0144 68.3334,-57.9575"/>
<text text-anchor="middle" x="124.5" y="-41" font-family="Helvetica,sans-Serif" font-size="10.00" fill="#000000"> comp_algos</text>
</g>
<!-- Node3 -->
<g id="node3" class="node">
<title>Node3</title>
<g id="a_node3"><a xlink:href="unionodp__comp__hash__algos__t.html" target="_top" xlink:title="Hash algorithms in a bit field structure. ">
<polygon fill="#ffffff" stroke="#000000" points="125.5,-67.5 125.5,-86.5 261.5,-86.5 261.5,-67.5 125.5,-67.5"/>
<text text-anchor="middle" x="193.5" y="-74.5" font-family="Helvetica,sans-Serif" font-size="10.00" fill="#000000">odp_comp_hash_algos_t</text>
</a>
</g>
</g>
<!-- Node3&#45;&gt;Node1 -->
<g id="edge2" class="edge">
<title>Node3&#45;&gt;Node1</title>
<path fill="none" stroke="#9a32cd" stroke-dasharray="5,2" d="M179.1981,-59.156C173.3665,-52.2743 166.3838,-44.5089 159.5,-38 152.481,-31.3633 143.976,-24.693 136.9954,-19.5285"/>
<polygon fill="#9a32cd" stroke="#9a32cd" points="176.8082,-61.7584 185.8752,-67.2392 182.205,-57.3004 176.8082,-61.7584"/>
<text text-anchor="middle" x="197.5" y="-41" font-family="Helvetica,sans-Serif" font-size="10.00" fill="#000000"> hash_algos</text>
</g>
</g>
</svg>
