<?xml version="1.0" encoding="UTF-8" standalone="no"?>
<!DOCTYPE svg PUBLIC "-//W3C//DTD SVG 1.1//EN"
 "http://www.w3.org/Graphics/SVG/1.1/DTD/svg11.dtd">
<!-- Generated by graphviz version 2.43.0 (0)
 -->
<!-- Title: odp_pool_info_t Pages: 1 -->
<svg width="595pt" height="169pt"
 viewBox="0.00 0.00 595.00 169.00" xmlns="http://www.w3.org/2000/svg" xmlns:xlink="http://www.w3.org/1999/xlink">
<g id="graph0" class="graph" transform="scale(1 1) rotate(0) translate(4 165)">
<title>odp_pool_info_t</title>
<!-- Node1 -->
<g id="Node000001" class="node">
<title>Node1</title>
<g id="a_Node000001"><a xlink:title="Pool information struct Used to get information about a pool.">
<polygon fill="#999999" stroke="#666666" points="587,-73 493,-73 493,-54 587,-54 587,-73"/>
<text text-anchor="middle" x="540" y="-61" font-family="Helvetica,sans-Serif" font-size="10.00">odp_pool_info_t</text>
</a>
</g>
</g>
<!-- Node2 -->
<g id="Node000002" class="node">
<title>Node2</title>
<g id="a_Node000002"><a xlink:href="structodp__pool__param__t.html" target="_top" xlink:title="Pool parameters.">
<polygon fill="white" stroke="#666666" points="342.5,-130 235.5,-130 235.5,-111 342.5,-111 342.5,-130"/>
<text text-anchor="middle" x="289" y="-118" font-family="Helvetica,sans-Serif" font-size="10.00">odp_pool_param_t</text>
</a>
</g>
</g>
<!-- Node2&#45;&gt;Node1 -->
<g id="edge1_Node000001_Node000002" class="edge">
<title>Node2&#45;&gt;Node1</title>
<g id="a_edge1_Node000001_Node000002"><a xlink:title=" ">
<path fill="none" stroke="#9a32cd" stroke-dasharray="5,2" d="M352.45,-113.51C388.67,-108.6 434.9,-100.85 475,-89.5 490,-85.25 506.27,-78.61 518.65,-73.11"/>
<polygon fill="#9a32cd" stroke="#9a32cd" points="351.97,-110.05 342.51,-114.83 352.88,-116.99 351.97,-110.05"/>
</a>
</g>
<text text-anchor="middle" x="431" y="-110.5" font-family="Helvetica,sans-Serif" font-size="10.00" fill="grey"> params</text>
</g>
<!-- Node3 -->
<g id="Node000003" class="node">
<title>Node3</title>
<g id="a_Node000003"><a xlink:href="structodp__pool__pkt__subparam__t.html" target="_top" xlink:title="Packet pool subparameters.">
<polygon fill="white" stroke="#666666" points="145,-161 0,-161 0,-142 145,-142 145,-161"/>
<text text-anchor="middle" x="72.5" y="-149" font-family="Helvetica,sans-Serif" font-size="10.00">odp_pool_pkt_subparam_t</text>
</a>
</g>
</g>
<!-- Node3&#45;&gt;Node2 -->
<g id="edge2_Node000002_Node000003" class="edge">
<title>Node3&#45;&gt;Node2</title>
<g id="a_edge2_Node000002_Node000003"><a xlink:title=" ">
<path fill="none" stroke="#9a32cd" stroke-dasharray="5,2" d="M149.22,-140.56C177.65,-136.45 209.33,-131.87 235.23,-128.13"/>
<polygon fill="#9a32cd" stroke="#9a32cd" points="148.71,-137.09 139.31,-141.99 149.71,-144.02 148.71,-137.09"/>
</a>
</g>
<text text-anchor="middle" x="177" y="-140.5" font-family="Helvetica,sans-Serif" font-size="10.00" fill="grey"> sub</text>
</g>
<!-- Node4 -->
<g id="Node000004" class="node">
<title>Node4</title>
<g id="a_Node000004"><a xlink:href="unionodp__pool__stats__opt__t.html" target="_top" xlink:title="Pool statistics counters options.">
<polygon fill="white" stroke="#666666" points="132.5,-109 12.5,-109 12.5,-90 132.5,-90 132.5,-109"/>
<text text-anchor="middle" x="72.5" y="-97" font-family="Helvetica,sans-Serif" font-size="10.00">odp_pool_stats_opt_t</text>
</a>
</g>
</g>
<!-- Node4&#45;&gt;Node2 -->
<g id="edge3_Node000002_Node000004" class="edge">
<title>Node4&#45;&gt;Node2</title>
<g id="a_edge3_Node000002_Node000004"><a xlink:title=" ">
<path fill="none" stroke="#9a32cd" stroke-dasharray="5,2" d="M142.67,-106.27C172.71,-109.21 207.32,-112.6 235.23,-115.33"/>
<polygon fill="#9a32cd" stroke="#9a32cd" points="142.97,-102.79 132.68,-105.29 142.29,-109.75 142.97,-102.79"/>
</a>
</g>
<text text-anchor="middle" x="177" y="-113.5" font-family="Helvetica,sans-Serif" font-size="10.00" fill="grey"> stats</text>
</g>
<!-- Node5 -->
<g id="Node000005" class="node">
<title>Node5</title>
<g id="a_Node000005"><a xlink:href="structodp__pool__ext__param__t.html" target="_top" xlink:title="External memory pool parameters.">
<polygon fill="white" stroke="#666666" points="353,-93 225,-93 225,-74 353,-74 353,-93"/>
<text text-anchor="middle" x="289" y="-81" font-family="Helvetica,sans-Serif" font-size="10.00">odp_pool_ext_param_t</text>
</a>
</g>
</g>
<!-- Node4&#45;&gt;Node5 -->
<g id="edge5_Node000005_Node000004" class="edge">
<title>Node4&#45;&gt;Node5</title>
<g id="a_edge5_Node000005_Node000004"><a xlink:title=" ">
<path fill="none" stroke="#9a32cd" stroke-dasharray="5,2" d="M131.82,-88.36C142.17,-86.77 152.88,-85.38 163,-84.5 183.11,-82.75 205.1,-82.13 224.96,-82.07"/>
<polygon fill="#9a32cd" stroke="#9a32cd" points="130.95,-84.96 121.63,-90 132.06,-91.87 130.95,-84.96"/>
</a>
</g>
<text text-anchor="middle" x="177" y="-87.5" font-family="Helvetica,sans-Serif" font-size="10.00" fill="grey"> stats</text>
</g>
<!-- Node5&#45;&gt;Node1 -->
<g id="edge4_Node000001_Node000005" class="edge">
<title>Node5&#45;&gt;Node1</title>
<g id="a_edge4_Node000001_Node000005"><a xlink:title=" ">
<path fill="none" stroke="#9a32cd" stroke-dasharray="5,2" d="M363.32,-77.61C405.22,-74.25 456.5,-70.13 492.81,-67.21"/>
<polygon fill="#9a32cd" stroke="#9a32cd" points="362.84,-74.14 353.16,-78.43 363.4,-81.12 362.84,-74.14"/>
</a>
</g>
<text text-anchor="middle" x="431" y="-77.5" font-family="Helvetica,sans-Serif" font-size="10.00" fill="grey"> pool_ext_param</text>
</g>
<!-- Node6 -->
<g id="Node000006" class="node">
<title>Node6</title>
<g id="a_Node000006"><a xlink:href="structodp__dma__pool__param__t.html" target="_top" xlink:title="DMA completion event pool parameters.">
<polygon fill="white" stroke="#666666" points="356,-56 222,-56 222,-37 356,-37 356,-56"/>
<text text-anchor="middle" x="289" y="-44" font-family="Helvetica,sans-Serif" font-size="10.00">odp_dma_pool_param_t</text>
</a>
</g>
</g>
<!-- Node6&#45;&gt;Node1 -->
<g id="edge6_Node000001_Node000006" class="edge">
<title>Node6&#45;&gt;Node1</title>
<g id="a_edge6_Node000001_Node000006"><a xlink:title=" ">
<path fill="none" stroke="#9a32cd" stroke-dasharray="5,2" d="M366.33,-43.58C399.79,-43.26 439.46,-44.2 475,-48.5 484.63,-49.67 494.92,-51.71 504.37,-53.92"/>
<polygon fill="#9a32cd" stroke="#9a32cd" points="366.11,-40.08 356.16,-43.71 366.2,-47.08 366.11,-40.08"/>
</a>
</g>
<text text-anchor="middle" x="431" y="-51.5" font-family="Helvetica,sans-Serif" font-size="10.00" fill="grey"> dma_pool_param</text>
</g>
<!-- Node7 -->
<g id="Node000007" class="node">
<title>Node7</title>
<g id="a_Node000007"><a xlink:href="structodp__ml__compl__pool__param__t.html" target="_top" xlink:title="ML completion event pool parameters.">
<polygon fill="white" stroke="#666666" points="369,-19 209,-19 209,0 369,0 369,-19"/>
<text text-anchor="middle" x="289" y="-7" font-family="Helvetica,sans-Serif" font-size="10.00">odp_ml_compl_pool_param_t</text>
</a>
</g>
</g>
<!-- Node7&#45;&gt;Node1 -->
<g id="edge7_Node000001_Node000007" class="edge">
<title>Node7&#45;&gt;Node1</title>
<g id="a_edge7_Node000001_Node000007"><a xlink:title=" ">
<path fill="none" stroke="#9a32cd" stroke-dasharray="5,2" d="M379.48,-12.3C410.27,-15.06 444.62,-20.17 475,-29.5 493.16,-35.08 512.16,-45.91 524.7,-53.85"/>
<polygon fill="#9a32cd" stroke="#9a32cd" points="379.45,-8.78 369.19,-11.45 378.87,-15.76 379.45,-8.78"/>
</a>
</g>
<text text-anchor="middle" x="431" y="-32.5" font-family="Helvetica,sans-Serif" font-size="10.00" fill="grey"> ml_pool_param</text>
</g>
</g>
</svg>
