<?xml version="1.0" encoding="UTF-8" standalone="no"?>
<!DOCTYPE svg PUBLIC "-//W3C//DTD SVG 1.1//EN"
 "http://www.w3.org/Graphics/SVG/1.1/DTD/svg11.dtd">
<!-- Generated by graphviz version 2.40.1 (20161225.0304)
 -->
<!-- Title: odp_crypto_capability_t Pages: 1 -->
<svg width="310pt" height="106pt"
 viewBox="0.00 0.00 310.00 106.00" xmlns="http://www.w3.org/2000/svg" xmlns:xlink="http://www.w3.org/1999/xlink">
<g id="graph0" class="graph" transform="scale(1 1) rotate(0) translate(4 102)">
<title>odp_crypto_capability_t</title>
<polygon fill="#ffffff" stroke="transparent" points="-4,4 -4,-102 306,-102 306,4 -4,4"/>
<!-- Node1 -->
<g id="node1" class="node">
<title>Node1</title>
<polygon fill="#bfbfbf" stroke="#000000" points="86.5,-.5 86.5,-19.5 219.5,-19.5 219.5,-.5 86.5,-.5"/>
<text text-anchor="middle" x="153" y="-7.5" font-family="Helvetica,sans-Serif" font-size="10.00" fill="#000000">odp_crypto_capability_t</text>
</g>
<!-- Node2 -->
<g id="node2" class="node">
<title>Node2</title>
<g id="a_node2"><a xlink:href="unionodp__crypto__cipher__algos__t.html" target="_top" xlink:title="Cipher algorithms in a bit field structure. ">
<polygon fill="#ffffff" stroke="#000000" points="0,-78.5 0,-97.5 146,-97.5 146,-78.5 0,-78.5"/>
<text text-anchor="middle" x="73" y="-85.5" font-family="Helvetica,sans-Serif" font-size="10.00" fill="#000000">odp_crypto_cipher_algos_t</text>
</a>
</g>
</g>
<!-- Node2&#45;&gt;Node1 -->
<g id="edge1" class="edge">
<title>Node2&#45;&gt;Node1</title>
<path fill="none" stroke="#9a32cd" stroke-dasharray="5,2" d="M90.0501,-71.3762C106.1931,-55.6367 129.8729,-32.5489 143.1102,-19.6426"/>
<polygon fill="#9a32cd" stroke="#9a32cd" points="87.5262,-68.9486 82.8096,-78.4357 92.413,-73.9606 87.5262,-68.9486"/>
<text text-anchor="middle" x="152" y="-52" font-family="Helvetica,sans-Serif" font-size="10.00" fill="#000000"> hw_ciphers</text>
<text text-anchor="middle" x="152" y="-41" font-family="Helvetica,sans-Serif" font-size="10.00" fill="#000000">ciphers</text>
</g>
<!-- Node3 -->
<g id="node3" class="node">
<title>Node3</title>
<g id="a_node3"><a xlink:href="unionodp__crypto__auth__algos__t.html" target="_top" xlink:title="Authentication algorithms in a bit field structure. ">
<polygon fill="#ffffff" stroke="#000000" points="164,-78.5 164,-97.5 302,-97.5 302,-78.5 164,-78.5"/>
<text text-anchor="middle" x="233" y="-85.5" font-family="Helvetica,sans-Serif" font-size="10.00" fill="#000000">odp_crypto_auth_algos_t</text>
</a>
</g>
</g>
<!-- Node3&#45;&gt;Node1 -->
<g id="edge2" class="edge">
<title>Node3&#45;&gt;Node1</title>
<path fill="none" stroke="#9a32cd" stroke-dasharray="5,2" d="M217.0432,-70.6451C207.8702,-60.8564 196.0145,-48.5174 185,-38 178.3797,-31.6784 170.665,-24.9116 164.4693,-19.6139"/>
<polygon fill="#9a32cd" stroke="#9a32cd" points="214.6681,-73.2308 224.0402,-78.1719 219.795,-68.4647 214.6681,-73.2308"/>
<text text-anchor="middle" x="231" y="-52" font-family="Helvetica,sans-Serif" font-size="10.00" fill="#000000"> hw_auths</text>
<text text-anchor="middle" x="231" y="-41" font-family="Helvetica,sans-Serif" font-size="10.00" fill="#000000">auths</text>
</g>
</g>
</svg>
