<?xml version="1.0" encoding="UTF-8" standalone="no"?>
<!DOCTYPE svg PUBLIC "-//W3C//DTD SVG 1.1//EN"
 "http://www.w3.org/Graphics/SVG/1.1/DTD/svg11.dtd">
<!-- Generated by graphviz version 2.43.0 (0)
 -->
<!-- Title: odp_pktin_queue_param_t Pages: 1 -->
<svg width="892pt" height="160pt"
 viewBox="0.00 0.00 892.00 159.50" xmlns="http://www.w3.org/2000/svg" xmlns:xlink="http://www.w3.org/1999/xlink">
<g id="graph0" class="graph" transform="scale(1 1) rotate(0) translate(4 155.5)">
<title>odp_pktin_queue_param_t</title>
<!-- Node1 -->
<g id="Node000001" class="node">
<title>Node1</title>
<g id="a_Node000001"><a xlink:title="Packet input queue parameters.">
<polygon fill="#999999" stroke="#666666" points="884,-94.5 738,-94.5 738,-75.5 884,-75.5 884,-94.5"/>
<text text-anchor="middle" x="811" y="-82.5" font-family="Helvetica,sans-Serif" font-size="10.00">odp_pktin_queue_param_t</text>
</a>
</g>
</g>
<!-- Node2 -->
<g id="Node000002" class="node">
<title>Node2</title>
<g id="a_Node000002"><a xlink:href="unionodp__pktin__hash__proto__t.html" target="_top" xlink:title="Packet input hash protocols.">
<polygon fill="white" stroke="#666666" points="609,-151.5 476,-151.5 476,-132.5 609,-132.5 609,-151.5"/>
<text text-anchor="middle" x="542.5" y="-139.5" font-family="Helvetica,sans-Serif" font-size="10.00">odp_pktin_hash_proto_t</text>
</a>
</g>
</g>
<!-- Node2&#45;&gt;Node1 -->
<g id="edge1_Node000001_Node000002" class="edge">
<title>Node2&#45;&gt;Node1</title>
<g id="a_edge1_Node000001_Node000002"><a xlink:title=" ">
<path fill="none" stroke="#9a32cd" stroke-dasharray="5,2" d="M619.3,-131.91C650.66,-127.12 687.28,-120.74 720,-113 741.34,-107.95 765,-100.52 782.7,-94.58"/>
<polygon fill="#9a32cd" stroke="#9a32cd" points="618.68,-128.46 609.31,-133.4 619.72,-135.38 618.68,-128.46"/>
</a>
</g>
<text text-anchor="middle" x="674.5" y="-133" font-family="Helvetica,sans-Serif" font-size="10.00" fill="grey"> hash_proto</text>
</g>
<!-- Node3 -->
<g id="Node000003" class="node">
<title>Node3</title>
<g id="a_Node000003"><a xlink:href="structodp__queue__param__t.html" target="_top" xlink:title="ODP Queue parameters.">
<polygon fill="white" stroke="#666666" points="600.5,-114.5 484.5,-114.5 484.5,-95.5 600.5,-95.5 600.5,-114.5"/>
<text text-anchor="middle" x="542.5" y="-102.5" font-family="Helvetica,sans-Serif" font-size="10.00">odp_queue_param_t</text>
</a>
</g>
</g>
<!-- Node3&#45;&gt;Node1 -->
<g id="edge2_Node000001_Node000003" class="edge">
<title>Node3&#45;&gt;Node1</title>
<g id="a_edge2_Node000001_Node000003"><a xlink:title=" ">
<path fill="none" stroke="#9a32cd" stroke-dasharray="5,2" d="M610.8,-99.95C649.51,-97.04 698.15,-93.39 737.68,-90.43"/>
<polygon fill="#9a32cd" stroke="#9a32cd" points="610.38,-96.47 600.67,-100.71 610.9,-103.45 610.38,-96.47"/>
</a>
</g>
<text text-anchor="middle" x="674.5" y="-101" font-family="Helvetica,sans-Serif" font-size="10.00" fill="grey"> queue_param</text>
</g>
<!-- Node4 -->
<g id="Node000004" class="node">
<title>Node4</title>
<g id="a_Node000004"><a xlink:href="structodp__schedule__param__t.html" target="_top" xlink:title="Scheduler parameters.">
<polygon fill="white" stroke="#666666" points="289.5,-150.5 160.5,-150.5 160.5,-131.5 289.5,-131.5 289.5,-150.5"/>
<text text-anchor="middle" x="225" y="-138.5" font-family="Helvetica,sans-Serif" font-size="10.00">odp_schedule_param_t</text>
</a>
</g>
</g>
<!-- Node4&#45;&gt;Node3 -->
<g id="edge3_Node000003_Node000004" class="edge">
<title>Node4&#45;&gt;Node3</title>
<g id="a_edge3_Node000003_Node000004"><a xlink:title=" ">
<path fill="none" stroke="#9a32cd" stroke-dasharray="5,2" d="M299.6,-135.22C344.8,-131.36 403.85,-125.76 456,-119 465.99,-117.71 476.61,-116.13 486.85,-114.51"/>
<polygon fill="#9a32cd" stroke="#9a32cd" points="299.25,-131.74 289.58,-136.07 299.84,-138.71 299.25,-131.74"/>
</a>
</g>
<text text-anchor="middle" x="384" y="-136" font-family="Helvetica,sans-Serif" font-size="10.00" fill="grey"> sched</text>
</g>
<!-- Node5 -->
<g id="Node000005" class="node">
<title>Node5</title>
<g id="a_Node000005"><a xlink:href="structodp__event__aggr__config__t.html" target="_top" xlink:title="Event vector configuration.">
<polygon fill="white" stroke="#666666" points="294,-113.5 156,-113.5 156,-94.5 294,-94.5 294,-113.5"/>
<text text-anchor="middle" x="225" y="-101.5" font-family="Helvetica,sans-Serif" font-size="10.00">odp_event_aggr_config_t</text>
</a>
</g>
</g>
<!-- Node5&#45;&gt;Node3 -->
<g id="edge4_Node000003_Node000005" class="edge">
<title>Node5&#45;&gt;Node3</title>
<g id="a_edge4_Node000003_Node000005"><a xlink:title=" ">
<path fill="none" stroke="#9a32cd" stroke-dasharray="5,2" d="M304.28,-104.25C360.15,-104.43 434.01,-104.66 484.37,-104.82"/>
<polygon fill="#9a32cd" stroke="#9a32cd" points="304.08,-100.75 294.07,-104.22 304.06,-107.75 304.08,-100.75"/>
</a>
</g>
<text text-anchor="middle" x="384" y="-107" font-family="Helvetica,sans-Serif" font-size="10.00" fill="grey"> aggr</text>
</g>
<!-- Node6 -->
<g id="Node000006" class="node">
<title>Node6</title>
<g id="a_Node000006"><a xlink:href="struct__odp__abi__pool__t.html" target="_top" xlink:title=" ">
<polygon fill="white" stroke="#666666" points="95,-92.5 0,-92.5 0,-73.5 95,-73.5 95,-92.5"/>
<text text-anchor="middle" x="47.5" y="-80.5" font-family="Helvetica,sans-Serif" font-size="10.00">_odp_abi_pool_t</text>
</a>
</g>
</g>
<!-- Node6&#45;&gt;Node5 -->
<g id="edge5_Node000005_Node000006" class="edge">
<title>Node6&#45;&gt;Node5</title>
<g id="a_edge5_Node000005_Node000006"><a xlink:title=" ">
<path fill="none" stroke="#9a32cd" stroke-dasharray="5,2" d="M105.37,-89.8C121.43,-91.73 139.07,-93.84 155.73,-95.83"/>
<polygon fill="#9a32cd" stroke="#9a32cd" points="105.42,-86.29 95.07,-88.57 104.58,-93.24 105.42,-86.29"/>
</a>
</g>
<text text-anchor="middle" x="125.5" y="-96" font-family="Helvetica,sans-Serif" font-size="10.00" fill="grey"> pool</text>
</g>
<!-- Node8 -->
<g id="Node000008" class="node">
<title>Node8</title>
<g id="a_Node000008"><a xlink:href="structodp__pktin__vector__config__t.html" target="_top" xlink:title="Packet input vector configuration.">
<polygon fill="white" stroke="#666666" points="456,-75.5 312,-75.5 312,-56.5 456,-56.5 456,-75.5"/>
<text text-anchor="middle" x="384" y="-63.5" font-family="Helvetica,sans-Serif" font-size="10.00">odp_pktin_vector_config_t</text>
</a>
</g>
</g>
<!-- Node6&#45;&gt;Node8 -->
<g id="edge8_Node000008_Node000006" class="edge">
<title>Node6&#45;&gt;Node8</title>
<g id="a_edge8_Node000008_Node000006"><a xlink:title=" ">
<path fill="none" stroke="#9a32cd" stroke-dasharray="5,2" d="M105.35,-76.61C107.93,-76.39 110.49,-76.18 113,-76 180.37,-71.1 257.38,-68.55 311.86,-67.26"/>
<polygon fill="#9a32cd" stroke="#9a32cd" points="104.96,-73.13 95.32,-77.52 105.6,-80.1 104.96,-73.13"/>
</a>
</g>
<text text-anchor="middle" x="125.5" y="-79" font-family="Helvetica,sans-Serif" font-size="10.00" fill="grey"> pool</text>
</g>
<!-- Node7 -->
<g id="Node000007" class="node">
<title>Node7</title>
<g id="a_Node000007"><a xlink:href="structodp__pktin__queue__param__ovr__t.html" target="_top" xlink:title="Packet input queue parameters override.">
<polygon fill="white" stroke="#666666" points="611,-30 474,-30 474,0 611,0 611,-30"/>
<text text-anchor="start" x="482" y="-18" font-family="Helvetica,sans-Serif" font-size="10.00">odp_pktin_queue_param</text>
<text text-anchor="middle" x="542.5" y="-7" font-family="Helvetica,sans-Serif" font-size="10.00">_ovr_t</text>
</a>
</g>
</g>
<!-- Node7&#45;&gt;Node1 -->
<g id="edge6_Node000001_Node000007" class="edge">
<title>Node7&#45;&gt;Node1</title>
<g id="a_edge6_Node000001_Node000007"><a xlink:title=" ">
<path fill="none" stroke="#9a32cd" stroke-dasharray="5,2" d="M621.16,-21.21C652.36,-25.05 688.37,-31.2 720,-41 747.41,-49.49 776.88,-65.32 794.36,-75.49"/>
<polygon fill="#9a32cd" stroke="#9a32cd" points="621.55,-17.73 611.21,-20.04 620.74,-24.68 621.55,-17.73"/>
</a>
</g>
<text text-anchor="middle" x="674.5" y="-44" font-family="Helvetica,sans-Serif" font-size="10.00" fill="grey"> queue_param_ovr</text>
</g>
<!-- Node8&#45;&gt;Node1 -->
<g id="edge7_Node000001_Node000008" class="edge">
<title>Node8&#45;&gt;Node1</title>
<g id="a_edge7_Node000001_Node000008"><a xlink:title=" ">
<path fill="none" stroke="#9a32cd" stroke-dasharray="5,2" d="M466.38,-69.58C509.38,-71.48 563.05,-73.86 611,-76 652.98,-77.88 699.93,-80 737.69,-81.71"/>
<polygon fill="#9a32cd" stroke="#9a32cd" points="466.4,-66.08 456.25,-69.13 466.09,-73.07 466.4,-66.08"/>
</a>
</g>
<text text-anchor="middle" x="542.5" y="-79" font-family="Helvetica,sans-Serif" font-size="10.00" fill="grey"> vector</text>
</g>
</g>
</svg>
