<?xml version="1.0" encoding="UTF-8" standalone="no"?>
<!DOCTYPE svg PUBLIC "-//W3C//DTD SVG 1.1//EN"
 "http://www.w3.org/Graphics/SVG/1.1/DTD/svg11.dtd">
<!-- Generated by graphviz version 2.43.0 (0)
 -->
<!-- Title: odp_crypto_capability_t Pages: 1 -->
<svg width="310pt" height="104pt"
 viewBox="0.00 0.00 310.00 104.00" xmlns="http://www.w3.org/2000/svg" xmlns:xlink="http://www.w3.org/1999/xlink">
<g id="graph0" class="graph" transform="scale(1 1) rotate(0) translate(4 100)">
<title>odp_crypto_capability_t</title>
<!-- Node1 -->
<g id="Node000001" class="node">
<title>Node1</title>
<g id="a_Node000001"><a xlink:title="Crypto capabilities.">
<polygon fill="#999999" stroke="#666666" points="219.5,-19 86.5,-19 86.5,0 219.5,0 219.5,-19"/>
<text text-anchor="middle" x="153" y="-7" font-family="Helvetica,sans-Serif" font-size="10.00">odp_crypto_capability_t</text>
</a>
</g>
</g>
<!-- Node2 -->
<g id="Node000002" class="node">
<title>Node2</title>
<g id="a_Node000002"><a xlink:href="unionodp__crypto__cipher__algos__t.html" target="_top" xlink:title="Cipher algorithms in a bit field structure.">
<polygon fill="white" stroke="#666666" points="146,-96 0,-96 0,-77 146,-77 146,-96"/>
<text text-anchor="middle" x="73" y="-84" font-family="Helvetica,sans-Serif" font-size="10.00">odp_crypto_cipher_algos_t</text>
</a>
</g>
</g>
<!-- Node2&#45;&gt;Node1 -->
<g id="edge1_Node000001_Node000002" class="edge">
<title>Node2&#45;&gt;Node1</title>
<g id="a_edge1_Node000001_Node000002"><a xlink:title=" ">
<path fill="none" stroke="#9a32cd" stroke-dasharray="5,2" d="M89.52,-70.01C106.01,-54.55 130.73,-31.38 143.93,-19"/>
<polygon fill="#9a32cd" stroke="#9a32cd" points="87.08,-67.5 82.18,-76.9 91.87,-72.61 87.08,-67.5"/>
</a>
</g>
<text text-anchor="middle" x="150.5" y="-51" font-family="Helvetica,sans-Serif" font-size="10.00" fill="grey"> ciphers</text>
<text text-anchor="middle" x="150.5" y="-40" font-family="Helvetica,sans-Serif" font-size="10.00" fill="grey">hw_ciphers</text>
</g>
<!-- Node3 -->
<g id="Node000003" class="node">
<title>Node3</title>
<g id="a_Node000003"><a xlink:href="unionodp__crypto__auth__algos__t.html" target="_top" xlink:title="Authentication algorithms in a bit field structure.">
<polygon fill="white" stroke="#666666" points="302,-96 164,-96 164,-77 302,-77 302,-96"/>
<text text-anchor="middle" x="233" y="-84" font-family="Helvetica,sans-Serif" font-size="10.00">odp_crypto_auth_algos_t</text>
</a>
</g>
</g>
<!-- Node3&#45;&gt;Node1 -->
<g id="edge2_Node000001_Node000003" class="edge">
<title>Node3&#45;&gt;Node1</title>
<g id="a_edge2_Node000001_Node000003"><a xlink:title=" ">
<path fill="none" stroke="#9a32cd" stroke-dasharray="5,2" d="M216.77,-69.91C206.79,-60.36 193.71,-47.91 182,-37 175.51,-30.95 168.14,-24.22 162.45,-19.05"/>
<polygon fill="#9a32cd" stroke="#9a32cd" points="214.38,-72.47 224.02,-76.86 219.23,-67.41 214.38,-72.47"/>
</a>
</g>
<text text-anchor="middle" x="227.5" y="-51" font-family="Helvetica,sans-Serif" font-size="10.00" fill="grey"> auths</text>
<text text-anchor="middle" x="227.5" y="-40" font-family="Helvetica,sans-Serif" font-size="10.00" fill="grey">hw_auths</text>
</g>
</g>
</svg>
