<?xml version="1.0" encoding="UTF-8" standalone="no"?>
<!DOCTYPE svg PUBLIC "-//W3C//DTD SVG 1.1//EN"
 "http://www.w3.org/Graphics/SVG/1.1/DTD/svg11.dtd">
<!-- Generated by graphviz version 2.43.0 (0)
 -->
<!-- Title: odp_ipsec_status_t Pages: 1 -->
<svg width="246pt" height="93pt"
 viewBox="0.00 0.00 246.00 93.00" xmlns="http://www.w3.org/2000/svg" xmlns:xlink="http://www.w3.org/1999/xlink">
<g id="graph0" class="graph" transform="scale(1 1) rotate(0) translate(4 89)">
<title>odp_ipsec_status_t</title>
<!-- Node1 -->
<g id="Node000001" class="node">
<title>Node1</title>
<g id="a_Node000001"><a xlink:title="IPSEC status content.">
<polygon fill="#999999" stroke="#666666" points="177,-19 67,-19 67,0 177,0 177,-19"/>
<text text-anchor="middle" x="122" y="-7" font-family="Helvetica,sans-Serif" font-size="10.00">odp_ipsec_status_t</text>
</a>
</g>
</g>
<!-- Node2 -->
<g id="Node000002" class="node">
<title>Node2</title>
<g id="a_Node000002"><a xlink:href="struct__odp__abi__ipsec__sa__t.html" target="_top" xlink:title=" ">
<polygon fill="white" stroke="#666666" points="116,-85 0,-85 0,-66 116,-66 116,-85"/>
<text text-anchor="middle" x="58" y="-73" font-family="Helvetica,sans-Serif" font-size="10.00">_odp_abi_ipsec_sa_t</text>
</a>
</g>
</g>
<!-- Node2&#45;&gt;Node1 -->
<g id="edge1_Node000001_Node000002" class="edge">
<title>Node2&#45;&gt;Node1</title>
<g id="a_edge1_Node000001_Node000002"><a xlink:title=" ">
<path fill="none" stroke="#9a32cd" stroke-dasharray="5,2" d="M74.02,-58.48C86.38,-46.12 103.01,-29.49 113.09,-19.41"/>
<polygon fill="#9a32cd" stroke="#9a32cd" points="71.23,-56.32 66.63,-65.87 76.18,-61.27 71.23,-56.32"/>
</a>
</g>
<text text-anchor="middle" x="101.5" y="-40" font-family="Helvetica,sans-Serif" font-size="10.00" fill="grey"> sa</text>
</g>
<!-- Node3 -->
<g id="Node000003" class="node">
<title>Node3</title>
<g id="a_Node000003"><a xlink:href="structodp__ipsec__warn__t.html" target="_top" xlink:title="IPSEC warnings.">
<polygon fill="white" stroke="#666666" points="238,-85 134,-85 134,-66 238,-66 238,-85"/>
<text text-anchor="middle" x="186" y="-73" font-family="Helvetica,sans-Serif" font-size="10.00">odp_ipsec_warn_t</text>
</a>
</g>
</g>
<!-- Node3&#45;&gt;Node1 -->
<g id="edge2_Node000001_Node000003" class="edge">
<title>Node3&#45;&gt;Node1</title>
<g id="a_edge2_Node000001_Node000003"><a xlink:title=" ">
<path fill="none" stroke="#9a32cd" stroke-dasharray="5,2" d="M169.98,-58.48C157.62,-46.12 140.99,-29.49 130.91,-19.41"/>
<polygon fill="#9a32cd" stroke="#9a32cd" points="167.82,-61.27 177.37,-65.87 172.77,-56.32 167.82,-61.27"/>
</a>
</g>
<text text-anchor="middle" x="171" y="-40" font-family="Helvetica,sans-Serif" font-size="10.00" fill="grey"> warn</text>
</g>
</g>
</svg>
