<?xml version="1.0" encoding="UTF-8" standalone="no"?>
<!DOCTYPE svg PUBLIC "-//W3C//DTD SVG 1.1//EN"
 "http://www.w3.org/Graphics/SVG/1.1/DTD/svg11.dtd">
<!-- Generated by graphviz version 2.43.0 (0)
 -->
<!-- Title: odp_tm_capabilities_t Pages: 1 -->
<svg width="298pt" height="106pt"
 viewBox="0.00 0.00 297.50 106.00" xmlns="http://www.w3.org/2000/svg" xmlns:xlink="http://www.w3.org/1999/xlink">
<g id="graph0" class="graph" transform="scale(1 1) rotate(0) translate(4 102)">
<title>odp_tm_capabilities_t</title>
<polygon fill="white" stroke="transparent" points="-4,4 -4,-102 293.5,-102 293.5,4 -4,4"/>
<!-- Node1 -->
<g id="node1" class="node">
<title>Node1</title>
<g id="a_node1"><a xlink:title="TM Capabilities Record.">
<polygon fill="#bfbfbf" stroke="black" points="74,-0.5 74,-19.5 198,-19.5 198,-0.5 74,-0.5"/>
<text text-anchor="middle" x="136" y="-7.5" font-family="Helvetica,sans-Serif" font-size="10.00">odp_tm_capabilities_t</text>
</a>
</g>
</g>
<!-- Node2 -->
<g id="node2" class="node">
<title>Node2</title>
<g id="a_node2"><a xlink:href="structodp__tm__queue__stats__capability__t.html" target="_top" xlink:title="TM queue level statistics capabilities.">
<polygon fill="white" stroke="black" points="0,-67.5 0,-97.5 118,-97.5 118,-67.5 0,-67.5"/>
<text text-anchor="start" x="8" y="-85.5" font-family="Helvetica,sans-Serif" font-size="10.00">odp_tm_queue_stats</text>
<text text-anchor="middle" x="59" y="-74.5" font-family="Helvetica,sans-Serif" font-size="10.00">_capability_t</text>
</a>
</g>
</g>
<!-- Node2&#45;&gt;Node1 -->
<g id="edge1" class="edge">
<title>Node2&#45;&gt;Node1</title>
<path fill="none" stroke="#9a32cd" stroke-dasharray="5,2" d="M82.33,-60.14C97.06,-46.65 115.31,-29.94 126.29,-19.89"/>
<polygon fill="#9a32cd" stroke="#9a32cd" points="79.59,-57.9 74.58,-67.23 84.32,-63.06 79.59,-57.9"/>
<text text-anchor="middle" x="136.5" y="-41" font-family="Helvetica,sans-Serif" font-size="10.00"> queue_stats</text>
</g>
<!-- Node3 -->
<g id="node3" class="node">
<title>Node3</title>
<g id="a_node3"><a xlink:href="structodp__tm__level__capabilities__t.html" target="_top" xlink:title="Per Level Capabilities.">
<polygon fill="white" stroke="black" points="136.5,-73 136.5,-92 289.5,-92 289.5,-73 136.5,-73"/>
<text text-anchor="middle" x="213" y="-80" font-family="Helvetica,sans-Serif" font-size="10.00">odp_tm_level_capabilities_t</text>
</a>
</g>
</g>
<!-- Node3&#45;&gt;Node1 -->
<g id="edge2" class="edge">
<title>Node3&#45;&gt;Node1</title>
<path fill="none" stroke="#9a32cd" stroke-dasharray="5,2" d="M198.73,-65.05C191.12,-56.63 181.4,-46.4 172,-38 164.54,-31.34 155.54,-24.59 148.41,-19.5"/>
<polygon fill="#9a32cd" stroke="#9a32cd" points="196.29,-67.58 205.55,-72.74 201.53,-62.94 196.29,-67.58"/>
<text text-anchor="middle" x="206.5" y="-41" font-family="Helvetica,sans-Serif" font-size="10.00"> per_level</text>
</g>
</g>
</svg>
