<?xml version="1.0" encoding="UTF-8" standalone="no"?>
<!DOCTYPE svg PUBLIC "-//W3C//DTD SVG 1.1//EN"
 "http://www.w3.org/Graphics/SVG/1.1/DTD/svg11.dtd">
<!-- Generated by graphviz version 2.43.0 (0)
 -->
<!-- Title: odp_rwlock_recursive_s Pages: 1 -->
<svg width="141pt" height="159pt"
 viewBox="0.00 0.00 141.00 159.00" xmlns="http://www.w3.org/2000/svg" xmlns:xlink="http://www.w3.org/1999/xlink">
<g id="graph0" class="graph" transform="scale(1 1) rotate(0) translate(4 155)">
<title>odp_rwlock_recursive_s</title>
<!-- Node1 -->
<g id="Node000001" class="node">
<title>Node1</title>
<g id="a_Node000001"><a xlink:title=" ">
<polygon fill="#999999" stroke="#666666" points="133,-19 0,-19 0,0 133,0 133,-19"/>
<text text-anchor="middle" x="66.5" y="-7" font-family="Helvetica,sans-Serif" font-size="10.00">odp_rwlock_recursive_s</text>
</a>
</g>
</g>
<!-- Node2 -->
<g id="Node000002" class="node">
<title>Node2</title>
<g id="a_Node000002"><a xlink:href="structodp__rwlock__s.html" target="_top" xlink:title=" ">
<polygon fill="white" stroke="#666666" points="108,-85 25,-85 25,-66 108,-66 108,-85"/>
<text text-anchor="middle" x="66.5" y="-73" font-family="Helvetica,sans-Serif" font-size="10.00">odp_rwlock_s</text>
</a>
</g>
</g>
<!-- Node2&#45;&gt;Node1 -->
<g id="edge1_Node000001_Node000002" class="edge">
<title>Node2&#45;&gt;Node1</title>
<g id="a_edge1_Node000001_Node000002"><a xlink:title=" ">
<path fill="none" stroke="#9a32cd" stroke-dasharray="5,2" d="M66.5,-55.58C66.5,-43.63 66.5,-28.72 66.5,-19.41"/>
<polygon fill="#9a32cd" stroke="#9a32cd" points="63,-55.87 66.5,-65.87 70,-55.87 63,-55.87"/>
</a>
</g>
<text text-anchor="middle" x="78.5" y="-40" font-family="Helvetica,sans-Serif" font-size="10.00" fill="grey"> lock</text>
</g>
<!-- Node3 -->
<g id="Node000003" class="node">
<title>Node3</title>
<g id="a_Node000003"><a xlink:href="structodp__atomic__u32__s.html" target="_top" xlink:title=" ">
<polygon fill="white" stroke="#666666" points="120,-151 13,-151 13,-132 120,-132 120,-151"/>
<text text-anchor="middle" x="66.5" y="-139" font-family="Helvetica,sans-Serif" font-size="10.00">odp_atomic_u32_s</text>
</a>
</g>
</g>
<!-- Node3&#45;&gt;Node2 -->
<g id="edge2_Node000002_Node000003" class="edge">
<title>Node3&#45;&gt;Node2</title>
<g id="a_edge2_Node000002_Node000003"><a xlink:title=" ">
<path fill="none" stroke="#9a32cd" stroke-dasharray="5,2" d="M66.5,-121.58C66.5,-109.63 66.5,-94.72 66.5,-85.41"/>
<polygon fill="#9a32cd" stroke="#9a32cd" points="63,-121.87 66.5,-131.87 70,-121.87 63,-121.87"/>
</a>
</g>
<text text-anchor="middle" x="76" y="-106" font-family="Helvetica,sans-Serif" font-size="10.00" fill="grey"> cnt</text>
</g>
</g>
</svg>
