<?xml version="1.0" encoding="UTF-8" standalone="no"?>
<!DOCTYPE svg PUBLIC "-//W3C//DTD SVG 1.1//EN"
 "http://www.w3.org/Graphics/SVG/1.1/DTD/svg11.dtd">
<!-- Generated by graphviz version 2.43.0 (0)
 -->
<!-- Title: odp_cls_cos_param Pages: 1 -->
<svg width="848pt" height="301pt"
 viewBox="0.00 0.00 848.00 300.50" xmlns="http://www.w3.org/2000/svg" xmlns:xlink="http://www.w3.org/1999/xlink">
<g id="graph0" class="graph" transform="scale(1 1) rotate(0) translate(4 296.5)">
<title>odp_cls_cos_param</title>
<!-- Node1 -->
<g id="Node000001" class="node">
<title>Node1</title>
<g id="a_Node000001"><a xlink:title="Class of service parameters Used to communicate class of service creation options.">
<polygon fill="#999999" stroke="#666666" points="840,-153 728,-153 728,-134 840,-134 840,-153"/>
<text text-anchor="middle" x="784" y="-141" font-family="Helvetica,sans-Serif" font-size="10.00">odp_cls_cos_param</text>
</a>
</g>
</g>
<!-- Node2 -->
<g id="Node000002" class="node">
<title>Node2</title>
<g id="a_Node000002"><a xlink:href="struct__odp__abi__queue__t.html" target="_top" xlink:title=" ">
<polygon fill="white" stroke="#666666" points="592.5,-290 488.5,-290 488.5,-271 592.5,-271 592.5,-290"/>
<text text-anchor="middle" x="540.5" y="-278" font-family="Helvetica,sans-Serif" font-size="10.00">_odp_abi_queue_t</text>
</a>
</g>
</g>
<!-- Node2&#45;&gt;Node1 -->
<g id="edge1_Node000001_Node000002" class="edge">
<title>Node2&#45;&gt;Node1</title>
<g id="a_edge1_Node000001_Node000002"><a xlink:title=" ">
<path fill="none" stroke="#9a32cd" stroke-dasharray="5,2" d="M603.13,-283.76C637.06,-282.74 678.54,-276.64 710,-256.5 749.74,-231.07 772.21,-175.41 779.93,-153.07"/>
<polygon fill="#9a32cd" stroke="#9a32cd" points="602.8,-280.26 592.86,-283.92 602.91,-287.26 602.8,-280.26"/>
</a>
</g>
<text text-anchor="middle" x="667.5" y="-284.5" font-family="Helvetica,sans-Serif" font-size="10.00" fill="grey"> queue</text>
</g>
<!-- Node3 -->
<g id="Node000003" class="node">
<title>Node3</title>
<g id="a_Node000003"><a xlink:href="structodp__queue__param__t.html" target="_top" xlink:title="ODP Queue parameters.">
<polygon fill="white" stroke="#666666" points="598.5,-253 482.5,-253 482.5,-234 598.5,-234 598.5,-253"/>
<text text-anchor="middle" x="540.5" y="-241" font-family="Helvetica,sans-Serif" font-size="10.00">odp_queue_param_t</text>
</a>
</g>
</g>
<!-- Node3&#45;&gt;Node1 -->
<g id="edge2_Node000001_Node000003" class="edge">
<title>Node3&#45;&gt;Node1</title>
<g id="a_edge2_Node000001_Node000003"><a xlink:title=" ">
<path fill="none" stroke="#9a32cd" stroke-dasharray="5,2" d="M608.75,-243.94C640.9,-241.71 679.03,-235.37 710,-219.5 740.77,-203.73 765.9,-169.82 776.94,-153.15"/>
<polygon fill="#9a32cd" stroke="#9a32cd" points="608.32,-240.46 598.54,-244.53 608.72,-247.45 608.32,-240.46"/>
</a>
</g>
<text text-anchor="middle" x="667.5" y="-244.5" font-family="Helvetica,sans-Serif" font-size="10.00" fill="grey"> queue_param</text>
</g>
<!-- Node4 -->
<g id="Node000004" class="node">
<title>Node4</title>
<g id="a_Node000004"><a xlink:href="structodp__schedule__param__t.html" target="_top" xlink:title="Scheduler parameters.">
<polygon fill="white" stroke="#666666" points="289.5,-290 160.5,-290 160.5,-271 289.5,-271 289.5,-290"/>
<text text-anchor="middle" x="225" y="-278" font-family="Helvetica,sans-Serif" font-size="10.00">odp_schedule_param_t</text>
</a>
</g>
</g>
<!-- Node4&#45;&gt;Node3 -->
<g id="edge3_Node000003_Node000004" class="edge">
<title>Node4&#45;&gt;Node3</title>
<g id="a_edge3_Node000003_Node000004"><a xlink:title=" ">
<path fill="none" stroke="#9a32cd" stroke-dasharray="5,2" d="M299.63,-275.01C344.86,-271.25 403.91,-265.66 456,-258.5 467.09,-256.98 478.95,-255.04 490.16,-253.06"/>
<polygon fill="#9a32cd" stroke="#9a32cd" points="299.3,-271.53 289.62,-275.83 299.87,-278.5 299.3,-271.53"/>
</a>
</g>
<text text-anchor="middle" x="384" y="-276.5" font-family="Helvetica,sans-Serif" font-size="10.00" fill="grey"> sched</text>
</g>
<!-- Node5 -->
<g id="Node000005" class="node">
<title>Node5</title>
<g id="a_Node000005"><a xlink:href="structodp__event__aggr__config__t.html" target="_top" xlink:title="Event vector configuration.">
<polygon fill="white" stroke="#666666" points="294,-253 156,-253 156,-234 294,-234 294,-253"/>
<text text-anchor="middle" x="225" y="-241" font-family="Helvetica,sans-Serif" font-size="10.00">odp_event_aggr_config_t</text>
</a>
</g>
</g>
<!-- Node5&#45;&gt;Node3 -->
<g id="edge4_Node000003_Node000005" class="edge">
<title>Node5&#45;&gt;Node3</title>
<g id="a_edge4_Node000003_Node000005"><a xlink:title=" ">
<path fill="none" stroke="#9a32cd" stroke-dasharray="5,2" d="M304.14,-243.5C359.47,-243.5 432.44,-243.5 482.37,-243.5"/>
<polygon fill="#9a32cd" stroke="#9a32cd" points="304.02,-240 294.02,-243.5 304.02,-247 304.02,-240"/>
</a>
</g>
<text text-anchor="middle" x="384" y="-246.5" font-family="Helvetica,sans-Serif" font-size="10.00" fill="grey"> aggr</text>
</g>
<!-- Node6 -->
<g id="Node000006" class="node">
<title>Node6</title>
<g id="a_Node000006"><a xlink:href="struct__odp__abi__pool__t.html" target="_top" xlink:title=" ">
<polygon fill="white" stroke="#666666" points="95,-215 0,-215 0,-196 95,-196 95,-215"/>
<text text-anchor="middle" x="47.5" y="-203" font-family="Helvetica,sans-Serif" font-size="10.00">_odp_abi_pool_t</text>
</a>
</g>
</g>
<!-- Node6&#45;&gt;Node1 -->
<g id="edge7_Node000001_Node000006" class="edge">
<title>Node6&#45;&gt;Node1</title>
<g id="a_edge7_Node000001_Node000006"><a xlink:title=" ">
<path fill="none" stroke="#9a32cd" stroke-dasharray="5,2" d="M105.56,-203.7C206.7,-200.27 424.02,-191.85 607,-177.5 652.9,-173.9 664.93,-175.91 710,-166.5 725.87,-163.19 743.19,-157.81 756.98,-153.08"/>
<polygon fill="#9a32cd" stroke="#9a32cd" points="105.14,-200.21 95.26,-204.05 105.37,-207.21 105.14,-200.21"/>
</a>
</g>
<text text-anchor="middle" x="384" y="-197.5" font-family="Helvetica,sans-Serif" font-size="10.00" fill="grey"> pool</text>
</g>
<!-- Node6&#45;&gt;Node5 -->
<g id="edge5_Node000005_Node000006" class="edge">
<title>Node6&#45;&gt;Node5</title>
<g id="a_edge5_Node000005_Node000006"><a xlink:title=" ">
<path fill="none" stroke="#9a32cd" stroke-dasharray="5,2" d="M102.78,-217.25C127.59,-222.63 156.61,-228.91 180.03,-233.98"/>
<polygon fill="#9a32cd" stroke="#9a32cd" points="103.3,-213.78 92.79,-215.09 101.82,-220.63 103.3,-213.78"/>
</a>
</g>
<text text-anchor="middle" x="125.5" y="-227.5" font-family="Helvetica,sans-Serif" font-size="10.00" fill="grey"> pool</text>
</g>
<!-- Node11 -->
<g id="Node000011" class="node">
<title>Node11</title>
<g id="a_Node000011"><a xlink:href="structodp__pktin__vector__config__t.html" target="_top" xlink:title="Packet input vector configuration.">
<polygon fill="white" stroke="#666666" points="456,-176 312,-176 312,-157 456,-157 456,-176"/>
<text text-anchor="middle" x="384" y="-164" font-family="Helvetica,sans-Serif" font-size="10.00">odp_pktin_vector_config_t</text>
</a>
</g>
</g>
<!-- Node6&#45;&gt;Node11 -->
<g id="edge13_Node000011_Node000006" class="edge">
<title>Node6&#45;&gt;Node11</title>
<g id="a_edge13_Node000011_Node000006"><a xlink:title=" ">
<path fill="none" stroke="#9a32cd" stroke-dasharray="5,2" d="M77.74,-191.9C88.58,-187.47 101.13,-183.04 113,-180.5 179.44,-166.28 257.07,-163.67 311.99,-164.08"/>
<polygon fill="#9a32cd" stroke="#9a32cd" points="76.15,-188.77 68.33,-195.92 78.9,-195.21 76.15,-188.77"/>
</a>
</g>
<text text-anchor="middle" x="125.5" y="-183.5" font-family="Helvetica,sans-Serif" font-size="10.00" fill="grey"> pool</text>
</g>
<!-- Node7 -->
<g id="Node000007" class="node">
<title>Node7</title>
<g id="a_Node000007"><a xlink:href="unionodp__pktin__hash__proto__t.html" target="_top" xlink:title="Packet input hash protocols.">
<polygon fill="white" stroke="#666666" points="607,-130 474,-130 474,-111 607,-111 607,-130"/>
<text text-anchor="middle" x="540.5" y="-118" font-family="Helvetica,sans-Serif" font-size="10.00">odp_pktin_hash_proto_t</text>
</a>
</g>
</g>
<!-- Node7&#45;&gt;Node1 -->
<g id="edge6_Node000001_Node000007" class="edge">
<title>Node7&#45;&gt;Node1</title>
<g id="a_edge6_Node000001_Node000007"><a xlink:title=" ">
<path fill="none" stroke="#9a32cd" stroke-dasharray="5,2" d="M617.58,-127.75C653.39,-131.16 695.29,-135.15 727.96,-138.26"/>
<polygon fill="#9a32cd" stroke="#9a32cd" points="617.46,-124.22 607.17,-126.75 616.8,-131.19 617.46,-124.22"/>
</a>
</g>
<text text-anchor="middle" x="667.5" y="-138.5" font-family="Helvetica,sans-Serif" font-size="10.00" fill="grey"> hash_proto</text>
</g>
<!-- Node8 -->
<g id="Node000008" class="node">
<title>Node8</title>
<g id="a_Node000008"><a xlink:href="structodp__red__param__t.html" target="_top" xlink:title="Random Early Detection (RED) Random Early Detection is enabled to initiate a drop probability for the...">
<polygon fill="white" stroke="#666666" points="591,-93 490,-93 490,-74 591,-74 591,-93"/>
<text text-anchor="middle" x="540.5" y="-81" font-family="Helvetica,sans-Serif" font-size="10.00">odp_red_param_t</text>
</a>
</g>
</g>
<!-- Node8&#45;&gt;Node1 -->
<g id="edge8_Node000001_Node000008" class="edge">
<title>Node8&#45;&gt;Node1</title>
<g id="a_edge8_Node000001_Node000008"><a xlink:title=" ">
<path fill="none" stroke="#9a32cd" stroke-dasharray="5,2" d="M601.42,-90.99C633.94,-95.84 674.6,-103.2 710,-113.5 728.42,-118.86 748.53,-127.33 762.96,-133.9"/>
<polygon fill="#9a32cd" stroke="#9a32cd" points="601.57,-87.47 591.17,-89.5 600.56,-94.4 601.57,-87.47"/>
</a>
</g>
<text text-anchor="middle" x="667.5" y="-116.5" font-family="Helvetica,sans-Serif" font-size="10.00" fill="grey"> red</text>
</g>
<!-- Node9 -->
<g id="Node000009" class="node">
<title>Node9</title>
<g id="a_Node000009"><a xlink:href="structodp__threshold__t.html" target="_top" xlink:title="ODP Threshold.">
<polygon fill="white" stroke="#666666" points="272.5,-75 177.5,-75 177.5,-56 272.5,-56 272.5,-75"/>
<text text-anchor="middle" x="225" y="-63" font-family="Helvetica,sans-Serif" font-size="10.00">odp_threshold_t</text>
</a>
</g>
</g>
<!-- Node9&#45;&gt;Node8 -->
<g id="edge9_Node000008_Node000009" class="edge">
<title>Node9&#45;&gt;Node8</title>
<g id="a_edge9_Node000008_Node000009"><a xlink:title=" ">
<path fill="none" stroke="#9a32cd" stroke-dasharray="5,2" d="M282.87,-68.77C341.97,-72.16 433.51,-77.41 489.8,-80.65"/>
<polygon fill="#9a32cd" stroke="#9a32cd" points="282.78,-65.25 272.6,-68.18 282.38,-72.24 282.78,-65.25"/>
</a>
</g>
<text text-anchor="middle" x="384" y="-81.5" font-family="Helvetica,sans-Serif" font-size="10.00" fill="grey"> threshold</text>
</g>
<!-- Node10 -->
<g id="Node000010" class="node">
<title>Node10</title>
<g id="a_Node000010"><a xlink:href="structodp__bp__param__t.html" target="_top" xlink:title="Back pressure (BP)">
<polygon fill="white" stroke="#666666" points="589.5,-56 491.5,-56 491.5,-37 589.5,-37 589.5,-56"/>
<text text-anchor="middle" x="540.5" y="-44" font-family="Helvetica,sans-Serif" font-size="10.00">odp_bp_param_t</text>
</a>
</g>
</g>
<!-- Node9&#45;&gt;Node10 -->
<g id="edge11_Node000010_Node000009" class="edge">
<title>Node9&#45;&gt;Node10</title>
<g id="a_edge11_Node000010_Node000009"><a xlink:title=" ">
<path fill="none" stroke="#9a32cd" stroke-dasharray="5,2" d="M282.8,-58.28C292.53,-57.22 302.55,-56.24 312,-55.5 373.67,-50.7 444.96,-48.41 491.06,-47.35"/>
<polygon fill="#9a32cd" stroke="#9a32cd" points="282.35,-54.8 272.8,-59.4 283.13,-61.76 282.35,-54.8"/>
</a>
</g>
<text text-anchor="middle" x="384" y="-58.5" font-family="Helvetica,sans-Serif" font-size="10.00" fill="grey"> threshold</text>
</g>
<!-- Node10&#45;&gt;Node1 -->
<g id="edge10_Node000001_Node000010" class="edge">
<title>Node10&#45;&gt;Node1</title>
<g id="a_edge10_Node000001_Node000010"><a xlink:title=" ">
<path fill="none" stroke="#9a32cd" stroke-dasharray="5,2" d="M599.88,-50.36C633.47,-54.4 675.69,-62.65 710,-79.5 737.53,-93.02 762.81,-119.67 775.13,-133.94"/>
<polygon fill="#9a32cd" stroke="#9a32cd" points="600.07,-46.86 589.75,-49.24 599.3,-53.82 600.07,-46.86"/>
</a>
</g>
<text text-anchor="middle" x="667.5" y="-82.5" font-family="Helvetica,sans-Serif" font-size="10.00" fill="grey"> bp</text>
</g>
<!-- Node11&#45;&gt;Node1 -->
<g id="edge12_Node000001_Node000011" class="edge">
<title>Node11&#45;&gt;Node1</title>
<g id="a_edge12_Node000001_Node000011"><a xlink:title=" ">
<path fill="none" stroke="#9a32cd" stroke-dasharray="5,2" d="M466.36,-163.54C532.14,-160.9 627.1,-156.51 710,-150.5 715.71,-150.09 721.68,-149.6 727.62,-149.08"/>
<polygon fill="#9a32cd" stroke="#9a32cd" points="465.92,-160.06 456.07,-163.95 466.2,-167.05 465.92,-160.06"/>
</a>
</g>
<text text-anchor="middle" x="540.5" y="-165.5" font-family="Helvetica,sans-Serif" font-size="10.00" fill="grey"> vector</text>
</g>
<!-- Node12 -->
<g id="Node000012" class="node">
<title>Node12</title>
<g id="a_Node000012"><a xlink:href="structodp__aggr__enq__profile__t.html" target="_top" xlink:title="Event aggregator enqueuing profile.">
<polygon fill="white" stroke="#666666" points="605.5,-19 475.5,-19 475.5,0 605.5,0 605.5,-19"/>
<text text-anchor="middle" x="540.5" y="-7" font-family="Helvetica,sans-Serif" font-size="10.00">odp_aggr_enq_profile_t</text>
</a>
</g>
</g>
<!-- Node12&#45;&gt;Node1 -->
<g id="edge14_Node000001_Node000012" class="edge">
<title>Node12&#45;&gt;Node1</title>
<g id="a_edge14_Node000001_Node000012"><a xlink:title=" ">
<path fill="none" stroke="#9a32cd" stroke-dasharray="5,2" d="M616.1,-9.89C647.15,-13.07 682.33,-20.89 710,-38.5 747.27,-62.22 770.71,-112.51 779.3,-133.73"/>
<polygon fill="#9a32cd" stroke="#9a32cd" points="616.01,-6.36 605.74,-8.97 615.4,-13.34 616.01,-6.36"/>
</a>
</g>
<text text-anchor="middle" x="667.5" y="-41.5" font-family="Helvetica,sans-Serif" font-size="10.00" fill="grey"> aggr_enq_profile</text>
</g>
</g>
</svg>
