<?xml version="1.0" encoding="UTF-8" standalone="no"?>
<!DOCTYPE svg PUBLIC "-//W3C//DTD SVG 1.1//EN"
 "http://www.w3.org/Graphics/SVG/1.1/DTD/svg11.dtd">
<!-- Generated by graphviz version 2.43.0 (0)
 -->
<!-- Title: system_info.h Pages: 1 -->
<svg width="440pt" height="313pt"
 viewBox="0.00 0.00 439.60 313.00" xmlns="http://www.w3.org/2000/svg" xmlns:xlink="http://www.w3.org/1999/xlink">
<g id="graph0" class="graph" transform="scale(1 1) rotate(0) translate(4 309)">
<title>system_info.h</title>
<!-- Node1 -->
<g id="Node000001" class="node">
<title>Node1</title>
<g id="a_Node000001"><a xlink:title="ODP system information.">
<polygon fill="#999999" stroke="#666666" points="369.1,-305 283.1,-305 283.1,-286 369.1,-286 369.1,-305"/>
<text text-anchor="middle" x="326.1" y="-293" font-family="Helvetica,sans-Serif" font-size="10.00">system_info.h</text>
</a>
</g>
</g>
<!-- Node2 -->
<g id="Node000002" class="node">
<title>Node2</title>
<g id="a_Node000002"><a xlink:href="api_2std__types_8h.html" target="_top" xlink:title="Standard C language types and definitions for ODP.">
<polygon fill="white" stroke="#666666" points="336.1,-250 224.1,-250 224.1,-231 336.1,-231 336.1,-250"/>
<text text-anchor="middle" x="280.1" y="-238" font-family="Helvetica,sans-Serif" font-size="10.00">odp/api/std_types.h</text>
</a>
</g>
</g>
<!-- Node1&#45;&gt;Node2 -->
<g id="edge1_Node000001_Node000002" class="edge">
<title>Node1&#45;&gt;Node2</title>
<g id="a_edge1_Node000001_Node000002"><a xlink:title=" ">
<path fill="none" stroke="#63b8ff" d="M318.5,-285.75C311.94,-278.18 302.28,-267.05 294.28,-257.84"/>
<polygon fill="#63b8ff" stroke="#63b8ff" points="296.75,-255.35 287.55,-250.09 291.46,-259.94 296.75,-255.35"/>
</a>
</g>
</g>
<!-- Node11 -->
<g id="Node000011" class="node">
<title>Node11</title>
<g id="a_Node000011"><a xlink:href="spec_2system__info_8h.html" target="_top" xlink:title="ODP system information.">
<polygon fill="white" stroke="#666666" points="431.6,-85 314.6,-85 314.6,-55 431.6,-55 431.6,-85"/>
<text text-anchor="start" x="322.6" y="-73" font-family="Helvetica,sans-Serif" font-size="10.00">odp/api/spec/system</text>
<text text-anchor="middle" x="373.1" y="-62" font-family="Helvetica,sans-Serif" font-size="10.00">_info.h</text>
</a>
</g>
</g>
<!-- Node1&#45;&gt;Node11 -->
<g id="edge12_Node000001_Node000011" class="edge">
<title>Node1&#45;&gt;Node11</title>
<g id="a_edge12_Node000001_Node000011"><a xlink:title=" ">
<path fill="none" stroke="#63b8ff" d="M330.53,-285.86C334.86,-277.06 341.35,-262.91 345.1,-250 360.78,-196.04 368.21,-130.21 371.27,-95.36"/>
<polygon fill="#63b8ff" stroke="#63b8ff" points="374.78,-95.45 372.11,-85.19 367.8,-94.87 374.78,-95.45"/>
</a>
</g>
</g>
<!-- Node3 -->
<g id="Node000003" class="node">
<title>Node3</title>
<g id="a_Node000003"><a xlink:title=" ">
<polygon fill="#e0e0e0" stroke="#999999" points="345.1,-195 215.1,-195 215.1,-176 345.1,-176 345.1,-195"/>
<text text-anchor="middle" x="280.1" y="-183" font-family="Helvetica,sans-Serif" font-size="10.00">odp/api/abi/std_types.h</text>
</a>
</g>
</g>
<!-- Node2&#45;&gt;Node3 -->
<g id="edge2_Node000002_Node000003" class="edge">
<title>Node2&#45;&gt;Node3</title>
<g id="a_edge2_Node000002_Node000003"><a xlink:title=" ">
<path fill="none" stroke="#63b8ff" d="M280.1,-230.75C280.1,-223.8 280.1,-213.85 280.1,-205.13"/>
<polygon fill="#63b8ff" stroke="#63b8ff" points="283.6,-205.09 280.1,-195.09 276.6,-205.09 283.6,-205.09"/>
</a>
</g>
</g>
<!-- Node4 -->
<g id="Node000004" class="node">
<title>Node4</title>
<g id="a_Node000004"><a xlink:href="api_2spec_2std__types_8h.html" target="_top" xlink:title="Common types and definitions for ODP API files.">
<polygon fill="white" stroke="#666666" points="196.6,-195 59.6,-195 59.6,-176 196.6,-176 196.6,-195"/>
<text text-anchor="middle" x="128.1" y="-183" font-family="Helvetica,sans-Serif" font-size="10.00">odp/api/spec/std_types.h</text>
</a>
</g>
</g>
<!-- Node2&#45;&gt;Node4 -->
<g id="edge3_Node000002_Node000004" class="edge">
<title>Node2&#45;&gt;Node4</title>
<g id="a_edge3_Node000002_Node000004"><a xlink:title=" ">
<path fill="none" stroke="#63b8ff" d="M255.68,-230.98C230.38,-222.16 190.64,-208.31 162.24,-198.41"/>
<polygon fill="#63b8ff" stroke="#63b8ff" points="163.31,-195.07 152.71,-195.08 161,-201.68 163.31,-195.07"/>
</a>
</g>
</g>
<!-- Node5 -->
<g id="Node000005" class="node">
<title>Node5</title>
<g id="a_Node000005"><a xlink:href="visibility__begin_8h_source.html" target="_top" xlink:title=" ">
<polygon fill="white" stroke="#666666" points="236.6,-19 115.6,-19 115.6,0 236.6,0 236.6,-19"/>
<text text-anchor="middle" x="176.1" y="-7" font-family="Helvetica,sans-Serif" font-size="10.00">odp/visibility_begin.h</text>
</a>
</g>
</g>
<!-- Node4&#45;&gt;Node5 -->
<g id="edge4_Node000004_Node000005" class="edge">
<title>Node4&#45;&gt;Node5</title>
<g id="a_edge4_Node000004_Node000005"><a xlink:title=" ">
<path fill="none" stroke="#63b8ff" d="M108.8,-175.87C66.39,-155.74 -28.3,-103.66 9.1,-55 21.19,-39.26 65.38,-27.91 105.27,-20.61"/>
<polygon fill="#63b8ff" stroke="#63b8ff" points="106.05,-24.02 115.29,-18.84 104.84,-17.13 106.05,-24.02"/>
</a>
</g>
</g>
<!-- Node6 -->
<g id="Node000006" class="node">
<title>Node6</title>
<g id="a_Node000006"><a xlink:title=" ">
<polygon fill="#e0e0e0" stroke="#999999" points="215.6,-140 162.6,-140 162.6,-121 215.6,-121 215.6,-140"/>
<text text-anchor="middle" x="189.1" y="-128" font-family="Helvetica,sans-Serif" font-size="10.00">stdint.h</text>
</a>
</g>
</g>
<!-- Node4&#45;&gt;Node6 -->
<g id="edge5_Node000004_Node000006" class="edge">
<title>Node4&#45;&gt;Node6</title>
<g id="a_edge5_Node000004_Node000006"><a xlink:title=" ">
<path fill="none" stroke="#63b8ff" d="M137.9,-175.98C146.92,-168.15 160.5,-156.34 171.42,-146.86"/>
<polygon fill="#63b8ff" stroke="#63b8ff" points="173.87,-149.37 179.12,-140.17 169.28,-144.09 173.87,-149.37"/>
</a>
</g>
</g>
<!-- Node7 -->
<g id="Node000007" class="node">
<title>Node7</title>
<g id="a_Node000007"><a xlink:href="api_2align_8h.html" target="_top" xlink:title="ODP alignments.">
<polygon fill="white" stroke="#666666" points="144.6,-140 55.6,-140 55.6,-121 144.6,-121 144.6,-140"/>
<text text-anchor="middle" x="100.1" y="-128" font-family="Helvetica,sans-Serif" font-size="10.00">odp/api/align.h</text>
</a>
</g>
</g>
<!-- Node4&#45;&gt;Node7 -->
<g id="edge6_Node000004_Node000007" class="edge">
<title>Node4&#45;&gt;Node7</title>
<g id="a_edge6_Node000004_Node000007"><a xlink:title=" ">
<path fill="none" stroke="#63b8ff" d="M123.48,-175.75C119.64,-168.49 114.07,-157.95 109.33,-148.98"/>
<polygon fill="#63b8ff" stroke="#63b8ff" points="112.4,-147.3 104.64,-140.09 106.21,-150.57 112.4,-147.3"/>
</a>
</g>
</g>
<!-- Node10 -->
<g id="Node000010" class="node">
<title>Node10</title>
<g id="a_Node000010"><a xlink:href="visibility__end_8h_source.html" target="_top" xlink:title=" ">
<polygon fill="white" stroke="#666666" points="367.1,-19 255.1,-19 255.1,0 367.1,0 367.1,-19"/>
<text text-anchor="middle" x="311.1" y="-7" font-family="Helvetica,sans-Serif" font-size="10.00">odp/visibility_end.h</text>
</a>
</g>
</g>
<!-- Node4&#45;&gt;Node10 -->
<g id="edge11_Node000004_Node000010" class="edge">
<title>Node4&#45;&gt;Node10</title>
<g id="a_edge11_Node000004_Node000010"><a xlink:title=" ">
<path fill="none" stroke="#63b8ff" d="M155.59,-175.97C176.17,-168.66 204.26,-156.66 225.1,-140 263.79,-109.07 291.21,-55.92 303.63,-28.31"/>
<polygon fill="#63b8ff" stroke="#63b8ff" points="306.87,-29.65 307.65,-19.08 300.45,-26.85 306.87,-29.65"/>
</a>
</g>
</g>
<!-- Node8 -->
<g id="Node000008" class="node">
<title>Node8</title>
<g id="a_Node000008"><a xlink:title=" ">
<polygon fill="#e0e0e0" stroke="#999999" points="125.6,-79.5 18.6,-79.5 18.6,-60.5 125.6,-60.5 125.6,-79.5"/>
<text text-anchor="middle" x="72.1" y="-67.5" font-family="Helvetica,sans-Serif" font-size="10.00">odp/api/abi/align.h</text>
</a>
</g>
</g>
<!-- Node7&#45;&gt;Node8 -->
<g id="edge7_Node000007_Node000008" class="edge">
<title>Node7&#45;&gt;Node8</title>
<g id="a_edge7_Node000007_Node000008"><a xlink:title=" ">
<path fill="none" stroke="#63b8ff" d="M95.97,-120.87C91.96,-112.49 85.74,-99.51 80.66,-88.89"/>
<polygon fill="#63b8ff" stroke="#63b8ff" points="83.72,-87.18 76.25,-79.67 77.41,-90.2 83.72,-87.18"/>
</a>
</g>
</g>
<!-- Node9 -->
<g id="Node000009" class="node">
<title>Node9</title>
<g id="a_Node000009"><a xlink:href="api_2spec_2align_8h.html" target="_top" xlink:title="ODP alignments.">
<polygon fill="white" stroke="#666666" points="258.1,-79.5 144.1,-79.5 144.1,-60.5 258.1,-60.5 258.1,-79.5"/>
<text text-anchor="middle" x="201.1" y="-67.5" font-family="Helvetica,sans-Serif" font-size="10.00">odp/api/spec/align.h</text>
</a>
</g>
</g>
<!-- Node7&#45;&gt;Node9 -->
<g id="edge8_Node000007_Node000009" class="edge">
<title>Node7&#45;&gt;Node9</title>
<g id="a_edge8_Node000007_Node000009"><a xlink:title=" ">
<path fill="none" stroke="#63b8ff" d="M115,-120.87C131.41,-111.36 158.03,-95.95 177.33,-84.77"/>
<polygon fill="#63b8ff" stroke="#63b8ff" points="179.24,-87.71 186.13,-79.67 175.73,-81.65 179.24,-87.71"/>
</a>
</g>
</g>
<!-- Node9&#45;&gt;Node5 -->
<g id="edge9_Node000009_Node000005" class="edge">
<title>Node9&#45;&gt;Node5</title>
<g id="a_edge9_Node000009_Node000005"><a xlink:title=" ">
<path fill="none" stroke="#63b8ff" d="M197.41,-60.37C193.83,-51.99 188.28,-39.01 183.75,-28.39"/>
<polygon fill="#63b8ff" stroke="#63b8ff" points="186.95,-26.99 179.8,-19.17 180.51,-29.74 186.95,-26.99"/>
</a>
</g>
</g>
<!-- Node9&#45;&gt;Node10 -->
<g id="edge10_Node000009_Node000010" class="edge">
<title>Node9&#45;&gt;Node10</title>
<g id="a_edge10_Node000009_Node000010"><a xlink:title=" ">
<path fill="none" stroke="#63b8ff" d="M217.33,-60.37C235.36,-50.78 264.72,-35.17 285.78,-23.97"/>
<polygon fill="#63b8ff" stroke="#63b8ff" points="287.62,-26.95 294.8,-19.17 284.33,-20.77 287.62,-26.95"/>
</a>
</g>
</g>
<!-- Node11&#45;&gt;Node5 -->
<g id="edge13_Node000011_Node000005" class="edge">
<title>Node11&#45;&gt;Node5</title>
<g id="a_edge13_Node000011_Node000005"><a xlink:title=" ">
<path fill="none" stroke="#63b8ff" d="M325.91,-54.99C291.91,-44.89 246.6,-31.44 214.74,-21.98"/>
<polygon fill="#63b8ff" stroke="#63b8ff" points="215.49,-18.55 204.9,-19.05 213.49,-25.26 215.49,-18.55"/>
</a>
</g>
</g>
<!-- Node11&#45;&gt;Node10 -->
<g id="edge14_Node000011_Node000010" class="edge">
<title>Node11&#45;&gt;Node10</title>
<g id="a_edge14_Node000011_Node000010"><a xlink:title=" ">
<path fill="none" stroke="#63b8ff" d="M358.09,-54.84C348.91,-46.17 337.14,-35.08 327.69,-26.15"/>
<polygon fill="#63b8ff" stroke="#63b8ff" points="330.06,-23.58 320.39,-19.27 325.26,-28.67 330.06,-23.58"/>
</a>
</g>
</g>
</g>
</svg>
