<?xml version="1.0" encoding="UTF-8" standalone="no"?>
<!DOCTYPE svg PUBLIC "-//W3C//DTD SVG 1.1//EN"
 "http://www.w3.org/Graphics/SVG/1.1/DTD/svg11.dtd">
<!-- Generated by graphviz version 2.40.1 (20161225.0304)
 -->
<!-- Title: threshold.h Pages: 1 -->
<svg width="105pt" height="364pt"
 viewBox="0.00 0.00 105.00 364.00" xmlns="http://www.w3.org/2000/svg" xmlns:xlink="http://www.w3.org/1999/xlink">
<g id="graph0" class="graph" transform="scale(1 1) rotate(0) translate(4 360)">
<title>threshold.h</title>
<polygon fill="#ffffff" stroke="transparent" points="-4,4 -4,-360 101,-360 101,4 -4,4"/>
<!-- Node11 -->
<g id="node1" class="node">
<title>Node11</title>
<polygon fill="#bfbfbf" stroke="#000000" points="17,-336.5 17,-355.5 88,-355.5 88,-336.5 17,-336.5"/>
<text text-anchor="middle" x="52.5" y="-343.5" font-family="Helvetica,sans-Serif" font-size="10.00" fill="#000000">threshold.h</text>
</g>
<!-- Node12 -->
<g id="node2" class="node">
<title>Node12</title>
<g id="a_node2"><a xlink:href="api_2spec_2classification_8h.html" target="_top" xlink:title="ODP classification descriptor. ">
<polygon fill="#ffffff" stroke="#000000" points="8,-280.5 8,-299.5 97,-299.5 97,-280.5 8,-280.5"/>
<text text-anchor="middle" x="52.5" y="-287.5" font-family="Helvetica,sans-Serif" font-size="10.00" fill="#000000">classification.h</text>
</a>
</g>
</g>
<!-- Node11&#45;&gt;Node12 -->
<g id="edge1" class="edge">
<title>Node11&#45;&gt;Node12</title>
<path fill="none" stroke="#191970" d="M52.5,-326.1575C52.5,-317.155 52.5,-306.9199 52.5,-299.6427"/>
<polygon fill="#191970" stroke="#191970" points="49.0001,-326.2455 52.5,-336.2455 56.0001,-326.2456 49.0001,-326.2455"/>
</g>
<!-- Node13 -->
<g id="node3" class="node">
<title>Node13</title>
<g id="a_node3"><a xlink:href="api_2classification_8h.html" target="_top" xlink:title="ODP classification descriptor. ">
<polygon fill="#ffffff" stroke="#000000" points="8,-224.5 8,-243.5 97,-243.5 97,-224.5 8,-224.5"/>
<text text-anchor="middle" x="52.5" y="-231.5" font-family="Helvetica,sans-Serif" font-size="10.00" fill="#000000">classification.h</text>
</a>
</g>
</g>
<!-- Node12&#45;&gt;Node13 -->
<g id="edge2" class="edge">
<title>Node12&#45;&gt;Node13</title>
<path fill="none" stroke="#191970" d="M52.5,-270.1575C52.5,-261.155 52.5,-250.9199 52.5,-243.6427"/>
<polygon fill="#191970" stroke="#191970" points="49.0001,-270.2455 52.5,-280.2455 56.0001,-270.2456 49.0001,-270.2455"/>
</g>
<!-- Node14 -->
<g id="node4" class="node">
<title>Node14</title>
<g id="a_node4"><a xlink:href="api_2spec_2ipsec_8h.html" target="_top" xlink:title="ODP IPSEC API. ">
<polygon fill="#ffffff" stroke="#000000" points="0,-168.5 0,-187.5 51,-187.5 51,-168.5 0,-168.5"/>
<text text-anchor="middle" x="25.5" y="-175.5" font-family="Helvetica,sans-Serif" font-size="10.00" fill="#000000">ipsec.h</text>
</a>
</g>
</g>
<!-- Node13&#45;&gt;Node14 -->
<g id="edge3" class="edge">
<title>Node13&#45;&gt;Node14</title>
<path fill="none" stroke="#191970" d="M43.3604,-215.0437C38.9195,-205.8331 33.7735,-195.1598 30.1491,-187.6427"/>
<polygon fill="#191970" stroke="#191970" points="40.3012,-216.7579 47.797,-224.2455 46.6066,-213.7178 40.3012,-216.7579"/>
</g>
<!-- Node16 -->
<g id="node6" class="node">
<title>Node16</title>
<g id="a_node6"><a xlink:href="odp__api_8h.html" target="_top" xlink:title="The OpenDataPlane API. ">
<polygon fill="#ffffff" stroke="#000000" points="20.5,-56.5 20.5,-75.5 84.5,-75.5 84.5,-56.5 20.5,-56.5"/>
<text text-anchor="middle" x="52.5" y="-63.5" font-family="Helvetica,sans-Serif" font-size="10.00" fill="#000000">odp_api.h</text>
</a>
</g>
</g>
<!-- Node13&#45;&gt;Node16 -->
<g id="edge7" class="edge">
<title>Node13&#45;&gt;Node16</title>
<path fill="none" stroke="#191970" d="M56.707,-214.2292C58.2271,-206.1393 59.7524,-196.6615 60.5,-188 63.4045,-154.3473 63.4045,-145.6527 60.5,-112 59.4126,-99.4015 56.6798,-85.0759 54.7107,-75.8064"/>
<polygon fill="#191970" stroke="#191970" points="53.2433,-213.7009 54.7107,-224.1936 60.1069,-215.076 53.2433,-213.7009"/>
</g>
<!-- Node15 -->
<g id="node5" class="node">
<title>Node15</title>
<g id="a_node5"><a xlink:href="api_2ipsec_8h.html" target="_top" xlink:title="ODP IPSEC API &#45; platform specific header. ">
<polygon fill="#ffffff" stroke="#000000" points="0,-112.5 0,-131.5 51,-131.5 51,-112.5 0,-112.5"/>
<text text-anchor="middle" x="25.5" y="-119.5" font-family="Helvetica,sans-Serif" font-size="10.00" fill="#000000">ipsec.h</text>
</a>
</g>
</g>
<!-- Node14&#45;&gt;Node15 -->
<g id="edge4" class="edge">
<title>Node14&#45;&gt;Node15</title>
<path fill="none" stroke="#191970" d="M25.5,-158.1575C25.5,-149.155 25.5,-138.9199 25.5,-131.6427"/>
<polygon fill="#191970" stroke="#191970" points="22.0001,-158.2455 25.5,-168.2455 29.0001,-158.2456 22.0001,-158.2455"/>
</g>
<!-- Node15&#45;&gt;Node16 -->
<g id="edge5" class="edge">
<title>Node15&#45;&gt;Node16</title>
<path fill="none" stroke="#191970" d="M34.6396,-103.0437C39.0805,-93.8331 44.2265,-83.1598 47.8509,-75.6427"/>
<polygon fill="#191970" stroke="#191970" points="31.3934,-101.7178 30.203,-112.2455 37.6988,-104.7579 31.3934,-101.7178"/>
</g>
<!-- Node17 -->
<g id="node7" class="node">
<title>Node17</title>
<g id="a_node7"><a xlink:href="odp_8h.html" target="_top" xlink:title="WARNING: THIS FILE IS DEPRECATED AND WILL BE REMOVED!!! ODP APPLICATIONS SHOULD NOW INCLUDE odp_api...">
<polygon fill="#ffffff" stroke="#000000" points="30.5,-.5 30.5,-19.5 74.5,-19.5 74.5,-.5 30.5,-.5"/>
<text text-anchor="middle" x="52.5" y="-7.5" font-family="Helvetica,sans-Serif" font-size="10.00" fill="#000000">odp.h</text>
</a>
</g>
</g>
<!-- Node16&#45;&gt;Node17 -->
<g id="edge6" class="edge">
<title>Node16&#45;&gt;Node17</title>
<path fill="none" stroke="#191970" d="M52.5,-46.1575C52.5,-37.155 52.5,-26.9199 52.5,-19.6427"/>
<polygon fill="#191970" stroke="#191970" points="49.0001,-46.2455 52.5,-56.2455 56.0001,-46.2456 49.0001,-46.2455"/>
</g>
</g>
</svg>
