<?xml version="1.0" encoding="UTF-8" standalone="no"?>
<!DOCTYPE svg PUBLIC "-//W3C//DTD SVG 1.1//EN"
 "http://www.w3.org/Graphics/SVG/1.1/DTD/svg11.dtd">
<!-- Generated by graphviz version 2.43.0 (0)
 -->
<!-- Title: rwlock_recursive.h Pages: 1 -->
<svg width="870pt" height="368pt"
 viewBox="0.00 0.00 869.50 368.00" xmlns="http://www.w3.org/2000/svg" xmlns:xlink="http://www.w3.org/1999/xlink">
<g id="graph0" class="graph" transform="scale(1 1) rotate(0) translate(4 364)">
<title>rwlock_recursive.h</title>
<!-- Node1 -->
<g id="Node000001" class="node">
<title>Node1</title>
<g id="a_Node000001"><a xlink:title="ODP recursive read/write lock.">
<polygon fill="#999999" stroke="#666666" points="500.5,-360 392.5,-360 392.5,-341 500.5,-341 500.5,-360"/>
<text text-anchor="middle" x="446.5" y="-348" font-family="Helvetica,sans-Serif" font-size="10.00">rwlock_recursive.h</text>
</a>
</g>
</g>
<!-- Node2 -->
<g id="Node000002" class="node">
<title>Node2</title>
<g id="a_Node000002"><a xlink:href="rwlock_8h.html" target="_top" xlink:title="ODP RW Locks.">
<polygon fill="white" stroke="#666666" points="243,-195 146,-195 146,-176 243,-176 243,-195"/>
<text text-anchor="middle" x="194.5" y="-183" font-family="Helvetica,sans-Serif" font-size="10.00">odp/api/rwlock.h</text>
</a>
</g>
</g>
<!-- Node1&#45;&gt;Node2 -->
<g id="edge1_Node000001_Node000002" class="edge">
<title>Node1&#45;&gt;Node2</title>
<g id="a_edge1_Node000001_Node000002"><a xlink:title=" ">
<path fill="none" stroke="#63b8ff" d="M433.31,-340.99C406.69,-323.8 344.61,-283.72 292.5,-250 266.34,-233.08 236.28,-213.59 216.42,-200.72"/>
<polygon fill="#63b8ff" stroke="#63b8ff" points="218.11,-197.64 207.81,-195.13 214.3,-203.51 218.11,-197.64"/>
</a>
</g>
</g>
<!-- Node7 -->
<g id="Node000007" class="node">
<title>Node7</title>
<g id="a_Node000007"><a xlink:href="std__types_8h.html" target="_top" xlink:title="Standard C language types and definitions for ODP.">
<polygon fill="white" stroke="#666666" points="502.5,-305 390.5,-305 390.5,-286 502.5,-286 502.5,-305"/>
<text text-anchor="middle" x="446.5" y="-293" font-family="Helvetica,sans-Serif" font-size="10.00">odp/api/std_types.h</text>
</a>
</g>
</g>
<!-- Node1&#45;&gt;Node7 -->
<g id="edge6_Node000001_Node000007" class="edge">
<title>Node1&#45;&gt;Node7</title>
<g id="a_edge6_Node000001_Node000007"><a xlink:title=" ">
<path fill="none" stroke="#63b8ff" d="M446.5,-340.75C446.5,-333.8 446.5,-323.85 446.5,-315.13"/>
<polygon fill="#63b8ff" stroke="#63b8ff" points="450,-315.09 446.5,-305.09 443,-315.09 450,-315.09"/>
</a>
</g>
</g>
<!-- Node14 -->
<g id="Node000014" class="node">
<title>Node14</title>
<g id="a_Node000014"><a xlink:href="thread_8h.html" target="_top" xlink:title="ODP thread API.">
<polygon fill="white" stroke="#666666" points="716.5,-195 620.5,-195 620.5,-176 716.5,-176 716.5,-195"/>
<text text-anchor="middle" x="668.5" y="-183" font-family="Helvetica,sans-Serif" font-size="10.00">odp/api/thread.h</text>
</a>
</g>
</g>
<!-- Node1&#45;&gt;Node14 -->
<g id="edge17_Node000001_Node000014" class="edge">
<title>Node1&#45;&gt;Node14</title>
<g id="a_edge17_Node000001_Node000014"><a xlink:title=" ">
<path fill="none" stroke="#63b8ff" d="M461.01,-340.8C488.32,-324.23 548.89,-286.51 596.5,-250 616.4,-234.74 637.78,-215.48 652.03,-202.2"/>
<polygon fill="#63b8ff" stroke="#63b8ff" points="654.64,-204.54 659.53,-195.14 649.84,-199.44 654.64,-204.54"/>
</a>
</g>
</g>
<!-- Node3 -->
<g id="Node000003" class="node">
<title>Node3</title>
<g id="a_Node000003"><a xlink:title=" ">
<polygon fill="#e0e0e0" stroke="#999999" points="115,-140 0,-140 0,-121 115,-121 115,-140"/>
<text text-anchor="middle" x="57.5" y="-128" font-family="Helvetica,sans-Serif" font-size="10.00">odp/api/abi/rwlock.h</text>
</a>
</g>
</g>
<!-- Node2&#45;&gt;Node3 -->
<g id="edge2_Node000002_Node000003" class="edge">
<title>Node2&#45;&gt;Node3</title>
<g id="a_edge2_Node000002_Node000003"><a xlink:title=" ">
<path fill="none" stroke="#63b8ff" d="M172.49,-175.98C150.05,-167.3 115.02,-153.75 89.51,-143.88"/>
<polygon fill="#63b8ff" stroke="#63b8ff" points="90.5,-140.51 79.91,-140.17 87.98,-147.04 90.5,-140.51"/>
</a>
</g>
</g>
<!-- Node4 -->
<g id="Node000004" class="node">
<title>Node4</title>
<g id="a_Node000004"><a xlink:href="spec_2rwlock_8h.html" target="_top" xlink:title="ODP RW Locks.">
<polygon fill="white" stroke="#666666" points="255.5,-140 133.5,-140 133.5,-121 255.5,-121 255.5,-140"/>
<text text-anchor="middle" x="194.5" y="-128" font-family="Helvetica,sans-Serif" font-size="10.00">odp/api/spec/rwlock.h</text>
</a>
</g>
</g>
<!-- Node2&#45;&gt;Node4 -->
<g id="edge3_Node000002_Node000004" class="edge">
<title>Node2&#45;&gt;Node4</title>
<g id="a_edge3_Node000002_Node000004"><a xlink:title=" ">
<path fill="none" stroke="#63b8ff" d="M194.5,-175.75C194.5,-168.8 194.5,-158.85 194.5,-150.13"/>
<polygon fill="#63b8ff" stroke="#63b8ff" points="198,-150.09 194.5,-140.09 191,-150.09 198,-150.09"/>
</a>
</g>
</g>
<!-- Node5 -->
<g id="Node000005" class="node">
<title>Node5</title>
<g id="a_Node000005"><a xlink:title=" ">
<polygon fill="#e0e0e0" stroke="#999999" points="554,-85 433,-85 433,-66 554,-66 554,-85"/>
<text text-anchor="middle" x="493.5" y="-73" font-family="Helvetica,sans-Serif" font-size="10.00">odp/visibility_begin.h</text>
</a>
</g>
</g>
<!-- Node4&#45;&gt;Node5 -->
<g id="edge4_Node000004_Node000005" class="edge">
<title>Node4&#45;&gt;Node5</title>
<g id="a_edge4_Node000004_Node000005"><a xlink:title=" ">
<path fill="none" stroke="#63b8ff" d="M242.54,-120.98C294.91,-111.7 378.74,-96.84 434.93,-86.88"/>
<polygon fill="#63b8ff" stroke="#63b8ff" points="435.85,-90.27 445.08,-85.08 434.63,-83.38 435.85,-90.27"/>
</a>
</g>
</g>
<!-- Node6 -->
<g id="Node000006" class="node">
<title>Node6</title>
<g id="a_Node000006"><a xlink:title=" ">
<polygon fill="#e0e0e0" stroke="#999999" points="382.5,-85 270.5,-85 270.5,-66 382.5,-66 382.5,-85"/>
<text text-anchor="middle" x="326.5" y="-73" font-family="Helvetica,sans-Serif" font-size="10.00">odp/visibility_end.h</text>
</a>
</g>
</g>
<!-- Node4&#45;&gt;Node6 -->
<g id="edge5_Node000004_Node000006" class="edge">
<title>Node4&#45;&gt;Node6</title>
<g id="a_edge5_Node000004_Node000006"><a xlink:title=" ">
<path fill="none" stroke="#63b8ff" d="M215.71,-120.98C237.23,-112.34 270.78,-98.87 295.33,-89.02"/>
<polygon fill="#63b8ff" stroke="#63b8ff" points="296.93,-92.14 304.91,-85.17 294.32,-85.65 296.93,-92.14"/>
</a>
</g>
</g>
<!-- Node8 -->
<g id="Node000008" class="node">
<title>Node8</title>
<g id="a_Node000008"><a xlink:title=" ">
<polygon fill="#e0e0e0" stroke="#999999" points="587.5,-250 457.5,-250 457.5,-231 587.5,-231 587.5,-250"/>
<text text-anchor="middle" x="522.5" y="-238" font-family="Helvetica,sans-Serif" font-size="10.00">odp/api/abi/std_types.h</text>
</a>
</g>
</g>
<!-- Node7&#45;&gt;Node8 -->
<g id="edge7_Node000007_Node000008" class="edge">
<title>Node7&#45;&gt;Node8</title>
<g id="a_edge7_Node000007_Node000008"><a xlink:title=" ">
<path fill="none" stroke="#63b8ff" d="M458.71,-285.98C470.28,-277.92 487.88,-265.65 501.66,-256.03"/>
<polygon fill="#63b8ff" stroke="#63b8ff" points="503.87,-258.76 510.07,-250.17 499.86,-253.02 503.87,-258.76"/>
</a>
</g>
</g>
<!-- Node9 -->
<g id="Node000009" class="node">
<title>Node9</title>
<g id="a_Node000009"><a xlink:href="spec_2std__types_8h.html" target="_top" xlink:title="Common types and definitions for ODP API files.">
<polygon fill="white" stroke="#666666" points="439,-250 302,-250 302,-231 439,-231 439,-250"/>
<text text-anchor="middle" x="370.5" y="-238" font-family="Helvetica,sans-Serif" font-size="10.00">odp/api/spec/std_types.h</text>
</a>
</g>
</g>
<!-- Node7&#45;&gt;Node9 -->
<g id="edge8_Node000007_Node000009" class="edge">
<title>Node7&#45;&gt;Node9</title>
<g id="a_edge8_Node000007_Node000009"><a xlink:title=" ">
<path fill="none" stroke="#63b8ff" d="M434.29,-285.98C422.72,-277.92 405.12,-265.65 391.34,-256.03"/>
<polygon fill="#63b8ff" stroke="#63b8ff" points="393.14,-253.02 382.93,-250.17 389.13,-258.76 393.14,-253.02"/>
</a>
</g>
</g>
<!-- Node9&#45;&gt;Node5 -->
<g id="edge9_Node000009_Node000005" class="edge">
<title>Node9&#45;&gt;Node5</title>
<g id="a_edge9_Node000009_Node000005"><a xlink:title=" ">
<path fill="none" stroke="#63b8ff" d="M421.59,-230.9C469.49,-219.6 537.12,-194.39 560.5,-140 569.8,-118.36 546.33,-100.63 524.66,-89.46"/>
<polygon fill="#63b8ff" stroke="#63b8ff" points="526.1,-86.27 515.58,-85.08 523.06,-92.58 526.1,-86.27"/>
</a>
</g>
</g>
<!-- Node9&#45;&gt;Node6 -->
<g id="edge16_Node000009_Node000006" class="edge">
<title>Node9&#45;&gt;Node6</title>
<g id="a_edge16_Node000009_Node000006"><a xlink:title=" ">
<path fill="none" stroke="#63b8ff" d="M358.64,-230.79C348.17,-222.57 333.11,-209.39 323.5,-195 308.97,-173.24 307.25,-165.73 302.5,-140 300.97,-131.7 300.43,-129.19 302.5,-121 304.91,-111.44 309.83,-101.7 314.59,-93.78"/>
<polygon fill="#63b8ff" stroke="#63b8ff" points="317.67,-95.46 320.13,-85.16 311.78,-91.68 317.67,-95.46"/>
</a>
</g>
</g>
<!-- Node10 -->
<g id="Node000010" class="node">
<title>Node10</title>
<g id="a_Node000010"><a xlink:title=" ">
<polygon fill="#e0e0e0" stroke="#999999" points="386,-195 333,-195 333,-176 386,-176 386,-195"/>
<text text-anchor="middle" x="359.5" y="-183" font-family="Helvetica,sans-Serif" font-size="10.00">stdint.h</text>
</a>
</g>
</g>
<!-- Node9&#45;&gt;Node10 -->
<g id="edge10_Node000009_Node000010" class="edge">
<title>Node9&#45;&gt;Node10</title>
<g id="a_edge10_Node000009_Node000010"><a xlink:title=" ">
<path fill="none" stroke="#63b8ff" d="M368.68,-230.75C367.24,-223.8 365.18,-213.85 363.37,-205.13"/>
<polygon fill="#63b8ff" stroke="#63b8ff" points="366.74,-204.17 361.28,-195.09 359.89,-205.59 366.74,-204.17"/>
</a>
</g>
</g>
<!-- Node11 -->
<g id="Node000011" class="node">
<title>Node11</title>
<g id="a_Node000011"><a xlink:href="align_8h.html" target="_top" xlink:title="ODP alignments.">
<polygon fill="white" stroke="#666666" points="493,-195 404,-195 404,-176 493,-176 493,-195"/>
<text text-anchor="middle" x="448.5" y="-183" font-family="Helvetica,sans-Serif" font-size="10.00">odp/api/align.h</text>
</a>
</g>
</g>
<!-- Node9&#45;&gt;Node11 -->
<g id="edge11_Node000009_Node000011" class="edge">
<title>Node9&#45;&gt;Node11</title>
<g id="a_edge11_Node000009_Node000011"><a xlink:title=" ">
<path fill="none" stroke="#63b8ff" d="M383.03,-230.98C394.9,-222.92 412.96,-210.65 427.11,-201.03"/>
<polygon fill="#63b8ff" stroke="#63b8ff" points="429.44,-203.69 435.74,-195.17 425.5,-197.9 429.44,-203.69"/>
</a>
</g>
</g>
<!-- Node12 -->
<g id="Node000012" class="node">
<title>Node12</title>
<g id="a_Node000012"><a xlink:title=" ">
<polygon fill="#e0e0e0" stroke="#999999" points="551,-140 444,-140 444,-121 551,-121 551,-140"/>
<text text-anchor="middle" x="497.5" y="-128" font-family="Helvetica,sans-Serif" font-size="10.00">odp/api/abi/align.h</text>
</a>
</g>
</g>
<!-- Node11&#45;&gt;Node12 -->
<g id="edge12_Node000011_Node000012" class="edge">
<title>Node11&#45;&gt;Node12</title>
<g id="a_edge12_Node000011_Node000012"><a xlink:title=" ">
<path fill="none" stroke="#63b8ff" d="M456.59,-175.75C463.66,-168.11 474.09,-156.82 482.65,-147.56"/>
<polygon fill="#63b8ff" stroke="#63b8ff" points="485.34,-149.81 489.56,-140.09 480.2,-145.06 485.34,-149.81"/>
</a>
</g>
</g>
<!-- Node13 -->
<g id="Node000013" class="node">
<title>Node13</title>
<g id="a_Node000013"><a xlink:href="spec_2align_8h.html" target="_top" xlink:title="ODP alignments.">
<polygon fill="white" stroke="#666666" points="425.5,-140 311.5,-140 311.5,-121 425.5,-121 425.5,-140"/>
<text text-anchor="middle" x="368.5" y="-128" font-family="Helvetica,sans-Serif" font-size="10.00">odp/api/spec/align.h</text>
</a>
</g>
</g>
<!-- Node11&#45;&gt;Node13 -->
<g id="edge13_Node000011_Node000013" class="edge">
<title>Node11&#45;&gt;Node13</title>
<g id="a_edge13_Node000011_Node000013"><a xlink:title=" ">
<path fill="none" stroke="#63b8ff" d="M435.65,-175.98C423.36,-167.84 404.59,-155.41 390.02,-145.76"/>
<polygon fill="#63b8ff" stroke="#63b8ff" points="391.86,-142.78 381.59,-140.17 387.99,-148.61 391.86,-142.78"/>
</a>
</g>
</g>
<!-- Node13&#45;&gt;Node5 -->
<g id="edge14_Node000013_Node000005" class="edge">
<title>Node13&#45;&gt;Node5</title>
<g id="a_edge14_Node000013_Node000005"><a xlink:title=" ">
<path fill="none" stroke="#63b8ff" d="M388.58,-120.98C408.87,-112.38 440.46,-98.99 463.67,-89.15"/>
<polygon fill="#63b8ff" stroke="#63b8ff" points="465.21,-92.3 473.05,-85.17 462.48,-85.85 465.21,-92.3"/>
</a>
</g>
</g>
<!-- Node13&#45;&gt;Node6 -->
<g id="edge15_Node000013_Node000006" class="edge">
<title>Node13&#45;&gt;Node6</title>
<g id="a_edge15_Node000013_Node000006"><a xlink:title=" ">
<path fill="none" stroke="#63b8ff" d="M361.56,-120.75C355.63,-113.26 346.93,-102.28 339.68,-93.13"/>
<polygon fill="#63b8ff" stroke="#63b8ff" points="342.26,-90.75 333.31,-85.09 336.77,-95.1 342.26,-90.75"/>
</a>
</g>
</g>
<!-- Node15 -->
<g id="Node000015" class="node">
<title>Node15</title>
<g id="a_Node000015"><a xlink:title=" ">
<polygon fill="#e0e0e0" stroke="#999999" points="861.5,-140 747.5,-140 747.5,-121 861.5,-121 861.5,-140"/>
<text text-anchor="middle" x="804.5" y="-128" font-family="Helvetica,sans-Serif" font-size="10.00">odp/api/abi/thread.h</text>
</a>
</g>
</g>
<!-- Node14&#45;&gt;Node15 -->
<g id="edge18_Node000014_Node000015" class="edge">
<title>Node14&#45;&gt;Node15</title>
<g id="a_edge18_Node000014_Node000015"><a xlink:title=" ">
<path fill="none" stroke="#63b8ff" d="M690.35,-175.98C712.62,-167.3 747.4,-153.75 772.72,-143.88"/>
<polygon fill="#63b8ff" stroke="#63b8ff" points="774.21,-147.06 782.25,-140.17 771.66,-140.54 774.21,-147.06"/>
</a>
</g>
</g>
<!-- Node16 -->
<g id="Node000016" class="node">
<title>Node16</title>
<g id="a_Node000016"><a xlink:href="spec_2thread_8h.html" target="_top" xlink:title="ODP thread API.">
<polygon fill="white" stroke="#666666" points="729.5,-140 607.5,-140 607.5,-121 729.5,-121 729.5,-140"/>
<text text-anchor="middle" x="668.5" y="-128" font-family="Helvetica,sans-Serif" font-size="10.00">odp/api/spec/thread.h</text>
</a>
</g>
</g>
<!-- Node14&#45;&gt;Node16 -->
<g id="edge19_Node000014_Node000016" class="edge">
<title>Node14&#45;&gt;Node16</title>
<g id="a_edge19_Node000014_Node000016"><a xlink:title=" ">
<path fill="none" stroke="#63b8ff" d="M668.5,-175.75C668.5,-168.8 668.5,-158.85 668.5,-150.13"/>
<polygon fill="#63b8ff" stroke="#63b8ff" points="672,-150.09 668.5,-140.09 665,-150.09 672,-150.09"/>
</a>
</g>
</g>
<!-- Node16&#45;&gt;Node5 -->
<g id="edge20_Node000016_Node000005" class="edge">
<title>Node16&#45;&gt;Node5</title>
<g id="a_edge20_Node000016_Node000005"><a xlink:title=" ">
<path fill="none" stroke="#63b8ff" d="M640.38,-120.98C610.88,-112.05 564.31,-97.94 531.53,-88.02"/>
<polygon fill="#63b8ff" stroke="#63b8ff" points="532.42,-84.63 521.84,-85.08 530.39,-91.33 532.42,-84.63"/>
</a>
</g>
</g>
<!-- Node16&#45;&gt;Node6 -->
<g id="edge24_Node000016_Node000006" class="edge">
<title>Node16&#45;&gt;Node6</title>
<g id="a_edge24_Node000016_Node000006"><a xlink:title=" ">
<path fill="none" stroke="#63b8ff" d="M613.55,-120.98C553.06,-111.61 455.89,-96.55 391.62,-86.59"/>
<polygon fill="#63b8ff" stroke="#63b8ff" points="392.01,-83.11 381.6,-85.04 390.94,-90.03 392.01,-83.11"/>
</a>
</g>
</g>
<!-- Node17 -->
<g id="Node000017" class="node">
<title>Node17</title>
<g id="a_Node000017"><a xlink:href="thread__types_8h.html" target="_top" xlink:title="ODP thread.">
<polygon fill="white" stroke="#666666" points="732.5,-85 604.5,-85 604.5,-66 732.5,-66 732.5,-85"/>
<text text-anchor="middle" x="668.5" y="-73" font-family="Helvetica,sans-Serif" font-size="10.00">odp/api/thread_types.h</text>
</a>
</g>
</g>
<!-- Node16&#45;&gt;Node17 -->
<g id="edge21_Node000016_Node000017" class="edge">
<title>Node16&#45;&gt;Node17</title>
<g id="a_edge21_Node000016_Node000017"><a xlink:title=" ">
<path fill="none" stroke="#63b8ff" d="M668.5,-120.75C668.5,-113.8 668.5,-103.85 668.5,-95.13"/>
<polygon fill="#63b8ff" stroke="#63b8ff" points="672,-95.09 668.5,-85.09 665,-95.09 672,-95.09"/>
</a>
</g>
</g>
<!-- Node18 -->
<g id="Node000018" class="node">
<title>Node18</title>
<g id="a_Node000018"><a xlink:title=" ">
<polygon fill="#e0e0e0" stroke="#999999" points="657,-30 552,-30 552,0 657,0 657,-30"/>
<text text-anchor="start" x="560" y="-18" font-family="Helvetica,sans-Serif" font-size="10.00">odp/api/abi/thread</text>
<text text-anchor="middle" x="604.5" y="-7" font-family="Helvetica,sans-Serif" font-size="10.00">_types.h</text>
</a>
</g>
</g>
<!-- Node17&#45;&gt;Node18 -->
<g id="edge22_Node000017_Node000018" class="edge">
<title>Node17&#45;&gt;Node18</title>
<g id="a_edge22_Node000017_Node000018"><a xlink:title=" ">
<path fill="none" stroke="#63b8ff" d="M659.06,-65.87C650.77,-58.3 638.39,-46.98 627.51,-37.04"/>
<polygon fill="#63b8ff" stroke="#63b8ff" points="629.68,-34.28 619.94,-30.11 624.96,-39.44 629.68,-34.28"/>
</a>
</g>
</g>
<!-- Node19 -->
<g id="Node000019" class="node">
<title>Node19</title>
<g id="a_Node000019"><a xlink:href="spec_2thread__types_8h.html" target="_top" xlink:title="ODP thread API types.">
<polygon fill="white" stroke="#666666" points="788,-30 675,-30 675,0 788,0 788,-30"/>
<text text-anchor="start" x="683" y="-18" font-family="Helvetica,sans-Serif" font-size="10.00">odp/api/spec/thread</text>
<text text-anchor="middle" x="731.5" y="-7" font-family="Helvetica,sans-Serif" font-size="10.00">_types.h</text>
</a>
</g>
</g>
<!-- Node17&#45;&gt;Node19 -->
<g id="edge23_Node000017_Node000019" class="edge">
<title>Node17&#45;&gt;Node19</title>
<g id="a_edge23_Node000017_Node000019"><a xlink:title=" ">
<path fill="none" stroke="#63b8ff" d="M677.8,-65.87C685.95,-58.3 698.14,-46.98 708.84,-37.04"/>
<polygon fill="#63b8ff" stroke="#63b8ff" points="711.35,-39.48 716.3,-30.11 706.59,-34.35 711.35,-39.48"/>
</a>
</g>
</g>
</g>
</svg>
