<?xml version="1.0" encoding="UTF-8" standalone="no"?>
<!DOCTYPE svg PUBLIC "-//W3C//DTD SVG 1.1//EN"
 "http://www.w3.org/Graphics/SVG/1.1/DTD/svg11.dtd">
<!-- Generated by graphviz version 2.43.0 (0)
 -->
<!-- Title: cpumask.h Pages: 1 -->
<svg width="404pt" height="308pt"
 viewBox="0.00 0.00 404.00 308.00" xmlns="http://www.w3.org/2000/svg" xmlns:xlink="http://www.w3.org/1999/xlink">
<g id="graph0" class="graph" transform="scale(1 1) rotate(0) translate(4 304)">
<title>cpumask.h</title>
<polygon fill="white" stroke="transparent" points="-4,4 -4,-304 400,-304 400,4 -4,4"/>
<!-- Node1 -->
<g id="node1" class="node">
<title>Node1</title>
<g id="a_node1"><a xlink:title="ODP CPU masks and enumeration.">
<polygon fill="#bfbfbf" stroke="black" points="127.5,-280.5 127.5,-299.5 197.5,-299.5 197.5,-280.5 127.5,-280.5"/>
<text text-anchor="middle" x="162.5" y="-287.5" font-family="Helvetica,sans-Serif" font-size="10.00">cpumask.h</text>
</a>
</g>
</g>
<!-- Node2 -->
<g id="node2" class="node">
<title>Node2</title>
<g id="a_node2"><a xlink:href="align_8h.html" target="_top" xlink:title="ODP alignments.">
<polygon fill="white" stroke="black" points="86,-112.5 86,-131.5 175,-131.5 175,-112.5 86,-112.5"/>
<text text-anchor="middle" x="130.5" y="-119.5" font-family="Helvetica,sans-Serif" font-size="10.00">odp/api/align.h</text>
</a>
</g>
</g>
<!-- Node1&#45;&gt;Node2 -->
<g id="edge1" class="edge">
<title>Node1&#45;&gt;Node2</title>
<path fill="none" stroke="midnightblue" d="M142.42,-280.45C127.55,-273.04 108.11,-260.84 97.5,-244 79.37,-215.22 76.03,-199.64 88.5,-168 93.01,-156.55 101.97,-146.29 110.45,-138.47"/>
<polygon fill="midnightblue" stroke="midnightblue" points="112.97,-140.93 118.29,-131.76 108.41,-135.61 112.97,-140.93"/>
</g>
<!-- Node7 -->
<g id="node7" class="node">
<title>Node7</title>
<g id="a_node7"><a xlink:href="std__types_8h.html" target="_top" xlink:title="Standard C language types and definitions for ODP.">
<polygon fill="white" stroke="black" points="106.5,-224.5 106.5,-243.5 218.5,-243.5 218.5,-224.5 106.5,-224.5"/>
<text text-anchor="middle" x="162.5" y="-231.5" font-family="Helvetica,sans-Serif" font-size="10.00">odp/api/std_types.h</text>
</a>
</g>
</g>
<!-- Node1&#45;&gt;Node7 -->
<g id="edge6" class="edge">
<title>Node1&#45;&gt;Node7</title>
<path fill="none" stroke="midnightblue" d="M162.5,-280.08C162.5,-273.01 162.5,-262.86 162.5,-253.99"/>
<polygon fill="midnightblue" stroke="midnightblue" points="166,-253.75 162.5,-243.75 159,-253.75 166,-253.75"/>
</g>
<!-- Node11 -->
<g id="node11" class="node">
<title>Node11</title>
<g id="a_node11"><a xlink:title=" ">
<polygon fill="white" stroke="#bfbfbf" points="236.5,-224.5 236.5,-243.5 290.5,-243.5 290.5,-224.5 236.5,-224.5"/>
<text text-anchor="middle" x="263.5" y="-231.5" font-family="Helvetica,sans-Serif" font-size="10.00">sched.h</text>
</a>
</g>
</g>
<!-- Node1&#45;&gt;Node11 -->
<g id="edge13" class="edge">
<title>Node1&#45;&gt;Node11</title>
<path fill="none" stroke="midnightblue" d="M178.73,-280.32C194.85,-271.7 219.8,-258.36 238.46,-248.39"/>
<polygon fill="midnightblue" stroke="midnightblue" points="240.14,-251.46 247.31,-243.65 236.84,-245.28 240.14,-251.46"/>
</g>
<!-- Node3 -->
<g id="node3" class="node">
<title>Node3</title>
<g id="a_node3"><a xlink:title=" ">
<polygon fill="white" stroke="#bfbfbf" points="0,-56.5 0,-75.5 107,-75.5 107,-56.5 0,-56.5"/>
<text text-anchor="middle" x="53.5" y="-63.5" font-family="Helvetica,sans-Serif" font-size="10.00">odp/api/abi/align.h</text>
</a>
</g>
</g>
<!-- Node2&#45;&gt;Node3 -->
<g id="edge2" class="edge">
<title>Node2&#45;&gt;Node3</title>
<path fill="none" stroke="midnightblue" d="M118.13,-112.32C106.34,-104.06 88.37,-91.45 74.36,-81.63"/>
<polygon fill="midnightblue" stroke="midnightblue" points="76.04,-78.53 65.84,-75.65 72.02,-84.26 76.04,-78.53"/>
</g>
<!-- Node4 -->
<g id="node4" class="node">
<title>Node4</title>
<g id="a_node4"><a xlink:href="spec_2align_8h.html" target="_top" xlink:title="ODP alignments.">
<polygon fill="white" stroke="black" points="125.5,-56.5 125.5,-75.5 239.5,-75.5 239.5,-56.5 125.5,-56.5"/>
<text text-anchor="middle" x="182.5" y="-63.5" font-family="Helvetica,sans-Serif" font-size="10.00">odp/api/spec/align.h</text>
</a>
</g>
</g>
<!-- Node2&#45;&gt;Node4 -->
<g id="edge3" class="edge">
<title>Node2&#45;&gt;Node4</title>
<path fill="none" stroke="midnightblue" d="M139.09,-112.08C146.66,-104.22 157.88,-92.57 167.01,-83.08"/>
<polygon fill="midnightblue" stroke="midnightblue" points="169.66,-85.38 174.07,-75.75 164.62,-80.53 169.66,-85.38"/>
</g>
<!-- Node5 -->
<g id="node5" class="node">
<title>Node5</title>
<g id="a_node5"><a xlink:title=" ">
<polygon fill="white" stroke="#bfbfbf" points="120,-0.5 120,-19.5 241,-19.5 241,-0.5 120,-0.5"/>
<text text-anchor="middle" x="180.5" y="-7.5" font-family="Helvetica,sans-Serif" font-size="10.00">odp/visibility_begin.h</text>
</a>
</g>
</g>
<!-- Node4&#45;&gt;Node5 -->
<g id="edge4" class="edge">
<title>Node4&#45;&gt;Node5</title>
<path fill="none" stroke="midnightblue" d="M182.17,-56.08C181.91,-49.01 181.53,-38.86 181.2,-29.99"/>
<polygon fill="midnightblue" stroke="midnightblue" points="184.69,-29.61 180.82,-19.75 177.7,-29.87 184.69,-29.61"/>
</g>
<!-- Node6 -->
<g id="node6" class="node">
<title>Node6</title>
<g id="a_node6"><a xlink:title=" ">
<polygon fill="white" stroke="#bfbfbf" points="259.5,-0.5 259.5,-19.5 371.5,-19.5 371.5,-0.5 259.5,-0.5"/>
<text text-anchor="middle" x="315.5" y="-7.5" font-family="Helvetica,sans-Serif" font-size="10.00">odp/visibility_end.h</text>
</a>
</g>
</g>
<!-- Node4&#45;&gt;Node6 -->
<g id="edge5" class="edge">
<title>Node4&#45;&gt;Node6</title>
<path fill="none" stroke="midnightblue" d="M203.57,-56.44C225.56,-47.52 260.23,-33.44 285.16,-23.32"/>
<polygon fill="midnightblue" stroke="midnightblue" points="286.58,-26.52 294.52,-19.52 283.94,-20.04 286.58,-26.52"/>
</g>
<!-- Node8 -->
<g id="node8" class="node">
<title>Node8</title>
<g id="a_node8"><a xlink:title=" ">
<polygon fill="white" stroke="#bfbfbf" points="97.5,-168.5 97.5,-187.5 227.5,-187.5 227.5,-168.5 97.5,-168.5"/>
<text text-anchor="middle" x="162.5" y="-175.5" font-family="Helvetica,sans-Serif" font-size="10.00">odp/api/abi/std_types.h</text>
</a>
</g>
</g>
<!-- Node7&#45;&gt;Node8 -->
<g id="edge7" class="edge">
<title>Node7&#45;&gt;Node8</title>
<path fill="none" stroke="midnightblue" d="M162.5,-224.08C162.5,-217.01 162.5,-206.86 162.5,-197.99"/>
<polygon fill="midnightblue" stroke="midnightblue" points="166,-197.75 162.5,-187.75 159,-197.75 166,-197.75"/>
</g>
<!-- Node9 -->
<g id="node9" class="node">
<title>Node9</title>
<g id="a_node9"><a xlink:href="spec_2std__types_8h.html" target="_top" xlink:title="Common types and definitions for ODP API files.">
<polygon fill="white" stroke="black" points="246,-168.5 246,-187.5 383,-187.5 383,-168.5 246,-168.5"/>
<text text-anchor="middle" x="314.5" y="-175.5" font-family="Helvetica,sans-Serif" font-size="10.00">odp/api/spec/std_types.h</text>
</a>
</g>
</g>
<!-- Node7&#45;&gt;Node9 -->
<g id="edge8" class="edge">
<title>Node7&#45;&gt;Node9</title>
<path fill="none" stroke="midnightblue" d="M186.58,-224.44C212.04,-215.4 252.39,-201.06 280.96,-190.92"/>
<polygon fill="midnightblue" stroke="midnightblue" points="282.28,-194.16 290.53,-187.52 279.93,-187.57 282.28,-194.16"/>
</g>
<!-- Node9&#45;&gt;Node2 -->
<g id="edge11" class="edge">
<title>Node9&#45;&gt;Node2</title>
<path fill="none" stroke="midnightblue" d="M285.34,-168.44C253.99,-159.24 203.97,-144.56 169.3,-134.39"/>
<polygon fill="midnightblue" stroke="midnightblue" points="170.1,-130.97 159.52,-131.52 168.13,-137.69 170.1,-130.97"/>
</g>
<!-- Node9&#45;&gt;Node5 -->
<g id="edge9" class="edge">
<title>Node9&#45;&gt;Node5</title>
<path fill="none" stroke="midnightblue" d="M311.41,-168.19C303.6,-146.9 281.35,-91.78 248.5,-56 236.75,-43.21 220.65,-32.34 207.06,-24.49"/>
<polygon fill="midnightblue" stroke="midnightblue" points="208.58,-21.33 198.14,-19.55 205.19,-27.46 208.58,-21.33"/>
</g>
<!-- Node9&#45;&gt;Node6 -->
<g id="edge12" class="edge">
<title>Node9&#45;&gt;Node6</title>
<path fill="none" stroke="midnightblue" d="M314.55,-168.08C314.71,-141.95 315.17,-65.21 315.39,-29.58"/>
<polygon fill="midnightblue" stroke="midnightblue" points="318.89,-29.59 315.45,-19.57 311.89,-29.55 318.89,-29.59"/>
</g>
<!-- Node10 -->
<g id="node10" class="node">
<title>Node10</title>
<g id="a_node10"><a xlink:title=" ">
<polygon fill="white" stroke="#bfbfbf" points="343,-112.5 343,-131.5 396,-131.5 396,-112.5 343,-112.5"/>
<text text-anchor="middle" x="369.5" y="-119.5" font-family="Helvetica,sans-Serif" font-size="10.00">stdint.h</text>
</a>
</g>
</g>
<!-- Node9&#45;&gt;Node10 -->
<g id="edge10" class="edge">
<title>Node9&#45;&gt;Node10</title>
<path fill="none" stroke="midnightblue" d="M323.58,-168.08C331.67,-160.14 343.7,-148.34 353.41,-138.8"/>
<polygon fill="midnightblue" stroke="midnightblue" points="355.9,-141.25 360.59,-131.75 351,-136.26 355.9,-141.25"/>
</g>
</g>
</svg>
