<?xml version="1.0" encoding="UTF-8" standalone="no"?>
<!DOCTYPE svg PUBLIC "-//W3C//DTD SVG 1.1//EN"
 "http://www.w3.org/Graphics/SVG/1.1/DTD/svg11.dtd">
<!-- Generated by graphviz version 2.43.0 (0)
 -->
<!-- Title: align.h Pages: 1 -->
<svg width="314pt" height="137pt"
 viewBox="0.00 0.00 313.50 137.00" xmlns="http://www.w3.org/2000/svg" xmlns:xlink="http://www.w3.org/1999/xlink">
<g id="graph0" class="graph" transform="scale(1 1) rotate(0) translate(4 133)">
<title>align.h</title>
<!-- Node1 -->
<g id="Node000001" class="node">
<title>Node1</title>
<g id="a_Node000001"><a xlink:title="ODP alignments.">
<polygon fill="#999999" stroke="#666666" points="142.5,-129 92.5,-129 92.5,-110 142.5,-110 142.5,-129"/>
<text text-anchor="middle" x="117.5" y="-117" font-family="Helvetica,sans-Serif" font-size="10.00">align.h</text>
</a>
</g>
</g>
<!-- Node2 -->
<g id="Node000002" class="node">
<title>Node2</title>
<g id="a_Node000002"><a xlink:title=" ">
<polygon fill="#e0e0e0" stroke="#999999" points="107,-74 0,-74 0,-55 107,-55 107,-74"/>
<text text-anchor="middle" x="53.5" y="-62" font-family="Helvetica,sans-Serif" font-size="10.00">odp/api/abi/align.h</text>
</a>
</g>
</g>
<!-- Node1&#45;&gt;Node2 -->
<g id="edge1_Node000001_Node000002" class="edge">
<title>Node1&#45;&gt;Node2</title>
<g id="a_edge1_Node000001_Node000002"><a xlink:title=" ">
<path fill="none" stroke="#63b8ff" d="M107.22,-109.98C97.66,-102.07 83.22,-90.11 71.72,-80.58"/>
<polygon fill="#63b8ff" stroke="#63b8ff" points="73.9,-77.85 63.97,-74.17 69.44,-83.24 73.9,-77.85"/>
</a>
</g>
</g>
<!-- Node3 -->
<g id="Node000003" class="node">
<title>Node3</title>
<g id="a_Node000003"><a xlink:href="spec_2align_8h.html" target="_top" xlink:title="ODP alignments.">
<polygon fill="white" stroke="#666666" points="239.5,-74 125.5,-74 125.5,-55 239.5,-55 239.5,-74"/>
<text text-anchor="middle" x="182.5" y="-62" font-family="Helvetica,sans-Serif" font-size="10.00">odp/api/spec/align.h</text>
</a>
</g>
</g>
<!-- Node1&#45;&gt;Node3 -->
<g id="edge2_Node000001_Node000003" class="edge">
<title>Node1&#45;&gt;Node3</title>
<g id="a_edge2_Node000001_Node000003"><a xlink:title=" ">
<path fill="none" stroke="#63b8ff" d="M127.94,-109.98C137.65,-102.07 152.32,-90.11 164,-80.58"/>
<polygon fill="#63b8ff" stroke="#63b8ff" points="166.33,-83.2 171.87,-74.17 161.9,-77.78 166.33,-83.2"/>
</a>
</g>
</g>
<!-- Node4 -->
<g id="Node000004" class="node">
<title>Node4</title>
<g id="a_Node000004"><a xlink:title=" ">
<polygon fill="#e0e0e0" stroke="#999999" points="175,-19 54,-19 54,0 175,0 175,-19"/>
<text text-anchor="middle" x="114.5" y="-7" font-family="Helvetica,sans-Serif" font-size="10.00">odp/visibility_begin.h</text>
</a>
</g>
</g>
<!-- Node3&#45;&gt;Node4 -->
<g id="edge3_Node000003_Node000004" class="edge">
<title>Node3&#45;&gt;Node4</title>
<g id="a_edge3_Node000003_Node000004"><a xlink:title=" ">
<path fill="none" stroke="#63b8ff" d="M171.57,-54.98C161.42,-47.07 146.08,-35.11 133.85,-25.58"/>
<polygon fill="#63b8ff" stroke="#63b8ff" points="135.66,-22.56 125.62,-19.17 131.36,-28.08 135.66,-22.56"/>
</a>
</g>
</g>
<!-- Node5 -->
<g id="Node000005" class="node">
<title>Node5</title>
<g id="a_Node000005"><a xlink:title=" ">
<polygon fill="#e0e0e0" stroke="#999999" points="305.5,-19 193.5,-19 193.5,0 305.5,0 305.5,-19"/>
<text text-anchor="middle" x="249.5" y="-7" font-family="Helvetica,sans-Serif" font-size="10.00">odp/visibility_end.h</text>
</a>
</g>
</g>
<!-- Node3&#45;&gt;Node5 -->
<g id="edge4_Node000003_Node000005" class="edge">
<title>Node3&#45;&gt;Node5</title>
<g id="a_edge4_Node000003_Node000005"><a xlink:title=" ">
<path fill="none" stroke="#63b8ff" d="M193.26,-54.98C203.27,-47.07 218.39,-35.11 230.43,-25.58"/>
<polygon fill="#63b8ff" stroke="#63b8ff" points="232.87,-28.12 238.54,-19.17 228.53,-22.63 232.87,-28.12"/>
</a>
</g>
</g>
</g>
</svg>
