<?xml version="1.0" encoding="UTF-8" standalone="no"?>
<!DOCTYPE svg PUBLIC "-//W3C//DTD SVG 1.1//EN"
 "http://www.w3.org/Graphics/SVG/1.1/DTD/svg11.dtd">
<!-- Generated by graphviz version 2.43.0 (0)
 -->
<!-- Title: atomic.h Pages: 1 -->
<svg width="550pt" height="84pt"
 viewBox="0.00 0.00 549.50 84.00" xmlns="http://www.w3.org/2000/svg" xmlns:xlink="http://www.w3.org/1999/xlink">
<g id="graph0" class="graph" transform="scale(1 1) rotate(0) translate(4 80)">
<title>atomic.h</title>
<polygon fill="white" stroke="transparent" points="-4,4 -4,-80 545.5,-80 545.5,4 -4,4"/>
<!-- Node1 -->
<g id="node1" class="node">
<title>Node1</title>
<g id="a_node1"><a xlink:title="ODP atomic operations.">
<polygon fill="#bfbfbf" stroke="black" points="200,-56.5 200,-75.5 259,-75.5 259,-56.5 200,-56.5"/>
<text text-anchor="middle" x="229.5" y="-63.5" font-family="Helvetica,sans-Serif" font-size="10.00">atomic.h</text>
</a>
</g>
</g>
<!-- Node2 -->
<g id="node2" class="node">
<title>Node2</title>
<g id="a_node2"><a xlink:href="abi-default_2barrier_8h.html" target="_top" xlink:title="ODP barrier.">
<polygon fill="white" stroke="black" points="0,-0.5 0,-19.5 57,-19.5 57,-0.5 0,-0.5"/>
<text text-anchor="middle" x="28.5" y="-7.5" font-family="Helvetica,sans-Serif" font-size="10.00">barrier.h</text>
</a>
</g>
</g>
<!-- Node1&#45;&gt;Node2 -->
<g id="edge1" class="edge">
<title>Node1&#45;&gt;Node2</title>
<path fill="none" stroke="midnightblue" d="M189.88,-54.35C150.83,-43.86 92.1,-28.09 57.3,-18.74"/>
<polygon fill="midnightblue" stroke="midnightblue" points="189.28,-57.82 199.84,-57.03 191.09,-51.06 189.28,-57.82"/>
</g>
<!-- Node3 -->
<g id="node3" class="node">
<title>Node3</title>
<g id="a_node3"><a xlink:href="abi-default_2rwlock_8h.html" target="_top" xlink:title="ODP rwlock.">
<polygon fill="white" stroke="black" points="75.5,-0.5 75.5,-19.5 133.5,-19.5 133.5,-0.5 75.5,-0.5"/>
<text text-anchor="middle" x="104.5" y="-7.5" font-family="Helvetica,sans-Serif" font-size="10.00">rwlock.h</text>
</a>
</g>
</g>
<!-- Node1&#45;&gt;Node3 -->
<g id="edge2" class="edge">
<title>Node1&#45;&gt;Node3</title>
<path fill="none" stroke="midnightblue" d="M200.26,-52.37C176.85,-42.26 144.66,-28.35 124.21,-19.52"/>
<polygon fill="midnightblue" stroke="midnightblue" points="199.13,-55.69 209.69,-56.44 201.9,-49.26 199.13,-55.69"/>
</g>
<!-- Node4 -->
<g id="node4" class="node">
<title>Node4</title>
<g id="a_node4"><a xlink:href="abi-default_2ticketlock_8h.html" target="_top" xlink:title="ODP ticketlock.">
<polygon fill="white" stroke="black" points="152,-0.5 152,-19.5 225,-19.5 225,-0.5 152,-0.5"/>
<text text-anchor="middle" x="188.5" y="-7.5" font-family="Helvetica,sans-Serif" font-size="10.00">ticketlock.h</text>
</a>
</g>
</g>
<!-- Node1&#45;&gt;Node4 -->
<g id="edge3" class="edge">
<title>Node1&#45;&gt;Node4</title>
<path fill="none" stroke="midnightblue" d="M216.48,-47.86C209.38,-38.5 200.9,-27.33 195.14,-19.75"/>
<polygon fill="midnightblue" stroke="midnightblue" points="213.89,-50.24 222.73,-56.08 219.47,-46 213.89,-50.24"/>
</g>
<!-- Node5 -->
<g id="node5" class="node">
<title>Node5</title>
<g id="a_node5"><a xlink:href="barrier_8h.html" target="_top" xlink:title="ODP execution barriers.">
<polygon fill="white" stroke="black" points="243,-0.5 243,-19.5 300,-19.5 300,-0.5 243,-0.5"/>
<text text-anchor="middle" x="271.5" y="-7.5" font-family="Helvetica,sans-Serif" font-size="10.00">barrier.h</text>
</a>
</g>
</g>
<!-- Node1&#45;&gt;Node5 -->
<g id="edge4" class="edge">
<title>Node1&#45;&gt;Node5</title>
<path fill="none" stroke="midnightblue" d="M242.61,-48.14C249.93,-38.74 258.74,-27.4 264.69,-19.75"/>
<polygon fill="midnightblue" stroke="midnightblue" points="239.81,-46.04 236.44,-56.08 245.34,-50.34 239.81,-46.04"/>
</g>
<!-- Node6 -->
<g id="node6" class="node">
<title>Node6</title>
<g id="a_node6"><a xlink:href="rwlock__inlines_8h_source.html" target="_top" xlink:title=" ">
<polygon fill="white" stroke="black" points="318,-0.5 318,-19.5 413,-19.5 413,-0.5 318,-0.5"/>
<text text-anchor="middle" x="365.5" y="-7.5" font-family="Helvetica,sans-Serif" font-size="10.00">rwlock_inlines.h</text>
</a>
</g>
</g>
<!-- Node1&#45;&gt;Node6 -->
<g id="edge5" class="edge">
<title>Node1&#45;&gt;Node6</title>
<path fill="none" stroke="midnightblue" d="M260.63,-52.64C286.16,-42.5 321.61,-28.43 344.05,-19.52"/>
<polygon fill="midnightblue" stroke="midnightblue" points="259.05,-49.5 251.05,-56.44 261.64,-56.01 259.05,-49.5"/>
</g>
<!-- Node7 -->
<g id="node7" class="node">
<title>Node7</title>
<g id="a_node7"><a xlink:href="ticketlock__inlines_8h_source.html" target="_top" xlink:title=" ">
<polygon fill="white" stroke="black" points="431.5,-0.5 431.5,-19.5 541.5,-19.5 541.5,-0.5 431.5,-0.5"/>
<text text-anchor="middle" x="486.5" y="-7.5" font-family="Helvetica,sans-Serif" font-size="10.00">ticketlock_inlines.h</text>
</a>
</g>
</g>
<!-- Node1&#45;&gt;Node7 -->
<g id="edge6" class="edge">
<title>Node1&#45;&gt;Node7</title>
<path fill="none" stroke="midnightblue" d="M269.23,-56.65C317.14,-46.59 397.23,-29.76 445.64,-19.59"/>
<polygon fill="midnightblue" stroke="midnightblue" points="268.3,-53.27 259.23,-58.75 269.74,-60.12 268.3,-53.27"/>
</g>
</g>
</svg>
