<?xml version="1.0" encoding="UTF-8" standalone="no"?>
<!DOCTYPE svg PUBLIC "-//W3C//DTD SVG 1.1//EN"
 "http://www.w3.org/Graphics/SVG/1.1/DTD/svg11.dtd">
<!-- Generated by graphviz version 2.43.0 (0)
 -->
<!-- Title: byteorder.h Pages: 1 -->
<svg width="347pt" height="140pt"
 viewBox="0.00 0.00 346.50 140.00" xmlns="http://www.w3.org/2000/svg" xmlns:xlink="http://www.w3.org/1999/xlink">
<g id="graph0" class="graph" transform="scale(1 1) rotate(0) translate(4 136)">
<title>byteorder.h</title>
<polygon fill="white" stroke="transparent" points="-4,4 -4,-136 342.5,-136 342.5,4 -4,4"/>
<!-- Node1 -->
<g id="node1" class="node">
<title>Node1</title>
<g id="a_node1"><a xlink:title="ODP byteorder.">
<polygon fill="#bfbfbf" stroke="black" points="103.5,-112.5 103.5,-131.5 175.5,-131.5 175.5,-112.5 103.5,-112.5"/>
<text text-anchor="middle" x="139.5" y="-119.5" font-family="Helvetica,sans-Serif" font-size="10.00">byteorder.h</text>
</a>
</g>
</g>
<!-- Node2 -->
<g id="node2" class="node">
<title>Node2</title>
<g id="a_node2"><a xlink:title=" ">
<polygon fill="white" stroke="#bfbfbf" points="0,-56.5 0,-75.5 129,-75.5 129,-56.5 0,-56.5"/>
<text text-anchor="middle" x="64.5" y="-63.5" font-family="Helvetica,sans-Serif" font-size="10.00">odp/api/abi/byteorder.h</text>
</a>
</g>
</g>
<!-- Node1&#45;&gt;Node2 -->
<g id="edge1" class="edge">
<title>Node1&#45;&gt;Node2</title>
<path fill="none" stroke="midnightblue" d="M127.45,-112.32C116.04,-104.11 98.67,-91.6 85.07,-81.81"/>
<polygon fill="midnightblue" stroke="midnightblue" points="86.93,-78.84 76.77,-75.83 82.84,-84.52 86.93,-78.84"/>
</g>
<!-- Node3 -->
<g id="node3" class="node">
<title>Node3</title>
<g id="a_node3"><a xlink:href="spec_2byteorder_8h.html" target="_top" xlink:title="ODP byteorder.">
<polygon fill="white" stroke="black" points="147,-56.5 147,-75.5 284,-75.5 284,-56.5 147,-56.5"/>
<text text-anchor="middle" x="215.5" y="-63.5" font-family="Helvetica,sans-Serif" font-size="10.00">odp/api/spec/byteorder.h</text>
</a>
</g>
</g>
<!-- Node1&#45;&gt;Node3 -->
<g id="edge2" class="edge">
<title>Node1&#45;&gt;Node3</title>
<path fill="none" stroke="midnightblue" d="M151.71,-112.32C163.28,-104.11 180.88,-91.6 194.66,-81.81"/>
<polygon fill="midnightblue" stroke="midnightblue" points="196.94,-84.48 203.07,-75.83 192.89,-78.77 196.94,-84.48"/>
</g>
<!-- Node4 -->
<g id="node4" class="node">
<title>Node4</title>
<g id="a_node4"><a xlink:title=" ">
<polygon fill="white" stroke="#bfbfbf" points="87,-0.5 87,-19.5 208,-19.5 208,-0.5 87,-0.5"/>
<text text-anchor="middle" x="147.5" y="-7.5" font-family="Helvetica,sans-Serif" font-size="10.00">odp/visibility_begin.h</text>
</a>
</g>
</g>
<!-- Node3&#45;&gt;Node4 -->
<g id="edge3" class="edge">
<title>Node3&#45;&gt;Node4</title>
<path fill="none" stroke="midnightblue" d="M204.57,-56.32C194.33,-48.18 178.78,-35.84 166.5,-26.09"/>
<polygon fill="midnightblue" stroke="midnightblue" points="168.63,-23.31 158.62,-19.83 164.28,-28.79 168.63,-23.31"/>
</g>
<!-- Node5 -->
<g id="node5" class="node">
<title>Node5</title>
<g id="a_node5"><a xlink:title=" ">
<polygon fill="white" stroke="#bfbfbf" points="226.5,-0.5 226.5,-19.5 338.5,-19.5 338.5,-0.5 226.5,-0.5"/>
<text text-anchor="middle" x="282.5" y="-7.5" font-family="Helvetica,sans-Serif" font-size="10.00">odp/visibility_end.h</text>
</a>
</g>
</g>
<!-- Node3&#45;&gt;Node5 -->
<g id="edge4" class="edge">
<title>Node3&#45;&gt;Node5</title>
<path fill="none" stroke="midnightblue" d="M226.26,-56.32C236.27,-48.26 251.39,-36.08 263.43,-26.37"/>
<polygon fill="midnightblue" stroke="midnightblue" points="265.95,-28.83 271.54,-19.83 261.56,-23.38 265.95,-28.83"/>
</g>
</g>
</svg>
