<?xml version="1.0" encoding="UTF-8" standalone="no"?>
<!DOCTYPE svg PUBLIC "-//W3C//DTD SVG 1.1//EN"
 "http://www.w3.org/Graphics/SVG/1.1/DTD/svg11.dtd">
<!-- Generated by graphviz version 2.43.0 (0)
 -->
<!-- Title: comp.h Pages: 1 -->
<svg width="1389pt" height="878pt"
 viewBox="0.00 0.00 1389.00 878.00" xmlns="http://www.w3.org/2000/svg" xmlns:xlink="http://www.w3.org/1999/xlink">
<g id="graph0" class="graph" transform="scale(1 1) rotate(0) translate(4 874)">
<title>comp.h</title>
<polygon fill="white" stroke="transparent" points="-4,4 -4,-874 1385,-874 1385,4 -4,4"/>
<!-- Node1 -->
<g id="node1" class="node">
<title>Node1</title>
<g id="a_node1"><a xlink:title="ODP crypto.">
<polygon fill="#bfbfbf" stroke="black" points="742.5,-850.5 742.5,-869.5 795.5,-869.5 795.5,-850.5 742.5,-850.5"/>
<text text-anchor="middle" x="769" y="-857.5" font-family="Helvetica,sans-Serif" font-size="10.00">comp.h</text>
</a>
</g>
</g>
<!-- Node2 -->
<g id="node2" class="node">
<title>Node2</title>
<g id="a_node2"><a xlink:title=" ">
<polygon fill="white" stroke="#bfbfbf" points="648,-794.5 648,-813.5 758,-813.5 758,-794.5 648,-794.5"/>
<text text-anchor="middle" x="703" y="-801.5" font-family="Helvetica,sans-Serif" font-size="10.00">odp/api/abi/comp.h</text>
</a>
</g>
</g>
<!-- Node1&#45;&gt;Node2 -->
<g id="edge1" class="edge">
<title>Node1&#45;&gt;Node2</title>
<path fill="none" stroke="midnightblue" d="M758.4,-850.32C748.54,-842.26 733.65,-830.08 721.78,-820.37"/>
<polygon fill="midnightblue" stroke="midnightblue" points="723.75,-817.46 713.8,-813.83 719.32,-822.88 723.75,-817.46"/>
</g>
<!-- Node3 -->
<g id="node3" class="node">
<title>Node3</title>
<g id="a_node3"><a xlink:href="spec_2comp_8h.html" target="_top" xlink:title="ODP Compression.">
<polygon fill="white" stroke="black" points="776.5,-794.5 776.5,-813.5 893.5,-813.5 893.5,-794.5 776.5,-794.5"/>
<text text-anchor="middle" x="835" y="-801.5" font-family="Helvetica,sans-Serif" font-size="10.00">odp/api/spec/comp.h</text>
</a>
</g>
</g>
<!-- Node1&#45;&gt;Node3 -->
<g id="edge2" class="edge">
<title>Node1&#45;&gt;Node3</title>
<path fill="none" stroke="midnightblue" d="M779.6,-850.32C789.46,-842.26 804.35,-830.08 816.22,-820.37"/>
<polygon fill="midnightblue" stroke="midnightblue" points="818.68,-822.88 824.2,-813.83 814.25,-817.46 818.68,-822.88"/>
</g>
<!-- Node4 -->
<g id="node4" class="node">
<title>Node4</title>
<g id="a_node4"><a xlink:title=" ">
<polygon fill="white" stroke="#bfbfbf" points="390.5,-0.5 390.5,-19.5 511.5,-19.5 511.5,-0.5 390.5,-0.5"/>
<text text-anchor="middle" x="451" y="-7.5" font-family="Helvetica,sans-Serif" font-size="10.00">odp/visibility_begin.h</text>
</a>
</g>
</g>
<!-- Node3&#45;&gt;Node4 -->
<g id="edge3" class="edge">
<title>Node3&#45;&gt;Node4</title>
<path fill="none" stroke="midnightblue" d="M776.41,-795.1C773.23,-794.72 770.08,-794.35 767,-794 597.11,-774.78 553.4,-781.12 384,-758 244.41,-738.95 210.4,-728.35 72,-702 39.93,-695.89 0,-720.14 0,-687.5 0,-687.5 0,-687.5 0,-132 0,-91.07 16.93,-77.1 52,-56 105.66,-23.73 280.48,-14.59 380,-12.01"/>
<polygon fill="midnightblue" stroke="midnightblue" points="380.37,-15.5 390.28,-11.76 380.2,-8.5 380.37,-15.5"/>
</g>
<!-- Node5 -->
<g id="node5" class="node">
<title>Node5</title>
<g id="a_node5"><a xlink:href="event__types_8h.html" target="_top" xlink:title="ODP event API type definitions.">
<polygon fill="white" stroke="black" points="198.5,-235.5 198.5,-254.5 323.5,-254.5 323.5,-235.5 198.5,-235.5"/>
<text text-anchor="middle" x="261" y="-242.5" font-family="Helvetica,sans-Serif" font-size="10.00">odp/api/event_types.h</text>
</a>
</g>
</g>
<!-- Node3&#45;&gt;Node5 -->
<g id="edge4" class="edge">
<title>Node3&#45;&gt;Node5</title>
<path fill="none" stroke="midnightblue" d="M776.39,-794.85C598.36,-770 76,-696.35 76,-687.5 76,-687.5 76,-687.5 76,-439.5 76,-368.81 82.31,-340.27 133,-291 150.07,-274.41 173.6,-263.91 195.84,-257.27"/>
<polygon fill="midnightblue" stroke="midnightblue" points="196.9,-260.61 205.61,-254.57 195.04,-253.86 196.9,-260.61"/>
</g>
<!-- Node8 -->
<g id="node8" class="node">
<title>Node8</title>
<g id="a_node8"><a xlink:title=" ">
<polygon fill="white" stroke="#bfbfbf" points="1008,-0.5 1008,-19.5 1120,-19.5 1120,-0.5 1008,-0.5"/>
<text text-anchor="middle" x="1064" y="-7.5" font-family="Helvetica,sans-Serif" font-size="10.00">odp/visibility_end.h</text>
</a>
</g>
</g>
<!-- Node3&#45;&gt;Node8 -->
<g id="edge59" class="edge">
<title>Node3&#45;&gt;Node8</title>
<path fill="none" stroke="midnightblue" d="M893.69,-802.87C1034.71,-800.97 1381,-786.27 1381,-687.5 1381,-687.5 1381,-687.5 1381,-132 1381,-91.07 1363.47,-78.07 1329,-56 1296.9,-35.45 1197.85,-22.8 1130.38,-16.34"/>
<polygon fill="midnightblue" stroke="midnightblue" points="1130.53,-12.84 1120.25,-15.39 1129.88,-19.81 1130.53,-12.84"/>
</g>
<!-- Node9 -->
<g id="node9" class="node">
<title>Node9</title>
<g id="a_node9"><a xlink:href="packet__types_8h.html" target="_top" xlink:title="ODP packet.">
<polygon fill="white" stroke="black" points="946.5,-738.5 946.5,-757.5 1075.5,-757.5 1075.5,-738.5 946.5,-738.5"/>
<text text-anchor="middle" x="1011" y="-745.5" font-family="Helvetica,sans-Serif" font-size="10.00">odp/api/packet_types.h</text>
</a>
</g>
</g>
<!-- Node3&#45;&gt;Node9 -->
<g id="edge9" class="edge">
<title>Node3&#45;&gt;Node9</title>
<path fill="none" stroke="midnightblue" d="M862.89,-794.44C892.75,-785.28 940.31,-770.69 973.46,-760.52"/>
<polygon fill="midnightblue" stroke="midnightblue" points="974.71,-763.8 983.24,-757.52 972.66,-757.1 974.71,-763.8"/>
</g>
<!-- Node16 -->
<g id="node16" class="node">
<title>Node16</title>
<g id="a_node16"><a xlink:href="std__types_8h.html" target="_top" xlink:title="Standard C language types and definitions for ODP.">
<polygon fill="white" stroke="black" points="854,-235.5 854,-254.5 966,-254.5 966,-235.5 854,-235.5"/>
<text text-anchor="middle" x="910" y="-242.5" font-family="Helvetica,sans-Serif" font-size="10.00">odp/api/std_types.h</text>
</a>
</g>
</g>
<!-- Node3&#45;&gt;Node16 -->
<g id="edge58" class="edge">
<title>Node3&#45;&gt;Node16</title>
<path fill="none" stroke="midnightblue" d="M837.35,-794.21C843.16,-772.8 859.06,-716.4 877,-671 907.39,-594.08 957,-585.7 957,-503 957,-503 957,-503 957,-372.5 957,-331.32 934.84,-287.05 920.95,-263.35"/>
<polygon fill="midnightblue" stroke="midnightblue" points="923.94,-261.52 915.76,-254.78 917.95,-265.15 923.94,-261.52"/>
</g>
<!-- Node23 -->
<g id="node23" class="node">
<title>Node23</title>
<g id="a_node23"><a xlink:href="queue__types_8h.html" target="_top" xlink:title="ODP queue.">
<polygon fill="white" stroke="black" points="702.5,-615.5 702.5,-634.5 829.5,-634.5 829.5,-615.5 702.5,-615.5"/>
<text text-anchor="middle" x="766" y="-622.5" font-family="Helvetica,sans-Serif" font-size="10.00">odp/api/queue_types.h</text>
</a>
</g>
</g>
<!-- Node3&#45;&gt;Node23 -->
<g id="edge57" class="edge">
<title>Node3&#45;&gt;Node23</title>
<path fill="none" stroke="midnightblue" d="M831.67,-794.46C821.09,-767.31 788.03,-682.51 773.26,-644.62"/>
<polygon fill="midnightblue" stroke="midnightblue" points="776.35,-642.91 769.46,-634.87 769.83,-645.46 776.35,-642.91"/>
</g>
<!-- Node6 -->
<g id="node6" class="node">
<title>Node6</title>
<g id="a_node6"><a xlink:title=" ">
<polygon fill="white" stroke="#bfbfbf" points="184.5,-179.5 184.5,-198.5 327.5,-198.5 327.5,-179.5 184.5,-179.5"/>
<text text-anchor="middle" x="256" y="-186.5" font-family="Helvetica,sans-Serif" font-size="10.00">odp/api/abi/event_types.h</text>
</a>
</g>
</g>
<!-- Node5&#45;&gt;Node6 -->
<g id="edge5" class="edge">
<title>Node5&#45;&gt;Node6</title>
<path fill="none" stroke="midnightblue" d="M260.17,-235.08C259.52,-228.01 258.58,-217.86 257.76,-208.99"/>
<polygon fill="midnightblue" stroke="midnightblue" points="261.22,-208.39 256.81,-198.75 254.25,-209.03 261.22,-208.39"/>
</g>
<!-- Node7 -->
<g id="node7" class="node">
<title>Node7</title>
<g id="a_node7"><a xlink:href="spec_2event__types_8h.html" target="_top" xlink:title="ODP event API type definitions.">
<polygon fill="white" stroke="black" points="574.5,-56.5 574.5,-86.5 683.5,-86.5 683.5,-56.5 574.5,-56.5"/>
<text text-anchor="start" x="582.5" y="-74.5" font-family="Helvetica,sans-Serif" font-size="10.00">odp/api/spec/event</text>
<text text-anchor="middle" x="629" y="-63.5" font-family="Helvetica,sans-Serif" font-size="10.00">_types.h</text>
</a>
</g>
</g>
<!-- Node5&#45;&gt;Node7 -->
<g id="edge6" class="edge">
<title>Node5&#45;&gt;Node7</title>
<path fill="none" stroke="midnightblue" d="M279.25,-235.5C336.11,-209 510.97,-127.51 589.78,-90.78"/>
<polygon fill="midnightblue" stroke="midnightblue" points="591.31,-93.93 598.89,-86.53 588.35,-87.58 591.31,-93.93"/>
</g>
<!-- Node7&#45;&gt;Node4 -->
<g id="edge7" class="edge">
<title>Node7&#45;&gt;Node4</title>
<path fill="none" stroke="midnightblue" d="M586.82,-56.4C556.19,-46.16 515.23,-32.47 486.33,-22.81"/>
<polygon fill="midnightblue" stroke="midnightblue" points="487.23,-19.42 476.64,-19.57 485.02,-26.06 487.23,-19.42"/>
</g>
<!-- Node7&#45;&gt;Node8 -->
<g id="edge8" class="edge">
<title>Node7&#45;&gt;Node8</title>
<path fill="none" stroke="midnightblue" d="M683.56,-57.57C686.41,-57.01 689.24,-56.48 692,-56 798.34,-37.38 923.13,-23.99 997.76,-16.88"/>
<polygon fill="midnightblue" stroke="midnightblue" points="998.33,-20.34 1007.95,-15.91 997.67,-13.37 998.33,-20.34"/>
</g>
<!-- Node10 -->
<g id="node10" class="node">
<title>Node10</title>
<g id="a_node10"><a xlink:title=" ">
<polygon fill="white" stroke="#bfbfbf" points="1142,-671.5 1142,-701.5 1248,-701.5 1248,-671.5 1142,-671.5"/>
<text text-anchor="start" x="1150" y="-689.5" font-family="Helvetica,sans-Serif" font-size="10.00">odp/api/abi/packet</text>
<text text-anchor="middle" x="1195" y="-678.5" font-family="Helvetica,sans-Serif" font-size="10.00">_io_types.h</text>
</a>
</g>
</g>
<!-- Node9&#45;&gt;Node10 -->
<g id="edge10" class="edge">
<title>Node9&#45;&gt;Node10</title>
<path fill="none" stroke="midnightblue" d="M1037.36,-738.48C1064.5,-729.7 1107.52,-715.79 1141.77,-704.71"/>
<polygon fill="midnightblue" stroke="midnightblue" points="1143.2,-707.93 1151.63,-701.52 1141.04,-701.27 1143.2,-707.93"/>
</g>
<!-- Node11 -->
<g id="node11" class="node">
<title>Node11</title>
<g id="a_node11"><a xlink:title=" ">
<polygon fill="white" stroke="#bfbfbf" points="1018,-671.5 1018,-701.5 1124,-701.5 1124,-671.5 1018,-671.5"/>
<text text-anchor="start" x="1026" y="-689.5" font-family="Helvetica,sans-Serif" font-size="10.00">odp/api/abi/packet</text>
<text text-anchor="middle" x="1071" y="-678.5" font-family="Helvetica,sans-Serif" font-size="10.00">_types.h</text>
</a>
</g>
</g>
<!-- Node9&#45;&gt;Node11 -->
<g id="edge11" class="edge">
<title>Node9&#45;&gt;Node11</title>
<path fill="none" stroke="midnightblue" d="M1019.6,-738.48C1027.42,-730.72 1039.29,-718.94 1049.66,-708.66"/>
<polygon fill="midnightblue" stroke="midnightblue" points="1052.22,-711.05 1056.86,-701.52 1047.29,-706.08 1052.22,-711.05"/>
</g>
<!-- Node12 -->
<g id="node12" class="node">
<title>Node12</title>
<g id="a_node12"><a xlink:href="spec_2packet__types_8h.html" target="_top" xlink:title="ODP packet types.">
<polygon fill="white" stroke="black" points="886.5,-671.5 886.5,-701.5 999.5,-701.5 999.5,-671.5 886.5,-671.5"/>
<text text-anchor="start" x="894.5" y="-689.5" font-family="Helvetica,sans-Serif" font-size="10.00">odp/api/spec/packet</text>
<text text-anchor="middle" x="943" y="-678.5" font-family="Helvetica,sans-Serif" font-size="10.00">_types.h</text>
</a>
</g>
</g>
<!-- Node9&#45;&gt;Node12 -->
<g id="edge12" class="edge">
<title>Node9&#45;&gt;Node12</title>
<path fill="none" stroke="midnightblue" d="M1001.26,-738.48C992.31,-730.64 978.67,-718.71 966.85,-708.37"/>
<polygon fill="midnightblue" stroke="midnightblue" points="968.86,-705.47 959.03,-701.52 964.25,-710.74 968.86,-705.47"/>
</g>
<!-- Node12&#45;&gt;Node4 -->
<g id="edge13" class="edge">
<title>Node12&#45;&gt;Node4</title>
<path fill="none" stroke="midnightblue" d="M935.48,-671.29C919.82,-643.15 880.9,-580.25 830,-548 774.64,-512.92 745.71,-541.14 687,-512 651.31,-494.29 639.06,-489.18 617,-456 574.78,-392.5 613.57,-353.58 570,-291 526.57,-228.63 432,-266.01 432,-190 432,-190 432,-190 432,-132 432,-95.29 440.64,-53.06 446.27,-29.45"/>
<polygon fill="midnightblue" stroke="midnightblue" points="449.67,-30.28 448.67,-19.73 442.87,-28.6 449.67,-30.28"/>
</g>
<!-- Node12&#45;&gt;Node8 -->
<g id="edge56" class="edge">
<title>Node12&#45;&gt;Node8</title>
<path fill="none" stroke="midnightblue" d="M999.04,-671.5C1109.13,-643.6 1343,-582.25 1343,-564.5 1343,-564.5 1343,-564.5 1343,-132 1343,-39.63 1212.69,-17 1130.19,-11.93"/>
<polygon fill="midnightblue" stroke="midnightblue" points="1130.3,-8.43 1120.12,-11.38 1129.92,-15.42 1130.3,-8.43"/>
</g>
<!-- Node13 -->
<g id="node13" class="node">
<title>Node13</title>
<g id="a_node13"><a xlink:href="proto__stats__types_8h.html" target="_top" xlink:title="ODP proto stats types.">
<polygon fill="white" stroke="black" points="1187,-358.5 1187,-388.5 1297,-388.5 1297,-358.5 1187,-358.5"/>
<text text-anchor="start" x="1195" y="-376.5" font-family="Helvetica,sans-Serif" font-size="10.00">odp/api/proto_stats</text>
<text text-anchor="middle" x="1242" y="-365.5" font-family="Helvetica,sans-Serif" font-size="10.00">_types.h</text>
</a>
</g>
</g>
<!-- Node12&#45;&gt;Node13 -->
<g id="edge14" class="edge">
<title>Node12&#45;&gt;Node13</title>
<path fill="none" stroke="midnightblue" d="M999.82,-671.69C1050.92,-655.48 1118,-623.05 1118,-564.5 1118,-564.5 1118,-564.5 1118,-501 1118,-451.67 1166.68,-414.49 1203.04,-393.61"/>
<polygon fill="midnightblue" stroke="midnightblue" points="1204.93,-396.56 1211.98,-388.65 1201.54,-390.44 1204.93,-396.56"/>
</g>
<!-- Node12&#45;&gt;Node23 -->
<g id="edge30" class="edge">
<title>Node12&#45;&gt;Node23</title>
<path fill="none" stroke="midnightblue" d="M901.05,-671.4C870.6,-661.16 829.87,-647.47 801.13,-637.81"/>
<polygon fill="midnightblue" stroke="midnightblue" points="802.09,-634.44 791.5,-634.57 799.86,-641.07 802.09,-634.44"/>
</g>
<!-- Node14 -->
<g id="node14" class="node">
<title>Node14</title>
<g id="a_node14"><a xlink:title=" ">
<polygon fill="white" stroke="#bfbfbf" points="1187,-291.5 1187,-321.5 1315,-321.5 1315,-291.5 1187,-291.5"/>
<text text-anchor="start" x="1195" y="-309.5" font-family="Helvetica,sans-Serif" font-size="10.00">odp/api/abi/proto_stats</text>
<text text-anchor="middle" x="1251" y="-298.5" font-family="Helvetica,sans-Serif" font-size="10.00">_types.h</text>
</a>
</g>
</g>
<!-- Node13&#45;&gt;Node14 -->
<g id="edge15" class="edge">
<title>Node13&#45;&gt;Node14</title>
<path fill="none" stroke="midnightblue" d="M1243.95,-358.4C1245.04,-350.56 1246.42,-340.6 1247.67,-331.57"/>
<polygon fill="midnightblue" stroke="midnightblue" points="1251.15,-331.96 1249.05,-321.58 1244.21,-331 1251.15,-331.96"/>
</g>
<!-- Node15 -->
<g id="node15" class="node">
<title>Node15</title>
<g id="a_node15"><a xlink:href="spec_2proto__stats__types_8h.html" target="_top" xlink:title="ODP proto stats types.">
<polygon fill="white" stroke="black" points="985.5,-291.5 985.5,-321.5 1092.5,-321.5 1092.5,-291.5 985.5,-291.5"/>
<text text-anchor="start" x="993.5" y="-309.5" font-family="Helvetica,sans-Serif" font-size="10.00">odp/api/spec/proto</text>
<text text-anchor="middle" x="1039" y="-298.5" font-family="Helvetica,sans-Serif" font-size="10.00">_stats_types.h</text>
</a>
</g>
</g>
<!-- Node13&#45;&gt;Node15 -->
<g id="edge16" class="edge">
<title>Node13&#45;&gt;Node15</title>
<path fill="none" stroke="midnightblue" d="M1197.95,-358.4C1167.09,-348.52 1125.67,-335.25 1092.85,-324.74"/>
<polygon fill="midnightblue" stroke="midnightblue" points="1093.55,-321.29 1082.96,-321.58 1091.42,-327.96 1093.55,-321.29"/>
</g>
<!-- Node15&#45;&gt;Node4 -->
<g id="edge17" class="edge">
<title>Node15&#45;&gt;Node4</title>
<path fill="none" stroke="midnightblue" d="M1029.95,-291.3C1018.94,-275.18 998.82,-249.28 975,-235 918.79,-201.3 893.21,-222.43 832,-199 814.18,-192.18 811.82,-185.84 794,-179 674.85,-133.28 626.38,-160.43 522,-87 498.33,-70.34 476.46,-44.75 463.42,-27.94"/>
<polygon fill="midnightblue" stroke="midnightblue" points="465.95,-25.48 457.13,-19.61 460.37,-29.7 465.95,-25.48"/>
</g>
<!-- Node15&#45;&gt;Node8 -->
<g id="edge29" class="edge">
<title>Node15&#45;&gt;Node8</title>
<path fill="none" stroke="midnightblue" d="M1048.33,-291.22C1061.25,-270.03 1083,-228.62 1083,-190 1083,-190 1083,-190 1083,-132 1083,-95.29 1074.36,-53.06 1068.73,-29.45"/>
<polygon fill="midnightblue" stroke="midnightblue" points="1072.13,-28.6 1066.33,-19.73 1065.33,-30.28 1072.13,-28.6"/>
</g>
<!-- Node15&#45;&gt;Node16 -->
<g id="edge18" class="edge">
<title>Node15&#45;&gt;Node16</title>
<path fill="none" stroke="midnightblue" d="M1008.43,-291.4C987.07,-281.55 958.78,-268.5 938.02,-258.92"/>
<polygon fill="midnightblue" stroke="midnightblue" points="939.32,-255.67 928.77,-254.66 936.39,-262.02 939.32,-255.67"/>
</g>
<!-- Node17 -->
<g id="node17" class="node">
<title>Node17</title>
<g id="a_node17"><a xlink:title=" ">
<polygon fill="white" stroke="#bfbfbf" points="655,-179.5 655,-198.5 785,-198.5 785,-179.5 655,-179.5"/>
<text text-anchor="middle" x="720" y="-186.5" font-family="Helvetica,sans-Serif" font-size="10.00">odp/api/abi/std_types.h</text>
</a>
</g>
</g>
<!-- Node16&#45;&gt;Node17 -->
<g id="edge19" class="edge">
<title>Node16&#45;&gt;Node17</title>
<path fill="none" stroke="midnightblue" d="M879.89,-235.44C847.37,-226.2 795.42,-211.44 759.61,-201.26"/>
<polygon fill="midnightblue" stroke="midnightblue" points="760.54,-197.88 749.97,-198.52 758.63,-204.62 760.54,-197.88"/>
</g>
<!-- Node18 -->
<g id="node18" class="node">
<title>Node18</title>
<g id="a_node18"><a xlink:href="spec_2std__types_8h.html" target="_top" xlink:title="Common types and definitions for ODP API files.">
<polygon fill="white" stroke="black" points="841.5,-179.5 841.5,-198.5 978.5,-198.5 978.5,-179.5 841.5,-179.5"/>
<text text-anchor="middle" x="910" y="-186.5" font-family="Helvetica,sans-Serif" font-size="10.00">odp/api/spec/std_types.h</text>
</a>
</g>
</g>
<!-- Node16&#45;&gt;Node18 -->
<g id="edge20" class="edge">
<title>Node16&#45;&gt;Node18</title>
<path fill="none" stroke="midnightblue" d="M910,-235.08C910,-228.01 910,-217.86 910,-208.99"/>
<polygon fill="midnightblue" stroke="midnightblue" points="913.5,-208.75 910,-198.75 906.5,-208.75 913.5,-208.75"/>
</g>
<!-- Node18&#45;&gt;Node4 -->
<g id="edge21" class="edge">
<title>Node18&#45;&gt;Node4</title>
<path fill="none" stroke="midnightblue" d="M862.67,-179.46C794.41,-165.98 665.5,-136.13 565,-87 543.83,-76.65 541.51,-69.2 522,-56 506.04,-45.2 487.65,-33.57 473.58,-24.83"/>
<polygon fill="midnightblue" stroke="midnightblue" points="475.38,-21.83 465.04,-19.55 471.7,-27.79 475.38,-21.83"/>
</g>
<!-- Node18&#45;&gt;Node8 -->
<g id="edge28" class="edge">
<title>Node18&#45;&gt;Node8</title>
<path fill="none" stroke="midnightblue" d="M917.92,-179.45C925.82,-170.68 938.03,-156.47 947,-143 971.23,-106.59 963.31,-88.12 993,-56 1005.11,-42.9 1021.84,-32.05 1036.02,-24.29"/>
<polygon fill="midnightblue" stroke="midnightblue" points="1037.66,-27.38 1044.89,-19.64 1034.41,-21.18 1037.66,-27.38"/>
</g>
<!-- Node19 -->
<g id="node19" class="node">
<title>Node19</title>
<g id="a_node19"><a xlink:title=" ">
<polygon fill="white" stroke="#bfbfbf" points="885.5,-123.5 885.5,-142.5 938.5,-142.5 938.5,-123.5 885.5,-123.5"/>
<text text-anchor="middle" x="912" y="-130.5" font-family="Helvetica,sans-Serif" font-size="10.00">stdint.h</text>
</a>
</g>
</g>
<!-- Node18&#45;&gt;Node19 -->
<g id="edge22" class="edge">
<title>Node18&#45;&gt;Node19</title>
<path fill="none" stroke="midnightblue" d="M910.33,-179.08C910.59,-172.01 910.97,-161.86 911.3,-152.99"/>
<polygon fill="midnightblue" stroke="midnightblue" points="914.8,-152.87 911.68,-142.75 907.81,-152.61 914.8,-152.87"/>
</g>
<!-- Node20 -->
<g id="node20" class="node">
<title>Node20</title>
<g id="a_node20"><a xlink:href="align_8h.html" target="_top" xlink:title="ODP alignments.">
<polygon fill="white" stroke="black" points="778.5,-123.5 778.5,-142.5 867.5,-142.5 867.5,-123.5 778.5,-123.5"/>
<text text-anchor="middle" x="823" y="-130.5" font-family="Helvetica,sans-Serif" font-size="10.00">odp/api/align.h</text>
</a>
</g>
</g>
<!-- Node18&#45;&gt;Node20 -->
<g id="edge23" class="edge">
<title>Node18&#45;&gt;Node20</title>
<path fill="none" stroke="midnightblue" d="M896.02,-179.32C882.45,-170.9 861.62,-157.97 845.68,-148.07"/>
<polygon fill="midnightblue" stroke="midnightblue" points="847.29,-144.95 836.94,-142.65 843.59,-150.9 847.29,-144.95"/>
</g>
<!-- Node21 -->
<g id="node21" class="node">
<title>Node21</title>
<g id="a_node21"><a xlink:title=" ">
<polygon fill="white" stroke="#bfbfbf" points="701.5,-62 701.5,-81 808.5,-81 808.5,-62 701.5,-62"/>
<text text-anchor="middle" x="755" y="-69" font-family="Helvetica,sans-Serif" font-size="10.00">odp/api/abi/align.h</text>
</a>
</g>
</g>
<!-- Node20&#45;&gt;Node21 -->
<g id="edge24" class="edge">
<title>Node20&#45;&gt;Node21</title>
<path fill="none" stroke="midnightblue" d="M813.26,-123.48C802.65,-114.2 785.48,-99.17 772.52,-87.83"/>
<polygon fill="midnightblue" stroke="midnightblue" points="774.56,-84.96 764.72,-81.01 769.95,-90.23 774.56,-84.96"/>
</g>
<!-- Node22 -->
<g id="node22" class="node">
<title>Node22</title>
<g id="a_node22"><a xlink:href="spec_2align_8h.html" target="_top" xlink:title="ODP alignments.">
<polygon fill="white" stroke="black" points="827,-62 827,-81 941,-81 941,-62 827,-62"/>
<text text-anchor="middle" x="884" y="-69" font-family="Helvetica,sans-Serif" font-size="10.00">odp/api/spec/align.h</text>
</a>
</g>
</g>
<!-- Node20&#45;&gt;Node22 -->
<g id="edge25" class="edge">
<title>Node20&#45;&gt;Node22</title>
<path fill="none" stroke="midnightblue" d="M831.74,-123.48C841.16,-114.28 856.36,-99.46 867.95,-88.16"/>
<polygon fill="midnightblue" stroke="midnightblue" points="870.56,-90.5 875.28,-81.01 865.67,-85.49 870.56,-90.5"/>
</g>
<!-- Node22&#45;&gt;Node4 -->
<g id="edge26" class="edge">
<title>Node22&#45;&gt;Node4</title>
<path fill="none" stroke="midnightblue" d="M847.6,-61.99C837.71,-59.85 826.97,-57.69 817,-56 714.97,-38.72 595.86,-25.32 521.92,-17.79"/>
<polygon fill="midnightblue" stroke="midnightblue" points="522.1,-14.29 511.8,-16.77 521.39,-21.26 522.1,-14.29"/>
</g>
<!-- Node22&#45;&gt;Node8 -->
<g id="edge27" class="edge">
<title>Node22&#45;&gt;Node8</title>
<path fill="none" stroke="midnightblue" d="M909.79,-61.98C940.93,-51.68 993.48,-34.31 1028.45,-22.75"/>
<polygon fill="midnightblue" stroke="midnightblue" points="1029.86,-25.97 1038.26,-19.51 1027.66,-19.32 1029.86,-25.97"/>
</g>
<!-- Node24 -->
<g id="node24" class="node">
<title>Node24</title>
<g id="a_node24"><a xlink:title=" ">
<polygon fill="white" stroke="#bfbfbf" points="547.5,-554 547.5,-573 692.5,-573 692.5,-554 547.5,-554"/>
<text text-anchor="middle" x="620" y="-561" font-family="Helvetica,sans-Serif" font-size="10.00">odp/api/abi/queue_types.h</text>
</a>
</g>
</g>
<!-- Node23&#45;&gt;Node24 -->
<g id="edge31" class="edge">
<title>Node23&#45;&gt;Node24</title>
<path fill="none" stroke="midnightblue" d="M745.08,-615.48C720.25,-605.36 678.66,-588.4 650.31,-576.85"/>
<polygon fill="midnightblue" stroke="midnightblue" points="651.46,-573.54 640.88,-573.01 648.82,-580.02 651.46,-573.54"/>
</g>
<!-- Node25 -->
<g id="node25" class="node">
<title>Node25</title>
<g id="a_node25"><a xlink:href="spec_2queue__types_8h.html" target="_top" xlink:title="ODP queue types.">
<polygon fill="white" stroke="black" points="710.5,-548.5 710.5,-578.5 821.5,-578.5 821.5,-548.5 710.5,-548.5"/>
<text text-anchor="start" x="718.5" y="-566.5" font-family="Helvetica,sans-Serif" font-size="10.00">odp/api/spec/queue</text>
<text text-anchor="middle" x="766" y="-555.5" font-family="Helvetica,sans-Serif" font-size="10.00">_types.h</text>
</a>
</g>
</g>
<!-- Node23&#45;&gt;Node25 -->
<g id="edge32" class="edge">
<title>Node23&#45;&gt;Node25</title>
<path fill="none" stroke="midnightblue" d="M766,-615.48C766,-608.47 766,-598.19 766,-588.7"/>
<polygon fill="midnightblue" stroke="midnightblue" points="769.5,-588.52 766,-578.52 762.5,-588.52 769.5,-588.52"/>
</g>
<!-- Node25&#45;&gt;Node4 -->
<g id="edge33" class="edge">
<title>Node25&#45;&gt;Node4</title>
<path fill="none" stroke="midnightblue" d="M710.38,-549.63C540.2,-510.07 38,-391.85 38,-374.5 38,-374.5 38,-374.5 38,-132 38,-85.16 69.21,-77.15 111,-56 156.75,-32.84 294.86,-20.47 380.33,-14.86"/>
<polygon fill="midnightblue" stroke="midnightblue" points="380.73,-18.34 390.48,-14.21 380.28,-11.36 380.73,-18.34"/>
</g>
<!-- Node25&#45;&gt;Node8 -->
<g id="edge55" class="edge">
<title>Node25&#45;&gt;Node8</title>
<path fill="none" stroke="midnightblue" d="M821.89,-553.06C930.39,-531.2 1159,-466.3 1159,-307.5 1159,-307.5 1159,-307.5 1159,-132 1159,-85.25 1114.58,-45.86 1086.49,-25.62"/>
<polygon fill="midnightblue" stroke="midnightblue" points="1088.23,-22.57 1078.02,-19.74 1084.23,-28.32 1088.23,-22.57"/>
</g>
<!-- Node26 -->
<g id="node26" class="node">
<title>Node26</title>
<g id="a_node26"><a xlink:href="event__vector__types_8h.html" target="_top" xlink:title="ODP event vector API type definitions.">
<polygon fill="white" stroke="black" points="447.5,-358.5 447.5,-388.5 566.5,-388.5 566.5,-358.5 447.5,-358.5"/>
<text text-anchor="start" x="455.5" y="-376.5" font-family="Helvetica,sans-Serif" font-size="10.00">odp/api/event_vector</text>
<text text-anchor="middle" x="507" y="-365.5" font-family="Helvetica,sans-Serif" font-size="10.00">_types.h</text>
</a>
</g>
</g>
<!-- Node25&#45;&gt;Node26 -->
<g id="edge34" class="edge">
<title>Node25&#45;&gt;Node26</title>
<path fill="none" stroke="midnightblue" d="M710.9,-548.47C685.23,-540.33 655.1,-528.4 631,-512 584.28,-480.21 543.24,-427.23 522.12,-397.16"/>
<polygon fill="midnightblue" stroke="midnightblue" points="524.79,-394.86 516.22,-388.62 519.02,-398.83 524.79,-394.86"/>
</g>
<!-- Node30 -->
<g id="node30" class="node">
<title>Node30</title>
<g id="a_node30"><a xlink:href="schedule__types_8h.html" target="_top" xlink:title="ODP schedule.">
<polygon fill="white" stroke="black" points="696,-492.5 696,-511.5 836,-511.5 836,-492.5 696,-492.5"/>
<text text-anchor="middle" x="766" y="-499.5" font-family="Helvetica,sans-Serif" font-size="10.00">odp/api/schedule_types.h</text>
</a>
</g>
</g>
<!-- Node25&#45;&gt;Node30 -->
<g id="edge42" class="edge">
<title>Node25&#45;&gt;Node30</title>
<path fill="none" stroke="midnightblue" d="M766,-548.4C766,-540.47 766,-530.46 766,-521.86"/>
<polygon fill="midnightblue" stroke="midnightblue" points="769.5,-521.66 766,-511.66 762.5,-521.66 769.5,-521.66"/>
</g>
<!-- Node27 -->
<g id="node27" class="node">
<title>Node27</title>
<g id="a_node27"><a xlink:title=" ">
<polygon fill="white" stroke="#bfbfbf" points="142.5,-291.5 142.5,-321.5 279.5,-321.5 279.5,-291.5 142.5,-291.5"/>
<text text-anchor="start" x="150.5" y="-309.5" font-family="Helvetica,sans-Serif" font-size="10.00">odp/api/abi/event_vector</text>
<text text-anchor="middle" x="211" y="-298.5" font-family="Helvetica,sans-Serif" font-size="10.00">_types.h</text>
</a>
</g>
</g>
<!-- Node26&#45;&gt;Node27 -->
<g id="edge35" class="edge">
<title>Node26&#45;&gt;Node27</title>
<path fill="none" stroke="midnightblue" d="M447.46,-359.42C400.53,-349.12 334.86,-334.7 284.63,-323.67"/>
<polygon fill="midnightblue" stroke="midnightblue" points="285.32,-320.24 274.8,-321.51 283.82,-327.07 285.32,-320.24"/>
</g>
<!-- Node28 -->
<g id="node28" class="node">
<title>Node28</title>
<g id="a_node28"><a xlink:title=" ">
<polygon fill="white" stroke="#bfbfbf" points="298,-297 298,-316 434,-316 434,-297 298,-297"/>
<text text-anchor="middle" x="366" y="-304" font-family="Helvetica,sans-Serif" font-size="10.00">odp/api/abi/pool_types.h</text>
</a>
</g>
</g>
<!-- Node26&#45;&gt;Node28 -->
<g id="edge36" class="edge">
<title>Node26&#45;&gt;Node28</title>
<path fill="none" stroke="midnightblue" d="M476.41,-358.4C451.77,-347.04 417.45,-331.22 393.64,-320.24"/>
<polygon fill="midnightblue" stroke="midnightblue" points="395,-317.02 384.45,-316.01 392.07,-323.37 395,-317.02"/>
</g>
<!-- Node29 -->
<g id="node29" class="node">
<title>Node29</title>
<g id="a_node29"><a xlink:href="spec_2event__vector__types_8h.html" target="_top" xlink:title="ODP event vector API type definitions.">
<polygon fill="white" stroke="black" points="452.5,-291.5 452.5,-321.5 561.5,-321.5 561.5,-291.5 452.5,-291.5"/>
<text text-anchor="start" x="460.5" y="-309.5" font-family="Helvetica,sans-Serif" font-size="10.00">odp/api/spec/event</text>
<text text-anchor="middle" x="507" y="-298.5" font-family="Helvetica,sans-Serif" font-size="10.00">_vector_types.h</text>
</a>
</g>
</g>
<!-- Node26&#45;&gt;Node29 -->
<g id="edge37" class="edge">
<title>Node26&#45;&gt;Node29</title>
<path fill="none" stroke="midnightblue" d="M507,-358.4C507,-350.64 507,-340.81 507,-331.86"/>
<polygon fill="midnightblue" stroke="midnightblue" points="510.5,-331.58 507,-321.58 503.5,-331.58 510.5,-331.58"/>
</g>
<!-- Node29&#45;&gt;Node4 -->
<g id="edge38" class="edge">
<title>Node29&#45;&gt;Node4</title>
<path fill="none" stroke="midnightblue" d="M459.64,-291.39C415.35,-274.92 356,-242.97 356,-190 356,-190 356,-190 356,-132 356,-85.25 400.42,-45.86 428.51,-25.62"/>
<polygon fill="midnightblue" stroke="midnightblue" points="430.77,-28.32 436.98,-19.74 426.77,-22.57 430.77,-28.32"/>
</g>
<!-- Node29&#45;&gt;Node5 -->
<g id="edge39" class="edge">
<title>Node29&#45;&gt;Node5</title>
<path fill="none" stroke="midnightblue" d="M452.4,-292.3C408.47,-281.67 347.45,-266.91 306.22,-256.94"/>
<polygon fill="midnightblue" stroke="midnightblue" points="306.98,-253.52 296.44,-254.57 305.34,-260.33 306.98,-253.52"/>
</g>
<!-- Node29&#45;&gt;Node8 -->
<g id="edge41" class="edge">
<title>Node29&#45;&gt;Node8</title>
<path fill="none" stroke="midnightblue" d="M561.54,-294.12C685.79,-268.12 979.81,-206.01 988,-199 1039.86,-154.63 1017.69,-118.98 1044,-56 1047.75,-47.01 1052.13,-37.12 1055.82,-28.9"/>
<polygon fill="midnightblue" stroke="midnightblue" points="1059.11,-30.13 1060.05,-19.58 1052.73,-27.24 1059.11,-30.13"/>
</g>
<!-- Node29&#45;&gt;Node16 -->
<g id="edge40" class="edge">
<title>Node29&#45;&gt;Node16</title>
<path fill="none" stroke="midnightblue" d="M561.77,-297.41C634.99,-286.6 764.67,-267.46 843.44,-255.83"/>
<polygon fill="midnightblue" stroke="midnightblue" points="844.35,-259.23 853.73,-254.31 843.32,-252.31 844.35,-259.23"/>
</g>
<!-- Node31 -->
<g id="node31" class="node">
<title>Node31</title>
<g id="a_node31"><a xlink:title=" ">
<polygon fill="white" stroke="#bfbfbf" points="626.5,-425.5 626.5,-455.5 743.5,-455.5 743.5,-425.5 626.5,-425.5"/>
<text text-anchor="start" x="634.5" y="-443.5" font-family="Helvetica,sans-Serif" font-size="10.00">odp/api/abi/schedule</text>
<text text-anchor="middle" x="685" y="-432.5" font-family="Helvetica,sans-Serif" font-size="10.00">_types.h</text>
</a>
</g>
</g>
<!-- Node30&#45;&gt;Node31 -->
<g id="edge43" class="edge">
<title>Node30&#45;&gt;Node31</title>
<path fill="none" stroke="midnightblue" d="M754.39,-492.48C743.42,-484.42 726.55,-472.02 712.19,-461.47"/>
<polygon fill="midnightblue" stroke="midnightblue" points="714.22,-458.62 704.09,-455.52 710.08,-464.26 714.22,-458.62"/>
</g>
<!-- Node32 -->
<g id="node32" class="node">
<title>Node32</title>
<g id="a_node32"><a xlink:href="spec_2schedule__types_8h.html" target="_top" xlink:title="ODP schedule types.">
<polygon fill="white" stroke="black" points="761.5,-425.5 761.5,-455.5 886.5,-455.5 886.5,-425.5 761.5,-425.5"/>
<text text-anchor="start" x="769.5" y="-443.5" font-family="Helvetica,sans-Serif" font-size="10.00">odp/api/spec/schedule</text>
<text text-anchor="middle" x="824" y="-432.5" font-family="Helvetica,sans-Serif" font-size="10.00">_types.h</text>
</a>
</g>
</g>
<!-- Node30&#45;&gt;Node32 -->
<g id="edge44" class="edge">
<title>Node30&#45;&gt;Node32</title>
<path fill="none" stroke="midnightblue" d="M774.31,-492.48C781.8,-484.79 793.13,-473.17 803.08,-462.96"/>
<polygon fill="midnightblue" stroke="midnightblue" points="805.86,-465.13 810.33,-455.52 800.84,-460.24 805.86,-465.13"/>
</g>
<!-- Node32&#45;&gt;Node4 -->
<g id="edge45" class="edge">
<title>Node32&#45;&gt;Node4</title>
<path fill="none" stroke="midnightblue" d="M761.23,-426.53C758.11,-425.99 755.02,-425.48 752,-425 598.5,-400.79 76,-401.4 76,-246 76,-246 76,-246 76,-132 76,-68.79 271.39,-33.79 380.09,-19.21"/>
<polygon fill="midnightblue" stroke="midnightblue" points="380.88,-22.63 390.33,-17.86 379.96,-15.69 380.88,-22.63"/>
</g>
<!-- Node32&#45;&gt;Node8 -->
<g id="edge54" class="edge">
<title>Node32&#45;&gt;Node8</title>
<path fill="none" stroke="midnightblue" d="M884.82,-425.48C971.71,-403.65 1121,-358.71 1121,-307.5 1121,-307.5 1121,-307.5 1121,-132 1121,-91.59 1094.66,-50.21 1077.79,-27.85"/>
<polygon fill="midnightblue" stroke="midnightblue" points="1080.37,-25.46 1071.45,-19.74 1074.85,-29.77 1080.37,-25.46"/>
</g>
<!-- Node32&#45;&gt;Node16 -->
<g id="edge47" class="edge">
<title>Node32&#45;&gt;Node16</title>
<path fill="none" stroke="midnightblue" d="M847.99,-425.34C860.9,-416.5 875.98,-403.95 885,-389 908.68,-349.73 911.33,-294.06 910.88,-265.12"/>
<polygon fill="midnightblue" stroke="midnightblue" points="914.37,-264.69 910.56,-254.8 907.37,-264.9 914.37,-264.69"/>
</g>
<!-- Node32&#45;&gt;Node26 -->
<g id="edge46" class="edge">
<title>Node32&#45;&gt;Node26</title>
<path fill="none" stroke="midnightblue" d="M761.37,-426.66C708.12,-415.74 631.74,-400.08 576.59,-388.77"/>
<polygon fill="midnightblue" stroke="midnightblue" points="577.05,-385.29 566.55,-386.71 575.64,-392.15 577.05,-385.29"/>
</g>
<!-- Node33 -->
<g id="node33" class="node">
<title>Node33</title>
<g id="a_node33"><a xlink:href="thrmask_8h.html" target="_top" xlink:title="ODP thread masks.">
<polygon fill="white" stroke="black" points="771.5,-364 771.5,-383 876.5,-383 876.5,-364 771.5,-364"/>
<text text-anchor="middle" x="824" y="-371" font-family="Helvetica,sans-Serif" font-size="10.00">odp/api/thrmask.h</text>
</a>
</g>
</g>
<!-- Node32&#45;&gt;Node33 -->
<g id="edge48" class="edge">
<title>Node32&#45;&gt;Node33</title>
<path fill="none" stroke="midnightblue" d="M824,-425.4C824,-416.06 824,-403.71 824,-393.52"/>
<polygon fill="midnightblue" stroke="midnightblue" points="827.5,-393.19 824,-383.19 820.5,-393.19 827.5,-393.19"/>
</g>
<!-- Node34 -->
<g id="node34" class="node">
<title>Node34</title>
<g id="a_node34"><a xlink:title=" ">
<polygon fill="white" stroke="#bfbfbf" points="618.5,-297 618.5,-316 741.5,-316 741.5,-297 618.5,-297"/>
<text text-anchor="middle" x="680" y="-304" font-family="Helvetica,sans-Serif" font-size="10.00">odp/api/abi/thrmask.h</text>
</a>
</g>
</g>
<!-- Node33&#45;&gt;Node34 -->
<g id="edge49" class="edge">
<title>Node33&#45;&gt;Node34</title>
<path fill="none" stroke="midnightblue" d="M804.88,-363.87C780.24,-352.75 737.19,-333.32 708.64,-320.43"/>
<polygon fill="midnightblue" stroke="midnightblue" points="709.76,-317.09 699.2,-316.17 706.88,-323.47 709.76,-317.09"/>
</g>
<!-- Node35 -->
<g id="node35" class="node">
<title>Node35</title>
<g id="a_node35"><a xlink:href="spec_2thrmask_8h.html" target="_top" xlink:title="ODP thread masks.">
<polygon fill="white" stroke="black" points="759.5,-297 759.5,-316 890.5,-316 890.5,-297 759.5,-297"/>
<text text-anchor="middle" x="825" y="-304" font-family="Helvetica,sans-Serif" font-size="10.00">odp/api/spec/thrmask.h</text>
</a>
</g>
</g>
<!-- Node33&#45;&gt;Node35 -->
<g id="edge50" class="edge">
<title>Node33&#45;&gt;Node35</title>
<path fill="none" stroke="midnightblue" d="M824.13,-363.73C824.28,-354.18 824.52,-338.62 824.71,-326.28"/>
<polygon fill="midnightblue" stroke="midnightblue" points="828.21,-326.18 824.87,-316.13 821.21,-326.07 828.21,-326.18"/>
</g>
<!-- Node35&#45;&gt;Node4 -->
<g id="edge51" class="edge">
<title>Node35&#45;&gt;Node4</title>
<path fill="none" stroke="midnightblue" d="M785.65,-296.93C693.22,-276.25 470,-222.89 470,-190 470,-190 470,-190 470,-132 470,-95.29 461.36,-53.06 455.73,-29.45"/>
<polygon fill="midnightblue" stroke="midnightblue" points="459.13,-28.6 453.33,-19.73 452.33,-30.28 459.13,-28.6"/>
</g>
<!-- Node35&#45;&gt;Node8 -->
<g id="edge53" class="edge">
<title>Node35&#45;&gt;Node8</title>
<path fill="none" stroke="midnightblue" d="M890.71,-298.73C955.54,-288 1045,-260.42 1045,-190 1045,-190 1045,-190 1045,-132 1045,-95.29 1053.64,-53.06 1059.27,-29.45"/>
<polygon fill="midnightblue" stroke="midnightblue" points="1062.67,-30.28 1061.67,-19.73 1055.87,-28.6 1062.67,-30.28"/>
</g>
<!-- Node35&#45;&gt;Node16 -->
<g id="edge52" class="edge">
<title>Node35&#45;&gt;Node16</title>
<path fill="none" stroke="midnightblue" d="M837.18,-296.98C850.81,-287.43 873.13,-271.81 889.47,-260.37"/>
<polygon fill="midnightblue" stroke="midnightblue" points="891.66,-263.11 897.84,-254.51 887.64,-257.38 891.66,-263.11"/>
</g>
</g>
</svg>
