<?xml version="1.0" encoding="UTF-8" standalone="no"?>
<!DOCTYPE svg PUBLIC "-//W3C//DTD SVG 1.1//EN"
 "http://www.w3.org/Graphics/SVG/1.1/DTD/svg11.dtd">
<!-- Generated by graphviz version 2.43.0 (0)
 -->
<!-- Title: cpu.h Pages: 1 -->
<svg width="467pt" height="82pt"
 viewBox="0.00 0.00 466.50 82.00" xmlns="http://www.w3.org/2000/svg" xmlns:xlink="http://www.w3.org/1999/xlink">
<g id="graph0" class="graph" transform="scale(1 1) rotate(0) translate(4 78)">
<title>cpu.h</title>
<!-- Node1 -->
<g id="Node000001" class="node">
<title>Node1</title>
<g id="a_Node000001"><a xlink:title="ODP CPU.">
<polygon fill="#999999" stroke="#666666" points="241,-74 198,-74 198,-55 241,-55 241,-74"/>
<text text-anchor="middle" x="219.5" y="-62" font-family="Helvetica,sans-Serif" font-size="10.00">cpu.h</text>
</a>
</g>
</g>
<!-- Node2 -->
<g id="Node000002" class="node">
<title>Node2</title>
<g id="a_Node000002"><a xlink:href="packet__inlines_8h.html" target="_top" xlink:title="Packet inline functions.">
<polygon fill="white" stroke="#666666" points="95,-19 0,-19 0,0 95,0 95,-19"/>
<text text-anchor="middle" x="47.5" y="-7" font-family="Helvetica,sans-Serif" font-size="10.00">packet_inlines.h</text>
</a>
</g>
</g>
<!-- Node1&#45;&gt;Node2 -->
<g id="edge1_Node000001_Node000002" class="edge">
<title>Node1&#45;&gt;Node2</title>
<g id="a_edge1_Node000001_Node000002"><a xlink:title=" ">
<path fill="none" stroke="#63b8ff" d="M187.91,-53.76C155.68,-43.84 106.17,-28.58 75.36,-19.09"/>
<polygon fill="#63b8ff" stroke="#63b8ff" points="187.13,-57.19 197.72,-56.79 189.19,-50.5 187.13,-57.19"/>
</a>
</g>
</g>
<!-- Node3 -->
<g id="Node000003" class="node">
<title>Node3</title>
<g id="a_Node000003"><a xlink:href="rwlock__inlines_8h_source.html" target="_top" xlink:title=" ">
<polygon fill="white" stroke="#666666" points="208,-19 113,-19 113,0 208,0 208,-19"/>
<text text-anchor="middle" x="160.5" y="-7" font-family="Helvetica,sans-Serif" font-size="10.00">rwlock_inlines.h</text>
</a>
</g>
</g>
<!-- Node1&#45;&gt;Node3 -->
<g id="edge2_Node000001_Node000003" class="edge">
<title>Node1&#45;&gt;Node3</title>
<g id="a_edge2_Node000001_Node000003"><a xlink:title=" ">
<path fill="none" stroke="#63b8ff" d="M202.3,-48.04C191.83,-38.64 178.85,-26.98 170.15,-19.17"/>
<polygon fill="#63b8ff" stroke="#63b8ff" points="200.24,-50.91 210.02,-54.98 204.92,-45.7 200.24,-50.91"/>
</a>
</g>
</g>
<!-- Node4 -->
<g id="Node000004" class="node">
<title>Node4</title>
<g id="a_Node000004"><a xlink:href="spinlock__inlines_8h_source.html" target="_top" xlink:title=" ">
<polygon fill="white" stroke="#666666" points="330.5,-19 226.5,-19 226.5,0 330.5,0 330.5,-19"/>
<text text-anchor="middle" x="278.5" y="-7" font-family="Helvetica,sans-Serif" font-size="10.00">spinlock_inlines.h</text>
</a>
</g>
</g>
<!-- Node1&#45;&gt;Node4 -->
<g id="edge3_Node000001_Node000004" class="edge">
<title>Node1&#45;&gt;Node4</title>
<g id="a_edge3_Node000001_Node000004"><a xlink:title=" ">
<path fill="none" stroke="#63b8ff" d="M236.7,-48.04C247.17,-38.64 260.15,-26.98 268.85,-19.17"/>
<polygon fill="#63b8ff" stroke="#63b8ff" points="234.08,-45.7 228.98,-54.98 238.76,-50.91 234.08,-45.7"/>
</a>
</g>
</g>
<!-- Node5 -->
<g id="Node000005" class="node">
<title>Node5</title>
<g id="a_Node000005"><a xlink:href="ticketlock__inlines_8h_source.html" target="_top" xlink:title=" ">
<polygon fill="white" stroke="#666666" points="458.5,-19 348.5,-19 348.5,0 458.5,0 458.5,-19"/>
<text text-anchor="middle" x="403.5" y="-7" font-family="Helvetica,sans-Serif" font-size="10.00">ticketlock_inlines.h</text>
</a>
</g>
</g>
<!-- Node1&#45;&gt;Node5 -->
<g id="edge4_Node000001_Node000005" class="edge">
<title>Node1&#45;&gt;Node5</title>
<g id="a_edge4_Node000001_Node000005"><a xlink:title=" ">
<path fill="none" stroke="#63b8ff" d="M251.33,-54.33C285.76,-44.41 340.22,-28.73 373.8,-19.05"/>
<polygon fill="#63b8ff" stroke="#63b8ff" points="249.97,-51.08 241.33,-57.21 251.91,-57.81 249.97,-51.08"/>
</a>
</g>
</g>
</g>
</svg>
