<?xml version="1.0" encoding="UTF-8" standalone="no"?>
<!DOCTYPE svg PUBLIC "-//W3C//DTD SVG 1.1//EN"
 "http://www.w3.org/Graphics/SVG/1.1/DTD/svg11.dtd">
<!-- Generated by graphviz version 2.43.0 (0)
 -->
<!-- Title: crypto_types.h Pages: 1 -->
<svg width="1293pt" height="1113pt"
 viewBox="0.00 0.00 1293.00 1113.00" xmlns="http://www.w3.org/2000/svg" xmlns:xlink="http://www.w3.org/1999/xlink">
<g id="graph0" class="graph" transform="scale(1 1) rotate(0) translate(4 1109)">
<title>crypto_types.h</title>
<polygon fill="white" stroke="transparent" points="-4,4 -4,-1109 1289,-1109 1289,4 -4,4"/>
<!-- Node1 -->
<g id="node1" class="node">
<title>Node1</title>
<g id="a_node1"><a xlink:title="ODP crypto.">
<polygon fill="#bfbfbf" stroke="black" points="832.5,-1085.5 832.5,-1104.5 921.5,-1104.5 921.5,-1085.5 832.5,-1085.5"/>
<text text-anchor="middle" x="877" y="-1092.5" font-family="Helvetica,sans-Serif" font-size="10.00">crypto_types.h</text>
</a>
</g>
</g>
<!-- Node2 -->
<g id="node2" class="node">
<title>Node2</title>
<g id="a_node2"><a xlink:title=" ">
<polygon fill="white" stroke="#bfbfbf" points="762,-1018.5 762,-1048.5 866,-1048.5 866,-1018.5 762,-1018.5"/>
<text text-anchor="start" x="770" y="-1036.5" font-family="Helvetica,sans-Serif" font-size="10.00">odp/api/abi/crypto</text>
<text text-anchor="middle" x="814" y="-1025.5" font-family="Helvetica,sans-Serif" font-size="10.00">_types.h</text>
</a>
</g>
</g>
<!-- Node1&#45;&gt;Node2 -->
<g id="edge1" class="edge">
<title>Node1&#45;&gt;Node2</title>
<path fill="none" stroke="midnightblue" d="M867.97,-1085.48C859.76,-1077.72 847.29,-1065.94 836.41,-1055.66"/>
<polygon fill="midnightblue" stroke="midnightblue" points="838.52,-1052.84 828.85,-1048.52 833.71,-1057.93 838.52,-1052.84"/>
</g>
<!-- Node3 -->
<g id="node3" class="node">
<title>Node3</title>
<g id="a_node3"><a xlink:href="spec_2crypto__types_8h.html" target="_top" xlink:title="ODP crypto types.">
<polygon fill="white" stroke="black" points="884,-1018.5 884,-1048.5 996,-1048.5 996,-1018.5 884,-1018.5"/>
<text text-anchor="start" x="892" y="-1036.5" font-family="Helvetica,sans-Serif" font-size="10.00">odp/api/spec/crypto</text>
<text text-anchor="middle" x="940" y="-1025.5" font-family="Helvetica,sans-Serif" font-size="10.00">_types.h</text>
</a>
</g>
</g>
<!-- Node1&#45;&gt;Node3 -->
<g id="edge2" class="edge">
<title>Node1&#45;&gt;Node3</title>
<path fill="none" stroke="midnightblue" d="M886.03,-1085.48C894.24,-1077.72 906.71,-1065.94 917.59,-1055.66"/>
<polygon fill="midnightblue" stroke="midnightblue" points="920.29,-1057.93 925.15,-1048.52 915.48,-1052.84 920.29,-1057.93"/>
</g>
<!-- Node4 -->
<g id="node4" class="node">
<title>Node4</title>
<g id="a_node4"><a xlink:title=" ">
<polygon fill="white" stroke="#bfbfbf" points="1015.5,-0.5 1015.5,-19.5 1136.5,-19.5 1136.5,-0.5 1015.5,-0.5"/>
<text text-anchor="middle" x="1076" y="-7.5" font-family="Helvetica,sans-Serif" font-size="10.00">odp/visibility_begin.h</text>
</a>
</g>
</g>
<!-- Node3&#45;&gt;Node4 -->
<g id="edge3" class="edge">
<title>Node3&#45;&gt;Node4</title>
<path fill="none" stroke="midnightblue" d="M996.2,-1025.5C1093.96,-1011.74 1285,-977.16 1285,-917 1285,-917 1285,-917 1285,-132 1285,-66.07 1206.15,-35.48 1145.31,-21.69"/>
<polygon fill="midnightblue" stroke="midnightblue" points="1145.84,-18.23 1135.33,-19.54 1144.37,-25.07 1145.84,-18.23"/>
</g>
<!-- Node5 -->
<g id="node5" class="node">
<title>Node5</title>
<g id="a_node5"><a xlink:href="packet__types_8h.html" target="_top" xlink:title="ODP packet.">
<polygon fill="white" stroke="black" points="298.5,-738.5 298.5,-757.5 427.5,-757.5 427.5,-738.5 298.5,-738.5"/>
<text text-anchor="middle" x="363" y="-745.5" font-family="Helvetica,sans-Serif" font-size="10.00">odp/api/packet_types.h</text>
</a>
</g>
</g>
<!-- Node3&#45;&gt;Node5 -->
<g id="edge4" class="edge">
<title>Node3&#45;&gt;Node5</title>
<path fill="none" stroke="midnightblue" d="M883.72,-1019.81C761.15,-991.99 481,-927.27 481,-917 481,-917 481,-917 481,-859 481,-811.51 429.23,-778.67 394.28,-761.91"/>
<polygon fill="midnightblue" stroke="midnightblue" points="395.47,-758.61 384.92,-757.61 392.54,-764.97 395.47,-758.61"/>
</g>
<!-- Node12 -->
<g id="node12" class="node">
<title>Node12</title>
<g id="a_node12"><a xlink:href="std__types_8h.html" target="_top" xlink:title="Standard C language types and definitions for ODP.">
<polygon fill="white" stroke="black" points="930,-235.5 930,-254.5 1042,-254.5 1042,-235.5 930,-235.5"/>
<text text-anchor="middle" x="986" y="-242.5" font-family="Helvetica,sans-Serif" font-size="10.00">odp/api/std_types.h</text>
</a>
</g>
</g>
<!-- Node3&#45;&gt;Node12 -->
<g id="edge70" class="edge">
<title>Node3&#45;&gt;Node12</title>
<path fill="none" stroke="midnightblue" d="M996.16,-1028.64C1064.82,-1020.51 1172,-995.29 1172,-917 1172,-917 1172,-917 1172,-685.5 1172,-531.23 1112.32,-502.01 1057,-358 1045.43,-327.87 1046.67,-318.01 1029,-291 1022.01,-280.31 1012.3,-269.9 1003.88,-261.78"/>
<polygon fill="midnightblue" stroke="midnightblue" points="1006.04,-259.01 996.33,-254.78 1001.28,-264.15 1006.04,-259.01"/>
</g>
<!-- Node19 -->
<g id="node19" class="node">
<title>Node19</title>
<g id="a_node19"><a xlink:title=" ">
<polygon fill="white" stroke="#bfbfbf" points="314,-0.5 314,-19.5 426,-19.5 426,-0.5 314,-0.5"/>
<text text-anchor="middle" x="370" y="-7.5" font-family="Helvetica,sans-Serif" font-size="10.00">odp/visibility_end.h</text>
</a>
</g>
</g>
<!-- Node3&#45;&gt;Node19 -->
<g id="edge71" class="edge">
<title>Node3&#45;&gt;Node19</title>
<path fill="none" stroke="midnightblue" d="M883.7,-1019.56C880.76,-1019.01 877.85,-1018.48 875,-1018 778.5,-1001.71 0,-1014.87 0,-917 0,-917 0,-917 0,-132 0,-93.41 10.17,-77.83 42,-56 83.29,-27.68 220.31,-17.06 303.63,-13.17"/>
<polygon fill="midnightblue" stroke="midnightblue" points="303.93,-16.66 313.76,-12.72 303.62,-9.67 303.93,-16.66"/>
</g>
<!-- Node29 -->
<g id="node29" class="node">
<title>Node29</title>
<g id="a_node29"><a xlink:href="pool__types_8h.html" target="_top" xlink:title="ODP pool.">
<polygon fill="white" stroke="black" points="881,-962.5 881,-981.5 999,-981.5 999,-962.5 881,-962.5"/>
<text text-anchor="middle" x="940" y="-969.5" font-family="Helvetica,sans-Serif" font-size="10.00">odp/api/pool_types.h</text>
</a>
</g>
</g>
<!-- Node3&#45;&gt;Node29 -->
<g id="edge43" class="edge">
<title>Node3&#45;&gt;Node29</title>
<path fill="none" stroke="midnightblue" d="M940,-1018.4C940,-1010.47 940,-1000.46 940,-991.86"/>
<polygon fill="midnightblue" stroke="midnightblue" points="943.5,-991.66 940,-981.66 936.5,-991.66 943.5,-991.66"/>
</g>
<!-- Node6 -->
<g id="node6" class="node">
<title>Node6</title>
<g id="a_node6"><a xlink:title=" ">
<polygon fill="white" stroke="#bfbfbf" points="190,-671.5 190,-701.5 296,-701.5 296,-671.5 190,-671.5"/>
<text text-anchor="start" x="198" y="-689.5" font-family="Helvetica,sans-Serif" font-size="10.00">odp/api/abi/packet</text>
<text text-anchor="middle" x="243" y="-678.5" font-family="Helvetica,sans-Serif" font-size="10.00">_io_types.h</text>
</a>
</g>
</g>
<!-- Node5&#45;&gt;Node6 -->
<g id="edge5" class="edge">
<title>Node5&#45;&gt;Node6</title>
<path fill="none" stroke="midnightblue" d="M345.81,-738.48C328.8,-730.04 302.2,-716.86 280.33,-706.01"/>
<polygon fill="midnightblue" stroke="midnightblue" points="281.8,-702.83 271.28,-701.52 278.69,-709.1 281.8,-702.83"/>
</g>
<!-- Node7 -->
<g id="node7" class="node">
<title>Node7</title>
<g id="a_node7"><a xlink:title=" ">
<polygon fill="white" stroke="#bfbfbf" points="66,-671.5 66,-701.5 172,-701.5 172,-671.5 66,-671.5"/>
<text text-anchor="start" x="74" y="-689.5" font-family="Helvetica,sans-Serif" font-size="10.00">odp/api/abi/packet</text>
<text text-anchor="middle" x="119" y="-678.5" font-family="Helvetica,sans-Serif" font-size="10.00">_types.h</text>
</a>
</g>
</g>
<!-- Node5&#45;&gt;Node7 -->
<g id="edge6" class="edge">
<title>Node5&#45;&gt;Node7</title>
<path fill="none" stroke="midnightblue" d="M328.04,-738.48C290.11,-729.22 228.74,-714.26 182.29,-702.93"/>
<polygon fill="midnightblue" stroke="midnightblue" points="182.87,-699.47 172.32,-700.5 181.21,-706.27 182.87,-699.47"/>
</g>
<!-- Node8 -->
<g id="node8" class="node">
<title>Node8</title>
<g id="a_node8"><a xlink:href="spec_2packet__types_8h.html" target="_top" xlink:title="ODP packet types.">
<polygon fill="white" stroke="black" points="314.5,-671.5 314.5,-701.5 427.5,-701.5 427.5,-671.5 314.5,-671.5"/>
<text text-anchor="start" x="322.5" y="-689.5" font-family="Helvetica,sans-Serif" font-size="10.00">odp/api/spec/packet</text>
<text text-anchor="middle" x="371" y="-678.5" font-family="Helvetica,sans-Serif" font-size="10.00">_types.h</text>
</a>
</g>
</g>
<!-- Node5&#45;&gt;Node8 -->
<g id="edge7" class="edge">
<title>Node5&#45;&gt;Node8</title>
<path fill="none" stroke="midnightblue" d="M364.15,-738.48C365.09,-731.47 366.47,-721.19 367.75,-711.7"/>
<polygon fill="midnightblue" stroke="midnightblue" points="371.25,-711.9 369.11,-701.52 364.31,-710.97 371.25,-711.9"/>
</g>
<!-- Node8&#45;&gt;Node4 -->
<g id="edge8" class="edge">
<title>Node8&#45;&gt;Node4</title>
<path fill="none" stroke="midnightblue" d="M371.25,-671.31C372.14,-645.75 376.04,-590.69 393,-548 492,-298.86 511.19,-192.38 742,-56 785.26,-30.44 920.84,-18.92 1005.37,-14.11"/>
<polygon fill="midnightblue" stroke="midnightblue" points="1005.62,-17.6 1015.41,-13.55 1005.24,-10.61 1005.62,-17.6"/>
</g>
<!-- Node9 -->
<g id="node9" class="node">
<title>Node9</title>
<g id="a_node9"><a xlink:href="proto__stats__types_8h.html" target="_top" xlink:title="ODP proto stats types.">
<polygon fill="white" stroke="black" points="198,-358.5 198,-388.5 308,-388.5 308,-358.5 198,-358.5"/>
<text text-anchor="start" x="206" y="-376.5" font-family="Helvetica,sans-Serif" font-size="10.00">odp/api/proto_stats</text>
<text text-anchor="middle" x="253" y="-365.5" font-family="Helvetica,sans-Serif" font-size="10.00">_types.h</text>
</a>
</g>
</g>
<!-- Node8&#45;&gt;Node9 -->
<g id="edge9" class="edge">
<title>Node8&#45;&gt;Node9</title>
<path fill="none" stroke="midnightblue" d="M348.73,-671.26C320.38,-651.19 275,-611.7 275,-564.5 275,-564.5 275,-564.5 275,-501 275,-464.92 266.2,-423.89 259.74,-398.59"/>
<polygon fill="midnightblue" stroke="midnightblue" points="263.08,-397.55 257.14,-388.78 256.31,-399.34 263.08,-397.55"/>
</g>
<!-- Node8&#45;&gt;Node19 -->
<g id="edge42" class="edge">
<title>Node8&#45;&gt;Node19</title>
<path fill="none" stroke="midnightblue" d="M324.58,-671.48C241.51,-645.71 76,-591.04 76,-564.5 76,-564.5 76,-564.5 76,-132 76,-96.58 73.25,-79.22 100,-56 129.71,-30.2 233.97,-18.95 303.89,-14.22"/>
<polygon fill="midnightblue" stroke="midnightblue" points="304.2,-17.71 313.95,-13.57 303.74,-10.72 304.2,-17.71"/>
</g>
<!-- Node20 -->
<g id="node20" class="node">
<title>Node20</title>
<g id="a_node20"><a xlink:href="queue__types_8h.html" target="_top" xlink:title="ODP queue.">
<polygon fill="white" stroke="black" points="440.5,-615.5 440.5,-634.5 567.5,-634.5 567.5,-615.5 440.5,-615.5"/>
<text text-anchor="middle" x="504" y="-622.5" font-family="Helvetica,sans-Serif" font-size="10.00">odp/api/queue_types.h</text>
</a>
</g>
</g>
<!-- Node8&#45;&gt;Node20 -->
<g id="edge25" class="edge">
<title>Node8&#45;&gt;Node20</title>
<path fill="none" stroke="midnightblue" d="M402.52,-671.4C424.64,-661.51 453.97,-648.38 475.41,-638.79"/>
<polygon fill="midnightblue" stroke="midnightblue" points="476.95,-641.94 484.65,-634.66 474.09,-635.55 476.95,-641.94"/>
</g>
<!-- Node10 -->
<g id="node10" class="node">
<title>Node10</title>
<g id="a_node10"><a xlink:title=" ">
<polygon fill="white" stroke="#bfbfbf" points="180,-291.5 180,-321.5 308,-321.5 308,-291.5 180,-291.5"/>
<text text-anchor="start" x="188" y="-309.5" font-family="Helvetica,sans-Serif" font-size="10.00">odp/api/abi/proto_stats</text>
<text text-anchor="middle" x="244" y="-298.5" font-family="Helvetica,sans-Serif" font-size="10.00">_types.h</text>
</a>
</g>
</g>
<!-- Node9&#45;&gt;Node10 -->
<g id="edge10" class="edge">
<title>Node9&#45;&gt;Node10</title>
<path fill="none" stroke="midnightblue" d="M251.05,-358.4C249.96,-350.56 248.58,-340.6 247.33,-331.57"/>
<polygon fill="midnightblue" stroke="midnightblue" points="250.79,-331 245.95,-321.58 243.85,-331.96 250.79,-331"/>
</g>
<!-- Node11 -->
<g id="node11" class="node">
<title>Node11</title>
<g id="a_node11"><a xlink:href="spec_2proto__stats__types_8h.html" target="_top" xlink:title="ODP proto stats types.">
<polygon fill="white" stroke="black" points="364.5,-291.5 364.5,-321.5 471.5,-321.5 471.5,-291.5 364.5,-291.5"/>
<text text-anchor="start" x="372.5" y="-309.5" font-family="Helvetica,sans-Serif" font-size="10.00">odp/api/spec/proto</text>
<text text-anchor="middle" x="418" y="-298.5" font-family="Helvetica,sans-Serif" font-size="10.00">_stats_types.h</text>
</a>
</g>
</g>
<!-- Node9&#45;&gt;Node11 -->
<g id="edge11" class="edge">
<title>Node9&#45;&gt;Node11</title>
<path fill="none" stroke="midnightblue" d="M288.8,-358.4C313.45,-348.69 346.39,-335.71 372.84,-325.29"/>
<polygon fill="midnightblue" stroke="midnightblue" points="374.25,-328.5 382.27,-321.58 371.68,-321.99 374.25,-328.5"/>
</g>
<!-- Node11&#45;&gt;Node4 -->
<g id="edge12" class="edge">
<title>Node11&#45;&gt;Node4</title>
<path fill="none" stroke="midnightblue" d="M427.43,-291.42C444.4,-266.75 482.04,-214.92 522,-179 595.98,-112.49 615.62,-90.29 709,-56 807.27,-19.92 929.27,-11.54 1004.89,-10.22"/>
<polygon fill="midnightblue" stroke="midnightblue" points="1005.29,-13.72 1015.24,-10.08 1005.19,-6.72 1005.29,-13.72"/>
</g>
<!-- Node11&#45;&gt;Node12 -->
<g id="edge13" class="edge">
<title>Node11&#45;&gt;Node12</title>
<path fill="none" stroke="midnightblue" d="M471.69,-299.88C576.12,-288.94 806.25,-264.83 919.88,-252.93"/>
<polygon fill="midnightblue" stroke="midnightblue" points="920.26,-256.41 929.84,-251.88 919.53,-249.44 920.26,-256.41"/>
</g>
<!-- Node11&#45;&gt;Node19 -->
<g id="edge24" class="edge">
<title>Node11&#45;&gt;Node19</title>
<path fill="none" stroke="midnightblue" d="M414.96,-291.35C410.58,-269.65 403,-226.8 403,-190 403,-190 403,-190 403,-132 403,-94.24 387.85,-52.1 378.08,-28.85"/>
<polygon fill="midnightblue" stroke="midnightblue" points="381.25,-27.36 374.05,-19.59 374.83,-30.15 381.25,-27.36"/>
</g>
<!-- Node13 -->
<g id="node13" class="node">
<title>Node13</title>
<g id="a_node13"><a xlink:title=" ">
<polygon fill="white" stroke="#bfbfbf" points="935,-179.5 935,-198.5 1065,-198.5 1065,-179.5 935,-179.5"/>
<text text-anchor="middle" x="1000" y="-186.5" font-family="Helvetica,sans-Serif" font-size="10.00">odp/api/abi/std_types.h</text>
</a>
</g>
</g>
<!-- Node12&#45;&gt;Node13 -->
<g id="edge14" class="edge">
<title>Node12&#45;&gt;Node13</title>
<path fill="none" stroke="midnightblue" d="M988.31,-235.08C990.17,-227.93 992.84,-217.64 995.15,-208.69"/>
<polygon fill="midnightblue" stroke="midnightblue" points="998.61,-209.31 997.73,-198.75 991.83,-207.55 998.61,-209.31"/>
</g>
<!-- Node14 -->
<g id="node14" class="node">
<title>Node14</title>
<g id="a_node14"><a xlink:href="spec_2std__types_8h.html" target="_top" xlink:title="Common types and definitions for ODP API files.">
<polygon fill="white" stroke="black" points="741.5,-179.5 741.5,-198.5 878.5,-198.5 878.5,-179.5 741.5,-179.5"/>
<text text-anchor="middle" x="810" y="-186.5" font-family="Helvetica,sans-Serif" font-size="10.00">odp/api/spec/std_types.h</text>
</a>
</g>
</g>
<!-- Node12&#45;&gt;Node14 -->
<g id="edge15" class="edge">
<title>Node12&#45;&gt;Node14</title>
<path fill="none" stroke="midnightblue" d="M958.11,-235.44C928.25,-226.28 880.69,-211.69 847.54,-201.52"/>
<polygon fill="midnightblue" stroke="midnightblue" points="848.34,-198.1 837.76,-198.52 846.29,-204.8 848.34,-198.1"/>
</g>
<!-- Node14&#45;&gt;Node4 -->
<g id="edge16" class="edge">
<title>Node14&#45;&gt;Node4</title>
<path fill="none" stroke="midnightblue" d="M842.72,-179.47C868.34,-171.99 904.31,-159.7 933,-143 987.54,-111.25 1038.62,-55.56 1062.25,-27.77"/>
<polygon fill="midnightblue" stroke="midnightblue" points="1065.2,-29.7 1068.93,-19.79 1059.83,-25.21 1065.2,-29.7"/>
</g>
<!-- Node15 -->
<g id="node15" class="node">
<title>Node15</title>
<g id="a_node15"><a xlink:title=" ">
<polygon fill="white" stroke="#bfbfbf" points="871.5,-123.5 871.5,-142.5 924.5,-142.5 924.5,-123.5 871.5,-123.5"/>
<text text-anchor="middle" x="898" y="-130.5" font-family="Helvetica,sans-Serif" font-size="10.00">stdint.h</text>
</a>
</g>
</g>
<!-- Node14&#45;&gt;Node15 -->
<g id="edge17" class="edge">
<title>Node14&#45;&gt;Node15</title>
<path fill="none" stroke="midnightblue" d="M824.14,-179.32C837.87,-170.9 858.94,-157.97 875.06,-148.07"/>
<polygon fill="midnightblue" stroke="midnightblue" points="877.2,-150.87 883.9,-142.65 873.54,-144.9 877.2,-150.87"/>
</g>
<!-- Node16 -->
<g id="node16" class="node">
<title>Node16</title>
<g id="a_node16"><a xlink:href="align_8h.html" target="_top" xlink:title="ODP alignments.">
<polygon fill="white" stroke="black" points="764.5,-123.5 764.5,-142.5 853.5,-142.5 853.5,-123.5 764.5,-123.5"/>
<text text-anchor="middle" x="809" y="-130.5" font-family="Helvetica,sans-Serif" font-size="10.00">odp/api/align.h</text>
</a>
</g>
</g>
<!-- Node14&#45;&gt;Node16 -->
<g id="edge18" class="edge">
<title>Node14&#45;&gt;Node16</title>
<path fill="none" stroke="midnightblue" d="M809.83,-179.08C809.7,-172.01 809.52,-161.86 809.35,-152.99"/>
<polygon fill="midnightblue" stroke="midnightblue" points="812.85,-152.68 809.16,-142.75 805.85,-152.81 812.85,-152.68"/>
</g>
<!-- Node14&#45;&gt;Node19 -->
<g id="edge23" class="edge">
<title>Node14&#45;&gt;Node19</title>
<path fill="none" stroke="midnightblue" d="M799.25,-179.46C765.58,-152.86 662.06,-72.3 623,-56 562.69,-30.83 488.56,-19.73 436.18,-14.84"/>
<polygon fill="midnightblue" stroke="midnightblue" points="436.27,-11.34 426,-13.94 435.65,-18.31 436.27,-11.34"/>
</g>
<!-- Node17 -->
<g id="node17" class="node">
<title>Node17</title>
<g id="a_node17"><a xlink:title=" ">
<polygon fill="white" stroke="#bfbfbf" points="883.5,-62 883.5,-81 990.5,-81 990.5,-62 883.5,-62"/>
<text text-anchor="middle" x="937" y="-69" font-family="Helvetica,sans-Serif" font-size="10.00">odp/api/abi/align.h</text>
</a>
</g>
</g>
<!-- Node16&#45;&gt;Node17 -->
<g id="edge19" class="edge">
<title>Node16&#45;&gt;Node17</title>
<path fill="none" stroke="midnightblue" d="M827.34,-123.48C848.82,-113.49 884.62,-96.85 909.45,-85.31"/>
<polygon fill="midnightblue" stroke="midnightblue" points="911.1,-88.4 918.69,-81.01 908.15,-82.05 911.1,-88.4"/>
</g>
<!-- Node18 -->
<g id="node18" class="node">
<title>Node18</title>
<g id="a_node18"><a xlink:href="spec_2align_8h.html" target="_top" xlink:title="ODP alignments.">
<polygon fill="white" stroke="black" points="751,-62 751,-81 865,-81 865,-62 751,-62"/>
<text text-anchor="middle" x="808" y="-69" font-family="Helvetica,sans-Serif" font-size="10.00">odp/api/spec/align.h</text>
</a>
</g>
</g>
<!-- Node16&#45;&gt;Node18 -->
<g id="edge20" class="edge">
<title>Node16&#45;&gt;Node18</title>
<path fill="none" stroke="midnightblue" d="M808.86,-123.48C808.72,-115.08 808.5,-101.98 808.31,-91.16"/>
<polygon fill="midnightblue" stroke="midnightblue" points="811.81,-90.95 808.14,-81.01 804.81,-91.07 811.81,-90.95"/>
</g>
<!-- Node18&#45;&gt;Node4 -->
<g id="edge21" class="edge">
<title>Node18&#45;&gt;Node4</title>
<path fill="none" stroke="midnightblue" d="M846.4,-61.98C894.16,-51.37 975.74,-33.26 1027.7,-21.72"/>
<polygon fill="midnightblue" stroke="midnightblue" points="1028.67,-25.09 1037.67,-19.51 1027.15,-18.26 1028.67,-25.09"/>
</g>
<!-- Node18&#45;&gt;Node19 -->
<g id="edge22" class="edge">
<title>Node18&#45;&gt;Node19</title>
<path fill="none" stroke="midnightblue" d="M750.74,-62.72C669.74,-51.72 522.05,-31.66 436.37,-20.02"/>
<polygon fill="midnightblue" stroke="midnightblue" points="436.62,-16.52 426.24,-18.64 435.67,-23.45 436.62,-16.52"/>
</g>
<!-- Node21 -->
<g id="node21" class="node">
<title>Node21</title>
<g id="a_node21"><a xlink:title=" ">
<polygon fill="white" stroke="#bfbfbf" points="402.5,-554 402.5,-573 547.5,-573 547.5,-554 402.5,-554"/>
<text text-anchor="middle" x="475" y="-561" font-family="Helvetica,sans-Serif" font-size="10.00">odp/api/abi/queue_types.h</text>
</a>
</g>
</g>
<!-- Node20&#45;&gt;Node21 -->
<g id="edge26" class="edge">
<title>Node20&#45;&gt;Node21</title>
<path fill="none" stroke="midnightblue" d="M499.85,-615.48C495.62,-606.82 488.96,-593.15 483.6,-582.15"/>
<polygon fill="midnightblue" stroke="midnightblue" points="486.67,-580.46 479.15,-573.01 480.38,-583.53 486.67,-580.46"/>
</g>
<!-- Node22 -->
<g id="node22" class="node">
<title>Node22</title>
<g id="a_node22"><a xlink:href="spec_2queue__types_8h.html" target="_top" xlink:title="ODP queue types.">
<polygon fill="white" stroke="black" points="642.5,-548.5 642.5,-578.5 753.5,-578.5 753.5,-548.5 642.5,-548.5"/>
<text text-anchor="start" x="650.5" y="-566.5" font-family="Helvetica,sans-Serif" font-size="10.00">odp/api/spec/queue</text>
<text text-anchor="middle" x="698" y="-555.5" font-family="Helvetica,sans-Serif" font-size="10.00">_types.h</text>
</a>
</g>
</g>
<!-- Node20&#45;&gt;Node22 -->
<g id="edge27" class="edge">
<title>Node20&#45;&gt;Node22</title>
<path fill="none" stroke="midnightblue" d="M531.8,-615.48C560.53,-606.66 606.16,-592.67 642.34,-581.57"/>
<polygon fill="midnightblue" stroke="midnightblue" points="643.74,-584.8 652.28,-578.52 641.69,-578.11 643.74,-584.8"/>
</g>
<!-- Node22&#45;&gt;Node4 -->
<g id="edge28" class="edge">
<title>Node22&#45;&gt;Node4</title>
<path fill="none" stroke="midnightblue" d="M753.53,-549.94C870.81,-519.79 1133,-431.62 1133,-246 1133,-246 1133,-246 1133,-132 1133,-91.59 1106.66,-50.21 1089.79,-27.85"/>
<polygon fill="midnightblue" stroke="midnightblue" points="1092.37,-25.46 1083.45,-19.74 1086.85,-29.77 1092.37,-25.46"/>
</g>
<!-- Node22&#45;&gt;Node19 -->
<g id="edge41" class="edge">
<title>Node22&#45;&gt;Node19</title>
<path fill="none" stroke="midnightblue" d="M665.02,-548.47C629.69,-533.64 571.83,-509.98 521,-492 375.35,-440.49 296.13,-500.32 189,-389 185.02,-384.87 152,-248.93 152,-246 152,-246 152,-246 152,-132 152,-61.74 239.64,-31.93 303.78,-19.53"/>
<polygon fill="midnightblue" stroke="midnightblue" points="304.65,-22.92 313.86,-17.68 303.39,-16.04 304.65,-22.92"/>
</g>
<!-- Node23 -->
<g id="node23" class="node">
<title>Node23</title>
<g id="a_node23"><a xlink:href="schedule__types_8h.html" target="_top" xlink:title="ODP schedule.">
<polygon fill="white" stroke="black" points="642,-492.5 642,-511.5 782,-511.5 782,-492.5 642,-492.5"/>
<text text-anchor="middle" x="712" y="-499.5" font-family="Helvetica,sans-Serif" font-size="10.00">odp/api/schedule_types.h</text>
</a>
</g>
</g>
<!-- Node22&#45;&gt;Node23 -->
<g id="edge29" class="edge">
<title>Node22&#45;&gt;Node23</title>
<path fill="none" stroke="midnightblue" d="M701.32,-548.4C703.21,-540.38 705.59,-530.23 707.63,-521.57"/>
<polygon fill="midnightblue" stroke="midnightblue" points="711.08,-522.19 709.96,-511.66 704.27,-520.59 711.08,-522.19"/>
</g>
<!-- Node24 -->
<g id="node24" class="node">
<title>Node24</title>
<g id="a_node24"><a xlink:title=" ">
<polygon fill="white" stroke="#bfbfbf" points="642.5,-425.5 642.5,-455.5 759.5,-455.5 759.5,-425.5 642.5,-425.5"/>
<text text-anchor="start" x="650.5" y="-443.5" font-family="Helvetica,sans-Serif" font-size="10.00">odp/api/abi/schedule</text>
<text text-anchor="middle" x="701" y="-432.5" font-family="Helvetica,sans-Serif" font-size="10.00">_types.h</text>
</a>
</g>
</g>
<!-- Node23&#45;&gt;Node24 -->
<g id="edge30" class="edge">
<title>Node23&#45;&gt;Node24</title>
<path fill="none" stroke="midnightblue" d="M710.42,-492.48C709.12,-485.4 707.19,-474.97 705.42,-465.39"/>
<polygon fill="midnightblue" stroke="midnightblue" points="708.85,-464.72 703.59,-455.52 701.97,-465.99 708.85,-464.72"/>
</g>
<!-- Node25 -->
<g id="node25" class="node">
<title>Node25</title>
<g id="a_node25"><a xlink:href="spec_2schedule__types_8h.html" target="_top" xlink:title="ODP schedule types.">
<polygon fill="white" stroke="black" points="777.5,-425.5 777.5,-455.5 902.5,-455.5 902.5,-425.5 777.5,-425.5"/>
<text text-anchor="start" x="785.5" y="-443.5" font-family="Helvetica,sans-Serif" font-size="10.00">odp/api/spec/schedule</text>
<text text-anchor="middle" x="840" y="-432.5" font-family="Helvetica,sans-Serif" font-size="10.00">_types.h</text>
</a>
</g>
</g>
<!-- Node23&#45;&gt;Node25 -->
<g id="edge31" class="edge">
<title>Node23&#45;&gt;Node25</title>
<path fill="none" stroke="midnightblue" d="M730.34,-492.48C748.57,-484 777.1,-470.74 800.5,-459.86"/>
<polygon fill="midnightblue" stroke="midnightblue" points="802.24,-462.91 809.83,-455.52 799.29,-456.56 802.24,-462.91"/>
</g>
<!-- Node25&#45;&gt;Node4 -->
<g id="edge32" class="edge">
<title>Node25&#45;&gt;Node4</title>
<path fill="none" stroke="midnightblue" d="M892.53,-425.41C967.17,-401.82 1095,-346.73 1095,-246 1095,-246 1095,-246 1095,-132 1095,-95.29 1086.36,-53.06 1080.73,-29.45"/>
<polygon fill="midnightblue" stroke="midnightblue" points="1084.13,-28.6 1078.33,-19.73 1077.33,-30.28 1084.13,-28.6"/>
</g>
<!-- Node25&#45;&gt;Node12 -->
<g id="edge33" class="edge">
<title>Node25&#45;&gt;Node12</title>
<path fill="none" stroke="midnightblue" d="M849.11,-425.44C855.59,-415.36 864.46,-401.42 872,-389 898.16,-345.93 895.98,-329.06 929,-291 939.04,-279.43 952.39,-268.7 963.65,-260.63"/>
<polygon fill="midnightblue" stroke="midnightblue" points="965.9,-263.33 972.12,-254.75 961.91,-257.57 965.9,-263.33"/>
</g>
<!-- Node25&#45;&gt;Node19 -->
<g id="edge40" class="edge">
<title>Node25&#45;&gt;Node19</title>
<path fill="none" stroke="midnightblue" d="M794.05,-425.36C741.62,-407.55 655.36,-372.99 595,-322 484.4,-228.59 494.81,-171.1 407,-56 399.72,-46.45 391.23,-36.08 384.22,-27.7"/>
<polygon fill="midnightblue" stroke="midnightblue" points="386.69,-25.2 377.57,-19.81 381.34,-29.71 386.69,-25.2"/>
</g>
<!-- Node26 -->
<g id="node26" class="node">
<title>Node26</title>
<g id="a_node26"><a xlink:href="thrmask_8h.html" target="_top" xlink:title="ODP thread masks.">
<polygon fill="white" stroke="black" points="758.5,-364 758.5,-383 863.5,-383 863.5,-364 758.5,-364"/>
<text text-anchor="middle" x="811" y="-371" font-family="Helvetica,sans-Serif" font-size="10.00">odp/api/thrmask.h</text>
</a>
</g>
</g>
<!-- Node25&#45;&gt;Node26 -->
<g id="edge34" class="edge">
<title>Node25&#45;&gt;Node26</title>
<path fill="none" stroke="midnightblue" d="M833.71,-425.4C829.41,-415.76 823.68,-402.91 819.05,-392.54"/>
<polygon fill="midnightblue" stroke="midnightblue" points="822.15,-390.9 814.88,-383.19 815.76,-393.75 822.15,-390.9"/>
</g>
<!-- Node27 -->
<g id="node27" class="node">
<title>Node27</title>
<g id="a_node27"><a xlink:title=" ">
<polygon fill="white" stroke="#bfbfbf" points="604.5,-297 604.5,-316 727.5,-316 727.5,-297 604.5,-297"/>
<text text-anchor="middle" x="666" y="-304" font-family="Helvetica,sans-Serif" font-size="10.00">odp/api/abi/thrmask.h</text>
</a>
</g>
</g>
<!-- Node26&#45;&gt;Node27 -->
<g id="edge35" class="edge">
<title>Node26&#45;&gt;Node27</title>
<path fill="none" stroke="midnightblue" d="M791.75,-363.87C766.83,-352.7 723.21,-333.15 694.47,-320.26"/>
<polygon fill="midnightblue" stroke="midnightblue" points="695.89,-317.06 685.33,-316.17 693.03,-323.45 695.89,-317.06"/>
</g>
<!-- Node28 -->
<g id="node28" class="node">
<title>Node28</title>
<g id="a_node28"><a xlink:href="spec_2thrmask_8h.html" target="_top" xlink:title="ODP thread masks.">
<polygon fill="white" stroke="black" points="745.5,-297 745.5,-316 876.5,-316 876.5,-297 745.5,-297"/>
<text text-anchor="middle" x="811" y="-304" font-family="Helvetica,sans-Serif" font-size="10.00">odp/api/spec/thrmask.h</text>
</a>
</g>
</g>
<!-- Node26&#45;&gt;Node28 -->
<g id="edge36" class="edge">
<title>Node26&#45;&gt;Node28</title>
<path fill="none" stroke="midnightblue" d="M811,-363.73C811,-354.18 811,-338.62 811,-326.28"/>
<polygon fill="midnightblue" stroke="midnightblue" points="814.5,-326.13 811,-316.13 807.5,-326.13 814.5,-326.13"/>
</g>
<!-- Node28&#45;&gt;Node4 -->
<g id="edge37" class="edge">
<title>Node28&#45;&gt;Node4</title>
<path fill="none" stroke="midnightblue" d="M818.14,-296.83C835.65,-275.78 882.43,-220.62 926,-179 972.33,-134.74 996.89,-136.97 1037,-87 1051.32,-69.16 1062.54,-45.24 1069.2,-29.03"/>
<polygon fill="midnightblue" stroke="midnightblue" points="1072.49,-30.22 1072.9,-19.64 1065.98,-27.66 1072.49,-30.22"/>
</g>
<!-- Node28&#45;&gt;Node12 -->
<g id="edge38" class="edge">
<title>Node28&#45;&gt;Node12</title>
<path fill="none" stroke="midnightblue" d="M836.07,-296.98C866.35,-286.68 917.44,-269.31 951.44,-257.75"/>
<polygon fill="midnightblue" stroke="midnightblue" points="952.63,-261.04 960.97,-254.51 950.38,-254.41 952.63,-261.04"/>
</g>
<!-- Node28&#45;&gt;Node19 -->
<g id="edge39" class="edge">
<title>Node28&#45;&gt;Node19</title>
<path fill="none" stroke="midnightblue" d="M803.97,-296.98C769.34,-255.09 617.44,-72.4 589,-56 542.27,-29.05 481.73,-18.1 436.14,-13.72"/>
<polygon fill="midnightblue" stroke="midnightblue" points="436.34,-10.22 426.07,-12.83 435.73,-17.19 436.34,-10.22"/>
</g>
<!-- Node30 -->
<g id="node30" class="node">
<title>Node30</title>
<g id="a_node30"><a xlink:title=" ">
<polygon fill="white" stroke="#bfbfbf" points="951,-906.5 951,-925.5 1087,-925.5 1087,-906.5 951,-906.5"/>
<text text-anchor="middle" x="1019" y="-913.5" font-family="Helvetica,sans-Serif" font-size="10.00">odp/api/abi/pool_types.h</text>
</a>
</g>
</g>
<!-- Node29&#45;&gt;Node30 -->
<g id="edge44" class="edge">
<title>Node29&#45;&gt;Node30</title>
<path fill="none" stroke="midnightblue" d="M952.69,-962.32C964.9,-953.98 983.58,-941.21 998,-931.35"/>
<polygon fill="midnightblue" stroke="midnightblue" points="1000.06,-934.19 1006.34,-925.65 996.11,-928.41 1000.06,-934.19"/>
</g>
<!-- Node31 -->
<g id="node31" class="node">
<title>Node31</title>
<g id="a_node31"><a xlink:href="spec_2pool__types_8h.html" target="_top" xlink:title="Type definitions for pools.">
<polygon fill="white" stroke="black" points="789.5,-906.5 789.5,-925.5 932.5,-925.5 932.5,-906.5 789.5,-906.5"/>
<text text-anchor="middle" x="861" y="-913.5" font-family="Helvetica,sans-Serif" font-size="10.00">odp/api/spec/pool_types.h</text>
</a>
</g>
</g>
<!-- Node29&#45;&gt;Node31 -->
<g id="edge45" class="edge">
<title>Node29&#45;&gt;Node31</title>
<path fill="none" stroke="midnightblue" d="M927.31,-962.32C915.1,-953.98 896.42,-941.21 882,-931.35"/>
<polygon fill="midnightblue" stroke="midnightblue" points="883.89,-928.41 873.66,-925.65 879.94,-934.19 883.89,-928.41"/>
</g>
<!-- Node31&#45;&gt;Node4 -->
<g id="edge46" class="edge">
<title>Node31&#45;&gt;Node4</title>
<path fill="none" stroke="midnightblue" d="M922.99,-906.46C960.2,-899.78 1007.76,-888.45 1047,-870 1090.68,-849.46 1134,-853.27 1134,-805 1134,-805 1134,-805 1134,-685.5 1134,-565.99 1247,-561.01 1247,-441.5 1247,-441.5 1247,-441.5 1247,-132 1247,-70.97 1173.52,-37.96 1122.9,-22.46"/>
<polygon fill="midnightblue" stroke="midnightblue" points="1123.69,-19.04 1113.1,-19.59 1121.72,-25.76 1123.69,-19.04"/>
</g>
<!-- Node31&#45;&gt;Node12 -->
<g id="edge47" class="edge">
<title>Node31&#45;&gt;Node12</title>
<path fill="none" stroke="midnightblue" d="M895.68,-906.46C961.04,-889.34 1096,-848.7 1096,-805 1096,-805 1096,-805 1096,-624 1096,-479.83 1021.32,-316.61 995.03,-263.61"/>
<polygon fill="midnightblue" stroke="midnightblue" points="998.07,-261.88 990.45,-254.52 991.82,-265.03 998.07,-261.88"/>
</g>
<!-- Node31&#45;&gt;Node19 -->
<g id="edge69" class="edge">
<title>Node31&#45;&gt;Node19</title>
<path fill="none" stroke="midnightblue" d="M789.4,-912.9C589.17,-906.1 38,-880.5 38,-805 38,-805 38,-805 38,-132 38,-94.43 44.75,-78.27 75,-56 110.32,-30 227.93,-18.71 303.55,-14.04"/>
<polygon fill="midnightblue" stroke="midnightblue" points="304.15,-17.51 313.93,-13.43 303.74,-10.53 304.15,-17.51"/>
</g>
<!-- Node32 -->
<g id="node32" class="node">
<title>Node32</title>
<g id="a_node32"><a xlink:href="dma__types_8h.html" target="_top" xlink:title="ODP DMA.">
<polygon fill="white" stroke="black" points="801.5,-850.5 801.5,-869.5 920.5,-869.5 920.5,-850.5 801.5,-850.5"/>
<text text-anchor="middle" x="861" y="-857.5" font-family="Helvetica,sans-Serif" font-size="10.00">odp/api/dma_types.h</text>
</a>
</g>
</g>
<!-- Node31&#45;&gt;Node32 -->
<g id="edge48" class="edge">
<title>Node31&#45;&gt;Node32</title>
<path fill="none" stroke="midnightblue" d="M861,-906.08C861,-899.01 861,-888.86 861,-879.99"/>
<polygon fill="midnightblue" stroke="midnightblue" points="864.5,-879.75 861,-869.75 857.5,-879.75 864.5,-879.75"/>
</g>
<!-- Node38 -->
<g id="node38" class="node">
<title>Node38</title>
<g id="a_node38"><a xlink:href="ml__types_8h.html" target="_top" xlink:title="ODP Machine Learning (ML) types.">
<polygon fill="white" stroke="black" points="547,-738.5 547,-757.5 657,-757.5 657,-738.5 547,-738.5"/>
<text text-anchor="middle" x="602" y="-745.5" font-family="Helvetica,sans-Serif" font-size="10.00">odp/api/ml_types.h</text>
</a>
</g>
</g>
<!-- Node31&#45;&gt;Node38 -->
<g id="edge61" class="edge">
<title>Node31&#45;&gt;Node38</title>
<path fill="none" stroke="midnightblue" d="M847.44,-906.31C805.22,-879.25 675.84,-796.32 623.91,-763.04"/>
<polygon fill="midnightblue" stroke="midnightblue" points="625.73,-760.05 615.43,-757.61 621.96,-765.95 625.73,-760.05"/>
</g>
<!-- Node33 -->
<g id="node33" class="node">
<title>Node33</title>
<g id="a_node33"><a xlink:title=" ">
<polygon fill="white" stroke="#bfbfbf" points="895.5,-794.5 895.5,-813.5 1032.5,-813.5 1032.5,-794.5 895.5,-794.5"/>
<text text-anchor="middle" x="964" y="-801.5" font-family="Helvetica,sans-Serif" font-size="10.00">odp/api/abi/dma_types.h</text>
</a>
</g>
</g>
<!-- Node32&#45;&gt;Node33 -->
<g id="edge49" class="edge">
<title>Node32&#45;&gt;Node33</title>
<path fill="none" stroke="midnightblue" d="M877.55,-850.32C893.99,-841.7 919.43,-828.36 938.47,-818.39"/>
<polygon fill="midnightblue" stroke="midnightblue" points="940.26,-821.4 947.49,-813.65 937.01,-815.2 940.26,-821.4"/>
</g>
<!-- Node34 -->
<g id="node34" class="node">
<title>Node34</title>
<g id="a_node34"><a xlink:href="spec_2dma__types_8h.html" target="_top" xlink:title="ODP DMA.">
<polygon fill="white" stroke="black" points="733,-794.5 733,-813.5 877,-813.5 877,-794.5 733,-794.5"/>
<text text-anchor="middle" x="805" y="-801.5" font-family="Helvetica,sans-Serif" font-size="10.00">odp/api/spec/dma_types.h</text>
</a>
</g>
</g>
<!-- Node32&#45;&gt;Node34 -->
<g id="edge50" class="edge">
<title>Node32&#45;&gt;Node34</title>
<path fill="none" stroke="midnightblue" d="M852,-850.32C843.81,-842.42 831.49,-830.55 821.53,-820.94"/>
<polygon fill="midnightblue" stroke="midnightblue" points="823.79,-818.26 814.16,-813.83 818.93,-823.29 823.79,-818.26"/>
</g>
<!-- Node34&#45;&gt;Node4 -->
<g id="edge51" class="edge">
<title>Node34&#45;&gt;Node4</title>
<path fill="none" stroke="midnightblue" d="M861.89,-794.43C911.78,-786.14 979.86,-772.7 1003,-758 1036.55,-736.69 1058,-727.24 1058,-687.5 1058,-687.5 1058,-687.5 1058,-624 1058,-494.38 1209,-504.12 1209,-374.5 1209,-374.5 1209,-374.5 1209,-132 1209,-77.75 1147.72,-41.4 1108.35,-23.64"/>
<polygon fill="midnightblue" stroke="midnightblue" points="1109.43,-20.3 1098.86,-19.53 1106.65,-26.72 1109.43,-20.3"/>
</g>
<!-- Node34&#45;&gt;Node5 -->
<g id="edge57" class="edge">
<title>Node34&#45;&gt;Node5</title>
<path fill="none" stroke="midnightblue" d="M734.96,-794.44C653.88,-784.54 520.86,-768.29 437.8,-758.14"/>
<polygon fill="midnightblue" stroke="midnightblue" points="438.03,-754.64 427.68,-756.9 437.18,-761.59 438.03,-754.64"/>
</g>
<!-- Node34&#45;&gt;Node12 -->
<g id="edge59" class="edge">
<title>Node34&#45;&gt;Node12</title>
<path fill="none" stroke="midnightblue" d="M876.29,-794.44C938.88,-782.48 1020,-754.13 1020,-687.5 1020,-687.5 1020,-687.5 1020,-562.5 1020,-448.92 998.09,-313.72 989.44,-264.81"/>
<polygon fill="midnightblue" stroke="midnightblue" points="992.85,-264 987.64,-254.77 985.96,-265.23 992.85,-264"/>
</g>
<!-- Node34&#45;&gt;Node19 -->
<g id="edge60" class="edge">
<title>Node34&#45;&gt;Node19</title>
<path fill="none" stroke="midnightblue" d="M732.77,-796.35C665.4,-789.17 570.55,-776.24 538,-758 474.94,-722.65 336,-575.29 336,-503 336,-503 336,-503 336,-132 336,-94.16 351.61,-52.05 361.67,-28.83"/>
<polygon fill="midnightblue" stroke="midnightblue" points="364.93,-30.13 365.83,-19.57 358.54,-27.26 364.93,-30.13"/>
</g>
<!-- Node34&#45;&gt;Node20 -->
<g id="edge58" class="edge">
<title>Node34&#45;&gt;Node20</title>
<path fill="none" stroke="midnightblue" d="M796.25,-794.22C768.22,-766.12 681.49,-679.77 666,-671 636.56,-654.33 600.57,-643.53 570,-636.7"/>
<polygon fill="midnightblue" stroke="midnightblue" points="570.37,-633.2 559.86,-634.54 568.91,-640.05 570.37,-633.2"/>
</g>
<!-- Node35 -->
<g id="node35" class="node">
<title>Node35</title>
<g id="a_node35"><a xlink:href="event__types_8h.html" target="_top" xlink:title="ODP event API type definitions.">
<polygon fill="white" stroke="black" points="812.5,-615.5 812.5,-634.5 937.5,-634.5 937.5,-615.5 812.5,-615.5"/>
<text text-anchor="middle" x="875" y="-622.5" font-family="Helvetica,sans-Serif" font-size="10.00">odp/api/event_types.h</text>
</a>
</g>
</g>
<!-- Node34&#45;&gt;Node35 -->
<g id="edge52" class="edge">
<title>Node34&#45;&gt;Node35</title>
<path fill="none" stroke="midnightblue" d="M810.34,-794.41C820.71,-777.39 843.74,-737.89 857,-702 864.04,-682.96 869,-660.21 871.9,-644.59"/>
<polygon fill="midnightblue" stroke="midnightblue" points="875.37,-645.09 873.66,-634.63 868.48,-643.87 875.37,-645.09"/>
</g>
<!-- Node36 -->
<g id="node36" class="node">
<title>Node36</title>
<g id="a_node36"><a xlink:title=" ">
<polygon fill="white" stroke="#bfbfbf" points="810.5,-554 810.5,-573 953.5,-573 953.5,-554 810.5,-554"/>
<text text-anchor="middle" x="882" y="-561" font-family="Helvetica,sans-Serif" font-size="10.00">odp/api/abi/event_types.h</text>
</a>
</g>
</g>
<!-- Node35&#45;&gt;Node36 -->
<g id="edge53" class="edge">
<title>Node35&#45;&gt;Node36</title>
<path fill="none" stroke="midnightblue" d="M876,-615.48C876.99,-607.08 878.53,-593.98 879.8,-583.16"/>
<polygon fill="midnightblue" stroke="midnightblue" points="883.31,-583.35 881,-573.01 876.35,-582.53 883.31,-583.35"/>
</g>
<!-- Node37 -->
<g id="node37" class="node">
<title>Node37</title>
<g id="a_node37"><a xlink:href="spec_2event__types_8h.html" target="_top" xlink:title="ODP event API type definitions.">
<polygon fill="white" stroke="black" points="471.5,-56.5 471.5,-86.5 580.5,-86.5 580.5,-56.5 471.5,-56.5"/>
<text text-anchor="start" x="479.5" y="-74.5" font-family="Helvetica,sans-Serif" font-size="10.00">odp/api/spec/event</text>
<text text-anchor="middle" x="526" y="-63.5" font-family="Helvetica,sans-Serif" font-size="10.00">_types.h</text>
</a>
</g>
</g>
<!-- Node35&#45;&gt;Node37 -->
<g id="edge54" class="edge">
<title>Node35&#45;&gt;Node37</title>
<path fill="none" stroke="midnightblue" d="M812.24,-619.09C749.94,-613.06 659.94,-600.82 633,-579 581.6,-537.36 576,-507.65 576,-441.5 576,-441.5 576,-441.5 576,-372.5 576,-268.49 546.39,-146.91 532.75,-96.39"/>
<polygon fill="midnightblue" stroke="midnightblue" points="536.11,-95.44 530.09,-86.72 529.36,-97.29 536.11,-95.44"/>
</g>
<!-- Node37&#45;&gt;Node4 -->
<g id="edge55" class="edge">
<title>Node37&#45;&gt;Node4</title>
<path fill="none" stroke="midnightblue" d="M580.66,-62.73C597.44,-60.45 615.97,-58.02 633,-56 764.26,-40.44 917.8,-25.59 1005.3,-17.45"/>
<polygon fill="midnightblue" stroke="midnightblue" points="1005.75,-20.92 1015.38,-16.51 1005.1,-13.95 1005.75,-20.92"/>
</g>
<!-- Node37&#45;&gt;Node19 -->
<g id="edge56" class="edge">
<title>Node37&#45;&gt;Node19</title>
<path fill="none" stroke="midnightblue" d="M489.03,-56.4C462.62,-46.33 427.44,-32.91 402.19,-23.28"/>
<polygon fill="midnightblue" stroke="midnightblue" points="403.29,-19.95 392.7,-19.66 400.8,-26.49 403.29,-19.95"/>
</g>
<!-- Node39 -->
<g id="node39" class="node">
<title>Node39</title>
<g id="a_node39"><a xlink:title=" ">
<polygon fill="white" stroke="#bfbfbf" points="529,-677 529,-696 657,-696 657,-677 529,-677"/>
<text text-anchor="middle" x="593" y="-684" font-family="Helvetica,sans-Serif" font-size="10.00">odp/api/abi/ml_types.h</text>
</a>
</g>
</g>
<!-- Node38&#45;&gt;Node39 -->
<g id="edge62" class="edge">
<title>Node38&#45;&gt;Node39</title>
<path fill="none" stroke="midnightblue" d="M600.71,-738.48C599.44,-730.08 597.46,-716.98 595.82,-706.16"/>
<polygon fill="midnightblue" stroke="midnightblue" points="599.24,-705.37 594.29,-696.01 592.32,-706.42 599.24,-705.37"/>
</g>
<!-- Node40 -->
<g id="node40" class="node">
<title>Node40</title>
<g id="a_node40"><a xlink:href="spec_2ml__types_8h.html" target="_top" xlink:title="ODP Machine Learning (ML) types.">
<polygon fill="white" stroke="black" points="713.5,-677 713.5,-696 848.5,-696 848.5,-677 713.5,-677"/>
<text text-anchor="middle" x="781" y="-684" font-family="Helvetica,sans-Serif" font-size="10.00">odp/api/spec/ml_types.h</text>
</a>
</g>
</g>
<!-- Node38&#45;&gt;Node40 -->
<g id="edge63" class="edge">
<title>Node38&#45;&gt;Node40</title>
<path fill="none" stroke="midnightblue" d="M627.65,-738.48C658.62,-728.18 710.87,-710.81 745.65,-699.25"/>
<polygon fill="midnightblue" stroke="midnightblue" points="747.02,-702.48 755.4,-696.01 744.81,-695.84 747.02,-702.48"/>
</g>
<!-- Node40&#45;&gt;Node4 -->
<g id="edge64" class="edge">
<title>Node40&#45;&gt;Node4</title>
<path fill="none" stroke="midnightblue" d="M841.89,-676.93C875.12,-669.91 915.56,-657.33 946,-635 1017.2,-582.77 1171,-395.8 1171,-307.5 1171,-307.5 1171,-307.5 1171,-132 1171,-85.25 1126.58,-45.86 1098.49,-25.62"/>
<polygon fill="midnightblue" stroke="midnightblue" points="1100.23,-22.57 1090.02,-19.74 1096.23,-28.32 1100.23,-22.57"/>
</g>
<!-- Node40&#45;&gt;Node12 -->
<g id="edge67" class="edge">
<title>Node40&#45;&gt;Node12</title>
<path fill="none" stroke="midnightblue" d="M780.22,-676.78C778.58,-653.98 776.77,-591.38 801,-548 832.08,-492.36 874.97,-508.58 911,-456 954.77,-392.12 939.48,-363.39 967,-291 970.43,-281.97 974.57,-272.07 978.11,-263.86"/>
<polygon fill="midnightblue" stroke="midnightblue" points="981.38,-265.12 982.17,-254.55 974.96,-262.32 981.38,-265.12"/>
</g>
<!-- Node40&#45;&gt;Node19 -->
<g id="edge68" class="edge">
<title>Node40&#45;&gt;Node19</title>
<path fill="none" stroke="midnightblue" d="M764.98,-676.95C732.73,-659.55 657.9,-618.37 598,-579 578.61,-566.26 576.18,-559.45 556,-548 396.77,-457.66 306.28,-517.62 176,-389 126.7,-340.33 114,-315.27 114,-246 114,-246 114,-246 114,-132 114,-48.02 228,-22.24 303.85,-14.38"/>
<polygon fill="midnightblue" stroke="midnightblue" points="304.2,-17.86 313.82,-13.43 303.53,-10.9 304.2,-17.86"/>
</g>
<!-- Node40&#45;&gt;Node20 -->
<g id="edge66" class="edge">
<title>Node40&#45;&gt;Node20</title>
<path fill="none" stroke="midnightblue" d="M741.31,-676.98C691.84,-666.35 607.28,-648.18 553.59,-636.65"/>
<polygon fill="midnightblue" stroke="midnightblue" points="554.13,-633.19 543.61,-634.51 552.66,-640.03 554.13,-633.19"/>
</g>
<!-- Node40&#45;&gt;Node35 -->
<g id="edge65" class="edge">
<title>Node40&#45;&gt;Node35</title>
<path fill="none" stroke="midnightblue" d="M794.47,-676.98C809.68,-667.34 834.69,-651.52 852.8,-640.05"/>
<polygon fill="midnightblue" stroke="midnightblue" points="854.98,-642.81 861.56,-634.51 851.24,-636.9 854.98,-642.81"/>
</g>
</g>
</svg>
