<?xml version="1.0" encoding="UTF-8" standalone="no"?>
<!DOCTYPE svg PUBLIC "-//W3C//DTD SVG 1.1//EN"
 "http://www.w3.org/Graphics/SVG/1.1/DTD/svg11.dtd">
<!-- Generated by graphviz version 2.43.0 (0)
 -->
<!-- Title: debug_inlines.h Pages: 1 -->
<svg width="1316pt" height="95pt"
 viewBox="0.00 0.00 1315.50 95.00" xmlns="http://www.w3.org/2000/svg" xmlns:xlink="http://www.w3.org/1999/xlink">
<g id="graph0" class="graph" transform="scale(1 1) rotate(0) translate(4 91)">
<title>debug_inlines.h</title>
<polygon fill="white" stroke="transparent" points="-4,4 -4,-91 1311.5,-91 1311.5,4 -4,4"/>
<!-- Node1 -->
<g id="node1" class="node">
<title>Node1</title>
<g id="a_node1"><a xlink:title="ODP Debug inlines.">
<polygon fill="#bfbfbf" stroke="black" points="542.5,-67.5 542.5,-86.5 635.5,-86.5 635.5,-67.5 542.5,-67.5"/>
<text text-anchor="middle" x="589" y="-74.5" font-family="Helvetica,sans-Serif" font-size="10.00">debug_inlines.h</text>
</a>
</g>
</g>
<!-- Node2 -->
<g id="node2" class="node">
<title>Node2</title>
<g id="a_node2"><a xlink:href="buffer__inlines_8h_source.html" target="_top" xlink:title=" ">
<polygon fill="white" stroke="black" points="0,-6 0,-25 92,-25 92,-6 0,-6"/>
<text text-anchor="middle" x="46" y="-13" font-family="Helvetica,sans-Serif" font-size="10.00">buffer_inlines.h</text>
</a>
</g>
</g>
<!-- Node1&#45;&gt;Node2 -->
<g id="edge1" class="edge">
<title>Node1&#45;&gt;Node2</title>
<path fill="none" stroke="midnightblue" d="M532.08,-73.81C440.61,-69.62 255.49,-58.29 101,-31 92.35,-29.47 83.06,-27.25 74.63,-25.01"/>
<polygon fill="midnightblue" stroke="midnightblue" points="532.08,-77.32 542.23,-74.27 532.4,-70.32 532.08,-77.32"/>
</g>
<!-- Node3 -->
<g id="node3" class="node">
<title>Node3</title>
<g id="a_node3"><a xlink:href="crypto__inlines_8h_source.html" target="_top" xlink:title=" ">
<polygon fill="white" stroke="black" points="110,-6 110,-25 204,-25 204,-6 110,-6"/>
<text text-anchor="middle" x="157" y="-13" font-family="Helvetica,sans-Serif" font-size="10.00">crypto_inlines.h</text>
</a>
</g>
</g>
<!-- Node1&#45;&gt;Node3 -->
<g id="edge2" class="edge">
<title>Node1&#45;&gt;Node3</title>
<path fill="none" stroke="midnightblue" d="M532.36,-71.61C458.45,-65.33 325.3,-52.16 213,-31 204.51,-29.4 195.41,-27.24 187.06,-25.07"/>
<polygon fill="midnightblue" stroke="midnightblue" points="532.13,-75.1 542.39,-72.45 532.71,-68.12 532.13,-75.1"/>
</g>
<!-- Node4 -->
<g id="node4" class="node">
<title>Node4</title>
<g id="a_node4"><a xlink:href="dma__inlines_8h_source.html" target="_top" xlink:title=" ">
<polygon fill="white" stroke="black" points="222.5,-6 222.5,-25 307.5,-25 307.5,-6 222.5,-6"/>
<text text-anchor="middle" x="265" y="-13" font-family="Helvetica,sans-Serif" font-size="10.00">dma_inlines.h</text>
</a>
</g>
</g>
<!-- Node1&#45;&gt;Node4 -->
<g id="edge3" class="edge">
<title>Node1&#45;&gt;Node4</title>
<path fill="none" stroke="midnightblue" d="M532.34,-68.58C476.87,-60.86 390.14,-47.59 316,-31 308.45,-29.31 300.37,-27.17 292.91,-25.05"/>
<polygon fill="midnightblue" stroke="midnightblue" points="531.93,-72.05 542.32,-69.95 532.89,-65.12 531.93,-72.05"/>
</g>
<!-- Node5 -->
<g id="node5" class="node">
<title>Node5</title>
<g id="a_node5"><a xlink:href="event__inlines_8h_source.html" target="_top" xlink:title=" ">
<polygon fill="white" stroke="black" points="325.5,-6 325.5,-25 416.5,-25 416.5,-6 325.5,-6"/>
<text text-anchor="middle" x="371" y="-13" font-family="Helvetica,sans-Serif" font-size="10.00">event_inlines.h</text>
</a>
</g>
</g>
<!-- Node1&#45;&gt;Node5 -->
<g id="edge4" class="edge">
<title>Node1&#45;&gt;Node5</title>
<path fill="none" stroke="midnightblue" d="M548.05,-64.82C505.7,-53.26 440.52,-35.47 402.18,-25.01"/>
<polygon fill="midnightblue" stroke="midnightblue" points="547.2,-68.22 557.77,-67.48 549.04,-61.47 547.2,-68.22"/>
</g>
<!-- Node6 -->
<g id="node6" class="node">
<title>Node6</title>
<g id="a_node6"><a xlink:href="ipsec__inlines_8h_source.html" target="_top" xlink:title=" ">
<polygon fill="white" stroke="black" points="434.5,-6 434.5,-25 523.5,-25 523.5,-6 434.5,-6"/>
<text text-anchor="middle" x="479" y="-13" font-family="Helvetica,sans-Serif" font-size="10.00">ipsec_inlines.h</text>
</a>
</g>
</g>
<!-- Node1&#45;&gt;Node6 -->
<g id="edge5" class="edge">
<title>Node1&#45;&gt;Node6</title>
<path fill="none" stroke="midnightblue" d="M564.43,-62.71C543.13,-51.19 512.93,-34.86 494.73,-25.01"/>
<polygon fill="midnightblue" stroke="midnightblue" points="562.78,-65.8 573.24,-67.48 566.11,-59.64 562.78,-65.8"/>
</g>
<!-- Node7 -->
<g id="node7" class="node">
<title>Node7</title>
<g id="a_node7"><a xlink:href="packet__inlines_8h.html" target="_top" xlink:title="Packet inline functions.">
<polygon fill="white" stroke="black" points="541.5,-6 541.5,-25 636.5,-25 636.5,-6 541.5,-6"/>
<text text-anchor="middle" x="589" y="-13" font-family="Helvetica,sans-Serif" font-size="10.00">packet_inlines.h</text>
</a>
</g>
</g>
<!-- Node1&#45;&gt;Node7 -->
<g id="edge6" class="edge">
<title>Node1&#45;&gt;Node7</title>
<path fill="none" stroke="midnightblue" d="M589,-57.32C589,-46.5 589,-33.4 589,-25.01"/>
<polygon fill="midnightblue" stroke="midnightblue" points="585.5,-57.48 589,-67.48 592.5,-57.48 585.5,-57.48"/>
</g>
<!-- Node8 -->
<g id="node8" class="node">
<title>Node8</title>
<g id="a_node8"><a xlink:href="packet__vector__inlines_8h.html" target="_top" xlink:title="Packet vector inline functions.">
<polygon fill="white" stroke="black" points="654.5,-6 654.5,-25 785.5,-25 785.5,-6 654.5,-6"/>
<text text-anchor="middle" x="720" y="-13" font-family="Helvetica,sans-Serif" font-size="10.00">packet_vector_inlines.h</text>
</a>
</g>
</g>
<!-- Node1&#45;&gt;Node8 -->
<g id="edge7" class="edge">
<title>Node1&#45;&gt;Node8</title>
<path fill="none" stroke="midnightblue" d="M616.9,-63.33C642.33,-51.78 679.2,-35.03 701.27,-25.01"/>
<polygon fill="midnightblue" stroke="midnightblue" points="615.43,-60.15 607.77,-67.48 618.32,-66.53 615.43,-60.15"/>
</g>
<!-- Node9 -->
<g id="node9" class="node">
<title>Node9</title>
<g id="a_node9"><a xlink:href="rwlock__recursive__inlines_8h_source.html" target="_top" xlink:title=" ">
<polygon fill="white" stroke="black" points="804,-6 804,-25 950,-25 950,-6 804,-6"/>
<text text-anchor="middle" x="877" y="-13" font-family="Helvetica,sans-Serif" font-size="10.00">rwlock_recursive_inlines.h</text>
</a>
</g>
</g>
<!-- Node1&#45;&gt;Node9 -->
<g id="edge8" class="edge">
<title>Node1&#45;&gt;Node9</title>
<path fill="none" stroke="midnightblue" d="M640.3,-65.4C696.13,-53.87 784.31,-35.65 835.81,-25.01"/>
<polygon fill="midnightblue" stroke="midnightblue" points="639.35,-62.02 630.26,-67.48 640.76,-68.88 639.35,-62.02"/>
</g>
<!-- Node10 -->
<g id="node10" class="node">
<title>Node10</title>
<g id="a_node10"><a xlink:href="schedule__inlines_8h_source.html" target="_top" xlink:title=" ">
<polygon fill="white" stroke="black" points="968.5,-6 968.5,-25 1075.5,-25 1075.5,-6 968.5,-6"/>
<text text-anchor="middle" x="1022" y="-13" font-family="Helvetica,sans-Serif" font-size="10.00">schedule_inlines.h</text>
</a>
</g>
</g>
<!-- Node1&#45;&gt;Node10 -->
<g id="edge9" class="edge">
<title>Node1&#45;&gt;Node10</title>
<path fill="none" stroke="midnightblue" d="M646,-70.95C718.9,-64.05 848.89,-50.31 959,-31 968.4,-29.35 978.5,-27.2 987.8,-25.06"/>
<polygon fill="midnightblue" stroke="midnightblue" points="645.3,-67.5 635.67,-71.91 645.95,-74.47 645.3,-67.5"/>
</g>
<!-- Node11 -->
<g id="node11" class="node">
<title>Node11</title>
<g id="a_node11"><a xlink:href="spinlock__recursive__inlines_8h_source.html" target="_top" xlink:title=" ">
<polygon fill="white" stroke="black" points="1093.5,-0.5 1093.5,-30.5 1200.5,-30.5 1200.5,-0.5 1093.5,-0.5"/>
<text text-anchor="start" x="1101.5" y="-18.5" font-family="Helvetica,sans-Serif" font-size="10.00">spinlock_recursive</text>
<text text-anchor="middle" x="1147" y="-7.5" font-family="Helvetica,sans-Serif" font-size="10.00">_inlines.h</text>
</a>
</g>
</g>
<!-- Node1&#45;&gt;Node11 -->
<g id="edge10" class="edge">
<title>Node1&#45;&gt;Node11</title>
<path fill="none" stroke="midnightblue" d="M645.76,-73.43C738.25,-68.65 927.03,-56.51 1085,-31 1087.73,-30.56 1090.51,-30.07 1093.32,-29.54"/>
<polygon fill="midnightblue" stroke="midnightblue" points="645.58,-69.93 635.77,-73.93 645.94,-76.92 645.58,-69.93"/>
</g>
<!-- Node12 -->
<g id="node12" class="node">
<title>Node12</title>
<g id="a_node12"><a xlink:href="timer__inlines_8h_source.html" target="_top" xlink:title=" ">
<polygon fill="white" stroke="black" points="1218.5,-6 1218.5,-25 1307.5,-25 1307.5,-6 1218.5,-6"/>
<text text-anchor="middle" x="1263" y="-13" font-family="Helvetica,sans-Serif" font-size="10.00">timer_inlines.h</text>
</a>
</g>
</g>
<!-- Node1&#45;&gt;Node12 -->
<g id="edge11" class="edge">
<title>Node1&#45;&gt;Node12</title>
<path fill="none" stroke="midnightblue" d="M645.92,-75.57C755.77,-73.92 1004.35,-66.24 1210,-31 1218.46,-29.55 1227.53,-27.33 1235.72,-25.05"/>
<polygon fill="midnightblue" stroke="midnightblue" points="645.68,-72.07 635.72,-75.71 645.77,-79.07 645.68,-72.07"/>
</g>
</g>
</svg>
