<?xml version="1.0" encoding="UTF-8" standalone="no"?>
<!DOCTYPE svg PUBLIC "-//W3C//DTD SVG 1.1//EN"
 "http://www.w3.org/Graphics/SVG/1.1/DTD/svg11.dtd">
<!-- Generated by graphviz version 2.43.0 (0)
 -->
<!-- Title: debug_inlines.h Pages: 1 -->
<svg width="1461pt" height="95pt"
 viewBox="0.00 0.00 1460.50 95.00" xmlns="http://www.w3.org/2000/svg" xmlns:xlink="http://www.w3.org/1999/xlink">
<g id="graph0" class="graph" transform="scale(1 1) rotate(0) translate(4 91)">
<title>debug_inlines.h</title>
<polygon fill="white" stroke="transparent" points="-4,4 -4,-91 1456.5,-91 1456.5,4 -4,4"/>
<!-- Node1 -->
<g id="node1" class="node">
<title>Node1</title>
<g id="a_node1"><a xlink:title="ODP Debug inlines.">
<polygon fill="#bfbfbf" stroke="black" points="632.5,-67.5 632.5,-86.5 725.5,-86.5 725.5,-67.5 632.5,-67.5"/>
<text text-anchor="middle" x="679" y="-74.5" font-family="Helvetica,sans-Serif" font-size="10.00">debug_inlines.h</text>
</a>
</g>
</g>
<!-- Node2 -->
<g id="node2" class="node">
<title>Node2</title>
<g id="a_node2"><a xlink:href="buffer__inlines_8h_source.html" target="_top" xlink:title=" ">
<polygon fill="white" stroke="black" points="0,-6 0,-25 92,-25 92,-6 0,-6"/>
<text text-anchor="middle" x="46" y="-13" font-family="Helvetica,sans-Serif" font-size="10.00">buffer_inlines.h</text>
</a>
</g>
</g>
<!-- Node1&#45;&gt;Node2 -->
<g id="edge1" class="edge">
<title>Node1&#45;&gt;Node2</title>
<path fill="none" stroke="midnightblue" d="M621.91,-74.95C517.71,-72.3 290.01,-63 101,-31 92.24,-29.52 82.84,-27.28 74.33,-25.01"/>
<polygon fill="midnightblue" stroke="midnightblue" points="622.12,-78.46 632.2,-75.21 622.29,-71.46 622.12,-78.46"/>
</g>
<!-- Node3 -->
<g id="node3" class="node">
<title>Node3</title>
<g id="a_node3"><a xlink:href="crypto__inlines_8h_source.html" target="_top" xlink:title=" ">
<polygon fill="white" stroke="black" points="110,-6 110,-25 204,-25 204,-6 110,-6"/>
<text text-anchor="middle" x="157" y="-13" font-family="Helvetica,sans-Serif" font-size="10.00">crypto_inlines.h</text>
</a>
</g>
</g>
<!-- Node1&#45;&gt;Node3 -->
<g id="edge2" class="edge">
<title>Node1&#45;&gt;Node3</title>
<path fill="none" stroke="midnightblue" d="M622.32,-73.4C534.21,-68.72 359.28,-56.84 213,-31 204.3,-29.46 194.96,-27.27 186.45,-25.05"/>
<polygon fill="midnightblue" stroke="midnightblue" points="622.21,-76.9 632.37,-73.93 622.57,-69.91 622.21,-76.9"/>
</g>
<!-- Node4 -->
<g id="node4" class="node">
<title>Node4</title>
<g id="a_node4"><a xlink:href="dma__inlines_8h_source.html" target="_top" xlink:title=" ">
<polygon fill="white" stroke="black" points="222.5,-6 222.5,-25 307.5,-25 307.5,-6 222.5,-6"/>
<text text-anchor="middle" x="265" y="-13" font-family="Helvetica,sans-Serif" font-size="10.00">dma_inlines.h</text>
</a>
</g>
</g>
<!-- Node1&#45;&gt;Node4 -->
<g id="edge3" class="edge">
<title>Node1&#45;&gt;Node4</title>
<path fill="none" stroke="midnightblue" d="M622.02,-71.66C550.17,-65.57 423.07,-52.72 316,-31 308.15,-29.41 299.75,-27.22 292.07,-25.03"/>
<polygon fill="midnightblue" stroke="midnightblue" points="621.96,-75.17 632.22,-72.51 622.54,-68.19 621.96,-75.17"/>
</g>
<!-- Node5 -->
<g id="node5" class="node">
<title>Node5</title>
<g id="a_node5"><a xlink:href="event__inlines_8h_source.html" target="_top" xlink:title=" ">
<polygon fill="white" stroke="black" points="325.5,-6 325.5,-25 416.5,-25 416.5,-6 325.5,-6"/>
<text text-anchor="middle" x="371" y="-13" font-family="Helvetica,sans-Serif" font-size="10.00">event_inlines.h</text>
</a>
</g>
</g>
<!-- Node1&#45;&gt;Node5 -->
<g id="edge4" class="edge">
<title>Node1&#45;&gt;Node5</title>
<path fill="none" stroke="midnightblue" d="M622.45,-67.43C570.79,-59.25 492.42,-45.99 425,-31 417.14,-29.25 408.69,-27.11 400.88,-25.02"/>
<polygon fill="midnightblue" stroke="midnightblue" points="621.99,-70.9 632.41,-68.99 623.08,-63.98 621.99,-70.9"/>
</g>
<!-- Node6 -->
<g id="node6" class="node">
<title>Node6</title>
<g id="a_node6"><a xlink:href="event__vector__inlines_8h.html" target="_top" xlink:title="Event vector inline functions.">
<polygon fill="white" stroke="black" points="434.5,-6 434.5,-25 561.5,-25 561.5,-6 434.5,-6"/>
<text text-anchor="middle" x="498" y="-13" font-family="Helvetica,sans-Serif" font-size="10.00">event_vector_inlines.h</text>
</a>
</g>
</g>
<!-- Node1&#45;&gt;Node6 -->
<g id="edge5" class="edge">
<title>Node1&#45;&gt;Node6</title>
<path fill="none" stroke="midnightblue" d="M643.2,-64.23C608.02,-52.67 555.18,-35.3 523.88,-25.01"/>
<polygon fill="midnightblue" stroke="midnightblue" points="642.47,-67.68 653.07,-67.48 644.66,-61.03 642.47,-67.68"/>
</g>
<!-- Node7 -->
<g id="node7" class="node">
<title>Node7</title>
<g id="a_node7"><a xlink:href="ipsec__inlines_8h_source.html" target="_top" xlink:title=" ">
<polygon fill="white" stroke="black" points="579.5,-6 579.5,-25 668.5,-25 668.5,-6 579.5,-6"/>
<text text-anchor="middle" x="624" y="-13" font-family="Helvetica,sans-Serif" font-size="10.00">ipsec_inlines.h</text>
</a>
</g>
</g>
<!-- Node1&#45;&gt;Node7 -->
<g id="edge6" class="edge">
<title>Node1&#45;&gt;Node7</title>
<path fill="none" stroke="midnightblue" d="M664.21,-60C653.8,-48.74 640.27,-34.1 631.87,-25.01"/>
<polygon fill="midnightblue" stroke="midnightblue" points="661.76,-62.51 671.12,-67.48 666.9,-57.76 661.76,-62.51"/>
</g>
<!-- Node8 -->
<g id="node8" class="node">
<title>Node8</title>
<g id="a_node8"><a xlink:href="packet__inlines_8h.html" target="_top" xlink:title="Packet inline functions.">
<polygon fill="white" stroke="black" points="686.5,-6 686.5,-25 781.5,-25 781.5,-6 686.5,-6"/>
<text text-anchor="middle" x="734" y="-13" font-family="Helvetica,sans-Serif" font-size="10.00">packet_inlines.h</text>
</a>
</g>
</g>
<!-- Node1&#45;&gt;Node8 -->
<g id="edge7" class="edge">
<title>Node1&#45;&gt;Node8</title>
<path fill="none" stroke="midnightblue" d="M693.79,-60C704.2,-48.74 717.73,-34.1 726.13,-25.01"/>
<polygon fill="midnightblue" stroke="midnightblue" points="691.1,-57.76 686.88,-67.48 696.24,-62.51 691.1,-57.76"/>
</g>
<!-- Node9 -->
<g id="node9" class="node">
<title>Node9</title>
<g id="a_node9"><a xlink:href="packet__vector__inlines_8h.html" target="_top" xlink:title="Packet vector inline functions.">
<polygon fill="white" stroke="black" points="799.5,-6 799.5,-25 930.5,-25 930.5,-6 799.5,-6"/>
<text text-anchor="middle" x="865" y="-13" font-family="Helvetica,sans-Serif" font-size="10.00">packet_vector_inlines.h</text>
</a>
</g>
</g>
<!-- Node1&#45;&gt;Node9 -->
<g id="edge8" class="edge">
<title>Node1&#45;&gt;Node9</title>
<path fill="none" stroke="midnightblue" d="M715.32,-64.38C751.48,-52.82 806.1,-35.34 838.4,-25.01"/>
<polygon fill="midnightblue" stroke="midnightblue" points="714.11,-61.09 705.65,-67.48 716.24,-67.76 714.11,-61.09"/>
</g>
<!-- Node10 -->
<g id="node10" class="node">
<title>Node10</title>
<g id="a_node10"><a xlink:href="rwlock__recursive__inlines_8h_source.html" target="_top" xlink:title=" ">
<polygon fill="white" stroke="black" points="949,-6 949,-25 1095,-25 1095,-6 949,-6"/>
<text text-anchor="middle" x="1022" y="-13" font-family="Helvetica,sans-Serif" font-size="10.00">rwlock_recursive_inlines.h</text>
</a>
</g>
</g>
<!-- Node1&#45;&gt;Node10 -->
<g id="edge9" class="edge">
<title>Node1&#45;&gt;Node10</title>
<path fill="none" stroke="midnightblue" d="M735.55,-66.32C788.42,-57.26 869.57,-43.3 940,-31 950.97,-29.09 962.75,-27.01 973.88,-25.05"/>
<polygon fill="midnightblue" stroke="midnightblue" points="734.95,-62.87 725.69,-68.01 736.13,-69.77 734.95,-62.87"/>
</g>
<!-- Node11 -->
<g id="node11" class="node">
<title>Node11</title>
<g id="a_node11"><a xlink:href="schedule__inlines_8h_source.html" target="_top" xlink:title=" ">
<polygon fill="white" stroke="black" points="1113.5,-6 1113.5,-25 1220.5,-25 1220.5,-6 1113.5,-6"/>
<text text-anchor="middle" x="1167" y="-13" font-family="Helvetica,sans-Serif" font-size="10.00">schedule_inlines.h</text>
</a>
</g>
</g>
<!-- Node1&#45;&gt;Node11 -->
<g id="edge10" class="edge">
<title>Node1&#45;&gt;Node11</title>
<path fill="none" stroke="midnightblue" d="M735.87,-72.17C817.68,-66.17 973.12,-52.91 1104,-31 1113.63,-29.39 1123.99,-27.2 1133.47,-25.01"/>
<polygon fill="midnightblue" stroke="midnightblue" points="735.51,-68.69 725.79,-72.9 736.01,-75.67 735.51,-68.69"/>
</g>
<!-- Node12 -->
<g id="node12" class="node">
<title>Node12</title>
<g id="a_node12"><a xlink:href="spinlock__recursive__inlines_8h_source.html" target="_top" xlink:title=" ">
<polygon fill="white" stroke="black" points="1238.5,-0.5 1238.5,-30.5 1345.5,-30.5 1345.5,-0.5 1238.5,-0.5"/>
<text text-anchor="start" x="1246.5" y="-18.5" font-family="Helvetica,sans-Serif" font-size="10.00">spinlock_recursive</text>
<text text-anchor="middle" x="1292" y="-7.5" font-family="Helvetica,sans-Serif" font-size="10.00">_inlines.h</text>
</a>
</g>
</g>
<!-- Node1&#45;&gt;Node12 -->
<g id="edge11" class="edge">
<title>Node1&#45;&gt;Node12</title>
<path fill="none" stroke="midnightblue" d="M735.93,-74.13C836.28,-70.22 1050.97,-59.09 1230,-31 1232.73,-30.57 1235.52,-30.09 1238.33,-29.57"/>
<polygon fill="midnightblue" stroke="midnightblue" points="735.58,-70.64 725.72,-74.52 735.84,-77.64 735.58,-70.64"/>
</g>
<!-- Node13 -->
<g id="node13" class="node">
<title>Node13</title>
<g id="a_node13"><a xlink:href="timer__inlines_8h_source.html" target="_top" xlink:title=" ">
<polygon fill="white" stroke="black" points="1363.5,-6 1363.5,-25 1452.5,-25 1452.5,-6 1363.5,-6"/>
<text text-anchor="middle" x="1408" y="-13" font-family="Helvetica,sans-Serif" font-size="10.00">timer_inlines.h</text>
</a>
</g>
</g>
<!-- Node1&#45;&gt;Node13 -->
<g id="edge12" class="edge">
<title>Node1&#45;&gt;Node13</title>
<path fill="none" stroke="midnightblue" d="M735.82,-76.05C852.63,-75.31 1127.85,-69.24 1355,-31 1363.56,-29.56 1372.73,-27.31 1381,-25.01"/>
<polygon fill="midnightblue" stroke="midnightblue" points="735.66,-72.55 725.68,-76.1 735.7,-79.55 735.66,-72.55"/>
</g>
</g>
</svg>
