<?xml version="1.0" encoding="UTF-8" standalone="no"?>
<!DOCTYPE svg PUBLIC "-//W3C//DTD SVG 1.1//EN"
 "http://www.w3.org/Graphics/SVG/1.1/DTD/svg11.dtd">
<!-- Generated by graphviz version 2.43.0 (0)
 -->
<!-- Title: debug_inlines.h Pages: 1 -->
<svg width="1067pt" height="489pt"
 viewBox="0.00 0.00 1066.85 489.00" xmlns="http://www.w3.org/2000/svg" xmlns:xlink="http://www.w3.org/1999/xlink">
<g id="graph0" class="graph" transform="scale(1 1) rotate(0) translate(4 485)">
<title>debug_inlines.h</title>
<!-- Node1 -->
<g id="Node000001" class="node">
<title>Node1</title>
<g id="a_Node000001"><a xlink:title="ODP Debug inlines.">
<polygon fill="#999999" stroke="#666666" points="480.85,-481 387.85,-481 387.85,-462 480.85,-462 480.85,-481"/>
<text text-anchor="middle" x="434.35" y="-469" font-family="Helvetica,sans-Serif" font-size="10.00">debug_inlines.h</text>
</a>
</g>
</g>
<!-- Node2 -->
<g id="Node000002" class="node">
<title>Node2</title>
<g id="a_Node000002"><a xlink:title=" ">
<polygon fill="#e0e0e0" stroke="#999999" points="387.35,-420.5 239.35,-420.5 239.35,-401.5 387.35,-401.5 387.35,-420.5"/>
<text text-anchor="middle" x="313.35" y="-408.5" font-family="Helvetica,sans-Serif" font-size="10.00">odp/autoheader_external.h</text>
</a>
</g>
</g>
<!-- Node1&#45;&gt;Node2 -->
<g id="edge1_Node000001_Node000002" class="edge">
<title>Node1&#45;&gt;Node2</title>
<g id="a_edge1_Node000001_Node000002"><a xlink:title=" ">
<path fill="none" stroke="#63b8ff" d="M416.75,-461.99C396.59,-452.25 363.33,-436.16 339.99,-424.88"/>
<polygon fill="#63b8ff" stroke="#63b8ff" points="341.49,-421.72 330.96,-420.52 338.44,-428.02 341.49,-421.72"/>
</a>
</g>
</g>
<!-- Node3 -->
<g id="Node000003" class="node">
<title>Node3</title>
<g id="a_Node000003"><a xlink:href="hints_8h.html" target="_top" xlink:title="ODP compiler hints.">
<polygon fill="white" stroke="#666666" points="94.85,-250 5.85,-250 5.85,-231 94.85,-231 94.85,-250"/>
<text text-anchor="middle" x="50.35" y="-238" font-family="Helvetica,sans-Serif" font-size="10.00">odp/api/hints.h</text>
</a>
</g>
</g>
<!-- Node1&#45;&gt;Node3 -->
<g id="edge2_Node000001_Node000003" class="edge">
<title>Node1&#45;&gt;Node3</title>
<g id="a_edge2_Node000001_Node000003"><a xlink:title=" ">
<path fill="none" stroke="#63b8ff" d="M432.06,-461.99C427.59,-446.83 416.35,-415 396.35,-396 310.12,-314.12 173.17,-270.84 100.11,-252.48"/>
<polygon fill="#63b8ff" stroke="#63b8ff" points="100.78,-249.04 90.24,-250.05 99.11,-255.84 100.78,-249.04"/>
</a>
</g>
</g>
<!-- Node7 -->
<g id="Node000007" class="node">
<title>Node7</title>
<g id="a_Node000007"><a xlink:href="init_8h.html" target="_top" xlink:title="ODP initialization.">
<polygon fill="white" stroke="#666666" points="566.35,-360 486.35,-360 486.35,-341 566.35,-341 566.35,-360"/>
<text text-anchor="middle" x="526.35" y="-348" font-family="Helvetica,sans-Serif" font-size="10.00">odp/api/init.h</text>
</a>
</g>
</g>
<!-- Node1&#45;&gt;Node7 -->
<g id="edge6_Node000001_Node000007" class="edge">
<title>Node1&#45;&gt;Node7</title>
<g id="a_edge6_Node000001_Node000007"><a xlink:title=" ">
<path fill="none" stroke="#63b8ff" d="M437.68,-461.58C443.45,-446.9 456.33,-417.16 473.35,-396 482.41,-384.74 494.66,-374.23 505.1,-366.26"/>
<polygon fill="#63b8ff" stroke="#63b8ff" points="507.35,-368.94 513.33,-360.2 503.2,-363.31 507.35,-368.94"/>
</a>
</g>
</g>
<!-- Node23 -->
<g id="Node000023" class="node">
<title>Node23</title>
<g id="a_Node000023"><a xlink:href="thread__inline__types_8h_source.html" target="_top" xlink:title=" ">
<polygon fill="white" stroke="#666666" points="590.85,-426 481.85,-426 481.85,-396 590.85,-396 590.85,-426"/>
<text text-anchor="start" x="489.85" y="-414" font-family="Helvetica,sans-Serif" font-size="10.00">odp/api/plat/thread</text>
<text text-anchor="middle" x="536.35" y="-403" font-family="Helvetica,sans-Serif" font-size="10.00">_inline_types.h</text>
</a>
</g>
</g>
<!-- Node1&#45;&gt;Node23 -->
<g id="edge31_Node000001_Node000023" class="edge">
<title>Node1&#45;&gt;Node23</title>
<g id="a_edge31_Node000001_Node000023"><a xlink:title=" ">
<path fill="none" stroke="#63b8ff" d="M449.4,-461.87C463.37,-453.86 484.66,-441.65 502.67,-431.31"/>
<polygon fill="#63b8ff" stroke="#63b8ff" points="504.8,-434.13 511.74,-426.11 501.32,-428.05 504.8,-434.13"/>
</a>
</g>
</g>
<!-- Node4 -->
<g id="Node000004" class="node">
<title>Node4</title>
<g id="a_Node000004"><a xlink:href="spec_2hints_8h.html" target="_top" xlink:title="ODP compiler hints.">
<polygon fill="white" stroke="#666666" points="128.35,-74 14.35,-74 14.35,-55 128.35,-55 128.35,-74"/>
<text text-anchor="middle" x="71.35" y="-62" font-family="Helvetica,sans-Serif" font-size="10.00">odp/api/spec/hints.h</text>
</a>
</g>
</g>
<!-- Node3&#45;&gt;Node4 -->
<g id="edge3_Node000003_Node000004" class="edge">
<title>Node3&#45;&gt;Node4</title>
<g id="a_edge3_Node000003_Node000004"><a xlink:title=" ">
<path fill="none" stroke="#63b8ff" d="M51.42,-230.63C54.69,-203.52 64.61,-121.32 69.1,-84.13"/>
<polygon fill="#63b8ff" stroke="#63b8ff" points="72.58,-84.49 70.3,-74.14 65.63,-83.65 72.58,-84.49"/>
</a>
</g>
</g>
<!-- Node5 -->
<g id="Node000005" class="node">
<title>Node5</title>
<g id="a_Node000005"><a xlink:title=" ">
<polygon fill="#e0e0e0" stroke="#999999" points="512.85,-19 391.85,-19 391.85,0 512.85,0 512.85,-19"/>
<text text-anchor="middle" x="452.35" y="-7" font-family="Helvetica,sans-Serif" font-size="10.00">odp/visibility_begin.h</text>
</a>
</g>
</g>
<!-- Node4&#45;&gt;Node5 -->
<g id="edge4_Node000004_Node000005" class="edge">
<title>Node4&#45;&gt;Node5</title>
<g id="a_edge4_Node000004_Node000005"><a xlink:title=" ">
<path fill="none" stroke="#63b8ff" d="M128.39,-55.57C196,-46.16 308.67,-30.49 381.73,-20.32"/>
<polygon fill="#63b8ff" stroke="#63b8ff" points="382.34,-23.77 391.76,-18.93 381.38,-16.84 382.34,-23.77"/>
</a>
</g>
</g>
<!-- Node6 -->
<g id="Node000006" class="node">
<title>Node6</title>
<g id="a_Node000006"><a xlink:title=" ">
<polygon fill="#e0e0e0" stroke="#999999" points="212.35,-19 100.35,-19 100.35,0 212.35,0 212.35,-19"/>
<text text-anchor="middle" x="156.35" y="-7" font-family="Helvetica,sans-Serif" font-size="10.00">odp/visibility_end.h</text>
</a>
</g>
</g>
<!-- Node4&#45;&gt;Node6 -->
<g id="edge5_Node000004_Node000006" class="edge">
<title>Node4&#45;&gt;Node6</title>
<g id="a_edge5_Node000004_Node000006"><a xlink:title=" ">
<path fill="none" stroke="#63b8ff" d="M85,-54.98C98.19,-46.77 118.38,-34.18 133.92,-24.49"/>
<polygon fill="#63b8ff" stroke="#63b8ff" points="135.81,-27.43 142.44,-19.17 132.1,-21.49 135.81,-27.43"/>
</a>
</g>
</g>
<!-- Node8 -->
<g id="Node000008" class="node">
<title>Node8</title>
<g id="a_Node000008"><a xlink:title=" ">
<polygon fill="#e0e0e0" stroke="#999999" points="685.35,-305 587.35,-305 587.35,-286 685.35,-286 685.35,-305"/>
<text text-anchor="middle" x="636.35" y="-293" font-family="Helvetica,sans-Serif" font-size="10.00">odp/api/abi/init.h</text>
</a>
</g>
</g>
<!-- Node7&#45;&gt;Node8 -->
<g id="edge7_Node000007_Node000008" class="edge">
<title>Node7&#45;&gt;Node8</title>
<g id="a_edge7_Node000007_Node000008"><a xlink:title=" ">
<path fill="none" stroke="#63b8ff" d="M544.02,-340.98C561.64,-332.5 588.93,-319.35 609.27,-309.54"/>
<polygon fill="#63b8ff" stroke="#63b8ff" points="610.86,-312.66 618.35,-305.17 607.82,-306.36 610.86,-312.66"/>
</a>
</g>
</g>
<!-- Node9 -->
<g id="Node000009" class="node">
<title>Node9</title>
<g id="a_Node000009"><a xlink:href="spec_2init_8h.html" target="_top" xlink:title=" ">
<polygon fill="white" stroke="#666666" points="569.35,-305 463.35,-305 463.35,-286 569.35,-286 569.35,-305"/>
<text text-anchor="middle" x="516.35" y="-293" font-family="Helvetica,sans-Serif" font-size="10.00">odp/api/spec/init.h</text>
</a>
</g>
</g>
<!-- Node7&#45;&gt;Node9 -->
<g id="edge8_Node000007_Node000009" class="edge">
<title>Node7&#45;&gt;Node9</title>
<g id="a_edge8_Node000007_Node000009"><a xlink:title=" ">
<path fill="none" stroke="#63b8ff" d="M524.7,-340.75C523.39,-333.8 521.51,-323.85 519.86,-315.13"/>
<polygon fill="#63b8ff" stroke="#63b8ff" points="523.26,-314.27 517.97,-305.09 516.38,-315.56 523.26,-314.27"/>
</a>
</g>
</g>
<!-- Node9&#45;&gt;Node3 -->
<g id="edge21_Node000009_Node000003" class="edge">
<title>Node9&#45;&gt;Node3</title>
<g id="a_edge21_Node000009_Node000003"><a xlink:title=" ">
<path fill="none" stroke="#63b8ff" d="M463.27,-289.28C385.51,-281.5 236.1,-266.06 109.35,-250 108.05,-249.84 106.73,-249.67 105.41,-249.49"/>
<polygon fill="#63b8ff" stroke="#63b8ff" points="105.48,-245.97 95.1,-248.11 104.55,-252.91 105.48,-245.97"/>
</a>
</g>
</g>
<!-- Node9&#45;&gt;Node5 -->
<g id="edge9_Node000009_Node000005" class="edge">
<title>Node9&#45;&gt;Node5</title>
<g id="a_edge9_Node000009_Node000005"><a xlink:title=" ">
<path fill="none" stroke="#63b8ff" d="M558.85,-285.98C635.35,-269.4 788.35,-230.12 788.35,-181 788.35,-181 788.35,-181 788.35,-118.5 788.35,-89.04 791.69,-74.2 769.35,-55 733.43,-24.15 604.89,-14.65 522.94,-11.75"/>
<polygon fill="#63b8ff" stroke="#63b8ff" points="523.05,-8.25 512.94,-11.42 522.81,-15.25 523.05,-8.25"/>
</a>
</g>
</g>
<!-- Node9&#45;&gt;Node6 -->
<g id="edge30_Node000009_Node000006" class="edge">
<title>Node9&#45;&gt;Node6</title>
<g id="a_edge30_Node000009_Node000006"><a xlink:title=" ">
<path fill="none" stroke="#63b8ff" d="M463.22,-290.66C353.63,-279.48 104.46,-236.51 5.35,-74 -17.07,-37.24 39.85,-21.75 90.1,-15.23"/>
<polygon fill="#63b8ff" stroke="#63b8ff" points="90.52,-18.7 100.03,-14.04 89.69,-11.75 90.52,-18.7"/>
</a>
</g>
</g>
<!-- Node10 -->
<g id="Node000010" class="node">
<title>Node10</title>
<g id="a_Node000010"><a xlink:href="std__types_8h.html" target="_top" xlink:title="Standard C language types and definitions for ODP.">
<polygon fill="white" stroke="#666666" points="526.35,-250 414.35,-250 414.35,-231 526.35,-231 526.35,-250"/>
<text text-anchor="middle" x="470.35" y="-238" font-family="Helvetica,sans-Serif" font-size="10.00">odp/api/std_types.h</text>
</a>
</g>
</g>
<!-- Node9&#45;&gt;Node10 -->
<g id="edge10_Node000009_Node000010" class="edge">
<title>Node9&#45;&gt;Node10</title>
<g id="a_edge10_Node000009_Node000010"><a xlink:title=" ">
<path fill="none" stroke="#63b8ff" d="M508.75,-285.75C502.19,-278.18 492.52,-267.05 484.53,-257.84"/>
<polygon fill="#63b8ff" stroke="#63b8ff" points="487,-255.35 477.8,-250.09 481.71,-259.94 487,-255.35"/>
</a>
</g>
</g>
<!-- Node17 -->
<g id="Node000017" class="node">
<title>Node17</title>
<g id="a_Node000017"><a xlink:href="thread__types_8h.html" target="_top" xlink:title="ODP thread.">
<polygon fill="white" stroke="#666666" points="944.35,-250 816.35,-250 816.35,-231 944.35,-231 944.35,-250"/>
<text text-anchor="middle" x="880.35" y="-238" font-family="Helvetica,sans-Serif" font-size="10.00">odp/api/thread_types.h</text>
</a>
</g>
</g>
<!-- Node9&#45;&gt;Node17 -->
<g id="edge22_Node000009_Node000017" class="edge">
<title>Node9&#45;&gt;Node17</title>
<g id="a_edge22_Node000009_Node000017"><a xlink:title=" ">
<path fill="none" stroke="#63b8ff" d="M569.67,-286.74C633.75,-277.41 741.42,-261.73 811.67,-251.5"/>
<polygon fill="#63b8ff" stroke="#63b8ff" points="812.37,-254.94 821.76,-250.03 811.36,-248.01 812.37,-254.94"/>
</a>
</g>
</g>
<!-- Node20 -->
<g id="Node000020" class="node">
<title>Node20</title>
<g id="a_Node000020"><a xlink:href="cpumask_8h.html" target="_top" xlink:title="ODP CPU masks and enumeration.">
<polygon fill="white" stroke="#666666" points="617.85,-129 508.85,-129 508.85,-110 617.85,-110 617.85,-129"/>
<text text-anchor="middle" x="563.35" y="-117" font-family="Helvetica,sans-Serif" font-size="10.00">odp/api/cpumask.h</text>
</a>
</g>
</g>
<!-- Node9&#45;&gt;Node20 -->
<g id="edge25_Node000009_Node000020" class="edge">
<title>Node9&#45;&gt;Node20</title>
<g id="a_edge25_Node000009_Node000020"><a xlink:title=" ">
<path fill="none" stroke="#63b8ff" d="M520.64,-285.82C524.87,-276.99 531.27,-262.81 535.35,-250 547.63,-211.42 556.26,-164.66 560.45,-139.22"/>
<polygon fill="#63b8ff" stroke="#63b8ff" points="563.94,-139.56 562.07,-129.13 557.03,-138.45 563.94,-139.56"/>
</a>
</g>
</g>
<!-- Node11 -->
<g id="Node000011" class="node">
<title>Node11</title>
<g id="a_Node000011"><a xlink:title=" ">
<polygon fill="#e0e0e0" stroke="#999999" points="535.35,-189.5 405.35,-189.5 405.35,-170.5 535.35,-170.5 535.35,-189.5"/>
<text text-anchor="middle" x="470.35" y="-177.5" font-family="Helvetica,sans-Serif" font-size="10.00">odp/api/abi/std_types.h</text>
</a>
</g>
</g>
<!-- Node10&#45;&gt;Node11 -->
<g id="edge11_Node000010_Node000011" class="edge">
<title>Node10&#45;&gt;Node11</title>
<g id="a_edge11_Node000010_Node000011"><a xlink:title=" ">
<path fill="none" stroke="#63b8ff" d="M470.35,-230.87C470.35,-222.75 470.35,-210.31 470.35,-199.89"/>
<polygon fill="#63b8ff" stroke="#63b8ff" points="473.85,-199.67 470.35,-189.67 466.85,-199.67 473.85,-199.67"/>
</a>
</g>
</g>
<!-- Node12 -->
<g id="Node000012" class="node">
<title>Node12</title>
<g id="a_Node000012"><a xlink:href="spec_2std__types_8h.html" target="_top" xlink:title="Common types and definitions for ODP API files.">
<polygon fill="white" stroke="#666666" points="386.85,-189.5 249.85,-189.5 249.85,-170.5 386.85,-170.5 386.85,-189.5"/>
<text text-anchor="middle" x="318.35" y="-177.5" font-family="Helvetica,sans-Serif" font-size="10.00">odp/api/spec/std_types.h</text>
</a>
</g>
</g>
<!-- Node10&#45;&gt;Node12 -->
<g id="edge12_Node000010_Node000012" class="edge">
<title>Node10&#45;&gt;Node12</title>
<g id="a_edge12_Node000010_Node000012"><a xlink:title=" ">
<path fill="none" stroke="#63b8ff" d="M448.25,-230.99C422.35,-221.03 379.27,-204.45 349.88,-193.13"/>
<polygon fill="#63b8ff" stroke="#63b8ff" points="351.07,-189.84 340.48,-189.52 348.55,-196.38 351.07,-189.84"/>
</a>
</g>
</g>
<!-- Node12&#45;&gt;Node5 -->
<g id="edge13_Node000012_Node000005" class="edge">
<title>Node12&#45;&gt;Node5</title>
<g id="a_edge13_Node000012_Node000005"><a xlink:title=" ">
<path fill="none" stroke="#63b8ff" d="M332.93,-170.46C358.12,-154.85 409.38,-119.13 433.35,-74 440.86,-59.85 445.82,-42.31 448.78,-29.25"/>
<polygon fill="#63b8ff" stroke="#63b8ff" points="452.28,-29.63 450.89,-19.13 445.43,-28.21 452.28,-29.63"/>
</a>
</g>
</g>
<!-- Node12&#45;&gt;Node6 -->
<g id="edge20_Node000012_Node000006" class="edge">
<title>Node12&#45;&gt;Node6</title>
<g id="a_edge20_Node000012_Node000006"><a xlink:title=" ">
<path fill="none" stroke="#63b8ff" d="M288.71,-170.4C265.42,-162.52 233.21,-149 210.35,-129 179.96,-102.41 165.69,-55.26 159.84,-29.17"/>
<polygon fill="#63b8ff" stroke="#63b8ff" points="163.21,-28.19 157.77,-19.1 156.36,-29.6 163.21,-28.19"/>
</a>
</g>
</g>
<!-- Node13 -->
<g id="Node000013" class="node">
<title>Node13</title>
<g id="a_Node000013"><a xlink:title=" ">
<polygon fill="#e0e0e0" stroke="#999999" points="272.85,-129 219.85,-129 219.85,-110 272.85,-110 272.85,-129"/>
<text text-anchor="middle" x="246.35" y="-117" font-family="Helvetica,sans-Serif" font-size="10.00">stdint.h</text>
</a>
</g>
</g>
<!-- Node12&#45;&gt;Node13 -->
<g id="edge14_Node000012_Node000013" class="edge">
<title>Node12&#45;&gt;Node13</title>
<g id="a_edge14_Node000012_Node000013"><a xlink:title=" ">
<path fill="none" stroke="#63b8ff" d="M307.72,-170.37C296.45,-161.21 278.42,-146.56 264.82,-135.51"/>
<polygon fill="#63b8ff" stroke="#63b8ff" points="266.98,-132.76 257.02,-129.17 262.57,-138.19 266.98,-132.76"/>
</a>
</g>
</g>
<!-- Node14 -->
<g id="Node000014" class="node">
<title>Node14</title>
<g id="a_Node000014"><a xlink:href="align_8h.html" target="_top" xlink:title="ODP alignments.">
<polygon fill="white" stroke="#666666" points="379.85,-129 290.85,-129 290.85,-110 379.85,-110 379.85,-129"/>
<text text-anchor="middle" x="335.35" y="-117" font-family="Helvetica,sans-Serif" font-size="10.00">odp/api/align.h</text>
</a>
</g>
</g>
<!-- Node12&#45;&gt;Node14 -->
<g id="edge15_Node000012_Node000014" class="edge">
<title>Node12&#45;&gt;Node14</title>
<g id="a_edge15_Node000012_Node000014"><a xlink:title=" ">
<path fill="none" stroke="#63b8ff" d="M320.86,-170.37C323.24,-162.16 326.91,-149.54 329.96,-139.05"/>
<polygon fill="#63b8ff" stroke="#63b8ff" points="333.4,-139.75 332.83,-129.17 326.68,-137.79 333.4,-139.75"/>
</a>
</g>
</g>
<!-- Node15 -->
<g id="Node000015" class="node">
<title>Node15</title>
<g id="a_Node000015"><a xlink:title=" ">
<polygon fill="#e0e0e0" stroke="#999999" points="291.85,-74 184.85,-74 184.85,-55 291.85,-55 291.85,-74"/>
<text text-anchor="middle" x="238.35" y="-62" font-family="Helvetica,sans-Serif" font-size="10.00">odp/api/abi/align.h</text>
</a>
</g>
</g>
<!-- Node14&#45;&gt;Node15 -->
<g id="edge16_Node000014_Node000015" class="edge">
<title>Node14&#45;&gt;Node15</title>
<g id="a_edge16_Node000014_Node000015"><a xlink:title=" ">
<path fill="none" stroke="#63b8ff" d="M319.76,-109.98C304.58,-101.69 281.25,-88.94 263.45,-79.22"/>
<polygon fill="#63b8ff" stroke="#63b8ff" points="264.67,-75.89 254.22,-74.17 261.31,-82.04 264.67,-75.89"/>
</a>
</g>
</g>
<!-- Node16 -->
<g id="Node000016" class="node">
<title>Node16</title>
<g id="a_Node000016"><a xlink:href="spec_2align_8h.html" target="_top" xlink:title="ODP alignments.">
<polygon fill="white" stroke="#666666" points="424.35,-74 310.35,-74 310.35,-55 424.35,-55 424.35,-74"/>
<text text-anchor="middle" x="367.35" y="-62" font-family="Helvetica,sans-Serif" font-size="10.00">odp/api/spec/align.h</text>
</a>
</g>
</g>
<!-- Node14&#45;&gt;Node16 -->
<g id="edge17_Node000014_Node000016" class="edge">
<title>Node14&#45;&gt;Node16</title>
<g id="a_edge17_Node000014_Node000016"><a xlink:title=" ">
<path fill="none" stroke="#63b8ff" d="M340.63,-109.75C345.06,-102.42 351.51,-91.73 356.97,-82.7"/>
<polygon fill="#63b8ff" stroke="#63b8ff" points="359.99,-84.46 362.16,-74.09 354,-80.84 359.99,-84.46"/>
</a>
</g>
</g>
<!-- Node16&#45;&gt;Node5 -->
<g id="edge18_Node000016_Node000005" class="edge">
<title>Node16&#45;&gt;Node5</title>
<g id="a_edge18_Node000016_Node000005"><a xlink:title=" ">
<path fill="none" stroke="#63b8ff" d="M381,-54.98C394.19,-46.77 414.38,-34.18 429.92,-24.49"/>
<polygon fill="#63b8ff" stroke="#63b8ff" points="431.81,-27.43 438.44,-19.17 428.1,-21.49 431.81,-27.43"/>
</a>
</g>
</g>
<!-- Node16&#45;&gt;Node6 -->
<g id="edge19_Node000016_Node000006" class="edge">
<title>Node16&#45;&gt;Node6</title>
<g id="a_edge19_Node000016_Node000006"><a xlink:title=" ">
<path fill="none" stroke="#63b8ff" d="M333.45,-54.98C297.33,-45.91 240.02,-31.52 200.43,-21.57"/>
<polygon fill="#63b8ff" stroke="#63b8ff" points="201.07,-18.12 190.51,-19.08 199.36,-24.91 201.07,-18.12"/>
</a>
</g>
</g>
<!-- Node18 -->
<g id="Node000018" class="node">
<title>Node18</title>
<g id="a_Node000018"><a xlink:title=" ">
<polygon fill="#e0e0e0" stroke="#999999" points="927.85,-195 822.85,-195 822.85,-165 927.85,-165 927.85,-195"/>
<text text-anchor="start" x="830.85" y="-183" font-family="Helvetica,sans-Serif" font-size="10.00">odp/api/abi/thread</text>
<text text-anchor="middle" x="875.35" y="-172" font-family="Helvetica,sans-Serif" font-size="10.00">_types.h</text>
</a>
</g>
</g>
<!-- Node17&#45;&gt;Node18 -->
<g id="edge23_Node000017_Node000018" class="edge">
<title>Node17&#45;&gt;Node18</title>
<g id="a_edge23_Node000017_Node000018"><a xlink:title=" ">
<path fill="none" stroke="#63b8ff" d="M879.61,-230.87C879.03,-224.11 878.2,-214.35 877.42,-205.26"/>
<polygon fill="#63b8ff" stroke="#63b8ff" points="880.89,-204.78 876.55,-195.11 873.92,-205.38 880.89,-204.78"/>
</a>
</g>
</g>
<!-- Node19 -->
<g id="Node000019" class="node">
<title>Node19</title>
<g id="a_Node000019"><a xlink:href="spec_2thread__types_8h.html" target="_top" xlink:title="ODP thread API types.">
<polygon fill="white" stroke="#666666" points="1058.85,-195 945.85,-195 945.85,-165 1058.85,-165 1058.85,-195"/>
<text text-anchor="start" x="953.85" y="-183" font-family="Helvetica,sans-Serif" font-size="10.00">odp/api/spec/thread</text>
<text text-anchor="middle" x="1002.35" y="-172" font-family="Helvetica,sans-Serif" font-size="10.00">_types.h</text>
</a>
</g>
</g>
<!-- Node17&#45;&gt;Node19 -->
<g id="edge24_Node000017_Node000019" class="edge">
<title>Node17&#45;&gt;Node19</title>
<g id="a_edge24_Node000017_Node000019"><a xlink:title=" ">
<path fill="none" stroke="#63b8ff" d="M898.09,-230.99C915.2,-222.79 941.68,-210.09 963.67,-199.55"/>
<polygon fill="#63b8ff" stroke="#63b8ff" points="965.28,-202.66 972.78,-195.18 962.25,-196.35 965.28,-202.66"/>
</a>
</g>
</g>
<!-- Node21 -->
<g id="Node000021" class="node">
<title>Node21</title>
<g id="a_Node000021"><a xlink:title=" ">
<polygon fill="#e0e0e0" stroke="#999999" points="759.85,-74 632.85,-74 632.85,-55 759.85,-55 759.85,-74"/>
<text text-anchor="middle" x="696.35" y="-62" font-family="Helvetica,sans-Serif" font-size="10.00">odp/api/abi/cpumask.h</text>
</a>
</g>
</g>
<!-- Node20&#45;&gt;Node21 -->
<g id="edge26_Node000020_Node000021" class="edge">
<title>Node20&#45;&gt;Node21</title>
<g id="a_edge26_Node000020_Node000021"><a xlink:title=" ">
<path fill="none" stroke="#63b8ff" d="M584.72,-109.98C606.5,-101.3 640.51,-87.75 665.27,-77.88"/>
<polygon fill="#63b8ff" stroke="#63b8ff" points="666.6,-81.12 674.59,-74.17 664,-74.62 666.6,-81.12"/>
</a>
</g>
</g>
<!-- Node22 -->
<g id="Node000022" class="node">
<title>Node22</title>
<g id="a_Node000022"><a xlink:href="spec_2cpumask_8h.html" target="_top" xlink:title="ODP CPU masks and enumeration.">
<polygon fill="white" stroke="#666666" points="614.35,-74 480.35,-74 480.35,-55 614.35,-55 614.35,-74"/>
<text text-anchor="middle" x="547.35" y="-62" font-family="Helvetica,sans-Serif" font-size="10.00">odp/api/spec/cpumask.h</text>
</a>
</g>
</g>
<!-- Node20&#45;&gt;Node22 -->
<g id="edge27_Node000020_Node000022" class="edge">
<title>Node20&#45;&gt;Node22</title>
<g id="a_edge27_Node000020_Node000022"><a xlink:title=" ">
<path fill="none" stroke="#63b8ff" d="M560.71,-109.75C558.59,-102.72 555.54,-92.62 552.89,-83.84"/>
<polygon fill="#63b8ff" stroke="#63b8ff" points="556.18,-82.65 549.94,-74.09 549.48,-84.67 556.18,-82.65"/>
</a>
</g>
</g>
<!-- Node22&#45;&gt;Node5 -->
<g id="edge28_Node000022_Node000005" class="edge">
<title>Node22&#45;&gt;Node5</title>
<g id="a_edge28_Node000022_Node000005"><a xlink:title=" ">
<path fill="none" stroke="#63b8ff" d="M532.08,-54.98C517.21,-46.69 494.37,-33.94 476.93,-24.22"/>
<polygon fill="#63b8ff" stroke="#63b8ff" points="478.33,-20.99 467.89,-19.17 474.92,-27.1 478.33,-20.99"/>
</a>
</g>
</g>
<!-- Node22&#45;&gt;Node6 -->
<g id="edge29_Node000022_Node000006" class="edge">
<title>Node22&#45;&gt;Node6</title>
<g id="a_edge29_Node000022_Node000006"><a xlink:title=" ">
<path fill="none" stroke="#63b8ff" d="M484.53,-54.98C412.67,-45.25 295.55,-29.37 222.38,-19.45"/>
<polygon fill="#63b8ff" stroke="#63b8ff" points="222.74,-15.97 212.36,-18.09 221.8,-22.9 222.74,-15.97"/>
</a>
</g>
</g>
<!-- Node23&#45;&gt;Node7 -->
<g id="edge32_Node000023_Node000007" class="edge">
<title>Node23&#45;&gt;Node7</title>
<g id="a_edge32_Node000023_Node000007"><a xlink:title=" ">
<path fill="none" stroke="#63b8ff" d="M533.93,-395.84C532.61,-388.13 530.96,-378.49 529.54,-370.17"/>
<polygon fill="#63b8ff" stroke="#63b8ff" points="532.98,-369.53 527.85,-360.27 526.08,-370.71 532.98,-369.53"/>
</a>
</g>
</g>
<!-- Node23&#45;&gt;Node17 -->
<g id="edge33_Node000023_Node000017" class="edge">
<title>Node23&#45;&gt;Node17</title>
<g id="a_edge33_Node000023_Node000017"><a xlink:title=" ">
<path fill="none" stroke="#63b8ff" d="M565.09,-395.92C630.53,-363.86 789.93,-285.79 853.51,-254.64"/>
<polygon fill="#63b8ff" stroke="#63b8ff" points="855.43,-257.6 862.87,-250.06 852.35,-251.32 855.43,-257.6"/>
</a>
</g>
</g>
</g>
</svg>
