<?xml version="1.0" encoding="UTF-8" standalone="no"?>
<!DOCTYPE svg PUBLIC "-//W3C//DTD SVG 1.1//EN"
 "http://www.w3.org/Graphics/SVG/1.1/DTD/svg11.dtd">
<!-- Generated by graphviz version 2.43.0 (0)
 -->
<!-- Title: dma_types.h Pages: 1 -->
<svg width="1521pt" height="577pt"
 viewBox="0.00 0.00 1520.50 577.00" xmlns="http://www.w3.org/2000/svg" xmlns:xlink="http://www.w3.org/1999/xlink">
<g id="graph0" class="graph" transform="scale(1 1) rotate(0) translate(4 573)">
<title>dma_types.h</title>
<!-- Node1 -->
<g id="Node000001" class="node">
<title>Node1</title>
<g id="a_Node000001"><a xlink:title="ODP DMA.">
<polygon fill="#999999" stroke="#666666" points="1022.5,-569 942.5,-569 942.5,-550 1022.5,-550 1022.5,-569"/>
<text text-anchor="middle" x="982.5" y="-557" font-family="Helvetica,sans-Serif" font-size="10.00">dma_types.h</text>
</a>
</g>
</g>
<!-- Node2 -->
<g id="Node000002" class="node">
<title>Node2</title>
<g id="a_Node000002"><a xlink:href="spec_2dma_8h.html" target="_top" xlink:title="ODP DMA.">
<polygon fill="white" stroke="#666666" points="228,-404 181,-404 181,-385 228,-385 228,-404"/>
<text text-anchor="middle" x="204.5" y="-392" font-family="Helvetica,sans-Serif" font-size="10.00">dma.h</text>
</a>
</g>
</g>
<!-- Node1&#45;&gt;Node2 -->
<g id="edge1_Node000001_Node000002" class="edge">
<title>Node1&#45;&gt;Node2</title>
<g id="a_edge1_Node000001_Node000002"><a xlink:title=" ">
<path fill="none" stroke="#63b8ff" d="M932.39,-548C781.63,-516.42 335.98,-423.05 228.18,-400.46"/>
<polygon fill="#63b8ff" stroke="#63b8ff" points="931.8,-551.45 942.31,-550.08 933.24,-544.6 931.8,-551.45"/>
</a>
</g>
</g>
<!-- Node4 -->
<g id="Node000004" class="node">
<title>Node4</title>
<g id="a_Node000004"><a xlink:href="dma__inlines_8h_source.html" target="_top" xlink:title=" ">
<polygon fill="white" stroke="#666666" points="1419,-294 1334,-294 1334,-275 1419,-275 1419,-294"/>
<text text-anchor="middle" x="1376.5" y="-282" font-family="Helvetica,sans-Serif" font-size="10.00">dma_inlines.h</text>
</a>
</g>
</g>
<!-- Node1&#45;&gt;Node4 -->
<g id="edge3_Node000001_Node000004" class="edge">
<title>Node1&#45;&gt;Node4</title>
<g id="a_edge3_Node000001_Node000004"><a xlink:title=" ">
<path fill="none" stroke="#63b8ff" d="M1033.05,-558.83C1165.5,-558.33 1512.5,-547.76 1512.5,-450.5 1512.5,-450.5 1512.5,-450.5 1512.5,-393.5 1512.5,-339.23 1445.26,-307.88 1405.34,-294.05"/>
<polygon fill="#63b8ff" stroke="#63b8ff" points="1032.76,-555.33 1022.77,-558.85 1032.78,-562.33 1032.76,-555.33"/>
</a>
</g>
</g>
<!-- Node5 -->
<g id="Node000005" class="node">
<title>Node5</title>
<g id="a_Node000005"><a xlink:href="spec_2pool__types_8h.html" target="_top" xlink:title="Type definitions for pools.">
<polygon fill="white" stroke="#666666" points="988,-514 909,-514 909,-495 988,-495 988,-514"/>
<text text-anchor="middle" x="948.5" y="-502" font-family="Helvetica,sans-Serif" font-size="10.00">pool_types.h</text>
</a>
</g>
</g>
<!-- Node1&#45;&gt;Node5 -->
<g id="edge4_Node000001_Node000005" class="edge">
<title>Node1&#45;&gt;Node5</title>
<g id="a_edge4_Node000001_Node000005"><a xlink:title=" ">
<path fill="none" stroke="#63b8ff" d="M971.34,-541.1C965.53,-532.04 958.68,-521.37 954.01,-514.09"/>
<polygon fill="#63b8ff" stroke="#63b8ff" points="968.54,-543.22 976.89,-549.75 974.43,-539.44 968.54,-543.22"/>
</a>
</g>
</g>
<!-- Node3 -->
<g id="Node000003" class="node">
<title>Node3</title>
<g id="a_Node000003"><a xlink:href="dma_8h.html" target="_top" xlink:title="ODP DMA.">
<polygon fill="white" stroke="#666666" points="159,-349 112,-349 112,-330 159,-330 159,-349"/>
<text text-anchor="middle" x="135.5" y="-337" font-family="Helvetica,sans-Serif" font-size="10.00">dma.h</text>
</a>
</g>
</g>
<!-- Node2&#45;&gt;Node3 -->
<g id="edge2_Node000002_Node000003" class="edge">
<title>Node2&#45;&gt;Node3</title>
<g id="a_edge2_Node000002_Node000003"><a xlink:title=" ">
<path fill="none" stroke="#63b8ff" d="M185.46,-378.88C173.04,-369.34 157.26,-357.21 146.79,-349.17"/>
<polygon fill="#63b8ff" stroke="#63b8ff" points="183.35,-381.67 193.41,-384.98 187.62,-376.12 183.35,-381.67"/>
</a>
</g>
</g>
<!-- Node6 -->
<g id="Node000006" class="node">
<title>Node6</title>
<g id="a_Node000006"><a xlink:href="pool__types_8h.html" target="_top" xlink:title="ODP pool.">
<polygon fill="white" stroke="#666666" points="834,-459 755,-459 755,-440 834,-440 834,-459"/>
<text text-anchor="middle" x="794.5" y="-447" font-family="Helvetica,sans-Serif" font-size="10.00">pool_types.h</text>
</a>
</g>
</g>
<!-- Node5&#45;&gt;Node6 -->
<g id="edge5_Node000005_Node000006" class="edge">
<title>Node5&#45;&gt;Node6</title>
<g id="a_edge5_Node000005_Node000006"><a xlink:title=" ">
<path fill="none" stroke="#63b8ff" d="M914.12,-491.67C885.41,-481.79 845.14,-467.93 819.44,-459.08"/>
<polygon fill="#63b8ff" stroke="#63b8ff" points="913.16,-495.04 923.76,-494.98 915.44,-488.42 913.16,-495.04"/>
</a>
</g>
</g>
<!-- Node6&#45;&gt;Node2 -->
<g id="edge26_Node000006_Node000002" class="edge">
<title>Node6&#45;&gt;Node2</title>
<g id="a_edge26_Node000006_Node000002"><a xlink:title=" ">
<path fill="none" stroke="#63b8ff" d="M744.68,-446.81C647.57,-443.02 426.4,-431.84 242.5,-404 237.82,-403.29 232.86,-402.34 228.12,-401.32"/>
<polygon fill="#63b8ff" stroke="#63b8ff" points="744.66,-450.32 754.79,-447.2 744.93,-443.32 744.66,-450.32"/>
</a>
</g>
</g>
<!-- Node6&#45;&gt;Node4 -->
<g id="edge27_Node000006_Node000004" class="edge">
<title>Node6&#45;&gt;Node4</title>
<g id="a_edge27_Node000006_Node000004"><a xlink:title=" ">
<path fill="none" stroke="#63b8ff" d="M844.48,-447.99C975.09,-446.18 1319.16,-438.18 1356.5,-404 1388.05,-375.12 1381.89,-316.5 1378.19,-294.3"/>
<polygon fill="#63b8ff" stroke="#63b8ff" points="844.3,-444.49 834.34,-448.12 844.39,-451.49 844.3,-444.49"/>
</a>
</g>
</g>
<!-- Node7 -->
<g id="Node000007" class="node">
<title>Node7</title>
<g id="a_Node000007"><a xlink:href="spec_2buffer_8h.html" target="_top" xlink:title="ODP buffer.">
<polygon fill="white" stroke="#666666" points="1348,-404 1295,-404 1295,-385 1348,-385 1348,-404"/>
<text text-anchor="middle" x="1321.5" y="-392" font-family="Helvetica,sans-Serif" font-size="10.00">buffer.h</text>
</a>
</g>
</g>
<!-- Node6&#45;&gt;Node7 -->
<g id="edge6_Node000006_Node000007" class="edge">
<title>Node6&#45;&gt;Node7</title>
<g id="a_edge6_Node000006_Node000007"><a xlink:title=" ">
<path fill="none" stroke="#63b8ff" d="M844.28,-446.32C933.29,-441.9 1125.41,-430.02 1285.5,-404 1288.54,-403.51 1291.71,-402.9 1294.85,-402.24"/>
<polygon fill="#63b8ff" stroke="#63b8ff" points="844.02,-442.83 834.2,-446.81 844.36,-449.82 844.02,-442.83"/>
</a>
</g>
</g>
<!-- Node9 -->
<g id="Node000009" class="node">
<title>Node9</title>
<g id="a_Node000009"><a xlink:href="buffer__inlines_8h_source.html" target="_top" xlink:title=" ">
<polygon fill="white" stroke="#666666" points="1150.5,-294 1058.5,-294 1058.5,-275 1150.5,-275 1150.5,-294"/>
<text text-anchor="middle" x="1104.5" y="-282" font-family="Helvetica,sans-Serif" font-size="10.00">buffer_inlines.h</text>
</a>
</g>
</g>
<!-- Node6&#45;&gt;Node9 -->
<g id="edge9_Node000006_Node000009" class="edge">
<title>Node6&#45;&gt;Node9</title>
<g id="a_edge9_Node000006_Node000009"><a xlink:title=" ">
<path fill="none" stroke="#63b8ff" d="M782.35,-430.98C774.71,-417.6 767.8,-399.13 776.5,-385 804.94,-338.79 834.23,-347.78 885.5,-330 916.84,-319.13 1004.03,-302.93 1058.47,-293.36"/>
<polygon fill="#63b8ff" stroke="#63b8ff" points="779.53,-433.08 787.82,-439.68 785.46,-429.35 779.53,-433.08"/>
</a>
</g>
</g>
<!-- Node10 -->
<g id="Node000010" class="node">
<title>Node10</title>
<g id="a_Node000010"><a xlink:href="spec_2classification_8h.html" target="_top" xlink:title="ODP classification descriptor.">
<polygon fill="white" stroke="#666666" points="196,-294 107,-294 107,-275 196,-275 196,-294"/>
<text text-anchor="middle" x="151.5" y="-282" font-family="Helvetica,sans-Serif" font-size="10.00">classification.h</text>
</a>
</g>
</g>
<!-- Node6&#45;&gt;Node10 -->
<g id="edge10_Node000006_Node000010" class="edge">
<title>Node6&#45;&gt;Node10</title>
<g id="a_edge10_Node000006_Node000010"><a xlink:title=" ">
<path fill="none" stroke="#63b8ff" d="M744.57,-449C638.66,-449.22 395.46,-445.08 325.5,-404 291.06,-383.77 306.12,-354.4 274.5,-330 251.04,-311.89 219.53,-300.68 194.28,-294.04"/>
<polygon fill="#63b8ff" stroke="#63b8ff" points="744.69,-452.49 754.68,-448.96 744.67,-445.49 744.69,-452.49"/>
</a>
</g>
</g>
<!-- Node19 -->
<g id="Node000019" class="node">
<title>Node19</title>
<g id="a_Node000019"><a xlink:href="spec_2crypto__types_8h.html" target="_top" xlink:title="ODP crypto types.">
<polygon fill="white" stroke="#666666" points="266,-349 177,-349 177,-330 266,-330 266,-349"/>
<text text-anchor="middle" x="221.5" y="-337" font-family="Helvetica,sans-Serif" font-size="10.00">crypto_types.h</text>
</a>
</g>
</g>
<!-- Node6&#45;&gt;Node19 -->
<g id="edge19_Node000006_Node000019" class="edge">
<title>Node6&#45;&gt;Node19</title>
<g id="a_edge19_Node000006_Node000019"><a xlink:title=" ">
<path fill="none" stroke="#63b8ff" d="M744.67,-446.22C623.73,-440.41 321.56,-424.05 280.5,-404 255.35,-391.72 235.6,-363.76 226.68,-349.39"/>
<polygon fill="#63b8ff" stroke="#63b8ff" points="744.61,-449.72 754.77,-446.7 744.95,-442.73 744.61,-449.72"/>
</a>
</g>
</g>
<!-- Node24 -->
<g id="Node000024" class="node">
<title>Node24</title>
<g id="a_Node000024"><a xlink:href="spec_2dma__types_8h.html" target="_top" xlink:title="ODP DMA.">
<polygon fill="white" stroke="#666666" points="1484.5,-404 1404.5,-404 1404.5,-385 1484.5,-385 1484.5,-404"/>
<text text-anchor="middle" x="1444.5" y="-392" font-family="Helvetica,sans-Serif" font-size="10.00">dma_types.h</text>
</a>
</g>
</g>
<!-- Node6&#45;&gt;Node24 -->
<g id="edge28_Node000006_Node000024" class="edge">
<title>Node6&#45;&gt;Node24</title>
<g id="a_edge28_Node000006_Node000024"><a xlink:title=" ">
<path fill="none" stroke="#63b8ff" d="M844.05,-446.17C946.39,-441.06 1188.46,-427.4 1390.5,-404 1395.03,-403.48 1399.75,-402.85 1404.45,-402.18"/>
<polygon fill="#63b8ff" stroke="#63b8ff" points="843.82,-442.68 834.01,-446.67 844.17,-449.67 843.82,-442.68"/>
</a>
</g>
</g>
<!-- Node25 -->
<g id="Node000025" class="node">
<title>Node25</title>
<g id="a_Node000025"><a xlink:href="spec_2event_8h.html" target="_top" xlink:title="ODP event.">
<polygon fill="white" stroke="#666666" points="615,-404 562,-404 562,-385 615,-385 615,-404"/>
<text text-anchor="middle" x="588.5" y="-392" font-family="Helvetica,sans-Serif" font-size="10.00">event.h</text>
</a>
</g>
</g>
<!-- Node6&#45;&gt;Node25 -->
<g id="edge30_Node000006_Node000025" class="edge">
<title>Node6&#45;&gt;Node25</title>
<g id="a_edge30_Node000006_Node000025"><a xlink:title=" ">
<path fill="none" stroke="#63b8ff" d="M751.67,-437.48C710.61,-426.92 649.9,-411.3 615.28,-402.39"/>
<polygon fill="#63b8ff" stroke="#63b8ff" points="750.85,-440.88 761.4,-439.98 752.59,-434.1 750.85,-440.88"/>
</a>
</g>
</g>
<!-- Node27 -->
<g id="Node000027" class="node">
<title>Node27</title>
<g id="a_Node000027"><a xlink:href="event__vector__inlines_8h.html" target="_top" xlink:title="Event vector inline functions.">
<polygon fill="white" stroke="#666666" points="778,-294 651,-294 651,-275 778,-275 778,-294"/>
<text text-anchor="middle" x="714.5" y="-282" font-family="Helvetica,sans-Serif" font-size="10.00">event_vector_inlines.h</text>
</a>
</g>
</g>
<!-- Node6&#45;&gt;Node27 -->
<g id="edge42_Node000006_Node000027" class="edge">
<title>Node6&#45;&gt;Node27</title>
<g id="a_edge42_Node000006_Node000027"><a xlink:title=" ">
<path fill="none" stroke="#63b8ff" d="M744.97,-439.04C725.25,-432.61 704.43,-421.87 692.5,-404 674.23,-376.65 683.73,-361.96 691.5,-330 694.75,-316.65 702.75,-302.83 708.4,-294.2"/>
<polygon fill="#63b8ff" stroke="#63b8ff" points="744.25,-442.48 754.83,-441.95 746.23,-435.77 744.25,-442.48"/>
</a>
</g>
</g>
<!-- Node28 -->
<g id="Node000028" class="node">
<title>Node28</title>
<g id="a_Node000028"><a xlink:href="packet__inlines_8h.html" target="_top" xlink:title="Packet inline functions.">
<polygon fill="white" stroke="#666666" points="891,-294 796,-294 796,-275 891,-275 891,-294"/>
<text text-anchor="middle" x="843.5" y="-282" font-family="Helvetica,sans-Serif" font-size="10.00">packet_inlines.h</text>
</a>
</g>
</g>
<!-- Node6&#45;&gt;Node28 -->
<g id="edge49_Node000006_Node000028" class="edge">
<title>Node6&#45;&gt;Node28</title>
<g id="a_edge49_Node000006_Node000028"><a xlink:title=" ">
<path fill="none" stroke="#63b8ff" d="M747.85,-436.32C731.56,-429.59 714.99,-419.36 705.5,-404 688.21,-376.02 686.14,-356.59 705.5,-330 716.69,-314.64 762.69,-301.91 798.54,-294.06"/>
<polygon fill="#63b8ff" stroke="#63b8ff" points="746.76,-439.65 757.35,-439.9 749.23,-433.1 746.76,-439.65"/>
</a>
</g>
</g>
<!-- Node29 -->
<g id="Node000029" class="node">
<title>Node29</title>
<g id="a_Node000029"><a xlink:href="packet__vector__inlines_8h.html" target="_top" xlink:title="Packet vector inline functions.">
<polygon fill="white" stroke="#666666" points="1040,-294 909,-294 909,-275 1040,-275 1040,-294"/>
<text text-anchor="middle" x="974.5" y="-282" font-family="Helvetica,sans-Serif" font-size="10.00">packet_vector_inlines.h</text>
</a>
</g>
</g>
<!-- Node6&#45;&gt;Node29 -->
<g id="edge59_Node000006_Node000029" class="edge">
<title>Node6&#45;&gt;Node29</title>
<g id="a_edge59_Node000006_Node000029"><a xlink:title=" ">
<path fill="none" stroke="#63b8ff" d="M770.39,-434.19C760.07,-426.64 749.12,-416.37 743.5,-404 729.89,-374.06 722.56,-355.36 743.5,-330 754.06,-317.21 844.29,-302.72 908.79,-293.85"/>
<polygon fill="#63b8ff" stroke="#63b8ff" points="768.53,-437.16 778.77,-439.88 772.46,-431.37 768.53,-437.16"/>
</a>
</g>
</g>
<!-- Node31 -->
<g id="Node000031" class="node">
<title>Node31</title>
<g id="a_Node000031"><a xlink:href="event__inlines_8h_source.html" target="_top" xlink:title=" ">
<polygon fill="white" stroke="#666666" points="877,-404 786,-404 786,-385 877,-385 877,-404"/>
<text text-anchor="middle" x="831.5" y="-392" font-family="Helvetica,sans-Serif" font-size="10.00">event_inlines.h</text>
</a>
</g>
</g>
<!-- Node6&#45;&gt;Node31 -->
<g id="edge39_Node000006_Node000031" class="edge">
<title>Node6&#45;&gt;Node31</title>
<g id="a_edge39_Node000006_Node000031"><a xlink:title=" ">
<path fill="none" stroke="#63b8ff" d="M806.45,-431.39C812.81,-422.27 820.37,-411.45 825.5,-404.09"/>
<polygon fill="#63b8ff" stroke="#63b8ff" points="803.46,-429.55 800.61,-439.75 809.2,-433.55 803.46,-429.55"/>
</a>
</g>
</g>
<!-- Node32 -->
<g id="Node000032" class="node">
<title>Node32</title>
<g id="a_Node000032"><a xlink:href="spec_2event__vector_8h.html" target="_top" xlink:title="ODP event vector.">
<polygon fill="white" stroke="#666666" points="984,-404 895,-404 895,-385 984,-385 984,-404"/>
<text text-anchor="middle" x="939.5" y="-392" font-family="Helvetica,sans-Serif" font-size="10.00">event_vector.h</text>
</a>
</g>
</g>
<!-- Node6&#45;&gt;Node32 -->
<g id="edge40_Node000006_Node000032" class="edge">
<title>Node6&#45;&gt;Node32</title>
<g id="a_edge40_Node000006_Node000032"><a xlink:title=" ">
<path fill="none" stroke="#63b8ff" d="M827.19,-436.55C854.12,-426.71 891.66,-412.98 915.78,-404.17"/>
<polygon fill="#63b8ff" stroke="#63b8ff" points="825.99,-433.26 817.8,-439.98 828.39,-439.84 825.99,-433.26"/>
</a>
</g>
</g>
<!-- Node34 -->
<g id="Node000034" class="node">
<title>Node34</title>
<g id="a_Node000034"><a xlink:href="spec_2ml_8h.html" target="_top" xlink:title="ODP Machine Learning (ML) offload.">
<polygon fill="white" stroke="#666666" points="1040.5,-404 1002.5,-404 1002.5,-385 1040.5,-385 1040.5,-404"/>
<text text-anchor="middle" x="1021.5" y="-392" font-family="Helvetica,sans-Serif" font-size="10.00">ml.h</text>
</a>
</g>
</g>
<!-- Node6&#45;&gt;Node34 -->
<g id="edge43_Node000006_Node000034" class="edge">
<title>Node6&#45;&gt;Node34</title>
<g id="a_edge43_Node000006_Node000034"><a xlink:title=" ">
<path fill="none" stroke="#63b8ff" d="M843.94,-438.31C884.12,-429.8 942.19,-417.01 992.5,-404 995.65,-403.19 998.97,-402.27 1002.2,-401.34"/>
<polygon fill="#63b8ff" stroke="#63b8ff" points="843.19,-434.89 834.12,-440.37 844.63,-441.74 843.19,-434.89"/>
</a>
</g>
</g>
<!-- Node36 -->
<g id="Node000036" class="node">
<title>Node36</title>
<g id="a_Node000036"><a xlink:href="spec_2packet_8h.html" target="_top" xlink:title="ODP packet descriptor.">
<polygon fill="white" stroke="#666666" points="449.5,-294 391.5,-294 391.5,-275 449.5,-275 449.5,-294"/>
<text text-anchor="middle" x="420.5" y="-282" font-family="Helvetica,sans-Serif" font-size="10.00">packet.h</text>
</a>
</g>
</g>
<!-- Node6&#45;&gt;Node36 -->
<g id="edge45_Node000006_Node000036" class="edge">
<title>Node6&#45;&gt;Node36</title>
<g id="a_edge45_Node000006_Node000036"><a xlink:title=" ">
<path fill="none" stroke="#63b8ff" d="M744.68,-447.19C693.94,-444.1 614.19,-434.31 552.5,-404 495.56,-376.02 444.79,-316.34 427.12,-294.09"/>
<polygon fill="#63b8ff" stroke="#63b8ff" points="744.56,-450.69 754.73,-447.74 744.94,-443.7 744.56,-450.69"/>
</a>
</g>
</g>
<!-- Node38 -->
<g id="Node000038" class="node">
<title>Node38</title>
<g id="a_Node000038"><a xlink:href="spec_2packet__io__types_8h.html" target="_top" xlink:title="ODP Packet IO types.">
<polygon fill="white" stroke="#666666" points="438.5,-404 334.5,-404 334.5,-385 438.5,-385 438.5,-404"/>
<text text-anchor="middle" x="386.5" y="-392" font-family="Helvetica,sans-Serif" font-size="10.00">packet_io_types.h</text>
</a>
</g>
</g>
<!-- Node6&#45;&gt;Node38 -->
<g id="edge50_Node000006_Node000038" class="edge">
<title>Node6&#45;&gt;Node38</title>
<g id="a_edge50_Node000006_Node000038"><a xlink:title=" ">
<path fill="none" stroke="#63b8ff" d="M744.61,-442.02C666.9,-431.93 517.68,-412.54 438.62,-402.27"/>
<polygon fill="#63b8ff" stroke="#63b8ff" points="744.27,-445.5 754.64,-443.32 745.17,-438.56 744.27,-445.5"/>
</a>
</g>
</g>
<!-- Node42 -->
<g id="Node000042" class="node">
<title>Node42</title>
<g id="a_Node000042"><a xlink:href="spec_2pool_8h.html" target="_top" xlink:title="ODP pool.">
<polygon fill="white" stroke="#666666" points="1106,-404 1059,-404 1059,-385 1106,-385 1106,-404"/>
<text text-anchor="middle" x="1082.5" y="-392" font-family="Helvetica,sans-Serif" font-size="10.00">pool.h</text>
</a>
</g>
</g>
<!-- Node6&#45;&gt;Node42 -->
<g id="edge60_Node000006_Node000042" class="edge">
<title>Node6&#45;&gt;Node42</title>
<g id="a_edge60_Node000006_Node000042"><a xlink:title=" ">
<path fill="none" stroke="#63b8ff" d="M844.2,-441.02C895.76,-432.99 978.61,-419.29 1049.5,-404 1052.51,-403.35 1055.65,-402.62 1058.76,-401.85"/>
<polygon fill="#63b8ff" stroke="#63b8ff" points="843.35,-437.61 834,-442.6 844.42,-444.53 843.35,-437.61"/>
</a>
</g>
</g>
<!-- Node44 -->
<g id="Node000044" class="node">
<title>Node44</title>
<g id="a_Node000044"><a xlink:href="pool__inlines_8h_source.html" target="_top" xlink:title=" ">
<polygon fill="white" stroke="#666666" points="1208.5,-404 1124.5,-404 1124.5,-385 1208.5,-385 1208.5,-404"/>
<text text-anchor="middle" x="1166.5" y="-392" font-family="Helvetica,sans-Serif" font-size="10.00">pool_inlines.h</text>
</a>
</g>
</g>
<!-- Node6&#45;&gt;Node44 -->
<g id="edge62_Node000006_Node000044" class="edge">
<title>Node6&#45;&gt;Node44</title>
<g id="a_edge62_Node000006_Node000044"><a xlink:title=" ">
<path fill="none" stroke="#63b8ff" d="M844.26,-441.95C907.23,-433.58 1019.02,-418.44 1114.5,-404 1117.67,-403.52 1120.94,-403.01 1124.23,-402.5"/>
<polygon fill="#63b8ff" stroke="#63b8ff" points="843.66,-438.5 834.2,-443.29 844.58,-445.44 843.66,-438.5"/>
</a>
</g>
</g>
<!-- Node45 -->
<g id="Node000045" class="node">
<title>Node45</title>
<g id="a_Node000045"><a xlink:href="spec_2timer_8h.html" target="_top" xlink:title="ODP timer service.">
<polygon fill="white" stroke="#666666" points="1277,-404 1226,-404 1226,-385 1277,-385 1277,-404"/>
<text text-anchor="middle" x="1251.5" y="-392" font-family="Helvetica,sans-Serif" font-size="10.00">timer.h</text>
</a>
</g>
</g>
<!-- Node6&#45;&gt;Node45 -->
<g id="edge63_Node000006_Node000045" class="edge">
<title>Node6&#45;&gt;Node45</title>
<g id="a_edge63_Node000006_Node000045"><a xlink:title=" ">
<path fill="none" stroke="#63b8ff" d="M844.32,-445.53C923.73,-440.29 1083.71,-427.64 1217.5,-404 1220.26,-403.51 1223.12,-402.93 1225.96,-402.29"/>
<polygon fill="#63b8ff" stroke="#63b8ff" points="843.87,-442.05 834.12,-446.19 844.33,-449.04 843.87,-442.05"/>
</a>
</g>
</g>
<!-- Node8 -->
<g id="Node000008" class="node">
<title>Node8</title>
<g id="a_Node000008"><a xlink:href="buffer_8h.html" target="_top" xlink:title="ODP buffer descriptor.">
<polygon fill="white" stroke="#666666" points="1348,-349 1295,-349 1295,-330 1348,-330 1348,-349"/>
<text text-anchor="middle" x="1321.5" y="-337" font-family="Helvetica,sans-Serif" font-size="10.00">buffer.h</text>
</a>
</g>
</g>
<!-- Node7&#45;&gt;Node8 -->
<g id="edge7_Node000007_Node000008" class="edge">
<title>Node7&#45;&gt;Node8</title>
<g id="a_edge7_Node000007_Node000008"><a xlink:title=" ">
<path fill="none" stroke="#63b8ff" d="M1321.5,-374.66C1321.5,-365.93 1321.5,-355.99 1321.5,-349.09"/>
<polygon fill="#63b8ff" stroke="#63b8ff" points="1318,-374.75 1321.5,-384.75 1325,-374.75 1318,-374.75"/>
</a>
</g>
</g>
<!-- Node8&#45;&gt;Node4 -->
<g id="edge8_Node000008_Node000004" class="edge">
<title>Node8&#45;&gt;Node4</title>
<g id="a_edge8_Node000008_Node000004"><a xlink:title=" ">
<path fill="none" stroke="#63b8ff" d="M1337.79,-322.8C1347.54,-313.41 1359.55,-301.83 1367.59,-294.09"/>
<polygon fill="#63b8ff" stroke="#63b8ff" points="1335.35,-320.29 1330.58,-329.75 1340.21,-325.33 1335.35,-320.29"/>
</a>
</g>
</g>
<!-- Node11 -->
<g id="Node000011" class="node">
<title>Node11</title>
<g id="a_Node000011"><a xlink:href="classification_8h.html" target="_top" xlink:title="ODP classification descriptor.">
<polygon fill="white" stroke="#666666" points="196,-239 107,-239 107,-220 196,-220 196,-239"/>
<text text-anchor="middle" x="151.5" y="-227" font-family="Helvetica,sans-Serif" font-size="10.00">classification.h</text>
</a>
</g>
</g>
<!-- Node10&#45;&gt;Node11 -->
<g id="edge11_Node000010_Node000011" class="edge">
<title>Node10&#45;&gt;Node11</title>
<g id="a_edge11_Node000010_Node000011"><a xlink:title=" ">
<path fill="none" stroke="#63b8ff" d="M151.5,-264.66C151.5,-255.93 151.5,-245.99 151.5,-239.09"/>
<polygon fill="#63b8ff" stroke="#63b8ff" points="148,-264.75 151.5,-274.75 155,-264.75 148,-264.75"/>
</a>
</g>
</g>
<!-- Node12 -->
<g id="Node000012" class="node">
<title>Node12</title>
<g id="a_Node000012"><a xlink:href="spec_2ipsec__types_8h.html" target="_top" xlink:title="ODP IPsec API type definitions.">
<polygon fill="white" stroke="#666666" points="232,-184 149,-184 149,-165 232,-165 232,-184"/>
<text text-anchor="middle" x="190.5" y="-172" font-family="Helvetica,sans-Serif" font-size="10.00">ipsec_types.h</text>
</a>
</g>
</g>
<!-- Node11&#45;&gt;Node12 -->
<g id="edge12_Node000011_Node000012" class="edge">
<title>Node11&#45;&gt;Node12</title>
<g id="a_edge12_Node000011_Node000012"><a xlink:title=" ">
<path fill="none" stroke="#63b8ff" d="M163.88,-211.67C170.64,-202.5 178.71,-191.52 184.18,-184.09"/>
<polygon fill="#63b8ff" stroke="#63b8ff" points="161.05,-209.62 157.94,-219.75 166.69,-213.77 161.05,-209.62"/>
</a>
</g>
</g>
<!-- Node17 -->
<g id="Node000017" class="node">
<title>Node17</title>
<g id="a_Node000017"><a xlink:href="spec_2packet__io_8h.html" target="_top" xlink:title="ODP Packet IO.">
<polygon fill="white" stroke="#666666" points="326.5,-184 254.5,-184 254.5,-165 326.5,-165 326.5,-184"/>
<text text-anchor="middle" x="290.5" y="-172" font-family="Helvetica,sans-Serif" font-size="10.00">packet_io.h</text>
</a>
</g>
</g>
<!-- Node11&#45;&gt;Node17 -->
<g id="edge17_Node000011_Node000017" class="edge">
<title>Node11&#45;&gt;Node17</title>
<g id="a_edge17_Node000011_Node000017"><a xlink:title=" ">
<path fill="none" stroke="#63b8ff" d="M183.18,-216.42C208.97,-206.59 244.74,-192.95 267.76,-184.17"/>
<polygon fill="#63b8ff" stroke="#63b8ff" points="181.93,-213.15 173.83,-219.98 184.42,-219.69 181.93,-213.15"/>
</a>
</g>
</g>
<!-- Node13 -->
<g id="Node000013" class="node">
<title>Node13</title>
<g id="a_Node000013"><a xlink:href="ipsec__types_8h.html" target="_top" xlink:title="ODP IPsec.">
<polygon fill="white" stroke="#666666" points="232,-129 149,-129 149,-110 232,-110 232,-129"/>
<text text-anchor="middle" x="190.5" y="-117" font-family="Helvetica,sans-Serif" font-size="10.00">ipsec_types.h</text>
</a>
</g>
</g>
<!-- Node12&#45;&gt;Node13 -->
<g id="edge13_Node000012_Node000013" class="edge">
<title>Node12&#45;&gt;Node13</title>
<g id="a_edge13_Node000012_Node000013"><a xlink:title=" ">
<path fill="none" stroke="#63b8ff" d="M190.5,-154.66C190.5,-145.93 190.5,-135.99 190.5,-129.09"/>
<polygon fill="#63b8ff" stroke="#63b8ff" points="187,-154.75 190.5,-164.75 194,-154.75 187,-154.75"/>
</a>
</g>
</g>
<!-- Node14 -->
<g id="Node000014" class="node">
<title>Node14</title>
<g id="a_Node000014"><a xlink:href="spec_2ipsec_8h.html" target="_top" xlink:title="ODP IPsec API.">
<polygon fill="white" stroke="#666666" points="180,-74 129,-74 129,-55 180,-55 180,-74"/>
<text text-anchor="middle" x="154.5" y="-62" font-family="Helvetica,sans-Serif" font-size="10.00">ipsec.h</text>
</a>
</g>
</g>
<!-- Node13&#45;&gt;Node14 -->
<g id="edge14_Node000013_Node000014" class="edge">
<title>Node13&#45;&gt;Node14</title>
<g id="a_edge14_Node000013_Node000014"><a xlink:title=" ">
<path fill="none" stroke="#63b8ff" d="M178.88,-101.39C172.68,-92.27 165.33,-81.45 160.33,-74.09"/>
<polygon fill="#63b8ff" stroke="#63b8ff" points="176.04,-103.44 184.56,-109.75 181.83,-99.51 176.04,-103.44"/>
</a>
</g>
</g>
<!-- Node16 -->
<g id="Node000016" class="node">
<title>Node16</title>
<g id="a_Node000016"><a xlink:href="ipsec__inlines_8h_source.html" target="_top" xlink:title=" ">
<polygon fill="white" stroke="#666666" points="513,-74 424,-74 424,-55 513,-55 513,-74"/>
<text text-anchor="middle" x="468.5" y="-62" font-family="Helvetica,sans-Serif" font-size="10.00">ipsec_inlines.h</text>
</a>
</g>
</g>
<!-- Node13&#45;&gt;Node16 -->
<g id="edge16_Node000013_Node000016" class="edge">
<title>Node13&#45;&gt;Node16</title>
<g id="a_edge16_Node000013_Node000016"><a xlink:title=" ">
<path fill="none" stroke="#63b8ff" d="M242.18,-108.65C294.4,-98.69 374.26,-83.47 423.83,-74.02"/>
<polygon fill="#63b8ff" stroke="#63b8ff" points="241.29,-105.25 232.12,-110.57 242.6,-112.13 241.29,-105.25"/>
</a>
</g>
</g>
<!-- Node15 -->
<g id="Node000015" class="node">
<title>Node15</title>
<g id="a_Node000015"><a xlink:href="ipsec_8h.html" target="_top" xlink:title="ODP IPSEC API &#45; platform specific header.">
<polygon fill="white" stroke="#666666" points="180,-19 129,-19 129,0 180,0 180,-19"/>
<text text-anchor="middle" x="154.5" y="-7" font-family="Helvetica,sans-Serif" font-size="10.00">ipsec.h</text>
</a>
</g>
</g>
<!-- Node14&#45;&gt;Node15 -->
<g id="edge15_Node000014_Node000015" class="edge">
<title>Node14&#45;&gt;Node15</title>
<g id="a_edge15_Node000014_Node000015"><a xlink:title=" ">
<path fill="none" stroke="#63b8ff" d="M154.5,-44.66C154.5,-35.93 154.5,-25.99 154.5,-19.09"/>
<polygon fill="#63b8ff" stroke="#63b8ff" points="151,-44.75 154.5,-54.75 158,-44.75 151,-44.75"/>
</a>
</g>
</g>
<!-- Node18 -->
<g id="Node000018" class="node">
<title>Node18</title>
<g id="a_Node000018"><a xlink:href="packet__io_8h.html" target="_top" xlink:title="ODP Packet IO.">
<polygon fill="white" stroke="#666666" points="326.5,-129 254.5,-129 254.5,-110 326.5,-110 326.5,-129"/>
<text text-anchor="middle" x="290.5" y="-117" font-family="Helvetica,sans-Serif" font-size="10.00">packet_io.h</text>
</a>
</g>
</g>
<!-- Node17&#45;&gt;Node18 -->
<g id="edge18_Node000017_Node000018" class="edge">
<title>Node17&#45;&gt;Node18</title>
<g id="a_edge18_Node000017_Node000018"><a xlink:title=" ">
<path fill="none" stroke="#63b8ff" d="M290.5,-154.66C290.5,-145.93 290.5,-135.99 290.5,-129.09"/>
<polygon fill="#63b8ff" stroke="#63b8ff" points="287,-154.75 290.5,-164.75 294,-154.75 287,-154.75"/>
</a>
</g>
</g>
<!-- Node20 -->
<g id="Node000020" class="node">
<title>Node20</title>
<g id="a_Node000020"><a xlink:href="crypto__types_8h.html" target="_top" xlink:title="ODP crypto.">
<polygon fill="white" stroke="#666666" points="89,-239 0,-239 0,-220 89,-220 89,-239"/>
<text text-anchor="middle" x="44.5" y="-227" font-family="Helvetica,sans-Serif" font-size="10.00">crypto_types.h</text>
</a>
</g>
</g>
<!-- Node19&#45;&gt;Node20 -->
<g id="edge20_Node000019_Node000020" class="edge">
<title>Node19&#45;&gt;Node20</title>
<g id="a_edge20_Node000019_Node000020"><a xlink:title=" ">
<path fill="none" stroke="#63b8ff" d="M171.61,-327.15C147.76,-320.14 119.65,-309.48 97.5,-294 75.84,-278.87 57.94,-252.68 49.58,-239.15"/>
<polygon fill="#63b8ff" stroke="#63b8ff" points="170.97,-330.6 181.54,-329.93 172.86,-323.86 170.97,-330.6"/>
</a>
</g>
</g>
<!-- Node20&#45;&gt;Node12 -->
<g id="edge25_Node000020_Node000012" class="edge">
<title>Node20&#45;&gt;Node12</title>
<g id="a_edge25_Node000020_Node000012"><a xlink:title=" ">
<path fill="none" stroke="#63b8ff" d="M77.42,-216.55C104.53,-206.71 142.33,-192.98 166.62,-184.17"/>
<polygon fill="#63b8ff" stroke="#63b8ff" points="76.16,-213.28 67.96,-219.98 78.55,-219.86 76.16,-213.28"/>
</a>
</g>
</g>
<!-- Node20&#45;&gt;Node14 -->
<g id="edge24_Node000020_Node000014" class="edge">
<title>Node20&#45;&gt;Node14</title>
<g id="a_edge24_Node000020_Node000014"><a xlink:title=" ">
<path fill="none" stroke="#63b8ff" d="M59,-212.2C66.08,-203.97 74.54,-193.69 81.5,-184 109.83,-144.55 138.68,-94 149.76,-74.1"/>
<polygon fill="#63b8ff" stroke="#63b8ff" points="56.19,-210.09 52.25,-219.93 61.46,-214.7 56.19,-210.09"/>
</a>
</g>
</g>
<!-- Node21 -->
<g id="Node000021" class="node">
<title>Node21</title>
<g id="a_Node000021"><a xlink:href="spec_2crypto_8h.html" target="_top" xlink:title="ODP crypto.">
<polygon fill="white" stroke="#666666" points="72.5,-184 16.5,-184 16.5,-165 72.5,-165 72.5,-184"/>
<text text-anchor="middle" x="44.5" y="-172" font-family="Helvetica,sans-Serif" font-size="10.00">crypto.h</text>
</a>
</g>
</g>
<!-- Node20&#45;&gt;Node21 -->
<g id="edge21_Node000020_Node000021" class="edge">
<title>Node20&#45;&gt;Node21</title>
<g id="a_edge21_Node000020_Node000021"><a xlink:title=" ">
<path fill="none" stroke="#63b8ff" d="M44.5,-209.66C44.5,-200.93 44.5,-190.99 44.5,-184.09"/>
<polygon fill="#63b8ff" stroke="#63b8ff" points="41,-209.75 44.5,-219.75 48,-209.75 41,-209.75"/>
</a>
</g>
</g>
<!-- Node23 -->
<g id="Node000023" class="node">
<title>Node23</title>
<g id="a_Node000023"><a xlink:href="crypto__inlines_8h_source.html" target="_top" xlink:title=" ">
<polygon fill="white" stroke="#666666" points="440.5,-184 346.5,-184 346.5,-165 440.5,-165 440.5,-184"/>
<text text-anchor="middle" x="393.5" y="-172" font-family="Helvetica,sans-Serif" font-size="10.00">crypto_inlines.h</text>
</a>
</g>
</g>
<!-- Node20&#45;&gt;Node23 -->
<g id="edge23_Node000020_Node000023" class="edge">
<title>Node20&#45;&gt;Node23</title>
<g id="a_edge23_Node000020_Node000023"><a xlink:title=" ">
<path fill="none" stroke="#63b8ff" d="M98.92,-219.79C192.27,-205.32 289.88,-190.79 346.31,-182.45"/>
<polygon fill="#63b8ff" stroke="#63b8ff" points="98.37,-216.33 89.03,-221.33 99.45,-223.25 98.37,-216.33"/>
</a>
</g>
</g>
<!-- Node22 -->
<g id="Node000022" class="node">
<title>Node22</title>
<g id="a_Node000022"><a xlink:href="crypto_8h.html" target="_top" xlink:title="ODP crypto.">
<polygon fill="white" stroke="#666666" points="72.5,-129 16.5,-129 16.5,-110 72.5,-110 72.5,-129"/>
<text text-anchor="middle" x="44.5" y="-117" font-family="Helvetica,sans-Serif" font-size="10.00">crypto.h</text>
</a>
</g>
</g>
<!-- Node21&#45;&gt;Node22 -->
<g id="edge22_Node000021_Node000022" class="edge">
<title>Node21&#45;&gt;Node22</title>
<g id="a_edge22_Node000021_Node000022"><a xlink:title=" ">
<path fill="none" stroke="#63b8ff" d="M44.5,-154.66C44.5,-145.93 44.5,-135.99 44.5,-129.09"/>
<polygon fill="#63b8ff" stroke="#63b8ff" points="41,-154.75 44.5,-164.75 48,-154.75 41,-154.75"/>
</a>
</g>
</g>
<!-- Node24&#45;&gt;Node1 -->
<g id="edge29_Node000024_Node000001" class="edge">
<title>Node24&#45;&gt;Node1</title>
<g id="a_edge29_Node000024_Node000001"><a xlink:title=" ">
<path fill="none" stroke="#63b8ff" d="M1410.69,-407.43C1321.86,-438.77 1083.47,-522.88 1006.69,-549.97"/>
<polygon fill="#63b8ff" stroke="#63b8ff" points="1412.01,-410.68 1420.27,-404.05 1409.68,-404.07 1412.01,-410.68"/>
</a>
</g>
</g>
<!-- Node26 -->
<g id="Node000026" class="node">
<title>Node26</title>
<g id="a_Node000026"><a xlink:href="event_8h.html" target="_top" xlink:title="ODP event.">
<polygon fill="white" stroke="#666666" points="615,-349 562,-349 562,-330 615,-330 615,-349"/>
<text text-anchor="middle" x="588.5" y="-337" font-family="Helvetica,sans-Serif" font-size="10.00">event.h</text>
</a>
</g>
</g>
<!-- Node25&#45;&gt;Node26 -->
<g id="edge31_Node000025_Node000026" class="edge">
<title>Node25&#45;&gt;Node26</title>
<g id="a_edge31_Node000025_Node000026"><a xlink:title=" ">
<path fill="none" stroke="#63b8ff" d="M588.5,-374.66C588.5,-365.93 588.5,-355.99 588.5,-349.09"/>
<polygon fill="#63b8ff" stroke="#63b8ff" points="585,-374.75 588.5,-384.75 592,-374.75 585,-374.75"/>
</a>
</g>
</g>
<!-- Node26&#45;&gt;Node9 -->
<g id="edge32_Node000026_Node000009" class="edge">
<title>Node26&#45;&gt;Node9</title>
<g id="a_edge32_Node000026_Node000009"><a xlink:title=" ">
<path fill="none" stroke="#63b8ff" d="M625.28,-335.62C703.37,-329.37 891.47,-313.5 1048.5,-294 1051.72,-293.6 1055.04,-293.16 1058.38,-292.7"/>
<polygon fill="#63b8ff" stroke="#63b8ff" points="624.69,-332.16 615,-336.44 625.25,-339.14 624.69,-332.16"/>
</a>
</g>
</g>
<!-- Node26&#45;&gt;Node16 -->
<g id="edge35_Node000026_Node000016" class="edge">
<title>Node26&#45;&gt;Node16</title>
<g id="a_edge35_Node000026_Node000016"><a xlink:title=" ">
<path fill="none" stroke="#63b8ff" d="M565.03,-323.9C554.36,-316.19 542.37,-305.86 534.5,-294 518.21,-269.46 515.5,-259.96 515.5,-230.5 515.5,-230.5 515.5,-230.5 515.5,-173.5 515.5,-133.63 488.23,-91.83 475.23,-74.18"/>
<polygon fill="#63b8ff" stroke="#63b8ff" points="563.35,-326.98 573.58,-329.74 567.3,-321.21 563.35,-326.98"/>
</a>
</g>
</g>
<!-- Node26&#45;&gt;Node23 -->
<g id="edge33_Node000026_Node000023" class="edge">
<title>Node26&#45;&gt;Node23</title>
<g id="a_edge33_Node000026_Node000023"><a xlink:title=" ">
<path fill="none" stroke="#63b8ff" d="M553.24,-325.94C536.16,-318.58 516.22,-307.95 501.5,-294 473.89,-267.83 484.38,-247.87 458.5,-220 444.35,-204.77 424.09,-191.94 409.96,-184.02"/>
<polygon fill="#63b8ff" stroke="#63b8ff" points="552.32,-329.35 562.9,-329.9 554.98,-322.87 552.32,-329.35"/>
</a>
</g>
</g>
<!-- Node26&#45;&gt;Node27 -->
<g id="edge34_Node000026_Node000027" class="edge">
<title>Node26&#45;&gt;Node27</title>
<g id="a_edge34_Node000026_Node000027"><a xlink:title=" ">
<path fill="none" stroke="#63b8ff" d="M618.15,-326.03C641.45,-316.23 673.3,-302.83 693.89,-294.17"/>
<polygon fill="#63b8ff" stroke="#63b8ff" points="616.6,-322.88 608.74,-329.98 619.32,-329.33 616.6,-322.88"/>
</a>
</g>
</g>
<!-- Node26&#45;&gt;Node28 -->
<g id="edge36_Node000026_Node000028" class="edge">
<title>Node26&#45;&gt;Node28</title>
<g id="a_edge36_Node000026_Node000028"><a xlink:title=" ">
<path fill="none" stroke="#63b8ff" d="M625.36,-330.84C672.38,-321.07 753.45,-304.22 802.41,-294.04"/>
<polygon fill="#63b8ff" stroke="#63b8ff" points="624.39,-327.47 615.31,-332.93 625.81,-334.32 624.39,-327.47"/>
</a>
</g>
</g>
<!-- Node26&#45;&gt;Node29 -->
<g id="edge37_Node000026_Node000029" class="edge">
<title>Node26&#45;&gt;Node29</title>
<g id="a_edge37_Node000026_Node000029"><a xlink:title=" ">
<path fill="none" stroke="#63b8ff" d="M624.97,-333.49C690.98,-324.43 830.97,-305.21 912.33,-294.04"/>
<polygon fill="#63b8ff" stroke="#63b8ff" points="624.46,-330.03 615.03,-334.86 625.41,-336.96 624.46,-330.03"/>
</a>
</g>
</g>
<!-- Node30 -->
<g id="Node000030" class="node">
<title>Node30</title>
<g id="a_Node000030"><a xlink:href="timer__inlines_8h_source.html" target="_top" xlink:title=" ">
<polygon fill="white" stroke="#666666" points="633,-294 544,-294 544,-275 633,-275 633,-294"/>
<text text-anchor="middle" x="588.5" y="-282" font-family="Helvetica,sans-Serif" font-size="10.00">timer_inlines.h</text>
</a>
</g>
</g>
<!-- Node26&#45;&gt;Node30 -->
<g id="edge38_Node000026_Node000030" class="edge">
<title>Node26&#45;&gt;Node30</title>
<g id="a_edge38_Node000026_Node000030"><a xlink:title=" ">
<path fill="none" stroke="#63b8ff" d="M588.5,-319.66C588.5,-310.93 588.5,-300.99 588.5,-294.09"/>
<polygon fill="#63b8ff" stroke="#63b8ff" points="585,-319.75 588.5,-329.75 592,-319.75 585,-319.75"/>
</a>
</g>
</g>
<!-- Node33 -->
<g id="Node000033" class="node">
<title>Node33</title>
<g id="a_Node000033"><a xlink:href="event__vector_8h.html" target="_top" xlink:title="ODP event vector.">
<polygon fill="white" stroke="#666666" points="984,-349 895,-349 895,-330 984,-330 984,-349"/>
<text text-anchor="middle" x="939.5" y="-337" font-family="Helvetica,sans-Serif" font-size="10.00">event_vector.h</text>
</a>
</g>
</g>
<!-- Node32&#45;&gt;Node33 -->
<g id="edge41_Node000032_Node000033" class="edge">
<title>Node32&#45;&gt;Node33</title>
<g id="a_edge41_Node000032_Node000033"><a xlink:title=" ">
<path fill="none" stroke="#63b8ff" d="M939.5,-374.66C939.5,-365.93 939.5,-355.99 939.5,-349.09"/>
<polygon fill="#63b8ff" stroke="#63b8ff" points="936,-374.75 939.5,-384.75 943,-374.75 936,-374.75"/>
</a>
</g>
</g>
<!-- Node35 -->
<g id="Node000035" class="node">
<title>Node35</title>
<g id="a_Node000035"><a xlink:href="ml_8h.html" target="_top" xlink:title="ODP Machine Learning (ML) offload.">
<polygon fill="white" stroke="#666666" points="1040.5,-349 1002.5,-349 1002.5,-330 1040.5,-330 1040.5,-349"/>
<text text-anchor="middle" x="1021.5" y="-337" font-family="Helvetica,sans-Serif" font-size="10.00">ml.h</text>
</a>
</g>
</g>
<!-- Node34&#45;&gt;Node35 -->
<g id="edge44_Node000034_Node000035" class="edge">
<title>Node34&#45;&gt;Node35</title>
<g id="a_edge44_Node000034_Node000035"><a xlink:title=" ">
<path fill="none" stroke="#63b8ff" d="M1021.5,-374.66C1021.5,-365.93 1021.5,-355.99 1021.5,-349.09"/>
<polygon fill="#63b8ff" stroke="#63b8ff" points="1018,-374.75 1021.5,-384.75 1025,-374.75 1018,-374.75"/>
</a>
</g>
</g>
<!-- Node37 -->
<g id="Node000037" class="node">
<title>Node37</title>
<g id="a_Node000037"><a xlink:href="packet_8h.html" target="_top" xlink:title="ODP packet descriptor.">
<polygon fill="white" stroke="#666666" points="449.5,-239 391.5,-239 391.5,-220 449.5,-220 449.5,-239"/>
<text text-anchor="middle" x="420.5" y="-227" font-family="Helvetica,sans-Serif" font-size="10.00">packet.h</text>
</a>
</g>
</g>
<!-- Node36&#45;&gt;Node37 -->
<g id="edge46_Node000036_Node000037" class="edge">
<title>Node36&#45;&gt;Node37</title>
<g id="a_edge46_Node000036_Node000037"><a xlink:title=" ">
<path fill="none" stroke="#63b8ff" d="M420.5,-264.66C420.5,-255.93 420.5,-245.99 420.5,-239.09"/>
<polygon fill="#63b8ff" stroke="#63b8ff" points="417,-264.75 420.5,-274.75 424,-264.75 417,-264.75"/>
</a>
</g>
</g>
<!-- Node37&#45;&gt;Node16 -->
<g id="edge48_Node000037_Node000016" class="edge">
<title>Node37&#45;&gt;Node16</title>
<g id="a_edge48_Node000037_Node000016"><a xlink:title=" ">
<path fill="none" stroke="#63b8ff" d="M433.76,-211.83C439.46,-203.84 445.69,-193.88 449.5,-184 464.58,-144.93 467.69,-94.16 468.33,-74.15"/>
<polygon fill="#63b8ff" stroke="#63b8ff" points="430.9,-209.81 427.69,-219.9 436.5,-214.01 430.9,-209.81"/>
</a>
</g>
</g>
<!-- Node37&#45;&gt;Node23 -->
<g id="edge47_Node000037_Node000023" class="edge">
<title>Node37&#45;&gt;Node23</title>
<g id="a_edge47_Node000037_Node000023"><a xlink:title=" ">
<path fill="none" stroke="#63b8ff" d="M411.49,-210.82C406.91,-201.82 401.55,-191.29 397.88,-184.09"/>
<polygon fill="#63b8ff" stroke="#63b8ff" points="408.38,-212.43 416.04,-219.75 414.62,-209.25 408.38,-212.43"/>
</a>
</g>
</g>
<!-- Node39 -->
<g id="Node000039" class="node">
<title>Node39</title>
<g id="a_Node000039"><a xlink:href="packet__io__types_8h.html" target="_top" xlink:title="ODP Packet IO.">
<polygon fill="white" stroke="#666666" points="426.5,-349 322.5,-349 322.5,-330 426.5,-330 426.5,-349"/>
<text text-anchor="middle" x="374.5" y="-337" font-family="Helvetica,sans-Serif" font-size="10.00">packet_io_types.h</text>
</a>
</g>
</g>
<!-- Node38&#45;&gt;Node39 -->
<g id="edge51_Node000038_Node000039" class="edge">
<title>Node38&#45;&gt;Node39</title>
<g id="a_edge51_Node000038_Node000039"><a xlink:title=" ">
<path fill="none" stroke="#63b8ff" d="M382.3,-374.95C380.31,-366.15 378.02,-356.06 376.44,-349.09"/>
<polygon fill="#63b8ff" stroke="#63b8ff" points="378.9,-375.77 384.52,-384.75 385.72,-374.22 378.9,-375.77"/>
</a>
</g>
</g>
<!-- Node39&#45;&gt;Node10 -->
<g id="edge52_Node000039_Node000010" class="edge">
<title>Node39&#45;&gt;Node10</title>
<g id="a_edge52_Node000039_Node000010"><a xlink:title=" ">
<path fill="none" stroke="#63b8ff" d="M328.75,-327.63C286.98,-317.7 226.05,-303.22 187.61,-294.08"/>
<polygon fill="#63b8ff" stroke="#63b8ff" points="328.13,-331.08 338.67,-329.98 329.75,-324.27 328.13,-331.08"/>
</a>
</g>
</g>
<!-- Node39&#45;&gt;Node12 -->
<g id="edge53_Node000039_Node000012" class="edge">
<title>Node39&#45;&gt;Node12</title>
<g id="a_edge53_Node000039_Node000012"><a xlink:title=" ">
<path fill="none" stroke="#63b8ff" d="M368.42,-320.07C359.03,-294.28 338.66,-247.54 306.5,-220 285.28,-201.83 255.85,-190.66 231.94,-184.05"/>
<polygon fill="#63b8ff" stroke="#63b8ff" points="365.18,-321.42 371.77,-329.71 371.8,-319.12 365.18,-321.42"/>
</a>
</g>
</g>
<!-- Node39&#45;&gt;Node17 -->
<g id="edge55_Node000039_Node000017" class="edge">
<title>Node39&#45;&gt;Node17</title>
<g id="a_edge55_Node000039_Node000017"><a xlink:title=" ">
<path fill="none" stroke="#63b8ff" d="M372.16,-319.71C368.42,-295.19 359.38,-251.69 339.5,-220 330.22,-205.2 314.68,-192.29 303.59,-184.24"/>
<polygon fill="#63b8ff" stroke="#63b8ff" points="368.72,-320.38 373.56,-329.81 375.65,-319.42 368.72,-320.38"/>
</a>
</g>
</g>
<!-- Node39&#45;&gt;Node36 -->
<g id="edge54_Node000039_Node000036" class="edge">
<title>Node39&#45;&gt;Node36</title>
<g id="a_edge54_Node000039_Node000036"><a xlink:title=" ">
<path fill="none" stroke="#63b8ff" d="M388.86,-321.96C396.87,-312.72 406.53,-301.6 413.05,-294.09"/>
<polygon fill="#63b8ff" stroke="#63b8ff" points="386.01,-319.9 382.1,-329.75 391.29,-324.49 386.01,-319.9"/>
</a>
</g>
</g>
<!-- Node40 -->
<g id="Node000040" class="node">
<title>Node40</title>
<g id="a_Node000040"><a xlink:href="spec_2traffic__mngr_8h.html" target="_top" xlink:title=" ">
<polygon fill="white" stroke="#666666" points="297.5,-294 213.5,-294 213.5,-275 297.5,-275 297.5,-294"/>
<text text-anchor="middle" x="255.5" y="-282" font-family="Helvetica,sans-Serif" font-size="10.00">traffic_mngr.h</text>
</a>
</g>
</g>
<!-- Node39&#45;&gt;Node40 -->
<g id="edge56_Node000039_Node000040" class="edge">
<title>Node39&#45;&gt;Node40</title>
<g id="a_edge56_Node000039_Node000040"><a xlink:title=" ">
<path fill="none" stroke="#63b8ff" d="M346.2,-325.9C324.22,-316.11 294.32,-302.79 274.97,-294.17"/>
<polygon fill="#63b8ff" stroke="#63b8ff" points="344.82,-329.11 355.38,-329.98 347.67,-322.72 344.82,-329.11"/>
</a>
</g>
</g>
<!-- Node41 -->
<g id="Node000041" class="node">
<title>Node41</title>
<g id="a_Node000041"><a xlink:href="traffic__mngr_8h.html" target="_top" xlink:title="ODP Traffic manager.">
<polygon fill="white" stroke="#666666" points="297.5,-239 213.5,-239 213.5,-220 297.5,-220 297.5,-239"/>
<text text-anchor="middle" x="255.5" y="-227" font-family="Helvetica,sans-Serif" font-size="10.00">traffic_mngr.h</text>
</a>
</g>
</g>
<!-- Node40&#45;&gt;Node41 -->
<g id="edge57_Node000040_Node000041" class="edge">
<title>Node40&#45;&gt;Node41</title>
<g id="a_edge57_Node000040_Node000041"><a xlink:title=" ">
<path fill="none" stroke="#63b8ff" d="M255.5,-264.66C255.5,-255.93 255.5,-245.99 255.5,-239.09"/>
<polygon fill="#63b8ff" stroke="#63b8ff" points="252,-264.75 255.5,-274.75 259,-264.75 252,-264.75"/>
</a>
</g>
</g>
<!-- Node41&#45;&gt;Node12 -->
<g id="edge58_Node000041_Node000012" class="edge">
<title>Node41&#45;&gt;Node12</title>
<g id="a_edge58_Node000041_Node000012"><a xlink:title=" ">
<path fill="none" stroke="#63b8ff" d="M237.23,-213.6C225.58,-204.11 210.9,-192.13 201.13,-184.17"/>
<polygon fill="#63b8ff" stroke="#63b8ff" points="235.09,-216.38 245.06,-219.98 239.52,-210.95 235.09,-216.38"/>
</a>
</g>
</g>
<!-- Node43 -->
<g id="Node000043" class="node">
<title>Node43</title>
<g id="a_Node000043"><a xlink:href="pool_8h.html" target="_top" xlink:title="ODP pool.">
<polygon fill="white" stroke="#666666" points="1106,-349 1059,-349 1059,-330 1106,-330 1106,-349"/>
<text text-anchor="middle" x="1082.5" y="-337" font-family="Helvetica,sans-Serif" font-size="10.00">pool.h</text>
</a>
</g>
</g>
<!-- Node42&#45;&gt;Node43 -->
<g id="edge61_Node000042_Node000043" class="edge">
<title>Node42&#45;&gt;Node43</title>
<g id="a_edge61_Node000042_Node000043"><a xlink:title=" ">
<path fill="none" stroke="#63b8ff" d="M1082.5,-374.66C1082.5,-365.93 1082.5,-355.99 1082.5,-349.09"/>
<polygon fill="#63b8ff" stroke="#63b8ff" points="1079,-374.75 1082.5,-384.75 1086,-374.75 1079,-374.75"/>
</a>
</g>
</g>
<!-- Node46 -->
<g id="Node000046" class="node">
<title>Node46</title>
<g id="a_Node000046"><a xlink:href="timer_8h.html" target="_top" xlink:title="ODP timer service.">
<polygon fill="white" stroke="#666666" points="1277,-349 1226,-349 1226,-330 1277,-330 1277,-349"/>
<text text-anchor="middle" x="1251.5" y="-337" font-family="Helvetica,sans-Serif" font-size="10.00">timer.h</text>
</a>
</g>
</g>
<!-- Node45&#45;&gt;Node46 -->
<g id="edge64_Node000045_Node000046" class="edge">
<title>Node45&#45;&gt;Node46</title>
<g id="a_edge64_Node000045_Node000046"><a xlink:title=" ">
<path fill="none" stroke="#63b8ff" d="M1251.5,-374.66C1251.5,-365.93 1251.5,-355.99 1251.5,-349.09"/>
<polygon fill="#63b8ff" stroke="#63b8ff" points="1248,-374.75 1251.5,-384.75 1255,-374.75 1248,-374.75"/>
</a>
</g>
</g>
</g>
</svg>
