<?xml version="1.0" encoding="UTF-8" standalone="no"?>
<!DOCTYPE svg PUBLIC "-//W3C//DTD SVG 1.1//EN"
 "http://www.w3.org/Graphics/SVG/1.1/DTD/svg11.dtd">
<!-- Generated by graphviz version 2.43.0 (0)
 -->
<!-- Title: dma_types.h Pages: 1 -->
<svg width="1206pt" height="588pt"
 viewBox="0.00 0.00 1205.50 588.00" xmlns="http://www.w3.org/2000/svg" xmlns:xlink="http://www.w3.org/1999/xlink">
<g id="graph0" class="graph" transform="scale(1 1) rotate(0) translate(4 584)">
<title>dma_types.h</title>
<polygon fill="white" stroke="transparent" points="-4,4 -4,-584 1201.5,-584 1201.5,4 -4,4"/>
<!-- Node1 -->
<g id="node1" class="node">
<title>Node1</title>
<g id="a_node1"><a xlink:title="ODP DMA.">
<polygon fill="#bfbfbf" stroke="black" points="588.5,-560.5 588.5,-579.5 668.5,-579.5 668.5,-560.5 588.5,-560.5"/>
<text text-anchor="middle" x="628.5" y="-567.5" font-family="Helvetica,sans-Serif" font-size="10.00">dma_types.h</text>
</a>
</g>
</g>
<!-- Node2 -->
<g id="node2" class="node">
<title>Node2</title>
<g id="a_node2"><a xlink:href="spec_2dma_8h.html" target="_top" xlink:title="ODP DMA.">
<polygon fill="white" stroke="black" points="176,-392.5 176,-411.5 223,-411.5 223,-392.5 176,-392.5"/>
<text text-anchor="middle" x="199.5" y="-399.5" font-family="Helvetica,sans-Serif" font-size="10.00">dma.h</text>
</a>
</g>
</g>
<!-- Node1&#45;&gt;Node2 -->
<g id="edge1" class="edge">
<title>Node1&#45;&gt;Node2</title>
<path fill="none" stroke="midnightblue" d="M596.95,-556.79C514.19,-524.77 292.32,-438.92 221.53,-411.52"/>
<polygon fill="midnightblue" stroke="midnightblue" points="595.75,-560.08 606.34,-560.42 598.28,-553.55 595.75,-560.08"/>
</g>
<!-- Node4 -->
<g id="node4" class="node">
<title>Node4</title>
<g id="a_node4"><a xlink:href="spec_2pool__types_8h.html" target="_top" xlink:title="Type definitions for pools.">
<polygon fill="white" stroke="black" points="589,-504.5 589,-523.5 668,-523.5 668,-504.5 589,-504.5"/>
<text text-anchor="middle" x="628.5" y="-511.5" font-family="Helvetica,sans-Serif" font-size="10.00">pool_types.h</text>
</a>
</g>
</g>
<!-- Node1&#45;&gt;Node4 -->
<g id="edge3" class="edge">
<title>Node1&#45;&gt;Node4</title>
<path fill="none" stroke="midnightblue" d="M628.5,-549.8C628.5,-540.91 628.5,-530.78 628.5,-523.75"/>
<polygon fill="midnightblue" stroke="midnightblue" points="625,-550.08 628.5,-560.08 632,-550.08 625,-550.08"/>
</g>
<!-- Node8 -->
<g id="node8" class="node">
<title>Node8</title>
<g id="a_node8"><a xlink:href="dma__inlines_8h_source.html" target="_top" xlink:title=" ">
<polygon fill="white" stroke="black" points="1100,-280.5 1100,-299.5 1185,-299.5 1185,-280.5 1100,-280.5"/>
<text text-anchor="middle" x="1142.5" y="-287.5" font-family="Helvetica,sans-Serif" font-size="10.00">dma_inlines.h</text>
</a>
</g>
</g>
<!-- Node1&#45;&gt;Node8 -->
<g id="edge58" class="edge">
<title>Node1&#45;&gt;Node8</title>
<path fill="none" stroke="midnightblue" d="M678.89,-569.87C818.06,-570.93 1197.5,-564.17 1197.5,-459 1197.5,-459 1197.5,-459 1197.5,-401 1197.5,-370.77 1191.45,-362.81 1177.5,-336 1170.28,-322.13 1158.64,-308.24 1150.79,-299.64"/>
<polygon fill="midnightblue" stroke="midnightblue" points="678.54,-566.37 668.51,-569.77 678.48,-573.37 678.54,-566.37"/>
</g>
<!-- Node3 -->
<g id="node3" class="node">
<title>Node3</title>
<g id="a_node3"><a xlink:href="dma_8h.html" target="_top" xlink:title="ODP DMA.">
<polygon fill="white" stroke="black" points="107,-336.5 107,-355.5 154,-355.5 154,-336.5 107,-336.5"/>
<text text-anchor="middle" x="130.5" y="-343.5" font-family="Helvetica,sans-Serif" font-size="10.00">dma.h</text>
</a>
</g>
</g>
<!-- Node2&#45;&gt;Node3 -->
<g id="edge2" class="edge">
<title>Node2&#45;&gt;Node3</title>
<path fill="none" stroke="midnightblue" d="M180.46,-386.1C168.04,-376.38 152.26,-364.03 141.79,-355.83"/>
<polygon fill="midnightblue" stroke="midnightblue" points="178.38,-388.92 188.41,-392.32 182.7,-383.4 178.38,-388.92"/>
</g>
<!-- Node5 -->
<g id="node5" class="node">
<title>Node5</title>
<g id="a_node5"><a xlink:href="pool__types_8h.html" target="_top" xlink:title="ODP pool.">
<polygon fill="white" stroke="black" points="589,-448.5 589,-467.5 668,-467.5 668,-448.5 589,-448.5"/>
<text text-anchor="middle" x="628.5" y="-455.5" font-family="Helvetica,sans-Serif" font-size="10.00">pool_types.h</text>
</a>
</g>
</g>
<!-- Node4&#45;&gt;Node5 -->
<g id="edge4" class="edge">
<title>Node4&#45;&gt;Node5</title>
<path fill="none" stroke="midnightblue" d="M628.5,-493.8C628.5,-484.91 628.5,-474.78 628.5,-467.75"/>
<polygon fill="midnightblue" stroke="midnightblue" points="625,-494.08 628.5,-504.08 632,-494.08 625,-494.08"/>
</g>
<!-- Node5&#45;&gt;Node2 -->
<g id="edge24" class="edge">
<title>Node5&#45;&gt;Node2</title>
<path fill="none" stroke="midnightblue" d="M578.84,-453.17C504.32,-447.01 359.31,-433.36 237.5,-412 232.83,-411.18 227.87,-410.14 223.13,-409.05"/>
<polygon fill="midnightblue" stroke="midnightblue" points="578.62,-456.67 588.87,-453.99 579.19,-449.69 578.62,-456.67"/>
</g>
<!-- Node6 -->
<g id="node6" class="node">
<title>Node6</title>
<g id="a_node6"><a xlink:href="spec_2buffer_8h.html" target="_top" xlink:title="ODP buffer.">
<polygon fill="white" stroke="black" points="1116,-392.5 1116,-411.5 1169,-411.5 1169,-392.5 1116,-392.5"/>
<text text-anchor="middle" x="1142.5" y="-399.5" font-family="Helvetica,sans-Serif" font-size="10.00">buffer.h</text>
</a>
</g>
</g>
<!-- Node5&#45;&gt;Node6 -->
<g id="edge5" class="edge">
<title>Node5&#45;&gt;Node6</title>
<path fill="none" stroke="midnightblue" d="M678.32,-454.25C764.81,-449.04 948.21,-436.03 1101.5,-412 1106.11,-411.28 1110.97,-410.35 1115.68,-409.38"/>
<polygon fill="midnightblue" stroke="midnightblue" points="678.03,-450.76 668.26,-454.85 678.45,-457.75 678.03,-450.76"/>
</g>
<!-- Node5&#45;&gt;Node8 -->
<g id="edge53" class="edge">
<title>Node5&#45;&gt;Node8</title>
<path fill="none" stroke="midnightblue" d="M678.32,-457.78C779.85,-458.45 1006.35,-454.93 1068.5,-412 1099.57,-390.54 1086.15,-367.81 1106.5,-336 1115.13,-322.52 1127.03,-308.31 1134.75,-299.55"/>
<polygon fill="midnightblue" stroke="midnightblue" points="678.34,-454.28 668.31,-457.7 678.29,-461.28 678.34,-454.28"/>
</g>
<!-- Node9 -->
<g id="node9" class="node">
<title>Node9</title>
<g id="a_node9"><a xlink:href="spec_2classification_8h.html" target="_top" xlink:title="ODP classification descriptor.">
<polygon fill="white" stroke="black" points="107,-280.5 107,-299.5 196,-299.5 196,-280.5 107,-280.5"/>
<text text-anchor="middle" x="151.5" y="-287.5" font-family="Helvetica,sans-Serif" font-size="10.00">classification.h</text>
</a>
</g>
</g>
<!-- Node5&#45;&gt;Node9 -->
<g id="edge8" class="edge">
<title>Node5&#45;&gt;Node9</title>
<path fill="none" stroke="midnightblue" d="M578.77,-455.2C500.93,-451.52 354.83,-440.88 312.5,-412 280.44,-390.13 298.93,-361.3 269.5,-336 247.97,-317.49 218.03,-306.19 193.69,-299.55"/>
<polygon fill="midnightblue" stroke="midnightblue" points="578.67,-458.7 588.82,-455.65 578.99,-451.71 578.67,-458.7"/>
</g>
<!-- Node18 -->
<g id="node18" class="node">
<title>Node18</title>
<g id="a_node18"><a xlink:href="spec_2crypto__types_8h.html" target="_top" xlink:title="ODP crypto types.">
<polygon fill="white" stroke="black" points="172,-336.5 172,-355.5 261,-355.5 261,-336.5 172,-336.5"/>
<text text-anchor="middle" x="216.5" y="-343.5" font-family="Helvetica,sans-Serif" font-size="10.00">crypto_types.h</text>
</a>
</g>
</g>
<!-- Node5&#45;&gt;Node18 -->
<g id="edge17" class="edge">
<title>Node5&#45;&gt;Node18</title>
<path fill="none" stroke="midnightblue" d="M578.77,-454.88C494.36,-450.6 327.18,-438.92 275.5,-412 250.09,-398.76 230.18,-369.91 221.4,-355.52"/>
<polygon fill="midnightblue" stroke="midnightblue" points="578.72,-458.39 588.88,-455.38 579.07,-451.39 578.72,-458.39"/>
</g>
<!-- Node23 -->
<g id="node23" class="node">
<title>Node23</title>
<g id="a_node23"><a xlink:href="spec_2event_8h.html" target="_top" xlink:title="ODP event.">
<polygon fill="white" stroke="black" points="490,-392.5 490,-411.5 543,-411.5 543,-392.5 490,-392.5"/>
<text text-anchor="middle" x="516.5" y="-399.5" font-family="Helvetica,sans-Serif" font-size="10.00">event.h</text>
</a>
</g>
</g>
<!-- Node5&#45;&gt;Node23 -->
<g id="edge25" class="edge">
<title>Node5&#45;&gt;Node23</title>
<path fill="none" stroke="midnightblue" d="M601.25,-443.86C580.48,-433.85 552.48,-420.35 534.45,-411.65"/>
<polygon fill="midnightblue" stroke="midnightblue" points="599.98,-447.13 610.51,-448.32 603.02,-440.83 599.98,-447.13"/>
</g>
<!-- Node25 -->
<g id="node25" class="node">
<title>Node25</title>
<g id="a_node25"><a xlink:href="buffer__inlines_8h_source.html" target="_top" xlink:title=" ">
<polygon fill="white" stroke="black" points="652.5,-280.5 652.5,-299.5 744.5,-299.5 744.5,-280.5 652.5,-280.5"/>
<text text-anchor="middle" x="698.5" y="-287.5" font-family="Helvetica,sans-Serif" font-size="10.00">buffer_inlines.h</text>
</a>
</g>
</g>
<!-- Node5&#45;&gt;Node25 -->
<g id="edge52" class="edge">
<title>Node5&#45;&gt;Node25</title>
<path fill="none" stroke="midnightblue" d="M612.79,-440.88C606.07,-432.88 598.99,-422.66 595.5,-412 584.99,-379.9 577,-364.26 595.5,-336 608.16,-316.65 631.17,-305.57 652.24,-299.25"/>
<polygon fill="midnightblue" stroke="midnightblue" points="610.2,-443.24 619.48,-448.34 615.4,-438.56 610.2,-443.24"/>
</g>
<!-- Node26 -->
<g id="node26" class="node">
<title>Node26</title>
<g id="a_node26"><a xlink:href="packet__inlines_8h.html" target="_top" xlink:title="Packet inline functions.">
<polygon fill="white" stroke="black" points="763,-280.5 763,-299.5 858,-299.5 858,-280.5 763,-280.5"/>
<text text-anchor="middle" x="810.5" y="-287.5" font-family="Helvetica,sans-Serif" font-size="10.00">packet_inlines.h</text>
</a>
</g>
</g>
<!-- Node5&#45;&gt;Node26 -->
<g id="edge55" class="edge">
<title>Node5&#45;&gt;Node26</title>
<path fill="none" stroke="midnightblue" d="M623.1,-438.49C616.76,-412.51 609.85,-365.16 633.5,-336 641.91,-325.63 715.93,-309.41 765.55,-299.54"/>
<polygon fill="midnightblue" stroke="midnightblue" points="619.81,-439.74 625.78,-448.49 626.58,-437.93 619.81,-439.74"/>
</g>
<!-- Node27 -->
<g id="node27" class="node">
<title>Node27</title>
<g id="a_node27"><a xlink:href="packet__vector__inlines_8h.html" target="_top" xlink:title="Packet vector inline functions.">
<polygon fill="white" stroke="black" points="876,-280.5 876,-299.5 1007,-299.5 1007,-280.5 876,-280.5"/>
<text text-anchor="middle" x="941.5" y="-287.5" font-family="Helvetica,sans-Serif" font-size="10.00">packet_vector_inlines.h</text>
</a>
</g>
</g>
<!-- Node5&#45;&gt;Node27 -->
<g id="edge56" class="edge">
<title>Node5&#45;&gt;Node27</title>
<path fill="none" stroke="midnightblue" d="M631.9,-438.32C637.83,-407.85 650.94,-349.49 666.5,-336 674.51,-329.06 800.43,-310.53 879.07,-299.54"/>
<polygon fill="midnightblue" stroke="midnightblue" points="628.46,-437.68 630.05,-448.15 635.34,-438.97 628.46,-437.68"/>
</g>
<!-- Node29 -->
<g id="node29" class="node">
<title>Node29</title>
<g id="a_node29"><a xlink:href="spec_2ml_8h.html" target="_top" xlink:title="ODP Machine Learning (ML) offload.">
<polygon fill="white" stroke="black" points="675.5,-392.5 675.5,-411.5 713.5,-411.5 713.5,-392.5 675.5,-392.5"/>
<text text-anchor="middle" x="694.5" y="-399.5" font-family="Helvetica,sans-Serif" font-size="10.00">ml.h</text>
</a>
</g>
</g>
<!-- Node5&#45;&gt;Node29 -->
<g id="edge33" class="edge">
<title>Node5&#45;&gt;Node29</title>
<path fill="none" stroke="midnightblue" d="M647.05,-441.82C658.88,-432.15 673.79,-419.95 683.7,-411.83"/>
<polygon fill="midnightblue" stroke="midnightblue" points="644.63,-439.28 639.1,-448.32 649.06,-444.7 644.63,-439.28"/>
</g>
<!-- Node31 -->
<g id="node31" class="node">
<title>Node31</title>
<g id="a_node31"><a xlink:href="spec_2packet_8h.html" target="_top" xlink:title="ODP packet descriptor.">
<polygon fill="white" stroke="black" points="392.5,-280.5 392.5,-299.5 450.5,-299.5 450.5,-280.5 392.5,-280.5"/>
<text text-anchor="middle" x="421.5" y="-287.5" font-family="Helvetica,sans-Serif" font-size="10.00">packet.h</text>
</a>
</g>
</g>
<!-- Node5&#45;&gt;Node31 -->
<g id="edge35" class="edge">
<title>Node5&#45;&gt;Node31</title>
<path fill="none" stroke="midnightblue" d="M578.58,-452.03C547.33,-446.64 507.95,-435.41 480.5,-412 444.05,-380.91 428.14,-322.02 423.25,-299.79"/>
<polygon fill="midnightblue" stroke="midnightblue" points="578.41,-455.55 588.83,-453.64 579.5,-448.63 578.41,-455.55"/>
</g>
<!-- Node33 -->
<g id="node33" class="node">
<title>Node33</title>
<g id="a_node33"><a xlink:href="spec_2packet__io__types_8h.html" target="_top" xlink:title="ODP Packet IO types.">
<polygon fill="white" stroke="black" points="321.5,-392.5 321.5,-411.5 425.5,-411.5 425.5,-392.5 321.5,-392.5"/>
<text text-anchor="middle" x="373.5" y="-399.5" font-family="Helvetica,sans-Serif" font-size="10.00">packet_io_types.h</text>
</a>
</g>
</g>
<!-- Node5&#45;&gt;Node33 -->
<g id="edge39" class="edge">
<title>Node5&#45;&gt;Node33</title>
<path fill="none" stroke="midnightblue" d="M579.06,-446.53C530.97,-436.35 458.79,-421.06 414,-411.58"/>
<polygon fill="midnightblue" stroke="midnightblue" points="578.43,-449.97 588.94,-448.62 579.88,-443.13 578.43,-449.97"/>
</g>
<!-- Node37 -->
<g id="node37" class="node">
<title>Node37</title>
<g id="a_node37"><a xlink:href="spec_2pool_8h.html" target="_top" xlink:title="ODP pool.">
<polygon fill="white" stroke="black" points="732,-392.5 732,-411.5 779,-411.5 779,-392.5 732,-392.5"/>
<text text-anchor="middle" x="755.5" y="-399.5" font-family="Helvetica,sans-Serif" font-size="10.00">pool.h</text>
</a>
</g>
</g>
<!-- Node5&#45;&gt;Node37 -->
<g id="edge48" class="edge">
<title>Node5&#45;&gt;Node37</title>
<path fill="none" stroke="midnightblue" d="M657.89,-444.5C681.7,-434.38 714.61,-420.39 735.47,-411.52"/>
<polygon fill="midnightblue" stroke="midnightblue" points="656.46,-441.31 648.62,-448.44 659.2,-447.75 656.46,-441.31"/>
</g>
<!-- Node39 -->
<g id="node39" class="node">
<title>Node39</title>
<g id="a_node39"><a xlink:href="spec_2timer_8h.html" target="_top" xlink:title="ODP timer service.">
<polygon fill="white" stroke="black" points="797,-392.5 797,-411.5 848,-411.5 848,-392.5 797,-392.5"/>
<text text-anchor="middle" x="822.5" y="-399.5" font-family="Helvetica,sans-Serif" font-size="10.00">timer.h</text>
</a>
</g>
</g>
<!-- Node5&#45;&gt;Node39 -->
<g id="edge50" class="edge">
<title>Node5&#45;&gt;Node39</title>
<path fill="none" stroke="midnightblue" d="M669.1,-445.7C707.6,-434.98 764.26,-419.21 796.86,-410.14"/>
<polygon fill="midnightblue" stroke="midnightblue" points="667.94,-442.39 659.24,-448.44 669.81,-449.13 667.94,-442.39"/>
</g>
<!-- Node41 -->
<g id="node41" class="node">
<title>Node41</title>
<g id="a_node41"><a xlink:href="event__inlines_8h_source.html" target="_top" xlink:title=" ">
<polygon fill="white" stroke="black" points="866,-392.5 866,-411.5 957,-411.5 957,-392.5 866,-392.5"/>
<text text-anchor="middle" x="911.5" y="-399.5" font-family="Helvetica,sans-Serif" font-size="10.00">event_inlines.h</text>
</a>
</g>
</g>
<!-- Node5&#45;&gt;Node41 -->
<g id="edge54" class="edge">
<title>Node5&#45;&gt;Node41</title>
<path fill="none" stroke="midnightblue" d="M678.04,-447.55C731.27,-437.39 815.12,-421.39 866.52,-411.58"/>
<polygon fill="midnightblue" stroke="midnightblue" points="677.31,-444.12 668.15,-449.43 678.63,-451 677.31,-444.12"/>
</g>
<!-- Node42 -->
<g id="node42" class="node">
<title>Node42</title>
<g id="a_node42"><a xlink:href="pool__inlines_8h_source.html" target="_top" xlink:title=" ">
<polygon fill="white" stroke="black" points="975.5,-392.5 975.5,-411.5 1059.5,-411.5 1059.5,-392.5 975.5,-392.5"/>
<text text-anchor="middle" x="1017.5" y="-399.5" font-family="Helvetica,sans-Serif" font-size="10.00">pool_inlines.h</text>
</a>
</g>
</g>
<!-- Node5&#45;&gt;Node42 -->
<g id="edge57" class="edge">
<title>Node5&#45;&gt;Node42</title>
<path fill="none" stroke="midnightblue" d="M678.09,-450.99C743.88,-442.87 863.6,-427.62 965.5,-412 968.67,-411.51 971.94,-410.99 975.24,-410.46"/>
<polygon fill="midnightblue" stroke="midnightblue" points="677.5,-447.53 668,-452.23 678.35,-454.48 677.5,-447.53"/>
</g>
<!-- Node7 -->
<g id="node7" class="node">
<title>Node7</title>
<g id="a_node7"><a xlink:href="buffer_8h.html" target="_top" xlink:title="ODP buffer descriptor.">
<polygon fill="white" stroke="black" points="1116,-336.5 1116,-355.5 1169,-355.5 1169,-336.5 1116,-336.5"/>
<text text-anchor="middle" x="1142.5" y="-343.5" font-family="Helvetica,sans-Serif" font-size="10.00">buffer.h</text>
</a>
</g>
</g>
<!-- Node6&#45;&gt;Node7 -->
<g id="edge6" class="edge">
<title>Node6&#45;&gt;Node7</title>
<path fill="none" stroke="midnightblue" d="M1142.5,-381.8C1142.5,-372.91 1142.5,-362.78 1142.5,-355.75"/>
<polygon fill="midnightblue" stroke="midnightblue" points="1139,-382.08 1142.5,-392.08 1146,-382.08 1139,-382.08"/>
</g>
<!-- Node7&#45;&gt;Node8 -->
<g id="edge7" class="edge">
<title>Node7&#45;&gt;Node8</title>
<path fill="none" stroke="midnightblue" d="M1142.5,-325.8C1142.5,-316.91 1142.5,-306.78 1142.5,-299.75"/>
<polygon fill="midnightblue" stroke="midnightblue" points="1139,-326.08 1142.5,-336.08 1146,-326.08 1139,-326.08"/>
</g>
<!-- Node10 -->
<g id="node10" class="node">
<title>Node10</title>
<g id="a_node10"><a xlink:href="classification_8h.html" target="_top" xlink:title="ODP classification descriptor.">
<polygon fill="white" stroke="black" points="107,-224.5 107,-243.5 196,-243.5 196,-224.5 107,-224.5"/>
<text text-anchor="middle" x="151.5" y="-231.5" font-family="Helvetica,sans-Serif" font-size="10.00">classification.h</text>
</a>
</g>
</g>
<!-- Node9&#45;&gt;Node10 -->
<g id="edge9" class="edge">
<title>Node9&#45;&gt;Node10</title>
<path fill="none" stroke="midnightblue" d="M151.5,-269.8C151.5,-260.91 151.5,-250.78 151.5,-243.75"/>
<polygon fill="midnightblue" stroke="midnightblue" points="148,-270.08 151.5,-280.08 155,-270.08 148,-270.08"/>
</g>
<!-- Node11 -->
<g id="node11" class="node">
<title>Node11</title>
<g id="a_node11"><a xlink:href="spec_2ipsec__types_8h.html" target="_top" xlink:title="ODP IPsec API type definitions.">
<polygon fill="white" stroke="black" points="156,-168.5 156,-187.5 239,-187.5 239,-168.5 156,-168.5"/>
<text text-anchor="middle" x="197.5" y="-175.5" font-family="Helvetica,sans-Serif" font-size="10.00">ipsec_types.h</text>
</a>
</g>
</g>
<!-- Node10&#45;&gt;Node11 -->
<g id="edge10" class="edge">
<title>Node10&#45;&gt;Node11</title>
<path fill="none" stroke="midnightblue" d="M165.61,-216.43C173.68,-206.97 183.46,-195.48 190.05,-187.75"/>
<polygon fill="midnightblue" stroke="midnightblue" points="162.92,-214.2 159.1,-224.08 168.25,-218.74 162.92,-214.2"/>
</g>
<!-- Node16 -->
<g id="node16" class="node">
<title>Node16</title>
<g id="a_node16"><a xlink:href="spec_2packet__io_8h.html" target="_top" xlink:title="ODP Packet IO.">
<polygon fill="white" stroke="black" points="261.5,-168.5 261.5,-187.5 333.5,-187.5 333.5,-168.5 261.5,-168.5"/>
<text text-anchor="middle" x="297.5" y="-175.5" font-family="Helvetica,sans-Serif" font-size="10.00">packet_io.h</text>
</a>
</g>
</g>
<!-- Node10&#45;&gt;Node16 -->
<g id="edge15" class="edge">
<title>Node10&#45;&gt;Node16</title>
<path fill="none" stroke="midnightblue" d="M184.2,-220.91C211.65,-210.75 250.17,-196.51 274.47,-187.52"/>
<polygon fill="midnightblue" stroke="midnightblue" points="182.8,-217.69 174.63,-224.44 185.23,-224.26 182.8,-217.69"/>
</g>
<!-- Node12 -->
<g id="node12" class="node">
<title>Node12</title>
<g id="a_node12"><a xlink:href="ipsec__types_8h.html" target="_top" xlink:title="ODP IPsec.">
<polygon fill="white" stroke="black" points="156,-112.5 156,-131.5 239,-131.5 239,-112.5 156,-112.5"/>
<text text-anchor="middle" x="197.5" y="-119.5" font-family="Helvetica,sans-Serif" font-size="10.00">ipsec_types.h</text>
</a>
</g>
</g>
<!-- Node11&#45;&gt;Node12 -->
<g id="edge11" class="edge">
<title>Node11&#45;&gt;Node12</title>
<path fill="none" stroke="midnightblue" d="M197.5,-157.8C197.5,-148.91 197.5,-138.78 197.5,-131.75"/>
<polygon fill="midnightblue" stroke="midnightblue" points="194,-158.08 197.5,-168.08 201,-158.08 194,-158.08"/>
</g>
<!-- Node13 -->
<g id="node13" class="node">
<title>Node13</title>
<g id="a_node13"><a xlink:href="spec_2ipsec_8h.html" target="_top" xlink:title="ODP IPsec API.">
<polygon fill="white" stroke="black" points="96,-56.5 96,-75.5 147,-75.5 147,-56.5 96,-56.5"/>
<text text-anchor="middle" x="121.5" y="-63.5" font-family="Helvetica,sans-Serif" font-size="10.00">ipsec.h</text>
</a>
</g>
</g>
<!-- Node12&#45;&gt;Node13 -->
<g id="edge12" class="edge">
<title>Node12&#45;&gt;Node13</title>
<path fill="none" stroke="midnightblue" d="M176.92,-106.38C163.19,-96.62 145.57,-84.11 133.93,-75.83"/>
<polygon fill="midnightblue" stroke="midnightblue" points="175.11,-109.38 185.29,-112.32 179.16,-103.68 175.11,-109.38"/>
</g>
<!-- Node15 -->
<g id="node15" class="node">
<title>Node15</title>
<g id="a_node15"><a xlink:href="ipsec__inlines_8h_source.html" target="_top" xlink:title=" ">
<polygon fill="white" stroke="black" points="431,-56.5 431,-75.5 520,-75.5 520,-56.5 431,-56.5"/>
<text text-anchor="middle" x="475.5" y="-63.5" font-family="Helvetica,sans-Serif" font-size="10.00">ipsec_inlines.h</text>
</a>
</g>
</g>
<!-- Node12&#45;&gt;Node15 -->
<g id="edge14" class="edge">
<title>Node12&#45;&gt;Node15</title>
<path fill="none" stroke="midnightblue" d="M249.21,-110.96C301.6,-100.78 381.78,-85.21 431.3,-75.59"/>
<polygon fill="midnightblue" stroke="midnightblue" points="248.27,-107.57 239.12,-112.92 249.6,-114.44 248.27,-107.57"/>
</g>
<!-- Node14 -->
<g id="node14" class="node">
<title>Node14</title>
<g id="a_node14"><a xlink:href="ipsec_8h.html" target="_top" xlink:title="ODP IPSEC API &#45; platform specific header.">
<polygon fill="white" stroke="black" points="96,-0.5 96,-19.5 147,-19.5 147,-0.5 96,-0.5"/>
<text text-anchor="middle" x="121.5" y="-7.5" font-family="Helvetica,sans-Serif" font-size="10.00">ipsec.h</text>
</a>
</g>
</g>
<!-- Node13&#45;&gt;Node14 -->
<g id="edge13" class="edge">
<title>Node13&#45;&gt;Node14</title>
<path fill="none" stroke="midnightblue" d="M121.5,-45.8C121.5,-36.91 121.5,-26.78 121.5,-19.75"/>
<polygon fill="midnightblue" stroke="midnightblue" points="118,-46.08 121.5,-56.08 125,-46.08 118,-46.08"/>
</g>
<!-- Node17 -->
<g id="node17" class="node">
<title>Node17</title>
<g id="a_node17"><a xlink:href="packet__io_8h.html" target="_top" xlink:title="ODP Packet IO.">
<polygon fill="white" stroke="black" points="261.5,-112.5 261.5,-131.5 333.5,-131.5 333.5,-112.5 261.5,-112.5"/>
<text text-anchor="middle" x="297.5" y="-119.5" font-family="Helvetica,sans-Serif" font-size="10.00">packet_io.h</text>
</a>
</g>
</g>
<!-- Node16&#45;&gt;Node17 -->
<g id="edge16" class="edge">
<title>Node16&#45;&gt;Node17</title>
<path fill="none" stroke="midnightblue" d="M297.5,-157.8C297.5,-148.91 297.5,-138.78 297.5,-131.75"/>
<polygon fill="midnightblue" stroke="midnightblue" points="294,-158.08 297.5,-168.08 301,-158.08 294,-158.08"/>
</g>
<!-- Node19 -->
<g id="node19" class="node">
<title>Node19</title>
<g id="a_node19"><a xlink:href="crypto__types_8h.html" target="_top" xlink:title="ODP crypto.">
<polygon fill="white" stroke="black" points="0,-224.5 0,-243.5 89,-243.5 89,-224.5 0,-224.5"/>
<text text-anchor="middle" x="44.5" y="-231.5" font-family="Helvetica,sans-Serif" font-size="10.00">crypto_types.h</text>
</a>
</g>
</g>
<!-- Node18&#45;&gt;Node19 -->
<g id="edge18" class="edge">
<title>Node18&#45;&gt;Node19</title>
<path fill="none" stroke="midnightblue" d="M170.07,-333.64C146.84,-326.48 119.14,-315.59 97.5,-300 75.76,-284.34 57.89,-257.61 49.56,-243.82"/>
<polygon fill="midnightblue" stroke="midnightblue" points="169.14,-337.02 179.72,-336.49 171.12,-330.3 169.14,-337.02"/>
</g>
<!-- Node19&#45;&gt;Node11 -->
<g id="edge22" class="edge">
<title>Node19&#45;&gt;Node11</title>
<path fill="none" stroke="midnightblue" d="M78.39,-221.04C107.18,-210.88 147.79,-196.55 173.37,-187.52"/>
<polygon fill="midnightblue" stroke="midnightblue" points="77.01,-217.81 68.74,-224.44 79.34,-224.42 77.01,-217.81"/>
</g>
<!-- Node19&#45;&gt;Node13 -->
<g id="edge21" class="edge">
<title>Node19&#45;&gt;Node13</title>
<path fill="none" stroke="midnightblue" d="M43.32,-214.05C42.64,-188.95 44.55,-144.09 63.5,-112 73.09,-95.76 90.98,-83.26 104.36,-75.6"/>
<polygon fill="midnightblue" stroke="midnightblue" points="39.84,-214.53 43.78,-224.37 46.83,-214.22 39.84,-214.53"/>
</g>
<!-- Node20 -->
<g id="node20" class="node">
<title>Node20</title>
<g id="a_node20"><a xlink:href="spec_2crypto_8h.html" target="_top" xlink:title="ODP crypto.">
<polygon fill="white" stroke="black" points="72.5,-168.5 72.5,-187.5 128.5,-187.5 128.5,-168.5 72.5,-168.5"/>
<text text-anchor="middle" x="100.5" y="-175.5" font-family="Helvetica,sans-Serif" font-size="10.00">crypto.h</text>
</a>
</g>
</g>
<!-- Node19&#45;&gt;Node20 -->
<g id="edge19" class="edge">
<title>Node19&#45;&gt;Node20</title>
<path fill="none" stroke="midnightblue" d="M60.83,-217.25C70.76,-207.67 83.09,-195.79 91.34,-187.83"/>
<polygon fill="midnightblue" stroke="midnightblue" points="58.27,-214.86 53.5,-224.32 63.13,-219.9 58.27,-214.86"/>
</g>
<!-- Node22 -->
<g id="node22" class="node">
<title>Node22</title>
<g id="a_node22"><a xlink:href="crypto__inlines_8h_source.html" target="_top" xlink:title=" ">
<polygon fill="white" stroke="black" points="353.5,-168.5 353.5,-187.5 447.5,-187.5 447.5,-168.5 353.5,-168.5"/>
<text text-anchor="middle" x="400.5" y="-175.5" font-family="Helvetica,sans-Serif" font-size="10.00">crypto_inlines.h</text>
</a>
</g>
</g>
<!-- Node19&#45;&gt;Node22 -->
<g id="edge23" class="edge">
<title>Node19&#45;&gt;Node22</title>
<path fill="none" stroke="midnightblue" d="M99.09,-223.77C207.88,-206.64 236.86,-203.96 342.5,-188 346.03,-187.47 349.67,-186.91 353.34,-186.35"/>
<polygon fill="midnightblue" stroke="midnightblue" points="98.35,-220.35 89.02,-225.37 99.44,-227.26 98.35,-220.35"/>
</g>
<!-- Node21 -->
<g id="node21" class="node">
<title>Node21</title>
<g id="a_node21"><a xlink:href="crypto_8h.html" target="_top" xlink:title="ODP crypto.">
<polygon fill="white" stroke="black" points="72.5,-112.5 72.5,-131.5 128.5,-131.5 128.5,-112.5 72.5,-112.5"/>
<text text-anchor="middle" x="100.5" y="-119.5" font-family="Helvetica,sans-Serif" font-size="10.00">crypto.h</text>
</a>
</g>
</g>
<!-- Node20&#45;&gt;Node21 -->
<g id="edge20" class="edge">
<title>Node20&#45;&gt;Node21</title>
<path fill="none" stroke="midnightblue" d="M100.5,-157.8C100.5,-148.91 100.5,-138.78 100.5,-131.75"/>
<polygon fill="midnightblue" stroke="midnightblue" points="97,-158.08 100.5,-168.08 104,-158.08 97,-158.08"/>
</g>
<!-- Node24 -->
<g id="node24" class="node">
<title>Node24</title>
<g id="a_node24"><a xlink:href="event_8h.html" target="_top" xlink:title="ODP event.">
<polygon fill="white" stroke="black" points="490,-336.5 490,-355.5 543,-355.5 543,-336.5 490,-336.5"/>
<text text-anchor="middle" x="516.5" y="-343.5" font-family="Helvetica,sans-Serif" font-size="10.00">event.h</text>
</a>
</g>
</g>
<!-- Node23&#45;&gt;Node24 -->
<g id="edge26" class="edge">
<title>Node23&#45;&gt;Node24</title>
<path fill="none" stroke="midnightblue" d="M516.5,-381.8C516.5,-372.91 516.5,-362.78 516.5,-355.75"/>
<polygon fill="midnightblue" stroke="midnightblue" points="513,-382.08 516.5,-392.08 520,-382.08 513,-382.08"/>
</g>
<!-- Node24&#45;&gt;Node15 -->
<g id="edge29" class="edge">
<title>Node24&#45;&gt;Node15</title>
<path fill="none" stroke="midnightblue" d="M516.5,-326.25C516.5,-304.36 516.5,-267.05 516.5,-235 516.5,-235 516.5,-235 516.5,-177 516.5,-137.05 492.47,-93.8 481.2,-75.71"/>
<polygon fill="midnightblue" stroke="midnightblue" points="513,-326.44 516.5,-336.44 520,-326.44 513,-326.44"/>
</g>
<!-- Node24&#45;&gt;Node22 -->
<g id="edge28" class="edge">
<title>Node24&#45;&gt;Node22</title>
<path fill="none" stroke="midnightblue" d="M510.92,-326.6C502.66,-301.49 485.31,-255.94 459.5,-224 447.11,-208.67 428.46,-195.59 415.45,-187.55"/>
<polygon fill="midnightblue" stroke="midnightblue" points="507.64,-327.82 513.99,-336.3 514.31,-325.71 507.64,-327.82"/>
</g>
<!-- Node24&#45;&gt;Node25 -->
<g id="edge27" class="edge">
<title>Node24&#45;&gt;Node25</title>
<path fill="none" stroke="midnightblue" d="M553.02,-334.17C587.38,-323.97 638.15,-308.91 669.73,-299.54"/>
<polygon fill="midnightblue" stroke="midnightblue" points="551.95,-330.83 543.35,-337.03 553.94,-337.54 551.95,-330.83"/>
</g>
<!-- Node24&#45;&gt;Node26 -->
<g id="edge30" class="edge">
<title>Node24&#45;&gt;Node26</title>
<path fill="none" stroke="midnightblue" d="M553.15,-338.27C606.55,-328.46 705.71,-310.25 764.12,-299.52"/>
<polygon fill="midnightblue" stroke="midnightblue" points="552.31,-334.86 543.11,-340.11 553.58,-341.75 552.31,-334.86"/>
</g>
<!-- Node24&#45;&gt;Node27 -->
<g id="edge31" class="edge">
<title>Node24&#45;&gt;Node27</title>
<path fill="none" stroke="midnightblue" d="M553.02,-340.36C624.82,-331.24 785.25,-310.85 875.89,-299.34"/>
<polygon fill="midnightblue" stroke="midnightblue" points="552.56,-336.89 543.09,-341.62 553.45,-343.83 552.56,-336.89"/>
</g>
<!-- Node28 -->
<g id="node28" class="node">
<title>Node28</title>
<g id="a_node28"><a xlink:href="timer__inlines_8h_source.html" target="_top" xlink:title=" ">
<polygon fill="white" stroke="black" points="545,-280.5 545,-299.5 634,-299.5 634,-280.5 545,-280.5"/>
<text text-anchor="middle" x="589.5" y="-287.5" font-family="Helvetica,sans-Serif" font-size="10.00">timer_inlines.h</text>
</a>
</g>
</g>
<!-- Node24&#45;&gt;Node28 -->
<g id="edge32" class="edge">
<title>Node24&#45;&gt;Node28</title>
<path fill="none" stroke="midnightblue" d="M536.64,-330.1C549.78,-320.38 566.48,-308.03 577.56,-299.83"/>
<polygon fill="midnightblue" stroke="midnightblue" points="534.19,-327.56 528.23,-336.32 538.35,-333.19 534.19,-327.56"/>
</g>
<!-- Node30 -->
<g id="node30" class="node">
<title>Node30</title>
<g id="a_node30"><a xlink:href="ml_8h.html" target="_top" xlink:title="ODP Machine Learning (ML) offload.">
<polygon fill="white" stroke="black" points="675.5,-336.5 675.5,-355.5 713.5,-355.5 713.5,-336.5 675.5,-336.5"/>
<text text-anchor="middle" x="694.5" y="-343.5" font-family="Helvetica,sans-Serif" font-size="10.00">ml.h</text>
</a>
</g>
</g>
<!-- Node29&#45;&gt;Node30 -->
<g id="edge34" class="edge">
<title>Node29&#45;&gt;Node30</title>
<path fill="none" stroke="midnightblue" d="M694.5,-381.8C694.5,-372.91 694.5,-362.78 694.5,-355.75"/>
<polygon fill="midnightblue" stroke="midnightblue" points="691,-382.08 694.5,-392.08 698,-382.08 691,-382.08"/>
</g>
<!-- Node32 -->
<g id="node32" class="node">
<title>Node32</title>
<g id="a_node32"><a xlink:href="packet_8h.html" target="_top" xlink:title="ODP packet descriptor.">
<polygon fill="white" stroke="black" points="392.5,-224.5 392.5,-243.5 450.5,-243.5 450.5,-224.5 392.5,-224.5"/>
<text text-anchor="middle" x="421.5" y="-231.5" font-family="Helvetica,sans-Serif" font-size="10.00">packet.h</text>
</a>
</g>
</g>
<!-- Node31&#45;&gt;Node32 -->
<g id="edge36" class="edge">
<title>Node31&#45;&gt;Node32</title>
<path fill="none" stroke="midnightblue" d="M421.5,-269.8C421.5,-260.91 421.5,-250.78 421.5,-243.75"/>
<polygon fill="midnightblue" stroke="midnightblue" points="418,-270.08 421.5,-280.08 425,-270.08 418,-270.08"/>
</g>
<!-- Node32&#45;&gt;Node15 -->
<g id="edge38" class="edge">
<title>Node32&#45;&gt;Node15</title>
<path fill="none" stroke="midnightblue" d="M437.4,-216.75C444.36,-208.73 451.95,-198.52 456.5,-188 473.56,-148.58 475.53,-96.03 475.6,-75.62"/>
<polygon fill="midnightblue" stroke="midnightblue" points="434.71,-214.51 430.54,-224.25 439.87,-219.24 434.71,-214.51"/>
</g>
<!-- Node32&#45;&gt;Node22 -->
<g id="edge37" class="edge">
<title>Node32&#45;&gt;Node22</title>
<path fill="none" stroke="midnightblue" d="M414.38,-214.69C410.84,-205.59 406.73,-195.01 403.9,-187.75"/>
<polygon fill="midnightblue" stroke="midnightblue" points="411.15,-216.03 418.03,-224.08 417.67,-213.49 411.15,-216.03"/>
</g>
<!-- Node34 -->
<g id="node34" class="node">
<title>Node34</title>
<g id="a_node34"><a xlink:href="packet__io__types_8h.html" target="_top" xlink:title="ODP Packet IO.">
<polygon fill="white" stroke="black" points="317.5,-336.5 317.5,-355.5 421.5,-355.5 421.5,-336.5 317.5,-336.5"/>
<text text-anchor="middle" x="369.5" y="-343.5" font-family="Helvetica,sans-Serif" font-size="10.00">packet_io_types.h</text>
</a>
</g>
</g>
<!-- Node33&#45;&gt;Node34 -->
<g id="edge40" class="edge">
<title>Node33&#45;&gt;Node34</title>
<path fill="none" stroke="midnightblue" d="M372.1,-382.1C371.44,-373.14 370.67,-362.86 370.15,-355.75"/>
<polygon fill="midnightblue" stroke="midnightblue" points="368.61,-382.37 372.84,-392.08 375.59,-381.85 368.61,-382.37"/>
</g>
<!-- Node34&#45;&gt;Node9 -->
<g id="edge41" class="edge">
<title>Node34&#45;&gt;Node9</title>
<path fill="none" stroke="midnightblue" d="M325.19,-334.02C284.01,-323.82 223.53,-308.84 185.88,-299.52"/>
<polygon fill="midnightblue" stroke="midnightblue" points="324.41,-337.44 334.96,-336.44 326.09,-330.64 324.41,-337.44"/>
</g>
<!-- Node34&#45;&gt;Node11 -->
<g id="edge42" class="edge">
<title>Node34&#45;&gt;Node11</title>
<path fill="none" stroke="midnightblue" d="M307.58,-334.23C285.03,-327.61 260.84,-316.99 243.5,-300 210.59,-267.75 200.89,-209.56 198.33,-187.65"/>
<polygon fill="midnightblue" stroke="midnightblue" points="306.89,-337.67 317.46,-336.91 308.72,-330.91 306.89,-337.67"/>
</g>
<!-- Node34&#45;&gt;Node16 -->
<g id="edge44" class="edge">
<title>Node34&#45;&gt;Node16</title>
<path fill="none" stroke="midnightblue" d="M369.28,-326.27C368.24,-301.41 363.71,-256.81 345.5,-224 337.07,-208.82 321.73,-195.8 310.66,-187.73"/>
<polygon fill="midnightblue" stroke="midnightblue" points="365.79,-326.57 369.55,-336.48 372.78,-326.39 365.79,-326.57"/>
</g>
<!-- Node34&#45;&gt;Node31 -->
<g id="edge43" class="edge">
<title>Node34&#45;&gt;Node31</title>
<path fill="none" stroke="midnightblue" d="M385.18,-328.72C394.34,-319.2 405.55,-307.56 413.07,-299.75"/>
<polygon fill="midnightblue" stroke="midnightblue" points="382.5,-326.45 378.09,-336.08 387.54,-331.31 382.5,-326.45"/>
</g>
<!-- Node35 -->
<g id="node35" class="node">
<title>Node35</title>
<g id="a_node35"><a xlink:href="spec_2traffic__mngr_8h.html" target="_top" xlink:title=" ">
<polygon fill="white" stroke="black" points="252.5,-280.5 252.5,-299.5 336.5,-299.5 336.5,-280.5 252.5,-280.5"/>
<text text-anchor="middle" x="294.5" y="-287.5" font-family="Helvetica,sans-Serif" font-size="10.00">traffic_mngr.h</text>
</a>
</g>
</g>
<!-- Node34&#45;&gt;Node35 -->
<g id="edge45" class="edge">
<title>Node34&#45;&gt;Node35</title>
<path fill="none" stroke="midnightblue" d="M349.19,-330.38C335.64,-320.62 318.26,-308.11 306.77,-299.83"/>
<polygon fill="midnightblue" stroke="midnightblue" points="347.29,-333.32 357.45,-336.32 351.38,-327.64 347.29,-333.32"/>
</g>
<!-- Node36 -->
<g id="node36" class="node">
<title>Node36</title>
<g id="a_node36"><a xlink:href="traffic__mngr_8h.html" target="_top" xlink:title="ODP Traffic manager.">
<polygon fill="white" stroke="black" points="252.5,-224.5 252.5,-243.5 336.5,-243.5 336.5,-224.5 252.5,-224.5"/>
<text text-anchor="middle" x="294.5" y="-231.5" font-family="Helvetica,sans-Serif" font-size="10.00">traffic_mngr.h</text>
</a>
</g>
</g>
<!-- Node35&#45;&gt;Node36 -->
<g id="edge46" class="edge">
<title>Node35&#45;&gt;Node36</title>
<path fill="none" stroke="midnightblue" d="M294.5,-269.8C294.5,-260.91 294.5,-250.78 294.5,-243.75"/>
<polygon fill="midnightblue" stroke="midnightblue" points="291,-270.08 294.5,-280.08 298,-270.08 291,-270.08"/>
</g>
<!-- Node36&#45;&gt;Node11 -->
<g id="edge47" class="edge">
<title>Node36&#45;&gt;Node11</title>
<path fill="none" stroke="midnightblue" d="M270.16,-219.45C252.26,-209.48 228.45,-196.23 213.05,-187.65"/>
<polygon fill="midnightblue" stroke="midnightblue" points="268.48,-222.52 278.92,-224.32 271.88,-216.4 268.48,-222.52"/>
</g>
<!-- Node38 -->
<g id="node38" class="node">
<title>Node38</title>
<g id="a_node38"><a xlink:href="pool_8h.html" target="_top" xlink:title="ODP pool.">
<polygon fill="white" stroke="black" points="732,-336.5 732,-355.5 779,-355.5 779,-336.5 732,-336.5"/>
<text text-anchor="middle" x="755.5" y="-343.5" font-family="Helvetica,sans-Serif" font-size="10.00">pool.h</text>
</a>
</g>
</g>
<!-- Node37&#45;&gt;Node38 -->
<g id="edge49" class="edge">
<title>Node37&#45;&gt;Node38</title>
<path fill="none" stroke="midnightblue" d="M755.5,-381.8C755.5,-372.91 755.5,-362.78 755.5,-355.75"/>
<polygon fill="midnightblue" stroke="midnightblue" points="752,-382.08 755.5,-392.08 759,-382.08 752,-382.08"/>
</g>
<!-- Node40 -->
<g id="node40" class="node">
<title>Node40</title>
<g id="a_node40"><a xlink:href="timer_8h.html" target="_top" xlink:title="ODP timer service.">
<polygon fill="white" stroke="black" points="797,-336.5 797,-355.5 848,-355.5 848,-336.5 797,-336.5"/>
<text text-anchor="middle" x="822.5" y="-343.5" font-family="Helvetica,sans-Serif" font-size="10.00">timer.h</text>
</a>
</g>
</g>
<!-- Node39&#45;&gt;Node40 -->
<g id="edge51" class="edge">
<title>Node39&#45;&gt;Node40</title>
<path fill="none" stroke="midnightblue" d="M822.5,-381.8C822.5,-372.91 822.5,-362.78 822.5,-355.75"/>
<polygon fill="midnightblue" stroke="midnightblue" points="819,-382.08 822.5,-392.08 826,-382.08 819,-382.08"/>
</g>
</g>
</svg>
