<?xml version="1.0" encoding="UTF-8" standalone="no"?>
<!DOCTYPE svg PUBLIC "-//W3C//DTD SVG 1.1//EN"
 "http://www.w3.org/Graphics/SVG/1.1/DTD/svg11.dtd">
<!-- Generated by graphviz version 2.43.0 (0)
 -->
<!-- Title: dma_types.h Pages: 1 -->
<svg width="1732pt" height="1012pt"
 viewBox="0.00 0.00 1732.00 1012.00" xmlns="http://www.w3.org/2000/svg" xmlns:xlink="http://www.w3.org/1999/xlink">
<g id="graph0" class="graph" transform="scale(1 1) rotate(0) translate(4 1008)">
<title>dma_types.h</title>
<polygon fill="white" stroke="transparent" points="-4,4 -4,-1008 1728,-1008 1728,4 -4,4"/>
<!-- Node1 -->
<g id="node1" class="node">
<title>Node1</title>
<g id="a_node1"><a xlink:title="ODP DMA.">
<polygon fill="#bfbfbf" stroke="black" points="190,-984.5 190,-1003.5 270,-1003.5 270,-984.5 190,-984.5"/>
<text text-anchor="middle" x="230" y="-991.5" font-family="Helvetica,sans-Serif" font-size="10.00">dma_types.h</text>
</a>
</g>
</g>
<!-- Node2 -->
<g id="node2" class="node">
<title>Node2</title>
<g id="a_node2"><a xlink:title=" ">
<polygon fill="white" stroke="#bfbfbf" points="2.5,-928.5 2.5,-947.5 139.5,-947.5 139.5,-928.5 2.5,-928.5"/>
<text text-anchor="middle" x="71" y="-935.5" font-family="Helvetica,sans-Serif" font-size="10.00">odp/api/abi/dma_types.h</text>
</a>
</g>
</g>
<!-- Node1&#45;&gt;Node2 -->
<g id="edge1" class="edge">
<title>Node1&#45;&gt;Node2</title>
<path fill="none" stroke="midnightblue" d="M204.81,-984.44C178.06,-975.36 135.6,-960.94 105.69,-950.78"/>
<polygon fill="midnightblue" stroke="midnightblue" points="106.67,-947.42 96.08,-947.52 104.42,-954.05 106.67,-947.42"/>
</g>
<!-- Node3 -->
<g id="node3" class="node">
<title>Node3</title>
<g id="a_node3"><a xlink:href="spec_2dma__types_8h.html" target="_top" xlink:title="ODP DMA.">
<polygon fill="white" stroke="black" points="158,-928.5 158,-947.5 302,-947.5 302,-928.5 158,-928.5"/>
<text text-anchor="middle" x="230" y="-935.5" font-family="Helvetica,sans-Serif" font-size="10.00">odp/api/spec/dma_types.h</text>
</a>
</g>
</g>
<!-- Node1&#45;&gt;Node3 -->
<g id="edge2" class="edge">
<title>Node1&#45;&gt;Node3</title>
<path fill="none" stroke="midnightblue" d="M230,-984.08C230,-977.01 230,-966.86 230,-957.99"/>
<polygon fill="midnightblue" stroke="midnightblue" points="233.5,-957.75 230,-947.75 226.5,-957.75 233.5,-957.75"/>
</g>
<!-- Node4 -->
<g id="node4" class="node">
<title>Node4</title>
<g id="a_node4"><a xlink:title=" ">
<polygon fill="white" stroke="#bfbfbf" points="561.5,-0.5 561.5,-19.5 682.5,-19.5 682.5,-0.5 561.5,-0.5"/>
<text text-anchor="middle" x="622" y="-7.5" font-family="Helvetica,sans-Serif" font-size="10.00">odp/visibility_begin.h</text>
</a>
</g>
</g>
<!-- Node3&#45;&gt;Node4 -->
<g id="edge3" class="edge">
<title>Node3&#45;&gt;Node4</title>
<path fill="none" stroke="midnightblue" d="M196.56,-928.46C132.77,-911.18 0,-870.05 0,-827 0,-827 0,-827 0,-132 0,-91.57 15.19,-76.57 50,-56 92.21,-31.06 407.87,-17.86 551.37,-13.1"/>
<polygon fill="midnightblue" stroke="midnightblue" points="551.52,-16.6 561.4,-12.77 551.29,-9.6 551.52,-16.6"/>
</g>
<!-- Node5 -->
<g id="node5" class="node">
<title>Node5</title>
<g id="a_node5"><a xlink:href="event__types_8h.html" target="_top" xlink:title="ODP event API type definitions.">
<polygon fill="white" stroke="black" points="286.5,-252 286.5,-271 411.5,-271 411.5,-252 286.5,-252"/>
<text text-anchor="middle" x="349" y="-259" font-family="Helvetica,sans-Serif" font-size="10.00">odp/api/event_types.h</text>
</a>
</g>
</g>
<!-- Node3&#45;&gt;Node5 -->
<g id="edge4" class="edge">
<title>Node3&#45;&gt;Node5</title>
<path fill="none" stroke="midnightblue" d="M196.74,-928.46C176.21,-921.64 150.69,-910.16 134,-892 113.17,-869.32 110,-857.8 110,-827 110,-827 110,-827 110,-523 110,-420.38 130.27,-382.25 206,-313 227.8,-293.06 257.97,-280.9 284.98,-273.53"/>
<polygon fill="midnightblue" stroke="midnightblue" points="285.94,-276.89 294.76,-271.02 284.21,-270.11 285.94,-276.89"/>
</g>
<!-- Node8 -->
<g id="node8" class="node">
<title>Node8</title>
<g id="a_node8"><a xlink:title=" ">
<polygon fill="white" stroke="#bfbfbf" points="1294,-0.5 1294,-19.5 1406,-19.5 1406,-0.5 1294,-0.5"/>
<text text-anchor="middle" x="1350" y="-7.5" font-family="Helvetica,sans-Serif" font-size="10.00">odp/visibility_end.h</text>
</a>
</g>
</g>
<!-- Node3&#45;&gt;Node8 -->
<g id="edge81" class="edge">
<title>Node3&#45;&gt;Node8</title>
<path fill="none" stroke="midnightblue" d="M302.06,-935.51C600.49,-928.89 1724,-899.17 1724,-827 1724,-827 1724,-827 1724,-132 1724,-81.32 1684.81,-77.68 1639,-56 1567.95,-22.38 1477.16,-12.96 1416.48,-10.77"/>
<polygon fill="midnightblue" stroke="midnightblue" points="1416.36,-7.27 1406.26,-10.46 1416.15,-14.27 1416.36,-7.27"/>
</g>
<!-- Node9 -->
<g id="node9" class="node">
<title>Node9</title>
<g id="a_node9"><a xlink:href="packet__types_8h.html" target="_top" xlink:title="ODP packet.">
<polygon fill="white" stroke="black" points="1356.5,-760.5 1356.5,-779.5 1485.5,-779.5 1485.5,-760.5 1356.5,-760.5"/>
<text text-anchor="middle" x="1421" y="-767.5" font-family="Helvetica,sans-Serif" font-size="10.00">odp/api/packet_types.h</text>
</a>
</g>
</g>
<!-- Node3&#45;&gt;Node9 -->
<g id="edge9" class="edge">
<title>Node3&#45;&gt;Node9</title>
<path fill="none" stroke="midnightblue" d="M291.11,-928.48C492.48,-900.42 1134.55,-810.92 1349.85,-780.92"/>
<polygon fill="midnightblue" stroke="midnightblue" points="1350.36,-784.38 1359.78,-779.53 1349.39,-777.45 1350.36,-784.38"/>
</g>
<!-- Node16 -->
<g id="node16" class="node">
<title>Node16</title>
<g id="a_node16"><a xlink:href="std__types_8h.html" target="_top" xlink:title="Standard C language types and definitions for ODP.">
<polygon fill="white" stroke="black" points="961,-252 961,-271 1073,-271 1073,-252 961,-252"/>
<text text-anchor="middle" x="1017" y="-259" font-family="Helvetica,sans-Serif" font-size="10.00">odp/api/std_types.h</text>
</a>
</g>
</g>
<!-- Node3&#45;&gt;Node16 -->
<g id="edge65" class="edge">
<title>Node3&#45;&gt;Node16</title>
<path fill="none" stroke="midnightblue" d="M217.19,-928.39C194.12,-911.74 148,-872.73 148,-827 148,-827 148,-827 148,-769 148,-592.19 636.6,-380.54 800,-313 848.58,-292.92 906.75,-279.93 950.62,-272.15"/>
<polygon fill="midnightblue" stroke="midnightblue" points="951.34,-275.58 960.6,-270.43 950.15,-268.68 951.34,-275.58"/>
</g>
<!-- Node23 -->
<g id="node23" class="node">
<title>Node23</title>
<g id="a_node23"><a xlink:href="queue__types_8h.html" target="_top" xlink:title="ODP queue.">
<polygon fill="white" stroke="black" points="460.5,-637.5 460.5,-656.5 587.5,-656.5 587.5,-637.5 460.5,-637.5"/>
<text text-anchor="middle" x="524" y="-644.5" font-family="Helvetica,sans-Serif" font-size="10.00">odp/api/queue_types.h</text>
</a>
</g>
</g>
<!-- Node3&#45;&gt;Node23 -->
<g id="edge64" class="edge">
<title>Node3&#45;&gt;Node23</title>
<path fill="none" stroke="midnightblue" d="M223.88,-928.35C211.79,-910.38 186,-867.31 186,-827 186,-827 186,-827 186,-769 186,-707.74 244.37,-716.38 301,-693 348.59,-673.35 405.53,-662.05 449.96,-655.68"/>
<polygon fill="midnightblue" stroke="midnightblue" points="450.68,-659.12 460.1,-654.28 449.72,-652.18 450.68,-659.12"/>
</g>
<!-- Node38 -->
<g id="node38" class="node">
<title>Node38</title>
<g id="a_node38"><a xlink:href="pool__types_8h.html" target="_top" xlink:title="ODP pool.">
<polygon fill="white" stroke="black" points="214,-872.5 214,-891.5 332,-891.5 332,-872.5 214,-872.5"/>
<text text-anchor="middle" x="273" y="-879.5" font-family="Helvetica,sans-Serif" font-size="10.00">odp/api/pool_types.h</text>
</a>
</g>
</g>
<!-- Node3&#45;&gt;Node38 -->
<g id="edge66" class="edge">
<title>Node3&#45;&gt;Node38</title>
<path fill="none" stroke="midnightblue" d="M237.1,-928.08C243.24,-920.38 252.27,-909.03 259.74,-899.65"/>
<polygon fill="midnightblue" stroke="midnightblue" points="262.54,-901.75 266.03,-891.75 257.06,-897.39 262.54,-901.75"/>
</g>
<!-- Node6 -->
<g id="node6" class="node">
<title>Node6</title>
<g id="a_node6"><a xlink:title=" ">
<polygon fill="white" stroke="#bfbfbf" points="277.5,-185 277.5,-204 420.5,-204 420.5,-185 277.5,-185"/>
<text text-anchor="middle" x="349" y="-192" font-family="Helvetica,sans-Serif" font-size="10.00">odp/api/abi/event_types.h</text>
</a>
</g>
</g>
<!-- Node5&#45;&gt;Node6 -->
<g id="edge5" class="edge">
<title>Node5&#45;&gt;Node6</title>
<path fill="none" stroke="midnightblue" d="M349,-251.73C349,-242.18 349,-226.62 349,-214.28"/>
<polygon fill="midnightblue" stroke="midnightblue" points="352.5,-214.13 349,-204.13 345.5,-214.13 352.5,-214.13"/>
</g>
<!-- Node7 -->
<g id="node7" class="node">
<title>Node7</title>
<g id="a_node7"><a xlink:href="spec_2event__types_8h.html" target="_top" xlink:title="ODP event API type definitions.">
<polygon fill="white" stroke="black" points="726.5,-56.5 726.5,-86.5 835.5,-86.5 835.5,-56.5 726.5,-56.5"/>
<text text-anchor="start" x="734.5" y="-74.5" font-family="Helvetica,sans-Serif" font-size="10.00">odp/api/spec/event</text>
<text text-anchor="middle" x="781" y="-63.5" font-family="Helvetica,sans-Serif" font-size="10.00">_types.h</text>
</a>
</g>
</g>
<!-- Node5&#45;&gt;Node7 -->
<g id="edge6" class="edge">
<title>Node5&#45;&gt;Node7</title>
<path fill="none" stroke="midnightblue" d="M368.68,-251.93C434.61,-223.25 648.55,-130.14 739.49,-90.57"/>
<polygon fill="midnightblue" stroke="midnightblue" points="740.9,-93.77 748.67,-86.57 738.1,-87.35 740.9,-93.77"/>
</g>
<!-- Node7&#45;&gt;Node4 -->
<g id="edge7" class="edge">
<title>Node7&#45;&gt;Node4</title>
<path fill="none" stroke="midnightblue" d="M743.32,-56.4C716.4,-46.33 680.55,-32.91 654.81,-23.28"/>
<polygon fill="midnightblue" stroke="midnightblue" points="655.73,-19.88 645.14,-19.66 653.27,-26.44 655.73,-19.88"/>
</g>
<!-- Node7&#45;&gt;Node8 -->
<g id="edge8" class="edge">
<title>Node7&#45;&gt;Node8</title>
<path fill="none" stroke="midnightblue" d="M835.56,-64.79C940.59,-53.81 1170.51,-29.77 1283.98,-17.9"/>
<polygon fill="midnightblue" stroke="midnightblue" points="1284.35,-21.38 1293.93,-16.86 1283.62,-14.42 1284.35,-21.38"/>
</g>
<!-- Node10 -->
<g id="node10" class="node">
<title>Node10</title>
<g id="a_node10"><a xlink:title=" ">
<polygon fill="white" stroke="#bfbfbf" points="1552,-693.5 1552,-723.5 1658,-723.5 1658,-693.5 1552,-693.5"/>
<text text-anchor="start" x="1560" y="-711.5" font-family="Helvetica,sans-Serif" font-size="10.00">odp/api/abi/packet</text>
<text text-anchor="middle" x="1605" y="-700.5" font-family="Helvetica,sans-Serif" font-size="10.00">_io_types.h</text>
</a>
</g>
</g>
<!-- Node9&#45;&gt;Node10 -->
<g id="edge10" class="edge">
<title>Node9&#45;&gt;Node10</title>
<path fill="none" stroke="midnightblue" d="M1447.36,-760.48C1474.5,-751.7 1517.52,-737.79 1551.77,-726.71"/>
<polygon fill="midnightblue" stroke="midnightblue" points="1553.2,-729.93 1561.63,-723.52 1551.04,-723.27 1553.2,-729.93"/>
</g>
<!-- Node11 -->
<g id="node11" class="node">
<title>Node11</title>
<g id="a_node11"><a xlink:title=" ">
<polygon fill="white" stroke="#bfbfbf" points="1428,-693.5 1428,-723.5 1534,-723.5 1534,-693.5 1428,-693.5"/>
<text text-anchor="start" x="1436" y="-711.5" font-family="Helvetica,sans-Serif" font-size="10.00">odp/api/abi/packet</text>
<text text-anchor="middle" x="1481" y="-700.5" font-family="Helvetica,sans-Serif" font-size="10.00">_types.h</text>
</a>
</g>
</g>
<!-- Node9&#45;&gt;Node11 -->
<g id="edge11" class="edge">
<title>Node9&#45;&gt;Node11</title>
<path fill="none" stroke="midnightblue" d="M1429.6,-760.48C1437.42,-752.72 1449.29,-740.94 1459.66,-730.66"/>
<polygon fill="midnightblue" stroke="midnightblue" points="1462.22,-733.05 1466.86,-723.52 1457.29,-728.08 1462.22,-733.05"/>
</g>
<!-- Node12 -->
<g id="node12" class="node">
<title>Node12</title>
<g id="a_node12"><a xlink:href="spec_2packet__types_8h.html" target="_top" xlink:title="ODP packet types.">
<polygon fill="white" stroke="black" points="1296.5,-693.5 1296.5,-723.5 1409.5,-723.5 1409.5,-693.5 1296.5,-693.5"/>
<text text-anchor="start" x="1304.5" y="-711.5" font-family="Helvetica,sans-Serif" font-size="10.00">odp/api/spec/packet</text>
<text text-anchor="middle" x="1353" y="-700.5" font-family="Helvetica,sans-Serif" font-size="10.00">_types.h</text>
</a>
</g>
</g>
<!-- Node9&#45;&gt;Node12 -->
<g id="edge12" class="edge">
<title>Node9&#45;&gt;Node12</title>
<path fill="none" stroke="midnightblue" d="M1411.26,-760.48C1402.31,-752.64 1388.67,-740.71 1376.85,-730.37"/>
<polygon fill="midnightblue" stroke="midnightblue" points="1378.86,-727.47 1369.03,-723.52 1374.25,-732.74 1378.86,-727.47"/>
</g>
<!-- Node12&#45;&gt;Node4 -->
<g id="edge13" class="edge">
<title>Node12&#45;&gt;Node4</title>
<path fill="none" stroke="midnightblue" d="M1296.36,-703.3C1144.29,-691.4 730.07,-654.84 605,-601 584.66,-592.24 584.05,-582.82 566,-570 541.57,-552.65 533.81,-550.8 509,-534 389.91,-453.33 312.36,-472.13 247,-344 193.36,-238.83 358.37,-310 420,-277 494.81,-236.95 506.13,-211.65 556,-143 583.13,-105.65 604.76,-55.49 615.2,-29.05"/>
<polygon fill="midnightblue" stroke="midnightblue" points="618.52,-30.16 618.86,-19.57 611.99,-27.64 618.52,-30.16"/>
</g>
<!-- Node12&#45;&gt;Node8 -->
<g id="edge63" class="edge">
<title>Node12&#45;&gt;Node8</title>
<path fill="none" stroke="midnightblue" d="M1399.42,-693.48C1482.49,-667.71 1648,-613.04 1648,-586.5 1648,-586.5 1648,-586.5 1648,-132 1648,-80.1 1490.87,-39.77 1404.81,-21.58"/>
<polygon fill="midnightblue" stroke="midnightblue" points="1405.44,-18.13 1394.94,-19.52 1404.01,-24.99 1405.44,-18.13"/>
</g>
<!-- Node13 -->
<g id="node13" class="node">
<title>Node13</title>
<g id="a_node13"><a xlink:href="proto__stats__types_8h.html" target="_top" xlink:title="ODP proto stats types.">
<polygon fill="white" stroke="black" points="1396,-380.5 1396,-410.5 1506,-410.5 1506,-380.5 1396,-380.5"/>
<text text-anchor="start" x="1404" y="-398.5" font-family="Helvetica,sans-Serif" font-size="10.00">odp/api/proto_stats</text>
<text text-anchor="middle" x="1451" y="-387.5" font-family="Helvetica,sans-Serif" font-size="10.00">_types.h</text>
</a>
</g>
</g>
<!-- Node12&#45;&gt;Node13 -->
<g id="edge14" class="edge">
<title>Node12&#45;&gt;Node13</title>
<path fill="none" stroke="midnightblue" d="M1369.27,-693.25C1391.33,-672.27 1428,-630.74 1428,-586.5 1428,-586.5 1428,-586.5 1428,-523 1428,-486.87 1437.2,-445.85 1443.96,-420.57"/>
<polygon fill="midnightblue" stroke="midnightblue" points="1447.38,-421.34 1446.67,-410.76 1440.63,-419.47 1447.38,-421.34"/>
</g>
<!-- Node12&#45;&gt;Node23 -->
<g id="edge30" class="edge">
<title>Node12&#45;&gt;Node23</title>
<path fill="none" stroke="midnightblue" d="M1296.35,-703.43C1150.4,-692.96 761.59,-665.05 598.08,-653.32"/>
<polygon fill="midnightblue" stroke="midnightblue" points="597.86,-649.79 587.64,-652.57 597.36,-656.77 597.86,-649.79"/>
</g>
<!-- Node14 -->
<g id="node14" class="node">
<title>Node14</title>
<g id="a_node14"><a xlink:title=" ">
<polygon fill="white" stroke="#bfbfbf" points="1492,-313.5 1492,-343.5 1620,-343.5 1620,-313.5 1492,-313.5"/>
<text text-anchor="start" x="1500" y="-331.5" font-family="Helvetica,sans-Serif" font-size="10.00">odp/api/abi/proto_stats</text>
<text text-anchor="middle" x="1556" y="-320.5" font-family="Helvetica,sans-Serif" font-size="10.00">_types.h</text>
</a>
</g>
</g>
<!-- Node13&#45;&gt;Node14 -->
<g id="edge15" class="edge">
<title>Node13&#45;&gt;Node14</title>
<path fill="none" stroke="midnightblue" d="M1473.78,-380.4C1488.64,-371.2 1508.24,-359.07 1524.57,-348.95"/>
<polygon fill="midnightblue" stroke="midnightblue" points="1526.6,-351.82 1533.26,-343.58 1522.92,-345.86 1526.6,-351.82"/>
</g>
<!-- Node15 -->
<g id="node15" class="node">
<title>Node15</title>
<g id="a_node15"><a xlink:href="spec_2proto__stats__types_8h.html" target="_top" xlink:title="ODP proto stats types.">
<polygon fill="white" stroke="black" points="1252.5,-313.5 1252.5,-343.5 1359.5,-343.5 1359.5,-313.5 1252.5,-313.5"/>
<text text-anchor="start" x="1260.5" y="-331.5" font-family="Helvetica,sans-Serif" font-size="10.00">odp/api/spec/proto</text>
<text text-anchor="middle" x="1306" y="-320.5" font-family="Helvetica,sans-Serif" font-size="10.00">_stats_types.h</text>
</a>
</g>
</g>
<!-- Node13&#45;&gt;Node15 -->
<g id="edge16" class="edge">
<title>Node13&#45;&gt;Node15</title>
<path fill="none" stroke="midnightblue" d="M1419.54,-380.4C1398.16,-370.81 1369.69,-358.05 1346.6,-347.7"/>
<polygon fill="midnightblue" stroke="midnightblue" points="1347.96,-344.47 1337.4,-343.58 1345.09,-350.86 1347.96,-344.47"/>
</g>
<!-- Node15&#45;&gt;Node4 -->
<g id="edge17" class="edge">
<title>Node15&#45;&gt;Node4</title>
<path fill="none" stroke="midnightblue" d="M1269.36,-313.44C1225.19,-296.65 1148.58,-268.08 1082,-246 1029.15,-228.47 1011.35,-235.79 962,-210 942.38,-199.75 941.91,-190.51 923,-179 837.69,-127.08 803.36,-138.84 718,-87 688.22,-68.92 657.22,-42.84 638.77,-26.41"/>
<polygon fill="midnightblue" stroke="midnightblue" points="641,-23.71 631.23,-19.61 636.31,-28.9 641,-23.71"/>
</g>
<!-- Node15&#45;&gt;Node8 -->
<g id="edge29" class="edge">
<title>Node15&#45;&gt;Node8</title>
<path fill="none" stroke="midnightblue" d="M1314.07,-313.37C1326.77,-289.75 1350,-240.43 1350,-195.5 1350,-195.5 1350,-195.5 1350,-132 1350,-95.71 1350,-53.31 1350,-29.56"/>
<polygon fill="midnightblue" stroke="midnightblue" points="1353.5,-29.51 1350,-19.51 1346.5,-29.51 1353.5,-29.51"/>
</g>
<!-- Node15&#45;&gt;Node16 -->
<g id="edge18" class="edge">
<title>Node15&#45;&gt;Node16</title>
<path fill="none" stroke="midnightblue" d="M1252.32,-315.43C1198.6,-303.35 1116.73,-284.93 1065.08,-273.31"/>
<polygon fill="midnightblue" stroke="midnightblue" points="1065.7,-269.87 1055.18,-271.09 1064.16,-276.7 1065.7,-269.87"/>
</g>
<!-- Node17 -->
<g id="node17" class="node">
<title>Node17</title>
<g id="a_node17"><a xlink:title=" ">
<polygon fill="white" stroke="#bfbfbf" points="784,-185 784,-204 914,-204 914,-185 784,-185"/>
<text text-anchor="middle" x="849" y="-192" font-family="Helvetica,sans-Serif" font-size="10.00">odp/api/abi/std_types.h</text>
</a>
</g>
</g>
<!-- Node16&#45;&gt;Node17 -->
<g id="edge19" class="edge">
<title>Node16&#45;&gt;Node17</title>
<path fill="none" stroke="midnightblue" d="M994.69,-251.87C965.49,-240.57 914.12,-220.7 880.84,-207.82"/>
<polygon fill="midnightblue" stroke="midnightblue" points="881.72,-204.41 871.13,-204.06 879.2,-210.94 881.72,-204.41"/>
</g>
<!-- Node18 -->
<g id="node18" class="node">
<title>Node18</title>
<g id="a_node18"><a xlink:href="spec_2std__types_8h.html" target="_top" xlink:title="Common types and definitions for ODP API files.">
<polygon fill="white" stroke="black" points="970.5,-185 970.5,-204 1107.5,-204 1107.5,-185 970.5,-185"/>
<text text-anchor="middle" x="1039" y="-192" font-family="Helvetica,sans-Serif" font-size="10.00">odp/api/spec/std_types.h</text>
</a>
</g>
</g>
<!-- Node16&#45;&gt;Node18 -->
<g id="edge20" class="edge">
<title>Node16&#45;&gt;Node18</title>
<path fill="none" stroke="midnightblue" d="M1019.97,-251.73C1023.23,-242.09 1028.58,-226.3 1032.77,-213.91"/>
<polygon fill="midnightblue" stroke="midnightblue" points="1036.19,-214.72 1036.08,-204.13 1029.56,-212.48 1036.19,-214.72"/>
</g>
<!-- Node18&#45;&gt;Node4 -->
<g id="edge21" class="edge">
<title>Node18&#45;&gt;Node4</title>
<path fill="none" stroke="midnightblue" d="M980.2,-184.95C949.77,-177.98 913.73,-165.44 888,-143 855.5,-114.65 879.19,-82.29 845,-56 821.49,-37.93 748.84,-25.57 692.79,-18.45"/>
<polygon fill="midnightblue" stroke="midnightblue" points="692.88,-14.93 682.53,-17.18 692.02,-21.88 692.88,-14.93"/>
</g>
<!-- Node18&#45;&gt;Node8 -->
<g id="edge28" class="edge">
<title>Node18&#45;&gt;Node8</title>
<path fill="none" stroke="midnightblue" d="M1049.39,-184.77C1077.57,-161.41 1158.43,-96.51 1234,-56 1259.32,-42.43 1289.64,-30.81 1312.93,-22.78"/>
<polygon fill="midnightblue" stroke="midnightblue" points="1314.1,-26.08 1322.45,-19.57 1311.85,-19.45 1314.1,-26.08"/>
</g>
<!-- Node19 -->
<g id="node19" class="node">
<title>Node19</title>
<g id="a_node19"><a xlink:title=" ">
<polygon fill="white" stroke="#bfbfbf" points="1154.5,-123.5 1154.5,-142.5 1207.5,-142.5 1207.5,-123.5 1154.5,-123.5"/>
<text text-anchor="middle" x="1181" y="-130.5" font-family="Helvetica,sans-Serif" font-size="10.00">stdint.h</text>
</a>
</g>
</g>
<!-- Node18&#45;&gt;Node19 -->
<g id="edge22" class="edge">
<title>Node18&#45;&gt;Node19</title>
<path fill="none" stroke="midnightblue" d="M1059.35,-184.98C1083.39,-174.9 1123.6,-158.05 1151.16,-146.5"/>
<polygon fill="midnightblue" stroke="midnightblue" points="1152.82,-149.6 1160.69,-142.51 1150.12,-143.15 1152.82,-149.6"/>
</g>
<!-- Node20 -->
<g id="node20" class="node">
<title>Node20</title>
<g id="a_node20"><a xlink:href="align_8h.html" target="_top" xlink:title="ODP alignments.">
<polygon fill="white" stroke="black" points="994.5,-123.5 994.5,-142.5 1083.5,-142.5 1083.5,-123.5 994.5,-123.5"/>
<text text-anchor="middle" x="1039" y="-130.5" font-family="Helvetica,sans-Serif" font-size="10.00">odp/api/align.h</text>
</a>
</g>
</g>
<!-- Node18&#45;&gt;Node20 -->
<g id="edge23" class="edge">
<title>Node18&#45;&gt;Node20</title>
<path fill="none" stroke="midnightblue" d="M1039,-184.98C1039,-176.58 1039,-163.48 1039,-152.66"/>
<polygon fill="midnightblue" stroke="midnightblue" points="1042.5,-152.51 1039,-142.51 1035.5,-152.51 1042.5,-152.51"/>
</g>
<!-- Node21 -->
<g id="node21" class="node">
<title>Node21</title>
<g id="a_node21"><a xlink:title=" ">
<polygon fill="white" stroke="#bfbfbf" points="930.5,-62 930.5,-81 1037.5,-81 1037.5,-62 930.5,-62"/>
<text text-anchor="middle" x="984" y="-69" font-family="Helvetica,sans-Serif" font-size="10.00">odp/api/abi/align.h</text>
</a>
</g>
</g>
<!-- Node20&#45;&gt;Node21 -->
<g id="edge24" class="edge">
<title>Node20&#45;&gt;Node21</title>
<path fill="none" stroke="midnightblue" d="M1031.12,-123.48C1022.71,-114.37 1009.18,-99.74 998.77,-88.48"/>
<polygon fill="midnightblue" stroke="midnightblue" points="1001.22,-85.98 991.87,-81.01 996.08,-90.73 1001.22,-85.98"/>
</g>
<!-- Node22 -->
<g id="node22" class="node">
<title>Node22</title>
<g id="a_node22"><a xlink:href="spec_2align_8h.html" target="_top" xlink:title="ODP alignments.">
<polygon fill="white" stroke="black" points="1056,-62 1056,-81 1170,-81 1170,-62 1056,-62"/>
<text text-anchor="middle" x="1113" y="-69" font-family="Helvetica,sans-Serif" font-size="10.00">odp/api/spec/align.h</text>
</a>
</g>
</g>
<!-- Node20&#45;&gt;Node22 -->
<g id="edge25" class="edge">
<title>Node20&#45;&gt;Node22</title>
<path fill="none" stroke="midnightblue" d="M1049.6,-123.48C1061.25,-114.11 1080.19,-98.88 1094.33,-87.51"/>
<polygon fill="midnightblue" stroke="midnightblue" points="1096.82,-90 1102.42,-81.01 1092.43,-84.55 1096.82,-90"/>
</g>
<!-- Node22&#45;&gt;Node4 -->
<g id="edge26" class="edge">
<title>Node22&#45;&gt;Node4</title>
<path fill="none" stroke="midnightblue" d="M1077.52,-61.95C1067.68,-59.78 1056.96,-57.62 1047,-56 923.13,-35.9 777.44,-22.72 692.82,-16.09"/>
<polygon fill="midnightblue" stroke="midnightblue" points="693.05,-12.59 682.81,-15.31 692.51,-19.57 693.05,-12.59"/>
</g>
<!-- Node22&#45;&gt;Node8 -->
<g id="edge27" class="edge">
<title>Node22&#45;&gt;Node8</title>
<path fill="none" stroke="midnightblue" d="M1146.96,-61.98C1188.84,-51.46 1260.13,-33.56 1306.13,-22.01"/>
<polygon fill="midnightblue" stroke="midnightblue" points="1307.26,-25.34 1316.11,-19.51 1305.56,-18.55 1307.26,-25.34"/>
</g>
<!-- Node24 -->
<g id="node24" class="node">
<title>Node24</title>
<g id="a_node24"><a xlink:title=" ">
<polygon fill="white" stroke="#bfbfbf" points="411.5,-576 411.5,-595 556.5,-595 556.5,-576 411.5,-576"/>
<text text-anchor="middle" x="484" y="-583" font-family="Helvetica,sans-Serif" font-size="10.00">odp/api/abi/queue_types.h</text>
</a>
</g>
</g>
<!-- Node23&#45;&gt;Node24 -->
<g id="edge31" class="edge">
<title>Node23&#45;&gt;Node24</title>
<path fill="none" stroke="midnightblue" d="M518.27,-637.48C512.33,-628.64 502.88,-614.59 495.41,-603.48"/>
<polygon fill="midnightblue" stroke="midnightblue" points="498.2,-601.36 489.72,-595.01 492.39,-605.26 498.2,-601.36"/>
</g>
<!-- Node25 -->
<g id="node25" class="node">
<title>Node25</title>
<g id="a_node25"><a xlink:href="spec_2queue__types_8h.html" target="_top" xlink:title="ODP queue types.">
<polygon fill="white" stroke="black" points="613.5,-570.5 613.5,-600.5 724.5,-600.5 724.5,-570.5 613.5,-570.5"/>
<text text-anchor="start" x="621.5" y="-588.5" font-family="Helvetica,sans-Serif" font-size="10.00">odp/api/spec/queue</text>
<text text-anchor="middle" x="669" y="-577.5" font-family="Helvetica,sans-Serif" font-size="10.00">_types.h</text>
</a>
</g>
</g>
<!-- Node23&#45;&gt;Node25 -->
<g id="edge32" class="edge">
<title>Node23&#45;&gt;Node25</title>
<path fill="none" stroke="midnightblue" d="M544.77,-637.48C565.7,-628.89 598.61,-615.38 625.31,-604.43"/>
<polygon fill="midnightblue" stroke="midnightblue" points="626.9,-607.56 634.83,-600.52 624.25,-601.08 626.9,-607.56"/>
</g>
<!-- Node25&#45;&gt;Node4 -->
<g id="edge33" class="edge">
<title>Node25&#45;&gt;Node4</title>
<path fill="none" stroke="midnightblue" d="M635.7,-570.49C527.07,-523.76 190,-370.09 190,-262.5 190,-262.5 190,-262.5 190,-132 190,-57.85 428.96,-27.07 551.43,-16.16"/>
<polygon fill="midnightblue" stroke="midnightblue" points="551.82,-19.64 561.48,-15.28 551.21,-12.66 551.82,-19.64"/>
</g>
<!-- Node25&#45;&gt;Node8 -->
<g id="edge62" class="edge">
<title>Node25&#45;&gt;Node8</title>
<path fill="none" stroke="midnightblue" d="M724.76,-577.6C781.6,-569.83 871.95,-555.42 948,-534 1051.3,-504.9 1319.61,-423.23 1392,-344 1418.47,-315.02 1426,-301.75 1426,-262.5 1426,-262.5 1426,-262.5 1426,-132 1426,-88.48 1390.3,-47.77 1367.84,-26.47"/>
<polygon fill="midnightblue" stroke="midnightblue" points="1369.99,-23.7 1360.25,-19.53 1365.27,-28.86 1369.99,-23.7"/>
</g>
<!-- Node26 -->
<g id="node26" class="node">
<title>Node26</title>
<g id="a_node26"><a xlink:href="event__vector__types_8h.html" target="_top" xlink:title="ODP event vector API type definitions.">
<polygon fill="white" stroke="black" points="407.5,-380.5 407.5,-410.5 526.5,-410.5 526.5,-380.5 407.5,-380.5"/>
<text text-anchor="start" x="415.5" y="-398.5" font-family="Helvetica,sans-Serif" font-size="10.00">odp/api/event_vector</text>
<text text-anchor="middle" x="467" y="-387.5" font-family="Helvetica,sans-Serif" font-size="10.00">_types.h</text>
</a>
</g>
</g>
<!-- Node25&#45;&gt;Node26 -->
<g id="edge34" class="edge">
<title>Node25&#45;&gt;Node26</title>
<path fill="none" stroke="midnightblue" d="M643.23,-570.44C627.17,-561.11 606.49,-548.03 590,-534 547.55,-497.89 505.98,-447.35 483.71,-418.67"/>
<polygon fill="midnightblue" stroke="midnightblue" points="486.31,-416.31 477.44,-410.51 480.76,-420.57 486.31,-416.31"/>
</g>
<!-- Node30 -->
<g id="node30" class="node">
<title>Node30</title>
<g id="a_node30"><a xlink:href="queue__stats__types_8h.html" target="_top" xlink:title="ODP queue.">
<polygon fill="white" stroke="black" points="766.5,-246.5 766.5,-276.5 881.5,-276.5 881.5,-246.5 766.5,-246.5"/>
<text text-anchor="start" x="774.5" y="-264.5" font-family="Helvetica,sans-Serif" font-size="10.00">odp/api/queue_stats</text>
<text text-anchor="middle" x="824" y="-253.5" font-family="Helvetica,sans-Serif" font-size="10.00">_types.h</text>
</a>
</g>
</g>
<!-- Node25&#45;&gt;Node30 -->
<g id="edge47" class="edge">
<title>Node25&#45;&gt;Node30</title>
<path fill="none" stroke="midnightblue" d="M724.76,-585.07C809.26,-582.69 960,-564.31 960,-463.5 960,-463.5 960,-463.5 960,-394.5 960,-357.31 964.85,-341.54 941,-313 928.07,-297.53 909.53,-286.68 891,-279.11"/>
<polygon fill="midnightblue" stroke="midnightblue" points="892.23,-275.84 881.64,-275.56 889.74,-282.38 892.23,-275.84"/>
</g>
<!-- Node32 -->
<g id="node32" class="node">
<title>Node32</title>
<g id="a_node32"><a xlink:href="schedule__types_8h.html" target="_top" xlink:title="ODP schedule.">
<polygon fill="white" stroke="black" points="599,-514.5 599,-533.5 739,-533.5 739,-514.5 599,-514.5"/>
<text text-anchor="middle" x="669" y="-521.5" font-family="Helvetica,sans-Serif" font-size="10.00">odp/api/schedule_types.h</text>
</a>
</g>
</g>
<!-- Node25&#45;&gt;Node32 -->
<g id="edge48" class="edge">
<title>Node25&#45;&gt;Node32</title>
<path fill="none" stroke="midnightblue" d="M669,-570.4C669,-562.47 669,-552.46 669,-543.86"/>
<polygon fill="midnightblue" stroke="midnightblue" points="672.5,-543.66 669,-533.66 665.5,-543.66 672.5,-543.66"/>
</g>
<!-- Node27 -->
<g id="node27" class="node">
<title>Node27</title>
<g id="a_node27"><a xlink:title=" ">
<polygon fill="white" stroke="#bfbfbf" points="410.5,-313.5 410.5,-343.5 547.5,-343.5 547.5,-313.5 410.5,-313.5"/>
<text text-anchor="start" x="418.5" y="-331.5" font-family="Helvetica,sans-Serif" font-size="10.00">odp/api/abi/event_vector</text>
<text text-anchor="middle" x="479" y="-320.5" font-family="Helvetica,sans-Serif" font-size="10.00">_types.h</text>
</a>
</g>
</g>
<!-- Node26&#45;&gt;Node27 -->
<g id="edge35" class="edge">
<title>Node26&#45;&gt;Node27</title>
<path fill="none" stroke="midnightblue" d="M469.6,-380.4C471.05,-372.56 472.89,-362.6 474.56,-353.57"/>
<polygon fill="midnightblue" stroke="midnightblue" points="478.03,-354.05 476.4,-343.58 471.14,-352.77 478.03,-354.05"/>
</g>
<!-- Node28 -->
<g id="node28" class="node">
<title>Node28</title>
<g id="a_node28"><a xlink:title=" ">
<polygon fill="white" stroke="#bfbfbf" points="256,-319 256,-338 392,-338 392,-319 256,-319"/>
<text text-anchor="middle" x="324" y="-326" font-family="Helvetica,sans-Serif" font-size="10.00">odp/api/abi/pool_types.h</text>
</a>
</g>
</g>
<!-- Node26&#45;&gt;Node28 -->
<g id="edge36" class="edge">
<title>Node26&#45;&gt;Node28</title>
<path fill="none" stroke="midnightblue" d="M435.97,-380.4C410.99,-369.04 376.18,-353.22 352.04,-342.24"/>
<polygon fill="midnightblue" stroke="midnightblue" points="353.27,-338.96 342.72,-338.01 350.37,-345.33 353.27,-338.96"/>
</g>
<!-- Node29 -->
<g id="node29" class="node">
<title>Node29</title>
<g id="a_node29"><a xlink:href="spec_2event__vector__types_8h.html" target="_top" xlink:title="ODP event vector API type definitions.">
<polygon fill="white" stroke="black" points="604.5,-313.5 604.5,-343.5 713.5,-343.5 713.5,-313.5 604.5,-313.5"/>
<text text-anchor="start" x="612.5" y="-331.5" font-family="Helvetica,sans-Serif" font-size="10.00">odp/api/spec/event</text>
<text text-anchor="middle" x="659" y="-320.5" font-family="Helvetica,sans-Serif" font-size="10.00">_vector_types.h</text>
</a>
</g>
</g>
<!-- Node26&#45;&gt;Node29 -->
<g id="edge37" class="edge">
<title>Node26&#45;&gt;Node29</title>
<path fill="none" stroke="midnightblue" d="M508.66,-380.4C537.72,-370.56 576.69,-357.37 607.67,-346.88"/>
<polygon fill="midnightblue" stroke="midnightblue" points="609.07,-350.1 617.42,-343.58 606.83,-343.47 609.07,-350.1"/>
</g>
<!-- Node29&#45;&gt;Node4 -->
<g id="edge38" class="edge">
<title>Node29&#45;&gt;Node4</title>
<path fill="none" stroke="midnightblue" d="M652.21,-313.22C641.53,-289.39 622,-239.77 622,-195.5 622,-195.5 622,-195.5 622,-132 622,-95.71 622,-53.31 622,-29.56"/>
<polygon fill="midnightblue" stroke="midnightblue" points="625.5,-29.51 622,-19.51 618.5,-29.51 625.5,-29.51"/>
</g>
<!-- Node29&#45;&gt;Node5 -->
<g id="edge39" class="edge">
<title>Node29&#45;&gt;Node5</title>
<path fill="none" stroke="midnightblue" d="M604.29,-316.03C546.53,-303.92 456.2,-284.98 399.92,-273.18"/>
<polygon fill="midnightblue" stroke="midnightblue" points="400.32,-269.69 389.82,-271.06 398.89,-276.54 400.32,-269.69"/>
</g>
<!-- Node29&#45;&gt;Node8 -->
<g id="edge46" class="edge">
<title>Node29&#45;&gt;Node8</title>
<path fill="none" stroke="midnightblue" d="M671.02,-313.19C688.1,-294.01 721.42,-260.66 758,-246 858.93,-205.55 1156.97,-272.44 1246,-210 1307.41,-166.94 1276.37,-120.28 1315,-56 1321.05,-45.93 1329.02,-35.52 1335.83,-27.25"/>
<polygon fill="midnightblue" stroke="midnightblue" points="1338.58,-29.41 1342.37,-19.51 1333.24,-24.89 1338.58,-29.41"/>
</g>
<!-- Node29&#45;&gt;Node16 -->
<g id="edge45" class="edge">
<title>Node29&#45;&gt;Node16</title>
<path fill="none" stroke="midnightblue" d="M713.58,-315.85C718.45,-314.87 723.31,-313.9 728,-313 806.09,-297.98 896.42,-282.5 955.02,-272.7"/>
<polygon fill="midnightblue" stroke="midnightblue" points="955.93,-276.1 965.22,-271 954.78,-269.19 955.93,-276.1"/>
</g>
<!-- Node29&#45;&gt;Node30 -->
<g id="edge40" class="edge">
<title>Node29&#45;&gt;Node30</title>
<path fill="none" stroke="midnightblue" d="M694.8,-313.4C719.45,-303.69 752.39,-290.71 778.84,-280.29"/>
<polygon fill="midnightblue" stroke="midnightblue" points="780.25,-283.5 788.27,-276.58 777.68,-276.99 780.25,-283.5"/>
</g>
<!-- Node31 -->
<g id="node31" class="node">
<title>Node31</title>
<g id="a_node31"><a xlink:href="spec_2queue__stats__types_8h.html" target="_top" xlink:title="ODP queue statistics types.">
<polygon fill="white" stroke="black" points="1125.5,-179.5 1125.5,-209.5 1236.5,-209.5 1236.5,-179.5 1125.5,-179.5"/>
<text text-anchor="start" x="1133.5" y="-197.5" font-family="Helvetica,sans-Serif" font-size="10.00">odp/api/spec/queue</text>
<text text-anchor="middle" x="1181" y="-186.5" font-family="Helvetica,sans-Serif" font-size="10.00">_stats_types.h</text>
</a>
</g>
</g>
<!-- Node30&#45;&gt;Node31 -->
<g id="edge41" class="edge">
<title>Node30&#45;&gt;Node31</title>
<path fill="none" stroke="midnightblue" d="M881.71,-251.47C938.72,-242.33 1028.64,-227.38 1115.2,-210.31"/>
<polygon fill="midnightblue" stroke="midnightblue" points="1116.06,-213.7 1125.19,-208.32 1114.7,-206.84 1116.06,-213.7"/>
</g>
<!-- Node31&#45;&gt;Node4 -->
<g id="edge42" class="edge">
<title>Node31&#45;&gt;Node4</title>
<path fill="none" stroke="midnightblue" d="M1125.13,-180.18C1072.1,-167.35 998.67,-149.03 986,-143 927.17,-114.99 927.81,-81.86 868,-56 811.98,-31.78 743.31,-20.59 692.78,-15.42"/>
<polygon fill="midnightblue" stroke="midnightblue" points="692.89,-11.92 682.6,-14.44 692.22,-18.89 692.89,-11.92"/>
</g>
<!-- Node31&#45;&gt;Node8 -->
<g id="edge44" class="edge">
<title>Node31&#45;&gt;Node8</title>
<path fill="none" stroke="midnightblue" d="M1192.03,-179.33C1199.51,-169.43 1209.37,-155.75 1217,-143 1239.15,-105.99 1229.57,-86.57 1260,-56 1274.66,-41.27 1295.13,-30.51 1312.85,-23.22"/>
<polygon fill="midnightblue" stroke="midnightblue" points="1314.3,-26.41 1322.35,-19.52 1311.76,-19.88 1314.3,-26.41"/>
</g>
<!-- Node31&#45;&gt;Node19 -->
<g id="edge43" class="edge">
<title>Node31&#45;&gt;Node19</title>
<path fill="none" stroke="midnightblue" d="M1181,-179.4C1181,-171.47 1181,-161.46 1181,-152.86"/>
<polygon fill="midnightblue" stroke="midnightblue" points="1184.5,-152.66 1181,-142.66 1177.5,-152.66 1184.5,-152.66"/>
</g>
<!-- Node33 -->
<g id="node33" class="node">
<title>Node33</title>
<g id="a_node33"><a xlink:title=" ">
<polygon fill="white" stroke="#bfbfbf" points="592.5,-447.5 592.5,-477.5 709.5,-477.5 709.5,-447.5 592.5,-447.5"/>
<text text-anchor="start" x="600.5" y="-465.5" font-family="Helvetica,sans-Serif" font-size="10.00">odp/api/abi/schedule</text>
<text text-anchor="middle" x="651" y="-454.5" font-family="Helvetica,sans-Serif" font-size="10.00">_types.h</text>
</a>
</g>
</g>
<!-- Node32&#45;&gt;Node33 -->
<g id="edge49" class="edge">
<title>Node32&#45;&gt;Node33</title>
<path fill="none" stroke="midnightblue" d="M666.42,-514.48C664.28,-507.4 661.13,-496.97 658.23,-487.39"/>
<polygon fill="midnightblue" stroke="midnightblue" points="661.49,-486.08 655.24,-477.52 654.79,-488.11 661.49,-486.08"/>
</g>
<!-- Node34 -->
<g id="node34" class="node">
<title>Node34</title>
<g id="a_node34"><a xlink:href="spec_2schedule__types_8h.html" target="_top" xlink:title="ODP schedule types.">
<polygon fill="white" stroke="black" points="727.5,-447.5 727.5,-477.5 852.5,-477.5 852.5,-447.5 727.5,-447.5"/>
<text text-anchor="start" x="735.5" y="-465.5" font-family="Helvetica,sans-Serif" font-size="10.00">odp/api/spec/schedule</text>
<text text-anchor="middle" x="790" y="-454.5" font-family="Helvetica,sans-Serif" font-size="10.00">_types.h</text>
</a>
</g>
</g>
<!-- Node32&#45;&gt;Node34 -->
<g id="edge50" class="edge">
<title>Node32&#45;&gt;Node34</title>
<path fill="none" stroke="midnightblue" d="M686.34,-514.48C703.49,-506.04 730.3,-492.86 752.36,-482.01"/>
<polygon fill="midnightblue" stroke="midnightblue" points="754.05,-485.08 761.48,-477.52 750.96,-478.79 754.05,-485.08"/>
</g>
<!-- Node34&#45;&gt;Node4 -->
<g id="edge51" class="edge">
<title>Node34&#45;&gt;Node4</title>
<path fill="none" stroke="midnightblue" d="M745.25,-447.38C699.68,-430.51 630.93,-397.61 596,-344 525.84,-236.32 516.57,-172.89 570,-56 575.78,-43.36 587.05,-32.91 597.63,-25.27"/>
<polygon fill="midnightblue" stroke="midnightblue" points="599.85,-28 606.22,-19.53 595.96,-22.18 599.85,-28"/>
</g>
<!-- Node34&#45;&gt;Node8 -->
<g id="edge61" class="edge">
<title>Node34&#45;&gt;Node8</title>
<path fill="none" stroke="midnightblue" d="M852.62,-457.37C987.05,-447.19 1296.96,-416.29 1369,-344 1395.25,-317.66 1388,-299.69 1388,-262.5 1388,-262.5 1388,-262.5 1388,-132 1388,-93.81 1370.56,-51.83 1359.31,-28.72"/>
<polygon fill="midnightblue" stroke="midnightblue" points="1362.29,-26.86 1354.66,-19.52 1356.04,-30.02 1362.29,-26.86"/>
</g>
<!-- Node34&#45;&gt;Node16 -->
<g id="edge54" class="edge">
<title>Node34&#45;&gt;Node16</title>
<path fill="none" stroke="midnightblue" d="M852.72,-460.24C932.13,-454.85 1066.15,-432.3 1129,-344 1136.99,-332.78 1136.48,-324.57 1129,-313 1116.45,-293.58 1094.45,-281.55 1073.25,-274.14"/>
<polygon fill="midnightblue" stroke="midnightblue" points="1074.19,-270.76 1063.6,-271.04 1072.06,-277.43 1074.19,-270.76"/>
</g>
<!-- Node34&#45;&gt;Node26 -->
<g id="edge52" class="edge">
<title>Node34&#45;&gt;Node26</title>
<path fill="none" stroke="midnightblue" d="M727.28,-448.68C724.48,-448.11 721.71,-447.55 719,-447 657.29,-434.52 587.06,-420.45 536.44,-410.34"/>
<polygon fill="midnightblue" stroke="midnightblue" points="537.08,-406.9 526.58,-408.38 535.71,-413.77 537.08,-406.9"/>
</g>
<!-- Node34&#45;&gt;Node30 -->
<g id="edge53" class="edge">
<title>Node34&#45;&gt;Node30</title>
<path fill="none" stroke="midnightblue" d="M789.21,-447.3C788.11,-420.53 787.46,-361 800,-313 802.43,-303.68 806.58,-294.01 810.76,-285.65"/>
<polygon fill="midnightblue" stroke="midnightblue" points="813.99,-287.01 815.56,-276.54 807.8,-283.75 813.99,-287.01"/>
</g>
<!-- Node35 -->
<g id="node35" class="node">
<title>Node35</title>
<g id="a_node35"><a xlink:href="thrmask_8h.html" target="_top" xlink:title="ODP thread masks.">
<polygon fill="white" stroke="black" points="817.5,-386 817.5,-405 922.5,-405 922.5,-386 817.5,-386"/>
<text text-anchor="middle" x="870" y="-393" font-family="Helvetica,sans-Serif" font-size="10.00">odp/api/thrmask.h</text>
</a>
</g>
</g>
<!-- Node34&#45;&gt;Node35 -->
<g id="edge55" class="edge">
<title>Node34&#45;&gt;Node35</title>
<path fill="none" stroke="midnightblue" d="M807.36,-447.4C820.33,-436.86 838.03,-422.48 851.31,-411.69"/>
<polygon fill="midnightblue" stroke="midnightblue" points="853.74,-414.22 859.3,-405.19 849.33,-408.78 853.74,-414.22"/>
</g>
<!-- Node36 -->
<g id="node36" class="node">
<title>Node36</title>
<g id="a_node36"><a xlink:title=" ">
<polygon fill="white" stroke="#bfbfbf" points="808.5,-319 808.5,-338 931.5,-338 931.5,-319 808.5,-319"/>
<text text-anchor="middle" x="870" y="-326" font-family="Helvetica,sans-Serif" font-size="10.00">odp/api/abi/thrmask.h</text>
</a>
</g>
</g>
<!-- Node35&#45;&gt;Node36 -->
<g id="edge56" class="edge">
<title>Node35&#45;&gt;Node36</title>
<path fill="none" stroke="midnightblue" d="M870,-385.73C870,-376.18 870,-360.62 870,-348.28"/>
<polygon fill="midnightblue" stroke="midnightblue" points="873.5,-348.13 870,-338.13 866.5,-348.13 873.5,-348.13"/>
</g>
<!-- Node37 -->
<g id="node37" class="node">
<title>Node37</title>
<g id="a_node37"><a xlink:href="spec_2thrmask_8h.html" target="_top" xlink:title="ODP thread masks.">
<polygon fill="white" stroke="black" points="988.5,-319 988.5,-338 1119.5,-338 1119.5,-319 988.5,-319"/>
<text text-anchor="middle" x="1054" y="-326" font-family="Helvetica,sans-Serif" font-size="10.00">odp/api/spec/thrmask.h</text>
</a>
</g>
</g>
<!-- Node35&#45;&gt;Node37 -->
<g id="edge57" class="edge">
<title>Node35&#45;&gt;Node37</title>
<path fill="none" stroke="midnightblue" d="M894.43,-385.87C926.69,-374.47 983.65,-354.35 1020.07,-341.49"/>
<polygon fill="midnightblue" stroke="midnightblue" points="1021.5,-344.69 1029.76,-338.06 1019.16,-338.09 1021.5,-344.69"/>
</g>
<!-- Node37&#45;&gt;Node4 -->
<g id="edge58" class="edge">
<title>Node37&#45;&gt;Node4</title>
<path fill="none" stroke="midnightblue" d="M1036.65,-318.98C1016.33,-308.98 981.67,-291.88 952,-277 924.82,-263.36 919.18,-257.44 891,-246 840.98,-225.7 819.3,-240.84 775,-210 703.75,-160.4 650.75,-67.5 630.73,-28.72"/>
<polygon fill="midnightblue" stroke="midnightblue" points="633.8,-27.03 626.17,-19.69 627.55,-30.19 633.8,-27.03"/>
</g>
<!-- Node37&#45;&gt;Node8 -->
<g id="edge60" class="edge">
<title>Node37&#45;&gt;Node8</title>
<path fill="none" stroke="midnightblue" d="M1119.77,-322.05C1196.21,-311.7 1312,-281.79 1312,-195.5 1312,-195.5 1312,-195.5 1312,-132 1312,-93.81 1329.44,-51.83 1340.69,-28.72"/>
<polygon fill="midnightblue" stroke="midnightblue" points="1343.96,-30.02 1345.34,-19.52 1337.71,-26.86 1343.96,-30.02"/>
</g>
<!-- Node37&#45;&gt;Node16 -->
<g id="edge59" class="edge">
<title>Node37&#45;&gt;Node16</title>
<path fill="none" stroke="midnightblue" d="M1049.01,-318.73C1043.41,-308.89 1034.17,-292.66 1027.05,-280.16"/>
<polygon fill="midnightblue" stroke="midnightblue" points="1029.9,-278.09 1021.91,-271.13 1023.82,-281.55 1029.9,-278.09"/>
</g>
<!-- Node38&#45;&gt;Node28 -->
<g id="edge67" class="edge">
<title>Node38&#45;&gt;Node28</title>
<path fill="none" stroke="midnightblue" d="M272.77,-872.42C271.82,-831.99 268.93,-656.43 286,-514 293.34,-452.71 310.52,-381.5 319.03,-348.32"/>
<polygon fill="midnightblue" stroke="midnightblue" points="322.52,-348.81 321.65,-338.25 315.75,-347.04 322.52,-348.81"/>
</g>
<!-- Node39 -->
<g id="node39" class="node">
<title>Node39</title>
<g id="a_node39"><a xlink:href="spec_2pool__types_8h.html" target="_top" xlink:title="Type definitions for pools.">
<polygon fill="white" stroke="black" points="300.5,-816.5 300.5,-835.5 443.5,-835.5 443.5,-816.5 300.5,-816.5"/>
<text text-anchor="middle" x="372" y="-823.5" font-family="Helvetica,sans-Serif" font-size="10.00">odp/api/spec/pool_types.h</text>
</a>
</g>
</g>
<!-- Node38&#45;&gt;Node39 -->
<g id="edge68" class="edge">
<title>Node38&#45;&gt;Node39</title>
<path fill="none" stroke="midnightblue" d="M288.91,-872.32C304.64,-863.74 328.94,-850.49 347.21,-840.52"/>
<polygon fill="midnightblue" stroke="midnightblue" points="349.03,-843.52 356.13,-835.65 345.68,-837.37 349.03,-843.52"/>
</g>
<!-- Node39&#45;&gt;Node1 -->
<g id="edge71" class="edge">
<title>Node39&#45;&gt;Node1</title>
<path fill="none" stroke="midnightblue" d="M369.64,-835.72C363.42,-857.27 344.67,-913.81 311,-948 297.35,-961.86 278.53,-972.66 262.46,-980.21"/>
<polygon fill="midnightblue" stroke="midnightblue" points="260.59,-977.21 252.89,-984.48 263.44,-983.6 260.59,-977.21"/>
</g>
<!-- Node39&#45;&gt;Node4 -->
<g id="edge69" class="edge">
<title>Node39&#45;&gt;Node4</title>
<path fill="none" stroke="midnightblue" d="M359.69,-816.29C348.3,-807.84 331.31,-794.25 319,-780 241.89,-690.7 38,-447.49 38,-329.5 38,-329.5 38,-329.5 38,-132 38,-87.84 62.8,-76.34 102,-56 178.38,-16.37 427.6,-10.77 551.2,-10.53"/>
<polygon fill="midnightblue" stroke="midnightblue" points="551.32,-14.03 561.31,-10.52 551.31,-7.03 551.32,-14.03"/>
</g>
<!-- Node39&#45;&gt;Node8 -->
<g id="edge80" class="edge">
<title>Node39&#45;&gt;Node8</title>
<path fill="none" stroke="midnightblue" d="M443.59,-824.69C657.88,-823.37 1291.9,-816.41 1495,-780 1584.07,-764.03 1686,-799.99 1686,-709.5 1686,-709.5 1686,-709.5 1686,-132 1686,-76.53 1637.62,-78.68 1587,-56 1532.58,-31.62 1465.39,-20.44 1416.46,-15.32"/>
<polygon fill="midnightblue" stroke="midnightblue" points="1416.61,-11.82 1406.31,-14.31 1415.92,-18.78 1416.61,-11.82"/>
</g>
<!-- Node39&#45;&gt;Node16 -->
<g id="edge70" class="edge">
<title>Node39&#45;&gt;Node16</title>
<path fill="none" stroke="midnightblue" d="M443.56,-820.7C631.43,-808.01 1132.39,-764.6 1252,-657 1297.57,-616 1292,-586.3 1292,-525 1292,-525 1292,-525 1292,-461.5 1292,-350.59 1143.37,-295.2 1064.65,-273.64"/>
<polygon fill="midnightblue" stroke="midnightblue" points="1065.51,-270.25 1054.95,-271.06 1063.71,-277.02 1065.51,-270.25"/>
</g>
<!-- Node40 -->
<g id="node40" class="node">
<title>Node40</title>
<g id="a_node40"><a xlink:href="ml__types_8h.html" target="_top" xlink:title="ODP Machine Learning (ML) types.">
<polygon fill="white" stroke="black" points="328,-760.5 328,-779.5 438,-779.5 438,-760.5 328,-760.5"/>
<text text-anchor="middle" x="383" y="-767.5" font-family="Helvetica,sans-Serif" font-size="10.00">odp/api/ml_types.h</text>
</a>
</g>
</g>
<!-- Node39&#45;&gt;Node40 -->
<g id="edge72" class="edge">
<title>Node39&#45;&gt;Node40</title>
<path fill="none" stroke="midnightblue" d="M373.82,-816.08C375.27,-808.93 377.37,-798.64 379.19,-789.69"/>
<polygon fill="midnightblue" stroke="midnightblue" points="382.65,-790.25 381.22,-779.75 375.79,-788.85 382.65,-790.25"/>
</g>
<!-- Node41 -->
<g id="node41" class="node">
<title>Node41</title>
<g id="a_node41"><a xlink:title=" ">
<polygon fill="white" stroke="#bfbfbf" points="310,-699 310,-718 438,-718 438,-699 310,-699"/>
<text text-anchor="middle" x="374" y="-706" font-family="Helvetica,sans-Serif" font-size="10.00">odp/api/abi/ml_types.h</text>
</a>
</g>
</g>
<!-- Node40&#45;&gt;Node41 -->
<g id="edge73" class="edge">
<title>Node40&#45;&gt;Node41</title>
<path fill="none" stroke="midnightblue" d="M381.71,-760.48C380.44,-752.08 378.46,-738.98 376.82,-728.16"/>
<polygon fill="midnightblue" stroke="midnightblue" points="380.24,-727.37 375.29,-718.01 373.32,-728.42 380.24,-727.37"/>
</g>
<!-- Node42 -->
<g id="node42" class="node">
<title>Node42</title>
<g id="a_node42"><a xlink:href="spec_2ml__types_8h.html" target="_top" xlink:title="ODP Machine Learning (ML) types.">
<polygon fill="white" stroke="black" points="456.5,-699 456.5,-718 591.5,-718 591.5,-699 456.5,-699"/>
<text text-anchor="middle" x="524" y="-706" font-family="Helvetica,sans-Serif" font-size="10.00">odp/api/spec/ml_types.h</text>
</a>
</g>
</g>
<!-- Node40&#45;&gt;Node42 -->
<g id="edge74" class="edge">
<title>Node40&#45;&gt;Node42</title>
<path fill="none" stroke="midnightblue" d="M403.2,-760.48C427.07,-750.4 467,-733.55 494.37,-722"/>
<polygon fill="midnightblue" stroke="midnightblue" points="495.98,-725.12 503.84,-718.01 493.26,-718.67 495.98,-725.12"/>
</g>
<!-- Node42&#45;&gt;Node4 -->
<g id="edge75" class="edge">
<title>Node42&#45;&gt;Node4</title>
<path fill="none" stroke="midnightblue" d="M505.16,-698.94C484.75,-689.44 451.42,-673.3 424,-657 386.38,-634.64 376.49,-629.17 343,-601 310.62,-573.76 76,-371.81 76,-329.5 76,-329.5 76,-329.5 76,-132 76,-35.76 403.42,-16.01 551.16,-12"/>
<polygon fill="midnightblue" stroke="midnightblue" points="551.57,-15.49 561.48,-11.74 551.4,-8.5 551.57,-15.49"/>
</g>
<!-- Node42&#45;&gt;Node5 -->
<g id="edge76" class="edge">
<title>Node42&#45;&gt;Node5</title>
<path fill="none" stroke="midnightblue" d="M510.06,-698.83C495,-689.25 470.54,-673.03 451,-657 316.12,-546.29 256.58,-513.22 214,-344 210.64,-330.64 206.15,-324.32 214,-313 228.41,-292.22 252.49,-279.97 276.35,-272.77"/>
<polygon fill="midnightblue" stroke="midnightblue" points="277.46,-276.09 286.18,-270.06 275.61,-269.34 277.46,-276.09"/>
</g>
<!-- Node42&#45;&gt;Node8 -->
<g id="edge79" class="edge">
<title>Node42&#45;&gt;Node8</title>
<path fill="none" stroke="midnightblue" d="M563.88,-699C604.56,-689.96 669.27,-674.57 724,-657 1001.55,-567.88 1082.18,-561.21 1332,-411 1407.68,-365.5 1464,-350.81 1464,-262.5 1464,-262.5 1464,-262.5 1464,-132 1464,-81.35 1410.42,-43.28 1376.73,-24.34"/>
<polygon fill="midnightblue" stroke="midnightblue" points="1378.27,-21.2 1367.81,-19.52 1374.94,-27.36 1378.27,-21.2"/>
</g>
<!-- Node42&#45;&gt;Node16 -->
<g id="edge78" class="edge">
<title>Node42&#45;&gt;Node16</title>
<path fill="none" stroke="midnightblue" d="M554.45,-698.96C626.52,-677.92 811.73,-619.1 948,-534 1051.18,-469.57 1102.04,-457.8 1145,-344 1149.87,-331.11 1152.75,-324.39 1145,-313 1134.98,-298.28 1093.23,-283.58 1060.09,-273.87"/>
<polygon fill="midnightblue" stroke="midnightblue" points="1060.71,-270.4 1050.13,-271.02 1058.78,-277.13 1060.71,-270.4"/>
</g>
<!-- Node42&#45;&gt;Node23 -->
<g id="edge77" class="edge">
<title>Node42&#45;&gt;Node23</title>
<path fill="none" stroke="midnightblue" d="M524,-698.98C524,-690.58 524,-677.48 524,-666.66"/>
<polygon fill="midnightblue" stroke="midnightblue" points="527.5,-666.51 524,-656.51 520.5,-666.51 527.5,-666.51"/>
</g>
</g>
</svg>
