<?xml version="1.0" encoding="UTF-8" standalone="no"?>
<!DOCTYPE svg PUBLIC "-//W3C//DTD SVG 1.1//EN"
 "http://www.w3.org/Graphics/SVG/1.1/DTD/svg11.dtd">
<!-- Generated by graphviz version 2.43.0 (0)
 -->
<!-- Title: dma.h Pages: 1 -->
<svg width="1287pt" height="1102pt"
 viewBox="0.00 0.00 1287.00 1102.00" xmlns="http://www.w3.org/2000/svg" xmlns:xlink="http://www.w3.org/1999/xlink">
<g id="graph0" class="graph" transform="scale(1 1) rotate(0) translate(4 1098)">
<title>dma.h</title>
<polygon fill="white" stroke="transparent" points="-4,4 -4,-1098 1283,-1098 1283,4 -4,4"/>
<!-- Node1 -->
<g id="node1" class="node">
<title>Node1</title>
<g id="a_node1"><a xlink:title="ODP DMA.">
<polygon fill="#bfbfbf" stroke="black" points="652.5,-1074.5 652.5,-1093.5 699.5,-1093.5 699.5,-1074.5 652.5,-1074.5"/>
<text text-anchor="middle" x="676" y="-1081.5" font-family="Helvetica,sans-Serif" font-size="10.00">dma.h</text>
</a>
</g>
</g>
<!-- Node2 -->
<g id="node2" class="node">
<title>Node2</title>
<g id="a_node2"><a xlink:title=" ">
<polygon fill="white" stroke="#bfbfbf" points="561,-1018.5 561,-1037.5 665,-1037.5 665,-1018.5 561,-1018.5"/>
<text text-anchor="middle" x="613" y="-1025.5" font-family="Helvetica,sans-Serif" font-size="10.00">odp/api/abi/dma.h</text>
</a>
</g>
</g>
<!-- Node1&#45;&gt;Node2 -->
<g id="edge1" class="edge">
<title>Node1&#45;&gt;Node2</title>
<path fill="none" stroke="midnightblue" d="M665.88,-1074.32C656.47,-1066.26 642.26,-1054.08 630.93,-1044.37"/>
<polygon fill="midnightblue" stroke="midnightblue" points="633.18,-1041.68 623.31,-1037.83 628.62,-1047 633.18,-1041.68"/>
</g>
<!-- Node3 -->
<g id="node3" class="node">
<title>Node3</title>
<g id="a_node3"><a xlink:href="spec_2dma_8h.html" target="_top" xlink:title="ODP DMA.">
<polygon fill="white" stroke="black" points="683,-1018.5 683,-1037.5 795,-1037.5 795,-1018.5 683,-1018.5"/>
<text text-anchor="middle" x="739" y="-1025.5" font-family="Helvetica,sans-Serif" font-size="10.00">odp/api/spec/dma.h</text>
</a>
</g>
</g>
<!-- Node1&#45;&gt;Node3 -->
<g id="edge2" class="edge">
<title>Node1&#45;&gt;Node3</title>
<path fill="none" stroke="midnightblue" d="M686.12,-1074.32C695.53,-1066.26 709.74,-1054.08 721.07,-1044.37"/>
<polygon fill="midnightblue" stroke="midnightblue" points="723.38,-1047 728.69,-1037.83 718.82,-1041.68 723.38,-1047"/>
</g>
<!-- Node4 -->
<g id="node4" class="node">
<title>Node4</title>
<g id="a_node4"><a xlink:title=" ">
<polygon fill="white" stroke="#bfbfbf" points="977.5,-0.5 977.5,-19.5 1098.5,-19.5 1098.5,-0.5 977.5,-0.5"/>
<text text-anchor="middle" x="1038" y="-7.5" font-family="Helvetica,sans-Serif" font-size="10.00">odp/visibility_begin.h</text>
</a>
</g>
</g>
<!-- Node3&#45;&gt;Node4 -->
<g id="edge3" class="edge">
<title>Node3&#45;&gt;Node4</title>
<path fill="none" stroke="midnightblue" d="M795.01,-1027.32C933.15,-1026.6 1279,-1015.01 1279,-917 1279,-917 1279,-917 1279,-132 1279,-55.14 1179.88,-27.1 1108.78,-16.87"/>
<polygon fill="midnightblue" stroke="midnightblue" points="1108.88,-13.35 1098.5,-15.48 1107.95,-20.29 1108.88,-13.35"/>
</g>
<!-- Node5 -->
<g id="node5" class="node">
<title>Node5</title>
<g id="a_node5"><a xlink:href="dma__types_8h.html" target="_top" xlink:title="ODP DMA.">
<polygon fill="white" stroke="black" points="146.5,-850.5 146.5,-869.5 265.5,-869.5 265.5,-850.5 146.5,-850.5"/>
<text text-anchor="middle" x="206" y="-857.5" font-family="Helvetica,sans-Serif" font-size="10.00">odp/api/dma_types.h</text>
</a>
</g>
</g>
<!-- Node3&#45;&gt;Node5 -->
<g id="edge4" class="edge">
<title>Node3&#45;&gt;Node5</title>
<path fill="none" stroke="midnightblue" d="M711.47,-1018.42C622.74,-990.79 344.25,-904.06 243.14,-872.57"/>
<polygon fill="midnightblue" stroke="midnightblue" points="243.96,-869.16 233.37,-869.52 241.88,-875.84 243.96,-869.16"/>
</g>
<!-- Node11 -->
<g id="node11" class="node">
<title>Node11</title>
<g id="a_node11"><a xlink:title=" ">
<polygon fill="white" stroke="#bfbfbf" points="292,-0.5 292,-19.5 404,-19.5 404,-0.5 292,-0.5"/>
<text text-anchor="middle" x="348" y="-7.5" font-family="Helvetica,sans-Serif" font-size="10.00">odp/visibility_end.h</text>
</a>
</g>
</g>
<!-- Node3&#45;&gt;Node11 -->
<g id="edge70" class="edge">
<title>Node3&#45;&gt;Node11</title>
<path fill="none" stroke="midnightblue" d="M682.85,-1019.01C510.39,-994.43 0,-921.31 0,-917 0,-917 0,-917 0,-132 0,-94.43 6.66,-78.15 37,-56 74.84,-28.37 201.94,-17.56 281.46,-13.43"/>
<polygon fill="midnightblue" stroke="midnightblue" points="282.06,-16.91 291.88,-12.92 281.72,-9.92 282.06,-16.91"/>
</g>
<!-- Node35 -->
<g id="node35" class="node">
<title>Node35</title>
<g id="a_node35"><a xlink:href="pool__types_8h.html" target="_top" xlink:title="ODP pool.">
<polygon fill="white" stroke="black" points="807,-962.5 807,-981.5 925,-981.5 925,-962.5 807,-962.5"/>
<text text-anchor="middle" x="866" y="-969.5" font-family="Helvetica,sans-Serif" font-size="10.00">odp/api/pool_types.h</text>
</a>
</g>
</g>
<!-- Node3&#45;&gt;Node35 -->
<g id="edge55" class="edge">
<title>Node3&#45;&gt;Node35</title>
<path fill="none" stroke="midnightblue" d="M759.12,-1018.44C780.02,-1009.56 812.93,-995.56 836.72,-985.45"/>
<polygon fill="midnightblue" stroke="midnightblue" points="838.14,-988.65 845.97,-981.52 835.4,-982.21 838.14,-988.65"/>
</g>
<!-- Node6 -->
<g id="node6" class="node">
<title>Node6</title>
<g id="a_node6"><a xlink:title=" ">
<polygon fill="white" stroke="#bfbfbf" points="128.5,-794.5 128.5,-813.5 265.5,-813.5 265.5,-794.5 128.5,-794.5"/>
<text text-anchor="middle" x="197" y="-801.5" font-family="Helvetica,sans-Serif" font-size="10.00">odp/api/abi/dma_types.h</text>
</a>
</g>
</g>
<!-- Node5&#45;&gt;Node6 -->
<g id="edge5" class="edge">
<title>Node5&#45;&gt;Node6</title>
<path fill="none" stroke="midnightblue" d="M204.51,-850.08C203.32,-842.93 201.61,-832.64 200.12,-823.69"/>
<polygon fill="midnightblue" stroke="midnightblue" points="203.55,-823.04 198.46,-813.75 196.65,-824.19 203.55,-823.04"/>
</g>
<!-- Node7 -->
<g id="node7" class="node">
<title>Node7</title>
<g id="a_node7"><a xlink:href="spec_2dma__types_8h.html" target="_top" xlink:title="ODP DMA.">
<polygon fill="white" stroke="black" points="469,-794.5 469,-813.5 613,-813.5 613,-794.5 469,-794.5"/>
<text text-anchor="middle" x="541" y="-801.5" font-family="Helvetica,sans-Serif" font-size="10.00">odp/api/spec/dma_types.h</text>
</a>
</g>
</g>
<!-- Node5&#45;&gt;Node7 -->
<g id="edge6" class="edge">
<title>Node5&#45;&gt;Node7</title>
<path fill="none" stroke="midnightblue" d="M259.08,-850.44C318.5,-840.87 414.72,-825.36 477.93,-815.17"/>
<polygon fill="midnightblue" stroke="midnightblue" points="478.85,-818.56 488.17,-813.52 477.74,-811.65 478.85,-818.56"/>
</g>
<!-- Node7&#45;&gt;Node4 -->
<g id="edge7" class="edge">
<title>Node7&#45;&gt;Node4</title>
<path fill="none" stroke="midnightblue" d="M613.31,-802.75C684.11,-800.39 794,-791 883,-758 955.29,-731.19 1171,-641.6 1171,-564.5 1171,-564.5 1171,-564.5 1171,-132 1171,-94.03 1159.21,-82.47 1132,-56 1116.72,-41.14 1095.59,-30.42 1077.24,-23.19"/>
<polygon fill="midnightblue" stroke="midnightblue" points="1078.25,-19.83 1067.66,-19.62 1075.81,-26.39 1078.25,-19.83"/>
</g>
<!-- Node8 -->
<g id="node8" class="node">
<title>Node8</title>
<g id="a_node8"><a xlink:href="event__types_8h.html" target="_top" xlink:title="ODP event API type definitions.">
<polygon fill="white" stroke="black" points="634.5,-615.5 634.5,-634.5 759.5,-634.5 759.5,-615.5 634.5,-615.5"/>
<text text-anchor="middle" x="697" y="-622.5" font-family="Helvetica,sans-Serif" font-size="10.00">odp/api/event_types.h</text>
</a>
</g>
</g>
<!-- Node7&#45;&gt;Node8 -->
<g id="edge8" class="edge">
<title>Node7&#45;&gt;Node8</title>
<path fill="none" stroke="midnightblue" d="M548.52,-794.46C572.87,-766.85 649.77,-679.58 682.27,-642.71"/>
<polygon fill="midnightblue" stroke="midnightblue" points="685.2,-644.68 689.18,-634.87 679.95,-640.06 685.2,-644.68"/>
</g>
<!-- Node7&#45;&gt;Node11 -->
<g id="edge54" class="edge">
<title>Node7&#45;&gt;Node11</title>
<path fill="none" stroke="midnightblue" d="M478.56,-794.47C343.86,-774.32 38,-718.4 38,-626 38,-626 38,-626 38,-132 38,-96.58 35.15,-79.1 62,-56 94.07,-28.41 207.62,-17.65 281.63,-13.51"/>
<polygon fill="midnightblue" stroke="midnightblue" points="282,-17 291.8,-12.97 281.63,-10.01 282,-17"/>
</g>
<!-- Node12 -->
<g id="node12" class="node">
<title>Node12</title>
<g id="a_node12"><a xlink:href="packet__types_8h.html" target="_top" xlink:title="ODP packet.">
<polygon fill="white" stroke="black" points="327.5,-738.5 327.5,-757.5 456.5,-757.5 456.5,-738.5 327.5,-738.5"/>
<text text-anchor="middle" x="392" y="-745.5" font-family="Helvetica,sans-Serif" font-size="10.00">odp/api/packet_types.h</text>
</a>
</g>
</g>
<!-- Node7&#45;&gt;Node12 -->
<g id="edge13" class="edge">
<title>Node7&#45;&gt;Node12</title>
<path fill="none" stroke="midnightblue" d="M517.39,-794.44C492.54,-785.44 453.23,-771.19 425.25,-761.05"/>
<polygon fill="midnightblue" stroke="midnightblue" points="426.09,-757.63 415.5,-757.52 423.71,-764.21 426.09,-757.63"/>
</g>
<!-- Node19 -->
<g id="node19" class="node">
<title>Node19</title>
<g id="a_node19"><a xlink:href="std__types_8h.html" target="_top" xlink:title="Standard C language types and definitions for ODP.">
<polygon fill="white" stroke="black" points="861,-235.5 861,-254.5 973,-254.5 973,-235.5 861,-235.5"/>
<text text-anchor="middle" x="917" y="-242.5" font-family="Helvetica,sans-Serif" font-size="10.00">odp/api/std_types.h</text>
</a>
</g>
</g>
<!-- Node7&#45;&gt;Node19 -->
<g id="edge53" class="edge">
<title>Node7&#45;&gt;Node19</title>
<path fill="none" stroke="midnightblue" d="M613.33,-797.1C729.07,-785.65 943,-755.3 943,-687.5 943,-687.5 943,-687.5 943,-372.5 943,-333.42 930.95,-288.91 923.25,-264.49"/>
<polygon fill="midnightblue" stroke="midnightblue" points="926.51,-263.19 920.08,-254.77 919.86,-265.36 926.51,-263.19"/>
</g>
<!-- Node26 -->
<g id="node26" class="node">
<title>Node26</title>
<g id="a_node26"><a xlink:href="queue__types_8h.html" target="_top" xlink:title="ODP queue.">
<polygon fill="white" stroke="black" points="335.5,-615.5 335.5,-634.5 462.5,-634.5 462.5,-615.5 335.5,-615.5"/>
<text text-anchor="middle" x="399" y="-622.5" font-family="Helvetica,sans-Serif" font-size="10.00">odp/api/queue_types.h</text>
</a>
</g>
</g>
<!-- Node7&#45;&gt;Node26 -->
<g id="edge52" class="edge">
<title>Node7&#45;&gt;Node26</title>
<path fill="none" stroke="midnightblue" d="M542.5,-794.43C545.98,-771.55 552.19,-708.22 522,-671 508.64,-654.53 488.7,-644.09 468.74,-637.47"/>
<polygon fill="midnightblue" stroke="midnightblue" points="469.55,-634.06 458.97,-634.52 467.53,-640.76 469.55,-634.06"/>
</g>
<!-- Node9 -->
<g id="node9" class="node">
<title>Node9</title>
<g id="a_node9"><a xlink:title=" ">
<polygon fill="white" stroke="#bfbfbf" points="549.5,-554 549.5,-573 692.5,-573 692.5,-554 549.5,-554"/>
<text text-anchor="middle" x="621" y="-561" font-family="Helvetica,sans-Serif" font-size="10.00">odp/api/abi/event_types.h</text>
</a>
</g>
</g>
<!-- Node8&#45;&gt;Node9 -->
<g id="edge9" class="edge">
<title>Node8&#45;&gt;Node9</title>
<path fill="none" stroke="midnightblue" d="M686.11,-615.48C674.03,-606.02 654.33,-590.6 639.76,-579.19"/>
<polygon fill="midnightblue" stroke="midnightblue" points="641.9,-576.42 631.87,-573.01 637.59,-581.93 641.9,-576.42"/>
</g>
<!-- Node10 -->
<g id="node10" class="node">
<title>Node10</title>
<g id="a_node10"><a xlink:href="spec_2event__types_8h.html" target="_top" xlink:title="ODP event API type definitions.">
<polygon fill="white" stroke="black" points="471.5,-56.5 471.5,-86.5 580.5,-86.5 580.5,-56.5 471.5,-56.5"/>
<text text-anchor="start" x="479.5" y="-74.5" font-family="Helvetica,sans-Serif" font-size="10.00">odp/api/spec/event</text>
<text text-anchor="middle" x="526" y="-63.5" font-family="Helvetica,sans-Serif" font-size="10.00">_types.h</text>
</a>
</g>
</g>
<!-- Node8&#45;&gt;Node10 -->
<g id="edge10" class="edge">
<title>Node8&#45;&gt;Node10</title>
<path fill="none" stroke="midnightblue" d="M700.99,-615.33C707.43,-599.91 717.86,-567.48 702,-548 652.14,-486.76 578,-573.12 528,-512 475.87,-448.27 510.21,-179.65 522.28,-96.88"/>
<polygon fill="midnightblue" stroke="midnightblue" points="525.75,-97.3 523.76,-86.89 518.83,-96.27 525.75,-97.3"/>
</g>
<!-- Node10&#45;&gt;Node4 -->
<g id="edge11" class="edge">
<title>Node10&#45;&gt;Node4</title>
<path fill="none" stroke="midnightblue" d="M580.75,-62.39C596.03,-60.22 612.65,-57.93 628,-56 746.89,-41.03 885.54,-26.4 967.32,-18.07"/>
<polygon fill="midnightblue" stroke="midnightblue" points="967.9,-21.53 977.49,-17.03 967.19,-14.56 967.9,-21.53"/>
</g>
<!-- Node10&#45;&gt;Node11 -->
<g id="edge12" class="edge">
<title>Node10&#45;&gt;Node11</title>
<path fill="none" stroke="midnightblue" d="M483.82,-56.4C453.19,-46.16 412.23,-32.47 383.33,-22.81"/>
<polygon fill="midnightblue" stroke="midnightblue" points="384.23,-19.42 373.64,-19.57 382.02,-26.06 384.23,-19.42"/>
</g>
<!-- Node13 -->
<g id="node13" class="node">
<title>Node13</title>
<g id="a_node13"><a xlink:title=" ">
<polygon fill="white" stroke="#bfbfbf" points="283,-671.5 283,-701.5 389,-701.5 389,-671.5 283,-671.5"/>
<text text-anchor="start" x="291" y="-689.5" font-family="Helvetica,sans-Serif" font-size="10.00">odp/api/abi/packet</text>
<text text-anchor="middle" x="336" y="-678.5" font-family="Helvetica,sans-Serif" font-size="10.00">_io_types.h</text>
</a>
</g>
</g>
<!-- Node12&#45;&gt;Node13 -->
<g id="edge14" class="edge">
<title>Node12&#45;&gt;Node13</title>
<path fill="none" stroke="midnightblue" d="M383.98,-738.48C376.75,-730.79 365.81,-719.17 356.2,-708.96"/>
<polygon fill="midnightblue" stroke="midnightblue" points="358.6,-706.41 349.2,-701.52 353.5,-711.2 358.6,-706.41"/>
</g>
<!-- Node14 -->
<g id="node14" class="node">
<title>Node14</title>
<g id="a_node14"><a xlink:title=" ">
<polygon fill="white" stroke="#bfbfbf" points="407,-671.5 407,-701.5 513,-701.5 513,-671.5 407,-671.5"/>
<text text-anchor="start" x="415" y="-689.5" font-family="Helvetica,sans-Serif" font-size="10.00">odp/api/abi/packet</text>
<text text-anchor="middle" x="460" y="-678.5" font-family="Helvetica,sans-Serif" font-size="10.00">_types.h</text>
</a>
</g>
</g>
<!-- Node12&#45;&gt;Node14 -->
<g id="edge15" class="edge">
<title>Node12&#45;&gt;Node14</title>
<path fill="none" stroke="midnightblue" d="M401.74,-738.48C410.69,-730.64 424.33,-718.71 436.15,-708.37"/>
<polygon fill="midnightblue" stroke="midnightblue" points="438.75,-710.74 443.97,-701.52 434.14,-705.47 438.75,-710.74"/>
</g>
<!-- Node15 -->
<g id="node15" class="node">
<title>Node15</title>
<g id="a_node15"><a xlink:href="spec_2packet__types_8h.html" target="_top" xlink:title="ODP packet types.">
<polygon fill="white" stroke="black" points="151.5,-671.5 151.5,-701.5 264.5,-701.5 264.5,-671.5 151.5,-671.5"/>
<text text-anchor="start" x="159.5" y="-689.5" font-family="Helvetica,sans-Serif" font-size="10.00">odp/api/spec/packet</text>
<text text-anchor="middle" x="208" y="-678.5" font-family="Helvetica,sans-Serif" font-size="10.00">_types.h</text>
</a>
</g>
</g>
<!-- Node12&#45;&gt;Node15 -->
<g id="edge16" class="edge">
<title>Node12&#45;&gt;Node15</title>
<path fill="none" stroke="midnightblue" d="M365.64,-738.48C338.5,-729.7 295.48,-715.79 261.23,-704.71"/>
<polygon fill="midnightblue" stroke="midnightblue" points="261.96,-701.27 251.37,-701.52 259.8,-707.93 261.96,-701.27"/>
</g>
<!-- Node15&#45;&gt;Node4 -->
<g id="edge17" class="edge">
<title>Node15&#45;&gt;Node4</title>
<path fill="none" stroke="midnightblue" d="M227.73,-671.47C250.63,-655.75 290,-630.46 327,-615 385.09,-590.72 404.24,-598.8 464,-579 499.02,-567.4 505.58,-558.32 541,-548 698.31,-502.16 753.85,-533.9 898,-456 1010.58,-395.16 1095,-373.97 1095,-246 1095,-246 1095,-246 1095,-132 1095,-91.59 1068.66,-50.21 1051.79,-27.85"/>
<polygon fill="midnightblue" stroke="midnightblue" points="1054.37,-25.46 1045.45,-19.74 1048.85,-29.77 1054.37,-25.46"/>
</g>
<!-- Node15&#45;&gt;Node11 -->
<g id="edge51" class="edge">
<title>Node15&#45;&gt;Node11</title>
<path fill="none" stroke="midnightblue" d="M186.67,-671.49C158.94,-651.4 114,-611.58 114,-564.5 114,-564.5 114,-564.5 114,-132 114,-55.93 212.77,-27.63 281.97,-17.14"/>
<polygon fill="midnightblue" stroke="midnightblue" points="282.55,-20.59 291.95,-15.72 281.56,-13.66 282.55,-20.59"/>
</g>
<!-- Node16 -->
<g id="node16" class="node">
<title>Node16</title>
<g id="a_node16"><a xlink:href="proto__stats__types_8h.html" target="_top" xlink:title="ODP proto stats types.">
<polygon fill="white" stroke="black" points="189,-358.5 189,-388.5 299,-388.5 299,-358.5 189,-358.5"/>
<text text-anchor="start" x="197" y="-376.5" font-family="Helvetica,sans-Serif" font-size="10.00">odp/api/proto_stats</text>
<text text-anchor="middle" x="244" y="-365.5" font-family="Helvetica,sans-Serif" font-size="10.00">_types.h</text>
</a>
</g>
</g>
<!-- Node15&#45;&gt;Node16 -->
<g id="edge18" class="edge">
<title>Node15&#45;&gt;Node16</title>
<path fill="none" stroke="midnightblue" d="M196.4,-671.22C179.99,-649.54 152,-606.4 152,-564.5 152,-564.5 152,-564.5 152,-501 152,-456.95 188.94,-417.93 216.01,-395.26"/>
<polygon fill="midnightblue" stroke="midnightblue" points="218.47,-397.77 224.04,-388.76 214.06,-392.33 218.47,-397.77"/>
</g>
<!-- Node15&#45;&gt;Node26 -->
<g id="edge34" class="edge">
<title>Node15&#45;&gt;Node26</title>
<path fill="none" stroke="midnightblue" d="M253.26,-671.4C286.41,-661.07 330.85,-647.23 361.9,-637.56"/>
<polygon fill="midnightblue" stroke="midnightblue" points="362.98,-640.89 371.49,-634.57 360.9,-634.2 362.98,-640.89"/>
</g>
<!-- Node17 -->
<g id="node17" class="node">
<title>Node17</title>
<g id="a_node17"><a xlink:title=" ">
<polygon fill="white" stroke="#bfbfbf" points="180,-291.5 180,-321.5 308,-321.5 308,-291.5 180,-291.5"/>
<text text-anchor="start" x="188" y="-309.5" font-family="Helvetica,sans-Serif" font-size="10.00">odp/api/abi/proto_stats</text>
<text text-anchor="middle" x="244" y="-298.5" font-family="Helvetica,sans-Serif" font-size="10.00">_types.h</text>
</a>
</g>
</g>
<!-- Node16&#45;&gt;Node17 -->
<g id="edge19" class="edge">
<title>Node16&#45;&gt;Node17</title>
<path fill="none" stroke="midnightblue" d="M244,-358.4C244,-350.64 244,-340.81 244,-331.86"/>
<polygon fill="midnightblue" stroke="midnightblue" points="247.5,-331.58 244,-321.58 240.5,-331.58 247.5,-331.58"/>
</g>
<!-- Node18 -->
<g id="node18" class="node">
<title>Node18</title>
<g id="a_node18"><a xlink:href="spec_2proto__stats__types_8h.html" target="_top" xlink:title="ODP proto stats types.">
<polygon fill="white" stroke="black" points="364.5,-291.5 364.5,-321.5 471.5,-321.5 471.5,-291.5 364.5,-291.5"/>
<text text-anchor="start" x="372.5" y="-309.5" font-family="Helvetica,sans-Serif" font-size="10.00">odp/api/spec/proto</text>
<text text-anchor="middle" x="418" y="-298.5" font-family="Helvetica,sans-Serif" font-size="10.00">_stats_types.h</text>
</a>
</g>
</g>
<!-- Node16&#45;&gt;Node18 -->
<g id="edge20" class="edge">
<title>Node16&#45;&gt;Node18</title>
<path fill="none" stroke="midnightblue" d="M281.76,-358.4C307.86,-348.64 342.79,-335.59 370.75,-325.15"/>
<polygon fill="midnightblue" stroke="midnightblue" points="372.18,-328.35 380.32,-321.58 369.73,-321.8 372.18,-328.35"/>
</g>
<!-- Node18&#45;&gt;Node4 -->
<g id="edge21" class="edge">
<title>Node18&#45;&gt;Node4</title>
<path fill="none" stroke="midnightblue" d="M433.45,-291.37C470.46,-258.13 568.08,-173.96 662,-123 702.79,-100.87 719.54,-109.73 760,-87 779.3,-76.16 778.86,-65.21 799,-56 852.32,-31.62 918.13,-20.45 967.18,-15.33"/>
<polygon fill="midnightblue" stroke="midnightblue" points="967.77,-18.79 977.38,-14.33 967.08,-11.82 967.77,-18.79"/>
</g>
<!-- Node18&#45;&gt;Node11 -->
<g id="edge33" class="edge">
<title>Node18&#45;&gt;Node11</title>
<path fill="none" stroke="midnightblue" d="M407.18,-291.44C392.21,-270.53 367,-229.46 367,-190 367,-190 367,-190 367,-132 367,-95.29 358.36,-53.06 352.73,-29.45"/>
<polygon fill="midnightblue" stroke="midnightblue" points="356.13,-28.6 350.33,-19.73 349.33,-30.28 356.13,-28.6"/>
</g>
<!-- Node18&#45;&gt;Node19 -->
<g id="edge22" class="edge">
<title>Node18&#45;&gt;Node19</title>
<path fill="none" stroke="midnightblue" d="M471.88,-299.08C563.85,-288.11 750.88,-265.81 850.71,-253.9"/>
<polygon fill="midnightblue" stroke="midnightblue" points="851.17,-257.37 860.68,-252.72 850.34,-250.42 851.17,-257.37"/>
</g>
<!-- Node20 -->
<g id="node20" class="node">
<title>Node20</title>
<g id="a_node20"><a xlink:title=" ">
<polygon fill="white" stroke="#bfbfbf" points="861,-179.5 861,-198.5 991,-198.5 991,-179.5 861,-179.5"/>
<text text-anchor="middle" x="926" y="-186.5" font-family="Helvetica,sans-Serif" font-size="10.00">odp/api/abi/std_types.h</text>
</a>
</g>
</g>
<!-- Node19&#45;&gt;Node20 -->
<g id="edge23" class="edge">
<title>Node19&#45;&gt;Node20</title>
<path fill="none" stroke="midnightblue" d="M918.49,-235.08C919.68,-227.93 921.39,-217.64 922.88,-208.69"/>
<polygon fill="midnightblue" stroke="midnightblue" points="926.35,-209.19 924.54,-198.75 919.45,-208.04 926.35,-209.19"/>
</g>
<!-- Node21 -->
<g id="node21" class="node">
<title>Node21</title>
<g id="a_node21"><a xlink:href="spec_2std__types_8h.html" target="_top" xlink:title="Common types and definitions for ODP API files.">
<polygon fill="white" stroke="black" points="667.5,-179.5 667.5,-198.5 804.5,-198.5 804.5,-179.5 667.5,-179.5"/>
<text text-anchor="middle" x="736" y="-186.5" font-family="Helvetica,sans-Serif" font-size="10.00">odp/api/spec/std_types.h</text>
</a>
</g>
</g>
<!-- Node19&#45;&gt;Node21 -->
<g id="edge24" class="edge">
<title>Node19&#45;&gt;Node21</title>
<path fill="none" stroke="midnightblue" d="M888.32,-235.44C857.47,-226.24 808.27,-211.56 774.17,-201.39"/>
<polygon fill="midnightblue" stroke="midnightblue" points="775.13,-198.02 764.55,-198.52 773.13,-204.73 775.13,-198.02"/>
</g>
<!-- Node21&#45;&gt;Node4 -->
<g id="edge25" class="edge">
<title>Node21&#45;&gt;Node4</title>
<path fill="none" stroke="midnightblue" d="M758.87,-179.48C780.32,-171.17 813.04,-157.66 840,-143 900.1,-110.31 910.33,-94.34 967,-56 982.96,-45.2 1001.35,-33.57 1015.42,-24.83"/>
<polygon fill="midnightblue" stroke="midnightblue" points="1017.3,-27.79 1023.96,-19.55 1013.62,-21.83 1017.3,-27.79"/>
</g>
<!-- Node21&#45;&gt;Node11 -->
<g id="edge32" class="edge">
<title>Node21&#45;&gt;Node11</title>
<path fill="none" stroke="midnightblue" d="M718.46,-179.47C702.74,-171.35 679.52,-158.14 662,-143 624.03,-110.17 633.26,-81.44 590,-56 536.41,-24.48 465.58,-14.25 414.41,-11.3"/>
<polygon fill="midnightblue" stroke="midnightblue" points="414.28,-7.79 404.12,-10.78 413.94,-14.78 414.28,-7.79"/>
</g>
<!-- Node22 -->
<g id="node22" class="node">
<title>Node22</title>
<g id="a_node22"><a xlink:title=" ">
<polygon fill="white" stroke="#bfbfbf" points="777.5,-123.5 777.5,-142.5 830.5,-142.5 830.5,-123.5 777.5,-123.5"/>
<text text-anchor="middle" x="804" y="-130.5" font-family="Helvetica,sans-Serif" font-size="10.00">stdint.h</text>
</a>
</g>
</g>
<!-- Node21&#45;&gt;Node22 -->
<g id="edge26" class="edge">
<title>Node21&#45;&gt;Node22</title>
<path fill="none" stroke="midnightblue" d="M746.93,-179.32C757.17,-171.18 772.72,-158.84 785,-149.09"/>
<polygon fill="midnightblue" stroke="midnightblue" points="787.22,-151.79 792.88,-142.83 782.87,-146.31 787.22,-151.79"/>
</g>
<!-- Node23 -->
<g id="node23" class="node">
<title>Node23</title>
<g id="a_node23"><a xlink:href="align_8h.html" target="_top" xlink:title="ODP alignments.">
<polygon fill="white" stroke="black" points="670.5,-123.5 670.5,-142.5 759.5,-142.5 759.5,-123.5 670.5,-123.5"/>
<text text-anchor="middle" x="715" y="-130.5" font-family="Helvetica,sans-Serif" font-size="10.00">odp/api/align.h</text>
</a>
</g>
</g>
<!-- Node21&#45;&gt;Node23 -->
<g id="edge27" class="edge">
<title>Node21&#45;&gt;Node23</title>
<path fill="none" stroke="midnightblue" d="M732.53,-179.08C729.69,-171.77 725.57,-161.18 722.04,-152.1"/>
<polygon fill="midnightblue" stroke="midnightblue" points="725.29,-150.8 718.4,-142.75 718.77,-153.34 725.29,-150.8"/>
</g>
<!-- Node24 -->
<g id="node24" class="node">
<title>Node24</title>
<g id="a_node24"><a xlink:title=" ">
<polygon fill="white" stroke="#bfbfbf" points="807.5,-62 807.5,-81 914.5,-81 914.5,-62 807.5,-62"/>
<text text-anchor="middle" x="861" y="-69" font-family="Helvetica,sans-Serif" font-size="10.00">odp/api/abi/align.h</text>
</a>
</g>
</g>
<!-- Node23&#45;&gt;Node24 -->
<g id="edge28" class="edge">
<title>Node23&#45;&gt;Node24</title>
<path fill="none" stroke="midnightblue" d="M735.92,-123.48C760.75,-113.36 802.34,-96.4 830.69,-84.85"/>
<polygon fill="midnightblue" stroke="midnightblue" points="832.18,-88.02 840.12,-81.01 829.54,-81.54 832.18,-88.02"/>
</g>
<!-- Node25 -->
<g id="node25" class="node">
<title>Node25</title>
<g id="a_node25"><a xlink:href="spec_2align_8h.html" target="_top" xlink:title="ODP alignments.">
<polygon fill="white" stroke="black" points="637,-62 637,-81 751,-81 751,-62 637,-62"/>
<text text-anchor="middle" x="694" y="-69" font-family="Helvetica,sans-Serif" font-size="10.00">odp/api/spec/align.h</text>
</a>
</g>
</g>
<!-- Node23&#45;&gt;Node25 -->
<g id="edge29" class="edge">
<title>Node23&#45;&gt;Node25</title>
<path fill="none" stroke="midnightblue" d="M711.99,-123.48C708.97,-114.9 704.21,-101.43 700.35,-90.48"/>
<polygon fill="midnightblue" stroke="midnightblue" points="703.63,-89.27 697,-81.01 697.03,-91.6 703.63,-89.27"/>
</g>
<!-- Node25&#45;&gt;Node4 -->
<g id="edge30" class="edge">
<title>Node25&#45;&gt;Node4</title>
<path fill="none" stroke="midnightblue" d="M734.5,-61.95C744.46,-59.93 755.1,-57.83 765,-56 835.71,-42.96 917.06,-29.78 972.44,-21.09"/>
<polygon fill="midnightblue" stroke="midnightblue" points="973.13,-24.52 982.47,-19.52 972.05,-17.61 973.13,-24.52"/>
</g>
<!-- Node25&#45;&gt;Node11 -->
<g id="edge31" class="edge">
<title>Node25&#45;&gt;Node11</title>
<path fill="none" stroke="midnightblue" d="M653.5,-61.94C643.54,-59.92 632.9,-57.82 623,-56 551.89,-42.93 470.09,-29.78 414.31,-21.1"/>
<polygon fill="midnightblue" stroke="midnightblue" points="414.62,-17.61 404.2,-19.54 413.55,-24.53 414.62,-17.61"/>
</g>
<!-- Node27 -->
<g id="node27" class="node">
<title>Node27</title>
<g id="a_node27"><a xlink:title=" ">
<polygon fill="white" stroke="#bfbfbf" points="180.5,-554 180.5,-573 325.5,-573 325.5,-554 180.5,-554"/>
<text text-anchor="middle" x="253" y="-561" font-family="Helvetica,sans-Serif" font-size="10.00">odp/api/abi/queue_types.h</text>
</a>
</g>
</g>
<!-- Node26&#45;&gt;Node27 -->
<g id="edge35" class="edge">
<title>Node26&#45;&gt;Node27</title>
<path fill="none" stroke="midnightblue" d="M378.08,-615.48C353.25,-605.36 311.66,-588.4 283.31,-576.85"/>
<polygon fill="midnightblue" stroke="midnightblue" points="284.46,-573.54 273.88,-573.01 281.82,-580.02 284.46,-573.54"/>
</g>
<!-- Node28 -->
<g id="node28" class="node">
<title>Node28</title>
<g id="a_node28"><a xlink:href="spec_2queue__types_8h.html" target="_top" xlink:title="ODP queue types.">
<polygon fill="white" stroke="black" points="343.5,-548.5 343.5,-578.5 454.5,-578.5 454.5,-548.5 343.5,-548.5"/>
<text text-anchor="start" x="351.5" y="-566.5" font-family="Helvetica,sans-Serif" font-size="10.00">odp/api/spec/queue</text>
<text text-anchor="middle" x="399" y="-555.5" font-family="Helvetica,sans-Serif" font-size="10.00">_types.h</text>
</a>
</g>
</g>
<!-- Node26&#45;&gt;Node28 -->
<g id="edge36" class="edge">
<title>Node26&#45;&gt;Node28</title>
<path fill="none" stroke="midnightblue" d="M399,-615.48C399,-608.47 399,-598.19 399,-588.7"/>
<polygon fill="midnightblue" stroke="midnightblue" points="402.5,-588.52 399,-578.52 395.5,-588.52 402.5,-588.52"/>
</g>
<!-- Node28&#45;&gt;Node4 -->
<g id="edge37" class="edge">
<title>Node28&#45;&gt;Node4</title>
<path fill="none" stroke="midnightblue" d="M454.56,-554.24C525.35,-543.46 643.6,-524.49 686,-512 847.98,-464.31 910.6,-454.71 1015,-322 1038.86,-291.67 1057,-284.59 1057,-246 1057,-246 1057,-246 1057,-132 1057,-95.29 1048.36,-53.06 1042.73,-29.45"/>
<polygon fill="midnightblue" stroke="midnightblue" points="1046.13,-28.6 1040.33,-19.73 1039.33,-30.28 1046.13,-28.6"/>
</g>
<!-- Node28&#45;&gt;Node11 -->
<g id="edge50" class="edge">
<title>Node28&#45;&gt;Node11</title>
<path fill="none" stroke="midnightblue" d="M370.13,-548.37C322.29,-523.34 227.19,-466.47 180,-389 146.31,-333.69 152,-310.76 152,-246 152,-246 152,-246 152,-132 152,-67.36 230.15,-36.11 287.75,-21.85"/>
<polygon fill="midnightblue" stroke="midnightblue" points="288.6,-25.25 297.53,-19.54 286.99,-18.43 288.6,-25.25"/>
</g>
<!-- Node29 -->
<g id="node29" class="node">
<title>Node29</title>
<g id="a_node29"><a xlink:href="schedule__types_8h.html" target="_top" xlink:title="ODP schedule.">
<polygon fill="white" stroke="black" points="537,-492.5 537,-511.5 677,-511.5 677,-492.5 537,-492.5"/>
<text text-anchor="middle" x="607" y="-499.5" font-family="Helvetica,sans-Serif" font-size="10.00">odp/api/schedule_types.h</text>
</a>
</g>
</g>
<!-- Node28&#45;&gt;Node29 -->
<g id="edge38" class="edge">
<title>Node28&#45;&gt;Node29</title>
<path fill="none" stroke="midnightblue" d="M448.03,-548.47C484.38,-538.08 533.31,-524.08 567.25,-514.37"/>
<polygon fill="midnightblue" stroke="midnightblue" points="568.61,-517.62 577.26,-511.51 566.69,-510.89 568.61,-517.62"/>
</g>
<!-- Node30 -->
<g id="node30" class="node">
<title>Node30</title>
<g id="a_node30"><a xlink:title=" ">
<polygon fill="white" stroke="#bfbfbf" points="548.5,-425.5 548.5,-455.5 665.5,-455.5 665.5,-425.5 548.5,-425.5"/>
<text text-anchor="start" x="556.5" y="-443.5" font-family="Helvetica,sans-Serif" font-size="10.00">odp/api/abi/schedule</text>
<text text-anchor="middle" x="607" y="-432.5" font-family="Helvetica,sans-Serif" font-size="10.00">_types.h</text>
</a>
</g>
</g>
<!-- Node29&#45;&gt;Node30 -->
<g id="edge39" class="edge">
<title>Node29&#45;&gt;Node30</title>
<path fill="none" stroke="midnightblue" d="M607,-492.48C607,-485.47 607,-475.19 607,-465.7"/>
<polygon fill="midnightblue" stroke="midnightblue" points="610.5,-465.52 607,-455.52 603.5,-465.52 610.5,-465.52"/>
</g>
<!-- Node31 -->
<g id="node31" class="node">
<title>Node31</title>
<g id="a_node31"><a xlink:href="spec_2schedule__types_8h.html" target="_top" xlink:title="ODP schedule types.">
<polygon fill="white" stroke="black" points="684.5,-425.5 684.5,-455.5 809.5,-455.5 809.5,-425.5 684.5,-425.5"/>
<text text-anchor="start" x="692.5" y="-443.5" font-family="Helvetica,sans-Serif" font-size="10.00">odp/api/spec/schedule</text>
<text text-anchor="middle" x="747" y="-432.5" font-family="Helvetica,sans-Serif" font-size="10.00">_types.h</text>
</a>
</g>
</g>
<!-- Node29&#45;&gt;Node31 -->
<g id="edge40" class="edge">
<title>Node29&#45;&gt;Node31</title>
<path fill="none" stroke="midnightblue" d="M627.06,-492.48C647.17,-483.93 678.76,-470.5 704.47,-459.57"/>
<polygon fill="midnightblue" stroke="midnightblue" points="706.17,-462.66 714,-455.52 703.43,-456.21 706.17,-462.66"/>
</g>
<!-- Node31&#45;&gt;Node4 -->
<g id="edge41" class="edge">
<title>Node31&#45;&gt;Node4</title>
<path fill="none" stroke="midnightblue" d="M806.69,-425.48C886.76,-402.71 1019,-349.44 1019,-246 1019,-246 1019,-246 1019,-132 1019,-95.29 1027.64,-53.06 1033.27,-29.45"/>
<polygon fill="midnightblue" stroke="midnightblue" points="1036.67,-30.28 1035.67,-19.73 1029.87,-28.6 1036.67,-30.28"/>
</g>
<!-- Node31&#45;&gt;Node11 -->
<g id="edge49" class="edge">
<title>Node31&#45;&gt;Node11</title>
<path fill="none" stroke="midnightblue" d="M716.15,-425.41C676.34,-406.16 606.42,-368.63 558,-322 507.54,-273.41 393.66,-86.98 358.52,-28.59"/>
<polygon fill="midnightblue" stroke="midnightblue" points="361.39,-26.57 353.24,-19.79 355.39,-30.17 361.39,-26.57"/>
</g>
<!-- Node31&#45;&gt;Node19 -->
<g id="edge42" class="edge">
<title>Node31&#45;&gt;Node19</title>
<path fill="none" stroke="midnightblue" d="M766.74,-425.36C779.46,-415.8 795.99,-402.49 809,-389 848.98,-347.52 887.63,-291.23 905.95,-263.26"/>
<polygon fill="midnightblue" stroke="midnightblue" points="909.05,-264.91 911.56,-254.62 903.18,-261.1 909.05,-264.91"/>
</g>
<!-- Node32 -->
<g id="node32" class="node">
<title>Node32</title>
<g id="a_node32"><a xlink:href="thrmask_8h.html" target="_top" xlink:title="ODP thread masks.">
<polygon fill="white" stroke="black" points="694.5,-364 694.5,-383 799.5,-383 799.5,-364 694.5,-364"/>
<text text-anchor="middle" x="747" y="-371" font-family="Helvetica,sans-Serif" font-size="10.00">odp/api/thrmask.h</text>
</a>
</g>
</g>
<!-- Node31&#45;&gt;Node32 -->
<g id="edge43" class="edge">
<title>Node31&#45;&gt;Node32</title>
<path fill="none" stroke="midnightblue" d="M747,-425.4C747,-416.06 747,-403.71 747,-393.52"/>
<polygon fill="midnightblue" stroke="midnightblue" points="750.5,-393.19 747,-383.19 743.5,-393.19 750.5,-393.19"/>
</g>
<!-- Node33 -->
<g id="node33" class="node">
<title>Node33</title>
<g id="a_node33"><a xlink:title=" ">
<polygon fill="white" stroke="#bfbfbf" points="566.5,-297 566.5,-316 689.5,-316 689.5,-297 566.5,-297"/>
<text text-anchor="middle" x="628" y="-304" font-family="Helvetica,sans-Serif" font-size="10.00">odp/api/abi/thrmask.h</text>
</a>
</g>
</g>
<!-- Node32&#45;&gt;Node33 -->
<g id="edge44" class="edge">
<title>Node32&#45;&gt;Node33</title>
<path fill="none" stroke="midnightblue" d="M730.95,-363.73C710.88,-352.77 676.3,-333.88 652.81,-321.05"/>
<polygon fill="midnightblue" stroke="midnightblue" points="654.25,-317.85 643.79,-316.13 650.89,-323.99 654.25,-317.85"/>
</g>
<!-- Node34 -->
<g id="node34" class="node">
<title>Node34</title>
<g id="a_node34"><a xlink:href="spec_2thrmask_8h.html" target="_top" xlink:title="ODP thread masks.">
<polygon fill="white" stroke="black" points="707.5,-297 707.5,-316 838.5,-316 838.5,-297 707.5,-297"/>
<text text-anchor="middle" x="773" y="-304" font-family="Helvetica,sans-Serif" font-size="10.00">odp/api/spec/thrmask.h</text>
</a>
</g>
</g>
<!-- Node32&#45;&gt;Node34 -->
<g id="edge45" class="edge">
<title>Node32&#45;&gt;Node34</title>
<path fill="none" stroke="midnightblue" d="M750.51,-363.73C754.4,-353.99 760.81,-337.98 765.79,-325.53"/>
<polygon fill="midnightblue" stroke="midnightblue" points="769.08,-326.71 769.55,-316.13 762.59,-324.11 769.08,-326.71"/>
</g>
<!-- Node34&#45;&gt;Node4 -->
<g id="edge46" class="edge">
<title>Node34&#45;&gt;Node4</title>
<path fill="none" stroke="midnightblue" d="M777.2,-296.92C787.86,-275.61 817.59,-219.08 852,-179 892.85,-131.41 912.61,-129.2 959,-87 981.3,-66.72 1006.25,-42.44 1022.03,-26.87"/>
<polygon fill="midnightblue" stroke="midnightblue" points="1024.74,-29.12 1029.38,-19.6 1019.81,-24.14 1024.74,-29.12"/>
</g>
<!-- Node34&#45;&gt;Node11 -->
<g id="edge48" class="edge">
<title>Node34&#45;&gt;Node11</title>
<path fill="none" stroke="midnightblue" d="M755.75,-296.95C711.74,-274.74 592.56,-212.1 505,-143 462.32,-109.32 461.34,-90.1 419,-56 404.36,-44.21 386.48,-32.89 372.33,-24.56"/>
<polygon fill="midnightblue" stroke="midnightblue" points="374.05,-21.51 363.64,-19.54 370.54,-27.57 374.05,-21.51"/>
</g>
<!-- Node34&#45;&gt;Node19 -->
<g id="edge47" class="edge">
<title>Node34&#45;&gt;Node19</title>
<path fill="none" stroke="midnightblue" d="M793.63,-296.98C818.12,-286.86 859.15,-269.9 887.11,-258.35"/>
<polygon fill="midnightblue" stroke="midnightblue" points="888.5,-261.56 896.41,-254.51 885.83,-255.09 888.5,-261.56"/>
</g>
<!-- Node36 -->
<g id="node36" class="node">
<title>Node36</title>
<g id="a_node36"><a xlink:title=" ">
<polygon fill="white" stroke="#bfbfbf" points="956,-906.5 956,-925.5 1092,-925.5 1092,-906.5 956,-906.5"/>
<text text-anchor="middle" x="1024" y="-913.5" font-family="Helvetica,sans-Serif" font-size="10.00">odp/api/abi/pool_types.h</text>
</a>
</g>
</g>
<!-- Node35&#45;&gt;Node36 -->
<g id="edge56" class="edge">
<title>Node35&#45;&gt;Node36</title>
<path fill="none" stroke="midnightblue" d="M891.04,-962.44C917.62,-953.36 959.81,-938.94 989.52,-928.78"/>
<polygon fill="midnightblue" stroke="midnightblue" points="990.75,-932.06 999.08,-925.52 988.49,-925.44 990.75,-932.06"/>
</g>
<!-- Node37 -->
<g id="node37" class="node">
<title>Node37</title>
<g id="a_node37"><a xlink:href="spec_2pool__types_8h.html" target="_top" xlink:title="Type definitions for pools.">
<polygon fill="white" stroke="black" points="794.5,-906.5 794.5,-925.5 937.5,-925.5 937.5,-906.5 794.5,-906.5"/>
<text text-anchor="middle" x="866" y="-913.5" font-family="Helvetica,sans-Serif" font-size="10.00">odp/api/spec/pool_types.h</text>
</a>
</g>
</g>
<!-- Node35&#45;&gt;Node37 -->
<g id="edge57" class="edge">
<title>Node35&#45;&gt;Node37</title>
<path fill="none" stroke="midnightblue" d="M866,-962.08C866,-955.01 866,-944.86 866,-935.99"/>
<polygon fill="midnightblue" stroke="midnightblue" points="869.5,-935.75 866,-925.75 862.5,-935.75 869.5,-935.75"/>
</g>
<!-- Node37&#45;&gt;Node4 -->
<g id="edge58" class="edge">
<title>Node37&#45;&gt;Node4</title>
<path fill="none" stroke="midnightblue" d="M911.61,-906.45C1011.55,-887.1 1241,-838.97 1241,-805 1241,-805 1241,-805 1241,-132 1241,-66.65 1162.41,-35.78 1103.03,-21.78"/>
<polygon fill="midnightblue" stroke="midnightblue" points="1103.46,-18.29 1092.93,-19.51 1101.93,-25.12 1103.46,-18.29"/>
</g>
<!-- Node37&#45;&gt;Node5 -->
<g id="edge60" class="edge">
<title>Node37&#45;&gt;Node5</title>
<path fill="none" stroke="midnightblue" d="M794.19,-910.52C683.62,-903.38 465.05,-888.35 280,-870 278.7,-869.87 277.38,-869.74 276.05,-869.6"/>
<polygon fill="midnightblue" stroke="midnightblue" points="276.07,-866.08 265.75,-868.5 275.32,-873.04 276.07,-866.08"/>
</g>
<!-- Node37&#45;&gt;Node11 -->
<g id="edge69" class="edge">
<title>Node37&#45;&gt;Node11</title>
<path fill="none" stroke="midnightblue" d="M818.36,-906.48C647.56,-875.31 76,-765.2 76,-687.5 76,-687.5 76,-687.5 76,-132 76,-42.17 201.39,-18.54 281.9,-12.63"/>
<polygon fill="midnightblue" stroke="midnightblue" points="282.22,-16.12 291.97,-11.96 281.76,-9.13 282.22,-16.12"/>
</g>
<!-- Node37&#45;&gt;Node19 -->
<g id="edge59" class="edge">
<title>Node37&#45;&gt;Node19</title>
<path fill="none" stroke="midnightblue" d="M901.1,-906.47C946.27,-893.15 1019,-862.74 1019,-805 1019,-805 1019,-805 1019,-747 1019,-633.64 1033,-603.75 1014,-492 998.24,-399.3 989.76,-375.24 948,-291 943.05,-281.01 936.11,-270.71 930.06,-262.49"/>
<polygon fill="midnightblue" stroke="midnightblue" points="932.81,-260.33 923.96,-254.5 927.24,-264.58 932.81,-260.33"/>
</g>
<!-- Node38 -->
<g id="node38" class="node">
<title>Node38</title>
<g id="a_node38"><a xlink:href="ml__types_8h.html" target="_top" xlink:title="ODP Machine Learning (ML) types.">
<polygon fill="white" stroke="black" points="1047,-738.5 1047,-757.5 1157,-757.5 1157,-738.5 1047,-738.5"/>
<text text-anchor="middle" x="1102" y="-745.5" font-family="Helvetica,sans-Serif" font-size="10.00">odp/api/ml_types.h</text>
</a>
</g>
</g>
<!-- Node37&#45;&gt;Node38 -->
<g id="edge61" class="edge">
<title>Node37&#45;&gt;Node38</title>
<path fill="none" stroke="midnightblue" d="M913.24,-906.48C955.76,-898.07 1014.35,-884.41 1033,-870 1067.65,-843.23 1087.8,-793.8 1096.63,-767.16"/>
<polygon fill="midnightblue" stroke="midnightblue" points="1099.99,-768.15 1099.64,-757.56 1093.31,-766.05 1099.99,-768.15"/>
</g>
<!-- Node39 -->
<g id="node39" class="node">
<title>Node39</title>
<g id="a_node39"><a xlink:title=" ">
<polygon fill="white" stroke="#bfbfbf" points="1085,-677 1085,-696 1213,-696 1213,-677 1085,-677"/>
<text text-anchor="middle" x="1149" y="-684" font-family="Helvetica,sans-Serif" font-size="10.00">odp/api/abi/ml_types.h</text>
</a>
</g>
</g>
<!-- Node38&#45;&gt;Node39 -->
<g id="edge62" class="edge">
<title>Node38&#45;&gt;Node39</title>
<path fill="none" stroke="midnightblue" d="M1108.73,-738.48C1115.78,-729.55 1127.03,-715.31 1135.85,-704.14"/>
<polygon fill="midnightblue" stroke="midnightblue" points="1138.83,-706.03 1142.28,-696.01 1133.33,-701.69 1138.83,-706.03"/>
</g>
<!-- Node40 -->
<g id="node40" class="node">
<title>Node40</title>
<g id="a_node40"><a xlink:href="spec_2ml__types_8h.html" target="_top" xlink:title="ODP Machine Learning (ML) types.">
<polygon fill="white" stroke="black" points="740.5,-677 740.5,-696 875.5,-696 875.5,-677 740.5,-677"/>
<text text-anchor="middle" x="808" y="-684" font-family="Helvetica,sans-Serif" font-size="10.00">odp/api/spec/ml_types.h</text>
</a>
</g>
</g>
<!-- Node38&#45;&gt;Node40 -->
<g id="edge63" class="edge">
<title>Node38&#45;&gt;Node40</title>
<path fill="none" stroke="midnightblue" d="M1059.88,-738.48C1007.15,-727.8 916.87,-709.53 859.93,-698.01"/>
<polygon fill="midnightblue" stroke="midnightblue" points="860.54,-694.56 850.04,-696.01 859.15,-701.42 860.54,-694.56"/>
</g>
<!-- Node40&#45;&gt;Node4 -->
<g id="edge64" class="edge">
<title>Node40&#45;&gt;Node4</title>
<path fill="none" stroke="midnightblue" d="M861.3,-676.99C953.5,-660.75 1133,-621.77 1133,-564.5 1133,-564.5 1133,-564.5 1133,-132 1133,-96.58 1130.6,-84.07 1109,-56 1098.41,-42.24 1082.34,-31.56 1068.16,-24.05"/>
<polygon fill="midnightblue" stroke="midnightblue" points="1069.7,-20.91 1059.19,-19.59 1066.58,-27.18 1069.7,-20.91"/>
</g>
<!-- Node40&#45;&gt;Node8 -->
<g id="edge65" class="edge">
<title>Node40&#45;&gt;Node8</title>
<path fill="none" stroke="midnightblue" d="M792.1,-676.98C773.72,-667.12 743.24,-650.79 721.76,-639.27"/>
<polygon fill="midnightblue" stroke="midnightblue" points="723.34,-636.15 712.87,-634.51 720.03,-642.32 723.34,-636.15"/>
</g>
<!-- Node40&#45;&gt;Node11 -->
<g id="edge68" class="edge">
<title>Node40&#45;&gt;Node11</title>
<path fill="none" stroke="midnightblue" d="M756.49,-676.98C697.58,-664.77 601.5,-637.05 541,-579 398.92,-442.68 329,-386.9 329,-190 329,-190 329,-190 329,-132 329,-95.29 337.64,-53.06 343.27,-29.45"/>
<polygon fill="midnightblue" stroke="midnightblue" points="346.67,-30.28 345.67,-19.73 339.87,-28.6 346.67,-30.28"/>
</g>
<!-- Node40&#45;&gt;Node19 -->
<g id="edge67" class="edge">
<title>Node40&#45;&gt;Node19</title>
<path fill="none" stroke="midnightblue" d="M822.31,-676.84C849.29,-659.29 905,-616.73 905,-564.5 905,-564.5 905,-564.5 905,-372.5 905,-334.03 910.57,-289.27 914.12,-264.64"/>
<polygon fill="midnightblue" stroke="midnightblue" points="917.61,-264.97 915.62,-254.56 910.69,-263.94 917.61,-264.97"/>
</g>
<!-- Node40&#45;&gt;Node26 -->
<g id="edge66" class="edge">
<title>Node40&#45;&gt;Node26</title>
<path fill="none" stroke="midnightblue" d="M749.4,-676.98C674.99,-666.15 546.81,-647.5 467.82,-636.01"/>
<polygon fill="midnightblue" stroke="midnightblue" points="467.89,-632.49 457.49,-634.51 466.88,-639.41 467.89,-632.49"/>
</g>
</g>
</svg>
