<?xml version="1.0" encoding="UTF-8" standalone="no"?>
<!DOCTYPE svg PUBLIC "-//W3C//DTD SVG 1.1//EN"
 "http://www.w3.org/Graphics/SVG/1.1/DTD/svg11.dtd">
<!-- Generated by graphviz version 2.43.0 (0)
 -->
<!-- Title: dma_types.h Pages: 1 -->
<svg width="1440pt" height="588pt"
 viewBox="0.00 0.00 1439.50 588.00" xmlns="http://www.w3.org/2000/svg" xmlns:xlink="http://www.w3.org/1999/xlink">
<g id="graph0" class="graph" transform="scale(1 1) rotate(0) translate(4 584)">
<title>dma_types.h</title>
<polygon fill="white" stroke="transparent" points="-4,4 -4,-584 1435.5,-584 1435.5,4 -4,4"/>
<!-- Node1 -->
<g id="node1" class="node">
<title>Node1</title>
<g id="a_node1"><a xlink:title="ODP DMA.">
<polygon fill="#bfbfbf" stroke="black" points="774,-560.5 774,-579.5 854,-579.5 854,-560.5 774,-560.5"/>
<text text-anchor="middle" x="814" y="-567.5" font-family="Helvetica,sans-Serif" font-size="10.00">dma_types.h</text>
</a>
</g>
</g>
<!-- Node2 -->
<g id="node2" class="node">
<title>Node2</title>
<g id="a_node2"><a xlink:href="spec_2dma_8h.html" target="_top" xlink:title="ODP DMA.">
<polygon fill="white" stroke="black" points="97.5,-392.5 97.5,-411.5 144.5,-411.5 144.5,-392.5 97.5,-392.5"/>
<text text-anchor="middle" x="121" y="-399.5" font-family="Helvetica,sans-Serif" font-size="10.00">dma.h</text>
</a>
</g>
</g>
<!-- Node1&#45;&gt;Node2 -->
<g id="edge1" class="edge">
<title>Node1&#45;&gt;Node2</title>
<path fill="none" stroke="midnightblue" d="M768.25,-558.04C634.12,-525.91 245.03,-432.71 144.78,-408.7"/>
<polygon fill="midnightblue" stroke="midnightblue" points="767.66,-561.5 778.2,-560.42 769.29,-554.69 767.66,-561.5"/>
</g>
<!-- Node4 -->
<g id="node4" class="node">
<title>Node4</title>
<g id="a_node4"><a xlink:href="spec_2pool__types_8h.html" target="_top" xlink:title="Type definitions for pools.">
<polygon fill="white" stroke="black" points="740.5,-504.5 740.5,-523.5 819.5,-523.5 819.5,-504.5 740.5,-504.5"/>
<text text-anchor="middle" x="780" y="-511.5" font-family="Helvetica,sans-Serif" font-size="10.00">pool_types.h</text>
</a>
</g>
</g>
<!-- Node1&#45;&gt;Node4 -->
<g id="edge3" class="edge">
<title>Node1&#45;&gt;Node4</title>
<path fill="none" stroke="midnightblue" d="M803.02,-551.57C797.17,-542.27 790.23,-531.25 785.51,-523.75"/>
<polygon fill="midnightblue" stroke="midnightblue" points="800.1,-553.49 808.39,-560.08 806.02,-549.76 800.1,-553.49"/>
</g>
<!-- Node8 -->
<g id="node8" class="node">
<title>Node8</title>
<g id="a_node8"><a xlink:href="dma__inlines_8h_source.html" target="_top" xlink:title=" ">
<polygon fill="white" stroke="black" points="882.5,-280.5 882.5,-299.5 967.5,-299.5 967.5,-280.5 882.5,-280.5"/>
<text text-anchor="middle" x="925" y="-287.5" font-family="Helvetica,sans-Serif" font-size="10.00">dma_inlines.h</text>
</a>
</g>
</g>
<!-- Node1&#45;&gt;Node8 -->
<g id="edge64" class="edge">
<title>Node1&#45;&gt;Node8</title>
<path fill="none" stroke="midnightblue" d="M864.03,-561.52C982.74,-542.64 1275.68,-489.02 1332,-412 1363,-369.61 1313.93,-409.45 1164,-356 1145.65,-349.46 1143.31,-342.64 1125,-336 1096.56,-325.7 1017.69,-309.23 967.92,-299.33"/>
<polygon fill="midnightblue" stroke="midnightblue" points="863.44,-558.07 854.11,-563.08 864.53,-564.99 863.44,-558.07"/>
</g>
<!-- Node3 -->
<g id="node3" class="node">
<title>Node3</title>
<g id="a_node3"><a xlink:href="dma_8h.html" target="_top" xlink:title="ODP DMA.">
<polygon fill="white" stroke="black" points="97.5,-336.5 97.5,-355.5 144.5,-355.5 144.5,-336.5 97.5,-336.5"/>
<text text-anchor="middle" x="121" y="-343.5" font-family="Helvetica,sans-Serif" font-size="10.00">dma.h</text>
</a>
</g>
</g>
<!-- Node2&#45;&gt;Node3 -->
<g id="edge2" class="edge">
<title>Node2&#45;&gt;Node3</title>
<path fill="none" stroke="midnightblue" d="M121,-381.8C121,-372.91 121,-362.78 121,-355.75"/>
<polygon fill="midnightblue" stroke="midnightblue" points="117.5,-382.08 121,-392.08 124.5,-382.08 117.5,-382.08"/>
</g>
<!-- Node5 -->
<g id="node5" class="node">
<title>Node5</title>
<g id="a_node5"><a xlink:href="pool__types_8h.html" target="_top" xlink:title="ODP pool.">
<polygon fill="white" stroke="black" points="607.5,-448.5 607.5,-467.5 686.5,-467.5 686.5,-448.5 607.5,-448.5"/>
<text text-anchor="middle" x="647" y="-455.5" font-family="Helvetica,sans-Serif" font-size="10.00">pool_types.h</text>
</a>
</g>
</g>
<!-- Node4&#45;&gt;Node5 -->
<g id="edge4" class="edge">
<title>Node4&#45;&gt;Node5</title>
<path fill="none" stroke="midnightblue" d="M749.55,-500.64C724.59,-490.5 689.92,-476.43 667.98,-467.52"/>
<polygon fill="midnightblue" stroke="midnightblue" points="748.34,-503.92 758.93,-504.44 750.98,-497.44 748.34,-503.92"/>
</g>
<!-- Node5&#45;&gt;Node2 -->
<g id="edge24" class="edge">
<title>Node5&#45;&gt;Node2</title>
<path fill="none" stroke="midnightblue" d="M597.19,-454.72C508.57,-450.16 317.91,-438.01 159,-412 154.32,-411.23 149.35,-410.21 144.61,-409.14"/>
<polygon fill="midnightblue" stroke="midnightblue" points="597.06,-458.22 607.23,-455.23 597.42,-451.23 597.06,-458.22"/>
</g>
<!-- Node6 -->
<g id="node6" class="node">
<title>Node6</title>
<g id="a_node6"><a xlink:href="spec_2buffer_8h.html" target="_top" xlink:title="ODP buffer.">
<polygon fill="white" stroke="black" points="973.5,-392.5 973.5,-411.5 1026.5,-411.5 1026.5,-392.5 973.5,-392.5"/>
<text text-anchor="middle" x="1000" y="-399.5" font-family="Helvetica,sans-Serif" font-size="10.00">buffer.h</text>
</a>
</g>
</g>
<!-- Node5&#45;&gt;Node6 -->
<g id="edge5" class="edge">
<title>Node5&#45;&gt;Node6</title>
<path fill="none" stroke="midnightblue" d="M696.78,-450.96C758.52,-443.2 866.87,-428.73 959,-412 963.59,-411.17 968.45,-410.19 973.15,-409.19"/>
<polygon fill="midnightblue" stroke="midnightblue" points="696.04,-447.52 686.55,-452.23 696.91,-454.47 696.04,-447.52"/>
</g>
<!-- Node5&#45;&gt;Node8 -->
<g id="edge58" class="edge">
<title>Node5&#45;&gt;Node8</title>
<path fill="none" stroke="midnightblue" d="M697,-456.39C769.19,-454.33 897.16,-445.87 926,-412 953.92,-379.21 936.48,-321.35 928.43,-299.59"/>
<polygon fill="midnightblue" stroke="midnightblue" points="696.68,-452.9 686.77,-456.65 696.86,-459.9 696.68,-452.9"/>
</g>
<!-- Node9 -->
<g id="node9" class="node">
<title>Node9</title>
<g id="a_node9"><a xlink:href="spec_2classification_8h.html" target="_top" xlink:title="ODP classification descriptor.">
<polygon fill="white" stroke="black" points="1342.5,-280.5 1342.5,-299.5 1431.5,-299.5 1431.5,-280.5 1342.5,-280.5"/>
<text text-anchor="middle" x="1387" y="-287.5" font-family="Helvetica,sans-Serif" font-size="10.00">classification.h</text>
</a>
</g>
</g>
<!-- Node5&#45;&gt;Node9 -->
<g id="edge8" class="edge">
<title>Node5&#45;&gt;Node9</title>
<path fill="none" stroke="midnightblue" d="M696.63,-455.91C813.68,-452.87 1104,-442.4 1196,-412 1215.85,-405.44 1334.89,-326.03 1374.32,-299.54"/>
<polygon fill="midnightblue" stroke="midnightblue" points="696.43,-452.42 686.52,-456.17 696.6,-459.41 696.43,-452.42"/>
</g>
<!-- Node18 -->
<g id="node18" class="node">
<title>Node18</title>
<g id="a_node18"><a xlink:href="spec_2crypto__types_8h.html" target="_top" xlink:title="ODP crypto types.">
<polygon fill="white" stroke="black" points="1027.5,-336.5 1027.5,-355.5 1116.5,-355.5 1116.5,-336.5 1027.5,-336.5"/>
<text text-anchor="middle" x="1072" y="-343.5" font-family="Helvetica,sans-Serif" font-size="10.00">crypto_types.h</text>
</a>
</g>
</g>
<!-- Node5&#45;&gt;Node18 -->
<g id="edge17" class="edge">
<title>Node5&#45;&gt;Node18</title>
<path fill="none" stroke="midnightblue" d="M696.96,-456.71C788.93,-455.3 980.61,-447.98 1035,-412 1055.14,-398.68 1065.55,-370.4 1069.73,-355.93"/>
<polygon fill="midnightblue" stroke="midnightblue" points="696.74,-453.21 686.78,-456.85 696.83,-460.21 696.74,-453.21"/>
</g>
<!-- Node23 -->
<g id="node23" class="node">
<title>Node23</title>
<g id="a_node23"><a xlink:href="spec_2dma__types_8h.html" target="_top" xlink:title="ODP DMA.">
<polygon fill="white" stroke="black" points="1243,-392.5 1243,-411.5 1323,-411.5 1323,-392.5 1243,-392.5"/>
<text text-anchor="middle" x="1283" y="-399.5" font-family="Helvetica,sans-Serif" font-size="10.00">dma_types.h</text>
</a>
</g>
</g>
<!-- Node5&#45;&gt;Node23 -->
<g id="edge25" class="edge">
<title>Node5&#45;&gt;Node23</title>
<path fill="none" stroke="midnightblue" d="M696.82,-454.63C797.6,-449.51 1032.73,-435.9 1229,-412 1233.53,-411.45 1238.26,-410.79 1242.95,-410.08"/>
<polygon fill="midnightblue" stroke="midnightblue" points="696.45,-451.14 686.64,-455.14 696.8,-458.13 696.45,-451.14"/>
</g>
<!-- Node24 -->
<g id="node24" class="node">
<title>Node24</title>
<g id="a_node24"><a xlink:href="spec_2event_8h.html" target="_top" xlink:title="ODP event.">
<polygon fill="white" stroke="black" points="239.5,-392.5 239.5,-411.5 292.5,-411.5 292.5,-392.5 239.5,-392.5"/>
<text text-anchor="middle" x="266" y="-399.5" font-family="Helvetica,sans-Serif" font-size="10.00">event.h</text>
</a>
</g>
</g>
<!-- Node5&#45;&gt;Node24 -->
<g id="edge27" class="edge">
<title>Node5&#45;&gt;Node24</title>
<path fill="none" stroke="midnightblue" d="M597.13,-451.74C530.68,-444.42 409.57,-430.01 307,-412 302.41,-411.19 297.55,-410.23 292.84,-409.23"/>
<polygon fill="midnightblue" stroke="midnightblue" points="596.99,-455.24 607.31,-452.85 597.75,-448.28 596.99,-455.24"/>
</g>
<!-- Node26 -->
<g id="node26" class="node">
<title>Node26</title>
<g id="a_node26"><a xlink:href="buffer__inlines_8h_source.html" target="_top" xlink:title=" ">
<polygon fill="white" stroke="black" points="0,-280.5 0,-299.5 92,-299.5 92,-280.5 0,-280.5"/>
<text text-anchor="middle" x="46" y="-287.5" font-family="Helvetica,sans-Serif" font-size="10.00">buffer_inlines.h</text>
</a>
</g>
</g>
<!-- Node5&#45;&gt;Node26 -->
<g id="edge57" class="edge">
<title>Node5&#45;&gt;Node26</title>
<path fill="none" stroke="midnightblue" d="M597.19,-456.75C497.21,-455.47 276.07,-448.47 211,-412 173.94,-391.22 186.61,-362 153,-336 130.53,-318.61 100.35,-306.73 77.77,-299.56"/>
<polygon fill="midnightblue" stroke="midnightblue" points="597.3,-460.25 607.34,-456.87 597.38,-453.25 597.3,-460.25"/>
</g>
<!-- Node27 -->
<g id="node27" class="node">
<title>Node27</title>
<g id="a_node27"><a xlink:href="event__vector__inlines_8h.html" target="_top" xlink:title="Event vector inline functions.">
<polygon fill="white" stroke="black" points="110.5,-280.5 110.5,-299.5 237.5,-299.5 237.5,-280.5 110.5,-280.5"/>
<text text-anchor="middle" x="174" y="-287.5" font-family="Helvetica,sans-Serif" font-size="10.00">event_vector_inlines.h</text>
</a>
</g>
</g>
<!-- Node5&#45;&gt;Node27 -->
<g id="edge60" class="edge">
<title>Node5&#45;&gt;Node27</title>
<path fill="none" stroke="midnightblue" d="M597.29,-457.6C499.74,-457.84 287.72,-453.42 230,-412 210.16,-397.76 184.98,-324.79 176.74,-299.58"/>
<polygon fill="midnightblue" stroke="midnightblue" points="597.5,-461.1 607.48,-457.56 597.47,-454.1 597.5,-461.1"/>
</g>
<!-- Node28 -->
<g id="node28" class="node">
<title>Node28</title>
<g id="a_node28"><a xlink:href="packet__inlines_8h.html" target="_top" xlink:title="Packet inline functions.">
<polygon fill="white" stroke="black" points="440.5,-280.5 440.5,-299.5 535.5,-299.5 535.5,-280.5 440.5,-280.5"/>
<text text-anchor="middle" x="488" y="-287.5" font-family="Helvetica,sans-Serif" font-size="10.00">packet_inlines.h</text>
</a>
</g>
</g>
<!-- Node5&#45;&gt;Node28 -->
<g id="edge61" class="edge">
<title>Node5&#45;&gt;Node28</title>
<path fill="none" stroke="midnightblue" d="M597.11,-456.43C524.71,-454.42 395.99,-446.02 367,-412 345.09,-386.29 347.72,-363.74 367,-336 377.04,-321.55 420.28,-307.9 452.21,-299.5"/>
<polygon fill="midnightblue" stroke="midnightblue" points="597.28,-459.93 607.36,-456.68 597.45,-452.94 597.28,-459.93"/>
</g>
<!-- Node29 -->
<g id="node29" class="node">
<title>Node29</title>
<g id="a_node29"><a xlink:href="packet__vector__inlines_8h.html" target="_top" xlink:title="Packet vector inline functions.">
<polygon fill="white" stroke="black" points="553.5,-280.5 553.5,-299.5 684.5,-299.5 684.5,-280.5 553.5,-280.5"/>
<text text-anchor="middle" x="619" y="-287.5" font-family="Helvetica,sans-Serif" font-size="10.00">packet_vector_inlines.h</text>
</a>
</g>
</g>
<!-- Node5&#45;&gt;Node29 -->
<g id="edge62" class="edge">
<title>Node5&#45;&gt;Node29</title>
<path fill="none" stroke="midnightblue" d="M597.07,-455.87C528.29,-453.14 409.85,-443.81 383,-412 361.21,-386.19 361.47,-362.03 383,-336 393.88,-322.84 487.4,-308.11 553.39,-299.19"/>
<polygon fill="midnightblue" stroke="midnightblue" points="597.13,-459.37 607.25,-456.24 597.38,-452.38 597.13,-459.37"/>
</g>
<!-- Node31 -->
<g id="node31" class="node">
<title>Node31</title>
<g id="a_node31"><a xlink:href="spec_2event__vector_8h.html" target="_top" xlink:title="ODP event vector.">
<polygon fill="white" stroke="black" points="425.5,-392.5 425.5,-411.5 514.5,-411.5 514.5,-392.5 425.5,-392.5"/>
<text text-anchor="middle" x="470" y="-399.5" font-family="Helvetica,sans-Serif" font-size="10.00">event_vector.h</text>
</a>
</g>
</g>
<!-- Node5&#45;&gt;Node31 -->
<g id="edge36" class="edge">
<title>Node5&#45;&gt;Node31</title>
<path fill="none" stroke="midnightblue" d="M609.1,-445.44C575.72,-435.26 527.9,-420.66 497.91,-411.52"/>
<polygon fill="midnightblue" stroke="midnightblue" points="608.37,-448.87 618.95,-448.44 610.41,-442.18 608.37,-448.87"/>
</g>
<!-- Node33 -->
<g id="node33" class="node">
<title>Node33</title>
<g id="a_node33"><a xlink:href="spec_2ml_8h.html" target="_top" xlink:title="ODP Machine Learning (ML) offload.">
<polygon fill="white" stroke="black" points="533,-392.5 533,-411.5 571,-411.5 571,-392.5 533,-392.5"/>
<text text-anchor="middle" x="552" y="-399.5" font-family="Helvetica,sans-Serif" font-size="10.00">ml.h</text>
</a>
</g>
</g>
<!-- Node5&#45;&gt;Node33 -->
<g id="edge38" class="edge">
<title>Node5&#45;&gt;Node33</title>
<path fill="none" stroke="midnightblue" d="M622.68,-443.18C605.2,-433.24 582.17,-420.15 567.23,-411.65"/>
<polygon fill="midnightblue" stroke="midnightblue" points="621.31,-446.43 631.74,-448.32 624.77,-440.34 621.31,-446.43"/>
</g>
<!-- Node35 -->
<g id="node35" class="node">
<title>Node35</title>
<g id="a_node35"><a xlink:href="spec_2packet_8h.html" target="_top" xlink:title="ODP packet descriptor.">
<polygon fill="white" stroke="black" points="986,-280.5 986,-299.5 1044,-299.5 1044,-280.5 986,-280.5"/>
<text text-anchor="middle" x="1015" y="-287.5" font-family="Helvetica,sans-Serif" font-size="10.00">packet.h</text>
</a>
</g>
</g>
<!-- Node5&#45;&gt;Node35 -->
<g id="edge40" class="edge">
<title>Node5&#45;&gt;Node35</title>
<path fill="none" stroke="midnightblue" d="M596.98,-454.48C536.06,-450.24 438.47,-439.27 416,-412 394.52,-385.93 392.89,-360.64 416,-336 458.65,-290.52 914.31,-309.04 976,-300 979.16,-299.54 982.45,-298.95 985.71,-298.3"/>
<polygon fill="midnightblue" stroke="midnightblue" points="596.95,-457.98 607.16,-455.15 597.41,-451 596.95,-457.98"/>
</g>
<!-- Node37 -->
<g id="node37" class="node">
<title>Node37</title>
<g id="a_node37"><a xlink:href="spec_2packet__io__types_8h.html" target="_top" xlink:title="ODP Packet IO types.">
<polygon fill="white" stroke="black" points="1083,-392.5 1083,-411.5 1187,-411.5 1187,-392.5 1083,-392.5"/>
<text text-anchor="middle" x="1135" y="-399.5" font-family="Helvetica,sans-Serif" font-size="10.00">packet_io_types.h</text>
</a>
</g>
</g>
<!-- Node5&#45;&gt;Node37 -->
<g id="edge44" class="edge">
<title>Node5&#45;&gt;Node37</title>
<path fill="none" stroke="midnightblue" d="M696.75,-452.17C775.72,-444.4 934.6,-428.33 1069,-412 1073.48,-411.46 1078.12,-410.87 1082.78,-410.26"/>
<polygon fill="midnightblue" stroke="midnightblue" points="696.22,-448.71 686.61,-453.17 696.9,-455.67 696.22,-448.71"/>
</g>
<!-- Node41 -->
<g id="node41" class="node">
<title>Node41</title>
<g id="a_node41"><a xlink:href="spec_2pool_8h.html" target="_top" xlink:title="ODP pool.">
<polygon fill="white" stroke="black" points="589.5,-392.5 589.5,-411.5 636.5,-411.5 636.5,-392.5 589.5,-392.5"/>
<text text-anchor="middle" x="613" y="-399.5" font-family="Helvetica,sans-Serif" font-size="10.00">pool.h</text>
</a>
</g>
</g>
<!-- Node5&#45;&gt;Node41 -->
<g id="edge53" class="edge">
<title>Node5&#45;&gt;Node41</title>
<path fill="none" stroke="midnightblue" d="M636.02,-439.57C630.17,-430.27 623.23,-419.25 618.51,-411.75"/>
<polygon fill="midnightblue" stroke="midnightblue" points="633.1,-441.49 641.39,-448.08 639.02,-437.76 633.1,-441.49"/>
</g>
<!-- Node43 -->
<g id="node43" class="node">
<title>Node43</title>
<g id="a_node43"><a xlink:href="spec_2timer_8h.html" target="_top" xlink:title="ODP timer service.">
<polygon fill="white" stroke="black" points="654.5,-392.5 654.5,-411.5 705.5,-411.5 705.5,-392.5 654.5,-392.5"/>
<text text-anchor="middle" x="680" y="-399.5" font-family="Helvetica,sans-Serif" font-size="10.00">timer.h</text>
</a>
</g>
</g>
<!-- Node5&#45;&gt;Node43 -->
<g id="edge55" class="edge">
<title>Node5&#45;&gt;Node43</title>
<path fill="none" stroke="midnightblue" d="M657.83,-439.27C663.47,-430.05 670.12,-419.17 674.65,-411.75"/>
<polygon fill="midnightblue" stroke="midnightblue" points="654.68,-437.73 652.45,-448.08 660.65,-441.38 654.68,-437.73"/>
</g>
<!-- Node45 -->
<g id="node45" class="node">
<title>Node45</title>
<g id="a_node45"><a xlink:href="event__inlines_8h_source.html" target="_top" xlink:title=" ">
<polygon fill="white" stroke="black" points="723.5,-392.5 723.5,-411.5 814.5,-411.5 814.5,-392.5 723.5,-392.5"/>
<text text-anchor="middle" x="769" y="-399.5" font-family="Helvetica,sans-Serif" font-size="10.00">event_inlines.h</text>
</a>
</g>
</g>
<!-- Node5&#45;&gt;Node45 -->
<g id="edge59" class="edge">
<title>Node5&#45;&gt;Node45</title>
<path fill="none" stroke="midnightblue" d="M675.54,-444.37C698.39,-434.26 729.81,-420.35 749.76,-411.52"/>
<polygon fill="midnightblue" stroke="midnightblue" points="674.06,-441.2 666.33,-448.44 676.89,-447.6 674.06,-441.2"/>
</g>
<!-- Node46 -->
<g id="node46" class="node">
<title>Node46</title>
<g id="a_node46"><a xlink:href="pool__inlines_8h_source.html" target="_top" xlink:title=" ">
<polygon fill="white" stroke="black" points="833,-392.5 833,-411.5 917,-411.5 917,-392.5 833,-392.5"/>
<text text-anchor="middle" x="875" y="-399.5" font-family="Helvetica,sans-Serif" font-size="10.00">pool_inlines.h</text>
</a>
</g>
</g>
<!-- Node5&#45;&gt;Node46 -->
<g id="edge63" class="edge">
<title>Node5&#45;&gt;Node46</title>
<path fill="none" stroke="midnightblue" d="M693.07,-446.09C736.15,-435.89 799.59,-420.86 839.04,-411.52"/>
<polygon fill="midnightblue" stroke="midnightblue" points="692.05,-442.73 683.13,-448.44 693.66,-449.54 692.05,-442.73"/>
</g>
<!-- Node7 -->
<g id="node7" class="node">
<title>Node7</title>
<g id="a_node7"><a xlink:href="buffer_8h.html" target="_top" xlink:title="ODP buffer descriptor.">
<polygon fill="white" stroke="black" points="956.5,-336.5 956.5,-355.5 1009.5,-355.5 1009.5,-336.5 956.5,-336.5"/>
<text text-anchor="middle" x="983" y="-343.5" font-family="Helvetica,sans-Serif" font-size="10.00">buffer.h</text>
</a>
</g>
</g>
<!-- Node6&#45;&gt;Node7 -->
<g id="edge6" class="edge">
<title>Node6&#45;&gt;Node7</title>
<path fill="none" stroke="midnightblue" d="M994.14,-382.4C991.3,-373.36 988.02,-362.94 985.75,-355.75"/>
<polygon fill="midnightblue" stroke="midnightblue" points="990.85,-383.6 997.19,-392.08 997.53,-381.49 990.85,-383.6"/>
</g>
<!-- Node7&#45;&gt;Node8 -->
<g id="edge7" class="edge">
<title>Node7&#45;&gt;Node8</title>
<path fill="none" stroke="midnightblue" d="M966.09,-329.25C955.8,-319.67 943.03,-307.79 934.49,-299.83"/>
<polygon fill="midnightblue" stroke="midnightblue" points="963.98,-332.07 973.68,-336.32 968.75,-326.95 963.98,-332.07"/>
</g>
<!-- Node10 -->
<g id="node10" class="node">
<title>Node10</title>
<g id="a_node10"><a xlink:href="classification_8h.html" target="_top" xlink:title="ODP classification descriptor.">
<polygon fill="white" stroke="black" points="1239.5,-224.5 1239.5,-243.5 1328.5,-243.5 1328.5,-224.5 1239.5,-224.5"/>
<text text-anchor="middle" x="1284" y="-231.5" font-family="Helvetica,sans-Serif" font-size="10.00">classification.h</text>
</a>
</g>
</g>
<!-- Node9&#45;&gt;Node10 -->
<g id="edge9" class="edge">
<title>Node9&#45;&gt;Node10</title>
<path fill="none" stroke="midnightblue" d="M1361.42,-275.59C1342.38,-265.61 1316.94,-252.27 1300.51,-243.65"/>
<polygon fill="midnightblue" stroke="midnightblue" points="1359.97,-278.78 1370.45,-280.32 1363.22,-272.58 1359.97,-278.78"/>
</g>
<!-- Node11 -->
<g id="node11" class="node">
<title>Node11</title>
<g id="a_node11"><a xlink:href="spec_2ipsec__types_8h.html" target="_top" xlink:title="ODP IPsec API type definitions.">
<polygon fill="white" stroke="black" points="1095.5,-168.5 1095.5,-187.5 1178.5,-187.5 1178.5,-168.5 1095.5,-168.5"/>
<text text-anchor="middle" x="1137" y="-175.5" font-family="Helvetica,sans-Serif" font-size="10.00">ipsec_types.h</text>
</a>
</g>
</g>
<!-- Node10&#45;&gt;Node11 -->
<g id="edge10" class="edge">
<title>Node10&#45;&gt;Node11</title>
<path fill="none" stroke="midnightblue" d="M1251.08,-220.91C1223.44,-210.75 1184.66,-196.51 1160.18,-187.52"/>
<polygon fill="midnightblue" stroke="midnightblue" points="1250.11,-224.28 1260.71,-224.44 1252.53,-217.71 1250.11,-224.28"/>
</g>
<!-- Node16 -->
<g id="node16" class="node">
<title>Node16</title>
<g id="a_node16"><a xlink:href="spec_2packet__io_8h.html" target="_top" xlink:title="ODP Packet IO.">
<polygon fill="white" stroke="black" points="1284,-168.5 1284,-187.5 1356,-187.5 1356,-168.5 1284,-168.5"/>
<text text-anchor="middle" x="1320" y="-175.5" font-family="Helvetica,sans-Serif" font-size="10.00">packet_io.h</text>
</a>
</g>
</g>
<!-- Node10&#45;&gt;Node16 -->
<g id="edge15" class="edge">
<title>Node10&#45;&gt;Node16</title>
<path fill="none" stroke="midnightblue" d="M1295.62,-215.57C1301.82,-206.27 1309.17,-195.25 1314.17,-187.75"/>
<polygon fill="midnightblue" stroke="midnightblue" points="1292.58,-213.82 1289.94,-224.08 1298.4,-217.7 1292.58,-213.82"/>
</g>
<!-- Node12 -->
<g id="node12" class="node">
<title>Node12</title>
<g id="a_node12"><a xlink:href="ipsec__types_8h.html" target="_top" xlink:title="ODP IPsec.">
<polygon fill="white" stroke="black" points="1095.5,-112.5 1095.5,-131.5 1178.5,-131.5 1178.5,-112.5 1095.5,-112.5"/>
<text text-anchor="middle" x="1137" y="-119.5" font-family="Helvetica,sans-Serif" font-size="10.00">ipsec_types.h</text>
</a>
</g>
</g>
<!-- Node11&#45;&gt;Node12 -->
<g id="edge11" class="edge">
<title>Node11&#45;&gt;Node12</title>
<path fill="none" stroke="midnightblue" d="M1137,-157.8C1137,-148.91 1137,-138.78 1137,-131.75"/>
<polygon fill="midnightblue" stroke="midnightblue" points="1133.5,-158.08 1137,-168.08 1140.5,-158.08 1133.5,-158.08"/>
</g>
<!-- Node13 -->
<g id="node13" class="node">
<title>Node13</title>
<g id="a_node13"><a xlink:href="spec_2ipsec_8h.html" target="_top" xlink:title="ODP IPsec API.">
<polygon fill="white" stroke="black" points="1076.5,-56.5 1076.5,-75.5 1127.5,-75.5 1127.5,-56.5 1076.5,-56.5"/>
<text text-anchor="middle" x="1102" y="-63.5" font-family="Helvetica,sans-Serif" font-size="10.00">ipsec.h</text>
</a>
</g>
</g>
<!-- Node12&#45;&gt;Node13 -->
<g id="edge12" class="edge">
<title>Node12&#45;&gt;Node13</title>
<path fill="none" stroke="midnightblue" d="M1125.7,-103.57C1119.68,-94.27 1112.53,-83.25 1107.67,-75.75"/>
<polygon fill="midnightblue" stroke="midnightblue" points="1122.84,-105.6 1131.22,-112.08 1128.72,-101.79 1122.84,-105.6"/>
</g>
<!-- Node15 -->
<g id="node15" class="node">
<title>Node15</title>
<g id="a_node15"><a xlink:href="ipsec__inlines_8h_source.html" target="_top" xlink:title=" ">
<polygon fill="white" stroke="black" points="798.5,-56.5 798.5,-75.5 887.5,-75.5 887.5,-56.5 798.5,-56.5"/>
<text text-anchor="middle" x="843" y="-63.5" font-family="Helvetica,sans-Serif" font-size="10.00">ipsec_inlines.h</text>
</a>
</g>
</g>
<!-- Node12&#45;&gt;Node15 -->
<g id="edge14" class="edge">
<title>Node12&#45;&gt;Node15</title>
<path fill="none" stroke="midnightblue" d="M1085.11,-111.47C1029.03,-101.17 940.6,-84.93 887.55,-75.18"/>
<polygon fill="midnightblue" stroke="midnightblue" points="1084.72,-114.96 1095.19,-113.32 1085.99,-108.07 1084.72,-114.96"/>
</g>
<!-- Node14 -->
<g id="node14" class="node">
<title>Node14</title>
<g id="a_node14"><a xlink:href="ipsec_8h.html" target="_top" xlink:title="ODP IPSEC API &#45; platform specific header.">
<polygon fill="white" stroke="black" points="1076.5,-0.5 1076.5,-19.5 1127.5,-19.5 1127.5,-0.5 1076.5,-0.5"/>
<text text-anchor="middle" x="1102" y="-7.5" font-family="Helvetica,sans-Serif" font-size="10.00">ipsec.h</text>
</a>
</g>
</g>
<!-- Node13&#45;&gt;Node14 -->
<g id="edge13" class="edge">
<title>Node13&#45;&gt;Node14</title>
<path fill="none" stroke="midnightblue" d="M1102,-45.8C1102,-36.91 1102,-26.78 1102,-19.75"/>
<polygon fill="midnightblue" stroke="midnightblue" points="1098.5,-46.08 1102,-56.08 1105.5,-46.08 1098.5,-46.08"/>
</g>
<!-- Node17 -->
<g id="node17" class="node">
<title>Node17</title>
<g id="a_node17"><a xlink:href="packet__io_8h.html" target="_top" xlink:title="ODP Packet IO.">
<polygon fill="white" stroke="black" points="1284,-112.5 1284,-131.5 1356,-131.5 1356,-112.5 1284,-112.5"/>
<text text-anchor="middle" x="1320" y="-119.5" font-family="Helvetica,sans-Serif" font-size="10.00">packet_io.h</text>
</a>
</g>
</g>
<!-- Node16&#45;&gt;Node17 -->
<g id="edge16" class="edge">
<title>Node16&#45;&gt;Node17</title>
<path fill="none" stroke="midnightblue" d="M1320,-157.8C1320,-148.91 1320,-138.78 1320,-131.75"/>
<polygon fill="midnightblue" stroke="midnightblue" points="1316.5,-158.08 1320,-168.08 1323.5,-158.08 1316.5,-158.08"/>
</g>
<!-- Node19 -->
<g id="node19" class="node">
<title>Node19</title>
<g id="a_node19"><a xlink:href="crypto__types_8h.html" target="_top" xlink:title="ODP crypto.">
<polygon fill="white" stroke="black" points="992.5,-224.5 992.5,-243.5 1081.5,-243.5 1081.5,-224.5 992.5,-224.5"/>
<text text-anchor="middle" x="1037" y="-231.5" font-family="Helvetica,sans-Serif" font-size="10.00">crypto_types.h</text>
</a>
</g>
</g>
<!-- Node18&#45;&gt;Node19 -->
<g id="edge18" class="edge">
<title>Node18&#45;&gt;Node19</title>
<path fill="none" stroke="midnightblue" d="M1066.88,-326.44C1063.21,-313.39 1058.03,-295.56 1053,-280 1048.86,-267.22 1043.56,-252.59 1040.21,-243.58"/>
<polygon fill="midnightblue" stroke="midnightblue" points="1063.52,-327.43 1069.58,-336.12 1070.26,-325.55 1063.52,-327.43"/>
</g>
<!-- Node19&#45;&gt;Node11 -->
<g id="edge22" class="edge">
<title>Node19&#45;&gt;Node11</title>
<path fill="none" stroke="midnightblue" d="M1062.09,-219.45C1080.55,-209.48 1105.1,-196.23 1120.97,-187.65"/>
<polygon fill="midnightblue" stroke="midnightblue" points="1060.2,-216.49 1053.07,-224.32 1063.53,-222.65 1060.2,-216.49"/>
</g>
<!-- Node19&#45;&gt;Node13 -->
<g id="edge21" class="edge">
<title>Node19&#45;&gt;Node13</title>
<path fill="none" stroke="midnightblue" d="M1044.29,-214.39C1058.31,-178.59 1088.55,-101.34 1098.65,-75.57"/>
<polygon fill="midnightblue" stroke="midnightblue" points="1040.88,-213.49 1040.49,-224.08 1047.4,-216.04 1040.88,-213.49"/>
</g>
<!-- Node20 -->
<g id="node20" class="node">
<title>Node20</title>
<g id="a_node20"><a xlink:href="spec_2crypto_8h.html" target="_top" xlink:title="ODP crypto.">
<polygon fill="white" stroke="black" points="983,-168.5 983,-187.5 1039,-187.5 1039,-168.5 983,-168.5"/>
<text text-anchor="middle" x="1011" y="-175.5" font-family="Helvetica,sans-Serif" font-size="10.00">crypto.h</text>
</a>
</g>
</g>
<!-- Node19&#45;&gt;Node20 -->
<g id="edge19" class="edge">
<title>Node19&#45;&gt;Node20</title>
<path fill="none" stroke="midnightblue" d="M1028.33,-214.98C1023.91,-205.82 1018.75,-195.09 1015.21,-187.75"/>
<polygon fill="midnightblue" stroke="midnightblue" points="1025.21,-216.59 1032.71,-224.08 1031.52,-213.55 1025.21,-216.59"/>
</g>
<!-- Node22 -->
<g id="node22" class="node">
<title>Node22</title>
<g id="a_node22"><a xlink:href="crypto__inlines_8h_source.html" target="_top" xlink:title=" ">
<polygon fill="white" stroke="black" points="871,-168.5 871,-187.5 965,-187.5 965,-168.5 871,-168.5"/>
<text text-anchor="middle" x="918" y="-175.5" font-family="Helvetica,sans-Serif" font-size="10.00">crypto_inlines.h</text>
</a>
</g>
</g>
<!-- Node19&#45;&gt;Node22 -->
<g id="edge23" class="edge">
<title>Node19&#45;&gt;Node22</title>
<path fill="none" stroke="midnightblue" d="M1008.86,-220.23C986.6,-210.13 956.14,-196.31 936.77,-187.52"/>
<polygon fill="midnightblue" stroke="midnightblue" points="1007.59,-223.5 1018.14,-224.44 1010.48,-217.12 1007.59,-223.5"/>
</g>
<!-- Node21 -->
<g id="node21" class="node">
<title>Node21</title>
<g id="a_node21"><a xlink:href="crypto_8h.html" target="_top" xlink:title="ODP crypto.">
<polygon fill="white" stroke="black" points="983,-112.5 983,-131.5 1039,-131.5 1039,-112.5 983,-112.5"/>
<text text-anchor="middle" x="1011" y="-119.5" font-family="Helvetica,sans-Serif" font-size="10.00">crypto.h</text>
</a>
</g>
</g>
<!-- Node20&#45;&gt;Node21 -->
<g id="edge20" class="edge">
<title>Node20&#45;&gt;Node21</title>
<path fill="none" stroke="midnightblue" d="M1011,-157.8C1011,-148.91 1011,-138.78 1011,-131.75"/>
<polygon fill="midnightblue" stroke="midnightblue" points="1007.5,-158.08 1011,-168.08 1014.5,-158.08 1007.5,-158.08"/>
</g>
<!-- Node23&#45;&gt;Node1 -->
<g id="edge26" class="edge">
<title>Node23&#45;&gt;Node1</title>
<path fill="none" stroke="midnightblue" d="M1249.23,-414.95C1159.37,-446.76 915.98,-532.9 838.23,-560.42"/>
<polygon fill="midnightblue" stroke="midnightblue" points="1250.66,-418.16 1258.92,-411.52 1248.32,-411.56 1250.66,-418.16"/>
</g>
<!-- Node25 -->
<g id="node25" class="node">
<title>Node25</title>
<g id="a_node25"><a xlink:href="event_8h.html" target="_top" xlink:title="ODP event.">
<polygon fill="white" stroke="black" points="239.5,-336.5 239.5,-355.5 292.5,-355.5 292.5,-336.5 239.5,-336.5"/>
<text text-anchor="middle" x="266" y="-343.5" font-family="Helvetica,sans-Serif" font-size="10.00">event.h</text>
</a>
</g>
</g>
<!-- Node24&#45;&gt;Node25 -->
<g id="edge28" class="edge">
<title>Node24&#45;&gt;Node25</title>
<path fill="none" stroke="midnightblue" d="M266,-381.8C266,-372.91 266,-362.78 266,-355.75"/>
<polygon fill="midnightblue" stroke="midnightblue" points="262.5,-382.08 266,-392.08 269.5,-382.08 262.5,-382.08"/>
</g>
<!-- Node25&#45;&gt;Node15 -->
<g id="edge32" class="edge">
<title>Node25&#45;&gt;Node15</title>
<path fill="none" stroke="midnightblue" d="M266,-326.25C266,-304.36 266,-267.05 266,-235 266,-235 266,-235 266,-177 266,-122.89 662.64,-82.89 798.2,-70.8"/>
<polygon fill="midnightblue" stroke="midnightblue" points="262.5,-326.44 266,-336.44 269.5,-326.44 262.5,-326.44"/>
</g>
<!-- Node25&#45;&gt;Node22 -->
<g id="edge30" class="edge">
<title>Node25&#45;&gt;Node22</title>
<path fill="none" stroke="midnightblue" d="M302.55,-333.36C327.97,-324.92 362.45,-312.79 392,-300 409.88,-292.26 412.63,-286.48 431,-280 587.14,-224.91 782.6,-195.68 870.88,-184.48"/>
<polygon fill="midnightblue" stroke="midnightblue" points="301.35,-330.07 292.94,-336.51 303.53,-336.72 301.35,-330.07"/>
</g>
<!-- Node25&#45;&gt;Node26 -->
<g id="edge29" class="edge">
<title>Node25&#45;&gt;Node26</title>
<path fill="none" stroke="midnightblue" d="M229.56,-336.05C188.31,-325.93 121.6,-309.56 80.97,-299.58"/>
<polygon fill="midnightblue" stroke="midnightblue" points="228.92,-339.5 239.46,-338.49 230.59,-332.7 228.92,-339.5"/>
</g>
<!-- Node25&#45;&gt;Node27 -->
<g id="edge31" class="edge">
<title>Node25&#45;&gt;Node27</title>
<path fill="none" stroke="midnightblue" d="M242.45,-331.18C225.52,-321.24 203.22,-308.15 188.74,-299.65"/>
<polygon fill="midnightblue" stroke="midnightblue" points="240.82,-334.28 251.22,-336.32 244.37,-328.24 240.82,-334.28"/>
</g>
<!-- Node25&#45;&gt;Node28 -->
<g id="edge33" class="edge">
<title>Node25&#45;&gt;Node28</title>
<path fill="none" stroke="midnightblue" d="M302.51,-336.12C344.11,-326 411.63,-309.58 452.71,-299.58"/>
<polygon fill="midnightblue" stroke="midnightblue" points="301.67,-332.72 292.78,-338.49 303.32,-339.52 301.67,-332.72"/>
</g>
<!-- Node25&#45;&gt;Node29 -->
<g id="edge34" class="edge">
<title>Node25&#45;&gt;Node29</title>
<path fill="none" stroke="midnightblue" d="M302.62,-339.4C364.6,-329.92 490.51,-310.66 563.42,-299.5"/>
<polygon fill="midnightblue" stroke="midnightblue" points="301.89,-335.97 292.53,-340.94 302.95,-342.89 301.89,-335.97"/>
</g>
<!-- Node30 -->
<g id="node30" class="node">
<title>Node30</title>
<g id="a_node30"><a xlink:href="timer__inlines_8h_source.html" target="_top" xlink:title=" ">
<polygon fill="white" stroke="black" points="294.5,-280.5 294.5,-299.5 383.5,-299.5 383.5,-280.5 294.5,-280.5"/>
<text text-anchor="middle" x="339" y="-287.5" font-family="Helvetica,sans-Serif" font-size="10.00">timer_inlines.h</text>
</a>
</g>
</g>
<!-- Node25&#45;&gt;Node30 -->
<g id="edge35" class="edge">
<title>Node25&#45;&gt;Node30</title>
<path fill="none" stroke="midnightblue" d="M286.14,-330.1C299.28,-320.38 315.98,-308.03 327.06,-299.83"/>
<polygon fill="midnightblue" stroke="midnightblue" points="283.69,-327.56 277.73,-336.32 287.85,-333.19 283.69,-327.56"/>
</g>
<!-- Node32 -->
<g id="node32" class="node">
<title>Node32</title>
<g id="a_node32"><a xlink:href="event__vector_8h.html" target="_top" xlink:title="ODP event vector.">
<polygon fill="white" stroke="black" points="425.5,-336.5 425.5,-355.5 514.5,-355.5 514.5,-336.5 425.5,-336.5"/>
<text text-anchor="middle" x="470" y="-343.5" font-family="Helvetica,sans-Serif" font-size="10.00">event_vector.h</text>
</a>
</g>
</g>
<!-- Node31&#45;&gt;Node32 -->
<g id="edge37" class="edge">
<title>Node31&#45;&gt;Node32</title>
<path fill="none" stroke="midnightblue" d="M470,-381.8C470,-372.91 470,-362.78 470,-355.75"/>
<polygon fill="midnightblue" stroke="midnightblue" points="466.5,-382.08 470,-392.08 473.5,-382.08 466.5,-382.08"/>
</g>
<!-- Node34 -->
<g id="node34" class="node">
<title>Node34</title>
<g id="a_node34"><a xlink:href="ml_8h.html" target="_top" xlink:title="ODP Machine Learning (ML) offload.">
<polygon fill="white" stroke="black" points="533,-336.5 533,-355.5 571,-355.5 571,-336.5 533,-336.5"/>
<text text-anchor="middle" x="552" y="-343.5" font-family="Helvetica,sans-Serif" font-size="10.00">ml.h</text>
</a>
</g>
</g>
<!-- Node33&#45;&gt;Node34 -->
<g id="edge39" class="edge">
<title>Node33&#45;&gt;Node34</title>
<path fill="none" stroke="midnightblue" d="M552,-381.8C552,-372.91 552,-362.78 552,-355.75"/>
<polygon fill="midnightblue" stroke="midnightblue" points="548.5,-382.08 552,-392.08 555.5,-382.08 548.5,-382.08"/>
</g>
<!-- Node36 -->
<g id="node36" class="node">
<title>Node36</title>
<g id="a_node36"><a xlink:href="packet_8h.html" target="_top" xlink:title="ODP packet descriptor.">
<polygon fill="white" stroke="black" points="889,-224.5 889,-243.5 947,-243.5 947,-224.5 889,-224.5"/>
<text text-anchor="middle" x="918" y="-231.5" font-family="Helvetica,sans-Serif" font-size="10.00">packet.h</text>
</a>
</g>
</g>
<!-- Node35&#45;&gt;Node36 -->
<g id="edge41" class="edge">
<title>Node35&#45;&gt;Node36</title>
<path fill="none" stroke="midnightblue" d="M990.66,-275.45C972.76,-265.48 948.95,-252.23 933.55,-243.65"/>
<polygon fill="midnightblue" stroke="midnightblue" points="988.98,-278.52 999.42,-280.32 992.38,-272.4 988.98,-278.52"/>
</g>
<!-- Node36&#45;&gt;Node15 -->
<g id="edge43" class="edge">
<title>Node36&#45;&gt;Node15</title>
<path fill="none" stroke="midnightblue" d="M893.03,-218.89C881.76,-211.22 869.35,-200.69 862,-188 840.37,-150.64 841.1,-96.45 842.32,-75.61"/>
<polygon fill="midnightblue" stroke="midnightblue" points="891.39,-222 901.71,-224.42 895.16,-216.09 891.39,-222"/>
</g>
<!-- Node36&#45;&gt;Node22 -->
<g id="edge42" class="edge">
<title>Node36&#45;&gt;Node22</title>
<path fill="none" stroke="midnightblue" d="M918,-213.8C918,-204.91 918,-194.78 918,-187.75"/>
<polygon fill="midnightblue" stroke="midnightblue" points="914.5,-214.08 918,-224.08 921.5,-214.08 914.5,-214.08"/>
</g>
<!-- Node38 -->
<g id="node38" class="node">
<title>Node38</title>
<g id="a_node38"><a xlink:href="packet__io__types_8h.html" target="_top" xlink:title="ODP Packet IO.">
<polygon fill="white" stroke="black" points="1173,-336.5 1173,-355.5 1277,-355.5 1277,-336.5 1173,-336.5"/>
<text text-anchor="middle" x="1225" y="-343.5" font-family="Helvetica,sans-Serif" font-size="10.00">packet_io_types.h</text>
</a>
</g>
</g>
<!-- Node37&#45;&gt;Node38 -->
<g id="edge45" class="edge">
<title>Node37&#45;&gt;Node38</title>
<path fill="none" stroke="midnightblue" d="M1158.04,-387.18C1174.6,-377.24 1196.42,-364.15 1210.58,-355.65"/>
<polygon fill="midnightblue" stroke="midnightblue" points="1156.23,-384.18 1149.46,-392.32 1159.84,-390.18 1156.23,-384.18"/>
</g>
<!-- Node38&#45;&gt;Node9 -->
<g id="edge46" class="edge">
<title>Node38&#45;&gt;Node9</title>
<path fill="none" stroke="midnightblue" d="M1260.48,-333.17C1290.99,-323 1334.24,-308.59 1361.45,-299.52"/>
<polygon fill="midnightblue" stroke="midnightblue" points="1259.05,-329.96 1250.67,-336.44 1261.26,-336.6 1259.05,-329.96"/>
</g>
<!-- Node38&#45;&gt;Node11 -->
<g id="edge47" class="edge">
<title>Node38&#45;&gt;Node11</title>
<path fill="none" stroke="midnightblue" d="M1193.98,-331.88C1179.3,-324.37 1162.51,-313.69 1151,-300 1128.36,-273.09 1125.91,-259.03 1129,-224 1130.13,-211.2 1133.03,-196.58 1135.01,-187.57"/>
<polygon fill="midnightblue" stroke="midnightblue" points="1192.72,-335.16 1203.24,-336.37 1195.77,-328.86 1192.72,-335.16"/>
</g>
<!-- Node38&#45;&gt;Node16 -->
<g id="edge49" class="edge">
<title>Node38&#45;&gt;Node16</title>
<path fill="none" stroke="midnightblue" d="M1249.92,-331.44C1277.38,-314.91 1320.04,-284.14 1338,-244 1346.61,-224.76 1334.21,-200.44 1326.09,-187.7"/>
<polygon fill="midnightblue" stroke="midnightblue" points="1248.12,-328.44 1241.24,-336.5 1251.64,-334.49 1248.12,-328.44"/>
</g>
<!-- Node38&#45;&gt;Node35 -->
<g id="edge48" class="edge">
<title>Node38&#45;&gt;Node35</title>
<path fill="none" stroke="midnightblue" d="M1181.97,-333.93C1140.79,-323.35 1079.8,-307.66 1044.06,-298.47"/>
<polygon fill="midnightblue" stroke="midnightblue" points="1181.17,-337.34 1191.72,-336.44 1182.91,-330.56 1181.17,-337.34"/>
</g>
<!-- Node39 -->
<g id="node39" class="node">
<title>Node39</title>
<g id="a_node39"><a xlink:href="spec_2traffic__mngr_8h.html" target="_top" xlink:title=" ">
<polygon fill="white" stroke="black" points="1160,-280.5 1160,-299.5 1244,-299.5 1244,-280.5 1160,-280.5"/>
<text text-anchor="middle" x="1202" y="-287.5" font-family="Helvetica,sans-Serif" font-size="10.00">traffic_mngr.h</text>
</a>
</g>
</g>
<!-- Node38&#45;&gt;Node39 -->
<g id="edge50" class="edge">
<title>Node38&#45;&gt;Node39</title>
<path fill="none" stroke="midnightblue" d="M1217.2,-326.69C1213.32,-317.59 1208.82,-307.01 1205.73,-299.75"/>
<polygon fill="midnightblue" stroke="midnightblue" points="1214.06,-328.25 1221.2,-336.08 1220.5,-325.51 1214.06,-328.25"/>
</g>
<!-- Node40 -->
<g id="node40" class="node">
<title>Node40</title>
<g id="a_node40"><a xlink:href="traffic__mngr_8h.html" target="_top" xlink:title="ODP Traffic manager.">
<polygon fill="white" stroke="black" points="1138,-224.5 1138,-243.5 1222,-243.5 1222,-224.5 1138,-224.5"/>
<text text-anchor="middle" x="1180" y="-231.5" font-family="Helvetica,sans-Serif" font-size="10.00">traffic_mngr.h</text>
</a>
</g>
</g>
<!-- Node39&#45;&gt;Node40 -->
<g id="edge51" class="edge">
<title>Node39&#45;&gt;Node40</title>
<path fill="none" stroke="midnightblue" d="M1194.54,-270.69C1190.83,-261.59 1186.52,-251.01 1183.57,-243.75"/>
<polygon fill="midnightblue" stroke="midnightblue" points="1191.35,-272.14 1198.37,-280.08 1197.84,-269.5 1191.35,-272.14"/>
</g>
<!-- Node40&#45;&gt;Node11 -->
<g id="edge52" class="edge">
<title>Node40&#45;&gt;Node11</title>
<path fill="none" stroke="midnightblue" d="M1166.58,-216.14C1159.09,-206.74 1150.06,-195.4 1143.97,-187.75"/>
<polygon fill="midnightblue" stroke="midnightblue" points="1163.93,-218.44 1172.9,-224.08 1169.41,-214.08 1163.93,-218.44"/>
</g>
<!-- Node42 -->
<g id="node42" class="node">
<title>Node42</title>
<g id="a_node42"><a xlink:href="pool_8h.html" target="_top" xlink:title="ODP pool.">
<polygon fill="white" stroke="black" points="589.5,-336.5 589.5,-355.5 636.5,-355.5 636.5,-336.5 589.5,-336.5"/>
<text text-anchor="middle" x="613" y="-343.5" font-family="Helvetica,sans-Serif" font-size="10.00">pool.h</text>
</a>
</g>
</g>
<!-- Node41&#45;&gt;Node42 -->
<g id="edge54" class="edge">
<title>Node41&#45;&gt;Node42</title>
<path fill="none" stroke="midnightblue" d="M613,-381.8C613,-372.91 613,-362.78 613,-355.75"/>
<polygon fill="midnightblue" stroke="midnightblue" points="609.5,-382.08 613,-392.08 616.5,-382.08 609.5,-382.08"/>
</g>
<!-- Node44 -->
<g id="node44" class="node">
<title>Node44</title>
<g id="a_node44"><a xlink:href="timer_8h.html" target="_top" xlink:title="ODP timer service.">
<polygon fill="white" stroke="black" points="654.5,-336.5 654.5,-355.5 705.5,-355.5 705.5,-336.5 654.5,-336.5"/>
<text text-anchor="middle" x="680" y="-343.5" font-family="Helvetica,sans-Serif" font-size="10.00">timer.h</text>
</a>
</g>
</g>
<!-- Node43&#45;&gt;Node44 -->
<g id="edge56" class="edge">
<title>Node43&#45;&gt;Node44</title>
<path fill="none" stroke="midnightblue" d="M680,-381.8C680,-372.91 680,-362.78 680,-355.75"/>
<polygon fill="midnightblue" stroke="midnightblue" points="676.5,-382.08 680,-392.08 683.5,-382.08 676.5,-382.08"/>
</g>
</g>
</svg>
