<?xml version="1.0" encoding="UTF-8" standalone="no"?>
<!DOCTYPE svg PUBLIC "-//W3C//DTD SVG 1.1//EN"
 "http://www.w3.org/Graphics/SVG/1.1/DTD/svg11.dtd">
<!-- Generated by graphviz version 2.43.0 (0)
 -->
<!-- Title: dma.h Pages: 1 -->
<svg width="1293pt" height="1102pt"
 viewBox="0.00 0.00 1293.00 1102.00" xmlns="http://www.w3.org/2000/svg" xmlns:xlink="http://www.w3.org/1999/xlink">
<g id="graph0" class="graph" transform="scale(1 1) rotate(0) translate(4 1098)">
<title>dma.h</title>
<polygon fill="white" stroke="transparent" points="-4,4 -4,-1098 1289,-1098 1289,4 -4,4"/>
<!-- Node1 -->
<g id="node1" class="node">
<title>Node1</title>
<g id="a_node1"><a xlink:title="ODP DMA.">
<polygon fill="#bfbfbf" stroke="black" points="360.5,-1074.5 360.5,-1093.5 407.5,-1093.5 407.5,-1074.5 360.5,-1074.5"/>
<text text-anchor="middle" x="384" y="-1081.5" font-family="Helvetica,sans-Serif" font-size="10.00">dma.h</text>
</a>
</g>
</g>
<!-- Node2 -->
<g id="node2" class="node">
<title>Node2</title>
<g id="a_node2"><a xlink:title=" ">
<polygon fill="white" stroke="#bfbfbf" points="269,-1018.5 269,-1037.5 373,-1037.5 373,-1018.5 269,-1018.5"/>
<text text-anchor="middle" x="321" y="-1025.5" font-family="Helvetica,sans-Serif" font-size="10.00">odp/api/abi/dma.h</text>
</a>
</g>
</g>
<!-- Node1&#45;&gt;Node2 -->
<g id="edge1" class="edge">
<title>Node1&#45;&gt;Node2</title>
<path fill="none" stroke="midnightblue" d="M373.88,-1074.32C364.47,-1066.26 350.26,-1054.08 338.93,-1044.37"/>
<polygon fill="midnightblue" stroke="midnightblue" points="341.18,-1041.68 331.31,-1037.83 336.62,-1047 341.18,-1041.68"/>
</g>
<!-- Node3 -->
<g id="node3" class="node">
<title>Node3</title>
<g id="a_node3"><a xlink:href="spec_2dma_8h.html" target="_top" xlink:title="ODP DMA.">
<polygon fill="white" stroke="black" points="391,-1018.5 391,-1037.5 503,-1037.5 503,-1018.5 391,-1018.5"/>
<text text-anchor="middle" x="447" y="-1025.5" font-family="Helvetica,sans-Serif" font-size="10.00">odp/api/spec/dma.h</text>
</a>
</g>
</g>
<!-- Node1&#45;&gt;Node3 -->
<g id="edge2" class="edge">
<title>Node1&#45;&gt;Node3</title>
<path fill="none" stroke="midnightblue" d="M394.12,-1074.32C403.53,-1066.26 417.74,-1054.08 429.07,-1044.37"/>
<polygon fill="midnightblue" stroke="midnightblue" points="431.38,-1047 436.69,-1037.83 426.82,-1041.68 431.38,-1047"/>
</g>
<!-- Node4 -->
<g id="node4" class="node">
<title>Node4</title>
<g id="a_node4"><a xlink:title=" ">
<polygon fill="white" stroke="#bfbfbf" points="181.5,-0.5 181.5,-19.5 302.5,-19.5 302.5,-0.5 181.5,-0.5"/>
<text text-anchor="middle" x="242" y="-7.5" font-family="Helvetica,sans-Serif" font-size="10.00">odp/visibility_begin.h</text>
</a>
</g>
</g>
<!-- Node3&#45;&gt;Node4 -->
<g id="edge3" class="edge">
<title>Node3&#45;&gt;Node4</title>
<path fill="none" stroke="midnightblue" d="M390.84,-1019.05C270.78,-1001.29 0,-956.81 0,-917 0,-917 0,-917 0,-132 0,-54.88 99.53,-26.91 170.93,-16.77"/>
<polygon fill="midnightblue" stroke="midnightblue" points="171.79,-20.19 181.25,-15.4 170.87,-13.25 171.79,-20.19"/>
</g>
<!-- Node5 -->
<g id="node5" class="node">
<title>Node5</title>
<g id="a_node5"><a xlink:href="dma__types_8h.html" target="_top" xlink:title="ODP DMA.">
<polygon fill="white" stroke="black" points="155.5,-850.5 155.5,-869.5 274.5,-869.5 274.5,-850.5 155.5,-850.5"/>
<text text-anchor="middle" x="215" y="-857.5" font-family="Helvetica,sans-Serif" font-size="10.00">odp/api/dma_types.h</text>
</a>
</g>
</g>
<!-- Node3&#45;&gt;Node5 -->
<g id="edge4" class="edge">
<title>Node3&#45;&gt;Node5</title>
<path fill="none" stroke="midnightblue" d="M434.85,-1018.31C397.19,-991.36 282.1,-909.01 235.2,-875.46"/>
<polygon fill="midnightblue" stroke="midnightblue" points="237.2,-872.58 227.03,-869.61 233.12,-878.27 237.2,-872.58"/>
</g>
<!-- Node11 -->
<g id="node11" class="node">
<title>Node11</title>
<g id="a_node11"><a xlink:title=" ">
<polygon fill="white" stroke="#bfbfbf" points="1001,-0.5 1001,-19.5 1113,-19.5 1113,-0.5 1001,-0.5"/>
<text text-anchor="middle" x="1057" y="-7.5" font-family="Helvetica,sans-Serif" font-size="10.00">odp/visibility_end.h</text>
</a>
</g>
</g>
<!-- Node3&#45;&gt;Node11 -->
<g id="edge74" class="edge">
<title>Node3&#45;&gt;Node11</title>
<path fill="none" stroke="midnightblue" d="M503.28,-1025.55C691.17,-1019.96 1285,-996.05 1285,-917 1285,-917 1285,-917 1285,-132 1285,-58.15 1190.52,-29.24 1123.2,-18.01"/>
<polygon fill="midnightblue" stroke="midnightblue" points="1123.49,-14.51 1113.07,-16.42 1122.4,-21.43 1123.49,-14.51"/>
</g>
<!-- Node37 -->
<g id="node37" class="node">
<title>Node37</title>
<g id="a_node37"><a xlink:href="pool__types_8h.html" target="_top" xlink:title="ODP pool.">
<polygon fill="white" stroke="black" points="595,-962.5 595,-981.5 713,-981.5 713,-962.5 595,-962.5"/>
<text text-anchor="middle" x="654" y="-969.5" font-family="Helvetica,sans-Serif" font-size="10.00">odp/api/pool_types.h</text>
</a>
</g>
</g>
<!-- Node3&#45;&gt;Node37 -->
<g id="edge59" class="edge">
<title>Node3&#45;&gt;Node37</title>
<path fill="none" stroke="midnightblue" d="M479.8,-1018.44C515.38,-1009.16 572.31,-994.31 611.35,-984.13"/>
<polygon fill="midnightblue" stroke="midnightblue" points="612.56,-987.43 621.35,-981.52 610.79,-980.65 612.56,-987.43"/>
</g>
<!-- Node6 -->
<g id="node6" class="node">
<title>Node6</title>
<g id="a_node6"><a xlink:title=" ">
<polygon fill="white" stroke="#bfbfbf" points="137.5,-794.5 137.5,-813.5 274.5,-813.5 274.5,-794.5 137.5,-794.5"/>
<text text-anchor="middle" x="206" y="-801.5" font-family="Helvetica,sans-Serif" font-size="10.00">odp/api/abi/dma_types.h</text>
</a>
</g>
</g>
<!-- Node5&#45;&gt;Node6 -->
<g id="edge5" class="edge">
<title>Node5&#45;&gt;Node6</title>
<path fill="none" stroke="midnightblue" d="M213.51,-850.08C212.32,-842.93 210.61,-832.64 209.12,-823.69"/>
<polygon fill="midnightblue" stroke="midnightblue" points="212.55,-823.04 207.46,-813.75 205.65,-824.19 212.55,-823.04"/>
</g>
<!-- Node7 -->
<g id="node7" class="node">
<title>Node7</title>
<g id="a_node7"><a xlink:href="spec_2dma__types_8h.html" target="_top" xlink:title="ODP DMA.">
<polygon fill="white" stroke="black" points="472,-794.5 472,-813.5 616,-813.5 616,-794.5 472,-794.5"/>
<text text-anchor="middle" x="544" y="-801.5" font-family="Helvetica,sans-Serif" font-size="10.00">odp/api/spec/dma_types.h</text>
</a>
</g>
</g>
<!-- Node5&#45;&gt;Node7 -->
<g id="edge6" class="edge">
<title>Node5&#45;&gt;Node7</title>
<path fill="none" stroke="midnightblue" d="M267.13,-850.44C325.49,-840.87 419.98,-825.36 482.06,-815.17"/>
<polygon fill="midnightblue" stroke="midnightblue" points="482.81,-818.59 492.11,-813.52 481.68,-811.68 482.81,-818.59"/>
</g>
<!-- Node7&#45;&gt;Node4 -->
<g id="edge7" class="edge">
<title>Node7&#45;&gt;Node4</title>
<path fill="none" stroke="midnightblue" d="M480.33,-794.46C379.11,-779.71 187.72,-746.71 137,-702 -18.58,-564.87 38,-453.39 38,-246 38,-246 38,-246 38,-132 38,-66.47 116.83,-35.65 176.49,-21.71"/>
<polygon fill="midnightblue" stroke="midnightblue" points="177.26,-25.13 186.26,-19.54 175.73,-18.3 177.26,-25.13"/>
</g>
<!-- Node8 -->
<g id="node8" class="node">
<title>Node8</title>
<g id="a_node8"><a xlink:href="event__types_8h.html" target="_top" xlink:title="ODP event API type definitions.">
<polygon fill="white" stroke="black" points="726.5,-615.5 726.5,-634.5 851.5,-634.5 851.5,-615.5 726.5,-615.5"/>
<text text-anchor="middle" x="789" y="-622.5" font-family="Helvetica,sans-Serif" font-size="10.00">odp/api/event_types.h</text>
</a>
</g>
</g>
<!-- Node7&#45;&gt;Node8 -->
<g id="edge8" class="edge">
<title>Node7&#45;&gt;Node8</title>
<path fill="none" stroke="midnightblue" d="M555.11,-794.48C582.92,-773.21 657.89,-716.27 722,-671 736.88,-660.49 753.93,-649.05 767.1,-640.34"/>
<polygon fill="midnightblue" stroke="midnightblue" points="769.1,-643.21 775.53,-634.78 765.25,-637.36 769.1,-643.21"/>
</g>
<!-- Node7&#45;&gt;Node11 -->
<g id="edge58" class="edge">
<title>Node7&#45;&gt;Node11</title>
<path fill="none" stroke="midnightblue" d="M616.05,-800.5C748.86,-795.33 1022.07,-781.92 1058,-758 1087.45,-738.39 1095,-722.89 1095,-687.5 1095,-687.5 1095,-687.5 1095,-624 1095,-474.49 1209,-457.01 1209,-307.5 1209,-307.5 1209,-307.5 1209,-132 1209,-94.03 1198.09,-81.54 1170,-56 1152.39,-39.99 1128.37,-29.35 1107.01,-22.46"/>
<polygon fill="midnightblue" stroke="midnightblue" points="1108,-19.1 1097.41,-19.55 1105.97,-25.8 1108,-19.1"/>
</g>
<!-- Node12 -->
<g id="node12" class="node">
<title>Node12</title>
<g id="a_node12"><a xlink:href="packet__types_8h.html" target="_top" xlink:title="ODP packet.">
<polygon fill="white" stroke="black" points="322.5,-738.5 322.5,-757.5 451.5,-757.5 451.5,-738.5 322.5,-738.5"/>
<text text-anchor="middle" x="387" y="-745.5" font-family="Helvetica,sans-Serif" font-size="10.00">odp/api/packet_types.h</text>
</a>
</g>
</g>
<!-- Node7&#45;&gt;Node12 -->
<g id="edge13" class="edge">
<title>Node7&#45;&gt;Node12</title>
<path fill="none" stroke="midnightblue" d="M519.12,-794.44C492.71,-785.36 450.78,-770.94 421.26,-760.78"/>
<polygon fill="midnightblue" stroke="midnightblue" points="422.36,-757.46 411.76,-757.52 420.08,-764.08 422.36,-757.46"/>
</g>
<!-- Node21 -->
<g id="node21" class="node">
<title>Node21</title>
<g id="a_node21"><a xlink:href="std__types_8h.html" target="_top" xlink:title="Standard C language types and definitions for ODP.">
<polygon fill="white" stroke="black" points="903,-235.5 903,-254.5 1015,-254.5 1015,-235.5 903,-235.5"/>
<text text-anchor="middle" x="959" y="-242.5" font-family="Helvetica,sans-Serif" font-size="10.00">odp/api/std_types.h</text>
</a>
</g>
</g>
<!-- Node7&#45;&gt;Node21 -->
<g id="edge57" class="edge">
<title>Node7&#45;&gt;Node21</title>
<path fill="none" stroke="midnightblue" d="M581.17,-794.47C643.4,-779.56 772,-746.12 875,-702 900.79,-690.95 904.43,-682.56 930,-671 974.18,-651.02 998.85,-669.43 1033,-635 1056.31,-611.5 1057,-597.6 1057,-564.5 1057,-564.5 1057,-564.5 1057,-372.5 1057,-323.15 1009.82,-281.38 980.93,-260.43"/>
<polygon fill="midnightblue" stroke="midnightblue" points="982.82,-257.49 972.63,-254.62 978.81,-263.22 982.82,-257.49"/>
</g>
<!-- Node28 -->
<g id="node28" class="node">
<title>Node28</title>
<g id="a_node28"><a xlink:href="queue__types_8h.html" target="_top" xlink:title="ODP queue.">
<polygon fill="white" stroke="black" points="480.5,-615.5 480.5,-634.5 607.5,-634.5 607.5,-615.5 480.5,-615.5"/>
<text text-anchor="middle" x="544" y="-622.5" font-family="Helvetica,sans-Serif" font-size="10.00">odp/api/queue_types.h</text>
</a>
</g>
</g>
<!-- Node7&#45;&gt;Node28 -->
<g id="edge56" class="edge">
<title>Node7&#45;&gt;Node28</title>
<path fill="none" stroke="midnightblue" d="M544,-794.46C544,-767.43 544,-683.24 544,-645.11"/>
<polygon fill="midnightblue" stroke="midnightblue" points="547.5,-644.87 544,-634.87 540.5,-644.87 547.5,-644.87"/>
</g>
<!-- Node9 -->
<g id="node9" class="node">
<title>Node9</title>
<g id="a_node9"><a xlink:title=" ">
<polygon fill="white" stroke="#bfbfbf" points="809.5,-554 809.5,-573 952.5,-573 952.5,-554 809.5,-554"/>
<text text-anchor="middle" x="881" y="-561" font-family="Helvetica,sans-Serif" font-size="10.00">odp/api/abi/event_types.h</text>
</a>
</g>
</g>
<!-- Node8&#45;&gt;Node9 -->
<g id="edge9" class="edge">
<title>Node8&#45;&gt;Node9</title>
<path fill="none" stroke="midnightblue" d="M802.18,-615.48C817.07,-605.84 841.54,-590.02 859.27,-578.55"/>
<polygon fill="midnightblue" stroke="midnightblue" points="861.35,-581.38 867.84,-573.01 857.55,-575.5 861.35,-581.38"/>
</g>
<!-- Node10 -->
<g id="node10" class="node">
<title>Node10</title>
<g id="a_node10"><a xlink:href="spec_2event__types_8h.html" target="_top" xlink:title="ODP event API type definitions.">
<polygon fill="white" stroke="black" points="471.5,-56.5 471.5,-86.5 580.5,-86.5 580.5,-56.5 471.5,-56.5"/>
<text text-anchor="start" x="479.5" y="-74.5" font-family="Helvetica,sans-Serif" font-size="10.00">odp/api/spec/event</text>
<text text-anchor="middle" x="526" y="-63.5" font-family="Helvetica,sans-Serif" font-size="10.00">_types.h</text>
</a>
</g>
</g>
<!-- Node8&#45;&gt;Node10 -->
<g id="edge10" class="edge">
<title>Node8&#45;&gt;Node10</title>
<path fill="none" stroke="midnightblue" d="M784.61,-615.42C770.15,-587.33 722.21,-495.93 675,-425 643.03,-376.97 621.81,-373.59 596,-322 557.24,-244.53 537.18,-142.44 529.62,-96.6"/>
<polygon fill="midnightblue" stroke="midnightblue" points="533.08,-96.02 528.04,-86.7 526.16,-97.13 533.08,-96.02"/>
</g>
<!-- Node10&#45;&gt;Node4 -->
<g id="edge11" class="edge">
<title>Node10&#45;&gt;Node4</title>
<path fill="none" stroke="midnightblue" d="M471.38,-57.84C468.55,-57.21 465.74,-56.59 463,-56 406.02,-43.64 340.56,-30.44 295.76,-21.55"/>
<polygon fill="midnightblue" stroke="midnightblue" points="296.17,-18.06 285.68,-19.55 294.81,-24.93 296.17,-18.06"/>
</g>
<!-- Node10&#45;&gt;Node11 -->
<g id="edge12" class="edge">
<title>Node10&#45;&gt;Node11</title>
<path fill="none" stroke="midnightblue" d="M580.67,-62.78C597.45,-60.5 615.97,-58.06 633,-56 759.28,-40.75 907.07,-25.7 990.59,-17.45"/>
<polygon fill="midnightblue" stroke="midnightblue" points="991.09,-20.92 1000.7,-16.45 990.41,-13.95 991.09,-20.92"/>
</g>
<!-- Node13 -->
<g id="node13" class="node">
<title>Node13</title>
<g id="a_node13"><a xlink:title=" ">
<polygon fill="white" stroke="#bfbfbf" points="270,-671.5 270,-701.5 376,-701.5 376,-671.5 270,-671.5"/>
<text text-anchor="start" x="278" y="-689.5" font-family="Helvetica,sans-Serif" font-size="10.00">odp/api/abi/packet</text>
<text text-anchor="middle" x="323" y="-678.5" font-family="Helvetica,sans-Serif" font-size="10.00">_io_types.h</text>
</a>
</g>
</g>
<!-- Node12&#45;&gt;Node13 -->
<g id="edge14" class="edge">
<title>Node12&#45;&gt;Node13</title>
<path fill="none" stroke="midnightblue" d="M377.83,-738.48C369.41,-730.64 356.58,-718.71 345.44,-708.37"/>
<polygon fill="midnightblue" stroke="midnightblue" points="347.79,-705.77 338.08,-701.52 343.02,-710.9 347.79,-705.77"/>
</g>
<!-- Node14 -->
<g id="node14" class="node">
<title>Node14</title>
<g id="a_node14"><a xlink:title=" ">
<polygon fill="white" stroke="#bfbfbf" points="146,-671.5 146,-701.5 252,-701.5 252,-671.5 146,-671.5"/>
<text text-anchor="start" x="154" y="-689.5" font-family="Helvetica,sans-Serif" font-size="10.00">odp/api/abi/packet</text>
<text text-anchor="middle" x="199" y="-678.5" font-family="Helvetica,sans-Serif" font-size="10.00">_types.h</text>
</a>
</g>
</g>
<!-- Node12&#45;&gt;Node14 -->
<g id="edge15" class="edge">
<title>Node12&#45;&gt;Node14</title>
<path fill="none" stroke="midnightblue" d="M360.06,-738.48C332.22,-729.66 288,-715.67 252.93,-704.57"/>
<polygon fill="midnightblue" stroke="midnightblue" points="253.9,-701.2 243.31,-701.52 251.79,-707.88 253.9,-701.2"/>
</g>
<!-- Node15 -->
<g id="node15" class="node">
<title>Node15</title>
<g id="a_node15"><a xlink:href="spec_2packet__types_8h.html" target="_top" xlink:title="ODP packet types.">
<polygon fill="white" stroke="black" points="394.5,-671.5 394.5,-701.5 507.5,-701.5 507.5,-671.5 394.5,-671.5"/>
<text text-anchor="start" x="402.5" y="-689.5" font-family="Helvetica,sans-Serif" font-size="10.00">odp/api/spec/packet</text>
<text text-anchor="middle" x="451" y="-678.5" font-family="Helvetica,sans-Serif" font-size="10.00">_types.h</text>
</a>
</g>
</g>
<!-- Node12&#45;&gt;Node15 -->
<g id="edge16" class="edge">
<title>Node12&#45;&gt;Node15</title>
<path fill="none" stroke="midnightblue" d="M396.17,-738.48C404.59,-730.64 417.42,-718.71 428.56,-708.37"/>
<polygon fill="midnightblue" stroke="midnightblue" points="430.98,-710.9 435.92,-701.52 426.21,-705.77 430.98,-710.9"/>
</g>
<!-- Node15&#45;&gt;Node4 -->
<g id="edge17" class="edge">
<title>Node15&#45;&gt;Node4</title>
<path fill="none" stroke="midnightblue" d="M399.39,-671.43C309.11,-646.08 132,-592.75 132,-564.5 132,-564.5 132,-564.5 132,-439.5 132,-349.97 76,-335.53 76,-246 76,-246 76,-246 76,-132 76,-71.78 148.23,-38.36 197.4,-22.58"/>
<polygon fill="midnightblue" stroke="midnightblue" points="198.67,-25.85 207.2,-19.57 196.61,-19.16 198.67,-25.85"/>
</g>
<!-- Node15&#45;&gt;Node11 -->
<g id="edge55" class="edge">
<title>Node15&#45;&gt;Node11</title>
<path fill="none" stroke="midnightblue" d="M507.77,-672.42C540.52,-663.86 582.02,-651.23 617,-635 747.26,-574.55 1133,-389.6 1133,-246 1133,-246 1133,-246 1133,-132 1133,-88.48 1097.3,-47.77 1074.84,-26.47"/>
<polygon fill="midnightblue" stroke="midnightblue" points="1076.99,-23.7 1067.25,-19.53 1072.27,-28.86 1076.99,-23.7"/>
</g>
<!-- Node16 -->
<g id="node16" class="node">
<title>Node16</title>
<g id="a_node16"><a xlink:href="deprecated_8h.html" target="_top" xlink:title="Control deprecated API definitions.">
<polygon fill="white" stroke="black" points="289.5,-492.5 289.5,-511.5 408.5,-511.5 408.5,-492.5 289.5,-492.5"/>
<text text-anchor="middle" x="349" y="-499.5" font-family="Helvetica,sans-Serif" font-size="10.00">odp/api/deprecated.h</text>
</a>
</g>
</g>
<!-- Node15&#45;&gt;Node16 -->
<g id="edge18" class="edge">
<title>Node15&#45;&gt;Node16</title>
<path fill="none" stroke="midnightblue" d="M436.73,-671.34C418.16,-652.1 385.97,-615.88 368,-579 359.08,-560.7 354.1,-537.82 351.49,-521.97"/>
<polygon fill="midnightblue" stroke="midnightblue" points="354.92,-521.22 350,-511.84 348,-522.24 354.92,-521.22"/>
</g>
<!-- Node18 -->
<g id="node18" class="node">
<title>Node18</title>
<g id="a_node18"><a xlink:href="proto__stats__types_8h.html" target="_top" xlink:title="ODP proto stats types.">
<polygon fill="white" stroke="black" points="236,-358.5 236,-388.5 346,-388.5 346,-358.5 236,-358.5"/>
<text text-anchor="start" x="244" y="-376.5" font-family="Helvetica,sans-Serif" font-size="10.00">odp/api/proto_stats</text>
<text text-anchor="middle" x="291" y="-365.5" font-family="Helvetica,sans-Serif" font-size="10.00">_types.h</text>
</a>
</g>
</g>
<!-- Node15&#45;&gt;Node18 -->
<g id="edge22" class="edge">
<title>Node15&#45;&gt;Node18</title>
<path fill="none" stroke="midnightblue" d="M416.15,-671.46C361.3,-648.26 261,-600.87 261,-564.5 261,-564.5 261,-564.5 261,-501 261,-464.3 273.1,-423.19 281.93,-398.07"/>
<polygon fill="midnightblue" stroke="midnightblue" points="285.23,-399.25 285.36,-388.66 278.65,-396.86 285.23,-399.25"/>
</g>
<!-- Node15&#45;&gt;Node28 -->
<g id="edge38" class="edge">
<title>Node15&#45;&gt;Node28</title>
<path fill="none" stroke="midnightblue" d="M473.04,-671.4C487.81,-661.95 507.18,-649.56 521.95,-640.11"/>
<polygon fill="midnightblue" stroke="midnightblue" points="523.93,-643 530.47,-634.66 520.16,-637.1 523.93,-643"/>
</g>
<!-- Node17 -->
<g id="node17" class="node">
<title>Node17</title>
<g id="a_node17"><a xlink:href="spec_2deprecated_8h.html" target="_top" xlink:title="Macro for deprecated API definitions.">
<polygon fill="white" stroke="black" points="308.5,-62 308.5,-81 453.5,-81 453.5,-62 308.5,-62"/>
<text text-anchor="middle" x="381" y="-69" font-family="Helvetica,sans-Serif" font-size="10.00">odp/api/spec/deprecated.h</text>
</a>
</g>
</g>
<!-- Node16&#45;&gt;Node17 -->
<g id="edge19" class="edge">
<title>Node16&#45;&gt;Node17</title>
<path fill="none" stroke="midnightblue" d="M351.97,-492.22C358.59,-471.82 374,-419.5 374,-374.5 374,-374.5 374,-374.5 374,-188 374,-153.8 377.1,-114.01 379.17,-91.19"/>
<polygon fill="midnightblue" stroke="midnightblue" points="382.66,-91.47 380.11,-81.18 375.69,-90.81 382.66,-91.47"/>
</g>
<!-- Node17&#45;&gt;Node4 -->
<g id="edge20" class="edge">
<title>Node17&#45;&gt;Node4</title>
<path fill="none" stroke="midnightblue" d="M361.08,-61.98C337.55,-51.9 298.19,-35.05 271.21,-23.5"/>
<polygon fill="midnightblue" stroke="midnightblue" points="272.45,-20.23 261.88,-19.51 269.69,-26.66 272.45,-20.23"/>
</g>
<!-- Node17&#45;&gt;Node11 -->
<g id="edge21" class="edge">
<title>Node17&#45;&gt;Node11</title>
<path fill="none" stroke="midnightblue" d="M424.71,-61.94C437.05,-59.75 450.52,-57.57 463,-56 653.61,-31.99 880.35,-19.13 990.43,-13.88"/>
<polygon fill="midnightblue" stroke="midnightblue" points="990.89,-17.36 1000.71,-13.4 990.56,-10.37 990.89,-17.36"/>
</g>
<!-- Node19 -->
<g id="node19" class="node">
<title>Node19</title>
<g id="a_node19"><a xlink:title=" ">
<polygon fill="white" stroke="#bfbfbf" points="218,-291.5 218,-321.5 346,-321.5 346,-291.5 218,-291.5"/>
<text text-anchor="start" x="226" y="-309.5" font-family="Helvetica,sans-Serif" font-size="10.00">odp/api/abi/proto_stats</text>
<text text-anchor="middle" x="282" y="-298.5" font-family="Helvetica,sans-Serif" font-size="10.00">_types.h</text>
</a>
</g>
</g>
<!-- Node18&#45;&gt;Node19 -->
<g id="edge23" class="edge">
<title>Node18&#45;&gt;Node19</title>
<path fill="none" stroke="midnightblue" d="M289.05,-358.4C287.96,-350.56 286.58,-340.6 285.33,-331.57"/>
<polygon fill="midnightblue" stroke="midnightblue" points="288.79,-331 283.95,-321.58 281.85,-331.96 288.79,-331"/>
</g>
<!-- Node20 -->
<g id="node20" class="node">
<title>Node20</title>
<g id="a_node20"><a xlink:href="spec_2proto__stats__types_8h.html" target="_top" xlink:title="ODP proto stats types.">
<polygon fill="white" stroke="black" points="440.5,-291.5 440.5,-321.5 547.5,-321.5 547.5,-291.5 440.5,-291.5"/>
<text text-anchor="start" x="448.5" y="-309.5" font-family="Helvetica,sans-Serif" font-size="10.00">odp/api/spec/proto</text>
<text text-anchor="middle" x="494" y="-298.5" font-family="Helvetica,sans-Serif" font-size="10.00">_stats_types.h</text>
</a>
</g>
</g>
<!-- Node18&#45;&gt;Node20 -->
<g id="edge24" class="edge">
<title>Node18&#45;&gt;Node20</title>
<path fill="none" stroke="midnightblue" d="M335.05,-358.4C365.91,-348.52 407.33,-335.25 440.15,-324.74"/>
<polygon fill="midnightblue" stroke="midnightblue" points="441.58,-327.96 450.04,-321.58 439.45,-321.29 441.58,-327.96"/>
</g>
<!-- Node20&#45;&gt;Node4 -->
<g id="edge25" class="edge">
<title>Node20&#45;&gt;Node4</title>
<path fill="none" stroke="midnightblue" d="M480.56,-291.3C448.27,-257.01 364.22,-166.66 299,-87 282.75,-67.16 265.22,-43.38 253.95,-27.77"/>
<polygon fill="midnightblue" stroke="midnightblue" points="256.77,-25.7 248.1,-19.62 251.08,-29.78 256.77,-25.7"/>
</g>
<!-- Node20&#45;&gt;Node11 -->
<g id="edge37" class="edge">
<title>Node20&#45;&gt;Node11</title>
<path fill="none" stroke="midnightblue" d="M500.98,-291.32C523.4,-247.48 598.36,-113.57 704,-56 752.01,-29.84 902.37,-18.34 990.6,-13.74"/>
<polygon fill="midnightblue" stroke="midnightblue" points="990.97,-17.22 1000.78,-13.22 990.62,-10.23 990.97,-17.22"/>
</g>
<!-- Node20&#45;&gt;Node21 -->
<g id="edge26" class="edge">
<title>Node20&#45;&gt;Node21</title>
<path fill="none" stroke="midnightblue" d="M547.71,-297.68C563.28,-295.46 580.31,-293.09 596,-291 699.71,-277.2 820.27,-262.53 893.05,-253.82"/>
<polygon fill="midnightblue" stroke="midnightblue" points="893.48,-257.29 902.99,-252.63 892.65,-250.34 893.48,-257.29"/>
</g>
<!-- Node22 -->
<g id="node22" class="node">
<title>Node22</title>
<g id="a_node22"><a xlink:title=" ">
<polygon fill="white" stroke="#bfbfbf" points="899,-179.5 899,-198.5 1029,-198.5 1029,-179.5 899,-179.5"/>
<text text-anchor="middle" x="964" y="-186.5" font-family="Helvetica,sans-Serif" font-size="10.00">odp/api/abi/std_types.h</text>
</a>
</g>
</g>
<!-- Node21&#45;&gt;Node22 -->
<g id="edge27" class="edge">
<title>Node21&#45;&gt;Node22</title>
<path fill="none" stroke="midnightblue" d="M959.83,-235.08C960.48,-228.01 961.42,-217.86 962.24,-208.99"/>
<polygon fill="midnightblue" stroke="midnightblue" points="965.75,-209.03 963.19,-198.75 958.78,-208.39 965.75,-209.03"/>
</g>
<!-- Node23 -->
<g id="node23" class="node">
<title>Node23</title>
<g id="a_node23"><a xlink:href="spec_2std__types_8h.html" target="_top" xlink:title="Common types and definitions for ODP API files.">
<polygon fill="white" stroke="black" points="705.5,-179.5 705.5,-198.5 842.5,-198.5 842.5,-179.5 705.5,-179.5"/>
<text text-anchor="middle" x="774" y="-186.5" font-family="Helvetica,sans-Serif" font-size="10.00">odp/api/spec/std_types.h</text>
</a>
</g>
</g>
<!-- Node21&#45;&gt;Node23 -->
<g id="edge28" class="edge">
<title>Node21&#45;&gt;Node23</title>
<path fill="none" stroke="midnightblue" d="M929.69,-235.44C898.16,-226.24 847.87,-211.56 813.01,-201.39"/>
<polygon fill="midnightblue" stroke="midnightblue" points="813.76,-197.96 803.18,-198.52 811.8,-204.68 813.76,-197.96"/>
</g>
<!-- Node23&#45;&gt;Node4 -->
<g id="edge29" class="edge">
<title>Node23&#45;&gt;Node4</title>
<path fill="none" stroke="midnightblue" d="M762.91,-179.2C751.7,-170.24 733.96,-155.88 719,-143 675.37,-105.42 675.41,-79.84 623,-56 569.26,-31.55 407.22,-19.38 312.66,-14.21"/>
<polygon fill="midnightblue" stroke="midnightblue" points="312.77,-10.71 302.6,-13.68 312.4,-17.7 312.77,-10.71"/>
</g>
<!-- Node23&#45;&gt;Node11 -->
<g id="edge36" class="edge">
<title>Node23&#45;&gt;Node11</title>
<path fill="none" stroke="midnightblue" d="M806.4,-179.43C831.99,-171.9 868.1,-159.56 897,-143 912.54,-134.1 1000.56,-59.31 1039.02,-26.42"/>
<polygon fill="midnightblue" stroke="midnightblue" points="1041.52,-28.88 1046.84,-19.72 1036.97,-23.56 1041.52,-28.88"/>
</g>
<!-- Node24 -->
<g id="node24" class="node">
<title>Node24</title>
<g id="a_node24"><a xlink:title=" ">
<polygon fill="white" stroke="#bfbfbf" points="834.5,-123.5 834.5,-142.5 887.5,-142.5 887.5,-123.5 834.5,-123.5"/>
<text text-anchor="middle" x="861" y="-130.5" font-family="Helvetica,sans-Serif" font-size="10.00">stdint.h</text>
</a>
</g>
</g>
<!-- Node23&#45;&gt;Node24 -->
<g id="edge30" class="edge">
<title>Node23&#45;&gt;Node24</title>
<path fill="none" stroke="midnightblue" d="M787.98,-179.32C801.55,-170.9 822.38,-157.97 838.32,-148.07"/>
<polygon fill="midnightblue" stroke="midnightblue" points="840.41,-150.9 847.06,-142.65 836.71,-144.95 840.41,-150.9"/>
</g>
<!-- Node25 -->
<g id="node25" class="node">
<title>Node25</title>
<g id="a_node25"><a xlink:href="align_8h.html" target="_top" xlink:title="ODP alignments.">
<polygon fill="white" stroke="black" points="727.5,-123.5 727.5,-142.5 816.5,-142.5 816.5,-123.5 727.5,-123.5"/>
<text text-anchor="middle" x="772" y="-130.5" font-family="Helvetica,sans-Serif" font-size="10.00">odp/api/align.h</text>
</a>
</g>
</g>
<!-- Node23&#45;&gt;Node25 -->
<g id="edge31" class="edge">
<title>Node23&#45;&gt;Node25</title>
<path fill="none" stroke="midnightblue" d="M773.67,-179.08C773.41,-172.01 773.03,-161.86 772.7,-152.99"/>
<polygon fill="midnightblue" stroke="midnightblue" points="776.19,-152.61 772.32,-142.75 769.2,-152.87 776.19,-152.61"/>
</g>
<!-- Node26 -->
<g id="node26" class="node">
<title>Node26</title>
<g id="a_node26"><a xlink:title=" ">
<polygon fill="white" stroke="#bfbfbf" points="845.5,-62 845.5,-81 952.5,-81 952.5,-62 845.5,-62"/>
<text text-anchor="middle" x="899" y="-69" font-family="Helvetica,sans-Serif" font-size="10.00">odp/api/abi/align.h</text>
</a>
</g>
</g>
<!-- Node25&#45;&gt;Node26 -->
<g id="edge32" class="edge">
<title>Node25&#45;&gt;Node26</title>
<path fill="none" stroke="midnightblue" d="M790.2,-123.48C811.51,-113.49 847.03,-96.85 871.66,-85.31"/>
<polygon fill="midnightblue" stroke="midnightblue" points="873.27,-88.42 880.84,-81.01 870.3,-82.08 873.27,-88.42"/>
</g>
<!-- Node27 -->
<g id="node27" class="node">
<title>Node27</title>
<g id="a_node27"><a xlink:href="spec_2align_8h.html" target="_top" xlink:title="ODP alignments.">
<polygon fill="white" stroke="black" points="713,-62 713,-81 827,-81 827,-62 713,-62"/>
<text text-anchor="middle" x="770" y="-69" font-family="Helvetica,sans-Serif" font-size="10.00">odp/api/spec/align.h</text>
</a>
</g>
</g>
<!-- Node25&#45;&gt;Node27 -->
<g id="edge33" class="edge">
<title>Node25&#45;&gt;Node27</title>
<path fill="none" stroke="midnightblue" d="M771.71,-123.48C771.43,-115.08 770.99,-101.98 770.63,-91.16"/>
<polygon fill="midnightblue" stroke="midnightblue" points="774.12,-90.89 770.29,-81.01 767.12,-91.12 774.12,-90.89"/>
</g>
<!-- Node27&#45;&gt;Node4 -->
<g id="edge34" class="edge">
<title>Node27&#45;&gt;Node4</title>
<path fill="none" stroke="midnightblue" d="M731.81,-61.95C721.22,-59.78 709.7,-57.61 699,-56 563.13,-35.49 403.06,-22.2 312.96,-15.7"/>
<polygon fill="midnightblue" stroke="midnightblue" points="313.09,-12.2 302.86,-14.98 312.59,-19.19 313.09,-12.2"/>
</g>
<!-- Node27&#45;&gt;Node11 -->
<g id="edge35" class="edge">
<title>Node27&#45;&gt;Node11</title>
<path fill="none" stroke="midnightblue" d="M808.96,-61.99C818.15,-60 827.92,-57.91 837,-56 894.16,-43.97 959.77,-30.61 1004.36,-21.59"/>
<polygon fill="midnightblue" stroke="midnightblue" points="1005.27,-24.98 1014.38,-19.57 1003.89,-18.12 1005.27,-24.98"/>
</g>
<!-- Node29 -->
<g id="node29" class="node">
<title>Node29</title>
<g id="a_node29"><a xlink:title=" ">
<polygon fill="white" stroke="#bfbfbf" points="377.5,-554 377.5,-573 522.5,-573 522.5,-554 377.5,-554"/>
<text text-anchor="middle" x="450" y="-561" font-family="Helvetica,sans-Serif" font-size="10.00">odp/api/abi/queue_types.h</text>
</a>
</g>
</g>
<!-- Node28&#45;&gt;Node29 -->
<g id="edge39" class="edge">
<title>Node28&#45;&gt;Node29</title>
<path fill="none" stroke="midnightblue" d="M530.53,-615.48C515.32,-605.84 490.31,-590.02 472.2,-578.55"/>
<polygon fill="midnightblue" stroke="midnightblue" points="473.76,-575.4 463.44,-573.01 470.02,-581.31 473.76,-575.4"/>
</g>
<!-- Node30 -->
<g id="node30" class="node">
<title>Node30</title>
<g id="a_node30"><a xlink:href="spec_2queue__types_8h.html" target="_top" xlink:title="ODP queue types.">
<polygon fill="white" stroke="black" points="579.5,-548.5 579.5,-578.5 690.5,-578.5 690.5,-548.5 579.5,-548.5"/>
<text text-anchor="start" x="587.5" y="-566.5" font-family="Helvetica,sans-Serif" font-size="10.00">odp/api/spec/queue</text>
<text text-anchor="middle" x="635" y="-555.5" font-family="Helvetica,sans-Serif" font-size="10.00">_types.h</text>
</a>
</g>
</g>
<!-- Node28&#45;&gt;Node30 -->
<g id="edge40" class="edge">
<title>Node28&#45;&gt;Node30</title>
<path fill="none" stroke="midnightblue" d="M557.04,-615.48C569.48,-607.34 588.67,-594.79 604.9,-584.18"/>
<polygon fill="midnightblue" stroke="midnightblue" points="607.1,-586.92 613.55,-578.52 603.27,-581.07 607.1,-586.92"/>
</g>
<!-- Node30&#45;&gt;Node4 -->
<g id="edge41" class="edge">
<title>Node30&#45;&gt;Node4</title>
<path fill="none" stroke="midnightblue" d="M588.63,-548.45C492.63,-518.48 276.87,-446.37 227,-389 127.47,-274.51 72.24,-185.05 152,-56 161.67,-40.35 178.62,-29.96 195.22,-23.15"/>
<polygon fill="midnightblue" stroke="midnightblue" points="196.75,-26.32 204.9,-19.54 194.31,-19.76 196.75,-26.32"/>
</g>
<!-- Node30&#45;&gt;Node11 -->
<g id="edge54" class="edge">
<title>Node30&#45;&gt;Node11</title>
<path fill="none" stroke="midnightblue" d="M650.11,-548.33C667.76,-532.49 698.46,-507.09 729,-492 781.98,-465.83 805.68,-485.3 857,-456 931.8,-413.29 941.22,-387.63 997,-322 1068.27,-238.15 1073.04,-197.03 1075,-87 1075.25,-73.22 1077.61,-69.53 1075,-56 1073.21,-46.7 1069.52,-36.89 1065.94,-28.8"/>
<polygon fill="midnightblue" stroke="midnightblue" points="1069.06,-27.21 1061.62,-19.66 1062.73,-30.2 1069.06,-27.21"/>
</g>
<!-- Node31 -->
<g id="node31" class="node">
<title>Node31</title>
<g id="a_node31"><a xlink:href="schedule__types_8h.html" target="_top" xlink:title="ODP schedule.">
<polygon fill="white" stroke="black" points="537,-492.5 537,-511.5 677,-511.5 677,-492.5 537,-492.5"/>
<text text-anchor="middle" x="607" y="-499.5" font-family="Helvetica,sans-Serif" font-size="10.00">odp/api/schedule_types.h</text>
</a>
</g>
</g>
<!-- Node30&#45;&gt;Node31 -->
<g id="edge42" class="edge">
<title>Node30&#45;&gt;Node31</title>
<path fill="none" stroke="midnightblue" d="M628.36,-548.4C624.46,-540.11 619.5,-529.55 615.33,-520.71"/>
<polygon fill="midnightblue" stroke="midnightblue" points="618.5,-519.22 611.07,-511.66 612.17,-522.2 618.5,-519.22"/>
</g>
<!-- Node32 -->
<g id="node32" class="node">
<title>Node32</title>
<g id="a_node32"><a xlink:title=" ">
<polygon fill="white" stroke="#bfbfbf" points="548.5,-425.5 548.5,-455.5 665.5,-455.5 665.5,-425.5 548.5,-425.5"/>
<text text-anchor="start" x="556.5" y="-443.5" font-family="Helvetica,sans-Serif" font-size="10.00">odp/api/abi/schedule</text>
<text text-anchor="middle" x="607" y="-432.5" font-family="Helvetica,sans-Serif" font-size="10.00">_types.h</text>
</a>
</g>
</g>
<!-- Node31&#45;&gt;Node32 -->
<g id="edge43" class="edge">
<title>Node31&#45;&gt;Node32</title>
<path fill="none" stroke="midnightblue" d="M607,-492.48C607,-485.47 607,-475.19 607,-465.7"/>
<polygon fill="midnightblue" stroke="midnightblue" points="610.5,-465.52 607,-455.52 603.5,-465.52 610.5,-465.52"/>
</g>
<!-- Node33 -->
<g id="node33" class="node">
<title>Node33</title>
<g id="a_node33"><a xlink:href="spec_2schedule__types_8h.html" target="_top" xlink:title="ODP schedule types.">
<polygon fill="white" stroke="black" points="722.5,-425.5 722.5,-455.5 847.5,-455.5 847.5,-425.5 722.5,-425.5"/>
<text text-anchor="start" x="730.5" y="-443.5" font-family="Helvetica,sans-Serif" font-size="10.00">odp/api/spec/schedule</text>
<text text-anchor="middle" x="785" y="-432.5" font-family="Helvetica,sans-Serif" font-size="10.00">_types.h</text>
</a>
</g>
</g>
<!-- Node31&#45;&gt;Node33 -->
<g id="edge44" class="edge">
<title>Node31&#45;&gt;Node33</title>
<path fill="none" stroke="midnightblue" d="M632.5,-492.48C658.75,-483.7 700.37,-469.79 733.51,-458.71"/>
<polygon fill="midnightblue" stroke="midnightblue" points="734.67,-462.01 743.05,-455.52 732.46,-455.37 734.67,-462.01"/>
</g>
<!-- Node33&#45;&gt;Node4 -->
<g id="edge45" class="edge">
<title>Node33&#45;&gt;Node4</title>
<path fill="none" stroke="midnightblue" d="M731.7,-425.43C661.45,-406.06 534.77,-368.27 432,-322 405.31,-309.98 204,-219.27 204,-190 204,-190 204,-190 204,-132 204,-93.81 221.44,-51.83 232.69,-28.72"/>
<polygon fill="midnightblue" stroke="midnightblue" points="235.96,-30.02 237.34,-19.52 229.71,-26.86 235.96,-30.02"/>
</g>
<!-- Node33&#45;&gt;Node11 -->
<g id="edge53" class="edge">
<title>Node33&#45;&gt;Node11</title>
<path fill="none" stroke="midnightblue" d="M815.43,-425.42C867.48,-399.63 972.92,-339.58 1024,-255 1068.43,-181.44 1063.43,-72.94 1059.23,-29.74"/>
<polygon fill="midnightblue" stroke="midnightblue" points="1062.71,-29.36 1058.16,-19.8 1055.75,-30.11 1062.71,-29.36"/>
</g>
<!-- Node33&#45;&gt;Node21 -->
<g id="edge46" class="edge">
<title>Node33&#45;&gt;Node21</title>
<path fill="none" stroke="midnightblue" d="M804.38,-425.5C817.11,-415.89 833.78,-402.48 847,-389 887.89,-347.32 928.23,-291.12 947.41,-263.21"/>
<polygon fill="midnightblue" stroke="midnightblue" points="950.55,-264.83 953.29,-254.59 944.76,-260.89 950.55,-264.83"/>
</g>
<!-- Node34 -->
<g id="node34" class="node">
<title>Node34</title>
<g id="a_node34"><a xlink:href="thrmask_8h.html" target="_top" xlink:title="ODP thread masks.">
<polygon fill="white" stroke="black" points="732.5,-364 732.5,-383 837.5,-383 837.5,-364 732.5,-364"/>
<text text-anchor="middle" x="785" y="-371" font-family="Helvetica,sans-Serif" font-size="10.00">odp/api/thrmask.h</text>
</a>
</g>
</g>
<!-- Node33&#45;&gt;Node34 -->
<g id="edge47" class="edge">
<title>Node33&#45;&gt;Node34</title>
<path fill="none" stroke="midnightblue" d="M785,-425.4C785,-416.06 785,-403.71 785,-393.52"/>
<polygon fill="midnightblue" stroke="midnightblue" points="788.5,-393.19 785,-383.19 781.5,-393.19 788.5,-393.19"/>
</g>
<!-- Node35 -->
<g id="node35" class="node">
<title>Node35</title>
<g id="a_node35"><a xlink:title=" ">
<polygon fill="white" stroke="#bfbfbf" points="604.5,-297 604.5,-316 727.5,-316 727.5,-297 604.5,-297"/>
<text text-anchor="middle" x="666" y="-304" font-family="Helvetica,sans-Serif" font-size="10.00">odp/api/abi/thrmask.h</text>
</a>
</g>
</g>
<!-- Node34&#45;&gt;Node35 -->
<g id="edge48" class="edge">
<title>Node34&#45;&gt;Node35</title>
<path fill="none" stroke="midnightblue" d="M768.95,-363.73C748.88,-352.77 714.3,-333.88 690.81,-321.05"/>
<polygon fill="midnightblue" stroke="midnightblue" points="692.25,-317.85 681.79,-316.13 688.89,-323.99 692.25,-317.85"/>
</g>
<!-- Node36 -->
<g id="node36" class="node">
<title>Node36</title>
<g id="a_node36"><a xlink:href="spec_2thrmask_8h.html" target="_top" xlink:title="ODP thread masks.">
<polygon fill="white" stroke="black" points="745.5,-297 745.5,-316 876.5,-316 876.5,-297 745.5,-297"/>
<text text-anchor="middle" x="811" y="-304" font-family="Helvetica,sans-Serif" font-size="10.00">odp/api/spec/thrmask.h</text>
</a>
</g>
</g>
<!-- Node34&#45;&gt;Node36 -->
<g id="edge49" class="edge">
<title>Node34&#45;&gt;Node36</title>
<path fill="none" stroke="midnightblue" d="M788.51,-363.73C792.4,-353.99 798.81,-337.98 803.79,-325.53"/>
<polygon fill="midnightblue" stroke="midnightblue" points="807.08,-326.71 807.55,-316.13 800.59,-324.11 807.08,-326.71"/>
</g>
<!-- Node36&#45;&gt;Node4 -->
<g id="edge50" class="edge">
<title>Node36&#45;&gt;Node4</title>
<path fill="none" stroke="midnightblue" d="M800.67,-296.94C779.95,-279.53 732.26,-238.32 697,-199 670.51,-169.45 624.27,-76.01 590,-56 544.33,-29.33 400.53,-18.14 312.72,-13.7"/>
<polygon fill="midnightblue" stroke="midnightblue" points="312.72,-10.19 302.56,-13.2 312.38,-17.18 312.72,-10.19"/>
</g>
<!-- Node36&#45;&gt;Node11 -->
<g id="edge52" class="edge">
<title>Node36&#45;&gt;Node11</title>
<path fill="none" stroke="midnightblue" d="M815.17,-296.9C825.78,-275.55 855.41,-218.92 890,-179 931.51,-131.09 955.29,-132.91 999,-87 1016.79,-68.31 1034.37,-44.29 1045.43,-28.3"/>
<polygon fill="midnightblue" stroke="midnightblue" points="1048.4,-30.16 1051.14,-19.92 1042.61,-26.22 1048.4,-30.16"/>
</g>
<!-- Node36&#45;&gt;Node21 -->
<g id="edge51" class="edge">
<title>Node36&#45;&gt;Node21</title>
<path fill="none" stroke="midnightblue" d="M832.2,-296.98C857.37,-286.86 899.54,-269.9 928.28,-258.35"/>
<polygon fill="midnightblue" stroke="midnightblue" points="929.86,-261.49 937.83,-254.51 927.25,-254.99 929.86,-261.49"/>
</g>
<!-- Node38 -->
<g id="node38" class="node">
<title>Node38</title>
<g id="a_node38"><a xlink:title=" ">
<polygon fill="white" stroke="#bfbfbf" points="586,-906.5 586,-925.5 722,-925.5 722,-906.5 586,-906.5"/>
<text text-anchor="middle" x="654" y="-913.5" font-family="Helvetica,sans-Serif" font-size="10.00">odp/api/abi/pool_types.h</text>
</a>
</g>
</g>
<!-- Node37&#45;&gt;Node38 -->
<g id="edge60" class="edge">
<title>Node37&#45;&gt;Node38</title>
<path fill="none" stroke="midnightblue" d="M654,-962.08C654,-955.01 654,-944.86 654,-935.99"/>
<polygon fill="midnightblue" stroke="midnightblue" points="657.5,-935.75 654,-925.75 650.5,-935.75 657.5,-935.75"/>
</g>
<!-- Node39 -->
<g id="node39" class="node">
<title>Node39</title>
<g id="a_node39"><a xlink:href="spec_2pool__types_8h.html" target="_top" xlink:title="Type definitions for pools.">
<polygon fill="white" stroke="black" points="766.5,-906.5 766.5,-925.5 909.5,-925.5 909.5,-906.5 766.5,-906.5"/>
<text text-anchor="middle" x="838" y="-913.5" font-family="Helvetica,sans-Serif" font-size="10.00">odp/api/spec/pool_types.h</text>
</a>
</g>
</g>
<!-- Node37&#45;&gt;Node39 -->
<g id="edge61" class="edge">
<title>Node37&#45;&gt;Node39</title>
<path fill="none" stroke="midnightblue" d="M683.16,-962.44C714.51,-953.24 764.53,-938.56 799.2,-928.39"/>
<polygon fill="midnightblue" stroke="midnightblue" points="800.37,-931.69 808.98,-925.52 798.4,-924.97 800.37,-931.69"/>
</g>
<!-- Node39&#45;&gt;Node4 -->
<g id="edge62" class="edge">
<title>Node39&#45;&gt;Node4</title>
<path fill="none" stroke="midnightblue" d="M794.51,-906.48C635.38,-874.72 94,-761.24 94,-687.5 94,-687.5 94,-687.5 94,-439.5 94,-261.68 127.79,-214.7 208,-56 213.18,-45.75 220.75,-35.45 227.43,-27.29"/>
<polygon fill="midnightblue" stroke="midnightblue" points="230.11,-29.55 233.94,-19.66 224.78,-25 230.11,-29.55"/>
</g>
<!-- Node39&#45;&gt;Node5 -->
<g id="edge64" class="edge">
<title>Node39&#45;&gt;Node5</title>
<path fill="none" stroke="midnightblue" d="M766.35,-908.95C754.54,-907.96 742.43,-906.95 731,-906 534.58,-889.74 485.09,-889.9 289,-870 287.7,-869.87 286.38,-869.73 285.05,-869.59"/>
<polygon fill="midnightblue" stroke="midnightblue" points="285.07,-866.07 274.75,-868.47 284.32,-873.03 285.07,-866.07"/>
</g>
<!-- Node39&#45;&gt;Node11 -->
<g id="edge73" class="edge">
<title>Node39&#45;&gt;Node11</title>
<path fill="none" stroke="midnightblue" d="M909.71,-910.43C1027.01,-900.97 1247,-874.03 1247,-805 1247,-805 1247,-805 1247,-132 1247,-91.81 1229.91,-80.44 1198,-56 1176.21,-39.31 1148.05,-28.72 1122.64,-22.03"/>
<polygon fill="midnightblue" stroke="midnightblue" points="1123.23,-18.57 1112.68,-19.57 1121.55,-25.37 1123.23,-18.57"/>
</g>
<!-- Node39&#45;&gt;Node21 -->
<g id="edge63" class="edge">
<title>Node39&#45;&gt;Node21</title>
<path fill="none" stroke="midnightblue" d="M890.74,-906.47C975.59,-891.24 1133,-856.11 1133,-805 1133,-805 1133,-805 1133,-562.5 1133,-435.24 1127.93,-384.87 1042,-291 1028.86,-276.65 1010.06,-265.93 993.68,-258.56"/>
<polygon fill="midnightblue" stroke="midnightblue" points="994.94,-255.3 984.37,-254.61 992.21,-261.74 994.94,-255.3"/>
</g>
<!-- Node40 -->
<g id="node40" class="node">
<title>Node40</title>
<g id="a_node40"><a xlink:href="ml__types_8h.html" target="_top" xlink:title="ODP Machine Learning (ML) types.">
<polygon fill="white" stroke="black" points="939,-738.5 939,-757.5 1049,-757.5 1049,-738.5 939,-738.5"/>
<text text-anchor="middle" x="994" y="-745.5" font-family="Helvetica,sans-Serif" font-size="10.00">odp/api/ml_types.h</text>
</a>
</g>
</g>
<!-- Node39&#45;&gt;Node40 -->
<g id="edge65" class="edge">
<title>Node39&#45;&gt;Node40</title>
<path fill="none" stroke="midnightblue" d="M846.39,-906.08C871.58,-879.27 946.83,-799.19 979.07,-764.89"/>
<polygon fill="midnightblue" stroke="midnightblue" points="981.65,-767.25 985.95,-757.57 976.55,-762.46 981.65,-767.25"/>
</g>
<!-- Node41 -->
<g id="node41" class="node">
<title>Node41</title>
<g id="a_node41"><a xlink:title=" ">
<polygon fill="white" stroke="#bfbfbf" points="939,-677 939,-696 1067,-696 1067,-677 939,-677"/>
<text text-anchor="middle" x="1003" y="-684" font-family="Helvetica,sans-Serif" font-size="10.00">odp/api/abi/ml_types.h</text>
</a>
</g>
</g>
<!-- Node40&#45;&gt;Node41 -->
<g id="edge66" class="edge">
<title>Node40&#45;&gt;Node41</title>
<path fill="none" stroke="midnightblue" d="M995.29,-738.48C996.56,-730.08 998.54,-716.98 1000.18,-706.16"/>
<polygon fill="midnightblue" stroke="midnightblue" points="1003.68,-706.42 1001.71,-696.01 996.76,-705.37 1003.68,-706.42"/>
</g>
<!-- Node42 -->
<g id="node42" class="node">
<title>Node42</title>
<g id="a_node42"><a xlink:href="spec_2ml__types_8h.html" target="_top" xlink:title="ODP Machine Learning (ML) types.">
<polygon fill="white" stroke="black" points="730.5,-677 730.5,-696 865.5,-696 865.5,-677 730.5,-677"/>
<text text-anchor="middle" x="798" y="-684" font-family="Helvetica,sans-Serif" font-size="10.00">odp/api/spec/ml_types.h</text>
</a>
</g>
</g>
<!-- Node40&#45;&gt;Node42 -->
<g id="edge67" class="edge">
<title>Node40&#45;&gt;Node42</title>
<path fill="none" stroke="midnightblue" d="M965.92,-738.48C931.71,-728.09 873.8,-710.51 835.73,-698.95"/>
<polygon fill="midnightblue" stroke="midnightblue" points="836.62,-695.56 826.03,-696.01 834.58,-702.26 836.62,-695.56"/>
</g>
<!-- Node42&#45;&gt;Node4 -->
<g id="edge68" class="edge">
<title>Node42&#45;&gt;Node4</title>
<path fill="none" stroke="midnightblue" d="M775.52,-676.99C733.72,-660.73 641.84,-622.94 571,-579 552.18,-567.33 550.57,-560.06 532,-548 499.95,-527.18 250.92,-418.8 227,-389 199.28,-354.46 202.04,-334.73 209,-291 216.43,-244.36 242,-237.22 242,-190 242,-190 242,-190 242,-132 242,-95.71 242,-53.31 242,-29.56"/>
<polygon fill="midnightblue" stroke="midnightblue" points="245.5,-29.51 242,-19.51 238.5,-29.51 245.5,-29.51"/>
</g>
<!-- Node42&#45;&gt;Node8 -->
<g id="edge69" class="edge">
<title>Node42&#45;&gt;Node8</title>
<path fill="none" stroke="midnightblue" d="M796.71,-676.98C795.44,-668.58 793.46,-655.48 791.82,-644.66"/>
<polygon fill="midnightblue" stroke="midnightblue" points="795.24,-643.87 790.29,-634.51 788.32,-644.92 795.24,-643.87"/>
</g>
<!-- Node42&#45;&gt;Node11 -->
<g id="edge72" class="edge">
<title>Node42&#45;&gt;Node11</title>
<path fill="none" stroke="midnightblue" d="M834.6,-677C876.49,-666.8 942.02,-649.3 963,-635 996.07,-612.46 1019,-604.52 1019,-564.5 1019,-564.5 1019,-564.5 1019,-501 1019,-369.06 1171,-377.94 1171,-246 1171,-246 1171,-246 1171,-132 1171,-96.58 1170,-82.94 1147,-56 1134.08,-40.86 1114.84,-30.29 1097.46,-23.21"/>
<polygon fill="midnightblue" stroke="midnightblue" points="1098.64,-19.92 1088.05,-19.63 1096.15,-26.46 1098.64,-19.92"/>
</g>
<!-- Node42&#45;&gt;Node21 -->
<g id="edge71" class="edge">
<title>Node42&#45;&gt;Node21</title>
<path fill="none" stroke="midnightblue" d="M840.91,-676.96C894.99,-663.41 981,-631.34 981,-564.5 981,-564.5 981,-564.5 981,-372.5 981,-333.45 970.7,-288.61 964.19,-264.19"/>
<polygon fill="midnightblue" stroke="midnightblue" points="967.56,-263.21 961.52,-254.5 960.81,-265.07 967.56,-263.21"/>
</g>
<!-- Node42&#45;&gt;Node28 -->
<g id="edge70" class="edge">
<title>Node42&#45;&gt;Node28</title>
<path fill="none" stroke="midnightblue" d="M761.61,-676.98C716.43,-666.39 639.35,-648.34 590.09,-636.8"/>
<polygon fill="midnightblue" stroke="midnightblue" points="590.86,-633.38 580.32,-634.51 589.26,-640.2 590.86,-633.38"/>
</g>
</g>
</svg>
