<?xml version="1.0" encoding="UTF-8" standalone="no"?>
<!DOCTYPE svg PUBLIC "-//W3C//DTD SVG 1.1//EN"
 "http://www.w3.org/Graphics/SVG/1.1/DTD/svg11.dtd">
<!-- Generated by graphviz version 2.40.1 (20161225.0304)
 -->
<!-- Title: event.h Pages: 1 -->
<svg width="1125pt" height="733pt"
 viewBox="0.00 0.00 1125.00 733.00" xmlns="http://www.w3.org/2000/svg" xmlns:xlink="http://www.w3.org/1999/xlink">
<g id="graph0" class="graph" transform="scale(1 1) rotate(0) translate(4 729)">
<title>event.h</title>
<polygon fill="#ffffff" stroke="transparent" points="-4,4 -4,-729 1121,-729 1121,4 -4,4"/>
<!-- Node0 -->
<g id="node1" class="node">
<title>Node0</title>
<polygon fill="#bfbfbf" stroke="#000000" points="970.5,-705.5 970.5,-724.5 1023.5,-724.5 1023.5,-705.5 970.5,-705.5"/>
<text text-anchor="middle" x="997" y="-712.5" font-family="Helvetica,sans-Serif" font-size="10.00" fill="#000000">event.h</text>
</g>
<!-- Node1 -->
<g id="node2" class="node">
<title>Node1</title>
<polygon fill="#ffffff" stroke="#bfbfbf" points="979,-537.5 979,-556.5 1089,-556.5 1089,-537.5 979,-537.5"/>
<text text-anchor="middle" x="1034" y="-544.5" font-family="Helvetica,sans-Serif" font-size="10.00" fill="#000000">odp/api/abi/event.h</text>
</g>
<!-- Node0&#45;&gt;Node1 -->
<g id="edge1" class="edge">
<title>Node0&#45;&gt;Node1</title>
<path fill="none" stroke="#191970" d="M999.0953,-705.4862C1004.9695,-678.8144 1021.6861,-602.9117 1029.6624,-566.695"/>
<polygon fill="#191970" stroke="#191970" points="1033.1027,-567.3467 1031.8355,-556.8279 1026.2665,-565.841 1033.1027,-567.3467"/>
</g>
<!-- Node2 -->
<g id="node3" class="node">
<title>Node2</title>
<g id="a_node3"><a xlink:href="spec_2event_8h.html" target="_top" xlink:title="ODP event. ">
<polygon fill="#ffffff" stroke="#000000" points="624,-649.5 624,-668.5 742,-668.5 742,-649.5 624,-649.5"/>
<text text-anchor="middle" x="683" y="-656.5" font-family="Helvetica,sans-Serif" font-size="10.00" fill="#000000">odp/api/spec/event.h</text>
</a>
</g>
</g>
<!-- Node0&#45;&gt;Node2 -->
<g id="edge2" class="edge">
<title>Node0&#45;&gt;Node2</title>
<path fill="none" stroke="#191970" d="M970.4992,-710.2737C921.3874,-701.5149 814.9943,-682.5404 746.3138,-670.2916"/>
<polygon fill="#191970" stroke="#191970" points="746.9248,-666.8454 736.4656,-668.5353 745.6957,-673.7367 746.9248,-666.8454"/>
</g>
<!-- Node3 -->
<g id="node4" class="node">
<title>Node3</title>
<polygon fill="#ffffff" stroke="#bfbfbf" points="330.5,-.5 330.5,-19.5 451.5,-19.5 451.5,-.5 330.5,-.5"/>
<text text-anchor="middle" x="391" y="-7.5" font-family="Helvetica,sans-Serif" font-size="10.00" fill="#000000">odp/visibility_begin.h</text>
</g>
<!-- Node2&#45;&gt;Node3 -->
<g id="edge3" class="edge">
<title>Node2&#45;&gt;Node3</title>
<path fill="none" stroke="#191970" d="M623.8802,-655.5048C457.9593,-644.9121 0,-609.9714 0,-547 0,-547 0,-547 0,-122 0,-82.0568 25.6006,-74.5025 61,-56 104.7993,-33.1071 237.1505,-20.2811 320.3282,-14.2824"/>
<polygon fill="#191970" stroke="#191970" points="320.7404,-17.7621 330.4693,-13.5672 320.2479,-10.7795 320.7404,-17.7621"/>
</g>
<!-- Node4 -->
<g id="node5" class="node">
<title>Node4</title>
<g id="a_node5"><a xlink:href="packet_8h.html" target="_top" xlink:title="ODP packet descriptor. ">
<polygon fill="#ffffff" stroke="#000000" points="477,-593.5 477,-612.5 575,-612.5 575,-593.5 477,-593.5"/>
<text text-anchor="middle" x="526" y="-600.5" font-family="Helvetica,sans-Serif" font-size="10.00" fill="#000000">odp/api/packet.h</text>
</a>
</g>
</g>
<!-- Node2&#45;&gt;Node4 -->
<g id="edge4" class="edge">
<title>Node2&#45;&gt;Node4</title>
<path fill="none" stroke="#191970" d="M656.0107,-649.3733C630.1301,-640.1419 590.8752,-626.1402 562.2711,-615.9375"/>
<polygon fill="#191970" stroke="#191970" points="563.2317,-612.5642 552.6371,-612.5011 560.88,-619.1573 563.2317,-612.5642"/>
</g>
<!-- Node12 -->
<g id="node13" class="node">
<title>Node12</title>
<polygon fill="#ffffff" stroke="#bfbfbf" points="890,-.5 890,-19.5 1002,-19.5 1002,-.5 890,-.5"/>
<text text-anchor="middle" x="946" y="-7.5" font-family="Helvetica,sans-Serif" font-size="10.00" fill="#000000">odp/visibility_end.h</text>
</g>
<!-- Node2&#45;&gt;Node12 -->
<g id="edge54" class="edge">
<title>Node2&#45;&gt;Node12</title>
<path fill="none" stroke="#191970" d="M742.4358,-656.0518C861.2975,-648.5269 1117,-623.454 1117,-547 1117,-547 1117,-547 1117,-122 1117,-66.272 1052.6589,-36.7699 1002.9108,-22.2881"/>
<polygon fill="#191970" stroke="#191970" points="1003.7509,-18.889 993.1792,-19.5887 1001.8798,-25.6343 1003.7509,-18.889"/>
</g>
<!-- Node4&#45;&gt;Node1 -->
<g id="edge16" class="edge">
<title>Node4&#45;&gt;Node1</title>
<path fill="none" stroke="#191970" d="M575.1215,-598.4918C656.356,-590.893 823.7509,-574.6287 965,-557 966.111,-556.8613 967.2319,-556.7196 968.3603,-556.5753"/>
<polygon fill="#191970" stroke="#191970" points="969.2081,-559.9939 978.6644,-555.216 968.2925,-553.054 969.2081,-559.9939"/>
</g>
<!-- Node5 -->
<g id="node6" class="node">
<title>Node5</title>
<g id="a_node6"><a xlink:href="std__types_8h.html" target="_top" xlink:title="Standard C language types and definitions for ODP. ">
<polygon fill="#ffffff" stroke="#000000" points="177,-235.5 177,-254.5 289,-254.5 289,-235.5 177,-235.5"/>
<text text-anchor="middle" x="233" y="-242.5" font-family="Helvetica,sans-Serif" font-size="10.00" fill="#000000">odp/api/std_types.h</text>
</a>
</g>
</g>
<!-- Node4&#45;&gt;Node5 -->
<g id="edge5" class="edge">
<title>Node4&#45;&gt;Node5</title>
<path fill="none" stroke="#191970" d="M511.459,-593.4943C486.4716,-577.2795 436.2193,-545.2257 417,-537 360.7013,-512.9048 328.571,-542.9947 284,-501 259.603,-478.0132 260,-463.0202 260,-429.5 260,-429.5 260,-429.5 260,-368 260,-330.6508 247.9762,-288.3748 239.9762,-264.3801"/>
<polygon fill="#191970" stroke="#191970" points="243.2145,-263.0347 236.6413,-254.7253 236.598,-265.3201 243.2145,-263.0347"/>
</g>
<!-- Node13 -->
<g id="node14" class="node">
<title>Node13</title>
<polygon fill="#ffffff" stroke="#bfbfbf" points="278,-537.5 278,-556.5 408,-556.5 408,-537.5 278,-537.5"/>
<text text-anchor="middle" x="343" y="-544.5" font-family="Helvetica,sans-Serif" font-size="10.00" fill="#000000">odp/api/abi/packet_io.h</text>
</g>
<!-- Node4&#45;&gt;Node13 -->
<g id="edge17" class="edge">
<title>Node4&#45;&gt;Node13</title>
<path fill="none" stroke="#191970" d="M494.5412,-593.3733C463.9793,-584.021 417.4174,-569.7725 383.9739,-559.5385"/>
<polygon fill="#191970" stroke="#191970" points="384.6348,-556.0806 374.0483,-556.5011 382.5864,-562.7742 384.6348,-556.0806"/>
</g>
<!-- Node14 -->
<g id="node15" class="node">
<title>Node14</title>
<polygon fill="#ffffff" stroke="#bfbfbf" points="897.5,-414.5 897.5,-444.5 1004.5,-444.5 1004.5,-414.5 897.5,-414.5"/>
<text text-anchor="start" x="905.5" y="-432.5" font-family="Helvetica,sans-Serif" font-size="10.00" fill="#000000">odp/api/abi/packet</text>
<text text-anchor="middle" x="951" y="-421.5" font-family="Helvetica,sans-Serif" font-size="10.00" fill="#000000">_types.h</text>
</g>
<!-- Node4&#45;&gt;Node14 -->
<g id="edge18" class="edge">
<title>Node4&#45;&gt;Node14</title>
<path fill="none" stroke="#191970" d="M575.314,-597.0205C672.1603,-584.287 882.132,-551.4693 932,-501 943.9135,-488.9429 948.5932,-470.3161 950.3313,-455.0971"/>
<polygon fill="#191970" stroke="#191970" points="953.8493,-455.0024 951.1384,-444.7602 946.8705,-454.4574 953.8493,-455.0024"/>
</g>
<!-- Node15 -->
<g id="node16" class="node">
<title>Node15</title>
<polygon fill="#ffffff" stroke="#bfbfbf" points="606,-537.5 606,-556.5 722,-556.5 722,-537.5 606,-537.5"/>
<text text-anchor="middle" x="664" y="-544.5" font-family="Helvetica,sans-Serif" font-size="10.00" fill="#000000">odp/api/abi/packet.h</text>
</g>
<!-- Node4&#45;&gt;Node15 -->
<g id="edge19" class="edge">
<title>Node4&#45;&gt;Node15</title>
<path fill="none" stroke="#191970" d="M549.723,-593.3733C572.1737,-584.2629 606.0739,-570.5062 631.1255,-560.3404"/>
<polygon fill="#191970" stroke="#191970" points="632.6365,-563.5045 640.5865,-556.5011 630.0043,-557.0182 632.6365,-563.5045"/>
</g>
<!-- Node16 -->
<g id="node17" class="node">
<title>Node16</title>
<polygon fill="#ffffff" stroke="#bfbfbf" points="28,-537.5 28,-556.5 138,-556.5 138,-537.5 28,-537.5"/>
<text text-anchor="middle" x="83" y="-544.5" font-family="Helvetica,sans-Serif" font-size="10.00" fill="#000000">odp/api/abi/buffer.h</text>
</g>
<!-- Node4&#45;&gt;Node16 -->
<g id="edge20" class="edge">
<title>Node4&#45;&gt;Node16</title>
<path fill="none" stroke="#191970" d="M476.8696,-597.5805C406.445,-589.6922 272.4769,-574.2414 148.2131,-557.1318"/>
<polygon fill="#191970" stroke="#191970" points="148.5256,-553.6418 138.1403,-555.7383 147.5663,-560.5758 148.5256,-553.6418"/>
</g>
<!-- Node17 -->
<g id="node18" class="node">
<title>Node17</title>
<polygon fill="#ffffff" stroke="#bfbfbf" points="156,-537.5 156,-556.5 260,-556.5 260,-537.5 156,-537.5"/>
<text text-anchor="middle" x="208" y="-544.5" font-family="Helvetica,sans-Serif" font-size="10.00" fill="#000000">odp/api/abi/pool.h</text>
</g>
<!-- Node4&#45;&gt;Node17 -->
<g id="edge21" class="edge">
<title>Node4&#45;&gt;Node17</title>
<path fill="none" stroke="#191970" d="M476.6614,-594.3114C421.0856,-584.5245 330.659,-568.6003 270.2662,-557.9651"/>
<polygon fill="#191970" stroke="#191970" points="270.5544,-554.4621 260.0989,-556.1746 269.3403,-561.356 270.5544,-554.4621"/>
</g>
<!-- Node18 -->
<g id="node19" class="node">
<title>Node18</title>
<g id="a_node19"><a xlink:href="spec_2packet_8h.html" target="_top" xlink:title="ODP packet descriptor. ">
<polygon fill="#ffffff" stroke="#000000" points="464.5,-537.5 464.5,-556.5 587.5,-556.5 587.5,-537.5 464.5,-537.5"/>
<text text-anchor="middle" x="526" y="-544.5" font-family="Helvetica,sans-Serif" font-size="10.00" fill="#000000">odp/api/spec/packet.h</text>
</a>
</g>
</g>
<!-- Node4&#45;&gt;Node18 -->
<g id="edge22" class="edge">
<title>Node4&#45;&gt;Node18</title>
<path fill="none" stroke="#191970" d="M526,-593.2455C526,-585.9382 526,-575.6944 526,-566.7046"/>
<polygon fill="#191970" stroke="#191970" points="529.5001,-566.6426 526,-556.6427 522.5001,-566.6427 529.5001,-566.6426"/>
</g>
<!-- Node6 -->
<g id="node7" class="node">
<title>Node6</title>
<polygon fill="#ffffff" stroke="#bfbfbf" points="66,-174 66,-193 196,-193 196,-174 66,-174"/>
<text text-anchor="middle" x="131" y="-181" font-family="Helvetica,sans-Serif" font-size="10.00" fill="#000000">odp/api/abi/std_types.h</text>
</g>
<!-- Node5&#45;&gt;Node6 -->
<g id="edge6" class="edge">
<title>Node5&#45;&gt;Node6</title>
<path fill="none" stroke="#191970" d="M217.0625,-235.3906C200.5949,-225.4616 174.6742,-209.833 155.5796,-198.3201"/>
<polygon fill="#191970" stroke="#191970" points="157.1966,-195.2081 146.8256,-193.0419 153.5822,-201.2027 157.1966,-195.2081"/>
</g>
<!-- Node7 -->
<g id="node8" class="node">
<title>Node7</title>
<g id="a_node8"><a xlink:href="spec_2std__types_8h.html" target="_top" xlink:title="Standard C language types and definitions for ODP. ">
<polygon fill="#ffffff" stroke="#000000" points="214.5,-174 214.5,-193 351.5,-193 351.5,-174 214.5,-174"/>
<text text-anchor="middle" x="283" y="-181" font-family="Helvetica,sans-Serif" font-size="10.00" fill="#000000">odp/api/spec/std_types.h</text>
</a>
</g>
</g>
<!-- Node5&#45;&gt;Node7 -->
<g id="edge7" class="edge">
<title>Node5&#45;&gt;Node7</title>
<path fill="none" stroke="#191970" d="M240.8125,-235.3906C248.254,-226.2376 259.6334,-212.2409 268.6992,-201.09"/>
<polygon fill="#191970" stroke="#191970" points="271.4847,-203.212 275.0774,-193.2449 266.0533,-198.7962 271.4847,-203.212"/>
</g>
<!-- Node7&#45;&gt;Node3 -->
<g id="edge8" class="edge">
<title>Node7&#45;&gt;Node3</title>
<path fill="none" stroke="#191970" d="M260.2576,-173.9562C214.3818,-154.1894 113.5366,-107.9525 95,-76 90.5395,-68.3113 89.2173,-62.7508 95,-56 109.4932,-39.0805 237.2003,-24.2018 320.0689,-16.2123"/>
<polygon fill="#191970" stroke="#191970" points="320.5692,-19.6806 330.1926,-15.2489 319.906,-12.7121 320.5692,-19.6806"/>
</g>
<!-- Node8 -->
<g id="node9" class="node">
<title>Node8</title>
<polygon fill="#ffffff" stroke="#bfbfbf" points="66.5,-112.5 66.5,-131.5 119.5,-131.5 119.5,-112.5 66.5,-112.5"/>
<text text-anchor="middle" x="93" y="-119.5" font-family="Helvetica,sans-Serif" font-size="10.00" fill="#000000">stdint.h</text>
</g>
<!-- Node7&#45;&gt;Node8 -->
<g id="edge9" class="edge">
<title>Node7&#45;&gt;Node8</title>
<path fill="none" stroke="#191970" d="M253.3125,-173.8906C219.8268,-163.0518 165.3579,-145.4211 129.3521,-133.7666"/>
<polygon fill="#191970" stroke="#191970" points="130.3109,-130.3982 119.719,-130.6485 128.1551,-137.058 130.3109,-130.3982"/>
</g>
<!-- Node9 -->
<g id="node10" class="node">
<title>Node9</title>
<g id="a_node10"><a xlink:href="align_8h.html" target="_top" xlink:title="ODP alignments. ">
<polygon fill="#ffffff" stroke="#000000" points="238.5,-112.5 238.5,-131.5 327.5,-131.5 327.5,-112.5 238.5,-112.5"/>
<text text-anchor="middle" x="283" y="-119.5" font-family="Helvetica,sans-Serif" font-size="10.00" fill="#000000">odp/api/align.h</text>
</a>
</g>
</g>
<!-- Node7&#45;&gt;Node9 -->
<g id="edge10" class="edge">
<title>Node7&#45;&gt;Node9</title>
<path fill="none" stroke="#191970" d="M283,-173.8906C283,-165.3657 283,-152.6392 283,-141.9235"/>
<polygon fill="#191970" stroke="#191970" points="286.5001,-141.7448 283,-131.7449 279.5001,-141.7449 286.5001,-141.7448"/>
</g>
<!-- Node7&#45;&gt;Node12 -->
<g id="edge15" class="edge">
<title>Node7&#45;&gt;Node12</title>
<path fill="none" stroke="#191970" d="M351.7227,-175.0229C504.5522,-155.6969 862.7171,-107.6062 908,-76 924.0327,-64.8096 934.2225,-44.5254 939.97,-29.387"/>
<polygon fill="#191970" stroke="#191970" points="943.289,-30.4984 943.2565,-19.9036 936.6749,-28.2062 943.289,-30.4984"/>
</g>
<!-- Node10 -->
<g id="node11" class="node">
<title>Node10</title>
<polygon fill="#ffffff" stroke="#bfbfbf" points="104.5,-56.5 104.5,-75.5 211.5,-75.5 211.5,-56.5 104.5,-56.5"/>
<text text-anchor="middle" x="158" y="-63.5" font-family="Helvetica,sans-Serif" font-size="10.00" fill="#000000">odp/api/abi/align.h</text>
</g>
<!-- Node9&#45;&gt;Node10 -->
<g id="edge11" class="edge">
<title>Node9&#45;&gt;Node10</title>
<path fill="none" stroke="#191970" d="M261.5117,-112.3733C241.356,-103.3435 211.012,-89.7494 188.382,-79.6111"/>
<polygon fill="#191970" stroke="#191970" points="189.7649,-76.3955 179.2079,-75.5011 186.9029,-82.7838 189.7649,-76.3955"/>
</g>
<!-- Node11 -->
<g id="node12" class="node">
<title>Node11</title>
<g id="a_node12"><a xlink:href="spec_2align_8h.html" target="_top" xlink:title="ODP alignments. ">
<polygon fill="#ffffff" stroke="#000000" points="268,-56.5 268,-75.5 382,-75.5 382,-56.5 268,-56.5"/>
<text text-anchor="middle" x="325" y="-63.5" font-family="Helvetica,sans-Serif" font-size="10.00" fill="#000000">odp/api/spec/align.h</text>
</a>
</g>
</g>
<!-- Node9&#45;&gt;Node11 -->
<g id="edge12" class="edge">
<title>Node9&#45;&gt;Node11</title>
<path fill="none" stroke="#191970" d="M290.3158,-112.2455C296.2179,-104.3761 304.6742,-93.101 311.7594,-83.6542"/>
<polygon fill="#191970" stroke="#191970" points="314.568,-85.7427 317.768,-75.6427 308.9679,-81.5427 314.568,-85.7427"/>
</g>
<!-- Node11&#45;&gt;Node3 -->
<g id="edge13" class="edge">
<title>Node11&#45;&gt;Node3</title>
<path fill="none" stroke="#191970" d="M336.4963,-56.2455C346.2442,-47.9746 360.4259,-35.9416 371.8798,-26.2232"/>
<polygon fill="#191970" stroke="#191970" points="374.2747,-28.7813 379.6354,-19.6427 369.7459,-23.4437 374.2747,-28.7813"/>
</g>
<!-- Node11&#45;&gt;Node12 -->
<g id="edge14" class="edge">
<title>Node11&#45;&gt;Node12</title>
<path fill="none" stroke="#191970" d="M382.2056,-57.0903C385.1774,-56.7033 388.1224,-56.3369 391,-56 567.1102,-35.384 775.7225,-20.6986 879.8897,-14.0268"/>
<polygon fill="#191970" stroke="#191970" points="880.1859,-17.5151 889.9434,-13.387 879.7413,-10.5292 880.1859,-17.5151"/>
</g>
<!-- Node18&#45;&gt;Node3 -->
<g id="edge23" class="edge">
<title>Node18&#45;&gt;Node3</title>
<path fill="none" stroke="#191970" d="M499.5588,-537.3989C415.5117,-505.2479 154.3045,-392.3657 57,-199 27.7676,-140.9087 34.6202,-93.1447 88,-56 124.5202,-30.5872 242.6392,-18.746 320.1562,-13.59"/>
<polygon fill="#191970" stroke="#191970" points="320.5858,-17.0697 330.3406,-12.9353 320.1367,-10.0841 320.5858,-17.0697"/>
</g>
<!-- Node18&#45;&gt;Node12 -->
<g id="edge53" class="edge">
<title>Node18&#45;&gt;Node12</title>
<path fill="none" stroke="#191970" d="M574.8505,-537.4881C640.2463,-523.4721 758.6001,-493.5521 850,-445 869.5544,-434.6126 869.7899,-425.011 889,-414 927.4532,-391.9592 943.152,-399.3373 982,-378 1028.9427,-352.2167 1079,-360.0574 1079,-306.5 1079,-306.5 1079,-306.5 1079,-122 1079,-72.0478 1023.4295,-39.8768 984.1292,-23.371"/>
<polygon fill="#191970" stroke="#191970" points="985.1156,-19.9953 974.5318,-19.5108 982.5034,-26.4897 985.1156,-19.9953"/>
</g>
<!-- Node19 -->
<g id="node20" class="node">
<title>Node19</title>
<g id="a_node20"><a xlink:href="time_8h.html" target="_top" xlink:title="ODP time. ">
<polygon fill="#ffffff" stroke="#000000" points="336.5,-297 336.5,-316 423.5,-316 423.5,-297 336.5,-297"/>
<text text-anchor="middle" x="380" y="-304" font-family="Helvetica,sans-Serif" font-size="10.00" fill="#000000">odp/api/time.h</text>
</a>
</g>
</g>
<!-- Node18&#45;&gt;Node19 -->
<g id="edge24" class="edge">
<title>Node18&#45;&gt;Node19</title>
<path fill="none" stroke="#191970" d="M520.0958,-537.2742C498.0357,-500.9355 420.2268,-372.764 391.1085,-324.7985"/>
<polygon fill="#191970" stroke="#191970" points="393.9989,-322.8152 385.8177,-316.0833 388.0152,-326.4477 393.9989,-322.8152"/>
</g>
<!-- Node22 -->
<g id="node23" class="node">
<title>Node22</title>
<g id="a_node23"><a xlink:href="packet__types_8h.html" target="_top" xlink:title="ODP packet. ">
<polygon fill="#ffffff" stroke="#000000" points="793,-481.5 793,-500.5 923,-500.5 923,-481.5 793,-481.5"/>
<text text-anchor="middle" x="858" y="-488.5" font-family="Helvetica,sans-Serif" font-size="10.00" fill="#000000">odp/api/packet_types.h</text>
</a>
</g>
</g>
<!-- Node18&#45;&gt;Node22 -->
<g id="edge30" class="edge">
<title>Node18&#45;&gt;Node22</title>
<path fill="none" stroke="#191970" d="M582.6956,-537.4369C640.5891,-527.6717 730.4128,-512.5207 791.5966,-502.2006"/>
<polygon fill="#191970" stroke="#191970" points="792.2597,-505.6383 801.5382,-500.5237 791.0954,-498.7358 792.2597,-505.6383"/>
</g>
<!-- Node19&#45;&gt;Node5 -->
<g id="edge25" class="edge">
<title>Node19&#45;&gt;Node5</title>
<path fill="none" stroke="#191970" d="M357.0313,-296.8906C332.3276,-286.5554 292.863,-270.0447 265.0973,-258.4284"/>
<polygon fill="#191970" stroke="#191970" points="266.3835,-255.1727 255.8075,-254.5419 263.6818,-261.6303 266.3835,-255.1727"/>
</g>
<!-- Node20 -->
<g id="node21" class="node">
<title>Node20</title>
<polygon fill="#ffffff" stroke="#bfbfbf" points="307.5,-235.5 307.5,-254.5 412.5,-254.5 412.5,-235.5 307.5,-235.5"/>
<text text-anchor="middle" x="360" y="-242.5" font-family="Helvetica,sans-Serif" font-size="10.00" fill="#000000">odp/api/abi/time.h</text>
</g>
<!-- Node19&#45;&gt;Node20 -->
<g id="edge26" class="edge">
<title>Node19&#45;&gt;Node20</title>
<path fill="none" stroke="#191970" d="M376.875,-296.8906C374.0735,-288.276 369.8767,-275.3708 366.3694,-264.5858"/>
<polygon fill="#191970" stroke="#191970" points="369.5902,-263.1722 363.1691,-254.7449 362.9333,-265.3371 369.5902,-263.1722"/>
</g>
<!-- Node21 -->
<g id="node22" class="node">
<title>Node21</title>
<g id="a_node22"><a xlink:href="spec_2time_8h.html" target="_top" xlink:title="ODP time. ">
<polygon fill="#ffffff" stroke="#000000" points="400.5,-56.5 400.5,-75.5 513.5,-75.5 513.5,-56.5 400.5,-56.5"/>
<text text-anchor="middle" x="457" y="-63.5" font-family="Helvetica,sans-Serif" font-size="10.00" fill="#000000">odp/api/spec/time.h</text>
</a>
</g>
</g>
<!-- Node19&#45;&gt;Node21 -->
<g id="edge27" class="edge">
<title>Node19&#45;&gt;Node21</title>
<path fill="none" stroke="#191970" d="M390.1135,-296.8518C399.6154,-287.1819 413.4678,-271.4108 421,-255 447.4137,-197.4511 454.449,-121.4943 456.3216,-85.9492"/>
<polygon fill="#191970" stroke="#191970" points="459.837,-85.673 456.7792,-75.529 452.8437,-85.3658 459.837,-85.673"/>
</g>
<!-- Node21&#45;&gt;Node3 -->
<g id="edge28" class="edge">
<title>Node21&#45;&gt;Node3</title>
<path fill="none" stroke="#191970" d="M445.5037,-56.2455C435.7558,-47.9746 421.5741,-35.9416 410.1202,-26.2232"/>
<polygon fill="#191970" stroke="#191970" points="412.2541,-23.4437 402.3646,-19.6427 407.7253,-28.7813 412.2541,-23.4437"/>
</g>
<!-- Node21&#45;&gt;Node12 -->
<g id="edge29" class="edge">
<title>Node21&#45;&gt;Node12</title>
<path fill="none" stroke="#191970" d="M513.5722,-59.5214C604.6271,-49.0938 783.2456,-28.6385 879.9812,-17.5604"/>
<polygon fill="#191970" stroke="#191970" points="880.3994,-21.0355 889.9362,-16.4204 879.6029,-14.081 880.3994,-21.0355"/>
</g>
<!-- Node22&#45;&gt;Node14 -->
<g id="edge31" class="edge">
<title>Node22&#45;&gt;Node14</title>
<path fill="none" stroke="#191970" d="M872.5313,-481.3906C885.1177,-473.0673 903.7607,-460.7389 919.717,-450.1872"/>
<polygon fill="#191970" stroke="#191970" points="921.8391,-452.98 928.2496,-444.5446 917.9779,-447.1411 921.8391,-452.98"/>
</g>
<!-- Node23 -->
<g id="node24" class="node">
<title>Node23</title>
<g id="a_node24"><a xlink:href="spec_2packet__types_8h.html" target="_top" xlink:title="ODP packet types. ">
<polygon fill="#ffffff" stroke="#000000" points="727,-414.5 727,-444.5 841,-444.5 841,-414.5 727,-414.5"/>
<text text-anchor="start" x="735" y="-432.5" font-family="Helvetica,sans-Serif" font-size="10.00" fill="#000000">odp/api/spec/packet</text>
<text text-anchor="middle" x="784" y="-421.5" font-family="Helvetica,sans-Serif" font-size="10.00" fill="#000000">_types.h</text>
</a>
</g>
</g>
<!-- Node22&#45;&gt;Node23 -->
<g id="edge32" class="edge">
<title>Node22&#45;&gt;Node23</title>
<path fill="none" stroke="#191970" d="M846.4375,-481.3906C836.7007,-473.2986 822.4087,-461.4207 809.9547,-451.0705"/>
<polygon fill="#191970" stroke="#191970" points="812.0303,-448.2445 802.1024,-444.5446 807.5561,-453.628 812.0303,-448.2445"/>
</g>
<!-- Node23&#45;&gt;Node3 -->
<g id="edge33" class="edge">
<title>Node23&#45;&gt;Node3</title>
<path fill="none" stroke="#191970" d="M726.9896,-418.6267C638.7116,-400.1393 479,-359.3843 479,-306.5 479,-306.5 479,-306.5 479,-245 479,-158.2047 407.964,-160.5244 336,-112 304.6776,-90.8797 279.282,-107.8717 259,-76 240.0253,-46.1826 279.8241,-29.3359 320.5673,-20.139"/>
<polygon fill="#191970" stroke="#191970" points="321.2938,-23.5629 330.3547,-18.0719 319.8473,-16.714 321.2938,-23.5629"/>
</g>
<!-- Node23&#45;&gt;Node12 -->
<g id="edge52" class="edge">
<title>Node23&#45;&gt;Node12</title>
<path fill="none" stroke="#191970" d="M841.0366,-414.4631C916.7509,-392.7925 1041,-350.5237 1041,-306.5 1041,-306.5 1041,-306.5 1041,-122 1041,-78.9765 999.7265,-44.0102 971.5891,-25.1715"/>
<polygon fill="#191970" stroke="#191970" points="973.287,-22.102 962.9841,-19.632 969.4979,-27.9879 973.287,-22.102"/>
</g>
<!-- Node24 -->
<g id="node25" class="node">
<title>Node24</title>
<g id="a_node25"><a xlink:href="queue__types_8h.html" target="_top" xlink:title="ODP queue. ">
<polygon fill="#ffffff" stroke="#000000" points="720.5,-358.5 720.5,-377.5 847.5,-377.5 847.5,-358.5 720.5,-358.5"/>
<text text-anchor="middle" x="784" y="-365.5" font-family="Helvetica,sans-Serif" font-size="10.00" fill="#000000">odp/api/queue_types.h</text>
</a>
</g>
</g>
<!-- Node23&#45;&gt;Node24 -->
<g id="edge34" class="edge">
<title>Node23&#45;&gt;Node24</title>
<path fill="none" stroke="#191970" d="M784,-414.2977C784,-406.3834 784,-396.6043 784,-388.0759"/>
<polygon fill="#191970" stroke="#191970" points="787.5001,-387.8469 784,-377.8469 780.5001,-387.847 787.5001,-387.8469"/>
</g>
<!-- Node25 -->
<g id="node26" class="node">
<title>Node25</title>
<polygon fill="#ffffff" stroke="#bfbfbf" points="805.5,-297 805.5,-316 950.5,-316 950.5,-297 805.5,-297"/>
<text text-anchor="middle" x="878" y="-304" font-family="Helvetica,sans-Serif" font-size="10.00" fill="#000000">odp/api/abi/queue_types.h</text>
</g>
<!-- Node24&#45;&gt;Node25 -->
<g id="edge35" class="edge">
<title>Node24&#45;&gt;Node25</title>
<path fill="none" stroke="#191970" d="M798.6875,-358.3906C813.7256,-348.5519 837.3176,-333.1167 854.8667,-321.6351"/>
<polygon fill="#191970" stroke="#191970" points="856.9637,-324.4457 863.4156,-316.0419 853.1313,-318.588 856.9637,-324.4457"/>
</g>
<!-- Node26 -->
<g id="node27" class="node">
<title>Node26</title>
<g id="a_node27"><a xlink:href="spec_2queue__types_8h.html" target="_top" xlink:title="ODP queue types. ">
<polygon fill="#ffffff" stroke="#000000" points="676.5,-291.5 676.5,-321.5 787.5,-321.5 787.5,-291.5 676.5,-291.5"/>
<text text-anchor="start" x="684.5" y="-309.5" font-family="Helvetica,sans-Serif" font-size="10.00" fill="#000000">odp/api/spec/queue</text>
<text text-anchor="middle" x="732" y="-298.5" font-family="Helvetica,sans-Serif" font-size="10.00" fill="#000000">_types.h</text>
</a>
</g>
</g>
<!-- Node24&#45;&gt;Node26 -->
<g id="edge36" class="edge">
<title>Node24&#45;&gt;Node26</title>
<path fill="none" stroke="#191970" d="M775.875,-358.3906C769.2936,-350.6068 759.7504,-339.3202 751.244,-329.2597"/>
<polygon fill="#191970" stroke="#191970" points="753.85,-326.921 744.7206,-321.5446 748.5046,-331.4407 753.85,-326.921"/>
</g>
<!-- Node26&#45;&gt;Node3 -->
<g id="edge37" class="edge">
<title>Node26&#45;&gt;Node3</title>
<path fill="none" stroke="#191970" d="M676.2775,-295.2981C620.214,-280.3966 542,-248.0418 542,-183.5 542,-183.5 542,-183.5 542,-122 542,-91.3494 543.1972,-78.139 522,-56 505.8815,-39.1653 483.2507,-28.4853 461.3266,-21.7123"/>
<polygon fill="#191970" stroke="#191970" points="462.2398,-18.3333 451.6632,-18.9549 460.3189,-25.0646 462.2398,-18.3333"/>
</g>
<!-- Node26&#45;&gt;Node12 -->
<g id="edge51" class="edge">
<title>Node26&#45;&gt;Node12</title>
<path fill="none" stroke="#191970" d="M787.8228,-293.14C867.1545,-272.5013 1003,-230.324 1003,-183.5 1003,-183.5 1003,-183.5 1003,-122 1003,-85.1826 978.2325,-48.2377 961.3499,-27.3313"/>
<polygon fill="#191970" stroke="#191970" points="964.0131,-25.06 954.9063,-19.6456 958.6489,-29.5574 964.0131,-25.06"/>
</g>
<!-- Node27 -->
<g id="node28" class="node">
<title>Node27</title>
<g id="a_node28"><a xlink:href="schedule__types_8h.html" target="_top" xlink:title="ODP schedule. ">
<polygon fill="#ffffff" stroke="#000000" points="758,-235.5 758,-254.5 898,-254.5 898,-235.5 758,-235.5"/>
<text text-anchor="middle" x="828" y="-242.5" font-family="Helvetica,sans-Serif" font-size="10.00" fill="#000000">odp/api/schedule_types.h</text>
</a>
</g>
</g>
<!-- Node26&#45;&gt;Node27 -->
<g id="edge38" class="edge">
<title>Node26&#45;&gt;Node27</title>
<path fill="none" stroke="#191970" d="M755.7303,-291.2977C770.5362,-281.8127 789.5228,-269.6495 804.3193,-260.1705"/>
<polygon fill="#191970" stroke="#191970" points="806.3835,-263.0047 812.9159,-254.6633 802.6075,-257.1105 806.3835,-263.0047"/>
</g>
<!-- Node32 -->
<g id="node33" class="node">
<title>Node32</title>
<g id="a_node33"><a xlink:href="deprecated_8h.html" target="_top" xlink:title="Control deprecated API definitions. ">
<polygon fill="#ffffff" stroke="#000000" points="620.5,-235.5 620.5,-254.5 739.5,-254.5 739.5,-235.5 620.5,-235.5"/>
<text text-anchor="middle" x="680" y="-242.5" font-family="Helvetica,sans-Serif" font-size="10.00" fill="#000000">odp/api/deprecated.h</text>
</a>
</g>
</g>
<!-- Node26&#45;&gt;Node32 -->
<g id="edge47" class="edge">
<title>Node26&#45;&gt;Node32</title>
<path fill="none" stroke="#191970" d="M719.1461,-291.2977C711.7776,-282.5831 702.4974,-271.6075 694.8223,-262.5302"/>
<polygon fill="#191970" stroke="#191970" points="697.4552,-260.2233 688.3259,-254.8469 692.1098,-264.743 697.4552,-260.2233"/>
</g>
<!-- Node28 -->
<g id="node29" class="node">
<title>Node28</title>
<polygon fill="#ffffff" stroke="#bfbfbf" points="857.5,-168.5 857.5,-198.5 974.5,-198.5 974.5,-168.5 857.5,-168.5"/>
<text text-anchor="start" x="865.5" y="-186.5" font-family="Helvetica,sans-Serif" font-size="10.00" fill="#000000">odp/api/abi/schedule</text>
<text text-anchor="middle" x="916" y="-175.5" font-family="Helvetica,sans-Serif" font-size="10.00" fill="#000000">_types.h</text>
</g>
<!-- Node27&#45;&gt;Node28 -->
<g id="edge39" class="edge">
<title>Node27&#45;&gt;Node28</title>
<path fill="none" stroke="#191970" d="M841.75,-235.3906C853.5495,-227.1444 870.9742,-214.9669 885.9788,-204.4807"/>
<polygon fill="#191970" stroke="#191970" points="888.281,-207.1419 894.4728,-198.5446 884.2711,-201.4042 888.281,-207.1419"/>
</g>
<!-- Node29 -->
<g id="node30" class="node">
<title>Node29</title>
<g id="a_node30"><a xlink:href="spec_2schedule__types_8h.html" target="_top" xlink:title="ODP schedule types. ">
<polygon fill="#ffffff" stroke="#000000" points="714.5,-168.5 714.5,-198.5 839.5,-198.5 839.5,-168.5 714.5,-168.5"/>
<text text-anchor="start" x="722.5" y="-186.5" font-family="Helvetica,sans-Serif" font-size="10.00" fill="#000000">odp/api/spec/schedule</text>
<text text-anchor="middle" x="777" y="-175.5" font-family="Helvetica,sans-Serif" font-size="10.00" fill="#000000">_types.h</text>
</a>
</g>
</g>
<!-- Node27&#45;&gt;Node29 -->
<g id="edge40" class="edge">
<title>Node27&#45;&gt;Node29</title>
<path fill="none" stroke="#191970" d="M820.0313,-235.3906C813.5764,-227.6068 804.2168,-216.3202 795.8739,-206.2597"/>
<polygon fill="#191970" stroke="#191970" points="798.5536,-204.008 789.476,-198.5446 793.1652,-208.4764 798.5536,-204.008"/>
</g>
<!-- Node29&#45;&gt;Node3 -->
<g id="edge41" class="edge">
<title>Node29&#45;&gt;Node3</title>
<path fill="none" stroke="#191970" d="M755.0652,-168.3248C716.4187,-142.1764 632.9841,-88.3291 556,-56 520.7156,-41.1825 479.2108,-29.6382 446.6556,-21.8206"/>
<polygon fill="#191970" stroke="#191970" points="447.3922,-18.3984 436.8563,-19.5146 445.7887,-25.2123 447.3922,-18.3984"/>
</g>
<!-- Node29&#45;&gt;Node12 -->
<g id="edge46" class="edge">
<title>Node29&#45;&gt;Node12</title>
<path fill="none" stroke="#191970" d="M824.8468,-168.4963C847.472,-159.9871 874.0493,-147.8385 895,-132 920.6933,-112.5761 929.0038,-105.8919 941,-76 946.8848,-61.3364 947.8904,-43.3846 947.5606,-29.9071"/>
<polygon fill="#191970" stroke="#191970" points="951.0505,-29.6181 947.0471,-19.8088 944.0595,-29.9736 951.0505,-29.6181"/>
</g>
<!-- Node30 -->
<g id="node31" class="node">
<title>Node30</title>
<g id="a_node31"><a xlink:href="support_8h.html" target="_top" xlink:title="ODP support API &#45; platform specific header. ">
<polygon fill="#ffffff" stroke="#000000" points="784.5,-112.5 784.5,-131.5 885.5,-131.5 885.5,-112.5 784.5,-112.5"/>
<text text-anchor="middle" x="835" y="-119.5" font-family="Helvetica,sans-Serif" font-size="10.00" fill="#000000">odp/api/support.h</text>
</a>
</g>
</g>
<!-- Node29&#45;&gt;Node30 -->
<g id="edge42" class="edge">
<title>Node29&#45;&gt;Node30</title>
<path fill="none" stroke="#191970" d="M791.3371,-168.2977C799.6397,-159.4941 810.1182,-148.3833 818.7289,-139.2529"/>
<polygon fill="#191970" stroke="#191970" points="821.3987,-141.5234 825.7135,-131.8469 816.3061,-136.7206 821.3987,-141.5234"/>
</g>
<!-- Node31 -->
<g id="node32" class="node">
<title>Node31</title>
<g id="a_node32"><a xlink:href="spec_2support_8h.html" target="_top" xlink:title="ODP support API. ">
<polygon fill="#ffffff" stroke="#000000" points="771.5,-56.5 771.5,-75.5 898.5,-75.5 898.5,-56.5 771.5,-56.5"/>
<text text-anchor="middle" x="835" y="-63.5" font-family="Helvetica,sans-Serif" font-size="10.00" fill="#000000">odp/api/spec/support.h</text>
</a>
</g>
</g>
<!-- Node30&#45;&gt;Node31 -->
<g id="edge43" class="edge">
<title>Node30&#45;&gt;Node31</title>
<path fill="none" stroke="#191970" d="M835,-112.2455C835,-104.9382 835,-94.6944 835,-85.7046"/>
<polygon fill="#191970" stroke="#191970" points="838.5001,-85.6426 835,-75.6427 831.5001,-85.6427 838.5001,-85.6426"/>
</g>
<!-- Node31&#45;&gt;Node3 -->
<g id="edge44" class="edge">
<title>Node31&#45;&gt;Node3</title>
<path fill="none" stroke="#191970" d="M771.4038,-57.1146C768.5642,-56.7344 765.7528,-56.3613 763,-56 658.2404,-42.2487 536.7276,-27.437 461.8519,-18.4413"/>
<polygon fill="#191970" stroke="#191970" points="461.9486,-14.9279 451.6028,-17.2113 461.1145,-21.878 461.9486,-14.9279"/>
</g>
<!-- Node31&#45;&gt;Node12 -->
<g id="edge45" class="edge">
<title>Node31&#45;&gt;Node12</title>
<path fill="none" stroke="#191970" d="M854.0816,-56.3733C871.7402,-47.4644 898.2053,-34.1127 918.2098,-24.0203"/>
<polygon fill="#191970" stroke="#191970" points="919.8158,-27.1303 927.1674,-19.5011 916.6628,-20.8806 919.8158,-27.1303"/>
</g>
<!-- Node33 -->
<g id="node34" class="node">
<title>Node33</title>
<g id="a_node34"><a xlink:href="spec_2deprecated_8h.html" target="_top" xlink:title="Macro for deprecated API definitions. ">
<polygon fill="#ffffff" stroke="#000000" points="608.5,-56.5 608.5,-75.5 753.5,-75.5 753.5,-56.5 608.5,-56.5"/>
<text text-anchor="middle" x="681" y="-63.5" font-family="Helvetica,sans-Serif" font-size="10.00" fill="#000000">odp/api/spec/deprecated.h</text>
</a>
</g>
</g>
<!-- Node32&#45;&gt;Node33 -->
<g id="edge48" class="edge">
<title>Node32&#45;&gt;Node33</title>
<path fill="none" stroke="#191970" d="M680.0538,-235.3762C680.2111,-207.2097 680.6731,-124.5126 680.8879,-86.0713"/>
<polygon fill="#191970" stroke="#191970" points="684.39,-85.6908 680.946,-75.6714 677.3901,-85.6517 684.39,-85.6908"/>
</g>
<!-- Node33&#45;&gt;Node3 -->
<g id="edge49" class="edge">
<title>Node33&#45;&gt;Node3</title>
<path fill="none" stroke="#191970" d="M631.4767,-56.4369C581.3241,-46.7522 503.739,-31.7703 450.3303,-21.4569"/>
<polygon fill="#191970" stroke="#191970" points="450.8013,-17.9832 440.319,-19.5237 449.474,-24.8563 450.8013,-17.9832"/>
</g>
<!-- Node33&#45;&gt;Node12 -->
<g id="edge50" class="edge">
<title>Node33&#45;&gt;Node12</title>
<path fill="none" stroke="#191970" d="M726.254,-56.4369C771.7973,-46.8127 842.0965,-31.957 890.8686,-21.6504"/>
<polygon fill="#191970" stroke="#191970" points="891.8724,-25.0157 900.9326,-19.5237 890.425,-18.1669 891.8724,-25.0157"/>
</g>
</g>
</svg>
