<?xml version="1.0" encoding="UTF-8" standalone="no"?>
<!DOCTYPE svg PUBLIC "-//W3C//DTD SVG 1.1//EN"
 "http://www.w3.org/Graphics/SVG/1.1/DTD/svg11.dtd">
<!-- Generated by graphviz version 2.43.0 (0)
 -->
<!-- Title: event_vector_types.h Pages: 1 -->
<svg width="865pt" height="408pt"
 viewBox="0.00 0.00 864.50 408.00" xmlns="http://www.w3.org/2000/svg" xmlns:xlink="http://www.w3.org/1999/xlink">
<g id="graph0" class="graph" transform="scale(1 1) rotate(0) translate(4 404)">
<title>event_vector_types.h</title>
<polygon fill="white" stroke="transparent" points="-4,4 -4,-404 860.5,-404 860.5,4 -4,4"/>
<!-- Node1 -->
<g id="node1" class="node">
<title>Node1</title>
<g id="a_node1"><a xlink:title="ODP event vector API type definitions.">
<polygon fill="#bfbfbf" stroke="black" points="162.5,-380.5 162.5,-399.5 284.5,-399.5 284.5,-380.5 162.5,-380.5"/>
<text text-anchor="middle" x="223.5" y="-387.5" font-family="Helvetica,sans-Serif" font-size="10.00">event_vector_types.h</text>
</a>
</g>
</g>
<!-- Node2 -->
<g id="node2" class="node">
<title>Node2</title>
<g id="a_node2"><a xlink:title=" ">
<polygon fill="white" stroke="#bfbfbf" points="0,-313.5 0,-343.5 137,-343.5 137,-313.5 0,-313.5"/>
<text text-anchor="start" x="8" y="-331.5" font-family="Helvetica,sans-Serif" font-size="10.00">odp/api/abi/event_vector</text>
<text text-anchor="middle" x="68.5" y="-320.5" font-family="Helvetica,sans-Serif" font-size="10.00">_types.h</text>
</a>
</g>
</g>
<!-- Node1&#45;&gt;Node2 -->
<g id="edge1" class="edge">
<title>Node1&#45;&gt;Node2</title>
<path fill="none" stroke="midnightblue" d="M201.29,-380.48C178.73,-371.81 143.12,-358.15 114.46,-347.14"/>
<polygon fill="midnightblue" stroke="midnightblue" points="115.62,-343.84 105.03,-343.52 113.11,-350.37 115.62,-343.84"/>
</g>
<!-- Node3 -->
<g id="node3" class="node">
<title>Node3</title>
<g id="a_node3"><a xlink:title=" ">
<polygon fill="white" stroke="#bfbfbf" points="155.5,-319 155.5,-338 291.5,-338 291.5,-319 155.5,-319"/>
<text text-anchor="middle" x="223.5" y="-326" font-family="Helvetica,sans-Serif" font-size="10.00">odp/api/abi/pool_types.h</text>
</a>
</g>
</g>
<!-- Node1&#45;&gt;Node3 -->
<g id="edge2" class="edge">
<title>Node1&#45;&gt;Node3</title>
<path fill="none" stroke="midnightblue" d="M223.5,-380.48C223.5,-372.08 223.5,-358.98 223.5,-348.16"/>
<polygon fill="midnightblue" stroke="midnightblue" points="227,-348.01 223.5,-338.01 220,-348.01 227,-348.01"/>
</g>
<!-- Node4 -->
<g id="node4" class="node">
<title>Node4</title>
<g id="a_node4"><a xlink:href="spec_2event__vector__types_8h.html" target="_top" xlink:title="ODP event vector API type definitions.">
<polygon fill="white" stroke="black" points="310,-313.5 310,-343.5 419,-343.5 419,-313.5 310,-313.5"/>
<text text-anchor="start" x="318" y="-331.5" font-family="Helvetica,sans-Serif" font-size="10.00">odp/api/spec/event</text>
<text text-anchor="middle" x="364.5" y="-320.5" font-family="Helvetica,sans-Serif" font-size="10.00">_vector_types.h</text>
</a>
</g>
</g>
<!-- Node1&#45;&gt;Node4 -->
<g id="edge3" class="edge">
<title>Node1&#45;&gt;Node4</title>
<path fill="none" stroke="midnightblue" d="M243.7,-380.48C264.05,-371.89 296.06,-358.38 322.01,-347.43"/>
<polygon fill="midnightblue" stroke="midnightblue" points="323.42,-350.64 331.27,-343.52 320.7,-344.19 323.42,-350.64"/>
</g>
<!-- Node5 -->
<g id="node5" class="node">
<title>Node5</title>
<g id="a_node5"><a xlink:title=" ">
<polygon fill="white" stroke="#bfbfbf" points="341,-0.5 341,-19.5 462,-19.5 462,-0.5 341,-0.5"/>
<text text-anchor="middle" x="401.5" y="-7.5" font-family="Helvetica,sans-Serif" font-size="10.00">odp/visibility_begin.h</text>
</a>
</g>
</g>
<!-- Node4&#45;&gt;Node5 -->
<g id="edge4" class="edge">
<title>Node4&#45;&gt;Node5</title>
<path fill="none" stroke="midnightblue" d="M319.67,-313.49C248.71,-289.96 118.5,-240.64 118.5,-195.5 118.5,-195.5 118.5,-195.5 118.5,-132 118.5,-97.18 111.96,-79.66 137.5,-56 164.91,-30.6 261.99,-19.36 330.44,-14.5"/>
<polygon fill="midnightblue" stroke="midnightblue" points="331,-17.97 340.74,-13.81 330.52,-10.99 331,-17.97"/>
</g>
<!-- Node6 -->
<g id="node6" class="node">
<title>Node6</title>
<g id="a_node6"><a xlink:href="event__types_8h.html" target="_top" xlink:title="ODP event API type definitions.">
<polygon fill="white" stroke="black" points="165,-123.5 165,-142.5 290,-142.5 290,-123.5 165,-123.5"/>
<text text-anchor="middle" x="227.5" y="-130.5" font-family="Helvetica,sans-Serif" font-size="10.00">odp/api/event_types.h</text>
</a>
</g>
</g>
<!-- Node4&#45;&gt;Node6 -->
<g id="edge5" class="edge">
<title>Node4&#45;&gt;Node6</title>
<path fill="none" stroke="midnightblue" d="M340.94,-313.36C327.26,-304.27 310.43,-291.47 298.5,-277 265.99,-237.55 243.47,-180.72 233.42,-152.03"/>
<polygon fill="midnightblue" stroke="midnightblue" points="236.72,-150.85 230.19,-142.5 230.09,-153.1 236.72,-150.85"/>
</g>
<!-- Node9 -->
<g id="node9" class="node">
<title>Node9</title>
<g id="a_node9"><a xlink:title=" ">
<polygon fill="white" stroke="#bfbfbf" points="598.5,-0.5 598.5,-19.5 710.5,-19.5 710.5,-0.5 598.5,-0.5"/>
<text text-anchor="middle" x="654.5" y="-7.5" font-family="Helvetica,sans-Serif" font-size="10.00">odp/visibility_end.h</text>
</a>
</g>
</g>
<!-- Node4&#45;&gt;Node9 -->
<g id="edge26" class="edge">
<title>Node4&#45;&gt;Node9</title>
<path fill="none" stroke="midnightblue" d="M419.03,-324.41C547.13,-315.67 856.5,-285.26 856.5,-195.5 856.5,-195.5 856.5,-195.5 856.5,-132 856.5,-93.83 846.21,-79.96 816.5,-56 789.44,-34.18 752.49,-22.92 720.71,-17.12"/>
<polygon fill="midnightblue" stroke="midnightblue" points="721.03,-13.62 710.59,-15.42 719.88,-20.53 721.03,-13.62"/>
</g>
<!-- Node10 -->
<g id="node10" class="node">
<title>Node10</title>
<g id="a_node10"><a xlink:href="queue__stats__types_8h.html" target="_top" xlink:title="ODP queue.">
<polygon fill="white" stroke="black" points="307,-246.5 307,-276.5 422,-276.5 422,-246.5 307,-246.5"/>
<text text-anchor="start" x="315" y="-264.5" font-family="Helvetica,sans-Serif" font-size="10.00">odp/api/queue_stats</text>
<text text-anchor="middle" x="364.5" y="-253.5" font-family="Helvetica,sans-Serif" font-size="10.00">_types.h</text>
</a>
</g>
</g>
<!-- Node4&#45;&gt;Node10 -->
<g id="edge10" class="edge">
<title>Node4&#45;&gt;Node10</title>
<path fill="none" stroke="midnightblue" d="M364.5,-313.4C364.5,-305.64 364.5,-295.81 364.5,-286.86"/>
<polygon fill="midnightblue" stroke="midnightblue" points="368,-286.58 364.5,-276.58 361,-286.58 368,-286.58"/>
</g>
<!-- Node13 -->
<g id="node13" class="node">
<title>Node13</title>
<g id="a_node13"><a xlink:href="std__types_8h.html" target="_top" xlink:title="Standard C language types and definitions for ODP.">
<polygon fill="white" stroke="black" points="450.5,-252 450.5,-271 562.5,-271 562.5,-252 450.5,-252"/>
<text text-anchor="middle" x="506.5" y="-259" font-family="Helvetica,sans-Serif" font-size="10.00">odp/api/std_types.h</text>
</a>
</g>
</g>
<!-- Node4&#45;&gt;Node13 -->
<g id="edge15" class="edge">
<title>Node4&#45;&gt;Node13</title>
<path fill="none" stroke="midnightblue" d="M395.31,-313.4C420.12,-302.04 454.68,-286.22 478.66,-275.24"/>
<polygon fill="midnightblue" stroke="midnightblue" points="480.28,-278.35 487.92,-271.01 477.37,-271.99 480.28,-278.35"/>
</g>
<!-- Node7 -->
<g id="node7" class="node">
<title>Node7</title>
<g id="a_node7"><a xlink:title=" ">
<polygon fill="white" stroke="#bfbfbf" points="147,-62 147,-81 290,-81 290,-62 147,-62"/>
<text text-anchor="middle" x="218.5" y="-69" font-family="Helvetica,sans-Serif" font-size="10.00">odp/api/abi/event_types.h</text>
</a>
</g>
</g>
<!-- Node6&#45;&gt;Node7 -->
<g id="edge6" class="edge">
<title>Node6&#45;&gt;Node7</title>
<path fill="none" stroke="midnightblue" d="M226.21,-123.48C224.94,-115.08 222.96,-101.98 221.32,-91.16"/>
<polygon fill="midnightblue" stroke="midnightblue" points="224.74,-90.37 219.79,-81.01 217.82,-91.42 224.74,-90.37"/>
</g>
<!-- Node8 -->
<g id="node8" class="node">
<title>Node8</title>
<g id="a_node8"><a xlink:href="spec_2event__types_8h.html" target="_top" xlink:title="ODP event API type definitions.">
<polygon fill="white" stroke="black" points="347,-56.5 347,-86.5 456,-86.5 456,-56.5 347,-56.5"/>
<text text-anchor="start" x="355" y="-74.5" font-family="Helvetica,sans-Serif" font-size="10.00">odp/api/spec/event</text>
<text text-anchor="middle" x="401.5" y="-63.5" font-family="Helvetica,sans-Serif" font-size="10.00">_types.h</text>
</a>
</g>
</g>
<!-- Node6&#45;&gt;Node8 -->
<g id="edge7" class="edge">
<title>Node6&#45;&gt;Node8</title>
<path fill="none" stroke="midnightblue" d="M252.43,-123.48C277.98,-114.74 318.43,-100.91 350.75,-89.86"/>
<polygon fill="midnightblue" stroke="midnightblue" points="352.16,-93.07 360.49,-86.52 349.9,-86.45 352.16,-93.07"/>
</g>
<!-- Node8&#45;&gt;Node5 -->
<g id="edge8" class="edge">
<title>Node8&#45;&gt;Node5</title>
<path fill="none" stroke="midnightblue" d="M401.5,-56.4C401.5,-48.47 401.5,-38.46 401.5,-29.86"/>
<polygon fill="midnightblue" stroke="midnightblue" points="405,-29.66 401.5,-19.66 398,-29.66 405,-29.66"/>
</g>
<!-- Node8&#45;&gt;Node9 -->
<g id="edge9" class="edge">
<title>Node8&#45;&gt;Node9</title>
<path fill="none" stroke="midnightblue" d="M456.09,-57.66C501.54,-46.97 565.55,-31.92 608.45,-21.83"/>
<polygon fill="midnightblue" stroke="midnightblue" points="609.41,-25.2 618.34,-19.5 607.8,-18.39 609.41,-25.2"/>
</g>
<!-- Node11 -->
<g id="node11" class="node">
<title>Node11</title>
<g id="a_node11"><a xlink:href="spec_2queue__stats__types_8h.html" target="_top" xlink:title="ODP queue statistics types.">
<polygon fill="white" stroke="black" points="309,-179.5 309,-209.5 420,-209.5 420,-179.5 309,-179.5"/>
<text text-anchor="start" x="317" y="-197.5" font-family="Helvetica,sans-Serif" font-size="10.00">odp/api/spec/queue</text>
<text text-anchor="middle" x="364.5" y="-186.5" font-family="Helvetica,sans-Serif" font-size="10.00">_stats_types.h</text>
</a>
</g>
</g>
<!-- Node10&#45;&gt;Node11 -->
<g id="edge11" class="edge">
<title>Node10&#45;&gt;Node11</title>
<path fill="none" stroke="midnightblue" d="M364.5,-246.4C364.5,-238.64 364.5,-228.81 364.5,-219.86"/>
<polygon fill="midnightblue" stroke="midnightblue" points="368,-219.58 364.5,-209.58 361,-219.58 368,-219.58"/>
</g>
<!-- Node11&#45;&gt;Node5 -->
<g id="edge12" class="edge">
<title>Node11&#45;&gt;Node5</title>
<path fill="none" stroke="midnightblue" d="M356.22,-179.39C342.19,-153.49 317.27,-97.26 338.5,-56 345.58,-42.25 359.02,-31.77 371.68,-24.39"/>
<polygon fill="midnightblue" stroke="midnightblue" points="373.5,-27.39 380.65,-19.57 370.19,-21.22 373.5,-27.39"/>
</g>
<!-- Node11&#45;&gt;Node9 -->
<g id="edge14" class="edge">
<title>Node11&#45;&gt;Node9</title>
<path fill="none" stroke="midnightblue" d="M367.62,-179.32C372.01,-162.97 381.67,-136.6 400.5,-123 486.17,-61.15 557.39,-158.16 635.5,-87 651.33,-72.57 654.88,-47.13 655.26,-29.69"/>
<polygon fill="midnightblue" stroke="midnightblue" points="658.76,-29.54 655.15,-19.58 651.76,-29.61 658.76,-29.54"/>
</g>
<!-- Node12 -->
<g id="node12" class="node">
<title>Node12</title>
<g id="a_node12"><a xlink:title=" ">
<polygon fill="white" stroke="#bfbfbf" points="409,-123.5 409,-142.5 462,-142.5 462,-123.5 409,-123.5"/>
<text text-anchor="middle" x="435.5" y="-130.5" font-family="Helvetica,sans-Serif" font-size="10.00">stdint.h</text>
</a>
</g>
</g>
<!-- Node11&#45;&gt;Node12 -->
<g id="edge13" class="edge">
<title>Node11&#45;&gt;Node12</title>
<path fill="none" stroke="midnightblue" d="M381.33,-179.4C392.17,-170.31 406.28,-158.49 417.37,-149.19"/>
<polygon fill="midnightblue" stroke="midnightblue" points="419.75,-151.76 425.17,-142.66 415.26,-146.4 419.75,-151.76"/>
</g>
<!-- Node14 -->
<g id="node14" class="node">
<title>Node14</title>
<g id="a_node14"><a xlink:title=" ">
<polygon fill="white" stroke="#bfbfbf" points="593.5,-185 593.5,-204 723.5,-204 723.5,-185 593.5,-185"/>
<text text-anchor="middle" x="658.5" y="-192" font-family="Helvetica,sans-Serif" font-size="10.00">odp/api/abi/std_types.h</text>
</a>
</g>
</g>
<!-- Node13&#45;&gt;Node14 -->
<g id="edge16" class="edge">
<title>Node13&#45;&gt;Node14</title>
<path fill="none" stroke="midnightblue" d="M526.68,-251.87C552.8,-240.7 598.53,-221.15 628.66,-208.26"/>
<polygon fill="midnightblue" stroke="midnightblue" points="630.41,-211.32 638.23,-204.17 627.66,-204.88 630.41,-211.32"/>
</g>
<!-- Node15 -->
<g id="node15" class="node">
<title>Node15</title>
<g id="a_node15"><a xlink:href="spec_2std__types_8h.html" target="_top" xlink:title="Common types and definitions for ODP API files.">
<polygon fill="white" stroke="black" points="438,-185 438,-204 575,-204 575,-185 438,-185"/>
<text text-anchor="middle" x="506.5" y="-192" font-family="Helvetica,sans-Serif" font-size="10.00">odp/api/spec/std_types.h</text>
</a>
</g>
</g>
<!-- Node13&#45;&gt;Node15 -->
<g id="edge17" class="edge">
<title>Node13&#45;&gt;Node15</title>
<path fill="none" stroke="midnightblue" d="M506.5,-251.73C506.5,-242.18 506.5,-226.62 506.5,-214.28"/>
<polygon fill="midnightblue" stroke="midnightblue" points="510,-214.13 506.5,-204.13 503,-214.13 510,-214.13"/>
</g>
<!-- Node15&#45;&gt;Node5 -->
<g id="edge18" class="edge">
<title>Node15&#45;&gt;Node5</title>
<path fill="none" stroke="midnightblue" d="M505.88,-184.92C503.84,-161.92 495.62,-97.85 465.5,-56 456.05,-42.87 441.54,-32.22 428.73,-24.58"/>
<polygon fill="midnightblue" stroke="midnightblue" points="430.22,-21.41 419.79,-19.56 426.79,-27.51 430.22,-21.41"/>
</g>
<!-- Node15&#45;&gt;Node9 -->
<g id="edge25" class="edge">
<title>Node15&#45;&gt;Node9</title>
<path fill="none" stroke="midnightblue" d="M546.12,-184.97C619,-168.39 769.61,-129.67 799.5,-87 823.99,-52.05 769.86,-31.95 720.92,-21.31"/>
<polygon fill="midnightblue" stroke="midnightblue" points="721.41,-17.83 710.91,-19.24 719.99,-24.69 721.41,-17.83"/>
</g>
<!-- Node15&#45;&gt;Node12 -->
<g id="edge19" class="edge">
<title>Node15&#45;&gt;Node12</title>
<path fill="none" stroke="midnightblue" d="M496.33,-184.98C485.15,-175.61 466.98,-160.38 453.41,-149.01"/>
<polygon fill="midnightblue" stroke="midnightblue" points="455.57,-146.25 445.65,-142.51 451.07,-151.61 455.57,-146.25"/>
</g>
<!-- Node16 -->
<g id="node16" class="node">
<title>Node16</title>
<g id="a_node16"><a xlink:href="align_8h.html" target="_top" xlink:title="ODP alignments.">
<polygon fill="white" stroke="black" points="525,-123.5 525,-142.5 614,-142.5 614,-123.5 525,-123.5"/>
<text text-anchor="middle" x="569.5" y="-130.5" font-family="Helvetica,sans-Serif" font-size="10.00">odp/api/align.h</text>
</a>
</g>
</g>
<!-- Node15&#45;&gt;Node16 -->
<g id="edge20" class="edge">
<title>Node15&#45;&gt;Node16</title>
<path fill="none" stroke="midnightblue" d="M515.53,-184.98C525.26,-175.78 540.96,-160.96 552.92,-149.66"/>
<polygon fill="midnightblue" stroke="midnightblue" points="555.62,-151.92 560.49,-142.51 550.82,-146.83 555.62,-151.92"/>
</g>
<!-- Node17 -->
<g id="node17" class="node">
<title>Node17</title>
<g id="a_node17"><a xlink:title=" ">
<polygon fill="white" stroke="#bfbfbf" points="683,-62 683,-81 790,-81 790,-62 683,-62"/>
<text text-anchor="middle" x="736.5" y="-69" font-family="Helvetica,sans-Serif" font-size="10.00">odp/api/abi/align.h</text>
</a>
</g>
</g>
<!-- Node16&#45;&gt;Node17 -->
<g id="edge21" class="edge">
<title>Node16&#45;&gt;Node17</title>
<path fill="none" stroke="midnightblue" d="M593.43,-123.48C622.2,-113.22 670.66,-95.96 703.1,-84.4"/>
<polygon fill="midnightblue" stroke="midnightblue" points="704.37,-87.66 712.62,-81.01 702.02,-81.07 704.37,-87.66"/>
</g>
<!-- Node18 -->
<g id="node18" class="node">
<title>Node18</title>
<g id="a_node18"><a xlink:href="spec_2align_8h.html" target="_top" xlink:title="ODP alignments.">
<polygon fill="white" stroke="black" points="512.5,-62 512.5,-81 626.5,-81 626.5,-62 512.5,-62"/>
<text text-anchor="middle" x="569.5" y="-69" font-family="Helvetica,sans-Serif" font-size="10.00">odp/api/spec/align.h</text>
</a>
</g>
</g>
<!-- Node16&#45;&gt;Node18 -->
<g id="edge22" class="edge">
<title>Node16&#45;&gt;Node18</title>
<path fill="none" stroke="midnightblue" d="M569.5,-123.48C569.5,-115.08 569.5,-101.98 569.5,-91.16"/>
<polygon fill="midnightblue" stroke="midnightblue" points="573,-91.01 569.5,-81.01 566,-91.01 573,-91.01"/>
</g>
<!-- Node18&#45;&gt;Node5 -->
<g id="edge23" class="edge">
<title>Node18&#45;&gt;Node5</title>
<path fill="none" stroke="midnightblue" d="M545.43,-61.98C516.49,-51.72 467.74,-34.46 435.1,-22.9"/>
<polygon fill="midnightblue" stroke="midnightblue" points="436.12,-19.55 425.53,-19.51 433.78,-26.15 436.12,-19.55"/>
</g>
<!-- Node18&#45;&gt;Node9 -->
<g id="edge24" class="edge">
<title>Node18&#45;&gt;Node9</title>
<path fill="none" stroke="midnightblue" d="M581.68,-61.98C595.31,-52.43 617.63,-36.81 633.97,-25.37"/>
<polygon fill="midnightblue" stroke="midnightblue" points="636.16,-28.11 642.34,-19.51 632.14,-22.38 636.16,-28.11"/>
</g>
</g>
</svg>
