<?xml version="1.0" encoding="UTF-8" standalone="no"?>
<!DOCTYPE svg PUBLIC "-//W3C//DTD SVG 1.1//EN"
 "http://www.w3.org/Graphics/SVG/1.1/DTD/svg11.dtd">
<!-- Generated by graphviz version 2.40.1 (20161225.0304)
 -->
<!-- Title: feature.h Pages: 1 -->
<svg width="226pt" height="252pt"
 viewBox="0.00 0.00 225.50 252.00" xmlns="http://www.w3.org/2000/svg" xmlns:xlink="http://www.w3.org/1999/xlink">
<g id="graph0" class="graph" transform="scale(1 1) rotate(0) translate(4 248)">
<title>feature.h</title>
<polygon fill="#ffffff" stroke="transparent" points="-4,4 -4,-248 221.5,-248 221.5,4 -4,4"/>
<!-- Node11 -->
<g id="node1" class="node">
<title>Node11</title>
<polygon fill="#bfbfbf" stroke="#000000" points="80.5,-224.5 80.5,-243.5 141.5,-243.5 141.5,-224.5 80.5,-224.5"/>
<text text-anchor="middle" x="111" y="-231.5" font-family="Helvetica,sans-Serif" font-size="10.00" fill="#000000">feature.h</text>
</g>
<!-- Node12 -->
<g id="node2" class="node">
<title>Node12</title>
<g id="a_node2"><a xlink:href="spec_2init_8h.html" target="_top" xlink:title="init.h">
<polygon fill="#ffffff" stroke="#000000" points="90.5,-168.5 90.5,-187.5 131.5,-187.5 131.5,-168.5 90.5,-168.5"/>
<text text-anchor="middle" x="111" y="-175.5" font-family="Helvetica,sans-Serif" font-size="10.00" fill="#000000">init.h</text>
</a>
</g>
</g>
<!-- Node11&#45;&gt;Node12 -->
<g id="edge1" class="edge">
<title>Node11&#45;&gt;Node12</title>
<path fill="none" stroke="#191970" d="M111,-214.1575C111,-205.155 111,-194.9199 111,-187.6427"/>
<polygon fill="#191970" stroke="#191970" points="107.5001,-214.2455 111,-224.2455 114.5001,-214.2456 107.5001,-214.2455"/>
</g>
<!-- Node13 -->
<g id="node3" class="node">
<title>Node13</title>
<g id="a_node3"><a xlink:href="init_8h.html" target="_top" xlink:title="ODP initialization. ">
<polygon fill="#ffffff" stroke="#000000" points="90.5,-112.5 90.5,-131.5 131.5,-131.5 131.5,-112.5 90.5,-112.5"/>
<text text-anchor="middle" x="111" y="-119.5" font-family="Helvetica,sans-Serif" font-size="10.00" fill="#000000">init.h</text>
</a>
</g>
</g>
<!-- Node12&#45;&gt;Node13 -->
<g id="edge2" class="edge">
<title>Node12&#45;&gt;Node13</title>
<path fill="none" stroke="#191970" d="M111,-158.1575C111,-149.155 111,-138.9199 111,-131.6427"/>
<polygon fill="#191970" stroke="#191970" points="107.5001,-158.2455 111,-168.2455 114.5001,-158.2456 107.5001,-158.2455"/>
</g>
<!-- Node14 -->
<g id="node4" class="node">
<title>Node14</title>
<g id="a_node4"><a xlink:href="spec_2shared__memory_8h.html" target="_top" xlink:title="ODP shared memory. ">
<polygon fill="#ffffff" stroke="#000000" points="0,-56.5 0,-75.5 104,-75.5 104,-56.5 0,-56.5"/>
<text text-anchor="middle" x="52" y="-63.5" font-family="Helvetica,sans-Serif" font-size="10.00" fill="#000000">shared_memory.h</text>
</a>
</g>
</g>
<!-- Node13&#45;&gt;Node14 -->
<g id="edge3" class="edge">
<title>Node13&#45;&gt;Node14</title>
<path fill="none" stroke="#191970" d="M93.4693,-105.3607C83.2623,-95.6727 70.7531,-83.7995 62.1592,-75.6427"/>
<polygon fill="#191970" stroke="#191970" points="91.0604,-107.8998 100.723,-112.2455 95.8794,-102.8227 91.0604,-107.8998"/>
</g>
<!-- Node16 -->
<g id="node6" class="node">
<title>Node16</title>
<g id="a_node6"><a xlink:href="thread__inlines_8h_source.html" target="_top" xlink:title="thread_inlines.h">
<polygon fill="#ffffff" stroke="#000000" points="122.5,-56.5 122.5,-75.5 217.5,-75.5 217.5,-56.5 122.5,-56.5"/>
<text text-anchor="middle" x="170" y="-63.5" font-family="Helvetica,sans-Serif" font-size="10.00" fill="#000000">thread_inlines.h</text>
</a>
</g>
</g>
<!-- Node13&#45;&gt;Node16 -->
<g id="edge5" class="edge">
<title>Node13&#45;&gt;Node16</title>
<path fill="none" stroke="#191970" d="M128.5307,-105.3607C138.7377,-95.6727 151.2469,-83.7995 159.8408,-75.6427"/>
<polygon fill="#191970" stroke="#191970" points="126.1206,-102.8227 121.277,-112.2455 130.9396,-107.8998 126.1206,-102.8227"/>
</g>
<!-- Node15 -->
<g id="node5" class="node">
<title>Node15</title>
<g id="a_node5"><a xlink:href="shared__memory_8h.html" target="_top" xlink:title="ODP shared memory. ">
<polygon fill="#ffffff" stroke="#000000" points="0,-.5 0,-19.5 104,-19.5 104,-.5 0,-.5"/>
<text text-anchor="middle" x="52" y="-7.5" font-family="Helvetica,sans-Serif" font-size="10.00" fill="#000000">shared_memory.h</text>
</a>
</g>
</g>
<!-- Node14&#45;&gt;Node15 -->
<g id="edge4" class="edge">
<title>Node14&#45;&gt;Node15</title>
<path fill="none" stroke="#191970" d="M52,-46.1575C52,-37.155 52,-26.9199 52,-19.6427"/>
<polygon fill="#191970" stroke="#191970" points="48.5001,-46.2455 52,-56.2455 55.5001,-46.2456 48.5001,-46.2455"/>
</g>
</g>
</svg>
