<?xml version="1.0" encoding="UTF-8" standalone="no"?>
<!DOCTYPE svg PUBLIC "-//W3C//DTD SVG 1.1//EN"
 "http://www.w3.org/Graphics/SVG/1.1/DTD/svg11.dtd">
<!-- Generated by graphviz version 2.43.0 (0)
 -->
<!-- Title: hash.h Pages: 1 -->
<svg width="421pt" height="364pt"
 viewBox="0.00 0.00 420.50 364.00" xmlns="http://www.w3.org/2000/svg" xmlns:xlink="http://www.w3.org/1999/xlink">
<g id="graph0" class="graph" transform="scale(1 1) rotate(0) translate(4 360)">
<title>hash.h</title>
<polygon fill="white" stroke="transparent" points="-4,4 -4,-360 416.5,-360 416.5,4 -4,4"/>
<!-- Node1 -->
<g id="node1" class="node">
<title>Node1</title>
<g id="a_node1"><a xlink:title="ODP Hash function.">
<polygon fill="#bfbfbf" stroke="black" points="105,-336.5 105,-355.5 154,-355.5 154,-336.5 105,-336.5"/>
<text text-anchor="middle" x="129.5" y="-343.5" font-family="Helvetica,sans-Serif" font-size="10.00">hash.h</text>
</a>
</g>
</g>
<!-- Node2 -->
<g id="node2" class="node">
<title>Node2</title>
<g id="a_node2"><a xlink:title=" ">
<polygon fill="white" stroke="#bfbfbf" points="12.5,-280.5 12.5,-299.5 118.5,-299.5 118.5,-280.5 12.5,-280.5"/>
<text text-anchor="middle" x="65.5" y="-287.5" font-family="Helvetica,sans-Serif" font-size="10.00">odp/api/abi/hash.h</text>
</a>
</g>
</g>
<!-- Node1&#45;&gt;Node2 -->
<g id="edge1" class="edge">
<title>Node1&#45;&gt;Node2</title>
<path fill="none" stroke="midnightblue" d="M119.22,-336.32C109.66,-328.26 95.22,-316.08 83.72,-306.37"/>
<polygon fill="midnightblue" stroke="midnightblue" points="85.87,-303.61 75.97,-299.83 81.36,-308.96 85.87,-303.61"/>
</g>
<!-- Node3 -->
<g id="node3" class="node">
<title>Node3</title>
<g id="a_node3"><a xlink:href="spec_2hash_8h.html" target="_top" xlink:title="ODP Hash functions.">
<polygon fill="white" stroke="black" points="137,-280.5 137,-299.5 250,-299.5 250,-280.5 137,-280.5"/>
<text text-anchor="middle" x="193.5" y="-287.5" font-family="Helvetica,sans-Serif" font-size="10.00">odp/api/spec/hash.h</text>
</a>
</g>
</g>
<!-- Node1&#45;&gt;Node3 -->
<g id="edge2" class="edge">
<title>Node1&#45;&gt;Node3</title>
<path fill="none" stroke="midnightblue" d="M139.78,-336.32C149.34,-328.26 163.78,-316.08 175.28,-306.37"/>
<polygon fill="midnightblue" stroke="midnightblue" points="177.64,-308.96 183.03,-299.83 173.13,-303.61 177.64,-308.96"/>
</g>
<!-- Node4 -->
<g id="node4" class="node">
<title>Node4</title>
<g id="a_node4"><a xlink:title=" ">
<polygon fill="white" stroke="#bfbfbf" points="0,-0.5 0,-19.5 121,-19.5 121,-0.5 0,-0.5"/>
<text text-anchor="middle" x="60.5" y="-7.5" font-family="Helvetica,sans-Serif" font-size="10.00">odp/visibility_begin.h</text>
</a>
</g>
</g>
<!-- Node3&#45;&gt;Node4 -->
<g id="edge3" class="edge">
<title>Node3&#45;&gt;Node4</title>
<path fill="none" stroke="midnightblue" d="M148.57,-280.42C97.91,-267.83 22.5,-239.01 22.5,-179 22.5,-179 22.5,-179 22.5,-121 22.5,-86.81 39.1,-49.76 50.36,-28.57"/>
<polygon fill="midnightblue" stroke="midnightblue" points="53.45,-30.22 55.22,-19.77 47.32,-26.83 53.45,-30.22"/>
</g>
<!-- Node5 -->
<g id="node5" class="node">
<title>Node5</title>
<g id="a_node5"><a xlink:href="std__types_8h.html" target="_top" xlink:title="Standard C language types and definitions for ODP.">
<polygon fill="white" stroke="black" points="137.5,-224.5 137.5,-243.5 249.5,-243.5 249.5,-224.5 137.5,-224.5"/>
<text text-anchor="middle" x="193.5" y="-231.5" font-family="Helvetica,sans-Serif" font-size="10.00">odp/api/std_types.h</text>
</a>
</g>
</g>
<!-- Node3&#45;&gt;Node5 -->
<g id="edge4" class="edge">
<title>Node3&#45;&gt;Node5</title>
<path fill="none" stroke="midnightblue" d="M193.5,-280.08C193.5,-273.01 193.5,-262.86 193.5,-253.99"/>
<polygon fill="midnightblue" stroke="midnightblue" points="197,-253.75 193.5,-243.75 190,-253.75 197,-253.75"/>
</g>
<!-- Node12 -->
<g id="node12" class="node">
<title>Node12</title>
<g id="a_node12"><a xlink:title=" ">
<polygon fill="white" stroke="#bfbfbf" points="300.5,-0.5 300.5,-19.5 412.5,-19.5 412.5,-0.5 300.5,-0.5"/>
<text text-anchor="middle" x="356.5" y="-7.5" font-family="Helvetica,sans-Serif" font-size="10.00">odp/visibility_end.h</text>
</a>
</g>
</g>
<!-- Node3&#45;&gt;Node12 -->
<g id="edge15" class="edge">
<title>Node3&#45;&gt;Node12</title>
<path fill="none" stroke="midnightblue" d="M250.02,-282.35C309.48,-271.84 394.5,-245.23 394.5,-179 394.5,-179 394.5,-179 394.5,-121 394.5,-86.81 377.9,-49.76 366.64,-28.57"/>
<polygon fill="midnightblue" stroke="midnightblue" points="369.68,-26.83 361.78,-19.77 363.55,-30.22 369.68,-26.83"/>
</g>
<!-- Node6 -->
<g id="node6" class="node">
<title>Node6</title>
<g id="a_node6"><a xlink:title=" ">
<polygon fill="white" stroke="#bfbfbf" points="52.5,-168.5 52.5,-187.5 182.5,-187.5 182.5,-168.5 52.5,-168.5"/>
<text text-anchor="middle" x="117.5" y="-175.5" font-family="Helvetica,sans-Serif" font-size="10.00">odp/api/abi/std_types.h</text>
</a>
</g>
</g>
<!-- Node5&#45;&gt;Node6 -->
<g id="edge5" class="edge">
<title>Node5&#45;&gt;Node6</title>
<path fill="none" stroke="midnightblue" d="M181.29,-224.32C169.72,-216.11 152.12,-203.6 138.34,-193.81"/>
<polygon fill="midnightblue" stroke="midnightblue" points="140.11,-190.77 129.93,-187.83 136.06,-196.48 140.11,-190.77"/>
</g>
<!-- Node7 -->
<g id="node7" class="node">
<title>Node7</title>
<g id="a_node7"><a xlink:href="spec_2std__types_8h.html" target="_top" xlink:title="Common types and definitions for ODP API files.">
<polygon fill="white" stroke="black" points="201,-168.5 201,-187.5 338,-187.5 338,-168.5 201,-168.5"/>
<text text-anchor="middle" x="269.5" y="-175.5" font-family="Helvetica,sans-Serif" font-size="10.00">odp/api/spec/std_types.h</text>
</a>
</g>
</g>
<!-- Node5&#45;&gt;Node7 -->
<g id="edge6" class="edge">
<title>Node5&#45;&gt;Node7</title>
<path fill="none" stroke="midnightblue" d="M205.71,-224.32C217.28,-216.11 234.88,-203.6 248.66,-193.81"/>
<polygon fill="midnightblue" stroke="midnightblue" points="250.94,-196.48 257.07,-187.83 246.89,-190.77 250.94,-196.48"/>
</g>
<!-- Node7&#45;&gt;Node4 -->
<g id="edge7" class="edge">
<title>Node7&#45;&gt;Node4</title>
<path fill="none" stroke="midnightblue" d="M231.29,-168.5C186.52,-156.33 114.08,-129.27 79.5,-76 70.4,-61.98 65.55,-43.48 63.03,-29.8"/>
<polygon fill="midnightblue" stroke="midnightblue" points="66.44,-28.99 61.42,-19.65 59.53,-30.08 66.44,-28.99"/>
</g>
<!-- Node8 -->
<g id="node8" class="node">
<title>Node8</title>
<g id="a_node8"><a xlink:title=" ">
<polygon fill="white" stroke="#bfbfbf" points="155,-112.5 155,-131.5 208,-131.5 208,-112.5 155,-112.5"/>
<text text-anchor="middle" x="181.5" y="-119.5" font-family="Helvetica,sans-Serif" font-size="10.00">stdint.h</text>
</a>
</g>
</g>
<!-- Node7&#45;&gt;Node8 -->
<g id="edge8" class="edge">
<title>Node7&#45;&gt;Node8</title>
<path fill="none" stroke="midnightblue" d="M255.36,-168.32C241.63,-159.9 220.56,-146.97 204.44,-137.07"/>
<polygon fill="midnightblue" stroke="midnightblue" points="205.96,-133.9 195.6,-131.65 202.3,-139.87 205.96,-133.9"/>
</g>
<!-- Node9 -->
<g id="node9" class="node">
<title>Node9</title>
<g id="a_node9"><a xlink:href="align_8h.html" target="_top" xlink:title="ODP alignments.">
<polygon fill="white" stroke="black" points="226,-112.5 226,-131.5 315,-131.5 315,-112.5 226,-112.5"/>
<text text-anchor="middle" x="270.5" y="-119.5" font-family="Helvetica,sans-Serif" font-size="10.00">odp/api/align.h</text>
</a>
</g>
</g>
<!-- Node7&#45;&gt;Node9 -->
<g id="edge9" class="edge">
<title>Node7&#45;&gt;Node9</title>
<path fill="none" stroke="midnightblue" d="M269.67,-168.08C269.8,-161.01 269.98,-150.86 270.15,-141.99"/>
<polygon fill="midnightblue" stroke="midnightblue" points="273.65,-141.81 270.34,-131.75 266.65,-141.68 273.65,-141.81"/>
</g>
<!-- Node7&#45;&gt;Node12 -->
<g id="edge14" class="edge">
<title>Node7&#45;&gt;Node12</title>
<path fill="none" stroke="midnightblue" d="M284.58,-168.41C297.09,-160.51 314.42,-147.67 324.5,-132 345.2,-99.83 352.56,-54.69 355.14,-29.63"/>
<polygon fill="midnightblue" stroke="midnightblue" points="358.63,-29.91 356.02,-19.64 351.66,-29.3 358.63,-29.91"/>
</g>
<!-- Node10 -->
<g id="node10" class="node">
<title>Node10</title>
<g id="a_node10"><a xlink:title=" ">
<polygon fill="white" stroke="#bfbfbf" points="89,-56.5 89,-75.5 196,-75.5 196,-56.5 89,-56.5"/>
<text text-anchor="middle" x="142.5" y="-63.5" font-family="Helvetica,sans-Serif" font-size="10.00">odp/api/abi/align.h</text>
</a>
</g>
</g>
<!-- Node9&#45;&gt;Node10 -->
<g id="edge10" class="edge">
<title>Node9&#45;&gt;Node10</title>
<path fill="none" stroke="midnightblue" d="M250.22,-112.44C229.15,-103.56 195.98,-89.56 172.01,-79.45"/>
<polygon fill="midnightblue" stroke="midnightblue" points="173.26,-76.18 162.69,-75.52 170.54,-82.63 173.26,-76.18"/>
</g>
<!-- Node11 -->
<g id="node11" class="node">
<title>Node11</title>
<g id="a_node11"><a xlink:href="spec_2align_8h.html" target="_top" xlink:title="ODP alignments.">
<polygon fill="white" stroke="black" points="214.5,-56.5 214.5,-75.5 328.5,-75.5 328.5,-56.5 214.5,-56.5"/>
<text text-anchor="middle" x="271.5" y="-63.5" font-family="Helvetica,sans-Serif" font-size="10.00">odp/api/spec/align.h</text>
</a>
</g>
</g>
<!-- Node9&#45;&gt;Node11 -->
<g id="edge11" class="edge">
<title>Node9&#45;&gt;Node11</title>
<path fill="none" stroke="midnightblue" d="M270.67,-112.08C270.8,-105.01 270.98,-94.86 271.15,-85.99"/>
<polygon fill="midnightblue" stroke="midnightblue" points="274.65,-85.81 271.34,-75.75 267.65,-85.68 274.65,-85.81"/>
</g>
<!-- Node11&#45;&gt;Node4 -->
<g id="edge12" class="edge">
<title>Node11&#45;&gt;Node4</title>
<path fill="none" stroke="midnightblue" d="M238.07,-56.44C201.64,-47.12 143.27,-32.18 103.47,-22"/>
<polygon fill="midnightblue" stroke="midnightblue" points="104.33,-18.61 93.78,-19.52 102.6,-25.39 104.33,-18.61"/>
</g>
<!-- Node11&#45;&gt;Node12 -->
<g id="edge13" class="edge">
<title>Node11&#45;&gt;Node12</title>
<path fill="none" stroke="midnightblue" d="M285.16,-56.32C298.42,-47.9 318.77,-34.97 334.35,-25.07"/>
<polygon fill="midnightblue" stroke="midnightblue" points="336.31,-27.97 342.88,-19.65 332.56,-22.06 336.31,-27.97"/>
</g>
</g>
</svg>
