<?xml version="1.0" encoding="UTF-8" standalone="no"?>
<!DOCTYPE svg PUBLIC "-//W3C//DTD SVG 1.1//EN"
 "http://www.w3.org/Graphics/SVG/1.1/DTD/svg11.dtd">
<!-- Generated by graphviz version 2.43.0 (0)
 -->
<!-- Title: hints.h Pages: 1 -->
<svg width="1778pt" height="313pt"
 viewBox="0.00 0.00 1777.50 313.00" xmlns="http://www.w3.org/2000/svg" xmlns:xlink="http://www.w3.org/1999/xlink">
<g id="graph0" class="graph" transform="scale(1 1) rotate(0) translate(4 309)">
<title>hints.h</title>
<!-- Node1 -->
<g id="Node000001" class="node">
<title>Node1</title>
<g id="a_Node000001"><a xlink:title="ODP compiler hints.">
<polygon fill="#999999" stroke="#666666" points="1332.5,-305 1282.5,-305 1282.5,-286 1332.5,-286 1332.5,-305"/>
<text text-anchor="middle" x="1307.5" y="-293" font-family="Helvetica,sans-Serif" font-size="10.00">hints.h</text>
</a>
</g>
</g>
<!-- Node2 -->
<g id="Node000002" class="node">
<title>Node2</title>
<g id="a_Node000002"><a xlink:href="cpu__inlines_8h_source.html" target="_top" xlink:title=" ">
<polygon fill="white" stroke="#666666" points="878.5,-250 798.5,-250 798.5,-231 878.5,-231 878.5,-250"/>
<text text-anchor="middle" x="838.5" y="-238" font-family="Helvetica,sans-Serif" font-size="10.00">cpu_inlines.h</text>
</a>
</g>
</g>
<!-- Node1&#45;&gt;Node2 -->
<g id="edge1_Node000001_Node000002" class="edge">
<title>Node1&#45;&gt;Node2</title>
<g id="a_edge1_Node000001_Node000002"><a xlink:title=" ">
<path fill="none" stroke="#63b8ff" d="M1271.89,-291.28C1200.03,-284.65 1032.57,-268.52 892.5,-250 887.98,-249.4 883.26,-248.73 878.57,-248.03"/>
<polygon fill="#63b8ff" stroke="#63b8ff" points="1271.91,-294.79 1282.18,-292.22 1272.55,-287.82 1271.91,-294.79"/>
</a>
</g>
</g>
<!-- Node3 -->
<g id="Node000003" class="node">
<title>Node3</title>
<g id="a_Node000003"><a xlink:href="debug__inlines_8h.html" target="_top" xlink:title="ODP Debug inlines.">
<polygon fill="white" stroke="#666666" points="940,-85 847,-85 847,-66 940,-66 940,-85"/>
<text text-anchor="middle" x="893.5" y="-73" font-family="Helvetica,sans-Serif" font-size="10.00">debug_inlines.h</text>
</a>
</g>
</g>
<!-- Node1&#45;&gt;Node3 -->
<g id="edge2_Node000001_Node000003" class="edge">
<title>Node1&#45;&gt;Node3</title>
<g id="a_edge2_Node000001_Node000003"><a xlink:title=" ">
<path fill="none" stroke="#63b8ff" d="M1272.14,-291.19C1229.37,-286.26 1155.85,-274.76 1097.5,-250 1017.04,-215.87 995.67,-202.42 934.5,-140 917.78,-122.94 904.11,-98.04 897.61,-85.07"/>
<polygon fill="#63b8ff" stroke="#63b8ff" points="1272,-294.7 1282.32,-292.31 1272.76,-287.74 1272,-294.7"/>
</a>
</g>
</g>
<!-- Node6 -->
<g id="Node000006" class="node">
<title>Node6</title>
<g id="a_Node000006"><a xlink:href="dma__inlines_8h_source.html" target="_top" xlink:title=" ">
<polygon fill="white" stroke="#666666" points="1340,-24.5 1255,-24.5 1255,-5.5 1340,-5.5 1340,-24.5"/>
<text text-anchor="middle" x="1297.5" y="-12.5" font-family="Helvetica,sans-Serif" font-size="10.00">dma_inlines.h</text>
</a>
</g>
</g>
<!-- Node1&#45;&gt;Node6 -->
<g id="edge16_Node000001_Node000006" class="edge">
<title>Node1&#45;&gt;Node6</title>
<g id="a_edge16_Node000001_Node000006"><a xlink:title=" ">
<path fill="none" stroke="#63b8ff" d="M1297.2,-276.99C1285.95,-256.16 1269.5,-219.98 1269.5,-186.5 1269.5,-186.5 1269.5,-186.5 1269.5,-129.5 1269.5,-89.31 1286.25,-43.39 1293.84,-24.65"/>
<polygon fill="#63b8ff" stroke="#63b8ff" points="1294.26,-278.9 1302.22,-285.9 1300.37,-275.47 1294.26,-278.9"/>
</a>
</g>
</g>
<!-- Node10 -->
<g id="Node000010" class="node">
<title>Node10</title>
<g id="a_Node000010"><a xlink:href="packet__inlines_8h.html" target="_top" xlink:title="Packet inline functions.">
<polygon fill="white" stroke="#666666" points="1453,-24.5 1358,-24.5 1358,-5.5 1453,-5.5 1453,-24.5"/>
<text text-anchor="middle" x="1405.5" y="-12.5" font-family="Helvetica,sans-Serif" font-size="10.00">packet_inlines.h</text>
</a>
</g>
</g>
<!-- Node1&#45;&gt;Node10 -->
<g id="edge28_Node000001_Node000010" class="edge">
<title>Node1&#45;&gt;Node10</title>
<g id="a_edge28_Node000001_Node000010"><a xlink:title=" ">
<path fill="none" stroke="#63b8ff" d="M1307.5,-275.77C1307.5,-254.23 1307.5,-217.81 1307.5,-186.5 1307.5,-186.5 1307.5,-186.5 1307.5,-129.5 1307.5,-79.78 1362.05,-41.07 1389.75,-24.62"/>
<polygon fill="#63b8ff" stroke="#63b8ff" points="1304,-275.82 1307.5,-285.82 1311,-275.82 1304,-275.82"/>
</a>
</g>
</g>
<!-- Node12 -->
<g id="Node000012" class="node">
<title>Node12</title>
<g id="a_Node000012"><a xlink:href="queue__inlines_8h_source.html" target="_top" xlink:title=" ">
<polygon fill="white" stroke="#666666" points="1564,-24.5 1471,-24.5 1471,-5.5 1564,-5.5 1564,-24.5"/>
<text text-anchor="middle" x="1517.5" y="-12.5" font-family="Helvetica,sans-Serif" font-size="10.00">queue_inlines.h</text>
</a>
</g>
</g>
<!-- Node1&#45;&gt;Node12 -->
<g id="edge29_Node000001_Node000012" class="edge">
<title>Node1&#45;&gt;Node12</title>
<g id="a_edge29_Node000001_Node000012"><a xlink:title=" ">
<path fill="none" stroke="#63b8ff" d="M1342.99,-292.12C1402.86,-285.96 1517.5,-264.04 1517.5,-186.5 1517.5,-186.5 1517.5,-186.5 1517.5,-129.5 1517.5,-90.29 1517.5,-43.45 1517.5,-24.54"/>
<polygon fill="#63b8ff" stroke="#63b8ff" points="1342.46,-288.65 1332.83,-293.06 1343.11,-295.62 1342.46,-288.65"/>
</a>
</g>
</g>
<!-- Node17 -->
<g id="Node000017" class="node">
<title>Node17</title>
<g id="a_Node000017"><a xlink:href="event__validation__external_8h.html" target="_top" xlink:title="ODP event validation.">
<polygon fill="white" stroke="#666666" points="1489,-195 1336,-195 1336,-176 1489,-176 1489,-195"/>
<text text-anchor="middle" x="1412.5" y="-183" font-family="Helvetica,sans-Serif" font-size="10.00">event_validation_external.h</text>
</a>
</g>
</g>
<!-- Node1&#45;&gt;Node17 -->
<g id="edge17_Node000001_Node000017" class="edge">
<title>Node1&#45;&gt;Node17</title>
<g id="a_edge17_Node000001_Node000017"><a xlink:title=" ">
<path fill="none" stroke="#63b8ff" d="M1323.25,-278.3C1345.81,-255.1 1386.53,-213.21 1404.08,-195.16"/>
<polygon fill="#63b8ff" stroke="#63b8ff" points="1320.55,-276.05 1316.09,-285.66 1325.57,-280.93 1320.55,-276.05"/>
</a>
</g>
</g>
<!-- Node18 -->
<g id="Node000018" class="node">
<title>Node18</title>
<g id="a_Node000018"><a xlink:href="spec_2init_8h.html" target="_top" xlink:title=" ">
<polygon fill="white" stroke="#666666" points="1148,-250 1107,-250 1107,-231 1148,-231 1148,-250"/>
<text text-anchor="middle" x="1127.5" y="-238" font-family="Helvetica,sans-Serif" font-size="10.00">init.h</text>
</a>
</g>
</g>
<!-- Node1&#45;&gt;Node18 -->
<g id="edge19_Node000001_Node000018" class="edge">
<title>Node1&#45;&gt;Node18</title>
<g id="a_edge19_Node000001_Node000018"><a xlink:title=" ">
<path fill="none" stroke="#63b8ff" d="M1272.62,-284.23C1235.65,-273.34 1178.51,-256.52 1148.13,-247.57"/>
<polygon fill="#63b8ff" stroke="#63b8ff" points="1271.89,-287.66 1282.47,-287.13 1273.87,-280.95 1271.89,-287.66"/>
</a>
</g>
</g>
<!-- Node24 -->
<g id="Node000024" class="node">
<title>Node24</title>
<g id="a_Node000024"><a xlink:href="packet__flag__inlines_8h.html" target="_top" xlink:title="Packet inline functions.">
<polygon fill="white" stroke="#666666" points="1665,-250 1546,-250 1546,-231 1665,-231 1665,-250"/>
<text text-anchor="middle" x="1605.5" y="-238" font-family="Helvetica,sans-Serif" font-size="10.00">packet_flag_inlines.h</text>
</a>
</g>
</g>
<!-- Node1&#45;&gt;Node24 -->
<g id="edge27_Node000001_Node000024" class="edge">
<title>Node1&#45;&gt;Node24</title>
<g id="a_edge27_Node000001_Node000024"><a xlink:title=" ">
<path fill="none" stroke="#63b8ff" d="M1342.65,-288.25C1395.97,-278.77 1497.43,-260.72 1557.51,-250.04"/>
<polygon fill="#63b8ff" stroke="#63b8ff" points="1341.88,-284.83 1332.65,-290.03 1343.11,-291.72 1341.88,-284.83"/>
</a>
</g>
</g>
<!-- Node25 -->
<g id="Node000025" class="node">
<title>Node25</title>
<g id="a_Node000025"><a xlink:href="time__inlines_8h_source.html" target="_top" xlink:title=" ">
<polygon fill="white" stroke="#666666" points="1769.5,-250 1683.5,-250 1683.5,-231 1769.5,-231 1769.5,-250"/>
<text text-anchor="middle" x="1726.5" y="-238" font-family="Helvetica,sans-Serif" font-size="10.00">time_inlines.h</text>
</a>
</g>
</g>
<!-- Node1&#45;&gt;Node25 -->
<g id="edge30_Node000001_Node000025" class="edge">
<title>Node1&#45;&gt;Node25</title>
<g id="a_edge30_Node000001_Node000025"><a xlink:title=" ">
<path fill="none" stroke="#63b8ff" d="M1343.12,-290.68C1408.77,-283.52 1553.22,-267.26 1674.5,-250 1677.4,-249.59 1680.38,-249.15 1683.39,-248.69"/>
<polygon fill="#63b8ff" stroke="#63b8ff" points="1342.47,-287.23 1332.91,-291.79 1343.23,-294.19 1342.47,-287.23"/>
</a>
</g>
</g>
<!-- Node4 -->
<g id="Node000004" class="node">
<title>Node4</title>
<g id="a_Node000004"><a xlink:href="buffer__inlines_8h_source.html" target="_top" xlink:title=" ">
<polygon fill="white" stroke="#666666" points="324.5,-24.5 232.5,-24.5 232.5,-5.5 324.5,-5.5 324.5,-24.5"/>
<text text-anchor="middle" x="278.5" y="-12.5" font-family="Helvetica,sans-Serif" font-size="10.00">buffer_inlines.h</text>
</a>
</g>
</g>
<!-- Node3&#45;&gt;Node4 -->
<g id="edge3_Node000003_Node000004" class="edge">
<title>Node3&#45;&gt;Node4</title>
<g id="a_edge3_Node000003_Node000004"><a xlink:title=" ">
<path fill="none" stroke="#63b8ff" d="M836.67,-73.17C735.06,-70.09 515.82,-60.22 333.5,-30 325.24,-28.63 316.4,-26.63 308.28,-24.56"/>
<polygon fill="#63b8ff" stroke="#63b8ff" points="836.61,-76.67 846.71,-73.46 836.82,-69.67 836.61,-76.67"/>
</a>
</g>
</g>
<!-- Node5 -->
<g id="Node000005" class="node">
<title>Node5</title>
<g id="a_Node000005"><a xlink:href="crypto__inlines_8h_source.html" target="_top" xlink:title=" ">
<polygon fill="white" stroke="#666666" points="436.5,-24.5 342.5,-24.5 342.5,-5.5 436.5,-5.5 436.5,-24.5"/>
<text text-anchor="middle" x="389.5" y="-12.5" font-family="Helvetica,sans-Serif" font-size="10.00">crypto_inlines.h</text>
</a>
</g>
</g>
<!-- Node3&#45;&gt;Node5 -->
<g id="edge4_Node000003_Node000005" class="edge">
<title>Node3&#45;&gt;Node5</title>
<g id="a_edge4_Node000003_Node000005"><a xlink:title=" ">
<path fill="none" stroke="#63b8ff" d="M836.76,-71.53C751.37,-66.45 584.99,-54.23 445.5,-30 437.21,-28.56 428.33,-26.56 420.14,-24.52"/>
<polygon fill="#63b8ff" stroke="#63b8ff" points="836.57,-75.02 846.76,-72.11 836.98,-68.03 836.57,-75.02"/>
</a>
</g>
</g>
<!-- Node3&#45;&gt;Node6 -->
<g id="edge5_Node000003_Node000006" class="edge">
<title>Node3&#45;&gt;Node6</title>
<g id="a_edge5_Node000003_Node000006"><a xlink:title=" ">
<path fill="none" stroke="#63b8ff" d="M950.31,-68.34C1035.23,-58.95 1191.2,-41.02 1246.5,-30 1253.88,-28.53 1261.77,-26.56 1269.08,-24.57"/>
<polygon fill="#63b8ff" stroke="#63b8ff" points="949.87,-64.86 940.32,-69.44 950.64,-71.82 949.87,-64.86"/>
</a>
</g>
</g>
<!-- Node7 -->
<g id="Node000007" class="node">
<title>Node7</title>
<g id="a_Node000007"><a xlink:href="event__inlines_8h_source.html" target="_top" xlink:title=" ">
<polygon fill="white" stroke="#666666" points="546,-24.5 455,-24.5 455,-5.5 546,-5.5 546,-24.5"/>
<text text-anchor="middle" x="500.5" y="-12.5" font-family="Helvetica,sans-Serif" font-size="10.00">event_inlines.h</text>
</a>
</g>
</g>
<!-- Node3&#45;&gt;Node7 -->
<g id="edge6_Node000003_Node000007" class="edge">
<title>Node3&#45;&gt;Node7</title>
<g id="a_edge6_Node000003_Node000007"><a xlink:title=" ">
<path fill="none" stroke="#63b8ff" d="M836.86,-69.22C769.27,-62.42 653.01,-49.16 554.5,-30 546.7,-28.48 538.36,-26.5 530.62,-24.51"/>
<polygon fill="#63b8ff" stroke="#63b8ff" points="836.58,-72.71 846.87,-70.21 837.27,-65.74 836.58,-72.71"/>
</a>
</g>
</g>
<!-- Node8 -->
<g id="Node000008" class="node">
<title>Node8</title>
<g id="a_Node000008"><a xlink:href="event__vector__inlines_8h.html" target="_top" xlink:title="Event vector inline functions.">
<polygon fill="white" stroke="#666666" points="691,-24.5 564,-24.5 564,-5.5 691,-5.5 691,-24.5"/>
<text text-anchor="middle" x="627.5" y="-12.5" font-family="Helvetica,sans-Serif" font-size="10.00">event_vector_inlines.h</text>
</a>
</g>
</g>
<!-- Node3&#45;&gt;Node8 -->
<g id="edge7_Node000003_Node000008" class="edge">
<title>Node3&#45;&gt;Node8</title>
<g id="a_edge7_Node000003_Node000008"><a xlink:title=" ">
<path fill="none" stroke="#63b8ff" d="M844.95,-63.82C793.57,-52.52 713.53,-34.92 666.23,-24.52"/>
<polygon fill="#63b8ff" stroke="#63b8ff" points="844.3,-67.26 854.82,-65.99 845.81,-60.43 844.3,-67.26"/>
</a>
</g>
</g>
<!-- Node9 -->
<g id="Node000009" class="node">
<title>Node9</title>
<g id="a_Node000009"><a xlink:href="ipsec__inlines_8h_source.html" target="_top" xlink:title=" ">
<polygon fill="white" stroke="#666666" points="798,-24.5 709,-24.5 709,-5.5 798,-5.5 798,-24.5"/>
<text text-anchor="middle" x="753.5" y="-12.5" font-family="Helvetica,sans-Serif" font-size="10.00">ipsec_inlines.h</text>
</a>
</g>
</g>
<!-- Node3&#45;&gt;Node9 -->
<g id="edge8_Node000003_Node000009" class="edge">
<title>Node3&#45;&gt;Node9</title>
<g id="a_edge8_Node000003_Node000009"><a xlink:title=" ">
<path fill="none" stroke="#63b8ff" d="M863.78,-62.08C836.74,-50.78 797.53,-34.4 773.88,-24.52"/>
<polygon fill="#63b8ff" stroke="#63b8ff" points="862.57,-65.37 873.14,-65.99 865.27,-58.91 862.57,-65.37"/>
</a>
</g>
</g>
<!-- Node3&#45;&gt;Node10 -->
<g id="edge9_Node000003_Node000010" class="edge">
<title>Node3&#45;&gt;Node10</title>
<g id="a_edge9_Node000003_Node000010"><a xlink:title=" ">
<path fill="none" stroke="#63b8ff" d="M950.23,-68.65C959.02,-67.75 968,-66.84 976.5,-66 1142.23,-49.52 1185.37,-58.28 1349.5,-30 1357.8,-28.57 1366.68,-26.57 1374.87,-24.53"/>
<polygon fill="#63b8ff" stroke="#63b8ff" points="949.62,-65.19 940.03,-69.69 950.33,-72.15 949.62,-65.19"/>
</a>
</g>
</g>
<!-- Node11 -->
<g id="Node000011" class="node">
<title>Node11</title>
<g id="a_Node000011"><a xlink:href="packet__vector__inlines_8h.html" target="_top" xlink:title="Packet vector inline functions.">
<polygon fill="white" stroke="#666666" points="947,-24.5 816,-24.5 816,-5.5 947,-5.5 947,-24.5"/>
<text text-anchor="middle" x="881.5" y="-12.5" font-family="Helvetica,sans-Serif" font-size="10.00">packet_vector_inlines.h</text>
</a>
</g>
</g>
<!-- Node3&#45;&gt;Node11 -->
<g id="edge10_Node000003_Node000011" class="edge">
<title>Node3&#45;&gt;Node11</title>
<g id="a_edge10_Node000003_Node000011"><a xlink:title=" ">
<path fill="none" stroke="#63b8ff" d="M889.7,-55.99C887.55,-45.51 884.96,-32.89 883.28,-24.67"/>
<polygon fill="#63b8ff" stroke="#63b8ff" points="886.29,-56.78 891.73,-65.87 893.15,-55.37 886.29,-56.78"/>
</a>
</g>
</g>
<!-- Node3&#45;&gt;Node12 -->
<g id="edge11_Node000003_Node000012" class="edge">
<title>Node3&#45;&gt;Node12</title>
<g id="a_edge11_Node000003_Node000012"><a xlink:title=" ">
<path fill="none" stroke="#63b8ff" d="M950.21,-68.48C959.01,-67.61 968,-66.75 976.5,-66 1192.25,-46.97 1248.73,-64.85 1462.5,-30 1470.86,-28.64 1479.81,-26.61 1488.01,-24.52"/>
<polygon fill="#63b8ff" stroke="#63b8ff" points="949.61,-65.02 940.01,-69.5 950.31,-71.99 949.61,-65.02"/>
</a>
</g>
</g>
<!-- Node13 -->
<g id="Node000013" class="node">
<title>Node13</title>
<g id="a_Node000013"><a xlink:href="rwlock__recursive__inlines_8h_source.html" target="_top" xlink:title=" ">
<polygon fill="white" stroke="#666666" points="1111.5,-24.5 965.5,-24.5 965.5,-5.5 1111.5,-5.5 1111.5,-24.5"/>
<text text-anchor="middle" x="1038.5" y="-12.5" font-family="Helvetica,sans-Serif" font-size="10.00">rwlock_recursive_inlines.h</text>
</a>
</g>
</g>
<!-- Node3&#45;&gt;Node13 -->
<g id="edge12_Node000003_Node000013" class="edge">
<title>Node3&#45;&gt;Node13</title>
<g id="a_edge12_Node000003_Node000013"><a xlink:title=" ">
<path fill="none" stroke="#63b8ff" d="M923.91,-62.23C951.93,-50.92 992.79,-34.44 1017.39,-24.52"/>
<polygon fill="#63b8ff" stroke="#63b8ff" points="922.55,-59.01 914.58,-65.99 925.17,-65.5 922.55,-59.01"/>
</a>
</g>
</g>
<!-- Node14 -->
<g id="Node000014" class="node">
<title>Node14</title>
<g id="a_Node000014"><a xlink:href="schedule__inlines_8h_source.html" target="_top" xlink:title=" ">
<polygon fill="white" stroke="#666666" points="1237,-24.5 1130,-24.5 1130,-5.5 1237,-5.5 1237,-24.5"/>
<text text-anchor="middle" x="1183.5" y="-12.5" font-family="Helvetica,sans-Serif" font-size="10.00">schedule_inlines.h</text>
</a>
</g>
</g>
<!-- Node3&#45;&gt;Node14 -->
<g id="edge13_Node000003_Node000014" class="edge">
<title>Node3&#45;&gt;Node14</title>
<g id="a_edge13_Node000003_Node000014"><a xlink:title=" ">
<path fill="none" stroke="#63b8ff" d="M948.85,-64.05C994.87,-55.27 1062.03,-42.23 1120.5,-30 1128.73,-28.28 1137.54,-26.37 1145.89,-24.52"/>
<polygon fill="#63b8ff" stroke="#63b8ff" points="947.96,-60.66 938.79,-65.97 949.27,-67.53 947.96,-60.66"/>
</a>
</g>
</g>
<!-- Node15 -->
<g id="Node000015" class="node">
<title>Node15</title>
<g id="a_Node000015"><a xlink:href="spinlock__recursive__inlines_8h_source.html" target="_top" xlink:title=" ">
<polygon fill="white" stroke="#666666" points="107,-30 0,-30 0,0 107,0 107,-30"/>
<text text-anchor="start" x="8" y="-18" font-family="Helvetica,sans-Serif" font-size="10.00">spinlock_recursive</text>
<text text-anchor="middle" x="53.5" y="-7" font-family="Helvetica,sans-Serif" font-size="10.00">_inlines.h</text>
</a>
</g>
</g>
<!-- Node3&#45;&gt;Node15 -->
<g id="edge14_Node000003_Node000015" class="edge">
<title>Node3&#45;&gt;Node15</title>
<g id="a_edge14_Node000003_Node000015"><a xlink:title=" ">
<path fill="none" stroke="#63b8ff" d="M836.72,-74.45C707.85,-73.64 383.56,-67.67 115.5,-30 112.77,-29.62 109.98,-29.17 107.17,-28.69"/>
<polygon fill="#63b8ff" stroke="#63b8ff" points="836.74,-77.95 846.76,-74.5 836.78,-70.95 836.74,-77.95"/>
</a>
</g>
</g>
<!-- Node16 -->
<g id="Node000016" class="node">
<title>Node16</title>
<g id="a_Node000016"><a xlink:href="timer__inlines_8h_source.html" target="_top" xlink:title=" ">
<polygon fill="white" stroke="#666666" points="214,-24.5 125,-24.5 125,-5.5 214,-5.5 214,-24.5"/>
<text text-anchor="middle" x="169.5" y="-12.5" font-family="Helvetica,sans-Serif" font-size="10.00">timer_inlines.h</text>
</a>
</g>
</g>
<!-- Node3&#45;&gt;Node16 -->
<g id="edge15_Node000003_Node000016" class="edge">
<title>Node3&#45;&gt;Node16</title>
<g id="a_edge15_Node000003_Node000016"><a xlink:title=" ">
<path fill="none" stroke="#63b8ff" d="M836.8,-74.3C720.85,-73.12 448.61,-66.33 223.5,-30 215.28,-28.67 206.49,-26.66 198.43,-24.57"/>
<polygon fill="#63b8ff" stroke="#63b8ff" points="836.83,-77.8 846.86,-74.4 836.89,-70.8 836.83,-77.8"/>
</a>
</g>
</g>
<!-- Node17&#45;&gt;Node12 -->
<g id="edge18_Node000017_Node000012" class="edge">
<title>Node17&#45;&gt;Node12</title>
<g id="a_edge18_Node000017_Node000012"><a xlink:title=" ">
<path fill="none" stroke="#63b8ff" d="M1423.32,-167.13C1445.51,-131.53 1495.45,-51.38 1512.03,-24.77"/>
<polygon fill="#63b8ff" stroke="#63b8ff" points="1420.17,-165.57 1417.85,-175.91 1426.11,-169.28 1420.17,-165.57"/>
</a>
</g>
</g>
<!-- Node19 -->
<g id="Node000019" class="node">
<title>Node19</title>
<g id="a_Node000019"><a xlink:href="init_8h.html" target="_top" xlink:title="ODP initialization.">
<polygon fill="white" stroke="#666666" points="1101,-195 1060,-195 1060,-176 1101,-176 1101,-195"/>
<text text-anchor="middle" x="1080.5" y="-183" font-family="Helvetica,sans-Serif" font-size="10.00">init.h</text>
</a>
</g>
</g>
<!-- Node18&#45;&gt;Node19 -->
<g id="edge20_Node000018_Node000019" class="edge">
<title>Node18&#45;&gt;Node19</title>
<g id="a_edge20_Node000018_Node000019"><a xlink:title=" ">
<path fill="none" stroke="#63b8ff" d="M1113.08,-223.24C1104.84,-213.95 1094.85,-202.68 1088.12,-195.09"/>
<polygon fill="#63b8ff" stroke="#63b8ff" points="1110.49,-225.59 1119.74,-230.75 1115.72,-220.94 1110.49,-225.59"/>
</a>
</g>
</g>
<!-- Node19&#45;&gt;Node3 -->
<g id="edge21_Node000019_Node000003" class="edge">
<title>Node19&#45;&gt;Node3</title>
<g id="a_edge21_Node000019_Node000003"><a xlink:title=" ">
<path fill="none" stroke="#63b8ff" d="M1050.18,-176.38C1025.68,-169.04 990.9,-156.8 963.5,-140 938.04,-124.39 913.4,-98.88 901.28,-85.44"/>
<polygon fill="#63b8ff" stroke="#63b8ff" points="1049.42,-179.8 1059.99,-179.23 1051.36,-173.08 1049.42,-179.8"/>
</a>
</g>
</g>
<!-- Node20 -->
<g id="Node000020" class="node">
<title>Node20</title>
<g id="a_Node000020"><a xlink:href="spec_2shared__memory_8h.html" target="_top" xlink:title="ODP shared memory.">
<polygon fill="white" stroke="#666666" points="1216.5,-140 1112.5,-140 1112.5,-121 1216.5,-121 1216.5,-140"/>
<text text-anchor="middle" x="1164.5" y="-128" font-family="Helvetica,sans-Serif" font-size="10.00">shared_memory.h</text>
</a>
</g>
</g>
<!-- Node19&#45;&gt;Node20 -->
<g id="edge22_Node000019_Node000020" class="edge">
<title>Node19&#45;&gt;Node20</title>
<g id="a_edge22_Node000019_Node000020"><a xlink:title=" ">
<path fill="none" stroke="#63b8ff" d="M1102.81,-170.42C1118.05,-160.81 1137.77,-148.37 1150.76,-140.17"/>
<polygon fill="#63b8ff" stroke="#63b8ff" points="1100.59,-167.69 1094,-175.98 1104.32,-173.61 1100.59,-167.69"/>
</a>
</g>
</g>
<!-- Node22 -->
<g id="Node000022" class="node">
<title>Node22</title>
<g id="a_Node000022"><a xlink:href="thread__inline__types_8h_source.html" target="_top" xlink:title=" ">
<polygon fill="white" stroke="#666666" points="1094.5,-140 972.5,-140 972.5,-121 1094.5,-121 1094.5,-140"/>
<text text-anchor="middle" x="1033.5" y="-128" font-family="Helvetica,sans-Serif" font-size="10.00">thread_inline_types.h</text>
</a>
</g>
</g>
<!-- Node19&#45;&gt;Node22 -->
<g id="edge24_Node000019_Node000022" class="edge">
<title>Node19&#45;&gt;Node22</title>
<g id="a_edge24_Node000019_Node000022"><a xlink:title=" ">
<path fill="none" stroke="#63b8ff" d="M1066.08,-168.24C1057.84,-158.95 1047.85,-147.68 1041.12,-140.09"/>
<polygon fill="#63b8ff" stroke="#63b8ff" points="1063.49,-170.59 1072.74,-175.75 1068.72,-165.94 1063.49,-170.59"/>
</a>
</g>
</g>
<!-- Node21 -->
<g id="Node000021" class="node">
<title>Node21</title>
<g id="a_Node000021"><a xlink:href="shared__memory_8h.html" target="_top" xlink:title="ODP shared memory.">
<polygon fill="white" stroke="#666666" points="1216.5,-85 1112.5,-85 1112.5,-66 1216.5,-66 1216.5,-85"/>
<text text-anchor="middle" x="1164.5" y="-73" font-family="Helvetica,sans-Serif" font-size="10.00">shared_memory.h</text>
</a>
</g>
</g>
<!-- Node20&#45;&gt;Node21 -->
<g id="edge23_Node000020_Node000021" class="edge">
<title>Node20&#45;&gt;Node21</title>
<g id="a_edge23_Node000020_Node000021"><a xlink:title=" ">
<path fill="none" stroke="#63b8ff" d="M1164.5,-110.66C1164.5,-101.93 1164.5,-91.99 1164.5,-85.09"/>
<polygon fill="#63b8ff" stroke="#63b8ff" points="1161,-110.75 1164.5,-120.75 1168,-110.75 1161,-110.75"/>
</a>
</g>
</g>
<!-- Node22&#45;&gt;Node3 -->
<g id="edge25_Node000022_Node000003" class="edge">
<title>Node22&#45;&gt;Node3</title>
<g id="a_edge25_Node000022_Node000003"><a xlink:title=" ">
<path fill="none" stroke="#63b8ff" d="M1001.59,-117.42C975.62,-107.59 939.58,-93.95 916.4,-85.17"/>
<polygon fill="#63b8ff" stroke="#63b8ff" points="1000.42,-120.72 1011.01,-120.98 1002.89,-114.17 1000.42,-120.72"/>
</a>
</g>
</g>
<!-- Node23 -->
<g id="Node000023" class="node">
<title>Node23</title>
<g id="a_Node000023"><a xlink:href="thread__inlines_8h_source.html" target="_top" xlink:title=" ">
<polygon fill="white" stroke="#666666" points="1081,-85 986,-85 986,-66 1081,-66 1081,-85"/>
<text text-anchor="middle" x="1033.5" y="-73" font-family="Helvetica,sans-Serif" font-size="10.00">thread_inlines.h</text>
</a>
</g>
</g>
<!-- Node22&#45;&gt;Node23 -->
<g id="edge26_Node000022_Node000023" class="edge">
<title>Node22&#45;&gt;Node23</title>
<g id="a_edge26_Node000022_Node000023"><a xlink:title=" ">
<path fill="none" stroke="#63b8ff" d="M1033.5,-110.66C1033.5,-101.93 1033.5,-91.99 1033.5,-85.09"/>
<polygon fill="#63b8ff" stroke="#63b8ff" points="1030,-110.75 1033.5,-120.75 1037,-110.75 1030,-110.75"/>
</a>
</g>
</g>
</g>
</svg>
