<?xml version="1.0" encoding="UTF-8" standalone="no"?>
<!DOCTYPE svg PUBLIC "-//W3C//DTD SVG 1.1//EN"
 "http://www.w3.org/Graphics/SVG/1.1/DTD/svg11.dtd">
<!-- Generated by graphviz version 2.43.0 (0)
 -->
<!-- Title: init.h Pages: 1 -->
<svg width="1572pt" height="203pt"
 viewBox="0.00 0.00 1571.50 203.00" xmlns="http://www.w3.org/2000/svg" xmlns:xlink="http://www.w3.org/1999/xlink">
<g id="graph0" class="graph" transform="scale(1 1) rotate(0) translate(4 199)">
<title>init.h</title>
<!-- Node1 -->
<g id="Node000001" class="node">
<title>Node1</title>
<g id="a_Node000001"><a xlink:title="ODP initialization.">
<polygon fill="#999999" stroke="#666666" points="744.5,-195 703.5,-195 703.5,-176 744.5,-176 744.5,-195"/>
<text text-anchor="middle" x="724" y="-183" font-family="Helvetica,sans-Serif" font-size="10.00">init.h</text>
</a>
</g>
</g>
<!-- Node2 -->
<g id="Node000002" class="node">
<title>Node2</title>
<g id="a_Node000002"><a xlink:href="debug__inlines_8h.html" target="_top" xlink:title="ODP Debug inlines.">
<polygon fill="white" stroke="#666666" points="780.5,-85 687.5,-85 687.5,-66 780.5,-66 780.5,-85"/>
<text text-anchor="middle" x="734" y="-73" font-family="Helvetica,sans-Serif" font-size="10.00">debug_inlines.h</text>
</a>
</g>
</g>
<!-- Node1&#45;&gt;Node2 -->
<g id="edge1_Node000001_Node000002" class="edge">
<title>Node1&#45;&gt;Node2</title>
<g id="a_edge1_Node000001_Node000002"><a xlink:title=" ">
<path fill="none" stroke="#63b8ff" d="M725.76,-165.48C727.95,-141.84 731.59,-102.5 733.2,-85.16"/>
<polygon fill="#63b8ff" stroke="#63b8ff" points="722.26,-165.38 724.82,-175.66 729.23,-166.03 722.26,-165.38"/>
</a>
</g>
</g>
<!-- Node16 -->
<g id="Node000016" class="node">
<title>Node16</title>
<g id="a_Node000016"><a xlink:href="spec_2shared__memory_8h.html" target="_top" xlink:title="ODP shared memory.">
<polygon fill="white" stroke="#666666" points="687,-140 583,-140 583,-121 687,-121 687,-140"/>
<text text-anchor="middle" x="635" y="-128" font-family="Helvetica,sans-Serif" font-size="10.00">shared_memory.h</text>
</a>
</g>
</g>
<!-- Node1&#45;&gt;Node16 -->
<g id="edge15_Node000001_Node000016" class="edge">
<title>Node1&#45;&gt;Node16</title>
<g id="a_edge15_Node000001_Node000016"><a xlink:title=" ">
<path fill="none" stroke="#63b8ff" d="M700.82,-170.7C684.61,-161.04 663.45,-148.44 649.56,-140.17"/>
<polygon fill="#63b8ff" stroke="#63b8ff" points="699.32,-173.88 709.7,-175.98 702.9,-167.86 699.32,-173.88"/>
</a>
</g>
</g>
<!-- Node18 -->
<g id="Node000018" class="node">
<title>Node18</title>
<g id="a_Node000018"><a xlink:href="thread__inline__types_8h_source.html" target="_top" xlink:title=" ">
<polygon fill="white" stroke="#666666" points="874,-140 752,-140 752,-121 874,-121 874,-140"/>
<text text-anchor="middle" x="813" y="-128" font-family="Helvetica,sans-Serif" font-size="10.00">thread_inline_types.h</text>
</a>
</g>
</g>
<!-- Node1&#45;&gt;Node18 -->
<g id="edge17_Node000001_Node000018" class="edge">
<title>Node1&#45;&gt;Node18</title>
<g id="a_edge17_Node000001_Node000018"><a xlink:title=" ">
<path fill="none" stroke="#63b8ff" d="M747.18,-170.7C763.39,-161.04 784.55,-148.44 798.44,-140.17"/>
<polygon fill="#63b8ff" stroke="#63b8ff" points="745.1,-167.86 738.3,-175.98 748.68,-173.88 745.1,-167.86"/>
</a>
</g>
</g>
<!-- Node3 -->
<g id="Node000003" class="node">
<title>Node3</title>
<g id="a_Node000003"><a xlink:href="buffer__inlines_8h_source.html" target="_top" xlink:title=" ">
<polygon fill="white" stroke="#666666" points="92,-24.5 0,-24.5 0,-5.5 92,-5.5 92,-24.5"/>
<text text-anchor="middle" x="46" y="-12.5" font-family="Helvetica,sans-Serif" font-size="10.00">buffer_inlines.h</text>
</a>
</g>
</g>
<!-- Node2&#45;&gt;Node3 -->
<g id="edge2_Node000002_Node000003" class="edge">
<title>Node2&#45;&gt;Node3</title>
<g id="a_edge2_Node000002_Node000003"><a xlink:title=" ">
<path fill="none" stroke="#63b8ff" d="M677.3,-66.04C420.76,-39.47 351.61,-69.36 101,-30 92.53,-28.67 83.47,-26.63 75.19,-24.51"/>
<polygon fill="#63b8ff" stroke="#63b8ff" points="676.98,-69.53 687.29,-67.09 677.71,-62.57 676.98,-69.53"/>
</a>
</g>
</g>
<!-- Node4 -->
<g id="Node000004" class="node">
<title>Node4</title>
<g id="a_Node000004"><a xlink:href="crypto__inlines_8h_source.html" target="_top" xlink:title=" ">
<polygon fill="white" stroke="#666666" points="204,-24.5 110,-24.5 110,-5.5 204,-5.5 204,-24.5"/>
<text text-anchor="middle" x="157" y="-12.5" font-family="Helvetica,sans-Serif" font-size="10.00">crypto_inlines.h</text>
</a>
</g>
</g>
<!-- Node2&#45;&gt;Node4 -->
<g id="edge3_Node000002_Node000004" class="edge">
<title>Node2&#45;&gt;Node4</title>
<g id="a_edge3_Node000002_Node000004"><a xlink:title=" ">
<path fill="none" stroke="#63b8ff" d="M677.31,-66.02C470.32,-43.07 414.4,-62.73 213,-30 204.59,-28.63 195.59,-26.63 187.32,-24.57"/>
<polygon fill="#63b8ff" stroke="#63b8ff" points="676.95,-69.5 687.28,-67.15 677.74,-62.55 676.95,-69.5"/>
</a>
</g>
</g>
<!-- Node5 -->
<g id="Node000005" class="node">
<title>Node5</title>
<g id="a_Node000005"><a xlink:href="dma__inlines_8h_source.html" target="_top" xlink:title=" ">
<polygon fill="white" stroke="#666666" points="307.5,-24.5 222.5,-24.5 222.5,-5.5 307.5,-5.5 307.5,-24.5"/>
<text text-anchor="middle" x="265" y="-12.5" font-family="Helvetica,sans-Serif" font-size="10.00">dma_inlines.h</text>
</a>
</g>
</g>
<!-- Node2&#45;&gt;Node5 -->
<g id="edge4_Node000002_Node000005" class="edge">
<title>Node2&#45;&gt;Node5</title>
<g id="a_edge4_Node000002_Node000005"><a xlink:title=" ">
<path fill="none" stroke="#63b8ff" d="M676.99,-65.95C515.78,-46.4 471.71,-58.9 316,-30 308.42,-28.59 300.32,-26.6 292.86,-24.56"/>
<polygon fill="#63b8ff" stroke="#63b8ff" points="676.92,-69.47 687.27,-67.22 677.78,-62.52 676.92,-69.47"/>
</a>
</g>
</g>
<!-- Node6 -->
<g id="Node000006" class="node">
<title>Node6</title>
<g id="a_Node000006"><a xlink:href="event__inlines_8h_source.html" target="_top" xlink:title=" ">
<polygon fill="white" stroke="#666666" points="416.5,-24.5 325.5,-24.5 325.5,-5.5 416.5,-5.5 416.5,-24.5"/>
<text text-anchor="middle" x="371" y="-12.5" font-family="Helvetica,sans-Serif" font-size="10.00">event_inlines.h</text>
</a>
</g>
</g>
<!-- Node2&#45;&gt;Node6 -->
<g id="edge5_Node000002_Node000006" class="edge">
<title>Node2&#45;&gt;Node6</title>
<g id="a_edge5_Node000002_Node000006"><a xlink:title=" ">
<path fill="none" stroke="#63b8ff" d="M677.14,-65.9C563.91,-49.62 533.21,-51.66 425,-30 417.31,-28.46 409.08,-26.49 401.42,-24.52"/>
<polygon fill="#63b8ff" stroke="#63b8ff" points="676.85,-69.4 687.25,-67.37 677.86,-62.47 676.85,-69.4"/>
</a>
</g>
</g>
<!-- Node7 -->
<g id="Node000007" class="node">
<title>Node7</title>
<g id="a_Node000007"><a xlink:href="event__vector__inlines_8h.html" target="_top" xlink:title="Event vector inline functions.">
<polygon fill="white" stroke="#666666" points="561.5,-24.5 434.5,-24.5 434.5,-5.5 561.5,-5.5 561.5,-24.5"/>
<text text-anchor="middle" x="498" y="-12.5" font-family="Helvetica,sans-Serif" font-size="10.00">event_vector_inlines.h</text>
</a>
</g>
</g>
<!-- Node2&#45;&gt;Node7 -->
<g id="edge6_Node000002_Node000007" class="edge">
<title>Node2&#45;&gt;Node7</title>
<g id="a_edge6_Node000002_Node000007"><a xlink:title=" ">
<path fill="none" stroke="#63b8ff" d="M689.78,-63.54C644.16,-52.23 573.97,-34.83 532.36,-24.52"/>
<polygon fill="#63b8ff" stroke="#63b8ff" points="689.14,-66.98 699.68,-65.99 690.82,-60.19 689.14,-66.98"/>
</a>
</g>
</g>
<!-- Node8 -->
<g id="Node000008" class="node">
<title>Node8</title>
<g id="a_Node000008"><a xlink:href="ipsec__inlines_8h_source.html" target="_top" xlink:title=" ">
<polygon fill="white" stroke="#666666" points="668.5,-24.5 579.5,-24.5 579.5,-5.5 668.5,-5.5 668.5,-24.5"/>
<text text-anchor="middle" x="624" y="-12.5" font-family="Helvetica,sans-Serif" font-size="10.00">ipsec_inlines.h</text>
</a>
</g>
</g>
<!-- Node2&#45;&gt;Node8 -->
<g id="edge7_Node000002_Node000008" class="edge">
<title>Node2&#45;&gt;Node8</title>
<g id="a_edge7_Node000002_Node000008"><a xlink:title=" ">
<path fill="none" stroke="#63b8ff" d="M708.76,-61.08C687.72,-49.88 658.36,-34.27 640.3,-24.67"/>
<polygon fill="#63b8ff" stroke="#63b8ff" points="707.3,-64.26 717.77,-65.87 710.58,-58.08 707.3,-64.26"/>
</a>
</g>
</g>
<!-- Node9 -->
<g id="Node000009" class="node">
<title>Node9</title>
<g id="a_Node000009"><a xlink:href="packet__inlines_8h.html" target="_top" xlink:title="Packet inline functions.">
<polygon fill="white" stroke="#666666" points="781.5,-24.5 686.5,-24.5 686.5,-5.5 781.5,-5.5 781.5,-24.5"/>
<text text-anchor="middle" x="734" y="-12.5" font-family="Helvetica,sans-Serif" font-size="10.00">packet_inlines.h</text>
</a>
</g>
</g>
<!-- Node2&#45;&gt;Node9 -->
<g id="edge8_Node000002_Node000009" class="edge">
<title>Node2&#45;&gt;Node9</title>
<g id="a_edge8_Node000002_Node000009"><a xlink:title=" ">
<path fill="none" stroke="#63b8ff" d="M734,-55.66C734,-45.24 734,-32.8 734,-24.67"/>
<polygon fill="#63b8ff" stroke="#63b8ff" points="730.5,-55.87 734,-65.87 737.5,-55.87 730.5,-55.87"/>
</a>
</g>
</g>
<!-- Node10 -->
<g id="Node000010" class="node">
<title>Node10</title>
<g id="a_Node000010"><a xlink:href="packet__vector__inlines_8h.html" target="_top" xlink:title="Packet vector inline functions.">
<polygon fill="white" stroke="#666666" points="930.5,-24.5 799.5,-24.5 799.5,-5.5 930.5,-5.5 930.5,-24.5"/>
<text text-anchor="middle" x="865" y="-12.5" font-family="Helvetica,sans-Serif" font-size="10.00">packet_vector_inlines.h</text>
</a>
</g>
</g>
<!-- Node2&#45;&gt;Node10 -->
<g id="edge9_Node000002_Node000010" class="edge">
<title>Node2&#45;&gt;Node10</title>
<g id="a_edge9_Node000002_Node000010"><a xlink:title=" ">
<path fill="none" stroke="#63b8ff" d="M762.48,-61.78C787.76,-50.49 823.99,-34.31 845.93,-24.52"/>
<polygon fill="#63b8ff" stroke="#63b8ff" points="760.75,-58.72 753.05,-65.99 763.61,-65.11 760.75,-58.72"/>
</a>
</g>
</g>
<!-- Node11 -->
<g id="Node000011" class="node">
<title>Node11</title>
<g id="a_Node000011"><a xlink:href="queue__inlines_8h_source.html" target="_top" xlink:title=" ">
<polygon fill="white" stroke="#666666" points="1041.5,-24.5 948.5,-24.5 948.5,-5.5 1041.5,-5.5 1041.5,-24.5"/>
<text text-anchor="middle" x="995" y="-12.5" font-family="Helvetica,sans-Serif" font-size="10.00">queue_inlines.h</text>
</a>
</g>
</g>
<!-- Node2&#45;&gt;Node11 -->
<g id="edge10_Node000002_Node000011" class="edge">
<title>Node2&#45;&gt;Node11</title>
<g id="a_edge10_Node000002_Node000011"><a xlink:title=" ">
<path fill="none" stroke="#63b8ff" d="M785.46,-63.93C827.2,-55.22 887.52,-42.34 940,-30 947.19,-28.31 954.89,-26.41 962.18,-24.56"/>
<polygon fill="#63b8ff" stroke="#63b8ff" points="784.61,-60.53 775.53,-65.99 786.03,-67.38 784.61,-60.53"/>
</a>
</g>
</g>
<!-- Node12 -->
<g id="Node000012" class="node">
<title>Node12</title>
<g id="a_Node000012"><a xlink:href="rwlock__recursive__inlines_8h_source.html" target="_top" xlink:title=" ">
<polygon fill="white" stroke="#666666" points="1206,-24.5 1060,-24.5 1060,-5.5 1206,-5.5 1206,-24.5"/>
<text text-anchor="middle" x="1133" y="-12.5" font-family="Helvetica,sans-Serif" font-size="10.00">rwlock_recursive_inlines.h</text>
</a>
</g>
</g>
<!-- Node2&#45;&gt;Node12 -->
<g id="edge11_Node000002_Node000012" class="edge">
<title>Node2&#45;&gt;Node12</title>
<g id="a_edge11_Node000002_Node000012"><a xlink:title=" ">
<path fill="none" stroke="#63b8ff" d="M790.8,-65.91C907.56,-49.13 938.44,-47.37 1051,-30 1061.85,-28.33 1073.48,-26.41 1084.48,-24.55"/>
<polygon fill="#63b8ff" stroke="#63b8ff" points="790.14,-62.46 780.74,-67.36 791.14,-69.39 790.14,-62.46"/>
</a>
</g>
</g>
<!-- Node13 -->
<g id="Node000013" class="node">
<title>Node13</title>
<g id="a_Node000013"><a xlink:href="schedule__inlines_8h_source.html" target="_top" xlink:title=" ">
<polygon fill="white" stroke="#666666" points="1331.5,-24.5 1224.5,-24.5 1224.5,-5.5 1331.5,-5.5 1331.5,-24.5"/>
<text text-anchor="middle" x="1278" y="-12.5" font-family="Helvetica,sans-Serif" font-size="10.00">schedule_inlines.h</text>
</a>
</g>
</g>
<!-- Node2&#45;&gt;Node13 -->
<g id="edge12_Node000002_Node000013" class="edge">
<title>Node2&#45;&gt;Node13</title>
<g id="a_edge12_Node000002_Node000013"><a xlink:title=" ">
<path fill="none" stroke="#63b8ff" d="M790.72,-66.01C979.98,-44.26 1030.81,-58.14 1215,-30 1224.3,-28.58 1234.28,-26.58 1243.5,-24.54"/>
<polygon fill="#63b8ff" stroke="#63b8ff" points="790.25,-62.54 780.72,-67.17 791.06,-69.49 790.25,-62.54"/>
</a>
</g>
</g>
<!-- Node14 -->
<g id="Node000014" class="node">
<title>Node14</title>
<g id="a_Node000014"><a xlink:href="spinlock__recursive__inlines_8h_source.html" target="_top" xlink:title=" ">
<polygon fill="white" stroke="#666666" points="1456.5,-30 1349.5,-30 1349.5,0 1456.5,0 1456.5,-30"/>
<text text-anchor="start" x="1357.5" y="-18" font-family="Helvetica,sans-Serif" font-size="10.00">spinlock_recursive</text>
<text text-anchor="middle" x="1403" y="-7" font-family="Helvetica,sans-Serif" font-size="10.00">_inlines.h</text>
</a>
</g>
</g>
<!-- Node2&#45;&gt;Node14 -->
<g id="edge13_Node000002_Node000014" class="edge">
<title>Node2&#45;&gt;Node14</title>
<g id="a_edge13_Node000002_Node000014"><a xlink:title=" ">
<path fill="none" stroke="#63b8ff" d="M790.99,-66C1035.77,-40.25 1101.44,-64.65 1341,-30 1343.73,-29.61 1346.52,-29.15 1349.33,-28.66"/>
<polygon fill="#63b8ff" stroke="#63b8ff" points="790.28,-62.56 780.71,-67.1 791.03,-69.52 790.28,-62.56"/>
</a>
</g>
</g>
<!-- Node15 -->
<g id="Node000015" class="node">
<title>Node15</title>
<g id="a_Node000015"><a xlink:href="timer__inlines_8h_source.html" target="_top" xlink:title=" ">
<polygon fill="white" stroke="#666666" points="1563.5,-24.5 1474.5,-24.5 1474.5,-5.5 1563.5,-5.5 1563.5,-24.5"/>
<text text-anchor="middle" x="1519" y="-12.5" font-family="Helvetica,sans-Serif" font-size="10.00">timer_inlines.h</text>
</a>
</g>
</g>
<!-- Node2&#45;&gt;Node15 -->
<g id="edge14_Node000002_Node000015" class="edge">
<title>Node2&#45;&gt;Node15</title>
<g id="a_edge14_Node000002_Node000015"><a xlink:title=" ">
<path fill="none" stroke="#63b8ff" d="M791.02,-66.02C1091.12,-36.3 1172.11,-76.14 1466,-30 1474.18,-28.72 1482.92,-26.69 1490.9,-24.57"/>
<polygon fill="#63b8ff" stroke="#63b8ff" points="790.31,-62.58 780.71,-67.06 791.01,-69.54 790.31,-62.58"/>
</a>
</g>
</g>
<!-- Node17 -->
<g id="Node000017" class="node">
<title>Node17</title>
<g id="a_Node000017"><a xlink:href="shared__memory_8h.html" target="_top" xlink:title="ODP shared memory.">
<polygon fill="white" stroke="#666666" points="669,-85 565,-85 565,-66 669,-66 669,-85"/>
<text text-anchor="middle" x="617" y="-73" font-family="Helvetica,sans-Serif" font-size="10.00">shared_memory.h</text>
</a>
</g>
</g>
<!-- Node16&#45;&gt;Node17 -->
<g id="edge16_Node000016_Node000017" class="edge">
<title>Node16&#45;&gt;Node17</title>
<g id="a_edge16_Node000016_Node000017"><a xlink:title=" ">
<path fill="none" stroke="#63b8ff" d="M628.8,-111.24C625.79,-102.37 622.31,-92.14 619.92,-85.09"/>
<polygon fill="#63b8ff" stroke="#63b8ff" points="625.5,-112.4 632.03,-120.75 632.13,-110.15 625.5,-112.4"/>
</a>
</g>
</g>
<!-- Node18&#45;&gt;Node2 -->
<g id="edge18_Node000018_Node000002" class="edge">
<title>Node18&#45;&gt;Node2</title>
<g id="a_edge18_Node000018_Node000002"><a xlink:title=" ">
<path fill="none" stroke="#63b8ff" d="M791.61,-115.15C777.33,-105.57 759.03,-93.29 746.92,-85.17"/>
<polygon fill="#63b8ff" stroke="#63b8ff" points="790.05,-118.32 800.31,-120.98 793.95,-112.51 790.05,-118.32"/>
</a>
</g>
</g>
<!-- Node19 -->
<g id="Node000019" class="node">
<title>Node19</title>
<g id="a_Node000019"><a xlink:href="thread__inlines_8h_source.html" target="_top" xlink:title=" ">
<polygon fill="white" stroke="#666666" points="893.5,-85 798.5,-85 798.5,-66 893.5,-66 893.5,-85"/>
<text text-anchor="middle" x="846" y="-73" font-family="Helvetica,sans-Serif" font-size="10.00">thread_inlines.h</text>
</a>
</g>
</g>
<!-- Node18&#45;&gt;Node19 -->
<g id="edge19_Node000018_Node000019" class="edge">
<title>Node18&#45;&gt;Node19</title>
<g id="a_edge19_Node000018_Node000019"><a xlink:title=" ">
<path fill="none" stroke="#63b8ff" d="M823.83,-112.1C829.47,-103.04 836.12,-92.37 840.65,-85.09"/>
<polygon fill="#63b8ff" stroke="#63b8ff" points="820.76,-110.41 818.45,-120.75 826.71,-114.11 820.76,-110.41"/>
</a>
</g>
</g>
</g>
</svg>
