<?xml version="1.0" encoding="UTF-8" standalone="no"?>
<!DOCTYPE svg PUBLIC "-//W3C//DTD SVG 1.1//EN"
 "http://www.w3.org/Graphics/SVG/1.1/DTD/svg11.dtd">
<!-- Generated by graphviz version 2.43.0 (0)
 -->
<!-- Title: ml.h Pages: 1 -->
<svg width="1807pt" height="1102pt"
 viewBox="0.00 0.00 1807.00 1102.00" xmlns="http://www.w3.org/2000/svg" xmlns:xlink="http://www.w3.org/1999/xlink">
<g id="graph0" class="graph" transform="scale(1 1) rotate(0) translate(4 1098)">
<title>ml.h</title>
<polygon fill="white" stroke="transparent" points="-4,4 -4,-1098 1803,-1098 1803,4 -4,4"/>
<!-- Node1 -->
<g id="node1" class="node">
<title>Node1</title>
<g id="a_node1"><a xlink:title="ODP Machine Learning (ML) offload.">
<polygon fill="#bfbfbf" stroke="black" points="982,-1074.5 982,-1093.5 1020,-1093.5 1020,-1074.5 982,-1074.5"/>
<text text-anchor="middle" x="1001" y="-1081.5" font-family="Helvetica,sans-Serif" font-size="10.00">ml.h</text>
</a>
</g>
</g>
<!-- Node2 -->
<g id="node2" class="node">
<title>Node2</title>
<g id="a_node2"><a xlink:href="spec_2ml_8h.html" target="_top" xlink:title="ODP Machine Learning (ML) offload.">
<polygon fill="white" stroke="black" points="949.5,-1018.5 949.5,-1037.5 1052.5,-1037.5 1052.5,-1018.5 949.5,-1018.5"/>
<text text-anchor="middle" x="1001" y="-1025.5" font-family="Helvetica,sans-Serif" font-size="10.00">odp/api/spec/ml.h</text>
</a>
</g>
</g>
<!-- Node1&#45;&gt;Node2 -->
<g id="edge1" class="edge">
<title>Node1&#45;&gt;Node2</title>
<path fill="none" stroke="midnightblue" d="M1001,-1074.08C1001,-1067.01 1001,-1056.86 1001,-1047.99"/>
<polygon fill="midnightblue" stroke="midnightblue" points="1004.5,-1047.75 1001,-1037.75 997.5,-1047.75 1004.5,-1047.75"/>
</g>
<!-- Node3 -->
<g id="node3" class="node">
<title>Node3</title>
<g id="a_node3"><a xlink:title=" ">
<polygon fill="white" stroke="#bfbfbf" points="381.5,-0.5 381.5,-19.5 502.5,-19.5 502.5,-0.5 381.5,-0.5"/>
<text text-anchor="middle" x="442" y="-7.5" font-family="Helvetica,sans-Serif" font-size="10.00">odp/visibility_begin.h</text>
</a>
</g>
</g>
<!-- Node2&#45;&gt;Node3 -->
<g id="edge2" class="edge">
<title>Node2&#45;&gt;Node3</title>
<path fill="none" stroke="midnightblue" d="M949.33,-1027.42C784.81,-1028.3 274.79,-1027.2 117,-982 59.81,-965.62 0,-976.49 0,-917 0,-917 0,-917 0,-132 0,-91.07 16.96,-77.14 52,-56 104.21,-24.5 273.94,-15.05 371.42,-12.22"/>
<polygon fill="midnightblue" stroke="midnightblue" points="371.59,-15.71 381.49,-11.94 371.4,-8.72 371.59,-15.71"/>
</g>
<!-- Node4 -->
<g id="node4" class="node">
<title>Node4</title>
<g id="a_node4"><a xlink:href="event__types_8h.html" target="_top" xlink:title="ODP event API type definitions.">
<polygon fill="white" stroke="black" points="203.5,-235.5 203.5,-254.5 328.5,-254.5 328.5,-235.5 203.5,-235.5"/>
<text text-anchor="middle" x="266" y="-242.5" font-family="Helvetica,sans-Serif" font-size="10.00">odp/api/event_types.h</text>
</a>
</g>
</g>
<!-- Node2&#45;&gt;Node4 -->
<g id="edge3" class="edge">
<title>Node2&#45;&gt;Node4</title>
<path fill="none" stroke="midnightblue" d="M949.22,-1026.58C749.2,-1024.27 38,-1009.55 38,-917 38,-917 38,-917 38,-562.5 38,-421.72 188.34,-300.88 244.86,-260.42"/>
<polygon fill="midnightblue" stroke="midnightblue" points="246.93,-263.25 253.09,-254.63 242.9,-257.52 246.93,-263.25"/>
</g>
<!-- Node7 -->
<g id="node7" class="node">
<title>Node7</title>
<g id="a_node7"><a xlink:title=" ">
<polygon fill="white" stroke="#bfbfbf" points="1515,-0.5 1515,-19.5 1627,-19.5 1627,-0.5 1515,-0.5"/>
<text text-anchor="middle" x="1571" y="-7.5" font-family="Helvetica,sans-Serif" font-size="10.00">odp/visibility_end.h</text>
</a>
</g>
</g>
<!-- Node2&#45;&gt;Node7 -->
<g id="edge81" class="edge">
<title>Node2&#45;&gt;Node7</title>
<path fill="none" stroke="midnightblue" d="M1052.74,-1025.34C1229.58,-1018.97 1799,-992.61 1799,-917 1799,-917 1799,-917 1799,-132 1799,-58.15 1704.52,-29.24 1637.2,-18.01"/>
<polygon fill="midnightblue" stroke="midnightblue" points="1637.49,-14.51 1627.07,-16.42 1636.4,-21.43 1637.49,-14.51"/>
</g>
<!-- Node8 -->
<g id="node8" class="node">
<title>Node8</title>
<g id="a_node8"><a xlink:href="ml__types_8h.html" target="_top" xlink:title="ODP Machine Learning (ML) types.">
<polygon fill="white" stroke="black" points="408,-850.5 408,-869.5 518,-869.5 518,-850.5 408,-850.5"/>
<text text-anchor="middle" x="463" y="-857.5" font-family="Helvetica,sans-Serif" font-size="10.00">odp/api/ml_types.h</text>
</a>
</g>
</g>
<!-- Node2&#45;&gt;Node8 -->
<g id="edge8" class="edge">
<title>Node2&#45;&gt;Node8</title>
<path fill="none" stroke="midnightblue" d="M969.75,-1018.41C908.78,-1001.54 769.78,-962.53 654,-926 598.5,-908.49 534.58,-886.33 496.56,-872.93"/>
<polygon fill="midnightblue" stroke="midnightblue" points="497.6,-869.59 487.01,-869.56 495.27,-876.19 497.6,-869.59"/>
</g>
<!-- Node18 -->
<g id="node18" class="node">
<title>Node18</title>
<g id="a_node18"><a xlink:href="std__types_8h.html" target="_top" xlink:title="Standard C language types and definitions for ODP.">
<polygon fill="white" stroke="black" points="843,-235.5 843,-254.5 955,-254.5 955,-235.5 843,-235.5"/>
<text text-anchor="middle" x="899" y="-242.5" font-family="Helvetica,sans-Serif" font-size="10.00">odp/api/std_types.h</text>
</a>
</g>
</g>
<!-- Node2&#45;&gt;Node18 -->
<g id="edge80" class="edge">
<title>Node2&#45;&gt;Node18</title>
<path fill="none" stroke="midnightblue" d="M1052.98,-1027.17C1186.84,-1026.23 1533,-1014.38 1533,-917 1533,-917 1533,-917 1533,-372.5 1533,-335.31 1542.27,-315.17 1514,-291 1473.01,-255.95 1115.55,-248.2 965.19,-246.49"/>
<polygon fill="midnightblue" stroke="midnightblue" points="965.2,-242.99 955.16,-246.38 965.12,-249.98 965.2,-242.99"/>
</g>
<!-- Node31 -->
<g id="node31" class="node">
<title>Node31</title>
<g id="a_node31"><a xlink:href="pool__types_8h.html" target="_top" xlink:title="ODP pool.">
<polygon fill="white" stroke="black" points="1141,-962.5 1141,-981.5 1259,-981.5 1259,-962.5 1141,-962.5"/>
<text text-anchor="middle" x="1200" y="-969.5" font-family="Helvetica,sans-Serif" font-size="10.00">odp/api/pool_types.h</text>
</a>
</g>
</g>
<!-- Node2&#45;&gt;Node31 -->
<g id="edge51" class="edge">
<title>Node2&#45;&gt;Node31</title>
<path fill="none" stroke="midnightblue" d="M1032.53,-1018.44C1066.59,-1009.2 1121.01,-994.44 1158.52,-984.26"/>
<polygon fill="midnightblue" stroke="midnightblue" points="1159.88,-987.51 1168.62,-981.52 1158.05,-980.76 1159.88,-987.51"/>
</g>
<!-- Node5 -->
<g id="node5" class="node">
<title>Node5</title>
<g id="a_node5"><a xlink:title=" ">
<polygon fill="white" stroke="#bfbfbf" points="194.5,-179.5 194.5,-198.5 337.5,-198.5 337.5,-179.5 194.5,-179.5"/>
<text text-anchor="middle" x="266" y="-186.5" font-family="Helvetica,sans-Serif" font-size="10.00">odp/api/abi/event_types.h</text>
</a>
</g>
</g>
<!-- Node4&#45;&gt;Node5 -->
<g id="edge4" class="edge">
<title>Node4&#45;&gt;Node5</title>
<path fill="none" stroke="midnightblue" d="M266,-235.08C266,-228.01 266,-217.86 266,-208.99"/>
<polygon fill="midnightblue" stroke="midnightblue" points="269.5,-208.75 266,-198.75 262.5,-208.75 269.5,-208.75"/>
</g>
<!-- Node6 -->
<g id="node6" class="node">
<title>Node6</title>
<g id="a_node6"><a xlink:href="spec_2event__types_8h.html" target="_top" xlink:title="ODP event API type definitions.">
<polygon fill="white" stroke="black" points="622.5,-56.5 622.5,-86.5 731.5,-86.5 731.5,-56.5 622.5,-56.5"/>
<text text-anchor="start" x="630.5" y="-74.5" font-family="Helvetica,sans-Serif" font-size="10.00">odp/api/spec/event</text>
<text text-anchor="middle" x="677" y="-63.5" font-family="Helvetica,sans-Serif" font-size="10.00">_types.h</text>
</a>
</g>
</g>
<!-- Node4&#45;&gt;Node6 -->
<g id="edge5" class="edge">
<title>Node4&#45;&gt;Node6</title>
<path fill="none" stroke="midnightblue" d="M286.38,-235.5C350.08,-208.92 546.37,-127.01 633.99,-90.45"/>
<polygon fill="midnightblue" stroke="midnightblue" points="635.5,-93.61 643.38,-86.53 632.8,-87.15 635.5,-93.61"/>
</g>
<!-- Node6&#45;&gt;Node3 -->
<g id="edge6" class="edge">
<title>Node6&#45;&gt;Node3</title>
<path fill="none" stroke="midnightblue" d="M622.5,-56.7C580.92,-46.17 524.42,-31.87 485.77,-22.08"/>
<polygon fill="midnightblue" stroke="midnightblue" points="486.41,-18.63 475.86,-19.57 484.69,-25.42 486.41,-18.63"/>
</g>
<!-- Node6&#45;&gt;Node7 -->
<g id="edge7" class="edge">
<title>Node6&#45;&gt;Node7</title>
<path fill="none" stroke="midnightblue" d="M731.53,-57.35C734.39,-56.85 737.22,-56.39 740,-56 1022.29,-16.17 1363.09,-11.01 1504.51,-10.73"/>
<polygon fill="midnightblue" stroke="midnightblue" points="1504.75,-14.23 1514.75,-10.72 1504.75,-7.23 1504.75,-14.23"/>
</g>
<!-- Node9 -->
<g id="node9" class="node">
<title>Node9</title>
<g id="a_node9"><a xlink:title=" ">
<polygon fill="white" stroke="#bfbfbf" points="307,-794.5 307,-813.5 435,-813.5 435,-794.5 307,-794.5"/>
<text text-anchor="middle" x="371" y="-801.5" font-family="Helvetica,sans-Serif" font-size="10.00">odp/api/abi/ml_types.h</text>
</a>
</g>
</g>
<!-- Node8&#45;&gt;Node9 -->
<g id="edge9" class="edge">
<title>Node8&#45;&gt;Node9</title>
<path fill="none" stroke="midnightblue" d="M448.22,-850.32C433.73,-841.82 411.43,-828.73 394.51,-818.8"/>
<polygon fill="midnightblue" stroke="midnightblue" points="396.14,-815.7 385.74,-813.65 392.6,-821.74 396.14,-815.7"/>
</g>
<!-- Node10 -->
<g id="node10" class="node">
<title>Node10</title>
<g id="a_node10"><a xlink:href="spec_2ml__types_8h.html" target="_top" xlink:title="ODP Machine Learning (ML) types.">
<polygon fill="white" stroke="black" points="373.5,-677 373.5,-696 508.5,-696 508.5,-677 373.5,-677"/>
<text text-anchor="middle" x="441" y="-684" font-family="Helvetica,sans-Serif" font-size="10.00">odp/api/spec/ml_types.h</text>
</a>
</g>
</g>
<!-- Node8&#45;&gt;Node10 -->
<g id="edge10" class="edge">
<title>Node8&#45;&gt;Node10</title>
<path fill="none" stroke="midnightblue" d="M461.88,-850.26C458.47,-823.65 448.15,-743.21 443.42,-706.34"/>
<polygon fill="midnightblue" stroke="midnightblue" points="446.84,-705.49 442.09,-696.02 439.89,-706.38 446.84,-705.49"/>
</g>
<!-- Node10&#45;&gt;Node3 -->
<g id="edge11" class="edge">
<title>Node10&#45;&gt;Node3</title>
<path fill="none" stroke="midnightblue" d="M373.24,-685.45C287.82,-681.4 152,-659.96 152,-564.5 152,-564.5 152,-564.5 152,-372.5 152,-222.68 139.39,-132.85 268,-56 299.19,-37.36 338.01,-26.37 371.06,-19.92"/>
<polygon fill="midnightblue" stroke="midnightblue" points="371.92,-23.32 381.12,-18.06 370.65,-16.44 371.92,-23.32"/>
</g>
<!-- Node10&#45;&gt;Node4 -->
<g id="edge12" class="edge">
<title>Node10&#45;&gt;Node4</title>
<path fill="none" stroke="midnightblue" d="M378.82,-676.99C315.95,-664.47 228,-634.46 228,-564.5 228,-564.5 228,-564.5 228,-372.5 228,-332.35 245.78,-287.95 257.01,-263.89"/>
<polygon fill="midnightblue" stroke="midnightblue" points="260.29,-265.15 261.49,-254.63 253.99,-262.1 260.29,-265.15"/>
</g>
<!-- Node10&#45;&gt;Node7 -->
<g id="edge50" class="edge">
<title>Node10&#45;&gt;Node7</title>
<path fill="none" stroke="midnightblue" d="M508.59,-679.33C601.28,-668.81 771.22,-642.06 902,-579 921.94,-569.38 921.06,-557.63 941,-548 1004.68,-517.24 1027.21,-528.43 1096,-512 1197.49,-487.75 1224.09,-486.08 1324,-456 1475.29,-410.45 1647,-465.5 1647,-307.5 1647,-307.5 1647,-307.5 1647,-132 1647,-88.48 1611.3,-47.77 1588.84,-26.47"/>
<polygon fill="midnightblue" stroke="midnightblue" points="1590.99,-23.7 1581.25,-19.53 1586.27,-28.86 1590.99,-23.7"/>
</g>
<!-- Node11 -->
<g id="node11" class="node">
<title>Node11</title>
<g id="a_node11"><a xlink:href="queue__types_8h.html" target="_top" xlink:title="ODP queue.">
<polygon fill="white" stroke="black" points="833.5,-615.5 833.5,-634.5 960.5,-634.5 960.5,-615.5 833.5,-615.5"/>
<text text-anchor="middle" x="897" y="-622.5" font-family="Helvetica,sans-Serif" font-size="10.00">odp/api/queue_types.h</text>
</a>
</g>
</g>
<!-- Node10&#45;&gt;Node11 -->
<g id="edge13" class="edge">
<title>Node10&#45;&gt;Node11</title>
<path fill="none" stroke="midnightblue" d="M506.33,-676.98C590.19,-666.03 735.31,-647.1 823.11,-635.64"/>
<polygon fill="midnightblue" stroke="midnightblue" points="823.79,-639.08 833.26,-634.32 822.89,-632.14 823.79,-639.08"/>
</g>
<!-- Node10&#45;&gt;Node18 -->
<g id="edge49" class="edge">
<title>Node10&#45;&gt;Node18</title>
<path fill="none" stroke="midnightblue" d="M439.9,-676.71C437.49,-656.78 432,-606.63 432,-564.5 432,-564.5 432,-564.5 432,-501 432,-397.62 448.12,-351.42 532,-291 544.04,-282.33 730.14,-262.71 832.58,-252.48"/>
<polygon fill="midnightblue" stroke="midnightblue" points="833.23,-255.93 842.83,-251.46 832.53,-248.97 833.23,-255.93"/>
</g>
<!-- Node12 -->
<g id="node12" class="node">
<title>Node12</title>
<g id="a_node12"><a xlink:title=" ">
<polygon fill="white" stroke="#bfbfbf" points="950.5,-554 950.5,-573 1095.5,-573 1095.5,-554 950.5,-554"/>
<text text-anchor="middle" x="1023" y="-561" font-family="Helvetica,sans-Serif" font-size="10.00">odp/api/abi/queue_types.h</text>
</a>
</g>
</g>
<!-- Node11&#45;&gt;Node12 -->
<g id="edge14" class="edge">
<title>Node11&#45;&gt;Node12</title>
<path fill="none" stroke="midnightblue" d="M915.05,-615.48C936.2,-605.49 971.44,-588.85 995.88,-577.31"/>
<polygon fill="midnightblue" stroke="midnightblue" points="997.43,-580.44 1004.98,-573.01 994.44,-574.11 997.43,-580.44"/>
</g>
<!-- Node13 -->
<g id="node13" class="node">
<title>Node13</title>
<g id="a_node13"><a xlink:href="spec_2queue__types_8h.html" target="_top" xlink:title="ODP queue types.">
<polygon fill="white" stroke="black" points="782.5,-548.5 782.5,-578.5 893.5,-578.5 893.5,-548.5 782.5,-548.5"/>
<text text-anchor="start" x="790.5" y="-566.5" font-family="Helvetica,sans-Serif" font-size="10.00">odp/api/spec/queue</text>
<text text-anchor="middle" x="838" y="-555.5" font-family="Helvetica,sans-Serif" font-size="10.00">_types.h</text>
</a>
</g>
</g>
<!-- Node11&#45;&gt;Node13 -->
<g id="edge15" class="edge">
<title>Node11&#45;&gt;Node13</title>
<path fill="none" stroke="midnightblue" d="M888.55,-615.48C880.85,-607.72 869.18,-595.94 858.99,-585.66"/>
<polygon fill="midnightblue" stroke="midnightblue" points="861.43,-583.16 851.91,-578.52 856.46,-588.09 861.43,-583.16"/>
</g>
<!-- Node13&#45;&gt;Node3 -->
<g id="edge16" class="edge">
<title>Node13&#45;&gt;Node3</title>
<path fill="none" stroke="midnightblue" d="M782.37,-555.6C651.89,-536.06 327.19,-467.25 194,-255 175.92,-226.19 169.66,-209.36 185,-179 229.19,-91.57 342.37,-43.09 402.72,-22.7"/>
<polygon fill="midnightblue" stroke="midnightblue" points="403.88,-26 412.29,-19.55 401.69,-19.35 403.88,-26"/>
</g>
<!-- Node13&#45;&gt;Node7 -->
<g id="edge48" class="edge">
<title>Node13&#45;&gt;Node7</title>
<path fill="none" stroke="midnightblue" d="M893.62,-549.13C1026.01,-516.97 1356.55,-434.57 1461,-389 1544.84,-352.43 1609,-337.47 1609,-246 1609,-246 1609,-246 1609,-132 1609,-93.81 1591.56,-51.83 1580.31,-28.72"/>
<polygon fill="midnightblue" stroke="midnightblue" points="1583.29,-26.86 1575.66,-19.52 1577.04,-30.02 1583.29,-26.86"/>
</g>
<!-- Node14 -->
<g id="node14" class="node">
<title>Node14</title>
<g id="a_node14"><a xlink:href="event__vector__types_8h.html" target="_top" xlink:title="ODP event vector API type definitions.">
<polygon fill="white" stroke="black" points="708.5,-358.5 708.5,-388.5 827.5,-388.5 827.5,-358.5 708.5,-358.5"/>
<text text-anchor="start" x="716.5" y="-376.5" font-family="Helvetica,sans-Serif" font-size="10.00">odp/api/event_vector</text>
<text text-anchor="middle" x="768" y="-365.5" font-family="Helvetica,sans-Serif" font-size="10.00">_types.h</text>
</a>
</g>
</g>
<!-- Node13&#45;&gt;Node14 -->
<g id="edge17" class="edge">
<title>Node13&#45;&gt;Node14</title>
<path fill="none" stroke="midnightblue" d="M825.33,-548.45C817.27,-538.83 807.21,-525.41 801,-512 783.69,-474.64 774.89,-427.21 770.89,-398.94"/>
<polygon fill="midnightblue" stroke="midnightblue" points="774.32,-398.22 769.54,-388.77 767.39,-399.14 774.32,-398.22"/>
</g>
<!-- Node25 -->
<g id="node25" class="node">
<title>Node25</title>
<g id="a_node25"><a xlink:href="schedule__types_8h.html" target="_top" xlink:title="ODP schedule.">
<polygon fill="white" stroke="black" points="810,-492.5 810,-511.5 950,-511.5 950,-492.5 810,-492.5"/>
<text text-anchor="middle" x="880" y="-499.5" font-family="Helvetica,sans-Serif" font-size="10.00">odp/api/schedule_types.h</text>
</a>
</g>
</g>
<!-- Node13&#45;&gt;Node25 -->
<g id="edge35" class="edge">
<title>Node13&#45;&gt;Node25</title>
<path fill="none" stroke="midnightblue" d="M847.95,-548.4C853.99,-539.84 861.74,-528.87 868.1,-519.86"/>
<polygon fill="midnightblue" stroke="midnightblue" points="870.98,-521.85 873.89,-511.66 865.26,-517.81 870.98,-521.85"/>
</g>
<!-- Node15 -->
<g id="node15" class="node">
<title>Node15</title>
<g id="a_node15"><a xlink:title=" ">
<polygon fill="white" stroke="#bfbfbf" points="574.5,-291.5 574.5,-321.5 711.5,-321.5 711.5,-291.5 574.5,-291.5"/>
<text text-anchor="start" x="582.5" y="-309.5" font-family="Helvetica,sans-Serif" font-size="10.00">odp/api/abi/event_vector</text>
<text text-anchor="middle" x="643" y="-298.5" font-family="Helvetica,sans-Serif" font-size="10.00">_types.h</text>
</a>
</g>
</g>
<!-- Node14&#45;&gt;Node15 -->
<g id="edge18" class="edge">
<title>Node14&#45;&gt;Node15</title>
<path fill="none" stroke="midnightblue" d="M740.88,-358.4C722.78,-348.98 698.77,-336.5 679.07,-326.26"/>
<polygon fill="midnightblue" stroke="midnightblue" points="680.56,-323.08 670.07,-321.58 677.33,-329.3 680.56,-323.08"/>
</g>
<!-- Node16 -->
<g id="node16" class="node">
<title>Node16</title>
<g id="a_node16"><a xlink:title=" ">
<polygon fill="white" stroke="#bfbfbf" points="730,-297 730,-316 866,-316 866,-297 730,-297"/>
<text text-anchor="middle" x="798" y="-304" font-family="Helvetica,sans-Serif" font-size="10.00">odp/api/abi/pool_types.h</text>
</a>
</g>
</g>
<!-- Node14&#45;&gt;Node16 -->
<g id="edge19" class="edge">
<title>Node14&#45;&gt;Node16</title>
<path fill="none" stroke="midnightblue" d="M774.51,-358.4C778.96,-348.76 784.89,-335.91 789.68,-325.54"/>
<polygon fill="midnightblue" stroke="midnightblue" points="792.97,-326.74 793.99,-316.19 786.62,-323.81 792.97,-326.74"/>
</g>
<!-- Node17 -->
<g id="node17" class="node">
<title>Node17</title>
<g id="a_node17"><a xlink:href="spec_2event__vector__types_8h.html" target="_top" xlink:title="ODP event vector API type definitions.">
<polygon fill="white" stroke="black" points="370.5,-291.5 370.5,-321.5 479.5,-321.5 479.5,-291.5 370.5,-291.5"/>
<text text-anchor="start" x="378.5" y="-309.5" font-family="Helvetica,sans-Serif" font-size="10.00">odp/api/spec/event</text>
<text text-anchor="middle" x="425" y="-298.5" font-family="Helvetica,sans-Serif" font-size="10.00">_vector_types.h</text>
</a>
</g>
</g>
<!-- Node14&#45;&gt;Node17 -->
<g id="edge20" class="edge">
<title>Node14&#45;&gt;Node17</title>
<path fill="none" stroke="midnightblue" d="M708.25,-361.18C647.16,-349.6 552.57,-331.67 489.73,-319.77"/>
<polygon fill="midnightblue" stroke="midnightblue" points="490.02,-316.26 479.54,-317.84 488.71,-323.14 490.02,-316.26"/>
</g>
<!-- Node17&#45;&gt;Node3 -->
<g id="edge21" class="edge">
<title>Node17&#45;&gt;Node3</title>
<path fill="none" stroke="midnightblue" d="M436.93,-291.23C453.11,-270.38 480,-229.76 480,-190 480,-190 480,-190 480,-132 480,-93.81 462.56,-51.83 451.31,-28.72"/>
<polygon fill="midnightblue" stroke="midnightblue" points="454.29,-26.86 446.66,-19.52 448.04,-30.02 454.29,-26.86"/>
</g>
<!-- Node17&#45;&gt;Node4 -->
<g id="edge22" class="edge">
<title>Node17&#45;&gt;Node4</title>
<path fill="none" stroke="midnightblue" d="M387.32,-291.4C360.4,-281.33 324.55,-267.91 298.81,-258.28"/>
<polygon fill="midnightblue" stroke="midnightblue" points="299.73,-254.88 289.14,-254.66 297.27,-261.44 299.73,-254.88"/>
</g>
<!-- Node17&#45;&gt;Node7 -->
<g id="edge34" class="edge">
<title>Node17&#45;&gt;Node7</title>
<path fill="none" stroke="midnightblue" d="M479.59,-293.9C484.46,-292.9 489.32,-291.92 494,-291 604.41,-269.2 884.98,-233.8 992,-199 1132.08,-153.45 1150.39,-99.92 1291,-56 1362.27,-33.74 1447.35,-22.06 1504.88,-16.24"/>
<polygon fill="midnightblue" stroke="midnightblue" points="1505.32,-19.71 1514.93,-15.25 1504.64,-12.75 1505.32,-19.71"/>
</g>
<!-- Node17&#45;&gt;Node18 -->
<g id="edge23" class="edge">
<title>Node17&#45;&gt;Node18</title>
<path fill="none" stroke="midnightblue" d="M479.52,-293.52C484.4,-292.6 489.28,-291.75 494,-291 641.9,-267.57 680.29,-272.55 829,-255 830.27,-254.85 831.55,-254.7 832.83,-254.54"/>
<polygon fill="midnightblue" stroke="midnightblue" points="833.35,-258.01 842.85,-253.32 832.5,-251.06 833.35,-258.01"/>
</g>
<!-- Node19 -->
<g id="node19" class="node">
<title>Node19</title>
<g id="a_node19"><a xlink:title=" ">
<polygon fill="white" stroke="#bfbfbf" points="660,-179.5 660,-198.5 790,-198.5 790,-179.5 660,-179.5"/>
<text text-anchor="middle" x="725" y="-186.5" font-family="Helvetica,sans-Serif" font-size="10.00">odp/api/abi/std_types.h</text>
</a>
</g>
</g>
<!-- Node18&#45;&gt;Node19 -->
<g id="edge24" class="edge">
<title>Node18&#45;&gt;Node19</title>
<path fill="none" stroke="midnightblue" d="M871.43,-235.44C841.9,-226.28 794.88,-211.69 762.12,-201.52"/>
<polygon fill="midnightblue" stroke="midnightblue" points="763.03,-198.14 752.44,-198.52 760.96,-204.82 763.03,-198.14"/>
</g>
<!-- Node20 -->
<g id="node20" class="node">
<title>Node20</title>
<g id="a_node20"><a xlink:href="spec_2std__types_8h.html" target="_top" xlink:title="Common types and definitions for ODP API files.">
<polygon fill="white" stroke="black" points="846.5,-179.5 846.5,-198.5 983.5,-198.5 983.5,-179.5 846.5,-179.5"/>
<text text-anchor="middle" x="915" y="-186.5" font-family="Helvetica,sans-Serif" font-size="10.00">odp/api/spec/std_types.h</text>
</a>
</g>
</g>
<!-- Node18&#45;&gt;Node20 -->
<g id="edge25" class="edge">
<title>Node18&#45;&gt;Node20</title>
<path fill="none" stroke="midnightblue" d="M901.64,-235.08C903.79,-227.85 906.88,-217.41 909.55,-208.4"/>
<polygon fill="midnightblue" stroke="midnightblue" points="912.92,-209.33 912.41,-198.75 906.21,-207.34 912.92,-209.33"/>
</g>
<!-- Node20&#45;&gt;Node3 -->
<g id="edge26" class="edge">
<title>Node20&#45;&gt;Node3</title>
<path fill="none" stroke="midnightblue" d="M877.78,-179.42C819.3,-165.11 703.28,-133.28 613,-87 592.03,-76.25 590.88,-66.91 570,-56 542.63,-41.7 509.72,-30.25 484.13,-22.47"/>
<polygon fill="midnightblue" stroke="midnightblue" points="484.94,-19.06 474.35,-19.57 482.95,-25.77 484.94,-19.06"/>
</g>
<!-- Node20&#45;&gt;Node7 -->
<g id="edge33" class="edge">
<title>Node20&#45;&gt;Node7</title>
<path fill="none" stroke="midnightblue" d="M930.05,-179.44C943.75,-171.21 964.07,-157.84 979,-143 1012.68,-109.53 999.75,-79.52 1041,-56 1080.39,-33.54 1371.24,-19.06 1504.57,-13.53"/>
<polygon fill="midnightblue" stroke="midnightblue" points="1504.81,-17.02 1514.66,-13.12 1504.52,-10.03 1504.81,-17.02"/>
</g>
<!-- Node21 -->
<g id="node21" class="node">
<title>Node21</title>
<g id="a_node21"><a xlink:title=" ">
<polygon fill="white" stroke="#bfbfbf" points="810.5,-123.5 810.5,-142.5 863.5,-142.5 863.5,-123.5 810.5,-123.5"/>
<text text-anchor="middle" x="837" y="-130.5" font-family="Helvetica,sans-Serif" font-size="10.00">stdint.h</text>
</a>
</g>
</g>
<!-- Node20&#45;&gt;Node21 -->
<g id="edge27" class="edge">
<title>Node20&#45;&gt;Node21</title>
<path fill="none" stroke="midnightblue" d="M902.47,-179.32C890.41,-170.98 871.97,-158.21 857.73,-148.35"/>
<polygon fill="midnightblue" stroke="midnightblue" points="859.72,-145.47 849.5,-142.65 855.73,-151.22 859.72,-145.47"/>
</g>
<!-- Node22 -->
<g id="node22" class="node">
<title>Node22</title>
<g id="a_node22"><a xlink:href="align_8h.html" target="_top" xlink:title="ODP alignments.">
<polygon fill="white" stroke="black" points="881.5,-123.5 881.5,-142.5 970.5,-142.5 970.5,-123.5 881.5,-123.5"/>
<text text-anchor="middle" x="926" y="-130.5" font-family="Helvetica,sans-Serif" font-size="10.00">odp/api/align.h</text>
</a>
</g>
</g>
<!-- Node20&#45;&gt;Node22 -->
<g id="edge28" class="edge">
<title>Node20&#45;&gt;Node22</title>
<path fill="none" stroke="midnightblue" d="M916.82,-179.08C918.27,-171.93 920.37,-161.64 922.19,-152.69"/>
<polygon fill="midnightblue" stroke="midnightblue" points="925.65,-153.25 924.22,-142.75 918.79,-151.85 925.65,-153.25"/>
</g>
<!-- Node23 -->
<g id="node23" class="node">
<title>Node23</title>
<g id="a_node23"><a xlink:title=" ">
<polygon fill="white" stroke="#bfbfbf" points="749.5,-62 749.5,-81 856.5,-81 856.5,-62 749.5,-62"/>
<text text-anchor="middle" x="803" y="-69" font-family="Helvetica,sans-Serif" font-size="10.00">odp/api/abi/align.h</text>
</a>
</g>
</g>
<!-- Node22&#45;&gt;Node23 -->
<g id="edge29" class="edge">
<title>Node22&#45;&gt;Node23</title>
<path fill="none" stroke="midnightblue" d="M908.38,-123.48C887.83,-113.53 853.64,-96.99 829.79,-85.46"/>
<polygon fill="midnightblue" stroke="midnightblue" points="831.12,-82.21 820.59,-81.01 828.07,-88.51 831.12,-82.21"/>
</g>
<!-- Node24 -->
<g id="node24" class="node">
<title>Node24</title>
<g id="a_node24"><a xlink:href="spec_2align_8h.html" target="_top" xlink:title="ODP alignments.">
<polygon fill="white" stroke="black" points="875,-62 875,-81 989,-81 989,-62 875,-62"/>
<text text-anchor="middle" x="932" y="-69" font-family="Helvetica,sans-Serif" font-size="10.00">odp/api/spec/align.h</text>
</a>
</g>
</g>
<!-- Node22&#45;&gt;Node24 -->
<g id="edge30" class="edge">
<title>Node22&#45;&gt;Node24</title>
<path fill="none" stroke="midnightblue" d="M926.86,-123.48C927.71,-115.08 929.03,-101.98 930.12,-91.16"/>
<polygon fill="midnightblue" stroke="midnightblue" points="933.62,-91.31 931.14,-81.01 926.66,-90.61 933.62,-91.31"/>
</g>
<!-- Node24&#45;&gt;Node3 -->
<g id="edge31" class="edge">
<title>Node24&#45;&gt;Node3</title>
<path fill="none" stroke="midnightblue" d="M895.97,-61.96C885.98,-59.8 875.11,-57.63 865,-56 741.81,-36.18 596.98,-22.92 512.73,-16.19"/>
<polygon fill="midnightblue" stroke="midnightblue" points="512.76,-12.69 502.51,-15.39 512.21,-19.66 512.76,-12.69"/>
</g>
<!-- Node24&#45;&gt;Node7 -->
<g id="edge32" class="edge">
<title>Node24&#45;&gt;Node7</title>
<path fill="none" stroke="midnightblue" d="M969.44,-61.96C980.22,-59.74 992.04,-57.55 1003,-56 1183.34,-30.54 1398.08,-18.42 1504.46,-13.63"/>
<polygon fill="midnightblue" stroke="midnightblue" points="1504.88,-17.11 1514.72,-13.17 1504.57,-10.12 1504.88,-17.11"/>
</g>
<!-- Node26 -->
<g id="node26" class="node">
<title>Node26</title>
<g id="a_node26"><a xlink:title=" ">
<polygon fill="white" stroke="#bfbfbf" points="960.5,-425.5 960.5,-455.5 1077.5,-455.5 1077.5,-425.5 960.5,-425.5"/>
<text text-anchor="start" x="968.5" y="-443.5" font-family="Helvetica,sans-Serif" font-size="10.00">odp/api/abi/schedule</text>
<text text-anchor="middle" x="1019" y="-432.5" font-family="Helvetica,sans-Serif" font-size="10.00">_types.h</text>
</a>
</g>
</g>
<!-- Node25&#45;&gt;Node26 -->
<g id="edge36" class="edge">
<title>Node25&#45;&gt;Node26</title>
<path fill="none" stroke="midnightblue" d="M899.92,-492.48C919.88,-483.93 951.25,-470.5 976.78,-459.57"/>
<polygon fill="midnightblue" stroke="midnightblue" points="978.42,-462.68 986.24,-455.52 975.67,-456.24 978.42,-462.68"/>
</g>
<!-- Node27 -->
<g id="node27" class="node">
<title>Node27</title>
<g id="a_node27"><a xlink:href="spec_2schedule__types_8h.html" target="_top" xlink:title="ODP schedule types.">
<polygon fill="white" stroke="black" points="817.5,-425.5 817.5,-455.5 942.5,-455.5 942.5,-425.5 817.5,-425.5"/>
<text text-anchor="start" x="825.5" y="-443.5" font-family="Helvetica,sans-Serif" font-size="10.00">odp/api/spec/schedule</text>
<text text-anchor="middle" x="880" y="-432.5" font-family="Helvetica,sans-Serif" font-size="10.00">_types.h</text>
</a>
</g>
</g>
<!-- Node25&#45;&gt;Node27 -->
<g id="edge37" class="edge">
<title>Node25&#45;&gt;Node27</title>
<path fill="none" stroke="midnightblue" d="M880,-492.48C880,-485.47 880,-475.19 880,-465.7"/>
<polygon fill="midnightblue" stroke="midnightblue" points="883.5,-465.52 880,-455.52 876.5,-465.52 883.5,-465.52"/>
</g>
<!-- Node27&#45;&gt;Node3 -->
<g id="edge38" class="edge">
<title>Node27&#45;&gt;Node3</title>
<path fill="none" stroke="midnightblue" d="M828.41,-425.48C792.14,-415.54 742.52,-401.75 699,-389 653.94,-375.8 643.78,-368.44 598,-358 546.06,-346.15 395.72,-362.4 361,-322 352.02,-311.55 355.91,-303.8 361,-291 369.13,-270.55 383.06,-273.49 395,-255 409.59,-232.4 411.13,-225.01 418,-199 433.94,-138.67 439.43,-64.56 441.21,-30.19"/>
<polygon fill="midnightblue" stroke="midnightblue" points="444.73,-29.93 441.7,-19.78 437.73,-29.6 444.73,-29.93"/>
</g>
<!-- Node27&#45;&gt;Node7 -->
<g id="edge47" class="edge">
<title>Node27&#45;&gt;Node7</title>
<path fill="none" stroke="midnightblue" d="M942.65,-426.28C945.47,-425.82 948.26,-425.39 951,-425 1149.66,-396.87 1209.77,-449.73 1401,-389 1495.1,-359.11 1571,-344.73 1571,-246 1571,-246 1571,-246 1571,-132 1571,-95.71 1571,-53.31 1571,-29.56"/>
<polygon fill="midnightblue" stroke="midnightblue" points="1574.5,-29.51 1571,-19.51 1567.5,-29.51 1574.5,-29.51"/>
</g>
<!-- Node27&#45;&gt;Node14 -->
<g id="edge39" class="edge">
<title>Node27&#45;&gt;Node14</title>
<path fill="none" stroke="midnightblue" d="M855.7,-425.4C839.7,-416.11 818.56,-403.84 801.04,-393.67"/>
<polygon fill="midnightblue" stroke="midnightblue" points="802.66,-390.57 792.25,-388.58 799.15,-396.62 802.66,-390.57"/>
</g>
<!-- Node27&#45;&gt;Node18 -->
<g id="edge40" class="edge">
<title>Node27&#45;&gt;Node18</title>
<path fill="none" stroke="midnightblue" d="M881.4,-425.27C884.77,-390.94 893.35,-303.57 897.14,-264.9"/>
<polygon fill="midnightblue" stroke="midnightblue" points="900.66,-264.87 898.16,-254.58 893.7,-264.19 900.66,-264.87"/>
</g>
<!-- Node28 -->
<g id="node28" class="node">
<title>Node28</title>
<g id="a_node28"><a xlink:href="thrmask_8h.html" target="_top" xlink:title="ODP thread masks.">
<polygon fill="white" stroke="black" points="931.5,-364 931.5,-383 1036.5,-383 1036.5,-364 931.5,-364"/>
<text text-anchor="middle" x="984" y="-371" font-family="Helvetica,sans-Serif" font-size="10.00">odp/api/thrmask.h</text>
</a>
</g>
</g>
<!-- Node27&#45;&gt;Node28 -->
<g id="edge41" class="edge">
<title>Node27&#45;&gt;Node28</title>
<path fill="none" stroke="midnightblue" d="M902.57,-425.4C920.01,-414.5 944.03,-399.48 961.47,-388.58"/>
<polygon fill="midnightblue" stroke="midnightblue" points="963.76,-391.28 970.39,-383.01 960.05,-385.34 963.76,-391.28"/>
</g>
<!-- Node29 -->
<g id="node29" class="node">
<title>Node29</title>
<g id="a_node29"><a xlink:title=" ">
<polygon fill="white" stroke="#bfbfbf" points="922.5,-297 922.5,-316 1045.5,-316 1045.5,-297 922.5,-297"/>
<text text-anchor="middle" x="984" y="-304" font-family="Helvetica,sans-Serif" font-size="10.00">odp/api/abi/thrmask.h</text>
</a>
</g>
</g>
<!-- Node28&#45;&gt;Node29 -->
<g id="edge42" class="edge">
<title>Node28&#45;&gt;Node29</title>
<path fill="none" stroke="midnightblue" d="M984,-363.73C984,-354.18 984,-338.62 984,-326.28"/>
<polygon fill="midnightblue" stroke="midnightblue" points="987.5,-326.13 984,-316.13 980.5,-326.13 987.5,-326.13"/>
</g>
<!-- Node30 -->
<g id="node30" class="node">
<title>Node30</title>
<g id="a_node30"><a xlink:href="spec_2thrmask_8h.html" target="_top" xlink:title="ODP thread masks.">
<polygon fill="white" stroke="black" points="1063.5,-297 1063.5,-316 1194.5,-316 1194.5,-297 1063.5,-297"/>
<text text-anchor="middle" x="1129" y="-304" font-family="Helvetica,sans-Serif" font-size="10.00">odp/api/spec/thrmask.h</text>
</a>
</g>
</g>
<!-- Node28&#45;&gt;Node30 -->
<g id="edge43" class="edge">
<title>Node28&#45;&gt;Node30</title>
<path fill="none" stroke="midnightblue" d="M1003.25,-363.87C1028.17,-352.7 1071.79,-333.15 1100.53,-320.26"/>
<polygon fill="midnightblue" stroke="midnightblue" points="1101.97,-323.45 1109.67,-316.17 1099.11,-317.06 1101.97,-323.45"/>
</g>
<!-- Node30&#45;&gt;Node3 -->
<g id="edge44" class="edge">
<title>Node30&#45;&gt;Node3</title>
<path fill="none" stroke="midnightblue" d="M1085.81,-296.93C1075.4,-294.93 1064.31,-292.84 1054,-291 934.68,-269.71 518,-311.21 518,-190 518,-190 518,-190 518,-132 518,-88.48 482.3,-47.77 459.84,-26.47"/>
<polygon fill="midnightblue" stroke="midnightblue" points="461.99,-23.7 452.25,-19.53 457.27,-28.86 461.99,-23.7"/>
</g>
<!-- Node30&#45;&gt;Node7 -->
<g id="edge46" class="edge">
<title>Node30&#45;&gt;Node7</title>
<path fill="none" stroke="midnightblue" d="M1151.53,-296.94C1187.77,-281.54 1255,-245.49 1255,-190 1255,-190 1255,-190 1255,-132 1255,-77.85 1418.85,-38.95 1510.58,-21.41"/>
<polygon fill="midnightblue" stroke="midnightblue" points="1511.4,-24.81 1520.58,-19.53 1510.1,-17.94 1511.4,-24.81"/>
</g>
<!-- Node30&#45;&gt;Node18 -->
<g id="edge45" class="edge">
<title>Node30&#45;&gt;Node18</title>
<path fill="none" stroke="midnightblue" d="M1096.05,-296.98C1055.4,-286.46 986.21,-268.56 941.58,-257.01"/>
<polygon fill="midnightblue" stroke="midnightblue" points="942.45,-253.63 931.89,-254.51 940.7,-260.4 942.45,-253.63"/>
</g>
<!-- Node31&#45;&gt;Node16 -->
<g id="edge52" class="edge">
<title>Node31&#45;&gt;Node16</title>
<path fill="none" stroke="midnightblue" d="M1250.67,-962.46C1333.55,-947.04 1489,-911.4 1489,-861 1489,-861 1489,-861 1489,-803 1489,-681.26 1474.57,-634.59 1389,-548 1286.84,-444.62 1224.81,-468.07 1086,-425 1014.73,-402.89 990.77,-417.98 922,-389 881.16,-371.79 839.22,-340.91 816.09,-322.5"/>
<polygon fill="midnightblue" stroke="midnightblue" points="818.17,-319.68 808.19,-316.11 813.77,-325.12 818.17,-319.68"/>
</g>
<!-- Node32 -->
<g id="node32" class="node">
<title>Node32</title>
<g id="a_node32"><a xlink:href="spec_2pool__types_8h.html" target="_top" xlink:title="Type definitions for pools.">
<polygon fill="white" stroke="black" points="663.5,-906.5 663.5,-925.5 806.5,-925.5 806.5,-906.5 663.5,-906.5"/>
<text text-anchor="middle" x="735" y="-913.5" font-family="Helvetica,sans-Serif" font-size="10.00">odp/api/spec/pool_types.h</text>
</a>
</g>
</g>
<!-- Node31&#45;&gt;Node32 -->
<g id="edge53" class="edge">
<title>Node31&#45;&gt;Node32</title>
<path fill="none" stroke="midnightblue" d="M1140.64,-964.11C1058.39,-954.56 909.47,-937.26 816.76,-926.49"/>
<polygon fill="midnightblue" stroke="midnightblue" points="816.91,-922.99 806.57,-925.31 816.1,-929.94 816.91,-922.99"/>
</g>
<!-- Node32&#45;&gt;Node3 -->
<g id="edge54" class="edge">
<title>Node32&#45;&gt;Node3</title>
<path fill="none" stroke="midnightblue" d="M663.22,-910.46C492.42,-898.71 76,-864.01 76,-805 76,-805 76,-805 76,-562.5 76,-477.25 38,-459.75 38,-374.5 38,-374.5 38,-374.5 38,-132 38,-85.16 69.25,-77.22 111,-56 155.17,-33.55 287.84,-21.02 371.19,-15.17"/>
<polygon fill="midnightblue" stroke="midnightblue" points="371.62,-18.65 381.35,-14.47 371.14,-11.67 371.62,-18.65"/>
</g>
<!-- Node32&#45;&gt;Node7 -->
<g id="edge79" class="edge">
<title>Node32&#45;&gt;Node7</title>
<path fill="none" stroke="midnightblue" d="M784.14,-906.47C988.56,-869.6 1761,-716.18 1761,-503 1761,-503 1761,-503 1761,-132 1761,-92.05 1744.63,-80.41 1713,-56 1691.13,-39.12 1662.79,-28.5 1637.18,-21.84"/>
<polygon fill="midnightblue" stroke="midnightblue" points="1637.69,-18.36 1627.15,-19.4 1636.04,-25.17 1637.69,-18.36"/>
</g>
<!-- Node32&#45;&gt;Node8 -->
<g id="edge78" class="edge">
<title>Node32&#45;&gt;Node8</title>
<path fill="none" stroke="midnightblue" d="M691.9,-906.44C644.15,-896.96 567.14,-881.67 515.81,-871.48"/>
<polygon fill="midnightblue" stroke="midnightblue" points="516.39,-868.03 505.9,-869.52 515.02,-874.9 516.39,-868.03"/>
</g>
<!-- Node32&#45;&gt;Node18 -->
<g id="edge55" class="edge">
<title>Node32&#45;&gt;Node18</title>
<path fill="none" stroke="midnightblue" d="M678.29,-906.5C622.62,-894.56 546,-866.88 546,-805 546,-805 546,-805 546,-372.5 546,-335.31 537.48,-316.02 565,-291 574.82,-282.08 738.41,-263.21 832.93,-252.96"/>
<polygon fill="midnightblue" stroke="midnightblue" points="833.41,-256.43 842.98,-251.88 832.66,-249.47 833.41,-256.43"/>
</g>
<!-- Node33 -->
<g id="node33" class="node">
<title>Node33</title>
<g id="a_node33"><a xlink:href="dma__types_8h.html" target="_top" xlink:title="ODP DMA.">
<polygon fill="white" stroke="black" points="765.5,-850.5 765.5,-869.5 884.5,-869.5 884.5,-850.5 765.5,-850.5"/>
<text text-anchor="middle" x="825" y="-857.5" font-family="Helvetica,sans-Serif" font-size="10.00">odp/api/dma_types.h</text>
</a>
</g>
</g>
<!-- Node32&#45;&gt;Node33 -->
<g id="edge56" class="edge">
<title>Node32&#45;&gt;Node33</title>
<path fill="none" stroke="midnightblue" d="M749.46,-906.32C763.5,-897.9 785.05,-884.97 801.54,-875.07"/>
<polygon fill="midnightblue" stroke="midnightblue" points="803.8,-877.8 810.58,-869.65 800.2,-871.8 803.8,-877.8"/>
</g>
<!-- Node34 -->
<g id="node34" class="node">
<title>Node34</title>
<g id="a_node34"><a xlink:title=" ">
<polygon fill="white" stroke="#bfbfbf" points="756.5,-794.5 756.5,-813.5 893.5,-813.5 893.5,-794.5 756.5,-794.5"/>
<text text-anchor="middle" x="825" y="-801.5" font-family="Helvetica,sans-Serif" font-size="10.00">odp/api/abi/dma_types.h</text>
</a>
</g>
</g>
<!-- Node33&#45;&gt;Node34 -->
<g id="edge57" class="edge">
<title>Node33&#45;&gt;Node34</title>
<path fill="none" stroke="midnightblue" d="M825,-850.08C825,-843.01 825,-832.86 825,-823.99"/>
<polygon fill="midnightblue" stroke="midnightblue" points="828.5,-823.75 825,-813.75 821.5,-823.75 828.5,-823.75"/>
</g>
<!-- Node35 -->
<g id="node35" class="node">
<title>Node35</title>
<g id="a_node35"><a xlink:href="spec_2dma__types_8h.html" target="_top" xlink:title="ODP DMA.">
<polygon fill="white" stroke="black" points="975,-794.5 975,-813.5 1119,-813.5 1119,-794.5 975,-794.5"/>
<text text-anchor="middle" x="1047" y="-801.5" font-family="Helvetica,sans-Serif" font-size="10.00">odp/api/spec/dma_types.h</text>
</a>
</g>
</g>
<!-- Node33&#45;&gt;Node35 -->
<g id="edge58" class="edge">
<title>Node33&#45;&gt;Node35</title>
<path fill="none" stroke="midnightblue" d="M860.18,-850.44C898.58,-841.1 960.18,-826.12 1002.06,-815.93"/>
<polygon fill="midnightblue" stroke="midnightblue" points="1003.1,-819.28 1011.99,-813.52 1001.44,-812.48 1003.1,-819.28"/>
</g>
<!-- Node35&#45;&gt;Node3 -->
<g id="edge59" class="edge">
<title>Node35&#45;&gt;Node3</title>
<path fill="none" stroke="midnightblue" d="M974.95,-797.86C756.11,-781.76 114,-730.83 114,-687.5 114,-687.5 114,-687.5 114,-439.5 114,-351.86 76,-333.64 76,-246 76,-246 76,-246 76,-132 76,-70.49 264.71,-34.93 371.12,-19.76"/>
<polygon fill="midnightblue" stroke="midnightblue" points="371.73,-23.21 381.15,-18.36 370.76,-16.28 371.73,-23.21"/>
</g>
<!-- Node35&#45;&gt;Node4 -->
<g id="edge60" class="edge">
<title>Node35&#45;&gt;Node4</title>
<path fill="none" stroke="midnightblue" d="M1018,-794.44C949.77,-773.57 775.11,-715.76 646,-635 467.39,-523.27 405.06,-498.49 290,-322 278.46,-304.29 272.14,-280.66 268.93,-264.48"/>
<polygon fill="midnightblue" stroke="midnightblue" points="272.37,-263.86 267.17,-254.63 265.48,-265.08 272.37,-263.86"/>
</g>
<!-- Node35&#45;&gt;Node7 -->
<g id="edge77" class="edge">
<title>Node35&#45;&gt;Node7</title>
<path fill="none" stroke="midnightblue" d="M1119.05,-800.17C1174.34,-795.82 1251.52,-784.96 1314,-758 1414.18,-714.77 1544.6,-607.66 1657,-456 1700.01,-397.97 1723,-379.72 1723,-307.5 1723,-307.5 1723,-307.5 1723,-132 1723,-94.24 1712.85,-81.51 1685,-56 1667.45,-39.92 1643.47,-29.3 1622.03,-22.44"/>
<polygon fill="midnightblue" stroke="midnightblue" points="1622.97,-19.07 1612.39,-19.55 1620.96,-25.78 1622.97,-19.07"/>
</g>
<!-- Node35&#45;&gt;Node11 -->
<g id="edge74" class="edge">
<title>Node35&#45;&gt;Node11</title>
<path fill="none" stroke="midnightblue" d="M1029.07,-794.26C1000.55,-779.4 945.09,-746.45 916,-702 904.73,-684.78 900.15,-661.38 898.28,-645.1"/>
<polygon fill="midnightblue" stroke="midnightblue" points="901.73,-644.36 897.35,-634.71 894.76,-644.98 901.73,-644.36"/>
</g>
<!-- Node35&#45;&gt;Node18 -->
<g id="edge75" class="edge">
<title>Node35&#45;&gt;Node18</title>
<path fill="none" stroke="midnightblue" d="M1106.78,-794.47C1201.39,-779.27 1375,-743.72 1375,-687.5 1375,-687.5 1375,-687.5 1375,-562.5 1375,-544.64 1217.97,-300.73 1203,-291 1183.44,-278.28 1048.63,-261.93 965.23,-252.85"/>
<polygon fill="midnightblue" stroke="midnightblue" points="965.4,-249.35 955.08,-251.75 964.65,-256.31 965.4,-249.35"/>
</g>
<!-- Node35&#45;&gt;Node31 -->
<g id="edge76" class="edge">
<title>Node35&#45;&gt;Node31</title>
<path fill="none" stroke="midnightblue" d="M1054.9,-813.57C1079.16,-839.9 1152.94,-919.94 1184.93,-954.65"/>
<polygon fill="midnightblue" stroke="midnightblue" points="1182.42,-957.09 1191.77,-962.08 1187.57,-952.35 1182.42,-957.09"/>
</g>
<!-- Node36 -->
<g id="node36" class="node">
<title>Node36</title>
<g id="a_node36"><a xlink:href="packet__types_8h.html" target="_top" xlink:title="ODP packet.">
<polygon fill="white" stroke="black" points="1006.5,-738.5 1006.5,-757.5 1135.5,-757.5 1135.5,-738.5 1006.5,-738.5"/>
<text text-anchor="middle" x="1071" y="-745.5" font-family="Helvetica,sans-Serif" font-size="10.00">odp/api/packet_types.h</text>
</a>
</g>
</g>
<!-- Node35&#45;&gt;Node36 -->
<g id="edge61" class="edge">
<title>Node35&#45;&gt;Node36</title>
<path fill="none" stroke="midnightblue" d="M1050.96,-794.08C1054.21,-786.77 1058.92,-776.18 1062.95,-767.1"/>
<polygon fill="midnightblue" stroke="midnightblue" points="1066.25,-768.31 1067.11,-757.75 1059.85,-765.47 1066.25,-768.31"/>
</g>
<!-- Node37 -->
<g id="node37" class="node">
<title>Node37</title>
<g id="a_node37"><a xlink:title=" ">
<polygon fill="white" stroke="#bfbfbf" points="1049,-671.5 1049,-701.5 1155,-701.5 1155,-671.5 1049,-671.5"/>
<text text-anchor="start" x="1057" y="-689.5" font-family="Helvetica,sans-Serif" font-size="10.00">odp/api/abi/packet</text>
<text text-anchor="middle" x="1102" y="-678.5" font-family="Helvetica,sans-Serif" font-size="10.00">_io_types.h</text>
</a>
</g>
</g>
<!-- Node36&#45;&gt;Node37 -->
<g id="edge62" class="edge">
<title>Node36&#45;&gt;Node37</title>
<path fill="none" stroke="midnightblue" d="M1075.44,-738.48C1079.25,-731.17 1084.91,-720.3 1090.03,-710.47"/>
<polygon fill="midnightblue" stroke="midnightblue" points="1093.18,-712.01 1094.69,-701.52 1086.97,-708.77 1093.18,-712.01"/>
</g>
<!-- Node38 -->
<g id="node38" class="node">
<title>Node38</title>
<g id="a_node38"><a xlink:title=" ">
<polygon fill="white" stroke="#bfbfbf" points="925,-671.5 925,-701.5 1031,-701.5 1031,-671.5 925,-671.5"/>
<text text-anchor="start" x="933" y="-689.5" font-family="Helvetica,sans-Serif" font-size="10.00">odp/api/abi/packet</text>
<text text-anchor="middle" x="978" y="-678.5" font-family="Helvetica,sans-Serif" font-size="10.00">_types.h</text>
</a>
</g>
</g>
<!-- Node36&#45;&gt;Node38 -->
<g id="edge63" class="edge">
<title>Node36&#45;&gt;Node38</title>
<path fill="none" stroke="midnightblue" d="M1057.68,-738.48C1044.96,-730.34 1025.35,-717.79 1008.76,-707.18"/>
<polygon fill="midnightblue" stroke="midnightblue" points="1010.23,-703.96 999.92,-701.52 1006.46,-709.86 1010.23,-703.96"/>
</g>
<!-- Node39 -->
<g id="node39" class="node">
<title>Node39</title>
<g id="a_node39"><a xlink:href="spec_2packet__types_8h.html" target="_top" xlink:title="ODP packet types.">
<polygon fill="white" stroke="black" points="1173.5,-671.5 1173.5,-701.5 1286.5,-701.5 1286.5,-671.5 1173.5,-671.5"/>
<text text-anchor="start" x="1181.5" y="-689.5" font-family="Helvetica,sans-Serif" font-size="10.00">odp/api/spec/packet</text>
<text text-anchor="middle" x="1230" y="-678.5" font-family="Helvetica,sans-Serif" font-size="10.00">_types.h</text>
</a>
</g>
</g>
<!-- Node36&#45;&gt;Node39 -->
<g id="edge64" class="edge">
<title>Node36&#45;&gt;Node39</title>
<path fill="none" stroke="midnightblue" d="M1093.78,-738.48C1116.93,-729.81 1153.45,-716.15 1182.86,-705.14"/>
<polygon fill="midnightblue" stroke="midnightblue" points="1184.39,-708.31 1192.53,-701.52 1181.93,-701.75 1184.39,-708.31"/>
</g>
<!-- Node39&#45;&gt;Node3 -->
<g id="edge65" class="edge">
<title>Node39&#45;&gt;Node3</title>
<path fill="none" stroke="midnightblue" d="M1173.2,-672.6C1170.09,-672.03 1167.01,-671.49 1164,-671 1014.01,-646.66 966.98,-686.47 824,-635 764.79,-613.69 381.76,-377.45 352,-322 323.53,-268.97 405.69,-87 433.3,-28.95"/>
<polygon fill="midnightblue" stroke="midnightblue" points="436.61,-30.14 437.78,-19.61 430.3,-27.11 436.61,-30.14"/>
</g>
<!-- Node39&#45;&gt;Node7 -->
<g id="edge73" class="edge">
<title>Node39&#45;&gt;Node7</title>
<path fill="none" stroke="midnightblue" d="M1277.41,-671.4C1393.94,-633.49 1685,-517.77 1685,-307.5 1685,-307.5 1685,-307.5 1685,-132 1685,-96.58 1684,-82.94 1661,-56 1648.08,-40.86 1628.84,-30.29 1611.46,-23.21"/>
<polygon fill="midnightblue" stroke="midnightblue" points="1612.64,-19.92 1602.05,-19.63 1610.15,-26.46 1612.64,-19.92"/>
</g>
<!-- Node39&#45;&gt;Node11 -->
<g id="edge72" class="edge">
<title>Node39&#45;&gt;Node11</title>
<path fill="none" stroke="midnightblue" d="M1173.16,-672.83C1170.06,-672.19 1166.99,-671.58 1164,-671 1095.5,-657.71 1016.67,-644.7 962.52,-636.12"/>
<polygon fill="midnightblue" stroke="midnightblue" points="962.79,-632.62 952.37,-634.52 961.7,-639.53 962.79,-632.62"/>
</g>
<!-- Node40 -->
<g id="node40" class="node">
<title>Node40</title>
<g id="a_node40"><a xlink:href="proto__stats__types_8h.html" target="_top" xlink:title="ODP proto stats types.">
<polygon fill="white" stroke="black" points="1282,-358.5 1282,-388.5 1392,-388.5 1392,-358.5 1282,-358.5"/>
<text text-anchor="start" x="1290" y="-376.5" font-family="Helvetica,sans-Serif" font-size="10.00">odp/api/proto_stats</text>
<text text-anchor="middle" x="1337" y="-365.5" font-family="Helvetica,sans-Serif" font-size="10.00">_types.h</text>
</a>
</g>
</g>
<!-- Node39&#45;&gt;Node40 -->
<g id="edge66" class="edge">
<title>Node39&#45;&gt;Node40</title>
<path fill="none" stroke="midnightblue" d="M1234.88,-671.33C1251.73,-622.35 1307.63,-459.88 1328.79,-398.37"/>
<polygon fill="midnightblue" stroke="midnightblue" points="1332.15,-399.35 1332.1,-388.75 1325.53,-397.07 1332.15,-399.35"/>
</g>
<!-- Node41 -->
<g id="node41" class="node">
<title>Node41</title>
<g id="a_node41"><a xlink:title=" ">
<polygon fill="white" stroke="#bfbfbf" points="1377,-291.5 1377,-321.5 1505,-321.5 1505,-291.5 1377,-291.5"/>
<text text-anchor="start" x="1385" y="-309.5" font-family="Helvetica,sans-Serif" font-size="10.00">odp/api/abi/proto_stats</text>
<text text-anchor="middle" x="1441" y="-298.5" font-family="Helvetica,sans-Serif" font-size="10.00">_types.h</text>
</a>
</g>
</g>
<!-- Node40&#45;&gt;Node41 -->
<g id="edge67" class="edge">
<title>Node40&#45;&gt;Node41</title>
<path fill="none" stroke="midnightblue" d="M1359.57,-358.4C1374.29,-349.2 1393.69,-337.07 1409.87,-326.95"/>
<polygon fill="midnightblue" stroke="midnightblue" points="1411.85,-329.84 1418.48,-321.58 1408.14,-323.91 1411.85,-329.84"/>
</g>
<!-- Node42 -->
<g id="node42" class="node">
<title>Node42</title>
<g id="a_node42"><a xlink:href="spec_2proto__stats__types_8h.html" target="_top" xlink:title="ODP proto stats types.">
<polygon fill="white" stroke="black" points="1251.5,-291.5 1251.5,-321.5 1358.5,-321.5 1358.5,-291.5 1251.5,-291.5"/>
<text text-anchor="start" x="1259.5" y="-309.5" font-family="Helvetica,sans-Serif" font-size="10.00">odp/api/spec/proto</text>
<text text-anchor="middle" x="1305" y="-298.5" font-family="Helvetica,sans-Serif" font-size="10.00">_stats_types.h</text>
</a>
</g>
</g>
<!-- Node40&#45;&gt;Node42 -->
<g id="edge68" class="edge">
<title>Node40&#45;&gt;Node42</title>
<path fill="none" stroke="midnightblue" d="M1330.06,-358.4C1326.07,-350.3 1320.97,-339.94 1316.41,-330.69"/>
<polygon fill="midnightblue" stroke="midnightblue" points="1319.49,-329 1311.93,-321.58 1313.21,-332.09 1319.49,-329"/>
</g>
<!-- Node42&#45;&gt;Node3 -->
<g id="edge69" class="edge">
<title>Node42&#45;&gt;Node3</title>
<path fill="none" stroke="midnightblue" d="M1251.31,-293.67C1132.57,-267.47 856.59,-206.24 837,-199 819.1,-192.38 816.51,-186.59 799,-179 754.12,-159.55 740.47,-161.02 695,-143 638.4,-120.58 624.04,-115.03 570,-87 531.76,-67.16 489.04,-40.93 463.9,-25.05"/>
<polygon fill="midnightblue" stroke="midnightblue" points="465.48,-21.91 455.17,-19.5 461.73,-27.82 465.48,-21.91"/>
</g>
<!-- Node42&#45;&gt;Node7 -->
<g id="edge71" class="edge">
<title>Node42&#45;&gt;Node7</title>
<path fill="none" stroke="midnightblue" d="M1334.95,-291.37C1368.73,-273.11 1419,-237.9 1419,-190 1419,-190 1419,-190 1419,-132 1419,-74.18 1487.15,-39.54 1532.19,-22.96"/>
<polygon fill="midnightblue" stroke="midnightblue" points="1533.43,-26.24 1541.69,-19.6 1531.1,-19.64 1533.43,-26.24"/>
</g>
<!-- Node42&#45;&gt;Node18 -->
<g id="edge70" class="edge">
<title>Node42&#45;&gt;Node18</title>
<path fill="none" stroke="midnightblue" d="M1251.25,-293.64C1246.44,-292.7 1241.64,-291.8 1237,-291 1210.89,-286.49 1055.98,-266.28 965.2,-254.53"/>
<polygon fill="midnightblue" stroke="midnightblue" points="965.64,-251.06 955.27,-253.25 964.74,-258 965.64,-251.06"/>
</g>
</g>
</svg>
