<?xml version="1.0" encoding="UTF-8" standalone="no"?>
<!DOCTYPE svg PUBLIC "-//W3C//DTD SVG 1.1//EN"
 "http://www.w3.org/Graphics/SVG/1.1/DTD/svg11.dtd">
<!-- Generated by graphviz version 2.43.0 (0)
 -->
<!-- Title: ml.h Pages: 1 -->
<svg width="1455pt" height="1102pt"
 viewBox="0.00 0.00 1455.00 1102.00" xmlns="http://www.w3.org/2000/svg" xmlns:xlink="http://www.w3.org/1999/xlink">
<g id="graph0" class="graph" transform="scale(1 1) rotate(0) translate(4 1098)">
<title>ml.h</title>
<polygon fill="white" stroke="transparent" points="-4,4 -4,-1098 1451,-1098 1451,4 -4,4"/>
<!-- Node1 -->
<g id="node1" class="node">
<title>Node1</title>
<g id="a_node1"><a xlink:title="ODP Machine Learning (ML) offload.">
<polygon fill="#bfbfbf" stroke="black" points="327,-1074.5 327,-1093.5 365,-1093.5 365,-1074.5 327,-1074.5"/>
<text text-anchor="middle" x="346" y="-1081.5" font-family="Helvetica,sans-Serif" font-size="10.00">ml.h</text>
</a>
</g>
</g>
<!-- Node2 -->
<g id="node2" class="node">
<title>Node2</title>
<g id="a_node2"><a xlink:href="spec_2ml_8h.html" target="_top" xlink:title="ODP Machine Learning (ML) offload.">
<polygon fill="white" stroke="black" points="294.5,-1018.5 294.5,-1037.5 397.5,-1037.5 397.5,-1018.5 294.5,-1018.5"/>
<text text-anchor="middle" x="346" y="-1025.5" font-family="Helvetica,sans-Serif" font-size="10.00">odp/api/spec/ml.h</text>
</a>
</g>
</g>
<!-- Node1&#45;&gt;Node2 -->
<g id="edge1" class="edge">
<title>Node1&#45;&gt;Node2</title>
<path fill="none" stroke="midnightblue" d="M346,-1074.08C346,-1067.01 346,-1056.86 346,-1047.99"/>
<polygon fill="midnightblue" stroke="midnightblue" points="349.5,-1047.75 346,-1037.75 342.5,-1047.75 349.5,-1047.75"/>
</g>
<!-- Node3 -->
<g id="node3" class="node">
<title>Node3</title>
<g id="a_node3"><a xlink:title=" ">
<polygon fill="white" stroke="#bfbfbf" points="981.5,-0.5 981.5,-19.5 1102.5,-19.5 1102.5,-0.5 981.5,-0.5"/>
<text text-anchor="middle" x="1042" y="-7.5" font-family="Helvetica,sans-Serif" font-size="10.00">odp/visibility_begin.h</text>
</a>
</g>
</g>
<!-- Node2&#45;&gt;Node3 -->
<g id="edge2" class="edge">
<title>Node2&#45;&gt;Node3</title>
<path fill="none" stroke="midnightblue" d="M397.63,-1027.33C615.3,-1028.06 1447,-1023.85 1447,-917 1447,-917 1447,-917 1447,-132 1447,-88.69 1423.75,-77.23 1386,-56 1340.61,-30.48 1199.61,-18.9 1112.86,-14.08"/>
<polygon fill="midnightblue" stroke="midnightblue" points="1112.99,-10.58 1102.82,-13.54 1112.61,-17.57 1112.99,-10.58"/>
</g>
<!-- Node4 -->
<g id="node4" class="node">
<title>Node4</title>
<g id="a_node4"><a xlink:href="event__types_8h.html" target="_top" xlink:title="ODP event API type definitions.">
<polygon fill="white" stroke="black" points="102.5,-615.5 102.5,-634.5 227.5,-634.5 227.5,-615.5 102.5,-615.5"/>
<text text-anchor="middle" x="165" y="-622.5" font-family="Helvetica,sans-Serif" font-size="10.00">odp/api/event_types.h</text>
</a>
</g>
</g>
<!-- Node2&#45;&gt;Node4 -->
<g id="edge3" class="edge">
<title>Node2&#45;&gt;Node4</title>
<path fill="none" stroke="midnightblue" d="M301.72,-1018.49C225.12,-1002.48 76,-965.15 76,-917 76,-917 76,-917 76,-747 76,-701.31 117.68,-661.49 144,-640.9"/>
<polygon fill="midnightblue" stroke="midnightblue" points="146.37,-643.49 152.25,-634.67 142.16,-637.9 146.37,-643.49"/>
</g>
<!-- Node7 -->
<g id="node7" class="node">
<title>Node7</title>
<g id="a_node7"><a xlink:title=" ">
<polygon fill="white" stroke="#bfbfbf" points="296,-0.5 296,-19.5 408,-19.5 408,-0.5 296,-0.5"/>
<text text-anchor="middle" x="352" y="-7.5" font-family="Helvetica,sans-Serif" font-size="10.00">odp/visibility_end.h</text>
</a>
</g>
</g>
<!-- Node2&#45;&gt;Node7 -->
<g id="edge75" class="edge">
<title>Node2&#45;&gt;Node7</title>
<path fill="none" stroke="midnightblue" d="M294.2,-1021.44C197.68,-1009.62 0,-977.98 0,-917 0,-917 0,-917 0,-132 0,-85.16 31.52,-77.74 73,-56 108.98,-37.14 215.17,-23.85 285.67,-16.82"/>
<polygon fill="midnightblue" stroke="midnightblue" points="286.19,-20.28 295.8,-15.82 285.5,-13.32 286.19,-20.28"/>
</g>
<!-- Node8 -->
<g id="node8" class="node">
<title>Node8</title>
<g id="a_node8"><a xlink:href="ml__types_8h.html" target="_top" xlink:title="ODP Machine Learning (ML) types.">
<polygon fill="white" stroke="black" points="243,-850.5 243,-869.5 353,-869.5 353,-850.5 243,-850.5"/>
<text text-anchor="middle" x="298" y="-857.5" font-family="Helvetica,sans-Serif" font-size="10.00">odp/api/ml_types.h</text>
</a>
</g>
</g>
<!-- Node2&#45;&gt;Node8 -->
<g id="edge8" class="edge">
<title>Node2&#45;&gt;Node8</title>
<path fill="none" stroke="midnightblue" d="M341.5,-1018.23C337.07,-1009.31 330.34,-994.97 326,-982 314.13,-946.52 305.49,-903.55 301.15,-879.54"/>
<polygon fill="midnightblue" stroke="midnightblue" points="304.59,-878.91 299.42,-869.66 297.7,-880.12 304.59,-878.91"/>
</g>
<!-- Node17 -->
<g id="node17" class="node">
<title>Node17</title>
<g id="a_node17"><a xlink:href="std__types_8h.html" target="_top" xlink:title="Standard C language types and definitions for ODP.">
<polygon fill="white" stroke="black" points="935,-235.5 935,-254.5 1047,-254.5 1047,-235.5 935,-235.5"/>
<text text-anchor="middle" x="991" y="-242.5" font-family="Helvetica,sans-Serif" font-size="10.00">odp/api/std_types.h</text>
</a>
</g>
</g>
<!-- Node2&#45;&gt;Node17 -->
<g id="edge74" class="edge">
<title>Node2&#45;&gt;Node17</title>
<path fill="none" stroke="midnightblue" d="M397.53,-1026.94C605.38,-1026.04 1371,-1015.99 1371,-917 1371,-917 1371,-917 1371,-562.5 1371,-430.57 1361.69,-362.79 1251,-291 1219.81,-270.77 1123.65,-258.1 1057.44,-251.54"/>
<polygon fill="midnightblue" stroke="midnightblue" points="1057.38,-248.02 1047.09,-250.54 1056.7,-254.99 1057.38,-248.02"/>
</g>
<!-- Node27 -->
<g id="node27" class="node">
<title>Node27</title>
<g id="a_node27"><a xlink:href="pool__types_8h.html" target="_top" xlink:title="ODP pool.">
<polygon fill="white" stroke="black" points="335,-962.5 335,-981.5 453,-981.5 453,-962.5 335,-962.5"/>
<text text-anchor="middle" x="394" y="-969.5" font-family="Helvetica,sans-Serif" font-size="10.00">odp/api/pool_types.h</text>
</a>
</g>
</g>
<!-- Node2&#45;&gt;Node27 -->
<g id="edge42" class="edge">
<title>Node2&#45;&gt;Node27</title>
<path fill="none" stroke="midnightblue" d="M353.93,-1018.08C360.85,-1010.3 371.07,-998.8 379.45,-989.37"/>
<polygon fill="midnightblue" stroke="midnightblue" points="382.19,-991.55 386.22,-981.75 376.96,-986.9 382.19,-991.55"/>
</g>
<!-- Node5 -->
<g id="node5" class="node">
<title>Node5</title>
<g id="a_node5"><a xlink:title=" ">
<polygon fill="white" stroke="#bfbfbf" points="66.5,-554 66.5,-573 209.5,-573 209.5,-554 66.5,-554"/>
<text text-anchor="middle" x="138" y="-561" font-family="Helvetica,sans-Serif" font-size="10.00">odp/api/abi/event_types.h</text>
</a>
</g>
</g>
<!-- Node4&#45;&gt;Node5 -->
<g id="edge4" class="edge">
<title>Node4&#45;&gt;Node5</title>
<path fill="none" stroke="midnightblue" d="M161.13,-615.48C157.2,-606.82 151,-593.15 146.01,-582.15"/>
<polygon fill="midnightblue" stroke="midnightblue" points="149.18,-580.67 141.86,-573.01 142.81,-583.56 149.18,-580.67"/>
</g>
<!-- Node6 -->
<g id="node6" class="node">
<title>Node6</title>
<g id="a_node6"><a xlink:href="spec_2event__types_8h.html" target="_top" xlink:title="ODP event API type definitions.">
<polygon fill="white" stroke="black" points="380.5,-56.5 380.5,-86.5 489.5,-86.5 489.5,-56.5 380.5,-56.5"/>
<text text-anchor="start" x="388.5" y="-74.5" font-family="Helvetica,sans-Serif" font-size="10.00">odp/api/spec/event</text>
<text text-anchor="middle" x="435" y="-63.5" font-family="Helvetica,sans-Serif" font-size="10.00">_types.h</text>
</a>
</g>
</g>
<!-- Node4&#45;&gt;Node6 -->
<g id="edge5" class="edge">
<title>Node4&#45;&gt;Node6</title>
<path fill="none" stroke="midnightblue" d="M182.34,-615.36C213.56,-598.43 276,-557.73 276,-503 276,-503 276,-503 276,-439.5 276,-298.12 376.58,-149.48 417.75,-94.56"/>
<polygon fill="midnightblue" stroke="midnightblue" points="420.56,-96.64 423.82,-86.56 414.98,-92.41 420.56,-96.64"/>
</g>
<!-- Node6&#45;&gt;Node3 -->
<g id="edge6" class="edge">
<title>Node6&#45;&gt;Node3</title>
<path fill="none" stroke="midnightblue" d="M489.72,-62.18C505,-60.01 521.63,-57.78 537,-56 691.54,-38.14 873.41,-23.49 971.2,-16.13"/>
<polygon fill="midnightblue" stroke="midnightblue" points="971.55,-19.62 981.26,-15.38 971.03,-12.64 971.55,-19.62"/>
</g>
<!-- Node6&#45;&gt;Node7 -->
<g id="edge7" class="edge">
<title>Node6&#45;&gt;Node7</title>
<path fill="none" stroke="midnightblue" d="M415.33,-56.4C402.4,-47.13 385.51,-35.03 372.43,-25.65"/>
<polygon fill="midnightblue" stroke="midnightblue" points="374.24,-22.64 364.08,-19.66 370.17,-28.33 374.24,-22.64"/>
</g>
<!-- Node9 -->
<g id="node9" class="node">
<title>Node9</title>
<g id="a_node9"><a xlink:title=" ">
<polygon fill="white" stroke="#bfbfbf" points="142,-794.5 142,-813.5 270,-813.5 270,-794.5 142,-794.5"/>
<text text-anchor="middle" x="206" y="-801.5" font-family="Helvetica,sans-Serif" font-size="10.00">odp/api/abi/ml_types.h</text>
</a>
</g>
</g>
<!-- Node8&#45;&gt;Node9 -->
<g id="edge9" class="edge">
<title>Node8&#45;&gt;Node9</title>
<path fill="none" stroke="midnightblue" d="M283.22,-850.32C268.73,-841.82 246.43,-828.73 229.51,-818.8"/>
<polygon fill="midnightblue" stroke="midnightblue" points="231.14,-815.7 220.74,-813.65 227.6,-821.74 231.14,-815.7"/>
</g>
<!-- Node10 -->
<g id="node10" class="node">
<title>Node10</title>
<g id="a_node10"><a xlink:href="spec_2ml__types_8h.html" target="_top" xlink:title="ODP Machine Learning (ML) types.">
<polygon fill="white" stroke="black" points="284.5,-677 284.5,-696 419.5,-696 419.5,-677 284.5,-677"/>
<text text-anchor="middle" x="352" y="-684" font-family="Helvetica,sans-Serif" font-size="10.00">odp/api/spec/ml_types.h</text>
</a>
</g>
</g>
<!-- Node8&#45;&gt;Node10 -->
<g id="edge10" class="edge">
<title>Node8&#45;&gt;Node10</title>
<path fill="none" stroke="midnightblue" d="M300.75,-850.26C309.17,-823.54 334.68,-742.52 346.22,-705.86"/>
<polygon fill="midnightblue" stroke="midnightblue" points="349.65,-706.61 349.32,-696.02 342.98,-704.51 349.65,-706.61"/>
</g>
<!-- Node10&#45;&gt;Node3 -->
<g id="edge11" class="edge">
<title>Node10&#45;&gt;Node3</title>
<path fill="none" stroke="midnightblue" d="M352,-676.99C352,-657.24 352,-606.72 352,-564.5 352,-564.5 352,-564.5 352,-439.5 352,-179.08 553.27,-152.87 795,-56 851.87,-33.21 920.76,-21.88 971.32,-16.3"/>
<polygon fill="midnightblue" stroke="midnightblue" points="971.92,-19.75 981.5,-15.22 971.19,-12.79 971.92,-19.75"/>
</g>
<!-- Node10&#45;&gt;Node4 -->
<g id="edge12" class="edge">
<title>Node10&#45;&gt;Node4</title>
<path fill="none" stroke="midnightblue" d="M325.21,-676.98C292.71,-666.64 237.79,-649.16 201.46,-637.6"/>
<polygon fill="midnightblue" stroke="midnightblue" points="202.33,-634.21 191.74,-634.51 200.21,-640.88 202.33,-634.21"/>
</g>
<!-- Node10&#45;&gt;Node7 -->
<g id="edge41" class="edge">
<title>Node10&#45;&gt;Node7</title>
<path fill="none" stroke="midnightblue" d="M346.19,-676.78C322.96,-641.02 238,-501.59 238,-374.5 238,-374.5 238,-374.5 238,-132 238,-96.58 239,-82.94 262,-56 274.92,-40.86 294.16,-30.29 311.54,-23.21"/>
<polygon fill="midnightblue" stroke="midnightblue" points="312.85,-26.46 320.95,-19.63 310.36,-19.92 312.85,-26.46"/>
</g>
<!-- Node11 -->
<g id="node11" class="node">
<title>Node11</title>
<g id="a_node11"><a xlink:href="queue__types_8h.html" target="_top" xlink:title="ODP queue.">
<polygon fill="white" stroke="black" points="849.5,-615.5 849.5,-634.5 976.5,-634.5 976.5,-615.5 849.5,-615.5"/>
<text text-anchor="middle" x="913" y="-622.5" font-family="Helvetica,sans-Serif" font-size="10.00">odp/api/queue_types.h</text>
</a>
</g>
</g>
<!-- Node10&#45;&gt;Node11 -->
<g id="edge13" class="edge">
<title>Node10&#45;&gt;Node11</title>
<path fill="none" stroke="midnightblue" d="M419.62,-678.66C513.05,-669.16 686.87,-651.29 835,-635 836.3,-634.86 837.6,-634.71 838.92,-634.57"/>
<polygon fill="midnightblue" stroke="midnightblue" points="839.61,-638.01 849.16,-633.42 838.83,-631.06 839.61,-638.01"/>
</g>
<!-- Node10&#45;&gt;Node17 -->
<g id="edge40" class="edge">
<title>Node10&#45;&gt;Node17</title>
<path fill="none" stroke="midnightblue" d="M410.68,-676.95C517.3,-660.55 737.65,-622.43 801,-579 866.1,-534.37 889.82,-342.63 929,-291 938.7,-278.21 953.04,-267.48 965.48,-259.71"/>
<polygon fill="midnightblue" stroke="midnightblue" points="967.3,-262.7 974.12,-254.58 963.73,-256.68 967.3,-262.7"/>
</g>
<!-- Node12 -->
<g id="node12" class="node">
<title>Node12</title>
<g id="a_node12"><a xlink:title=" ">
<polygon fill="white" stroke="#bfbfbf" points="849.5,-554 849.5,-573 994.5,-573 994.5,-554 849.5,-554"/>
<text text-anchor="middle" x="922" y="-561" font-family="Helvetica,sans-Serif" font-size="10.00">odp/api/abi/queue_types.h</text>
</a>
</g>
</g>
<!-- Node11&#45;&gt;Node12 -->
<g id="edge14" class="edge">
<title>Node11&#45;&gt;Node12</title>
<path fill="none" stroke="midnightblue" d="M914.29,-615.48C915.56,-607.08 917.54,-593.98 919.18,-583.16"/>
<polygon fill="midnightblue" stroke="midnightblue" points="922.68,-583.42 920.71,-573.01 915.76,-582.37 922.68,-583.42"/>
</g>
<!-- Node13 -->
<g id="node13" class="node">
<title>Node13</title>
<g id="a_node13"><a xlink:href="spec_2queue__types_8h.html" target="_top" xlink:title="ODP queue types.">
<polygon fill="white" stroke="black" points="680.5,-548.5 680.5,-578.5 791.5,-578.5 791.5,-548.5 680.5,-548.5"/>
<text text-anchor="start" x="688.5" y="-566.5" font-family="Helvetica,sans-Serif" font-size="10.00">odp/api/spec/queue</text>
<text text-anchor="middle" x="736" y="-555.5" font-family="Helvetica,sans-Serif" font-size="10.00">_types.h</text>
</a>
</g>
</g>
<!-- Node11&#45;&gt;Node13 -->
<g id="edge15" class="edge">
<title>Node11&#45;&gt;Node13</title>
<path fill="none" stroke="midnightblue" d="M887.64,-615.48C861.54,-606.7 820.15,-592.79 787.2,-581.71"/>
<polygon fill="midnightblue" stroke="midnightblue" points="788.31,-578.39 777.72,-578.52 786.08,-585.03 788.31,-578.39"/>
</g>
<!-- Node13&#45;&gt;Node3 -->
<g id="edge16" class="edge">
<title>Node13&#45;&gt;Node3</title>
<path fill="none" stroke="midnightblue" d="M768.61,-548.34C784.45,-539.92 802.5,-527.78 814,-512 833.11,-485.77 833,-473.95 833,-441.5 833,-441.5 833,-441.5 833,-372.5 833,-254.62 840.93,-207.62 923,-123 953.28,-91.78 983.61,-118.12 1014,-87 1029.17,-71.47 1036.22,-47.03 1039.44,-30.08"/>
<polygon fill="midnightblue" stroke="midnightblue" points="1042.97,-30.17 1041.1,-19.74 1036.06,-29.06 1042.97,-30.17"/>
</g>
<!-- Node13&#45;&gt;Node7 -->
<g id="edge39" class="edge">
<title>Node13&#45;&gt;Node7</title>
<path fill="none" stroke="midnightblue" d="M703.09,-548.44C661.92,-530.11 590.14,-495.66 535,-456 425.01,-376.88 314,-381.49 314,-246 314,-246 314,-246 314,-132 314,-93.81 331.44,-51.83 342.69,-28.72"/>
<polygon fill="midnightblue" stroke="midnightblue" points="345.96,-30.02 347.34,-19.52 339.71,-26.86 345.96,-30.02"/>
</g>
<!-- Node14 -->
<g id="node14" class="node">
<title>Node14</title>
<g id="a_node14"><a xlink:href="schedule__types_8h.html" target="_top" xlink:title="ODP schedule.">
<polygon fill="white" stroke="black" points="665,-492.5 665,-511.5 805,-511.5 805,-492.5 665,-492.5"/>
<text text-anchor="middle" x="735" y="-499.5" font-family="Helvetica,sans-Serif" font-size="10.00">odp/api/schedule_types.h</text>
</a>
</g>
</g>
<!-- Node13&#45;&gt;Node14 -->
<g id="edge17" class="edge">
<title>Node13&#45;&gt;Node14</title>
<path fill="none" stroke="midnightblue" d="M735.76,-548.4C735.63,-540.47 735.46,-530.46 735.32,-521.86"/>
<polygon fill="midnightblue" stroke="midnightblue" points="738.81,-521.6 735.15,-511.66 731.81,-521.72 738.81,-521.6"/>
</g>
<!-- Node15 -->
<g id="node15" class="node">
<title>Node15</title>
<g id="a_node15"><a xlink:title=" ">
<polygon fill="white" stroke="#bfbfbf" points="687.5,-425.5 687.5,-455.5 804.5,-455.5 804.5,-425.5 687.5,-425.5"/>
<text text-anchor="start" x="695.5" y="-443.5" font-family="Helvetica,sans-Serif" font-size="10.00">odp/api/abi/schedule</text>
<text text-anchor="middle" x="746" y="-432.5" font-family="Helvetica,sans-Serif" font-size="10.00">_types.h</text>
</a>
</g>
</g>
<!-- Node14&#45;&gt;Node15 -->
<g id="edge18" class="edge">
<title>Node14&#45;&gt;Node15</title>
<path fill="none" stroke="midnightblue" d="M736.58,-492.48C737.88,-485.4 739.81,-474.97 741.58,-465.39"/>
<polygon fill="midnightblue" stroke="midnightblue" points="745.03,-465.99 743.41,-455.52 738.15,-464.72 745.03,-465.99"/>
</g>
<!-- Node16 -->
<g id="node16" class="node">
<title>Node16</title>
<g id="a_node16"><a xlink:href="spec_2schedule__types_8h.html" target="_top" xlink:title="ODP schedule types.">
<polygon fill="white" stroke="black" points="544.5,-425.5 544.5,-455.5 669.5,-455.5 669.5,-425.5 544.5,-425.5"/>
<text text-anchor="start" x="552.5" y="-443.5" font-family="Helvetica,sans-Serif" font-size="10.00">odp/api/spec/schedule</text>
<text text-anchor="middle" x="607" y="-432.5" font-family="Helvetica,sans-Serif" font-size="10.00">_types.h</text>
</a>
</g>
</g>
<!-- Node14&#45;&gt;Node16 -->
<g id="edge19" class="edge">
<title>Node14&#45;&gt;Node16</title>
<path fill="none" stroke="midnightblue" d="M716.66,-492.48C698.43,-484 669.9,-470.74 646.5,-459.86"/>
<polygon fill="midnightblue" stroke="midnightblue" points="647.71,-456.56 637.17,-455.52 644.76,-462.91 647.71,-456.56"/>
</g>
<!-- Node16&#45;&gt;Node3 -->
<g id="edge20" class="edge">
<title>Node16&#45;&gt;Node3</title>
<path fill="none" stroke="midnightblue" d="M636.31,-425.44C673.18,-406.47 736.46,-369.52 776,-322 838.09,-247.38 793.02,-187 866,-123 907.54,-86.57 939.73,-118.68 985,-87 1006.58,-71.9 1023.41,-46.07 1033.03,-28.77"/>
<polygon fill="midnightblue" stroke="midnightblue" points="1036.24,-30.19 1037.83,-19.72 1030.05,-26.91 1036.24,-30.19"/>
</g>
<!-- Node16&#45;&gt;Node7 -->
<g id="edge38" class="edge">
<title>Node16&#45;&gt;Node7</title>
<path fill="none" stroke="midnightblue" d="M587.6,-425.19C561.22,-404.85 514,-365.22 485,-322 420.32,-225.6 410.62,-196.11 371,-87 364.05,-67.87 358.73,-45.13 355.51,-29.54"/>
<polygon fill="midnightblue" stroke="midnightblue" points="358.92,-28.74 353.55,-19.61 352.06,-30.1 358.92,-28.74"/>
</g>
<!-- Node16&#45;&gt;Node17 -->
<g id="edge21" class="edge">
<title>Node16&#45;&gt;Node17</title>
<path fill="none" stroke="midnightblue" d="M669.62,-425.82C724.35,-413.54 796.95,-396.35 809,-389 858.47,-358.82 848.67,-325.81 895,-291 913.55,-277.06 937.1,-265.94 956.23,-258.24"/>
<polygon fill="midnightblue" stroke="midnightblue" points="957.73,-261.42 965.79,-254.53 955.2,-254.89 957.73,-261.42"/>
</g>
<!-- Node24 -->
<g id="node24" class="node">
<title>Node24</title>
<g id="a_node24"><a xlink:href="thrmask_8h.html" target="_top" xlink:title="ODP thread masks.">
<polygon fill="white" stroke="black" points="554.5,-364 554.5,-383 659.5,-383 659.5,-364 554.5,-364"/>
<text text-anchor="middle" x="607" y="-371" font-family="Helvetica,sans-Serif" font-size="10.00">odp/api/thrmask.h</text>
</a>
</g>
</g>
<!-- Node16&#45;&gt;Node24 -->
<g id="edge32" class="edge">
<title>Node16&#45;&gt;Node24</title>
<path fill="none" stroke="midnightblue" d="M607,-425.4C607,-416.06 607,-403.71 607,-393.52"/>
<polygon fill="midnightblue" stroke="midnightblue" points="610.5,-393.19 607,-383.19 603.5,-393.19 610.5,-393.19"/>
</g>
<!-- Node18 -->
<g id="node18" class="node">
<title>Node18</title>
<g id="a_node18"><a xlink:title=" ">
<polygon fill="white" stroke="#bfbfbf" points="1070,-179.5 1070,-198.5 1200,-198.5 1200,-179.5 1070,-179.5"/>
<text text-anchor="middle" x="1135" y="-186.5" font-family="Helvetica,sans-Serif" font-size="10.00">odp/api/abi/std_types.h</text>
</a>
</g>
</g>
<!-- Node17&#45;&gt;Node18 -->
<g id="edge22" class="edge">
<title>Node17&#45;&gt;Node18</title>
<path fill="none" stroke="midnightblue" d="M1013.82,-235.44C1037.83,-226.44 1075.83,-212.19 1102.87,-202.05"/>
<polygon fill="midnightblue" stroke="midnightblue" points="1104.16,-205.3 1112.29,-198.52 1101.7,-198.75 1104.16,-205.3"/>
</g>
<!-- Node19 -->
<g id="node19" class="node">
<title>Node19</title>
<g id="a_node19"><a xlink:href="spec_2std__types_8h.html" target="_top" xlink:title="Common types and definitions for ODP API files.">
<polygon fill="white" stroke="black" points="914.5,-179.5 914.5,-198.5 1051.5,-198.5 1051.5,-179.5 914.5,-179.5"/>
<text text-anchor="middle" x="983" y="-186.5" font-family="Helvetica,sans-Serif" font-size="10.00">odp/api/spec/std_types.h</text>
</a>
</g>
</g>
<!-- Node17&#45;&gt;Node19 -->
<g id="edge23" class="edge">
<title>Node17&#45;&gt;Node19</title>
<path fill="none" stroke="midnightblue" d="M989.68,-235.08C988.62,-227.93 987.09,-217.64 985.77,-208.69"/>
<polygon fill="midnightblue" stroke="midnightblue" points="989.22,-208.13 984.3,-198.75 982.3,-209.16 989.22,-208.13"/>
</g>
<!-- Node19&#45;&gt;Node3 -->
<g id="edge24" class="edge">
<title>Node19&#45;&gt;Node3</title>
<path fill="none" stroke="midnightblue" d="M1034.83,-179.49C1084.71,-168.14 1156.86,-142.59 1187,-87 1193.57,-74.89 1195.17,-67.09 1187,-56 1169.8,-32.66 1140.62,-21.07 1112.92,-15.44"/>
<polygon fill="midnightblue" stroke="midnightblue" points="1113.27,-11.95 1102.8,-13.62 1112.03,-18.84 1113.27,-11.95"/>
</g>
<!-- Node19&#45;&gt;Node7 -->
<g id="edge31" class="edge">
<title>Node19&#45;&gt;Node7</title>
<path fill="none" stroke="midnightblue" d="M970.77,-179.36C935.81,-155.16 831.62,-86.45 734,-56 626.78,-22.55 495.55,-13.63 418.14,-11.45"/>
<polygon fill="midnightblue" stroke="midnightblue" points="418.14,-7.95 408.05,-11.19 417.96,-14.94 418.14,-7.95"/>
</g>
<!-- Node20 -->
<g id="node20" class="node">
<title>Node20</title>
<g id="a_node20"><a xlink:title=" ">
<polygon fill="white" stroke="#bfbfbf" points="1038.5,-123.5 1038.5,-142.5 1091.5,-142.5 1091.5,-123.5 1038.5,-123.5"/>
<text text-anchor="middle" x="1065" y="-130.5" font-family="Helvetica,sans-Serif" font-size="10.00">stdint.h</text>
</a>
</g>
</g>
<!-- Node19&#45;&gt;Node20 -->
<g id="edge25" class="edge">
<title>Node19&#45;&gt;Node20</title>
<path fill="none" stroke="midnightblue" d="M996.17,-179.32C1008.85,-170.98 1028.23,-158.21 1043.21,-148.35"/>
<polygon fill="midnightblue" stroke="midnightblue" points="1045.43,-151.08 1051.86,-142.65 1041.58,-145.23 1045.43,-151.08"/>
</g>
<!-- Node21 -->
<g id="node21" class="node">
<title>Node21</title>
<g id="a_node21"><a xlink:href="align_8h.html" target="_top" xlink:title="ODP alignments.">
<polygon fill="white" stroke="black" points="931.5,-123.5 931.5,-142.5 1020.5,-142.5 1020.5,-123.5 931.5,-123.5"/>
<text text-anchor="middle" x="976" y="-130.5" font-family="Helvetica,sans-Serif" font-size="10.00">odp/api/align.h</text>
</a>
</g>
</g>
<!-- Node19&#45;&gt;Node21 -->
<g id="edge26" class="edge">
<title>Node19&#45;&gt;Node21</title>
<path fill="none" stroke="midnightblue" d="M981.84,-179.08C980.92,-171.93 979.58,-161.64 978.42,-152.69"/>
<polygon fill="midnightblue" stroke="midnightblue" points="981.89,-152.22 977.13,-142.75 974.95,-153.12 981.89,-152.22"/>
</g>
<!-- Node22 -->
<g id="node22" class="node">
<title>Node22</title>
<g id="a_node22"><a xlink:title=" ">
<polygon fill="white" stroke="#bfbfbf" points="1070.5,-62 1070.5,-81 1177.5,-81 1177.5,-62 1070.5,-62"/>
<text text-anchor="middle" x="1124" y="-69" font-family="Helvetica,sans-Serif" font-size="10.00">odp/api/abi/align.h</text>
</a>
</g>
</g>
<!-- Node21&#45;&gt;Node22 -->
<g id="edge27" class="edge">
<title>Node21&#45;&gt;Node22</title>
<path fill="none" stroke="midnightblue" d="M997.2,-123.48C1022.37,-113.36 1064.54,-96.4 1093.28,-84.85"/>
<polygon fill="midnightblue" stroke="midnightblue" points="1094.86,-87.99 1102.83,-81.01 1092.25,-81.49 1094.86,-87.99"/>
</g>
<!-- Node23 -->
<g id="node23" class="node">
<title>Node23</title>
<g id="a_node23"><a xlink:href="spec_2align_8h.html" target="_top" xlink:title="ODP alignments.">
<polygon fill="white" stroke="black" points="862,-62 862,-81 976,-81 976,-62 862,-62"/>
<text text-anchor="middle" x="919" y="-69" font-family="Helvetica,sans-Serif" font-size="10.00">odp/api/spec/align.h</text>
</a>
</g>
</g>
<!-- Node21&#45;&gt;Node23 -->
<g id="edge28" class="edge">
<title>Node21&#45;&gt;Node23</title>
<path fill="none" stroke="midnightblue" d="M967.83,-123.48C959.11,-114.37 945.1,-99.74 934.31,-88.48"/>
<polygon fill="midnightblue" stroke="midnightblue" points="936.6,-85.81 927.15,-81.01 931.54,-90.65 936.6,-85.81"/>
</g>
<!-- Node23&#45;&gt;Node3 -->
<g id="edge29" class="edge">
<title>Node23&#45;&gt;Node3</title>
<path fill="none" stroke="midnightblue" d="M936.62,-61.98C957.17,-52.03 991.36,-35.49 1015.21,-23.96"/>
<polygon fill="midnightblue" stroke="midnightblue" points="1016.93,-27.01 1024.41,-19.51 1013.88,-20.71 1016.93,-27.01"/>
</g>
<!-- Node23&#45;&gt;Node7 -->
<g id="edge30" class="edge">
<title>Node23&#45;&gt;Node7</title>
<path fill="none" stroke="midnightblue" d="M881.18,-61.97C870.5,-59.78 858.83,-57.59 848,-56 694.89,-33.49 513.43,-20.46 418.1,-14.66"/>
<polygon fill="midnightblue" stroke="midnightblue" points="418.22,-11.16 408.03,-14.05 417.8,-18.14 418.22,-11.16"/>
</g>
<!-- Node25 -->
<g id="node25" class="node">
<title>Node25</title>
<g id="a_node25"><a xlink:title=" ">
<polygon fill="white" stroke="#bfbfbf" points="643.5,-297 643.5,-316 766.5,-316 766.5,-297 643.5,-297"/>
<text text-anchor="middle" x="705" y="-304" font-family="Helvetica,sans-Serif" font-size="10.00">odp/api/abi/thrmask.h</text>
</a>
</g>
</g>
<!-- Node24&#45;&gt;Node25 -->
<g id="edge33" class="edge">
<title>Node24&#45;&gt;Node25</title>
<path fill="none" stroke="midnightblue" d="M620.22,-363.73C636.45,-352.96 664.22,-334.55 683.53,-321.74"/>
<polygon fill="midnightblue" stroke="midnightblue" points="685.59,-324.57 691.99,-316.13 681.72,-318.74 685.59,-324.57"/>
</g>
<!-- Node26 -->
<g id="node26" class="node">
<title>Node26</title>
<g id="a_node26"><a xlink:href="spec_2thrmask_8h.html" target="_top" xlink:title="ODP thread masks.">
<polygon fill="white" stroke="black" points="494.5,-297 494.5,-316 625.5,-316 625.5,-297 494.5,-297"/>
<text text-anchor="middle" x="560" y="-304" font-family="Helvetica,sans-Serif" font-size="10.00">odp/api/spec/thrmask.h</text>
</a>
</g>
</g>
<!-- Node24&#45;&gt;Node26 -->
<g id="edge34" class="edge">
<title>Node24&#45;&gt;Node26</title>
<path fill="none" stroke="midnightblue" d="M600.66,-363.73C593.4,-353.7 581.34,-337.01 572.24,-324.42"/>
<polygon fill="midnightblue" stroke="midnightblue" points="574.93,-322.18 566.24,-316.13 569.26,-326.28 574.93,-322.18"/>
</g>
<!-- Node26&#45;&gt;Node3 -->
<g id="edge35" class="edge">
<title>Node26&#45;&gt;Node3</title>
<path fill="none" stroke="midnightblue" d="M567.55,-296.53C598.64,-260.21 721.33,-122.81 853,-56 889.7,-37.38 934.36,-26.28 971.05,-19.77"/>
<polygon fill="midnightblue" stroke="midnightblue" points="971.9,-23.18 981.17,-18.05 970.73,-16.28 971.9,-23.18"/>
</g>
<!-- Node26&#45;&gt;Node7 -->
<g id="edge37" class="edge">
<title>Node26&#45;&gt;Node7</title>
<path fill="none" stroke="midnightblue" d="M554.51,-296.91C543.12,-278.24 518,-232.25 518,-190 518,-190 518,-190 518,-132 518,-97.07 522.18,-81.21 498,-56 477.23,-34.35 446.31,-23.05 418.27,-17.17"/>
<polygon fill="midnightblue" stroke="midnightblue" points="418.57,-13.67 408.09,-15.25 417.27,-20.54 418.57,-13.67"/>
</g>
<!-- Node26&#45;&gt;Node17 -->
<g id="edge36" class="edge">
<title>Node26&#45;&gt;Node17</title>
<path fill="none" stroke="midnightblue" d="M601.01,-296.95C611.72,-294.86 623.27,-292.73 634,-291 734.97,-274.76 852.78,-260.89 924.61,-253"/>
<polygon fill="midnightblue" stroke="midnightblue" points="925.31,-256.44 934.87,-251.88 924.55,-249.49 925.31,-256.44"/>
</g>
<!-- Node28 -->
<g id="node28" class="node">
<title>Node28</title>
<g id="a_node28"><a xlink:title=" ">
<polygon fill="white" stroke="#bfbfbf" points="326,-906.5 326,-925.5 462,-925.5 462,-906.5 326,-906.5"/>
<text text-anchor="middle" x="394" y="-913.5" font-family="Helvetica,sans-Serif" font-size="10.00">odp/api/abi/pool_types.h</text>
</a>
</g>
</g>
<!-- Node27&#45;&gt;Node28 -->
<g id="edge43" class="edge">
<title>Node27&#45;&gt;Node28</title>
<path fill="none" stroke="midnightblue" d="M394,-962.08C394,-955.01 394,-944.86 394,-935.99"/>
<polygon fill="midnightblue" stroke="midnightblue" points="397.5,-935.75 394,-925.75 390.5,-935.75 397.5,-935.75"/>
</g>
<!-- Node29 -->
<g id="node29" class="node">
<title>Node29</title>
<g id="a_node29"><a xlink:href="spec_2pool__types_8h.html" target="_top" xlink:title="Type definitions for pools.">
<polygon fill="white" stroke="black" points="480.5,-906.5 480.5,-925.5 623.5,-925.5 623.5,-906.5 480.5,-906.5"/>
<text text-anchor="middle" x="552" y="-913.5" font-family="Helvetica,sans-Serif" font-size="10.00">odp/api/spec/pool_types.h</text>
</a>
</g>
</g>
<!-- Node27&#45;&gt;Node29 -->
<g id="edge44" class="edge">
<title>Node27&#45;&gt;Node29</title>
<path fill="none" stroke="midnightblue" d="M419.04,-962.44C445.62,-953.36 487.81,-938.94 517.52,-928.78"/>
<polygon fill="midnightblue" stroke="midnightblue" points="518.75,-932.06 527.08,-925.52 516.49,-925.44 518.75,-932.06"/>
</g>
<!-- Node29&#45;&gt;Node3 -->
<g id="edge45" class="edge">
<title>Node29&#45;&gt;Node3</title>
<path fill="none" stroke="midnightblue" d="M623.76,-912.62C764.17,-907.5 1070.43,-893.92 1173,-870 1247.75,-852.57 1333,-881.76 1333,-805 1333,-805 1333,-805 1333,-562.5 1333,-444.24 1409,-425.76 1409,-307.5 1409,-307.5 1409,-307.5 1409,-132 1409,-89.51 1387.62,-77.55 1351,-56 1311.82,-32.95 1191.34,-20.79 1112.91,-15.14"/>
<polygon fill="midnightblue" stroke="midnightblue" points="1112.84,-11.63 1102.62,-14.42 1112.35,-18.61 1112.84,-11.63"/>
</g>
<!-- Node29&#45;&gt;Node7 -->
<g id="edge73" class="edge">
<title>Node29&#45;&gt;Node7</title>
<path fill="none" stroke="midnightblue" d="M482.1,-906.48C395.64,-895.73 257,-877.71 234,-870 102.11,-825.79 38,-765.1 38,-626 38,-626 38,-626 38,-132 38,-78.08 201.24,-39.01 292.32,-21.41"/>
<polygon fill="midnightblue" stroke="midnightblue" points="293.08,-24.83 302.25,-19.52 291.77,-17.95 293.08,-24.83"/>
</g>
<!-- Node29&#45;&gt;Node8 -->
<g id="edge72" class="edge">
<title>Node29&#45;&gt;Node8</title>
<path fill="none" stroke="midnightblue" d="M511.75,-906.44C467.35,-897 395.85,-881.8 347.91,-871.61"/>
<polygon fill="midnightblue" stroke="midnightblue" points="348.57,-868.17 338.06,-869.52 347.11,-875.02 348.57,-868.17"/>
</g>
<!-- Node29&#45;&gt;Node17 -->
<g id="edge46" class="edge">
<title>Node29&#45;&gt;Node17</title>
<path fill="none" stroke="midnightblue" d="M623.58,-911.85C809.8,-902.72 1295,-872.44 1295,-805 1295,-805 1295,-805 1295,-501 1295,-402.33 1297.44,-355.77 1223,-291 1198.68,-269.84 1116.78,-257.7 1057.17,-251.48"/>
<polygon fill="midnightblue" stroke="midnightblue" points="1057.37,-247.98 1047.06,-250.46 1056.66,-254.95 1057.37,-247.98"/>
</g>
<!-- Node30 -->
<g id="node30" class="node">
<title>Node30</title>
<g id="a_node30"><a xlink:href="dma__types_8h.html" target="_top" xlink:title="ODP DMA.">
<polygon fill="white" stroke="black" points="492.5,-850.5 492.5,-869.5 611.5,-869.5 611.5,-850.5 492.5,-850.5"/>
<text text-anchor="middle" x="552" y="-857.5" font-family="Helvetica,sans-Serif" font-size="10.00">odp/api/dma_types.h</text>
</a>
</g>
</g>
<!-- Node29&#45;&gt;Node30 -->
<g id="edge47" class="edge">
<title>Node29&#45;&gt;Node30</title>
<path fill="none" stroke="midnightblue" d="M552,-906.08C552,-899.01 552,-888.86 552,-879.99"/>
<polygon fill="midnightblue" stroke="midnightblue" points="555.5,-879.75 552,-869.75 548.5,-879.75 555.5,-879.75"/>
</g>
<!-- Node31 -->
<g id="node31" class="node">
<title>Node31</title>
<g id="a_node31"><a xlink:title=" ">
<polygon fill="white" stroke="#bfbfbf" points="480.5,-794.5 480.5,-813.5 617.5,-813.5 617.5,-794.5 480.5,-794.5"/>
<text text-anchor="middle" x="549" y="-801.5" font-family="Helvetica,sans-Serif" font-size="10.00">odp/api/abi/dma_types.h</text>
</a>
</g>
</g>
<!-- Node30&#45;&gt;Node31 -->
<g id="edge48" class="edge">
<title>Node30&#45;&gt;Node31</title>
<path fill="none" stroke="midnightblue" d="M551.5,-850.08C551.11,-843.01 550.55,-832.86 550.05,-823.99"/>
<polygon fill="midnightblue" stroke="midnightblue" points="553.54,-823.54 549.49,-813.75 546.55,-823.93 553.54,-823.54"/>
</g>
<!-- Node32 -->
<g id="node32" class="node">
<title>Node32</title>
<g id="a_node32"><a xlink:href="spec_2dma__types_8h.html" target="_top" xlink:title="ODP DMA.">
<polygon fill="white" stroke="black" points="636,-794.5 636,-813.5 780,-813.5 780,-794.5 636,-794.5"/>
<text text-anchor="middle" x="708" y="-801.5" font-family="Helvetica,sans-Serif" font-size="10.00">odp/api/spec/dma_types.h</text>
</a>
</g>
</g>
<!-- Node30&#45;&gt;Node32 -->
<g id="edge49" class="edge">
<title>Node30&#45;&gt;Node32</title>
<path fill="none" stroke="midnightblue" d="M576.72,-850.44C602.85,-841.4 644.26,-827.06 673.58,-816.92"/>
<polygon fill="midnightblue" stroke="midnightblue" points="675.09,-820.1 683.4,-813.52 672.8,-813.48 675.09,-820.1"/>
</g>
<!-- Node32&#45;&gt;Node3 -->
<g id="edge50" class="edge">
<title>Node32&#45;&gt;Node3</title>
<path fill="none" stroke="midnightblue" d="M780.05,-802.74C929,-800.26 1257,-783.86 1257,-687.5 1257,-687.5 1257,-687.5 1257,-501 1257,-401.18 1371,-407.32 1371,-307.5 1371,-307.5 1371,-307.5 1371,-132 1371,-90.82 1352.85,-77.93 1318,-56 1284.71,-35.05 1182.99,-22.59 1112.81,-16.27"/>
<polygon fill="midnightblue" stroke="midnightblue" points="1112.96,-12.77 1102.69,-15.38 1112.35,-19.74 1112.96,-12.77"/>
</g>
<!-- Node32&#45;&gt;Node4 -->
<g id="edge51" class="edge">
<title>Node32&#45;&gt;Node4</title>
<path fill="none" stroke="midnightblue" d="M635.74,-795.03C526.02,-782.86 329.26,-760.76 322,-758 258.65,-733.91 202.73,-672.69 178.19,-642.85"/>
<polygon fill="midnightblue" stroke="midnightblue" points="180.61,-640.28 171.62,-634.68 175.16,-644.66 180.61,-640.28"/>
</g>
<!-- Node32&#45;&gt;Node7 -->
<g id="edge71" class="edge">
<title>Node32&#45;&gt;Node7</title>
<path fill="none" stroke="midnightblue" d="M658.41,-794.47C550.58,-775.49 302.2,-729.31 275,-702 248.66,-675.55 200,-411.83 200,-374.5 200,-374.5 200,-374.5 200,-132 200,-94.03 210.91,-81.54 239,-56 256.61,-39.99 280.63,-29.35 301.99,-22.46"/>
<polygon fill="midnightblue" stroke="midnightblue" points="303.03,-25.8 311.59,-19.55 301,-19.1 303.03,-25.8"/>
</g>
<!-- Node32&#45;&gt;Node11 -->
<g id="edge69" class="edge">
<title>Node32&#45;&gt;Node11</title>
<path fill="none" stroke="midnightblue" d="M741.15,-794.47C783.77,-781.73 856.93,-753.51 896,-702 908.48,-685.55 912.12,-661.67 913.03,-645.09"/>
<polygon fill="midnightblue" stroke="midnightblue" points="916.53,-645.04 913.29,-634.95 909.53,-644.86 916.53,-645.04"/>
</g>
<!-- Node32&#45;&gt;Node17 -->
<g id="edge70" class="edge">
<title>Node32&#45;&gt;Node17</title>
<path fill="none" stroke="midnightblue" d="M780.13,-801.59C920.99,-796.88 1219,-776.41 1219,-687.5 1219,-687.5 1219,-687.5 1219,-372.5 1219,-335.31 1226.52,-317.08 1200,-291 1179.98,-271.32 1110.66,-259.19 1057.29,-252.55"/>
<polygon fill="midnightblue" stroke="midnightblue" points="1057.53,-249.06 1047.18,-251.34 1056.69,-256.01 1057.53,-249.06"/>
</g>
<!-- Node33 -->
<g id="node33" class="node">
<title>Node33</title>
<g id="a_node33"><a xlink:href="packet__types_8h.html" target="_top" xlink:title="ODP packet.">
<polygon fill="white" stroke="black" points="637.5,-738.5 637.5,-757.5 766.5,-757.5 766.5,-738.5 637.5,-738.5"/>
<text text-anchor="middle" x="702" y="-745.5" font-family="Helvetica,sans-Serif" font-size="10.00">odp/api/packet_types.h</text>
</a>
</g>
</g>
<!-- Node32&#45;&gt;Node33 -->
<g id="edge52" class="edge">
<title>Node32&#45;&gt;Node33</title>
<path fill="none" stroke="midnightblue" d="M707.01,-794.08C706.21,-786.93 705.07,-776.64 704.08,-767.69"/>
<polygon fill="midnightblue" stroke="midnightblue" points="707.56,-767.3 702.97,-757.75 700.6,-768.08 707.56,-767.3"/>
</g>
<!-- Node34 -->
<g id="node34" class="node">
<title>Node34</title>
<g id="a_node34"><a xlink:title=" ">
<polygon fill="white" stroke="#bfbfbf" points="649,-671.5 649,-701.5 755,-701.5 755,-671.5 649,-671.5"/>
<text text-anchor="start" x="657" y="-689.5" font-family="Helvetica,sans-Serif" font-size="10.00">odp/api/abi/packet</text>
<text text-anchor="middle" x="702" y="-678.5" font-family="Helvetica,sans-Serif" font-size="10.00">_io_types.h</text>
</a>
</g>
</g>
<!-- Node33&#45;&gt;Node34 -->
<g id="edge53" class="edge">
<title>Node33&#45;&gt;Node34</title>
<path fill="none" stroke="midnightblue" d="M702,-738.48C702,-731.47 702,-721.19 702,-711.7"/>
<polygon fill="midnightblue" stroke="midnightblue" points="705.5,-711.52 702,-701.52 698.5,-711.52 705.5,-711.52"/>
</g>
<!-- Node35 -->
<g id="node35" class="node">
<title>Node35</title>
<g id="a_node35"><a xlink:title=" ">
<polygon fill="white" stroke="#bfbfbf" points="525,-671.5 525,-701.5 631,-701.5 631,-671.5 525,-671.5"/>
<text text-anchor="start" x="533" y="-689.5" font-family="Helvetica,sans-Serif" font-size="10.00">odp/api/abi/packet</text>
<text text-anchor="middle" x="578" y="-678.5" font-family="Helvetica,sans-Serif" font-size="10.00">_types.h</text>
</a>
</g>
</g>
<!-- Node33&#45;&gt;Node35 -->
<g id="edge54" class="edge">
<title>Node33&#45;&gt;Node35</title>
<path fill="none" stroke="midnightblue" d="M684.23,-738.48C666.58,-730 638.93,-716.74 616.27,-705.86"/>
<polygon fill="midnightblue" stroke="midnightblue" points="617.75,-702.69 607.22,-701.52 614.73,-709 617.75,-702.69"/>
</g>
<!-- Node36 -->
<g id="node36" class="node">
<title>Node36</title>
<g id="a_node36"><a xlink:href="spec_2packet__types_8h.html" target="_top" xlink:title="ODP packet types.">
<polygon fill="white" stroke="black" points="773.5,-671.5 773.5,-701.5 886.5,-701.5 886.5,-671.5 773.5,-671.5"/>
<text text-anchor="start" x="781.5" y="-689.5" font-family="Helvetica,sans-Serif" font-size="10.00">odp/api/spec/packet</text>
<text text-anchor="middle" x="830" y="-678.5" font-family="Helvetica,sans-Serif" font-size="10.00">_types.h</text>
</a>
</g>
</g>
<!-- Node33&#45;&gt;Node36 -->
<g id="edge55" class="edge">
<title>Node33&#45;&gt;Node36</title>
<path fill="none" stroke="midnightblue" d="M720.34,-738.48C738.57,-730 767.1,-716.74 790.5,-705.86"/>
<polygon fill="midnightblue" stroke="midnightblue" points="792.24,-708.91 799.83,-701.52 789.29,-702.56 792.24,-708.91"/>
</g>
<!-- Node36&#45;&gt;Node3 -->
<g id="edge56" class="edge">
<title>Node36&#45;&gt;Node3</title>
<path fill="none" stroke="midnightblue" d="M886.78,-677.91C986.12,-663.02 1181,-625.98 1181,-564.5 1181,-564.5 1181,-564.5 1181,-439.5 1181,-330.14 1333,-355.36 1333,-246 1333,-246 1333,-246 1333,-132 1333,-36.87 1198.77,-15.15 1112.64,-11"/>
<polygon fill="midnightblue" stroke="midnightblue" points="1112.79,-7.5 1102.65,-10.58 1112.5,-14.49 1112.79,-7.5"/>
</g>
<!-- Node36&#45;&gt;Node7 -->
<g id="edge68" class="edge">
<title>Node36&#45;&gt;Node7</title>
<path fill="none" stroke="midnightblue" d="M784.82,-671.45C688.28,-640.72 466.07,-565.98 409,-512 312.97,-421.17 276,-378.18 276,-246 276,-246 276,-246 276,-132 276,-88.48 311.7,-47.77 334.16,-26.47"/>
<polygon fill="midnightblue" stroke="midnightblue" points="336.73,-28.86 341.75,-19.53 332.01,-23.7 336.73,-28.86"/>
</g>
<!-- Node36&#45;&gt;Node11 -->
<g id="edge67" class="edge">
<title>Node36&#45;&gt;Node11</title>
<path fill="none" stroke="midnightblue" d="M849.67,-671.4C862.6,-662.13 879.49,-650.03 892.57,-640.65"/>
<polygon fill="midnightblue" stroke="midnightblue" points="894.83,-643.33 900.92,-634.66 890.76,-637.64 894.83,-643.33"/>
</g>
<!-- Node37 -->
<g id="node37" class="node">
<title>Node37</title>
<g id="a_node37"><a xlink:href="deprecated_8h.html" target="_top" xlink:title="Control deprecated API definitions.">
<polygon fill="white" stroke="black" points="418.5,-492.5 418.5,-511.5 537.5,-511.5 537.5,-492.5 418.5,-492.5"/>
<text text-anchor="middle" x="478" y="-499.5" font-family="Helvetica,sans-Serif" font-size="10.00">odp/api/deprecated.h</text>
</a>
</g>
</g>
<!-- Node36&#45;&gt;Node37 -->
<g id="edge57" class="edge">
<title>Node36&#45;&gt;Node37</title>
<path fill="none" stroke="midnightblue" d="M802.96,-671.48C736.97,-637.27 568.32,-549.83 503.72,-516.33"/>
<polygon fill="midnightblue" stroke="midnightblue" points="505.11,-513.11 494.62,-511.62 501.88,-519.33 505.11,-513.11"/>
</g>
<!-- Node39 -->
<g id="node39" class="node">
<title>Node39</title>
<g id="a_node39"><a xlink:href="proto__stats__types_8h.html" target="_top" xlink:title="ODP proto stats types.">
<polygon fill="white" stroke="black" points="968,-358.5 968,-388.5 1078,-388.5 1078,-358.5 968,-358.5"/>
<text text-anchor="start" x="976" y="-376.5" font-family="Helvetica,sans-Serif" font-size="10.00">odp/api/proto_stats</text>
<text text-anchor="middle" x="1023" y="-365.5" font-family="Helvetica,sans-Serif" font-size="10.00">_types.h</text>
</a>
</g>
</g>
<!-- Node36&#45;&gt;Node39 -->
<g id="edge61" class="edge">
<title>Node36&#45;&gt;Node39</title>
<path fill="none" stroke="midnightblue" d="M886.73,-677.94C918.83,-671.21 958.03,-658.57 986,-635 1013.06,-612.2 1023,-599.89 1023,-564.5 1023,-564.5 1023,-564.5 1023,-501 1023,-465.42 1023,-424.2 1023,-398.74"/>
<polygon fill="midnightblue" stroke="midnightblue" points="1026.5,-398.54 1023,-388.54 1019.5,-398.54 1026.5,-398.54"/>
</g>
<!-- Node38 -->
<g id="node38" class="node">
<title>Node38</title>
<g id="a_node38"><a xlink:href="spec_2deprecated_8h.html" target="_top" xlink:title="Macro for deprecated API definitions.">
<polygon fill="white" stroke="black" points="546.5,-62 546.5,-81 691.5,-81 691.5,-62 546.5,-62"/>
<text text-anchor="middle" x="619" y="-69" font-family="Helvetica,sans-Serif" font-size="10.00">odp/api/spec/deprecated.h</text>
</a>
</g>
</g>
<!-- Node37&#45;&gt;Node38 -->
<g id="edge58" class="edge">
<title>Node37&#45;&gt;Node38</title>
<path fill="none" stroke="midnightblue" d="M474.06,-492.36C454.33,-447.71 370.86,-240.62 463,-123 480.75,-100.35 508.8,-87.71 536.26,-80.71"/>
<polygon fill="midnightblue" stroke="midnightblue" points="537.37,-84.05 546.32,-78.38 535.79,-77.23 537.37,-84.05"/>
</g>
<!-- Node38&#45;&gt;Node3 -->
<g id="edge59" class="edge">
<title>Node38&#45;&gt;Node3</title>
<path fill="none" stroke="midnightblue" d="M679.61,-61.98C756.72,-51.13 889.68,-32.43 971.32,-20.94"/>
<polygon fill="midnightblue" stroke="midnightblue" points="972.09,-24.37 981.51,-19.51 971.12,-17.44 972.09,-24.37"/>
</g>
<!-- Node38&#45;&gt;Node7 -->
<g id="edge60" class="edge">
<title>Node38&#45;&gt;Node7</title>
<path fill="none" stroke="midnightblue" d="M580.75,-61.98C533.16,-51.37 451.89,-33.26 400.12,-21.72"/>
<polygon fill="midnightblue" stroke="midnightblue" points="400.71,-18.27 390.18,-19.51 399.18,-25.1 400.71,-18.27"/>
</g>
<!-- Node40 -->
<g id="node40" class="node">
<title>Node40</title>
<g id="a_node40"><a xlink:title=" ">
<polygon fill="white" stroke="#bfbfbf" points="1063,-291.5 1063,-321.5 1191,-321.5 1191,-291.5 1063,-291.5"/>
<text text-anchor="start" x="1071" y="-309.5" font-family="Helvetica,sans-Serif" font-size="10.00">odp/api/abi/proto_stats</text>
<text text-anchor="middle" x="1127" y="-298.5" font-family="Helvetica,sans-Serif" font-size="10.00">_types.h</text>
</a>
</g>
</g>
<!-- Node39&#45;&gt;Node40 -->
<g id="edge62" class="edge">
<title>Node39&#45;&gt;Node40</title>
<path fill="none" stroke="midnightblue" d="M1045.57,-358.4C1060.29,-349.2 1079.69,-337.07 1095.87,-326.95"/>
<polygon fill="midnightblue" stroke="midnightblue" points="1097.85,-329.84 1104.48,-321.58 1094.14,-323.91 1097.85,-329.84"/>
</g>
<!-- Node41 -->
<g id="node41" class="node">
<title>Node41</title>
<g id="a_node41"><a xlink:href="spec_2proto__stats__types_8h.html" target="_top" xlink:title="ODP proto stats types.">
<polygon fill="white" stroke="black" points="937.5,-291.5 937.5,-321.5 1044.5,-321.5 1044.5,-291.5 937.5,-291.5"/>
<text text-anchor="start" x="945.5" y="-309.5" font-family="Helvetica,sans-Serif" font-size="10.00">odp/api/spec/proto</text>
<text text-anchor="middle" x="991" y="-298.5" font-family="Helvetica,sans-Serif" font-size="10.00">_stats_types.h</text>
</a>
</g>
</g>
<!-- Node39&#45;&gt;Node41 -->
<g id="edge63" class="edge">
<title>Node39&#45;&gt;Node41</title>
<path fill="none" stroke="midnightblue" d="M1016.06,-358.4C1012.07,-350.3 1006.97,-339.94 1002.41,-330.69"/>
<polygon fill="midnightblue" stroke="midnightblue" points="1005.49,-329 997.93,-321.58 999.21,-332.09 1005.49,-329"/>
</g>
<!-- Node41&#45;&gt;Node3 -->
<g id="edge64" class="edge">
<title>Node41&#45;&gt;Node3</title>
<path fill="none" stroke="midnightblue" d="M1044.65,-292.5C1118.92,-272.9 1244,-233.46 1244,-190 1244,-190 1244,-190 1244,-132 1244,-93.62 1232.98,-79.96 1203,-56 1177.44,-35.57 1143.16,-24.41 1112.8,-18.31"/>
<polygon fill="midnightblue" stroke="midnightblue" points="1113.15,-14.81 1102.68,-16.43 1111.87,-21.7 1113.15,-14.81"/>
</g>
<!-- Node41&#45;&gt;Node7 -->
<g id="edge66" class="edge">
<title>Node41&#45;&gt;Node7</title>
<path fill="none" stroke="midnightblue" d="M972.79,-291.35C959.75,-281.23 941.8,-267.28 926,-255 861.99,-205.24 841.98,-197.55 782,-143 742.69,-107.25 747.33,-80.15 700,-56 652.17,-31.6 505.22,-19.47 418.32,-14.28"/>
<polygon fill="midnightblue" stroke="midnightblue" points="418.48,-10.78 408.29,-13.69 418.07,-17.77 418.48,-10.78"/>
</g>
<!-- Node41&#45;&gt;Node17 -->
<g id="edge65" class="edge">
<title>Node41&#45;&gt;Node17</title>
<path fill="none" stroke="midnightblue" d="M991,-291.4C991,-283.47 991,-273.46 991,-264.86"/>
<polygon fill="midnightblue" stroke="midnightblue" points="994.5,-264.66 991,-254.66 987.5,-264.66 994.5,-264.66"/>
</g>
</g>
</svg>
