<?xml version="1.0" encoding="UTF-8" standalone="no"?>
<!DOCTYPE svg PUBLIC "-//W3C//DTD SVG 1.1//EN"
 "http://www.w3.org/Graphics/SVG/1.1/DTD/svg11.dtd">
<!-- Generated by graphviz version 2.43.0 (0)
 -->
<!-- Title: ml_types.h Pages: 1 -->
<svg width="1163pt" height="588pt"
 viewBox="0.00 0.00 1163.00 588.00" xmlns="http://www.w3.org/2000/svg" xmlns:xlink="http://www.w3.org/1999/xlink">
<g id="graph0" class="graph" transform="scale(1 1) rotate(0) translate(4 584)">
<title>ml_types.h</title>
<polygon fill="white" stroke="transparent" points="-4,4 -4,-584 1159,-584 1159,4 -4,4"/>
<!-- Node1 -->
<g id="node1" class="node">
<title>Node1</title>
<g id="a_node1"><a xlink:title="ODP Machine Learning (ML) types.">
<polygon fill="#bfbfbf" stroke="black" points="307,-560.5 307,-579.5 378,-579.5 378,-560.5 307,-560.5"/>
<text text-anchor="middle" x="342.5" y="-567.5" font-family="Helvetica,sans-Serif" font-size="10.00">ml_types.h</text>
</a>
</g>
</g>
<!-- Node2 -->
<g id="node2" class="node">
<title>Node2</title>
<g id="a_node2"><a xlink:href="spec_2ml_8h.html" target="_top" xlink:title="ODP Machine Learning (ML) offload.">
<polygon fill="white" stroke="black" points="106.5,-392.5 106.5,-411.5 144.5,-411.5 144.5,-392.5 106.5,-392.5"/>
<text text-anchor="middle" x="125.5" y="-399.5" font-family="Helvetica,sans-Serif" font-size="10.00">ml.h</text>
</a>
</g>
</g>
<!-- Node1&#45;&gt;Node2 -->
<g id="edge1" class="edge">
<title>Node1&#45;&gt;Node2</title>
<path fill="none" stroke="midnightblue" d="M323.19,-554.23C279.02,-520.44 171.75,-438.38 136.75,-411.61"/>
<polygon fill="midnightblue" stroke="midnightblue" points="321.07,-557.01 331.14,-560.31 325.32,-551.45 321.07,-557.01"/>
</g>
<!-- Node4 -->
<g id="node4" class="node">
<title>Node4</title>
<g id="a_node4"><a xlink:href="spec_2pool__types_8h.html" target="_top" xlink:title="Type definitions for pools.">
<polygon fill="white" stroke="black" points="337,-504.5 337,-523.5 416,-523.5 416,-504.5 337,-504.5"/>
<text text-anchor="middle" x="376.5" y="-511.5" font-family="Helvetica,sans-Serif" font-size="10.00">pool_types.h</text>
</a>
</g>
</g>
<!-- Node1&#45;&gt;Node4 -->
<g id="edge3" class="edge">
<title>Node1&#45;&gt;Node4</title>
<path fill="none" stroke="midnightblue" d="M353.48,-551.57C359.33,-542.27 366.27,-531.25 370.99,-523.75"/>
<polygon fill="midnightblue" stroke="midnightblue" points="350.48,-549.76 348.11,-560.08 356.4,-553.49 350.48,-549.76"/>
</g>
<!-- Node3 -->
<g id="node3" class="node">
<title>Node3</title>
<g id="a_node3"><a xlink:href="ml_8h.html" target="_top" xlink:title="ODP Machine Learning (ML) offload.">
<polygon fill="white" stroke="black" points="106.5,-336.5 106.5,-355.5 144.5,-355.5 144.5,-336.5 106.5,-336.5"/>
<text text-anchor="middle" x="125.5" y="-343.5" font-family="Helvetica,sans-Serif" font-size="10.00">ml.h</text>
</a>
</g>
</g>
<!-- Node2&#45;&gt;Node3 -->
<g id="edge2" class="edge">
<title>Node2&#45;&gt;Node3</title>
<path fill="none" stroke="midnightblue" d="M125.5,-381.8C125.5,-372.91 125.5,-362.78 125.5,-355.75"/>
<polygon fill="midnightblue" stroke="midnightblue" points="122,-382.08 125.5,-392.08 129,-382.08 122,-382.08"/>
</g>
<!-- Node5 -->
<g id="node5" class="node">
<title>Node5</title>
<g id="a_node5"><a xlink:href="pool__types_8h.html" target="_top" xlink:title="ODP pool.">
<polygon fill="white" stroke="black" points="519,-448.5 519,-467.5 598,-467.5 598,-448.5 519,-448.5"/>
<text text-anchor="middle" x="558.5" y="-455.5" font-family="Helvetica,sans-Serif" font-size="10.00">pool_types.h</text>
</a>
</g>
</g>
<!-- Node4&#45;&gt;Node5 -->
<g id="edge4" class="edge">
<title>Node4&#45;&gt;Node5</title>
<path fill="none" stroke="midnightblue" d="M415.03,-501.57C449.36,-491.38 498.83,-476.7 529.8,-467.52"/>
<polygon fill="midnightblue" stroke="midnightblue" points="413.93,-498.24 405.34,-504.44 415.92,-504.95 413.93,-498.24"/>
</g>
<!-- Node5&#45;&gt;Node2 -->
<g id="edge34" class="edge">
<title>Node5&#45;&gt;Node2</title>
<path fill="none" stroke="midnightblue" d="M508.5,-453.86C432.4,-448.53 283.21,-435.87 158.5,-412 153.95,-411.13 149.11,-409.95 144.58,-408.74"/>
<polygon fill="midnightblue" stroke="midnightblue" points="508.52,-457.37 518.74,-454.57 509,-450.39 508.52,-457.37"/>
</g>
<!-- Node6 -->
<g id="node6" class="node">
<title>Node6</title>
<g id="a_node6"><a xlink:href="spec_2buffer_8h.html" target="_top" xlink:title="ODP buffer.">
<polygon fill="white" stroke="black" points="995,-392.5 995,-411.5 1048,-411.5 1048,-392.5 995,-392.5"/>
<text text-anchor="middle" x="1021.5" y="-399.5" font-family="Helvetica,sans-Serif" font-size="10.00">buffer.h</text>
</a>
</g>
</g>
<!-- Node5&#45;&gt;Node6 -->
<g id="edge5" class="edge">
<title>Node5&#45;&gt;Node6</title>
<path fill="none" stroke="midnightblue" d="M608.43,-453.46C687.66,-447.45 846.87,-433.72 980.5,-412 985.1,-411.25 989.97,-410.31 994.67,-409.33"/>
<polygon fill="midnightblue" stroke="midnightblue" points="607.97,-449.99 598.26,-454.22 608.49,-456.97 607.97,-449.99"/>
</g>
<!-- Node8 -->
<g id="node8" class="node">
<title>Node8</title>
<g id="a_node8"><a xlink:href="dma__inlines_8h_source.html" target="_top" xlink:title=" ">
<polygon fill="white" stroke="black" points="975,-280.5 975,-299.5 1060,-299.5 1060,-280.5 975,-280.5"/>
<text text-anchor="middle" x="1017.5" y="-287.5" font-family="Helvetica,sans-Serif" font-size="10.00">dma_inlines.h</text>
</a>
</g>
</g>
<!-- Node5&#45;&gt;Node8 -->
<g id="edge53" class="edge">
<title>Node5&#45;&gt;Node8</title>
<path fill="none" stroke="midnightblue" d="M608.14,-454.85C691.96,-450.52 857.39,-438.79 908.5,-412 934.92,-398.15 991.84,-324.93 1011.03,-299.62"/>
<polygon fill="midnightblue" stroke="midnightblue" points="607.91,-451.35 598.1,-455.35 608.26,-458.35 607.91,-451.35"/>
</g>
<!-- Node9 -->
<g id="node9" class="node">
<title>Node9</title>
<g id="a_node9"><a xlink:href="spec_2classification_8h.html" target="_top" xlink:title="ODP classification descriptor.">
<polygon fill="white" stroke="black" points="0,-280.5 0,-299.5 89,-299.5 89,-280.5 0,-280.5"/>
<text text-anchor="middle" x="44.5" y="-287.5" font-family="Helvetica,sans-Serif" font-size="10.00">classification.h</text>
</a>
</g>
</g>
<!-- Node5&#45;&gt;Node9 -->
<g id="edge8" class="edge">
<title>Node5&#45;&gt;Node9</title>
<path fill="none" stroke="midnightblue" d="M508.81,-456.6C420.66,-454.98 241.51,-447.29 191.5,-412 160.65,-390.22 181.15,-361.72 153.5,-336 133.79,-317.66 105.57,-306.29 82.78,-299.57"/>
<polygon fill="midnightblue" stroke="midnightblue" points="508.78,-460.1 518.83,-456.76 508.89,-453.1 508.78,-460.1"/>
</g>
<!-- Node18 -->
<g id="node18" class="node">
<title>Node18</title>
<g id="a_node18"><a xlink:href="spec_2crypto__types_8h.html" target="_top" xlink:title="ODP crypto types.">
<polygon fill="white" stroke="black" points="1066,-336.5 1066,-355.5 1155,-355.5 1155,-336.5 1066,-336.5"/>
<text text-anchor="middle" x="1110.5" y="-343.5" font-family="Helvetica,sans-Serif" font-size="10.00">crypto_types.h</text>
</a>
</g>
</g>
<!-- Node5&#45;&gt;Node18 -->
<g id="edge17" class="edge">
<title>Node5&#45;&gt;Node18</title>
<path fill="none" stroke="midnightblue" d="M608.58,-457.34C719.2,-457.32 980.67,-452.82 1057.5,-412 1081.67,-399.16 1098.93,-370.12 1106.39,-355.6"/>
<polygon fill="midnightblue" stroke="midnightblue" points="608.36,-453.84 598.36,-457.33 608.35,-460.84 608.36,-453.84"/>
</g>
<!-- Node23 -->
<g id="node23" class="node">
<title>Node23</title>
<g id="a_node23"><a xlink:href="spec_2dma_8h.html" target="_top" xlink:title="ODP DMA.">
<polygon fill="white" stroke="black" points="470,-392.5 470,-411.5 517,-411.5 517,-392.5 470,-392.5"/>
<text text-anchor="middle" x="493.5" y="-399.5" font-family="Helvetica,sans-Serif" font-size="10.00">dma.h</text>
</a>
</g>
</g>
<!-- Node5&#45;&gt;Node23 -->
<g id="edge24" class="edge">
<title>Node5&#45;&gt;Node23</title>
<path fill="none" stroke="midnightblue" d="M540.23,-441.82C528.58,-432.15 513.9,-419.95 504.13,-411.83"/>
<polygon fill="midnightblue" stroke="midnightblue" points="538.13,-444.63 548.06,-448.32 542.6,-439.24 538.13,-444.63"/>
</g>
<!-- Node25 -->
<g id="node25" class="node">
<title>Node25</title>
<g id="a_node25"><a xlink:href="spec_2event_8h.html" target="_top" xlink:title="ODP event.">
<polygon fill="white" stroke="black" points="399,-392.5 399,-411.5 452,-411.5 452,-392.5 399,-392.5"/>
<text text-anchor="middle" x="425.5" y="-399.5" font-family="Helvetica,sans-Serif" font-size="10.00">event.h</text>
</a>
</g>
</g>
<!-- Node5&#45;&gt;Node25 -->
<g id="edge26" class="edge">
<title>Node5&#45;&gt;Node25</title>
<path fill="none" stroke="midnightblue" d="M528.05,-444.64C503.09,-434.5 468.42,-420.43 446.48,-411.52"/>
<polygon fill="midnightblue" stroke="midnightblue" points="526.84,-447.92 537.43,-448.44 529.48,-441.44 526.84,-447.92"/>
</g>
<!-- Node27 -->
<g id="node27" class="node">
<title>Node27</title>
<g id="a_node27"><a xlink:href="buffer__inlines_8h_source.html" target="_top" xlink:title=" ">
<polygon fill="white" stroke="black" points="388.5,-280.5 388.5,-299.5 480.5,-299.5 480.5,-280.5 388.5,-280.5"/>
<text text-anchor="middle" x="434.5" y="-287.5" font-family="Helvetica,sans-Serif" font-size="10.00">buffer_inlines.h</text>
</a>
</g>
</g>
<!-- Node5&#45;&gt;Node27 -->
<g id="edge52" class="edge">
<title>Node5&#45;&gt;Node27</title>
<path fill="none" stroke="midnightblue" d="M508.56,-450.47C464.13,-443.51 404,-430.87 389.5,-412 361.77,-375.93 406.32,-320.98 425.95,-299.77"/>
<polygon fill="midnightblue" stroke="midnightblue" points="508.22,-453.95 518.63,-451.99 509.26,-447.03 508.22,-453.95"/>
</g>
<!-- Node28 -->
<g id="node28" class="node">
<title>Node28</title>
<g id="a_node28"><a xlink:href="packet__inlines_8h.html" target="_top" xlink:title="Packet inline functions.">
<polygon fill="white" stroke="black" points="688,-280.5 688,-299.5 783,-299.5 783,-280.5 688,-280.5"/>
<text text-anchor="middle" x="735.5" y="-287.5" font-family="Helvetica,sans-Serif" font-size="10.00">packet_inlines.h</text>
</a>
</g>
</g>
<!-- Node5&#45;&gt;Node28 -->
<g id="edge55" class="edge">
<title>Node5&#45;&gt;Node28</title>
<path fill="none" stroke="midnightblue" d="M608.53,-457.4C688.14,-456.85 838.08,-450.57 871.5,-412 912.48,-364.71 808.71,-318.19 759.59,-299.54"/>
<polygon fill="midnightblue" stroke="midnightblue" points="608.24,-453.9 598.25,-457.44 608.27,-460.9 608.24,-453.9"/>
</g>
<!-- Node29 -->
<g id="node29" class="node">
<title>Node29</title>
<g id="a_node29"><a xlink:href="packet__vector__inlines_8h.html" target="_top" xlink:title="Packet vector inline functions.">
<polygon fill="white" stroke="black" points="818,-280.5 818,-299.5 949,-299.5 949,-280.5 818,-280.5"/>
<text text-anchor="middle" x="883.5" y="-287.5" font-family="Helvetica,sans-Serif" font-size="10.00">packet_vector_inlines.h</text>
</a>
</g>
</g>
<!-- Node5&#45;&gt;Node29 -->
<g id="edge56" class="edge">
<title>Node5&#45;&gt;Node29</title>
<path fill="none" stroke="midnightblue" d="M608.3,-457.85C691.6,-458.09 853.6,-453.11 889.5,-412 917.86,-379.52 896.95,-321.47 887.5,-299.63"/>
<polygon fill="midnightblue" stroke="midnightblue" points="608.08,-454.35 598.06,-457.8 608.04,-461.35 608.08,-454.35"/>
</g>
<!-- Node31 -->
<g id="node31" class="node">
<title>Node31</title>
<g id="a_node31"><a xlink:href="spec_2packet_8h.html" target="_top" xlink:title="ODP packet descriptor.">
<polygon fill="white" stroke="black" points="312.5,-280.5 312.5,-299.5 370.5,-299.5 370.5,-280.5 312.5,-280.5"/>
<text text-anchor="middle" x="341.5" y="-287.5" font-family="Helvetica,sans-Serif" font-size="10.00">packet.h</text>
</a>
</g>
</g>
<!-- Node5&#45;&gt;Node31 -->
<g id="edge35" class="edge">
<title>Node5&#45;&gt;Node31</title>
<path fill="none" stroke="midnightblue" d="M508.94,-450.28C462.07,-442.96 396.2,-429.87 377.5,-412 345.02,-380.96 341.47,-322.04 341.35,-299.8"/>
<polygon fill="midnightblue" stroke="midnightblue" points="508.51,-453.76 518.92,-451.8 509.56,-446.84 508.51,-453.76"/>
</g>
<!-- Node33 -->
<g id="node33" class="node">
<title>Node33</title>
<g id="a_node33"><a xlink:href="spec_2packet__io__types_8h.html" target="_top" xlink:title="ODP Packet IO types.">
<polygon fill="white" stroke="black" points="200.5,-392.5 200.5,-411.5 304.5,-411.5 304.5,-392.5 200.5,-392.5"/>
<text text-anchor="middle" x="252.5" y="-399.5" font-family="Helvetica,sans-Serif" font-size="10.00">packet_io_types.h</text>
</a>
</g>
</g>
<!-- Node5&#45;&gt;Node33 -->
<g id="edge39" class="edge">
<title>Node5&#45;&gt;Node33</title>
<path fill="none" stroke="midnightblue" d="M508.88,-448.24C451.44,-438.11 357.5,-421.53 300.68,-411.5"/>
<polygon fill="midnightblue" stroke="midnightblue" points="508.35,-451.7 518.81,-450 509.57,-444.81 508.35,-451.7"/>
</g>
<!-- Node37 -->
<g id="node37" class="node">
<title>Node37</title>
<g id="a_node37"><a xlink:href="spec_2pool_8h.html" target="_top" xlink:title="ODP pool.">
<polygon fill="white" stroke="black" points="535,-392.5 535,-411.5 582,-411.5 582,-392.5 535,-392.5"/>
<text text-anchor="middle" x="558.5" y="-399.5" font-family="Helvetica,sans-Serif" font-size="10.00">pool.h</text>
</a>
</g>
</g>
<!-- Node5&#45;&gt;Node37 -->
<g id="edge48" class="edge">
<title>Node5&#45;&gt;Node37</title>
<path fill="none" stroke="midnightblue" d="M558.5,-437.8C558.5,-428.91 558.5,-418.78 558.5,-411.75"/>
<polygon fill="midnightblue" stroke="midnightblue" points="555,-438.08 558.5,-448.08 562,-438.08 555,-438.08"/>
</g>
<!-- Node39 -->
<g id="node39" class="node">
<title>Node39</title>
<g id="a_node39"><a xlink:href="spec_2timer_8h.html" target="_top" xlink:title="ODP timer service.">
<polygon fill="white" stroke="black" points="600,-392.5 600,-411.5 651,-411.5 651,-392.5 600,-392.5"/>
<text text-anchor="middle" x="625.5" y="-399.5" font-family="Helvetica,sans-Serif" font-size="10.00">timer.h</text>
</a>
</g>
</g>
<!-- Node5&#45;&gt;Node39 -->
<g id="edge50" class="edge">
<title>Node5&#45;&gt;Node39</title>
<path fill="none" stroke="midnightblue" d="M577.33,-441.82C589.34,-432.15 604.47,-419.95 614.54,-411.83"/>
<polygon fill="midnightblue" stroke="midnightblue" points="574.85,-439.32 569.26,-448.32 579.25,-444.77 574.85,-439.32"/>
</g>
<!-- Node41 -->
<g id="node41" class="node">
<title>Node41</title>
<g id="a_node41"><a xlink:href="event__inlines_8h_source.html" target="_top" xlink:title=" ">
<polygon fill="white" stroke="black" points="669,-392.5 669,-411.5 760,-411.5 760,-392.5 669,-392.5"/>
<text text-anchor="middle" x="714.5" y="-399.5" font-family="Helvetica,sans-Serif" font-size="10.00">event_inlines.h</text>
</a>
</g>
</g>
<!-- Node5&#45;&gt;Node41 -->
<g id="edge54" class="edge">
<title>Node5&#45;&gt;Node41</title>
<path fill="none" stroke="midnightblue" d="M592.67,-445.17C622.04,-435 663.7,-420.59 689.9,-411.52"/>
<polygon fill="midnightblue" stroke="midnightblue" points="591.52,-441.86 583.22,-448.44 593.81,-448.48 591.52,-441.86"/>
</g>
<!-- Node42 -->
<g id="node42" class="node">
<title>Node42</title>
<g id="a_node42"><a xlink:href="pool__inlines_8h_source.html" target="_top" xlink:title=" ">
<polygon fill="white" stroke="black" points="778.5,-392.5 778.5,-411.5 862.5,-411.5 862.5,-392.5 778.5,-392.5"/>
<text text-anchor="middle" x="820.5" y="-399.5" font-family="Helvetica,sans-Serif" font-size="10.00">pool_inlines.h</text>
</a>
</g>
</g>
<!-- Node5&#45;&gt;Node42 -->
<g id="edge57" class="edge">
<title>Node5&#45;&gt;Node42</title>
<path fill="none" stroke="midnightblue" d="M607.84,-446.83C657.25,-436.65 732.46,-421.14 778.94,-411.57"/>
<polygon fill="midnightblue" stroke="midnightblue" points="607.1,-443.41 598.01,-448.86 608.51,-450.27 607.1,-443.41"/>
</g>
<!-- Node7 -->
<g id="node7" class="node">
<title>Node7</title>
<g id="a_node7"><a xlink:href="buffer_8h.html" target="_top" xlink:title="ODP buffer descriptor.">
<polygon fill="white" stroke="black" points="995,-336.5 995,-355.5 1048,-355.5 1048,-336.5 995,-336.5"/>
<text text-anchor="middle" x="1021.5" y="-343.5" font-family="Helvetica,sans-Serif" font-size="10.00">buffer.h</text>
</a>
</g>
</g>
<!-- Node6&#45;&gt;Node7 -->
<g id="edge6" class="edge">
<title>Node6&#45;&gt;Node7</title>
<path fill="none" stroke="midnightblue" d="M1021.5,-381.8C1021.5,-372.91 1021.5,-362.78 1021.5,-355.75"/>
<polygon fill="midnightblue" stroke="midnightblue" points="1018,-382.08 1021.5,-392.08 1025,-382.08 1018,-382.08"/>
</g>
<!-- Node7&#45;&gt;Node8 -->
<g id="edge7" class="edge">
<title>Node7&#45;&gt;Node8</title>
<path fill="none" stroke="midnightblue" d="M1020.1,-326.1C1019.44,-317.14 1018.67,-306.86 1018.15,-299.75"/>
<polygon fill="midnightblue" stroke="midnightblue" points="1016.61,-326.37 1020.84,-336.08 1023.59,-325.85 1016.61,-326.37"/>
</g>
<!-- Node10 -->
<g id="node10" class="node">
<title>Node10</title>
<g id="a_node10"><a xlink:href="classification_8h.html" target="_top" xlink:title="ODP classification descriptor.">
<polygon fill="white" stroke="black" points="92,-224.5 92,-243.5 181,-243.5 181,-224.5 92,-224.5"/>
<text text-anchor="middle" x="136.5" y="-231.5" font-family="Helvetica,sans-Serif" font-size="10.00">classification.h</text>
</a>
</g>
</g>
<!-- Node9&#45;&gt;Node10 -->
<g id="edge9" class="edge">
<title>Node9&#45;&gt;Node10</title>
<path fill="none" stroke="midnightblue" d="M68.05,-275.18C84.98,-265.24 107.28,-252.15 121.76,-243.65"/>
<polygon fill="midnightblue" stroke="midnightblue" points="66.13,-272.24 59.28,-280.32 69.68,-278.28 66.13,-272.24"/>
</g>
<!-- Node11 -->
<g id="node11" class="node">
<title>Node11</title>
<g id="a_node11"><a xlink:href="spec_2ipsec__types_8h.html" target="_top" xlink:title="ODP IPsec API type definitions.">
<polygon fill="white" stroke="black" points="238,-168.5 238,-187.5 321,-187.5 321,-168.5 238,-168.5"/>
<text text-anchor="middle" x="279.5" y="-175.5" font-family="Helvetica,sans-Serif" font-size="10.00">ipsec_types.h</text>
</a>
</g>
</g>
<!-- Node10&#45;&gt;Node11 -->
<g id="edge10" class="edge">
<title>Node10&#45;&gt;Node11</title>
<path fill="none" stroke="midnightblue" d="M168.53,-220.91C195.41,-210.75 233.14,-196.51 256.95,-187.52"/>
<polygon fill="midnightblue" stroke="midnightblue" points="167.28,-217.64 159.16,-224.44 169.75,-224.19 167.28,-217.64"/>
</g>
<!-- Node16 -->
<g id="node16" class="node">
<title>Node16</title>
<g id="a_node16"><a xlink:href="spec_2packet__io_8h.html" target="_top" xlink:title="ODP Packet IO.">
<polygon fill="white" stroke="black" points="64.5,-168.5 64.5,-187.5 136.5,-187.5 136.5,-168.5 64.5,-168.5"/>
<text text-anchor="middle" x="100.5" y="-175.5" font-family="Helvetica,sans-Serif" font-size="10.00">packet_io.h</text>
</a>
</g>
</g>
<!-- Node10&#45;&gt;Node16 -->
<g id="edge15" class="edge">
<title>Node10&#45;&gt;Node16</title>
<path fill="none" stroke="midnightblue" d="M124.88,-215.57C118.68,-206.27 111.33,-195.25 106.33,-187.75"/>
<polygon fill="midnightblue" stroke="midnightblue" points="122.1,-217.7 130.56,-224.08 127.92,-213.82 122.1,-217.7"/>
</g>
<!-- Node12 -->
<g id="node12" class="node">
<title>Node12</title>
<g id="a_node12"><a xlink:href="ipsec__types_8h.html" target="_top" xlink:title="ODP IPsec.">
<polygon fill="white" stroke="black" points="537,-112.5 537,-131.5 620,-131.5 620,-112.5 537,-112.5"/>
<text text-anchor="middle" x="578.5" y="-119.5" font-family="Helvetica,sans-Serif" font-size="10.00">ipsec_types.h</text>
</a>
</g>
</g>
<!-- Node11&#45;&gt;Node12 -->
<g id="edge11" class="edge">
<title>Node11&#45;&gt;Node12</title>
<path fill="none" stroke="midnightblue" d="M331.17,-167.67C389.42,-157.15 483,-140.25 536.8,-130.53"/>
<polygon fill="midnightblue" stroke="midnightblue" points="330.29,-164.27 321.07,-169.49 331.54,-171.16 330.29,-164.27"/>
</g>
<!-- Node13 -->
<g id="node13" class="node">
<title>Node13</title>
<g id="a_node13"><a xlink:href="spec_2ipsec_8h.html" target="_top" xlink:title="ODP IPsec API.">
<polygon fill="white" stroke="black" points="608,-56.5 608,-75.5 659,-75.5 659,-56.5 608,-56.5"/>
<text text-anchor="middle" x="633.5" y="-63.5" font-family="Helvetica,sans-Serif" font-size="10.00">ipsec.h</text>
</a>
</g>
</g>
<!-- Node12&#45;&gt;Node13 -->
<g id="edge12" class="edge">
<title>Node12&#45;&gt;Node13</title>
<path fill="none" stroke="midnightblue" d="M594.79,-105C604.54,-95.43 616.55,-83.64 624.59,-75.75"/>
<polygon fill="midnightblue" stroke="midnightblue" points="592.27,-102.58 587.58,-112.08 597.17,-107.57 592.27,-102.58"/>
</g>
<!-- Node15 -->
<g id="node15" class="node">
<title>Node15</title>
<g id="a_node15"><a xlink:href="ipsec__inlines_8h_source.html" target="_top" xlink:title=" ">
<polygon fill="white" stroke="black" points="464,-56.5 464,-75.5 553,-75.5 553,-56.5 464,-56.5"/>
<text text-anchor="middle" x="508.5" y="-63.5" font-family="Helvetica,sans-Serif" font-size="10.00">ipsec_inlines.h</text>
</a>
</g>
</g>
<!-- Node12&#45;&gt;Node15 -->
<g id="edge14" class="edge">
<title>Node12&#45;&gt;Node15</title>
<path fill="none" stroke="midnightblue" d="M559.19,-106.1C546.59,-96.38 530.57,-84.03 519.95,-75.83"/>
<polygon fill="midnightblue" stroke="midnightblue" points="557.2,-108.99 567.25,-112.32 561.47,-103.44 557.2,-108.99"/>
</g>
<!-- Node14 -->
<g id="node14" class="node">
<title>Node14</title>
<g id="a_node14"><a xlink:href="ipsec_8h.html" target="_top" xlink:title="ODP IPSEC API &#45; platform specific header.">
<polygon fill="white" stroke="black" points="608,-0.5 608,-19.5 659,-19.5 659,-0.5 608,-0.5"/>
<text text-anchor="middle" x="633.5" y="-7.5" font-family="Helvetica,sans-Serif" font-size="10.00">ipsec.h</text>
</a>
</g>
</g>
<!-- Node13&#45;&gt;Node14 -->
<g id="edge13" class="edge">
<title>Node13&#45;&gt;Node14</title>
<path fill="none" stroke="midnightblue" d="M633.5,-45.8C633.5,-36.91 633.5,-26.78 633.5,-19.75"/>
<polygon fill="midnightblue" stroke="midnightblue" points="630,-46.08 633.5,-56.08 637,-46.08 630,-46.08"/>
</g>
<!-- Node17 -->
<g id="node17" class="node">
<title>Node17</title>
<g id="a_node17"><a xlink:href="packet__io_8h.html" target="_top" xlink:title="ODP Packet IO.">
<polygon fill="white" stroke="black" points="64.5,-112.5 64.5,-131.5 136.5,-131.5 136.5,-112.5 64.5,-112.5"/>
<text text-anchor="middle" x="100.5" y="-119.5" font-family="Helvetica,sans-Serif" font-size="10.00">packet_io.h</text>
</a>
</g>
</g>
<!-- Node16&#45;&gt;Node17 -->
<g id="edge16" class="edge">
<title>Node16&#45;&gt;Node17</title>
<path fill="none" stroke="midnightblue" d="M100.5,-157.8C100.5,-148.91 100.5,-138.78 100.5,-131.75"/>
<polygon fill="midnightblue" stroke="midnightblue" points="97,-158.08 100.5,-168.08 104,-158.08 97,-158.08"/>
</g>
<!-- Node19 -->
<g id="node19" class="node">
<title>Node19</title>
<g id="a_node19"><a xlink:href="crypto__types_8h.html" target="_top" xlink:title="ODP crypto.">
<polygon fill="white" stroke="black" points="683,-224.5 683,-243.5 772,-243.5 772,-224.5 683,-224.5"/>
<text text-anchor="middle" x="727.5" y="-231.5" font-family="Helvetica,sans-Serif" font-size="10.00">crypto_types.h</text>
</a>
</g>
</g>
<!-- Node18&#45;&gt;Node19 -->
<g id="edge18" class="edge">
<title>Node18&#45;&gt;Node19</title>
<path fill="none" stroke="midnightblue" d="M1104.04,-326.69C1097.7,-311.56 1086.48,-290.87 1069.5,-280 1021.14,-249.04 853.35,-239.21 772.18,-236.23"/>
<polygon fill="midnightblue" stroke="midnightblue" points="1100.8,-328.01 1107.67,-336.08 1107.34,-325.49 1100.8,-328.01"/>
</g>
<!-- Node19&#45;&gt;Node11 -->
<g id="edge22" class="edge">
<title>Node19&#45;&gt;Node11</title>
<path fill="none" stroke="midnightblue" d="M672.83,-226.41C582.16,-215.48 402.63,-193.84 321.29,-184.04"/>
<polygon fill="midnightblue" stroke="midnightblue" points="672.56,-229.9 682.91,-227.62 673.4,-222.95 672.56,-229.9"/>
</g>
<!-- Node19&#45;&gt;Node13 -->
<g id="edge21" class="edge">
<title>Node19&#45;&gt;Node13</title>
<path fill="none" stroke="midnightblue" d="M717.48,-215.31C697.44,-179.92 653.07,-101.56 638.35,-75.57"/>
<polygon fill="midnightblue" stroke="midnightblue" points="714.47,-217.1 722.45,-224.08 720.56,-213.65 714.47,-217.1"/>
</g>
<!-- Node20 -->
<g id="node20" class="node">
<title>Node20</title>
<g id="a_node20"><a xlink:href="spec_2crypto_8h.html" target="_top" xlink:title="ODP crypto.">
<polygon fill="white" stroke="black" points="727.5,-168.5 727.5,-187.5 783.5,-187.5 783.5,-168.5 727.5,-168.5"/>
<text text-anchor="middle" x="755.5" y="-175.5" font-family="Helvetica,sans-Serif" font-size="10.00">crypto.h</text>
</a>
</g>
</g>
<!-- Node19&#45;&gt;Node20 -->
<g id="edge19" class="edge">
<title>Node19&#45;&gt;Node20</title>
<path fill="none" stroke="midnightblue" d="M736.84,-214.98C741.59,-205.82 747.16,-195.09 750.96,-187.75"/>
<polygon fill="midnightblue" stroke="midnightblue" points="733.62,-213.59 732.12,-224.08 739.83,-216.82 733.62,-213.59"/>
</g>
<!-- Node22 -->
<g id="node22" class="node">
<title>Node22</title>
<g id="a_node22"><a xlink:href="crypto__inlines_8h_source.html" target="_top" xlink:title=" ">
<polygon fill="white" stroke="black" points="577.5,-168.5 577.5,-187.5 671.5,-187.5 671.5,-168.5 577.5,-168.5"/>
<text text-anchor="middle" x="624.5" y="-175.5" font-family="Helvetica,sans-Serif" font-size="10.00">crypto_inlines.h</text>
</a>
</g>
</g>
<!-- Node19&#45;&gt;Node22 -->
<g id="edge23" class="edge">
<title>Node19&#45;&gt;Node22</title>
<path fill="none" stroke="midnightblue" d="M701.92,-219.59C682.88,-209.61 657.44,-196.27 641.01,-187.65"/>
<polygon fill="midnightblue" stroke="midnightblue" points="700.47,-222.78 710.95,-224.32 703.72,-216.58 700.47,-222.78"/>
</g>
<!-- Node21 -->
<g id="node21" class="node">
<title>Node21</title>
<g id="a_node21"><a xlink:href="crypto_8h.html" target="_top" xlink:title="ODP crypto.">
<polygon fill="white" stroke="black" points="727.5,-112.5 727.5,-131.5 783.5,-131.5 783.5,-112.5 727.5,-112.5"/>
<text text-anchor="middle" x="755.5" y="-119.5" font-family="Helvetica,sans-Serif" font-size="10.00">crypto.h</text>
</a>
</g>
</g>
<!-- Node20&#45;&gt;Node21 -->
<g id="edge20" class="edge">
<title>Node20&#45;&gt;Node21</title>
<path fill="none" stroke="midnightblue" d="M755.5,-157.8C755.5,-148.91 755.5,-138.78 755.5,-131.75"/>
<polygon fill="midnightblue" stroke="midnightblue" points="752,-158.08 755.5,-168.08 759,-158.08 752,-158.08"/>
</g>
<!-- Node24 -->
<g id="node24" class="node">
<title>Node24</title>
<g id="a_node24"><a xlink:href="dma_8h.html" target="_top" xlink:title="ODP DMA.">
<polygon fill="white" stroke="black" points="516,-336.5 516,-355.5 563,-355.5 563,-336.5 516,-336.5"/>
<text text-anchor="middle" x="539.5" y="-343.5" font-family="Helvetica,sans-Serif" font-size="10.00">dma.h</text>
</a>
</g>
</g>
<!-- Node23&#45;&gt;Node24 -->
<g id="edge25" class="edge">
<title>Node23&#45;&gt;Node24</title>
<path fill="none" stroke="midnightblue" d="M507.61,-384.43C515.68,-374.97 525.46,-363.48 532.05,-355.75"/>
<polygon fill="midnightblue" stroke="midnightblue" points="504.92,-382.2 501.1,-392.08 510.25,-386.74 504.92,-382.2"/>
</g>
<!-- Node26 -->
<g id="node26" class="node">
<title>Node26</title>
<g id="a_node26"><a xlink:href="event_8h.html" target="_top" xlink:title="ODP event.">
<polygon fill="white" stroke="black" points="445,-336.5 445,-355.5 498,-355.5 498,-336.5 445,-336.5"/>
<text text-anchor="middle" x="471.5" y="-343.5" font-family="Helvetica,sans-Serif" font-size="10.00">event.h</text>
</a>
</g>
</g>
<!-- Node25&#45;&gt;Node26 -->
<g id="edge27" class="edge">
<title>Node25&#45;&gt;Node26</title>
<path fill="none" stroke="midnightblue" d="M439.61,-384.43C447.68,-374.97 457.46,-363.48 464.05,-355.75"/>
<polygon fill="midnightblue" stroke="midnightblue" points="436.92,-382.2 433.1,-392.08 442.25,-386.74 436.92,-382.2"/>
</g>
<!-- Node26&#45;&gt;Node15 -->
<g id="edge30" class="edge">
<title>Node26&#45;&gt;Node15</title>
<path fill="none" stroke="midnightblue" d="M481.36,-327.43C492.32,-306.21 508.5,-269.11 508.5,-235 508.5,-235 508.5,-235 508.5,-177 508.5,-139.19 508.5,-94.06 508.5,-75.56"/>
<polygon fill="midnightblue" stroke="midnightblue" points="478.14,-326.02 476.49,-336.49 484.31,-329.34 478.14,-326.02"/>
</g>
<!-- Node26&#45;&gt;Node22 -->
<g id="edge29" class="edge">
<title>Node26&#45;&gt;Node22</title>
<path fill="none" stroke="midnightblue" d="M508.29,-335.43C555.76,-323 632.54,-302.58 634.5,-300 660.55,-265.79 638.73,-209.26 628.79,-187.71"/>
<polygon fill="midnightblue" stroke="midnightblue" points="507.15,-332.11 498.36,-338.03 508.92,-338.89 507.15,-332.11"/>
</g>
<!-- Node26&#45;&gt;Node27 -->
<g id="edge28" class="edge">
<title>Node26&#45;&gt;Node27</title>
<path fill="none" stroke="midnightblue" d="M459.55,-327.57C453.19,-318.27 445.63,-307.25 440.5,-299.75"/>
<polygon fill="midnightblue" stroke="midnightblue" points="456.85,-329.81 465.39,-336.08 462.63,-325.86 456.85,-329.81"/>
</g>
<!-- Node26&#45;&gt;Node28 -->
<g id="edge31" class="edge">
<title>Node26&#45;&gt;Node28</title>
<path fill="none" stroke="midnightblue" d="M508.17,-335.71C575.68,-320.57 643.71,-307.63 687.97,-299.51"/>
<polygon fill="midnightblue" stroke="midnightblue" points="507.2,-332.34 498.21,-337.96 508.74,-339.17 507.2,-332.34"/>
</g>
<!-- Node26&#45;&gt;Node29 -->
<g id="edge32" class="edge">
<title>Node26&#45;&gt;Node29</title>
<path fill="none" stroke="midnightblue" d="M508.12,-335.94C579.56,-323.48 730.45,-306.96 817.82,-297.77"/>
<polygon fill="midnightblue" stroke="midnightblue" points="507.38,-332.52 498.17,-337.75 508.64,-339.41 507.38,-332.52"/>
</g>
<!-- Node30 -->
<g id="node30" class="node">
<title>Node30</title>
<g id="a_node30"><a xlink:href="timer__inlines_8h_source.html" target="_top" xlink:title=" ">
<polygon fill="white" stroke="black" points="537,-280.5 537,-299.5 626,-299.5 626,-280.5 537,-280.5"/>
<text text-anchor="middle" x="581.5" y="-287.5" font-family="Helvetica,sans-Serif" font-size="10.00">timer_inlines.h</text>
</a>
</g>
</g>
<!-- Node26&#45;&gt;Node30 -->
<g id="edge33" class="edge">
<title>Node26&#45;&gt;Node30</title>
<path fill="none" stroke="midnightblue" d="M498.26,-331.86C518.66,-321.85 546.17,-308.35 563.87,-299.65"/>
<polygon fill="midnightblue" stroke="midnightblue" points="496.61,-328.78 489.17,-336.32 499.69,-335.06 496.61,-328.78"/>
</g>
<!-- Node32 -->
<g id="node32" class="node">
<title>Node32</title>
<g id="a_node32"><a xlink:href="packet_8h.html" target="_top" xlink:title="ODP packet descriptor.">
<polygon fill="white" stroke="black" points="422.5,-224.5 422.5,-243.5 480.5,-243.5 480.5,-224.5 422.5,-224.5"/>
<text text-anchor="middle" x="451.5" y="-231.5" font-family="Helvetica,sans-Serif" font-size="10.00">packet.h</text>
</a>
</g>
</g>
<!-- Node31&#45;&gt;Node32 -->
<g id="edge36" class="edge">
<title>Node31&#45;&gt;Node32</title>
<path fill="none" stroke="midnightblue" d="M368.26,-275.86C388.66,-265.85 416.17,-252.35 433.87,-243.65"/>
<polygon fill="midnightblue" stroke="midnightblue" points="366.61,-272.78 359.17,-280.32 369.69,-279.06 366.61,-272.78"/>
</g>
<!-- Node32&#45;&gt;Node15 -->
<g id="edge38" class="edge">
<title>Node32&#45;&gt;Node15</title>
<path fill="none" stroke="midnightblue" d="M457.89,-214.39C470.18,-178.59 496.71,-101.34 505.56,-75.57"/>
<polygon fill="midnightblue" stroke="midnightblue" points="454.5,-213.48 454.56,-224.08 461.12,-215.75 454.5,-213.48"/>
</g>
<!-- Node32&#45;&gt;Node22 -->
<g id="edge37" class="edge">
<title>Node32&#45;&gt;Node22</title>
<path fill="none" stroke="midnightblue" d="M488.55,-221.44C521.16,-211.26 567.91,-196.66 597.22,-187.52"/>
<polygon fill="midnightblue" stroke="midnightblue" points="487.42,-218.12 478.91,-224.44 489.5,-224.8 487.42,-218.12"/>
</g>
<!-- Node34 -->
<g id="node34" class="node">
<title>Node34</title>
<g id="a_node34"><a xlink:href="packet__io__types_8h.html" target="_top" xlink:title="ODP Packet IO.">
<polygon fill="white" stroke="black" points="200.5,-336.5 200.5,-355.5 304.5,-355.5 304.5,-336.5 200.5,-336.5"/>
<text text-anchor="middle" x="252.5" y="-343.5" font-family="Helvetica,sans-Serif" font-size="10.00">packet_io_types.h</text>
</a>
</g>
</g>
<!-- Node33&#45;&gt;Node34 -->
<g id="edge40" class="edge">
<title>Node33&#45;&gt;Node34</title>
<path fill="none" stroke="midnightblue" d="M252.5,-381.8C252.5,-372.91 252.5,-362.78 252.5,-355.75"/>
<polygon fill="midnightblue" stroke="midnightblue" points="249,-382.08 252.5,-392.08 256,-382.08 249,-382.08"/>
</g>
<!-- Node34&#45;&gt;Node9 -->
<g id="edge41" class="edge">
<title>Node34&#45;&gt;Node9</title>
<path fill="none" stroke="midnightblue" d="M209.72,-333.89C170.44,-323.7 113.07,-308.8 77.3,-299.52"/>
<polygon fill="midnightblue" stroke="midnightblue" points="208.98,-337.32 219.54,-336.44 210.74,-330.54 208.98,-337.32"/>
</g>
<!-- Node34&#45;&gt;Node11 -->
<g id="edge42" class="edge">
<title>Node34&#45;&gt;Node11</title>
<path fill="none" stroke="midnightblue" d="M228.38,-330.47C218.06,-322.83 207.12,-312.44 201.5,-300 197.84,-291.9 199.52,-288.67 201.5,-280 207.65,-253.06 211.81,-246.02 228.5,-224 239.63,-209.32 256.13,-195.82 267.33,-187.51"/>
<polygon fill="midnightblue" stroke="midnightblue" points="226.54,-333.46 236.77,-336.24 230.51,-327.69 226.54,-333.46"/>
</g>
<!-- Node34&#45;&gt;Node16 -->
<g id="edge44" class="edge">
<title>Node34&#45;&gt;Node16</title>
<path fill="none" stroke="midnightblue" d="M210.39,-333.26C169.49,-319.36 109.71,-291.82 82.5,-244 71.96,-225.48 85.5,-200.44 94.22,-187.51"/>
<polygon fill="midnightblue" stroke="midnightblue" points="209.5,-336.65 220.09,-336.42 211.67,-329.99 209.5,-336.65"/>
</g>
<!-- Node34&#45;&gt;Node31 -->
<g id="edge43" class="edge">
<title>Node34&#45;&gt;Node31</title>
<path fill="none" stroke="midnightblue" d="M275.74,-330.9C292.06,-321 313.37,-308.07 327.24,-299.65"/>
<polygon fill="midnightblue" stroke="midnightblue" points="273.53,-328.14 266.8,-336.32 277.16,-334.13 273.53,-328.14"/>
</g>
<!-- Node35 -->
<g id="node35" class="node">
<title>Node35</title>
<g id="a_node35"><a xlink:href="spec_2traffic__mngr_8h.html" target="_top" xlink:title=" ">
<polygon fill="white" stroke="black" points="210.5,-280.5 210.5,-299.5 294.5,-299.5 294.5,-280.5 210.5,-280.5"/>
<text text-anchor="middle" x="252.5" y="-287.5" font-family="Helvetica,sans-Serif" font-size="10.00">traffic_mngr.h</text>
</a>
</g>
</g>
<!-- Node34&#45;&gt;Node35 -->
<g id="edge45" class="edge">
<title>Node34&#45;&gt;Node35</title>
<path fill="none" stroke="midnightblue" d="M252.5,-325.8C252.5,-316.91 252.5,-306.78 252.5,-299.75"/>
<polygon fill="midnightblue" stroke="midnightblue" points="249,-326.08 252.5,-336.08 256,-326.08 249,-326.08"/>
</g>
<!-- Node36 -->
<g id="node36" class="node">
<title>Node36</title>
<g id="a_node36"><a xlink:href="traffic__mngr_8h.html" target="_top" xlink:title="ODP Traffic manager.">
<polygon fill="white" stroke="black" points="237.5,-224.5 237.5,-243.5 321.5,-243.5 321.5,-224.5 237.5,-224.5"/>
<text text-anchor="middle" x="279.5" y="-231.5" font-family="Helvetica,sans-Serif" font-size="10.00">traffic_mngr.h</text>
</a>
</g>
</g>
<!-- Node35&#45;&gt;Node36 -->
<g id="edge46" class="edge">
<title>Node35&#45;&gt;Node36</title>
<path fill="none" stroke="midnightblue" d="M261.51,-270.98C266.09,-261.82 271.45,-251.09 275.12,-243.75"/>
<polygon fill="midnightblue" stroke="midnightblue" points="258.3,-269.57 256.96,-280.08 264.56,-272.7 258.3,-269.57"/>
</g>
<!-- Node36&#45;&gt;Node11 -->
<g id="edge47" class="edge">
<title>Node36&#45;&gt;Node11</title>
<path fill="none" stroke="midnightblue" d="M279.5,-213.8C279.5,-204.91 279.5,-194.78 279.5,-187.75"/>
<polygon fill="midnightblue" stroke="midnightblue" points="276,-214.08 279.5,-224.08 283,-214.08 276,-214.08"/>
</g>
<!-- Node38 -->
<g id="node38" class="node">
<title>Node38</title>
<g id="a_node38"><a xlink:href="pool_8h.html" target="_top" xlink:title="ODP pool.">
<polygon fill="white" stroke="black" points="581,-336.5 581,-355.5 628,-355.5 628,-336.5 581,-336.5"/>
<text text-anchor="middle" x="604.5" y="-343.5" font-family="Helvetica,sans-Serif" font-size="10.00">pool.h</text>
</a>
</g>
</g>
<!-- Node37&#45;&gt;Node38 -->
<g id="edge49" class="edge">
<title>Node37&#45;&gt;Node38</title>
<path fill="none" stroke="midnightblue" d="M572.61,-384.43C580.68,-374.97 590.46,-363.48 597.05,-355.75"/>
<polygon fill="midnightblue" stroke="midnightblue" points="569.92,-382.2 566.1,-392.08 575.25,-386.74 569.92,-382.2"/>
</g>
<!-- Node40 -->
<g id="node40" class="node">
<title>Node40</title>
<g id="a_node40"><a xlink:href="timer_8h.html" target="_top" xlink:title="ODP timer service.">
<polygon fill="white" stroke="black" points="646,-336.5 646,-355.5 697,-355.5 697,-336.5 646,-336.5"/>
<text text-anchor="middle" x="671.5" y="-343.5" font-family="Helvetica,sans-Serif" font-size="10.00">timer.h</text>
</a>
</g>
</g>
<!-- Node39&#45;&gt;Node40 -->
<g id="edge51" class="edge">
<title>Node39&#45;&gt;Node40</title>
<path fill="none" stroke="midnightblue" d="M639.61,-384.43C647.68,-374.97 657.46,-363.48 664.05,-355.75"/>
<polygon fill="midnightblue" stroke="midnightblue" points="636.92,-382.2 633.1,-392.08 642.25,-386.74 636.92,-382.2"/>
</g>
</g>
</svg>
