<?xml version="1.0" encoding="UTF-8" standalone="no"?>
<!DOCTYPE svg PUBLIC "-//W3C//DTD SVG 1.1//EN"
 "http://www.w3.org/Graphics/SVG/1.1/DTD/svg11.dtd">
<!-- Generated by graphviz version 2.43.0 (0)
 -->
<!-- Title: ml_types.h Pages: 1 -->
<svg width="957pt" height="733pt"
 viewBox="0.00 0.00 957.00 733.00" xmlns="http://www.w3.org/2000/svg" xmlns:xlink="http://www.w3.org/1999/xlink">
<g id="graph0" class="graph" transform="scale(1 1) rotate(0) translate(4 729)">
<title>ml_types.h</title>
<polygon fill="white" stroke="transparent" points="-4,4 -4,-729 953,-729 953,4 -4,4"/>
<!-- Node1 -->
<g id="node1" class="node">
<title>Node1</title>
<g id="a_node1"><a xlink:title="ODP Machine Learning (ML) types.">
<polygon fill="#bfbfbf" stroke="black" points="103.5,-705.5 103.5,-724.5 174.5,-724.5 174.5,-705.5 103.5,-705.5"/>
<text text-anchor="middle" x="139" y="-712.5" font-family="Helvetica,sans-Serif" font-size="10.00">ml_types.h</text>
</a>
</g>
</g>
<!-- Node2 -->
<g id="node2" class="node">
<title>Node2</title>
<g id="a_node2"><a xlink:title=" ">
<polygon fill="white" stroke="#bfbfbf" points="0,-649.5 0,-668.5 128,-668.5 128,-649.5 0,-649.5"/>
<text text-anchor="middle" x="64" y="-656.5" font-family="Helvetica,sans-Serif" font-size="10.00">odp/api/abi/ml_types.h</text>
</a>
</g>
</g>
<!-- Node1&#45;&gt;Node2 -->
<g id="edge1" class="edge">
<title>Node1&#45;&gt;Node2</title>
<path fill="none" stroke="midnightblue" d="M126.95,-705.32C115.54,-697.11 98.17,-684.6 84.57,-674.81"/>
<polygon fill="midnightblue" stroke="midnightblue" points="86.43,-671.84 76.27,-668.83 82.34,-677.52 86.43,-671.84"/>
</g>
<!-- Node3 -->
<g id="node3" class="node">
<title>Node3</title>
<g id="a_node3"><a xlink:href="spec_2ml__types_8h.html" target="_top" xlink:title="ODP Machine Learning (ML) types.">
<polygon fill="white" stroke="black" points="146.5,-649.5 146.5,-668.5 281.5,-668.5 281.5,-649.5 146.5,-649.5"/>
<text text-anchor="middle" x="214" y="-656.5" font-family="Helvetica,sans-Serif" font-size="10.00">odp/api/spec/ml_types.h</text>
</a>
</g>
</g>
<!-- Node1&#45;&gt;Node3 -->
<g id="edge2" class="edge">
<title>Node1&#45;&gt;Node3</title>
<path fill="none" stroke="midnightblue" d="M151.05,-705.32C162.46,-697.11 179.83,-684.6 193.43,-674.81"/>
<polygon fill="midnightblue" stroke="midnightblue" points="195.66,-677.52 201.73,-668.83 191.57,-671.84 195.66,-677.52"/>
</g>
<!-- Node4 -->
<g id="node4" class="node">
<title>Node4</title>
<g id="a_node4"><a xlink:title=" ">
<polygon fill="white" stroke="#bfbfbf" points="774.5,-0.5 774.5,-19.5 895.5,-19.5 895.5,-0.5 774.5,-0.5"/>
<text text-anchor="middle" x="835" y="-7.5" font-family="Helvetica,sans-Serif" font-size="10.00">odp/visibility_begin.h</text>
</a>
</g>
</g>
<!-- Node3&#45;&gt;Node4 -->
<g id="edge3" class="edge">
<title>Node3&#45;&gt;Node4</title>
<path fill="none" stroke="midnightblue" d="M281.5,-654.44C463.2,-643.98 949,-609.71 949,-542.5 949,-542.5 949,-542.5 949,-132 949,-81.35 895.42,-43.28 861.73,-24.34"/>
<polygon fill="midnightblue" stroke="midnightblue" points="863.27,-21.2 852.81,-19.52 859.94,-27.36 863.27,-21.2"/>
</g>
<!-- Node5 -->
<g id="node5" class="node">
<title>Node5</title>
<g id="a_node5"><a xlink:href="event__types_8h.html" target="_top" xlink:title="ODP event API type definitions.">
<polygon fill="white" stroke="black" points="134.5,-123.5 134.5,-142.5 259.5,-142.5 259.5,-123.5 134.5,-123.5"/>
<text text-anchor="middle" x="197" y="-130.5" font-family="Helvetica,sans-Serif" font-size="10.00">odp/api/event_types.h</text>
</a>
</g>
</g>
<!-- Node3&#45;&gt;Node5 -->
<g id="edge4" class="edge">
<title>Node3&#45;&gt;Node5</title>
<path fill="none" stroke="midnightblue" d="M203.11,-649.42C182.1,-631.82 138,-589.31 138,-542.5 138,-542.5 138,-542.5 138,-244 138,-207.02 164.21,-170.47 181.69,-150.21"/>
<polygon fill="midnightblue" stroke="midnightblue" points="184.47,-152.34 188.55,-142.56 179.26,-147.67 184.47,-152.34"/>
</g>
<!-- Node8 -->
<g id="node8" class="node">
<title>Node8</title>
<g id="a_node8"><a xlink:title=" ">
<polygon fill="white" stroke="#bfbfbf" points="279,-0.5 279,-19.5 391,-19.5 391,-0.5 279,-0.5"/>
<text text-anchor="middle" x="335" y="-7.5" font-family="Helvetica,sans-Serif" font-size="10.00">odp/visibility_end.h</text>
</a>
</g>
</g>
<!-- Node3&#45;&gt;Node8 -->
<g id="edge37" class="edge">
<title>Node3&#45;&gt;Node8</title>
<path fill="none" stroke="midnightblue" d="M181.13,-649.48C135.63,-635.47 59,-602.91 59,-542.5 59,-542.5 59,-542.5 59,-132 59,-94.03 67.6,-78.74 98,-56 124.43,-36.23 208.17,-23.75 268.62,-17.07"/>
<polygon fill="midnightblue" stroke="midnightblue" points="269.29,-20.52 278.86,-15.97 268.55,-13.56 269.29,-20.52"/>
</g>
<!-- Node9 -->
<g id="node9" class="node">
<title>Node9</title>
<g id="a_node9"><a xlink:href="queue__types_8h.html" target="_top" xlink:title="ODP queue.">
<polygon fill="white" stroke="black" points="269.5,-593.5 269.5,-612.5 396.5,-612.5 396.5,-593.5 269.5,-593.5"/>
<text text-anchor="middle" x="333" y="-600.5" font-family="Helvetica,sans-Serif" font-size="10.00">odp/api/queue_types.h</text>
</a>
</g>
</g>
<!-- Node3&#45;&gt;Node9 -->
<g id="edge9" class="edge">
<title>Node3&#45;&gt;Node9</title>
<path fill="none" stroke="midnightblue" d="M232.86,-649.44C252.27,-640.64 282.73,-626.81 304.96,-616.72"/>
<polygon fill="midnightblue" stroke="midnightblue" points="306.57,-619.84 314.23,-612.52 303.68,-613.46 306.57,-619.84"/>
</g>
<!-- Node15 -->
<g id="node15" class="node">
<title>Node15</title>
<g id="a_node15"><a xlink:href="std__types_8h.html" target="_top" xlink:title="Standard C language types and definitions for ODP.">
<polygon fill="white" stroke="black" points="435,-235.5 435,-254.5 547,-254.5 547,-235.5 435,-235.5"/>
<text text-anchor="middle" x="491" y="-242.5" font-family="Helvetica,sans-Serif" font-size="10.00">odp/api/std_types.h</text>
</a>
</g>
</g>
<!-- Node3&#45;&gt;Node15 -->
<g id="edge36" class="edge">
<title>Node3&#45;&gt;Node15</title>
<path fill="none" stroke="midnightblue" d="M214,-649.31C214,-630.06 214,-582.4 214,-542.5 214,-542.5 214,-542.5 214,-417.5 214,-317.87 345.15,-274.15 426.97,-256.57"/>
<polygon fill="midnightblue" stroke="midnightblue" points="427.85,-259.96 436.93,-254.5 426.43,-253.1 427.85,-259.96"/>
</g>
<!-- Node6 -->
<g id="node6" class="node">
<title>Node6</title>
<g id="a_node6"><a xlink:title=" ">
<polygon fill="white" stroke="#bfbfbf" points="125.5,-62 125.5,-81 268.5,-81 268.5,-62 125.5,-62"/>
<text text-anchor="middle" x="197" y="-69" font-family="Helvetica,sans-Serif" font-size="10.00">odp/api/abi/event_types.h</text>
</a>
</g>
</g>
<!-- Node5&#45;&gt;Node6 -->
<g id="edge5" class="edge">
<title>Node5&#45;&gt;Node6</title>
<path fill="none" stroke="midnightblue" d="M197,-123.48C197,-115.08 197,-101.98 197,-91.16"/>
<polygon fill="midnightblue" stroke="midnightblue" points="200.5,-91.01 197,-81.01 193.5,-91.01 200.5,-91.01"/>
</g>
<!-- Node7 -->
<g id="node7" class="node">
<title>Node7</title>
<g id="a_node7"><a xlink:href="spec_2event__types_8h.html" target="_top" xlink:title="ODP event API type definitions.">
<polygon fill="white" stroke="black" points="363.5,-56.5 363.5,-86.5 472.5,-86.5 472.5,-56.5 363.5,-56.5"/>
<text text-anchor="start" x="371.5" y="-74.5" font-family="Helvetica,sans-Serif" font-size="10.00">odp/api/spec/event</text>
<text text-anchor="middle" x="418" y="-63.5" font-family="Helvetica,sans-Serif" font-size="10.00">_types.h</text>
</a>
</g>
</g>
<!-- Node5&#45;&gt;Node7 -->
<g id="edge6" class="edge">
<title>Node5&#45;&gt;Node7</title>
<path fill="none" stroke="midnightblue" d="M228.66,-123.48C261.81,-114.55 314.71,-100.31 356.18,-89.14"/>
<polygon fill="midnightblue" stroke="midnightblue" points="357.17,-92.5 365.91,-86.52 355.35,-85.74 357.17,-92.5"/>
</g>
<!-- Node7&#45;&gt;Node4 -->
<g id="edge7" class="edge">
<title>Node7&#45;&gt;Node4</title>
<path fill="none" stroke="midnightblue" d="M472.52,-62.72C547.64,-52 683.04,-32.68 765.4,-20.93"/>
<polygon fill="midnightblue" stroke="midnightblue" points="766.01,-24.38 775.42,-19.5 765.02,-17.45 766.01,-24.38"/>
</g>
<!-- Node7&#45;&gt;Node8 -->
<g id="edge8" class="edge">
<title>Node7&#45;&gt;Node8</title>
<path fill="none" stroke="midnightblue" d="M398.33,-56.4C385.4,-47.13 368.51,-35.03 355.43,-25.65"/>
<polygon fill="midnightblue" stroke="midnightblue" points="357.24,-22.64 347.08,-19.66 353.17,-28.33 357.24,-22.64"/>
</g>
<!-- Node10 -->
<g id="node10" class="node">
<title>Node10</title>
<g id="a_node10"><a xlink:title=" ">
<polygon fill="white" stroke="#bfbfbf" points="260.5,-532 260.5,-551 405.5,-551 405.5,-532 260.5,-532"/>
<text text-anchor="middle" x="333" y="-539" font-family="Helvetica,sans-Serif" font-size="10.00">odp/api/abi/queue_types.h</text>
</a>
</g>
</g>
<!-- Node9&#45;&gt;Node10 -->
<g id="edge10" class="edge">
<title>Node9&#45;&gt;Node10</title>
<path fill="none" stroke="midnightblue" d="M333,-593.48C333,-585.08 333,-571.98 333,-561.16"/>
<polygon fill="midnightblue" stroke="midnightblue" points="336.5,-561.01 333,-551.01 329.5,-561.01 336.5,-561.01"/>
</g>
<!-- Node11 -->
<g id="node11" class="node">
<title>Node11</title>
<g id="a_node11"><a xlink:href="spec_2queue__types_8h.html" target="_top" xlink:title="ODP queue types.">
<polygon fill="white" stroke="black" points="432.5,-526.5 432.5,-556.5 543.5,-556.5 543.5,-526.5 432.5,-526.5"/>
<text text-anchor="start" x="440.5" y="-544.5" font-family="Helvetica,sans-Serif" font-size="10.00">odp/api/spec/queue</text>
<text text-anchor="middle" x="488" y="-533.5" font-family="Helvetica,sans-Serif" font-size="10.00">_types.h</text>
</a>
</g>
</g>
<!-- Node9&#45;&gt;Node11 -->
<g id="edge11" class="edge">
<title>Node9&#45;&gt;Node11</title>
<path fill="none" stroke="midnightblue" d="M355.21,-593.48C377.77,-584.81 413.38,-571.15 442.04,-560.14"/>
<polygon fill="midnightblue" stroke="midnightblue" points="443.39,-563.37 451.47,-556.52 440.88,-556.84 443.39,-563.37"/>
</g>
<!-- Node11&#45;&gt;Node4 -->
<g id="edge12" class="edge">
<title>Node11&#45;&gt;Node4</title>
<path fill="none" stroke="midnightblue" d="M543.73,-536.29C658.6,-526.07 911,-495.02 911,-419.5 911,-419.5 911,-419.5 911,-132 911,-88.48 875.3,-47.77 852.84,-26.47"/>
<polygon fill="midnightblue" stroke="midnightblue" points="854.99,-23.7 845.25,-19.53 850.27,-28.86 854.99,-23.7"/>
</g>
<!-- Node11&#45;&gt;Node8 -->
<g id="edge35" class="edge">
<title>Node11&#45;&gt;Node8</title>
<path fill="none" stroke="midnightblue" d="M447.85,-526.44C363.58,-495.7 176,-420.28 176,-358 176,-358 176,-358 176,-244 176,-156.29 60.57,-123.97 116,-56 135.03,-32.66 211.46,-21.08 268.71,-15.58"/>
<polygon fill="midnightblue" stroke="midnightblue" points="269.16,-19.05 278.8,-14.65 268.52,-12.08 269.16,-19.05"/>
</g>
<!-- Node12 -->
<g id="node12" class="node">
<title>Node12</title>
<g id="a_node12"><a xlink:href="schedule__types_8h.html" target="_top" xlink:title="ODP schedule.">
<polygon fill="white" stroke="black" points="421,-470.5 421,-489.5 561,-489.5 561,-470.5 421,-470.5"/>
<text text-anchor="middle" x="491" y="-477.5" font-family="Helvetica,sans-Serif" font-size="10.00">odp/api/schedule_types.h</text>
</a>
</g>
</g>
<!-- Node11&#45;&gt;Node12 -->
<g id="edge13" class="edge">
<title>Node11&#45;&gt;Node12</title>
<path fill="none" stroke="midnightblue" d="M488.71,-526.4C489.11,-518.47 489.62,-508.46 490.05,-499.86"/>
<polygon fill="midnightblue" stroke="midnightblue" points="493.56,-499.82 490.56,-489.66 486.56,-499.47 493.56,-499.82"/>
</g>
<!-- Node13 -->
<g id="node13" class="node">
<title>Node13</title>
<g id="a_node13"><a xlink:title=" ">
<polygon fill="white" stroke="#bfbfbf" points="571.5,-403.5 571.5,-433.5 688.5,-433.5 688.5,-403.5 571.5,-403.5"/>
<text text-anchor="start" x="579.5" y="-421.5" font-family="Helvetica,sans-Serif" font-size="10.00">odp/api/abi/schedule</text>
<text text-anchor="middle" x="630" y="-410.5" font-family="Helvetica,sans-Serif" font-size="10.00">_types.h</text>
</a>
</g>
</g>
<!-- Node12&#45;&gt;Node13 -->
<g id="edge14" class="edge">
<title>Node12&#45;&gt;Node13</title>
<path fill="none" stroke="midnightblue" d="M510.92,-470.48C530.88,-461.93 562.25,-448.5 587.78,-437.57"/>
<polygon fill="midnightblue" stroke="midnightblue" points="589.42,-440.68 597.24,-433.52 586.67,-434.24 589.42,-440.68"/>
</g>
<!-- Node14 -->
<g id="node14" class="node">
<title>Node14</title>
<g id="a_node14"><a xlink:href="spec_2schedule__types_8h.html" target="_top" xlink:title="ODP schedule types.">
<polygon fill="white" stroke="black" points="428.5,-403.5 428.5,-433.5 553.5,-433.5 553.5,-403.5 428.5,-403.5"/>
<text text-anchor="start" x="436.5" y="-421.5" font-family="Helvetica,sans-Serif" font-size="10.00">odp/api/spec/schedule</text>
<text text-anchor="middle" x="491" y="-410.5" font-family="Helvetica,sans-Serif" font-size="10.00">_types.h</text>
</a>
</g>
</g>
<!-- Node12&#45;&gt;Node14 -->
<g id="edge15" class="edge">
<title>Node12&#45;&gt;Node14</title>
<path fill="none" stroke="midnightblue" d="M491,-470.48C491,-463.47 491,-453.19 491,-443.7"/>
<polygon fill="midnightblue" stroke="midnightblue" points="494.5,-443.52 491,-433.52 487.5,-443.52 494.5,-443.52"/>
</g>
<!-- Node14&#45;&gt;Node4 -->
<g id="edge16" class="edge">
<title>Node14&#45;&gt;Node4</title>
<path fill="none" stroke="midnightblue" d="M547.37,-403.41C653.63,-376.47 873,-318.8 873,-302 873,-302 873,-302 873,-132 873,-93.81 855.56,-51.83 844.31,-28.72"/>
<polygon fill="midnightblue" stroke="midnightblue" points="847.29,-26.86 839.66,-19.52 841.04,-30.02 847.29,-26.86"/>
</g>
<!-- Node14&#45;&gt;Node8 -->
<g id="edge34" class="edge">
<title>Node14&#45;&gt;Node8</title>
<path fill="none" stroke="midnightblue" d="M467.25,-403.46C418.88,-373.3 310.06,-297.01 269,-199 255.57,-166.94 303.9,-69.36 325.3,-28.88"/>
<polygon fill="midnightblue" stroke="midnightblue" points="328.48,-30.37 330.11,-19.9 322.3,-27.07 328.48,-30.37"/>
</g>
<!-- Node14&#45;&gt;Node15 -->
<g id="edge17" class="edge">
<title>Node14&#45;&gt;Node15</title>
<path fill="none" stroke="midnightblue" d="M491,-403.47C491,-372.7 491,-299.33 491,-264.7"/>
<polygon fill="midnightblue" stroke="midnightblue" points="494.5,-264.56 491,-254.56 487.5,-264.56 494.5,-264.56"/>
</g>
<!-- Node22 -->
<g id="node22" class="node">
<title>Node22</title>
<g id="a_node22"><a xlink:href="thrmask_8h.html" target="_top" xlink:title="ODP thread masks.">
<polygon fill="white" stroke="black" points="535.5,-347.5 535.5,-366.5 640.5,-366.5 640.5,-347.5 535.5,-347.5"/>
<text text-anchor="middle" x="588" y="-354.5" font-family="Helvetica,sans-Serif" font-size="10.00">odp/api/thrmask.h</text>
</a>
</g>
</g>
<!-- Node14&#45;&gt;Node22 -->
<g id="edge28" class="edge">
<title>Node14&#45;&gt;Node22</title>
<path fill="none" stroke="midnightblue" d="M513.99,-403.4C529.39,-393.95 549.59,-381.56 565,-372.11"/>
<polygon fill="midnightblue" stroke="midnightblue" points="567.19,-374.87 573.89,-366.66 563.53,-368.9 567.19,-374.87"/>
</g>
<!-- Node16 -->
<g id="node16" class="node">
<title>Node16</title>
<g id="a_node16"><a xlink:title=" ">
<polygon fill="white" stroke="#bfbfbf" points="278,-179.5 278,-198.5 408,-198.5 408,-179.5 278,-179.5"/>
<text text-anchor="middle" x="343" y="-186.5" font-family="Helvetica,sans-Serif" font-size="10.00">odp/api/abi/std_types.h</text>
</a>
</g>
</g>
<!-- Node15&#45;&gt;Node16 -->
<g id="edge18" class="edge">
<title>Node15&#45;&gt;Node16</title>
<path fill="none" stroke="midnightblue" d="M467.55,-235.44C442.87,-226.44 403.81,-212.19 376.02,-202.05"/>
<polygon fill="midnightblue" stroke="midnightblue" points="376.94,-198.66 366.34,-198.52 374.54,-205.23 376.94,-198.66"/>
</g>
<!-- Node17 -->
<g id="node17" class="node">
<title>Node17</title>
<g id="a_node17"><a xlink:href="spec_2std__types_8h.html" target="_top" xlink:title="Common types and definitions for ODP API files.">
<polygon fill="white" stroke="black" points="426.5,-179.5 426.5,-198.5 563.5,-198.5 563.5,-179.5 426.5,-179.5"/>
<text text-anchor="middle" x="495" y="-186.5" font-family="Helvetica,sans-Serif" font-size="10.00">odp/api/spec/std_types.h</text>
</a>
</g>
</g>
<!-- Node15&#45;&gt;Node17 -->
<g id="edge19" class="edge">
<title>Node15&#45;&gt;Node17</title>
<path fill="none" stroke="midnightblue" d="M491.66,-235.08C492.18,-228.01 492.94,-217.86 493.59,-208.99"/>
<polygon fill="midnightblue" stroke="midnightblue" points="497.1,-208.98 494.35,-198.75 490.12,-208.47 497.1,-208.98"/>
</g>
<!-- Node17&#45;&gt;Node4 -->
<g id="edge20" class="edge">
<title>Node17&#45;&gt;Node4</title>
<path fill="none" stroke="midnightblue" d="M550.32,-179.45C611.56,-167.62 710.52,-141.27 778,-87 798.41,-70.58 815.44,-45.28 825.42,-28.44"/>
<polygon fill="midnightblue" stroke="midnightblue" points="828.53,-30.05 830.46,-19.63 822.45,-26.58 828.53,-30.05"/>
</g>
<!-- Node17&#45;&gt;Node8 -->
<g id="edge27" class="edge">
<title>Node17&#45;&gt;Node8</title>
<path fill="none" stroke="midnightblue" d="M475.41,-179.32C444.88,-164.75 386.21,-132.46 355,-87 343.21,-69.82 338.37,-46.08 336.38,-29.73"/>
<polygon fill="midnightblue" stroke="midnightblue" points="339.86,-29.38 335.41,-19.76 332.89,-30.05 339.86,-29.38"/>
</g>
<!-- Node18 -->
<g id="node18" class="node">
<title>Node18</title>
<g id="a_node18"><a xlink:title=" ">
<polygon fill="white" stroke="#bfbfbf" points="446.5,-123.5 446.5,-142.5 499.5,-142.5 499.5,-123.5 446.5,-123.5"/>
<text text-anchor="middle" x="473" y="-130.5" font-family="Helvetica,sans-Serif" font-size="10.00">stdint.h</text>
</a>
</g>
</g>
<!-- Node17&#45;&gt;Node18 -->
<g id="edge21" class="edge">
<title>Node17&#45;&gt;Node18</title>
<path fill="none" stroke="midnightblue" d="M491.37,-179.08C488.39,-171.77 484.07,-161.18 480.38,-152.1"/>
<polygon fill="midnightblue" stroke="midnightblue" points="483.58,-150.69 476.57,-142.75 477.1,-153.33 483.58,-150.69"/>
</g>
<!-- Node19 -->
<g id="node19" class="node">
<title>Node19</title>
<g id="a_node19"><a xlink:href="align_8h.html" target="_top" xlink:title="ODP alignments.">
<polygon fill="white" stroke="black" points="556.5,-123.5 556.5,-142.5 645.5,-142.5 645.5,-123.5 556.5,-123.5"/>
<text text-anchor="middle" x="601" y="-130.5" font-family="Helvetica,sans-Serif" font-size="10.00">odp/api/align.h</text>
</a>
</g>
</g>
<!-- Node17&#45;&gt;Node19 -->
<g id="edge22" class="edge">
<title>Node17&#45;&gt;Node19</title>
<path fill="none" stroke="midnightblue" d="M512.03,-179.32C529.03,-170.66 555.38,-157.24 574.99,-147.25"/>
<polygon fill="midnightblue" stroke="midnightblue" points="576.69,-150.31 584.01,-142.65 573.51,-144.08 576.69,-150.31"/>
</g>
<!-- Node20 -->
<g id="node20" class="node">
<title>Node20</title>
<g id="a_node20"><a xlink:title=" ">
<polygon fill="white" stroke="#bfbfbf" points="529.5,-62 529.5,-81 636.5,-81 636.5,-62 529.5,-62"/>
<text text-anchor="middle" x="583" y="-69" font-family="Helvetica,sans-Serif" font-size="10.00">odp/api/abi/align.h</text>
</a>
</g>
</g>
<!-- Node19&#45;&gt;Node20 -->
<g id="edge23" class="edge">
<title>Node19&#45;&gt;Node20</title>
<path fill="none" stroke="midnightblue" d="M598.42,-123.48C595.85,-114.99 591.83,-101.7 588.54,-90.82"/>
<polygon fill="midnightblue" stroke="midnightblue" points="591.82,-89.57 585.57,-81.01 585.12,-91.59 591.82,-89.57"/>
</g>
<!-- Node21 -->
<g id="node21" class="node">
<title>Node21</title>
<g id="a_node21"><a xlink:href="spec_2align_8h.html" target="_top" xlink:title="ODP alignments.">
<polygon fill="white" stroke="black" points="655,-62 655,-81 769,-81 769,-62 655,-62"/>
<text text-anchor="middle" x="712" y="-69" font-family="Helvetica,sans-Serif" font-size="10.00">odp/api/spec/align.h</text>
</a>
</g>
</g>
<!-- Node19&#45;&gt;Node21 -->
<g id="edge24" class="edge">
<title>Node19&#45;&gt;Node21</title>
<path fill="none" stroke="midnightblue" d="M616.9,-123.48C635.28,-113.62 665.76,-97.29 687.24,-85.77"/>
<polygon fill="midnightblue" stroke="midnightblue" points="688.97,-88.82 696.13,-81.01 685.66,-82.65 688.97,-88.82"/>
</g>
<!-- Node21&#45;&gt;Node4 -->
<g id="edge25" class="edge">
<title>Node21&#45;&gt;Node4</title>
<path fill="none" stroke="midnightblue" d="M729.62,-61.98C750.17,-52.03 784.36,-35.49 808.21,-23.96"/>
<polygon fill="midnightblue" stroke="midnightblue" points="809.93,-27.01 817.41,-19.51 806.88,-20.71 809.93,-27.01"/>
</g>
<!-- Node21&#45;&gt;Node8 -->
<g id="edge26" class="edge">
<title>Node21&#45;&gt;Node8</title>
<path fill="none" stroke="midnightblue" d="M675.44,-61.97C665.89,-59.88 655.58,-57.74 646,-56 561.98,-40.71 464.43,-27.3 401.31,-19.18"/>
<polygon fill="midnightblue" stroke="midnightblue" points="401.46,-15.67 391.1,-17.87 400.57,-22.61 401.46,-15.67"/>
</g>
<!-- Node23 -->
<g id="node23" class="node">
<title>Node23</title>
<g id="a_node23"><a xlink:title=" ">
<polygon fill="white" stroke="#bfbfbf" points="671.5,-291.5 671.5,-310.5 794.5,-310.5 794.5,-291.5 671.5,-291.5"/>
<text text-anchor="middle" x="733" y="-298.5" font-family="Helvetica,sans-Serif" font-size="10.00">odp/api/abi/thrmask.h</text>
</a>
</g>
</g>
<!-- Node22&#45;&gt;Node23 -->
<g id="edge29" class="edge">
<title>Node22&#45;&gt;Node23</title>
<path fill="none" stroke="midnightblue" d="M610.98,-347.44C635.16,-338.44 673.42,-324.19 700.65,-314.05"/>
<polygon fill="midnightblue" stroke="midnightblue" points="701.98,-317.29 710.13,-310.52 699.54,-310.73 701.98,-317.29"/>
</g>
<!-- Node24 -->
<g id="node24" class="node">
<title>Node24</title>
<g id="a_node24"><a xlink:href="spec_2thrmask_8h.html" target="_top" xlink:title="ODP thread masks.">
<polygon fill="white" stroke="black" points="522.5,-291.5 522.5,-310.5 653.5,-310.5 653.5,-291.5 522.5,-291.5"/>
<text text-anchor="middle" x="588" y="-298.5" font-family="Helvetica,sans-Serif" font-size="10.00">odp/api/spec/thrmask.h</text>
</a>
</g>
</g>
<!-- Node22&#45;&gt;Node24 -->
<g id="edge30" class="edge">
<title>Node22&#45;&gt;Node24</title>
<path fill="none" stroke="midnightblue" d="M588,-347.08C588,-340.01 588,-329.86 588,-320.99"/>
<polygon fill="midnightblue" stroke="midnightblue" points="591.5,-320.75 588,-310.75 584.5,-320.75 591.5,-320.75"/>
</g>
<!-- Node24&#45;&gt;Node4 -->
<g id="edge31" class="edge">
<title>Node24&#45;&gt;Node4</title>
<path fill="none" stroke="midnightblue" d="M625.78,-291.46C694.97,-274.71 835,-235.24 835,-190 835,-190 835,-190 835,-132 835,-95.71 835,-53.31 835,-29.56"/>
<polygon fill="midnightblue" stroke="midnightblue" points="838.5,-29.51 835,-19.51 831.5,-29.51 838.5,-29.51"/>
</g>
<!-- Node24&#45;&gt;Node8 -->
<g id="edge33" class="edge">
<title>Node24&#45;&gt;Node8</title>
<path fill="none" stroke="midnightblue" d="M588.4,-291.42C589.03,-271.09 588.87,-218.71 573,-179 571.42,-175.05 485.47,-58.45 482,-56 458.13,-39.12 427.77,-28.45 400.84,-21.76"/>
<polygon fill="midnightblue" stroke="midnightblue" points="401.63,-18.35 391.1,-19.47 400.03,-25.16 401.63,-18.35"/>
</g>
<!-- Node24&#45;&gt;Node15 -->
<g id="edge32" class="edge">
<title>Node24&#45;&gt;Node15</title>
<path fill="none" stroke="midnightblue" d="M572.42,-291.32C557,-282.74 533.19,-269.49 515.29,-259.52"/>
<polygon fill="midnightblue" stroke="midnightblue" points="516.99,-256.46 506.55,-254.65 513.58,-262.58 516.99,-256.46"/>
</g>
</g>
</svg>
