<?xml version="1.0" encoding="UTF-8" standalone="no"?>
<!DOCTYPE svg PUBLIC "-//W3C//DTD SVG 1.1//EN"
 "http://www.w3.org/Graphics/SVG/1.1/DTD/svg11.dtd">
<!-- Generated by graphviz version 2.43.0 (0)
 -->
<!-- Title: ml_types.h Pages: 1 -->
<svg width="1424pt" height="588pt"
 viewBox="0.00 0.00 1423.63 588.00" xmlns="http://www.w3.org/2000/svg" xmlns:xlink="http://www.w3.org/1999/xlink">
<g id="graph0" class="graph" transform="scale(1 1) rotate(0) translate(4 584)">
<title>ml_types.h</title>
<polygon fill="white" stroke="transparent" points="-4,4 -4,-584 1419.63,-584 1419.63,4 -4,4"/>
<!-- Node1 -->
<g id="node1" class="node">
<title>Node1</title>
<g id="a_node1"><a xlink:title="ODP Machine Learning (ML) types.">
<polygon fill="#bfbfbf" stroke="black" points="237.35,-560.5 237.35,-579.5 308.35,-579.5 308.35,-560.5 237.35,-560.5"/>
<text text-anchor="middle" x="272.85" y="-567.5" font-family="Helvetica,sans-Serif" font-size="10.00">ml_types.h</text>
</a>
</g>
</g>
<!-- Node2 -->
<g id="node2" class="node">
<title>Node2</title>
<g id="a_node2"><a xlink:href="spec_2ml_8h.html" target="_top" xlink:title="ODP Machine Learning (ML) offload.">
<polygon fill="white" stroke="black" points="210.85,-392.5 210.85,-411.5 248.85,-411.5 248.85,-392.5 210.85,-392.5"/>
<text text-anchor="middle" x="229.85" y="-399.5" font-family="Helvetica,sans-Serif" font-size="10.00">ml.h</text>
</a>
</g>
</g>
<!-- Node1&#45;&gt;Node2 -->
<g id="edge1" class="edge">
<title>Node1&#45;&gt;Node2</title>
<path fill="none" stroke="midnightblue" d="M267.91,-549.93C258.58,-513.92 238.72,-437.23 232.07,-411.57"/>
<polygon fill="midnightblue" stroke="midnightblue" points="264.64,-551.27 270.54,-560.08 271.42,-549.52 264.64,-551.27"/>
</g>
<!-- Node4 -->
<g id="node4" class="node">
<title>Node4</title>
<g id="a_node4"><a xlink:href="spec_2pool__types_8h.html" target="_top" xlink:title="Type definitions for pools.">
<polygon fill="white" stroke="black" points="275.35,-504.5 275.35,-523.5 354.35,-523.5 354.35,-504.5 275.35,-504.5"/>
<text text-anchor="middle" x="314.85" y="-511.5" font-family="Helvetica,sans-Serif" font-size="10.00">pool_types.h</text>
</a>
</g>
</g>
<!-- Node1&#45;&gt;Node4 -->
<g id="edge3" class="edge">
<title>Node1&#45;&gt;Node4</title>
<path fill="none" stroke="midnightblue" d="M285.96,-552.14C293.28,-542.74 302.09,-531.4 308.04,-523.75"/>
<polygon fill="midnightblue" stroke="midnightblue" points="283.16,-550.04 279.78,-560.08 288.69,-554.34 283.16,-550.04"/>
</g>
<!-- Node3 -->
<g id="node3" class="node">
<title>Node3</title>
<g id="a_node3"><a xlink:href="ml_8h.html" target="_top" xlink:title="ODP Machine Learning (ML) offload.">
<polygon fill="white" stroke="black" points="175.85,-336.5 175.85,-355.5 213.85,-355.5 213.85,-336.5 175.85,-336.5"/>
<text text-anchor="middle" x="194.85" y="-343.5" font-family="Helvetica,sans-Serif" font-size="10.00">ml.h</text>
</a>
</g>
</g>
<!-- Node2&#45;&gt;Node3 -->
<g id="edge2" class="edge">
<title>Node2&#45;&gt;Node3</title>
<path fill="none" stroke="midnightblue" d="M218.55,-383.57C212.53,-374.27 205.38,-363.25 200.52,-355.75"/>
<polygon fill="midnightblue" stroke="midnightblue" points="215.69,-385.6 224.07,-392.08 221.57,-381.79 215.69,-385.6"/>
</g>
<!-- Node5 -->
<g id="node5" class="node">
<title>Node5</title>
<g id="a_node5"><a xlink:href="pool__types_8h.html" target="_top" xlink:title="ODP pool.">
<polygon fill="white" stroke="black" points="639.35,-448.5 639.35,-467.5 718.35,-467.5 718.35,-448.5 639.35,-448.5"/>
<text text-anchor="middle" x="678.85" y="-455.5" font-family="Helvetica,sans-Serif" font-size="10.00">pool_types.h</text>
</a>
</g>
</g>
<!-- Node4&#45;&gt;Node5 -->
<g id="edge4" class="edge">
<title>Node4&#45;&gt;Node5</title>
<path fill="none" stroke="midnightblue" d="M364.82,-505.59C437.92,-494.74 572.55,-474.77 639.25,-464.87"/>
<polygon fill="midnightblue" stroke="midnightblue" points="363.87,-502.19 354.5,-507.12 364.9,-509.11 363.87,-502.19"/>
</g>
<!-- Node5&#45;&gt;Node2 -->
<g id="edge42" class="edge">
<title>Node5&#45;&gt;Node2</title>
<path fill="none" stroke="midnightblue" d="M629.18,-454.18C550.79,-449.16 393.83,-436.78 262.85,-412 258.3,-411.14 253.46,-409.97 248.92,-408.75"/>
<polygon fill="midnightblue" stroke="midnightblue" points="629.06,-457.68 639.25,-454.81 629.49,-450.69 629.06,-457.68"/>
</g>
<!-- Node6 -->
<g id="node6" class="node">
<title>Node6</title>
<g id="a_node6"><a xlink:href="spec_2buffer_8h.html" target="_top" xlink:title="ODP buffer.">
<polygon fill="white" stroke="black" points="970.35,-392.5 970.35,-411.5 1023.35,-411.5 1023.35,-392.5 970.35,-392.5"/>
<text text-anchor="middle" x="996.85" y="-399.5" font-family="Helvetica,sans-Serif" font-size="10.00">buffer.h</text>
</a>
</g>
</g>
<!-- Node5&#45;&gt;Node6 -->
<g id="edge5" class="edge">
<title>Node5&#45;&gt;Node6</title>
<path fill="none" stroke="midnightblue" d="M728.85,-450.36C785.4,-442.54 880.14,-428.5 960.85,-412 963.88,-411.38 967.04,-410.68 970.17,-409.94"/>
<polygon fill="midnightblue" stroke="midnightblue" points="728.17,-446.92 718.74,-451.75 729.13,-453.85 728.17,-446.92"/>
</g>
<!-- Node8 -->
<g id="node8" class="node">
<title>Node8</title>
<g id="a_node8"><a xlink:href="dma__inlines_8h_source.html" target="_top" xlink:title=" ">
<polygon fill="white" stroke="black" points="1035.35,-280.5 1035.35,-299.5 1120.35,-299.5 1120.35,-280.5 1035.35,-280.5"/>
<text text-anchor="middle" x="1077.85" y="-287.5" font-family="Helvetica,sans-Serif" font-size="10.00">dma_inlines.h</text>
</a>
</g>
</g>
<!-- Node5&#45;&gt;Node8 -->
<g id="edge61" class="edge">
<title>Node5&#45;&gt;Node8</title>
<path fill="none" stroke="midnightblue" d="M728.82,-455.64C885.27,-451.15 1356.63,-435.69 1378.85,-412 1401.96,-387.36 1400.97,-361.53 1378.85,-336 1342.1,-293.58 1184.27,-308.88 1128.85,-300 1126.1,-299.56 1123.26,-299.09 1120.41,-298.61"/>
<polygon fill="midnightblue" stroke="midnightblue" points="728.44,-452.15 718.54,-455.93 728.64,-459.15 728.44,-452.15"/>
</g>
<!-- Node9 -->
<g id="node9" class="node">
<title>Node9</title>
<g id="a_node9"><a xlink:href="spec_2classification_8h.html" target="_top" xlink:title="ODP classification descriptor.">
<polygon fill="white" stroke="black" points="1138.35,-280.5 1138.35,-299.5 1227.35,-299.5 1227.35,-280.5 1138.35,-280.5"/>
<text text-anchor="middle" x="1182.85" y="-287.5" font-family="Helvetica,sans-Serif" font-size="10.00">classification.h</text>
</a>
</g>
</g>
<!-- Node5&#45;&gt;Node9 -->
<g id="edge8" class="edge">
<title>Node5&#45;&gt;Node9</title>
<path fill="none" stroke="midnightblue" d="M728.87,-455.73C888.38,-451.45 1375.91,-436.41 1398.85,-412 1421.98,-387.38 1420.16,-362.21 1398.85,-336 1377.7,-310 1284.53,-298.52 1227.69,-293.85"/>
<polygon fill="midnightblue" stroke="midnightblue" points="728.31,-452.25 718.4,-456.01 728.49,-459.24 728.31,-452.25"/>
</g>
<!-- Node18 -->
<g id="node18" class="node">
<title>Node18</title>
<g id="a_node18"><a xlink:href="spec_2crypto__types_8h.html" target="_top" xlink:title="ODP crypto types.">
<polygon fill="white" stroke="black" points="232.35,-336.5 232.35,-355.5 321.35,-355.5 321.35,-336.5 232.35,-336.5"/>
<text text-anchor="middle" x="276.85" y="-343.5" font-family="Helvetica,sans-Serif" font-size="10.00">crypto_types.h</text>
</a>
</g>
</g>
<!-- Node5&#45;&gt;Node18 -->
<g id="edge17" class="edge">
<title>Node5&#45;&gt;Node18</title>
<path fill="none" stroke="midnightblue" d="M629.2,-454.47C547.43,-449.64 388.54,-437.26 338.85,-412 312.71,-398.71 291.53,-369.89 282.12,-355.51"/>
<polygon fill="midnightblue" stroke="midnightblue" points="629.07,-457.97 639.25,-455.05 629.47,-450.98 629.07,-457.97"/>
</g>
<!-- Node23 -->
<g id="node23" class="node">
<title>Node23</title>
<g id="a_node23"><a xlink:href="spec_2dma_8h.html" target="_top" xlink:title="ODP DMA.">
<polygon fill="white" stroke="black" points="715.35,-280.5 715.35,-299.5 762.35,-299.5 762.35,-280.5 715.35,-280.5"/>
<text text-anchor="middle" x="738.85" y="-287.5" font-family="Helvetica,sans-Serif" font-size="10.00">dma.h</text>
</a>
</g>
</g>
<!-- Node5&#45;&gt;Node23 -->
<g id="edge24" class="edge">
<title>Node5&#45;&gt;Node23</title>
<path fill="none" stroke="midnightblue" d="M636.99,-444.61C621.24,-437.69 604.95,-427.28 595.85,-412 578.57,-382.98 575.87,-363.23 595.85,-336 599.49,-331.04 675.7,-308.88 715.34,-297.61"/>
<polygon fill="midnightblue" stroke="midnightblue" points="636.08,-448.02 646.66,-448.49 638.68,-441.52 636.08,-448.02"/>
</g>
<!-- Node25 -->
<g id="node25" class="node">
<title>Node25</title>
<g id="a_node25"><a xlink:href="spec_2dma__types_8h.html" target="_top" xlink:title="ODP DMA.">
<polygon fill="white" stroke="black" points="604.85,-392.5 604.85,-411.5 684.85,-411.5 684.85,-392.5 604.85,-392.5"/>
<text text-anchor="middle" x="644.85" y="-399.5" font-family="Helvetica,sans-Serif" font-size="10.00">dma_types.h</text>
</a>
</g>
</g>
<!-- Node5&#45;&gt;Node25 -->
<g id="edge26" class="edge">
<title>Node5&#45;&gt;Node25</title>
<path fill="none" stroke="midnightblue" d="M667.87,-439.57C662.02,-430.27 655.08,-419.25 650.36,-411.75"/>
<polygon fill="midnightblue" stroke="midnightblue" points="664.95,-441.49 673.24,-448.08 670.87,-437.76 664.95,-441.49"/>
</g>
<!-- Node27 -->
<g id="node27" class="node">
<title>Node27</title>
<g id="a_node27"><a xlink:href="spec_2event_8h.html" target="_top" xlink:title="ODP event.">
<polygon fill="white" stroke="black" points="381.35,-392.5 381.35,-411.5 434.35,-411.5 434.35,-392.5 381.35,-392.5"/>
<text text-anchor="middle" x="407.85" y="-399.5" font-family="Helvetica,sans-Serif" font-size="10.00">event.h</text>
</a>
</g>
</g>
<!-- Node5&#45;&gt;Node27 -->
<g id="edge31" class="edge">
<title>Node5&#45;&gt;Node27</title>
<path fill="none" stroke="midnightblue" d="M629.48,-447.68C582.86,-438.8 511.02,-424.9 448.85,-412 444.28,-411.05 439.44,-410.02 434.74,-408.99"/>
<polygon fill="midnightblue" stroke="midnightblue" points="628.84,-451.12 639.32,-449.55 630.15,-444.24 628.84,-451.12"/>
</g>
<!-- Node29 -->
<g id="node29" class="node">
<title>Node29</title>
<g id="a_node29"><a xlink:href="buffer__inlines_8h_source.html" target="_top" xlink:title=" ">
<polygon fill="white" stroke="black" points="13.85,-280.5 13.85,-299.5 105.85,-299.5 105.85,-280.5 13.85,-280.5"/>
<text text-anchor="middle" x="59.85" y="-287.5" font-family="Helvetica,sans-Serif" font-size="10.00">buffer_inlines.h</text>
</a>
</g>
</g>
<!-- Node5&#45;&gt;Node29 -->
<g id="edge60" class="edge">
<title>Node5&#45;&gt;Node29</title>
<path fill="none" stroke="midnightblue" d="M628.85,-454.99C552.77,-451.07 412.51,-440.16 371.85,-412 340.12,-390.03 361.36,-358.28 329.85,-336 311.86,-323.28 178.17,-305.36 105.91,-296.46"/>
<polygon fill="midnightblue" stroke="midnightblue" points="628.98,-458.51 639.14,-455.5 629.32,-451.51 628.98,-458.51"/>
</g>
<!-- Node30 -->
<g id="node30" class="node">
<title>Node30</title>
<g id="a_node30"><a xlink:href="event__vector__inlines_8h.html" target="_top" xlink:title="Event vector inline functions.">
<polygon fill="white" stroke="black" points="308.35,-280.5 308.35,-299.5 435.35,-299.5 435.35,-280.5 308.35,-280.5"/>
<text text-anchor="middle" x="371.85" y="-287.5" font-family="Helvetica,sans-Serif" font-size="10.00">event_vector_inlines.h</text>
</a>
</g>
</g>
<!-- Node5&#45;&gt;Node30 -->
<g id="edge63" class="edge">
<title>Node5&#45;&gt;Node30</title>
<path fill="none" stroke="midnightblue" d="M629.24,-447.58C599.21,-440.56 560.86,-429.17 529.85,-412 484.93,-387.13 483.99,-366.72 442.85,-336 424.26,-322.12 401.37,-308.12 386.7,-299.51"/>
<polygon fill="midnightblue" stroke="midnightblue" points="628.55,-451.02 639.08,-449.8 630.09,-444.19 628.55,-451.02"/>
</g>
<!-- Node31 -->
<g id="node31" class="node">
<title>Node31</title>
<g id="a_node31"><a xlink:href="packet__inlines_8h.html" target="_top" xlink:title="Packet inline functions.">
<polygon fill="white" stroke="black" points="453.35,-280.5 453.35,-299.5 548.35,-299.5 548.35,-280.5 453.35,-280.5"/>
<text text-anchor="middle" x="500.85" y="-287.5" font-family="Helvetica,sans-Serif" font-size="10.00">packet_inlines.h</text>
</a>
</g>
</g>
<!-- Node5&#45;&gt;Node31 -->
<g id="edge64" class="edge">
<title>Node5&#45;&gt;Node31</title>
<path fill="none" stroke="midnightblue" d="M629.09,-450.05C602.38,-444.01 570.58,-432.79 548.85,-412 515.37,-379.98 504.73,-321.65 501.82,-299.68"/>
<polygon fill="midnightblue" stroke="midnightblue" points="628.55,-453.51 639.05,-452.12 629.97,-446.66 628.55,-453.51"/>
</g>
<!-- Node32 -->
<g id="node32" class="node">
<title>Node32</title>
<g id="a_node32"><a xlink:href="packet__vector__inlines_8h.html" target="_top" xlink:title="Packet vector inline functions.">
<polygon fill="white" stroke="black" points="566.35,-280.5 566.35,-299.5 697.35,-299.5 697.35,-280.5 566.35,-280.5"/>
<text text-anchor="middle" x="631.85" y="-287.5" font-family="Helvetica,sans-Serif" font-size="10.00">packet_vector_inlines.h</text>
</a>
</g>
</g>
<!-- Node5&#45;&gt;Node32 -->
<g id="edge65" class="edge">
<title>Node5&#45;&gt;Node32</title>
<path fill="none" stroke="midnightblue" d="M629.37,-450.88C605.05,-445.1 577.81,-433.85 562.85,-412 543.77,-384.13 546.76,-365.7 562.85,-336 572.39,-318.39 592.13,-306.59 608.06,-299.5"/>
<polygon fill="midnightblue" stroke="midnightblue" points="628.71,-454.32 639.22,-452.97 630.17,-447.47 628.71,-454.32"/>
</g>
<!-- Node34 -->
<g id="node34" class="node">
<title>Node34</title>
<g id="a_node34"><a xlink:href="spec_2event__vector_8h.html" target="_top" xlink:title="ODP event vector.">
<polygon fill="white" stroke="black" points="863.35,-392.5 863.35,-411.5 952.35,-411.5 952.35,-392.5 863.35,-392.5"/>
<text text-anchor="middle" x="907.85" y="-399.5" font-family="Helvetica,sans-Serif" font-size="10.00">event_vector.h</text>
</a>
</g>
</g>
<!-- Node5&#45;&gt;Node34 -->
<g id="edge40" class="edge">
<title>Node5&#45;&gt;Node34</title>
<path fill="none" stroke="midnightblue" d="M725.12,-446.09C768.39,-435.89 832.1,-420.86 871.73,-411.52"/>
<polygon fill="midnightblue" stroke="midnightblue" points="724.06,-442.74 715.14,-448.44 725.67,-449.55 724.06,-442.74"/>
</g>
<!-- Node36 -->
<g id="node36" class="node">
<title>Node36</title>
<g id="a_node36"><a xlink:href="spec_2packet_8h.html" target="_top" xlink:title="ODP packet descriptor.">
<polygon fill="white" stroke="black" points="780.85,-280.5 780.85,-299.5 838.85,-299.5 838.85,-280.5 780.85,-280.5"/>
<text text-anchor="middle" x="809.85" y="-287.5" font-family="Helvetica,sans-Serif" font-size="10.00">packet.h</text>
</a>
</g>
</g>
<!-- Node5&#45;&gt;Node36 -->
<g id="edge43" class="edge">
<title>Node5&#45;&gt;Node36</title>
<path fill="none" stroke="midnightblue" d="M692.1,-440.21C719.68,-405.26 782.4,-325.79 803.09,-299.57"/>
<polygon fill="midnightblue" stroke="midnightblue" points="689.34,-438.06 685.89,-448.08 694.84,-442.39 689.34,-438.06"/>
</g>
<!-- Node38 -->
<g id="node38" class="node">
<title>Node38</title>
<g id="a_node38"><a xlink:href="spec_2packet__io__types_8h.html" target="_top" xlink:title="ODP Packet IO types.">
<polygon fill="white" stroke="black" points="740.85,-392.5 740.85,-411.5 844.85,-411.5 844.85,-392.5 740.85,-392.5"/>
<text text-anchor="middle" x="792.85" y="-399.5" font-family="Helvetica,sans-Serif" font-size="10.00">packet_io_types.h</text>
</a>
</g>
</g>
<!-- Node5&#45;&gt;Node38 -->
<g id="edge47" class="edge">
<title>Node5&#45;&gt;Node38</title>
<path fill="none" stroke="midnightblue" d="M706.09,-444.1C727.39,-434.01 756.39,-420.27 774.87,-411.52"/>
<polygon fill="midnightblue" stroke="midnightblue" points="704.45,-441 696.91,-448.44 707.45,-447.33 704.45,-441"/>
</g>
<!-- Node42 -->
<g id="node42" class="node">
<title>Node42</title>
<g id="a_node42"><a xlink:href="spec_2pool_8h.html" target="_top" xlink:title="ODP pool.">
<polygon fill="white" stroke="black" points="1253.35,-392.5 1253.35,-411.5 1300.35,-411.5 1300.35,-392.5 1253.35,-392.5"/>
<text text-anchor="middle" x="1276.85" y="-399.5" font-family="Helvetica,sans-Serif" font-size="10.00">pool.h</text>
</a>
</g>
</g>
<!-- Node5&#45;&gt;Node42 -->
<g id="edge56" class="edge">
<title>Node5&#45;&gt;Node42</title>
<path fill="none" stroke="midnightblue" d="M728.56,-456.15C827.42,-453.78 1055.44,-444.9 1243.85,-412 1246.89,-411.47 1250.06,-410.78 1253.18,-410.02"/>
<polygon fill="midnightblue" stroke="midnightblue" points="728.47,-452.65 718.56,-456.38 728.63,-459.65 728.47,-452.65"/>
</g>
<!-- Node44 -->
<g id="node44" class="node">
<title>Node44</title>
<g id="a_node44"><a xlink:href="spec_2timer_8h.html" target="_top" xlink:title="ODP timer service.">
<polygon fill="white" stroke="black" points="1318.35,-392.5 1318.35,-411.5 1369.35,-411.5 1369.35,-392.5 1318.35,-392.5"/>
<text text-anchor="middle" x="1343.85" y="-399.5" font-family="Helvetica,sans-Serif" font-size="10.00">timer.h</text>
</a>
</g>
</g>
<!-- Node5&#45;&gt;Node44 -->
<g id="edge58" class="edge">
<title>Node5&#45;&gt;Node44</title>
<path fill="none" stroke="midnightblue" d="M728.85,-456.61C836.06,-455.08 1095.71,-447.65 1309.85,-412 1312.62,-411.54 1315.49,-410.95 1318.34,-410.3"/>
<polygon fill="midnightblue" stroke="midnightblue" points="728.61,-453.11 718.65,-456.74 728.7,-460.11 728.61,-453.11"/>
</g>
<!-- Node46 -->
<g id="node46" class="node">
<title>Node46</title>
<g id="a_node46"><a xlink:href="event__inlines_8h_source.html" target="_top" xlink:title=" ">
<polygon fill="white" stroke="black" points="1041.35,-392.5 1041.35,-411.5 1132.35,-411.5 1132.35,-392.5 1041.35,-392.5"/>
<text text-anchor="middle" x="1086.85" y="-399.5" font-family="Helvetica,sans-Serif" font-size="10.00">event_inlines.h</text>
</a>
</g>
</g>
<!-- Node5&#45;&gt;Node46 -->
<g id="edge62" class="edge">
<title>Node5&#45;&gt;Node46</title>
<path fill="none" stroke="midnightblue" d="M728.41,-451.24C796.77,-443.17 923.83,-427.72 1031.85,-412 1034.91,-411.55 1038.07,-411.08 1041.25,-410.59"/>
<polygon fill="midnightblue" stroke="midnightblue" points="727.87,-447.78 718.35,-452.43 728.69,-454.73 727.87,-447.78"/>
</g>
<!-- Node47 -->
<g id="node47" class="node">
<title>Node47</title>
<g id="a_node47"><a xlink:href="pool__inlines_8h_source.html" target="_top" xlink:title=" ">
<polygon fill="white" stroke="black" points="1150.85,-392.5 1150.85,-411.5 1234.85,-411.5 1234.85,-392.5 1150.85,-392.5"/>
<text text-anchor="middle" x="1192.85" y="-399.5" font-family="Helvetica,sans-Serif" font-size="10.00">pool_inlines.h</text>
</a>
</g>
</g>
<!-- Node5&#45;&gt;Node47 -->
<g id="edge66" class="edge">
<title>Node5&#45;&gt;Node47</title>
<path fill="none" stroke="midnightblue" d="M728.64,-453.37C813.46,-446.91 991.35,-432.19 1140.85,-412 1144.03,-411.57 1147.31,-411.09 1150.6,-410.58"/>
<polygon fill="midnightblue" stroke="midnightblue" points="728.22,-449.89 718.52,-454.14 728.75,-456.87 728.22,-449.89"/>
</g>
<!-- Node7 -->
<g id="node7" class="node">
<title>Node7</title>
<g id="a_node7"><a xlink:href="buffer_8h.html" target="_top" xlink:title="ODP buffer descriptor.">
<polygon fill="white" stroke="black" points="1051.35,-336.5 1051.35,-355.5 1104.35,-355.5 1104.35,-336.5 1051.35,-336.5"/>
<text text-anchor="middle" x="1077.85" y="-343.5" font-family="Helvetica,sans-Serif" font-size="10.00">buffer.h</text>
</a>
</g>
</g>
<!-- Node6&#45;&gt;Node7 -->
<g id="edge6" class="edge">
<title>Node6&#45;&gt;Node7</title>
<path fill="none" stroke="midnightblue" d="M1018.42,-386.62C1033.21,-376.76 1052.36,-363.99 1064.87,-355.65"/>
<polygon fill="midnightblue" stroke="midnightblue" points="1016.24,-383.86 1009.86,-392.32 1020.13,-389.69 1016.24,-383.86"/>
</g>
<!-- Node7&#45;&gt;Node8 -->
<g id="edge7" class="edge">
<title>Node7&#45;&gt;Node8</title>
<path fill="none" stroke="midnightblue" d="M1077.85,-325.8C1077.85,-316.91 1077.85,-306.78 1077.85,-299.75"/>
<polygon fill="midnightblue" stroke="midnightblue" points="1074.35,-326.08 1077.85,-336.08 1081.35,-326.08 1074.35,-326.08"/>
</g>
<!-- Node10 -->
<g id="node10" class="node">
<title>Node10</title>
<g id="a_node10"><a xlink:href="classification_8h.html" target="_top" xlink:title="ODP classification descriptor.">
<polygon fill="white" stroke="black" points="1035.35,-224.5 1035.35,-243.5 1124.35,-243.5 1124.35,-224.5 1035.35,-224.5"/>
<text text-anchor="middle" x="1079.85" y="-231.5" font-family="Helvetica,sans-Serif" font-size="10.00">classification.h</text>
</a>
</g>
</g>
<!-- Node9&#45;&gt;Node10 -->
<g id="edge9" class="edge">
<title>Node9&#45;&gt;Node10</title>
<path fill="none" stroke="midnightblue" d="M1157.27,-275.59C1138.23,-265.61 1112.78,-252.27 1096.36,-243.65"/>
<polygon fill="midnightblue" stroke="midnightblue" points="1155.82,-278.78 1166.3,-280.32 1159.07,-272.58 1155.82,-278.78"/>
</g>
<!-- Node11 -->
<g id="node11" class="node">
<title>Node11</title>
<g id="a_node11"><a xlink:href="spec_2ipsec__types_8h.html" target="_top" xlink:title="ODP IPsec API type definitions.">
<polygon fill="white" stroke="black" points="857.35,-168.5 857.35,-187.5 940.35,-187.5 940.35,-168.5 857.35,-168.5"/>
<text text-anchor="middle" x="898.85" y="-175.5" font-family="Helvetica,sans-Serif" font-size="10.00">ipsec_types.h</text>
</a>
</g>
</g>
<!-- Node10&#45;&gt;Node11 -->
<g id="edge10" class="edge">
<title>Node10&#45;&gt;Node11</title>
<path fill="none" stroke="midnightblue" d="M1041.53,-221.57C1007.39,-211.38 958.19,-196.7 927.4,-187.52"/>
<polygon fill="midnightblue" stroke="midnightblue" points="1040.59,-224.94 1051.17,-224.44 1042.59,-218.23 1040.59,-224.94"/>
</g>
<!-- Node16 -->
<g id="node16" class="node">
<title>Node16</title>
<g id="a_node16"><a xlink:href="spec_2packet__io_8h.html" target="_top" xlink:title="ODP Packet IO.">
<polygon fill="white" stroke="black" points="1006.85,-168.5 1006.85,-187.5 1078.85,-187.5 1078.85,-168.5 1006.85,-168.5"/>
<text text-anchor="middle" x="1042.85" y="-175.5" font-family="Helvetica,sans-Serif" font-size="10.00">packet_io.h</text>
</a>
</g>
</g>
<!-- Node10&#45;&gt;Node16 -->
<g id="edge15" class="edge">
<title>Node10&#45;&gt;Node16</title>
<path fill="none" stroke="midnightblue" d="M1067.9,-215.57C1061.54,-206.27 1053.98,-195.25 1048.85,-187.75"/>
<polygon fill="midnightblue" stroke="midnightblue" points="1065.2,-217.81 1073.74,-224.08 1070.97,-213.86 1065.2,-217.81"/>
</g>
<!-- Node12 -->
<g id="node12" class="node">
<title>Node12</title>
<g id="a_node12"><a xlink:href="ipsec__types_8h.html" target="_top" xlink:title="ODP IPsec.">
<polygon fill="white" stroke="black" points="503.35,-112.5 503.35,-131.5 586.35,-131.5 586.35,-112.5 503.35,-112.5"/>
<text text-anchor="middle" x="544.85" y="-119.5" font-family="Helvetica,sans-Serif" font-size="10.00">ipsec_types.h</text>
</a>
</g>
</g>
<!-- Node11&#45;&gt;Node12 -->
<g id="edge11" class="edge">
<title>Node11&#45;&gt;Node12</title>
<path fill="none" stroke="midnightblue" d="M847.2,-169.12C776.67,-158.36 651.58,-139.28 586.61,-129.37"/>
<polygon fill="midnightblue" stroke="midnightblue" points="846.79,-172.6 857.2,-170.65 847.84,-165.68 846.79,-172.6"/>
</g>
<!-- Node13 -->
<g id="node13" class="node">
<title>Node13</title>
<g id="a_node13"><a xlink:href="spec_2ipsec_8h.html" target="_top" xlink:title="ODP IPsec API.">
<polygon fill="white" stroke="black" points="247.35,-56.5 247.35,-75.5 298.35,-75.5 298.35,-56.5 247.35,-56.5"/>
<text text-anchor="middle" x="272.85" y="-63.5" font-family="Helvetica,sans-Serif" font-size="10.00">ipsec.h</text>
</a>
</g>
</g>
<!-- Node12&#45;&gt;Node13 -->
<g id="edge12" class="edge">
<title>Node12&#45;&gt;Node13</title>
<path fill="none" stroke="midnightblue" d="M493.15,-110.74C435.02,-99.19 342.93,-80.91 298.5,-72.09"/>
<polygon fill="midnightblue" stroke="midnightblue" points="492.75,-114.23 503.24,-112.74 494.12,-107.36 492.75,-114.23"/>
</g>
<!-- Node15 -->
<g id="node15" class="node">
<title>Node15</title>
<g id="a_node15"><a xlink:href="ipsec__inlines_8h_source.html" target="_top" xlink:title=" ">
<polygon fill="white" stroke="black" points="500.35,-56.5 500.35,-75.5 589.35,-75.5 589.35,-56.5 500.35,-56.5"/>
<text text-anchor="middle" x="544.85" y="-63.5" font-family="Helvetica,sans-Serif" font-size="10.00">ipsec_inlines.h</text>
</a>
</g>
</g>
<!-- Node12&#45;&gt;Node15 -->
<g id="edge14" class="edge">
<title>Node12&#45;&gt;Node15</title>
<path fill="none" stroke="midnightblue" d="M544.85,-101.8C544.85,-92.91 544.85,-82.78 544.85,-75.75"/>
<polygon fill="midnightblue" stroke="midnightblue" points="541.35,-102.08 544.85,-112.08 548.35,-102.08 541.35,-102.08"/>
</g>
<!-- Node14 -->
<g id="node14" class="node">
<title>Node14</title>
<g id="a_node14"><a xlink:href="ipsec_8h.html" target="_top" xlink:title="ODP IPSEC API &#45; platform specific header.">
<polygon fill="white" stroke="black" points="247.35,-0.5 247.35,-19.5 298.35,-19.5 298.35,-0.5 247.35,-0.5"/>
<text text-anchor="middle" x="272.85" y="-7.5" font-family="Helvetica,sans-Serif" font-size="10.00">ipsec.h</text>
</a>
</g>
</g>
<!-- Node13&#45;&gt;Node14 -->
<g id="edge13" class="edge">
<title>Node13&#45;&gt;Node14</title>
<path fill="none" stroke="midnightblue" d="M272.85,-45.8C272.85,-36.91 272.85,-26.78 272.85,-19.75"/>
<polygon fill="midnightblue" stroke="midnightblue" points="269.35,-46.08 272.85,-56.08 276.35,-46.08 269.35,-46.08"/>
</g>
<!-- Node17 -->
<g id="node17" class="node">
<title>Node17</title>
<g id="a_node17"><a xlink:href="packet__io_8h.html" target="_top" xlink:title="ODP Packet IO.">
<polygon fill="white" stroke="black" points="1006.85,-112.5 1006.85,-131.5 1078.85,-131.5 1078.85,-112.5 1006.85,-112.5"/>
<text text-anchor="middle" x="1042.85" y="-119.5" font-family="Helvetica,sans-Serif" font-size="10.00">packet_io.h</text>
</a>
</g>
</g>
<!-- Node16&#45;&gt;Node17 -->
<g id="edge16" class="edge">
<title>Node16&#45;&gt;Node17</title>
<path fill="none" stroke="midnightblue" d="M1042.85,-157.8C1042.85,-148.91 1042.85,-138.78 1042.85,-131.75"/>
<polygon fill="midnightblue" stroke="midnightblue" points="1039.35,-158.08 1042.85,-168.08 1046.35,-158.08 1039.35,-158.08"/>
</g>
<!-- Node19 -->
<g id="node19" class="node">
<title>Node19</title>
<g id="a_node19"><a xlink:href="crypto__types_8h.html" target="_top" xlink:title="ODP crypto.">
<polygon fill="white" stroke="black" points="16.35,-224.5 16.35,-243.5 105.35,-243.5 105.35,-224.5 16.35,-224.5"/>
<text text-anchor="middle" x="60.85" y="-231.5" font-family="Helvetica,sans-Serif" font-size="10.00">crypto_types.h</text>
</a>
</g>
</g>
<!-- Node18&#45;&gt;Node19 -->
<g id="edge18" class="edge">
<title>Node18&#45;&gt;Node19</title>
<path fill="none" stroke="midnightblue" d="M221.91,-336.12C159.66,-328.86 34.88,-335.39 4.85,-300 -12.4,-279.67 21.85,-255.99 44.02,-243.59"/>
<polygon fill="midnightblue" stroke="midnightblue" points="221.67,-339.62 232.06,-337.53 222.64,-332.69 221.67,-339.62"/>
</g>
<!-- Node19&#45;&gt;Node11 -->
<g id="edge22" class="edge">
<title>Node19&#45;&gt;Node11</title>
<path fill="none" stroke="midnightblue" d="M115.94,-229.45C272.6,-219.36 718.23,-190.64 857.04,-181.69"/>
<polygon fill="midnightblue" stroke="midnightblue" points="115.36,-225.98 105.61,-230.12 115.81,-232.97 115.36,-225.98"/>
</g>
<!-- Node19&#45;&gt;Node13 -->
<g id="edge21" class="edge">
<title>Node19&#45;&gt;Node13</title>
<path fill="none" stroke="midnightblue" d="M70.83,-215.5C79.4,-201.51 92.74,-181.99 107.85,-168 154.18,-125.1 221.45,-90.74 253.92,-75.51"/>
<polygon fill="midnightblue" stroke="midnightblue" points="67.79,-213.78 65.7,-224.16 73.81,-217.34 67.79,-213.78"/>
</g>
<!-- Node20 -->
<g id="node20" class="node">
<title>Node20</title>
<g id="a_node20"><a xlink:href="spec_2crypto_8h.html" target="_top" xlink:title="ODP crypto.">
<polygon fill="white" stroke="black" points="4.85,-168.5 4.85,-187.5 60.85,-187.5 60.85,-168.5 4.85,-168.5"/>
<text text-anchor="middle" x="32.85" y="-175.5" font-family="Helvetica,sans-Serif" font-size="10.00">crypto.h</text>
</a>
</g>
</g>
<!-- Node19&#45;&gt;Node20 -->
<g id="edge19" class="edge">
<title>Node19&#45;&gt;Node20</title>
<path fill="none" stroke="midnightblue" d="M51.51,-214.98C46.75,-205.82 41.19,-195.09 37.39,-187.75"/>
<polygon fill="midnightblue" stroke="midnightblue" points="48.52,-216.82 56.23,-224.08 54.73,-213.59 48.52,-216.82"/>
</g>
<!-- Node22 -->
<g id="node22" class="node">
<title>Node22</title>
<g id="a_node22"><a xlink:href="crypto__inlines_8h_source.html" target="_top" xlink:title=" ">
<polygon fill="white" stroke="black" points="116.85,-168.5 116.85,-187.5 210.85,-187.5 210.85,-168.5 116.85,-168.5"/>
<text text-anchor="middle" x="163.85" y="-175.5" font-family="Helvetica,sans-Serif" font-size="10.00">crypto_inlines.h</text>
</a>
</g>
</g>
<!-- Node19&#45;&gt;Node22 -->
<g id="edge23" class="edge">
<title>Node19&#45;&gt;Node22</title>
<path fill="none" stroke="midnightblue" d="M86.43,-219.59C105.47,-209.61 130.91,-196.27 147.34,-187.65"/>
<polygon fill="midnightblue" stroke="midnightblue" points="84.63,-216.58 77.4,-224.32 87.88,-222.78 84.63,-216.58"/>
</g>
<!-- Node21 -->
<g id="node21" class="node">
<title>Node21</title>
<g id="a_node21"><a xlink:href="crypto_8h.html" target="_top" xlink:title="ODP crypto.">
<polygon fill="white" stroke="black" points="4.85,-112.5 4.85,-131.5 60.85,-131.5 60.85,-112.5 4.85,-112.5"/>
<text text-anchor="middle" x="32.85" y="-119.5" font-family="Helvetica,sans-Serif" font-size="10.00">crypto.h</text>
</a>
</g>
</g>
<!-- Node20&#45;&gt;Node21 -->
<g id="edge20" class="edge">
<title>Node20&#45;&gt;Node21</title>
<path fill="none" stroke="midnightblue" d="M32.85,-157.8C32.85,-148.91 32.85,-138.78 32.85,-131.75"/>
<polygon fill="midnightblue" stroke="midnightblue" points="29.35,-158.08 32.85,-168.08 36.35,-158.08 29.35,-158.08"/>
</g>
<!-- Node24 -->
<g id="node24" class="node">
<title>Node24</title>
<g id="a_node24"><a xlink:href="dma_8h.html" target="_top" xlink:title="ODP DMA.">
<polygon fill="white" stroke="black" points="618.35,-224.5 618.35,-243.5 665.35,-243.5 665.35,-224.5 618.35,-224.5"/>
<text text-anchor="middle" x="641.85" y="-231.5" font-family="Helvetica,sans-Serif" font-size="10.00">dma.h</text>
</a>
</g>
</g>
<!-- Node23&#45;&gt;Node24 -->
<g id="edge25" class="edge">
<title>Node23&#45;&gt;Node24</title>
<path fill="none" stroke="midnightblue" d="M714.51,-275.45C696.61,-265.48 672.8,-252.23 657.4,-243.65"/>
<polygon fill="midnightblue" stroke="midnightblue" points="712.82,-278.52 723.26,-280.32 716.23,-272.4 712.82,-278.52"/>
</g>
<!-- Node26 -->
<g id="node26" class="node">
<title>Node26</title>
<g id="a_node26"><a xlink:href="dma__types_8h.html" target="_top" xlink:title="ODP DMA.">
<polygon fill="white" stroke="black" points="604.85,-336.5 604.85,-355.5 684.85,-355.5 684.85,-336.5 604.85,-336.5"/>
<text text-anchor="middle" x="644.85" y="-343.5" font-family="Helvetica,sans-Serif" font-size="10.00">dma_types.h</text>
</a>
</g>
</g>
<!-- Node25&#45;&gt;Node26 -->
<g id="edge27" class="edge">
<title>Node25&#45;&gt;Node26</title>
<path fill="none" stroke="midnightblue" d="M644.85,-381.8C644.85,-372.91 644.85,-362.78 644.85,-355.75"/>
<polygon fill="midnightblue" stroke="midnightblue" points="641.35,-382.08 644.85,-392.08 648.35,-382.08 641.35,-382.08"/>
</g>
<!-- Node26&#45;&gt;Node4 -->
<g id="edge29" class="edge">
<title>Node26&#45;&gt;Node4</title>
<path fill="none" stroke="midnightblue" d="M594.44,-349.76C525.4,-354.46 406.07,-366.15 371.85,-392 333.68,-420.83 320.03,-481.61 316.16,-504.26"/>
<polygon fill="midnightblue" stroke="midnightblue" points="594.91,-353.24 604.66,-349.09 594.45,-346.26 594.91,-353.24"/>
</g>
<!-- Node26&#45;&gt;Node8 -->
<g id="edge30" class="edge">
<title>Node26&#45;&gt;Node8</title>
<path fill="none" stroke="midnightblue" d="M695.24,-338.72C781.24,-327.99 954.83,-306.34 1035.22,-296.32"/>
<polygon fill="midnightblue" stroke="midnightblue" points="694.69,-335.26 685.2,-339.97 695.55,-342.2 694.69,-335.26"/>
</g>
<!-- Node26&#45;&gt;Node23 -->
<g id="edge28" class="edge">
<title>Node26&#45;&gt;Node23</title>
<path fill="none" stroke="midnightblue" d="M668.91,-331.18C686.21,-321.24 709,-308.15 723.78,-299.65"/>
<polygon fill="midnightblue" stroke="midnightblue" points="666.88,-328.31 659.95,-336.32 670.37,-334.38 666.88,-328.31"/>
</g>
<!-- Node28 -->
<g id="node28" class="node">
<title>Node28</title>
<g id="a_node28"><a xlink:href="event_8h.html" target="_top" xlink:title="ODP event.">
<polygon fill="white" stroke="black" points="381.35,-336.5 381.35,-355.5 434.35,-355.5 434.35,-336.5 381.35,-336.5"/>
<text text-anchor="middle" x="407.85" y="-343.5" font-family="Helvetica,sans-Serif" font-size="10.00">event.h</text>
</a>
</g>
</g>
<!-- Node27&#45;&gt;Node28 -->
<g id="edge32" class="edge">
<title>Node27&#45;&gt;Node28</title>
<path fill="none" stroke="midnightblue" d="M407.85,-381.8C407.85,-372.91 407.85,-362.78 407.85,-355.75"/>
<polygon fill="midnightblue" stroke="midnightblue" points="404.35,-382.08 407.85,-392.08 411.35,-382.08 404.35,-382.08"/>
</g>
<!-- Node28&#45;&gt;Node15 -->
<g id="edge36" class="edge">
<title>Node28&#45;&gt;Node15</title>
<path fill="none" stroke="midnightblue" d="M371.43,-338.45C347.65,-332.35 317.64,-320.92 298.85,-300 278.74,-277.61 279.85,-265.1 279.85,-235 279.85,-235 279.85,-235 279.85,-177 279.85,-82.73 424.67,-67.72 500.2,-66.31"/>
<polygon fill="midnightblue" stroke="midnightblue" points="370.65,-341.86 381.19,-340.74 372.26,-335.04 370.65,-341.86"/>
</g>
<!-- Node28&#45;&gt;Node22 -->
<g id="edge34" class="edge">
<title>Node28&#45;&gt;Node22</title>
<path fill="none" stroke="midnightblue" d="M370.77,-336.77C369.45,-336.51 368.14,-336.25 366.85,-336 319.51,-326.83 183.99,-336.82 152.85,-300 124.92,-266.98 148.78,-209.25 159.39,-187.56"/>
<polygon fill="midnightblue" stroke="midnightblue" points="370.48,-340.29 380.98,-338.9 371.91,-333.44 370.48,-340.29"/>
</g>
<!-- Node28&#45;&gt;Node29 -->
<g id="edge33" class="edge">
<title>Node28&#45;&gt;Node29</title>
<path fill="none" stroke="midnightblue" d="M370.78,-336.74C369.45,-336.48 368.14,-336.24 366.85,-336 257.71,-316.09 229.59,-316.23 119.85,-300 115.37,-299.34 110.7,-298.64 106.03,-297.95"/>
<polygon fill="midnightblue" stroke="midnightblue" points="370.5,-340.25 381,-338.82 371.9,-333.39 370.5,-340.25"/>
</g>
<!-- Node28&#45;&gt;Node30 -->
<g id="edge35" class="edge">
<title>Node28&#45;&gt;Node30</title>
<path fill="none" stroke="midnightblue" d="M396.23,-327.57C390.03,-318.27 382.68,-307.25 377.68,-299.75"/>
<polygon fill="midnightblue" stroke="midnightblue" points="393.45,-329.7 401.9,-336.08 399.27,-325.82 393.45,-329.7"/>
</g>
<!-- Node28&#45;&gt;Node31 -->
<g id="edge37" class="edge">
<title>Node28&#45;&gt;Node31</title>
<path fill="none" stroke="midnightblue" d="M431.66,-331.18C448.77,-321.24 471.31,-308.15 485.94,-299.65"/>
<polygon fill="midnightblue" stroke="midnightblue" points="429.68,-328.28 422.79,-336.32 433.2,-334.33 429.68,-328.28"/>
</g>
<!-- Node28&#45;&gt;Node32 -->
<g id="edge38" class="edge">
<title>Node28&#45;&gt;Node32</title>
<path fill="none" stroke="midnightblue" d="M444.24,-336.23C486.26,-326.1 554.89,-309.55 596.47,-299.53"/>
<polygon fill="midnightblue" stroke="midnightblue" points="443.33,-332.85 434.42,-338.59 444.97,-339.65 443.33,-332.85"/>
</g>
<!-- Node33 -->
<g id="node33" class="node">
<title>Node33</title>
<g id="a_node33"><a xlink:href="timer__inlines_8h_source.html" target="_top" xlink:title=" ">
<polygon fill="white" stroke="black" points="162.35,-280.5 162.35,-299.5 251.35,-299.5 251.35,-280.5 162.35,-280.5"/>
<text text-anchor="middle" x="206.85" y="-287.5" font-family="Helvetica,sans-Serif" font-size="10.00">timer_inlines.h</text>
</a>
</g>
</g>
<!-- Node28&#45;&gt;Node33 -->
<g id="edge39" class="edge">
<title>Node28&#45;&gt;Node33</title>
<path fill="none" stroke="midnightblue" d="M371.04,-335.11C333.11,-324.92 274.6,-309.2 238.63,-299.54"/>
<polygon fill="midnightblue" stroke="midnightblue" points="370.59,-338.61 381.16,-337.83 372.41,-331.85 370.59,-338.61"/>
</g>
<!-- Node35 -->
<g id="node35" class="node">
<title>Node35</title>
<g id="a_node35"><a xlink:href="event__vector_8h.html" target="_top" xlink:title="ODP event vector.">
<polygon fill="white" stroke="black" points="944.35,-336.5 944.35,-355.5 1033.35,-355.5 1033.35,-336.5 944.35,-336.5"/>
<text text-anchor="middle" x="988.85" y="-343.5" font-family="Helvetica,sans-Serif" font-size="10.00">event_vector.h</text>
</a>
</g>
</g>
<!-- Node34&#45;&gt;Node35 -->
<g id="edge41" class="edge">
<title>Node34&#45;&gt;Node35</title>
<path fill="none" stroke="midnightblue" d="M929.42,-386.62C944.21,-376.76 963.36,-363.99 975.87,-355.65"/>
<polygon fill="midnightblue" stroke="midnightblue" points="927.24,-383.86 920.86,-392.32 931.13,-389.69 927.24,-383.86"/>
</g>
<!-- Node37 -->
<g id="node37" class="node">
<title>Node37</title>
<g id="a_node37"><a xlink:href="packet_8h.html" target="_top" xlink:title="ODP packet descriptor.">
<polygon fill="white" stroke="black" points="683.85,-224.5 683.85,-243.5 741.85,-243.5 741.85,-224.5 683.85,-224.5"/>
<text text-anchor="middle" x="712.85" y="-231.5" font-family="Helvetica,sans-Serif" font-size="10.00">packet.h</text>
</a>
</g>
</g>
<!-- Node36&#45;&gt;Node37 -->
<g id="edge44" class="edge">
<title>Node36&#45;&gt;Node37</title>
<path fill="none" stroke="midnightblue" d="M785.51,-275.45C767.61,-265.48 743.8,-252.23 728.4,-243.65"/>
<polygon fill="midnightblue" stroke="midnightblue" points="783.82,-278.52 794.26,-280.32 787.23,-272.4 783.82,-278.52"/>
</g>
<!-- Node37&#45;&gt;Node15 -->
<g id="edge46" class="edge">
<title>Node37&#45;&gt;Node15</title>
<path fill="none" stroke="midnightblue" d="M697.82,-216.94C675.71,-193.45 632.89,-148.55 594.85,-112 581.37,-99.05 565.21,-84.71 554.99,-75.78"/>
<polygon fill="midnightblue" stroke="midnightblue" points="695.34,-219.41 704.74,-224.3 700.45,-214.62 695.34,-219.41"/>
</g>
<!-- Node37&#45;&gt;Node22 -->
<g id="edge45" class="edge">
<title>Node37&#45;&gt;Node22</title>
<path fill="none" stroke="midnightblue" d="M673.56,-224.2C497.13,-196.7 299.44,-185.14 210.88,-180.97"/>
<polygon fill="midnightblue" stroke="midnightblue" points="673.12,-227.68 683.55,-225.78 674.22,-220.76 673.12,-227.68"/>
</g>
<!-- Node39 -->
<g id="node39" class="node">
<title>Node39</title>
<g id="a_node39"><a xlink:href="packet__io__types_8h.html" target="_top" xlink:title="ODP Packet IO.">
<polygon fill="white" stroke="black" points="821.85,-336.5 821.85,-355.5 925.85,-355.5 925.85,-336.5 821.85,-336.5"/>
<text text-anchor="middle" x="873.85" y="-343.5" font-family="Helvetica,sans-Serif" font-size="10.00">packet_io_types.h</text>
</a>
</g>
</g>
<!-- Node38&#45;&gt;Node39 -->
<g id="edge48" class="edge">
<title>Node38&#45;&gt;Node39</title>
<path fill="none" stroke="midnightblue" d="M814.42,-386.62C829.21,-376.76 848.36,-363.99 860.87,-355.65"/>
<polygon fill="midnightblue" stroke="midnightblue" points="812.24,-383.86 805.86,-392.32 816.13,-389.69 812.24,-383.86"/>
</g>
<!-- Node39&#45;&gt;Node9 -->
<g id="edge49" class="edge">
<title>Node39&#45;&gt;Node9</title>
<path fill="none" stroke="midnightblue" d="M932.87,-334.69C992.72,-324.23 1084.01,-308.27 1138.13,-298.82"/>
<polygon fill="midnightblue" stroke="midnightblue" points="932.06,-331.27 922.81,-336.44 933.26,-338.17 932.06,-331.27"/>
</g>
<!-- Node39&#45;&gt;Node11 -->
<g id="edge50" class="edge">
<title>Node39&#45;&gt;Node11</title>
<path fill="none" stroke="midnightblue" d="M911.37,-332.23C926.08,-325.16 941.44,-314.75 949.85,-300 966.58,-270.66 963.74,-254.79 949.85,-224 942.66,-208.07 926.74,-195.52 914.58,-187.76"/>
<polygon fill="midnightblue" stroke="midnightblue" points="909.61,-329.17 901.86,-336.4 912.43,-335.58 909.61,-329.17"/>
</g>
<!-- Node39&#45;&gt;Node16 -->
<g id="edge52" class="edge">
<title>Node39&#45;&gt;Node16</title>
<path fill="none" stroke="midnightblue" d="M911.58,-332.96C930.33,-325.61 952.44,-314.75 968.85,-300 1006.21,-266.42 1031.02,-209.52 1039.55,-187.79"/>
<polygon fill="midnightblue" stroke="midnightblue" points="910.27,-329.71 902.12,-336.48 912.71,-336.27 910.27,-329.71"/>
</g>
<!-- Node39&#45;&gt;Node36 -->
<g id="edge51" class="edge">
<title>Node39&#45;&gt;Node36</title>
<path fill="none" stroke="midnightblue" d="M855.86,-329.82C844.39,-320.15 829.94,-307.95 820.32,-299.83"/>
<polygon fill="midnightblue" stroke="midnightblue" points="853.67,-332.55 863.57,-336.32 858.18,-327.2 853.67,-332.55"/>
</g>
<!-- Node40 -->
<g id="node40" class="node">
<title>Node40</title>
<g id="a_node40"><a xlink:href="spec_2traffic__mngr_8h.html" target="_top" xlink:title=" ">
<polygon fill="white" stroke="black" points="856.85,-280.5 856.85,-299.5 940.85,-299.5 940.85,-280.5 856.85,-280.5"/>
<text text-anchor="middle" x="898.85" y="-287.5" font-family="Helvetica,sans-Serif" font-size="10.00">traffic_mngr.h</text>
</a>
</g>
</g>
<!-- Node39&#45;&gt;Node40 -->
<g id="edge53" class="edge">
<title>Node39&#45;&gt;Node40</title>
<path fill="none" stroke="midnightblue" d="M882.19,-326.98C886.43,-317.82 891.4,-307.09 894.8,-299.75"/>
<polygon fill="midnightblue" stroke="midnightblue" points="879,-325.54 877.98,-336.08 885.36,-328.48 879,-325.54"/>
</g>
<!-- Node41 -->
<g id="node41" class="node">
<title>Node41</title>
<g id="a_node41"><a xlink:href="traffic__mngr_8h.html" target="_top" xlink:title="ODP Traffic manager.">
<polygon fill="white" stroke="black" points="856.85,-224.5 856.85,-243.5 940.85,-243.5 940.85,-224.5 856.85,-224.5"/>
<text text-anchor="middle" x="898.85" y="-231.5" font-family="Helvetica,sans-Serif" font-size="10.00">traffic_mngr.h</text>
</a>
</g>
</g>
<!-- Node40&#45;&gt;Node41 -->
<g id="edge54" class="edge">
<title>Node40&#45;&gt;Node41</title>
<path fill="none" stroke="midnightblue" d="M898.85,-269.8C898.85,-260.91 898.85,-250.78 898.85,-243.75"/>
<polygon fill="midnightblue" stroke="midnightblue" points="895.35,-270.08 898.85,-280.08 902.35,-270.08 895.35,-270.08"/>
</g>
<!-- Node41&#45;&gt;Node11 -->
<g id="edge55" class="edge">
<title>Node41&#45;&gt;Node11</title>
<path fill="none" stroke="midnightblue" d="M898.85,-213.8C898.85,-204.91 898.85,-194.78 898.85,-187.75"/>
<polygon fill="midnightblue" stroke="midnightblue" points="895.35,-214.08 898.85,-224.08 902.35,-214.08 895.35,-214.08"/>
</g>
<!-- Node43 -->
<g id="node43" class="node">
<title>Node43</title>
<g id="a_node43"><a xlink:href="pool_8h.html" target="_top" xlink:title="ODP pool.">
<polygon fill="white" stroke="black" points="1253.35,-336.5 1253.35,-355.5 1300.35,-355.5 1300.35,-336.5 1253.35,-336.5"/>
<text text-anchor="middle" x="1276.85" y="-343.5" font-family="Helvetica,sans-Serif" font-size="10.00">pool.h</text>
</a>
</g>
</g>
<!-- Node42&#45;&gt;Node43 -->
<g id="edge57" class="edge">
<title>Node42&#45;&gt;Node43</title>
<path fill="none" stroke="midnightblue" d="M1276.85,-381.8C1276.85,-372.91 1276.85,-362.78 1276.85,-355.75"/>
<polygon fill="midnightblue" stroke="midnightblue" points="1273.35,-382.08 1276.85,-392.08 1280.35,-382.08 1273.35,-382.08"/>
</g>
<!-- Node45 -->
<g id="node45" class="node">
<title>Node45</title>
<g id="a_node45"><a xlink:href="timer_8h.html" target="_top" xlink:title="ODP timer service.">
<polygon fill="white" stroke="black" points="1318.35,-336.5 1318.35,-355.5 1369.35,-355.5 1369.35,-336.5 1318.35,-336.5"/>
<text text-anchor="middle" x="1343.85" y="-343.5" font-family="Helvetica,sans-Serif" font-size="10.00">timer.h</text>
</a>
</g>
</g>
<!-- Node44&#45;&gt;Node45 -->
<g id="edge59" class="edge">
<title>Node44&#45;&gt;Node45</title>
<path fill="none" stroke="midnightblue" d="M1343.85,-381.8C1343.85,-372.91 1343.85,-362.78 1343.85,-355.75"/>
<polygon fill="midnightblue" stroke="midnightblue" points="1340.35,-382.08 1343.85,-392.08 1347.35,-382.08 1340.35,-382.08"/>
</g>
</g>
</svg>
