<?xml version="1.0" encoding="UTF-8" standalone="no"?>
<!DOCTYPE svg PUBLIC "-//W3C//DTD SVG 1.1//EN"
 "http://www.w3.org/Graphics/SVG/1.1/DTD/svg11.dtd">
<!-- Generated by graphviz version 2.43.0 (0)
 -->
<!-- Title: ml_types.h Pages: 1 -->
<svg width="1488pt" height="577pt"
 viewBox="0.00 0.00 1487.91 577.00" xmlns="http://www.w3.org/2000/svg" xmlns:xlink="http://www.w3.org/1999/xlink">
<g id="graph0" class="graph" transform="scale(1 1) rotate(0) translate(4 573)">
<title>ml_types.h</title>
<!-- Node1 -->
<g id="Node000001" class="node">
<title>Node1</title>
<g id="a_Node000001"><a xlink:title="ODP Machine Learning (ML) types.">
<polygon fill="#999999" stroke="#666666" points="582.91,-569 511.91,-569 511.91,-550 582.91,-550 582.91,-569"/>
<text text-anchor="middle" x="547.41" y="-557" font-family="Helvetica,sans-Serif" font-size="10.00">ml_types.h</text>
</a>
</g>
</g>
<!-- Node2 -->
<g id="Node000002" class="node">
<title>Node2</title>
<g id="a_Node000002"><a xlink:href="spec_2ml_8h.html" target="_top" xlink:title="ODP Machine Learning (ML) offload.">
<polygon fill="white" stroke="#666666" points="313.41,-404 275.41,-404 275.41,-385 313.41,-385 313.41,-404"/>
<text text-anchor="middle" x="294.41" y="-392" font-family="Helvetica,sans-Serif" font-size="10.00">ml.h</text>
</a>
</g>
</g>
<!-- Node1&#45;&gt;Node2 -->
<g id="edge1_Node000001_Node000002" class="edge">
<title>Node1&#45;&gt;Node2</title>
<g id="a_edge1_Node000001_Node000002"><a xlink:title=" ">
<path fill="none" stroke="#63b8ff" d="M525.55,-544.42C474.6,-511.59 349.13,-430.75 307.83,-404.15"/>
<polygon fill="#63b8ff" stroke="#63b8ff" points="523.86,-547.49 534.16,-549.97 527.65,-541.61 523.86,-547.49"/>
</a>
</g>
</g>
<!-- Node4 -->
<g id="Node000004" class="node">
<title>Node4</title>
<g id="a_Node000004"><a xlink:href="spec_2pool__types_8h.html" target="_top" xlink:title="Type definitions for pools.">
<polygon fill="white" stroke="#666666" points="838.91,-514 759.91,-514 759.91,-495 838.91,-495 838.91,-514"/>
<text text-anchor="middle" x="799.41" y="-502" font-family="Helvetica,sans-Serif" font-size="10.00">pool_types.h</text>
</a>
</g>
</g>
<!-- Node1&#45;&gt;Node4 -->
<g id="edge3_Node000001_Node000004" class="edge">
<title>Node1&#45;&gt;Node4</title>
<g id="a_edge3_Node000001_Node000004"><a xlink:title=" ">
<path fill="none" stroke="#63b8ff" d="M593.02,-548.91C640.66,-538.89 714.63,-523.33 759.87,-513.82"/>
<polygon fill="#63b8ff" stroke="#63b8ff" points="592.05,-545.54 582.98,-551.02 593.49,-552.39 592.05,-545.54"/>
</a>
</g>
</g>
<!-- Node3 -->
<g id="Node000003" class="node">
<title>Node3</title>
<g id="a_Node000003"><a xlink:href="ml_8h.html" target="_top" xlink:title="ODP Machine Learning (ML) offload.">
<polygon fill="white" stroke="#666666" points="243.41,-349 205.41,-349 205.41,-330 243.41,-330 243.41,-349"/>
<text text-anchor="middle" x="224.41" y="-337" font-family="Helvetica,sans-Serif" font-size="10.00">ml.h</text>
</a>
</g>
</g>
<!-- Node2&#45;&gt;Node3 -->
<g id="edge2_Node000002_Node000003" class="edge">
<title>Node2&#45;&gt;Node3</title>
<g id="a_edge2_Node000002_Node000003"><a xlink:title=" ">
<path fill="none" stroke="#63b8ff" d="M275.1,-378.88C262.5,-369.34 246.48,-357.21 235.86,-349.17"/>
<polygon fill="#63b8ff" stroke="#63b8ff" points="273.08,-381.74 283.16,-384.98 277.3,-376.16 273.08,-381.74"/>
</a>
</g>
</g>
<!-- Node5 -->
<g id="Node000005" class="node">
<title>Node5</title>
<g id="a_Node000005"><a xlink:href="pool__types_8h.html" target="_top" xlink:title="ODP pool.">
<polygon fill="white" stroke="#666666" points="838.91,-459 759.91,-459 759.91,-440 838.91,-440 838.91,-459"/>
<text text-anchor="middle" x="799.41" y="-447" font-family="Helvetica,sans-Serif" font-size="10.00">pool_types.h</text>
</a>
</g>
</g>
<!-- Node4&#45;&gt;Node5 -->
<g id="edge4_Node000004_Node000005" class="edge">
<title>Node4&#45;&gt;Node5</title>
<g id="a_edge4_Node000004_Node000005"><a xlink:title=" ">
<path fill="none" stroke="#63b8ff" d="M799.41,-484.66C799.41,-475.93 799.41,-465.99 799.41,-459.09"/>
<polygon fill="#63b8ff" stroke="#63b8ff" points="795.91,-484.75 799.41,-494.75 802.91,-484.75 795.91,-484.75"/>
</a>
</g>
</g>
<!-- Node5&#45;&gt;Node2 -->
<g id="edge46_Node000005_Node000002" class="edge">
<title>Node5&#45;&gt;Node2</title>
<g id="a_edge46_Node000005_Node000002"><a xlink:title=" ">
<path fill="none" stroke="#63b8ff" d="M749.6,-446.4C663.14,-442.17 479.92,-430.66 327.41,-404 322.86,-403.21 318.02,-402.11 313.49,-400.96"/>
<polygon fill="#63b8ff" stroke="#63b8ff" points="749.5,-449.89 759.66,-446.88 749.83,-442.9 749.5,-449.89"/>
</a>
</g>
</g>
<!-- Node6 -->
<g id="Node000006" class="node">
<title>Node6</title>
<g id="a_Node000006"><a xlink:href="spec_2buffer_8h.html" target="_top" xlink:title="ODP buffer.">
<polygon fill="white" stroke="#666666" points="1335.91,-404 1282.91,-404 1282.91,-385 1335.91,-385 1335.91,-404"/>
<text text-anchor="middle" x="1309.41" y="-392" font-family="Helvetica,sans-Serif" font-size="10.00">buffer.h</text>
</a>
</g>
</g>
<!-- Node5&#45;&gt;Node6 -->
<g id="edge5_Node000005_Node000006" class="edge">
<title>Node5&#45;&gt;Node6</title>
<g id="a_edge5_Node000005_Node000006"><a xlink:title=" ">
<path fill="none" stroke="#63b8ff" d="M849.16,-446.21C935.98,-441.7 1120.55,-429.75 1274.41,-404 1277.12,-403.55 1279.94,-403 1282.74,-402.4"/>
<polygon fill="#63b8ff" stroke="#63b8ff" points="848.88,-442.72 839.07,-446.73 849.24,-449.71 848.88,-442.72"/>
</a>
</g>
</g>
<!-- Node8 -->
<g id="Node000008" class="node">
<title>Node8</title>
<g id="a_Node000008"><a xlink:href="dma__inlines_8h_source.html" target="_top" xlink:title=" ">
<polygon fill="white" stroke="#666666" points="1351.91,-294 1266.91,-294 1266.91,-275 1351.91,-275 1351.91,-294"/>
<text text-anchor="middle" x="1309.41" y="-282" font-family="Helvetica,sans-Serif" font-size="10.00">dma_inlines.h</text>
</a>
</g>
</g>
<!-- Node5&#45;&gt;Node8 -->
<g id="edge27_Node000005_Node000008" class="edge">
<title>Node5&#45;&gt;Node8</title>
<g id="a_edge27_Node000005_Node000008"><a xlink:title=" ">
<path fill="none" stroke="#63b8ff" d="M849.33,-445.75C888.62,-441.5 943.27,-430.81 983.41,-404 1017.27,-381.39 1002.73,-351.33 1037.41,-330 1075.06,-306.85 1200.03,-293.94 1266.68,-288.54"/>
<polygon fill="#63b8ff" stroke="#63b8ff" points="848.79,-442.29 839.18,-446.74 849.47,-449.25 848.79,-442.29"/>
</a>
</g>
</g>
<!-- Node9 -->
<g id="Node000009" class="node">
<title>Node9</title>
<g id="a_Node000009"><a xlink:href="buffer__inlines_8h_source.html" target="_top" xlink:title=" ">
<polygon fill="white" stroke="#666666" points="116.41,-294 24.41,-294 24.41,-275 116.41,-275 116.41,-294"/>
<text text-anchor="middle" x="70.41" y="-282" font-family="Helvetica,sans-Serif" font-size="10.00">buffer_inlines.h</text>
</a>
</g>
</g>
<!-- Node5&#45;&gt;Node9 -->
<g id="edge8_Node000005_Node000009" class="edge">
<title>Node5&#45;&gt;Node9</title>
<g id="a_edge8_Node000005_Node000009"><a xlink:title=" ">
<path fill="none" stroke="#63b8ff" d="M749.63,-446.68C662.02,-442.8 484.38,-431.68 429.41,-404 388.97,-383.64 399.5,-351.02 359.41,-330 266.22,-281.14 229.4,-310.04 125.41,-294 122.54,-293.56 119.6,-293.1 116.62,-292.64"/>
<polygon fill="#63b8ff" stroke="#63b8ff" points="749.71,-450.19 759.85,-447.12 750.01,-443.19 749.71,-450.19"/>
</a>
</g>
</g>
<!-- Node10 -->
<g id="Node000010" class="node">
<title>Node10</title>
<g id="a_Node000010"><a xlink:href="spec_2classification_8h.html" target="_top" xlink:title="ODP classification descriptor.">
<polygon fill="white" stroke="#666666" points="954.91,-294 865.91,-294 865.91,-275 954.91,-275 954.91,-294"/>
<text text-anchor="middle" x="910.41" y="-282" font-family="Helvetica,sans-Serif" font-size="10.00">classification.h</text>
</a>
</g>
</g>
<!-- Node5&#45;&gt;Node10 -->
<g id="edge9_Node000005_Node000010" class="edge">
<title>Node5&#45;&gt;Node10</title>
<g id="a_edge9_Node000005_Node000010"><a xlink:title=" ">
<path fill="none" stroke="#63b8ff" d="M749.74,-448.12C687.45,-445.62 592.26,-433.99 622.41,-385 648.47,-342.65 791.58,-308.84 865.76,-293.87"/>
<polygon fill="#63b8ff" stroke="#63b8ff" points="749.69,-451.62 759.81,-448.45 749.93,-444.62 749.69,-451.62"/>
</a>
</g>
</g>
<!-- Node19 -->
<g id="Node000019" class="node">
<title>Node19</title>
<g id="a_Node000019"><a xlink:href="spec_2crypto__types_8h.html" target="_top" xlink:title="ODP crypto types.">
<polygon fill="white" stroke="#666666" points="350.91,-349 261.91,-349 261.91,-330 350.91,-330 350.91,-349"/>
<text text-anchor="middle" x="306.41" y="-337" font-family="Helvetica,sans-Serif" font-size="10.00">crypto_types.h</text>
</a>
</g>
</g>
<!-- Node5&#45;&gt;Node19 -->
<g id="edge18_Node000005_Node000019" class="edge">
<title>Node5&#45;&gt;Node19</title>
<g id="a_edge18_Node000005_Node000019"><a xlink:title=" ">
<path fill="none" stroke="#63b8ff" d="M749.74,-447.76C650.55,-445.58 431.79,-437.07 365.41,-404 340.36,-391.52 320.56,-363.65 311.61,-349.35"/>
<polygon fill="#63b8ff" stroke="#63b8ff" points="749.74,-451.26 759.81,-447.97 749.88,-444.26 749.74,-451.26"/>
</a>
</g>
</g>
<!-- Node24 -->
<g id="Node000024" class="node">
<title>Node24</title>
<g id="a_Node000024"><a xlink:href="spec_2dma_8h.html" target="_top" xlink:title="ODP DMA.">
<polygon fill="white" stroke="#666666" points="1479.91,-294 1432.91,-294 1432.91,-275 1479.91,-275 1479.91,-294"/>
<text text-anchor="middle" x="1456.41" y="-282" font-family="Helvetica,sans-Serif" font-size="10.00">dma.h</text>
</a>
</g>
</g>
<!-- Node5&#45;&gt;Node24 -->
<g id="edge25_Node000005_Node000024" class="edge">
<title>Node5&#45;&gt;Node24</title>
<g id="a_edge25_Node000005_Node000024"><a xlink:title=" ">
<path fill="none" stroke="#63b8ff" d="M849.3,-448.18C992.35,-446.82 1396.64,-439.82 1443.41,-404 1477.26,-378.08 1465.05,-317.14 1458.99,-294.33"/>
<polygon fill="#63b8ff" stroke="#63b8ff" points="849.03,-444.68 839.06,-448.27 849.1,-451.68 849.03,-444.68"/>
</a>
</g>
</g>
<!-- Node26 -->
<g id="Node000026" class="node">
<title>Node26</title>
<g id="a_Node000026"><a xlink:href="spec_2dma__types_8h.html" target="_top" xlink:title="ODP DMA.">
<polygon fill="white" stroke="#666666" points="1434.41,-404 1354.41,-404 1354.41,-385 1434.41,-385 1434.41,-404"/>
<text text-anchor="middle" x="1394.41" y="-392" font-family="Helvetica,sans-Serif" font-size="10.00">dma_types.h</text>
</a>
</g>
</g>
<!-- Node5&#45;&gt;Node26 -->
<g id="edge28_Node000005_Node000026" class="edge">
<title>Node5&#45;&gt;Node26</title>
<g id="a_edge28_Node000005_Node000026"><a xlink:title=" ">
<path fill="none" stroke="#63b8ff" d="M848.94,-445.97C944.98,-440.72 1163.12,-427.19 1345.41,-404 1348.32,-403.63 1351.32,-403.21 1354.34,-402.75"/>
<polygon fill="#63b8ff" stroke="#63b8ff" points="848.73,-442.47 838.93,-446.51 849.11,-449.46 848.73,-442.47"/>
</a>
</g>
</g>
<!-- Node28 -->
<g id="Node000028" class="node">
<title>Node28</title>
<g id="a_Node000028"><a xlink:href="spec_2event_8h.html" target="_top" xlink:title="ODP event.">
<polygon fill="white" stroke="#666666" points="536.91,-404 483.91,-404 483.91,-385 536.91,-385 536.91,-404"/>
<text text-anchor="middle" x="510.41" y="-392" font-family="Helvetica,sans-Serif" font-size="10.00">event.h</text>
</a>
</g>
</g>
<!-- Node5&#45;&gt;Node28 -->
<g id="edge33_Node000005_Node000028" class="edge">
<title>Node5&#45;&gt;Node28</title>
<g id="a_edge33_Node000005_Node000028"><a xlink:title=" ">
<path fill="none" stroke="#63b8ff" d="M749.91,-440.02C699.8,-431.34 620.12,-417.28 551.41,-404 546.84,-403.12 541.99,-402.14 537.29,-401.18"/>
<polygon fill="#63b8ff" stroke="#63b8ff" points="749.38,-443.48 759.83,-441.74 750.57,-436.58 749.38,-443.48"/>
</a>
</g>
</g>
<!-- Node30 -->
<g id="Node000030" class="node">
<title>Node30</title>
<g id="a_Node000030"><a xlink:href="event__vector__inlines_8h.html" target="_top" xlink:title="Event vector inline functions.">
<polygon fill="white" stroke="#666666" points="261.91,-294 134.91,-294 134.91,-275 261.91,-275 261.91,-294"/>
<text text-anchor="middle" x="198.41" y="-282" font-family="Helvetica,sans-Serif" font-size="10.00">event_vector_inlines.h</text>
</a>
</g>
</g>
<!-- Node5&#45;&gt;Node30 -->
<g id="edge45_Node000005_Node000030" class="edge">
<title>Node5&#45;&gt;Node30</title>
<g id="a_edge45_Node000005_Node000030"><a xlink:title=" ">
<path fill="none" stroke="#63b8ff" d="M749.46,-446.54C666.38,-442.55 504.02,-431.42 454.41,-404 417.1,-383.38 429.68,-352.38 393.41,-330 370.36,-315.78 302.99,-302.36 253.88,-294.05"/>
<polygon fill="#63b8ff" stroke="#63b8ff" points="749.52,-450.05 759.67,-447.02 749.84,-443.06 749.52,-450.05"/>
</a>
</g>
</g>
<!-- Node31 -->
<g id="Node000031" class="node">
<title>Node31</title>
<g id="a_Node000031"><a xlink:href="packet__inlines_8h.html" target="_top" xlink:title="Packet inline functions.">
<polygon fill="white" stroke="#666666" points="374.91,-294 279.91,-294 279.91,-275 374.91,-275 374.91,-294"/>
<text text-anchor="middle" x="327.41" y="-282" font-family="Helvetica,sans-Serif" font-size="10.00">packet_inlines.h</text>
</a>
</g>
</g>
<!-- Node5&#45;&gt;Node31 -->
<g id="edge51_Node000005_Node000031" class="edge">
<title>Node5&#45;&gt;Node31</title>
<g id="a_edge51_Node000005_Node000031"><a xlink:title=" ">
<path fill="none" stroke="#63b8ff" d="M749.54,-446.94C669.88,-443.6 518.39,-433.46 474.41,-404 442.81,-382.83 459.9,-355.21 431.41,-330 411.41,-312.3 383.3,-300.85 361.35,-294"/>
<polygon fill="#63b8ff" stroke="#63b8ff" points="749.69,-450.45 759.82,-447.36 749.97,-443.46 749.69,-450.45"/>
</a>
</g>
</g>
<!-- Node32 -->
<g id="Node000032" class="node">
<title>Node32</title>
<g id="a_Node000032"><a xlink:href="packet__vector__inlines_8h.html" target="_top" xlink:title="Packet vector inline functions.">
<polygon fill="white" stroke="#666666" points="707.91,-294 576.91,-294 576.91,-275 707.91,-275 707.91,-294"/>
<text text-anchor="middle" x="642.41" y="-282" font-family="Helvetica,sans-Serif" font-size="10.00">packet_vector_inlines.h</text>
</a>
</g>
</g>
<!-- Node5&#45;&gt;Node32 -->
<g id="edge61_Node000005_Node000032" class="edge">
<title>Node5&#45;&gt;Node32</title>
<g id="a_edge61_Node000005_Node000032"><a xlink:title=" ">
<path fill="none" stroke="#63b8ff" d="M749.74,-443.5C700.51,-437.39 630.11,-425.17 613.41,-404 586.78,-370.25 620.62,-315.51 635.77,-294.29"/>
<polygon fill="#63b8ff" stroke="#63b8ff" points="749.55,-447 759.89,-444.71 750.38,-440.05 749.55,-447"/>
</a>
</g>
</g>
<!-- Node34 -->
<g id="Node000034" class="node">
<title>Node34</title>
<g id="a_Node000034"><a xlink:href="event__inlines_8h_source.html" target="_top" xlink:title=" ">
<polygon fill="white" stroke="#666666" points="844.91,-404 753.91,-404 753.91,-385 844.91,-385 844.91,-404"/>
<text text-anchor="middle" x="799.41" y="-392" font-family="Helvetica,sans-Serif" font-size="10.00">event_inlines.h</text>
</a>
</g>
</g>
<!-- Node5&#45;&gt;Node34 -->
<g id="edge42_Node000005_Node000034" class="edge">
<title>Node5&#45;&gt;Node34</title>
<g id="a_edge42_Node000005_Node000034"><a xlink:title=" ">
<path fill="none" stroke="#63b8ff" d="M799.41,-429.66C799.41,-420.93 799.41,-410.99 799.41,-404.09"/>
<polygon fill="#63b8ff" stroke="#63b8ff" points="795.91,-429.75 799.41,-439.75 802.91,-429.75 795.91,-429.75"/>
</a>
</g>
</g>
<!-- Node35 -->
<g id="Node000035" class="node">
<title>Node35</title>
<g id="a_Node000035"><a xlink:href="spec_2event__vector_8h.html" target="_top" xlink:title="ODP event vector.">
<polygon fill="white" stroke="#666666" points="951.91,-404 862.91,-404 862.91,-385 951.91,-385 951.91,-404"/>
<text text-anchor="middle" x="907.41" y="-392" font-family="Helvetica,sans-Serif" font-size="10.00">event_vector.h</text>
</a>
</g>
</g>
<!-- Node5&#45;&gt;Node35 -->
<g id="edge43_Node000005_Node000035" class="edge">
<title>Node5&#45;&gt;Node35</title>
<g id="a_edge43_Node000005_Node000035"><a xlink:title=" ">
<path fill="none" stroke="#63b8ff" d="M825.9,-435.5C845.77,-425.75 872.41,-412.68 889.74,-404.17"/>
<polygon fill="#63b8ff" stroke="#63b8ff" points="824.2,-432.44 816.76,-439.98 827.28,-438.72 824.2,-432.44"/>
</a>
</g>
</g>
<!-- Node37 -->
<g id="Node000037" class="node">
<title>Node37</title>
<g id="a_Node000037"><a xlink:href="spec_2packet_8h.html" target="_top" xlink:title="ODP packet descriptor.">
<polygon fill="white" stroke="#666666" points="1069.41,-294 1011.41,-294 1011.41,-275 1069.41,-275 1069.41,-294"/>
<text text-anchor="middle" x="1040.41" y="-282" font-family="Helvetica,sans-Serif" font-size="10.00">packet.h</text>
</a>
</g>
</g>
<!-- Node5&#45;&gt;Node37 -->
<g id="edge47_Node000005_Node000037" class="edge">
<title>Node5&#45;&gt;Node37</title>
<g id="a_edge47_Node000005_Node000037"><a xlink:title=" ">
<path fill="none" stroke="#63b8ff" d="M849.4,-444.45C883.59,-439.49 928.34,-428.48 960.41,-404 990.82,-380.78 982.54,-361.4 1004.41,-330 1013.5,-316.95 1025.29,-302.83 1032.85,-294.08"/>
<polygon fill="#63b8ff" stroke="#63b8ff" points="848.61,-441.02 839.15,-445.8 849.53,-447.96 848.61,-441.02"/>
</a>
</g>
</g>
<!-- Node39 -->
<g id="Node000039" class="node">
<title>Node39</title>
<g id="a_Node000039"><a xlink:href="spec_2packet__io__types_8h.html" target="_top" xlink:title="ODP Packet IO types.">
<polygon fill="white" stroke="#666666" points="735.41,-404 631.41,-404 631.41,-385 735.41,-385 735.41,-404"/>
<text text-anchor="middle" x="683.41" y="-392" font-family="Helvetica,sans-Serif" font-size="10.00">packet_io_types.h</text>
</a>
</g>
</g>
<!-- Node5&#45;&gt;Node39 -->
<g id="edge52_Node000005_Node000039" class="edge">
<title>Node5&#45;&gt;Node39</title>
<g id="a_edge52_Node000005_Node000039"><a xlink:title=" ">
<path fill="none" stroke="#63b8ff" d="M771.54,-435.77C750.14,-425.99 721.17,-412.75 702.39,-404.17"/>
<polygon fill="#63b8ff" stroke="#63b8ff" points="770.22,-439.01 780.77,-439.98 773.13,-432.65 770.22,-439.01"/>
</a>
</g>
</g>
<!-- Node43 -->
<g id="Node000043" class="node">
<title>Node43</title>
<g id="a_Node000043"><a xlink:href="spec_2pool_8h.html" target="_top" xlink:title="ODP pool.">
<polygon fill="white" stroke="#666666" points="1093.91,-404 1046.91,-404 1046.91,-385 1093.91,-385 1093.91,-404"/>
<text text-anchor="middle" x="1070.41" y="-392" font-family="Helvetica,sans-Serif" font-size="10.00">pool.h</text>
</a>
</g>
</g>
<!-- Node5&#45;&gt;Node43 -->
<g id="edge62_Node000005_Node000043" class="edge">
<title>Node5&#45;&gt;Node43</title>
<g id="a_edge62_Node000005_Node000043"><a xlink:title=" ">
<path fill="none" stroke="#63b8ff" d="M849.03,-439.49C896.26,-430.8 969.29,-417.08 1032.41,-404 1037.04,-403.04 1041.98,-401.97 1046.72,-400.92"/>
<polygon fill="#63b8ff" stroke="#63b8ff" points="848.27,-436.07 839.06,-441.32 849.53,-442.96 848.27,-436.07"/>
</a>
</g>
</g>
<!-- Node45 -->
<g id="Node000045" class="node">
<title>Node45</title>
<g id="a_Node000045"><a xlink:href="pool__inlines_8h_source.html" target="_top" xlink:title=" ">
<polygon fill="white" stroke="#666666" points="1196.41,-404 1112.41,-404 1112.41,-385 1196.41,-385 1196.41,-404"/>
<text text-anchor="middle" x="1154.41" y="-392" font-family="Helvetica,sans-Serif" font-size="10.00">pool_inlines.h</text>
</a>
</g>
</g>
<!-- Node5&#45;&gt;Node45 -->
<g id="edge64_Node000005_Node000045" class="edge">
<title>Node5&#45;&gt;Node45</title>
<g id="a_edge64_Node000005_Node000045"><a xlink:title=" ">
<path fill="none" stroke="#63b8ff" d="M849.11,-441.45C909.17,-432.88 1013.26,-417.83 1102.41,-404 1105.57,-403.51 1108.84,-402.99 1112.13,-402.47"/>
<polygon fill="#63b8ff" stroke="#63b8ff" points="848.55,-438 839.15,-442.87 849.54,-444.93 848.55,-438"/>
</a>
</g>
</g>
<!-- Node46 -->
<g id="Node000046" class="node">
<title>Node46</title>
<g id="a_Node000046"><a xlink:href="spec_2timer_8h.html" target="_top" xlink:title="ODP timer service.">
<polygon fill="white" stroke="#666666" points="1264.91,-404 1213.91,-404 1213.91,-385 1264.91,-385 1264.91,-404"/>
<text text-anchor="middle" x="1239.41" y="-392" font-family="Helvetica,sans-Serif" font-size="10.00">timer.h</text>
</a>
</g>
</g>
<!-- Node5&#45;&gt;Node46 -->
<g id="edge65_Node000005_Node000046" class="edge">
<title>Node5&#45;&gt;Node46</title>
<g id="a_edge65_Node000005_Node000046"><a xlink:title=" ">
<path fill="none" stroke="#63b8ff" d="M849.5,-445.21C926.46,-439.66 1078.25,-426.76 1205.41,-404 1208.16,-403.51 1211.03,-402.92 1213.87,-402.28"/>
<polygon fill="#63b8ff" stroke="#63b8ff" points="848.87,-441.75 839.14,-445.94 849.36,-448.73 848.87,-441.75"/>
</a>
</g>
</g>
<!-- Node7 -->
<g id="Node000007" class="node">
<title>Node7</title>
<g id="a_Node000007"><a xlink:href="buffer_8h.html" target="_top" xlink:title="ODP buffer descriptor.">
<polygon fill="white" stroke="#666666" points="1335.91,-349 1282.91,-349 1282.91,-330 1335.91,-330 1335.91,-349"/>
<text text-anchor="middle" x="1309.41" y="-337" font-family="Helvetica,sans-Serif" font-size="10.00">buffer.h</text>
</a>
</g>
</g>
<!-- Node6&#45;&gt;Node7 -->
<g id="edge6_Node000006_Node000007" class="edge">
<title>Node6&#45;&gt;Node7</title>
<g id="a_edge6_Node000006_Node000007"><a xlink:title=" ">
<path fill="none" stroke="#63b8ff" d="M1309.41,-374.66C1309.41,-365.93 1309.41,-355.99 1309.41,-349.09"/>
<polygon fill="#63b8ff" stroke="#63b8ff" points="1305.91,-374.75 1309.41,-384.75 1312.91,-374.75 1305.91,-374.75"/>
</a>
</g>
</g>
<!-- Node7&#45;&gt;Node8 -->
<g id="edge7_Node000007_Node000008" class="edge">
<title>Node7&#45;&gt;Node8</title>
<g id="a_edge7_Node000007_Node000008"><a xlink:title=" ">
<path fill="none" stroke="#63b8ff" d="M1309.41,-319.66C1309.41,-310.93 1309.41,-300.99 1309.41,-294.09"/>
<polygon fill="#63b8ff" stroke="#63b8ff" points="1305.91,-319.75 1309.41,-329.75 1312.91,-319.75 1305.91,-319.75"/>
</a>
</g>
</g>
<!-- Node11 -->
<g id="Node000011" class="node">
<title>Node11</title>
<g id="a_Node000011"><a xlink:href="classification_8h.html" target="_top" xlink:title="ODP classification descriptor.">
<polygon fill="white" stroke="#666666" points="954.91,-239 865.91,-239 865.91,-220 954.91,-220 954.91,-239"/>
<text text-anchor="middle" x="910.41" y="-227" font-family="Helvetica,sans-Serif" font-size="10.00">classification.h</text>
</a>
</g>
</g>
<!-- Node10&#45;&gt;Node11 -->
<g id="edge10_Node000010_Node000011" class="edge">
<title>Node10&#45;&gt;Node11</title>
<g id="a_edge10_Node000010_Node000011"><a xlink:title=" ">
<path fill="none" stroke="#63b8ff" d="M910.41,-264.66C910.41,-255.93 910.41,-245.99 910.41,-239.09"/>
<polygon fill="#63b8ff" stroke="#63b8ff" points="906.91,-264.75 910.41,-274.75 913.91,-264.75 906.91,-264.75"/>
</a>
</g>
</g>
<!-- Node12 -->
<g id="Node000012" class="node">
<title>Node12</title>
<g id="a_Node000012"><a xlink:href="spec_2ipsec__types_8h.html" target="_top" xlink:title="ODP IPsec API type definitions.">
<polygon fill="white" stroke="#666666" points="777.91,-184 694.91,-184 694.91,-165 777.91,-165 777.91,-184"/>
<text text-anchor="middle" x="736.41" y="-172" font-family="Helvetica,sans-Serif" font-size="10.00">ipsec_types.h</text>
</a>
</g>
</g>
<!-- Node11&#45;&gt;Node12 -->
<g id="edge11_Node000011_Node000012" class="edge">
<title>Node11&#45;&gt;Node12</title>
<g id="a_edge11_Node000011_Node000012"><a xlink:title=" ">
<path fill="none" stroke="#63b8ff" d="M872.84,-217.06C840.32,-207.15 794.01,-193.04 764.58,-184.08"/>
<polygon fill="#63b8ff" stroke="#63b8ff" points="871.87,-220.42 882.45,-219.98 873.91,-213.72 871.87,-220.42"/>
</a>
</g>
</g>
<!-- Node17 -->
<g id="Node000017" class="node">
<title>Node17</title>
<g id="a_Node000017"><a xlink:href="spec_2packet__io_8h.html" target="_top" xlink:title="ODP Packet IO.">
<polygon fill="white" stroke="#666666" points="962.41,-184 890.41,-184 890.41,-165 962.41,-165 962.41,-184"/>
<text text-anchor="middle" x="926.41" y="-172" font-family="Helvetica,sans-Serif" font-size="10.00">packet_io.h</text>
</a>
</g>
</g>
<!-- Node11&#45;&gt;Node17 -->
<g id="edge16_Node000011_Node000017" class="edge">
<title>Node11&#45;&gt;Node17</title>
<g id="a_edge16_Node000011_Node000017"><a xlink:title=" ">
<path fill="none" stroke="#63b8ff" d="M916.01,-209.95C918.67,-201.15 921.71,-191.06 923.82,-184.09"/>
<polygon fill="#63b8ff" stroke="#63b8ff" points="912.59,-209.16 913.05,-219.75 919.29,-211.19 912.59,-209.16"/>
</a>
</g>
</g>
<!-- Node13 -->
<g id="Node000013" class="node">
<title>Node13</title>
<g id="a_Node000013"><a xlink:href="ipsec__types_8h.html" target="_top" xlink:title="ODP IPsec.">
<polygon fill="white" stroke="#666666" points="727.91,-129 644.91,-129 644.91,-110 727.91,-110 727.91,-129"/>
<text text-anchor="middle" x="686.41" y="-117" font-family="Helvetica,sans-Serif" font-size="10.00">ipsec_types.h</text>
</a>
</g>
</g>
<!-- Node12&#45;&gt;Node13 -->
<g id="edge12_Node000012_Node000013" class="edge">
<title>Node12&#45;&gt;Node13</title>
<g id="a_edge12_Node000012_Node000013"><a xlink:title=" ">
<path fill="none" stroke="#63b8ff" d="M721.07,-157.24C712.3,-147.95 701.67,-136.68 694.51,-129.09"/>
<polygon fill="#63b8ff" stroke="#63b8ff" points="718.74,-159.88 728.15,-164.75 723.84,-155.07 718.74,-159.88"/>
</a>
</g>
</g>
<!-- Node14 -->
<g id="Node000014" class="node">
<title>Node14</title>
<g id="a_Node000014"><a xlink:href="spec_2ipsec_8h.html" target="_top" xlink:title="ODP IPsec API.">
<polygon fill="white" stroke="#666666" points="520.91,-74 469.91,-74 469.91,-55 520.91,-55 520.91,-74"/>
<text text-anchor="middle" x="495.41" y="-62" font-family="Helvetica,sans-Serif" font-size="10.00">ipsec.h</text>
</a>
</g>
</g>
<!-- Node13&#45;&gt;Node14 -->
<g id="edge13_Node000013_Node000014" class="edge">
<title>Node13&#45;&gt;Node14</title>
<g id="a_edge13_Node000013_Node000014"><a xlink:title=" ">
<path fill="none" stroke="#63b8ff" d="M646.06,-107.3C608.35,-96.84 553.18,-81.53 521.12,-72.63"/>
<polygon fill="#63b8ff" stroke="#63b8ff" points="645.15,-110.68 655.72,-109.98 647.02,-103.94 645.15,-110.68"/>
</a>
</g>
</g>
<!-- Node16 -->
<g id="Node000016" class="node">
<title>Node16</title>
<g id="a_Node000016"><a xlink:href="ipsec__inlines_8h_source.html" target="_top" xlink:title=" ">
<polygon fill="white" stroke="#666666" points="730.91,-74 641.91,-74 641.91,-55 730.91,-55 730.91,-74"/>
<text text-anchor="middle" x="686.41" y="-62" font-family="Helvetica,sans-Serif" font-size="10.00">ipsec_inlines.h</text>
</a>
</g>
</g>
<!-- Node13&#45;&gt;Node16 -->
<g id="edge15_Node000013_Node000016" class="edge">
<title>Node13&#45;&gt;Node16</title>
<g id="a_edge15_Node000013_Node000016"><a xlink:title=" ">
<path fill="none" stroke="#63b8ff" d="M686.41,-99.66C686.41,-90.93 686.41,-80.99 686.41,-74.09"/>
<polygon fill="#63b8ff" stroke="#63b8ff" points="682.91,-99.75 686.41,-109.75 689.91,-99.75 682.91,-99.75"/>
</a>
</g>
</g>
<!-- Node15 -->
<g id="Node000015" class="node">
<title>Node15</title>
<g id="a_Node000015"><a xlink:href="ipsec_8h.html" target="_top" xlink:title="ODP IPSEC API &#45; platform specific header.">
<polygon fill="white" stroke="#666666" points="520.91,-19 469.91,-19 469.91,0 520.91,0 520.91,-19"/>
<text text-anchor="middle" x="495.41" y="-7" font-family="Helvetica,sans-Serif" font-size="10.00">ipsec.h</text>
</a>
</g>
</g>
<!-- Node14&#45;&gt;Node15 -->
<g id="edge14_Node000014_Node000015" class="edge">
<title>Node14&#45;&gt;Node15</title>
<g id="a_edge14_Node000014_Node000015"><a xlink:title=" ">
<path fill="none" stroke="#63b8ff" d="M495.41,-44.66C495.41,-35.93 495.41,-25.99 495.41,-19.09"/>
<polygon fill="#63b8ff" stroke="#63b8ff" points="491.91,-44.75 495.41,-54.75 498.91,-44.75 491.91,-44.75"/>
</a>
</g>
</g>
<!-- Node18 -->
<g id="Node000018" class="node">
<title>Node18</title>
<g id="a_Node000018"><a xlink:href="packet__io_8h.html" target="_top" xlink:title="ODP Packet IO.">
<polygon fill="white" stroke="#666666" points="962.41,-129 890.41,-129 890.41,-110 962.41,-110 962.41,-129"/>
<text text-anchor="middle" x="926.41" y="-117" font-family="Helvetica,sans-Serif" font-size="10.00">packet_io.h</text>
</a>
</g>
</g>
<!-- Node17&#45;&gt;Node18 -->
<g id="edge17_Node000017_Node000018" class="edge">
<title>Node17&#45;&gt;Node18</title>
<g id="a_edge17_Node000017_Node000018"><a xlink:title=" ">
<path fill="none" stroke="#63b8ff" d="M926.41,-154.66C926.41,-145.93 926.41,-135.99 926.41,-129.09"/>
<polygon fill="#63b8ff" stroke="#63b8ff" points="922.91,-154.75 926.41,-164.75 929.91,-154.75 922.91,-154.75"/>
</a>
</g>
</g>
<!-- Node20 -->
<g id="Node000020" class="node">
<title>Node20</title>
<g id="a_Node000020"><a xlink:href="crypto__types_8h.html" target="_top" xlink:title="ODP crypto.">
<polygon fill="white" stroke="#666666" points="452.91,-239 363.91,-239 363.91,-220 452.91,-220 452.91,-239"/>
<text text-anchor="middle" x="408.41" y="-227" font-family="Helvetica,sans-Serif" font-size="10.00">crypto_types.h</text>
</a>
</g>
</g>
<!-- Node19&#45;&gt;Node20 -->
<g id="edge19_Node000019_Node000020" class="edge">
<title>Node19&#45;&gt;Node20</title>
<g id="a_edge19_Node000019_Node000020"><a xlink:title=" ">
<path fill="none" stroke="#63b8ff" d="M251.56,-330.05C134.32,-315.76 -54.58,-353.36 15.41,-275 38.31,-249.36 265.85,-236.6 363.87,-232.26"/>
<polygon fill="#63b8ff" stroke="#63b8ff" points="251.24,-333.53 261.62,-331.43 252.19,-326.6 251.24,-333.53"/>
</a>
</g>
</g>
<!-- Node20&#45;&gt;Node12 -->
<g id="edge24_Node000020_Node000012" class="edge">
<title>Node20&#45;&gt;Node12</title>
<g id="a_edge24_Node000020_Node000012"><a xlink:title=" ">
<path fill="none" stroke="#63b8ff" d="M463.08,-219.67C528.31,-209.13 635.93,-191.74 694.78,-182.23"/>
<polygon fill="#63b8ff" stroke="#63b8ff" points="462.3,-216.25 452.99,-221.3 463.42,-223.16 462.3,-216.25"/>
</a>
</g>
</g>
<!-- Node20&#45;&gt;Node14 -->
<g id="edge23_Node000020_Node000014" class="edge">
<title>Node20&#45;&gt;Node14</title>
<g id="a_edge23_Node000020_Node000014"><a xlink:title=" ">
<path fill="none" stroke="#63b8ff" d="M390.77,-212.86C383.27,-205.04 375.35,-194.91 371.41,-184 360.23,-153.07 352.48,-136.9 371.41,-110 393.65,-78.39 440.57,-69.12 469.89,-66.47"/>
<polygon fill="#63b8ff" stroke="#63b8ff" points="388.36,-215.4 397.97,-219.87 393.24,-210.39 388.36,-215.4"/>
</a>
</g>
</g>
<!-- Node21 -->
<g id="Node000021" class="node">
<title>Node21</title>
<g id="a_Node000021"><a xlink:href="spec_2crypto_8h.html" target="_top" xlink:title="ODP crypto.">
<polygon fill="white" stroke="#666666" points="436.41,-184 380.41,-184 380.41,-165 436.41,-165 436.41,-184"/>
<text text-anchor="middle" x="408.41" y="-172" font-family="Helvetica,sans-Serif" font-size="10.00">crypto.h</text>
</a>
</g>
</g>
<!-- Node20&#45;&gt;Node21 -->
<g id="edge20_Node000020_Node000021" class="edge">
<title>Node20&#45;&gt;Node21</title>
<g id="a_edge20_Node000020_Node000021"><a xlink:title=" ">
<path fill="none" stroke="#63b8ff" d="M408.41,-209.66C408.41,-200.93 408.41,-190.99 408.41,-184.09"/>
<polygon fill="#63b8ff" stroke="#63b8ff" points="404.91,-209.75 408.41,-219.75 411.91,-209.75 404.91,-209.75"/>
</a>
</g>
</g>
<!-- Node23 -->
<g id="Node000023" class="node">
<title>Node23</title>
<g id="a_Node000023"><a xlink:href="crypto__inlines_8h_source.html" target="_top" xlink:title=" ">
<polygon fill="white" stroke="#666666" points="548.41,-184 454.41,-184 454.41,-165 548.41,-165 548.41,-184"/>
<text text-anchor="middle" x="501.41" y="-172" font-family="Helvetica,sans-Serif" font-size="10.00">crypto_inlines.h</text>
</a>
</g>
</g>
<!-- Node20&#45;&gt;Node23 -->
<g id="edge22_Node000020_Node000023" class="edge">
<title>Node20&#45;&gt;Node23</title>
<g id="a_edge22_Node000020_Node000023"><a xlink:title=" ">
<path fill="none" stroke="#63b8ff" d="M432.16,-214.97C449.16,-205.28 471.54,-192.52 486.2,-184.17"/>
<polygon fill="#63b8ff" stroke="#63b8ff" points="430.31,-211.99 423.35,-219.98 433.77,-218.07 430.31,-211.99"/>
</a>
</g>
</g>
<!-- Node22 -->
<g id="Node000022" class="node">
<title>Node22</title>
<g id="a_Node000022"><a xlink:href="crypto_8h.html" target="_top" xlink:title="ODP crypto.">
<polygon fill="white" stroke="#666666" points="436.41,-129 380.41,-129 380.41,-110 436.41,-110 436.41,-129"/>
<text text-anchor="middle" x="408.41" y="-117" font-family="Helvetica,sans-Serif" font-size="10.00">crypto.h</text>
</a>
</g>
</g>
<!-- Node21&#45;&gt;Node22 -->
<g id="edge21_Node000021_Node000022" class="edge">
<title>Node21&#45;&gt;Node22</title>
<g id="a_edge21_Node000021_Node000022"><a xlink:title=" ">
<path fill="none" stroke="#63b8ff" d="M408.41,-154.66C408.41,-145.93 408.41,-135.99 408.41,-129.09"/>
<polygon fill="#63b8ff" stroke="#63b8ff" points="404.91,-154.75 408.41,-164.75 411.91,-154.75 404.91,-154.75"/>
</a>
</g>
</g>
<!-- Node25 -->
<g id="Node000025" class="node">
<title>Node25</title>
<g id="a_Node000025"><a xlink:href="dma_8h.html" target="_top" xlink:title="ODP DMA.">
<polygon fill="white" stroke="#666666" points="1479.91,-239 1432.91,-239 1432.91,-220 1479.91,-220 1479.91,-239"/>
<text text-anchor="middle" x="1456.41" y="-227" font-family="Helvetica,sans-Serif" font-size="10.00">dma.h</text>
</a>
</g>
</g>
<!-- Node24&#45;&gt;Node25 -->
<g id="edge26_Node000024_Node000025" class="edge">
<title>Node24&#45;&gt;Node25</title>
<g id="a_edge26_Node000024_Node000025"><a xlink:title=" ">
<path fill="none" stroke="#63b8ff" d="M1456.41,-264.66C1456.41,-255.93 1456.41,-245.99 1456.41,-239.09"/>
<polygon fill="#63b8ff" stroke="#63b8ff" points="1452.91,-264.75 1456.41,-274.75 1459.91,-264.75 1452.91,-264.75"/>
</a>
</g>
</g>
<!-- Node27 -->
<g id="Node000027" class="node">
<title>Node27</title>
<g id="a_Node000027"><a xlink:href="dma__types_8h.html" target="_top" xlink:title="ODP DMA.">
<polygon fill="white" stroke="#666666" points="1453.41,-349 1373.41,-349 1373.41,-330 1453.41,-330 1453.41,-349"/>
<text text-anchor="middle" x="1413.41" y="-337" font-family="Helvetica,sans-Serif" font-size="10.00">dma_types.h</text>
</a>
</g>
</g>
<!-- Node26&#45;&gt;Node27 -->
<g id="edge29_Node000026_Node000027" class="edge">
<title>Node26&#45;&gt;Node27</title>
<g id="a_edge29_Node000026_Node000027"><a xlink:title=" ">
<path fill="none" stroke="#63b8ff" d="M1400.96,-375.24C1404.13,-366.37 1407.8,-356.14 1410.33,-349.09"/>
<polygon fill="#63b8ff" stroke="#63b8ff" points="1397.63,-374.15 1397.55,-384.75 1404.22,-376.52 1397.63,-374.15"/>
</a>
</g>
</g>
<!-- Node27&#45;&gt;Node4 -->
<g id="edge32_Node000027_Node000004" class="edge">
<title>Node27&#45;&gt;Node4</title>
<g id="a_edge32_Node000027_Node000004"><a xlink:title=" ">
<path fill="none" stroke="#63b8ff" d="M1430.18,-356.42C1442.61,-370.15 1455.48,-389.92 1443.41,-404 1364.53,-496.01 966.61,-503.7 838.91,-503.77"/>
<polygon fill="#63b8ff" stroke="#63b8ff" points="1432.58,-353.87 1423.1,-349.13 1427.55,-358.74 1432.58,-353.87"/>
</a>
</g>
</g>
<!-- Node27&#45;&gt;Node8 -->
<g id="edge31_Node000027_Node000008" class="edge">
<title>Node27&#45;&gt;Node8</title>
<g id="a_edge31_Node000027_Node000008"><a xlink:title=" ">
<path fill="none" stroke="#63b8ff" d="M1387.64,-325.37C1368.54,-315.63 1343.04,-302.64 1326.42,-294.17"/>
<polygon fill="#63b8ff" stroke="#63b8ff" points="1386.2,-328.56 1396.7,-329.98 1389.38,-322.33 1386.2,-328.56"/>
</a>
</g>
</g>
<!-- Node27&#45;&gt;Node24 -->
<g id="edge30_Node000027_Node000024" class="edge">
<title>Node27&#45;&gt;Node24</title>
<g id="a_edge30_Node000027_Node000024"><a xlink:title=" ">
<path fill="none" stroke="#63b8ff" d="M1426.83,-321.96C1434.32,-312.72 1443.35,-301.6 1449.44,-294.09"/>
<polygon fill="#63b8ff" stroke="#63b8ff" points="1424.09,-319.78 1420.51,-329.75 1429.53,-324.19 1424.09,-319.78"/>
</a>
</g>
</g>
<!-- Node29 -->
<g id="Node000029" class="node">
<title>Node29</title>
<g id="a_Node000029"><a xlink:href="event_8h.html" target="_top" xlink:title="ODP event.">
<polygon fill="white" stroke="#666666" points="536.91,-349 483.91,-349 483.91,-330 536.91,-330 536.91,-349"/>
<text text-anchor="middle" x="510.41" y="-337" font-family="Helvetica,sans-Serif" font-size="10.00">event.h</text>
</a>
</g>
</g>
<!-- Node28&#45;&gt;Node29 -->
<g id="edge34_Node000028_Node000029" class="edge">
<title>Node28&#45;&gt;Node29</title>
<g id="a_edge34_Node000028_Node000029"><a xlink:title=" ">
<path fill="none" stroke="#63b8ff" d="M510.41,-374.66C510.41,-365.93 510.41,-355.99 510.41,-349.09"/>
<polygon fill="#63b8ff" stroke="#63b8ff" points="506.91,-374.75 510.41,-384.75 513.91,-374.75 506.91,-374.75"/>
</a>
</g>
</g>
<!-- Node29&#45;&gt;Node9 -->
<g id="edge35_Node000029_Node000009" class="edge">
<title>Node29&#45;&gt;Node9</title>
<g id="a_edge35_Node000029_Node000009"><a xlink:title=" ">
<path fill="none" stroke="#63b8ff" d="M473.47,-334.71C404.82,-327.55 252.95,-311.22 125.41,-294 122.54,-293.61 119.58,-293.2 116.6,-292.77"/>
<polygon fill="#63b8ff" stroke="#63b8ff" points="473.45,-338.22 483.76,-335.77 474.18,-331.26 473.45,-338.22"/>
</a>
</g>
</g>
<!-- Node29&#45;&gt;Node16 -->
<g id="edge38_Node000029_Node000016" class="edge">
<title>Node29&#45;&gt;Node16</title>
<g id="a_edge38_Node000029_Node000016"><a xlink:title=" ">
<path fill="none" stroke="#63b8ff" d="M517.57,-320.67C534.28,-280.42 578.72,-180.53 635.41,-110 646.89,-95.71 663.32,-82.31 674.4,-74.02"/>
<polygon fill="#63b8ff" stroke="#63b8ff" points="514.32,-319.39 513.77,-329.97 520.8,-322.04 514.32,-319.39"/>
</a>
</g>
</g>
<!-- Node29&#45;&gt;Node23 -->
<g id="edge36_Node000029_Node000023" class="edge">
<title>Node29&#45;&gt;Node23</title>
<g id="a_edge36_Node000029_Node000023"><a xlink:title=" ">
<path fill="none" stroke="#63b8ff" d="M509.35,-319.37C507.4,-284.03 503.3,-209.79 501.9,-184.31"/>
<polygon fill="#63b8ff" stroke="#63b8ff" points="505.88,-319.94 509.93,-329.74 512.87,-319.56 505.88,-319.94"/>
</a>
</g>
</g>
<!-- Node29&#45;&gt;Node30 -->
<g id="edge37_Node000029_Node000030" class="edge">
<title>Node29&#45;&gt;Node30</title>
<g id="a_edge37_Node000029_Node000030"><a xlink:title=" ">
<path fill="none" stroke="#63b8ff" d="M473.67,-332.26C417.82,-322.77 311.45,-304.7 248.55,-294.02"/>
<polygon fill="#63b8ff" stroke="#63b8ff" points="473.36,-335.76 483.81,-333.98 474.54,-328.86 473.36,-335.76"/>
</a>
</g>
</g>
<!-- Node29&#45;&gt;Node31 -->
<g id="edge39_Node000029_Node000031" class="edge">
<title>Node29&#45;&gt;Node31</title>
<g id="a_edge39_Node000029_Node000031"><a xlink:title=" ">
<path fill="none" stroke="#63b8ff" d="M474.13,-327.99C439.73,-318.03 388.7,-303.25 356.78,-294.01"/>
<polygon fill="#63b8ff" stroke="#63b8ff" points="473.22,-331.37 483.8,-330.79 475.17,-324.65 473.22,-331.37"/>
</a>
</g>
</g>
<!-- Node29&#45;&gt;Node32 -->
<g id="edge40_Node000029_Node000032" class="edge">
<title>Node29&#45;&gt;Node32</title>
<g id="a_edge40_Node000029_Node000032"><a xlink:title=" ">
<path fill="none" stroke="#63b8ff" d="M541.14,-326.16C565.58,-316.35 599.15,-302.87 620.82,-294.17"/>
<polygon fill="#63b8ff" stroke="#63b8ff" points="539.59,-323.01 531.62,-329.98 542.2,-329.51 539.59,-323.01"/>
</a>
</g>
</g>
<!-- Node33 -->
<g id="Node000033" class="node">
<title>Node33</title>
<g id="a_Node000033"><a xlink:href="timer__inlines_8h_source.html" target="_top" xlink:title=" ">
<polygon fill="white" stroke="#666666" points="481.91,-294 392.91,-294 392.91,-275 481.91,-275 481.91,-294"/>
<text text-anchor="middle" x="437.41" y="-282" font-family="Helvetica,sans-Serif" font-size="10.00">timer_inlines.h</text>
</a>
</g>
</g>
<!-- Node29&#45;&gt;Node33 -->
<g id="edge41_Node000029_Node000033" class="edge">
<title>Node29&#45;&gt;Node33</title>
<g id="a_edge41_Node000029_Node000033"><a xlink:title=" ">
<path fill="none" stroke="#63b8ff" d="M490.27,-323.88C477.13,-314.34 460.43,-302.21 449.35,-294.17"/>
<polygon fill="#63b8ff" stroke="#63b8ff" points="488.53,-326.94 498.68,-329.98 492.64,-321.28 488.53,-326.94"/>
</a>
</g>
</g>
<!-- Node36 -->
<g id="Node000036" class="node">
<title>Node36</title>
<g id="a_Node000036"><a xlink:href="event__vector_8h.html" target="_top" xlink:title="ODP event vector.">
<polygon fill="white" stroke="#666666" points="951.91,-349 862.91,-349 862.91,-330 951.91,-330 951.91,-349"/>
<text text-anchor="middle" x="907.41" y="-337" font-family="Helvetica,sans-Serif" font-size="10.00">event_vector.h</text>
</a>
</g>
</g>
<!-- Node35&#45;&gt;Node36 -->
<g id="edge44_Node000035_Node000036" class="edge">
<title>Node35&#45;&gt;Node36</title>
<g id="a_edge44_Node000035_Node000036"><a xlink:title=" ">
<path fill="none" stroke="#63b8ff" d="M907.41,-374.66C907.41,-365.93 907.41,-355.99 907.41,-349.09"/>
<polygon fill="#63b8ff" stroke="#63b8ff" points="903.91,-374.75 907.41,-384.75 910.91,-374.75 903.91,-374.75"/>
</a>
</g>
</g>
<!-- Node38 -->
<g id="Node000038" class="node">
<title>Node38</title>
<g id="a_Node000038"><a xlink:href="packet_8h.html" target="_top" xlink:title="ODP packet descriptor.">
<polygon fill="white" stroke="#666666" points="1069.41,-239 1011.41,-239 1011.41,-220 1069.41,-220 1069.41,-239"/>
<text text-anchor="middle" x="1040.41" y="-227" font-family="Helvetica,sans-Serif" font-size="10.00">packet.h</text>
</a>
</g>
</g>
<!-- Node37&#45;&gt;Node38 -->
<g id="edge48_Node000037_Node000038" class="edge">
<title>Node37&#45;&gt;Node38</title>
<g id="a_edge48_Node000037_Node000038"><a xlink:title=" ">
<path fill="none" stroke="#63b8ff" d="M1040.41,-264.66C1040.41,-255.93 1040.41,-245.99 1040.41,-239.09"/>
<polygon fill="#63b8ff" stroke="#63b8ff" points="1036.91,-264.75 1040.41,-274.75 1043.91,-264.75 1036.91,-264.75"/>
</a>
</g>
</g>
<!-- Node38&#45;&gt;Node16 -->
<g id="edge50_Node000038_Node000016" class="edge">
<title>Node38&#45;&gt;Node16</title>
<g id="a_edge50_Node000038_Node000016"><a xlink:title=" ">
<path fill="none" stroke="#63b8ff" d="M1035.28,-210.23C1026.76,-183.51 1007,-134.31 971.41,-110 933.16,-83.87 801.35,-72.27 731.19,-67.84"/>
<polygon fill="#63b8ff" stroke="#63b8ff" points="1031.95,-211.3 1038.18,-219.87 1038.65,-209.29 1031.95,-211.3"/>
</a>
</g>
</g>
<!-- Node38&#45;&gt;Node23 -->
<g id="edge49_Node000038_Node000023" class="edge">
<title>Node38&#45;&gt;Node23</title>
<g id="a_edge49_Node000038_Node000023"><a xlink:title=" ">
<path fill="none" stroke="#63b8ff" d="M1000.96,-224.04C988.91,-222.7 975.62,-221.26 963.41,-220 811.92,-204.34 632.3,-187.55 548.65,-179.83"/>
<polygon fill="#63b8ff" stroke="#63b8ff" points="1000.84,-227.55 1011.17,-225.18 1001.62,-220.59 1000.84,-227.55"/>
</a>
</g>
</g>
<!-- Node40 -->
<g id="Node000040" class="node">
<title>Node40</title>
<g id="a_Node000040"><a xlink:href="packet__io__types_8h.html" target="_top" xlink:title="ODP Packet IO.">
<polygon fill="white" stroke="#666666" points="844.41,-349 740.41,-349 740.41,-330 844.41,-330 844.41,-349"/>
<text text-anchor="middle" x="792.41" y="-337" font-family="Helvetica,sans-Serif" font-size="10.00">packet_io_types.h</text>
</a>
</g>
</g>
<!-- Node39&#45;&gt;Node40 -->
<g id="edge53_Node000039_Node000040" class="edge">
<title>Node39&#45;&gt;Node40</title>
<g id="a_edge53_Node000039_Node000040"><a xlink:title=" ">
<path fill="none" stroke="#63b8ff" d="M710.14,-380.5C730.19,-370.75 757.09,-357.68 774.58,-349.17"/>
<polygon fill="#63b8ff" stroke="#63b8ff" points="708.38,-377.46 700.92,-384.98 711.45,-383.76 708.38,-377.46"/>
</a>
</g>
</g>
<!-- Node40&#45;&gt;Node10 -->
<g id="edge54_Node000040_Node000010" class="edge">
<title>Node40&#45;&gt;Node10</title>
<g id="a_edge54_Node000040_Node000010"><a xlink:title=" ">
<path fill="none" stroke="#63b8ff" d="M820.76,-325.77C842.53,-315.99 872,-302.75 891.11,-294.17"/>
<polygon fill="#63b8ff" stroke="#63b8ff" points="819.06,-322.69 811.37,-329.98 821.92,-329.08 819.06,-322.69"/>
</a>
</g>
</g>
<!-- Node40&#45;&gt;Node12 -->
<g id="edge55_Node000040_Node000012" class="edge">
<title>Node40&#45;&gt;Node12</title>
<g id="a_edge55_Node000040_Node000012"><a xlink:title=" ">
<path fill="none" stroke="#63b8ff" d="M775.6,-322.61C768.25,-314.71 760.22,-304.59 755.41,-294 738.09,-255.87 736.25,-204.56 736.27,-184.28"/>
<polygon fill="#63b8ff" stroke="#63b8ff" points="773.34,-325.3 782.85,-329.97 778.32,-320.39 773.34,-325.3"/>
</a>
</g>
</g>
<!-- Node40&#45;&gt;Node17 -->
<g id="edge57_Node000040_Node000017" class="edge">
<title>Node40&#45;&gt;Node17</title>
<g id="a_edge57_Node000040_Node000017"><a xlink:title=" ">
<path fill="none" stroke="#63b8ff" d="M846.19,-327.93C893.52,-318.08 956.05,-303.52 963.41,-294 983.52,-267.98 974.59,-250.93 963.41,-220 958.15,-205.45 945.83,-192.3 936.85,-184.13"/>
<polygon fill="#63b8ff" stroke="#63b8ff" points="845.43,-324.51 836.34,-329.95 846.84,-331.36 845.43,-324.51"/>
</a>
</g>
</g>
<!-- Node40&#45;&gt;Node37 -->
<g id="edge56_Node000040_Node000037" class="edge">
<title>Node40&#45;&gt;Node37</title>
<g id="a_edge56_Node000040_Node000037"><a xlink:title=" ">
<path fill="none" stroke="#63b8ff" d="M842.33,-327.83C892.96,-317.01 969.6,-300.63 1011.15,-291.75"/>
<polygon fill="#63b8ff" stroke="#63b8ff" points="841.3,-324.47 832.25,-329.98 842.77,-331.32 841.3,-324.47"/>
</a>
</g>
</g>
<!-- Node41 -->
<g id="Node000041" class="node">
<title>Node41</title>
<g id="a_Node000041"><a xlink:href="spec_2traffic__mngr_8h.html" target="_top" xlink:title=" ">
<polygon fill="white" stroke="#666666" points="848.41,-294 764.41,-294 764.41,-275 848.41,-275 848.41,-294"/>
<text text-anchor="middle" x="806.41" y="-282" font-family="Helvetica,sans-Serif" font-size="10.00">traffic_mngr.h</text>
</a>
</g>
</g>
<!-- Node40&#45;&gt;Node41 -->
<g id="edge58_Node000040_Node000041" class="edge">
<title>Node40&#45;&gt;Node41</title>
<g id="a_edge58_Node000040_Node000041"><a xlink:title=" ">
<path fill="none" stroke="#63b8ff" d="M797.31,-319.95C799.63,-311.15 802.3,-301.06 804.14,-294.09"/>
<polygon fill="#63b8ff" stroke="#63b8ff" points="793.89,-319.19 794.72,-329.75 800.66,-320.97 793.89,-319.19"/>
</a>
</g>
</g>
<!-- Node42 -->
<g id="Node000042" class="node">
<title>Node42</title>
<g id="a_Node000042"><a xlink:href="traffic__mngr_8h.html" target="_top" xlink:title="ODP Traffic manager.">
<polygon fill="white" stroke="#666666" points="848.41,-239 764.41,-239 764.41,-220 848.41,-220 848.41,-239"/>
<text text-anchor="middle" x="806.41" y="-227" font-family="Helvetica,sans-Serif" font-size="10.00">traffic_mngr.h</text>
</a>
</g>
</g>
<!-- Node41&#45;&gt;Node42 -->
<g id="edge59_Node000041_Node000042" class="edge">
<title>Node41&#45;&gt;Node42</title>
<g id="a_edge59_Node000041_Node000042"><a xlink:title=" ">
<path fill="none" stroke="#63b8ff" d="M806.41,-264.66C806.41,-255.93 806.41,-245.99 806.41,-239.09"/>
<polygon fill="#63b8ff" stroke="#63b8ff" points="802.91,-264.75 806.41,-274.75 809.91,-264.75 802.91,-264.75"/>
</a>
</g>
</g>
<!-- Node42&#45;&gt;Node12 -->
<g id="edge60_Node000042_Node000012" class="edge">
<title>Node42&#45;&gt;Node12</title>
<g id="a_edge60_Node000042_Node000012"><a xlink:title=" ">
<path fill="none" stroke="#63b8ff" d="M787.1,-213.88C774.5,-204.34 758.48,-192.21 747.86,-184.17"/>
<polygon fill="#63b8ff" stroke="#63b8ff" points="785.08,-216.74 795.16,-219.98 789.3,-211.16 785.08,-216.74"/>
</a>
</g>
</g>
<!-- Node44 -->
<g id="Node000044" class="node">
<title>Node44</title>
<g id="a_Node000044"><a xlink:href="pool_8h.html" target="_top" xlink:title="ODP pool.">
<polygon fill="white" stroke="#666666" points="1093.91,-349 1046.91,-349 1046.91,-330 1093.91,-330 1093.91,-349"/>
<text text-anchor="middle" x="1070.41" y="-337" font-family="Helvetica,sans-Serif" font-size="10.00">pool.h</text>
</a>
</g>
</g>
<!-- Node43&#45;&gt;Node44 -->
<g id="edge63_Node000043_Node000044" class="edge">
<title>Node43&#45;&gt;Node44</title>
<g id="a_edge63_Node000043_Node000044"><a xlink:title=" ">
<path fill="none" stroke="#63b8ff" d="M1070.41,-374.66C1070.41,-365.93 1070.41,-355.99 1070.41,-349.09"/>
<polygon fill="#63b8ff" stroke="#63b8ff" points="1066.91,-374.75 1070.41,-384.75 1073.91,-374.75 1066.91,-374.75"/>
</a>
</g>
</g>
<!-- Node47 -->
<g id="Node000047" class="node">
<title>Node47</title>
<g id="a_Node000047"><a xlink:href="timer_8h.html" target="_top" xlink:title="ODP timer service.">
<polygon fill="white" stroke="#666666" points="1264.91,-349 1213.91,-349 1213.91,-330 1264.91,-330 1264.91,-349"/>
<text text-anchor="middle" x="1239.41" y="-337" font-family="Helvetica,sans-Serif" font-size="10.00">timer.h</text>
</a>
</g>
</g>
<!-- Node46&#45;&gt;Node47 -->
<g id="edge66_Node000046_Node000047" class="edge">
<title>Node46&#45;&gt;Node47</title>
<g id="a_edge66_Node000046_Node000047"><a xlink:title=" ">
<path fill="none" stroke="#63b8ff" d="M1239.41,-374.66C1239.41,-365.93 1239.41,-355.99 1239.41,-349.09"/>
<polygon fill="#63b8ff" stroke="#63b8ff" points="1235.91,-374.75 1239.41,-384.75 1242.91,-374.75 1235.91,-374.75"/>
</a>
</g>
</g>
</g>
</svg>
