<?xml version="1.0" encoding="UTF-8" standalone="no"?>
<!DOCTYPE svg PUBLIC "-//W3C//DTD SVG 1.1//EN"
 "http://www.w3.org/Graphics/SVG/1.1/DTD/svg11.dtd">
<!-- Generated by graphviz version 2.43.0 (0)
 -->
<!-- Title: packet_flag_inlines.h Pages: 1 -->
<svg width="428pt" height="207pt"
 viewBox="0.00 0.00 428.00 207.00" xmlns="http://www.w3.org/2000/svg" xmlns:xlink="http://www.w3.org/1999/xlink">
<g id="graph0" class="graph" transform="scale(1 1) rotate(0) translate(4 203)">
<title>packet_flag_inlines.h</title>
<polygon fill="white" stroke="transparent" points="-4,4 -4,-203 424,-203 424,4 -4,4"/>
<!-- Node1 -->
<g id="node1" class="node">
<title>Node1</title>
<g id="a_node1"><a xlink:title="Packet inline functions.">
<polygon fill="#bfbfbf" stroke="black" points="119.5,-179.5 119.5,-198.5 238.5,-198.5 238.5,-179.5 119.5,-179.5"/>
<text text-anchor="middle" x="179" y="-186.5" font-family="Helvetica,sans-Serif" font-size="10.00">packet_flag_inlines.h</text>
</a>
</g>
</g>
<!-- Node2 -->
<g id="node2" class="node">
<title>Node2</title>
<g id="a_node2"><a xlink:title=" ">
<polygon fill="white" stroke="#bfbfbf" points="0,-112.5 0,-142.5 106,-142.5 106,-112.5 0,-112.5"/>
<text text-anchor="start" x="8" y="-130.5" font-family="Helvetica,sans-Serif" font-size="10.00">odp/api/abi/packet</text>
<text text-anchor="middle" x="53" y="-119.5" font-family="Helvetica,sans-Serif" font-size="10.00">_types.h</text>
</a>
</g>
</g>
<!-- Node1&#45;&gt;Node2 -->
<g id="edge1" class="edge">
<title>Node1&#45;&gt;Node2</title>
<path fill="none" stroke="midnightblue" d="M160.95,-179.48C143.01,-171 114.91,-157.74 91.89,-146.86"/>
<polygon fill="midnightblue" stroke="midnightblue" points="93.23,-143.63 82.7,-142.52 90.24,-149.96 93.23,-143.63"/>
</g>
<!-- Node3 -->
<g id="node3" class="node">
<title>Node3</title>
<g id="a_node3"><a xlink:href="packet__inline__types_8h.html" target="_top" xlink:title="ODP packet descriptor.">
<polygon fill="white" stroke="black" points="124,-112.5 124,-142.5 234,-142.5 234,-112.5 124,-112.5"/>
<text text-anchor="start" x="132" y="-130.5" font-family="Helvetica,sans-Serif" font-size="10.00">odp/api/plat/packet</text>
<text text-anchor="middle" x="179" y="-119.5" font-family="Helvetica,sans-Serif" font-size="10.00">_inline_types.h</text>
</a>
</g>
</g>
<!-- Node1&#45;&gt;Node3 -->
<g id="edge2" class="edge">
<title>Node1&#45;&gt;Node3</title>
<path fill="none" stroke="midnightblue" d="M179,-179.48C179,-172.47 179,-162.19 179,-152.7"/>
<polygon fill="midnightblue" stroke="midnightblue" points="182.5,-152.52 179,-142.52 175.5,-152.52 182.5,-152.52"/>
</g>
<!-- Node5 -->
<g id="node5" class="node">
<title>Node5</title>
<g id="a_node5"><a xlink:href="hints_8h.html" target="_top" xlink:title="ODP compiler hints.">
<polygon fill="white" stroke="black" points="252.5,-118 252.5,-137 341.5,-137 341.5,-118 252.5,-118"/>
<text text-anchor="middle" x="297" y="-125" font-family="Helvetica,sans-Serif" font-size="10.00">odp/api/hints.h</text>
</a>
</g>
</g>
<!-- Node1&#45;&gt;Node5 -->
<g id="edge4" class="edge">
<title>Node1&#45;&gt;Node5</title>
<path fill="none" stroke="midnightblue" d="M195.91,-179.48C215.53,-169.58 248.13,-153.14 270.99,-141.62"/>
<polygon fill="midnightblue" stroke="midnightblue" points="272.77,-144.64 280.12,-137.01 269.62,-138.39 272.77,-144.64"/>
</g>
<!-- Node4 -->
<g id="node4" class="node">
<title>Node4</title>
<g id="a_node4"><a xlink:title=" ">
<polygon fill="white" stroke="#bfbfbf" points="152.5,-56.5 152.5,-75.5 205.5,-75.5 205.5,-56.5 152.5,-56.5"/>
<text text-anchor="middle" x="179" y="-63.5" font-family="Helvetica,sans-Serif" font-size="10.00">stdint.h</text>
</a>
</g>
</g>
<!-- Node3&#45;&gt;Node4 -->
<g id="edge3" class="edge">
<title>Node3&#45;&gt;Node4</title>
<path fill="none" stroke="midnightblue" d="M179,-112.4C179,-104.47 179,-94.46 179,-85.86"/>
<polygon fill="midnightblue" stroke="midnightblue" points="182.5,-85.66 179,-75.66 175.5,-85.66 182.5,-85.66"/>
</g>
<!-- Node6 -->
<g id="node6" class="node">
<title>Node6</title>
<g id="a_node6"><a xlink:href="spec_2hints_8h.html" target="_top" xlink:title="ODP compiler hints.">
<polygon fill="white" stroke="black" points="240,-56.5 240,-75.5 354,-75.5 354,-56.5 240,-56.5"/>
<text text-anchor="middle" x="297" y="-63.5" font-family="Helvetica,sans-Serif" font-size="10.00">odp/api/spec/hints.h</text>
</a>
</g>
</g>
<!-- Node5&#45;&gt;Node6 -->
<g id="edge5" class="edge">
<title>Node5&#45;&gt;Node6</title>
<path fill="none" stroke="midnightblue" d="M297,-117.98C297,-109.58 297,-96.48 297,-85.66"/>
<polygon fill="midnightblue" stroke="midnightblue" points="300.5,-85.51 297,-75.51 293.5,-85.51 300.5,-85.51"/>
</g>
<!-- Node7 -->
<g id="node7" class="node">
<title>Node7</title>
<g id="a_node7"><a xlink:title=" ">
<polygon fill="white" stroke="#bfbfbf" points="168.5,-0.5 168.5,-19.5 289.5,-19.5 289.5,-0.5 168.5,-0.5"/>
<text text-anchor="middle" x="229" y="-7.5" font-family="Helvetica,sans-Serif" font-size="10.00">odp/visibility_begin.h</text>
</a>
</g>
</g>
<!-- Node6&#45;&gt;Node7 -->
<g id="edge6" class="edge">
<title>Node6&#45;&gt;Node7</title>
<path fill="none" stroke="midnightblue" d="M286.07,-56.32C275.83,-48.18 260.28,-35.84 248,-26.09"/>
<polygon fill="midnightblue" stroke="midnightblue" points="250.13,-23.31 240.12,-19.83 245.78,-28.79 250.13,-23.31"/>
</g>
<!-- Node8 -->
<g id="node8" class="node">
<title>Node8</title>
<g id="a_node8"><a xlink:title=" ">
<polygon fill="white" stroke="#bfbfbf" points="308,-0.5 308,-19.5 420,-19.5 420,-0.5 308,-0.5"/>
<text text-anchor="middle" x="364" y="-7.5" font-family="Helvetica,sans-Serif" font-size="10.00">odp/visibility_end.h</text>
</a>
</g>
</g>
<!-- Node6&#45;&gt;Node8 -->
<g id="edge7" class="edge">
<title>Node6&#45;&gt;Node8</title>
<path fill="none" stroke="midnightblue" d="M307.76,-56.32C317.77,-48.26 332.89,-36.08 344.93,-26.37"/>
<polygon fill="midnightblue" stroke="midnightblue" points="347.45,-28.83 353.04,-19.83 343.06,-23.38 347.45,-28.83"/>
</g>
</g>
</svg>
