<?xml version="1.0" encoding="UTF-8" standalone="no"?>
<!DOCTYPE svg PUBLIC "-//W3C//DTD SVG 1.1//EN"
 "http://www.w3.org/Graphics/SVG/1.1/DTD/svg11.dtd">
<!-- Generated by graphviz version 2.43.0 (0)
 -->
<!-- Title: packet_io_stats.h Pages: 1 -->
<svg width="411pt" height="467pt"
 viewBox="0.00 0.00 410.50 467.00" xmlns="http://www.w3.org/2000/svg" xmlns:xlink="http://www.w3.org/1999/xlink">
<g id="graph0" class="graph" transform="scale(1 1) rotate(0) translate(4 463)">
<title>packet_io_stats.h</title>
<!-- Node1 -->
<g id="Node000001" class="node">
<title>Node1</title>
<g id="a_Node000001"><a xlink:title="ODP packet IO stats.">
<polygon fill="#999999" stroke="#666666" points="101,-459 0,-459 0,-440 101,-440 101,-459"/>
<text text-anchor="middle" x="50.5" y="-447" font-family="Helvetica,sans-Serif" font-size="10.00">packet_io_stats.h</text>
</a>
</g>
</g>
<!-- Node2 -->
<g id="Node000002" class="node">
<title>Node2</title>
<g id="a_Node000002"><a xlink:href="spec_2packet__io_8h.html" target="_top" xlink:title="ODP Packet IO.">
<polygon fill="white" stroke="#666666" points="84.5,-184 12.5,-184 12.5,-165 84.5,-165 84.5,-184"/>
<text text-anchor="middle" x="48.5" y="-172" font-family="Helvetica,sans-Serif" font-size="10.00">packet_io.h</text>
</a>
</g>
</g>
<!-- Node1&#45;&gt;Node2 -->
<g id="edge1_Node000001_Node000002" class="edge">
<title>Node1&#45;&gt;Node2</title>
<g id="a_edge1_Node000001_Node000002"><a xlink:title=" ">
<path fill="none" stroke="#63b8ff" d="M39.82,-431.34C27.97,-410.62 10.5,-374.33 10.5,-340.5 10.5,-340.5 10.5,-340.5 10.5,-283.5 10.5,-244.54 32.77,-201.93 43.22,-184.1"/>
<polygon fill="#63b8ff" stroke="#63b8ff" points="36.82,-433.14 44.94,-439.94 42.84,-429.56 36.82,-433.14"/>
</a>
</g>
</g>
<!-- Node4 -->
<g id="Node000004" class="node">
<title>Node4</title>
<g id="a_Node000004"><a xlink:href="spec_2packet__io__types_8h.html" target="_top" xlink:title="ODP Packet IO types.">
<polygon fill="white" stroke="#666666" points="157.5,-404 53.5,-404 53.5,-385 157.5,-385 157.5,-404"/>
<text text-anchor="middle" x="105.5" y="-392" font-family="Helvetica,sans-Serif" font-size="10.00">packet_io_types.h</text>
</a>
</g>
</g>
<!-- Node1&#45;&gt;Node4 -->
<g id="edge3_Node000001_Node000004" class="edge">
<title>Node1&#45;&gt;Node4</title>
<g id="a_edge3_Node000001_Node000004"><a xlink:title=" ">
<path fill="none" stroke="#63b8ff" d="M66.79,-432.8C76.54,-423.41 88.55,-411.83 96.59,-404.09"/>
<polygon fill="#63b8ff" stroke="#63b8ff" points="64.35,-430.29 59.58,-439.75 69.21,-435.33 64.35,-430.29"/>
</a>
</g>
</g>
<!-- Node3 -->
<g id="Node000003" class="node">
<title>Node3</title>
<g id="a_Node000003"><a xlink:href="packet__io_8h.html" target="_top" xlink:title="ODP Packet IO.">
<polygon fill="white" stroke="#666666" points="84.5,-129 12.5,-129 12.5,-110 84.5,-110 84.5,-129"/>
<text text-anchor="middle" x="48.5" y="-117" font-family="Helvetica,sans-Serif" font-size="10.00">packet_io.h</text>
</a>
</g>
</g>
<!-- Node2&#45;&gt;Node3 -->
<g id="edge2_Node000002_Node000003" class="edge">
<title>Node2&#45;&gt;Node3</title>
<g id="a_edge2_Node000002_Node000003"><a xlink:title=" ">
<path fill="none" stroke="#63b8ff" d="M48.5,-154.66C48.5,-145.93 48.5,-135.99 48.5,-129.09"/>
<polygon fill="#63b8ff" stroke="#63b8ff" points="45,-154.75 48.5,-164.75 52,-154.75 45,-154.75"/>
</a>
</g>
</g>
<!-- Node5 -->
<g id="Node000005" class="node">
<title>Node5</title>
<g id="a_Node000005"><a xlink:href="packet__io__types_8h.html" target="_top" xlink:title="ODP Packet IO.">
<polygon fill="white" stroke="#666666" points="209.5,-349 105.5,-349 105.5,-330 209.5,-330 209.5,-349"/>
<text text-anchor="middle" x="157.5" y="-337" font-family="Helvetica,sans-Serif" font-size="10.00">packet_io_types.h</text>
</a>
</g>
</g>
<!-- Node4&#45;&gt;Node5 -->
<g id="edge4_Node000004_Node000005" class="edge">
<title>Node4&#45;&gt;Node5</title>
<g id="a_edge4_Node000004_Node000005"><a xlink:title=" ">
<path fill="none" stroke="#63b8ff" d="M121.18,-377.52C130.34,-368.18 141.55,-356.75 149.07,-349.09"/>
<polygon fill="#63b8ff" stroke="#63b8ff" points="118.59,-375.16 114.09,-384.75 123.59,-380.06 118.59,-375.16"/>
</a>
</g>
</g>
<!-- Node5&#45;&gt;Node2 -->
<g id="edge18_Node000005_Node000002" class="edge">
<title>Node5&#45;&gt;Node2</title>
<g id="a_edge18_Node000005_Node000002"><a xlink:title=" ">
<path fill="none" stroke="#63b8ff" d="M113.16,-326.24C96.38,-319.41 78.65,-309.13 67.5,-294 42.4,-259.96 45.16,-205.39 47.38,-184.26"/>
<polygon fill="#63b8ff" stroke="#63b8ff" points="112.29,-329.65 122.88,-329.87 114.74,-323.09 112.29,-329.65"/>
</a>
</g>
</g>
<!-- Node6 -->
<g id="Node000006" class="node">
<title>Node6</title>
<g id="a_Node000006"><a xlink:href="spec_2classification_8h.html" target="_top" xlink:title="ODP classification descriptor.">
<polygon fill="white" stroke="#666666" points="166,-294 77,-294 77,-275 166,-275 166,-294"/>
<text text-anchor="middle" x="121.5" y="-282" font-family="Helvetica,sans-Serif" font-size="10.00">classification.h</text>
</a>
</g>
</g>
<!-- Node5&#45;&gt;Node6 -->
<g id="edge5_Node000005_Node000006" class="edge">
<title>Node5&#45;&gt;Node6</title>
<g id="a_edge5_Node000005_Node000006"><a xlink:title=" ">
<path fill="none" stroke="#63b8ff" d="M145.88,-321.39C139.68,-312.27 132.33,-301.45 127.33,-294.09"/>
<polygon fill="#63b8ff" stroke="#63b8ff" points="143.04,-323.44 151.56,-329.75 148.83,-319.51 143.04,-323.44"/>
</a>
</g>
</g>
<!-- Node8 -->
<g id="Node000008" class="node">
<title>Node8</title>
<g id="a_Node000008"><a xlink:href="spec_2ipsec__types_8h.html" target="_top" xlink:title="ODP IPsec API type definitions.">
<polygon fill="white" stroke="#666666" points="236,-184 153,-184 153,-165 236,-165 236,-184"/>
<text text-anchor="middle" x="194.5" y="-172" font-family="Helvetica,sans-Serif" font-size="10.00">ipsec_types.h</text>
</a>
</g>
</g>
<!-- Node5&#45;&gt;Node8 -->
<g id="edge13_Node000005_Node000008" class="edge">
<title>Node5&#45;&gt;Node8</title>
<g id="a_edge13_Node000005_Node000008"><a xlink:title=" ">
<path fill="none" stroke="#63b8ff" d="M165.34,-320.42C168.55,-312.44 172.08,-302.88 174.5,-294 185.47,-253.74 191.51,-204.06 193.62,-184.25"/>
<polygon fill="#63b8ff" stroke="#63b8ff" points="162.04,-319.23 161.41,-329.81 168.5,-321.93 162.04,-319.23"/>
</a>
</g>
</g>
<!-- Node13 -->
<g id="Node000013" class="node">
<title>Node13</title>
<g id="a_Node000013"><a xlink:href="spec_2packet_8h.html" target="_top" xlink:title="ODP packet descriptor.">
<polygon fill="white" stroke="#666666" points="382.5,-294 324.5,-294 324.5,-275 382.5,-275 382.5,-294"/>
<text text-anchor="middle" x="353.5" y="-282" font-family="Helvetica,sans-Serif" font-size="10.00">packet.h</text>
</a>
</g>
</g>
<!-- Node5&#45;&gt;Node13 -->
<g id="edge14_Node000005_Node000013" class="edge">
<title>Node5&#45;&gt;Node13</title>
<g id="a_edge14_Node000005_Node000013"><a xlink:title=" ">
<path fill="none" stroke="#63b8ff" d="M199.12,-327.24C236.74,-317.07 291.16,-302.36 324.33,-293.39"/>
<polygon fill="#63b8ff" stroke="#63b8ff" points="197.73,-324 188.99,-329.98 199.56,-330.75 197.73,-324"/>
</a>
</g>
</g>
<!-- Node16 -->
<g id="Node000016" class="node">
<title>Node16</title>
<g id="a_Node000016"><a xlink:href="spec_2traffic__mngr_8h.html" target="_top" xlink:title=" ">
<polygon fill="white" stroke="#666666" points="306.5,-294 222.5,-294 222.5,-275 306.5,-275 306.5,-294"/>
<text text-anchor="middle" x="264.5" y="-282" font-family="Helvetica,sans-Serif" font-size="10.00">traffic_mngr.h</text>
</a>
</g>
</g>
<!-- Node5&#45;&gt;Node16 -->
<g id="edge19_Node000005_Node000016" class="edge">
<title>Node5&#45;&gt;Node16</title>
<g id="a_edge19_Node000005_Node000016"><a xlink:title=" ">
<path fill="none" stroke="#63b8ff" d="M183.74,-325.5C203.43,-315.75 229.82,-302.68 247,-294.17"/>
<polygon fill="#63b8ff" stroke="#63b8ff" points="182.1,-322.41 174.69,-329.98 185.21,-328.68 182.1,-322.41"/>
</a>
</g>
</g>
<!-- Node7 -->
<g id="Node000007" class="node">
<title>Node7</title>
<g id="a_Node000007"><a xlink:href="classification_8h.html" target="_top" xlink:title="ODP classification descriptor.">
<polygon fill="white" stroke="#666666" points="166,-239 77,-239 77,-220 166,-220 166,-239"/>
<text text-anchor="middle" x="121.5" y="-227" font-family="Helvetica,sans-Serif" font-size="10.00">classification.h</text>
</a>
</g>
</g>
<!-- Node6&#45;&gt;Node7 -->
<g id="edge6_Node000006_Node000007" class="edge">
<title>Node6&#45;&gt;Node7</title>
<g id="a_edge6_Node000006_Node000007"><a xlink:title=" ">
<path fill="none" stroke="#63b8ff" d="M121.5,-264.66C121.5,-255.93 121.5,-245.99 121.5,-239.09"/>
<polygon fill="#63b8ff" stroke="#63b8ff" points="118,-264.75 121.5,-274.75 125,-264.75 118,-264.75"/>
</a>
</g>
</g>
<!-- Node7&#45;&gt;Node2 -->
<g id="edge12_Node000007_Node000002" class="edge">
<title>Node7&#45;&gt;Node2</title>
<g id="a_edge12_Node000007_Node000002"><a xlink:title=" ">
<path fill="none" stroke="#63b8ff" d="M101.36,-213.88C88.22,-204.34 71.52,-192.21 60.44,-184.17"/>
<polygon fill="#63b8ff" stroke="#63b8ff" points="99.62,-216.94 109.77,-219.98 103.74,-211.28 99.62,-216.94"/>
</a>
</g>
</g>
<!-- Node7&#45;&gt;Node8 -->
<g id="edge7_Node000007_Node000008" class="edge">
<title>Node7&#45;&gt;Node8</title>
<g id="a_edge7_Node000007_Node000008"><a xlink:title=" ">
<path fill="none" stroke="#63b8ff" d="M141.64,-213.88C154.78,-204.34 171.48,-192.21 182.56,-184.17"/>
<polygon fill="#63b8ff" stroke="#63b8ff" points="139.26,-211.28 133.23,-219.98 143.38,-216.94 139.26,-211.28"/>
</a>
</g>
</g>
<!-- Node9 -->
<g id="Node000009" class="node">
<title>Node9</title>
<g id="a_Node000009"><a xlink:href="ipsec__types_8h.html" target="_top" xlink:title="ODP IPsec.">
<polygon fill="white" stroke="#666666" points="236,-129 153,-129 153,-110 236,-110 236,-129"/>
<text text-anchor="middle" x="194.5" y="-117" font-family="Helvetica,sans-Serif" font-size="10.00">ipsec_types.h</text>
</a>
</g>
</g>
<!-- Node8&#45;&gt;Node9 -->
<g id="edge8_Node000008_Node000009" class="edge">
<title>Node8&#45;&gt;Node9</title>
<g id="a_edge8_Node000008_Node000009"><a xlink:title=" ">
<path fill="none" stroke="#63b8ff" d="M194.5,-154.66C194.5,-145.93 194.5,-135.99 194.5,-129.09"/>
<polygon fill="#63b8ff" stroke="#63b8ff" points="191,-154.75 194.5,-164.75 198,-154.75 191,-154.75"/>
</a>
</g>
</g>
<!-- Node10 -->
<g id="Node000010" class="node">
<title>Node10</title>
<g id="a_Node000010"><a xlink:href="spec_2ipsec_8h.html" target="_top" xlink:title="ODP IPsec API.">
<polygon fill="white" stroke="#666666" points="218,-74 167,-74 167,-55 218,-55 218,-74"/>
<text text-anchor="middle" x="192.5" y="-62" font-family="Helvetica,sans-Serif" font-size="10.00">ipsec.h</text>
</a>
</g>
</g>
<!-- Node9&#45;&gt;Node10 -->
<g id="edge9_Node000009_Node000010" class="edge">
<title>Node9&#45;&gt;Node10</title>
<g id="a_edge9_Node000009_Node000010"><a xlink:title=" ">
<path fill="none" stroke="#63b8ff" d="M193.79,-99.66C193.46,-90.93 193.08,-80.99 192.82,-74.09"/>
<polygon fill="#63b8ff" stroke="#63b8ff" points="190.3,-99.89 194.17,-109.75 197.29,-99.62 190.3,-99.89"/>
</a>
</g>
</g>
<!-- Node12 -->
<g id="Node000012" class="node">
<title>Node12</title>
<g id="a_Node000012"><a xlink:href="ipsec__inlines_8h_source.html" target="_top" xlink:title=" ">
<polygon fill="white" stroke="#666666" points="325,-74 236,-74 236,-55 325,-55 325,-74"/>
<text text-anchor="middle" x="280.5" y="-62" font-family="Helvetica,sans-Serif" font-size="10.00">ipsec_inlines.h</text>
</a>
</g>
</g>
<!-- Node9&#45;&gt;Node12 -->
<g id="edge11_Node000009_Node000012" class="edge">
<title>Node9&#45;&gt;Node12</title>
<g id="a_edge11_Node000009_Node000012"><a xlink:title=" ">
<path fill="none" stroke="#63b8ff" d="M216.9,-104.7C232.57,-95.04 253.01,-82.44 266.43,-74.17"/>
<polygon fill="#63b8ff" stroke="#63b8ff" points="214.99,-101.76 208.32,-109.98 218.67,-107.72 214.99,-101.76"/>
</a>
</g>
</g>
<!-- Node11 -->
<g id="Node000011" class="node">
<title>Node11</title>
<g id="a_Node000011"><a xlink:href="ipsec_8h.html" target="_top" xlink:title="ODP IPSEC API &#45; platform specific header.">
<polygon fill="white" stroke="#666666" points="218,-19 167,-19 167,0 218,0 218,-19"/>
<text text-anchor="middle" x="192.5" y="-7" font-family="Helvetica,sans-Serif" font-size="10.00">ipsec.h</text>
</a>
</g>
</g>
<!-- Node10&#45;&gt;Node11 -->
<g id="edge10_Node000010_Node000011" class="edge">
<title>Node10&#45;&gt;Node11</title>
<g id="a_edge10_Node000010_Node000011"><a xlink:title=" ">
<path fill="none" stroke="#63b8ff" d="M192.5,-44.66C192.5,-35.93 192.5,-25.99 192.5,-19.09"/>
<polygon fill="#63b8ff" stroke="#63b8ff" points="189,-44.75 192.5,-54.75 196,-44.75 189,-44.75"/>
</a>
</g>
</g>
<!-- Node14 -->
<g id="Node000014" class="node">
<title>Node14</title>
<g id="a_Node000014"><a xlink:href="packet_8h.html" target="_top" xlink:title="ODP packet descriptor.">
<polygon fill="white" stroke="#666666" points="382.5,-239 324.5,-239 324.5,-220 382.5,-220 382.5,-239"/>
<text text-anchor="middle" x="353.5" y="-227" font-family="Helvetica,sans-Serif" font-size="10.00">packet.h</text>
</a>
</g>
</g>
<!-- Node13&#45;&gt;Node14 -->
<g id="edge15_Node000013_Node000014" class="edge">
<title>Node13&#45;&gt;Node14</title>
<g id="a_edge15_Node000013_Node000014"><a xlink:title=" ">
<path fill="none" stroke="#63b8ff" d="M353.5,-264.66C353.5,-255.93 353.5,-245.99 353.5,-239.09"/>
<polygon fill="#63b8ff" stroke="#63b8ff" points="350,-264.75 353.5,-274.75 357,-264.75 350,-264.75"/>
</a>
</g>
</g>
<!-- Node14&#45;&gt;Node12 -->
<g id="edge17_Node000014_Node000012" class="edge">
<title>Node14&#45;&gt;Node12</title>
<g id="a_edge17_Node000014_Node000012"><a xlink:title=" ">
<path fill="none" stroke="#63b8ff" d="M329.44,-214.41C318.57,-206.79 306.6,-196.39 299.5,-184 278.58,-147.48 278.84,-94.81 279.89,-74.22"/>
<polygon fill="#63b8ff" stroke="#63b8ff" points="327.52,-217.34 337.8,-219.91 331.37,-211.49 327.52,-217.34"/>
</a>
</g>
</g>
<!-- Node15 -->
<g id="Node000015" class="node">
<title>Node15</title>
<g id="a_Node000015"><a xlink:href="crypto__inlines_8h_source.html" target="_top" xlink:title=" ">
<polygon fill="white" stroke="#666666" points="402.5,-184 308.5,-184 308.5,-165 402.5,-165 402.5,-184"/>
<text text-anchor="middle" x="355.5" y="-172" font-family="Helvetica,sans-Serif" font-size="10.00">crypto_inlines.h</text>
</a>
</g>
</g>
<!-- Node14&#45;&gt;Node15 -->
<g id="edge16_Node000014_Node000015" class="edge">
<title>Node14&#45;&gt;Node15</title>
<g id="a_edge16_Node000014_Node000015"><a xlink:title=" ">
<path fill="none" stroke="#63b8ff" d="M354.21,-209.66C354.54,-200.93 354.92,-190.99 355.18,-184.09"/>
<polygon fill="#63b8ff" stroke="#63b8ff" points="350.71,-209.62 353.83,-219.75 357.7,-209.89 350.71,-209.62"/>
</a>
</g>
</g>
<!-- Node17 -->
<g id="Node000017" class="node">
<title>Node17</title>
<g id="a_Node000017"><a xlink:href="traffic__mngr_8h.html" target="_top" xlink:title="ODP Traffic manager.">
<polygon fill="white" stroke="#666666" points="306.5,-239 222.5,-239 222.5,-220 306.5,-220 306.5,-239"/>
<text text-anchor="middle" x="264.5" y="-227" font-family="Helvetica,sans-Serif" font-size="10.00">traffic_mngr.h</text>
</a>
</g>
</g>
<!-- Node16&#45;&gt;Node17 -->
<g id="edge20_Node000016_Node000017" class="edge">
<title>Node16&#45;&gt;Node17</title>
<g id="a_edge20_Node000016_Node000017"><a xlink:title=" ">
<path fill="none" stroke="#63b8ff" d="M264.5,-264.66C264.5,-255.93 264.5,-245.99 264.5,-239.09"/>
<polygon fill="#63b8ff" stroke="#63b8ff" points="261,-264.75 264.5,-274.75 268,-264.75 261,-264.75"/>
</a>
</g>
</g>
<!-- Node17&#45;&gt;Node8 -->
<g id="edge21_Node000017_Node000008" class="edge">
<title>Node17&#45;&gt;Node8</title>
<g id="a_edge21_Node000017_Node000008"><a xlink:title=" ">
<path fill="none" stroke="#63b8ff" d="M245.19,-213.88C232.59,-204.34 216.57,-192.21 205.95,-184.17"/>
<polygon fill="#63b8ff" stroke="#63b8ff" points="243.17,-216.74 253.25,-219.98 247.39,-211.16 243.17,-216.74"/>
</a>
</g>
</g>
</g>
</svg>
