<?xml version="1.0" encoding="UTF-8" standalone="no"?>
<!DOCTYPE svg PUBLIC "-//W3C//DTD SVG 1.1//EN"
 "http://www.w3.org/Graphics/SVG/1.1/DTD/svg11.dtd">
<!-- Generated by graphviz version 2.43.0 (0)
 -->
<!-- Title: packet_flags.h Pages: 1 -->
<svg width="1425pt" height="911pt"
 viewBox="0.00 0.00 1425.00 911.00" xmlns="http://www.w3.org/2000/svg" xmlns:xlink="http://www.w3.org/1999/xlink">
<g id="graph0" class="graph" transform="scale(1 1) rotate(0) translate(4 907)">
<title>packet_flags.h</title>
<polygon fill="white" stroke="transparent" points="-4,4 -4,-907 1421,-907 1421,4 -4,4"/>
<!-- Node1 -->
<g id="node1" class="node">
<title>Node1</title>
<g id="a_node1"><a xlink:title="ODP packet flags.">
<polygon fill="#bfbfbf" stroke="black" points="1199,-883.5 1199,-902.5 1285,-902.5 1285,-883.5 1199,-883.5"/>
<text text-anchor="middle" x="1242" y="-890.5" font-family="Helvetica,sans-Serif" font-size="10.00">packet_flags.h</text>
</a>
</g>
</g>
<!-- Node2 -->
<g id="node2" class="node">
<title>Node2</title>
<g id="a_node2"><a xlink:title=" ">
<polygon fill="white" stroke="#bfbfbf" points="1125,-816.5 1125,-846.5 1231,-846.5 1231,-816.5 1125,-816.5"/>
<text text-anchor="start" x="1133" y="-834.5" font-family="Helvetica,sans-Serif" font-size="10.00">odp/api/abi/packet</text>
<text text-anchor="middle" x="1178" y="-823.5" font-family="Helvetica,sans-Serif" font-size="10.00">_flags.h</text>
</a>
</g>
</g>
<!-- Node1&#45;&gt;Node2 -->
<g id="edge1" class="edge">
<title>Node1&#45;&gt;Node2</title>
<path fill="none" stroke="midnightblue" d="M1232.83,-883.48C1224.41,-875.64 1211.58,-863.71 1200.44,-853.37"/>
<polygon fill="midnightblue" stroke="midnightblue" points="1202.79,-850.77 1193.08,-846.52 1198.02,-855.9 1202.79,-850.77"/>
</g>
<!-- Node3 -->
<g id="node3" class="node">
<title>Node3</title>
<g id="a_node3"><a xlink:href="spec_2packet__flags_8h.html" target="_top" xlink:title="ODP packet flags.">
<polygon fill="white" stroke="black" points="1249.5,-816.5 1249.5,-846.5 1362.5,-846.5 1362.5,-816.5 1249.5,-816.5"/>
<text text-anchor="start" x="1257.5" y="-834.5" font-family="Helvetica,sans-Serif" font-size="10.00">odp/api/spec/packet</text>
<text text-anchor="middle" x="1306" y="-823.5" font-family="Helvetica,sans-Serif" font-size="10.00">_flags.h</text>
</a>
</g>
</g>
<!-- Node1&#45;&gt;Node3 -->
<g id="edge2" class="edge">
<title>Node1&#45;&gt;Node3</title>
<path fill="none" stroke="midnightblue" d="M1251.17,-883.48C1259.59,-875.64 1272.42,-863.71 1283.56,-853.37"/>
<polygon fill="midnightblue" stroke="midnightblue" points="1285.98,-855.9 1290.92,-846.52 1281.21,-850.77 1285.98,-855.9"/>
</g>
<!-- Node4 -->
<g id="node4" class="node">
<title>Node4</title>
<g id="a_node4"><a xlink:title=" ">
<polygon fill="white" stroke="#bfbfbf" points="168.5,-0.5 168.5,-19.5 289.5,-19.5 289.5,-0.5 168.5,-0.5"/>
<text text-anchor="middle" x="229" y="-7.5" font-family="Helvetica,sans-Serif" font-size="10.00">odp/visibility_begin.h</text>
</a>
</g>
</g>
<!-- Node3&#45;&gt;Node4 -->
<g id="edge3" class="edge">
<title>Node3&#45;&gt;Node4</title>
<path fill="none" stroke="midnightblue" d="M1249.21,-817.53C1246.1,-816.97 1243.02,-816.46 1240,-816 1103.29,-795.2 0,-847.79 0,-709.5 0,-709.5 0,-709.5 0,-132 0,-59.5 90.83,-30.33 158.08,-18.66"/>
<polygon fill="midnightblue" stroke="midnightblue" points="158.93,-22.07 168.23,-17 157.8,-15.16 158.93,-22.07"/>
</g>
<!-- Node5 -->
<g id="node5" class="node">
<title>Node5</title>
<g id="a_node5"><a xlink:href="packet__types_8h.html" target="_top" xlink:title="ODP packet.">
<polygon fill="white" stroke="black" points="1135.5,-760.5 1135.5,-779.5 1264.5,-779.5 1264.5,-760.5 1135.5,-760.5"/>
<text text-anchor="middle" x="1200" y="-767.5" font-family="Helvetica,sans-Serif" font-size="10.00">odp/api/packet_types.h</text>
</a>
</g>
</g>
<!-- Node3&#45;&gt;Node5 -->
<g id="edge4" class="edge">
<title>Node3&#45;&gt;Node5</title>
<path fill="none" stroke="midnightblue" d="M1280.88,-816.4C1263.73,-806.77 1241.14,-794.09 1224.19,-784.58"/>
<polygon fill="midnightblue" stroke="midnightblue" points="1225.86,-781.5 1215.42,-779.66 1222.43,-787.6 1225.86,-781.5"/>
</g>
<!-- Node12 -->
<g id="node12" class="node">
<title>Node12</title>
<g id="a_node12"><a xlink:href="std__types_8h.html" target="_top" xlink:title="Standard C language types and definitions for ODP.">
<polygon fill="white" stroke="black" points="882,-252 882,-271 994,-271 994,-252 882,-252"/>
<text text-anchor="middle" x="938" y="-259" font-family="Helvetica,sans-Serif" font-size="10.00">odp/api/std_types.h</text>
</a>
</g>
</g>
<!-- Node3&#45;&gt;Node12 -->
<g id="edge63" class="edge">
<title>Node3&#45;&gt;Node12</title>
<path fill="none" stroke="midnightblue" d="M1317.19,-816.15C1333.01,-794.38 1360,-751.14 1360,-709.5 1360,-709.5 1360,-709.5 1360,-646 1360,-564.45 1341,-545.05 1341,-463.5 1341,-463.5 1341,-463.5 1341,-394.5 1341,-350.3 1321.62,-336.21 1284,-313 1238.4,-284.87 1091.19,-271.52 1004.17,-265.95"/>
<polygon fill="midnightblue" stroke="midnightblue" points="1004.33,-262.45 994.13,-265.32 1003.89,-269.44 1004.33,-262.45"/>
</g>
<!-- Node19 -->
<g id="node19" class="node">
<title>Node19</title>
<g id="a_node19"><a xlink:title=" ">
<polygon fill="white" stroke="#bfbfbf" points="987,-0.5 987,-19.5 1099,-19.5 1099,-0.5 987,-0.5"/>
<text text-anchor="middle" x="1043" y="-7.5" font-family="Helvetica,sans-Serif" font-size="10.00">odp/visibility_end.h</text>
</a>
</g>
</g>
<!-- Node3&#45;&gt;Node19 -->
<g id="edge64" class="edge">
<title>Node3&#45;&gt;Node19</title>
<path fill="none" stroke="midnightblue" d="M1332.87,-816.48C1365.72,-797.18 1417,-759.1 1417,-709.5 1417,-709.5 1417,-709.5 1417,-132 1417,-82.63 1380.39,-77.6 1336,-56 1297.11,-37.07 1182.96,-23.6 1109.16,-16.58"/>
<polygon fill="midnightblue" stroke="midnightblue" points="1109.31,-13.08 1099.03,-15.63 1108.66,-20.05 1109.31,-13.08"/>
</g>
<!-- Node6 -->
<g id="node6" class="node">
<title>Node6</title>
<g id="a_node6"><a xlink:title=" ">
<polygon fill="white" stroke="#bfbfbf" points="970,-693.5 970,-723.5 1076,-723.5 1076,-693.5 970,-693.5"/>
<text text-anchor="start" x="978" y="-711.5" font-family="Helvetica,sans-Serif" font-size="10.00">odp/api/abi/packet</text>
<text text-anchor="middle" x="1023" y="-700.5" font-family="Helvetica,sans-Serif" font-size="10.00">_io_types.h</text>
</a>
</g>
</g>
<!-- Node5&#45;&gt;Node6 -->
<g id="edge5" class="edge">
<title>Node5&#45;&gt;Node6</title>
<path fill="none" stroke="midnightblue" d="M1174.64,-760.48C1148.54,-751.7 1107.15,-737.79 1074.2,-726.71"/>
<polygon fill="midnightblue" stroke="midnightblue" points="1075.31,-723.39 1064.72,-723.52 1073.08,-730.03 1075.31,-723.39"/>
</g>
<!-- Node7 -->
<g id="node7" class="node">
<title>Node7</title>
<g id="a_node7"><a xlink:title=" ">
<polygon fill="white" stroke="#bfbfbf" points="1094,-693.5 1094,-723.5 1200,-723.5 1200,-693.5 1094,-693.5"/>
<text text-anchor="start" x="1102" y="-711.5" font-family="Helvetica,sans-Serif" font-size="10.00">odp/api/abi/packet</text>
<text text-anchor="middle" x="1147" y="-700.5" font-family="Helvetica,sans-Serif" font-size="10.00">_types.h</text>
</a>
</g>
</g>
<!-- Node5&#45;&gt;Node7 -->
<g id="edge6" class="edge">
<title>Node5&#45;&gt;Node7</title>
<path fill="none" stroke="midnightblue" d="M1192.41,-760.48C1185.63,-752.87 1175.41,-741.4 1166.39,-731.26"/>
<polygon fill="midnightblue" stroke="midnightblue" points="1168.76,-728.66 1159.49,-723.52 1163.53,-733.32 1168.76,-728.66"/>
</g>
<!-- Node8 -->
<g id="node8" class="node">
<title>Node8</title>
<g id="a_node8"><a xlink:href="spec_2packet__types_8h.html" target="_top" xlink:title="ODP packet types.">
<polygon fill="white" stroke="black" points="1218.5,-693.5 1218.5,-723.5 1331.5,-723.5 1331.5,-693.5 1218.5,-693.5"/>
<text text-anchor="start" x="1226.5" y="-711.5" font-family="Helvetica,sans-Serif" font-size="10.00">odp/api/spec/packet</text>
<text text-anchor="middle" x="1275" y="-700.5" font-family="Helvetica,sans-Serif" font-size="10.00">_types.h</text>
</a>
</g>
</g>
<!-- Node5&#45;&gt;Node8 -->
<g id="edge7" class="edge">
<title>Node5&#45;&gt;Node8</title>
<path fill="none" stroke="midnightblue" d="M1210.75,-760.48C1220.81,-752.49 1236.23,-740.25 1249.45,-729.77"/>
<polygon fill="midnightblue" stroke="midnightblue" points="1251.67,-732.48 1257.32,-723.52 1247.31,-727 1251.67,-732.48"/>
</g>
<!-- Node8&#45;&gt;Node4 -->
<g id="edge8" class="edge">
<title>Node8&#45;&gt;Node4</title>
<path fill="none" stroke="midnightblue" d="M1218.2,-694.55C1215.1,-693.99 1212.01,-693.47 1209,-693 1079.89,-673.03 38,-717.15 38,-586.5 38,-586.5 38,-586.5 38,-132 38,-68.12 115.18,-36.56 171.41,-22.04"/>
<polygon fill="midnightblue" stroke="midnightblue" points="172.42,-25.4 181.3,-19.61 170.75,-18.6 172.42,-25.4"/>
</g>
<!-- Node9 -->
<g id="node9" class="node">
<title>Node9</title>
<g id="a_node9"><a xlink:href="proto__stats__types_8h.html" target="_top" xlink:title="ODP proto stats types.">
<polygon fill="white" stroke="black" points="1156,-380.5 1156,-410.5 1266,-410.5 1266,-380.5 1156,-380.5"/>
<text text-anchor="start" x="1164" y="-398.5" font-family="Helvetica,sans-Serif" font-size="10.00">odp/api/proto_stats</text>
<text text-anchor="middle" x="1211" y="-387.5" font-family="Helvetica,sans-Serif" font-size="10.00">_types.h</text>
</a>
</g>
</g>
<!-- Node8&#45;&gt;Node9 -->
<g id="edge9" class="edge">
<title>Node8&#45;&gt;Node9</title>
<path fill="none" stroke="midnightblue" d="M1276.74,-693.37C1279.35,-670.81 1284,-625.26 1284,-586.5 1284,-586.5 1284,-586.5 1284,-523 1284,-481.54 1254.22,-441.43 1232.7,-417.87"/>
<polygon fill="midnightblue" stroke="midnightblue" points="1235.18,-415.4 1225.77,-410.53 1230.09,-420.21 1235.18,-415.4"/>
</g>
<!-- Node8&#45;&gt;Node19 -->
<g id="edge62" class="edge">
<title>Node8&#45;&gt;Node19</title>
<path fill="none" stroke="midnightblue" d="M1285.93,-693.28C1312.63,-657.09 1379,-557.67 1379,-463.5 1379,-463.5 1379,-463.5 1379,-132 1379,-79.31 1335.7,-78.38 1288,-56 1231.41,-29.45 1160.62,-18.53 1109.7,-14.06"/>
<polygon fill="midnightblue" stroke="midnightblue" points="1109.73,-10.55 1099.48,-13.23 1109.16,-17.53 1109.73,-10.55"/>
</g>
<!-- Node20 -->
<g id="node20" class="node">
<title>Node20</title>
<g id="a_node20"><a xlink:href="queue__types_8h.html" target="_top" xlink:title="ODP queue.">
<polygon fill="white" stroke="black" points="932.5,-637.5 932.5,-656.5 1059.5,-656.5 1059.5,-637.5 932.5,-637.5"/>
<text text-anchor="middle" x="996" y="-644.5" font-family="Helvetica,sans-Serif" font-size="10.00">odp/api/queue_types.h</text>
</a>
</g>
</g>
<!-- Node8&#45;&gt;Node20 -->
<g id="edge25" class="edge">
<title>Node8&#45;&gt;Node20</title>
<path fill="none" stroke="midnightblue" d="M1218.48,-695.05C1215.27,-694.35 1212.1,-693.67 1209,-693 1153.59,-681.06 1090,-667.67 1046.83,-658.62"/>
<polygon fill="midnightblue" stroke="midnightblue" points="1047.36,-655.15 1036.85,-656.53 1045.92,-662.01 1047.36,-655.15"/>
</g>
<!-- Node10 -->
<g id="node10" class="node">
<title>Node10</title>
<g id="a_node10"><a xlink:title=" ">
<polygon fill="white" stroke="#bfbfbf" points="1147,-313.5 1147,-343.5 1275,-343.5 1275,-313.5 1147,-313.5"/>
<text text-anchor="start" x="1155" y="-331.5" font-family="Helvetica,sans-Serif" font-size="10.00">odp/api/abi/proto_stats</text>
<text text-anchor="middle" x="1211" y="-320.5" font-family="Helvetica,sans-Serif" font-size="10.00">_types.h</text>
</a>
</g>
</g>
<!-- Node9&#45;&gt;Node10 -->
<g id="edge10" class="edge">
<title>Node9&#45;&gt;Node10</title>
<path fill="none" stroke="midnightblue" d="M1211,-380.4C1211,-372.64 1211,-362.81 1211,-353.86"/>
<polygon fill="midnightblue" stroke="midnightblue" points="1214.5,-353.58 1211,-343.58 1207.5,-353.58 1214.5,-353.58"/>
</g>
<!-- Node11 -->
<g id="node11" class="node">
<title>Node11</title>
<g id="a_node11"><a xlink:href="spec_2proto__stats__types_8h.html" target="_top" xlink:title="ODP proto stats types.">
<polygon fill="white" stroke="black" points="983.5,-313.5 983.5,-343.5 1090.5,-343.5 1090.5,-313.5 983.5,-313.5"/>
<text text-anchor="start" x="991.5" y="-331.5" font-family="Helvetica,sans-Serif" font-size="10.00">odp/api/spec/proto</text>
<text text-anchor="middle" x="1037" y="-320.5" font-family="Helvetica,sans-Serif" font-size="10.00">_stats_types.h</text>
</a>
</g>
</g>
<!-- Node9&#45;&gt;Node11 -->
<g id="edge11" class="edge">
<title>Node9&#45;&gt;Node11</title>
<path fill="none" stroke="midnightblue" d="M1173.24,-380.4C1147.14,-370.64 1112.21,-357.59 1084.25,-347.15"/>
<polygon fill="midnightblue" stroke="midnightblue" points="1085.27,-343.8 1074.68,-343.58 1082.82,-350.35 1085.27,-343.8"/>
</g>
<!-- Node11&#45;&gt;Node4 -->
<g id="edge12" class="edge">
<title>Node11&#45;&gt;Node4</title>
<path fill="none" stroke="midnightblue" d="M1040.71,-313.11C1047.46,-283.24 1057.85,-214.38 1021,-179 977.54,-137.28 538.14,-158.78 480,-143 460.82,-137.79 457.91,-131.61 440,-123 405.59,-106.46 394.75,-106.63 362,-87 342.4,-75.26 340.46,-67.96 321,-56 300.97,-43.69 277.09,-32.09 258.67,-23.75"/>
<polygon fill="midnightblue" stroke="midnightblue" points="259.89,-20.46 249.33,-19.59 257.04,-26.85 259.89,-20.46"/>
</g>
<!-- Node11&#45;&gt;Node12 -->
<g id="edge13" class="edge">
<title>Node11&#45;&gt;Node12</title>
<path fill="none" stroke="midnightblue" d="M1015.52,-313.4C998.92,-302.5 976.04,-287.48 959.45,-276.58"/>
<polygon fill="midnightblue" stroke="midnightblue" points="961.24,-273.57 950.96,-271.01 957.4,-279.42 961.24,-273.57"/>
</g>
<!-- Node11&#45;&gt;Node19 -->
<g id="edge24" class="edge">
<title>Node11&#45;&gt;Node19</title>
<path fill="none" stroke="midnightblue" d="M1045.07,-313.37C1057.77,-289.75 1081,-240.43 1081,-195.5 1081,-195.5 1081,-195.5 1081,-132 1081,-93.81 1063.56,-51.83 1052.31,-28.72"/>
<polygon fill="midnightblue" stroke="midnightblue" points="1055.29,-26.86 1047.66,-19.52 1049.04,-30.02 1055.29,-26.86"/>
</g>
<!-- Node13 -->
<g id="node13" class="node">
<title>Node13</title>
<g id="a_node13"><a xlink:title=" ">
<polygon fill="white" stroke="#bfbfbf" points="882,-185 882,-204 1012,-204 1012,-185 882,-185"/>
<text text-anchor="middle" x="947" y="-192" font-family="Helvetica,sans-Serif" font-size="10.00">odp/api/abi/std_types.h</text>
</a>
</g>
</g>
<!-- Node12&#45;&gt;Node13 -->
<g id="edge14" class="edge">
<title>Node12&#45;&gt;Node13</title>
<path fill="none" stroke="midnightblue" d="M939.21,-251.73C940.54,-242.18 942.69,-226.62 944.4,-214.28"/>
<polygon fill="midnightblue" stroke="midnightblue" points="947.9,-214.51 945.81,-204.13 940.97,-213.55 947.9,-214.51"/>
</g>
<!-- Node14 -->
<g id="node14" class="node">
<title>Node14</title>
<g id="a_node14"><a xlink:href="spec_2std__types_8h.html" target="_top" xlink:title="Common types and definitions for ODP API files.">
<polygon fill="white" stroke="black" points="650.5,-185 650.5,-204 787.5,-204 787.5,-185 650.5,-185"/>
<text text-anchor="middle" x="719" y="-192" font-family="Helvetica,sans-Serif" font-size="10.00">odp/api/spec/std_types.h</text>
</a>
</g>
</g>
<!-- Node12&#45;&gt;Node14 -->
<g id="edge15" class="edge">
<title>Node12&#45;&gt;Node14</title>
<path fill="none" stroke="midnightblue" d="M908.92,-251.87C869.95,-240.3 800.7,-219.75 757.46,-206.91"/>
<polygon fill="midnightblue" stroke="midnightblue" points="758.44,-203.55 747.85,-204.06 756.44,-210.26 758.44,-203.55"/>
</g>
<!-- Node14&#45;&gt;Node4 -->
<g id="edge16" class="edge">
<title>Node14&#45;&gt;Node4</title>
<path fill="none" stroke="midnightblue" d="M650.44,-185.78C594.69,-178.32 514.51,-164.87 447,-143 440.1,-140.76 335.2,-90.77 329,-87 298.49,-68.44 266.09,-42.53 246.71,-26.26"/>
<polygon fill="midnightblue" stroke="midnightblue" points="248.9,-23.53 239.01,-19.73 244.37,-28.87 248.9,-23.53"/>
</g>
<!-- Node15 -->
<g id="node15" class="node">
<title>Node15</title>
<g id="a_node15"><a xlink:title=" ">
<polygon fill="white" stroke="#bfbfbf" points="341.5,-123.5 341.5,-142.5 394.5,-142.5 394.5,-123.5 341.5,-123.5"/>
<text text-anchor="middle" x="368" y="-130.5" font-family="Helvetica,sans-Serif" font-size="10.00">stdint.h</text>
</a>
</g>
</g>
<!-- Node14&#45;&gt;Node15 -->
<g id="edge17" class="edge">
<title>Node14&#45;&gt;Node15</title>
<path fill="none" stroke="midnightblue" d="M660.84,-185C598.42,-175.64 496.44,-159.71 409,-143 407.71,-142.75 406.4,-142.5 405.08,-142.23"/>
<polygon fill="midnightblue" stroke="midnightblue" points="405.37,-138.72 394.86,-140.12 403.94,-145.57 405.37,-138.72"/>
</g>
<!-- Node16 -->
<g id="node16" class="node">
<title>Node16</title>
<g id="a_node16"><a xlink:href="align_8h.html" target="_top" xlink:title="ODP alignments.">
<polygon fill="white" stroke="black" points="711.5,-123.5 711.5,-142.5 800.5,-142.5 800.5,-123.5 711.5,-123.5"/>
<text text-anchor="middle" x="756" y="-130.5" font-family="Helvetica,sans-Serif" font-size="10.00">odp/api/align.h</text>
</a>
</g>
</g>
<!-- Node14&#45;&gt;Node16 -->
<g id="edge18" class="edge">
<title>Node14&#45;&gt;Node16</title>
<path fill="none" stroke="midnightblue" d="M724.3,-184.98C729.74,-176.23 738.36,-162.37 745.24,-151.31"/>
<polygon fill="midnightblue" stroke="midnightblue" points="748.4,-152.85 750.71,-142.51 742.46,-149.15 748.4,-152.85"/>
</g>
<!-- Node14&#45;&gt;Node19 -->
<g id="edge23" class="edge">
<title>Node14&#45;&gt;Node19</title>
<path fill="none" stroke="midnightblue" d="M741.57,-185C783.55,-168.75 875.82,-130.97 947,-87 976.64,-68.69 1007.68,-42.67 1026.17,-26.32"/>
<polygon fill="midnightblue" stroke="midnightblue" points="1028.62,-28.83 1033.74,-19.55 1023.95,-23.61 1028.62,-28.83"/>
</g>
<!-- Node17 -->
<g id="node17" class="node">
<title>Node17</title>
<g id="a_node17"><a xlink:title=" ">
<polygon fill="white" stroke="#bfbfbf" points="831.5,-62 831.5,-81 938.5,-81 938.5,-62 831.5,-62"/>
<text text-anchor="middle" x="885" y="-69" font-family="Helvetica,sans-Serif" font-size="10.00">odp/api/abi/align.h</text>
</a>
</g>
</g>
<!-- Node16&#45;&gt;Node17 -->
<g id="edge19" class="edge">
<title>Node16&#45;&gt;Node17</title>
<path fill="none" stroke="midnightblue" d="M774.48,-123.48C796.13,-113.49 832.21,-96.85 857.23,-85.31"/>
<polygon fill="midnightblue" stroke="midnightblue" points="858.94,-88.38 866.55,-81.01 856.01,-82.02 858.94,-88.38"/>
</g>
<!-- Node18 -->
<g id="node18" class="node">
<title>Node18</title>
<g id="a_node18"><a xlink:href="spec_2align_8h.html" target="_top" xlink:title="ODP alignments.">
<polygon fill="white" stroke="black" points="699,-62 699,-81 813,-81 813,-62 699,-62"/>
<text text-anchor="middle" x="756" y="-69" font-family="Helvetica,sans-Serif" font-size="10.00">odp/api/spec/align.h</text>
</a>
</g>
</g>
<!-- Node16&#45;&gt;Node18 -->
<g id="edge20" class="edge">
<title>Node16&#45;&gt;Node18</title>
<path fill="none" stroke="midnightblue" d="M756,-123.48C756,-115.08 756,-101.98 756,-91.16"/>
<polygon fill="midnightblue" stroke="midnightblue" points="759.5,-91.01 756,-81.01 752.5,-91.01 759.5,-91.01"/>
</g>
<!-- Node18&#45;&gt;Node4 -->
<g id="edge21" class="edge">
<title>Node18&#45;&gt;Node4</title>
<path fill="none" stroke="midnightblue" d="M720.33,-61.98C710.24,-59.79 699.23,-57.6 689,-56 551.98,-34.54 390.3,-21.55 299.71,-15.37"/>
<polygon fill="midnightblue" stroke="midnightblue" points="299.77,-11.86 289.56,-14.68 299.3,-18.85 299.77,-11.86"/>
</g>
<!-- Node18&#45;&gt;Node19 -->
<g id="edge22" class="edge">
<title>Node18&#45;&gt;Node19</title>
<path fill="none" stroke="midnightblue" d="M794.37,-61.97C803.42,-59.98 813.05,-57.89 822,-56 879.39,-43.85 945.31,-30.51 990.11,-21.53"/>
<polygon fill="midnightblue" stroke="midnightblue" points="991.06,-24.91 1000.18,-19.52 989.69,-18.05 991.06,-24.91"/>
</g>
<!-- Node21 -->
<g id="node21" class="node">
<title>Node21</title>
<g id="a_node21"><a xlink:title=" ">
<polygon fill="white" stroke="#bfbfbf" points="923.5,-576 923.5,-595 1068.5,-595 1068.5,-576 923.5,-576"/>
<text text-anchor="middle" x="996" y="-583" font-family="Helvetica,sans-Serif" font-size="10.00">odp/api/abi/queue_types.h</text>
</a>
</g>
</g>
<!-- Node20&#45;&gt;Node21 -->
<g id="edge26" class="edge">
<title>Node20&#45;&gt;Node21</title>
<path fill="none" stroke="midnightblue" d="M996,-637.48C996,-629.08 996,-615.98 996,-605.16"/>
<polygon fill="midnightblue" stroke="midnightblue" points="999.5,-605.01 996,-595.01 992.5,-605.01 999.5,-605.01"/>
</g>
<!-- Node22 -->
<g id="node22" class="node">
<title>Node22</title>
<g id="a_node22"><a xlink:href="spec_2queue__types_8h.html" target="_top" xlink:title="ODP queue types.">
<polygon fill="white" stroke="black" points="633.5,-570.5 633.5,-600.5 744.5,-600.5 744.5,-570.5 633.5,-570.5"/>
<text text-anchor="start" x="641.5" y="-588.5" font-family="Helvetica,sans-Serif" font-size="10.00">odp/api/spec/queue</text>
<text text-anchor="middle" x="689" y="-577.5" font-family="Helvetica,sans-Serif" font-size="10.00">_types.h</text>
</a>
</g>
</g>
<!-- Node20&#45;&gt;Node22 -->
<g id="edge27" class="edge">
<title>Node20&#45;&gt;Node22</title>
<path fill="none" stroke="midnightblue" d="M952.01,-637.48C900.37,-627.47 814.22,-610.77 754.66,-599.23"/>
<polygon fill="midnightblue" stroke="midnightblue" points="755.09,-595.74 744.61,-597.28 753.76,-602.62 755.09,-595.74"/>
</g>
<!-- Node22&#45;&gt;Node4 -->
<g id="edge28" class="edge">
<title>Node22&#45;&gt;Node4</title>
<path fill="none" stroke="midnightblue" d="M633.25,-585.23C482.14,-585.72 76,-576.52 76,-463.5 76,-463.5 76,-463.5 76,-132 76,-73.95 144.6,-39.39 189.93,-22.89"/>
<polygon fill="midnightblue" stroke="midnightblue" points="191.21,-26.15 199.5,-19.54 188.91,-19.54 191.21,-26.15"/>
</g>
<!-- Node22&#45;&gt;Node19 -->
<g id="edge61" class="edge">
<title>Node22&#45;&gt;Node19</title>
<path fill="none" stroke="midnightblue" d="M744.67,-575.55C876.63,-553.19 1202.81,-490.92 1275,-411 1320.02,-361.16 1303,-329.66 1303,-262.5 1303,-262.5 1303,-262.5 1303,-132 1303,-46.59 1186.25,-21.31 1109.22,-13.93"/>
<polygon fill="midnightblue" stroke="midnightblue" points="1109.36,-10.43 1099.1,-13.04 1108.75,-17.4 1109.36,-10.43"/>
</g>
<!-- Node23 -->
<g id="node23" class="node">
<title>Node23</title>
<g id="a_node23"><a xlink:href="event__vector__types_8h.html" target="_top" xlink:title="ODP event vector API type definitions.">
<polygon fill="white" stroke="black" points="678.5,-380.5 678.5,-410.5 797.5,-410.5 797.5,-380.5 678.5,-380.5"/>
<text text-anchor="start" x="686.5" y="-398.5" font-family="Helvetica,sans-Serif" font-size="10.00">odp/api/event_vector</text>
<text text-anchor="middle" x="738" y="-387.5" font-family="Helvetica,sans-Serif" font-size="10.00">_types.h</text>
</a>
</g>
</g>
<!-- Node22&#45;&gt;Node23 -->
<g id="edge29" class="edge">
<title>Node22&#45;&gt;Node23</title>
<path fill="none" stroke="midnightblue" d="M699.58,-570.24C706.24,-560.52 714.42,-547.09 719,-534 732.35,-495.85 736.36,-448.66 737.54,-420.66"/>
<polygon fill="midnightblue" stroke="midnightblue" points="741.04,-420.7 737.88,-410.59 734.05,-420.47 741.04,-420.7"/>
</g>
<!-- Node30 -->
<g id="node30" class="node">
<title>Node30</title>
<g id="a_node30"><a xlink:href="queue__stats__types_8h.html" target="_top" xlink:title="ODP queue.">
<polygon fill="white" stroke="black" points="142.5,-246.5 142.5,-276.5 257.5,-276.5 257.5,-246.5 142.5,-246.5"/>
<text text-anchor="start" x="150.5" y="-264.5" font-family="Helvetica,sans-Serif" font-size="10.00">odp/api/queue_stats</text>
<text text-anchor="middle" x="200" y="-253.5" font-family="Helvetica,sans-Serif" font-size="10.00">_types.h</text>
</a>
</g>
</g>
<!-- Node22&#45;&gt;Node30 -->
<g id="edge46" class="edge">
<title>Node22&#45;&gt;Node30</title>
<path fill="none" stroke="midnightblue" d="M633.21,-577.92C523.53,-561.53 282.7,-507.64 193,-344 183.39,-326.47 186.47,-303.57 191.18,-286.51"/>
<polygon fill="midnightblue" stroke="midnightblue" points="194.59,-287.33 194.23,-276.75 187.91,-285.25 194.59,-287.33"/>
</g>
<!-- Node32 -->
<g id="node32" class="node">
<title>Node32</title>
<g id="a_node32"><a xlink:href="schedule__types_8h.html" target="_top" xlink:title="ODP schedule.">
<polygon fill="white" stroke="black" points="570,-514.5 570,-533.5 710,-533.5 710,-514.5 570,-514.5"/>
<text text-anchor="middle" x="640" y="-521.5" font-family="Helvetica,sans-Serif" font-size="10.00">odp/api/schedule_types.h</text>
</a>
</g>
</g>
<!-- Node22&#45;&gt;Node32 -->
<g id="edge47" class="edge">
<title>Node22&#45;&gt;Node32</title>
<path fill="none" stroke="midnightblue" d="M677.39,-570.4C670.27,-561.75 661.12,-550.64 653.65,-541.58"/>
<polygon fill="midnightblue" stroke="midnightblue" points="656.19,-539.15 647.13,-533.66 650.79,-543.6 656.19,-539.15"/>
</g>
<!-- Node24 -->
<g id="node24" class="node">
<title>Node24</title>
<g id="a_node24"><a xlink:title=" ">
<polygon fill="white" stroke="#bfbfbf" points="828.5,-313.5 828.5,-343.5 965.5,-343.5 965.5,-313.5 828.5,-313.5"/>
<text text-anchor="start" x="836.5" y="-331.5" font-family="Helvetica,sans-Serif" font-size="10.00">odp/api/abi/event_vector</text>
<text text-anchor="middle" x="897" y="-320.5" font-family="Helvetica,sans-Serif" font-size="10.00">_types.h</text>
</a>
</g>
</g>
<!-- Node23&#45;&gt;Node24 -->
<g id="edge30" class="edge">
<title>Node23&#45;&gt;Node24</title>
<path fill="none" stroke="midnightblue" d="M772.5,-380.4C796.15,-370.73 827.72,-357.82 853.15,-347.43"/>
<polygon fill="midnightblue" stroke="midnightblue" points="854.63,-350.6 862.57,-343.58 851.99,-344.12 854.63,-350.6"/>
</g>
<!-- Node25 -->
<g id="node25" class="node">
<title>Node25</title>
<g id="a_node25"><a xlink:title=" ">
<polygon fill="white" stroke="#bfbfbf" points="674,-319 674,-338 810,-338 810,-319 674,-319"/>
<text text-anchor="middle" x="742" y="-326" font-family="Helvetica,sans-Serif" font-size="10.00">odp/api/abi/pool_types.h</text>
</a>
</g>
</g>
<!-- Node23&#45;&gt;Node25 -->
<g id="edge31" class="edge">
<title>Node23&#45;&gt;Node25</title>
<path fill="none" stroke="midnightblue" d="M738.87,-380.4C739.45,-370.96 740.22,-358.45 740.85,-348.19"/>
<polygon fill="midnightblue" stroke="midnightblue" points="744.34,-348.39 741.46,-338.19 737.36,-347.96 744.34,-348.39"/>
</g>
<!-- Node26 -->
<g id="node26" class="node">
<title>Node26</title>
<g id="a_node26"><a xlink:href="spec_2event__vector__types_8h.html" target="_top" xlink:title="ODP event vector API type definitions.">
<polygon fill="white" stroke="black" points="359.5,-313.5 359.5,-343.5 468.5,-343.5 468.5,-313.5 359.5,-313.5"/>
<text text-anchor="start" x="367.5" y="-331.5" font-family="Helvetica,sans-Serif" font-size="10.00">odp/api/spec/event</text>
<text text-anchor="middle" x="414" y="-320.5" font-family="Helvetica,sans-Serif" font-size="10.00">_vector_types.h</text>
</a>
</g>
</g>
<!-- Node23&#45;&gt;Node26 -->
<g id="edge32" class="edge">
<title>Node23&#45;&gt;Node26</title>
<path fill="none" stroke="midnightblue" d="M678.28,-383.56C627.57,-374.13 552.63,-359.87 478.58,-344.3"/>
<polygon fill="midnightblue" stroke="midnightblue" points="479.12,-340.83 468.61,-342.19 477.67,-347.68 479.12,-340.83"/>
</g>
<!-- Node26&#45;&gt;Node4 -->
<g id="edge33" class="edge">
<title>Node26&#45;&gt;Node4</title>
<path fill="none" stroke="midnightblue" d="M381.44,-313.34C360.57,-303.87 333.16,-290.67 310,-277 309.83,-276.9 215.09,-210.18 215,-210 183.94,-150.09 208.27,-66.1 221.67,-29.39"/>
<polygon fill="midnightblue" stroke="midnightblue" points="225.11,-30.18 225.4,-19.59 218.57,-27.69 225.11,-30.18"/>
</g>
<!-- Node26&#45;&gt;Node12 -->
<g id="edge44" class="edge">
<title>Node26&#45;&gt;Node12</title>
<path fill="none" stroke="midnightblue" d="M468.55,-314.47C471.4,-313.94 474.23,-313.44 477,-313 649.31,-285.37 695.4,-302.74 868,-277 875.43,-275.89 883.25,-274.5 890.87,-273.02"/>
<polygon fill="midnightblue" stroke="midnightblue" points="891.61,-276.44 900.72,-271.03 890.23,-269.58 891.61,-276.44"/>
</g>
<!-- Node26&#45;&gt;Node19 -->
<g id="edge45" class="edge">
<title>Node26&#45;&gt;Node19</title>
<path fill="none" stroke="midnightblue" d="M467.6,-313.47C542.21,-293.38 681.14,-253.97 796,-210 829.15,-197.31 910.81,-161.67 941,-143 974.89,-122.05 986.97,-118.78 1011,-87 1024.19,-69.56 1033.03,-45.87 1038.02,-29.6"/>
<polygon fill="midnightblue" stroke="midnightblue" points="1041.47,-30.27 1040.86,-19.69 1034.74,-28.34 1041.47,-30.27"/>
</g>
<!-- Node27 -->
<g id="node27" class="node">
<title>Node27</title>
<g id="a_node27"><a xlink:href="event__types_8h.html" target="_top" xlink:title="ODP event API type definitions.">
<polygon fill="white" stroke="black" points="489.5,-123.5 489.5,-142.5 614.5,-142.5 614.5,-123.5 489.5,-123.5"/>
<text text-anchor="middle" x="552" y="-130.5" font-family="Helvetica,sans-Serif" font-size="10.00">odp/api/event_types.h</text>
</a>
</g>
</g>
<!-- Node26&#45;&gt;Node27 -->
<g id="edge34" class="edge">
<title>Node26&#45;&gt;Node27</title>
<path fill="none" stroke="midnightblue" d="M424.15,-313.27C449.05,-278.35 513.11,-188.54 539.92,-150.94"/>
<polygon fill="midnightblue" stroke="midnightblue" points="542.93,-152.75 545.88,-142.58 537.23,-148.69 542.93,-152.75"/>
</g>
<!-- Node26&#45;&gt;Node30 -->
<g id="edge39" class="edge">
<title>Node26&#45;&gt;Node30</title>
<path fill="none" stroke="midnightblue" d="M367.83,-313.48C335.17,-303.56 291.2,-290.2 256.46,-279.65"/>
<polygon fill="midnightblue" stroke="midnightblue" points="257.04,-276.17 246.46,-276.61 255.01,-282.87 257.04,-276.17"/>
</g>
<!-- Node28 -->
<g id="node28" class="node">
<title>Node28</title>
<g id="a_node28"><a xlink:title=" ">
<polygon fill="white" stroke="#bfbfbf" points="537.5,-62 537.5,-81 680.5,-81 680.5,-62 537.5,-62"/>
<text text-anchor="middle" x="609" y="-69" font-family="Helvetica,sans-Serif" font-size="10.00">odp/api/abi/event_types.h</text>
</a>
</g>
</g>
<!-- Node27&#45;&gt;Node28 -->
<g id="edge35" class="edge">
<title>Node27&#45;&gt;Node28</title>
<path fill="none" stroke="midnightblue" d="M560.17,-123.48C568.89,-114.37 582.9,-99.74 593.69,-88.48"/>
<polygon fill="midnightblue" stroke="midnightblue" points="596.46,-90.65 600.85,-81.01 591.4,-85.81 596.46,-90.65"/>
</g>
<!-- Node29 -->
<g id="node29" class="node">
<title>Node29</title>
<g id="a_node29"><a xlink:href="spec_2event__types_8h.html" target="_top" xlink:title="ODP event API type definitions.">
<polygon fill="white" stroke="black" points="371.5,-56.5 371.5,-86.5 480.5,-86.5 480.5,-56.5 371.5,-56.5"/>
<text text-anchor="start" x="379.5" y="-74.5" font-family="Helvetica,sans-Serif" font-size="10.00">odp/api/spec/event</text>
<text text-anchor="middle" x="426" y="-63.5" font-family="Helvetica,sans-Serif" font-size="10.00">_types.h</text>
</a>
</g>
</g>
<!-- Node27&#45;&gt;Node29 -->
<g id="edge36" class="edge">
<title>Node27&#45;&gt;Node29</title>
<path fill="none" stroke="midnightblue" d="M533.95,-123.48C516.01,-115 487.91,-101.74 464.89,-90.86"/>
<polygon fill="midnightblue" stroke="midnightblue" points="466.23,-87.63 455.7,-86.52 463.24,-93.96 466.23,-87.63"/>
</g>
<!-- Node29&#45;&gt;Node4 -->
<g id="edge37" class="edge">
<title>Node29&#45;&gt;Node4</title>
<path fill="none" stroke="midnightblue" d="M379.31,-56.4C345.12,-46.07 299.29,-32.23 267.26,-22.56"/>
<polygon fill="midnightblue" stroke="midnightblue" points="267.96,-19.11 257.38,-19.57 265.94,-25.81 267.96,-19.11"/>
</g>
<!-- Node29&#45;&gt;Node19 -->
<g id="edge38" class="edge">
<title>Node29&#45;&gt;Node19</title>
<path fill="none" stroke="midnightblue" d="M480.5,-58.39C485.39,-57.5 490.28,-56.69 495,-56 667.61,-30.88 873,-18.69 976.44,-13.78"/>
<polygon fill="midnightblue" stroke="midnightblue" points="976.9,-17.26 986.73,-13.29 976.57,-10.26 976.9,-17.26"/>
</g>
<!-- Node31 -->
<g id="node31" class="node">
<title>Node31</title>
<g id="a_node31"><a xlink:href="spec_2queue__stats__types_8h.html" target="_top" xlink:title="ODP queue statistics types.">
<polygon fill="white" stroke="black" points="257.5,-179.5 257.5,-209.5 368.5,-209.5 368.5,-179.5 257.5,-179.5"/>
<text text-anchor="start" x="265.5" y="-197.5" font-family="Helvetica,sans-Serif" font-size="10.00">odp/api/spec/queue</text>
<text text-anchor="middle" x="313" y="-186.5" font-family="Helvetica,sans-Serif" font-size="10.00">_stats_types.h</text>
</a>
</g>
</g>
<!-- Node30&#45;&gt;Node31 -->
<g id="edge40" class="edge">
<title>Node30&#45;&gt;Node31</title>
<path fill="none" stroke="midnightblue" d="M224.52,-246.4C240.66,-237.11 261.99,-224.84 279.67,-214.67"/>
<polygon fill="midnightblue" stroke="midnightblue" points="281.61,-217.6 288.53,-209.58 278.12,-211.53 281.61,-217.6"/>
</g>
<!-- Node31&#45;&gt;Node4 -->
<g id="edge41" class="edge">
<title>Node31&#45;&gt;Node4</title>
<path fill="none" stroke="midnightblue" d="M306.55,-179.48C291.51,-146.82 254.15,-65.65 237.38,-29.21"/>
<polygon fill="midnightblue" stroke="midnightblue" points="240.42,-27.44 233.06,-19.82 234.06,-30.37 240.42,-27.44"/>
</g>
<!-- Node31&#45;&gt;Node15 -->
<g id="edge42" class="edge">
<title>Node31&#45;&gt;Node15</title>
<path fill="none" stroke="midnightblue" d="M326.03,-179.4C334.19,-170.58 344.72,-159.18 353.19,-150.02"/>
<polygon fill="midnightblue" stroke="midnightblue" points="355.78,-152.38 360,-142.66 350.64,-147.63 355.78,-152.38"/>
</g>
<!-- Node31&#45;&gt;Node19 -->
<g id="edge43" class="edge">
<title>Node31&#45;&gt;Node19</title>
<path fill="none" stroke="midnightblue" d="M312.75,-179.47C313.27,-163.52 316.66,-137.77 332,-123 383.57,-73.35 424.49,-118.04 489,-87 508.95,-77.4 507.43,-64.2 528,-56 607.79,-24.19 856.2,-14.79 976.45,-12.07"/>
<polygon fill="midnightblue" stroke="midnightblue" points="976.71,-15.57 986.63,-11.85 976.56,-8.57 976.71,-15.57"/>
</g>
<!-- Node33 -->
<g id="node33" class="node">
<title>Node33</title>
<g id="a_node33"><a xlink:title=" ">
<polygon fill="white" stroke="#bfbfbf" points="445.5,-447.5 445.5,-477.5 562.5,-477.5 562.5,-447.5 445.5,-447.5"/>
<text text-anchor="start" x="453.5" y="-465.5" font-family="Helvetica,sans-Serif" font-size="10.00">odp/api/abi/schedule</text>
<text text-anchor="middle" x="504" y="-454.5" font-family="Helvetica,sans-Serif" font-size="10.00">_types.h</text>
</a>
</g>
</g>
<!-- Node32&#45;&gt;Node33 -->
<g id="edge48" class="edge">
<title>Node32&#45;&gt;Node33</title>
<path fill="none" stroke="midnightblue" d="M620.51,-514.48C600.98,-505.93 570.29,-492.5 545.31,-481.57"/>
<polygon fill="midnightblue" stroke="midnightblue" points="546.62,-478.32 536.05,-477.52 543.81,-484.74 546.62,-478.32"/>
</g>
<!-- Node34 -->
<g id="node34" class="node">
<title>Node34</title>
<g id="a_node34"><a xlink:href="spec_2schedule__types_8h.html" target="_top" xlink:title="ODP schedule types.">
<polygon fill="white" stroke="black" points="580.5,-447.5 580.5,-477.5 705.5,-477.5 705.5,-447.5 580.5,-447.5"/>
<text text-anchor="start" x="588.5" y="-465.5" font-family="Helvetica,sans-Serif" font-size="10.00">odp/api/spec/schedule</text>
<text text-anchor="middle" x="643" y="-454.5" font-family="Helvetica,sans-Serif" font-size="10.00">_types.h</text>
</a>
</g>
</g>
<!-- Node32&#45;&gt;Node34 -->
<g id="edge49" class="edge">
<title>Node32&#45;&gt;Node34</title>
<path fill="none" stroke="midnightblue" d="M640.43,-514.48C640.78,-507.47 641.3,-497.19 641.78,-487.7"/>
<polygon fill="midnightblue" stroke="midnightblue" points="645.28,-487.69 642.29,-477.52 638.29,-487.33 645.28,-487.69"/>
</g>
<!-- Node34&#45;&gt;Node4 -->
<g id="edge50" class="edge">
<title>Node34&#45;&gt;Node4</title>
<path fill="none" stroke="midnightblue" d="M580.22,-448.6C577.1,-448.04 574.02,-447.5 571,-447 450.28,-426.91 412.98,-452.91 298,-411 199.27,-375.01 114,-367.59 114,-262.5 114,-262.5 114,-262.5 114,-132 114,-81.27 167.77,-43.34 201.77,-24.43"/>
<polygon fill="midnightblue" stroke="midnightblue" points="203.62,-27.41 210.78,-19.6 200.31,-21.24 203.62,-27.41"/>
</g>
<!-- Node34&#45;&gt;Node12 -->
<g id="edge53" class="edge">
<title>Node34&#45;&gt;Node12</title>
<path fill="none" stroke="midnightblue" d="M640.26,-447.34C635.48,-417.91 629.21,-349.82 665,-313 696.93,-280.15 823.01,-285.65 868,-277 874.32,-275.79 880.95,-274.47 887.51,-273.14"/>
<polygon fill="midnightblue" stroke="midnightblue" points="888.6,-276.49 897.69,-271.06 887.19,-269.63 888.6,-276.49"/>
</g>
<!-- Node34&#45;&gt;Node19 -->
<g id="edge60" class="edge">
<title>Node34&#45;&gt;Node19</title>
<path fill="none" stroke="midnightblue" d="M705.72,-457.28C834.97,-446.85 1119,-414.29 1119,-329.5 1119,-329.5 1119,-329.5 1119,-132 1119,-88.48 1083.3,-47.77 1060.84,-26.47"/>
<polygon fill="midnightblue" stroke="midnightblue" points="1062.99,-23.7 1053.25,-19.53 1058.27,-28.86 1062.99,-23.7"/>
</g>
<!-- Node34&#45;&gt;Node23 -->
<g id="edge51" class="edge">
<title>Node34&#45;&gt;Node23</title>
<path fill="none" stroke="midnightblue" d="M663.61,-447.4C676.93,-438.28 694.46,-426.29 709.16,-416.24"/>
<polygon fill="midnightblue" stroke="midnightblue" points="711.15,-419.11 717.43,-410.58 707.2,-413.33 711.15,-419.11"/>
</g>
<!-- Node34&#45;&gt;Node30 -->
<g id="edge52" class="edge">
<title>Node34&#45;&gt;Node30</title>
<path fill="none" stroke="midnightblue" d="M580.2,-448.57C465.92,-424.46 233.4,-372.5 209,-344 195.67,-328.44 194.49,-304.61 196,-286.73"/>
<polygon fill="midnightblue" stroke="midnightblue" points="199.48,-287.09 197.17,-276.75 192.53,-286.27 199.48,-287.09"/>
</g>
<!-- Node35 -->
<g id="node35" class="node">
<title>Node35</title>
<g id="a_node35"><a xlink:href="thrmask_8h.html" target="_top" xlink:title="ODP thread masks.">
<polygon fill="white" stroke="black" points="499.5,-386 499.5,-405 604.5,-405 604.5,-386 499.5,-386"/>
<text text-anchor="middle" x="552" y="-393" font-family="Helvetica,sans-Serif" font-size="10.00">odp/api/thrmask.h</text>
</a>
</g>
</g>
<!-- Node34&#45;&gt;Node35 -->
<g id="edge54" class="edge">
<title>Node34&#45;&gt;Node35</title>
<path fill="none" stroke="midnightblue" d="M623.25,-447.4C608.14,-436.6 587.36,-421.76 572.14,-410.89"/>
<polygon fill="midnightblue" stroke="midnightblue" points="574.08,-407.97 563.91,-405.01 570.01,-413.67 574.08,-407.97"/>
</g>
<!-- Node36 -->
<g id="node36" class="node">
<title>Node36</title>
<g id="a_node36"><a xlink:title=" ">
<polygon fill="white" stroke="#bfbfbf" points="218.5,-319 218.5,-338 341.5,-338 341.5,-319 218.5,-319"/>
<text text-anchor="middle" x="280" y="-326" font-family="Helvetica,sans-Serif" font-size="10.00">odp/api/abi/thrmask.h</text>
</a>
</g>
</g>
<!-- Node35&#45;&gt;Node36 -->
<g id="edge55" class="edge">
<title>Node35&#45;&gt;Node36</title>
<path fill="none" stroke="midnightblue" d="M516.16,-385.94C467.24,-374.24 379.51,-353.28 325.85,-340.46"/>
<polygon fill="midnightblue" stroke="midnightblue" points="326.46,-337 315.92,-338.08 324.83,-343.81 326.46,-337"/>
</g>
<!-- Node37 -->
<g id="node37" class="node">
<title>Node37</title>
<g id="a_node37"><a xlink:href="spec_2thrmask_8h.html" target="_top" xlink:title="ODP thread masks.">
<polygon fill="white" stroke="black" points="486.5,-319 486.5,-338 617.5,-338 617.5,-319 486.5,-319"/>
<text text-anchor="middle" x="552" y="-326" font-family="Helvetica,sans-Serif" font-size="10.00">odp/api/spec/thrmask.h</text>
</a>
</g>
</g>
<!-- Node35&#45;&gt;Node37 -->
<g id="edge56" class="edge">
<title>Node35&#45;&gt;Node37</title>
<path fill="none" stroke="midnightblue" d="M552,-385.73C552,-376.18 552,-360.62 552,-348.28"/>
<polygon fill="midnightblue" stroke="midnightblue" points="555.5,-348.13 552,-338.13 548.5,-348.13 555.5,-348.13"/>
</g>
<!-- Node37&#45;&gt;Node4 -->
<g id="edge57" class="edge">
<title>Node37&#45;&gt;Node4</title>
<path fill="none" stroke="midnightblue" d="M525.31,-318.96C454.44,-296.06 265.73,-233.39 248,-210 206.96,-155.86 217.57,-68.16 224.84,-29.88"/>
<polygon fill="midnightblue" stroke="midnightblue" points="228.35,-30.18 226.93,-19.68 221.5,-28.78 228.35,-30.18"/>
</g>
<!-- Node37&#45;&gt;Node12 -->
<g id="edge58" class="edge">
<title>Node37&#45;&gt;Node12</title>
<path fill="none" stroke="midnightblue" d="M597.65,-319C608.87,-316.97 620.86,-314.86 632,-313 736.66,-295.54 763.57,-295.77 868,-277 874.65,-275.81 881.63,-274.46 888.51,-273.09"/>
<polygon fill="midnightblue" stroke="midnightblue" points="889.36,-276.49 898.46,-271.07 887.96,-269.63 889.36,-276.49"/>
</g>
<!-- Node37&#45;&gt;Node19 -->
<g id="edge59" class="edge">
<title>Node37&#45;&gt;Node19</title>
<path fill="none" stroke="midnightblue" d="M575.41,-318.96C644.34,-292.94 850.06,-208.91 983,-87 1002.47,-69.14 1020.65,-44.57 1031.78,-28.25"/>
<polygon fill="midnightblue" stroke="midnightblue" points="1034.84,-29.98 1037.48,-19.72 1029.02,-26.09 1034.84,-29.98"/>
</g>
</g>
</svg>
