<?xml version="1.0" encoding="UTF-8" standalone="no"?>
<!DOCTYPE svg PUBLIC "-//W3C//DTD SVG 1.1//EN"
 "http://www.w3.org/Graphics/SVG/1.1/DTD/svg11.dtd">
<!-- Generated by graphviz version 2.43.0 (0)
 -->
<!-- Title: packet_flags.h Pages: 1 -->
<svg width="1215pt" height="878pt"
 viewBox="0.00 0.00 1215.00 878.00" xmlns="http://www.w3.org/2000/svg" xmlns:xlink="http://www.w3.org/1999/xlink">
<g id="graph0" class="graph" transform="scale(1 1) rotate(0) translate(4 874)">
<title>packet_flags.h</title>
<polygon fill="white" stroke="transparent" points="-4,4 -4,-874 1211,-874 1211,4 -4,4"/>
<!-- Node1 -->
<g id="node1" class="node">
<title>Node1</title>
<g id="a_node1"><a xlink:title="ODP packet flags.">
<polygon fill="#bfbfbf" stroke="black" points="457,-850.5 457,-869.5 543,-869.5 543,-850.5 457,-850.5"/>
<text text-anchor="middle" x="500" y="-857.5" font-family="Helvetica,sans-Serif" font-size="10.00">packet_flags.h</text>
</a>
</g>
</g>
<!-- Node2 -->
<g id="node2" class="node">
<title>Node2</title>
<g id="a_node2"><a xlink:title=" ">
<polygon fill="white" stroke="#bfbfbf" points="383,-783.5 383,-813.5 489,-813.5 489,-783.5 383,-783.5"/>
<text text-anchor="start" x="391" y="-801.5" font-family="Helvetica,sans-Serif" font-size="10.00">odp/api/abi/packet</text>
<text text-anchor="middle" x="436" y="-790.5" font-family="Helvetica,sans-Serif" font-size="10.00">_flags.h</text>
</a>
</g>
</g>
<!-- Node1&#45;&gt;Node2 -->
<g id="edge1" class="edge">
<title>Node1&#45;&gt;Node2</title>
<path fill="none" stroke="midnightblue" d="M490.83,-850.48C482.41,-842.64 469.58,-830.71 458.44,-820.37"/>
<polygon fill="midnightblue" stroke="midnightblue" points="460.79,-817.77 451.08,-813.52 456.02,-822.9 460.79,-817.77"/>
</g>
<!-- Node3 -->
<g id="node3" class="node">
<title>Node3</title>
<g id="a_node3"><a xlink:href="spec_2packet__flags_8h.html" target="_top" xlink:title="ODP packet flags.">
<polygon fill="white" stroke="black" points="507.5,-783.5 507.5,-813.5 620.5,-813.5 620.5,-783.5 507.5,-783.5"/>
<text text-anchor="start" x="515.5" y="-801.5" font-family="Helvetica,sans-Serif" font-size="10.00">odp/api/spec/packet</text>
<text text-anchor="middle" x="564" y="-790.5" font-family="Helvetica,sans-Serif" font-size="10.00">_flags.h</text>
</a>
</g>
</g>
<!-- Node1&#45;&gt;Node3 -->
<g id="edge2" class="edge">
<title>Node1&#45;&gt;Node3</title>
<path fill="none" stroke="midnightblue" d="M509.17,-850.48C517.59,-842.64 530.42,-830.71 541.56,-820.37"/>
<polygon fill="midnightblue" stroke="midnightblue" points="543.98,-822.9 548.92,-813.52 539.21,-817.77 543.98,-822.9"/>
</g>
<!-- Node4 -->
<g id="node4" class="node">
<title>Node4</title>
<g id="a_node4"><a xlink:title=" ">
<polygon fill="white" stroke="#bfbfbf" points="703.5,-0.5 703.5,-19.5 824.5,-19.5 824.5,-0.5 703.5,-0.5"/>
<text text-anchor="middle" x="764" y="-7.5" font-family="Helvetica,sans-Serif" font-size="10.00">odp/visibility_begin.h</text>
</a>
</g>
</g>
<!-- Node3&#45;&gt;Node4 -->
<g id="edge3" class="edge">
<title>Node3&#45;&gt;Node4</title>
<path fill="none" stroke="midnightblue" d="M620.74,-791.33C726.47,-778.26 943,-743.33 943,-676.5 943,-676.5 943,-676.5 943,-121 943,-63.77 875.77,-35.38 823.72,-21.96"/>
<polygon fill="midnightblue" stroke="midnightblue" points="824.41,-18.53 813.86,-19.55 822.74,-25.33 824.41,-18.53"/>
</g>
<!-- Node5 -->
<g id="node5" class="node">
<title>Node5</title>
<g id="a_node5"><a xlink:href="std__types_8h.html" target="_top" xlink:title="Standard C language types and definitions for ODP.">
<polygon fill="white" stroke="black" points="380,-224.5 380,-243.5 492,-243.5 492,-224.5 380,-224.5"/>
<text text-anchor="middle" x="436" y="-231.5" font-family="Helvetica,sans-Serif" font-size="10.00">odp/api/std_types.h</text>
</a>
</g>
</g>
<!-- Node3&#45;&gt;Node5 -->
<g id="edge4" class="edge">
<title>Node3&#45;&gt;Node5</title>
<path fill="none" stroke="midnightblue" d="M558.88,-783.18C548.37,-753.58 523.74,-683.48 505,-624 480.1,-544.99 467.97,-526.48 453,-445 440.23,-375.53 437.05,-291.38 436.26,-254.22"/>
<polygon fill="midnightblue" stroke="midnightblue" points="439.76,-253.82 436.08,-243.89 432.76,-253.95 439.76,-253.82"/>
</g>
<!-- Node12 -->
<g id="node12" class="node">
<title>Node12</title>
<g id="a_node12"><a xlink:title=" ">
<polygon fill="white" stroke="#bfbfbf" points="96,-0.5 96,-19.5 208,-19.5 208,-0.5 96,-0.5"/>
<text text-anchor="middle" x="152" y="-7.5" font-family="Helvetica,sans-Serif" font-size="10.00">odp/visibility_end.h</text>
</a>
</g>
</g>
<!-- Node3&#45;&gt;Node12 -->
<g id="edge48" class="edge">
<title>Node3&#45;&gt;Node12</title>
<path fill="none" stroke="midnightblue" d="M507.48,-785.06C504.27,-784.36 501.1,-783.67 498,-783 387.4,-759.02 0,-789.67 0,-676.5 0,-676.5 0,-676.5 0,-121 0,-67.44 62.71,-37.3 107.57,-22.59"/>
<polygon fill="midnightblue" stroke="midnightblue" points="108.63,-25.93 117.13,-19.6 106.54,-19.25 108.63,-25.93"/>
</g>
<!-- Node13 -->
<g id="node13" class="node">
<title>Node13</title>
<g id="a_node13"><a xlink:href="packet__types_8h.html" target="_top" xlink:title="ODP packet.">
<polygon fill="white" stroke="black" points="971.5,-727.5 971.5,-746.5 1100.5,-746.5 1100.5,-727.5 971.5,-727.5"/>
<text text-anchor="middle" x="1036" y="-734.5" font-family="Helvetica,sans-Serif" font-size="10.00">odp/api/packet_types.h</text>
</a>
</g>
</g>
<!-- Node3&#45;&gt;Node13 -->
<g id="edge15" class="edge">
<title>Node3&#45;&gt;Node13</title>
<path fill="none" stroke="midnightblue" d="M620.93,-790.32C706.1,-779.59 866.74,-759.34 961.25,-747.42"/>
<polygon fill="midnightblue" stroke="midnightblue" points="961.83,-750.88 971.31,-746.15 960.95,-743.93 961.83,-750.88"/>
</g>
<!-- Node6 -->
<g id="node6" class="node">
<title>Node6</title>
<g id="a_node6"><a xlink:title=" ">
<polygon fill="white" stroke="#bfbfbf" points="546,-168.5 546,-187.5 676,-187.5 676,-168.5 546,-168.5"/>
<text text-anchor="middle" x="611" y="-175.5" font-family="Helvetica,sans-Serif" font-size="10.00">odp/api/abi/std_types.h</text>
</a>
</g>
</g>
<!-- Node5&#45;&gt;Node6 -->
<g id="edge5" class="edge">
<title>Node5&#45;&gt;Node6</title>
<path fill="none" stroke="midnightblue" d="M463.73,-224.44C493.43,-215.28 540.72,-200.69 573.67,-190.52"/>
<polygon fill="midnightblue" stroke="midnightblue" points="574.88,-193.81 583.4,-187.52 572.81,-187.12 574.88,-193.81"/>
</g>
<!-- Node7 -->
<g id="node7" class="node">
<title>Node7</title>
<g id="a_node7"><a xlink:href="spec_2std__types_8h.html" target="_top" xlink:title="Common types and definitions for ODP API files.">
<polygon fill="white" stroke="black" points="352.5,-168.5 352.5,-187.5 489.5,-187.5 489.5,-168.5 352.5,-168.5"/>
<text text-anchor="middle" x="421" y="-175.5" font-family="Helvetica,sans-Serif" font-size="10.00">odp/api/spec/std_types.h</text>
</a>
</g>
</g>
<!-- Node5&#45;&gt;Node7 -->
<g id="edge6" class="edge">
<title>Node5&#45;&gt;Node7</title>
<path fill="none" stroke="midnightblue" d="M433.52,-224.08C431.51,-216.85 428.61,-206.41 426.11,-197.4"/>
<polygon fill="midnightblue" stroke="midnightblue" points="429.48,-196.45 423.43,-187.75 422.74,-198.32 429.48,-196.45"/>
</g>
<!-- Node7&#45;&gt;Node4 -->
<g id="edge7" class="edge">
<title>Node7&#45;&gt;Node4</title>
<path fill="none" stroke="midnightblue" d="M446.68,-168.49C492.45,-152.88 590.61,-117.45 668,-76 696.03,-60.99 726.02,-39.75 744.88,-25.69"/>
<polygon fill="midnightblue" stroke="midnightblue" points="747.08,-28.42 752.95,-19.6 742.86,-22.83 747.08,-28.42"/>
</g>
<!-- Node8 -->
<g id="node8" class="node">
<title>Node8</title>
<g id="a_node8"><a xlink:title=" ">
<polygon fill="white" stroke="#bfbfbf" points="316.5,-112.5 316.5,-131.5 369.5,-131.5 369.5,-112.5 316.5,-112.5"/>
<text text-anchor="middle" x="343" y="-119.5" font-family="Helvetica,sans-Serif" font-size="10.00">stdint.h</text>
</a>
</g>
</g>
<!-- Node7&#45;&gt;Node8 -->
<g id="edge8" class="edge">
<title>Node7&#45;&gt;Node8</title>
<path fill="none" stroke="midnightblue" d="M408.47,-168.32C396.41,-159.98 377.97,-147.21 363.73,-137.35"/>
<polygon fill="midnightblue" stroke="midnightblue" points="365.72,-134.47 355.5,-131.65 361.73,-140.22 365.72,-134.47"/>
</g>
<!-- Node9 -->
<g id="node9" class="node">
<title>Node9</title>
<g id="a_node9"><a xlink:href="align_8h.html" target="_top" xlink:title="ODP alignments.">
<polygon fill="white" stroke="black" points="387.5,-112.5 387.5,-131.5 476.5,-131.5 476.5,-112.5 387.5,-112.5"/>
<text text-anchor="middle" x="432" y="-119.5" font-family="Helvetica,sans-Serif" font-size="10.00">odp/api/align.h</text>
</a>
</g>
</g>
<!-- Node7&#45;&gt;Node9 -->
<g id="edge9" class="edge">
<title>Node7&#45;&gt;Node9</title>
<path fill="none" stroke="midnightblue" d="M422.82,-168.08C424.27,-160.93 426.37,-150.64 428.19,-141.69"/>
<polygon fill="midnightblue" stroke="midnightblue" points="431.65,-142.25 430.22,-131.75 424.79,-140.85 431.65,-142.25"/>
</g>
<!-- Node7&#45;&gt;Node12 -->
<g id="edge14" class="edge">
<title>Node7&#45;&gt;Node12</title>
<path fill="none" stroke="midnightblue" d="M392.8,-168.39C369.08,-160.57 334.71,-147.84 307,-132 278.31,-115.6 204.37,-54.81 170.03,-26.14"/>
<polygon fill="midnightblue" stroke="midnightblue" points="172.12,-23.33 162.2,-19.59 167.62,-28.69 172.12,-23.33"/>
</g>
<!-- Node10 -->
<g id="node10" class="node">
<title>Node10</title>
<g id="a_node10"><a xlink:title=" ">
<polygon fill="white" stroke="#bfbfbf" points="256.5,-56.5 256.5,-75.5 363.5,-75.5 363.5,-56.5 256.5,-56.5"/>
<text text-anchor="middle" x="310" y="-63.5" font-family="Helvetica,sans-Serif" font-size="10.00">odp/api/abi/align.h</text>
</a>
</g>
</g>
<!-- Node9&#45;&gt;Node10 -->
<g id="edge10" class="edge">
<title>Node9&#45;&gt;Node10</title>
<path fill="none" stroke="midnightblue" d="M412.67,-112.44C392.68,-103.6 361.26,-89.69 338.44,-79.59"/>
<polygon fill="midnightblue" stroke="midnightblue" points="339.8,-76.36 329.24,-75.52 336.97,-82.76 339.8,-76.36"/>
</g>
<!-- Node11 -->
<g id="node11" class="node">
<title>Node11</title>
<g id="a_node11"><a xlink:href="spec_2align_8h.html" target="_top" xlink:title="ODP alignments.">
<polygon fill="white" stroke="black" points="382,-56.5 382,-75.5 496,-75.5 496,-56.5 382,-56.5"/>
<text text-anchor="middle" x="439" y="-63.5" font-family="Helvetica,sans-Serif" font-size="10.00">odp/api/spec/align.h</text>
</a>
</g>
</g>
<!-- Node9&#45;&gt;Node11 -->
<g id="edge11" class="edge">
<title>Node9&#45;&gt;Node11</title>
<path fill="none" stroke="midnightblue" d="M433.16,-112.08C434.08,-104.93 435.42,-94.64 436.58,-85.69"/>
<polygon fill="midnightblue" stroke="midnightblue" points="440.05,-86.12 437.87,-75.75 433.11,-85.22 440.05,-86.12"/>
</g>
<!-- Node11&#45;&gt;Node4 -->
<g id="edge12" class="edge">
<title>Node11&#45;&gt;Node4</title>
<path fill="none" stroke="midnightblue" d="M490.5,-56.44C548.14,-46.87 641.49,-31.36 702.81,-21.17"/>
<polygon fill="midnightblue" stroke="midnightblue" points="703.45,-24.61 712.74,-19.52 702.31,-17.7 703.45,-24.61"/>
</g>
<!-- Node11&#45;&gt;Node12 -->
<g id="edge13" class="edge">
<title>Node11&#45;&gt;Node12</title>
<path fill="none" stroke="midnightblue" d="M393.52,-56.44C343.04,-46.94 261.54,-31.61 207.38,-21.42"/>
<polygon fill="midnightblue" stroke="midnightblue" points="207.74,-17.93 197.26,-19.52 206.44,-24.81 207.74,-17.93"/>
</g>
<!-- Node14 -->
<g id="node14" class="node">
<title>Node14</title>
<g id="a_node14"><a xlink:title=" ">
<polygon fill="white" stroke="#bfbfbf" points="977,-660.5 977,-690.5 1083,-690.5 1083,-660.5 977,-660.5"/>
<text text-anchor="start" x="985" y="-678.5" font-family="Helvetica,sans-Serif" font-size="10.00">odp/api/abi/packet</text>
<text text-anchor="middle" x="1030" y="-667.5" font-family="Helvetica,sans-Serif" font-size="10.00">_io_types.h</text>
</a>
</g>
</g>
<!-- Node13&#45;&gt;Node14 -->
<g id="edge16" class="edge">
<title>Node13&#45;&gt;Node14</title>
<path fill="none" stroke="midnightblue" d="M1035.14,-727.48C1034.43,-720.47 1033.4,-710.19 1032.44,-700.7"/>
<polygon fill="midnightblue" stroke="midnightblue" points="1035.9,-700.12 1031.41,-690.52 1028.94,-700.82 1035.9,-700.12"/>
</g>
<!-- Node15 -->
<g id="node15" class="node">
<title>Node15</title>
<g id="a_node15"><a xlink:title=" ">
<polygon fill="white" stroke="#bfbfbf" points="1101,-660.5 1101,-690.5 1207,-690.5 1207,-660.5 1101,-660.5"/>
<text text-anchor="start" x="1109" y="-678.5" font-family="Helvetica,sans-Serif" font-size="10.00">odp/api/abi/packet</text>
<text text-anchor="middle" x="1154" y="-667.5" font-family="Helvetica,sans-Serif" font-size="10.00">_types.h</text>
</a>
</g>
</g>
<!-- Node13&#45;&gt;Node15 -->
<g id="edge17" class="edge">
<title>Node13&#45;&gt;Node15</title>
<path fill="none" stroke="midnightblue" d="M1052.91,-727.48C1069.56,-719.08 1095.55,-705.97 1117.01,-695.15"/>
<polygon fill="midnightblue" stroke="midnightblue" points="1118.84,-698.15 1126.19,-690.52 1115.68,-691.9 1118.84,-698.15"/>
</g>
<!-- Node16 -->
<g id="node16" class="node">
<title>Node16</title>
<g id="a_node16"><a xlink:href="spec_2packet__types_8h.html" target="_top" xlink:title="ODP packet types.">
<polygon fill="white" stroke="black" points="587.5,-660.5 587.5,-690.5 700.5,-690.5 700.5,-660.5 587.5,-660.5"/>
<text text-anchor="start" x="595.5" y="-678.5" font-family="Helvetica,sans-Serif" font-size="10.00">odp/api/spec/packet</text>
<text text-anchor="middle" x="644" y="-667.5" font-family="Helvetica,sans-Serif" font-size="10.00">_types.h</text>
</a>
</g>
</g>
<!-- Node13&#45;&gt;Node16 -->
<g id="edge18" class="edge">
<title>Node13&#45;&gt;Node16</title>
<path fill="none" stroke="midnightblue" d="M979.84,-727.48C908.72,-716.68 786.36,-698.11 710.61,-686.61"/>
<polygon fill="midnightblue" stroke="midnightblue" points="711.11,-683.15 700.7,-685.11 710.06,-690.07 711.11,-683.15"/>
</g>
<!-- Node16&#45;&gt;Node4 -->
<g id="edge19" class="edge">
<title>Node16&#45;&gt;Node4</title>
<path fill="none" stroke="midnightblue" d="M700.63,-672.51C777.4,-666.44 905,-642.9 905,-553.5 905,-553.5 905,-553.5 905,-121 905,-69.26 845.26,-38.27 803.55,-22.94"/>
<polygon fill="midnightblue" stroke="midnightblue" points="804.5,-19.56 793.9,-19.55 802.18,-26.17 804.5,-19.56"/>
</g>
<!-- Node16&#45;&gt;Node12 -->
<g id="edge47" class="edge">
<title>Node16&#45;&gt;Node12</title>
<path fill="none" stroke="midnightblue" d="M587.48,-670.77C504.22,-664.5 353.37,-649.91 306,-624 140.98,-533.76 38,-484.58 38,-296.5 38,-296.5 38,-296.5 38,-121 38,-74.11 88.55,-40.89 122.33,-23.93"/>
<polygon fill="midnightblue" stroke="midnightblue" points="123.87,-27.07 131.36,-19.58 120.83,-20.77 123.87,-27.07"/>
</g>
<!-- Node17 -->
<g id="node17" class="node">
<title>Node17</title>
<g id="a_node17"><a xlink:href="deprecated_8h.html" target="_top" xlink:title="Control deprecated API definitions.">
<polygon fill="white" stroke="black" points="514.5,-604.5 514.5,-623.5 633.5,-623.5 633.5,-604.5 514.5,-604.5"/>
<text text-anchor="middle" x="574" y="-611.5" font-family="Helvetica,sans-Serif" font-size="10.00">odp/api/deprecated.h</text>
</a>
</g>
</g>
<!-- Node16&#45;&gt;Node17 -->
<g id="edge20" class="edge">
<title>Node16&#45;&gt;Node17</title>
<path fill="none" stroke="midnightblue" d="M627.41,-660.4C616.71,-651.31 602.81,-639.49 591.87,-630.19"/>
<polygon fill="midnightblue" stroke="midnightblue" points="594.07,-627.47 584.19,-623.66 589.54,-632.8 594.07,-627.47"/>
</g>
<!-- Node19 -->
<g id="node19" class="node">
<title>Node19</title>
<g id="a_node19"><a xlink:href="proto__stats__types_8h.html" target="_top" xlink:title="ODP proto stats types.">
<polygon fill="white" stroke="black" points="207,-347.5 207,-377.5 317,-377.5 317,-347.5 207,-347.5"/>
<text text-anchor="start" x="215" y="-365.5" font-family="Helvetica,sans-Serif" font-size="10.00">odp/api/proto_stats</text>
<text text-anchor="middle" x="262" y="-354.5" font-family="Helvetica,sans-Serif" font-size="10.00">_types.h</text>
</a>
</g>
</g>
<!-- Node16&#45;&gt;Node19 -->
<g id="edge24" class="edge">
<title>Node16&#45;&gt;Node19</title>
<path fill="none" stroke="midnightblue" d="M587.22,-668.47C480.81,-655.58 262,-620.89 262,-553.5 262,-553.5 262,-553.5 262,-490 262,-454.42 262,-413.2 262,-387.74"/>
<polygon fill="midnightblue" stroke="midnightblue" points="265.5,-387.54 262,-377.54 258.5,-387.54 265.5,-387.54"/>
</g>
<!-- Node22 -->
<g id="node22" class="node">
<title>Node22</title>
<g id="a_node22"><a xlink:href="queue__types_8h.html" target="_top" xlink:title="ODP queue.">
<polygon fill="white" stroke="black" points="651.5,-604.5 651.5,-623.5 778.5,-623.5 778.5,-604.5 651.5,-604.5"/>
<text text-anchor="middle" x="715" y="-611.5" font-family="Helvetica,sans-Serif" font-size="10.00">odp/api/queue_types.h</text>
</a>
</g>
</g>
<!-- Node16&#45;&gt;Node22 -->
<g id="edge30" class="edge">
<title>Node16&#45;&gt;Node22</title>
<path fill="none" stroke="midnightblue" d="M660.83,-660.4C671.67,-651.31 685.78,-639.49 696.87,-630.19"/>
<polygon fill="midnightblue" stroke="midnightblue" points="699.25,-632.76 704.67,-623.66 694.76,-627.4 699.25,-632.76"/>
</g>
<!-- Node18 -->
<g id="node18" class="node">
<title>Node18</title>
<g id="a_node18"><a xlink:href="spec_2deprecated_8h.html" target="_top" xlink:title="Macro for deprecated API definitions.">
<polygon fill="white" stroke="black" points="514.5,-56.5 514.5,-75.5 659.5,-75.5 659.5,-56.5 514.5,-56.5"/>
<text text-anchor="middle" x="587" y="-63.5" font-family="Helvetica,sans-Serif" font-size="10.00">odp/api/spec/deprecated.h</text>
</a>
</g>
</g>
<!-- Node17&#45;&gt;Node18 -->
<g id="edge21" class="edge">
<title>Node17&#45;&gt;Node18</title>
<path fill="none" stroke="midnightblue" d="M574.02,-604.36C574.33,-582.84 576.74,-525.34 593,-481 605.1,-448 611.22,-439.88 635,-414 686.54,-357.9 737.97,-379.16 772,-311 820.57,-213.71 673.4,-116.11 612.29,-80.81"/>
<polygon fill="midnightblue" stroke="midnightblue" points="613.69,-77.58 603.27,-75.69 610.24,-83.67 613.69,-77.58"/>
</g>
<!-- Node18&#45;&gt;Node4 -->
<g id="edge22" class="edge">
<title>Node18&#45;&gt;Node4</title>
<path fill="none" stroke="midnightblue" d="M615.05,-56.44C645.08,-47.28 692.91,-32.69 726.24,-22.52"/>
<polygon fill="midnightblue" stroke="midnightblue" points="727.54,-25.78 736.09,-19.52 725.5,-19.09 727.54,-25.78"/>
</g>
<!-- Node18&#45;&gt;Node12 -->
<g id="edge23" class="edge">
<title>Node18&#45;&gt;Node12</title>
<path fill="none" stroke="midnightblue" d="M518.07,-56.44C435.83,-46.23 299.28,-29.28 218.24,-19.22"/>
<polygon fill="midnightblue" stroke="midnightblue" points="218.51,-15.73 208.16,-17.97 217.65,-22.68 218.51,-15.73"/>
</g>
<!-- Node20 -->
<g id="node20" class="node">
<title>Node20</title>
<g id="a_node20"><a xlink:title=" ">
<polygon fill="white" stroke="#bfbfbf" points="268,-280.5 268,-310.5 396,-310.5 396,-280.5 268,-280.5"/>
<text text-anchor="start" x="276" y="-298.5" font-family="Helvetica,sans-Serif" font-size="10.00">odp/api/abi/proto_stats</text>
<text text-anchor="middle" x="332" y="-287.5" font-family="Helvetica,sans-Serif" font-size="10.00">_types.h</text>
</a>
</g>
</g>
<!-- Node19&#45;&gt;Node20 -->
<g id="edge25" class="edge">
<title>Node19&#45;&gt;Node20</title>
<path fill="none" stroke="midnightblue" d="M277.19,-347.4C286.55,-338.71 298.72,-327.4 309.21,-317.66"/>
<polygon fill="midnightblue" stroke="midnightblue" points="311.89,-319.95 316.84,-310.58 307.13,-314.82 311.89,-319.95"/>
</g>
<!-- Node21 -->
<g id="node21" class="node">
<title>Node21</title>
<g id="a_node21"><a xlink:href="spec_2proto__stats__types_8h.html" target="_top" xlink:title="ODP proto stats types.">
<polygon fill="white" stroke="black" points="142.5,-280.5 142.5,-310.5 249.5,-310.5 249.5,-280.5 142.5,-280.5"/>
<text text-anchor="start" x="150.5" y="-298.5" font-family="Helvetica,sans-Serif" font-size="10.00">odp/api/spec/proto</text>
<text text-anchor="middle" x="196" y="-287.5" font-family="Helvetica,sans-Serif" font-size="10.00">_stats_types.h</text>
</a>
</g>
</g>
<!-- Node19&#45;&gt;Node21 -->
<g id="edge26" class="edge">
<title>Node19&#45;&gt;Node21</title>
<path fill="none" stroke="midnightblue" d="M247.68,-347.4C238.86,-338.71 227.38,-327.4 217.48,-317.66"/>
<polygon fill="midnightblue" stroke="midnightblue" points="219.87,-315.1 210.29,-310.58 214.96,-320.09 219.87,-315.1"/>
</g>
<!-- Node21&#45;&gt;Node4 -->
<g id="edge27" class="edge">
<title>Node21&#45;&gt;Node4</title>
<path fill="none" stroke="midnightblue" d="M227.87,-280.47C262.65,-265.43 320.17,-241.39 371,-224 426.51,-205.01 443.79,-210.43 498,-188 509.81,-183.11 688.8,-83.7 699,-76 718.19,-61.5 737.32,-41.55 749.8,-27.58"/>
<polygon fill="midnightblue" stroke="midnightblue" points="752.69,-29.59 756.66,-19.77 747.43,-24.98 752.69,-29.59"/>
</g>
<!-- Node21&#45;&gt;Node5 -->
<g id="edge28" class="edge">
<title>Node21&#45;&gt;Node5</title>
<path fill="none" stroke="midnightblue" d="M249.56,-281.22C292.35,-270.61 351.61,-255.92 391.74,-245.97"/>
<polygon fill="midnightblue" stroke="midnightblue" points="392.65,-249.35 401.51,-243.55 390.96,-242.56 392.65,-249.35"/>
</g>
<!-- Node21&#45;&gt;Node12 -->
<g id="edge29" class="edge">
<title>Node21&#45;&gt;Node12</title>
<path fill="none" stroke="midnightblue" d="M186.67,-280.22C173.75,-259.03 152,-217.62 152,-179 152,-179 152,-179 152,-121 152,-88.95 152,-51.64 152,-29.75"/>
<polygon fill="midnightblue" stroke="midnightblue" points="155.5,-29.56 152,-19.56 148.5,-29.56 155.5,-29.56"/>
</g>
<!-- Node23 -->
<g id="node23" class="node">
<title>Node23</title>
<g id="a_node23"><a xlink:title=" ">
<polygon fill="white" stroke="#bfbfbf" points="731.5,-543 731.5,-562 876.5,-562 876.5,-543 731.5,-543"/>
<text text-anchor="middle" x="804" y="-550" font-family="Helvetica,sans-Serif" font-size="10.00">odp/api/abi/queue_types.h</text>
</a>
</g>
</g>
<!-- Node22&#45;&gt;Node23 -->
<g id="edge31" class="edge">
<title>Node22&#45;&gt;Node23</title>
<path fill="none" stroke="midnightblue" d="M727.75,-604.48C742.03,-594.93 765.4,-579.31 782.51,-567.87"/>
<polygon fill="midnightblue" stroke="midnightblue" points="784.9,-570.48 791.27,-562.01 781.01,-564.66 784.9,-570.48"/>
</g>
<!-- Node24 -->
<g id="node24" class="node">
<title>Node24</title>
<g id="a_node24"><a xlink:href="spec_2queue__types_8h.html" target="_top" xlink:title="ODP queue types.">
<polygon fill="white" stroke="black" points="602.5,-537.5 602.5,-567.5 713.5,-567.5 713.5,-537.5 602.5,-537.5"/>
<text text-anchor="start" x="610.5" y="-555.5" font-family="Helvetica,sans-Serif" font-size="10.00">odp/api/spec/queue</text>
<text text-anchor="middle" x="658" y="-544.5" font-family="Helvetica,sans-Serif" font-size="10.00">_types.h</text>
</a>
</g>
</g>
<!-- Node22&#45;&gt;Node24 -->
<g id="edge32" class="edge">
<title>Node22&#45;&gt;Node24</title>
<path fill="none" stroke="midnightblue" d="M706.83,-604.48C699.47,-596.79 688.34,-585.17 678.56,-574.96"/>
<polygon fill="midnightblue" stroke="midnightblue" points="680.88,-572.32 671.43,-567.52 675.82,-577.17 680.88,-572.32"/>
</g>
<!-- Node24&#45;&gt;Node4 -->
<g id="edge33" class="edge">
<title>Node24&#45;&gt;Node4</title>
<path fill="none" stroke="midnightblue" d="M698.3,-537.32C759.03,-514.71 867,-469.07 867,-430.5 867,-430.5 867,-430.5 867,-121 867,-76.43 821.38,-42.46 790.86,-24.73"/>
<polygon fill="midnightblue" stroke="midnightblue" points="792.38,-21.57 781.94,-19.75 788.97,-27.68 792.38,-21.57"/>
</g>
<!-- Node24&#45;&gt;Node12 -->
<g id="edge46" class="edge">
<title>Node24&#45;&gt;Node12</title>
<path fill="none" stroke="midnightblue" d="M602.48,-544.51C500.98,-529.41 282.4,-485.98 135,-378 98.93,-351.57 76,-341.22 76,-296.5 76,-296.5 76,-296.5 76,-121 76,-81.28 109.96,-45.5 132.48,-26.15"/>
<polygon fill="midnightblue" stroke="midnightblue" points="134.98,-28.63 140.46,-19.57 130.52,-23.24 134.98,-28.63"/>
</g>
<!-- Node25 -->
<g id="node25" class="node">
<title>Node25</title>
<g id="a_node25"><a xlink:href="schedule__types_8h.html" target="_top" xlink:title="ODP schedule.">
<polygon fill="white" stroke="black" points="602,-481.5 602,-500.5 742,-500.5 742,-481.5 602,-481.5"/>
<text text-anchor="middle" x="672" y="-488.5" font-family="Helvetica,sans-Serif" font-size="10.00">odp/api/schedule_types.h</text>
</a>
</g>
</g>
<!-- Node24&#45;&gt;Node25 -->
<g id="edge34" class="edge">
<title>Node24&#45;&gt;Node25</title>
<path fill="none" stroke="midnightblue" d="M661.32,-537.4C663.21,-529.38 665.59,-519.23 667.63,-510.57"/>
<polygon fill="midnightblue" stroke="midnightblue" points="671.08,-511.19 669.96,-500.66 664.27,-509.59 671.08,-511.19"/>
</g>
<!-- Node26 -->
<g id="node26" class="node">
<title>Node26</title>
<g id="a_node26"><a xlink:title=" ">
<polygon fill="white" stroke="#bfbfbf" points="644.5,-414.5 644.5,-444.5 761.5,-444.5 761.5,-414.5 644.5,-414.5"/>
<text text-anchor="start" x="652.5" y="-432.5" font-family="Helvetica,sans-Serif" font-size="10.00">odp/api/abi/schedule</text>
<text text-anchor="middle" x="703" y="-421.5" font-family="Helvetica,sans-Serif" font-size="10.00">_types.h</text>
</a>
</g>
</g>
<!-- Node25&#45;&gt;Node26 -->
<g id="edge35" class="edge">
<title>Node25&#45;&gt;Node26</title>
<path fill="none" stroke="midnightblue" d="M676.44,-481.48C680.25,-474.17 685.91,-463.3 691.03,-453.47"/>
<polygon fill="midnightblue" stroke="midnightblue" points="694.18,-455.01 695.69,-444.52 687.97,-451.77 694.18,-455.01"/>
</g>
<!-- Node27 -->
<g id="node27" class="node">
<title>Node27</title>
<g id="a_node27"><a xlink:href="spec_2schedule__types_8h.html" target="_top" xlink:title="ODP schedule types.">
<polygon fill="white" stroke="black" points="462.5,-414.5 462.5,-444.5 587.5,-444.5 587.5,-414.5 462.5,-414.5"/>
<text text-anchor="start" x="470.5" y="-432.5" font-family="Helvetica,sans-Serif" font-size="10.00">odp/api/spec/schedule</text>
<text text-anchor="middle" x="525" y="-421.5" font-family="Helvetica,sans-Serif" font-size="10.00">_types.h</text>
</a>
</g>
</g>
<!-- Node25&#45;&gt;Node27 -->
<g id="edge36" class="edge">
<title>Node25&#45;&gt;Node27</title>
<path fill="none" stroke="midnightblue" d="M650.94,-481.48C629.63,-472.85 596.06,-459.26 568.94,-448.29"/>
<polygon fill="midnightblue" stroke="midnightblue" points="570.23,-445.03 559.64,-444.52 567.6,-451.52 570.23,-445.03"/>
</g>
<!-- Node27&#45;&gt;Node4 -->
<g id="edge37" class="edge">
<title>Node27&#45;&gt;Node4</title>
<path fill="none" stroke="midnightblue" d="M587.7,-415.12C644.37,-399.71 725.78,-368.74 772,-311 809.6,-264.04 802,-239.16 802,-179 802,-179 802,-179 802,-121 802,-86.81 785.4,-49.76 774.14,-28.57"/>
<polygon fill="midnightblue" stroke="midnightblue" points="777.18,-26.83 769.28,-19.77 771.05,-30.22 777.18,-26.83"/>
</g>
<!-- Node27&#45;&gt;Node5 -->
<g id="edge38" class="edge">
<title>Node27&#45;&gt;Node5</title>
<path fill="none" stroke="midnightblue" d="M515.39,-414.28C508.91,-404.36 500.4,-390.67 494,-378 472.02,-334.52 452,-280.65 442.25,-253.09"/>
<polygon fill="midnightblue" stroke="midnightblue" points="445.53,-251.88 438.92,-243.6 438.92,-254.19 445.53,-251.88"/>
</g>
<!-- Node27&#45;&gt;Node12 -->
<g id="edge45" class="edge">
<title>Node27&#45;&gt;Node12</title>
<path fill="none" stroke="midnightblue" d="M462.42,-423.39C380.84,-415.95 243.26,-400.52 198,-378 151.43,-354.82 114,-348.52 114,-296.5 114,-296.5 114,-296.5 114,-121 114,-86.81 130.6,-49.76 141.86,-28.57"/>
<polygon fill="midnightblue" stroke="midnightblue" points="144.95,-30.22 146.72,-19.77 138.82,-26.83 144.95,-30.22"/>
</g>
<!-- Node28 -->
<g id="node28" class="node">
<title>Node28</title>
<g id="a_node28"><a xlink:href="thrmask_8h.html" target="_top" xlink:title="ODP thread masks.">
<polygon fill="white" stroke="black" points="503.5,-353 503.5,-372 608.5,-372 608.5,-353 503.5,-353"/>
<text text-anchor="middle" x="556" y="-360" font-family="Helvetica,sans-Serif" font-size="10.00">odp/api/thrmask.h</text>
</a>
</g>
</g>
<!-- Node27&#45;&gt;Node28 -->
<g id="edge39" class="edge">
<title>Node27&#45;&gt;Node28</title>
<path fill="none" stroke="midnightblue" d="M531.73,-414.4C536.32,-404.76 542.45,-391.91 547.4,-381.54"/>
<polygon fill="midnightblue" stroke="midnightblue" points="550.71,-382.73 551.85,-372.19 544.39,-379.71 550.71,-382.73"/>
</g>
<!-- Node29 -->
<g id="node29" class="node">
<title>Node29</title>
<g id="a_node29"><a xlink:title=" ">
<polygon fill="white" stroke="#bfbfbf" points="639.5,-286 639.5,-305 762.5,-305 762.5,-286 639.5,-286"/>
<text text-anchor="middle" x="701" y="-293" font-family="Helvetica,sans-Serif" font-size="10.00">odp/api/abi/thrmask.h</text>
</a>
</g>
</g>
<!-- Node28&#45;&gt;Node29 -->
<g id="edge40" class="edge">
<title>Node28&#45;&gt;Node29</title>
<path fill="none" stroke="midnightblue" d="M575.25,-352.87C600.17,-341.7 643.79,-322.15 672.53,-309.26"/>
<polygon fill="midnightblue" stroke="midnightblue" points="673.97,-312.45 681.67,-305.17 671.11,-306.06 673.97,-312.45"/>
</g>
<!-- Node30 -->
<g id="node30" class="node">
<title>Node30</title>
<g id="a_node30"><a xlink:href="spec_2thrmask_8h.html" target="_top" xlink:title="ODP thread masks.">
<polygon fill="white" stroke="black" points="490.5,-286 490.5,-305 621.5,-305 621.5,-286 490.5,-286"/>
<text text-anchor="middle" x="556" y="-293" font-family="Helvetica,sans-Serif" font-size="10.00">odp/api/spec/thrmask.h</text>
</a>
</g>
</g>
<!-- Node28&#45;&gt;Node30 -->
<g id="edge41" class="edge">
<title>Node28&#45;&gt;Node30</title>
<path fill="none" stroke="midnightblue" d="M556,-352.73C556,-343.18 556,-327.62 556,-315.28"/>
<polygon fill="midnightblue" stroke="midnightblue" points="559.5,-315.13 556,-305.13 552.5,-315.13 559.5,-315.13"/>
</g>
<!-- Node30&#45;&gt;Node4 -->
<g id="edge42" class="edge">
<title>Node30&#45;&gt;Node4</title>
<path fill="none" stroke="midnightblue" d="M572.01,-285.87C608.92,-265 699.88,-207.93 740,-132 757.45,-98.98 762.26,-54.8 763.56,-29.99"/>
<polygon fill="midnightblue" stroke="midnightblue" points="767.06,-29.9 763.94,-19.77 760.07,-29.63 767.06,-29.9"/>
</g>
<!-- Node30&#45;&gt;Node5 -->
<g id="edge43" class="edge">
<title>Node30&#45;&gt;Node5</title>
<path fill="none" stroke="midnightblue" d="M538.81,-285.98C518.76,-276.03 485.4,-259.49 462.14,-247.96"/>
<polygon fill="midnightblue" stroke="midnightblue" points="463.68,-244.82 453.16,-243.51 460.57,-251.09 463.68,-244.82"/>
</g>
<!-- Node30&#45;&gt;Node12 -->
<g id="edge44" class="edge">
<title>Node30&#45;&gt;Node12</title>
<path fill="none" stroke="midnightblue" d="M551.63,-285.53C543.75,-270.34 525.63,-239.65 501,-224 440.22,-185.37 407.82,-219.4 343,-188 271.6,-153.41 260,-132.2 204,-76 189.08,-61.03 174.24,-41.95 164.25,-28.34"/>
<polygon fill="midnightblue" stroke="midnightblue" points="166.86,-25.98 158.17,-19.91 161.18,-30.07 166.86,-25.98"/>
</g>
</g>
</svg>
