<?xml version="1.0" encoding="UTF-8" standalone="no"?>
<!DOCTYPE svg PUBLIC "-//W3C//DTD SVG 1.1//EN"
 "http://www.w3.org/Graphics/SVG/1.1/DTD/svg11.dtd">
<!-- Generated by graphviz version 2.40.1 (20161225.0304)
 -->
<!-- Title: packet_vector_inlines.h Pages: 1 -->
<svg width="706pt" height="151pt"
 viewBox="0.00 0.00 705.50 151.00" xmlns="http://www.w3.org/2000/svg" xmlns:xlink="http://www.w3.org/1999/xlink">
<g id="graph0" class="graph" transform="scale(1 1) rotate(0) translate(4 147)">
<title>packet_vector_inlines.h</title>
<polygon fill="#ffffff" stroke="transparent" points="-4,4 -4,-147 701.5,-147 701.5,4 -4,4"/>
<!-- Node0 -->
<g id="node1" class="node">
<title>Node0</title>
<polygon fill="#bfbfbf" stroke="#000000" points="314,-123.5 314,-142.5 446,-142.5 446,-123.5 314,-123.5"/>
<text text-anchor="middle" x="380" y="-130.5" font-family="Helvetica,sans-Serif" font-size="10.00" fill="#000000">packet_vector_inlines.h</text>
</g>
<!-- Node1 -->
<g id="node2" class="node">
<title>Node1</title>
<polygon fill="#ffffff" stroke="#bfbfbf" points="0,-62 0,-81 110,-81 110,-62 0,-62"/>
<text text-anchor="middle" x="55" y="-69" font-family="Helvetica,sans-Serif" font-size="10.00" fill="#000000">odp/api/abi/event.h</text>
</g>
<!-- Node0&#45;&gt;Node1 -->
<g id="edge1" class="edge">
<title>Node0&#45;&gt;Node1</title>
<path fill="none" stroke="#191970" d="M319.6674,-123.4768C266.6343,-114.8416 187.4574,-101.3075 119,-87 113.6845,-85.8891 108.1382,-84.6568 102.6297,-83.3864"/>
<polygon fill="#191970" stroke="#191970" points="103.3492,-79.9602 92.8133,-81.0766 101.7458,-86.7741 103.3492,-79.9602"/>
</g>
<!-- Node2 -->
<g id="node3" class="node">
<title>Node2</title>
<polygon fill="#ffffff" stroke="#bfbfbf" points="128,-62 128,-81 244,-81 244,-62 128,-62"/>
<text text-anchor="middle" x="186" y="-69" font-family="Helvetica,sans-Serif" font-size="10.00" fill="#000000">odp/api/abi/packet.h</text>
</g>
<!-- Node0&#45;&gt;Node2 -->
<g id="edge2" class="edge">
<title>Node0&#45;&gt;Node2</title>
<path fill="none" stroke="#191970" d="M349.6875,-123.3906C316.3735,-112.8298 262.7192,-95.8208 225.9819,-84.1747"/>
<polygon fill="#191970" stroke="#191970" points="226.6898,-80.7275 216.0996,-81.0419 224.5744,-87.4002 226.6898,-80.7275"/>
</g>
<!-- Node3 -->
<g id="node4" class="node">
<title>Node3</title>
<polygon fill="#ffffff" stroke="#bfbfbf" points="262,-62 262,-81 366,-81 366,-62 262,-62"/>
<text text-anchor="middle" x="314" y="-69" font-family="Helvetica,sans-Serif" font-size="10.00" fill="#000000">odp/api/abi/pool.h</text>
</g>
<!-- Node0&#45;&gt;Node3 -->
<g id="edge3" class="edge">
<title>Node0&#45;&gt;Node3</title>
<path fill="none" stroke="#191970" d="M369.6875,-123.3906C359.5758,-113.9683 343.9558,-99.4134 331.8293,-88.1137"/>
<polygon fill="#191970" stroke="#191970" points="334.1601,-85.5015 324.4579,-81.2449 329.388,-90.6228 334.1601,-85.5015"/>
</g>
<!-- Node4 -->
<g id="node5" class="node">
<title>Node4</title>
<g id="a_node5"><a xlink:href="event__vector__inline__types_8h_source.html" target="_top" xlink:title="odp/api/plat/event\l_vector_inline_types.h">
<polygon fill="#ffffff" stroke="#000000" points="384,-56.5 384,-86.5 510,-86.5 510,-56.5 384,-56.5"/>
<text text-anchor="start" x="392" y="-74.5" font-family="Helvetica,sans-Serif" font-size="10.00" fill="#000000">odp/api/plat/event</text>
<text text-anchor="middle" x="447" y="-63.5" font-family="Helvetica,sans-Serif" font-size="10.00" fill="#000000">_vector_inline_types.h</text>
</a>
</g>
</g>
<!-- Node0&#45;&gt;Node4 -->
<g id="edge4" class="edge">
<title>Node0&#45;&gt;Node4</title>
<path fill="none" stroke="#191970" d="M390.4688,-123.3906C399.2005,-115.3756 411.9785,-103.6466 423.1779,-93.3666"/>
<polygon fill="#191970" stroke="#191970" points="425.6097,-95.8853 430.61,-86.5446 420.8762,-90.7284 425.6097,-95.8853"/>
</g>
<!-- Node5 -->
<g id="node6" class="node">
<title>Node5</title>
<polygon fill="#ffffff" stroke="#bfbfbf" points="465.5,-.5 465.5,-19.5 518.5,-19.5 518.5,-.5 465.5,-.5"/>
<text text-anchor="middle" x="492" y="-7.5" font-family="Helvetica,sans-Serif" font-size="10.00" fill="#000000">stdint.h</text>
</g>
<!-- Node0&#45;&gt;Node5 -->
<g id="edge7" class="edge">
<title>Node0&#45;&gt;Node5</title>
<path fill="none" stroke="#191970" d="M427.4622,-123.488C463.2484,-115.2397 507.9851,-102.2477 519,-87 531.8787,-69.1724 519.207,-44.649 507.2383,-28.1076"/>
<polygon fill="#191970" stroke="#191970" points="509.7189,-25.5946 500.828,-19.8324 504.185,-29.8813 509.7189,-25.5946"/>
</g>
<!-- Node6 -->
<g id="node7" class="node">
<title>Node6</title>
<g id="a_node7"><a xlink:href="pool__inline__types_8h.html" target="_top" xlink:title="ODP packet descriptor. ">
<polygon fill="#ffffff" stroke="#000000" points="566.5,-56.5 566.5,-86.5 697.5,-86.5 697.5,-56.5 566.5,-56.5"/>
<text text-anchor="start" x="574.5" y="-74.5" font-family="Helvetica,sans-Serif" font-size="10.00" fill="#000000">odp/api/plat/pool_inline</text>
<text text-anchor="middle" x="632" y="-63.5" font-family="Helvetica,sans-Serif" font-size="10.00" fill="#000000">_types.h</text>
</a>
</g>
</g>
<!-- Node0&#45;&gt;Node6 -->
<g id="edge6" class="edge">
<title>Node0&#45;&gt;Node6</title>
<path fill="none" stroke="#191970" d="M419.0985,-123.4581C456.7069,-114.2799 514.4544,-100.1867 560.3229,-88.9926"/>
<polygon fill="#191970" stroke="#191970" points="561.3302,-92.3496 570.2152,-86.5784 559.6705,-85.5492 561.3302,-92.3496"/>
</g>
<!-- Node4&#45;&gt;Node5 -->
<g id="edge5" class="edge">
<title>Node4&#45;&gt;Node5</title>
<path fill="none" stroke="#191970" d="M458.1236,-56.2977C464.3701,-47.7609 472.204,-37.0545 478.7647,-28.0883"/>
<polygon fill="#191970" stroke="#191970" points="481.7144,-29.984 484.7949,-19.8469 476.0652,-25.8505 481.7144,-29.984"/>
</g>
</g>
</svg>
