<?xml version="1.0" encoding="UTF-8" standalone="no"?>
<!DOCTYPE svg PUBLIC "-//W3C//DTD SVG 1.1//EN"
 "http://www.w3.org/Graphics/SVG/1.1/DTD/svg11.dtd">
<!-- Generated by graphviz version 2.43.0 (0)
 -->
<!-- Title: packet_types.h Pages: 1 -->
<svg width="1355pt" height="766pt"
 viewBox="0.00 0.00 1355.00 766.00" xmlns="http://www.w3.org/2000/svg" xmlns:xlink="http://www.w3.org/1999/xlink">
<g id="graph0" class="graph" transform="scale(1 1) rotate(0) translate(4 762)">
<title>packet_types.h</title>
<polygon fill="white" stroke="transparent" points="-4,4 -4,-762 1351,-762 1351,4 -4,4"/>
<!-- Node1 -->
<g id="node1" class="node">
<title>Node1</title>
<g id="a_node1"><a xlink:title="ODP packet.">
<polygon fill="#bfbfbf" stroke="black" points="132,-738.5 132,-757.5 222,-757.5 222,-738.5 132,-738.5"/>
<text text-anchor="middle" x="177" y="-745.5" font-family="Helvetica,sans-Serif" font-size="10.00">packet_types.h</text>
</a>
</g>
</g>
<!-- Node2 -->
<g id="node2" class="node">
<title>Node2</title>
<g id="a_node2"><a xlink:title=" ">
<polygon fill="white" stroke="#bfbfbf" points="0,-671.5 0,-701.5 106,-701.5 106,-671.5 0,-671.5"/>
<text text-anchor="start" x="8" y="-689.5" font-family="Helvetica,sans-Serif" font-size="10.00">odp/api/abi/packet</text>
<text text-anchor="middle" x="53" y="-678.5" font-family="Helvetica,sans-Serif" font-size="10.00">_io_types.h</text>
</a>
</g>
</g>
<!-- Node1&#45;&gt;Node2 -->
<g id="edge1" class="edge">
<title>Node1&#45;&gt;Node2</title>
<path fill="none" stroke="midnightblue" d="M159.23,-738.48C141.58,-730 113.93,-716.74 91.27,-705.86"/>
<polygon fill="midnightblue" stroke="midnightblue" points="92.75,-702.69 82.22,-701.52 89.73,-709 92.75,-702.69"/>
</g>
<!-- Node3 -->
<g id="node3" class="node">
<title>Node3</title>
<g id="a_node3"><a xlink:title=" ">
<polygon fill="white" stroke="#bfbfbf" points="124,-671.5 124,-701.5 230,-701.5 230,-671.5 124,-671.5"/>
<text text-anchor="start" x="132" y="-689.5" font-family="Helvetica,sans-Serif" font-size="10.00">odp/api/abi/packet</text>
<text text-anchor="middle" x="177" y="-678.5" font-family="Helvetica,sans-Serif" font-size="10.00">_types.h</text>
</a>
</g>
</g>
<!-- Node1&#45;&gt;Node3 -->
<g id="edge2" class="edge">
<title>Node1&#45;&gt;Node3</title>
<path fill="none" stroke="midnightblue" d="M177,-738.48C177,-731.47 177,-721.19 177,-711.7"/>
<polygon fill="midnightblue" stroke="midnightblue" points="180.5,-711.52 177,-701.52 173.5,-711.52 180.5,-711.52"/>
</g>
<!-- Node4 -->
<g id="node4" class="node">
<title>Node4</title>
<g id="a_node4"><a xlink:href="spec_2packet__types_8h.html" target="_top" xlink:title="ODP packet types.">
<polygon fill="white" stroke="black" points="248.5,-671.5 248.5,-701.5 361.5,-701.5 361.5,-671.5 248.5,-671.5"/>
<text text-anchor="start" x="256.5" y="-689.5" font-family="Helvetica,sans-Serif" font-size="10.00">odp/api/spec/packet</text>
<text text-anchor="middle" x="305" y="-678.5" font-family="Helvetica,sans-Serif" font-size="10.00">_types.h</text>
</a>
</g>
</g>
<!-- Node1&#45;&gt;Node4 -->
<g id="edge3" class="edge">
<title>Node1&#45;&gt;Node4</title>
<path fill="none" stroke="midnightblue" d="M195.34,-738.48C213.57,-730 242.1,-716.74 265.5,-705.86"/>
<polygon fill="midnightblue" stroke="midnightblue" points="267.24,-708.91 274.83,-701.52 264.29,-702.56 267.24,-708.91"/>
</g>
<!-- Node5 -->
<g id="node5" class="node">
<title>Node5</title>
<g id="a_node5"><a xlink:title=" ">
<polygon fill="white" stroke="#bfbfbf" points="337.5,-0.5 337.5,-19.5 458.5,-19.5 458.5,-0.5 337.5,-0.5"/>
<text text-anchor="middle" x="398" y="-7.5" font-family="Helvetica,sans-Serif" font-size="10.00">odp/visibility_begin.h</text>
</a>
</g>
</g>
<!-- Node4&#45;&gt;Node5 -->
<g id="edge4" class="edge">
<title>Node4&#45;&gt;Node5</title>
<path fill="none" stroke="midnightblue" d="M260.74,-671.46C195.46,-649.4 81,-604.94 81,-564.5 81,-564.5 81,-564.5 81,-132 81,-91.81 96.43,-78.1 130,-56 161.62,-35.18 258.95,-22.78 327.15,-16.42"/>
<polygon fill="midnightblue" stroke="midnightblue" points="327.77,-19.88 337.41,-15.49 327.14,-12.91 327.77,-19.88"/>
</g>
<!-- Node6 -->
<g id="node6" class="node">
<title>Node6</title>
<g id="a_node6"><a xlink:href="deprecated_8h.html" target="_top" xlink:title="Control deprecated API definitions.">
<polygon fill="white" stroke="black" points="245.5,-615.5 245.5,-634.5 364.5,-634.5 364.5,-615.5 245.5,-615.5"/>
<text text-anchor="middle" x="305" y="-622.5" font-family="Helvetica,sans-Serif" font-size="10.00">odp/api/deprecated.h</text>
</a>
</g>
</g>
<!-- Node4&#45;&gt;Node6 -->
<g id="edge5" class="edge">
<title>Node4&#45;&gt;Node6</title>
<path fill="none" stroke="midnightblue" d="M305,-671.4C305,-663.47 305,-653.46 305,-644.86"/>
<polygon fill="midnightblue" stroke="midnightblue" points="308.5,-644.66 305,-634.66 301.5,-644.66 308.5,-644.66"/>
</g>
<!-- Node8 -->
<g id="node8" class="node">
<title>Node8</title>
<g id="a_node8"><a xlink:title=" ">
<polygon fill="white" stroke="#bfbfbf" points="1079,-0.5 1079,-19.5 1191,-19.5 1191,-0.5 1079,-0.5"/>
<text text-anchor="middle" x="1135" y="-7.5" font-family="Helvetica,sans-Serif" font-size="10.00">odp/visibility_end.h</text>
</a>
</g>
</g>
<!-- Node4&#45;&gt;Node8 -->
<g id="edge55" class="edge">
<title>Node4&#45;&gt;Node8</title>
<path fill="none" stroke="midnightblue" d="M361.76,-684.93C579.2,-681.99 1347,-664.55 1347,-564.5 1347,-564.5 1347,-564.5 1347,-132 1347,-63.96 1263.61,-33.67 1201.42,-20.54"/>
<polygon fill="midnightblue" stroke="midnightblue" points="1201.75,-17.04 1191.26,-18.51 1200.37,-23.9 1201.75,-17.04"/>
</g>
<!-- Node9 -->
<g id="node9" class="node">
<title>Node9</title>
<g id="a_node9"><a xlink:href="proto__stats__types_8h.html" target="_top" xlink:title="ODP proto stats types.">
<polygon fill="white" stroke="black" points="162,-358.5 162,-388.5 272,-388.5 272,-358.5 162,-358.5"/>
<text text-anchor="start" x="170" y="-376.5" font-family="Helvetica,sans-Serif" font-size="10.00">odp/api/proto_stats</text>
<text text-anchor="middle" x="217" y="-365.5" font-family="Helvetica,sans-Serif" font-size="10.00">_types.h</text>
</a>
</g>
</g>
<!-- Node4&#45;&gt;Node9 -->
<g id="edge9" class="edge">
<title>Node4&#45;&gt;Node9</title>
<path fill="none" stroke="midnightblue" d="M277.53,-671.38C263.19,-662.7 246.49,-650.3 236,-635 217.65,-608.24 217,-596.95 217,-564.5 217,-564.5 217,-564.5 217,-501 217,-465.42 217,-424.2 217,-398.74"/>
<polygon fill="midnightblue" stroke="midnightblue" points="220.5,-398.54 217,-388.54 213.5,-398.54 220.5,-398.54"/>
</g>
<!-- Node19 -->
<g id="node19" class="node">
<title>Node19</title>
<g id="a_node19"><a xlink:href="queue__types_8h.html" target="_top" xlink:title="ODP queue.">
<polygon fill="white" stroke="black" points="665.5,-615.5 665.5,-634.5 792.5,-634.5 792.5,-615.5 665.5,-615.5"/>
<text text-anchor="middle" x="729" y="-622.5" font-family="Helvetica,sans-Serif" font-size="10.00">odp/api/queue_types.h</text>
</a>
</g>
</g>
<!-- Node4&#45;&gt;Node19 -->
<g id="edge25" class="edge">
<title>Node4&#45;&gt;Node19</title>
<path fill="none" stroke="midnightblue" d="M361.74,-677.54C438.32,-666.79 574.72,-647.65 658,-635.96"/>
<polygon fill="midnightblue" stroke="midnightblue" points="658.72,-639.4 668.14,-634.54 657.75,-632.46 658.72,-639.4"/>
</g>
<!-- Node7 -->
<g id="node7" class="node">
<title>Node7</title>
<g id="a_node7"><a xlink:href="spec_2deprecated_8h.html" target="_top" xlink:title="Macro for deprecated API definitions.">
<polygon fill="white" stroke="black" points="205.5,-62 205.5,-81 350.5,-81 350.5,-62 205.5,-62"/>
<text text-anchor="middle" x="278" y="-69" font-family="Helvetica,sans-Serif" font-size="10.00">odp/api/spec/deprecated.h</text>
</a>
</g>
</g>
<!-- Node6&#45;&gt;Node7 -->
<g id="edge6" class="edge">
<title>Node6&#45;&gt;Node7</title>
<path fill="none" stroke="midnightblue" d="M304.76,-615.49C304.23,-595.74 303,-545.23 303,-503 303,-503 303,-503 303,-372.5 303,-265.79 287.1,-138.48 280.66,-91.29"/>
<polygon fill="midnightblue" stroke="midnightblue" points="284.12,-90.74 279.27,-81.31 277.18,-91.7 284.12,-90.74"/>
</g>
<!-- Node7&#45;&gt;Node5 -->
<g id="edge7" class="edge">
<title>Node7&#45;&gt;Node5</title>
<path fill="none" stroke="midnightblue" d="M295.19,-61.98C315.24,-52.03 348.6,-35.49 371.86,-23.96"/>
<polygon fill="midnightblue" stroke="midnightblue" points="373.43,-27.09 380.84,-19.51 370.32,-20.82 373.43,-27.09"/>
</g>
<!-- Node7&#45;&gt;Node8 -->
<g id="edge8" class="edge">
<title>Node7&#45;&gt;Node8</title>
<path fill="none" stroke="midnightblue" d="M350.7,-65.45C514.62,-54.07 911.02,-26.55 1068.7,-15.6"/>
<polygon fill="midnightblue" stroke="midnightblue" points="1069,-19.09 1078.73,-14.91 1068.51,-12.11 1069,-19.09"/>
</g>
<!-- Node10 -->
<g id="node10" class="node">
<title>Node10</title>
<g id="a_node10"><a xlink:title=" ">
<polygon fill="white" stroke="#bfbfbf" points="147,-291.5 147,-321.5 275,-321.5 275,-291.5 147,-291.5"/>
<text text-anchor="start" x="155" y="-309.5" font-family="Helvetica,sans-Serif" font-size="10.00">odp/api/abi/proto_stats</text>
<text text-anchor="middle" x="211" y="-298.5" font-family="Helvetica,sans-Serif" font-size="10.00">_types.h</text>
</a>
</g>
</g>
<!-- Node9&#45;&gt;Node10 -->
<g id="edge10" class="edge">
<title>Node9&#45;&gt;Node10</title>
<path fill="none" stroke="midnightblue" d="M215.7,-358.4C214.97,-350.56 214.05,-340.6 213.22,-331.57"/>
<polygon fill="midnightblue" stroke="midnightblue" points="216.7,-331.21 212.3,-321.58 209.73,-331.86 216.7,-331.21"/>
</g>
<!-- Node11 -->
<g id="node11" class="node">
<title>Node11</title>
<g id="a_node11"><a xlink:href="spec_2proto__stats__types_8h.html" target="_top" xlink:title="ODP proto stats types.">
<polygon fill="white" stroke="black" points="369.5,-291.5 369.5,-321.5 476.5,-321.5 476.5,-291.5 369.5,-291.5"/>
<text text-anchor="start" x="377.5" y="-309.5" font-family="Helvetica,sans-Serif" font-size="10.00">odp/api/spec/proto</text>
<text text-anchor="middle" x="423" y="-298.5" font-family="Helvetica,sans-Serif" font-size="10.00">_stats_types.h</text>
</a>
</g>
</g>
<!-- Node9&#45;&gt;Node11 -->
<g id="edge11" class="edge">
<title>Node9&#45;&gt;Node11</title>
<path fill="none" stroke="midnightblue" d="M261.45,-358.48C292.88,-348.56 335.21,-335.2 368.65,-324.65"/>
<polygon fill="midnightblue" stroke="midnightblue" points="369.8,-327.96 378.28,-321.61 367.69,-321.28 369.8,-327.96"/>
</g>
<!-- Node11&#45;&gt;Node5 -->
<g id="edge12" class="edge">
<title>Node11&#45;&gt;Node5</title>
<path fill="none" stroke="midnightblue" d="M398.35,-291.38C348.74,-261.33 237.97,-185.66 196,-87 172.18,-31 259.89,-15.47 327.2,-11.59"/>
<polygon fill="midnightblue" stroke="midnightblue" points="327.57,-15.08 337.38,-11.08 327.22,-8.09 327.57,-15.08"/>
</g>
<!-- Node11&#45;&gt;Node8 -->
<g id="edge24" class="edge">
<title>Node11&#45;&gt;Node8</title>
<path fill="none" stroke="midnightblue" d="M451.06,-291.3C515.54,-258.97 679.68,-178.41 822,-123 870.33,-104.18 887.3,-111.53 933,-87 952.51,-76.53 952.26,-66.04 972,-56 1003.99,-39.73 1042.61,-28.73 1074.22,-21.69"/>
<polygon fill="midnightblue" stroke="midnightblue" points="1075.18,-25.06 1084.22,-19.54 1073.71,-18.22 1075.18,-25.06"/>
</g>
<!-- Node12 -->
<g id="node12" class="node">
<title>Node12</title>
<g id="a_node12"><a xlink:href="std__types_8h.html" target="_top" xlink:title="Standard C language types and definitions for ODP.">
<polygon fill="white" stroke="black" points="844,-235.5 844,-254.5 956,-254.5 956,-235.5 844,-235.5"/>
<text text-anchor="middle" x="900" y="-242.5" font-family="Helvetica,sans-Serif" font-size="10.00">odp/api/std_types.h</text>
</a>
</g>
</g>
<!-- Node11&#45;&gt;Node12 -->
<g id="edge13" class="edge">
<title>Node11&#45;&gt;Node12</title>
<path fill="none" stroke="midnightblue" d="M476.53,-292.73C479.73,-292.11 482.9,-291.52 486,-291 607.86,-270.43 751.57,-257.26 833.62,-250.79"/>
<polygon fill="midnightblue" stroke="midnightblue" points="834.1,-254.26 843.8,-249.99 833.56,-247.28 834.1,-254.26"/>
</g>
<!-- Node13 -->
<g id="node13" class="node">
<title>Node13</title>
<g id="a_node13"><a xlink:title=" ">
<polygon fill="white" stroke="#bfbfbf" points="971,-179.5 971,-198.5 1101,-198.5 1101,-179.5 971,-179.5"/>
<text text-anchor="middle" x="1036" y="-186.5" font-family="Helvetica,sans-Serif" font-size="10.00">odp/api/abi/std_types.h</text>
</a>
</g>
</g>
<!-- Node12&#45;&gt;Node13 -->
<g id="edge14" class="edge">
<title>Node12&#45;&gt;Node13</title>
<path fill="none" stroke="midnightblue" d="M921.55,-235.44C944.03,-226.52 979.49,-212.44 1004.98,-202.32"/>
<polygon fill="midnightblue" stroke="midnightblue" points="1006.55,-205.46 1014.55,-198.52 1003.97,-198.95 1006.55,-205.46"/>
</g>
<!-- Node14 -->
<g id="node14" class="node">
<title>Node14</title>
<g id="a_node14"><a xlink:href="spec_2std__types_8h.html" target="_top" xlink:title="Common types and definitions for ODP API files.">
<polygon fill="white" stroke="black" points="815.5,-179.5 815.5,-198.5 952.5,-198.5 952.5,-179.5 815.5,-179.5"/>
<text text-anchor="middle" x="884" y="-186.5" font-family="Helvetica,sans-Serif" font-size="10.00">odp/api/spec/std_types.h</text>
</a>
</g>
</g>
<!-- Node12&#45;&gt;Node14 -->
<g id="edge15" class="edge">
<title>Node12&#45;&gt;Node14</title>
<path fill="none" stroke="midnightblue" d="M897.36,-235.08C895.21,-227.85 892.12,-217.41 889.45,-208.4"/>
<polygon fill="midnightblue" stroke="midnightblue" points="892.79,-207.34 886.59,-198.75 886.08,-209.33 892.79,-207.34"/>
</g>
<!-- Node14&#45;&gt;Node5 -->
<g id="edge16" class="edge">
<title>Node14&#45;&gt;Node5</title>
<path fill="none" stroke="midnightblue" d="M815.31,-186.48C724.11,-183.29 569.08,-173.42 522,-143 483.97,-118.43 500.73,-88.3 469,-56 456.33,-43.1 439.3,-32.15 425.09,-24.28"/>
<polygon fill="midnightblue" stroke="midnightblue" points="426.71,-21.18 416.24,-19.57 423.42,-27.36 426.71,-21.18"/>
</g>
<!-- Node14&#45;&gt;Node8 -->
<g id="edge23" class="edge">
<title>Node14&#45;&gt;Node8</title>
<path fill="none" stroke="midnightblue" d="M920.94,-179.4C967.79,-166.71 1048.32,-138.69 1097,-87 1112.6,-70.44 1123.19,-46.25 1129.15,-29.63"/>
<polygon fill="midnightblue" stroke="midnightblue" points="1132.53,-30.56 1132.41,-19.96 1125.9,-28.33 1132.53,-30.56"/>
</g>
<!-- Node15 -->
<g id="node15" class="node">
<title>Node15</title>
<g id="a_node15"><a xlink:title=" ">
<polygon fill="white" stroke="#bfbfbf" points="937.5,-123.5 937.5,-142.5 990.5,-142.5 990.5,-123.5 937.5,-123.5"/>
<text text-anchor="middle" x="964" y="-130.5" font-family="Helvetica,sans-Serif" font-size="10.00">stdint.h</text>
</a>
</g>
</g>
<!-- Node14&#45;&gt;Node15 -->
<g id="edge17" class="edge">
<title>Node14&#45;&gt;Node15</title>
<path fill="none" stroke="midnightblue" d="M896.85,-179.32C909.22,-170.98 928.13,-158.21 942.74,-148.35"/>
<polygon fill="midnightblue" stroke="midnightblue" points="944.85,-151.15 951.18,-142.65 940.93,-145.35 944.85,-151.15"/>
</g>
<!-- Node16 -->
<g id="node16" class="node">
<title>Node16</title>
<g id="a_node16"><a xlink:href="align_8h.html" target="_top" xlink:title="ODP alignments.">
<polygon fill="white" stroke="black" points="830.5,-123.5 830.5,-142.5 919.5,-142.5 919.5,-123.5 830.5,-123.5"/>
<text text-anchor="middle" x="875" y="-130.5" font-family="Helvetica,sans-Serif" font-size="10.00">odp/api/align.h</text>
</a>
</g>
</g>
<!-- Node14&#45;&gt;Node16 -->
<g id="edge18" class="edge">
<title>Node14&#45;&gt;Node16</title>
<path fill="none" stroke="midnightblue" d="M882.51,-179.08C881.32,-171.93 879.61,-161.64 878.12,-152.69"/>
<polygon fill="midnightblue" stroke="midnightblue" points="881.55,-152.04 876.46,-142.75 874.65,-153.19 881.55,-152.04"/>
</g>
<!-- Node17 -->
<g id="node17" class="node">
<title>Node17</title>
<g id="a_node17"><a xlink:title=" ">
<polygon fill="white" stroke="#bfbfbf" points="980.5,-62 980.5,-81 1087.5,-81 1087.5,-62 980.5,-62"/>
<text text-anchor="middle" x="1034" y="-69" font-family="Helvetica,sans-Serif" font-size="10.00">odp/api/abi/align.h</text>
</a>
</g>
</g>
<!-- Node16&#45;&gt;Node17 -->
<g id="edge19" class="edge">
<title>Node16&#45;&gt;Node17</title>
<path fill="none" stroke="midnightblue" d="M897.78,-123.48C925.05,-113.27 970.91,-96.11 1001.8,-84.55"/>
<polygon fill="midnightblue" stroke="midnightblue" points="1003.12,-87.79 1011.26,-81.01 1000.67,-81.24 1003.12,-87.79"/>
</g>
<!-- Node18 -->
<g id="node18" class="node">
<title>Node18</title>
<g id="a_node18"><a xlink:href="spec_2align_8h.html" target="_top" xlink:title="ODP alignments.">
<polygon fill="white" stroke="black" points="810,-62 810,-81 924,-81 924,-62 810,-62"/>
<text text-anchor="middle" x="867" y="-69" font-family="Helvetica,sans-Serif" font-size="10.00">odp/api/spec/align.h</text>
</a>
</g>
</g>
<!-- Node16&#45;&gt;Node18 -->
<g id="edge20" class="edge">
<title>Node16&#45;&gt;Node18</title>
<path fill="none" stroke="midnightblue" d="M873.85,-123.48C872.73,-115.08 870.96,-101.98 869.51,-91.16"/>
<polygon fill="midnightblue" stroke="midnightblue" points="872.95,-90.45 868.14,-81.01 866.01,-91.39 872.95,-90.45"/>
</g>
<!-- Node18&#45;&gt;Node5 -->
<g id="edge21" class="edge">
<title>Node18&#45;&gt;Node5</title>
<path fill="none" stroke="midnightblue" d="M831.51,-61.99C821.67,-59.82 810.95,-57.64 801,-56 685.27,-36.88 549.46,-23.59 468.74,-16.63"/>
<polygon fill="midnightblue" stroke="midnightblue" points="468.96,-13.14 458.7,-15.78 468.36,-20.11 468.96,-13.14"/>
</g>
<!-- Node18&#45;&gt;Node8 -->
<g id="edge22" class="edge">
<title>Node18&#45;&gt;Node8</title>
<path fill="none" stroke="midnightblue" d="M905.4,-61.98C953.16,-51.37 1034.74,-33.26 1086.7,-21.72"/>
<polygon fill="midnightblue" stroke="midnightblue" points="1087.67,-25.09 1096.67,-19.51 1086.15,-18.26 1087.67,-25.09"/>
</g>
<!-- Node20 -->
<g id="node20" class="node">
<title>Node20</title>
<g id="a_node20"><a xlink:title=" ">
<polygon fill="white" stroke="#bfbfbf" points="802.5,-554 802.5,-573 947.5,-573 947.5,-554 802.5,-554"/>
<text text-anchor="middle" x="875" y="-561" font-family="Helvetica,sans-Serif" font-size="10.00">odp/api/abi/queue_types.h</text>
</a>
</g>
</g>
<!-- Node19&#45;&gt;Node20 -->
<g id="edge26" class="edge">
<title>Node19&#45;&gt;Node20</title>
<path fill="none" stroke="midnightblue" d="M749.92,-615.48C774.75,-605.36 816.34,-588.4 844.69,-576.85"/>
<polygon fill="midnightblue" stroke="midnightblue" points="846.18,-580.02 854.12,-573.01 843.54,-573.54 846.18,-580.02"/>
</g>
<!-- Node21 -->
<g id="node21" class="node">
<title>Node21</title>
<g id="a_node21"><a xlink:href="spec_2queue__types_8h.html" target="_top" xlink:title="ODP queue types.">
<polygon fill="white" stroke="black" points="673.5,-548.5 673.5,-578.5 784.5,-578.5 784.5,-548.5 673.5,-548.5"/>
<text text-anchor="start" x="681.5" y="-566.5" font-family="Helvetica,sans-Serif" font-size="10.00">odp/api/spec/queue</text>
<text text-anchor="middle" x="729" y="-555.5" font-family="Helvetica,sans-Serif" font-size="10.00">_types.h</text>
</a>
</g>
</g>
<!-- Node19&#45;&gt;Node21 -->
<g id="edge27" class="edge">
<title>Node19&#45;&gt;Node21</title>
<path fill="none" stroke="midnightblue" d="M729,-615.48C729,-608.47 729,-598.19 729,-588.7"/>
<polygon fill="midnightblue" stroke="midnightblue" points="732.5,-588.52 729,-578.52 725.5,-588.52 732.5,-588.52"/>
</g>
<!-- Node21&#45;&gt;Node5 -->
<g id="edge28" class="edge">
<title>Node21&#45;&gt;Node5</title>
<path fill="none" stroke="midnightblue" d="M673.25,-563.17C522.66,-563.51 119,-553.92 119,-441.5 119,-441.5 119,-441.5 119,-132 119,-41.28 244.7,-17.83 327.36,-12.22"/>
<polygon fill="midnightblue" stroke="midnightblue" points="327.69,-15.7 337.46,-11.61 327.27,-8.72 327.69,-15.7"/>
</g>
<!-- Node21&#45;&gt;Node8 -->
<g id="edge54" class="edge">
<title>Node21&#45;&gt;Node8</title>
<path fill="none" stroke="midnightblue" d="M784.64,-549.97C787.81,-549.29 790.94,-548.63 794,-548 908.45,-524.34 1309,-558.37 1309,-441.5 1309,-441.5 1309,-441.5 1309,-132 1309,-70.47 1234.76,-37.7 1183.26,-22.36"/>
<polygon fill="midnightblue" stroke="midnightblue" points="1184.19,-18.99 1173.62,-19.61 1182.27,-25.72 1184.19,-18.99"/>
</g>
<!-- Node22 -->
<g id="node22" class="node">
<title>Node22</title>
<g id="a_node22"><a xlink:href="event__vector__types_8h.html" target="_top" xlink:title="ODP event vector API type definitions.">
<polygon fill="white" stroke="black" points="669.5,-358.5 669.5,-388.5 788.5,-388.5 788.5,-358.5 669.5,-358.5"/>
<text text-anchor="start" x="677.5" y="-376.5" font-family="Helvetica,sans-Serif" font-size="10.00">odp/api/event_vector</text>
<text text-anchor="middle" x="729" y="-365.5" font-family="Helvetica,sans-Serif" font-size="10.00">_types.h</text>
</a>
</g>
</g>
<!-- Node21&#45;&gt;Node22 -->
<g id="edge29" class="edge">
<title>Node21&#45;&gt;Node22</title>
<path fill="none" stroke="midnightblue" d="M729,-548.37C729,-516.44 729,-438.44 729,-398.67"/>
<polygon fill="midnightblue" stroke="midnightblue" points="732.5,-398.54 729,-388.54 725.5,-398.54 732.5,-398.54"/>
</g>
<!-- Node29 -->
<g id="node29" class="node">
<title>Node29</title>
<g id="a_node29"><a xlink:href="schedule__types_8h.html" target="_top" xlink:title="ODP schedule.">
<polygon fill="white" stroke="black" points="834,-492.5 834,-511.5 974,-511.5 974,-492.5 834,-492.5"/>
<text text-anchor="middle" x="904" y="-499.5" font-family="Helvetica,sans-Serif" font-size="10.00">odp/api/schedule_types.h</text>
</a>
</g>
</g>
<!-- Node21&#45;&gt;Node29 -->
<g id="edge41" class="edge">
<title>Node21&#45;&gt;Node29</title>
<path fill="none" stroke="midnightblue" d="M770.47,-548.4C800.58,-538.16 840.85,-524.47 869.27,-514.81"/>
<polygon fill="midnightblue" stroke="midnightblue" points="870.45,-518.1 878.79,-511.57 868.2,-511.48 870.45,-518.1"/>
</g>
<!-- Node23 -->
<g id="node23" class="node">
<title>Node23</title>
<g id="a_node23"><a xlink:title=" ">
<polygon fill="white" stroke="#bfbfbf" points="776.5,-291.5 776.5,-321.5 913.5,-321.5 913.5,-291.5 776.5,-291.5"/>
<text text-anchor="start" x="784.5" y="-309.5" font-family="Helvetica,sans-Serif" font-size="10.00">odp/api/abi/event_vector</text>
<text text-anchor="middle" x="845" y="-298.5" font-family="Helvetica,sans-Serif" font-size="10.00">_types.h</text>
</a>
</g>
</g>
<!-- Node22&#45;&gt;Node23 -->
<g id="edge30" class="edge">
<title>Node22&#45;&gt;Node23</title>
<path fill="none" stroke="midnightblue" d="M754.17,-358.4C770.74,-349.11 792.64,-336.84 810.78,-326.67"/>
<polygon fill="midnightblue" stroke="midnightblue" points="812.87,-329.52 819.88,-321.58 809.44,-323.41 812.87,-329.52"/>
</g>
<!-- Node24 -->
<g id="node24" class="node">
<title>Node24</title>
<g id="a_node24"><a xlink:title=" ">
<polygon fill="white" stroke="#bfbfbf" points="622,-297 622,-316 758,-316 758,-297 622,-297"/>
<text text-anchor="middle" x="690" y="-304" font-family="Helvetica,sans-Serif" font-size="10.00">odp/api/abi/pool_types.h</text>
</a>
</g>
</g>
<!-- Node22&#45;&gt;Node24 -->
<g id="edge31" class="edge">
<title>Node22&#45;&gt;Node24</title>
<path fill="none" stroke="midnightblue" d="M720.54,-358.4C714.64,-348.56 706.73,-335.38 700.44,-324.89"/>
<polygon fill="midnightblue" stroke="midnightblue" points="703.36,-322.97 695.22,-316.19 697.36,-326.57 703.36,-322.97"/>
</g>
<!-- Node25 -->
<g id="node25" class="node">
<title>Node25</title>
<g id="a_node25"><a xlink:href="spec_2event__vector__types_8h.html" target="_top" xlink:title="ODP event vector API type definitions.">
<polygon fill="white" stroke="black" points="494.5,-291.5 494.5,-321.5 603.5,-321.5 603.5,-291.5 494.5,-291.5"/>
<text text-anchor="start" x="502.5" y="-309.5" font-family="Helvetica,sans-Serif" font-size="10.00">odp/api/spec/event</text>
<text text-anchor="middle" x="549" y="-298.5" font-family="Helvetica,sans-Serif" font-size="10.00">_vector_types.h</text>
</a>
</g>
</g>
<!-- Node22&#45;&gt;Node25 -->
<g id="edge32" class="edge">
<title>Node22&#45;&gt;Node25</title>
<path fill="none" stroke="midnightblue" d="M689.94,-358.4C662.82,-348.6 626.49,-335.48 597.5,-325.02"/>
<polygon fill="midnightblue" stroke="midnightblue" points="598.58,-321.68 587.98,-321.58 596.2,-328.26 598.58,-321.68"/>
</g>
<!-- Node25&#45;&gt;Node5 -->
<g id="edge33" class="edge">
<title>Node25&#45;&gt;Node5</title>
<path fill="none" stroke="midnightblue" d="M537.44,-291.09C515.92,-263.68 469.33,-201.54 441,-143 422.34,-104.45 408.87,-55.81 402.37,-29.67"/>
<polygon fill="midnightblue" stroke="midnightblue" points="405.7,-28.55 399.95,-19.65 398.9,-30.19 405.7,-28.55"/>
</g>
<!-- Node25&#45;&gt;Node8 -->
<g id="edge40" class="edge">
<title>Node25&#45;&gt;Node8</title>
<path fill="none" stroke="midnightblue" d="M603.73,-292.64C606.86,-292.05 609.96,-291.5 613,-291 723.84,-272.84 1040.5,-287.23 1110,-199 1149.53,-148.82 1143.5,-66.73 1138.27,-29.91"/>
<polygon fill="midnightblue" stroke="midnightblue" points="1141.66,-28.98 1136.65,-19.64 1134.75,-30.07 1141.66,-28.98"/>
</g>
<!-- Node25&#45;&gt;Node12 -->
<g id="edge39" class="edge">
<title>Node25&#45;&gt;Node12</title>
<path fill="none" stroke="midnightblue" d="M603.76,-292.84C606.88,-292.2 609.98,-291.58 613,-291 688.35,-276.57 775.49,-263.4 833.8,-255.09"/>
<polygon fill="midnightblue" stroke="midnightblue" points="834.57,-258.52 843.98,-253.65 833.59,-251.58 834.57,-258.52"/>
</g>
<!-- Node26 -->
<g id="node26" class="node">
<title>Node26</title>
<g id="a_node26"><a xlink:href="event__types_8h.html" target="_top" xlink:title="ODP event API type definitions.">
<polygon fill="white" stroke="black" points="530.5,-123.5 530.5,-142.5 655.5,-142.5 655.5,-123.5 530.5,-123.5"/>
<text text-anchor="middle" x="593" y="-130.5" font-family="Helvetica,sans-Serif" font-size="10.00">odp/api/event_types.h</text>
</a>
</g>
</g>
<!-- Node25&#45;&gt;Node26 -->
<g id="edge34" class="edge">
<title>Node25&#45;&gt;Node26</title>
<path fill="none" stroke="midnightblue" d="M552.6,-291.47C560.53,-260.57 579.48,-186.69 588.32,-152.25"/>
<polygon fill="midnightblue" stroke="midnightblue" points="591.71,-153.12 590.8,-142.56 584.93,-151.38 591.71,-153.12"/>
</g>
<!-- Node27 -->
<g id="node27" class="node">
<title>Node27</title>
<g id="a_node27"><a xlink:title=" ">
<polygon fill="white" stroke="#bfbfbf" points="521.5,-62 521.5,-81 664.5,-81 664.5,-62 521.5,-62"/>
<text text-anchor="middle" x="593" y="-69" font-family="Helvetica,sans-Serif" font-size="10.00">odp/api/abi/event_types.h</text>
</a>
</g>
</g>
<!-- Node26&#45;&gt;Node27 -->
<g id="edge35" class="edge">
<title>Node26&#45;&gt;Node27</title>
<path fill="none" stroke="midnightblue" d="M593,-123.48C593,-115.08 593,-101.98 593,-91.16"/>
<polygon fill="midnightblue" stroke="midnightblue" points="596.5,-91.01 593,-81.01 589.5,-91.01 596.5,-91.01"/>
</g>
<!-- Node28 -->
<g id="node28" class="node">
<title>Node28</title>
<g id="a_node28"><a xlink:href="spec_2event__types_8h.html" target="_top" xlink:title="ODP event API type definitions.">
<polygon fill="white" stroke="black" points="682.5,-56.5 682.5,-86.5 791.5,-86.5 791.5,-56.5 682.5,-56.5"/>
<text text-anchor="start" x="690.5" y="-74.5" font-family="Helvetica,sans-Serif" font-size="10.00">odp/api/spec/event</text>
<text text-anchor="middle" x="737" y="-63.5" font-family="Helvetica,sans-Serif" font-size="10.00">_types.h</text>
</a>
</g>
</g>
<!-- Node26&#45;&gt;Node28 -->
<g id="edge36" class="edge">
<title>Node26&#45;&gt;Node28</title>
<path fill="none" stroke="midnightblue" d="M613.63,-123.48C634.41,-114.89 667.1,-101.38 693.61,-90.43"/>
<polygon fill="midnightblue" stroke="midnightblue" points="695.16,-93.58 703.06,-86.52 692.48,-87.11 695.16,-93.58"/>
</g>
<!-- Node28&#45;&gt;Node5 -->
<g id="edge37" class="edge">
<title>Node28&#45;&gt;Node5</title>
<path fill="none" stroke="midnightblue" d="M682.41,-57.71C679.57,-57.11 676.75,-56.54 674,-56 603.92,-42.24 523.26,-29.43 467.3,-21.03"/>
<polygon fill="midnightblue" stroke="midnightblue" points="467.56,-17.53 457.15,-19.51 466.52,-24.45 467.56,-17.53"/>
</g>
<!-- Node28&#45;&gt;Node8 -->
<g id="edge38" class="edge">
<title>Node28&#45;&gt;Node8</title>
<path fill="none" stroke="midnightblue" d="M791.75,-57.76C794.87,-57.14 797.97,-56.55 801,-56 893.42,-39.34 1001.25,-25.88 1068.83,-18.16"/>
<polygon fill="midnightblue" stroke="midnightblue" points="1069.37,-21.62 1078.92,-17.01 1068.59,-14.66 1069.37,-21.62"/>
</g>
<!-- Node30 -->
<g id="node30" class="node">
<title>Node30</title>
<g id="a_node30"><a xlink:title=" ">
<polygon fill="white" stroke="#bfbfbf" points="984.5,-425.5 984.5,-455.5 1101.5,-455.5 1101.5,-425.5 984.5,-425.5"/>
<text text-anchor="start" x="992.5" y="-443.5" font-family="Helvetica,sans-Serif" font-size="10.00">odp/api/abi/schedule</text>
<text text-anchor="middle" x="1043" y="-432.5" font-family="Helvetica,sans-Serif" font-size="10.00">_types.h</text>
</a>
</g>
</g>
<!-- Node29&#45;&gt;Node30 -->
<g id="edge42" class="edge">
<title>Node29&#45;&gt;Node30</title>
<path fill="none" stroke="midnightblue" d="M923.92,-492.48C943.88,-483.93 975.25,-470.5 1000.78,-459.57"/>
<polygon fill="midnightblue" stroke="midnightblue" points="1002.42,-462.68 1010.24,-455.52 999.67,-456.24 1002.42,-462.68"/>
</g>
<!-- Node31 -->
<g id="node31" class="node">
<title>Node31</title>
<g id="a_node31"><a xlink:href="spec_2schedule__types_8h.html" target="_top" xlink:title="ODP schedule types.">
<polygon fill="white" stroke="black" points="841.5,-425.5 841.5,-455.5 966.5,-455.5 966.5,-425.5 841.5,-425.5"/>
<text text-anchor="start" x="849.5" y="-443.5" font-family="Helvetica,sans-Serif" font-size="10.00">odp/api/spec/schedule</text>
<text text-anchor="middle" x="904" y="-432.5" font-family="Helvetica,sans-Serif" font-size="10.00">_types.h</text>
</a>
</g>
</g>
<!-- Node29&#45;&gt;Node31 -->
<g id="edge43" class="edge">
<title>Node29&#45;&gt;Node31</title>
<path fill="none" stroke="midnightblue" d="M904,-492.48C904,-485.47 904,-475.19 904,-465.7"/>
<polygon fill="midnightblue" stroke="midnightblue" points="907.5,-465.52 904,-455.52 900.5,-465.52 907.5,-465.52"/>
</g>
<!-- Node31&#45;&gt;Node5 -->
<g id="edge44" class="edge">
<title>Node31&#45;&gt;Node5</title>
<path fill="none" stroke="midnightblue" d="M841.22,-435.54C711.41,-425.9 420.56,-396.33 361,-322 289.44,-232.69 360.55,-80.02 388.11,-28.54"/>
<polygon fill="midnightblue" stroke="midnightblue" points="391.25,-30.09 392.99,-19.64 385.12,-26.73 391.25,-30.09"/>
</g>
<!-- Node31&#45;&gt;Node8 -->
<g id="edge53" class="edge">
<title>Node31&#45;&gt;Node8</title>
<path fill="none" stroke="midnightblue" d="M966.67,-426.55C1038.98,-409.81 1159.77,-376.18 1252,-322 1261.16,-316.62 1271,-318.12 1271,-307.5 1271,-307.5 1271,-307.5 1271,-132 1271,-77.11 1208.4,-41.01 1168.14,-23.46"/>
<polygon fill="midnightblue" stroke="midnightblue" points="1169.27,-20.14 1158.69,-19.5 1166.56,-26.59 1169.27,-20.14"/>
</g>
<!-- Node31&#45;&gt;Node12 -->
<g id="edge46" class="edge">
<title>Node31&#45;&gt;Node12</title>
<path fill="none" stroke="midnightblue" d="M909.16,-425.39C918.15,-398.79 934.68,-339.52 923,-291 920.69,-281.42 915.98,-271.58 911.42,-263.56"/>
<polygon fill="midnightblue" stroke="midnightblue" points="914.29,-261.54 906.1,-254.81 908.31,-265.17 914.29,-261.54"/>
</g>
<!-- Node31&#45;&gt;Node22 -->
<g id="edge45" class="edge">
<title>Node31&#45;&gt;Node22</title>
<path fill="none" stroke="midnightblue" d="M866.03,-425.4C839.77,-415.64 804.64,-402.59 776.52,-392.15"/>
<polygon fill="midnightblue" stroke="midnightblue" points="777.49,-388.78 766.9,-388.58 775.05,-395.34 777.49,-388.78"/>
</g>
<!-- Node32 -->
<g id="node32" class="node">
<title>Node32</title>
<g id="a_node32"><a xlink:href="thrmask_8h.html" target="_top" xlink:title="ODP thread masks.">
<polygon fill="white" stroke="black" points="983.5,-364 983.5,-383 1088.5,-383 1088.5,-364 983.5,-364"/>
<text text-anchor="middle" x="1036" y="-371" font-family="Helvetica,sans-Serif" font-size="10.00">odp/api/thrmask.h</text>
</a>
</g>
</g>
<!-- Node31&#45;&gt;Node32 -->
<g id="edge47" class="edge">
<title>Node31&#45;&gt;Node32</title>
<path fill="none" stroke="midnightblue" d="M932.64,-425.4C955.5,-414.14 987.26,-398.5 1009.52,-387.54"/>
<polygon fill="midnightblue" stroke="midnightblue" points="1011.3,-390.56 1018.72,-383.01 1008.21,-384.28 1011.3,-390.56"/>
</g>
<!-- Node33 -->
<g id="node33" class="node">
<title>Node33</title>
<g id="a_node33"><a xlink:title=" ">
<polygon fill="white" stroke="#bfbfbf" points="1119.5,-297 1119.5,-316 1242.5,-316 1242.5,-297 1119.5,-297"/>
<text text-anchor="middle" x="1181" y="-304" font-family="Helvetica,sans-Serif" font-size="10.00">odp/api/abi/thrmask.h</text>
</a>
</g>
</g>
<!-- Node32&#45;&gt;Node33 -->
<g id="edge48" class="edge">
<title>Node32&#45;&gt;Node33</title>
<path fill="none" stroke="midnightblue" d="M1055.25,-363.87C1080.17,-352.7 1123.79,-333.15 1152.53,-320.26"/>
<polygon fill="midnightblue" stroke="midnightblue" points="1153.97,-323.45 1161.67,-316.17 1151.11,-317.06 1153.97,-323.45"/>
</g>
<!-- Node34 -->
<g id="node34" class="node">
<title>Node34</title>
<g id="a_node34"><a xlink:href="spec_2thrmask_8h.html" target="_top" xlink:title="ODP thread masks.">
<polygon fill="white" stroke="black" points="970.5,-297 970.5,-316 1101.5,-316 1101.5,-297 970.5,-297"/>
<text text-anchor="middle" x="1036" y="-304" font-family="Helvetica,sans-Serif" font-size="10.00">odp/api/spec/thrmask.h</text>
</a>
</g>
</g>
<!-- Node32&#45;&gt;Node34 -->
<g id="edge49" class="edge">
<title>Node32&#45;&gt;Node34</title>
<path fill="none" stroke="midnightblue" d="M1036,-363.73C1036,-354.18 1036,-338.62 1036,-326.28"/>
<polygon fill="midnightblue" stroke="midnightblue" points="1039.5,-326.13 1036,-316.13 1032.5,-326.13 1039.5,-326.13"/>
</g>
<!-- Node34&#45;&gt;Node5 -->
<g id="edge50" class="edge">
<title>Node34&#45;&gt;Node5</title>
<path fill="none" stroke="midnightblue" d="M1030.09,-296.95C1019.14,-281.82 994.15,-250.48 965,-235 871.58,-185.39 587.7,-199.05 498,-143 486.08,-135.55 433.99,-62.42 410.08,-28.33"/>
<polygon fill="midnightblue" stroke="midnightblue" points="412.74,-26.02 404.14,-19.83 407,-30.04 412.74,-26.02"/>
</g>
<!-- Node34&#45;&gt;Node8 -->
<g id="edge52" class="edge">
<title>Node34&#45;&gt;Node8</title>
<path fill="none" stroke="midnightblue" d="M1069.47,-296.93C1115.3,-282.94 1192,-250.49 1192,-190 1192,-190 1192,-190 1192,-132 1192,-96.58 1184.02,-87.59 1168,-56 1162.92,-45.97 1155.66,-35.79 1149.25,-27.66"/>
<polygon fill="midnightblue" stroke="midnightblue" points="1151.8,-25.25 1142.76,-19.73 1146.39,-29.69 1151.8,-25.25"/>
</g>
<!-- Node34&#45;&gt;Node12 -->
<g id="edge51" class="edge">
<title>Node34&#45;&gt;Node12</title>
<path fill="none" stroke="midnightblue" d="M1016.51,-296.98C993.59,-286.95 955.31,-270.2 928.92,-258.65"/>
<polygon fill="midnightblue" stroke="midnightblue" points="930.01,-255.31 919.45,-254.51 927.21,-261.72 930.01,-255.31"/>
</g>
</g>
</svg>
