<?xml version="1.0" encoding="UTF-8" standalone="no"?>
<!DOCTYPE svg PUBLIC "-//W3C//DTD SVG 1.1//EN"
 "http://www.w3.org/Graphics/SVG/1.1/DTD/svg11.dtd">
<!-- Generated by graphviz version 2.43.0 (0)
 -->
<!-- Title: pool_inline_types.h Pages: 1 -->
<svg width="316pt" height="84pt"
 viewBox="0.00 0.00 316.00 84.00" xmlns="http://www.w3.org/2000/svg" xmlns:xlink="http://www.w3.org/1999/xlink">
<g id="graph0" class="graph" transform="scale(1 1) rotate(0) translate(4 80)">
<title>pool_inline_types.h</title>
<polygon fill="white" stroke="transparent" points="-4,4 -4,-80 312,-80 312,4 -4,4"/>
<!-- Node1 -->
<g id="node1" class="node">
<title>Node1</title>
<g id="a_node1"><a xlink:title="ODP packet descriptor.">
<polygon fill="#bfbfbf" stroke="black" points="102.5,-56.5 102.5,-75.5 213.5,-75.5 213.5,-56.5 102.5,-56.5"/>
<text text-anchor="middle" x="158" y="-63.5" font-family="Helvetica,sans-Serif" font-size="10.00">pool_inline_types.h</text>
</a>
</g>
</g>
<!-- Node2 -->
<g id="node2" class="node">
<title>Node2</title>
<g id="a_node2"><a xlink:href="buffer__inlines_8h_source.html" target="_top" xlink:title=" ">
<polygon fill="white" stroke="black" points="0,-0.5 0,-19.5 92,-19.5 92,-0.5 0,-0.5"/>
<text text-anchor="middle" x="46" y="-7.5" font-family="Helvetica,sans-Serif" font-size="10.00">buffer_inlines.h</text>
</a>
</g>
</g>
<!-- Node1&#45;&gt;Node2 -->
<g id="edge1" class="edge">
<title>Node1&#45;&gt;Node2</title>
<path fill="none" stroke="midnightblue" d="M130.75,-51.86C109.98,-41.85 81.98,-28.35 63.95,-19.65"/>
<polygon fill="midnightblue" stroke="midnightblue" points="129.48,-55.13 140.01,-56.32 132.52,-48.83 129.48,-55.13"/>
</g>
<!-- Node3 -->
<g id="node3" class="node">
<title>Node3</title>
<g id="a_node3"><a xlink:href="packet__inlines_8h.html" target="_top" xlink:title="Packet inline functions.">
<polygon fill="white" stroke="black" points="110.5,-0.5 110.5,-19.5 205.5,-19.5 205.5,-0.5 110.5,-0.5"/>
<text text-anchor="middle" x="158" y="-7.5" font-family="Helvetica,sans-Serif" font-size="10.00">packet_inlines.h</text>
</a>
</g>
</g>
<!-- Node1&#45;&gt;Node3 -->
<g id="edge2" class="edge">
<title>Node1&#45;&gt;Node3</title>
<path fill="none" stroke="midnightblue" d="M158,-45.8C158,-36.91 158,-26.78 158,-19.75"/>
<polygon fill="midnightblue" stroke="midnightblue" points="154.5,-46.08 158,-56.08 161.5,-46.08 154.5,-46.08"/>
</g>
<!-- Node4 -->
<g id="node4" class="node">
<title>Node4</title>
<g id="a_node4"><a xlink:href="pool__inlines_8h_source.html" target="_top" xlink:title=" ">
<polygon fill="white" stroke="black" points="224,-0.5 224,-19.5 308,-19.5 308,-0.5 224,-0.5"/>
<text text-anchor="middle" x="266" y="-7.5" font-family="Helvetica,sans-Serif" font-size="10.00">pool_inlines.h</text>
</a>
</g>
</g>
<!-- Node1&#45;&gt;Node4 -->
<g id="edge3" class="edge">
<title>Node1&#45;&gt;Node4</title>
<path fill="none" stroke="midnightblue" d="M184.55,-51.73C204.55,-41.73 231.39,-28.31 248.69,-19.65"/>
<polygon fill="midnightblue" stroke="midnightblue" points="182.73,-48.72 175.35,-56.32 185.86,-54.98 182.73,-48.72"/>
</g>
</g>
</svg>
