<?xml version="1.0" encoding="UTF-8" standalone="no"?>
<!DOCTYPE svg PUBLIC "-//W3C//DTD SVG 1.1//EN"
 "http://www.w3.org/Graphics/SVG/1.1/DTD/svg11.dtd">
<!-- Generated by graphviz version 2.43.0 (0)
 -->
<!-- Title: pool_types.h Pages: 1 -->
<svg width="1421pt" height="476pt"
 viewBox="0.00 0.00 1420.50 476.00" xmlns="http://www.w3.org/2000/svg" xmlns:xlink="http://www.w3.org/1999/xlink">
<g id="graph0" class="graph" transform="scale(1 1) rotate(0) translate(4 472)">
<title>pool_types.h</title>
<polygon fill="white" stroke="transparent" points="-4,4 -4,-472 1416.5,-472 1416.5,4 -4,4"/>
<!-- Node1 -->
<g id="node1" class="node">
<title>Node1</title>
<g id="a_node1"><a xlink:title="ODP pool.">
<polygon fill="#bfbfbf" stroke="black" points="694,-448.5 694,-467.5 773,-467.5 773,-448.5 694,-448.5"/>
<text text-anchor="middle" x="733.5" y="-455.5" font-family="Helvetica,sans-Serif" font-size="10.00">pool_types.h</text>
</a>
</g>
</g>
<!-- Node2 -->
<g id="node2" class="node">
<title>Node2</title>
<g id="a_node2"><a xlink:href="spec_2buffer_8h.html" target="_top" xlink:title="ODP buffer.">
<polygon fill="white" stroke="black" points="89,-392.5 89,-411.5 142,-411.5 142,-392.5 89,-392.5"/>
<text text-anchor="middle" x="115.5" y="-399.5" font-family="Helvetica,sans-Serif" font-size="10.00">buffer.h</text>
</a>
</g>
</g>
<!-- Node1&#45;&gt;Node2 -->
<g id="edge1" class="edge">
<title>Node1&#45;&gt;Node2</title>
<path fill="none" stroke="midnightblue" d="M683.72,-455.34C583.6,-451.52 350.91,-440.15 157.5,-412 152.48,-411.27 147.17,-410.29 142.07,-409.25"/>
<polygon fill="midnightblue" stroke="midnightblue" points="683.72,-458.84 693.84,-455.72 683.98,-451.85 683.72,-458.84"/>
</g>
<!-- Node4 -->
<g id="node4" class="node">
<title>Node4</title>
<g id="a_node4"><a xlink:href="dma__inlines_8h_source.html" target="_top" xlink:title=" ">
<polygon fill="white" stroke="black" points="0,-280.5 0,-299.5 85,-299.5 85,-280.5 0,-280.5"/>
<text text-anchor="middle" x="42.5" y="-287.5" font-family="Helvetica,sans-Serif" font-size="10.00">dma_inlines.h</text>
</a>
</g>
</g>
<!-- Node1&#45;&gt;Node4 -->
<g id="edge59" class="edge">
<title>Node1&#45;&gt;Node4</title>
<path fill="none" stroke="midnightblue" d="M683.27,-456.77C538.28,-455.67 126.39,-449.25 79.5,-412 44.07,-383.85 41.7,-322.65 42.13,-299.82"/>
<polygon fill="midnightblue" stroke="midnightblue" points="683.62,-460.27 693.65,-456.84 683.67,-453.27 683.62,-460.27"/>
</g>
<!-- Node5 -->
<g id="node5" class="node">
<title>Node5</title>
<g id="a_node5"><a xlink:href="spec_2classification_8h.html" target="_top" xlink:title="ODP classification descriptor.">
<polygon fill="white" stroke="black" points="444,-280.5 444,-299.5 533,-299.5 533,-280.5 444,-280.5"/>
<text text-anchor="middle" x="488.5" y="-287.5" font-family="Helvetica,sans-Serif" font-size="10.00">classification.h</text>
</a>
</g>
</g>
<!-- Node1&#45;&gt;Node5 -->
<g id="edge4" class="edge">
<title>Node1&#45;&gt;Node5</title>
<path fill="none" stroke="midnightblue" d="M683.89,-453.3C625.98,-447.93 535.1,-435.88 511.5,-412 480.69,-380.82 484.48,-321.98 487.21,-299.78"/>
<polygon fill="midnightblue" stroke="midnightblue" points="683.67,-456.79 693.94,-454.2 684.29,-449.82 683.67,-456.79"/>
</g>
<!-- Node14 -->
<g id="node14" class="node">
<title>Node14</title>
<g id="a_node14"><a xlink:href="spec_2crypto__types_8h.html" target="_top" xlink:title="ODP crypto types.">
<polygon fill="white" stroke="black" points="366,-336.5 366,-355.5 455,-355.5 455,-336.5 366,-336.5"/>
<text text-anchor="middle" x="410.5" y="-343.5" font-family="Helvetica,sans-Serif" font-size="10.00">crypto_types.h</text>
</a>
</g>
</g>
<!-- Node1&#45;&gt;Node14 -->
<g id="edge13" class="edge">
<title>Node1&#45;&gt;Node14</title>
<path fill="none" stroke="midnightblue" d="M683.71,-457.83C628.4,-456.7 538,-448.65 470.5,-412 445.4,-398.37 425.1,-370.23 415.87,-355.86"/>
<polygon fill="midnightblue" stroke="midnightblue" points="683.9,-461.33 693.95,-457.96 684,-454.33 683.9,-461.33"/>
</g>
<!-- Node19 -->
<g id="node19" class="node">
<title>Node19</title>
<g id="a_node19"><a xlink:href="spec_2dma_8h.html" target="_top" xlink:title="ODP DMA.">
<polygon fill="white" stroke="black" points="103,-280.5 103,-299.5 150,-299.5 150,-280.5 103,-280.5"/>
<text text-anchor="middle" x="126.5" y="-287.5" font-family="Helvetica,sans-Serif" font-size="10.00">dma.h</text>
</a>
</g>
</g>
<!-- Node1&#45;&gt;Node19 -->
<g id="edge20" class="edge">
<title>Node1&#45;&gt;Node19</title>
<path fill="none" stroke="midnightblue" d="M683.38,-456.05C615.61,-453.51 491.7,-444.38 391.5,-412 323.76,-390.11 315.47,-365.11 250.5,-336 216.43,-320.74 175.48,-306.67 150.22,-298.46"/>
<polygon fill="midnightblue" stroke="midnightblue" points="683.65,-459.56 693.76,-456.41 683.89,-452.57 683.65,-459.56"/>
</g>
<!-- Node21 -->
<g id="node21" class="node">
<title>Node21</title>
<g id="a_node21"><a xlink:href="spec_2dma__types_8h.html" target="_top" xlink:title="ODP DMA.">
<polygon fill="white" stroke="black" points="166.5,-392.5 166.5,-411.5 246.5,-411.5 246.5,-392.5 166.5,-392.5"/>
<text text-anchor="middle" x="206.5" y="-399.5" font-family="Helvetica,sans-Serif" font-size="10.00">dma_types.h</text>
</a>
</g>
</g>
<!-- Node1&#45;&gt;Node21 -->
<g id="edge22" class="edge">
<title>Node1&#45;&gt;Node21</title>
<path fill="none" stroke="midnightblue" d="M683.78,-452.82C599.06,-445.55 421.32,-429.66 271.5,-412 263.47,-411.05 254.89,-409.94 246.69,-408.82"/>
<polygon fill="midnightblue" stroke="midnightblue" points="683.63,-456.32 693.89,-453.69 684.22,-449.35 683.63,-456.32"/>
</g>
<!-- Node24 -->
<g id="node24" class="node">
<title>Node24</title>
<g id="a_node24"><a xlink:href="spec_2event_8h.html" target="_top" xlink:title="ODP event.">
<polygon fill="white" stroke="black" points="735,-392.5 735,-411.5 788,-411.5 788,-392.5 735,-392.5"/>
<text text-anchor="middle" x="761.5" y="-399.5" font-family="Helvetica,sans-Serif" font-size="10.00">event.h</text>
</a>
</g>
</g>
<!-- Node1&#45;&gt;Node24 -->
<g id="edge28" class="edge">
<title>Node1&#45;&gt;Node24</title>
<path fill="none" stroke="midnightblue" d="M742.84,-438.98C747.59,-429.82 753.16,-419.09 756.96,-411.75"/>
<polygon fill="midnightblue" stroke="midnightblue" points="739.62,-437.59 738.12,-448.08 745.83,-440.82 739.62,-437.59"/>
</g>
<!-- Node26 -->
<g id="node26" class="node">
<title>Node26</title>
<g id="a_node26"><a xlink:href="buffer__inlines_8h_source.html" target="_top" xlink:title=" ">
<polygon fill="white" stroke="black" points="665.5,-280.5 665.5,-299.5 757.5,-299.5 757.5,-280.5 665.5,-280.5"/>
<text text-anchor="middle" x="711.5" y="-287.5" font-family="Helvetica,sans-Serif" font-size="10.00">buffer_inlines.h</text>
</a>
</g>
</g>
<!-- Node1&#45;&gt;Node26 -->
<g id="edge58" class="edge">
<title>Node1&#45;&gt;Node26</title>
<path fill="none" stroke="midnightblue" d="M729.95,-438.51C728.46,-430.4 726.78,-420.74 725.5,-412 719.33,-369.94 714.22,-319.34 712.31,-299.53"/>
<polygon fill="midnightblue" stroke="midnightblue" points="726.52,-439.22 731.81,-448.4 733.4,-437.92 726.52,-439.22"/>
</g>
<!-- Node27 -->
<g id="node27" class="node">
<title>Node27</title>
<g id="a_node27"><a xlink:href="event__vector__inlines_8h.html" target="_top" xlink:title="Event vector inline functions.">
<polygon fill="white" stroke="black" points="960,-280.5 960,-299.5 1087,-299.5 1087,-280.5 960,-280.5"/>
<text text-anchor="middle" x="1023.5" y="-287.5" font-family="Helvetica,sans-Serif" font-size="10.00">event_vector_inlines.h</text>
</a>
</g>
</g>
<!-- Node1&#45;&gt;Node27 -->
<g id="edge61" class="edge">
<title>Node1&#45;&gt;Node27</title>
<path fill="none" stroke="midnightblue" d="M757.81,-443.11C770.37,-435.12 785.37,-424.25 796.5,-412 822.75,-383.12 809.28,-359.42 840.5,-336 860.65,-320.88 922.78,-307.67 969.09,-299.54"/>
<polygon fill="midnightblue" stroke="midnightblue" points="755.87,-440.19 749.17,-448.4 759.53,-446.16 755.87,-440.19"/>
</g>
<!-- Node28 -->
<g id="node28" class="node">
<title>Node28</title>
<g id="a_node28"><a xlink:href="packet__inlines_8h.html" target="_top" xlink:title="Packet inline functions.">
<polygon fill="white" stroke="black" points="1105,-280.5 1105,-299.5 1200,-299.5 1200,-280.5 1105,-280.5"/>
<text text-anchor="middle" x="1152.5" y="-287.5" font-family="Helvetica,sans-Serif" font-size="10.00">packet_inlines.h</text>
</a>
</g>
</g>
<!-- Node1&#45;&gt;Node28 -->
<g id="edge62" class="edge">
<title>Node1&#45;&gt;Node28</title>
<path fill="none" stroke="midnightblue" d="M764.32,-444.16C781.06,-436.32 801.54,-425.25 817.5,-412 850.82,-384.33 841.1,-357.84 878.5,-336 880.94,-334.57 1027.18,-311.04 1104.98,-298.59"/>
<polygon fill="midnightblue" stroke="midnightblue" points="762.63,-441.09 754.96,-448.4 765.51,-447.47 762.63,-441.09"/>
</g>
<!-- Node29 -->
<g id="node29" class="node">
<title>Node29</title>
<g id="a_node29"><a xlink:href="packet__vector__inlines_8h.html" target="_top" xlink:title="Packet vector inline functions.">
<polygon fill="white" stroke="black" points="1218,-280.5 1218,-299.5 1349,-299.5 1349,-280.5 1218,-280.5"/>
<text text-anchor="middle" x="1283.5" y="-287.5" font-family="Helvetica,sans-Serif" font-size="10.00">packet_vector_inlines.h</text>
</a>
</g>
</g>
<!-- Node1&#45;&gt;Node29 -->
<g id="edge63" class="edge">
<title>Node1&#45;&gt;Node29</title>
<path fill="none" stroke="midnightblue" d="M772.56,-445.06C793.77,-437.5 819.81,-426.43 840.5,-412 878.42,-385.57 870.28,-356.93 911.5,-336 1030.45,-275.6 1077.06,-316.05 1209.5,-300 1212.2,-299.67 1214.95,-299.34 1217.73,-299"/>
<polygon fill="midnightblue" stroke="midnightblue" points="771.2,-441.82 762.88,-448.38 773.48,-448.44 771.2,-441.82"/>
</g>
<!-- Node31 -->
<g id="node31" class="node">
<title>Node31</title>
<g id="a_node31"><a xlink:href="spec_2event__vector_8h.html" target="_top" xlink:title="ODP event vector.">
<polygon fill="white" stroke="black" points="921,-392.5 921,-411.5 1010,-411.5 1010,-392.5 921,-392.5"/>
<text text-anchor="middle" x="965.5" y="-399.5" font-family="Helvetica,sans-Serif" font-size="10.00">event_vector.h</text>
</a>
</g>
</g>
<!-- Node1&#45;&gt;Node31 -->
<g id="edge37" class="edge">
<title>Node1&#45;&gt;Node31</title>
<path fill="none" stroke="midnightblue" d="M780.1,-446.15C823.94,-435.95 888.68,-420.88 928.91,-411.52"/>
<polygon fill="midnightblue" stroke="midnightblue" points="779.21,-442.77 770.26,-448.44 780.79,-449.59 779.21,-442.77"/>
</g>
<!-- Node33 -->
<g id="node33" class="node">
<title>Node33</title>
<g id="a_node33"><a xlink:href="spec_2ml_8h.html" target="_top" xlink:title="ODP Machine Learning (ML) offload.">
<polygon fill="white" stroke="black" points="1028.5,-392.5 1028.5,-411.5 1066.5,-411.5 1066.5,-392.5 1028.5,-392.5"/>
<text text-anchor="middle" x="1047.5" y="-399.5" font-family="Helvetica,sans-Serif" font-size="10.00">ml.h</text>
</a>
</g>
</g>
<!-- Node1&#45;&gt;Node33 -->
<g id="edge39" class="edge">
<title>Node1&#45;&gt;Node33</title>
<path fill="none" stroke="midnightblue" d="M783.24,-451.36C840.45,-444.36 936.98,-430.98 1018.5,-412 1021.68,-411.26 1025.03,-410.35 1028.26,-409.4"/>
<polygon fill="midnightblue" stroke="midnightblue" points="782.54,-447.92 773.03,-452.59 783.38,-454.87 782.54,-447.92"/>
</g>
<!-- Node35 -->
<g id="node35" class="node">
<title>Node35</title>
<g id="a_node35"><a xlink:href="spec_2packet_8h.html" target="_top" xlink:title="ODP packet descriptor.">
<polygon fill="white" stroke="black" points="589.5,-280.5 589.5,-299.5 647.5,-299.5 647.5,-280.5 589.5,-280.5"/>
<text text-anchor="middle" x="618.5" y="-287.5" font-family="Helvetica,sans-Serif" font-size="10.00">packet.h</text>
</a>
</g>
</g>
<!-- Node1&#45;&gt;Node35 -->
<g id="edge41" class="edge">
<title>Node1&#45;&gt;Node35</title>
<path fill="none" stroke="midnightblue" d="M721.56,-439.76C697.19,-404.59 642.52,-325.68 624.44,-299.57"/>
<polygon fill="midnightblue" stroke="midnightblue" points="718.75,-441.85 727.32,-448.08 724.5,-437.86 718.75,-441.85"/>
</g>
<!-- Node37 -->
<g id="node37" class="node">
<title>Node37</title>
<g id="a_node37"><a xlink:href="spec_2packet__io__types_8h.html" target="_top" xlink:title="ODP Packet IO types.">
<polygon fill="white" stroke="black" points="520.5,-392.5 520.5,-411.5 624.5,-411.5 624.5,-392.5 520.5,-392.5"/>
<text text-anchor="middle" x="572.5" y="-399.5" font-family="Helvetica,sans-Serif" font-size="10.00">packet_io_types.h</text>
</a>
</g>
</g>
<!-- Node1&#45;&gt;Node37 -->
<g id="edge45" class="edge">
<title>Node1&#45;&gt;Node37</title>
<path fill="none" stroke="midnightblue" d="M698.24,-445.17C667.92,-435 624.93,-420.59 597.89,-411.52"/>
<polygon fill="midnightblue" stroke="midnightblue" points="697.4,-448.58 707.99,-448.44 699.62,-441.95 697.4,-448.58"/>
</g>
<!-- Node41 -->
<g id="node41" class="node">
<title>Node41</title>
<g id="a_node41"><a xlink:href="spec_2pool_8h.html" target="_top" xlink:title="ODP pool.">
<polygon fill="white" stroke="black" points="1085,-392.5 1085,-411.5 1132,-411.5 1132,-392.5 1085,-392.5"/>
<text text-anchor="middle" x="1108.5" y="-399.5" font-family="Helvetica,sans-Serif" font-size="10.00">pool.h</text>
</a>
</g>
</g>
<!-- Node1&#45;&gt;Node41 -->
<g id="edge54" class="edge">
<title>Node1&#45;&gt;Node41</title>
<path fill="none" stroke="midnightblue" d="M783.27,-452.58C850.15,-446.17 972.54,-432.71 1075.5,-412 1078.53,-411.39 1081.69,-410.66 1084.8,-409.88"/>
<polygon fill="midnightblue" stroke="midnightblue" points="782.65,-449.13 773.02,-453.55 783.31,-456.1 782.65,-449.13"/>
</g>
<!-- Node43 -->
<g id="node43" class="node">
<title>Node43</title>
<g id="a_node43"><a xlink:href="spec_2timer_8h.html" target="_top" xlink:title="ODP timer service.">
<polygon fill="white" stroke="black" points="1150,-392.5 1150,-411.5 1201,-411.5 1201,-392.5 1150,-392.5"/>
<text text-anchor="middle" x="1175.5" y="-399.5" font-family="Helvetica,sans-Serif" font-size="10.00">timer.h</text>
</a>
</g>
</g>
<!-- Node1&#45;&gt;Node43 -->
<g id="edge56" class="edge">
<title>Node1&#45;&gt;Node43</title>
<path fill="none" stroke="midnightblue" d="M783.57,-453.89C860.87,-448.54 1013.7,-435.82 1141.5,-412 1144.26,-411.49 1147.13,-410.86 1149.97,-410.19"/>
<polygon fill="midnightblue" stroke="midnightblue" points="782.91,-450.43 773.17,-454.59 783.39,-457.41 782.91,-450.43"/>
</g>
<!-- Node45 -->
<g id="node45" class="node">
<title>Node45</title>
<g id="a_node45"><a xlink:href="event__inlines_8h_source.html" target="_top" xlink:title=" ">
<polygon fill="white" stroke="black" points="1219,-392.5 1219,-411.5 1310,-411.5 1310,-392.5 1219,-392.5"/>
<text text-anchor="middle" x="1264.5" y="-399.5" font-family="Helvetica,sans-Serif" font-size="10.00">event_inlines.h</text>
</a>
</g>
</g>
<!-- Node1&#45;&gt;Node45 -->
<g id="edge60" class="edge">
<title>Node1&#45;&gt;Node45</title>
<path fill="none" stroke="midnightblue" d="M783.29,-453.47C870.2,-447.06 1055.15,-432.25 1210.5,-412 1213.23,-411.64 1216.04,-411.25 1218.87,-410.84"/>
<polygon fill="midnightblue" stroke="midnightblue" points="782.9,-449.99 773.18,-454.22 783.41,-456.97 782.9,-449.99"/>
</g>
<!-- Node46 -->
<g id="node46" class="node">
<title>Node46</title>
<g id="a_node46"><a xlink:href="pool__inlines_8h_source.html" target="_top" xlink:title=" ">
<polygon fill="white" stroke="black" points="1328.5,-392.5 1328.5,-411.5 1412.5,-411.5 1412.5,-392.5 1328.5,-392.5"/>
<text text-anchor="middle" x="1370.5" y="-399.5" font-family="Helvetica,sans-Serif" font-size="10.00">pool_inlines.h</text>
</a>
</g>
</g>
<!-- Node1&#45;&gt;Node46 -->
<g id="edge64" class="edge">
<title>Node1&#45;&gt;Node46</title>
<path fill="none" stroke="midnightblue" d="M783.31,-454.82C884.6,-450.04 1121.76,-436.98 1319.5,-412 1322.35,-411.64 1325.29,-411.23 1328.25,-410.79"/>
<polygon fill="midnightblue" stroke="midnightblue" points="782.9,-451.34 773.07,-455.3 783.23,-458.33 782.9,-451.34"/>
</g>
<!-- Node3 -->
<g id="node3" class="node">
<title>Node3</title>
<g id="a_node3"><a xlink:href="buffer_8h.html" target="_top" xlink:title="ODP buffer descriptor.">
<polygon fill="white" stroke="black" points="83,-336.5 83,-355.5 136,-355.5 136,-336.5 83,-336.5"/>
<text text-anchor="middle" x="109.5" y="-343.5" font-family="Helvetica,sans-Serif" font-size="10.00">buffer.h</text>
</a>
</g>
</g>
<!-- Node2&#45;&gt;Node3 -->
<g id="edge2" class="edge">
<title>Node2&#45;&gt;Node3</title>
<path fill="none" stroke="midnightblue" d="M113.4,-382.1C112.4,-373.14 111.26,-362.86 110.47,-355.75"/>
<polygon fill="midnightblue" stroke="midnightblue" points="109.93,-382.53 114.51,-392.08 116.88,-381.76 109.93,-382.53"/>
</g>
<!-- Node3&#45;&gt;Node4 -->
<g id="edge3" class="edge">
<title>Node3&#45;&gt;Node4</title>
<path fill="none" stroke="midnightblue" d="M90.67,-329.82C78.66,-320.15 63.53,-307.95 53.46,-299.83"/>
<polygon fill="midnightblue" stroke="midnightblue" points="88.75,-332.77 98.74,-336.32 93.15,-327.32 88.75,-332.77"/>
</g>
<!-- Node6 -->
<g id="node6" class="node">
<title>Node6</title>
<g id="a_node6"><a xlink:href="classification_8h.html" target="_top" xlink:title="ODP classification descriptor.">
<polygon fill="white" stroke="black" points="444,-224.5 444,-243.5 533,-243.5 533,-224.5 444,-224.5"/>
<text text-anchor="middle" x="488.5" y="-231.5" font-family="Helvetica,sans-Serif" font-size="10.00">classification.h</text>
</a>
</g>
</g>
<!-- Node5&#45;&gt;Node6 -->
<g id="edge5" class="edge">
<title>Node5&#45;&gt;Node6</title>
<path fill="none" stroke="midnightblue" d="M488.5,-269.8C488.5,-260.91 488.5,-250.78 488.5,-243.75"/>
<polygon fill="midnightblue" stroke="midnightblue" points="485,-270.08 488.5,-280.08 492,-270.08 485,-270.08"/>
</g>
<!-- Node7 -->
<g id="node7" class="node">
<title>Node7</title>
<g id="a_node7"><a xlink:href="spec_2ipsec__types_8h.html" target="_top" xlink:title="ODP IPsec API type definitions.">
<polygon fill="white" stroke="black" points="355,-168.5 355,-187.5 438,-187.5 438,-168.5 355,-168.5"/>
<text text-anchor="middle" x="396.5" y="-175.5" font-family="Helvetica,sans-Serif" font-size="10.00">ipsec_types.h</text>
</a>
</g>
</g>
<!-- Node6&#45;&gt;Node7 -->
<g id="edge6" class="edge">
<title>Node6&#45;&gt;Node7</title>
<path fill="none" stroke="midnightblue" d="M464.95,-219.18C448.02,-209.24 425.72,-196.15 411.24,-187.65"/>
<polygon fill="midnightblue" stroke="midnightblue" points="463.32,-222.28 473.72,-224.32 466.87,-216.24 463.32,-222.28"/>
</g>
<!-- Node12 -->
<g id="node12" class="node">
<title>Node12</title>
<g id="a_node12"><a xlink:href="spec_2packet__io_8h.html" target="_top" xlink:title="ODP Packet IO.">
<polygon fill="white" stroke="black" points="468.5,-168.5 468.5,-187.5 540.5,-187.5 540.5,-168.5 468.5,-168.5"/>
<text text-anchor="middle" x="504.5" y="-175.5" font-family="Helvetica,sans-Serif" font-size="10.00">packet_io.h</text>
</a>
</g>
</g>
<!-- Node6&#45;&gt;Node12 -->
<g id="edge11" class="edge">
<title>Node6&#45;&gt;Node12</title>
<path fill="none" stroke="midnightblue" d="M494.01,-214.4C496.69,-205.36 499.78,-194.94 501.91,-187.75"/>
<polygon fill="midnightblue" stroke="midnightblue" points="490.63,-213.5 491.14,-224.08 497.34,-215.49 490.63,-213.5"/>
</g>
<!-- Node8 -->
<g id="node8" class="node">
<title>Node8</title>
<g id="a_node8"><a xlink:href="ipsec__types_8h.html" target="_top" xlink:title="ODP IPsec.">
<polygon fill="white" stroke="black" points="355,-112.5 355,-131.5 438,-131.5 438,-112.5 355,-112.5"/>
<text text-anchor="middle" x="396.5" y="-119.5" font-family="Helvetica,sans-Serif" font-size="10.00">ipsec_types.h</text>
</a>
</g>
</g>
<!-- Node7&#45;&gt;Node8 -->
<g id="edge7" class="edge">
<title>Node7&#45;&gt;Node8</title>
<path fill="none" stroke="midnightblue" d="M396.5,-157.8C396.5,-148.91 396.5,-138.78 396.5,-131.75"/>
<polygon fill="midnightblue" stroke="midnightblue" points="393,-158.08 396.5,-168.08 400,-158.08 393,-158.08"/>
</g>
<!-- Node9 -->
<g id="node9" class="node">
<title>Node9</title>
<g id="a_node9"><a xlink:href="spec_2ipsec_8h.html" target="_top" xlink:title="ODP IPsec API.">
<polygon fill="white" stroke="black" points="336,-56.5 336,-75.5 387,-75.5 387,-56.5 336,-56.5"/>
<text text-anchor="middle" x="361.5" y="-63.5" font-family="Helvetica,sans-Serif" font-size="10.00">ipsec.h</text>
</a>
</g>
</g>
<!-- Node8&#45;&gt;Node9 -->
<g id="edge8" class="edge">
<title>Node8&#45;&gt;Node9</title>
<path fill="none" stroke="midnightblue" d="M385.2,-103.57C379.18,-94.27 372.03,-83.25 367.17,-75.75"/>
<polygon fill="midnightblue" stroke="midnightblue" points="382.34,-105.6 390.72,-112.08 388.22,-101.79 382.34,-105.6"/>
</g>
<!-- Node11 -->
<g id="node11" class="node">
<title>Node11</title>
<g id="a_node11"><a xlink:href="ipsec__inlines_8h_source.html" target="_top" xlink:title=" ">
<polygon fill="white" stroke="black" points="557,-56.5 557,-75.5 646,-75.5 646,-56.5 557,-56.5"/>
<text text-anchor="middle" x="601.5" y="-63.5" font-family="Helvetica,sans-Serif" font-size="10.00">ipsec_inlines.h</text>
</a>
</g>
</g>
<!-- Node8&#45;&gt;Node11 -->
<g id="edge10" class="edge">
<title>Node8&#45;&gt;Node11</title>
<path fill="none" stroke="midnightblue" d="M438.91,-109.83C477.61,-99.63 533.99,-84.78 569.17,-75.52"/>
<polygon fill="midnightblue" stroke="midnightblue" points="437.76,-106.51 428.98,-112.44 439.54,-113.28 437.76,-106.51"/>
</g>
<!-- Node10 -->
<g id="node10" class="node">
<title>Node10</title>
<g id="a_node10"><a xlink:href="ipsec_8h.html" target="_top" xlink:title="ODP IPSEC API &#45; platform specific header.">
<polygon fill="white" stroke="black" points="336,-0.5 336,-19.5 387,-19.5 387,-0.5 336,-0.5"/>
<text text-anchor="middle" x="361.5" y="-7.5" font-family="Helvetica,sans-Serif" font-size="10.00">ipsec.h</text>
</a>
</g>
</g>
<!-- Node9&#45;&gt;Node10 -->
<g id="edge9" class="edge">
<title>Node9&#45;&gt;Node10</title>
<path fill="none" stroke="midnightblue" d="M361.5,-45.8C361.5,-36.91 361.5,-26.78 361.5,-19.75"/>
<polygon fill="midnightblue" stroke="midnightblue" points="358,-46.08 361.5,-56.08 365,-46.08 358,-46.08"/>
</g>
<!-- Node13 -->
<g id="node13" class="node">
<title>Node13</title>
<g id="a_node13"><a xlink:href="packet__io_8h.html" target="_top" xlink:title="ODP Packet IO.">
<polygon fill="white" stroke="black" points="468.5,-112.5 468.5,-131.5 540.5,-131.5 540.5,-112.5 468.5,-112.5"/>
<text text-anchor="middle" x="504.5" y="-119.5" font-family="Helvetica,sans-Serif" font-size="10.00">packet_io.h</text>
</a>
</g>
</g>
<!-- Node12&#45;&gt;Node13 -->
<g id="edge12" class="edge">
<title>Node12&#45;&gt;Node13</title>
<path fill="none" stroke="midnightblue" d="M504.5,-157.8C504.5,-148.91 504.5,-138.78 504.5,-131.75"/>
<polygon fill="midnightblue" stroke="midnightblue" points="501,-158.08 504.5,-168.08 508,-158.08 501,-158.08"/>
</g>
<!-- Node15 -->
<g id="node15" class="node">
<title>Node15</title>
<g id="a_node15"><a xlink:href="crypto__types_8h.html" target="_top" xlink:title="ODP crypto.">
<polygon fill="white" stroke="black" points="197,-224.5 197,-243.5 286,-243.5 286,-224.5 197,-224.5"/>
<text text-anchor="middle" x="241.5" y="-231.5" font-family="Helvetica,sans-Serif" font-size="10.00">crypto_types.h</text>
</a>
</g>
</g>
<!-- Node14&#45;&gt;Node15 -->
<g id="edge14" class="edge">
<title>Node14&#45;&gt;Node15</title>
<path fill="none" stroke="midnightblue" d="M365.43,-333.49C342.75,-326.27 315.66,-315.38 294.5,-300 272.83,-284.25 254.93,-257.56 246.58,-243.8"/>
<polygon fill="midnightblue" stroke="midnightblue" points="364.59,-336.89 375.18,-336.45 366.63,-330.2 364.59,-336.89"/>
</g>
<!-- Node15&#45;&gt;Node7 -->
<g id="edge18" class="edge">
<title>Node15&#45;&gt;Node7</title>
<path fill="none" stroke="midnightblue" d="M275.83,-221.04C305,-210.88 346.14,-196.55 372.05,-187.52"/>
<polygon fill="midnightblue" stroke="midnightblue" points="274.35,-217.85 266.06,-224.44 276.66,-224.46 274.35,-217.85"/>
</g>
<!-- Node15&#45;&gt;Node9 -->
<g id="edge17" class="edge">
<title>Node15&#45;&gt;Node9</title>
<path fill="none" stroke="midnightblue" d="M255.78,-216.34C262.8,-207.98 271.28,-197.6 278.5,-188 309.27,-147.07 342.89,-95.82 355.91,-75.69"/>
<polygon fill="midnightblue" stroke="midnightblue" points="252.9,-214.33 249.1,-224.22 258.24,-218.85 252.9,-214.33"/>
</g>
<!-- Node16 -->
<g id="node16" class="node">
<title>Node16</title>
<g id="a_node16"><a xlink:href="spec_2crypto_8h.html" target="_top" xlink:title="ODP crypto.">
<polygon fill="white" stroke="black" points="213.5,-168.5 213.5,-187.5 269.5,-187.5 269.5,-168.5 213.5,-168.5"/>
<text text-anchor="middle" x="241.5" y="-175.5" font-family="Helvetica,sans-Serif" font-size="10.00">crypto.h</text>
</a>
</g>
</g>
<!-- Node15&#45;&gt;Node16 -->
<g id="edge15" class="edge">
<title>Node15&#45;&gt;Node16</title>
<path fill="none" stroke="midnightblue" d="M241.5,-213.8C241.5,-204.91 241.5,-194.78 241.5,-187.75"/>
<polygon fill="midnightblue" stroke="midnightblue" points="238,-214.08 241.5,-224.08 245,-214.08 238,-214.08"/>
</g>
<!-- Node18 -->
<g id="node18" class="node">
<title>Node18</title>
<g id="a_node18"><a xlink:href="crypto__inlines_8h_source.html" target="_top" xlink:title=" ">
<polygon fill="white" stroke="black" points="629.5,-168.5 629.5,-187.5 723.5,-187.5 723.5,-168.5 629.5,-168.5"/>
<text text-anchor="middle" x="676.5" y="-175.5" font-family="Helvetica,sans-Serif" font-size="10.00">crypto_inlines.h</text>
</a>
</g>
</g>
<!-- Node15&#45;&gt;Node18 -->
<g id="edge19" class="edge">
<title>Node15&#45;&gt;Node18</title>
<path fill="none" stroke="midnightblue" d="M296.22,-223.81C422.26,-205.9 559.03,-191.06 629.35,-183.77"/>
<polygon fill="midnightblue" stroke="midnightblue" points="295.41,-220.39 286.01,-225.27 296.4,-227.32 295.41,-220.39"/>
</g>
<!-- Node17 -->
<g id="node17" class="node">
<title>Node17</title>
<g id="a_node17"><a xlink:href="crypto_8h.html" target="_top" xlink:title="ODP crypto.">
<polygon fill="white" stroke="black" points="213.5,-112.5 213.5,-131.5 269.5,-131.5 269.5,-112.5 213.5,-112.5"/>
<text text-anchor="middle" x="241.5" y="-119.5" font-family="Helvetica,sans-Serif" font-size="10.00">crypto.h</text>
</a>
</g>
</g>
<!-- Node16&#45;&gt;Node17 -->
<g id="edge16" class="edge">
<title>Node16&#45;&gt;Node17</title>
<path fill="none" stroke="midnightblue" d="M241.5,-157.8C241.5,-148.91 241.5,-138.78 241.5,-131.75"/>
<polygon fill="midnightblue" stroke="midnightblue" points="238,-158.08 241.5,-168.08 245,-158.08 238,-158.08"/>
</g>
<!-- Node20 -->
<g id="node20" class="node">
<title>Node20</title>
<g id="a_node20"><a xlink:href="dma_8h.html" target="_top" xlink:title="ODP DMA.">
<polygon fill="white" stroke="black" points="103,-224.5 103,-243.5 150,-243.5 150,-224.5 103,-224.5"/>
<text text-anchor="middle" x="126.5" y="-231.5" font-family="Helvetica,sans-Serif" font-size="10.00">dma.h</text>
</a>
</g>
</g>
<!-- Node19&#45;&gt;Node20 -->
<g id="edge21" class="edge">
<title>Node19&#45;&gt;Node20</title>
<path fill="none" stroke="midnightblue" d="M126.5,-269.8C126.5,-260.91 126.5,-250.78 126.5,-243.75"/>
<polygon fill="midnightblue" stroke="midnightblue" points="123,-270.08 126.5,-280.08 130,-270.08 123,-270.08"/>
</g>
<!-- Node22 -->
<g id="node22" class="node">
<title>Node22</title>
<g id="a_node22"><a xlink:href="dma__types_8h.html" target="_top" xlink:title="ODP DMA.">
<polygon fill="white" stroke="black" points="161.5,-336.5 161.5,-355.5 241.5,-355.5 241.5,-336.5 161.5,-336.5"/>
<text text-anchor="middle" x="201.5" y="-343.5" font-family="Helvetica,sans-Serif" font-size="10.00">dma_types.h</text>
</a>
</g>
</g>
<!-- Node21&#45;&gt;Node22 -->
<g id="edge23" class="edge">
<title>Node21&#45;&gt;Node22</title>
<path fill="none" stroke="midnightblue" d="M204.75,-382.1C203.92,-373.14 202.97,-362.86 202.31,-355.75"/>
<polygon fill="midnightblue" stroke="midnightblue" points="201.27,-382.45 205.67,-392.08 208.24,-381.8 201.27,-382.45"/>
</g>
<!-- Node22&#45;&gt;Node4 -->
<g id="edge27" class="edge">
<title>Node22&#45;&gt;Node4</title>
<path fill="none" stroke="midnightblue" d="M166.67,-333.17C136.73,-323 94.28,-308.59 67.58,-299.52"/>
<polygon fill="midnightblue" stroke="midnightblue" points="165.71,-336.54 176.31,-336.44 167.96,-329.91 165.71,-336.54"/>
</g>
<!-- Node22&#45;&gt;Node19 -->
<g id="edge24" class="edge">
<title>Node22&#45;&gt;Node19</title>
<path fill="none" stroke="midnightblue" d="M181.19,-330.38C167.64,-320.62 150.26,-308.11 138.77,-299.83"/>
<polygon fill="midnightblue" stroke="midnightblue" points="179.29,-333.32 189.45,-336.32 183.38,-327.64 179.29,-333.32"/>
</g>
<!-- Node23 -->
<g id="node23" class="node">
<title>Node23</title>
<g id="a_node23"><a xlink:href="spec_2pool__types_8h.html" target="_top" xlink:title="Type definitions for pools.">
<polygon fill="white" stroke="black" points="168,-280.5 168,-299.5 247,-299.5 247,-280.5 168,-280.5"/>
<text text-anchor="middle" x="207.5" y="-287.5" font-family="Helvetica,sans-Serif" font-size="10.00">pool_types.h</text>
</a>
</g>
</g>
<!-- Node22&#45;&gt;Node23 -->
<g id="edge25" class="edge">
<title>Node22&#45;&gt;Node23</title>
<path fill="none" stroke="midnightblue" d="M203.6,-326.1C204.6,-317.14 205.74,-306.86 206.53,-299.75"/>
<polygon fill="midnightblue" stroke="midnightblue" points="200.12,-325.76 202.49,-336.08 207.07,-326.53 200.12,-325.76"/>
</g>
<!-- Node23&#45;&gt;Node1 -->
<g id="edge26" class="edge">
<title>Node23&#45;&gt;Node1</title>
<path fill="none" stroke="midnightblue" d="M234.8,-304.06C253.17,-312.91 277.88,-324.97 299.5,-336 363.61,-368.71 374.2,-389.29 442.5,-412 529.33,-440.87 637.01,-451.37 693.92,-455.07"/>
<polygon fill="midnightblue" stroke="midnightblue" points="236.1,-300.8 225.57,-299.62 233.06,-307.11 236.1,-300.8"/>
</g>
<!-- Node25 -->
<g id="node25" class="node">
<title>Node25</title>
<g id="a_node25"><a xlink:href="event_8h.html" target="_top" xlink:title="ODP event.">
<polygon fill="white" stroke="black" points="735,-336.5 735,-355.5 788,-355.5 788,-336.5 735,-336.5"/>
<text text-anchor="middle" x="761.5" y="-343.5" font-family="Helvetica,sans-Serif" font-size="10.00">event.h</text>
</a>
</g>
</g>
<!-- Node24&#45;&gt;Node25 -->
<g id="edge29" class="edge">
<title>Node24&#45;&gt;Node25</title>
<path fill="none" stroke="midnightblue" d="M761.5,-381.8C761.5,-372.91 761.5,-362.78 761.5,-355.75"/>
<polygon fill="midnightblue" stroke="midnightblue" points="758,-382.08 761.5,-392.08 765,-382.08 758,-382.08"/>
</g>
<!-- Node25&#45;&gt;Node11 -->
<g id="edge33" class="edge">
<title>Node25&#45;&gt;Node11</title>
<path fill="none" stroke="midnightblue" d="M797.86,-338.33C847.8,-326.83 931.5,-298.14 931.5,-235 931.5,-235 931.5,-235 931.5,-177 931.5,-117.52 736.08,-84.44 646.01,-72.36"/>
<polygon fill="midnightblue" stroke="midnightblue" points="797.09,-334.92 788.06,-340.47 798.58,-341.76 797.09,-334.92"/>
</g>
<!-- Node25&#45;&gt;Node18 -->
<g id="edge31" class="edge">
<title>Node25&#45;&gt;Node18</title>
<path fill="none" stroke="midnightblue" d="M798,-335.14C827.18,-326.44 864.63,-313.12 873.5,-300 878.48,-292.64 878.13,-287.58 873.5,-280 840.33,-225.72 767.71,-199.41 720.52,-187.59"/>
<polygon fill="midnightblue" stroke="midnightblue" points="796.71,-331.87 788.08,-338.02 798.66,-338.6 796.71,-331.87"/>
</g>
<!-- Node25&#45;&gt;Node26 -->
<g id="edge30" class="edge">
<title>Node25&#45;&gt;Node26</title>
<path fill="none" stroke="midnightblue" d="M746.42,-328.72C737.61,-319.2 726.83,-307.56 719.6,-299.75"/>
<polygon fill="midnightblue" stroke="midnightblue" points="743.88,-331.12 753.24,-336.08 749.02,-326.37 743.88,-331.12"/>
</g>
<!-- Node25&#45;&gt;Node27 -->
<g id="edge32" class="edge">
<title>Node25&#45;&gt;Node27</title>
<path fill="none" stroke="midnightblue" d="M798.59,-336.83C799.91,-336.55 801.22,-336.27 802.5,-336 864.37,-322.91 936.13,-308.43 980.68,-299.52"/>
<polygon fill="midnightblue" stroke="midnightblue" points="797.43,-333.5 788.39,-339.04 798.91,-340.34 797.43,-333.5"/>
</g>
<!-- Node25&#45;&gt;Node28 -->
<g id="edge34" class="edge">
<title>Node25&#45;&gt;Node28</title>
<path fill="none" stroke="midnightblue" d="M798.38,-340.31C859.98,-332.41 987.69,-315.77 1095.5,-300 1098.57,-299.55 1101.74,-299.08 1104.93,-298.59"/>
<polygon fill="midnightblue" stroke="midnightblue" points="797.85,-336.85 788.37,-341.59 798.73,-343.79 797.85,-336.85"/>
</g>
<!-- Node25&#45;&gt;Node29 -->
<g id="edge35" class="edge">
<title>Node25&#45;&gt;Node29</title>
<path fill="none" stroke="midnightblue" d="M798.1,-341.58C874.57,-334.39 1056.83,-316.95 1209.5,-300 1212.2,-299.7 1214.96,-299.39 1217.74,-299.07"/>
<polygon fill="midnightblue" stroke="midnightblue" points="797.66,-338.11 788.03,-342.53 798.31,-345.08 797.66,-338.11"/>
</g>
<!-- Node30 -->
<g id="node30" class="node">
<title>Node30</title>
<g id="a_node30"><a xlink:href="timer__inlines_8h_source.html" target="_top" xlink:title=" ">
<polygon fill="white" stroke="black" points="776,-280.5 776,-299.5 865,-299.5 865,-280.5 776,-280.5"/>
<text text-anchor="middle" x="820.5" y="-287.5" font-family="Helvetica,sans-Serif" font-size="10.00">timer_inlines.h</text>
</a>
</g>
</g>
<!-- Node25&#45;&gt;Node30 -->
<g id="edge36" class="edge">
<title>Node25&#45;&gt;Node30</title>
<path fill="none" stroke="midnightblue" d="M778.39,-329.54C788.91,-319.91 802.07,-307.87 810.85,-299.83"/>
<polygon fill="midnightblue" stroke="midnightblue" points="775.99,-326.99 770.98,-336.32 780.72,-332.15 775.99,-326.99"/>
</g>
<!-- Node32 -->
<g id="node32" class="node">
<title>Node32</title>
<g id="a_node32"><a xlink:href="event__vector_8h.html" target="_top" xlink:title="ODP event vector.">
<polygon fill="white" stroke="black" points="921,-336.5 921,-355.5 1010,-355.5 1010,-336.5 921,-336.5"/>
<text text-anchor="middle" x="965.5" y="-343.5" font-family="Helvetica,sans-Serif" font-size="10.00">event_vector.h</text>
</a>
</g>
</g>
<!-- Node31&#45;&gt;Node32 -->
<g id="edge38" class="edge">
<title>Node31&#45;&gt;Node32</title>
<path fill="none" stroke="midnightblue" d="M965.5,-381.8C965.5,-372.91 965.5,-362.78 965.5,-355.75"/>
<polygon fill="midnightblue" stroke="midnightblue" points="962,-382.08 965.5,-392.08 969,-382.08 962,-382.08"/>
</g>
<!-- Node34 -->
<g id="node34" class="node">
<title>Node34</title>
<g id="a_node34"><a xlink:href="ml_8h.html" target="_top" xlink:title="ODP Machine Learning (ML) offload.">
<polygon fill="white" stroke="black" points="1028.5,-336.5 1028.5,-355.5 1066.5,-355.5 1066.5,-336.5 1028.5,-336.5"/>
<text text-anchor="middle" x="1047.5" y="-343.5" font-family="Helvetica,sans-Serif" font-size="10.00">ml.h</text>
</a>
</g>
</g>
<!-- Node33&#45;&gt;Node34 -->
<g id="edge40" class="edge">
<title>Node33&#45;&gt;Node34</title>
<path fill="none" stroke="midnightblue" d="M1047.5,-381.8C1047.5,-372.91 1047.5,-362.78 1047.5,-355.75"/>
<polygon fill="midnightblue" stroke="midnightblue" points="1044,-382.08 1047.5,-392.08 1051,-382.08 1044,-382.08"/>
</g>
<!-- Node36 -->
<g id="node36" class="node">
<title>Node36</title>
<g id="a_node36"><a xlink:href="packet_8h.html" target="_top" xlink:title="ODP packet descriptor.">
<polygon fill="white" stroke="black" points="589.5,-224.5 589.5,-243.5 647.5,-243.5 647.5,-224.5 589.5,-224.5"/>
<text text-anchor="middle" x="618.5" y="-231.5" font-family="Helvetica,sans-Serif" font-size="10.00">packet.h</text>
</a>
</g>
</g>
<!-- Node35&#45;&gt;Node36 -->
<g id="edge42" class="edge">
<title>Node35&#45;&gt;Node36</title>
<path fill="none" stroke="midnightblue" d="M618.5,-269.8C618.5,-260.91 618.5,-250.78 618.5,-243.75"/>
<polygon fill="midnightblue" stroke="midnightblue" points="615,-270.08 618.5,-280.08 622,-270.08 615,-270.08"/>
</g>
<!-- Node36&#45;&gt;Node11 -->
<g id="edge44" class="edge">
<title>Node36&#45;&gt;Node11</title>
<path fill="none" stroke="midnightblue" d="M616.55,-213.93C612.86,-177.92 605.01,-101.23 602.38,-75.57"/>
<polygon fill="midnightblue" stroke="midnightblue" points="613.09,-214.48 617.59,-224.08 620.05,-213.77 613.09,-214.48"/>
</g>
<!-- Node36&#45;&gt;Node18 -->
<g id="edge43" class="edge">
<title>Node36&#45;&gt;Node18</title>
<path fill="none" stroke="midnightblue" d="M635.41,-217.25C645.7,-207.67 658.47,-195.79 667.01,-187.83"/>
<polygon fill="midnightblue" stroke="midnightblue" points="632.75,-214.95 627.82,-224.32 637.52,-220.07 632.75,-214.95"/>
</g>
<!-- Node38 -->
<g id="node38" class="node">
<title>Node38</title>
<g id="a_node38"><a xlink:href="packet__io__types_8h.html" target="_top" xlink:title="ODP Packet IO.">
<polygon fill="white" stroke="black" points="512.5,-336.5 512.5,-355.5 616.5,-355.5 616.5,-336.5 512.5,-336.5"/>
<text text-anchor="middle" x="564.5" y="-343.5" font-family="Helvetica,sans-Serif" font-size="10.00">packet_io_types.h</text>
</a>
</g>
</g>
<!-- Node37&#45;&gt;Node38 -->
<g id="edge46" class="edge">
<title>Node37&#45;&gt;Node38</title>
<path fill="none" stroke="midnightblue" d="M569.7,-382.1C568.37,-373.14 566.85,-362.86 565.8,-355.75"/>
<polygon fill="midnightblue" stroke="midnightblue" points="566.25,-382.7 571.18,-392.08 573.18,-381.68 566.25,-382.7"/>
</g>
<!-- Node38&#45;&gt;Node5 -->
<g id="edge47" class="edge">
<title>Node38&#45;&gt;Node5</title>
<path fill="none" stroke="midnightblue" d="M543.92,-330.38C530.19,-320.62 512.57,-308.11 500.93,-299.83"/>
<polygon fill="midnightblue" stroke="midnightblue" points="542.11,-333.38 552.29,-336.32 546.16,-327.68 542.11,-333.38"/>
</g>
<!-- Node38&#45;&gt;Node7 -->
<g id="edge48" class="edge">
<title>Node38&#45;&gt;Node7</title>
<path fill="none" stroke="midnightblue" d="M502.48,-335.84C478.47,-329.42 452.49,-318.52 434.5,-300 403.05,-267.62 397.6,-209.51 396.68,-187.64"/>
<polygon fill="midnightblue" stroke="midnightblue" points="501.72,-339.26 512.27,-338.24 503.39,-332.46 501.72,-339.26"/>
</g>
<!-- Node38&#45;&gt;Node12 -->
<g id="edge50" class="edge">
<title>Node38&#45;&gt;Node12</title>
<path fill="none" stroke="midnightblue" d="M563.8,-326.24C562.26,-301.68 557.31,-257.77 541.5,-224 534.81,-209.71 522.53,-196.13 513.96,-187.69"/>
<polygon fill="midnightblue" stroke="midnightblue" points="560.31,-326.53 564.31,-336.34 567.3,-326.18 560.31,-326.53"/>
</g>
<!-- Node38&#45;&gt;Node35 -->
<g id="edge49" class="edge">
<title>Node38&#45;&gt;Node35</title>
<path fill="none" stroke="midnightblue" d="M580.5,-329C590.07,-319.43 601.86,-307.64 609.75,-299.75"/>
<polygon fill="midnightblue" stroke="midnightblue" points="578.01,-326.54 573.42,-336.08 582.96,-331.49 578.01,-326.54"/>
</g>
<!-- Node39 -->
<g id="node39" class="node">
<title>Node39</title>
<g id="a_node39"><a xlink:href="spec_2traffic__mngr_8h.html" target="_top" xlink:title=" ">
<polygon fill="white" stroke="black" points="303.5,-280.5 303.5,-299.5 387.5,-299.5 387.5,-280.5 303.5,-280.5"/>
<text text-anchor="middle" x="345.5" y="-287.5" font-family="Helvetica,sans-Serif" font-size="10.00">traffic_mngr.h</text>
</a>
</g>
</g>
<!-- Node38&#45;&gt;Node39 -->
<g id="edge51" class="edge">
<title>Node38&#45;&gt;Node39</title>
<path fill="none" stroke="midnightblue" d="M519.99,-334.02C478.62,-323.82 417.86,-308.84 380.04,-299.52"/>
<polygon fill="midnightblue" stroke="midnightblue" points="519.25,-337.45 529.8,-336.44 520.93,-330.65 519.25,-337.45"/>
</g>
<!-- Node40 -->
<g id="node40" class="node">
<title>Node40</title>
<g id="a_node40"><a xlink:href="traffic__mngr_8h.html" target="_top" xlink:title="ODP Traffic manager.">
<polygon fill="white" stroke="black" points="303.5,-224.5 303.5,-243.5 387.5,-243.5 387.5,-224.5 303.5,-224.5"/>
<text text-anchor="middle" x="345.5" y="-231.5" font-family="Helvetica,sans-Serif" font-size="10.00">traffic_mngr.h</text>
</a>
</g>
</g>
<!-- Node39&#45;&gt;Node40 -->
<g id="edge52" class="edge">
<title>Node39&#45;&gt;Node40</title>
<path fill="none" stroke="midnightblue" d="M345.5,-269.8C345.5,-260.91 345.5,-250.78 345.5,-243.75"/>
<polygon fill="midnightblue" stroke="midnightblue" points="342,-270.08 345.5,-280.08 349,-270.08 342,-270.08"/>
</g>
<!-- Node40&#45;&gt;Node7 -->
<g id="edge53" class="edge">
<title>Node40&#45;&gt;Node7</title>
<path fill="none" stroke="midnightblue" d="M360.88,-216.72C369.87,-207.2 380.86,-195.56 388.24,-187.75"/>
<polygon fill="midnightblue" stroke="midnightblue" points="358.24,-214.41 353.92,-224.08 363.33,-219.22 358.24,-214.41"/>
</g>
<!-- Node42 -->
<g id="node42" class="node">
<title>Node42</title>
<g id="a_node42"><a xlink:href="pool_8h.html" target="_top" xlink:title="ODP pool.">
<polygon fill="white" stroke="black" points="1085,-336.5 1085,-355.5 1132,-355.5 1132,-336.5 1085,-336.5"/>
<text text-anchor="middle" x="1108.5" y="-343.5" font-family="Helvetica,sans-Serif" font-size="10.00">pool.h</text>
</a>
</g>
</g>
<!-- Node41&#45;&gt;Node42 -->
<g id="edge55" class="edge">
<title>Node41&#45;&gt;Node42</title>
<path fill="none" stroke="midnightblue" d="M1108.5,-381.8C1108.5,-372.91 1108.5,-362.78 1108.5,-355.75"/>
<polygon fill="midnightblue" stroke="midnightblue" points="1105,-382.08 1108.5,-392.08 1112,-382.08 1105,-382.08"/>
</g>
<!-- Node44 -->
<g id="node44" class="node">
<title>Node44</title>
<g id="a_node44"><a xlink:href="timer_8h.html" target="_top" xlink:title="ODP timer service.">
<polygon fill="white" stroke="black" points="1150,-336.5 1150,-355.5 1201,-355.5 1201,-336.5 1150,-336.5"/>
<text text-anchor="middle" x="1175.5" y="-343.5" font-family="Helvetica,sans-Serif" font-size="10.00">timer.h</text>
</a>
</g>
</g>
<!-- Node43&#45;&gt;Node44 -->
<g id="edge57" class="edge">
<title>Node43&#45;&gt;Node44</title>
<path fill="none" stroke="midnightblue" d="M1175.5,-381.8C1175.5,-372.91 1175.5,-362.78 1175.5,-355.75"/>
<polygon fill="midnightblue" stroke="midnightblue" points="1172,-382.08 1175.5,-392.08 1179,-382.08 1172,-382.08"/>
</g>
</g>
</svg>
