<?xml version="1.0" encoding="UTF-8" standalone="no"?>
<!DOCTYPE svg PUBLIC "-//W3C//DTD SVG 1.1//EN"
 "http://www.w3.org/Graphics/SVG/1.1/DTD/svg11.dtd">
<!-- Generated by graphviz version 2.43.0 (0)
 -->
<!-- Title: pool_types.h Pages: 1 -->
<svg width="1216pt" height="990pt"
 viewBox="0.00 0.00 1216.00 990.00" xmlns="http://www.w3.org/2000/svg" xmlns:xlink="http://www.w3.org/1999/xlink">
<g id="graph0" class="graph" transform="scale(1 1) rotate(0) translate(4 986)">
<title>pool_types.h</title>
<polygon fill="white" stroke="transparent" points="-4,4 -4,-986 1212,-986 1212,4 -4,4"/>
<!-- Node1 -->
<g id="node1" class="node">
<title>Node1</title>
<g id="a_node1"><a xlink:title="ODP pool.">
<polygon fill="#bfbfbf" stroke="black" points="634.5,-962.5 634.5,-981.5 713.5,-981.5 713.5,-962.5 634.5,-962.5"/>
<text text-anchor="middle" x="674" y="-969.5" font-family="Helvetica,sans-Serif" font-size="10.00">pool_types.h</text>
</a>
</g>
</g>
<!-- Node2 -->
<g id="node2" class="node">
<title>Node2</title>
<g id="a_node2"><a xlink:title=" ">
<polygon fill="white" stroke="#bfbfbf" points="527,-906.5 527,-925.5 663,-925.5 663,-906.5 527,-906.5"/>
<text text-anchor="middle" x="595" y="-913.5" font-family="Helvetica,sans-Serif" font-size="10.00">odp/api/abi/pool_types.h</text>
</a>
</g>
</g>
<!-- Node1&#45;&gt;Node2 -->
<g id="edge1" class="edge">
<title>Node1&#45;&gt;Node2</title>
<path fill="none" stroke="midnightblue" d="M661.31,-962.32C649.1,-953.98 630.42,-941.21 616,-931.35"/>
<polygon fill="midnightblue" stroke="midnightblue" points="617.89,-928.41 607.66,-925.65 613.94,-934.19 617.89,-928.41"/>
</g>
<!-- Node3 -->
<g id="node3" class="node">
<title>Node3</title>
<g id="a_node3"><a xlink:href="spec_2pool__types_8h.html" target="_top" xlink:title="Type definitions for pools.">
<polygon fill="white" stroke="black" points="681.5,-906.5 681.5,-925.5 824.5,-925.5 824.5,-906.5 681.5,-906.5"/>
<text text-anchor="middle" x="753" y="-913.5" font-family="Helvetica,sans-Serif" font-size="10.00">odp/api/spec/pool_types.h</text>
</a>
</g>
</g>
<!-- Node1&#45;&gt;Node3 -->
<g id="edge2" class="edge">
<title>Node1&#45;&gt;Node3</title>
<path fill="none" stroke="midnightblue" d="M686.69,-962.32C698.9,-953.98 717.58,-941.21 732,-931.35"/>
<polygon fill="midnightblue" stroke="midnightblue" points="734.06,-934.19 740.34,-925.65 730.11,-928.41 734.06,-934.19"/>
</g>
<!-- Node4 -->
<g id="node4" class="node">
<title>Node4</title>
<g id="a_node4"><a xlink:title=" ">
<polygon fill="white" stroke="#bfbfbf" points="129.5,-0.5 129.5,-19.5 250.5,-19.5 250.5,-0.5 129.5,-0.5"/>
<text text-anchor="middle" x="190" y="-7.5" font-family="Helvetica,sans-Serif" font-size="10.00">odp/visibility_begin.h</text>
</a>
</g>
</g>
<!-- Node3&#45;&gt;Node4 -->
<g id="edge3" class="edge">
<title>Node3&#45;&gt;Node4</title>
<path fill="none" stroke="midnightblue" d="M681.45,-907.01C678.26,-906.66 675.1,-906.33 672,-906 596.91,-898.08 0,-880.51 0,-805 0,-805 0,-805 0,-132 0,-68.18 77.22,-36.55 133.2,-22.01"/>
<polygon fill="midnightblue" stroke="midnightblue" points="134.17,-25.38 143.03,-19.57 132.49,-18.58 134.17,-25.38"/>
</g>
<!-- Node5 -->
<g id="node5" class="node">
<title>Node5</title>
<g id="a_node5"><a xlink:href="std__types_8h.html" target="_top" xlink:title="Standard C language types and definitions for ODP.">
<polygon fill="white" stroke="black" points="666,-235.5 666,-254.5 778,-254.5 778,-235.5 666,-235.5"/>
<text text-anchor="middle" x="722" y="-242.5" font-family="Helvetica,sans-Serif" font-size="10.00">odp/api/std_types.h</text>
</a>
</g>
</g>
<!-- Node3&#45;&gt;Node5 -->
<g id="edge4" class="edge">
<title>Node3&#45;&gt;Node5</title>
<path fill="none" stroke="midnightblue" d="M690.52,-906.48C522.93,-883.42 76,-820.48 76,-805 76,-805 76,-805 76,-624 76,-457.63 109.26,-384.31 247,-291 280.06,-268.6 532.82,-254.42 655.54,-248.78"/>
<polygon fill="midnightblue" stroke="midnightblue" points="655.75,-252.27 665.58,-248.32 655.43,-245.28 655.75,-252.27"/>
</g>
<!-- Node12 -->
<g id="node12" class="node">
<title>Node12</title>
<g id="a_node12"><a xlink:title=" ">
<polygon fill="white" stroke="#bfbfbf" points="849,-0.5 849,-19.5 961,-19.5 961,-0.5 849,-0.5"/>
<text text-anchor="middle" x="905" y="-7.5" font-family="Helvetica,sans-Serif" font-size="10.00">odp/visibility_end.h</text>
</a>
</g>
</g>
<!-- Node3&#45;&gt;Node12 -->
<g id="edge64" class="edge">
<title>Node3&#45;&gt;Node12</title>
<path fill="none" stroke="midnightblue" d="M824.59,-912.42C952.73,-905.82 1208,-882.92 1208,-805 1208,-805 1208,-805 1208,-132 1208,-81.32 1168.26,-78.8 1123,-56 1075.61,-32.13 1016.34,-20.92 971.57,-15.66"/>
<polygon fill="midnightblue" stroke="midnightblue" points="971.71,-12.15 961.39,-14.53 970.94,-19.11 971.71,-12.15"/>
</g>
<!-- Node13 -->
<g id="node13" class="node">
<title>Node13</title>
<g id="a_node13"><a xlink:href="dma__types_8h.html" target="_top" xlink:title="ODP DMA.">
<polygon fill="white" stroke="black" points="693.5,-850.5 693.5,-869.5 812.5,-869.5 812.5,-850.5 693.5,-850.5"/>
<text text-anchor="middle" x="753" y="-857.5" font-family="Helvetica,sans-Serif" font-size="10.00">odp/api/dma_types.h</text>
</a>
</g>
</g>
<!-- Node3&#45;&gt;Node13 -->
<g id="edge15" class="edge">
<title>Node3&#45;&gt;Node13</title>
<path fill="none" stroke="midnightblue" d="M753,-906.08C753,-899.01 753,-888.86 753,-879.99"/>
<polygon fill="midnightblue" stroke="midnightblue" points="756.5,-879.75 753,-869.75 749.5,-879.75 756.5,-879.75"/>
</g>
<!-- Node35 -->
<g id="node35" class="node">
<title>Node35</title>
<g id="a_node35"><a xlink:href="ml__types_8h.html" target="_top" xlink:title="ODP Machine Learning (ML) types.">
<polygon fill="white" stroke="black" points="1052,-738.5 1052,-757.5 1162,-757.5 1162,-738.5 1052,-738.5"/>
<text text-anchor="middle" x="1107" y="-745.5" font-family="Helvetica,sans-Serif" font-size="10.00">odp/api/ml_types.h</text>
</a>
</g>
</g>
<!-- Node3&#45;&gt;Node35 -->
<g id="edge56" class="edge">
<title>Node3&#45;&gt;Node35</title>
<path fill="none" stroke="midnightblue" d="M771.53,-906.31C829.84,-878.97 1009.75,-794.6 1079.23,-762.02"/>
<polygon fill="midnightblue" stroke="midnightblue" points="1081.08,-765.02 1088.65,-757.61 1078.11,-758.68 1081.08,-765.02"/>
</g>
<!-- Node6 -->
<g id="node6" class="node">
<title>Node6</title>
<g id="a_node6"><a xlink:title=" ">
<polygon fill="white" stroke="#bfbfbf" points="666,-179.5 666,-198.5 796,-198.5 796,-179.5 666,-179.5"/>
<text text-anchor="middle" x="731" y="-186.5" font-family="Helvetica,sans-Serif" font-size="10.00">odp/api/abi/std_types.h</text>
</a>
</g>
</g>
<!-- Node5&#45;&gt;Node6 -->
<g id="edge5" class="edge">
<title>Node5&#45;&gt;Node6</title>
<path fill="none" stroke="midnightblue" d="M723.49,-235.08C724.68,-227.93 726.39,-217.64 727.88,-208.69"/>
<polygon fill="midnightblue" stroke="midnightblue" points="731.35,-209.19 729.54,-198.75 724.45,-208.04 731.35,-209.19"/>
</g>
<!-- Node7 -->
<g id="node7" class="node">
<title>Node7</title>
<g id="a_node7"><a xlink:href="spec_2std__types_8h.html" target="_top" xlink:title="Common types and definitions for ODP API files.">
<polygon fill="white" stroke="black" points="472.5,-179.5 472.5,-198.5 609.5,-198.5 609.5,-179.5 472.5,-179.5"/>
<text text-anchor="middle" x="541" y="-186.5" font-family="Helvetica,sans-Serif" font-size="10.00">odp/api/spec/std_types.h</text>
</a>
</g>
</g>
<!-- Node5&#45;&gt;Node7 -->
<g id="edge6" class="edge">
<title>Node5&#45;&gt;Node7</title>
<path fill="none" stroke="midnightblue" d="M693.32,-235.44C662.47,-226.24 613.27,-211.56 579.17,-201.39"/>
<polygon fill="midnightblue" stroke="midnightblue" points="580.13,-198.02 569.55,-198.52 578.13,-204.73 580.13,-198.02"/>
</g>
<!-- Node7&#45;&gt;Node4 -->
<g id="edge7" class="edge">
<title>Node7&#45;&gt;Node4</title>
<path fill="none" stroke="midnightblue" d="M503.22,-179.44C474.07,-172.02 433.25,-159.81 400,-143 341.21,-113.28 336.32,-90.18 280,-56 260.22,-43.99 236.81,-32.36 218.83,-23.94"/>
<polygon fill="midnightblue" stroke="midnightblue" points="219.99,-20.62 209.45,-19.6 217.06,-26.97 219.99,-20.62"/>
</g>
<!-- Node8 -->
<g id="node8" class="node">
<title>Node8</title>
<g id="a_node8"><a xlink:title=" ">
<polygon fill="white" stroke="#bfbfbf" points="516.5,-123.5 516.5,-142.5 569.5,-142.5 569.5,-123.5 516.5,-123.5"/>
<text text-anchor="middle" x="543" y="-130.5" font-family="Helvetica,sans-Serif" font-size="10.00">stdint.h</text>
</a>
</g>
</g>
<!-- Node7&#45;&gt;Node8 -->
<g id="edge8" class="edge">
<title>Node7&#45;&gt;Node8</title>
<path fill="none" stroke="midnightblue" d="M541.33,-179.08C541.59,-172.01 541.97,-161.86 542.3,-152.99"/>
<polygon fill="midnightblue" stroke="midnightblue" points="545.8,-152.87 542.68,-142.75 538.81,-152.61 545.8,-152.87"/>
</g>
<!-- Node9 -->
<g id="node9" class="node">
<title>Node9</title>
<g id="a_node9"><a xlink:href="align_8h.html" target="_top" xlink:title="ODP alignments.">
<polygon fill="white" stroke="black" points="409.5,-123.5 409.5,-142.5 498.5,-142.5 498.5,-123.5 409.5,-123.5"/>
<text text-anchor="middle" x="454" y="-130.5" font-family="Helvetica,sans-Serif" font-size="10.00">odp/api/align.h</text>
</a>
</g>
</g>
<!-- Node7&#45;&gt;Node9 -->
<g id="edge9" class="edge">
<title>Node7&#45;&gt;Node9</title>
<path fill="none" stroke="midnightblue" d="M527.02,-179.32C513.45,-170.9 492.62,-157.97 476.68,-148.07"/>
<polygon fill="midnightblue" stroke="midnightblue" points="478.29,-144.95 467.94,-142.65 474.59,-150.9 478.29,-144.95"/>
</g>
<!-- Node7&#45;&gt;Node12 -->
<g id="edge14" class="edge">
<title>Node7&#45;&gt;Node12</title>
<path fill="none" stroke="midnightblue" d="M548.92,-179.45C556.82,-170.68 569.03,-156.47 578,-143 602.23,-106.59 588.44,-81.47 624,-56 657.5,-32.01 766.63,-20.17 838.62,-14.84"/>
<polygon fill="midnightblue" stroke="midnightblue" points="839.24,-18.31 848.96,-14.1 838.74,-11.33 839.24,-18.31"/>
</g>
<!-- Node10 -->
<g id="node10" class="node">
<title>Node10</title>
<g id="a_node10"><a xlink:title=" ">
<polygon fill="white" stroke="#bfbfbf" points="464.5,-62 464.5,-81 571.5,-81 571.5,-62 464.5,-62"/>
<text text-anchor="middle" x="518" y="-69" font-family="Helvetica,sans-Serif" font-size="10.00">odp/api/abi/align.h</text>
</a>
</g>
</g>
<!-- Node9&#45;&gt;Node10 -->
<g id="edge10" class="edge">
<title>Node9&#45;&gt;Node10</title>
<path fill="none" stroke="midnightblue" d="M463.17,-123.48C473.15,-114.2 489.31,-99.17 501.51,-87.83"/>
<polygon fill="midnightblue" stroke="midnightblue" points="503.91,-90.38 508.85,-81.01 499.14,-85.25 503.91,-90.38"/>
</g>
<!-- Node11 -->
<g id="node11" class="node">
<title>Node11</title>
<g id="a_node11"><a xlink:href="spec_2align_8h.html" target="_top" xlink:title="ODP alignments.">
<polygon fill="white" stroke="black" points="332,-62 332,-81 446,-81 446,-62 332,-62"/>
<text text-anchor="middle" x="389" y="-69" font-family="Helvetica,sans-Serif" font-size="10.00">odp/api/spec/align.h</text>
</a>
</g>
</g>
<!-- Node9&#45;&gt;Node11 -->
<g id="edge11" class="edge">
<title>Node9&#45;&gt;Node11</title>
<path fill="none" stroke="midnightblue" d="M444.69,-123.48C434.55,-114.2 418.14,-99.17 405.75,-87.83"/>
<polygon fill="midnightblue" stroke="midnightblue" points="408.04,-85.18 398.3,-81.01 403.31,-90.34 408.04,-85.18"/>
</g>
<!-- Node11&#45;&gt;Node4 -->
<g id="edge12" class="edge">
<title>Node11&#45;&gt;Node4</title>
<path fill="none" stroke="midnightblue" d="M360.49,-61.98C325.76,-51.59 266.96,-34.01 228.31,-22.45"/>
<polygon fill="midnightblue" stroke="midnightblue" points="229.04,-19.02 218.46,-19.51 227.04,-25.73 229.04,-19.02"/>
</g>
<!-- Node11&#45;&gt;Node12 -->
<g id="edge13" class="edge">
<title>Node11&#45;&gt;Node12</title>
<path fill="none" stroke="midnightblue" d="M424.14,-61.98C434.07,-59.79 444.92,-57.61 455,-56 590.56,-34.41 750.84,-21.32 838.85,-15.19"/>
<polygon fill="midnightblue" stroke="midnightblue" points="839.22,-18.67 848.96,-14.5 838.74,-11.69 839.22,-18.67"/>
</g>
<!-- Node14 -->
<g id="node14" class="node">
<title>Node14</title>
<g id="a_node14"><a xlink:title=" ">
<polygon fill="white" stroke="#bfbfbf" points="764.5,-794.5 764.5,-813.5 901.5,-813.5 901.5,-794.5 764.5,-794.5"/>
<text text-anchor="middle" x="833" y="-801.5" font-family="Helvetica,sans-Serif" font-size="10.00">odp/api/abi/dma_types.h</text>
</a>
</g>
</g>
<!-- Node13&#45;&gt;Node14 -->
<g id="edge16" class="edge">
<title>Node13&#45;&gt;Node14</title>
<path fill="none" stroke="midnightblue" d="M765.85,-850.32C778.22,-841.98 797.13,-829.21 811.74,-819.35"/>
<polygon fill="midnightblue" stroke="midnightblue" points="813.85,-822.15 820.18,-813.65 809.93,-816.35 813.85,-822.15"/>
</g>
<!-- Node15 -->
<g id="node15" class="node">
<title>Node15</title>
<g id="a_node15"><a xlink:href="spec_2dma__types_8h.html" target="_top" xlink:title="ODP DMA.">
<polygon fill="white" stroke="black" points="602,-794.5 602,-813.5 746,-813.5 746,-794.5 602,-794.5"/>
<text text-anchor="middle" x="674" y="-801.5" font-family="Helvetica,sans-Serif" font-size="10.00">odp/api/spec/dma_types.h</text>
</a>
</g>
</g>
<!-- Node13&#45;&gt;Node15 -->
<g id="edge17" class="edge">
<title>Node13&#45;&gt;Node15</title>
<path fill="none" stroke="midnightblue" d="M740.31,-850.32C728.1,-841.98 709.42,-829.21 695,-819.35"/>
<polygon fill="midnightblue" stroke="midnightblue" points="696.89,-816.41 686.66,-813.65 692.94,-822.19 696.89,-816.41"/>
</g>
<!-- Node15&#45;&gt;Node4 -->
<g id="edge18" class="edge">
<title>Node15&#45;&gt;Node4</title>
<path fill="none" stroke="midnightblue" d="M601.94,-796.39C549.16,-790.13 476.35,-778.54 415,-758 236.41,-698.2 38,-752.84 38,-564.5 38,-564.5 38,-564.5 38,-132 38,-74.18 106.15,-39.54 151.19,-22.96"/>
<polygon fill="midnightblue" stroke="midnightblue" points="152.43,-26.24 160.69,-19.6 150.1,-19.64 152.43,-26.24"/>
</g>
<!-- Node15&#45;&gt;Node5 -->
<g id="edge54" class="edge">
<title>Node15&#45;&gt;Node5</title>
<path fill="none" stroke="midnightblue" d="M691.67,-794.28C722.06,-777.9 781,-739.44 781,-687.5 781,-687.5 781,-687.5 781,-624 781,-548.52 891.48,-352.7 848,-291 834.13,-271.31 810.82,-260.19 788,-253.93"/>
<polygon fill="midnightblue" stroke="midnightblue" points="788.83,-250.52 778.28,-251.53 787.15,-257.32 788.83,-250.52"/>
</g>
<!-- Node15&#45;&gt;Node12 -->
<g id="edge55" class="edge">
<title>Node15&#45;&gt;Node12</title>
<path fill="none" stroke="midnightblue" d="M741.71,-794.47C785.07,-787.67 842,-776.19 890,-758 937.38,-740.04 1046.04,-670.7 1082,-635 1109.44,-607.75 1133,-603.17 1133,-564.5 1133,-564.5 1133,-564.5 1133,-132 1133,-94.24 1124.6,-79.45 1095,-56 1060.04,-28.31 1010.84,-17.2 971.27,-12.93"/>
<polygon fill="midnightblue" stroke="midnightblue" points="971.45,-9.44 961.17,-11.97 970.79,-16.41 971.45,-9.44"/>
</g>
<!-- Node16 -->
<g id="node16" class="node">
<title>Node16</title>
<g id="a_node16"><a xlink:href="event__types_8h.html" target="_top" xlink:title="ODP event API type definitions.">
<polygon fill="white" stroke="black" points="923.5,-615.5 923.5,-634.5 1048.5,-634.5 1048.5,-615.5 923.5,-615.5"/>
<text text-anchor="middle" x="986" y="-622.5" font-family="Helvetica,sans-Serif" font-size="10.00">odp/api/event_types.h</text>
</a>
</g>
</g>
<!-- Node15&#45;&gt;Node16 -->
<g id="edge19" class="edge">
<title>Node15&#45;&gt;Node16</title>
<path fill="none" stroke="midnightblue" d="M712.68,-794.49C783.97,-778.05 932.01,-740.18 967,-702 981.19,-686.52 985.17,-662.07 986.1,-645.1"/>
<polygon fill="midnightblue" stroke="midnightblue" points="989.61,-644.83 986.34,-634.75 982.61,-644.67 989.61,-644.83"/>
</g>
<!-- Node19 -->
<g id="node19" class="node">
<title>Node19</title>
<g id="a_node19"><a xlink:href="packet__types_8h.html" target="_top" xlink:title="ODP packet.">
<polygon fill="white" stroke="black" points="538.5,-738.5 538.5,-757.5 667.5,-757.5 667.5,-738.5 538.5,-738.5"/>
<text text-anchor="middle" x="603" y="-745.5" font-family="Helvetica,sans-Serif" font-size="10.00">odp/api/packet_types.h</text>
</a>
</g>
</g>
<!-- Node15&#45;&gt;Node19 -->
<g id="edge24" class="edge">
<title>Node15&#45;&gt;Node19</title>
<path fill="none" stroke="midnightblue" d="M662.59,-794.32C651.89,-786.18 635.66,-773.84 622.84,-764.09"/>
<polygon fill="midnightblue" stroke="midnightblue" points="624.69,-761.1 614.61,-757.83 620.46,-766.67 624.69,-761.1"/>
</g>
<!-- Node26 -->
<g id="node26" class="node">
<title>Node26</title>
<g id="a_node26"><a xlink:href="queue__types_8h.html" target="_top" xlink:title="ODP queue.">
<polygon fill="white" stroke="black" points="540.5,-615.5 540.5,-634.5 667.5,-634.5 667.5,-615.5 540.5,-615.5"/>
<text text-anchor="middle" x="604" y="-622.5" font-family="Helvetica,sans-Serif" font-size="10.00">odp/api/queue_types.h</text>
</a>
</g>
</g>
<!-- Node15&#45;&gt;Node26 -->
<g id="edge53" class="edge">
<title>Node15&#45;&gt;Node26</title>
<path fill="none" stroke="midnightblue" d="M601.83,-800.83C532.27,-794.39 430.63,-772.56 382,-702 343.12,-645.58 451.16,-630.49 529.85,-626.78"/>
<polygon fill="midnightblue" stroke="midnightblue" points="530.41,-630.26 540.25,-626.34 530.12,-623.26 530.41,-630.26"/>
</g>
<!-- Node17 -->
<g id="node17" class="node">
<title>Node17</title>
<g id="a_node17"><a xlink:title=" ">
<polygon fill="white" stroke="#bfbfbf" points="885.5,-554 885.5,-573 1028.5,-573 1028.5,-554 885.5,-554"/>
<text text-anchor="middle" x="957" y="-561" font-family="Helvetica,sans-Serif" font-size="10.00">odp/api/abi/event_types.h</text>
</a>
</g>
</g>
<!-- Node16&#45;&gt;Node17 -->
<g id="edge20" class="edge">
<title>Node16&#45;&gt;Node17</title>
<path fill="none" stroke="midnightblue" d="M981.85,-615.48C977.62,-606.82 970.96,-593.15 965.6,-582.15"/>
<polygon fill="midnightblue" stroke="midnightblue" points="968.67,-580.46 961.15,-573.01 962.38,-583.53 968.67,-580.46"/>
</g>
<!-- Node18 -->
<g id="node18" class="node">
<title>Node18</title>
<g id="a_node18"><a xlink:href="spec_2event__types_8h.html" target="_top" xlink:title="ODP event API type definitions.">
<polygon fill="white" stroke="black" points="729.5,-56.5 729.5,-86.5 838.5,-86.5 838.5,-56.5 729.5,-56.5"/>
<text text-anchor="start" x="737.5" y="-74.5" font-family="Helvetica,sans-Serif" font-size="10.00">odp/api/spec/event</text>
<text text-anchor="middle" x="784" y="-63.5" font-family="Helvetica,sans-Serif" font-size="10.00">_types.h</text>
</a>
</g>
</g>
<!-- Node16&#45;&gt;Node18 -->
<g id="edge21" class="edge">
<title>Node16&#45;&gt;Node18</title>
<path fill="none" stroke="midnightblue" d="M1000.07,-615.41C1011.95,-607.42 1028.5,-594.46 1038,-579 1056.23,-549.34 1057,-537.82 1057,-503 1057,-503 1057,-503 1057,-372.5 1057,-234.4 896.79,-131.83 821.83,-91.4"/>
<polygon fill="midnightblue" stroke="midnightblue" points="823.17,-88.15 812.7,-86.55 819.89,-94.33 823.17,-88.15"/>
</g>
<!-- Node18&#45;&gt;Node4 -->
<g id="edge22" class="edge">
<title>Node18&#45;&gt;Node4</title>
<path fill="none" stroke="midnightblue" d="M729.45,-65.04C621.6,-54.23 381.18,-30.15 261.1,-18.12"/>
<polygon fill="midnightblue" stroke="midnightblue" points="261.21,-14.62 250.91,-17.1 260.52,-21.58 261.21,-14.62"/>
</g>
<!-- Node18&#45;&gt;Node12 -->
<g id="edge23" class="edge">
<title>Node18&#45;&gt;Node12</title>
<path fill="none" stroke="midnightblue" d="M812.68,-56.4C832.52,-46.64 858.76,-33.74 878.19,-24.18"/>
<polygon fill="midnightblue" stroke="midnightblue" points="879.96,-27.21 887.39,-19.66 876.88,-20.93 879.96,-27.21"/>
</g>
<!-- Node20 -->
<g id="node20" class="node">
<title>Node20</title>
<g id="a_node20"><a xlink:title=" ">
<polygon fill="white" stroke="#bfbfbf" points="391,-671.5 391,-701.5 497,-701.5 497,-671.5 391,-671.5"/>
<text text-anchor="start" x="399" y="-689.5" font-family="Helvetica,sans-Serif" font-size="10.00">odp/api/abi/packet</text>
<text text-anchor="middle" x="444" y="-678.5" font-family="Helvetica,sans-Serif" font-size="10.00">_io_types.h</text>
</a>
</g>
</g>
<!-- Node19&#45;&gt;Node20 -->
<g id="edge25" class="edge">
<title>Node19&#45;&gt;Node20</title>
<path fill="none" stroke="midnightblue" d="M580.22,-738.48C557.07,-729.81 520.55,-716.15 491.14,-705.14"/>
<polygon fill="midnightblue" stroke="midnightblue" points="492.07,-701.75 481.47,-701.52 489.61,-708.31 492.07,-701.75"/>
</g>
<!-- Node21 -->
<g id="node21" class="node">
<title>Node21</title>
<g id="a_node21"><a xlink:title=" ">
<polygon fill="white" stroke="#bfbfbf" points="515,-671.5 515,-701.5 621,-701.5 621,-671.5 515,-671.5"/>
<text text-anchor="start" x="523" y="-689.5" font-family="Helvetica,sans-Serif" font-size="10.00">odp/api/abi/packet</text>
<text text-anchor="middle" x="568" y="-678.5" font-family="Helvetica,sans-Serif" font-size="10.00">_types.h</text>
</a>
</g>
</g>
<!-- Node19&#45;&gt;Node21 -->
<g id="edge26" class="edge">
<title>Node19&#45;&gt;Node21</title>
<path fill="none" stroke="midnightblue" d="M597.99,-738.48C593.64,-731.09 587.16,-720.08 581.34,-710.17"/>
<polygon fill="midnightblue" stroke="midnightblue" points="584.34,-708.37 576.25,-701.52 578.3,-711.92 584.34,-708.37"/>
</g>
<!-- Node22 -->
<g id="node22" class="node">
<title>Node22</title>
<g id="a_node22"><a xlink:href="spec_2packet__types_8h.html" target="_top" xlink:title="ODP packet types.">
<polygon fill="white" stroke="black" points="639.5,-671.5 639.5,-701.5 752.5,-701.5 752.5,-671.5 639.5,-671.5"/>
<text text-anchor="start" x="647.5" y="-689.5" font-family="Helvetica,sans-Serif" font-size="10.00">odp/api/spec/packet</text>
<text text-anchor="middle" x="696" y="-678.5" font-family="Helvetica,sans-Serif" font-size="10.00">_types.h</text>
</a>
</g>
</g>
<!-- Node19&#45;&gt;Node22 -->
<g id="edge27" class="edge">
<title>Node19&#45;&gt;Node22</title>
<path fill="none" stroke="midnightblue" d="M616.32,-738.48C629.04,-730.34 648.65,-717.79 665.24,-707.18"/>
<polygon fill="midnightblue" stroke="midnightblue" points="667.54,-709.86 674.08,-701.52 663.77,-703.96 667.54,-709.86"/>
</g>
<!-- Node22&#45;&gt;Node4 -->
<g id="edge28" class="edge">
<title>Node22&#45;&gt;Node4</title>
<path fill="none" stroke="midnightblue" d="M642.21,-671.46C571.5,-652.56 443.75,-616.92 337,-579 263.97,-553.05 243.86,-549.44 176,-512 128.39,-485.73 76,-495.88 76,-441.5 76,-441.5 76,-441.5 76,-132 76,-81.35 129.58,-43.28 163.27,-24.34"/>
<polygon fill="midnightblue" stroke="midnightblue" points="165.06,-27.36 172.19,-19.52 161.73,-21.2 165.06,-27.36"/>
</g>
<!-- Node22&#45;&gt;Node12 -->
<g id="edge52" class="edge">
<title>Node22&#45;&gt;Node12</title>
<path fill="none" stroke="midnightblue" d="M717.5,-671.33C795.22,-618.2 1057,-422.03 1057,-190 1057,-190 1057,-190 1057,-132 1057,-74.18 988.85,-39.54 943.81,-22.96"/>
<polygon fill="midnightblue" stroke="midnightblue" points="944.9,-19.64 934.31,-19.6 942.57,-26.24 944.9,-19.64"/>
</g>
<!-- Node23 -->
<g id="node23" class="node">
<title>Node23</title>
<g id="a_node23"><a xlink:href="proto__stats__types_8h.html" target="_top" xlink:title="ODP proto stats types.">
<polygon fill="white" stroke="black" points="688,-358.5 688,-388.5 798,-388.5 798,-358.5 688,-358.5"/>
<text text-anchor="start" x="696" y="-376.5" font-family="Helvetica,sans-Serif" font-size="10.00">odp/api/proto_stats</text>
<text text-anchor="middle" x="743" y="-365.5" font-family="Helvetica,sans-Serif" font-size="10.00">_types.h</text>
</a>
</g>
</g>
<!-- Node22&#45;&gt;Node23 -->
<g id="edge29" class="edge">
<title>Node22&#45;&gt;Node23</title>
<path fill="none" stroke="midnightblue" d="M705.51,-671.3C719.24,-649.37 743,-605.52 743,-564.5 743,-564.5 743,-564.5 743,-501 743,-465.42 743,-424.2 743,-398.74"/>
<polygon fill="midnightblue" stroke="midnightblue" points="746.5,-398.54 743,-388.54 739.5,-398.54 746.5,-398.54"/>
</g>
<!-- Node22&#45;&gt;Node26 -->
<g id="edge35" class="edge">
<title>Node22&#45;&gt;Node26</title>
<path fill="none" stroke="midnightblue" d="M674.2,-671.4C659.59,-661.95 640.43,-649.56 625.82,-640.11"/>
<polygon fill="midnightblue" stroke="midnightblue" points="627.68,-637.15 617.39,-634.66 623.88,-643.03 627.68,-637.15"/>
</g>
<!-- Node24 -->
<g id="node24" class="node">
<title>Node24</title>
<g id="a_node24"><a xlink:title=" ">
<polygon fill="white" stroke="#bfbfbf" points="711,-291.5 711,-321.5 839,-321.5 839,-291.5 711,-291.5"/>
<text text-anchor="start" x="719" y="-309.5" font-family="Helvetica,sans-Serif" font-size="10.00">odp/api/abi/proto_stats</text>
<text text-anchor="middle" x="775" y="-298.5" font-family="Helvetica,sans-Serif" font-size="10.00">_types.h</text>
</a>
</g>
</g>
<!-- Node23&#45;&gt;Node24 -->
<g id="edge30" class="edge">
<title>Node23&#45;&gt;Node24</title>
<path fill="none" stroke="midnightblue" d="M749.94,-358.4C753.93,-350.3 759.03,-339.94 763.59,-330.69"/>
<polygon fill="midnightblue" stroke="midnightblue" points="766.79,-332.09 768.07,-321.58 760.51,-329 766.79,-332.09"/>
</g>
<!-- Node25 -->
<g id="node25" class="node">
<title>Node25</title>
<g id="a_node25"><a xlink:href="spec_2proto__stats__types_8h.html" target="_top" xlink:title="ODP proto stats types.">
<polygon fill="white" stroke="black" points="585.5,-291.5 585.5,-321.5 692.5,-321.5 692.5,-291.5 585.5,-291.5"/>
<text text-anchor="start" x="593.5" y="-309.5" font-family="Helvetica,sans-Serif" font-size="10.00">odp/api/spec/proto</text>
<text text-anchor="middle" x="639" y="-298.5" font-family="Helvetica,sans-Serif" font-size="10.00">_stats_types.h</text>
</a>
</g>
</g>
<!-- Node23&#45;&gt;Node25 -->
<g id="edge31" class="edge">
<title>Node23&#45;&gt;Node25</title>
<path fill="none" stroke="midnightblue" d="M720.43,-358.4C705.71,-349.2 686.31,-337.07 670.13,-326.95"/>
<polygon fill="midnightblue" stroke="midnightblue" points="671.86,-323.91 661.52,-321.58 668.15,-329.84 671.86,-323.91"/>
</g>
<!-- Node25&#45;&gt;Node4 -->
<g id="edge32" class="edge">
<title>Node25&#45;&gt;Node4</title>
<path fill="none" stroke="midnightblue" d="M585.16,-294.5C481.87,-272.64 266,-223.01 266,-190 266,-190 266,-190 266,-132 266,-88.48 230.3,-47.77 207.84,-26.47"/>
<polygon fill="midnightblue" stroke="midnightblue" points="209.99,-23.7 200.25,-19.53 205.27,-28.86 209.99,-23.7"/>
</g>
<!-- Node25&#45;&gt;Node5 -->
<g id="edge33" class="edge">
<title>Node25&#45;&gt;Node5</title>
<path fill="none" stroke="midnightblue" d="M658.67,-291.4C671.6,-282.13 688.49,-270.03 701.57,-260.65"/>
<polygon fill="midnightblue" stroke="midnightblue" points="703.83,-263.33 709.92,-254.66 699.76,-257.64 703.83,-263.33"/>
</g>
<!-- Node25&#45;&gt;Node12 -->
<g id="edge34" class="edge">
<title>Node25&#45;&gt;Node12</title>
<path fill="none" stroke="midnightblue" d="M687.63,-291.48C754.59,-270.7 867,-229.88 867,-190 867,-190 867,-190 867,-132 867,-93.81 884.44,-51.83 895.69,-28.72"/>
<polygon fill="midnightblue" stroke="midnightblue" points="898.96,-30.02 900.34,-19.52 892.71,-26.86 898.96,-30.02"/>
</g>
<!-- Node27 -->
<g id="node27" class="node">
<title>Node27</title>
<g id="a_node27"><a xlink:title=" ">
<polygon fill="white" stroke="#bfbfbf" points="346.5,-554 346.5,-573 491.5,-573 491.5,-554 346.5,-554"/>
<text text-anchor="middle" x="419" y="-561" font-family="Helvetica,sans-Serif" font-size="10.00">odp/api/abi/queue_types.h</text>
</a>
</g>
</g>
<!-- Node26&#45;&gt;Node27 -->
<g id="edge36" class="edge">
<title>Node26&#45;&gt;Node27</title>
<path fill="none" stroke="midnightblue" d="M577.49,-615.48C545.35,-605.14 491.01,-587.66 455.07,-576.1"/>
<polygon fill="midnightblue" stroke="midnightblue" points="456.05,-572.74 445.46,-573.01 453.9,-579.4 456.05,-572.74"/>
</g>
<!-- Node28 -->
<g id="node28" class="node">
<title>Node28</title>
<g id="a_node28"><a xlink:href="spec_2queue__types_8h.html" target="_top" xlink:title="ODP queue types.">
<polygon fill="white" stroke="black" points="548.5,-548.5 548.5,-578.5 659.5,-578.5 659.5,-548.5 548.5,-548.5"/>
<text text-anchor="start" x="556.5" y="-566.5" font-family="Helvetica,sans-Serif" font-size="10.00">odp/api/spec/queue</text>
<text text-anchor="middle" x="604" y="-555.5" font-family="Helvetica,sans-Serif" font-size="10.00">_types.h</text>
</a>
</g>
</g>
<!-- Node26&#45;&gt;Node28 -->
<g id="edge37" class="edge">
<title>Node26&#45;&gt;Node28</title>
<path fill="none" stroke="midnightblue" d="M604,-615.48C604,-608.47 604,-598.19 604,-588.7"/>
<polygon fill="midnightblue" stroke="midnightblue" points="607.5,-588.52 604,-578.52 600.5,-588.52 607.5,-588.52"/>
</g>
<!-- Node28&#45;&gt;Node4 -->
<g id="edge38" class="edge">
<title>Node28&#45;&gt;Node4</title>
<path fill="none" stroke="midnightblue" d="M555.23,-548.42C431.29,-511.2 114,-406.28 114,-307.5 114,-307.5 114,-307.5 114,-132 114,-88.48 149.7,-47.77 172.16,-26.47"/>
<polygon fill="midnightblue" stroke="midnightblue" points="174.73,-28.86 179.75,-19.53 170.01,-23.7 174.73,-28.86"/>
</g>
<!-- Node28&#45;&gt;Node12 -->
<g id="edge51" class="edge">
<title>Node28&#45;&gt;Node12</title>
<path fill="none" stroke="midnightblue" d="M628.74,-548.49C712.61,-500.16 981,-338.3 981,-246 981,-246 981,-246 981,-132 981,-88.48 945.3,-47.77 922.84,-26.47"/>
<polygon fill="midnightblue" stroke="midnightblue" points="924.99,-23.7 915.25,-19.53 920.27,-28.86 924.99,-23.7"/>
</g>
<!-- Node29 -->
<g id="node29" class="node">
<title>Node29</title>
<g id="a_node29"><a xlink:href="schedule__types_8h.html" target="_top" xlink:title="ODP schedule.">
<polygon fill="white" stroke="black" points="487,-492.5 487,-511.5 627,-511.5 627,-492.5 487,-492.5"/>
<text text-anchor="middle" x="557" y="-499.5" font-family="Helvetica,sans-Serif" font-size="10.00">odp/api/schedule_types.h</text>
</a>
</g>
</g>
<!-- Node28&#45;&gt;Node29 -->
<g id="edge39" class="edge">
<title>Node28&#45;&gt;Node29</title>
<path fill="none" stroke="midnightblue" d="M592.86,-548.4C586.03,-539.75 577.26,-528.64 570.09,-519.58"/>
<polygon fill="midnightblue" stroke="midnightblue" points="572.78,-517.34 563.84,-511.66 567.29,-521.67 572.78,-517.34"/>
</g>
<!-- Node30 -->
<g id="node30" class="node">
<title>Node30</title>
<g id="a_node30"><a xlink:title=" ">
<polygon fill="white" stroke="#bfbfbf" points="359.5,-425.5 359.5,-455.5 476.5,-455.5 476.5,-425.5 359.5,-425.5"/>
<text text-anchor="start" x="367.5" y="-443.5" font-family="Helvetica,sans-Serif" font-size="10.00">odp/api/abi/schedule</text>
<text text-anchor="middle" x="418" y="-432.5" font-family="Helvetica,sans-Serif" font-size="10.00">_types.h</text>
</a>
</g>
</g>
<!-- Node29&#45;&gt;Node30 -->
<g id="edge40" class="edge">
<title>Node29&#45;&gt;Node30</title>
<path fill="none" stroke="midnightblue" d="M537.08,-492.48C517.12,-483.93 485.75,-470.5 460.22,-459.57"/>
<polygon fill="midnightblue" stroke="midnightblue" points="461.33,-456.24 450.76,-455.52 458.58,-462.68 461.33,-456.24"/>
</g>
<!-- Node31 -->
<g id="node31" class="node">
<title>Node31</title>
<g id="a_node31"><a xlink:href="spec_2schedule__types_8h.html" target="_top" xlink:title="ODP schedule types.">
<polygon fill="white" stroke="black" points="494.5,-425.5 494.5,-455.5 619.5,-455.5 619.5,-425.5 494.5,-425.5"/>
<text text-anchor="start" x="502.5" y="-443.5" font-family="Helvetica,sans-Serif" font-size="10.00">odp/api/spec/schedule</text>
<text text-anchor="middle" x="557" y="-432.5" font-family="Helvetica,sans-Serif" font-size="10.00">_types.h</text>
</a>
</g>
</g>
<!-- Node29&#45;&gt;Node31 -->
<g id="edge41" class="edge">
<title>Node29&#45;&gt;Node31</title>
<path fill="none" stroke="midnightblue" d="M557,-492.48C557,-485.47 557,-475.19 557,-465.7"/>
<polygon fill="midnightblue" stroke="midnightblue" points="560.5,-465.52 557,-455.52 553.5,-465.52 560.5,-465.52"/>
</g>
<!-- Node31&#45;&gt;Node4 -->
<g id="edge42" class="edge">
<title>Node31&#45;&gt;Node4</title>
<path fill="none" stroke="midnightblue" d="M509.48,-425.43C478.36,-415.9 436.94,-402.6 401,-389 268.5,-338.87 152,-331.67 152,-190 152,-190 152,-190 152,-132 152,-93.81 169.44,-51.83 180.69,-28.72"/>
<polygon fill="midnightblue" stroke="midnightblue" points="183.96,-30.02 185.34,-19.52 177.71,-26.86 183.96,-30.02"/>
</g>
<!-- Node31&#45;&gt;Node5 -->
<g id="edge43" class="edge">
<title>Node31&#45;&gt;Node5</title>
<path fill="none" stroke="midnightblue" d="M554.24,-425.28C549.49,-396.32 543.2,-329.98 576,-291 587.9,-276.86 630.13,-264.77 666.13,-256.7"/>
<polygon fill="midnightblue" stroke="midnightblue" points="667.06,-260.08 676.09,-254.53 665.57,-253.24 667.06,-260.08"/>
</g>
<!-- Node31&#45;&gt;Node12 -->
<g id="edge50" class="edge">
<title>Node31&#45;&gt;Node12</title>
<path fill="none" stroke="midnightblue" d="M619.73,-439.65C673.52,-436.95 750.97,-426.09 807,-389 871.25,-346.48 905,-323.05 905,-246 905,-246 905,-246 905,-132 905,-95.71 905,-53.31 905,-29.56"/>
<polygon fill="midnightblue" stroke="midnightblue" points="908.5,-29.51 905,-19.51 901.5,-29.51 908.5,-29.51"/>
</g>
<!-- Node32 -->
<g id="node32" class="node">
<title>Node32</title>
<g id="a_node32"><a xlink:href="thrmask_8h.html" target="_top" xlink:title="ODP thread masks.">
<polygon fill="white" stroke="black" points="410.5,-364 410.5,-383 515.5,-383 515.5,-364 410.5,-364"/>
<text text-anchor="middle" x="463" y="-371" font-family="Helvetica,sans-Serif" font-size="10.00">odp/api/thrmask.h</text>
</a>
</g>
</g>
<!-- Node31&#45;&gt;Node32 -->
<g id="edge44" class="edge">
<title>Node31&#45;&gt;Node32</title>
<path fill="none" stroke="midnightblue" d="M536.6,-425.4C520.99,-414.6 499.52,-399.76 483.81,-388.89"/>
<polygon fill="midnightblue" stroke="midnightblue" points="485.52,-385.82 475.3,-383.01 481.54,-391.57 485.52,-385.82"/>
</g>
<!-- Node33 -->
<g id="node33" class="node">
<title>Node33</title>
<g id="a_node33"><a xlink:title=" ">
<polygon fill="white" stroke="#bfbfbf" points="256.5,-297 256.5,-316 379.5,-316 379.5,-297 256.5,-297"/>
<text text-anchor="middle" x="318" y="-304" font-family="Helvetica,sans-Serif" font-size="10.00">odp/api/abi/thrmask.h</text>
</a>
</g>
</g>
<!-- Node32&#45;&gt;Node33 -->
<g id="edge45" class="edge">
<title>Node32&#45;&gt;Node33</title>
<path fill="none" stroke="midnightblue" d="M443.75,-363.87C418.83,-352.7 375.21,-333.15 346.47,-320.26"/>
<polygon fill="midnightblue" stroke="midnightblue" points="347.89,-317.06 337.33,-316.17 345.03,-323.45 347.89,-317.06"/>
</g>
<!-- Node34 -->
<g id="node34" class="node">
<title>Node34</title>
<g id="a_node34"><a xlink:href="spec_2thrmask_8h.html" target="_top" xlink:title="ODP thread masks.">
<polygon fill="white" stroke="black" points="397.5,-297 397.5,-316 528.5,-316 528.5,-297 397.5,-297"/>
<text text-anchor="middle" x="463" y="-304" font-family="Helvetica,sans-Serif" font-size="10.00">odp/api/spec/thrmask.h</text>
</a>
</g>
</g>
<!-- Node32&#45;&gt;Node34 -->
<g id="edge46" class="edge">
<title>Node32&#45;&gt;Node34</title>
<path fill="none" stroke="midnightblue" d="M463,-363.73C463,-354.18 463,-338.62 463,-326.28"/>
<polygon fill="midnightblue" stroke="midnightblue" points="466.5,-326.13 463,-316.13 459.5,-326.13 466.5,-326.13"/>
</g>
<!-- Node34&#45;&gt;Node4 -->
<g id="edge47" class="edge">
<title>Node34&#45;&gt;Node4</title>
<path fill="none" stroke="midnightblue" d="M422.89,-296.92C363.5,-284.07 258.44,-260.72 252,-255 228.97,-234.56 228,-220.8 228,-190 228,-190 228,-190 228,-132 228,-93.81 210.56,-51.83 199.31,-28.72"/>
<polygon fill="midnightblue" stroke="midnightblue" points="202.29,-26.86 194.66,-19.52 196.04,-30.02 202.29,-26.86"/>
</g>
<!-- Node34&#45;&gt;Node5 -->
<g id="edge48" class="edge">
<title>Node34&#45;&gt;Node5</title>
<path fill="none" stroke="midnightblue" d="M500.11,-296.98C546.17,-286.39 624.77,-268.34 675,-256.8"/>
<polygon fill="midnightblue" stroke="midnightblue" points="676,-260.16 684.96,-254.51 674.43,-253.34 676,-260.16"/>
</g>
<!-- Node34&#45;&gt;Node12 -->
<g id="edge49" class="edge">
<title>Node34&#45;&gt;Node12</title>
<path fill="none" stroke="midnightblue" d="M505.81,-296.92C557.62,-283.76 638,-253.16 638,-190 638,-190 638,-190 638,-132 638,-44.21 759.24,-19.79 838.32,-13.2"/>
<polygon fill="midnightblue" stroke="midnightblue" points="838.99,-16.66 848.7,-12.42 838.47,-9.68 838.99,-16.66"/>
</g>
<!-- Node36 -->
<g id="node36" class="node">
<title>Node36</title>
<g id="a_node36"><a xlink:title=" ">
<polygon fill="white" stroke="#bfbfbf" points="1052,-677 1052,-696 1180,-696 1180,-677 1052,-677"/>
<text text-anchor="middle" x="1116" y="-684" font-family="Helvetica,sans-Serif" font-size="10.00">odp/api/abi/ml_types.h</text>
</a>
</g>
</g>
<!-- Node35&#45;&gt;Node36 -->
<g id="edge57" class="edge">
<title>Node35&#45;&gt;Node36</title>
<path fill="none" stroke="midnightblue" d="M1108.29,-738.48C1109.56,-730.08 1111.54,-716.98 1113.18,-706.16"/>
<polygon fill="midnightblue" stroke="midnightblue" points="1116.68,-706.42 1114.71,-696.01 1109.76,-705.37 1116.68,-706.42"/>
</g>
<!-- Node37 -->
<g id="node37" class="node">
<title>Node37</title>
<g id="a_node37"><a xlink:href="spec_2ml__types_8h.html" target="_top" xlink:title="ODP Machine Learning (ML) types.">
<polygon fill="white" stroke="black" points="822.5,-677 822.5,-696 957.5,-696 957.5,-677 822.5,-677"/>
<text text-anchor="middle" x="890" y="-684" font-family="Helvetica,sans-Serif" font-size="10.00">odp/api/spec/ml_types.h</text>
</a>
</g>
</g>
<!-- Node35&#45;&gt;Node37 -->
<g id="edge58" class="edge">
<title>Node35&#45;&gt;Node37</title>
<path fill="none" stroke="midnightblue" d="M1075.91,-738.48C1037.72,-728 972.83,-710.21 930.7,-698.66"/>
<polygon fill="midnightblue" stroke="midnightblue" points="931.6,-695.28 921.03,-696.01 929.75,-702.03 931.6,-695.28"/>
</g>
<!-- Node37&#45;&gt;Node4 -->
<g id="edge59" class="edge">
<title>Node37&#45;&gt;Node4</title>
<path fill="none" stroke="midnightblue" d="M865.88,-676.95C826.57,-663.15 746.11,-635.43 677,-615 616.21,-597.03 595.7,-607.33 539,-579 519.19,-569.1 518.14,-560.7 500,-548 435.94,-503.14 408.13,-508.32 350,-456 294.17,-405.75 285.07,-386.75 247,-322 214.61,-266.91 190,-253.9 190,-190 190,-190 190,-190 190,-132 190,-95.71 190,-53.31 190,-29.56"/>
<polygon fill="midnightblue" stroke="midnightblue" points="193.5,-29.51 190,-19.51 186.5,-29.51 193.5,-29.51"/>
</g>
<!-- Node37&#45;&gt;Node5 -->
<g id="edge62" class="edge">
<title>Node37&#45;&gt;Node5</title>
<path fill="none" stroke="midnightblue" d="M888.6,-676.97C885.72,-658.95 879.23,-615.63 877,-579 869.23,-451.22 958.22,-393.1 881,-291 869.4,-275.67 826.37,-264.05 787.99,-256.47"/>
<polygon fill="midnightblue" stroke="midnightblue" points="788.32,-252.97 777.84,-254.53 787.01,-259.85 788.32,-252.97"/>
</g>
<!-- Node37&#45;&gt;Node12 -->
<g id="edge63" class="edge">
<title>Node37&#45;&gt;Node12</title>
<path fill="none" stroke="midnightblue" d="M957.58,-677.66C990.81,-670.91 1029.69,-658.35 1058,-635 1085.3,-612.48 1095,-599.89 1095,-564.5 1095,-564.5 1095,-564.5 1095,-132 1095,-96.58 1096.56,-80.53 1071,-56 1044.54,-30.61 1005.27,-19.23 971.57,-14.25"/>
<polygon fill="midnightblue" stroke="midnightblue" points="971.68,-10.73 961.31,-12.9 970.77,-17.68 971.68,-10.73"/>
</g>
<!-- Node37&#45;&gt;Node16 -->
<g id="edge60" class="edge">
<title>Node37&#45;&gt;Node16</title>
<path fill="none" stroke="midnightblue" d="M903.75,-676.98C919.37,-667.3 945.06,-651.37 963.58,-639.89"/>
<polygon fill="midnightblue" stroke="midnightblue" points="965.62,-642.75 972.27,-634.51 961.93,-636.8 965.62,-642.75"/>
</g>
<!-- Node37&#45;&gt;Node26 -->
<g id="edge61" class="edge">
<title>Node37&#45;&gt;Node26</title>
<path fill="none" stroke="midnightblue" d="M849.02,-676.98C797.84,-666.33 710.27,-648.11 654.86,-636.58"/>
<polygon fill="midnightblue" stroke="midnightblue" points="655.4,-633.12 644.9,-634.51 653.98,-639.97 655.4,-633.12"/>
</g>
</g>
</svg>
