<?xml version="1.0" encoding="UTF-8" standalone="no"?>
<!DOCTYPE svg PUBLIC "-//W3C//DTD SVG 1.1//EN"
 "http://www.w3.org/Graphics/SVG/1.1/DTD/svg11.dtd">
<!-- Generated by graphviz version 2.43.0 (0)
 -->
<!-- Title: pool_types.h Pages: 1 -->
<svg width="1450pt" height="467pt"
 viewBox="0.00 0.00 1450.00 467.00" xmlns="http://www.w3.org/2000/svg" xmlns:xlink="http://www.w3.org/1999/xlink">
<g id="graph0" class="graph" transform="scale(1 1) rotate(0) translate(4 463)">
<title>pool_types.h</title>
<!-- Node1 -->
<g id="Node000001" class="node">
<title>Node1</title>
<g id="a_Node000001"><a xlink:title="ODP pool.">
<polygon fill="#999999" stroke="#666666" points="674,-459 595,-459 595,-440 674,-440 674,-459"/>
<text text-anchor="middle" x="634.5" y="-447" font-family="Helvetica,sans-Serif" font-size="10.00">pool_types.h</text>
</a>
</g>
</g>
<!-- Node2 -->
<g id="Node000002" class="node">
<title>Node2</title>
<g id="a_Node000002"><a xlink:href="spec_2buffer_8h.html" target="_top" xlink:title="ODP buffer.">
<polygon fill="white" stroke="#666666" points="56,-404 3,-404 3,-385 56,-385 56,-404"/>
<text text-anchor="middle" x="29.5" y="-392" font-family="Helvetica,sans-Serif" font-size="10.00">buffer.h</text>
</a>
</g>
</g>
<!-- Node1&#45;&gt;Node2 -->
<g id="edge1_Node000001_Node000002" class="edge">
<title>Node1&#45;&gt;Node2</title>
<g id="a_edge1_Node000001_Node000002"><a xlink:title=" ">
<path fill="none" stroke="#63b8ff" d="M584.74,-446.68C486.18,-442.6 259.31,-430.91 70.5,-404 65.89,-403.34 61.03,-402.48 56.32,-401.56"/>
<polygon fill="#63b8ff" stroke="#63b8ff" points="584.86,-450.18 595,-447.09 585.15,-443.19 584.86,-450.18"/>
</a>
</g>
</g>
<!-- Node4 -->
<g id="Node000004" class="node">
<title>Node4</title>
<g id="a_Node000004"><a xlink:href="dma__inlines_8h_source.html" target="_top" xlink:title=" ">
<polygon fill="white" stroke="#666666" points="85,-294 0,-294 0,-275 85,-275 85,-294"/>
<text text-anchor="middle" x="42.5" y="-282" font-family="Helvetica,sans-Serif" font-size="10.00">dma_inlines.h</text>
</a>
</g>
</g>
<!-- Node1&#45;&gt;Node4 -->
<g id="edge23_Node000001_Node000004" class="edge">
<title>Node1&#45;&gt;Node4</title>
<g id="a_edge23_Node000001_Node000004"><a xlink:title=" ">
<path fill="none" stroke="#63b8ff" d="M584.81,-446.1C486.03,-440.89 268.4,-427.14 197.5,-404 151.48,-388.98 141.52,-378.96 103.5,-349 81.65,-331.78 60.04,-306.95 49.37,-294.03"/>
<polygon fill="#63b8ff" stroke="#63b8ff" points="584.67,-449.6 594.84,-446.62 585.03,-442.61 584.67,-449.6"/>
</a>
</g>
</g>
<!-- Node5 -->
<g id="Node000005" class="node">
<title>Node5</title>
<g id="a_Node000005"><a xlink:href="buffer__inlines_8h_source.html" target="_top" xlink:title=" ">
<polygon fill="white" stroke="#666666" points="396.5,-294 304.5,-294 304.5,-275 396.5,-275 396.5,-294"/>
<text text-anchor="middle" x="350.5" y="-282" font-family="Helvetica,sans-Serif" font-size="10.00">buffer_inlines.h</text>
</a>
</g>
</g>
<!-- Node1&#45;&gt;Node5 -->
<g id="edge4_Node000001_Node000005" class="edge">
<title>Node1&#45;&gt;Node5</title>
<g id="a_edge4_Node000001_Node000005"><a xlink:title=" ">
<path fill="none" stroke="#63b8ff" d="M604.78,-435.77C585.8,-427.35 560.83,-415.74 539.5,-404 485.92,-374.52 475.39,-362.36 423.5,-330 403.22,-317.35 379.58,-303.01 364.82,-294.11"/>
<polygon fill="#63b8ff" stroke="#63b8ff" points="603.54,-439.05 614.11,-439.87 606.36,-432.64 603.54,-439.05"/>
</a>
</g>
</g>
<!-- Node6 -->
<g id="Node000006" class="node">
<title>Node6</title>
<g id="a_Node000006"><a xlink:href="spec_2classification_8h.html" target="_top" xlink:title="ODP classification descriptor.">
<polygon fill="white" stroke="#666666" points="1442,-294 1353,-294 1353,-275 1442,-275 1442,-294"/>
<text text-anchor="middle" x="1397.5" y="-282" font-family="Helvetica,sans-Serif" font-size="10.00">classification.h</text>
</a>
</g>
</g>
<!-- Node1&#45;&gt;Node6 -->
<g id="edge5_Node000001_Node000006" class="edge">
<title>Node1&#45;&gt;Node6</title>
<g id="a_edge5_Node000001_Node000006"><a xlink:title=" ">
<path fill="none" stroke="#63b8ff" d="M684.16,-448.47C837.74,-447.97 1297.92,-443.17 1351.5,-404 1388.2,-377.17 1395.62,-316.79 1397.12,-294.23"/>
<polygon fill="#63b8ff" stroke="#63b8ff" points="684.06,-444.97 674.07,-448.5 684.08,-451.97 684.06,-444.97"/>
</a>
</g>
</g>
<!-- Node15 -->
<g id="Node000015" class="node">
<title>Node15</title>
<g id="a_Node000015"><a xlink:href="spec_2crypto__types_8h.html" target="_top" xlink:title="ODP crypto types.">
<polygon fill="white" stroke="#666666" points="202,-349 113,-349 113,-330 202,-330 202,-349"/>
<text text-anchor="middle" x="157.5" y="-337" font-family="Helvetica,sans-Serif" font-size="10.00">crypto_types.h</text>
</a>
</g>
</g>
<!-- Node1&#45;&gt;Node15 -->
<g id="edge14_Node000001_Node000015" class="edge">
<title>Node1&#45;&gt;Node15</title>
<g id="a_edge14_Node000001_Node000015"><a xlink:title=" ">
<path fill="none" stroke="#63b8ff" d="M584.71,-446.77C490.95,-442.9 292.02,-431.63 229.5,-404 201.14,-391.47 175.98,-363.63 164.35,-349.34"/>
<polygon fill="#63b8ff" stroke="#63b8ff" points="584.66,-450.27 594.79,-447.17 584.94,-443.28 584.66,-450.27"/>
</a>
</g>
</g>
<!-- Node20 -->
<g id="Node000020" class="node">
<title>Node20</title>
<g id="a_Node000020"><a xlink:href="spec_2dma_8h.html" target="_top" xlink:title="ODP DMA.">
<polygon fill="white" stroke="#666666" points="189,-294 142,-294 142,-275 189,-275 189,-294"/>
<text text-anchor="middle" x="165.5" y="-282" font-family="Helvetica,sans-Serif" font-size="10.00">dma.h</text>
</a>
</g>
</g>
<!-- Node1&#45;&gt;Node20 -->
<g id="edge21_Node000001_Node000020" class="edge">
<title>Node1&#45;&gt;Node20</title>
<g id="a_edge21_Node000001_Node000020"><a xlink:title=" ">
<path fill="none" stroke="#63b8ff" d="M584.76,-437.97C550.7,-430.13 504.76,-418.34 465.5,-404 393.42,-377.67 381.01,-357.84 309.5,-330 287.31,-321.36 223.89,-302.51 189.08,-292.34"/>
<polygon fill="#63b8ff" stroke="#63b8ff" points="584.41,-441.47 594.93,-440.27 585.95,-434.65 584.41,-441.47"/>
</a>
</g>
</g>
<!-- Node22 -->
<g id="Node000022" class="node">
<title>Node22</title>
<g id="a_Node000022"><a xlink:href="spec_2dma__types_8h.html" target="_top" xlink:title="ODP DMA.">
<polygon fill="white" stroke="#666666" points="318.5,-404 238.5,-404 238.5,-385 318.5,-385 318.5,-404"/>
<text text-anchor="middle" x="278.5" y="-392" font-family="Helvetica,sans-Serif" font-size="10.00">dma_types.h</text>
</a>
</g>
</g>
<!-- Node1&#45;&gt;Node22 -->
<g id="edge24_Node000001_Node000022" class="edge">
<title>Node1&#45;&gt;Node22</title>
<g id="a_edge24_Node000001_Node000022"><a xlink:title=" ">
<path fill="none" stroke="#63b8ff" d="M584.63,-441.08C513.41,-430.47 383.97,-411.2 318.59,-401.47"/>
<polygon fill="#63b8ff" stroke="#63b8ff" points="584.29,-444.56 594.7,-442.57 585.32,-437.64 584.29,-444.56"/>
</a>
</g>
</g>
<!-- Node25 -->
<g id="Node000025" class="node">
<title>Node25</title>
<g id="a_Node000025"><a xlink:href="spec_2event_8h.html" target="_top" xlink:title="ODP event.">
<polygon fill="white" stroke="#666666" points="634,-404 581,-404 581,-385 634,-385 634,-404"/>
<text text-anchor="middle" x="607.5" y="-392" font-family="Helvetica,sans-Serif" font-size="10.00">event.h</text>
</a>
</g>
</g>
<!-- Node1&#45;&gt;Node25 -->
<g id="edge30_Node000001_Node000025" class="edge">
<title>Node1&#45;&gt;Node25</title>
<g id="a_edge30_Node000001_Node000025"><a xlink:title=" ">
<path fill="none" stroke="#63b8ff" d="M625.49,-430.82C620.91,-421.82 615.55,-411.29 611.88,-404.09"/>
<polygon fill="#63b8ff" stroke="#63b8ff" points="622.38,-432.43 630.04,-439.75 628.62,-429.25 622.38,-432.43"/>
</a>
</g>
</g>
<!-- Node27 -->
<g id="Node000027" class="node">
<title>Node27</title>
<g id="a_Node000027"><a xlink:href="event__vector__inlines_8h.html" target="_top" xlink:title="Event vector inline functions.">
<polygon fill="white" stroke="#666666" points="542,-294 415,-294 415,-275 542,-275 542,-294"/>
<text text-anchor="middle" x="478.5" y="-282" font-family="Helvetica,sans-Serif" font-size="10.00">event_vector_inlines.h</text>
</a>
</g>
</g>
<!-- Node1&#45;&gt;Node27 -->
<g id="edge42_Node000001_Node000027" class="edge">
<title>Node1&#45;&gt;Node27</title>
<g id="a_edge42_Node000001_Node000027"><a xlink:title=" ">
<path fill="none" stroke="#63b8ff" d="M606.53,-435.33C591.81,-427.53 574.04,-416.7 560.5,-404 523.46,-369.25 493.6,-315.1 482.83,-294.17"/>
<polygon fill="#63b8ff" stroke="#63b8ff" points="605.2,-438.57 615.7,-440 608.38,-432.34 605.2,-438.57"/>
</a>
</g>
</g>
<!-- Node28 -->
<g id="Node000028" class="node">
<title>Node28</title>
<g id="a_Node000028"><a xlink:href="packet__inlines_8h.html" target="_top" xlink:title="Packet inline functions.">
<polygon fill="white" stroke="#666666" points="655,-294 560,-294 560,-275 655,-275 655,-294"/>
<text text-anchor="middle" x="607.5" y="-282" font-family="Helvetica,sans-Serif" font-size="10.00">packet_inlines.h</text>
</a>
</g>
</g>
<!-- Node1&#45;&gt;Node28 -->
<g id="edge49_Node000001_Node000028" class="edge">
<title>Node1&#45;&gt;Node28</title>
<g id="a_edge49_Node000001_Node000028"><a xlink:title=" ">
<path fill="none" stroke="#63b8ff" d="M604.42,-435.18C591.84,-427.91 578.54,-417.59 571.5,-404 556.37,-374.8 560.53,-361.01 571.5,-330 576.6,-315.57 588.6,-302.4 597.34,-294.19"/>
<polygon fill="#63b8ff" stroke="#63b8ff" points="602.88,-438.32 613.35,-439.93 606.17,-432.14 602.88,-438.32"/>
</a>
</g>
</g>
<!-- Node29 -->
<g id="Node000029" class="node">
<title>Node29</title>
<g id="a_Node000029"><a xlink:href="packet__vector__inlines_8h.html" target="_top" xlink:title="Packet vector inline functions.">
<polygon fill="white" stroke="#666666" points="989,-294 858,-294 858,-275 989,-275 989,-294"/>
<text text-anchor="middle" x="923.5" y="-282" font-family="Helvetica,sans-Serif" font-size="10.00">packet_vector_inlines.h</text>
</a>
</g>
</g>
<!-- Node1&#45;&gt;Node29 -->
<g id="edge59_Node000001_Node000029" class="edge">
<title>Node1&#45;&gt;Node29</title>
<g id="a_edge59_Node000001_Node000029"><a xlink:title=" ">
<path fill="none" stroke="#63b8ff" d="M644.52,-430.68C652.97,-416.86 666.14,-397.95 681.5,-385 741.76,-334.2 831.49,-306.55 883.07,-294.01"/>
<polygon fill="#63b8ff" stroke="#63b8ff" points="641.28,-429.29 639.23,-439.68 647.31,-432.83 641.28,-429.29"/>
</a>
</g>
</g>
<!-- Node31 -->
<g id="Node000031" class="node">
<title>Node31</title>
<g id="a_Node000031"><a xlink:href="event__inlines_8h_source.html" target="_top" xlink:title=" ">
<polygon fill="white" stroke="#666666" points="782,-404 691,-404 691,-385 782,-385 782,-404"/>
<text text-anchor="middle" x="736.5" y="-392" font-family="Helvetica,sans-Serif" font-size="10.00">event_inlines.h</text>
</a>
</g>
</g>
<!-- Node1&#45;&gt;Node31 -->
<g id="edge39_Node000001_Node000031" class="edge">
<title>Node1&#45;&gt;Node31</title>
<g id="a_edge39_Node000001_Node000031"><a xlink:title=" ">
<path fill="none" stroke="#63b8ff" d="M659.77,-435.37C678.51,-425.63 703.52,-412.64 719.81,-404.17"/>
<polygon fill="#63b8ff" stroke="#63b8ff" points="658.15,-432.27 650.89,-439.98 661.38,-438.48 658.15,-432.27"/>
</a>
</g>
</g>
<!-- Node32 -->
<g id="Node000032" class="node">
<title>Node32</title>
<g id="a_Node000032"><a xlink:href="spec_2event__vector_8h.html" target="_top" xlink:title="ODP event vector.">
<polygon fill="white" stroke="#666666" points="889,-404 800,-404 800,-385 889,-385 889,-404"/>
<text text-anchor="middle" x="844.5" y="-392" font-family="Helvetica,sans-Serif" font-size="10.00">event_vector.h</text>
</a>
</g>
</g>
<!-- Node1&#45;&gt;Node32 -->
<g id="edge40_Node000001_Node000032" class="edge">
<title>Node1&#45;&gt;Node32</title>
<g id="a_edge40_Node000001_Node000032"><a xlink:title=" ">
<path fill="none" stroke="#63b8ff" d="M678.08,-437.5C717.4,-427.58 774.45,-413.18 810.5,-404.08"/>
<polygon fill="#63b8ff" stroke="#63b8ff" points="677.08,-434.14 668.24,-439.98 678.79,-440.93 677.08,-434.14"/>
</a>
</g>
</g>
<!-- Node34 -->
<g id="Node000034" class="node">
<title>Node34</title>
<g id="a_Node000034"><a xlink:href="spec_2ml_8h.html" target="_top" xlink:title="ODP Machine Learning (ML) offload.">
<polygon fill="white" stroke="#666666" points="945.5,-404 907.5,-404 907.5,-385 945.5,-385 945.5,-404"/>
<text text-anchor="middle" x="926.5" y="-392" font-family="Helvetica,sans-Serif" font-size="10.00">ml.h</text>
</a>
</g>
</g>
<!-- Node1&#45;&gt;Node34 -->
<g id="edge43_Node000001_Node000034" class="edge">
<title>Node1&#45;&gt;Node34</title>
<g id="a_edge43_Node000001_Node000034"><a xlink:title=" ">
<path fill="none" stroke="#63b8ff" d="M684.62,-441.81C737.8,-434.29 824.1,-420.91 897.5,-404 900.67,-403.27 904.01,-402.39 907.24,-401.49"/>
<polygon fill="#63b8ff" stroke="#63b8ff" points="683.86,-438.38 674.44,-443.23 684.83,-445.31 683.86,-438.38"/>
</a>
</g>
</g>
<!-- Node36 -->
<g id="Node000036" class="node">
<title>Node36</title>
<g id="a_Node000036"><a xlink:href="spec_2packet_8h.html" target="_top" xlink:title="ODP packet descriptor.">
<polygon fill="white" stroke="#666666" points="1065.5,-294 1007.5,-294 1007.5,-275 1065.5,-275 1065.5,-294"/>
<text text-anchor="middle" x="1036.5" y="-282" font-family="Helvetica,sans-Serif" font-size="10.00">packet.h</text>
</a>
</g>
</g>
<!-- Node1&#45;&gt;Node36 -->
<g id="edge45_Node000001_Node000036" class="edge">
<title>Node1&#45;&gt;Node36</title>
<g id="a_edge45_Node000001_Node000036"><a xlink:title=" ">
<path fill="none" stroke="#63b8ff" d="M684.26,-446.42C762.58,-442.35 910.27,-431.23 954.5,-404 998.39,-376.98 1024.74,-316.71 1033.36,-294.2"/>
<polygon fill="#63b8ff" stroke="#63b8ff" points="683.96,-442.93 674.14,-446.92 684.31,-449.92 683.96,-442.93"/>
</a>
</g>
</g>
<!-- Node38 -->
<g id="Node000038" class="node">
<title>Node38</title>
<g id="a_Node000038"><a xlink:href="spec_2packet__io__types_8h.html" target="_top" xlink:title="ODP Packet IO types.">
<polygon fill="white" stroke="#666666" points="1105.5,-404 1001.5,-404 1001.5,-385 1105.5,-385 1105.5,-404"/>
<text text-anchor="middle" x="1053.5" y="-392" font-family="Helvetica,sans-Serif" font-size="10.00">packet_io_types.h</text>
</a>
</g>
</g>
<!-- Node1&#45;&gt;Node38 -->
<g id="edge50_Node000001_Node000038" class="edge">
<title>Node1&#45;&gt;Node38</title>
<g id="a_edge50_Node000001_Node000038"><a xlink:title=" ">
<path fill="none" stroke="#63b8ff" d="M684.26,-442.27C752.62,-433.7 879.39,-417.78 987.5,-404 991.97,-403.43 996.61,-402.84 1001.26,-402.24"/>
<polygon fill="#63b8ff" stroke="#63b8ff" points="683.7,-438.81 674.21,-443.53 684.57,-445.76 683.7,-438.81"/>
</a>
</g>
</g>
<!-- Node42 -->
<g id="Node000042" class="node">
<title>Node42</title>
<g id="a_Node000042"><a xlink:href="spec_2pool_8h.html" target="_top" xlink:title="ODP pool.">
<polygon fill="white" stroke="#666666" points="1171,-404 1124,-404 1124,-385 1171,-385 1171,-404"/>
<text text-anchor="middle" x="1147.5" y="-392" font-family="Helvetica,sans-Serif" font-size="10.00">pool.h</text>
</a>
</g>
</g>
<!-- Node1&#45;&gt;Node42 -->
<g id="edge60_Node000001_Node000042" class="edge">
<title>Node1&#45;&gt;Node42</title>
<g id="a_edge60_Node000001_Node000042"><a xlink:title=" ">
<path fill="none" stroke="#63b8ff" d="M684.48,-446.5C772.13,-442.4 959.01,-431.05 1114.5,-404 1117.53,-403.47 1120.69,-402.81 1123.81,-402.09"/>
<polygon fill="#63b8ff" stroke="#63b8ff" points="684.12,-443.01 674.29,-446.96 684.44,-450 684.12,-443.01"/>
</a>
</g>
</g>
<!-- Node44 -->
<g id="Node000044" class="node">
<title>Node44</title>
<g id="a_Node000044"><a xlink:href="pool__inlines_8h_source.html" target="_top" xlink:title=" ">
<polygon fill="white" stroke="#666666" points="1273.5,-404 1189.5,-404 1189.5,-385 1273.5,-385 1273.5,-404"/>
<text text-anchor="middle" x="1231.5" y="-392" font-family="Helvetica,sans-Serif" font-size="10.00">pool_inlines.h</text>
</a>
</g>
</g>
<!-- Node1&#45;&gt;Node44 -->
<g id="edge62_Node000001_Node000044" class="edge">
<title>Node1&#45;&gt;Node44</title>
<g id="a_edge62_Node000001_Node000044"><a xlink:title=" ">
<path fill="none" stroke="#63b8ff" d="M684.28,-445.78C780.29,-440.24 997.67,-426.25 1179.5,-404 1182.68,-403.61 1185.96,-403.17 1189.26,-402.7"/>
<polygon fill="#63b8ff" stroke="#63b8ff" points="684.06,-442.29 674.27,-446.35 684.46,-449.28 684.06,-442.29"/>
</a>
</g>
</g>
<!-- Node45 -->
<g id="Node000045" class="node">
<title>Node45</title>
<g id="a_Node000045"><a xlink:href="spec_2timer_8h.html" target="_top" xlink:title="ODP timer service.">
<polygon fill="white" stroke="#666666" points="1342,-404 1291,-404 1291,-385 1342,-385 1342,-404"/>
<text text-anchor="middle" x="1316.5" y="-392" font-family="Helvetica,sans-Serif" font-size="10.00">timer.h</text>
</a>
</g>
</g>
<!-- Node1&#45;&gt;Node45 -->
<g id="edge63_Node000001_Node000045" class="edge">
<title>Node1&#45;&gt;Node45</title>
<g id="a_edge63_Node000001_Node000045"><a xlink:title=" ">
<path fill="none" stroke="#63b8ff" d="M684.27,-448.07C793.33,-446.46 1061.3,-438.96 1282.5,-404 1285.26,-403.56 1288.13,-403.01 1290.98,-402.39"/>
<polygon fill="#63b8ff" stroke="#63b8ff" points="684.17,-444.57 674.22,-448.2 684.27,-451.57 684.17,-444.57"/>
</a>
</g>
</g>
<!-- Node3 -->
<g id="Node000003" class="node">
<title>Node3</title>
<g id="a_Node000003"><a xlink:href="buffer_8h.html" target="_top" xlink:title="ODP buffer descriptor.">
<polygon fill="white" stroke="#666666" points="56,-349 3,-349 3,-330 56,-330 56,-349"/>
<text text-anchor="middle" x="29.5" y="-337" font-family="Helvetica,sans-Serif" font-size="10.00">buffer.h</text>
</a>
</g>
</g>
<!-- Node2&#45;&gt;Node3 -->
<g id="edge2_Node000002_Node000003" class="edge">
<title>Node2&#45;&gt;Node3</title>
<g id="a_edge2_Node000002_Node000003"><a xlink:title=" ">
<path fill="none" stroke="#63b8ff" d="M29.5,-374.66C29.5,-365.93 29.5,-355.99 29.5,-349.09"/>
<polygon fill="#63b8ff" stroke="#63b8ff" points="26,-374.75 29.5,-384.75 33,-374.75 26,-374.75"/>
</a>
</g>
</g>
<!-- Node3&#45;&gt;Node4 -->
<g id="edge3_Node000003_Node000004" class="edge">
<title>Node3&#45;&gt;Node4</title>
<g id="a_edge3_Node000003_Node000004"><a xlink:title=" ">
<path fill="none" stroke="#63b8ff" d="M34.05,-319.95C36.21,-311.15 38.68,-301.06 40.39,-294.09"/>
<polygon fill="#63b8ff" stroke="#63b8ff" points="30.63,-319.2 31.65,-329.75 37.43,-320.87 30.63,-319.2"/>
</a>
</g>
</g>
<!-- Node7 -->
<g id="Node000007" class="node">
<title>Node7</title>
<g id="a_Node000007"><a xlink:href="classification_8h.html" target="_top" xlink:title="ODP classification descriptor.">
<polygon fill="white" stroke="#666666" points="1307,-239 1218,-239 1218,-220 1307,-220 1307,-239"/>
<text text-anchor="middle" x="1262.5" y="-227" font-family="Helvetica,sans-Serif" font-size="10.00">classification.h</text>
</a>
</g>
</g>
<!-- Node6&#45;&gt;Node7 -->
<g id="edge6_Node000006_Node000007" class="edge">
<title>Node6&#45;&gt;Node7</title>
<g id="a_edge6_Node000006_Node000007"><a xlink:title=" ">
<path fill="none" stroke="#63b8ff" d="M1366.4,-271.29C1341.38,-261.47 1306.84,-247.91 1284.58,-239.17"/>
<polygon fill="#63b8ff" stroke="#63b8ff" points="1365.22,-274.59 1375.81,-274.98 1367.78,-268.07 1365.22,-274.59"/>
</a>
</g>
</g>
<!-- Node8 -->
<g id="Node000008" class="node">
<title>Node8</title>
<g id="a_Node000008"><a xlink:href="spec_2ipsec__types_8h.html" target="_top" xlink:title="ODP IPsec API type definitions.">
<polygon fill="white" stroke="#666666" points="1161,-184 1078,-184 1078,-165 1161,-165 1161,-184"/>
<text text-anchor="middle" x="1119.5" y="-172" font-family="Helvetica,sans-Serif" font-size="10.00">ipsec_types.h</text>
</a>
</g>
</g>
<!-- Node7&#45;&gt;Node8 -->
<g id="edge7_Node000007_Node000008" class="edge">
<title>Node7&#45;&gt;Node8</title>
<g id="a_edge7_Node000007_Node000008"><a xlink:title=" ">
<path fill="none" stroke="#63b8ff" d="M1229.91,-216.42C1203.38,-206.59 1166.57,-192.95 1142.89,-184.17"/>
<polygon fill="#63b8ff" stroke="#63b8ff" points="1228.93,-219.79 1239.52,-219.98 1231.36,-213.23 1228.93,-219.79"/>
</a>
</g>
</g>
<!-- Node13 -->
<g id="Node000013" class="node">
<title>Node13</title>
<g id="a_Node000013"><a xlink:href="spec_2packet__io_8h.html" target="_top" xlink:title="ODP Packet IO.">
<polygon fill="white" stroke="#666666" points="1334.5,-184 1262.5,-184 1262.5,-165 1334.5,-165 1334.5,-184"/>
<text text-anchor="middle" x="1298.5" y="-172" font-family="Helvetica,sans-Serif" font-size="10.00">packet_io.h</text>
</a>
</g>
</g>
<!-- Node7&#45;&gt;Node13 -->
<g id="edge12_Node000007_Node000013" class="edge">
<title>Node7&#45;&gt;Node13</title>
<g id="a_edge12_Node000007_Node000013"><a xlink:title=" ">
<path fill="none" stroke="#63b8ff" d="M1274.12,-211.39C1280.32,-202.27 1287.67,-191.45 1292.67,-184.09"/>
<polygon fill="#63b8ff" stroke="#63b8ff" points="1271.17,-209.51 1268.44,-219.75 1276.96,-213.44 1271.17,-209.51"/>
</a>
</g>
</g>
<!-- Node9 -->
<g id="Node000009" class="node">
<title>Node9</title>
<g id="a_Node000009"><a xlink:href="ipsec__types_8h.html" target="_top" xlink:title="ODP IPsec.">
<polygon fill="white" stroke="#666666" points="941,-129 858,-129 858,-110 941,-110 941,-129"/>
<text text-anchor="middle" x="899.5" y="-117" font-family="Helvetica,sans-Serif" font-size="10.00">ipsec_types.h</text>
</a>
</g>
</g>
<!-- Node8&#45;&gt;Node9 -->
<g id="edge8_Node000008_Node000009" class="edge">
<title>Node8&#45;&gt;Node9</title>
<g id="a_edge8_Node000008_Node000009"><a xlink:title=" ">
<path fill="none" stroke="#63b8ff" d="M1074.37,-162.63C1033.16,-152.7 973.05,-138.22 935.12,-129.08"/>
<polygon fill="#63b8ff" stroke="#63b8ff" points="1073.61,-166.05 1084.15,-164.98 1075.25,-159.24 1073.61,-166.05"/>
</a>
</g>
</g>
<!-- Node10 -->
<g id="Node000010" class="node">
<title>Node10</title>
<g id="a_Node000010"><a xlink:href="spec_2ipsec_8h.html" target="_top" xlink:title="ODP IPsec API.">
<polygon fill="white" stroke="#666666" points="702,-74 651,-74 651,-55 702,-55 702,-74"/>
<text text-anchor="middle" x="676.5" y="-62" font-family="Helvetica,sans-Serif" font-size="10.00">ipsec.h</text>
</a>
</g>
</g>
<!-- Node9&#45;&gt;Node10 -->
<g id="edge9_Node000009_Node000010" class="edge">
<title>Node9&#45;&gt;Node10</title>
<g id="a_edge9_Node000009_Node000010"><a xlink:title=" ">
<path fill="none" stroke="#63b8ff" d="M853.7,-107.61C807.9,-96.73 739.12,-80.38 702.16,-71.6"/>
<polygon fill="#63b8ff" stroke="#63b8ff" points="853.13,-111.08 863.67,-109.98 854.75,-104.27 853.13,-111.08"/>
</a>
</g>
</g>
<!-- Node12 -->
<g id="Node000012" class="node">
<title>Node12</title>
<g id="a_Node000012"><a xlink:href="ipsec__inlines_8h_source.html" target="_top" xlink:title=" ">
<polygon fill="white" stroke="#666666" points="944,-74 855,-74 855,-55 944,-55 944,-74"/>
<text text-anchor="middle" x="899.5" y="-62" font-family="Helvetica,sans-Serif" font-size="10.00">ipsec_inlines.h</text>
</a>
</g>
</g>
<!-- Node9&#45;&gt;Node12 -->
<g id="edge11_Node000009_Node000012" class="edge">
<title>Node9&#45;&gt;Node12</title>
<g id="a_edge11_Node000009_Node000012"><a xlink:title=" ">
<path fill="none" stroke="#63b8ff" d="M899.5,-99.66C899.5,-90.93 899.5,-80.99 899.5,-74.09"/>
<polygon fill="#63b8ff" stroke="#63b8ff" points="896,-99.75 899.5,-109.75 903,-99.75 896,-99.75"/>
</a>
</g>
</g>
<!-- Node11 -->
<g id="Node000011" class="node">
<title>Node11</title>
<g id="a_Node000011"><a xlink:href="ipsec_8h.html" target="_top" xlink:title="ODP IPSEC API &#45; platform specific header.">
<polygon fill="white" stroke="#666666" points="702,-19 651,-19 651,0 702,0 702,-19"/>
<text text-anchor="middle" x="676.5" y="-7" font-family="Helvetica,sans-Serif" font-size="10.00">ipsec.h</text>
</a>
</g>
</g>
<!-- Node10&#45;&gt;Node11 -->
<g id="edge10_Node000010_Node000011" class="edge">
<title>Node10&#45;&gt;Node11</title>
<g id="a_edge10_Node000010_Node000011"><a xlink:title=" ">
<path fill="none" stroke="#63b8ff" d="M676.5,-44.66C676.5,-35.93 676.5,-25.99 676.5,-19.09"/>
<polygon fill="#63b8ff" stroke="#63b8ff" points="673,-44.75 676.5,-54.75 680,-44.75 673,-44.75"/>
</a>
</g>
</g>
<!-- Node14 -->
<g id="Node000014" class="node">
<title>Node14</title>
<g id="a_Node000014"><a xlink:href="packet__io_8h.html" target="_top" xlink:title="ODP Packet IO.">
<polygon fill="white" stroke="#666666" points="1334.5,-129 1262.5,-129 1262.5,-110 1334.5,-110 1334.5,-129"/>
<text text-anchor="middle" x="1298.5" y="-117" font-family="Helvetica,sans-Serif" font-size="10.00">packet_io.h</text>
</a>
</g>
</g>
<!-- Node13&#45;&gt;Node14 -->
<g id="edge13_Node000013_Node000014" class="edge">
<title>Node13&#45;&gt;Node14</title>
<g id="a_edge13_Node000013_Node000014"><a xlink:title=" ">
<path fill="none" stroke="#63b8ff" d="M1298.5,-154.66C1298.5,-145.93 1298.5,-135.99 1298.5,-129.09"/>
<polygon fill="#63b8ff" stroke="#63b8ff" points="1295,-154.75 1298.5,-164.75 1302,-154.75 1295,-154.75"/>
</a>
</g>
</g>
<!-- Node16 -->
<g id="Node000016" class="node">
<title>Node16</title>
<g id="a_Node000016"><a xlink:href="crypto__types_8h.html" target="_top" xlink:title="ODP crypto.">
<polygon fill="white" stroke="#666666" points="587,-239 498,-239 498,-220 587,-220 587,-239"/>
<text text-anchor="middle" x="542.5" y="-227" font-family="Helvetica,sans-Serif" font-size="10.00">crypto_types.h</text>
</a>
</g>
</g>
<!-- Node15&#45;&gt;Node16 -->
<g id="edge15_Node000015_Node000016" class="edge">
<title>Node15&#45;&gt;Node16</title>
<g id="a_edge15_Node000015_Node000016"><a xlink:title=" ">
<path fill="none" stroke="#63b8ff" d="M142.24,-321.86C131.36,-307.94 120.57,-288.29 132.5,-275 156.59,-248.16 396.77,-236 497.94,-232.04"/>
<polygon fill="#63b8ff" stroke="#63b8ff" points="139.71,-324.28 148.83,-329.67 145.06,-319.77 139.71,-324.28"/>
</a>
</g>
</g>
<!-- Node16&#45;&gt;Node8 -->
<g id="edge20_Node000016_Node000008" class="edge">
<title>Node16&#45;&gt;Node8</title>
<g id="a_edge20_Node000016_Node000008"><a xlink:title=" ">
<path fill="none" stroke="#63b8ff" d="M597.46,-219.84C782.2,-197.55 990.78,-183.4 1077.96,-177.98"/>
<polygon fill="#63b8ff" stroke="#63b8ff" points="596.79,-216.39 587.29,-221.08 597.64,-223.34 596.79,-216.39"/>
</a>
</g>
</g>
<!-- Node16&#45;&gt;Node10 -->
<g id="edge19_Node000016_Node000010" class="edge">
<title>Node16&#45;&gt;Node10</title>
<g id="a_edge19_Node000016_Node000010"><a xlink:title=" ">
<path fill="none" stroke="#63b8ff" d="M539.19,-209.8C535.81,-184.39 533.84,-138.8 556.5,-110 579.31,-81.01 622.99,-70.91 650.89,-67.38"/>
<polygon fill="#63b8ff" stroke="#63b8ff" points="535.77,-210.58 540.76,-219.93 542.69,-209.51 535.77,-210.58"/>
</a>
</g>
</g>
<!-- Node17 -->
<g id="Node000017" class="node">
<title>Node17</title>
<g id="a_Node000017"><a xlink:href="spec_2crypto_8h.html" target="_top" xlink:title="ODP crypto.">
<polygon fill="white" stroke="#666666" points="621.5,-184 565.5,-184 565.5,-165 621.5,-165 621.5,-184"/>
<text text-anchor="middle" x="593.5" y="-172" font-family="Helvetica,sans-Serif" font-size="10.00">crypto.h</text>
</a>
</g>
</g>
<!-- Node16&#45;&gt;Node17 -->
<g id="edge16_Node000016_Node000017" class="edge">
<title>Node16&#45;&gt;Node17</title>
<g id="a_edge16_Node000016_Node000017"><a xlink:title=" ">
<path fill="none" stroke="#63b8ff" d="M557.88,-212.52C566.87,-203.18 577.86,-191.75 585.24,-184.09"/>
<polygon fill="#63b8ff" stroke="#63b8ff" points="555.33,-210.12 550.92,-219.75 560.38,-214.97 555.33,-210.12"/>
</a>
</g>
</g>
<!-- Node19 -->
<g id="Node000019" class="node">
<title>Node19</title>
<g id="a_Node000019"><a xlink:href="crypto__inlines_8h_source.html" target="_top" xlink:title=" ">
<polygon fill="white" stroke="#666666" points="733.5,-184 639.5,-184 639.5,-165 733.5,-165 733.5,-184"/>
<text text-anchor="middle" x="686.5" y="-172" font-family="Helvetica,sans-Serif" font-size="10.00">crypto_inlines.h</text>
</a>
</g>
</g>
<!-- Node16&#45;&gt;Node19 -->
<g id="edge18_Node000016_Node000019" class="edge">
<title>Node16&#45;&gt;Node19</title>
<g id="a_edge18_Node000016_Node000019"><a xlink:title=" ">
<path fill="none" stroke="#63b8ff" d="M575.32,-216.42C602.03,-206.59 639.1,-192.95 662.94,-184.17"/>
<polygon fill="#63b8ff" stroke="#63b8ff" points="573.81,-213.25 565.64,-219.98 576.23,-219.82 573.81,-213.25"/>
</a>
</g>
</g>
<!-- Node18 -->
<g id="Node000018" class="node">
<title>Node18</title>
<g id="a_Node000018"><a xlink:href="crypto_8h.html" target="_top" xlink:title="ODP crypto.">
<polygon fill="white" stroke="#666666" points="621.5,-129 565.5,-129 565.5,-110 621.5,-110 621.5,-129"/>
<text text-anchor="middle" x="593.5" y="-117" font-family="Helvetica,sans-Serif" font-size="10.00">crypto.h</text>
</a>
</g>
</g>
<!-- Node17&#45;&gt;Node18 -->
<g id="edge17_Node000017_Node000018" class="edge">
<title>Node17&#45;&gt;Node18</title>
<g id="a_edge17_Node000017_Node000018"><a xlink:title=" ">
<path fill="none" stroke="#63b8ff" d="M593.5,-154.66C593.5,-145.93 593.5,-135.99 593.5,-129.09"/>
<polygon fill="#63b8ff" stroke="#63b8ff" points="590,-154.75 593.5,-164.75 597,-154.75 590,-154.75"/>
</a>
</g>
</g>
<!-- Node21 -->
<g id="Node000021" class="node">
<title>Node21</title>
<g id="a_Node000021"><a xlink:href="dma_8h.html" target="_top" xlink:title="ODP DMA.">
<polygon fill="white" stroke="#666666" points="652,-239 605,-239 605,-220 652,-220 652,-239"/>
<text text-anchor="middle" x="628.5" y="-227" font-family="Helvetica,sans-Serif" font-size="10.00">dma.h</text>
</a>
</g>
</g>
<!-- Node20&#45;&gt;Node21 -->
<g id="edge22_Node000020_Node000021" class="edge">
<title>Node20&#45;&gt;Node21</title>
<g id="a_edge22_Node000020_Node000021"><a xlink:title=" ">
<path fill="none" stroke="#63b8ff" d="M199.23,-274.98C374.23,-245.01 423.73,-268.69 595.5,-239 598.53,-238.48 601.69,-237.81 604.81,-237.09"/>
<polygon fill="#63b8ff" stroke="#63b8ff" points="198.41,-271.57 189.17,-276.74 199.62,-278.46 198.41,-271.57"/>
</a>
</g>
</g>
<!-- Node23 -->
<g id="Node000023" class="node">
<title>Node23</title>
<g id="a_Node000023"><a xlink:href="dma__types_8h.html" target="_top" xlink:title="ODP DMA.">
<polygon fill="white" stroke="#666666" points="300.5,-349 220.5,-349 220.5,-330 300.5,-330 300.5,-349"/>
<text text-anchor="middle" x="260.5" y="-337" font-family="Helvetica,sans-Serif" font-size="10.00">dma_types.h</text>
</a>
</g>
</g>
<!-- Node22&#45;&gt;Node23 -->
<g id="edge25_Node000022_Node000023" class="edge">
<title>Node22&#45;&gt;Node23</title>
<g id="a_edge25_Node000022_Node000023"><a xlink:title=" ">
<path fill="none" stroke="#63b8ff" d="M272.3,-375.24C269.29,-366.37 265.81,-356.14 263.42,-349.09"/>
<polygon fill="#63b8ff" stroke="#63b8ff" points="269,-376.4 275.53,-384.75 275.63,-374.15 269,-376.4"/>
</a>
</g>
</g>
<!-- Node23&#45;&gt;Node4 -->
<g id="edge27_Node000023_Node000004" class="edge">
<title>Node23&#45;&gt;Node4</title>
<g id="a_edge27_Node000023_Node000004"><a xlink:title=" ">
<path fill="none" stroke="#63b8ff" d="M215.52,-327.56C174.69,-317.64 115.3,-303.2 77.8,-294.08"/>
<polygon fill="#63b8ff" stroke="#63b8ff" points="214.93,-331.02 225.47,-329.98 216.58,-324.22 214.93,-331.02"/>
</a>
</g>
</g>
<!-- Node23&#45;&gt;Node20 -->
<g id="edge26_Node000023_Node000020" class="edge">
<title>Node23&#45;&gt;Node20</title>
<g id="a_edge26_Node000023_Node000020"><a xlink:title=" ">
<path fill="none" stroke="#63b8ff" d="M236.24,-324.97C218.87,-315.28 196.01,-302.52 181.04,-294.17"/>
<polygon fill="#63b8ff" stroke="#63b8ff" points="234.8,-328.17 245.24,-329.98 238.21,-322.06 234.8,-328.17"/>
</a>
</g>
</g>
<!-- Node24 -->
<g id="Node000024" class="node">
<title>Node24</title>
<g id="a_Node000024"><a xlink:href="spec_2pool__types_8h.html" target="_top" xlink:title="Type definitions for pools.">
<polygon fill="white" stroke="#666666" points="286,-294 207,-294 207,-275 286,-275 286,-294"/>
<text text-anchor="middle" x="246.5" y="-282" font-family="Helvetica,sans-Serif" font-size="10.00">pool_types.h</text>
</a>
</g>
</g>
<!-- Node23&#45;&gt;Node24 -->
<g id="edge28_Node000023_Node000024" class="edge">
<title>Node23&#45;&gt;Node24</title>
<g id="a_edge28_Node000023_Node000024"><a xlink:title=" ">
<path fill="none" stroke="#63b8ff" d="M255.6,-319.95C253.28,-311.15 250.61,-301.06 248.77,-294.09"/>
<polygon fill="#63b8ff" stroke="#63b8ff" points="252.25,-320.97 258.19,-329.75 259.02,-319.19 252.25,-320.97"/>
</a>
</g>
</g>
<!-- Node24&#45;&gt;Node1 -->
<g id="edge29_Node000024_Node000001" class="edge">
<title>Node24&#45;&gt;Node1</title>
<g id="a_edge29_Node000024_Node000001"><a xlink:title=" ">
<path fill="none" stroke="#63b8ff" d="M289.13,-296.85C316.18,-304.71 351.59,-316.22 381.5,-330 439.1,-356.54 446.02,-377.2 503.5,-404 536.48,-419.38 576.3,-432.14 603.32,-440"/>
<polygon fill="#63b8ff" stroke="#63b8ff" points="289.78,-293.4 279.2,-294.02 287.86,-300.13 289.78,-293.4"/>
</a>
</g>
</g>
<!-- Node26 -->
<g id="Node000026" class="node">
<title>Node26</title>
<g id="a_Node000026"><a xlink:href="event_8h.html" target="_top" xlink:title="ODP event.">
<polygon fill="white" stroke="#666666" points="634,-349 581,-349 581,-330 634,-330 634,-349"/>
<text text-anchor="middle" x="607.5" y="-337" font-family="Helvetica,sans-Serif" font-size="10.00">event.h</text>
</a>
</g>
</g>
<!-- Node25&#45;&gt;Node26 -->
<g id="edge31_Node000025_Node000026" class="edge">
<title>Node25&#45;&gt;Node26</title>
<g id="a_edge31_Node000025_Node000026"><a xlink:title=" ">
<path fill="none" stroke="#63b8ff" d="M607.5,-374.66C607.5,-365.93 607.5,-355.99 607.5,-349.09"/>
<polygon fill="#63b8ff" stroke="#63b8ff" points="604,-374.75 607.5,-384.75 611,-374.75 604,-374.75"/>
</a>
</g>
</g>
<!-- Node26&#45;&gt;Node5 -->
<g id="edge32_Node000026_Node000005" class="edge">
<title>Node26&#45;&gt;Node5</title>
<g id="a_edge32_Node000026_Node000005"><a xlink:title=" ">
<path fill="none" stroke="#63b8ff" d="M571.17,-331.01C523.96,-321.27 441.74,-304.32 392.09,-294.08"/>
<polygon fill="#63b8ff" stroke="#63b8ff" points="570.46,-334.44 580.96,-333.03 571.88,-327.58 570.46,-334.44"/>
</a>
</g>
</g>
<!-- Node26&#45;&gt;Node12 -->
<g id="edge35_Node000026_Node000012" class="edge">
<title>Node26&#45;&gt;Node12</title>
<g id="a_edge35_Node000026_Node000012"><a xlink:title=" ">
<path fill="none" stroke="#63b8ff" d="M644.36,-334.8C695.86,-328.9 785.71,-315.78 809.5,-294 831.33,-274.02 829.5,-260.09 829.5,-230.5 829.5,-230.5 829.5,-230.5 829.5,-173.5 829.5,-144.04 832.55,-134.77 848.5,-110 858.17,-94.98 874.34,-82.11 885.88,-74.13"/>
<polygon fill="#63b8ff" stroke="#63b8ff" points="643.85,-331.33 634.29,-335.91 644.62,-338.29 643.85,-331.33"/>
</a>
</g>
</g>
<!-- Node26&#45;&gt;Node19 -->
<g id="edge33_Node000026_Node000019" class="edge">
<title>Node26&#45;&gt;Node19</title>
<g id="a_edge33_Node000026_Node000019"><a xlink:title=" ">
<path fill="none" stroke="#63b8ff" d="M632.27,-324.48C643.5,-316.88 655.92,-306.48 663.5,-294 685.46,-257.81 687.09,-204.95 686.79,-184.26"/>
<polygon fill="#63b8ff" stroke="#63b8ff" points="630.2,-321.65 623.64,-329.97 633.96,-327.56 630.2,-321.65"/>
</a>
</g>
</g>
<!-- Node26&#45;&gt;Node27 -->
<g id="edge34_Node000026_Node000027" class="edge">
<title>Node26&#45;&gt;Node27</title>
<g id="a_edge34_Node000026_Node000027"><a xlink:title=" ">
<path fill="none" stroke="#63b8ff" d="M577.46,-326.16C553.58,-316.35 520.78,-302.87 499.6,-294.17"/>
<polygon fill="#63b8ff" stroke="#63b8ff" points="576.19,-329.42 586.77,-329.98 578.85,-322.95 576.19,-329.42"/>
</a>
</g>
</g>
<!-- Node26&#45;&gt;Node28 -->
<g id="edge36_Node000026_Node000028" class="edge">
<title>Node26&#45;&gt;Node28</title>
<g id="a_edge36_Node000026_Node000028"><a xlink:title=" ">
<path fill="none" stroke="#63b8ff" d="M607.5,-319.66C607.5,-310.93 607.5,-300.99 607.5,-294.09"/>
<polygon fill="#63b8ff" stroke="#63b8ff" points="604,-319.75 607.5,-329.75 611,-319.75 604,-319.75"/>
</a>
</g>
</g>
<!-- Node26&#45;&gt;Node29 -->
<g id="edge37_Node000026_Node000029" class="edge">
<title>Node26&#45;&gt;Node29</title>
<g id="a_edge37_Node000026_Node000029"><a xlink:title=" ">
<path fill="none" stroke="#63b8ff" d="M644.58,-330.74C645.9,-330.48 647.21,-330.24 648.5,-330 723.53,-316.16 810.51,-302.48 866.23,-294.02"/>
<polygon fill="#63b8ff" stroke="#63b8ff" points="643.51,-327.38 634.37,-332.75 644.86,-334.25 643.51,-327.38"/>
</a>
</g>
</g>
<!-- Node30 -->
<g id="Node000030" class="node">
<title>Node30</title>
<g id="a_Node000030"><a xlink:href="timer__inlines_8h_source.html" target="_top" xlink:title=" ">
<polygon fill="white" stroke="#666666" points="801,-294 712,-294 712,-275 801,-275 801,-294"/>
<text text-anchor="middle" x="756.5" y="-282" font-family="Helvetica,sans-Serif" font-size="10.00">timer_inlines.h</text>
</a>
</g>
</g>
<!-- Node26&#45;&gt;Node30 -->
<g id="edge38_Node000026_Node000030" class="edge">
<title>Node26&#45;&gt;Node30</title>
<g id="a_edge38_Node000026_Node000030"><a xlink:title=" ">
<path fill="none" stroke="#63b8ff" d="M641.09,-326.55C668.76,-316.71 707.34,-302.98 732.12,-294.17"/>
<polygon fill="#63b8ff" stroke="#63b8ff" points="639.69,-323.34 631.44,-329.98 642.03,-329.93 639.69,-323.34"/>
</a>
</g>
</g>
<!-- Node33 -->
<g id="Node000033" class="node">
<title>Node33</title>
<g id="a_Node000033"><a xlink:href="event__vector_8h.html" target="_top" xlink:title="ODP event vector.">
<polygon fill="white" stroke="#666666" points="889,-349 800,-349 800,-330 889,-330 889,-349"/>
<text text-anchor="middle" x="844.5" y="-337" font-family="Helvetica,sans-Serif" font-size="10.00">event_vector.h</text>
</a>
</g>
</g>
<!-- Node32&#45;&gt;Node33 -->
<g id="edge41_Node000032_Node000033" class="edge">
<title>Node32&#45;&gt;Node33</title>
<g id="a_edge41_Node000032_Node000033"><a xlink:title=" ">
<path fill="none" stroke="#63b8ff" d="M844.5,-374.66C844.5,-365.93 844.5,-355.99 844.5,-349.09"/>
<polygon fill="#63b8ff" stroke="#63b8ff" points="841,-374.75 844.5,-384.75 848,-374.75 841,-374.75"/>
</a>
</g>
</g>
<!-- Node35 -->
<g id="Node000035" class="node">
<title>Node35</title>
<g id="a_Node000035"><a xlink:href="ml_8h.html" target="_top" xlink:title="ODP Machine Learning (ML) offload.">
<polygon fill="white" stroke="#666666" points="945.5,-349 907.5,-349 907.5,-330 945.5,-330 945.5,-349"/>
<text text-anchor="middle" x="926.5" y="-337" font-family="Helvetica,sans-Serif" font-size="10.00">ml.h</text>
</a>
</g>
</g>
<!-- Node34&#45;&gt;Node35 -->
<g id="edge44_Node000034_Node000035" class="edge">
<title>Node34&#45;&gt;Node35</title>
<g id="a_edge44_Node000034_Node000035"><a xlink:title=" ">
<path fill="none" stroke="#63b8ff" d="M926.5,-374.66C926.5,-365.93 926.5,-355.99 926.5,-349.09"/>
<polygon fill="#63b8ff" stroke="#63b8ff" points="923,-374.75 926.5,-384.75 930,-374.75 923,-374.75"/>
</a>
</g>
</g>
<!-- Node37 -->
<g id="Node000037" class="node">
<title>Node37</title>
<g id="a_Node000037"><a xlink:href="packet_8h.html" target="_top" xlink:title="ODP packet descriptor.">
<polygon fill="white" stroke="#666666" points="998.5,-239 940.5,-239 940.5,-220 998.5,-220 998.5,-239"/>
<text text-anchor="middle" x="969.5" y="-227" font-family="Helvetica,sans-Serif" font-size="10.00">packet.h</text>
</a>
</g>
</g>
<!-- Node36&#45;&gt;Node37 -->
<g id="edge46_Node000036_Node000037" class="edge">
<title>Node36&#45;&gt;Node37</title>
<g id="a_edge46_Node000036_Node000037"><a xlink:title=" ">
<path fill="none" stroke="#63b8ff" d="M1017.67,-268.6C1005.66,-259.11 990.53,-247.13 980.46,-239.17"/>
<polygon fill="#63b8ff" stroke="#63b8ff" points="1015.72,-271.53 1025.74,-274.98 1020.06,-266.04 1015.72,-271.53"/>
</a>
</g>
</g>
<!-- Node37&#45;&gt;Node12 -->
<g id="edge48_Node000037_Node000012" class="edge">
<title>Node37&#45;&gt;Node12</title>
<g id="a_edge48_Node000037_Node000012"><a xlink:title=" ">
<path fill="none" stroke="#63b8ff" d="M970.07,-209.75C970.01,-185.28 967.11,-141.84 949.5,-110 941.06,-94.75 925.35,-82.09 913.78,-74.23"/>
<polygon fill="#63b8ff" stroke="#63b8ff" points="966.57,-209.78 969.93,-219.83 973.57,-209.88 966.57,-209.78"/>
</a>
</g>
</g>
<!-- Node37&#45;&gt;Node19 -->
<g id="edge47_Node000037_Node000019" class="edge">
<title>Node37&#45;&gt;Node19</title>
<g id="a_edge47_Node000037_Node000019"><a xlink:title=" ">
<path fill="none" stroke="#63b8ff" d="M930.13,-221.13C878.18,-211.4 786.92,-194.31 732.05,-184.03"/>
<polygon fill="#63b8ff" stroke="#63b8ff" points="929.81,-224.63 940.28,-223.03 931.1,-217.75 929.81,-224.63"/>
</a>
</g>
</g>
<!-- Node39 -->
<g id="Node000039" class="node">
<title>Node39</title>
<g id="a_Node000039"><a xlink:href="packet__io__types_8h.html" target="_top" xlink:title="ODP Packet IO.">
<polygon fill="white" stroke="#666666" points="1177.5,-349 1073.5,-349 1073.5,-330 1177.5,-330 1177.5,-349"/>
<text text-anchor="middle" x="1125.5" y="-337" font-family="Helvetica,sans-Serif" font-size="10.00">packet_io_types.h</text>
</a>
</g>
</g>
<!-- Node38&#45;&gt;Node39 -->
<g id="edge51_Node000038_Node000039" class="edge">
<title>Node38&#45;&gt;Node39</title>
<g id="a_edge51_Node000038_Node000039"><a xlink:title=" ">
<path fill="none" stroke="#63b8ff" d="M1073.37,-378.88C1086.32,-369.34 1102.8,-357.21 1113.72,-349.17"/>
<polygon fill="#63b8ff" stroke="#63b8ff" points="1071.05,-376.24 1065.07,-384.98 1075.2,-381.88 1071.05,-376.24"/>
</a>
</g>
</g>
<!-- Node39&#45;&gt;Node6 -->
<g id="edge52_Node000039_Node000006" class="edge">
<title>Node39&#45;&gt;Node6</title>
<g id="a_edge52_Node000039_Node000006"><a xlink:title=" ">
<path fill="none" stroke="#63b8ff" d="M1179.05,-328.07C1230.05,-318.13 1305.87,-303.35 1353.46,-294.08"/>
<polygon fill="#63b8ff" stroke="#63b8ff" points="1178.35,-324.64 1169.2,-329.98 1179.69,-331.51 1178.35,-324.64"/>
</a>
</g>
</g>
<!-- Node39&#45;&gt;Node8 -->
<g id="edge53_Node000039_Node000008" class="edge">
<title>Node39&#45;&gt;Node8</title>
<g id="a_edge53_Node000039_Node000008"><a xlink:title=" ">
<path fill="none" stroke="#63b8ff" d="M1149.61,-324.19C1159.93,-316.64 1170.88,-306.37 1176.5,-294 1179.99,-286.31 1176.96,-283.43 1176.5,-275 1175.16,-250.45 1181.88,-241.8 1170.5,-220 1162.34,-204.37 1146.24,-191.78 1134.3,-184.03"/>
<polygon fill="#63b8ff" stroke="#63b8ff" points="1147.54,-321.37 1141.23,-329.88 1151.47,-327.16 1147.54,-321.37"/>
</a>
</g>
</g>
<!-- Node39&#45;&gt;Node13 -->
<g id="edge55_Node000039_Node000013" class="edge">
<title>Node39&#45;&gt;Node13</title>
<g id="a_edge55_Node000039_Node000013"><a xlink:title=" ">
<path fill="none" stroke="#63b8ff" d="M1177.5,-327.31C1223.05,-314.46 1286.51,-288.44 1316.5,-239 1327.2,-221.37 1313.95,-197.14 1305.15,-184.3"/>
<polygon fill="#63b8ff" stroke="#63b8ff" points="1176.53,-323.95 1167.79,-329.93 1178.35,-330.7 1176.53,-323.95"/>
</a>
</g>
</g>
<!-- Node39&#45;&gt;Node36 -->
<g id="edge54_Node000039_Node000036" class="edge">
<title>Node39&#45;&gt;Node36</title>
<g id="a_edge54_Node000039_Node000036"><a xlink:title=" ">
<path fill="none" stroke="#63b8ff" d="M1102.32,-324.7C1086.11,-315.04 1064.95,-302.44 1051.06,-294.17"/>
<polygon fill="#63b8ff" stroke="#63b8ff" points="1100.82,-327.88 1111.2,-329.98 1104.4,-321.86 1100.82,-327.88"/>
</a>
</g>
</g>
<!-- Node40 -->
<g id="Node000040" class="node">
<title>Node40</title>
<g id="a_Node000040"><a xlink:href="spec_2traffic__mngr_8h.html" target="_top" xlink:title=" ">
<polygon fill="white" stroke="#666666" points="1167.5,-294 1083.5,-294 1083.5,-275 1167.5,-275 1167.5,-294"/>
<text text-anchor="middle" x="1125.5" y="-282" font-family="Helvetica,sans-Serif" font-size="10.00">traffic_mngr.h</text>
</a>
</g>
</g>
<!-- Node39&#45;&gt;Node40 -->
<g id="edge56_Node000039_Node000040" class="edge">
<title>Node39&#45;&gt;Node40</title>
<g id="a_edge56_Node000039_Node000040"><a xlink:title=" ">
<path fill="none" stroke="#63b8ff" d="M1125.5,-319.66C1125.5,-310.93 1125.5,-300.99 1125.5,-294.09"/>
<polygon fill="#63b8ff" stroke="#63b8ff" points="1122,-319.75 1125.5,-329.75 1129,-319.75 1122,-319.75"/>
</a>
</g>
</g>
<!-- Node41 -->
<g id="Node000041" class="node">
<title>Node41</title>
<g id="a_Node000041"><a xlink:href="traffic__mngr_8h.html" target="_top" xlink:title="ODP Traffic manager.">
<polygon fill="white" stroke="#666666" points="1161.5,-239 1077.5,-239 1077.5,-220 1161.5,-220 1161.5,-239"/>
<text text-anchor="middle" x="1119.5" y="-227" font-family="Helvetica,sans-Serif" font-size="10.00">traffic_mngr.h</text>
</a>
</g>
</g>
<!-- Node40&#45;&gt;Node41 -->
<g id="edge57_Node000040_Node000041" class="edge">
<title>Node40&#45;&gt;Node41</title>
<g id="a_edge57_Node000040_Node000041"><a xlink:title=" ">
<path fill="none" stroke="#63b8ff" d="M1123.37,-264.66C1122.38,-255.93 1121.25,-245.99 1120.47,-239.09"/>
<polygon fill="#63b8ff" stroke="#63b8ff" points="1119.91,-265.21 1124.51,-274.75 1126.86,-264.42 1119.91,-265.21"/>
</a>
</g>
</g>
<!-- Node41&#45;&gt;Node8 -->
<g id="edge58_Node000041_Node000008" class="edge">
<title>Node41&#45;&gt;Node8</title>
<g id="a_edge58_Node000041_Node000008"><a xlink:title=" ">
<path fill="none" stroke="#63b8ff" d="M1119.5,-209.66C1119.5,-200.93 1119.5,-190.99 1119.5,-184.09"/>
<polygon fill="#63b8ff" stroke="#63b8ff" points="1116,-209.75 1119.5,-219.75 1123,-209.75 1116,-209.75"/>
</a>
</g>
</g>
<!-- Node43 -->
<g id="Node000043" class="node">
<title>Node43</title>
<g id="a_Node000043"><a xlink:href="pool_8h.html" target="_top" xlink:title="ODP pool.">
<polygon fill="white" stroke="#666666" points="1243,-349 1196,-349 1196,-330 1243,-330 1243,-349"/>
<text text-anchor="middle" x="1219.5" y="-337" font-family="Helvetica,sans-Serif" font-size="10.00">pool.h</text>
</a>
</g>
</g>
<!-- Node42&#45;&gt;Node43 -->
<g id="edge61_Node000042_Node000043" class="edge">
<title>Node42&#45;&gt;Node43</title>
<g id="a_edge61_Node000042_Node000043"><a xlink:title=" ">
<path fill="none" stroke="#63b8ff" d="M1167.37,-378.88C1180.32,-369.34 1196.8,-357.21 1207.72,-349.17"/>
<polygon fill="#63b8ff" stroke="#63b8ff" points="1165.05,-376.24 1159.07,-384.98 1169.2,-381.88 1165.05,-376.24"/>
</a>
</g>
</g>
<!-- Node46 -->
<g id="Node000046" class="node">
<title>Node46</title>
<g id="a_Node000046"><a xlink:href="timer_8h.html" target="_top" xlink:title="ODP timer service.">
<polygon fill="white" stroke="#666666" points="1342,-349 1291,-349 1291,-330 1342,-330 1342,-349"/>
<text text-anchor="middle" x="1316.5" y="-337" font-family="Helvetica,sans-Serif" font-size="10.00">timer.h</text>
</a>
</g>
</g>
<!-- Node45&#45;&gt;Node46 -->
<g id="edge64_Node000045_Node000046" class="edge">
<title>Node45&#45;&gt;Node46</title>
<g id="a_edge64_Node000045_Node000046"><a xlink:title=" ">
<path fill="none" stroke="#63b8ff" d="M1316.5,-374.66C1316.5,-365.93 1316.5,-355.99 1316.5,-349.09"/>
<polygon fill="#63b8ff" stroke="#63b8ff" points="1313,-374.75 1316.5,-384.75 1320,-374.75 1313,-374.75"/>
</a>
</g>
</g>
</g>
</svg>
