<?xml version="1.0" encoding="UTF-8" standalone="no"?>
<!DOCTYPE svg PUBLIC "-//W3C//DTD SVG 1.1//EN"
 "http://www.w3.org/Graphics/SVG/1.1/DTD/svg11.dtd">
<!-- Generated by graphviz version 2.43.0 (0)
 -->
<!-- Title: pool.h Pages: 1 -->
<svg width="1768pt" height="1102pt"
 viewBox="0.00 0.00 1768.00 1102.00" xmlns="http://www.w3.org/2000/svg" xmlns:xlink="http://www.w3.org/1999/xlink">
<g id="graph0" class="graph" transform="scale(1 1) rotate(0) translate(4 1098)">
<title>pool.h</title>
<polygon fill="white" stroke="transparent" points="-4,4 -4,-1098 1764,-1098 1764,4 -4,4"/>
<!-- Node1 -->
<g id="node1" class="node">
<title>Node1</title>
<g id="a_node1"><a xlink:title="ODP pool.">
<polygon fill="#bfbfbf" stroke="black" points="1339.5,-1074.5 1339.5,-1093.5 1386.5,-1093.5 1386.5,-1074.5 1339.5,-1074.5"/>
<text text-anchor="middle" x="1363" y="-1081.5" font-family="Helvetica,sans-Serif" font-size="10.00">pool.h</text>
</a>
</g>
</g>
<!-- Node2 -->
<g id="node2" class="node">
<title>Node2</title>
<g id="a_node2"><a xlink:title=" ">
<polygon fill="white" stroke="#bfbfbf" points="1248,-1018.5 1248,-1037.5 1352,-1037.5 1352,-1018.5 1248,-1018.5"/>
<text text-anchor="middle" x="1300" y="-1025.5" font-family="Helvetica,sans-Serif" font-size="10.00">odp/api/abi/pool.h</text>
</a>
</g>
</g>
<!-- Node1&#45;&gt;Node2 -->
<g id="edge1" class="edge">
<title>Node1&#45;&gt;Node2</title>
<path fill="none" stroke="midnightblue" d="M1352.88,-1074.32C1343.47,-1066.26 1329.26,-1054.08 1317.93,-1044.37"/>
<polygon fill="midnightblue" stroke="midnightblue" points="1320.18,-1041.68 1310.31,-1037.83 1315.62,-1047 1320.18,-1041.68"/>
</g>
<!-- Node3 -->
<g id="node3" class="node">
<title>Node3</title>
<g id="a_node3"><a xlink:href="spec_2pool_8h.html" target="_top" xlink:title="ODP pool.">
<polygon fill="white" stroke="black" points="1370.5,-1018.5 1370.5,-1037.5 1481.5,-1037.5 1481.5,-1018.5 1370.5,-1018.5"/>
<text text-anchor="middle" x="1426" y="-1025.5" font-family="Helvetica,sans-Serif" font-size="10.00">odp/api/spec/pool.h</text>
</a>
</g>
</g>
<!-- Node1&#45;&gt;Node3 -->
<g id="edge2" class="edge">
<title>Node1&#45;&gt;Node3</title>
<path fill="none" stroke="midnightblue" d="M1373.12,-1074.32C1382.53,-1066.26 1396.74,-1054.08 1408.07,-1044.37"/>
<polygon fill="midnightblue" stroke="midnightblue" points="1410.38,-1047 1415.69,-1037.83 1405.82,-1041.68 1410.38,-1047"/>
</g>
<!-- Node4 -->
<g id="node4" class="node">
<title>Node4</title>
<g id="a_node4"><a xlink:title=" ">
<polygon fill="white" stroke="#bfbfbf" points="167.5,-0.5 167.5,-19.5 288.5,-19.5 288.5,-0.5 167.5,-0.5"/>
<text text-anchor="middle" x="228" y="-7.5" font-family="Helvetica,sans-Serif" font-size="10.00">odp/visibility_begin.h</text>
</a>
</g>
</g>
<!-- Node3&#45;&gt;Node4 -->
<g id="edge3" class="edge">
<title>Node3&#45;&gt;Node4</title>
<path fill="none" stroke="midnightblue" d="M1370.36,-1019.05C1367.2,-1018.68 1364.06,-1018.32 1361,-1018 800.4,-958.87 657.76,-972.76 96,-926 53.29,-922.45 0,-959.85 0,-917 0,-917 0,-917 0,-132 0,-92.28 14.92,-79.41 47,-56 78.92,-32.71 121.54,-21.4 157.4,-15.94"/>
<polygon fill="midnightblue" stroke="midnightblue" points="157.9,-19.4 167.32,-14.55 156.93,-12.47 157.9,-19.4"/>
</g>
<!-- Node5 -->
<g id="node5" class="node">
<title>Node5</title>
<g id="a_node5"><a xlink:href="pool__types_8h.html" target="_top" xlink:title="ODP pool.">
<polygon fill="white" stroke="black" points="1129,-962.5 1129,-981.5 1247,-981.5 1247,-962.5 1129,-962.5"/>
<text text-anchor="middle" x="1188" y="-969.5" font-family="Helvetica,sans-Serif" font-size="10.00">odp/api/pool_types.h</text>
</a>
</g>
</g>
<!-- Node3&#45;&gt;Node5 -->
<g id="edge4" class="edge">
<title>Node3&#45;&gt;Node5</title>
<path fill="none" stroke="midnightblue" d="M1388.29,-1018.44C1346.86,-1009.04 1280.24,-993.93 1235.33,-983.74"/>
<polygon fill="midnightblue" stroke="midnightblue" points="1236.06,-980.32 1225.54,-981.52 1234.51,-987.14 1236.06,-980.32"/>
</g>
<!-- Node8 -->
<g id="node8" class="node">
<title>Node8</title>
<g id="a_node8"><a xlink:href="std__types_8h.html" target="_top" xlink:title="Standard C language types and definitions for ODP.">
<polygon fill="white" stroke="black" points="1376,-235.5 1376,-254.5 1488,-254.5 1488,-235.5 1376,-235.5"/>
<text text-anchor="middle" x="1432" y="-242.5" font-family="Helvetica,sans-Serif" font-size="10.00">odp/api/std_types.h</text>
</a>
</g>
</g>
<!-- Node3&#45;&gt;Node8 -->
<g id="edge79" class="edge">
<title>Node3&#45;&gt;Node8</title>
<path fill="none" stroke="midnightblue" d="M1481.52,-1022.97C1546.69,-1014.86 1646,-990.45 1646,-917 1646,-917 1646,-917 1646,-859 1646,-699.88 1608,-662.12 1608,-503 1608,-503 1608,-503 1608,-372.5 1608,-308.34 1529.92,-273.53 1477.77,-257.43"/>
<polygon fill="midnightblue" stroke="midnightblue" points="1478.62,-254.04 1468.04,-254.55 1476.64,-260.75 1478.62,-254.04"/>
</g>
<!-- Node15 -->
<g id="node15" class="node">
<title>Node15</title>
<g id="a_node15"><a xlink:title=" ">
<polygon fill="white" stroke="#bfbfbf" points="1250,-0.5 1250,-19.5 1362,-19.5 1362,-0.5 1250,-0.5"/>
<text text-anchor="middle" x="1306" y="-7.5" font-family="Helvetica,sans-Serif" font-size="10.00">odp/visibility_end.h</text>
</a>
</g>
</g>
<!-- Node3&#45;&gt;Node15 -->
<g id="edge80" class="edge">
<title>Node3&#45;&gt;Node15</title>
<path fill="none" stroke="midnightblue" d="M1481.53,-1020.35C1576.5,-1007.41 1760,-974.92 1760,-917 1760,-917 1760,-917 1760,-132 1760,-86.08 1730.91,-76.86 1690,-56 1635.98,-28.46 1466.96,-17.38 1372.15,-13.24"/>
<polygon fill="midnightblue" stroke="midnightblue" points="1372.23,-9.74 1362.1,-12.82 1371.94,-16.74 1372.23,-9.74"/>
</g>
<!-- Node6 -->
<g id="node6" class="node">
<title>Node6</title>
<g id="a_node6"><a xlink:title=" ">
<polygon fill="white" stroke="#bfbfbf" points="642,-297 642,-316 778,-316 778,-297 642,-297"/>
<text text-anchor="middle" x="710" y="-304" font-family="Helvetica,sans-Serif" font-size="10.00">odp/api/abi/pool_types.h</text>
</a>
</g>
</g>
<!-- Node5&#45;&gt;Node6 -->
<g id="edge5" class="edge">
<title>Node5&#45;&gt;Node6</title>
<path fill="none" stroke="midnightblue" d="M1128.99,-971.61C894.07,-973.28 38,-971.75 38,-861 38,-861 38,-861 38,-803 38,-640.01 556.6,-380.99 682.64,-320.45"/>
<polygon fill="midnightblue" stroke="midnightblue" points="684.17,-323.6 691.68,-316.13 681.15,-317.29 684.17,-323.6"/>
</g>
<!-- Node7 -->
<g id="node7" class="node">
<title>Node7</title>
<g id="a_node7"><a xlink:href="spec_2pool__types_8h.html" target="_top" xlink:title="Type definitions for pools.">
<polygon fill="white" stroke="black" points="1123.5,-906.5 1123.5,-925.5 1266.5,-925.5 1266.5,-906.5 1123.5,-906.5"/>
<text text-anchor="middle" x="1195" y="-913.5" font-family="Helvetica,sans-Serif" font-size="10.00">odp/api/spec/pool_types.h</text>
</a>
</g>
</g>
<!-- Node5&#45;&gt;Node7 -->
<g id="edge6" class="edge">
<title>Node5&#45;&gt;Node7</title>
<path fill="none" stroke="midnightblue" d="M1189.16,-962.08C1190.08,-954.93 1191.42,-944.64 1192.58,-935.69"/>
<polygon fill="midnightblue" stroke="midnightblue" points="1196.05,-936.12 1193.87,-925.75 1189.11,-935.22 1196.05,-936.12"/>
</g>
<!-- Node7&#45;&gt;Node4 -->
<g id="edge7" class="edge">
<title>Node7&#45;&gt;Node4</title>
<path fill="none" stroke="midnightblue" d="M1123.5,-912.6C871.25,-902.22 38,-850.9 38,-626 38,-626 38,-626 38,-132 38,-92.75 52.2,-80.33 83,-56 104.27,-39.2 131.86,-28.63 157.25,-22"/>
<polygon fill="midnightblue" stroke="midnightblue" points="158.34,-25.34 167.22,-19.57 156.68,-18.54 158.34,-25.34"/>
</g>
<!-- Node7&#45;&gt;Node8 -->
<g id="edge8" class="edge">
<title>Node7&#45;&gt;Node8</title>
<path fill="none" stroke="midnightblue" d="M1266.86,-908.65C1375.75,-897.02 1570,-867.5 1570,-805 1570,-805 1570,-805 1570,-439.5 1570,-364.32 1537.49,-348.46 1489,-291 1479.12,-279.29 1465.78,-268.56 1454.48,-260.51"/>
<polygon fill="midnightblue" stroke="midnightblue" points="1456.2,-257.45 1445.97,-254.67 1452.24,-263.22 1456.2,-257.45"/>
</g>
<!-- Node7&#45;&gt;Node15 -->
<g id="edge78" class="edge">
<title>Node7&#45;&gt;Node15</title>
<path fill="none" stroke="midnightblue" d="M1266.81,-909.97C1348.75,-903.39 1477.09,-890.24 1521,-870 1689.89,-792.15 1722,-688.97 1722,-503 1722,-503 1722,-503 1722,-132 1722,-84.86 1690.14,-77.13 1648,-56 1601.06,-32.46 1457.94,-20.06 1372.44,-14.58"/>
<polygon fill="midnightblue" stroke="midnightblue" points="1372.51,-11.07 1362.31,-13.94 1372.07,-18.06 1372.51,-11.07"/>
</g>
<!-- Node16 -->
<g id="node16" class="node">
<title>Node16</title>
<g id="a_node16"><a xlink:href="dma__types_8h.html" target="_top" xlink:title="ODP DMA.">
<polygon fill="white" stroke="black" points="1093.5,-850.5 1093.5,-869.5 1212.5,-869.5 1212.5,-850.5 1093.5,-850.5"/>
<text text-anchor="middle" x="1153" y="-857.5" font-family="Helvetica,sans-Serif" font-size="10.00">odp/api/dma_types.h</text>
</a>
</g>
</g>
<!-- Node7&#45;&gt;Node16 -->
<g id="edge19" class="edge">
<title>Node7&#45;&gt;Node16</title>
<path fill="none" stroke="midnightblue" d="M1188.06,-906.08C1182.07,-898.38 1173.25,-887.03 1165.95,-877.65"/>
<polygon fill="midnightblue" stroke="midnightblue" points="1168.71,-875.5 1159.81,-869.75 1163.18,-879.79 1168.71,-875.5"/>
</g>
<!-- Node41 -->
<g id="node41" class="node">
<title>Node41</title>
<g id="a_node41"><a xlink:href="ml__types_8h.html" target="_top" xlink:title="ODP Machine Learning (ML) types.">
<polygon fill="white" stroke="black" points="1394,-738.5 1394,-757.5 1504,-757.5 1504,-738.5 1394,-738.5"/>
<text text-anchor="middle" x="1449" y="-745.5" font-family="Helvetica,sans-Serif" font-size="10.00">odp/api/ml_types.h</text>
</a>
</g>
</g>
<!-- Node7&#45;&gt;Node41 -->
<g id="edge70" class="edge">
<title>Node7&#45;&gt;Node41</title>
<path fill="none" stroke="midnightblue" d="M1208.3,-906.31C1249.62,-879.3 1376.06,-796.67 1427.2,-763.25"/>
<polygon fill="midnightblue" stroke="midnightblue" points="1429.38,-766.01 1435.83,-757.61 1425.55,-760.15 1429.38,-766.01"/>
</g>
<!-- Node9 -->
<g id="node9" class="node">
<title>Node9</title>
<g id="a_node9"><a xlink:title=" ">
<polygon fill="white" stroke="#bfbfbf" points="1372,-179.5 1372,-198.5 1502,-198.5 1502,-179.5 1372,-179.5"/>
<text text-anchor="middle" x="1437" y="-186.5" font-family="Helvetica,sans-Serif" font-size="10.00">odp/api/abi/std_types.h</text>
</a>
</g>
</g>
<!-- Node8&#45;&gt;Node9 -->
<g id="edge9" class="edge">
<title>Node8&#45;&gt;Node9</title>
<path fill="none" stroke="midnightblue" d="M1432.83,-235.08C1433.48,-228.01 1434.42,-217.86 1435.24,-208.99"/>
<polygon fill="midnightblue" stroke="midnightblue" points="1438.75,-209.03 1436.19,-198.75 1431.78,-208.39 1438.75,-209.03"/>
</g>
<!-- Node10 -->
<g id="node10" class="node">
<title>Node10</title>
<g id="a_node10"><a xlink:href="spec_2std__types_8h.html" target="_top" xlink:title="Common types and definitions for ODP API files.">
<polygon fill="white" stroke="black" points="1178.5,-179.5 1178.5,-198.5 1315.5,-198.5 1315.5,-179.5 1178.5,-179.5"/>
<text text-anchor="middle" x="1247" y="-186.5" font-family="Helvetica,sans-Serif" font-size="10.00">odp/api/spec/std_types.h</text>
</a>
</g>
</g>
<!-- Node8&#45;&gt;Node10 -->
<g id="edge10" class="edge">
<title>Node8&#45;&gt;Node10</title>
<path fill="none" stroke="midnightblue" d="M1402.69,-235.44C1371.16,-226.24 1320.87,-211.56 1286.01,-201.39"/>
<polygon fill="midnightblue" stroke="midnightblue" points="1286.76,-197.96 1276.18,-198.52 1284.8,-204.68 1286.76,-197.96"/>
</g>
<!-- Node10&#45;&gt;Node4 -->
<g id="edge11" class="edge">
<title>Node10&#45;&gt;Node4</title>
<path fill="none" stroke="midnightblue" d="M1185.35,-179.48C1089.16,-165.33 898.09,-133.86 741,-87 705.65,-76.46 699.81,-64.87 664,-56 537.71,-24.72 385.62,-15.15 298.54,-12.24"/>
<polygon fill="midnightblue" stroke="midnightblue" points="298.61,-8.74 288.5,-11.93 298.39,-15.74 298.61,-8.74"/>
</g>
<!-- Node11 -->
<g id="node11" class="node">
<title>Node11</title>
<g id="a_node11"><a xlink:title=" ">
<polygon fill="white" stroke="#bfbfbf" points="1224.5,-123.5 1224.5,-142.5 1277.5,-142.5 1277.5,-123.5 1224.5,-123.5"/>
<text text-anchor="middle" x="1251" y="-130.5" font-family="Helvetica,sans-Serif" font-size="10.00">stdint.h</text>
</a>
</g>
</g>
<!-- Node10&#45;&gt;Node11 -->
<g id="edge12" class="edge">
<title>Node10&#45;&gt;Node11</title>
<path fill="none" stroke="midnightblue" d="M1247.66,-179.08C1248.18,-172.01 1248.94,-161.86 1249.59,-152.99"/>
<polygon fill="midnightblue" stroke="midnightblue" points="1253.1,-152.98 1250.35,-142.75 1246.12,-152.47 1253.1,-152.98"/>
</g>
<!-- Node12 -->
<g id="node12" class="node">
<title>Node12</title>
<g id="a_node12"><a xlink:href="align_8h.html" target="_top" xlink:title="ODP alignments.">
<polygon fill="white" stroke="black" points="1117.5,-123.5 1117.5,-142.5 1206.5,-142.5 1206.5,-123.5 1117.5,-123.5"/>
<text text-anchor="middle" x="1162" y="-130.5" font-family="Helvetica,sans-Serif" font-size="10.00">odp/api/align.h</text>
</a>
</g>
</g>
<!-- Node10&#45;&gt;Node12 -->
<g id="edge13" class="edge">
<title>Node10&#45;&gt;Node12</title>
<path fill="none" stroke="midnightblue" d="M1233.34,-179.32C1220.08,-170.9 1199.73,-157.97 1184.15,-148.07"/>
<polygon fill="midnightblue" stroke="midnightblue" points="1185.94,-145.06 1175.62,-142.65 1182.19,-150.97 1185.94,-145.06"/>
</g>
<!-- Node10&#45;&gt;Node15 -->
<g id="edge18" class="edge">
<title>Node10&#45;&gt;Node15</title>
<path fill="none" stroke="midnightblue" d="M1257.11,-179.47C1266.24,-171.15 1279.24,-157.64 1286,-143 1303.25,-105.6 1306.19,-56.52 1306.37,-29.99"/>
<polygon fill="midnightblue" stroke="midnightblue" points="1309.87,-29.79 1306.31,-19.81 1302.87,-29.83 1309.87,-29.79"/>
</g>
<!-- Node13 -->
<g id="node13" class="node">
<title>Node13</title>
<g id="a_node13"><a xlink:title=" ">
<polygon fill="white" stroke="#bfbfbf" points="1117.5,-62 1117.5,-81 1224.5,-81 1224.5,-62 1117.5,-62"/>
<text text-anchor="middle" x="1171" y="-69" font-family="Helvetica,sans-Serif" font-size="10.00">odp/api/abi/align.h</text>
</a>
</g>
</g>
<!-- Node12&#45;&gt;Node13 -->
<g id="edge14" class="edge">
<title>Node12&#45;&gt;Node13</title>
<path fill="none" stroke="midnightblue" d="M1163.29,-123.48C1164.56,-115.08 1166.54,-101.98 1168.18,-91.16"/>
<polygon fill="midnightblue" stroke="midnightblue" points="1171.68,-91.42 1169.71,-81.01 1164.76,-90.37 1171.68,-91.42"/>
</g>
<!-- Node14 -->
<g id="node14" class="node">
<title>Node14</title>
<g id="a_node14"><a xlink:href="spec_2align_8h.html" target="_top" xlink:title="ODP alignments.">
<polygon fill="white" stroke="black" points="750,-62 750,-81 864,-81 864,-62 750,-62"/>
<text text-anchor="middle" x="807" y="-69" font-family="Helvetica,sans-Serif" font-size="10.00">odp/api/spec/align.h</text>
</a>
</g>
</g>
<!-- Node12&#45;&gt;Node14 -->
<g id="edge15" class="edge">
<title>Node12&#45;&gt;Node14</title>
<path fill="none" stroke="midnightblue" d="M1117.4,-124.52C1054.3,-113.95 938.77,-94.59 867.85,-82.7"/>
<polygon fill="midnightblue" stroke="midnightblue" points="868.16,-79.2 857.72,-81 867,-86.11 868.16,-79.2"/>
</g>
<!-- Node14&#45;&gt;Node4 -->
<g id="edge16" class="edge">
<title>Node14&#45;&gt;Node4</title>
<path fill="none" stroke="midnightblue" d="M769.19,-61.95C758.5,-59.76 746.83,-57.58 736,-56 580.94,-33.37 397.47,-20.52 298.99,-14.75"/>
<polygon fill="midnightblue" stroke="midnightblue" points="299.05,-11.24 288.86,-14.16 298.64,-18.23 299.05,-11.24"/>
</g>
<!-- Node14&#45;&gt;Node15 -->
<g id="edge17" class="edge">
<title>Node14&#45;&gt;Node15</title>
<path fill="none" stroke="midnightblue" d="M845.2,-61.99C855.79,-59.83 867.31,-57.65 878,-56 1005.24,-36.37 1155.1,-22.78 1239.48,-15.99"/>
<polygon fill="midnightblue" stroke="midnightblue" points="1240,-19.46 1249.69,-15.17 1239.44,-12.48 1240,-19.46"/>
</g>
<!-- Node17 -->
<g id="node17" class="node">
<title>Node17</title>
<g id="a_node17"><a xlink:title=" ">
<polygon fill="white" stroke="#bfbfbf" points="1084.5,-794.5 1084.5,-813.5 1221.5,-813.5 1221.5,-794.5 1084.5,-794.5"/>
<text text-anchor="middle" x="1153" y="-801.5" font-family="Helvetica,sans-Serif" font-size="10.00">odp/api/abi/dma_types.h</text>
</a>
</g>
</g>
<!-- Node16&#45;&gt;Node17 -->
<g id="edge20" class="edge">
<title>Node16&#45;&gt;Node17</title>
<path fill="none" stroke="midnightblue" d="M1153,-850.08C1153,-843.01 1153,-832.86 1153,-823.99"/>
<polygon fill="midnightblue" stroke="midnightblue" points="1156.5,-823.75 1153,-813.75 1149.5,-823.75 1156.5,-823.75"/>
</g>
<!-- Node18 -->
<g id="node18" class="node">
<title>Node18</title>
<g id="a_node18"><a xlink:href="spec_2dma__types_8h.html" target="_top" xlink:title="ODP DMA.">
<polygon fill="white" stroke="black" points="697,-794.5 697,-813.5 841,-813.5 841,-794.5 697,-794.5"/>
<text text-anchor="middle" x="769" y="-801.5" font-family="Helvetica,sans-Serif" font-size="10.00">odp/api/spec/dma_types.h</text>
</a>
</g>
</g>
<!-- Node16&#45;&gt;Node18 -->
<g id="edge21" class="edge">
<title>Node16&#45;&gt;Node18</title>
<path fill="none" stroke="midnightblue" d="M1093.42,-850.62C1024.91,-840.99 912.55,-825.19 839.68,-814.94"/>
<polygon fill="midnightblue" stroke="midnightblue" points="840.06,-811.46 829.67,-813.53 839.09,-818.39 840.06,-811.46"/>
</g>
<!-- Node18&#45;&gt;Node4 -->
<g id="edge22" class="edge">
<title>Node18&#45;&gt;Node4</title>
<path fill="none" stroke="midnightblue" d="M696.97,-800.39C558.66,-794.89 265.99,-780.72 226,-758 92.89,-682.39 76,-627.86 76,-307.5 76,-307.5 76,-307.5 76,-132 76,-94.03 86.91,-81.54 115,-56 132.61,-39.99 156.63,-29.35 177.99,-22.46"/>
<polygon fill="midnightblue" stroke="midnightblue" points="179.03,-25.8 187.59,-19.55 177,-19.1 179.03,-25.8"/>
</g>
<!-- Node18&#45;&gt;Node5 -->
<g id="edge68" class="edge">
<title>Node18&#45;&gt;Node5</title>
<path fill="none" stroke="midnightblue" d="M790.52,-813.52C859.52,-840.86 1075.47,-926.42 1156.69,-958.6"/>
<polygon fill="midnightblue" stroke="midnightblue" points="1155.77,-962 1166.36,-962.42 1158.35,-955.49 1155.77,-962"/>
</g>
<!-- Node18&#45;&gt;Node8 -->
<g id="edge67" class="edge">
<title>Node18&#45;&gt;Node8</title>
<path fill="none" stroke="midnightblue" d="M808.24,-794.44C959.18,-760.99 1494,-637.34 1494,-564.5 1494,-564.5 1494,-564.5 1494,-372.5 1494,-329.34 1464.54,-285.58 1446.24,-262.55"/>
<polygon fill="midnightblue" stroke="midnightblue" points="1448.91,-260.28 1439.85,-254.78 1443.5,-264.73 1448.91,-260.28"/>
</g>
<!-- Node18&#45;&gt;Node15 -->
<g id="edge69" class="edge">
<title>Node18&#45;&gt;Node15</title>
<path fill="none" stroke="midnightblue" d="M841.07,-800.37C1022.2,-793.52 1484.16,-774.52 1513,-758 1631.4,-690.17 1684,-639.46 1684,-503 1684,-503 1684,-503 1684,-132 1684,-82.96 1648.06,-77.54 1604,-56 1564.33,-36.6 1447.4,-23.22 1372.35,-16.35"/>
<polygon fill="midnightblue" stroke="midnightblue" points="1372.32,-12.84 1362.05,-15.43 1371.7,-19.81 1372.32,-12.84"/>
</g>
<!-- Node19 -->
<g id="node19" class="node">
<title>Node19</title>
<g id="a_node19"><a xlink:href="event__types_8h.html" target="_top" xlink:title="ODP event API type definitions.">
<polygon fill="white" stroke="black" points="303.5,-235.5 303.5,-254.5 428.5,-254.5 428.5,-235.5 303.5,-235.5"/>
<text text-anchor="middle" x="366" y="-242.5" font-family="Helvetica,sans-Serif" font-size="10.00">odp/api/event_types.h</text>
</a>
</g>
</g>
<!-- Node18&#45;&gt;Node19 -->
<g id="edge23" class="edge">
<title>Node18&#45;&gt;Node19</title>
<path fill="none" stroke="midnightblue" d="M696.84,-803.55C541.63,-802.78 190,-789.75 190,-687.5 190,-687.5 190,-687.5 190,-439.5 190,-351.8 290.16,-286.3 339.36,-259.41"/>
<polygon fill="midnightblue" stroke="midnightblue" points="341.3,-262.35 348.48,-254.56 338.01,-256.17 341.3,-262.35"/>
</g>
<!-- Node22 -->
<g id="node22" class="node">
<title>Node22</title>
<g id="a_node22"><a xlink:href="packet__types_8h.html" target="_top" xlink:title="ODP packet.">
<polygon fill="white" stroke="black" points="435.5,-738.5 435.5,-757.5 564.5,-757.5 564.5,-738.5 435.5,-738.5"/>
<text text-anchor="middle" x="500" y="-745.5" font-family="Helvetica,sans-Serif" font-size="10.00">odp/api/packet_types.h</text>
</a>
</g>
</g>
<!-- Node18&#45;&gt;Node22 -->
<g id="edge28" class="edge">
<title>Node18&#45;&gt;Node22</title>
<path fill="none" stroke="midnightblue" d="M726.38,-794.44C679.25,-784.98 603.31,-769.74 552.54,-759.55"/>
<polygon fill="midnightblue" stroke="midnightblue" points="552.92,-756.05 542.42,-757.52 551.54,-762.92 552.92,-756.05"/>
</g>
<!-- Node29 -->
<g id="node29" class="node">
<title>Node29</title>
<g id="a_node29"><a xlink:href="queue__types_8h.html" target="_top" xlink:title="ODP queue.">
<polygon fill="white" stroke="black" points="350.5,-615.5 350.5,-634.5 477.5,-634.5 477.5,-615.5 350.5,-615.5"/>
<text text-anchor="middle" x="414" y="-622.5" font-family="Helvetica,sans-Serif" font-size="10.00">odp/api/queue_types.h</text>
</a>
</g>
</g>
<!-- Node18&#45;&gt;Node29 -->
<g id="edge66" class="edge">
<title>Node18&#45;&gt;Node29</title>
<path fill="none" stroke="midnightblue" d="M762.26,-794.23C743.34,-770.28 686.98,-703.37 624,-671 599.21,-658.26 531.73,-645.05 479.89,-636.26"/>
<polygon fill="midnightblue" stroke="midnightblue" points="480.19,-632.76 469.75,-634.57 479.03,-639.67 480.19,-632.76"/>
</g>
<!-- Node20 -->
<g id="node20" class="node">
<title>Node20</title>
<g id="a_node20"><a xlink:title=" ">
<polygon fill="white" stroke="#bfbfbf" points="394.5,-179.5 394.5,-198.5 537.5,-198.5 537.5,-179.5 394.5,-179.5"/>
<text text-anchor="middle" x="466" y="-186.5" font-family="Helvetica,sans-Serif" font-size="10.00">odp/api/abi/event_types.h</text>
</a>
</g>
</g>
<!-- Node19&#45;&gt;Node20 -->
<g id="edge24" class="edge">
<title>Node19&#45;&gt;Node20</title>
<path fill="none" stroke="midnightblue" d="M382.07,-235.32C397.96,-226.74 422.51,-213.49 440.96,-203.52"/>
<polygon fill="midnightblue" stroke="midnightblue" points="442.84,-206.49 449.97,-198.65 439.51,-200.33 442.84,-206.49"/>
</g>
<!-- Node21 -->
<g id="node21" class="node">
<title>Node21</title>
<g id="a_node21"><a xlink:href="spec_2event__types_8h.html" target="_top" xlink:title="ODP event API type definitions.">
<polygon fill="white" stroke="black" points="546.5,-56.5 546.5,-86.5 655.5,-86.5 655.5,-56.5 546.5,-56.5"/>
<text text-anchor="start" x="554.5" y="-74.5" font-family="Helvetica,sans-Serif" font-size="10.00">odp/api/spec/event</text>
<text text-anchor="middle" x="601" y="-63.5" font-family="Helvetica,sans-Serif" font-size="10.00">_types.h</text>
</a>
</g>
</g>
<!-- Node19&#45;&gt;Node21 -->
<g id="edge25" class="edge">
<title>Node19&#45;&gt;Node21</title>
<path fill="none" stroke="midnightblue" d="M366.36,-235.4C367.36,-221.9 371.09,-195.57 385,-179 423.99,-132.57 488.12,-104.57 536.39,-89.02"/>
<polygon fill="midnightblue" stroke="midnightblue" points="537.62,-92.3 546.13,-85.98 535.54,-85.62 537.62,-92.3"/>
</g>
<!-- Node21&#45;&gt;Node4 -->
<g id="edge26" class="edge">
<title>Node21&#45;&gt;Node4</title>
<path fill="none" stroke="midnightblue" d="M546.45,-58.72C541.57,-57.76 536.7,-56.84 532,-56 452.4,-41.76 360.5,-28.61 298.76,-20.25"/>
<polygon fill="midnightblue" stroke="midnightblue" points="299.12,-16.76 288.74,-18.9 298.18,-23.7 299.12,-16.76"/>
</g>
<!-- Node21&#45;&gt;Node15 -->
<g id="edge27" class="edge">
<title>Node21&#45;&gt;Node15</title>
<path fill="none" stroke="midnightblue" d="M655.87,-58.26C660.63,-57.42 665.39,-56.64 670,-56 876.45,-27.14 1123.32,-16.39 1239.43,-12.72"/>
<polygon fill="midnightblue" stroke="midnightblue" points="1239.69,-16.22 1249.58,-12.41 1239.48,-9.22 1239.69,-16.22"/>
</g>
<!-- Node23 -->
<g id="node23" class="node">
<title>Node23</title>
<g id="a_node23"><a xlink:title=" ">
<polygon fill="white" stroke="#bfbfbf" points="385,-671.5 385,-701.5 491,-701.5 491,-671.5 385,-671.5"/>
<text text-anchor="start" x="393" y="-689.5" font-family="Helvetica,sans-Serif" font-size="10.00">odp/api/abi/packet</text>
<text text-anchor="middle" x="438" y="-678.5" font-family="Helvetica,sans-Serif" font-size="10.00">_io_types.h</text>
</a>
</g>
</g>
<!-- Node22&#45;&gt;Node23 -->
<g id="edge29" class="edge">
<title>Node22&#45;&gt;Node23</title>
<path fill="none" stroke="midnightblue" d="M491.12,-738.48C483.03,-730.72 470.76,-718.94 460.05,-708.66"/>
<polygon fill="midnightblue" stroke="midnightblue" points="462.25,-705.92 452.61,-701.52 457.4,-710.97 462.25,-705.92"/>
</g>
<!-- Node24 -->
<g id="node24" class="node">
<title>Node24</title>
<g id="a_node24"><a xlink:title=" ">
<polygon fill="white" stroke="#bfbfbf" points="509,-671.5 509,-701.5 615,-701.5 615,-671.5 509,-671.5"/>
<text text-anchor="start" x="517" y="-689.5" font-family="Helvetica,sans-Serif" font-size="10.00">odp/api/abi/packet</text>
<text text-anchor="middle" x="562" y="-678.5" font-family="Helvetica,sans-Serif" font-size="10.00">_types.h</text>
</a>
</g>
</g>
<!-- Node22&#45;&gt;Node24 -->
<g id="edge30" class="edge">
<title>Node22&#45;&gt;Node24</title>
<path fill="none" stroke="midnightblue" d="M508.88,-738.48C516.97,-730.72 529.24,-718.94 539.95,-708.66"/>
<polygon fill="midnightblue" stroke="midnightblue" points="542.6,-710.97 547.39,-701.52 537.75,-705.92 542.6,-710.97"/>
</g>
<!-- Node25 -->
<g id="node25" class="node">
<title>Node25</title>
<g id="a_node25"><a xlink:href="spec_2packet__types_8h.html" target="_top" xlink:title="ODP packet types.">
<polygon fill="white" stroke="black" points="247.5,-671.5 247.5,-701.5 360.5,-701.5 360.5,-671.5 247.5,-671.5"/>
<text text-anchor="start" x="255.5" y="-689.5" font-family="Helvetica,sans-Serif" font-size="10.00">odp/api/spec/packet</text>
<text text-anchor="middle" x="304" y="-678.5" font-family="Helvetica,sans-Serif" font-size="10.00">_types.h</text>
</a>
</g>
</g>
<!-- Node22&#45;&gt;Node25 -->
<g id="edge31" class="edge">
<title>Node22&#45;&gt;Node25</title>
<path fill="none" stroke="midnightblue" d="M471.92,-738.48C442.89,-729.66 396.79,-715.67 360.23,-704.57"/>
<polygon fill="midnightblue" stroke="midnightblue" points="360.78,-701.08 350.19,-701.52 358.75,-707.78 360.78,-701.08"/>
</g>
<!-- Node25&#45;&gt;Node4 -->
<g id="edge32" class="edge">
<title>Node25&#45;&gt;Node4</title>
<path fill="none" stroke="midnightblue" d="M290.64,-671.34C247.39,-623.96 114,-465.05 114,-307.5 114,-307.5 114,-307.5 114,-132 114,-96.58 115,-82.94 138,-56 150.92,-40.86 170.16,-30.29 187.54,-23.21"/>
<polygon fill="midnightblue" stroke="midnightblue" points="188.85,-26.46 196.95,-19.63 186.36,-19.92 188.85,-26.46"/>
</g>
<!-- Node25&#45;&gt;Node15 -->
<g id="edge65" class="edge">
<title>Node25&#45;&gt;Node15</title>
<path fill="none" stroke="midnightblue" d="M302.78,-671.22C301.19,-645.04 300.88,-588.37 323,-548 385.56,-433.81 444.31,-439.32 546,-358 566.83,-341.34 572.89,-338.3 594,-322 611.53,-308.47 614.7,-303.46 633,-291 805.67,-173.47 843.47,-126.76 1040,-56 1105.51,-32.41 1184.65,-21.04 1239.48,-15.66"/>
<polygon fill="midnightblue" stroke="midnightblue" points="1240.14,-19.11 1249.77,-14.69 1239.49,-12.14 1240.14,-19.11"/>
</g>
<!-- Node26 -->
<g id="node26" class="node">
<title>Node26</title>
<g id="a_node26"><a xlink:href="proto__stats__types_8h.html" target="_top" xlink:title="ODP proto stats types.">
<polygon fill="white" stroke="black" points="332,-358.5 332,-388.5 442,-388.5 442,-358.5 332,-358.5"/>
<text text-anchor="start" x="340" y="-376.5" font-family="Helvetica,sans-Serif" font-size="10.00">odp/api/proto_stats</text>
<text text-anchor="middle" x="387" y="-365.5" font-family="Helvetica,sans-Serif" font-size="10.00">_types.h</text>
</a>
</g>
</g>
<!-- Node25&#45;&gt;Node26 -->
<g id="edge33" class="edge">
<title>Node25&#45;&gt;Node26</title>
<path fill="none" stroke="midnightblue" d="M296.49,-671.42C285.42,-649.31 266,-604.79 266,-564.5 266,-564.5 266,-564.5 266,-501 266,-451.97 314.05,-414.5 349.6,-393.49"/>
<polygon fill="midnightblue" stroke="midnightblue" points="351.38,-396.5 358.32,-388.51 347.9,-390.42 351.38,-396.5"/>
</g>
<!-- Node25&#45;&gt;Node29 -->
<g id="edge39" class="edge">
<title>Node25&#45;&gt;Node29</title>
<path fill="none" stroke="midnightblue" d="M330.07,-671.4C347.87,-661.77 371.31,-649.09 388.9,-639.58"/>
<polygon fill="midnightblue" stroke="midnightblue" points="390.86,-642.49 397.99,-634.66 387.53,-636.34 390.86,-642.49"/>
</g>
<!-- Node27 -->
<g id="node27" class="node">
<title>Node27</title>
<g id="a_node27"><a xlink:title=" ">
<polygon fill="white" stroke="#bfbfbf" points="332,-291.5 332,-321.5 460,-321.5 460,-291.5 332,-291.5"/>
<text text-anchor="start" x="340" y="-309.5" font-family="Helvetica,sans-Serif" font-size="10.00">odp/api/abi/proto_stats</text>
<text text-anchor="middle" x="396" y="-298.5" font-family="Helvetica,sans-Serif" font-size="10.00">_types.h</text>
</a>
</g>
</g>
<!-- Node26&#45;&gt;Node27 -->
<g id="edge34" class="edge">
<title>Node26&#45;&gt;Node27</title>
<path fill="none" stroke="midnightblue" d="M388.95,-358.4C390.04,-350.56 391.42,-340.6 392.67,-331.57"/>
<polygon fill="midnightblue" stroke="midnightblue" points="396.15,-331.96 394.05,-321.58 389.21,-331 396.15,-331.96"/>
</g>
<!-- Node28 -->
<g id="node28" class="node">
<title>Node28</title>
<g id="a_node28"><a xlink:href="spec_2proto__stats__types_8h.html" target="_top" xlink:title="ODP proto stats types.">
<polygon fill="white" stroke="black" points="478.5,-291.5 478.5,-321.5 585.5,-321.5 585.5,-291.5 478.5,-291.5"/>
<text text-anchor="start" x="486.5" y="-309.5" font-family="Helvetica,sans-Serif" font-size="10.00">odp/api/spec/proto</text>
<text text-anchor="middle" x="532" y="-298.5" font-family="Helvetica,sans-Serif" font-size="10.00">_stats_types.h</text>
</a>
</g>
</g>
<!-- Node26&#45;&gt;Node28 -->
<g id="edge35" class="edge">
<title>Node26&#45;&gt;Node28</title>
<path fill="none" stroke="midnightblue" d="M418.46,-358.4C439.84,-348.81 468.31,-336.05 491.4,-325.7"/>
<polygon fill="midnightblue" stroke="midnightblue" points="492.91,-328.86 500.6,-321.58 490.04,-322.47 492.91,-328.86"/>
</g>
<!-- Node28&#45;&gt;Node4 -->
<g id="edge36" class="edge">
<title>Node28&#45;&gt;Node4</title>
<path fill="none" stroke="midnightblue" d="M478.4,-293.07C475.22,-292.37 472.07,-291.67 469,-291 391.41,-274.09 355.57,-305.14 294,-255 269.61,-235.14 266,-221.46 266,-190 266,-190 266,-190 266,-132 266,-93.81 248.56,-51.83 237.31,-28.72"/>
<polygon fill="midnightblue" stroke="midnightblue" points="240.29,-26.86 232.66,-19.52 234.04,-30.02 240.29,-26.86"/>
</g>
<!-- Node28&#45;&gt;Node8 -->
<g id="edge37" class="edge">
<title>Node28&#45;&gt;Node8</title>
<path fill="none" stroke="midnightblue" d="M585.62,-296.92C600.9,-294.72 617.58,-292.54 633,-291 903.82,-263.98 1228.03,-251.96 1365.34,-247.81"/>
<polygon fill="midnightblue" stroke="midnightblue" points="1365.79,-251.3 1375.69,-247.5 1365.59,-244.3 1365.79,-251.3"/>
</g>
<!-- Node28&#45;&gt;Node15 -->
<g id="edge38" class="edge">
<title>Node28&#45;&gt;Node15</title>
<path fill="none" stroke="midnightblue" d="M538.66,-291.42C560.39,-247.27 634.05,-111.2 741,-56 784.35,-33.63 1099.51,-18.91 1239.41,-13.42"/>
<polygon fill="midnightblue" stroke="midnightblue" points="1239.72,-16.91 1249.58,-13.02 1239.45,-9.91 1239.72,-16.91"/>
</g>
<!-- Node30 -->
<g id="node30" class="node">
<title>Node30</title>
<g id="a_node30"><a xlink:title=" ">
<polygon fill="white" stroke="#bfbfbf" points="332.5,-554 332.5,-573 477.5,-573 477.5,-554 332.5,-554"/>
<text text-anchor="middle" x="405" y="-561" font-family="Helvetica,sans-Serif" font-size="10.00">odp/api/abi/queue_types.h</text>
</a>
</g>
</g>
<!-- Node29&#45;&gt;Node30 -->
<g id="edge40" class="edge">
<title>Node29&#45;&gt;Node30</title>
<path fill="none" stroke="midnightblue" d="M412.71,-615.48C411.44,-607.08 409.46,-593.98 407.82,-583.16"/>
<polygon fill="midnightblue" stroke="midnightblue" points="411.24,-582.37 406.29,-573.01 404.32,-583.42 411.24,-582.37"/>
</g>
<!-- Node31 -->
<g id="node31" class="node">
<title>Node31</title>
<g id="a_node31"><a xlink:href="spec_2queue__types_8h.html" target="_top" xlink:title="ODP queue types.">
<polygon fill="white" stroke="black" points="877.5,-548.5 877.5,-578.5 988.5,-578.5 988.5,-548.5 877.5,-548.5"/>
<text text-anchor="start" x="885.5" y="-566.5" font-family="Helvetica,sans-Serif" font-size="10.00">odp/api/spec/queue</text>
<text text-anchor="middle" x="933" y="-555.5" font-family="Helvetica,sans-Serif" font-size="10.00">_types.h</text>
</a>
</g>
</g>
<!-- Node29&#45;&gt;Node31 -->
<g id="edge41" class="edge">
<title>Node29&#45;&gt;Node31</title>
<path fill="none" stroke="midnightblue" d="M477.64,-616.7C576.69,-605.35 766.76,-583.56 867.15,-572.05"/>
<polygon fill="midnightblue" stroke="midnightblue" points="867.63,-575.52 877.17,-570.9 866.83,-568.56 867.63,-575.52"/>
</g>
<!-- Node31&#45;&gt;Node4 -->
<g id="edge42" class="edge">
<title>Node31&#45;&gt;Node4</title>
<path fill="none" stroke="midnightblue" d="M877.16,-560.78C756.17,-554.47 465.35,-525.14 274,-389 213.94,-346.27 190,-319.71 190,-246 190,-246 190,-246 190,-132 190,-93.81 207.44,-51.83 218.69,-28.72"/>
<polygon fill="midnightblue" stroke="midnightblue" points="221.96,-30.02 223.34,-19.52 215.71,-26.86 221.96,-30.02"/>
</g>
<!-- Node31&#45;&gt;Node15 -->
<g id="edge64" class="edge">
<title>Node31&#45;&gt;Node15</title>
<path fill="none" stroke="midnightblue" d="M979.38,-548.47C1025.37,-531.35 1089,-497.54 1089,-441.5 1089,-441.5 1089,-441.5 1089,-132 1089,-97.18 1083.12,-80.35 1108,-56 1126.62,-37.78 1189.75,-25.59 1239.78,-18.55"/>
<polygon fill="midnightblue" stroke="midnightblue" points="1240.48,-21.99 1249.92,-17.17 1239.54,-15.05 1240.48,-21.99"/>
</g>
<!-- Node32 -->
<g id="node32" class="node">
<title>Node32</title>
<g id="a_node32"><a xlink:href="event__vector__types_8h.html" target="_top" xlink:title="ODP event vector API type definitions.">
<polygon fill="white" stroke="black" points="873.5,-358.5 873.5,-388.5 992.5,-388.5 992.5,-358.5 873.5,-358.5"/>
<text text-anchor="start" x="881.5" y="-376.5" font-family="Helvetica,sans-Serif" font-size="10.00">odp/api/event_vector</text>
<text text-anchor="middle" x="933" y="-365.5" font-family="Helvetica,sans-Serif" font-size="10.00">_types.h</text>
</a>
</g>
</g>
<!-- Node31&#45;&gt;Node32 -->
<g id="edge43" class="edge">
<title>Node31&#45;&gt;Node32</title>
<path fill="none" stroke="midnightblue" d="M933,-548.37C933,-516.44 933,-438.44 933,-398.67"/>
<polygon fill="midnightblue" stroke="midnightblue" points="936.5,-398.54 933,-388.54 929.5,-398.54 936.5,-398.54"/>
</g>
<!-- Node35 -->
<g id="node35" class="node">
<title>Node35</title>
<g id="a_node35"><a xlink:href="schedule__types_8h.html" target="_top" xlink:title="ODP schedule.">
<polygon fill="white" stroke="black" points="1117,-492.5 1117,-511.5 1257,-511.5 1257,-492.5 1117,-492.5"/>
<text text-anchor="middle" x="1187" y="-499.5" font-family="Helvetica,sans-Serif" font-size="10.00">odp/api/schedule_types.h</text>
</a>
</g>
</g>
<!-- Node31&#45;&gt;Node35 -->
<g id="edge51" class="edge">
<title>Node31&#45;&gt;Node35</title>
<path fill="none" stroke="midnightblue" d="M988.74,-549.44C1034.3,-538.77 1097.95,-523.86 1140.73,-513.84"/>
<polygon fill="midnightblue" stroke="midnightblue" points="1141.66,-517.22 1150.6,-511.53 1140.06,-510.4 1141.66,-517.22"/>
</g>
<!-- Node32&#45;&gt;Node6 -->
<g id="edge45" class="edge">
<title>Node32&#45;&gt;Node6</title>
<path fill="none" stroke="midnightblue" d="M884.89,-358.48C844.22,-346.62 786.71,-329.86 748.9,-318.84"/>
<polygon fill="midnightblue" stroke="midnightblue" points="749.84,-315.47 739.26,-316.03 747.88,-322.19 749.84,-315.47"/>
</g>
<!-- Node33 -->
<g id="node33" class="node">
<title>Node33</title>
<g id="a_node33"><a xlink:title=" ">
<polygon fill="white" stroke="#bfbfbf" points="796.5,-291.5 796.5,-321.5 933.5,-321.5 933.5,-291.5 796.5,-291.5"/>
<text text-anchor="start" x="804.5" y="-309.5" font-family="Helvetica,sans-Serif" font-size="10.00">odp/api/abi/event_vector</text>
<text text-anchor="middle" x="865" y="-298.5" font-family="Helvetica,sans-Serif" font-size="10.00">_types.h</text>
</a>
</g>
</g>
<!-- Node32&#45;&gt;Node33 -->
<g id="edge44" class="edge">
<title>Node32&#45;&gt;Node33</title>
<path fill="none" stroke="midnightblue" d="M918.25,-358.4C909.16,-349.71 897.33,-338.4 887.13,-328.66"/>
<polygon fill="midnightblue" stroke="midnightblue" points="889.37,-325.96 879.73,-321.58 884.54,-331.02 889.37,-325.96"/>
</g>
<!-- Node34 -->
<g id="node34" class="node">
<title>Node34</title>
<g id="a_node34"><a xlink:href="spec_2event__vector__types_8h.html" target="_top" xlink:title="ODP event vector API type definitions.">
<polygon fill="white" stroke="black" points="951.5,-291.5 951.5,-321.5 1060.5,-321.5 1060.5,-291.5 951.5,-291.5"/>
<text text-anchor="start" x="959.5" y="-309.5" font-family="Helvetica,sans-Serif" font-size="10.00">odp/api/spec/event</text>
<text text-anchor="middle" x="1006" y="-298.5" font-family="Helvetica,sans-Serif" font-size="10.00">_vector_types.h</text>
</a>
</g>
</g>
<!-- Node32&#45;&gt;Node34 -->
<g id="edge46" class="edge">
<title>Node32&#45;&gt;Node34</title>
<path fill="none" stroke="midnightblue" d="M948.84,-358.4C958.69,-349.62 971.54,-338.18 982.56,-328.37"/>
<polygon fill="midnightblue" stroke="midnightblue" points="985.05,-330.84 990.19,-321.58 980.4,-325.61 985.05,-330.84"/>
</g>
<!-- Node34&#45;&gt;Node4 -->
<g id="edge47" class="edge">
<title>Node34&#45;&gt;Node4</title>
<path fill="none" stroke="midnightblue" d="M951.25,-292.76C948.13,-292.14 945.03,-291.55 942,-291 824.6,-269.8 788.79,-293.86 676,-255 612.72,-233.2 604.49,-211.53 546,-179 438.67,-119.31 308.55,-52.17 254.01,-24.26"/>
<polygon fill="midnightblue" stroke="midnightblue" points="255.53,-21.11 245.03,-19.67 252.34,-27.34 255.53,-21.11"/>
</g>
<!-- Node34&#45;&gt;Node8 -->
<g id="edge49" class="edge">
<title>Node34&#45;&gt;Node8</title>
<path fill="none" stroke="midnightblue" d="M1060.52,-297.72C1075.87,-295.53 1092.59,-293.17 1108,-291 1197.15,-278.47 1300.12,-264.21 1365.62,-255.16"/>
<polygon fill="midnightblue" stroke="midnightblue" points="1366.37,-258.59 1375.8,-253.75 1365.42,-251.65 1366.37,-258.59"/>
</g>
<!-- Node34&#45;&gt;Node15 -->
<g id="edge50" class="edge">
<title>Node34&#45;&gt;Node15</title>
<path fill="none" stroke="midnightblue" d="M1010.65,-291.45C1017.38,-269.89 1029,-227.21 1029,-190 1029,-190 1029,-190 1029,-132 1029,-40.31 1158.02,-17.42 1239.95,-12.12"/>
<polygon fill="midnightblue" stroke="midnightblue" points="1240.16,-15.61 1249.94,-11.54 1239.76,-8.62 1240.16,-15.61"/>
</g>
<!-- Node34&#45;&gt;Node19 -->
<g id="edge48" class="edge">
<title>Node34&#45;&gt;Node19</title>
<path fill="none" stroke="midnightblue" d="M951.29,-292.56C948.15,-291.99 945.04,-291.46 942,-291 762.34,-263.78 548.52,-252.55 438.84,-248.31"/>
<polygon fill="midnightblue" stroke="midnightblue" points="438.68,-244.8 428.56,-247.92 438.42,-251.8 438.68,-244.8"/>
</g>
<!-- Node36 -->
<g id="node36" class="node">
<title>Node36</title>
<g id="a_node36"><a xlink:title=" ">
<polygon fill="white" stroke="#bfbfbf" points="1122.5,-425.5 1122.5,-455.5 1239.5,-455.5 1239.5,-425.5 1122.5,-425.5"/>
<text text-anchor="start" x="1130.5" y="-443.5" font-family="Helvetica,sans-Serif" font-size="10.00">odp/api/abi/schedule</text>
<text text-anchor="middle" x="1181" y="-432.5" font-family="Helvetica,sans-Serif" font-size="10.00">_types.h</text>
</a>
</g>
</g>
<!-- Node35&#45;&gt;Node36 -->
<g id="edge52" class="edge">
<title>Node35&#45;&gt;Node36</title>
<path fill="none" stroke="midnightblue" d="M1186.14,-492.48C1185.43,-485.47 1184.4,-475.19 1183.44,-465.7"/>
<polygon fill="midnightblue" stroke="midnightblue" points="1186.9,-465.12 1182.41,-455.52 1179.94,-465.82 1186.9,-465.12"/>
</g>
<!-- Node37 -->
<g id="node37" class="node">
<title>Node37</title>
<g id="a_node37"><a xlink:href="spec_2schedule__types_8h.html" target="_top" xlink:title="ODP schedule types.">
<polygon fill="white" stroke="black" points="1257.5,-425.5 1257.5,-455.5 1382.5,-455.5 1382.5,-425.5 1257.5,-425.5"/>
<text text-anchor="start" x="1265.5" y="-443.5" font-family="Helvetica,sans-Serif" font-size="10.00">odp/api/spec/schedule</text>
<text text-anchor="middle" x="1320" y="-432.5" font-family="Helvetica,sans-Serif" font-size="10.00">_types.h</text>
</a>
</g>
</g>
<!-- Node35&#45;&gt;Node37 -->
<g id="edge53" class="edge">
<title>Node35&#45;&gt;Node37</title>
<path fill="none" stroke="midnightblue" d="M1206.06,-492.48C1225.08,-483.96 1254.91,-470.62 1279.28,-459.72"/>
<polygon fill="midnightblue" stroke="midnightblue" points="1280.96,-462.8 1288.65,-455.52 1278.1,-456.41 1280.96,-462.8"/>
</g>
<!-- Node37&#45;&gt;Node4 -->
<g id="edge54" class="edge">
<title>Node37&#45;&gt;Node4</title>
<path fill="none" stroke="midnightblue" d="M1257.27,-426.25C1254.14,-425.78 1251.04,-425.36 1248,-425 1145.87,-412.81 412.68,-439.36 323,-389 256.47,-351.64 228,-322.3 228,-246 228,-246 228,-246 228,-132 228,-95.71 228,-53.31 228,-29.56"/>
<polygon fill="midnightblue" stroke="midnightblue" points="231.5,-29.51 228,-19.51 224.5,-29.51 231.5,-29.51"/>
</g>
<!-- Node37&#45;&gt;Node8 -->
<g id="edge56" class="edge">
<title>Node37&#45;&gt;Node8</title>
<path fill="none" stroke="midnightblue" d="M1342.33,-425.48C1355.18,-416.43 1370.75,-403.64 1381,-389 1408.63,-349.55 1422.8,-293.55 1428.65,-264.74"/>
<polygon fill="midnightblue" stroke="midnightblue" points="1432.11,-265.28 1430.55,-254.8 1425.23,-263.96 1432.11,-265.28"/>
</g>
<!-- Node37&#45;&gt;Node15 -->
<g id="edge63" class="edge">
<title>Node37&#45;&gt;Node15</title>
<path fill="none" stroke="midnightblue" d="M1370.29,-425.48C1443.29,-401.7 1570,-346.03 1570,-246 1570,-246 1570,-246 1570,-132 1570,-45.27 1450.79,-20.46 1372.58,-13.52"/>
<polygon fill="midnightblue" stroke="midnightblue" points="1372.56,-10.01 1362.31,-12.69 1372,-16.98 1372.56,-10.01"/>
</g>
<!-- Node37&#45;&gt;Node32 -->
<g id="edge55" class="edge">
<title>Node37&#45;&gt;Node32</title>
<path fill="none" stroke="midnightblue" d="M1257.2,-426.7C1254.09,-426.11 1251.01,-425.54 1248,-425 1163.8,-409.78 1066.51,-394.54 1002.59,-384.84"/>
<polygon fill="midnightblue" stroke="midnightblue" points="1003.04,-381.37 992.63,-383.34 1001.99,-388.29 1003.04,-381.37"/>
</g>
<!-- Node38 -->
<g id="node38" class="node">
<title>Node38</title>
<g id="a_node38"><a xlink:href="thrmask_8h.html" target="_top" xlink:title="ODP thread masks.">
<polygon fill="white" stroke="black" points="1267.5,-364 1267.5,-383 1372.5,-383 1372.5,-364 1267.5,-364"/>
<text text-anchor="middle" x="1320" y="-371" font-family="Helvetica,sans-Serif" font-size="10.00">odp/api/thrmask.h</text>
</a>
</g>
</g>
<!-- Node37&#45;&gt;Node38 -->
<g id="edge57" class="edge">
<title>Node37&#45;&gt;Node38</title>
<path fill="none" stroke="midnightblue" d="M1320,-425.4C1320,-416.06 1320,-403.71 1320,-393.52"/>
<polygon fill="midnightblue" stroke="midnightblue" points="1323.5,-393.19 1320,-383.19 1316.5,-393.19 1323.5,-393.19"/>
</g>
<!-- Node39 -->
<g id="node39" class="node">
<title>Node39</title>
<g id="a_node39"><a xlink:title=" ">
<polygon fill="white" stroke="#bfbfbf" points="1117.5,-297 1117.5,-316 1240.5,-316 1240.5,-297 1117.5,-297"/>
<text text-anchor="middle" x="1179" y="-304" font-family="Helvetica,sans-Serif" font-size="10.00">odp/api/abi/thrmask.h</text>
</a>
</g>
</g>
<!-- Node38&#45;&gt;Node39 -->
<g id="edge58" class="edge">
<title>Node38&#45;&gt;Node39</title>
<path fill="none" stroke="midnightblue" d="M1301.28,-363.87C1277.15,-352.75 1235,-333.32 1207.05,-320.43"/>
<polygon fill="midnightblue" stroke="midnightblue" points="1208.35,-317.18 1197.8,-316.17 1205.42,-323.53 1208.35,-317.18"/>
</g>
<!-- Node40 -->
<g id="node40" class="node">
<title>Node40</title>
<g id="a_node40"><a xlink:href="spec_2thrmask_8h.html" target="_top" xlink:title="ODP thread masks.">
<polygon fill="white" stroke="black" points="1258.5,-297 1258.5,-316 1389.5,-316 1389.5,-297 1258.5,-297"/>
<text text-anchor="middle" x="1324" y="-304" font-family="Helvetica,sans-Serif" font-size="10.00">odp/api/spec/thrmask.h</text>
</a>
</g>
</g>
<!-- Node38&#45;&gt;Node40 -->
<g id="edge59" class="edge">
<title>Node38&#45;&gt;Node40</title>
<path fill="none" stroke="midnightblue" d="M1320.54,-363.73C1321.13,-354.18 1322.09,-338.62 1322.84,-326.28"/>
<polygon fill="midnightblue" stroke="midnightblue" points="1326.35,-326.32 1323.47,-316.13 1319.36,-325.89 1326.35,-326.32"/>
</g>
<!-- Node40&#45;&gt;Node4 -->
<g id="edge60" class="edge">
<title>Node40&#45;&gt;Node4</title>
<path fill="none" stroke="midnightblue" d="M1292.09,-296.92C1135.2,-254.77 446.14,-69.62 269.42,-22.13"/>
<polygon fill="midnightblue" stroke="midnightblue" points="270.28,-18.74 259.71,-19.52 268.46,-25.5 270.28,-18.74"/>
</g>
<!-- Node40&#45;&gt;Node8 -->
<g id="edge61" class="edge">
<title>Node40&#45;&gt;Node8</title>
<path fill="none" stroke="midnightblue" d="M1339.47,-296.98C1357.28,-287.17 1386.74,-270.93 1407.63,-259.42"/>
<polygon fill="midnightblue" stroke="midnightblue" points="1409.49,-262.4 1416.55,-254.51 1406.11,-256.27 1409.49,-262.4"/>
</g>
<!-- Node40&#45;&gt;Node15 -->
<g id="edge62" class="edge">
<title>Node40&#45;&gt;Node15</title>
<path fill="none" stroke="midnightblue" d="M1326.53,-296.89C1331.91,-277.83 1344,-230.5 1344,-190 1344,-190 1344,-190 1344,-132 1344,-93.81 1326.56,-51.83 1315.31,-28.72"/>
<polygon fill="midnightblue" stroke="midnightblue" points="1318.29,-26.86 1310.66,-19.52 1312.04,-30.02 1318.29,-26.86"/>
</g>
<!-- Node42 -->
<g id="node42" class="node">
<title>Node42</title>
<g id="a_node42"><a xlink:title=" ">
<polygon fill="white" stroke="#bfbfbf" points="1394,-677 1394,-696 1522,-696 1522,-677 1394,-677"/>
<text text-anchor="middle" x="1458" y="-684" font-family="Helvetica,sans-Serif" font-size="10.00">odp/api/abi/ml_types.h</text>
</a>
</g>
</g>
<!-- Node41&#45;&gt;Node42 -->
<g id="edge71" class="edge">
<title>Node41&#45;&gt;Node42</title>
<path fill="none" stroke="midnightblue" d="M1450.29,-738.48C1451.56,-730.08 1453.54,-716.98 1455.18,-706.16"/>
<polygon fill="midnightblue" stroke="midnightblue" points="1458.68,-706.42 1456.71,-696.01 1451.76,-705.37 1458.68,-706.42"/>
</g>
<!-- Node43 -->
<g id="node43" class="node">
<title>Node43</title>
<g id="a_node43"><a xlink:href="spec_2ml__types_8h.html" target="_top" xlink:title="ODP Machine Learning (ML) types.">
<polygon fill="white" stroke="black" points="946.5,-677 946.5,-696 1081.5,-696 1081.5,-677 946.5,-677"/>
<text text-anchor="middle" x="1014" y="-684" font-family="Helvetica,sans-Serif" font-size="10.00">odp/api/spec/ml_types.h</text>
</a>
</g>
</g>
<!-- Node41&#45;&gt;Node43 -->
<g id="edge72" class="edge">
<title>Node41&#45;&gt;Node43</title>
<path fill="none" stroke="midnightblue" d="M1393.91,-739.46C1315.84,-728.79 1172.91,-709.24 1086.37,-697.4"/>
<polygon fill="midnightblue" stroke="midnightblue" points="1086.75,-693.92 1076.36,-696.03 1085.8,-700.85 1086.75,-693.92"/>
</g>
<!-- Node43&#45;&gt;Node4 -->
<g id="edge73" class="edge">
<title>Node43&#45;&gt;Node4</title>
<path fill="none" stroke="midnightblue" d="M967.91,-676.98C919.58,-667.76 841.55,-652.07 775,-635 623.5,-596.14 152,-463.91 152,-307.5 152,-307.5 152,-307.5 152,-132 152,-88.48 187.7,-47.77 210.16,-26.47"/>
<polygon fill="midnightblue" stroke="midnightblue" points="212.73,-28.86 217.75,-19.53 208.01,-23.7 212.73,-28.86"/>
</g>
<!-- Node43&#45;&gt;Node8 -->
<g id="edge76" class="edge">
<title>Node43&#45;&gt;Node8</title>
<path fill="none" stroke="midnightblue" d="M1040.4,-676.88C1108.89,-653.17 1293.74,-580.32 1391,-456 1436.2,-398.21 1436.06,-304.6 1433.64,-264.83"/>
<polygon fill="midnightblue" stroke="midnightblue" points="1437.12,-264.43 1432.89,-254.72 1430.14,-264.95 1437.12,-264.43"/>
</g>
<!-- Node43&#45;&gt;Node15 -->
<g id="edge77" class="edge">
<title>Node43&#45;&gt;Node15</title>
<path fill="none" stroke="midnightblue" d="M1081.64,-680.39C1244.67,-666.21 1646,-619.49 1646,-503 1646,-503 1646,-503 1646,-132 1646,-79.31 1602.74,-78.32 1555,-56 1496.89,-28.84 1424.06,-18.02 1372.21,-13.74"/>
<polygon fill="midnightblue" stroke="midnightblue" points="1372.37,-10.24 1362.13,-12.97 1371.84,-17.22 1372.37,-10.24"/>
</g>
<!-- Node43&#45;&gt;Node19 -->
<g id="edge74" class="edge">
<title>Node43&#45;&gt;Node19</title>
<path fill="none" stroke="midnightblue" d="M982.39,-676.91C857.61,-642.3 402.2,-509.17 323,-389 299.03,-352.63 306.79,-331.43 323,-291 327.68,-279.33 336.99,-268.97 345.76,-261.14"/>
<polygon fill="midnightblue" stroke="midnightblue" points="348.05,-263.78 353.5,-254.7 343.58,-258.4 348.05,-263.78"/>
</g>
<!-- Node43&#45;&gt;Node29 -->
<g id="edge75" class="edge">
<title>Node43&#45;&gt;Node29</title>
<path fill="none" stroke="midnightblue" d="M946.39,-679.36C846.83,-670.23 654.97,-652.28 492,-635 490.7,-634.86 489.4,-634.72 488.08,-634.58"/>
<polygon fill="midnightblue" stroke="midnightblue" points="488.16,-631.07 477.84,-633.46 487.4,-638.03 488.16,-631.07"/>
</g>
</g>
</svg>
