<?xml version="1.0" encoding="UTF-8" standalone="no"?>
<!DOCTYPE svg PUBLIC "-//W3C//DTD SVG 1.1//EN"
 "http://www.w3.org/Graphics/SVG/1.1/DTD/svg11.dtd">
<!-- Generated by graphviz version 2.43.0 (0)
 -->
<!-- Title: queue_types.h Pages: 1 -->
<svg width="974pt" height="654pt"
 viewBox="0.00 0.00 974.00 654.00" xmlns="http://www.w3.org/2000/svg" xmlns:xlink="http://www.w3.org/1999/xlink">
<g id="graph0" class="graph" transform="scale(1 1) rotate(0) translate(4 650)">
<title>queue_types.h</title>
<!-- Node1 -->
<g id="Node000001" class="node">
<title>Node1</title>
<g id="a_Node000001"><a xlink:title="ODP queue.">
<polygon fill="#999999" stroke="#666666" points="485,-646 397,-646 397,-627 485,-627 485,-646"/>
<text text-anchor="middle" x="441" y="-634" font-family="Helvetica,sans-Serif" font-size="10.00">queue_types.h</text>
</a>
</g>
</g>
<!-- Node2 -->
<g id="Node000002" class="node">
<title>Node2</title>
<g id="a_Node000002"><a xlink:title=" ">
<polygon fill="#e0e0e0" stroke="#999999" points="440.5,-585.5 295.5,-585.5 295.5,-566.5 440.5,-566.5 440.5,-585.5"/>
<text text-anchor="middle" x="368" y="-573.5" font-family="Helvetica,sans-Serif" font-size="10.00">odp/api/abi/queue_types.h</text>
</a>
</g>
</g>
<!-- Node1&#45;&gt;Node2 -->
<g id="edge1_Node000001_Node000002" class="edge">
<title>Node1&#45;&gt;Node2</title>
<g id="a_edge1_Node000001_Node000002"><a xlink:title=" ">
<path fill="none" stroke="#63b8ff" d="M430.23,-626.87C418.8,-617.71 400.52,-603.06 386.72,-592.01"/>
<polygon fill="#63b8ff" stroke="#63b8ff" points="388.81,-589.19 378.82,-585.67 384.43,-594.65 388.81,-589.19"/>
</a>
</g>
</g>
<!-- Node3 -->
<g id="Node000003" class="node">
<title>Node3</title>
<g id="a_Node000003"><a xlink:href="spec_2queue__types_8h.html" target="_top" xlink:title="ODP queue types.">
<polygon fill="white" stroke="#666666" points="569.5,-591 458.5,-591 458.5,-561 569.5,-561 569.5,-591"/>
<text text-anchor="start" x="466.5" y="-579" font-family="Helvetica,sans-Serif" font-size="10.00">odp/api/spec/queue</text>
<text text-anchor="middle" x="514" y="-568" font-family="Helvetica,sans-Serif" font-size="10.00">_types.h</text>
</a>
</g>
</g>
<!-- Node1&#45;&gt;Node3 -->
<g id="edge2_Node000001_Node000003" class="edge">
<title>Node1&#45;&gt;Node3</title>
<g id="a_edge2_Node000001_Node000003"><a xlink:title=" ">
<path fill="none" stroke="#63b8ff" d="M451.77,-626.87C461.4,-619.15 475.89,-607.54 488.47,-597.46"/>
<polygon fill="#63b8ff" stroke="#63b8ff" points="490.77,-600.1 496.39,-591.11 486.39,-594.64 490.77,-600.1"/>
</a>
</g>
</g>
<!-- Node4 -->
<g id="Node000004" class="node">
<title>Node4</title>
<g id="a_Node000004"><a xlink:title=" ">
<polygon fill="#e0e0e0" stroke="#999999" points="355.5,-19 234.5,-19 234.5,0 355.5,0 355.5,-19"/>
<text text-anchor="middle" x="295" y="-7" font-family="Helvetica,sans-Serif" font-size="10.00">odp/visibility_begin.h</text>
</a>
</g>
</g>
<!-- Node3&#45;&gt;Node4 -->
<g id="edge3_Node000003_Node000004" class="edge">
<title>Node3&#45;&gt;Node4</title>
<g id="a_edge3_Node000003_Node000004"><a xlink:title=" ">
<path fill="none" stroke="#63b8ff" d="M458.01,-562.77C324.8,-533.59 0,-461.82 0,-456 0,-456 0,-456 0,-129.5 0,-91.27 11.69,-76.93 43,-55 71.62,-34.95 160.25,-22.74 224.31,-16.3"/>
<polygon fill="#63b8ff" stroke="#63b8ff" points="224.76,-19.77 234.37,-15.32 224.07,-12.81 224.76,-19.77"/>
</a>
</g>
</g>
<!-- Node5 -->
<g id="Node000005" class="node">
<title>Node5</title>
<g id="a_Node000005"><a xlink:href="event__vector__types_8h.html" target="_top" xlink:title="ODP event vector API type definitions.">
<polygon fill="white" stroke="#666666" points="485.5,-404 366.5,-404 366.5,-374 485.5,-374 485.5,-404"/>
<text text-anchor="start" x="374.5" y="-392" font-family="Helvetica,sans-Serif" font-size="10.00">odp/api/event_vector</text>
<text text-anchor="middle" x="426" y="-381" font-family="Helvetica,sans-Serif" font-size="10.00">_types.h</text>
</a>
</g>
</g>
<!-- Node3&#45;&gt;Node5 -->
<g id="edge4_Node000003_Node000005" class="edge">
<title>Node3&#45;&gt;Node5</title>
<g id="a_edge4_Node000003_Node000005"><a xlink:title=" ">
<path fill="none" stroke="#63b8ff" d="M507.24,-560.79C492.17,-529.1 455.67,-452.38 437.16,-413.47"/>
<polygon fill="#63b8ff" stroke="#63b8ff" points="440.12,-411.53 432.66,-404 433.8,-414.54 440.12,-411.53"/>
</a>
</g>
</g>
<!-- Node12 -->
<g id="Node000012" class="node">
<title>Node12</title>
<g id="a_Node000012"><a xlink:title=" ">
<polygon fill="#e0e0e0" stroke="#999999" points="889,-19 777,-19 777,0 889,0 889,-19"/>
<text text-anchor="middle" x="833" y="-7" font-family="Helvetica,sans-Serif" font-size="10.00">odp/visibility_end.h</text>
</a>
</g>
</g>
<!-- Node3&#45;&gt;Node12 -->
<g id="edge46_Node000003_Node000012" class="edge">
<title>Node3&#45;&gt;Node12</title>
<g id="a_edge46_Node000003_Node000012"><a xlink:title=" ">
<path fill="none" stroke="#63b8ff" d="M569.88,-572.03C690.81,-564.07 966,-537.04 966,-456 966,-456 966,-456 966,-129.5 966,-75.94 905.37,-40.46 865.98,-23.06"/>
<polygon fill="#63b8ff" stroke="#63b8ff" points="867.04,-19.71 856.47,-19.02 864.31,-26.15 867.04,-19.71"/>
</a>
</g>
</g>
<!-- Node13 -->
<g id="Node000013" class="node">
<title>Node13</title>
<g id="a_Node000013"><a xlink:href="queue__stats__types_8h.html" target="_top" xlink:title="ODP queue.">
<polygon fill="white" stroke="#666666" points="573.5,-272 458.5,-272 458.5,-242 573.5,-242 573.5,-272"/>
<text text-anchor="start" x="466.5" y="-260" font-family="Helvetica,sans-Serif" font-size="10.00">odp/api/queue_stats</text>
<text text-anchor="middle" x="516" y="-249" font-family="Helvetica,sans-Serif" font-size="10.00">_types.h</text>
</a>
</g>
</g>
<!-- Node3&#45;&gt;Node13 -->
<g id="edge31_Node000003_Node000013" class="edge">
<title>Node3&#45;&gt;Node13</title>
<g id="a_edge31_Node000003_Node000013"><a xlink:title=" ">
<path fill="none" stroke="#63b8ff" d="M514,-560.71C514,-538.37 514,-493.81 514,-456 514,-456 514,-456 514,-388 514,-351.07 514.82,-308.24 515.41,-282.14"/>
<polygon fill="#63b8ff" stroke="#63b8ff" points="518.91,-282.12 515.64,-272.04 511.91,-281.96 518.91,-282.12"/>
</a>
</g>
</g>
<!-- Node22 -->
<g id="Node000022" class="node">
<title>Node22</title>
<g id="a_Node000022"><a xlink:href="schedule__types_8h.html" target="_top" xlink:title="ODP schedule.">
<polygon fill="white" stroke="#666666" points="682,-525 542,-525 542,-506 682,-506 682,-525"/>
<text text-anchor="middle" x="612" y="-513" font-family="Helvetica,sans-Serif" font-size="10.00">odp/api/schedule_types.h</text>
</a>
</g>
</g>
<!-- Node3&#45;&gt;Node22 -->
<g id="edge32_Node000003_Node000022" class="edge">
<title>Node3&#45;&gt;Node22</title>
<g id="a_edge32_Node000003_Node000022"><a xlink:title=" ">
<path fill="none" stroke="#63b8ff" d="M537.72,-560.84C553.2,-551.6 573.32,-539.59 588.71,-530.4"/>
<polygon fill="#63b8ff" stroke="#63b8ff" points="590.81,-533.23 597.6,-525.09 587.22,-527.21 590.81,-533.23"/>
</a>
</g>
</g>
<!-- Node6 -->
<g id="Node000006" class="node">
<title>Node6</title>
<g id="a_Node000006"><a xlink:title=" ">
<polygon fill="#e0e0e0" stroke="#999999" points="203.5,-338 66.5,-338 66.5,-308 203.5,-308 203.5,-338"/>
<text text-anchor="start" x="74.5" y="-326" font-family="Helvetica,sans-Serif" font-size="10.00">odp/api/abi/event_vector</text>
<text text-anchor="middle" x="135" y="-315" font-family="Helvetica,sans-Serif" font-size="10.00">_types.h</text>
</a>
</g>
</g>
<!-- Node5&#45;&gt;Node6 -->
<g id="edge5_Node000005_Node000006" class="edge">
<title>Node5&#45;&gt;Node6</title>
<g id="a_edge5_Node000005_Node000006"><a xlink:title=" ">
<path fill="none" stroke="#63b8ff" d="M366.41,-374.89C320.75,-364.85 257.51,-350.94 208.68,-340.2"/>
<polygon fill="#63b8ff" stroke="#63b8ff" points="209.32,-336.76 198.8,-338.03 207.81,-343.6 209.32,-336.76"/>
</a>
</g>
</g>
<!-- Node7 -->
<g id="Node000007" class="node">
<title>Node7</title>
<g id="a_Node000007"><a xlink:title=" ">
<polygon fill="#e0e0e0" stroke="#999999" points="358,-332.5 222,-332.5 222,-313.5 358,-313.5 358,-332.5"/>
<text text-anchor="middle" x="290" y="-320.5" font-family="Helvetica,sans-Serif" font-size="10.00">odp/api/abi/pool_types.h</text>
</a>
</g>
</g>
<!-- Node5&#45;&gt;Node7 -->
<g id="edge6_Node000005_Node000007" class="edge">
<title>Node5&#45;&gt;Node7</title>
<g id="a_edge6_Node000005_Node000007"><a xlink:title=" ">
<path fill="none" stroke="#63b8ff" d="M396.15,-373.95C372.62,-362.88 340.07,-347.56 317.23,-336.82"/>
<polygon fill="#63b8ff" stroke="#63b8ff" points="318.64,-333.61 308.1,-332.52 315.66,-339.94 318.64,-333.61"/>
</a>
</g>
</g>
<!-- Node8 -->
<g id="Node000008" class="node">
<title>Node8</title>
<g id="a_Node000008"><a xlink:href="spec_2event__vector__types_8h.html" target="_top" xlink:title="ODP event vector API type definitions.">
<polygon fill="white" stroke="#666666" points="485.5,-338 376.5,-338 376.5,-308 485.5,-308 485.5,-338"/>
<text text-anchor="start" x="384.5" y="-326" font-family="Helvetica,sans-Serif" font-size="10.00">odp/api/spec/event</text>
<text text-anchor="middle" x="431" y="-315" font-family="Helvetica,sans-Serif" font-size="10.00">_vector_types.h</text>
</a>
</g>
</g>
<!-- Node5&#45;&gt;Node8 -->
<g id="edge7_Node000005_Node000008" class="edge">
<title>Node5&#45;&gt;Node8</title>
<g id="a_edge7_Node000005_Node000008"><a xlink:title=" ">
<path fill="none" stroke="#63b8ff" d="M427.11,-373.8C427.69,-366.34 428.42,-356.99 429.09,-348.41"/>
<polygon fill="#63b8ff" stroke="#63b8ff" points="432.6,-348.41 429.89,-338.16 425.63,-347.86 432.6,-348.41"/>
</a>
</g>
</g>
<!-- Node8&#45;&gt;Node4 -->
<g id="edge8_Node000008_Node000004" class="edge">
<title>Node8&#45;&gt;Node4</title>
<g id="a_edge8_Node000008_Node000004"><a xlink:title=" ">
<path fill="none" stroke="#63b8ff" d="M376.7,-307.91C277.25,-281.33 76,-223.63 76,-192 76,-192 76,-192 76,-129.5 76,-95.33 70.47,-78.79 95,-55 113.4,-37.16 174.43,-25.31 224.29,-18.35"/>
<polygon fill="#63b8ff" stroke="#63b8ff" points="224.97,-21.79 234.41,-16.98 224.04,-14.85 224.97,-21.79"/>
</a>
</g>
</g>
<!-- Node9 -->
<g id="Node000009" class="node">
<title>Node9</title>
<g id="a_Node000009"><a xlink:href="event__types_8h.html" target="_top" xlink:title="ODP event API type definitions.">
<polygon fill="white" stroke="#666666" points="247.5,-140 122.5,-140 122.5,-121 247.5,-121 247.5,-140"/>
<text text-anchor="middle" x="185" y="-128" font-family="Helvetica,sans-Serif" font-size="10.00">odp/api/event_types.h</text>
</a>
</g>
</g>
<!-- Node8&#45;&gt;Node9 -->
<g id="edge9_Node000008_Node000009" class="edge">
<title>Node8&#45;&gt;Node9</title>
<g id="a_edge9_Node000008_Node000009"><a xlink:title=" ">
<path fill="none" stroke="#63b8ff" d="M412.91,-307.99C367.78,-273.04 250.5,-182.22 204.2,-146.37"/>
<polygon fill="#63b8ff" stroke="#63b8ff" points="206.22,-143.51 196.17,-140.15 201.94,-149.04 206.22,-143.51"/>
</a>
</g>
</g>
<!-- Node8&#45;&gt;Node12 -->
<g id="edge30_Node000008_Node000012" class="edge">
<title>Node8&#45;&gt;Node12</title>
<g id="a_edge30_Node000008_Node000012"><a xlink:title=" ">
<path fill="none" stroke="#63b8ff" d="M429.78,-307.83C429.08,-289.78 430.88,-258.89 449,-242 526.6,-169.64 589.14,-251.47 685,-206 694.06,-201.7 814.09,-93.75 819,-85 828.63,-67.82 831.79,-45.26 832.75,-29.49"/>
<polygon fill="#63b8ff" stroke="#63b8ff" points="836.25,-29.5 833.12,-19.38 829.25,-29.24 836.25,-29.5"/>
</a>
</g>
</g>
<!-- Node8&#45;&gt;Node13 -->
<g id="edge14_Node000008_Node000013" class="edge">
<title>Node8&#45;&gt;Node13</title>
<g id="a_edge14_Node000008_Node000013"><a xlink:title=" ">
<path fill="none" stroke="#63b8ff" d="M449.86,-307.8C461.42,-299.1 476.39,-287.82 489.17,-278.2"/>
<polygon fill="#63b8ff" stroke="#63b8ff" points="491.31,-280.98 497.19,-272.16 487.09,-275.38 491.31,-280.98"/>
</a>
</g>
</g>
<!-- Node16 -->
<g id="Node000016" class="node">
<title>Node16</title>
<g id="a_Node000016"><a xlink:href="std__types_8h.html" target="_top" xlink:title="Standard C language types and definitions for ODP.">
<polygon fill="white" stroke="#666666" points="843,-266.5 731,-266.5 731,-247.5 843,-247.5 843,-266.5"/>
<text text-anchor="middle" x="787" y="-254.5" font-family="Helvetica,sans-Serif" font-size="10.00">odp/api/std_types.h</text>
</a>
</g>
</g>
<!-- Node8&#45;&gt;Node16 -->
<g id="edge19_Node000008_Node000016" class="edge">
<title>Node8&#45;&gt;Node16</title>
<g id="a_edge19_Node000008_Node000016"><a xlink:title=" ">
<path fill="none" stroke="#63b8ff" d="M485.84,-312.14C551.89,-300.27 662.3,-280.42 729.51,-268.34"/>
<polygon fill="#63b8ff" stroke="#63b8ff" points="730.28,-271.75 739.5,-266.54 729.04,-264.86 730.28,-271.75"/>
</a>
</g>
</g>
<!-- Node10 -->
<g id="Node000010" class="node">
<title>Node10</title>
<g id="a_Node000010"><a xlink:title=" ">
<polygon fill="#e0e0e0" stroke="#999999" points="247.5,-79.5 104.5,-79.5 104.5,-60.5 247.5,-60.5 247.5,-79.5"/>
<text text-anchor="middle" x="176" y="-67.5" font-family="Helvetica,sans-Serif" font-size="10.00">odp/api/abi/event_types.h</text>
</a>
</g>
</g>
<!-- Node9&#45;&gt;Node10 -->
<g id="edge10_Node000009_Node000010" class="edge">
<title>Node9&#45;&gt;Node10</title>
<g id="a_edge10_Node000009_Node000010"><a xlink:title=" ">
<path fill="none" stroke="#63b8ff" d="M183.67,-120.87C182.41,-112.66 180.47,-100.04 178.85,-89.55"/>
<polygon fill="#63b8ff" stroke="#63b8ff" points="182.31,-89.02 177.33,-79.67 175.39,-90.08 182.31,-89.02"/>
</a>
</g>
</g>
<!-- Node11 -->
<g id="Node000011" class="node">
<title>Node11</title>
<g id="a_Node000011"><a xlink:href="spec_2event__types_8h.html" target="_top" xlink:title="ODP event API type definitions.">
<polygon fill="white" stroke="#666666" points="451.5,-85 342.5,-85 342.5,-55 451.5,-55 451.5,-85"/>
<text text-anchor="start" x="350.5" y="-73" font-family="Helvetica,sans-Serif" font-size="10.00">odp/api/spec/event</text>
<text text-anchor="middle" x="397" y="-62" font-family="Helvetica,sans-Serif" font-size="10.00">_types.h</text>
</a>
</g>
</g>
<!-- Node9&#45;&gt;Node11 -->
<g id="edge11_Node000009_Node000011" class="edge">
<title>Node9&#45;&gt;Node11</title>
<g id="a_edge11_Node000009_Node000011"><a xlink:title=" ">
<path fill="none" stroke="#63b8ff" d="M215.83,-120.99C247.27,-112.32 296.89,-98.62 336.26,-87.76"/>
<polygon fill="#63b8ff" stroke="#63b8ff" points="337.32,-91.1 346.03,-85.06 335.46,-84.35 337.32,-91.1"/>
</a>
</g>
</g>
<!-- Node11&#45;&gt;Node4 -->
<g id="edge12_Node000011_Node000004" class="edge">
<title>Node11&#45;&gt;Node4</title>
<g id="a_edge12_Node000011_Node000004"><a xlink:title=" ">
<path fill="none" stroke="#63b8ff" d="M372.57,-54.99C356.31,-45.66 335.05,-33.47 318.9,-24.21"/>
<polygon fill="#63b8ff" stroke="#63b8ff" points="320.48,-21.08 310.06,-19.14 317,-27.15 320.48,-21.08"/>
</a>
</g>
</g>
<!-- Node11&#45;&gt;Node12 -->
<g id="edge13_Node000011_Node000012" class="edge">
<title>Node11&#45;&gt;Node12</title>
<g id="a_edge13_Node000011_Node000012"><a xlink:title=" ">
<path fill="none" stroke="#63b8ff" d="M451.54,-57.52C456.42,-56.62 461.29,-55.76 466,-55 570.69,-38.06 693.12,-24.45 766.78,-16.93"/>
<polygon fill="#63b8ff" stroke="#63b8ff" points="767.25,-20.4 776.85,-15.91 766.54,-13.43 767.25,-20.4"/>
</a>
</g>
</g>
<!-- Node14 -->
<g id="Node000014" class="node">
<title>Node14</title>
<g id="a_Node000014"><a xlink:href="spec_2queue__stats__types_8h.html" target="_top" xlink:title="ODP queue statistics types.">
<polygon fill="white" stroke="#666666" points="520.5,-206 409.5,-206 409.5,-176 520.5,-176 520.5,-206"/>
<text text-anchor="start" x="417.5" y="-194" font-family="Helvetica,sans-Serif" font-size="10.00">odp/api/spec/queue</text>
<text text-anchor="middle" x="465" y="-183" font-family="Helvetica,sans-Serif" font-size="10.00">_stats_types.h</text>
</a>
</g>
</g>
<!-- Node13&#45;&gt;Node14 -->
<g id="edge15_Node000013_Node000014" class="edge">
<title>Node13&#45;&gt;Node14</title>
<g id="a_edge15_Node000013_Node000014"><a xlink:title=" ">
<path fill="none" stroke="#63b8ff" d="M504.68,-241.8C498.21,-233.68 489.95,-223.31 482.65,-214.15"/>
<polygon fill="#63b8ff" stroke="#63b8ff" points="485.26,-211.8 476.29,-206.16 479.78,-216.17 485.26,-211.8"/>
</a>
</g>
</g>
<!-- Node14&#45;&gt;Node4 -->
<g id="edge16_Node000014_Node000004" class="edge">
<title>Node14&#45;&gt;Node4</title>
<g id="a_edge16_Node000014_Node000004"><a xlink:title=" ">
<path fill="none" stroke="#63b8ff" d="M441.74,-175.94C413.22,-157.79 364.78,-123.88 333,-85 318.96,-67.83 308.15,-44.62 301.71,-28.7"/>
<polygon fill="#63b8ff" stroke="#63b8ff" points="304.83,-27.07 297.96,-19 298.3,-29.59 304.83,-27.07"/>
</a>
</g>
</g>
<!-- Node14&#45;&gt;Node12 -->
<g id="edge18_Node000014_Node000012" class="edge">
<title>Node14&#45;&gt;Node12</title>
<g id="a_edge18_Node000014_Node000012"><a xlink:title=" ">
<path fill="none" stroke="#63b8ff" d="M467.15,-175.9C469.73,-161.51 474.89,-138.81 484,-121 501.13,-87.5 504.38,-73.75 537,-55 575.03,-33.14 691.61,-20.76 766.61,-14.86"/>
<polygon fill="#63b8ff" stroke="#63b8ff" points="767.21,-18.33 776.91,-14.07 766.67,-11.35 767.21,-18.33"/>
</a>
</g>
</g>
<!-- Node15 -->
<g id="Node000015" class="node">
<title>Node15</title>
<g id="a_Node000015"><a xlink:title=" ">
<polygon fill="#e0e0e0" stroke="#999999" points="546.5,-140 493.5,-140 493.5,-121 546.5,-121 546.5,-140"/>
<text text-anchor="middle" x="520" y="-128" font-family="Helvetica,sans-Serif" font-size="10.00">stdint.h</text>
</a>
</g>
</g>
<!-- Node14&#45;&gt;Node15 -->
<g id="edge17_Node000014_Node000015" class="edge">
<title>Node14&#45;&gt;Node15</title>
<g id="a_edge17_Node000014_Node000015"><a xlink:title=" ">
<path fill="none" stroke="#63b8ff" d="M478.31,-175.84C486.3,-167.35 496.48,-156.52 504.78,-147.69"/>
<polygon fill="#63b8ff" stroke="#63b8ff" points="507.46,-149.95 511.76,-140.27 502.36,-145.15 507.46,-149.95"/>
</a>
</g>
</g>
<!-- Node17 -->
<g id="Node000017" class="node">
<title>Node17</title>
<g id="a_Node000017"><a xlink:title=" ">
<polygon fill="#e0e0e0" stroke="#999999" points="862,-200.5 732,-200.5 732,-181.5 862,-181.5 862,-200.5"/>
<text text-anchor="middle" x="797" y="-188.5" font-family="Helvetica,sans-Serif" font-size="10.00">odp/api/abi/std_types.h</text>
</a>
</g>
</g>
<!-- Node16&#45;&gt;Node17 -->
<g id="edge20_Node000016_Node000017" class="edge">
<title>Node16&#45;&gt;Node17</title>
<g id="a_edge20_Node000016_Node000017"><a xlink:title=" ">
<path fill="none" stroke="#63b8ff" d="M788.35,-247.37C789.8,-238.07 792.16,-222.98 794.05,-210.9"/>
<polygon fill="#63b8ff" stroke="#63b8ff" points="797.52,-211.33 795.61,-200.91 790.61,-210.25 797.52,-211.33"/>
</a>
</g>
</g>
<!-- Node18 -->
<g id="Node000018" class="node">
<title>Node18</title>
<g id="a_Node000018"><a xlink:href="spec_2std__types_8h.html" target="_top" xlink:title="Common types and definitions for ODP API files.">
<polygon fill="white" stroke="#666666" points="675.5,-200.5 538.5,-200.5 538.5,-181.5 675.5,-181.5 675.5,-200.5"/>
<text text-anchor="middle" x="607" y="-188.5" font-family="Helvetica,sans-Serif" font-size="10.00">odp/api/spec/std_types.h</text>
</a>
</g>
</g>
<!-- Node16&#45;&gt;Node18 -->
<g id="edge21_Node000016_Node000018" class="edge">
<title>Node16&#45;&gt;Node18</title>
<g id="a_edge21_Node000016_Node000018"><a xlink:title=" ">
<path fill="none" stroke="#63b8ff" d="M762.72,-247.37C731.23,-236.17 676.14,-216.58 640.64,-203.96"/>
<polygon fill="#63b8ff" stroke="#63b8ff" points="641.77,-200.65 631.18,-200.6 639.43,-207.24 641.77,-200.65"/>
</a>
</g>
</g>
<!-- Node18&#45;&gt;Node4 -->
<g id="edge22_Node000018_Node000004" class="edge">
<title>Node18&#45;&gt;Node4</title>
<g id="a_edge22_Node000018_Node000004"><a xlink:title=" ">
<path fill="none" stroke="#63b8ff" d="M601.69,-181.24C593.05,-167.41 574.89,-140.14 555,-121 517.95,-85.36 506.62,-76.68 460,-55 426.38,-39.36 386.26,-28.39 354,-21.25"/>
<polygon fill="#63b8ff" stroke="#63b8ff" points="354.33,-17.74 343.82,-19.07 352.87,-24.59 354.33,-17.74"/>
</a>
</g>
</g>
<!-- Node18&#45;&gt;Node12 -->
<g id="edge29_Node000018_Node000012" class="edge">
<title>Node18&#45;&gt;Node12</title>
<g id="a_edge29_Node000018_Node000012"><a xlink:title=" ">
<path fill="none" stroke="#63b8ff" d="M632.72,-181.42C672.22,-167.09 748.16,-134.86 795,-85 810.33,-68.68 820.98,-44.99 827.03,-28.73"/>
<polygon fill="#63b8ff" stroke="#63b8ff" points="830.34,-29.86 830.34,-19.27 823.73,-27.55 830.34,-29.86"/>
</a>
</g>
</g>
<!-- Node18&#45;&gt;Node15 -->
<g id="edge23_Node000018_Node000015" class="edge">
<title>Node18&#45;&gt;Node15</title>
<g id="a_edge23_Node000018_Node000015"><a xlink:title=" ">
<path fill="none" stroke="#63b8ff" d="M594.16,-181.37C580.28,-172.04 557.93,-157.01 541.39,-145.88"/>
<polygon fill="#63b8ff" stroke="#63b8ff" points="543.14,-142.84 532.89,-140.17 539.24,-148.65 543.14,-142.84"/>
</a>
</g>
</g>
<!-- Node19 -->
<g id="Node000019" class="node">
<title>Node19</title>
<g id="a_Node000019"><a xlink:href="align_8h.html" target="_top" xlink:title="ODP alignments.">
<polygon fill="white" stroke="#666666" points="692.5,-140 603.5,-140 603.5,-121 692.5,-121 692.5,-140"/>
<text text-anchor="middle" x="648" y="-128" font-family="Helvetica,sans-Serif" font-size="10.00">odp/api/align.h</text>
</a>
</g>
</g>
<!-- Node18&#45;&gt;Node19 -->
<g id="edge24_Node000018_Node000019" class="edge">
<title>Node18&#45;&gt;Node19</title>
<g id="a_edge24_Node000018_Node000019"><a xlink:title=" ">
<path fill="none" stroke="#63b8ff" d="M613.05,-181.37C619.11,-172.73 628.59,-159.2 636.14,-148.42"/>
<polygon fill="#63b8ff" stroke="#63b8ff" points="639.05,-150.37 641.93,-140.17 633.32,-146.35 639.05,-150.37"/>
</a>
</g>
</g>
<!-- Node20 -->
<g id="Node000020" class="node">
<title>Node20</title>
<g id="a_Node000020"><a xlink:title=" ">
<polygon fill="#e0e0e0" stroke="#999999" points="785.5,-79.5 678.5,-79.5 678.5,-60.5 785.5,-60.5 785.5,-79.5"/>
<text text-anchor="middle" x="732" y="-67.5" font-family="Helvetica,sans-Serif" font-size="10.00">odp/api/abi/align.h</text>
</a>
</g>
</g>
<!-- Node19&#45;&gt;Node20 -->
<g id="edge25_Node000019_Node000020" class="edge">
<title>Node19&#45;&gt;Node20</title>
<g id="a_edge25_Node000019_Node000020"><a xlink:title=" ">
<path fill="none" stroke="#63b8ff" d="M660.39,-120.87C673.79,-111.54 695.38,-96.51 711.35,-85.38"/>
<polygon fill="#63b8ff" stroke="#63b8ff" points="713.35,-88.25 719.55,-79.67 709.35,-82.51 713.35,-88.25"/>
</a>
</g>
</g>
<!-- Node21 -->
<g id="Node000021" class="node">
<title>Node21</title>
<g id="a_Node000021"><a xlink:href="spec_2align_8h.html" target="_top" xlink:title="ODP alignments.">
<polygon fill="white" stroke="#666666" points="660,-79.5 546,-79.5 546,-60.5 660,-60.5 660,-79.5"/>
<text text-anchor="middle" x="603" y="-67.5" font-family="Helvetica,sans-Serif" font-size="10.00">odp/api/spec/align.h</text>
</a>
</g>
</g>
<!-- Node19&#45;&gt;Node21 -->
<g id="edge26_Node000019_Node000021" class="edge">
<title>Node19&#45;&gt;Node21</title>
<g id="a_edge26_Node000019_Node000021"><a xlink:title=" ">
<path fill="none" stroke="#63b8ff" d="M641.36,-120.87C634.71,-112.23 624.31,-98.7 616.01,-87.92"/>
<polygon fill="#63b8ff" stroke="#63b8ff" points="618.54,-85.46 609.67,-79.67 612.99,-89.73 618.54,-85.46"/>
</a>
</g>
</g>
<!-- Node21&#45;&gt;Node4 -->
<g id="edge27_Node000021_Node000004" class="edge">
<title>Node21&#45;&gt;Node4</title>
<g id="a_edge27_Node000021_Node000004"><a xlink:title=" ">
<path fill="none" stroke="#63b8ff" d="M560.21,-60.5C550.91,-58.67 541.13,-56.76 532,-55 470.21,-43.11 399.27,-29.84 351.24,-20.91"/>
<polygon fill="#63b8ff" stroke="#63b8ff" points="351.82,-17.46 341.34,-19.07 350.54,-24.34 351.82,-17.46"/>
</a>
</g>
</g>
<!-- Node21&#45;&gt;Node12 -->
<g id="edge28_Node000021_Node000012" class="edge">
<title>Node21&#45;&gt;Node12</title>
<g id="a_edge28_Node000021_Node000012"><a xlink:title=" ">
<path fill="none" stroke="#63b8ff" d="M636.44,-60.49C676.9,-50.2 745.1,-32.86 789.58,-21.54"/>
<polygon fill="#63b8ff" stroke="#63b8ff" points="790.69,-24.87 799.52,-19.02 788.96,-18.09 790.69,-24.87"/>
</a>
</g>
</g>
<!-- Node23 -->
<g id="Node000023" class="node">
<title>Node23</title>
<g id="a_Node000023"><a xlink:title=" ">
<polygon fill="#e0e0e0" stroke="#999999" points="806.5,-470 689.5,-470 689.5,-440 806.5,-440 806.5,-470"/>
<text text-anchor="start" x="697.5" y="-458" font-family="Helvetica,sans-Serif" font-size="10.00">odp/api/abi/schedule</text>
<text text-anchor="middle" x="748" y="-447" font-family="Helvetica,sans-Serif" font-size="10.00">_types.h</text>
</a>
</g>
</g>
<!-- Node22&#45;&gt;Node23 -->
<g id="edge33_Node000022_Node000023" class="edge">
<title>Node22&#45;&gt;Node23</title>
<g id="a_edge33_Node000022_Node000023"><a xlink:title=" ">
<path fill="none" stroke="#63b8ff" d="M631.78,-505.99C651.09,-497.68 681.1,-484.78 705.79,-474.16"/>
<polygon fill="#63b8ff" stroke="#63b8ff" points="707.5,-477.23 715.3,-470.06 704.73,-470.8 707.5,-477.23"/>
</a>
</g>
</g>
<!-- Node24 -->
<g id="Node000024" class="node">
<title>Node24</title>
<g id="a_Node000024"><a xlink:href="spec_2schedule__types_8h.html" target="_top" xlink:title="ODP schedule types.">
<polygon fill="white" stroke="#666666" points="671.5,-470 546.5,-470 546.5,-440 671.5,-440 671.5,-470"/>
<text text-anchor="start" x="554.5" y="-458" font-family="Helvetica,sans-Serif" font-size="10.00">odp/api/spec/schedule</text>
<text text-anchor="middle" x="609" y="-447" font-family="Helvetica,sans-Serif" font-size="10.00">_types.h</text>
</a>
</g>
</g>
<!-- Node22&#45;&gt;Node24 -->
<g id="edge34_Node000022_Node000024" class="edge">
<title>Node22&#45;&gt;Node24</title>
<g id="a_edge34_Node000022_Node000024"><a xlink:title=" ">
<path fill="none" stroke="#63b8ff" d="M611.56,-505.87C611.21,-499.11 610.71,-489.35 610.24,-480.26"/>
<polygon fill="#63b8ff" stroke="#63b8ff" points="613.73,-479.92 609.72,-470.11 606.74,-480.28 613.73,-479.92"/>
</a>
</g>
</g>
<!-- Node24&#45;&gt;Node4 -->
<g id="edge35_Node000024_Node000004" class="edge">
<title>Node24&#45;&gt;Node4</title>
<g id="a_edge35_Node000024_Node000004"><a xlink:title=" ">
<path fill="none" stroke="#63b8ff" d="M546.26,-452.88C397.93,-448.52 38,-427.32 38,-324 38,-324 38,-324 38,-129.5 38,-92.73 44.94,-77.54 74,-55 97.15,-37.05 168.78,-24.88 224.29,-17.86"/>
<polygon fill="#63b8ff" stroke="#63b8ff" points="224.95,-21.31 234.45,-16.61 224.09,-14.36 224.95,-21.31"/>
</a>
</g>
</g>
<!-- Node24&#45;&gt;Node5 -->
<g id="edge36_Node000024_Node000005" class="edge">
<title>Node24&#45;&gt;Node5</title>
<g id="a_edge36_Node000024_Node000005"><a xlink:title=" ">
<path fill="none" stroke="#63b8ff" d="M568.84,-439.95C541.43,-430.37 504.92,-417.6 475.68,-407.37"/>
<polygon fill="#63b8ff" stroke="#63b8ff" points="476.66,-404.01 466.07,-404.01 474.35,-410.62 476.66,-404.01"/>
</a>
</g>
</g>
<!-- Node24&#45;&gt;Node12 -->
<g id="edge45_Node000024_Node000012" class="edge">
<title>Node24&#45;&gt;Node12</title>
<g id="a_edge45_Node000024_Node000012"><a xlink:title=" ">
<path fill="none" stroke="#63b8ff" d="M671.64,-441.75C764.54,-421.76 928,-378.8 928,-324 928,-324 928,-324 928,-129.5 928,-83.22 883.58,-44.59 855.49,-24.79"/>
<polygon fill="#63b8ff" stroke="#63b8ff" points="857.26,-21.76 847.02,-19.03 853.32,-27.55 857.26,-21.76"/>
</a>
</g>
</g>
<!-- Node24&#45;&gt;Node13 -->
<g id="edge37_Node000024_Node000013" class="edge">
<title>Node24&#45;&gt;Node13</title>
<g id="a_edge37_Node000024_Node000013"><a xlink:title=" ">
<path fill="none" stroke="#63b8ff" d="M600.19,-439.8C594.2,-429.92 586.26,-416.35 580,-404 558.61,-361.83 537.27,-310.92 525.43,-281.71"/>
<polygon fill="#63b8ff" stroke="#63b8ff" points="528.64,-280.31 521.66,-272.34 522.15,-282.92 528.64,-280.31"/>
</a>
</g>
</g>
<!-- Node24&#45;&gt;Node16 -->
<g id="edge38_Node000024_Node000016" class="edge">
<title>Node24&#45;&gt;Node16</title>
<g id="a_edge38_Node000024_Node000016"><a xlink:title=" ">
<path fill="none" stroke="#63b8ff" d="M653.7,-439.98C719.75,-418.26 838.19,-375.11 862,-338 869.2,-326.78 868.29,-319.76 862,-308 852.99,-291.16 835.52,-279.01 819.71,-270.91"/>
<polygon fill="#63b8ff" stroke="#63b8ff" points="821.2,-267.75 810.67,-266.6 818.19,-274.06 821.2,-267.75"/>
</a>
</g>
</g>
<!-- Node25 -->
<g id="Node000025" class="node">
<title>Node25</title>
<g id="a_Node000025"><a xlink:href="thrmask_8h.html" target="_top" xlink:title="ODP thread masks.">
<polygon fill="white" stroke="#666666" points="694.5,-398.5 589.5,-398.5 589.5,-379.5 694.5,-379.5 694.5,-398.5"/>
<text text-anchor="middle" x="642" y="-386.5" font-family="Helvetica,sans-Serif" font-size="10.00">odp/api/thrmask.h</text>
</a>
</g>
</g>
<!-- Node24&#45;&gt;Node25 -->
<g id="edge39_Node000024_Node000025" class="edge">
<title>Node24&#45;&gt;Node25</title>
<g id="a_edge39_Node000024_Node000025"><a xlink:title=" ">
<path fill="none" stroke="#63b8ff" d="M616.32,-439.8C621.17,-430.41 627.55,-418.02 632.75,-407.95"/>
<polygon fill="#63b8ff" stroke="#63b8ff" points="635.97,-409.34 637.44,-398.84 629.75,-406.13 635.97,-409.34"/>
</a>
</g>
</g>
<!-- Node26 -->
<g id="Node000026" class="node">
<title>Node26</title>
<g id="a_Node000026"><a xlink:title=" ">
<polygon fill="#e0e0e0" stroke="#999999" points="703.5,-332.5 580.5,-332.5 580.5,-313.5 703.5,-313.5 703.5,-332.5"/>
<text text-anchor="middle" x="642" y="-320.5" font-family="Helvetica,sans-Serif" font-size="10.00">odp/api/abi/thrmask.h</text>
</a>
</g>
</g>
<!-- Node25&#45;&gt;Node26 -->
<g id="edge40_Node000025_Node000026" class="edge">
<title>Node25&#45;&gt;Node26</title>
<g id="a_edge40_Node000025_Node000026"><a xlink:title=" ">
<path fill="none" stroke="#63b8ff" d="M642,-379.37C642,-370.16 642,-355.29 642,-343.27"/>
<polygon fill="#63b8ff" stroke="#63b8ff" points="645.5,-342.91 642,-332.91 638.5,-342.91 645.5,-342.91"/>
</a>
</g>
</g>
<!-- Node27 -->
<g id="Node000027" class="node">
<title>Node27</title>
<g id="a_Node000027"><a xlink:href="spec_2thrmask_8h.html" target="_top" xlink:title="ODP thread masks.">
<polygon fill="white" stroke="#666666" points="852.5,-332.5 721.5,-332.5 721.5,-313.5 852.5,-313.5 852.5,-332.5"/>
<text text-anchor="middle" x="787" y="-320.5" font-family="Helvetica,sans-Serif" font-size="10.00">odp/api/spec/thrmask.h</text>
</a>
</g>
</g>
<!-- Node25&#45;&gt;Node27 -->
<g id="edge41_Node000025_Node000027" class="edge">
<title>Node25&#45;&gt;Node27</title>
<g id="a_edge41_Node000025_Node000027"><a xlink:title=" ">
<path fill="none" stroke="#63b8ff" d="M661.56,-379.37C686.31,-368.44 729.17,-349.52 757.81,-336.88"/>
<polygon fill="#63b8ff" stroke="#63b8ff" points="759.56,-339.94 767.29,-332.7 756.73,-333.54 759.56,-339.94"/>
</a>
</g>
</g>
<!-- Node27&#45;&gt;Node4 -->
<g id="edge42_Node000027_Node000004" class="edge">
<title>Node27&#45;&gt;Node4</title>
<g id="a_edge42_Node000027_Node000004"><a xlink:title=" ">
<path fill="none" stroke="#63b8ff" d="M768.45,-313.47C732.94,-297.45 652.6,-262.58 582,-242 502.84,-218.92 469.6,-250.21 400,-206 343.65,-170.2 338.4,-145.88 311,-85 302.95,-67.12 298.86,-44.97 296.84,-29.49"/>
<polygon fill="#63b8ff" stroke="#63b8ff" points="300.27,-28.67 295.67,-19.13 293.32,-29.46 300.27,-28.67"/>
</a>
</g>
</g>
<!-- Node27&#45;&gt;Node12 -->
<g id="edge44_Node000027_Node000012" class="edge">
<title>Node27&#45;&gt;Node12</title>
<g id="a_edge44_Node000027_Node000012"><a xlink:title=" ">
<path fill="none" stroke="#63b8ff" d="M801.8,-313.49C816.15,-304.63 837.78,-289.61 852,-272 876.73,-241.37 890,-231.36 890,-192 890,-192 890,-192 890,-129.5 890,-94.71 881.91,-85.94 866,-55 860.9,-45.07 853.64,-35 847.23,-26.96"/>
<polygon fill="#63b8ff" stroke="#63b8ff" points="849.82,-24.6 840.75,-19.13 844.43,-29.06 849.82,-24.6"/>
</a>
</g>
</g>
<!-- Node27&#45;&gt;Node16 -->
<g id="edge43_Node000027_Node000016" class="edge">
<title>Node27&#45;&gt;Node16</title>
<g id="a_edge43_Node000027_Node000016"><a xlink:title=" ">
<path fill="none" stroke="#63b8ff" d="M787,-313.37C787,-304.16 787,-289.29 787,-277.27"/>
<polygon fill="#63b8ff" stroke="#63b8ff" points="790.5,-276.91 787,-266.91 783.5,-276.91 790.5,-276.91"/>
</a>
</g>
</g>
</g>
</svg>
