<?xml version="1.0" encoding="UTF-8" standalone="no"?>
<!DOCTYPE svg PUBLIC "-//W3C//DTD SVG 1.1//EN"
 "http://www.w3.org/Graphics/SVG/1.1/DTD/svg11.dtd">
<!-- Generated by graphviz version 2.43.0 (0)
 -->
<!-- Title: queue_types.h Pages: 1 -->
<svg width="532pt" height="610pt"
 viewBox="0.00 0.00 532.00 610.00" xmlns="http://www.w3.org/2000/svg" xmlns:xlink="http://www.w3.org/1999/xlink">
<g id="graph0" class="graph" transform="scale(1 1) rotate(0) translate(4 606)">
<title>queue_types.h</title>
<polygon fill="white" stroke="transparent" points="-4,4 -4,-606 528,-606 528,4 -4,4"/>
<!-- Node1 -->
<g id="node1" class="node">
<title>Node1</title>
<g id="a_node1"><a xlink:title="ODP queue.">
<polygon fill="#bfbfbf" stroke="black" points="156,-582.5 156,-601.5 244,-601.5 244,-582.5 156,-582.5"/>
<text text-anchor="middle" x="200" y="-589.5" font-family="Helvetica,sans-Serif" font-size="10.00">queue_types.h</text>
</a>
</g>
</g>
<!-- Node2 -->
<g id="node2" class="node">
<title>Node2</title>
<g id="a_node2"><a xlink:title=" ">
<polygon fill="white" stroke="#bfbfbf" points="54.5,-521 54.5,-540 199.5,-540 199.5,-521 54.5,-521"/>
<text text-anchor="middle" x="127" y="-528" font-family="Helvetica,sans-Serif" font-size="10.00">odp/api/abi/queue_types.h</text>
</a>
</g>
</g>
<!-- Node1&#45;&gt;Node2 -->
<g id="edge1" class="edge">
<title>Node1&#45;&gt;Node2</title>
<path fill="none" stroke="midnightblue" d="M189.54,-582.48C178.05,-573.11 159.37,-557.88 145.41,-546.51"/>
<polygon fill="midnightblue" stroke="midnightblue" points="147.4,-543.61 137.44,-540.01 142.98,-549.04 147.4,-543.61"/>
</g>
<!-- Node3 -->
<g id="node3" class="node">
<title>Node3</title>
<g id="a_node3"><a xlink:href="spec_2queue__types_8h.html" target="_top" xlink:title="ODP queue types.">
<polygon fill="white" stroke="black" points="217.5,-515.5 217.5,-545.5 328.5,-545.5 328.5,-515.5 217.5,-515.5"/>
<text text-anchor="start" x="225.5" y="-533.5" font-family="Helvetica,sans-Serif" font-size="10.00">odp/api/spec/queue</text>
<text text-anchor="middle" x="273" y="-522.5" font-family="Helvetica,sans-Serif" font-size="10.00">_types.h</text>
</a>
</g>
</g>
<!-- Node1&#45;&gt;Node3 -->
<g id="edge2" class="edge">
<title>Node1&#45;&gt;Node3</title>
<path fill="none" stroke="midnightblue" d="M210.46,-582.48C220.16,-574.57 234.99,-562.48 247.77,-552.07"/>
<polygon fill="midnightblue" stroke="midnightblue" points="250.26,-554.55 255.8,-545.52 245.83,-549.13 250.26,-554.55"/>
</g>
<!-- Node4 -->
<g id="node4" class="node">
<title>Node4</title>
<g id="a_node4"><a xlink:title=" ">
<polygon fill="white" stroke="#bfbfbf" points="15.5,-0.5 15.5,-19.5 136.5,-19.5 136.5,-0.5 15.5,-0.5"/>
<text text-anchor="middle" x="76" y="-7.5" font-family="Helvetica,sans-Serif" font-size="10.00">odp/visibility_begin.h</text>
</a>
</g>
</g>
<!-- Node3&#45;&gt;Node4 -->
<g id="edge3" class="edge">
<title>Node3&#45;&gt;Node4</title>
<path fill="none" stroke="midnightblue" d="M217.43,-516.76C137.6,-496.82 0,-455.61 0,-408.5 0,-408.5 0,-408.5 0,-121 0,-81.28 33.96,-45.5 56.48,-26.15"/>
<polygon fill="midnightblue" stroke="midnightblue" points="58.98,-28.63 64.46,-19.57 54.52,-23.24 58.98,-28.63"/>
</g>
<!-- Node5 -->
<g id="node5" class="node">
<title>Node5</title>
<g id="a_node5"><a xlink:href="schedule__types_8h.html" target="_top" xlink:title="ODP schedule.">
<polygon fill="white" stroke="black" points="203,-459.5 203,-478.5 343,-478.5 343,-459.5 203,-459.5"/>
<text text-anchor="middle" x="273" y="-466.5" font-family="Helvetica,sans-Serif" font-size="10.00">odp/api/schedule_types.h</text>
</a>
</g>
</g>
<!-- Node3&#45;&gt;Node5 -->
<g id="edge4" class="edge">
<title>Node3&#45;&gt;Node5</title>
<path fill="none" stroke="midnightblue" d="M273,-515.4C273,-507.47 273,-497.46 273,-488.86"/>
<polygon fill="midnightblue" stroke="midnightblue" points="276.5,-488.66 273,-478.66 269.5,-488.66 276.5,-488.66"/>
</g>
<!-- Node15 -->
<g id="node15" class="node">
<title>Node15</title>
<g id="a_node15"><a xlink:title=" ">
<polygon fill="white" stroke="#bfbfbf" points="392,-0.5 392,-19.5 504,-19.5 504,-0.5 392,-0.5"/>
<text text-anchor="middle" x="448" y="-7.5" font-family="Helvetica,sans-Serif" font-size="10.00">odp/visibility_end.h</text>
</a>
</g>
</g>
<!-- Node3&#45;&gt;Node15 -->
<g id="edge26" class="edge">
<title>Node3&#45;&gt;Node15</title>
<path fill="none" stroke="midnightblue" d="M328.71,-526.63C402.65,-519.47 524,-494.61 524,-408.5 524,-408.5 524,-408.5 524,-121 524,-81.28 490.04,-45.5 467.52,-26.15"/>
<polygon fill="midnightblue" stroke="midnightblue" points="469.48,-23.24 459.54,-19.57 465.02,-28.63 469.48,-23.24"/>
</g>
<!-- Node6 -->
<g id="node6" class="node">
<title>Node6</title>
<g id="a_node6"><a xlink:title=" ">
<polygon fill="white" stroke="#bfbfbf" points="284.5,-392.5 284.5,-422.5 401.5,-422.5 401.5,-392.5 284.5,-392.5"/>
<text text-anchor="start" x="292.5" y="-410.5" font-family="Helvetica,sans-Serif" font-size="10.00">odp/api/abi/schedule</text>
<text text-anchor="middle" x="343" y="-399.5" font-family="Helvetica,sans-Serif" font-size="10.00">_types.h</text>
</a>
</g>
</g>
<!-- Node5&#45;&gt;Node6 -->
<g id="edge5" class="edge">
<title>Node5&#45;&gt;Node6</title>
<path fill="none" stroke="midnightblue" d="M283.03,-459.48C292.33,-451.57 306.55,-439.48 318.8,-429.07"/>
<polygon fill="midnightblue" stroke="midnightblue" points="321.15,-431.67 326.5,-422.52 316.62,-426.33 321.15,-431.67"/>
</g>
<!-- Node7 -->
<g id="node7" class="node">
<title>Node7</title>
<g id="a_node7"><a xlink:href="spec_2schedule__types_8h.html" target="_top" xlink:title="ODP schedule types.">
<polygon fill="white" stroke="black" points="141.5,-392.5 141.5,-422.5 266.5,-422.5 266.5,-392.5 141.5,-392.5"/>
<text text-anchor="start" x="149.5" y="-410.5" font-family="Helvetica,sans-Serif" font-size="10.00">odp/api/spec/schedule</text>
<text text-anchor="middle" x="204" y="-399.5" font-family="Helvetica,sans-Serif" font-size="10.00">_types.h</text>
</a>
</g>
</g>
<!-- Node5&#45;&gt;Node7 -->
<g id="edge6" class="edge">
<title>Node5&#45;&gt;Node7</title>
<path fill="none" stroke="midnightblue" d="M263.11,-459.48C253.94,-451.57 239.93,-439.48 227.85,-429.07"/>
<polygon fill="midnightblue" stroke="midnightblue" points="230.12,-426.4 220.26,-422.52 225.55,-431.7 230.12,-426.4"/>
</g>
<!-- Node7&#45;&gt;Node4 -->
<g id="edge7" class="edge">
<title>Node7&#45;&gt;Node4</title>
<path fill="none" stroke="midnightblue" d="M147.8,-392.47C99.64,-376.68 38,-345.77 38,-291 38,-291 38,-291 38,-121 38,-86.81 54.6,-49.76 65.86,-28.57"/>
<polygon fill="midnightblue" stroke="midnightblue" points="68.95,-30.22 70.72,-19.77 62.82,-26.83 68.95,-30.22"/>
</g>
<!-- Node8 -->
<g id="node8" class="node">
<title>Node8</title>
<g id="a_node8"><a xlink:href="std__types_8h.html" target="_top" xlink:title="Standard C language types and definitions for ODP.">
<polygon fill="white" stroke="black" points="148,-224.5 148,-243.5 260,-243.5 260,-224.5 148,-224.5"/>
<text text-anchor="middle" x="204" y="-231.5" font-family="Helvetica,sans-Serif" font-size="10.00">odp/api/std_types.h</text>
</a>
</g>
</g>
<!-- Node7&#45;&gt;Node8 -->
<g id="edge8" class="edge">
<title>Node7&#45;&gt;Node8</title>
<path fill="none" stroke="midnightblue" d="M196.29,-392.32C184.5,-368.78 164.51,-320.23 176,-280 178.9,-269.84 184.83,-259.75 190.49,-251.7"/>
<polygon fill="midnightblue" stroke="midnightblue" points="193.38,-253.69 196.59,-243.59 187.78,-249.48 193.38,-253.69"/>
</g>
<!-- Node7&#45;&gt;Node15 -->
<g id="edge25" class="edge">
<title>Node7&#45;&gt;Node15</title>
<path fill="none" stroke="midnightblue" d="M266.58,-393.98C349.66,-375.53 486,-338.09 486,-291 486,-291 486,-291 486,-121 486,-86.81 469.4,-49.76 458.14,-28.57"/>
<polygon fill="midnightblue" stroke="midnightblue" points="461.18,-26.83 453.28,-19.77 455.05,-30.22 461.18,-26.83"/>
</g>
<!-- Node16 -->
<g id="node16" class="node">
<title>Node16</title>
<g id="a_node16"><a xlink:href="thrmask_8h.html" target="_top" xlink:title="ODP thread masks.">
<polygon fill="white" stroke="black" points="198.5,-336.5 198.5,-355.5 303.5,-355.5 303.5,-336.5 198.5,-336.5"/>
<text text-anchor="middle" x="251" y="-343.5" font-family="Helvetica,sans-Serif" font-size="10.00">odp/api/thrmask.h</text>
</a>
</g>
</g>
<!-- Node7&#45;&gt;Node16 -->
<g id="edge19" class="edge">
<title>Node7&#45;&gt;Node16</title>
<path fill="none" stroke="midnightblue" d="M215.14,-392.4C221.97,-383.75 230.74,-372.64 237.91,-363.58"/>
<polygon fill="midnightblue" stroke="midnightblue" points="240.71,-365.67 244.16,-355.66 235.22,-361.34 240.71,-365.67"/>
</g>
<!-- Node9 -->
<g id="node9" class="node">
<title>Node9</title>
<g id="a_node9"><a xlink:title=" ">
<polygon fill="white" stroke="#bfbfbf" points="81,-168.5 81,-187.5 211,-187.5 211,-168.5 81,-168.5"/>
<text text-anchor="middle" x="146" y="-175.5" font-family="Helvetica,sans-Serif" font-size="10.00">odp/api/abi/std_types.h</text>
</a>
</g>
</g>
<!-- Node8&#45;&gt;Node9 -->
<g id="edge9" class="edge">
<title>Node8&#45;&gt;Node9</title>
<path fill="none" stroke="midnightblue" d="M194.68,-224.32C186.11,-216.34 173.19,-204.31 162.81,-194.65"/>
<polygon fill="midnightblue" stroke="midnightblue" points="165.19,-192.09 155.49,-187.83 160.42,-197.21 165.19,-192.09"/>
</g>
<!-- Node10 -->
<g id="node10" class="node">
<title>Node10</title>
<g id="a_node10"><a xlink:href="spec_2std__types_8h.html" target="_top" xlink:title="Common types and definitions for ODP API files.">
<polygon fill="white" stroke="black" points="229.5,-168.5 229.5,-187.5 366.5,-187.5 366.5,-168.5 229.5,-168.5"/>
<text text-anchor="middle" x="298" y="-175.5" font-family="Helvetica,sans-Serif" font-size="10.00">odp/api/spec/std_types.h</text>
</a>
</g>
</g>
<!-- Node8&#45;&gt;Node10 -->
<g id="edge10" class="edge">
<title>Node8&#45;&gt;Node10</title>
<path fill="none" stroke="midnightblue" d="M219.1,-224.32C233.9,-215.82 256.69,-202.73 273.98,-192.8"/>
<polygon fill="midnightblue" stroke="midnightblue" points="276.01,-195.67 282.93,-187.65 272.52,-189.6 276.01,-195.67"/>
</g>
<!-- Node10&#45;&gt;Node4 -->
<g id="edge11" class="edge">
<title>Node10&#45;&gt;Node4</title>
<path fill="none" stroke="midnightblue" d="M253.93,-168.41C206.06,-156.55 131.55,-130.16 95,-76 85.65,-62.14 80.82,-43.63 78.38,-29.9"/>
<polygon fill="midnightblue" stroke="midnightblue" points="81.8,-29.07 76.84,-19.71 74.87,-30.12 81.8,-29.07"/>
</g>
<!-- Node11 -->
<g id="node11" class="node">
<title>Node11</title>
<g id="a_node11"><a xlink:title=" ">
<polygon fill="white" stroke="#bfbfbf" points="281.5,-112.5 281.5,-131.5 334.5,-131.5 334.5,-112.5 281.5,-112.5"/>
<text text-anchor="middle" x="308" y="-119.5" font-family="Helvetica,sans-Serif" font-size="10.00">stdint.h</text>
</a>
</g>
</g>
<!-- Node10&#45;&gt;Node11 -->
<g id="edge12" class="edge">
<title>Node10&#45;&gt;Node11</title>
<path fill="none" stroke="midnightblue" d="M299.65,-168.08C300.98,-160.93 302.88,-150.64 304.54,-141.69"/>
<polygon fill="midnightblue" stroke="midnightblue" points="308,-142.22 306.38,-131.75 301.12,-140.95 308,-142.22"/>
</g>
<!-- Node12 -->
<g id="node12" class="node">
<title>Node12</title>
<g id="a_node12"><a xlink:href="align_8h.html" target="_top" xlink:title="ODP alignments.">
<polygon fill="white" stroke="black" points="174.5,-112.5 174.5,-131.5 263.5,-131.5 263.5,-112.5 174.5,-112.5"/>
<text text-anchor="middle" x="219" y="-119.5" font-family="Helvetica,sans-Serif" font-size="10.00">odp/api/align.h</text>
</a>
</g>
</g>
<!-- Node10&#45;&gt;Node12 -->
<g id="edge13" class="edge">
<title>Node10&#45;&gt;Node12</title>
<path fill="none" stroke="midnightblue" d="M285.31,-168.32C273.1,-159.98 254.42,-147.21 240,-137.35"/>
<polygon fill="midnightblue" stroke="midnightblue" points="241.89,-134.41 231.66,-131.65 237.94,-140.19 241.89,-134.41"/>
</g>
<!-- Node10&#45;&gt;Node15 -->
<g id="edge18" class="edge">
<title>Node10&#45;&gt;Node15</title>
<path fill="none" stroke="midnightblue" d="M307.4,-168.26C316.86,-159.36 331.77,-145.04 344,-132 377.77,-95.98 414.93,-51.47 434.39,-27.74"/>
<polygon fill="midnightblue" stroke="midnightblue" points="437.32,-29.69 440.93,-19.73 431.9,-25.26 437.32,-29.69"/>
</g>
<!-- Node13 -->
<g id="node13" class="node">
<title>Node13</title>
<g id="a_node13"><a xlink:title=" ">
<polygon fill="white" stroke="#bfbfbf" points="104.5,-56.5 104.5,-75.5 211.5,-75.5 211.5,-56.5 104.5,-56.5"/>
<text text-anchor="middle" x="158" y="-63.5" font-family="Helvetica,sans-Serif" font-size="10.00">odp/api/abi/align.h</text>
</a>
</g>
</g>
<!-- Node12&#45;&gt;Node13 -->
<g id="edge14" class="edge">
<title>Node12&#45;&gt;Node13</title>
<path fill="none" stroke="midnightblue" d="M209.2,-112.32C200.18,-104.34 186.59,-92.31 175.68,-82.65"/>
<polygon fill="midnightblue" stroke="midnightblue" points="177.79,-79.84 167.98,-75.83 173.15,-85.08 177.79,-79.84"/>
</g>
<!-- Node14 -->
<g id="node14" class="node">
<title>Node14</title>
<g id="a_node14"><a xlink:href="spec_2align_8h.html" target="_top" xlink:title="ODP alignments.">
<polygon fill="white" stroke="black" points="230,-56.5 230,-75.5 344,-75.5 344,-56.5 230,-56.5"/>
<text text-anchor="middle" x="287" y="-63.5" font-family="Helvetica,sans-Serif" font-size="10.00">odp/api/spec/align.h</text>
</a>
</g>
</g>
<!-- Node12&#45;&gt;Node14 -->
<g id="edge15" class="edge">
<title>Node12&#45;&gt;Node14</title>
<path fill="none" stroke="midnightblue" d="M229.93,-112.32C240.17,-104.18 255.72,-91.84 268,-82.09"/>
<polygon fill="midnightblue" stroke="midnightblue" points="270.22,-84.79 275.88,-75.83 265.87,-79.31 270.22,-84.79"/>
</g>
<!-- Node14&#45;&gt;Node4 -->
<g id="edge16" class="edge">
<title>Node14&#45;&gt;Node4</title>
<path fill="none" stroke="midnightblue" d="M253.57,-56.44C217.14,-47.12 158.77,-32.18 118.97,-22"/>
<polygon fill="midnightblue" stroke="midnightblue" points="119.83,-18.61 109.28,-19.52 118.1,-25.39 119.83,-18.61"/>
</g>
<!-- Node14&#45;&gt;Node15 -->
<g id="edge17" class="edge">
<title>Node14&#45;&gt;Node15</title>
<path fill="none" stroke="midnightblue" d="M312.51,-56.44C339.6,-47.36 382.59,-32.94 412.87,-22.78"/>
<polygon fill="midnightblue" stroke="midnightblue" points="414.24,-26.01 422.61,-19.52 412.01,-19.38 414.24,-26.01"/>
</g>
<!-- Node17 -->
<g id="node17" class="node">
<title>Node17</title>
<g id="a_node17"><a xlink:title=" ">
<polygon fill="white" stroke="#bfbfbf" points="334.5,-280.5 334.5,-299.5 457.5,-299.5 457.5,-280.5 334.5,-280.5"/>
<text text-anchor="middle" x="396" y="-287.5" font-family="Helvetica,sans-Serif" font-size="10.00">odp/api/abi/thrmask.h</text>
</a>
</g>
</g>
<!-- Node16&#45;&gt;Node17 -->
<g id="edge20" class="edge">
<title>Node16&#45;&gt;Node17</title>
<path fill="none" stroke="midnightblue" d="M273.98,-336.44C298.16,-327.44 336.42,-313.19 363.65,-303.05"/>
<polygon fill="midnightblue" stroke="midnightblue" points="364.98,-306.29 373.13,-299.52 362.54,-299.73 364.98,-306.29"/>
</g>
<!-- Node18 -->
<g id="node18" class="node">
<title>Node18</title>
<g id="a_node18"><a xlink:href="spec_2thrmask_8h.html" target="_top" xlink:title="ODP thread masks.">
<polygon fill="white" stroke="black" points="185.5,-280.5 185.5,-299.5 316.5,-299.5 316.5,-280.5 185.5,-280.5"/>
<text text-anchor="middle" x="251" y="-287.5" font-family="Helvetica,sans-Serif" font-size="10.00">odp/api/spec/thrmask.h</text>
</a>
</g>
</g>
<!-- Node16&#45;&gt;Node18 -->
<g id="edge21" class="edge">
<title>Node16&#45;&gt;Node18</title>
<path fill="none" stroke="midnightblue" d="M251,-336.08C251,-329.01 251,-318.86 251,-309.99"/>
<polygon fill="midnightblue" stroke="midnightblue" points="254.5,-309.75 251,-299.75 247.5,-309.75 254.5,-309.75"/>
</g>
<!-- Node18&#45;&gt;Node4 -->
<g id="edge22" class="edge">
<title>Node18&#45;&gt;Node4</title>
<path fill="none" stroke="midnightblue" d="M289.08,-280.46C336.12,-267.4 410,-237.57 410,-179 410,-179 410,-179 410,-121 410,-82.58 386.61,-74.62 353,-56 318.47,-36.87 216.69,-23.93 146.61,-17.01"/>
<polygon fill="midnightblue" stroke="midnightblue" points="146.81,-13.51 136.51,-16.03 146.13,-20.48 146.81,-13.51"/>
</g>
<!-- Node18&#45;&gt;Node8 -->
<g id="edge23" class="edge">
<title>Node18&#45;&gt;Node8</title>
<path fill="none" stroke="midnightblue" d="M243.24,-280.08C236.46,-272.3 226.46,-260.8 218.24,-251.37"/>
<polygon fill="midnightblue" stroke="midnightblue" points="220.82,-249 211.62,-243.75 215.54,-253.59 220.82,-249"/>
</g>
<!-- Node18&#45;&gt;Node15 -->
<g id="edge24" class="edge">
<title>Node18&#45;&gt;Node15</title>
<path fill="none" stroke="midnightblue" d="M314.14,-280.47C371.77,-268.72 448,-241.38 448,-179 448,-179 448,-179 448,-121 448,-88.95 448,-51.64 448,-29.75"/>
<polygon fill="midnightblue" stroke="midnightblue" points="451.5,-29.56 448,-19.56 444.5,-29.56 451.5,-29.56"/>
</g>
</g>
</svg>
