<?xml version="1.0" encoding="UTF-8" standalone="no"?>
<!DOCTYPE svg PUBLIC "-//W3C//DTD SVG 1.1//EN"
 "http://www.w3.org/Graphics/SVG/1.1/DTD/svg11.dtd">
<!-- Generated by graphviz version 2.43.0 (0)
 -->
<!-- Title: queue_stats_types.h Pages: 1 -->
<svg width="331pt" height="151pt"
 viewBox="0.00 0.00 330.50 151.00" xmlns="http://www.w3.org/2000/svg" xmlns:xlink="http://www.w3.org/1999/xlink">
<g id="graph0" class="graph" transform="scale(1 1) rotate(0) translate(4 147)">
<title>queue_stats_types.h</title>
<polygon fill="white" stroke="transparent" points="-4,4 -4,-147 326.5,-147 326.5,4 -4,4"/>
<!-- Node1 -->
<g id="node1" class="node">
<title>Node1</title>
<g id="a_node1"><a xlink:title="ODP queue.">
<polygon fill="#bfbfbf" stroke="black" points="107,-123.5 107,-142.5 224,-142.5 224,-123.5 107,-123.5"/>
<text text-anchor="middle" x="165.5" y="-130.5" font-family="Helvetica,sans-Serif" font-size="10.00">queue_stats_types.h</text>
</a>
</g>
</g>
<!-- Node2 -->
<g id="node2" class="node">
<title>Node2</title>
<g id="a_node2"><a xlink:href="spec_2queue__stats__types_8h.html" target="_top" xlink:title="ODP queue statistics types.">
<polygon fill="white" stroke="black" points="110,-56.5 110,-86.5 221,-86.5 221,-56.5 110,-56.5"/>
<text text-anchor="start" x="118" y="-74.5" font-family="Helvetica,sans-Serif" font-size="10.00">odp/api/spec/queue</text>
<text text-anchor="middle" x="165.5" y="-63.5" font-family="Helvetica,sans-Serif" font-size="10.00">_stats_types.h</text>
</a>
</g>
</g>
<!-- Node1&#45;&gt;Node2 -->
<g id="edge1" class="edge">
<title>Node1&#45;&gt;Node2</title>
<path fill="none" stroke="midnightblue" d="M165.5,-123.48C165.5,-116.47 165.5,-106.19 165.5,-96.7"/>
<polygon fill="midnightblue" stroke="midnightblue" points="169,-96.52 165.5,-86.52 162,-96.52 169,-96.52"/>
</g>
<!-- Node3 -->
<g id="node3" class="node">
<title>Node3</title>
<g id="a_node3"><a xlink:title=" ">
<polygon fill="white" stroke="#bfbfbf" points="0,-0.5 0,-19.5 121,-19.5 121,-0.5 0,-0.5"/>
<text text-anchor="middle" x="60.5" y="-7.5" font-family="Helvetica,sans-Serif" font-size="10.00">odp/visibility_begin.h</text>
</a>
</g>
</g>
<!-- Node2&#45;&gt;Node3 -->
<g id="edge2" class="edge">
<title>Node2&#45;&gt;Node3</title>
<path fill="none" stroke="midnightblue" d="M140.62,-56.4C123.79,-46.86 101.66,-34.32 84.93,-24.84"/>
<polygon fill="midnightblue" stroke="midnightblue" points="86.2,-21.54 75.78,-19.66 82.75,-27.63 86.2,-21.54"/>
</g>
<!-- Node4 -->
<g id="node4" class="node">
<title>Node4</title>
<g id="a_node4"><a xlink:title=" ">
<polygon fill="white" stroke="#bfbfbf" points="139,-0.5 139,-19.5 192,-19.5 192,-0.5 139,-0.5"/>
<text text-anchor="middle" x="165.5" y="-7.5" font-family="Helvetica,sans-Serif" font-size="10.00">stdint.h</text>
</a>
</g>
</g>
<!-- Node2&#45;&gt;Node4 -->
<g id="edge3" class="edge">
<title>Node2&#45;&gt;Node4</title>
<path fill="none" stroke="midnightblue" d="M165.5,-56.4C165.5,-48.47 165.5,-38.46 165.5,-29.86"/>
<polygon fill="midnightblue" stroke="midnightblue" points="169,-29.66 165.5,-19.66 162,-29.66 169,-29.66"/>
</g>
<!-- Node5 -->
<g id="node5" class="node">
<title>Node5</title>
<g id="a_node5"><a xlink:title=" ">
<polygon fill="white" stroke="#bfbfbf" points="210.5,-0.5 210.5,-19.5 322.5,-19.5 322.5,-0.5 210.5,-0.5"/>
<text text-anchor="middle" x="266.5" y="-7.5" font-family="Helvetica,sans-Serif" font-size="10.00">odp/visibility_end.h</text>
</a>
</g>
</g>
<!-- Node2&#45;&gt;Node5 -->
<g id="edge4" class="edge">
<title>Node2&#45;&gt;Node5</title>
<path fill="none" stroke="midnightblue" d="M189.44,-56.4C205.63,-46.86 226.91,-34.32 243,-24.84"/>
<polygon fill="midnightblue" stroke="midnightblue" points="244.96,-27.75 251.8,-19.66 241.41,-21.72 244.96,-27.75"/>
</g>
</g>
</svg>
