<?xml version="1.0" encoding="UTF-8" standalone="no"?>
<!DOCTYPE svg PUBLIC "-//W3C//DTD SVG 1.1//EN"
 "http://www.w3.org/Graphics/SVG/1.1/DTD/svg11.dtd">
<!-- Generated by graphviz version 2.40.1 (20161225.0304)
 -->
<!-- Title: queue.h Pages: 1 -->
<svg width="1201pt" height="845pt"
 viewBox="0.00 0.00 1201.00 845.00" xmlns="http://www.w3.org/2000/svg" xmlns:xlink="http://www.w3.org/1999/xlink">
<g id="graph0" class="graph" transform="scale(1 1) rotate(0) translate(4 841)">
<title>queue.h</title>
<polygon fill="#ffffff" stroke="transparent" points="-4,4 -4,-841 1197,-841 1197,4 -4,4"/>
<!-- Node0 -->
<g id="node1" class="node">
<title>Node0</title>
<polygon fill="#bfbfbf" stroke="#000000" points="201,-817.5 201,-836.5 257,-836.5 257,-817.5 201,-817.5"/>
<text text-anchor="middle" x="229" y="-824.5" font-family="Helvetica,sans-Serif" font-size="10.00" fill="#000000">queue.h</text>
</g>
<!-- Node1 -->
<g id="node2" class="node">
<title>Node1</title>
<g id="a_node2"><a xlink:href="std__types_8h.html" target="_top" xlink:title="Standard C language types and definitions for ODP. ">
<polygon fill="#ffffff" stroke="#000000" points="113,-420 113,-439 225,-439 225,-420 113,-420"/>
<text text-anchor="middle" x="169" y="-427" font-family="Helvetica,sans-Serif" font-size="10.00" fill="#000000">odp/api/std_types.h</text>
</a>
</g>
</g>
<!-- Node0&#45;&gt;Node1 -->
<g id="edge1" class="edge">
<title>Node0&#45;&gt;Node1</title>
<path fill="none" stroke="#191970" d="M252.7859,-817.4178C267.8669,-809.9442 286.1462,-797.9629 295,-781 299.113,-773.1199 298.2444,-769.2756 295,-761 249.8877,-645.929 151.1123,-672.071 106,-557 89.8993,-515.9308 126.9578,-470.0847 150.8174,-446.133"/>
<polygon fill="#191970" stroke="#191970" points="153.2687,-448.6313 158.0161,-439.1596 148.3983,-443.6035 153.2687,-448.6313"/>
</g>
<!-- Node10 -->
<g id="node11" class="node">
<title>Node10</title>
<polygon fill="#ffffff" stroke="#bfbfbf" points="365,-537.5 365,-556.5 475,-556.5 475,-537.5 365,-537.5"/>
<text text-anchor="middle" x="420" y="-544.5" font-family="Helvetica,sans-Serif" font-size="10.00" fill="#000000">odp/api/abi/event.h</text>
</g>
<!-- Node0&#45;&gt;Node10 -->
<g id="edge12" class="edge">
<title>Node0&#45;&gt;Node10</title>
<path fill="none" stroke="#191970" d="M249.7405,-817.3529C264.4128,-809.5169 283.457,-797.1277 295,-781 312.7658,-756.178 314,-745.5246 314,-715 314,-715 314,-715 314,-659 314,-613.9213 359.8565,-579.6897 391.2472,-561.5376"/>
<polygon fill="#191970" stroke="#191970" points="393.0226,-564.5552 400.0622,-556.6372 389.6214,-558.437 393.0226,-564.5552"/>
</g>
<!-- Node11 -->
<g id="node12" class="node">
<title>Node11</title>
<polygon fill="#ffffff" stroke="#bfbfbf" points="72.5,-297 72.5,-316 217.5,-316 217.5,-297 72.5,-297"/>
<text text-anchor="middle" x="145" y="-304" font-family="Helvetica,sans-Serif" font-size="10.00" fill="#000000">odp/api/abi/queue_types.h</text>
</g>
<!-- Node0&#45;&gt;Node11 -->
<g id="edge13" class="edge">
<title>Node0&#45;&gt;Node11</title>
<path fill="none" stroke="#191970" d="M200.875,-822.75C150.25,-813.3333 49,-785.6667 49,-715 49,-715 49,-715 49,-547 49,-460.5478 53.1978,-433.674 95,-358 102.4171,-344.5729 114.2615,-332.1513 124.5608,-322.8726"/>
<polygon fill="#191970" stroke="#191970" points="127.0797,-325.3225 132.3752,-316.146 122.513,-320.0173 127.0797,-325.3225"/>
</g>
<!-- Node12 -->
<g id="node13" class="node">
<title>Node12</title>
<polygon fill="#ffffff" stroke="#bfbfbf" points="172.5,-761.5 172.5,-780.5 285.5,-780.5 285.5,-761.5 172.5,-761.5"/>
<text text-anchor="middle" x="229" y="-768.5" font-family="Helvetica,sans-Serif" font-size="10.00" fill="#000000">odp/api/abi/queue.h</text>
</g>
<!-- Node0&#45;&gt;Node12 -->
<g id="edge14" class="edge">
<title>Node0&#45;&gt;Node12</title>
<path fill="none" stroke="#191970" d="M229,-817.2455C229,-809.9382 229,-799.6944 229,-790.7046"/>
<polygon fill="#191970" stroke="#191970" points="232.5001,-790.6426 229,-780.6427 225.5001,-790.6427 232.5001,-790.6426"/>
</g>
<!-- Node13 -->
<g id="node14" class="node">
<title>Node13</title>
<polygon fill="#ffffff" stroke="#bfbfbf" points="115,-537.5 115,-556.5 225,-556.5 225,-537.5 115,-537.5"/>
<text text-anchor="middle" x="170" y="-544.5" font-family="Helvetica,sans-Serif" font-size="10.00" fill="#000000">odp/api/abi/buffer.h</text>
</g>
<!-- Node0&#45;&gt;Node13 -->
<g id="edge15" class="edge">
<title>Node0&#45;&gt;Node13</title>
<path fill="none" stroke="#191970" d="M200.9454,-818.889C159.5622,-805.0016 87,-772.4587 87,-715 87,-715 87,-715 87,-659 87,-618.0829 123.2004,-582.3617 147.7865,-562.8195"/>
<polygon fill="#191970" stroke="#191970" points="150.1025,-565.4545 155.9202,-556.5999 145.8504,-559.8939 150.1025,-565.4545"/>
</g>
<!-- Node14 -->
<g id="node15" class="node">
<title>Node14</title>
<polygon fill="#ffffff" stroke="#bfbfbf" points="243,-537.5 243,-556.5 347,-556.5 347,-537.5 243,-537.5"/>
<text text-anchor="middle" x="295" y="-544.5" font-family="Helvetica,sans-Serif" font-size="10.00" fill="#000000">odp/api/abi/pool.h</text>
</g>
<!-- Node0&#45;&gt;Node14 -->
<g id="edge16" class="edge">
<title>Node0&#45;&gt;Node14</title>
<path fill="none" stroke="#191970" d="M205.8888,-817.4901C190.9702,-809.9878 172.7669,-797.9445 164,-781 159.9153,-773.1052 161.5892,-769.5557 164,-761 186.8718,-679.8291 250.067,-599.0435 279.5186,-564.4803"/>
<polygon fill="#191970" stroke="#191970" points="282.339,-566.5696 286.2342,-556.7168 277.0449,-561.9901 282.339,-566.5696"/>
</g>
<!-- Node15 -->
<g id="node16" class="node">
<title>Node15</title>
<g id="a_node16"><a xlink:href="spec_2queue_8h.html" target="_top" xlink:title="ODP queue. ">
<polygon fill="#ffffff" stroke="#000000" points="981,-761.5 981,-780.5 1101,-780.5 1101,-761.5 981,-761.5"/>
<text text-anchor="middle" x="1041" y="-768.5" font-family="Helvetica,sans-Serif" font-size="10.00" fill="#000000">odp/api/spec/queue.h</text>
</a>
</g>
</g>
<!-- Node0&#45;&gt;Node15 -->
<g id="edge17" class="edge">
<title>Node0&#45;&gt;Node15</title>
<path fill="none" stroke="#191970" d="M257.4234,-825.0398C371.788,-817.1526 800.3219,-787.5985 970.6024,-775.855"/>
<polygon fill="#191970" stroke="#191970" points="970.9745,-779.3378 980.7099,-775.1579 970.4928,-772.3543 970.9745,-779.3378"/>
</g>
<!-- Node2 -->
<g id="node3" class="node">
<title>Node2</title>
<polygon fill="#ffffff" stroke="#bfbfbf" points="104,-358.5 104,-377.5 234,-377.5 234,-358.5 104,-358.5"/>
<text text-anchor="middle" x="169" y="-365.5" font-family="Helvetica,sans-Serif" font-size="10.00" fill="#000000">odp/api/abi/std_types.h</text>
</g>
<!-- Node1&#45;&gt;Node2 -->
<g id="edge2" class="edge">
<title>Node1&#45;&gt;Node2</title>
<path fill="none" stroke="#191970" d="M169,-419.8906C169,-411.3657 169,-398.6392 169,-387.9235"/>
<polygon fill="#191970" stroke="#191970" points="172.5001,-387.7448 169,-377.7449 165.5001,-387.7449 172.5001,-387.7448"/>
</g>
<!-- Node3 -->
<g id="node4" class="node">
<title>Node3</title>
<g id="a_node4"><a xlink:href="spec_2std__types_8h.html" target="_top" xlink:title="Standard C language types and definitions for ODP. ">
<polygon fill="#ffffff" stroke="#000000" points="28.5,-174 28.5,-193 165.5,-193 165.5,-174 28.5,-174"/>
<text text-anchor="middle" x="97" y="-181" font-family="Helvetica,sans-Serif" font-size="10.00" fill="#000000">odp/api/spec/std_types.h</text>
</a>
</g>
</g>
<!-- Node1&#45;&gt;Node3 -->
<g id="edge3" class="edge">
<title>Node1&#45;&gt;Node3</title>
<path fill="none" stroke="#191970" d="M150.8674,-419.9578C134.7446,-410.8088 111.2706,-395.7846 95,-378 75.6504,-356.85 70.3576,-349.7055 63,-322 51.6737,-279.3501 72.5986,-228.9544 86.3574,-202.2712"/>
<polygon fill="#191970" stroke="#191970" points="89.5435,-203.7362 91.1975,-193.2713 83.3785,-200.4207 89.5435,-203.7362"/>
</g>
<!-- Node4 -->
<g id="node5" class="node">
<title>Node4</title>
<polygon fill="#ffffff" stroke="#bfbfbf" points="942.5,-.5 942.5,-19.5 1063.5,-19.5 1063.5,-.5 942.5,-.5"/>
<text text-anchor="middle" x="1003" y="-7.5" font-family="Helvetica,sans-Serif" font-size="10.00" fill="#000000">odp/visibility_begin.h</text>
</g>
<!-- Node3&#45;&gt;Node4 -->
<g id="edge4" class="edge">
<title>Node3&#45;&gt;Node4</title>
<path fill="none" stroke="#191970" d="M130.6929,-173.9145C167.042,-163.573 226.6232,-146.6212 278,-132 396.6684,-98.2285 423.8099,-79.1446 545,-56 680.6704,-30.09 841.9147,-18.1982 932.3577,-13.2063"/>
<polygon fill="#191970" stroke="#191970" points="932.6967,-16.6932 942.4936,-12.6595 932.3196,-9.7034 932.6967,-16.6932"/>
</g>
<!-- Node5 -->
<g id="node6" class="node">
<title>Node5</title>
<polygon fill="#ffffff" stroke="#bfbfbf" points="69.5,-112.5 69.5,-131.5 122.5,-131.5 122.5,-112.5 69.5,-112.5"/>
<text text-anchor="middle" x="96" y="-119.5" font-family="Helvetica,sans-Serif" font-size="10.00" fill="#000000">stdint.h</text>
</g>
<!-- Node3&#45;&gt;Node5 -->
<g id="edge5" class="edge">
<title>Node3&#45;&gt;Node5</title>
<path fill="none" stroke="#191970" d="M96.8438,-173.8906C96.7051,-165.3657 96.4982,-152.6392 96.324,-141.9235"/>
<polygon fill="#191970" stroke="#191970" points="99.8207,-141.6866 96.1585,-131.7449 92.8216,-141.8005 99.8207,-141.6866"/>
</g>
<!-- Node6 -->
<g id="node7" class="node">
<title>Node6</title>
<g id="a_node7"><a xlink:href="align_8h.html" target="_top" xlink:title="ODP alignments. ">
<polygon fill="#ffffff" stroke="#000000" points="179.5,-112.5 179.5,-131.5 268.5,-131.5 268.5,-112.5 179.5,-112.5"/>
<text text-anchor="middle" x="224" y="-119.5" font-family="Helvetica,sans-Serif" font-size="10.00" fill="#000000">odp/api/align.h</text>
</a>
</g>
</g>
<!-- Node3&#45;&gt;Node6 -->
<g id="edge6" class="edge">
<title>Node3&#45;&gt;Node6</title>
<path fill="none" stroke="#191970" d="M116.8438,-173.8906C137.8136,-163.7359 171.0944,-147.6196 195.0036,-136.0416"/>
<polygon fill="#191970" stroke="#191970" points="196.8208,-139.0504 204.2956,-131.5419 193.7699,-132.7502 196.8208,-139.0504"/>
</g>
<!-- Node9 -->
<g id="node10" class="node">
<title>Node9</title>
<polygon fill="#ffffff" stroke="#bfbfbf" points="308,-.5 308,-19.5 420,-19.5 420,-.5 308,-.5"/>
<text text-anchor="middle" x="364" y="-7.5" font-family="Helvetica,sans-Serif" font-size="10.00" fill="#000000">odp/visibility_end.h</text>
</g>
<!-- Node3&#45;&gt;Node9 -->
<g id="edge11" class="edge">
<title>Node3&#45;&gt;Node9</title>
<path fill="none" stroke="#191970" d="M87.2286,-173.9163C78.1758,-164.2942 65.3312,-148.5575 60,-132 54.403,-114.6169 51.7813,-68.3773 63,-56 78.5492,-38.8449 213.7839,-23.6266 297.6091,-15.7286"/>
<polygon fill="#191970" stroke="#191970" points="298.1845,-19.1902 307.8172,-14.7789 297.536,-12.2203 298.1845,-19.1902"/>
</g>
<!-- Node7 -->
<g id="node8" class="node">
<title>Node7</title>
<polygon fill="#ffffff" stroke="#bfbfbf" points="105.5,-56.5 105.5,-75.5 212.5,-75.5 212.5,-56.5 105.5,-56.5"/>
<text text-anchor="middle" x="159" y="-63.5" font-family="Helvetica,sans-Serif" font-size="10.00" fill="#000000">odp/api/abi/align.h</text>
</g>
<!-- Node6&#45;&gt;Node7 -->
<g id="edge7" class="edge">
<title>Node6&#45;&gt;Node7</title>
<path fill="none" stroke="#191970" d="M212.6779,-112.2455C203.0777,-103.9746 189.1108,-91.9416 177.8305,-82.2232"/>
<polygon fill="#191970" stroke="#191970" points="180.053,-79.5182 170.1924,-75.6427 175.484,-84.8214 180.053,-79.5182"/>
</g>
<!-- Node8 -->
<g id="node9" class="node">
<title>Node8</title>
<g id="a_node9"><a xlink:href="spec_2align_8h.html" target="_top" xlink:title="ODP alignments. ">
<polygon fill="#ffffff" stroke="#000000" points="307,-56.5 307,-75.5 421,-75.5 421,-56.5 307,-56.5"/>
<text text-anchor="middle" x="364" y="-63.5" font-family="Helvetica,sans-Serif" font-size="10.00" fill="#000000">odp/api/spec/align.h</text>
</a>
</g>
</g>
<!-- Node6&#45;&gt;Node8 -->
<g id="edge8" class="edge">
<title>Node6&#45;&gt;Node8</title>
<path fill="none" stroke="#191970" d="M248.0669,-112.3733C270.8428,-103.2629 305.2344,-89.5062 330.649,-79.3404"/>
<polygon fill="#191970" stroke="#191970" points="332.2623,-82.4648 340.2472,-75.5011 329.6625,-75.9654 332.2623,-82.4648"/>
</g>
<!-- Node8&#45;&gt;Node4 -->
<g id="edge9" class="edge">
<title>Node8&#45;&gt;Node4</title>
<path fill="none" stroke="#191970" d="M421.3145,-57.6312C425.9406,-57.0461 430.546,-56.4936 435,-56 613.6109,-36.2068 824.7137,-21.3433 932.2807,-14.3786"/>
<polygon fill="#191970" stroke="#191970" points="932.6083,-17.8649 942.3626,-13.7294 932.1583,-10.8793 932.6083,-17.8649"/>
</g>
<!-- Node8&#45;&gt;Node9 -->
<g id="edge10" class="edge">
<title>Node8&#45;&gt;Node9</title>
<path fill="none" stroke="#191970" d="M364,-56.2455C364,-48.9382 364,-38.6944 364,-29.7046"/>
<polygon fill="#191970" stroke="#191970" points="367.5001,-29.6426 364,-19.6427 360.5001,-29.6427 367.5001,-29.6426"/>
</g>
<!-- Node15&#45;&gt;Node4 -->
<g id="edge18" class="edge">
<title>Node15&#45;&gt;Node4</title>
<path fill="none" stroke="#191970" d="M1077.795,-761.4434C1122.7798,-747.2795 1193,-716.0354 1193,-659 1193,-659 1193,-659 1193,-122 1193,-64.2347 1127.0182,-35.6568 1072.8206,-21.9265"/>
<polygon fill="#191970" stroke="#191970" points="1073.3974,-18.4656 1062.8564,-19.5319 1071.7617,-25.2718 1073.3974,-18.4656"/>
</g>
<!-- Node15&#45;&gt;Node9 -->
<g id="edge65" class="edge">
<title>Node15&#45;&gt;Node9</title>
<path fill="none" stroke="#191970" d="M1046.607,-761.4834C1057.1774,-742.6141 1079,-698.8343 1079,-659 1079,-659 1079,-659 1079,-429.5 1079,-247.5592 855.7629,-381.9997 684,-322 491.947,-254.9126 388.1124,-258.3865 298,-76 287.5113,-54.7709 310.5002,-36.2733 332.166,-24.3056"/>
<polygon fill="#191970" stroke="#191970" points="334.0012,-27.2967 341.2688,-19.5875 330.7799,-21.0818 334.0012,-27.2967"/>
</g>
<!-- Node16 -->
<g id="node17" class="node">
<title>Node16</title>
<g id="a_node17"><a xlink:href="event_8h.html" target="_top" xlink:title="ODP event. ">
<polygon fill="#ffffff" stroke="#000000" points="560,-705.5 560,-724.5 652,-724.5 652,-705.5 560,-705.5"/>
<text text-anchor="middle" x="606" y="-712.5" font-family="Helvetica,sans-Serif" font-size="10.00" fill="#000000">odp/api/event.h</text>
</a>
</g>
</g>
<!-- Node15&#45;&gt;Node16 -->
<g id="edge19" class="edge">
<title>Node15&#45;&gt;Node16</title>
<path fill="none" stroke="#191970" d="M980.9718,-763.2722C896.7083,-752.4245 744.4795,-732.8272 662.2848,-722.2459"/>
<polygon fill="#191970" stroke="#191970" points="662.4986,-718.7446 652.1336,-720.939 661.6048,-725.6873 662.4986,-718.7446"/>
</g>
<!-- Node28 -->
<g id="node29" class="node">
<title>Node28</title>
<g id="a_node29"><a xlink:href="queue__types_8h.html" target="_top" xlink:title="ODP queue. ">
<polygon fill="#ffffff" stroke="#000000" points="684.5,-358.5 684.5,-377.5 811.5,-377.5 811.5,-358.5 684.5,-358.5"/>
<text text-anchor="middle" x="748" y="-365.5" font-family="Helvetica,sans-Serif" font-size="10.00" fill="#000000">odp/api/queue_types.h</text>
</a>
</g>
</g>
<!-- Node15&#45;&gt;Node28 -->
<g id="edge64" class="edge">
<title>Node15&#45;&gt;Node28</title>
<path fill="none" stroke="#191970" d="M1041,-761.4116C1041,-742.0538 1041,-696.9167 1041,-659 1041,-659 1041,-659 1041,-491 1041,-436.995 995.4693,-437.8174 947,-414 907.999,-394.8352 860.7352,-383.4777 822.0571,-376.8445"/>
<polygon fill="#191970" stroke="#191970" points="822.3408,-373.3442 811.9057,-375.1772 821.2063,-380.2517 822.3408,-373.3442"/>
</g>
<!-- Node16&#45;&gt;Node10 -->
<g id="edge20" class="edge">
<title>Node16&#45;&gt;Node10</title>
<path fill="none" stroke="#191970" d="M589.9451,-705.4623C575.7285,-696.7142 554.7013,-683.022 538,-669 497.6251,-635.1022 456.0518,-588.9993 434.674,-564.306"/>
<polygon fill="#191970" stroke="#191970" points="437.1591,-561.8275 427.9897,-556.5197 431.8478,-566.3871 437.1591,-561.8275"/>
</g>
<!-- Node17 -->
<g id="node18" class="node">
<title>Node17</title>
<g id="a_node18"><a xlink:href="spec_2event_8h.html" target="_top" xlink:title="ODP event. ">
<polygon fill="#ffffff" stroke="#000000" points="547,-649.5 547,-668.5 665,-668.5 665,-649.5 547,-649.5"/>
<text text-anchor="middle" x="606" y="-656.5" font-family="Helvetica,sans-Serif" font-size="10.00" fill="#000000">odp/api/spec/event.h</text>
</a>
</g>
</g>
<!-- Node16&#45;&gt;Node17 -->
<g id="edge21" class="edge">
<title>Node16&#45;&gt;Node17</title>
<path fill="none" stroke="#191970" d="M606,-705.2455C606,-697.9382 606,-687.6944 606,-678.7046"/>
<polygon fill="#191970" stroke="#191970" points="609.5001,-678.6426 606,-668.6427 602.5001,-678.6427 609.5001,-678.6426"/>
</g>
<!-- Node17&#45;&gt;Node4 -->
<g id="edge22" class="edge">
<title>Node17&#45;&gt;Node4</title>
<path fill="none" stroke="#191970" d="M665.0132,-655.0734C806.8067,-642.1221 1155,-587.9284 1155,-368 1155,-368 1155,-368 1155,-122 1155,-68.8635 1094.0521,-38.1127 1049.3436,-22.7035"/>
<polygon fill="#191970" stroke="#191970" points="1050.388,-19.3626 1039.795,-19.5566 1048.1969,-26.0108 1050.388,-19.3626"/>
</g>
<!-- Node17&#45;&gt;Node9 -->
<g id="edge63" class="edge">
<title>Node17&#45;&gt;Node9</title>
<path fill="none" stroke="#191970" d="M592.4768,-649.4781C580.3037,-640.6337 562.199,-626.788 548,-613 516.3196,-582.2367 522.5352,-558.5653 484,-537 390.26,-484.5407 348.7049,-529.008 245,-501 179.904,-483.4193 157.5809,-485.9347 104,-445 42.8307,-398.2679 0,-383.4778 0,-306.5 0,-306.5 0,-306.5 0,-122 0,-84.3794 20.362,-74.7102 53,-56 93.5021,-32.7817 218.7492,-20.0531 297.3954,-14.163"/>
<polygon fill="#191970" stroke="#191970" points="297.9765,-17.63 307.6949,-13.4106 297.4664,-10.6486 297.9765,-17.63"/>
</g>
<!-- Node18 -->
<g id="node19" class="node">
<title>Node18</title>
<g id="a_node19"><a xlink:href="packet_8h.html" target="_top" xlink:title="ODP packet descriptor. ">
<polygon fill="#ffffff" stroke="#000000" points="557,-593.5 557,-612.5 655,-612.5 655,-593.5 557,-593.5"/>
<text text-anchor="middle" x="606" y="-600.5" font-family="Helvetica,sans-Serif" font-size="10.00" fill="#000000">odp/api/packet.h</text>
</a>
</g>
</g>
<!-- Node17&#45;&gt;Node18 -->
<g id="edge23" class="edge">
<title>Node17&#45;&gt;Node18</title>
<path fill="none" stroke="#191970" d="M606,-649.2455C606,-641.9382 606,-631.6944 606,-622.7046"/>
<polygon fill="#191970" stroke="#191970" points="609.5001,-622.6426 606,-612.6427 602.5001,-622.6427 609.5001,-622.6426"/>
</g>
<!-- Node18&#45;&gt;Node1 -->
<g id="edge24" class="edge">
<title>Node18&#45;&gt;Node1</title>
<path fill="none" stroke="#191970" d="M596.3303,-593.2945C580.9808,-578.5206 549.4413,-550.667 517,-537 424.0764,-497.8528 388.0205,-534.7404 293,-501 254.3773,-487.2856 214.0522,-461.5651 190.2493,-445.001"/>
<polygon fill="#191970" stroke="#191970" points="192.1583,-442.0642 181.9735,-439.145 188.1149,-447.7783 192.1583,-442.0642"/>
</g>
<!-- Node18&#45;&gt;Node10 -->
<g id="edge25" class="edge">
<title>Node18&#45;&gt;Node10</title>
<path fill="none" stroke="#191970" d="M574.0255,-593.3733C542.8287,-583.9807 495.229,-569.6496 461.2068,-559.4064"/>
<polygon fill="#191970" stroke="#191970" points="462.1418,-556.0327 451.5573,-556.5011 460.1237,-562.7355 462.1418,-556.0327"/>
</g>
<!-- Node18&#45;&gt;Node13 -->
<g id="edge29" class="edge">
<title>Node18&#45;&gt;Node13</title>
<path fill="none" stroke="#191970" d="M556.8899,-597.4338C487.5978,-589.4683 356.918,-574.037 235.3693,-557.1573"/>
<polygon fill="#191970" stroke="#191970" points="235.5291,-553.6457 225.1414,-555.7304 234.5619,-560.5786 235.5291,-553.6457"/>
</g>
<!-- Node18&#45;&gt;Node14 -->
<g id="edge30" class="edge">
<title>Node18&#45;&gt;Node14</title>
<path fill="none" stroke="#191970" d="M556.7211,-594.1266C502.6432,-584.3891 415.7343,-568.7399 357.0507,-558.1731"/>
<polygon fill="#191970" stroke="#191970" points="357.6232,-554.72 347.1612,-556.3924 356.3827,-561.6092 357.6232,-554.72"/>
</g>
<!-- Node19 -->
<g id="node20" class="node">
<title>Node19</title>
<polygon fill="#ffffff" stroke="#bfbfbf" points="711,-537.5 711,-556.5 841,-556.5 841,-537.5 711,-537.5"/>
<text text-anchor="middle" x="776" y="-544.5" font-family="Helvetica,sans-Serif" font-size="10.00" fill="#000000">odp/api/abi/packet_io.h</text>
</g>
<!-- Node18&#45;&gt;Node19 -->
<g id="edge26" class="edge">
<title>Node18&#45;&gt;Node19</title>
<path fill="none" stroke="#191970" d="M635.224,-593.3733C663.4925,-584.0613 706.4965,-569.8953 737.5344,-559.671"/>
<polygon fill="#191970" stroke="#191970" points="738.7544,-562.9542 747.1573,-556.5011 736.5643,-556.3056 738.7544,-562.9542"/>
</g>
<!-- Node20 -->
<g id="node21" class="node">
<title>Node20</title>
<polygon fill="#ffffff" stroke="#bfbfbf" points="830.5,-414.5 830.5,-444.5 937.5,-444.5 937.5,-414.5 830.5,-414.5"/>
<text text-anchor="start" x="838.5" y="-432.5" font-family="Helvetica,sans-Serif" font-size="10.00" fill="#000000">odp/api/abi/packet</text>
<text text-anchor="middle" x="884" y="-421.5" font-family="Helvetica,sans-Serif" font-size="10.00" fill="#000000">_types.h</text>
</g>
<!-- Node18&#45;&gt;Node20 -->
<g id="edge27" class="edge">
<title>Node18&#45;&gt;Node20</title>
<path fill="none" stroke="#191970" d="M655.0199,-600.6001C752.3557,-595.3314 962.5224,-581.2497 984,-557 1016.0603,-520.8017 959.985,-475.7327 919.6754,-450.0244"/>
<polygon fill="#191970" stroke="#191970" points="921.4379,-446.9989 911.0979,-444.6892 917.7407,-452.9429 921.4379,-446.9989"/>
</g>
<!-- Node21 -->
<g id="node22" class="node">
<title>Node21</title>
<polygon fill="#ffffff" stroke="#bfbfbf" points="859,-537.5 859,-556.5 975,-556.5 975,-537.5 859,-537.5"/>
<text text-anchor="middle" x="917" y="-544.5" font-family="Helvetica,sans-Serif" font-size="10.00" fill="#000000">odp/api/abi/packet.h</text>
</g>
<!-- Node18&#45;&gt;Node21 -->
<g id="edge28" class="edge">
<title>Node18&#45;&gt;Node21</title>
<path fill="none" stroke="#191970" d="M655.2789,-594.1266C709.1139,-584.4329 795.4858,-568.8804 854.1569,-558.3158"/>
<polygon fill="#191970" stroke="#191970" points="854.8283,-561.7513 864.0497,-556.5345 853.5877,-554.8621 854.8283,-561.7513"/>
</g>
<!-- Node22 -->
<g id="node23" class="node">
<title>Node22</title>
<g id="a_node23"><a xlink:href="spec_2packet_8h.html" target="_top" xlink:title="ODP packet descriptor. ">
<polygon fill="#ffffff" stroke="#000000" points="569.5,-537.5 569.5,-556.5 692.5,-556.5 692.5,-537.5 569.5,-537.5"/>
<text text-anchor="middle" x="631" y="-544.5" font-family="Helvetica,sans-Serif" font-size="10.00" fill="#000000">odp/api/spec/packet.h</text>
</a>
</g>
</g>
<!-- Node18&#45;&gt;Node22 -->
<g id="edge31" class="edge">
<title>Node18&#45;&gt;Node22</title>
<path fill="none" stroke="#191970" d="M610.3547,-593.2455C613.7244,-585.6973 618.493,-575.0158 622.5983,-565.8197"/>
<polygon fill="#191970" stroke="#191970" points="625.8147,-567.2009 626.6952,-556.6427 619.4227,-564.3473 625.8147,-567.2009"/>
</g>
<!-- Node22&#45;&gt;Node4 -->
<g id="edge32" class="edge">
<title>Node22&#45;&gt;Node4</title>
<path fill="none" stroke="#191970" d="M692.5522,-537.6356C823.328,-516.0036 1117,-457.4664 1117,-368 1117,-368 1117,-368 1117,-122 1117,-75.4628 1068.0617,-41.828 1034.3136,-24.1659"/>
<polygon fill="#191970" stroke="#191970" points="1035.7576,-20.9746 1025.251,-19.6105 1032.6138,-27.2289 1035.7576,-20.9746"/>
</g>
<!-- Node22&#45;&gt;Node9 -->
<g id="edge62" class="edge">
<title>Node22&#45;&gt;Node9</title>
<path fill="none" stroke="#191970" d="M569.4189,-538.656C484.6866,-527.0159 341.3638,-506.6895 331,-501 302.0097,-485.085 298.7452,-473.5189 282,-445 245.2005,-382.3265 253.3833,-358.7207 227,-291 205.4547,-235.6975 205.1561,-219.1192 175,-168 158.9175,-140.7377 151.6658,-135.9751 131,-112 116.6312,-95.3302 105.1308,-96.4508 97,-76 93.716,-67.74 91.273,-62.7981 97,-56 109.8439,-40.754 222.7633,-25.528 297.5833,-16.9813"/>
<polygon fill="#191970" stroke="#191970" points="298.3289,-20.4195 307.8735,-15.8203 297.5441,-13.4636 298.3289,-20.4195"/>
</g>
<!-- Node23 -->
<g id="node24" class="node">
<title>Node23</title>
<g id="a_node24"><a xlink:href="time_8h.html" target="_top" xlink:title="ODP time. ">
<polygon fill="#ffffff" stroke="#000000" points="339.5,-481.5 339.5,-500.5 426.5,-500.5 426.5,-481.5 339.5,-481.5"/>
<text text-anchor="middle" x="383" y="-488.5" font-family="Helvetica,sans-Serif" font-size="10.00" fill="#000000">odp/api/time.h</text>
</a>
</g>
</g>
<!-- Node22&#45;&gt;Node23 -->
<g id="edge33" class="edge">
<title>Node22&#45;&gt;Node23</title>
<path fill="none" stroke="#191970" d="M588.6491,-537.4369C546.2058,-527.8529 480.7881,-513.0812 435.1687,-502.78"/>
<polygon fill="#191970" stroke="#191970" points="435.7016,-499.3123 425.1763,-500.5237 434.1597,-506.1404 435.7016,-499.3123"/>
</g>
<!-- Node26 -->
<g id="node27" class="node">
<title>Node26</title>
<g id="a_node27"><a xlink:href="packet__types_8h.html" target="_top" xlink:title="ODP packet. ">
<polygon fill="#ffffff" stroke="#000000" points="683,-481.5 683,-500.5 813,-500.5 813,-481.5 683,-481.5"/>
<text text-anchor="middle" x="748" y="-488.5" font-family="Helvetica,sans-Serif" font-size="10.00" fill="#000000">odp/api/packet_types.h</text>
</a>
</g>
</g>
<!-- Node22&#45;&gt;Node26 -->
<g id="edge39" class="edge">
<title>Node22&#45;&gt;Node26</title>
<path fill="none" stroke="#191970" d="M651.113,-537.3733C669.8103,-528.4241 697.8744,-514.9917 718.9934,-504.8835"/>
<polygon fill="#191970" stroke="#191970" points="720.6405,-507.9755 728.1494,-500.5011 717.6183,-501.6614 720.6405,-507.9755"/>
</g>
<!-- Node23&#45;&gt;Node1 -->
<g id="edge34" class="edge">
<title>Node23&#45;&gt;Node1</title>
<path fill="none" stroke="#191970" d="M349.5625,-481.3906C312.5,-470.7395 252.6151,-453.5296 212.0688,-441.8772"/>
<polygon fill="#191970" stroke="#191970" points="212.7804,-438.4402 202.2027,-439.0419 210.847,-445.1679 212.7804,-438.4402"/>
</g>
<!-- Node24 -->
<g id="node25" class="node">
<title>Node24</title>
<polygon fill="#ffffff" stroke="#bfbfbf" points="290.5,-420 290.5,-439 395.5,-439 395.5,-420 290.5,-420"/>
<text text-anchor="middle" x="343" y="-427" font-family="Helvetica,sans-Serif" font-size="10.00" fill="#000000">odp/api/abi/time.h</text>
</g>
<!-- Node23&#45;&gt;Node24 -->
<g id="edge35" class="edge">
<title>Node23&#45;&gt;Node24</title>
<path fill="none" stroke="#191970" d="M376.75,-481.3906C370.9135,-472.417 362.0491,-458.7879 354.8694,-447.7491"/>
<polygon fill="#191970" stroke="#191970" points="357.7245,-445.7194 349.3381,-439.2449 351.8564,-449.5361 357.7245,-445.7194"/>
</g>
<!-- Node25 -->
<g id="node26" class="node">
<title>Node25</title>
<g id="a_node26"><a xlink:href="spec_2time_8h.html" target="_top" xlink:title="ODP time. ">
<polygon fill="#ffffff" stroke="#000000" points="553.5,-56.5 553.5,-75.5 666.5,-75.5 666.5,-56.5 553.5,-56.5"/>
<text text-anchor="middle" x="610" y="-63.5" font-family="Helvetica,sans-Serif" font-size="10.00" fill="#000000">odp/api/spec/time.h</text>
</a>
</g>
</g>
<!-- Node23&#45;&gt;Node25 -->
<g id="edge36" class="edge">
<title>Node23&#45;&gt;Node25</title>
<path fill="none" stroke="#191970" d="M388.5294,-481.4777C399.7207,-461.2774 424,-412.3433 424,-368 424,-368 424,-368 424,-245 424,-161.2523 523.1079,-104.3911 576.6345,-79.7884"/>
<polygon fill="#191970" stroke="#191970" points="578.365,-82.8486 586.0645,-75.5707 575.507,-76.4586 578.365,-82.8486"/>
</g>
<!-- Node25&#45;&gt;Node4 -->
<g id="edge37" class="edge">
<title>Node25&#45;&gt;Node4</title>
<path fill="none" stroke="#191970" d="M666.5198,-57.3961C669.7266,-56.9205 672.9038,-56.4523 676,-56 764.3558,-43.0921 866.2429,-28.8632 932.4894,-19.6987"/>
<polygon fill="#191970" stroke="#191970" points="932.9768,-23.1648 942.4033,-18.3283 932.0182,-16.2307 932.9768,-23.1648"/>
</g>
<!-- Node25&#45;&gt;Node9 -->
<g id="edge38" class="edge">
<title>Node25&#45;&gt;Node9</title>
<path fill="none" stroke="#191970" d="M567.9906,-56.4369C525.8896,-46.8529 460.9995,-32.0812 415.7479,-21.78"/>
<polygon fill="#191970" stroke="#191970" points="416.3636,-18.3307 405.8361,-19.5237 414.8098,-25.1561 416.3636,-18.3307"/>
</g>
<!-- Node26&#45;&gt;Node20 -->
<g id="edge40" class="edge">
<title>Node26&#45;&gt;Node20</title>
<path fill="none" stroke="#191970" d="M769.25,-481.3906C788.5081,-472.682 817.4622,-459.5888 841.4671,-448.7336"/>
<polygon fill="#191970" stroke="#191970" points="843.0611,-451.8541 850.7307,-444.5446 840.1768,-445.4759 843.0611,-451.8541"/>
</g>
<!-- Node27 -->
<g id="node28" class="node">
<title>Node27</title>
<g id="a_node28"><a xlink:href="spec_2packet__types_8h.html" target="_top" xlink:title="ODP packet types. ">
<polygon fill="#ffffff" stroke="#000000" points="691,-414.5 691,-444.5 805,-444.5 805,-414.5 691,-414.5"/>
<text text-anchor="start" x="699" y="-432.5" font-family="Helvetica,sans-Serif" font-size="10.00" fill="#000000">odp/api/spec/packet</text>
<text text-anchor="middle" x="748" y="-421.5" font-family="Helvetica,sans-Serif" font-size="10.00" fill="#000000">_types.h</text>
</a>
</g>
</g>
<!-- Node26&#45;&gt;Node27 -->
<g id="edge41" class="edge">
<title>Node26&#45;&gt;Node27</title>
<path fill="none" stroke="#191970" d="M748,-481.3906C748,-474.2234 748,-464.0862 748,-454.671"/>
<polygon fill="#191970" stroke="#191970" points="751.5001,-454.5446 748,-444.5446 744.5001,-454.5446 751.5001,-454.5446"/>
</g>
<!-- Node27&#45;&gt;Node4 -->
<g id="edge42" class="edge">
<title>Node27&#45;&gt;Node4</title>
<path fill="none" stroke="#191970" d="M805.2779,-415.251C900.0144,-387.8628 1079,-318.2831 1079,-183.5 1079,-183.5 1079,-183.5 1079,-122 1079,-82.2361 1045.7929,-46.1042 1023.2792,-26.177"/>
<polygon fill="#191970" stroke="#191970" points="1025.4317,-23.4128 1015.5499,-19.5918 1020.8921,-28.7412 1025.4317,-23.4128"/>
</g>
<!-- Node27&#45;&gt;Node9 -->
<g id="edge61" class="edge">
<title>Node27&#45;&gt;Node9</title>
<path fill="none" stroke="#191970" d="M702.6885,-414.4991C598.81,-377.1841 346.1958,-269.0013 265,-76 254.0969,-50.0834 282.775,-33.0682 312.0265,-22.8152"/>
<polygon fill="#191970" stroke="#191970" points="313.4884,-26.0201 321.9122,-19.5943 311.3198,-19.3644 313.4884,-26.0201"/>
</g>
<!-- Node27&#45;&gt;Node28 -->
<g id="edge43" class="edge">
<title>Node27&#45;&gt;Node28</title>
<path fill="none" stroke="#191970" d="M748,-414.2977C748,-406.3834 748,-396.6043 748,-388.0759"/>
<polygon fill="#191970" stroke="#191970" points="751.5001,-387.8469 748,-377.8469 744.5001,-387.847 751.5001,-387.8469"/>
</g>
<!-- Node28&#45;&gt;Node11 -->
<g id="edge44" class="edge">
<title>Node28&#45;&gt;Node11</title>
<path fill="none" stroke="#191970" d="M684.324,-361.5057C574.4889,-350.3036 349.5125,-327.3582 227.7211,-314.9367"/>
<polygon fill="#191970" stroke="#191970" points="228.0025,-311.4474 217.699,-313.9146 227.2922,-318.4112 228.0025,-311.4474"/>
</g>
<!-- Node29 -->
<g id="node30" class="node">
<title>Node29</title>
<g id="a_node30"><a xlink:href="spec_2queue__types_8h.html" target="_top" xlink:title="ODP queue types. ">
<polygon fill="#ffffff" stroke="#000000" points="692.5,-291.5 692.5,-321.5 803.5,-321.5 803.5,-291.5 692.5,-291.5"/>
<text text-anchor="start" x="700.5" y="-309.5" font-family="Helvetica,sans-Serif" font-size="10.00" fill="#000000">odp/api/spec/queue</text>
<text text-anchor="middle" x="748" y="-298.5" font-family="Helvetica,sans-Serif" font-size="10.00" fill="#000000">_types.h</text>
</a>
</g>
</g>
<!-- Node28&#45;&gt;Node29 -->
<g id="edge45" class="edge">
<title>Node28&#45;&gt;Node29</title>
<path fill="none" stroke="#191970" d="M748,-358.3906C748,-351.2234 748,-341.0862 748,-331.671"/>
<polygon fill="#191970" stroke="#191970" points="751.5001,-331.5446 748,-321.5446 744.5001,-331.5446 751.5001,-331.5446"/>
</g>
<!-- Node29&#45;&gt;Node4 -->
<g id="edge46" class="edge">
<title>Node29&#45;&gt;Node4</title>
<path fill="none" stroke="#191970" d="M803.8007,-294.9851C888.812,-275.8163 1041,-234.3929 1041,-183.5 1041,-183.5 1041,-183.5 1041,-122 1041,-87.6118 1024.7366,-50.2832 1013.489,-28.5791"/>
<polygon fill="#191970" stroke="#191970" points="1016.431,-26.6605 1008.607,-19.5166 1010.2683,-29.9804 1016.431,-26.6605"/>
</g>
<!-- Node29&#45;&gt;Node9 -->
<g id="edge60" class="edge">
<title>Node29&#45;&gt;Node9</title>
<path fill="none" stroke="#191970" d="M692.1422,-301.9033C651.8835,-296.2142 597.9977,-283.4842 559,-255 473.8849,-192.8313 503.2696,-131.7701 430,-56 418.3591,-43.9618 403.1449,-33.1096 390.258,-24.973"/>
<polygon fill="#191970" stroke="#191970" points="391.7296,-21.7708 381.3701,-19.5502 388.0836,-27.7464 391.7296,-21.7708"/>
</g>
<!-- Node30 -->
<g id="node31" class="node">
<title>Node30</title>
<g id="a_node31"><a xlink:href="schedule__types_8h.html" target="_top" xlink:title="ODP schedule. ">
<polygon fill="#ffffff" stroke="#000000" points="726,-235.5 726,-254.5 866,-254.5 866,-235.5 726,-235.5"/>
<text text-anchor="middle" x="796" y="-242.5" font-family="Helvetica,sans-Serif" font-size="10.00" fill="#000000">odp/api/schedule_types.h</text>
</a>
</g>
</g>
<!-- Node29&#45;&gt;Node30 -->
<g id="edge47" class="edge">
<title>Node29&#45;&gt;Node30</title>
<path fill="none" stroke="#191970" d="M759.8652,-291.2977C766.5975,-282.672 775.0585,-271.8312 782.1006,-262.8087"/>
<polygon fill="#191970" stroke="#191970" points="784.921,-264.8836 788.3146,-254.8469 779.4027,-260.5766 784.921,-264.8836"/>
</g>
<!-- Node35 -->
<g id="node36" class="node">
<title>Node35</title>
<g id="a_node36"><a xlink:href="deprecated_8h.html" target="_top" xlink:title="Control deprecated API definitions. ">
<polygon fill="#ffffff" stroke="#000000" points="567.5,-235.5 567.5,-254.5 686.5,-254.5 686.5,-235.5 567.5,-235.5"/>
<text text-anchor="middle" x="627" y="-242.5" font-family="Helvetica,sans-Serif" font-size="10.00" fill="#000000">odp/api/deprecated.h</text>
</a>
</g>
</g>
<!-- Node29&#45;&gt;Node35 -->
<g id="edge56" class="edge">
<title>Node29&#45;&gt;Node35</title>
<path fill="none" stroke="#191970" d="M718.4001,-291.4554C699.0078,-281.599 673.8258,-268.7999 654.8057,-259.1327"/>
<polygon fill="#191970" stroke="#191970" points="656.2512,-255.9412 645.7507,-254.5303 653.0795,-262.1815 656.2512,-255.9412"/>
</g>
<!-- Node31 -->
<g id="node32" class="node">
<title>Node31</title>
<polygon fill="#ffffff" stroke="#bfbfbf" points="876.5,-168.5 876.5,-198.5 993.5,-198.5 993.5,-168.5 876.5,-168.5"/>
<text text-anchor="start" x="884.5" y="-186.5" font-family="Helvetica,sans-Serif" font-size="10.00" fill="#000000">odp/api/abi/schedule</text>
<text text-anchor="middle" x="935" y="-175.5" font-family="Helvetica,sans-Serif" font-size="10.00" fill="#000000">_types.h</text>
</g>
<!-- Node30&#45;&gt;Node31 -->
<g id="edge48" class="edge">
<title>Node30&#45;&gt;Node31</title>
<path fill="none" stroke="#191970" d="M817.7188,-235.3906C837.4016,-226.682 866.9944,-213.5888 891.5288,-202.7336"/>
<polygon fill="#191970" stroke="#191970" points="893.268,-205.7915 900.9968,-198.5446 890.4357,-199.3901 893.268,-205.7915"/>
</g>
<!-- Node32 -->
<g id="node33" class="node">
<title>Node32</title>
<g id="a_node33"><a xlink:href="spec_2schedule__types_8h.html" target="_top" xlink:title="ODP schedule types. ">
<polygon fill="#ffffff" stroke="#000000" points="733.5,-168.5 733.5,-198.5 858.5,-198.5 858.5,-168.5 733.5,-168.5"/>
<text text-anchor="start" x="741.5" y="-186.5" font-family="Helvetica,sans-Serif" font-size="10.00" fill="#000000">odp/api/spec/schedule</text>
<text text-anchor="middle" x="796" y="-175.5" font-family="Helvetica,sans-Serif" font-size="10.00" fill="#000000">_types.h</text>
</a>
</g>
</g>
<!-- Node30&#45;&gt;Node32 -->
<g id="edge49" class="edge">
<title>Node30&#45;&gt;Node32</title>
<path fill="none" stroke="#191970" d="M796,-235.3906C796,-228.2234 796,-218.0862 796,-208.671"/>
<polygon fill="#191970" stroke="#191970" points="799.5001,-208.5446 796,-198.5446 792.5001,-208.5446 799.5001,-208.5446"/>
</g>
<!-- Node32&#45;&gt;Node4 -->
<g id="edge50" class="edge">
<title>Node32&#45;&gt;Node4</title>
<path fill="none" stroke="#191970" d="M849.8579,-168.4451C894.0828,-153.0017 954.1223,-124.2752 984,-76 992.8135,-61.7595 997.6752,-43.2782 1000.2685,-29.4961"/>
<polygon fill="#191970" stroke="#191970" points="1003.7232,-30.057 1001.894,-19.6213 996.8161,-28.92 1003.7232,-30.057"/>
</g>
<!-- Node32&#45;&gt;Node9 -->
<g id="edge55" class="edge">
<title>Node32&#45;&gt;Node9</title>
<path fill="none" stroke="#191970" d="M760.1466,-168.4367C711.3423,-147.8655 621.3289,-109.6879 545,-76 525.348,-67.3265 520.986,-63.8735 501,-56 469.1908,-43.4687 432.4287,-31.2447 404.9989,-22.5514"/>
<polygon fill="#191970" stroke="#191970" points="405.9313,-19.1757 395.3419,-19.5143 403.8312,-25.8532 405.9313,-19.1757"/>
</g>
<!-- Node33 -->
<g id="node34" class="node">
<title>Node33</title>
<g id="a_node34"><a xlink:href="support_8h.html" target="_top" xlink:title="ODP support API &#45; platform specific header. ">
<polygon fill="#ffffff" stroke="#000000" points="812.5,-112.5 812.5,-131.5 913.5,-131.5 913.5,-112.5 812.5,-112.5"/>
<text text-anchor="middle" x="863" y="-119.5" font-family="Helvetica,sans-Serif" font-size="10.00" fill="#000000">odp/api/support.h</text>
</a>
</g>
</g>
<!-- Node32&#45;&gt;Node33 -->
<g id="edge51" class="edge">
<title>Node32&#45;&gt;Node33</title>
<path fill="none" stroke="#191970" d="M812.5618,-168.2977C822.3465,-159.3163 834.7474,-147.9334 844.8043,-138.702"/>
<polygon fill="#191970" stroke="#191970" points="847.2722,-141.1876 852.2725,-131.8469 842.5387,-136.0307 847.2722,-141.1876"/>
</g>
<!-- Node34 -->
<g id="node35" class="node">
<title>Node34</title>
<g id="a_node35"><a xlink:href="spec_2support_8h.html" target="_top" xlink:title="ODP support API. ">
<polygon fill="#ffffff" stroke="#000000" points="847.5,-56.5 847.5,-75.5 974.5,-75.5 974.5,-56.5 847.5,-56.5"/>
<text text-anchor="middle" x="911" y="-63.5" font-family="Helvetica,sans-Serif" font-size="10.00" fill="#000000">odp/api/spec/support.h</text>
</a>
</g>
</g>
<!-- Node33&#45;&gt;Node34 -->
<g id="edge52" class="edge">
<title>Node33&#45;&gt;Node34</title>
<path fill="none" stroke="#191970" d="M871.361,-112.2455C878.175,-104.2958 887.9681,-92.8706 896.1152,-83.3656"/>
<polygon fill="#191970" stroke="#191970" points="898.8843,-85.513 902.7349,-75.6427 893.5695,-80.9575 898.8843,-85.513"/>
</g>
<!-- Node34&#45;&gt;Node4 -->
<g id="edge53" class="edge">
<title>Node34&#45;&gt;Node4</title>
<path fill="none" stroke="#191970" d="M927.0252,-56.2455C941.1408,-47.6534 961.9263,-35.0014 978.1899,-25.1018"/>
<polygon fill="#191970" stroke="#191970" points="980.4363,-27.8319 987.1585,-19.6427 976.7966,-21.8525 980.4363,-27.8319"/>
</g>
<!-- Node34&#45;&gt;Node9 -->
<g id="edge54" class="edge">
<title>Node34&#45;&gt;Node9</title>
<path fill="none" stroke="#191970" d="M847.4151,-57.0231C844.5725,-56.6677 841.7573,-56.3249 839,-56 693.2699,-38.8309 521.829,-23.4009 430.0051,-15.5214"/>
<polygon fill="#191970" stroke="#191970" points="430.2815,-12.0323 420.0196,-14.6674 429.6849,-19.0069 430.2815,-12.0323"/>
</g>
<!-- Node36 -->
<g id="node37" class="node">
<title>Node36</title>
<g id="a_node37"><a xlink:href="spec_2deprecated_8h.html" target="_top" xlink:title="Macro for deprecated API definitions. ">
<polygon fill="#ffffff" stroke="#000000" points="684.5,-56.5 684.5,-75.5 829.5,-75.5 829.5,-56.5 684.5,-56.5"/>
<text text-anchor="middle" x="757" y="-63.5" font-family="Helvetica,sans-Serif" font-size="10.00" fill="#000000">odp/api/spec/deprecated.h</text>
</a>
</g>
</g>
<!-- Node35&#45;&gt;Node36 -->
<g id="edge57" class="edge">
<title>Node35&#45;&gt;Node36</title>
<path fill="none" stroke="#191970" d="M633.9894,-235.3762C654.7982,-206.7241 716.5876,-121.6448 743.8381,-84.1229"/>
<polygon fill="#191970" stroke="#191970" points="746.9316,-85.8194 749.9761,-75.6714 741.2677,-81.706 746.9316,-85.8194"/>
</g>
<!-- Node36&#45;&gt;Node4 -->
<g id="edge58" class="edge">
<title>Node36&#45;&gt;Node4</title>
<path fill="none" stroke="#191970" d="M799.0094,-56.4369C841.1104,-46.8529 906.0005,-32.0812 951.2521,-21.78"/>
<polygon fill="#191970" stroke="#191970" points="952.1902,-25.1561 961.1639,-19.5237 950.6364,-18.3307 952.1902,-25.1561"/>
</g>
<!-- Node36&#45;&gt;Node9 -->
<g id="edge59" class="edge">
<title>Node36&#45;&gt;Node9</title>
<path fill="none" stroke="#191970" d="M689.8874,-56.4369C617.3807,-46.1051 502.5641,-29.7445 430.3541,-19.455"/>
<polygon fill="#191970" stroke="#191970" points="430.4132,-15.9282 420.0194,-17.9824 429.4257,-22.8582 430.4132,-15.9282"/>
</g>
</g>
</svg>
