<?xml version="1.0" encoding="UTF-8" standalone="no"?>
<!DOCTYPE svg PUBLIC "-//W3C//DTD SVG 1.1//EN"
 "http://www.w3.org/Graphics/SVG/1.1/DTD/svg11.dtd">
<!-- Generated by graphviz version 2.43.0 (0)
 -->
<!-- Title: queue.h Pages: 1 -->
<svg width="1156pt" height="777pt"
 viewBox="0.00 0.00 1155.50 777.00" xmlns="http://www.w3.org/2000/svg" xmlns:xlink="http://www.w3.org/1999/xlink">
<g id="graph0" class="graph" transform="scale(1 1) rotate(0) translate(4 773)">
<title>queue.h</title>
<polygon fill="white" stroke="transparent" points="-4,4 -4,-773 1151.5,-773 1151.5,4 -4,4"/>
<!-- Node1 -->
<g id="node1" class="node">
<title>Node1</title>
<g id="a_node1"><a xlink:title="ODP queue.">
<polygon fill="#bfbfbf" stroke="black" points="95.5,-749.5 95.5,-768.5 151.5,-768.5 151.5,-749.5 95.5,-749.5"/>
<text text-anchor="middle" x="123.5" y="-756.5" font-family="Helvetica,sans-Serif" font-size="10.00">queue.h</text>
</a>
</g>
</g>
<!-- Node2 -->
<g id="node2" class="node">
<title>Node2</title>
<g id="a_node2"><a xlink:title=" ">
<polygon fill="white" stroke="#bfbfbf" points="0,-693.5 0,-712.5 113,-712.5 113,-693.5 0,-693.5"/>
<text text-anchor="middle" x="56.5" y="-700.5" font-family="Helvetica,sans-Serif" font-size="10.00">odp/api/abi/queue.h</text>
</a>
</g>
</g>
<!-- Node1&#45;&gt;Node2 -->
<g id="edge1" class="edge">
<title>Node1&#45;&gt;Node2</title>
<path fill="none" stroke="midnightblue" d="M112.74,-749.32C102.73,-741.26 87.61,-729.08 75.57,-719.37"/>
<polygon fill="midnightblue" stroke="midnightblue" points="77.44,-716.38 67.46,-712.83 73.05,-721.83 77.44,-716.38"/>
</g>
<!-- Node3 -->
<g id="node3" class="node">
<title>Node3</title>
<g id="a_node3"><a xlink:href="spec_2queue_8h.html" target="_top" xlink:title="ODP queue.">
<polygon fill="white" stroke="black" points="131.5,-693.5 131.5,-712.5 251.5,-712.5 251.5,-693.5 131.5,-693.5"/>
<text text-anchor="middle" x="191.5" y="-700.5" font-family="Helvetica,sans-Serif" font-size="10.00">odp/api/spec/queue.h</text>
</a>
</g>
</g>
<!-- Node1&#45;&gt;Node3 -->
<g id="edge2" class="edge">
<title>Node1&#45;&gt;Node3</title>
<path fill="none" stroke="midnightblue" d="M134.43,-749.32C144.67,-741.18 160.22,-728.84 172.5,-719.09"/>
<polygon fill="midnightblue" stroke="midnightblue" points="174.72,-721.79 180.38,-712.83 170.37,-716.31 174.72,-721.79"/>
</g>
<!-- Node4 -->
<g id="node4" class="node">
<title>Node4</title>
<g id="a_node4"><a xlink:title=" ">
<polygon fill="white" stroke="#bfbfbf" points="290,-0.5 290,-19.5 411,-19.5 411,-0.5 290,-0.5"/>
<text text-anchor="middle" x="350.5" y="-7.5" font-family="Helvetica,sans-Serif" font-size="10.00">odp/visibility_begin.h</text>
</a>
</g>
</g>
<!-- Node3&#45;&gt;Node4 -->
<g id="edge3" class="edge">
<title>Node3&#45;&gt;Node4</title>
<path fill="none" stroke="midnightblue" d="M159.64,-693.4C115.06,-679.21 39.5,-646.32 39.5,-586.5 39.5,-586.5 39.5,-586.5 39.5,-132 39.5,-91.81 54.97,-78.16 88.5,-56 119.17,-35.73 213.14,-23.26 279.75,-16.73"/>
<polygon fill="midnightblue" stroke="midnightblue" points="280.15,-20.21 289.77,-15.77 279.49,-13.24 280.15,-20.21"/>
</g>
<!-- Node5 -->
<g id="node5" class="node">
<title>Node5</title>
<g id="a_node5"><a xlink:href="event__types_8h.html" target="_top" xlink:title="ODP event API type definitions.">
<polygon fill="white" stroke="black" points="223,-252 223,-271 348,-271 348,-252 223,-252"/>
<text text-anchor="middle" x="285.5" y="-259" font-family="Helvetica,sans-Serif" font-size="10.00">odp/api/event_types.h</text>
</a>
</g>
</g>
<!-- Node3&#45;&gt;Node5 -->
<g id="edge4" class="edge">
<title>Node3&#45;&gt;Node5</title>
<path fill="none" stroke="midnightblue" d="M186.53,-693.34C176.23,-674.53 153.5,-628.3 153.5,-586.5 153.5,-586.5 153.5,-586.5 153.5,-394.5 153.5,-356.74 152.89,-341.64 177.5,-313 193.59,-294.28 218.12,-282.04 239.74,-274.31"/>
<polygon fill="midnightblue" stroke="midnightblue" points="241.05,-277.56 249.42,-271.07 238.83,-270.92 241.05,-277.56"/>
</g>
<!-- Node8 -->
<g id="node8" class="node">
<title>Node8</title>
<g id="a_node8"><a xlink:title=" ">
<polygon fill="white" stroke="#bfbfbf" points="825.5,-0.5 825.5,-19.5 937.5,-19.5 937.5,-0.5 825.5,-0.5"/>
<text text-anchor="middle" x="881.5" y="-7.5" font-family="Helvetica,sans-Serif" font-size="10.00">odp/visibility_end.h</text>
</a>
</g>
</g>
<!-- Node3&#45;&gt;Node8 -->
<g id="edge53" class="edge">
<title>Node3&#45;&gt;Node8</title>
<path fill="none" stroke="midnightblue" d="M251.66,-701.08C461.38,-697.1 1147.5,-677.14 1147.5,-586.5 1147.5,-586.5 1147.5,-586.5 1147.5,-132 1147.5,-44.48 1026.72,-19.97 947.93,-13.29"/>
<polygon fill="midnightblue" stroke="midnightblue" points="947.83,-9.77 937.59,-12.49 947.29,-16.75 947.83,-9.77"/>
</g>
<!-- Node9 -->
<g id="node9" class="node">
<title>Node9</title>
<g id="a_node9"><a xlink:href="queue__types_8h.html" target="_top" xlink:title="ODP queue.">
<polygon fill="white" stroke="black" points="371,-637.5 371,-656.5 498,-656.5 498,-637.5 371,-637.5"/>
<text text-anchor="middle" x="434.5" y="-644.5" font-family="Helvetica,sans-Serif" font-size="10.00">odp/api/queue_types.h</text>
</a>
</g>
</g>
<!-- Node3&#45;&gt;Node9 -->
<g id="edge9" class="edge">
<title>Node3&#45;&gt;Node9</title>
<path fill="none" stroke="midnightblue" d="M230,-693.44C272.31,-684.04 340.32,-668.93 386.17,-658.74"/>
<polygon fill="midnightblue" stroke="midnightblue" points="387.17,-662.1 396.18,-656.52 385.65,-655.27 387.17,-662.1"/>
</g>
<!-- Node19 -->
<g id="node19" class="node">
<title>Node19</title>
<g id="a_node19"><a xlink:href="std__types_8h.html" target="_top" xlink:title="Standard C language types and definitions for ODP.">
<polygon fill="white" stroke="black" points="394.5,-252 394.5,-271 506.5,-271 506.5,-252 394.5,-252"/>
<text text-anchor="middle" x="450.5" y="-259" font-family="Helvetica,sans-Serif" font-size="10.00">odp/api/std_types.h</text>
</a>
</g>
</g>
<!-- Node3&#45;&gt;Node19 -->
<g id="edge52" class="edge">
<title>Node3&#45;&gt;Node19</title>
<path fill="none" stroke="midnightblue" d="M191.5,-693.31C191.5,-674.06 191.5,-626.4 191.5,-586.5 191.5,-586.5 191.5,-586.5 191.5,-394.5 191.5,-352.69 204.98,-338 238.5,-313 261.4,-295.92 331.06,-281.42 384.34,-272.4"/>
<polygon fill="midnightblue" stroke="midnightblue" points="385.13,-275.81 394.42,-270.72 383.98,-268.91 385.13,-275.81"/>
</g>
<!-- Node6 -->
<g id="node6" class="node">
<title>Node6</title>
<g id="a_node6"><a xlink:title=" ">
<polygon fill="white" stroke="#bfbfbf" points="182,-185 182,-204 325,-204 325,-185 182,-185"/>
<text text-anchor="middle" x="253.5" y="-192" font-family="Helvetica,sans-Serif" font-size="10.00">odp/api/abi/event_types.h</text>
</a>
</g>
</g>
<!-- Node5&#45;&gt;Node6 -->
<g id="edge5" class="edge">
<title>Node5&#45;&gt;Node6</title>
<path fill="none" stroke="midnightblue" d="M281.18,-251.73C276.34,-241.89 268.35,-225.66 262.19,-213.16"/>
<polygon fill="midnightblue" stroke="midnightblue" points="265.3,-211.55 257.75,-204.13 259.02,-214.64 265.3,-211.55"/>
</g>
<!-- Node7 -->
<g id="node7" class="node">
<title>Node7</title>
<g id="a_node7"><a xlink:href="spec_2event__types_8h.html" target="_top" xlink:title="ODP event API type definitions.">
<polygon fill="white" stroke="black" points="296,-56.5 296,-86.5 405,-86.5 405,-56.5 296,-56.5"/>
<text text-anchor="start" x="304" y="-74.5" font-family="Helvetica,sans-Serif" font-size="10.00">odp/api/spec/event</text>
<text text-anchor="middle" x="350.5" y="-63.5" font-family="Helvetica,sans-Serif" font-size="10.00">_types.h</text>
</a>
</g>
</g>
<!-- Node5&#45;&gt;Node7 -->
<g id="edge6" class="edge">
<title>Node5&#45;&gt;Node7</title>
<path fill="none" stroke="midnightblue" d="M297.2,-251.9C308.55,-242.85 325.23,-227.5 333.5,-210 350.83,-173.33 352.71,-125.31 351.97,-96.81"/>
<polygon fill="midnightblue" stroke="midnightblue" points="355.46,-96.41 351.57,-86.56 348.46,-96.69 355.46,-96.41"/>
</g>
<!-- Node7&#45;&gt;Node4 -->
<g id="edge7" class="edge">
<title>Node7&#45;&gt;Node4</title>
<path fill="none" stroke="midnightblue" d="M350.5,-56.4C350.5,-48.47 350.5,-38.46 350.5,-29.86"/>
<polygon fill="midnightblue" stroke="midnightblue" points="354,-29.66 350.5,-19.66 347,-29.66 354,-29.66"/>
</g>
<!-- Node7&#45;&gt;Node8 -->
<g id="edge8" class="edge">
<title>Node7&#45;&gt;Node8</title>
<path fill="none" stroke="midnightblue" d="M405.33,-64.36C503.54,-53.35 709.11,-30.32 815.12,-18.44"/>
<polygon fill="midnightblue" stroke="midnightblue" points="815.83,-21.88 825.38,-17.29 815.05,-14.92 815.83,-21.88"/>
</g>
<!-- Node10 -->
<g id="node10" class="node">
<title>Node10</title>
<g id="a_node10"><a xlink:title=" ">
<polygon fill="white" stroke="#bfbfbf" points="362,-576 362,-595 507,-595 507,-576 362,-576"/>
<text text-anchor="middle" x="434.5" y="-583" font-family="Helvetica,sans-Serif" font-size="10.00">odp/api/abi/queue_types.h</text>
</a>
</g>
</g>
<!-- Node9&#45;&gt;Node10 -->
<g id="edge10" class="edge">
<title>Node9&#45;&gt;Node10</title>
<path fill="none" stroke="midnightblue" d="M434.5,-637.48C434.5,-629.08 434.5,-615.98 434.5,-605.16"/>
<polygon fill="midnightblue" stroke="midnightblue" points="438,-605.01 434.5,-595.01 431,-605.01 438,-605.01"/>
</g>
<!-- Node11 -->
<g id="node11" class="node">
<title>Node11</title>
<g id="a_node11"><a xlink:href="spec_2queue__types_8h.html" target="_top" xlink:title="ODP queue types.">
<polygon fill="white" stroke="black" points="619,-570.5 619,-600.5 730,-600.5 730,-570.5 619,-570.5"/>
<text text-anchor="start" x="627" y="-588.5" font-family="Helvetica,sans-Serif" font-size="10.00">odp/api/spec/queue</text>
<text text-anchor="middle" x="674.5" y="-577.5" font-family="Helvetica,sans-Serif" font-size="10.00">_types.h</text>
</a>
</g>
</g>
<!-- Node9&#45;&gt;Node11 -->
<g id="edge11" class="edge">
<title>Node9&#45;&gt;Node11</title>
<path fill="none" stroke="midnightblue" d="M468.89,-637.48C505.35,-628.43 563.83,-613.94 609.12,-602.71"/>
<polygon fill="midnightblue" stroke="midnightblue" points="610,-606.1 618.86,-600.29 608.31,-599.3 610,-606.1"/>
</g>
<!-- Node11&#45;&gt;Node4 -->
<g id="edge12" class="edge">
<title>Node11&#45;&gt;Node4</title>
<path fill="none" stroke="midnightblue" d="M618.87,-573.22C470.67,-541.57 77.5,-446.57 77.5,-329.5 77.5,-329.5 77.5,-329.5 77.5,-132 77.5,-43.51 198.88,-19.23 279.77,-12.87"/>
<polygon fill="midnightblue" stroke="midnightblue" points="280.19,-16.35 289.91,-12.15 279.69,-9.37 280.19,-16.35"/>
</g>
<!-- Node11&#45;&gt;Node8 -->
<g id="edge51" class="edge">
<title>Node11&#45;&gt;Node8</title>
<path fill="none" stroke="midnightblue" d="M730.03,-580.74C847.31,-571.27 1109.5,-541.4 1109.5,-463.5 1109.5,-463.5 1109.5,-463.5 1109.5,-132 1109.5,-58.15 1015.02,-29.24 947.7,-18.01"/>
<polygon fill="midnightblue" stroke="midnightblue" points="947.99,-14.51 937.57,-16.42 946.9,-21.43 947.99,-14.51"/>
</g>
<!-- Node12 -->
<g id="node12" class="node">
<title>Node12</title>
<g id="a_node12"><a xlink:href="event__vector__types_8h.html" target="_top" xlink:title="ODP event vector API type definitions.">
<polygon fill="white" stroke="black" points="752,-380.5 752,-410.5 871,-410.5 871,-380.5 752,-380.5"/>
<text text-anchor="start" x="760" y="-398.5" font-family="Helvetica,sans-Serif" font-size="10.00">odp/api/event_vector</text>
<text text-anchor="middle" x="811.5" y="-387.5" font-family="Helvetica,sans-Serif" font-size="10.00">_types.h</text>
</a>
</g>
</g>
<!-- Node11&#45;&gt;Node12 -->
<g id="edge13" class="edge">
<title>Node11&#45;&gt;Node12</title>
<path fill="none" stroke="midnightblue" d="M696.19,-570.44C709.28,-561.2 725.66,-548.22 737.5,-534 767.14,-498.41 790.18,-449.08 802.22,-420.2"/>
<polygon fill="midnightblue" stroke="midnightblue" points="805.48,-421.48 806.02,-410.9 799,-418.83 805.48,-421.48"/>
</g>
<!-- Node16 -->
<g id="node16" class="node">
<title>Node16</title>
<g id="a_node16"><a xlink:href="queue__stats__types_8h.html" target="_top" xlink:title="ODP queue.">
<polygon fill="white" stroke="black" points="800,-246.5 800,-276.5 915,-276.5 915,-246.5 800,-246.5"/>
<text text-anchor="start" x="808" y="-264.5" font-family="Helvetica,sans-Serif" font-size="10.00">odp/api/queue_stats</text>
<text text-anchor="middle" x="857.5" y="-253.5" font-family="Helvetica,sans-Serif" font-size="10.00">_types.h</text>
</a>
</g>
</g>
<!-- Node11&#45;&gt;Node16 -->
<g id="edge36" class="edge">
<title>Node11&#45;&gt;Node16</title>
<path fill="none" stroke="midnightblue" d="M684.42,-570.35C698.73,-548.5 723.5,-504.75 723.5,-463.5 723.5,-463.5 723.5,-463.5 723.5,-394.5 723.5,-357.2 719.55,-341.59 743.5,-313 755.7,-298.44 772.93,-287.93 790.31,-280.4"/>
<polygon fill="midnightblue" stroke="midnightblue" points="791.98,-283.5 799.94,-276.52 789.36,-277 791.98,-283.5"/>
</g>
<!-- Node25 -->
<g id="node25" class="node">
<title>Node25</title>
<g id="a_node25"><a xlink:href="schedule__types_8h.html" target="_top" xlink:title="ODP schedule.">
<polygon fill="white" stroke="black" points="555.5,-514.5 555.5,-533.5 695.5,-533.5 695.5,-514.5 555.5,-514.5"/>
<text text-anchor="middle" x="625.5" y="-521.5" font-family="Helvetica,sans-Serif" font-size="10.00">odp/api/schedule_types.h</text>
</a>
</g>
</g>
<!-- Node11&#45;&gt;Node25 -->
<g id="edge37" class="edge">
<title>Node11&#45;&gt;Node25</title>
<path fill="none" stroke="midnightblue" d="M662.89,-570.4C655.77,-561.75 646.62,-550.64 639.15,-541.58"/>
<polygon fill="midnightblue" stroke="midnightblue" points="641.69,-539.15 632.63,-533.66 636.29,-543.6 641.69,-539.15"/>
</g>
<!-- Node13 -->
<g id="node13" class="node">
<title>Node13</title>
<g id="a_node13"><a xlink:title=" ">
<polygon fill="white" stroke="#bfbfbf" points="752,-313.5 752,-343.5 889,-343.5 889,-313.5 752,-313.5"/>
<text text-anchor="start" x="760" y="-331.5" font-family="Helvetica,sans-Serif" font-size="10.00">odp/api/abi/event_vector</text>
<text text-anchor="middle" x="820.5" y="-320.5" font-family="Helvetica,sans-Serif" font-size="10.00">_types.h</text>
</a>
</g>
</g>
<!-- Node12&#45;&gt;Node13 -->
<g id="edge14" class="edge">
<title>Node12&#45;&gt;Node13</title>
<path fill="none" stroke="midnightblue" d="M813.45,-380.4C814.54,-372.56 815.92,-362.6 817.17,-353.57"/>
<polygon fill="midnightblue" stroke="midnightblue" points="820.65,-353.96 818.55,-343.58 813.71,-353 820.65,-353.96"/>
</g>
<!-- Node14 -->
<g id="node14" class="node">
<title>Node14</title>
<g id="a_node14"><a xlink:title=" ">
<polygon fill="white" stroke="#bfbfbf" points="907.5,-319 907.5,-338 1043.5,-338 1043.5,-319 907.5,-319"/>
<text text-anchor="middle" x="975.5" y="-326" font-family="Helvetica,sans-Serif" font-size="10.00">odp/api/abi/pool_types.h</text>
</a>
</g>
</g>
<!-- Node12&#45;&gt;Node14 -->
<g id="edge15" class="edge">
<title>Node12&#45;&gt;Node14</title>
<path fill="none" stroke="midnightblue" d="M847.09,-380.4C876.12,-368.89 916.72,-352.8 944.45,-341.81"/>
<polygon fill="midnightblue" stroke="midnightblue" points="946.03,-344.95 954.04,-338.01 943.45,-338.44 946.03,-344.95"/>
</g>
<!-- Node15 -->
<g id="node15" class="node">
<title>Node15</title>
<g id="a_node15"><a xlink:href="spec_2event__vector__types_8h.html" target="_top" xlink:title="ODP event vector API type definitions.">
<polygon fill="white" stroke="black" points="548,-313.5 548,-343.5 657,-343.5 657,-313.5 548,-313.5"/>
<text text-anchor="start" x="556" y="-331.5" font-family="Helvetica,sans-Serif" font-size="10.00">odp/api/spec/event</text>
<text text-anchor="middle" x="602.5" y="-320.5" font-family="Helvetica,sans-Serif" font-size="10.00">_vector_types.h</text>
</a>
</g>
</g>
<!-- Node12&#45;&gt;Node15 -->
<g id="edge16" class="edge">
<title>Node12&#45;&gt;Node15</title>
<path fill="none" stroke="midnightblue" d="M766.41,-380.48C734.52,-370.56 691.57,-357.2 657.64,-346.65"/>
<polygon fill="midnightblue" stroke="midnightblue" points="658.46,-343.24 647.87,-343.61 656.38,-349.92 658.46,-343.24"/>
</g>
<!-- Node15&#45;&gt;Node4 -->
<g id="edge17" class="edge">
<title>Node15&#45;&gt;Node4</title>
<path fill="none" stroke="midnightblue" d="M595.96,-313.41C583.14,-286.33 553.07,-225.58 520.5,-179 478.98,-119.62 467.13,-104.73 413.5,-56 400.93,-44.58 385.43,-33.47 372.94,-25.15"/>
<polygon fill="midnightblue" stroke="midnightblue" points="374.76,-22.16 364.47,-19.62 370.93,-28.02 374.76,-22.16"/>
</g>
<!-- Node15&#45;&gt;Node5 -->
<g id="edge18" class="edge">
<title>Node15&#45;&gt;Node5</title>
<path fill="none" stroke="midnightblue" d="M547.89,-314.82C545.05,-314.2 542.24,-313.59 539.5,-313 471.09,-298.33 391.98,-282.83 340.47,-272.94"/>
<polygon fill="midnightblue" stroke="midnightblue" points="341.03,-269.48 330.55,-271.03 339.71,-276.35 341.03,-269.48"/>
</g>
<!-- Node15&#45;&gt;Node8 -->
<g id="edge35" class="edge">
<title>Node15&#45;&gt;Node8</title>
<path fill="none" stroke="midnightblue" d="M656.3,-313.49C691.57,-303.42 733.64,-289.49 747.5,-277 783.24,-244.79 767.34,-219.38 793.5,-179 804.98,-161.28 812.2,-160.16 824.5,-143 841.33,-119.52 845.74,-113.39 857.5,-87 865.93,-68.08 872.71,-45.31 876.88,-29.65"/>
<polygon fill="midnightblue" stroke="midnightblue" points="880.35,-30.22 879.45,-19.67 873.57,-28.48 880.35,-30.22"/>
</g>
<!-- Node15&#45;&gt;Node16 -->
<g id="edge19" class="edge">
<title>Node15&#45;&gt;Node16</title>
<path fill="none" stroke="midnightblue" d="M657.2,-313.56C696.9,-303.44 750.75,-289.71 792.62,-279.04"/>
<polygon fill="midnightblue" stroke="midnightblue" points="793.62,-282.39 802.45,-276.53 791.89,-275.61 793.62,-282.39"/>
</g>
<!-- Node15&#45;&gt;Node19 -->
<g id="edge24" class="edge">
<title>Node15&#45;&gt;Node19</title>
<path fill="none" stroke="midnightblue" d="M569.52,-313.4C542.73,-301.94 505.31,-285.94 479.62,-274.95"/>
<polygon fill="midnightblue" stroke="midnightblue" points="480.96,-271.72 470.39,-271.01 478.21,-278.16 480.96,-271.72"/>
</g>
<!-- Node17 -->
<g id="node17" class="node">
<title>Node17</title>
<g id="a_node17"><a xlink:href="spec_2queue__stats__types_8h.html" target="_top" xlink:title="ODP queue statistics types.">
<polygon fill="white" stroke="black" points="802,-179.5 802,-209.5 913,-209.5 913,-179.5 802,-179.5"/>
<text text-anchor="start" x="810" y="-197.5" font-family="Helvetica,sans-Serif" font-size="10.00">odp/api/spec/queue</text>
<text text-anchor="middle" x="857.5" y="-186.5" font-family="Helvetica,sans-Serif" font-size="10.00">_stats_types.h</text>
</a>
</g>
</g>
<!-- Node16&#45;&gt;Node17 -->
<g id="edge20" class="edge">
<title>Node16&#45;&gt;Node17</title>
<path fill="none" stroke="midnightblue" d="M857.5,-246.4C857.5,-238.64 857.5,-228.81 857.5,-219.86"/>
<polygon fill="midnightblue" stroke="midnightblue" points="861,-219.58 857.5,-209.58 854,-219.58 861,-219.58"/>
</g>
<!-- Node17&#45;&gt;Node4 -->
<g id="edge21" class="edge">
<title>Node17&#45;&gt;Node4</title>
<path fill="none" stroke="midnightblue" d="M854.79,-179.24C850.94,-163.06 842.28,-137.11 824.5,-123 764.01,-74.99 724.16,-120.35 654.5,-87 634.84,-77.59 636.35,-65.01 616.5,-56 554.26,-27.76 476.55,-17.09 421.23,-13.14"/>
<polygon fill="midnightblue" stroke="midnightblue" points="421.38,-9.64 411.17,-12.48 420.92,-16.63 421.38,-9.64"/>
</g>
<!-- Node17&#45;&gt;Node8 -->
<g id="edge23" class="edge">
<title>Node17&#45;&gt;Node8</title>
<path fill="none" stroke="midnightblue" d="M872.38,-179.1C880.95,-169.73 890.91,-156.74 895.5,-143 908.54,-103.99 896.59,-55.2 888.16,-29.24"/>
<polygon fill="midnightblue" stroke="midnightblue" points="891.41,-27.92 884.84,-19.61 884.79,-30.2 891.41,-27.92"/>
</g>
<!-- Node18 -->
<g id="node18" class="node">
<title>Node18</title>
<g id="a_node18"><a xlink:title=" ">
<polygon fill="white" stroke="#bfbfbf" points="762,-123.5 762,-142.5 815,-142.5 815,-123.5 762,-123.5"/>
<text text-anchor="middle" x="788.5" y="-130.5" font-family="Helvetica,sans-Serif" font-size="10.00">stdint.h</text>
</a>
</g>
</g>
<!-- Node17&#45;&gt;Node18 -->
<g id="edge22" class="edge">
<title>Node17&#45;&gt;Node18</title>
<path fill="none" stroke="midnightblue" d="M841.15,-179.4C830.6,-170.31 816.9,-158.49 806.12,-149.19"/>
<polygon fill="midnightblue" stroke="midnightblue" points="808.4,-146.54 798.54,-142.66 803.83,-151.84 808.4,-146.54"/>
</g>
<!-- Node20 -->
<g id="node20" class="node">
<title>Node20</title>
<g id="a_node20"><a xlink:title=" ">
<polygon fill="white" stroke="#bfbfbf" points="381.5,-185 381.5,-204 511.5,-204 511.5,-185 381.5,-185"/>
<text text-anchor="middle" x="446.5" y="-192" font-family="Helvetica,sans-Serif" font-size="10.00">odp/api/abi/std_types.h</text>
</a>
</g>
</g>
<!-- Node19&#45;&gt;Node20 -->
<g id="edge25" class="edge">
<title>Node19&#45;&gt;Node20</title>
<path fill="none" stroke="midnightblue" d="M449.96,-251.73C449.37,-242.18 448.41,-226.62 447.66,-214.28"/>
<polygon fill="midnightblue" stroke="midnightblue" points="451.14,-213.89 447.03,-204.13 444.15,-214.32 451.14,-213.89"/>
</g>
<!-- Node21 -->
<g id="node21" class="node">
<title>Node21</title>
<g id="a_node21"><a xlink:href="spec_2std__types_8h.html" target="_top" xlink:title="Common types and definitions for ODP API files.">
<polygon fill="white" stroke="black" points="568,-185 568,-204 705,-204 705,-185 568,-185"/>
<text text-anchor="middle" x="636.5" y="-192" font-family="Helvetica,sans-Serif" font-size="10.00">odp/api/spec/std_types.h</text>
</a>
</g>
</g>
<!-- Node19&#45;&gt;Node21 -->
<g id="edge26" class="edge">
<title>Node19&#45;&gt;Node21</title>
<path fill="none" stroke="midnightblue" d="M475.2,-251.87C507.81,-240.47 565.38,-220.35 602.2,-207.49"/>
<polygon fill="midnightblue" stroke="midnightblue" points="603.71,-210.67 611.99,-204.06 601.4,-204.06 603.71,-210.67"/>
</g>
<!-- Node21&#45;&gt;Node4 -->
<g id="edge27" class="edge">
<title>Node21&#45;&gt;Node4</title>
<path fill="none" stroke="midnightblue" d="M624.79,-184.89C585,-155.62 456.94,-61.55 447.5,-56 426.15,-43.44 400.69,-31.75 381.22,-23.43"/>
<polygon fill="midnightblue" stroke="midnightblue" points="382.49,-20.16 371.91,-19.51 379.77,-26.62 382.49,-20.16"/>
</g>
<!-- Node21&#45;&gt;Node8 -->
<g id="edge34" class="edge">
<title>Node21&#45;&gt;Node8</title>
<path fill="none" stroke="midnightblue" d="M645.68,-184.56C660.46,-170.45 690.76,-142.6 719.5,-123 747.43,-103.95 758.3,-105.64 786.5,-87 815.23,-68.02 845.9,-42.39 864.38,-26.28"/>
<polygon fill="midnightblue" stroke="midnightblue" points="866.77,-28.84 871.96,-19.6 862.15,-23.58 866.77,-28.84"/>
</g>
<!-- Node21&#45;&gt;Node18 -->
<g id="edge28" class="edge">
<title>Node21&#45;&gt;Node18</title>
<path fill="none" stroke="midnightblue" d="M658.28,-184.98C684.24,-174.81 727.81,-157.76 757.33,-146.2"/>
<polygon fill="midnightblue" stroke="midnightblue" points="758.73,-149.41 766.76,-142.51 756.17,-142.9 758.73,-149.41"/>
</g>
<!-- Node22 -->
<g id="node22" class="node">
<title>Node22</title>
<g id="a_node22"><a xlink:href="align_8h.html" target="_top" xlink:title="ODP alignments.">
<polygon fill="white" stroke="black" points="578,-123.5 578,-142.5 667,-142.5 667,-123.5 578,-123.5"/>
<text text-anchor="middle" x="622.5" y="-130.5" font-family="Helvetica,sans-Serif" font-size="10.00">odp/api/align.h</text>
</a>
</g>
</g>
<!-- Node21&#45;&gt;Node22 -->
<g id="edge29" class="edge">
<title>Node21&#45;&gt;Node22</title>
<path fill="none" stroke="midnightblue" d="M634.49,-184.98C632.5,-176.49 629.37,-163.2 626.81,-152.32"/>
<polygon fill="midnightblue" stroke="midnightblue" points="630.2,-151.44 624.5,-142.51 623.39,-153.04 630.2,-151.44"/>
</g>
<!-- Node23 -->
<g id="node23" class="node">
<title>Node23</title>
<g id="a_node23"><a xlink:title=" ">
<polygon fill="white" stroke="#bfbfbf" points="500,-62 500,-81 607,-81 607,-62 500,-62"/>
<text text-anchor="middle" x="553.5" y="-69" font-family="Helvetica,sans-Serif" font-size="10.00">odp/api/abi/align.h</text>
</a>
</g>
</g>
<!-- Node22&#45;&gt;Node23 -->
<g id="edge30" class="edge">
<title>Node22&#45;&gt;Node23</title>
<path fill="none" stroke="midnightblue" d="M612.61,-123.48C601.85,-114.2 584.43,-99.17 571.28,-87.83"/>
<polygon fill="midnightblue" stroke="midnightblue" points="573.23,-84.89 563.37,-81.01 568.66,-90.19 573.23,-84.89"/>
</g>
<!-- Node24 -->
<g id="node24" class="node">
<title>Node24</title>
<g id="a_node24"><a xlink:href="spec_2align_8h.html" target="_top" xlink:title="ODP alignments.">
<polygon fill="white" stroke="black" points="663.5,-62 663.5,-81 777.5,-81 777.5,-62 663.5,-62"/>
<text text-anchor="middle" x="720.5" y="-69" font-family="Helvetica,sans-Serif" font-size="10.00">odp/api/spec/align.h</text>
</a>
</g>
</g>
<!-- Node22&#45;&gt;Node24 -->
<g id="edge31" class="edge">
<title>Node22&#45;&gt;Node24</title>
<path fill="none" stroke="midnightblue" d="M636.54,-123.48C652.55,-113.75 678.95,-97.73 697.87,-86.24"/>
<polygon fill="midnightblue" stroke="midnightblue" points="699.75,-89.19 706.49,-81.01 696.12,-83.21 699.75,-89.19"/>
</g>
<!-- Node24&#45;&gt;Node4 -->
<g id="edge32" class="edge">
<title>Node24&#45;&gt;Node4</title>
<path fill="none" stroke="midnightblue" d="M680.39,-61.93C670.33,-59.88 659.53,-57.78 649.5,-56 571.69,-42.21 481.99,-29.08 421.3,-20.6"/>
<polygon fill="midnightblue" stroke="midnightblue" points="421.46,-17.08 411.07,-19.17 420.49,-24.02 421.46,-17.08"/>
</g>
<!-- Node24&#45;&gt;Node8 -->
<g id="edge33" class="edge">
<title>Node24&#45;&gt;Node8</title>
<path fill="none" stroke="midnightblue" d="M743.57,-61.98C771.18,-51.77 817.62,-34.61 848.9,-23.05"/>
<polygon fill="midnightblue" stroke="midnightblue" points="850.31,-26.26 858.48,-19.51 847.88,-19.69 850.31,-26.26"/>
</g>
<!-- Node26 -->
<g id="node26" class="node">
<title>Node26</title>
<g id="a_node26"><a xlink:title=" ">
<polygon fill="white" stroke="#bfbfbf" points="432,-447.5 432,-477.5 549,-477.5 549,-447.5 432,-447.5"/>
<text text-anchor="start" x="440" y="-465.5" font-family="Helvetica,sans-Serif" font-size="10.00">odp/api/abi/schedule</text>
<text text-anchor="middle" x="490.5" y="-454.5" font-family="Helvetica,sans-Serif" font-size="10.00">_types.h</text>
</a>
</g>
</g>
<!-- Node25&#45;&gt;Node26 -->
<g id="edge38" class="edge">
<title>Node25&#45;&gt;Node26</title>
<path fill="none" stroke="midnightblue" d="M606.16,-514.48C586.76,-505.93 556.3,-492.5 531.51,-481.57"/>
<polygon fill="midnightblue" stroke="midnightblue" points="532.88,-478.35 522.32,-477.52 530.06,-484.76 532.88,-478.35"/>
</g>
<!-- Node27 -->
<g id="node27" class="node">
<title>Node27</title>
<g id="a_node27"><a xlink:href="spec_2schedule__types_8h.html" target="_top" xlink:title="ODP schedule types.">
<polygon fill="white" stroke="black" points="567,-447.5 567,-477.5 692,-477.5 692,-447.5 567,-447.5"/>
<text text-anchor="start" x="575" y="-465.5" font-family="Helvetica,sans-Serif" font-size="10.00">odp/api/spec/schedule</text>
<text text-anchor="middle" x="629.5" y="-454.5" font-family="Helvetica,sans-Serif" font-size="10.00">_types.h</text>
</a>
</g>
</g>
<!-- Node25&#45;&gt;Node27 -->
<g id="edge39" class="edge">
<title>Node25&#45;&gt;Node27</title>
<path fill="none" stroke="midnightblue" d="M626.07,-514.48C626.54,-507.47 627.23,-497.19 627.87,-487.7"/>
<polygon fill="midnightblue" stroke="midnightblue" points="631.38,-487.74 628.56,-477.52 624.39,-487.27 631.38,-487.74"/>
</g>
<!-- Node27&#45;&gt;Node4 -->
<g id="edge40" class="edge">
<title>Node27&#45;&gt;Node4</title>
<path fill="none" stroke="midnightblue" d="M566.83,-448.44C564.02,-447.94 561.23,-447.46 558.5,-447 458.04,-430.24 115.5,-431.35 115.5,-329.5 115.5,-329.5 115.5,-329.5 115.5,-132 115.5,-57.21 210.75,-28.6 279.97,-17.69"/>
<polygon fill="midnightblue" stroke="midnightblue" points="280.6,-21.14 289.98,-16.21 279.58,-14.21 280.6,-21.14"/>
</g>
<!-- Node27&#45;&gt;Node8 -->
<g id="edge50" class="edge">
<title>Node27&#45;&gt;Node8</title>
<path fill="none" stroke="midnightblue" d="M692.36,-455.94C814.39,-443.39 1071.5,-407.68 1071.5,-329.5 1071.5,-329.5 1071.5,-329.5 1071.5,-132 1071.5,-68.18 994.28,-36.55 938.3,-22.01"/>
<polygon fill="midnightblue" stroke="midnightblue" points="939.01,-18.58 928.47,-19.57 937.33,-25.38 939.01,-18.58"/>
</g>
<!-- Node27&#45;&gt;Node12 -->
<g id="edge41" class="edge">
<title>Node27&#45;&gt;Node12</title>
<path fill="none" stroke="midnightblue" d="M668.99,-447.4C696.42,-437.6 733.15,-424.48 762.46,-414.02"/>
<polygon fill="midnightblue" stroke="midnightblue" points="763.85,-417.24 772.09,-410.58 761.49,-410.64 763.85,-417.24"/>
</g>
<!-- Node27&#45;&gt;Node16 -->
<g id="edge42" class="edge">
<title>Node27&#45;&gt;Node16</title>
<path fill="none" stroke="midnightblue" d="M633.27,-447.41C641.83,-418.12 665.48,-350.29 709.5,-313 722.75,-301.78 759.69,-289.17 793.35,-279.36"/>
<polygon fill="midnightblue" stroke="midnightblue" points="794.54,-282.65 803.19,-276.54 792.62,-275.92 794.54,-282.65"/>
</g>
<!-- Node27&#45;&gt;Node19 -->
<g id="edge43" class="edge">
<title>Node27&#45;&gt;Node19</title>
<path fill="none" stroke="midnightblue" d="M566.73,-448.18C505.09,-435 418.07,-416.07 402.5,-411 331.52,-387.9 289.42,-406.43 248.5,-344 240.95,-332.48 240.02,-323.86 248.5,-313 257.6,-301.34 337.64,-283.95 394.18,-272.92"/>
<polygon fill="midnightblue" stroke="midnightblue" points="394.94,-276.34 404.09,-271 393.61,-269.46 394.94,-276.34"/>
</g>
<!-- Node28 -->
<g id="node28" class="node">
<title>Node28</title>
<g id="a_node28"><a xlink:href="thrmask_8h.html" target="_top" xlink:title="ODP thread masks.">
<polygon fill="white" stroke="black" points="412,-386 412,-405 517,-405 517,-386 412,-386"/>
<text text-anchor="middle" x="464.5" y="-393" font-family="Helvetica,sans-Serif" font-size="10.00">odp/api/thrmask.h</text>
</a>
</g>
</g>
<!-- Node27&#45;&gt;Node28 -->
<g id="edge44" class="edge">
<title>Node27&#45;&gt;Node28</title>
<path fill="none" stroke="midnightblue" d="M593.7,-447.4C564.49,-435.89 523.64,-419.8 495.74,-408.81"/>
<polygon fill="midnightblue" stroke="midnightblue" points="496.68,-405.42 486.09,-405.01 494.12,-411.93 496.68,-405.42"/>
</g>
<!-- Node29 -->
<g id="node29" class="node">
<title>Node29</title>
<g id="a_node29"><a xlink:title=" ">
<polygon fill="white" stroke="#bfbfbf" points="258,-319 258,-338 381,-338 381,-319 258,-319"/>
<text text-anchor="middle" x="319.5" y="-326" font-family="Helvetica,sans-Serif" font-size="10.00">odp/api/abi/thrmask.h</text>
</a>
</g>
</g>
<!-- Node28&#45;&gt;Node29 -->
<g id="edge45" class="edge">
<title>Node28&#45;&gt;Node29</title>
<path fill="none" stroke="midnightblue" d="M445.25,-385.87C420.33,-374.7 376.71,-355.15 347.97,-342.26"/>
<polygon fill="midnightblue" stroke="midnightblue" points="349.39,-339.06 338.83,-338.17 346.53,-345.45 349.39,-339.06"/>
</g>
<!-- Node30 -->
<g id="node30" class="node">
<title>Node30</title>
<g id="a_node30"><a xlink:href="spec_2thrmask_8h.html" target="_top" xlink:title="ODP thread masks.">
<polygon fill="white" stroke="black" points="399,-319 399,-338 530,-338 530,-319 399,-319"/>
<text text-anchor="middle" x="464.5" y="-326" font-family="Helvetica,sans-Serif" font-size="10.00">odp/api/spec/thrmask.h</text>
</a>
</g>
</g>
<!-- Node28&#45;&gt;Node30 -->
<g id="edge46" class="edge">
<title>Node28&#45;&gt;Node30</title>
<path fill="none" stroke="midnightblue" d="M464.5,-385.73C464.5,-376.18 464.5,-360.62 464.5,-348.28"/>
<polygon fill="midnightblue" stroke="midnightblue" points="468,-348.13 464.5,-338.13 461,-348.13 468,-348.13"/>
</g>
<!-- Node30&#45;&gt;Node4 -->
<g id="edge47" class="edge">
<title>Node30&#45;&gt;Node4</title>
<path fill="none" stroke="midnightblue" d="M420.96,-318.94C349.68,-304.91 215.7,-278.4 213.5,-277 175.57,-252.83 153.5,-240.48 153.5,-195.5 153.5,-195.5 153.5,-195.5 153.5,-132 153.5,-67.21 231.82,-36.02 289.69,-21.82"/>
<polygon fill="midnightblue" stroke="midnightblue" points="290.57,-25.2 299.51,-19.52 288.98,-18.39 290.57,-25.2"/>
</g>
<!-- Node30&#45;&gt;Node8 -->
<g id="edge49" class="edge">
<title>Node30&#45;&gt;Node8</title>
<path fill="none" stroke="midnightblue" d="M501.08,-318.98C554.44,-304.84 653.84,-271.76 714.5,-210 744.19,-179.77 724.63,-154.02 753.5,-123 776.53,-98.26 794.51,-108.62 820.5,-87 840.94,-70 859.28,-45.23 870.38,-28.64"/>
<polygon fill="midnightblue" stroke="midnightblue" points="873.53,-30.22 876.05,-19.93 867.66,-26.4 873.53,-30.22"/>
</g>
<!-- Node30&#45;&gt;Node19 -->
<g id="edge48" class="edge">
<title>Node30&#45;&gt;Node19</title>
<path fill="none" stroke="midnightblue" d="M462.61,-318.73C460.53,-309.09 457.13,-293.3 454.46,-280.91"/>
<polygon fill="midnightblue" stroke="midnightblue" points="457.89,-280.17 452.36,-271.13 451.04,-281.64 457.89,-280.17"/>
</g>
</g>
</svg>
