<?xml version="1.0" encoding="UTF-8" standalone="no"?>
<!DOCTYPE svg PUBLIC "-//W3C//DTD SVG 1.1//EN"
 "http://www.w3.org/Graphics/SVG/1.1/DTD/svg11.dtd">
<!-- Generated by graphviz version 2.43.0 (0)
 -->
<!-- Title: queue.h Pages: 1 -->
<svg width="1156pt" height="764pt"
 viewBox="0.00 0.00 1155.50 764.00" xmlns="http://www.w3.org/2000/svg" xmlns:xlink="http://www.w3.org/1999/xlink">
<g id="graph0" class="graph" transform="scale(1 1) rotate(0) translate(4 760)">
<title>queue.h</title>
<!-- Node1 -->
<g id="Node000001" class="node">
<title>Node1</title>
<g id="a_Node000001"><a xlink:title="ODP queue.">
<polygon fill="#999999" stroke="#666666" points="151.5,-756 95.5,-756 95.5,-737 151.5,-737 151.5,-756"/>
<text text-anchor="middle" x="123.5" y="-744" font-family="Helvetica,sans-Serif" font-size="10.00">queue.h</text>
</a>
</g>
</g>
<!-- Node2 -->
<g id="Node000002" class="node">
<title>Node2</title>
<g id="a_Node000002"><a xlink:title=" ">
<polygon fill="#e0e0e0" stroke="#999999" points="113,-701 0,-701 0,-682 113,-682 113,-701"/>
<text text-anchor="middle" x="56.5" y="-689" font-family="Helvetica,sans-Serif" font-size="10.00">odp/api/abi/queue.h</text>
</a>
</g>
</g>
<!-- Node1&#45;&gt;Node2 -->
<g id="edge1_Node000001_Node000002" class="edge">
<title>Node1&#45;&gt;Node2</title>
<g id="a_edge1_Node000001_Node000002"><a xlink:title=" ">
<path fill="none" stroke="#63b8ff" d="M112.74,-736.98C102.73,-729.07 87.61,-717.11 75.57,-707.58"/>
<polygon fill="#63b8ff" stroke="#63b8ff" points="77.47,-704.63 67.46,-701.17 73.13,-710.12 77.47,-704.63"/>
</a>
</g>
</g>
<!-- Node3 -->
<g id="Node000003" class="node">
<title>Node3</title>
<g id="a_Node000003"><a xlink:href="spec_2queue_8h.html" target="_top" xlink:title="ODP queue.">
<polygon fill="white" stroke="#666666" points="251.5,-701 131.5,-701 131.5,-682 251.5,-682 251.5,-701"/>
<text text-anchor="middle" x="191.5" y="-689" font-family="Helvetica,sans-Serif" font-size="10.00">odp/api/spec/queue.h</text>
</a>
</g>
</g>
<!-- Node1&#45;&gt;Node3 -->
<g id="edge2_Node000001_Node000003" class="edge">
<title>Node1&#45;&gt;Node3</title>
<g id="a_edge2_Node000001_Node000003"><a xlink:title=" ">
<path fill="none" stroke="#63b8ff" d="M134.43,-736.98C144.58,-729.07 159.92,-717.11 172.15,-707.58"/>
<polygon fill="#63b8ff" stroke="#63b8ff" points="174.64,-710.08 180.38,-701.17 170.34,-704.56 174.64,-710.08"/>
</a>
</g>
</g>
<!-- Node4 -->
<g id="Node000004" class="node">
<title>Node4</title>
<g id="a_Node000004"><a xlink:title=" ">
<polygon fill="#e0e0e0" stroke="#999999" points="411,-19 290,-19 290,0 411,0 411,-19"/>
<text text-anchor="middle" x="350.5" y="-7" font-family="Helvetica,sans-Serif" font-size="10.00">odp/visibility_begin.h</text>
</a>
</g>
</g>
<!-- Node3&#45;&gt;Node4 -->
<g id="edge3_Node000003_Node000004" class="edge">
<title>Node3&#45;&gt;Node4</title>
<g id="a_edge3_Node000003_Node000004"><a xlink:title=" ">
<path fill="none" stroke="#63b8ff" d="M158.89,-681.99C114.23,-668.13 39.5,-636.12 39.5,-577 39.5,-577 39.5,-577 39.5,-129.5 39.5,-89.87 55.32,-76.67 88.5,-55 119.27,-34.9 213.22,-22.58 279.79,-16.15"/>
<polygon fill="#63b8ff" stroke="#63b8ff" points="280.19,-19.62 289.81,-15.2 279.53,-12.66 280.19,-19.62"/>
</a>
</g>
</g>
<!-- Node5 -->
<g id="Node000005" class="node">
<title>Node5</title>
<g id="a_Node000005"><a xlink:href="event__types_8h.html" target="_top" xlink:title="ODP event API type definitions.">
<polygon fill="white" stroke="#666666" points="348,-266.5 223,-266.5 223,-247.5 348,-247.5 348,-266.5"/>
<text text-anchor="middle" x="285.5" y="-254.5" font-family="Helvetica,sans-Serif" font-size="10.00">odp/api/event_types.h</text>
</a>
</g>
</g>
<!-- Node3&#45;&gt;Node5 -->
<g id="edge4_Node000003_Node000005" class="edge">
<title>Node3&#45;&gt;Node5</title>
<g id="a_edge4_Node000003_Node000005"><a xlink:title=" ">
<path fill="none" stroke="#63b8ff" d="M186.53,-682C176.23,-663.54 153.5,-618.14 153.5,-577 153.5,-577 153.5,-577 153.5,-388 153.5,-350.88 153.18,-336.05 177.5,-308 193.58,-289.45 218,-277.35 239.55,-269.71"/>
<polygon fill="#63b8ff" stroke="#63b8ff" points="240.82,-272.98 249.21,-266.5 238.61,-266.33 240.82,-272.98"/>
</a>
</g>
</g>
<!-- Node8 -->
<g id="Node000008" class="node">
<title>Node8</title>
<g id="a_Node000008"><a xlink:title=" ">
<polygon fill="#e0e0e0" stroke="#999999" points="937.5,-19 825.5,-19 825.5,0 937.5,0 937.5,-19"/>
<text text-anchor="middle" x="881.5" y="-7" font-family="Helvetica,sans-Serif" font-size="10.00">odp/visibility_end.h</text>
</a>
</g>
</g>
<!-- Node3&#45;&gt;Node8 -->
<g id="edge53_Node000003_Node000008" class="edge">
<title>Node3&#45;&gt;Node8</title>
<g id="a_edge53_Node000003_Node000008"><a xlink:title=" ">
<path fill="none" stroke="#63b8ff" d="M251.66,-689.71C461.38,-686.16 1147.5,-667.62 1147.5,-577 1147.5,-577 1147.5,-577 1147.5,-129.5 1147.5,-42.23 1026.72,-18.54 947.93,-12.37"/>
<polygon fill="#63b8ff" stroke="#63b8ff" points="947.81,-8.85 937.59,-11.64 947.32,-15.83 947.81,-8.85"/>
</a>
</g>
</g>
<!-- Node9 -->
<g id="Node000009" class="node">
<title>Node9</title>
<g id="a_Node000009"><a xlink:href="queue__types_8h.html" target="_top" xlink:title="ODP queue.">
<polygon fill="white" stroke="#666666" points="498,-646 371,-646 371,-627 498,-627 498,-646"/>
<text text-anchor="middle" x="434.5" y="-634" font-family="Helvetica,sans-Serif" font-size="10.00">odp/api/queue_types.h</text>
</a>
</g>
</g>
<!-- Node3&#45;&gt;Node9 -->
<g id="edge9_Node000003_Node000009" class="edge">
<title>Node3&#45;&gt;Node9</title>
<g id="a_edge9_Node000003_Node000009"><a xlink:title=" ">
<path fill="none" stroke="#63b8ff" d="M230.54,-681.98C272.58,-672.82 339.54,-658.21 385.18,-648.26"/>
<polygon fill="#63b8ff" stroke="#63b8ff" points="386.13,-651.63 395.15,-646.08 384.64,-644.79 386.13,-651.63"/>
</a>
</g>
</g>
<!-- Node19 -->
<g id="Node000019" class="node">
<title>Node19</title>
<g id="a_Node000019"><a xlink:href="std__types_8h.html" target="_top" xlink:title="Standard C language types and definitions for ODP.">
<polygon fill="white" stroke="#666666" points="506.5,-266.5 394.5,-266.5 394.5,-247.5 506.5,-247.5 506.5,-266.5"/>
<text text-anchor="middle" x="450.5" y="-254.5" font-family="Helvetica,sans-Serif" font-size="10.00">odp/api/std_types.h</text>
</a>
</g>
</g>
<!-- Node3&#45;&gt;Node19 -->
<g id="edge52_Node000003_Node000019" class="edge">
<title>Node3&#45;&gt;Node19</title>
<g id="a_edge52_Node000003_Node000019"><a xlink:title=" ">
<path fill="none" stroke="#63b8ff" d="M191.5,-681.96C191.5,-663.05 191.5,-616.21 191.5,-577 191.5,-577 191.5,-577 191.5,-388 191.5,-346.54 206.03,-332.48 239.5,-308 262.41,-291.24 331.53,-276.88 384.48,-267.9"/>
<polygon fill="#63b8ff" stroke="#63b8ff" points="385.21,-271.33 394.5,-266.24 384.06,-264.43 385.21,-271.33"/>
</a>
</g>
</g>
<!-- Node6 -->
<g id="Node000006" class="node">
<title>Node6</title>
<g id="a_Node000006"><a xlink:title=" ">
<polygon fill="#e0e0e0" stroke="#999999" points="325,-200.5 182,-200.5 182,-181.5 325,-181.5 325,-200.5"/>
<text text-anchor="middle" x="253.5" y="-188.5" font-family="Helvetica,sans-Serif" font-size="10.00">odp/api/abi/event_types.h</text>
</a>
</g>
</g>
<!-- Node5&#45;&gt;Node6 -->
<g id="edge5_Node000005_Node000006" class="edge">
<title>Node5&#45;&gt;Node6</title>
<g id="a_edge5_Node000005_Node000006"><a xlink:title=" ">
<path fill="none" stroke="#63b8ff" d="M281.18,-247.37C276.44,-237.88 268.68,-222.36 262.58,-210.16"/>
<polygon fill="#63b8ff" stroke="#63b8ff" points="265.56,-208.28 257.95,-200.91 259.29,-211.41 265.56,-208.28"/>
</a>
</g>
</g>
<!-- Node7 -->
<g id="Node000007" class="node">
<title>Node7</title>
<g id="a_Node000007"><a xlink:href="spec_2event__types_8h.html" target="_top" xlink:title="ODP event API type definitions.">
<polygon fill="white" stroke="#666666" points="405,-85 296,-85 296,-55 405,-55 405,-85"/>
<text text-anchor="start" x="304" y="-73" font-family="Helvetica,sans-Serif" font-size="10.00">odp/api/spec/event</text>
<text text-anchor="middle" x="350.5" y="-62" font-family="Helvetica,sans-Serif" font-size="10.00">_types.h</text>
</a>
</g>
</g>
<!-- Node5&#45;&gt;Node7 -->
<g id="edge6_Node000005_Node000007" class="edge">
<title>Node5&#45;&gt;Node7</title>
<g id="a_edge6_Node000005_Node000007"><a xlink:title=" ">
<path fill="none" stroke="#63b8ff" d="M297.62,-247.17C308.95,-238.18 325.31,-223.16 333.5,-206 350.56,-170.24 352.56,-123.38 351.92,-95.33"/>
<polygon fill="#63b8ff" stroke="#63b8ff" points="355.41,-95.08 351.55,-85.21 348.41,-95.34 355.41,-95.08"/>
</a>
</g>
</g>
<!-- Node7&#45;&gt;Node4 -->
<g id="edge7_Node000007_Node000004" class="edge">
<title>Node7&#45;&gt;Node4</title>
<g id="a_edge7_Node000007_Node000004"><a xlink:title=" ">
<path fill="none" stroke="#63b8ff" d="M350.5,-54.84C350.5,-47.21 350.5,-37.7 350.5,-29.45"/>
<polygon fill="#63b8ff" stroke="#63b8ff" points="354,-29.27 350.5,-19.27 347,-29.27 354,-29.27"/>
</a>
</g>
</g>
<!-- Node7&#45;&gt;Node8 -->
<g id="edge8_Node000007_Node000008" class="edge">
<title>Node7&#45;&gt;Node8</title>
<g id="a_edge8_Node000007_Node000008"><a xlink:title=" ">
<path fill="none" stroke="#63b8ff" d="M405.33,-62.96C503.54,-52.14 709.11,-29.49 815.12,-17.81"/>
<polygon fill="#63b8ff" stroke="#63b8ff" points="815.82,-21.26 825.38,-16.68 815.05,-14.3 815.82,-21.26"/>
</a>
</g>
</g>
<!-- Node10 -->
<g id="Node000010" class="node">
<title>Node10</title>
<g id="a_Node000010"><a xlink:title=" ">
<polygon fill="#e0e0e0" stroke="#999999" points="507,-585.5 362,-585.5 362,-566.5 507,-566.5 507,-585.5"/>
<text text-anchor="middle" x="434.5" y="-573.5" font-family="Helvetica,sans-Serif" font-size="10.00">odp/api/abi/queue_types.h</text>
</a>
</g>
</g>
<!-- Node9&#45;&gt;Node10 -->
<g id="edge10_Node000009_Node000010" class="edge">
<title>Node9&#45;&gt;Node10</title>
<g id="a_edge10_Node000009_Node000010"><a xlink:title=" ">
<path fill="none" stroke="#63b8ff" d="M434.5,-626.87C434.5,-618.75 434.5,-606.31 434.5,-595.89"/>
<polygon fill="#63b8ff" stroke="#63b8ff" points="438,-595.67 434.5,-585.67 431,-595.67 438,-595.67"/>
</a>
</g>
</g>
<!-- Node11 -->
<g id="Node000011" class="node">
<title>Node11</title>
<g id="a_Node000011"><a xlink:href="spec_2queue__types_8h.html" target="_top" xlink:title="ODP queue types.">
<polygon fill="white" stroke="#666666" points="730,-591 619,-591 619,-561 730,-561 730,-591"/>
<text text-anchor="start" x="627" y="-579" font-family="Helvetica,sans-Serif" font-size="10.00">odp/api/spec/queue</text>
<text text-anchor="middle" x="674.5" y="-568" font-family="Helvetica,sans-Serif" font-size="10.00">_types.h</text>
</a>
</g>
</g>
<!-- Node9&#45;&gt;Node11 -->
<g id="edge11_Node000009_Node000011" class="edge">
<title>Node9&#45;&gt;Node11</title>
<g id="a_edge11_Node000009_Node000011"><a xlink:title=" ">
<path fill="none" stroke="#63b8ff" d="M469.4,-626.99C505.78,-618.13 563.66,-604.02 608.67,-593.05"/>
<polygon fill="#63b8ff" stroke="#63b8ff" points="609.76,-596.38 618.65,-590.61 608.1,-589.58 609.76,-596.38"/>
</a>
</g>
</g>
<!-- Node11&#45;&gt;Node4 -->
<g id="edge12_Node000011_Node000004" class="edge">
<title>Node11&#45;&gt;Node4</title>
<g id="a_edge12_Node000011_Node000004"><a xlink:title=" ">
<path fill="none" stroke="#63b8ff" d="M618.87,-564.06C470.67,-533.33 77.5,-440.79 77.5,-324 77.5,-324 77.5,-324 77.5,-129.5 77.5,-41.24 198.88,-17.78 279.77,-11.94"/>
<polygon fill="#63b8ff" stroke="#63b8ff" points="280.16,-15.42 289.91,-11.28 279.71,-8.43 280.16,-15.42"/>
</a>
</g>
</g>
<!-- Node11&#45;&gt;Node8 -->
<g id="edge51_Node000011_Node000008" class="edge">
<title>Node11&#45;&gt;Node8</title>
<g id="a_edge51_Node000011_Node000008"><a xlink:title=" ">
<path fill="none" stroke="#63b8ff" d="M730.03,-571.48C847.31,-562.53 1109.5,-533.81 1109.5,-456 1109.5,-456 1109.5,-456 1109.5,-129.5 1109.5,-55.92 1015.02,-27.76 947.7,-17.03"/>
<polygon fill="#63b8ff" stroke="#63b8ff" points="947.98,-13.53 937.57,-15.52 946.94,-20.46 947.98,-13.53"/>
</a>
</g>
</g>
<!-- Node12 -->
<g id="Node000012" class="node">
<title>Node12</title>
<g id="a_Node000012"><a xlink:href="event__vector__types_8h.html" target="_top" xlink:title="ODP event vector API type definitions.">
<polygon fill="white" stroke="#666666" points="871,-404 752,-404 752,-374 871,-374 871,-404"/>
<text text-anchor="start" x="760" y="-392" font-family="Helvetica,sans-Serif" font-size="10.00">odp/api/event_vector</text>
<text text-anchor="middle" x="811.5" y="-381" font-family="Helvetica,sans-Serif" font-size="10.00">_types.h</text>
</a>
</g>
</g>
<!-- Node11&#45;&gt;Node12 -->
<g id="edge13_Node000011_Node000012" class="edge">
<title>Node11&#45;&gt;Node12</title>
<g id="a_edge13_Node000011_Node000012"><a xlink:title=" ">
<path fill="none" stroke="#63b8ff" d="M696.46,-560.88C709.49,-551.75 725.71,-538.98 737.5,-525 766.81,-490.25 789.84,-442.07 802,-413.66"/>
<polygon fill="#63b8ff" stroke="#63b8ff" points="805.35,-414.72 805.98,-404.14 798.89,-412.02 805.35,-414.72"/>
</a>
</g>
</g>
<!-- Node16 -->
<g id="Node000016" class="node">
<title>Node16</title>
<g id="a_Node000016"><a xlink:href="queue__stats__types_8h.html" target="_top" xlink:title="ODP queue.">
<polygon fill="white" stroke="#666666" points="915,-272 800,-272 800,-242 915,-242 915,-272"/>
<text text-anchor="start" x="808" y="-260" font-family="Helvetica,sans-Serif" font-size="10.00">odp/api/queue_stats</text>
<text text-anchor="middle" x="857.5" y="-249" font-family="Helvetica,sans-Serif" font-size="10.00">_types.h</text>
</a>
</g>
</g>
<!-- Node11&#45;&gt;Node16 -->
<g id="edge36_Node000011_Node000016" class="edge">
<title>Node11&#45;&gt;Node16</title>
<g id="a_edge36_Node000011_Node000016"><a xlink:title=" ">
<path fill="none" stroke="#63b8ff" d="M684.65,-560.76C699.01,-539.18 723.5,-496.44 723.5,-456 723.5,-456 723.5,-456 723.5,-388 723.5,-351.35 719.86,-336 743.5,-308 755.73,-293.51 772.98,-283.08 790.35,-275.63"/>
<polygon fill="#63b8ff" stroke="#63b8ff" points="792,-278.74 799.99,-271.79 789.41,-272.24 792,-278.74"/>
</a>
</g>
</g>
<!-- Node25 -->
<g id="Node000025" class="node">
<title>Node25</title>
<g id="a_Node000025"><a xlink:href="schedule__types_8h.html" target="_top" xlink:title="ODP schedule.">
<polygon fill="white" stroke="#666666" points="695.5,-525 555.5,-525 555.5,-506 695.5,-506 695.5,-525"/>
<text text-anchor="middle" x="625.5" y="-513" font-family="Helvetica,sans-Serif" font-size="10.00">odp/api/schedule_types.h</text>
</a>
</g>
</g>
<!-- Node11&#45;&gt;Node25 -->
<g id="edge37_Node000011_Node000025" class="edge">
<title>Node11&#45;&gt;Node25</title>
<g id="a_edge37_Node000011_Node000025"><a xlink:title=" ">
<path fill="none" stroke="#63b8ff" d="M662.64,-560.84C655.6,-552.43 646.64,-541.74 639.29,-532.96"/>
<polygon fill="#63b8ff" stroke="#63b8ff" points="641.95,-530.68 632.84,-525.27 636.58,-535.18 641.95,-530.68"/>
</a>
</g>
</g>
<!-- Node13 -->
<g id="Node000013" class="node">
<title>Node13</title>
<g id="a_Node000013"><a xlink:title=" ">
<polygon fill="#e0e0e0" stroke="#999999" points="889,-338 752,-338 752,-308 889,-308 889,-338"/>
<text text-anchor="start" x="760" y="-326" font-family="Helvetica,sans-Serif" font-size="10.00">odp/api/abi/event_vector</text>
<text text-anchor="middle" x="820.5" y="-315" font-family="Helvetica,sans-Serif" font-size="10.00">_types.h</text>
</a>
</g>
</g>
<!-- Node12&#45;&gt;Node13 -->
<g id="edge14_Node000012_Node000013" class="edge">
<title>Node12&#45;&gt;Node13</title>
<g id="a_edge14_Node000012_Node000013"><a xlink:title=" ">
<path fill="none" stroke="#63b8ff" d="M813.5,-373.8C814.56,-366.26 815.89,-356.78 817.11,-348.13"/>
<polygon fill="#63b8ff" stroke="#63b8ff" points="820.58,-348.55 818.51,-338.16 813.65,-347.58 820.58,-348.55"/>
</a>
</g>
</g>
<!-- Node14 -->
<g id="Node000014" class="node">
<title>Node14</title>
<g id="a_Node000014"><a xlink:title=" ">
<polygon fill="#e0e0e0" stroke="#999999" points="1043.5,-332.5 907.5,-332.5 907.5,-313.5 1043.5,-313.5 1043.5,-332.5"/>
<text text-anchor="middle" x="975.5" y="-320.5" font-family="Helvetica,sans-Serif" font-size="10.00">odp/api/abi/pool_types.h</text>
</a>
</g>
</g>
<!-- Node12&#45;&gt;Node14 -->
<g id="edge15_Node000012_Node000014" class="edge">
<title>Node12&#45;&gt;Node14</title>
<g id="a_edge15_Node000012_Node000014"><a xlink:title=" ">
<path fill="none" stroke="#63b8ff" d="M847.49,-373.95C876.38,-362.68 916.53,-347.01 944.12,-336.25"/>
<polygon fill="#63b8ff" stroke="#63b8ff" points="945.63,-339.41 953.67,-332.52 943.09,-332.89 945.63,-339.41"/>
</a>
</g>
</g>
<!-- Node15 -->
<g id="Node000015" class="node">
<title>Node15</title>
<g id="a_Node000015"><a xlink:href="spec_2event__vector__types_8h.html" target="_top" xlink:title="ODP event vector API type definitions.">
<polygon fill="white" stroke="#666666" points="657,-338 548,-338 548,-308 657,-308 657,-338"/>
<text text-anchor="start" x="556" y="-326" font-family="Helvetica,sans-Serif" font-size="10.00">odp/api/spec/event</text>
<text text-anchor="middle" x="602.5" y="-315" font-family="Helvetica,sans-Serif" font-size="10.00">_vector_types.h</text>
</a>
</g>
</g>
<!-- Node12&#45;&gt;Node15 -->
<g id="edge16_Node000012_Node000015" class="edge">
<title>Node12&#45;&gt;Node15</title>
<g id="a_edge16_Node000012_Node000015"><a xlink:title=" ">
<path fill="none" stroke="#63b8ff" d="M765.63,-373.95C733.92,-364.24 691.55,-351.27 657.94,-340.98"/>
<polygon fill="#63b8ff" stroke="#63b8ff" points="658.85,-337.59 648.26,-338.01 656.8,-344.29 658.85,-337.59"/>
</a>
</g>
</g>
<!-- Node15&#45;&gt;Node4 -->
<g id="edge17_Node000015_Node000004" class="edge">
<title>Node15&#45;&gt;Node4</title>
<g id="a_edge17_Node000015_Node000004"><a xlink:title=" ">
<path fill="none" stroke="#63b8ff" d="M595.75,-307.72C582.79,-280.87 552.84,-221.5 520.5,-176 478.91,-117.49 466.95,-102.92 413.5,-55 400.9,-43.71 385.4,-32.72 372.92,-24.49"/>
<polygon fill="#63b8ff" stroke="#63b8ff" points="374.75,-21.51 364.45,-19.02 370.95,-27.39 374.75,-21.51"/>
</a>
</g>
</g>
<!-- Node15&#45;&gt;Node5 -->
<g id="edge18_Node000015_Node000005" class="edge">
<title>Node15&#45;&gt;Node5</title>
<g id="a_edge18_Node000015_Node000005"><a xlink:title=" ">
<path fill="none" stroke="#63b8ff" d="M547.88,-309.78C545.05,-309.17 542.24,-308.57 539.5,-308 471.04,-293.66 391.95,-278.28 340.45,-268.42"/>
<polygon fill="#63b8ff" stroke="#63b8ff" points="341.01,-264.96 330.53,-266.52 339.7,-271.84 341.01,-264.96"/>
</a>
</g>
</g>
<!-- Node15&#45;&gt;Node8 -->
<g id="edge35_Node000015_Node000008" class="edge">
<title>Node15&#45;&gt;Node8</title>
<g id="a_edge35_Node000015_Node000008"><a xlink:title=" ">
<path fill="none" stroke="#63b8ff" d="M657.32,-313.68C686.94,-306.79 722.45,-294.32 747.5,-272 782.82,-240.52 767.62,-215.6 793.5,-176 805.05,-158.33 812.13,-157.11 824.5,-140 841.19,-116.89 845.72,-110.96 857.5,-85 865.91,-66.48 872.69,-44.15 876.87,-28.8"/>
<polygon fill="#63b8ff" stroke="#63b8ff" points="880.29,-29.56 879.44,-19 873.52,-27.78 880.29,-29.56"/>
</a>
</g>
</g>
<!-- Node15&#45;&gt;Node16 -->
<g id="edge19_Node000015_Node000016" class="edge">
<title>Node15&#45;&gt;Node16</title>
<g id="a_edge19_Node000015_Node000016"><a xlink:title=" ">
<path fill="none" stroke="#63b8ff" d="M657.2,-308.27C696.63,-298.38 750.02,-284.98 791.76,-274.5"/>
<polygon fill="#63b8ff" stroke="#63b8ff" points="792.72,-277.87 801.57,-272.04 791.01,-271.08 792.72,-277.87"/>
</a>
</g>
</g>
<!-- Node15&#45;&gt;Node19 -->
<g id="edge24_Node000015_Node000019" class="edge">
<title>Node15&#45;&gt;Node19</title>
<g id="a_edge24_Node000015_Node000019"><a xlink:title=" ">
<path fill="none" stroke="#63b8ff" d="M569.14,-307.95C542.6,-296.78 505.81,-281.29 480.26,-270.53"/>
<polygon fill="#63b8ff" stroke="#63b8ff" points="481.3,-267.17 470.73,-266.52 478.59,-273.62 481.3,-267.17"/>
</a>
</g>
</g>
<!-- Node17 -->
<g id="Node000017" class="node">
<title>Node17</title>
<g id="a_Node000017"><a xlink:href="spec_2queue__stats__types_8h.html" target="_top" xlink:title="ODP queue statistics types.">
<polygon fill="white" stroke="#666666" points="913,-206 802,-206 802,-176 913,-176 913,-206"/>
<text text-anchor="start" x="810" y="-194" font-family="Helvetica,sans-Serif" font-size="10.00">odp/api/spec/queue</text>
<text text-anchor="middle" x="857.5" y="-183" font-family="Helvetica,sans-Serif" font-size="10.00">_stats_types.h</text>
</a>
</g>
</g>
<!-- Node16&#45;&gt;Node17 -->
<g id="edge20_Node000016_Node000017" class="edge">
<title>Node16&#45;&gt;Node17</title>
<g id="a_edge20_Node000016_Node000017"><a xlink:title=" ">
<path fill="none" stroke="#63b8ff" d="M857.5,-241.8C857.5,-234.34 857.5,-224.99 857.5,-216.41"/>
<polygon fill="#63b8ff" stroke="#63b8ff" points="861,-216.16 857.5,-206.16 854,-216.16 861,-216.16"/>
</a>
</g>
</g>
<!-- Node17&#45;&gt;Node4 -->
<g id="edge21_Node000017_Node000004" class="edge">
<title>Node17&#45;&gt;Node4</title>
<g id="a_edge21_Node000017_Node000004"><a xlink:title=" ">
<path fill="none" stroke="#63b8ff" d="M854.63,-175.75C850.66,-159.9 841.93,-134.71 824.5,-121 763.81,-73.24 724.42,-117.79 654.5,-85 635.02,-75.86 636.17,-63.72 616.5,-55 554.03,-27.33 476.36,-16.74 421.1,-12.76"/>
<polygon fill="#63b8ff" stroke="#63b8ff" points="421.27,-9.26 411.06,-12.09 420.8,-16.25 421.27,-9.26"/>
</a>
</g>
</g>
<!-- Node17&#45;&gt;Node8 -->
<g id="edge23_Node000017_Node000008" class="edge">
<title>Node17&#45;&gt;Node8</title>
<g id="a_edge23_Node000017_Node000008"><a xlink:title=" ">
<path fill="none" stroke="#63b8ff" d="M872.38,-175.77C880.95,-166.51 890.91,-153.64 895.5,-140 908.32,-101.93 896.61,-54.35 888.24,-28.78"/>
<polygon fill="#63b8ff" stroke="#63b8ff" points="891.52,-27.56 884.94,-19.26 884.91,-29.85 891.52,-27.56"/>
</a>
</g>
</g>
<!-- Node18 -->
<g id="Node000018" class="node">
<title>Node18</title>
<g id="a_Node000018"><a xlink:title=" ">
<polygon fill="#e0e0e0" stroke="#999999" points="815,-140 762,-140 762,-121 815,-121 815,-140"/>
<text text-anchor="middle" x="788.5" y="-128" font-family="Helvetica,sans-Serif" font-size="10.00">stdint.h</text>
</a>
</g>
</g>
<!-- Node17&#45;&gt;Node18 -->
<g id="edge22_Node000017_Node000018" class="edge">
<title>Node17&#45;&gt;Node18</title>
<g id="a_edge22_Node000017_Node000018"><a xlink:title=" ">
<path fill="none" stroke="#63b8ff" d="M840.8,-175.84C830.47,-167.09 817.22,-155.85 806.64,-146.88"/>
<polygon fill="#63b8ff" stroke="#63b8ff" points="808.73,-144.06 798.84,-140.27 804.2,-149.4 808.73,-144.06"/>
</a>
</g>
</g>
<!-- Node20 -->
<g id="Node000020" class="node">
<title>Node20</title>
<g id="a_Node000020"><a xlink:title=" ">
<polygon fill="#e0e0e0" stroke="#999999" points="511.5,-200.5 381.5,-200.5 381.5,-181.5 511.5,-181.5 511.5,-200.5"/>
<text text-anchor="middle" x="446.5" y="-188.5" font-family="Helvetica,sans-Serif" font-size="10.00">odp/api/abi/std_types.h</text>
</a>
</g>
</g>
<!-- Node19&#45;&gt;Node20 -->
<g id="edge25_Node000019_Node000020" class="edge">
<title>Node19&#45;&gt;Node20</title>
<g id="a_edge25_Node000019_Node000020"><a xlink:title=" ">
<path fill="none" stroke="#63b8ff" d="M449.96,-247.37C449.38,-238.07 448.44,-222.98 447.68,-210.9"/>
<polygon fill="#63b8ff" stroke="#63b8ff" points="451.17,-210.67 447.06,-200.91 444.19,-211.1 451.17,-210.67"/>
</a>
</g>
</g>
<!-- Node21 -->
<g id="Node000021" class="node">
<title>Node21</title>
<g id="a_Node000021"><a xlink:href="spec_2std__types_8h.html" target="_top" xlink:title="Common types and definitions for ODP API files.">
<polygon fill="white" stroke="#666666" points="705,-200.5 568,-200.5 568,-181.5 705,-181.5 705,-200.5"/>
<text text-anchor="middle" x="636.5" y="-188.5" font-family="Helvetica,sans-Serif" font-size="10.00">odp/api/spec/std_types.h</text>
</a>
</g>
</g>
<!-- Node19&#45;&gt;Node21 -->
<g id="edge26_Node000019_Node000021" class="edge">
<title>Node19&#45;&gt;Node21</title>
<g id="a_edge26_Node000019_Node000021"><a xlink:title=" ">
<path fill="none" stroke="#63b8ff" d="M475.58,-247.37C508.12,-236.17 565.05,-216.58 601.74,-203.96"/>
<polygon fill="#63b8ff" stroke="#63b8ff" points="603.2,-207.16 611.52,-200.6 600.92,-200.54 603.2,-207.16"/>
</a>
</g>
</g>
<!-- Node21&#45;&gt;Node4 -->
<g id="edge27_Node000021_Node000004" class="edge">
<title>Node21&#45;&gt;Node4</title>
<g id="a_edge27_Node000021_Node000004"><a xlink:title=" ">
<path fill="none" stroke="#63b8ff" d="M624.68,-181.36C586.26,-153.29 466.21,-65.84 447.5,-55 426.24,-42.68 400.98,-31.19 381.57,-22.97"/>
<polygon fill="#63b8ff" stroke="#63b8ff" points="382.86,-19.71 372.28,-19.09 380.16,-26.17 382.86,-19.71"/>
</a>
</g>
</g>
<!-- Node21&#45;&gt;Node8 -->
<g id="edge34_Node000021_Node000008" class="edge">
<title>Node21&#45;&gt;Node8</title>
<g id="a_edge34_Node000021_Node000008"><a xlink:title=" ">
<path fill="none" stroke="#63b8ff" d="M645.72,-181.27C660.54,-167.49 690.91,-140.28 719.5,-121 747.53,-102.1 758.21,-103.5 786.5,-85 814.95,-66.4 845.48,-41.47 864.03,-25.69"/>
<polygon fill="#63b8ff" stroke="#63b8ff" points="866.36,-28.31 871.67,-19.14 861.8,-23 866.36,-28.31"/>
</a>
</g>
</g>
<!-- Node21&#45;&gt;Node18 -->
<g id="edge28_Node000021_Node000018" class="edge">
<title>Node21&#45;&gt;Node18</title>
<g id="a_edge28_Node000021_Node000018"><a xlink:title=" ">
<path fill="none" stroke="#63b8ff" d="M658.6,-181.49C684.49,-171.53 727.58,-154.95 756.97,-143.63"/>
<polygon fill="#63b8ff" stroke="#63b8ff" points="758.3,-146.88 766.37,-140.02 755.78,-140.34 758.3,-146.88"/>
</a>
</g>
</g>
<!-- Node22 -->
<g id="Node000022" class="node">
<title>Node22</title>
<g id="a_Node000022"><a xlink:href="align_8h.html" target="_top" xlink:title="ODP alignments.">
<polygon fill="white" stroke="#666666" points="667,-140 578,-140 578,-121 667,-121 667,-140"/>
<text text-anchor="middle" x="622.5" y="-128" font-family="Helvetica,sans-Serif" font-size="10.00">odp/api/align.h</text>
</a>
</g>
</g>
<!-- Node21&#45;&gt;Node22 -->
<g id="edge29_Node000021_Node000022" class="edge">
<title>Node21&#45;&gt;Node22</title>
<g id="a_edge29_Node000021_Node000022"><a xlink:title=" ">
<path fill="none" stroke="#63b8ff" d="M634.43,-181.37C632.47,-173.16 629.45,-160.54 626.94,-150.05"/>
<polygon fill="#63b8ff" stroke="#63b8ff" points="630.31,-149.08 624.57,-140.17 623.5,-150.71 630.31,-149.08"/>
</a>
</g>
</g>
<!-- Node23 -->
<g id="Node000023" class="node">
<title>Node23</title>
<g id="a_Node000023"><a xlink:title=" ">
<polygon fill="#e0e0e0" stroke="#999999" points="607,-79.5 500,-79.5 500,-60.5 607,-60.5 607,-79.5"/>
<text text-anchor="middle" x="553.5" y="-67.5" font-family="Helvetica,sans-Serif" font-size="10.00">odp/api/abi/align.h</text>
</a>
</g>
</g>
<!-- Node22&#45;&gt;Node23 -->
<g id="edge30_Node000022_Node000023" class="edge">
<title>Node22&#45;&gt;Node23</title>
<g id="a_edge30_Node000022_Node000023"><a xlink:title=" ">
<path fill="none" stroke="#63b8ff" d="M612.32,-120.87C601.62,-111.8 584.56,-97.34 571.57,-86.32"/>
<polygon fill="#63b8ff" stroke="#63b8ff" points="573.61,-83.46 563.72,-79.67 569.09,-88.8 573.61,-83.46"/>
</a>
</g>
</g>
<!-- Node24 -->
<g id="Node000024" class="node">
<title>Node24</title>
<g id="a_Node000024"><a xlink:href="spec_2align_8h.html" target="_top" xlink:title="ODP alignments.">
<polygon fill="white" stroke="#666666" points="777.5,-79.5 663.5,-79.5 663.5,-60.5 777.5,-60.5 777.5,-79.5"/>
<text text-anchor="middle" x="720.5" y="-67.5" font-family="Helvetica,sans-Serif" font-size="10.00">odp/api/spec/align.h</text>
</a>
</g>
</g>
<!-- Node22&#45;&gt;Node24 -->
<g id="edge31_Node000022_Node000024" class="edge">
<title>Node22&#45;&gt;Node24</title>
<g id="a_edge31_Node000022_Node000024"><a xlink:title=" ">
<path fill="none" stroke="#63b8ff" d="M636.96,-120.87C652.81,-111.41 678.47,-96.09 697.18,-84.92"/>
<polygon fill="#63b8ff" stroke="#63b8ff" points="699.19,-87.8 705.98,-79.67 695.6,-81.79 699.19,-87.8"/>
</a>
</g>
</g>
<!-- Node24&#45;&gt;Node4 -->
<g id="edge32_Node000024_Node000004" class="edge">
<title>Node24&#45;&gt;Node4</title>
<g id="a_edge32_Node000024_Node000004"><a xlink:title=" ">
<path fill="none" stroke="#63b8ff" d="M678.89,-60.46C669.25,-58.57 659.03,-56.65 649.5,-55 571.65,-41.54 481.96,-28.52 421.28,-20.08"/>
<polygon fill="#63b8ff" stroke="#63b8ff" points="421.44,-16.57 411.05,-18.66 420.48,-23.5 421.44,-16.57"/>
</a>
</g>
</g>
<!-- Node24&#45;&gt;Node8 -->
<g id="edge33_Node000024_Node000008" class="edge">
<title>Node24&#45;&gt;Node8</title>
<g id="a_edge33_Node000024_Node000008"><a xlink:title=" ">
<path fill="none" stroke="#63b8ff" d="M743.91,-60.49C771.45,-50.49 817.37,-33.8 848.51,-22.49"/>
<polygon fill="#63b8ff" stroke="#63b8ff" points="849.86,-25.72 858.06,-19.02 847.47,-19.14 849.86,-25.72"/>
</a>
</g>
</g>
<!-- Node26 -->
<g id="Node000026" class="node">
<title>Node26</title>
<g id="a_Node000026"><a xlink:title=" ">
<polygon fill="#e0e0e0" stroke="#999999" points="549,-470 432,-470 432,-440 549,-440 549,-470"/>
<text text-anchor="start" x="440" y="-458" font-family="Helvetica,sans-Serif" font-size="10.00">odp/api/abi/schedule</text>
<text text-anchor="middle" x="490.5" y="-447" font-family="Helvetica,sans-Serif" font-size="10.00">_types.h</text>
</a>
</g>
</g>
<!-- Node25&#45;&gt;Node26 -->
<g id="edge38_Node000025_Node000026" class="edge">
<title>Node25&#45;&gt;Node26</title>
<g id="a_edge38_Node000025_Node000026"><a xlink:title=" ">
<path fill="none" stroke="#63b8ff" d="M605.87,-505.99C586.7,-497.68 556.9,-484.78 532.4,-474.16"/>
<polygon fill="#63b8ff" stroke="#63b8ff" points="533.52,-470.83 522.96,-470.06 530.74,-477.25 533.52,-470.83"/>
</a>
</g>
</g>
<!-- Node27 -->
<g id="Node000027" class="node">
<title>Node27</title>
<g id="a_Node000027"><a xlink:href="spec_2schedule__types_8h.html" target="_top" xlink:title="ODP schedule types.">
<polygon fill="white" stroke="#666666" points="692,-470 567,-470 567,-440 692,-440 692,-470"/>
<text text-anchor="start" x="575" y="-458" font-family="Helvetica,sans-Serif" font-size="10.00">odp/api/spec/schedule</text>
<text text-anchor="middle" x="629.5" y="-447" font-family="Helvetica,sans-Serif" font-size="10.00">_types.h</text>
</a>
</g>
</g>
<!-- Node25&#45;&gt;Node27 -->
<g id="edge39_Node000025_Node000027" class="edge">
<title>Node25&#45;&gt;Node27</title>
<g id="a_edge39_Node000025_Node000027"><a xlink:title=" ">
<path fill="none" stroke="#63b8ff" d="M626.09,-505.87C626.55,-499.11 627.22,-489.35 627.84,-480.26"/>
<polygon fill="#63b8ff" stroke="#63b8ff" points="631.34,-480.33 628.53,-470.11 624.36,-479.85 631.34,-480.33"/>
</a>
</g>
</g>
<!-- Node27&#45;&gt;Node4 -->
<g id="edge40_Node000027_Node000004" class="edge">
<title>Node27&#45;&gt;Node4</title>
<g id="a_edge40_Node000027_Node000004"><a xlink:title=" ">
<path fill="none" stroke="#63b8ff" d="M566.82,-441.41C564.01,-440.92 561.23,-440.45 558.5,-440 458.07,-423.59 115.5,-425.76 115.5,-324 115.5,-324 115.5,-324 115.5,-129.5 115.5,-54.97 210.75,-27.1 279.97,-16.69"/>
<polygon fill="#63b8ff" stroke="#63b8ff" points="280.57,-20.14 289.98,-15.28 279.59,-13.21 280.57,-20.14"/>
</a>
</g>
</g>
<!-- Node27&#45;&gt;Node8 -->
<g id="edge50_Node000027_Node000008" class="edge">
<title>Node27&#45;&gt;Node8</title>
<g id="a_edge50_Node000027_Node000008"><a xlink:title=" ">
<path fill="none" stroke="#63b8ff" d="M692.36,-448.7C814.39,-436.68 1071.5,-402.09 1071.5,-324 1071.5,-324 1071.5,-324 1071.5,-129.5 1071.5,-66.53 995.61,-35.62 939.76,-21.4"/>
<polygon fill="#63b8ff" stroke="#63b8ff" points="940.48,-17.98 929.94,-19.02 938.83,-24.78 940.48,-17.98"/>
</a>
</g>
</g>
<!-- Node27&#45;&gt;Node12 -->
<g id="edge41_Node000027_Node000012" class="edge">
<title>Node27&#45;&gt;Node12</title>
<g id="a_edge41_Node000027_Node000012"><a xlink:title=" ">
<path fill="none" stroke="#63b8ff" d="M669.44,-439.95C696.7,-430.37 733.01,-417.6 762.09,-407.37"/>
<polygon fill="#63b8ff" stroke="#63b8ff" points="763.38,-410.63 771.65,-404.01 761.06,-404.03 763.38,-410.63"/>
</a>
</g>
</g>
<!-- Node27&#45;&gt;Node16 -->
<g id="edge42_Node000027_Node000016" class="edge">
<title>Node27&#45;&gt;Node16</title>
<g id="a_edge42_Node000027_Node000016"><a xlink:title=" ">
<path fill="none" stroke="#63b8ff" d="M633.47,-439.7C642.26,-410.64 666.09,-344.39 709.5,-308 722.69,-296.94 759.21,-284.55 792.66,-274.87"/>
<polygon fill="#63b8ff" stroke="#63b8ff" points="793.79,-278.19 802.45,-272.09 791.88,-271.46 793.79,-278.19"/>
</a>
</g>
</g>
<!-- Node27&#45;&gt;Node19 -->
<g id="edge43_Node000027_Node000019" class="edge">
<title>Node27&#45;&gt;Node19</title>
<g id="a_edge43_Node000027_Node000019"><a xlink:title=" ">
<path fill="none" stroke="#63b8ff" d="M566.91,-441.59C510.7,-430.19 432.56,-413.66 402.5,-404 331.6,-381.22 289.49,-400.17 248.5,-338 241.16,-326.87 240.28,-318.5 248.5,-308 257.56,-296.43 336.72,-279.36 393.2,-268.47"/>
<polygon fill="#63b8ff" stroke="#63b8ff" points="393.95,-271.89 403.11,-266.57 392.63,-265.01 393.95,-271.89"/>
</a>
</g>
</g>
<!-- Node28 -->
<g id="Node000028" class="node">
<title>Node28</title>
<g id="a_Node000028"><a xlink:href="thrmask_8h.html" target="_top" xlink:title="ODP thread masks.">
<polygon fill="white" stroke="#666666" points="517,-398.5 412,-398.5 412,-379.5 517,-379.5 517,-398.5"/>
<text text-anchor="middle" x="464.5" y="-386.5" font-family="Helvetica,sans-Serif" font-size="10.00">odp/api/thrmask.h</text>
</a>
</g>
</g>
<!-- Node27&#45;&gt;Node28 -->
<g id="edge44_Node000027_Node000028" class="edge">
<title>Node27&#45;&gt;Node28</title>
<g id="a_edge44_Node000027_Node000028"><a xlink:title=" ">
<path fill="none" stroke="#63b8ff" d="M593.29,-439.95C564.23,-428.68 523.83,-413.01 496.07,-402.25"/>
<polygon fill="#63b8ff" stroke="#63b8ff" points="497.05,-398.87 486.46,-398.52 494.52,-405.4 497.05,-398.87"/>
</a>
</g>
</g>
<!-- Node29 -->
<g id="Node000029" class="node">
<title>Node29</title>
<g id="a_Node000029"><a xlink:title=" ">
<polygon fill="#e0e0e0" stroke="#999999" points="381,-332.5 258,-332.5 258,-313.5 381,-313.5 381,-332.5"/>
<text text-anchor="middle" x="319.5" y="-320.5" font-family="Helvetica,sans-Serif" font-size="10.00">odp/api/abi/thrmask.h</text>
</a>
</g>
</g>
<!-- Node28&#45;&gt;Node29 -->
<g id="edge45_Node000028_Node000029" class="edge">
<title>Node28&#45;&gt;Node29</title>
<g id="a_edge45_Node000028_Node000029"><a xlink:title=" ">
<path fill="none" stroke="#63b8ff" d="M444.94,-379.37C420.19,-368.44 377.33,-349.52 348.69,-336.88"/>
<polygon fill="#63b8ff" stroke="#63b8ff" points="349.77,-333.54 339.21,-332.7 346.94,-339.94 349.77,-333.54"/>
</a>
</g>
</g>
<!-- Node30 -->
<g id="Node000030" class="node">
<title>Node30</title>
<g id="a_Node000030"><a xlink:href="spec_2thrmask_8h.html" target="_top" xlink:title="ODP thread masks.">
<polygon fill="white" stroke="#666666" points="530,-332.5 399,-332.5 399,-313.5 530,-313.5 530,-332.5"/>
<text text-anchor="middle" x="464.5" y="-320.5" font-family="Helvetica,sans-Serif" font-size="10.00">odp/api/spec/thrmask.h</text>
</a>
</g>
</g>
<!-- Node28&#45;&gt;Node30 -->
<g id="edge46_Node000028_Node000030" class="edge">
<title>Node28&#45;&gt;Node30</title>
<g id="a_edge46_Node000028_Node000030"><a xlink:title=" ">
<path fill="none" stroke="#63b8ff" d="M464.5,-379.37C464.5,-370.16 464.5,-355.29 464.5,-343.27"/>
<polygon fill="#63b8ff" stroke="#63b8ff" points="468,-342.91 464.5,-332.91 461,-342.91 468,-342.91"/>
</a>
</g>
</g>
<!-- Node30&#45;&gt;Node4 -->
<g id="edge47_Node000030_Node000004" class="edge">
<title>Node30&#45;&gt;Node4</title>
<g id="a_edge47_Node000030_Node000004"><a xlink:title=" ">
<path fill="none" stroke="#63b8ff" d="M419.44,-313.45C348.39,-299.9 217.87,-274.75 213.5,-272 175.89,-248.32 153.5,-236.44 153.5,-192 153.5,-192 153.5,-192 153.5,-129.5 153.5,-65.76 229.99,-35.25 287.65,-21.31"/>
<polygon fill="#63b8ff" stroke="#63b8ff" points="288.49,-24.7 297.45,-19.05 286.92,-17.88 288.49,-24.7"/>
</a>
</g>
</g>
<!-- Node30&#45;&gt;Node8 -->
<g id="edge49_Node000030_Node000008" class="edge">
<title>Node30&#45;&gt;Node8</title>
<g id="a_edge49_Node000030_Node000008"><a xlink:title=" ">
<path fill="none" stroke="#63b8ff" d="M501.9,-313.42C555.37,-299.4 653.9,-266.86 714.5,-206 743.83,-176.55 725.05,-151.3 753.5,-121 776.64,-96.36 794.4,-106.49 820.5,-85 840.78,-68.3 859.15,-44.03 870.31,-27.77"/>
<polygon fill="#63b8ff" stroke="#63b8ff" points="873.36,-29.51 876.01,-19.25 867.54,-25.62 873.36,-29.51"/>
</a>
</g>
</g>
<!-- Node30&#45;&gt;Node19 -->
<g id="edge48_Node000030_Node000019" class="edge">
<title>Node30&#45;&gt;Node19</title>
<g id="a_edge48_Node000030_Node000019"><a xlink:title=" ">
<path fill="none" stroke="#63b8ff" d="M462.61,-313.37C460.58,-304.07 457.28,-288.98 454.63,-276.9"/>
<polygon fill="#63b8ff" stroke="#63b8ff" points="458,-275.93 452.45,-266.91 451.17,-277.42 458,-275.93"/>
</a>
</g>
</g>
</g>
</svg>
