<?xml version="1.0" encoding="UTF-8" standalone="no"?>
<!DOCTYPE svg PUBLIC "-//W3C//DTD SVG 1.1//EN"
 "http://www.w3.org/Graphics/SVG/1.1/DTD/svg11.dtd">
<!-- Generated by graphviz version 2.40.1 (20161225.0304)
 -->
<!-- Title: reassembly.h Pages: 1 -->
<svg width="238pt" height="364pt"
 viewBox="0.00 0.00 237.50 364.00" xmlns="http://www.w3.org/2000/svg" xmlns:xlink="http://www.w3.org/1999/xlink">
<g id="graph0" class="graph" transform="scale(1 1) rotate(0) translate(4 360)">
<title>reassembly.h</title>
<polygon fill="#ffffff" stroke="transparent" points="-4,4 -4,-360 233.5,-360 233.5,4 -4,4"/>
<!-- Node4 -->
<g id="node1" class="node">
<title>Node4</title>
<polygon fill="#bfbfbf" stroke="#000000" points="77,-336.5 77,-355.5 158,-355.5 158,-336.5 77,-336.5"/>
<text text-anchor="middle" x="117.5" y="-343.5" font-family="Helvetica,sans-Serif" font-size="10.00" fill="#000000">reassembly.h</text>
</g>
<!-- Node5 -->
<g id="node2" class="node">
<title>Node5</title>
<g id="a_node2"><a xlink:href="spec_2packet__io_8h.html" target="_top" xlink:title="ODP Packet IO. ">
<polygon fill="#ffffff" stroke="#000000" points="81,-280.5 81,-299.5 154,-299.5 154,-280.5 81,-280.5"/>
<text text-anchor="middle" x="117.5" y="-287.5" font-family="Helvetica,sans-Serif" font-size="10.00" fill="#000000">packet_io.h</text>
</a>
</g>
</g>
<!-- Node4&#45;&gt;Node5 -->
<g id="edge1" class="edge">
<title>Node4&#45;&gt;Node5</title>
<path fill="none" stroke="#191970" d="M117.5,-326.1575C117.5,-317.155 117.5,-306.9199 117.5,-299.6427"/>
<polygon fill="#191970" stroke="#191970" points="114.0001,-326.2455 117.5,-336.2455 121.0001,-326.2456 114.0001,-326.2455"/>
</g>
<!-- Node6 -->
<g id="node3" class="node">
<title>Node6</title>
<g id="a_node3"><a xlink:href="packet__io_8h.html" target="_top" xlink:title="ODP Packet IO. ">
<polygon fill="#ffffff" stroke="#000000" points="81,-224.5 81,-243.5 154,-243.5 154,-224.5 81,-224.5"/>
<text text-anchor="middle" x="117.5" y="-231.5" font-family="Helvetica,sans-Serif" font-size="10.00" fill="#000000">packet_io.h</text>
</a>
</g>
</g>
<!-- Node5&#45;&gt;Node6 -->
<g id="edge2" class="edge">
<title>Node5&#45;&gt;Node6</title>
<path fill="none" stroke="#191970" d="M117.5,-270.1575C117.5,-261.155 117.5,-250.9199 117.5,-243.6427"/>
<polygon fill="#191970" stroke="#191970" points="114.0001,-270.2455 117.5,-280.2455 121.0001,-270.2456 114.0001,-270.2455"/>
</g>
<!-- Node7 -->
<g id="node4" class="node">
<title>Node7</title>
<g id="a_node4"><a xlink:href="spec_2classification_8h.html" target="_top" xlink:title="ODP classification descriptor. ">
<polygon fill="#ffffff" stroke="#000000" points="0,-168.5 0,-187.5 89,-187.5 89,-168.5 0,-168.5"/>
<text text-anchor="middle" x="44.5" y="-175.5" font-family="Helvetica,sans-Serif" font-size="10.00" fill="#000000">classification.h</text>
</a>
</g>
</g>
<!-- Node6&#45;&gt;Node7 -->
<g id="edge3" class="edge">
<title>Node6&#45;&gt;Node7</title>
<path fill="none" stroke="#191970" d="M96.549,-217.928C83.7893,-208.1397 67.9115,-195.9595 57.0699,-187.6427"/>
<polygon fill="#191970" stroke="#191970" points="94.7197,-220.9359 104.7844,-224.2455 98.9804,-215.3819 94.7197,-220.9359"/>
</g>
<!-- Node9 -->
<g id="node6" class="node">
<title>Node9</title>
<g id="a_node6"><a xlink:href="spec_2ipsec_8h.html" target="_top" xlink:title="ODP IPSEC API. ">
<polygon fill="#ffffff" stroke="#000000" points="92,-56.5 92,-75.5 143,-75.5 143,-56.5 92,-56.5"/>
<text text-anchor="middle" x="117.5" y="-63.5" font-family="Helvetica,sans-Serif" font-size="10.00" fill="#000000">ipsec.h</text>
</a>
</g>
</g>
<!-- Node6&#45;&gt;Node9 -->
<g id="edge7" class="edge">
<title>Node6&#45;&gt;Node9</title>
<path fill="none" stroke="#191970" d="M117.5,-214.2601C117.5,-178.1669 117.5,-102.7656 117.5,-75.8279"/>
<polygon fill="#191970" stroke="#191970" points="114.0001,-214.4862 117.5,-224.4862 121.0001,-214.4863 114.0001,-214.4862"/>
</g>
<!-- Node11 -->
<g id="node8" class="node">
<title>Node11</title>
<g id="a_node8"><a xlink:href="spec_2traffic__mngr_8h.html" target="_top" xlink:title="traffic_mngr.h">
<polygon fill="#ffffff" stroke="#000000" points="145.5,-168.5 145.5,-187.5 229.5,-187.5 229.5,-168.5 145.5,-168.5"/>
<text text-anchor="middle" x="187.5" y="-175.5" font-family="Helvetica,sans-Serif" font-size="10.00" fill="#000000">traffic_mngr.h</text>
</a>
</g>
</g>
<!-- Node6&#45;&gt;Node11 -->
<g id="edge8" class="edge">
<title>Node6&#45;&gt;Node11</title>
<path fill="none" stroke="#191970" d="M137.59,-217.928C149.8253,-208.1397 165.0507,-195.9595 175.4467,-187.6427"/>
<polygon fill="#191970" stroke="#191970" points="135.3153,-215.2655 129.6931,-224.2455 139.6882,-220.7316 135.3153,-215.2655"/>
</g>
<!-- Node8 -->
<g id="node5" class="node">
<title>Node8</title>
<g id="a_node5"><a xlink:href="classification_8h.html" target="_top" xlink:title="ODP classification descriptor. ">
<polygon fill="#ffffff" stroke="#000000" points="0,-112.5 0,-131.5 89,-131.5 89,-112.5 0,-112.5"/>
<text text-anchor="middle" x="44.5" y="-119.5" font-family="Helvetica,sans-Serif" font-size="10.00" fill="#000000">classification.h</text>
</a>
</g>
</g>
<!-- Node7&#45;&gt;Node8 -->
<g id="edge4" class="edge">
<title>Node7&#45;&gt;Node8</title>
<path fill="none" stroke="#191970" d="M44.5,-158.1575C44.5,-149.155 44.5,-138.9199 44.5,-131.6427"/>
<polygon fill="#191970" stroke="#191970" points="41.0001,-158.2455 44.5,-168.2455 48.0001,-158.2456 41.0001,-158.2455"/>
</g>
<!-- Node8&#45;&gt;Node9 -->
<g id="edge5" class="edge">
<title>Node8&#45;&gt;Node9</title>
<path fill="none" stroke="#191970" d="M65.451,-105.928C78.2107,-96.1397 94.0885,-83.9595 104.9301,-75.6427"/>
<polygon fill="#191970" stroke="#191970" points="63.0196,-103.3819 57.2156,-112.2455 67.2803,-108.9359 63.0196,-103.3819"/>
</g>
<!-- Node10 -->
<g id="node7" class="node">
<title>Node10</title>
<g id="a_node7"><a xlink:href="ipsec_8h.html" target="_top" xlink:title="ODP IPSEC API &#45; platform specific header. ">
<polygon fill="#ffffff" stroke="#000000" points="92,-.5 92,-19.5 143,-19.5 143,-.5 92,-.5"/>
<text text-anchor="middle" x="117.5" y="-7.5" font-family="Helvetica,sans-Serif" font-size="10.00" fill="#000000">ipsec.h</text>
</a>
</g>
</g>
<!-- Node9&#45;&gt;Node10 -->
<g id="edge6" class="edge">
<title>Node9&#45;&gt;Node10</title>
<path fill="none" stroke="#191970" d="M117.5,-46.1575C117.5,-37.155 117.5,-26.9199 117.5,-19.6427"/>
<polygon fill="#191970" stroke="#191970" points="114.0001,-46.2455 117.5,-56.2455 121.0001,-46.2456 114.0001,-46.2455"/>
</g>
<!-- Node12 -->
<g id="node9" class="node">
<title>Node12</title>
<g id="a_node9"><a xlink:href="traffic__mngr_8h.html" target="_top" xlink:title="ODP Traffic manager. ">
<polygon fill="#ffffff" stroke="#000000" points="145.5,-112.5 145.5,-131.5 229.5,-131.5 229.5,-112.5 145.5,-112.5"/>
<text text-anchor="middle" x="187.5" y="-119.5" font-family="Helvetica,sans-Serif" font-size="10.00" fill="#000000">traffic_mngr.h</text>
</a>
</g>
</g>
<!-- Node11&#45;&gt;Node12 -->
<g id="edge9" class="edge">
<title>Node11&#45;&gt;Node12</title>
<path fill="none" stroke="#191970" d="M187.5,-158.1575C187.5,-149.155 187.5,-138.9199 187.5,-131.6427"/>
<polygon fill="#191970" stroke="#191970" points="184.0001,-158.2455 187.5,-168.2455 191.0001,-158.2456 184.0001,-158.2455"/>
</g>
<!-- Node12&#45;&gt;Node9 -->
<g id="edge10" class="edge">
<title>Node12&#45;&gt;Node9</title>
<path fill="none" stroke="#191970" d="M167.41,-105.928C155.1747,-96.1397 139.9493,-83.9595 129.5533,-75.6427"/>
<polygon fill="#191970" stroke="#191970" points="165.3118,-108.7316 175.3069,-112.2455 169.6847,-103.2655 165.3118,-108.7316"/>
</g>
</g>
</svg>
