<?xml version="1.0" encoding="UTF-8" standalone="no"?>
<!DOCTYPE svg PUBLIC "-//W3C//DTD SVG 1.1//EN"
 "http://www.w3.org/Graphics/SVG/1.1/DTD/svg11.dtd">
<!-- Generated by graphviz version 2.43.0 (0)
 -->
<!-- Title: schedule.h Pages: 1 -->
<svg width="1223pt" height="777pt"
 viewBox="0.00 0.00 1223.00 777.00" xmlns="http://www.w3.org/2000/svg" xmlns:xlink="http://www.w3.org/1999/xlink">
<g id="graph0" class="graph" transform="scale(1 1) rotate(0) translate(4 773)">
<title>schedule.h</title>
<polygon fill="white" stroke="transparent" points="-4,4 -4,-773 1219,-773 1219,4 -4,4"/>
<!-- Node1 -->
<g id="node1" class="node">
<title>Node1</title>
<g id="a_node1"><a xlink:title="ODP schedule.">
<polygon fill="#bfbfbf" stroke="black" points="289.5,-749.5 289.5,-768.5 358.5,-768.5 358.5,-749.5 289.5,-749.5"/>
<text text-anchor="middle" x="324" y="-756.5" font-family="Helvetica,sans-Serif" font-size="10.00">schedule.h</text>
</a>
</g>
</g>
<!-- Node2 -->
<g id="node2" class="node">
<title>Node2</title>
<g id="a_node2"><a xlink:title=" ">
<polygon fill="white" stroke="#bfbfbf" points="187,-693.5 187,-712.5 313,-712.5 313,-693.5 187,-693.5"/>
<text text-anchor="middle" x="250" y="-700.5" font-family="Helvetica,sans-Serif" font-size="10.00">odp/api/abi/schedule.h</text>
</a>
</g>
</g>
<!-- Node1&#45;&gt;Node2 -->
<g id="edge1" class="edge">
<title>Node1&#45;&gt;Node2</title>
<path fill="none" stroke="midnightblue" d="M312.11,-749.32C300.85,-741.11 283.71,-728.6 270.29,-718.81"/>
<polygon fill="midnightblue" stroke="midnightblue" points="272.25,-715.9 262.11,-712.83 268.12,-721.56 272.25,-715.9"/>
</g>
<!-- Node3 -->
<g id="node3" class="node">
<title>Node3</title>
<g id="a_node3"><a xlink:href="spec_2schedule_8h.html" target="_top" xlink:title="ODP schedule.">
<polygon fill="white" stroke="black" points="331,-693.5 331,-712.5 465,-712.5 465,-693.5 331,-693.5"/>
<text text-anchor="middle" x="398" y="-700.5" font-family="Helvetica,sans-Serif" font-size="10.00">odp/api/spec/schedule.h</text>
</a>
</g>
</g>
<!-- Node1&#45;&gt;Node3 -->
<g id="edge2" class="edge">
<title>Node1&#45;&gt;Node3</title>
<path fill="none" stroke="midnightblue" d="M335.89,-749.32C347.15,-741.11 364.29,-728.6 377.71,-718.81"/>
<polygon fill="midnightblue" stroke="midnightblue" points="379.88,-721.56 385.89,-712.83 375.75,-715.9 379.88,-721.56"/>
</g>
<!-- Node4 -->
<g id="node4" class="node">
<title>Node4</title>
<g id="a_node4"><a xlink:title=" ">
<polygon fill="white" stroke="#bfbfbf" points="253.5,-0.5 253.5,-19.5 374.5,-19.5 374.5,-0.5 253.5,-0.5"/>
<text text-anchor="middle" x="314" y="-7.5" font-family="Helvetica,sans-Serif" font-size="10.00">odp/visibility_begin.h</text>
</a>
</g>
</g>
<!-- Node3&#45;&gt;Node4 -->
<g id="edge3" class="edge">
<title>Node3&#45;&gt;Node4</title>
<path fill="none" stroke="midnightblue" d="M337.41,-693.46C273.29,-684.06 176.54,-668.72 141,-657 74.46,-635.06 0,-656.56 0,-586.5 0,-586.5 0,-586.5 0,-132 0,-91.81 15.45,-78.13 49,-56 80.17,-35.44 175.93,-23 243.34,-16.56"/>
<polygon fill="midnightblue" stroke="midnightblue" points="243.86,-20.03 253.49,-15.62 243.21,-13.06 243.86,-20.03"/>
</g>
<!-- Node5 -->
<g id="node5" class="node">
<title>Node5</title>
<g id="a_node5"><a xlink:href="std__types_8h.html" target="_top" xlink:title="Standard C language types and definitions for ODP.">
<polygon fill="white" stroke="black" points="763,-252 763,-271 875,-271 875,-252 763,-252"/>
<text text-anchor="middle" x="819" y="-259" font-family="Helvetica,sans-Serif" font-size="10.00">odp/api/std_types.h</text>
</a>
</g>
</g>
<!-- Node3&#45;&gt;Node5 -->
<g id="edge4" class="edge">
<title>Node3&#45;&gt;Node5</title>
<path fill="none" stroke="midnightblue" d="M465.07,-698.56C647.47,-688.3 1139,-654.37 1139,-586.5 1139,-586.5 1139,-586.5 1139,-394.5 1139,-357.2 1146.33,-338.38 1119,-313 1085.9,-282.26 963.07,-270.05 885.22,-265.34"/>
<polygon fill="midnightblue" stroke="midnightblue" points="885.2,-261.83 875.02,-264.74 884.8,-268.82 885.2,-261.83"/>
</g>
<!-- Node12 -->
<g id="node12" class="node">
<title>Node12</title>
<g id="a_node12"><a xlink:title=" ">
<polygon fill="white" stroke="#bfbfbf" points="834,-0.5 834,-19.5 946,-19.5 946,-0.5 834,-0.5"/>
<text text-anchor="middle" x="890" y="-7.5" font-family="Helvetica,sans-Serif" font-size="10.00">odp/visibility_end.h</text>
</a>
</g>
</g>
<!-- Node3&#45;&gt;Node12 -->
<g id="edge55" class="edge">
<title>Node3&#45;&gt;Node12</title>
<path fill="none" stroke="midnightblue" d="M465.21,-699.54C660.64,-691.49 1215,-662.02 1215,-586.5 1215,-586.5 1215,-586.5 1215,-132 1215,-91.07 1197.52,-77.98 1163,-56 1129.55,-34.7 1025.66,-22.15 956.13,-15.93"/>
<polygon fill="midnightblue" stroke="midnightblue" points="956.4,-12.44 946.13,-15.06 955.79,-19.42 956.4,-12.44"/>
</g>
<!-- Node13 -->
<g id="node13" class="node">
<title>Node13</title>
<g id="a_node13"><a xlink:href="event__types_8h.html" target="_top" xlink:title="ODP event API type definitions.">
<polygon fill="white" stroke="black" points="104.5,-252 104.5,-271 229.5,-271 229.5,-252 104.5,-252"/>
<text text-anchor="middle" x="167" y="-259" font-family="Helvetica,sans-Serif" font-size="10.00">odp/api/event_types.h</text>
</a>
</g>
</g>
<!-- Node3&#45;&gt;Node13 -->
<g id="edge15" class="edge">
<title>Node3&#45;&gt;Node13</title>
<path fill="none" stroke="midnightblue" d="M358.1,-693.48C264.37,-672.92 38,-619.81 38,-586.5 38,-586.5 38,-586.5 38,-523 38,-421.19 118.11,-318.06 152.07,-278.92"/>
<polygon fill="midnightblue" stroke="midnightblue" points="154.93,-280.98 158.93,-271.17 149.68,-276.34 154.93,-280.98"/>
</g>
<!-- Node16 -->
<g id="node16" class="node">
<title>Node16</title>
<g id="a_node16"><a xlink:href="queue__types_8h.html" target="_top" xlink:title="ODP queue.">
<polygon fill="white" stroke="black" points="334.5,-637.5 334.5,-656.5 461.5,-656.5 461.5,-637.5 334.5,-637.5"/>
<text text-anchor="middle" x="398" y="-644.5" font-family="Helvetica,sans-Serif" font-size="10.00">odp/api/queue_types.h</text>
</a>
</g>
</g>
<!-- Node3&#45;&gt;Node16 -->
<g id="edge20" class="edge">
<title>Node3&#45;&gt;Node16</title>
<path fill="none" stroke="midnightblue" d="M398,-693.08C398,-686.01 398,-675.86 398,-666.99"/>
<polygon fill="midnightblue" stroke="midnightblue" points="401.5,-666.75 398,-656.75 394.5,-666.75 401.5,-666.75"/>
</g>
<!-- Node25 -->
<g id="node25" class="node">
<title>Node25</title>
<g id="a_node25"><a xlink:href="schedule__types_8h.html" target="_top" xlink:title="ODP schedule.">
<polygon fill="white" stroke="black" points="225,-514.5 225,-533.5 365,-533.5 365,-514.5 225,-514.5"/>
<text text-anchor="middle" x="295" y="-521.5" font-family="Helvetica,sans-Serif" font-size="10.00">odp/api/schedule_types.h</text>
</a>
</g>
</g>
<!-- Node3&#45;&gt;Node25 -->
<g id="edge53" class="edge">
<title>Node3&#45;&gt;Node25</title>
<path fill="none" stroke="midnightblue" d="M374.78,-693.41C358.41,-686.16 337.3,-674.19 325,-657 300.36,-622.55 295.54,-571.17 294.85,-543.78"/>
<polygon fill="midnightblue" stroke="midnightblue" points="298.35,-543.6 294.76,-533.63 291.35,-543.66 298.35,-543.6"/>
</g>
<!-- Node28 -->
<g id="node28" class="node">
<title>Node28</title>
<g id="a_node28"><a xlink:href="thrmask_8h.html" target="_top" xlink:title="ODP thread masks.">
<polygon fill="white" stroke="black" points="843.5,-386 843.5,-405 948.5,-405 948.5,-386 843.5,-386"/>
<text text-anchor="middle" x="896" y="-393" font-family="Helvetica,sans-Serif" font-size="10.00">odp/api/thrmask.h</text>
</a>
</g>
</g>
<!-- Node3&#45;&gt;Node28 -->
<g id="edge54" class="edge">
<title>Node3&#45;&gt;Node28</title>
<path fill="none" stroke="midnightblue" d="M465.37,-695.03C572.57,-682.04 770,-649.56 770,-586.5 770,-586.5 770,-586.5 770,-523 770,-468.37 829.72,-429 866.93,-409.77"/>
<polygon fill="midnightblue" stroke="midnightblue" points="868.92,-412.7 876.31,-405.11 865.8,-406.43 868.92,-412.7"/>
</g>
<!-- Node6 -->
<g id="node6" class="node">
<title>Node6</title>
<g id="a_node6"><a xlink:title=" ">
<polygon fill="white" stroke="#bfbfbf" points="764,-185 764,-204 894,-204 894,-185 764,-185"/>
<text text-anchor="middle" x="829" y="-192" font-family="Helvetica,sans-Serif" font-size="10.00">odp/api/abi/std_types.h</text>
</a>
</g>
</g>
<!-- Node5&#45;&gt;Node6 -->
<g id="edge5" class="edge">
<title>Node5&#45;&gt;Node6</title>
<path fill="none" stroke="midnightblue" d="M820.35,-251.73C821.82,-242.18 824.21,-226.62 826.11,-214.28"/>
<polygon fill="midnightblue" stroke="midnightblue" points="829.61,-214.54 827.67,-204.13 822.69,-213.48 829.61,-214.54"/>
</g>
<!-- Node7 -->
<g id="node7" class="node">
<title>Node7</title>
<g id="a_node7"><a xlink:href="spec_2std__types_8h.html" target="_top" xlink:title="Common types and definitions for ODP API files.">
<polygon fill="white" stroke="black" points="570.5,-185 570.5,-204 707.5,-204 707.5,-185 570.5,-185"/>
<text text-anchor="middle" x="639" y="-192" font-family="Helvetica,sans-Serif" font-size="10.00">odp/api/spec/std_types.h</text>
</a>
</g>
</g>
<!-- Node5&#45;&gt;Node7 -->
<g id="edge6" class="edge">
<title>Node5&#45;&gt;Node7</title>
<path fill="none" stroke="midnightblue" d="M795.1,-251.87C763.54,-240.47 707.82,-220.35 672.19,-207.49"/>
<polygon fill="midnightblue" stroke="midnightblue" points="673.31,-204.17 662.71,-204.06 670.93,-210.75 673.31,-204.17"/>
</g>
<!-- Node7&#45;&gt;Node4 -->
<g id="edge7" class="edge">
<title>Node7&#45;&gt;Node4</title>
<path fill="none" stroke="midnightblue" d="M631.1,-184.66C606.31,-157.12 529.85,-73.66 498,-56 463.17,-36.68 420.11,-25.57 384.41,-19.23"/>
<polygon fill="midnightblue" stroke="midnightblue" points="384.99,-15.77 374.54,-17.56 383.82,-22.68 384.99,-15.77"/>
</g>
<!-- Node8 -->
<g id="node8" class="node">
<title>Node8</title>
<g id="a_node8"><a xlink:title=" ">
<polygon fill="white" stroke="#bfbfbf" points="502.5,-123.5 502.5,-142.5 555.5,-142.5 555.5,-123.5 502.5,-123.5"/>
<text text-anchor="middle" x="529" y="-130.5" font-family="Helvetica,sans-Serif" font-size="10.00">stdint.h</text>
</a>
</g>
</g>
<!-- Node7&#45;&gt;Node8 -->
<g id="edge8" class="edge">
<title>Node7&#45;&gt;Node8</title>
<path fill="none" stroke="midnightblue" d="M623.24,-184.98C605.02,-175.12 574.83,-158.79 553.53,-147.27"/>
<polygon fill="midnightblue" stroke="midnightblue" points="555.19,-144.19 544.73,-142.51 551.86,-150.35 555.19,-144.19"/>
</g>
<!-- Node9 -->
<g id="node9" class="node">
<title>Node9</title>
<g id="a_node9"><a xlink:href="align_8h.html" target="_top" xlink:title="ODP alignments.">
<polygon fill="white" stroke="black" points="612.5,-123.5 612.5,-142.5 701.5,-142.5 701.5,-123.5 612.5,-123.5"/>
<text text-anchor="middle" x="657" y="-130.5" font-family="Helvetica,sans-Serif" font-size="10.00">odp/api/align.h</text>
</a>
</g>
</g>
<!-- Node7&#45;&gt;Node9 -->
<g id="edge9" class="edge">
<title>Node7&#45;&gt;Node9</title>
<path fill="none" stroke="midnightblue" d="M641.58,-184.98C644.15,-176.49 648.17,-163.2 651.46,-152.32"/>
<polygon fill="midnightblue" stroke="midnightblue" points="654.88,-153.09 654.43,-142.51 648.18,-151.07 654.88,-153.09"/>
</g>
<!-- Node7&#45;&gt;Node12 -->
<g id="edge14" class="edge">
<title>Node7&#45;&gt;Node12</title>
<path fill="none" stroke="midnightblue" d="M683.36,-184.99C735.71,-172.61 821.75,-144.51 870,-87 883.54,-70.86 888.02,-46.55 889.45,-29.79"/>
<polygon fill="midnightblue" stroke="midnightblue" points="892.95,-29.77 890.02,-19.59 885.96,-29.38 892.95,-29.77"/>
</g>
<!-- Node10 -->
<g id="node10" class="node">
<title>Node10</title>
<g id="a_node10"><a xlink:title=" ">
<polygon fill="white" stroke="#bfbfbf" points="754.5,-62 754.5,-81 861.5,-81 861.5,-62 754.5,-62"/>
<text text-anchor="middle" x="808" y="-69" font-family="Helvetica,sans-Serif" font-size="10.00">odp/api/abi/align.h</text>
</a>
</g>
</g>
<!-- Node9&#45;&gt;Node10 -->
<g id="edge10" class="edge">
<title>Node9&#45;&gt;Node10</title>
<path fill="none" stroke="midnightblue" d="M678.63,-123.48C704.42,-113.31 747.71,-96.26 777.04,-84.7"/>
<polygon fill="midnightblue" stroke="midnightblue" points="778.38,-87.93 786.41,-81.01 775.82,-81.42 778.38,-87.93"/>
</g>
<!-- Node11 -->
<g id="node11" class="node">
<title>Node11</title>
<g id="a_node11"><a xlink:href="spec_2align_8h.html" target="_top" xlink:title="ODP alignments.">
<polygon fill="white" stroke="black" points="546,-62 546,-81 660,-81 660,-62 546,-62"/>
<text text-anchor="middle" x="603" y="-69" font-family="Helvetica,sans-Serif" font-size="10.00">odp/api/spec/align.h</text>
</a>
</g>
</g>
<!-- Node9&#45;&gt;Node11 -->
<g id="edge11" class="edge">
<title>Node9&#45;&gt;Node11</title>
<path fill="none" stroke="midnightblue" d="M649.26,-123.48C641,-114.37 627.72,-99.74 617.51,-88.48"/>
<polygon fill="midnightblue" stroke="midnightblue" points="620.03,-86.06 610.72,-81.01 614.85,-90.77 620.03,-86.06"/>
</g>
<!-- Node11&#45;&gt;Node4 -->
<g id="edge12" class="edge">
<title>Node11&#45;&gt;Node4</title>
<path fill="none" stroke="midnightblue" d="M561.59,-61.98C509.87,-51.33 421.39,-33.11 365.39,-21.58"/>
<polygon fill="midnightblue" stroke="midnightblue" points="365.83,-18.1 355.33,-19.51 364.42,-24.95 365.83,-18.1"/>
</g>
<!-- Node11&#45;&gt;Node12 -->
<g id="edge13" class="edge">
<title>Node11&#45;&gt;Node12</title>
<path fill="none" stroke="midnightblue" d="M644.12,-61.98C695.48,-51.33 783.36,-33.11 838.96,-21.58"/>
<polygon fill="midnightblue" stroke="midnightblue" points="839.87,-24.97 848.96,-19.51 838.45,-18.11 839.87,-24.97"/>
</g>
<!-- Node14 -->
<g id="node14" class="node">
<title>Node14</title>
<g id="a_node14"><a xlink:title=" ">
<polygon fill="white" stroke="#bfbfbf" points="104.5,-185 104.5,-204 247.5,-204 247.5,-185 104.5,-185"/>
<text text-anchor="middle" x="176" y="-192" font-family="Helvetica,sans-Serif" font-size="10.00">odp/api/abi/event_types.h</text>
</a>
</g>
</g>
<!-- Node13&#45;&gt;Node14 -->
<g id="edge16" class="edge">
<title>Node13&#45;&gt;Node14</title>
<path fill="none" stroke="midnightblue" d="M168.21,-251.73C169.54,-242.18 171.69,-226.62 173.4,-214.28"/>
<polygon fill="midnightblue" stroke="midnightblue" points="176.9,-214.51 174.81,-204.13 169.97,-213.55 176.9,-214.51"/>
</g>
<!-- Node15 -->
<g id="node15" class="node">
<title>Node15</title>
<g id="a_node15"><a xlink:href="spec_2event__types_8h.html" target="_top" xlink:title="ODP event API type definitions.">
<polygon fill="white" stroke="black" points="380.5,-56.5 380.5,-86.5 489.5,-86.5 489.5,-56.5 380.5,-56.5"/>
<text text-anchor="start" x="388.5" y="-74.5" font-family="Helvetica,sans-Serif" font-size="10.00">odp/api/spec/event</text>
<text text-anchor="middle" x="435" y="-63.5" font-family="Helvetica,sans-Serif" font-size="10.00">_types.h</text>
</a>
</g>
</g>
<!-- Node13&#45;&gt;Node15 -->
<g id="edge17" class="edge">
<title>Node13&#45;&gt;Node15</title>
<path fill="none" stroke="midnightblue" d="M183.81,-251.86C202.02,-242.3 231.72,-226.1 256,-210 313.5,-171.87 376.59,-121.14 410.37,-93.19"/>
<polygon fill="midnightblue" stroke="midnightblue" points="412.85,-95.67 418.3,-86.59 408.38,-90.29 412.85,-95.67"/>
</g>
<!-- Node15&#45;&gt;Node4 -->
<g id="edge18" class="edge">
<title>Node15&#45;&gt;Node4</title>
<path fill="none" stroke="midnightblue" d="M406.32,-56.4C386.48,-46.64 360.24,-33.74 340.81,-24.18"/>
<polygon fill="midnightblue" stroke="midnightblue" points="342.12,-20.93 331.61,-19.66 339.04,-27.21 342.12,-20.93"/>
</g>
<!-- Node15&#45;&gt;Node12 -->
<g id="edge19" class="edge">
<title>Node15&#45;&gt;Node12</title>
<path fill="none" stroke="midnightblue" d="M489.5,-62.6C504.86,-60.42 521.58,-58.08 537,-56 636.79,-42.55 752.6,-27.98 823.58,-19.18"/>
<polygon fill="midnightblue" stroke="midnightblue" points="824.23,-22.62 833.72,-17.92 823.37,-15.68 824.23,-22.62"/>
</g>
<!-- Node17 -->
<g id="node17" class="node">
<title>Node17</title>
<g id="a_node17"><a xlink:title=" ">
<polygon fill="white" stroke="#bfbfbf" points="466.5,-576 466.5,-595 611.5,-595 611.5,-576 466.5,-576"/>
<text text-anchor="middle" x="539" y="-583" font-family="Helvetica,sans-Serif" font-size="10.00">odp/api/abi/queue_types.h</text>
</a>
</g>
</g>
<!-- Node16&#45;&gt;Node17 -->
<g id="edge21" class="edge">
<title>Node16&#45;&gt;Node17</title>
<path fill="none" stroke="midnightblue" d="M418.2,-637.48C442.07,-627.4 482,-610.55 509.37,-599"/>
<polygon fill="midnightblue" stroke="midnightblue" points="510.98,-602.12 518.84,-595.01 508.26,-595.67 510.98,-602.12"/>
</g>
<!-- Node18 -->
<g id="node18" class="node">
<title>Node18</title>
<g id="a_node18"><a xlink:href="spec_2queue__types_8h.html" target="_top" xlink:title="ODP queue types.">
<polygon fill="white" stroke="black" points="337.5,-570.5 337.5,-600.5 448.5,-600.5 448.5,-570.5 337.5,-570.5"/>
<text text-anchor="start" x="345.5" y="-588.5" font-family="Helvetica,sans-Serif" font-size="10.00">odp/api/spec/queue</text>
<text text-anchor="middle" x="393" y="-577.5" font-family="Helvetica,sans-Serif" font-size="10.00">_types.h</text>
</a>
</g>
</g>
<!-- Node16&#45;&gt;Node18 -->
<g id="edge22" class="edge">
<title>Node16&#45;&gt;Node18</title>
<path fill="none" stroke="midnightblue" d="M397.28,-637.48C396.7,-630.47 395.83,-620.19 395.03,-610.7"/>
<polygon fill="midnightblue" stroke="midnightblue" points="398.5,-610.19 394.18,-600.52 391.53,-610.78 398.5,-610.19"/>
</g>
<!-- Node18&#45;&gt;Node4 -->
<g id="edge23" class="edge">
<title>Node18&#45;&gt;Node4</title>
<path fill="none" stroke="midnightblue" d="M337.48,-579.77C270.58,-571.09 159.17,-546.62 95,-478 46.71,-426.37 38,-400.19 38,-329.5 38,-329.5 38,-329.5 38,-132 38,-42.35 161.66,-18.5 243.43,-12.53"/>
<polygon fill="midnightblue" stroke="midnightblue" points="243.68,-16.03 253.43,-11.88 243.22,-9.04 243.68,-16.03"/>
</g>
<!-- Node18&#45;&gt;Node12 -->
<g id="edge52" class="edge">
<title>Node18&#45;&gt;Node12</title>
<path fill="none" stroke="midnightblue" d="M448.75,-571.88C627.87,-531.24 1177,-405.87 1177,-396.5 1177,-396.5 1177,-396.5 1177,-132 1177,-36.65 1040.84,-15.25 956.09,-11.16"/>
<polygon fill="midnightblue" stroke="midnightblue" points="956.15,-7.66 946.02,-10.74 955.86,-14.65 956.15,-7.66"/>
</g>
<!-- Node19 -->
<g id="node19" class="node">
<title>Node19</title>
<g id="a_node19"><a xlink:href="event__vector__types_8h.html" target="_top" xlink:title="ODP event vector API type definitions.">
<polygon fill="white" stroke="black" points="371.5,-380.5 371.5,-410.5 490.5,-410.5 490.5,-380.5 371.5,-380.5"/>
<text text-anchor="start" x="379.5" y="-398.5" font-family="Helvetica,sans-Serif" font-size="10.00">odp/api/event_vector</text>
<text text-anchor="middle" x="431" y="-387.5" font-family="Helvetica,sans-Serif" font-size="10.00">_types.h</text>
</a>
</g>
</g>
<!-- Node18&#45;&gt;Node19 -->
<g id="edge24" class="edge">
<title>Node18&#45;&gt;Node19</title>
<path fill="none" stroke="midnightblue" d="M397.29,-570.44C400.28,-560.36 404.2,-546.43 407,-534 415.89,-494.56 423.38,-448.12 427.53,-420.56"/>
<polygon fill="midnightblue" stroke="midnightblue" points="430.99,-421.05 429,-410.64 424.07,-420.02 430.99,-421.05"/>
</g>
<!-- Node23 -->
<g id="node23" class="node">
<title>Node23</title>
<g id="a_node23"><a xlink:href="queue__stats__types_8h.html" target="_top" xlink:title="ODP queue.">
<polygon fill="white" stroke="black" points="286.5,-246.5 286.5,-276.5 401.5,-276.5 401.5,-246.5 286.5,-246.5"/>
<text text-anchor="start" x="294.5" y="-264.5" font-family="Helvetica,sans-Serif" font-size="10.00">odp/api/queue_stats</text>
<text text-anchor="middle" x="344" y="-253.5" font-family="Helvetica,sans-Serif" font-size="10.00">_types.h</text>
</a>
</g>
</g>
<!-- Node18&#45;&gt;Node23 -->
<g id="edge37" class="edge">
<title>Node18&#45;&gt;Node23</title>
<path fill="none" stroke="midnightblue" d="M391.66,-570.32C389.12,-545.23 382.97,-491.49 373,-447 369.34,-430.67 365.57,-427.34 362,-411 355.59,-381.65 356.65,-373.82 353,-344 350.65,-324.83 348.27,-303.08 346.54,-286.88"/>
<polygon fill="midnightblue" stroke="midnightblue" points="349.99,-286.22 345.46,-276.65 343.03,-286.96 349.99,-286.22"/>
</g>
<!-- Node18&#45;&gt;Node25 -->
<g id="edge38" class="edge">
<title>Node18&#45;&gt;Node25</title>
<path fill="none" stroke="midnightblue" d="M369.78,-570.4C354.21,-560.95 333.8,-548.56 318.24,-539.11"/>
<polygon fill="midnightblue" stroke="midnightblue" points="319.62,-535.86 309.26,-533.66 315.99,-541.84 319.62,-535.86"/>
</g>
<!-- Node20 -->
<g id="node20" class="node">
<title>Node20</title>
<g id="a_node20"><a xlink:title=" ">
<polygon fill="white" stroke="#bfbfbf" points="644.5,-313.5 644.5,-343.5 781.5,-343.5 781.5,-313.5 644.5,-313.5"/>
<text text-anchor="start" x="652.5" y="-331.5" font-family="Helvetica,sans-Serif" font-size="10.00">odp/api/abi/event_vector</text>
<text text-anchor="middle" x="713" y="-320.5" font-family="Helvetica,sans-Serif" font-size="10.00">_types.h</text>
</a>
</g>
</g>
<!-- Node19&#45;&gt;Node20 -->
<g id="edge25" class="edge">
<title>Node19&#45;&gt;Node20</title>
<path fill="none" stroke="midnightblue" d="M490.8,-380.72C534.94,-370.54 595.17,-356.66 641.79,-345.91"/>
<polygon fill="midnightblue" stroke="midnightblue" points="642.86,-349.26 651.82,-343.6 641.29,-342.44 642.86,-349.26"/>
</g>
<!-- Node21 -->
<g id="node21" class="node">
<title>Node21</title>
<g id="a_node21"><a xlink:title=" ">
<polygon fill="white" stroke="#bfbfbf" points="490,-319 490,-338 626,-338 626,-319 490,-319"/>
<text text-anchor="middle" x="558" y="-326" font-family="Helvetica,sans-Serif" font-size="10.00">odp/api/abi/pool_types.h</text>
</a>
</g>
</g>
<!-- Node19&#45;&gt;Node21 -->
<g id="edge26" class="edge">
<title>Node19&#45;&gt;Node21</title>
<path fill="none" stroke="midnightblue" d="M458.56,-380.4C480.45,-369.19 510.83,-353.64 532.24,-342.69"/>
<polygon fill="midnightblue" stroke="midnightblue" points="534.07,-345.68 541.38,-338.01 530.88,-339.45 534.07,-345.68"/>
</g>
<!-- Node22 -->
<g id="node22" class="node">
<title>Node22</title>
<g id="a_node22"><a xlink:href="spec_2event__vector__types_8h.html" target="_top" xlink:title="ODP event vector API type definitions.">
<polygon fill="white" stroke="black" points="362.5,-313.5 362.5,-343.5 471.5,-343.5 471.5,-313.5 362.5,-313.5"/>
<text text-anchor="start" x="370.5" y="-331.5" font-family="Helvetica,sans-Serif" font-size="10.00">odp/api/spec/event</text>
<text text-anchor="middle" x="417" y="-320.5" font-family="Helvetica,sans-Serif" font-size="10.00">_vector_types.h</text>
</a>
</g>
</g>
<!-- Node19&#45;&gt;Node22 -->
<g id="edge27" class="edge">
<title>Node19&#45;&gt;Node22</title>
<path fill="none" stroke="midnightblue" d="M427.96,-380.4C426.27,-372.56 424.13,-362.6 422.18,-353.57"/>
<polygon fill="midnightblue" stroke="midnightblue" points="425.56,-352.62 420.03,-343.58 418.72,-354.09 425.56,-352.62"/>
</g>
<!-- Node22&#45;&gt;Node4 -->
<g id="edge28" class="edge">
<title>Node22&#45;&gt;Node4</title>
<path fill="none" stroke="midnightblue" d="M418.52,-313.25C419.72,-296.4 419.81,-267.9 410,-246 401,-225.92 389.41,-227.45 376,-210 336.85,-159.04 317.56,-148.82 300,-87 294.46,-67.5 300.34,-44.53 306.09,-28.99"/>
<polygon fill="midnightblue" stroke="midnightblue" points="309.4,-30.14 309.9,-19.56 302.91,-27.51 309.4,-30.14"/>
</g>
<!-- Node22&#45;&gt;Node5 -->
<g id="edge35" class="edge">
<title>Node22&#45;&gt;Node5</title>
<path fill="none" stroke="midnightblue" d="M471.76,-314.81C474.88,-314.18 477.98,-313.57 481,-313 574.88,-295.38 684.35,-279.95 752.68,-270.92"/>
<polygon fill="midnightblue" stroke="midnightblue" points="753.41,-274.36 762.87,-269.58 752.5,-267.42 753.41,-274.36"/>
</g>
<!-- Node22&#45;&gt;Node12 -->
<g id="edge36" class="edge">
<title>Node22&#45;&gt;Node12</title>
<path fill="none" stroke="midnightblue" d="M465.08,-313.49C525.87,-294.7 632.65,-258.06 716,-210 735.18,-198.94 736.23,-190.75 755,-179 786.34,-159.37 799.3,-163.6 830,-143 860.83,-122.31 876.92,-120.93 892,-87 900.02,-68.95 897.98,-46.02 894.9,-30.1"/>
<polygon fill="midnightblue" stroke="midnightblue" points="898.22,-28.89 892.6,-19.91 891.39,-30.43 898.22,-28.89"/>
</g>
<!-- Node22&#45;&gt;Node13 -->
<g id="edge29" class="edge">
<title>Node22&#45;&gt;Node13</title>
<path fill="none" stroke="midnightblue" d="M363.06,-313.48C317.08,-301.52 251.89,-284.57 209.53,-273.56"/>
<polygon fill="midnightblue" stroke="midnightblue" points="210.36,-270.16 199.8,-271.03 208.6,-276.93 210.36,-270.16"/>
</g>
<!-- Node22&#45;&gt;Node23 -->
<g id="edge30" class="edge">
<title>Node22&#45;&gt;Node23</title>
<path fill="none" stroke="midnightblue" d="M401.16,-313.4C391.31,-304.62 378.46,-293.18 367.44,-283.37"/>
<polygon fill="midnightblue" stroke="midnightblue" points="369.6,-280.61 359.81,-276.58 364.95,-285.84 369.6,-280.61"/>
</g>
<!-- Node24 -->
<g id="node24" class="node">
<title>Node24</title>
<g id="a_node24"><a xlink:href="spec_2queue__stats__types_8h.html" target="_top" xlink:title="ODP queue statistics types.">
<polygon fill="white" stroke="black" points="418.5,-179.5 418.5,-209.5 529.5,-209.5 529.5,-179.5 418.5,-179.5"/>
<text text-anchor="start" x="426.5" y="-197.5" font-family="Helvetica,sans-Serif" font-size="10.00">odp/api/spec/queue</text>
<text text-anchor="middle" x="474" y="-186.5" font-family="Helvetica,sans-Serif" font-size="10.00">_stats_types.h</text>
</a>
</g>
</g>
<!-- Node23&#45;&gt;Node24 -->
<g id="edge31" class="edge">
<title>Node23&#45;&gt;Node24</title>
<path fill="none" stroke="midnightblue" d="M372.21,-246.4C391.12,-236.94 416.22,-224.39 436.77,-214.12"/>
<polygon fill="midnightblue" stroke="midnightblue" points="438.47,-217.18 445.85,-209.58 435.34,-210.92 438.47,-217.18"/>
</g>
<!-- Node24&#45;&gt;Node4 -->
<g id="edge32" class="edge">
<title>Node24&#45;&gt;Node4</title>
<path fill="none" stroke="midnightblue" d="M459.07,-179.23C438.47,-159.29 400.54,-121.64 371,-87 354.36,-67.49 336.91,-43.64 325.77,-27.92"/>
<polygon fill="midnightblue" stroke="midnightblue" points="328.6,-25.87 319.99,-19.7 322.88,-29.9 328.6,-25.87"/>
</g>
<!-- Node24&#45;&gt;Node8 -->
<g id="edge33" class="edge">
<title>Node24&#45;&gt;Node8</title>
<path fill="none" stroke="midnightblue" d="M487.03,-179.4C495.19,-170.58 505.72,-159.18 514.19,-150.02"/>
<polygon fill="midnightblue" stroke="midnightblue" points="516.78,-152.38 521,-142.66 511.64,-147.63 516.78,-152.38"/>
</g>
<!-- Node24&#45;&gt;Node12 -->
<g id="edge34" class="edge">
<title>Node24&#45;&gt;Node12</title>
<path fill="none" stroke="midnightblue" d="M473.61,-179.32C474,-163.22 477.26,-137.34 493,-123 562.67,-59.51 615.1,-123.5 702,-87 723.72,-77.88 723.92,-66.52 745,-56 775.38,-40.84 811.9,-29.55 840.69,-22.06"/>
<polygon fill="midnightblue" stroke="midnightblue" points="841.69,-25.42 850.53,-19.57 839.97,-18.63 841.69,-25.42"/>
</g>
<!-- Node26 -->
<g id="node26" class="node">
<title>Node26</title>
<g id="a_node26"><a xlink:title=" ">
<polygon fill="white" stroke="#bfbfbf" points="104.5,-447.5 104.5,-477.5 221.5,-477.5 221.5,-447.5 104.5,-447.5"/>
<text text-anchor="start" x="112.5" y="-465.5" font-family="Helvetica,sans-Serif" font-size="10.00">odp/api/abi/schedule</text>
<text text-anchor="middle" x="163" y="-454.5" font-family="Helvetica,sans-Serif" font-size="10.00">_types.h</text>
</a>
</g>
</g>
<!-- Node25&#45;&gt;Node26 -->
<g id="edge39" class="edge">
<title>Node25&#45;&gt;Node26</title>
<path fill="none" stroke="midnightblue" d="M276.09,-514.48C257.21,-505.96 227.6,-492.62 203.42,-481.72"/>
<polygon fill="midnightblue" stroke="midnightblue" points="204.66,-478.44 194.11,-477.52 201.79,-484.82 204.66,-478.44"/>
</g>
<!-- Node27 -->
<g id="node27" class="node">
<title>Node27</title>
<g id="a_node27"><a xlink:href="spec_2schedule__types_8h.html" target="_top" xlink:title="ODP schedule types.">
<polygon fill="white" stroke="black" points="239.5,-447.5 239.5,-477.5 364.5,-477.5 364.5,-447.5 239.5,-447.5"/>
<text text-anchor="start" x="247.5" y="-465.5" font-family="Helvetica,sans-Serif" font-size="10.00">odp/api/spec/schedule</text>
<text text-anchor="middle" x="302" y="-454.5" font-family="Helvetica,sans-Serif" font-size="10.00">_types.h</text>
</a>
</g>
</g>
<!-- Node25&#45;&gt;Node27 -->
<g id="edge40" class="edge">
<title>Node25&#45;&gt;Node27</title>
<path fill="none" stroke="midnightblue" d="M296,-514.48C296.83,-507.47 298.04,-497.19 299.15,-487.7"/>
<polygon fill="midnightblue" stroke="midnightblue" points="302.66,-487.86 300.35,-477.52 295.71,-487.05 302.66,-487.86"/>
</g>
<!-- Node27&#45;&gt;Node4 -->
<g id="edge41" class="edge">
<title>Node27&#45;&gt;Node4</title>
<path fill="none" stroke="midnightblue" d="M262.12,-447.44C197.24,-421.71 76,-360.52 76,-262.5 76,-262.5 76,-262.5 76,-132 76,-56.23 173.03,-27.89 243.19,-17.3"/>
<polygon fill="midnightblue" stroke="midnightblue" points="243.92,-20.73 253.33,-15.86 242.93,-13.8 243.92,-20.73"/>
</g>
<!-- Node27&#45;&gt;Node5 -->
<g id="edge44" class="edge">
<title>Node27&#45;&gt;Node5</title>
<path fill="none" stroke="midnightblue" d="M364.76,-453.87C481.86,-438.47 727.48,-400.24 790,-344 807.94,-327.86 814.78,-299.88 817.39,-281.28"/>
<polygon fill="midnightblue" stroke="midnightblue" points="820.9,-281.42 818.53,-271.1 813.94,-280.65 820.9,-281.42"/>
</g>
<!-- Node27&#45;&gt;Node12 -->
<g id="edge51" class="edge">
<title>Node27&#45;&gt;Node12</title>
<path fill="none" stroke="midnightblue" d="M294.93,-447.27C278.02,-411.04 239.33,-313.4 277,-246 327.92,-154.91 379.65,-160.58 477,-123 558,-91.74 591.58,-126.3 669,-87 686.94,-77.89 684.29,-65.55 702,-56 739.53,-35.76 786.12,-24.53 823.52,-18.35"/>
<polygon fill="midnightblue" stroke="midnightblue" points="824.48,-21.74 833.82,-16.73 823.4,-14.82 824.48,-21.74"/>
</g>
<!-- Node27&#45;&gt;Node19 -->
<g id="edge42" class="edge">
<title>Node27&#45;&gt;Node19</title>
<path fill="none" stroke="midnightblue" d="M329.99,-447.4C348.75,-437.94 373.67,-425.39 394.05,-415.12"/>
<polygon fill="midnightblue" stroke="midnightblue" points="395.71,-418.2 403.06,-410.58 392.56,-411.95 395.71,-418.2"/>
</g>
<!-- Node27&#45;&gt;Node23 -->
<g id="edge43" class="edge">
<title>Node27&#45;&gt;Node23</title>
<path fill="none" stroke="midnightblue" d="M302.21,-447.28C302.93,-420.48 306.12,-360.89 320,-313 322.68,-303.75 326.89,-294.09 331.03,-285.72"/>
<polygon fill="midnightblue" stroke="midnightblue" points="334.27,-287.08 335.78,-276.6 328.06,-283.85 334.27,-287.08"/>
</g>
<!-- Node27&#45;&gt;Node28 -->
<g id="edge45" class="edge">
<title>Node27&#45;&gt;Node28</title>
<path fill="none" stroke="midnightblue" d="M364.52,-457.53C462.73,-450.82 658.97,-435.53 824,-411 831.54,-409.88 839.49,-408.49 847.24,-407.02"/>
<polygon fill="midnightblue" stroke="midnightblue" points="848.13,-410.41 857.27,-405.06 846.78,-403.54 848.13,-410.41"/>
</g>
<!-- Node29 -->
<g id="node29" class="node">
<title>Node29</title>
<g id="a_node29"><a xlink:title=" ">
<polygon fill="white" stroke="#bfbfbf" points="838.5,-319 838.5,-338 961.5,-338 961.5,-319 838.5,-319"/>
<text text-anchor="middle" x="900" y="-326" font-family="Helvetica,sans-Serif" font-size="10.00">odp/api/abi/thrmask.h</text>
</a>
</g>
</g>
<!-- Node28&#45;&gt;Node29 -->
<g id="edge46" class="edge">
<title>Node28&#45;&gt;Node29</title>
<path fill="none" stroke="midnightblue" d="M896.54,-385.73C897.13,-376.18 898.09,-360.62 898.84,-348.28"/>
<polygon fill="midnightblue" stroke="midnightblue" points="902.35,-348.32 899.47,-338.13 895.36,-347.89 902.35,-348.32"/>
</g>
<!-- Node30 -->
<g id="node30" class="node">
<title>Node30</title>
<g id="a_node30"><a xlink:href="spec_2thrmask_8h.html" target="_top" xlink:title="ODP thread masks.">
<polygon fill="white" stroke="black" points="979.5,-319 979.5,-338 1110.5,-338 1110.5,-319 979.5,-319"/>
<text text-anchor="middle" x="1045" y="-326" font-family="Helvetica,sans-Serif" font-size="10.00">odp/api/spec/thrmask.h</text>
</a>
</g>
</g>
<!-- Node28&#45;&gt;Node30 -->
<g id="edge47" class="edge">
<title>Node28&#45;&gt;Node30</title>
<path fill="none" stroke="midnightblue" d="M915.79,-385.87C941.39,-374.7 986.21,-355.15 1015.75,-342.26"/>
<polygon fill="midnightblue" stroke="midnightblue" points="1017.37,-345.37 1025.13,-338.17 1014.57,-338.96 1017.37,-345.37"/>
</g>
<!-- Node30&#45;&gt;Node4 -->
<g id="edge48" class="edge">
<title>Node30&#45;&gt;Node4</title>
<path fill="none" stroke="midnightblue" d="M1001.81,-318.95C991.4,-316.95 980.31,-314.86 970,-313 720.51,-268.1 613.08,-360.38 409,-210 347.72,-164.84 324.32,-69.78 316.93,-29.58"/>
<polygon fill="midnightblue" stroke="midnightblue" points="320.35,-28.85 315.22,-19.58 313.45,-30.03 320.35,-28.85"/>
</g>
<!-- Node30&#45;&gt;Node5 -->
<g id="edge49" class="edge">
<title>Node30&#45;&gt;Node5</title>
<path fill="none" stroke="midnightblue" d="M1014.99,-318.87C974.69,-307.28 903.01,-286.66 858.41,-273.83"/>
<polygon fill="midnightblue" stroke="midnightblue" points="859.35,-270.46 848.78,-271.06 857.42,-277.19 859.35,-270.46"/>
</g>
<!-- Node30&#45;&gt;Node12 -->
<g id="edge50" class="edge">
<title>Node30&#45;&gt;Node12</title>
<path fill="none" stroke="midnightblue" d="M1040.41,-318.81C1029.9,-298.09 1005,-243.87 1005,-195.5 1005,-195.5 1005,-195.5 1005,-132 1005,-81.27 951.23,-43.34 917.23,-24.43"/>
<polygon fill="midnightblue" stroke="midnightblue" points="918.69,-21.24 908.22,-19.6 915.38,-27.41 918.69,-21.24"/>
</g>
</g>
</svg>
