<?xml version="1.0" encoding="UTF-8" standalone="no"?>
<!DOCTYPE svg PUBLIC "-//W3C//DTD SVG 1.1//EN"
 "http://www.w3.org/Graphics/SVG/1.1/DTD/svg11.dtd">
<!-- Generated by graphviz version 2.43.0 (0)
 -->
<!-- Title: schedule_types.h Pages: 1 -->
<svg width="521pt" height="487pt"
 viewBox="0.00 0.00 521.00 487.00" xmlns="http://www.w3.org/2000/svg" xmlns:xlink="http://www.w3.org/1999/xlink">
<g id="graph0" class="graph" transform="scale(1 1) rotate(0) translate(4 483)">
<title>schedule_types.h</title>
<polygon fill="white" stroke="transparent" points="-4,4 -4,-483 517,-483 517,4 -4,4"/>
<!-- Node1 -->
<g id="node1" class="node">
<title>Node1</title>
<g id="a_node1"><a xlink:title="ODP schedule.">
<polygon fill="#bfbfbf" stroke="black" points="110.5,-459.5 110.5,-478.5 211.5,-478.5 211.5,-459.5 110.5,-459.5"/>
<text text-anchor="middle" x="161" y="-466.5" font-family="Helvetica,sans-Serif" font-size="10.00">schedule_types.h</text>
</a>
</g>
</g>
<!-- Node2 -->
<g id="node2" class="node">
<title>Node2</title>
<g id="a_node2"><a xlink:title=" ">
<polygon fill="white" stroke="#bfbfbf" points="33.5,-392.5 33.5,-422.5 150.5,-422.5 150.5,-392.5 33.5,-392.5"/>
<text text-anchor="start" x="41.5" y="-410.5" font-family="Helvetica,sans-Serif" font-size="10.00">odp/api/abi/schedule</text>
<text text-anchor="middle" x="92" y="-399.5" font-family="Helvetica,sans-Serif" font-size="10.00">_types.h</text>
</a>
</g>
</g>
<!-- Node1&#45;&gt;Node2 -->
<g id="edge1" class="edge">
<title>Node1&#45;&gt;Node2</title>
<path fill="none" stroke="midnightblue" d="M151.11,-459.48C141.94,-451.57 127.93,-439.48 115.85,-429.07"/>
<polygon fill="midnightblue" stroke="midnightblue" points="118.12,-426.4 108.26,-422.52 113.55,-431.7 118.12,-426.4"/>
</g>
<!-- Node3 -->
<g id="node3" class="node">
<title>Node3</title>
<g id="a_node3"><a xlink:href="spec_2schedule__types_8h.html" target="_top" xlink:title="ODP schedule types.">
<polygon fill="white" stroke="black" points="168.5,-392.5 168.5,-422.5 293.5,-422.5 293.5,-392.5 168.5,-392.5"/>
<text text-anchor="start" x="176.5" y="-410.5" font-family="Helvetica,sans-Serif" font-size="10.00">odp/api/spec/schedule</text>
<text text-anchor="middle" x="231" y="-399.5" font-family="Helvetica,sans-Serif" font-size="10.00">_types.h</text>
</a>
</g>
</g>
<!-- Node1&#45;&gt;Node3 -->
<g id="edge2" class="edge">
<title>Node1&#45;&gt;Node3</title>
<path fill="none" stroke="midnightblue" d="M171.03,-459.48C180.33,-451.57 194.55,-439.48 206.8,-429.07"/>
<polygon fill="midnightblue" stroke="midnightblue" points="209.15,-431.67 214.5,-422.52 204.62,-426.33 209.15,-431.67"/>
</g>
<!-- Node4 -->
<g id="node4" class="node">
<title>Node4</title>
<g id="a_node4"><a xlink:title=" ">
<polygon fill="white" stroke="#bfbfbf" points="96.5,-0.5 96.5,-19.5 217.5,-19.5 217.5,-0.5 96.5,-0.5"/>
<text text-anchor="middle" x="157" y="-7.5" font-family="Helvetica,sans-Serif" font-size="10.00">odp/visibility_begin.h</text>
</a>
</g>
</g>
<!-- Node3&#45;&gt;Node4 -->
<g id="edge3" class="edge">
<title>Node3&#45;&gt;Node4</title>
<path fill="none" stroke="midnightblue" d="M181.16,-392.42C113.25,-371.72 0,-331.19 0,-291 0,-291 0,-291 0,-121 0,-66.74 63.68,-36.98 109.93,-22.52"/>
<polygon fill="midnightblue" stroke="midnightblue" points="111.21,-25.79 119.79,-19.58 109.21,-19.08 111.21,-25.79"/>
</g>
<!-- Node5 -->
<g id="node5" class="node">
<title>Node5</title>
<g id="a_node5"><a xlink:href="std__types_8h.html" target="_top" xlink:title="Standard C language types and definitions for ODP.">
<polygon fill="white" stroke="black" points="159,-224.5 159,-243.5 271,-243.5 271,-224.5 159,-224.5"/>
<text text-anchor="middle" x="215" y="-231.5" font-family="Helvetica,sans-Serif" font-size="10.00">odp/api/std_types.h</text>
</a>
</g>
</g>
<!-- Node3&#45;&gt;Node5 -->
<g id="edge4" class="edge">
<title>Node3&#45;&gt;Node5</title>
<path fill="none" stroke="midnightblue" d="M224.49,-392.23C214.62,-368.95 197.59,-321.26 203,-280 204.16,-271.18 206.53,-261.63 208.87,-253.61"/>
<polygon fill="midnightblue" stroke="midnightblue" points="212.29,-254.42 211.91,-243.83 205.6,-252.34 212.29,-254.42"/>
</g>
<!-- Node12 -->
<g id="node12" class="node">
<title>Node12</title>
<g id="a_node12"><a xlink:title=" ">
<polygon fill="white" stroke="#bfbfbf" points="316,-0.5 316,-19.5 428,-19.5 428,-0.5 316,-0.5"/>
<text text-anchor="middle" x="372" y="-7.5" font-family="Helvetica,sans-Serif" font-size="10.00">odp/visibility_end.h</text>
</a>
</g>
</g>
<!-- Node3&#45;&gt;Node12 -->
<g id="edge21" class="edge">
<title>Node3&#45;&gt;Node12</title>
<path fill="none" stroke="midnightblue" d="M293.58,-393.98C376.66,-375.53 513,-338.09 513,-291 513,-291 513,-291 513,-121 513,-69.26 453.26,-38.27 411.55,-22.94"/>
<polygon fill="midnightblue" stroke="midnightblue" points="412.5,-19.56 401.9,-19.55 410.18,-26.17 412.5,-19.56"/>
</g>
<!-- Node13 -->
<g id="node13" class="node">
<title>Node13</title>
<g id="a_node13"><a xlink:href="thrmask_8h.html" target="_top" xlink:title="ODP thread masks.">
<polygon fill="white" stroke="black" points="225.5,-336.5 225.5,-355.5 330.5,-355.5 330.5,-336.5 225.5,-336.5"/>
<text text-anchor="middle" x="278" y="-343.5" font-family="Helvetica,sans-Serif" font-size="10.00">odp/api/thrmask.h</text>
</a>
</g>
</g>
<!-- Node3&#45;&gt;Node13 -->
<g id="edge15" class="edge">
<title>Node3&#45;&gt;Node13</title>
<path fill="none" stroke="midnightblue" d="M242.14,-392.4C248.97,-383.75 257.74,-372.64 264.91,-363.58"/>
<polygon fill="midnightblue" stroke="midnightblue" points="267.71,-365.67 271.16,-355.66 262.22,-361.34 267.71,-365.67"/>
</g>
<!-- Node6 -->
<g id="node6" class="node">
<title>Node6</title>
<g id="a_node6"><a xlink:title=" ">
<polygon fill="white" stroke="#bfbfbf" points="29,-168.5 29,-187.5 159,-187.5 159,-168.5 29,-168.5"/>
<text text-anchor="middle" x="94" y="-175.5" font-family="Helvetica,sans-Serif" font-size="10.00">odp/api/abi/std_types.h</text>
</a>
</g>
</g>
<!-- Node5&#45;&gt;Node6 -->
<g id="edge5" class="edge">
<title>Node5&#45;&gt;Node6</title>
<path fill="none" stroke="midnightblue" d="M195.83,-224.44C176.09,-215.64 145.11,-201.81 122.51,-191.72"/>
<polygon fill="midnightblue" stroke="midnightblue" points="123.64,-188.4 113.08,-187.52 120.79,-194.79 123.64,-188.4"/>
</g>
<!-- Node7 -->
<g id="node7" class="node">
<title>Node7</title>
<g id="a_node7"><a xlink:href="spec_2std__types_8h.html" target="_top" xlink:title="Common types and definitions for ODP API files.">
<polygon fill="white" stroke="black" points="177.5,-168.5 177.5,-187.5 314.5,-187.5 314.5,-168.5 177.5,-168.5"/>
<text text-anchor="middle" x="246" y="-175.5" font-family="Helvetica,sans-Serif" font-size="10.00">odp/api/spec/std_types.h</text>
</a>
</g>
</g>
<!-- Node5&#45;&gt;Node7 -->
<g id="edge6" class="edge">
<title>Node5&#45;&gt;Node7</title>
<path fill="none" stroke="midnightblue" d="M220.12,-224.08C224.41,-216.61 230.66,-205.72 235.94,-196.52"/>
<polygon fill="midnightblue" stroke="midnightblue" points="239.03,-198.17 240.98,-187.75 232.96,-194.68 239.03,-198.17"/>
</g>
<!-- Node7&#45;&gt;Node4 -->
<g id="edge7" class="edge">
<title>Node7&#45;&gt;Node4</title>
<path fill="none" stroke="midnightblue" d="M198.86,-168.42C151.56,-156.84 82.19,-130.96 57,-76 44.85,-49.5 76.3,-32.49 107.07,-22.55"/>
<polygon fill="midnightblue" stroke="midnightblue" points="108.42,-25.8 116.98,-19.56 106.4,-19.1 108.42,-25.8"/>
</g>
<!-- Node8 -->
<g id="node8" class="node">
<title>Node8</title>
<g id="a_node8"><a xlink:title=" ">
<polygon fill="white" stroke="#bfbfbf" points="131.5,-112.5 131.5,-131.5 184.5,-131.5 184.5,-112.5 131.5,-112.5"/>
<text text-anchor="middle" x="158" y="-119.5" font-family="Helvetica,sans-Serif" font-size="10.00">stdint.h</text>
</a>
</g>
</g>
<!-- Node7&#45;&gt;Node8 -->
<g id="edge8" class="edge">
<title>Node7&#45;&gt;Node8</title>
<path fill="none" stroke="midnightblue" d="M231.86,-168.32C218.13,-159.9 197.06,-146.97 180.94,-137.07"/>
<polygon fill="midnightblue" stroke="midnightblue" points="182.46,-133.9 172.1,-131.65 178.8,-139.87 182.46,-133.9"/>
</g>
<!-- Node9 -->
<g id="node9" class="node">
<title>Node9</title>
<g id="a_node9"><a xlink:href="align_8h.html" target="_top" xlink:title="ODP alignments.">
<polygon fill="white" stroke="black" points="202.5,-112.5 202.5,-131.5 291.5,-131.5 291.5,-112.5 202.5,-112.5"/>
<text text-anchor="middle" x="247" y="-119.5" font-family="Helvetica,sans-Serif" font-size="10.00">odp/api/align.h</text>
</a>
</g>
</g>
<!-- Node7&#45;&gt;Node9 -->
<g id="edge9" class="edge">
<title>Node7&#45;&gt;Node9</title>
<path fill="none" stroke="midnightblue" d="M246.17,-168.08C246.3,-161.01 246.48,-150.86 246.65,-141.99"/>
<polygon fill="midnightblue" stroke="midnightblue" points="250.15,-141.81 246.84,-131.75 243.15,-141.68 250.15,-141.81"/>
</g>
<!-- Node7&#45;&gt;Node12 -->
<g id="edge14" class="edge">
<title>Node7&#45;&gt;Node12</title>
<path fill="none" stroke="midnightblue" d="M258.63,-168.39C270.29,-160.02 287.64,-146.48 300,-132 328.18,-98.97 351.92,-53.52 363.81,-28.79"/>
<polygon fill="midnightblue" stroke="midnightblue" points="367.07,-30.1 368.16,-19.56 360.73,-27.11 367.07,-30.1"/>
</g>
<!-- Node10 -->
<g id="node10" class="node">
<title>Node10</title>
<g id="a_node10"><a xlink:title=" ">
<polygon fill="white" stroke="#bfbfbf" points="66.5,-56.5 66.5,-75.5 173.5,-75.5 173.5,-56.5 66.5,-56.5"/>
<text text-anchor="middle" x="120" y="-63.5" font-family="Helvetica,sans-Serif" font-size="10.00">odp/api/abi/align.h</text>
</a>
</g>
</g>
<!-- Node9&#45;&gt;Node10 -->
<g id="edge10" class="edge">
<title>Node9&#45;&gt;Node10</title>
<path fill="none" stroke="midnightblue" d="M226.88,-112.44C205.98,-103.56 173.07,-89.56 149.28,-79.45"/>
<polygon fill="midnightblue" stroke="midnightblue" points="150.6,-76.21 140.03,-75.52 147.86,-82.65 150.6,-76.21"/>
</g>
<!-- Node11 -->
<g id="node11" class="node">
<title>Node11</title>
<g id="a_node11"><a xlink:href="spec_2align_8h.html" target="_top" xlink:title="ODP alignments.">
<polygon fill="white" stroke="black" points="192,-56.5 192,-75.5 306,-75.5 306,-56.5 192,-56.5"/>
<text text-anchor="middle" x="249" y="-63.5" font-family="Helvetica,sans-Serif" font-size="10.00">odp/api/spec/align.h</text>
</a>
</g>
</g>
<!-- Node9&#45;&gt;Node11 -->
<g id="edge11" class="edge">
<title>Node9&#45;&gt;Node11</title>
<path fill="none" stroke="midnightblue" d="M247.33,-112.08C247.59,-105.01 247.97,-94.86 248.3,-85.99"/>
<polygon fill="midnightblue" stroke="midnightblue" points="251.8,-85.87 248.68,-75.75 244.81,-85.61 251.8,-85.87"/>
</g>
<!-- Node11&#45;&gt;Node4 -->
<g id="edge12" class="edge">
<title>Node11&#45;&gt;Node4</title>
<path fill="none" stroke="midnightblue" d="M234.22,-56.32C219.73,-47.82 197.43,-34.73 180.51,-24.8"/>
<polygon fill="midnightblue" stroke="midnightblue" points="182.14,-21.7 171.74,-19.65 178.6,-27.74 182.14,-21.7"/>
</g>
<!-- Node11&#45;&gt;Node12 -->
<g id="edge13" class="edge">
<title>Node11&#45;&gt;Node12</title>
<path fill="none" stroke="midnightblue" d="M268.49,-56.44C288.64,-47.6 320.32,-33.69 343.33,-23.59"/>
<polygon fill="midnightblue" stroke="midnightblue" points="344.85,-26.74 352.6,-19.52 342.04,-20.33 344.85,-26.74"/>
</g>
<!-- Node14 -->
<g id="node14" class="node">
<title>Node14</title>
<g id="a_node14"><a xlink:title=" ">
<polygon fill="white" stroke="#bfbfbf" points="361.5,-280.5 361.5,-299.5 484.5,-299.5 484.5,-280.5 361.5,-280.5"/>
<text text-anchor="middle" x="423" y="-287.5" font-family="Helvetica,sans-Serif" font-size="10.00">odp/api/abi/thrmask.h</text>
</a>
</g>
</g>
<!-- Node13&#45;&gt;Node14 -->
<g id="edge16" class="edge">
<title>Node13&#45;&gt;Node14</title>
<path fill="none" stroke="midnightblue" d="M300.98,-336.44C325.16,-327.44 363.42,-313.19 390.65,-303.05"/>
<polygon fill="midnightblue" stroke="midnightblue" points="391.98,-306.29 400.13,-299.52 389.54,-299.73 391.98,-306.29"/>
</g>
<!-- Node15 -->
<g id="node15" class="node">
<title>Node15</title>
<g id="a_node15"><a xlink:href="spec_2thrmask_8h.html" target="_top" xlink:title="ODP thread masks.">
<polygon fill="white" stroke="black" points="212.5,-280.5 212.5,-299.5 343.5,-299.5 343.5,-280.5 212.5,-280.5"/>
<text text-anchor="middle" x="278" y="-287.5" font-family="Helvetica,sans-Serif" font-size="10.00">odp/api/spec/thrmask.h</text>
</a>
</g>
</g>
<!-- Node13&#45;&gt;Node15 -->
<g id="edge17" class="edge">
<title>Node13&#45;&gt;Node15</title>
<path fill="none" stroke="midnightblue" d="M278,-336.08C278,-329.01 278,-318.86 278,-309.99"/>
<polygon fill="midnightblue" stroke="midnightblue" points="281.5,-309.75 278,-299.75 274.5,-309.75 281.5,-309.75"/>
</g>
<!-- Node15&#45;&gt;Node4 -->
<g id="edge18" class="edge">
<title>Node15&#45;&gt;Node4</title>
<path fill="none" stroke="midnightblue" d="M293.52,-280.35C320.22,-264.2 372,-226.73 372,-179 372,-179 372,-179 372,-121 372,-54.83 290.3,-28.44 227.63,-17.93"/>
<polygon fill="midnightblue" stroke="midnightblue" points="228.17,-14.47 217.75,-16.38 227.08,-21.39 228.17,-14.47"/>
</g>
<!-- Node15&#45;&gt;Node5 -->
<g id="edge19" class="edge">
<title>Node15&#45;&gt;Node5</title>
<path fill="none" stroke="midnightblue" d="M267.88,-280.32C258.47,-272.26 244.26,-260.08 232.93,-250.37"/>
<polygon fill="midnightblue" stroke="midnightblue" points="235.18,-247.68 225.31,-243.83 230.62,-253 235.18,-247.68"/>
</g>
<!-- Node15&#45;&gt;Node12 -->
<g id="edge20" class="edge">
<title>Node15&#45;&gt;Node12</title>
<path fill="none" stroke="midnightblue" d="M318.76,-280.49C341.21,-273.92 368.07,-262.69 386,-244 407.32,-221.78 410,-209.8 410,-179 410,-179 410,-179 410,-121 410,-86.81 393.4,-49.76 382.14,-28.57"/>
<polygon fill="midnightblue" stroke="midnightblue" points="385.18,-26.83 377.28,-19.77 379.05,-30.22 385.18,-26.83"/>
</g>
</g>
</svg>
