<?xml version="1.0" encoding="UTF-8" standalone="no"?>
<!DOCTYPE svg PUBLIC "-//W3C//DTD SVG 1.1//EN"
 "http://www.w3.org/Graphics/SVG/1.1/DTD/svg11.dtd">
<!-- Generated by graphviz version 2.43.0 (0)
 -->
<!-- Title: crypto.h Pages: 1 -->
<svg width="1572pt" height="1169pt"
 viewBox="0.00 0.00 1572.00 1169.00" xmlns="http://www.w3.org/2000/svg" xmlns:xlink="http://www.w3.org/1999/xlink">
<g id="graph0" class="graph" transform="scale(1 1) rotate(0) translate(4 1165)">
<title>crypto.h</title>
<polygon fill="white" stroke="transparent" points="-4,4 -4,-1165 1568,-1165 1568,4 -4,4"/>
<!-- Node1 -->
<g id="node1" class="node">
<title>Node1</title>
<g id="a_node1"><a xlink:title="ODP crypto.">
<polygon fill="#bfbfbf" stroke="black" points="553,-1141.5 553,-1160.5 609,-1160.5 609,-1141.5 553,-1141.5"/>
<text text-anchor="middle" x="581" y="-1148.5" font-family="Helvetica,sans-Serif" font-size="10.00">crypto.h</text>
</a>
</g>
</g>
<!-- Node2 -->
<g id="node2" class="node">
<title>Node2</title>
<g id="a_node2"><a xlink:title=" ">
<polygon fill="white" stroke="#bfbfbf" points="990.5,-0.5 990.5,-19.5 1111.5,-19.5 1111.5,-0.5 990.5,-0.5"/>
<text text-anchor="middle" x="1051" y="-7.5" font-family="Helvetica,sans-Serif" font-size="10.00">odp/visibility_begin.h</text>
</a>
</g>
</g>
<!-- Node1&#45;&gt;Node2 -->
<g id="edge1" class="edge">
<title>Node1&#45;&gt;Node2</title>
<path fill="none" stroke="midnightblue" d="M609.1,-1149.73C769.67,-1147.82 1564,-1133.36 1564,-1034.5 1564,-1034.5 1564,-1034.5 1564,-132 1564,-78.96 1520.88,-76.58 1472,-56 1410.53,-30.12 1224.68,-18.32 1121.66,-13.64"/>
<polygon fill="midnightblue" stroke="midnightblue" points="1121.8,-10.14 1111.65,-13.2 1121.49,-17.14 1121.8,-10.14"/>
</g>
<!-- Node3 -->
<g id="node3" class="node">
<title>Node3</title>
<g id="a_node3"><a xlink:href="crypto__types_8h.html" target="_top" xlink:title="ODP crypto.">
<polygon fill="white" stroke="black" points="517,-1085.5 517,-1104.5 645,-1104.5 645,-1085.5 517,-1085.5"/>
<text text-anchor="middle" x="581" y="-1092.5" font-family="Helvetica,sans-Serif" font-size="10.00">odp/api/crypto_types.h</text>
</a>
</g>
</g>
<!-- Node1&#45;&gt;Node3 -->
<g id="edge2" class="edge">
<title>Node1&#45;&gt;Node3</title>
<path fill="none" stroke="midnightblue" d="M581,-1141.08C581,-1134.01 581,-1123.86 581,-1114.99"/>
<polygon fill="midnightblue" stroke="midnightblue" points="584.5,-1114.75 581,-1104.75 577.5,-1114.75 584.5,-1114.75"/>
</g>
<!-- Node6 -->
<g id="node6" class="node">
<title>Node6</title>
<g id="a_node6"><a xlink:href="packet__types_8h.html" target="_top" xlink:title="ODP packet.">
<polygon fill="white" stroke="black" points="1268.5,-738.5 1268.5,-757.5 1397.5,-757.5 1397.5,-738.5 1268.5,-738.5"/>
<text text-anchor="middle" x="1333" y="-745.5" font-family="Helvetica,sans-Serif" font-size="10.00">odp/api/packet_types.h</text>
</a>
</g>
</g>
<!-- Node1&#45;&gt;Node6 -->
<g id="edge74" class="edge">
<title>Node1&#45;&gt;Node6</title>
<path fill="none" stroke="midnightblue" d="M609.14,-1149.45C762.23,-1146.09 1488,-1125.38 1488,-1034.5 1488,-1034.5 1488,-1034.5 1488,-859 1488,-805.05 1424.77,-775.14 1379.08,-760.57"/>
<polygon fill="midnightblue" stroke="midnightblue" points="1379.93,-757.17 1369.34,-757.61 1377.89,-763.87 1379.93,-757.17"/>
</g>
<!-- Node13 -->
<g id="node13" class="node">
<title>Node13</title>
<g id="a_node13"><a xlink:href="std__types_8h.html" target="_top" xlink:title="Standard C language types and definitions for ODP.">
<polygon fill="white" stroke="black" points="332,-235.5 332,-254.5 444,-254.5 444,-235.5 332,-235.5"/>
<text text-anchor="middle" x="388" y="-242.5" font-family="Helvetica,sans-Serif" font-size="10.00">odp/api/std_types.h</text>
</a>
</g>
</g>
<!-- Node1&#45;&gt;Node13 -->
<g id="edge75" class="edge">
<title>Node1&#45;&gt;Node13</title>
<path fill="none" stroke="midnightblue" d="M552.77,-1149.64C446.42,-1147.53 76,-1133.09 76,-1034.5 76,-1034.5 76,-1034.5 76,-803 76,-722.54 114,-706.46 114,-626 114,-626 114,-626 114,-439.5 114,-330.88 259.46,-277.82 338.41,-257.02"/>
<polygon fill="midnightblue" stroke="midnightblue" points="339.34,-260.39 348.16,-254.53 337.6,-253.61 339.34,-260.39"/>
</g>
<!-- Node20 -->
<g id="node20" class="node">
<title>Node20</title>
<g id="a_node20"><a xlink:title=" ">
<polygon fill="white" stroke="#bfbfbf" points="261,-0.5 261,-19.5 373,-19.5 373,-0.5 261,-0.5"/>
<text text-anchor="middle" x="317" y="-7.5" font-family="Helvetica,sans-Serif" font-size="10.00">odp/visibility_end.h</text>
</a>
</g>
</g>
<!-- Node1&#45;&gt;Node20 -->
<g id="edge76" class="edge">
<title>Node1&#45;&gt;Node20</title>
<path fill="none" stroke="midnightblue" d="M552.98,-1150.47C436.92,-1151.68 0,-1148.65 0,-1034.5 0,-1034.5 0,-1034.5 0,-132 0,-91.81 15.43,-78.1 49,-56 81.33,-34.72 182.31,-22.23 250.66,-16.01"/>
<polygon fill="midnightblue" stroke="midnightblue" points="251.26,-19.47 260.91,-15.1 250.64,-12.49 251.26,-19.47"/>
</g>
<!-- Node4 -->
<g id="node4" class="node">
<title>Node4</title>
<g id="a_node4"><a xlink:title=" ">
<polygon fill="white" stroke="#bfbfbf" points="592,-1018.5 592,-1048.5 696,-1048.5 696,-1018.5 592,-1018.5"/>
<text text-anchor="start" x="600" y="-1036.5" font-family="Helvetica,sans-Serif" font-size="10.00">odp/api/abi/crypto</text>
<text text-anchor="middle" x="644" y="-1025.5" font-family="Helvetica,sans-Serif" font-size="10.00">_types.h</text>
</a>
</g>
</g>
<!-- Node3&#45;&gt;Node4 -->
<g id="edge3" class="edge">
<title>Node3&#45;&gt;Node4</title>
<path fill="none" stroke="midnightblue" d="M590.03,-1085.48C598.24,-1077.72 610.71,-1065.94 621.59,-1055.66"/>
<polygon fill="midnightblue" stroke="midnightblue" points="624.29,-1057.93 629.15,-1048.52 619.48,-1052.84 624.29,-1057.93"/>
</g>
<!-- Node5 -->
<g id="node5" class="node">
<title>Node5</title>
<g id="a_node5"><a xlink:href="spec_2crypto__types_8h.html" target="_top" xlink:title="ODP crypto types.">
<polygon fill="white" stroke="black" points="462,-1018.5 462,-1048.5 574,-1048.5 574,-1018.5 462,-1018.5"/>
<text text-anchor="start" x="470" y="-1036.5" font-family="Helvetica,sans-Serif" font-size="10.00">odp/api/spec/crypto</text>
<text text-anchor="middle" x="518" y="-1025.5" font-family="Helvetica,sans-Serif" font-size="10.00">_types.h</text>
</a>
</g>
</g>
<!-- Node3&#45;&gt;Node5 -->
<g id="edge4" class="edge">
<title>Node3&#45;&gt;Node5</title>
<path fill="none" stroke="midnightblue" d="M571.97,-1085.48C563.76,-1077.72 551.29,-1065.94 540.41,-1055.66"/>
<polygon fill="midnightblue" stroke="midnightblue" points="542.52,-1052.84 532.85,-1048.52 537.71,-1057.93 542.52,-1052.84"/>
</g>
<!-- Node5&#45;&gt;Node2 -->
<g id="edge5" class="edge">
<title>Node5&#45;&gt;Node2</title>
<path fill="none" stroke="midnightblue" d="M574.27,-1019.34C577.21,-1018.84 580.14,-1018.39 583,-1018 738.44,-996.85 1140.39,-1035.09 1288,-982 1412.05,-937.39 1526,-936.82 1526,-805 1526,-805 1526,-805 1526,-132 1526,-49.58 1254.05,-22.61 1121.69,-14.37"/>
<polygon fill="midnightblue" stroke="midnightblue" points="1121.83,-10.87 1111.64,-13.76 1121.41,-17.86 1121.83,-10.87"/>
</g>
<!-- Node5&#45;&gt;Node6 -->
<g id="edge6" class="edge">
<title>Node5&#45;&gt;Node6</title>
<path fill="none" stroke="midnightblue" d="M574.31,-1019.65C577.25,-1019.07 580.16,-1018.52 583,-1018 742.41,-989.12 1305,-1079.01 1305,-917 1305,-917 1305,-917 1305,-859 1305,-825.79 1317.13,-788.63 1325.43,-767.12"/>
<polygon fill="midnightblue" stroke="midnightblue" points="1328.75,-768.23 1329.22,-757.65 1322.25,-765.63 1328.75,-768.23"/>
</g>
<!-- Node5&#45;&gt;Node13 -->
<g id="edge72" class="edge">
<title>Node5&#45;&gt;Node13</title>
<path fill="none" stroke="midnightblue" d="M461.76,-1030.7C387.49,-1024.98 266,-1002.54 266,-917 266,-917 266,-917 266,-372.5 266,-318.44 324.43,-278.62 360.42,-259.22"/>
<polygon fill="midnightblue" stroke="midnightblue" points="362.21,-262.23 369.47,-254.51 358.98,-256.02 362.21,-262.23"/>
</g>
<!-- Node5&#45;&gt;Node20 -->
<g id="edge73" class="edge">
<title>Node5&#45;&gt;Node20</title>
<path fill="none" stroke="midnightblue" d="M462,-1030.77C335.38,-1025.33 38,-1003.35 38,-917 38,-917 38,-917 38,-132 38,-39.63 168.31,-17 250.81,-11.93"/>
<polygon fill="midnightblue" stroke="midnightblue" points="251.08,-15.42 260.88,-11.38 250.7,-8.43 251.08,-15.42"/>
</g>
<!-- Node30 -->
<g id="node30" class="node">
<title>Node30</title>
<g id="a_node30"><a xlink:href="pool__types_8h.html" target="_top" xlink:title="ODP pool.">
<polygon fill="white" stroke="black" points="459,-962.5 459,-981.5 577,-981.5 577,-962.5 459,-962.5"/>
<text text-anchor="middle" x="518" y="-969.5" font-family="Helvetica,sans-Serif" font-size="10.00">odp/api/pool_types.h</text>
</a>
</g>
</g>
<!-- Node5&#45;&gt;Node30 -->
<g id="edge45" class="edge">
<title>Node5&#45;&gt;Node30</title>
<path fill="none" stroke="midnightblue" d="M518,-1018.4C518,-1010.47 518,-1000.46 518,-991.86"/>
<polygon fill="midnightblue" stroke="midnightblue" points="521.5,-991.66 518,-981.66 514.5,-991.66 521.5,-991.66"/>
</g>
<!-- Node7 -->
<g id="node7" class="node">
<title>Node7</title>
<g id="a_node7"><a xlink:title=" ">
<polygon fill="white" stroke="#bfbfbf" points="1268,-671.5 1268,-701.5 1374,-701.5 1374,-671.5 1268,-671.5"/>
<text text-anchor="start" x="1276" y="-689.5" font-family="Helvetica,sans-Serif" font-size="10.00">odp/api/abi/packet</text>
<text text-anchor="middle" x="1321" y="-678.5" font-family="Helvetica,sans-Serif" font-size="10.00">_io_types.h</text>
</a>
</g>
</g>
<!-- Node6&#45;&gt;Node7 -->
<g id="edge7" class="edge">
<title>Node6&#45;&gt;Node7</title>
<path fill="none" stroke="midnightblue" d="M1331.28,-738.48C1329.85,-731.4 1327.75,-720.97 1325.82,-711.39"/>
<polygon fill="midnightblue" stroke="midnightblue" points="1329.24,-710.63 1323.83,-701.52 1322.37,-712.02 1329.24,-710.63"/>
</g>
<!-- Node8 -->
<g id="node8" class="node">
<title>Node8</title>
<g id="a_node8"><a xlink:title=" ">
<polygon fill="white" stroke="#bfbfbf" points="1392,-671.5 1392,-701.5 1498,-701.5 1498,-671.5 1392,-671.5"/>
<text text-anchor="start" x="1400" y="-689.5" font-family="Helvetica,sans-Serif" font-size="10.00">odp/api/abi/packet</text>
<text text-anchor="middle" x="1445" y="-678.5" font-family="Helvetica,sans-Serif" font-size="10.00">_types.h</text>
</a>
</g>
</g>
<!-- Node6&#45;&gt;Node8 -->
<g id="edge8" class="edge">
<title>Node6&#45;&gt;Node8</title>
<path fill="none" stroke="midnightblue" d="M1349.05,-738.48C1364.78,-730.12 1389.3,-717.09 1409.61,-706.3"/>
<polygon fill="midnightblue" stroke="midnightblue" points="1411.41,-709.31 1418.6,-701.52 1408.13,-703.12 1411.41,-709.31"/>
</g>
<!-- Node9 -->
<g id="node9" class="node">
<title>Node9</title>
<g id="a_node9"><a xlink:href="spec_2packet__types_8h.html" target="_top" xlink:title="ODP packet types.">
<polygon fill="white" stroke="black" points="1060.5,-671.5 1060.5,-701.5 1173.5,-701.5 1173.5,-671.5 1060.5,-671.5"/>
<text text-anchor="start" x="1068.5" y="-689.5" font-family="Helvetica,sans-Serif" font-size="10.00">odp/api/spec/packet</text>
<text text-anchor="middle" x="1117" y="-678.5" font-family="Helvetica,sans-Serif" font-size="10.00">_types.h</text>
</a>
</g>
</g>
<!-- Node6&#45;&gt;Node9 -->
<g id="edge9" class="edge">
<title>Node6&#45;&gt;Node9</title>
<path fill="none" stroke="midnightblue" d="M1302.05,-738.48C1269.72,-729.57 1218.17,-715.37 1177.68,-704.22"/>
<polygon fill="midnightblue" stroke="midnightblue" points="1178.48,-700.8 1167.91,-701.52 1176.62,-707.55 1178.48,-700.8"/>
</g>
<!-- Node9&#45;&gt;Node2 -->
<g id="edge10" class="edge">
<title>Node9&#45;&gt;Node2</title>
<path fill="none" stroke="midnightblue" d="M1156.23,-671.41C1216,-648.72 1323,-602.76 1323,-564.5 1323,-564.5 1323,-564.5 1323,-132 1323,-43.9 1202.4,-19.48 1121.81,-12.99"/>
<polygon fill="midnightblue" stroke="midnightblue" points="1121.93,-9.49 1111.7,-12.25 1121.42,-16.47 1121.93,-9.49"/>
</g>
<!-- Node10 -->
<g id="node10" class="node">
<title>Node10</title>
<g id="a_node10"><a xlink:href="proto__stats__types_8h.html" target="_top" xlink:title="ODP proto stats types.">
<polygon fill="white" stroke="black" points="1100,-358.5 1100,-388.5 1210,-388.5 1210,-358.5 1100,-358.5"/>
<text text-anchor="start" x="1108" y="-376.5" font-family="Helvetica,sans-Serif" font-size="10.00">odp/api/proto_stats</text>
<text text-anchor="middle" x="1155" y="-365.5" font-family="Helvetica,sans-Serif" font-size="10.00">_types.h</text>
</a>
</g>
</g>
<!-- Node9&#45;&gt;Node10 -->
<g id="edge11" class="edge">
<title>Node9&#45;&gt;Node10</title>
<path fill="none" stroke="midnightblue" d="M1124.51,-671.42C1135.58,-649.31 1155,-604.79 1155,-564.5 1155,-564.5 1155,-564.5 1155,-501 1155,-465.42 1155,-424.2 1155,-398.74"/>
<polygon fill="midnightblue" stroke="midnightblue" points="1158.5,-398.54 1155,-388.54 1151.5,-398.54 1158.5,-398.54"/>
</g>
<!-- Node9&#45;&gt;Node20 -->
<g id="edge44" class="edge">
<title>Node9&#45;&gt;Node20</title>
<path fill="none" stroke="midnightblue" d="M1117.22,-671.28C1117.16,-645.69 1114.86,-590.57 1098,-548 1063.2,-460.12 975,-469.02 975,-374.5 975,-374.5 975,-374.5 975,-188 975,-61.54 823.3,-141.09 709,-87 683.99,-75.16 681.21,-64.88 655,-56 564.21,-25.23 453.03,-15.38 383.59,-12.3"/>
<polygon fill="midnightblue" stroke="midnightblue" points="383.37,-8.79 373.23,-11.88 383.08,-15.78 383.37,-8.79"/>
</g>
<!-- Node21 -->
<g id="node21" class="node">
<title>Node21</title>
<g id="a_node21"><a xlink:href="queue__types_8h.html" target="_top" xlink:title="ODP queue.">
<polygon fill="white" stroke="black" points="814.5,-615.5 814.5,-634.5 941.5,-634.5 941.5,-615.5 814.5,-615.5"/>
<text text-anchor="middle" x="878" y="-622.5" font-family="Helvetica,sans-Serif" font-size="10.00">odp/api/queue_types.h</text>
</a>
</g>
</g>
<!-- Node9&#45;&gt;Node21 -->
<g id="edge27" class="edge">
<title>Node9&#45;&gt;Node21</title>
<path fill="none" stroke="midnightblue" d="M1060.66,-671.47C1018.35,-660.94 961.21,-646.72 922.18,-637"/>
<polygon fill="midnightblue" stroke="midnightblue" points="922.72,-633.53 912.17,-634.51 921.03,-640.32 922.72,-633.53"/>
</g>
<!-- Node11 -->
<g id="node11" class="node">
<title>Node11</title>
<g id="a_node11"><a xlink:title=" ">
<polygon fill="white" stroke="#bfbfbf" points="1167,-291.5 1167,-321.5 1295,-321.5 1295,-291.5 1167,-291.5"/>
<text text-anchor="start" x="1175" y="-309.5" font-family="Helvetica,sans-Serif" font-size="10.00">odp/api/abi/proto_stats</text>
<text text-anchor="middle" x="1231" y="-298.5" font-family="Helvetica,sans-Serif" font-size="10.00">_types.h</text>
</a>
</g>
</g>
<!-- Node10&#45;&gt;Node11 -->
<g id="edge12" class="edge">
<title>Node10&#45;&gt;Node11</title>
<path fill="none" stroke="midnightblue" d="M1171.49,-358.4C1181.85,-349.54 1195.38,-337.96 1206.93,-328.09"/>
<polygon fill="midnightblue" stroke="midnightblue" points="1209.22,-330.74 1214.54,-321.58 1204.67,-325.42 1209.22,-330.74"/>
</g>
<!-- Node12 -->
<g id="node12" class="node">
<title>Node12</title>
<g id="a_node12"><a xlink:href="spec_2proto__stats__types_8h.html" target="_top" xlink:title="ODP proto stats types.">
<polygon fill="white" stroke="black" points="1041.5,-291.5 1041.5,-321.5 1148.5,-321.5 1148.5,-291.5 1041.5,-291.5"/>
<text text-anchor="start" x="1049.5" y="-309.5" font-family="Helvetica,sans-Serif" font-size="10.00">odp/api/spec/proto</text>
<text text-anchor="middle" x="1095" y="-298.5" font-family="Helvetica,sans-Serif" font-size="10.00">_stats_types.h</text>
</a>
</g>
</g>
<!-- Node10&#45;&gt;Node12 -->
<g id="edge13" class="edge">
<title>Node10&#45;&gt;Node12</title>
<path fill="none" stroke="midnightblue" d="M1141.98,-358.4C1134.04,-349.79 1123.73,-338.63 1114.8,-328.94"/>
<polygon fill="midnightblue" stroke="midnightblue" points="1117.35,-326.55 1107.99,-321.58 1112.2,-331.3 1117.35,-326.55"/>
</g>
<!-- Node12&#45;&gt;Node2 -->
<g id="edge14" class="edge">
<title>Node12&#45;&gt;Node2</title>
<path fill="none" stroke="midnightblue" d="M1094.39,-291.28C1093.52,-269.48 1092,-226.51 1092,-190 1092,-190 1092,-190 1092,-132 1092,-93.55 1073.2,-51.69 1061.06,-28.67"/>
<polygon fill="midnightblue" stroke="midnightblue" points="1064.06,-26.86 1056.19,-19.76 1057.92,-30.21 1064.06,-26.86"/>
</g>
<!-- Node12&#45;&gt;Node13 -->
<g id="edge15" class="edge">
<title>Node12&#45;&gt;Node13</title>
<path fill="none" stroke="midnightblue" d="M1041.28,-300.98C913.8,-290.25 593.31,-263.28 454.18,-251.57"/>
<polygon fill="midnightblue" stroke="midnightblue" points="454.34,-248.07 444.08,-250.72 453.75,-255.05 454.34,-248.07"/>
</g>
<!-- Node12&#45;&gt;Node20 -->
<g id="edge26" class="edge">
<title>Node12&#45;&gt;Node20</title>
<path fill="none" stroke="midnightblue" d="M1090.21,-291.14C1078.29,-257.42 1044.22,-172.28 989,-123 933.62,-73.57 907.93,-74.34 836,-56 752.12,-34.62 503.5,-20.05 383.41,-14.06"/>
<polygon fill="midnightblue" stroke="midnightblue" points="383.4,-10.56 373.24,-13.56 383.05,-17.55 383.4,-10.56"/>
</g>
<!-- Node14 -->
<g id="node14" class="node">
<title>Node14</title>
<g id="a_node14"><a xlink:title=" ">
<polygon fill="white" stroke="#bfbfbf" points="180,-179.5 180,-198.5 310,-198.5 310,-179.5 180,-179.5"/>
<text text-anchor="middle" x="245" y="-186.5" font-family="Helvetica,sans-Serif" font-size="10.00">odp/api/abi/std_types.h</text>
</a>
</g>
</g>
<!-- Node13&#45;&gt;Node14 -->
<g id="edge16" class="edge">
<title>Node13&#45;&gt;Node14</title>
<path fill="none" stroke="midnightblue" d="M365.34,-235.44C341.6,-226.48 304.09,-212.31 277.26,-202.18"/>
<polygon fill="midnightblue" stroke="midnightblue" points="278.14,-198.77 267.55,-198.52 275.67,-205.32 278.14,-198.77"/>
</g>
<!-- Node15 -->
<g id="node15" class="node">
<title>Node15</title>
<g id="a_node15"><a xlink:href="spec_2std__types_8h.html" target="_top" xlink:title="Common types and definitions for ODP API files.">
<polygon fill="white" stroke="black" points="328.5,-179.5 328.5,-198.5 465.5,-198.5 465.5,-179.5 328.5,-179.5"/>
<text text-anchor="middle" x="397" y="-186.5" font-family="Helvetica,sans-Serif" font-size="10.00">odp/api/spec/std_types.h</text>
</a>
</g>
</g>
<!-- Node13&#45;&gt;Node15 -->
<g id="edge17" class="edge">
<title>Node13&#45;&gt;Node15</title>
<path fill="none" stroke="midnightblue" d="M389.49,-235.08C390.68,-227.93 392.39,-217.64 393.88,-208.69"/>
<polygon fill="midnightblue" stroke="midnightblue" points="397.35,-209.19 395.54,-198.75 390.45,-208.04 397.35,-209.19"/>
</g>
<!-- Node15&#45;&gt;Node2 -->
<g id="edge18" class="edge">
<title>Node15&#45;&gt;Node2</title>
<path fill="none" stroke="midnightblue" d="M465.88,-180.74C554.7,-169.48 712.4,-142.99 836,-87 857.46,-77.28 857.69,-66.04 879,-56 913.54,-39.73 954.86,-28.67 988.35,-21.6"/>
<polygon fill="midnightblue" stroke="midnightblue" points="989.37,-24.96 998.47,-19.52 987.97,-18.1 989.37,-24.96"/>
</g>
<!-- Node16 -->
<g id="node16" class="node">
<title>Node16</title>
<g id="a_node16"><a xlink:title=" ">
<polygon fill="white" stroke="#bfbfbf" points="304.5,-123.5 304.5,-142.5 357.5,-142.5 357.5,-123.5 304.5,-123.5"/>
<text text-anchor="middle" x="331" y="-130.5" font-family="Helvetica,sans-Serif" font-size="10.00">stdint.h</text>
</a>
</g>
</g>
<!-- Node15&#45;&gt;Node16 -->
<g id="edge19" class="edge">
<title>Node15&#45;&gt;Node16</title>
<path fill="none" stroke="midnightblue" d="M386.4,-179.32C376.54,-171.26 361.65,-159.08 349.78,-149.37"/>
<polygon fill="midnightblue" stroke="midnightblue" points="351.75,-146.46 341.8,-142.83 347.32,-151.88 351.75,-146.46"/>
</g>
<!-- Node17 -->
<g id="node17" class="node">
<title>Node17</title>
<g id="a_node17"><a xlink:href="align_8h.html" target="_top" xlink:title="ODP alignments.">
<polygon fill="white" stroke="black" points="414.5,-123.5 414.5,-142.5 503.5,-142.5 503.5,-123.5 414.5,-123.5"/>
<text text-anchor="middle" x="459" y="-130.5" font-family="Helvetica,sans-Serif" font-size="10.00">odp/api/align.h</text>
</a>
</g>
</g>
<!-- Node15&#45;&gt;Node17 -->
<g id="edge20" class="edge">
<title>Node15&#45;&gt;Node17</title>
<path fill="none" stroke="midnightblue" d="M406.96,-179.32C416.13,-171.34 429.94,-159.31 441.03,-149.65"/>
<polygon fill="midnightblue" stroke="midnightblue" points="443.62,-152.04 448.86,-142.83 439.02,-146.76 443.62,-152.04"/>
</g>
<!-- Node15&#45;&gt;Node20 -->
<g id="edge25" class="edge">
<title>Node15&#45;&gt;Node20</title>
<path fill="none" stroke="midnightblue" d="M350.64,-179.47C329.93,-173.1 307.42,-162.05 295,-143 271.83,-107.45 292.92,-55.43 306.91,-28.54"/>
<polygon fill="midnightblue" stroke="midnightblue" points="310.1,-30.01 311.82,-19.55 303.96,-26.65 310.1,-30.01"/>
</g>
<!-- Node18 -->
<g id="node18" class="node">
<title>Node18</title>
<g id="a_node18"><a xlink:title=" ">
<polygon fill="white" stroke="#bfbfbf" points="345.5,-62 345.5,-81 452.5,-81 452.5,-62 345.5,-62"/>
<text text-anchor="middle" x="399" y="-69" font-family="Helvetica,sans-Serif" font-size="10.00">odp/api/abi/align.h</text>
</a>
</g>
</g>
<!-- Node17&#45;&gt;Node18 -->
<g id="edge21" class="edge">
<title>Node17&#45;&gt;Node18</title>
<path fill="none" stroke="midnightblue" d="M450.4,-123.48C441.14,-114.28 426.18,-99.46 414.79,-88.16"/>
<polygon fill="midnightblue" stroke="midnightblue" points="417.15,-85.57 407.58,-81.01 412.22,-90.54 417.15,-85.57"/>
</g>
<!-- Node19 -->
<g id="node19" class="node">
<title>Node19</title>
<g id="a_node19"><a xlink:href="spec_2align_8h.html" target="_top" xlink:title="ODP alignments.">
<polygon fill="white" stroke="black" points="509,-62 509,-81 623,-81 623,-62 509,-62"/>
<text text-anchor="middle" x="566" y="-69" font-family="Helvetica,sans-Serif" font-size="10.00">odp/api/spec/align.h</text>
</a>
</g>
</g>
<!-- Node17&#45;&gt;Node19 -->
<g id="edge22" class="edge">
<title>Node17&#45;&gt;Node19</title>
<path fill="none" stroke="midnightblue" d="M474.33,-123.48C491.97,-113.67 521.16,-97.43 541.86,-85.92"/>
<polygon fill="midnightblue" stroke="midnightblue" points="543.66,-88.93 550.7,-81.01 540.26,-82.81 543.66,-88.93"/>
</g>
<!-- Node19&#45;&gt;Node2 -->
<g id="edge23" class="edge">
<title>Node19&#45;&gt;Node2</title>
<path fill="none" stroke="midnightblue" d="M623.06,-63.5C712.06,-52.58 883.72,-31.52 980.38,-19.66"/>
<polygon fill="midnightblue" stroke="midnightblue" points="980.86,-23.13 990.36,-18.44 980,-16.18 980.86,-23.13"/>
</g>
<!-- Node19&#45;&gt;Node20 -->
<g id="edge24" class="edge">
<title>Node19&#45;&gt;Node20</title>
<path fill="none" stroke="midnightblue" d="M530.32,-61.98C486.13,-51.42 410.79,-33.41 362.49,-21.87"/>
<polygon fill="midnightblue" stroke="midnightblue" points="363.15,-18.43 352.61,-19.51 361.52,-25.24 363.15,-18.43"/>
</g>
<!-- Node22 -->
<g id="node22" class="node">
<title>Node22</title>
<g id="a_node22"><a xlink:title=" ">
<polygon fill="white" stroke="#bfbfbf" points="943.5,-554 943.5,-573 1088.5,-573 1088.5,-554 943.5,-554"/>
<text text-anchor="middle" x="1016" y="-561" font-family="Helvetica,sans-Serif" font-size="10.00">odp/api/abi/queue_types.h</text>
</a>
</g>
</g>
<!-- Node21&#45;&gt;Node22 -->
<g id="edge28" class="edge">
<title>Node21&#45;&gt;Node22</title>
<path fill="none" stroke="midnightblue" d="M897.77,-615.48C921.14,-605.4 960.21,-588.55 987,-577"/>
<polygon fill="midnightblue" stroke="midnightblue" points="988.47,-580.18 996.26,-573.01 985.7,-573.75 988.47,-580.18"/>
</g>
<!-- Node23 -->
<g id="node23" class="node">
<title>Node23</title>
<g id="a_node23"><a xlink:href="spec_2queue__types_8h.html" target="_top" xlink:title="ODP queue types.">
<polygon fill="white" stroke="black" points="814.5,-548.5 814.5,-578.5 925.5,-578.5 925.5,-548.5 814.5,-548.5"/>
<text text-anchor="start" x="822.5" y="-566.5" font-family="Helvetica,sans-Serif" font-size="10.00">odp/api/spec/queue</text>
<text text-anchor="middle" x="870" y="-555.5" font-family="Helvetica,sans-Serif" font-size="10.00">_types.h</text>
</a>
</g>
</g>
<!-- Node21&#45;&gt;Node23 -->
<g id="edge29" class="edge">
<title>Node21&#45;&gt;Node23</title>
<path fill="none" stroke="midnightblue" d="M876.85,-615.48C875.91,-608.47 874.53,-598.19 873.25,-588.7"/>
<polygon fill="midnightblue" stroke="midnightblue" points="876.69,-587.97 871.89,-578.52 869.75,-588.9 876.69,-587.97"/>
</g>
<!-- Node23&#45;&gt;Node2 -->
<g id="edge30" class="edge">
<title>Node23&#45;&gt;Node2</title>
<path fill="none" stroke="midnightblue" d="M909.83,-548.49C952.15,-530.75 1013,-495.81 1013,-441.5 1013,-441.5 1013,-441.5 1013,-244 1013,-163.25 1035.51,-68.79 1045.88,-29.55"/>
<polygon fill="midnightblue" stroke="midnightblue" points="1049.28,-30.37 1048.51,-19.8 1042.52,-28.55 1049.28,-30.37"/>
</g>
<!-- Node23&#45;&gt;Node20 -->
<g id="edge43" class="edge">
<title>Node23&#45;&gt;Node20</title>
<path fill="none" stroke="midnightblue" d="M814.12,-556.3C709.37,-543.12 494,-507.93 494,-441.5 494,-441.5 494,-441.5 494,-244 494,-213.77 493.34,-202.23 474,-179 451.87,-152.42 433.91,-161.99 405,-143 371.99,-121.31 357.21,-120.32 336,-87 324.95,-69.64 320.32,-46.26 318.39,-30.03"/>
<polygon fill="midnightblue" stroke="midnightblue" points="321.83,-29.3 317.4,-19.67 314.87,-29.96 321.83,-29.3"/>
</g>
<!-- Node24 -->
<g id="node24" class="node">
<title>Node24</title>
<g id="a_node24"><a xlink:href="schedule__types_8h.html" target="_top" xlink:title="ODP schedule.">
<polygon fill="white" stroke="black" points="693,-492.5 693,-511.5 833,-511.5 833,-492.5 693,-492.5"/>
<text text-anchor="middle" x="763" y="-499.5" font-family="Helvetica,sans-Serif" font-size="10.00">odp/api/schedule_types.h</text>
</a>
</g>
</g>
<!-- Node23&#45;&gt;Node24 -->
<g id="edge31" class="edge">
<title>Node23&#45;&gt;Node24</title>
<path fill="none" stroke="midnightblue" d="M844.64,-548.4C827.33,-538.77 804.52,-526.09 787.42,-516.58"/>
<polygon fill="midnightblue" stroke="midnightblue" points="789.01,-513.46 778.57,-511.66 785.61,-519.58 789.01,-513.46"/>
</g>
<!-- Node25 -->
<g id="node25" class="node">
<title>Node25</title>
<g id="a_node25"><a xlink:title=" ">
<polygon fill="white" stroke="#bfbfbf" points="705.5,-425.5 705.5,-455.5 822.5,-455.5 822.5,-425.5 705.5,-425.5"/>
<text text-anchor="start" x="713.5" y="-443.5" font-family="Helvetica,sans-Serif" font-size="10.00">odp/api/abi/schedule</text>
<text text-anchor="middle" x="764" y="-432.5" font-family="Helvetica,sans-Serif" font-size="10.00">_types.h</text>
</a>
</g>
</g>
<!-- Node24&#45;&gt;Node25 -->
<g id="edge32" class="edge">
<title>Node24&#45;&gt;Node25</title>
<path fill="none" stroke="midnightblue" d="M763.14,-492.48C763.26,-485.47 763.43,-475.19 763.59,-465.7"/>
<polygon fill="midnightblue" stroke="midnightblue" points="767.1,-465.58 763.76,-455.52 760.1,-465.46 767.1,-465.58"/>
</g>
<!-- Node26 -->
<g id="node26" class="node">
<title>Node26</title>
<g id="a_node26"><a xlink:href="spec_2schedule__types_8h.html" target="_top" xlink:title="ODP schedule types.">
<polygon fill="white" stroke="black" points="562.5,-425.5 562.5,-455.5 687.5,-455.5 687.5,-425.5 562.5,-425.5"/>
<text text-anchor="start" x="570.5" y="-443.5" font-family="Helvetica,sans-Serif" font-size="10.00">odp/api/spec/schedule</text>
<text text-anchor="middle" x="625" y="-432.5" font-family="Helvetica,sans-Serif" font-size="10.00">_types.h</text>
</a>
</g>
</g>
<!-- Node24&#45;&gt;Node26 -->
<g id="edge33" class="edge">
<title>Node24&#45;&gt;Node26</title>
<path fill="none" stroke="midnightblue" d="M743.23,-492.48C723.4,-483.93 692.26,-470.5 666.92,-459.57"/>
<polygon fill="midnightblue" stroke="midnightblue" points="668.09,-456.27 657.52,-455.52 665.32,-462.7 668.09,-456.27"/>
</g>
<!-- Node26&#45;&gt;Node2 -->
<g id="edge34" class="edge">
<title>Node26&#45;&gt;Node2</title>
<path fill="none" stroke="midnightblue" d="M685.81,-425.43C766.53,-402.72 899,-349.66 899,-246 899,-246 899,-246 899,-188 899,-110.83 983.19,-50.49 1026.25,-24.67"/>
<polygon fill="midnightblue" stroke="midnightblue" points="1028.15,-27.62 1035.02,-19.55 1024.62,-21.57 1028.15,-27.62"/>
</g>
<!-- Node26&#45;&gt;Node13 -->
<g id="edge35" class="edge">
<title>Node26&#45;&gt;Node13</title>
<path fill="none" stroke="midnightblue" d="M585.47,-425.4C564.29,-416.76 538.42,-404.39 518,-389 471.72,-354.13 471.38,-333.51 432,-291 422.9,-281.18 412.44,-270.46 404,-261.94"/>
<polygon fill="midnightblue" stroke="midnightblue" points="406.45,-259.44 396.91,-254.83 401.49,-264.38 406.45,-259.44"/>
</g>
<!-- Node26&#45;&gt;Node20 -->
<g id="edge42" class="edge">
<title>Node26&#45;&gt;Node20</title>
<path fill="none" stroke="midnightblue" d="M603.55,-425.46C590.94,-416.32 575.48,-403.43 565,-389 542.04,-357.38 532,-346.58 532,-307.5 532,-307.5 532,-307.5 532,-188 532,-121.39 515.54,-94.24 461,-56 437.23,-39.33 407.05,-28.66 380.46,-21.92"/>
<polygon fill="midnightblue" stroke="midnightblue" points="381.01,-18.45 370.47,-19.52 379.38,-25.26 381.01,-18.45"/>
</g>
<!-- Node27 -->
<g id="node27" class="node">
<title>Node27</title>
<g id="a_node27"><a xlink:href="thrmask_8h.html" target="_top" xlink:title="ODP thread masks.">
<polygon fill="white" stroke="black" points="573.5,-364 573.5,-383 678.5,-383 678.5,-364 573.5,-364"/>
<text text-anchor="middle" x="626" y="-371" font-family="Helvetica,sans-Serif" font-size="10.00">odp/api/thrmask.h</text>
</a>
</g>
</g>
<!-- Node26&#45;&gt;Node27 -->
<g id="edge36" class="edge">
<title>Node26&#45;&gt;Node27</title>
<path fill="none" stroke="midnightblue" d="M625.22,-425.4C625.36,-416.06 625.55,-403.71 625.71,-393.52"/>
<polygon fill="midnightblue" stroke="midnightblue" points="629.21,-393.25 625.87,-383.19 622.21,-393.14 629.21,-393.25"/>
</g>
<!-- Node28 -->
<g id="node28" class="node">
<title>Node28</title>
<g id="a_node28"><a xlink:title=" ">
<polygon fill="white" stroke="#bfbfbf" points="709.5,-297 709.5,-316 832.5,-316 832.5,-297 709.5,-297"/>
<text text-anchor="middle" x="771" y="-304" font-family="Helvetica,sans-Serif" font-size="10.00">odp/api/abi/thrmask.h</text>
</a>
</g>
</g>
<!-- Node27&#45;&gt;Node28 -->
<g id="edge37" class="edge">
<title>Node27&#45;&gt;Node28</title>
<path fill="none" stroke="midnightblue" d="M645.25,-363.87C670.17,-352.7 713.79,-333.15 742.53,-320.26"/>
<polygon fill="midnightblue" stroke="midnightblue" points="743.97,-323.45 751.67,-316.17 741.11,-317.06 743.97,-323.45"/>
</g>
<!-- Node29 -->
<g id="node29" class="node">
<title>Node29</title>
<g id="a_node29"><a xlink:href="spec_2thrmask_8h.html" target="_top" xlink:title="ODP thread masks.">
<polygon fill="white" stroke="black" points="560.5,-297 560.5,-316 691.5,-316 691.5,-297 560.5,-297"/>
<text text-anchor="middle" x="626" y="-304" font-family="Helvetica,sans-Serif" font-size="10.00">odp/api/spec/thrmask.h</text>
</a>
</g>
</g>
<!-- Node27&#45;&gt;Node29 -->
<g id="edge38" class="edge">
<title>Node27&#45;&gt;Node29</title>
<path fill="none" stroke="midnightblue" d="M626,-363.73C626,-354.18 626,-338.62 626,-326.28"/>
<polygon fill="midnightblue" stroke="midnightblue" points="629.5,-326.13 626,-316.13 622.5,-326.13 629.5,-326.13"/>
</g>
<!-- Node29&#45;&gt;Node2 -->
<g id="edge39" class="edge">
<title>Node29&#45;&gt;Node2</title>
<path fill="none" stroke="midnightblue" d="M635.18,-296.77C677.22,-256.95 852.04,-92.88 917,-56 943.97,-40.69 976.96,-29.53 1003.46,-22.15"/>
<polygon fill="midnightblue" stroke="midnightblue" points="1004.52,-25.49 1013.27,-19.51 1002.7,-18.73 1004.52,-25.49"/>
</g>
<!-- Node29&#45;&gt;Node13 -->
<g id="edge40" class="edge">
<title>Node29&#45;&gt;Node13</title>
<path fill="none" stroke="midnightblue" d="M591.9,-296.98C549.75,-286.44 477.95,-268.49 431.77,-256.94"/>
<polygon fill="midnightblue" stroke="midnightblue" points="432.59,-253.54 422.04,-254.51 430.89,-260.33 432.59,-253.54"/>
</g>
<!-- Node29&#45;&gt;Node20 -->
<g id="edge41" class="edge">
<title>Node29&#45;&gt;Node20</title>
<path fill="none" stroke="midnightblue" d="M629.17,-296.94C635.89,-277.97 651,-230.83 651,-190 651,-190 651,-190 651,-132 651,-97.18 657.86,-79.32 632,-56 596.45,-23.93 464.62,-14.66 383.2,-12.02"/>
<polygon fill="midnightblue" stroke="midnightblue" points="383.14,-8.51 373.04,-11.71 382.93,-15.51 383.14,-8.51"/>
</g>
<!-- Node31 -->
<g id="node31" class="node">
<title>Node31</title>
<g id="a_node31"><a xlink:title=" ">
<polygon fill="white" stroke="#bfbfbf" points="529,-906.5 529,-925.5 665,-925.5 665,-906.5 529,-906.5"/>
<text text-anchor="middle" x="597" y="-913.5" font-family="Helvetica,sans-Serif" font-size="10.00">odp/api/abi/pool_types.h</text>
</a>
</g>
</g>
<!-- Node30&#45;&gt;Node31 -->
<g id="edge46" class="edge">
<title>Node30&#45;&gt;Node31</title>
<path fill="none" stroke="midnightblue" d="M530.69,-962.32C542.9,-953.98 561.58,-941.21 576,-931.35"/>
<polygon fill="midnightblue" stroke="midnightblue" points="578.06,-934.19 584.34,-925.65 574.11,-928.41 578.06,-934.19"/>
</g>
<!-- Node32 -->
<g id="node32" class="node">
<title>Node32</title>
<g id="a_node32"><a xlink:href="spec_2pool__types_8h.html" target="_top" xlink:title="Type definitions for pools.">
<polygon fill="white" stroke="black" points="367.5,-906.5 367.5,-925.5 510.5,-925.5 510.5,-906.5 367.5,-906.5"/>
<text text-anchor="middle" x="439" y="-913.5" font-family="Helvetica,sans-Serif" font-size="10.00">odp/api/spec/pool_types.h</text>
</a>
</g>
</g>
<!-- Node30&#45;&gt;Node32 -->
<g id="edge47" class="edge">
<title>Node30&#45;&gt;Node32</title>
<path fill="none" stroke="midnightblue" d="M505.31,-962.32C493.1,-953.98 474.42,-941.21 460,-931.35"/>
<polygon fill="midnightblue" stroke="midnightblue" points="461.89,-928.41 451.66,-925.65 457.94,-934.19 461.89,-928.41"/>
</g>
<!-- Node32&#45;&gt;Node2 -->
<g id="edge48" class="edge">
<title>Node32&#45;&gt;Node2</title>
<path fill="none" stroke="midnightblue" d="M510.79,-907.01C707.39,-884.9 1240,-823.31 1240,-805 1240,-805 1240,-805 1240,-747 1240,-712.18 1239.84,-700.07 1259,-671 1302.02,-605.72 1399,-642.68 1399,-564.5 1399,-564.5 1399,-564.5 1399,-132 1399,-89.78 1378.21,-77.72 1342,-56 1305.89,-34.34 1195.73,-21.92 1121.79,-15.82"/>
<polygon fill="midnightblue" stroke="midnightblue" points="1121.86,-12.31 1111.61,-15 1121.3,-19.29 1121.86,-12.31"/>
</g>
<!-- Node32&#45;&gt;Node13 -->
<g id="edge49" class="edge">
<title>Node32&#45;&gt;Node13</title>
<path fill="none" stroke="midnightblue" d="M422.98,-906.48C395.43,-890.54 342,-853.38 342,-805 342,-805 342,-805 342,-372.5 342,-331.4 363.71,-287.07 377.3,-263.34"/>
<polygon fill="midnightblue" stroke="midnightblue" points="380.45,-264.89 382.54,-254.5 374.43,-261.32 380.45,-264.89"/>
</g>
<!-- Node32&#45;&gt;Node20 -->
<g id="edge71" class="edge">
<title>Node32&#45;&gt;Node20</title>
<path fill="none" stroke="midnightblue" d="M407.1,-906.47C318.53,-880.65 76,-794.56 76,-626 76,-626 76,-626 76,-132 76,-94.24 84.23,-79.23 114,-56 135.14,-39.5 200.14,-26.99 250.95,-19.4"/>
<polygon fill="midnightblue" stroke="midnightblue" points="251.52,-22.86 260.91,-17.95 250.51,-15.93 251.52,-22.86"/>
</g>
<!-- Node33 -->
<g id="node33" class="node">
<title>Node33</title>
<g id="a_node33"><a xlink:href="dma__types_8h.html" target="_top" xlink:title="ODP DMA.">
<polygon fill="white" stroke="black" points="658.5,-850.5 658.5,-869.5 777.5,-869.5 777.5,-850.5 658.5,-850.5"/>
<text text-anchor="middle" x="718" y="-857.5" font-family="Helvetica,sans-Serif" font-size="10.00">odp/api/dma_types.h</text>
</a>
</g>
</g>
<!-- Node32&#45;&gt;Node33 -->
<g id="edge50" class="edge">
<title>Node32&#45;&gt;Node33</title>
<path fill="none" stroke="midnightblue" d="M483.21,-906.44C532.29,-896.94 611.51,-881.61 664.16,-871.42"/>
<polygon fill="midnightblue" stroke="midnightblue" points="664.85,-874.85 674,-869.52 663.52,-867.98 664.85,-874.85"/>
</g>
<!-- Node39 -->
<g id="node39" class="node">
<title>Node39</title>
<g id="a_node39"><a xlink:href="ml__types_8h.html" target="_top" xlink:title="ODP Machine Learning (ML) types.">
<polygon fill="white" stroke="black" points="384,-738.5 384,-757.5 494,-757.5 494,-738.5 384,-738.5"/>
<text text-anchor="middle" x="439" y="-745.5" font-family="Helvetica,sans-Serif" font-size="10.00">odp/api/ml_types.h</text>
</a>
</g>
</g>
<!-- Node32&#45;&gt;Node39 -->
<g id="edge63" class="edge">
<title>Node32&#45;&gt;Node39</title>
<path fill="none" stroke="midnightblue" d="M439,-906.08C439,-879.95 439,-803.21 439,-767.58"/>
<polygon fill="midnightblue" stroke="midnightblue" points="442.5,-767.57 439,-757.57 435.5,-767.57 442.5,-767.57"/>
</g>
<!-- Node34 -->
<g id="node34" class="node">
<title>Node34</title>
<g id="a_node34"><a xlink:title=" ">
<polygon fill="white" stroke="#bfbfbf" points="808.5,-794.5 808.5,-813.5 945.5,-813.5 945.5,-794.5 808.5,-794.5"/>
<text text-anchor="middle" x="877" y="-801.5" font-family="Helvetica,sans-Serif" font-size="10.00">odp/api/abi/dma_types.h</text>
</a>
</g>
</g>
<!-- Node33&#45;&gt;Node34 -->
<g id="edge51" class="edge">
<title>Node33&#45;&gt;Node34</title>
<path fill="none" stroke="midnightblue" d="M743.19,-850.44C769.94,-841.36 812.4,-826.94 842.31,-816.78"/>
<polygon fill="midnightblue" stroke="midnightblue" points="843.58,-820.05 851.92,-813.52 841.33,-813.42 843.58,-820.05"/>
</g>
<!-- Node35 -->
<g id="node35" class="node">
<title>Node35</title>
<g id="a_node35"><a xlink:href="spec_2dma__types_8h.html" target="_top" xlink:title="ODP DMA.">
<polygon fill="white" stroke="black" points="646,-794.5 646,-813.5 790,-813.5 790,-794.5 646,-794.5"/>
<text text-anchor="middle" x="718" y="-801.5" font-family="Helvetica,sans-Serif" font-size="10.00">odp/api/spec/dma_types.h</text>
</a>
</g>
</g>
<!-- Node33&#45;&gt;Node35 -->
<g id="edge52" class="edge">
<title>Node33&#45;&gt;Node35</title>
<path fill="none" stroke="midnightblue" d="M718,-850.08C718,-843.01 718,-832.86 718,-823.99"/>
<polygon fill="midnightblue" stroke="midnightblue" points="721.5,-823.75 718,-813.75 714.5,-823.75 721.5,-823.75"/>
</g>
<!-- Node35&#45;&gt;Node2 -->
<g id="edge53" class="edge">
<title>Node35&#45;&gt;Node2</title>
<path fill="none" stroke="midnightblue" d="M770.93,-794.45C876.52,-776.9 1109.49,-735.68 1183,-702 1194.25,-696.84 1262.2,-642.57 1272,-635 1311.94,-604.16 1361,-614.96 1361,-564.5 1361,-564.5 1361,-564.5 1361,-132 1361,-91.32 1344.12,-78.15 1310,-56 1279.66,-36.3 1187.59,-23.74 1121.86,-17.04"/>
<polygon fill="midnightblue" stroke="midnightblue" points="1121.85,-13.52 1111.56,-16.01 1121.16,-20.48 1121.85,-13.52"/>
</g>
<!-- Node35&#45;&gt;Node6 -->
<g id="edge59" class="edge">
<title>Node35&#45;&gt;Node6</title>
<path fill="none" stroke="midnightblue" d="M790.43,-794.95C793.66,-794.62 796.86,-794.3 800,-794 963.25,-778.15 1154.94,-762.75 1258.13,-754.73"/>
<polygon fill="midnightblue" stroke="midnightblue" points="1258.44,-758.21 1268.14,-753.95 1257.89,-751.23 1258.44,-758.21"/>
</g>
<!-- Node35&#45;&gt;Node13 -->
<g id="edge61" class="edge">
<title>Node35&#45;&gt;Node13</title>
<path fill="none" stroke="midnightblue" d="M701.4,-794.27C670.16,-777.62 600.83,-739.61 546,-702 527.74,-689.47 526.39,-681.69 507,-671 464.53,-647.58 438.15,-669.43 404,-635 380.69,-611.5 380,-597.6 380,-564.5 380,-564.5 380,-564.5 380,-372.5 380,-334.13 383.71,-289.33 386.08,-264.67"/>
<polygon fill="midnightblue" stroke="midnightblue" points="389.58,-264.87 387.08,-254.58 382.61,-264.18 389.58,-264.87"/>
</g>
<!-- Node35&#45;&gt;Node20 -->
<g id="edge62" class="edge">
<title>Node35&#45;&gt;Node20</title>
<path fill="none" stroke="midnightblue" d="M645.74,-803.21C493.15,-801.69 152,-787.16 152,-687.5 152,-687.5 152,-687.5 152,-132 152,-71.85 224.19,-38.33 273.07,-22.53"/>
<polygon fill="midnightblue" stroke="midnightblue" points="274.29,-25.82 282.81,-19.52 272.22,-19.13 274.29,-25.82"/>
</g>
<!-- Node35&#45;&gt;Node21 -->
<g id="edge60" class="edge">
<title>Node35&#45;&gt;Node21</title>
<path fill="none" stroke="midnightblue" d="M725.72,-794.46C750.68,-766.85 829.56,-679.58 862.9,-642.71"/>
<polygon fill="midnightblue" stroke="midnightblue" points="865.87,-644.63 869.98,-634.87 860.68,-639.94 865.87,-644.63"/>
</g>
<!-- Node36 -->
<g id="node36" class="node">
<title>Node36</title>
<g id="a_node36"><a xlink:href="event__types_8h.html" target="_top" xlink:title="ODP event API type definitions.">
<polygon fill="white" stroke="black" points="607.5,-615.5 607.5,-634.5 732.5,-634.5 732.5,-615.5 607.5,-615.5"/>
<text text-anchor="middle" x="670" y="-622.5" font-family="Helvetica,sans-Serif" font-size="10.00">odp/api/event_types.h</text>
</a>
</g>
</g>
<!-- Node35&#45;&gt;Node36 -->
<g id="edge54" class="edge">
<title>Node35&#45;&gt;Node36</title>
<path fill="none" stroke="midnightblue" d="M718.01,-794.35C717.78,-772.79 715.54,-715.24 699,-671 695.26,-661.01 689.05,-650.93 683.33,-642.85"/>
<polygon fill="midnightblue" stroke="midnightblue" points="686.02,-640.61 677.24,-634.69 680.41,-644.79 686.02,-640.61"/>
</g>
<!-- Node37 -->
<g id="node37" class="node">
<title>Node37</title>
<g id="a_node37"><a xlink:title=" ">
<polygon fill="white" stroke="#bfbfbf" points="576.5,-554 576.5,-573 719.5,-573 719.5,-554 576.5,-554"/>
<text text-anchor="middle" x="648" y="-561" font-family="Helvetica,sans-Serif" font-size="10.00">odp/api/abi/event_types.h</text>
</a>
</g>
</g>
<!-- Node36&#45;&gt;Node37 -->
<g id="edge55" class="edge">
<title>Node36&#45;&gt;Node37</title>
<path fill="none" stroke="midnightblue" d="M666.85,-615.48C663.68,-606.9 658.7,-593.43 654.65,-582.48"/>
<polygon fill="midnightblue" stroke="midnightblue" points="657.9,-581.17 651.15,-573.01 651.33,-583.6 657.9,-581.17"/>
</g>
<!-- Node38 -->
<g id="node38" class="node">
<title>Node38</title>
<g id="a_node38"><a xlink:href="spec_2event__types_8h.html" target="_top" xlink:title="ODP event API type definitions.">
<polygon fill="white" stroke="black" points="717.5,-56.5 717.5,-86.5 826.5,-86.5 826.5,-56.5 717.5,-56.5"/>
<text text-anchor="start" x="725.5" y="-74.5" font-family="Helvetica,sans-Serif" font-size="10.00">odp/api/spec/event</text>
<text text-anchor="middle" x="772" y="-63.5" font-family="Helvetica,sans-Serif" font-size="10.00">_types.h</text>
</a>
</g>
</g>
<!-- Node36&#45;&gt;Node38 -->
<g id="edge56" class="edge">
<title>Node36&#45;&gt;Node38</title>
<path fill="none" stroke="midnightblue" d="M681.53,-615.24C706.21,-596.51 762.68,-553.81 772,-548 801.68,-529.49 820.02,-539.21 842,-512 862.39,-486.76 861,-473.95 861,-441.5 861,-441.5 861,-441.5 861,-372.5 861,-316.65 803.59,-157 780.99,-96.31"/>
<polygon fill="midnightblue" stroke="midnightblue" points="784.22,-94.94 777.43,-86.81 777.66,-97.4 784.22,-94.94"/>
</g>
<!-- Node38&#45;&gt;Node2 -->
<g id="edge57" class="edge">
<title>Node38&#45;&gt;Node2</title>
<path fill="none" stroke="midnightblue" d="M826.79,-58.82C877.31,-48.04 951.69,-32.18 1000.72,-21.72"/>
<polygon fill="midnightblue" stroke="midnightblue" points="1001.74,-25.09 1010.79,-19.58 1000.28,-18.24 1001.74,-25.09"/>
</g>
<!-- Node38&#45;&gt;Node20 -->
<g id="edge58" class="edge">
<title>Node38&#45;&gt;Node20</title>
<path fill="none" stroke="midnightblue" d="M717.47,-58.56C712.59,-57.64 707.71,-56.77 703,-56 591.32,-37.79 460.29,-24.13 383.21,-16.87"/>
<polygon fill="midnightblue" stroke="midnightblue" points="383.44,-13.37 373.16,-15.93 382.79,-20.34 383.44,-13.37"/>
</g>
<!-- Node40 -->
<g id="node40" class="node">
<title>Node40</title>
<g id="a_node40"><a xlink:title=" ">
<polygon fill="white" stroke="#bfbfbf" points="370,-677 370,-696 498,-696 498,-677 370,-677"/>
<text text-anchor="middle" x="434" y="-684" font-family="Helvetica,sans-Serif" font-size="10.00">odp/api/abi/ml_types.h</text>
</a>
</g>
</g>
<!-- Node39&#45;&gt;Node40 -->
<g id="edge64" class="edge">
<title>Node39&#45;&gt;Node40</title>
<path fill="none" stroke="midnightblue" d="M438.28,-738.48C437.58,-730.08 436.48,-716.98 435.57,-706.16"/>
<polygon fill="midnightblue" stroke="midnightblue" points="439.04,-705.68 434.72,-696.01 432.06,-706.27 439.04,-705.68"/>
</g>
<!-- Node41 -->
<g id="node41" class="node">
<title>Node41</title>
<g id="a_node41"><a xlink:href="spec_2ml__types_8h.html" target="_top" xlink:title="ODP Machine Learning (ML) types.">
<polygon fill="white" stroke="black" points="554.5,-677 554.5,-696 689.5,-696 689.5,-677 554.5,-677"/>
<text text-anchor="middle" x="622" y="-684" font-family="Helvetica,sans-Serif" font-size="10.00">odp/api/spec/ml_types.h</text>
</a>
</g>
</g>
<!-- Node39&#45;&gt;Node41 -->
<g id="edge65" class="edge">
<title>Node39&#45;&gt;Node41</title>
<path fill="none" stroke="midnightblue" d="M465.22,-738.48C497.02,-728.14 550.77,-710.66 586.32,-699.1"/>
<polygon fill="midnightblue" stroke="midnightblue" points="587.4,-702.43 595.83,-696.01 585.24,-695.77 587.4,-702.43"/>
</g>
<!-- Node41&#45;&gt;Node2 -->
<g id="edge66" class="edge">
<title>Node41&#45;&gt;Node2</title>
<path fill="none" stroke="midnightblue" d="M654.81,-676.94C680.45,-669.07 715.99,-655.5 742,-635 779.7,-605.29 771.01,-580.86 806,-548 827.57,-527.75 844.4,-535.78 862,-512 935.07,-413.27 937,-368.83 937,-246 937,-246 937,-246 937,-188 937,-151.45 1006.56,-64 1037.01,-27.47"/>
<polygon fill="midnightblue" stroke="midnightblue" points="1039.77,-29.63 1043.52,-19.72 1034.41,-25.13 1039.77,-29.63"/>
</g>
<!-- Node41&#45;&gt;Node13 -->
<g id="edge69" class="edge">
<title>Node41&#45;&gt;Node13</title>
<path fill="none" stroke="midnightblue" d="M587.2,-676.93C538.52,-662.62 456,-628.87 456,-564.5 456,-564.5 456,-564.5 456,-501 456,-409.12 414.27,-304.7 396.19,-263.78"/>
<polygon fill="midnightblue" stroke="midnightblue" points="399.35,-262.27 392.05,-254.59 392.97,-265.14 399.35,-262.27"/>
</g>
<!-- Node41&#45;&gt;Node20 -->
<g id="edge70" class="edge">
<title>Node41&#45;&gt;Node20</title>
<path fill="none" stroke="midnightblue" d="M566.26,-676.96C505.86,-664.17 418,-633.68 418,-564.5 418,-564.5 418,-564.5 418,-501 418,-307.71 114,-383.29 114,-190 114,-190 114,-190 114,-132 114,-96.58 112.22,-80.29 138,-56 168.06,-27.68 213.22,-16.47 250.66,-12.32"/>
<polygon fill="midnightblue" stroke="midnightblue" points="251.38,-15.77 261,-11.33 250.71,-8.8 251.38,-15.77"/>
</g>
<!-- Node41&#45;&gt;Node21 -->
<g id="edge68" class="edge">
<title>Node41&#45;&gt;Node21</title>
<path fill="none" stroke="midnightblue" d="M658.68,-676.98C704.21,-666.39 781.9,-648.34 831.55,-636.8"/>
<polygon fill="midnightblue" stroke="midnightblue" points="832.44,-640.18 841.39,-634.51 830.86,-633.36 832.44,-640.18"/>
</g>
<!-- Node41&#45;&gt;Node36 -->
<g id="edge67" class="edge">
<title>Node41&#45;&gt;Node36</title>
<path fill="none" stroke="midnightblue" d="M628.88,-676.98C636.15,-667.96 647.8,-653.52 656.84,-642.31"/>
<polygon fill="midnightblue" stroke="midnightblue" points="659.58,-644.49 663.14,-634.51 654.13,-640.09 659.58,-644.49"/>
</g>
</g>
</svg>
