<?xml version="1.0" encoding="UTF-8" standalone="no"?>
<!DOCTYPE svg PUBLIC "-//W3C//DTD SVG 1.1//EN"
 "http://www.w3.org/Graphics/SVG/1.1/DTD/svg11.dtd">
<!-- Generated by graphviz version 2.40.1 (20161225.0304)
 -->
<!-- Title: packet_flags.h Pages: 1 -->
<svg width="1141pt" height="677pt"
 viewBox="0.00 0.00 1141.00 677.00" xmlns="http://www.w3.org/2000/svg" xmlns:xlink="http://www.w3.org/1999/xlink">
<g id="graph0" class="graph" transform="scale(1 1) rotate(0) translate(4 673)">
<title>packet_flags.h</title>
<polygon fill="#ffffff" stroke="transparent" points="-4,4 -4,-673 1137,-673 1137,4 -4,4"/>
<!-- Node0 -->
<g id="node1" class="node">
<title>Node0</title>
<polygon fill="#bfbfbf" stroke="#000000" points="205.5,-649.5 205.5,-668.5 292.5,-668.5 292.5,-649.5 205.5,-649.5"/>
<text text-anchor="middle" x="249" y="-656.5" font-family="Helvetica,sans-Serif" font-size="10.00" fill="#000000">packet_flags.h</text>
</g>
<!-- Node1 -->
<g id="node2" class="node">
<title>Node1</title>
<polygon fill="#ffffff" stroke="#bfbfbf" points="869.5,-.5 869.5,-19.5 990.5,-19.5 990.5,-.5 869.5,-.5"/>
<text text-anchor="middle" x="930" y="-7.5" font-family="Helvetica,sans-Serif" font-size="10.00" fill="#000000">odp/visibility_begin.h</text>
</g>
<!-- Node0&#45;&gt;Node1 -->
<g id="edge1" class="edge">
<title>Node0&#45;&gt;Node1</title>
<path fill="none" stroke="#191970" d="M292.5362,-658.1204C470.4635,-653.9599 1133,-632.713 1133,-547 1133,-547 1133,-547 1133,-122 1133,-59.8834 1059.2311,-31.9572 1000.6322,-19.5727"/>
<polygon fill="#191970" stroke="#191970" points="1001.1235,-16.1018 990.6317,-17.5757 999.7527,-22.9662 1001.1235,-16.1018"/>
</g>
<!-- Node2 -->
<g id="node3" class="node">
<title>Node2</title>
<g id="a_node3"><a xlink:href="std__types_8h.html" target="_top" xlink:title="Standard C language types and definitions for ODP. ">
<polygon fill="#ffffff" stroke="#000000" points="86,-420 86,-439 198,-439 198,-420 86,-420"/>
<text text-anchor="middle" x="142" y="-427" font-family="Helvetica,sans-Serif" font-size="10.00" fill="#000000">odp/api/std_types.h</text>
</a>
</g>
</g>
<!-- Node0&#45;&gt;Node2 -->
<g id="edge2" class="edge">
<title>Node0&#45;&gt;Node2</title>
<path fill="none" stroke="#191970" d="M205.2092,-649.6184C159.145,-637.1579 88.9886,-610.2164 57,-557 32.0885,-515.5571 85.3984,-468.6912 118.4142,-444.9937"/>
<polygon fill="#191970" stroke="#191970" points="120.5036,-447.8038 126.7088,-439.2162 116.5027,-442.0599 120.5036,-447.8038"/>
</g>
<!-- Node9 -->
<g id="node10" class="node">
<title>Node9</title>
<polygon fill="#ffffff" stroke="#bfbfbf" points="327,-.5 327,-19.5 439,-19.5 439,-.5 327,-.5"/>
<text text-anchor="middle" x="383" y="-7.5" font-family="Helvetica,sans-Serif" font-size="10.00" fill="#000000">odp/visibility_end.h</text>
</g>
<!-- Node0&#45;&gt;Node9 -->
<g id="edge53" class="edge">
<title>Node0&#45;&gt;Node9</title>
<path fill="none" stroke="#191970" d="M205.1871,-651.5111C171.1461,-644.5766 123.4218,-632.3647 85,-613 42.2891,-591.4736 0,-594.8289 0,-547 0,-547 0,-547 0,-122 0,-81.4482 26.9508,-74.5715 63,-56 106.0036,-33.8458 236.1821,-20.6702 316.6394,-14.4265"/>
<polygon fill="#191970" stroke="#191970" points="316.9734,-17.9113 326.6793,-13.6633 316.4427,-10.9315 316.9734,-17.9113"/>
</g>
<!-- Node10 -->
<g id="node11" class="node">
<title>Node10</title>
<g id="a_node11"><a xlink:href="packet_8h.html" target="_top" xlink:title="ODP packet descriptor. ">
<polygon fill="#ffffff" stroke="#000000" points="411,-593.5 411,-612.5 509,-612.5 509,-593.5 411,-593.5"/>
<text text-anchor="middle" x="460" y="-600.5" font-family="Helvetica,sans-Serif" font-size="10.00" fill="#000000">odp/api/packet.h</text>
</a>
</g>
</g>
<!-- Node0&#45;&gt;Node10 -->
<g id="edge13" class="edge">
<title>Node0&#45;&gt;Node10</title>
<path fill="none" stroke="#191970" d="M285.2722,-649.3733C320.9658,-639.9001 375.5879,-625.4032 414.2451,-615.1435"/>
<polygon fill="#191970" stroke="#191970" points="415.4336,-618.4493 424.2011,-612.5011 413.6379,-611.6835 415.4336,-618.4493"/>
</g>
<!-- Node3 -->
<g id="node4" class="node">
<title>Node3</title>
<polygon fill="#ffffff" stroke="#bfbfbf" points="30,-358.5 30,-377.5 160,-377.5 160,-358.5 30,-358.5"/>
<text text-anchor="middle" x="95" y="-365.5" font-family="Helvetica,sans-Serif" font-size="10.00" fill="#000000">odp/api/abi/std_types.h</text>
</g>
<!-- Node2&#45;&gt;Node3 -->
<g id="edge3" class="edge">
<title>Node2&#45;&gt;Node3</title>
<path fill="none" stroke="#191970" d="M134.6563,-419.8906C127.7298,-410.8273 117.174,-397.0149 108.694,-385.9188"/>
<polygon fill="#191970" stroke="#191970" points="111.3003,-383.565 102.4473,-377.7449 105.7385,-387.8155 111.3003,-383.565"/>
</g>
<!-- Node4 -->
<g id="node5" class="node">
<title>Node4</title>
<g id="a_node5"><a xlink:href="spec_2std__types_8h.html" target="_top" xlink:title="Standard C language types and definitions for ODP. ">
<polygon fill="#ffffff" stroke="#000000" points="119.5,-174 119.5,-193 256.5,-193 256.5,-174 119.5,-174"/>
<text text-anchor="middle" x="188" y="-181" font-family="Helvetica,sans-Serif" font-size="10.00" fill="#000000">odp/api/spec/std_types.h</text>
</a>
</g>
</g>
<!-- Node2&#45;&gt;Node4 -->
<g id="edge4" class="edge">
<title>Node2&#45;&gt;Node4</title>
<path fill="none" stroke="#191970" d="M148.5936,-419.7346C154.9876,-409.7252 164.3792,-393.4773 169,-378 187.4796,-316.1024 188.9811,-238.6906 188.537,-203.0789"/>
<polygon fill="#191970" stroke="#191970" points="192.036,-202.9886 188.3435,-193.0581 185.0373,-203.1238 192.036,-202.9886"/>
</g>
<!-- Node4&#45;&gt;Node1 -->
<g id="edge5" class="edge">
<title>Node4&#45;&gt;Node1</title>
<path fill="none" stroke="#191970" d="M242.1114,-173.9762C324.3508,-158.5947 484.9792,-124.976 615,-76 633.2293,-69.1334 635.5062,-62.1184 654,-56 721.7304,-33.5924 802.5818,-21.7555 859.21,-15.7353"/>
<polygon fill="#191970" stroke="#191970" points="859.9038,-19.1825 869.4933,-14.6777 859.1876,-12.2193 859.9038,-19.1825"/>
</g>
<!-- Node5 -->
<g id="node6" class="node">
<title>Node5</title>
<polygon fill="#ffffff" stroke="#bfbfbf" points="90.5,-112.5 90.5,-131.5 143.5,-131.5 143.5,-112.5 90.5,-112.5"/>
<text text-anchor="middle" x="117" y="-119.5" font-family="Helvetica,sans-Serif" font-size="10.00" fill="#000000">stdint.h</text>
</g>
<!-- Node4&#45;&gt;Node5 -->
<g id="edge6" class="edge">
<title>Node4&#45;&gt;Node5</title>
<path fill="none" stroke="#191970" d="M176.9063,-173.8906C166.0285,-164.4683 149.2252,-149.9134 136.18,-138.6137"/>
<polygon fill="#191970" stroke="#191970" points="138.1004,-135.6466 128.2502,-131.7449 133.5173,-140.9377 138.1004,-135.6466"/>
</g>
<!-- Node6 -->
<g id="node7" class="node">
<title>Node6</title>
<g id="a_node7"><a xlink:href="align_8h.html" target="_top" xlink:title="ODP alignments. ">
<polygon fill="#ffffff" stroke="#000000" points="200.5,-112.5 200.5,-131.5 289.5,-131.5 289.5,-112.5 200.5,-112.5"/>
<text text-anchor="middle" x="245" y="-119.5" font-family="Helvetica,sans-Serif" font-size="10.00" fill="#000000">odp/api/align.h</text>
</a>
</g>
</g>
<!-- Node4&#45;&gt;Node6 -->
<g id="edge7" class="edge">
<title>Node4&#45;&gt;Node6</title>
<path fill="none" stroke="#191970" d="M196.9063,-173.8906C205.4728,-164.6478 218.6169,-150.466 229.0003,-139.2628"/>
<polygon fill="#191970" stroke="#191970" points="231.7375,-141.4584 235.9682,-131.7449 226.6035,-136.7 231.7375,-141.4584"/>
</g>
<!-- Node4&#45;&gt;Node9 -->
<g id="edge12" class="edge">
<title>Node4&#45;&gt;Node9</title>
<path fill="none" stroke="#191970" d="M144.6628,-173.9571C121.7595,-166.5306 95.4633,-153.7013 81,-132 62.2527,-103.8708 55.9512,-81.6236 78,-56 93.3765,-38.1306 231.9098,-23.0795 316.8957,-15.4245"/>
<polygon fill="#191970" stroke="#191970" points="317.3317,-18.8997 326.9825,-14.5279 316.7118,-11.9271 317.3317,-18.8997"/>
</g>
<!-- Node7 -->
<g id="node8" class="node">
<title>Node7</title>
<polygon fill="#ffffff" stroke="#bfbfbf" points="120.5,-56.5 120.5,-75.5 227.5,-75.5 227.5,-56.5 120.5,-56.5"/>
<text text-anchor="middle" x="174" y="-63.5" font-family="Helvetica,sans-Serif" font-size="10.00" fill="#000000">odp/api/abi/align.h</text>
</g>
<!-- Node6&#45;&gt;Node7 -->
<g id="edge8" class="edge">
<title>Node6&#45;&gt;Node7</title>
<path fill="none" stroke="#191970" d="M232.6327,-112.2455C222.0446,-103.8943 206.5936,-91.7076 194.2107,-81.9408"/>
<polygon fill="#191970" stroke="#191970" points="196.2447,-79.0875 186.2255,-75.6427 191.9097,-84.5837 196.2447,-79.0875"/>
</g>
<!-- Node8 -->
<g id="node9" class="node">
<title>Node8</title>
<g id="a_node9"><a xlink:href="spec_2align_8h.html" target="_top" xlink:title="ODP alignments. ">
<polygon fill="#ffffff" stroke="#000000" points="284,-56.5 284,-75.5 398,-75.5 398,-56.5 284,-56.5"/>
<text text-anchor="middle" x="341" y="-63.5" font-family="Helvetica,sans-Serif" font-size="10.00" fill="#000000">odp/api/spec/align.h</text>
</a>
</g>
</g>
<!-- Node6&#45;&gt;Node8 -->
<g id="edge9" class="edge">
<title>Node6&#45;&gt;Node8</title>
<path fill="none" stroke="#191970" d="M261.7219,-112.2455C276.5889,-103.5731 298.5466,-90.7645 315.5858,-80.825"/>
<polygon fill="#191970" stroke="#191970" points="317.5955,-83.7047 324.4697,-75.6427 314.0683,-77.6582 317.5955,-83.7047"/>
</g>
<!-- Node8&#45;&gt;Node1 -->
<g id="edge10" class="edge">
<title>Node8&#45;&gt;Node1</title>
<path fill="none" stroke="#191970" d="M398.011,-60.5796C506.2947,-50.2844 741.416,-27.9299 859.4346,-16.7091"/>
<polygon fill="#191970" stroke="#191970" points="859.8256,-20.1878 869.4494,-15.7569 859.163,-13.2192 859.8256,-20.1878"/>
</g>
<!-- Node8&#45;&gt;Node9 -->
<g id="edge11" class="edge">
<title>Node8&#45;&gt;Node9</title>
<path fill="none" stroke="#191970" d="M348.3158,-56.2455C354.2179,-48.3761 362.6742,-37.101 369.7594,-27.6542"/>
<polygon fill="#191970" stroke="#191970" points="372.568,-29.7427 375.768,-19.6427 366.9679,-25.5427 372.568,-29.7427"/>
</g>
<!-- Node10&#45;&gt;Node2 -->
<g id="edge14" class="edge">
<title>Node10&#45;&gt;Node2</title>
<path fill="none" stroke="#191970" d="M460.1159,-593.3727C459.738,-578.9583 456.8007,-551.8753 441,-537 387.6133,-486.7401 348.9021,-526.0739 280,-501 238.0382,-485.7298 192.66,-460.3235 165.8175,-444.2669"/>
<polygon fill="#191970" stroke="#191970" points="167.4993,-441.1937 157.132,-439.0094 163.8744,-447.182 167.4993,-441.1937"/>
</g>
<!-- Node11 -->
<g id="node12" class="node">
<title>Node11</title>
<polygon fill="#ffffff" stroke="#bfbfbf" points="488,-537.5 488,-556.5 598,-556.5 598,-537.5 488,-537.5"/>
<text text-anchor="middle" x="543" y="-544.5" font-family="Helvetica,sans-Serif" font-size="10.00" fill="#000000">odp/api/abi/event.h</text>
</g>
<!-- Node10&#45;&gt;Node11 -->
<g id="edge15" class="edge">
<title>Node10&#45;&gt;Node11</title>
<path fill="none" stroke="#191970" d="M474.4575,-593.2455C487.0732,-584.7337 505.5944,-572.2375 520.2045,-562.3801"/>
<polygon fill="#191970" stroke="#191970" points="522.3761,-565.1371 528.7082,-556.6427 518.4609,-559.3343 522.3761,-565.1371"/>
</g>
<!-- Node12 -->
<g id="node13" class="node">
<title>Node12</title>
<polygon fill="#ffffff" stroke="#bfbfbf" points="758,-537.5 758,-556.5 888,-556.5 888,-537.5 758,-537.5"/>
<text text-anchor="middle" x="823" y="-544.5" font-family="Helvetica,sans-Serif" font-size="10.00" fill="#000000">odp/api/abi/packet_io.h</text>
</g>
<!-- Node10&#45;&gt;Node12 -->
<g id="edge16" class="edge">
<title>Node10&#45;&gt;Node12</title>
<path fill="none" stroke="#191970" d="M509.3336,-595.3893C571.691,-585.7694 679.5081,-569.1365 751.0473,-558.1001"/>
<polygon fill="#191970" stroke="#191970" points="751.9798,-561.4978 761.3293,-556.5139 750.9125,-554.5796 751.9798,-561.4978"/>
</g>
<!-- Node13 -->
<g id="node14" class="node">
<title>Node13</title>
<polygon fill="#ffffff" stroke="#bfbfbf" points="997.5,-414.5 997.5,-444.5 1104.5,-444.5 1104.5,-414.5 997.5,-414.5"/>
<text text-anchor="start" x="1005.5" y="-432.5" font-family="Helvetica,sans-Serif" font-size="10.00" fill="#000000">odp/api/abi/packet</text>
<text text-anchor="middle" x="1051" y="-421.5" font-family="Helvetica,sans-Serif" font-size="10.00" fill="#000000">_types.h</text>
</g>
<!-- Node10&#45;&gt;Node13 -->
<g id="edge17" class="edge">
<title>Node10&#45;&gt;Node13</title>
<path fill="none" stroke="#191970" d="M509.1184,-601.625C590.6467,-598.5011 758.6428,-588.4844 897,-557 969.237,-540.5618 1011.312,-561.5486 1054,-501 1063.3324,-487.763 1062.3824,-469.467 1059.2021,-454.6965"/>
<polygon fill="#191970" stroke="#191970" points="1062.5049,-453.4889 1056.6074,-444.6872 1055.7288,-455.2456 1062.5049,-453.4889"/>
</g>
<!-- Node14 -->
<g id="node15" class="node">
<title>Node14</title>
<polygon fill="#ffffff" stroke="#bfbfbf" points="66,-537.5 66,-556.5 182,-556.5 182,-537.5 66,-537.5"/>
<text text-anchor="middle" x="124" y="-544.5" font-family="Helvetica,sans-Serif" font-size="10.00" fill="#000000">odp/api/abi/packet.h</text>
</g>
<!-- Node10&#45;&gt;Node14 -->
<g id="edge18" class="edge">
<title>Node10&#45;&gt;Node14</title>
<path fill="none" stroke="#191970" d="M410.7829,-594.7971C352.8201,-585.1367 256.2348,-569.0391 191.3596,-558.2266"/>
<polygon fill="#191970" stroke="#191970" points="191.6699,-554.7301 181.2305,-556.5384 190.5191,-561.6349 191.6699,-554.7301"/>
</g>
<!-- Node15 -->
<g id="node16" class="node">
<title>Node15</title>
<polygon fill="#ffffff" stroke="#bfbfbf" points="200,-537.5 200,-556.5 310,-556.5 310,-537.5 200,-537.5"/>
<text text-anchor="middle" x="255" y="-544.5" font-family="Helvetica,sans-Serif" font-size="10.00" fill="#000000">odp/api/abi/buffer.h</text>
</g>
<!-- Node10&#45;&gt;Node15 -->
<g id="edge19" class="edge">
<title>Node10&#45;&gt;Node15</title>
<path fill="none" stroke="#191970" d="M424.7592,-593.3733C390.0806,-583.9001 337.0117,-569.4032 299.4538,-559.1435"/>
<polygon fill="#191970" stroke="#191970" points="300.3498,-555.7601 289.7809,-556.5011 298.5051,-562.5126 300.3498,-555.7601"/>
</g>
<!-- Node16 -->
<g id="node17" class="node">
<title>Node16</title>
<polygon fill="#ffffff" stroke="#bfbfbf" points="328,-537.5 328,-556.5 432,-556.5 432,-537.5 328,-537.5"/>
<text text-anchor="middle" x="380" y="-544.5" font-family="Helvetica,sans-Serif" font-size="10.00" fill="#000000">odp/api/abi/pool.h</text>
</g>
<!-- Node10&#45;&gt;Node16 -->
<g id="edge20" class="edge">
<title>Node10&#45;&gt;Node16</title>
<path fill="none" stroke="#191970" d="M446.0651,-593.2455C433.9053,-584.7337 416.0536,-572.2375 401.9715,-562.3801"/>
<polygon fill="#191970" stroke="#191970" points="403.9747,-559.51 393.7752,-556.6427 399.9605,-565.2447 403.9747,-559.51"/>
</g>
<!-- Node17 -->
<g id="node18" class="node">
<title>Node17</title>
<g id="a_node18"><a xlink:href="spec_2packet_8h.html" target="_top" xlink:title="ODP packet descriptor. ">
<polygon fill="#ffffff" stroke="#000000" points="616.5,-537.5 616.5,-556.5 739.5,-556.5 739.5,-537.5 616.5,-537.5"/>
<text text-anchor="middle" x="678" y="-544.5" font-family="Helvetica,sans-Serif" font-size="10.00" fill="#000000">odp/api/spec/packet.h</text>
</a>
</g>
</g>
<!-- Node10&#45;&gt;Node17 -->
<g id="edge21" class="edge">
<title>Node10&#45;&gt;Node17</title>
<path fill="none" stroke="#191970" d="M497.4755,-593.3733C534.5103,-583.8598 591.2682,-569.2797 631.2361,-559.0127"/>
<polygon fill="#191970" stroke="#191970" points="632.1988,-562.3792 641.0135,-556.5011 630.4571,-555.5993 632.1988,-562.3792"/>
</g>
<!-- Node17&#45;&gt;Node1 -->
<g id="edge22" class="edge">
<title>Node17&#45;&gt;Node1</title>
<path fill="none" stroke="#191970" d="M713.9045,-537.4464C767.4847,-522.3421 870.5643,-489.9757 950,-445 969.268,-434.0906 971.2211,-427.1978 989,-414 1011.5701,-397.2455 1020.7176,-397.4615 1041,-378 1069.7342,-350.4288 1095,-346.3224 1095,-306.5 1095,-306.5 1095,-306.5 1095,-122 1095,-67.0984 1031.6897,-37.2384 983.5022,-22.4624"/>
<polygon fill="#191970" stroke="#191970" points="984.3642,-19.068 973.7838,-19.62 982.3992,-25.7865 984.3642,-19.068"/>
</g>
<!-- Node17&#45;&gt;Node9 -->
<g id="edge52" class="edge">
<title>Node17&#45;&gt;Node9</title>
<path fill="none" stroke="#191970" d="M669.535,-537.401C628.6791,-491.4946 446.4116,-291.482 265,-168 234.7652,-147.42 222.5241,-150.5448 191,-132 172.2959,-120.9969 121.0215,-95.2479 111,-76 106.895,-68.1157 105.2625,-62.7892 111,-56 124.1837,-40.3995 240.5784,-25.1641 316.7764,-16.7347"/>
<polygon fill="#191970" stroke="#191970" points="317.2232,-20.2068 326.7837,-15.641 316.4627,-13.2482 317.2232,-20.2068"/>
</g>
<!-- Node18 -->
<g id="node19" class="node">
<title>Node18</title>
<g id="a_node19"><a xlink:href="time_8h.html" target="_top" xlink:title="ODP time. ">
<polygon fill="#ffffff" stroke="#000000" points="289.5,-481.5 289.5,-500.5 376.5,-500.5 376.5,-481.5 289.5,-481.5"/>
<text text-anchor="middle" x="333" y="-488.5" font-family="Helvetica,sans-Serif" font-size="10.00" fill="#000000">odp/api/time.h</text>
</a>
</g>
</g>
<!-- Node17&#45;&gt;Node18 -->
<g id="edge23" class="edge">
<title>Node17&#45;&gt;Node18</title>
<path fill="none" stroke="#191970" d="M617.2186,-537.4713C559.1031,-528.3101 469.0276,-513.9791 391,-501 389.5511,-500.759 388.082,-500.5135 386.5996,-500.2648"/>
<polygon fill="#191970" stroke="#191970" points="387.1384,-496.8063 376.6949,-498.5905 385.9716,-503.7084 387.1384,-496.8063"/>
</g>
<!-- Node21 -->
<g id="node22" class="node">
<title>Node21</title>
<g id="a_node22"><a xlink:href="packet__types_8h.html" target="_top" xlink:title="ODP packet. ">
<polygon fill="#ffffff" stroke="#000000" points="915,-481.5 915,-500.5 1045,-500.5 1045,-481.5 915,-481.5"/>
<text text-anchor="middle" x="980" y="-488.5" font-family="Helvetica,sans-Serif" font-size="10.00" fill="#000000">odp/api/packet_types.h</text>
</a>
</g>
</g>
<!-- Node17&#45;&gt;Node21 -->
<g id="edge29" class="edge">
<title>Node17&#45;&gt;Node21</title>
<path fill="none" stroke="#191970" d="M729.5725,-537.4369C781.909,-527.7321 862.932,-512.708 918.5612,-502.3926"/>
<polygon fill="#191970" stroke="#191970" points="919.446,-505.7883 928.6402,-500.5237 918.1697,-498.9056 919.446,-505.7883"/>
</g>
<!-- Node18&#45;&gt;Node2 -->
<g id="edge24" class="edge">
<title>Node18&#45;&gt;Node2</title>
<path fill="none" stroke="#191970" d="M303.1563,-481.3906C270.3575,-470.8298 217.5328,-453.8208 181.3636,-442.1747"/>
<polygon fill="#191970" stroke="#191970" points="182.2257,-438.7753 171.6342,-439.0419 180.0802,-445.4385 182.2257,-438.7753"/>
</g>
<!-- Node19 -->
<g id="node20" class="node">
<title>Node19</title>
<polygon fill="#ffffff" stroke="#bfbfbf" points="216.5,-420 216.5,-439 321.5,-439 321.5,-420 216.5,-420"/>
<text text-anchor="middle" x="269" y="-427" font-family="Helvetica,sans-Serif" font-size="10.00" fill="#000000">odp/api/abi/time.h</text>
</g>
<!-- Node18&#45;&gt;Node19 -->
<g id="edge25" class="edge">
<title>Node18&#45;&gt;Node19</title>
<path fill="none" stroke="#191970" d="M323,-481.3906C313.2881,-472.0581 298.3361,-457.6902 286.6259,-446.4374"/>
<polygon fill="#191970" stroke="#191970" points="288.7766,-443.65 279.141,-439.2449 283.9264,-448.6974 288.7766,-443.65"/>
</g>
<!-- Node20 -->
<g id="node21" class="node">
<title>Node20</title>
<g id="a_node21"><a xlink:href="spec_2time_8h.html" target="_top" xlink:title="ODP time. ">
<polygon fill="#ffffff" stroke="#000000" points="492.5,-56.5 492.5,-75.5 605.5,-75.5 605.5,-56.5 492.5,-56.5"/>
<text text-anchor="middle" x="549" y="-63.5" font-family="Helvetica,sans-Serif" font-size="10.00" fill="#000000">odp/api/spec/time.h</text>
</a>
</g>
</g>
<!-- Node18&#45;&gt;Node20 -->
<g id="edge26" class="edge">
<title>Node18&#45;&gt;Node20</title>
<path fill="none" stroke="#191970" d="M340.6475,-481.4529C355.76,-461.5916 388,-413.8479 388,-368 388,-368 388,-368 388,-306.5 388,-206.8722 484.5849,-117.2976 528.1377,-81.9704"/>
<polygon fill="#191970" stroke="#191970" points="530.4482,-84.6049 536.0968,-75.6414 526.0914,-79.1259 530.4482,-84.6049"/>
</g>
<!-- Node20&#45;&gt;Node1 -->
<g id="edge27" class="edge">
<title>Node20&#45;&gt;Node1</title>
<path fill="none" stroke="#191970" d="M605.6281,-57.6767C673.1402,-47.7537 786.0109,-31.1637 859.2187,-20.4036"/>
<polygon fill="#191970" stroke="#191970" points="859.8918,-23.8423 869.2765,-18.9252 858.8738,-16.9167 859.8918,-23.8423"/>
</g>
<!-- Node20&#45;&gt;Node9 -->
<g id="edge28" class="edge">
<title>Node20&#45;&gt;Node9</title>
<path fill="none" stroke="#191970" d="M520.4636,-56.3733C492.9798,-47.1016 451.2314,-33.0178 420.9548,-22.804"/>
<polygon fill="#191970" stroke="#191970" points="421.7582,-19.3813 411.164,-19.5011 419.5206,-26.0141 421.7582,-19.3813"/>
</g>
<!-- Node21&#45;&gt;Node13 -->
<g id="edge30" class="edge">
<title>Node21&#45;&gt;Node13</title>
<path fill="none" stroke="#191970" d="M991.0938,-481.3906C1000.3468,-473.3756 1013.8876,-461.6466 1025.7556,-451.3666"/>
<polygon fill="#191970" stroke="#191970" points="1028.3643,-453.7374 1033.6314,-444.5446 1023.7812,-448.4464 1028.3643,-453.7374"/>
</g>
<!-- Node22 -->
<g id="node23" class="node">
<title>Node22</title>
<g id="a_node23"><a xlink:href="spec_2packet__types_8h.html" target="_top" xlink:title="ODP packet types. ">
<polygon fill="#ffffff" stroke="#000000" points="827,-414.5 827,-444.5 941,-444.5 941,-414.5 827,-414.5"/>
<text text-anchor="start" x="835" y="-432.5" font-family="Helvetica,sans-Serif" font-size="10.00" fill="#000000">odp/api/spec/packet</text>
<text text-anchor="middle" x="884" y="-421.5" font-family="Helvetica,sans-Serif" font-size="10.00" fill="#000000">_types.h</text>
</a>
</g>
</g>
<!-- Node21&#45;&gt;Node22 -->
<g id="edge31" class="edge">
<title>Node21&#45;&gt;Node22</title>
<path fill="none" stroke="#191970" d="M965,-481.3906C952.0076,-473.0673 932.7632,-460.7389 916.2922,-450.1872"/>
<polygon fill="#191970" stroke="#191970" points="917.7926,-446.9918 907.4842,-444.5446 914.0166,-452.886 917.7926,-446.9918"/>
</g>
<!-- Node22&#45;&gt;Node1 -->
<g id="edge32" class="edge">
<title>Node22&#45;&gt;Node1</title>
<path fill="none" stroke="#191970" d="M941.1261,-414.6628C991.5172,-397.7224 1057,-364.5422 1057,-306.5 1057,-306.5 1057,-306.5 1057,-122 1057,-73.155 1003.5021,-40.5347 965.9501,-23.6541"/>
<polygon fill="#191970" stroke="#191970" points="966.8834,-20.2454 956.3145,-19.5053 964.1152,-26.6747 966.8834,-20.2454"/>
</g>
<!-- Node22&#45;&gt;Node9 -->
<g id="edge51" class="edge">
<title>Node22&#45;&gt;Node9</title>
<path fill="none" stroke="#191970" d="M846.4211,-414.3648C722.3672,-363.4756 330.6228,-195.0675 275,-76 262.4836,-49.2072 292.9733,-32.3446 324.7118,-22.3761"/>
<polygon fill="#191970" stroke="#191970" points="325.9383,-25.6642 334.5556,-19.5003 323.9753,-18.945 325.9383,-25.6642"/>
</g>
<!-- Node23 -->
<g id="node24" class="node">
<title>Node23</title>
<g id="a_node24"><a xlink:href="queue__types_8h.html" target="_top" xlink:title="ODP queue. ">
<polygon fill="#ffffff" stroke="#000000" points="820.5,-358.5 820.5,-377.5 947.5,-377.5 947.5,-358.5 820.5,-358.5"/>
<text text-anchor="middle" x="884" y="-365.5" font-family="Helvetica,sans-Serif" font-size="10.00" fill="#000000">odp/api/queue_types.h</text>
</a>
</g>
</g>
<!-- Node22&#45;&gt;Node23 -->
<g id="edge33" class="edge">
<title>Node22&#45;&gt;Node23</title>
<path fill="none" stroke="#191970" d="M884,-414.2977C884,-406.3834 884,-396.6043 884,-388.0759"/>
<polygon fill="#191970" stroke="#191970" points="887.5001,-387.8469 884,-377.8469 880.5001,-387.847 887.5001,-387.8469"/>
</g>
<!-- Node24 -->
<g id="node25" class="node">
<title>Node24</title>
<polygon fill="#ffffff" stroke="#bfbfbf" points="688.5,-297 688.5,-316 833.5,-316 833.5,-297 688.5,-297"/>
<text text-anchor="middle" x="761" y="-304" font-family="Helvetica,sans-Serif" font-size="10.00" fill="#000000">odp/api/abi/queue_types.h</text>
</g>
<!-- Node23&#45;&gt;Node24 -->
<g id="edge34" class="edge">
<title>Node23&#45;&gt;Node24</title>
<path fill="none" stroke="#191970" d="M864.7813,-358.3906C844.4719,-348.2359 812.2393,-332.1196 789.0832,-320.5416"/>
<polygon fill="#191970" stroke="#191970" points="790.5933,-317.3836 780.0838,-316.0419 787.4628,-323.6446 790.5933,-317.3836"/>
</g>
<!-- Node25 -->
<g id="node26" class="node">
<title>Node25</title>
<g id="a_node26"><a xlink:href="spec_2queue__types_8h.html" target="_top" xlink:title="ODP queue types. ">
<polygon fill="#ffffff" stroke="#000000" points="851.5,-291.5 851.5,-321.5 962.5,-321.5 962.5,-291.5 851.5,-291.5"/>
<text text-anchor="start" x="859.5" y="-309.5" font-family="Helvetica,sans-Serif" font-size="10.00" fill="#000000">odp/api/spec/queue</text>
<text text-anchor="middle" x="907" y="-298.5" font-family="Helvetica,sans-Serif" font-size="10.00" fill="#000000">_types.h</text>
</a>
</g>
</g>
<!-- Node23&#45;&gt;Node25 -->
<g id="edge35" class="edge">
<title>Node23&#45;&gt;Node25</title>
<path fill="none" stroke="#191970" d="M887.5938,-358.3906C890.3318,-351.0692 894.2289,-340.6488 897.8132,-331.0647"/>
<polygon fill="#191970" stroke="#191970" points="901.1489,-332.137 901.3736,-321.5446 894.5924,-329.685 901.1489,-332.137"/>
</g>
<!-- Node25&#45;&gt;Node1 -->
<g id="edge36" class="edge">
<title>Node25&#45;&gt;Node1</title>
<path fill="none" stroke="#191970" d="M950.1061,-291.4187C967.8973,-283.1942 987.2872,-271.2994 1000,-255 1020.222,-229.073 1019,-216.3806 1019,-183.5 1019,-183.5 1019,-183.5 1019,-122 1019,-80.0503 980.2563,-44.7004 953.8943,-25.503"/>
<polygon fill="#191970" stroke="#191970" points="955.7013,-22.4956 945.5026,-19.6256 951.6856,-28.2292 955.7013,-22.4956"/>
</g>
<!-- Node25&#45;&gt;Node9 -->
<g id="edge50" class="edge">
<title>Node25&#45;&gt;Node9</title>
<path fill="none" stroke="#191970" d="M851.3533,-293.0023C724.7392,-262.196 426,-188.9343 426,-183.5 426,-183.5 426,-183.5 426,-122 426,-87.1403 407.6207,-49.9899 394.8941,-28.444"/>
<polygon fill="#191970" stroke="#191970" points="397.7451,-26.3983 389.5308,-19.7069 391.7794,-30.0603 397.7451,-26.3983"/>
</g>
<!-- Node26 -->
<g id="node27" class="node">
<title>Node26</title>
<g id="a_node27"><a xlink:href="schedule__types_8h.html" target="_top" xlink:title="ODP schedule. ">
<polygon fill="#ffffff" stroke="#000000" points="713,-235.5 713,-254.5 853,-254.5 853,-235.5 713,-235.5"/>
<text text-anchor="middle" x="783" y="-242.5" font-family="Helvetica,sans-Serif" font-size="10.00" fill="#000000">odp/api/schedule_types.h</text>
</a>
</g>
</g>
<!-- Node25&#45;&gt;Node26 -->
<g id="edge37" class="edge">
<title>Node25&#45;&gt;Node26</title>
<path fill="none" stroke="#191970" d="M876.6662,-291.4554C856.7024,-281.554 830.751,-268.683 811.2285,-259.0004"/>
<polygon fill="#191970" stroke="#191970" points="812.7294,-255.838 802.2156,-254.5303 809.6191,-262.1091 812.7294,-255.838"/>
</g>
<!-- Node31 -->
<g id="node32" class="node">
<title>Node31</title>
<g id="a_node32"><a xlink:href="deprecated_8h.html" target="_top" xlink:title="Control deprecated API definitions. ">
<polygon fill="#ffffff" stroke="#000000" points="871.5,-235.5 871.5,-254.5 990.5,-254.5 990.5,-235.5 871.5,-235.5"/>
<text text-anchor="middle" x="931" y="-242.5" font-family="Helvetica,sans-Serif" font-size="10.00" fill="#000000">odp/api/deprecated.h</text>
</a>
</g>
</g>
<!-- Node25&#45;&gt;Node31 -->
<g id="edge46" class="edge">
<title>Node25&#45;&gt;Node31</title>
<path fill="none" stroke="#191970" d="M912.9326,-291.2977C916.1252,-283.1166 920.0954,-272.943 923.5004,-264.2179"/>
<polygon fill="#191970" stroke="#191970" points="926.7823,-265.4351 927.1573,-254.8469 920.2613,-262.8903 926.7823,-265.4351"/>
</g>
<!-- Node27 -->
<g id="node28" class="node">
<title>Node27</title>
<polygon fill="#ffffff" stroke="#bfbfbf" points="806.5,-168.5 806.5,-198.5 923.5,-198.5 923.5,-168.5 806.5,-168.5"/>
<text text-anchor="start" x="814.5" y="-186.5" font-family="Helvetica,sans-Serif" font-size="10.00" fill="#000000">odp/api/abi/schedule</text>
<text text-anchor="middle" x="865" y="-175.5" font-family="Helvetica,sans-Serif" font-size="10.00" fill="#000000">_types.h</text>
</g>
<!-- Node26&#45;&gt;Node27 -->
<g id="edge38" class="edge">
<title>Node26&#45;&gt;Node27</title>
<path fill="none" stroke="#191970" d="M795.8125,-235.3906C806.7047,-227.2215 822.7412,-215.1941 836.6331,-204.7752"/>
<polygon fill="#191970" stroke="#191970" points="839.0405,-207.3446 844.9405,-198.5446 834.8405,-201.7446 839.0405,-207.3446"/>
</g>
<!-- Node28 -->
<g id="node29" class="node">
<title>Node28</title>
<g id="a_node29"><a xlink:href="spec_2schedule__types_8h.html" target="_top" xlink:title="ODP schedule types. ">
<polygon fill="#ffffff" stroke="#000000" points="663.5,-168.5 663.5,-198.5 788.5,-198.5 788.5,-168.5 663.5,-168.5"/>
<text text-anchor="start" x="671.5" y="-186.5" font-family="Helvetica,sans-Serif" font-size="10.00" fill="#000000">odp/api/spec/schedule</text>
<text text-anchor="middle" x="726" y="-175.5" font-family="Helvetica,sans-Serif" font-size="10.00" fill="#000000">_types.h</text>
</a>
</g>
</g>
<!-- Node26&#45;&gt;Node28 -->
<g id="edge39" class="edge">
<title>Node26&#45;&gt;Node28</title>
<path fill="none" stroke="#191970" d="M774.0938,-235.3906C766.8081,-227.5298 756.2113,-216.0964 746.8177,-205.9612"/>
<polygon fill="#191970" stroke="#191970" points="749.3085,-203.4997 739.9438,-198.5446 744.1744,-208.2581 749.3085,-203.4997"/>
</g>
<!-- Node28&#45;&gt;Node1 -->
<g id="edge40" class="edge">
<title>Node28&#45;&gt;Node1</title>
<path fill="none" stroke="#191970" d="M774.1896,-168.4169C836.7612,-147.7444 940.5332,-109.3673 962,-76 972.1366,-60.244 960.0528,-40.7991 947.9411,-27.1095"/>
<polygon fill="#191970" stroke="#191970" points="950.4026,-24.6189 940.9744,-19.7857 945.3307,-29.4435 950.4026,-24.6189"/>
</g>
<!-- Node28&#45;&gt;Node9 -->
<g id="edge45" class="edge">
<title>Node28&#45;&gt;Node9</title>
<path fill="none" stroke="#191970" d="M686.7464,-168.4912C637.8935,-149.2823 552.4325,-113.9256 483,-76 454.8207,-60.6078 424.2669,-39.7821 404.4472,-25.6714"/>
<polygon fill="#191970" stroke="#191970" points="406.3065,-22.6975 396.1433,-19.7042 402.2216,-28.3821 406.3065,-22.6975"/>
</g>
<!-- Node29 -->
<g id="node30" class="node">
<title>Node29</title>
<g id="a_node30"><a xlink:href="support_8h.html" target="_top" xlink:title="ODP support API &#45; platform specific header. ">
<polygon fill="#ffffff" stroke="#000000" points="675.5,-112.5 675.5,-131.5 776.5,-131.5 776.5,-112.5 675.5,-112.5"/>
<text text-anchor="middle" x="726" y="-119.5" font-family="Helvetica,sans-Serif" font-size="10.00" fill="#000000">odp/api/support.h</text>
</a>
</g>
</g>
<!-- Node28&#45;&gt;Node29 -->
<g id="edge41" class="edge">
<title>Node28&#45;&gt;Node29</title>
<path fill="none" stroke="#191970" d="M726,-168.2977C726,-160.3834 726,-150.6043 726,-142.0759"/>
<polygon fill="#191970" stroke="#191970" points="729.5001,-141.8469 726,-131.8469 722.5001,-141.847 729.5001,-141.8469"/>
</g>
<!-- Node30 -->
<g id="node31" class="node">
<title>Node30</title>
<g id="a_node31"><a xlink:href="spec_2support_8h.html" target="_top" xlink:title="ODP support API. ">
<polygon fill="#ffffff" stroke="#000000" points="662.5,-56.5 662.5,-75.5 789.5,-75.5 789.5,-56.5 662.5,-56.5"/>
<text text-anchor="middle" x="726" y="-63.5" font-family="Helvetica,sans-Serif" font-size="10.00" fill="#000000">odp/api/spec/support.h</text>
</a>
</g>
</g>
<!-- Node29&#45;&gt;Node30 -->
<g id="edge42" class="edge">
<title>Node29&#45;&gt;Node30</title>
<path fill="none" stroke="#191970" d="M726,-112.2455C726,-104.9382 726,-94.6944 726,-85.7046"/>
<polygon fill="#191970" stroke="#191970" points="729.5001,-85.6426 726,-75.6427 722.5001,-85.6427 729.5001,-85.6426"/>
</g>
<!-- Node30&#45;&gt;Node1 -->
<g id="edge43" class="edge">
<title>Node30&#45;&gt;Node1</title>
<path fill="none" stroke="#191970" d="M761.0689,-56.3733C795.4315,-46.9404 847.9392,-32.5265 885.2851,-22.2747"/>
<polygon fill="#191970" stroke="#191970" points="886.672,-25.5235 895.3888,-19.5011 884.819,-18.7732 886.672,-25.5235"/>
</g>
<!-- Node30&#45;&gt;Node9 -->
<g id="edge44" class="edge">
<title>Node30&#45;&gt;Node9</title>
<path fill="none" stroke="#191970" d="M667.4259,-56.4369C606.7644,-46.533 512.1709,-31.0891 448.9273,-20.7636"/>
<polygon fill="#191970" stroke="#191970" points="449.4895,-17.3092 439.0562,-19.152 448.3616,-24.2177 449.4895,-17.3092"/>
</g>
<!-- Node32 -->
<g id="node33" class="node">
<title>Node32</title>
<g id="a_node33"><a xlink:href="spec_2deprecated_8h.html" target="_top" xlink:title="Macro for deprecated API definitions. ">
<polygon fill="#ffffff" stroke="#000000" points="807.5,-56.5 807.5,-75.5 952.5,-75.5 952.5,-56.5 807.5,-56.5"/>
<text text-anchor="middle" x="880" y="-63.5" font-family="Helvetica,sans-Serif" font-size="10.00" fill="#000000">odp/api/spec/deprecated.h</text>
</a>
</g>
</g>
<!-- Node31&#45;&gt;Node32 -->
<g id="edge47" class="edge">
<title>Node31&#45;&gt;Node32</title>
<path fill="none" stroke="#191970" d="M932.8526,-235.3445C935.3283,-220.5868 938.7759,-191.6428 933,-168 925.2727,-136.3696 905.8663,-103.6249 892.8069,-84.0348"/>
<polygon fill="#191970" stroke="#191970" points="895.6885,-82.0482 887.1514,-75.7738 889.9124,-86.0026 895.6885,-82.0482"/>
</g>
<!-- Node32&#45;&gt;Node1 -->
<g id="edge48" class="edge">
<title>Node32&#45;&gt;Node1</title>
<path fill="none" stroke="#191970" d="M888.7093,-56.2455C895.8073,-48.2958 906.0084,-36.8706 914.495,-27.3656"/>
<polygon fill="#191970" stroke="#191970" points="917.3411,-29.4331 921.3905,-19.6427 912.1195,-24.771 917.3411,-29.4331"/>
</g>
<!-- Node32&#45;&gt;Node9 -->
<g id="edge49" class="edge">
<title>Node32&#45;&gt;Node9</title>
<path fill="none" stroke="#191970" d="M807.1475,-56.9616C804.3971,-56.6344 801.6739,-56.3129 799,-56 675.6333,-41.5646 531.5386,-25.8974 449.4021,-17.0796"/>
<polygon fill="#191970" stroke="#191970" points="449.526,-13.5729 439.2097,-15.9864 448.7794,-20.533 449.526,-13.5729"/>
</g>
</g>
</svg>
