<?xml version="1.0" encoding="UTF-8" standalone="no"?>
<!DOCTYPE svg PUBLIC "-//W3C//DTD SVG 1.1//EN"
 "http://www.w3.org/Graphics/SVG/1.1/DTD/svg11.dtd">
<!-- Generated by graphviz version 2.43.0 (0)
 -->
<!-- Title: reassembly.h Pages: 1 -->
<svg width="421pt" height="308pt"
 viewBox="0.00 0.00 420.50 308.00" xmlns="http://www.w3.org/2000/svg" xmlns:xlink="http://www.w3.org/1999/xlink">
<g id="graph0" class="graph" transform="scale(1 1) rotate(0) translate(4 304)">
<title>reassembly.h</title>
<polygon fill="white" stroke="transparent" points="-4,4 -4,-304 416.5,-304 416.5,4 -4,4"/>
<!-- Node1 -->
<g id="node1" class="node">
<title>Node1</title>
<g id="a_node1"><a xlink:title="ODP REASSEMBLY API.">
<polygon fill="#bfbfbf" stroke="black" points="152,-280.5 152,-299.5 233,-299.5 233,-280.5 152,-280.5"/>
<text text-anchor="middle" x="192.5" y="-287.5" font-family="Helvetica,sans-Serif" font-size="10.00">reassembly.h</text>
</a>
</g>
</g>
<!-- Node2 -->
<g id="node2" class="node">
<title>Node2</title>
<g id="a_node2"><a xlink:title=" ">
<polygon fill="white" stroke="#bfbfbf" points="0,-0.5 0,-19.5 121,-19.5 121,-0.5 0,-0.5"/>
<text text-anchor="middle" x="60.5" y="-7.5" font-family="Helvetica,sans-Serif" font-size="10.00">odp/visibility_begin.h</text>
</a>
</g>
</g>
<!-- Node1&#45;&gt;Node2 -->
<g id="edge1" class="edge">
<title>Node1&#45;&gt;Node2</title>
<path fill="none" stroke="midnightblue" d="M151.78,-281.3C101.49,-269.17 22.5,-240.34 22.5,-179 22.5,-179 22.5,-179 22.5,-121 22.5,-86.81 39.1,-49.76 50.36,-28.57"/>
<polygon fill="midnightblue" stroke="midnightblue" points="53.45,-30.22 55.22,-19.77 47.32,-26.83 53.45,-30.22"/>
</g>
<!-- Node3 -->
<g id="node3" class="node">
<title>Node3</title>
<g id="a_node3"><a xlink:href="std__types_8h.html" target="_top" xlink:title="Standard C language types and definitions for ODP.">
<polygon fill="white" stroke="black" points="136.5,-224.5 136.5,-243.5 248.5,-243.5 248.5,-224.5 136.5,-224.5"/>
<text text-anchor="middle" x="192.5" y="-231.5" font-family="Helvetica,sans-Serif" font-size="10.00">odp/api/std_types.h</text>
</a>
</g>
</g>
<!-- Node1&#45;&gt;Node3 -->
<g id="edge2" class="edge">
<title>Node1&#45;&gt;Node3</title>
<path fill="none" stroke="midnightblue" d="M192.5,-280.08C192.5,-273.01 192.5,-262.86 192.5,-253.99"/>
<polygon fill="midnightblue" stroke="midnightblue" points="196,-253.75 192.5,-243.75 189,-253.75 196,-253.75"/>
</g>
<!-- Node10 -->
<g id="node10" class="node">
<title>Node10</title>
<g id="a_node10"><a xlink:title=" ">
<polygon fill="white" stroke="#bfbfbf" points="300.5,-0.5 300.5,-19.5 412.5,-19.5 412.5,-0.5 300.5,-0.5"/>
<text text-anchor="middle" x="356.5" y="-7.5" font-family="Helvetica,sans-Serif" font-size="10.00">odp/visibility_end.h</text>
</a>
</g>
</g>
<!-- Node1&#45;&gt;Node10 -->
<g id="edge13" class="edge">
<title>Node1&#45;&gt;Node10</title>
<path fill="none" stroke="midnightblue" d="M233.38,-284.96C292.4,-276.61 394.5,-251.68 394.5,-179 394.5,-179 394.5,-179 394.5,-121 394.5,-86.81 377.9,-49.76 366.64,-28.57"/>
<polygon fill="midnightblue" stroke="midnightblue" points="369.68,-26.83 361.78,-19.77 363.55,-30.22 369.68,-26.83"/>
</g>
<!-- Node4 -->
<g id="node4" class="node">
<title>Node4</title>
<g id="a_node4"><a xlink:title=" ">
<polygon fill="white" stroke="#bfbfbf" points="51.5,-168.5 51.5,-187.5 181.5,-187.5 181.5,-168.5 51.5,-168.5"/>
<text text-anchor="middle" x="116.5" y="-175.5" font-family="Helvetica,sans-Serif" font-size="10.00">odp/api/abi/std_types.h</text>
</a>
</g>
</g>
<!-- Node3&#45;&gt;Node4 -->
<g id="edge3" class="edge">
<title>Node3&#45;&gt;Node4</title>
<path fill="none" stroke="midnightblue" d="M180.29,-224.32C168.72,-216.11 151.12,-203.6 137.34,-193.81"/>
<polygon fill="midnightblue" stroke="midnightblue" points="139.11,-190.77 128.93,-187.83 135.06,-196.48 139.11,-190.77"/>
</g>
<!-- Node5 -->
<g id="node5" class="node">
<title>Node5</title>
<g id="a_node5"><a xlink:href="spec_2std__types_8h.html" target="_top" xlink:title="Common types and definitions for ODP API files.">
<polygon fill="white" stroke="black" points="200,-168.5 200,-187.5 337,-187.5 337,-168.5 200,-168.5"/>
<text text-anchor="middle" x="268.5" y="-175.5" font-family="Helvetica,sans-Serif" font-size="10.00">odp/api/spec/std_types.h</text>
</a>
</g>
</g>
<!-- Node3&#45;&gt;Node5 -->
<g id="edge4" class="edge">
<title>Node3&#45;&gt;Node5</title>
<path fill="none" stroke="midnightblue" d="M204.71,-224.32C216.28,-216.11 233.88,-203.6 247.66,-193.81"/>
<polygon fill="midnightblue" stroke="midnightblue" points="249.94,-196.48 256.07,-187.83 245.89,-190.77 249.94,-196.48"/>
</g>
<!-- Node5&#45;&gt;Node2 -->
<g id="edge5" class="edge">
<title>Node5&#45;&gt;Node2</title>
<path fill="none" stroke="midnightblue" d="M235.21,-168.5C209.38,-161.07 173.26,-148.83 144.5,-132 111.59,-112.74 100.14,-108.06 79.5,-76 70.45,-61.94 65.59,-43.45 63.06,-29.78"/>
<polygon fill="midnightblue" stroke="midnightblue" points="66.48,-28.97 61.44,-19.64 59.56,-30.07 66.48,-28.97"/>
</g>
<!-- Node6 -->
<g id="node6" class="node">
<title>Node6</title>
<g id="a_node6"><a xlink:title=" ">
<polygon fill="white" stroke="#bfbfbf" points="154,-112.5 154,-131.5 207,-131.5 207,-112.5 154,-112.5"/>
<text text-anchor="middle" x="180.5" y="-119.5" font-family="Helvetica,sans-Serif" font-size="10.00">stdint.h</text>
</a>
</g>
</g>
<!-- Node5&#45;&gt;Node6 -->
<g id="edge6" class="edge">
<title>Node5&#45;&gt;Node6</title>
<path fill="none" stroke="midnightblue" d="M254.36,-168.32C240.63,-159.9 219.56,-146.97 203.44,-137.07"/>
<polygon fill="midnightblue" stroke="midnightblue" points="204.96,-133.9 194.6,-131.65 201.3,-139.87 204.96,-133.9"/>
</g>
<!-- Node7 -->
<g id="node7" class="node">
<title>Node7</title>
<g id="a_node7"><a xlink:href="align_8h.html" target="_top" xlink:title="ODP alignments.">
<polygon fill="white" stroke="black" points="225,-112.5 225,-131.5 314,-131.5 314,-112.5 225,-112.5"/>
<text text-anchor="middle" x="269.5" y="-119.5" font-family="Helvetica,sans-Serif" font-size="10.00">odp/api/align.h</text>
</a>
</g>
</g>
<!-- Node5&#45;&gt;Node7 -->
<g id="edge7" class="edge">
<title>Node5&#45;&gt;Node7</title>
<path fill="none" stroke="midnightblue" d="M268.67,-168.08C268.8,-161.01 268.98,-150.86 269.15,-141.99"/>
<polygon fill="midnightblue" stroke="midnightblue" points="272.65,-141.81 269.34,-131.75 265.65,-141.68 272.65,-141.81"/>
</g>
<!-- Node5&#45;&gt;Node10 -->
<g id="edge12" class="edge">
<title>Node5&#45;&gt;Node10</title>
<path fill="none" stroke="midnightblue" d="M283.55,-168.39C296.05,-160.48 313.36,-147.63 323.5,-132 344.37,-99.85 352.14,-54.7 354.96,-29.63"/>
<polygon fill="midnightblue" stroke="midnightblue" points="358.45,-29.94 355.94,-19.64 351.48,-29.26 358.45,-29.94"/>
</g>
<!-- Node8 -->
<g id="node8" class="node">
<title>Node8</title>
<g id="a_node8"><a xlink:title=" ">
<polygon fill="white" stroke="#bfbfbf" points="89,-56.5 89,-75.5 196,-75.5 196,-56.5 89,-56.5"/>
<text text-anchor="middle" x="142.5" y="-63.5" font-family="Helvetica,sans-Serif" font-size="10.00">odp/api/abi/align.h</text>
</a>
</g>
</g>
<!-- Node7&#45;&gt;Node8 -->
<g id="edge8" class="edge">
<title>Node7&#45;&gt;Node8</title>
<path fill="none" stroke="midnightblue" d="M249.38,-112.44C228.48,-103.56 195.57,-89.56 171.78,-79.45"/>
<polygon fill="midnightblue" stroke="midnightblue" points="173.1,-76.21 162.53,-75.52 170.36,-82.65 173.1,-76.21"/>
</g>
<!-- Node9 -->
<g id="node9" class="node">
<title>Node9</title>
<g id="a_node9"><a xlink:href="spec_2align_8h.html" target="_top" xlink:title="ODP alignments.">
<polygon fill="white" stroke="black" points="214.5,-56.5 214.5,-75.5 328.5,-75.5 328.5,-56.5 214.5,-56.5"/>
<text text-anchor="middle" x="271.5" y="-63.5" font-family="Helvetica,sans-Serif" font-size="10.00">odp/api/spec/align.h</text>
</a>
</g>
</g>
<!-- Node7&#45;&gt;Node9 -->
<g id="edge9" class="edge">
<title>Node7&#45;&gt;Node9</title>
<path fill="none" stroke="midnightblue" d="M269.83,-112.08C270.09,-105.01 270.47,-94.86 270.8,-85.99"/>
<polygon fill="midnightblue" stroke="midnightblue" points="274.3,-85.87 271.18,-75.75 267.31,-85.61 274.3,-85.87"/>
</g>
<!-- Node9&#45;&gt;Node2 -->
<g id="edge10" class="edge">
<title>Node9&#45;&gt;Node2</title>
<path fill="none" stroke="midnightblue" d="M238.07,-56.44C201.64,-47.12 143.27,-32.18 103.47,-22"/>
<polygon fill="midnightblue" stroke="midnightblue" points="104.33,-18.61 93.78,-19.52 102.6,-25.39 104.33,-18.61"/>
</g>
<!-- Node9&#45;&gt;Node10 -->
<g id="edge11" class="edge">
<title>Node9&#45;&gt;Node10</title>
<path fill="none" stroke="midnightblue" d="M285.16,-56.32C298.42,-47.9 318.77,-34.97 334.35,-25.07"/>
<polygon fill="midnightblue" stroke="midnightblue" points="336.31,-27.97 342.88,-19.65 332.56,-22.06 336.31,-27.97"/>
</g>
</g>
</svg>
