<?xml version="1.0" encoding="UTF-8" standalone="no"?>
<!DOCTYPE svg PUBLIC "-//W3C//DTD SVG 1.1//EN"
 "http://www.w3.org/Graphics/SVG/1.1/DTD/svg11.dtd">
<!-- Generated by graphviz version 2.40.1 (20161225.0304)
 -->
<!-- Title: schedule_types.h Pages: 1 -->
<svg width="272pt" height="196pt"
 viewBox="0.00 0.00 271.50 196.00" xmlns="http://www.w3.org/2000/svg" xmlns:xlink="http://www.w3.org/1999/xlink">
<g id="graph0" class="graph" transform="scale(1 1) rotate(0) translate(4 192)">
<title>schedule_types.h</title>
<polygon fill="#ffffff" stroke="transparent" points="-4,4 -4,-192 267.5,-192 267.5,4 -4,4"/>
<!-- Node0 -->
<g id="node1" class="node">
<title>Node0</title>
<polygon fill="#bfbfbf" stroke="#000000" points="78,-168.5 78,-187.5 179,-187.5 179,-168.5 78,-168.5"/>
<text text-anchor="middle" x="128.5" y="-175.5" font-family="Helvetica,sans-Serif" font-size="10.00" fill="#000000">schedule_types.h</text>
</g>
<!-- Node1 -->
<g id="node2" class="node">
<title>Node1</title>
<polygon fill="#ffffff" stroke="#bfbfbf" points="0,-.5 0,-19.5 121,-19.5 121,-.5 0,-.5"/>
<text text-anchor="middle" x="60.5" y="-7.5" font-family="Helvetica,sans-Serif" font-size="10.00" fill="#000000">odp/visibility_begin.h</text>
</g>
<!-- Node0&#45;&gt;Node1 -->
<g id="edge1" class="edge">
<title>Node0&#45;&gt;Node1</title>
<path fill="none" stroke="#191970" d="M109.9745,-168.4133C96.4425,-160.4569 78.7379,-147.8882 68.5,-132 48.3695,-100.7594 52.033,-55.1833 56.3597,-29.4948"/>
<polygon fill="#191970" stroke="#191970" points="59.8291,-29.9843 58.2491,-19.5079 52.9511,-28.683 59.8291,-29.9843"/>
</g>
<!-- Node2 -->
<g id="node3" class="node">
<title>Node2</title>
<g id="a_node3"><a xlink:href="support_8h.html" target="_top" xlink:title="ODP support API &#45; platform specific header. ">
<polygon fill="#ffffff" stroke="#000000" points="78,-112.5 78,-131.5 179,-131.5 179,-112.5 78,-112.5"/>
<text text-anchor="middle" x="128.5" y="-119.5" font-family="Helvetica,sans-Serif" font-size="10.00" fill="#000000">odp/api/support.h</text>
</a>
</g>
</g>
<!-- Node0&#45;&gt;Node2 -->
<g id="edge2" class="edge">
<title>Node0&#45;&gt;Node2</title>
<path fill="none" stroke="#191970" d="M128.5,-168.2455C128.5,-160.9382 128.5,-150.6944 128.5,-141.7046"/>
<polygon fill="#191970" stroke="#191970" points="132.0001,-141.6426 128.5,-131.6427 125.0001,-141.6427 132.0001,-141.6426"/>
</g>
<!-- Node4 -->
<g id="node5" class="node">
<title>Node4</title>
<polygon fill="#ffffff" stroke="#bfbfbf" points="151.5,-.5 151.5,-19.5 263.5,-19.5 263.5,-.5 151.5,-.5"/>
<text text-anchor="middle" x="207.5" y="-7.5" font-family="Helvetica,sans-Serif" font-size="10.00" fill="#000000">odp/visibility_end.h</text>
</g>
<!-- Node0&#45;&gt;Node4 -->
<g id="edge6" class="edge">
<title>Node0&#45;&gt;Node4</title>
<path fill="none" stroke="#191970" d="M146.717,-168.3415C160.0236,-160.3473 177.4332,-147.763 187.5,-132 207.536,-100.6267 209.6035,-55.7664 208.853,-30.0939"/>
<polygon fill="#191970" stroke="#191970" points="212.3332,-29.5894 208.3644,-19.766 205.341,-29.9203 212.3332,-29.5894"/>
</g>
<!-- Node3 -->
<g id="node4" class="node">
<title>Node3</title>
<g id="a_node4"><a xlink:href="spec_2support_8h.html" target="_top" xlink:title="ODP support API. ">
<polygon fill="#ffffff" stroke="#000000" points="65,-56.5 65,-75.5 192,-75.5 192,-56.5 65,-56.5"/>
<text text-anchor="middle" x="128.5" y="-63.5" font-family="Helvetica,sans-Serif" font-size="10.00" fill="#000000">odp/api/spec/support.h</text>
</a>
</g>
</g>
<!-- Node2&#45;&gt;Node3 -->
<g id="edge3" class="edge">
<title>Node2&#45;&gt;Node3</title>
<path fill="none" stroke="#191970" d="M128.5,-112.2455C128.5,-104.9382 128.5,-94.6944 128.5,-85.7046"/>
<polygon fill="#191970" stroke="#191970" points="132.0001,-85.6426 128.5,-75.6427 125.0001,-85.6427 132.0001,-85.6426"/>
</g>
<!-- Node3&#45;&gt;Node1 -->
<g id="edge4" class="edge">
<title>Node3&#45;&gt;Node1</title>
<path fill="none" stroke="#191970" d="M116.6553,-56.2455C106.612,-47.9746 92.0005,-35.9416 80.1996,-26.2232"/>
<polygon fill="#191970" stroke="#191970" points="82.1533,-23.298 72.209,-19.6427 77.7033,-28.7015 82.1533,-23.298"/>
</g>
<!-- Node3&#45;&gt;Node4 -->
<g id="edge5" class="edge">
<title>Node3&#45;&gt;Node4</title>
<path fill="none" stroke="#191970" d="M142.2607,-56.2455C154.1552,-47.814 171.565,-35.4729 185.4085,-25.6598"/>
<polygon fill="#191970" stroke="#191970" points="187.7628,-28.2811 193.8969,-19.6427 183.7146,-22.5704 187.7628,-28.2811"/>
</g>
</g>
</svg>
