<?xml version="1.0" encoding="UTF-8" standalone="no"?>
<!DOCTYPE svg PUBLIC "-//W3C//DTD SVG 1.1//EN"
 "http://www.w3.org/Graphics/SVG/1.1/DTD/svg11.dtd">
<!-- Generated by graphviz version 2.43.0 (0)
 -->
<!-- Title: pool_types.h Pages: 1 -->
<svg width="1692pt" height="934pt"
 viewBox="0.00 0.00 1692.00 934.00" xmlns="http://www.w3.org/2000/svg" xmlns:xlink="http://www.w3.org/1999/xlink">
<g id="graph0" class="graph" transform="scale(1 1) rotate(0) translate(4 930)">
<title>pool_types.h</title>
<polygon fill="white" stroke="transparent" points="-4,4 -4,-930 1688,-930 1688,4 -4,4"/>
<!-- Node1 -->
<g id="node1" class="node">
<title>Node1</title>
<g id="a_node1"><a xlink:title="Type definitions for pools.">
<polygon fill="#bfbfbf" stroke="black" points="1086.5,-906.5 1086.5,-925.5 1165.5,-925.5 1165.5,-906.5 1086.5,-906.5"/>
<text text-anchor="middle" x="1126" y="-913.5" font-family="Helvetica,sans-Serif" font-size="10.00">pool_types.h</text>
</a>
</g>
</g>
<!-- Node2 -->
<g id="node2" class="node">
<title>Node2</title>
<g id="a_node2"><a xlink:title=" ">
<polygon fill="white" stroke="#bfbfbf" points="205.5,-0.5 205.5,-19.5 326.5,-19.5 326.5,-0.5 205.5,-0.5"/>
<text text-anchor="middle" x="266" y="-7.5" font-family="Helvetica,sans-Serif" font-size="10.00">odp/visibility_begin.h</text>
</a>
</g>
</g>
<!-- Node1&#45;&gt;Node2 -->
<g id="edge1" class="edge">
<title>Node1&#45;&gt;Node2</title>
<path fill="none" stroke="midnightblue" d="M1086.45,-914.39C910.55,-911.54 203.76,-898.38 109,-870 54.97,-853.82 0,-861.4 0,-805 0,-805 0,-805 0,-132 0,-46.18 116.14,-20.94 194.93,-13.7"/>
<polygon fill="midnightblue" stroke="midnightblue" points="195.64,-17.15 205.31,-12.83 195.05,-10.18 195.64,-17.15"/>
</g>
<!-- Node3 -->
<g id="node3" class="node">
<title>Node3</title>
<g id="a_node3"><a xlink:href="std__types_8h.html" target="_top" xlink:title="Standard C language types and definitions for ODP.">
<polygon fill="white" stroke="black" points="699,-235.5 699,-254.5 811,-254.5 811,-235.5 699,-235.5"/>
<text text-anchor="middle" x="755" y="-242.5" font-family="Helvetica,sans-Serif" font-size="10.00">odp/api/std_types.h</text>
</a>
</g>
</g>
<!-- Node1&#45;&gt;Node3 -->
<g id="edge2" class="edge">
<title>Node1&#45;&gt;Node3</title>
<path fill="none" stroke="midnightblue" d="M1086.31,-915.24C890.64,-915.89 38,-912.56 38,-805 38,-805 38,-805 38,-685.5 38,-618.46 51.23,-593.99 100,-548 244,-412.2 366.69,-518.94 516,-389 553.51,-356.35 530.5,-321.21 570,-291 588.67,-276.72 643.71,-264.42 688.94,-256.3"/>
<polygon fill="midnightblue" stroke="midnightblue" points="689.77,-259.71 699.01,-254.53 688.56,-252.81 689.77,-259.71"/>
</g>
<!-- Node10 -->
<g id="node10" class="node">
<title>Node10</title>
<g id="a_node10"><a xlink:title=" ">
<polygon fill="white" stroke="#bfbfbf" points="1026,-0.5 1026,-19.5 1138,-19.5 1138,-0.5 1026,-0.5"/>
<text text-anchor="middle" x="1082" y="-7.5" font-family="Helvetica,sans-Serif" font-size="10.00">odp/visibility_end.h</text>
</a>
</g>
</g>
<!-- Node1&#45;&gt;Node10 -->
<g id="edge78" class="edge">
<title>Node1&#45;&gt;Node10</title>
<path fill="none" stroke="midnightblue" d="M1165.68,-915.62C1293.16,-916.55 1684,-910.77 1684,-805 1684,-805 1684,-805 1684,-132 1684,-92.28 1670.88,-76.72 1637,-56 1596.17,-31.03 1286.36,-17.76 1148.18,-13.04"/>
<polygon fill="midnightblue" stroke="midnightblue" points="1148.25,-9.54 1138.13,-12.7 1148.01,-16.53 1148.25,-9.54"/>
</g>
<!-- Node11 -->
<g id="node11" class="node">
<title>Node11</title>
<g id="a_node11"><a xlink:href="dma__types_8h.html" target="_top" xlink:title="ODP DMA.">
<polygon fill="white" stroke="black" points="1016.5,-850.5 1016.5,-869.5 1135.5,-869.5 1135.5,-850.5 1016.5,-850.5"/>
<text text-anchor="middle" x="1076" y="-857.5" font-family="Helvetica,sans-Serif" font-size="10.00">odp/api/dma_types.h</text>
</a>
</g>
</g>
<!-- Node1&#45;&gt;Node11 -->
<g id="edge13" class="edge">
<title>Node1&#45;&gt;Node11</title>
<path fill="none" stroke="midnightblue" d="M1117.74,-906.08C1110.54,-898.3 1099.89,-886.8 1091.15,-877.37"/>
<polygon fill="midnightblue" stroke="midnightblue" points="1093.47,-874.71 1084.1,-869.75 1088.33,-879.47 1093.47,-874.71"/>
</g>
<!-- Node40 -->
<g id="node40" class="node">
<title>Node40</title>
<g id="a_node40"><a xlink:href="ml__types_8h.html" target="_top" xlink:title="ODP Machine Learning (ML) types.">
<polygon fill="white" stroke="black" points="1318,-738.5 1318,-757.5 1428,-757.5 1428,-738.5 1318,-738.5"/>
<text text-anchor="middle" x="1373" y="-745.5" font-family="Helvetica,sans-Serif" font-size="10.00">odp/api/ml_types.h</text>
</a>
</g>
</g>
<!-- Node1&#45;&gt;Node40 -->
<g id="edge70" class="edge">
<title>Node1&#45;&gt;Node40</title>
<path fill="none" stroke="midnightblue" d="M1138.93,-906.31C1179.11,-879.3 1302.07,-796.67 1351.8,-763.25"/>
<polygon fill="midnightblue" stroke="midnightblue" points="1353.85,-766.09 1360.2,-757.61 1349.94,-760.28 1353.85,-766.09"/>
</g>
<!-- Node4 -->
<g id="node4" class="node">
<title>Node4</title>
<g id="a_node4"><a xlink:title=" ">
<polygon fill="white" stroke="#bfbfbf" points="500,-179.5 500,-198.5 630,-198.5 630,-179.5 500,-179.5"/>
<text text-anchor="middle" x="565" y="-186.5" font-family="Helvetica,sans-Serif" font-size="10.00">odp/api/abi/std_types.h</text>
</a>
</g>
</g>
<!-- Node3&#45;&gt;Node4 -->
<g id="edge3" class="edge">
<title>Node3&#45;&gt;Node4</title>
<path fill="none" stroke="midnightblue" d="M724.89,-235.44C692.37,-226.2 640.42,-211.44 604.61,-201.26"/>
<polygon fill="midnightblue" stroke="midnightblue" points="605.54,-197.88 594.97,-198.52 603.63,-204.62 605.54,-197.88"/>
</g>
<!-- Node5 -->
<g id="node5" class="node">
<title>Node5</title>
<g id="a_node5"><a xlink:href="spec_2std__types_8h.html" target="_top" xlink:title="Common types and definitions for ODP API files.">
<polygon fill="white" stroke="black" points="686.5,-179.5 686.5,-198.5 823.5,-198.5 823.5,-179.5 686.5,-179.5"/>
<text text-anchor="middle" x="755" y="-186.5" font-family="Helvetica,sans-Serif" font-size="10.00">odp/api/spec/std_types.h</text>
</a>
</g>
</g>
<!-- Node3&#45;&gt;Node5 -->
<g id="edge4" class="edge">
<title>Node3&#45;&gt;Node5</title>
<path fill="none" stroke="midnightblue" d="M755,-235.08C755,-228.01 755,-217.86 755,-208.99"/>
<polygon fill="midnightblue" stroke="midnightblue" points="758.5,-208.75 755,-198.75 751.5,-208.75 758.5,-208.75"/>
</g>
<!-- Node5&#45;&gt;Node2 -->
<g id="edge5" class="edge">
<title>Node5&#45;&gt;Node2</title>
<path fill="none" stroke="midnightblue" d="M721.82,-179.42C695.82,-171.93 659.28,-159.63 630,-143 623.38,-139.24 530.92,-59.18 524,-56 464.5,-28.71 390.32,-17.89 336.8,-13.63"/>
<polygon fill="midnightblue" stroke="midnightblue" points="336.94,-10.14 326.71,-12.89 336.43,-17.12 336.94,-10.14"/>
</g>
<!-- Node6 -->
<g id="node6" class="node">
<title>Node6</title>
<g id="a_node6"><a xlink:title=" ">
<polygon fill="white" stroke="#bfbfbf" points="639.5,-123.5 639.5,-142.5 692.5,-142.5 692.5,-123.5 639.5,-123.5"/>
<text text-anchor="middle" x="666" y="-130.5" font-family="Helvetica,sans-Serif" font-size="10.00">stdint.h</text>
</a>
</g>
</g>
<!-- Node5&#45;&gt;Node6 -->
<g id="edge6" class="edge">
<title>Node5&#45;&gt;Node6</title>
<path fill="none" stroke="midnightblue" d="M740.7,-179.32C726.82,-170.9 705.51,-157.97 689.2,-148.07"/>
<polygon fill="midnightblue" stroke="midnightblue" points="690.63,-144.85 680.26,-142.65 687,-150.83 690.63,-144.85"/>
</g>
<!-- Node7 -->
<g id="node7" class="node">
<title>Node7</title>
<g id="a_node7"><a xlink:href="align_8h.html" target="_top" xlink:title="ODP alignments.">
<polygon fill="white" stroke="black" points="710.5,-123.5 710.5,-142.5 799.5,-142.5 799.5,-123.5 710.5,-123.5"/>
<text text-anchor="middle" x="755" y="-130.5" font-family="Helvetica,sans-Serif" font-size="10.00">odp/api/align.h</text>
</a>
</g>
</g>
<!-- Node5&#45;&gt;Node7 -->
<g id="edge7" class="edge">
<title>Node5&#45;&gt;Node7</title>
<path fill="none" stroke="midnightblue" d="M755,-179.08C755,-172.01 755,-161.86 755,-152.99"/>
<polygon fill="midnightblue" stroke="midnightblue" points="758.5,-152.75 755,-142.75 751.5,-152.75 758.5,-152.75"/>
</g>
<!-- Node5&#45;&gt;Node10 -->
<g id="edge12" class="edge">
<title>Node5&#45;&gt;Node10</title>
<path fill="none" stroke="midnightblue" d="M773.26,-179.44C808.04,-162.92 885.86,-124.92 948,-87 968.42,-74.54 971.47,-68.27 992,-56 1011.99,-44.05 1035.57,-32.34 1053.57,-23.87"/>
<polygon fill="midnightblue" stroke="midnightblue" points="1055.35,-26.9 1062.95,-19.51 1052.4,-20.55 1055.35,-26.9"/>
</g>
<!-- Node8 -->
<g id="node8" class="node">
<title>Node8</title>
<g id="a_node8"><a xlink:title=" ">
<polygon fill="white" stroke="#bfbfbf" points="572.5,-62 572.5,-81 679.5,-81 679.5,-62 572.5,-62"/>
<text text-anchor="middle" x="626" y="-69" font-family="Helvetica,sans-Serif" font-size="10.00">odp/api/abi/align.h</text>
</a>
</g>
</g>
<!-- Node7&#45;&gt;Node8 -->
<g id="edge8" class="edge">
<title>Node7&#45;&gt;Node8</title>
<path fill="none" stroke="midnightblue" d="M736.52,-123.48C714.87,-113.49 678.79,-96.85 653.77,-85.31"/>
<polygon fill="midnightblue" stroke="midnightblue" points="654.99,-82.02 644.45,-81.01 652.06,-88.38 654.99,-82.02"/>
</g>
<!-- Node9 -->
<g id="node9" class="node">
<title>Node9</title>
<g id="a_node9"><a xlink:href="spec_2align_8h.html" target="_top" xlink:title="ODP alignments.">
<polygon fill="white" stroke="black" points="698,-62 698,-81 812,-81 812,-62 698,-62"/>
<text text-anchor="middle" x="755" y="-69" font-family="Helvetica,sans-Serif" font-size="10.00">odp/api/spec/align.h</text>
</a>
</g>
</g>
<!-- Node7&#45;&gt;Node9 -->
<g id="edge9" class="edge">
<title>Node7&#45;&gt;Node9</title>
<path fill="none" stroke="midnightblue" d="M755,-123.48C755,-115.08 755,-101.98 755,-91.16"/>
<polygon fill="midnightblue" stroke="midnightblue" points="758.5,-91.01 755,-81.01 751.5,-91.01 758.5,-91.01"/>
</g>
<!-- Node9&#45;&gt;Node2 -->
<g id="edge10" class="edge">
<title>Node9&#45;&gt;Node2</title>
<path fill="none" stroke="midnightblue" d="M718.97,-61.96C708.98,-59.8 698.1,-57.63 688,-56 565.27,-36.23 421.02,-22.98 336.92,-16.23"/>
<polygon fill="midnightblue" stroke="midnightblue" points="336.96,-12.73 326.72,-15.42 336.41,-19.7 336.96,-12.73"/>
</g>
<!-- Node9&#45;&gt;Node10 -->
<g id="edge11" class="edge">
<title>Node9&#45;&gt;Node10</title>
<path fill="none" stroke="midnightblue" d="M792.29,-62C801.64,-59.95 811.67,-57.83 821,-56 888.19,-42.83 965.52,-29.76 1018.46,-21.12"/>
<polygon fill="midnightblue" stroke="midnightblue" points="1019.07,-24.57 1028.38,-19.51 1017.95,-17.66 1019.07,-24.57"/>
</g>
<!-- Node12 -->
<g id="node12" class="node">
<title>Node12</title>
<g id="a_node12"><a xlink:title=" ">
<polygon fill="white" stroke="#bfbfbf" points="848.5,-794.5 848.5,-813.5 985.5,-813.5 985.5,-794.5 848.5,-794.5"/>
<text text-anchor="middle" x="917" y="-801.5" font-family="Helvetica,sans-Serif" font-size="10.00">odp/api/abi/dma_types.h</text>
</a>
</g>
</g>
<!-- Node11&#45;&gt;Node12 -->
<g id="edge14" class="edge">
<title>Node11&#45;&gt;Node12</title>
<path fill="none" stroke="midnightblue" d="M1050.81,-850.44C1024.06,-841.36 981.6,-826.94 951.69,-816.78"/>
<polygon fill="midnightblue" stroke="midnightblue" points="952.67,-813.42 942.08,-813.52 950.42,-820.05 952.67,-813.42"/>
</g>
<!-- Node13 -->
<g id="node13" class="node">
<title>Node13</title>
<g id="a_node13"><a xlink:href="spec_2dma__types_8h.html" target="_top" xlink:title="ODP DMA.">
<polygon fill="white" stroke="black" points="1004,-794.5 1004,-813.5 1148,-813.5 1148,-794.5 1004,-794.5"/>
<text text-anchor="middle" x="1076" y="-801.5" font-family="Helvetica,sans-Serif" font-size="10.00">odp/api/spec/dma_types.h</text>
</a>
</g>
</g>
<!-- Node11&#45;&gt;Node13 -->
<g id="edge15" class="edge">
<title>Node11&#45;&gt;Node13</title>
<path fill="none" stroke="midnightblue" d="M1076,-850.08C1076,-843.01 1076,-832.86 1076,-823.99"/>
<polygon fill="midnightblue" stroke="midnightblue" points="1079.5,-823.75 1076,-813.75 1072.5,-823.75 1079.5,-823.75"/>
</g>
<!-- Node13&#45;&gt;Node2 -->
<g id="edge16" class="edge">
<title>Node13&#45;&gt;Node2</title>
<path fill="none" stroke="midnightblue" d="M1003.57,-794.96C1000.34,-794.63 997.14,-794.31 994,-794 672.06,-762.44 575.36,-814.31 272,-702 143.97,-654.6 38,-639.52 38,-503 38,-503 38,-503 38,-132 38,-92.97 50.76,-79.4 82,-56 114.48,-31.67 158.4,-20.34 195.18,-15.13"/>
<polygon fill="midnightblue" stroke="midnightblue" points="195.88,-18.57 205.35,-13.82 194.99,-11.63 195.88,-18.57"/>
</g>
<!-- Node13&#45;&gt;Node3 -->
<g id="edge65" class="edge">
<title>Node13&#45;&gt;Node3</title>
<path fill="none" stroke="midnightblue" d="M1003.95,-794.48C807.3,-770.98 276,-705.8 276,-687.5 276,-687.5 276,-687.5 276,-624 276,-463.23 454.62,-517.68 551,-389 579.62,-350.79 558.84,-322.17 595,-291 620.93,-268.64 657.2,-257.34 688.65,-251.65"/>
<polygon fill="midnightblue" stroke="midnightblue" points="689.38,-255.08 698.67,-250 688.24,-248.18 689.38,-255.08"/>
</g>
<!-- Node13&#45;&gt;Node10 -->
<g id="edge69" class="edge">
<title>Node13&#45;&gt;Node10</title>
<path fill="none" stroke="midnightblue" d="M1148.19,-803.31C1301.57,-802.03 1646,-787.96 1646,-687.5 1646,-687.5 1646,-687.5 1646,-132 1646,-94.24 1639.25,-77.21 1608,-56 1570.77,-30.73 1281.12,-17.75 1148.23,-13.07"/>
<polygon fill="midnightblue" stroke="midnightblue" points="1148.29,-9.57 1138.17,-12.72 1148.05,-16.57 1148.29,-9.57"/>
</g>
<!-- Node14 -->
<g id="node14" class="node">
<title>Node14</title>
<g id="a_node14"><a xlink:href="event__types_8h.html" target="_top" xlink:title="ODP event API type definitions.">
<polygon fill="white" stroke="black" points="1263.5,-235.5 1263.5,-254.5 1388.5,-254.5 1388.5,-235.5 1263.5,-235.5"/>
<text text-anchor="middle" x="1326" y="-242.5" font-family="Helvetica,sans-Serif" font-size="10.00">odp/api/event_types.h</text>
</a>
</g>
</g>
<!-- Node13&#45;&gt;Node14 -->
<g id="edge17" class="edge">
<title>Node13&#45;&gt;Node14</title>
<path fill="none" stroke="midnightblue" d="M1088.86,-794.31C1119.47,-773.57 1195.88,-721.47 1220,-702 1282.66,-651.44 1309.54,-646.78 1353,-579 1424.97,-466.76 1511.49,-401.58 1437,-291 1426.02,-274.7 1408.01,-264.3 1389.67,-257.67"/>
<polygon fill="midnightblue" stroke="midnightblue" points="1390.67,-254.31 1380.08,-254.53 1388.5,-260.97 1390.67,-254.31"/>
</g>
<!-- Node17 -->
<g id="node17" class="node">
<title>Node17</title>
<g id="a_node17"><a xlink:href="packet__types_8h.html" target="_top" xlink:title="ODP packet.">
<polygon fill="white" stroke="black" points="988.5,-738.5 988.5,-757.5 1117.5,-757.5 1117.5,-738.5 988.5,-738.5"/>
<text text-anchor="middle" x="1053" y="-745.5" font-family="Helvetica,sans-Serif" font-size="10.00">odp/api/packet_types.h</text>
</a>
</g>
</g>
<!-- Node13&#45;&gt;Node17 -->
<g id="edge22" class="edge">
<title>Node13&#45;&gt;Node17</title>
<path fill="none" stroke="midnightblue" d="M1072.2,-794.08C1069.09,-786.77 1064.58,-776.18 1060.71,-767.1"/>
<polygon fill="midnightblue" stroke="midnightblue" points="1063.87,-765.58 1056.73,-757.75 1057.43,-768.32 1063.87,-765.58"/>
</g>
<!-- Node26 -->
<g id="node26" class="node">
<title>Node26</title>
<g id="a_node26"><a xlink:href="queue__types_8h.html" target="_top" xlink:title="ODP queue.">
<polygon fill="white" stroke="black" points="1083.5,-615.5 1083.5,-634.5 1210.5,-634.5 1210.5,-615.5 1083.5,-615.5"/>
<text text-anchor="middle" x="1147" y="-622.5" font-family="Helvetica,sans-Serif" font-size="10.00">odp/api/queue_types.h</text>
</a>
</g>
</g>
<!-- Node13&#45;&gt;Node26 -->
<g id="edge64" class="edge">
<title>Node13&#45;&gt;Node26</title>
<path fill="none" stroke="midnightblue" d="M1036.54,-794.43C1016.13,-787.91 992.68,-776.75 979,-758 956.13,-726.66 948.23,-701.66 972,-671 984.77,-654.53 1031.41,-643.04 1073.33,-635.79"/>
<polygon fill="midnightblue" stroke="midnightblue" points="1074.02,-639.22 1083.31,-634.13 1072.87,-632.32 1074.02,-639.22"/>
</g>
<!-- Node39 -->
<g id="node39" class="node">
<title>Node39</title>
<g id="a_node39"><a xlink:href="pool__types_8h.html" target="_top" xlink:title="ODP pool.">
<polygon fill="white" stroke="black" points="1181,-738.5 1181,-757.5 1299,-757.5 1299,-738.5 1181,-738.5"/>
<text text-anchor="middle" x="1240" y="-745.5" font-family="Helvetica,sans-Serif" font-size="10.00">odp/api/pool_types.h</text>
</a>
</g>
</g>
<!-- Node13&#45;&gt;Node39 -->
<g id="edge66" class="edge">
<title>Node13&#45;&gt;Node39</title>
<path fill="none" stroke="midnightblue" d="M1101.99,-794.44C1129.7,-785.32 1173.75,-770.81 1204.62,-760.65"/>
<polygon fill="midnightblue" stroke="midnightblue" points="1205.73,-763.97 1214.14,-757.52 1203.54,-757.32 1205.73,-763.97"/>
</g>
<!-- Node15 -->
<g id="node15" class="node">
<title>Node15</title>
<g id="a_node15"><a xlink:title=" ">
<polygon fill="white" stroke="#bfbfbf" points="1254.5,-179.5 1254.5,-198.5 1397.5,-198.5 1397.5,-179.5 1254.5,-179.5"/>
<text text-anchor="middle" x="1326" y="-186.5" font-family="Helvetica,sans-Serif" font-size="10.00">odp/api/abi/event_types.h</text>
</a>
</g>
</g>
<!-- Node14&#45;&gt;Node15 -->
<g id="edge18" class="edge">
<title>Node14&#45;&gt;Node15</title>
<path fill="none" stroke="midnightblue" d="M1326,-235.08C1326,-228.01 1326,-217.86 1326,-208.99"/>
<polygon fill="midnightblue" stroke="midnightblue" points="1329.5,-208.75 1326,-198.75 1322.5,-208.75 1329.5,-208.75"/>
</g>
<!-- Node16 -->
<g id="node16" class="node">
<title>Node16</title>
<g id="a_node16"><a xlink:href="spec_2event__types_8h.html" target="_top" xlink:title="ODP event API type definitions.">
<polygon fill="white" stroke="black" points="830.5,-56.5 830.5,-86.5 939.5,-86.5 939.5,-56.5 830.5,-56.5"/>
<text text-anchor="start" x="838.5" y="-74.5" font-family="Helvetica,sans-Serif" font-size="10.00">odp/api/spec/event</text>
<text text-anchor="middle" x="885" y="-63.5" font-family="Helvetica,sans-Serif" font-size="10.00">_types.h</text>
</a>
</g>
</g>
<!-- Node14&#45;&gt;Node16 -->
<g id="edge19" class="edge">
<title>Node14&#45;&gt;Node16</title>
<path fill="none" stroke="midnightblue" d="M1304.13,-235.5C1235.64,-208.86 1024.31,-126.68 930.58,-90.22"/>
<polygon fill="midnightblue" stroke="midnightblue" points="931.67,-86.89 921.08,-86.53 929.13,-93.42 931.67,-86.89"/>
</g>
<!-- Node16&#45;&gt;Node2 -->
<g id="edge20" class="edge">
<title>Node16&#45;&gt;Node2</title>
<path fill="none" stroke="midnightblue" d="M830.28,-57.57C827.15,-56.99 824.04,-56.47 821,-56 648.3,-29.57 442.83,-18.03 336.93,-13.53"/>
<polygon fill="midnightblue" stroke="midnightblue" points="336.83,-10.02 326.69,-13.1 336.53,-17.02 336.83,-10.02"/>
</g>
<!-- Node16&#45;&gt;Node10 -->
<g id="edge21" class="edge">
<title>Node16&#45;&gt;Node10</title>
<path fill="none" stroke="midnightblue" d="M931.69,-56.4C965.88,-46.07 1011.71,-32.23 1043.74,-22.56"/>
<polygon fill="midnightblue" stroke="midnightblue" points="1045.06,-25.81 1053.62,-19.57 1043.04,-19.11 1045.06,-25.81"/>
</g>
<!-- Node18 -->
<g id="node18" class="node">
<title>Node18</title>
<g id="a_node18"><a xlink:title=" ">
<polygon fill="white" stroke="#bfbfbf" points="981,-671.5 981,-701.5 1087,-701.5 1087,-671.5 981,-671.5"/>
<text text-anchor="start" x="989" y="-689.5" font-family="Helvetica,sans-Serif" font-size="10.00">odp/api/abi/packet</text>
<text text-anchor="middle" x="1034" y="-678.5" font-family="Helvetica,sans-Serif" font-size="10.00">_io_types.h</text>
</a>
</g>
</g>
<!-- Node17&#45;&gt;Node18 -->
<g id="edge23" class="edge">
<title>Node17&#45;&gt;Node18</title>
<path fill="none" stroke="midnightblue" d="M1050.28,-738.48C1047.99,-731.32 1044.62,-720.75 1041.53,-711.08"/>
<polygon fill="midnightblue" stroke="midnightblue" points="1044.85,-709.98 1038.48,-701.52 1038.19,-712.11 1044.85,-709.98"/>
</g>
<!-- Node19 -->
<g id="node19" class="node">
<title>Node19</title>
<g id="a_node19"><a xlink:title=" ">
<polygon fill="white" stroke="#bfbfbf" points="1105,-671.5 1105,-701.5 1211,-701.5 1211,-671.5 1105,-671.5"/>
<text text-anchor="start" x="1113" y="-689.5" font-family="Helvetica,sans-Serif" font-size="10.00">odp/api/abi/packet</text>
<text text-anchor="middle" x="1158" y="-678.5" font-family="Helvetica,sans-Serif" font-size="10.00">_types.h</text>
</a>
</g>
</g>
<!-- Node17&#45;&gt;Node19 -->
<g id="edge24" class="edge">
<title>Node17&#45;&gt;Node19</title>
<path fill="none" stroke="midnightblue" d="M1068.04,-738.48C1082.66,-730.19 1105.37,-717.32 1124.31,-706.59"/>
<polygon fill="midnightblue" stroke="midnightblue" points="1126.28,-709.5 1133.25,-701.52 1122.83,-703.41 1126.28,-709.5"/>
</g>
<!-- Node20 -->
<g id="node20" class="node">
<title>Node20</title>
<g id="a_node20"><a xlink:href="spec_2packet__types_8h.html" target="_top" xlink:title="ODP packet types.">
<polygon fill="white" stroke="black" points="603.5,-671.5 603.5,-701.5 716.5,-701.5 716.5,-671.5 603.5,-671.5"/>
<text text-anchor="start" x="611.5" y="-689.5" font-family="Helvetica,sans-Serif" font-size="10.00">odp/api/spec/packet</text>
<text text-anchor="middle" x="660" y="-678.5" font-family="Helvetica,sans-Serif" font-size="10.00">_types.h</text>
</a>
</g>
</g>
<!-- Node17&#45;&gt;Node20 -->
<g id="edge25" class="edge">
<title>Node17&#45;&gt;Node20</title>
<path fill="none" stroke="midnightblue" d="M996.69,-738.48C925.3,-727.67 802.37,-709.06 726.45,-697.56"/>
<polygon fill="midnightblue" stroke="midnightblue" points="726.93,-694.09 716.52,-696.06 725.88,-701.01 726.93,-694.09"/>
</g>
<!-- Node20&#45;&gt;Node2 -->
<g id="edge26" class="edge">
<title>Node20&#45;&gt;Node2</title>
<path fill="none" stroke="midnightblue" d="M603.37,-684.85C463.7,-681.72 114,-663.96 114,-564.5 114,-564.5 114,-564.5 114,-501 114,-413.36 76,-395.14 76,-307.5 76,-307.5 76,-307.5 76,-132 76,-94.24 85.05,-80.26 114,-56 136.83,-36.87 167.51,-25.87 195.34,-19.55"/>
<polygon fill="midnightblue" stroke="midnightblue" points="196.37,-22.91 205.44,-17.43 194.93,-16.06 196.37,-22.91"/>
</g>
<!-- Node20&#45;&gt;Node10 -->
<g id="edge63" class="edge">
<title>Node20&#45;&gt;Node10</title>
<path fill="none" stroke="midnightblue" d="M716.85,-676.11C848.64,-654.13 1167.17,-599.62 1212,-579 1409.42,-488.19 1570,-463.3 1570,-246 1570,-246 1570,-246 1570,-132 1570,-76.88 1523.04,-76.82 1472,-56 1414.91,-32.72 1243.75,-19.87 1148.25,-14.33"/>
<polygon fill="midnightblue" stroke="midnightblue" points="1148.3,-10.83 1138.12,-13.76 1147.9,-17.82 1148.3,-10.83"/>
</g>
<!-- Node21 -->
<g id="node21" class="node">
<title>Node21</title>
<g id="a_node21"><a xlink:href="deprecated_8h.html" target="_top" xlink:title="Control deprecated API definitions.">
<polygon fill="white" stroke="black" points="304.5,-615.5 304.5,-634.5 423.5,-634.5 423.5,-615.5 304.5,-615.5"/>
<text text-anchor="middle" x="364" y="-622.5" font-family="Helvetica,sans-Serif" font-size="10.00">odp/api/deprecated.h</text>
</a>
</g>
</g>
<!-- Node20&#45;&gt;Node21 -->
<g id="edge27" class="edge">
<title>Node20&#45;&gt;Node21</title>
<path fill="none" stroke="midnightblue" d="M603.28,-674.1C549.46,-663.28 469.21,-647.15 416.74,-636.6"/>
<polygon fill="midnightblue" stroke="midnightblue" points="417.13,-633.11 406.63,-634.57 415.75,-639.97 417.13,-633.11"/>
</g>
<!-- Node23 -->
<g id="node23" class="node">
<title>Node23</title>
<g id="a_node23"><a xlink:href="proto__stats__types_8h.html" target="_top" xlink:title="ODP proto stats types.">
<polygon fill="white" stroke="black" points="397,-358.5 397,-388.5 507,-388.5 507,-358.5 397,-358.5"/>
<text text-anchor="start" x="405" y="-376.5" font-family="Helvetica,sans-Serif" font-size="10.00">odp/api/proto_stats</text>
<text text-anchor="middle" x="452" y="-365.5" font-family="Helvetica,sans-Serif" font-size="10.00">_types.h</text>
</a>
</g>
</g>
<!-- Node20&#45;&gt;Node23 -->
<g id="edge31" class="edge">
<title>Node20&#45;&gt;Node23</title>
<path fill="none" stroke="midnightblue" d="M603.44,-677.37C541.84,-664.95 452,-634.79 452,-564.5 452,-564.5 452,-564.5 452,-501 452,-465.42 452,-424.2 452,-398.74"/>
<polygon fill="midnightblue" stroke="midnightblue" points="455.5,-398.54 452,-388.54 448.5,-398.54 455.5,-398.54"/>
</g>
<!-- Node20&#45;&gt;Node26 -->
<g id="edge37" class="edge">
<title>Node20&#45;&gt;Node26</title>
<path fill="none" stroke="midnightblue" d="M716.82,-678.56C805.15,-667.77 975.39,-646.97 1073.14,-635.02"/>
<polygon fill="midnightblue" stroke="midnightblue" points="1073.73,-638.48 1083.23,-633.79 1072.88,-631.53 1073.73,-638.48"/>
</g>
<!-- Node22 -->
<g id="node22" class="node">
<title>Node22</title>
<g id="a_node22"><a xlink:href="spec_2deprecated_8h.html" target="_top" xlink:title="Macro for deprecated API definitions.">
<polygon fill="white" stroke="black" points="370.5,-62 370.5,-81 515.5,-81 515.5,-62 370.5,-62"/>
<text text-anchor="middle" x="443" y="-69" font-family="Helvetica,sans-Serif" font-size="10.00">odp/api/spec/deprecated.h</text>
</a>
</g>
</g>
<!-- Node21&#45;&gt;Node22 -->
<g id="edge28" class="edge">
<title>Node21&#45;&gt;Node22</title>
<path fill="none" stroke="midnightblue" d="M356.45,-615.45C323.75,-577.29 198.04,-418.9 247,-291 282.89,-197.25 379.6,-118.4 422.28,-87.03"/>
<polygon fill="midnightblue" stroke="midnightblue" points="424.47,-89.77 430.52,-81.07 420.37,-84.09 424.47,-89.77"/>
</g>
<!-- Node22&#45;&gt;Node2 -->
<g id="edge29" class="edge">
<title>Node22&#45;&gt;Node2</title>
<path fill="none" stroke="midnightblue" d="M417.64,-61.98C387.02,-51.68 335.34,-34.31 300.95,-22.75"/>
<polygon fill="midnightblue" stroke="midnightblue" points="301.91,-19.38 291.31,-19.51 299.68,-26.01 301.91,-19.38"/>
</g>
<!-- Node22&#45;&gt;Node10 -->
<g id="edge30" class="edge">
<title>Node22&#45;&gt;Node10</title>
<path fill="none" stroke="midnightblue" d="M510.23,-61.97C527.42,-59.9 545.88,-57.78 563,-56 725.47,-39.15 917.02,-23.67 1015.75,-16.02"/>
<polygon fill="midnightblue" stroke="midnightblue" points="1016.18,-19.5 1025.88,-15.24 1015.64,-12.52 1016.18,-19.5"/>
</g>
<!-- Node24 -->
<g id="node24" class="node">
<title>Node24</title>
<g id="a_node24"><a xlink:title=" ">
<polygon fill="white" stroke="#bfbfbf" points="256,-291.5 256,-321.5 384,-321.5 384,-291.5 256,-291.5"/>
<text text-anchor="start" x="264" y="-309.5" font-family="Helvetica,sans-Serif" font-size="10.00">odp/api/abi/proto_stats</text>
<text text-anchor="middle" x="320" y="-298.5" font-family="Helvetica,sans-Serif" font-size="10.00">_types.h</text>
</a>
</g>
</g>
<!-- Node23&#45;&gt;Node24 -->
<g id="edge32" class="edge">
<title>Node23&#45;&gt;Node24</title>
<path fill="none" stroke="midnightblue" d="M423.36,-358.4C404.16,-348.94 378.67,-336.39 357.81,-326.12"/>
<polygon fill="midnightblue" stroke="midnightblue" points="359.1,-322.85 348.59,-321.58 356.01,-329.13 359.1,-322.85"/>
</g>
<!-- Node25 -->
<g id="node25" class="node">
<title>Node25</title>
<g id="a_node25"><a xlink:href="spec_2proto__stats__types_8h.html" target="_top" xlink:title="ODP proto stats types.">
<polygon fill="white" stroke="black" points="402.5,-291.5 402.5,-321.5 509.5,-321.5 509.5,-291.5 402.5,-291.5"/>
<text text-anchor="start" x="410.5" y="-309.5" font-family="Helvetica,sans-Serif" font-size="10.00">odp/api/spec/proto</text>
<text text-anchor="middle" x="456" y="-298.5" font-family="Helvetica,sans-Serif" font-size="10.00">_stats_types.h</text>
</a>
</g>
</g>
<!-- Node23&#45;&gt;Node25 -->
<g id="edge33" class="edge">
<title>Node23&#45;&gt;Node25</title>
<path fill="none" stroke="midnightblue" d="M452.87,-358.4C453.35,-350.56 453.96,-340.6 454.52,-331.57"/>
<polygon fill="midnightblue" stroke="midnightblue" points="458.01,-331.77 455.13,-321.58 451.03,-331.34 458.01,-331.77"/>
</g>
<!-- Node25&#45;&gt;Node2 -->
<g id="edge34" class="edge">
<title>Node25&#45;&gt;Node2</title>
<path fill="none" stroke="midnightblue" d="M402.4,-291.74C357.17,-279.72 298.46,-262.98 290,-255 267.6,-233.87 266,-220.8 266,-190 266,-190 266,-190 266,-132 266,-95.71 266,-53.31 266,-29.56"/>
<polygon fill="midnightblue" stroke="midnightblue" points="269.5,-29.51 266,-19.51 262.5,-29.51 269.5,-29.51"/>
</g>
<!-- Node25&#45;&gt;Node3 -->
<g id="edge35" class="edge">
<title>Node25&#45;&gt;Node3</title>
<path fill="none" stroke="midnightblue" d="M509.8,-293.94C514.6,-292.93 519.39,-291.94 524,-291 584.05,-278.75 653.03,-265.41 699.87,-256.46"/>
<polygon fill="midnightblue" stroke="midnightblue" points="700.64,-259.87 709.8,-254.56 699.33,-253 700.64,-259.87"/>
</g>
<!-- Node25&#45;&gt;Node10 -->
<g id="edge36" class="edge">
<title>Node25&#45;&gt;Node10</title>
<path fill="none" stroke="midnightblue" d="M500.69,-291.39C547.65,-276.72 623.76,-253.36 690,-235 752.74,-217.6 773.14,-226.83 832,-199 907.86,-163.13 917.06,-137.6 984,-87 1011.83,-65.96 1043.69,-41.11 1063.33,-25.7"/>
<polygon fill="midnightblue" stroke="midnightblue" points="1065.49,-28.45 1071.19,-19.52 1061.17,-22.95 1065.49,-28.45"/>
</g>
<!-- Node27 -->
<g id="node27" class="node">
<title>Node27</title>
<g id="a_node27"><a xlink:title=" ">
<polygon fill="white" stroke="#bfbfbf" points="889.5,-554 889.5,-573 1034.5,-573 1034.5,-554 889.5,-554"/>
<text text-anchor="middle" x="962" y="-561" font-family="Helvetica,sans-Serif" font-size="10.00">odp/api/abi/queue_types.h</text>
</a>
</g>
</g>
<!-- Node26&#45;&gt;Node27 -->
<g id="edge38" class="edge">
<title>Node26&#45;&gt;Node27</title>
<path fill="none" stroke="midnightblue" d="M1120.49,-615.48C1088.35,-605.14 1034.01,-587.66 998.07,-576.1"/>
<polygon fill="midnightblue" stroke="midnightblue" points="999.05,-572.74 988.46,-573.01 996.9,-579.4 999.05,-572.74"/>
</g>
<!-- Node28 -->
<g id="node28" class="node">
<title>Node28</title>
<g id="a_node28"><a xlink:href="spec_2queue__types_8h.html" target="_top" xlink:title="ODP queue types.">
<polygon fill="white" stroke="black" points="1091.5,-548.5 1091.5,-578.5 1202.5,-578.5 1202.5,-548.5 1091.5,-548.5"/>
<text text-anchor="start" x="1099.5" y="-566.5" font-family="Helvetica,sans-Serif" font-size="10.00">odp/api/spec/queue</text>
<text text-anchor="middle" x="1147" y="-555.5" font-family="Helvetica,sans-Serif" font-size="10.00">_types.h</text>
</a>
</g>
</g>
<!-- Node26&#45;&gt;Node28 -->
<g id="edge39" class="edge">
<title>Node26&#45;&gt;Node28</title>
<path fill="none" stroke="midnightblue" d="M1147,-615.48C1147,-608.47 1147,-598.19 1147,-588.7"/>
<polygon fill="midnightblue" stroke="midnightblue" points="1150.5,-588.52 1147,-578.52 1143.5,-588.52 1150.5,-588.52"/>
</g>
<!-- Node28&#45;&gt;Node2 -->
<g id="edge40" class="edge">
<title>Node28&#45;&gt;Node2</title>
<path fill="none" stroke="midnightblue" d="M1091.46,-554.82C876.9,-524.4 114,-409.1 114,-307.5 114,-307.5 114,-307.5 114,-132 114,-96.58 113.36,-81.45 138,-56 154.06,-39.42 176.58,-28.94 198.26,-22.32"/>
<polygon fill="midnightblue" stroke="midnightblue" points="199.46,-25.61 208.13,-19.54 197.56,-18.88 199.46,-25.61"/>
</g>
<!-- Node28&#45;&gt;Node10 -->
<g id="edge62" class="edge">
<title>Node28&#45;&gt;Node10</title>
<path fill="none" stroke="midnightblue" d="M1172.56,-548.41C1258.55,-500.15 1532,-339.34 1532,-246 1532,-246 1532,-246 1532,-132 1532,-53.51 1273.45,-24.49 1148.31,-15.04"/>
<polygon fill="midnightblue" stroke="midnightblue" points="1148.31,-11.53 1138.08,-14.29 1147.8,-18.51 1148.31,-11.53"/>
</g>
<!-- Node29 -->
<g id="node29" class="node">
<title>Node29</title>
<g id="a_node29"><a xlink:href="event__vector__types_8h.html" target="_top" xlink:title="ODP event vector API type definitions.">
<polygon fill="white" stroke="black" points="1087.5,-358.5 1087.5,-388.5 1206.5,-388.5 1206.5,-358.5 1087.5,-358.5"/>
<text text-anchor="start" x="1095.5" y="-376.5" font-family="Helvetica,sans-Serif" font-size="10.00">odp/api/event_vector</text>
<text text-anchor="middle" x="1147" y="-365.5" font-family="Helvetica,sans-Serif" font-size="10.00">_types.h</text>
</a>
</g>
</g>
<!-- Node28&#45;&gt;Node29 -->
<g id="edge41" class="edge">
<title>Node28&#45;&gt;Node29</title>
<path fill="none" stroke="midnightblue" d="M1147,-548.37C1147,-516.44 1147,-438.44 1147,-398.67"/>
<polygon fill="midnightblue" stroke="midnightblue" points="1150.5,-398.54 1147,-388.54 1143.5,-398.54 1150.5,-398.54"/>
</g>
<!-- Node33 -->
<g id="node33" class="node">
<title>Node33</title>
<g id="a_node33"><a xlink:href="schedule__types_8h.html" target="_top" xlink:title="ODP schedule.">
<polygon fill="white" stroke="black" points="854,-492.5 854,-511.5 994,-511.5 994,-492.5 854,-492.5"/>
<text text-anchor="middle" x="924" y="-499.5" font-family="Helvetica,sans-Serif" font-size="10.00">odp/api/schedule_types.h</text>
</a>
</g>
</g>
<!-- Node28&#45;&gt;Node33 -->
<g id="edge49" class="edge">
<title>Node28&#45;&gt;Node33</title>
<path fill="none" stroke="midnightblue" d="M1094.43,-548.47C1055.12,-537.99 1002.09,-523.84 965.68,-514.12"/>
<polygon fill="midnightblue" stroke="midnightblue" points="966.45,-510.7 955.88,-511.51 964.64,-517.47 966.45,-510.7"/>
</g>
<!-- Node30 -->
<g id="node30" class="node">
<title>Node30</title>
<g id="a_node30"><a xlink:title=" ">
<polygon fill="white" stroke="#bfbfbf" points="1009.5,-291.5 1009.5,-321.5 1146.5,-321.5 1146.5,-291.5 1009.5,-291.5"/>
<text text-anchor="start" x="1017.5" y="-309.5" font-family="Helvetica,sans-Serif" font-size="10.00">odp/api/abi/event_vector</text>
<text text-anchor="middle" x="1078" y="-298.5" font-family="Helvetica,sans-Serif" font-size="10.00">_types.h</text>
</a>
</g>
</g>
<!-- Node29&#45;&gt;Node30 -->
<g id="edge42" class="edge">
<title>Node29&#45;&gt;Node30</title>
<path fill="none" stroke="midnightblue" d="M1132.03,-358.4C1122.81,-349.71 1110.81,-338.4 1100.46,-328.66"/>
<polygon fill="midnightblue" stroke="midnightblue" points="1102.62,-325.89 1092.94,-321.58 1097.82,-330.98 1102.62,-325.89"/>
</g>
<!-- Node31 -->
<g id="node31" class="node">
<title>Node31</title>
<g id="a_node31"><a xlink:title=" ">
<polygon fill="white" stroke="#bfbfbf" points="1292,-297 1292,-316 1428,-316 1428,-297 1292,-297"/>
<text text-anchor="middle" x="1360" y="-304" font-family="Helvetica,sans-Serif" font-size="10.00">odp/api/abi/pool_types.h</text>
</a>
</g>
</g>
<!-- Node29&#45;&gt;Node31 -->
<g id="edge43" class="edge">
<title>Node29&#45;&gt;Node31</title>
<path fill="none" stroke="midnightblue" d="M1192.96,-358.48C1231.63,-346.67 1286.27,-330 1322.38,-318.98"/>
<polygon fill="midnightblue" stroke="midnightblue" points="1323.51,-322.3 1332.05,-316.03 1321.47,-315.6 1323.51,-322.3"/>
</g>
<!-- Node32 -->
<g id="node32" class="node">
<title>Node32</title>
<g id="a_node32"><a xlink:href="spec_2event__vector__types_8h.html" target="_top" xlink:title="ODP event vector API type definitions.">
<polygon fill="white" stroke="black" points="1164.5,-291.5 1164.5,-321.5 1273.5,-321.5 1273.5,-291.5 1164.5,-291.5"/>
<text text-anchor="start" x="1172.5" y="-309.5" font-family="Helvetica,sans-Serif" font-size="10.00">odp/api/spec/event</text>
<text text-anchor="middle" x="1219" y="-298.5" font-family="Helvetica,sans-Serif" font-size="10.00">_vector_types.h</text>
</a>
</g>
</g>
<!-- Node29&#45;&gt;Node32 -->
<g id="edge44" class="edge">
<title>Node29&#45;&gt;Node32</title>
<path fill="none" stroke="midnightblue" d="M1162.62,-358.4C1172.34,-349.62 1185.01,-338.18 1195.88,-328.37"/>
<polygon fill="midnightblue" stroke="midnightblue" points="1198.33,-330.88 1203.41,-321.58 1193.64,-325.68 1198.33,-330.88"/>
</g>
<!-- Node32&#45;&gt;Node2 -->
<g id="edge45" class="edge">
<title>Node32&#45;&gt;Node2</title>
<path fill="none" stroke="midnightblue" d="M1164.39,-292.8C1161.56,-292.18 1158.75,-291.58 1156,-291 1049.95,-268.62 779.29,-234.85 677,-199 658.99,-192.69 656.56,-186.47 639,-179 519.23,-128.08 475.39,-149.07 361,-87 330.41,-70.4 299.85,-43.69 281.94,-26.75"/>
<polygon fill="midnightblue" stroke="midnightblue" points="284.28,-24.15 274.65,-19.73 279.43,-29.19 284.28,-24.15"/>
</g>
<!-- Node32&#45;&gt;Node3 -->
<g id="edge47" class="edge">
<title>Node32&#45;&gt;Node3</title>
<path fill="none" stroke="midnightblue" d="M1164.44,-292.53C1161.59,-291.98 1158.77,-291.47 1156,-291 1010.09,-266.36 971.95,-272.44 825,-255 823.73,-254.85 822.45,-254.7 821.17,-254.54"/>
<polygon fill="midnightblue" stroke="midnightblue" points="821.5,-251.06 811.15,-253.32 820.65,-258.01 821.5,-251.06"/>
</g>
<!-- Node32&#45;&gt;Node10 -->
<g id="edge48" class="edge">
<title>Node32&#45;&gt;Node10</title>
<path fill="none" stroke="midnightblue" d="M1208.4,-291.4C1193.72,-270.45 1169,-229.33 1169,-190 1169,-190 1169,-190 1169,-132 1169,-86.67 1128.25,-46.71 1102.53,-26.01"/>
<polygon fill="midnightblue" stroke="midnightblue" points="1104.51,-23.11 1094.46,-19.74 1100.22,-28.64 1104.51,-23.11"/>
</g>
<!-- Node32&#45;&gt;Node14 -->
<g id="edge46" class="edge">
<title>Node32&#45;&gt;Node14</title>
<path fill="none" stroke="midnightblue" d="M1244.36,-291.4C1261.67,-281.77 1284.48,-269.09 1301.58,-259.58"/>
<polygon fill="midnightblue" stroke="midnightblue" points="1303.39,-262.58 1310.43,-254.66 1299.99,-256.46 1303.39,-262.58"/>
</g>
<!-- Node34 -->
<g id="node34" class="node">
<title>Node34</title>
<g id="a_node34"><a xlink:title=" ">
<polygon fill="white" stroke="#bfbfbf" points="726.5,-425.5 726.5,-455.5 843.5,-455.5 843.5,-425.5 726.5,-425.5"/>
<text text-anchor="start" x="734.5" y="-443.5" font-family="Helvetica,sans-Serif" font-size="10.00">odp/api/abi/schedule</text>
<text text-anchor="middle" x="785" y="-432.5" font-family="Helvetica,sans-Serif" font-size="10.00">_types.h</text>
</a>
</g>
</g>
<!-- Node33&#45;&gt;Node34 -->
<g id="edge50" class="edge">
<title>Node33&#45;&gt;Node34</title>
<path fill="none" stroke="midnightblue" d="M904.08,-492.48C884.12,-483.93 852.75,-470.5 827.22,-459.57"/>
<polygon fill="midnightblue" stroke="midnightblue" points="828.33,-456.24 817.76,-455.52 825.58,-462.68 828.33,-456.24"/>
</g>
<!-- Node35 -->
<g id="node35" class="node">
<title>Node35</title>
<g id="a_node35"><a xlink:href="spec_2schedule__types_8h.html" target="_top" xlink:title="ODP schedule types.">
<polygon fill="white" stroke="black" points="861.5,-425.5 861.5,-455.5 986.5,-455.5 986.5,-425.5 861.5,-425.5"/>
<text text-anchor="start" x="869.5" y="-443.5" font-family="Helvetica,sans-Serif" font-size="10.00">odp/api/spec/schedule</text>
<text text-anchor="middle" x="924" y="-432.5" font-family="Helvetica,sans-Serif" font-size="10.00">_types.h</text>
</a>
</g>
</g>
<!-- Node33&#45;&gt;Node35 -->
<g id="edge51" class="edge">
<title>Node33&#45;&gt;Node35</title>
<path fill="none" stroke="midnightblue" d="M924,-492.48C924,-485.47 924,-475.19 924,-465.7"/>
<polygon fill="midnightblue" stroke="midnightblue" points="927.5,-465.52 924,-455.52 920.5,-465.52 927.5,-465.52"/>
</g>
<!-- Node35&#45;&gt;Node2 -->
<g id="edge52" class="edge">
<title>Node35&#45;&gt;Node2</title>
<path fill="none" stroke="midnightblue" d="M861.25,-426.4C858.13,-425.89 855.03,-425.42 852,-425 647.13,-396.53 587.86,-442.28 388,-389 267.44,-356.86 190,-314.77 190,-190 190,-190 190,-190 190,-132 190,-88.48 225.7,-47.77 248.16,-26.47"/>
<polygon fill="midnightblue" stroke="midnightblue" points="250.73,-28.86 255.75,-19.53 246.01,-23.7 250.73,-28.86"/>
</g>
<!-- Node35&#45;&gt;Node3 -->
<g id="edge54" class="edge">
<title>Node35&#45;&gt;Node3</title>
<path fill="none" stroke="midnightblue" d="M924.43,-425.17C924.5,-396.01 920.5,-329.33 885,-291 868.31,-272.99 844.06,-262.18 821.01,-255.71"/>
<polygon fill="midnightblue" stroke="midnightblue" points="821.79,-252.29 811.23,-253.18 820.04,-259.07 821.79,-252.29"/>
</g>
<!-- Node35&#45;&gt;Node10 -->
<g id="edge61" class="edge">
<title>Node35&#45;&gt;Node10</title>
<path fill="none" stroke="midnightblue" d="M929.68,-425.24C940.93,-397.88 967.75,-336.66 1000,-291 1033.36,-243.77 1082,-247.82 1082,-190 1082,-190 1082,-190 1082,-132 1082,-95.71 1082,-53.31 1082,-29.56"/>
<polygon fill="midnightblue" stroke="midnightblue" points="1085.5,-29.51 1082,-19.51 1078.5,-29.51 1085.5,-29.51"/>
</g>
<!-- Node35&#45;&gt;Node29 -->
<g id="edge53" class="edge">
<title>Node35&#45;&gt;Node29</title>
<path fill="none" stroke="midnightblue" d="M972.11,-425.48C1006.29,-415.51 1052.36,-402.09 1088.63,-391.51"/>
<polygon fill="midnightblue" stroke="midnightblue" points="1089.97,-394.77 1098.59,-388.61 1088.01,-388.05 1089.97,-394.77"/>
</g>
<!-- Node36 -->
<g id="node36" class="node">
<title>Node36</title>
<g id="a_node36"><a xlink:href="thrmask_8h.html" target="_top" xlink:title="ODP thread masks.">
<polygon fill="white" stroke="black" points="758.5,-364 758.5,-383 863.5,-383 863.5,-364 758.5,-364"/>
<text text-anchor="middle" x="811" y="-371" font-family="Helvetica,sans-Serif" font-size="10.00">odp/api/thrmask.h</text>
</a>
</g>
</g>
<!-- Node35&#45;&gt;Node36 -->
<g id="edge55" class="edge">
<title>Node35&#45;&gt;Node36</title>
<path fill="none" stroke="midnightblue" d="M899.48,-425.4C880.27,-414.34 853.7,-399.06 834.7,-388.13"/>
<polygon fill="midnightblue" stroke="midnightblue" points="836.2,-384.96 825.79,-383.01 832.71,-391.03 836.2,-384.96"/>
</g>
<!-- Node37 -->
<g id="node37" class="node">
<title>Node37</title>
<g id="a_node37"><a xlink:title=" ">
<polygon fill="white" stroke="#bfbfbf" points="604.5,-297 604.5,-316 727.5,-316 727.5,-297 604.5,-297"/>
<text text-anchor="middle" x="666" y="-304" font-family="Helvetica,sans-Serif" font-size="10.00">odp/api/abi/thrmask.h</text>
</a>
</g>
</g>
<!-- Node36&#45;&gt;Node37 -->
<g id="edge56" class="edge">
<title>Node36&#45;&gt;Node37</title>
<path fill="none" stroke="midnightblue" d="M791.75,-363.87C766.83,-352.7 723.21,-333.15 694.47,-320.26"/>
<polygon fill="midnightblue" stroke="midnightblue" points="695.89,-317.06 685.33,-316.17 693.03,-323.45 695.89,-317.06"/>
</g>
<!-- Node38 -->
<g id="node38" class="node">
<title>Node38</title>
<g id="a_node38"><a xlink:href="spec_2thrmask_8h.html" target="_top" xlink:title="ODP thread masks.">
<polygon fill="white" stroke="black" points="745.5,-297 745.5,-316 876.5,-316 876.5,-297 745.5,-297"/>
<text text-anchor="middle" x="811" y="-304" font-family="Helvetica,sans-Serif" font-size="10.00">odp/api/spec/thrmask.h</text>
</a>
</g>
</g>
<!-- Node36&#45;&gt;Node38 -->
<g id="edge57" class="edge">
<title>Node36&#45;&gt;Node38</title>
<path fill="none" stroke="midnightblue" d="M811,-363.73C811,-354.18 811,-338.62 811,-326.28"/>
<polygon fill="midnightblue" stroke="midnightblue" points="814.5,-326.13 811,-316.13 807.5,-326.13 814.5,-326.13"/>
</g>
<!-- Node38&#45;&gt;Node2 -->
<g id="edge58" class="edge">
<title>Node38&#45;&gt;Node2</title>
<path fill="none" stroke="midnightblue" d="M768.65,-296.98C646.79,-272.31 304,-201.88 304,-190 304,-190 304,-190 304,-132 304,-93.81 286.56,-51.83 275.31,-28.72"/>
<polygon fill="midnightblue" stroke="midnightblue" points="278.29,-26.86 270.66,-19.52 272.04,-30.02 278.29,-26.86"/>
</g>
<!-- Node38&#45;&gt;Node3 -->
<g id="edge59" class="edge">
<title>Node38&#45;&gt;Node3</title>
<path fill="none" stroke="midnightblue" d="M802.98,-296.98C794.41,-287.87 780.64,-273.24 770.04,-261.98"/>
<polygon fill="midnightblue" stroke="midnightblue" points="772.41,-259.39 763.01,-254.51 767.31,-264.19 772.41,-259.39"/>
</g>
<!-- Node38&#45;&gt;Node10 -->
<g id="edge60" class="edge">
<title>Node38&#45;&gt;Node10</title>
<path fill="none" stroke="midnightblue" d="M876.52,-300.58C945.44,-291.42 1044,-265.17 1044,-190 1044,-190 1044,-190 1044,-132 1044,-93.81 1061.44,-51.83 1072.69,-28.72"/>
<polygon fill="midnightblue" stroke="midnightblue" points="1075.96,-30.02 1077.34,-19.52 1069.71,-26.86 1075.96,-30.02"/>
</g>
<!-- Node39&#45;&gt;Node1 -->
<g id="edge68" class="edge">
<title>Node39&#45;&gt;Node1</title>
<path fill="none" stroke="midnightblue" d="M1234.12,-757.57C1216.19,-783.68 1161.99,-862.59 1137.84,-897.76"/>
<polygon fill="midnightblue" stroke="midnightblue" points="1134.91,-895.85 1132.13,-906.08 1140.68,-899.81 1134.91,-895.85"/>
</g>
<!-- Node39&#45;&gt;Node31 -->
<g id="edge67" class="edge">
<title>Node39&#45;&gt;Node31</title>
<path fill="none" stroke="midnightblue" d="M1247.09,-738.32C1271.11,-707.98 1348,-603.06 1348,-503 1348,-503 1348,-503 1348,-439.5 1348,-398.99 1353.67,-351.78 1357.22,-326.23"/>
<polygon fill="midnightblue" stroke="midnightblue" points="1360.71,-326.52 1358.67,-316.12 1353.78,-325.53 1360.71,-326.52"/>
</g>
<!-- Node41 -->
<g id="node41" class="node">
<title>Node41</title>
<g id="a_node41"><a xlink:title=" ">
<polygon fill="white" stroke="#bfbfbf" points="1459,-677 1459,-696 1587,-696 1587,-677 1459,-677"/>
<text text-anchor="middle" x="1523" y="-684" font-family="Helvetica,sans-Serif" font-size="10.00">odp/api/abi/ml_types.h</text>
</a>
</g>
</g>
<!-- Node40&#45;&gt;Node41 -->
<g id="edge71" class="edge">
<title>Node40&#45;&gt;Node41</title>
<path fill="none" stroke="midnightblue" d="M1394.49,-738.48C1420.11,-728.31 1463.11,-711.26 1492.24,-699.7"/>
<polygon fill="midnightblue" stroke="midnightblue" points="1493.54,-702.95 1501.55,-696.01 1490.96,-696.44 1493.54,-702.95"/>
</g>
<!-- Node42 -->
<g id="node42" class="node">
<title>Node42</title>
<g id="a_node42"><a xlink:href="spec_2ml__types_8h.html" target="_top" xlink:title="ODP Machine Learning (ML) types.">
<polygon fill="white" stroke="black" points="1305.5,-677 1305.5,-696 1440.5,-696 1440.5,-677 1305.5,-677"/>
<text text-anchor="middle" x="1373" y="-684" font-family="Helvetica,sans-Serif" font-size="10.00">odp/api/spec/ml_types.h</text>
</a>
</g>
</g>
<!-- Node40&#45;&gt;Node42 -->
<g id="edge72" class="edge">
<title>Node40&#45;&gt;Node42</title>
<path fill="none" stroke="midnightblue" d="M1373,-738.48C1373,-730.08 1373,-716.98 1373,-706.16"/>
<polygon fill="midnightblue" stroke="midnightblue" points="1376.5,-706.01 1373,-696.01 1369.5,-706.01 1376.5,-706.01"/>
</g>
<!-- Node42&#45;&gt;Node2 -->
<g id="edge73" class="edge">
<title>Node42&#45;&gt;Node2</title>
<path fill="none" stroke="midnightblue" d="M1356.87,-676.92C1329.39,-662.57 1271.48,-633.46 1220,-615 1160.74,-593.75 1139.46,-606.84 1083,-579 1062.83,-569.05 1063.54,-557.16 1043,-548 961.32,-511.56 932.66,-529.76 845,-512 599.51,-462.25 528.62,-479.35 295,-389 226.77,-362.61 152,-380.65 152,-307.5 152,-307.5 152,-307.5 152,-132 152,-81.35 205.58,-43.28 239.27,-24.34"/>
<polygon fill="midnightblue" stroke="midnightblue" points="241.06,-27.36 248.19,-19.52 237.73,-21.2 241.06,-27.36"/>
</g>
<!-- Node42&#45;&gt;Node3 -->
<g id="edge76" class="edge">
<title>Node42&#45;&gt;Node3</title>
<path fill="none" stroke="midnightblue" d="M1365.45,-676.79C1324.37,-629.9 1121.74,-405.53 909,-291 879.03,-274.87 842.59,-263.88 812.68,-256.81"/>
<polygon fill="midnightblue" stroke="midnightblue" points="813.33,-253.37 802.8,-254.56 811.78,-260.19 813.33,-253.37"/>
</g>
<!-- Node42&#45;&gt;Node10 -->
<g id="edge77" class="edge">
<title>Node42&#45;&gt;Node10</title>
<path fill="none" stroke="midnightblue" d="M1402.76,-676.97C1466,-657.95 1608,-610.16 1608,-564.5 1608,-564.5 1608,-564.5 1608,-132 1608,-96.58 1611.61,-78.19 1584,-56 1550.76,-29.28 1276.97,-17.16 1148.32,-12.9"/>
<polygon fill="midnightblue" stroke="midnightblue" points="1148.3,-9.39 1138.2,-12.57 1148.08,-16.39 1148.3,-9.39"/>
</g>
<!-- Node42&#45;&gt;Node14 -->
<g id="edge74" class="edge">
<title>Node42&#45;&gt;Node14</title>
<path fill="none" stroke="midnightblue" d="M1392.71,-676.9C1427,-660.46 1494,-621.09 1494,-564.5 1494,-564.5 1494,-564.5 1494,-372.5 1494,-334.74 1496.48,-317.92 1470,-291 1451.11,-271.8 1424.16,-260.76 1398.67,-254.43"/>
<polygon fill="midnightblue" stroke="midnightblue" points="1399.14,-250.95 1388.62,-252.15 1397.59,-257.77 1399.14,-250.95"/>
</g>
<!-- Node42&#45;&gt;Node26 -->
<g id="edge75" class="edge">
<title>Node42&#45;&gt;Node26</title>
<path fill="none" stroke="midnightblue" d="M1340.62,-676.98C1300.76,-666.48 1232.98,-648.64 1189.11,-637.09"/>
<polygon fill="midnightblue" stroke="midnightblue" points="1189.88,-633.67 1179.32,-634.51 1188.1,-640.44 1189.88,-633.67"/>
</g>
</g>
</svg>
