<?xml version="1.0" encoding="UTF-8" standalone="no"?>
<!DOCTYPE svg PUBLIC "-//W3C//DTD SVG 1.1//EN"
 "http://www.w3.org/Graphics/SVG/1.1/DTD/svg11.dtd">
<!-- Generated by graphviz version 2.43.0 (0)
 -->
<!-- Title: init.h Pages: 1 -->
<svg width="1081pt" height="319pt"
 viewBox="0.00 0.00 1080.50 319.00" xmlns="http://www.w3.org/2000/svg" xmlns:xlink="http://www.w3.org/1999/xlink">
<g id="graph0" class="graph" transform="scale(1 1) rotate(0) translate(4 315)">
<title>init.h</title>
<polygon fill="white" stroke="transparent" points="-4,4 -4,-315 1076.5,-315 1076.5,4 -4,4"/>
<!-- Node1 -->
<g id="node1" class="node">
<title>Node1</title>
<g id="a_node1"><a xlink:title=" ">
<polygon fill="#bfbfbf" stroke="black" points="660.5,-291.5 660.5,-310.5 701.5,-310.5 701.5,-291.5 660.5,-291.5"/>
<text text-anchor="middle" x="681" y="-298.5" font-family="Helvetica,sans-Serif" font-size="10.00">init.h</text>
</a>
</g>
</g>
<!-- Node2 -->
<g id="node2" class="node">
<title>Node2</title>
<g id="a_node2"><a xlink:title=" ">
<polygon fill="white" stroke="#bfbfbf" points="188.5,-0.5 188.5,-19.5 309.5,-19.5 309.5,-0.5 188.5,-0.5"/>
<text text-anchor="middle" x="249" y="-7.5" font-family="Helvetica,sans-Serif" font-size="10.00">odp/visibility_begin.h</text>
</a>
</g>
</g>
<!-- Node1&#45;&gt;Node2 -->
<g id="edge1" class="edge">
<title>Node1&#45;&gt;Node2</title>
<path fill="none" stroke="midnightblue" d="M660.25,-298.73C546.12,-291.49 0,-253.23 0,-184.5 0,-184.5 0,-184.5 0,-121 0,-42.58 104.63,-19.6 178.24,-13.15"/>
<polygon fill="midnightblue" stroke="midnightblue" points="178.71,-16.62 188.41,-12.34 178.16,-9.64 178.71,-16.62"/>
</g>
<!-- Node3 -->
<g id="node3" class="node">
<title>Node3</title>
<g id="a_node3"><a xlink:href="std__types_8h.html" target="_top" xlink:title="Standard C language types and definitions for ODP.">
<polygon fill="white" stroke="black" points="392,-235.5 392,-254.5 504,-254.5 504,-235.5 392,-235.5"/>
<text text-anchor="middle" x="448" y="-242.5" font-family="Helvetica,sans-Serif" font-size="10.00">odp/api/std_types.h</text>
</a>
</g>
</g>
<!-- Node1&#45;&gt;Node3 -->
<g id="edge2" class="edge">
<title>Node1&#45;&gt;Node3</title>
<path fill="none" stroke="midnightblue" d="M660.32,-295.21C623.44,-286.66 545.43,-268.58 494.94,-256.88"/>
<polygon fill="midnightblue" stroke="midnightblue" points="495.45,-253.4 484.92,-254.56 493.87,-260.22 495.45,-253.4"/>
</g>
<!-- Node10 -->
<g id="node10" class="node">
<title>Node10</title>
<g id="a_node10"><a xlink:title=" ">
<polygon fill="white" stroke="#bfbfbf" points="623,-0.5 623,-19.5 735,-19.5 735,-0.5 623,-0.5"/>
<text text-anchor="middle" x="679" y="-7.5" font-family="Helvetica,sans-Serif" font-size="10.00">odp/visibility_end.h</text>
</a>
</g>
</g>
<!-- Node1&#45;&gt;Node10 -->
<g id="edge25" class="edge">
<title>Node1&#45;&gt;Node10</title>
<path fill="none" stroke="midnightblue" d="M701.53,-291.69C736.05,-276.18 802,-239.39 802,-184.5 802,-184.5 802,-184.5 802,-121 802,-72.48 748.16,-40.01 711.73,-23.6"/>
<polygon fill="midnightblue" stroke="midnightblue" points="712.99,-20.33 702.42,-19.58 710.22,-26.76 712.99,-20.33"/>
</g>
<!-- Node11 -->
<g id="node11" class="node">
<title>Node11</title>
<g id="a_node11"><a xlink:href="hints_8h.html" target="_top" xlink:title="ODP compiler hints.">
<polygon fill="white" stroke="black" points="660.5,-235.5 660.5,-254.5 749.5,-254.5 749.5,-235.5 660.5,-235.5"/>
<text text-anchor="middle" x="705" y="-242.5" font-family="Helvetica,sans-Serif" font-size="10.00">odp/api/hints.h</text>
</a>
</g>
</g>
<!-- Node1&#45;&gt;Node11 -->
<g id="edge13" class="edge">
<title>Node1&#45;&gt;Node11</title>
<path fill="none" stroke="midnightblue" d="M684.96,-291.08C688.21,-283.77 692.92,-273.18 696.95,-264.1"/>
<polygon fill="midnightblue" stroke="midnightblue" points="700.25,-265.31 701.11,-254.75 693.85,-262.47 700.25,-265.31"/>
</g>
<!-- Node13 -->
<g id="node13" class="node">
<title>Node13</title>
<g id="a_node13"><a xlink:href="thread__types_8h.html" target="_top" xlink:title="ODP thread.">
<polygon fill="white" stroke="black" points="830,-235.5 830,-254.5 958,-254.5 958,-235.5 830,-235.5"/>
<text text-anchor="middle" x="894" y="-242.5" font-family="Helvetica,sans-Serif" font-size="10.00">odp/api/thread_types.h</text>
</a>
</g>
</g>
<!-- Node1&#45;&gt;Node13 -->
<g id="edge17" class="edge">
<title>Node1&#45;&gt;Node13</title>
<path fill="none" stroke="midnightblue" d="M701.81,-294.72C736.07,-286.04 805.05,-268.55 850.37,-257.06"/>
<polygon fill="midnightblue" stroke="midnightblue" points="851.39,-260.41 860.22,-254.56 849.67,-253.63 851.39,-260.41"/>
</g>
<!-- Node16 -->
<g id="node16" class="node">
<title>Node16</title>
<g id="a_node16"><a xlink:href="cpumask_8h.html" target="_top" xlink:title="ODP CPU masks and enumeration.">
<polygon fill="white" stroke="black" points="485.5,-112.5 485.5,-131.5 594.5,-131.5 594.5,-112.5 485.5,-112.5"/>
<text text-anchor="middle" x="540" y="-119.5" font-family="Helvetica,sans-Serif" font-size="10.00">odp/api/cpumask.h</text>
</a>
</g>
</g>
<!-- Node1&#45;&gt;Node16 -->
<g id="edge20" class="edge">
<title>Node1&#45;&gt;Node16</title>
<path fill="none" stroke="midnightblue" d="M674.2,-291.46C652.2,-263.85 582.69,-176.58 553.31,-139.71"/>
<polygon fill="midnightblue" stroke="midnightblue" points="556.03,-137.51 547.06,-131.87 550.56,-141.87 556.03,-137.51"/>
</g>
<!-- Node4 -->
<g id="node4" class="node">
<title>Node4</title>
<g id="a_node4"><a xlink:title=" ">
<polygon fill="white" stroke="#bfbfbf" points="383,-174 383,-193 513,-193 513,-174 383,-174"/>
<text text-anchor="middle" x="448" y="-181" font-family="Helvetica,sans-Serif" font-size="10.00">odp/api/abi/std_types.h</text>
</a>
</g>
</g>
<!-- Node3&#45;&gt;Node4 -->
<g id="edge3" class="edge">
<title>Node3&#45;&gt;Node4</title>
<path fill="none" stroke="midnightblue" d="M448,-235.48C448,-227.08 448,-213.98 448,-203.16"/>
<polygon fill="midnightblue" stroke="midnightblue" points="451.5,-203.01 448,-193.01 444.5,-203.01 451.5,-203.01"/>
</g>
<!-- Node5 -->
<g id="node5" class="node">
<title>Node5</title>
<g id="a_node5"><a xlink:href="spec_2std__types_8h.html" target="_top" xlink:title="Common types and definitions for ODP API files.">
<polygon fill="white" stroke="black" points="180.5,-174 180.5,-193 317.5,-193 317.5,-174 180.5,-174"/>
<text text-anchor="middle" x="249" y="-181" font-family="Helvetica,sans-Serif" font-size="10.00">odp/api/spec/std_types.h</text>
</a>
</g>
</g>
<!-- Node3&#45;&gt;Node5 -->
<g id="edge4" class="edge">
<title>Node3&#45;&gt;Node5</title>
<path fill="none" stroke="midnightblue" d="M419.49,-235.48C384.76,-225.09 325.96,-207.51 287.31,-195.95"/>
<polygon fill="midnightblue" stroke="midnightblue" points="288.04,-192.52 277.46,-193.01 286.04,-199.23 288.04,-192.52"/>
</g>
<!-- Node5&#45;&gt;Node2 -->
<g id="edge5" class="edge">
<title>Node5&#45;&gt;Node2</title>
<path fill="none" stroke="midnightblue" d="M210.07,-174C141.19,-157.19 9.39,-116.06 57,-56 72.14,-36.9 129.83,-25.13 178.05,-18.44"/>
<polygon fill="midnightblue" stroke="midnightblue" points="178.73,-21.88 188.18,-17.09 177.8,-14.94 178.73,-21.88"/>
</g>
<!-- Node6 -->
<g id="node6" class="node">
<title>Node6</title>
<g id="a_node6"><a xlink:title=" ">
<polygon fill="white" stroke="#bfbfbf" points="133.5,-112.5 133.5,-131.5 186.5,-131.5 186.5,-112.5 133.5,-112.5"/>
<text text-anchor="middle" x="160" y="-119.5" font-family="Helvetica,sans-Serif" font-size="10.00">stdint.h</text>
</a>
</g>
</g>
<!-- Node5&#45;&gt;Node6 -->
<g id="edge6" class="edge">
<title>Node5&#45;&gt;Node6</title>
<path fill="none" stroke="midnightblue" d="M236.25,-173.98C221.97,-164.43 198.6,-148.81 181.49,-137.37"/>
<polygon fill="midnightblue" stroke="midnightblue" points="182.99,-134.16 172.73,-131.51 179.1,-139.98 182.99,-134.16"/>
</g>
<!-- Node7 -->
<g id="node7" class="node">
<title>Node7</title>
<g id="a_node7"><a xlink:href="align_8h.html" target="_top" xlink:title="ODP alignments.">
<polygon fill="white" stroke="black" points="204.5,-112.5 204.5,-131.5 293.5,-131.5 293.5,-112.5 204.5,-112.5"/>
<text text-anchor="middle" x="249" y="-119.5" font-family="Helvetica,sans-Serif" font-size="10.00">odp/api/align.h</text>
</a>
</g>
</g>
<!-- Node5&#45;&gt;Node7 -->
<g id="edge7" class="edge">
<title>Node5&#45;&gt;Node7</title>
<path fill="none" stroke="midnightblue" d="M249,-173.98C249,-165.58 249,-152.48 249,-141.66"/>
<polygon fill="midnightblue" stroke="midnightblue" points="252.5,-141.51 249,-131.51 245.5,-141.51 252.5,-141.51"/>
</g>
<!-- Node5&#45;&gt;Node10 -->
<g id="edge12" class="edge">
<title>Node5&#45;&gt;Node10</title>
<path fill="none" stroke="midnightblue" d="M317.87,-174.62C405.18,-164.29 550.64,-145.86 603,-132 668.58,-114.65 706.83,-132.08 745,-76 758.9,-55.58 732.36,-36.26 708.9,-24.08"/>
<polygon fill="midnightblue" stroke="midnightblue" points="710.34,-20.88 699.82,-19.61 707.25,-27.17 710.34,-20.88"/>
</g>
<!-- Node8 -->
<g id="node8" class="node">
<title>Node8</title>
<g id="a_node8"><a xlink:title=" ">
<polygon fill="white" stroke="#bfbfbf" points="66.5,-56.5 66.5,-75.5 173.5,-75.5 173.5,-56.5 66.5,-56.5"/>
<text text-anchor="middle" x="120" y="-63.5" font-family="Helvetica,sans-Serif" font-size="10.00">odp/api/abi/align.h</text>
</a>
</g>
</g>
<!-- Node7&#45;&gt;Node8 -->
<g id="edge8" class="edge">
<title>Node7&#45;&gt;Node8</title>
<path fill="none" stroke="midnightblue" d="M228.56,-112.44C207.33,-103.56 173.9,-89.56 149.75,-79.45"/>
<polygon fill="midnightblue" stroke="midnightblue" points="150.92,-76.15 140.34,-75.52 148.22,-82.61 150.92,-76.15"/>
</g>
<!-- Node9 -->
<g id="node9" class="node">
<title>Node9</title>
<g id="a_node9"><a xlink:href="spec_2align_8h.html" target="_top" xlink:title="ODP alignments.">
<polygon fill="white" stroke="black" points="192,-56.5 192,-75.5 306,-75.5 306,-56.5 192,-56.5"/>
<text text-anchor="middle" x="249" y="-63.5" font-family="Helvetica,sans-Serif" font-size="10.00">odp/api/spec/align.h</text>
</a>
</g>
</g>
<!-- Node7&#45;&gt;Node9 -->
<g id="edge9" class="edge">
<title>Node7&#45;&gt;Node9</title>
<path fill="none" stroke="midnightblue" d="M249,-112.08C249,-105.01 249,-94.86 249,-85.99"/>
<polygon fill="midnightblue" stroke="midnightblue" points="252.5,-85.75 249,-75.75 245.5,-85.75 252.5,-85.75"/>
</g>
<!-- Node9&#45;&gt;Node2 -->
<g id="edge10" class="edge">
<title>Node9&#45;&gt;Node2</title>
<path fill="none" stroke="midnightblue" d="M249,-56.08C249,-49.01 249,-38.86 249,-29.99"/>
<polygon fill="midnightblue" stroke="midnightblue" points="252.5,-29.75 249,-19.75 245.5,-29.75 252.5,-29.75"/>
</g>
<!-- Node9&#45;&gt;Node10 -->
<g id="edge11" class="edge">
<title>Node9&#45;&gt;Node10</title>
<path fill="none" stroke="midnightblue" d="M306.23,-57.15C309.2,-56.76 312.13,-56.37 315,-56 419.03,-42.48 539.92,-27.72 612.88,-18.92"/>
<polygon fill="midnightblue" stroke="midnightblue" points="613.34,-22.39 622.85,-17.72 612.5,-15.44 613.34,-22.39"/>
</g>
<!-- Node12 -->
<g id="node12" class="node">
<title>Node12</title>
<g id="a_node12"><a xlink:href="spec_2hints_8h.html" target="_top" xlink:title="ODP compiler hints.">
<polygon fill="white" stroke="black" points="622,-56.5 622,-75.5 736,-75.5 736,-56.5 622,-56.5"/>
<text text-anchor="middle" x="679" y="-63.5" font-family="Helvetica,sans-Serif" font-size="10.00">odp/api/spec/hints.h</text>
</a>
</g>
</g>
<!-- Node11&#45;&gt;Node12 -->
<g id="edge14" class="edge">
<title>Node11&#45;&gt;Node12</title>
<path fill="none" stroke="midnightblue" d="M703.75,-235.46C699.77,-208.43 687.41,-124.24 681.81,-86.11"/>
<polygon fill="midnightblue" stroke="midnightblue" points="685.22,-85.25 680.3,-75.87 678.29,-86.27 685.22,-85.25"/>
</g>
<!-- Node12&#45;&gt;Node2 -->
<g id="edge15" class="edge">
<title>Node12&#45;&gt;Node2</title>
<path fill="none" stroke="midnightblue" d="M621.98,-57.3C618.61,-56.86 615.26,-56.42 612,-56 510.5,-42.89 392.92,-28.45 319.74,-19.55"/>
<polygon fill="midnightblue" stroke="midnightblue" points="320.07,-16.07 309.72,-18.34 319.22,-23.02 320.07,-16.07"/>
</g>
<!-- Node12&#45;&gt;Node10 -->
<g id="edge16" class="edge">
<title>Node12&#45;&gt;Node10</title>
<path fill="none" stroke="midnightblue" d="M679,-56.08C679,-49.01 679,-38.86 679,-29.99"/>
<polygon fill="midnightblue" stroke="midnightblue" points="682.5,-29.75 679,-19.75 675.5,-29.75 682.5,-29.75"/>
</g>
<!-- Node14 -->
<g id="node14" class="node">
<title>Node14</title>
<g id="a_node14"><a xlink:title=" ">
<polygon fill="white" stroke="#bfbfbf" points="836.5,-168.5 836.5,-198.5 941.5,-198.5 941.5,-168.5 836.5,-168.5"/>
<text text-anchor="start" x="844.5" y="-186.5" font-family="Helvetica,sans-Serif" font-size="10.00">odp/api/abi/thread</text>
<text text-anchor="middle" x="889" y="-175.5" font-family="Helvetica,sans-Serif" font-size="10.00">_types.h</text>
</a>
</g>
</g>
<!-- Node13&#45;&gt;Node14 -->
<g id="edge18" class="edge">
<title>Node13&#45;&gt;Node14</title>
<path fill="none" stroke="midnightblue" d="M893.28,-235.48C892.7,-228.47 891.83,-218.19 891.03,-208.7"/>
<polygon fill="midnightblue" stroke="midnightblue" points="894.5,-208.19 890.18,-198.52 887.53,-208.78 894.5,-208.19"/>
</g>
<!-- Node15 -->
<g id="node15" class="node">
<title>Node15</title>
<g id="a_node15"><a xlink:href="spec_2thread__types_8h.html" target="_top" xlink:title="ODP thread API types.">
<polygon fill="white" stroke="black" points="959.5,-168.5 959.5,-198.5 1072.5,-198.5 1072.5,-168.5 959.5,-168.5"/>
<text text-anchor="start" x="967.5" y="-186.5" font-family="Helvetica,sans-Serif" font-size="10.00">odp/api/spec/thread</text>
<text text-anchor="middle" x="1016" y="-175.5" font-family="Helvetica,sans-Serif" font-size="10.00">_types.h</text>
</a>
</g>
</g>
<!-- Node13&#45;&gt;Node15 -->
<g id="edge19" class="edge">
<title>Node13&#45;&gt;Node15</title>
<path fill="none" stroke="midnightblue" d="M911.48,-235.48C928.77,-227.04 955.81,-213.86 978.05,-203.01"/>
<polygon fill="midnightblue" stroke="midnightblue" points="979.79,-206.05 987.25,-198.52 976.72,-199.76 979.79,-206.05"/>
</g>
<!-- Node17 -->
<g id="node17" class="node">
<title>Node17</title>
<g id="a_node17"><a xlink:title=" ">
<polygon fill="white" stroke="#bfbfbf" points="476.5,-56.5 476.5,-75.5 603.5,-75.5 603.5,-56.5 476.5,-56.5"/>
<text text-anchor="middle" x="540" y="-63.5" font-family="Helvetica,sans-Serif" font-size="10.00">odp/api/abi/cpumask.h</text>
</a>
</g>
</g>
<!-- Node16&#45;&gt;Node17 -->
<g id="edge21" class="edge">
<title>Node16&#45;&gt;Node17</title>
<path fill="none" stroke="midnightblue" d="M540,-112.08C540,-105.01 540,-94.86 540,-85.99"/>
<polygon fill="midnightblue" stroke="midnightblue" points="543.5,-85.75 540,-75.75 536.5,-85.75 543.5,-85.75"/>
</g>
<!-- Node18 -->
<g id="node18" class="node">
<title>Node18</title>
<g id="a_node18"><a xlink:href="spec_2cpumask_8h.html" target="_top" xlink:title="ODP CPU masks and enumeration.">
<polygon fill="white" stroke="black" points="324,-56.5 324,-75.5 458,-75.5 458,-56.5 324,-56.5"/>
<text text-anchor="middle" x="391" y="-63.5" font-family="Helvetica,sans-Serif" font-size="10.00">odp/api/spec/cpumask.h</text>
</a>
</g>
</g>
<!-- Node16&#45;&gt;Node18 -->
<g id="edge22" class="edge">
<title>Node16&#45;&gt;Node18</title>
<path fill="none" stroke="midnightblue" d="M516.39,-112.44C491.54,-103.44 452.23,-89.19 424.25,-79.05"/>
<polygon fill="midnightblue" stroke="midnightblue" points="425.09,-75.63 414.5,-75.52 422.71,-82.21 425.09,-75.63"/>
</g>
<!-- Node18&#45;&gt;Node2 -->
<g id="edge23" class="edge">
<title>Node18&#45;&gt;Node2</title>
<path fill="none" stroke="midnightblue" d="M368.5,-56.44C344.92,-47.48 307.68,-33.31 281.04,-23.18"/>
<polygon fill="midnightblue" stroke="midnightblue" points="281.99,-19.8 271.4,-19.52 279.5,-26.34 281.99,-19.8"/>
</g>
<!-- Node18&#45;&gt;Node10 -->
<g id="edge24" class="edge">
<title>Node18&#45;&gt;Node10</title>
<path fill="none" stroke="midnightblue" d="M436.63,-56.44C487.3,-46.94 569.07,-31.61 623.43,-21.42"/>
<polygon fill="midnightblue" stroke="midnightblue" points="624.4,-24.8 633.58,-19.52 623.11,-17.92 624.4,-24.8"/>
</g>
</g>
</svg>
