<?xml version="1.0" encoding="UTF-8" standalone="no"?>
<!DOCTYPE svg PUBLIC "-//W3C//DTD SVG 1.1//EN"
 "http://www.w3.org/Graphics/SVG/1.1/DTD/svg11.dtd">
<!-- Generated by graphviz version 2.43.0 (0)
 -->
<!-- Title: packet_types.h Pages: 1 -->
<svg width="1312pt" height="709pt"
 viewBox="0.00 0.00 1312.00 709.00" xmlns="http://www.w3.org/2000/svg" xmlns:xlink="http://www.w3.org/1999/xlink">
<g id="graph0" class="graph" transform="scale(1 1) rotate(0) translate(4 705)">
<title>packet_types.h</title>
<!-- Node1 -->
<g id="Node000001" class="node">
<title>Node1</title>
<g id="a_Node000001"><a xlink:title="ODP packet types.">
<polygon fill="#999999" stroke="#666666" points="494,-701 404,-701 404,-682 494,-682 494,-701"/>
<text text-anchor="middle" x="449" y="-689" font-family="Helvetica,sans-Serif" font-size="10.00">packet_types.h</text>
</a>
</g>
</g>
<!-- Node2 -->
<g id="Node000002" class="node">
<title>Node2</title>
<g id="a_Node000002"><a xlink:title=" ">
<polygon fill="#e0e0e0" stroke="#999999" points="377.5,-19 256.5,-19 256.5,0 377.5,0 377.5,-19"/>
<text text-anchor="middle" x="317" y="-7" font-family="Helvetica,sans-Serif" font-size="10.00">odp/visibility_begin.h</text>
</a>
</g>
</g>
<!-- Node1&#45;&gt;Node2 -->
<g id="edge1_Node000001_Node000002" class="edge">
<title>Node1&#45;&gt;Node2</title>
<g id="a_edge1_Node000001_Node000002"><a xlink:title=" ">
<path fill="none" stroke="#63b8ff" d="M403.89,-688.66C290.03,-682.79 0,-659.71 0,-577 0,-577 0,-577 0,-129.5 0,-75.67 162.23,-37.96 254.57,-20.85"/>
<polygon fill="#63b8ff" stroke="#63b8ff" points="255.44,-24.25 264.65,-19.01 254.19,-17.36 255.44,-24.25"/>
</a>
</g>
</g>
<!-- Node3 -->
<g id="Node000003" class="node">
<title>Node3</title>
<g id="a_Node000003"><a xlink:href="proto__stats__types_8h.html" target="_top" xlink:title="ODP proto stats types.">
<polygon fill="white" stroke="#666666" points="156,-404 46,-404 46,-374 156,-374 156,-404"/>
<text text-anchor="start" x="54" y="-392" font-family="Helvetica,sans-Serif" font-size="10.00">odp/api/proto_stats</text>
<text text-anchor="middle" x="101" y="-381" font-family="Helvetica,sans-Serif" font-size="10.00">_types.h</text>
</a>
</g>
</g>
<!-- Node1&#45;&gt;Node3 -->
<g id="edge2_Node000001_Node000003" class="edge">
<title>Node1&#45;&gt;Node3</title>
<g id="a_edge2_Node000001_Node000003"><a xlink:title=" ">
<path fill="none" stroke="#63b8ff" d="M403.67,-684.4C314.1,-671.06 123,-635.73 123,-577 123,-577 123,-577 123,-514.5 123,-478.97 114.2,-438.59 107.74,-413.71"/>
<polygon fill="#63b8ff" stroke="#63b8ff" points="111.11,-412.8 105.14,-404.05 104.35,-414.61 111.11,-412.8"/>
</a>
</g>
</g>
<!-- Node13 -->
<g id="Node000013" class="node">
<title>Node13</title>
<g id="a_Node000013"><a xlink:title=" ">
<polygon fill="#e0e0e0" stroke="#999999" points="987,-19 875,-19 875,0 987,0 987,-19"/>
<text text-anchor="middle" x="931" y="-7" font-family="Helvetica,sans-Serif" font-size="10.00">odp/visibility_end.h</text>
</a>
</g>
</g>
<!-- Node1&#45;&gt;Node13 -->
<g id="edge55_Node000001_Node000013" class="edge">
<title>Node1&#45;&gt;Node13</title>
<g id="a_edge55_Node000001_Node000013"><a xlink:title=" ">
<path fill="none" stroke="#63b8ff" d="M494.06,-689.31C670.41,-684.07 1304,-659.5 1304,-577 1304,-577 1304,-577 1304,-129.5 1304,-84.07 1274.28,-76.03 1234,-55 1193.97,-34.1 1073.65,-21.34 997.22,-15.12"/>
<polygon fill="#63b8ff" stroke="#63b8ff" points="997.45,-11.63 987.2,-14.33 996.89,-18.61 997.45,-11.63"/>
</a>
</g>
</g>
<!-- Node14 -->
<g id="Node000014" class="node">
<title>Node14</title>
<g id="a_Node000014"><a xlink:href="queue__types_8h.html" target="_top" xlink:title="ODP queue.">
<polygon fill="white" stroke="#666666" points="767.5,-646 640.5,-646 640.5,-627 767.5,-627 767.5,-646"/>
<text text-anchor="middle" x="704" y="-634" font-family="Helvetica,sans-Serif" font-size="10.00">odp/api/queue_types.h</text>
</a>
</g>
</g>
<!-- Node1&#45;&gt;Node14 -->
<g id="edge18_Node000001_Node000014" class="edge">
<title>Node1&#45;&gt;Node14</title>
<g id="a_edge18_Node000001_Node000014"><a xlink:title=" ">
<path fill="none" stroke="#63b8ff" d="M489.97,-681.98C534.26,-672.78 604.94,-658.09 652.85,-648.13"/>
<polygon fill="#63b8ff" stroke="#63b8ff" points="653.63,-651.54 662.71,-646.08 652.21,-644.69 653.63,-651.54"/>
</a>
</g>
</g>
<!-- Node4 -->
<g id="Node000004" class="node">
<title>Node4</title>
<g id="a_Node000004"><a xlink:title=" ">
<polygon fill="#e0e0e0" stroke="#999999" points="156,-338 28,-338 28,-308 156,-308 156,-338"/>
<text text-anchor="start" x="36" y="-326" font-family="Helvetica,sans-Serif" font-size="10.00">odp/api/abi/proto_stats</text>
<text text-anchor="middle" x="92" y="-315" font-family="Helvetica,sans-Serif" font-size="10.00">_types.h</text>
</a>
</g>
</g>
<!-- Node3&#45;&gt;Node4 -->
<g id="edge3_Node000003_Node000004" class="edge">
<title>Node3&#45;&gt;Node4</title>
<g id="a_edge3_Node000003_Node000004"><a xlink:title=" ">
<path fill="none" stroke="#63b8ff" d="M99,-373.8C97.94,-366.26 96.61,-356.78 95.39,-348.13"/>
<polygon fill="#63b8ff" stroke="#63b8ff" points="98.85,-347.58 93.99,-338.16 91.92,-348.55 98.85,-347.58"/>
</a>
</g>
</g>
<!-- Node5 -->
<g id="Node000005" class="node">
<title>Node5</title>
<g id="a_Node000005"><a xlink:href="spec_2proto__stats__types_8h.html" target="_top" xlink:title="ODP proto stats types.">
<polygon fill="white" stroke="#666666" points="357.5,-338 250.5,-338 250.5,-308 357.5,-308 357.5,-338"/>
<text text-anchor="start" x="258.5" y="-326" font-family="Helvetica,sans-Serif" font-size="10.00">odp/api/spec/proto</text>
<text text-anchor="middle" x="304" y="-315" font-family="Helvetica,sans-Serif" font-size="10.00">_stats_types.h</text>
</a>
</g>
</g>
<!-- Node3&#45;&gt;Node5 -->
<g id="edge4_Node000003_Node000005" class="edge">
<title>Node3&#45;&gt;Node5</title>
<g id="a_edge4_Node000003_Node000005"><a xlink:title=" ">
<path fill="none" stroke="#63b8ff" d="M145.55,-373.95C176.22,-364.28 217.16,-351.38 249.73,-341.11"/>
<polygon fill="#63b8ff" stroke="#63b8ff" points="251.07,-344.36 259.55,-338.01 248.97,-337.68 251.07,-344.36"/>
</a>
</g>
</g>
<!-- Node5&#45;&gt;Node2 -->
<g id="edge5_Node000005_Node000002" class="edge">
<title>Node5&#45;&gt;Node2</title>
<g id="a_edge5_Node000005_Node000002"><a xlink:title=" ">
<path fill="none" stroke="#63b8ff" d="M295.72,-307.72C282.98,-284.34 260,-236.08 260,-192 260,-192 260,-192 260,-129.5 260,-94.71 268.09,-85.94 284,-55 289.1,-45.07 296.36,-35 302.77,-26.96"/>
<polygon fill="#63b8ff" stroke="#63b8ff" points="305.57,-29.06 309.25,-19.13 300.18,-24.6 305.57,-29.06"/>
</a>
</g>
</g>
<!-- Node6 -->
<g id="Node000006" class="node">
<title>Node6</title>
<g id="a_Node000006"><a xlink:href="std__types_8h.html" target="_top" xlink:title="Standard C language types and definitions for ODP.">
<polygon fill="white" stroke="#666666" points="513,-266.5 401,-266.5 401,-247.5 513,-247.5 513,-266.5"/>
<text text-anchor="middle" x="457" y="-254.5" font-family="Helvetica,sans-Serif" font-size="10.00">odp/api/std_types.h</text>
</a>
</g>
</g>
<!-- Node5&#45;&gt;Node6 -->
<g id="edge6_Node000005_Node000006" class="edge">
<title>Node5&#45;&gt;Node6</title>
<g id="a_edge6_Node000005_Node000006"><a xlink:title=" ">
<path fill="none" stroke="#63b8ff" d="M337.58,-307.95C364.41,-296.73 401.66,-281.15 427.39,-270.39"/>
<polygon fill="#63b8ff" stroke="#63b8ff" points="428.76,-273.61 436.64,-266.52 426.06,-267.15 428.76,-273.61"/>
</a>
</g>
</g>
<!-- Node5&#45;&gt;Node13 -->
<g id="edge17_Node000005_Node000013" class="edge">
<title>Node5&#45;&gt;Node13</title>
<g id="a_edge17_Node000005_Node000013"><a xlink:title=" ">
<path fill="none" stroke="#63b8ff" d="M304.96,-307.57C307.78,-277.68 318.77,-209.02 361,-176 459.14,-99.25 527.04,-194.66 639,-140 687.29,-116.42 677.74,-80.58 725,-55 768.1,-31.67 822.5,-20.57 864.57,-15.29"/>
<polygon fill="#63b8ff" stroke="#63b8ff" points="865.19,-18.74 874.71,-14.1 864.37,-11.79 865.19,-18.74"/>
</a>
</g>
</g>
<!-- Node7 -->
<g id="Node000007" class="node">
<title>Node7</title>
<g id="a_Node000007"><a xlink:title=" ">
<polygon fill="#e0e0e0" stroke="#999999" points="500,-200.5 370,-200.5 370,-181.5 500,-181.5 500,-200.5"/>
<text text-anchor="middle" x="435" y="-188.5" font-family="Helvetica,sans-Serif" font-size="10.00">odp/api/abi/std_types.h</text>
</a>
</g>
</g>
<!-- Node6&#45;&gt;Node7 -->
<g id="edge7_Node000006_Node000007" class="edge">
<title>Node6&#45;&gt;Node7</title>
<g id="a_edge7_Node000006_Node000007"><a xlink:title=" ">
<path fill="none" stroke="#63b8ff" d="M454.03,-247.37C450.8,-237.97 445.54,-222.67 441.37,-210.53"/>
<polygon fill="#63b8ff" stroke="#63b8ff" points="444.62,-209.22 438.06,-200.91 438,-211.5 444.62,-209.22"/>
</a>
</g>
</g>
<!-- Node8 -->
<g id="Node000008" class="node">
<title>Node8</title>
<g id="a_Node000008"><a xlink:href="spec_2std__types_8h.html" target="_top" xlink:title="Common types and definitions for ODP API files.">
<polygon fill="white" stroke="#666666" points="693.5,-200.5 556.5,-200.5 556.5,-181.5 693.5,-181.5 693.5,-200.5"/>
<text text-anchor="middle" x="625" y="-188.5" font-family="Helvetica,sans-Serif" font-size="10.00">odp/api/spec/std_types.h</text>
</a>
</g>
</g>
<!-- Node6&#45;&gt;Node8 -->
<g id="edge8_Node000006_Node000008" class="edge">
<title>Node6&#45;&gt;Node8</title>
<g id="a_edge8_Node000006_Node000008"><a xlink:title=" ">
<path fill="none" stroke="#63b8ff" d="M479.66,-247.37C508.8,-236.27 559.59,-216.92 592.75,-204.28"/>
<polygon fill="#63b8ff" stroke="#63b8ff" points="594.34,-207.43 602.43,-200.6 591.84,-200.89 594.34,-207.43"/>
</a>
</g>
</g>
<!-- Node8&#45;&gt;Node2 -->
<g id="edge9_Node000008_Node000002" class="edge">
<title>Node8&#45;&gt;Node2</title>
<g id="a_edge9_Node000008_Node000002"><a xlink:title=" ">
<path fill="none" stroke="#63b8ff" d="M598.9,-181.45C554.46,-166.2 462.28,-131.49 394,-85 369.38,-68.24 345.44,-43.31 330.96,-26.98"/>
<polygon fill="#63b8ff" stroke="#63b8ff" points="333.5,-24.56 324.29,-19.31 328.21,-29.15 333.5,-24.56"/>
</a>
</g>
</g>
<!-- Node9 -->
<g id="Node000009" class="node">
<title>Node9</title>
<g id="a_Node000009"><a xlink:title=" ">
<polygon fill="#e0e0e0" stroke="#999999" points="777.5,-140 724.5,-140 724.5,-121 777.5,-121 777.5,-140"/>
<text text-anchor="middle" x="751" y="-128" font-family="Helvetica,sans-Serif" font-size="10.00">stdint.h</text>
</a>
</g>
</g>
<!-- Node8&#45;&gt;Node9 -->
<g id="edge10_Node000008_Node000009" class="edge">
<title>Node8&#45;&gt;Node9</title>
<g id="a_edge10_Node000008_Node000009"><a xlink:title=" ">
<path fill="none" stroke="#63b8ff" d="M643.32,-181.49C664.41,-171.7 699.26,-155.52 723.58,-144.23"/>
<polygon fill="#63b8ff" stroke="#63b8ff" points="725.06,-147.4 732.66,-140.02 722.11,-141.05 725.06,-147.4"/>
</a>
</g>
</g>
<!-- Node10 -->
<g id="Node000010" class="node">
<title>Node10</title>
<g id="a_Node000010"><a xlink:href="align_8h.html" target="_top" xlink:title="ODP alignments.">
<polygon fill="white" stroke="#666666" points="629.5,-140 540.5,-140 540.5,-121 629.5,-121 629.5,-140"/>
<text text-anchor="middle" x="585" y="-128" font-family="Helvetica,sans-Serif" font-size="10.00">odp/api/align.h</text>
</a>
</g>
</g>
<!-- Node8&#45;&gt;Node10 -->
<g id="edge11_Node000008_Node000010" class="edge">
<title>Node8&#45;&gt;Node10</title>
<g id="a_edge11_Node000008_Node000010"><a xlink:title=" ">
<path fill="none" stroke="#63b8ff" d="M619.1,-181.37C613.25,-172.81 604.13,-159.47 596.79,-148.74"/>
<polygon fill="#63b8ff" stroke="#63b8ff" points="599.46,-146.45 590.93,-140.17 593.68,-150.4 599.46,-146.45"/>
</a>
</g>
</g>
<!-- Node8&#45;&gt;Node13 -->
<g id="edge16_Node000008_Node000013" class="edge">
<title>Node8&#45;&gt;Node13</title>
<g id="a_edge16_Node000008_Node000013"><a xlink:title=" ">
<path fill="none" stroke="#63b8ff" d="M632.94,-181.35C657.83,-154.41 734.56,-72.73 766,-55 796.31,-37.9 833.49,-27.13 864.88,-20.48"/>
<polygon fill="#63b8ff" stroke="#63b8ff" points="865.74,-23.87 874.85,-18.46 864.35,-17.01 865.74,-23.87"/>
</a>
</g>
</g>
<!-- Node11 -->
<g id="Node000011" class="node">
<title>Node11</title>
<g id="a_Node000011"><a xlink:title=" ">
<polygon fill="#e0e0e0" stroke="#999999" points="509.5,-79.5 402.5,-79.5 402.5,-60.5 509.5,-60.5 509.5,-79.5"/>
<text text-anchor="middle" x="456" y="-67.5" font-family="Helvetica,sans-Serif" font-size="10.00">odp/api/abi/align.h</text>
</a>
</g>
</g>
<!-- Node10&#45;&gt;Node11 -->
<g id="edge12_Node000010_Node000011" class="edge">
<title>Node10&#45;&gt;Node11</title>
<g id="a_edge12_Node000010_Node000011"><a xlink:title=" ">
<path fill="none" stroke="#63b8ff" d="M566.24,-120.99C544.65,-111.2 508.97,-95.02 484.07,-83.73"/>
<polygon fill="#63b8ff" stroke="#63b8ff" points="485.33,-80.46 474.78,-79.52 482.44,-86.83 485.33,-80.46"/>
</a>
</g>
</g>
<!-- Node12 -->
<g id="Node000012" class="node">
<title>Node12</title>
<g id="a_Node000012"><a xlink:href="spec_2align_8h.html" target="_top" xlink:title="ODP alignments.">
<polygon fill="white" stroke="#666666" points="642,-79.5 528,-79.5 528,-60.5 642,-60.5 642,-79.5"/>
<text text-anchor="middle" x="585" y="-67.5" font-family="Helvetica,sans-Serif" font-size="10.00">odp/api/spec/align.h</text>
</a>
</g>
</g>
<!-- Node10&#45;&gt;Node12 -->
<g id="edge13_Node000010_Node000012" class="edge">
<title>Node10&#45;&gt;Node12</title>
<g id="a_edge13_Node000010_Node000012"><a xlink:title=" ">
<path fill="none" stroke="#63b8ff" d="M585,-120.87C585,-112.75 585,-100.31 585,-89.89"/>
<polygon fill="#63b8ff" stroke="#63b8ff" points="588.5,-89.67 585,-79.67 581.5,-89.67 588.5,-89.67"/>
</a>
</g>
</g>
<!-- Node12&#45;&gt;Node2 -->
<g id="edge14_Node000012_Node000002" class="edge">
<title>Node12&#45;&gt;Node2</title>
<g id="a_edge14_Node000012_Node000002"><a xlink:title=" ">
<path fill="none" stroke="#63b8ff" d="M546.03,-60.49C498.4,-50.1 417.75,-32.49 365.97,-21.19"/>
<polygon fill="#63b8ff" stroke="#63b8ff" points="366.53,-17.73 356.02,-19.02 365.04,-24.57 366.53,-17.73"/>
</a>
</g>
</g>
<!-- Node12&#45;&gt;Node13 -->
<g id="edge15_Node000012_Node000013" class="edge">
<title>Node12&#45;&gt;Node13</title>
<g id="a_edge15_Node000012_Node000013"><a xlink:title=" ">
<path fill="none" stroke="#63b8ff" d="M627,-60.47C636.53,-58.61 646.6,-56.69 656,-55 727.14,-42.23 808.94,-29.21 864.71,-20.58"/>
<polygon fill="#63b8ff" stroke="#63b8ff" points="865.46,-24 874.81,-19.02 864.4,-17.08 865.46,-24"/>
</a>
</g>
</g>
<!-- Node15 -->
<g id="Node000015" class="node">
<title>Node15</title>
<g id="a_Node000015"><a xlink:title=" ">
<polygon fill="#e0e0e0" stroke="#999999" points="922.5,-585.5 777.5,-585.5 777.5,-566.5 922.5,-566.5 922.5,-585.5"/>
<text text-anchor="middle" x="850" y="-573.5" font-family="Helvetica,sans-Serif" font-size="10.00">odp/api/abi/queue_types.h</text>
</a>
</g>
</g>
<!-- Node14&#45;&gt;Node15 -->
<g id="edge19_Node000014_Node000015" class="edge">
<title>Node14&#45;&gt;Node15</title>
<g id="a_edge19_Node000014_Node000015"><a xlink:title=" ">
<path fill="none" stroke="#63b8ff" d="M725.23,-626.99C749.99,-617.07 791.12,-600.59 819.35,-589.28"/>
<polygon fill="#63b8ff" stroke="#63b8ff" points="820.76,-592.49 828.74,-585.52 818.16,-585.99 820.76,-592.49"/>
</a>
</g>
</g>
<!-- Node16 -->
<g id="Node000016" class="node">
<title>Node16</title>
<g id="a_Node000016"><a xlink:href="spec_2queue__types_8h.html" target="_top" xlink:title="ODP queue types.">
<polygon fill="white" stroke="#666666" points="759.5,-591 648.5,-591 648.5,-561 759.5,-561 759.5,-591"/>
<text text-anchor="start" x="656.5" y="-579" font-family="Helvetica,sans-Serif" font-size="10.00">odp/api/spec/queue</text>
<text text-anchor="middle" x="704" y="-568" font-family="Helvetica,sans-Serif" font-size="10.00">_types.h</text>
</a>
</g>
</g>
<!-- Node14&#45;&gt;Node16 -->
<g id="edge20_Node000014_Node000016" class="edge">
<title>Node14&#45;&gt;Node16</title>
<g id="a_edge20_Node000014_Node000016"><a xlink:title=" ">
<path fill="none" stroke="#63b8ff" d="M704,-626.87C704,-620.11 704,-610.35 704,-601.26"/>
<polygon fill="#63b8ff" stroke="#63b8ff" points="707.5,-601.11 704,-591.11 700.5,-601.11 707.5,-601.11"/>
</a>
</g>
</g>
<!-- Node16&#45;&gt;Node2 -->
<g id="edge21_Node000016_Node000002" class="edge">
<title>Node16&#45;&gt;Node2</title>
<g id="a_edge21_Node000016_Node000002"><a xlink:title=" ">
<path fill="none" stroke="#63b8ff" d="M648.35,-573.96C514.21,-569.94 184,-550.46 184,-456 184,-456 184,-456 184,-129.5 184,-75.94 244.63,-40.46 284.02,-23.06"/>
<polygon fill="#63b8ff" stroke="#63b8ff" points="285.69,-26.15 293.53,-19.02 282.96,-19.71 285.69,-26.15"/>
</a>
</g>
</g>
<!-- Node16&#45;&gt;Node13 -->
<g id="edge54_Node000016_Node000013" class="edge">
<title>Node16&#45;&gt;Node13</title>
<g id="a_edge54_Node000016_Node000013"><a xlink:title=" ">
<path fill="none" stroke="#63b8ff" d="M759.67,-563C762.82,-562.32 765.95,-561.65 769,-561 879.4,-537.45 1266,-568.88 1266,-456 1266,-456 1266,-456 1266,-129.5 1266,-83.45 1234.74,-76.47 1194,-55 1132.49,-22.58 1052.65,-12.88 997.15,-10.4"/>
<polygon fill="#63b8ff" stroke="#63b8ff" points="997.21,-6.9 987.08,-10.02 996.94,-13.9 997.21,-6.9"/>
</a>
</g>
</g>
<!-- Node17 -->
<g id="Node000017" class="node">
<title>Node17</title>
<g id="a_Node000017"><a xlink:href="event__vector__types_8h.html" target="_top" xlink:title="ODP event vector API type definitions.">
<polygon fill="white" stroke="#666666" points="900.5,-404 781.5,-404 781.5,-374 900.5,-374 900.5,-404"/>
<text text-anchor="start" x="789.5" y="-392" font-family="Helvetica,sans-Serif" font-size="10.00">odp/api/event_vector</text>
<text text-anchor="middle" x="841" y="-381" font-family="Helvetica,sans-Serif" font-size="10.00">_types.h</text>
</a>
</g>
</g>
<!-- Node16&#45;&gt;Node17 -->
<g id="edge22_Node000016_Node000017" class="edge">
<title>Node16&#45;&gt;Node17</title>
<g id="a_edge22_Node000016_Node000017"><a xlink:title=" ">
<path fill="none" stroke="#63b8ff" d="M725.96,-560.88C738.99,-551.75 755.21,-538.98 767,-525 796.31,-490.25 819.34,-442.07 831.5,-413.66"/>
<polygon fill="#63b8ff" stroke="#63b8ff" points="834.85,-414.72 835.48,-404.14 828.39,-412.02 834.85,-414.72"/>
</a>
</g>
</g>
<!-- Node24 -->
<g id="Node000024" class="node">
<title>Node24</title>
<g id="a_Node000024"><a xlink:href="queue__stats__types_8h.html" target="_top" xlink:title="ODP queue.">
<polygon fill="white" stroke="#666666" points="808.5,-272 693.5,-272 693.5,-242 808.5,-242 808.5,-272"/>
<text text-anchor="start" x="701.5" y="-260" font-family="Helvetica,sans-Serif" font-size="10.00">odp/api/queue_stats</text>
<text text-anchor="middle" x="751" y="-249" font-family="Helvetica,sans-Serif" font-size="10.00">_types.h</text>
</a>
</g>
</g>
<!-- Node16&#45;&gt;Node24 -->
<g id="edge39_Node000016_Node000024" class="edge">
<title>Node16&#45;&gt;Node24</title>
<g id="a_edge39_Node000016_Node000024"><a xlink:title=" ">
<path fill="none" stroke="#63b8ff" d="M714.15,-560.76C728.51,-539.18 753,-496.44 753,-456 753,-456 753,-456 753,-388 753,-351.07 752.18,-308.24 751.59,-282.14"/>
<polygon fill="#63b8ff" stroke="#63b8ff" points="755.09,-281.96 751.36,-272.04 748.09,-282.12 755.09,-281.96"/>
</a>
</g>
</g>
<!-- Node26 -->
<g id="Node000026" class="node">
<title>Node26</title>
<g id="a_Node000026"><a xlink:href="schedule__types_8h.html" target="_top" xlink:title="ODP schedule.">
<polygon fill="white" stroke="#666666" points="725,-525 585,-525 585,-506 725,-506 725,-525"/>
<text text-anchor="middle" x="655" y="-513" font-family="Helvetica,sans-Serif" font-size="10.00">odp/api/schedule_types.h</text>
</a>
</g>
</g>
<!-- Node16&#45;&gt;Node26 -->
<g id="edge40_Node000016_Node000026" class="edge">
<title>Node16&#45;&gt;Node26</title>
<g id="a_edge40_Node000016_Node000026"><a xlink:title=" ">
<path fill="none" stroke="#63b8ff" d="M692.14,-560.84C685.1,-552.43 676.14,-541.74 668.79,-532.96"/>
<polygon fill="#63b8ff" stroke="#63b8ff" points="671.45,-530.68 662.34,-525.27 666.08,-535.18 671.45,-530.68"/>
</a>
</g>
</g>
<!-- Node18 -->
<g id="Node000018" class="node">
<title>Node18</title>
<g id="a_Node000018"><a xlink:title=" ">
<polygon fill="#e0e0e0" stroke="#999999" points="1045.5,-338 908.5,-338 908.5,-308 1045.5,-308 1045.5,-338"/>
<text text-anchor="start" x="916.5" y="-326" font-family="Helvetica,sans-Serif" font-size="10.00">odp/api/abi/event_vector</text>
<text text-anchor="middle" x="977" y="-315" font-family="Helvetica,sans-Serif" font-size="10.00">_types.h</text>
</a>
</g>
</g>
<!-- Node17&#45;&gt;Node18 -->
<g id="edge23_Node000017_Node000018" class="edge">
<title>Node17&#45;&gt;Node18</title>
<g id="a_edge23_Node000017_Node000018"><a xlink:title=" ">
<path fill="none" stroke="#63b8ff" d="M870.85,-373.95C890.6,-364.66 916.7,-352.38 938.08,-342.32"/>
<polygon fill="#63b8ff" stroke="#63b8ff" points="939.67,-345.44 947.22,-338.01 936.69,-339.1 939.67,-345.44"/>
</a>
</g>
</g>
<!-- Node19 -->
<g id="Node000019" class="node">
<title>Node19</title>
<g id="a_Node000019"><a xlink:title=" ">
<polygon fill="#e0e0e0" stroke="#999999" points="1200,-332.5 1064,-332.5 1064,-313.5 1200,-313.5 1200,-332.5"/>
<text text-anchor="middle" x="1132" y="-320.5" font-family="Helvetica,sans-Serif" font-size="10.00">odp/api/abi/pool_types.h</text>
</a>
</g>
</g>
<!-- Node17&#45;&gt;Node19 -->
<g id="edge24_Node000017_Node000019" class="edge">
<title>Node17&#45;&gt;Node19</title>
<g id="a_edge24_Node000017_Node000019"><a xlink:title=" ">
<path fill="none" stroke="#63b8ff" d="M900.59,-374.89C954.42,-363.06 1032.68,-345.84 1082.96,-334.78"/>
<polygon fill="#63b8ff" stroke="#63b8ff" points="1083.93,-338.16 1092.94,-332.59 1082.42,-331.32 1083.93,-338.16"/>
</a>
</g>
</g>
<!-- Node20 -->
<g id="Node000020" class="node">
<title>Node20</title>
<g id="a_Node000020"><a xlink:href="spec_2event__vector__types_8h.html" target="_top" xlink:title="ODP event vector API type definitions.">
<polygon fill="white" stroke="#666666" points="890.5,-338 781.5,-338 781.5,-308 890.5,-308 890.5,-338"/>
<text text-anchor="start" x="789.5" y="-326" font-family="Helvetica,sans-Serif" font-size="10.00">odp/api/spec/event</text>
<text text-anchor="middle" x="836" y="-315" font-family="Helvetica,sans-Serif" font-size="10.00">_vector_types.h</text>
</a>
</g>
</g>
<!-- Node17&#45;&gt;Node20 -->
<g id="edge25_Node000017_Node000020" class="edge">
<title>Node17&#45;&gt;Node20</title>
<g id="a_edge25_Node000017_Node000020"><a xlink:title=" ">
<path fill="none" stroke="#63b8ff" d="M839.89,-373.8C839.31,-366.34 838.58,-356.99 837.91,-348.41"/>
<polygon fill="#63b8ff" stroke="#63b8ff" points="841.37,-347.86 837.11,-338.16 834.4,-348.41 841.37,-347.86"/>
</a>
</g>
</g>
<!-- Node20&#45;&gt;Node2 -->
<g id="edge26_Node000020_Node000002" class="edge">
<title>Node20&#45;&gt;Node2</title>
<g id="a_edge26_Node000020_Node000002"><a xlink:title=" ">
<path fill="none" stroke="#63b8ff" d="M837.27,-307.78C838.02,-289.67 836.28,-258.72 818,-242 728.68,-160.28 659.78,-252.49 548,-206 527.81,-197.6 527.13,-188.23 509,-176 442.77,-131.34 408.48,-143.43 354,-85 338.96,-68.87 328.69,-45.46 322.86,-29.21"/>
<polygon fill="#63b8ff" stroke="#63b8ff" points="326.03,-27.64 319.53,-19.27 319.39,-29.87 326.03,-27.64"/>
</a>
</g>
</g>
<!-- Node20&#45;&gt;Node6 -->
<g id="edge37_Node000020_Node000006" class="edge">
<title>Node20&#45;&gt;Node6</title>
<g id="a_edge37_Node000020_Node000006"><a xlink:title=" ">
<path fill="none" stroke="#63b8ff" d="M781.29,-312.76C711.2,-300.93 590.1,-280.48 517.38,-268.2"/>
<polygon fill="#63b8ff" stroke="#63b8ff" points="517.89,-264.73 507.45,-266.52 516.73,-271.64 517.89,-264.73"/>
</a>
</g>
</g>
<!-- Node20&#45;&gt;Node13 -->
<g id="edge38_Node000020_Node000013" class="edge">
<title>Node20&#45;&gt;Node13</title>
<g id="a_edge38_Node000020_Node000013"><a xlink:title=" ">
<path fill="none" stroke="#63b8ff" d="M881.99,-307.96C969.21,-280.67 1150,-220.65 1150,-192 1150,-192 1150,-192 1150,-129.5 1150,-95.33 1155.53,-78.79 1131,-55 1112.03,-36.6 1047.7,-24.57 997.06,-17.71"/>
<polygon fill="#63b8ff" stroke="#63b8ff" points="997.5,-14.24 987.13,-16.41 996.59,-21.18 997.5,-14.24"/>
</a>
</g>
</g>
<!-- Node21 -->
<g id="Node000021" class="node">
<title>Node21</title>
<g id="a_Node000021"><a xlink:href="event__types_8h.html" target="_top" xlink:title="ODP event API type definitions.">
<polygon fill="white" stroke="#666666" points="1103.5,-140 978.5,-140 978.5,-121 1103.5,-121 1103.5,-140"/>
<text text-anchor="middle" x="1041" y="-128" font-family="Helvetica,sans-Serif" font-size="10.00">odp/api/event_types.h</text>
</a>
</g>
</g>
<!-- Node20&#45;&gt;Node21 -->
<g id="edge27_Node000020_Node000021" class="edge">
<title>Node20&#45;&gt;Node21</title>
<g id="a_edge27_Node000020_Node000021"><a xlink:title=" ">
<path fill="none" stroke="#63b8ff" d="M851.07,-307.99C888.37,-273.34 984.76,-183.77 1024,-147.3"/>
<polygon fill="#63b8ff" stroke="#63b8ff" points="1026.52,-149.73 1031.46,-140.36 1021.76,-144.6 1026.52,-149.73"/>
</a>
</g>
</g>
<!-- Node20&#45;&gt;Node24 -->
<g id="edge32_Node000020_Node000024" class="edge">
<title>Node20&#45;&gt;Node24</title>
<g id="a_edge32_Node000020_Node000024"><a xlink:title=" ">
<path fill="none" stroke="#63b8ff" d="M817.14,-307.8C805.58,-299.1 790.61,-287.82 777.83,-278.2"/>
<polygon fill="#63b8ff" stroke="#63b8ff" points="779.91,-275.38 769.81,-272.16 775.69,-280.98 779.91,-275.38"/>
</a>
</g>
</g>
<!-- Node22 -->
<g id="Node000022" class="node">
<title>Node22</title>
<g id="a_Node000022"><a xlink:title=" ">
<polygon fill="#e0e0e0" stroke="#999999" points="1121.5,-79.5 978.5,-79.5 978.5,-60.5 1121.5,-60.5 1121.5,-79.5"/>
<text text-anchor="middle" x="1050" y="-67.5" font-family="Helvetica,sans-Serif" font-size="10.00">odp/api/abi/event_types.h</text>
</a>
</g>
</g>
<!-- Node21&#45;&gt;Node22 -->
<g id="edge28_Node000021_Node000022" class="edge">
<title>Node21&#45;&gt;Node22</title>
<g id="a_edge28_Node000021_Node000022"><a xlink:title=" ">
<path fill="none" stroke="#63b8ff" d="M1042.33,-120.87C1043.59,-112.66 1045.53,-100.04 1047.15,-89.55"/>
<polygon fill="#63b8ff" stroke="#63b8ff" points="1050.61,-90.08 1048.67,-79.67 1043.69,-89.02 1050.61,-90.08"/>
</a>
</g>
</g>
<!-- Node23 -->
<g id="Node000023" class="node">
<title>Node23</title>
<g id="a_Node000023"><a xlink:href="spec_2event__types_8h.html" target="_top" xlink:title="ODP event API type definitions.">
<polygon fill="white" stroke="#666666" points="883.5,-85 774.5,-85 774.5,-55 883.5,-55 883.5,-85"/>
<text text-anchor="start" x="782.5" y="-73" font-family="Helvetica,sans-Serif" font-size="10.00">odp/api/spec/event</text>
<text text-anchor="middle" x="829" y="-62" font-family="Helvetica,sans-Serif" font-size="10.00">_types.h</text>
</a>
</g>
</g>
<!-- Node21&#45;&gt;Node23 -->
<g id="edge29_Node000021_Node000023" class="edge">
<title>Node21&#45;&gt;Node23</title>
<g id="a_edge29_Node000021_Node000023"><a xlink:title=" ">
<path fill="none" stroke="#63b8ff" d="M1010.17,-120.99C978.73,-112.32 929.11,-98.62 889.74,-87.76"/>
<polygon fill="#63b8ff" stroke="#63b8ff" points="890.54,-84.35 879.97,-85.06 888.68,-91.1 890.54,-84.35"/>
</a>
</g>
</g>
<!-- Node23&#45;&gt;Node2 -->
<g id="edge30_Node000023_Node000002" class="edge">
<title>Node23&#45;&gt;Node2</title>
<g id="a_edge30_Node000023_Node000002"><a xlink:title=" ">
<path fill="none" stroke="#63b8ff" d="M774.48,-57.41C769.59,-56.53 764.71,-55.71 760,-55 629.32,-35.23 475.59,-22.02 387.89,-15.42"/>
<polygon fill="#63b8ff" stroke="#63b8ff" points="388.02,-11.92 377.79,-14.67 387.5,-18.9 388.02,-11.92"/>
</a>
</g>
</g>
<!-- Node23&#45;&gt;Node13 -->
<g id="edge31_Node000023_Node000013" class="edge">
<title>Node23&#45;&gt;Node13</title>
<g id="a_edge31_Node000023_Node000013"><a xlink:title=" ">
<path fill="none" stroke="#63b8ff" d="M853.43,-54.99C869.69,-45.66 890.95,-33.47 907.1,-24.21"/>
<polygon fill="#63b8ff" stroke="#63b8ff" points="909,-27.15 915.94,-19.14 905.52,-21.08 909,-27.15"/>
</a>
</g>
</g>
<!-- Node25 -->
<g id="Node000025" class="node">
<title>Node25</title>
<g id="a_Node000025"><a xlink:href="spec_2queue__stats__types_8h.html" target="_top" xlink:title="ODP queue statistics types.">
<polygon fill="white" stroke="#666666" points="861.5,-206 750.5,-206 750.5,-176 861.5,-176 861.5,-206"/>
<text text-anchor="start" x="758.5" y="-194" font-family="Helvetica,sans-Serif" font-size="10.00">odp/api/spec/queue</text>
<text text-anchor="middle" x="806" y="-183" font-family="Helvetica,sans-Serif" font-size="10.00">_stats_types.h</text>
</a>
</g>
</g>
<!-- Node24&#45;&gt;Node25 -->
<g id="edge33_Node000024_Node000025" class="edge">
<title>Node24&#45;&gt;Node25</title>
<g id="a_edge33_Node000024_Node000025"><a xlink:title=" ">
<path fill="none" stroke="#63b8ff" d="M763.21,-241.8C770.26,-233.59 779.27,-223.1 787.21,-213.87"/>
<polygon fill="#63b8ff" stroke="#63b8ff" points="789.96,-216.03 793.83,-206.16 784.66,-211.47 789.96,-216.03"/>
</a>
</g>
</g>
<!-- Node25&#45;&gt;Node2 -->
<g id="edge34_Node000025_Node000002" class="edge">
<title>Node25&#45;&gt;Node2</title>
<g id="a_edge34_Node000025_Node000002"><a xlink:title=" ">
<path fill="none" stroke="#63b8ff" d="M805.45,-175.74C804.16,-160.58 800.03,-136.67 787,-121 744.03,-69.35 715.34,-74.35 651,-55 562.68,-28.44 456.47,-17.72 387.9,-13.4"/>
<polygon fill="#63b8ff" stroke="#63b8ff" points="387.84,-9.89 377.64,-12.78 387.42,-16.87 387.84,-9.89"/>
</a>
</g>
</g>
<!-- Node25&#45;&gt;Node9 -->
<g id="edge35_Node000025_Node000009" class="edge">
<title>Node25&#45;&gt;Node9</title>
<g id="a_edge35_Node000025_Node000009"><a xlink:title=" ">
<path fill="none" stroke="#63b8ff" d="M792.69,-175.84C784.7,-167.35 774.52,-156.52 766.22,-147.69"/>
<polygon fill="#63b8ff" stroke="#63b8ff" points="768.64,-145.15 759.24,-140.27 763.54,-149.95 768.64,-145.15"/>
</a>
</g>
</g>
<!-- Node25&#45;&gt;Node13 -->
<g id="edge36_Node000025_Node000013" class="edge">
<title>Node25&#45;&gt;Node13</title>
<g id="a_edge36_Node000025_Node000013"><a xlink:title=" ">
<path fill="none" stroke="#63b8ff" d="M838.36,-175.95C855.66,-167.33 876.53,-155.06 892,-140 912.59,-119.96 917.22,-112.37 926,-85 931.87,-66.7 932.62,-44.62 932.21,-29.27"/>
<polygon fill="#63b8ff" stroke="#63b8ff" points="935.69,-28.84 931.73,-19.01 928.7,-29.17 935.69,-28.84"/>
</a>
</g>
</g>
<!-- Node27 -->
<g id="Node000027" class="node">
<title>Node27</title>
<g id="a_Node000027"><a xlink:title=" ">
<polygon fill="#e0e0e0" stroke="#999999" points="724.5,-470 607.5,-470 607.5,-440 724.5,-440 724.5,-470"/>
<text text-anchor="start" x="615.5" y="-458" font-family="Helvetica,sans-Serif" font-size="10.00">odp/api/abi/schedule</text>
<text text-anchor="middle" x="666" y="-447" font-family="Helvetica,sans-Serif" font-size="10.00">_types.h</text>
</a>
</g>
</g>
<!-- Node26&#45;&gt;Node27 -->
<g id="edge41_Node000026_Node000027" class="edge">
<title>Node26&#45;&gt;Node27</title>
<g id="a_edge41_Node000026_Node000027"><a xlink:title=" ">
<path fill="none" stroke="#63b8ff" d="M656.62,-505.87C657.91,-499.03 659.77,-489.14 661.49,-479.97"/>
<polygon fill="#63b8ff" stroke="#63b8ff" points="664.94,-480.59 663.35,-470.11 658.06,-479.3 664.94,-480.59"/>
</a>
</g>
</g>
<!-- Node28 -->
<g id="Node000028" class="node">
<title>Node28</title>
<g id="a_Node000028"><a xlink:href="spec_2schedule__types_8h.html" target="_top" xlink:title="ODP schedule types.">
<polygon fill="white" stroke="#666666" points="589.5,-470 464.5,-470 464.5,-440 589.5,-440 589.5,-470"/>
<text text-anchor="start" x="472.5" y="-458" font-family="Helvetica,sans-Serif" font-size="10.00">odp/api/spec/schedule</text>
<text text-anchor="middle" x="527" y="-447" font-family="Helvetica,sans-Serif" font-size="10.00">_types.h</text>
</a>
</g>
</g>
<!-- Node26&#45;&gt;Node28 -->
<g id="edge42_Node000026_Node000028" class="edge">
<title>Node26&#45;&gt;Node28</title>
<g id="a_edge42_Node000026_Node000028"><a xlink:title=" ">
<path fill="none" stroke="#63b8ff" d="M636.39,-505.99C618.35,-497.75 590.4,-484.98 567.27,-474.4"/>
<polygon fill="#63b8ff" stroke="#63b8ff" points="568.57,-471.15 558.02,-470.18 565.66,-477.52 568.57,-471.15"/>
</a>
</g>
</g>
<!-- Node28&#45;&gt;Node2 -->
<g id="edge43_Node000028_Node000002" class="edge">
<title>Node28&#45;&gt;Node2</title>
<g id="a_edge43_Node000028_Node000002"><a xlink:title=" ">
<path fill="none" stroke="#63b8ff" d="M464.17,-453.91C374.89,-450.09 222,-428.33 222,-324 222,-324 222,-324 222,-129.5 222,-83.22 266.42,-44.59 294.51,-24.79"/>
<polygon fill="#63b8ff" stroke="#63b8ff" points="296.68,-27.55 302.98,-19.03 292.74,-21.76 296.68,-27.55"/>
</a>
</g>
</g>
<!-- Node28&#45;&gt;Node6 -->
<g id="edge46_Node000028_Node000006" class="edge">
<title>Node28&#45;&gt;Node6</title>
<g id="a_edge46_Node000028_Node000006"><a xlink:title=" ">
<path fill="none" stroke="#63b8ff" d="M502.56,-439.97C472.75,-421.21 424.1,-384.82 406,-338 401.19,-325.56 400.84,-320.29 406,-308 411.97,-293.79 424.17,-281.59 435.14,-272.8"/>
<polygon fill="#63b8ff" stroke="#63b8ff" points="437.27,-275.57 443.16,-266.76 433.07,-269.98 437.27,-275.57"/>
</a>
</g>
</g>
<!-- Node28&#45;&gt;Node13 -->
<g id="edge53_Node000028_Node000013" class="edge">
<title>Node28&#45;&gt;Node13</title>
<g id="a_edge53_Node000028_Node000013"><a xlink:title=" ">
<path fill="none" stroke="#63b8ff" d="M589.78,-441.5C592.89,-440.97 595.98,-440.47 599,-440 739.46,-418.25 1228,-466.13 1228,-324 1228,-324 1228,-324 1228,-129.5 1228,-82.52 1194.46,-77.11 1153,-55 1104.79,-29.29 1043.49,-18.38 997.53,-13.78"/>
<polygon fill="#63b8ff" stroke="#63b8ff" points="997.65,-10.28 987.37,-12.84 997.01,-17.25 997.65,-10.28"/>
</a>
</g>
</g>
<!-- Node28&#45;&gt;Node17 -->
<g id="edge44_Node000028_Node000017" class="edge">
<title>Node28&#45;&gt;Node17</title>
<g id="a_edge44_Node000028_Node000017"><a xlink:title=" ">
<path fill="none" stroke="#63b8ff" d="M589.79,-441.2C642.27,-430.51 717.04,-415.27 771.36,-404.2"/>
<polygon fill="#63b8ff" stroke="#63b8ff" points="772.15,-407.61 781.25,-402.18 770.75,-400.75 772.15,-407.61"/>
</a>
</g>
</g>
<!-- Node28&#45;&gt;Node24 -->
<g id="edge45_Node000028_Node000024" class="edge">
<title>Node28&#45;&gt;Node24</title>
<g id="a_edge45_Node000028_Node000024"><a xlink:title=" ">
<path fill="none" stroke="#63b8ff" d="M553.52,-439.9C588.79,-420.28 651.82,-382.15 696,-338 713.1,-320.91 728.31,-297.86 738.37,-280.89"/>
<polygon fill="#63b8ff" stroke="#63b8ff" points="741.44,-282.57 743.41,-272.16 735.38,-279.07 741.44,-282.57"/>
</a>
</g>
</g>
<!-- Node29 -->
<g id="Node000029" class="node">
<title>Node29</title>
<g id="a_Node000029"><a xlink:href="thrmask_8h.html" target="_top" xlink:title="ODP thread masks.">
<polygon fill="white" stroke="#666666" points="579.5,-398.5 474.5,-398.5 474.5,-379.5 579.5,-379.5 579.5,-398.5"/>
<text text-anchor="middle" x="527" y="-386.5" font-family="Helvetica,sans-Serif" font-size="10.00">odp/api/thrmask.h</text>
</a>
</g>
</g>
<!-- Node28&#45;&gt;Node29 -->
<g id="edge47_Node000028_Node000029" class="edge">
<title>Node28&#45;&gt;Node29</title>
<g id="a_edge47_Node000028_Node000029"><a xlink:title=" ">
<path fill="none" stroke="#63b8ff" d="M527,-439.8C527,-430.7 527,-418.79 527,-408.9"/>
<polygon fill="#63b8ff" stroke="#63b8ff" points="530.5,-408.84 527,-398.84 523.5,-408.84 530.5,-408.84"/>
</a>
</g>
</g>
<!-- Node30 -->
<g id="Node000030" class="node">
<title>Node30</title>
<g id="a_Node000030"><a xlink:title=" ">
<polygon fill="#e0e0e0" stroke="#999999" points="686.5,-332.5 563.5,-332.5 563.5,-313.5 686.5,-313.5 686.5,-332.5"/>
<text text-anchor="middle" x="625" y="-320.5" font-family="Helvetica,sans-Serif" font-size="10.00">odp/api/abi/thrmask.h</text>
</a>
</g>
</g>
<!-- Node29&#45;&gt;Node30 -->
<g id="edge48_Node000029_Node000030" class="edge">
<title>Node29&#45;&gt;Node30</title>
<g id="a_edge48_Node000029_Node000030"><a xlink:title=" ">
<path fill="none" stroke="#63b8ff" d="M540.22,-379.37C556.36,-368.82 583.91,-350.84 603.21,-338.23"/>
<polygon fill="#63b8ff" stroke="#63b8ff" points="605.22,-341.1 611.68,-332.7 601.39,-335.24 605.22,-341.1"/>
</a>
</g>
</g>
<!-- Node31 -->
<g id="Node000031" class="node">
<title>Node31</title>
<g id="a_Node000031"><a xlink:href="spec_2thrmask_8h.html" target="_top" xlink:title="ODP thread masks.">
<polygon fill="white" stroke="#666666" points="545.5,-332.5 414.5,-332.5 414.5,-313.5 545.5,-313.5 545.5,-332.5"/>
<text text-anchor="middle" x="480" y="-320.5" font-family="Helvetica,sans-Serif" font-size="10.00">odp/api/spec/thrmask.h</text>
</a>
</g>
</g>
<!-- Node29&#45;&gt;Node31 -->
<g id="edge49_Node000029_Node000031" class="edge">
<title>Node29&#45;&gt;Node31</title>
<g id="a_edge49_Node000029_Node000031"><a xlink:title=" ">
<path fill="none" stroke="#63b8ff" d="M520.66,-379.37C513.48,-369.59 501.61,-353.42 492.54,-341.08"/>
<polygon fill="#63b8ff" stroke="#63b8ff" points="495.28,-338.89 486.54,-332.91 489.64,-343.04 495.28,-338.89"/>
</a>
</g>
</g>
<!-- Node31&#45;&gt;Node2 -->
<g id="edge50_Node000031_Node000002" class="edge">
<title>Node31&#45;&gt;Node2</title>
<g id="a_edge50_Node000031_Node000002"><a xlink:title=" ">
<path fill="none" stroke="#63b8ff" d="M457.44,-313.43C438.14,-305.19 410.61,-291.16 392,-272 345.73,-224.37 339.27,-204.12 322,-140 311.7,-101.76 313.2,-54.87 315.14,-29.32"/>
<polygon fill="#63b8ff" stroke="#63b8ff" points="318.65,-29.45 316.03,-19.18 311.67,-28.84 318.65,-29.45"/>
</a>
</g>
</g>
<!-- Node31&#45;&gt;Node6 -->
<g id="edge51_Node000031_Node000006" class="edge">
<title>Node31&#45;&gt;Node6</title>
<g id="a_edge51_Node000031_Node000006"><a xlink:title=" ">
<path fill="none" stroke="#63b8ff" d="M476.9,-313.37C473.52,-303.97 468.02,-288.67 463.66,-276.53"/>
<polygon fill="#63b8ff" stroke="#63b8ff" points="466.88,-275.13 460.2,-266.91 460.29,-277.5 466.88,-275.13"/>
</a>
</g>
</g>
<!-- Node31&#45;&gt;Node13 -->
<g id="edge52_Node000031_Node000013" class="edge">
<title>Node31&#45;&gt;Node13</title>
<g id="a_edge52_Node000031_Node000013"><a xlink:title=" ">
<path fill="none" stroke="#63b8ff" d="M499.12,-313.45C538.48,-295.55 630.88,-251.99 703,-206 721.44,-194.24 723.94,-188.33 742,-176 806.71,-131.82 839.59,-142.33 893,-85 908.26,-68.62 918.93,-44.94 924.99,-28.7"/>
<polygon fill="#63b8ff" stroke="#63b8ff" points="928.3,-29.84 928.32,-19.25 921.7,-27.52 928.3,-29.84"/>
</a>
</g>
</g>
</g>
</svg>
