<?xml version="1.0" encoding="UTF-8" standalone="no"?>
<!DOCTYPE svg PUBLIC "-//W3C//DTD SVG 1.1//EN"
 "http://www.w3.org/Graphics/SVG/1.1/DTD/svg11.dtd">
<!-- Generated by graphviz version 2.43.0 (0)
 -->
<!-- Title: pool_types.h Pages: 1 -->
<svg width="1318pt" height="522pt"
 viewBox="0.00 0.00 1318.00 522.00" xmlns="http://www.w3.org/2000/svg" xmlns:xlink="http://www.w3.org/1999/xlink">
<g id="graph0" class="graph" transform="scale(1 1) rotate(0) translate(4 518)">
<title>pool_types.h</title>
<!-- Node1 -->
<g id="Node000001" class="node">
<title>Node1</title>
<g id="a_Node000001"><a xlink:title="Type definitions for pools.">
<polygon fill="#999999" stroke="#666666" points="349,-514 270,-514 270,-495 349,-495 349,-514"/>
<text text-anchor="middle" x="309.5" y="-502" font-family="Helvetica,sans-Serif" font-size="10.00">pool_types.h</text>
</a>
</g>
</g>
<!-- Node2 -->
<g id="Node000002" class="node">
<title>Node2</title>
<g id="a_Node000002"><a xlink:href="pool__types_8h.html" target="_top" xlink:title="ODP pool.">
<polygon fill="white" stroke="#666666" points="633,-459 554,-459 554,-440 633,-440 633,-459"/>
<text text-anchor="middle" x="593.5" y="-447" font-family="Helvetica,sans-Serif" font-size="10.00">pool_types.h</text>
</a>
</g>
</g>
<!-- Node1&#45;&gt;Node2 -->
<g id="edge1_Node000001_Node000002" class="edge">
<title>Node1&#45;&gt;Node2</title>
<g id="a_edge1_Node000001_Node000002"><a xlink:title=" ">
<path fill="none" stroke="#63b8ff" d="M359.23,-494.22C414.64,-483.88 503.1,-467.37 553.98,-457.87"/>
<polygon fill="#63b8ff" stroke="#63b8ff" points="358.48,-490.8 349.29,-496.07 359.76,-497.68 358.48,-490.8"/>
</a>
</g>
</g>
<!-- Node3 -->
<g id="Node000003" class="node">
<title>Node3</title>
<g id="a_Node000003"><a xlink:href="spec_2buffer_8h.html" target="_top" xlink:title="ODP buffer.">
<polygon fill="white" stroke="#666666" points="279,-404 226,-404 226,-385 279,-385 279,-404"/>
<text text-anchor="middle" x="252.5" y="-392" font-family="Helvetica,sans-Serif" font-size="10.00">buffer.h</text>
</a>
</g>
</g>
<!-- Node2&#45;&gt;Node3 -->
<g id="edge2_Node000002_Node000003" class="edge">
<title>Node2&#45;&gt;Node3</title>
<g id="a_edge2_Node000002_Node000003"><a xlink:title=" ">
<path fill="none" stroke="#63b8ff" d="M543.81,-440.78C470.65,-429.41 336.44,-408.55 279.35,-399.67"/>
<polygon fill="#63b8ff" stroke="#63b8ff" points="543.3,-444.24 553.72,-442.32 544.37,-437.32 543.3,-444.24"/>
</a>
</g>
</g>
<!-- Node5 -->
<g id="Node000005" class="node">
<title>Node5</title>
<g id="a_Node000005"><a xlink:href="dma__inlines_8h_source.html" target="_top" xlink:title=" ">
<polygon fill="white" stroke="#666666" points="158,-294 73,-294 73,-275 158,-275 158,-294"/>
<text text-anchor="middle" x="115.5" y="-282" font-family="Helvetica,sans-Serif" font-size="10.00">dma_inlines.h</text>
</a>
</g>
</g>
<!-- Node2&#45;&gt;Node5 -->
<g id="edge24_Node000002_Node000005" class="edge">
<title>Node2&#45;&gt;Node5</title>
<g id="a_edge24_Node000002_Node000005"><a xlink:title=" ">
<path fill="none" stroke="#63b8ff" d="M543.58,-447.09C454.43,-443.84 271.98,-433.68 216.5,-404 167.4,-377.73 131.92,-317.01 119.93,-294.29"/>
<polygon fill="#63b8ff" stroke="#63b8ff" points="543.6,-450.59 553.71,-447.44 543.84,-443.6 543.6,-450.59"/>
</a>
</g>
</g>
<!-- Node6 -->
<g id="Node000006" class="node">
<title>Node6</title>
<g id="a_Node000006"><a xlink:href="buffer__inlines_8h_source.html" target="_top" xlink:title=" ">
<polygon fill="white" stroke="#666666" points="667.5,-294 575.5,-294 575.5,-275 667.5,-275 667.5,-294"/>
<text text-anchor="middle" x="621.5" y="-282" font-family="Helvetica,sans-Serif" font-size="10.00">buffer_inlines.h</text>
</a>
</g>
</g>
<!-- Node2&#45;&gt;Node6 -->
<g id="edge5_Node000002_Node000006" class="edge">
<title>Node2&#45;&gt;Node6</title>
<g id="a_edge5_Node000002_Node000006"><a xlink:title=" ">
<path fill="none" stroke="#63b8ff" d="M589.36,-429.71C587.82,-421.81 586.26,-412.5 585.5,-404 581.7,-361.38 605.56,-313.42 616.38,-294.17"/>
<polygon fill="#63b8ff" stroke="#63b8ff" points="585.97,-430.62 591.44,-439.7 592.82,-429.19 585.97,-430.62"/>
</a>
</g>
</g>
<!-- Node7 -->
<g id="Node000007" class="node">
<title>Node7</title>
<g id="a_Node000007"><a xlink:href="spec_2classification_8h.html" target="_top" xlink:title="ODP classification descriptor.">
<polygon fill="white" stroke="#666666" points="304,-294 215,-294 215,-275 304,-275 304,-294"/>
<text text-anchor="middle" x="259.5" y="-282" font-family="Helvetica,sans-Serif" font-size="10.00">classification.h</text>
</a>
</g>
</g>
<!-- Node2&#45;&gt;Node7 -->
<g id="edge6_Node000002_Node000007" class="edge">
<title>Node2&#45;&gt;Node7</title>
<g id="a_edge6_Node000002_Node000007"><a xlink:title=" ">
<path fill="none" stroke="#63b8ff" d="M543.48,-442.61C490.62,-435.54 411.61,-422.3 387.5,-404 357.89,-381.52 375.07,-356.01 348.5,-330 331.09,-312.96 305.86,-301.19 286.71,-294.06"/>
<polygon fill="#63b8ff" stroke="#63b8ff" points="543.31,-446.11 553.68,-443.94 544.22,-439.17 543.31,-446.11"/>
</a>
</g>
</g>
<!-- Node16 -->
<g id="Node000016" class="node">
<title>Node16</title>
<g id="a_Node000016"><a xlink:href="spec_2crypto__types_8h.html" target="_top" xlink:title="ODP crypto types.">
<polygon fill="white" stroke="#666666" points="340,-349 251,-349 251,-330 340,-330 340,-349"/>
<text text-anchor="middle" x="295.5" y="-337" font-family="Helvetica,sans-Serif" font-size="10.00">crypto_types.h</text>
</a>
</g>
</g>
<!-- Node2&#45;&gt;Node16 -->
<g id="edge15_Node000002_Node000016" class="edge">
<title>Node2&#45;&gt;Node16</title>
<g id="a_edge15_Node000002_Node000016"><a xlink:title=" ">
<path fill="none" stroke="#63b8ff" d="M543.7,-448.2C493.13,-445.91 414,-436.75 354.5,-404 329.98,-390.5 309.94,-363.1 300.82,-349.12"/>
<polygon fill="#63b8ff" stroke="#63b8ff" points="543.61,-451.69 553.73,-448.58 543.87,-444.7 543.61,-451.69"/>
</a>
</g>
</g>
<!-- Node21 -->
<g id="Node000021" class="node">
<title>Node21</title>
<g id="a_Node000021"><a xlink:href="spec_2dma_8h.html" target="_top" xlink:title="ODP DMA.">
<polygon fill="white" stroke="#666666" points="47,-294 0,-294 0,-275 47,-275 47,-294"/>
<text text-anchor="middle" x="23.5" y="-282" font-family="Helvetica,sans-Serif" font-size="10.00">dma.h</text>
</a>
</g>
</g>
<!-- Node2&#45;&gt;Node21 -->
<g id="edge22_Node000002_Node000021" class="edge">
<title>Node2&#45;&gt;Node21</title>
<g id="a_edge22_Node000002_Node000021"><a xlink:title=" ">
<path fill="none" stroke="#63b8ff" d="M543.67,-446.65C421.23,-441.77 112.65,-427.29 72.5,-404 32.64,-380.87 25.2,-317.67 23.82,-294.32"/>
<polygon fill="#63b8ff" stroke="#63b8ff" points="543.76,-450.16 553.89,-447.05 544.04,-443.16 543.76,-450.16"/>
</a>
</g>
</g>
<!-- Node23 -->
<g id="Node000023" class="node">
<title>Node23</title>
<g id="a_Node000023"><a xlink:href="spec_2dma__types_8h.html" target="_top" xlink:title="ODP DMA.">
<polygon fill="white" stroke="#666666" points="161.5,-404 81.5,-404 81.5,-385 161.5,-385 161.5,-404"/>
<text text-anchor="middle" x="121.5" y="-392" font-family="Helvetica,sans-Serif" font-size="10.00">dma_types.h</text>
</a>
</g>
</g>
<!-- Node2&#45;&gt;Node23 -->
<g id="edge25_Node000002_Node000023" class="edge">
<title>Node2&#45;&gt;Node23</title>
<g id="a_edge25_Node000002_Node000023"><a xlink:title=" ">
<path fill="none" stroke="#63b8ff" d="M543.87,-444.03C465.49,-436.78 308.28,-421.51 175.5,-404 170.98,-403.4 166.26,-402.73 161.57,-402.04"/>
<polygon fill="#63b8ff" stroke="#63b8ff" points="543.67,-447.52 553.94,-444.95 544.31,-440.55 543.67,-447.52"/>
</a>
</g>
</g>
<!-- Node25 -->
<g id="Node000025" class="node">
<title>Node25</title>
<g id="a_Node000025"><a xlink:href="spec_2event_8h.html" target="_top" xlink:title="ODP event.">
<polygon fill="white" stroke="#666666" points="648,-404 595,-404 595,-385 648,-385 648,-404"/>
<text text-anchor="middle" x="621.5" y="-392" font-family="Helvetica,sans-Serif" font-size="10.00">event.h</text>
</a>
</g>
</g>
<!-- Node2&#45;&gt;Node25 -->
<g id="edge30_Node000002_Node000025" class="edge">
<title>Node2&#45;&gt;Node25</title>
<g id="a_edge30_Node000002_Node000025"><a xlink:title=" ">
<path fill="none" stroke="#63b8ff" d="M602.84,-430.82C607.59,-421.82 613.16,-411.29 616.96,-404.09"/>
<polygon fill="#63b8ff" stroke="#63b8ff" points="599.7,-429.27 598.12,-439.75 605.89,-432.54 599.7,-429.27"/>
</a>
</g>
</g>
<!-- Node27 -->
<g id="Node000027" class="node">
<title>Node27</title>
<g id="a_Node000027"><a xlink:href="event__vector__inlines_8h.html" target="_top" xlink:title="Event vector inline functions.">
<polygon fill="white" stroke="#666666" points="996,-294 869,-294 869,-275 996,-275 996,-294"/>
<text text-anchor="middle" x="932.5" y="-282" font-family="Helvetica,sans-Serif" font-size="10.00">event_vector_inlines.h</text>
</a>
</g>
</g>
<!-- Node2&#45;&gt;Node27 -->
<g id="edge42_Node000002_Node000027" class="edge">
<title>Node2&#45;&gt;Node27</title>
<g id="a_edge42_Node000002_Node000027"><a xlink:title=" ">
<path fill="none" stroke="#63b8ff" d="M615.01,-434.32C635.42,-421.06 667.12,-400.95 695.5,-385 742.8,-358.41 754.54,-351.18 804.5,-330 838.29,-315.68 878.43,-302.28 904.63,-294.01"/>
<polygon fill="#63b8ff" stroke="#63b8ff" points="612.94,-431.5 606.48,-439.9 616.76,-437.36 612.94,-431.5"/>
</a>
</g>
</g>
<!-- Node28 -->
<g id="Node000028" class="node">
<title>Node28</title>
<g id="a_Node000028"><a xlink:href="packet__inlines_8h.html" target="_top" xlink:title="Packet inline functions.">
<polygon fill="white" stroke="#666666" points="1144,-294 1049,-294 1049,-275 1144,-275 1144,-294"/>
<text text-anchor="middle" x="1096.5" y="-282" font-family="Helvetica,sans-Serif" font-size="10.00">packet_inlines.h</text>
</a>
</g>
</g>
<!-- Node2&#45;&gt;Node28 -->
<g id="edge49_Node000002_Node000028" class="edge">
<title>Node2&#45;&gt;Node28</title>
<g id="a_edge49_Node000002_Node000028"><a xlink:title=" ">
<path fill="none" stroke="#63b8ff" d="M643.38,-448.67C782.58,-448.64 1167.54,-444.82 1205.5,-404 1227.9,-379.92 1223.84,-357.3 1205.5,-330 1191.76,-309.56 1166.81,-298.5 1144.24,-292.52"/>
<polygon fill="#63b8ff" stroke="#63b8ff" points="643.02,-445.17 633.02,-448.67 643.01,-452.17 643.02,-445.17"/>
</a>
</g>
</g>
<!-- Node29 -->
<g id="Node000029" class="node">
<title>Node29</title>
<g id="a_Node000029"><a xlink:href="packet__vector__inlines_8h.html" target="_top" xlink:title="Packet vector inline functions.">
<polygon fill="white" stroke="#666666" points="1310,-294 1179,-294 1179,-275 1310,-275 1310,-294"/>
<text text-anchor="middle" x="1244.5" y="-282" font-family="Helvetica,sans-Serif" font-size="10.00">packet_vector_inlines.h</text>
</a>
</g>
</g>
<!-- Node2&#45;&gt;Node29 -->
<g id="edge59_Node000002_Node000029" class="edge">
<title>Node2&#45;&gt;Node29</title>
<g id="a_edge59_Node000002_Node000029"><a xlink:title=" ">
<path fill="none" stroke="#63b8ff" d="M643.27,-448.48C784.93,-447.95 1182.9,-442.98 1225.5,-404 1257.01,-375.17 1250.24,-316.52 1246.29,-294.3"/>
<polygon fill="#63b8ff" stroke="#63b8ff" points="643.11,-444.98 633.12,-448.51 643.13,-451.98 643.11,-444.98"/>
</a>
</g>
</g>
<!-- Node31 -->
<g id="Node000031" class="node">
<title>Node31</title>
<g id="a_Node000031"><a xlink:href="event__inlines_8h_source.html" target="_top" xlink:title=" ">
<polygon fill="white" stroke="#666666" points="796,-404 705,-404 705,-385 796,-385 796,-404"/>
<text text-anchor="middle" x="750.5" y="-392" font-family="Helvetica,sans-Serif" font-size="10.00">event_inlines.h</text>
</a>
</g>
</g>
<!-- Node2&#45;&gt;Node31 -->
<g id="edge39_Node000002_Node000031" class="edge">
<title>Node2&#45;&gt;Node31</title>
<g id="a_edge39_Node000002_Node000031"><a xlink:title=" ">
<path fill="none" stroke="#63b8ff" d="M628.55,-436.67C657.82,-426.79 698.87,-412.93 725.08,-404.08"/>
<polygon fill="#63b8ff" stroke="#63b8ff" points="627.08,-433.47 618.72,-439.98 629.32,-440.1 627.08,-433.47"/>
</a>
</g>
</g>
<!-- Node32 -->
<g id="Node000032" class="node">
<title>Node32</title>
<g id="a_Node000032"><a xlink:href="spec_2event__vector_8h.html" target="_top" xlink:title="ODP event vector.">
<polygon fill="white" stroke="#666666" points="903,-404 814,-404 814,-385 903,-385 903,-404"/>
<text text-anchor="middle" x="858.5" y="-392" font-family="Helvetica,sans-Serif" font-size="10.00">event_vector.h</text>
</a>
</g>
</g>
<!-- Node2&#45;&gt;Node32 -->
<g id="edge40_Node000002_Node000032" class="edge">
<title>Node2&#45;&gt;Node32</title>
<g id="a_edge40_Node000002_Node000032"><a xlink:title=" ">
<path fill="none" stroke="#63b8ff" d="M643.07,-438.59C692.86,-428.63 768.77,-413.45 815.92,-404.02"/>
<polygon fill="#63b8ff" stroke="#63b8ff" points="642.29,-435.17 633.17,-440.57 643.67,-442.04 642.29,-435.17"/>
</a>
</g>
</g>
<!-- Node34 -->
<g id="Node000034" class="node">
<title>Node34</title>
<g id="a_Node000034"><a xlink:href="spec_2ml_8h.html" target="_top" xlink:title="ODP Machine Learning (ML) offload.">
<polygon fill="white" stroke="#666666" points="959.5,-404 921.5,-404 921.5,-385 959.5,-385 959.5,-404"/>
<text text-anchor="middle" x="940.5" y="-392" font-family="Helvetica,sans-Serif" font-size="10.00">ml.h</text>
</a>
</g>
</g>
<!-- Node2&#45;&gt;Node34 -->
<g id="edge43_Node000002_Node000034" class="edge">
<title>Node2&#45;&gt;Node34</title>
<g id="a_edge43_Node000002_Node000034"><a xlink:title=" ">
<path fill="none" stroke="#63b8ff" d="M643.29,-443.81C706.22,-437.36 817.67,-424.2 911.5,-404 914.68,-403.32 918.02,-402.46 921.26,-401.57"/>
<polygon fill="#63b8ff" stroke="#63b8ff" points="642.84,-440.34 633.24,-444.82 643.54,-447.3 642.84,-440.34"/>
</a>
</g>
</g>
<!-- Node36 -->
<g id="Node000036" class="node">
<title>Node36</title>
<g id="a_Node000036"><a xlink:href="spec_2packet_8h.html" target="_top" xlink:title="ODP packet descriptor.">
<polygon fill="white" stroke="#666666" points="557.5,-294 499.5,-294 499.5,-275 557.5,-275 557.5,-294"/>
<text text-anchor="middle" x="528.5" y="-282" font-family="Helvetica,sans-Serif" font-size="10.00">packet.h</text>
</a>
</g>
</g>
<!-- Node2&#45;&gt;Node36 -->
<g id="edge45_Node000002_Node000036" class="edge">
<title>Node2&#45;&gt;Node36</title>
<g id="a_edge45_Node000002_Node000036"><a xlink:title=" ">
<path fill="none" stroke="#63b8ff" d="M586.24,-430.28C572.29,-395.32 542.26,-320.01 532.01,-294.31"/>
<polygon fill="#63b8ff" stroke="#63b8ff" points="583.05,-431.74 590.01,-439.74 589.55,-429.15 583.05,-431.74"/>
</a>
</g>
</g>
<!-- Node38 -->
<g id="Node000038" class="node">
<title>Node38</title>
<g id="a_Node000038"><a xlink:href="spec_2packet__io__types_8h.html" target="_top" xlink:title="ODP Packet IO types.">
<polygon fill="white" stroke="#666666" points="500.5,-404 396.5,-404 396.5,-385 500.5,-385 500.5,-404"/>
<text text-anchor="middle" x="448.5" y="-392" font-family="Helvetica,sans-Serif" font-size="10.00">packet_io_types.h</text>
</a>
</g>
</g>
<!-- Node2&#45;&gt;Node38 -->
<g id="edge50_Node000002_Node000038" class="edge">
<title>Node2&#45;&gt;Node38</title>
<g id="a_edge50_Node000002_Node000038"><a xlink:title=" ">
<path fill="none" stroke="#63b8ff" d="M560.81,-436.55C533.88,-426.71 496.34,-412.98 472.22,-404.17"/>
<polygon fill="#63b8ff" stroke="#63b8ff" points="559.61,-439.84 570.2,-439.98 562.01,-433.26 559.61,-439.84"/>
</a>
</g>
</g>
<!-- Node42 -->
<g id="Node000042" class="node">
<title>Node42</title>
<g id="a_Node000042"><a xlink:href="spec_2pool_8h.html" target="_top" xlink:title="ODP pool.">
<polygon fill="white" stroke="#666666" points="1025,-404 978,-404 978,-385 1025,-385 1025,-404"/>
<text text-anchor="middle" x="1001.5" y="-392" font-family="Helvetica,sans-Serif" font-size="10.00">pool.h</text>
</a>
</g>
</g>
<!-- Node2&#45;&gt;Node42 -->
<g id="edge60_Node000002_Node000042" class="edge">
<title>Node2&#45;&gt;Node42</title>
<g id="a_edge60_Node000002_Node000042"><a xlink:title=" ">
<path fill="none" stroke="#63b8ff" d="M643.34,-444.73C715.48,-438.78 853.03,-425.62 968.5,-404 971.52,-403.43 974.68,-402.75 977.79,-402.01"/>
<polygon fill="#63b8ff" stroke="#63b8ff" points="642.86,-441.25 633.18,-445.55 643.43,-448.23 642.86,-441.25"/>
</a>
</g>
</g>
<!-- Node44 -->
<g id="Node000044" class="node">
<title>Node44</title>
<g id="a_Node000044"><a xlink:href="pool__inlines_8h_source.html" target="_top" xlink:title=" ">
<polygon fill="white" stroke="#666666" points="1127.5,-404 1043.5,-404 1043.5,-385 1127.5,-385 1127.5,-404"/>
<text text-anchor="middle" x="1085.5" y="-392" font-family="Helvetica,sans-Serif" font-size="10.00">pool_inlines.h</text>
</a>
</g>
</g>
<!-- Node2&#45;&gt;Node44 -->
<g id="edge62_Node000002_Node000044" class="edge">
<title>Node2&#45;&gt;Node44</title>
<g id="a_edge62_Node000002_Node000044"><a xlink:title=" ">
<path fill="none" stroke="#63b8ff" d="M643.02,-444.49C724.59,-437.65 892.26,-422.67 1033.5,-404 1036.67,-403.58 1039.95,-403.12 1043.25,-402.63"/>
<polygon fill="#63b8ff" stroke="#63b8ff" points="642.71,-441 633.04,-445.32 643.29,-447.98 642.71,-441"/>
</a>
</g>
</g>
<!-- Node45 -->
<g id="Node000045" class="node">
<title>Node45</title>
<g id="a_Node000045"><a xlink:href="spec_2timer_8h.html" target="_top" xlink:title="ODP timer service.">
<polygon fill="white" stroke="#666666" points="1196,-404 1145,-404 1145,-385 1196,-385 1196,-404"/>
<text text-anchor="middle" x="1170.5" y="-392" font-family="Helvetica,sans-Serif" font-size="10.00">timer.h</text>
</a>
</g>
</g>
<!-- Node2&#45;&gt;Node45 -->
<g id="edge63_Node000002_Node000045" class="edge">
<title>Node2&#45;&gt;Node45</title>
<g id="a_edge63_Node000002_Node000045"><a xlink:title=" ">
<path fill="none" stroke="#63b8ff" d="M643.29,-447.13C739.29,-443.9 956.41,-433.69 1136.5,-404 1139.26,-403.54 1142.13,-402.98 1144.97,-402.36"/>
<polygon fill="#63b8ff" stroke="#63b8ff" points="643.17,-443.64 633.29,-447.46 643.4,-450.63 643.17,-443.64"/>
</a>
</g>
</g>
<!-- Node4 -->
<g id="Node000004" class="node">
<title>Node4</title>
<g id="a_Node000004"><a xlink:href="buffer_8h.html" target="_top" xlink:title="ODP buffer descriptor.">
<polygon fill="white" stroke="#666666" points="233,-349 180,-349 180,-330 233,-330 233,-349"/>
<text text-anchor="middle" x="206.5" y="-337" font-family="Helvetica,sans-Serif" font-size="10.00">buffer.h</text>
</a>
</g>
</g>
<!-- Node3&#45;&gt;Node4 -->
<g id="edge3_Node000003_Node000004" class="edge">
<title>Node3&#45;&gt;Node4</title>
<g id="a_edge3_Node000003_Node000004"><a xlink:title=" ">
<path fill="none" stroke="#63b8ff" d="M238.14,-376.96C230.13,-367.72 220.47,-356.6 213.95,-349.09"/>
<polygon fill="#63b8ff" stroke="#63b8ff" points="235.71,-379.49 244.9,-384.75 240.99,-374.9 235.71,-379.49"/>
</a>
</g>
</g>
<!-- Node4&#45;&gt;Node5 -->
<g id="edge4_Node000004_Node000005" class="edge">
<title>Node4&#45;&gt;Node5</title>
<g id="a_edge4_Node000004_Node000005"><a xlink:title=" ">
<path fill="none" stroke="#63b8ff" d="M182.8,-324.7C166.22,-315.04 144.59,-302.44 130.39,-294.17"/>
<polygon fill="#63b8ff" stroke="#63b8ff" points="181.48,-327.98 191.88,-329.98 185,-321.93 181.48,-327.98"/>
</a>
</g>
</g>
<!-- Node8 -->
<g id="Node000008" class="node">
<title>Node8</title>
<g id="a_Node000008"><a xlink:href="classification_8h.html" target="_top" xlink:title="ODP classification descriptor.">
<polygon fill="white" stroke="#666666" points="515,-239 426,-239 426,-220 515,-220 515,-239"/>
<text text-anchor="middle" x="470.5" y="-227" font-family="Helvetica,sans-Serif" font-size="10.00">classification.h</text>
</a>
</g>
</g>
<!-- Node7&#45;&gt;Node8 -->
<g id="edge7_Node000007_Node000008" class="edge">
<title>Node7&#45;&gt;Node8</title>
<g id="a_edge7_Node000007_Node000008"><a xlink:title=" ">
<path fill="none" stroke="#63b8ff" d="M303.29,-272.5C342.8,-262.58 400.12,-248.18 436.33,-239.08"/>
<polygon fill="#63b8ff" stroke="#63b8ff" points="302.25,-269.15 293.4,-274.98 303.95,-275.94 302.25,-269.15"/>
</a>
</g>
</g>
<!-- Node9 -->
<g id="Node000009" class="node">
<title>Node9</title>
<g id="a_Node000009"><a xlink:href="spec_2ipsec__types_8h.html" target="_top" xlink:title="ODP IPsec API type definitions.">
<polygon fill="white" stroke="#666666" points="424,-184 341,-184 341,-165 424,-165 424,-184"/>
<text text-anchor="middle" x="382.5" y="-172" font-family="Helvetica,sans-Serif" font-size="10.00">ipsec_types.h</text>
</a>
</g>
</g>
<!-- Node8&#45;&gt;Node9 -->
<g id="edge8_Node000008_Node000009" class="edge">
<title>Node8&#45;&gt;Node9</title>
<g id="a_edge8_Node000008_Node000009"><a xlink:title=" ">
<path fill="none" stroke="#63b8ff" d="M447.58,-214.7C431.55,-205.04 410.63,-192.44 396.9,-184.17"/>
<polygon fill="#63b8ff" stroke="#63b8ff" points="445.99,-217.82 456.36,-219.98 449.6,-211.83 445.99,-217.82"/>
</a>
</g>
</g>
<!-- Node14 -->
<g id="Node000014" class="node">
<title>Node14</title>
<g id="a_Node000014"><a xlink:href="spec_2packet__io_8h.html" target="_top" xlink:title="ODP Packet IO.">
<polygon fill="white" stroke="#666666" points="517.5,-184 445.5,-184 445.5,-165 517.5,-165 517.5,-184"/>
<text text-anchor="middle" x="481.5" y="-172" font-family="Helvetica,sans-Serif" font-size="10.00">packet_io.h</text>
</a>
</g>
</g>
<!-- Node8&#45;&gt;Node14 -->
<g id="edge13_Node000008_Node000014" class="edge">
<title>Node8&#45;&gt;Node14</title>
<g id="a_edge13_Node000008_Node000014"><a xlink:title=" ">
<path fill="none" stroke="#63b8ff" d="M474.35,-209.95C476.18,-201.15 478.27,-191.06 479.72,-184.09"/>
<polygon fill="#63b8ff" stroke="#63b8ff" points="470.92,-209.25 472.32,-219.75 477.78,-210.67 470.92,-209.25"/>
</a>
</g>
</g>
<!-- Node10 -->
<g id="Node000010" class="node">
<title>Node10</title>
<g id="a_Node000010"><a xlink:href="ipsec__types_8h.html" target="_top" xlink:title="ODP IPsec.">
<polygon fill="white" stroke="#666666" points="424,-129 341,-129 341,-110 424,-110 424,-129"/>
<text text-anchor="middle" x="382.5" y="-117" font-family="Helvetica,sans-Serif" font-size="10.00">ipsec_types.h</text>
</a>
</g>
</g>
<!-- Node9&#45;&gt;Node10 -->
<g id="edge9_Node000009_Node000010" class="edge">
<title>Node9&#45;&gt;Node10</title>
<g id="a_edge9_Node000009_Node000010"><a xlink:title=" ">
<path fill="none" stroke="#63b8ff" d="M382.5,-154.66C382.5,-145.93 382.5,-135.99 382.5,-129.09"/>
<polygon fill="#63b8ff" stroke="#63b8ff" points="379,-154.75 382.5,-164.75 386,-154.75 379,-154.75"/>
</a>
</g>
</g>
<!-- Node11 -->
<g id="Node000011" class="node">
<title>Node11</title>
<g id="a_Node000011"><a xlink:href="spec_2ipsec_8h.html" target="_top" xlink:title="ODP IPsec API.">
<polygon fill="white" stroke="#666666" points="334,-74 283,-74 283,-55 334,-55 334,-74"/>
<text text-anchor="middle" x="308.5" y="-62" font-family="Helvetica,sans-Serif" font-size="10.00">ipsec.h</text>
</a>
</g>
</g>
<!-- Node10&#45;&gt;Node11 -->
<g id="edge10_Node000010_Node000011" class="edge">
<title>Node10&#45;&gt;Node11</title>
<g id="a_edge10_Node000010_Node000011"><a xlink:title=" ">
<path fill="none" stroke="#63b8ff" d="M362.47,-104.15C349.09,-94.57 331.94,-82.29 320.61,-74.17"/>
<polygon fill="#63b8ff" stroke="#63b8ff" points="360.44,-107.01 370.61,-109.98 364.52,-101.32 360.44,-107.01"/>
</a>
</g>
</g>
<!-- Node13 -->
<g id="Node000013" class="node">
<title>Node13</title>
<g id="a_Node000013"><a xlink:href="ipsec__inlines_8h_source.html" target="_top" xlink:title=" ">
<polygon fill="white" stroke="#666666" points="708,-74 619,-74 619,-55 708,-55 708,-74"/>
<text text-anchor="middle" x="663.5" y="-62" font-family="Helvetica,sans-Serif" font-size="10.00">ipsec_inlines.h</text>
</a>
</g>
</g>
<!-- Node10&#45;&gt;Node13 -->
<g id="edge12_Node000010_Node000013" class="edge">
<title>Node10&#45;&gt;Node13</title>
<g id="a_edge12_Node000010_Node000013"><a xlink:title=" ">
<path fill="none" stroke="#63b8ff" d="M434.12,-108.76C487.02,-98.79 568.45,-83.43 618.71,-73.95"/>
<polygon fill="#63b8ff" stroke="#63b8ff" points="433.44,-105.33 424.27,-110.62 434.74,-112.21 433.44,-105.33"/>
</a>
</g>
</g>
<!-- Node12 -->
<g id="Node000012" class="node">
<title>Node12</title>
<g id="a_Node000012"><a xlink:href="ipsec_8h.html" target="_top" xlink:title="ODP IPSEC API &#45; platform specific header.">
<polygon fill="white" stroke="#666666" points="334,-19 283,-19 283,0 334,0 334,-19"/>
<text text-anchor="middle" x="308.5" y="-7" font-family="Helvetica,sans-Serif" font-size="10.00">ipsec.h</text>
</a>
</g>
</g>
<!-- Node11&#45;&gt;Node12 -->
<g id="edge11_Node000011_Node000012" class="edge">
<title>Node11&#45;&gt;Node12</title>
<g id="a_edge11_Node000011_Node000012"><a xlink:title=" ">
<path fill="none" stroke="#63b8ff" d="M308.5,-44.66C308.5,-35.93 308.5,-25.99 308.5,-19.09"/>
<polygon fill="#63b8ff" stroke="#63b8ff" points="305,-44.75 308.5,-54.75 312,-44.75 305,-44.75"/>
</a>
</g>
</g>
<!-- Node15 -->
<g id="Node000015" class="node">
<title>Node15</title>
<g id="a_Node000015"><a xlink:href="packet__io_8h.html" target="_top" xlink:title="ODP Packet IO.">
<polygon fill="white" stroke="#666666" points="517.5,-129 445.5,-129 445.5,-110 517.5,-110 517.5,-129"/>
<text text-anchor="middle" x="481.5" y="-117" font-family="Helvetica,sans-Serif" font-size="10.00">packet_io.h</text>
</a>
</g>
</g>
<!-- Node14&#45;&gt;Node15 -->
<g id="edge14_Node000014_Node000015" class="edge">
<title>Node14&#45;&gt;Node15</title>
<g id="a_edge14_Node000014_Node000015"><a xlink:title=" ">
<path fill="none" stroke="#63b8ff" d="M481.5,-154.66C481.5,-145.93 481.5,-135.99 481.5,-129.09"/>
<polygon fill="#63b8ff" stroke="#63b8ff" points="478,-154.75 481.5,-164.75 485,-154.75 478,-154.75"/>
</a>
</g>
</g>
<!-- Node17 -->
<g id="Node000017" class="node">
<title>Node17</title>
<g id="a_Node000017"><a xlink:href="crypto__types_8h.html" target="_top" xlink:title="ODP crypto.">
<polygon fill="white" stroke="#666666" points="268,-239 179,-239 179,-220 268,-220 268,-239"/>
<text text-anchor="middle" x="223.5" y="-227" font-family="Helvetica,sans-Serif" font-size="10.00">crypto_types.h</text>
</a>
</g>
</g>
<!-- Node16&#45;&gt;Node17 -->
<g id="edge16_Node000016_Node000017" class="edge">
<title>Node16&#45;&gt;Node17</title>
<g id="a_edge16_Node000016_Node000017"><a xlink:title=" ">
<path fill="none" stroke="#63b8ff" d="M247.95,-326.29C231.6,-319.56 215.03,-309.35 205.5,-294 194.62,-276.48 207.94,-252.2 216.81,-239.33"/>
<polygon fill="#63b8ff" stroke="#63b8ff" points="246.89,-329.63 257.49,-329.85 249.35,-323.07 246.89,-329.63"/>
</a>
</g>
</g>
<!-- Node17&#45;&gt;Node9 -->
<g id="edge21_Node000017_Node000009" class="edge">
<title>Node17&#45;&gt;Node9</title>
<g id="a_edge21_Node000017_Node000009"><a xlink:title=" ">
<path fill="none" stroke="#63b8ff" d="M258.6,-216.8C288.28,-206.91 330.1,-192.97 356.75,-184.08"/>
<polygon fill="#63b8ff" stroke="#63b8ff" points="257.43,-213.5 249.05,-219.98 259.64,-220.14 257.43,-213.5"/>
</a>
</g>
</g>
<!-- Node17&#45;&gt;Node11 -->
<g id="edge20_Node000017_Node000011" class="edge">
<title>Node17&#45;&gt;Node11</title>
<g id="a_edge20_Node000017_Node000011"><a xlink:title=" ">
<path fill="none" stroke="#63b8ff" d="M222.11,-209.75C221.2,-184.95 222.85,-140.77 242.5,-110 253.14,-93.34 272.48,-81.41 287.49,-74.12"/>
<polygon fill="#63b8ff" stroke="#63b8ff" points="218.63,-210.16 222.68,-219.95 225.62,-209.77 218.63,-210.16"/>
</a>
</g>
</g>
<!-- Node18 -->
<g id="Node000018" class="node">
<title>Node18</title>
<g id="a_Node000018"><a xlink:href="spec_2crypto_8h.html" target="_top" xlink:title="ODP crypto.">
<polygon fill="white" stroke="#666666" points="307.5,-184 251.5,-184 251.5,-165 307.5,-165 307.5,-184"/>
<text text-anchor="middle" x="279.5" y="-172" font-family="Helvetica,sans-Serif" font-size="10.00">crypto.h</text>
</a>
</g>
</g>
<!-- Node17&#45;&gt;Node18 -->
<g id="edge17_Node000017_Node000018" class="edge">
<title>Node17&#45;&gt;Node18</title>
<g id="a_edge17_Node000017_Node000018"><a xlink:title=" ">
<path fill="none" stroke="#63b8ff" d="M239.83,-213.04C249.76,-203.64 262.09,-191.98 270.34,-184.17"/>
<polygon fill="#63b8ff" stroke="#63b8ff" points="237.35,-210.57 232.5,-219.98 242.17,-215.65 237.35,-210.57"/>
</a>
</g>
</g>
<!-- Node20 -->
<g id="Node000020" class="node">
<title>Node20</title>
<g id="a_Node000020"><a xlink:href="crypto__inlines_8h_source.html" target="_top" xlink:title=" ">
<polygon fill="white" stroke="#666666" points="635.5,-184 541.5,-184 541.5,-165 635.5,-165 635.5,-184"/>
<text text-anchor="middle" x="588.5" y="-172" font-family="Helvetica,sans-Serif" font-size="10.00">crypto_inlines.h</text>
</a>
</g>
</g>
<!-- Node17&#45;&gt;Node20 -->
<g id="edge19_Node000017_Node000020" class="edge">
<title>Node17&#45;&gt;Node20</title>
<g id="a_edge19_Node000017_Node000020"><a xlink:title=" ">
<path fill="none" stroke="#63b8ff" d="M277.94,-219.8C377.39,-204.8 482.27,-190.12 541.42,-181.96"/>
<polygon fill="#63b8ff" stroke="#63b8ff" points="277.39,-216.35 268.02,-221.3 278.44,-223.27 277.39,-216.35"/>
</a>
</g>
</g>
<!-- Node19 -->
<g id="Node000019" class="node">
<title>Node19</title>
<g id="a_Node000019"><a xlink:href="crypto_8h.html" target="_top" xlink:title="ODP crypto.">
<polygon fill="white" stroke="#666666" points="307.5,-129 251.5,-129 251.5,-110 307.5,-110 307.5,-129"/>
<text text-anchor="middle" x="279.5" y="-117" font-family="Helvetica,sans-Serif" font-size="10.00">crypto.h</text>
</a>
</g>
</g>
<!-- Node18&#45;&gt;Node19 -->
<g id="edge18_Node000018_Node000019" class="edge">
<title>Node18&#45;&gt;Node19</title>
<g id="a_edge18_Node000018_Node000019"><a xlink:title=" ">
<path fill="none" stroke="#63b8ff" d="M279.5,-154.66C279.5,-145.93 279.5,-135.99 279.5,-129.09"/>
<polygon fill="#63b8ff" stroke="#63b8ff" points="276,-154.75 279.5,-164.75 283,-154.75 276,-154.75"/>
</a>
</g>
</g>
<!-- Node22 -->
<g id="Node000022" class="node">
<title>Node22</title>
<g id="a_Node000022"><a xlink:href="dma_8h.html" target="_top" xlink:title="ODP DMA.">
<polygon fill="white" stroke="#666666" points="47,-239 0,-239 0,-220 47,-220 47,-239"/>
<text text-anchor="middle" x="23.5" y="-227" font-family="Helvetica,sans-Serif" font-size="10.00">dma.h</text>
</a>
</g>
</g>
<!-- Node21&#45;&gt;Node22 -->
<g id="edge23_Node000021_Node000022" class="edge">
<title>Node21&#45;&gt;Node22</title>
<g id="a_edge23_Node000021_Node000022"><a xlink:title=" ">
<path fill="none" stroke="#63b8ff" d="M23.5,-264.66C23.5,-255.93 23.5,-245.99 23.5,-239.09"/>
<polygon fill="#63b8ff" stroke="#63b8ff" points="20,-264.75 23.5,-274.75 27,-264.75 20,-264.75"/>
</a>
</g>
</g>
<!-- Node24 -->
<g id="Node000024" class="node">
<title>Node24</title>
<g id="a_Node000024"><a xlink:href="dma__types_8h.html" target="_top" xlink:title="ODP DMA.">
<polygon fill="white" stroke="#666666" points="123.5,-349 43.5,-349 43.5,-330 123.5,-330 123.5,-349"/>
<text text-anchor="middle" x="83.5" y="-337" font-family="Helvetica,sans-Serif" font-size="10.00">dma_types.h</text>
</a>
</g>
</g>
<!-- Node23&#45;&gt;Node24 -->
<g id="edge26_Node000023_Node000024" class="edge">
<title>Node23&#45;&gt;Node24</title>
<g id="a_edge26_Node000023_Node000024"><a xlink:title=" ">
<path fill="none" stroke="#63b8ff" d="M109.23,-376.39C102.69,-367.27 94.93,-356.45 89.66,-349.09"/>
<polygon fill="#63b8ff" stroke="#63b8ff" points="106.55,-378.66 115.23,-384.75 112.24,-374.58 106.55,-378.66"/>
</a>
</g>
</g>
<!-- Node24&#45;&gt;Node1 -->
<g id="edge29_Node000024_Node000001" class="edge">
<title>Node24&#45;&gt;Node1</title>
<g id="a_edge29_Node000024_Node000001"><a xlink:title=" ">
<path fill="none" stroke="#63b8ff" d="M74.03,-358.33C68.24,-371.9 63.52,-390.49 72.5,-404 116.6,-470.34 214.42,-492.54 269.61,-499.9"/>
<polygon fill="#63b8ff" stroke="#63b8ff" points="77.29,-359.63 78.45,-349.1 70.97,-356.61 77.29,-359.63"/>
</a>
</g>
</g>
<!-- Node24&#45;&gt;Node5 -->
<g id="edge28_Node000024_Node000005" class="edge">
<title>Node24&#45;&gt;Node5</title>
<g id="a_edge28_Node000024_Node000005"><a xlink:title=" ">
<path fill="none" stroke="#63b8ff" d="M94,-321.1C99.47,-312.04 105.92,-301.37 110.31,-294.09"/>
<polygon fill="#63b8ff" stroke="#63b8ff" points="90.96,-319.38 88.78,-329.75 96.95,-323 90.96,-319.38"/>
</a>
</g>
</g>
<!-- Node24&#45;&gt;Node21 -->
<g id="edge27_Node000024_Node000021" class="edge">
<title>Node24&#45;&gt;Node21</title>
<g id="a_edge27_Node000024_Node000021"><a xlink:title=" ">
<path fill="none" stroke="#63b8ff" d="M66.32,-323.32C55.62,-313.87 42.24,-302.06 33.32,-294.17"/>
<polygon fill="#63b8ff" stroke="#63b8ff" points="64.05,-325.99 73.86,-329.98 68.68,-320.74 64.05,-325.99"/>
</a>
</g>
</g>
<!-- Node26 -->
<g id="Node000026" class="node">
<title>Node26</title>
<g id="a_Node000026"><a xlink:href="event_8h.html" target="_top" xlink:title="ODP event.">
<polygon fill="white" stroke="#666666" points="722,-349 669,-349 669,-330 722,-330 722,-349"/>
<text text-anchor="middle" x="695.5" y="-337" font-family="Helvetica,sans-Serif" font-size="10.00">event.h</text>
</a>
</g>
</g>
<!-- Node25&#45;&gt;Node26 -->
<g id="edge31_Node000025_Node000026" class="edge">
<title>Node25&#45;&gt;Node26</title>
<g id="a_edge31_Node000025_Node000026"><a xlink:title=" ">
<path fill="none" stroke="#63b8ff" d="M641.53,-379.15C654.91,-369.57 672.06,-357.29 683.39,-349.17"/>
<polygon fill="#63b8ff" stroke="#63b8ff" points="639.48,-376.32 633.39,-384.98 643.56,-382.01 639.48,-376.32"/>
</a>
</g>
</g>
<!-- Node26&#45;&gt;Node6 -->
<g id="edge32_Node000026_Node000006" class="edge">
<title>Node26&#45;&gt;Node6</title>
<g id="a_edge32_Node000026_Node000006"><a xlink:title=" ">
<path fill="none" stroke="#63b8ff" d="M675.47,-324.15C662.09,-314.57 644.94,-302.29 633.61,-294.17"/>
<polygon fill="#63b8ff" stroke="#63b8ff" points="673.44,-327.01 683.61,-329.98 677.52,-321.32 673.44,-327.01"/>
</a>
</g>
</g>
<!-- Node26&#45;&gt;Node13 -->
<g id="edge35_Node000026_Node000013" class="edge">
<title>Node26&#45;&gt;Node13</title>
<g id="a_edge35_Node000026_Node000013"><a xlink:title=" ">
<path fill="none" stroke="#63b8ff" d="M705.8,-320.99C717.05,-300.16 733.5,-263.98 733.5,-230.5 733.5,-230.5 733.5,-230.5 733.5,-173.5 733.5,-130.38 693.71,-90.89 674.13,-74.07"/>
<polygon fill="#63b8ff" stroke="#63b8ff" points="702.63,-319.47 700.78,-329.9 708.74,-322.9 702.63,-319.47"/>
</a>
</g>
</g>
<!-- Node26&#45;&gt;Node20 -->
<g id="edge33_Node000026_Node000020" class="edge">
<title>Node26&#45;&gt;Node20</title>
<g id="a_edge33_Node000026_Node000020"><a xlink:title=" ">
<path fill="none" stroke="#63b8ff" d="M691.57,-319.93C688.45,-306.96 683.43,-289.44 676.5,-275 663.64,-248.22 658.18,-242.26 638.5,-220 626.34,-206.25 610.14,-192.52 599.52,-184.02"/>
<polygon fill="#63b8ff" stroke="#63b8ff" points="688.23,-320.99 693.84,-329.97 695.05,-319.44 688.23,-320.99"/>
</a>
</g>
</g>
<!-- Node26&#45;&gt;Node27 -->
<g id="edge34_Node000026_Node000027" class="edge">
<title>Node26&#45;&gt;Node27</title>
<g id="a_edge34_Node000026_Node000027"><a xlink:title=" ">
<path fill="none" stroke="#63b8ff" d="M732.2,-330.29C776.17,-320.46 849.47,-304.07 894.15,-294.08"/>
<polygon fill="#63b8ff" stroke="#63b8ff" points="731.22,-326.93 722.23,-332.52 732.75,-333.76 731.22,-326.93"/>
</a>
</g>
</g>
<!-- Node26&#45;&gt;Node28 -->
<g id="edge36_Node000026_Node000028" class="edge">
<title>Node26&#45;&gt;Node28</title>
<g id="a_edge36_Node000026_Node000028"><a xlink:title=" ">
<path fill="none" stroke="#63b8ff" d="M732.2,-333.65C805.08,-324.02 967.98,-302.49 1048.94,-291.79"/>
<polygon fill="#63b8ff" stroke="#63b8ff" points="731.58,-330.2 722.12,-334.98 732.49,-337.14 731.58,-330.2"/>
</a>
</g>
</g>
<!-- Node26&#45;&gt;Node29 -->
<g id="edge37_Node000026_Node000029" class="edge">
<title>Node26&#45;&gt;Node29</title>
<g id="a_edge37_Node000026_Node000029"><a xlink:title=" ">
<path fill="none" stroke="#63b8ff" d="M732.53,-334.92C824.2,-326.08 1062.65,-303.06 1178.89,-291.83"/>
<polygon fill="#63b8ff" stroke="#63b8ff" points="731.97,-331.46 722.35,-335.91 732.64,-338.43 731.97,-331.46"/>
</a>
</g>
</g>
<!-- Node30 -->
<g id="Node000030" class="node">
<title>Node30</title>
<g id="a_Node000030"><a xlink:href="timer__inlines_8h_source.html" target="_top" xlink:title=" ">
<polygon fill="white" stroke="#666666" points="851,-294 762,-294 762,-275 851,-275 851,-294"/>
<text text-anchor="middle" x="806.5" y="-282" font-family="Helvetica,sans-Serif" font-size="10.00">timer_inlines.h</text>
</a>
</g>
</g>
<!-- Node26&#45;&gt;Node30 -->
<g id="edge38_Node000026_Node000030" class="edge">
<title>Node26&#45;&gt;Node30</title>
<g id="a_edge38_Node000026_Node000030"><a xlink:title=" ">
<path fill="none" stroke="#63b8ff" d="M722.45,-325.63C742.89,-315.87 770.45,-302.71 788.34,-294.17"/>
<polygon fill="#63b8ff" stroke="#63b8ff" points="720.85,-322.52 713.33,-329.98 723.87,-328.83 720.85,-322.52"/>
</a>
</g>
</g>
<!-- Node33 -->
<g id="Node000033" class="node">
<title>Node33</title>
<g id="a_Node000033"><a xlink:href="event__vector_8h.html" target="_top" xlink:title="ODP event vector.">
<polygon fill="white" stroke="#666666" points="903,-349 814,-349 814,-330 903,-330 903,-349"/>
<text text-anchor="middle" x="858.5" y="-337" font-family="Helvetica,sans-Serif" font-size="10.00">event_vector.h</text>
</a>
</g>
</g>
<!-- Node32&#45;&gt;Node33 -->
<g id="edge41_Node000032_Node000033" class="edge">
<title>Node32&#45;&gt;Node33</title>
<g id="a_edge41_Node000032_Node000033"><a xlink:title=" ">
<path fill="none" stroke="#63b8ff" d="M858.5,-374.66C858.5,-365.93 858.5,-355.99 858.5,-349.09"/>
<polygon fill="#63b8ff" stroke="#63b8ff" points="855,-374.75 858.5,-384.75 862,-374.75 855,-374.75"/>
</a>
</g>
</g>
<!-- Node35 -->
<g id="Node000035" class="node">
<title>Node35</title>
<g id="a_Node000035"><a xlink:href="ml_8h.html" target="_top" xlink:title="ODP Machine Learning (ML) offload.">
<polygon fill="white" stroke="#666666" points="959.5,-349 921.5,-349 921.5,-330 959.5,-330 959.5,-349"/>
<text text-anchor="middle" x="940.5" y="-337" font-family="Helvetica,sans-Serif" font-size="10.00">ml.h</text>
</a>
</g>
</g>
<!-- Node34&#45;&gt;Node35 -->
<g id="edge44_Node000034_Node000035" class="edge">
<title>Node34&#45;&gt;Node35</title>
<g id="a_edge44_Node000034_Node000035"><a xlink:title=" ">
<path fill="none" stroke="#63b8ff" d="M940.5,-374.66C940.5,-365.93 940.5,-355.99 940.5,-349.09"/>
<polygon fill="#63b8ff" stroke="#63b8ff" points="937,-374.75 940.5,-384.75 944,-374.75 937,-374.75"/>
</a>
</g>
</g>
<!-- Node37 -->
<g id="Node000037" class="node">
<title>Node37</title>
<g id="a_Node000037"><a xlink:href="packet_8h.html" target="_top" xlink:title="ODP packet descriptor.">
<polygon fill="white" stroke="#666666" points="629.5,-239 571.5,-239 571.5,-220 629.5,-220 629.5,-239"/>
<text text-anchor="middle" x="600.5" y="-227" font-family="Helvetica,sans-Serif" font-size="10.00">packet.h</text>
</a>
</g>
</g>
<!-- Node36&#45;&gt;Node37 -->
<g id="edge46_Node000036_Node000037" class="edge">
<title>Node36&#45;&gt;Node37</title>
<g id="a_edge46_Node000036_Node000037"><a xlink:title=" ">
<path fill="none" stroke="#63b8ff" d="M548.37,-268.88C561.32,-259.34 577.8,-247.21 588.72,-239.17"/>
<polygon fill="#63b8ff" stroke="#63b8ff" points="546.05,-266.24 540.07,-274.98 550.2,-271.88 546.05,-266.24"/>
</a>
</g>
</g>
<!-- Node37&#45;&gt;Node13 -->
<g id="edge48_Node000037_Node000013" class="edge">
<title>Node37&#45;&gt;Node13</title>
<g id="a_edge48_Node000037_Node000013"><a xlink:title=" ">
<path fill="none" stroke="#63b8ff" d="M620.39,-213.29C629.17,-205.5 638.78,-195.28 644.5,-184 663.54,-146.46 664.36,-94.38 663.86,-74.08"/>
<polygon fill="#63b8ff" stroke="#63b8ff" points="618.11,-210.63 612.69,-219.73 622.6,-216 618.11,-210.63"/>
</a>
</g>
</g>
<!-- Node37&#45;&gt;Node20 -->
<g id="edge47_Node000037_Node000020" class="edge">
<title>Node37&#45;&gt;Node20</title>
<g id="a_edge47_Node000037_Node000020"><a xlink:title=" ">
<path fill="none" stroke="#63b8ff" d="M596.3,-209.95C594.31,-201.15 592.02,-191.06 590.44,-184.09"/>
<polygon fill="#63b8ff" stroke="#63b8ff" points="592.9,-210.77 598.52,-219.75 599.72,-209.22 592.9,-210.77"/>
</a>
</g>
</g>
<!-- Node39 -->
<g id="Node000039" class="node">
<title>Node39</title>
<g id="a_Node000039"><a xlink:href="packet__io__types_8h.html" target="_top" xlink:title="ODP Packet IO.">
<polygon fill="white" stroke="#666666" points="500.5,-349 396.5,-349 396.5,-330 500.5,-330 500.5,-349"/>
<text text-anchor="middle" x="448.5" y="-337" font-family="Helvetica,sans-Serif" font-size="10.00">packet_io_types.h</text>
</a>
</g>
</g>
<!-- Node38&#45;&gt;Node39 -->
<g id="edge51_Node000038_Node000039" class="edge">
<title>Node38&#45;&gt;Node39</title>
<g id="a_edge51_Node000038_Node000039"><a xlink:title=" ">
<path fill="none" stroke="#63b8ff" d="M448.5,-374.66C448.5,-365.93 448.5,-355.99 448.5,-349.09"/>
<polygon fill="#63b8ff" stroke="#63b8ff" points="445,-374.75 448.5,-384.75 452,-374.75 445,-374.75"/>
</a>
</g>
</g>
<!-- Node39&#45;&gt;Node7 -->
<g id="edge52_Node000039_Node000007" class="edge">
<title>Node39&#45;&gt;Node7</title>
<g id="a_edge52_Node000039_Node000007"><a xlink:title=" ">
<path fill="none" stroke="#63b8ff" d="M408.15,-327.18C372.8,-317.27 322.2,-303.08 290.1,-294.08"/>
<polygon fill="#63b8ff" stroke="#63b8ff" points="407.56,-330.65 418.13,-329.98 409.45,-323.91 407.56,-330.65"/>
</a>
</g>
</g>
<!-- Node39&#45;&gt;Node9 -->
<g id="edge53_Node000039_Node000009" class="edge">
<title>Node39&#45;&gt;Node9</title>
<g id="a_edge53_Node000039_Node000009"><a xlink:title=" ">
<path fill="none" stroke="#63b8ff" d="M441.12,-320.28C426.97,-285.32 396.47,-210.01 386.07,-184.31"/>
<polygon fill="#63b8ff" stroke="#63b8ff" points="437.95,-321.78 444.95,-329.74 444.44,-319.15 437.95,-321.78"/>
</a>
</g>
</g>
<!-- Node39&#45;&gt;Node14 -->
<g id="edge55_Node000039_Node000014" class="edge">
<title>Node39&#45;&gt;Node14</title>
<g id="a_edge55_Node000039_Node000014"><a xlink:title=" ">
<path fill="none" stroke="#63b8ff" d="M458.95,-321.13C467.05,-308.07 478.83,-289.94 490.5,-275 503.86,-257.9 515.63,-259.23 523.5,-239 531.89,-217.44 509.18,-195.68 493.97,-184.07"/>
<polygon fill="#63b8ff" stroke="#63b8ff" points="455.76,-319.63 453.53,-329.99 461.74,-323.28 455.76,-319.63"/>
</a>
</g>
</g>
<!-- Node39&#45;&gt;Node36 -->
<g id="edge54_Node000039_Node000036" class="edge">
<title>Node39&#45;&gt;Node36</title>
<g id="a_edge54_Node000039_Node000036"><a xlink:title=" ">
<path fill="none" stroke="#63b8ff" d="M469.75,-324.42C484.26,-314.81 503.04,-302.37 515.41,-294.17"/>
<polygon fill="#63b8ff" stroke="#63b8ff" points="467.76,-321.54 461.35,-329.98 471.62,-327.38 467.76,-321.54"/>
</a>
</g>
</g>
<!-- Node40 -->
<g id="Node000040" class="node">
<title>Node40</title>
<g id="a_Node000040"><a xlink:href="spec_2traffic__mngr_8h.html" target="_top" xlink:title=" ">
<polygon fill="white" stroke="#666666" points="405.5,-294 321.5,-294 321.5,-275 405.5,-275 405.5,-294"/>
<text text-anchor="middle" x="363.5" y="-282" font-family="Helvetica,sans-Serif" font-size="10.00">traffic_mngr.h</text>
</a>
</g>
</g>
<!-- Node39&#45;&gt;Node40 -->
<g id="edge56_Node000039_Node000040" class="edge">
<title>Node39&#45;&gt;Node40</title>
<g id="a_edge56_Node000039_Node000040"><a xlink:title=" ">
<path fill="none" stroke="#63b8ff" d="M425.93,-324.42C410.5,-314.81 390.55,-302.37 377.41,-294.17"/>
<polygon fill="#63b8ff" stroke="#63b8ff" points="424.51,-327.66 434.84,-329.98 428.21,-321.72 424.51,-327.66"/>
</a>
</g>
</g>
<!-- Node41 -->
<g id="Node000041" class="node">
<title>Node41</title>
<g id="a_Node000041"><a xlink:href="traffic__mngr_8h.html" target="_top" xlink:title="ODP Traffic manager.">
<polygon fill="white" stroke="#666666" points="369.5,-239 285.5,-239 285.5,-220 369.5,-220 369.5,-239"/>
<text text-anchor="middle" x="327.5" y="-227" font-family="Helvetica,sans-Serif" font-size="10.00">traffic_mngr.h</text>
</a>
</g>
</g>
<!-- Node40&#45;&gt;Node41 -->
<g id="edge57_Node000040_Node000041" class="edge">
<title>Node40&#45;&gt;Node41</title>
<g id="a_edge57_Node000040_Node000041"><a xlink:title=" ">
<path fill="none" stroke="#63b8ff" d="M351.88,-266.39C345.68,-257.27 338.33,-246.45 333.33,-239.09"/>
<polygon fill="#63b8ff" stroke="#63b8ff" points="349.04,-268.44 357.56,-274.75 354.83,-264.51 349.04,-268.44"/>
</a>
</g>
</g>
<!-- Node41&#45;&gt;Node9 -->
<g id="edge58_Node000041_Node000009" class="edge">
<title>Node41&#45;&gt;Node9</title>
<g id="a_edge58_Node000041_Node000009"><a xlink:title=" ">
<path fill="none" stroke="#63b8ff" d="M343.79,-212.8C353.54,-203.41 365.55,-191.83 373.59,-184.09"/>
<polygon fill="#63b8ff" stroke="#63b8ff" points="341.35,-210.29 336.58,-219.75 346.21,-215.33 341.35,-210.29"/>
</a>
</g>
</g>
<!-- Node43 -->
<g id="Node000043" class="node">
<title>Node43</title>
<g id="a_Node000043"><a xlink:href="pool_8h.html" target="_top" xlink:title="ODP pool.">
<polygon fill="white" stroke="#666666" points="1025,-349 978,-349 978,-330 1025,-330 1025,-349"/>
<text text-anchor="middle" x="1001.5" y="-337" font-family="Helvetica,sans-Serif" font-size="10.00">pool.h</text>
</a>
</g>
</g>
<!-- Node42&#45;&gt;Node43 -->
<g id="edge61_Node000042_Node000043" class="edge">
<title>Node42&#45;&gt;Node43</title>
<g id="a_edge61_Node000042_Node000043"><a xlink:title=" ">
<path fill="none" stroke="#63b8ff" d="M1001.5,-374.66C1001.5,-365.93 1001.5,-355.99 1001.5,-349.09"/>
<polygon fill="#63b8ff" stroke="#63b8ff" points="998,-374.75 1001.5,-384.75 1005,-374.75 998,-374.75"/>
</a>
</g>
</g>
<!-- Node46 -->
<g id="Node000046" class="node">
<title>Node46</title>
<g id="a_Node000046"><a xlink:href="timer_8h.html" target="_top" xlink:title="ODP timer service.">
<polygon fill="white" stroke="#666666" points="1196,-349 1145,-349 1145,-330 1196,-330 1196,-349"/>
<text text-anchor="middle" x="1170.5" y="-337" font-family="Helvetica,sans-Serif" font-size="10.00">timer.h</text>
</a>
</g>
</g>
<!-- Node45&#45;&gt;Node46 -->
<g id="edge64_Node000045_Node000046" class="edge">
<title>Node45&#45;&gt;Node46</title>
<g id="a_edge64_Node000045_Node000046"><a xlink:title=" ">
<path fill="none" stroke="#63b8ff" d="M1170.5,-374.66C1170.5,-365.93 1170.5,-355.99 1170.5,-349.09"/>
<polygon fill="#63b8ff" stroke="#63b8ff" points="1167,-374.75 1170.5,-384.75 1174,-374.75 1167,-374.75"/>
</a>
</g>
</g>
</g>
</svg>
