<?xml version="1.0" encoding="UTF-8" standalone="no"?>
<!DOCTYPE svg PUBLIC "-//W3C//DTD SVG 1.1//EN"
 "http://www.w3.org/Graphics/SVG/1.1/DTD/svg11.dtd">
<!-- Generated by graphviz version 2.43.0 (0)
 -->
<!-- Title: event.h Pages: 1 -->
<svg width="834pt" height="137pt"
 viewBox="0.00 0.00 833.50 137.00" xmlns="http://www.w3.org/2000/svg" xmlns:xlink="http://www.w3.org/1999/xlink">
<g id="graph0" class="graph" transform="scale(1 1) rotate(0) translate(4 133)">
<title>event.h</title>
<!-- Node1 -->
<g id="Node000001" class="node">
<title>Node1</title>
<g id="a_Node000001"><a xlink:title="ODP event.">
<polygon fill="#999999" stroke="#666666" points="438.5,-129 385.5,-129 385.5,-110 438.5,-110 438.5,-129"/>
<text text-anchor="middle" x="412" y="-117" font-family="Helvetica,sans-Serif" font-size="10.00">event.h</text>
</a>
</g>
</g>
<!-- Node2 -->
<g id="Node000002" class="node">
<title>Node2</title>
<g id="a_Node000002"><a xlink:href="event_8h.html" target="_top" xlink:title="ODP event.">
<polygon fill="white" stroke="#666666" points="438.5,-74 385.5,-74 385.5,-55 438.5,-55 438.5,-74"/>
<text text-anchor="middle" x="412" y="-62" font-family="Helvetica,sans-Serif" font-size="10.00">event.h</text>
</a>
</g>
</g>
<!-- Node1&#45;&gt;Node2 -->
<g id="edge1_Node000001_Node000002" class="edge">
<title>Node1&#45;&gt;Node2</title>
<g id="a_edge1_Node000001_Node000002"><a xlink:title=" ">
<path fill="none" stroke="#63b8ff" d="M412,-99.66C412,-90.93 412,-80.99 412,-74.09"/>
<polygon fill="#63b8ff" stroke="#63b8ff" points="408.5,-99.75 412,-109.75 415.5,-99.75 408.5,-99.75"/>
</a>
</g>
</g>
<!-- Node3 -->
<g id="Node000003" class="node">
<title>Node3</title>
<g id="a_Node000003"><a xlink:href="buffer__inlines_8h_source.html" target="_top" xlink:title=" ">
<polygon fill="white" stroke="#666666" points="92,-19 0,-19 0,0 92,0 92,-19"/>
<text text-anchor="middle" x="46" y="-7" font-family="Helvetica,sans-Serif" font-size="10.00">buffer_inlines.h</text>
</a>
</g>
</g>
<!-- Node2&#45;&gt;Node3 -->
<g id="edge2_Node000002_Node000003" class="edge">
<title>Node2&#45;&gt;Node3</title>
<g id="a_edge2_Node000002_Node000003"><a xlink:title=" ">
<path fill="none" stroke="#63b8ff" d="M375.19,-58.37C316.96,-50.22 200.04,-33.74 101,-19 98.13,-18.57 95.18,-18.13 92.21,-17.68"/>
<polygon fill="#63b8ff" stroke="#63b8ff" points="374.97,-61.87 385.36,-59.79 375.94,-54.94 374.97,-61.87"/>
</a>
</g>
</g>
<!-- Node4 -->
<g id="Node000004" class="node">
<title>Node4</title>
<g id="a_Node000004"><a xlink:href="crypto__inlines_8h_source.html" target="_top" xlink:title=" ">
<polygon fill="white" stroke="#666666" points="204,-19 110,-19 110,0 204,0 204,-19"/>
<text text-anchor="middle" x="157" y="-7" font-family="Helvetica,sans-Serif" font-size="10.00">crypto_inlines.h</text>
</a>
</g>
</g>
<!-- Node2&#45;&gt;Node4 -->
<g id="edge3_Node000002_Node000004" class="edge">
<title>Node2&#45;&gt;Node4</title>
<g id="a_edge3_Node000002_Node000004"><a xlink:title=" ">
<path fill="none" stroke="#63b8ff" d="M375.14,-55.84C328.12,-46.07 247.05,-29.22 198.09,-19.04"/>
<polygon fill="#63b8ff" stroke="#63b8ff" points="374.69,-59.32 385.19,-57.93 376.11,-52.47 374.69,-59.32"/>
</a>
</g>
</g>
<!-- Node5 -->
<g id="Node000005" class="node">
<title>Node5</title>
<g id="a_Node000005"><a xlink:href="event__vector__inlines_8h.html" target="_top" xlink:title="Event vector inline functions.">
<polygon fill="white" stroke="#666666" points="349.5,-19 222.5,-19 222.5,0 349.5,0 349.5,-19"/>
<text text-anchor="middle" x="286" y="-7" font-family="Helvetica,sans-Serif" font-size="10.00">event_vector_inlines.h</text>
</a>
</g>
</g>
<!-- Node2&#45;&gt;Node5 -->
<g id="edge4_Node000002_Node000005" class="edge">
<title>Node2&#45;&gt;Node5</title>
<g id="a_edge4_Node000002_Node000005"><a xlink:title=" ">
<path fill="none" stroke="#63b8ff" d="M382.35,-51.03C359.05,-41.23 327.2,-27.83 306.61,-19.17"/>
<polygon fill="#63b8ff" stroke="#63b8ff" points="381.18,-54.33 391.76,-54.98 383.9,-47.88 381.18,-54.33"/>
</a>
</g>
</g>
<!-- Node6 -->
<g id="Node000006" class="node">
<title>Node6</title>
<g id="a_Node000006"><a xlink:href="ipsec__inlines_8h_source.html" target="_top" xlink:title=" ">
<polygon fill="white" stroke="#666666" points="456.5,-19 367.5,-19 367.5,0 456.5,0 456.5,-19"/>
<text text-anchor="middle" x="412" y="-7" font-family="Helvetica,sans-Serif" font-size="10.00">ipsec_inlines.h</text>
</a>
</g>
</g>
<!-- Node2&#45;&gt;Node6 -->
<g id="edge5_Node000002_Node000006" class="edge">
<title>Node2&#45;&gt;Node6</title>
<g id="a_edge5_Node000002_Node000006"><a xlink:title=" ">
<path fill="none" stroke="#63b8ff" d="M412,-44.66C412,-35.93 412,-25.99 412,-19.09"/>
<polygon fill="#63b8ff" stroke="#63b8ff" points="408.5,-44.75 412,-54.75 415.5,-44.75 408.5,-44.75"/>
</a>
</g>
</g>
<!-- Node7 -->
<g id="Node000007" class="node">
<title>Node7</title>
<g id="a_Node000007"><a xlink:href="packet__inlines_8h.html" target="_top" xlink:title="Packet inline functions.">
<polygon fill="white" stroke="#666666" points="569.5,-19 474.5,-19 474.5,0 569.5,0 569.5,-19"/>
<text text-anchor="middle" x="522" y="-7" font-family="Helvetica,sans-Serif" font-size="10.00">packet_inlines.h</text>
</a>
</g>
</g>
<!-- Node2&#45;&gt;Node7 -->
<g id="edge6_Node000002_Node000007" class="edge">
<title>Node2&#45;&gt;Node7</title>
<g id="a_edge6_Node000002_Node000007"><a xlink:title=" ">
<path fill="none" stroke="#63b8ff" d="M438.7,-50.63C458.97,-40.87 486.27,-27.71 504.01,-19.17"/>
<polygon fill="#63b8ff" stroke="#63b8ff" points="437.16,-47.49 429.67,-54.98 440.2,-53.8 437.16,-47.49"/>
</a>
</g>
</g>
<!-- Node8 -->
<g id="Node000008" class="node">
<title>Node8</title>
<g id="a_Node000008"><a xlink:href="packet__vector__inlines_8h.html" target="_top" xlink:title="Packet vector inline functions.">
<polygon fill="white" stroke="#666666" points="718.5,-19 587.5,-19 587.5,0 718.5,0 718.5,-19"/>
<text text-anchor="middle" x="653" y="-7" font-family="Helvetica,sans-Serif" font-size="10.00">packet_vector_inlines.h</text>
</a>
</g>
</g>
<!-- Node2&#45;&gt;Node8 -->
<g id="edge7_Node000002_Node000008" class="edge">
<title>Node2&#45;&gt;Node8</title>
<g id="a_edge7_Node000002_Node000008"><a xlink:title=" ">
<path fill="none" stroke="#63b8ff" d="M448.57,-55.46C493.27,-45.63 568.59,-29.06 614.25,-19.02"/>
<polygon fill="#63b8ff" stroke="#63b8ff" points="447.73,-52.06 438.71,-57.63 449.23,-58.9 447.73,-52.06"/>
</a>
</g>
</g>
<!-- Node9 -->
<g id="Node000009" class="node">
<title>Node9</title>
<g id="a_Node000009"><a xlink:href="timer__inlines_8h_source.html" target="_top" xlink:title=" ">
<polygon fill="white" stroke="#666666" points="825.5,-19 736.5,-19 736.5,0 825.5,0 825.5,-19"/>
<text text-anchor="middle" x="781" y="-7" font-family="Helvetica,sans-Serif" font-size="10.00">timer_inlines.h</text>
</a>
</g>
</g>
<!-- Node2&#45;&gt;Node9 -->
<g id="edge8_Node000002_Node000009" class="edge">
<title>Node2&#45;&gt;Node9</title>
<g id="a_edge8_Node000002_Node000009"><a xlink:title=" ">
<path fill="none" stroke="#63b8ff" d="M448.6,-58.58C507.5,-50.6 626.96,-34.21 728,-19 730.76,-18.58 733.61,-18.15 736.48,-17.7"/>
<polygon fill="#63b8ff" stroke="#63b8ff" points="448.1,-55.11 438.66,-59.92 449.04,-62.05 448.1,-55.11"/>
</a>
</g>
</g>
</g>
</svg>
