<?xml version="1.0" encoding="UTF-8" standalone="no"?>
<!DOCTYPE svg PUBLIC "-//W3C//DTD SVG 1.1//EN"
 "http://www.w3.org/Graphics/SVG/1.1/DTD/svg11.dtd">
<!-- Generated by graphviz version 2.43.0 (0)
 -->
<!-- Title: packet_flags.h Pages: 1 -->
<svg width="1425pt" height="830pt"
 viewBox="0.00 0.00 1425.00 830.00" xmlns="http://www.w3.org/2000/svg" xmlns:xlink="http://www.w3.org/1999/xlink">
<g id="graph0" class="graph" transform="scale(1 1) rotate(0) translate(4 826)">
<title>packet_flags.h</title>
<!-- Node1 -->
<g id="Node000001" class="node">
<title>Node1</title>
<g id="a_Node000001"><a xlink:title="ODP packet flags.">
<polygon fill="#999999" stroke="#666666" points="1349,-822 1263,-822 1263,-803 1349,-803 1349,-822"/>
<text text-anchor="middle" x="1306" y="-810" font-family="Helvetica,sans-Serif" font-size="10.00">packet_flags.h</text>
</a>
</g>
</g>
<!-- Node2 -->
<g id="Node000002" class="node">
<title>Node2</title>
<g id="a_Node000002"><a xlink:title=" ">
<polygon fill="#e0e0e0" stroke="#999999" points="289.5,-19 168.5,-19 168.5,0 289.5,0 289.5,-19"/>
<text text-anchor="middle" x="229" y="-7" font-family="Helvetica,sans-Serif" font-size="10.00">odp/visibility_begin.h</text>
</a>
</g>
</g>
<!-- Node1&#45;&gt;Node2 -->
<g id="edge1_Node000001_Node000002" class="edge">
<title>Node1&#45;&gt;Node2</title>
<g id="a_edge1_Node000001_Node000002"><a xlink:title=" ">
<path fill="none" stroke="#63b8ff" d="M1262.92,-810.06C1037.07,-802.26 0,-762.9 0,-698 0,-698 0,-698 0,-129.5 0,-57.26 90.83,-28.82 158.08,-17.65"/>
<polygon fill="#63b8ff" stroke="#63b8ff" points="158.89,-21.07 168.23,-16.07 157.81,-14.15 158.89,-21.07"/>
</a>
</g>
</g>
<!-- Node3 -->
<g id="Node000003" class="node">
<title>Node3</title>
<g id="a_Node000003"><a xlink:href="packet__types_8h.html" target="_top" xlink:title="ODP packet.">
<polygon fill="white" stroke="#666666" points="1264.5,-767 1135.5,-767 1135.5,-748 1264.5,-748 1264.5,-767"/>
<text text-anchor="middle" x="1200" y="-755" font-family="Helvetica,sans-Serif" font-size="10.00">odp/api/packet_types.h</text>
</a>
</g>
</g>
<!-- Node1&#45;&gt;Node3 -->
<g id="edge2_Node000001_Node000003" class="edge">
<title>Node1&#45;&gt;Node3</title>
<g id="a_edge2_Node000001_Node000003"><a xlink:title=" ">
<path fill="none" stroke="#63b8ff" d="M1288.97,-802.98C1272.07,-794.54 1245.94,-781.47 1226.36,-771.68"/>
<polygon fill="#63b8ff" stroke="#63b8ff" points="1227.85,-768.51 1217.34,-767.17 1224.72,-774.77 1227.85,-768.51"/>
</a>
</g>
</g>
<!-- Node10 -->
<g id="Node000010" class="node">
<title>Node10</title>
<g id="a_Node000010"><a xlink:href="std__types_8h.html" target="_top" xlink:title="Standard C language types and definitions for ODP.">
<polygon fill="white" stroke="#666666" points="994,-266.5 882,-266.5 882,-247.5 994,-247.5 994,-266.5"/>
<text text-anchor="middle" x="938" y="-254.5" font-family="Helvetica,sans-Serif" font-size="10.00">odp/api/std_types.h</text>
</a>
</g>
</g>
<!-- Node1&#45;&gt;Node10 -->
<g id="edge61_Node000001_Node000010" class="edge">
<title>Node1&#45;&gt;Node10</title>
<g id="a_edge61_Node000001_Node000010"><a xlink:title=" ">
<path fill="none" stroke="#63b8ff" d="M1313.51,-802.77C1328.35,-784.58 1360,-740.77 1360,-698 1360,-698 1360,-698 1360,-635.5 1360,-555.28 1341,-536.22 1341,-456 1341,-456 1341,-456 1341,-388 1341,-344.34 1321.27,-330.73 1284,-308 1238.27,-280.11 1091.11,-266.91 1004.13,-261.4"/>
<polygon fill="#63b8ff" stroke="#63b8ff" points="1004.29,-257.9 994.09,-260.78 1003.86,-264.89 1004.29,-257.9"/>
</a>
</g>
</g>
<!-- Node17 -->
<g id="Node000017" class="node">
<title>Node17</title>
<g id="a_Node000017"><a xlink:title=" ">
<polygon fill="#e0e0e0" stroke="#999999" points="1099,-19 987,-19 987,0 1099,0 1099,-19"/>
<text text-anchor="middle" x="1043" y="-7" font-family="Helvetica,sans-Serif" font-size="10.00">odp/visibility_end.h</text>
</a>
</g>
</g>
<!-- Node1&#45;&gt;Node17 -->
<g id="edge62_Node000001_Node000017" class="edge">
<title>Node1&#45;&gt;Node17</title>
<g id="a_edge62_Node000001_Node000017"><a xlink:title=" ">
<path fill="none" stroke="#63b8ff" d="M1324.83,-802.95C1356.5,-787.13 1417,-750.09 1417,-698 1417,-698 1417,-698 1417,-129.5 1417,-80.59 1380.1,-76.15 1336,-55 1297.06,-36.33 1183.22,-23.01 1109.44,-16.05"/>
<polygon fill="#63b8ff" stroke="#63b8ff" points="1109.59,-12.55 1099.31,-15.11 1108.94,-19.52 1109.59,-12.55"/>
</a>
</g>
</g>
<!-- Node4 -->
<g id="Node000004" class="node">
<title>Node4</title>
<g id="a_Node000004"><a xlink:title=" ">
<polygon fill="#e0e0e0" stroke="#999999" points="1076,-712 970,-712 970,-682 1076,-682 1076,-712"/>
<text text-anchor="start" x="978" y="-700" font-family="Helvetica,sans-Serif" font-size="10.00">odp/api/abi/packet</text>
<text text-anchor="middle" x="1023" y="-689" font-family="Helvetica,sans-Serif" font-size="10.00">_io_types.h</text>
</a>
</g>
</g>
<!-- Node3&#45;&gt;Node4 -->
<g id="edge3_Node000003_Node000004" class="edge">
<title>Node3&#45;&gt;Node4</title>
<g id="a_edge3_Node000003_Node000004"><a xlink:title=" ">
<path fill="none" stroke="#63b8ff" d="M1174.26,-747.99C1148.46,-739.46 1107.98,-726.09 1075.39,-715.32"/>
<polygon fill="#63b8ff" stroke="#63b8ff" points="1076.15,-711.88 1065.55,-712.06 1073.95,-718.53 1076.15,-711.88"/>
</a>
</g>
</g>
<!-- Node5 -->
<g id="Node000005" class="node">
<title>Node5</title>
<g id="a_Node000005"><a xlink:title=" ">
<polygon fill="#e0e0e0" stroke="#999999" points="1200,-712 1094,-712 1094,-682 1200,-682 1200,-712"/>
<text text-anchor="start" x="1102" y="-700" font-family="Helvetica,sans-Serif" font-size="10.00">odp/api/abi/packet</text>
<text text-anchor="middle" x="1147" y="-689" font-family="Helvetica,sans-Serif" font-size="10.00">_types.h</text>
</a>
</g>
</g>
<!-- Node3&#45;&gt;Node5 -->
<g id="edge4_Node000003_Node000005" class="edge">
<title>Node3&#45;&gt;Node5</title>
<g id="a_edge4_Node000003_Node000005"><a xlink:title=" ">
<path fill="none" stroke="#63b8ff" d="M1192.18,-747.87C1185.45,-740.44 1175.46,-729.42 1166.59,-719.62"/>
<polygon fill="#63b8ff" stroke="#63b8ff" points="1169.1,-717.18 1159.79,-712.11 1163.91,-721.88 1169.1,-717.18"/>
</a>
</g>
</g>
<!-- Node6 -->
<g id="Node000006" class="node">
<title>Node6</title>
<g id="a_Node000006"><a xlink:href="spec_2packet__types_8h.html" target="_top" xlink:title="ODP packet types.">
<polygon fill="white" stroke="#666666" points="1331.5,-712 1218.5,-712 1218.5,-682 1331.5,-682 1331.5,-712"/>
<text text-anchor="start" x="1226.5" y="-700" font-family="Helvetica,sans-Serif" font-size="10.00">odp/api/spec/packet</text>
<text text-anchor="middle" x="1275" y="-689" font-family="Helvetica,sans-Serif" font-size="10.00">_types.h</text>
</a>
</g>
</g>
<!-- Node3&#45;&gt;Node6 -->
<g id="edge5_Node000003_Node000006" class="edge">
<title>Node3&#45;&gt;Node6</title>
<g id="a_edge5_Node000003_Node000006"><a xlink:title=" ">
<path fill="none" stroke="#63b8ff" d="M1211.07,-747.87C1220.96,-740.15 1235.85,-728.54 1248.77,-718.46"/>
<polygon fill="#63b8ff" stroke="#63b8ff" points="1251.17,-721.02 1256.9,-712.11 1246.87,-715.51 1251.17,-721.02"/>
</a>
</g>
</g>
<!-- Node6&#45;&gt;Node2 -->
<g id="edge6_Node000006_Node000002" class="edge">
<title>Node6&#45;&gt;Node2</title>
<g id="a_edge6_Node000006_Node000002"><a xlink:title=" ">
<path fill="none" stroke="#63b8ff" d="M1218.2,-683.5C1215.09,-682.96 1212.01,-682.45 1209,-682 1079.82,-662.58 38,-707.63 38,-577 38,-577 38,-577 38,-129.5 38,-66.48 113.84,-35.63 169.94,-21.43"/>
<polygon fill="#63b8ff" stroke="#63b8ff" points="170.91,-24.8 179.81,-19.05 169.27,-17.99 170.91,-24.8"/>
</a>
</g>
</g>
<!-- Node7 -->
<g id="Node000007" class="node">
<title>Node7</title>
<g id="a_Node000007"><a xlink:href="proto__stats__types_8h.html" target="_top" xlink:title="ODP proto stats types.">
<polygon fill="white" stroke="#666666" points="1266,-404 1156,-404 1156,-374 1266,-374 1266,-404"/>
<text text-anchor="start" x="1164" y="-392" font-family="Helvetica,sans-Serif" font-size="10.00">odp/api/proto_stats</text>
<text text-anchor="middle" x="1211" y="-381" font-family="Helvetica,sans-Serif" font-size="10.00">_types.h</text>
</a>
</g>
</g>
<!-- Node6&#45;&gt;Node7 -->
<g id="edge7_Node000006_Node000007" class="edge">
<title>Node6&#45;&gt;Node7</title>
<g id="a_edge7_Node000006_Node000007"><a xlink:title=" ">
<path fill="none" stroke="#63b8ff" d="M1276.78,-681.74C1279.4,-659.43 1284,-614.92 1284,-577 1284,-577 1284,-577 1284,-514.5 1284,-473.75 1254.54,-434.54 1233.05,-411.35"/>
<polygon fill="#63b8ff" stroke="#63b8ff" points="1235.57,-408.92 1226.13,-404.12 1230.52,-413.76 1235.57,-408.92"/>
</a>
</g>
</g>
<!-- Node6&#45;&gt;Node17 -->
<g id="edge60_Node000006_Node000017" class="edge">
<title>Node6&#45;&gt;Node17</title>
<g id="a_edge60_Node000006_Node000017"><a xlink:title=" ">
<path fill="none" stroke="#63b8ff" d="M1286.13,-681.78C1312.96,-646.04 1379,-548.64 1379,-456 1379,-456 1379,-456 1379,-129.5 1379,-77.23 1335.45,-76.92 1288,-55 1231.28,-28.79 1160.5,-17.99 1109.63,-13.56"/>
<polygon fill="#63b8ff" stroke="#63b8ff" points="1109.66,-10.05 1099.41,-12.73 1109.09,-17.02 1109.66,-10.05"/>
</a>
</g>
</g>
<!-- Node18 -->
<g id="Node000018" class="node">
<title>Node18</title>
<g id="a_Node000018"><a xlink:href="queue__types_8h.html" target="_top" xlink:title="ODP queue.">
<polygon fill="white" stroke="#666666" points="1059.5,-646 932.5,-646 932.5,-627 1059.5,-627 1059.5,-646"/>
<text text-anchor="middle" x="996" y="-634" font-family="Helvetica,sans-Serif" font-size="10.00">odp/api/queue_types.h</text>
</a>
</g>
</g>
<!-- Node6&#45;&gt;Node18 -->
<g id="edge23_Node000006_Node000018" class="edge">
<title>Node6&#45;&gt;Node18</title>
<g id="a_edge23_Node000006_Node000018"><a xlink:title=" ">
<path fill="none" stroke="#63b8ff" d="M1218.48,-684C1215.27,-683.32 1212.09,-682.65 1209,-682 1153.73,-670.36 1090.36,-657.14 1047.21,-648.15"/>
<polygon fill="#63b8ff" stroke="#63b8ff" points="1047.74,-644.69 1037.24,-646.08 1046.32,-651.54 1047.74,-644.69"/>
</a>
</g>
</g>
<!-- Node8 -->
<g id="Node000008" class="node">
<title>Node8</title>
<g id="a_Node000008"><a xlink:title=" ">
<polygon fill="#e0e0e0" stroke="#999999" points="1275,-338 1147,-338 1147,-308 1275,-308 1275,-338"/>
<text text-anchor="start" x="1155" y="-326" font-family="Helvetica,sans-Serif" font-size="10.00">odp/api/abi/proto_stats</text>
<text text-anchor="middle" x="1211" y="-315" font-family="Helvetica,sans-Serif" font-size="10.00">_types.h</text>
</a>
</g>
</g>
<!-- Node7&#45;&gt;Node8 -->
<g id="edge8_Node000007_Node000008" class="edge">
<title>Node7&#45;&gt;Node8</title>
<g id="a_edge8_Node000007_Node000008"><a xlink:title=" ">
<path fill="none" stroke="#63b8ff" d="M1211,-373.8C1211,-366.34 1211,-356.99 1211,-348.41"/>
<polygon fill="#63b8ff" stroke="#63b8ff" points="1214.5,-348.16 1211,-338.16 1207.5,-348.16 1214.5,-348.16"/>
</a>
</g>
</g>
<!-- Node9 -->
<g id="Node000009" class="node">
<title>Node9</title>
<g id="a_Node000009"><a xlink:href="spec_2proto__stats__types_8h.html" target="_top" xlink:title="ODP proto stats types.">
<polygon fill="white" stroke="#666666" points="1090.5,-338 983.5,-338 983.5,-308 1090.5,-308 1090.5,-338"/>
<text text-anchor="start" x="991.5" y="-326" font-family="Helvetica,sans-Serif" font-size="10.00">odp/api/spec/proto</text>
<text text-anchor="middle" x="1037" y="-315" font-family="Helvetica,sans-Serif" font-size="10.00">_stats_types.h</text>
</a>
</g>
</g>
<!-- Node7&#45;&gt;Node9 -->
<g id="edge9_Node000007_Node000009" class="edge">
<title>Node7&#45;&gt;Node9</title>
<g id="a_edge9_Node000007_Node000009"><a xlink:title=" ">
<path fill="none" stroke="#63b8ff" d="M1172.81,-373.95C1146.86,-364.41 1112.34,-351.71 1084.6,-341.51"/>
<polygon fill="#63b8ff" stroke="#63b8ff" points="1085.69,-338.18 1075.1,-338.01 1083.27,-344.75 1085.69,-338.18"/>
</a>
</g>
</g>
<!-- Node9&#45;&gt;Node2 -->
<g id="edge10_Node000009_Node000002" class="edge">
<title>Node9&#45;&gt;Node2</title>
<g id="a_edge10_Node000009_Node000002"><a xlink:title=" ">
<path fill="none" stroke="#63b8ff" d="M1040.62,-307.85C1047.19,-278.48 1057.27,-210.75 1021,-176 977.5,-134.32 538.22,-155.48 480,-140 461.37,-135.05 458.44,-129.22 441,-121 406.1,-104.55 395.18,-104.69 362,-85 342.89,-73.66 341,-66.52 322,-55 301.8,-42.75 277.7,-31.31 259.1,-23.09"/>
<polygon fill="#63b8ff" stroke="#63b8ff" points="260.49,-19.88 249.93,-19.1 257.7,-26.3 260.49,-19.88"/>
</a>
</g>
</g>
<!-- Node9&#45;&gt;Node10 -->
<g id="edge11_Node000009_Node000010" class="edge">
<title>Node9&#45;&gt;Node10</title>
<g id="a_edge11_Node000009_Node000010"><a xlink:title=" ">
<path fill="none" stroke="#63b8ff" d="M1015.03,-307.8C998.59,-297.17 976.21,-282.7 959.81,-272.1"/>
<polygon fill="#63b8ff" stroke="#63b8ff" points="961.69,-269.15 951.39,-266.66 957.89,-275.03 961.69,-269.15"/>
</a>
</g>
</g>
<!-- Node9&#45;&gt;Node17 -->
<g id="edge22_Node000009_Node000017" class="edge">
<title>Node9&#45;&gt;Node17</title>
<g id="a_edge22_Node000009_Node000017"><a xlink:title=" ">
<path fill="none" stroke="#63b8ff" d="M1045.28,-307.72C1058.02,-284.34 1081,-236.08 1081,-192 1081,-192 1081,-192 1081,-129.5 1081,-92.07 1063.73,-51.03 1052.48,-28.25"/>
<polygon fill="#63b8ff" stroke="#63b8ff" points="1055.49,-26.46 1047.81,-19.15 1049.26,-29.65 1055.49,-26.46"/>
</a>
</g>
</g>
<!-- Node11 -->
<g id="Node000011" class="node">
<title>Node11</title>
<g id="a_Node000011"><a xlink:title=" ">
<polygon fill="#e0e0e0" stroke="#999999" points="1012,-200.5 882,-200.5 882,-181.5 1012,-181.5 1012,-200.5"/>
<text text-anchor="middle" x="947" y="-188.5" font-family="Helvetica,sans-Serif" font-size="10.00">odp/api/abi/std_types.h</text>
</a>
</g>
</g>
<!-- Node10&#45;&gt;Node11 -->
<g id="edge12_Node000010_Node000011" class="edge">
<title>Node10&#45;&gt;Node11</title>
<g id="a_edge12_Node000010_Node000011"><a xlink:title=" ">
<path fill="none" stroke="#63b8ff" d="M939.21,-247.37C940.52,-238.07 942.64,-222.98 944.34,-210.9"/>
<polygon fill="#63b8ff" stroke="#63b8ff" points="947.82,-211.3 945.75,-200.91 940.89,-210.32 947.82,-211.3"/>
</a>
</g>
</g>
<!-- Node12 -->
<g id="Node000012" class="node">
<title>Node12</title>
<g id="a_Node000012"><a xlink:href="spec_2std__types_8h.html" target="_top" xlink:title="Common types and definitions for ODP API files.">
<polygon fill="white" stroke="#666666" points="787.5,-200.5 650.5,-200.5 650.5,-181.5 787.5,-181.5 787.5,-200.5"/>
<text text-anchor="middle" x="719" y="-188.5" font-family="Helvetica,sans-Serif" font-size="10.00">odp/api/spec/std_types.h</text>
</a>
</g>
</g>
<!-- Node10&#45;&gt;Node12 -->
<g id="edge13_Node000010_Node000012" class="edge">
<title>Node10&#45;&gt;Node12</title>
<g id="a_edge13_Node000010_Node000012"><a xlink:title=" ">
<path fill="none" stroke="#63b8ff" d="M908.46,-247.37C869.66,-236.03 801.4,-216.08 758.28,-203.48"/>
<polygon fill="#63b8ff" stroke="#63b8ff" points="759,-200.04 748.42,-200.6 757.03,-206.76 759,-200.04"/>
</a>
</g>
</g>
<!-- Node12&#45;&gt;Node2 -->
<g id="edge14_Node000012_Node000002" class="edge">
<title>Node12&#45;&gt;Node2</title>
<g id="a_edge14_Node000012_Node000002"><a xlink:title=" ">
<path fill="none" stroke="#63b8ff" d="M650.48,-182.31C594.76,-174.9 514.58,-161.57 447,-140 433.22,-135.6 341.42,-92.42 329,-85 298.56,-66.83 266.14,-41.42 246.73,-25.47"/>
<polygon fill="#63b8ff" stroke="#63b8ff" points="248.95,-22.76 239.02,-19.06 244.48,-28.14 248.95,-22.76"/>
</a>
</g>
</g>
<!-- Node13 -->
<g id="Node000013" class="node">
<title>Node13</title>
<g id="a_Node000013"><a xlink:title=" ">
<polygon fill="#e0e0e0" stroke="#999999" points="394.5,-140 341.5,-140 341.5,-121 394.5,-121 394.5,-140"/>
<text text-anchor="middle" x="368" y="-128" font-family="Helvetica,sans-Serif" font-size="10.00">stdint.h</text>
</a>
</g>
</g>
<!-- Node12&#45;&gt;Node13 -->
<g id="edge15_Node000012_Node000013" class="edge">
<title>Node12&#45;&gt;Node13</title>
<g id="a_edge15_Node000012_Node000013"><a xlink:title=" ">
<path fill="none" stroke="#63b8ff" d="M661.16,-181.46C598.8,-172.06 496.66,-156.15 409,-140 407.71,-139.76 406.4,-139.52 405.08,-139.27"/>
<polygon fill="#63b8ff" stroke="#63b8ff" points="405.36,-135.75 394.87,-137.25 404.01,-142.62 405.36,-135.75"/>
</a>
</g>
</g>
<!-- Node14 -->
<g id="Node000014" class="node">
<title>Node14</title>
<g id="a_Node000014"><a xlink:href="align_8h.html" target="_top" xlink:title="ODP alignments.">
<polygon fill="white" stroke="#666666" points="800.5,-140 711.5,-140 711.5,-121 800.5,-121 800.5,-140"/>
<text text-anchor="middle" x="756" y="-128" font-family="Helvetica,sans-Serif" font-size="10.00">odp/api/align.h</text>
</a>
</g>
</g>
<!-- Node12&#45;&gt;Node14 -->
<g id="edge16_Node000012_Node000014" class="edge">
<title>Node12&#45;&gt;Node14</title>
<g id="a_edge16_Node000012_Node000014"><a xlink:title=" ">
<path fill="none" stroke="#63b8ff" d="M724.46,-181.37C729.87,-172.81 738.31,-159.47 745.1,-148.74"/>
<polygon fill="#63b8ff" stroke="#63b8ff" points="748.13,-150.49 750.52,-140.17 742.21,-146.75 748.13,-150.49"/>
</a>
</g>
</g>
<!-- Node12&#45;&gt;Node17 -->
<g id="edge21_Node000012_Node000017" class="edge">
<title>Node12&#45;&gt;Node17</title>
<g id="a_edge21_Node000012_Node000017"><a xlink:title=" ">
<path fill="none" stroke="#63b8ff" d="M741.87,-181.49C783.95,-165.39 875.86,-128.21 947,-85 976.4,-67.15 1007.29,-41.82 1025.84,-25.78"/>
<polygon fill="#63b8ff" stroke="#63b8ff" points="1028.23,-28.34 1033.45,-19.12 1023.62,-23.07 1028.23,-28.34"/>
</a>
</g>
</g>
<!-- Node15 -->
<g id="Node000015" class="node">
<title>Node15</title>
<g id="a_Node000015"><a xlink:title=" ">
<polygon fill="#e0e0e0" stroke="#999999" points="938.5,-79.5 831.5,-79.5 831.5,-60.5 938.5,-60.5 938.5,-79.5"/>
<text text-anchor="middle" x="885" y="-67.5" font-family="Helvetica,sans-Serif" font-size="10.00">odp/api/abi/align.h</text>
</a>
</g>
</g>
<!-- Node14&#45;&gt;Node15 -->
<g id="edge17_Node000014_Node000015" class="edge">
<title>Node14&#45;&gt;Node15</title>
<g id="a_edge17_Node000014_Node000015"><a xlink:title=" ">
<path fill="none" stroke="#63b8ff" d="M774.76,-120.99C796.35,-111.2 832.03,-95.02 856.93,-83.73"/>
<polygon fill="#63b8ff" stroke="#63b8ff" points="858.56,-86.83 866.22,-79.52 855.67,-80.46 858.56,-86.83"/>
</a>
</g>
</g>
<!-- Node16 -->
<g id="Node000016" class="node">
<title>Node16</title>
<g id="a_Node000016"><a xlink:href="spec_2align_8h.html" target="_top" xlink:title="ODP alignments.">
<polygon fill="white" stroke="#666666" points="813,-79.5 699,-79.5 699,-60.5 813,-60.5 813,-79.5"/>
<text text-anchor="middle" x="756" y="-67.5" font-family="Helvetica,sans-Serif" font-size="10.00">odp/api/spec/align.h</text>
</a>
</g>
</g>
<!-- Node14&#45;&gt;Node16 -->
<g id="edge18_Node000014_Node000016" class="edge">
<title>Node14&#45;&gt;Node16</title>
<g id="a_edge18_Node000014_Node000016"><a xlink:title=" ">
<path fill="none" stroke="#63b8ff" d="M756,-120.87C756,-112.75 756,-100.31 756,-89.89"/>
<polygon fill="#63b8ff" stroke="#63b8ff" points="759.5,-89.67 756,-79.67 752.5,-89.67 759.5,-89.67"/>
</a>
</g>
</g>
<!-- Node16&#45;&gt;Node2 -->
<g id="edge19_Node000016_Node000002" class="edge">
<title>Node16&#45;&gt;Node2</title>
<g id="a_edge19_Node000016_Node000002"><a xlink:title=" ">
<path fill="none" stroke="#63b8ff" d="M718.92,-60.5C709.22,-58.48 698.75,-56.49 689,-55 551.91,-34.11 390.25,-21.14 299.69,-14.92"/>
<polygon fill="#63b8ff" stroke="#63b8ff" points="299.75,-11.42 289.54,-14.23 299.28,-18.4 299.75,-11.42"/>
</a>
</g>
</g>
<!-- Node16&#45;&gt;Node17 -->
<g id="edge20_Node000016_Node000017" class="edge">
<title>Node16&#45;&gt;Node17</title>
<g id="a_edge20_Node000016_Node000017"><a xlink:title=" ">
<path fill="none" stroke="#63b8ff" d="M795.77,-60.49C804.42,-58.66 813.51,-56.75 822,-55 879.25,-43.16 944.93,-29.99 989.71,-21.07"/>
<polygon fill="#63b8ff" stroke="#63b8ff" points="990.65,-24.45 999.78,-19.07 989.29,-17.59 990.65,-24.45"/>
</a>
</g>
</g>
<!-- Node19 -->
<g id="Node000019" class="node">
<title>Node19</title>
<g id="a_Node000019"><a xlink:title=" ">
<polygon fill="#e0e0e0" stroke="#999999" points="1068.5,-585.5 923.5,-585.5 923.5,-566.5 1068.5,-566.5 1068.5,-585.5"/>
<text text-anchor="middle" x="996" y="-573.5" font-family="Helvetica,sans-Serif" font-size="10.00">odp/api/abi/queue_types.h</text>
</a>
</g>
</g>
<!-- Node18&#45;&gt;Node19 -->
<g id="edge24_Node000018_Node000019" class="edge">
<title>Node18&#45;&gt;Node19</title>
<g id="a_edge24_Node000018_Node000019"><a xlink:title=" ">
<path fill="none" stroke="#63b8ff" d="M996,-626.87C996,-618.75 996,-606.31 996,-595.89"/>
<polygon fill="#63b8ff" stroke="#63b8ff" points="999.5,-595.67 996,-585.67 992.5,-595.67 999.5,-595.67"/>
</a>
</g>
</g>
<!-- Node20 -->
<g id="Node000020" class="node">
<title>Node20</title>
<g id="a_Node000020"><a xlink:href="spec_2queue__types_8h.html" target="_top" xlink:title="ODP queue types.">
<polygon fill="white" stroke="#666666" points="746.5,-591 635.5,-591 635.5,-561 746.5,-561 746.5,-591"/>
<text text-anchor="start" x="643.5" y="-579" font-family="Helvetica,sans-Serif" font-size="10.00">odp/api/spec/queue</text>
<text text-anchor="middle" x="691" y="-568" font-family="Helvetica,sans-Serif" font-size="10.00">_types.h</text>
</a>
</g>
</g>
<!-- Node18&#45;&gt;Node20 -->
<g id="edge25_Node000018_Node000020" class="edge">
<title>Node18&#45;&gt;Node20</title>
<g id="a_edge25_Node000018_Node000020"><a xlink:title=" ">
<path fill="none" stroke="#63b8ff" d="M951.65,-626.99C900.34,-617.15 815.39,-600.86 756.48,-589.56"/>
<polygon fill="#63b8ff" stroke="#63b8ff" points="757.01,-586.1 746.53,-587.65 755.69,-592.97 757.01,-586.1"/>
</a>
</g>
</g>
<!-- Node20&#45;&gt;Node2 -->
<g id="edge26_Node000020_Node000002" class="edge">
<title>Node20&#45;&gt;Node2</title>
<g id="a_edge26_Node000020_Node000002"><a xlink:title=" ">
<path fill="none" stroke="#63b8ff" d="M635.34,-570.08C483.95,-555.97 76,-512.69 76,-456 76,-456 76,-456 76,-129.5 76,-72.29 143.49,-38.58 188.82,-22.39"/>
<polygon fill="#63b8ff" stroke="#63b8ff" points="190.08,-25.66 198.41,-19.11 187.81,-19.04 190.08,-25.66"/>
</a>
</g>
</g>
<!-- Node20&#45;&gt;Node17 -->
<g id="edge59_Node000020_Node000017" class="edge">
<title>Node20&#45;&gt;Node17</title>
<g id="a_edge59_Node000020_Node000017"><a xlink:title=" ">
<path fill="none" stroke="#63b8ff" d="M746.94,-566.17C878.72,-544.23 1202.97,-483.25 1275,-404 1319.44,-355.11 1303,-324.07 1303,-258 1303,-258 1303,-258 1303,-129.5 1303,-44.34 1186.25,-19.88 1109.22,-13"/>
<polygon fill="#63b8ff" stroke="#63b8ff" points="1109.35,-9.5 1099.1,-12.18 1108.78,-16.48 1109.35,-9.5"/>
</a>
</g>
</g>
<!-- Node21 -->
<g id="Node000021" class="node">
<title>Node21</title>
<g id="a_Node000021"><a xlink:href="event__vector__types_8h.html" target="_top" xlink:title="ODP event vector API type definitions.">
<polygon fill="white" stroke="#666666" points="799.5,-404 680.5,-404 680.5,-374 799.5,-374 799.5,-404"/>
<text text-anchor="start" x="688.5" y="-392" font-family="Helvetica,sans-Serif" font-size="10.00">odp/api/event_vector</text>
<text text-anchor="middle" x="740" y="-381" font-family="Helvetica,sans-Serif" font-size="10.00">_types.h</text>
</a>
</g>
</g>
<!-- Node20&#45;&gt;Node21 -->
<g id="edge27_Node000020_Node000021" class="edge">
<title>Node20&#45;&gt;Node21</title>
<g id="a_edge27_Node000020_Node000021"><a xlink:title=" ">
<path fill="none" stroke="#63b8ff" d="M701.57,-560.9C708.23,-551.28 716.41,-537.98 721,-525 734.12,-487.94 738.21,-442.13 739.47,-414.53"/>
<polygon fill="#63b8ff" stroke="#63b8ff" points="742.98,-414.36 739.84,-404.24 735.98,-414.1 742.98,-414.36"/>
</a>
</g>
</g>
<!-- Node28 -->
<g id="Node000028" class="node">
<title>Node28</title>
<g id="a_Node000028"><a xlink:href="queue__stats__types_8h.html" target="_top" xlink:title="ODP queue.">
<polygon fill="white" stroke="#666666" points="257.5,-272 142.5,-272 142.5,-242 257.5,-242 257.5,-272"/>
<text text-anchor="start" x="150.5" y="-260" font-family="Helvetica,sans-Serif" font-size="10.00">odp/api/queue_stats</text>
<text text-anchor="middle" x="200" y="-249" font-family="Helvetica,sans-Serif" font-size="10.00">_types.h</text>
</a>
</g>
</g>
<!-- Node20&#45;&gt;Node28 -->
<g id="edge44_Node000020_Node000028" class="edge">
<title>Node20&#45;&gt;Node28</title>
<g id="a_edge44_Node000020_Node000028"><a xlink:title=" ">
<path fill="none" stroke="#63b8ff" d="M635.45,-568.94C525.6,-553.53 283.42,-501.63 193,-338 183.56,-320.92 186.54,-298.61 191.17,-281.89"/>
<polygon fill="#63b8ff" stroke="#63b8ff" points="194.53,-282.88 194.18,-272.29 187.85,-280.79 194.53,-282.88"/>
</a>
</g>
</g>
<!-- Node30 -->
<g id="Node000030" class="node">
<title>Node30</title>
<g id="a_Node000030"><a xlink:href="schedule__types_8h.html" target="_top" xlink:title="ODP schedule.">
<polygon fill="white" stroke="#666666" points="712,-525 572,-525 572,-506 712,-506 712,-525"/>
<text text-anchor="middle" x="642" y="-513" font-family="Helvetica,sans-Serif" font-size="10.00">odp/api/schedule_types.h</text>
</a>
</g>
</g>
<!-- Node20&#45;&gt;Node30 -->
<g id="edge45_Node000020_Node000030" class="edge">
<title>Node20&#45;&gt;Node30</title>
<g id="a_edge45_Node000020_Node000030"><a xlink:title=" ">
<path fill="none" stroke="#63b8ff" d="M679.14,-560.84C672.1,-552.43 663.14,-541.74 655.79,-532.96"/>
<polygon fill="#63b8ff" stroke="#63b8ff" points="658.45,-530.68 649.34,-525.27 653.08,-535.18 658.45,-530.68"/>
</a>
</g>
</g>
<!-- Node22 -->
<g id="Node000022" class="node">
<title>Node22</title>
<g id="a_Node000022"><a xlink:title=" ">
<polygon fill="#e0e0e0" stroke="#999999" points="965.5,-338 828.5,-338 828.5,-308 965.5,-308 965.5,-338"/>
<text text-anchor="start" x="836.5" y="-326" font-family="Helvetica,sans-Serif" font-size="10.00">odp/api/abi/event_vector</text>
<text text-anchor="middle" x="897" y="-315" font-family="Helvetica,sans-Serif" font-size="10.00">_types.h</text>
</a>
</g>
</g>
<!-- Node21&#45;&gt;Node22 -->
<g id="edge28_Node000021_Node000022" class="edge">
<title>Node21&#45;&gt;Node22</title>
<g id="a_edge28_Node000021_Node000022"><a xlink:title=" ">
<path fill="none" stroke="#63b8ff" d="M774.45,-373.95C797.56,-364.53 828.2,-352.04 853.06,-341.91"/>
<polygon fill="#63b8ff" stroke="#63b8ff" points="854.69,-345.03 862.63,-338.01 852.04,-338.55 854.69,-345.03"/>
</a>
</g>
</g>
<!-- Node23 -->
<g id="Node000023" class="node">
<title>Node23</title>
<g id="a_Node000023"><a xlink:title=" ">
<polygon fill="#e0e0e0" stroke="#999999" points="810,-332.5 674,-332.5 674,-313.5 810,-313.5 810,-332.5"/>
<text text-anchor="middle" x="742" y="-320.5" font-family="Helvetica,sans-Serif" font-size="10.00">odp/api/abi/pool_types.h</text>
</a>
</g>
</g>
<!-- Node21&#45;&gt;Node23 -->
<g id="edge29_Node000021_Node000023" class="edge">
<title>Node21&#45;&gt;Node23</title>
<g id="a_edge29_Node000021_Node000023"><a xlink:title=" ">
<path fill="none" stroke="#63b8ff" d="M740.44,-373.8C740.73,-364.7 741.1,-352.79 741.41,-342.9"/>
<polygon fill="#63b8ff" stroke="#63b8ff" points="744.91,-342.95 741.72,-332.84 737.91,-342.73 744.91,-342.95"/>
</a>
</g>
</g>
<!-- Node24 -->
<g id="Node000024" class="node">
<title>Node24</title>
<g id="a_Node000024"><a xlink:href="spec_2event__vector__types_8h.html" target="_top" xlink:title="ODP event vector API type definitions.">
<polygon fill="white" stroke="#666666" points="468.5,-338 359.5,-338 359.5,-308 468.5,-308 468.5,-338"/>
<text text-anchor="start" x="367.5" y="-326" font-family="Helvetica,sans-Serif" font-size="10.00">odp/api/spec/event</text>
<text text-anchor="middle" x="414" y="-315" font-family="Helvetica,sans-Serif" font-size="10.00">_vector_types.h</text>
</a>
</g>
</g>
<!-- Node21&#45;&gt;Node24 -->
<g id="edge30_Node000021_Node000024" class="edge">
<title>Node21&#45;&gt;Node24</title>
<g id="a_edge30_Node000021_Node000024"><a xlink:title=" ">
<path fill="none" stroke="#63b8ff" d="M680.36,-377.2C629.28,-367.83 553.5,-353.64 478.68,-338.31"/>
<polygon fill="#63b8ff" stroke="#63b8ff" points="479.11,-334.83 468.61,-336.24 477.7,-341.69 479.11,-334.83"/>
</a>
</g>
</g>
<!-- Node24&#45;&gt;Node2 -->
<g id="edge31_Node000024_Node000002" class="edge">
<title>Node24&#45;&gt;Node2</title>
<g id="a_edge31_Node000024_Node000002"><a xlink:title=" ">
<path fill="none" stroke="#63b8ff" d="M381.46,-307.97C360.6,-298.58 333.19,-285.52 310,-272 308.61,-271.19 215.74,-207.42 215,-206 184.42,-147.52 208.21,-65.45 221.54,-29.09"/>
<polygon fill="#63b8ff" stroke="#63b8ff" points="224.96,-29.94 225.27,-19.35 218.42,-27.44 224.96,-29.94"/>
</a>
</g>
</g>
<!-- Node24&#45;&gt;Node10 -->
<g id="edge42_Node000024_Node000010" class="edge">
<title>Node24&#45;&gt;Node10</title>
<g id="a_edge42_Node000024_Node000010"><a xlink:title=" ">
<path fill="none" stroke="#63b8ff" d="M468.56,-309.43C471.4,-308.92 474.23,-308.43 477,-308 649.41,-281.02 695.31,-297.15 868,-272 874.84,-271 882.02,-269.78 889.07,-268.47"/>
<polygon fill="#63b8ff" stroke="#63b8ff" points="890.09,-271.84 899.25,-266.51 888.77,-264.96 890.09,-271.84"/>
</a>
</g>
</g>
<!-- Node24&#45;&gt;Node17 -->
<g id="edge43_Node000024_Node000017" class="edge">
<title>Node24&#45;&gt;Node17</title>
<g id="a_edge43_Node000024_Node000017"><a xlink:title=" ">
<path fill="none" stroke="#63b8ff" d="M468.21,-307.97C542.94,-288.09 681.39,-249.27 796,-206 829.12,-193.5 910.75,-158.4 941,-140 974.8,-119.44 986.89,-116.37 1011,-85 1024.1,-67.95 1032.96,-44.72 1037.98,-28.76"/>
<polygon fill="#63b8ff" stroke="#63b8ff" points="1041.37,-29.62 1040.84,-19.04 1034.66,-27.64 1041.37,-29.62"/>
</a>
</g>
</g>
<!-- Node25 -->
<g id="Node000025" class="node">
<title>Node25</title>
<g id="a_Node000025"><a xlink:href="event__types_8h.html" target="_top" xlink:title="ODP event API type definitions.">
<polygon fill="white" stroke="#666666" points="614.5,-140 489.5,-140 489.5,-121 614.5,-121 614.5,-140"/>
<text text-anchor="middle" x="552" y="-128" font-family="Helvetica,sans-Serif" font-size="10.00">odp/api/event_types.h</text>
</a>
</g>
</g>
<!-- Node24&#45;&gt;Node25 -->
<g id="edge32_Node000024_Node000025" class="edge">
<title>Node24&#45;&gt;Node25</title>
<g id="a_edge32_Node000024_Node000025"><a xlink:title=" ">
<path fill="none" stroke="#63b8ff" d="M424.15,-307.99C448.94,-273.77 512.52,-186.01 539.54,-148.7"/>
<polygon fill="#63b8ff" stroke="#63b8ff" points="542.55,-150.51 545.58,-140.36 536.88,-146.41 542.55,-150.51"/>
</a>
</g>
</g>
<!-- Node24&#45;&gt;Node28 -->
<g id="edge37_Node000024_Node000028" class="edge">
<title>Node24&#45;&gt;Node28</title>
<g id="a_edge37_Node000024_Node000028"><a xlink:title=" ">
<path fill="none" stroke="#63b8ff" d="M367.04,-307.95C334.56,-298.24 291.18,-285.27 256.76,-274.98"/>
<polygon fill="#63b8ff" stroke="#63b8ff" points="257.44,-271.52 246.85,-272.01 255.43,-278.23 257.44,-271.52"/>
</a>
</g>
</g>
<!-- Node26 -->
<g id="Node000026" class="node">
<title>Node26</title>
<g id="a_Node000026"><a xlink:title=" ">
<polygon fill="#e0e0e0" stroke="#999999" points="680.5,-79.5 537.5,-79.5 537.5,-60.5 680.5,-60.5 680.5,-79.5"/>
<text text-anchor="middle" x="609" y="-67.5" font-family="Helvetica,sans-Serif" font-size="10.00">odp/api/abi/event_types.h</text>
</a>
</g>
</g>
<!-- Node25&#45;&gt;Node26 -->
<g id="edge33_Node000025_Node000026" class="edge">
<title>Node25&#45;&gt;Node26</title>
<g id="a_edge33_Node000025_Node000026"><a xlink:title=" ">
<path fill="none" stroke="#63b8ff" d="M560.41,-120.87C569.08,-111.97 582.8,-97.89 593.46,-86.95"/>
<polygon fill="#63b8ff" stroke="#63b8ff" points="596.08,-89.27 600.55,-79.67 591.07,-84.39 596.08,-89.27"/>
</a>
</g>
</g>
<!-- Node27 -->
<g id="Node000027" class="node">
<title>Node27</title>
<g id="a_Node000027"><a xlink:href="spec_2event__types_8h.html" target="_top" xlink:title="ODP event API type definitions.">
<polygon fill="white" stroke="#666666" points="480.5,-85 371.5,-85 371.5,-55 480.5,-55 480.5,-85"/>
<text text-anchor="start" x="379.5" y="-73" font-family="Helvetica,sans-Serif" font-size="10.00">odp/api/spec/event</text>
<text text-anchor="middle" x="426" y="-62" font-family="Helvetica,sans-Serif" font-size="10.00">_types.h</text>
</a>
</g>
</g>
<!-- Node25&#45;&gt;Node27 -->
<g id="edge34_Node000025_Node000027" class="edge">
<title>Node25&#45;&gt;Node27</title>
<g id="a_edge34_Node000025_Node000027"><a xlink:title=" ">
<path fill="none" stroke="#63b8ff" d="M533.68,-120.99C515.92,-112.75 488.41,-99.98 465.64,-89.4"/>
<polygon fill="#63b8ff" stroke="#63b8ff" points="467.08,-86.21 456.54,-85.18 464.13,-92.56 467.08,-86.21"/>
</a>
</g>
</g>
<!-- Node27&#45;&gt;Node2 -->
<g id="edge35_Node000027_Node000002" class="edge">
<title>Node27&#45;&gt;Node2</title>
<g id="a_edge35_Node000027_Node000002"><a xlink:title=" ">
<path fill="none" stroke="#63b8ff" d="M378.81,-54.99C344.82,-44.89 299.5,-31.44 267.64,-21.98"/>
<polygon fill="#63b8ff" stroke="#63b8ff" points="268.39,-18.55 257.8,-19.05 266.39,-25.26 268.39,-18.55"/>
</a>
</g>
</g>
<!-- Node27&#45;&gt;Node17 -->
<g id="edge36_Node000027_Node000017" class="edge">
<title>Node27&#45;&gt;Node17</title>
<g id="a_edge36_Node000027_Node000017"><a xlink:title=" ">
<path fill="none" stroke="#63b8ff" d="M480.51,-57.32C485.4,-56.46 490.28,-55.67 495,-55 667.69,-30.56 873.05,-18.34 976.46,-13.34"/>
<polygon fill="#63b8ff" stroke="#63b8ff" points="976.92,-16.82 986.74,-12.85 976.59,-9.83 976.92,-16.82"/>
</a>
</g>
</g>
<!-- Node29 -->
<g id="Node000029" class="node">
<title>Node29</title>
<g id="a_Node000029"><a xlink:href="spec_2queue__stats__types_8h.html" target="_top" xlink:title="ODP queue statistics types.">
<polygon fill="white" stroke="#666666" points="368.5,-206 257.5,-206 257.5,-176 368.5,-176 368.5,-206"/>
<text text-anchor="start" x="265.5" y="-194" font-family="Helvetica,sans-Serif" font-size="10.00">odp/api/spec/queue</text>
<text text-anchor="middle" x="313" y="-183" font-family="Helvetica,sans-Serif" font-size="10.00">_stats_types.h</text>
</a>
</g>
</g>
<!-- Node28&#45;&gt;Node29 -->
<g id="edge38_Node000028_Node000029" class="edge">
<title>Node28&#45;&gt;Node29</title>
<g id="a_edge38_Node000028_Node000029"><a xlink:title=" ">
<path fill="none" stroke="#63b8ff" d="M224.8,-241.95C240.84,-232.87 261.93,-220.93 279.46,-211"/>
<polygon fill="#63b8ff" stroke="#63b8ff" points="281.28,-213.99 288.26,-206.01 277.83,-207.9 281.28,-213.99"/>
</a>
</g>
</g>
<!-- Node29&#45;&gt;Node2 -->
<g id="edge39_Node000029_Node000002" class="edge">
<title>Node29&#45;&gt;Node2</title>
<g id="a_edge39_Node000029_Node000002"><a xlink:title=" ">
<path fill="none" stroke="#63b8ff" d="M306.41,-175.91C291.27,-143.57 254.05,-64.02 237.35,-28.33"/>
<polygon fill="#63b8ff" stroke="#63b8ff" points="240.45,-26.71 233.04,-19.13 234.11,-29.68 240.45,-26.71"/>
</a>
</g>
</g>
<!-- Node29&#45;&gt;Node13 -->
<g id="edge40_Node000029_Node000013" class="edge">
<title>Node29&#45;&gt;Node13</title>
<g id="a_edge40_Node000029_Node000013"><a xlink:title=" ">
<path fill="none" stroke="#63b8ff" d="M326.31,-175.84C334.3,-167.35 344.48,-156.52 352.78,-147.69"/>
<polygon fill="#63b8ff" stroke="#63b8ff" points="355.46,-149.95 359.76,-140.27 350.36,-145.15 355.46,-149.95"/>
</a>
</g>
</g>
<!-- Node29&#45;&gt;Node17 -->
<g id="edge41_Node000029_Node000017" class="edge">
<title>Node29&#45;&gt;Node17</title>
<g id="a_edge41_Node000029_Node000017"><a xlink:title=" ">
<path fill="none" stroke="#63b8ff" d="M312.86,-175.98C313.49,-160.34 317.01,-135.35 332,-121 383.7,-71.49 424.25,-115.53 489,-85 508.78,-75.67 507.62,-62.93 528,-55 608.05,-23.86 856.33,-14.41 976.5,-11.62"/>
<polygon fill="#63b8ff" stroke="#63b8ff" points="976.75,-15.12 986.67,-11.4 976.6,-8.12 976.75,-15.12"/>
</a>
</g>
</g>
<!-- Node31 -->
<g id="Node000031" class="node">
<title>Node31</title>
<g id="a_Node000031"><a xlink:title=" ">
<polygon fill="#e0e0e0" stroke="#999999" points="563.5,-470 446.5,-470 446.5,-440 563.5,-440 563.5,-470"/>
<text text-anchor="start" x="454.5" y="-458" font-family="Helvetica,sans-Serif" font-size="10.00">odp/api/abi/schedule</text>
<text text-anchor="middle" x="505" y="-447" font-family="Helvetica,sans-Serif" font-size="10.00">_types.h</text>
</a>
</g>
</g>
<!-- Node30&#45;&gt;Node31 -->
<g id="edge46_Node000030_Node000031" class="edge">
<title>Node30&#45;&gt;Node31</title>
<g id="a_edge46_Node000030_Node000031"><a xlink:title=" ">
<path fill="none" stroke="#63b8ff" d="M622.08,-505.99C602.53,-497.65 572.12,-484.66 547.19,-474.02"/>
<polygon fill="#63b8ff" stroke="#63b8ff" points="548.51,-470.77 537.94,-470.06 545.76,-477.21 548.51,-470.77"/>
</a>
</g>
</g>
<!-- Node32 -->
<g id="Node000032" class="node">
<title>Node32</title>
<g id="a_Node000032"><a xlink:href="spec_2schedule__types_8h.html" target="_top" xlink:title="ODP schedule types.">
<polygon fill="white" stroke="#666666" points="706.5,-470 581.5,-470 581.5,-440 706.5,-440 706.5,-470"/>
<text text-anchor="start" x="589.5" y="-458" font-family="Helvetica,sans-Serif" font-size="10.00">odp/api/spec/schedule</text>
<text text-anchor="middle" x="644" y="-447" font-family="Helvetica,sans-Serif" font-size="10.00">_types.h</text>
</a>
</g>
</g>
<!-- Node30&#45;&gt;Node32 -->
<g id="edge47_Node000030_Node000032" class="edge">
<title>Node30&#45;&gt;Node32</title>
<g id="a_edge47_Node000030_Node000032"><a xlink:title=" ">
<path fill="none" stroke="#63b8ff" d="M642.3,-505.87C642.53,-499.11 642.86,-489.35 643.17,-480.26"/>
<polygon fill="#63b8ff" stroke="#63b8ff" points="646.67,-480.23 643.52,-470.11 639.68,-479.99 646.67,-480.23"/>
</a>
</g>
</g>
<!-- Node32&#45;&gt;Node2 -->
<g id="edge48_Node000032_Node000002" class="edge">
<title>Node32&#45;&gt;Node2</title>
<g id="a_edge48_Node000032_Node000002"><a xlink:title=" ">
<path fill="none" stroke="#63b8ff" d="M581.21,-441.56C578.1,-441.01 575.02,-440.49 572,-440 355.81,-404.81 114,-477.04 114,-258 114,-258 114,-258 114,-129.5 114,-79.34 167.49,-42.25 201.5,-23.73"/>
<polygon fill="#63b8ff" stroke="#63b8ff" points="203.29,-26.75 210.52,-19.01 200.04,-20.55 203.29,-26.75"/>
</a>
</g>
</g>
<!-- Node32&#45;&gt;Node10 -->
<g id="edge51_Node000032_Node000010" class="edge">
<title>Node32&#45;&gt;Node10</title>
<g id="a_edge51_Node000032_Node000010"><a xlink:title=" ">
<path fill="none" stroke="#63b8ff" d="M641.17,-439.64C636.33,-410.49 630.09,-344.07 665,-308 696.86,-275.08 822.98,-280.49 868,-272 873.85,-270.9 879.97,-269.71 886.06,-268.52"/>
<polygon fill="#63b8ff" stroke="#63b8ff" points="887.07,-271.89 896.2,-266.52 885.71,-265.02 887.07,-271.89"/>
</a>
</g>
</g>
<!-- Node32&#45;&gt;Node17 -->
<g id="edge58_Node000032_Node000017" class="edge">
<title>Node32&#45;&gt;Node17</title>
<g id="a_edge58_Node000032_Node000017"><a xlink:title=" ">
<path fill="none" stroke="#63b8ff" d="M706.59,-450C835.57,-440.04 1119,-408.54 1119,-324 1119,-324 1119,-324 1119,-129.5 1119,-86.71 1083.66,-46.94 1061.18,-25.97"/>
<polygon fill="#63b8ff" stroke="#63b8ff" points="1063.34,-23.21 1053.57,-19.13 1058.66,-28.42 1063.34,-23.21"/>
</a>
</g>
</g>
<!-- Node32&#45;&gt;Node21 -->
<g id="edge49_Node000032_Node000021" class="edge">
<title>Node32&#45;&gt;Node21</title>
<g id="a_edge49_Node000032_Node000021"><a xlink:title=" ">
<path fill="none" stroke="#63b8ff" d="M665.31,-439.8C678.48,-431.01 695.59,-419.61 710.11,-409.93"/>
<polygon fill="#63b8ff" stroke="#63b8ff" points="712.37,-412.62 718.75,-404.16 708.49,-406.8 712.37,-412.62"/>
</a>
</g>
</g>
<!-- Node32&#45;&gt;Node28 -->
<g id="edge50_Node000032_Node000028" class="edge">
<title>Node32&#45;&gt;Node28</title>
<g id="a_edge50_Node000032_Node000028"><a xlink:title=" ">
<path fill="none" stroke="#63b8ff" d="M581.07,-441.3C466.54,-417.59 233.52,-366.46 209,-338 196.01,-322.92 194.69,-299.85 196.07,-282.36"/>
<polygon fill="#63b8ff" stroke="#63b8ff" points="199.56,-282.63 197.2,-272.3 192.61,-281.85 199.56,-282.63"/>
</a>
</g>
</g>
<!-- Node33 -->
<g id="Node000033" class="node">
<title>Node33</title>
<g id="a_Node000033"><a xlink:href="thrmask_8h.html" target="_top" xlink:title="ODP thread masks.">
<polygon fill="white" stroke="#666666" points="604.5,-398.5 499.5,-398.5 499.5,-379.5 604.5,-379.5 604.5,-398.5"/>
<text text-anchor="middle" x="552" y="-386.5" font-family="Helvetica,sans-Serif" font-size="10.00">odp/api/thrmask.h</text>
</a>
</g>
</g>
<!-- Node32&#45;&gt;Node33 -->
<g id="edge52_Node000032_Node000033" class="edge">
<title>Node32&#45;&gt;Node33</title>
<g id="a_edge52_Node000032_Node000033"><a xlink:title=" ">
<path fill="none" stroke="#63b8ff" d="M623.58,-439.8C608.45,-429.27 587.9,-414.97 572.7,-404.4"/>
<polygon fill="#63b8ff" stroke="#63b8ff" points="574.65,-401.5 564.45,-398.66 570.66,-407.24 574.65,-401.5"/>
</a>
</g>
</g>
<!-- Node34 -->
<g id="Node000034" class="node">
<title>Node34</title>
<g id="a_Node000034"><a xlink:title=" ">
<polygon fill="#e0e0e0" stroke="#999999" points="341.5,-332.5 218.5,-332.5 218.5,-313.5 341.5,-313.5 341.5,-332.5"/>
<text text-anchor="middle" x="280" y="-320.5" font-family="Helvetica,sans-Serif" font-size="10.00">odp/api/abi/thrmask.h</text>
</a>
</g>
</g>
<!-- Node33&#45;&gt;Node34 -->
<g id="edge53_Node000033_Node000034" class="edge">
<title>Node33&#45;&gt;Node34</title>
<g id="a_edge53_Node000033_Node000034"><a xlink:title=" ">
<path fill="none" stroke="#63b8ff" d="M515.6,-379.44C466.64,-367.92 379.56,-347.43 326.09,-334.84"/>
<polygon fill="#63b8ff" stroke="#63b8ff" points="326.72,-331.4 316.19,-332.51 325.12,-338.21 326.72,-331.4"/>
</a>
</g>
</g>
<!-- Node35 -->
<g id="Node000035" class="node">
<title>Node35</title>
<g id="a_Node000035"><a xlink:href="spec_2thrmask_8h.html" target="_top" xlink:title="ODP thread masks.">
<polygon fill="white" stroke="#666666" points="617.5,-332.5 486.5,-332.5 486.5,-313.5 617.5,-313.5 617.5,-332.5"/>
<text text-anchor="middle" x="552" y="-320.5" font-family="Helvetica,sans-Serif" font-size="10.00">odp/api/spec/thrmask.h</text>
</a>
</g>
</g>
<!-- Node33&#45;&gt;Node35 -->
<g id="edge54_Node000033_Node000035" class="edge">
<title>Node33&#45;&gt;Node35</title>
<g id="a_edge54_Node000033_Node000035"><a xlink:title=" ">
<path fill="none" stroke="#63b8ff" d="M552,-379.37C552,-370.16 552,-355.29 552,-343.27"/>
<polygon fill="#63b8ff" stroke="#63b8ff" points="555.5,-342.91 552,-332.91 548.5,-342.91 555.5,-342.91"/>
</a>
</g>
</g>
<!-- Node35&#45;&gt;Node2 -->
<g id="edge55_Node000035_Node000002" class="edge">
<title>Node35&#45;&gt;Node2</title>
<g id="a_edge55_Node000035_Node000002"><a xlink:title=" ">
<path fill="none" stroke="#63b8ff" d="M524.8,-313.43C453.55,-290.74 265.73,-229.24 248,-206 207.52,-152.92 217.84,-66.71 224.94,-29.07"/>
<polygon fill="#63b8ff" stroke="#63b8ff" points="228.41,-29.53 226.97,-19.04 221.55,-28.14 228.41,-29.53"/>
</a>
</g>
</g>
<!-- Node35&#45;&gt;Node10 -->
<g id="edge56_Node000035_Node000010" class="edge">
<title>Node35&#45;&gt;Node10</title>
<g id="a_edge56_Node000035_Node000010"><a xlink:title=" ">
<path fill="none" stroke="#63b8ff" d="M599.77,-313.46C610.38,-311.62 621.56,-309.71 632,-308 736.71,-290.85 763.51,-290.41 868,-272 874.17,-270.91 880.63,-269.71 887.02,-268.48"/>
<polygon fill="#63b8ff" stroke="#63b8ff" points="887.83,-271.89 896.97,-266.53 886.49,-265.02 887.83,-271.89"/>
</a>
</g>
</g>
<!-- Node35&#45;&gt;Node17 -->
<g id="edge57_Node000035_Node000017" class="edge">
<title>Node35&#45;&gt;Node17</title>
<g id="a_edge57_Node000035_Node000017"><a xlink:title=" ">
<path fill="none" stroke="#63b8ff" d="M575.84,-313.42C645.1,-287.63 849.8,-205.06 983,-85 1002.39,-67.53 1020.58,-43.43 1031.74,-27.43"/>
<polygon fill="#63b8ff" stroke="#63b8ff" points="1034.71,-29.29 1037.46,-19.05 1028.93,-25.34 1034.71,-29.29"/>
</a>
</g>
</g>
</g>
</svg>
