<?xml version="1.0" encoding="UTF-8" standalone="no"?>
<!DOCTYPE svg PUBLIC "-//W3C//DTD SVG 1.1//EN"
 "http://www.w3.org/Graphics/SVG/1.1/DTD/svg11.dtd">
<!-- Generated by graphviz version 2.43.0 (0)
 -->
<!-- Title: random.h Pages: 1 -->
<svg width="460pt" height="431pt"
 viewBox="0.00 0.00 459.50 431.00" xmlns="http://www.w3.org/2000/svg" xmlns:xlink="http://www.w3.org/1999/xlink">
<g id="graph0" class="graph" transform="scale(1 1) rotate(0) translate(4 427)">
<title>random.h</title>
<polygon fill="white" stroke="transparent" points="-4,4 -4,-427 455.5,-427 455.5,4 -4,4"/>
<!-- Node1 -->
<g id="node1" class="node">
<title>Node1</title>
<g id="a_node1"><a xlink:title="ODP random number API.">
<polygon fill="#bfbfbf" stroke="black" points="134,-403.5 134,-422.5 197,-422.5 197,-403.5 134,-403.5"/>
<text text-anchor="middle" x="165.5" y="-410.5" font-family="Helvetica,sans-Serif" font-size="10.00">random.h</text>
</a>
</g>
</g>
<!-- Node2 -->
<g id="node2" class="node">
<title>Node2</title>
<g id="a_node2"><a xlink:title=" ">
<polygon fill="white" stroke="#bfbfbf" points="0,-0.5 0,-19.5 121,-19.5 121,-0.5 0,-0.5"/>
<text text-anchor="middle" x="60.5" y="-7.5" font-family="Helvetica,sans-Serif" font-size="10.00">odp/visibility_begin.h</text>
</a>
</g>
</g>
<!-- Node1&#45;&gt;Node2 -->
<g id="edge1" class="edge">
<title>Node1&#45;&gt;Node2</title>
<path fill="none" stroke="midnightblue" d="M133.83,-406.83C106.94,-401.05 68.67,-389.41 42.5,-367 15.3,-343.71 3.5,-332.31 3.5,-296.5 3.5,-296.5 3.5,-296.5 3.5,-121 3.5,-84.3 28.82,-47.66 45.71,-27.3"/>
<polygon fill="midnightblue" stroke="midnightblue" points="48.45,-29.48 52.33,-19.62 43.15,-24.9 48.45,-29.48"/>
</g>
<!-- Node3 -->
<g id="node3" class="node">
<title>Node3</title>
<g id="a_node3"><a xlink:href="random__types_8h.html" target="_top" xlink:title="ODP random number API.">
<polygon fill="white" stroke="black" points="51.5,-347.5 51.5,-366.5 185.5,-366.5 185.5,-347.5 51.5,-347.5"/>
<text text-anchor="middle" x="118.5" y="-354.5" font-family="Helvetica,sans-Serif" font-size="10.00">odp/api/random_types.h</text>
</a>
</g>
</g>
<!-- Node1&#45;&gt;Node3 -->
<g id="edge2" class="edge">
<title>Node1&#45;&gt;Node3</title>
<path fill="none" stroke="midnightblue" d="M157.74,-403.08C150.96,-395.3 140.96,-383.8 132.74,-374.37"/>
<polygon fill="midnightblue" stroke="midnightblue" points="135.32,-372 126.12,-366.75 130.04,-376.59 135.32,-372"/>
</g>
<!-- Node5 -->
<g id="node5" class="node">
<title>Node5</title>
<g id="a_node5"><a xlink:href="std__types_8h.html" target="_top" xlink:title="Standard C language types and definitions for ODP.">
<polygon fill="white" stroke="black" points="117.5,-224.5 117.5,-243.5 229.5,-243.5 229.5,-224.5 117.5,-224.5"/>
<text text-anchor="middle" x="173.5" y="-231.5" font-family="Helvetica,sans-Serif" font-size="10.00">odp/api/std_types.h</text>
</a>
</g>
</g>
<!-- Node1&#45;&gt;Node5 -->
<g id="edge17" class="edge">
<title>Node1&#45;&gt;Node5</title>
<path fill="none" stroke="midnightblue" d="M173.17,-403.46C180.28,-394.93 190.35,-381.09 194.5,-367 206.19,-327.26 191.37,-278.77 181.32,-253.04"/>
<polygon fill="midnightblue" stroke="midnightblue" points="184.44,-251.42 177.4,-243.51 177.97,-254.08 184.44,-251.42"/>
</g>
<!-- Node12 -->
<g id="node12" class="node">
<title>Node12</title>
<g id="a_node12"><a xlink:title=" ">
<polygon fill="white" stroke="#bfbfbf" points="338.5,-0.5 338.5,-19.5 450.5,-19.5 450.5,-0.5 338.5,-0.5"/>
<text text-anchor="middle" x="394.5" y="-7.5" font-family="Helvetica,sans-Serif" font-size="10.00">odp/visibility_end.h</text>
</a>
</g>
</g>
<!-- Node1&#45;&gt;Node12 -->
<g id="edge18" class="edge">
<title>Node1&#45;&gt;Node12</title>
<path fill="none" stroke="midnightblue" d="M197.2,-406.19C271.66,-391.63 451.5,-350.85 451.5,-296.5 451.5,-296.5 451.5,-296.5 451.5,-121 451.5,-84.3 426.18,-47.66 409.29,-27.3"/>
<polygon fill="midnightblue" stroke="midnightblue" points="411.85,-24.9 402.67,-19.62 406.55,-29.48 411.85,-24.9"/>
</g>
<!-- Node4 -->
<g id="node4" class="node">
<title>Node4</title>
<g id="a_node4"><a xlink:href="spec_2random__types_8h.html" target="_top" xlink:title="ODP random number API.">
<polygon fill="white" stroke="black" points="62,-280.5 62,-310.5 181,-310.5 181,-280.5 62,-280.5"/>
<text text-anchor="start" x="70" y="-298.5" font-family="Helvetica,sans-Serif" font-size="10.00">odp/api/spec/random</text>
<text text-anchor="middle" x="121.5" y="-287.5" font-family="Helvetica,sans-Serif" font-size="10.00">_types.h</text>
</a>
</g>
</g>
<!-- Node3&#45;&gt;Node4 -->
<g id="edge3" class="edge">
<title>Node3&#45;&gt;Node4</title>
<path fill="none" stroke="midnightblue" d="M118.93,-347.48C119.28,-340.47 119.8,-330.19 120.28,-320.7"/>
<polygon fill="midnightblue" stroke="midnightblue" points="123.78,-320.69 120.79,-310.52 116.79,-320.33 123.78,-320.69"/>
</g>
<!-- Node4&#45;&gt;Node2 -->
<g id="edge4" class="edge">
<title>Node4&#45;&gt;Node2</title>
<path fill="none" stroke="midnightblue" d="M102.95,-280.29C79.31,-260.42 41.5,-221.93 41.5,-179 41.5,-179 41.5,-179 41.5,-121 41.5,-88.49 49.66,-51.35 55.28,-29.61"/>
<polygon fill="midnightblue" stroke="midnightblue" points="58.72,-30.32 57.94,-19.75 51.96,-28.5 58.72,-30.32"/>
</g>
<!-- Node4&#45;&gt;Node5 -->
<g id="edge5" class="edge">
<title>Node4&#45;&gt;Node5</title>
<path fill="none" stroke="midnightblue" d="M133.82,-280.4C141.46,-271.66 151.29,-260.41 159.26,-251.3"/>
<polygon fill="midnightblue" stroke="midnightblue" points="161.99,-253.49 165.93,-243.66 156.72,-248.88 161.99,-253.49"/>
</g>
<!-- Node4&#45;&gt;Node12 -->
<g id="edge16" class="edge">
<title>Node4&#45;&gt;Node12</title>
<path fill="none" stroke="midnightblue" d="M181.3,-283.42C266.72,-265.85 413.5,-228.47 413.5,-179 413.5,-179 413.5,-179 413.5,-121 413.5,-88.49 405.34,-51.35 399.72,-29.61"/>
<polygon fill="midnightblue" stroke="midnightblue" points="403.04,-28.5 397.06,-19.75 396.28,-30.32 403.04,-28.5"/>
</g>
<!-- Node6 -->
<g id="node6" class="node">
<title>Node6</title>
<g id="a_node6"><a xlink:title=" ">
<polygon fill="white" stroke="#bfbfbf" points="70.5,-168.5 70.5,-187.5 200.5,-187.5 200.5,-168.5 70.5,-168.5"/>
<text text-anchor="middle" x="135.5" y="-175.5" font-family="Helvetica,sans-Serif" font-size="10.00">odp/api/abi/std_types.h</text>
</a>
</g>
</g>
<!-- Node5&#45;&gt;Node6 -->
<g id="edge6" class="edge">
<title>Node5&#45;&gt;Node6</title>
<path fill="none" stroke="midnightblue" d="M167.23,-224.08C161.86,-216.46 153.98,-205.26 147.42,-195.94"/>
<polygon fill="midnightblue" stroke="midnightblue" points="150.28,-193.91 141.66,-187.75 144.55,-197.94 150.28,-193.91"/>
</g>
<!-- Node7 -->
<g id="node7" class="node">
<title>Node7</title>
<g id="a_node7"><a xlink:href="spec_2std__types_8h.html" target="_top" xlink:title="Common types and definitions for ODP API files.">
<polygon fill="white" stroke="black" points="219,-168.5 219,-187.5 356,-187.5 356,-168.5 219,-168.5"/>
<text text-anchor="middle" x="287.5" y="-175.5" font-family="Helvetica,sans-Serif" font-size="10.00">odp/api/spec/std_types.h</text>
</a>
</g>
</g>
<!-- Node5&#45;&gt;Node7 -->
<g id="edge7" class="edge">
<title>Node5&#45;&gt;Node7</title>
<path fill="none" stroke="midnightblue" d="M191.56,-224.44C210.07,-215.68 239.08,-201.94 260.36,-191.86"/>
<polygon fill="midnightblue" stroke="midnightblue" points="261.98,-194.96 269.52,-187.52 258.99,-188.63 261.98,-194.96"/>
</g>
<!-- Node7&#45;&gt;Node2 -->
<g id="edge8" class="edge">
<title>Node7&#45;&gt;Node2</title>
<path fill="none" stroke="midnightblue" d="M254.21,-168.5C228.38,-161.07 192.26,-148.83 163.5,-132 130.59,-112.74 122.9,-105.3 98.5,-76 86.37,-61.43 75.79,-42.51 68.89,-28.84"/>
<polygon fill="midnightblue" stroke="midnightblue" points="71.9,-27.03 64.37,-19.57 65.61,-30.09 71.9,-27.03"/>
</g>
<!-- Node8 -->
<g id="node8" class="node">
<title>Node8</title>
<g id="a_node8"><a xlink:title=" ">
<polygon fill="white" stroke="#bfbfbf" points="173,-112.5 173,-131.5 226,-131.5 226,-112.5 173,-112.5"/>
<text text-anchor="middle" x="199.5" y="-119.5" font-family="Helvetica,sans-Serif" font-size="10.00">stdint.h</text>
</a>
</g>
</g>
<!-- Node7&#45;&gt;Node8 -->
<g id="edge9" class="edge">
<title>Node7&#45;&gt;Node8</title>
<path fill="none" stroke="midnightblue" d="M273.36,-168.32C259.63,-159.9 238.56,-146.97 222.44,-137.07"/>
<polygon fill="midnightblue" stroke="midnightblue" points="223.96,-133.9 213.6,-131.65 220.3,-139.87 223.96,-133.9"/>
</g>
<!-- Node9 -->
<g id="node9" class="node">
<title>Node9</title>
<g id="a_node9"><a xlink:href="align_8h.html" target="_top" xlink:title="ODP alignments.">
<polygon fill="white" stroke="black" points="244,-112.5 244,-131.5 333,-131.5 333,-112.5 244,-112.5"/>
<text text-anchor="middle" x="288.5" y="-119.5" font-family="Helvetica,sans-Serif" font-size="10.00">odp/api/align.h</text>
</a>
</g>
</g>
<!-- Node7&#45;&gt;Node9 -->
<g id="edge10" class="edge">
<title>Node7&#45;&gt;Node9</title>
<path fill="none" stroke="midnightblue" d="M287.67,-168.08C287.8,-161.01 287.98,-150.86 288.15,-141.99"/>
<polygon fill="midnightblue" stroke="midnightblue" points="291.65,-141.81 288.34,-131.75 284.65,-141.68 291.65,-141.81"/>
</g>
<!-- Node7&#45;&gt;Node12 -->
<g id="edge15" class="edge">
<title>Node7&#45;&gt;Node12</title>
<path fill="none" stroke="midnightblue" d="M301.29,-168.49C313.49,-160.38 331.07,-147.18 342.5,-132 366.82,-99.7 382.35,-54.29 389.64,-29.29"/>
<polygon fill="midnightblue" stroke="midnightblue" points="393.01,-30.22 392.33,-19.64 386.27,-28.34 393.01,-30.22"/>
</g>
<!-- Node10 -->
<g id="node10" class="node">
<title>Node10</title>
<g id="a_node10"><a xlink:title=" ">
<polygon fill="white" stroke="#bfbfbf" points="108,-56.5 108,-75.5 215,-75.5 215,-56.5 108,-56.5"/>
<text text-anchor="middle" x="161.5" y="-63.5" font-family="Helvetica,sans-Serif" font-size="10.00">odp/api/abi/align.h</text>
</a>
</g>
</g>
<!-- Node9&#45;&gt;Node10 -->
<g id="edge11" class="edge">
<title>Node9&#45;&gt;Node10</title>
<path fill="none" stroke="midnightblue" d="M268.38,-112.44C247.48,-103.56 214.57,-89.56 190.78,-79.45"/>
<polygon fill="midnightblue" stroke="midnightblue" points="192.1,-76.21 181.53,-75.52 189.36,-82.65 192.1,-76.21"/>
</g>
<!-- Node11 -->
<g id="node11" class="node">
<title>Node11</title>
<g id="a_node11"><a xlink:href="spec_2align_8h.html" target="_top" xlink:title="ODP alignments.">
<polygon fill="white" stroke="black" points="233.5,-56.5 233.5,-75.5 347.5,-75.5 347.5,-56.5 233.5,-56.5"/>
<text text-anchor="middle" x="290.5" y="-63.5" font-family="Helvetica,sans-Serif" font-size="10.00">odp/api/spec/align.h</text>
</a>
</g>
</g>
<!-- Node9&#45;&gt;Node11 -->
<g id="edge12" class="edge">
<title>Node9&#45;&gt;Node11</title>
<path fill="none" stroke="midnightblue" d="M288.83,-112.08C289.09,-105.01 289.47,-94.86 289.8,-85.99"/>
<polygon fill="midnightblue" stroke="midnightblue" points="293.3,-85.87 290.18,-75.75 286.31,-85.61 293.3,-85.87"/>
</g>
<!-- Node11&#45;&gt;Node2 -->
<g id="edge13" class="edge">
<title>Node11&#45;&gt;Node2</title>
<path fill="none" stroke="midnightblue" d="M254.06,-56.44C214.1,-47.06 149.91,-31.99 106.52,-21.8"/>
<polygon fill="midnightblue" stroke="midnightblue" points="107.31,-18.39 96.77,-19.52 105.71,-25.21 107.31,-18.39"/>
</g>
<!-- Node11&#45;&gt;Node12 -->
<g id="edge14" class="edge">
<title>Node11&#45;&gt;Node12</title>
<path fill="none" stroke="midnightblue" d="M307.21,-56.32C323.81,-47.7 349.5,-34.36 368.72,-24.39"/>
<polygon fill="midnightblue" stroke="midnightblue" points="370.57,-27.37 377.83,-19.65 367.34,-21.16 370.57,-27.37"/>
</g>
</g>
</svg>
