<?xml version="1.0" encoding="UTF-8" standalone="no"?>
<!DOCTYPE svg PUBLIC "-//W3C//DTD SVG 1.1//EN"
 "http://www.w3.org/Graphics/SVG/1.1/DTD/svg11.dtd">
<!-- Generated by graphviz version 2.43.0 (0)
 -->
<!-- Title: event_vector.h Pages: 1 -->
<svg width="1806pt" height="1046pt"
 viewBox="0.00 0.00 1806.00 1046.00" xmlns="http://www.w3.org/2000/svg" xmlns:xlink="http://www.w3.org/1999/xlink">
<g id="graph0" class="graph" transform="scale(1 1) rotate(0) translate(4 1042)">
<title>event_vector.h</title>
<polygon fill="white" stroke="transparent" points="-4,4 -4,-1042 1802,-1042 1802,4 -4,4"/>
<!-- Node1 -->
<g id="node1" class="node">
<title>Node1</title>
<g id="a_node1"><a xlink:title="ODP event vector.">
<polygon fill="#bfbfbf" stroke="black" points="1601.5,-1018.5 1601.5,-1037.5 1690.5,-1037.5 1690.5,-1018.5 1601.5,-1018.5"/>
<text text-anchor="middle" x="1646" y="-1025.5" font-family="Helvetica,sans-Serif" font-size="10.00">event_vector.h</text>
</a>
</g>
</g>
<!-- Node2 -->
<g id="node2" class="node">
<title>Node2</title>
<g id="a_node2"><a xlink:title=" ">
<polygon fill="white" stroke="#bfbfbf" points="1222.5,-0.5 1222.5,-19.5 1343.5,-19.5 1343.5,-0.5 1222.5,-0.5"/>
<text text-anchor="middle" x="1283" y="-7.5" font-family="Helvetica,sans-Serif" font-size="10.00">odp/visibility_begin.h</text>
</a>
</g>
</g>
<!-- Node1&#45;&gt;Node2 -->
<g id="edge1" class="edge">
<title>Node1&#45;&gt;Node2</title>
<path fill="none" stroke="midnightblue" d="M1680.87,-1018.4C1725.75,-1005 1798,-974.49 1798,-917 1798,-917 1798,-917 1798,-132 1798,-83.92 1764.49,-76.51 1721,-56 1657.7,-26.15 1460.9,-15.98 1353.94,-12.61"/>
<polygon fill="midnightblue" stroke="midnightblue" points="1353.98,-9.11 1343.87,-12.3 1353.76,-16.1 1353.98,-9.11"/>
</g>
<!-- Node3 -->
<g id="node3" class="node">
<title>Node3</title>
<g id="a_node3"><a xlink:href="event__types_8h.html" target="_top" xlink:title="ODP event API type definitions.">
<polygon fill="white" stroke="black" points="1410.5,-235.5 1410.5,-254.5 1535.5,-254.5 1535.5,-235.5 1410.5,-235.5"/>
<text text-anchor="middle" x="1473" y="-242.5" font-family="Helvetica,sans-Serif" font-size="10.00">odp/api/event_types.h</text>
</a>
</g>
</g>
<!-- Node1&#45;&gt;Node3 -->
<g id="edge2" class="edge">
<title>Node1&#45;&gt;Node3</title>
<path fill="none" stroke="midnightblue" d="M1657.54,-1018.43C1678.8,-1001.57 1722,-961.8 1722,-917 1722,-917 1722,-917 1722,-624 1722,-467.13 1716.44,-401.41 1605,-291 1588.22,-274.38 1565.06,-263.89 1542.82,-257.27"/>
<polygon fill="midnightblue" stroke="midnightblue" points="1543.59,-253.86 1533.02,-254.58 1541.74,-260.61 1543.59,-253.86"/>
</g>
<!-- Node6 -->
<g id="node6" class="node">
<title>Node6</title>
<g id="a_node6"><a xlink:title=" ">
<polygon fill="white" stroke="#bfbfbf" points="373,-0.5 373,-19.5 485,-19.5 485,-0.5 373,-0.5"/>
<text text-anchor="middle" x="429" y="-7.5" font-family="Helvetica,sans-Serif" font-size="10.00">odp/visibility_end.h</text>
</a>
</g>
</g>
<!-- Node1&#45;&gt;Node6 -->
<g id="edge83" class="edge">
<title>Node1&#45;&gt;Node6</title>
<path fill="none" stroke="midnightblue" d="M1601.12,-1026.41C1337.31,-1022.67 0,-999.61 0,-917 0,-917 0,-917 0,-132 0,-92.52 12.8,-77.36 46,-56 96.93,-23.23 267.14,-14.3 362.62,-11.89"/>
<polygon fill="midnightblue" stroke="midnightblue" points="362.83,-15.38 372.75,-11.65 362.67,-8.38 362.83,-15.38"/>
</g>
<!-- Node7 -->
<g id="node7" class="node">
<title>Node7</title>
<g id="a_node7"><a xlink:href="event__vector__types_8h.html" target="_top" xlink:title="ODP event vector API type definitions.">
<polygon fill="white" stroke="black" points="1159.5,-358.5 1159.5,-388.5 1278.5,-388.5 1278.5,-358.5 1159.5,-358.5"/>
<text text-anchor="start" x="1167.5" y="-376.5" font-family="Helvetica,sans-Serif" font-size="10.00">odp/api/event_vector</text>
<text text-anchor="middle" x="1219" y="-365.5" font-family="Helvetica,sans-Serif" font-size="10.00">_types.h</text>
</a>
</g>
</g>
<!-- Node1&#45;&gt;Node7 -->
<g id="edge7" class="edge">
<title>Node1&#45;&gt;Node7</title>
<path fill="none" stroke="midnightblue" d="M1646,-1018.44C1646,-999.94 1646,-954.81 1646,-917 1646,-917 1646,-917 1646,-859 1646,-623.92 1359.56,-448.91 1255.89,-393.26"/>
<polygon fill="midnightblue" stroke="midnightblue" points="1257.49,-390.15 1247.02,-388.55 1254.21,-396.33 1257.49,-390.15"/>
</g>
<!-- Node18 -->
<g id="node18" class="node">
<title>Node18</title>
<g id="a_node18"><a xlink:href="pool__types_8h.html" target="_top" xlink:title="ODP pool.">
<polygon fill="white" stroke="black" points="1301,-962.5 1301,-981.5 1419,-981.5 1419,-962.5 1301,-962.5"/>
<text text-anchor="middle" x="1360" y="-969.5" font-family="Helvetica,sans-Serif" font-size="10.00">odp/api/pool_types.h</text>
</a>
</g>
</g>
<!-- Node1&#45;&gt;Node18 -->
<g id="edge25" class="edge">
<title>Node1&#45;&gt;Node18</title>
<path fill="none" stroke="midnightblue" d="M1601.31,-1018.56C1551.13,-1009.09 1469.64,-993.7 1415.44,-983.47"/>
<polygon fill="midnightblue" stroke="midnightblue" points="1415.79,-979.97 1405.32,-981.56 1414.49,-986.85 1415.79,-979.97"/>
</g>
<!-- Node4 -->
<g id="node4" class="node">
<title>Node4</title>
<g id="a_node4"><a xlink:title=" ">
<polygon fill="white" stroke="#bfbfbf" points="1406.5,-179.5 1406.5,-198.5 1549.5,-198.5 1549.5,-179.5 1406.5,-179.5"/>
<text text-anchor="middle" x="1478" y="-186.5" font-family="Helvetica,sans-Serif" font-size="10.00">odp/api/abi/event_types.h</text>
</a>
</g>
</g>
<!-- Node3&#45;&gt;Node4 -->
<g id="edge3" class="edge">
<title>Node3&#45;&gt;Node4</title>
<path fill="none" stroke="midnightblue" d="M1473.83,-235.08C1474.48,-228.01 1475.42,-217.86 1476.24,-208.99"/>
<polygon fill="midnightblue" stroke="midnightblue" points="1479.75,-209.03 1477.19,-198.75 1472.78,-208.39 1479.75,-209.03"/>
</g>
<!-- Node5 -->
<g id="node5" class="node">
<title>Node5</title>
<g id="a_node5"><a xlink:href="spec_2event__types_8h.html" target="_top" xlink:title="ODP event API type definitions.">
<polygon fill="white" stroke="black" points="1050.5,-56.5 1050.5,-86.5 1159.5,-86.5 1159.5,-56.5 1050.5,-56.5"/>
<text text-anchor="start" x="1058.5" y="-74.5" font-family="Helvetica,sans-Serif" font-size="10.00">odp/api/spec/event</text>
<text text-anchor="middle" x="1105" y="-63.5" font-family="Helvetica,sans-Serif" font-size="10.00">_types.h</text>
</a>
</g>
</g>
<!-- Node3&#45;&gt;Node5 -->
<g id="edge4" class="edge">
<title>Node3&#45;&gt;Node5</title>
<path fill="none" stroke="midnightblue" d="M1454.75,-235.5C1397.89,-209 1223.03,-127.51 1144.22,-90.78"/>
<polygon fill="midnightblue" stroke="midnightblue" points="1145.65,-87.58 1135.11,-86.53 1142.69,-93.93 1145.65,-87.58"/>
</g>
<!-- Node5&#45;&gt;Node2 -->
<g id="edge5" class="edge">
<title>Node5&#45;&gt;Node2</title>
<path fill="none" stroke="midnightblue" d="M1147.18,-56.4C1177.81,-46.16 1218.77,-32.47 1247.67,-22.81"/>
<polygon fill="midnightblue" stroke="midnightblue" points="1248.98,-26.06 1257.36,-19.57 1246.77,-19.42 1248.98,-26.06"/>
</g>
<!-- Node5&#45;&gt;Node6 -->
<g id="edge6" class="edge">
<title>Node5&#45;&gt;Node6</title>
<path fill="none" stroke="midnightblue" d="M1050.29,-62.08C1035.01,-59.9 1018.38,-57.69 1003,-56 819.64,-35.8 602.35,-21.34 495.34,-14.84"/>
<polygon fill="midnightblue" stroke="midnightblue" points="495.52,-11.34 485.33,-14.24 495.1,-18.33 495.52,-11.34"/>
</g>
<!-- Node8 -->
<g id="node8" class="node">
<title>Node8</title>
<g id="a_node8"><a xlink:title=" ">
<polygon fill="white" stroke="#bfbfbf" points="1009.5,-291.5 1009.5,-321.5 1146.5,-321.5 1146.5,-291.5 1009.5,-291.5"/>
<text text-anchor="start" x="1017.5" y="-309.5" font-family="Helvetica,sans-Serif" font-size="10.00">odp/api/abi/event_vector</text>
<text text-anchor="middle" x="1078" y="-298.5" font-family="Helvetica,sans-Serif" font-size="10.00">_types.h</text>
</a>
</g>
</g>
<!-- Node7&#45;&gt;Node8 -->
<g id="edge8" class="edge">
<title>Node7&#45;&gt;Node8</title>
<path fill="none" stroke="midnightblue" d="M1188.41,-358.4C1167.71,-348.86 1140.18,-336.16 1117.78,-325.84"/>
<polygon fill="midnightblue" stroke="midnightblue" points="1119.08,-322.58 1108.54,-321.58 1116.15,-328.94 1119.08,-322.58"/>
</g>
<!-- Node9 -->
<g id="node9" class="node">
<title>Node9</title>
<g id="a_node9"><a xlink:title=" ">
<polygon fill="white" stroke="#bfbfbf" points="1444,-297 1444,-316 1580,-316 1580,-297 1444,-297"/>
<text text-anchor="middle" x="1512" y="-304" font-family="Helvetica,sans-Serif" font-size="10.00">odp/api/abi/pool_types.h</text>
</a>
</g>
</g>
<!-- Node7&#45;&gt;Node9 -->
<g id="edge9" class="edge">
<title>Node7&#45;&gt;Node9</title>
<path fill="none" stroke="midnightblue" d="M1278.65,-359.27C1333.12,-347.18 1412.67,-329.54 1463.38,-318.29"/>
<polygon fill="midnightblue" stroke="midnightblue" points="1464.43,-321.64 1473.43,-316.06 1462.91,-314.8 1464.43,-321.64"/>
</g>
<!-- Node10 -->
<g id="node10" class="node">
<title>Node10</title>
<g id="a_node10"><a xlink:href="spec_2event__vector__types_8h.html" target="_top" xlink:title="ODP event vector API type definitions.">
<polygon fill="white" stroke="black" points="1164.5,-291.5 1164.5,-321.5 1273.5,-321.5 1273.5,-291.5 1164.5,-291.5"/>
<text text-anchor="start" x="1172.5" y="-309.5" font-family="Helvetica,sans-Serif" font-size="10.00">odp/api/spec/event</text>
<text text-anchor="middle" x="1219" y="-298.5" font-family="Helvetica,sans-Serif" font-size="10.00">_vector_types.h</text>
</a>
</g>
</g>
<!-- Node7&#45;&gt;Node10 -->
<g id="edge10" class="edge">
<title>Node7&#45;&gt;Node10</title>
<path fill="none" stroke="midnightblue" d="M1219,-358.4C1219,-350.64 1219,-340.81 1219,-331.86"/>
<polygon fill="midnightblue" stroke="midnightblue" points="1222.5,-331.58 1219,-321.58 1215.5,-331.58 1222.5,-331.58"/>
</g>
<!-- Node10&#45;&gt;Node2 -->
<g id="edge11" class="edge">
<title>Node10&#45;&gt;Node2</title>
<path fill="none" stroke="midnightblue" d="M1228.54,-291.25C1241.75,-270.1 1264,-228.74 1264,-190 1264,-190 1264,-190 1264,-132 1264,-95.29 1272.64,-53.06 1278.27,-29.45"/>
<polygon fill="midnightblue" stroke="midnightblue" points="1281.67,-30.28 1280.67,-19.73 1274.87,-28.6 1281.67,-30.28"/>
</g>
<!-- Node10&#45;&gt;Node3 -->
<g id="edge12" class="edge">
<title>Node10&#45;&gt;Node3</title>
<path fill="none" stroke="midnightblue" d="M1273.8,-292.66C1319.44,-281.97 1383.69,-266.92 1426.77,-256.83"/>
<polygon fill="midnightblue" stroke="midnightblue" points="1427.76,-260.19 1436.7,-254.5 1426.16,-253.38 1427.76,-260.19"/>
</g>
<!-- Node10&#45;&gt;Node6 -->
<g id="edge24" class="edge">
<title>Node10&#45;&gt;Node6</title>
<path fill="none" stroke="midnightblue" d="M1172.4,-291.44C1122.54,-276.61 1041.01,-252.93 970,-235 898.49,-216.95 878.57,-220.43 808,-199 742.29,-179.05 727.39,-169.4 664,-143 607.43,-119.44 591.38,-117.11 538,-87 504.95,-68.36 469.36,-42.29 448.15,-26.04"/>
<polygon fill="midnightblue" stroke="midnightblue" points="450.04,-23.08 439.99,-19.73 445.76,-28.62 450.04,-23.08"/>
</g>
<!-- Node11 -->
<g id="node11" class="node">
<title>Node11</title>
<g id="a_node11"><a xlink:href="std__types_8h.html" target="_top" xlink:title="Standard C language types and definitions for ODP.">
<polygon fill="white" stroke="black" points="849,-235.5 849,-254.5 961,-254.5 961,-235.5 849,-235.5"/>
<text text-anchor="middle" x="905" y="-242.5" font-family="Helvetica,sans-Serif" font-size="10.00">odp/api/std_types.h</text>
</a>
</g>
</g>
<!-- Node10&#45;&gt;Node11 -->
<g id="edge13" class="edge">
<title>Node10&#45;&gt;Node11</title>
<path fill="none" stroke="midnightblue" d="M1164.4,-292.76C1161.56,-292.15 1158.75,-291.56 1156,-291 1091.75,-277.86 1017.82,-264.86 966.92,-256.24"/>
<polygon fill="midnightblue" stroke="midnightblue" points="967.5,-252.78 957.06,-254.57 966.34,-259.69 967.5,-252.78"/>
</g>
<!-- Node12 -->
<g id="node12" class="node">
<title>Node12</title>
<g id="a_node12"><a xlink:title=" ">
<polygon fill="white" stroke="#bfbfbf" points="1048,-179.5 1048,-198.5 1178,-198.5 1178,-179.5 1048,-179.5"/>
<text text-anchor="middle" x="1113" y="-186.5" font-family="Helvetica,sans-Serif" font-size="10.00">odp/api/abi/std_types.h</text>
</a>
</g>
</g>
<!-- Node11&#45;&gt;Node12 -->
<g id="edge14" class="edge">
<title>Node11&#45;&gt;Node12</title>
<path fill="none" stroke="midnightblue" d="M937.96,-235.44C973.79,-226.14 1031.16,-211.25 1070.39,-201.06"/>
<polygon fill="midnightblue" stroke="midnightblue" points="1071.4,-204.42 1080.2,-198.52 1069.64,-197.64 1071.4,-204.42"/>
</g>
<!-- Node13 -->
<g id="node13" class="node">
<title>Node13</title>
<g id="a_node13"><a xlink:href="spec_2std__types_8h.html" target="_top" xlink:title="Common types and definitions for ODP API files.">
<polygon fill="white" stroke="black" points="816.5,-179.5 816.5,-198.5 953.5,-198.5 953.5,-179.5 816.5,-179.5"/>
<text text-anchor="middle" x="885" y="-186.5" font-family="Helvetica,sans-Serif" font-size="10.00">odp/api/spec/std_types.h</text>
</a>
</g>
</g>
<!-- Node11&#45;&gt;Node13 -->
<g id="edge15" class="edge">
<title>Node11&#45;&gt;Node13</title>
<path fill="none" stroke="midnightblue" d="M901.7,-235.08C899.02,-227.85 895.15,-217.41 891.81,-208.4"/>
<polygon fill="midnightblue" stroke="midnightblue" points="895,-206.91 888.24,-198.75 888.43,-209.34 895,-206.91"/>
</g>
<!-- Node13&#45;&gt;Node2 -->
<g id="edge16" class="edge">
<title>Node13&#45;&gt;Node2</title>
<path fill="none" stroke="midnightblue" d="M906.66,-179.38C924.73,-171.54 950.58,-158.81 970,-143 1008.93,-111.32 998.75,-81.46 1042,-56 1093.73,-25.55 1161.61,-14.99 1212.14,-11.65"/>
<polygon fill="midnightblue" stroke="midnightblue" points="1212.55,-15.13 1222.33,-11.06 1212.14,-8.15 1212.55,-15.13"/>
</g>
<!-- Node13&#45;&gt;Node6 -->
<g id="edge23" class="edge">
<title>Node13&#45;&gt;Node6</title>
<path fill="none" stroke="midnightblue" d="M848.19,-179.44C789.76,-165.05 673.07,-133 582,-87 560.65,-76.21 558.96,-67.52 538,-56 514.04,-42.83 485.42,-31.15 463.51,-23"/>
<polygon fill="midnightblue" stroke="midnightblue" points="464.56,-19.65 453.96,-19.51 462.15,-26.23 464.56,-19.65"/>
</g>
<!-- Node14 -->
<g id="node14" class="node">
<title>Node14</title>
<g id="a_node14"><a xlink:title=" ">
<polygon fill="white" stroke="#bfbfbf" points="907.5,-123.5 907.5,-142.5 960.5,-142.5 960.5,-123.5 907.5,-123.5"/>
<text text-anchor="middle" x="934" y="-130.5" font-family="Helvetica,sans-Serif" font-size="10.00">stdint.h</text>
</a>
</g>
</g>
<!-- Node13&#45;&gt;Node14 -->
<g id="edge17" class="edge">
<title>Node13&#45;&gt;Node14</title>
<path fill="none" stroke="midnightblue" d="M893.09,-179.08C900.16,-171.3 910.59,-159.8 919.15,-150.37"/>
<polygon fill="midnightblue" stroke="midnightblue" points="921.93,-152.51 926.06,-142.75 916.75,-147.8 921.93,-152.51"/>
</g>
<!-- Node15 -->
<g id="node15" class="node">
<title>Node15</title>
<g id="a_node15"><a xlink:href="align_8h.html" target="_top" xlink:title="ODP alignments.">
<polygon fill="white" stroke="black" points="800.5,-123.5 800.5,-142.5 889.5,-142.5 889.5,-123.5 800.5,-123.5"/>
<text text-anchor="middle" x="845" y="-130.5" font-family="Helvetica,sans-Serif" font-size="10.00">odp/api/align.h</text>
</a>
</g>
</g>
<!-- Node13&#45;&gt;Node15 -->
<g id="edge18" class="edge">
<title>Node13&#45;&gt;Node15</title>
<path fill="none" stroke="midnightblue" d="M878.39,-179.08C872.74,-171.46 864.46,-160.26 857.55,-150.94"/>
<polygon fill="midnightblue" stroke="midnightblue" points="860.25,-148.7 851.48,-142.75 854.62,-152.87 860.25,-148.7"/>
</g>
<!-- Node16 -->
<g id="node16" class="node">
<title>Node16</title>
<g id="a_node16"><a xlink:title=" ">
<polygon fill="white" stroke="#bfbfbf" points="886.5,-62 886.5,-81 993.5,-81 993.5,-62 886.5,-62"/>
<text text-anchor="middle" x="940" y="-69" font-family="Helvetica,sans-Serif" font-size="10.00">odp/api/abi/align.h</text>
</a>
</g>
</g>
<!-- Node15&#45;&gt;Node16 -->
<g id="edge19" class="edge">
<title>Node15&#45;&gt;Node16</title>
<path fill="none" stroke="midnightblue" d="M858.61,-123.48C874.06,-113.8 899.49,-97.87 917.82,-86.39"/>
<polygon fill="midnightblue" stroke="midnightblue" points="919.8,-89.28 926.41,-81.01 916.08,-83.35 919.8,-89.28"/>
</g>
<!-- Node17 -->
<g id="node17" class="node">
<title>Node17</title>
<g id="a_node17"><a xlink:href="spec_2align_8h.html" target="_top" xlink:title="ODP alignments.">
<polygon fill="white" stroke="black" points="754,-62 754,-81 868,-81 868,-62 754,-62"/>
<text text-anchor="middle" x="811" y="-69" font-family="Helvetica,sans-Serif" font-size="10.00">odp/api/spec/align.h</text>
</a>
</g>
</g>
<!-- Node15&#45;&gt;Node17 -->
<g id="edge20" class="edge">
<title>Node15&#45;&gt;Node17</title>
<path fill="none" stroke="midnightblue" d="M840.13,-123.48C835.13,-114.73 827.21,-100.87 820.89,-89.81"/>
<polygon fill="midnightblue" stroke="midnightblue" points="823.86,-87.96 815.86,-81.01 817.78,-91.43 823.86,-87.96"/>
</g>
<!-- Node17&#45;&gt;Node2 -->
<g id="edge21" class="edge">
<title>Node17&#45;&gt;Node2</title>
<path fill="none" stroke="midnightblue" d="M847.03,-61.99C857.02,-59.83 867.9,-57.65 878,-56 994.5,-36.97 1131.2,-23.63 1212.26,-16.65"/>
<polygon fill="midnightblue" stroke="midnightblue" points="1212.69,-20.12 1222.35,-15.79 1212.09,-13.15 1212.69,-20.12"/>
</g>
<!-- Node17&#45;&gt;Node6 -->
<g id="edge22" class="edge">
<title>Node17&#45;&gt;Node6</title>
<path fill="none" stroke="midnightblue" d="M774.44,-61.96C764.89,-59.87 754.58,-57.73 745,-56 659.08,-40.47 559.21,-27.01 495.12,-18.95"/>
<polygon fill="midnightblue" stroke="midnightblue" points="495.5,-15.47 485.14,-17.71 494.63,-22.42 495.5,-15.47"/>
</g>
<!-- Node18&#45;&gt;Node9 -->
<g id="edge26" class="edge">
<title>Node18&#45;&gt;Node9</title>
<path fill="none" stroke="midnightblue" d="M1410.94,-962.44C1462.95,-950.89 1541.84,-925.03 1584,-870 1653.69,-779.04 1629.12,-729.36 1622,-615 1618.88,-564.93 1608,-553.17 1608,-503 1608,-503 1608,-503 1608,-439.5 1608,-388.65 1560.84,-344.24 1532.62,-322.21"/>
<polygon fill="midnightblue" stroke="midnightblue" points="1534.64,-319.35 1524.55,-316.12 1530.42,-324.94 1534.64,-319.35"/>
</g>
<!-- Node19 -->
<g id="node19" class="node">
<title>Node19</title>
<g id="a_node19"><a xlink:href="spec_2pool__types_8h.html" target="_top" xlink:title="Type definitions for pools.">
<polygon fill="white" stroke="black" points="1088.5,-906.5 1088.5,-925.5 1231.5,-925.5 1231.5,-906.5 1088.5,-906.5"/>
<text text-anchor="middle" x="1160" y="-913.5" font-family="Helvetica,sans-Serif" font-size="10.00">odp/api/spec/pool_types.h</text>
</a>
</g>
</g>
<!-- Node18&#45;&gt;Node19 -->
<g id="edge27" class="edge">
<title>Node18&#45;&gt;Node19</title>
<path fill="none" stroke="midnightblue" d="M1328.31,-962.44C1293.93,-953.16 1238.92,-938.31 1201.21,-928.13"/>
<polygon fill="midnightblue" stroke="midnightblue" points="1202.11,-924.74 1191.54,-925.52 1200.28,-931.5 1202.11,-924.74"/>
</g>
<!-- Node19&#45;&gt;Node2 -->
<g id="edge28" class="edge">
<title>Node19&#45;&gt;Node2</title>
<path fill="none" stroke="midnightblue" d="M1231.78,-906.91C1391.04,-884.57 1760,-806.68 1760,-564.5 1760,-564.5 1760,-564.5 1760,-132 1760,-81.32 1721.23,-76.75 1675,-56 1619.24,-30.97 1450.77,-18.97 1353.8,-14"/>
<polygon fill="midnightblue" stroke="midnightblue" points="1353.94,-10.5 1343.78,-13.5 1353.59,-17.49 1353.94,-10.5"/>
</g>
<!-- Node19&#45;&gt;Node6 -->
<g id="edge82" class="edge">
<title>Node19&#45;&gt;Node6</title>
<path fill="none" stroke="midnightblue" d="M1088.11,-915.79C840.47,-916.61 38,-902.65 38,-687.5 38,-687.5 38,-687.5 38,-132 38,-92.52 50.93,-77.58 84,-56 128.65,-26.87 275.74,-16.52 362.78,-12.9"/>
<polygon fill="midnightblue" stroke="midnightblue" points="362.98,-16.39 372.83,-12.5 362.7,-9.4 362.98,-16.39"/>
</g>
<!-- Node19&#45;&gt;Node11 -->
<g id="edge29" class="edge">
<title>Node19&#45;&gt;Node11</title>
<path fill="none" stroke="midnightblue" d="M1156.83,-906.27C1139.29,-857.99 1052.18,-618.88 977,-425 954.04,-365.8 925.6,-296.12 912.39,-263.94"/>
<polygon fill="midnightblue" stroke="midnightblue" points="915.56,-262.46 908.52,-254.54 909.09,-265.12 915.56,-262.46"/>
</g>
<!-- Node20 -->
<g id="node20" class="node">
<title>Node20</title>
<g id="a_node20"><a xlink:href="dma__types_8h.html" target="_top" xlink:title="ODP DMA.">
<polygon fill="white" stroke="black" points="798.5,-850.5 798.5,-869.5 917.5,-869.5 917.5,-850.5 798.5,-850.5"/>
<text text-anchor="middle" x="858" y="-857.5" font-family="Helvetica,sans-Serif" font-size="10.00">odp/api/dma_types.h</text>
</a>
</g>
</g>
<!-- Node19&#45;&gt;Node20 -->
<g id="edge30" class="edge">
<title>Node19&#45;&gt;Node20</title>
<path fill="none" stroke="midnightblue" d="M1112.15,-906.44C1058.8,-896.9 972.56,-881.48 915.56,-871.29"/>
<polygon fill="midnightblue" stroke="midnightblue" points="916.09,-867.83 905.63,-869.52 914.86,-874.72 916.09,-867.83"/>
</g>
<!-- Node41 -->
<g id="node41" class="node">
<title>Node41</title>
<g id="a_node41"><a xlink:href="ml__types_8h.html" target="_top" xlink:title="ODP Machine Learning (ML) types.">
<polygon fill="white" stroke="black" points="1172,-738.5 1172,-757.5 1282,-757.5 1282,-738.5 1172,-738.5"/>
<text text-anchor="middle" x="1227" y="-745.5" font-family="Helvetica,sans-Serif" font-size="10.00">odp/api/ml_types.h</text>
</a>
</g>
</g>
<!-- Node19&#45;&gt;Node41 -->
<g id="edge74" class="edge">
<title>Node19&#45;&gt;Node41</title>
<path fill="none" stroke="midnightblue" d="M1163.6,-906.08C1174.19,-879.83 1205.39,-802.55 1219.69,-767.12"/>
<polygon fill="midnightblue" stroke="midnightblue" points="1223.04,-768.15 1223.54,-757.57 1216.55,-765.53 1223.04,-768.15"/>
</g>
<!-- Node21 -->
<g id="node21" class="node">
<title>Node21</title>
<g id="a_node21"><a xlink:title=" ">
<polygon fill="white" stroke="#bfbfbf" points="789.5,-794.5 789.5,-813.5 926.5,-813.5 926.5,-794.5 789.5,-794.5"/>
<text text-anchor="middle" x="858" y="-801.5" font-family="Helvetica,sans-Serif" font-size="10.00">odp/api/abi/dma_types.h</text>
</a>
</g>
</g>
<!-- Node20&#45;&gt;Node21 -->
<g id="edge31" class="edge">
<title>Node20&#45;&gt;Node21</title>
<path fill="none" stroke="midnightblue" d="M858,-850.08C858,-843.01 858,-832.86 858,-823.99"/>
<polygon fill="midnightblue" stroke="midnightblue" points="861.5,-823.75 858,-813.75 854.5,-823.75 861.5,-823.75"/>
</g>
<!-- Node22 -->
<g id="node22" class="node">
<title>Node22</title>
<g id="a_node22"><a xlink:href="spec_2dma__types_8h.html" target="_top" xlink:title="ODP DMA.">
<polygon fill="white" stroke="black" points="488,-794.5 488,-813.5 632,-813.5 632,-794.5 488,-794.5"/>
<text text-anchor="middle" x="560" y="-801.5" font-family="Helvetica,sans-Serif" font-size="10.00">odp/api/spec/dma_types.h</text>
</a>
</g>
</g>
<!-- Node20&#45;&gt;Node22 -->
<g id="edge32" class="edge">
<title>Node20&#45;&gt;Node22</title>
<path fill="none" stroke="midnightblue" d="M810.78,-850.44C758.25,-840.92 673.39,-825.55 617.15,-815.36"/>
<polygon fill="midnightblue" stroke="midnightblue" points="617.46,-811.86 607,-813.52 616.21,-818.74 617.46,-811.86"/>
</g>
<!-- Node22&#45;&gt;Node2 -->
<g id="edge33" class="edge">
<title>Node22&#45;&gt;Node2</title>
<path fill="none" stroke="midnightblue" d="M632.26,-799.69C804.12,-791.66 1227.68,-770.84 1291,-758 1364.43,-743.11 1386.18,-741.24 1450,-702 1592.6,-614.33 1722,-608.89 1722,-441.5 1722,-441.5 1722,-441.5 1722,-132 1722,-76.53 1674.24,-77.25 1623,-56 1575.76,-36.41 1438.85,-22.85 1353.86,-16.05"/>
<polygon fill="midnightblue" stroke="midnightblue" points="1354.01,-12.55 1343.77,-15.25 1353.46,-19.53 1354.01,-12.55"/>
</g>
<!-- Node22&#45;&gt;Node3 -->
<g id="edge34" class="edge">
<title>Node22&#45;&gt;Node3</title>
<path fill="none" stroke="midnightblue" d="M604.22,-794.45C779.5,-759.34 1416,-619.56 1416,-441.5 1416,-441.5 1416,-441.5 1416,-372.5 1416,-335.31 1418.32,-324.24 1435,-291 1440.37,-280.31 1448.76,-269.99 1456.3,-261.94"/>
<polygon fill="midnightblue" stroke="midnightblue" points="1458.89,-264.29 1463.41,-254.71 1453.9,-259.38 1458.89,-264.29"/>
</g>
<!-- Node22&#45;&gt;Node6 -->
<g id="edge73" class="edge">
<title>Node22&#45;&gt;Node6</title>
<path fill="none" stroke="midnightblue" d="M487.8,-800.67C352.88,-794.33 76,-771.13 76,-687.5 76,-687.5 76,-687.5 76,-132 76,-92.28 89.81,-77.81 123,-56 161.33,-30.81 284.76,-19.2 362.65,-14.26"/>
<polygon fill="midnightblue" stroke="midnightblue" points="363.09,-17.74 372.86,-13.64 362.66,-10.76 363.09,-17.74"/>
</g>
<!-- Node22&#45;&gt;Node11 -->
<g id="edge71" class="edge">
<title>Node22&#45;&gt;Node11</title>
<path fill="none" stroke="midnightblue" d="M557.85,-794.24C552.53,-772.92 538.03,-716.68 522,-671 516.26,-654.64 512.45,-651.45 507,-635 487.98,-577.6 474,-563.47 474,-503 474,-503 474,-503 474,-439.5 474,-418.15 577.4,-301.5 596,-291 616.73,-279.3 754.42,-262.48 838.86,-253.06"/>
<polygon fill="midnightblue" stroke="midnightblue" points="839.33,-256.53 848.88,-251.95 838.56,-249.58 839.33,-256.53"/>
</g>
<!-- Node22&#45;&gt;Node18 -->
<g id="edge72" class="edge">
<title>Node22&#45;&gt;Node18</title>
<path fill="none" stroke="midnightblue" d="M587.42,-813.56C630.33,-826.78 716.12,-852.46 790,-870 968.8,-912.45 1182.98,-945.78 1290.78,-961.37"/>
<polygon fill="midnightblue" stroke="midnightblue" points="1290.47,-964.86 1300.87,-962.82 1291.47,-957.93 1290.47,-964.86"/>
</g>
<!-- Node23 -->
<g id="node23" class="node">
<title>Node23</title>
<g id="a_node23"><a xlink:href="packet__types_8h.html" target="_top" xlink:title="ODP packet.">
<polygon fill="white" stroke="black" points="327.5,-738.5 327.5,-757.5 456.5,-757.5 456.5,-738.5 327.5,-738.5"/>
<text text-anchor="middle" x="392" y="-745.5" font-family="Helvetica,sans-Serif" font-size="10.00">odp/api/packet_types.h</text>
</a>
</g>
</g>
<!-- Node22&#45;&gt;Node23 -->
<g id="edge35" class="edge">
<title>Node22&#45;&gt;Node23</title>
<path fill="none" stroke="midnightblue" d="M533.38,-794.44C504.99,-785.32 459.86,-770.81 428.25,-760.65"/>
<polygon fill="midnightblue" stroke="midnightblue" points="429.09,-757.24 418.5,-757.52 426.94,-763.91 429.09,-757.24"/>
</g>
<!-- Node32 -->
<g id="node32" class="node">
<title>Node32</title>
<g id="a_node32"><a xlink:href="queue__types_8h.html" target="_top" xlink:title="ODP queue.">
<polygon fill="white" stroke="black" points="515.5,-615.5 515.5,-634.5 642.5,-634.5 642.5,-615.5 515.5,-615.5"/>
<text text-anchor="middle" x="579" y="-622.5" font-family="Helvetica,sans-Serif" font-size="10.00">odp/api/queue_types.h</text>
</a>
</g>
</g>
<!-- Node22&#45;&gt;Node32 -->
<g id="edge70" class="edge">
<title>Node22&#45;&gt;Node32</title>
<path fill="none" stroke="midnightblue" d="M560.92,-794.46C563.82,-767.43 572.86,-683.24 576.95,-645.11"/>
<polygon fill="midnightblue" stroke="midnightblue" points="580.46,-645.18 578.05,-634.87 573.5,-644.44 580.46,-645.18"/>
</g>
<!-- Node24 -->
<g id="node24" class="node">
<title>Node24</title>
<g id="a_node24"><a xlink:title=" ">
<polygon fill="white" stroke="#bfbfbf" points="407,-671.5 407,-701.5 513,-701.5 513,-671.5 407,-671.5"/>
<text text-anchor="start" x="415" y="-689.5" font-family="Helvetica,sans-Serif" font-size="10.00">odp/api/abi/packet</text>
<text text-anchor="middle" x="460" y="-678.5" font-family="Helvetica,sans-Serif" font-size="10.00">_io_types.h</text>
</a>
</g>
</g>
<!-- Node23&#45;&gt;Node24 -->
<g id="edge36" class="edge">
<title>Node23&#45;&gt;Node24</title>
<path fill="none" stroke="midnightblue" d="M401.74,-738.48C410.69,-730.64 424.33,-718.71 436.15,-708.37"/>
<polygon fill="midnightblue" stroke="midnightblue" points="438.75,-710.74 443.97,-701.52 434.14,-705.47 438.75,-710.74"/>
</g>
<!-- Node25 -->
<g id="node25" class="node">
<title>Node25</title>
<g id="a_node25"><a xlink:title=" ">
<polygon fill="white" stroke="#bfbfbf" points="283,-671.5 283,-701.5 389,-701.5 389,-671.5 283,-671.5"/>
<text text-anchor="start" x="291" y="-689.5" font-family="Helvetica,sans-Serif" font-size="10.00">odp/api/abi/packet</text>
<text text-anchor="middle" x="336" y="-678.5" font-family="Helvetica,sans-Serif" font-size="10.00">_types.h</text>
</a>
</g>
</g>
<!-- Node23&#45;&gt;Node25 -->
<g id="edge37" class="edge">
<title>Node23&#45;&gt;Node25</title>
<path fill="none" stroke="midnightblue" d="M383.98,-738.48C376.75,-730.79 365.81,-719.17 356.2,-708.96"/>
<polygon fill="midnightblue" stroke="midnightblue" points="358.6,-706.41 349.2,-701.52 353.5,-711.2 358.6,-706.41"/>
</g>
<!-- Node26 -->
<g id="node26" class="node">
<title>Node26</title>
<g id="a_node26"><a xlink:href="spec_2packet__types_8h.html" target="_top" xlink:title="ODP packet types.">
<polygon fill="white" stroke="black" points="151.5,-671.5 151.5,-701.5 264.5,-701.5 264.5,-671.5 151.5,-671.5"/>
<text text-anchor="start" x="159.5" y="-689.5" font-family="Helvetica,sans-Serif" font-size="10.00">odp/api/spec/packet</text>
<text text-anchor="middle" x="208" y="-678.5" font-family="Helvetica,sans-Serif" font-size="10.00">_types.h</text>
</a>
</g>
</g>
<!-- Node23&#45;&gt;Node26 -->
<g id="edge38" class="edge">
<title>Node23&#45;&gt;Node26</title>
<path fill="none" stroke="midnightblue" d="M365.64,-738.48C338.5,-729.7 295.48,-715.79 261.23,-704.71"/>
<polygon fill="midnightblue" stroke="midnightblue" points="261.96,-701.27 251.37,-701.52 259.8,-707.93 261.96,-701.27"/>
</g>
<!-- Node26&#45;&gt;Node2 -->
<g id="edge39" class="edge">
<title>Node26&#45;&gt;Node2</title>
<path fill="none" stroke="midnightblue" d="M264.8,-672.56C267.9,-672 270.99,-671.47 274,-671 440.72,-644.85 484.91,-658.71 652,-635 999.79,-585.65 1340,-597.27 1340,-246 1340,-246 1340,-246 1340,-132 1340,-91.59 1313.66,-50.21 1296.79,-27.85"/>
<polygon fill="midnightblue" stroke="midnightblue" points="1299.37,-25.46 1290.45,-19.74 1293.85,-29.77 1299.37,-25.46"/>
</g>
<!-- Node26&#45;&gt;Node6 -->
<g id="edge69" class="edge">
<title>Node26&#45;&gt;Node6</title>
<path fill="none" stroke="midnightblue" d="M186.67,-671.49C158.94,-651.4 114,-611.58 114,-564.5 114,-564.5 114,-564.5 114,-132 114,-91.81 129.45,-78.12 163,-56 194.99,-34.91 294.73,-22.4 362.56,-16.11"/>
<polygon fill="midnightblue" stroke="midnightblue" points="363.09,-19.58 372.74,-15.19 362.46,-12.61 363.09,-19.58"/>
</g>
<!-- Node27 -->
<g id="node27" class="node">
<title>Node27</title>
<g id="a_node27"><a xlink:href="deprecated_8h.html" target="_top" xlink:title="Control deprecated API definitions.">
<polygon fill="white" stroke="black" points="272.5,-615.5 272.5,-634.5 391.5,-634.5 391.5,-615.5 272.5,-615.5"/>
<text text-anchor="middle" x="332" y="-622.5" font-family="Helvetica,sans-Serif" font-size="10.00">odp/api/deprecated.h</text>
</a>
</g>
</g>
<!-- Node26&#45;&gt;Node27 -->
<g id="edge40" class="edge">
<title>Node26&#45;&gt;Node27</title>
<path fill="none" stroke="midnightblue" d="M237.39,-671.4C257.82,-661.59 284.86,-648.62 304.8,-639.05"/>
<polygon fill="midnightblue" stroke="midnightblue" points="306.46,-642.14 313.96,-634.66 303.43,-635.83 306.46,-642.14"/>
</g>
<!-- Node29 -->
<g id="node29" class="node">
<title>Node29</title>
<g id="a_node29"><a xlink:href="proto__stats__types_8h.html" target="_top" xlink:title="ODP proto stats types.">
<polygon fill="white" stroke="black" points="189,-358.5 189,-388.5 299,-388.5 299,-358.5 189,-358.5"/>
<text text-anchor="start" x="197" y="-376.5" font-family="Helvetica,sans-Serif" font-size="10.00">odp/api/proto_stats</text>
<text text-anchor="middle" x="244" y="-365.5" font-family="Helvetica,sans-Serif" font-size="10.00">_types.h</text>
</a>
</g>
</g>
<!-- Node26&#45;&gt;Node29 -->
<g id="edge44" class="edge">
<title>Node26&#45;&gt;Node29</title>
<path fill="none" stroke="midnightblue" d="M208.77,-671.35C209.93,-648.76 212,-603.17 212,-564.5 212,-564.5 212,-564.5 212,-501 212,-464.17 224.91,-423.09 234.33,-398.02"/>
<polygon fill="midnightblue" stroke="midnightblue" points="237.62,-399.21 237.98,-388.62 231.1,-396.68 237.62,-399.21"/>
</g>
<!-- Node26&#45;&gt;Node32 -->
<g id="edge50" class="edge">
<title>Node26&#45;&gt;Node32</title>
<path fill="none" stroke="midnightblue" d="M264.83,-672.75C267.93,-672.14 271,-671.55 274,-671 352.67,-656.57 443.42,-643.66 505.34,-635.4"/>
<polygon fill="midnightblue" stroke="midnightblue" points="505.95,-638.85 515.41,-634.07 505.03,-631.91 505.95,-638.85"/>
</g>
<!-- Node28 -->
<g id="node28" class="node">
<title>Node28</title>
<g id="a_node28"><a xlink:href="spec_2deprecated_8h.html" target="_top" xlink:title="Macro for deprecated API definitions.">
<polygon fill="white" stroke="black" points="590.5,-62 590.5,-81 735.5,-81 735.5,-62 590.5,-62"/>
<text text-anchor="middle" x="663" y="-69" font-family="Helvetica,sans-Serif" font-size="10.00">odp/api/spec/deprecated.h</text>
</a>
</g>
</g>
<!-- Node27&#45;&gt;Node28 -->
<g id="edge41" class="edge">
<title>Node27&#45;&gt;Node28</title>
<path fill="none" stroke="midnightblue" d="M332.47,-615.49C333.53,-595.75 336,-545.25 336,-503 336,-503 336,-503 336,-372.5 336,-214.62 545.53,-117.27 629.14,-84.71"/>
<polygon fill="midnightblue" stroke="midnightblue" points="630.6,-87.9 638.69,-81.06 628.1,-81.36 630.6,-87.9"/>
</g>
<!-- Node28&#45;&gt;Node2 -->
<g id="edge42" class="edge">
<title>Node28&#45;&gt;Node2</title>
<path fill="none" stroke="midnightblue" d="M707.14,-61.93C719.37,-59.76 732.67,-57.6 745,-56 911.69,-34.34 1108.87,-20.94 1212.01,-14.86"/>
<polygon fill="midnightblue" stroke="midnightblue" points="1212.52,-18.34 1222.3,-14.26 1212.11,-11.35 1212.52,-18.34"/>
</g>
<!-- Node28&#45;&gt;Node6 -->
<g id="edge43" class="edge">
<title>Node28&#45;&gt;Node6</title>
<path fill="none" stroke="midnightblue" d="M629.47,-61.98C588.12,-51.46 517.73,-33.56 472.32,-22.01"/>
<polygon fill="midnightblue" stroke="midnightblue" points="473.02,-18.58 462.46,-19.51 471.29,-25.37 473.02,-18.58"/>
</g>
<!-- Node30 -->
<g id="node30" class="node">
<title>Node30</title>
<g id="a_node30"><a xlink:title=" ">
<polygon fill="white" stroke="#bfbfbf" points="180,-291.5 180,-321.5 308,-321.5 308,-291.5 180,-291.5"/>
<text text-anchor="start" x="188" y="-309.5" font-family="Helvetica,sans-Serif" font-size="10.00">odp/api/abi/proto_stats</text>
<text text-anchor="middle" x="244" y="-298.5" font-family="Helvetica,sans-Serif" font-size="10.00">_types.h</text>
</a>
</g>
</g>
<!-- Node29&#45;&gt;Node30 -->
<g id="edge45" class="edge">
<title>Node29&#45;&gt;Node30</title>
<path fill="none" stroke="midnightblue" d="M244,-358.4C244,-350.64 244,-340.81 244,-331.86"/>
<polygon fill="midnightblue" stroke="midnightblue" points="247.5,-331.58 244,-321.58 240.5,-331.58 247.5,-331.58"/>
</g>
<!-- Node31 -->
<g id="node31" class="node">
<title>Node31</title>
<g id="a_node31"><a xlink:href="spec_2proto__stats__types_8h.html" target="_top" xlink:title="ODP proto stats types.">
<polygon fill="white" stroke="black" points="440.5,-291.5 440.5,-321.5 547.5,-321.5 547.5,-291.5 440.5,-291.5"/>
<text text-anchor="start" x="448.5" y="-309.5" font-family="Helvetica,sans-Serif" font-size="10.00">odp/api/spec/proto</text>
<text text-anchor="middle" x="494" y="-298.5" font-family="Helvetica,sans-Serif" font-size="10.00">_stats_types.h</text>
</a>
</g>
</g>
<!-- Node29&#45;&gt;Node31 -->
<g id="edge46" class="edge">
<title>Node29&#45;&gt;Node31</title>
<path fill="none" stroke="midnightblue" d="M297.94,-358.48C336.79,-348.37 389.36,-334.71 430.29,-324.07"/>
<polygon fill="midnightblue" stroke="midnightblue" points="431.36,-327.4 440.16,-321.5 429.6,-320.63 431.36,-327.4"/>
</g>
<!-- Node31&#45;&gt;Node2 -->
<g id="edge47" class="edge">
<title>Node31&#45;&gt;Node2</title>
<path fill="none" stroke="midnightblue" d="M547.84,-293.76C666.9,-267.73 943.6,-206.84 963,-199 978.9,-192.57 981.09,-187.48 996,-179 1041.97,-152.84 1054.3,-147.82 1101,-123 1131.2,-106.95 1141.18,-106.88 1169,-87 1185.37,-75.3 1185.75,-67.87 1202,-56 1218.83,-43.71 1239.38,-32.33 1255.56,-24.09"/>
<polygon fill="midnightblue" stroke="midnightblue" points="1257.14,-27.22 1264.53,-19.62 1254.02,-20.95 1257.14,-27.22"/>
</g>
<!-- Node31&#45;&gt;Node6 -->
<g id="edge49" class="edge">
<title>Node31&#45;&gt;Node6</title>
<path fill="none" stroke="midnightblue" d="M490.86,-291.3C480.16,-242.81 445.08,-83.85 433.07,-29.45"/>
<polygon fill="midnightblue" stroke="midnightblue" points="436.45,-28.52 430.88,-19.51 429.61,-30.03 436.45,-28.52"/>
</g>
<!-- Node31&#45;&gt;Node11 -->
<g id="edge48" class="edge">
<title>Node31&#45;&gt;Node11</title>
<path fill="none" stroke="midnightblue" d="M547.75,-293.63C552.56,-292.69 557.36,-291.8 562,-291 657.71,-274.54 769.36,-260.92 838.62,-253.12"/>
<polygon fill="midnightblue" stroke="midnightblue" points="839.4,-256.56 848.95,-251.97 838.62,-249.6 839.4,-256.56"/>
</g>
<!-- Node33 -->
<g id="node33" class="node">
<title>Node33</title>
<g id="a_node33"><a xlink:title=" ">
<polygon fill="white" stroke="#bfbfbf" points="502.5,-554 502.5,-573 647.5,-573 647.5,-554 502.5,-554"/>
<text text-anchor="middle" x="575" y="-561" font-family="Helvetica,sans-Serif" font-size="10.00">odp/api/abi/queue_types.h</text>
</a>
</g>
</g>
<!-- Node32&#45;&gt;Node33 -->
<g id="edge51" class="edge">
<title>Node32&#45;&gt;Node33</title>
<path fill="none" stroke="midnightblue" d="M578.43,-615.48C577.86,-607.08 576.98,-593.98 576.25,-583.16"/>
<polygon fill="midnightblue" stroke="midnightblue" points="579.74,-582.75 575.57,-573.01 572.75,-583.22 579.74,-582.75"/>
</g>
<!-- Node34 -->
<g id="node34" class="node">
<title>Node34</title>
<g id="a_node34"><a xlink:href="spec_2queue__types_8h.html" target="_top" xlink:title="ODP queue types.">
<polygon fill="white" stroke="black" points="827.5,-548.5 827.5,-578.5 938.5,-578.5 938.5,-548.5 827.5,-548.5"/>
<text text-anchor="start" x="835.5" y="-566.5" font-family="Helvetica,sans-Serif" font-size="10.00">odp/api/spec/queue</text>
<text text-anchor="middle" x="883" y="-555.5" font-family="Helvetica,sans-Serif" font-size="10.00">_types.h</text>
</a>
</g>
</g>
<!-- Node32&#45;&gt;Node34 -->
<g id="edge52" class="edge">
<title>Node32&#45;&gt;Node34</title>
<path fill="none" stroke="midnightblue" d="M622.56,-615.48C673.54,-605.5 758.48,-588.87 817.44,-577.33"/>
<polygon fill="midnightblue" stroke="midnightblue" points="818.26,-580.74 827.4,-575.38 816.91,-573.87 818.26,-580.74"/>
</g>
<!-- Node34&#45;&gt;Node2 -->
<g id="edge53" class="edge">
<title>Node34&#45;&gt;Node2</title>
<path fill="none" stroke="midnightblue" d="M938.82,-560.59C1068.28,-554.65 1378,-531.07 1378,-441.5 1378,-441.5 1378,-441.5 1378,-132 1378,-96.58 1375.6,-84.07 1354,-56 1343.41,-42.24 1327.34,-31.56 1313.16,-24.05"/>
<polygon fill="midnightblue" stroke="midnightblue" points="1314.7,-20.91 1304.19,-19.59 1311.58,-27.18 1314.7,-20.91"/>
</g>
<!-- Node34&#45;&gt;Node6 -->
<g id="edge68" class="edge">
<title>Node34&#45;&gt;Node6</title>
<path fill="none" stroke="midnightblue" d="M827.36,-556.44C677.41,-538.97 270.12,-483.61 180,-389 135.33,-342.11 152,-310.76 152,-246 152,-246 152,-246 152,-132 152,-40.31 281.02,-17.42 362.95,-12.12"/>
<polygon fill="midnightblue" stroke="midnightblue" points="363.16,-15.61 372.94,-11.54 362.76,-8.62 363.16,-15.61"/>
</g>
<!-- Node34&#45;&gt;Node7 -->
<g id="edge54" class="edge">
<title>Node34&#45;&gt;Node7</title>
<path fill="none" stroke="midnightblue" d="M908.25,-548.37C967.87,-515.01 1117.4,-431.35 1184.94,-393.56"/>
<polygon fill="midnightblue" stroke="midnightblue" points="1186.89,-396.48 1193.91,-388.54 1183.47,-390.37 1186.89,-396.48"/>
</g>
<!-- Node35 -->
<g id="node35" class="node">
<title>Node35</title>
<g id="a_node35"><a xlink:href="schedule__types_8h.html" target="_top" xlink:title="ODP schedule.">
<polygon fill="white" stroke="black" points="813,-492.5 813,-511.5 953,-511.5 953,-492.5 813,-492.5"/>
<text text-anchor="middle" x="883" y="-499.5" font-family="Helvetica,sans-Serif" font-size="10.00">odp/api/schedule_types.h</text>
</a>
</g>
</g>
<!-- Node34&#45;&gt;Node35 -->
<g id="edge55" class="edge">
<title>Node34&#45;&gt;Node35</title>
<path fill="none" stroke="midnightblue" d="M883,-548.4C883,-540.47 883,-530.46 883,-521.86"/>
<polygon fill="midnightblue" stroke="midnightblue" points="886.5,-521.66 883,-511.66 879.5,-521.66 886.5,-521.66"/>
</g>
<!-- Node36 -->
<g id="node36" class="node">
<title>Node36</title>
<g id="a_node36"><a xlink:title=" ">
<polygon fill="white" stroke="#bfbfbf" points="707.5,-425.5 707.5,-455.5 824.5,-455.5 824.5,-425.5 707.5,-425.5"/>
<text text-anchor="start" x="715.5" y="-443.5" font-family="Helvetica,sans-Serif" font-size="10.00">odp/api/abi/schedule</text>
<text text-anchor="middle" x="766" y="-432.5" font-family="Helvetica,sans-Serif" font-size="10.00">_types.h</text>
</a>
</g>
</g>
<!-- Node35&#45;&gt;Node36 -->
<g id="edge56" class="edge">
<title>Node35&#45;&gt;Node36</title>
<path fill="none" stroke="midnightblue" d="M866.24,-492.48C849.72,-484.08 823.95,-470.97 802.68,-460.15"/>
<polygon fill="midnightblue" stroke="midnightblue" points="804.07,-456.94 793.57,-455.52 800.9,-463.18 804.07,-456.94"/>
</g>
<!-- Node37 -->
<g id="node37" class="node">
<title>Node37</title>
<g id="a_node37"><a xlink:href="spec_2schedule__types_8h.html" target="_top" xlink:title="ODP schedule types.">
<polygon fill="white" stroke="black" points="842.5,-425.5 842.5,-455.5 967.5,-455.5 967.5,-425.5 842.5,-425.5"/>
<text text-anchor="start" x="850.5" y="-443.5" font-family="Helvetica,sans-Serif" font-size="10.00">odp/api/spec/schedule</text>
<text text-anchor="middle" x="905" y="-432.5" font-family="Helvetica,sans-Serif" font-size="10.00">_types.h</text>
</a>
</g>
</g>
<!-- Node35&#45;&gt;Node37 -->
<g id="edge57" class="edge">
<title>Node35&#45;&gt;Node37</title>
<path fill="none" stroke="midnightblue" d="M886.15,-492.48C888.8,-485.32 892.71,-474.75 896.28,-465.08"/>
<polygon fill="midnightblue" stroke="midnightblue" points="899.63,-466.12 899.82,-455.52 893.06,-463.69 899.63,-466.12"/>
</g>
<!-- Node37&#45;&gt;Node2 -->
<g id="edge58" class="edge">
<title>Node37&#45;&gt;Node2</title>
<path fill="none" stroke="midnightblue" d="M945.27,-425.42C993.82,-408.62 1077.99,-380.03 1151,-358 1209.22,-340.43 1240.46,-365.45 1283,-322 1307.36,-297.12 1302,-280.82 1302,-246 1302,-246 1302,-246 1302,-132 1302,-95.29 1293.36,-53.06 1287.73,-29.45"/>
<polygon fill="midnightblue" stroke="midnightblue" points="1291.13,-28.6 1285.33,-19.73 1284.33,-30.28 1291.13,-28.6"/>
</g>
<!-- Node37&#45;&gt;Node6 -->
<g id="edge67" class="edge">
<title>Node37&#45;&gt;Node6</title>
<path fill="none" stroke="midnightblue" d="M842.13,-426.39C721.43,-400.87 466.12,-344.98 432,-322 371.83,-281.48 336,-262.54 336,-190 336,-190 336,-190 336,-132 336,-85.38 379.94,-45.68 407.41,-25.42"/>
<polygon fill="midnightblue" stroke="midnightblue" points="409.56,-28.19 415.68,-19.54 405.5,-22.48 409.56,-28.19"/>
</g>
<!-- Node37&#45;&gt;Node7 -->
<g id="edge59" class="edge">
<title>Node37&#45;&gt;Node7</title>
<path fill="none" stroke="midnightblue" d="M967.79,-426.5C1020.27,-415.64 1095.04,-400.16 1149.36,-388.92"/>
<polygon fill="midnightblue" stroke="midnightblue" points="1150.17,-392.32 1159.25,-386.87 1148.75,-385.47 1150.17,-392.32"/>
</g>
<!-- Node37&#45;&gt;Node11 -->
<g id="edge60" class="edge">
<title>Node37&#45;&gt;Node11</title>
<path fill="none" stroke="midnightblue" d="M905,-425.27C905,-390.94 905,-303.57 905,-264.9"/>
<polygon fill="midnightblue" stroke="midnightblue" points="908.5,-264.58 905,-254.58 901.5,-264.58 908.5,-264.58"/>
</g>
<!-- Node38 -->
<g id="node38" class="node">
<title>Node38</title>
<g id="a_node38"><a xlink:href="thrmask_8h.html" target="_top" xlink:title="ODP thread masks.">
<polygon fill="white" stroke="black" points="758.5,-364 758.5,-383 863.5,-383 863.5,-364 758.5,-364"/>
<text text-anchor="middle" x="811" y="-371" font-family="Helvetica,sans-Serif" font-size="10.00">odp/api/thrmask.h</text>
</a>
</g>
</g>
<!-- Node37&#45;&gt;Node38 -->
<g id="edge61" class="edge">
<title>Node37&#45;&gt;Node38</title>
<path fill="none" stroke="midnightblue" d="M884.6,-425.4C868.99,-414.6 847.52,-399.76 831.81,-388.89"/>
<polygon fill="midnightblue" stroke="midnightblue" points="833.52,-385.82 823.3,-383.01 829.54,-391.57 833.52,-385.82"/>
</g>
<!-- Node39 -->
<g id="node39" class="node">
<title>Node39</title>
<g id="a_node39"><a xlink:title=" ">
<polygon fill="white" stroke="#bfbfbf" points="604.5,-297 604.5,-316 727.5,-316 727.5,-297 604.5,-297"/>
<text text-anchor="middle" x="666" y="-304" font-family="Helvetica,sans-Serif" font-size="10.00">odp/api/abi/thrmask.h</text>
</a>
</g>
</g>
<!-- Node38&#45;&gt;Node39 -->
<g id="edge62" class="edge">
<title>Node38&#45;&gt;Node39</title>
<path fill="none" stroke="midnightblue" d="M791.75,-363.87C766.83,-352.7 723.21,-333.15 694.47,-320.26"/>
<polygon fill="midnightblue" stroke="midnightblue" points="695.89,-317.06 685.33,-316.17 693.03,-323.45 695.89,-317.06"/>
</g>
<!-- Node40 -->
<g id="node40" class="node">
<title>Node40</title>
<g id="a_node40"><a xlink:href="spec_2thrmask_8h.html" target="_top" xlink:title="ODP thread masks.">
<polygon fill="white" stroke="black" points="745.5,-297 745.5,-316 876.5,-316 876.5,-297 745.5,-297"/>
<text text-anchor="middle" x="811" y="-304" font-family="Helvetica,sans-Serif" font-size="10.00">odp/api/spec/thrmask.h</text>
</a>
</g>
</g>
<!-- Node38&#45;&gt;Node40 -->
<g id="edge63" class="edge">
<title>Node38&#45;&gt;Node40</title>
<path fill="none" stroke="midnightblue" d="M811,-363.73C811,-354.18 811,-338.62 811,-326.28"/>
<polygon fill="midnightblue" stroke="midnightblue" points="814.5,-326.13 811,-316.13 807.5,-326.13 814.5,-326.13"/>
</g>
<!-- Node40&#45;&gt;Node2 -->
<g id="edge64" class="edge">
<title>Node40&#45;&gt;Node2</title>
<path fill="none" stroke="midnightblue" d="M812.04,-296.63C814.28,-281.57 821.03,-251.1 840,-235 894.25,-188.96 929.47,-224.23 996,-199 1020.36,-189.76 1180.88,-102.26 1202,-87 1227.02,-68.92 1252.43,-43.73 1267.95,-27.39"/>
<polygon fill="midnightblue" stroke="midnightblue" points="1270.83,-29.44 1275.11,-19.74 1265.72,-24.65 1270.83,-29.44"/>
</g>
<!-- Node40&#45;&gt;Node6 -->
<g id="edge66" class="edge">
<title>Node40&#45;&gt;Node6</title>
<path fill="none" stroke="midnightblue" d="M785.65,-297C730.11,-277.36 595.85,-224.22 510,-143 507.6,-140.73 461.15,-64.16 439.7,-28.7"/>
<polygon fill="midnightblue" stroke="midnightblue" points="442.54,-26.63 434.37,-19.88 436.55,-30.25 442.54,-26.63"/>
</g>
<!-- Node40&#45;&gt;Node11 -->
<g id="edge65" class="edge">
<title>Node40&#45;&gt;Node11</title>
<path fill="none" stroke="midnightblue" d="M824.47,-296.98C839.68,-287.34 864.69,-271.52 882.8,-260.05"/>
<polygon fill="midnightblue" stroke="midnightblue" points="884.98,-262.81 891.56,-254.51 881.24,-256.9 884.98,-262.81"/>
</g>
<!-- Node42 -->
<g id="node42" class="node">
<title>Node42</title>
<g id="a_node42"><a xlink:title=" ">
<polygon fill="white" stroke="#bfbfbf" points="1313,-677 1313,-696 1441,-696 1441,-677 1313,-677"/>
<text text-anchor="middle" x="1377" y="-684" font-family="Helvetica,sans-Serif" font-size="10.00">odp/api/abi/ml_types.h</text>
</a>
</g>
</g>
<!-- Node41&#45;&gt;Node42 -->
<g id="edge75" class="edge">
<title>Node41&#45;&gt;Node42</title>
<path fill="none" stroke="midnightblue" d="M1248.49,-738.48C1274.11,-728.31 1317.11,-711.26 1346.24,-699.7"/>
<polygon fill="midnightblue" stroke="midnightblue" points="1347.54,-702.95 1355.55,-696.01 1344.96,-696.44 1347.54,-702.95"/>
</g>
<!-- Node43 -->
<g id="node43" class="node">
<title>Node43</title>
<g id="a_node43"><a xlink:href="spec_2ml__types_8h.html" target="_top" xlink:title="ODP Machine Learning (ML) types.">
<polygon fill="white" stroke="black" points="1159.5,-677 1159.5,-696 1294.5,-696 1294.5,-677 1159.5,-677"/>
<text text-anchor="middle" x="1227" y="-684" font-family="Helvetica,sans-Serif" font-size="10.00">odp/api/spec/ml_types.h</text>
</a>
</g>
</g>
<!-- Node41&#45;&gt;Node43 -->
<g id="edge76" class="edge">
<title>Node41&#45;&gt;Node43</title>
<path fill="none" stroke="midnightblue" d="M1227,-738.48C1227,-730.08 1227,-716.98 1227,-706.16"/>
<polygon fill="midnightblue" stroke="midnightblue" points="1230.5,-706.01 1227,-696.01 1223.5,-706.01 1230.5,-706.01"/>
</g>
<!-- Node43&#45;&gt;Node2 -->
<g id="edge77" class="edge">
<title>Node43&#45;&gt;Node2</title>
<path fill="none" stroke="midnightblue" d="M1256.99,-676.99C1358.66,-646.1 1684,-529.9 1684,-307.5 1684,-307.5 1684,-307.5 1684,-132 1684,-63.88 1469.24,-30.66 1354.05,-17.74"/>
<polygon fill="midnightblue" stroke="midnightblue" points="1354.23,-14.24 1343.9,-16.63 1353.46,-21.2 1354.23,-14.24"/>
</g>
<!-- Node43&#45;&gt;Node3 -->
<g id="edge78" class="edge">
<title>Node43&#45;&gt;Node3</title>
<path fill="none" stroke="midnightblue" d="M1242.49,-676.88C1302.84,-642.25 1522.11,-506.17 1589,-322 1593.7,-309.05 1596.78,-302.37 1589,-291 1577.83,-274.68 1559.81,-264.28 1541.28,-257.65"/>
<polygon fill="midnightblue" stroke="midnightblue" points="1542.16,-254.26 1531.57,-254.52 1540.01,-260.92 1542.16,-254.26"/>
</g>
<!-- Node43&#45;&gt;Node6 -->
<g id="edge81" class="edge">
<title>Node43&#45;&gt;Node6</title>
<path fill="none" stroke="midnightblue" d="M1175.54,-676.96C1096.64,-662.79 941.97,-630.75 819,-579 667.95,-515.43 633.57,-488.03 503,-389 468.43,-362.78 449.37,-361.76 432,-322 387.27,-219.64 412.88,-79.61 424.35,-29.65"/>
<polygon fill="midnightblue" stroke="midnightblue" points="427.81,-30.21 426.73,-19.67 421,-28.58 427.81,-30.21"/>
</g>
<!-- Node43&#45;&gt;Node11 -->
<g id="edge80" class="edge">
<title>Node43&#45;&gt;Node11</title>
<path fill="none" stroke="midnightblue" d="M1212.83,-676.8C1186.13,-659.19 1131,-616.52 1131,-564.5 1131,-564.5 1131,-564.5 1131,-439.5 1131,-425.92 978.5,-304.08 924.04,-261"/>
<polygon fill="midnightblue" stroke="midnightblue" points="925.92,-258.03 915.9,-254.57 921.58,-263.52 925.92,-258.03"/>
</g>
<!-- Node43&#45;&gt;Node32 -->
<g id="edge79" class="edge">
<title>Node43&#45;&gt;Node32</title>
<path fill="none" stroke="midnightblue" d="M1159.12,-679.85C1053,-670.92 841.35,-652.74 662,-635 659,-634.7 655.93,-634.39 652.84,-634.08"/>
<polygon fill="midnightblue" stroke="midnightblue" points="653.19,-630.6 642.88,-633.05 652.47,-637.56 653.19,-630.6"/>
</g>
</g>
</svg>
