<?xml version="1.0" encoding="UTF-8" standalone="no"?>
<!DOCTYPE svg PUBLIC "-//W3C//DTD SVG 1.1//EN"
 "http://www.w3.org/Graphics/SVG/1.1/DTD/svg11.dtd">
<!-- Generated by graphviz version 2.43.0 (0)
 -->
<!-- Title: pool_types.h Pages: 1 -->
<svg width="1826pt" height="956pt"
 viewBox="0.00 0.00 1826.00 956.00" xmlns="http://www.w3.org/2000/svg" xmlns:xlink="http://www.w3.org/1999/xlink">
<g id="graph0" class="graph" transform="scale(1 1) rotate(0) translate(4 952)">
<title>pool_types.h</title>
<polygon fill="white" stroke="transparent" points="-4,4 -4,-952 1822,-952 1822,4 -4,4"/>
<!-- Node1 -->
<g id="node1" class="node">
<title>Node1</title>
<g id="a_node1"><a xlink:title="Type definitions for pools.">
<polygon fill="#bfbfbf" stroke="black" points="230.5,-928.5 230.5,-947.5 309.5,-947.5 309.5,-928.5 230.5,-928.5"/>
<text text-anchor="middle" x="270" y="-935.5" font-family="Helvetica,sans-Serif" font-size="10.00">pool_types.h</text>
</a>
</g>
</g>
<!-- Node2 -->
<g id="node2" class="node">
<title>Node2</title>
<g id="a_node2"><a xlink:title=" ">
<polygon fill="white" stroke="#bfbfbf" points="440.5,-0.5 440.5,-19.5 561.5,-19.5 561.5,-0.5 440.5,-0.5"/>
<text text-anchor="middle" x="501" y="-7.5" font-family="Helvetica,sans-Serif" font-size="10.00">odp/visibility_begin.h</text>
</a>
</g>
</g>
<!-- Node1&#45;&gt;Node2 -->
<g id="edge1" class="edge">
<title>Node1&#45;&gt;Node2</title>
<path fill="none" stroke="midnightblue" d="M230.45,-929.47C155.46,-914.05 0,-876.16 0,-827 0,-827 0,-827 0,-132 0,-44.6 291.77,-20.13 429.99,-13.44"/>
<polygon fill="midnightblue" stroke="midnightblue" points="430.24,-16.93 440.07,-12.97 429.92,-9.94 430.24,-16.93"/>
</g>
<!-- Node3 -->
<g id="node3" class="node">
<title>Node3</title>
<g id="a_node3"><a xlink:href="std__types_8h.html" target="_top" xlink:title="Standard C language types and definitions for ODP.">
<polygon fill="white" stroke="black" points="318,-252 318,-271 430,-271 430,-252 318,-252"/>
<text text-anchor="middle" x="374" y="-259" font-family="Helvetica,sans-Serif" font-size="10.00">odp/api/std_types.h</text>
</a>
</g>
</g>
<!-- Node1&#45;&gt;Node3 -->
<g id="edge2" class="edge">
<title>Node1&#45;&gt;Node3</title>
<path fill="none" stroke="midnightblue" d="M263.33,-928.44C250.14,-910.62 222,-867.84 222,-827 222,-827 222,-827 222,-394.5 222,-332.63 294.67,-293.21 339.52,-274.78"/>
<polygon fill="midnightblue" stroke="midnightblue" points="340.89,-277.99 348.9,-271.06 338.31,-271.49 340.89,-277.99"/>
</g>
<!-- Node10 -->
<g id="node10" class="node">
<title>Node10</title>
<g id="a_node10"><a xlink:title=" ">
<polygon fill="white" stroke="#bfbfbf" points="1173,-0.5 1173,-19.5 1285,-19.5 1285,-0.5 1173,-0.5"/>
<text text-anchor="middle" x="1229" y="-7.5" font-family="Helvetica,sans-Serif" font-size="10.00">odp/visibility_end.h</text>
</a>
</g>
</g>
<!-- Node1&#45;&gt;Node10 -->
<g id="edge81" class="edge">
<title>Node1&#45;&gt;Node10</title>
<path fill="none" stroke="midnightblue" d="M309.82,-936.31C552.12,-931.88 1818,-904.97 1818,-827 1818,-827 1818,-827 1818,-132 1818,-26.32 1449.56,-12.12 1295.48,-10.8"/>
<polygon fill="midnightblue" stroke="midnightblue" points="1295.23,-7.3 1285.21,-10.73 1295.18,-14.29 1295.23,-7.3"/>
</g>
<!-- Node11 -->
<g id="node11" class="node">
<title>Node11</title>
<g id="a_node11"><a xlink:href="dma__types_8h.html" target="_top" xlink:title="ODP DMA.">
<polygon fill="white" stroke="black" points="612.5,-872.5 612.5,-891.5 731.5,-891.5 731.5,-872.5 612.5,-872.5"/>
<text text-anchor="middle" x="672" y="-879.5" font-family="Helvetica,sans-Serif" font-size="10.00">odp/api/dma_types.h</text>
</a>
</g>
</g>
<!-- Node1&#45;&gt;Node11 -->
<g id="edge13" class="edge">
<title>Node1&#45;&gt;Node11</title>
<path fill="none" stroke="midnightblue" d="M309.65,-931.67C377.69,-922.53 517.56,-903.75 602.23,-892.37"/>
<polygon fill="midnightblue" stroke="midnightblue" points="602.83,-895.82 612.27,-891.02 601.9,-888.89 602.83,-895.82"/>
</g>
<!-- Node40 -->
<g id="node40" class="node">
<title>Node40</title>
<g id="a_node40"><a xlink:href="ml__types_8h.html" target="_top" xlink:title="ODP Machine Learning (ML) types.">
<polygon fill="white" stroke="black" points="46,-760.5 46,-779.5 156,-779.5 156,-760.5 46,-760.5"/>
<text text-anchor="middle" x="101" y="-767.5" font-family="Helvetica,sans-Serif" font-size="10.00">odp/api/ml_types.h</text>
</a>
</g>
</g>
<!-- Node1&#45;&gt;Node40 -->
<g id="edge73" class="edge">
<title>Node1&#45;&gt;Node40</title>
<path fill="none" stroke="midnightblue" d="M256.54,-928.48C243.53,-919.96 223.56,-906.13 208,-892 170.65,-858.08 132.95,-812.08 113.84,-787.73"/>
<polygon fill="midnightblue" stroke="midnightblue" points="116.58,-785.54 107.68,-779.8 111.05,-789.84 116.58,-785.54"/>
</g>
<!-- Node4 -->
<g id="node4" class="node">
<title>Node4</title>
<g id="a_node4"><a xlink:title=" ">
<polygon fill="white" stroke="#bfbfbf" points="305,-185 305,-204 435,-204 435,-185 305,-185"/>
<text text-anchor="middle" x="370" y="-192" font-family="Helvetica,sans-Serif" font-size="10.00">odp/api/abi/std_types.h</text>
</a>
</g>
</g>
<!-- Node3&#45;&gt;Node4 -->
<g id="edge3" class="edge">
<title>Node3&#45;&gt;Node4</title>
<path fill="none" stroke="midnightblue" d="M373.46,-251.73C372.87,-242.18 371.91,-226.62 371.16,-214.28"/>
<polygon fill="midnightblue" stroke="midnightblue" points="374.64,-213.89 370.53,-204.13 367.65,-214.32 374.64,-213.89"/>
</g>
<!-- Node5 -->
<g id="node5" class="node">
<title>Node5</title>
<g id="a_node5"><a xlink:href="spec_2std__types_8h.html" target="_top" xlink:title="Common types and definitions for ODP API files.">
<polygon fill="white" stroke="black" points="629.5,-185 629.5,-204 766.5,-204 766.5,-185 629.5,-185"/>
<text text-anchor="middle" x="698" y="-192" font-family="Helvetica,sans-Serif" font-size="10.00">odp/api/spec/std_types.h</text>
</a>
</g>
</g>
<!-- Node3&#45;&gt;Node5 -->
<g id="edge4" class="edge">
<title>Node3&#45;&gt;Node5</title>
<path fill="none" stroke="midnightblue" d="M416.69,-251.94C475.65,-240.11 581.94,-218.78 645.63,-206.01"/>
<polygon fill="midnightblue" stroke="midnightblue" points="646.36,-209.43 655.47,-204.03 644.98,-202.57 646.36,-209.43"/>
</g>
<!-- Node5&#45;&gt;Node2 -->
<g id="edge5" class="edge">
<title>Node5&#45;&gt;Node2</title>
<path fill="none" stroke="midnightblue" d="M685.35,-184.93C660.53,-167.83 604.29,-127.62 563,-87 544.13,-68.43 525.31,-44.38 513.44,-28.36"/>
<polygon fill="midnightblue" stroke="midnightblue" points="516.03,-25.97 507.31,-19.96 510.37,-30.1 516.03,-25.97"/>
</g>
<!-- Node6 -->
<g id="node6" class="node">
<title>Node6</title>
<g id="a_node6"><a xlink:title=" ">
<polygon fill="white" stroke="#bfbfbf" points="529.5,-123.5 529.5,-142.5 582.5,-142.5 582.5,-123.5 529.5,-123.5"/>
<text text-anchor="middle" x="556" y="-130.5" font-family="Helvetica,sans-Serif" font-size="10.00">stdint.h</text>
</a>
</g>
</g>
<!-- Node5&#45;&gt;Node6 -->
<g id="edge6" class="edge">
<title>Node5&#45;&gt;Node6</title>
<path fill="none" stroke="midnightblue" d="M677.65,-184.98C653.61,-174.9 613.4,-158.05 585.84,-146.5"/>
<polygon fill="midnightblue" stroke="midnightblue" points="586.88,-143.15 576.31,-142.51 584.18,-149.6 586.88,-143.15"/>
</g>
<!-- Node7 -->
<g id="node7" class="node">
<title>Node7</title>
<g id="a_node7"><a xlink:href="align_8h.html" target="_top" xlink:title="ODP alignments.">
<polygon fill="white" stroke="black" points="677.5,-123.5 677.5,-142.5 766.5,-142.5 766.5,-123.5 677.5,-123.5"/>
<text text-anchor="middle" x="722" y="-130.5" font-family="Helvetica,sans-Serif" font-size="10.00">odp/api/align.h</text>
</a>
</g>
</g>
<!-- Node5&#45;&gt;Node7 -->
<g id="edge7" class="edge">
<title>Node5&#45;&gt;Node7</title>
<path fill="none" stroke="midnightblue" d="M701.44,-184.98C704.9,-176.4 710.33,-162.93 714.75,-151.98"/>
<polygon fill="midnightblue" stroke="midnightblue" points="718.07,-153.09 718.57,-142.51 711.58,-150.47 718.07,-153.09"/>
</g>
<!-- Node5&#45;&gt;Node10 -->
<g id="edge12" class="edge">
<title>Node5&#45;&gt;Node10</title>
<path fill="none" stroke="midnightblue" d="M766.69,-187.3C834.63,-179.98 932.7,-165.82 963,-143 997.61,-116.93 972.54,-82.27 1007,-56 1031.03,-37.68 1106.22,-25.14 1162.48,-18.04"/>
<polygon fill="midnightblue" stroke="midnightblue" points="1163.25,-21.47 1172.75,-16.78 1162.39,-14.52 1163.25,-21.47"/>
</g>
<!-- Node8 -->
<g id="node8" class="node">
<title>Node8</title>
<g id="a_node8"><a xlink:title=" ">
<polygon fill="white" stroke="#bfbfbf" points="605.5,-62 605.5,-81 712.5,-81 712.5,-62 605.5,-62"/>
<text text-anchor="middle" x="659" y="-69" font-family="Helvetica,sans-Serif" font-size="10.00">odp/api/abi/align.h</text>
</a>
</g>
</g>
<!-- Node7&#45;&gt;Node8 -->
<g id="edge8" class="edge">
<title>Node7&#45;&gt;Node8</title>
<path fill="none" stroke="midnightblue" d="M712.97,-123.48C703.24,-114.28 687.54,-99.46 675.58,-88.16"/>
<polygon fill="midnightblue" stroke="midnightblue" points="677.68,-85.33 668.01,-81.01 672.88,-90.42 677.68,-85.33"/>
</g>
<!-- Node9 -->
<g id="node9" class="node">
<title>Node9</title>
<g id="a_node9"><a xlink:href="spec_2align_8h.html" target="_top" xlink:title="ODP alignments.">
<polygon fill="white" stroke="black" points="731,-62 731,-81 845,-81 845,-62 731,-62"/>
<text text-anchor="middle" x="788" y="-69" font-family="Helvetica,sans-Serif" font-size="10.00">odp/api/spec/align.h</text>
</a>
</g>
</g>
<!-- Node7&#45;&gt;Node9 -->
<g id="edge9" class="edge">
<title>Node7&#45;&gt;Node9</title>
<path fill="none" stroke="midnightblue" d="M731.46,-123.48C741.75,-114.2 758.42,-99.17 770.99,-87.83"/>
<polygon fill="midnightblue" stroke="midnightblue" points="773.48,-90.3 778.56,-81.01 768.79,-85.11 773.48,-90.3"/>
</g>
<!-- Node9&#45;&gt;Node2 -->
<g id="edge10" class="edge">
<title>Node9&#45;&gt;Node2</title>
<path fill="none" stroke="midnightblue" d="M749.04,-61.99C739.85,-60 730.08,-57.91 721,-56 663.84,-43.97 598.23,-30.61 553.64,-21.59"/>
<polygon fill="midnightblue" stroke="midnightblue" points="554.11,-18.12 543.62,-19.57 552.73,-24.98 554.11,-18.12"/>
</g>
<!-- Node9&#45;&gt;Node10 -->
<g id="edge11" class="edge">
<title>Node9&#45;&gt;Node10</title>
<path fill="none" stroke="midnightblue" d="M845.2,-62.78C926.91,-51.76 1076.7,-31.55 1163,-19.9"/>
<polygon fill="midnightblue" stroke="midnightblue" points="1163.5,-23.37 1172.94,-18.56 1162.57,-16.43 1163.5,-23.37"/>
</g>
<!-- Node12 -->
<g id="node12" class="node">
<title>Node12</title>
<g id="a_node12"><a xlink:title=" ">
<polygon fill="white" stroke="#bfbfbf" points="603.5,-816.5 603.5,-835.5 740.5,-835.5 740.5,-816.5 603.5,-816.5"/>
<text text-anchor="middle" x="672" y="-823.5" font-family="Helvetica,sans-Serif" font-size="10.00">odp/api/abi/dma_types.h</text>
</a>
</g>
</g>
<!-- Node11&#45;&gt;Node12 -->
<g id="edge14" class="edge">
<title>Node11&#45;&gt;Node12</title>
<path fill="none" stroke="midnightblue" d="M672,-872.08C672,-865.01 672,-854.86 672,-845.99"/>
<polygon fill="midnightblue" stroke="midnightblue" points="675.5,-845.75 672,-835.75 668.5,-845.75 675.5,-845.75"/>
</g>
<!-- Node13 -->
<g id="node13" class="node">
<title>Node13</title>
<g id="a_node13"><a xlink:href="spec_2dma__types_8h.html" target="_top" xlink:title="ODP DMA.">
<polygon fill="white" stroke="black" points="1222,-816.5 1222,-835.5 1366,-835.5 1366,-816.5 1222,-816.5"/>
<text text-anchor="middle" x="1294" y="-823.5" font-family="Helvetica,sans-Serif" font-size="10.00">odp/api/spec/dma_types.h</text>
</a>
</g>
</g>
<!-- Node11&#45;&gt;Node13 -->
<g id="edge15" class="edge">
<title>Node11&#45;&gt;Node13</title>
<path fill="none" stroke="midnightblue" d="M731.64,-875.82C843.4,-866.12 1084.5,-845.19 1211.65,-834.15"/>
<polygon fill="midnightblue" stroke="midnightblue" points="1212.07,-837.63 1221.73,-833.27 1211.46,-830.65 1212.07,-837.63"/>
</g>
<!-- Node13&#45;&gt;Node2 -->
<g id="edge16" class="edge">
<title>Node13&#45;&gt;Node2</title>
<path fill="none" stroke="midnightblue" d="M1221.7,-823.2C1022.67,-817.98 476.29,-801.84 398,-780 144.05,-709.15 108,-526.15 108,-262.5 108,-262.5 108,-262.5 108,-132 108,-91.81 123.04,-77.49 157,-56 201.06,-28.12 342.88,-17.37 430.07,-13.33"/>
<polygon fill="midnightblue" stroke="midnightblue" points="430.32,-16.82 440.16,-12.88 430.01,-9.83 430.32,-16.82"/>
</g>
<!-- Node13&#45;&gt;Node3 -->
<g id="edge68" class="edge">
<title>Node13&#45;&gt;Node3</title>
<path fill="none" stroke="midnightblue" d="M1221.97,-824.21C993.18,-820.75 298,-802.58 298,-709.5 298,-709.5 298,-709.5 298,-394.5 298,-347.19 335.12,-301.54 357.47,-278.33"/>
<polygon fill="midnightblue" stroke="midnightblue" points="360.11,-280.65 364.68,-271.09 355.14,-275.71 360.11,-280.65"/>
</g>
<!-- Node13&#45;&gt;Node10 -->
<g id="edge72" class="edge">
<title>Node13&#45;&gt;Node10</title>
<path fill="none" stroke="midnightblue" d="M1355.03,-816.46C1398.04,-809.38 1456.55,-797.6 1506,-780 1557.31,-761.74 1575.83,-761.85 1615,-724 1709.67,-632.52 1756,-595.15 1756,-463.5 1756,-463.5 1756,-463.5 1756,-132 1756,-81.65 1718,-76.45 1672,-56 1606.22,-26.76 1401.69,-16.25 1295.1,-12.69"/>
<polygon fill="midnightblue" stroke="midnightblue" points="1295.21,-9.19 1285.1,-12.37 1294.98,-16.19 1295.21,-9.19"/>
</g>
<!-- Node14 -->
<g id="node14" class="node">
<title>Node14</title>
<g id="a_node14"><a xlink:href="event__types_8h.html" target="_top" xlink:title="ODP event API type definitions.">
<polygon fill="white" stroke="black" points="1205.5,-252 1205.5,-271 1330.5,-271 1330.5,-252 1205.5,-252"/>
<text text-anchor="middle" x="1268" y="-259" font-family="Helvetica,sans-Serif" font-size="10.00">odp/api/event_types.h</text>
</a>
</g>
</g>
<!-- Node13&#45;&gt;Node14 -->
<g id="edge17" class="edge">
<title>Node13&#45;&gt;Node14</title>
<path fill="none" stroke="midnightblue" d="M1330.31,-816.5C1400.05,-799.54 1549.16,-760.04 1587,-724 1634.66,-678.6 1642,-652.32 1642,-586.5 1642,-586.5 1642,-586.5 1642,-394.5 1642,-357.31 1650.43,-338.12 1623,-313 1582.96,-276.32 1432.62,-266.18 1340.92,-263.44"/>
<polygon fill="midnightblue" stroke="midnightblue" points="1340.95,-259.94 1330.86,-263.17 1340.76,-266.94 1340.95,-259.94"/>
</g>
<!-- Node17 -->
<g id="node17" class="node">
<title>Node17</title>
<g id="a_node17"><a xlink:href="packet__types_8h.html" target="_top" xlink:title="ODP packet.">
<polygon fill="white" stroke="black" points="1283.5,-760.5 1283.5,-779.5 1412.5,-779.5 1412.5,-760.5 1283.5,-760.5"/>
<text text-anchor="middle" x="1348" y="-767.5" font-family="Helvetica,sans-Serif" font-size="10.00">odp/api/packet_types.h</text>
</a>
</g>
</g>
<!-- Node13&#45;&gt;Node17 -->
<g id="edge22" class="edge">
<title>Node13&#45;&gt;Node17</title>
<path fill="none" stroke="midnightblue" d="M1302.92,-816.08C1310.78,-808.22 1322.43,-796.57 1331.92,-787.08"/>
<polygon fill="midnightblue" stroke="midnightblue" points="1334.65,-789.3 1339.25,-779.75 1329.7,-784.35 1334.65,-789.3"/>
</g>
<!-- Node24 -->
<g id="node24" class="node">
<title>Node24</title>
<g id="a_node24"><a xlink:href="queue__types_8h.html" target="_top" xlink:title="ODP queue.">
<polygon fill="white" stroke="black" points="1124.5,-637.5 1124.5,-656.5 1251.5,-656.5 1251.5,-637.5 1124.5,-637.5"/>
<text text-anchor="middle" x="1188" y="-644.5" font-family="Helvetica,sans-Serif" font-size="10.00">odp/api/queue_types.h</text>
</a>
</g>
</g>
<!-- Node13&#45;&gt;Node24 -->
<g id="edge67" class="edge">
<title>Node13&#45;&gt;Node24</title>
<path fill="none" stroke="midnightblue" d="M1284.12,-816.31C1266.21,-800.02 1228.36,-762.99 1208,-724 1198.55,-705.9 1193.31,-682.99 1190.59,-667.07"/>
<polygon fill="midnightblue" stroke="midnightblue" points="1194.01,-666.25 1189.03,-656.89 1187.09,-667.31 1194.01,-666.25"/>
</g>
<!-- Node39 -->
<g id="node39" class="node">
<title>Node39</title>
<g id="a_node39"><a xlink:href="pool__types_8h.html" target="_top" xlink:title="ODP pool.">
<polygon fill="white" stroke="black" points="1672,-760.5 1672,-779.5 1790,-779.5 1790,-760.5 1672,-760.5"/>
<text text-anchor="middle" x="1731" y="-767.5" font-family="Helvetica,sans-Serif" font-size="10.00">odp/api/pool_types.h</text>
</a>
</g>
</g>
<!-- Node13&#45;&gt;Node39 -->
<g id="edge69" class="edge">
<title>Node13&#45;&gt;Node39</title>
<path fill="none" stroke="midnightblue" d="M1363.24,-816.44C1444.95,-806.35 1579.98,-789.66 1661.71,-779.56"/>
<polygon fill="midnightblue" stroke="midnightblue" points="1662.4,-783 1671.89,-778.3 1661.54,-776.06 1662.4,-783"/>
</g>
<!-- Node15 -->
<g id="node15" class="node">
<title>Node15</title>
<g id="a_node15"><a xlink:title=" ">
<polygon fill="white" stroke="#bfbfbf" points="1243.5,-185 1243.5,-204 1386.5,-204 1386.5,-185 1243.5,-185"/>
<text text-anchor="middle" x="1315" y="-192" font-family="Helvetica,sans-Serif" font-size="10.00">odp/api/abi/event_types.h</text>
</a>
</g>
</g>
<!-- Node14&#45;&gt;Node15 -->
<g id="edge18" class="edge">
<title>Node14&#45;&gt;Node15</title>
<path fill="none" stroke="midnightblue" d="M1274.34,-251.73C1281.6,-241.7 1293.66,-225.01 1302.76,-212.42"/>
<polygon fill="midnightblue" stroke="midnightblue" points="1305.74,-214.28 1308.76,-204.13 1300.07,-210.18 1305.74,-214.28"/>
</g>
<!-- Node16 -->
<g id="node16" class="node">
<title>Node16</title>
<g id="a_node16"><a xlink:href="spec_2event__types_8h.html" target="_top" xlink:title="ODP event API type definitions.">
<polygon fill="white" stroke="black" points="1015.5,-56.5 1015.5,-86.5 1124.5,-86.5 1124.5,-56.5 1015.5,-56.5"/>
<text text-anchor="start" x="1023.5" y="-74.5" font-family="Helvetica,sans-Serif" font-size="10.00">odp/api/spec/event</text>
<text text-anchor="middle" x="1070" y="-63.5" font-family="Helvetica,sans-Serif" font-size="10.00">_types.h</text>
</a>
</g>
</g>
<!-- Node14&#45;&gt;Node16 -->
<g id="edge19" class="edge">
<title>Node14&#45;&gt;Node16</title>
<path fill="none" stroke="midnightblue" d="M1258.98,-251.93C1229.56,-224 1135.85,-135.02 1092.45,-93.82"/>
<polygon fill="midnightblue" stroke="midnightblue" points="1094.62,-91.05 1084.96,-86.7 1089.8,-96.13 1094.62,-91.05"/>
</g>
<!-- Node16&#45;&gt;Node2 -->
<g id="edge20" class="edge">
<title>Node16&#45;&gt;Node2</title>
<path fill="none" stroke="midnightblue" d="M1015.44,-64.79C911.89,-53.97 686.96,-30.45 571.9,-18.41"/>
<polygon fill="midnightblue" stroke="midnightblue" points="572.1,-14.92 561.79,-17.36 571.37,-21.88 572.1,-14.92"/>
</g>
<!-- Node16&#45;&gt;Node10 -->
<g id="edge21" class="edge">
<title>Node16&#45;&gt;Node10</title>
<path fill="none" stroke="midnightblue" d="M1107.68,-56.4C1134.6,-46.33 1170.45,-32.91 1196.19,-23.28"/>
<polygon fill="midnightblue" stroke="midnightblue" points="1197.73,-26.44 1205.86,-19.66 1195.27,-19.88 1197.73,-26.44"/>
</g>
<!-- Node18 -->
<g id="node18" class="node">
<title>Node18</title>
<g id="a_node18"><a xlink:title=" ">
<polygon fill="white" stroke="#bfbfbf" points="1472,-693.5 1472,-723.5 1578,-723.5 1578,-693.5 1472,-693.5"/>
<text text-anchor="start" x="1480" y="-711.5" font-family="Helvetica,sans-Serif" font-size="10.00">odp/api/abi/packet</text>
<text text-anchor="middle" x="1525" y="-700.5" font-family="Helvetica,sans-Serif" font-size="10.00">_io_types.h</text>
</a>
</g>
</g>
<!-- Node17&#45;&gt;Node18 -->
<g id="edge23" class="edge">
<title>Node17&#45;&gt;Node18</title>
<path fill="none" stroke="midnightblue" d="M1373.36,-760.48C1399.46,-751.7 1440.85,-737.79 1473.8,-726.71"/>
<polygon fill="midnightblue" stroke="midnightblue" points="1474.92,-730.03 1483.28,-723.52 1472.69,-723.39 1474.92,-730.03"/>
</g>
<!-- Node19 -->
<g id="node19" class="node">
<title>Node19</title>
<g id="a_node19"><a xlink:title=" ">
<polygon fill="white" stroke="#bfbfbf" points="1348,-693.5 1348,-723.5 1454,-723.5 1454,-693.5 1348,-693.5"/>
<text text-anchor="start" x="1356" y="-711.5" font-family="Helvetica,sans-Serif" font-size="10.00">odp/api/abi/packet</text>
<text text-anchor="middle" x="1401" y="-700.5" font-family="Helvetica,sans-Serif" font-size="10.00">_types.h</text>
</a>
</g>
</g>
<!-- Node17&#45;&gt;Node19 -->
<g id="edge24" class="edge">
<title>Node17&#45;&gt;Node19</title>
<path fill="none" stroke="midnightblue" d="M1355.59,-760.48C1362.37,-752.87 1372.59,-741.4 1381.61,-731.26"/>
<polygon fill="midnightblue" stroke="midnightblue" points="1384.47,-733.32 1388.51,-723.52 1379.24,-728.66 1384.47,-733.32"/>
</g>
<!-- Node20 -->
<g id="node20" class="node">
<title>Node20</title>
<g id="a_node20"><a xlink:href="spec_2packet__types_8h.html" target="_top" xlink:title="ODP packet types.">
<polygon fill="white" stroke="black" points="1216.5,-693.5 1216.5,-723.5 1329.5,-723.5 1329.5,-693.5 1216.5,-693.5"/>
<text text-anchor="start" x="1224.5" y="-711.5" font-family="Helvetica,sans-Serif" font-size="10.00">odp/api/spec/packet</text>
<text text-anchor="middle" x="1273" y="-700.5" font-family="Helvetica,sans-Serif" font-size="10.00">_types.h</text>
</a>
</g>
</g>
<!-- Node17&#45;&gt;Node20 -->
<g id="edge25" class="edge">
<title>Node17&#45;&gt;Node20</title>
<path fill="none" stroke="midnightblue" d="M1337.25,-760.48C1327.19,-752.49 1311.77,-740.25 1298.55,-729.77"/>
<polygon fill="midnightblue" stroke="midnightblue" points="1300.69,-727 1290.68,-723.52 1296.33,-732.48 1300.69,-727"/>
</g>
<!-- Node20&#45;&gt;Node2 -->
<g id="edge26" class="edge">
<title>Node20&#45;&gt;Node2</title>
<path fill="none" stroke="midnightblue" d="M1277.05,-693.48C1283.15,-671.08 1294,-625.73 1294,-586.5 1294,-586.5 1294,-586.5 1294,-394.5 1294,-350.3 1270.91,-341.36 1237,-313 1207.71,-288.51 1192.11,-296.01 1159,-277 1031.11,-203.59 1001.48,-179.95 887,-87 871.38,-74.32 872.2,-64.58 854,-56 805.49,-33.13 660.4,-20.58 572.06,-14.88"/>
<polygon fill="midnightblue" stroke="midnightblue" points="572.04,-11.37 561.84,-14.23 571.6,-18.35 572.04,-11.37"/>
</g>
<!-- Node20&#45;&gt;Node10 -->
<g id="edge66" class="edge">
<title>Node20&#45;&gt;Node10</title>
<path fill="none" stroke="midnightblue" d="M1329.52,-695.28C1362.93,-686.91 1405.5,-674.19 1441,-657 1576.17,-591.56 1718,-613.67 1718,-463.5 1718,-463.5 1718,-463.5 1718,-132 1718,-76.88 1671.04,-76.81 1620,-56 1562.77,-32.67 1391.16,-19.84 1295.42,-14.32"/>
<polygon fill="midnightblue" stroke="midnightblue" points="1295.44,-10.82 1285.26,-13.75 1295.05,-17.81 1295.44,-10.82"/>
</g>
<!-- Node21 -->
<g id="node21" class="node">
<title>Node21</title>
<g id="a_node21"><a xlink:href="proto__stats__types_8h.html" target="_top" xlink:title="ODP proto stats types.">
<polygon fill="white" stroke="black" points="1486,-380.5 1486,-410.5 1596,-410.5 1596,-380.5 1486,-380.5"/>
<text text-anchor="start" x="1494" y="-398.5" font-family="Helvetica,sans-Serif" font-size="10.00">odp/api/proto_stats</text>
<text text-anchor="middle" x="1541" y="-387.5" font-family="Helvetica,sans-Serif" font-size="10.00">_types.h</text>
</a>
</g>
</g>
<!-- Node20&#45;&gt;Node21 -->
<g id="edge27" class="edge">
<title>Node20&#45;&gt;Node21</title>
<path fill="none" stroke="midnightblue" d="M1316.2,-693.41C1380.27,-671.2 1493,-626.44 1493,-586.5 1493,-586.5 1493,-586.5 1493,-523 1493,-484.84 1512.33,-444.18 1526.45,-419.55"/>
<polygon fill="midnightblue" stroke="midnightblue" points="1529.65,-421.02 1531.75,-410.63 1523.63,-417.45 1529.65,-421.02"/>
</g>
<!-- Node20&#45;&gt;Node24 -->
<g id="edge33" class="edge">
<title>Node20&#45;&gt;Node24</title>
<path fill="none" stroke="midnightblue" d="M1252.86,-693.4C1239.61,-684.13 1222.32,-672.03 1208.92,-662.65"/>
<polygon fill="midnightblue" stroke="midnightblue" points="1210.57,-659.53 1200.37,-656.66 1206.55,-665.26 1210.57,-659.53"/>
</g>
<!-- Node22 -->
<g id="node22" class="node">
<title>Node22</title>
<g id="a_node22"><a xlink:title=" ">
<polygon fill="white" stroke="#bfbfbf" points="1486,-313.5 1486,-343.5 1614,-343.5 1614,-313.5 1486,-313.5"/>
<text text-anchor="start" x="1494" y="-331.5" font-family="Helvetica,sans-Serif" font-size="10.00">odp/api/abi/proto_stats</text>
<text text-anchor="middle" x="1550" y="-320.5" font-family="Helvetica,sans-Serif" font-size="10.00">_types.h</text>
</a>
</g>
</g>
<!-- Node21&#45;&gt;Node22 -->
<g id="edge28" class="edge">
<title>Node21&#45;&gt;Node22</title>
<path fill="none" stroke="midnightblue" d="M1542.95,-380.4C1544.04,-372.56 1545.42,-362.6 1546.67,-353.57"/>
<polygon fill="midnightblue" stroke="midnightblue" points="1550.15,-353.96 1548.05,-343.58 1543.21,-353 1550.15,-353.96"/>
</g>
<!-- Node23 -->
<g id="node23" class="node">
<title>Node23</title>
<g id="a_node23"><a xlink:href="spec_2proto__stats__types_8h.html" target="_top" xlink:title="ODP proto stats types.">
<polygon fill="white" stroke="black" points="1322.5,-313.5 1322.5,-343.5 1429.5,-343.5 1429.5,-313.5 1322.5,-313.5"/>
<text text-anchor="start" x="1330.5" y="-331.5" font-family="Helvetica,sans-Serif" font-size="10.00">odp/api/spec/proto</text>
<text text-anchor="middle" x="1376" y="-320.5" font-family="Helvetica,sans-Serif" font-size="10.00">_stats_types.h</text>
</a>
</g>
</g>
<!-- Node21&#45;&gt;Node23 -->
<g id="edge29" class="edge">
<title>Node21&#45;&gt;Node23</title>
<path fill="none" stroke="midnightblue" d="M1505.2,-380.4C1480.55,-370.69 1447.61,-357.71 1421.16,-347.29"/>
<polygon fill="midnightblue" stroke="midnightblue" points="1422.32,-343.99 1411.73,-343.58 1419.75,-350.5 1422.32,-343.99"/>
</g>
<!-- Node23&#45;&gt;Node2 -->
<g id="edge30" class="edge">
<title>Node23&#45;&gt;Node2</title>
<path fill="none" stroke="midnightblue" d="M1322.34,-316.25C1277.43,-306.13 1217.5,-290.78 1197,-277 1124.99,-228.59 1147.42,-173.69 1077,-123 1040.66,-96.84 930.62,-66.1 887,-56 778.65,-30.91 649.78,-19.47 571.75,-14.51"/>
<polygon fill="midnightblue" stroke="midnightblue" points="571.75,-11 561.55,-13.88 571.32,-17.99 571.75,-11"/>
</g>
<!-- Node23&#45;&gt;Node3 -->
<g id="edge31" class="edge">
<title>Node23&#45;&gt;Node3</title>
<path fill="none" stroke="midnightblue" d="M1322.26,-321.32C1296.49,-318.5 1265.17,-315.29 1237,-313 1082.36,-300.42 614.58,-275.22 440.35,-265.99"/>
<polygon fill="midnightblue" stroke="midnightblue" points="440.46,-262.49 430.29,-265.46 440.09,-269.48 440.46,-262.49"/>
</g>
<!-- Node23&#45;&gt;Node10 -->
<g id="edge32" class="edge">
<title>Node23&#45;&gt;Node10</title>
<path fill="none" stroke="midnightblue" d="M1383.15,-313.26C1394.41,-289.49 1415,-239.95 1415,-195.5 1415,-195.5 1415,-195.5 1415,-132 1415,-68.72 1338.41,-36.83 1283.52,-22.1"/>
<polygon fill="midnightblue" stroke="midnightblue" points="1284.11,-18.63 1273.55,-19.54 1282.37,-25.41 1284.11,-18.63"/>
</g>
<!-- Node25 -->
<g id="node25" class="node">
<title>Node25</title>
<g id="a_node25"><a xlink:title=" ">
<polygon fill="white" stroke="#bfbfbf" points="1120.5,-576 1120.5,-595 1265.5,-595 1265.5,-576 1120.5,-576"/>
<text text-anchor="middle" x="1193" y="-583" font-family="Helvetica,sans-Serif" font-size="10.00">odp/api/abi/queue_types.h</text>
</a>
</g>
</g>
<!-- Node24&#45;&gt;Node25 -->
<g id="edge34" class="edge">
<title>Node24&#45;&gt;Node25</title>
<path fill="none" stroke="midnightblue" d="M1188.72,-637.48C1189.42,-629.08 1190.52,-615.98 1191.43,-605.16"/>
<polygon fill="midnightblue" stroke="midnightblue" points="1194.94,-605.27 1192.28,-595.01 1187.96,-604.68 1194.94,-605.27"/>
</g>
<!-- Node26 -->
<g id="node26" class="node">
<title>Node26</title>
<g id="a_node26"><a xlink:href="spec_2queue__types_8h.html" target="_top" xlink:title="ODP queue types.">
<polygon fill="white" stroke="black" points="951.5,-570.5 951.5,-600.5 1062.5,-600.5 1062.5,-570.5 951.5,-570.5"/>
<text text-anchor="start" x="959.5" y="-588.5" font-family="Helvetica,sans-Serif" font-size="10.00">odp/api/spec/queue</text>
<text text-anchor="middle" x="1007" y="-577.5" font-family="Helvetica,sans-Serif" font-size="10.00">_types.h</text>
</a>
</g>
</g>
<!-- Node24&#45;&gt;Node26 -->
<g id="edge35" class="edge">
<title>Node24&#45;&gt;Node26</title>
<path fill="none" stroke="midnightblue" d="M1162.07,-637.48C1135.38,-628.7 1093.05,-614.79 1059.36,-603.71"/>
<polygon fill="midnightblue" stroke="midnightblue" points="1060.25,-600.32 1049.66,-600.52 1058.06,-606.97 1060.25,-600.32"/>
</g>
<!-- Node26&#45;&gt;Node2 -->
<g id="edge36" class="edge">
<title>Node26&#45;&gt;Node2</title>
<path fill="none" stroke="midnightblue" d="M951.42,-580.04C888.91,-573.96 784.92,-560.63 699,-534 451.85,-457.39 184,-521.25 184,-262.5 184,-262.5 184,-262.5 184,-132 184,-79.98 226.18,-78.66 273,-56 322.4,-32.09 383.67,-20.88 430.25,-15.63"/>
<polygon fill="midnightblue" stroke="midnightblue" points="430.68,-19.11 440.26,-14.57 429.94,-12.14 430.68,-19.11"/>
</g>
<!-- Node26&#45;&gt;Node10 -->
<g id="edge65" class="edge">
<title>Node26&#45;&gt;Node10</title>
<path fill="none" stroke="midnightblue" d="M1062.65,-575.96C1223.89,-551.03 1680,-479.14 1680,-463.5 1680,-463.5 1680,-463.5 1680,-132 1680,-53.35 1420.88,-24.41 1295.46,-15.01"/>
<polygon fill="midnightblue" stroke="midnightblue" points="1295.44,-11.5 1285.21,-14.26 1294.93,-18.48 1295.44,-11.5"/>
</g>
<!-- Node27 -->
<g id="node27" class="node">
<title>Node27</title>
<g id="a_node27"><a xlink:href="event__vector__types_8h.html" target="_top" xlink:title="ODP event vector API type definitions.">
<polygon fill="white" stroke="black" points="945.5,-380.5 945.5,-410.5 1064.5,-410.5 1064.5,-380.5 945.5,-380.5"/>
<text text-anchor="start" x="953.5" y="-398.5" font-family="Helvetica,sans-Serif" font-size="10.00">odp/api/event_vector</text>
<text text-anchor="middle" x="1005" y="-387.5" font-family="Helvetica,sans-Serif" font-size="10.00">_types.h</text>
</a>
</g>
</g>
<!-- Node26&#45;&gt;Node27 -->
<g id="edge37" class="edge">
<title>Node26&#45;&gt;Node27</title>
<path fill="none" stroke="midnightblue" d="M1043.45,-570.46C1059.21,-562.35 1076.06,-550.44 1085,-534 1089.25,-526.19 1085.72,-522.86 1085,-514 1082.55,-483.92 1089.79,-472.71 1074,-447 1066.31,-434.48 1054.25,-424.09 1042.35,-416.06"/>
<polygon fill="midnightblue" stroke="midnightblue" points="1044.1,-413.03 1033.78,-410.63 1040.36,-418.94 1044.1,-413.03"/>
</g>
<!-- Node31 -->
<g id="node31" class="node">
<title>Node31</title>
<g id="a_node31"><a xlink:href="queue__stats__types_8h.html" target="_top" xlink:title="ODP queue.">
<polygon fill="white" stroke="black" points="673.5,-246.5 673.5,-276.5 788.5,-276.5 788.5,-246.5 673.5,-246.5"/>
<text text-anchor="start" x="681.5" y="-264.5" font-family="Helvetica,sans-Serif" font-size="10.00">odp/api/queue_stats</text>
<text text-anchor="middle" x="731" y="-253.5" font-family="Helvetica,sans-Serif" font-size="10.00">_types.h</text>
</a>
</g>
</g>
<!-- Node26&#45;&gt;Node31 -->
<g id="edge50" class="edge">
<title>Node26&#45;&gt;Node31</title>
<path fill="none" stroke="midnightblue" d="M951.42,-581.73C855.44,-573.48 662,-540.75 590,-411 568.78,-372.76 555.48,-348.52 581,-313 591.26,-298.72 628.74,-286.1 663.67,-277.05"/>
<polygon fill="midnightblue" stroke="midnightblue" points="664.59,-280.42 673.43,-274.59 662.88,-273.64 664.59,-280.42"/>
</g>
<!-- Node33 -->
<g id="node33" class="node">
<title>Node33</title>
<g id="a_node33"><a xlink:href="schedule__types_8h.html" target="_top" xlink:title="ODP schedule.">
<polygon fill="white" stroke="black" points="936,-514.5 936,-533.5 1076,-533.5 1076,-514.5 936,-514.5"/>
<text text-anchor="middle" x="1006" y="-521.5" font-family="Helvetica,sans-Serif" font-size="10.00">odp/api/schedule_types.h</text>
</a>
</g>
</g>
<!-- Node26&#45;&gt;Node33 -->
<g id="edge51" class="edge">
<title>Node26&#45;&gt;Node33</title>
<path fill="none" stroke="midnightblue" d="M1006.76,-570.4C1006.63,-562.47 1006.46,-552.46 1006.32,-543.86"/>
<polygon fill="midnightblue" stroke="midnightblue" points="1009.81,-543.6 1006.15,-533.66 1002.81,-543.72 1009.81,-543.6"/>
</g>
<!-- Node28 -->
<g id="node28" class="node">
<title>Node28</title>
<g id="a_node28"><a xlink:title=" ">
<polygon fill="white" stroke="#bfbfbf" points="936.5,-313.5 936.5,-343.5 1073.5,-343.5 1073.5,-313.5 936.5,-313.5"/>
<text text-anchor="start" x="944.5" y="-331.5" font-family="Helvetica,sans-Serif" font-size="10.00">odp/api/abi/event_vector</text>
<text text-anchor="middle" x="1005" y="-320.5" font-family="Helvetica,sans-Serif" font-size="10.00">_types.h</text>
</a>
</g>
</g>
<!-- Node27&#45;&gt;Node28 -->
<g id="edge38" class="edge">
<title>Node27&#45;&gt;Node28</title>
<path fill="none" stroke="midnightblue" d="M1005,-380.4C1005,-372.64 1005,-362.81 1005,-353.86"/>
<polygon fill="midnightblue" stroke="midnightblue" points="1008.5,-353.58 1005,-343.58 1001.5,-353.58 1008.5,-353.58"/>
</g>
<!-- Node29 -->
<g id="node29" class="node">
<title>Node29</title>
<g id="a_node29"><a xlink:title=" ">
<polygon fill="white" stroke="#bfbfbf" points="1092,-319 1092,-338 1228,-338 1228,-319 1092,-319"/>
<text text-anchor="middle" x="1160" y="-326" font-family="Helvetica,sans-Serif" font-size="10.00">odp/api/abi/pool_types.h</text>
</a>
</g>
</g>
<!-- Node27&#45;&gt;Node29 -->
<g id="edge39" class="edge">
<title>Node27&#45;&gt;Node29</title>
<path fill="none" stroke="midnightblue" d="M1038.63,-380.4C1065.95,-368.94 1104.11,-352.94 1130.31,-341.95"/>
<polygon fill="midnightblue" stroke="midnightblue" points="1131.85,-345.1 1139.71,-338.01 1129.14,-338.65 1131.85,-345.1"/>
</g>
<!-- Node30 -->
<g id="node30" class="node">
<title>Node30</title>
<g id="a_node30"><a xlink:href="spec_2event__vector__types_8h.html" target="_top" xlink:title="ODP event vector API type definitions.">
<polygon fill="white" stroke="black" points="770.5,-313.5 770.5,-343.5 879.5,-343.5 879.5,-313.5 770.5,-313.5"/>
<text text-anchor="start" x="778.5" y="-331.5" font-family="Helvetica,sans-Serif" font-size="10.00">odp/api/spec/event</text>
<text text-anchor="middle" x="825" y="-320.5" font-family="Helvetica,sans-Serif" font-size="10.00">_vector_types.h</text>
</a>
</g>
</g>
<!-- Node27&#45;&gt;Node30 -->
<g id="edge40" class="edge">
<title>Node27&#45;&gt;Node30</title>
<path fill="none" stroke="midnightblue" d="M965.94,-380.4C938.82,-370.6 902.49,-357.48 873.5,-347.02"/>
<polygon fill="midnightblue" stroke="midnightblue" points="874.58,-343.68 863.98,-343.58 872.2,-350.26 874.58,-343.68"/>
</g>
<!-- Node30&#45;&gt;Node2 -->
<g id="edge41" class="edge">
<title>Node30&#45;&gt;Node2</title>
<path fill="none" stroke="midnightblue" d="M824.37,-313.07C822.31,-283.74 813.52,-216.74 776,-179 740.62,-143.42 713.28,-166.59 669,-143 632.91,-123.77 627.16,-113.48 596,-87 580.66,-73.97 578.51,-68.82 563,-56 549.8,-45.09 534.2,-33.77 521.95,-25.21"/>
<polygon fill="midnightblue" stroke="midnightblue" points="523.92,-22.32 513.7,-19.52 519.94,-28.08 523.92,-22.32"/>
</g>
<!-- Node30&#45;&gt;Node3 -->
<g id="edge48" class="edge">
<title>Node30&#45;&gt;Node3</title>
<path fill="none" stroke="midnightblue" d="M770.15,-319.59C687.08,-307.62 529.61,-284.93 440.26,-272.05"/>
<polygon fill="midnightblue" stroke="midnightblue" points="440.63,-268.57 430.24,-270.61 439.63,-275.5 440.63,-268.57"/>
</g>
<!-- Node30&#45;&gt;Node10 -->
<g id="edge49" class="edge">
<title>Node30&#45;&gt;Node10</title>
<path fill="none" stroke="midnightblue" d="M849.91,-313.25C908.79,-278.89 1059.69,-186.91 1167,-87 1186.59,-68.76 1205.49,-44.28 1217.17,-28.09"/>
<polygon fill="midnightblue" stroke="midnightblue" points="1220.24,-29.81 1223.16,-19.62 1214.53,-25.76 1220.24,-29.81"/>
</g>
<!-- Node30&#45;&gt;Node14 -->
<g id="edge42" class="edge">
<title>Node30&#45;&gt;Node14</title>
<path fill="none" stroke="midnightblue" d="M879.76,-319.46C960.6,-307.6 1111.74,-285.43 1199.71,-272.52"/>
<polygon fill="midnightblue" stroke="midnightblue" points="1200.46,-275.95 1209.85,-271.03 1199.45,-269.02 1200.46,-275.95"/>
</g>
<!-- Node30&#45;&gt;Node31 -->
<g id="edge43" class="edge">
<title>Node30&#45;&gt;Node31</title>
<path fill="none" stroke="midnightblue" d="M804.6,-313.4C791.55,-304.37 774.4,-292.51 759.95,-282.52"/>
<polygon fill="midnightblue" stroke="midnightblue" points="761.57,-279.39 751.36,-276.58 757.59,-285.14 761.57,-279.39"/>
</g>
<!-- Node32 -->
<g id="node32" class="node">
<title>Node32</title>
<g id="a_node32"><a xlink:href="spec_2queue__stats__types_8h.html" target="_top" xlink:title="ODP queue statistics types.">
<polygon fill="white" stroke="black" points="500.5,-179.5 500.5,-209.5 611.5,-209.5 611.5,-179.5 500.5,-179.5"/>
<text text-anchor="start" x="508.5" y="-197.5" font-family="Helvetica,sans-Serif" font-size="10.00">odp/api/spec/queue</text>
<text text-anchor="middle" x="556" y="-186.5" font-family="Helvetica,sans-Serif" font-size="10.00">_stats_types.h</text>
</a>
</g>
</g>
<!-- Node31&#45;&gt;Node32 -->
<g id="edge44" class="edge">
<title>Node31&#45;&gt;Node32</title>
<path fill="none" stroke="midnightblue" d="M693.03,-246.4C666.77,-236.64 631.64,-223.59 603.52,-213.15"/>
<polygon fill="midnightblue" stroke="midnightblue" points="604.49,-209.78 593.9,-209.58 602.05,-216.34 604.49,-209.78"/>
</g>
<!-- Node32&#45;&gt;Node2 -->
<g id="edge45" class="edge">
<title>Node32&#45;&gt;Node2</title>
<path fill="none" stroke="midnightblue" d="M542.92,-179.15C534.98,-169.6 525.37,-156.39 520,-143 504.7,-104.81 501.48,-56.03 500.95,-29.77"/>
<polygon fill="midnightblue" stroke="midnightblue" points="504.45,-29.67 500.86,-19.7 497.45,-29.73 504.45,-29.67"/>
</g>
<!-- Node32&#45;&gt;Node6 -->
<g id="edge46" class="edge">
<title>Node32&#45;&gt;Node6</title>
<path fill="none" stroke="midnightblue" d="M556,-179.4C556,-171.47 556,-161.46 556,-152.86"/>
<polygon fill="midnightblue" stroke="midnightblue" points="559.5,-152.66 556,-142.66 552.5,-152.66 559.5,-152.66"/>
</g>
<!-- Node32&#45;&gt;Node10 -->
<g id="edge47" class="edge">
<title>Node32&#45;&gt;Node10</title>
<path fill="none" stroke="midnightblue" d="M611.62,-180.86C675.48,-166.32 772.02,-144.28 776,-143 870.98,-112.39 887.35,-84.48 983,-56 1042.76,-38.21 1112.88,-26.22 1162.94,-19.12"/>
<polygon fill="midnightblue" stroke="midnightblue" points="1163.57,-22.56 1172.99,-17.72 1162.6,-15.63 1163.57,-22.56"/>
</g>
<!-- Node34 -->
<g id="node34" class="node">
<title>Node34</title>
<g id="a_node34"><a xlink:title=" ">
<polygon fill="white" stroke="#bfbfbf" points="947.5,-447.5 947.5,-477.5 1064.5,-477.5 1064.5,-447.5 947.5,-447.5"/>
<text text-anchor="start" x="955.5" y="-465.5" font-family="Helvetica,sans-Serif" font-size="10.00">odp/api/abi/schedule</text>
<text text-anchor="middle" x="1006" y="-454.5" font-family="Helvetica,sans-Serif" font-size="10.00">_types.h</text>
</a>
</g>
</g>
<!-- Node33&#45;&gt;Node34 -->
<g id="edge52" class="edge">
<title>Node33&#45;&gt;Node34</title>
<path fill="none" stroke="midnightblue" d="M1006,-514.48C1006,-507.47 1006,-497.19 1006,-487.7"/>
<polygon fill="midnightblue" stroke="midnightblue" points="1009.5,-487.52 1006,-477.52 1002.5,-487.52 1009.5,-487.52"/>
</g>
<!-- Node35 -->
<g id="node35" class="node">
<title>Node35</title>
<g id="a_node35"><a xlink:href="spec_2schedule__types_8h.html" target="_top" xlink:title="ODP schedule types.">
<polygon fill="white" stroke="black" points="679.5,-447.5 679.5,-477.5 804.5,-477.5 804.5,-447.5 679.5,-447.5"/>
<text text-anchor="start" x="687.5" y="-465.5" font-family="Helvetica,sans-Serif" font-size="10.00">odp/api/spec/schedule</text>
<text text-anchor="middle" x="742" y="-454.5" font-family="Helvetica,sans-Serif" font-size="10.00">_types.h</text>
</a>
</g>
</g>
<!-- Node33&#45;&gt;Node35 -->
<g id="edge53" class="edge">
<title>Node33&#45;&gt;Node35</title>
<path fill="none" stroke="midnightblue" d="M968.18,-514.48C928.08,-505.44 863.78,-490.95 813.98,-479.72"/>
<polygon fill="midnightblue" stroke="midnightblue" points="814.74,-476.31 804.22,-477.52 813.21,-483.14 814.74,-476.31"/>
</g>
<!-- Node35&#45;&gt;Node2 -->
<g id="edge54" class="edge">
<title>Node35&#45;&gt;Node2</title>
<path fill="none" stroke="midnightblue" d="M679.35,-457.3C623.02,-451.8 538.93,-439.27 471,-411 422.63,-390.87 416.87,-374.13 374,-344 323.04,-308.19 260,-324.78 260,-262.5 260,-262.5 260,-262.5 260,-132 260,-55.14 359.12,-27.1 430.22,-16.87"/>
<polygon fill="midnightblue" stroke="midnightblue" points="431.05,-20.29 440.5,-15.48 430.12,-13.35 431.05,-20.29"/>
</g>
<!-- Node35&#45;&gt;Node3 -->
<g id="edge57" class="edge">
<title>Node35&#45;&gt;Node3</title>
<path fill="none" stroke="midnightblue" d="M691.33,-447.41C599.61,-421.47 413.6,-366.74 393,-344 377.49,-326.88 373.92,-299.59 373.44,-281.36"/>
<polygon fill="midnightblue" stroke="midnightblue" points="376.94,-281.37 373.46,-271.36 369.94,-281.35 376.94,-281.37"/>
</g>
<!-- Node35&#45;&gt;Node10 -->
<g id="edge64" class="edge">
<title>Node35&#45;&gt;Node10</title>
<path fill="none" stroke="midnightblue" d="M804.6,-456.54C979.06,-441.9 1458,-395.66 1458,-329.5 1458,-329.5 1458,-329.5 1458,-132 1458,-57.79 1362.84,-28.98 1295.2,-17.87"/>
<polygon fill="midnightblue" stroke="midnightblue" points="1295.44,-14.36 1285.02,-16.29 1294.37,-21.28 1295.44,-14.36"/>
</g>
<!-- Node35&#45;&gt;Node27 -->
<g id="edge55" class="edge">
<title>Node35&#45;&gt;Node27</title>
<path fill="none" stroke="midnightblue" d="M798.74,-447.48C839.65,-437.37 895.01,-423.68 938.08,-413.04"/>
<polygon fill="midnightblue" stroke="midnightblue" points="939.04,-416.41 947.91,-410.61 937.36,-409.61 939.04,-416.41"/>
</g>
<!-- Node35&#45;&gt;Node31 -->
<g id="edge56" class="edge">
<title>Node35&#45;&gt;Node31</title>
<path fill="none" stroke="midnightblue" d="M741.21,-447.19C739.35,-413.48 734.66,-328.8 732.35,-286.84"/>
<polygon fill="midnightblue" stroke="midnightblue" points="735.83,-286.47 731.78,-276.68 728.84,-286.86 735.83,-286.47"/>
</g>
<!-- Node36 -->
<g id="node36" class="node">
<title>Node36</title>
<g id="a_node36"><a xlink:href="thrmask_8h.html" target="_top" xlink:title="ODP thread masks.">
<polygon fill="white" stroke="black" points="599.5,-386 599.5,-405 704.5,-405 704.5,-386 599.5,-386"/>
<text text-anchor="middle" x="652" y="-393" font-family="Helvetica,sans-Serif" font-size="10.00">odp/api/thrmask.h</text>
</a>
</g>
</g>
<!-- Node35&#45;&gt;Node36 -->
<g id="edge58" class="edge">
<title>Node35&#45;&gt;Node36</title>
<path fill="none" stroke="midnightblue" d="M722.47,-447.4C707.52,-436.6 686.97,-421.76 671.92,-410.89"/>
<polygon fill="midnightblue" stroke="midnightblue" points="673.93,-408.02 663.78,-405.01 669.84,-413.7 673.93,-408.02"/>
</g>
<!-- Node37 -->
<g id="node37" class="node">
<title>Node37</title>
<g id="a_node37"><a xlink:title=" ">
<polygon fill="white" stroke="#bfbfbf" points="590.5,-319 590.5,-338 713.5,-338 713.5,-319 590.5,-319"/>
<text text-anchor="middle" x="652" y="-326" font-family="Helvetica,sans-Serif" font-size="10.00">odp/api/abi/thrmask.h</text>
</a>
</g>
</g>
<!-- Node36&#45;&gt;Node37 -->
<g id="edge59" class="edge">
<title>Node36&#45;&gt;Node37</title>
<path fill="none" stroke="midnightblue" d="M652,-385.73C652,-376.18 652,-360.62 652,-348.28"/>
<polygon fill="midnightblue" stroke="midnightblue" points="655.5,-348.13 652,-338.13 648.5,-348.13 655.5,-348.13"/>
</g>
<!-- Node38 -->
<g id="node38" class="node">
<title>Node38</title>
<g id="a_node38"><a xlink:href="spec_2thrmask_8h.html" target="_top" xlink:title="ODP thread masks.">
<polygon fill="white" stroke="black" points="402.5,-319 402.5,-338 533.5,-338 533.5,-319 402.5,-319"/>
<text text-anchor="middle" x="468" y="-326" font-family="Helvetica,sans-Serif" font-size="10.00">odp/api/spec/thrmask.h</text>
</a>
</g>
</g>
<!-- Node36&#45;&gt;Node38 -->
<g id="edge60" class="edge">
<title>Node36&#45;&gt;Node38</title>
<path fill="none" stroke="midnightblue" d="M627.57,-385.87C595.31,-374.47 538.35,-354.35 501.93,-341.49"/>
<polygon fill="midnightblue" stroke="midnightblue" points="502.84,-338.09 492.24,-338.06 500.5,-344.69 502.84,-338.09"/>
</g>
<!-- Node38&#45;&gt;Node2 -->
<g id="edge61" class="edge">
<title>Node38&#45;&gt;Node2</title>
<path fill="none" stroke="midnightblue" d="M467.45,-318.86C466.14,-297.78 463,-242.05 463,-195.5 463,-195.5 463,-195.5 463,-132 463,-93.81 480.44,-51.83 491.69,-28.72"/>
<polygon fill="midnightblue" stroke="midnightblue" points="494.96,-30.02 496.34,-19.52 488.71,-26.86 494.96,-30.02"/>
</g>
<!-- Node38&#45;&gt;Node3 -->
<g id="edge62" class="edge">
<title>Node38&#45;&gt;Node3</title>
<path fill="none" stroke="midnightblue" d="M455.32,-318.73C439.82,-308.01 413.36,-289.72 394.84,-276.91"/>
<polygon fill="midnightblue" stroke="midnightblue" points="396.69,-273.94 386.48,-271.13 392.71,-279.69 396.69,-273.94"/>
</g>
<!-- Node38&#45;&gt;Node10 -->
<g id="edge63" class="edge">
<title>Node38&#45;&gt;Node10</title>
<path fill="none" stroke="midnightblue" d="M487.37,-318.88C522.45,-303.41 598.99,-270.27 665,-246 871.58,-170.06 947.02,-203.12 1134,-87 1151.09,-76.38 1151.49,-68.82 1167,-56 1180.2,-45.09 1195.8,-33.77 1208.05,-25.21"/>
<polygon fill="midnightblue" stroke="midnightblue" points="1210.06,-28.08 1216.3,-19.52 1206.08,-22.32 1210.06,-28.08"/>
</g>
<!-- Node39&#45;&gt;Node1 -->
<g id="edge71" class="edge">
<title>Node39&#45;&gt;Node1</title>
<path fill="none" stroke="midnightblue" d="M1690.88,-779.54C1625.16,-793.25 1490.31,-820.23 1375,-836 969.66,-891.42 476.39,-924.4 320.03,-934.03"/>
<polygon fill="midnightblue" stroke="midnightblue" points="319.55,-930.55 309.79,-934.65 319.98,-937.54 319.55,-930.55"/>
</g>
<!-- Node39&#45;&gt;Node29 -->
<g id="edge70" class="edge">
<title>Node39&#45;&gt;Node29</title>
<path fill="none" stroke="midnightblue" d="M1719.85,-760.42C1649.79,-706.49 1270.39,-414.47 1179.55,-344.55"/>
<polygon fill="midnightblue" stroke="midnightblue" points="1181.52,-341.64 1171.46,-338.32 1177.25,-347.19 1181.52,-341.64"/>
</g>
<!-- Node41 -->
<g id="node41" class="node">
<title>Node41</title>
<g id="a_node41"><a xlink:title=" ">
<polygon fill="white" stroke="#bfbfbf" points="28,-699 28,-718 156,-718 156,-699 28,-699"/>
<text text-anchor="middle" x="92" y="-706" font-family="Helvetica,sans-Serif" font-size="10.00">odp/api/abi/ml_types.h</text>
</a>
</g>
</g>
<!-- Node40&#45;&gt;Node41 -->
<g id="edge74" class="edge">
<title>Node40&#45;&gt;Node41</title>
<path fill="none" stroke="midnightblue" d="M99.71,-760.48C98.44,-752.08 96.46,-738.98 94.82,-728.16"/>
<polygon fill="midnightblue" stroke="midnightblue" points="98.24,-727.37 93.29,-718.01 91.32,-728.42 98.24,-727.37"/>
</g>
<!-- Node42 -->
<g id="node42" class="node">
<title>Node42</title>
<g id="a_node42"><a xlink:href="spec_2ml__types_8h.html" target="_top" xlink:title="ODP Machine Learning (ML) types.">
<polygon fill="white" stroke="black" points="583.5,-699 583.5,-718 718.5,-718 718.5,-699 583.5,-699"/>
<text text-anchor="middle" x="651" y="-706" font-family="Helvetica,sans-Serif" font-size="10.00">odp/api/spec/ml_types.h</text>
</a>
</g>
</g>
<!-- Node40&#45;&gt;Node42 -->
<g id="edge75" class="edge">
<title>Node40&#45;&gt;Node42</title>
<path fill="none" stroke="midnightblue" d="M156,-763.05C254.37,-752.41 460.68,-730.09 573.41,-717.89"/>
<polygon fill="midnightblue" stroke="midnightblue" points="573.79,-721.37 583.35,-716.82 573.04,-714.41 573.79,-721.37"/>
</g>
<!-- Node42&#45;&gt;Node2 -->
<g id="edge76" class="edge">
<title>Node42&#45;&gt;Node2</title>
<path fill="none" stroke="midnightblue" d="M583.49,-706.07C527.29,-702.31 446.76,-690.76 385,-657 205.12,-558.67 146,-467.5 146,-262.5 146,-262.5 146,-262.5 146,-132 146,-90.04 166.07,-77.66 202,-56 239.38,-33.46 354.35,-21.22 430.34,-15.4"/>
<polygon fill="midnightblue" stroke="midnightblue" points="430.62,-18.89 440.33,-14.66 430.1,-11.91 430.62,-18.89"/>
</g>
<!-- Node42&#45;&gt;Node3 -->
<g id="edge79" class="edge">
<title>Node42&#45;&gt;Node3</title>
<path fill="none" stroke="midnightblue" d="M600.74,-698.94C511.81,-682.37 336,-642.52 336,-586.5 336,-586.5 336,-586.5 336,-394.5 336,-352.35 354.11,-305.48 365.33,-280.5"/>
<polygon fill="midnightblue" stroke="midnightblue" points="368.61,-281.76 369.64,-271.21 362.26,-278.81 368.61,-281.76"/>
</g>
<!-- Node42&#45;&gt;Node10 -->
<g id="edge80" class="edge">
<title>Node42&#45;&gt;Node10</title>
<path fill="none" stroke="midnightblue" d="M718.52,-704.09C794.67,-696.19 908,-670.34 908,-586.5 908,-586.5 908,-586.5 908,-394.5 908,-357.2 908.36,-344.71 928,-313 938.23,-296.48 1183.32,-102.54 1195,-87 1208.27,-69.35 1217.81,-45.7 1223.34,-29.5"/>
<polygon fill="midnightblue" stroke="midnightblue" points="1226.79,-30.23 1226.53,-19.64 1220.13,-28.08 1226.79,-30.23"/>
</g>
<!-- Node42&#45;&gt;Node14 -->
<g id="edge77" class="edge">
<title>Node42&#45;&gt;Node14</title>
<path fill="none" stroke="midnightblue" d="M718.77,-707.19C808.91,-703.35 968.86,-684.18 1072,-601 1184.24,-510.48 1245.13,-337.23 1262.64,-280.78"/>
<polygon fill="midnightblue" stroke="midnightblue" points="1266.02,-281.69 1265.56,-271.1 1259.32,-279.66 1266.02,-281.69"/>
</g>
<!-- Node42&#45;&gt;Node24 -->
<g id="edge78" class="edge">
<title>Node42&#45;&gt;Node24</title>
<path fill="none" stroke="midnightblue" d="M718.74,-699.99C819.84,-688.79 1009.48,-667.78 1114.06,-656.19"/>
<polygon fill="midnightblue" stroke="midnightblue" points="1114.67,-659.65 1124.22,-655.07 1113.9,-652.69 1114.67,-659.65"/>
</g>
</g>
</svg>
