<?xml version="1.0" encoding="UTF-8" standalone="no"?>
<!DOCTYPE svg PUBLIC "-//W3C//DTD SVG 1.1//EN"
 "http://www.w3.org/Graphics/SVG/1.1/DTD/svg11.dtd">
<!-- Generated by graphviz version 2.43.0 (0)
 -->
<!-- Title: buffer_types.h Pages: 1 -->
<svg width="468pt" height="252pt"
 viewBox="0.00 0.00 468.00 252.00" xmlns="http://www.w3.org/2000/svg" xmlns:xlink="http://www.w3.org/1999/xlink">
<g id="graph0" class="graph" transform="scale(1 1) rotate(0) translate(4 248)">
<title>buffer_types.h</title>
<polygon fill="white" stroke="transparent" points="-4,4 -4,-248 464,-248 464,4 -4,4"/>
<!-- Node1 -->
<g id="node1" class="node">
<title>Node1</title>
<g id="a_node1"><a xlink:title="ODP buffer types.">
<polygon fill="#bfbfbf" stroke="black" points="145.5,-224.5 145.5,-243.5 231.5,-243.5 231.5,-224.5 145.5,-224.5"/>
<text text-anchor="middle" x="188.5" y="-231.5" font-family="Helvetica,sans-Serif" font-size="10.00">buffer_types.h</text>
</a>
</g>
</g>
<!-- Node2 -->
<g id="node2" class="node">
<title>Node2</title>
<g id="a_node2"><a xlink:href="buffer__types_8h.html" target="_top" xlink:title="ODP buffer types.">
<polygon fill="white" stroke="black" points="145.5,-168.5 145.5,-187.5 231.5,-187.5 231.5,-168.5 145.5,-168.5"/>
<text text-anchor="middle" x="188.5" y="-175.5" font-family="Helvetica,sans-Serif" font-size="10.00">buffer_types.h</text>
</a>
</g>
</g>
<!-- Node1&#45;&gt;Node2 -->
<g id="edge1" class="edge">
<title>Node1&#45;&gt;Node2</title>
<path fill="none" stroke="midnightblue" d="M188.5,-213.8C188.5,-204.91 188.5,-194.78 188.5,-187.75"/>
<polygon fill="midnightblue" stroke="midnightblue" points="185,-214.08 188.5,-224.08 192,-214.08 185,-214.08"/>
</g>
<!-- Node3 -->
<g id="node3" class="node">
<title>Node3</title>
<g id="a_node3"><a xlink:href="spec_2buffer_8h.html" target="_top" xlink:title="ODP buffer.">
<polygon fill="white" stroke="black" points="16,-112.5 16,-131.5 69,-131.5 69,-112.5 16,-112.5"/>
<text text-anchor="middle" x="42.5" y="-119.5" font-family="Helvetica,sans-Serif" font-size="10.00">buffer.h</text>
</a>
</g>
</g>
<!-- Node2&#45;&gt;Node3 -->
<g id="edge2" class="edge">
<title>Node2&#45;&gt;Node3</title>
<path fill="none" stroke="midnightblue" d="M155.8,-164.91C128.35,-154.75 89.83,-140.51 65.53,-131.52"/>
<polygon fill="midnightblue" stroke="midnightblue" points="154.77,-168.26 165.37,-168.44 157.2,-161.69 154.77,-168.26"/>
</g>
<!-- Node6 -->
<g id="node6" class="node">
<title>Node6</title>
<g id="a_node6"><a xlink:href="buffer__inlines_8h_source.html" target="_top" xlink:title=" ">
<polygon fill="white" stroke="black" points="87.5,-112.5 87.5,-131.5 179.5,-131.5 179.5,-112.5 87.5,-112.5"/>
<text text-anchor="middle" x="133.5" y="-119.5" font-family="Helvetica,sans-Serif" font-size="10.00">buffer_inlines.h</text>
</a>
</g>
</g>
<!-- Node2&#45;&gt;Node6 -->
<g id="edge5" class="edge">
<title>Node2&#45;&gt;Node6</title>
<path fill="none" stroke="midnightblue" d="M172.21,-161C162.46,-151.43 150.45,-139.64 142.41,-131.75"/>
<polygon fill="midnightblue" stroke="midnightblue" points="169.83,-163.57 179.42,-168.08 174.73,-158.58 169.83,-163.57"/>
</g>
<!-- Node7 -->
<g id="node7" class="node">
<title>Node7</title>
<g id="a_node7"><a xlink:href="event__inlines_8h_source.html" target="_top" xlink:title=" ">
<polygon fill="white" stroke="black" points="198,-112.5 198,-131.5 289,-131.5 289,-112.5 198,-112.5"/>
<text text-anchor="middle" x="243.5" y="-119.5" font-family="Helvetica,sans-Serif" font-size="10.00">event_inlines.h</text>
</a>
</g>
</g>
<!-- Node2&#45;&gt;Node7 -->
<g id="edge6" class="edge">
<title>Node2&#45;&gt;Node7</title>
<path fill="none" stroke="midnightblue" d="M204.79,-161C214.54,-151.43 226.55,-139.64 234.59,-131.75"/>
<polygon fill="midnightblue" stroke="midnightblue" points="202.27,-158.58 197.58,-168.08 207.17,-163.57 202.27,-158.58"/>
</g>
<!-- Node8 -->
<g id="node8" class="node">
<title>Node8</title>
<g id="a_node8"><a xlink:href="event__validation__external_8h.html" target="_top" xlink:title="ODP event validation.">
<polygon fill="white" stroke="black" points="307,-112.5 307,-131.5 460,-131.5 460,-112.5 307,-112.5"/>
<text text-anchor="middle" x="383.5" y="-119.5" font-family="Helvetica,sans-Serif" font-size="10.00">event_validation_external.h</text>
</a>
</g>
</g>
<!-- Node2&#45;&gt;Node8 -->
<g id="edge7" class="edge">
<title>Node2&#45;&gt;Node8</title>
<path fill="none" stroke="midnightblue" d="M229.31,-165.7C266.11,-155.51 319.43,-140.74 352.75,-131.52"/>
<polygon fill="midnightblue" stroke="midnightblue" points="228.1,-162.4 219.4,-168.44 229.97,-169.15 228.1,-162.4"/>
</g>
<!-- Node4 -->
<g id="node4" class="node">
<title>Node4</title>
<g id="a_node4"><a xlink:href="buffer_8h.html" target="_top" xlink:title="ODP buffer descriptor.">
<polygon fill="white" stroke="black" points="16,-56.5 16,-75.5 69,-75.5 69,-56.5 16,-56.5"/>
<text text-anchor="middle" x="42.5" y="-63.5" font-family="Helvetica,sans-Serif" font-size="10.00">buffer.h</text>
</a>
</g>
</g>
<!-- Node3&#45;&gt;Node4 -->
<g id="edge3" class="edge">
<title>Node3&#45;&gt;Node4</title>
<path fill="none" stroke="midnightblue" d="M42.5,-101.8C42.5,-92.91 42.5,-82.78 42.5,-75.75"/>
<polygon fill="midnightblue" stroke="midnightblue" points="39,-102.08 42.5,-112.08 46,-102.08 39,-102.08"/>
</g>
<!-- Node5 -->
<g id="node5" class="node">
<title>Node5</title>
<g id="a_node5"><a xlink:href="dma__inlines_8h_source.html" target="_top" xlink:title=" ">
<polygon fill="white" stroke="black" points="0,-0.5 0,-19.5 85,-19.5 85,-0.5 0,-0.5"/>
<text text-anchor="middle" x="42.5" y="-7.5" font-family="Helvetica,sans-Serif" font-size="10.00">dma_inlines.h</text>
</a>
</g>
</g>
<!-- Node4&#45;&gt;Node5 -->
<g id="edge4" class="edge">
<title>Node4&#45;&gt;Node5</title>
<path fill="none" stroke="midnightblue" d="M42.5,-45.8C42.5,-36.91 42.5,-26.78 42.5,-19.75"/>
<polygon fill="midnightblue" stroke="midnightblue" points="39,-46.08 42.5,-56.08 46,-46.08 39,-46.08"/>
</g>
<!-- Node9 -->
<g id="node9" class="node">
<title>Node9</title>
<g id="a_node9"><a xlink:href="queue__inlines_8h_source.html" target="_top" xlink:title=" ">
<polygon fill="white" stroke="black" points="337,-56.5 337,-75.5 430,-75.5 430,-56.5 337,-56.5"/>
<text text-anchor="middle" x="383.5" y="-63.5" font-family="Helvetica,sans-Serif" font-size="10.00">queue_inlines.h</text>
</a>
</g>
</g>
<!-- Node8&#45;&gt;Node9 -->
<g id="edge8" class="edge">
<title>Node8&#45;&gt;Node9</title>
<path fill="none" stroke="midnightblue" d="M383.5,-101.8C383.5,-92.91 383.5,-82.78 383.5,-75.75"/>
<polygon fill="midnightblue" stroke="midnightblue" points="380,-102.08 383.5,-112.08 387,-102.08 380,-102.08"/>
</g>
</g>
</svg>
