<?xml version="1.0" encoding="UTF-8" standalone="no"?>
<!DOCTYPE svg PUBLIC "-//W3C//DTD SVG 1.1//EN"
 "http://www.w3.org/Graphics/SVG/1.1/DTD/svg11.dtd">
<!-- Generated by graphviz version 2.40.1 (20161225.0304)
 -->
<!-- Title: comp.h Pages: 1 -->
<svg width="1161pt" height="677pt"
 viewBox="0.00 0.00 1161.00 677.00" xmlns="http://www.w3.org/2000/svg" xmlns:xlink="http://www.w3.org/1999/xlink">
<g id="graph0" class="graph" transform="scale(1 1) rotate(0) translate(4 673)">
<title>comp.h</title>
<polygon fill="#ffffff" stroke="transparent" points="-4,4 -4,-673 1157,-673 1157,4 -4,4"/>
<!-- Node0 -->
<g id="node1" class="node">
<title>Node0</title>
<polygon fill="#bfbfbf" stroke="#000000" points="862.5,-649.5 862.5,-668.5 915.5,-668.5 915.5,-649.5 862.5,-649.5"/>
<text text-anchor="middle" x="889" y="-656.5" font-family="Helvetica,sans-Serif" font-size="10.00" fill="#000000">comp.h</text>
</g>
<!-- Node1 -->
<g id="node2" class="node">
<title>Node1</title>
<polygon fill="#ffffff" stroke="#bfbfbf" points="330.5,-.5 330.5,-19.5 451.5,-19.5 451.5,-.5 330.5,-.5"/>
<text text-anchor="middle" x="391" y="-7.5" font-family="Helvetica,sans-Serif" font-size="10.00" fill="#000000">odp/visibility_begin.h</text>
</g>
<!-- Node0&#45;&gt;Node1 -->
<g id="edge1" class="edge">
<title>Node0&#45;&gt;Node1</title>
<path fill="none" stroke="#191970" d="M862.394,-658.5172C714.4753,-655.4907 0,-636.2527 0,-547 0,-547 0,-547 0,-122 0,-84.3794 20.2542,-74.5208 53,-56 97.333,-30.9255 234.6833,-18.7794 320.0388,-13.5084"/>
<polygon fill="#191970" stroke="#191970" points="320.4084,-16.9926 330.1805,-12.8992 319.9886,-10.0052 320.4084,-16.9926"/>
</g>
<!-- Node2 -->
<g id="node3" class="node">
<title>Node2</title>
<g id="a_node3"><a xlink:href="support_8h.html" target="_top" xlink:title="ODP support API &#45; platform specific header. ">
<polygon fill="#ffffff" stroke="#000000" points="874.5,-112.5 874.5,-131.5 975.5,-131.5 975.5,-112.5 874.5,-112.5"/>
<text text-anchor="middle" x="925" y="-119.5" font-family="Helvetica,sans-Serif" font-size="10.00" fill="#000000">odp/api/support.h</text>
</a>
</g>
</g>
<!-- Node0&#45;&gt;Node2 -->
<g id="edge2" class="edge">
<title>Node0&#45;&gt;Node2</title>
<path fill="none" stroke="#191970" d="M915.8127,-651.8064C975.6777,-634.9547 1115,-591.0089 1115,-547 1115,-547 1115,-547 1115,-306.5 1115,-219.9671 1012.3134,-160.9506 957.9217,-135.76"/>
<polygon fill="#191970" stroke="#191970" points="959.2341,-132.5124 948.6795,-131.5898 956.355,-138.893 959.2341,-132.5124"/>
</g>
<!-- Node4 -->
<g id="node5" class="node">
<title>Node4</title>
<polygon fill="#ffffff" stroke="#bfbfbf" points="864,-.5 864,-19.5 976,-19.5 976,-.5 864,-.5"/>
<text text-anchor="middle" x="920" y="-7.5" font-family="Helvetica,sans-Serif" font-size="10.00" fill="#000000">odp/visibility_end.h</text>
</g>
<!-- Node0&#45;&gt;Node4 -->
<g id="edge53" class="edge">
<title>Node0&#45;&gt;Node4</title>
<path fill="none" stroke="#191970" d="M915.5878,-655.2441C950.8604,-649.5513 1014.4402,-636.7914 1064,-613 1108.3947,-591.6881 1153,-596.2452 1153,-547 1153,-547 1153,-547 1153,-122 1153,-81.0398 1034.5559,-41.5529 966.5648,-22.2603"/>
<polygon fill="#191970" stroke="#191970" points="967.4927,-18.8856 956.9195,-19.5626 965.6072,-25.6269 967.4927,-18.8856"/>
</g>
<!-- Node5 -->
<g id="node6" class="node">
<title>Node5</title>
<g id="a_node6"><a xlink:href="packet_8h.html" target="_top" xlink:title="ODP packet descriptor. ">
<polygon fill="#ffffff" stroke="#000000" points="635,-593.5 635,-612.5 733,-612.5 733,-593.5 635,-593.5"/>
<text text-anchor="middle" x="684" y="-600.5" font-family="Helvetica,sans-Serif" font-size="10.00" fill="#000000">odp/api/packet.h</text>
</a>
</g>
</g>
<!-- Node0&#45;&gt;Node5 -->
<g id="edge6" class="edge">
<title>Node0&#45;&gt;Node5</title>
<path fill="none" stroke="#191970" d="M862.1998,-651.679C828.3107,-642.4215 769.4775,-626.3499 728.7303,-615.219"/>
<polygon fill="#191970" stroke="#191970" points="729.6131,-611.832 719.0442,-612.573 727.7684,-618.5846 729.6131,-611.832"/>
</g>
<!-- Node3 -->
<g id="node4" class="node">
<title>Node3</title>
<g id="a_node4"><a xlink:href="spec_2support_8h.html" target="_top" xlink:title="ODP support API. ">
<polygon fill="#ffffff" stroke="#000000" points="810.5,-56.5 810.5,-75.5 937.5,-75.5 937.5,-56.5 810.5,-56.5"/>
<text text-anchor="middle" x="874" y="-63.5" font-family="Helvetica,sans-Serif" font-size="10.00" fill="#000000">odp/api/spec/support.h</text>
</a>
</g>
</g>
<!-- Node2&#45;&gt;Node3 -->
<g id="edge3" class="edge">
<title>Node2&#45;&gt;Node3</title>
<path fill="none" stroke="#191970" d="M916.1165,-112.2455C908.8034,-104.2155 898.2609,-92.6394 889.5533,-83.0781"/>
<polygon fill="#191970" stroke="#191970" points="892.1028,-80.6795 882.7817,-75.6427 886.9273,-85.3928 892.1028,-80.6795"/>
</g>
<!-- Node3&#45;&gt;Node1 -->
<g id="edge4" class="edge">
<title>Node3&#45;&gt;Node1</title>
<path fill="none" stroke="#191970" d="M810.3595,-58.6214C720.1472,-48.162 555.6339,-29.088 461.7123,-18.1985"/>
<polygon fill="#191970" stroke="#191970" points="462.0704,-14.7167 451.7338,-17.0416 461.2641,-21.6701 462.0704,-14.7167"/>
</g>
<!-- Node3&#45;&gt;Node4 -->
<g id="edge5" class="edge">
<title>Node3&#45;&gt;Node4</title>
<path fill="none" stroke="#191970" d="M882.0126,-56.2455C888.4768,-48.3761 897.7385,-37.101 905.4983,-27.6542"/>
<polygon fill="#191970" stroke="#191970" points="908.4364,-29.5916 912.0792,-19.6427 903.0273,-25.1484 908.4364,-29.5916"/>
</g>
<!-- Node6 -->
<g id="node7" class="node">
<title>Node6</title>
<g id="a_node7"><a xlink:href="std__types_8h.html" target="_top" xlink:title="Standard C language types and definitions for ODP. ">
<polygon fill="#ffffff" stroke="#000000" points="104,-235.5 104,-254.5 216,-254.5 216,-235.5 104,-235.5"/>
<text text-anchor="middle" x="160" y="-242.5" font-family="Helvetica,sans-Serif" font-size="10.00" fill="#000000">odp/api/std_types.h</text>
</a>
</g>
</g>
<!-- Node5&#45;&gt;Node6 -->
<g id="edge7" class="edge">
<title>Node5&#45;&gt;Node6</title>
<path fill="none" stroke="#191970" d="M634.7198,-599.7376C534.5804,-592.8141 310.4971,-575.7418 236,-557 161.401,-538.2325 76,-567.9236 76,-491 76,-491 76,-491 76,-368 76,-323.1614 114.538,-282.6338 139.4076,-261.1486"/>
<polygon fill="#191970" stroke="#191970" points="141.8049,-263.7068 147.2422,-254.6136 137.321,-258.3313 141.8049,-263.7068"/>
</g>
<!-- Node13 -->
<g id="node14" class="node">
<title>Node13</title>
<polygon fill="#ffffff" stroke="#bfbfbf" points="629,-537.5 629,-556.5 739,-556.5 739,-537.5 629,-537.5"/>
<text text-anchor="middle" x="684" y="-544.5" font-family="Helvetica,sans-Serif" font-size="10.00" fill="#000000">odp/api/abi/event.h</text>
</g>
<!-- Node5&#45;&gt;Node13 -->
<g id="edge18" class="edge">
<title>Node5&#45;&gt;Node13</title>
<path fill="none" stroke="#191970" d="M684,-593.2455C684,-585.9382 684,-575.6944 684,-566.7046"/>
<polygon fill="#191970" stroke="#191970" points="687.5001,-566.6426 684,-556.6427 680.5001,-566.6427 687.5001,-566.6426"/>
</g>
<!-- Node14 -->
<g id="node15" class="node">
<title>Node14</title>
<polygon fill="#ffffff" stroke="#bfbfbf" points="957,-537.5 957,-556.5 1087,-556.5 1087,-537.5 957,-537.5"/>
<text text-anchor="middle" x="1022" y="-544.5" font-family="Helvetica,sans-Serif" font-size="10.00" fill="#000000">odp/api/abi/packet_io.h</text>
</g>
<!-- Node5&#45;&gt;Node14 -->
<g id="edge19" class="edge">
<title>Node5&#45;&gt;Node14</title>
<path fill="none" stroke="#191970" d="M733.1481,-594.8571C791.4564,-585.1966 888.9808,-569.0387 954.3783,-558.2036"/>
<polygon fill="#191970" stroke="#191970" points="955.294,-561.5997 964.5874,-556.5121 954.1498,-554.6938 955.294,-561.5997"/>
</g>
<!-- Node15 -->
<g id="node16" class="node">
<title>Node15</title>
<polygon fill="#ffffff" stroke="#bfbfbf" points="929.5,-414.5 929.5,-444.5 1036.5,-444.5 1036.5,-414.5 929.5,-414.5"/>
<text text-anchor="start" x="937.5" y="-432.5" font-family="Helvetica,sans-Serif" font-size="10.00" fill="#000000">odp/api/abi/packet</text>
<text text-anchor="middle" x="983" y="-421.5" font-family="Helvetica,sans-Serif" font-size="10.00" fill="#000000">_types.h</text>
</g>
<!-- Node5&#45;&gt;Node15 -->
<g id="edge20" class="edge">
<title>Node5&#45;&gt;Node15</title>
<path fill="none" stroke="#191970" d="M733.048,-596.1231C785.4964,-588.0642 864.5614,-573.672 890,-557 929.1173,-531.3632 957.418,-483.2253 971.9345,-453.9931"/>
<polygon fill="#191970" stroke="#191970" points="975.1449,-455.3931 976.3247,-444.8641 968.8365,-452.3592 975.1449,-455.3931"/>
</g>
<!-- Node16 -->
<g id="node17" class="node">
<title>Node16</title>
<polygon fill="#ffffff" stroke="#bfbfbf" points="245,-537.5 245,-556.5 361,-556.5 361,-537.5 245,-537.5"/>
<text text-anchor="middle" x="303" y="-544.5" font-family="Helvetica,sans-Serif" font-size="10.00" fill="#000000">odp/api/abi/packet.h</text>
</g>
<!-- Node5&#45;&gt;Node16 -->
<g id="edge21" class="edge">
<title>Node5&#45;&gt;Node16</title>
<path fill="none" stroke="#191970" d="M634.7744,-595.8305C574.9391,-587.1065 470.6068,-571.8647 371.0329,-557.1499"/>
<polygon fill="#191970" stroke="#191970" points="371.5076,-553.6821 361.1032,-555.6819 370.4838,-560.6069 371.5076,-553.6821"/>
</g>
<!-- Node17 -->
<g id="node18" class="node">
<title>Node17</title>
<polygon fill="#ffffff" stroke="#bfbfbf" points="379,-537.5 379,-556.5 489,-556.5 489,-537.5 379,-537.5"/>
<text text-anchor="middle" x="434" y="-544.5" font-family="Helvetica,sans-Serif" font-size="10.00" fill="#000000">odp/api/abi/buffer.h</text>
</g>
<!-- Node5&#45;&gt;Node17 -->
<g id="edge22" class="edge">
<title>Node5&#45;&gt;Node17</title>
<path fill="none" stroke="#191970" d="M641.3075,-593.4369C598.4321,-583.8328 532.2995,-569.0191 486.2998,-558.7152"/>
<polygon fill="#191970" stroke="#191970" points="487.0396,-555.2942 476.5164,-556.5237 485.5095,-562.1249 487.0396,-555.2942"/>
</g>
<!-- Node18 -->
<g id="node19" class="node">
<title>Node18</title>
<polygon fill="#ffffff" stroke="#bfbfbf" points="507,-537.5 507,-556.5 611,-556.5 611,-537.5 507,-537.5"/>
<text text-anchor="middle" x="559" y="-544.5" font-family="Helvetica,sans-Serif" font-size="10.00" fill="#000000">odp/api/abi/pool.h</text>
</g>
<!-- Node5&#45;&gt;Node18 -->
<g id="edge23" class="edge">
<title>Node5&#45;&gt;Node18</title>
<path fill="none" stroke="#191970" d="M662.5117,-593.3733C642.356,-584.3435 612.012,-570.7494 589.382,-560.6111"/>
<polygon fill="#191970" stroke="#191970" points="590.7649,-557.3955 580.2079,-556.5011 587.9029,-563.7838 590.7649,-557.3955"/>
</g>
<!-- Node19 -->
<g id="node20" class="node">
<title>Node19</title>
<g id="a_node20"><a xlink:href="spec_2packet_8h.html" target="_top" xlink:title="ODP packet descriptor. ">
<polygon fill="#ffffff" stroke="#000000" points="757.5,-537.5 757.5,-556.5 880.5,-556.5 880.5,-537.5 757.5,-537.5"/>
<text text-anchor="middle" x="819" y="-544.5" font-family="Helvetica,sans-Serif" font-size="10.00" fill="#000000">odp/api/spec/packet.h</text>
</a>
</g>
</g>
<!-- Node5&#45;&gt;Node19 -->
<g id="edge24" class="edge">
<title>Node5&#45;&gt;Node19</title>
<path fill="none" stroke="#191970" d="M707.2073,-593.3733C729.1699,-584.2629 762.3332,-570.5062 786.8401,-560.3404"/>
<polygon fill="#191970" stroke="#191970" points="788.1997,-563.5657 796.0955,-556.5011 785.5176,-557.0999 788.1997,-563.5657"/>
</g>
<!-- Node7 -->
<g id="node8" class="node">
<title>Node7</title>
<polygon fill="#ffffff" stroke="#bfbfbf" points="229,-174 229,-193 359,-193 359,-174 229,-174"/>
<text text-anchor="middle" x="294" y="-181" font-family="Helvetica,sans-Serif" font-size="10.00" fill="#000000">odp/api/abi/std_types.h</text>
</g>
<!-- Node6&#45;&gt;Node7 -->
<g id="edge8" class="edge">
<title>Node6&#45;&gt;Node7</title>
<path fill="none" stroke="#191970" d="M180.9375,-235.3906C203.2598,-225.1457 238.8037,-208.8326 264.0757,-197.2339"/>
<polygon fill="#191970" stroke="#191970" points="265.581,-200.3942 273.2095,-193.0419 262.6611,-194.0322 265.581,-200.3942"/>
</g>
<!-- Node8 -->
<g id="node9" class="node">
<title>Node8</title>
<g id="a_node9"><a xlink:href="spec_2std__types_8h.html" target="_top" xlink:title="Standard C language types and definitions for ODP. ">
<polygon fill="#ffffff" stroke="#000000" points="73.5,-174 73.5,-193 210.5,-193 210.5,-174 73.5,-174"/>
<text text-anchor="middle" x="142" y="-181" font-family="Helvetica,sans-Serif" font-size="10.00" fill="#000000">odp/api/spec/std_types.h</text>
</a>
</g>
</g>
<!-- Node6&#45;&gt;Node8 -->
<g id="edge9" class="edge">
<title>Node6&#45;&gt;Node8</title>
<path fill="none" stroke="#191970" d="M157.1875,-235.3906C154.6661,-226.776 150.889,-213.8708 147.7324,-203.0858"/>
<polygon fill="#191970" stroke="#191970" points="151.0203,-201.8591 144.8522,-193.2449 144.3021,-203.8254 151.0203,-201.8591"/>
</g>
<!-- Node8&#45;&gt;Node1 -->
<g id="edge10" class="edge">
<title>Node8&#45;&gt;Node1</title>
<path fill="none" stroke="#191970" d="M141.7447,-173.7103C141.0154,-159.4155 138.2637,-132.3234 128,-112 114.9771,-86.2129 76.2063,-77.94 95,-56 109.4932,-39.0805 237.2003,-24.2018 320.0689,-16.2123"/>
<polygon fill="#191970" stroke="#191970" points="320.5692,-19.6806 330.1926,-15.2489 319.906,-12.7121 320.5692,-19.6806"/>
</g>
<!-- Node8&#45;&gt;Node4 -->
<g id="edge17" class="edge">
<title>Node8&#45;&gt;Node4</title>
<path fill="none" stroke="#191970" d="M188.9797,-173.9406C199.1955,-171.9245 209.952,-169.8492 220,-168 460.73,-123.6972 530.7181,-153.1932 763,-76 781.4856,-69.8568 784.2355,-63.9924 802,-56 828.8442,-43.9225 859.8823,-31.8969 883.3866,-23.1719"/>
<polygon fill="#191970" stroke="#191970" points="884.7904,-26.3848 892.9644,-19.6441 882.371,-19.8162 884.7904,-26.3848"/>
</g>
<!-- Node9 -->
<g id="node10" class="node">
<title>Node9</title>
<polygon fill="#ffffff" stroke="#bfbfbf" points="66.5,-112.5 66.5,-131.5 119.5,-131.5 119.5,-112.5 66.5,-112.5"/>
<text text-anchor="middle" x="93" y="-119.5" font-family="Helvetica,sans-Serif" font-size="10.00" fill="#000000">stdint.h</text>
</g>
<!-- Node8&#45;&gt;Node9 -->
<g id="edge11" class="edge">
<title>Node8&#45;&gt;Node9</title>
<path fill="none" stroke="#191970" d="M134.3438,-173.8906C127.0511,-164.7376 115.8993,-150.7409 107.0148,-139.59"/>
<polygon fill="#191970" stroke="#191970" points="109.733,-137.3849 100.7642,-131.7449 104.2583,-141.747 109.733,-137.3849"/>
</g>
<!-- Node10 -->
<g id="node11" class="node">
<title>Node10</title>
<g id="a_node11"><a xlink:href="align_8h.html" target="_top" xlink:title="ODP alignments. ">
<polygon fill="#ffffff" stroke="#000000" points="176.5,-112.5 176.5,-131.5 265.5,-131.5 265.5,-112.5 176.5,-112.5"/>
<text text-anchor="middle" x="221" y="-119.5" font-family="Helvetica,sans-Serif" font-size="10.00" fill="#000000">odp/api/align.h</text>
</a>
</g>
</g>
<!-- Node8&#45;&gt;Node10 -->
<g id="edge12" class="edge">
<title>Node8&#45;&gt;Node10</title>
<path fill="none" stroke="#191970" d="M154.3438,-173.8906C166.7503,-164.2324 186.0843,-149.1812 200.7413,-137.771"/>
<polygon fill="#191970" stroke="#191970" points="203.0021,-140.4466 208.7429,-131.5419 198.7021,-134.923 203.0021,-140.4466"/>
</g>
<!-- Node11 -->
<g id="node12" class="node">
<title>Node11</title>
<polygon fill="#ffffff" stroke="#bfbfbf" points="104.5,-56.5 104.5,-75.5 211.5,-75.5 211.5,-56.5 104.5,-56.5"/>
<text text-anchor="middle" x="158" y="-63.5" font-family="Helvetica,sans-Serif" font-size="10.00" fill="#000000">odp/api/abi/align.h</text>
</g>
<!-- Node10&#45;&gt;Node11 -->
<g id="edge13" class="edge">
<title>Node10&#45;&gt;Node11</title>
<path fill="none" stroke="#191970" d="M210.0262,-112.2455C200.8118,-104.0549 187.4468,-92.1749 176.5703,-82.5069"/>
<polygon fill="#191970" stroke="#191970" points="178.6474,-79.6704 168.848,-75.6427 173.9968,-84.9023 178.6474,-79.6704"/>
</g>
<!-- Node12 -->
<g id="node13" class="node">
<title>Node12</title>
<g id="a_node13"><a xlink:href="spec_2align_8h.html" target="_top" xlink:title="ODP alignments. ">
<polygon fill="#ffffff" stroke="#000000" points="268,-56.5 268,-75.5 382,-75.5 382,-56.5 268,-56.5"/>
<text text-anchor="middle" x="325" y="-63.5" font-family="Helvetica,sans-Serif" font-size="10.00" fill="#000000">odp/api/spec/align.h</text>
</a>
</g>
</g>
<!-- Node10&#45;&gt;Node12 -->
<g id="edge14" class="edge">
<title>Node10&#45;&gt;Node12</title>
<path fill="none" stroke="#191970" d="M239.1154,-112.2455C255.445,-103.4527 279.671,-90.4079 298.2339,-80.4125"/>
<polygon fill="#191970" stroke="#191970" points="299.9468,-83.4654 307.0922,-75.6427 296.6281,-77.3021 299.9468,-83.4654"/>
</g>
<!-- Node12&#45;&gt;Node1 -->
<g id="edge15" class="edge">
<title>Node12&#45;&gt;Node1</title>
<path fill="none" stroke="#191970" d="M336.4963,-56.2455C346.2442,-47.9746 360.4259,-35.9416 371.8798,-26.2232"/>
<polygon fill="#191970" stroke="#191970" points="374.2747,-28.7813 379.6354,-19.6427 369.7459,-23.4437 374.2747,-28.7813"/>
</g>
<!-- Node12&#45;&gt;Node4 -->
<g id="edge16" class="edge">
<title>Node12&#45;&gt;Node4</title>
<path fill="none" stroke="#191970" d="M382.3512,-57.2041C385.6129,-56.7774 388.8465,-56.3724 392,-56 557.6469,-36.4412 753.4482,-21.5168 853.6419,-14.4706"/>
<polygon fill="#191970" stroke="#191970" points="853.8901,-17.9619 863.6215,-13.7726 853.4017,-10.9789 853.8901,-17.9619"/>
</g>
<!-- Node19&#45;&gt;Node1 -->
<g id="edge25" class="edge">
<title>Node19&#45;&gt;Node1</title>
<path fill="none" stroke="#191970" d="M760.6175,-537.4603C579.3023,-506.2031 38,-399.9145 38,-245 38,-245 38,-245 38,-122 38,-85.7294 54.9999,-74.8296 86,-56 124.2721,-32.7534 242.7076,-20.2481 320.2334,-14.3711"/>
<polygon fill="#191970" stroke="#191970" points="320.7022,-17.8462 330.4173,-13.6193 320.1867,-10.8652 320.7022,-17.8462"/>
</g>
<!-- Node19&#45;&gt;Node4 -->
<g id="edge52" class="edge">
<title>Node19&#45;&gt;Node4</title>
<path fill="none" stroke="#191970" d="M836.7233,-537.4973C850.5573,-529.3413 869.4702,-516.4702 882,-501 908.6697,-468.0716 892.227,-445.1074 921,-414 943.6884,-389.4709 959.6703,-397.2233 987,-378 1017.6419,-356.447 1033.8925,-355.8231 1050,-322 1090.2066,-237.573 1073.0115,-198.2998 1037,-112 1025.787,-85.1286 1023.9923,-76.1774 1003,-56 988.9008,-42.4481 970.0315,-31.5737 953.8472,-23.8074"/>
<polygon fill="#191970" stroke="#191970" points="955.2326,-20.5923 944.6846,-19.5972 952.3099,-26.9529 955.2326,-20.5923"/>
</g>
<!-- Node20 -->
<g id="node21" class="node">
<title>Node20</title>
<g id="a_node21"><a xlink:href="time_8h.html" target="_top" xlink:title="ODP time. ">
<polygon fill="#ffffff" stroke="#000000" points="286.5,-297 286.5,-316 373.5,-316 373.5,-297 286.5,-297"/>
<text text-anchor="middle" x="330" y="-304" font-family="Helvetica,sans-Serif" font-size="10.00" fill="#000000">odp/api/time.h</text>
</a>
</g>
</g>
<!-- Node19&#45;&gt;Node20 -->
<g id="edge26" class="edge">
<title>Node19&#45;&gt;Node20</title>
<path fill="none" stroke="#191970" d="M786.0368,-537.4471C714.3003,-515.8039 540.109,-458.5752 411,-378 386.3376,-362.6086 361.8489,-339.6472 346.3627,-323.923"/>
<polygon fill="#191970" stroke="#191970" points="348.5971,-321.1985 339.1318,-316.4384 343.5627,-326.0622 348.5971,-321.1985"/>
</g>
<!-- Node23 -->
<g id="node24" class="node">
<title>Node23</title>
<g id="a_node24"><a xlink:href="packet__types_8h.html" target="_top" xlink:title="ODP packet. ">
<polygon fill="#ffffff" stroke="#000000" points="743,-481.5 743,-500.5 873,-500.5 873,-481.5 743,-481.5"/>
<text text-anchor="middle" x="808" y="-488.5" font-family="Helvetica,sans-Serif" font-size="10.00" fill="#000000">odp/api/packet_types.h</text>
</a>
</g>
</g>
<!-- Node19&#45;&gt;Node23 -->
<g id="edge32" class="edge">
<title>Node19&#45;&gt;Node23</title>
<path fill="none" stroke="#191970" d="M817.0839,-537.2455C815.6486,-529.9382 813.6364,-519.6944 811.8705,-510.7046"/>
<polygon fill="#191970" stroke="#191970" points="815.256,-509.7805 809.8941,-500.6427 808.3873,-511.1298 815.256,-509.7805"/>
</g>
<!-- Node20&#45;&gt;Node6 -->
<g id="edge27" class="edge">
<title>Node20&#45;&gt;Node6</title>
<path fill="none" stroke="#191970" d="M303.4375,-296.8906C274.4944,-286.42 228.0306,-269.6111 195.8644,-257.9745"/>
<polygon fill="#191970" stroke="#191970" points="196.9702,-254.6526 186.376,-254.5419 194.5889,-261.2351 196.9702,-254.6526"/>
</g>
<!-- Node21 -->
<g id="node22" class="node">
<title>Node21</title>
<polygon fill="#ffffff" stroke="#bfbfbf" points="253.5,-235.5 253.5,-254.5 358.5,-254.5 358.5,-235.5 253.5,-235.5"/>
<text text-anchor="middle" x="306" y="-242.5" font-family="Helvetica,sans-Serif" font-size="10.00" fill="#000000">odp/api/abi/time.h</text>
</g>
<!-- Node20&#45;&gt;Node21 -->
<g id="edge28" class="edge">
<title>Node20&#45;&gt;Node21</title>
<path fill="none" stroke="#191970" d="M326.25,-296.8906C322.8532,-288.1862 317.7469,-275.1015 313.512,-264.2494"/>
<polygon fill="#191970" stroke="#191970" points="316.6989,-262.7882 309.8029,-254.7449 310.1778,-265.3331 316.6989,-262.7882"/>
</g>
<!-- Node22 -->
<g id="node23" class="node">
<title>Node22</title>
<g id="a_node23"><a xlink:href="spec_2time_8h.html" target="_top" xlink:title="ODP time. ">
<polygon fill="#ffffff" stroke="#000000" points="400.5,-56.5 400.5,-75.5 513.5,-75.5 513.5,-56.5 400.5,-56.5"/>
<text text-anchor="middle" x="457" y="-63.5" font-family="Helvetica,sans-Serif" font-size="10.00" fill="#000000">odp/api/spec/time.h</text>
</a>
</g>
</g>
<!-- Node20&#45;&gt;Node22 -->
<g id="edge29" class="edge">
<title>Node20&#45;&gt;Node22</title>
<path fill="none" stroke="#191970" d="M338.1809,-296.6462C346.325,-286.5681 358.8917,-270.2678 368,-255 403.3627,-195.7233 435.3339,-120.1282 449.4128,-85.2368"/>
<polygon fill="#191970" stroke="#191970" points="452.7317,-86.3632 453.1916,-75.7784 446.2313,-83.7661 452.7317,-86.3632"/>
</g>
<!-- Node22&#45;&gt;Node1 -->
<g id="edge30" class="edge">
<title>Node22&#45;&gt;Node1</title>
<path fill="none" stroke="#191970" d="M445.5037,-56.2455C435.7558,-47.9746 421.5741,-35.9416 410.1202,-26.2232"/>
<polygon fill="#191970" stroke="#191970" points="412.2541,-23.4437 402.3646,-19.6427 407.7253,-28.7813 412.2541,-23.4437"/>
</g>
<!-- Node22&#45;&gt;Node4 -->
<g id="edge31" class="edge">
<title>Node22&#45;&gt;Node4</title>
<path fill="none" stroke="#191970" d="M513.7729,-59.1333C599.7734,-48.7315 762.6881,-29.0269 853.9009,-17.9947"/>
<polygon fill="#191970" stroke="#191970" points="854.3414,-21.467 863.8488,-16.7915 853.5008,-14.5177 854.3414,-21.467"/>
</g>
<!-- Node23&#45;&gt;Node15 -->
<g id="edge33" class="edge">
<title>Node23&#45;&gt;Node15</title>
<path fill="none" stroke="#191970" d="M835.3438,-481.3906C860.7822,-472.4508 899.3685,-458.8905 930.7165,-447.8739"/>
<polygon fill="#191970" stroke="#191970" points="931.9163,-451.1622 940.1902,-444.5446 929.5954,-444.5581 931.9163,-451.1622"/>
</g>
<!-- Node24 -->
<g id="node25" class="node">
<title>Node24</title>
<g id="a_node25"><a xlink:href="spec_2packet__types_8h.html" target="_top" xlink:title="ODP packet types. ">
<polygon fill="#ffffff" stroke="#000000" points="751,-414.5 751,-444.5 865,-444.5 865,-414.5 751,-414.5"/>
<text text-anchor="start" x="759" y="-432.5" font-family="Helvetica,sans-Serif" font-size="10.00" fill="#000000">odp/api/spec/packet</text>
<text text-anchor="middle" x="808" y="-421.5" font-family="Helvetica,sans-Serif" font-size="10.00" fill="#000000">_types.h</text>
</a>
</g>
</g>
<!-- Node23&#45;&gt;Node24 -->
<g id="edge34" class="edge">
<title>Node23&#45;&gt;Node24</title>
<path fill="none" stroke="#191970" d="M808,-481.3906C808,-474.2234 808,-464.0862 808,-454.671"/>
<polygon fill="#191970" stroke="#191970" points="811.5001,-454.5446 808,-444.5446 804.5001,-454.5446 811.5001,-454.5446"/>
</g>
<!-- Node24&#45;&gt;Node1 -->
<g id="edge35" class="edge">
<title>Node24&#45;&gt;Node1</title>
<path fill="none" stroke="#191970" d="M750.661,-423.1678C643.8169,-409.765 425,-374.0681 425,-306.5 425,-306.5 425,-306.5 425,-245 425,-139.7154 303.3572,-171.4844 259,-76 244.4712,-44.7249 281.7071,-28.0922 320.2924,-19.3504"/>
<polygon fill="#191970" stroke="#191970" points="321.0318,-22.7715 330.1007,-17.2938 319.5952,-15.9205 321.0318,-22.7715"/>
</g>
<!-- Node24&#45;&gt;Node4 -->
<g id="edge51" class="edge">
<title>Node24&#45;&gt;Node4</title>
<path fill="none" stroke="#191970" d="M856.4252,-414.4149C924.1618,-391.8343 1039,-347.5051 1039,-306.5 1039,-306.5 1039,-306.5 1039,-245 1039,-157.263 1037.4118,-124.0243 982,-56 972.0842,-43.8272 958.2614,-33.163 946.1833,-25.1755"/>
<polygon fill="#191970" stroke="#191970" points="947.7032,-21.9956 937.3808,-19.6086 943.9617,-27.9118 947.7032,-21.9956"/>
</g>
<!-- Node25 -->
<g id="node26" class="node">
<title>Node25</title>
<g id="a_node26"><a xlink:href="queue__types_8h.html" target="_top" xlink:title="ODP queue. ">
<polygon fill="#ffffff" stroke="#000000" points="744.5,-358.5 744.5,-377.5 871.5,-377.5 871.5,-358.5 744.5,-358.5"/>
<text text-anchor="middle" x="808" y="-365.5" font-family="Helvetica,sans-Serif" font-size="10.00" fill="#000000">odp/api/queue_types.h</text>
</a>
</g>
</g>
<!-- Node24&#45;&gt;Node25 -->
<g id="edge36" class="edge">
<title>Node24&#45;&gt;Node25</title>
<path fill="none" stroke="#191970" d="M808,-414.2977C808,-406.3834 808,-396.6043 808,-388.0759"/>
<polygon fill="#191970" stroke="#191970" points="811.5001,-387.8469 808,-377.8469 804.5001,-387.847 811.5001,-387.8469"/>
</g>
<!-- Node26 -->
<g id="node27" class="node">
<title>Node26</title>
<polygon fill="#ffffff" stroke="#bfbfbf" points="810.5,-297 810.5,-316 955.5,-316 955.5,-297 810.5,-297"/>
<text text-anchor="middle" x="883" y="-304" font-family="Helvetica,sans-Serif" font-size="10.00" fill="#000000">odp/api/abi/queue_types.h</text>
</g>
<!-- Node25&#45;&gt;Node26 -->
<g id="edge37" class="edge">
<title>Node25&#45;&gt;Node26</title>
<path fill="none" stroke="#191970" d="M819.7188,-358.3906C831.3188,-348.8786 849.2979,-334.1357 863.1321,-322.7917"/>
<polygon fill="#191970" stroke="#191970" points="865.6026,-325.2921 871.116,-316.2449 861.164,-319.8792 865.6026,-325.2921"/>
</g>
<!-- Node27 -->
<g id="node28" class="node">
<title>Node27</title>
<g id="a_node28"><a xlink:href="spec_2queue__types_8h.html" target="_top" xlink:title="ODP queue types. ">
<polygon fill="#ffffff" stroke="#000000" points="681.5,-291.5 681.5,-321.5 792.5,-321.5 792.5,-291.5 681.5,-291.5"/>
<text text-anchor="start" x="689.5" y="-309.5" font-family="Helvetica,sans-Serif" font-size="10.00" fill="#000000">odp/api/spec/queue</text>
<text text-anchor="middle" x="737" y="-298.5" font-family="Helvetica,sans-Serif" font-size="10.00" fill="#000000">_types.h</text>
</a>
</g>
</g>
<!-- Node25&#45;&gt;Node27 -->
<g id="edge38" class="edge">
<title>Node25&#45;&gt;Node27</title>
<path fill="none" stroke="#191970" d="M796.9063,-358.3906C787.6532,-350.3756 774.1124,-338.6466 762.2444,-328.3666"/>
<polygon fill="#191970" stroke="#191970" points="764.2188,-325.4464 754.3686,-321.5446 759.6357,-330.7374 764.2188,-325.4464"/>
</g>
<!-- Node27&#45;&gt;Node1 -->
<g id="edge39" class="edge">
<title>Node27&#45;&gt;Node1</title>
<path fill="none" stroke="#191970" d="M681.3818,-296.154C623.7451,-281.8397 542,-249.8436 542,-183.5 542,-183.5 542,-183.5 542,-122 542,-91.4754 543.9822,-78.1698 523,-56 506.7249,-38.8038 483.6831,-28.0336 461.3961,-21.2891"/>
<polygon fill="#191970" stroke="#191970" points="462.1484,-17.8654 451.5758,-18.5515 460.2686,-24.6083 462.1484,-17.8654"/>
</g>
<!-- Node27&#45;&gt;Node4 -->
<g id="edge50" class="edge">
<title>Node27&#45;&gt;Node4</title>
<path fill="none" stroke="#191970" d="M792.5536,-292.0562C834.3166,-280.7725 887.6843,-265.324 908,-255 944.7694,-236.3145 962.8127,-235.5101 982,-199 1011.8541,-142.1928 996.3513,-110.2062 962,-56 955.3322,-45.4783 946.1616,-35.1121 938.0905,-26.8917"/>
<polygon fill="#191970" stroke="#191970" points="940.3919,-24.2462 930.8066,-19.7327 935.4852,-29.2385 940.3919,-24.2462"/>
</g>
<!-- Node28 -->
<g id="node29" class="node">
<title>Node28</title>
<g id="a_node29"><a xlink:href="schedule__types_8h.html" target="_top" xlink:title="ODP schedule. ">
<polygon fill="#ffffff" stroke="#000000" points="759,-235.5 759,-254.5 899,-254.5 899,-235.5 759,-235.5"/>
<text text-anchor="middle" x="829" y="-242.5" font-family="Helvetica,sans-Serif" font-size="10.00" fill="#000000">odp/api/schedule_types.h</text>
</a>
</g>
</g>
<!-- Node27&#45;&gt;Node28 -->
<g id="edge40" class="edge">
<title>Node27&#45;&gt;Node28</title>
<path fill="none" stroke="#191970" d="M759.7416,-291.2977C773.7967,-281.9022 791.783,-269.8787 805.9036,-260.4395"/>
<polygon fill="#191970" stroke="#191970" points="808.1759,-263.1305 814.5444,-254.6633 804.2857,-257.311 808.1759,-263.1305"/>
</g>
<!-- Node31 -->
<g id="node32" class="node">
<title>Node31</title>
<g id="a_node32"><a xlink:href="deprecated_8h.html" target="_top" xlink:title="Control deprecated API definitions. ">
<polygon fill="#ffffff" stroke="#000000" points="621.5,-235.5 621.5,-254.5 740.5,-254.5 740.5,-235.5 621.5,-235.5"/>
<text text-anchor="middle" x="681" y="-242.5" font-family="Helvetica,sans-Serif" font-size="10.00" fill="#000000">odp/api/deprecated.h</text>
</a>
</g>
</g>
<!-- Node27&#45;&gt;Node31 -->
<g id="edge46" class="edge">
<title>Node27&#45;&gt;Node31</title>
<path fill="none" stroke="#191970" d="M723.1573,-291.2977C715.141,-282.4941 705.0238,-271.3833 696.71,-262.2529"/>
<polygon fill="#191970" stroke="#191970" points="699.2869,-259.8845 689.9663,-254.8469 694.1112,-264.5974 699.2869,-259.8845"/>
</g>
<!-- Node29 -->
<g id="node30" class="node">
<title>Node29</title>
<polygon fill="#ffffff" stroke="#bfbfbf" points="855.5,-168.5 855.5,-198.5 972.5,-198.5 972.5,-168.5 855.5,-168.5"/>
<text text-anchor="start" x="863.5" y="-186.5" font-family="Helvetica,sans-Serif" font-size="10.00" fill="#000000">odp/api/abi/schedule</text>
<text text-anchor="middle" x="914" y="-175.5" font-family="Helvetica,sans-Serif" font-size="10.00" fill="#000000">_types.h</text>
</g>
<!-- Node28&#45;&gt;Node29 -->
<g id="edge41" class="edge">
<title>Node28&#45;&gt;Node29</title>
<path fill="none" stroke="#191970" d="M842.2813,-235.3906C853.6784,-227.1444 870.5092,-214.9669 885.0023,-204.4807"/>
<polygon fill="#191970" stroke="#191970" points="887.1565,-207.2421 893.2067,-198.5446 883.0532,-201.5709 887.1565,-207.2421"/>
</g>
<!-- Node30 -->
<g id="node31" class="node">
<title>Node30</title>
<g id="a_node31"><a xlink:href="spec_2schedule__types_8h.html" target="_top" xlink:title="ODP schedule types. ">
<polygon fill="#ffffff" stroke="#000000" points="712.5,-168.5 712.5,-198.5 837.5,-198.5 837.5,-168.5 712.5,-168.5"/>
<text text-anchor="start" x="720.5" y="-186.5" font-family="Helvetica,sans-Serif" font-size="10.00" fill="#000000">odp/api/spec/schedule</text>
<text text-anchor="middle" x="775" y="-175.5" font-family="Helvetica,sans-Serif" font-size="10.00" fill="#000000">_types.h</text>
</a>
</g>
</g>
<!-- Node28&#45;&gt;Node30 -->
<g id="edge42" class="edge">
<title>Node28&#45;&gt;Node30</title>
<path fill="none" stroke="#191970" d="M820.5625,-235.3906C813.7279,-227.6068 803.8177,-216.3202 794.9841,-206.2597"/>
<polygon fill="#191970" stroke="#191970" points="797.438,-203.7497 788.2099,-198.5446 792.1779,-208.3683 797.438,-203.7497"/>
</g>
<!-- Node30&#45;&gt;Node1 -->
<g id="edge43" class="edge">
<title>Node30&#45;&gt;Node1</title>
<path fill="none" stroke="#191970" d="M753.2869,-168.3105C715.0255,-142.1402 632.3985,-88.2606 556,-56 520.8691,-41.1654 479.5322,-29.6504 447.0216,-21.8516"/>
<polygon fill="#191970" stroke="#191970" points="447.7677,-18.4316 437.2321,-19.551 446.1662,-25.246 447.7677,-18.4316"/>
</g>
<!-- Node30&#45;&gt;Node2 -->
<g id="edge44" class="edge">
<title>Node30&#45;&gt;Node2</title>
<path fill="none" stroke="#191970" d="M811.6941,-168.4554C836.3927,-158.329 868.6674,-145.0964 892.4506,-135.3453"/>
<polygon fill="#191970" stroke="#191970" points="893.8306,-138.5623 901.7553,-131.5303 891.175,-132.0855 893.8306,-138.5623"/>
</g>
<!-- Node30&#45;&gt;Node4 -->
<g id="edge45" class="edge">
<title>Node30&#45;&gt;Node4</title>
<path fill="none" stroke="#191970" d="M791.5196,-168.4516C809.0829,-152.9647 838.1177,-128.793 866,-112 899.7473,-91.6746 925.5329,-109.0328 947,-76 956.9441,-60.6984 946.4846,-41.1358 935.8215,-27.2926"/>
<polygon fill="#191970" stroke="#191970" points="938.424,-24.9483 929.3364,-19.5015 933.0439,-29.4265 938.424,-24.9483"/>
</g>
<!-- Node32 -->
<g id="node33" class="node">
<title>Node32</title>
<g id="a_node33"><a xlink:href="spec_2deprecated_8h.html" target="_top" xlink:title="Macro for deprecated API definitions. ">
<polygon fill="#ffffff" stroke="#000000" points="608.5,-56.5 608.5,-75.5 753.5,-75.5 753.5,-56.5 608.5,-56.5"/>
<text text-anchor="middle" x="681" y="-63.5" font-family="Helvetica,sans-Serif" font-size="10.00" fill="#000000">odp/api/spec/deprecated.h</text>
</a>
</g>
</g>
<!-- Node31&#45;&gt;Node32 -->
<g id="edge47" class="edge">
<title>Node31&#45;&gt;Node32</title>
<path fill="none" stroke="#191970" d="M681,-235.3762C681,-207.2097 681,-124.5126 681,-86.0713"/>
<polygon fill="#191970" stroke="#191970" points="684.5001,-85.6714 681,-75.6714 677.5001,-85.6714 684.5001,-85.6714"/>
</g>
<!-- Node32&#45;&gt;Node1 -->
<g id="edge48" class="edge">
<title>Node32&#45;&gt;Node1</title>
<path fill="none" stroke="#191970" d="M631.4767,-56.4369C581.3241,-46.7522 503.739,-31.7703 450.3303,-21.4569"/>
<polygon fill="#191970" stroke="#191970" points="450.8013,-17.9832 440.319,-19.5237 449.474,-24.8563 450.8013,-17.9832"/>
</g>
<!-- Node32&#45;&gt;Node4 -->
<g id="edge49" class="edge">
<title>Node32&#45;&gt;Node4</title>
<path fill="none" stroke="#191970" d="M721.814,-56.4369C762.6311,-46.8731 825.4959,-32.1432 869.4472,-21.845"/>
<polygon fill="#191970" stroke="#191970" points="870.4165,-25.2128 879.3543,-19.5237 868.8195,-18.3973 870.4165,-25.2128"/>
</g>
</g>
</svg>
