<?xml version="1.0" encoding="UTF-8" standalone="no"?>
<!DOCTYPE svg PUBLIC "-//W3C//DTD SVG 1.1//EN"
 "http://www.w3.org/Graphics/SVG/1.1/DTD/svg11.dtd">
<!-- Generated by graphviz version 2.43.0 (0)
 -->
<!-- Title: thread_types.h Pages: 1 -->
<svg width="1937pt" height="368pt"
 viewBox="0.00 0.00 1936.50 368.00" xmlns="http://www.w3.org/2000/svg" xmlns:xlink="http://www.w3.org/1999/xlink">
<g id="graph0" class="graph" transform="scale(1 1) rotate(0) translate(4 364)">
<title>thread_types.h</title>
<!-- Node1 -->
<g id="Node000001" class="node">
<title>Node1</title>
<g id="a_Node000001"><a xlink:title="ODP thread API types.">
<polygon fill="#999999" stroke="#666666" points="975,-360 886,-360 886,-341 975,-341 975,-360"/>
<text text-anchor="middle" x="930.5" y="-348" font-family="Helvetica,sans-Serif" font-size="10.00">thread_types.h</text>
</a>
</g>
</g>
<!-- Node2 -->
<g id="Node000002" class="node">
<title>Node2</title>
<g id="a_Node000002"><a xlink:href="thread__types_8h.html" target="_top" xlink:title="ODP thread.">
<polygon fill="white" stroke="#666666" points="975,-305 886,-305 886,-286 975,-286 975,-305"/>
<text text-anchor="middle" x="930.5" y="-293" font-family="Helvetica,sans-Serif" font-size="10.00">thread_types.h</text>
</a>
</g>
</g>
<!-- Node1&#45;&gt;Node2 -->
<g id="edge1_Node000001_Node000002" class="edge">
<title>Node1&#45;&gt;Node2</title>
<g id="a_edge1_Node000001_Node000002"><a xlink:title=" ">
<path fill="none" stroke="#63b8ff" d="M930.5,-330.66C930.5,-321.93 930.5,-311.99 930.5,-305.09"/>
<polygon fill="#63b8ff" stroke="#63b8ff" points="927,-330.75 930.5,-340.75 934,-330.75 927,-330.75"/>
</a>
</g>
</g>
<!-- Node3 -->
<g id="Node000003" class="node">
<title>Node3</title>
<g id="a_Node000003"><a xlink:href="spec_2init_8h.html" target="_top" xlink:title=" ">
<polygon fill="white" stroke="#666666" points="858,-250 817,-250 817,-231 858,-231 858,-250"/>
<text text-anchor="middle" x="837.5" y="-238" font-family="Helvetica,sans-Serif" font-size="10.00">init.h</text>
</a>
</g>
</g>
<!-- Node2&#45;&gt;Node3 -->
<g id="edge2_Node000002_Node000003" class="edge">
<title>Node2&#45;&gt;Node3</title>
<g id="a_edge2_Node000002_Node000003"><a xlink:title=" ">
<path fill="none" stroke="#63b8ff" d="M906.75,-280.97C889.75,-271.28 867.37,-258.52 852.71,-250.17"/>
<polygon fill="#63b8ff" stroke="#63b8ff" points="905.14,-284.07 915.56,-285.98 908.6,-277.99 905.14,-284.07"/>
</a>
</g>
</g>
<!-- Node21 -->
<g id="Node000021" class="node">
<title>Node21</title>
<g id="a_Node000021"><a xlink:href="thread__inline__types_8h_source.html" target="_top" xlink:title=" ">
<polygon fill="white" stroke="#666666" points="925.5,-140 803.5,-140 803.5,-121 925.5,-121 925.5,-140"/>
<text text-anchor="middle" x="864.5" y="-128" font-family="Helvetica,sans-Serif" font-size="10.00">thread_inline_types.h</text>
</a>
</g>
</g>
<!-- Node2&#45;&gt;Node21 -->
<g id="edge33_Node000002_Node000021" class="edge">
<title>Node2&#45;&gt;Node21</title>
<g id="a_edge33_Node000002_Node000021"><a xlink:title=" ">
<path fill="none" stroke="#63b8ff" d="M923.12,-276.28C908.97,-241.32 878.47,-166.01 868.07,-140.31"/>
<polygon fill="#63b8ff" stroke="#63b8ff" points="919.95,-277.78 926.95,-285.74 926.44,-275.15 919.95,-277.78"/>
</a>
</g>
</g>
<!-- Node22 -->
<g id="Node000022" class="node">
<title>Node22</title>
<g id="a_Node000022"><a xlink:href="thread__inlines_8h_source.html" target="_top" xlink:title=" ">
<polygon fill="white" stroke="#666666" points="977,-85 882,-85 882,-66 977,-66 977,-85"/>
<text text-anchor="middle" x="929.5" y="-73" font-family="Helvetica,sans-Serif" font-size="10.00">thread_inlines.h</text>
</a>
</g>
</g>
<!-- Node2&#45;&gt;Node22 -->
<g id="edge34_Node000002_Node000022" class="edge">
<title>Node2&#45;&gt;Node22</title>
<g id="a_edge34_Node000002_Node000022"><a xlink:title=" ">
<path fill="none" stroke="#63b8ff" d="M931.9,-275.76C934.06,-243.92 937.65,-177.26 934.5,-121 933.8,-108.43 931.98,-93.95 930.74,-85.01"/>
<polygon fill="#63b8ff" stroke="#63b8ff" points="928.4,-275.6 931.18,-285.83 935.39,-276.1 928.4,-275.6"/>
</a>
</g>
</g>
<!-- Node23 -->
<g id="Node000023" class="node">
<title>Node23</title>
<g id="a_Node000023"><a xlink:href="spec_2thread_8h.html" target="_top" xlink:title="ODP thread API.">
<polygon fill="white" stroke="#666666" points="1191,-250 1134,-250 1134,-231 1191,-231 1191,-250"/>
<text text-anchor="middle" x="1162.5" y="-238" font-family="Helvetica,sans-Serif" font-size="10.00">thread.h</text>
</a>
</g>
</g>
<!-- Node2&#45;&gt;Node23 -->
<g id="edge23_Node000002_Node000023" class="edge">
<title>Node2&#45;&gt;Node23</title>
<g id="a_edge23_Node000002_Node000023"><a xlink:title=" ">
<path fill="none" stroke="#63b8ff" d="M977.68,-283.72C1024.49,-273.03 1094.72,-256.98 1133.74,-248.07"/>
<polygon fill="#63b8ff" stroke="#63b8ff" points="976.74,-280.35 967.77,-285.98 978.3,-287.17 976.74,-280.35"/>
</a>
</g>
</g>
<!-- Node4 -->
<g id="Node000004" class="node">
<title>Node4</title>
<g id="a_Node000004"><a xlink:href="init_8h.html" target="_top" xlink:title="ODP initialization.">
<polygon fill="white" stroke="#666666" points="838,-195 797,-195 797,-176 838,-176 838,-195"/>
<text text-anchor="middle" x="817.5" y="-183" font-family="Helvetica,sans-Serif" font-size="10.00">init.h</text>
</a>
</g>
</g>
<!-- Node3&#45;&gt;Node4 -->
<g id="edge3_Node000003_Node000004" class="edge">
<title>Node3&#45;&gt;Node4</title>
<g id="a_edge3_Node000003_Node000004"><a xlink:title=" ">
<path fill="none" stroke="#63b8ff" d="M830.61,-221.24C827.26,-212.37 823.4,-202.14 820.74,-195.09"/>
<polygon fill="#63b8ff" stroke="#63b8ff" points="827.39,-222.63 834.2,-230.75 833.94,-220.16 827.39,-222.63"/>
</a>
</g>
</g>
<!-- Node5 -->
<g id="Node000005" class="node">
<title>Node5</title>
<g id="a_Node000005"><a xlink:href="debug__inlines_8h.html" target="_top" xlink:title="ODP Debug inlines.">
<polygon fill="white" stroke="#666666" points="840,-85 747,-85 747,-66 840,-66 840,-85"/>
<text text-anchor="middle" x="793.5" y="-73" font-family="Helvetica,sans-Serif" font-size="10.00">debug_inlines.h</text>
</a>
</g>
</g>
<!-- Node4&#45;&gt;Node5 -->
<g id="edge4_Node000004_Node000005" class="edge">
<title>Node4&#45;&gt;Node5</title>
<g id="a_edge4_Node000004_Node000005"><a xlink:title=" ">
<path fill="none" stroke="#63b8ff" d="M806.15,-167.14C801.6,-159.2 796.88,-149.47 794.5,-140 789.71,-120.97 791.1,-97.7 792.39,-85.29"/>
<polygon fill="#63b8ff" stroke="#63b8ff" points="803.24,-169.08 811.44,-175.79 809.21,-165.43 803.24,-169.08"/>
</a>
</g>
</g>
<!-- Node19 -->
<g id="Node000019" class="node">
<title>Node19</title>
<g id="a_Node000019"><a xlink:href="spec_2shared__memory_8h.html" target="_top" xlink:title="ODP shared memory.">
<polygon fill="white" stroke="#666666" points="738.5,-140 634.5,-140 634.5,-121 738.5,-121 738.5,-140"/>
<text text-anchor="middle" x="686.5" y="-128" font-family="Helvetica,sans-Serif" font-size="10.00">shared_memory.h</text>
</a>
</g>
</g>
<!-- Node4&#45;&gt;Node19 -->
<g id="edge18_Node000004_Node000019" class="edge">
<title>Node4&#45;&gt;Node19</title>
<g id="a_edge18_Node000004_Node000019"><a xlink:title=" ">
<path fill="none" stroke="#63b8ff" d="M787.24,-172.26C762.84,-162.39 729.15,-148.76 707.59,-140.03"/>
<polygon fill="#63b8ff" stroke="#63b8ff" points="786.16,-175.6 796.74,-176.1 788.79,-169.11 786.16,-175.6"/>
</a>
</g>
</g>
<!-- Node4&#45;&gt;Node21 -->
<g id="edge20_Node000004_Node000021" class="edge">
<title>Node4&#45;&gt;Node21</title>
<g id="a_edge20_Node000004_Node000021"><a xlink:title=" ">
<path fill="none" stroke="#63b8ff" d="M831.92,-168.24C840.16,-158.95 850.15,-147.68 856.88,-140.09"/>
<polygon fill="#63b8ff" stroke="#63b8ff" points="829.28,-165.94 825.26,-175.75 834.51,-170.59 829.28,-165.94"/>
</a>
</g>
</g>
<!-- Node6 -->
<g id="Node000006" class="node">
<title>Node6</title>
<g id="a_Node000006"><a xlink:href="buffer__inlines_8h_source.html" target="_top" xlink:title=" ">
<polygon fill="white" stroke="#666666" points="324.5,-24.5 232.5,-24.5 232.5,-5.5 324.5,-5.5 324.5,-24.5"/>
<text text-anchor="middle" x="278.5" y="-12.5" font-family="Helvetica,sans-Serif" font-size="10.00">buffer_inlines.h</text>
</a>
</g>
</g>
<!-- Node5&#45;&gt;Node6 -->
<g id="edge5_Node000005_Node000006" class="edge">
<title>Node5&#45;&gt;Node6</title>
<g id="a_edge5_Node000005_Node000006"><a xlink:title=" ">
<path fill="none" stroke="#63b8ff" d="M736.71,-65.99C556.77,-45.02 507.99,-59.78 333.5,-30 325.24,-28.59 316.41,-26.57 308.29,-24.51"/>
<polygon fill="#63b8ff" stroke="#63b8ff" points="736.44,-69.49 746.78,-67.19 737.26,-62.53 736.44,-69.49"/>
</a>
</g>
</g>
<!-- Node7 -->
<g id="Node000007" class="node">
<title>Node7</title>
<g id="a_Node000007"><a xlink:href="crypto__inlines_8h_source.html" target="_top" xlink:title=" ">
<polygon fill="white" stroke="#666666" points="436.5,-24.5 342.5,-24.5 342.5,-5.5 436.5,-5.5 436.5,-24.5"/>
<text text-anchor="middle" x="389.5" y="-12.5" font-family="Helvetica,sans-Serif" font-size="10.00">crypto_inlines.h</text>
</a>
</g>
</g>
<!-- Node5&#45;&gt;Node7 -->
<g id="edge6_Node000005_Node000007" class="edge">
<title>Node5&#45;&gt;Node7</title>
<g id="a_edge6_Node000005_Node000007"><a xlink:title=" ">
<path fill="none" stroke="#63b8ff" d="M736.78,-65.95C606.25,-48.45 570.92,-53.32 445.5,-30 437.42,-28.5 428.77,-26.52 420.75,-24.53"/>
<polygon fill="#63b8ff" stroke="#63b8ff" points="736.38,-69.43 746.76,-67.31 737.33,-62.49 736.38,-69.43"/>
</a>
</g>
</g>
<!-- Node8 -->
<g id="Node000008" class="node">
<title>Node8</title>
<g id="a_Node000008"><a xlink:href="dma__inlines_8h_source.html" target="_top" xlink:title=" ">
<polygon fill="white" stroke="#666666" points="540,-24.5 455,-24.5 455,-5.5 540,-5.5 540,-24.5"/>
<text text-anchor="middle" x="497.5" y="-12.5" font-family="Helvetica,sans-Serif" font-size="10.00">dma_inlines.h</text>
</a>
</g>
</g>
<!-- Node5&#45;&gt;Node8 -->
<g id="edge7_Node000005_Node000008" class="edge">
<title>Node5&#45;&gt;Node8</title>
<g id="a_edge7_Node000005_Node000008"><a xlink:title=" ">
<path fill="none" stroke="#63b8ff" d="M736.8,-65.66C686.96,-57.54 612.58,-44.59 548.5,-30 541.43,-28.39 533.86,-26.44 526.78,-24.51"/>
<polygon fill="#63b8ff" stroke="#63b8ff" points="736.31,-69.13 746.74,-67.27 737.43,-62.22 736.31,-69.13"/>
</a>
</g>
</g>
<!-- Node9 -->
<g id="Node000009" class="node">
<title>Node9</title>
<g id="a_Node000009"><a xlink:href="event__inlines_8h_source.html" target="_top" xlink:title=" ">
<polygon fill="white" stroke="#666666" points="649,-24.5 558,-24.5 558,-5.5 649,-5.5 649,-24.5"/>
<text text-anchor="middle" x="603.5" y="-12.5" font-family="Helvetica,sans-Serif" font-size="10.00">event_inlines.h</text>
</a>
</g>
</g>
<!-- Node5&#45;&gt;Node9 -->
<g id="edge8_Node000005_Node000009" class="edge">
<title>Node5&#45;&gt;Node9</title>
<g id="a_edge8_Node000005_Node000009"><a xlink:title=" ">
<path fill="none" stroke="#63b8ff" d="M756.03,-62.96C719.28,-51.65 664.1,-34.66 631.16,-24.52"/>
<polygon fill="#63b8ff" stroke="#63b8ff" points="755.29,-66.4 765.87,-65.99 757.35,-59.71 755.29,-66.4"/>
</a>
</g>
</g>
<!-- Node10 -->
<g id="Node000010" class="node">
<title>Node10</title>
<g id="a_Node000010"><a xlink:href="event__vector__inlines_8h.html" target="_top" xlink:title="Event vector inline functions.">
<polygon fill="white" stroke="#666666" points="794,-24.5 667,-24.5 667,-5.5 794,-5.5 794,-24.5"/>
<text text-anchor="middle" x="730.5" y="-12.5" font-family="Helvetica,sans-Serif" font-size="10.00">event_vector_inlines.h</text>
</a>
</g>
</g>
<!-- Node5&#45;&gt;Node10 -->
<g id="edge9_Node000005_Node000010" class="edge">
<title>Node5&#45;&gt;Node10</title>
<g id="a_edge9_Node000005_Node000010"><a xlink:title=" ">
<path fill="none" stroke="#63b8ff" d="M776.71,-58.91C764.9,-47.94 749.53,-33.67 739.83,-24.67"/>
<polygon fill="#63b8ff" stroke="#63b8ff" points="774.49,-61.63 784.2,-65.87 779.26,-56.5 774.49,-61.63"/>
</a>
</g>
</g>
<!-- Node11 -->
<g id="Node000011" class="node">
<title>Node11</title>
<g id="a_Node000011"><a xlink:href="ipsec__inlines_8h_source.html" target="_top" xlink:title=" ">
<polygon fill="white" stroke="#666666" points="901,-24.5 812,-24.5 812,-5.5 901,-5.5 901,-24.5"/>
<text text-anchor="middle" x="856.5" y="-12.5" font-family="Helvetica,sans-Serif" font-size="10.00">ipsec_inlines.h</text>
</a>
</g>
</g>
<!-- Node5&#45;&gt;Node11 -->
<g id="edge10_Node000005_Node000011" class="edge">
<title>Node5&#45;&gt;Node11</title>
<g id="a_edge10_Node000005_Node000011"><a xlink:title=" ">
<path fill="none" stroke="#63b8ff" d="M810.29,-58.91C822.1,-47.94 837.47,-33.67 847.17,-24.67"/>
<polygon fill="#63b8ff" stroke="#63b8ff" points="807.74,-56.5 802.8,-65.87 812.51,-61.63 807.74,-56.5"/>
</a>
</g>
</g>
<!-- Node12 -->
<g id="Node000012" class="node">
<title>Node12</title>
<g id="a_Node000012"><a xlink:href="packet__inlines_8h.html" target="_top" xlink:title="Packet inline functions.">
<polygon fill="white" stroke="#666666" points="1564,-24.5 1469,-24.5 1469,-5.5 1564,-5.5 1564,-24.5"/>
<text text-anchor="middle" x="1516.5" y="-12.5" font-family="Helvetica,sans-Serif" font-size="10.00">packet_inlines.h</text>
</a>
</g>
</g>
<!-- Node5&#45;&gt;Node12 -->
<g id="edge11_Node000005_Node000012" class="edge">
<title>Node5&#45;&gt;Node12</title>
<g id="a_edge11_Node000005_Node000012"><a xlink:title=" ">
<path fill="none" stroke="#63b8ff" d="M850.48,-68.13C858.21,-67.36 866.05,-66.62 873.5,-66 1133.52,-44.21 1201.54,-69.28 1459.5,-30 1468.26,-28.67 1477.65,-26.62 1486.23,-24.5"/>
<polygon fill="#63b8ff" stroke="#63b8ff" points="850.01,-64.66 840.42,-69.16 850.73,-71.62 850.01,-64.66"/>
</a>
</g>
</g>
<!-- Node13 -->
<g id="Node000013" class="node">
<title>Node13</title>
<g id="a_Node000013"><a xlink:href="packet__vector__inlines_8h.html" target="_top" xlink:title="Packet vector inline functions.">
<polygon fill="white" stroke="#666666" points="1050,-24.5 919,-24.5 919,-5.5 1050,-5.5 1050,-24.5"/>
<text text-anchor="middle" x="984.5" y="-12.5" font-family="Helvetica,sans-Serif" font-size="10.00">packet_vector_inlines.h</text>
</a>
</g>
</g>
<!-- Node5&#45;&gt;Node13 -->
<g id="edge12_Node000005_Node000013" class="edge">
<title>Node5&#45;&gt;Node13</title>
<g id="a_edge12_Node000005_Node000013"><a xlink:title=" ">
<path fill="none" stroke="#63b8ff" d="M831.17,-62.96C868.11,-51.65 923.58,-34.66 956.69,-24.52"/>
<polygon fill="#63b8ff" stroke="#63b8ff" points="829.81,-59.72 821.27,-65.99 831.86,-66.41 829.81,-59.72"/>
</a>
</g>
</g>
<!-- Node14 -->
<g id="Node000014" class="node">
<title>Node14</title>
<g id="a_Node000014"><a xlink:href="queue__inlines_8h_source.html" target="_top" xlink:title=" ">
<polygon fill="white" stroke="#666666" points="1161,-24.5 1068,-24.5 1068,-5.5 1161,-5.5 1161,-24.5"/>
<text text-anchor="middle" x="1114.5" y="-12.5" font-family="Helvetica,sans-Serif" font-size="10.00">queue_inlines.h</text>
</a>
</g>
</g>
<!-- Node5&#45;&gt;Node14 -->
<g id="edge13_Node000005_Node000014" class="edge">
<title>Node5&#45;&gt;Node14</title>
<g id="a_edge13_Node000005_Node000014"><a xlink:title=" ">
<path fill="none" stroke="#63b8ff" d="M850.4,-66.39C904.44,-58.35 987.83,-45.09 1059.5,-30 1067.12,-28.4 1075.27,-26.45 1082.9,-24.52"/>
<polygon fill="#63b8ff" stroke="#63b8ff" points="849.71,-62.95 840.33,-67.88 850.73,-69.88 849.71,-62.95"/>
</a>
</g>
</g>
<!-- Node15 -->
<g id="Node000015" class="node">
<title>Node15</title>
<g id="a_Node000015"><a xlink:href="rwlock__recursive__inlines_8h_source.html" target="_top" xlink:title=" ">
<polygon fill="white" stroke="#666666" points="1450.5,-24.5 1304.5,-24.5 1304.5,-5.5 1450.5,-5.5 1450.5,-24.5"/>
<text text-anchor="middle" x="1377.5" y="-12.5" font-family="Helvetica,sans-Serif" font-size="10.00">rwlock_recursive_inlines.h</text>
</a>
</g>
</g>
<!-- Node5&#45;&gt;Node15 -->
<g id="edge14_Node000005_Node000015" class="edge">
<title>Node5&#45;&gt;Node15</title>
<g id="a_edge14_Node000005_Node000015"><a xlink:title=" ">
<path fill="none" stroke="#63b8ff" d="M850.2,-68.33C858.02,-67.52 865.96,-66.72 873.5,-66 1060.88,-48.05 1108.78,-53.86 1295.5,-30 1307.25,-28.5 1319.88,-26.52 1331.63,-24.53"/>
<polygon fill="#63b8ff" stroke="#63b8ff" points="849.6,-64.87 840.02,-69.39 850.33,-71.83 849.6,-64.87"/>
</a>
</g>
</g>
<!-- Node16 -->
<g id="Node000016" class="node">
<title>Node16</title>
<g id="a_Node000016"><a xlink:href="schedule__inlines_8h_source.html" target="_top" xlink:title=" ">
<polygon fill="white" stroke="#666666" points="107,-24.5 0,-24.5 0,-5.5 107,-5.5 107,-24.5"/>
<text text-anchor="middle" x="53.5" y="-12.5" font-family="Helvetica,sans-Serif" font-size="10.00">schedule_inlines.h</text>
</a>
</g>
</g>
<!-- Node5&#45;&gt;Node16 -->
<g id="edge15_Node000005_Node000016" class="edge">
<title>Node5&#45;&gt;Node16</title>
<g id="a_edge15_Node000005_Node000016"><a xlink:title=" ">
<path fill="none" stroke="#63b8ff" d="M736.46,-66.01C460.3,-37.95 386.35,-68.15 115.5,-30 106.1,-28.68 96.02,-26.66 86.78,-24.57"/>
<polygon fill="#63b8ff" stroke="#63b8ff" points="736.48,-69.53 746.79,-67.08 737.2,-62.57 736.48,-69.53"/>
</a>
</g>
</g>
<!-- Node17 -->
<g id="Node000017" class="node">
<title>Node17</title>
<g id="a_Node000017"><a xlink:href="spinlock__recursive__inlines_8h_source.html" target="_top" xlink:title=" ">
<polygon fill="white" stroke="#666666" points="1286,-30 1179,-30 1179,0 1286,0 1286,-30"/>
<text text-anchor="start" x="1187" y="-18" font-family="Helvetica,sans-Serif" font-size="10.00">spinlock_recursive</text>
<text text-anchor="middle" x="1232.5" y="-7" font-family="Helvetica,sans-Serif" font-size="10.00">_inlines.h</text>
</a>
</g>
</g>
<!-- Node5&#45;&gt;Node17 -->
<g id="edge16_Node000005_Node000017" class="edge">
<title>Node5&#45;&gt;Node17</title>
<g id="a_edge16_Node000005_Node000017"><a xlink:title=" ">
<path fill="none" stroke="#63b8ff" d="M850.31,-68.13C947.85,-57.13 1139.72,-35.28 1170.5,-30 1173.22,-29.53 1176,-29.03 1178.8,-28.49"/>
<polygon fill="#63b8ff" stroke="#63b8ff" points="849.86,-64.65 840.32,-69.25 850.64,-71.61 849.86,-64.65"/>
</a>
</g>
</g>
<!-- Node18 -->
<g id="Node000018" class="node">
<title>Node18</title>
<g id="a_Node000018"><a xlink:href="timer__inlines_8h_source.html" target="_top" xlink:title=" ">
<polygon fill="white" stroke="#666666" points="214,-24.5 125,-24.5 125,-5.5 214,-5.5 214,-24.5"/>
<text text-anchor="middle" x="169.5" y="-12.5" font-family="Helvetica,sans-Serif" font-size="10.00">timer_inlines.h</text>
</a>
</g>
</g>
<!-- Node5&#45;&gt;Node18 -->
<g id="edge17_Node000005_Node000018" class="edge">
<title>Node5&#45;&gt;Node18</title>
<g id="a_edge17_Node000005_Node000018"><a xlink:title=" ">
<path fill="none" stroke="#63b8ff" d="M736.83,-66.03C508.14,-41.52 446.31,-66.37 223.5,-30 215.28,-28.66 206.49,-26.64 198.44,-24.55"/>
<polygon fill="#63b8ff" stroke="#63b8ff" points="736.47,-69.52 746.79,-67.12 737.23,-62.56 736.47,-69.52"/>
</a>
</g>
</g>
<!-- Node20 -->
<g id="Node000020" class="node">
<title>Node20</title>
<g id="a_Node000020"><a xlink:href="shared__memory_8h.html" target="_top" xlink:title="ODP shared memory.">
<polygon fill="white" stroke="#666666" points="728.5,-85 624.5,-85 624.5,-66 728.5,-66 728.5,-85"/>
<text text-anchor="middle" x="676.5" y="-73" font-family="Helvetica,sans-Serif" font-size="10.00">shared_memory.h</text>
</a>
</g>
</g>
<!-- Node19&#45;&gt;Node20 -->
<g id="edge19_Node000019_Node000020" class="edge">
<title>Node19&#45;&gt;Node20</title>
<g id="a_edge19_Node000019_Node000020"><a xlink:title=" ">
<path fill="none" stroke="#63b8ff" d="M682.95,-110.66C681.3,-101.93 679.42,-91.99 678.12,-85.09"/>
<polygon fill="#63b8ff" stroke="#63b8ff" points="679.56,-111.57 684.85,-120.75 686.43,-110.27 679.56,-111.57"/>
</a>
</g>
</g>
<!-- Node21&#45;&gt;Node5 -->
<g id="edge21_Node000021_Node000005" class="edge">
<title>Node21&#45;&gt;Node5</title>
<g id="a_edge21_Node000021_Node000005"><a xlink:title=" ">
<path fill="none" stroke="#63b8ff" d="M844.91,-114.88C832.13,-105.34 815.89,-93.21 805.11,-85.17"/>
<polygon fill="#63b8ff" stroke="#63b8ff" points="842.99,-117.81 853.09,-120.98 847.17,-112.2 842.99,-117.81"/>
</a>
</g>
</g>
<!-- Node21&#45;&gt;Node22 -->
<g id="edge22_Node000021_Node000022" class="edge">
<title>Node21&#45;&gt;Node22</title>
<g id="a_edge22_Node000021_Node000022"><a xlink:title=" ">
<path fill="none" stroke="#63b8ff" d="M882.77,-114.6C894.42,-105.11 909.1,-93.13 918.87,-85.17"/>
<polygon fill="#63b8ff" stroke="#63b8ff" points="880.48,-111.95 874.94,-120.98 884.91,-117.38 880.48,-111.95"/>
</a>
</g>
</g>
<!-- Node24 -->
<g id="Node000024" class="node">
<title>Node24</title>
<g id="a_Node000024"><a xlink:href="thread_8h.html" target="_top" xlink:title="ODP thread API.">
<polygon fill="white" stroke="#666666" points="1406,-140 1349,-140 1349,-121 1406,-121 1406,-140"/>
<text text-anchor="middle" x="1377.5" y="-128" font-family="Helvetica,sans-Serif" font-size="10.00">thread.h</text>
</a>
</g>
</g>
<!-- Node23&#45;&gt;Node24 -->
<g id="edge24_Node000023_Node000024" class="edge">
<title>Node23&#45;&gt;Node24</title>
<g id="a_edge24_Node000023_Node000024"><a xlink:title=" ">
<path fill="none" stroke="#63b8ff" d="M1188.81,-226.28C1233.51,-203.83 1323.09,-158.83 1360.49,-140.05"/>
<polygon fill="#63b8ff" stroke="#63b8ff" points="1187.1,-223.23 1179.73,-230.84 1190.24,-229.48 1187.1,-223.23"/>
</a>
</g>
</g>
<!-- Node24&#45;&gt;Node15 -->
<g id="edge31_Node000024_Node000015" class="edge">
<title>Node24&#45;&gt;Node15</title>
<g id="a_edge31_Node000024_Node000015"><a xlink:title=" ">
<path fill="none" stroke="#63b8ff" d="M1377.5,-110.65C1377.5,-85.74 1377.5,-42.88 1377.5,-24.63"/>
<polygon fill="#63b8ff" stroke="#63b8ff" points="1374,-110.97 1377.5,-120.97 1381,-110.97 1374,-110.97"/>
</a>
</g>
</g>
<!-- Node24&#45;&gt;Node17 -->
<g id="edge32_Node000024_Node000017" class="edge">
<title>Node24&#45;&gt;Node17</title>
<g id="a_edge32_Node000024_Node000017"><a xlink:title=" ">
<path fill="none" stroke="#63b8ff" d="M1358.38,-114.53C1330.27,-92.53 1278.14,-51.73 1250.62,-30.18"/>
<polygon fill="#63b8ff" stroke="#63b8ff" points="1356.57,-117.56 1366.6,-120.97 1360.88,-112.05 1356.57,-117.56"/>
</a>
</g>
</g>
<!-- Node25 -->
<g id="Node000025" class="node">
<title>Node25</title>
<g id="a_Node000025"><a xlink:href="cpu_8h.html" target="_top" xlink:title="ODP CPU.">
<polygon fill="white" stroke="#666666" points="1598,-85 1555,-85 1555,-66 1598,-66 1598,-85"/>
<text text-anchor="middle" x="1576.5" y="-73" font-family="Helvetica,sans-Serif" font-size="10.00">cpu.h</text>
</a>
</g>
</g>
<!-- Node24&#45;&gt;Node25 -->
<g id="edge25_Node000024_Node000025" class="edge">
<title>Node24&#45;&gt;Node25</title>
<g id="a_edge25_Node000024_Node000025"><a xlink:title=" ">
<path fill="none" stroke="#63b8ff" d="M1415.73,-119.32C1457.03,-108.32 1521.4,-91.17 1554.78,-82.28"/>
<polygon fill="#63b8ff" stroke="#63b8ff" points="1414.77,-115.95 1406.01,-121.91 1416.58,-122.71 1414.77,-115.95"/>
</a>
</g>
</g>
<!-- Node29 -->
<g id="Node000029" class="node">
<title>Node29</title>
<g id="a_Node000029"><a xlink:href="abi-default_2rwlock__recursive_8h.html" target="_top" xlink:title="ODP recursive read/write lock.">
<polygon fill="white" stroke="#666666" points="1724.5,-85 1616.5,-85 1616.5,-66 1724.5,-66 1724.5,-85"/>
<text text-anchor="middle" x="1670.5" y="-73" font-family="Helvetica,sans-Serif" font-size="10.00">rwlock_recursive.h</text>
</a>
</g>
</g>
<!-- Node24&#45;&gt;Node29 -->
<g id="edge30_Node000024_Node000029" class="edge">
<title>Node24&#45;&gt;Node29</title>
<g id="a_edge30_Node000024_Node000029"><a xlink:title=" ">
<path fill="none" stroke="#63b8ff" d="M1416.21,-122.5C1469.59,-112.84 1565.7,-95.46 1623.25,-85.05"/>
<polygon fill="#63b8ff" stroke="#63b8ff" points="1415.34,-119.1 1406.13,-124.32 1416.59,-125.99 1415.34,-119.1"/>
</a>
</g>
</g>
<!-- Node25&#45;&gt;Node12 -->
<g id="edge26_Node000025_Node000012" class="edge">
<title>Node25&#45;&gt;Node12</title>
<g id="a_edge26_Node000025_Node000012"><a xlink:title=" ">
<path fill="none" stroke="#63b8ff" d="M1560.18,-58.59C1548.98,-47.67 1534.53,-33.58 1525.39,-24.67"/>
<polygon fill="#63b8ff" stroke="#63b8ff" points="1558.04,-61.39 1567.65,-65.87 1562.93,-56.38 1558.04,-61.39"/>
</a>
</g>
</g>
<!-- Node26 -->
<g id="Node000026" class="node">
<title>Node26</title>
<g id="a_Node000026"><a xlink:href="rwlock__inlines_8h_source.html" target="_top" xlink:title=" ">
<polygon fill="white" stroke="#666666" points="1806,-24.5 1711,-24.5 1711,-5.5 1806,-5.5 1806,-24.5"/>
<text text-anchor="middle" x="1758.5" y="-12.5" font-family="Helvetica,sans-Serif" font-size="10.00">rwlock_inlines.h</text>
</a>
</g>
</g>
<!-- Node25&#45;&gt;Node26 -->
<g id="edge27_Node000025_Node000026" class="edge">
<title>Node25&#45;&gt;Node26</title>
<g id="a_edge27_Node000025_Node000026"><a xlink:title=" ">
<path fill="none" stroke="#63b8ff" d="M1607.8,-64.44C1642.83,-53.18 1698.96,-35.14 1731.93,-24.54"/>
<polygon fill="#63b8ff" stroke="#63b8ff" points="1606.54,-61.17 1598.09,-67.56 1608.68,-67.83 1606.54,-61.17"/>
</a>
</g>
</g>
<!-- Node27 -->
<g id="Node000027" class="node">
<title>Node27</title>
<g id="a_Node000027"><a xlink:href="spinlock__inlines_8h_source.html" target="_top" xlink:title=" ">
<polygon fill="white" stroke="#666666" points="1928.5,-24.5 1824.5,-24.5 1824.5,-5.5 1928.5,-5.5 1928.5,-24.5"/>
<text text-anchor="middle" x="1876.5" y="-12.5" font-family="Helvetica,sans-Serif" font-size="10.00">spinlock_inlines.h</text>
</a>
</g>
</g>
<!-- Node25&#45;&gt;Node27 -->
<g id="edge28_Node000025_Node000027" class="edge">
<title>Node25&#45;&gt;Node27</title>
<g id="a_edge28_Node000025_Node000027"><a xlink:title=" ">
<path fill="none" stroke="#63b8ff" d="M1607.92,-66.11C1700.77,-45.74 1726.58,-47.89 1815.5,-30 1823.7,-28.35 1832.49,-26.43 1840.77,-24.54"/>
<polygon fill="#63b8ff" stroke="#63b8ff" points="1607.12,-62.7 1598.11,-68.29 1608.63,-69.54 1607.12,-62.7"/>
</a>
</g>
</g>
<!-- Node28 -->
<g id="Node000028" class="node">
<title>Node28</title>
<g id="a_Node000028"><a xlink:href="ticketlock__inlines_8h_source.html" target="_top" xlink:title=" ">
<polygon fill="white" stroke="#666666" points="1692.5,-24.5 1582.5,-24.5 1582.5,-5.5 1692.5,-5.5 1692.5,-24.5"/>
<text text-anchor="middle" x="1637.5" y="-12.5" font-family="Helvetica,sans-Serif" font-size="10.00">ticketlock_inlines.h</text>
</a>
</g>
</g>
<!-- Node25&#45;&gt;Node28 -->
<g id="edge29_Node000025_Node000028" class="edge">
<title>Node25&#45;&gt;Node28</title>
<g id="a_edge29_Node000025_Node000028"><a xlink:title=" ">
<path fill="none" stroke="#63b8ff" d="M1592.76,-58.91C1604.2,-47.94 1619.08,-33.67 1628.46,-24.67"/>
<polygon fill="#63b8ff" stroke="#63b8ff" points="1590.3,-56.42 1585.5,-65.87 1595.14,-61.47 1590.3,-56.42"/>
</a>
</g>
</g>
</g>
</svg>
