<?xml version="1.0" encoding="UTF-8" standalone="no"?>
<!DOCTYPE svg PUBLIC "-//W3C//DTD SVG 1.1//EN"
 "http://www.w3.org/Graphics/SVG/1.1/DTD/svg11.dtd">
<!-- Generated by graphviz version 2.43.0 (0)
 -->
<!-- Title: hints.h Pages: 1 -->
<svg width="1599pt" height="375pt"
 viewBox="0.00 0.00 1598.50 375.00" xmlns="http://www.w3.org/2000/svg" xmlns:xlink="http://www.w3.org/1999/xlink">
<g id="graph0" class="graph" transform="scale(1 1) rotate(0) translate(4 371)">
<title>hints.h</title>
<polygon fill="white" stroke="transparent" points="-4,4 -4,-371 1594.5,-371 1594.5,4 -4,4"/>
<!-- Node1 -->
<g id="node1" class="node">
<title>Node1</title>
<g id="a_node1"><a xlink:title="ODP compiler hints.">
<polygon fill="#bfbfbf" stroke="black" points="1074.5,-347.5 1074.5,-366.5 1124.5,-366.5 1124.5,-347.5 1074.5,-347.5"/>
<text text-anchor="middle" x="1099.5" y="-354.5" font-family="Helvetica,sans-Serif" font-size="10.00">hints.h</text>
</a>
</g>
</g>
<!-- Node2 -->
<g id="node2" class="node">
<title>Node2</title>
<g id="a_node2"><a xlink:href="hints_8h.html" target="_top" xlink:title="ODP compiler hints.">
<polygon fill="white" stroke="black" points="1074.5,-291.5 1074.5,-310.5 1124.5,-310.5 1124.5,-291.5 1074.5,-291.5"/>
<text text-anchor="middle" x="1099.5" y="-298.5" font-family="Helvetica,sans-Serif" font-size="10.00">hints.h</text>
</a>
</g>
</g>
<!-- Node1&#45;&gt;Node2 -->
<g id="edge1" class="edge">
<title>Node1&#45;&gt;Node2</title>
<path fill="none" stroke="midnightblue" d="M1099.5,-336.8C1099.5,-327.91 1099.5,-317.78 1099.5,-310.75"/>
<polygon fill="midnightblue" stroke="midnightblue" points="1096,-337.08 1099.5,-347.08 1103,-337.08 1096,-337.08"/>
</g>
<!-- Node3 -->
<g id="node3" class="node">
<title>Node3</title>
<g id="a_node3"><a xlink:href="spec_2init_8h.html" target="_top" xlink:title=" ">
<polygon fill="white" stroke="black" points="727,-235.5 727,-254.5 768,-254.5 768,-235.5 727,-235.5"/>
<text text-anchor="middle" x="747.5" y="-242.5" font-family="Helvetica,sans-Serif" font-size="10.00">init.h</text>
</a>
</g>
</g>
<!-- Node2&#45;&gt;Node3 -->
<g id="edge2" class="edge">
<title>Node2&#45;&gt;Node3</title>
<path fill="none" stroke="midnightblue" d="M1064.03,-296.26C1005.2,-289.77 883.86,-275.16 782.5,-255 777.82,-254.07 772.84,-252.9 768.14,-251.71"/>
<polygon fill="midnightblue" stroke="midnightblue" points="1063.95,-299.77 1074.27,-297.38 1064.71,-292.82 1063.95,-299.77"/>
</g>
<!-- Node7 -->
<g id="node7" class="node">
<title>Node7</title>
<g id="a_node7"><a xlink:href="debug__inlines_8h.html" target="_top" xlink:title="ODP Debug inlines.">
<polygon fill="white" stroke="black" points="687,-67.5 687,-86.5 780,-86.5 780,-67.5 687,-67.5"/>
<text text-anchor="middle" x="733.5" y="-74.5" font-family="Helvetica,sans-Serif" font-size="10.00">debug_inlines.h</text>
</a>
</g>
</g>
<!-- Node2&#45;&gt;Node7 -->
<g id="edge22" class="edge">
<title>Node2&#45;&gt;Node7</title>
<path fill="none" stroke="midnightblue" d="M1064.7,-289.66C1040.16,-281.73 1006.92,-269.67 979.5,-255 880.68,-202.14 776,-114.71 743.63,-86.83"/>
<polygon fill="midnightblue" stroke="midnightblue" points="1063.72,-293.02 1074.31,-292.7 1065.83,-286.35 1063.72,-293.02"/>
</g>
<!-- Node10 -->
<g id="node10" class="node">
<title>Node10</title>
<g id="a_node10"><a xlink:href="dma__inlines_8h_source.html" target="_top" xlink:title=" ">
<polygon fill="white" stroke="black" points="1110,-6 1110,-25 1195,-25 1195,-6 1110,-6"/>
<text text-anchor="middle" x="1152.5" y="-13" font-family="Helvetica,sans-Serif" font-size="10.00">dma_inlines.h</text>
</a>
</g>
</g>
<!-- Node2&#45;&gt;Node10 -->
<g id="edge23" class="edge">
<title>Node2&#45;&gt;Node10</title>
<path fill="none" stroke="midnightblue" d="M1064.9,-287.65C1048.63,-280.34 1030.08,-269.6 1017.5,-255 997.4,-231.67 993.5,-220.8 993.5,-190 993.5,-190 993.5,-190 993.5,-132 993.5,-101.2 995.77,-88.82 1017.5,-67 1032.33,-52.11 1085.84,-35.01 1120.87,-25.02"/>
<polygon fill="midnightblue" stroke="midnightblue" points="1063.58,-290.9 1074.16,-291.57 1066.31,-284.45 1063.58,-290.9"/>
</g>
<!-- Node13 -->
<g id="node13" class="node">
<title>Node13</title>
<g id="a_node13"><a xlink:href="packet__inlines_8h.html" target="_top" xlink:title="Packet inline functions.">
<polygon fill="white" stroke="black" points="1213,-6 1213,-25 1308,-25 1308,-6 1213,-6"/>
<text text-anchor="middle" x="1260.5" y="-13" font-family="Helvetica,sans-Serif" font-size="10.00">packet_inlines.h</text>
</a>
</g>
</g>
<!-- Node2&#45;&gt;Node13 -->
<g id="edge27" class="edge">
<title>Node2&#45;&gt;Node13</title>
<path fill="none" stroke="midnightblue" d="M1078.68,-285.18C1068.87,-277.24 1057.76,-266.68 1050.5,-255 1034.61,-229.44 1031.5,-220.1 1031.5,-190 1031.5,-190 1031.5,-190 1031.5,-132 1031.5,-88.14 1167.11,-43.39 1229.62,-25.09"/>
<polygon fill="midnightblue" stroke="midnightblue" points="1076.77,-288.13 1086.83,-291.46 1081.04,-282.58 1076.77,-288.13"/>
</g>
<!-- Node21 -->
<g id="node21" class="node">
<title>Node21</title>
<g id="a_node21"><a xlink:href="cpu__inlines_8h_source.html" target="_top" xlink:title=" ">
<polygon fill="white" stroke="black" points="1059.5,-235.5 1059.5,-254.5 1139.5,-254.5 1139.5,-235.5 1059.5,-235.5"/>
<text text-anchor="middle" x="1099.5" y="-242.5" font-family="Helvetica,sans-Serif" font-size="10.00">cpu_inlines.h</text>
</a>
</g>
</g>
<!-- Node2&#45;&gt;Node21 -->
<g id="edge21" class="edge">
<title>Node2&#45;&gt;Node21</title>
<path fill="none" stroke="midnightblue" d="M1099.5,-280.8C1099.5,-271.91 1099.5,-261.78 1099.5,-254.75"/>
<polygon fill="midnightblue" stroke="midnightblue" points="1096,-281.08 1099.5,-291.08 1103,-281.08 1096,-281.08"/>
</g>
<!-- Node22 -->
<g id="node22" class="node">
<title>Node22</title>
<g id="a_node22"><a xlink:href="event__validation__external_8h.html" target="_top" xlink:title="ODP event validation.">
<polygon fill="white" stroke="black" points="1196,-235.5 1196,-254.5 1349,-254.5 1349,-235.5 1196,-235.5"/>
<text text-anchor="middle" x="1272.5" y="-242.5" font-family="Helvetica,sans-Serif" font-size="10.00">event_validation_external.h</text>
</a>
</g>
</g>
<!-- Node2&#45;&gt;Node22 -->
<g id="edge24" class="edge">
<title>Node2&#45;&gt;Node22</title>
<path fill="none" stroke="midnightblue" d="M1134.24,-289.16C1166.86,-278.97 1215.01,-263.95 1245.03,-254.58"/>
<polygon fill="midnightblue" stroke="midnightblue" points="1133.16,-285.83 1124.66,-292.15 1135.24,-292.51 1133.16,-285.83"/>
</g>
<!-- Node23 -->
<g id="node23" class="node">
<title>Node23</title>
<g id="a_node23"><a xlink:href="queue__inlines_8h_source.html" target="_top" xlink:title=" ">
<polygon fill="white" stroke="black" points="1173,-179.5 1173,-198.5 1266,-198.5 1266,-179.5 1173,-179.5"/>
<text text-anchor="middle" x="1219.5" y="-186.5" font-family="Helvetica,sans-Serif" font-size="10.00">queue_inlines.h</text>
</a>
</g>
</g>
<!-- Node2&#45;&gt;Node23 -->
<g id="edge28" class="edge">
<title>Node2&#45;&gt;Node23</title>
<path fill="none" stroke="midnightblue" d="M1116.4,-284.51C1142.04,-261.01 1189.93,-217.11 1210.13,-198.59"/>
<polygon fill="midnightblue" stroke="midnightblue" points="1113.92,-282.03 1108.92,-291.37 1118.65,-287.19 1113.92,-282.03"/>
</g>
<!-- Node24 -->
<g id="node24" class="node">
<title>Node24</title>
<g id="a_node24"><a xlink:href="packet__flag__inlines_8h.html" target="_top" xlink:title="Packet inline functions.">
<polygon fill="white" stroke="black" points="1367,-235.5 1367,-254.5 1486,-254.5 1486,-235.5 1367,-235.5"/>
<text text-anchor="middle" x="1426.5" y="-242.5" font-family="Helvetica,sans-Serif" font-size="10.00">packet_flag_inlines.h</text>
</a>
</g>
</g>
<!-- Node2&#45;&gt;Node24 -->
<g id="edge26" class="edge">
<title>Node2&#45;&gt;Node24</title>
<path fill="none" stroke="midnightblue" d="M1134.72,-294.18C1192.55,-284.63 1307.88,-265.59 1374.93,-254.52"/>
<polygon fill="midnightblue" stroke="midnightblue" points="1133.91,-290.77 1124.62,-295.85 1135.05,-297.68 1133.91,-290.77"/>
</g>
<!-- Node25 -->
<g id="node25" class="node">
<title>Node25</title>
<g id="a_node25"><a xlink:href="time__inlines_8h_source.html" target="_top" xlink:title=" ">
<polygon fill="white" stroke="black" points="1504.5,-235.5 1504.5,-254.5 1590.5,-254.5 1590.5,-235.5 1504.5,-235.5"/>
<text text-anchor="middle" x="1547.5" y="-242.5" font-family="Helvetica,sans-Serif" font-size="10.00">time_inlines.h</text>
</a>
</g>
</g>
<!-- Node2&#45;&gt;Node25 -->
<g id="edge29" class="edge">
<title>Node2&#45;&gt;Node25</title>
<path fill="none" stroke="midnightblue" d="M1134.93,-296.67C1204.31,-290 1362.87,-274 1495.5,-255 1498.4,-254.58 1501.39,-254.13 1504.4,-253.66"/>
<polygon fill="midnightblue" stroke="midnightblue" points="1134.21,-293.23 1124.58,-297.66 1134.87,-300.19 1134.21,-293.23"/>
</g>
<!-- Node4 -->
<g id="node4" class="node">
<title>Node4</title>
<g id="a_node4"><a xlink:href="init_8h.html" target="_top" xlink:title="ODP initialization.">
<polygon fill="white" stroke="black" points="688,-179.5 688,-198.5 729,-198.5 729,-179.5 688,-179.5"/>
<text text-anchor="middle" x="708.5" y="-186.5" font-family="Helvetica,sans-Serif" font-size="10.00">init.h</text>
</a>
</g>
</g>
<!-- Node3&#45;&gt;Node4 -->
<g id="edge3" class="edge">
<title>Node3&#45;&gt;Node4</title>
<path fill="none" stroke="midnightblue" d="M735.12,-226.86C728.36,-217.5 720.29,-206.33 714.82,-198.75"/>
<polygon fill="midnightblue" stroke="midnightblue" points="732.37,-229.03 741.06,-235.08 738.04,-224.93 732.37,-229.03"/>
</g>
<!-- Node5 -->
<g id="node5" class="node">
<title>Node5</title>
<g id="a_node5"><a xlink:href="spec_2shared__memory_8h.html" target="_top" xlink:title="ODP shared memory.">
<polygon fill="white" stroke="black" points="456.5,-123.5 456.5,-142.5 560.5,-142.5 560.5,-123.5 456.5,-123.5"/>
<text text-anchor="middle" x="508.5" y="-130.5" font-family="Helvetica,sans-Serif" font-size="10.00">shared_memory.h</text>
</a>
</g>
</g>
<!-- Node4&#45;&gt;Node5 -->
<g id="edge4" class="edge">
<title>Node4&#45;&gt;Node5</title>
<path fill="none" stroke="midnightblue" d="M678.06,-179.78C640.79,-169.72 577.97,-152.76 540.16,-142.55"/>
<polygon fill="midnightblue" stroke="midnightblue" points="677.28,-183.2 687.85,-182.42 679.11,-176.44 677.28,-183.2"/>
</g>
<!-- Node4&#45;&gt;Node7 -->
<g id="edge6" class="edge">
<title>Node4&#45;&gt;Node7</title>
<path fill="none" stroke="midnightblue" d="M712.74,-169.35C718.22,-145.25 727.52,-104.31 731.55,-86.59"/>
<polygon fill="midnightblue" stroke="midnightblue" points="709.27,-168.84 710.46,-179.37 716.09,-170.39 709.27,-168.84"/>
</g>
<!-- Node19 -->
<g id="node19" class="node">
<title>Node19</title>
<g id="a_node19"><a xlink:href="thread__inline__types_8h_source.html" target="_top" xlink:title=" ">
<polygon fill="white" stroke="black" points="583.5,-123.5 583.5,-142.5 705.5,-142.5 705.5,-123.5 583.5,-123.5"/>
<text text-anchor="middle" x="644.5" y="-130.5" font-family="Helvetica,sans-Serif" font-size="10.00">thread_inline_types.h</text>
</a>
</g>
</g>
<!-- Node4&#45;&gt;Node19 -->
<g id="edge18" class="edge">
<title>Node4&#45;&gt;Node19</title>
<path fill="none" stroke="midnightblue" d="M690.51,-172.82C679.04,-163.15 664.59,-150.95 654.97,-142.83"/>
<polygon fill="midnightblue" stroke="midnightblue" points="688.32,-175.55 698.22,-179.32 692.83,-170.2 688.32,-175.55"/>
</g>
<!-- Node6 -->
<g id="node6" class="node">
<title>Node6</title>
<g id="a_node6"><a xlink:href="shared__memory_8h.html" target="_top" xlink:title="ODP shared memory.">
<polygon fill="white" stroke="black" points="451.5,-67.5 451.5,-86.5 555.5,-86.5 555.5,-67.5 451.5,-67.5"/>
<text text-anchor="middle" x="503.5" y="-74.5" font-family="Helvetica,sans-Serif" font-size="10.00">shared_memory.h</text>
</a>
</g>
</g>
<!-- Node5&#45;&gt;Node6 -->
<g id="edge5" class="edge">
<title>Node5&#45;&gt;Node6</title>
<path fill="none" stroke="midnightblue" d="M506.75,-113.1C505.92,-104.14 504.97,-93.86 504.31,-86.75"/>
<polygon fill="midnightblue" stroke="midnightblue" points="503.27,-113.45 507.67,-123.08 510.24,-112.8 503.27,-113.45"/>
</g>
<!-- Node8 -->
<g id="node8" class="node">
<title>Node8</title>
<g id="a_node8"><a xlink:href="buffer__inlines_8h_source.html" target="_top" xlink:title=" ">
<polygon fill="white" stroke="black" points="357.5,-6 357.5,-25 449.5,-25 449.5,-6 357.5,-6"/>
<text text-anchor="middle" x="403.5" y="-13" font-family="Helvetica,sans-Serif" font-size="10.00">buffer_inlines.h</text>
</a>
</g>
</g>
<!-- Node7&#45;&gt;Node8 -->
<g id="edge7" class="edge">
<title>Node7&#45;&gt;Node8</title>
<path fill="none" stroke="midnightblue" d="M676.66,-66.84C599.27,-54.35 469.08,-33.26 458.5,-31 450.48,-29.29 441.88,-27.17 433.92,-25.08"/>
<polygon fill="midnightblue" stroke="midnightblue" points="676.32,-70.33 686.75,-68.47 677.43,-63.42 676.32,-70.33"/>
</g>
<!-- Node9 -->
<g id="node9" class="node">
<title>Node9</title>
<g id="a_node9"><a xlink:href="crypto__inlines_8h_source.html" target="_top" xlink:title=" ">
<polygon fill="white" stroke="black" points="467.5,-6 467.5,-25 561.5,-25 561.5,-6 467.5,-6"/>
<text text-anchor="middle" x="514.5" y="-13" font-family="Helvetica,sans-Serif" font-size="10.00">crypto_inlines.h</text>
</a>
</g>
</g>
<!-- Node7&#45;&gt;Node9 -->
<g id="edge8" class="edge">
<title>Node7&#45;&gt;Node9</title>
<path fill="none" stroke="midnightblue" d="M692.36,-64.82C649.82,-53.26 584.33,-35.47 545.82,-25.01"/>
<polygon fill="midnightblue" stroke="midnightblue" points="691.55,-68.23 702.12,-67.48 693.39,-61.48 691.55,-68.23"/>
</g>
<!-- Node7&#45;&gt;Node10 -->
<g id="edge9" class="edge">
<title>Node7&#45;&gt;Node10</title>
<path fill="none" stroke="midnightblue" d="M790.48,-71.68C863,-65.57 991.9,-52.67 1100.5,-31 1108.5,-29.4 1117.06,-27.22 1124.89,-25.03"/>
<polygon fill="midnightblue" stroke="midnightblue" points="789.88,-68.22 780.2,-72.53 790.46,-75.19 789.88,-68.22"/>
</g>
<!-- Node11 -->
<g id="node11" class="node">
<title>Node11</title>
<g id="a_node11"><a xlink:href="event__inlines_8h_source.html" target="_top" xlink:title=" ">
<polygon fill="white" stroke="black" points="580,-6 580,-25 671,-25 671,-6 580,-6"/>
<text text-anchor="middle" x="625.5" y="-13" font-family="Helvetica,sans-Serif" font-size="10.00">event_inlines.h</text>
</a>
</g>
</g>
<!-- Node7&#45;&gt;Node11 -->
<g id="edge10" class="edge">
<title>Node7&#45;&gt;Node11</title>
<path fill="none" stroke="midnightblue" d="M709.1,-62.56C688.2,-51.04 658.74,-34.81 640.95,-25.01"/>
<polygon fill="midnightblue" stroke="midnightblue" points="707.58,-65.72 718.03,-67.48 710.96,-59.58 707.58,-65.72"/>
</g>
<!-- Node12 -->
<g id="node12" class="node">
<title>Node12</title>
<g id="a_node12"><a xlink:href="ipsec__inlines_8h_source.html" target="_top" xlink:title=" ">
<polygon fill="white" stroke="black" points="689,-6 689,-25 778,-25 778,-6 689,-6"/>
<text text-anchor="middle" x="733.5" y="-13" font-family="Helvetica,sans-Serif" font-size="10.00">ipsec_inlines.h</text>
</a>
</g>
</g>
<!-- Node7&#45;&gt;Node12 -->
<g id="edge11" class="edge">
<title>Node7&#45;&gt;Node12</title>
<path fill="none" stroke="midnightblue" d="M733.5,-57.32C733.5,-46.5 733.5,-33.4 733.5,-25.01"/>
<polygon fill="midnightblue" stroke="midnightblue" points="730,-57.48 733.5,-67.48 737,-57.48 730,-57.48"/>
</g>
<!-- Node7&#45;&gt;Node13 -->
<g id="edge12" class="edge">
<title>Node7&#45;&gt;Node13</title>
<path fill="none" stroke="midnightblue" d="M790.43,-73.47C879.38,-68.86 1056.45,-57.07 1204.5,-31 1213.2,-29.47 1222.54,-27.27 1231.05,-25.06"/>
<polygon fill="midnightblue" stroke="midnightblue" points="790.1,-69.98 780.29,-73.98 790.46,-76.97 790.1,-69.98"/>
</g>
<!-- Node14 -->
<g id="node14" class="node">
<title>Node14</title>
<g id="a_node14"><a xlink:href="packet__vector__inlines_8h.html" target="_top" xlink:title="Packet vector inline functions.">
<polygon fill="white" stroke="black" points="796,-6 796,-25 927,-25 927,-6 796,-6"/>
<text text-anchor="middle" x="861.5" y="-13" font-family="Helvetica,sans-Serif" font-size="10.00">packet_vector_inlines.h</text>
</a>
</g>
</g>
<!-- Node7&#45;&gt;Node14 -->
<g id="edge13" class="edge">
<title>Node7&#45;&gt;Node14</title>
<path fill="none" stroke="midnightblue" d="M761.09,-63.17C785.93,-51.63 821.73,-34.99 843.19,-25.01"/>
<polygon fill="midnightblue" stroke="midnightblue" points="759.43,-60.09 751.84,-67.48 762.38,-66.43 759.43,-60.09"/>
</g>
<!-- Node15 -->
<g id="node15" class="node">
<title>Node15</title>
<g id="a_node15"><a xlink:href="rwlock__recursive__inlines_8h_source.html" target="_top" xlink:title=" ">
<polygon fill="white" stroke="black" points="945.5,-6 945.5,-25 1091.5,-25 1091.5,-6 945.5,-6"/>
<text text-anchor="middle" x="1018.5" y="-13" font-family="Helvetica,sans-Serif" font-size="10.00">rwlock_recursive_inlines.h</text>
</a>
</g>
</g>
<!-- Node7&#45;&gt;Node15 -->
<g id="edge14" class="edge">
<title>Node7&#45;&gt;Node15</title>
<path fill="none" stroke="midnightblue" d="M784.26,-65.4C839.51,-53.87 926.77,-35.65 977.74,-25.01"/>
<polygon fill="midnightblue" stroke="midnightblue" points="783.41,-62.01 774.33,-67.48 784.84,-68.86 783.41,-62.01"/>
</g>
<!-- Node16 -->
<g id="node16" class="node">
<title>Node16</title>
<g id="a_node16"><a xlink:href="schedule__inlines_8h_source.html" target="_top" xlink:title=" ">
<polygon fill="white" stroke="black" points="0,-6 0,-25 107,-25 107,-6 0,-6"/>
<text text-anchor="middle" x="53.5" y="-13" font-family="Helvetica,sans-Serif" font-size="10.00">schedule_inlines.h</text>
</a>
</g>
</g>
<!-- Node7&#45;&gt;Node16 -->
<g id="edge15" class="edge">
<title>Node7&#45;&gt;Node16</title>
<path fill="none" stroke="midnightblue" d="M676.69,-67.03C427.01,-39.85 359.83,-67.14 115.5,-31 105.66,-29.54 95.07,-27.32 85.48,-25.05"/>
<polygon fill="midnightblue" stroke="midnightblue" points="676.47,-70.53 686.79,-68.15 677.24,-63.57 676.47,-70.53"/>
</g>
<!-- Node17 -->
<g id="node17" class="node">
<title>Node17</title>
<g id="a_node17"><a xlink:href="spinlock__recursive__inlines_8h_source.html" target="_top" xlink:title=" ">
<polygon fill="white" stroke="black" points="125,-0.5 125,-30.5 232,-30.5 232,-0.5 125,-0.5"/>
<text text-anchor="start" x="133" y="-18.5" font-family="Helvetica,sans-Serif" font-size="10.00">spinlock_recursive</text>
<text text-anchor="middle" x="178.5" y="-7.5" font-family="Helvetica,sans-Serif" font-size="10.00">_inlines.h</text>
</a>
</g>
</g>
<!-- Node7&#45;&gt;Node17 -->
<g id="edge16" class="edge">
<title>Node7&#45;&gt;Node17</title>
<path fill="none" stroke="midnightblue" d="M676.81,-67.02C482.31,-44.1 429.82,-60.77 240.5,-31 237.77,-30.57 234.98,-30.09 232.17,-29.56"/>
<polygon fill="midnightblue" stroke="midnightblue" points="676.44,-70.5 686.79,-68.22 677.27,-63.55 676.44,-70.5"/>
</g>
<!-- Node18 -->
<g id="node18" class="node">
<title>Node18</title>
<g id="a_node18"><a xlink:href="timer__inlines_8h_source.html" target="_top" xlink:title=" ">
<polygon fill="white" stroke="black" points="250,-6 250,-25 339,-25 339,-6 250,-6"/>
<text text-anchor="middle" x="294.5" y="-13" font-family="Helvetica,sans-Serif" font-size="10.00">timer_inlines.h</text>
</a>
</g>
</g>
<!-- Node7&#45;&gt;Node18 -->
<g id="edge17" class="edge">
<title>Node7&#45;&gt;Node18</title>
<path fill="none" stroke="midnightblue" d="M676.5,-66.94C529.94,-47.79 489.82,-57.54 348.5,-31 340.1,-29.42 331.1,-27.22 322.9,-25"/>
<polygon fill="midnightblue" stroke="midnightblue" points="676.4,-70.46 686.78,-68.31 677.32,-63.52 676.4,-70.46"/>
</g>
<!-- Node19&#45;&gt;Node7 -->
<g id="edge19" class="edge">
<title>Node19&#45;&gt;Node7</title>
<path fill="none" stroke="midnightblue" d="M667.74,-117.9C684.06,-108 705.37,-95.07 719.24,-86.65"/>
<polygon fill="midnightblue" stroke="midnightblue" points="665.53,-115.14 658.8,-123.32 669.16,-121.13 665.53,-115.14"/>
</g>
<!-- Node20 -->
<g id="node20" class="node">
<title>Node20</title>
<g id="a_node20"><a xlink:href="thread__inlines_8h_source.html" target="_top" xlink:title=" ">
<polygon fill="white" stroke="black" points="574,-67.5 574,-86.5 669,-86.5 669,-67.5 574,-67.5"/>
<text text-anchor="middle" x="621.5" y="-74.5" font-family="Helvetica,sans-Serif" font-size="10.00">thread_inlines.h</text>
</a>
</g>
</g>
<!-- Node19&#45;&gt;Node20 -->
<g id="edge20" class="edge">
<title>Node19&#45;&gt;Node20</title>
<path fill="none" stroke="midnightblue" d="M636.7,-113.69C632.82,-104.59 628.32,-94.01 625.23,-86.75"/>
<polygon fill="midnightblue" stroke="midnightblue" points="633.56,-115.25 640.7,-123.08 640,-112.51 633.56,-115.25"/>
</g>
<!-- Node22&#45;&gt;Node23 -->
<g id="edge25" class="edge">
<title>Node22&#45;&gt;Node23</title>
<path fill="none" stroke="midnightblue" d="M1256.52,-227.72C1247.18,-218.2 1235.75,-206.56 1228.09,-198.75"/>
<polygon fill="midnightblue" stroke="midnightblue" points="1254.25,-230.4 1263.75,-235.08 1259.24,-225.49 1254.25,-230.4"/>
</g>
</g>
</svg>
