<?xml version="1.0" encoding="UTF-8" standalone="no"?>
<!DOCTYPE svg PUBLIC "-//W3C//DTD SVG 1.1//EN"
 "http://www.w3.org/Graphics/SVG/1.1/DTD/svg11.dtd">
<!-- Generated by graphviz version 2.43.0 (0)
 -->
<!-- Title: timer.h Pages: 1 -->
<svg width="1654pt" height="1046pt"
 viewBox="0.00 0.00 1654.00 1046.00" xmlns="http://www.w3.org/2000/svg" xmlns:xlink="http://www.w3.org/1999/xlink">
<g id="graph0" class="graph" transform="scale(1 1) rotate(0) translate(4 1042)">
<title>timer.h</title>
<polygon fill="white" stroke="transparent" points="-4,4 -4,-1042 1650,-1042 1650,4 -4,4"/>
<!-- Node1 -->
<g id="node1" class="node">
<title>Node1</title>
<g id="a_node1"><a xlink:title="ODP timer service.">
<polygon fill="#bfbfbf" stroke="black" points="164.5,-1018.5 164.5,-1037.5 215.5,-1037.5 215.5,-1018.5 164.5,-1018.5"/>
<text text-anchor="middle" x="190" y="-1025.5" font-family="Helvetica,sans-Serif" font-size="10.00">timer.h</text>
</a>
</g>
</g>
<!-- Node2 -->
<g id="node2" class="node">
<title>Node2</title>
<g id="a_node2"><a xlink:title=" ">
<polygon fill="white" stroke="#bfbfbf" points="1335.5,-0.5 1335.5,-19.5 1456.5,-19.5 1456.5,-0.5 1335.5,-0.5"/>
<text text-anchor="middle" x="1396" y="-7.5" font-family="Helvetica,sans-Serif" font-size="10.00">odp/visibility_begin.h</text>
</a>
</g>
</g>
<!-- Node1&#45;&gt;Node2 -->
<g id="edge1" class="edge">
<title>Node1&#45;&gt;Node2</title>
<path fill="none" stroke="midnightblue" d="M215.58,-1026.45C409.92,-1022.14 1646,-991.74 1646,-917 1646,-917 1646,-917 1646,-132 1646,-51.87 1540.65,-24.78 1466.73,-15.64"/>
<polygon fill="midnightblue" stroke="midnightblue" points="1466.85,-12.13 1456.52,-14.47 1466.05,-19.09 1466.85,-12.13"/>
</g>
<!-- Node3 -->
<g id="node3" class="node">
<title>Node3</title>
<g id="a_node3"><a xlink:href="deprecated_8h.html" target="_top" xlink:title="Control deprecated API definitions.">
<polygon fill="white" stroke="black" points="764.5,-615.5 764.5,-634.5 883.5,-634.5 883.5,-615.5 764.5,-615.5"/>
<text text-anchor="middle" x="824" y="-622.5" font-family="Helvetica,sans-Serif" font-size="10.00">odp/api/deprecated.h</text>
</a>
</g>
</g>
<!-- Node1&#45;&gt;Node3 -->
<g id="edge2" class="edge">
<title>Node1&#45;&gt;Node3</title>
<path fill="none" stroke="midnightblue" d="M215.93,-1026.2C352.6,-1021.64 983,-996.31 983,-917 983,-917 983,-917 983,-747 983,-687.9 912.57,-653.87 865.46,-637.72"/>
<polygon fill="midnightblue" stroke="midnightblue" points="866.39,-634.34 855.79,-634.54 864.2,-640.99 866.39,-634.34"/>
</g>
<!-- Node5 -->
<g id="node5" class="node">
<title>Node5</title>
<g id="a_node5"><a xlink:title=" ">
<polygon fill="white" stroke="#bfbfbf" points="552,-0.5 552,-19.5 664,-19.5 664,-0.5 552,-0.5"/>
<text text-anchor="middle" x="608" y="-7.5" font-family="Helvetica,sans-Serif" font-size="10.00">odp/visibility_end.h</text>
</a>
</g>
</g>
<!-- Node1&#45;&gt;Node5 -->
<g id="edge81" class="edge">
<title>Node1&#45;&gt;Node5</title>
<path fill="none" stroke="midnightblue" d="M164.38,-1024.13C112.51,-1016.75 0,-992.09 0,-917 0,-917 0,-917 0,-132 0,-87.55 25.43,-76.25 65,-56 146.5,-14.3 415.17,-9.93 541.39,-10.28"/>
<polygon fill="midnightblue" stroke="midnightblue" points="541.68,-13.78 551.69,-10.32 541.7,-6.78 541.68,-13.78"/>
</g>
<!-- Node6 -->
<g id="node6" class="node">
<title>Node6</title>
<g id="a_node6"><a xlink:href="timer__types_8h.html" target="_top" xlink:title="ODP timer service.">
<polygon fill="white" stroke="black" points="151.5,-364 151.5,-383 274.5,-383 274.5,-364 151.5,-364"/>
<text text-anchor="middle" x="213" y="-371" font-family="Helvetica,sans-Serif" font-size="10.00">odp/api/timer_types.h</text>
</a>
</g>
</g>
<!-- Node1&#45;&gt;Node6 -->
<g id="edge6" class="edge">
<title>Node1&#45;&gt;Node6</title>
<path fill="none" stroke="midnightblue" d="M178.46,-1018.43C157.2,-1001.57 114,-961.8 114,-917 114,-917 114,-917 114,-501 114,-451.46 161.66,-409.77 190.84,-388.88"/>
<polygon fill="midnightblue" stroke="midnightblue" points="193,-391.65 199.23,-383.08 189.02,-385.89 193,-391.65"/>
</g>
<!-- Node9 -->
<g id="node9" class="node">
<title>Node9</title>
<g id="a_node9"><a xlink:href="event__types_8h.html" target="_top" xlink:title="ODP event API type definitions.">
<polygon fill="white" stroke="black" points="288.5,-235.5 288.5,-254.5 413.5,-254.5 413.5,-235.5 288.5,-235.5"/>
<text text-anchor="middle" x="351" y="-242.5" font-family="Helvetica,sans-Serif" font-size="10.00">odp/api/event_types.h</text>
</a>
</g>
</g>
<!-- Node1&#45;&gt;Node9 -->
<g id="edge27" class="edge">
<title>Node1&#45;&gt;Node9</title>
<path fill="none" stroke="midnightblue" d="M169.36,-1018.42C136.5,-1003.23 76,-968.29 76,-917 76,-917 76,-917 76,-372.5 76,-283.42 196.56,-256.85 278.03,-249.06"/>
<polygon fill="midnightblue" stroke="midnightblue" points="278.6,-252.52 288.25,-248.16 277.99,-245.55 278.6,-252.52"/>
</g>
<!-- Node19 -->
<g id="node19" class="node">
<title>Node19</title>
<g id="a_node19"><a xlink:href="pool__types_8h.html" target="_top" xlink:title="ODP pool.">
<polygon fill="white" stroke="black" points="1020,-962.5 1020,-981.5 1138,-981.5 1138,-962.5 1020,-962.5"/>
<text text-anchor="middle" x="1079" y="-969.5" font-family="Helvetica,sans-Serif" font-size="10.00">odp/api/pool_types.h</text>
</a>
</g>
</g>
<!-- Node1&#45;&gt;Node19 -->
<g id="edge28" class="edge">
<title>Node1&#45;&gt;Node19</title>
<path fill="none" stroke="midnightblue" d="M215.82,-1026.06C316.18,-1022.32 690.04,-1007.39 997,-982 1001.17,-981.65 1005.47,-981.27 1009.79,-980.86"/>
<polygon fill="midnightblue" stroke="midnightblue" points="1010.3,-984.33 1019.91,-979.87 1009.62,-977.36 1010.3,-984.33"/>
</g>
<!-- Node32 -->
<g id="node32" class="node">
<title>Node32</title>
<g id="a_node32"><a xlink:href="queue__types_8h.html" target="_top" xlink:title="ODP queue.">
<polygon fill="white" stroke="black" points="619.5,-615.5 619.5,-634.5 746.5,-634.5 746.5,-615.5 619.5,-615.5"/>
<text text-anchor="middle" x="683" y="-622.5" font-family="Helvetica,sans-Serif" font-size="10.00">odp/api/queue_types.h</text>
</a>
</g>
</g>
<!-- Node1&#45;&gt;Node32 -->
<g id="edge80" class="edge">
<title>Node1&#45;&gt;Node32</title>
<path fill="none" stroke="midnightblue" d="M190,-1018.44C190,-999.94 190,-954.81 190,-917 190,-917 190,-917 190,-803 190,-704.15 277.53,-708.48 369,-671 446.88,-639.09 543.68,-629.24 609.05,-626.49"/>
<polygon fill="midnightblue" stroke="midnightblue" points="609.4,-629.98 619.26,-626.1 609.14,-622.98 609.4,-629.98"/>
</g>
<!-- Node4 -->
<g id="node4" class="node">
<title>Node4</title>
<g id="a_node4"><a xlink:href="spec_2deprecated_8h.html" target="_top" xlink:title="Macro for deprecated API definitions.">
<polygon fill="white" stroke="black" points="867.5,-62 867.5,-81 1012.5,-81 1012.5,-62 867.5,-62"/>
<text text-anchor="middle" x="940" y="-69" font-family="Helvetica,sans-Serif" font-size="10.00">odp/api/spec/deprecated.h</text>
</a>
</g>
</g>
<!-- Node3&#45;&gt;Node4 -->
<g id="edge3" class="edge">
<title>Node3&#45;&gt;Node4</title>
<path fill="none" stroke="midnightblue" d="M822.86,-615.33C818.05,-576.68 801.08,-416.5 832,-291 851.8,-210.63 904.4,-125.51 928.11,-89.82"/>
<polygon fill="midnightblue" stroke="midnightblue" points="931.29,-91.36 933.98,-81.11 925.49,-87.45 931.29,-91.36"/>
</g>
<!-- Node4&#45;&gt;Node2 -->
<g id="edge4" class="edge">
<title>Node4&#45;&gt;Node2</title>
<path fill="none" stroke="midnightblue" d="M985.47,-62C997.34,-59.91 1010.13,-57.76 1022,-56 1127.19,-40.38 1249.64,-26.45 1324.98,-18.36"/>
<polygon fill="midnightblue" stroke="midnightblue" points="1325.72,-21.8 1335.3,-17.26 1324.98,-14.84 1325.72,-21.8"/>
</g>
<!-- Node4&#45;&gt;Node5 -->
<g id="edge5" class="edge">
<title>Node4&#45;&gt;Node5</title>
<path fill="none" stroke="midnightblue" d="M892.43,-61.98C832.52,-51.24 729.68,-32.81 665.44,-21.29"/>
<polygon fill="midnightblue" stroke="midnightblue" points="665.94,-17.83 655.48,-19.51 664.7,-24.72 665.94,-17.83"/>
</g>
<!-- Node7 -->
<g id="node7" class="node">
<title>Node7</title>
<g id="a_node7"><a xlink:title=" ">
<polygon fill="white" stroke="#bfbfbf" points="142.5,-297 142.5,-316 283.5,-316 283.5,-297 142.5,-297"/>
<text text-anchor="middle" x="213" y="-304" font-family="Helvetica,sans-Serif" font-size="10.00">odp/api/abi/timer_types.h</text>
</a>
</g>
</g>
<!-- Node6&#45;&gt;Node7 -->
<g id="edge7" class="edge">
<title>Node6&#45;&gt;Node7</title>
<path fill="none" stroke="midnightblue" d="M213,-363.73C213,-354.18 213,-338.62 213,-326.28"/>
<polygon fill="midnightblue" stroke="midnightblue" points="216.5,-326.13 213,-316.13 209.5,-326.13 216.5,-326.13"/>
</g>
<!-- Node8 -->
<g id="node8" class="node">
<title>Node8</title>
<g id="a_node8"><a xlink:href="spec_2timer__types_8h.html" target="_top" xlink:title="ODP timer API type definitions.">
<polygon fill="white" stroke="black" points="454.5,-291.5 454.5,-321.5 561.5,-321.5 561.5,-291.5 454.5,-291.5"/>
<text text-anchor="start" x="462.5" y="-309.5" font-family="Helvetica,sans-Serif" font-size="10.00">odp/api/spec/timer</text>
<text text-anchor="middle" x="508" y="-298.5" font-family="Helvetica,sans-Serif" font-size="10.00">_types.h</text>
</a>
</g>
</g>
<!-- Node6&#45;&gt;Node8 -->
<g id="edge8" class="edge">
<title>Node6&#45;&gt;Node8</title>
<path fill="none" stroke="midnightblue" d="M251.87,-363.94C300.9,-353.13 385.86,-334.41 444.4,-321.51"/>
<polygon fill="midnightblue" stroke="midnightblue" points="445.27,-324.91 454.28,-319.34 443.77,-318.07 445.27,-324.91"/>
</g>
<!-- Node8&#45;&gt;Node2 -->
<g id="edge9" class="edge">
<title>Node8&#45;&gt;Node2</title>
<path fill="none" stroke="midnightblue" d="M521.72,-291.38C565.77,-247.11 709.45,-110.72 859,-56 942.64,-25.39 1198.91,-15.42 1324.76,-12.32"/>
<polygon fill="midnightblue" stroke="midnightblue" points="1325.14,-15.81 1335.06,-12.08 1324.98,-8.82 1325.14,-15.81"/>
</g>
<!-- Node8&#45;&gt;Node5 -->
<g id="edge26" class="edge">
<title>Node8&#45;&gt;Node5</title>
<path fill="none" stroke="midnightblue" d="M502.62,-291.3C488.2,-250.62 453.03,-131.77 503,-56 513.64,-39.86 531.39,-29.49 549.31,-22.83"/>
<polygon fill="midnightblue" stroke="midnightblue" points="550.86,-26 559.23,-19.5 548.63,-19.37 550.86,-26"/>
</g>
<!-- Node8&#45;&gt;Node9 -->
<g id="edge10" class="edge">
<title>Node8&#45;&gt;Node9</title>
<path fill="none" stroke="midnightblue" d="M470.79,-291.4C444.22,-281.33 408.81,-267.91 383.39,-258.28"/>
<polygon fill="midnightblue" stroke="midnightblue" points="384.44,-254.93 373.84,-254.66 381.96,-261.47 384.44,-254.93"/>
</g>
<!-- Node12 -->
<g id="node12" class="node">
<title>Node12</title>
<g id="a_node12"><a xlink:href="std__types_8h.html" target="_top" xlink:title="Standard C language types and definitions for ODP.">
<polygon fill="white" stroke="black" points="1259,-235.5 1259,-254.5 1371,-254.5 1371,-235.5 1259,-235.5"/>
<text text-anchor="middle" x="1315" y="-242.5" font-family="Helvetica,sans-Serif" font-size="10.00">odp/api/std_types.h</text>
</a>
</g>
</g>
<!-- Node8&#45;&gt;Node12 -->
<g id="edge15" class="edge">
<title>Node8&#45;&gt;Node12</title>
<path fill="none" stroke="midnightblue" d="M561.5,-292.55C564.71,-291.97 567.89,-291.45 571,-291 819.15,-255.19 1117.85,-247.81 1248.44,-246.34"/>
<polygon fill="midnightblue" stroke="midnightblue" points="1248.72,-249.83 1258.68,-246.23 1248.64,-242.83 1248.72,-249.83"/>
</g>
<!-- Node10 -->
<g id="node10" class="node">
<title>Node10</title>
<g id="a_node10"><a xlink:title=" ">
<polygon fill="white" stroke="#bfbfbf" points="273.5,-179.5 273.5,-198.5 416.5,-198.5 416.5,-179.5 273.5,-179.5"/>
<text text-anchor="middle" x="345" y="-186.5" font-family="Helvetica,sans-Serif" font-size="10.00">odp/api/abi/event_types.h</text>
</a>
</g>
</g>
<!-- Node9&#45;&gt;Node10 -->
<g id="edge11" class="edge">
<title>Node9&#45;&gt;Node10</title>
<path fill="none" stroke="midnightblue" d="M350.01,-235.08C349.21,-227.93 348.07,-217.64 347.08,-208.69"/>
<polygon fill="midnightblue" stroke="midnightblue" points="350.56,-208.3 345.97,-198.75 343.6,-209.08 350.56,-208.3"/>
</g>
<!-- Node11 -->
<g id="node11" class="node">
<title>Node11</title>
<g id="a_node11"><a xlink:href="spec_2event__types_8h.html" target="_top" xlink:title="ODP event API type definitions.">
<polygon fill="white" stroke="black" points="511.5,-56.5 511.5,-86.5 620.5,-86.5 620.5,-56.5 511.5,-56.5"/>
<text text-anchor="start" x="519.5" y="-74.5" font-family="Helvetica,sans-Serif" font-size="10.00">odp/api/spec/event</text>
<text text-anchor="middle" x="566" y="-63.5" font-family="Helvetica,sans-Serif" font-size="10.00">_types.h</text>
</a>
</g>
</g>
<!-- Node9&#45;&gt;Node11 -->
<g id="edge12" class="edge">
<title>Node9&#45;&gt;Node11</title>
<path fill="none" stroke="midnightblue" d="M367.38,-235.38C382.98,-226.9 406.84,-213.19 426,-199 471.04,-165.63 518.42,-120.36 544.88,-94"/>
<polygon fill="midnightblue" stroke="midnightblue" points="547.5,-96.33 552.09,-86.77 542.55,-91.38 547.5,-96.33"/>
</g>
<!-- Node11&#45;&gt;Node2 -->
<g id="edge13" class="edge">
<title>Node11&#45;&gt;Node2</title>
<path fill="none" stroke="midnightblue" d="M620.7,-64.59C647.84,-61.77 681.12,-58.47 711,-56 935.12,-37.44 1201.01,-21.79 1325.33,-14.85"/>
<polygon fill="midnightblue" stroke="midnightblue" points="1325.68,-18.33 1335.47,-14.28 1325.29,-11.34 1325.68,-18.33"/>
</g>
<!-- Node11&#45;&gt;Node5 -->
<g id="edge14" class="edge">
<title>Node11&#45;&gt;Node5</title>
<path fill="none" stroke="midnightblue" d="M575.95,-56.4C581.99,-47.84 589.74,-36.87 596.1,-27.86"/>
<polygon fill="midnightblue" stroke="midnightblue" points="598.98,-29.85 601.89,-19.66 593.26,-25.81 598.98,-29.85"/>
</g>
<!-- Node13 -->
<g id="node13" class="node">
<title>Node13</title>
<g id="a_node13"><a xlink:title=" ">
<polygon fill="white" stroke="#bfbfbf" points="1259,-179.5 1259,-198.5 1389,-198.5 1389,-179.5 1259,-179.5"/>
<text text-anchor="middle" x="1324" y="-186.5" font-family="Helvetica,sans-Serif" font-size="10.00">odp/api/abi/std_types.h</text>
</a>
</g>
</g>
<!-- Node12&#45;&gt;Node13 -->
<g id="edge16" class="edge">
<title>Node12&#45;&gt;Node13</title>
<path fill="none" stroke="midnightblue" d="M1316.49,-235.08C1317.68,-227.93 1319.39,-217.64 1320.88,-208.69"/>
<polygon fill="midnightblue" stroke="midnightblue" points="1324.35,-209.19 1322.54,-198.75 1317.45,-208.04 1324.35,-209.19"/>
</g>
<!-- Node14 -->
<g id="node14" class="node">
<title>Node14</title>
<g id="a_node14"><a xlink:href="spec_2std__types_8h.html" target="_top" xlink:title="Common types and definitions for ODP API files.">
<polygon fill="white" stroke="black" points="1027.5,-179.5 1027.5,-198.5 1164.5,-198.5 1164.5,-179.5 1027.5,-179.5"/>
<text text-anchor="middle" x="1096" y="-186.5" font-family="Helvetica,sans-Serif" font-size="10.00">odp/api/spec/std_types.h</text>
</a>
</g>
</g>
<!-- Node12&#45;&gt;Node14 -->
<g id="edge17" class="edge">
<title>Node12&#45;&gt;Node14</title>
<path fill="none" stroke="midnightblue" d="M1280.3,-235.44C1242.42,-226.1 1181.65,-211.12 1140.34,-200.93"/>
<polygon fill="midnightblue" stroke="midnightblue" points="1141.09,-197.51 1130.54,-198.52 1139.41,-204.31 1141.09,-197.51"/>
</g>
<!-- Node14&#45;&gt;Node2 -->
<g id="edge18" class="edge">
<title>Node14&#45;&gt;Node2</title>
<path fill="none" stroke="midnightblue" d="M1127.34,-179.48C1152.54,-171.9 1188.34,-159.47 1217,-143 1269.84,-112.63 1273.39,-91.4 1323,-56 1338.81,-44.72 1357.46,-33.25 1371.95,-24.72"/>
<polygon fill="midnightblue" stroke="midnightblue" points="1373.92,-27.62 1380.8,-19.56 1370.4,-21.57 1373.92,-27.62"/>
</g>
<!-- Node14&#45;&gt;Node5 -->
<g id="edge25" class="edge">
<title>Node14&#45;&gt;Node5</title>
<path fill="none" stroke="midnightblue" d="M1071.32,-179.45C1027.33,-163.77 933.04,-128.25 859,-87 838.1,-75.36 836.9,-65.62 815,-56 770.21,-36.32 716.07,-24.94 674.39,-18.55"/>
<polygon fill="midnightblue" stroke="midnightblue" points="674.76,-15.07 664.35,-17.07 673.74,-21.99 674.76,-15.07"/>
</g>
<!-- Node15 -->
<g id="node15" class="node">
<title>Node15</title>
<g id="a_node15"><a xlink:title=" ">
<polygon fill="white" stroke="#bfbfbf" points="1154.5,-123.5 1154.5,-142.5 1207.5,-142.5 1207.5,-123.5 1154.5,-123.5"/>
<text text-anchor="middle" x="1181" y="-130.5" font-family="Helvetica,sans-Serif" font-size="10.00">stdint.h</text>
</a>
</g>
</g>
<!-- Node14&#45;&gt;Node15 -->
<g id="edge19" class="edge">
<title>Node14&#45;&gt;Node15</title>
<path fill="none" stroke="midnightblue" d="M1109.66,-179.32C1122.92,-170.9 1143.27,-157.97 1158.85,-148.07"/>
<polygon fill="midnightblue" stroke="midnightblue" points="1160.81,-150.97 1167.38,-142.65 1157.06,-145.06 1160.81,-150.97"/>
</g>
<!-- Node16 -->
<g id="node16" class="node">
<title>Node16</title>
<g id="a_node16"><a xlink:href="align_8h.html" target="_top" xlink:title="ODP alignments.">
<polygon fill="white" stroke="black" points="1047.5,-123.5 1047.5,-142.5 1136.5,-142.5 1136.5,-123.5 1047.5,-123.5"/>
<text text-anchor="middle" x="1092" y="-130.5" font-family="Helvetica,sans-Serif" font-size="10.00">odp/api/align.h</text>
</a>
</g>
</g>
<!-- Node14&#45;&gt;Node16 -->
<g id="edge20" class="edge">
<title>Node14&#45;&gt;Node16</title>
<path fill="none" stroke="midnightblue" d="M1095.34,-179.08C1094.82,-172.01 1094.06,-161.86 1093.41,-152.99"/>
<polygon fill="midnightblue" stroke="midnightblue" points="1096.88,-152.47 1092.65,-142.75 1089.9,-152.98 1096.88,-152.47"/>
</g>
<!-- Node17 -->
<g id="node17" class="node">
<title>Node17</title>
<g id="a_node17"><a xlink:title=" ">
<polygon fill="white" stroke="#bfbfbf" points="1163.5,-62 1163.5,-81 1270.5,-81 1270.5,-62 1163.5,-62"/>
<text text-anchor="middle" x="1217" y="-69" font-family="Helvetica,sans-Serif" font-size="10.00">odp/api/abi/align.h</text>
</a>
</g>
</g>
<!-- Node16&#45;&gt;Node17 -->
<g id="edge21" class="edge">
<title>Node16&#45;&gt;Node17</title>
<path fill="none" stroke="midnightblue" d="M1109.91,-123.48C1130.89,-113.49 1165.85,-96.85 1190.09,-85.31"/>
<polygon fill="midnightblue" stroke="midnightblue" points="1191.6,-88.47 1199.12,-81.01 1188.59,-82.15 1191.6,-88.47"/>
</g>
<!-- Node18 -->
<g id="node18" class="node">
<title>Node18</title>
<g id="a_node18"><a xlink:href="spec_2align_8h.html" target="_top" xlink:title="ODP alignments.">
<polygon fill="white" stroke="black" points="1031,-62 1031,-81 1145,-81 1145,-62 1031,-62"/>
<text text-anchor="middle" x="1088" y="-69" font-family="Helvetica,sans-Serif" font-size="10.00">odp/api/spec/align.h</text>
</a>
</g>
</g>
<!-- Node16&#45;&gt;Node18 -->
<g id="edge22" class="edge">
<title>Node16&#45;&gt;Node18</title>
<path fill="none" stroke="midnightblue" d="M1091.43,-123.48C1090.86,-115.08 1089.98,-101.98 1089.25,-91.16"/>
<polygon fill="midnightblue" stroke="midnightblue" points="1092.74,-90.75 1088.57,-81.01 1085.75,-91.22 1092.74,-90.75"/>
</g>
<!-- Node18&#45;&gt;Node2 -->
<g id="edge23" class="edge">
<title>Node18&#45;&gt;Node2</title>
<path fill="none" stroke="midnightblue" d="M1126.58,-61.95C1135.87,-59.95 1145.78,-57.86 1155,-56 1217.33,-43.44 1288.97,-30.22 1337.84,-21.38"/>
<polygon fill="midnightblue" stroke="midnightblue" points="1338.69,-24.78 1347.91,-19.56 1337.45,-17.89 1338.69,-24.78"/>
</g>
<!-- Node18&#45;&gt;Node5 -->
<g id="edge24" class="edge">
<title>Node18&#45;&gt;Node5</title>
<path fill="none" stroke="midnightblue" d="M1052.51,-61.97C1042.67,-59.8 1031.96,-57.63 1022,-56 900.04,-36.03 756.36,-22.67 674.35,-15.99"/>
<polygon fill="midnightblue" stroke="midnightblue" points="674.42,-12.48 664.17,-15.17 673.86,-19.46 674.42,-12.48"/>
</g>
<!-- Node20 -->
<g id="node20" class="node">
<title>Node20</title>
<g id="a_node20"><a xlink:title=" ">
<polygon fill="white" stroke="#bfbfbf" points="1011,-906.5 1011,-925.5 1147,-925.5 1147,-906.5 1011,-906.5"/>
<text text-anchor="middle" x="1079" y="-913.5" font-family="Helvetica,sans-Serif" font-size="10.00">odp/api/abi/pool_types.h</text>
</a>
</g>
</g>
<!-- Node19&#45;&gt;Node20 -->
<g id="edge29" class="edge">
<title>Node19&#45;&gt;Node20</title>
<path fill="none" stroke="midnightblue" d="M1079,-962.08C1079,-955.01 1079,-944.86 1079,-935.99"/>
<polygon fill="midnightblue" stroke="midnightblue" points="1082.5,-935.75 1079,-925.75 1075.5,-935.75 1082.5,-935.75"/>
</g>
<!-- Node21 -->
<g id="node21" class="node">
<title>Node21</title>
<g id="a_node21"><a xlink:href="spec_2pool__types_8h.html" target="_top" xlink:title="Type definitions for pools.">
<polygon fill="white" stroke="black" points="1165.5,-906.5 1165.5,-925.5 1308.5,-925.5 1308.5,-906.5 1165.5,-906.5"/>
<text text-anchor="middle" x="1237" y="-913.5" font-family="Helvetica,sans-Serif" font-size="10.00">odp/api/spec/pool_types.h</text>
</a>
</g>
</g>
<!-- Node19&#45;&gt;Node21 -->
<g id="edge30" class="edge">
<title>Node19&#45;&gt;Node21</title>
<path fill="none" stroke="midnightblue" d="M1104.04,-962.44C1130.62,-953.36 1172.81,-938.94 1202.52,-928.78"/>
<polygon fill="midnightblue" stroke="midnightblue" points="1203.75,-932.06 1212.08,-925.52 1201.49,-925.44 1203.75,-932.06"/>
</g>
<!-- Node21&#45;&gt;Node2 -->
<g id="edge31" class="edge">
<title>Node21&#45;&gt;Node2</title>
<path fill="none" stroke="midnightblue" d="M1308.53,-908.46C1416.34,-896.59 1608,-866.81 1608,-805 1608,-805 1608,-805 1608,-132 1608,-65.56 1528.49,-35.12 1466.86,-21.5"/>
<polygon fill="midnightblue" stroke="midnightblue" points="1467.26,-18.01 1456.75,-19.38 1465.82,-24.86 1467.26,-18.01"/>
</g>
<!-- Node21&#45;&gt;Node5 -->
<g id="edge79" class="edge">
<title>Node21&#45;&gt;Node5</title>
<path fill="none" stroke="midnightblue" d="M1165.45,-907.03C1162.26,-906.68 1159.09,-906.34 1156,-906 1005.81,-889.66 967.53,-891.52 818,-870 669.11,-848.58 152,-899.42 152,-749 152,-749 152,-749 152,-562.5 152,-464.78 38,-472.22 38,-374.5 38,-374.5 38,-374.5 38,-132 38,-30.02 391.55,-13.62 541.76,-11.25"/>
<polygon fill="midnightblue" stroke="midnightblue" points="541.84,-14.75 551.79,-11.11 541.74,-7.75 541.84,-14.75"/>
</g>
<!-- Node21&#45;&gt;Node12 -->
<g id="edge32" class="edge">
<title>Node21&#45;&gt;Node12</title>
<path fill="none" stroke="midnightblue" d="M1305.59,-906.45C1403.08,-892.36 1570,-860.18 1570,-805 1570,-805 1570,-805 1570,-624 1570,-453.38 1495.74,-415.42 1379,-291 1367.56,-278.8 1352.32,-267.93 1339.58,-259.93"/>
<polygon fill="midnightblue" stroke="midnightblue" points="1341.2,-256.82 1330.84,-254.63 1337.58,-262.81 1341.2,-256.82"/>
</g>
<!-- Node22 -->
<g id="node22" class="node">
<title>Node22</title>
<g id="a_node22"><a xlink:href="dma__types_8h.html" target="_top" xlink:title="ODP DMA.">
<polygon fill="white" stroke="black" points="826.5,-850.5 826.5,-869.5 945.5,-869.5 945.5,-850.5 826.5,-850.5"/>
<text text-anchor="middle" x="886" y="-857.5" font-family="Helvetica,sans-Serif" font-size="10.00">odp/api/dma_types.h</text>
</a>
</g>
</g>
<!-- Node21&#45;&gt;Node22 -->
<g id="edge33" class="edge">
<title>Node21&#45;&gt;Node22</title>
<path fill="none" stroke="midnightblue" d="M1181.38,-906.44C1118.87,-896.83 1017.48,-881.23 951.27,-871.04"/>
<polygon fill="midnightblue" stroke="midnightblue" points="951.77,-867.58 941.36,-869.52 950.71,-874.5 951.77,-867.58"/>
</g>
<!-- Node41 -->
<g id="node41" class="node">
<title>Node41</title>
<g id="a_node41"><a xlink:href="ml__types_8h.html" target="_top" xlink:title="ODP Machine Learning (ML) types.">
<polygon fill="white" stroke="black" points="1177,-738.5 1177,-757.5 1287,-757.5 1287,-738.5 1177,-738.5"/>
<text text-anchor="middle" x="1232" y="-745.5" font-family="Helvetica,sans-Serif" font-size="10.00">odp/api/ml_types.h</text>
</a>
</g>
</g>
<!-- Node21&#45;&gt;Node41 -->
<g id="edge71" class="edge">
<title>Node21&#45;&gt;Node41</title>
<path fill="none" stroke="midnightblue" d="M1236.73,-906.08C1235.94,-879.95 1233.63,-803.21 1232.56,-767.58"/>
<polygon fill="midnightblue" stroke="midnightblue" points="1236.06,-767.46 1232.26,-757.57 1229.06,-767.67 1236.06,-767.46"/>
</g>
<!-- Node23 -->
<g id="node23" class="node">
<title>Node23</title>
<g id="a_node23"><a xlink:title=" ">
<polygon fill="white" stroke="#bfbfbf" points="817.5,-794.5 817.5,-813.5 954.5,-813.5 954.5,-794.5 817.5,-794.5"/>
<text text-anchor="middle" x="886" y="-801.5" font-family="Helvetica,sans-Serif" font-size="10.00">odp/api/abi/dma_types.h</text>
</a>
</g>
</g>
<!-- Node22&#45;&gt;Node23 -->
<g id="edge34" class="edge">
<title>Node22&#45;&gt;Node23</title>
<path fill="none" stroke="midnightblue" d="M886,-850.08C886,-843.01 886,-832.86 886,-823.99"/>
<polygon fill="midnightblue" stroke="midnightblue" points="889.5,-823.75 886,-813.75 882.5,-823.75 889.5,-823.75"/>
</g>
<!-- Node24 -->
<g id="node24" class="node">
<title>Node24</title>
<g id="a_node24"><a xlink:href="spec_2dma__types_8h.html" target="_top" xlink:title="ODP DMA.">
<polygon fill="white" stroke="black" points="655,-794.5 655,-813.5 799,-813.5 799,-794.5 655,-794.5"/>
<text text-anchor="middle" x="727" y="-801.5" font-family="Helvetica,sans-Serif" font-size="10.00">odp/api/spec/dma_types.h</text>
</a>
</g>
</g>
<!-- Node22&#45;&gt;Node24 -->
<g id="edge35" class="edge">
<title>Node22&#45;&gt;Node24</title>
<path fill="none" stroke="midnightblue" d="M860.81,-850.44C834.06,-841.36 791.6,-826.94 761.69,-816.78"/>
<polygon fill="midnightblue" stroke="midnightblue" points="762.67,-813.42 752.08,-813.52 760.42,-820.05 762.67,-813.42"/>
</g>
<!-- Node24&#45;&gt;Node2 -->
<g id="edge36" class="edge">
<title>Node24&#45;&gt;Node2</title>
<path fill="none" stroke="midnightblue" d="M799.42,-794.91C802.66,-794.59 805.86,-794.29 809,-794 1025.13,-774.16 1082.55,-797.29 1296,-758 1403.66,-738.18 1532,-796.97 1532,-687.5 1532,-687.5 1532,-687.5 1532,-624 1532,-541.15 1570,-524.35 1570,-441.5 1570,-441.5 1570,-441.5 1570,-132 1570,-94.03 1559.81,-80.72 1531,-56 1511.56,-39.31 1485.71,-28.76 1461.84,-22.11"/>
<polygon fill="midnightblue" stroke="midnightblue" points="1462.67,-18.71 1452.11,-19.58 1460.9,-25.49 1462.67,-18.71"/>
</g>
<!-- Node24&#45;&gt;Node5 -->
<g id="edge70" class="edge">
<title>Node24&#45;&gt;Node5</title>
<path fill="none" stroke="midnightblue" d="M654.75,-801.76C587.06,-798.59 484.01,-788.57 400,-758 296.4,-720.31 190,-736.24 190,-626 190,-626 190,-626 190,-562.5 190,-482.61 161.39,-466.74 143,-389 128.07,-325.89 114,-310.85 114,-246 114,-246 114,-246 114,-132 114,-44.97 406.88,-20.23 541.61,-13.45"/>
<polygon fill="midnightblue" stroke="midnightblue" points="541.99,-16.93 551.81,-12.95 541.66,-9.94 541.99,-16.93"/>
</g>
<!-- Node24&#45;&gt;Node9 -->
<g id="edge37" class="edge">
<title>Node24&#45;&gt;Node9</title>
<path fill="none" stroke="midnightblue" d="M654.76,-795.73C545.29,-782.68 350,-750.56 350,-687.5 350,-687.5 350,-687.5 350,-372.5 350,-334.2 350.46,-289.38 350.76,-264.7"/>
<polygon fill="midnightblue" stroke="midnightblue" points="354.26,-264.63 350.89,-254.59 347.26,-264.55 354.26,-264.63"/>
</g>
<!-- Node24&#45;&gt;Node12 -->
<g id="edge69" class="edge">
<title>Node24&#45;&gt;Node12</title>
<path fill="none" stroke="midnightblue" d="M746.36,-794.44C819.77,-761.72 1079.96,-643.13 1143,-579 1239.23,-481.1 1293.66,-318.41 1309.84,-264.2"/>
<polygon fill="midnightblue" stroke="midnightblue" points="1313.2,-265.18 1312.64,-254.6 1306.48,-263.22 1313.2,-265.18"/>
</g>
<!-- Node25 -->
<g id="node25" class="node">
<title>Node25</title>
<g id="a_node25"><a xlink:href="packet__types_8h.html" target="_top" xlink:title="ODP packet.">
<polygon fill="white" stroke="black" points="550.5,-738.5 550.5,-757.5 679.5,-757.5 679.5,-738.5 550.5,-738.5"/>
<text text-anchor="middle" x="615" y="-745.5" font-family="Helvetica,sans-Serif" font-size="10.00">odp/api/packet_types.h</text>
</a>
</g>
</g>
<!-- Node24&#45;&gt;Node25 -->
<g id="edge38" class="edge">
<title>Node24&#45;&gt;Node25</title>
<path fill="none" stroke="midnightblue" d="M709.01,-794.32C690.96,-785.62 662.95,-772.12 642.2,-762.11"/>
<polygon fill="midnightblue" stroke="midnightblue" points="643.48,-758.84 632.95,-757.65 640.44,-765.15 643.48,-758.84"/>
</g>
<!-- Node24&#45;&gt;Node32 -->
<g id="edge68" class="edge">
<title>Node24&#45;&gt;Node32</title>
<path fill="none" stroke="midnightblue" d="M731.92,-794.38C743.76,-772.42 771.25,-713.11 749,-671 741.58,-656.95 727.58,-646.47 714.38,-639.17"/>
<polygon fill="midnightblue" stroke="midnightblue" points="715.96,-636.04 705.46,-634.62 712.78,-642.28 715.96,-636.04"/>
</g>
<!-- Node26 -->
<g id="node26" class="node">
<title>Node26</title>
<g id="a_node26"><a xlink:title=" ">
<polygon fill="white" stroke="#bfbfbf" points="378,-671.5 378,-701.5 484,-701.5 484,-671.5 378,-671.5"/>
<text text-anchor="start" x="386" y="-689.5" font-family="Helvetica,sans-Serif" font-size="10.00">odp/api/abi/packet</text>
<text text-anchor="middle" x="431" y="-678.5" font-family="Helvetica,sans-Serif" font-size="10.00">_io_types.h</text>
</a>
</g>
</g>
<!-- Node25&#45;&gt;Node26 -->
<g id="edge39" class="edge">
<title>Node25&#45;&gt;Node26</title>
<path fill="none" stroke="midnightblue" d="M588.64,-738.48C561.5,-729.7 518.48,-715.79 484.23,-704.71"/>
<polygon fill="midnightblue" stroke="midnightblue" points="484.96,-701.27 474.37,-701.52 482.8,-707.93 484.96,-701.27"/>
</g>
<!-- Node27 -->
<g id="node27" class="node">
<title>Node27</title>
<g id="a_node27"><a xlink:title=" ">
<polygon fill="white" stroke="#bfbfbf" points="502,-671.5 502,-701.5 608,-701.5 608,-671.5 502,-671.5"/>
<text text-anchor="start" x="510" y="-689.5" font-family="Helvetica,sans-Serif" font-size="10.00">odp/api/abi/packet</text>
<text text-anchor="middle" x="555" y="-678.5" font-family="Helvetica,sans-Serif" font-size="10.00">_types.h</text>
</a>
</g>
</g>
<!-- Node25&#45;&gt;Node27 -->
<g id="edge40" class="edge">
<title>Node25&#45;&gt;Node27</title>
<path fill="none" stroke="midnightblue" d="M606.4,-738.48C598.58,-730.72 586.71,-718.94 576.34,-708.66"/>
<polygon fill="midnightblue" stroke="midnightblue" points="578.71,-706.08 569.14,-701.52 573.78,-711.05 578.71,-706.08"/>
</g>
<!-- Node28 -->
<g id="node28" class="node">
<title>Node28</title>
<g id="a_node28"><a xlink:href="spec_2packet__types_8h.html" target="_top" xlink:title="ODP packet types.">
<polygon fill="white" stroke="black" points="626.5,-671.5 626.5,-701.5 739.5,-701.5 739.5,-671.5 626.5,-671.5"/>
<text text-anchor="start" x="634.5" y="-689.5" font-family="Helvetica,sans-Serif" font-size="10.00">odp/api/spec/packet</text>
<text text-anchor="middle" x="683" y="-678.5" font-family="Helvetica,sans-Serif" font-size="10.00">_types.h</text>
</a>
</g>
</g>
<!-- Node25&#45;&gt;Node28 -->
<g id="edge41" class="edge">
<title>Node25&#45;&gt;Node28</title>
<path fill="none" stroke="midnightblue" d="M624.74,-738.48C633.69,-730.64 647.33,-718.71 659.15,-708.37"/>
<polygon fill="midnightblue" stroke="midnightblue" points="661.75,-710.74 666.97,-701.52 657.14,-705.47 661.75,-710.74"/>
</g>
<!-- Node28&#45;&gt;Node2 -->
<g id="edge42" class="edge">
<title>Node28&#45;&gt;Node2</title>
<path fill="none" stroke="midnightblue" d="M739.95,-676.06C782.91,-667.93 842.81,-654.41 893,-635 1041.38,-577.61 1494,-405.09 1494,-246 1494,-246 1494,-246 1494,-132 1494,-84.47 1447.78,-45.16 1418.82,-25.19"/>
<polygon fill="midnightblue" stroke="midnightblue" points="1420.72,-22.25 1410.46,-19.63 1416.85,-28.08 1420.72,-22.25"/>
</g>
<!-- Node28&#45;&gt;Node3 -->
<g id="edge43" class="edge">
<title>Node28&#45;&gt;Node3</title>
<path fill="none" stroke="midnightblue" d="M716.42,-671.4C739.97,-661.46 771.24,-648.26 793.99,-638.66"/>
<polygon fill="midnightblue" stroke="midnightblue" points="795.63,-641.77 803.48,-634.66 792.91,-635.32 795.63,-641.77"/>
</g>
<!-- Node28&#45;&gt;Node5 -->
<g id="edge67" class="edge">
<title>Node28&#45;&gt;Node5</title>
<path fill="none" stroke="midnightblue" d="M626.4,-672.91C565.92,-659.33 477.76,-639.08 471,-635 424.84,-607.15 312,-482.5 312,-441.5 312,-441.5 312,-441.5 312,-372.5 312,-292.61 275.42,-278.21 265,-199 263.84,-190.19 260.69,-186.77 265,-179 320.87,-78.24 458.91,-36.87 541.84,-20.68"/>
<polygon fill="midnightblue" stroke="midnightblue" points="542.74,-24.07 551.92,-18.78 541.44,-17.19 542.74,-24.07"/>
</g>
<!-- Node29 -->
<g id="node29" class="node">
<title>Node29</title>
<g id="a_node29"><a xlink:href="proto__stats__types_8h.html" target="_top" xlink:title="ODP proto stats types.">
<polygon fill="white" stroke="black" points="589,-358.5 589,-388.5 699,-388.5 699,-358.5 589,-358.5"/>
<text text-anchor="start" x="597" y="-376.5" font-family="Helvetica,sans-Serif" font-size="10.00">odp/api/proto_stats</text>
<text text-anchor="middle" x="644" y="-365.5" font-family="Helvetica,sans-Serif" font-size="10.00">_types.h</text>
</a>
</g>
</g>
<!-- Node28&#45;&gt;Node29 -->
<g id="edge44" class="edge">
<title>Node28&#45;&gt;Node29</title>
<path fill="none" stroke="midnightblue" d="M628.18,-671.49C552.7,-650.56 426,-608.82 426,-564.5 426,-564.5 426,-564.5 426,-501 426,-429.56 514.67,-397.79 578.91,-384.15"/>
<polygon fill="midnightblue" stroke="midnightblue" points="579.88,-387.52 588.99,-382.11 578.49,-380.66 579.88,-387.52"/>
</g>
<!-- Node28&#45;&gt;Node32 -->
<g id="edge50" class="edge">
<title>Node28&#45;&gt;Node32</title>
<path fill="none" stroke="midnightblue" d="M683,-671.4C683,-663.47 683,-653.46 683,-644.86"/>
<polygon fill="midnightblue" stroke="midnightblue" points="686.5,-644.66 683,-634.66 679.5,-644.66 686.5,-644.66"/>
</g>
<!-- Node30 -->
<g id="node30" class="node">
<title>Node30</title>
<g id="a_node30"><a xlink:title=" ">
<polygon fill="white" stroke="#bfbfbf" points="580,-291.5 580,-321.5 708,-321.5 708,-291.5 580,-291.5"/>
<text text-anchor="start" x="588" y="-309.5" font-family="Helvetica,sans-Serif" font-size="10.00">odp/api/abi/proto_stats</text>
<text text-anchor="middle" x="644" y="-298.5" font-family="Helvetica,sans-Serif" font-size="10.00">_types.h</text>
</a>
</g>
</g>
<!-- Node29&#45;&gt;Node30 -->
<g id="edge45" class="edge">
<title>Node29&#45;&gt;Node30</title>
<path fill="none" stroke="midnightblue" d="M644,-358.4C644,-350.64 644,-340.81 644,-331.86"/>
<polygon fill="midnightblue" stroke="midnightblue" points="647.5,-331.58 644,-321.58 640.5,-331.58 647.5,-331.58"/>
</g>
<!-- Node31 -->
<g id="node31" class="node">
<title>Node31</title>
<g id="a_node31"><a xlink:href="spec_2proto__stats__types_8h.html" target="_top" xlink:title="ODP proto stats types.">
<polygon fill="white" stroke="black" points="840.5,-291.5 840.5,-321.5 947.5,-321.5 947.5,-291.5 840.5,-291.5"/>
<text text-anchor="start" x="848.5" y="-309.5" font-family="Helvetica,sans-Serif" font-size="10.00">odp/api/spec/proto</text>
<text text-anchor="middle" x="894" y="-298.5" font-family="Helvetica,sans-Serif" font-size="10.00">_stats_types.h</text>
</a>
</g>
</g>
<!-- Node29&#45;&gt;Node31 -->
<g id="edge46" class="edge">
<title>Node29&#45;&gt;Node31</title>
<path fill="none" stroke="midnightblue" d="M697.94,-358.48C736.79,-348.37 789.36,-334.71 830.29,-324.07"/>
<polygon fill="midnightblue" stroke="midnightblue" points="831.36,-327.4 840.16,-321.5 829.6,-320.63 831.36,-327.4"/>
</g>
<!-- Node31&#45;&gt;Node2 -->
<g id="edge47" class="edge">
<title>Node31&#45;&gt;Node2</title>
<path fill="none" stroke="midnightblue" d="M944.03,-291.43C1001.63,-274.12 1098.07,-241.7 1174,-199 1244.67,-159.26 1256.87,-140.26 1318,-87 1340.58,-67.33 1365.08,-42.9 1380.48,-27.14"/>
<polygon fill="midnightblue" stroke="midnightblue" points="1383.19,-29.37 1387.64,-19.76 1378.16,-24.5 1383.19,-29.37"/>
</g>
<!-- Node31&#45;&gt;Node5 -->
<g id="edge49" class="edge">
<title>Node31&#45;&gt;Node5</title>
<path fill="none" stroke="midnightblue" d="M856.81,-291.37C818.08,-273.95 763,-240.33 763,-190 763,-190 763,-190 763,-132 763,-73.64 693.88,-39.26 647.95,-22.87"/>
<polygon fill="midnightblue" stroke="midnightblue" points="648.85,-19.47 638.25,-19.54 646.58,-26.1 648.85,-19.47"/>
</g>
<!-- Node31&#45;&gt;Node12 -->
<g id="edge48" class="edge">
<title>Node31&#45;&gt;Node12</title>
<path fill="none" stroke="midnightblue" d="M947.54,-292.79C950.73,-292.15 953.91,-291.55 957,-291 1058.11,-273.06 1176.54,-259.64 1248.63,-252.31"/>
<polygon fill="midnightblue" stroke="midnightblue" points="1249.33,-255.76 1258.93,-251.27 1248.63,-248.79 1249.33,-255.76"/>
</g>
<!-- Node33 -->
<g id="node33" class="node">
<title>Node33</title>
<g id="a_node33"><a xlink:title=" ">
<polygon fill="white" stroke="#bfbfbf" points="454.5,-554 454.5,-573 599.5,-573 599.5,-554 454.5,-554"/>
<text text-anchor="middle" x="527" y="-561" font-family="Helvetica,sans-Serif" font-size="10.00">odp/api/abi/queue_types.h</text>
</a>
</g>
</g>
<!-- Node32&#45;&gt;Node33 -->
<g id="edge51" class="edge">
<title>Node32&#45;&gt;Node33</title>
<path fill="none" stroke="midnightblue" d="M660.65,-615.48C634.01,-605.31 589.29,-588.26 558.99,-576.7"/>
<polygon fill="midnightblue" stroke="midnightblue" points="559.9,-573.3 549.31,-573.01 557.41,-579.84 559.9,-573.3"/>
</g>
<!-- Node34 -->
<g id="node34" class="node">
<title>Node34</title>
<g id="a_node34"><a xlink:href="spec_2queue__types_8h.html" target="_top" xlink:title="ODP queue types.">
<polygon fill="white" stroke="black" points="656.5,-548.5 656.5,-578.5 767.5,-578.5 767.5,-548.5 656.5,-548.5"/>
<text text-anchor="start" x="664.5" y="-566.5" font-family="Helvetica,sans-Serif" font-size="10.00">odp/api/spec/queue</text>
<text text-anchor="middle" x="712" y="-555.5" font-family="Helvetica,sans-Serif" font-size="10.00">_types.h</text>
</a>
</g>
</g>
<!-- Node32&#45;&gt;Node34 -->
<g id="edge52" class="edge">
<title>Node32&#45;&gt;Node34</title>
<path fill="none" stroke="midnightblue" d="M687.15,-615.48C690.68,-608.25 695.9,-597.53 700.65,-587.78"/>
<polygon fill="midnightblue" stroke="midnightblue" points="703.93,-589.05 705.17,-578.52 697.64,-585.98 703.93,-589.05"/>
</g>
<!-- Node34&#45;&gt;Node2 -->
<g id="edge53" class="edge">
<title>Node34&#45;&gt;Node2</title>
<path fill="none" stroke="midnightblue" d="M767.51,-556.18C854.25,-544.81 1025.8,-516.23 1159,-456 1232.65,-422.7 1456,-326.83 1456,-246 1456,-246 1456,-246 1456,-132 1456,-91.01 1428.03,-49.59 1410.28,-27.43"/>
<polygon fill="midnightblue" stroke="midnightblue" points="1412.92,-25.13 1403.84,-19.67 1407.54,-29.6 1412.92,-25.13"/>
</g>
<!-- Node34&#45;&gt;Node5 -->
<g id="edge66" class="edge">
<title>Node34&#45;&gt;Node5</title>
<path fill="none" stroke="midnightblue" d="M679.82,-548.34C661.12,-539.33 637.65,-526.62 619,-512 529.12,-441.54 487.22,-428.51 446,-322 424.45,-266.31 445.87,-101.95 484,-56 498.59,-38.42 520.62,-27.71 542.1,-21.19"/>
<polygon fill="midnightblue" stroke="midnightblue" points="543.19,-24.51 551.89,-18.47 541.32,-17.77 543.19,-24.51"/>
</g>
<!-- Node35 -->
<g id="node35" class="node">
<title>Node35</title>
<g id="a_node35"><a xlink:href="schedule__types_8h.html" target="_top" xlink:title="ODP schedule.">
<polygon fill="white" stroke="black" points="628,-492.5 628,-511.5 768,-511.5 768,-492.5 628,-492.5"/>
<text text-anchor="middle" x="698" y="-499.5" font-family="Helvetica,sans-Serif" font-size="10.00">odp/api/schedule_types.h</text>
</a>
</g>
</g>
<!-- Node34&#45;&gt;Node35 -->
<g id="edge54" class="edge">
<title>Node34&#45;&gt;Node35</title>
<path fill="none" stroke="midnightblue" d="M708.68,-548.4C706.79,-540.38 704.41,-530.23 702.37,-521.57"/>
<polygon fill="midnightblue" stroke="midnightblue" points="705.73,-520.59 700.04,-511.66 698.92,-522.19 705.73,-520.59"/>
</g>
<!-- Node36 -->
<g id="node36" class="node">
<title>Node36</title>
<g id="a_node36"><a xlink:title=" ">
<polygon fill="white" stroke="#bfbfbf" points="639.5,-425.5 639.5,-455.5 756.5,-455.5 756.5,-425.5 639.5,-425.5"/>
<text text-anchor="start" x="647.5" y="-443.5" font-family="Helvetica,sans-Serif" font-size="10.00">odp/api/abi/schedule</text>
<text text-anchor="middle" x="698" y="-432.5" font-family="Helvetica,sans-Serif" font-size="10.00">_types.h</text>
</a>
</g>
</g>
<!-- Node35&#45;&gt;Node36 -->
<g id="edge55" class="edge">
<title>Node35&#45;&gt;Node36</title>
<path fill="none" stroke="midnightblue" d="M698,-492.48C698,-485.47 698,-475.19 698,-465.7"/>
<polygon fill="midnightblue" stroke="midnightblue" points="701.5,-465.52 698,-455.52 694.5,-465.52 701.5,-465.52"/>
</g>
<!-- Node37 -->
<g id="node37" class="node">
<title>Node37</title>
<g id="a_node37"><a xlink:href="spec_2schedule__types_8h.html" target="_top" xlink:title="ODP schedule types.">
<polygon fill="white" stroke="black" points="1024.5,-425.5 1024.5,-455.5 1149.5,-455.5 1149.5,-425.5 1024.5,-425.5"/>
<text text-anchor="start" x="1032.5" y="-443.5" font-family="Helvetica,sans-Serif" font-size="10.00">odp/api/spec/schedule</text>
<text text-anchor="middle" x="1087" y="-432.5" font-family="Helvetica,sans-Serif" font-size="10.00">_types.h</text>
</a>
</g>
</g>
<!-- Node35&#45;&gt;Node37 -->
<g id="edge56" class="edge">
<title>Node35&#45;&gt;Node37</title>
<path fill="none" stroke="midnightblue" d="M753.73,-492.48C822.29,-481.99 938.85,-464.16 1014.37,-452.61"/>
<polygon fill="midnightblue" stroke="midnightblue" points="1014.93,-456.07 1024.28,-451.09 1013.87,-449.15 1014.93,-456.07"/>
</g>
<!-- Node37&#45;&gt;Node2 -->
<g id="edge57" class="edge">
<title>Node37&#45;&gt;Node2</title>
<path fill="none" stroke="midnightblue" d="M1127.33,-425.49C1191.17,-401.18 1314.91,-344.99 1380,-255 1430.35,-185.38 1411.09,-73.34 1400.81,-29.47"/>
<polygon fill="midnightblue" stroke="midnightblue" points="1404.18,-28.5 1398.39,-19.63 1397.39,-30.18 1404.18,-28.5"/>
</g>
<!-- Node37&#45;&gt;Node5 -->
<g id="edge65" class="edge">
<title>Node37&#45;&gt;Node5</title>
<path fill="none" stroke="midnightblue" d="M1042.54,-425.34C989.17,-406.98 898.56,-371.36 832,-322 746.53,-258.61 732.37,-231.3 673,-143 671.26,-140.41 634.2,-64.65 616.83,-29.1"/>
<polygon fill="midnightblue" stroke="midnightblue" points="619.85,-27.3 612.32,-19.85 613.56,-30.38 619.85,-27.3"/>
</g>
<!-- Node37&#45;&gt;Node12 -->
<g id="edge58" class="edge">
<title>Node37&#45;&gt;Node12</title>
<path fill="none" stroke="midnightblue" d="M1109.05,-425.43C1140.96,-404.62 1201.2,-363.58 1247,-322 1267.79,-303.12 1288.93,-278.46 1301.99,-262.43"/>
<polygon fill="midnightblue" stroke="midnightblue" points="1304.83,-264.49 1308.37,-254.5 1299.38,-260.1 1304.83,-264.49"/>
</g>
<!-- Node38 -->
<g id="node38" class="node">
<title>Node38</title>
<g id="a_node38"><a xlink:href="thrmask_8h.html" target="_top" xlink:title="ODP thread masks.">
<polygon fill="white" stroke="black" points="1034.5,-364 1034.5,-383 1139.5,-383 1139.5,-364 1034.5,-364"/>
<text text-anchor="middle" x="1087" y="-371" font-family="Helvetica,sans-Serif" font-size="10.00">odp/api/thrmask.h</text>
</a>
</g>
</g>
<!-- Node37&#45;&gt;Node38 -->
<g id="edge59" class="edge">
<title>Node37&#45;&gt;Node38</title>
<path fill="none" stroke="midnightblue" d="M1087,-425.4C1087,-416.06 1087,-403.71 1087,-393.52"/>
<polygon fill="midnightblue" stroke="midnightblue" points="1090.5,-393.19 1087,-383.19 1083.5,-393.19 1090.5,-393.19"/>
</g>
<!-- Node39 -->
<g id="node39" class="node">
<title>Node39</title>
<g id="a_node39"><a xlink:title=" ">
<polygon fill="white" stroke="#bfbfbf" points="965.5,-297 965.5,-316 1088.5,-316 1088.5,-297 965.5,-297"/>
<text text-anchor="middle" x="1027" y="-304" font-family="Helvetica,sans-Serif" font-size="10.00">odp/api/abi/thrmask.h</text>
</a>
</g>
</g>
<!-- Node38&#45;&gt;Node39 -->
<g id="edge60" class="edge">
<title>Node38&#45;&gt;Node39</title>
<path fill="none" stroke="midnightblue" d="M1078.91,-363.73C1069.46,-353.5 1053.64,-336.36 1041.95,-323.69"/>
<polygon fill="midnightblue" stroke="midnightblue" points="1044.32,-321.1 1034.96,-316.13 1039.17,-325.85 1044.32,-321.1"/>
</g>
<!-- Node40 -->
<g id="node40" class="node">
<title>Node40</title>
<g id="a_node40"><a xlink:href="spec_2thrmask_8h.html" target="_top" xlink:title="ODP thread masks.">
<polygon fill="white" stroke="black" points="1106.5,-297 1106.5,-316 1237.5,-316 1237.5,-297 1106.5,-297"/>
<text text-anchor="middle" x="1172" y="-304" font-family="Helvetica,sans-Serif" font-size="10.00">odp/api/spec/thrmask.h</text>
</a>
</g>
</g>
<!-- Node38&#45;&gt;Node40 -->
<g id="edge61" class="edge">
<title>Node38&#45;&gt;Node40</title>
<path fill="none" stroke="midnightblue" d="M1098.46,-363.73C1112.36,-353.11 1135.98,-335.05 1152.69,-322.26"/>
<polygon fill="midnightblue" stroke="midnightblue" points="1154.9,-324.98 1160.72,-316.13 1150.65,-319.42 1154.9,-324.98"/>
</g>
<!-- Node40&#45;&gt;Node2 -->
<g id="edge62" class="edge">
<title>Node40&#45;&gt;Node2</title>
<path fill="none" stroke="midnightblue" d="M1178.45,-296.73C1185.66,-286.78 1197.59,-270 1207,-255 1227.63,-222.13 1220.3,-203.98 1250,-179 1286.47,-148.33 1317.54,-176.93 1351,-143 1381.93,-111.64 1391.63,-58.18 1394.65,-29.88"/>
<polygon fill="midnightblue" stroke="midnightblue" points="1398.15,-30.01 1395.55,-19.73 1391.18,-29.38 1398.15,-30.01"/>
</g>
<!-- Node40&#45;&gt;Node5 -->
<g id="edge64" class="edge">
<title>Node40&#45;&gt;Node5</title>
<path fill="none" stroke="midnightblue" d="M1159.64,-296.91C1109.85,-262.59 918.37,-133.5 746,-56 714.99,-42.06 678.33,-30.31 650.59,-22.32"/>
<polygon fill="midnightblue" stroke="midnightblue" points="651.38,-18.9 640.81,-19.55 649.47,-25.64 651.38,-18.9"/>
</g>
<!-- Node40&#45;&gt;Node12 -->
<g id="edge63" class="edge">
<title>Node40&#45;&gt;Node12</title>
<path fill="none" stroke="midnightblue" d="M1192.49,-296.98C1216.81,-286.86 1257.55,-269.9 1285.32,-258.35"/>
<polygon fill="midnightblue" stroke="midnightblue" points="1286.66,-261.58 1294.55,-254.51 1283.97,-255.12 1286.66,-261.58"/>
</g>
<!-- Node42 -->
<g id="node42" class="node">
<title>Node42</title>
<g id="a_node42"><a xlink:title=" ">
<polygon fill="white" stroke="#bfbfbf" points="1168,-677 1168,-696 1296,-696 1296,-677 1168,-677"/>
<text text-anchor="middle" x="1232" y="-684" font-family="Helvetica,sans-Serif" font-size="10.00">odp/api/abi/ml_types.h</text>
</a>
</g>
</g>
<!-- Node41&#45;&gt;Node42 -->
<g id="edge72" class="edge">
<title>Node41&#45;&gt;Node42</title>
<path fill="none" stroke="midnightblue" d="M1232,-738.48C1232,-730.08 1232,-716.98 1232,-706.16"/>
<polygon fill="midnightblue" stroke="midnightblue" points="1235.5,-706.01 1232,-696.01 1228.5,-706.01 1235.5,-706.01"/>
</g>
<!-- Node43 -->
<g id="node43" class="node">
<title>Node43</title>
<g id="a_node43"><a xlink:href="spec_2ml__types_8h.html" target="_top" xlink:title="ODP Machine Learning (ML) types.">
<polygon fill="white" stroke="black" points="1012.5,-677 1012.5,-696 1147.5,-696 1147.5,-677 1012.5,-677"/>
<text text-anchor="middle" x="1080" y="-684" font-family="Helvetica,sans-Serif" font-size="10.00">odp/api/spec/ml_types.h</text>
</a>
</g>
</g>
<!-- Node41&#45;&gt;Node43 -->
<g id="edge73" class="edge">
<title>Node41&#45;&gt;Node43</title>
<path fill="none" stroke="midnightblue" d="M1210.22,-738.48C1184.26,-728.31 1140.69,-711.26 1111.17,-699.7"/>
<polygon fill="midnightblue" stroke="midnightblue" points="1112.33,-696.4 1101.74,-696.01 1109.77,-702.91 1112.33,-696.4"/>
</g>
<!-- Node43&#45;&gt;Node2 -->
<g id="edge74" class="edge">
<title>Node43&#45;&gt;Node2</title>
<path fill="none" stroke="midnightblue" d="M1123.75,-676.95C1179.76,-665.8 1273.55,-646.37 1307,-635 1362.72,-616.05 1388.2,-623.25 1427,-579 1529.3,-462.31 1532,-401.18 1532,-246 1532,-246 1532,-246 1532,-132 1532,-96.58 1532.08,-81.98 1508,-56 1492.95,-39.75 1471.23,-29.25 1450.92,-22.52"/>
<polygon fill="midnightblue" stroke="midnightblue" points="1451.68,-19.09 1441.09,-19.51 1449.63,-25.79 1451.68,-19.09"/>
</g>
<!-- Node43&#45;&gt;Node5 -->
<g id="edge78" class="edge">
<title>Node43&#45;&gt;Node5</title>
<path fill="none" stroke="midnightblue" d="M1073.58,-676.84C1040.9,-632.72 890.13,-428.14 775,-255 717.3,-168.22 714.89,-138.33 651,-56 643.07,-45.78 633.15,-35.27 624.84,-26.99"/>
<polygon fill="midnightblue" stroke="midnightblue" points="627.08,-24.29 617.48,-19.8 622.19,-29.29 627.08,-24.29"/>
</g>
<!-- Node43&#45;&gt;Node9 -->
<g id="edge75" class="edge">
<title>Node43&#45;&gt;Node9</title>
<path fill="none" stroke="midnightblue" d="M1061.32,-676.92C1028.16,-662.03 956.48,-631.43 893,-615 786.45,-587.43 748.99,-622.74 648,-579 627.68,-570.2 628.97,-557.57 609,-548 543.67,-516.67 512.29,-549.01 450,-512 414.13,-490.69 388,-483.23 388,-441.5 388,-441.5 388,-441.5 388,-372.5 388,-332.44 370.69,-288 359.75,-263.92"/>
<polygon fill="midnightblue" stroke="midnightblue" points="362.81,-262.2 355.39,-254.64 356.48,-265.18 362.81,-262.2"/>
</g>
<!-- Node43&#45;&gt;Node12 -->
<g id="edge77" class="edge">
<title>Node43&#45;&gt;Node12</title>
<path fill="none" stroke="midnightblue" d="M1114.27,-676.97C1200.2,-655.1 1418,-596.52 1418,-564.5 1418,-564.5 1418,-564.5 1418,-439.5 1418,-367.98 1394.43,-351.32 1356,-291 1349.2,-280.33 1339.79,-269.79 1331.7,-261.6"/>
<polygon fill="midnightblue" stroke="midnightblue" points="1334.08,-259.03 1324.48,-254.54 1329.18,-264.04 1334.08,-259.03"/>
</g>
<!-- Node43&#45;&gt;Node32 -->
<g id="edge76" class="edge">
<title>Node43&#45;&gt;Node32</title>
<path fill="none" stroke="midnightblue" d="M1023.12,-676.98C950.89,-666.15 826.47,-647.5 749.8,-636.01"/>
<polygon fill="midnightblue" stroke="midnightblue" points="750.18,-632.53 739.77,-634.51 749.15,-639.45 750.18,-632.53"/>
</g>
</g>
</svg>
