<?xml version="1.0" encoding="UTF-8" standalone="no"?>
<!DOCTYPE svg PUBLIC "-//W3C//DTD SVG 1.1//EN"
 "http://www.w3.org/Graphics/SVG/1.1/DTD/svg11.dtd">
<!-- Generated by graphviz version 2.43.0 (0)
 -->
<!-- Title: comp.h Pages: 1 -->
<svg width="1465pt" height="830pt"
 viewBox="0.00 0.00 1465.00 830.00" xmlns="http://www.w3.org/2000/svg" xmlns:xlink="http://www.w3.org/1999/xlink">
<g id="graph0" class="graph" transform="scale(1 1) rotate(0) translate(4 826)">
<title>comp.h</title>
<!-- Node1 -->
<g id="Node000001" class="node">
<title>Node1</title>
<g id="a_Node000001"><a xlink:title="ODP Compression.">
<polygon fill="#999999" stroke="#666666" points="284.5,-822 231.5,-822 231.5,-803 284.5,-803 284.5,-822"/>
<text text-anchor="middle" x="258" y="-810" font-family="Helvetica,sans-Serif" font-size="10.00">comp.h</text>
</a>
</g>
</g>
<!-- Node2 -->
<g id="Node000002" class="node">
<title>Node2</title>
<g id="a_Node000002"><a xlink:title=" ">
<polygon fill="#e0e0e0" stroke="#999999" points="570.5,-19 449.5,-19 449.5,0 570.5,0 570.5,-19"/>
<text text-anchor="middle" x="510" y="-7" font-family="Helvetica,sans-Serif" font-size="10.00">odp/visibility_begin.h</text>
</a>
</g>
</g>
<!-- Node1&#45;&gt;Node2 -->
<g id="edge1_Node000001_Node000002" class="edge">
<title>Node1&#45;&gt;Node2</title>
<g id="a_edge1_Node000001_Node000002"><a xlink:title=" ">
<path fill="none" stroke="#63b8ff" d="M231.36,-811.72C165.44,-810.75 0,-798.32 0,-698 0,-698 0,-698 0,-129.5 0,-88.86 17.83,-75.36 53,-55 116.89,-18.01 327.55,-11.25 439.16,-10.34"/>
<polygon fill="#63b8ff" stroke="#63b8ff" points="439.34,-13.84 449.32,-10.27 439.29,-6.84 439.34,-13.84"/>
</a>
</g>
</g>
<!-- Node3 -->
<g id="Node000003" class="node">
<title>Node3</title>
<g id="a_Node000003"><a xlink:href="event__types_8h.html" target="_top" xlink:title="ODP event API type definitions.">
<polygon fill="white" stroke="#666666" points="483.5,-266.5 358.5,-266.5 358.5,-247.5 483.5,-247.5 483.5,-266.5"/>
<text text-anchor="middle" x="421" y="-254.5" font-family="Helvetica,sans-Serif" font-size="10.00">odp/api/event_types.h</text>
</a>
</g>
</g>
<!-- Node1&#45;&gt;Node3 -->
<g id="edge2_Node000001_Node000003" class="edge">
<title>Node1&#45;&gt;Node3</title>
<g id="a_edge2_Node000001_Node000003"><a xlink:title=" ">
<path fill="none" stroke="#63b8ff" d="M231.28,-808.26C204.3,-803.63 163.11,-792.63 138,-767 115.28,-743.81 114,-730.47 114,-698 114,-698 114,-698 114,-388 114,-351.46 106.38,-333.04 133,-308 163.32,-279.48 273.03,-266.98 347.94,-261.68"/>
<polygon fill="#63b8ff" stroke="#63b8ff" points="348.53,-265.15 358.27,-260.98 348.05,-258.17 348.53,-265.15"/>
</a>
</g>
</g>
<!-- Node6 -->
<g id="Node000006" class="node">
<title>Node6</title>
<g id="a_Node000006"><a xlink:title=" ">
<polygon fill="#e0e0e0" stroke="#999999" points="1218,-19 1106,-19 1106,0 1218,0 1218,-19"/>
<text text-anchor="middle" x="1162" y="-7" font-family="Helvetica,sans-Serif" font-size="10.00">odp/visibility_end.h</text>
</a>
</g>
</g>
<!-- Node1&#45;&gt;Node6 -->
<g id="edge64_Node000001_Node000006" class="edge">
<title>Node1&#45;&gt;Node6</title>
<g id="a_edge64_Node000001_Node000006"><a xlink:title=" ">
<path fill="none" stroke="#63b8ff" d="M284.72,-810.41C461.63,-803.06 1457,-758.96 1457,-698 1457,-698 1457,-698 1457,-129.5 1457,-88.86 1438.27,-76.83 1404,-55 1375.46,-36.82 1289.56,-24.1 1228.23,-17.04"/>
<polygon fill="#63b8ff" stroke="#63b8ff" points="1228.55,-13.56 1218.23,-15.92 1227.77,-20.51 1228.55,-13.56"/>
</a>
</g>
</g>
<!-- Node7 -->
<g id="Node000007" class="node">
<title>Node7</title>
<g id="a_Node000007"><a xlink:href="packet__types_8h.html" target="_top" xlink:title="ODP packet.">
<polygon fill="white" stroke="#666666" points="376.5,-767 247.5,-767 247.5,-748 376.5,-748 376.5,-767"/>
<text text-anchor="middle" x="312" y="-755" font-family="Helvetica,sans-Serif" font-size="10.00">odp/api/packet_types.h</text>
</a>
</g>
</g>
<!-- Node1&#45;&gt;Node7 -->
<g id="edge7_Node000001_Node000007" class="edge">
<title>Node1&#45;&gt;Node7</title>
<g id="a_edge7_Node000001_Node000007"><a xlink:title=" ">
<path fill="none" stroke="#63b8ff" d="M266.92,-802.75C274.78,-795.03 286.43,-783.6 295.92,-774.28"/>
<polygon fill="#63b8ff" stroke="#63b8ff" points="298.56,-776.59 303.25,-767.09 293.66,-771.6 298.56,-776.59"/>
</a>
</g>
</g>
<!-- Node14 -->
<g id="Node000014" class="node">
<title>Node14</title>
<g id="a_Node000014"><a xlink:href="std__types_8h.html" target="_top" xlink:title="Standard C language types and definitions for ODP.">
<polygon fill="white" stroke="#666666" points="843,-266.5 731,-266.5 731,-247.5 843,-247.5 843,-266.5"/>
<text text-anchor="middle" x="787" y="-254.5" font-family="Helvetica,sans-Serif" font-size="10.00">odp/api/std_types.h</text>
</a>
</g>
</g>
<!-- Node1&#45;&gt;Node14 -->
<g id="edge63_Node000001_Node000014" class="edge">
<title>Node1&#45;&gt;Node14</title>
<g id="a_edge63_Node000001_Node000014"><a xlink:title=" ">
<path fill="none" stroke="#63b8ff" d="M240.5,-802.97C210.39,-786.93 152,-749.23 152,-698 152,-698 152,-698 152,-635.5 152,-628.2 438.6,-329.99 482,-308 557.76,-269.61 656.43,-259.58 720.72,-257.51"/>
<polygon fill="#63b8ff" stroke="#63b8ff" points="720.83,-261.01 730.74,-257.25 720.65,-254.01 720.83,-261.01"/>
</a>
</g>
</g>
<!-- Node21 -->
<g id="Node000021" class="node">
<title>Node21</title>
<g id="a_Node000021"><a xlink:href="queue__types_8h.html" target="_top" xlink:title="ODP queue.">
<polygon fill="white" stroke="#666666" points="1289.5,-646 1162.5,-646 1162.5,-627 1289.5,-627 1289.5,-646"/>
<text text-anchor="middle" x="1226" y="-634" font-family="Helvetica,sans-Serif" font-size="10.00">odp/api/queue_types.h</text>
</a>
</g>
</g>
<!-- Node1&#45;&gt;Node21 -->
<g id="edge62_Node000001_Node000021" class="edge">
<title>Node1&#45;&gt;Node21</title>
<g id="a_edge62_Node000001_Node000021"><a xlink:title=" ">
<path fill="none" stroke="#63b8ff" d="M284.65,-806.71C414.81,-783.31 984.94,-680.83 1168.7,-647.8"/>
<polygon fill="#63b8ff" stroke="#63b8ff" points="1169.48,-651.22 1178.7,-646 1168.24,-644.33 1169.48,-651.22"/>
</a>
</g>
</g>
<!-- Node4 -->
<g id="Node000004" class="node">
<title>Node4</title>
<g id="a_Node000004"><a xlink:title=" ">
<polygon fill="#e0e0e0" stroke="#999999" points="469.5,-200.5 326.5,-200.5 326.5,-181.5 469.5,-181.5 469.5,-200.5"/>
<text text-anchor="middle" x="398" y="-188.5" font-family="Helvetica,sans-Serif" font-size="10.00">odp/api/abi/event_types.h</text>
</a>
</g>
</g>
<!-- Node3&#45;&gt;Node4 -->
<g id="edge3_Node000003_Node000004" class="edge">
<title>Node3&#45;&gt;Node4</title>
<g id="a_edge3_Node000003_Node000004"><a xlink:title=" ">
<path fill="none" stroke="#63b8ff" d="M417.9,-247.37C414.52,-237.97 409.02,-222.67 404.66,-210.53"/>
<polygon fill="#63b8ff" stroke="#63b8ff" points="407.88,-209.13 401.2,-200.91 401.29,-211.5 407.88,-209.13"/>
</a>
</g>
</g>
<!-- Node5 -->
<g id="Node000005" class="node">
<title>Node5</title>
<g id="a_Node000005"><a xlink:href="spec_2event__types_8h.html" target="_top" xlink:title="ODP event API type definitions.">
<polygon fill="white" stroke="#666666" points="723.5,-85 614.5,-85 614.5,-55 723.5,-55 723.5,-85"/>
<text text-anchor="start" x="622.5" y="-73" font-family="Helvetica,sans-Serif" font-size="10.00">odp/api/spec/event</text>
<text text-anchor="middle" x="669" y="-62" font-family="Helvetica,sans-Serif" font-size="10.00">_types.h</text>
</a>
</g>
</g>
<!-- Node3&#45;&gt;Node5 -->
<g id="edge4_Node000003_Node000005" class="edge">
<title>Node3&#45;&gt;Node5</title>
<g id="a_edge4_Node000003_Node000005"><a xlink:title=" ">
<path fill="none" stroke="#63b8ff" d="M431.48,-247.42C449.68,-232.58 488.4,-201.28 522,-176 562.37,-145.62 610.15,-111.9 640.02,-91.07"/>
<polygon fill="#63b8ff" stroke="#63b8ff" points="642.11,-93.88 648.32,-85.29 638.11,-88.13 642.11,-93.88"/>
</a>
</g>
</g>
<!-- Node5&#45;&gt;Node2 -->
<g id="edge5_Node000005_Node000002" class="edge">
<title>Node5&#45;&gt;Node2</title>
<g id="a_edge5_Node000005_Node000002"><a xlink:title=" ">
<path fill="none" stroke="#63b8ff" d="M630.92,-54.99C604.15,-45.14 568.7,-32.1 543.11,-22.68"/>
<polygon fill="#63b8ff" stroke="#63b8ff" points="544.07,-19.31 533.48,-19.14 541.66,-25.88 544.07,-19.31"/>
</a>
</g>
</g>
<!-- Node5&#45;&gt;Node6 -->
<g id="edge6_Node000005_Node000006" class="edge">
<title>Node5&#45;&gt;Node6</title>
<g id="a_edge6_Node000005_Node000006"><a xlink:title=" ">
<path fill="none" stroke="#63b8ff" d="M723.76,-61.25C739.04,-59.15 755.66,-56.93 771,-55 885.02,-40.69 1018,-25.97 1095.8,-17.56"/>
<polygon fill="#63b8ff" stroke="#63b8ff" points="1096.38,-21.02 1105.94,-16.47 1095.63,-14.06 1096.38,-21.02"/>
</a>
</g>
</g>
<!-- Node8 -->
<g id="Node000008" class="node">
<title>Node8</title>
<g id="a_Node000008"><a xlink:title=" ">
<polygon fill="#e0e0e0" stroke="#999999" points="418,-712 312,-712 312,-682 418,-682 418,-712"/>
<text text-anchor="start" x="320" y="-700" font-family="Helvetica,sans-Serif" font-size="10.00">odp/api/abi/packet</text>
<text text-anchor="middle" x="365" y="-689" font-family="Helvetica,sans-Serif" font-size="10.00">_io_types.h</text>
</a>
</g>
</g>
<!-- Node7&#45;&gt;Node8 -->
<g id="edge8_Node000007_Node000008" class="edge">
<title>Node7&#45;&gt;Node8</title>
<g id="a_edge8_Node000007_Node000008"><a xlink:title=" ">
<path fill="none" stroke="#63b8ff" d="M319.82,-747.87C326.55,-740.44 336.54,-729.42 345.41,-719.62"/>
<polygon fill="#63b8ff" stroke="#63b8ff" points="348.09,-721.88 352.21,-712.11 342.9,-717.18 348.09,-721.88"/>
</a>
</g>
</g>
<!-- Node9 -->
<g id="Node000009" class="node">
<title>Node9</title>
<g id="a_Node000009"><a xlink:title=" ">
<polygon fill="#e0e0e0" stroke="#999999" points="542,-712 436,-712 436,-682 542,-682 542,-712"/>
<text text-anchor="start" x="444" y="-700" font-family="Helvetica,sans-Serif" font-size="10.00">odp/api/abi/packet</text>
<text text-anchor="middle" x="489" y="-689" font-family="Helvetica,sans-Serif" font-size="10.00">_types.h</text>
</a>
</g>
</g>
<!-- Node7&#45;&gt;Node9 -->
<g id="edge9_Node000007_Node000009" class="edge">
<title>Node7&#45;&gt;Node9</title>
<g id="a_edge9_Node000007_Node000009"><a xlink:title=" ">
<path fill="none" stroke="#63b8ff" d="M337.74,-747.99C363.54,-739.46 404.02,-726.09 436.61,-715.32"/>
<polygon fill="#63b8ff" stroke="#63b8ff" points="438.05,-718.53 446.45,-712.06 435.85,-711.88 438.05,-718.53"/>
</a>
</g>
</g>
<!-- Node10 -->
<g id="Node000010" class="node">
<title>Node10</title>
<g id="a_Node000010"><a xlink:href="spec_2packet__types_8h.html" target="_top" xlink:title="ODP packet types.">
<polygon fill="white" stroke="#666666" points="293.5,-712 180.5,-712 180.5,-682 293.5,-682 293.5,-712"/>
<text text-anchor="start" x="188.5" y="-700" font-family="Helvetica,sans-Serif" font-size="10.00">odp/api/spec/packet</text>
<text text-anchor="middle" x="237" y="-689" font-family="Helvetica,sans-Serif" font-size="10.00">_types.h</text>
</a>
</g>
</g>
<!-- Node7&#45;&gt;Node10 -->
<g id="edge10_Node000007_Node000010" class="edge">
<title>Node7&#45;&gt;Node10</title>
<g id="a_edge10_Node000007_Node000010"><a xlink:title=" ">
<path fill="none" stroke="#63b8ff" d="M300.93,-747.87C291.04,-740.15 276.15,-728.54 263.23,-718.46"/>
<polygon fill="#63b8ff" stroke="#63b8ff" points="265.13,-715.51 255.1,-712.11 260.83,-721.02 265.13,-715.51"/>
</a>
</g>
</g>
<!-- Node10&#45;&gt;Node2 -->
<g id="edge11_Node000010_Node000002" class="edge">
<title>Node10&#45;&gt;Node2</title>
<g id="a_edge11_Node000010_Node000002"><a xlink:title=" ">
<path fill="none" stroke="#63b8ff" d="M222.69,-681.9C177.06,-635.38 38,-480.74 38,-324 38,-324 38,-324 38,-129.5 38,-83.45 68.67,-75.3 110,-55 166.25,-27.36 340.1,-16.61 439.11,-12.65"/>
<polygon fill="#63b8ff" stroke="#63b8ff" points="439.47,-16.13 449.33,-12.25 439.2,-9.14 439.47,-16.13"/>
</a>
</g>
</g>
<!-- Node10&#45;&gt;Node6 -->
<g id="edge61_Node000010_Node000006" class="edge">
<title>Node10&#45;&gt;Node6</title>
<g id="a_edge61_Node000010_Node000006"><a xlink:title=" ">
<path fill="none" stroke="#63b8ff" d="M293.82,-683.6C296.92,-683.03 299.99,-682.49 303,-682 647.86,-625.46 746.33,-680.99 1084,-591 1116.71,-582.28 1122.21,-572.62 1154,-561 1272.98,-517.5 1419,-582.69 1419,-456 1419,-456 1419,-456 1419,-129.5 1419,-45.39 1304.24,-20.55 1228.09,-13.33"/>
<polygon fill="#63b8ff" stroke="#63b8ff" points="1228.35,-9.84 1218.08,-12.46 1227.74,-16.81 1228.35,-9.84"/>
</a>
</g>
</g>
<!-- Node11 -->
<g id="Node000011" class="node">
<title>Node11</title>
<g id="a_Node000011"><a xlink:href="proto__stats__types_8h.html" target="_top" xlink:title="ODP proto stats types.">
<polygon fill="white" stroke="#666666" points="270,-404 160,-404 160,-374 270,-374 270,-404"/>
<text text-anchor="start" x="168" y="-392" font-family="Helvetica,sans-Serif" font-size="10.00">odp/api/proto_stats</text>
<text text-anchor="middle" x="215" y="-381" font-family="Helvetica,sans-Serif" font-size="10.00">_types.h</text>
</a>
</g>
</g>
<!-- Node10&#45;&gt;Node11 -->
<g id="edge12_Node000010_Node000011" class="edge">
<title>Node10&#45;&gt;Node11</title>
<g id="a_edge12_Node000010_Node000011"><a xlink:title=" ">
<path fill="none" stroke="#63b8ff" d="M235.22,-681.74C232.6,-659.43 228,-614.92 228,-577 228,-577 228,-577 228,-514.5 228,-479.48 222.85,-439.21 219.03,-414.18"/>
<polygon fill="#63b8ff" stroke="#63b8ff" points="222.46,-413.47 217.45,-404.14 215.55,-414.56 222.46,-413.47"/>
</a>
</g>
</g>
<!-- Node10&#45;&gt;Node21 -->
<g id="edge28_Node000010_Node000021" class="edge">
<title>Node10&#45;&gt;Node21</title>
<g id="a_edge28_Node000010_Node000021"><a xlink:title=" ">
<path fill="none" stroke="#63b8ff" d="M293.78,-683.33C296.89,-682.83 299.98,-682.38 303,-682 675.93,-634.84 773.18,-674.38 1148,-646 1149.3,-645.9 1150.61,-645.8 1151.93,-645.69"/>
<polygon fill="#63b8ff" stroke="#63b8ff" points="1152.52,-649.15 1162.18,-644.8 1151.92,-642.18 1152.52,-649.15"/>
</a>
</g>
</g>
<!-- Node12 -->
<g id="Node000012" class="node">
<title>Node12</title>
<g id="a_Node000012"><a xlink:title=" ">
<polygon fill="#e0e0e0" stroke="#999999" points="270,-338 142,-338 142,-308 270,-308 270,-338"/>
<text text-anchor="start" x="150" y="-326" font-family="Helvetica,sans-Serif" font-size="10.00">odp/api/abi/proto_stats</text>
<text text-anchor="middle" x="206" y="-315" font-family="Helvetica,sans-Serif" font-size="10.00">_types.h</text>
</a>
</g>
</g>
<!-- Node11&#45;&gt;Node12 -->
<g id="edge13_Node000011_Node000012" class="edge">
<title>Node11&#45;&gt;Node12</title>
<g id="a_edge13_Node000011_Node000012"><a xlink:title=" ">
<path fill="none" stroke="#63b8ff" d="M213,-373.8C211.94,-366.26 210.61,-356.78 209.39,-348.13"/>
<polygon fill="#63b8ff" stroke="#63b8ff" points="212.85,-347.58 207.99,-338.16 205.92,-348.55 212.85,-347.58"/>
</a>
</g>
</g>
<!-- Node13 -->
<g id="Node000013" class="node">
<title>Node13</title>
<g id="a_Node000013"><a xlink:href="spec_2proto__stats__types_8h.html" target="_top" xlink:title="ODP proto stats types.">
<polygon fill="white" stroke="#666666" points="433.5,-338 326.5,-338 326.5,-308 433.5,-308 433.5,-338"/>
<text text-anchor="start" x="334.5" y="-326" font-family="Helvetica,sans-Serif" font-size="10.00">odp/api/spec/proto</text>
<text text-anchor="middle" x="380" y="-315" font-family="Helvetica,sans-Serif" font-size="10.00">_stats_types.h</text>
</a>
</g>
</g>
<!-- Node11&#45;&gt;Node13 -->
<g id="edge14_Node000011_Node000013" class="edge">
<title>Node11&#45;&gt;Node13</title>
<g id="a_edge14_Node000011_Node000013"><a xlink:title=" ">
<path fill="none" stroke="#63b8ff" d="M251.21,-373.95C275.71,-364.45 308.27,-351.82 334.52,-341.64"/>
<polygon fill="#63b8ff" stroke="#63b8ff" points="335.82,-344.89 343.87,-338.01 333.29,-338.37 335.82,-344.89"/>
</a>
</g>
</g>
<!-- Node13&#45;&gt;Node2 -->
<g id="edge15_Node000013_Node000002" class="edge">
<title>Node13&#45;&gt;Node2</title>
<g id="a_edge15_Node000013_Node000002"><a xlink:title=" ">
<path fill="none" stroke="#63b8ff" d="M352.47,-307.86C317.04,-287.47 260,-246.21 260,-192 260,-192 260,-192 260,-129.5 260,-94.71 258,-78.11 284,-55 306.66,-34.85 381.78,-22.96 439.25,-16.61"/>
<polygon fill="#63b8ff" stroke="#63b8ff" points="439.83,-20.07 449.4,-15.53 439.08,-13.11 439.83,-20.07"/>
</a>
</g>
</g>
<!-- Node13&#45;&gt;Node6 -->
<g id="edge27_Node000013_Node000006" class="edge">
<title>Node13&#45;&gt;Node6</title>
<g id="a_edge27_Node000013_Node000006"><a xlink:title=" ">
<path fill="none" stroke="#63b8ff" d="M411.91,-307.88C494.67,-271.26 709.76,-176.08 710,-176 788.2,-151.26 812.35,-163.28 891,-140 954.31,-121.26 973.01,-119.99 1029,-85 1045.81,-74.5 1045.4,-65.83 1062,-55 1082.42,-41.67 1107.49,-30.53 1127.43,-22.72"/>
<polygon fill="#63b8ff" stroke="#63b8ff" points="1128.94,-25.89 1137.04,-19.06 1126.45,-19.35 1128.94,-25.89"/>
</a>
</g>
</g>
<!-- Node13&#45;&gt;Node14 -->
<g id="edge16_Node000013_Node000014" class="edge">
<title>Node13&#45;&gt;Node14</title>
<g id="a_edge16_Node000013_Node000014"><a xlink:title=" ">
<path fill="none" stroke="#63b8ff" d="M433.77,-310.64C438.57,-309.71 443.37,-308.82 448,-308 542.31,-291.35 652.07,-275.87 720.55,-266.67"/>
<polygon fill="#63b8ff" stroke="#63b8ff" points="721.31,-270.1 730.76,-265.3 720.38,-263.16 721.31,-270.1"/>
</a>
</g>
</g>
<!-- Node15 -->
<g id="Node000015" class="node">
<title>Node15</title>
<g id="a_Node000015"><a xlink:title=" ">
<polygon fill="#e0e0e0" stroke="#999999" points="1004,-200.5 874,-200.5 874,-181.5 1004,-181.5 1004,-200.5"/>
<text text-anchor="middle" x="939" y="-188.5" font-family="Helvetica,sans-Serif" font-size="10.00">odp/api/abi/std_types.h</text>
</a>
</g>
</g>
<!-- Node14&#45;&gt;Node15 -->
<g id="edge17_Node000014_Node000015" class="edge">
<title>Node14&#45;&gt;Node15</title>
<g id="a_edge17_Node000014_Node000015"><a xlink:title=" ">
<path fill="none" stroke="#63b8ff" d="M807.5,-247.37C833.56,-236.39 878.78,-217.36 908.79,-204.72"/>
<polygon fill="#63b8ff" stroke="#63b8ff" points="910.48,-207.81 918.34,-200.7 907.77,-201.35 910.48,-207.81"/>
</a>
</g>
</g>
<!-- Node16 -->
<g id="Node000016" class="node">
<title>Node16</title>
<g id="a_Node000016"><a xlink:href="spec_2std__types_8h.html" target="_top" xlink:title="Common types and definitions for ODP API files.">
<polygon fill="white" stroke="#666666" points="855.5,-200.5 718.5,-200.5 718.5,-181.5 855.5,-181.5 855.5,-200.5"/>
<text text-anchor="middle" x="787" y="-188.5" font-family="Helvetica,sans-Serif" font-size="10.00">odp/api/spec/std_types.h</text>
</a>
</g>
</g>
<!-- Node14&#45;&gt;Node16 -->
<g id="edge18_Node000014_Node000016" class="edge">
<title>Node14&#45;&gt;Node16</title>
<g id="a_edge18_Node000014_Node000016"><a xlink:title=" ">
<path fill="none" stroke="#63b8ff" d="M787,-247.37C787,-238.16 787,-223.29 787,-211.27"/>
<polygon fill="#63b8ff" stroke="#63b8ff" points="790.5,-210.91 787,-200.91 783.5,-210.91 790.5,-210.91"/>
</a>
</g>
</g>
<!-- Node16&#45;&gt;Node2 -->
<g id="edge19_Node000016_Node000002" class="edge">
<title>Node16&#45;&gt;Node2</title>
<g id="a_edge19_Node000016_Node000002"><a xlink:title=" ">
<path fill="none" stroke="#63b8ff" d="M770.58,-181.44C738.26,-164.37 664.45,-124.38 606,-85 577.63,-65.89 546.68,-41.09 527.8,-25.49"/>
<polygon fill="#63b8ff" stroke="#63b8ff" points="529.96,-22.73 520.03,-19.02 525.48,-28.1 529.96,-22.73"/>
</a>
</g>
</g>
<!-- Node16&#45;&gt;Node6 -->
<g id="edge26_Node000016_Node000006" class="edge">
<title>Node16&#45;&gt;Node6</title>
<g id="a_edge26_Node000016_Node000006"><a xlink:title=" ">
<path fill="none" stroke="#63b8ff" d="M823.52,-181.47C858.43,-172.81 912.22,-158.11 957,-140 1005.84,-120.25 1017.4,-113.05 1062,-85 1091.85,-66.23 1124.2,-41.18 1143.79,-25.44"/>
<polygon fill="#63b8ff" stroke="#63b8ff" points="1146.02,-28.14 1151.59,-19.12 1141.62,-22.7 1146.02,-28.14"/>
</a>
</g>
</g>
<!-- Node17 -->
<g id="Node000017" class="node">
<title>Node17</title>
<g id="a_Node000017"><a xlink:title=" ">
<polygon fill="#e0e0e0" stroke="#999999" points="1095.5,-140 1042.5,-140 1042.5,-121 1095.5,-121 1095.5,-140"/>
<text text-anchor="middle" x="1069" y="-128" font-family="Helvetica,sans-Serif" font-size="10.00">stdint.h</text>
</a>
</g>
</g>
<!-- Node16&#45;&gt;Node17 -->
<g id="edge20_Node000016_Node000017" class="edge">
<title>Node16&#45;&gt;Node17</title>
<g id="a_edge20_Node000016_Node000017"><a xlink:title=" ">
<path fill="none" stroke="#63b8ff" d="M828.01,-181.49C883,-170.09 979.8,-150 1032.43,-139.09"/>
<polygon fill="#63b8ff" stroke="#63b8ff" points="1033.26,-142.49 1042.34,-137.03 1031.84,-135.63 1033.26,-142.49"/>
</a>
</g>
</g>
<!-- Node18 -->
<g id="Node000018" class="node">
<title>Node18</title>
<g id="a_Node000018"><a xlink:href="align_8h.html" target="_top" xlink:title="ODP alignments.">
<polygon fill="white" stroke="#666666" points="881.5,-140 792.5,-140 792.5,-121 881.5,-121 881.5,-140"/>
<text text-anchor="middle" x="837" y="-128" font-family="Helvetica,sans-Serif" font-size="10.00">odp/api/align.h</text>
</a>
</g>
</g>
<!-- Node16&#45;&gt;Node18 -->
<g id="edge21_Node000016_Node000018" class="edge">
<title>Node16&#45;&gt;Node18</title>
<g id="a_edge21_Node000016_Node000018"><a xlink:title=" ">
<path fill="none" stroke="#63b8ff" d="M794.38,-181.37C801.91,-172.55 813.79,-158.66 823.09,-147.77"/>
<polygon fill="#63b8ff" stroke="#63b8ff" points="825.76,-150.04 829.59,-140.17 820.43,-145.5 825.76,-150.04"/>
</a>
</g>
</g>
<!-- Node19 -->
<g id="Node000019" class="node">
<title>Node19</title>
<g id="a_Node000019"><a xlink:title=" ">
<polygon fill="#e0e0e0" stroke="#999999" points="1019.5,-79.5 912.5,-79.5 912.5,-60.5 1019.5,-60.5 1019.5,-79.5"/>
<text text-anchor="middle" x="966" y="-67.5" font-family="Helvetica,sans-Serif" font-size="10.00">odp/api/abi/align.h</text>
</a>
</g>
</g>
<!-- Node18&#45;&gt;Node19 -->
<g id="edge22_Node000018_Node000019" class="edge">
<title>Node18&#45;&gt;Node19</title>
<g id="a_edge22_Node000018_Node000019"><a xlink:title=" ">
<path fill="none" stroke="#63b8ff" d="M855.76,-120.99C877.35,-111.2 913.03,-95.02 937.93,-83.73"/>
<polygon fill="#63b8ff" stroke="#63b8ff" points="939.56,-86.83 947.22,-79.52 936.67,-80.46 939.56,-86.83"/>
</a>
</g>
</g>
<!-- Node20 -->
<g id="Node000020" class="node">
<title>Node20</title>
<g id="a_Node000020"><a xlink:href="spec_2align_8h.html" target="_top" xlink:title="ODP alignments.">
<polygon fill="white" stroke="#666666" points="894,-79.5 780,-79.5 780,-60.5 894,-60.5 894,-79.5"/>
<text text-anchor="middle" x="837" y="-67.5" font-family="Helvetica,sans-Serif" font-size="10.00">odp/api/spec/align.h</text>
</a>
</g>
</g>
<!-- Node18&#45;&gt;Node20 -->
<g id="edge23_Node000018_Node000020" class="edge">
<title>Node18&#45;&gt;Node20</title>
<g id="a_edge23_Node000018_Node000020"><a xlink:title=" ">
<path fill="none" stroke="#63b8ff" d="M837,-120.87C837,-112.75 837,-100.31 837,-89.89"/>
<polygon fill="#63b8ff" stroke="#63b8ff" points="840.5,-89.67 837,-79.67 833.5,-89.67 840.5,-89.67"/>
</a>
</g>
</g>
<!-- Node20&#45;&gt;Node2 -->
<g id="edge24_Node000020_Node000002" class="edge">
<title>Node20&#45;&gt;Node2</title>
<g id="a_edge24_Node000020_Node000002"><a xlink:title=" ">
<path fill="none" stroke="#63b8ff" d="M794.61,-60.48C785.19,-58.63 775.26,-56.72 766,-55 699.47,-42.66 623.01,-29.5 571.1,-20.72"/>
<polygon fill="#63b8ff" stroke="#63b8ff" points="571.5,-17.24 561.06,-19.03 570.34,-24.14 571.5,-17.24"/>
</a>
</g>
</g>
<!-- Node20&#45;&gt;Node6 -->
<g id="edge25_Node000020_Node000006" class="edge">
<title>Node20&#45;&gt;Node6</title>
<g id="a_edge25_Node000020_Node000006"><a xlink:title=" ">
<path fill="none" stroke="#63b8ff" d="M876.63,-60.48C885.62,-58.61 895.13,-56.69 904,-55 970.35,-42.35 1046.6,-29.39 1098.9,-20.75"/>
<polygon fill="#63b8ff" stroke="#63b8ff" points="1099.73,-24.16 1109.03,-19.08 1098.59,-17.25 1099.73,-24.16"/>
</a>
</g>
</g>
<!-- Node22 -->
<g id="Node000022" class="node">
<title>Node22</title>
<g id="a_Node000022"><a xlink:title=" ">
<polygon fill="#e0e0e0" stroke="#999999" points="1307.5,-585.5 1162.5,-585.5 1162.5,-566.5 1307.5,-566.5 1307.5,-585.5"/>
<text text-anchor="middle" x="1235" y="-573.5" font-family="Helvetica,sans-Serif" font-size="10.00">odp/api/abi/queue_types.h</text>
</a>
</g>
</g>
<!-- Node21&#45;&gt;Node22 -->
<g id="edge29_Node000021_Node000022" class="edge">
<title>Node21&#45;&gt;Node22</title>
<g id="a_edge29_Node000021_Node000022"><a xlink:title=" ">
<path fill="none" stroke="#63b8ff" d="M1227.33,-626.87C1228.59,-618.66 1230.53,-606.04 1232.15,-595.55"/>
<polygon fill="#63b8ff" stroke="#63b8ff" points="1235.61,-596.08 1233.67,-585.67 1228.69,-595.02 1235.61,-596.08"/>
</a>
</g>
</g>
<!-- Node23 -->
<g id="Node000023" class="node">
<title>Node23</title>
<g id="a_Node000023"><a xlink:href="spec_2queue__types_8h.html" target="_top" xlink:title="ODP queue types.">
<polygon fill="white" stroke="#666666" points="1074.5,-591 963.5,-591 963.5,-561 1074.5,-561 1074.5,-591"/>
<text text-anchor="start" x="971.5" y="-579" font-family="Helvetica,sans-Serif" font-size="10.00">odp/api/spec/queue</text>
<text text-anchor="middle" x="1019" y="-568" font-family="Helvetica,sans-Serif" font-size="10.00">_types.h</text>
</a>
</g>
</g>
<!-- Node21&#45;&gt;Node23 -->
<g id="edge30_Node000021_Node000023" class="edge">
<title>Node21&#45;&gt;Node23</title>
<g id="a_edge30_Node000021_Node000023"><a xlink:title=" ">
<path fill="none" stroke="#63b8ff" d="M1195.9,-626.99C1165.33,-618.35 1117.16,-604.74 1078.8,-593.9"/>
<polygon fill="#63b8ff" stroke="#63b8ff" points="1079.34,-590.42 1068.77,-591.06 1077.44,-597.15 1079.34,-590.42"/>
</a>
</g>
</g>
<!-- Node23&#45;&gt;Node2 -->
<g id="edge31_Node000023_Node000002" class="edge">
<title>Node23&#45;&gt;Node2</title>
<g id="a_edge31_Node000023_Node000002"><a xlink:title=" ">
<path fill="none" stroke="#63b8ff" d="M963.18,-572.28C760.61,-560.9 76,-508.77 76,-324 76,-324 76,-324 76,-129.5 76,-55.12 316.07,-25.56 439.11,-15.29"/>
<polygon fill="#63b8ff" stroke="#63b8ff" points="439.51,-18.76 449.2,-14.46 438.95,-11.79 439.51,-18.76"/>
</a>
</g>
</g>
<!-- Node23&#45;&gt;Node6 -->
<g id="edge60_Node000023_Node000006" class="edge">
<title>Node23&#45;&gt;Node6</title>
<g id="a_edge60_Node000023_Node000006"><a xlink:title=" ">
<path fill="none" stroke="#63b8ff" d="M1074.77,-562.54C1176.31,-539.08 1381,-487.84 1381,-456 1381,-456 1381,-456 1381,-129.5 1381,-59.16 1292.7,-30.17 1228.24,-18.38"/>
<polygon fill="#63b8ff" stroke="#63b8ff" points="1228.56,-14.88 1218.11,-16.63 1227.37,-21.78 1228.56,-14.88"/>
</a>
</g>
</g>
<!-- Node24 -->
<g id="Node000024" class="node">
<title>Node24</title>
<g id="a_Node000024"><a xlink:href="event__vector__types_8h.html" target="_top" xlink:title="ODP event vector API type definitions.">
<polygon fill="white" stroke="#666666" points="900.5,-404 781.5,-404 781.5,-374 900.5,-374 900.5,-404"/>
<text text-anchor="start" x="789.5" y="-392" font-family="Helvetica,sans-Serif" font-size="10.00">odp/api/event_vector</text>
<text text-anchor="middle" x="841" y="-381" font-family="Helvetica,sans-Serif" font-size="10.00">_types.h</text>
</a>
</g>
</g>
<!-- Node23&#45;&gt;Node24 -->
<g id="edge32_Node000023_Node000024" class="edge">
<title>Node23&#45;&gt;Node24</title>
<g id="a_edge32_Node000023_Node000024"><a xlink:title=" ">
<path fill="none" stroke="#63b8ff" d="M1005.33,-560.79C974.32,-528.56 898.5,-449.76 861.7,-411.52"/>
<polygon fill="#63b8ff" stroke="#63b8ff" points="863.93,-408.78 854.47,-404 858.89,-413.64 863.93,-408.78"/>
</a>
</g>
</g>
<!-- Node28 -->
<g id="Node000028" class="node">
<title>Node28</title>
<g id="a_Node000028"><a xlink:href="queue__stats__types_8h.html" target="_top" xlink:title="ODP queue.">
<polygon fill="white" stroke="#666666" points="1153.5,-272 1038.5,-272 1038.5,-242 1153.5,-242 1153.5,-272"/>
<text text-anchor="start" x="1046.5" y="-260" font-family="Helvetica,sans-Serif" font-size="10.00">odp/api/queue_stats</text>
<text text-anchor="middle" x="1096" y="-249" font-family="Helvetica,sans-Serif" font-size="10.00">_types.h</text>
</a>
</g>
</g>
<!-- Node23&#45;&gt;Node28 -->
<g id="edge45_Node000023_Node000028" class="edge">
<title>Node23&#45;&gt;Node28</title>
<g id="a_edge45_Node000023_Node000028"><a xlink:title=" ">
<path fill="none" stroke="#63b8ff" d="M1014.99,-560.7C1012.42,-550.77 1009.33,-537.19 1008,-525 1005.29,-500.09 1010.87,-447.53 1013,-440 1021.98,-408.25 1024.52,-398.16 1047,-374 1067.92,-351.51 1090.96,-364.79 1106,-338 1115.59,-320.92 1111.7,-298.6 1106.21,-281.88"/>
<polygon fill="#63b8ff" stroke="#63b8ff" points="1109.42,-280.47 1102.69,-272.29 1102.85,-282.89 1109.42,-280.47"/>
</a>
</g>
</g>
<!-- Node30 -->
<g id="Node000030" class="node">
<title>Node30</title>
<g id="a_Node000030"><a xlink:href="schedule__types_8h.html" target="_top" xlink:title="ODP schedule.">
<polygon fill="white" stroke="#666666" points="1157,-525 1017,-525 1017,-506 1157,-506 1157,-525"/>
<text text-anchor="middle" x="1087" y="-513" font-family="Helvetica,sans-Serif" font-size="10.00">odp/api/schedule_types.h</text>
</a>
</g>
</g>
<!-- Node23&#45;&gt;Node30 -->
<g id="edge46_Node000023_Node000030" class="edge">
<title>Node23&#45;&gt;Node30</title>
<g id="a_edge46_Node000023_Node000030"><a xlink:title=" ">
<path fill="none" stroke="#63b8ff" d="M1035.46,-560.84C1045.63,-552.09 1058.69,-540.85 1069.12,-531.88"/>
<polygon fill="#63b8ff" stroke="#63b8ff" points="1071.51,-534.44 1076.81,-525.27 1066.95,-529.13 1071.51,-534.44"/>
</a>
</g>
</g>
<!-- Node25 -->
<g id="Node000025" class="node">
<title>Node25</title>
<g id="a_Node000025"><a xlink:title=" ">
<polygon fill="#e0e0e0" stroke="#999999" points="754.5,-338 617.5,-338 617.5,-308 754.5,-308 754.5,-338"/>
<text text-anchor="start" x="625.5" y="-326" font-family="Helvetica,sans-Serif" font-size="10.00">odp/api/abi/event_vector</text>
<text text-anchor="middle" x="686" y="-315" font-family="Helvetica,sans-Serif" font-size="10.00">_types.h</text>
</a>
</g>
</g>
<!-- Node24&#45;&gt;Node25 -->
<g id="edge33_Node000024_Node000025" class="edge">
<title>Node24&#45;&gt;Node25</title>
<g id="a_edge33_Node000024_Node000025"><a xlink:title=" ">
<path fill="none" stroke="#63b8ff" d="M806.98,-373.95C784.17,-364.53 753.92,-352.04 729.38,-341.91"/>
<polygon fill="#63b8ff" stroke="#63b8ff" points="730.51,-338.59 719.94,-338.01 727.84,-345.06 730.51,-338.59"/>
</a>
</g>
</g>
<!-- Node26 -->
<g id="Node000026" class="node">
<title>Node26</title>
<g id="a_Node000026"><a xlink:title=" ">
<polygon fill="#e0e0e0" stroke="#999999" points="909,-332.5 773,-332.5 773,-313.5 909,-313.5 909,-332.5"/>
<text text-anchor="middle" x="841" y="-320.5" font-family="Helvetica,sans-Serif" font-size="10.00">odp/api/abi/pool_types.h</text>
</a>
</g>
</g>
<!-- Node24&#45;&gt;Node26 -->
<g id="edge34_Node000024_Node000026" class="edge">
<title>Node24&#45;&gt;Node26</title>
<g id="a_edge34_Node000024_Node000026"><a xlink:title=" ">
<path fill="none" stroke="#63b8ff" d="M841,-373.8C841,-364.7 841,-352.79 841,-342.9"/>
<polygon fill="#63b8ff" stroke="#63b8ff" points="844.5,-342.84 841,-332.84 837.5,-342.84 844.5,-342.84"/>
</a>
</g>
</g>
<!-- Node27 -->
<g id="Node000027" class="node">
<title>Node27</title>
<g id="a_Node000027"><a xlink:href="spec_2event__vector__types_8h.html" target="_top" xlink:title="ODP event vector API type definitions.">
<polygon fill="white" stroke="#666666" points="599.5,-338 490.5,-338 490.5,-308 599.5,-308 599.5,-338"/>
<text text-anchor="start" x="498.5" y="-326" font-family="Helvetica,sans-Serif" font-size="10.00">odp/api/spec/event</text>
<text text-anchor="middle" x="545" y="-315" font-family="Helvetica,sans-Serif" font-size="10.00">_vector_types.h</text>
</a>
</g>
</g>
<!-- Node24&#45;&gt;Node27 -->
<g id="edge35_Node000024_Node000027" class="edge">
<title>Node24&#45;&gt;Node27</title>
<g id="a_edge35_Node000024_Node000027"><a xlink:title=" ">
<path fill="none" stroke="#63b8ff" d="M781.39,-375.21C736.81,-365.62 674.07,-352.12 609.73,-338.15"/>
<polygon fill="#63b8ff" stroke="#63b8ff" points="610.33,-334.7 599.81,-336 608.84,-341.54 610.33,-334.7"/>
</a>
</g>
</g>
<!-- Node27&#45;&gt;Node2 -->
<g id="edge36_Node000027_Node000002" class="edge">
<title>Node27&#45;&gt;Node2</title>
<g id="a_edge36_Node000027_Node000002"><a xlink:title=" ">
<path fill="none" stroke="#63b8ff" d="M543.41,-307.81C537.73,-257.25 518.48,-85.97 512.09,-29.06"/>
<polygon fill="#63b8ff" stroke="#63b8ff" points="515.55,-28.55 510.96,-19 508.59,-29.33 515.55,-28.55"/>
</a>
</g>
</g>
<!-- Node27&#45;&gt;Node3 -->
<g id="edge37_Node000027_Node000003" class="edge">
<title>Node27&#45;&gt;Node3</title>
<g id="a_edge37_Node000027_Node000003"><a xlink:title=" ">
<path fill="none" stroke="#63b8ff" d="M517.79,-307.95C496.52,-296.98 467.18,-281.83 446.39,-271.11"/>
<polygon fill="#63b8ff" stroke="#63b8ff" points="447.99,-267.99 437.5,-266.52 444.78,-274.21 447.99,-267.99"/>
</a>
</g>
</g>
<!-- Node27&#45;&gt;Node6 -->
<g id="edge44_Node000027_Node000006" class="edge">
<title>Node27&#45;&gt;Node6</title>
<g id="a_edge44_Node000027_Node000006"><a xlink:title=" ">
<path fill="none" stroke="#63b8ff" d="M599.76,-309.76C602.88,-309.15 605.98,-308.55 609,-308 716.39,-288.32 744.69,-292.09 852,-272 884.59,-265.9 1121.08,-230.87 1143,-206 1187.32,-155.7 1174.78,-67.36 1166.57,-29.07"/>
<polygon fill="#63b8ff" stroke="#63b8ff" points="1169.97,-28.24 1164.32,-19.28 1163.14,-29.81 1169.97,-28.24"/>
</a>
</g>
</g>
<!-- Node27&#45;&gt;Node14 -->
<g id="edge43_Node000027_Node000014" class="edge">
<title>Node27&#45;&gt;Node14</title>
<g id="a_edge43_Node000027_Node000014"><a xlink:title=" ">
<path fill="none" stroke="#63b8ff" d="M598.11,-307.95C642.23,-296.29 704.16,-279.91 744.91,-269.13"/>
<polygon fill="#63b8ff" stroke="#63b8ff" points="746.02,-272.46 754.79,-266.52 744.23,-265.69 746.02,-272.46"/>
</a>
</g>
</g>
<!-- Node27&#45;&gt;Node28 -->
<g id="edge38_Node000027_Node000028" class="edge">
<title>Node27&#45;&gt;Node28</title>
<g id="a_edge38_Node000027_Node000028"><a xlink:title=" ">
<path fill="none" stroke="#63b8ff" d="M599.74,-309.6C602.86,-309.02 605.97,-308.49 609,-308 688.02,-295.34 914.31,-274.25 1028.45,-263.98"/>
<polygon fill="#63b8ff" stroke="#63b8ff" points="1028.82,-267.46 1038.47,-263.08 1028.19,-260.49 1028.82,-267.46"/>
</a>
</g>
</g>
<!-- Node29 -->
<g id="Node000029" class="node">
<title>Node29</title>
<g id="a_Node000029"><a xlink:href="spec_2queue__stats__types_8h.html" target="_top" xlink:title="ODP queue statistics types.">
<polygon fill="white" stroke="#666666" points="1133.5,-206 1022.5,-206 1022.5,-176 1133.5,-176 1133.5,-206"/>
<text text-anchor="start" x="1030.5" y="-194" font-family="Helvetica,sans-Serif" font-size="10.00">odp/api/spec/queue</text>
<text text-anchor="middle" x="1078" y="-183" font-family="Helvetica,sans-Serif" font-size="10.00">_stats_types.h</text>
</a>
</g>
</g>
<!-- Node28&#45;&gt;Node29 -->
<g id="edge39_Node000028_Node000029" class="edge">
<title>Node28&#45;&gt;Node29</title>
<g id="a_edge39_Node000028_Node000029"><a xlink:title=" ">
<path fill="none" stroke="#63b8ff" d="M1092.01,-241.8C1089.86,-234.17 1087.16,-224.57 1084.71,-215.84"/>
<polygon fill="#63b8ff" stroke="#63b8ff" points="1088.06,-214.84 1081.98,-206.16 1081.32,-216.74 1088.06,-214.84"/>
</a>
</g>
</g>
<!-- Node29&#45;&gt;Node2 -->
<g id="edge40_Node000029_Node000002" class="edge">
<title>Node29&#45;&gt;Node2</title>
<g id="a_edge40_Node000029_Node000002"><a xlink:title=" ">
<path fill="none" stroke="#63b8ff" d="M1022.37,-177.8C1019.2,-177.18 1016.06,-176.57 1013,-176 911.71,-157.15 869.43,-197.59 784,-140 747.47,-115.37 769.02,-80.37 733,-55 708.84,-37.99 636.7,-25.65 580.94,-18.35"/>
<polygon fill="#63b8ff" stroke="#63b8ff" points="581.1,-14.84 570.73,-17.04 580.21,-21.78 581.1,-14.84"/>
</a>
</g>
</g>
<!-- Node29&#45;&gt;Node6 -->
<g id="edge42_Node000029_Node000006" class="edge">
<title>Node29&#45;&gt;Node6</title>
<g id="a_edge42_Node000029_Node000006"><a xlink:title=" ">
<path fill="none" stroke="#63b8ff" d="M1086.11,-175.72C1091.64,-165.8 1099.02,-152.23 1105,-140 1124.17,-100.8 1144.18,-53.66 1154.63,-28.46"/>
<polygon fill="#63b8ff" stroke="#63b8ff" points="1157.92,-29.67 1158.5,-19.09 1151.45,-27 1157.92,-29.67"/>
</a>
</g>
</g>
<!-- Node29&#45;&gt;Node17 -->
<g id="edge41_Node000029_Node000017" class="edge">
<title>Node29&#45;&gt;Node17</title>
<g id="a_edge41_Node000029_Node000017"><a xlink:title=" ">
<path fill="none" stroke="#63b8ff" d="M1075.82,-175.84C1074.63,-168.13 1073.15,-158.49 1071.87,-150.17"/>
<polygon fill="#63b8ff" stroke="#63b8ff" points="1075.33,-149.62 1070.35,-140.27 1068.41,-150.68 1075.33,-149.62"/>
</a>
</g>
</g>
<!-- Node31 -->
<g id="Node000031" class="node">
<title>Node31</title>
<g id="a_Node000031"><a xlink:title=" ">
<polygon fill="#e0e0e0" stroke="#999999" points="1281.5,-470 1164.5,-470 1164.5,-440 1281.5,-440 1281.5,-470"/>
<text text-anchor="start" x="1172.5" y="-458" font-family="Helvetica,sans-Serif" font-size="10.00">odp/api/abi/schedule</text>
<text text-anchor="middle" x="1223" y="-447" font-family="Helvetica,sans-Serif" font-size="10.00">_types.h</text>
</a>
</g>
</g>
<!-- Node30&#45;&gt;Node31 -->
<g id="edge47_Node000030_Node000031" class="edge">
<title>Node30&#45;&gt;Node31</title>
<g id="a_edge47_Node000030_Node000031"><a xlink:title=" ">
<path fill="none" stroke="#63b8ff" d="M1106.78,-505.99C1126.09,-497.68 1156.1,-484.78 1180.79,-474.16"/>
<polygon fill="#63b8ff" stroke="#63b8ff" points="1182.5,-477.23 1190.3,-470.06 1179.73,-470.8 1182.5,-477.23"/>
</a>
</g>
</g>
<!-- Node32 -->
<g id="Node000032" class="node">
<title>Node32</title>
<g id="a_Node000032"><a xlink:href="spec_2schedule__types_8h.html" target="_top" xlink:title="ODP schedule types.">
<polygon fill="white" stroke="#666666" points="1146.5,-470 1021.5,-470 1021.5,-440 1146.5,-440 1146.5,-470"/>
<text text-anchor="start" x="1029.5" y="-458" font-family="Helvetica,sans-Serif" font-size="10.00">odp/api/spec/schedule</text>
<text text-anchor="middle" x="1084" y="-447" font-family="Helvetica,sans-Serif" font-size="10.00">_types.h</text>
</a>
</g>
</g>
<!-- Node30&#45;&gt;Node32 -->
<g id="edge48_Node000030_Node000032" class="edge">
<title>Node30&#45;&gt;Node32</title>
<g id="a_edge48_Node000030_Node000032"><a xlink:title=" ">
<path fill="none" stroke="#63b8ff" d="M1086.56,-505.87C1086.21,-499.11 1085.71,-489.35 1085.24,-480.26"/>
<polygon fill="#63b8ff" stroke="#63b8ff" points="1088.73,-479.92 1084.72,-470.11 1081.74,-480.28 1088.73,-479.92"/>
</a>
</g>
</g>
<!-- Node32&#45;&gt;Node2 -->
<g id="edge49_Node000032_Node000002" class="edge">
<title>Node32&#45;&gt;Node2</title>
<g id="a_edge49_Node000032_Node000002"><a xlink:title=" ">
<path fill="none" stroke="#63b8ff" d="M1021.34,-450.23C835.13,-438.21 298,-397.18 298,-324 298,-324 298,-324 298,-129.5 298,-63.33 377.51,-33.58 439.14,-20.45"/>
<polygon fill="#63b8ff" stroke="#63b8ff" points="440.14,-23.82 449.25,-18.41 438.75,-16.96 440.14,-23.82"/>
</a>
</g>
</g>
<!-- Node32&#45;&gt;Node6 -->
<g id="edge59_Node000032_Node000006" class="edge">
<title>Node32&#45;&gt;Node6</title>
<g id="a_edge59_Node000032_Node000006"><a xlink:title=" ">
<path fill="none" stroke="#63b8ff" d="M1146.54,-440.99C1191.75,-430.87 1248.36,-416.49 1269,-404 1310.44,-378.93 1343,-372.43 1343,-324 1343,-324 1343,-324 1343,-129.5 1343,-67.72 1268.47,-36.23 1215.06,-21.59"/>
<polygon fill="#63b8ff" stroke="#63b8ff" points="1215.91,-18.2 1205.35,-19.05 1214.14,-24.97 1215.91,-18.2"/>
</a>
</g>
</g>
<!-- Node32&#45;&gt;Node14 -->
<g id="edge52_Node000032_Node000014" class="edge">
<title>Node32&#45;&gt;Node14</title>
<g id="a_edge52_Node000032_Node000014"><a xlink:title=" ">
<path fill="none" stroke="#63b8ff" d="M1068.59,-439.88C1030.69,-405.25 934.8,-318.14 918,-308 889.82,-290.99 854.86,-278 828.14,-269.53"/>
<polygon fill="#63b8ff" stroke="#63b8ff" points="828.93,-266.11 818.34,-266.5 826.86,-272.8 828.93,-266.11"/>
</a>
</g>
</g>
<!-- Node32&#45;&gt;Node24 -->
<g id="edge50_Node000032_Node000024" class="edge">
<title>Node32&#45;&gt;Node24</title>
<g id="a_edge50_Node000032_Node000024"><a xlink:title=" ">
<path fill="none" stroke="#63b8ff" d="M1030.67,-439.95C993.32,-430.12 943.26,-416.93 903.95,-406.58"/>
<polygon fill="#63b8ff" stroke="#63b8ff" points="904.76,-403.17 894.2,-404.01 902.98,-409.94 904.76,-403.17"/>
</a>
</g>
</g>
<!-- Node32&#45;&gt;Node28 -->
<g id="edge51_Node000032_Node000028" class="edge">
<title>Node32&#45;&gt;Node28</title>
<g id="a_edge51_Node000032_Node000028"><a xlink:title=" ">
<path fill="none" stroke="#63b8ff" d="M1137.24,-440C1212.04,-417.72 1334.02,-370.29 1286,-308 1270.93,-288.45 1212.19,-275.03 1163.96,-267.05"/>
<polygon fill="#63b8ff" stroke="#63b8ff" points="1164.28,-263.56 1153.85,-265.43 1163.17,-270.47 1164.28,-263.56"/>
</a>
</g>
</g>
<!-- Node33 -->
<g id="Node000033" class="node">
<title>Node33</title>
<g id="a_Node000033"><a xlink:href="thrmask_8h.html" target="_top" xlink:title="ODP thread masks.">
<polygon fill="white" stroke="#666666" points="1160.5,-398.5 1055.5,-398.5 1055.5,-379.5 1160.5,-379.5 1160.5,-398.5"/>
<text text-anchor="middle" x="1108" y="-386.5" font-family="Helvetica,sans-Serif" font-size="10.00">odp/api/thrmask.h</text>
</a>
</g>
</g>
<!-- Node32&#45;&gt;Node33 -->
<g id="edge53_Node000032_Node000033" class="edge">
<title>Node32&#45;&gt;Node33</title>
<g id="a_edge53_Node000032_Node000033"><a xlink:title=" ">
<path fill="none" stroke="#63b8ff" d="M1089.33,-439.8C1092.81,-430.5 1097.4,-418.27 1101.15,-408.26"/>
<polygon fill="#63b8ff" stroke="#63b8ff" points="1104.45,-409.44 1104.68,-398.84 1097.89,-406.98 1104.45,-409.44"/>
</a>
</g>
</g>
<!-- Node34 -->
<g id="Node000034" class="node">
<title>Node34</title>
<g id="a_Node000034"><a xlink:title=" ">
<polygon fill="#e0e0e0" stroke="#999999" points="1276.5,-332.5 1153.5,-332.5 1153.5,-313.5 1276.5,-313.5 1276.5,-332.5"/>
<text text-anchor="middle" x="1215" y="-320.5" font-family="Helvetica,sans-Serif" font-size="10.00">odp/api/abi/thrmask.h</text>
</a>
</g>
</g>
<!-- Node33&#45;&gt;Node34 -->
<g id="edge54_Node000033_Node000034" class="edge">
<title>Node33&#45;&gt;Node34</title>
<g id="a_edge54_Node000033_Node000034"><a xlink:title=" ">
<path fill="none" stroke="#63b8ff" d="M1122.43,-379.37C1140.22,-368.73 1170.68,-350.51 1191.78,-337.89"/>
<polygon fill="#63b8ff" stroke="#63b8ff" points="1193.67,-340.84 1200.46,-332.7 1190.08,-334.83 1193.67,-340.84"/>
</a>
</g>
</g>
<!-- Node35 -->
<g id="Node000035" class="node">
<title>Node35</title>
<g id="a_Node000035"><a xlink:href="spec_2thrmask_8h.html" target="_top" xlink:title="ODP thread masks.">
<polygon fill="white" stroke="#666666" points="1096.5,-332.5 965.5,-332.5 965.5,-313.5 1096.5,-313.5 1096.5,-332.5"/>
<text text-anchor="middle" x="1031" y="-320.5" font-family="Helvetica,sans-Serif" font-size="10.00">odp/api/spec/thrmask.h</text>
</a>
</g>
</g>
<!-- Node33&#45;&gt;Node35 -->
<g id="edge55_Node000033_Node000035" class="edge">
<title>Node33&#45;&gt;Node35</title>
<g id="a_edge55_Node000033_Node000035"><a xlink:title=" ">
<path fill="none" stroke="#63b8ff" d="M1097.62,-379.37C1085.28,-369.12 1064.49,-351.84 1049.41,-339.31"/>
<polygon fill="#63b8ff" stroke="#63b8ff" points="1051.64,-336.61 1041.71,-332.91 1047.17,-341.99 1051.64,-336.61"/>
</a>
</g>
</g>
<!-- Node35&#45;&gt;Node2 -->
<g id="edge56_Node000035_Node000002" class="edge">
<title>Node35&#45;&gt;Node2</title>
<g id="a_edge56_Node000035_Node000002"><a xlink:title=" ">
<path fill="none" stroke="#63b8ff" d="M1014.12,-313.27C982.83,-297.36 913.42,-263.33 852,-242 790.5,-220.64 768.14,-235.3 710,-206 634.13,-167.76 619.75,-147.32 562,-85 545.49,-67.18 530.02,-43.83 520.32,-28.06"/>
<polygon fill="#63b8ff" stroke="#63b8ff" points="523.22,-26.1 515.06,-19.34 517.22,-29.71 523.22,-26.1"/>
</a>
</g>
</g>
<!-- Node35&#45;&gt;Node6 -->
<g id="edge58_Node000035_Node000006" class="edge">
<title>Node35&#45;&gt;Node6</title>
<g id="a_edge58_Node000035_Node000006"><a xlink:title=" ">
<path fill="none" stroke="#63b8ff" d="M1078.19,-313.45C1105.75,-306.36 1139.6,-293.79 1163,-272 1191.67,-245.3 1200,-231.17 1200,-192 1200,-192 1200,-192 1200,-129.5 1200,-92.07 1182.73,-51.03 1171.48,-28.25"/>
<polygon fill="#63b8ff" stroke="#63b8ff" points="1174.49,-26.46 1166.81,-19.15 1168.26,-29.65 1174.49,-26.46"/>
</a>
</g>
</g>
<!-- Node35&#45;&gt;Node14 -->
<g id="edge57_Node000035_Node000014" class="edge">
<title>Node35&#45;&gt;Node14</title>
<g id="a_edge57_Node000035_Node000014"><a xlink:title=" ">
<path fill="none" stroke="#63b8ff" d="M998.35,-313.44C954.7,-301.99 877.29,-281.68 829.24,-269.08"/>
<polygon fill="#63b8ff" stroke="#63b8ff" points="830.02,-265.67 819.46,-266.51 828.25,-272.44 830.02,-265.67"/>
</a>
</g>
</g>
</g>
</svg>
