<?xml version="1.0" encoding="UTF-8" standalone="no"?>
<!DOCTYPE svg PUBLIC "-//W3C//DTD SVG 1.1//EN"
 "http://www.w3.org/Graphics/SVG/1.1/DTD/svg11.dtd">
<!-- Generated by graphviz version 2.43.0 (0)
 -->
<!-- Title: cpumask.h Pages: 1 -->
<svg width="1316pt" height="375pt"
 viewBox="0.00 0.00 1315.50 375.00" xmlns="http://www.w3.org/2000/svg" xmlns:xlink="http://www.w3.org/1999/xlink">
<g id="graph0" class="graph" transform="scale(1 1) rotate(0) translate(4 371)">
<title>cpumask.h</title>
<polygon fill="white" stroke="transparent" points="-4,4 -4,-371 1311.5,-371 1311.5,4 -4,4"/>
<!-- Node1 -->
<g id="node1" class="node">
<title>Node1</title>
<g id="a_node1"><a xlink:title="ODP CPU masks and enumeration.">
<polygon fill="#bfbfbf" stroke="black" points="508,-347.5 508,-366.5 578,-366.5 578,-347.5 508,-347.5"/>
<text text-anchor="middle" x="543" y="-354.5" font-family="Helvetica,sans-Serif" font-size="10.00">cpumask.h</text>
</a>
</g>
</g>
<!-- Node2 -->
<g id="node2" class="node">
<title>Node2</title>
<g id="a_node2"><a xlink:href="cpumask_8h.html" target="_top" xlink:title="ODP CPU masks and enumeration.">
<polygon fill="white" stroke="black" points="508,-291.5 508,-310.5 578,-310.5 578,-291.5 508,-291.5"/>
<text text-anchor="middle" x="543" y="-298.5" font-family="Helvetica,sans-Serif" font-size="10.00">cpumask.h</text>
</a>
</g>
</g>
<!-- Node1&#45;&gt;Node2 -->
<g id="edge1" class="edge">
<title>Node1&#45;&gt;Node2</title>
<path fill="none" stroke="midnightblue" d="M543,-336.8C543,-327.91 543,-317.78 543,-310.75"/>
<polygon fill="midnightblue" stroke="midnightblue" points="539.5,-337.08 543,-347.08 546.5,-337.08 539.5,-337.08"/>
</g>
<!-- Node3 -->
<g id="node3" class="node">
<title>Node3</title>
<g id="a_node3"><a xlink:href="abi-default_2thrmask_8h.html" target="_top" xlink:title="ODP thread masks.">
<polygon fill="white" stroke="black" points="474,-235.5 474,-254.5 540,-254.5 540,-235.5 474,-235.5"/>
<text text-anchor="middle" x="507" y="-242.5" font-family="Helvetica,sans-Serif" font-size="10.00">thrmask.h</text>
</a>
</g>
</g>
<!-- Node2&#45;&gt;Node3 -->
<g id="edge2" class="edge">
<title>Node2&#45;&gt;Node3</title>
<path fill="none" stroke="midnightblue" d="M531.38,-282.57C525.18,-273.27 517.83,-262.25 512.83,-254.75"/>
<polygon fill="midnightblue" stroke="midnightblue" points="528.6,-284.7 537.06,-291.08 534.42,-280.82 528.6,-284.7"/>
</g>
<!-- Node4 -->
<g id="node4" class="node">
<title>Node4</title>
<g id="a_node4"><a xlink:href="spec_2init_8h.html" target="_top" xlink:title=" ">
<polygon fill="white" stroke="black" points="558.5,-235.5 558.5,-254.5 599.5,-254.5 599.5,-235.5 558.5,-235.5"/>
<text text-anchor="middle" x="579" y="-242.5" font-family="Helvetica,sans-Serif" font-size="10.00">init.h</text>
</a>
</g>
</g>
<!-- Node2&#45;&gt;Node4 -->
<g id="edge3" class="edge">
<title>Node2&#45;&gt;Node4</title>
<path fill="none" stroke="midnightblue" d="M554.62,-282.57C560.82,-273.27 568.17,-262.25 573.17,-254.75"/>
<polygon fill="midnightblue" stroke="midnightblue" points="551.58,-280.82 548.94,-291.08 557.4,-284.7 551.58,-280.82"/>
</g>
<!-- Node5 -->
<g id="node5" class="node">
<title>Node5</title>
<g id="a_node5"><a xlink:href="init_8h.html" target="_top" xlink:title="ODP initialization.">
<polygon fill="white" stroke="black" points="558.5,-179.5 558.5,-198.5 599.5,-198.5 599.5,-179.5 558.5,-179.5"/>
<text text-anchor="middle" x="579" y="-186.5" font-family="Helvetica,sans-Serif" font-size="10.00">init.h</text>
</a>
</g>
</g>
<!-- Node4&#45;&gt;Node5 -->
<g id="edge4" class="edge">
<title>Node4&#45;&gt;Node5</title>
<path fill="none" stroke="midnightblue" d="M579,-224.8C579,-215.91 579,-205.78 579,-198.75"/>
<polygon fill="midnightblue" stroke="midnightblue" points="575.5,-225.08 579,-235.08 582.5,-225.08 575.5,-225.08"/>
</g>
<!-- Node6 -->
<g id="node6" class="node">
<title>Node6</title>
<g id="a_node6"><a xlink:href="spec_2shared__memory_8h.html" target="_top" xlink:title="ODP shared memory.">
<polygon fill="white" stroke="black" points="438,-123.5 438,-142.5 542,-142.5 542,-123.5 438,-123.5"/>
<text text-anchor="middle" x="490" y="-130.5" font-family="Helvetica,sans-Serif" font-size="10.00">shared_memory.h</text>
</a>
</g>
</g>
<!-- Node5&#45;&gt;Node6 -->
<g id="edge5" class="edge">
<title>Node5&#45;&gt;Node6</title>
<path fill="none" stroke="midnightblue" d="M555.76,-173.9C539.44,-164 518.13,-151.07 504.26,-142.65"/>
<polygon fill="midnightblue" stroke="midnightblue" points="554.34,-177.13 564.7,-179.32 557.97,-171.14 554.34,-177.13"/>
</g>
<!-- Node8 -->
<g id="node8" class="node">
<title>Node8</title>
<g id="a_node8"><a xlink:href="debug__inlines_8h.html" target="_top" xlink:title="ODP Debug inlines.">
<polygon fill="white" stroke="black" points="542.5,-67.5 542.5,-86.5 635.5,-86.5 635.5,-67.5 542.5,-67.5"/>
<text text-anchor="middle" x="589" y="-74.5" font-family="Helvetica,sans-Serif" font-size="10.00">debug_inlines.h</text>
</a>
</g>
</g>
<!-- Node5&#45;&gt;Node8 -->
<g id="edge7" class="edge">
<title>Node5&#45;&gt;Node8</title>
<path fill="none" stroke="midnightblue" d="M580.7,-169.35C582.89,-145.25 586.61,-104.31 588.22,-86.59"/>
<polygon fill="midnightblue" stroke="midnightblue" points="577.2,-169.09 579.78,-179.37 584.18,-169.73 577.2,-169.09"/>
</g>
<!-- Node20 -->
<g id="node20" class="node">
<title>Node20</title>
<g id="a_node20"><a xlink:href="thread__inline__types_8h_source.html" target="_top" xlink:title=" ">
<polygon fill="white" stroke="black" points="607,-123.5 607,-142.5 729,-142.5 729,-123.5 607,-123.5"/>
<text text-anchor="middle" x="668" y="-130.5" font-family="Helvetica,sans-Serif" font-size="10.00">thread_inline_types.h</text>
</a>
</g>
</g>
<!-- Node5&#45;&gt;Node20 -->
<g id="edge19" class="edge">
<title>Node5&#45;&gt;Node20</title>
<path fill="none" stroke="midnightblue" d="M602.24,-173.9C618.56,-164 639.87,-151.07 653.74,-142.65"/>
<polygon fill="midnightblue" stroke="midnightblue" points="600.03,-171.14 593.3,-179.32 603.66,-177.13 600.03,-171.14"/>
</g>
<!-- Node7 -->
<g id="node7" class="node">
<title>Node7</title>
<g id="a_node7"><a xlink:href="shared__memory_8h.html" target="_top" xlink:title="ODP shared memory.">
<polygon fill="white" stroke="black" points="420,-67.5 420,-86.5 524,-86.5 524,-67.5 420,-67.5"/>
<text text-anchor="middle" x="472" y="-74.5" font-family="Helvetica,sans-Serif" font-size="10.00">shared_memory.h</text>
</a>
</g>
</g>
<!-- Node6&#45;&gt;Node7 -->
<g id="edge6" class="edge">
<title>Node6&#45;&gt;Node7</title>
<path fill="none" stroke="midnightblue" d="M483.8,-113.4C480.79,-104.36 477.31,-93.94 474.92,-86.75"/>
<polygon fill="midnightblue" stroke="midnightblue" points="480.54,-114.7 487.03,-123.08 487.19,-112.49 480.54,-114.7"/>
</g>
<!-- Node9 -->
<g id="node9" class="node">
<title>Node9</title>
<g id="a_node9"><a xlink:href="buffer__inlines_8h_source.html" target="_top" xlink:title=" ">
<polygon fill="white" stroke="black" points="0,-6 0,-25 92,-25 92,-6 0,-6"/>
<text text-anchor="middle" x="46" y="-13" font-family="Helvetica,sans-Serif" font-size="10.00">buffer_inlines.h</text>
</a>
</g>
</g>
<!-- Node8&#45;&gt;Node9 -->
<g id="edge8" class="edge">
<title>Node8&#45;&gt;Node9</title>
<path fill="none" stroke="midnightblue" d="M532.13,-67C339.97,-44.36 287.63,-63.12 101,-31 92.34,-29.51 83.05,-27.3 74.62,-25.06"/>
<polygon fill="midnightblue" stroke="midnightblue" points="531.94,-70.5 542.29,-68.22 532.78,-63.55 531.94,-70.5"/>
</g>
<!-- Node10 -->
<g id="node10" class="node">
<title>Node10</title>
<g id="a_node10"><a xlink:href="crypto__inlines_8h_source.html" target="_top" xlink:title=" ">
<polygon fill="white" stroke="black" points="110,-6 110,-25 204,-25 204,-6 110,-6"/>
<text text-anchor="middle" x="157" y="-13" font-family="Helvetica,sans-Serif" font-size="10.00">crypto_inlines.h</text>
</a>
</g>
</g>
<!-- Node8&#45;&gt;Node10 -->
<g id="edge9" class="edge">
<title>Node8&#45;&gt;Node10</title>
<path fill="none" stroke="midnightblue" d="M532.26,-66.97C389.46,-48.04 350.58,-56.42 213,-31 204.41,-29.41 195.19,-27.23 186.76,-25.04"/>
<polygon fill="midnightblue" stroke="midnightblue" points="531.9,-70.45 542.27,-68.32 532.83,-63.52 531.9,-70.45"/>
</g>
<!-- Node11 -->
<g id="node11" class="node">
<title>Node11</title>
<g id="a_node11"><a xlink:href="dma__inlines_8h_source.html" target="_top" xlink:title=" ">
<polygon fill="white" stroke="black" points="222.5,-6 222.5,-25 307.5,-25 307.5,-6 222.5,-6"/>
<text text-anchor="middle" x="265" y="-13" font-family="Helvetica,sans-Serif" font-size="10.00">dma_inlines.h</text>
</a>
</g>
</g>
<!-- Node8&#45;&gt;Node11 -->
<g id="edge10" class="edge">
<title>Node8&#45;&gt;Node11</title>
<path fill="none" stroke="midnightblue" d="M532.26,-66.82C455.38,-54.35 326.47,-33.34 316,-31 308.45,-29.31 300.37,-27.17 292.91,-25.05"/>
<polygon fill="midnightblue" stroke="midnightblue" points="531.85,-70.3 542.28,-68.44 532.97,-63.39 531.85,-70.3"/>
</g>
<!-- Node12 -->
<g id="node12" class="node">
<title>Node12</title>
<g id="a_node12"><a xlink:href="event__inlines_8h_source.html" target="_top" xlink:title=" ">
<polygon fill="white" stroke="black" points="325.5,-6 325.5,-25 416.5,-25 416.5,-6 325.5,-6"/>
<text text-anchor="middle" x="371" y="-13" font-family="Helvetica,sans-Serif" font-size="10.00">event_inlines.h</text>
</a>
</g>
</g>
<!-- Node8&#45;&gt;Node12 -->
<g id="edge11" class="edge">
<title>Node8&#45;&gt;Node12</title>
<path fill="none" stroke="midnightblue" d="M548.05,-64.82C505.7,-53.26 440.52,-35.47 402.18,-25.01"/>
<polygon fill="midnightblue" stroke="midnightblue" points="547.2,-68.22 557.77,-67.48 549.04,-61.47 547.2,-68.22"/>
</g>
<!-- Node13 -->
<g id="node13" class="node">
<title>Node13</title>
<g id="a_node13"><a xlink:href="ipsec__inlines_8h_source.html" target="_top" xlink:title=" ">
<polygon fill="white" stroke="black" points="434.5,-6 434.5,-25 523.5,-25 523.5,-6 434.5,-6"/>
<text text-anchor="middle" x="479" y="-13" font-family="Helvetica,sans-Serif" font-size="10.00">ipsec_inlines.h</text>
</a>
</g>
</g>
<!-- Node8&#45;&gt;Node13 -->
<g id="edge12" class="edge">
<title>Node8&#45;&gt;Node13</title>
<path fill="none" stroke="midnightblue" d="M564.43,-62.71C543.13,-51.19 512.93,-34.86 494.73,-25.01"/>
<polygon fill="midnightblue" stroke="midnightblue" points="562.78,-65.8 573.24,-67.48 566.11,-59.64 562.78,-65.8"/>
</g>
<!-- Node14 -->
<g id="node14" class="node">
<title>Node14</title>
<g id="a_node14"><a xlink:href="packet__inlines_8h.html" target="_top" xlink:title="Packet inline functions.">
<polygon fill="white" stroke="black" points="541.5,-6 541.5,-25 636.5,-25 636.5,-6 541.5,-6"/>
<text text-anchor="middle" x="589" y="-13" font-family="Helvetica,sans-Serif" font-size="10.00">packet_inlines.h</text>
</a>
</g>
</g>
<!-- Node8&#45;&gt;Node14 -->
<g id="edge13" class="edge">
<title>Node8&#45;&gt;Node14</title>
<path fill="none" stroke="midnightblue" d="M589,-57.32C589,-46.5 589,-33.4 589,-25.01"/>
<polygon fill="midnightblue" stroke="midnightblue" points="585.5,-57.48 589,-67.48 592.5,-57.48 585.5,-57.48"/>
</g>
<!-- Node15 -->
<g id="node15" class="node">
<title>Node15</title>
<g id="a_node15"><a xlink:href="packet__vector__inlines_8h.html" target="_top" xlink:title="Packet vector inline functions.">
<polygon fill="white" stroke="black" points="654.5,-6 654.5,-25 785.5,-25 785.5,-6 654.5,-6"/>
<text text-anchor="middle" x="720" y="-13" font-family="Helvetica,sans-Serif" font-size="10.00">packet_vector_inlines.h</text>
</a>
</g>
</g>
<!-- Node8&#45;&gt;Node15 -->
<g id="edge14" class="edge">
<title>Node8&#45;&gt;Node15</title>
<path fill="none" stroke="midnightblue" d="M616.9,-63.33C642.33,-51.78 679.2,-35.03 701.27,-25.01"/>
<polygon fill="midnightblue" stroke="midnightblue" points="615.43,-60.15 607.77,-67.48 618.32,-66.53 615.43,-60.15"/>
</g>
<!-- Node16 -->
<g id="node16" class="node">
<title>Node16</title>
<g id="a_node16"><a xlink:href="rwlock__recursive__inlines_8h_source.html" target="_top" xlink:title=" ">
<polygon fill="white" stroke="black" points="804,-6 804,-25 950,-25 950,-6 804,-6"/>
<text text-anchor="middle" x="877" y="-13" font-family="Helvetica,sans-Serif" font-size="10.00">rwlock_recursive_inlines.h</text>
</a>
</g>
</g>
<!-- Node8&#45;&gt;Node16 -->
<g id="edge15" class="edge">
<title>Node8&#45;&gt;Node16</title>
<path fill="none" stroke="midnightblue" d="M640.3,-65.4C696.13,-53.87 784.31,-35.65 835.81,-25.01"/>
<polygon fill="midnightblue" stroke="midnightblue" points="639.35,-62.02 630.26,-67.48 640.76,-68.88 639.35,-62.02"/>
</g>
<!-- Node17 -->
<g id="node17" class="node">
<title>Node17</title>
<g id="a_node17"><a xlink:href="schedule__inlines_8h_source.html" target="_top" xlink:title=" ">
<polygon fill="white" stroke="black" points="968.5,-6 968.5,-25 1075.5,-25 1075.5,-6 968.5,-6"/>
<text text-anchor="middle" x="1022" y="-13" font-family="Helvetica,sans-Serif" font-size="10.00">schedule_inlines.h</text>
</a>
</g>
</g>
<!-- Node8&#45;&gt;Node17 -->
<g id="edge16" class="edge">
<title>Node8&#45;&gt;Node17</title>
<path fill="none" stroke="midnightblue" d="M645.98,-66.93C785.92,-48.16 823.8,-54.23 959,-31 968.51,-29.37 978.74,-27.19 988.14,-25.03"/>
<polygon fill="midnightblue" stroke="midnightblue" points="645.16,-63.51 635.73,-68.33 646.11,-70.45 645.16,-63.51"/>
</g>
<!-- Node18 -->
<g id="node18" class="node">
<title>Node18</title>
<g id="a_node18"><a xlink:href="spinlock__recursive__inlines_8h_source.html" target="_top" xlink:title=" ">
<polygon fill="white" stroke="black" points="1093.5,-0.5 1093.5,-30.5 1200.5,-30.5 1200.5,-0.5 1093.5,-0.5"/>
<text text-anchor="start" x="1101.5" y="-18.5" font-family="Helvetica,sans-Serif" font-size="10.00">spinlock_recursive</text>
<text text-anchor="middle" x="1147" y="-7.5" font-family="Helvetica,sans-Serif" font-size="10.00">_inlines.h</text>
</a>
</g>
</g>
<!-- Node8&#45;&gt;Node18 -->
<g id="edge17" class="edge">
<title>Node8&#45;&gt;Node18</title>
<path fill="none" stroke="midnightblue" d="M645.75,-67.01C841.53,-44 894.38,-60.92 1085,-31 1087.73,-30.57 1090.52,-30.09 1093.33,-29.57"/>
<polygon fill="midnightblue" stroke="midnightblue" points="645.23,-63.55 635.71,-68.21 646.06,-70.5 645.23,-63.55"/>
</g>
<!-- Node19 -->
<g id="node19" class="node">
<title>Node19</title>
<g id="a_node19"><a xlink:href="timer__inlines_8h_source.html" target="_top" xlink:title=" ">
<polygon fill="white" stroke="black" points="1218.5,-6 1218.5,-25 1307.5,-25 1307.5,-6 1218.5,-6"/>
<text text-anchor="middle" x="1263" y="-13" font-family="Helvetica,sans-Serif" font-size="10.00">timer_inlines.h</text>
</a>
</g>
</g>
<!-- Node8&#45;&gt;Node19 -->
<g id="edge18" class="edge">
<title>Node8&#45;&gt;Node19</title>
<path fill="none" stroke="midnightblue" d="M645.86,-67.03C896.85,-39.87 965.08,-71.87 1210,-31 1218.56,-29.57 1227.73,-27.33 1236,-25.03"/>
<polygon fill="midnightblue" stroke="midnightblue" points="645.26,-63.58 635.71,-68.15 646.03,-70.53 645.26,-63.58"/>
</g>
<!-- Node20&#45;&gt;Node8 -->
<g id="edge20" class="edge">
<title>Node20&#45;&gt;Node8</title>
<path fill="none" stroke="midnightblue" d="M646.97,-117.62C632.53,-107.76 613.86,-94.99 601.66,-86.65"/>
<polygon fill="midnightblue" stroke="midnightblue" points="645.08,-120.57 655.31,-123.32 649.03,-114.79 645.08,-120.57"/>
</g>
<!-- Node21 -->
<g id="node21" class="node">
<title>Node21</title>
<g id="a_node21"><a xlink:href="thread__inlines_8h_source.html" target="_top" xlink:title=" ">
<polygon fill="white" stroke="black" points="653.5,-67.5 653.5,-86.5 748.5,-86.5 748.5,-67.5 653.5,-67.5"/>
<text text-anchor="middle" x="701" y="-74.5" font-family="Helvetica,sans-Serif" font-size="10.00">thread_inlines.h</text>
</a>
</g>
</g>
<!-- Node20&#45;&gt;Node21 -->
<g id="edge21" class="edge">
<title>Node20&#45;&gt;Node21</title>
<path fill="none" stroke="midnightblue" d="M678.83,-114.27C684.47,-105.05 691.12,-94.17 695.65,-86.75"/>
<polygon fill="midnightblue" stroke="midnightblue" points="675.68,-112.73 673.45,-123.08 681.65,-116.38 675.68,-112.73"/>
</g>
</g>
</svg>
