<?xml version="1.0" encoding="UTF-8" standalone="no"?>
<!DOCTYPE svg PUBLIC "-//W3C//DTD SVG 1.1//EN"
 "http://www.w3.org/Graphics/SVG/1.1/DTD/svg11.dtd">
<!-- Generated by graphviz version 2.43.0 (0)
 -->
<!-- Title: packet_types.h Pages: 1 -->
<svg width="1750pt" height="756pt"
 viewBox="0.00 0.00 1750.00 756.00" xmlns="http://www.w3.org/2000/svg" xmlns:xlink="http://www.w3.org/1999/xlink">
<g id="graph0" class="graph" transform="scale(1 1) rotate(0) translate(4 752)">
<title>packet_types.h</title>
<polygon fill="white" stroke="transparent" points="-4,4 -4,-752 1746,-752 1746,4 -4,4"/>
<!-- Node1 -->
<g id="node1" class="node">
<title>Node1</title>
<g id="a_node1"><a xlink:title="ODP packet types.">
<polygon fill="#bfbfbf" stroke="black" points="1093.5,-728.5 1093.5,-747.5 1183.5,-747.5 1183.5,-728.5 1093.5,-728.5"/>
<text text-anchor="middle" x="1138.5" y="-735.5" font-family="Helvetica,sans-Serif" font-size="10.00">packet_types.h</text>
</a>
</g>
</g>
<!-- Node2 -->
<g id="node2" class="node">
<title>Node2</title>
<g id="a_node2"><a xlink:href="packet__types_8h.html" target="_top" xlink:title="ODP packet.">
<polygon fill="white" stroke="black" points="1093.5,-672.5 1093.5,-691.5 1183.5,-691.5 1183.5,-672.5 1093.5,-672.5"/>
<text text-anchor="middle" x="1138.5" y="-679.5" font-family="Helvetica,sans-Serif" font-size="10.00">packet_types.h</text>
</a>
</g>
</g>
<!-- Node1&#45;&gt;Node2 -->
<g id="edge1" class="edge">
<title>Node1&#45;&gt;Node2</title>
<path fill="none" stroke="midnightblue" d="M1138.5,-717.8C1138.5,-708.91 1138.5,-698.78 1138.5,-691.75"/>
<polygon fill="midnightblue" stroke="midnightblue" points="1135,-718.08 1138.5,-728.08 1142,-718.08 1135,-718.08"/>
</g>
<!-- Node3 -->
<g id="node3" class="node">
<title>Node3</title>
<g id="a_node3"><a xlink:href="spec_2comp_8h.html" target="_top" xlink:title="ODP Compression.">
<polygon fill="white" stroke="black" points="0,-616.5 0,-635.5 53,-635.5 53,-616.5 0,-616.5"/>
<text text-anchor="middle" x="26.5" y="-623.5" font-family="Helvetica,sans-Serif" font-size="10.00">comp.h</text>
</a>
</g>
</g>
<!-- Node2&#45;&gt;Node3 -->
<g id="edge2" class="edge">
<title>Node2&#45;&gt;Node3</title>
<path fill="none" stroke="midnightblue" d="M1083.22,-679.95C893.11,-676.14 266.96,-661.88 67.5,-636 62.87,-635.4 58,-634.54 53.29,-633.58"/>
<polygon fill="midnightblue" stroke="midnightblue" points="1083.2,-683.45 1093.26,-680.15 1083.34,-676.45 1083.2,-683.45"/>
</g>
<!-- Node5 -->
<g id="node5" class="node">
<title>Node5</title>
<g id="a_node5"><a xlink:href="spec_2crypto_8h.html" target="_top" xlink:title="ODP crypto.">
<polygon fill="white" stroke="black" points="35.5,-168.5 35.5,-187.5 91.5,-187.5 91.5,-168.5 35.5,-168.5"/>
<text text-anchor="middle" x="63.5" y="-175.5" font-family="Helvetica,sans-Serif" font-size="10.00">crypto.h</text>
</a>
</g>
</g>
<!-- Node2&#45;&gt;Node5 -->
<g id="edge4" class="edge">
<title>Node2&#45;&gt;Node5</title>
<path fill="none" stroke="midnightblue" d="M1083.34,-680.28C874.93,-677.34 145.25,-665 105.5,-636 80.62,-617.85 81.5,-601.8 81.5,-571 81.5,-571 81.5,-571 81.5,-289 81.5,-250.88 70.84,-206.29 65.93,-187.76"/>
<polygon fill="midnightblue" stroke="midnightblue" points="1083.4,-683.78 1093.44,-680.42 1083.49,-676.78 1083.4,-683.78"/>
</g>
<!-- Node7 -->
<g id="node7" class="node">
<title>Node7</title>
<g id="a_node7"><a xlink:href="spec_2crypto__types_8h.html" target="_top" xlink:title="ODP crypto types.">
<polygon fill="white" stroke="black" points="148,-392.5 148,-411.5 237,-411.5 237,-392.5 148,-392.5"/>
<text text-anchor="middle" x="192.5" y="-399.5" font-family="Helvetica,sans-Serif" font-size="10.00">crypto_types.h</text>
</a>
</g>
</g>
<!-- Node2&#45;&gt;Node7 -->
<g id="edge6" class="edge">
<title>Node2&#45;&gt;Node7</title>
<path fill="none" stroke="midnightblue" d="M1083.1,-680.3C883.02,-677.04 209.5,-659.5 209.5,-571 209.5,-571 209.5,-571 209.5,-513 209.5,-474.93 199.43,-430.31 194.79,-411.77"/>
<polygon fill="midnightblue" stroke="midnightblue" points="1083.32,-683.8 1093.38,-680.46 1083.43,-676.8 1083.32,-683.8"/>
</g>
<!-- Node9 -->
<g id="node9" class="node">
<title>Node9</title>
<g id="a_node9"><a xlink:href="spec_2ipsec_8h.html" target="_top" xlink:title="ODP IPsec API.">
<polygon fill="white" stroke="black" points="303,-56.5 303,-75.5 354,-75.5 354,-56.5 303,-56.5"/>
<text text-anchor="middle" x="328.5" y="-63.5" font-family="Helvetica,sans-Serif" font-size="10.00">ipsec.h</text>
</a>
</g>
</g>
<!-- Node2&#45;&gt;Node9 -->
<g id="edge67" class="edge">
<title>Node2&#45;&gt;Node9</title>
<path fill="none" stroke="midnightblue" d="M1083.11,-680.89C870.62,-679.74 119.5,-668.77 119.5,-571 119.5,-571 119.5,-571 119.5,-177 119.5,-94.99 247.06,-73.98 302.87,-68.72"/>
<polygon fill="midnightblue" stroke="midnightblue" points="1083.38,-684.39 1093.4,-680.94 1083.42,-677.39 1083.38,-684.39"/>
</g>
<!-- Node15 -->
<g id="node15" class="node">
<title>Node15</title>
<g id="a_node15"><a xlink:href="spec_2dma__types_8h.html" target="_top" xlink:title="ODP DMA.">
<polygon fill="white" stroke="black" points="792.5,-616.5 792.5,-635.5 872.5,-635.5 872.5,-616.5 792.5,-616.5"/>
<text text-anchor="middle" x="832.5" y="-623.5" font-family="Helvetica,sans-Serif" font-size="10.00">dma_types.h</text>
</a>
</g>
</g>
<!-- Node2&#45;&gt;Node15 -->
<g id="edge16" class="edge">
<title>Node2&#45;&gt;Node15</title>
<path fill="none" stroke="midnightblue" d="M1083.2,-671.24C1022.62,-660.55 926.89,-643.66 872.95,-634.14"/>
<polygon fill="midnightblue" stroke="midnightblue" points="1082.89,-674.74 1093.35,-673.03 1084.11,-667.85 1082.89,-674.74"/>
</g>
<!-- Node26 -->
<g id="node26" class="node">
<title>Node26</title>
<g id="a_node26"><a xlink:href="spec_2packet__io_8h.html" target="_top" xlink:title="ODP Packet IO.">
<polygon fill="white" stroke="black" points="786.5,-168.5 786.5,-187.5 858.5,-187.5 858.5,-168.5 786.5,-168.5"/>
<text text-anchor="middle" x="822.5" y="-175.5" font-family="Helvetica,sans-Serif" font-size="10.00">packet_io.h</text>
</a>
</g>
</g>
<!-- Node2&#45;&gt;Node26 -->
<g id="edge71" class="edge">
<title>Node2&#45;&gt;Node26</title>
<path fill="none" stroke="midnightblue" d="M1193.72,-677.51C1242.33,-672.79 1314.13,-661.75 1371.5,-636 1414.89,-616.53 1456.5,-618.56 1456.5,-571 1456.5,-571 1456.5,-571 1456.5,-345 1456.5,-314.77 1459.27,-299.88 1436.5,-280 1349.22,-203.81 977.14,-184.39 858.79,-180.1"/>
<polygon fill="midnightblue" stroke="midnightblue" points="1193.35,-674.03 1183.71,-678.42 1193.98,-681 1193.35,-674.03"/>
</g>
<!-- Node28 -->
<g id="node28" class="node">
<title>Node28</title>
<g id="a_node28"><a xlink:href="spec_2event_8h.html" target="_top" xlink:title="ODP event.">
<polygon fill="white" stroke="black" points="1261,-392.5 1261,-411.5 1314,-411.5 1314,-392.5 1261,-392.5"/>
<text text-anchor="middle" x="1287.5" y="-399.5" font-family="Helvetica,sans-Serif" font-size="10.00">event.h</text>
</a>
</g>
</g>
<!-- Node2&#45;&gt;Node28 -->
<g id="edge66" class="edge">
<title>Node2&#45;&gt;Node28</title>
<path fill="none" stroke="midnightblue" d="M1178.05,-669.06C1219.76,-653.73 1279.5,-622.74 1279.5,-571 1279.5,-571 1279.5,-571 1279.5,-513 1279.5,-475.09 1284.29,-430.02 1286.45,-411.54"/>
<polygon fill="midnightblue" stroke="midnightblue" points="1176.68,-665.83 1168.4,-672.45 1179,-672.44 1176.68,-665.83"/>
</g>
<!-- Node31 -->
<g id="node31" class="node">
<title>Node31</title>
<g id="a_node31"><a xlink:href="packet__inlines_8h.html" target="_top" xlink:title="Packet inline functions.">
<polygon fill="white" stroke="black" points="1333,-280.5 1333,-299.5 1428,-299.5 1428,-280.5 1333,-280.5"/>
<text text-anchor="middle" x="1380.5" y="-287.5" font-family="Helvetica,sans-Serif" font-size="10.00">packet_inlines.h</text>
</a>
</g>
</g>
<!-- Node2&#45;&gt;Node31 -->
<g id="edge76" class="edge">
<title>Node2&#45;&gt;Node31</title>
<path fill="none" stroke="midnightblue" d="M1193.94,-679.34C1265.38,-673.9 1380.5,-652.49 1380.5,-571 1380.5,-571 1380.5,-571 1380.5,-401 1380.5,-363.19 1380.5,-318.06 1380.5,-299.56"/>
<polygon fill="midnightblue" stroke="midnightblue" points="1193.47,-675.86 1183.73,-680.03 1193.95,-682.84 1193.47,-675.86"/>
</g>
<!-- Node32 -->
<g id="node32" class="node">
<title>Node32</title>
<g id="a_node32"><a xlink:href="packet__vector__inlines_8h.html" target="_top" xlink:title="Packet vector inline functions.">
<polygon fill="white" stroke="black" points="999,-280.5 999,-299.5 1130,-299.5 1130,-280.5 999,-280.5"/>
<text text-anchor="middle" x="1064.5" y="-287.5" font-family="Helvetica,sans-Serif" font-size="10.00">packet_vector_inlines.h</text>
</a>
</g>
</g>
<!-- Node2&#45;&gt;Node32 -->
<g id="edge77" class="edge">
<title>Node2&#45;&gt;Node32</title>
<path fill="none" stroke="midnightblue" d="M1151.39,-663.9C1177.15,-627.98 1232.5,-541.22 1232.5,-459 1232.5,-459 1232.5,-459 1232.5,-401 1232.5,-370.2 1230.82,-357.22 1208.5,-336 1193.55,-321.79 1142.49,-308.03 1105.41,-299.55"/>
<polygon fill="midnightblue" stroke="midnightblue" points="1148.35,-662.13 1145.26,-672.27 1153.99,-666.27 1148.35,-662.13"/>
</g>
<!-- Node36 -->
<g id="node36" class="node">
<title>Node36</title>
<g id="a_node36"><a xlink:href="spec_2packet_8h.html" target="_top" xlink:title="ODP packet descriptor.">
<polygon fill="white" stroke="black" points="812.5,-280.5 812.5,-299.5 870.5,-299.5 870.5,-280.5 812.5,-280.5"/>
<text text-anchor="middle" x="841.5" y="-287.5" font-family="Helvetica,sans-Serif" font-size="10.00">packet.h</text>
</a>
</g>
</g>
<!-- Node2&#45;&gt;Node36 -->
<g id="edge68" class="edge">
<title>Node2&#45;&gt;Node36</title>
<path fill="none" stroke="midnightblue" d="M1146.36,-662.79C1161.78,-625.37 1194.5,-536.78 1194.5,-459 1194.5,-459 1194.5,-459 1194.5,-401 1194.5,-391.25 1183.51,-395.73 1174.5,-392 1109.51,-365.11 1093.68,-356.8 1026.5,-336 1019,-333.68 920.73,-310.02 870.55,-297.97"/>
<polygon fill="midnightblue" stroke="midnightblue" points="1143,-661.74 1142.35,-672.32 1149.46,-664.46 1143,-661.74"/>
</g>
<!-- Node38 -->
<g id="node38" class="node">
<title>Node38</title>
<g id="a_node38"><a xlink:href="spec_2packet__io__types_8h.html" target="_top" xlink:title="ODP Packet IO types.">
<polygon fill="white" stroke="black" points="772.5,-392.5 772.5,-411.5 876.5,-411.5 876.5,-392.5 772.5,-392.5"/>
<text text-anchor="middle" x="824.5" y="-399.5" font-family="Helvetica,sans-Serif" font-size="10.00">packet_io_types.h</text>
</a>
</g>
</g>
<!-- Node2&#45;&gt;Node38 -->
<g id="edge72" class="edge">
<title>Node2&#45;&gt;Node38</title>
<path fill="none" stroke="midnightblue" d="M1121.19,-665.68C1063.44,-614.54 878.48,-450.8 834.13,-411.52"/>
<polygon fill="midnightblue" stroke="midnightblue" points="1118.95,-668.37 1128.76,-672.38 1123.59,-663.13 1118.95,-668.37"/>
</g>
<!-- Node46 -->
<g id="node46" class="node">
<title>Node46</title>
<g id="a_node46"><a xlink:href="event__inlines_8h_source.html" target="_top" xlink:title=" ">
<polygon fill="white" stroke="black" points="1075,-392.5 1075,-411.5 1166,-411.5 1166,-392.5 1075,-392.5"/>
<text text-anchor="middle" x="1120.5" y="-399.5" font-family="Helvetica,sans-Serif" font-size="10.00">event_inlines.h</text>
</a>
</g>
</g>
<!-- Node2&#45;&gt;Node46 -->
<g id="edge73" class="edge">
<title>Node2&#45;&gt;Node46</title>
<path fill="none" stroke="midnightblue" d="M1133.28,-662.39C1127.66,-640.65 1119.5,-603.51 1119.5,-571 1119.5,-571 1119.5,-571 1119.5,-513 1119.5,-475.19 1120.1,-430.06 1120.37,-411.56"/>
<polygon fill="midnightblue" stroke="midnightblue" points="1129.96,-663.5 1135.94,-672.25 1136.72,-661.68 1129.96,-663.5"/>
</g>
<!-- Node48 -->
<g id="node48" class="node">
<title>Node48</title>
<g id="a_node48"><a xlink:href="spec_2packet__flags_8h.html" target="_top" xlink:title="ODP packet flags.">
<polygon fill="white" stroke="black" points="1484.5,-616.5 1484.5,-635.5 1570.5,-635.5 1570.5,-616.5 1484.5,-616.5"/>
<text text-anchor="middle" x="1527.5" y="-623.5" font-family="Helvetica,sans-Serif" font-size="10.00">packet_flags.h</text>
</a>
</g>
</g>
<!-- Node2&#45;&gt;Node48 -->
<g id="edge69" class="edge">
<title>Node2&#45;&gt;Node48</title>
<path fill="none" stroke="midnightblue" d="M1193.82,-673.88C1259.76,-665.3 1373.26,-650.26 1470.5,-636 1474.96,-635.35 1479.61,-634.64 1484.26,-633.93"/>
<polygon fill="midnightblue" stroke="midnightblue" points="1193.12,-670.44 1183.65,-675.2 1194.02,-677.38 1193.12,-670.44"/>
</g>
<!-- Node50 -->
<g id="node50" class="node">
<title>Node50</title>
<g id="a_node50"><a xlink:href="event__validation__external_8h.html" target="_top" xlink:title="ODP event validation.">
<polygon fill="white" stroke="black" points="1589,-616.5 1589,-635.5 1742,-635.5 1742,-616.5 1589,-616.5"/>
<text text-anchor="middle" x="1665.5" y="-623.5" font-family="Helvetica,sans-Serif" font-size="10.00">event_validation_external.h</text>
</a>
</g>
</g>
<!-- Node2&#45;&gt;Node50 -->
<g id="edge74" class="edge">
<title>Node2&#45;&gt;Node50</title>
<path fill="none" stroke="midnightblue" d="M1193.6,-675.42C1277.08,-666.96 1440.61,-650.35 1579.5,-636 1582.49,-635.69 1585.53,-635.38 1588.61,-635.06"/>
<polygon fill="midnightblue" stroke="midnightblue" points="1193.17,-671.95 1183.58,-676.44 1193.88,-678.91 1193.17,-671.95"/>
</g>
<!-- Node4 -->
<g id="node4" class="node">
<title>Node4</title>
<g id="a_node4"><a xlink:href="comp_8h.html" target="_top" xlink:title="ODP crypto.">
<polygon fill="white" stroke="black" points="0,-560.5 0,-579.5 53,-579.5 53,-560.5 0,-560.5"/>
<text text-anchor="middle" x="26.5" y="-567.5" font-family="Helvetica,sans-Serif" font-size="10.00">comp.h</text>
</a>
</g>
</g>
<!-- Node3&#45;&gt;Node4 -->
<g id="edge3" class="edge">
<title>Node3&#45;&gt;Node4</title>
<path fill="none" stroke="midnightblue" d="M26.5,-605.8C26.5,-596.91 26.5,-586.78 26.5,-579.75"/>
<polygon fill="midnightblue" stroke="midnightblue" points="23,-606.08 26.5,-616.08 30,-606.08 23,-606.08"/>
</g>
<!-- Node6 -->
<g id="node6" class="node">
<title>Node6</title>
<g id="a_node6"><a xlink:href="crypto_8h.html" target="_top" xlink:title="ODP crypto.">
<polygon fill="white" stroke="black" points="35.5,-112.5 35.5,-131.5 91.5,-131.5 91.5,-112.5 35.5,-112.5"/>
<text text-anchor="middle" x="63.5" y="-119.5" font-family="Helvetica,sans-Serif" font-size="10.00">crypto.h</text>
</a>
</g>
</g>
<!-- Node5&#45;&gt;Node6 -->
<g id="edge5" class="edge">
<title>Node5&#45;&gt;Node6</title>
<path fill="none" stroke="midnightblue" d="M63.5,-157.8C63.5,-148.91 63.5,-138.78 63.5,-131.75"/>
<polygon fill="midnightblue" stroke="midnightblue" points="60,-158.08 63.5,-168.08 67,-158.08 60,-158.08"/>
</g>
<!-- Node8 -->
<g id="node8" class="node">
<title>Node8</title>
<g id="a_node8"><a xlink:href="crypto__types_8h.html" target="_top" xlink:title="ODP crypto.">
<polygon fill="white" stroke="black" points="284,-224.5 284,-243.5 373,-243.5 373,-224.5 284,-224.5"/>
<text text-anchor="middle" x="328.5" y="-231.5" font-family="Helvetica,sans-Serif" font-size="10.00">crypto_types.h</text>
</a>
</g>
</g>
<!-- Node7&#45;&gt;Node8 -->
<g id="edge7" class="edge">
<title>Node7&#45;&gt;Node8</title>
<path fill="none" stroke="midnightblue" d="M200.95,-383.37C213.42,-358.51 238.52,-312.56 268.5,-280 282.17,-265.15 301.28,-251.79 314.23,-243.55"/>
<polygon fill="midnightblue" stroke="midnightblue" points="197.8,-381.83 196.54,-392.35 204.09,-384.92 197.8,-381.83"/>
</g>
<!-- Node8&#45;&gt;Node5 -->
<g id="edge8" class="edge">
<title>Node8&#45;&gt;Node5</title>
<path fill="none" stroke="midnightblue" d="M276.56,-222.42C221.28,-211.15 135.85,-193.74 91.85,-184.78"/>
<polygon fill="midnightblue" stroke="midnightblue" points="276.01,-225.88 286.51,-224.44 277.41,-219.02 276.01,-225.88"/>
</g>
<!-- Node8&#45;&gt;Node9 -->
<g id="edge9" class="edge">
<title>Node8&#45;&gt;Node9</title>
<path fill="none" stroke="midnightblue" d="M328.5,-213.93C328.5,-177.92 328.5,-101.23 328.5,-75.57"/>
<polygon fill="midnightblue" stroke="midnightblue" points="325,-214.08 328.5,-224.08 332,-214.08 325,-214.08"/>
</g>
<!-- Node11 -->
<g id="node11" class="node">
<title>Node11</title>
<g id="a_node11"><a xlink:href="spec_2ipsec__types_8h.html" target="_top" xlink:title="ODP IPsec API type definitions.">
<polygon fill="white" stroke="black" points="551,-168.5 551,-187.5 634,-187.5 634,-168.5 551,-168.5"/>
<text text-anchor="middle" x="592.5" y="-175.5" font-family="Helvetica,sans-Serif" font-size="10.00">ipsec_types.h</text>
</a>
</g>
</g>
<!-- Node8&#45;&gt;Node11 -->
<g id="edge11" class="edge">
<title>Node8&#45;&gt;Node11</title>
<path fill="none" stroke="midnightblue" d="M380.28,-222.41C430.17,-212.2 504.7,-196.96 550.86,-187.52"/>
<polygon fill="midnightblue" stroke="midnightblue" points="379.43,-219.01 370.33,-224.44 380.83,-225.87 379.43,-219.01"/>
</g>
<!-- Node14 -->
<g id="node14" class="node">
<title>Node14</title>
<g id="a_node14"><a xlink:href="crypto__inlines_8h_source.html" target="_top" xlink:title=" ">
<polygon fill="white" stroke="black" points="674.5,-168.5 674.5,-187.5 768.5,-187.5 768.5,-168.5 674.5,-168.5"/>
<text text-anchor="middle" x="721.5" y="-175.5" font-family="Helvetica,sans-Serif" font-size="10.00">crypto_inlines.h</text>
</a>
</g>
</g>
<!-- Node8&#45;&gt;Node14 -->
<g id="edge15" class="edge">
<title>Node8&#45;&gt;Node14</title>
<path fill="none" stroke="midnightblue" d="M383.25,-225.48C460.79,-214.82 601.28,-195.52 674.4,-185.47"/>
<polygon fill="midnightblue" stroke="midnightblue" points="382.63,-222.03 373.2,-226.86 383.58,-228.96 382.63,-222.03"/>
</g>
<!-- Node10 -->
<g id="node10" class="node">
<title>Node10</title>
<g id="a_node10"><a xlink:href="ipsec_8h.html" target="_top" xlink:title="ODP IPSEC API &#45; platform specific header.">
<polygon fill="white" stroke="black" points="303,-0.5 303,-19.5 354,-19.5 354,-0.5 303,-0.5"/>
<text text-anchor="middle" x="328.5" y="-7.5" font-family="Helvetica,sans-Serif" font-size="10.00">ipsec.h</text>
</a>
</g>
</g>
<!-- Node9&#45;&gt;Node10 -->
<g id="edge10" class="edge">
<title>Node9&#45;&gt;Node10</title>
<path fill="none" stroke="midnightblue" d="M328.5,-45.8C328.5,-36.91 328.5,-26.78 328.5,-19.75"/>
<polygon fill="midnightblue" stroke="midnightblue" points="325,-46.08 328.5,-56.08 332,-46.08 325,-46.08"/>
</g>
<!-- Node12 -->
<g id="node12" class="node">
<title>Node12</title>
<g id="a_node12"><a xlink:href="ipsec__types_8h.html" target="_top" xlink:title="ODP IPsec.">
<polygon fill="white" stroke="black" points="551,-112.5 551,-131.5 634,-131.5 634,-112.5 551,-112.5"/>
<text text-anchor="middle" x="592.5" y="-119.5" font-family="Helvetica,sans-Serif" font-size="10.00">ipsec_types.h</text>
</a>
</g>
</g>
<!-- Node11&#45;&gt;Node12 -->
<g id="edge12" class="edge">
<title>Node11&#45;&gt;Node12</title>
<path fill="none" stroke="midnightblue" d="M592.5,-157.8C592.5,-148.91 592.5,-138.78 592.5,-131.75"/>
<polygon fill="midnightblue" stroke="midnightblue" points="589,-158.08 592.5,-168.08 596,-158.08 589,-158.08"/>
</g>
<!-- Node12&#45;&gt;Node9 -->
<g id="edge13" class="edge">
<title>Node12&#45;&gt;Node9</title>
<path fill="none" stroke="midnightblue" d="M540.86,-110.44C484.72,-98.96 397.29,-81.07 354.23,-72.26"/>
<polygon fill="midnightblue" stroke="midnightblue" points="540.46,-113.93 550.96,-112.5 541.86,-107.07 540.46,-113.93"/>
</g>
<!-- Node13 -->
<g id="node13" class="node">
<title>Node13</title>
<g id="a_node13"><a xlink:href="ipsec__inlines_8h_source.html" target="_top" xlink:title=" ">
<polygon fill="white" stroke="black" points="842,-56.5 842,-75.5 931,-75.5 931,-56.5 842,-56.5"/>
<text text-anchor="middle" x="886.5" y="-63.5" font-family="Helvetica,sans-Serif" font-size="10.00">ipsec_inlines.h</text>
</a>
</g>
</g>
<!-- Node12&#45;&gt;Node13 -->
<g id="edge14" class="edge">
<title>Node12&#45;&gt;Node13</title>
<path fill="none" stroke="midnightblue" d="M644.39,-111.47C700.47,-101.17 788.9,-84.93 841.95,-75.18"/>
<polygon fill="midnightblue" stroke="midnightblue" points="643.51,-108.07 634.31,-113.32 644.78,-114.96 643.51,-108.07"/>
</g>
<!-- Node16 -->
<g id="node16" class="node">
<title>Node16</title>
<g id="a_node16"><a xlink:href="dma__types_8h.html" target="_top" xlink:title="ODP DMA.">
<polygon fill="white" stroke="black" points="773.5,-560.5 773.5,-579.5 853.5,-579.5 853.5,-560.5 773.5,-560.5"/>
<text text-anchor="middle" x="813.5" y="-567.5" font-family="Helvetica,sans-Serif" font-size="10.00">dma_types.h</text>
</a>
</g>
</g>
<!-- Node15&#45;&gt;Node16 -->
<g id="edge17" class="edge">
<title>Node15&#45;&gt;Node16</title>
<path fill="none" stroke="midnightblue" d="M825.95,-606.4C822.78,-597.36 819.11,-586.94 816.58,-579.75"/>
<polygon fill="midnightblue" stroke="midnightblue" points="822.74,-607.81 829.36,-616.08 829.35,-605.49 822.74,-607.81"/>
</g>
<!-- Node17 -->
<g id="node17" class="node">
<title>Node17</title>
<g id="a_node17"><a xlink:href="spec_2dma_8h.html" target="_top" xlink:title="ODP DMA.">
<polygon fill="white" stroke="black" points="971,-392.5 971,-411.5 1018,-411.5 1018,-392.5 971,-392.5"/>
<text text-anchor="middle" x="994.5" y="-399.5" font-family="Helvetica,sans-Serif" font-size="10.00">dma.h</text>
</a>
</g>
</g>
<!-- Node16&#45;&gt;Node17 -->
<g id="edge18" class="edge">
<title>Node16&#45;&gt;Node17</title>
<path fill="none" stroke="midnightblue" d="M830.85,-553.09C868.44,-518.62 956.33,-438.01 985.16,-411.57"/>
<polygon fill="midnightblue" stroke="midnightblue" points="828.24,-550.74 823.23,-560.08 832.97,-555.9 828.24,-550.74"/>
</g>
<!-- Node19 -->
<g id="node19" class="node">
<title>Node19</title>
<g id="a_node19"><a xlink:href="spec_2pool__types_8h.html" target="_top" xlink:title="Type definitions for pools.">
<polygon fill="white" stroke="black" points="735,-504.5 735,-523.5 814,-523.5 814,-504.5 735,-504.5"/>
<text text-anchor="middle" x="774.5" y="-511.5" font-family="Helvetica,sans-Serif" font-size="10.00">pool_types.h</text>
</a>
</g>
</g>
<!-- Node16&#45;&gt;Node19 -->
<g id="edge20" class="edge">
<title>Node16&#45;&gt;Node19</title>
<path fill="none" stroke="midnightblue" d="M801.12,-551.86C794.36,-542.5 786.29,-531.33 780.82,-523.75"/>
<polygon fill="midnightblue" stroke="midnightblue" points="798.37,-554.03 807.06,-560.08 804.04,-549.93 798.37,-554.03"/>
</g>
<!-- Node23 -->
<g id="node23" class="node">
<title>Node23</title>
<g id="a_node23"><a xlink:href="dma__inlines_8h_source.html" target="_top" xlink:title=" ">
<polygon fill="white" stroke="black" points="278,-280.5 278,-299.5 363,-299.5 363,-280.5 278,-280.5"/>
<text text-anchor="middle" x="320.5" y="-287.5" font-family="Helvetica,sans-Serif" font-size="10.00">dma_inlines.h</text>
</a>
</g>
</g>
<!-- Node16&#45;&gt;Node23 -->
<g id="edge65" class="edge">
<title>Node16&#45;&gt;Node23</title>
<path fill="none" stroke="midnightblue" d="M763.08,-569.49C627.54,-569.47 265.5,-559.96 265.5,-459 265.5,-459 265.5,-459 265.5,-401 265.5,-370.9 270.61,-362.7 284.5,-336 291.79,-321.98 303.8,-308.12 311.92,-299.57"/>
<polygon fill="midnightblue" stroke="midnightblue" points="763.21,-572.99 773.2,-569.48 763.2,-565.99 763.21,-572.99"/>
</g>
<!-- Node18 -->
<g id="node18" class="node">
<title>Node18</title>
<g id="a_node18"><a xlink:href="dma_8h.html" target="_top" xlink:title="ODP DMA.">
<polygon fill="white" stroke="black" points="971,-336.5 971,-355.5 1018,-355.5 1018,-336.5 971,-336.5"/>
<text text-anchor="middle" x="994.5" y="-343.5" font-family="Helvetica,sans-Serif" font-size="10.00">dma.h</text>
</a>
</g>
</g>
<!-- Node17&#45;&gt;Node18 -->
<g id="edge19" class="edge">
<title>Node17&#45;&gt;Node18</title>
<path fill="none" stroke="midnightblue" d="M994.5,-381.8C994.5,-372.91 994.5,-362.78 994.5,-355.75"/>
<polygon fill="midnightblue" stroke="midnightblue" points="991,-382.08 994.5,-392.08 998,-382.08 991,-382.08"/>
</g>
<!-- Node20 -->
<g id="node20" class="node">
<title>Node20</title>
<g id="a_node20"><a xlink:href="pool__types_8h.html" target="_top" xlink:title="ODP pool.">
<polygon fill="white" stroke="black" points="705,-448.5 705,-467.5 784,-467.5 784,-448.5 705,-448.5"/>
<text text-anchor="middle" x="744.5" y="-455.5" font-family="Helvetica,sans-Serif" font-size="10.00">pool_types.h</text>
</a>
</g>
</g>
<!-- Node19&#45;&gt;Node20 -->
<g id="edge21" class="edge">
<title>Node19&#45;&gt;Node20</title>
<path fill="none" stroke="midnightblue" d="M764.65,-495.27C759.53,-486.05 753.48,-475.17 749.36,-467.75"/>
<polygon fill="midnightblue" stroke="midnightblue" points="761.63,-497.04 769.55,-504.08 767.75,-493.64 761.63,-497.04"/>
</g>
<!-- Node20&#45;&gt;Node7 -->
<g id="edge30" class="edge">
<title>Node20&#45;&gt;Node7</title>
<path fill="none" stroke="midnightblue" d="M694.63,-452.12C587.94,-441.68 339.01,-417.33 237.15,-407.37"/>
<polygon fill="midnightblue" stroke="midnightblue" points="694.51,-455.63 704.8,-453.12 695.19,-448.66 694.51,-455.63"/>
</g>
<!-- Node20&#45;&gt;Node17 -->
<g id="edge31" class="edge">
<title>Node20&#45;&gt;Node17</title>
<path fill="none" stroke="midnightblue" d="M793.95,-446.85C836.96,-437.93 900.93,-424.48 956.5,-412 961.13,-410.96 966.07,-409.82 970.8,-408.7"/>
<polygon fill="midnightblue" stroke="midnightblue" points="793.11,-443.45 784.02,-448.9 794.53,-450.3 793.11,-443.45"/>
</g>
<!-- Node21 -->
<g id="node21" class="node">
<title>Node21</title>
<g id="a_node21"><a xlink:href="spec_2buffer_8h.html" target="_top" xlink:title="ODP buffer.">
<polygon fill="white" stroke="black" points="294,-392.5 294,-411.5 347,-411.5 347,-392.5 294,-392.5"/>
<text text-anchor="middle" x="320.5" y="-399.5" font-family="Helvetica,sans-Serif" font-size="10.00">buffer.h</text>
</a>
</g>
</g>
<!-- Node20&#45;&gt;Node21 -->
<g id="edge22" class="edge">
<title>Node20&#45;&gt;Node21</title>
<path fill="none" stroke="midnightblue" d="M694.58,-452.73C621.26,-446.09 480.28,-431.96 361.5,-412 356.9,-411.23 352.04,-410.28 347.33,-409.29"/>
<polygon fill="midnightblue" stroke="midnightblue" points="694.62,-456.25 704.89,-453.65 695.25,-449.27 694.62,-456.25"/>
</g>
<!-- Node20&#45;&gt;Node23 -->
<g id="edge60" class="edge">
<title>Node20&#45;&gt;Node23</title>
<path fill="none" stroke="midnightblue" d="M694.69,-456.2C609.84,-453.93 441.85,-445.25 394.5,-412 363.43,-390.18 375.91,-368.01 355.5,-336 346.99,-322.65 335.44,-308.41 327.98,-299.61"/>
<polygon fill="midnightblue" stroke="midnightblue" points="694.78,-459.7 704.86,-456.45 694.95,-452.7 694.78,-459.7"/>
</g>
<!-- Node24 -->
<g id="node24" class="node">
<title>Node24</title>
<g id="a_node24"><a xlink:href="spec_2classification_8h.html" target="_top" xlink:title="ODP classification descriptor.">
<polygon fill="white" stroke="black" points="527,-280.5 527,-299.5 616,-299.5 616,-280.5 527,-280.5"/>
<text text-anchor="middle" x="571.5" y="-287.5" font-family="Helvetica,sans-Serif" font-size="10.00">classification.h</text>
</a>
</g>
</g>
<!-- Node20&#45;&gt;Node24 -->
<g id="edge25" class="edge">
<title>Node20&#45;&gt;Node24</title>
<path fill="none" stroke="midnightblue" d="M730.95,-440.33C719.75,-426.86 703.2,-407.64 687.5,-392 650.99,-355.62 603.6,-316.69 582.49,-299.73"/>
<polygon fill="midnightblue" stroke="midnightblue" points="728.41,-442.76 737.47,-448.26 733.82,-438.31 728.41,-442.76"/>
</g>
<!-- Node20&#45;&gt;Node28 -->
<g id="edge32" class="edge">
<title>Node20&#45;&gt;Node28</title>
<path fill="none" stroke="midnightblue" d="M794.46,-452.03C906.56,-440.88 1175.01,-414.19 1260.72,-405.66"/>
<polygon fill="midnightblue" stroke="midnightblue" points="794.03,-448.56 784.43,-453.03 794.73,-455.52 794.03,-448.56"/>
</g>
<!-- Node30 -->
<g id="node30" class="node">
<title>Node30</title>
<g id="a_node30"><a xlink:href="buffer__inlines_8h_source.html" target="_top" xlink:title=" ">
<polygon fill="white" stroke="black" points="888.5,-280.5 888.5,-299.5 980.5,-299.5 980.5,-280.5 888.5,-280.5"/>
<text text-anchor="middle" x="934.5" y="-287.5" font-family="Helvetica,sans-Serif" font-size="10.00">buffer_inlines.h</text>
</a>
</g>
</g>
<!-- Node20&#45;&gt;Node30 -->
<g id="edge59" class="edge">
<title>Node20&#45;&gt;Node30</title>
<path fill="none" stroke="midnightblue" d="M745.73,-438.19C747.59,-423.97 752.18,-404.77 763.5,-392 790.44,-361.6 812.32,-376.3 847.5,-356 877.39,-338.76 909,-312.95 924.6,-299.64"/>
<polygon fill="midnightblue" stroke="midnightblue" points="742.23,-438.02 744.76,-448.31 749.2,-438.69 742.23,-438.02"/>
</g>
<!-- Node20&#45;&gt;Node31 -->
<g id="edge62" class="edge">
<title>Node20&#45;&gt;Node31</title>
<path fill="none" stroke="midnightblue" d="M794.42,-453.8C851.66,-449.06 947.76,-437.75 1026.5,-412 1045.01,-405.95 1046.93,-397.88 1065.5,-392 1175.46,-357.2 1220.77,-410.35 1322.5,-356 1347.31,-342.74 1366.69,-314.44 1375.43,-299.95"/>
<polygon fill="midnightblue" stroke="midnightblue" points="793.88,-450.34 784.19,-454.62 794.44,-457.31 793.88,-450.34"/>
</g>
<!-- Node20&#45;&gt;Node32 -->
<g id="edge63" class="edge">
<title>Node20&#45;&gt;Node32</title>
<path fill="none" stroke="midnightblue" d="M794.02,-451.29C827.28,-445.56 870.83,-434.23 903.5,-412 938.63,-388.1 928.07,-362.23 961.5,-336 983.3,-318.89 1012.61,-306.92 1034.38,-299.65"/>
<polygon fill="midnightblue" stroke="midnightblue" points="793.37,-447.85 784.05,-452.9 794.48,-454.76 793.37,-447.85"/>
</g>
<!-- Node34 -->
<g id="node34" class="node">
<title>Node34</title>
<g id="a_node34"><a xlink:href="spec_2ml_8h.html" target="_top" xlink:title="ODP Machine Learning (ML) offload.">
<polygon fill="white" stroke="black" points="403.5,-392.5 403.5,-411.5 441.5,-411.5 441.5,-392.5 403.5,-392.5"/>
<text text-anchor="middle" x="422.5" y="-399.5" font-family="Helvetica,sans-Serif" font-size="10.00">ml.h</text>
</a>
</g>
</g>
<!-- Node20&#45;&gt;Node34 -->
<g id="edge40" class="edge">
<title>Node20&#45;&gt;Node34</title>
<path fill="none" stroke="midnightblue" d="M694.5,-451.8C635.63,-445.12 535.13,-431.94 450.5,-412 447.62,-411.32 444.6,-410.49 441.67,-409.6"/>
<polygon fill="midnightblue" stroke="midnightblue" points="694.32,-455.3 704.65,-452.94 695.1,-448.35 694.32,-455.3"/>
</g>
<!-- Node20&#45;&gt;Node36 -->
<g id="edge42" class="edge">
<title>Node20&#45;&gt;Node36</title>
<path fill="none" stroke="midnightblue" d="M794.32,-455.27C825.98,-451.27 864.78,-440.36 885.5,-412 912.27,-375.36 868.92,-320.74 849.82,-299.7"/>
<polygon fill="midnightblue" stroke="midnightblue" points="793.89,-451.8 784.32,-456.34 794.64,-458.76 793.89,-451.8"/>
</g>
<!-- Node20&#45;&gt;Node38 -->
<g id="edge46" class="edge">
<title>Node20&#45;&gt;Node38</title>
<path fill="none" stroke="midnightblue" d="M765.8,-442.62C780.42,-432.76 799.33,-419.99 811.68,-411.65"/>
<polygon fill="midnightblue" stroke="midnightblue" points="763.68,-439.83 757.35,-448.32 767.6,-445.63 763.68,-439.83"/>
</g>
<!-- Node42 -->
<g id="node42" class="node">
<title>Node42</title>
<g id="a_node42"><a xlink:href="spec_2pool_8h.html" target="_top" xlink:title="ODP pool.">
<polygon fill="white" stroke="black" points="460,-392.5 460,-411.5 507,-411.5 507,-392.5 460,-392.5"/>
<text text-anchor="middle" x="483.5" y="-399.5" font-family="Helvetica,sans-Serif" font-size="10.00">pool.h</text>
</a>
</g>
</g>
<!-- Node20&#45;&gt;Node42 -->
<g id="edge55" class="edge">
<title>Node20&#45;&gt;Node42</title>
<path fill="none" stroke="midnightblue" d="M694.87,-448.43C648.32,-440.12 576.87,-426.64 515.5,-412 512.81,-411.36 510,-410.64 507.21,-409.9"/>
<polygon fill="midnightblue" stroke="midnightblue" points="694.53,-451.93 704.99,-450.23 695.75,-445.03 694.53,-451.93"/>
</g>
<!-- Node44 -->
<g id="node44" class="node">
<title>Node44</title>
<g id="a_node44"><a xlink:href="spec_2timer_8h.html" target="_top" xlink:title="ODP timer service.">
<polygon fill="white" stroke="black" points="525,-392.5 525,-411.5 576,-411.5 576,-392.5 525,-392.5"/>
<text text-anchor="middle" x="550.5" y="-399.5" font-family="Helvetica,sans-Serif" font-size="10.00">timer.h</text>
</a>
</g>
</g>
<!-- Node20&#45;&gt;Node44 -->
<g id="edge57" class="edge">
<title>Node20&#45;&gt;Node44</title>
<path fill="none" stroke="midnightblue" d="M703.9,-445.7C665.4,-434.98 608.74,-419.21 576.14,-410.14"/>
<polygon fill="midnightblue" stroke="midnightblue" points="703.19,-449.13 713.76,-448.44 705.06,-442.39 703.19,-449.13"/>
</g>
<!-- Node20&#45;&gt;Node46 -->
<g id="edge61" class="edge">
<title>Node20&#45;&gt;Node46</title>
<path fill="none" stroke="midnightblue" d="M794.37,-450.01C856.66,-441.26 966.49,-425.74 1060.5,-412 1065.19,-411.31 1070.09,-410.59 1074.97,-409.87"/>
<polygon fill="midnightblue" stroke="midnightblue" points="793.84,-446.56 784.42,-451.41 794.81,-453.49 793.84,-446.56"/>
</g>
<!-- Node47 -->
<g id="node47" class="node">
<title>Node47</title>
<g id="a_node47"><a xlink:href="pool__inlines_8h_source.html" target="_top" xlink:title=" ">
<polygon fill="white" stroke="black" points="594.5,-392.5 594.5,-411.5 678.5,-411.5 678.5,-392.5 594.5,-392.5"/>
<text text-anchor="middle" x="636.5" y="-399.5" font-family="Helvetica,sans-Serif" font-size="10.00">pool_inlines.h</text>
</a>
</g>
</g>
<!-- Node20&#45;&gt;Node47 -->
<g id="edge64" class="edge">
<title>Node20&#45;&gt;Node47</title>
<path fill="none" stroke="midnightblue" d="M717.95,-443.73C697.95,-433.73 671.11,-420.31 653.81,-411.65"/>
<polygon fill="midnightblue" stroke="midnightblue" points="716.64,-446.98 727.15,-448.32 719.77,-440.72 716.64,-446.98"/>
</g>
<!-- Node22 -->
<g id="node22" class="node">
<title>Node22</title>
<g id="a_node22"><a xlink:href="buffer_8h.html" target="_top" xlink:title="ODP buffer descriptor.">
<polygon fill="white" stroke="black" points="294,-336.5 294,-355.5 347,-355.5 347,-336.5 294,-336.5"/>
<text text-anchor="middle" x="320.5" y="-343.5" font-family="Helvetica,sans-Serif" font-size="10.00">buffer.h</text>
</a>
</g>
</g>
<!-- Node21&#45;&gt;Node22 -->
<g id="edge23" class="edge">
<title>Node21&#45;&gt;Node22</title>
<path fill="none" stroke="midnightblue" d="M320.5,-381.8C320.5,-372.91 320.5,-362.78 320.5,-355.75"/>
<polygon fill="midnightblue" stroke="midnightblue" points="317,-382.08 320.5,-392.08 324,-382.08 317,-382.08"/>
</g>
<!-- Node22&#45;&gt;Node23 -->
<g id="edge24" class="edge">
<title>Node22&#45;&gt;Node23</title>
<path fill="none" stroke="midnightblue" d="M320.5,-325.8C320.5,-316.91 320.5,-306.78 320.5,-299.75"/>
<polygon fill="midnightblue" stroke="midnightblue" points="317,-326.08 320.5,-336.08 324,-326.08 317,-326.08"/>
</g>
<!-- Node25 -->
<g id="node25" class="node">
<title>Node25</title>
<g id="a_node25"><a xlink:href="classification_8h.html" target="_top" xlink:title="ODP classification descriptor.">
<polygon fill="white" stroke="black" points="527,-224.5 527,-243.5 616,-243.5 616,-224.5 527,-224.5"/>
<text text-anchor="middle" x="571.5" y="-231.5" font-family="Helvetica,sans-Serif" font-size="10.00">classification.h</text>
</a>
</g>
</g>
<!-- Node24&#45;&gt;Node25 -->
<g id="edge26" class="edge">
<title>Node24&#45;&gt;Node25</title>
<path fill="none" stroke="midnightblue" d="M571.5,-269.8C571.5,-260.91 571.5,-250.78 571.5,-243.75"/>
<polygon fill="midnightblue" stroke="midnightblue" points="568,-270.08 571.5,-280.08 575,-270.08 568,-270.08"/>
</g>
<!-- Node25&#45;&gt;Node11 -->
<g id="edge27" class="edge">
<title>Node25&#45;&gt;Node11</title>
<path fill="none" stroke="midnightblue" d="M578.62,-214.69C582.16,-205.59 586.27,-195.01 589.1,-187.75"/>
<polygon fill="midnightblue" stroke="midnightblue" points="575.33,-213.49 574.97,-224.08 581.85,-216.03 575.33,-213.49"/>
</g>
<!-- Node25&#45;&gt;Node26 -->
<g id="edge28" class="edge">
<title>Node25&#45;&gt;Node26</title>
<path fill="none" stroke="midnightblue" d="M621.26,-222.29C669.89,-211.83 742.76,-196.16 786.17,-186.82"/>
<polygon fill="midnightblue" stroke="midnightblue" points="620.31,-218.92 611.27,-224.44 621.78,-225.76 620.31,-218.92"/>
</g>
<!-- Node27 -->
<g id="node27" class="node">
<title>Node27</title>
<g id="a_node27"><a xlink:href="packet__io_8h.html" target="_top" xlink:title="ODP Packet IO.">
<polygon fill="white" stroke="black" points="786.5,-112.5 786.5,-131.5 858.5,-131.5 858.5,-112.5 786.5,-112.5"/>
<text text-anchor="middle" x="822.5" y="-119.5" font-family="Helvetica,sans-Serif" font-size="10.00">packet_io.h</text>
</a>
</g>
</g>
<!-- Node26&#45;&gt;Node27 -->
<g id="edge29" class="edge">
<title>Node26&#45;&gt;Node27</title>
<path fill="none" stroke="midnightblue" d="M822.5,-157.8C822.5,-148.91 822.5,-138.78 822.5,-131.75"/>
<polygon fill="midnightblue" stroke="midnightblue" points="819,-158.08 822.5,-168.08 826,-158.08 819,-158.08"/>
</g>
<!-- Node29 -->
<g id="node29" class="node">
<title>Node29</title>
<g id="a_node29"><a xlink:href="event_8h.html" target="_top" xlink:title="ODP event.">
<polygon fill="white" stroke="black" points="1261,-336.5 1261,-355.5 1314,-355.5 1314,-336.5 1261,-336.5"/>
<text text-anchor="middle" x="1287.5" y="-343.5" font-family="Helvetica,sans-Serif" font-size="10.00">event.h</text>
</a>
</g>
</g>
<!-- Node28&#45;&gt;Node29 -->
<g id="edge33" class="edge">
<title>Node28&#45;&gt;Node29</title>
<path fill="none" stroke="midnightblue" d="M1287.5,-381.8C1287.5,-372.91 1287.5,-362.78 1287.5,-355.75"/>
<polygon fill="midnightblue" stroke="midnightblue" points="1284,-382.08 1287.5,-392.08 1291,-382.08 1284,-382.08"/>
</g>
<!-- Node29&#45;&gt;Node13 -->
<g id="edge36" class="edge">
<title>Node29&#45;&gt;Node13</title>
<path fill="none" stroke="midnightblue" d="M1292.17,-326.36C1297.2,-304.58 1304.5,-267.42 1304.5,-235 1304.5,-235 1304.5,-235 1304.5,-177 1304.5,-100.46 1039.07,-76.05 931.23,-69.3"/>
<polygon fill="midnightblue" stroke="midnightblue" points="1288.73,-325.69 1289.79,-336.23 1295.53,-327.33 1288.73,-325.69"/>
</g>
<!-- Node29&#45;&gt;Node14 -->
<g id="edge35" class="edge">
<title>Node29&#45;&gt;Node14</title>
<path fill="none" stroke="midnightblue" d="M1255.36,-332.69C1233.26,-324.02 1203.35,-311.89 1177.5,-300 1159.8,-291.86 1157.13,-285.71 1138.5,-280 1011.36,-241.06 968.19,-284.38 841.5,-244 799.29,-230.55 754.71,-202.06 733.75,-187.69"/>
<polygon fill="midnightblue" stroke="midnightblue" points="1254.34,-336.05 1264.93,-336.42 1256.88,-329.53 1254.34,-336.05"/>
</g>
<!-- Node29&#45;&gt;Node30 -->
<g id="edge34" class="edge">
<title>Node29&#45;&gt;Node30</title>
<path fill="none" stroke="midnightblue" d="M1250.58,-339.57C1194.24,-331.26 1083.46,-314.78 989.5,-300 986.63,-299.55 983.68,-299.08 980.71,-298.6"/>
<polygon fill="midnightblue" stroke="midnightblue" points="1250.37,-343.08 1260.77,-341.08 1251.39,-336.16 1250.37,-343.08"/>
</g>
<!-- Node29&#45;&gt;Node31 -->
<g id="edge37" class="edge">
<title>Node29&#45;&gt;Node31</title>
<path fill="none" stroke="midnightblue" d="M1311.31,-331.18C1328.42,-321.24 1350.97,-308.15 1365.6,-299.65"/>
<polygon fill="midnightblue" stroke="midnightblue" points="1309.33,-328.28 1302.44,-336.32 1312.85,-334.33 1309.33,-328.28"/>
</g>
<!-- Node29&#45;&gt;Node32 -->
<g id="edge38" class="edge">
<title>Node29&#45;&gt;Node32</title>
<path fill="none" stroke="midnightblue" d="M1250.83,-336.12C1209.04,-326 1141.22,-309.58 1099.95,-299.58"/>
<polygon fill="midnightblue" stroke="midnightblue" points="1250.06,-339.53 1260.6,-338.49 1251.71,-332.73 1250.06,-339.53"/>
</g>
<!-- Node33 -->
<g id="node33" class="node">
<title>Node33</title>
<g id="a_node33"><a xlink:href="timer__inlines_8h_source.html" target="_top" xlink:title=" ">
<polygon fill="white" stroke="black" points="1187,-280.5 1187,-299.5 1276,-299.5 1276,-280.5 1187,-280.5"/>
<text text-anchor="middle" x="1231.5" y="-287.5" font-family="Helvetica,sans-Serif" font-size="10.00">timer_inlines.h</text>
</a>
</g>
</g>
<!-- Node29&#45;&gt;Node33 -->
<g id="edge39" class="edge">
<title>Node29&#45;&gt;Node33</title>
<path fill="none" stroke="midnightblue" d="M1271.17,-329.25C1261.24,-319.67 1248.91,-307.79 1240.66,-299.83"/>
<polygon fill="midnightblue" stroke="midnightblue" points="1268.87,-331.9 1278.5,-336.32 1273.73,-326.86 1268.87,-331.9"/>
</g>
<!-- Node35 -->
<g id="node35" class="node">
<title>Node35</title>
<g id="a_node35"><a xlink:href="ml_8h.html" target="_top" xlink:title="ODP Machine Learning (ML) offload.">
<polygon fill="white" stroke="black" points="403.5,-336.5 403.5,-355.5 441.5,-355.5 441.5,-336.5 403.5,-336.5"/>
<text text-anchor="middle" x="422.5" y="-343.5" font-family="Helvetica,sans-Serif" font-size="10.00">ml.h</text>
</a>
</g>
</g>
<!-- Node34&#45;&gt;Node35 -->
<g id="edge41" class="edge">
<title>Node34&#45;&gt;Node35</title>
<path fill="none" stroke="midnightblue" d="M422.5,-381.8C422.5,-372.91 422.5,-362.78 422.5,-355.75"/>
<polygon fill="midnightblue" stroke="midnightblue" points="419,-382.08 422.5,-392.08 426,-382.08 419,-382.08"/>
</g>
<!-- Node37 -->
<g id="node37" class="node">
<title>Node37</title>
<g id="a_node37"><a xlink:href="packet_8h.html" target="_top" xlink:title="ODP packet descriptor.">
<polygon fill="white" stroke="black" points="850.5,-224.5 850.5,-243.5 908.5,-243.5 908.5,-224.5 850.5,-224.5"/>
<text text-anchor="middle" x="879.5" y="-231.5" font-family="Helvetica,sans-Serif" font-size="10.00">packet.h</text>
</a>
</g>
</g>
<!-- Node36&#45;&gt;Node37 -->
<g id="edge43" class="edge">
<title>Node36&#45;&gt;Node37</title>
<path fill="none" stroke="midnightblue" d="M853.56,-271.86C860.14,-262.5 868.01,-251.33 873.34,-243.75"/>
<polygon fill="midnightblue" stroke="midnightblue" points="850.67,-269.89 847.77,-280.08 856.39,-273.92 850.67,-269.89"/>
</g>
<!-- Node37&#45;&gt;Node13 -->
<g id="edge45" class="edge">
<title>Node37&#45;&gt;Node13</title>
<path fill="none" stroke="midnightblue" d="M880.3,-213.93C881.82,-177.92 885.06,-101.23 886.14,-75.57"/>
<polygon fill="midnightblue" stroke="midnightblue" points="876.8,-213.94 879.88,-224.08 883.79,-214.23 876.8,-213.94"/>
</g>
<!-- Node37&#45;&gt;Node14 -->
<g id="edge44" class="edge">
<title>Node37&#45;&gt;Node14</title>
<path fill="none" stroke="midnightblue" d="M844.89,-221.17C815.14,-211 772.95,-196.59 746.42,-187.52"/>
<polygon fill="midnightblue" stroke="midnightblue" points="843.87,-224.52 854.46,-224.44 846.13,-217.9 843.87,-224.52"/>
</g>
<!-- Node39 -->
<g id="node39" class="node">
<title>Node39</title>
<g id="a_node39"><a xlink:href="packet__io__types_8h.html" target="_top" xlink:title="ODP Packet IO.">
<polygon fill="white" stroke="black" points="734.5,-336.5 734.5,-355.5 838.5,-355.5 838.5,-336.5 734.5,-336.5"/>
<text text-anchor="middle" x="786.5" y="-343.5" font-family="Helvetica,sans-Serif" font-size="10.00">packet_io_types.h</text>
</a>
</g>
</g>
<!-- Node38&#45;&gt;Node39 -->
<g id="edge47" class="edge">
<title>Node38&#45;&gt;Node39</title>
<path fill="none" stroke="midnightblue" d="M812.44,-383.86C805.86,-374.5 797.99,-363.33 792.66,-355.75"/>
<polygon fill="midnightblue" stroke="midnightblue" points="809.61,-385.92 818.23,-392.08 815.33,-381.89 809.61,-385.92"/>
</g>
<!-- Node39&#45;&gt;Node11 -->
<g id="edge49" class="edge">
<title>Node39&#45;&gt;Node11</title>
<path fill="none" stroke="midnightblue" d="M729.71,-333.74C707.08,-326.98 682.05,-316.39 663.5,-300 635.05,-274.86 644.22,-256.44 624.5,-224 616.53,-210.89 606.03,-196.59 599.26,-187.71"/>
<polygon fill="midnightblue" stroke="midnightblue" points="729,-337.18 739.57,-336.49 730.88,-330.43 729,-337.18"/>
</g>
<!-- Node39&#45;&gt;Node24 -->
<g id="edge48" class="edge">
<title>Node39&#45;&gt;Node24</title>
<path fill="none" stroke="midnightblue" d="M742.54,-333.96C701.93,-323.76 642.46,-308.82 605.41,-299.52"/>
<polygon fill="midnightblue" stroke="midnightblue" points="741.88,-337.4 752.43,-336.44 743.59,-330.61 741.88,-337.4"/>
</g>
<!-- Node39&#45;&gt;Node26 -->
<g id="edge51" class="edge">
<title>Node39&#45;&gt;Node26</title>
<path fill="none" stroke="midnightblue" d="M790.64,-325.93C798.44,-289.92 815.08,-213.23 820.64,-187.57"/>
<polygon fill="midnightblue" stroke="midnightblue" points="787.13,-325.56 788.44,-336.08 793.98,-327.04 787.13,-325.56"/>
</g>
<!-- Node39&#45;&gt;Node36 -->
<g id="edge50" class="edge">
<title>Node39&#45;&gt;Node36</title>
<path fill="none" stroke="midnightblue" d="M802.79,-329C812.54,-319.43 824.55,-307.64 832.59,-299.75"/>
<polygon fill="midnightblue" stroke="midnightblue" points="800.27,-326.58 795.58,-336.08 805.17,-331.57 800.27,-326.58"/>
</g>
<!-- Node40 -->
<g id="node40" class="node">
<title>Node40</title>
<g id="a_node40"><a xlink:href="spec_2traffic__mngr_8h.html" target="_top" xlink:title=" ">
<polygon fill="white" stroke="black" points="672.5,-280.5 672.5,-299.5 756.5,-299.5 756.5,-280.5 672.5,-280.5"/>
<text text-anchor="middle" x="714.5" y="-287.5" font-family="Helvetica,sans-Serif" font-size="10.00">traffic_mngr.h</text>
</a>
</g>
</g>
<!-- Node39&#45;&gt;Node40 -->
<g id="edge52" class="edge">
<title>Node39&#45;&gt;Node40</title>
<path fill="none" stroke="midnightblue" d="M766.63,-330.1C753.68,-320.38 737.2,-308.03 726.28,-299.83"/>
<polygon fill="midnightblue" stroke="midnightblue" points="764.83,-333.12 774.93,-336.32 769.03,-327.52 764.83,-333.12"/>
</g>
<!-- Node41 -->
<g id="node41" class="node">
<title>Node41</title>
<g id="a_node41"><a xlink:href="traffic__mngr_8h.html" target="_top" xlink:title="ODP Traffic manager.">
<polygon fill="white" stroke="black" points="672.5,-224.5 672.5,-243.5 756.5,-243.5 756.5,-224.5 672.5,-224.5"/>
<text text-anchor="middle" x="714.5" y="-231.5" font-family="Helvetica,sans-Serif" font-size="10.00">traffic_mngr.h</text>
</a>
</g>
</g>
<!-- Node40&#45;&gt;Node41 -->
<g id="edge53" class="edge">
<title>Node40&#45;&gt;Node41</title>
<path fill="none" stroke="midnightblue" d="M714.5,-269.8C714.5,-260.91 714.5,-250.78 714.5,-243.75"/>
<polygon fill="midnightblue" stroke="midnightblue" points="711,-270.08 714.5,-280.08 718,-270.08 711,-270.08"/>
</g>
<!-- Node41&#45;&gt;Node11 -->
<g id="edge54" class="edge">
<title>Node41&#45;&gt;Node11</title>
<path fill="none" stroke="midnightblue" d="M685.96,-220.37C663.11,-210.26 631.69,-196.35 611.74,-187.52"/>
<polygon fill="midnightblue" stroke="midnightblue" points="684.61,-223.6 695.17,-224.44 687.44,-217.2 684.61,-223.6"/>
</g>
<!-- Node43 -->
<g id="node43" class="node">
<title>Node43</title>
<g id="a_node43"><a xlink:href="pool_8h.html" target="_top" xlink:title="ODP pool.">
<polygon fill="white" stroke="black" points="460,-336.5 460,-355.5 507,-355.5 507,-336.5 460,-336.5"/>
<text text-anchor="middle" x="483.5" y="-343.5" font-family="Helvetica,sans-Serif" font-size="10.00">pool.h</text>
</a>
</g>
</g>
<!-- Node42&#45;&gt;Node43 -->
<g id="edge56" class="edge">
<title>Node42&#45;&gt;Node43</title>
<path fill="none" stroke="midnightblue" d="M483.5,-381.8C483.5,-372.91 483.5,-362.78 483.5,-355.75"/>
<polygon fill="midnightblue" stroke="midnightblue" points="480,-382.08 483.5,-392.08 487,-382.08 480,-382.08"/>
</g>
<!-- Node45 -->
<g id="node45" class="node">
<title>Node45</title>
<g id="a_node45"><a xlink:href="timer_8h.html" target="_top" xlink:title="ODP timer service.">
<polygon fill="white" stroke="black" points="525,-336.5 525,-355.5 576,-355.5 576,-336.5 525,-336.5"/>
<text text-anchor="middle" x="550.5" y="-343.5" font-family="Helvetica,sans-Serif" font-size="10.00">timer.h</text>
</a>
</g>
</g>
<!-- Node44&#45;&gt;Node45 -->
<g id="edge58" class="edge">
<title>Node44&#45;&gt;Node45</title>
<path fill="none" stroke="midnightblue" d="M550.5,-381.8C550.5,-372.91 550.5,-362.78 550.5,-355.75"/>
<polygon fill="midnightblue" stroke="midnightblue" points="547,-382.08 550.5,-392.08 554,-382.08 547,-382.08"/>
</g>
<!-- Node49 -->
<g id="node49" class="node">
<title>Node49</title>
<g id="a_node49"><a xlink:href="packet__flags_8h.html" target="_top" xlink:title="ODP packet flags.">
<polygon fill="white" stroke="black" points="1484.5,-560.5 1484.5,-579.5 1570.5,-579.5 1570.5,-560.5 1484.5,-560.5"/>
<text text-anchor="middle" x="1527.5" y="-567.5" font-family="Helvetica,sans-Serif" font-size="10.00">packet_flags.h</text>
</a>
</g>
</g>
<!-- Node48&#45;&gt;Node49 -->
<g id="edge70" class="edge">
<title>Node48&#45;&gt;Node49</title>
<path fill="none" stroke="midnightblue" d="M1527.5,-605.8C1527.5,-596.91 1527.5,-586.78 1527.5,-579.75"/>
<polygon fill="midnightblue" stroke="midnightblue" points="1524,-606.08 1527.5,-616.08 1531,-606.08 1524,-606.08"/>
</g>
<!-- Node51 -->
<g id="node51" class="node">
<title>Node51</title>
<g id="a_node51"><a xlink:href="queue__inlines_8h_source.html" target="_top" xlink:title=" ">
<polygon fill="white" stroke="black" points="1619,-560.5 1619,-579.5 1712,-579.5 1712,-560.5 1619,-560.5"/>
<text text-anchor="middle" x="1665.5" y="-567.5" font-family="Helvetica,sans-Serif" font-size="10.00">queue_inlines.h</text>
</a>
</g>
</g>
<!-- Node50&#45;&gt;Node51 -->
<g id="edge75" class="edge">
<title>Node50&#45;&gt;Node51</title>
<path fill="none" stroke="midnightblue" d="M1665.5,-605.8C1665.5,-596.91 1665.5,-586.78 1665.5,-579.75"/>
<polygon fill="midnightblue" stroke="midnightblue" points="1662,-606.08 1665.5,-616.08 1669,-606.08 1662,-606.08"/>
</g>
</g>
</svg>
