<?xml version="1.0" encoding="UTF-8" standalone="no"?>
<!DOCTYPE svg PUBLIC "-//W3C//DTD SVG 1.1//EN"
 "http://www.w3.org/Graphics/SVG/1.1/DTD/svg11.dtd">
<!-- Generated by graphviz version 2.43.0 (0)
 -->
<!-- Title: spinlock.h Pages: 1 -->
<svg width="250pt" height="148pt"
 viewBox="0.00 0.00 249.50 148.00" xmlns="http://www.w3.org/2000/svg" xmlns:xlink="http://www.w3.org/1999/xlink">
<g id="graph0" class="graph" transform="scale(1 1) rotate(0) translate(4 144)">
<title>spinlock.h</title>
<!-- Node1 -->
<g id="Node000001" class="node">
<title>Node1</title>
<g id="a_Node000001"><a xlink:title="ODP spinlock.">
<polygon fill="#999999" stroke="#666666" points="156,-140 90,-140 90,-121 156,-121 156,-140"/>
<text text-anchor="middle" x="123" y="-128" font-family="Helvetica,sans-Serif" font-size="10.00">spinlock.h</text>
</a>
</g>
</g>
<!-- Node2 -->
<g id="Node000002" class="node">
<title>Node2</title>
<g id="a_Node000002"><a xlink:href="spinlock_8h.html" target="_top" xlink:title="ODP spinlock.">
<polygon fill="white" stroke="#666666" points="156,-85 90,-85 90,-66 156,-66 156,-85"/>
<text text-anchor="middle" x="123" y="-73" font-family="Helvetica,sans-Serif" font-size="10.00">spinlock.h</text>
</a>
</g>
</g>
<!-- Node1&#45;&gt;Node2 -->
<g id="edge1_Node000001_Node000002" class="edge">
<title>Node1&#45;&gt;Node2</title>
<g id="a_edge1_Node000001_Node000002"><a xlink:title=" ">
<path fill="none" stroke="#63b8ff" d="M123,-110.66C123,-101.93 123,-91.99 123,-85.09"/>
<polygon fill="#63b8ff" stroke="#63b8ff" points="119.5,-110.75 123,-120.75 126.5,-110.75 119.5,-110.75"/>
</a>
</g>
</g>
<!-- Node3 -->
<g id="Node000003" class="node">
<title>Node3</title>
<g id="a_Node000003"><a xlink:href="abi-default_2spinlock__recursive_8h.html" target="_top" xlink:title="ODP recursive spinlock.">
<polygon fill="white" stroke="#666666" points="116,-24.5 0,-24.5 0,-5.5 116,-5.5 116,-24.5"/>
<text text-anchor="middle" x="58" y="-12.5" font-family="Helvetica,sans-Serif" font-size="10.00">spinlock_recursive.h</text>
</a>
</g>
</g>
<!-- Node2&#45;&gt;Node3 -->
<g id="edge2_Node000002_Node000003" class="edge">
<title>Node2&#45;&gt;Node3</title>
<g id="a_edge2_Node000002_Node000003"><a xlink:title=" ">
<path fill="none" stroke="#63b8ff" d="M105.68,-58.91C93.49,-47.94 77.63,-33.67 67.63,-24.67"/>
<polygon fill="#63b8ff" stroke="#63b8ff" points="103.63,-61.78 113.41,-65.87 108.32,-56.58 103.63,-61.78"/>
</a>
</g>
</g>
<!-- Node4 -->
<g id="Node000004" class="node">
<title>Node4</title>
<g id="a_Node000004"><a xlink:href="spinlock__recursive__inlines_8h_source.html" target="_top" xlink:title=" ">
<polygon fill="white" stroke="#666666" points="241.5,-30 134.5,-30 134.5,0 241.5,0 241.5,-30"/>
<text text-anchor="start" x="142.5" y="-18" font-family="Helvetica,sans-Serif" font-size="10.00">spinlock_recursive</text>
<text text-anchor="middle" x="188" y="-7" font-family="Helvetica,sans-Serif" font-size="10.00">_inlines.h</text>
</a>
</g>
</g>
<!-- Node2&#45;&gt;Node4 -->
<g id="edge3_Node000002_Node000004" class="edge">
<title>Node2&#45;&gt;Node4</title>
<g id="a_edge3_Node000002_Node000004"><a xlink:title=" ">
<path fill="none" stroke="#63b8ff" d="M140.26,-58.97C150.22,-50.01 162.64,-38.82 172.32,-30.11"/>
<polygon fill="#63b8ff" stroke="#63b8ff" points="137.68,-56.58 132.59,-65.87 142.37,-61.78 137.68,-56.58"/>
</a>
</g>
</g>
</g>
</svg>
