<?xml version="1.0" encoding="UTF-8" standalone="no"?>
<!DOCTYPE svg PUBLIC "-//W3C//DTD SVG 1.1//EN"
 "http://www.w3.org/Graphics/SVG/1.1/DTD/svg11.dtd">
<!-- Generated by graphviz version 2.43.0 (0)
 -->
<!-- Title: packet_io_stats.h Pages: 1 -->
<svg width="608pt" height="666pt"
 viewBox="0.00 0.00 608.00 666.00" xmlns="http://www.w3.org/2000/svg" xmlns:xlink="http://www.w3.org/1999/xlink">
<g id="graph0" class="graph" transform="scale(1 1) rotate(0) translate(4 662)">
<title>packet_io_stats.h</title>
<polygon fill="white" stroke="transparent" points="-4,4 -4,-662 604,-662 604,4 -4,4"/>
<!-- Node1 -->
<g id="node1" class="node">
<title>Node1</title>
<g id="a_node1"><a xlink:title="ODP Packet IO statistics.">
<polygon fill="#bfbfbf" stroke="black" points="175.5,-638.5 175.5,-657.5 276.5,-657.5 276.5,-638.5 175.5,-638.5"/>
<text text-anchor="middle" x="226" y="-645.5" font-family="Helvetica,sans-Serif" font-size="10.00">packet_io_stats.h</text>
</a>
</g>
</g>
<!-- Node2 -->
<g id="node2" class="node">
<title>Node2</title>
<g id="a_node2"><a xlink:title=" ">
<polygon fill="white" stroke="#bfbfbf" points="34.5,-0.5 34.5,-19.5 155.5,-19.5 155.5,-0.5 34.5,-0.5"/>
<text text-anchor="middle" x="95" y="-7.5" font-family="Helvetica,sans-Serif" font-size="10.00">odp/visibility_begin.h</text>
</a>
</g>
</g>
<!-- Node1&#45;&gt;Node2 -->
<g id="edge1" class="edge">
<title>Node1&#45;&gt;Node2</title>
<path fill="none" stroke="midnightblue" d="M175.28,-643.14C108.65,-634.99 0,-609.71 0,-531.5 0,-531.5 0,-531.5 0,-121 0,-77.74 42.61,-43.09 70.75,-24.91"/>
<polygon fill="midnightblue" stroke="midnightblue" points="72.66,-27.85 79.31,-19.6 68.97,-21.9 72.66,-27.85"/>
</g>
<!-- Node3 -->
<g id="node3" class="node">
<title>Node3</title>
<g id="a_node3"><a xlink:href="queue__types_8h.html" target="_top" xlink:title="ODP queue.">
<polygon fill="white" stroke="black" points="162.5,-582.5 162.5,-601.5 289.5,-601.5 289.5,-582.5 162.5,-582.5"/>
<text text-anchor="middle" x="226" y="-589.5" font-family="Helvetica,sans-Serif" font-size="10.00">odp/api/queue_types.h</text>
</a>
</g>
</g>
<!-- Node1&#45;&gt;Node3 -->
<g id="edge2" class="edge">
<title>Node1&#45;&gt;Node3</title>
<path fill="none" stroke="midnightblue" d="M226,-638.08C226,-631.01 226,-620.86 226,-611.99"/>
<polygon fill="midnightblue" stroke="midnightblue" points="229.5,-611.75 226,-601.75 222.5,-611.75 229.5,-611.75"/>
</g>
<!-- Node16 -->
<g id="node16" class="node">
<title>Node16</title>
<g id="a_node16"><a xlink:title=" ">
<polygon fill="white" stroke="#bfbfbf" points="449,-0.5 449,-19.5 561,-19.5 561,-0.5 449,-0.5"/>
<text text-anchor="middle" x="505" y="-7.5" font-family="Helvetica,sans-Serif" font-size="10.00">odp/visibility_end.h</text>
</a>
</g>
</g>
<!-- Node1&#45;&gt;Node16 -->
<g id="edge29" class="edge">
<title>Node1&#45;&gt;Node16</title>
<path fill="none" stroke="midnightblue" d="M276.83,-642.05C379.09,-630.67 600,-598.35 600,-531.5 600,-531.5 600,-531.5 600,-121 600,-77.74 557.39,-43.09 529.25,-24.91"/>
<polygon fill="midnightblue" stroke="midnightblue" points="531.03,-21.9 520.69,-19.6 527.34,-27.85 531.03,-21.9"/>
</g>
<!-- Node4 -->
<g id="node4" class="node">
<title>Node4</title>
<g id="a_node4"><a xlink:title=" ">
<polygon fill="white" stroke="#bfbfbf" points="80.5,-521 80.5,-540 225.5,-540 225.5,-521 80.5,-521"/>
<text text-anchor="middle" x="153" y="-528" font-family="Helvetica,sans-Serif" font-size="10.00">odp/api/abi/queue_types.h</text>
</a>
</g>
</g>
<!-- Node3&#45;&gt;Node4 -->
<g id="edge3" class="edge">
<title>Node3&#45;&gt;Node4</title>
<path fill="none" stroke="midnightblue" d="M215.54,-582.48C204.05,-573.11 185.37,-557.88 171.41,-546.51"/>
<polygon fill="midnightblue" stroke="midnightblue" points="173.4,-543.61 163.44,-540.01 168.98,-549.04 173.4,-543.61"/>
</g>
<!-- Node5 -->
<g id="node5" class="node">
<title>Node5</title>
<g id="a_node5"><a xlink:href="spec_2queue__types_8h.html" target="_top" xlink:title="ODP queue types.">
<polygon fill="white" stroke="black" points="243.5,-515.5 243.5,-545.5 354.5,-545.5 354.5,-515.5 243.5,-515.5"/>
<text text-anchor="start" x="251.5" y="-533.5" font-family="Helvetica,sans-Serif" font-size="10.00">odp/api/spec/queue</text>
<text text-anchor="middle" x="299" y="-522.5" font-family="Helvetica,sans-Serif" font-size="10.00">_types.h</text>
</a>
</g>
</g>
<!-- Node3&#45;&gt;Node5 -->
<g id="edge4" class="edge">
<title>Node3&#45;&gt;Node5</title>
<path fill="none" stroke="midnightblue" d="M236.46,-582.48C246.16,-574.57 260.99,-562.48 273.77,-552.07"/>
<polygon fill="midnightblue" stroke="midnightblue" points="276.26,-554.55 281.8,-545.52 271.83,-549.13 276.26,-554.55"/>
</g>
<!-- Node5&#45;&gt;Node2 -->
<g id="edge5" class="edge">
<title>Node5&#45;&gt;Node2</title>
<path fill="none" stroke="midnightblue" d="M243.33,-515.64C166.68,-494.89 38,-453.39 38,-408.5 38,-408.5 38,-408.5 38,-121 38,-84.3 63.32,-47.66 80.21,-27.3"/>
<polygon fill="midnightblue" stroke="midnightblue" points="82.95,-29.48 86.83,-19.62 77.65,-24.9 82.95,-29.48"/>
</g>
<!-- Node6 -->
<g id="node6" class="node">
<title>Node6</title>
<g id="a_node6"><a xlink:href="schedule__types_8h.html" target="_top" xlink:title="ODP schedule.">
<polygon fill="white" stroke="black" points="229,-459.5 229,-478.5 369,-478.5 369,-459.5 229,-459.5"/>
<text text-anchor="middle" x="299" y="-466.5" font-family="Helvetica,sans-Serif" font-size="10.00">odp/api/schedule_types.h</text>
</a>
</g>
</g>
<!-- Node5&#45;&gt;Node6 -->
<g id="edge6" class="edge">
<title>Node5&#45;&gt;Node6</title>
<path fill="none" stroke="midnightblue" d="M299,-515.4C299,-507.47 299,-497.46 299,-488.86"/>
<polygon fill="midnightblue" stroke="midnightblue" points="302.5,-488.66 299,-478.66 295.5,-488.66 302.5,-488.66"/>
</g>
<!-- Node5&#45;&gt;Node16 -->
<g id="edge28" class="edge">
<title>Node5&#45;&gt;Node16</title>
<path fill="none" stroke="midnightblue" d="M354.78,-527.76C431.98,-522.04 562,-498.97 562,-408.5 562,-408.5 562,-408.5 562,-121 562,-84.3 536.68,-47.66 519.79,-27.3"/>
<polygon fill="midnightblue" stroke="midnightblue" points="522.35,-24.9 513.17,-19.62 517.05,-29.48 522.35,-24.9"/>
</g>
<!-- Node7 -->
<g id="node7" class="node">
<title>Node7</title>
<g id="a_node7"><a xlink:title=" ">
<polygon fill="white" stroke="#bfbfbf" points="283.5,-392.5 283.5,-422.5 400.5,-422.5 400.5,-392.5 283.5,-392.5"/>
<text text-anchor="start" x="291.5" y="-410.5" font-family="Helvetica,sans-Serif" font-size="10.00">odp/api/abi/schedule</text>
<text text-anchor="middle" x="342" y="-399.5" font-family="Helvetica,sans-Serif" font-size="10.00">_types.h</text>
</a>
</g>
</g>
<!-- Node6&#45;&gt;Node7 -->
<g id="edge7" class="edge">
<title>Node6&#45;&gt;Node7</title>
<path fill="none" stroke="midnightblue" d="M305.16,-459.48C310.55,-452.02 318.62,-440.85 325.83,-430.87"/>
<polygon fill="midnightblue" stroke="midnightblue" points="328.85,-432.68 331.87,-422.52 323.17,-428.58 328.85,-432.68"/>
</g>
<!-- Node8 -->
<g id="node8" class="node">
<title>Node8</title>
<g id="a_node8"><a xlink:href="spec_2schedule__types_8h.html" target="_top" xlink:title="ODP schedule types.">
<polygon fill="white" stroke="black" points="140.5,-392.5 140.5,-422.5 265.5,-422.5 265.5,-392.5 140.5,-392.5"/>
<text text-anchor="start" x="148.5" y="-410.5" font-family="Helvetica,sans-Serif" font-size="10.00">odp/api/spec/schedule</text>
<text text-anchor="middle" x="203" y="-399.5" font-family="Helvetica,sans-Serif" font-size="10.00">_types.h</text>
</a>
</g>
</g>
<!-- Node6&#45;&gt;Node8 -->
<g id="edge8" class="edge">
<title>Node6&#45;&gt;Node8</title>
<path fill="none" stroke="midnightblue" d="M285.25,-459.48C272,-451.27 251.5,-438.56 234.28,-427.88"/>
<polygon fill="midnightblue" stroke="midnightblue" points="235.97,-424.82 225.63,-422.52 232.28,-430.77 235.97,-424.82"/>
</g>
<!-- Node8&#45;&gt;Node2 -->
<g id="edge9" class="edge">
<title>Node8&#45;&gt;Node2</title>
<path fill="none" stroke="midnightblue" d="M167.62,-392.37C130.05,-374.76 76,-340.77 76,-291 76,-291 76,-291 76,-121 76,-88.49 84.16,-51.35 89.78,-29.61"/>
<polygon fill="midnightblue" stroke="midnightblue" points="93.22,-30.32 92.44,-19.75 86.46,-28.5 93.22,-30.32"/>
</g>
<!-- Node9 -->
<g id="node9" class="node">
<title>Node9</title>
<g id="a_node9"><a xlink:href="std__types_8h.html" target="_top" xlink:title="Standard C language types and definitions for ODP.">
<polygon fill="white" stroke="black" points="171,-224.5 171,-243.5 283,-243.5 283,-224.5 171,-224.5"/>
<text text-anchor="middle" x="227" y="-231.5" font-family="Helvetica,sans-Serif" font-size="10.00">odp/api/std_types.h</text>
</a>
</g>
</g>
<!-- Node8&#45;&gt;Node9 -->
<g id="edge10" class="edge">
<title>Node8&#45;&gt;Node9</title>
<path fill="none" stroke="midnightblue" d="M194.18,-392.22C180.51,-368.12 157.51,-318.26 175,-280 180.78,-267.36 192.05,-256.91 202.63,-249.27"/>
<polygon fill="midnightblue" stroke="midnightblue" points="204.85,-252 211.22,-243.53 200.96,-246.18 204.85,-252"/>
</g>
<!-- Node8&#45;&gt;Node16 -->
<g id="edge27" class="edge">
<title>Node8&#45;&gt;Node16</title>
<path fill="none" stroke="midnightblue" d="M258.18,-392.47C349.96,-368.34 524,-318.91 524,-291 524,-291 524,-291 524,-121 524,-88.49 515.84,-51.35 510.22,-29.61"/>
<polygon fill="midnightblue" stroke="midnightblue" points="513.54,-28.5 507.56,-19.75 506.78,-30.32 513.54,-28.5"/>
</g>
<!-- Node17 -->
<g id="node17" class="node">
<title>Node17</title>
<g id="a_node17"><a xlink:href="thrmask_8h.html" target="_top" xlink:title="ODP thread masks.">
<polygon fill="white" stroke="black" points="197.5,-336.5 197.5,-355.5 302.5,-355.5 302.5,-336.5 197.5,-336.5"/>
<text text-anchor="middle" x="250" y="-343.5" font-family="Helvetica,sans-Serif" font-size="10.00">odp/api/thrmask.h</text>
</a>
</g>
</g>
<!-- Node8&#45;&gt;Node17 -->
<g id="edge21" class="edge">
<title>Node8&#45;&gt;Node17</title>
<path fill="none" stroke="midnightblue" d="M214.14,-392.4C220.97,-383.75 229.74,-372.64 236.91,-363.58"/>
<polygon fill="midnightblue" stroke="midnightblue" points="239.71,-365.67 243.16,-355.66 234.22,-361.34 239.71,-365.67"/>
</g>
<!-- Node10 -->
<g id="node10" class="node">
<title>Node10</title>
<g id="a_node10"><a xlink:title=" ">
<polygon fill="white" stroke="#bfbfbf" points="143,-168.5 143,-187.5 273,-187.5 273,-168.5 143,-168.5"/>
<text text-anchor="middle" x="208" y="-175.5" font-family="Helvetica,sans-Serif" font-size="10.00">odp/api/abi/std_types.h</text>
</a>
</g>
</g>
<!-- Node9&#45;&gt;Node10 -->
<g id="edge11" class="edge">
<title>Node9&#45;&gt;Node10</title>
<path fill="none" stroke="midnightblue" d="M223.86,-224.08C221.32,-216.85 217.64,-206.41 214.47,-197.4"/>
<polygon fill="midnightblue" stroke="midnightblue" points="217.7,-196.02 211.08,-187.75 211.1,-198.35 217.7,-196.02"/>
</g>
<!-- Node11 -->
<g id="node11" class="node">
<title>Node11</title>
<g id="a_node11"><a xlink:href="spec_2std__types_8h.html" target="_top" xlink:title="Common types and definitions for ODP API files.">
<polygon fill="white" stroke="black" points="291.5,-168.5 291.5,-187.5 428.5,-187.5 428.5,-168.5 291.5,-168.5"/>
<text text-anchor="middle" x="360" y="-175.5" font-family="Helvetica,sans-Serif" font-size="10.00">odp/api/spec/std_types.h</text>
</a>
</g>
</g>
<!-- Node9&#45;&gt;Node11 -->
<g id="edge12" class="edge">
<title>Node9&#45;&gt;Node11</title>
<path fill="none" stroke="midnightblue" d="M248.07,-224.44C270.06,-215.52 304.73,-201.44 329.66,-191.32"/>
<polygon fill="midnightblue" stroke="midnightblue" points="331.08,-194.52 339.02,-187.52 328.44,-188.04 331.08,-194.52"/>
</g>
<!-- Node11&#45;&gt;Node2 -->
<g id="edge13" class="edge">
<title>Node11&#45;&gt;Node2</title>
<path fill="none" stroke="midnightblue" d="M327.81,-168.49C302.4,-160.99 266.57,-148.66 238,-132 186.28,-101.85 135,-52.5 110.27,-27.15"/>
<polygon fill="midnightblue" stroke="midnightblue" points="112.67,-24.59 103.21,-19.81 107.63,-29.44 112.67,-24.59"/>
</g>
<!-- Node12 -->
<g id="node12" class="node">
<title>Node12</title>
<g id="a_node12"><a xlink:title=" ">
<polygon fill="white" stroke="#bfbfbf" points="246.5,-112.5 246.5,-131.5 299.5,-131.5 299.5,-112.5 246.5,-112.5"/>
<text text-anchor="middle" x="273" y="-119.5" font-family="Helvetica,sans-Serif" font-size="10.00">stdint.h</text>
</a>
</g>
</g>
<!-- Node11&#45;&gt;Node12 -->
<g id="edge14" class="edge">
<title>Node11&#45;&gt;Node12</title>
<path fill="none" stroke="midnightblue" d="M346.02,-168.32C332.45,-159.9 311.62,-146.97 295.68,-137.07"/>
<polygon fill="midnightblue" stroke="midnightblue" points="297.29,-133.95 286.94,-131.65 293.59,-139.9 297.29,-133.95"/>
</g>
<!-- Node13 -->
<g id="node13" class="node">
<title>Node13</title>
<g id="a_node13"><a xlink:href="align_8h.html" target="_top" xlink:title="ODP alignments.">
<polygon fill="white" stroke="black" points="317.5,-112.5 317.5,-131.5 406.5,-131.5 406.5,-112.5 317.5,-112.5"/>
<text text-anchor="middle" x="362" y="-119.5" font-family="Helvetica,sans-Serif" font-size="10.00">odp/api/align.h</text>
</a>
</g>
</g>
<!-- Node11&#45;&gt;Node13 -->
<g id="edge15" class="edge">
<title>Node11&#45;&gt;Node13</title>
<path fill="none" stroke="midnightblue" d="M360.33,-168.08C360.59,-161.01 360.97,-150.86 361.3,-141.99"/>
<polygon fill="midnightblue" stroke="midnightblue" points="364.8,-141.87 361.68,-131.75 357.81,-141.61 364.8,-141.87"/>
</g>
<!-- Node11&#45;&gt;Node16 -->
<g id="edge20" class="edge">
<title>Node11&#45;&gt;Node16</title>
<path fill="none" stroke="midnightblue" d="M372.8,-168.2C384.69,-159.69 402.54,-146.05 416,-132 417.1,-130.85 468.48,-60.81 492.66,-27.83"/>
<polygon fill="midnightblue" stroke="midnightblue" points="495.61,-29.73 498.7,-19.6 489.96,-25.6 495.61,-29.73"/>
</g>
<!-- Node14 -->
<g id="node14" class="node">
<title>Node14</title>
<g id="a_node14"><a xlink:title=" ">
<polygon fill="white" stroke="#bfbfbf" points="180.5,-56.5 180.5,-75.5 287.5,-75.5 287.5,-56.5 180.5,-56.5"/>
<text text-anchor="middle" x="234" y="-63.5" font-family="Helvetica,sans-Serif" font-size="10.00">odp/api/abi/align.h</text>
</a>
</g>
</g>
<!-- Node13&#45;&gt;Node14 -->
<g id="edge16" class="edge">
<title>Node13&#45;&gt;Node14</title>
<path fill="none" stroke="midnightblue" d="M341.72,-112.44C320.65,-103.56 287.48,-89.56 263.51,-79.45"/>
<polygon fill="midnightblue" stroke="midnightblue" points="264.76,-76.18 254.19,-75.52 262.04,-82.63 264.76,-76.18"/>
</g>
<!-- Node15 -->
<g id="node15" class="node">
<title>Node15</title>
<g id="a_node15"><a xlink:href="spec_2align_8h.html" target="_top" xlink:title="ODP alignments.">
<polygon fill="white" stroke="black" points="306,-56.5 306,-75.5 420,-75.5 420,-56.5 306,-56.5"/>
<text text-anchor="middle" x="363" y="-63.5" font-family="Helvetica,sans-Serif" font-size="10.00">odp/api/spec/align.h</text>
</a>
</g>
</g>
<!-- Node13&#45;&gt;Node15 -->
<g id="edge17" class="edge">
<title>Node13&#45;&gt;Node15</title>
<path fill="none" stroke="midnightblue" d="M362.17,-112.08C362.3,-105.01 362.48,-94.86 362.65,-85.99"/>
<polygon fill="midnightblue" stroke="midnightblue" points="366.15,-85.81 362.84,-75.75 359.15,-85.68 366.15,-85.81"/>
</g>
<!-- Node15&#45;&gt;Node2 -->
<g id="edge18" class="edge">
<title>Node15&#45;&gt;Node2</title>
<path fill="none" stroke="midnightblue" d="M320.53,-56.44C273.59,-46.98 197.92,-31.74 147.35,-21.55"/>
<polygon fill="midnightblue" stroke="midnightblue" points="147.76,-18.06 137.27,-19.52 146.38,-24.92 147.76,-18.06"/>
</g>
<!-- Node15&#45;&gt;Node16 -->
<g id="edge19" class="edge">
<title>Node15&#45;&gt;Node16</title>
<path fill="none" stroke="midnightblue" d="M385.5,-56.44C409.08,-47.48 446.32,-33.31 472.96,-23.18"/>
<polygon fill="midnightblue" stroke="midnightblue" points="474.5,-26.34 482.6,-19.52 472.01,-19.8 474.5,-26.34"/>
</g>
<!-- Node18 -->
<g id="node18" class="node">
<title>Node18</title>
<g id="a_node18"><a xlink:title=" ">
<polygon fill="white" stroke="#bfbfbf" points="333.5,-280.5 333.5,-299.5 456.5,-299.5 456.5,-280.5 333.5,-280.5"/>
<text text-anchor="middle" x="395" y="-287.5" font-family="Helvetica,sans-Serif" font-size="10.00">odp/api/abi/thrmask.h</text>
</a>
</g>
</g>
<!-- Node17&#45;&gt;Node18 -->
<g id="edge22" class="edge">
<title>Node17&#45;&gt;Node18</title>
<path fill="none" stroke="midnightblue" d="M272.98,-336.44C297.16,-327.44 335.42,-313.19 362.65,-303.05"/>
<polygon fill="midnightblue" stroke="midnightblue" points="363.98,-306.29 372.13,-299.52 361.54,-299.73 363.98,-306.29"/>
</g>
<!-- Node19 -->
<g id="node19" class="node">
<title>Node19</title>
<g id="a_node19"><a xlink:href="spec_2thrmask_8h.html" target="_top" xlink:title="ODP thread masks.">
<polygon fill="white" stroke="black" points="184.5,-280.5 184.5,-299.5 315.5,-299.5 315.5,-280.5 184.5,-280.5"/>
<text text-anchor="middle" x="250" y="-287.5" font-family="Helvetica,sans-Serif" font-size="10.00">odp/api/spec/thrmask.h</text>
</a>
</g>
</g>
<!-- Node17&#45;&gt;Node19 -->
<g id="edge23" class="edge">
<title>Node17&#45;&gt;Node19</title>
<path fill="none" stroke="midnightblue" d="M250,-336.08C250,-329.01 250,-318.86 250,-309.99"/>
<polygon fill="midnightblue" stroke="midnightblue" points="253.5,-309.75 250,-299.75 246.5,-309.75 253.5,-309.75"/>
</g>
<!-- Node19&#45;&gt;Node2 -->
<g id="edge24" class="edge">
<title>Node19&#45;&gt;Node2</title>
<path fill="none" stroke="midnightblue" d="M222.15,-280.48C182.36,-266.37 114,-234.12 114,-179 114,-179 114,-179 114,-121 114,-88.49 105.84,-51.35 100.22,-29.61"/>
<polygon fill="midnightblue" stroke="midnightblue" points="103.54,-28.5 97.56,-19.75 96.78,-30.32 103.54,-28.5"/>
</g>
<!-- Node19&#45;&gt;Node9 -->
<g id="edge25" class="edge">
<title>Node19&#45;&gt;Node9</title>
<path fill="none" stroke="midnightblue" d="M246.2,-280.08C243.09,-272.77 238.58,-262.18 234.71,-253.1"/>
<polygon fill="midnightblue" stroke="midnightblue" points="237.87,-251.58 230.73,-243.75 231.43,-254.32 237.87,-251.58"/>
</g>
<!-- Node19&#45;&gt;Node16 -->
<g id="edge26" class="edge">
<title>Node19&#45;&gt;Node16</title>
<path fill="none" stroke="midnightblue" d="M284.82,-280.48C350.47,-263.41 486,-222.85 486,-179 486,-179 486,-179 486,-121 486,-88.49 494.16,-51.35 499.78,-29.61"/>
<polygon fill="midnightblue" stroke="midnightblue" points="503.22,-30.32 502.44,-19.75 496.46,-28.5 503.22,-30.32"/>
</g>
</g>
</svg>
