<?xml version="1.0" encoding="UTF-8" standalone="no"?>
<!DOCTYPE svg PUBLIC "-//W3C//DTD SVG 1.1//EN"
 "http://www.w3.org/Graphics/SVG/1.1/DTD/svg11.dtd">
<!-- Generated by graphviz version 2.43.0 (0)
 -->
<!-- Title: dma_types.h Pages: 1 -->
<svg width="1497pt" height="632pt"
 viewBox="0.00 0.00 1497.00 632.00" xmlns="http://www.w3.org/2000/svg" xmlns:xlink="http://www.w3.org/1999/xlink">
<g id="graph0" class="graph" transform="scale(1 1) rotate(0) translate(4 628)">
<title>dma_types.h</title>
<!-- Node1 -->
<g id="Node000001" class="node">
<title>Node1</title>
<g id="a_Node000001"><a xlink:title="ODP DMA.">
<polygon fill="#999999" stroke="#666666" points="1127.5,-624 1047.5,-624 1047.5,-605 1127.5,-605 1127.5,-624"/>
<text text-anchor="middle" x="1087.5" y="-612" font-family="Helvetica,sans-Serif" font-size="10.00">dma_types.h</text>
</a>
</g>
</g>
<!-- Node2 -->
<g id="Node000002" class="node">
<title>Node2</title>
<g id="a_Node000002"><a xlink:href="dma__types_8h.html" target="_top" xlink:title="ODP DMA.">
<polygon fill="white" stroke="#666666" points="1363.5,-569 1283.5,-569 1283.5,-550 1363.5,-550 1363.5,-569"/>
<text text-anchor="middle" x="1323.5" y="-557" font-family="Helvetica,sans-Serif" font-size="10.00">dma_types.h</text>
</a>
</g>
</g>
<!-- Node1&#45;&gt;Node2 -->
<g id="edge1_Node000001_Node000002" class="edge">
<title>Node1&#45;&gt;Node2</title>
<g id="a_edge1_Node000001_Node000002"><a xlink:title=" ">
<path fill="none" stroke="#63b8ff" d="M1135.35,-602.75C1179.58,-592.82 1244.43,-578.26 1285.29,-569.08"/>
<polygon fill="#63b8ff" stroke="#63b8ff" points="1134.41,-599.38 1125.42,-604.98 1135.94,-606.21 1134.41,-599.38"/>
</a>
</g>
</g>
<!-- Node3 -->
<g id="Node000003" class="node">
<title>Node3</title>
<g id="a_Node000003"><a xlink:href="spec_2dma_8h.html" target="_top" xlink:title="ODP DMA.">
<polygon fill="white" stroke="#666666" points="1489,-404 1442,-404 1442,-385 1489,-385 1489,-404"/>
<text text-anchor="middle" x="1465.5" y="-392" font-family="Helvetica,sans-Serif" font-size="10.00">dma.h</text>
</a>
</g>
</g>
<!-- Node2&#45;&gt;Node3 -->
<g id="edge2_Node000002_Node000003" class="edge">
<title>Node2&#45;&gt;Node3</title>
<g id="a_edge2_Node000002_Node000003"><a xlink:title=" ">
<path fill="none" stroke="#63b8ff" d="M1373.16,-546.85C1392.4,-540.1 1413.19,-529.72 1427.5,-514 1457.17,-481.41 1463.68,-425.51 1465.11,-404.15"/>
<polygon fill="#63b8ff" stroke="#63b8ff" points="1372,-543.54 1363.58,-549.96 1374.17,-550.2 1372,-543.54"/>
</a>
</g>
</g>
<!-- Node5 -->
<g id="Node000005" class="node">
<title>Node5</title>
<g id="a_Node000005"><a xlink:href="dma__inlines_8h_source.html" target="_top" xlink:title=" ">
<polygon fill="white" stroke="#666666" points="1418,-294 1333,-294 1333,-275 1418,-275 1418,-294"/>
<text text-anchor="middle" x="1375.5" y="-282" font-family="Helvetica,sans-Serif" font-size="10.00">dma_inlines.h</text>
</a>
</g>
</g>
<!-- Node2&#45;&gt;Node5 -->
<g id="edge4_Node000002_Node000005" class="edge">
<title>Node2&#45;&gt;Node5</title>
<g id="a_edge4_Node000002_Node000005"><a xlink:title=" ">
<path fill="none" stroke="#63b8ff" d="M1346.82,-544.4C1373.48,-526.28 1413.5,-492.16 1413.5,-450.5 1413.5,-450.5 1413.5,-450.5 1413.5,-393.5 1413.5,-354.54 1391.23,-311.93 1380.78,-294.1"/>
<polygon fill="#63b8ff" stroke="#63b8ff" points="1344.82,-541.52 1338.36,-549.91 1348.65,-547.38 1344.82,-541.52"/>
</a>
</g>
</g>
<!-- Node6 -->
<g id="Node000006" class="node">
<title>Node6</title>
<g id="a_Node000006"><a xlink:href="spec_2pool__types_8h.html" target="_top" xlink:title="Type definitions for pools.">
<polygon fill="white" stroke="#666666" points="1273,-514 1194,-514 1194,-495 1273,-495 1273,-514"/>
<text text-anchor="middle" x="1233.5" y="-502" font-family="Helvetica,sans-Serif" font-size="10.00">pool_types.h</text>
</a>
</g>
</g>
<!-- Node2&#45;&gt;Node6 -->
<g id="edge5_Node000002_Node000006" class="edge">
<title>Node2&#45;&gt;Node6</title>
<g id="a_edge5_Node000002_Node000006"><a xlink:title=" ">
<path fill="none" stroke="#63b8ff" d="M1300.06,-544.7C1283.66,-535.04 1262.27,-522.44 1248.22,-514.17"/>
<polygon fill="#63b8ff" stroke="#63b8ff" points="1298.65,-547.93 1309.04,-549.98 1302.2,-541.89 1298.65,-547.93"/>
</a>
</g>
</g>
<!-- Node4 -->
<g id="Node000004" class="node">
<title>Node4</title>
<g id="a_Node000004"><a xlink:href="dma_8h.html" target="_top" xlink:title="ODP DMA.">
<polygon fill="white" stroke="#666666" points="1489,-349 1442,-349 1442,-330 1489,-330 1489,-349"/>
<text text-anchor="middle" x="1465.5" y="-337" font-family="Helvetica,sans-Serif" font-size="10.00">dma.h</text>
</a>
</g>
</g>
<!-- Node3&#45;&gt;Node4 -->
<g id="edge3_Node000003_Node000004" class="edge">
<title>Node3&#45;&gt;Node4</title>
<g id="a_edge3_Node000003_Node000004"><a xlink:title=" ">
<path fill="none" stroke="#63b8ff" d="M1465.5,-374.66C1465.5,-365.93 1465.5,-355.99 1465.5,-349.09"/>
<polygon fill="#63b8ff" stroke="#63b8ff" points="1462,-374.75 1465.5,-384.75 1469,-374.75 1462,-374.75"/>
</a>
</g>
</g>
<!-- Node7 -->
<g id="Node000007" class="node">
<title>Node7</title>
<g id="a_Node000007"><a xlink:href="pool__types_8h.html" target="_top" xlink:title="ODP pool.">
<polygon fill="white" stroke="#666666" points="924,-459 845,-459 845,-440 924,-440 924,-459"/>
<text text-anchor="middle" x="884.5" y="-447" font-family="Helvetica,sans-Serif" font-size="10.00">pool_types.h</text>
</a>
</g>
</g>
<!-- Node6&#45;&gt;Node7 -->
<g id="edge6_Node000006_Node000007" class="edge">
<title>Node6&#45;&gt;Node7</title>
<g id="a_edge6_Node000006_Node000007"><a xlink:title=" ">
<path fill="none" stroke="#63b8ff" d="M1183.49,-495.91C1113.58,-485.29 988.03,-466.22 924.16,-456.52"/>
<polygon fill="#63b8ff" stroke="#63b8ff" points="1183.39,-499.43 1193.81,-497.47 1184.44,-492.51 1183.39,-499.43"/>
</a>
</g>
</g>
<!-- Node7&#45;&gt;Node1 -->
<g id="edge29_Node000007_Node000001" class="edge">
<title>Node7&#45;&gt;Node1</title>
<g id="a_edge29_Node000007_Node000001"><a xlink:title=" ">
<path fill="none" stroke="#63b8ff" d="M903.54,-465.79C945.39,-499.39 1044.27,-578.79 1076.87,-604.97"/>
<polygon fill="#63b8ff" stroke="#63b8ff" points="905.5,-462.88 895.52,-459.34 901.12,-468.34 905.5,-462.88"/>
</a>
</g>
</g>
<!-- Node7&#45;&gt;Node3 -->
<g id="edge27_Node000007_Node000003" class="edge">
<title>Node7&#45;&gt;Node3</title>
<g id="a_edge27_Node000007_Node000003"><a xlink:title=" ">
<path fill="none" stroke="#63b8ff" d="M934.12,-444.52C1024.67,-437.16 1222.74,-420.67 1389.5,-404 1407.07,-402.24 1426.9,-400.02 1441.89,-398.28"/>
<polygon fill="#63b8ff" stroke="#63b8ff" points="933.82,-441.03 924.14,-445.33 934.39,-448.01 933.82,-441.03"/>
</a>
</g>
</g>
<!-- Node7&#45;&gt;Node5 -->
<g id="edge28_Node000007_Node000005" class="edge">
<title>Node7&#45;&gt;Node5</title>
<g id="a_edge28_Node000007_Node000005"><a xlink:title=" ">
<path fill="none" stroke="#63b8ff" d="M934.57,-447.16C1049.58,-443.61 1325.13,-432.23 1355.5,-404 1386.83,-374.88 1380.81,-316.41 1377.16,-294.27"/>
<polygon fill="#63b8ff" stroke="#63b8ff" points="934.17,-443.67 924.28,-447.47 934.38,-450.67 934.17,-443.67"/>
</a>
</g>
</g>
<!-- Node8 -->
<g id="Node000008" class="node">
<title>Node8</title>
<g id="a_Node000008"><a xlink:href="spec_2buffer_8h.html" target="_top" xlink:title="ODP buffer.">
<polygon fill="white" stroke="#666666" points="1347,-404 1294,-404 1294,-385 1347,-385 1347,-404"/>
<text text-anchor="middle" x="1320.5" y="-392" font-family="Helvetica,sans-Serif" font-size="10.00">buffer.h</text>
</a>
</g>
</g>
<!-- Node7&#45;&gt;Node8 -->
<g id="edge7_Node000007_Node000008" class="edge">
<title>Node7&#45;&gt;Node8</title>
<g id="a_edge7_Node000007_Node000008"><a xlink:title=" ">
<path fill="none" stroke="#63b8ff" d="M934.41,-444.9C1010.37,-438.98 1159.4,-425.65 1284.5,-404 1287.54,-403.47 1290.7,-402.85 1293.84,-402.17"/>
<polygon fill="#63b8ff" stroke="#63b8ff" points="933.88,-441.43 924.18,-445.69 934.42,-448.41 933.88,-441.43"/>
</a>
</g>
</g>
<!-- Node10 -->
<g id="Node000010" class="node">
<title>Node10</title>
<g id="a_Node000010"><a xlink:href="buffer__inlines_8h_source.html" target="_top" xlink:title=" ">
<polygon fill="white" stroke="#666666" points="559.5,-294 467.5,-294 467.5,-275 559.5,-275 559.5,-294"/>
<text text-anchor="middle" x="513.5" y="-282" font-family="Helvetica,sans-Serif" font-size="10.00">buffer_inlines.h</text>
</a>
</g>
</g>
<!-- Node7&#45;&gt;Node10 -->
<g id="edge10_Node000007_Node000010" class="edge">
<title>Node7&#45;&gt;Node10</title>
<g id="a_edge10_Node000007_Node000010"><a xlink:title=" ">
<path fill="none" stroke="#63b8ff" d="M834.49,-445.91C761.19,-441.29 629.01,-429.61 589.5,-404 547.25,-376.61 523.79,-316.57 516.23,-294.16"/>
<polygon fill="#63b8ff" stroke="#63b8ff" points="834.66,-449.42 844.85,-446.54 835.09,-442.44 834.66,-449.42"/>
</a>
</g>
</g>
<!-- Node11 -->
<g id="Node000011" class="node">
<title>Node11</title>
<g id="a_Node000011"><a xlink:href="spec_2classification_8h.html" target="_top" xlink:title="ODP classification descriptor.">
<polygon fill="white" stroke="#666666" points="374,-294 285,-294 285,-275 374,-275 374,-294"/>
<text text-anchor="middle" x="329.5" y="-282" font-family="Helvetica,sans-Serif" font-size="10.00">classification.h</text>
</a>
</g>
</g>
<!-- Node7&#45;&gt;Node11 -->
<g id="edge11_Node000007_Node000011" class="edge">
<title>Node7&#45;&gt;Node11</title>
<g id="a_edge11_Node000007_Node000011"><a xlink:title=" ">
<path fill="none" stroke="#63b8ff" d="M834.69,-448.59C764.68,-447.32 634.03,-439.78 529.5,-404 450.84,-377.08 369.27,-316.75 340.41,-294.21"/>
<polygon fill="#63b8ff" stroke="#63b8ff" points="834.93,-452.1 844.98,-448.74 835.04,-445.1 834.93,-452.1"/>
</a>
</g>
</g>
<!-- Node20 -->
<g id="Node000020" class="node">
<title>Node20</title>
<g id="a_Node000020"><a xlink:href="spec_2crypto__types_8h.html" target="_top" xlink:title="ODP crypto types.">
<polygon fill="white" stroke="#666666" points="157,-349 68,-349 68,-330 157,-330 157,-349"/>
<text text-anchor="middle" x="112.5" y="-337" font-family="Helvetica,sans-Serif" font-size="10.00">crypto_types.h</text>
</a>
</g>
</g>
<!-- Node7&#45;&gt;Node20 -->
<g id="edge20_Node000007_Node000020" class="edge">
<title>Node7&#45;&gt;Node20</title>
<g id="a_edge20_Node000007_Node000020"><a xlink:title=" ">
<path fill="none" stroke="#63b8ff" d="M834.67,-447.77C702.51,-445.42 345.52,-436.18 232.5,-404 190.11,-391.93 145.62,-363.61 124.71,-349.22"/>
<polygon fill="#63b8ff" stroke="#63b8ff" points="834.84,-451.28 844.9,-447.95 834.96,-444.28 834.84,-451.28"/>
</a>
</g>
</g>
<!-- Node25 -->
<g id="Node000025" class="node">
<title>Node25</title>
<g id="a_Node000025"><a xlink:href="spec_2event_8h.html" target="_top" xlink:title="ODP event.">
<polygon fill="white" stroke="#666666" points="652,-404 599,-404 599,-385 652,-385 652,-404"/>
<text text-anchor="middle" x="625.5" y="-392" font-family="Helvetica,sans-Serif" font-size="10.00">event.h</text>
</a>
</g>
</g>
<!-- Node7&#45;&gt;Node25 -->
<g id="edge30_Node000007_Node000025" class="edge">
<title>Node7&#45;&gt;Node25</title>
<g id="a_edge30_Node000007_Node000025"><a xlink:title=" ">
<path fill="none" stroke="#63b8ff" d="M834.8,-438.4C790.61,-429.41 724.24,-415.88 666.5,-404 661.94,-403.06 657.1,-402.06 652.4,-401.09"/>
<polygon fill="#63b8ff" stroke="#63b8ff" points="834.22,-441.85 844.71,-440.42 835.61,-434.99 834.22,-441.85"/>
</a>
</g>
</g>
<!-- Node27 -->
<g id="Node000027" class="node">
<title>Node27</title>
<g id="a_Node000027"><a xlink:href="event__vector__inlines_8h.html" target="_top" xlink:title="Event vector inline functions.">
<polygon fill="white" stroke="#666666" points="888,-294 761,-294 761,-275 888,-275 888,-294"/>
<text text-anchor="middle" x="824.5" y="-282" font-family="Helvetica,sans-Serif" font-size="10.00">event_vector_inlines.h</text>
</a>
</g>
</g>
<!-- Node7&#45;&gt;Node27 -->
<g id="edge42_Node000007_Node000027" class="edge">
<title>Node7&#45;&gt;Node27</title>
<g id="a_edge42_Node000007_Node000027"><a xlink:title=" ">
<path fill="none" stroke="#63b8ff" d="M834.46,-443C786.92,-436.63 720.4,-424.31 704.5,-404 684.23,-378.1 685.72,-357 704.5,-330 717.57,-311.21 739.55,-300.34 761.15,-294.05"/>
<polygon fill="#63b8ff" stroke="#63b8ff" points="834.22,-446.5 844.59,-444.31 835.12,-439.56 834.22,-446.5"/>
</a>
</g>
</g>
<!-- Node28 -->
<g id="Node000028" class="node">
<title>Node28</title>
<g id="a_Node000028"><a xlink:href="packet__inlines_8h.html" target="_top" xlink:title="Packet inline functions.">
<polygon fill="white" stroke="#666666" points="1001,-294 906,-294 906,-275 1001,-275 1001,-294"/>
<text text-anchor="middle" x="953.5" y="-282" font-family="Helvetica,sans-Serif" font-size="10.00">packet_inlines.h</text>
</a>
</g>
</g>
<!-- Node7&#45;&gt;Node28 -->
<g id="edge49_Node000007_Node000028" class="edge">
<title>Node7&#45;&gt;Node28</title>
<g id="a_edge49_Node000007_Node000028"><a xlink:title=" ">
<path fill="none" stroke="#63b8ff" d="M834.67,-447.1C802.74,-443.29 763.48,-432.56 742.5,-404 723.03,-377.49 721.78,-355.54 742.5,-330 747.68,-323.61 845.2,-305.02 905.82,-293.99"/>
<polygon fill="#63b8ff" stroke="#63b8ff" points="834.45,-450.59 844.75,-448.1 835.14,-443.63 834.45,-450.59"/>
</a>
</g>
</g>
<!-- Node29 -->
<g id="Node000029" class="node">
<title>Node29</title>
<g id="a_Node000029"><a xlink:href="packet__vector__inlines_8h.html" target="_top" xlink:title="Packet vector inline functions.">
<polygon fill="white" stroke="#666666" points="1150,-294 1019,-294 1019,-275 1150,-275 1150,-294"/>
<text text-anchor="middle" x="1084.5" y="-282" font-family="Helvetica,sans-Serif" font-size="10.00">packet_vector_inlines.h</text>
</a>
</g>
</g>
<!-- Node7&#45;&gt;Node29 -->
<g id="edge59_Node000007_Node000029" class="edge">
<title>Node7&#45;&gt;Node29</title>
<g id="a_edge59_Node000007_Node000029"><a xlink:title=" ">
<path fill="none" stroke="#63b8ff" d="M834.65,-439.14C798.37,-429.84 758.34,-412.87 775.5,-385 802.79,-340.66 951.62,-308.5 1032.36,-294.03"/>
<polygon fill="#63b8ff" stroke="#63b8ff" points="834.2,-442.63 844.74,-441.56 835.83,-435.83 834.2,-442.63"/>
</a>
</g>
</g>
<!-- Node31 -->
<g id="Node000031" class="node">
<title>Node31</title>
<g id="a_Node000031"><a xlink:href="event__inlines_8h_source.html" target="_top" xlink:title=" ">
<polygon fill="white" stroke="#666666" points="876,-404 785,-404 785,-385 876,-385 876,-404"/>
<text text-anchor="middle" x="830.5" y="-392" font-family="Helvetica,sans-Serif" font-size="10.00">event_inlines.h</text>
</a>
</g>
</g>
<!-- Node7&#45;&gt;Node31 -->
<g id="edge39_Node000007_Node000031" class="edge">
<title>Node7&#45;&gt;Node31</title>
<g id="a_edge39_Node000007_Node000031"><a xlink:title=" ">
<path fill="none" stroke="#63b8ff" d="M868.22,-432.52C858.7,-423.18 847.06,-411.75 839.25,-404.09"/>
<polygon fill="#63b8ff" stroke="#63b8ff" points="865.99,-435.24 875.58,-439.75 870.9,-430.25 865.99,-435.24"/>
</a>
</g>
</g>
<!-- Node32 -->
<g id="Node000032" class="node">
<title>Node32</title>
<g id="a_Node000032"><a xlink:href="spec_2event__vector_8h.html" target="_top" xlink:title="ODP event vector.">
<polygon fill="white" stroke="#666666" points="983,-404 894,-404 894,-385 983,-385 983,-404"/>
<text text-anchor="middle" x="938.5" y="-392" font-family="Helvetica,sans-Serif" font-size="10.00">event_vector.h</text>
</a>
</g>
</g>
<!-- Node7&#45;&gt;Node32 -->
<g id="edge40_Node000007_Node000032" class="edge">
<title>Node7&#45;&gt;Node32</title>
<g id="a_edge40_Node000007_Node000032"><a xlink:title=" ">
<path fill="none" stroke="#63b8ff" d="M900.78,-432.52C910.3,-423.18 921.94,-411.75 929.75,-404.09"/>
<polygon fill="#63b8ff" stroke="#63b8ff" points="898.1,-430.25 893.42,-439.75 903.01,-435.24 898.1,-430.25"/>
</a>
</g>
</g>
<!-- Node34 -->
<g id="Node000034" class="node">
<title>Node34</title>
<g id="a_Node000034"><a xlink:href="spec_2ml_8h.html" target="_top" xlink:title="ODP Machine Learning (ML) offload.">
<polygon fill="white" stroke="#666666" points="1039.5,-404 1001.5,-404 1001.5,-385 1039.5,-385 1039.5,-404"/>
<text text-anchor="middle" x="1020.5" y="-392" font-family="Helvetica,sans-Serif" font-size="10.00">ml.h</text>
</a>
</g>
</g>
<!-- Node7&#45;&gt;Node34 -->
<g id="edge43_Node000007_Node000034" class="edge">
<title>Node7&#45;&gt;Node34</title>
<g id="a_edge43_Node000007_Node000034"><a xlink:title=" ">
<path fill="none" stroke="#63b8ff" d="M915.9,-436.26C942.29,-425.98 979.16,-411.61 1001.34,-402.97"/>
<polygon fill="#63b8ff" stroke="#63b8ff" points="914.4,-433.09 906.35,-439.98 916.94,-439.61 914.4,-433.09"/>
</a>
</g>
</g>
<!-- Node36 -->
<g id="Node000036" class="node">
<title>Node36</title>
<g id="a_Node000036"><a xlink:href="spec_2packet_8h.html" target="_top" xlink:title="ODP packet descriptor.">
<polygon fill="white" stroke="#666666" points="449.5,-294 391.5,-294 391.5,-275 449.5,-275 449.5,-294"/>
<text text-anchor="middle" x="420.5" y="-282" font-family="Helvetica,sans-Serif" font-size="10.00">packet.h</text>
</a>
</g>
</g>
<!-- Node7&#45;&gt;Node36 -->
<g id="edge45_Node000007_Node000036" class="edge">
<title>Node7&#45;&gt;Node36</title>
<g id="a_edge45_Node000007_Node000036"><a xlink:title=" ">
<path fill="none" stroke="#63b8ff" d="M834.77,-444.85C757.55,-438.64 612.76,-424.65 565.5,-404 504.13,-377.19 447.64,-316.8 427.91,-294.23"/>
<polygon fill="#63b8ff" stroke="#63b8ff" points="834.5,-448.34 844.75,-445.64 835.05,-441.37 834.5,-448.34"/>
</a>
</g>
</g>
<!-- Node38 -->
<g id="Node000038" class="node">
<title>Node38</title>
<g id="a_Node000038"><a xlink:href="spec_2packet__io__types_8h.html" target="_top" xlink:title="ODP Packet IO types.">
<polygon fill="white" stroke="#666666" points="345.5,-404 241.5,-404 241.5,-385 345.5,-385 345.5,-404"/>
<text text-anchor="middle" x="293.5" y="-392" font-family="Helvetica,sans-Serif" font-size="10.00">packet_io_types.h</text>
</a>
</g>
</g>
<!-- Node7&#45;&gt;Node38 -->
<g id="edge50_Node000007_Node000038" class="edge">
<title>Node7&#45;&gt;Node38</title>
<g id="a_edge50_Node000007_Node000038"><a xlink:title=" ">
<path fill="none" stroke="#63b8ff" d="M834.65,-444.08C744.98,-436.12 550.53,-418.82 386.5,-404 373.26,-402.8 358.96,-401.5 345.64,-400.28"/>
<polygon fill="#63b8ff" stroke="#63b8ff" points="834.53,-447.58 844.8,-444.98 835.15,-440.61 834.53,-447.58"/>
</a>
</g>
</g>
<!-- Node42 -->
<g id="Node000042" class="node">
<title>Node42</title>
<g id="a_Node000042"><a xlink:href="spec_2pool_8h.html" target="_top" xlink:title="ODP pool.">
<polygon fill="white" stroke="#666666" points="1105,-404 1058,-404 1058,-385 1105,-385 1105,-404"/>
<text text-anchor="middle" x="1081.5" y="-392" font-family="Helvetica,sans-Serif" font-size="10.00">pool.h</text>
</a>
</g>
</g>
<!-- Node7&#45;&gt;Node42 -->
<g id="edge60_Node000007_Node000042" class="edge">
<title>Node7&#45;&gt;Node42</title>
<g id="a_edge60_Node000007_Node000042"><a xlink:title=" ">
<path fill="none" stroke="#63b8ff" d="M925.9,-437.36C966,-426.57 1025.37,-410.6 1057.96,-401.83"/>
<polygon fill="#63b8ff" stroke="#63b8ff" points="924.9,-434.01 916.15,-439.98 926.72,-440.77 924.9,-434.01"/>
</a>
</g>
</g>
<!-- Node44 -->
<g id="Node000044" class="node">
<title>Node44</title>
<g id="a_Node000044"><a xlink:href="pool__inlines_8h_source.html" target="_top" xlink:title=" ">
<polygon fill="white" stroke="#666666" points="1207.5,-404 1123.5,-404 1123.5,-385 1207.5,-385 1207.5,-404"/>
<text text-anchor="middle" x="1165.5" y="-392" font-family="Helvetica,sans-Serif" font-size="10.00">pool_inlines.h</text>
</a>
</g>
</g>
<!-- Node7&#45;&gt;Node44 -->
<g id="edge62_Node000007_Node000044" class="edge">
<title>Node7&#45;&gt;Node44</title>
<g id="a_edge62_Node000007_Node000044"><a xlink:title=" ">
<path fill="none" stroke="#63b8ff" d="M934.15,-439.14C987.88,-429 1072.65,-413.01 1123.28,-403.46"/>
<polygon fill="#63b8ff" stroke="#63b8ff" points="933.34,-435.73 924.16,-441.02 934.64,-442.6 933.34,-435.73"/>
</a>
</g>
</g>
<!-- Node45 -->
<g id="Node000045" class="node">
<title>Node45</title>
<g id="a_Node000045"><a xlink:href="spec_2timer_8h.html" target="_top" xlink:title="ODP timer service.">
<polygon fill="white" stroke="#666666" points="1276,-404 1225,-404 1225,-385 1276,-385 1276,-404"/>
<text text-anchor="middle" x="1250.5" y="-392" font-family="Helvetica,sans-Serif" font-size="10.00">timer.h</text>
</a>
</g>
</g>
<!-- Node7&#45;&gt;Node45 -->
<g id="edge63_Node000007_Node000045" class="edge">
<title>Node7&#45;&gt;Node45</title>
<g id="a_edge63_Node000007_Node000045"><a xlink:title=" ">
<path fill="none" stroke="#63b8ff" d="M934.07,-443.6C999.21,-436.77 1117.01,-423.04 1216.5,-404 1219.25,-403.47 1222.11,-402.86 1224.95,-402.21"/>
<polygon fill="#63b8ff" stroke="#63b8ff" points="933.67,-440.13 924.08,-444.64 934.39,-447.09 933.67,-440.13"/>
</a>
</g>
</g>
<!-- Node9 -->
<g id="Node000009" class="node">
<title>Node9</title>
<g id="a_Node000009"><a xlink:href="buffer_8h.html" target="_top" xlink:title="ODP buffer descriptor.">
<polygon fill="white" stroke="#666666" points="1347,-349 1294,-349 1294,-330 1347,-330 1347,-349"/>
<text text-anchor="middle" x="1320.5" y="-337" font-family="Helvetica,sans-Serif" font-size="10.00">buffer.h</text>
</a>
</g>
</g>
<!-- Node8&#45;&gt;Node9 -->
<g id="edge8_Node000008_Node000009" class="edge">
<title>Node8&#45;&gt;Node9</title>
<g id="a_edge8_Node000008_Node000009"><a xlink:title=" ">
<path fill="none" stroke="#63b8ff" d="M1320.5,-374.66C1320.5,-365.93 1320.5,-355.99 1320.5,-349.09"/>
<polygon fill="#63b8ff" stroke="#63b8ff" points="1317,-374.75 1320.5,-384.75 1324,-374.75 1317,-374.75"/>
</a>
</g>
</g>
<!-- Node9&#45;&gt;Node5 -->
<g id="edge9_Node000009_Node000005" class="edge">
<title>Node9&#45;&gt;Node5</title>
<g id="a_edge9_Node000009_Node000005"><a xlink:title=" ">
<path fill="none" stroke="#63b8ff" d="M1336.79,-322.8C1346.54,-313.41 1358.55,-301.83 1366.59,-294.09"/>
<polygon fill="#63b8ff" stroke="#63b8ff" points="1334.35,-320.29 1329.58,-329.75 1339.21,-325.33 1334.35,-320.29"/>
</a>
</g>
</g>
<!-- Node12 -->
<g id="Node000012" class="node">
<title>Node12</title>
<g id="a_Node000012"><a xlink:href="classification_8h.html" target="_top" xlink:title="ODP classification descriptor.">
<polygon fill="white" stroke="#666666" points="336,-239 247,-239 247,-220 336,-220 336,-239"/>
<text text-anchor="middle" x="291.5" y="-227" font-family="Helvetica,sans-Serif" font-size="10.00">classification.h</text>
</a>
</g>
</g>
<!-- Node11&#45;&gt;Node12 -->
<g id="edge12_Node000011_Node000012" class="edge">
<title>Node11&#45;&gt;Node12</title>
<g id="a_edge12_Node000011_Node000012"><a xlink:title=" ">
<path fill="none" stroke="#63b8ff" d="M317.23,-266.39C310.69,-257.27 302.93,-246.45 297.66,-239.09"/>
<polygon fill="#63b8ff" stroke="#63b8ff" points="314.55,-268.66 323.23,-274.75 320.24,-264.58 314.55,-268.66"/>
</a>
</g>
</g>
<!-- Node13 -->
<g id="Node000013" class="node">
<title>Node13</title>
<g id="a_Node000013"><a xlink:href="spec_2ipsec__types_8h.html" target="_top" xlink:title="ODP IPsec API type definitions.">
<polygon fill="white" stroke="#666666" points="241,-184 158,-184 158,-165 241,-165 241,-184"/>
<text text-anchor="middle" x="199.5" y="-172" font-family="Helvetica,sans-Serif" font-size="10.00">ipsec_types.h</text>
</a>
</g>
</g>
<!-- Node12&#45;&gt;Node13 -->
<g id="edge13_Node000012_Node000013" class="edge">
<title>Node12&#45;&gt;Node13</title>
<g id="a_edge13_Node000012_Node000013"><a xlink:title=" ">
<path fill="none" stroke="#63b8ff" d="M268.01,-214.97C251.19,-205.28 229.05,-192.52 214.55,-184.17"/>
<polygon fill="#63b8ff" stroke="#63b8ff" points="266.31,-218.03 276.72,-219.98 269.8,-211.96 266.31,-218.03"/>
</a>
</g>
</g>
<!-- Node18 -->
<g id="Node000018" class="node">
<title>Node18</title>
<g id="a_Node000018"><a xlink:href="spec_2packet__io_8h.html" target="_top" xlink:title="ODP Packet IO.">
<polygon fill="white" stroke="#666666" points="334.5,-184 262.5,-184 262.5,-165 334.5,-165 334.5,-184"/>
<text text-anchor="middle" x="298.5" y="-172" font-family="Helvetica,sans-Serif" font-size="10.00">packet_io.h</text>
</a>
</g>
</g>
<!-- Node12&#45;&gt;Node18 -->
<g id="edge18_Node000012_Node000018" class="edge">
<title>Node12&#45;&gt;Node18</title>
<g id="a_edge18_Node000012_Node000018"><a xlink:title=" ">
<path fill="none" stroke="#63b8ff" d="M293.99,-209.66C295.14,-200.93 296.45,-190.99 297.37,-184.09"/>
<polygon fill="#63b8ff" stroke="#63b8ff" points="290.5,-209.38 292.66,-219.75 297.44,-210.29 290.5,-209.38"/>
</a>
</g>
</g>
<!-- Node14 -->
<g id="Node000014" class="node">
<title>Node14</title>
<g id="a_Node000014"><a xlink:href="ipsec__types_8h.html" target="_top" xlink:title="ODP IPsec.">
<polygon fill="white" stroke="#666666" points="241,-129 158,-129 158,-110 241,-110 241,-129"/>
<text text-anchor="middle" x="199.5" y="-117" font-family="Helvetica,sans-Serif" font-size="10.00">ipsec_types.h</text>
</a>
</g>
</g>
<!-- Node13&#45;&gt;Node14 -->
<g id="edge14_Node000013_Node000014" class="edge">
<title>Node13&#45;&gt;Node14</title>
<g id="a_edge14_Node000013_Node000014"><a xlink:title=" ">
<path fill="none" stroke="#63b8ff" d="M199.5,-154.66C199.5,-145.93 199.5,-135.99 199.5,-129.09"/>
<polygon fill="#63b8ff" stroke="#63b8ff" points="196,-154.75 199.5,-164.75 203,-154.75 196,-154.75"/>
</a>
</g>
</g>
<!-- Node15 -->
<g id="Node000015" class="node">
<title>Node15</title>
<g id="a_Node000015"><a xlink:href="spec_2ipsec_8h.html" target="_top" xlink:title="ODP IPsec API.">
<polygon fill="white" stroke="#666666" points="151,-74 100,-74 100,-55 151,-55 151,-74"/>
<text text-anchor="middle" x="125.5" y="-62" font-family="Helvetica,sans-Serif" font-size="10.00">ipsec.h</text>
</a>
</g>
</g>
<!-- Node14&#45;&gt;Node15 -->
<g id="edge15_Node000014_Node000015" class="edge">
<title>Node14&#45;&gt;Node15</title>
<g id="a_edge15_Node000014_Node000015"><a xlink:title=" ">
<path fill="none" stroke="#63b8ff" d="M179.47,-104.15C166.09,-94.57 148.94,-82.29 137.61,-74.17"/>
<polygon fill="#63b8ff" stroke="#63b8ff" points="177.44,-107.01 187.61,-109.98 181.52,-101.32 177.44,-107.01"/>
</a>
</g>
</g>
<!-- Node17 -->
<g id="Node000017" class="node">
<title>Node17</title>
<g id="a_Node000017"><a xlink:href="ipsec__inlines_8h_source.html" target="_top" xlink:title=" ">
<polygon fill="white" stroke="#666666" points="533,-74 444,-74 444,-55 533,-55 533,-74"/>
<text text-anchor="middle" x="488.5" y="-62" font-family="Helvetica,sans-Serif" font-size="10.00">ipsec_inlines.h</text>
</a>
</g>
</g>
<!-- Node14&#45;&gt;Node17 -->
<g id="edge17_Node000014_Node000017" class="edge">
<title>Node14&#45;&gt;Node17</title>
<g id="a_edge17_Node000014_Node000017"><a xlink:title=" ">
<path fill="none" stroke="#63b8ff" d="M251.09,-109.04C305.97,-98.97 391.91,-83.21 443.95,-73.67"/>
<polygon fill="#63b8ff" stroke="#63b8ff" points="250.42,-105.6 241.21,-110.85 251.68,-112.49 250.42,-105.6"/>
</a>
</g>
</g>
<!-- Node16 -->
<g id="Node000016" class="node">
<title>Node16</title>
<g id="a_Node000016"><a xlink:href="ipsec_8h.html" target="_top" xlink:title="ODP IPSEC API &#45; platform specific header.">
<polygon fill="white" stroke="#666666" points="151,-19 100,-19 100,0 151,0 151,-19"/>
<text text-anchor="middle" x="125.5" y="-7" font-family="Helvetica,sans-Serif" font-size="10.00">ipsec.h</text>
</a>
</g>
</g>
<!-- Node15&#45;&gt;Node16 -->
<g id="edge16_Node000015_Node000016" class="edge">
<title>Node15&#45;&gt;Node16</title>
<g id="a_edge16_Node000015_Node000016"><a xlink:title=" ">
<path fill="none" stroke="#63b8ff" d="M125.5,-44.66C125.5,-35.93 125.5,-25.99 125.5,-19.09"/>
<polygon fill="#63b8ff" stroke="#63b8ff" points="122,-44.75 125.5,-54.75 129,-44.75 122,-44.75"/>
</a>
</g>
</g>
<!-- Node19 -->
<g id="Node000019" class="node">
<title>Node19</title>
<g id="a_Node000019"><a xlink:href="packet__io_8h.html" target="_top" xlink:title="ODP Packet IO.">
<polygon fill="white" stroke="#666666" points="334.5,-129 262.5,-129 262.5,-110 334.5,-110 334.5,-129"/>
<text text-anchor="middle" x="298.5" y="-117" font-family="Helvetica,sans-Serif" font-size="10.00">packet_io.h</text>
</a>
</g>
</g>
<!-- Node18&#45;&gt;Node19 -->
<g id="edge19_Node000018_Node000019" class="edge">
<title>Node18&#45;&gt;Node19</title>
<g id="a_edge19_Node000018_Node000019"><a xlink:title=" ">
<path fill="none" stroke="#63b8ff" d="M298.5,-154.66C298.5,-145.93 298.5,-135.99 298.5,-129.09"/>
<polygon fill="#63b8ff" stroke="#63b8ff" points="295,-154.75 298.5,-164.75 302,-154.75 295,-154.75"/>
</a>
</g>
</g>
<!-- Node21 -->
<g id="Node000021" class="node">
<title>Node21</title>
<g id="a_Node000021"><a xlink:href="crypto__types_8h.html" target="_top" xlink:title="ODP crypto.">
<polygon fill="white" stroke="#666666" points="89,-239 0,-239 0,-220 89,-220 89,-239"/>
<text text-anchor="middle" x="44.5" y="-227" font-family="Helvetica,sans-Serif" font-size="10.00">crypto_types.h</text>
</a>
</g>
</g>
<!-- Node20&#45;&gt;Node21 -->
<g id="edge21_Node000020_Node000021" class="edge">
<title>Node20&#45;&gt;Node21</title>
<g id="a_edge21_Node000020_Node000021"><a xlink:title=" ">
<path fill="none" stroke="#63b8ff" d="M101.53,-321.07C86.78,-297.64 61.12,-256.89 49.95,-239.16"/>
<polygon fill="#63b8ff" stroke="#63b8ff" points="98.65,-323.06 106.94,-329.66 104.57,-319.33 98.65,-323.06"/>
</a>
</g>
</g>
<!-- Node21&#45;&gt;Node13 -->
<g id="edge26_Node000021_Node000013" class="edge">
<title>Node21&#45;&gt;Node13</title>
<g id="a_edge26_Node000021_Node000013"><a xlink:title=" ">
<path fill="none" stroke="#63b8ff" d="M79.1,-216.67C108,-206.79 148.53,-192.93 174.4,-184.08"/>
<polygon fill="#63b8ff" stroke="#63b8ff" points="77.73,-213.44 69.4,-219.98 80,-220.06 77.73,-213.44"/>
</a>
</g>
</g>
<!-- Node21&#45;&gt;Node15 -->
<g id="edge25_Node000021_Node000015" class="edge">
<title>Node21&#45;&gt;Node15</title>
<g id="a_edge25_Node000021_Node000015"><a xlink:title=" ">
<path fill="none" stroke="#63b8ff" d="M43.25,-209.84C42.48,-185.13 44.3,-141.06 63.5,-110 73.6,-93.66 92.15,-81.55 106.34,-74.13"/>
<polygon fill="#63b8ff" stroke="#63b8ff" points="39.76,-210.18 43.75,-219.99 46.75,-209.83 39.76,-210.18"/>
</a>
</g>
</g>
<!-- Node22 -->
<g id="Node000022" class="node">
<title>Node22</title>
<g id="a_Node000022"><a xlink:href="spec_2crypto_8h.html" target="_top" xlink:title="ODP crypto.">
<polygon fill="white" stroke="#666666" points="128.5,-184 72.5,-184 72.5,-165 128.5,-165 128.5,-184"/>
<text text-anchor="middle" x="100.5" y="-172" font-family="Helvetica,sans-Serif" font-size="10.00">crypto.h</text>
</a>
</g>
</g>
<!-- Node21&#45;&gt;Node22 -->
<g id="edge22_Node000021_Node000022" class="edge">
<title>Node21&#45;&gt;Node22</title>
<g id="a_edge22_Node000021_Node000022"><a xlink:title=" ">
<path fill="none" stroke="#63b8ff" d="M60.83,-213.04C70.76,-203.64 83.09,-191.98 91.34,-184.17"/>
<polygon fill="#63b8ff" stroke="#63b8ff" points="58.35,-210.57 53.5,-219.98 63.17,-215.65 58.35,-210.57"/>
</a>
</g>
</g>
<!-- Node24 -->
<g id="Node000024" class="node">
<title>Node24</title>
<g id="a_Node000024"><a xlink:href="crypto__inlines_8h_source.html" target="_top" xlink:title=" ">
<polygon fill="white" stroke="#666666" points="460.5,-184 366.5,-184 366.5,-165 460.5,-165 460.5,-184"/>
<text text-anchor="middle" x="413.5" y="-172" font-family="Helvetica,sans-Serif" font-size="10.00">crypto_inlines.h</text>
</a>
</g>
</g>
<!-- Node21&#45;&gt;Node24 -->
<g id="edge24_Node000021_Node000024" class="edge">
<title>Node21&#45;&gt;Node24</title>
<g id="a_edge24_Node000021_Node000024"><a xlink:title=" ">
<path fill="none" stroke="#63b8ff" d="M99.08,-219.78C199.97,-204.66 306.54,-189.98 366.35,-181.85"/>
<polygon fill="#63b8ff" stroke="#63b8ff" points="98.39,-216.35 89.02,-221.3 99.43,-223.27 98.39,-216.35"/>
</a>
</g>
</g>
<!-- Node23 -->
<g id="Node000023" class="node">
<title>Node23</title>
<g id="a_Node000023"><a xlink:href="crypto_8h.html" target="_top" xlink:title="ODP crypto.">
<polygon fill="white" stroke="#666666" points="128.5,-129 72.5,-129 72.5,-110 128.5,-110 128.5,-129"/>
<text text-anchor="middle" x="100.5" y="-117" font-family="Helvetica,sans-Serif" font-size="10.00">crypto.h</text>
</a>
</g>
</g>
<!-- Node22&#45;&gt;Node23 -->
<g id="edge23_Node000022_Node000023" class="edge">
<title>Node22&#45;&gt;Node23</title>
<g id="a_edge23_Node000022_Node000023"><a xlink:title=" ">
<path fill="none" stroke="#63b8ff" d="M100.5,-154.66C100.5,-145.93 100.5,-135.99 100.5,-129.09"/>
<polygon fill="#63b8ff" stroke="#63b8ff" points="97,-154.75 100.5,-164.75 104,-154.75 97,-154.75"/>
</a>
</g>
</g>
<!-- Node26 -->
<g id="Node000026" class="node">
<title>Node26</title>
<g id="a_Node000026"><a xlink:href="event_8h.html" target="_top" xlink:title="ODP event.">
<polygon fill="white" stroke="#666666" points="652,-349 599,-349 599,-330 652,-330 652,-349"/>
<text text-anchor="middle" x="625.5" y="-337" font-family="Helvetica,sans-Serif" font-size="10.00">event.h</text>
</a>
</g>
</g>
<!-- Node25&#45;&gt;Node26 -->
<g id="edge31_Node000025_Node000026" class="edge">
<title>Node25&#45;&gt;Node26</title>
<g id="a_edge31_Node000025_Node000026"><a xlink:title=" ">
<path fill="none" stroke="#63b8ff" d="M625.5,-374.66C625.5,-365.93 625.5,-355.99 625.5,-349.09"/>
<polygon fill="#63b8ff" stroke="#63b8ff" points="622,-374.75 625.5,-384.75 629,-374.75 622,-374.75"/>
</a>
</g>
</g>
<!-- Node26&#45;&gt;Node10 -->
<g id="edge32_Node000026_Node000010" class="edge">
<title>Node26&#45;&gt;Node10</title>
<g id="a_edge32_Node000026_Node000010"><a xlink:title=" ">
<path fill="none" stroke="#63b8ff" d="M598.31,-325.63C577.68,-315.87 549.88,-302.71 531.82,-294.17"/>
<polygon fill="#63b8ff" stroke="#63b8ff" points="596.97,-328.87 607.51,-329.98 599.96,-322.54 596.97,-328.87"/>
</a>
</g>
</g>
<!-- Node26&#45;&gt;Node17 -->
<g id="edge35_Node000026_Node000017" class="edge">
<title>Node26&#45;&gt;Node17</title>
<g id="a_edge35_Node000026_Node000017"><a xlink:title=" ">
<path fill="none" stroke="#63b8ff" d="M625.5,-319.77C625.5,-298.23 625.5,-261.81 625.5,-230.5 625.5,-230.5 625.5,-230.5 625.5,-173.5 625.5,-119.14 558.15,-87.91 517.89,-74.1"/>
<polygon fill="#63b8ff" stroke="#63b8ff" points="622,-319.82 625.5,-329.82 629,-319.82 622,-319.82"/>
</a>
</g>
</g>
<!-- Node26&#45;&gt;Node24 -->
<g id="edge33_Node000026_Node000024" class="edge">
<title>Node26&#45;&gt;Node24</title>
<g id="a_edge33_Node000026_Node000024"><a xlink:title=" ">
<path fill="none" stroke="#63b8ff" d="M612.47,-321.62C601.56,-308.12 585.16,-289.18 568.5,-275 522.23,-235.63 459.26,-199.89 429.87,-184.08"/>
<polygon fill="#63b8ff" stroke="#63b8ff" points="609.83,-323.93 618.78,-329.6 615.32,-319.59 609.83,-323.93"/>
</a>
</g>
</g>
<!-- Node26&#45;&gt;Node27 -->
<g id="edge34_Node000026_Node000027" class="edge">
<title>Node26&#45;&gt;Node27</title>
<g id="a_edge34_Node000026_Node000027"><a xlink:title=" ">
<path fill="none" stroke="#63b8ff" d="M662.32,-328.69C699.69,-318.74 756.97,-303.49 792.5,-294.02"/>
<polygon fill="#63b8ff" stroke="#63b8ff" points="661.1,-325.4 652.34,-331.35 662.9,-332.16 661.1,-325.4"/>
</a>
</g>
</g>
<!-- Node26&#45;&gt;Node28 -->
<g id="edge36_Node000026_Node000028" class="edge">
<title>Node26&#45;&gt;Node28</title>
<g id="a_edge36_Node000026_Node000028"><a xlink:title=" ">
<path fill="none" stroke="#63b8ff" d="M662.15,-332.58C721.78,-322.94 839.77,-303.88 905.84,-293.2"/>
<polygon fill="#63b8ff" stroke="#63b8ff" points="661.38,-329.16 652.06,-334.21 662.49,-336.07 661.38,-329.16"/>
</a>
</g>
</g>
<!-- Node26&#45;&gt;Node29 -->
<g id="edge37_Node000026_Node000029" class="edge">
<title>Node26&#45;&gt;Node29</title>
<g id="a_edge37_Node000026_Node000029"><a xlink:title=" ">
<path fill="none" stroke="#63b8ff" d="M662.4,-334.24C739.96,-325.28 920.77,-304.41 1018.68,-293.1"/>
<polygon fill="#63b8ff" stroke="#63b8ff" points="661.69,-330.8 652.16,-335.42 662.5,-337.75 661.69,-330.8"/>
</a>
</g>
</g>
<!-- Node30 -->
<g id="Node000030" class="node">
<title>Node30</title>
<g id="a_Node000030"><a xlink:href="timer__inlines_8h_source.html" target="_top" xlink:title=" ">
<polygon fill="white" stroke="#666666" points="743,-294 654,-294 654,-275 743,-275 743,-294"/>
<text text-anchor="middle" x="698.5" y="-282" font-family="Helvetica,sans-Serif" font-size="10.00">timer_inlines.h</text>
</a>
</g>
</g>
<!-- Node26&#45;&gt;Node30 -->
<g id="edge38_Node000026_Node000030" class="edge">
<title>Node26&#45;&gt;Node30</title>
<g id="a_edge38_Node000026_Node000030"><a xlink:title=" ">
<path fill="none" stroke="#63b8ff" d="M645.64,-323.88C658.78,-314.34 675.48,-302.21 686.56,-294.17"/>
<polygon fill="#63b8ff" stroke="#63b8ff" points="643.26,-321.28 637.23,-329.98 647.38,-326.94 643.26,-321.28"/>
</a>
</g>
</g>
<!-- Node33 -->
<g id="Node000033" class="node">
<title>Node33</title>
<g id="a_Node000033"><a xlink:href="event__vector_8h.html" target="_top" xlink:title="ODP event vector.">
<polygon fill="white" stroke="#666666" points="983,-349 894,-349 894,-330 983,-330 983,-349"/>
<text text-anchor="middle" x="938.5" y="-337" font-family="Helvetica,sans-Serif" font-size="10.00">event_vector.h</text>
</a>
</g>
</g>
<!-- Node32&#45;&gt;Node33 -->
<g id="edge41_Node000032_Node000033" class="edge">
<title>Node32&#45;&gt;Node33</title>
<g id="a_edge41_Node000032_Node000033"><a xlink:title=" ">
<path fill="none" stroke="#63b8ff" d="M938.5,-374.66C938.5,-365.93 938.5,-355.99 938.5,-349.09"/>
<polygon fill="#63b8ff" stroke="#63b8ff" points="935,-374.75 938.5,-384.75 942,-374.75 935,-374.75"/>
</a>
</g>
</g>
<!-- Node35 -->
<g id="Node000035" class="node">
<title>Node35</title>
<g id="a_Node000035"><a xlink:href="ml_8h.html" target="_top" xlink:title="ODP Machine Learning (ML) offload.">
<polygon fill="white" stroke="#666666" points="1039.5,-349 1001.5,-349 1001.5,-330 1039.5,-330 1039.5,-349"/>
<text text-anchor="middle" x="1020.5" y="-337" font-family="Helvetica,sans-Serif" font-size="10.00">ml.h</text>
</a>
</g>
</g>
<!-- Node34&#45;&gt;Node35 -->
<g id="edge44_Node000034_Node000035" class="edge">
<title>Node34&#45;&gt;Node35</title>
<g id="a_edge44_Node000034_Node000035"><a xlink:title=" ">
<path fill="none" stroke="#63b8ff" d="M1020.5,-374.66C1020.5,-365.93 1020.5,-355.99 1020.5,-349.09"/>
<polygon fill="#63b8ff" stroke="#63b8ff" points="1017,-374.75 1020.5,-384.75 1024,-374.75 1017,-374.75"/>
</a>
</g>
</g>
<!-- Node37 -->
<g id="Node000037" class="node">
<title>Node37</title>
<g id="a_Node000037"><a xlink:href="packet_8h.html" target="_top" xlink:title="ODP packet descriptor.">
<polygon fill="white" stroke="#666666" points="450.5,-239 392.5,-239 392.5,-220 450.5,-220 450.5,-239"/>
<text text-anchor="middle" x="421.5" y="-227" font-family="Helvetica,sans-Serif" font-size="10.00">packet.h</text>
</a>
</g>
</g>
<!-- Node36&#45;&gt;Node37 -->
<g id="edge46_Node000036_Node000037" class="edge">
<title>Node36&#45;&gt;Node37</title>
<g id="a_edge46_Node000036_Node000037"><a xlink:title=" ">
<path fill="none" stroke="#63b8ff" d="M420.86,-264.66C421.02,-255.93 421.21,-245.99 421.34,-239.09"/>
<polygon fill="#63b8ff" stroke="#63b8ff" points="417.35,-264.68 420.67,-274.75 424.35,-264.82 417.35,-264.68"/>
</a>
</g>
</g>
<!-- Node37&#45;&gt;Node17 -->
<g id="edge48_Node000037_Node000017" class="edge">
<title>Node37&#45;&gt;Node17</title>
<g id="a_edge48_Node000037_Node000017"><a xlink:title=" ">
<path fill="none" stroke="#63b8ff" d="M442.9,-213.87C452.56,-206.13 463.2,-195.78 469.5,-184 489.35,-146.89 489.7,-94.56 488.97,-74.14"/>
<polygon fill="#63b8ff" stroke="#63b8ff" points="440.68,-211.16 434.8,-219.98 444.89,-216.75 440.68,-211.16"/>
</a>
</g>
</g>
<!-- Node37&#45;&gt;Node24 -->
<g id="edge47_Node000037_Node000024" class="edge">
<title>Node37&#45;&gt;Node24</title>
<g id="a_edge47_Node000037_Node000024"><a xlink:title=" ">
<path fill="none" stroke="#63b8ff" d="M418.66,-209.66C417.34,-200.93 415.84,-190.99 414.8,-184.09"/>
<polygon fill="#63b8ff" stroke="#63b8ff" points="415.23,-210.38 420.18,-219.75 422.15,-209.34 415.23,-210.38"/>
</a>
</g>
</g>
<!-- Node39 -->
<g id="Node000039" class="node">
<title>Node39</title>
<g id="a_Node000039"><a xlink:href="packet__io__types_8h.html" target="_top" xlink:title="ODP Packet IO.">
<polygon fill="white" stroke="#666666" points="319.5,-349 215.5,-349 215.5,-330 319.5,-330 319.5,-349"/>
<text text-anchor="middle" x="267.5" y="-337" font-family="Helvetica,sans-Serif" font-size="10.00">packet_io_types.h</text>
</a>
</g>
</g>
<!-- Node38&#45;&gt;Node39 -->
<g id="edge51_Node000038_Node000039" class="edge">
<title>Node38&#45;&gt;Node39</title>
<g id="a_edge51_Node000038_Node000039"><a xlink:title=" ">
<path fill="none" stroke="#63b8ff" d="M284.68,-375.53C280.3,-366.6 275.21,-356.22 271.71,-349.09"/>
<polygon fill="#63b8ff" stroke="#63b8ff" points="281.66,-377.31 289.21,-384.75 287.94,-374.23 281.66,-377.31"/>
</a>
</g>
</g>
<!-- Node39&#45;&gt;Node11 -->
<g id="edge52_Node000039_Node000011" class="edge">
<title>Node39&#45;&gt;Node11</title>
<g id="a_edge52_Node000039_Node000011"><a xlink:title=" ">
<path fill="none" stroke="#63b8ff" d="M285.25,-323.32C296.31,-313.87 310.13,-302.06 319.36,-294.17"/>
<polygon fill="#63b8ff" stroke="#63b8ff" points="282.79,-320.83 277.46,-329.98 287.34,-326.15 282.79,-320.83"/>
</a>
</g>
</g>
<!-- Node39&#45;&gt;Node13 -->
<g id="edge53_Node000039_Node000013" class="edge">
<title>Node39&#45;&gt;Node13</title>
<g id="a_edge53_Node000039_Node000013"><a xlink:title=" ">
<path fill="none" stroke="#63b8ff" d="M259.9,-320.28C245.32,-285.32 213.9,-210.01 203.17,-184.31"/>
<polygon fill="#63b8ff" stroke="#63b8ff" points="256.76,-321.85 263.84,-329.74 263.22,-319.16 256.76,-321.85"/>
</a>
</g>
</g>
<!-- Node39&#45;&gt;Node18 -->
<g id="edge55_Node000039_Node000018" class="edge">
<title>Node39&#45;&gt;Node18</title>
<g id="a_edge55_Node000039_Node000018"><a xlink:title=" ">
<path fill="none" stroke="#63b8ff" d="M265.49,-319.7C265.01,-306.12 266.48,-287.97 275.5,-275 295.25,-246.6 326.57,-268.58 344.5,-239 356.99,-218.4 330.22,-195.93 312.51,-184.02"/>
<polygon fill="#63b8ff" stroke="#63b8ff" points="262.01,-320.09 266.22,-329.81 268.99,-319.58 262.01,-320.09"/>
</a>
</g>
</g>
<!-- Node39&#45;&gt;Node36 -->
<g id="edge54_Node000039_Node000036" class="edge">
<title>Node39&#45;&gt;Node36</title>
<g id="a_edge54_Node000039_Node000036"><a xlink:title=" ">
<path fill="none" stroke="#63b8ff" d="M301.65,-326.67C330.18,-316.79 370.19,-302.93 395.73,-294.08"/>
<polygon fill="#63b8ff" stroke="#63b8ff" points="300.39,-323.4 292.08,-329.98 302.68,-330.02 300.39,-323.4"/>
</a>
</g>
</g>
<!-- Node40 -->
<g id="Node000040" class="node">
<title>Node40</title>
<g id="a_Node000040"><a xlink:href="spec_2traffic__mngr_8h.html" target="_top" xlink:title=" ">
<polygon fill="white" stroke="#666666" points="190.5,-294 106.5,-294 106.5,-275 190.5,-275 190.5,-294"/>
<text text-anchor="middle" x="148.5" y="-282" font-family="Helvetica,sans-Serif" font-size="10.00">traffic_mngr.h</text>
</a>
</g>
</g>
<!-- Node39&#45;&gt;Node40 -->
<g id="edge56_Node000039_Node000040" class="edge">
<title>Node39&#45;&gt;Node40</title>
<g id="a_edge56_Node000039_Node000040"><a xlink:title=" ">
<path fill="none" stroke="#63b8ff" d="M239.2,-325.9C217.22,-316.11 187.32,-302.79 167.97,-294.17"/>
<polygon fill="#63b8ff" stroke="#63b8ff" points="237.82,-329.11 248.38,-329.98 240.67,-322.72 237.82,-329.11"/>
</a>
</g>
</g>
<!-- Node41 -->
<g id="Node000041" class="node">
<title>Node41</title>
<g id="a_Node000041"><a xlink:href="traffic__mngr_8h.html" target="_top" xlink:title="ODP Traffic manager.">
<polygon fill="white" stroke="#666666" points="190.5,-239 106.5,-239 106.5,-220 190.5,-220 190.5,-239"/>
<text text-anchor="middle" x="148.5" y="-227" font-family="Helvetica,sans-Serif" font-size="10.00">traffic_mngr.h</text>
</a>
</g>
</g>
<!-- Node40&#45;&gt;Node41 -->
<g id="edge57_Node000040_Node000041" class="edge">
<title>Node40&#45;&gt;Node41</title>
<g id="a_edge57_Node000040_Node000041"><a xlink:title=" ">
<path fill="none" stroke="#63b8ff" d="M148.5,-264.66C148.5,-255.93 148.5,-245.99 148.5,-239.09"/>
<polygon fill="#63b8ff" stroke="#63b8ff" points="145,-264.75 148.5,-274.75 152,-264.75 145,-264.75"/>
</a>
</g>
</g>
<!-- Node41&#45;&gt;Node13 -->
<g id="edge58_Node000041_Node000013" class="edge">
<title>Node41&#45;&gt;Node13</title>
<g id="a_edge58_Node000041_Node000013"><a xlink:title=" ">
<path fill="none" stroke="#63b8ff" d="M163.88,-212.52C172.87,-203.18 183.86,-191.75 191.24,-184.09"/>
<polygon fill="#63b8ff" stroke="#63b8ff" points="161.33,-210.12 156.92,-219.75 166.38,-214.97 161.33,-210.12"/>
</a>
</g>
</g>
<!-- Node43 -->
<g id="Node000043" class="node">
<title>Node43</title>
<g id="a_Node000043"><a xlink:href="pool_8h.html" target="_top" xlink:title="ODP pool.">
<polygon fill="white" stroke="#666666" points="1105,-349 1058,-349 1058,-330 1105,-330 1105,-349"/>
<text text-anchor="middle" x="1081.5" y="-337" font-family="Helvetica,sans-Serif" font-size="10.00">pool.h</text>
</a>
</g>
</g>
<!-- Node42&#45;&gt;Node43 -->
<g id="edge61_Node000042_Node000043" class="edge">
<title>Node42&#45;&gt;Node43</title>
<g id="a_edge61_Node000042_Node000043"><a xlink:title=" ">
<path fill="none" stroke="#63b8ff" d="M1081.5,-374.66C1081.5,-365.93 1081.5,-355.99 1081.5,-349.09"/>
<polygon fill="#63b8ff" stroke="#63b8ff" points="1078,-374.75 1081.5,-384.75 1085,-374.75 1078,-374.75"/>
</a>
</g>
</g>
<!-- Node46 -->
<g id="Node000046" class="node">
<title>Node46</title>
<g id="a_Node000046"><a xlink:href="timer_8h.html" target="_top" xlink:title="ODP timer service.">
<polygon fill="white" stroke="#666666" points="1276,-349 1225,-349 1225,-330 1276,-330 1276,-349"/>
<text text-anchor="middle" x="1250.5" y="-337" font-family="Helvetica,sans-Serif" font-size="10.00">timer.h</text>
</a>
</g>
</g>
<!-- Node45&#45;&gt;Node46 -->
<g id="edge64_Node000045_Node000046" class="edge">
<title>Node45&#45;&gt;Node46</title>
<g id="a_edge64_Node000045_Node000046"><a xlink:title=" ">
<path fill="none" stroke="#63b8ff" d="M1250.5,-374.66C1250.5,-365.93 1250.5,-355.99 1250.5,-349.09"/>
<polygon fill="#63b8ff" stroke="#63b8ff" points="1247,-374.75 1250.5,-384.75 1254,-374.75 1247,-374.75"/>
</a>
</g>
</g>
</g>
</svg>
