<?xml version="1.0" encoding="UTF-8" standalone="no"?>
<!DOCTYPE svg PUBLIC "-//W3C//DTD SVG 1.1//EN"
 "http://www.w3.org/Graphics/SVG/1.1/DTD/svg11.dtd">
<!-- Generated by graphviz version 2.43.0 (0)
 -->
<!-- Title: align.h Pages: 1 -->
<svg width="4584pt" height="364pt"
 viewBox="0.00 0.00 4583.50 364.00" xmlns="http://www.w3.org/2000/svg" xmlns:xlink="http://www.w3.org/1999/xlink">
<g id="graph0" class="graph" transform="scale(1 1) rotate(0) translate(4 360)">
<title>align.h</title>
<polygon fill="white" stroke="transparent" points="-4,4 -4,-360 4579.5,-360 4579.5,4 -4,4"/>
<!-- Node1 -->
<g id="node1" class="node">
<title>Node1</title>
<g id="a_node1"><a xlink:title="ODP alignments.">
<polygon fill="#bfbfbf" stroke="black" points="119.5,-336.5 119.5,-355.5 169.5,-355.5 169.5,-336.5 119.5,-336.5"/>
<text text-anchor="middle" x="144.5" y="-343.5" font-family="Helvetica,sans-Serif" font-size="10.00">align.h</text>
</a>
</g>
</g>
<!-- Node2 -->
<g id="node2" class="node">
<title>Node2</title>
<g id="a_node2"><a xlink:href="align_8h.html" target="_top" xlink:title="ODP alignments.">
<polygon fill="white" stroke="black" points="119.5,-280.5 119.5,-299.5 169.5,-299.5 169.5,-280.5 119.5,-280.5"/>
<text text-anchor="middle" x="144.5" y="-287.5" font-family="Helvetica,sans-Serif" font-size="10.00">align.h</text>
</a>
</g>
</g>
<!-- Node1&#45;&gt;Node2 -->
<g id="edge1" class="edge">
<title>Node1&#45;&gt;Node2</title>
<path fill="none" stroke="midnightblue" d="M144.5,-325.8C144.5,-316.91 144.5,-306.78 144.5,-299.75"/>
<polygon fill="midnightblue" stroke="midnightblue" points="141,-326.08 144.5,-336.08 148,-326.08 141,-326.08"/>
</g>
<!-- Node3 -->
<g id="node3" class="node">
<title>Node3</title>
<g id="a_node3"><a xlink:href="abi-default_2atomic_8h.html" target="_top" xlink:title="ODP atomic operations.">
<polygon fill="white" stroke="black" points="0,-112.5 0,-131.5 59,-131.5 59,-112.5 0,-112.5"/>
<text text-anchor="middle" x="29.5" y="-119.5" font-family="Helvetica,sans-Serif" font-size="10.00">atomic.h</text>
</a>
</g>
</g>
<!-- Node2&#45;&gt;Node3 -->
<g id="edge2" class="edge">
<title>Node2&#45;&gt;Node3</title>
<path fill="none" stroke="midnightblue" d="M132.56,-271.76C108.19,-236.59 53.52,-157.68 35.44,-131.57"/>
<polygon fill="midnightblue" stroke="midnightblue" points="129.75,-273.85 138.32,-280.08 135.5,-269.86 129.75,-273.85"/>
</g>
<!-- Node4 -->
<g id="node4" class="node">
<title>Node4</title>
<g id="a_node4"><a xlink:href="abi-default_2cpumask_8h.html" target="_top" xlink:title="ODP CPU masks and enumeration.">
<polygon fill="white" stroke="black" points="77.5,-112.5 77.5,-131.5 147.5,-131.5 147.5,-112.5 77.5,-112.5"/>
<text text-anchor="middle" x="112.5" y="-119.5" font-family="Helvetica,sans-Serif" font-size="10.00">cpumask.h</text>
</a>
</g>
</g>
<!-- Node2&#45;&gt;Node4 -->
<g id="edge3" class="edge">
<title>Node2&#45;&gt;Node4</title>
<path fill="none" stroke="midnightblue" d="M138.7,-270.88C136.24,-262.73 133.49,-252.94 131.5,-244 122.24,-202.27 115.81,-151.48 113.47,-131.58"/>
<polygon fill="midnightblue" stroke="midnightblue" points="135.37,-271.95 141.68,-280.46 142.05,-269.87 135.37,-271.95"/>
</g>
<!-- Node5 -->
<g id="node5" class="node">
<title>Node5</title>
<g id="a_node5"><a xlink:href="spec_2std__types_8h.html" target="_top" xlink:title="Common types and definitions for ODP API files.">
<polygon fill="white" stroke="black" points="141,-224.5 141,-243.5 214,-243.5 214,-224.5 141,-224.5"/>
<text text-anchor="middle" x="177.5" y="-231.5" font-family="Helvetica,sans-Serif" font-size="10.00">std_types.h</text>
</a>
</g>
</g>
<!-- Node2&#45;&gt;Node5 -->
<g id="edge4" class="edge">
<title>Node2&#45;&gt;Node5</title>
<path fill="none" stroke="midnightblue" d="M155.33,-271.27C160.97,-262.05 167.62,-251.17 172.15,-243.75"/>
<polygon fill="midnightblue" stroke="midnightblue" points="152.18,-269.73 149.95,-280.08 158.15,-273.38 152.18,-269.73"/>
</g>
<!-- Node134 -->
<g id="node60" class="node">
<title>Node134</title>
<g id="a_node60"><a xlink:href="time__inlines_8h_source.html" target="_top" xlink:title=" ">
<polygon fill="white" stroke="black" points="232.5,-224.5 232.5,-243.5 318.5,-243.5 318.5,-224.5 232.5,-224.5"/>
<text text-anchor="middle" x="275.5" y="-231.5" font-family="Helvetica,sans-Serif" font-size="10.00">time_inlines.h</text>
</a>
</g>
</g>
<!-- Node2&#45;&gt;Node134 -->
<g id="edge63" class="edge">
<title>Node2&#45;&gt;Node134</title>
<path fill="none" stroke="midnightblue" d="M174.82,-276.5C199.38,-266.38 233.32,-252.39 254.84,-243.52"/>
<polygon fill="midnightblue" stroke="midnightblue" points="173.17,-273.4 165.26,-280.44 175.84,-279.87 173.17,-273.4"/>
</g>
<!-- Node6 -->
<g id="node6" class="node">
<title>Node6</title>
<g id="a_node6"><a xlink:href="std__types_8h.html" target="_top" xlink:title="Standard C language types and definitions for ODP.">
<polygon fill="white" stroke="black" points="2070,-168.5 2070,-187.5 2143,-187.5 2143,-168.5 2070,-168.5"/>
<text text-anchor="middle" x="2106.5" y="-175.5" font-family="Helvetica,sans-Serif" font-size="10.00">std_types.h</text>
</a>
</g>
</g>
<!-- Node5&#45;&gt;Node6 -->
<g id="edge5" class="edge">
<title>Node5&#45;&gt;Node6</title>
<path fill="none" stroke="midnightblue" d="M224.17,-224.19C621.71,-182.84 1842.65,-179.33 2069.9,-179.03"/>
<polygon fill="midnightblue" stroke="midnightblue" points="223.64,-220.72 214.07,-225.26 224.39,-227.68 223.64,-220.72"/>
</g>
<!-- Node6&#45;&gt;Node3 -->
<g id="edge6" class="edge">
<title>Node6&#45;&gt;Node3</title>
<path fill="none" stroke="midnightblue" d="M2059.53,-177.27C1793.34,-178.59 472,-182.47 68.5,-132 65.47,-131.62 62.32,-131.11 59.2,-130.51"/>
<polygon fill="midnightblue" stroke="midnightblue" points="2059.64,-180.77 2069.62,-177.22 2059.61,-173.77 2059.64,-180.77"/>
</g>
<!-- Node6&#45;&gt;Node4 -->
<g id="edge9" class="edge">
<title>Node6&#45;&gt;Node4</title>
<path fill="none" stroke="midnightblue" d="M2059.53,-177.06C1800.31,-177.19 542.12,-175.53 156.5,-132 153.71,-131.69 150.84,-131.28 147.95,-130.82"/>
<polygon fill="midnightblue" stroke="midnightblue" points="2059.73,-180.56 2069.73,-177.05 2059.73,-173.56 2059.73,-180.56"/>
</g>
<!-- Node7 -->
<g id="node7" class="node">
<title>Node7</title>
<g id="a_node7"><a xlink:href="abi-default_2barrier_8h.html" target="_top" xlink:title="ODP barrier.">
<polygon fill="white" stroke="black" points="4019,-112.5 4019,-131.5 4076,-131.5 4076,-112.5 4019,-112.5"/>
<text text-anchor="middle" x="4047.5" y="-119.5" font-family="Helvetica,sans-Serif" font-size="10.00">barrier.h</text>
</a>
</g>
</g>
<!-- Node6&#45;&gt;Node7 -->
<g id="edge7" class="edge">
<title>Node6&#45;&gt;Node7</title>
<path fill="none" stroke="midnightblue" d="M2153.21,-177.26C2408.29,-178.45 3635.24,-181.49 4010.5,-132 4013.25,-131.64 4016.1,-131.15 4018.93,-130.59"/>
<polygon fill="midnightblue" stroke="midnightblue" points="2153.18,-173.76 2143.17,-177.21 2153.15,-180.76 2153.18,-173.76"/>
</g>
<!-- Node8 -->
<g id="node8" class="node">
<title>Node8</title>
<g id="a_node8"><a xlink:href="abi-default_2byteorder_8h.html" target="_top" xlink:title="ODP byteorder.">
<polygon fill="white" stroke="black" points="4094.5,-112.5 4094.5,-131.5 4166.5,-131.5 4166.5,-112.5 4094.5,-112.5"/>
<text text-anchor="middle" x="4130.5" y="-119.5" font-family="Helvetica,sans-Serif" font-size="10.00">byteorder.h</text>
</a>
</g>
</g>
<!-- Node6&#45;&gt;Node8 -->
<g id="edge8" class="edge">
<title>Node6&#45;&gt;Node8</title>
<path fill="none" stroke="midnightblue" d="M2153.32,-177.05C2414.48,-177.13 3693.63,-175.31 4085.5,-132 4088.35,-131.68 4091.29,-131.28 4094.24,-130.82"/>
<polygon fill="midnightblue" stroke="midnightblue" points="2153.05,-173.55 2143.05,-177.04 2153.05,-180.55 2153.05,-173.55"/>
</g>
<!-- Node9 -->
<g id="node9" class="node">
<title>Node9</title>
<g id="a_node9"><a xlink:href="abi-default_2init_8h.html" target="_top" xlink:title="ODP initialization.">
<polygon fill="white" stroke="black" points="4185,-112.5 4185,-131.5 4226,-131.5 4226,-112.5 4185,-112.5"/>
<text text-anchor="middle" x="4205.5" y="-119.5" font-family="Helvetica,sans-Serif" font-size="10.00">init.h</text>
</a>
</g>
</g>
<!-- Node6&#45;&gt;Node9 -->
<g id="edge10" class="edge">
<title>Node6&#45;&gt;Node9</title>
<path fill="none" stroke="midnightblue" d="M2153.1,-176.74C2440.81,-175.03 3969.88,-164.47 4175.5,-132 4178.51,-131.53 4181.64,-130.83 4184.69,-130.03"/>
<polygon fill="midnightblue" stroke="midnightblue" points="2152.99,-173.24 2143.01,-176.8 2153.03,-180.24 2152.99,-173.24"/>
</g>
<!-- Node10 -->
<g id="node10" class="node">
<title>Node10</title>
<g id="a_node10"><a xlink:href="abi-default_2ipsec__types_8h_source.html" target="_top" xlink:title=" ">
<polygon fill="white" stroke="black" points="4244,-112.5 4244,-131.5 4327,-131.5 4327,-112.5 4244,-112.5"/>
<text text-anchor="middle" x="4285.5" y="-119.5" font-family="Helvetica,sans-Serif" font-size="10.00">ipsec_types.h</text>
</a>
</g>
</g>
<!-- Node6&#45;&gt;Node10 -->
<g id="edge11" class="edge">
<title>Node6&#45;&gt;Node10</title>
<path fill="none" stroke="midnightblue" d="M2153.76,-177.01C2427.48,-176.92 3811.9,-174.34 4235.5,-132 4238.22,-131.73 4241.02,-131.39 4243.83,-131.01"/>
<polygon fill="midnightblue" stroke="midnightblue" points="2153.39,-173.51 2143.39,-177.01 2153.39,-180.51 2153.39,-173.51"/>
</g>
<!-- Node11 -->
<g id="node11" class="node">
<title>Node11</title>
<g id="a_node11"><a xlink:href="abi-default_2packet__io__types_8h.html" target="_top" xlink:title="ODP Packet IO.">
<polygon fill="white" stroke="black" points="4345.5,-112.5 4345.5,-131.5 4449.5,-131.5 4449.5,-112.5 4345.5,-112.5"/>
<text text-anchor="middle" x="4397.5" y="-119.5" font-family="Helvetica,sans-Serif" font-size="10.00">packet_io_types.h</text>
</a>
</g>
</g>
<!-- Node6&#45;&gt;Node11 -->
<g id="edge12" class="edge">
<title>Node6&#45;&gt;Node11</title>
<path fill="none" stroke="midnightblue" d="M2153.29,-176.86C2433.36,-175.91 3890.74,-169.23 4336.5,-132 4339.38,-131.76 4342.33,-131.47 4345.31,-131.14"/>
<polygon fill="midnightblue" stroke="midnightblue" points="2153.06,-173.36 2143.07,-176.9 2153.09,-180.36 2153.06,-173.36"/>
</g>
<!-- Node12 -->
<g id="node12" class="node">
<title>Node12</title>
<g id="a_node12"><a xlink:href="abi-default_2rwlock__recursive_8h.html" target="_top" xlink:title="ODP recursive read/write lock.">
<polygon fill="white" stroke="black" points="4467.5,-112.5 4467.5,-131.5 4575.5,-131.5 4575.5,-112.5 4467.5,-112.5"/>
<text text-anchor="middle" x="4521.5" y="-119.5" font-family="Helvetica,sans-Serif" font-size="10.00">rwlock_recursive.h</text>
</a>
</g>
</g>
<!-- Node6&#45;&gt;Node12 -->
<g id="edge13" class="edge">
<title>Node6&#45;&gt;Node12</title>
<path fill="none" stroke="midnightblue" d="M2153.54,-176.89C2443.12,-176.08 3987.02,-170.04 4458.5,-132 4461.36,-131.77 4464.29,-131.49 4467.25,-131.18"/>
<polygon fill="midnightblue" stroke="midnightblue" points="2153.37,-173.39 2143.38,-176.92 2153.39,-180.39 2153.37,-173.39"/>
</g>
<!-- Node13 -->
<g id="node13" class="node">
<title>Node13</title>
<g id="a_node13"><a xlink:href="abi-default_2schedule__types_8h.html" target="_top" xlink:title="ODP schedule.">
<polygon fill="white" stroke="black" points="166,-112.5 166,-131.5 267,-131.5 267,-112.5 166,-112.5"/>
<text text-anchor="middle" x="216.5" y="-119.5" font-family="Helvetica,sans-Serif" font-size="10.00">schedule_types.h</text>
</a>
</g>
</g>
<!-- Node6&#45;&gt;Node13 -->
<g id="edge14" class="edge">
<title>Node6&#45;&gt;Node13</title>
<path fill="none" stroke="midnightblue" d="M2059.7,-176.64C1810.58,-174.59 637.98,-163.43 276.5,-132 273.46,-131.74 270.33,-131.42 267.19,-131.06"/>
<polygon fill="midnightblue" stroke="midnightblue" points="2059.83,-180.14 2069.86,-176.72 2059.89,-173.14 2059.83,-180.14"/>
</g>
<!-- Node14 -->
<g id="node14" class="node">
<title>Node14</title>
<g id="a_node14"><a xlink:href="abi-default_2spinlock__recursive_8h.html" target="_top" xlink:title="ODP recursive spinlock.">
<polygon fill="white" stroke="black" points="285.5,-112.5 285.5,-131.5 401.5,-131.5 401.5,-112.5 285.5,-112.5"/>
<text text-anchor="middle" x="343.5" y="-119.5" font-family="Helvetica,sans-Serif" font-size="10.00">spinlock_recursive.h</text>
</a>
</g>
</g>
<!-- Node6&#45;&gt;Node14 -->
<g id="edge15" class="edge">
<title>Node6&#45;&gt;Node14</title>
<path fill="none" stroke="midnightblue" d="M2059.75,-176.44C1821.85,-173.47 744.1,-158.75 410.5,-132 407.58,-131.77 404.58,-131.49 401.56,-131.19"/>
<polygon fill="midnightblue" stroke="midnightblue" points="2059.75,-179.94 2069.79,-176.56 2059.84,-172.94 2059.75,-179.94"/>
</g>
<!-- Node15 -->
<g id="node15" class="node">
<title>Node15</title>
<g id="a_node15"><a xlink:href="abi-default_2traffic__mngr_8h.html" target="_top" xlink:title="ODP traffic mngr.">
<polygon fill="white" stroke="black" points="419.5,-112.5 419.5,-131.5 503.5,-131.5 503.5,-112.5 419.5,-112.5"/>
<text text-anchor="middle" x="461.5" y="-119.5" font-family="Helvetica,sans-Serif" font-size="10.00">traffic_mngr.h</text>
</a>
</g>
</g>
<!-- Node6&#45;&gt;Node15 -->
<g id="edge16" class="edge">
<title>Node6&#45;&gt;Node15</title>
<path fill="none" stroke="midnightblue" d="M2059.65,-176.6C1830.26,-174.52 824.12,-163.72 512.5,-132 509.64,-131.71 506.69,-131.35 503.73,-130.94"/>
<polygon fill="midnightblue" stroke="midnightblue" points="2059.95,-180.11 2069.98,-176.7 2060.01,-173.11 2059.95,-180.11"/>
</g>
<!-- Node16 -->
<g id="node16" class="node">
<title>Node16</title>
<g id="a_node16"><a xlink:href="barrier_8h.html" target="_top" xlink:title="ODP execution barriers.">
<polygon fill="white" stroke="black" points="522,-112.5 522,-131.5 579,-131.5 579,-112.5 522,-112.5"/>
<text text-anchor="middle" x="550.5" y="-119.5" font-family="Helvetica,sans-Serif" font-size="10.00">barrier.h</text>
</a>
</g>
</g>
<!-- Node6&#45;&gt;Node16 -->
<g id="edge17" class="edge">
<title>Node6&#45;&gt;Node16</title>
<path fill="none" stroke="midnightblue" d="M2059.85,-176.72C1837.95,-175.23 887.79,-166.9 593.5,-132 588.8,-131.44 583.86,-130.63 579.06,-129.71"/>
<polygon fill="midnightblue" stroke="midnightblue" points="2059.84,-180.22 2069.86,-176.79 2059.88,-173.22 2059.84,-180.22"/>
</g>
<!-- Node17 -->
<g id="node17" class="node">
<title>Node17</title>
<g id="a_node17"><a xlink:href="classification_8h.html" target="_top" xlink:title="ODP classification descriptor.">
<polygon fill="white" stroke="black" points="648,-56.5 648,-75.5 737,-75.5 737,-56.5 648,-56.5"/>
<text text-anchor="middle" x="692.5" y="-63.5" font-family="Helvetica,sans-Serif" font-size="10.00">classification.h</text>
</a>
</g>
</g>
<!-- Node6&#45;&gt;Node17 -->
<g id="edge18" class="edge">
<title>Node6&#45;&gt;Node17</title>
<path fill="none" stroke="midnightblue" d="M2059.91,-177.18C1838.13,-177.82 894.95,-177.81 772.5,-132 740.99,-120.21 712.62,-90.68 699.77,-75.83"/>
<polygon fill="midnightblue" stroke="midnightblue" points="2059.93,-180.68 2069.92,-177.15 2059.91,-173.68 2059.93,-180.68"/>
</g>
<!-- Node18 -->
<g id="node18" class="node">
<title>Node18</title>
<g id="a_node18"><a xlink:href="spec_2ipsec__types_8h.html" target="_top" xlink:title="ODP IPsec API type definitions.">
<polygon fill="white" stroke="red" points="566,-0.5 566,-19.5 649,-19.5 649,-0.5 566,-0.5"/>
<text text-anchor="middle" x="607.5" y="-7.5" font-family="Helvetica,sans-Serif" font-size="10.00">ipsec_types.h</text>
</a>
</g>
</g>
<!-- Node6&#45;&gt;Node18 -->
<g id="edge38" class="edge">
<title>Node6&#45;&gt;Node18</title>
<path fill="none" stroke="midnightblue" d="M2059.95,-177.24C1814.68,-178.29 681.5,-180.51 626.5,-132 593.65,-103.03 601.36,-42.33 605.63,-19.73"/>
<polygon fill="midnightblue" stroke="midnightblue" points="2059.98,-180.74 2069.96,-177.19 2059.95,-173.74 2059.98,-180.74"/>
</g>
<!-- Node25 -->
<g id="node20" class="node">
<title>Node25</title>
<g id="a_node20"><a xlink:href="proto__stats_8h.html" target="_top" xlink:title="ODP proto stats.">
<polygon fill="white" stroke="black" points="781.5,-112.5 781.5,-131.5 861.5,-131.5 861.5,-112.5 781.5,-112.5"/>
<text text-anchor="middle" x="821.5" y="-119.5" font-family="Helvetica,sans-Serif" font-size="10.00">proto_stats.h</text>
</a>
</g>
</g>
<!-- Node6&#45;&gt;Node25 -->
<g id="edge21" class="edge">
<title>Node6&#45;&gt;Node25</title>
<path fill="none" stroke="midnightblue" d="M2059.53,-176.2C1863.19,-172.73 1107.47,-157.94 870.5,-132 867.58,-131.68 864.57,-131.29 861.54,-130.84"/>
<polygon fill="midnightblue" stroke="midnightblue" points="2059.73,-179.71 2069.79,-176.38 2059.85,-172.71 2059.73,-179.71"/>
</g>
<!-- Node26 -->
<g id="node21" class="node">
<title>Node26</title>
<g id="a_node21"><a xlink:href="spec_2buffer_8h.html" target="_top" xlink:title="ODP buffer.">
<polygon fill="white" stroke="black" points="880,-112.5 880,-131.5 933,-131.5 933,-112.5 880,-112.5"/>
<text text-anchor="middle" x="906.5" y="-119.5" font-family="Helvetica,sans-Serif" font-size="10.00">buffer.h</text>
</a>
</g>
</g>
<!-- Node6&#45;&gt;Node26 -->
<g id="edge22" class="edge">
<title>Node6&#45;&gt;Node26</title>
<path fill="none" stroke="midnightblue" d="M2059.76,-176.48C1870.92,-174.18 1163.8,-163.59 942.5,-132 939.44,-131.56 936.26,-130.97 933.11,-130.3"/>
<polygon fill="midnightblue" stroke="midnightblue" points="2059.87,-179.98 2069.91,-176.6 2059.95,-172.98 2059.87,-179.98"/>
</g>
<!-- Node29 -->
<g id="node23" class="node">
<title>Node29</title>
<g id="a_node23"><a xlink:href="spec_2chksum_8h.html" target="_top" xlink:title="ODP checksum functions.">
<polygon fill="white" stroke="black" points="951.5,-112.5 951.5,-131.5 1015.5,-131.5 1015.5,-112.5 951.5,-112.5"/>
<text text-anchor="middle" x="983.5" y="-119.5" font-family="Helvetica,sans-Serif" font-size="10.00">chksum.h</text>
</a>
</g>
</g>
<!-- Node6&#45;&gt;Node29 -->
<g id="edge24" class="edge">
<title>Node6&#45;&gt;Node29</title>
<path fill="none" stroke="midnightblue" d="M2059.62,-176.11C1879.28,-172.51 1230.12,-157.99 1025.5,-132 1022.24,-131.59 1018.87,-131.05 1015.51,-130.44"/>
<polygon fill="midnightblue" stroke="midnightblue" points="2059.77,-179.61 2069.83,-176.31 2059.9,-172.61 2059.77,-179.61"/>
</g>
<!-- Node31 -->
<g id="node25" class="node">
<title>Node31</title>
<g id="a_node25"><a xlink:href="spec_2classification_8h.html" target="_top" xlink:title="ODP classification descriptor.">
<polygon fill="white" stroke="black" points="636,-112.5 636,-131.5 725,-131.5 725,-112.5 636,-112.5"/>
<text text-anchor="middle" x="680.5" y="-119.5" font-family="Helvetica,sans-Serif" font-size="10.00">classification.h</text>
</a>
</g>
</g>
<!-- Node6&#45;&gt;Node31 -->
<g id="edge26" class="edge">
<title>Node6&#45;&gt;Node31</title>
<path fill="none" stroke="midnightblue" d="M2059.85,-177.46C1885.49,-178.77 1255.64,-179.69 739.5,-132 734.86,-131.57 730.02,-131.01 725.21,-130.39"/>
<polygon fill="midnightblue" stroke="midnightblue" points="2059.99,-180.96 2069.96,-177.38 2059.94,-173.96 2059.99,-180.96"/>
</g>
<!-- Node32 -->
<g id="node26" class="node">
<title>Node32</title>
<g id="a_node26"><a xlink:href="spec_2comp_8h.html" target="_top" xlink:title="ODP Compression.">
<polygon fill="white" stroke="black" points="1034,-112.5 1034,-131.5 1087,-131.5 1087,-112.5 1034,-112.5"/>
<text text-anchor="middle" x="1060.5" y="-119.5" font-family="Helvetica,sans-Serif" font-size="10.00">comp.h</text>
</a>
</g>
</g>
<!-- Node6&#45;&gt;Node32 -->
<g id="edge28" class="edge">
<title>Node6&#45;&gt;Node32</title>
<path fill="none" stroke="midnightblue" d="M2059.84,-176.16C1887.39,-172.88 1286.18,-159.65 1096.5,-132 1093.44,-131.55 1090.26,-130.96 1087.12,-130.29"/>
<polygon fill="midnightblue" stroke="midnightblue" points="2059.8,-179.66 2069.87,-176.35 2059.93,-172.66 2059.8,-179.66"/>
</g>
<!-- Node34 -->
<g id="node28" class="node">
<title>Node34</title>
<g id="a_node28"><a xlink:href="spec_2cpu_8h.html" target="_top" xlink:title="ODP CPU API.">
<polygon fill="white" stroke="red" points="1105,-112.5 1105,-131.5 1148,-131.5 1148,-112.5 1105,-112.5"/>
<text text-anchor="middle" x="1126.5" y="-119.5" font-family="Helvetica,sans-Serif" font-size="10.00">cpu.h</text>
</a>
</g>
</g>
<!-- Node6&#45;&gt;Node34 -->
<g id="edge30" class="edge">
<title>Node6&#45;&gt;Node34</title>
<path fill="none" stroke="midnightblue" d="M2059.39,-176.23C1893.09,-173.29 1334.02,-161.39 1157.5,-132 1154.4,-131.48 1151.18,-130.76 1148.03,-129.95"/>
<polygon fill="midnightblue" stroke="midnightblue" points="2059.71,-179.74 2069.77,-176.41 2059.83,-172.74 2059.71,-179.74"/>
</g>
<!-- Node40 -->
<g id="node29" class="node">
<title>Node40</title>
<g id="a_node29"><a xlink:href="spec_2crypto_8h.html" target="_top" xlink:title="ODP crypto.">
<polygon fill="white" stroke="red" points="1166.5,-112.5 1166.5,-131.5 1222.5,-131.5 1222.5,-112.5 1166.5,-112.5"/>
<text text-anchor="middle" x="1194.5" y="-119.5" font-family="Helvetica,sans-Serif" font-size="10.00">crypto.h</text>
</a>
</g>
</g>
<!-- Node6&#45;&gt;Node40 -->
<g id="edge31" class="edge">
<title>Node6&#45;&gt;Node40</title>
<path fill="none" stroke="midnightblue" d="M2059.52,-177.56C1928.11,-178.48 1545.89,-176.8 1232.5,-132 1229.28,-131.54 1225.93,-130.94 1222.61,-130.26"/>
<polygon fill="midnightblue" stroke="midnightblue" points="2059.66,-181.06 2069.64,-177.48 2059.61,-174.06 2059.66,-181.06"/>
</g>
<!-- Node42 -->
<g id="node30" class="node">
<title>Node42</title>
<g id="a_node30"><a xlink:href="spec_2crypto__types_8h.html" target="_top" xlink:title="ODP crypto types.">
<polygon fill="white" stroke="red" points="1241,-112.5 1241,-131.5 1330,-131.5 1330,-112.5 1241,-112.5"/>
<text text-anchor="middle" x="1285.5" y="-119.5" font-family="Helvetica,sans-Serif" font-size="10.00">crypto_types.h</text>
</a>
</g>
</g>
<!-- Node6&#45;&gt;Node42 -->
<g id="edge32" class="edge">
<title>Node6&#45;&gt;Node42</title>
<path fill="none" stroke="midnightblue" d="M2059.34,-175.98C1939.03,-173 1611,-162.5 1339.5,-132 1336.48,-131.66 1333.37,-131.27 1330.24,-130.83"/>
<polygon fill="midnightblue" stroke="midnightblue" points="2059.58,-179.49 2069.66,-176.23 2059.75,-172.49 2059.58,-179.49"/>
</g>
<!-- Node45 -->
<g id="node31" class="node">
<title>Node45</title>
<g id="a_node31"><a xlink:href="spec_2dma__types_8h.html" target="_top" xlink:title="ODP DMA.">
<polygon fill="white" stroke="red" points="1348.5,-112.5 1348.5,-131.5 1428.5,-131.5 1428.5,-112.5 1348.5,-112.5"/>
<text text-anchor="middle" x="1388.5" y="-119.5" font-family="Helvetica,sans-Serif" font-size="10.00">dma_types.h</text>
</a>
</g>
</g>
<!-- Node6&#45;&gt;Node45 -->
<g id="edge33" class="edge">
<title>Node6&#45;&gt;Node45</title>
<path fill="none" stroke="midnightblue" d="M2059.7,-175.69C1950.4,-172.25 1669.97,-161.07 1437.5,-132 1434.58,-131.64 1431.57,-131.21 1428.55,-130.74"/>
<polygon fill="midnightblue" stroke="midnightblue" points="2059.63,-179.19 2069.74,-176 2059.85,-172.2 2059.63,-179.19"/>
</g>
<!-- Node73 -->
<g id="node32" class="node">
<title>Node73</title>
<g id="a_node32"><a xlink:href="spec_2event__vector__types_8h.html" target="_top" xlink:title="ODP event vector API type definitions.">
<polygon fill="white" stroke="red" points="1446.5,-112.5 1446.5,-131.5 1568.5,-131.5 1568.5,-112.5 1446.5,-112.5"/>
<text text-anchor="middle" x="1507.5" y="-119.5" font-family="Helvetica,sans-Serif" font-size="10.00">event_vector_types.h</text>
</a>
</g>
</g>
<!-- Node6&#45;&gt;Node73 -->
<g id="edge34" class="edge">
<title>Node6&#45;&gt;Node73</title>
<path fill="none" stroke="midnightblue" d="M2059.85,-173.67C1967.74,-166.95 1756.01,-150.81 1578.5,-132 1575.29,-131.66 1572,-131.3 1568.67,-130.92"/>
<polygon fill="midnightblue" stroke="midnightblue" points="2059.74,-177.17 2069.96,-174.41 2060.24,-170.19 2059.74,-177.17"/>
</g>
<!-- Node96 -->
<g id="node33" class="node">
<title>Node96</title>
<g id="a_node33"><a xlink:href="spec_2hash_8h.html" target="_top" xlink:title="ODP Hash functions.">
<polygon fill="white" stroke="red" points="1587,-112.5 1587,-131.5 1636,-131.5 1636,-112.5 1587,-112.5"/>
<text text-anchor="middle" x="1611.5" y="-119.5" font-family="Helvetica,sans-Serif" font-size="10.00">hash.h</text>
</a>
</g>
</g>
<!-- Node6&#45;&gt;Node96 -->
<g id="edge35" class="edge">
<title>Node6&#45;&gt;Node96</title>
<path fill="none" stroke="midnightblue" d="M2059.57,-174.92C1975.83,-170.67 1795.4,-158.97 1645.5,-132 1642.5,-131.46 1639.37,-130.79 1636.28,-130.05"/>
<polygon fill="midnightblue" stroke="midnightblue" points="2059.61,-178.43 2069.77,-175.43 2059.96,-171.44 2059.61,-178.43"/>
</g>
<!-- Node98 -->
<g id="node34" class="node">
<title>Node98</title>
<g id="a_node34"><a xlink:href="spec_2init_8h.html" target="_top" xlink:title=" ">
<polygon fill="white" stroke="red" points="1654,-112.5 1654,-131.5 1695,-131.5 1695,-112.5 1654,-112.5"/>
<text text-anchor="middle" x="1674.5" y="-119.5" font-family="Helvetica,sans-Serif" font-size="10.00">init.h</text>
</a>
</g>
</g>
<!-- Node6&#45;&gt;Node98 -->
<g id="edge36" class="edge">
<title>Node6&#45;&gt;Node98</title>
<path fill="none" stroke="midnightblue" d="M2059.73,-174.5C1984.33,-169.87 1831.5,-157.94 1704.5,-132 1701.41,-131.37 1698.18,-130.56 1695.03,-129.69"/>
<polygon fill="midnightblue" stroke="midnightblue" points="2059.66,-178 2069.85,-175.11 2060.08,-171.02 2059.66,-178"/>
</g>
<!-- Node20 -->
<g id="node35" class="node">
<title>Node20</title>
<g id="a_node35"><a xlink:href="spec_2ipsec_8h.html" target="_top" xlink:title="ODP IPsec API.">
<polygon fill="white" stroke="red" points="1713,-112.5 1713,-131.5 1764,-131.5 1764,-112.5 1713,-112.5"/>
<text text-anchor="middle" x="1738.5" y="-119.5" font-family="Helvetica,sans-Serif" font-size="10.00">ipsec.h</text>
</a>
</g>
</g>
<!-- Node6&#45;&gt;Node20 -->
<g id="edge37" class="edge">
<title>Node6&#45;&gt;Node20</title>
<path fill="none" stroke="midnightblue" d="M2059.52,-172.41C1994.78,-165.68 1874.65,-151.77 1773.5,-132 1770.42,-131.4 1767.21,-130.69 1764.04,-129.94"/>
<polygon fill="midnightblue" stroke="midnightblue" points="2059.5,-175.93 2069.81,-173.47 2060.22,-168.96 2059.5,-175.93"/>
</g>
<!-- Node59 -->
<g id="node36" class="node">
<title>Node59</title>
<g id="a_node36"><a xlink:href="spec_2ml_8h.html" target="_top" xlink:title="ODP Machine Learning (ML) offload.">
<polygon fill="white" stroke="red" points="1782.5,-112.5 1782.5,-131.5 1820.5,-131.5 1820.5,-112.5 1782.5,-112.5"/>
<text text-anchor="middle" x="1801.5" y="-119.5" font-family="Helvetica,sans-Serif" font-size="10.00">ml.h</text>
</a>
</g>
</g>
<!-- Node6&#45;&gt;Node59 -->
<g id="edge39" class="edge">
<title>Node6&#45;&gt;Node59</title>
<path fill="none" stroke="midnightblue" d="M2059.64,-171.57C2004.22,-164.64 1909.38,-151.21 1829.5,-132 1826.62,-131.31 1823.61,-130.47 1820.67,-129.58"/>
<polygon fill="midnightblue" stroke="midnightblue" points="2059.5,-175.08 2069.86,-172.82 2060.36,-168.13 2059.5,-175.08"/>
</g>
<!-- Node107 -->
<g id="node37" class="node">
<title>Node107</title>
<g id="a_node37"><a xlink:href="spec_2ml__quantize_8h.html" target="_top" xlink:title="ODP Machine Learning (ML) quantization functions.">
<polygon fill="white" stroke="red" points="1838.5,-112.5 1838.5,-131.5 1924.5,-131.5 1924.5,-112.5 1838.5,-112.5"/>
<text text-anchor="middle" x="1881.5" y="-119.5" font-family="Helvetica,sans-Serif" font-size="10.00">ml_quantize.h</text>
</a>
</g>
</g>
<!-- Node6&#45;&gt;Node107 -->
<g id="edge40" class="edge">
<title>Node6&#45;&gt;Node107</title>
<path fill="none" stroke="midnightblue" d="M2061.03,-166.09C2018.53,-155.89 1955.92,-140.86 1916.99,-131.52"/>
<polygon fill="midnightblue" stroke="midnightblue" points="2060.31,-169.51 2070.85,-168.44 2061.94,-162.71 2060.31,-169.51"/>
</g>
<!-- Node77 -->
<g id="node38" class="node">
<title>Node77</title>
<g id="a_node38"><a xlink:href="spec_2ml__types_8h.html" target="_top" xlink:title="ODP Machine Learning (ML) types.">
<polygon fill="white" stroke="red" points="1943,-112.5 1943,-131.5 2014,-131.5 2014,-112.5 1943,-112.5"/>
<text text-anchor="middle" x="1978.5" y="-119.5" font-family="Helvetica,sans-Serif" font-size="10.00">ml_types.h</text>
</a>
</g>
</g>
<!-- Node6&#45;&gt;Node77 -->
<g id="edge41" class="edge">
<title>Node6&#45;&gt;Node77</title>
<path fill="none" stroke="midnightblue" d="M2076.88,-164.5C2052.88,-154.38 2019.72,-140.39 1998.69,-131.52"/>
<polygon fill="midnightblue" stroke="midnightblue" points="2075.64,-167.78 2086.22,-168.44 2078.36,-161.33 2075.64,-167.78"/>
</g>
<!-- Node61 -->
<g id="node39" class="node">
<title>Node61</title>
<g id="a_node39"><a xlink:href="spec_2packet_8h.html" target="_top" xlink:title="ODP packet descriptor.">
<polygon fill="white" stroke="red" points="2032.5,-112.5 2032.5,-131.5 2090.5,-131.5 2090.5,-112.5 2032.5,-112.5"/>
<text text-anchor="middle" x="2061.5" y="-119.5" font-family="Helvetica,sans-Serif" font-size="10.00">packet.h</text>
</a>
</g>
</g>
<!-- Node6&#45;&gt;Node61 -->
<g id="edge42" class="edge">
<title>Node6&#45;&gt;Node61</title>
<path fill="none" stroke="midnightblue" d="M2092.45,-160.14C2084.61,-150.74 2075.17,-139.4 2068.79,-131.75"/>
<polygon fill="midnightblue" stroke="midnightblue" points="2089.98,-162.64 2099.07,-168.08 2095.36,-158.16 2089.98,-162.64"/>
</g>
<!-- Node83 -->
<g id="node40" class="node">
<title>Node83</title>
<g id="a_node40"><a xlink:href="spec_2packet__flags_8h.html" target="_top" xlink:title="ODP packet flags.">
<polygon fill="white" stroke="red" points="2108.5,-112.5 2108.5,-131.5 2194.5,-131.5 2194.5,-112.5 2108.5,-112.5"/>
<text text-anchor="middle" x="2151.5" y="-119.5" font-family="Helvetica,sans-Serif" font-size="10.00">packet_flags.h</text>
</a>
</g>
</g>
<!-- Node6&#45;&gt;Node83 -->
<g id="edge43" class="edge">
<title>Node6&#45;&gt;Node83</title>
<path fill="none" stroke="midnightblue" d="M2120.55,-160.14C2128.39,-150.74 2137.83,-139.4 2144.21,-131.75"/>
<polygon fill="midnightblue" stroke="midnightblue" points="2117.64,-158.16 2113.93,-168.08 2123.02,-162.64 2117.64,-158.16"/>
</g>
<!-- Node63 -->
<g id="node41" class="node">
<title>Node63</title>
<g id="a_node41"><a xlink:href="spec_2packet__io__types_8h.html" target="_top" xlink:title="ODP Packet IO types.">
<polygon fill="white" stroke="red" points="2212.5,-112.5 2212.5,-131.5 2316.5,-131.5 2316.5,-112.5 2212.5,-112.5"/>
<text text-anchor="middle" x="2264.5" y="-119.5" font-family="Helvetica,sans-Serif" font-size="10.00">packet_io_types.h</text>
</a>
</g>
</g>
<!-- Node6&#45;&gt;Node63 -->
<g id="edge44" class="edge">
<title>Node6&#45;&gt;Node63</title>
<path fill="none" stroke="midnightblue" d="M2141.11,-165.17C2170.86,-155 2213.05,-140.59 2239.58,-131.52"/>
<polygon fill="midnightblue" stroke="midnightblue" points="2139.87,-161.9 2131.54,-168.44 2142.13,-168.52 2139.87,-161.9"/>
</g>
<!-- Node67 -->
<g id="node42" class="node">
<title>Node67</title>
<g id="a_node42"><a xlink:href="spec_2pool_8h.html" target="_top" xlink:title="ODP pool.">
<polygon fill="white" stroke="red" points="2335,-112.5 2335,-131.5 2382,-131.5 2382,-112.5 2335,-112.5"/>
<text text-anchor="middle" x="2358.5" y="-119.5" font-family="Helvetica,sans-Serif" font-size="10.00">pool.h</text>
</a>
</g>
</g>
<!-- Node6&#45;&gt;Node67 -->
<g id="edge45" class="edge">
<title>Node6&#45;&gt;Node67</title>
<path fill="none" stroke="midnightblue" d="M2153.01,-168.33C2197.47,-159.84 2266.31,-146.14 2325.5,-132 2328.5,-131.28 2331.65,-130.49 2334.75,-129.67"/>
<polygon fill="midnightblue" stroke="midnightblue" points="2152.25,-164.91 2143.08,-170.22 2153.56,-171.79 2152.25,-164.91"/>
</g>
<!-- Node49 -->
<g id="node43" class="node">
<title>Node49</title>
<g id="a_node43"><a xlink:href="spec_2pool__types_8h.html" target="_top" xlink:title="Type definitions for pools.">
<polygon fill="white" stroke="red" points="2400,-112.5 2400,-131.5 2479,-131.5 2479,-112.5 2400,-112.5"/>
<text text-anchor="middle" x="2439.5" y="-119.5" font-family="Helvetica,sans-Serif" font-size="10.00">pool_types.h</text>
</a>
</g>
</g>
<!-- Node6&#45;&gt;Node49 -->
<g id="edge46" class="edge">
<title>Node6&#45;&gt;Node49</title>
<path fill="none" stroke="midnightblue" d="M2153.52,-170C2210.07,-161.48 2307.85,-146.44 2391.5,-132 2394.26,-131.52 2397.1,-131.02 2399.96,-130.51"/>
<polygon fill="midnightblue" stroke="midnightblue" points="2152.82,-166.57 2143.45,-171.51 2153.86,-173.49 2152.82,-166.57"/>
</g>
<!-- Node109 -->
<g id="node44" class="node">
<title>Node109</title>
<g id="a_node44"><a xlink:href="spec_2proto__stats__types_8h.html" target="_top" xlink:title="ODP proto stats types.">
<polygon fill="white" stroke="red" points="2497,-112.5 2497,-131.5 2610,-131.5 2610,-112.5 2497,-112.5"/>
<text text-anchor="middle" x="2553.5" y="-119.5" font-family="Helvetica,sans-Serif" font-size="10.00">proto_stats_types.h</text>
</a>
</g>
</g>
<!-- Node6&#45;&gt;Node109 -->
<g id="edge47" class="edge">
<title>Node6&#45;&gt;Node109</title>
<path fill="none" stroke="midnightblue" d="M2153.25,-171.8C2225.29,-163.72 2367.76,-147.47 2488.5,-132 2491.21,-131.65 2493.99,-131.29 2496.79,-130.92"/>
<polygon fill="midnightblue" stroke="midnightblue" points="2152.69,-168.34 2143.14,-172.93 2153.47,-175.3 2152.69,-168.34"/>
</g>
<!-- Node87 -->
<g id="node45" class="node">
<title>Node87</title>
<g id="a_node45"><a xlink:href="spec_2queue_8h.html" target="_top" xlink:title="ODP queue.">
<polygon fill="white" stroke="red" points="2628.5,-112.5 2628.5,-131.5 2684.5,-131.5 2684.5,-112.5 2628.5,-112.5"/>
<text text-anchor="middle" x="2656.5" y="-119.5" font-family="Helvetica,sans-Serif" font-size="10.00">queue.h</text>
</a>
</g>
</g>
<!-- Node6&#45;&gt;Node87 -->
<g id="edge48" class="edge">
<title>Node6&#45;&gt;Node87</title>
<path fill="none" stroke="midnightblue" d="M2153.33,-175.26C2243.9,-171.38 2449.15,-160.03 2619.5,-132 2622.37,-131.53 2625.35,-130.95 2628.31,-130.32"/>
<polygon fill="midnightblue" stroke="midnightblue" points="2152.97,-171.77 2143.12,-175.69 2153.26,-178.77 2152.97,-171.77"/>
</g>
<!-- Node112 -->
<g id="node46" class="node">
<title>Node112</title>
<g id="a_node46"><a xlink:href="spec_2random_8h.html" target="_top" xlink:title="ODP random number API.">
<polygon fill="white" stroke="red" points="2703,-112.5 2703,-131.5 2766,-131.5 2766,-112.5 2703,-112.5"/>
<text text-anchor="middle" x="2734.5" y="-119.5" font-family="Helvetica,sans-Serif" font-size="10.00">random.h</text>
</a>
</g>
</g>
<!-- Node6&#45;&gt;Node112 -->
<g id="edge49" class="edge">
<title>Node6&#45;&gt;Node112</title>
<path fill="none" stroke="midnightblue" d="M2153.15,-175.63C2252.83,-172.23 2493.78,-161.43 2693.5,-132 2696.53,-131.55 2699.67,-131.01 2702.8,-130.42"/>
<polygon fill="midnightblue" stroke="midnightblue" points="2152.98,-172.14 2143.1,-175.97 2153.21,-179.13 2152.98,-172.14"/>
</g>
<!-- Node114 -->
<g id="node47" class="node">
<title>Node114</title>
<g id="a_node47"><a xlink:href="spec_2random__types_8h.html" target="_top" xlink:title="ODP random number API.">
<polygon fill="white" stroke="red" points="2784,-112.5 2784,-131.5 2879,-131.5 2879,-112.5 2784,-112.5"/>
<text text-anchor="middle" x="2831.5" y="-119.5" font-family="Helvetica,sans-Serif" font-size="10.00">random_types.h</text>
</a>
</g>
</g>
<!-- Node6&#45;&gt;Node114 -->
<g id="edge50" class="edge">
<title>Node6&#45;&gt;Node114</title>
<path fill="none" stroke="midnightblue" d="M2153.26,-175.34C2262.47,-171.14 2542.72,-158.48 2775.5,-132 2778.24,-131.69 2781.05,-131.34 2783.88,-130.96"/>
<polygon fill="midnightblue" stroke="midnightblue" points="2153.09,-171.84 2143.23,-175.72 2153.36,-178.84 2153.09,-171.84"/>
</g>
<!-- Node116 -->
<g id="node48" class="node">
<title>Node116</title>
<g id="a_node48"><a xlink:href="spec_2reassembly_8h.html" target="_top" xlink:title="ODP REASSEMBLY API.">
<polygon fill="white" stroke="red" points="2897,-112.5 2897,-131.5 2978,-131.5 2978,-112.5 2897,-112.5"/>
<text text-anchor="middle" x="2937.5" y="-119.5" font-family="Helvetica,sans-Serif" font-size="10.00">reassembly.h</text>
</a>
</g>
</g>
<!-- Node6&#45;&gt;Node116 -->
<g id="edge51" class="edge">
<title>Node6&#45;&gt;Node116</title>
<path fill="none" stroke="midnightblue" d="M2153.38,-176.33C2275.09,-174.15 2611.02,-165.34 2888.5,-132 2891.25,-131.67 2894.07,-131.28 2896.92,-130.85"/>
<polygon fill="midnightblue" stroke="midnightblue" points="2153.22,-172.83 2143.29,-176.5 2153.35,-179.83 2153.22,-172.83"/>
</g>
<!-- Node89 -->
<g id="node49" class="node">
<title>Node89</title>
<g id="a_node49"><a xlink:href="spec_2schedule_8h.html" target="_top" xlink:title="ODP schedule.">
<polygon fill="white" stroke="red" points="2996,-112.5 2996,-131.5 3065,-131.5 3065,-112.5 2996,-112.5"/>
<text text-anchor="middle" x="3030.5" y="-119.5" font-family="Helvetica,sans-Serif" font-size="10.00">schedule.h</text>
</a>
</g>
</g>
<!-- Node6&#45;&gt;Node89 -->
<g id="edge52" class="edge">
<title>Node6&#45;&gt;Node89</title>
<path fill="none" stroke="midnightblue" d="M2153.34,-177.16C2285.21,-177.06 2670.67,-173 2987.5,-132 2990.22,-131.65 2993.03,-131.22 2995.84,-130.74"/>
<polygon fill="midnightblue" stroke="midnightblue" points="2153.19,-173.66 2143.19,-177.16 2153.19,-180.66 2153.19,-173.66"/>
</g>
<!-- Node94 -->
<g id="node50" class="node">
<title>Node94</title>
<g id="a_node50"><a xlink:href="spec_2schedule__types_8h.html" target="_top" xlink:title="ODP schedule types.">
<polygon fill="white" stroke="red" points="3083,-112.5 3083,-131.5 3184,-131.5 3184,-112.5 3083,-112.5"/>
<text text-anchor="middle" x="3133.5" y="-119.5" font-family="Helvetica,sans-Serif" font-size="10.00">schedule_types.h</text>
</a>
</g>
</g>
<!-- Node6&#45;&gt;Node94 -->
<g id="edge53" class="edge">
<title>Node6&#45;&gt;Node94</title>
<path fill="none" stroke="midnightblue" d="M2153.45,-176.56C2293.69,-174.88 2721.66,-167.02 3074.5,-132 3077.18,-131.73 3079.93,-131.43 3082.69,-131.1"/>
<polygon fill="midnightblue" stroke="midnightblue" points="2153.04,-173.07 2143.08,-176.68 2153.12,-180.07 2153.04,-173.07"/>
</g>
<!-- Node118 -->
<g id="node51" class="node">
<title>Node118</title>
<g id="a_node51"><a xlink:href="spec_2stash__types_8h.html" target="_top" xlink:title="ODP stash types.">
<polygon fill="white" stroke="red" points="3202.5,-112.5 3202.5,-131.5 3286.5,-131.5 3286.5,-112.5 3202.5,-112.5"/>
<text text-anchor="middle" x="3244.5" y="-119.5" font-family="Helvetica,sans-Serif" font-size="10.00">stash_types.h</text>
</a>
</g>
</g>
<!-- Node6&#45;&gt;Node118 -->
<g id="edge54" class="edge">
<title>Node6&#45;&gt;Node118</title>
<path fill="none" stroke="midnightblue" d="M2153.54,-177.29C2304.9,-177.73 2792.83,-175.45 3193.5,-132 3196.36,-131.69 3199.3,-131.32 3202.26,-130.9"/>
<polygon fill="midnightblue" stroke="midnightblue" points="2153.24,-173.79 2143.23,-177.25 2153.22,-180.79 2153.24,-173.79"/>
</g>
<!-- Node122 -->
<g id="node52" class="node">
<title>Node122</title>
<g id="a_node52"><a xlink:href="spec_2std_8h.html" target="_top" xlink:title="ODP standard types and optimized C library functions.">
<polygon fill="white" stroke="red" points="3305,-112.5 3305,-131.5 3346,-131.5 3346,-112.5 3305,-112.5"/>
<text text-anchor="middle" x="3325.5" y="-119.5" font-family="Helvetica,sans-Serif" font-size="10.00">std.h</text>
</a>
</g>
</g>
<!-- Node6&#45;&gt;Node122 -->
<g id="edge55" class="edge">
<title>Node6&#45;&gt;Node122</title>
<path fill="none" stroke="midnightblue" d="M2153.04,-176.81C2344.23,-175.8 3069.77,-169.5 3295.5,-132 3298.5,-131.5 3301.63,-130.79 3304.68,-129.98"/>
<polygon fill="midnightblue" stroke="midnightblue" points="2153.02,-173.31 2143.04,-176.86 2153.05,-180.31 2153.02,-173.31"/>
</g>
<!-- Node124 -->
<g id="node53" class="node">
<title>Node124</title>
<g id="a_node53"><a xlink:href="spec_2threshold_8h.html" target="_top" xlink:title="ODP threshold descriptor.">
<polygon fill="white" stroke="red" points="3364,-112.5 3364,-131.5 3435,-131.5 3435,-112.5 3364,-112.5"/>
<text text-anchor="middle" x="3399.5" y="-119.5" font-family="Helvetica,sans-Serif" font-size="10.00">threshold.h</text>
</a>
</g>
</g>
<!-- Node6&#45;&gt;Node124 -->
<g id="edge56" class="edge">
<title>Node6&#45;&gt;Node124</title>
<path fill="none" stroke="midnightblue" d="M2153.03,-176.36C2349.99,-173.47 3115.92,-160.62 3355.5,-132 3358.13,-131.69 3360.84,-131.3 3363.56,-130.86"/>
<polygon fill="midnightblue" stroke="midnightblue" points="2152.96,-172.86 2143.01,-176.5 2153.06,-179.86 2152.96,-172.86"/>
</g>
<!-- Node126 -->
<g id="node54" class="node">
<title>Node126</title>
<g id="a_node54"><a xlink:href="spec_2thrmask_8h.html" target="_top" xlink:title="ODP thread masks.">
<polygon fill="white" stroke="red" points="3453.5,-112.5 3453.5,-131.5 3519.5,-131.5 3519.5,-112.5 3453.5,-112.5"/>
<text text-anchor="middle" x="3486.5" y="-119.5" font-family="Helvetica,sans-Serif" font-size="10.00">thrmask.h</text>
</a>
</g>
</g>
<!-- Node6&#45;&gt;Node126 -->
<g id="edge57" class="edge">
<title>Node6&#45;&gt;Node126</title>
<path fill="none" stroke="midnightblue" d="M2153.28,-176.54C2359.29,-174.35 3186.72,-163.7 3444.5,-132 3447.31,-131.65 3450.22,-131.21 3453.12,-130.71"/>
<polygon fill="midnightblue" stroke="midnightblue" points="2153.07,-173.04 2143.11,-176.65 2153.14,-180.04 2153.07,-173.04"/>
</g>
<!-- Node128 -->
<g id="node55" class="node">
<title>Node128</title>
<g id="a_node55"><a xlink:href="spec_2time_8h.html" target="_top" xlink:title="ODP time.">
<polygon fill="white" stroke="red" points="3537.5,-112.5 3537.5,-131.5 3585.5,-131.5 3585.5,-112.5 3537.5,-112.5"/>
<text text-anchor="middle" x="3561.5" y="-119.5" font-family="Helvetica,sans-Serif" font-size="10.00">time.h</text>
</a>
</g>
</g>
<!-- Node6&#45;&gt;Node128 -->
<g id="edge58" class="edge">
<title>Node6&#45;&gt;Node128</title>
<path fill="none" stroke="midnightblue" d="M2153.45,-176.99C2367.75,-176.73 3254.36,-173.14 3528.5,-132 3531.44,-131.56 3534.48,-130.95 3537.49,-130.25"/>
<polygon fill="midnightblue" stroke="midnightblue" points="2153.17,-173.49 2143.18,-177 2153.18,-180.49 2153.17,-173.49"/>
</g>
<!-- Node130 -->
<g id="node56" class="node">
<title>Node130</title>
<g id="a_node56"><a xlink:href="spec_2timer__types_8h.html" target="_top" xlink:title="ODP timer API type definitions.">
<polygon fill="white" stroke="red" points="3603.5,-112.5 3603.5,-131.5 3687.5,-131.5 3687.5,-112.5 3603.5,-112.5"/>
<text text-anchor="middle" x="3645.5" y="-119.5" font-family="Helvetica,sans-Serif" font-size="10.00">timer_types.h</text>
</a>
</g>
</g>
<!-- Node6&#45;&gt;Node130 -->
<g id="edge59" class="edge">
<title>Node6&#45;&gt;Node130</title>
<path fill="none" stroke="midnightblue" d="M2153.4,-176.49C2373.46,-173.98 3305.03,-161.76 3594.5,-132 3597.36,-131.71 3600.31,-131.34 3603.27,-130.94"/>
<polygon fill="midnightblue" stroke="midnightblue" points="2153.13,-173 2143.17,-176.61 2153.21,-180 2153.13,-173"/>
</g>
<!-- Node65 -->
<g id="node57" class="node">
<title>Node65</title>
<g id="a_node57"><a xlink:href="spec_2traffic__mngr_8h.html" target="_top" xlink:title=" ">
<polygon fill="white" stroke="red" points="3705.5,-112.5 3705.5,-131.5 3789.5,-131.5 3789.5,-112.5 3705.5,-112.5"/>
<text text-anchor="middle" x="3747.5" y="-119.5" font-family="Helvetica,sans-Serif" font-size="10.00">traffic_mngr.h</text>
</a>
</g>
</g>
<!-- Node6&#45;&gt;Node65 -->
<g id="edge60" class="edge">
<title>Node6&#45;&gt;Node65</title>
<path fill="none" stroke="midnightblue" d="M2153.61,-176.6C2383.14,-174.5 3385.83,-163.64 3696.5,-132 3699.36,-131.71 3702.31,-131.35 3705.27,-130.94"/>
<polygon fill="midnightblue" stroke="midnightblue" points="2153.24,-173.1 2143.27,-176.69 2153.3,-180.1 2153.24,-173.1"/>
</g>
<!-- Node132 -->
<g id="node58" class="node">
<title>Node132</title>
<g id="a_node58"><a xlink:href="system__info_8h.html" target="_top" xlink:title="ODP system information.">
<polygon fill="white" stroke="black" points="3807.5,-112.5 3807.5,-131.5 3893.5,-131.5 3893.5,-112.5 3807.5,-112.5"/>
<text text-anchor="middle" x="3850.5" y="-119.5" font-family="Helvetica,sans-Serif" font-size="10.00">system_info.h</text>
</a>
</g>
</g>
<!-- Node6&#45;&gt;Node132 -->
<g id="edge61" class="edge">
<title>Node6&#45;&gt;Node132</title>
<path fill="none" stroke="midnightblue" d="M2153.17,-176.67C2390.6,-174.87 3466.25,-165 3798.5,-132 3801.42,-131.71 3804.42,-131.35 3807.44,-130.95"/>
<polygon fill="midnightblue" stroke="midnightblue" points="2153.11,-173.17 2143.14,-176.75 2153.16,-180.17 2153.11,-173.17"/>
</g>
<!-- Node133 -->
<g id="node59" class="node">
<title>Node133</title>
<g id="a_node59"><a xlink:href="strong__types_8h.html" target="_top" xlink:title="ODP Strong Types.">
<polygon fill="white" stroke="black" points="3912,-112.5 3912,-131.5 4001,-131.5 4001,-112.5 3912,-112.5"/>
<text text-anchor="middle" x="3956.5" y="-119.5" font-family="Helvetica,sans-Serif" font-size="10.00">strong_types.h</text>
</a>
</g>
</g>
<!-- Node6&#45;&gt;Node133 -->
<g id="edge62" class="edge">
<title>Node6&#45;&gt;Node133</title>
<path fill="none" stroke="midnightblue" d="M2153.23,-176.72C2399.47,-175.09 3548.38,-165.78 3902.5,-132 3905.53,-131.71 3908.64,-131.35 3911.77,-130.95"/>
<polygon fill="midnightblue" stroke="midnightblue" points="2153.16,-173.22 2143.19,-176.78 2153.21,-180.22 2153.16,-173.22"/>
</g>
<!-- Node17&#45;&gt;Node18 -->
<g id="edge19" class="edge">
<title>Node17&#45;&gt;Node18</title>
<path fill="none" stroke="midnightblue" d="M670.31,-50.9C654.72,-41 634.37,-28.07 621.12,-19.65"/>
<polygon fill="midnightblue" stroke="midnightblue" points="668.53,-53.92 678.84,-56.32 672.28,-48.01 668.53,-53.92"/>
</g>
<!-- Node23 -->
<g id="node19" class="node">
<title>Node23</title>
<g id="a_node19"><a xlink:href="spec_2packet__io_8h.html" target="_top" xlink:title="ODP Packet IO.">
<polygon fill="white" stroke="red" points="667.5,-0.5 667.5,-19.5 739.5,-19.5 739.5,-0.5 667.5,-0.5"/>
<text text-anchor="middle" x="703.5" y="-7.5" font-family="Helvetica,sans-Serif" font-size="10.00">packet_io.h</text>
</a>
</g>
</g>
<!-- Node17&#45;&gt;Node23 -->
<g id="edge20" class="edge">
<title>Node17&#45;&gt;Node23</title>
<path fill="none" stroke="midnightblue" d="M696.35,-46.1C698.18,-37.14 700.27,-26.86 701.72,-19.75"/>
<polygon fill="midnightblue" stroke="midnightblue" points="692.88,-45.59 694.32,-56.08 699.74,-46.98 692.88,-45.59"/>
</g>
<!-- Node27 -->
<g id="node22" class="node">
<title>Node27</title>
<g id="a_node22"><a xlink:href="buffer_8h.html" target="_top" xlink:title="ODP buffer descriptor.">
<polygon fill="white" stroke="red" points="880,-56.5 880,-75.5 933,-75.5 933,-56.5 880,-56.5"/>
<text text-anchor="middle" x="906.5" y="-63.5" font-family="Helvetica,sans-Serif" font-size="10.00">buffer.h</text>
</a>
</g>
</g>
<!-- Node26&#45;&gt;Node27 -->
<g id="edge23" class="edge">
<title>Node26&#45;&gt;Node27</title>
<path fill="none" stroke="midnightblue" d="M906.5,-101.8C906.5,-92.91 906.5,-82.78 906.5,-75.75"/>
<polygon fill="midnightblue" stroke="midnightblue" points="903,-102.08 906.5,-112.08 910,-102.08 903,-102.08"/>
</g>
<!-- Node30 -->
<g id="node24" class="node">
<title>Node30</title>
<g id="a_node24"><a xlink:href="chksum_8h.html" target="_top" xlink:title="ODP checksum functions.">
<polygon fill="white" stroke="black" points="951.5,-56.5 951.5,-75.5 1015.5,-75.5 1015.5,-56.5 951.5,-56.5"/>
<text text-anchor="middle" x="983.5" y="-63.5" font-family="Helvetica,sans-Serif" font-size="10.00">chksum.h</text>
</a>
</g>
</g>
<!-- Node29&#45;&gt;Node30 -->
<g id="edge25" class="edge">
<title>Node29&#45;&gt;Node30</title>
<path fill="none" stroke="midnightblue" d="M983.5,-101.8C983.5,-92.91 983.5,-82.78 983.5,-75.75"/>
<polygon fill="midnightblue" stroke="midnightblue" points="980,-102.08 983.5,-112.08 987,-102.08 980,-102.08"/>
</g>
<!-- Node31&#45;&gt;Node17 -->
<g id="edge27" class="edge">
<title>Node31&#45;&gt;Node17</title>
<path fill="none" stroke="midnightblue" d="M684.7,-102.1C686.69,-93.14 688.98,-82.86 690.56,-75.75"/>
<polygon fill="midnightblue" stroke="midnightblue" points="681.23,-101.56 682.48,-112.08 688.07,-103.08 681.23,-101.56"/>
</g>
<!-- Node33 -->
<g id="node27" class="node">
<title>Node33</title>
<g id="a_node27"><a xlink:href="comp_8h.html" target="_top" xlink:title="ODP crypto.">
<polygon fill="white" stroke="black" points="1034,-56.5 1034,-75.5 1087,-75.5 1087,-56.5 1034,-56.5"/>
<text text-anchor="middle" x="1060.5" y="-63.5" font-family="Helvetica,sans-Serif" font-size="10.00">comp.h</text>
</a>
</g>
</g>
<!-- Node32&#45;&gt;Node33 -->
<g id="edge29" class="edge">
<title>Node32&#45;&gt;Node33</title>
<path fill="none" stroke="midnightblue" d="M1060.5,-101.8C1060.5,-92.91 1060.5,-82.78 1060.5,-75.75"/>
<polygon fill="midnightblue" stroke="midnightblue" points="1057,-102.08 1060.5,-112.08 1064,-102.08 1057,-102.08"/>
</g>
</g>
</svg>
