<?xml version="1.0" encoding="UTF-8" standalone="no"?>
<!DOCTYPE svg PUBLIC "-//W3C//DTD SVG 1.1//EN"
 "http://www.w3.org/Graphics/SVG/1.1/DTD/svg11.dtd">
<!-- Generated by graphviz version 2.40.1 (20161225.0304)
 -->
<!-- Title: stash.h Pages: 1 -->
<svg width="421pt" height="364pt"
 viewBox="0.00 0.00 420.50 364.00" xmlns="http://www.w3.org/2000/svg" xmlns:xlink="http://www.w3.org/1999/xlink">
<g id="graph0" class="graph" transform="scale(1 1) rotate(0) translate(4 360)">
<title>stash.h</title>
<polygon fill="#ffffff" stroke="transparent" points="-4,4 -4,-360 416.5,-360 416.5,4 -4,4"/>
<!-- Node0 -->
<g id="node1" class="node">
<title>Node0</title>
<polygon fill="#bfbfbf" stroke="#000000" points="101.5,-336.5 101.5,-355.5 153.5,-355.5 153.5,-336.5 101.5,-336.5"/>
<text text-anchor="middle" x="127.5" y="-343.5" font-family="Helvetica,sans-Serif" font-size="10.00" fill="#000000">stash.h</text>
</g>
<!-- Node1 -->
<g id="node2" class="node">
<title>Node1</title>
<polygon fill="#ffffff" stroke="#bfbfbf" points="8,-280.5 8,-299.5 117,-299.5 117,-280.5 8,-280.5"/>
<text text-anchor="middle" x="62.5" y="-287.5" font-family="Helvetica,sans-Serif" font-size="10.00" fill="#000000">odp/api/abi/stash.h</text>
</g>
<!-- Node0&#45;&gt;Node1 -->
<g id="edge1" class="edge">
<title>Node0&#45;&gt;Node1</title>
<path fill="none" stroke="#191970" d="M116.1779,-336.2455C106.5777,-327.9746 92.6108,-315.9416 81.3305,-306.2232"/>
<polygon fill="#191970" stroke="#191970" points="83.553,-303.5182 73.6924,-299.6427 78.984,-308.8214 83.553,-303.5182"/>
</g>
<!-- Node2 -->
<g id="node3" class="node">
<title>Node2</title>
<g id="a_node3"><a xlink:href="spec_2stash_8h.html" target="_top" xlink:title="ODP stash. ">
<polygon fill="#ffffff" stroke="#000000" points="135.5,-280.5 135.5,-299.5 251.5,-299.5 251.5,-280.5 135.5,-280.5"/>
<text text-anchor="middle" x="193.5" y="-287.5" font-family="Helvetica,sans-Serif" font-size="10.00" fill="#000000">odp/api/spec/stash.h</text>
</a>
</g>
</g>
<!-- Node0&#45;&gt;Node2 -->
<g id="edge2" class="edge">
<title>Node0&#45;&gt;Node2</title>
<path fill="none" stroke="#191970" d="M138.9963,-336.2455C148.7442,-327.9746 162.9259,-315.9416 174.3798,-306.2232"/>
<polygon fill="#191970" stroke="#191970" points="176.7747,-308.7813 182.1354,-299.6427 172.2459,-303.4437 176.7747,-308.7813"/>
</g>
<!-- Node3 -->
<g id="node4" class="node">
<title>Node3</title>
<polygon fill="#ffffff" stroke="#bfbfbf" points="0,-.5 0,-19.5 121,-19.5 121,-.5 0,-.5"/>
<text text-anchor="middle" x="60.5" y="-7.5" font-family="Helvetica,sans-Serif" font-size="10.00" fill="#000000">odp/visibility_begin.h</text>
</g>
<!-- Node2&#45;&gt;Node3 -->
<g id="edge3" class="edge">
<title>Node2&#45;&gt;Node3</title>
<path fill="none" stroke="#191970" d="M146.3208,-280.4113C95.7059,-267.0471 22.5,-237.4432 22.5,-178 22.5,-178 22.5,-178 22.5,-122 22.5,-87.6118 38.7634,-50.2832 50.011,-28.5791"/>
<polygon fill="#191970" stroke="#191970" points="53.2317,-29.9804 54.893,-19.5166 47.069,-26.6605 53.2317,-29.9804"/>
</g>
<!-- Node4 -->
<g id="node5" class="node">
<title>Node4</title>
<g id="a_node5"><a xlink:href="std__types_8h.html" target="_top" xlink:title="Standard C language types and definitions for ODP. ">
<polygon fill="#ffffff" stroke="#000000" points="137.5,-224.5 137.5,-243.5 249.5,-243.5 249.5,-224.5 137.5,-224.5"/>
<text text-anchor="middle" x="193.5" y="-231.5" font-family="Helvetica,sans-Serif" font-size="10.00" fill="#000000">odp/api/std_types.h</text>
</a>
</g>
</g>
<!-- Node2&#45;&gt;Node4 -->
<g id="edge4" class="edge">
<title>Node2&#45;&gt;Node4</title>
<path fill="none" stroke="#191970" d="M193.5,-280.2455C193.5,-272.9382 193.5,-262.6944 193.5,-253.7046"/>
<polygon fill="#191970" stroke="#191970" points="197.0001,-253.6426 193.5,-243.6427 190.0001,-253.6427 197.0001,-253.6426"/>
</g>
<!-- Node11 -->
<g id="node12" class="node">
<title>Node11</title>
<polygon fill="#ffffff" stroke="#bfbfbf" points="300.5,-.5 300.5,-19.5 412.5,-19.5 412.5,-.5 300.5,-.5"/>
<text text-anchor="middle" x="356.5" y="-7.5" font-family="Helvetica,sans-Serif" font-size="10.00" fill="#000000">odp/visibility_end.h</text>
</g>
<!-- Node2&#45;&gt;Node11 -->
<g id="edge15" class="edge">
<title>Node2&#45;&gt;Node11</title>
<path fill="none" stroke="#191970" d="M251.6375,-282.591C311.0005,-271.3874 394.5,-243.9134 394.5,-178 394.5,-178 394.5,-178 394.5,-122 394.5,-87.6118 378.2366,-50.2832 366.989,-28.5791"/>
<polygon fill="#191970" stroke="#191970" points="369.931,-26.6605 362.107,-19.5166 363.7683,-29.9804 369.931,-26.6605"/>
</g>
<!-- Node5 -->
<g id="node6" class="node">
<title>Node5</title>
<polygon fill="#ffffff" stroke="#bfbfbf" points="52.5,-168.5 52.5,-187.5 182.5,-187.5 182.5,-168.5 52.5,-168.5"/>
<text text-anchor="middle" x="117.5" y="-175.5" font-family="Helvetica,sans-Serif" font-size="10.00" fill="#000000">odp/api/abi/std_types.h</text>
</g>
<!-- Node4&#45;&gt;Node5 -->
<g id="edge5" class="edge">
<title>Node4&#45;&gt;Node5</title>
<path fill="none" stroke="#191970" d="M180.2618,-224.2455C168.819,-215.814 152.0704,-203.4729 138.7525,-193.6598"/>
<polygon fill="#191970" stroke="#191970" points="140.7133,-190.757 130.5865,-187.6427 136.5609,-196.3924 140.7133,-190.757"/>
</g>
<!-- Node6 -->
<g id="node7" class="node">
<title>Node6</title>
<g id="a_node7"><a xlink:href="spec_2std__types_8h.html" target="_top" xlink:title="Standard C language types and definitions for ODP. ">
<polygon fill="#ffffff" stroke="#000000" points="201,-168.5 201,-187.5 338,-187.5 338,-168.5 201,-168.5"/>
<text text-anchor="middle" x="269.5" y="-175.5" font-family="Helvetica,sans-Serif" font-size="10.00" fill="#000000">odp/api/spec/std_types.h</text>
</a>
</g>
</g>
<!-- Node4&#45;&gt;Node6 -->
<g id="edge6" class="edge">
<title>Node4&#45;&gt;Node6</title>
<path fill="none" stroke="#191970" d="M206.7382,-224.2455C218.181,-215.814 234.9296,-203.4729 248.2475,-193.6598"/>
<polygon fill="#191970" stroke="#191970" points="250.4391,-196.3924 256.4135,-187.6427 246.2867,-190.757 250.4391,-196.3924"/>
</g>
<!-- Node6&#45;&gt;Node3 -->
<g id="edge7" class="edge">
<title>Node6&#45;&gt;Node3</title>
<path fill="none" stroke="#191970" d="M228.0696,-168.3978C183.1079,-155.5891 113.2328,-128.1971 79.5,-76 70.41,-61.9344 65.5751,-43.4361 63.0625,-29.603"/>
<polygon fill="#191970" stroke="#191970" points="66.5141,-29.0208 61.5084,-19.683 59.5984,-30.1043 66.5141,-29.0208"/>
</g>
<!-- Node7 -->
<g id="node8" class="node">
<title>Node7</title>
<polygon fill="#ffffff" stroke="#bfbfbf" points="155,-112.5 155,-131.5 208,-131.5 208,-112.5 155,-112.5"/>
<text text-anchor="middle" x="181.5" y="-119.5" font-family="Helvetica,sans-Serif" font-size="10.00" fill="#000000">stdint.h</text>
</g>
<!-- Node6&#45;&gt;Node7 -->
<g id="edge8" class="edge">
<title>Node6&#45;&gt;Node7</title>
<path fill="none" stroke="#191970" d="M254.1716,-168.2455C240.6697,-159.6534 220.7878,-147.0014 205.2314,-137.1018"/>
<polygon fill="#191970" stroke="#191970" points="206.9685,-134.0587 196.6528,-131.6427 203.2103,-139.9643 206.9685,-134.0587"/>
</g>
<!-- Node8 -->
<g id="node9" class="node">
<title>Node8</title>
<g id="a_node9"><a xlink:href="align_8h.html" target="_top" xlink:title="ODP alignments. ">
<polygon fill="#ffffff" stroke="#000000" points="226,-112.5 226,-131.5 315,-131.5 315,-112.5 226,-112.5"/>
<text text-anchor="middle" x="270.5" y="-119.5" font-family="Helvetica,sans-Serif" font-size="10.00" fill="#000000">odp/api/align.h</text>
</a>
</g>
</g>
<!-- Node6&#45;&gt;Node8 -->
<g id="edge9" class="edge">
<title>Node6&#45;&gt;Node8</title>
<path fill="none" stroke="#191970" d="M269.6742,-168.2455C269.8047,-160.9382 269.9876,-150.6944 270.1481,-141.7046"/>
<polygon fill="#191970" stroke="#191970" points="273.6486,-141.7036 270.3278,-131.6427 266.6497,-141.5786 273.6486,-141.7036"/>
</g>
<!-- Node6&#45;&gt;Node11 -->
<g id="edge14" class="edge">
<title>Node6&#45;&gt;Node11</title>
<path fill="none" stroke="#191970" d="M285.5901,-168.4868C298.0167,-160.3249 314.6965,-147.451 324.5,-132 344.8465,-99.9325 352.3117,-55.3187 355.0106,-29.8773"/>
<polygon fill="#191970" stroke="#191970" points="358.5204,-29.928 355.9443,-19.6511 351.5494,-29.2914 358.5204,-29.928"/>
</g>
<!-- Node9 -->
<g id="node10" class="node">
<title>Node9</title>
<polygon fill="#ffffff" stroke="#bfbfbf" points="89,-56.5 89,-75.5 196,-75.5 196,-56.5 89,-56.5"/>
<text text-anchor="middle" x="142.5" y="-63.5" font-family="Helvetica,sans-Serif" font-size="10.00" fill="#000000">odp/api/abi/align.h</text>
</g>
<!-- Node8&#45;&gt;Node9 -->
<g id="edge10" class="edge">
<title>Node8&#45;&gt;Node9</title>
<path fill="none" stroke="#191970" d="M248.496,-112.3733C227.8565,-103.3435 196.7842,-89.7494 173.6111,-79.6111"/>
<polygon fill="#191970" stroke="#191970" points="174.7813,-76.3028 164.2169,-75.5011 171.9755,-82.7159 174.7813,-76.3028"/>
</g>
<!-- Node10 -->
<g id="node11" class="node">
<title>Node10</title>
<g id="a_node11"><a xlink:href="spec_2align_8h.html" target="_top" xlink:title="ODP alignments. ">
<polygon fill="#ffffff" stroke="#000000" points="214.5,-56.5 214.5,-75.5 328.5,-75.5 328.5,-56.5 214.5,-56.5"/>
<text text-anchor="middle" x="271.5" y="-63.5" font-family="Helvetica,sans-Serif" font-size="10.00" fill="#000000">odp/api/spec/align.h</text>
</a>
</g>
</g>
<!-- Node8&#45;&gt;Node10 -->
<g id="edge11" class="edge">
<title>Node8&#45;&gt;Node10</title>
<path fill="none" stroke="#191970" d="M270.6742,-112.2455C270.8047,-104.9382 270.9876,-94.6944 271.1481,-85.7046"/>
<polygon fill="#191970" stroke="#191970" points="274.6486,-85.7036 271.3278,-75.6427 267.6497,-85.5786 274.6486,-85.7036"/>
</g>
<!-- Node10&#45;&gt;Node3 -->
<g id="edge12" class="edge">
<title>Node10&#45;&gt;Node3</title>
<path fill="none" stroke="#191970" d="M235.2278,-56.3733C199.5342,-46.9001 144.9121,-32.4032 106.2549,-22.1435"/>
<polygon fill="#191970" stroke="#191970" points="106.8621,-18.6835 96.2989,-19.5011 105.0664,-25.4493 106.8621,-18.6835"/>
</g>
<!-- Node10&#45;&gt;Node11 -->
<g id="edge13" class="edge">
<title>Node10&#45;&gt;Node11</title>
<path fill="none" stroke="#191970" d="M286.3059,-56.2455C299.2256,-47.7337 318.1931,-35.2375 333.1552,-25.3801"/>
<polygon fill="#191970" stroke="#191970" points="335.4387,-28.067 341.8638,-19.6427 331.5876,-22.2216 335.4387,-28.067"/>
</g>
</g>
</svg>
