<?xml version="1.0" encoding="UTF-8" standalone="no"?>
<!DOCTYPE svg PUBLIC "-//W3C//DTD SVG 1.1//EN"
 "http://www.w3.org/Graphics/SVG/1.1/DTD/svg11.dtd">
<!-- Generated by graphviz version 2.40.1 (20161225.0304)
 -->
<!-- Title: std_types.h Pages: 1 -->
<svg width="2681pt" height="364pt"
 viewBox="0.00 0.00 2681.00 364.00" xmlns="http://www.w3.org/2000/svg" xmlns:xlink="http://www.w3.org/1999/xlink">
<g id="graph0" class="graph" transform="scale(1 1) rotate(0) translate(4 360)">
<title>std_types.h</title>
<polygon fill="#ffffff" stroke="transparent" points="-4,4 -4,-360 2677,-360 2677,4 -4,4"/>
<!-- Node9 -->
<g id="node1" class="node">
<title>Node9</title>
<polygon fill="#bfbfbf" stroke="#000000" points="1330,-336.5 1330,-355.5 1403,-355.5 1403,-336.5 1330,-336.5"/>
<text text-anchor="middle" x="1366.5" y="-343.5" font-family="Helvetica,sans-Serif" font-size="10.00" fill="#000000">std_types.h</text>
</g>
<!-- Node10 -->
<g id="node2" class="node">
<title>Node10</title>
<g id="a_node2"><a xlink:href="abi-default_2atomic_8h.html" target="_top" xlink:title="ODP atomic operations. ">
<polygon fill="#ffffff" stroke="#000000" points="0,-280.5 0,-299.5 59,-299.5 59,-280.5 0,-280.5"/>
<text text-anchor="middle" x="29.5" y="-287.5" font-family="Helvetica,sans-Serif" font-size="10.00" fill="#000000">atomic.h</text>
</a>
</g>
</g>
<!-- Node9&#45;&gt;Node10 -->
<g id="edge1" class="edge">
<title>Node9&#45;&gt;Node10</title>
<path fill="none" stroke="#191970" d="M1319.712,-345.7332C1117.3461,-344.3652 316.4207,-336.6945 67.5,-300 64.8004,-299.602 62.0168,-299.0843 59.2412,-298.4939"/>
<polygon fill="#191970" stroke="#191970" points="1319.6959,-349.233 1329.7187,-345.7989 1319.7419,-342.2332 1319.6959,-349.233"/>
</g>
<!-- Node11 -->
<g id="node3" class="node">
<title>Node11</title>
<g id="a_node3"><a xlink:href="abi-default_2barrier_8h.html" target="_top" xlink:title="ODP barrier. ">
<polygon fill="#ffffff" stroke="#000000" points="77,-280.5 77,-299.5 134,-299.5 134,-280.5 77,-280.5"/>
<text text-anchor="middle" x="105.5" y="-287.5" font-family="Helvetica,sans-Serif" font-size="10.00" fill="#000000">barrier.h</text>
</a>
</g>
</g>
<!-- Node9&#45;&gt;Node11 -->
<g id="edge2" class="edge">
<title>Node9&#45;&gt;Node11</title>
<path fill="none" stroke="#191970" d="M1319.6386,-345.613C1124.6212,-343.7903 376.7022,-334.6392 143.5,-300 140.531,-299.559 137.46,-298.9742 134.4098,-298.308"/>
<polygon fill="#191970" stroke="#191970" points="1319.8031,-349.1145 1329.8348,-345.7063 1319.8672,-342.1148 1319.8031,-349.1145"/>
</g>
<!-- Node12 -->
<g id="node4" class="node">
<title>Node12</title>
<g id="a_node4"><a xlink:href="abi-default_2byteorder_8h.html" target="_top" xlink:title="ODP byteorder. ">
<polygon fill="#ffffff" stroke="#000000" points="152.5,-280.5 152.5,-299.5 224.5,-299.5 224.5,-280.5 152.5,-280.5"/>
<text text-anchor="middle" x="188.5" y="-287.5" font-family="Helvetica,sans-Serif" font-size="10.00" fill="#000000">byteorder.h</text>
</a>
</g>
</g>
<!-- Node9&#45;&gt;Node12 -->
<g id="edge3" class="edge">
<title>Node9&#45;&gt;Node12</title>
<path fill="none" stroke="#191970" d="M1319.5206,-345.2087C1133.5614,-341.9039 448.6919,-328.0512 233.5,-300 230.6431,-299.6276 227.6997,-299.1622 224.7508,-298.6372"/>
<polygon fill="#191970" stroke="#191970" points="1319.7193,-348.7127 1329.7794,-345.3893 1319.8425,-341.7138 1319.7193,-348.7127"/>
</g>
<!-- Node13 -->
<g id="node5" class="node">
<title>Node13</title>
<g id="a_node5"><a xlink:href="abi-default_2cpumask_8h.html" target="_top" xlink:title="ODP CPU masks and enumeration. ">
<polygon fill="#ffffff" stroke="#000000" points="242.5,-280.5 242.5,-299.5 312.5,-299.5 312.5,-280.5 242.5,-280.5"/>
<text text-anchor="middle" x="277.5" y="-287.5" font-family="Helvetica,sans-Serif" font-size="10.00" fill="#000000">cpumask.h</text>
</a>
</g>
</g>
<!-- Node9&#45;&gt;Node13 -->
<g id="edge4" class="edge">
<title>Node9&#45;&gt;Node13</title>
<path fill="none" stroke="#191970" d="M1319.7344,-345.0579C1143.3724,-341.3317 518.5988,-326.517 321.5,-300 318.7051,-299.624 315.8261,-299.156 312.9419,-298.6292"/>
<polygon fill="#191970" stroke="#191970" points="1319.9028,-348.5621 1329.9739,-345.2724 1320.0495,-341.5637 1319.9028,-348.5621"/>
</g>
<!-- Node14 -->
<g id="node6" class="node">
<title>Node14</title>
<g id="a_node6"><a xlink:href="abi-default_2init_8h.html" target="_top" xlink:title="ODP initialization. ">
<polygon fill="#ffffff" stroke="#000000" points="331,-280.5 331,-299.5 372,-299.5 372,-280.5 331,-280.5"/>
<text text-anchor="middle" x="351.5" y="-287.5" font-family="Helvetica,sans-Serif" font-size="10.00" fill="#000000">init.h</text>
</a>
</g>
</g>
<!-- Node9&#45;&gt;Node14 -->
<g id="edge5" class="edge">
<title>Node9&#45;&gt;Node14</title>
<path fill="none" stroke="#191970" d="M1319.753,-345.5825C1149.63,-343.7892 563.8986,-335.1456 380.5,-300 377.7802,-299.4788 374.9687,-298.7567 372.2151,-297.9369"/>
<polygon fill="#191970" stroke="#191970" points="1319.8492,-349.0836 1329.8846,-345.6863 1319.921,-342.084 1319.8492,-349.0836"/>
</g>
<!-- Node15 -->
<g id="node7" class="node">
<title>Node15</title>
<g id="a_node7"><a xlink:href="abi-default_2ipsec_8h.html" target="_top" xlink:title="ODP IPSEC API &#45; platform specific types. ">
<polygon fill="#ffffff" stroke="#000000" points="390,-280.5 390,-299.5 441,-299.5 441,-280.5 390,-280.5"/>
<text text-anchor="middle" x="415.5" y="-287.5" font-family="Helvetica,sans-Serif" font-size="10.00" fill="#000000">ipsec.h</text>
</a>
</g>
</g>
<!-- Node9&#45;&gt;Node15 -->
<g id="edge6" class="edge">
<title>Node9&#45;&gt;Node15</title>
<path fill="none" stroke="#191970" d="M1319.6103,-345.1085C1157.2241,-341.7931 619.5216,-328.8505 449.5,-300 446.8309,-299.5471 444.0749,-298.9545 441.3408,-298.2835"/>
<polygon fill="#191970" stroke="#191970" points="1319.6872,-348.6107 1329.7557,-345.3131 1319.8284,-341.6121 1319.6872,-348.6107"/>
</g>
<!-- Node16 -->
<g id="node8" class="node">
<title>Node16</title>
<g id="a_node8"><a xlink:href="abi-default_2packet__io_8h.html" target="_top" xlink:title="ODP Packet IO. ">
<polygon fill="#ffffff" stroke="#000000" points="459,-280.5 459,-299.5 532,-299.5 532,-280.5 459,-280.5"/>
<text text-anchor="middle" x="495.5" y="-287.5" font-family="Helvetica,sans-Serif" font-size="10.00" fill="#000000">packet_io.h</text>
</a>
</g>
</g>
<!-- Node9&#45;&gt;Node16 -->
<g id="edge7" class="edge">
<title>Node9&#45;&gt;Node16</title>
<path fill="none" stroke="#191970" d="M1319.1674,-344.3484C1167.3219,-338.8944 693.5047,-320.6277 541.5,-300 538.4226,-299.5824 535.2453,-299.0684 532.0654,-298.4959"/>
<polygon fill="#191970" stroke="#191970" points="1319.4164,-347.8594 1329.5351,-344.7188 1319.6664,-340.8639 1319.4164,-347.8594"/>
</g>
<!-- Node17 -->
<g id="node9" class="node">
<title>Node17</title>
<g id="a_node9"><a xlink:href="abi-default_2rwlock__recursive_8h.html" target="_top" xlink:title="ODP recursive read/write lock. ">
<polygon fill="#ffffff" stroke="#000000" points="550.5,-280.5 550.5,-299.5 658.5,-299.5 658.5,-280.5 550.5,-280.5"/>
<text text-anchor="middle" x="604.5" y="-287.5" font-family="Helvetica,sans-Serif" font-size="10.00" fill="#000000">rwlock_recursive.h</text>
</a>
</g>
</g>
<!-- Node9&#45;&gt;Node17 -->
<g id="edge8" class="edge">
<title>Node9&#45;&gt;Node17</title>
<path fill="none" stroke="#191970" d="M1319.6255,-344.4008C1206.9604,-340.2338 912.1586,-327.4092 667.5,-300 664.6385,-299.6794 661.7085,-299.3208 658.7533,-298.9352"/>
<polygon fill="#191970" stroke="#191970" points="1319.5167,-347.8991 1329.6376,-344.766 1319.7718,-340.9037 1319.5167,-347.8991"/>
</g>
<!-- Node18 -->
<g id="node10" class="node">
<title>Node18</title>
<g id="a_node10"><a xlink:href="abi-default_2schedule_8h.html" target="_top" xlink:title="ODP schedule. ">
<polygon fill="#ffffff" stroke="#000000" points="677,-280.5 677,-299.5 746,-299.5 746,-280.5 677,-280.5"/>
<text text-anchor="middle" x="711.5" y="-287.5" font-family="Helvetica,sans-Serif" font-size="10.00" fill="#000000">schedule.h</text>
</a>
</g>
</g>
<!-- Node9&#45;&gt;Node18 -->
<g id="edge9" class="edge">
<title>Node9&#45;&gt;Node18</title>
<path fill="none" stroke="#191970" d="M1319.7503,-344.8427C1217.1019,-341.7855 964.4941,-331.439 755.5,-300 752.5563,-299.5572 749.5171,-299.0255 746.4755,-298.4411"/>
<polygon fill="#191970" stroke="#191970" points="1319.6909,-348.3423 1329.7878,-345.1324 1319.893,-341.3452 1319.6909,-348.3423"/>
</g>
<!-- Node19 -->
<g id="node11" class="node">
<title>Node19</title>
<g id="a_node11"><a xlink:href="abi-default_2spinlock__recursive_8h.html" target="_top" xlink:title="ODP recursive spinlock. ">
<polygon fill="#ffffff" stroke="#000000" points="764.5,-280.5 764.5,-299.5 880.5,-299.5 880.5,-280.5 764.5,-280.5"/>
<text text-anchor="middle" x="822.5" y="-287.5" font-family="Helvetica,sans-Serif" font-size="10.00" fill="#000000">spinlock_recursive.h</text>
</a>
</g>
</g>
<!-- Node9&#45;&gt;Node19 -->
<g id="edge10" class="edge">
<title>Node9&#45;&gt;Node19</title>
<path fill="none" stroke="#191970" d="M1319.7647,-342.3052C1234.2371,-335.363 1046.8519,-319.3166 889.5,-300 886.5817,-299.6417 883.5944,-299.2581 880.5795,-298.8574"/>
<polygon fill="#191970" stroke="#191970" points="1319.676,-345.8094 1329.9253,-343.1259 1320.2396,-338.8321 1319.676,-345.8094"/>
</g>
<!-- Node20 -->
<g id="node12" class="node">
<title>Node20</title>
<g id="a_node12"><a xlink:href="abi-default_2traffic__mngr_8h.html" target="_top" xlink:title="ODP traffic mngr. ">
<polygon fill="#ffffff" stroke="#000000" points="898.5,-280.5 898.5,-299.5 982.5,-299.5 982.5,-280.5 898.5,-280.5"/>
<text text-anchor="middle" x="940.5" y="-287.5" font-family="Helvetica,sans-Serif" font-size="10.00" fill="#000000">traffic_mngr.h</text>
</a>
</g>
</g>
<!-- Node9&#45;&gt;Node20 -->
<g id="edge11" class="edge">
<title>Node9&#45;&gt;Node20</title>
<path fill="none" stroke="#191970" d="M1319.9416,-341.3719C1248.9003,-334.0658 1109.2698,-318.7446 991.5,-300 988.6486,-299.5462 985.7132,-299.0495 982.7593,-298.5279"/>
<polygon fill="#191970" stroke="#191970" points="1319.6106,-344.8562 1329.9146,-342.3911 1320.3223,-337.8924 1319.6106,-344.8562"/>
</g>
<!-- Node21 -->
<g id="node13" class="node">
<title>Node21</title>
<g id="a_node13"><a xlink:href="barrier_8h.html" target="_top" xlink:title="ODP execution barriers. ">
<polygon fill="#ffffff" stroke="#000000" points="1001,-280.5 1001,-299.5 1058,-299.5 1058,-280.5 1001,-280.5"/>
<text text-anchor="middle" x="1029.5" y="-287.5" font-family="Helvetica,sans-Serif" font-size="10.00" fill="#000000">barrier.h</text>
</a>
</g>
</g>
<!-- Node9&#45;&gt;Node21 -->
<g id="edge12" class="edge">
<title>Node9&#45;&gt;Node21</title>
<path fill="none" stroke="#191970" d="M1319.6081,-340.4599C1260.3173,-333.0776 1155.2599,-318.7382 1066.5,-300 1063.7656,-299.4227 1060.9324,-298.7657 1058.1066,-298.0706"/>
<polygon fill="#191970" stroke="#191970" points="1319.4262,-343.9639 1329.7794,-341.7139 1320.2828,-337.0165 1319.4262,-343.9639"/>
</g>
<!-- Node22 -->
<g id="node14" class="node">
<title>Node22</title>
<g id="a_node14"><a xlink:href="buffer_8h.html" target="_top" xlink:title="ODP buffer descriptor. ">
<polygon fill="#ffffff" stroke="#000000" points="1076,-280.5 1076,-299.5 1129,-299.5 1129,-280.5 1076,-280.5"/>
<text text-anchor="middle" x="1102.5" y="-287.5" font-family="Helvetica,sans-Serif" font-size="10.00" fill="#000000">buffer.h</text>
</a>
</g>
</g>
<!-- Node9&#45;&gt;Node22 -->
<g id="edge13" class="edge">
<title>Node9&#45;&gt;Node22</title>
<path fill="none" stroke="#191970" d="M1319.6263,-336.8382C1274.4284,-327.8843 1204.1456,-313.6461 1143.5,-300 1138.9253,-298.9706 1134.0754,-297.8309 1129.3739,-296.7004"/>
<polygon fill="#191970" stroke="#191970" points="1319.2265,-340.3268 1329.7153,-338.8316 1320.5834,-333.4596 1319.2265,-340.3268"/>
</g>
<!-- Node23 -->
<g id="node15" class="node">
<title>Node23</title>
<g id="a_node15"><a xlink:href="classification_8h.html" target="_top" xlink:title="ODP classification descriptor. ">
<polygon fill="#ffffff" stroke="#000000" points="1160,-56.5 1160,-75.5 1249,-75.5 1249,-56.5 1160,-56.5"/>
<text text-anchor="middle" x="1204.5" y="-63.5" font-family="Helvetica,sans-Serif" font-size="10.00" fill="#000000">classification.h</text>
</a>
</g>
</g>
<!-- Node9&#45;&gt;Node23 -->
<g id="edge14" class="edge">
<title>Node9&#45;&gt;Node23</title>
<path fill="none" stroke="#191970" d="M1319.6651,-339.1922C1274.1119,-331.6328 1209.2559,-318.0725 1191.5,-300 1131.5653,-238.9966 1114.6463,-189.6408 1150.5,-112 1157.8833,-96.0115 1173.8676,-83.5319 1186.5401,-75.6299"/>
<polygon fill="#191970" stroke="#191970" points="1319.2105,-342.6641 1329.6407,-340.8038 1320.3269,-335.7537 1319.2105,-342.6641"/>
</g>
<!-- Node26 -->
<g id="node17" class="node">
<title>Node26</title>
<g id="a_node17"><a xlink:href="crypto_8h.html" target="_top" xlink:title="ODP crypto. ">
<polygon fill="#ffffff" stroke="#000000" points="1389.5,-168.5 1389.5,-187.5 1445.5,-187.5 1445.5,-168.5 1389.5,-168.5"/>
<text text-anchor="middle" x="1417.5" y="-175.5" font-family="Helvetica,sans-Serif" font-size="10.00" fill="#000000">crypto.h</text>
</a>
</g>
</g>
<!-- Node9&#45;&gt;Node26 -->
<g id="edge16" class="edge">
<title>Node9&#45;&gt;Node26</title>
<path fill="none" stroke="#191970" d="M1359.0207,-326.7081C1350.5687,-301.6267 1339.9945,-257.1193 1356.5,-224 1364.7828,-207.3801 1382.2497,-195.1809 1396.3784,-187.5378"/>
<polygon fill="#191970" stroke="#191970" points="1355.7491,-327.9535 1362.428,-336.178 1362.3358,-325.5836 1355.7491,-327.9535"/>
</g>
<!-- Node27 -->
<g id="node18" class="node">
<title>Node27</title>
<g id="a_node18"><a xlink:href="packet_8h.html" target="_top" xlink:title="ODP packet descriptor. ">
<polygon fill="#ffffff" stroke="#000000" points="1366,-280.5 1366,-299.5 1425,-299.5 1425,-280.5 1366,-280.5"/>
<text text-anchor="middle" x="1395.5" y="-287.5" font-family="Helvetica,sans-Serif" font-size="10.00" fill="#000000">packet.h</text>
</a>
</g>
</g>
<!-- Node9&#45;&gt;Node27 -->
<g id="edge18" class="edge">
<title>Node9&#45;&gt;Node27</title>
<path fill="none" stroke="#191970" d="M1376.1647,-327.3372C1380.9687,-318.0605 1386.5723,-307.2398 1390.5065,-299.6427"/>
<polygon fill="#191970" stroke="#191970" points="1373.042,-325.7561 1371.5514,-336.2455 1379.258,-328.9751 1373.042,-325.7561"/>
</g>
<!-- Node44 -->
<g id="node22" class="node">
<title>Node44</title>
<g id="a_node22"><a xlink:href="spec_2packet__flags_8h.html" target="_top" xlink:title="ODP packet flags. ">
<polygon fill="#ffffff" stroke="#000000" points="1583,-224.5 1583,-243.5 1670,-243.5 1670,-224.5 1583,-224.5"/>
<text text-anchor="middle" x="1626.5" y="-231.5" font-family="Helvetica,sans-Serif" font-size="10.00" fill="#000000">packet_flags.h</text>
</a>
</g>
</g>
<!-- Node9&#45;&gt;Node44 -->
<g id="edge45" class="edge">
<title>Node9&#45;&gt;Node44</title>
<path fill="none" stroke="#191970" d="M1387.6117,-330.4861C1408.3549,-315.8279 1441.3408,-294.049 1472.5,-280 1508.621,-263.7139 1552.0527,-251.342 1583.5712,-243.5528"/>
<polygon fill="#191970" stroke="#191970" points="1385.3414,-327.807 1379.2527,-336.4776 1389.4195,-333.4965 1385.3414,-327.807"/>
</g>
<!-- Node38 -->
<g id="node25" class="node">
<title>Node38</title>
<g id="a_node25"><a xlink:href="packet__io_8h.html" target="_top" xlink:title="ODP Packet IO. ">
<polygon fill="#ffffff" stroke="#000000" points="1198,-168.5 1198,-187.5 1271,-187.5 1271,-168.5 1198,-168.5"/>
<text text-anchor="middle" x="1234.5" y="-175.5" font-family="Helvetica,sans-Serif" font-size="10.00" fill="#000000">packet_io.h</text>
</a>
</g>
</g>
<!-- Node9&#45;&gt;Node38 -->
<g id="edge31" class="edge">
<title>Node9&#45;&gt;Node38</title>
<path fill="none" stroke="#191970" d="M1319.7491,-336.2612C1281.1966,-327.4474 1230.362,-313.7723 1214.5,-300 1187.5433,-276.5947 1174.8383,-256.9822 1188.5,-224 1194.8102,-208.7658 1208.8846,-195.9464 1219.8148,-187.7423"/>
<polygon fill="#191970" stroke="#191970" points="1319.2331,-339.7323 1329.7565,-338.5042 1320.7641,-332.9018 1319.2331,-339.7323"/>
</g>
<!-- Node40 -->
<g id="node27" class="node">
<title>Node40</title>
<g id="a_node27"><a xlink:href="spec_2traffic__mngr_8h.html" target="_top" xlink:title="traffic_mngr.h">
<polygon fill="#ffffff" stroke="#ff0000" points="1305.5,-112.5 1305.5,-131.5 1389.5,-131.5 1389.5,-112.5 1305.5,-112.5"/>
<text text-anchor="middle" x="1347.5" y="-119.5" font-family="Helvetica,sans-Serif" font-size="10.00" fill="#000000">traffic_mngr.h</text>
</a>
</g>
</g>
<!-- Node9&#45;&gt;Node40 -->
<g id="edge54" class="edge">
<title>Node9&#45;&gt;Node40</title>
<path fill="none" stroke="#191970" d="M1355.7447,-327.2736C1351.6789,-319.1643 1347.5425,-309.3921 1345.5,-300 1331.8401,-237.1863 1341.6979,-158.937 1345.8747,-131.8019"/>
<polygon fill="#191970" stroke="#191970" points="1352.7191,-329.0378 1360.5235,-336.2032 1358.8909,-325.7349 1352.7191,-329.0378"/>
</g>
<!-- Node34 -->
<g id="node28" class="node">
<title>Node34</title>
<g id="a_node28"><a xlink:href="queue_8h.html" target="_top" xlink:title="ODP queue. ">
<polygon fill="#ffffff" stroke="#000000" points="1481.5,-280.5 1481.5,-299.5 1537.5,-299.5 1537.5,-280.5 1481.5,-280.5"/>
<text text-anchor="middle" x="1509.5" y="-287.5" font-family="Helvetica,sans-Serif" font-size="10.00" fill="#000000">queue.h</text>
</a>
</g>
</g>
<!-- Node9&#45;&gt;Node34 -->
<g id="edge32" class="edge">
<title>Node9&#45;&gt;Node34</title>
<path fill="none" stroke="#191970" d="M1400.5798,-332.6541C1426.6573,-322.4419 1461.9815,-308.6086 1485.2382,-299.5011"/>
<polygon fill="#191970" stroke="#191970" points="1399.1178,-329.4677 1391.0826,-336.3733 1401.6703,-335.9858 1399.1178,-329.4677"/>
</g>
<!-- Node46 -->
<g id="node30" class="node">
<title>Node46</title>
<g id="a_node30"><a xlink:href="spec_2chksum_8h.html" target="_top" xlink:title="ODP checksum functions. ">
<polygon fill="#ffffff" stroke="#000000" points="1555.5,-280.5 1555.5,-299.5 1619.5,-299.5 1619.5,-280.5 1555.5,-280.5"/>
<text text-anchor="middle" x="1587.5" y="-287.5" font-family="Helvetica,sans-Serif" font-size="10.00" fill="#000000">chksum.h</text>
</a>
</g>
</g>
<!-- Node9&#45;&gt;Node46 -->
<g id="edge34" class="edge">
<title>Node9&#45;&gt;Node46</title>
<path fill="none" stroke="#191970" d="M1413.3733,-334.1226C1456.1027,-323.2952 1518.0859,-307.5891 1555.4219,-298.1284"/>
<polygon fill="#191970" stroke="#191970" points="1412.3243,-330.7777 1403.4904,-336.6269 1414.0438,-337.5633 1412.3243,-330.7777"/>
</g>
<!-- Node48 -->
<g id="node32" class="node">
<title>Node48</title>
<g id="a_node32"><a xlink:href="spec_2cpu_8h.html" target="_top" xlink:title="ODP CPU API. ">
<polygon fill="#ffffff" stroke="#000000" points="1638,-280.5 1638,-299.5 1681,-299.5 1681,-280.5 1638,-280.5"/>
<text text-anchor="middle" x="1659.5" y="-287.5" font-family="Helvetica,sans-Serif" font-size="10.00" fill="#000000">cpu.h</text>
</a>
</g>
</g>
<!-- Node9&#45;&gt;Node48 -->
<g id="edge36" class="edge">
<title>Node9&#45;&gt;Node48</title>
<path fill="none" stroke="#191970" d="M1413.3467,-339.7703C1466.0826,-332.297 1554.117,-318.4333 1628.5,-300 1631.5738,-299.2383 1634.7863,-298.3313 1637.9296,-297.379"/>
<polygon fill="#191970" stroke="#191970" points="1412.7027,-336.3262 1403.2846,-341.1792 1413.6734,-343.2586 1412.7027,-336.3262"/>
</g>
<!-- Node51 -->
<g id="node34" class="node">
<title>Node51</title>
<g id="a_node34"><a xlink:href="spec_2feature_8h.html" target="_top" xlink:title="ODP features. ">
<polygon fill="#ffffff" stroke="#000000" points="1738,-280.5 1738,-299.5 1799,-299.5 1799,-280.5 1738,-280.5"/>
<text text-anchor="middle" x="1768.5" y="-287.5" font-family="Helvetica,sans-Serif" font-size="10.00" fill="#000000">feature.h</text>
</a>
</g>
</g>
<!-- Node9&#45;&gt;Node51 -->
<g id="edge38" class="edge">
<title>Node9&#45;&gt;Node51</title>
<path fill="none" stroke="#191970" d="M1413.1755,-341.349C1481.5522,-334.2275 1612.8428,-319.3834 1723.5,-300 1728.0722,-299.1991 1732.8825,-298.2478 1737.5883,-297.2554"/>
<polygon fill="#191970" stroke="#191970" points="1412.7413,-337.8752 1403.1539,-342.3843 1413.4607,-344.8381 1412.7413,-337.8752"/>
</g>
<!-- Node53 -->
<g id="node36" class="node">
<title>Node53</title>
<g id="a_node36"><a xlink:href="spec_2init_8h.html" target="_top" xlink:title="init.h">
<polygon fill="#ffffff" stroke="#000000" points="1971,-168.5 1971,-187.5 2012,-187.5 2012,-168.5 1971,-168.5"/>
<text text-anchor="middle" x="1991.5" y="-175.5" font-family="Helvetica,sans-Serif" font-size="10.00" fill="#000000">init.h</text>
</a>
</g>
</g>
<!-- Node9&#45;&gt;Node53 -->
<g id="edge44" class="edge">
<title>Node9&#45;&gt;Node53</title>
<path fill="none" stroke="#191970" d="M1413.3716,-344.1871C1477.1966,-340.6329 1594.3873,-330.2217 1689.5,-300 1708.065,-294.101 1710.0085,-286.1254 1728.5,-280 1820.4712,-249.5343 1861.1032,-294.967 1943.5,-244 1965.4299,-230.4352 1980.4389,-202.7993 1987.2837,-187.9558"/>
<polygon fill="#191970" stroke="#191970" points="1413.0244,-340.7004 1403.2213,-344.7191 1413.3909,-347.6908 1413.0244,-340.7004"/>
</g>
<!-- Node58 -->
<g id="node38" class="node">
<title>Node58</title>
<g id="a_node38"><a xlink:href="spec_2hash_8h.html" target="_top" xlink:title="ODP Hash functions. ">
<polygon fill="#ffffff" stroke="#000000" points="1817,-280.5 1817,-299.5 1866,-299.5 1866,-280.5 1817,-280.5"/>
<text text-anchor="middle" x="1841.5" y="-287.5" font-family="Helvetica,sans-Serif" font-size="10.00" fill="#000000">hash.h</text>
</a>
</g>
</g>
<!-- Node9&#45;&gt;Node58 -->
<g id="edge42" class="edge">
<title>Node9&#45;&gt;Node58</title>
<path fill="none" stroke="#191970" d="M1413.5005,-343.9104C1494.5738,-339.6819 1665.662,-328.0132 1807.5,-300 1810.5181,-299.4039 1813.6542,-298.6592 1816.7472,-297.8467"/>
<polygon fill="#191970" stroke="#191970" points="1412.9456,-340.434 1403.1356,-344.4358 1413.3,-347.425 1412.9456,-340.434"/>
</g>
<!-- Node60 -->
<g id="node40" class="node">
<title>Node60</title>
<g id="a_node40"><a xlink:href="spec_2pool_8h.html" target="_top" xlink:title="ODP pool. ">
<polygon fill="#ffffff" stroke="#ff0000" points="2137,-224.5 2137,-243.5 2184,-243.5 2184,-224.5 2137,-224.5"/>
<text text-anchor="middle" x="2160.5" y="-231.5" font-family="Helvetica,sans-Serif" font-size="10.00" fill="#000000">pool.h</text>
</a>
</g>
</g>
<!-- Node9&#45;&gt;Node60 -->
<g id="edge46" class="edge">
<title>Node9&#45;&gt;Node60</title>
<path fill="none" stroke="#191970" d="M1413.3154,-343.9867C1521.9557,-338.9562 1788.4747,-324.4556 1874.5,-300 1893.6186,-294.5649 1895.6028,-286.1609 1914.5,-280 2006.1973,-250.1047 2034.6983,-266.436 2128.5,-244 2131.2172,-243.3501 2134.0404,-242.5923 2136.8345,-241.79"/>
<polygon fill="#191970" stroke="#191970" points="1413.1358,-340.4912 1403.306,-344.444 1413.4554,-347.4839 1413.1358,-340.4912"/>
</g>
<!-- Node63 -->
<g id="node41" class="node">
<title>Node63</title>
<g id="a_node41"><a xlink:href="pool__types_8h.html" target="_top" xlink:title="Type definitions for pools. ">
<polygon fill="#ffffff" stroke="#000000" points="1923,-280.5 1923,-299.5 2002,-299.5 2002,-280.5 1923,-280.5"/>
<text text-anchor="middle" x="1962.5" y="-287.5" font-family="Helvetica,sans-Serif" font-size="10.00" fill="#000000">pool_types.h</text>
</a>
</g>
</g>
<!-- Node9&#45;&gt;Node63 -->
<g id="edge47" class="edge">
<title>Node9&#45;&gt;Node63</title>
<path fill="none" stroke="#191970" d="M1413.153,-343.5918C1507.18,-338.3966 1726.053,-324.5747 1908.5,-300 1913.13,-299.3764 1917.966,-298.6251 1922.7594,-297.8179"/>
<polygon fill="#191970" stroke="#191970" points="1412.9077,-340.0999 1403.1133,-344.1399 1413.2893,-347.0895 1412.9077,-340.0999"/>
</g>
<!-- Node42 -->
<g id="node42" class="node">
<title>Node42</title>
<g id="a_node42"><a xlink:href="spec_2schedule_8h.html" target="_top" xlink:title="ODP schedule. ">
<polygon fill="#ffffff" stroke="#ff0000" points="2020,-280.5 2020,-299.5 2089,-299.5 2089,-280.5 2020,-280.5"/>
<text text-anchor="middle" x="2054.5" y="-287.5" font-family="Helvetica,sans-Serif" font-size="10.00" fill="#000000">schedule.h</text>
</a>
</g>
</g>
<!-- Node9&#45;&gt;Node42 -->
<g id="edge49" class="edge">
<title>Node9&#45;&gt;Node42</title>
<path fill="none" stroke="#191970" d="M1413.1922,-345.1832C1519.8087,-342.771 1789.1236,-333.5741 2011.5,-300 2014.2283,-299.5881 2017.0396,-299.0943 2019.8566,-298.5497"/>
<polygon fill="#191970" stroke="#191970" points="1413.012,-341.6862 1403.0902,-345.4023 1413.1638,-348.6846 1413.012,-341.6862"/>
</g>
<!-- Node64 -->
<g id="node43" class="node">
<title>Node64</title>
<g id="a_node43"><a xlink:href="spec_2stash_8h.html" target="_top" xlink:title="ODP stash. ">
<polygon fill="#ffffff" stroke="#ff0000" points="2107.5,-280.5 2107.5,-299.5 2159.5,-299.5 2159.5,-280.5 2107.5,-280.5"/>
<text text-anchor="middle" x="2133.5" y="-287.5" font-family="Helvetica,sans-Serif" font-size="10.00" fill="#000000">stash.h</text>
</a>
</g>
</g>
<!-- Node9&#45;&gt;Node64 -->
<g id="edge50" class="edge">
<title>Node9&#45;&gt;Node64</title>
<path fill="none" stroke="#191970" d="M1413.6389,-344.3667C1553.7207,-339.3027 1965.9565,-322.8242 2098.5,-300 2101.3648,-299.5067 2104.3302,-298.8678 2107.2674,-298.1515"/>
<polygon fill="#191970" stroke="#191970" points="1413.1226,-340.8829 1403.2545,-344.7391 1413.3736,-347.8784 1413.1226,-340.8829"/>
</g>
<!-- Node66 -->
<g id="node44" class="node">
<title>Node66</title>
<g id="a_node44"><a xlink:href="spec_2std_8h.html" target="_top" xlink:title="ODP standard types and optimized C library functions. ">
<polygon fill="#ffffff" stroke="#ff0000" points="2178,-280.5 2178,-299.5 2219,-299.5 2219,-280.5 2178,-280.5"/>
<text text-anchor="middle" x="2198.5" y="-287.5" font-family="Helvetica,sans-Serif" font-size="10.00" fill="#000000">std.h</text>
</a>
</g>
</g>
<!-- Node9&#45;&gt;Node66 -->
<g id="edge51" class="edge">
<title>Node9&#45;&gt;Node66</title>
<path fill="none" stroke="#191970" d="M1413.637,-344.9304C1562.6596,-341.2919 2022.3699,-328.0313 2168.5,-300 2171.5194,-299.4208 2174.6533,-298.6165 2177.7073,-297.7133"/>
<polygon fill="#191970" stroke="#191970" points="1413.3656,-341.4358 1403.4528,-345.1758 1413.5343,-348.4338 1413.3656,-341.4358"/>
</g>
<!-- Node68 -->
<g id="node45" class="node">
<title>Node68</title>
<g id="a_node45"><a xlink:href="spec_2threshold_8h.html" target="_top" xlink:title="ODP threshold descriptor. ">
<polygon fill="#ffffff" stroke="#ff0000" points="2237,-280.5 2237,-299.5 2308,-299.5 2308,-280.5 2237,-280.5"/>
<text text-anchor="middle" x="2272.5" y="-287.5" font-family="Helvetica,sans-Serif" font-size="10.00" fill="#000000">threshold.h</text>
</a>
</g>
</g>
<!-- Node9&#45;&gt;Node68 -->
<g id="edge52" class="edge">
<title>Node9&#45;&gt;Node68</title>
<path fill="none" stroke="#191970" d="M1413.3428,-344.5525C1569.116,-339.574 2068.8913,-322.2312 2228.5,-300 2231.138,-299.6326 2233.8514,-299.1863 2236.5736,-298.6887"/>
<polygon fill="#191970" stroke="#191970" points="1413.0421,-341.0602 1403.1583,-344.876 1413.2644,-348.0567 1413.0421,-341.0602"/>
</g>
<!-- Node70 -->
<g id="node46" class="node">
<title>Node70</title>
<g id="a_node46"><a xlink:href="spec_2thrmask_8h.html" target="_top" xlink:title="ODP thread masks. ">
<polygon fill="#ffffff" stroke="#ff0000" points="2326.5,-280.5 2326.5,-299.5 2392.5,-299.5 2392.5,-280.5 2326.5,-280.5"/>
<text text-anchor="middle" x="2359.5" y="-287.5" font-family="Helvetica,sans-Serif" font-size="10.00" fill="#000000">thrmask.h</text>
</a>
</g>
</g>
<!-- Node9&#45;&gt;Node70 -->
<g id="edge53" class="edge">
<title>Node9&#45;&gt;Node70</title>
<path fill="none" stroke="#191970" d="M1413.3775,-344.884C1579.5259,-340.7489 2139.8448,-325.2236 2317.5,-300 2320.32,-299.5996 2323.2282,-299.0978 2326.1364,-298.5334"/>
<polygon fill="#191970" stroke="#191970" points="1412.9224,-341.3941 1403.0118,-345.1399 1413.0952,-348.392 1412.9224,-341.3941"/>
</g>
<!-- Node72 -->
<g id="node47" class="node">
<title>Node72</title>
<g id="a_node47"><a xlink:href="system__info_8h.html" target="_top" xlink:title="ODP system information. ">
<polygon fill="#ffffff" stroke="#000000" points="2410.5,-280.5 2410.5,-299.5 2496.5,-299.5 2496.5,-280.5 2410.5,-280.5"/>
<text text-anchor="middle" x="2453.5" y="-287.5" font-family="Helvetica,sans-Serif" font-size="10.00" fill="#000000">system_info.h</text>
</a>
</g>
</g>
<!-- Node9&#45;&gt;Node72 -->
<g id="edge55" class="edge">
<title>Node9&#45;&gt;Node72</title>
<path fill="none" stroke="#191970" d="M1413.3799,-344.8247C1588.7568,-340.2866 2206.095,-323.0072 2401.5,-300 2404.4216,-299.656 2407.4254,-299.2418 2410.445,-298.7802"/>
<polygon fill="#191970" stroke="#191970" points="1413.0991,-341.3307 1403.1925,-345.0868 1413.2792,-348.3283 1413.0991,-341.3307"/>
</g>
<!-- Node73 -->
<g id="node48" class="node">
<title>Node73</title>
<g id="a_node48"><a xlink:href="time_8h.html" target="_top" xlink:title="ODP time. ">
<polygon fill="#ffffff" stroke="#ff0000" points="1223.5,-280.5 1223.5,-299.5 1271.5,-299.5 1271.5,-280.5 1223.5,-280.5"/>
<text text-anchor="middle" x="1247.5" y="-287.5" font-family="Helvetica,sans-Serif" font-size="10.00" fill="#000000">time.h</text>
</a>
</g>
</g>
<!-- Node9&#45;&gt;Node73 -->
<g id="edge56" class="edge">
<title>Node9&#45;&gt;Node73</title>
<path fill="none" stroke="#191970" d="M1336.9856,-332.1109C1315.4062,-321.9559 1286.7024,-308.4482 1267.6899,-299.5011"/>
<polygon fill="#191970" stroke="#191970" points="1335.5047,-335.2821 1346.0432,-336.3733 1338.4853,-328.9484 1335.5047,-335.2821"/>
</g>
<!-- Node75 -->
<g id="node49" class="node">
<title>Node75</title>
<g id="a_node49"><a xlink:href="timer_8h.html" target="_top" xlink:title="ODP timer service. ">
<polygon fill="#ffffff" stroke="#000000" points="2515,-280.5 2515,-299.5 2566,-299.5 2566,-280.5 2515,-280.5"/>
<text text-anchor="middle" x="2540.5" y="-287.5" font-family="Helvetica,sans-Serif" font-size="10.00" fill="#000000">timer.h</text>
</a>
</g>
</g>
<!-- Node9&#45;&gt;Node75 -->
<g id="edge58" class="edge">
<title>Node9&#45;&gt;Node75</title>
<path fill="none" stroke="#191970" d="M1413.192,-345.5938C1599.4781,-343.7445 2289.8764,-334.6495 2505.5,-300 2508.495,-299.5187 2511.5973,-298.8664 2514.6614,-298.124"/>
<polygon fill="#191970" stroke="#191970" points="1413.1392,-342.094 1403.1737,-345.691 1413.2072,-349.0937 1413.1392,-342.094"/>
</g>
<!-- Node76 -->
<g id="node50" class="node">
<title>Node76</title>
<g id="a_node50"><a xlink:href="strong__types_8h.html" target="_top" xlink:title="ODP Strong Types. ">
<polygon fill="#ffffff" stroke="#000000" points="2584,-280.5 2584,-299.5 2673,-299.5 2673,-280.5 2584,-280.5"/>
<text text-anchor="middle" x="2628.5" y="-287.5" font-family="Helvetica,sans-Serif" font-size="10.00" fill="#000000">strong_types.h</text>
</a>
</g>
</g>
<!-- Node9&#45;&gt;Node76 -->
<g id="edge59" class="edge">
<title>Node9&#45;&gt;Node76</title>
<path fill="none" stroke="#191970" d="M1413.4092,-345.1472C1606.9594,-341.4847 2344.1574,-326.0798 2575.5,-300 2578.1984,-299.6958 2580.9656,-299.3322 2583.7513,-298.9266"/>
<polygon fill="#191970" stroke="#191970" points="1413.2171,-341.6501 1403.2846,-345.3375 1413.3486,-348.6489 1413.2171,-341.6501"/>
</g>
<!-- Node24 -->
<g id="node16" class="node">
<title>Node24</title>
<g id="a_node16"><a xlink:href="spec_2ipsec_8h.html" target="_top" xlink:title="ODP IPSEC API. ">
<polygon fill="#ffffff" stroke="#ff0000" points="1252,-.5 1252,-19.5 1303,-19.5 1303,-.5 1252,-.5"/>
<text text-anchor="middle" x="1277.5" y="-7.5" font-family="Helvetica,sans-Serif" font-size="10.00" fill="#000000">ipsec.h</text>
</a>
</g>
</g>
<!-- Node23&#45;&gt;Node24 -->
<g id="edge15" class="edge">
<title>Node23&#45;&gt;Node24</title>
<path fill="none" stroke="#191970" d="M1225.451,-49.928C1238.2107,-40.1397 1254.0885,-27.9595 1264.9301,-19.6427"/>
<polygon fill="#191970" stroke="#191970" points="1223.0196,-47.3819 1217.2156,-56.2455 1227.2803,-52.9359 1223.0196,-47.3819"/>
</g>
<!-- Node26&#45;&gt;Node24 -->
<g id="edge17" class="edge">
<title>Node26&#45;&gt;Node24</title>
<path fill="none" stroke="#191970" d="M1414.9513,-158.3881C1412.4452,-144.5507 1407.6126,-126.0509 1398.5,-112 1370.9922,-69.585 1320.5181,-35.4482 1294.3023,-19.6013"/>
<polygon fill="#191970" stroke="#191970" points="1411.4998,-158.9709 1416.4996,-168.3118 1418.4161,-157.8918 1411.4998,-158.9709"/>
</g>
<!-- Node28 -->
<g id="node19" class="node">
<title>Node28</title>
<g id="a_node19"><a xlink:href="spec_2comp_8h.html" target="_top" xlink:title="ODP Compression. ">
<polygon fill="#ffffff" stroke="#ff0000" points="1366,-224.5 1366,-243.5 1419,-243.5 1419,-224.5 1366,-224.5"/>
<text text-anchor="middle" x="1392.5" y="-231.5" font-family="Helvetica,sans-Serif" font-size="10.00" fill="#000000">comp.h</text>
</a>
</g>
</g>
<!-- Node27&#45;&gt;Node28 -->
<g id="edge19" class="edge">
<title>Node27&#45;&gt;Node28</title>
<path fill="none" stroke="#191970" d="M1394.437,-270.1575C1393.9547,-261.155 1393.4064,-250.9199 1393.0166,-243.6427"/>
<polygon fill="#191970" stroke="#191970" points="1390.9474,-270.4471 1394.9774,-280.2455 1397.9374,-270.0726 1390.9474,-270.4471"/>
</g>
<!-- Node30 -->
<g id="node20" class="node">
<title>Node30</title>
<g id="a_node20"><a xlink:href="spec_2crypto_8h.html" target="_top" xlink:title="ODP crypto. ">
<polygon fill="#ffffff" stroke="#000000" points="1437.5,-224.5 1437.5,-243.5 1493.5,-243.5 1493.5,-224.5 1437.5,-224.5"/>
<text text-anchor="middle" x="1465.5" y="-231.5" font-family="Helvetica,sans-Serif" font-size="10.00" fill="#000000">crypto.h</text>
</a>
</g>
</g>
<!-- Node27&#45;&gt;Node30 -->
<g id="edge20" class="edge">
<title>Node27&#45;&gt;Node30</title>
<path fill="none" stroke="#191970" d="M1415.59,-273.928C1427.8253,-264.1397 1443.0507,-251.9595 1453.4467,-243.6427"/>
<polygon fill="#191970" stroke="#191970" points="1413.3153,-271.2655 1407.6931,-280.2455 1417.6882,-276.7316 1413.3153,-271.2655"/>
</g>
<!-- Node31 -->
<g id="node21" class="node">
<title>Node31</title>
<g id="a_node21"><a xlink:href="spec_2event_8h.html" target="_top" xlink:title="ODP event. ">
<polygon fill="#ffffff" stroke="#ff0000" points="1512,-224.5 1512,-243.5 1565,-243.5 1565,-224.5 1512,-224.5"/>
<text text-anchor="middle" x="1538.5" y="-231.5" font-family="Helvetica,sans-Serif" font-size="10.00" fill="#000000">event.h</text>
</a>
</g>
</g>
<!-- Node27&#45;&gt;Node31 -->
<g id="edge22" class="edge">
<title>Node27&#45;&gt;Node31</title>
<path fill="none" stroke="#191970" d="M1429.5798,-276.6541C1455.6573,-266.4419 1490.9815,-252.6086 1514.2382,-243.5011"/>
<polygon fill="#191970" stroke="#191970" points="1428.1178,-273.4677 1420.0826,-280.3733 1430.6703,-279.9858 1428.1178,-273.4677"/>
</g>
<!-- Node27&#45;&gt;Node44 -->
<g id="edge23" class="edge">
<title>Node27&#45;&gt;Node44</title>
<path fill="none" stroke="#191970" d="M1434.9525,-280.4357C1477.4848,-270.1249 1544.7818,-253.8105 1587.2394,-243.5177"/>
<polygon fill="#191970" stroke="#191970" points="1434.1202,-277.0361 1425.2263,-282.7936 1435.7694,-283.839 1434.1202,-277.0361"/>
</g>
<!-- Node37 -->
<g id="node24" class="node">
<title>Node37</title>
<g id="a_node24"><a xlink:href="spec_2packet__io_8h.html" target="_top" xlink:title="ODP Packet IO. ">
<polygon fill="#ffffff" stroke="#000000" points="1198,-224.5 1198,-243.5 1271,-243.5 1271,-224.5 1198,-224.5"/>
<text text-anchor="middle" x="1234.5" y="-231.5" font-family="Helvetica,sans-Serif" font-size="10.00" fill="#000000">packet_io.h</text>
</a>
</g>
</g>
<!-- Node27&#45;&gt;Node37 -->
<g id="edge25" class="edge">
<title>Node27&#45;&gt;Node37</title>
<path fill="none" stroke="#191970" d="M1358.2889,-277.057C1328.8241,-266.8084 1288.3459,-252.729 1261.8157,-243.5011"/>
<polygon fill="#191970" stroke="#191970" points="1357.2283,-280.3937 1367.8231,-280.3733 1359.528,-273.7822 1357.2283,-280.3937"/>
</g>
<!-- Node30&#45;&gt;Node26 -->
<g id="edge21" class="edge">
<title>Node30&#45;&gt;Node26</title>
<path fill="none" stroke="#191970" d="M1450.5003,-216.5004C1442.3378,-206.9775 1432.5511,-195.5596 1425.7651,-187.6427"/>
<polygon fill="#191970" stroke="#191970" points="1447.9737,-218.9307 1457.139,-224.2455 1453.2885,-214.3752 1447.9737,-218.9307"/>
</g>
<!-- Node45 -->
<g id="node23" class="node">
<title>Node45</title>
<g id="a_node23"><a xlink:href="packet__flags_8h.html" target="_top" xlink:title="ODP packet flags. ">
<polygon fill="#ffffff" stroke="#000000" points="1583,-168.5 1583,-187.5 1670,-187.5 1670,-168.5 1583,-168.5"/>
<text text-anchor="middle" x="1626.5" y="-175.5" font-family="Helvetica,sans-Serif" font-size="10.00" fill="#000000">packet_flags.h</text>
</a>
</g>
</g>
<!-- Node44&#45;&gt;Node45 -->
<g id="edge24" class="edge">
<title>Node44&#45;&gt;Node45</title>
<path fill="none" stroke="#191970" d="M1626.5,-214.1575C1626.5,-205.155 1626.5,-194.9199 1626.5,-187.6427"/>
<polygon fill="#191970" stroke="#191970" points="1623.0001,-214.2455 1626.5,-224.2455 1630.0001,-214.2456 1623.0001,-214.2455"/>
</g>
<!-- Node37&#45;&gt;Node38 -->
<g id="edge26" class="edge">
<title>Node37&#45;&gt;Node38</title>
<path fill="none" stroke="#191970" d="M1234.5,-214.1575C1234.5,-205.155 1234.5,-194.9199 1234.5,-187.6427"/>
<polygon fill="#191970" stroke="#191970" points="1231.0001,-214.2455 1234.5,-224.2455 1238.0001,-214.2456 1231.0001,-214.2455"/>
</g>
<!-- Node38&#45;&gt;Node24 -->
<g id="edge29" class="edge">
<title>Node38&#45;&gt;Node24</title>
<path fill="none" stroke="#191970" d="M1245.3509,-159.4992C1249.7262,-151.3129 1254.4502,-141.4212 1257.5,-132 1270.5883,-91.5684 1275.3947,-40.6983 1276.9008,-19.7232"/>
<polygon fill="#191970" stroke="#191970" points="1242.1479,-158.0562 1240.323,-168.4927 1248.2579,-161.4721 1242.1479,-158.0562"/>
</g>
<!-- Node39 -->
<g id="node26" class="node">
<title>Node39</title>
<g id="a_node26"><a xlink:href="spec_2classification_8h.html" target="_top" xlink:title="ODP classification descriptor. ">
<polygon fill="#ffffff" stroke="#000000" points="1160,-112.5 1160,-131.5 1249,-131.5 1249,-112.5 1160,-112.5"/>
<text text-anchor="middle" x="1204.5" y="-119.5" font-family="Helvetica,sans-Serif" font-size="10.00" fill="#000000">classification.h</text>
</a>
</g>
</g>
<!-- Node38&#45;&gt;Node39 -->
<g id="edge27" class="edge">
<title>Node38&#45;&gt;Node39</title>
<path fill="none" stroke="#191970" d="M1224.502,-159.3372C1219.5324,-150.0605 1213.7356,-139.2398 1209.6657,-131.6427"/>
<polygon fill="#191970" stroke="#191970" points="1221.4669,-161.0835 1229.2744,-168.2455 1227.6373,-157.7779 1221.4669,-161.0835"/>
</g>
<!-- Node38&#45;&gt;Node40 -->
<g id="edge30" class="edge">
<title>Node38&#45;&gt;Node40</title>
<path fill="none" stroke="#191970" d="M1263.0792,-163.8368C1283.5058,-153.7139 1310.4362,-140.3679 1328.3281,-131.5011"/>
<polygon fill="#191970" stroke="#191970" points="1261.3313,-160.7968 1253.9254,-168.3733 1264.4396,-167.0688 1261.3313,-160.7968"/>
</g>
<!-- Node39&#45;&gt;Node23 -->
<g id="edge28" class="edge">
<title>Node39&#45;&gt;Node23</title>
<path fill="none" stroke="#191970" d="M1204.5,-102.1575C1204.5,-93.155 1204.5,-82.9199 1204.5,-75.6427"/>
<polygon fill="#191970" stroke="#191970" points="1201.0001,-102.2455 1204.5,-112.2455 1208.0001,-102.2456 1201.0001,-102.2455"/>
</g>
<!-- Node35 -->
<g id="node29" class="node">
<title>Node35</title>
<g id="a_node29"><a xlink:href="spec_2packet__io__stats_8h.html" target="_top" xlink:title="ODP Packet IO statistics. ">
<polygon fill="#ffffff" stroke="#ff0000" points="1688.5,-224.5 1688.5,-243.5 1790.5,-243.5 1790.5,-224.5 1688.5,-224.5"/>
<text text-anchor="middle" x="1739.5" y="-231.5" font-family="Helvetica,sans-Serif" font-size="10.00" fill="#000000">packet_io_stats.h</text>
</a>
</g>
</g>
<!-- Node34&#45;&gt;Node35 -->
<g id="edge33" class="edge">
<title>Node34&#45;&gt;Node35</title>
<path fill="none" stroke="#191970" d="M1547.7288,-279.7369C1605.1077,-265.2232 1660.995,-252.0786 1697.9985,-243.5124"/>
<polygon fill="#191970" stroke="#191970" points="1546.5896,-276.415 1537.7588,-282.2689 1548.3127,-283.1996 1546.5896,-276.415"/>
</g>
<!-- Node47 -->
<g id="node31" class="node">
<title>Node47</title>
<g id="a_node31"><a xlink:href="chksum_8h.html" target="_top" xlink:title="ODP checksum functions. ">
<polygon fill="#ffffff" stroke="#000000" points="1808.5,-224.5 1808.5,-243.5 1872.5,-243.5 1872.5,-224.5 1808.5,-224.5"/>
<text text-anchor="middle" x="1840.5" y="-231.5" font-family="Helvetica,sans-Serif" font-size="10.00" fill="#000000">chksum.h</text>
</a>
</g>
</g>
<!-- Node46&#45;&gt;Node47 -->
<g id="edge35" class="edge">
<title>Node46&#45;&gt;Node47</title>
<path fill="none" stroke="#191970" d="M1629.7877,-279.7612C1705.9329,-262.6392 1726.8698,-260.4983 1799.5,-244 1802.3579,-243.3508 1805.3237,-242.6604 1808.2938,-241.9574"/>
<polygon fill="#191970" stroke="#191970" points="1628.687,-276.4217 1619.7062,-282.0426 1630.2321,-283.2491 1628.687,-276.4217"/>
</g>
<!-- Node49 -->
<g id="node33" class="node">
<title>Node49</title>
<g id="a_node33"><a xlink:href="cpu_8h.html" target="_top" xlink:title="ODP CPU. ">
<polygon fill="#ffffff" stroke="#ff0000" points="1891,-224.5 1891,-243.5 1934,-243.5 1934,-224.5 1891,-224.5"/>
<text text-anchor="middle" x="1912.5" y="-231.5" font-family="Helvetica,sans-Serif" font-size="10.00" fill="#000000">cpu.h</text>
</a>
</g>
</g>
<!-- Node48&#45;&gt;Node49 -->
<g id="edge37" class="edge">
<title>Node48&#45;&gt;Node49</title>
<path fill="none" stroke="#191970" d="M1691.0469,-281.0829C1692.5497,-280.7066 1694.0398,-280.3435 1695.5,-280 1777.463,-260.7168 1799.9505,-264.9632 1881.5,-244 1884.5671,-243.2116 1887.7757,-242.2896 1890.9172,-241.3301"/>
<polygon fill="#191970" stroke="#191970" points="1689.9111,-277.7625 1681.1299,-283.6905 1691.6912,-284.5324 1689.9111,-277.7625"/>
</g>
<!-- Node52 -->
<g id="node35" class="node">
<title>Node52</title>
<g id="a_node35"><a xlink:href="feature_8h.html" target="_top" xlink:title="ODP features. ">
<polygon fill="#ffffff" stroke="#000000" points="1991,-224.5 1991,-243.5 2052,-243.5 2052,-224.5 1991,-224.5"/>
<text text-anchor="middle" x="2021.5" y="-231.5" font-family="Helvetica,sans-Serif" font-size="10.00" fill="#000000">feature.h</text>
</a>
</g>
</g>
<!-- Node51&#45;&gt;Node52 -->
<g id="edge39" class="edge">
<title>Node51&#45;&gt;Node52</title>
<path fill="none" stroke="#191970" d="M1809.043,-279.6989C1883.9347,-262.2606 1904.5377,-259.6601 1976.5,-244 1981.0356,-243.013 1985.8259,-241.9599 1990.5227,-240.9213"/>
<polygon fill="#191970" stroke="#191970" points="1808.0665,-276.3328 1799.1275,-282.02 1809.6621,-283.1486 1808.0665,-276.3328"/>
</g>
<!-- Node52&#45;&gt;Node53 -->
<g id="edge40" class="edge">
<title>Node52&#45;&gt;Node53</title>
<path fill="none" stroke="#191970" d="M2011.502,-215.3372C2006.5324,-206.0605 2000.7356,-195.2398 1996.6657,-187.6427"/>
<polygon fill="#191970" stroke="#191970" points="2008.4669,-217.0835 2016.2744,-224.2455 2014.6373,-213.7779 2008.4669,-217.0835"/>
</g>
<!-- Node54 -->
<g id="node37" class="node">
<title>Node54</title>
<g id="a_node37"><a xlink:href="init_8h.html" target="_top" xlink:title="ODP initialization. ">
<polygon fill="#ffffff" stroke="#ff0000" points="1971,-112.5 1971,-131.5 2012,-131.5 2012,-112.5 1971,-112.5"/>
<text text-anchor="middle" x="1991.5" y="-119.5" font-family="Helvetica,sans-Serif" font-size="10.00" fill="#000000">init.h</text>
</a>
</g>
</g>
<!-- Node53&#45;&gt;Node54 -->
<g id="edge41" class="edge">
<title>Node53&#45;&gt;Node54</title>
<path fill="none" stroke="#191970" d="M1991.5,-158.1575C1991.5,-149.155 1991.5,-138.9199 1991.5,-131.6427"/>
<polygon fill="#191970" stroke="#191970" points="1988.0001,-158.2455 1991.5,-168.2455 1995.0001,-158.2456 1988.0001,-158.2455"/>
</g>
<!-- Node59 -->
<g id="node39" class="node">
<title>Node59</title>
<g id="a_node39"><a xlink:href="hash_8h.html" target="_top" xlink:title="ODP Hash function. ">
<polygon fill="#ffffff" stroke="#000000" points="2070,-224.5 2070,-243.5 2119,-243.5 2119,-224.5 2070,-224.5"/>
<text text-anchor="middle" x="2094.5" y="-231.5" font-family="Helvetica,sans-Serif" font-size="10.00" fill="#000000">hash.h</text>
</a>
</g>
</g>
<!-- Node58&#45;&gt;Node59 -->
<g id="edge43" class="edge">
<title>Node58&#45;&gt;Node59</title>
<path fill="none" stroke="#191970" d="M1876.0848,-281.0264C1877.575,-280.6731 1879.0517,-280.3295 1880.5,-280 1960.4771,-261.8073 1981.9348,-263.9171 2061.5,-244 2064.1713,-243.3313 2066.9482,-242.58 2069.7063,-241.7975"/>
<polygon fill="#191970" stroke="#191970" points="1875.0872,-277.6672 1866.2081,-283.4476 1876.7539,-284.4659 1875.0872,-277.6672"/>
</g>
<!-- Node63&#45;&gt;Node60 -->
<g id="edge48" class="edge">
<title>Node63&#45;&gt;Node60</title>
<path fill="none" stroke="#191970" d="M2008.1467,-277.7805C2041.5573,-268.7321 2087.9457,-255.9521 2128.5,-244 2131.1799,-243.2102 2133.9798,-242.365 2136.7605,-241.513"/>
<polygon fill="#191970" stroke="#191970" points="2006.9562,-274.4765 1998.2153,-280.4637 2008.7821,-281.2342 2006.9562,-274.4765"/>
</g>
<!-- Node73&#45;&gt;Node37 -->
<g id="edge57" class="edge">
<title>Node73&#45;&gt;Node37</title>
<path fill="none" stroke="#191970" d="M1242.9625,-270.4538C1240.8561,-261.3803 1238.4464,-250.9998 1236.7385,-243.6427"/>
<polygon fill="#191970" stroke="#191970" points="1239.5649,-271.2961 1245.2356,-280.2455 1246.3835,-269.7131 1239.5649,-271.2961"/>
</g>
</g>
</svg>
