<?xml version="1.0" encoding="UTF-8" standalone="no"?>
<!DOCTYPE svg PUBLIC "-//W3C//DTD SVG 1.1//EN"
 "http://www.w3.org/Graphics/SVG/1.1/DTD/svg11.dtd">
<!-- Generated by graphviz version 2.43.0 (0)
 -->
<!-- Title: std_types.h Pages: 1 -->
<svg width="4316pt" height="252pt"
 viewBox="0.00 0.00 4316.00 252.00" xmlns="http://www.w3.org/2000/svg" xmlns:xlink="http://www.w3.org/1999/xlink">
<g id="graph0" class="graph" transform="scale(1 1) rotate(0) translate(4 248)">
<title>std_types.h</title>
<polygon fill="white" stroke="transparent" points="-4,4 -4,-248 4312,-248 4312,4 -4,4"/>
<!-- Node1 -->
<g id="node1" class="node">
<title>Node1</title>
<g id="a_node1"><a xlink:title="Standard C language types and definitions for ODP.">
<polygon fill="#bfbfbf" stroke="black" points="2006,-224.5 2006,-243.5 2079,-243.5 2079,-224.5 2006,-224.5"/>
<text text-anchor="middle" x="2042.5" y="-231.5" font-family="Helvetica,sans-Serif" font-size="10.00">std_types.h</text>
</a>
</g>
</g>
<!-- Node2 -->
<g id="node2" class="node">
<title>Node2</title>
<g id="a_node2"><a xlink:href="abi-default_2atomic_8h.html" target="_top" xlink:title="ODP atomic operations.">
<polygon fill="white" stroke="black" points="0,-168.5 0,-187.5 59,-187.5 59,-168.5 0,-168.5"/>
<text text-anchor="middle" x="29.5" y="-175.5" font-family="Helvetica,sans-Serif" font-size="10.00">atomic.h</text>
</a>
</g>
</g>
<!-- Node1&#45;&gt;Node2 -->
<g id="edge1" class="edge">
<title>Node1&#45;&gt;Node2</title>
<path fill="none" stroke="midnightblue" d="M1995.33,-233.27C1733.6,-234.55 457.55,-238.07 67.5,-188 64.81,-187.65 62.03,-187.2 59.26,-186.67"/>
<polygon fill="midnightblue" stroke="midnightblue" points="1995.64,-236.77 2005.62,-233.22 1995.61,-229.77 1995.64,-236.77"/>
</g>
<!-- Node3 -->
<g id="node3" class="node">
<title>Node3</title>
<g id="a_node3"><a xlink:href="abi-default_2barrier_8h.html" target="_top" xlink:title="ODP barrier.">
<polygon fill="white" stroke="black" points="77,-168.5 77,-187.5 134,-187.5 134,-168.5 77,-168.5"/>
<text text-anchor="middle" x="105.5" y="-175.5" font-family="Helvetica,sans-Serif" font-size="10.00">barrier.h</text>
</a>
</g>
</g>
<!-- Node1&#45;&gt;Node3 -->
<g id="edge2" class="edge">
<title>Node1&#45;&gt;Node3</title>
<path fill="none" stroke="midnightblue" d="M1995.92,-233.21C1741.53,-234.19 517.92,-236.24 143.5,-188 140.41,-187.6 137.2,-187.06 134.02,-186.43"/>
<polygon fill="midnightblue" stroke="midnightblue" points="1995.95,-236.71 2005.94,-233.17 1995.92,-229.71 1995.95,-236.71"/>
</g>
<!-- Node4 -->
<g id="node4" class="node">
<title>Node4</title>
<g id="a_node4"><a xlink:href="abi-default_2byteorder_8h.html" target="_top" xlink:title="ODP byteorder.">
<polygon fill="white" stroke="black" points="152.5,-168.5 152.5,-187.5 224.5,-187.5 224.5,-168.5 152.5,-168.5"/>
<text text-anchor="middle" x="188.5" y="-175.5" font-family="Helvetica,sans-Serif" font-size="10.00">byteorder.h</text>
</a>
</g>
</g>
<!-- Node1&#45;&gt;Node4 -->
<g id="edge3" class="edge">
<title>Node1&#45;&gt;Node4</title>
<path fill="none" stroke="midnightblue" d="M1995.81,-232.93C1748.54,-232.39 589.78,-227.76 233.5,-188 230.65,-187.68 227.71,-187.28 224.77,-186.81"/>
<polygon fill="midnightblue" stroke="midnightblue" points="1995.89,-236.43 2005.9,-232.95 1995.9,-229.43 1995.89,-236.43"/>
</g>
<!-- Node5 -->
<g id="node5" class="node">
<title>Node5</title>
<g id="a_node5"><a xlink:href="abi-default_2cpumask_8h.html" target="_top" xlink:title="ODP CPU masks and enumeration.">
<polygon fill="white" stroke="black" points="242.5,-168.5 242.5,-187.5 312.5,-187.5 312.5,-168.5 242.5,-168.5"/>
<text text-anchor="middle" x="277.5" y="-175.5" font-family="Helvetica,sans-Serif" font-size="10.00">cpumask.h</text>
</a>
</g>
</g>
<!-- Node1&#45;&gt;Node5 -->
<g id="edge4" class="edge">
<title>Node1&#45;&gt;Node5</title>
<path fill="none" stroke="midnightblue" d="M1995.8,-232.89C1755.78,-232.15 659.27,-226.66 321.5,-188 318.71,-187.68 315.84,-187.27 312.96,-186.81"/>
<polygon fill="midnightblue" stroke="midnightblue" points="1995.92,-236.39 2005.93,-232.92 1995.94,-229.39 1995.92,-236.39"/>
</g>
<!-- Node6 -->
<g id="node6" class="node">
<title>Node6</title>
<g id="a_node6"><a xlink:href="abi-default_2init_8h.html" target="_top" xlink:title="ODP initialization.">
<polygon fill="white" stroke="black" points="331,-168.5 331,-187.5 372,-187.5 372,-168.5 331,-168.5"/>
<text text-anchor="middle" x="351.5" y="-175.5" font-family="Helvetica,sans-Serif" font-size="10.00">init.h</text>
</a>
</g>
</g>
<!-- Node1&#45;&gt;Node6 -->
<g id="edge5" class="edge">
<title>Node1&#45;&gt;Node6</title>
<path fill="none" stroke="midnightblue" d="M1995.43,-232.49C1741.81,-229.66 543.33,-214.95 380.5,-188 377.8,-187.55 374.99,-186.92 372.24,-186.18"/>
<polygon fill="midnightblue" stroke="midnightblue" points="1995.73,-236 2005.77,-232.61 1995.81,-229 1995.73,-236"/>
</g>
<!-- Node7 -->
<g id="node7" class="node">
<title>Node7</title>
<g id="a_node7"><a xlink:href="abi-default_2ipsec__types_8h_source.html" target="_top" xlink:title=" ">
<polygon fill="white" stroke="black" points="390,-168.5 390,-187.5 473,-187.5 473,-168.5 390,-168.5"/>
<text text-anchor="middle" x="431.5" y="-175.5" font-family="Helvetica,sans-Serif" font-size="10.00">ipsec_types.h</text>
</a>
</g>
</g>
<!-- Node1&#45;&gt;Node7 -->
<g id="edge6" class="edge">
<title>Node1&#45;&gt;Node7</title>
<path fill="none" stroke="midnightblue" d="M1995.54,-232.57C1768.94,-230.35 786.97,-219.09 482.5,-188 479.46,-187.69 476.33,-187.3 473.18,-186.87"/>
<polygon fill="midnightblue" stroke="midnightblue" points="1995.72,-236.07 2005.76,-232.67 1995.79,-229.07 1995.72,-236.07"/>
</g>
<!-- Node8 -->
<g id="node8" class="node">
<title>Node8</title>
<g id="a_node8"><a xlink:href="abi-default_2packet__io__types_8h.html" target="_top" xlink:title="ODP Packet IO.">
<polygon fill="white" stroke="black" points="491.5,-168.5 491.5,-187.5 595.5,-187.5 595.5,-168.5 491.5,-168.5"/>
<text text-anchor="middle" x="543.5" y="-175.5" font-family="Helvetica,sans-Serif" font-size="10.00">packet_io_types.h</text>
</a>
</g>
</g>
<!-- Node1&#45;&gt;Node8 -->
<g id="edge7" class="edge">
<title>Node1&#45;&gt;Node8</title>
<path fill="none" stroke="midnightblue" d="M1995.79,-232.26C1780.67,-228.76 884.01,-212.91 604.5,-188 601.62,-187.74 598.67,-187.44 595.7,-187.1"/>
<polygon fill="midnightblue" stroke="midnightblue" points="1995.75,-235.76 2005.8,-232.43 1995.86,-228.76 1995.75,-235.76"/>
</g>
<!-- Node9 -->
<g id="node9" class="node">
<title>Node9</title>
<g id="a_node9"><a xlink:href="abi-default_2rwlock__recursive_8h.html" target="_top" xlink:title="ODP recursive read/write lock.">
<polygon fill="white" stroke="black" points="613.5,-168.5 613.5,-187.5 721.5,-187.5 721.5,-168.5 613.5,-168.5"/>
<text text-anchor="middle" x="667.5" y="-175.5" font-family="Helvetica,sans-Serif" font-size="10.00">rwlock_recursive.h</text>
</a>
</g>
</g>
<!-- Node1&#45;&gt;Node9 -->
<g id="edge8" class="edge">
<title>Node1&#45;&gt;Node9</title>
<path fill="none" stroke="midnightblue" d="M1995.78,-233.21C1825.78,-233.6 1224.17,-231.6 730.5,-188 727.64,-187.75 724.71,-187.45 721.75,-187.13"/>
<polygon fill="midnightblue" stroke="midnightblue" points="1995.9,-236.71 2005.89,-233.19 1995.88,-229.71 1995.9,-236.71"/>
</g>
<!-- Node10 -->
<g id="node10" class="node">
<title>Node10</title>
<g id="a_node10"><a xlink:href="abi-default_2schedule__types_8h.html" target="_top" xlink:title="ODP schedule.">
<polygon fill="white" stroke="black" points="740,-168.5 740,-187.5 841,-187.5 841,-168.5 740,-168.5"/>
<text text-anchor="middle" x="790.5" y="-175.5" font-family="Helvetica,sans-Serif" font-size="10.00">schedule_types.h</text>
</a>
</g>
</g>
<!-- Node1&#45;&gt;Node10 -->
<g id="edge9" class="edge">
<title>Node1&#45;&gt;Node10</title>
<path fill="none" stroke="midnightblue" d="M1995.36,-233.1C1834.78,-233.04 1294.44,-229.55 850.5,-188 847.46,-187.72 844.34,-187.38 841.19,-187.01"/>
<polygon fill="midnightblue" stroke="midnightblue" points="1995.82,-236.6 2005.82,-233.1 1995.82,-229.6 1995.82,-236.6"/>
</g>
<!-- Node11 -->
<g id="node11" class="node">
<title>Node11</title>
<g id="a_node11"><a xlink:href="abi-default_2spinlock__recursive_8h.html" target="_top" xlink:title="ODP recursive spinlock.">
<polygon fill="white" stroke="black" points="859.5,-168.5 859.5,-187.5 975.5,-187.5 975.5,-168.5 859.5,-168.5"/>
<text text-anchor="middle" x="917.5" y="-175.5" font-family="Helvetica,sans-Serif" font-size="10.00">spinlock_recursive.h</text>
</a>
</g>
</g>
<!-- Node1&#45;&gt;Node11 -->
<g id="edge10" class="edge">
<title>Node1&#45;&gt;Node11</title>
<path fill="none" stroke="midnightblue" d="M1995.77,-232.53C1847.48,-230.71 1374.38,-222.41 984.5,-188 981.58,-187.74 978.59,-187.45 975.57,-187.13"/>
<polygon fill="midnightblue" stroke="midnightblue" points="1995.83,-236.03 2005.88,-232.65 1995.92,-229.03 1995.83,-236.03"/>
</g>
<!-- Node12 -->
<g id="node12" class="node">
<title>Node12</title>
<g id="a_node12"><a xlink:href="abi-default_2traffic__mngr_8h.html" target="_top" xlink:title="ODP traffic mngr.">
<polygon fill="white" stroke="black" points="993.5,-168.5 993.5,-187.5 1077.5,-187.5 1077.5,-168.5 993.5,-168.5"/>
<text text-anchor="middle" x="1035.5" y="-175.5" font-family="Helvetica,sans-Serif" font-size="10.00">traffic_mngr.h</text>
</a>
</g>
</g>
<!-- Node1&#45;&gt;Node12 -->
<g id="edge11" class="edge">
<title>Node1&#45;&gt;Node12</title>
<path fill="none" stroke="midnightblue" d="M1995.61,-232.91C1856.5,-232.18 1434.14,-226.7 1086.5,-188 1083.64,-187.68 1080.7,-187.3 1077.74,-186.88"/>
<polygon fill="midnightblue" stroke="midnightblue" points="1995.88,-236.41 2005.9,-232.96 1995.92,-229.41 1995.88,-236.41"/>
</g>
<!-- Node13 -->
<g id="node13" class="node">
<title>Node13</title>
<g id="a_node13"><a xlink:href="barrier_8h.html" target="_top" xlink:title="ODP execution barriers.">
<polygon fill="white" stroke="black" points="1096,-168.5 1096,-187.5 1153,-187.5 1153,-168.5 1096,-168.5"/>
<text text-anchor="middle" x="1124.5" y="-175.5" font-family="Helvetica,sans-Serif" font-size="10.00">barrier.h</text>
</a>
</g>
</g>
<!-- Node1&#45;&gt;Node13 -->
<g id="edge12" class="edge">
<title>Node1&#45;&gt;Node13</title>
<path fill="none" stroke="midnightblue" d="M1995.59,-233.68C1863.53,-234.95 1477.63,-234.11 1161.5,-188 1158.75,-187.6 1155.91,-187.09 1153.08,-186.51"/>
<polygon fill="midnightblue" stroke="midnightblue" points="1995.79,-237.18 2005.75,-233.58 1995.72,-230.18 1995.79,-237.18"/>
</g>
<!-- Node14 -->
<g id="node14" class="node">
<title>Node14</title>
<g id="a_node14"><a xlink:href="classification_8h.html" target="_top" xlink:title="ODP classification descriptor.">
<polygon fill="white" stroke="black" points="1203,-112.5 1203,-131.5 1292,-131.5 1292,-112.5 1203,-112.5"/>
<text text-anchor="middle" x="1247.5" y="-119.5" font-family="Helvetica,sans-Serif" font-size="10.00">classification.h</text>
</a>
</g>
</g>
<!-- Node1&#45;&gt;Node14 -->
<g id="edge13" class="edge">
<title>Node1&#45;&gt;Node14</title>
<path fill="none" stroke="midnightblue" d="M1995.24,-232.02C1843.43,-228.62 1374.46,-215.93 1312.5,-188 1285.15,-175.67 1262.91,-146.4 1253.03,-131.71"/>
<polygon fill="midnightblue" stroke="midnightblue" points="1995.54,-235.53 2005.61,-232.25 1995.69,-228.53 1995.54,-235.53"/>
</g>
<!-- Node15 -->
<g id="node15" class="node">
<title>Node15</title>
<g id="a_node15"><a xlink:href="spec_2ipsec__types_8h.html" target="_top" xlink:title="ODP IPsec API type definitions.">
<polygon fill="white" stroke="red" points="1291,-56.5 1291,-75.5 1374,-75.5 1374,-56.5 1291,-56.5"/>
<text text-anchor="middle" x="1332.5" y="-63.5" font-family="Helvetica,sans-Serif" font-size="10.00">ipsec_types.h</text>
</a>
</g>
</g>
<!-- Node1&#45;&gt;Node15 -->
<g id="edge41" class="edge">
<title>Node1&#45;&gt;Node15</title>
<path fill="none" stroke="midnightblue" d="M1995.37,-233.39C1846.32,-234.17 1392.26,-232.81 1345.5,-188 1314.08,-157.89 1324.81,-97.89 1330.2,-75.6"/>
<polygon fill="midnightblue" stroke="midnightblue" points="1995.58,-236.89 2005.56,-233.33 1995.54,-229.89 1995.58,-236.89"/>
</g>
<!-- Node22 -->
<g id="node17" class="node">
<title>Node22</title>
<g id="a_node17"><a xlink:href="proto__stats_8h.html" target="_top" xlink:title="ODP proto stats.">
<polygon fill="white" stroke="black" points="1538.5,-168.5 1538.5,-187.5 1618.5,-187.5 1618.5,-168.5 1538.5,-168.5"/>
<text text-anchor="middle" x="1578.5" y="-175.5" font-family="Helvetica,sans-Serif" font-size="10.00">proto_stats.h</text>
</a>
</g>
</g>
<!-- Node1&#45;&gt;Node22 -->
<g id="edge16" class="edge">
<title>Node1&#45;&gt;Node22</title>
<path fill="none" stroke="midnightblue" d="M1995.41,-229.03C1918.3,-222.28 1760.37,-207.38 1627.5,-188 1624.59,-187.58 1621.59,-187.11 1618.57,-186.61"/>
<polygon fill="midnightblue" stroke="midnightblue" points="1995.48,-232.55 2005.75,-229.93 1996.09,-225.58 1995.48,-232.55"/>
</g>
<!-- Node23 -->
<g id="node18" class="node">
<title>Node23</title>
<g id="a_node18"><a xlink:href="spec_2buffer_8h.html" target="_top" xlink:title="ODP buffer.">
<polygon fill="white" stroke="black" points="1637,-168.5 1637,-187.5 1690,-187.5 1690,-168.5 1637,-168.5"/>
<text text-anchor="middle" x="1663.5" y="-175.5" font-family="Helvetica,sans-Serif" font-size="10.00">buffer.h</text>
</a>
</g>
</g>
<!-- Node1&#45;&gt;Node23 -->
<g id="edge17" class="edge">
<title>Node1&#45;&gt;Node23</title>
<path fill="none" stroke="midnightblue" d="M1995.87,-228.59C1929.63,-221.95 1804.65,-207.97 1699.5,-188 1696.46,-187.42 1693.3,-186.75 1690.16,-186.03"/>
<polygon fill="midnightblue" stroke="midnightblue" points="1995.69,-232.09 2005.98,-229.6 1996.38,-225.13 1995.69,-232.09"/>
</g>
<!-- Node26 -->
<g id="node20" class="node">
<title>Node26</title>
<g id="a_node20"><a xlink:href="spec_2chksum_8h.html" target="_top" xlink:title="ODP checksum functions.">
<polygon fill="white" stroke="black" points="1708.5,-168.5 1708.5,-187.5 1772.5,-187.5 1772.5,-168.5 1708.5,-168.5"/>
<text text-anchor="middle" x="1740.5" y="-175.5" font-family="Helvetica,sans-Serif" font-size="10.00">chksum.h</text>
</a>
</g>
</g>
<!-- Node1&#45;&gt;Node26 -->
<g id="edge19" class="edge">
<title>Node1&#45;&gt;Node26</title>
<path fill="none" stroke="midnightblue" d="M1995.68,-225.58C1943.35,-217.14 1856.17,-202.62 1781.5,-188 1778.64,-187.44 1775.67,-186.83 1772.7,-186.21"/>
<polygon fill="midnightblue" stroke="midnightblue" points="1995.23,-229.06 2005.66,-227.19 1996.35,-222.15 1995.23,-229.06"/>
</g>
<!-- Node28 -->
<g id="node22" class="node">
<title>Node28</title>
<g id="a_node22"><a xlink:href="spec_2classification_8h.html" target="_top" xlink:title="ODP classification descriptor.">
<polygon fill="white" stroke="black" points="1171,-168.5 1171,-187.5 1260,-187.5 1260,-168.5 1171,-168.5"/>
<text text-anchor="middle" x="1215.5" y="-175.5" font-family="Helvetica,sans-Serif" font-size="10.00">classification.h</text>
</a>
</g>
</g>
<!-- Node1&#45;&gt;Node28 -->
<g id="edge21" class="edge">
<title>Node1&#45;&gt;Node28</title>
<path fill="none" stroke="midnightblue" d="M1995.3,-231.76C1874.89,-228.26 1546.55,-216.66 1274.5,-188 1269.86,-187.51 1265.03,-186.92 1260.22,-186.27"/>
<polygon fill="midnightblue" stroke="midnightblue" points="1995.54,-235.27 2005.63,-232.05 1995.74,-228.27 1995.54,-235.27"/>
</g>
<!-- Node29 -->
<g id="node23" class="node">
<title>Node29</title>
<g id="a_node23"><a xlink:href="spec_2comp_8h.html" target="_top" xlink:title="ODP Compression.">
<polygon fill="white" stroke="black" points="1791,-168.5 1791,-187.5 1844,-187.5 1844,-168.5 1791,-168.5"/>
<text text-anchor="middle" x="1817.5" y="-175.5" font-family="Helvetica,sans-Serif" font-size="10.00">comp.h</text>
</a>
</g>
</g>
<!-- Node1&#45;&gt;Node29 -->
<g id="edge23" class="edge">
<title>Node1&#45;&gt;Node29</title>
<path fill="none" stroke="midnightblue" d="M1995.79,-222.2C1957.29,-213.23 1901.29,-200.05 1852.5,-188 1849.82,-187.34 1847.03,-186.64 1844.24,-185.93"/>
<polygon fill="midnightblue" stroke="midnightblue" points="1995.14,-225.64 2005.67,-224.5 1996.72,-218.82 1995.14,-225.64"/>
</g>
<!-- Node31 -->
<g id="node25" class="node">
<title>Node31</title>
<g id="a_node25"><a xlink:href="spec_2cpu_8h.html" target="_top" xlink:title="ODP CPU API.">
<polygon fill="white" stroke="black" points="1862,-168.5 1862,-187.5 1905,-187.5 1905,-168.5 1862,-168.5"/>
<text text-anchor="middle" x="1883.5" y="-175.5" font-family="Helvetica,sans-Serif" font-size="10.00">cpu.h</text>
</a>
</g>
</g>
<!-- Node1&#45;&gt;Node31 -->
<g id="edge25" class="edge">
<title>Node1&#45;&gt;Node31</title>
<path fill="none" stroke="midnightblue" d="M2007.66,-221.17C1976.35,-210.53 1931.36,-195.25 1905.01,-186.3"/>
<polygon fill="midnightblue" stroke="midnightblue" points="2006.71,-224.54 2017.31,-224.44 2008.96,-217.91 2006.71,-224.54"/>
</g>
<!-- Node36 -->
<g id="node27" class="node">
<title>Node36</title>
<g id="a_node27"><a xlink:href="spec_2crypto_8h.html" target="_top" xlink:title="ODP crypto.">
<polygon fill="white" stroke="black" points="1401.5,-56.5 1401.5,-75.5 1457.5,-75.5 1457.5,-56.5 1401.5,-56.5"/>
<text text-anchor="middle" x="1429.5" y="-63.5" font-family="Helvetica,sans-Serif" font-size="10.00">crypto.h</text>
</a>
</g>
</g>
<!-- Node1&#45;&gt;Node36 -->
<g id="edge27" class="edge">
<title>Node1&#45;&gt;Node36</title>
<path fill="none" stroke="midnightblue" d="M1995.64,-231.33C1873.64,-226.65 1552.76,-212.17 1511.5,-188 1488.4,-174.47 1447.67,-101.04 1434.07,-75.65"/>
<polygon fill="midnightblue" stroke="midnightblue" points="1995.66,-234.83 2005.79,-231.71 1995.93,-227.83 1995.66,-234.83"/>
</g>
<!-- Node38 -->
<g id="node29" class="node">
<title>Node38</title>
<g id="a_node29"><a xlink:href="spec_2crypto__types_8h.html" target="_top" xlink:title="ODP crypto types.">
<polygon fill="white" stroke="black" points="1355,-168.5 1355,-187.5 1444,-187.5 1444,-168.5 1355,-168.5"/>
<text text-anchor="middle" x="1399.5" y="-175.5" font-family="Helvetica,sans-Serif" font-size="10.00">crypto_types.h</text>
</a>
</g>
</g>
<!-- Node1&#45;&gt;Node38 -->
<g id="edge29" class="edge">
<title>Node1&#45;&gt;Node38</title>
<path fill="none" stroke="midnightblue" d="M1995.86,-230.59C1896.72,-225.2 1657.8,-210.85 1458.5,-188 1453.87,-187.47 1449.04,-186.85 1444.23,-186.18"/>
<polygon fill="midnightblue" stroke="midnightblue" points="1995.68,-234.08 2005.85,-231.13 1996.05,-227.09 1995.68,-234.08"/>
</g>
<!-- Node17 -->
<g id="node31" class="node">
<title>Node17</title>
<g id="a_node31"><a xlink:href="spec_2ipsec_8h.html" target="_top" xlink:title="ODP IPsec API.">
<polygon fill="white" stroke="red" points="1479,-56.5 1479,-75.5 1530,-75.5 1530,-56.5 1479,-56.5"/>
<text text-anchor="middle" x="1504.5" y="-63.5" font-family="Helvetica,sans-Serif" font-size="10.00">ipsec.h</text>
</a>
</g>
</g>
<!-- Node1&#45;&gt;Node17 -->
<g id="edge40" class="edge">
<title>Node1&#45;&gt;Node17</title>
<path fill="none" stroke="midnightblue" d="M1995.43,-232.03C1875.21,-229.1 1563.9,-218.62 1529.5,-188 1496.49,-158.62 1500.42,-98.17 1503.21,-75.68"/>
<polygon fill="midnightblue" stroke="midnightblue" points="1995.7,-235.53 2005.78,-232.27 1995.86,-228.53 1995.7,-235.53"/>
</g>
<!-- Node41 -->
<g id="node32" class="node">
<title>Node41</title>
<g id="a_node32"><a xlink:href="spec_2dma__types_8h.html" target="_top" xlink:title="ODP DMA.">
<polygon fill="white" stroke="black" points="1961.5,-168.5 1961.5,-187.5 2041.5,-187.5 2041.5,-168.5 1961.5,-168.5"/>
<text text-anchor="middle" x="2001.5" y="-175.5" font-family="Helvetica,sans-Serif" font-size="10.00">dma_types.h</text>
</a>
</g>
</g>
<!-- Node1&#45;&gt;Node41 -->
<g id="edge34" class="edge">
<title>Node1&#45;&gt;Node41</title>
<path fill="none" stroke="midnightblue" d="M2029.48,-215.86C2022.38,-206.5 2013.9,-195.33 2008.14,-187.75"/>
<polygon fill="midnightblue" stroke="midnightblue" points="2026.89,-218.24 2035.73,-224.08 2032.47,-214 2026.89,-218.24"/>
</g>
<!-- Node45 -->
<g id="node34" class="node">
<title>Node45</title>
<g id="a_node34"><a xlink:href="spec_2pool__types_8h.html" target="_top" xlink:title="Type definitions for pools.">
<polygon fill="white" stroke="red" points="1928,-56.5 1928,-75.5 2007,-75.5 2007,-56.5 1928,-56.5"/>
<text text-anchor="middle" x="1967.5" y="-63.5" font-family="Helvetica,sans-Serif" font-size="10.00">pool_types.h</text>
</a>
</g>
</g>
<!-- Node1&#45;&gt;Node45 -->
<g id="edge49" class="edge">
<title>Node1&#45;&gt;Node45</title>
<path fill="none" stroke="midnightblue" d="M1996.12,-221.01C1979.39,-214.21 1962.25,-203.78 1952.5,-188 1929.91,-151.45 1952.58,-96.78 1962.93,-75.71"/>
<polygon fill="midnightblue" stroke="midnightblue" points="1995.26,-224.43 2005.86,-224.61 1997.69,-217.86 1995.26,-224.43"/>
</g>
<!-- Node67 -->
<g id="node35" class="node">
<title>Node67</title>
<g id="a_node35"><a xlink:href="spec_2hash_8h.html" target="_top" xlink:title="ODP Hash functions.">
<polygon fill="white" stroke="black" points="2060,-168.5 2060,-187.5 2109,-187.5 2109,-168.5 2060,-168.5"/>
<text text-anchor="middle" x="2084.5" y="-175.5" font-family="Helvetica,sans-Serif" font-size="10.00">hash.h</text>
</a>
</g>
</g>
<!-- Node1&#45;&gt;Node67 -->
<g id="edge37" class="edge">
<title>Node1&#45;&gt;Node67</title>
<path fill="none" stroke="midnightblue" d="M2055.61,-216.14C2062.93,-206.74 2071.74,-195.4 2077.69,-187.75"/>
<polygon fill="midnightblue" stroke="midnightblue" points="2052.81,-214.04 2049.44,-224.08 2058.34,-218.34 2052.81,-214.04"/>
</g>
<!-- Node69 -->
<g id="node37" class="node">
<title>Node69</title>
<g id="a_node37"><a xlink:href="spec_2init_8h.html" target="_top" xlink:title=" ">
<polygon fill="white" stroke="red" points="2127,-168.5 2127,-187.5 2168,-187.5 2168,-168.5 2127,-168.5"/>
<text text-anchor="middle" x="2147.5" y="-175.5" font-family="Helvetica,sans-Serif" font-size="10.00">init.h</text>
</a>
</g>
</g>
<!-- Node1&#45;&gt;Node69 -->
<g id="edge39" class="edge">
<title>Node1&#45;&gt;Node69</title>
<path fill="none" stroke="midnightblue" d="M2068.31,-219.73C2087.75,-209.73 2113.85,-196.31 2130.67,-187.65"/>
<polygon fill="midnightblue" stroke="midnightblue" points="2066.66,-216.64 2059.37,-224.32 2069.86,-222.86 2066.66,-216.64"/>
</g>
<!-- Node53 -->
<g id="node38" class="node">
<title>Node53</title>
<g id="a_node38"><a xlink:href="spec_2ml_8h.html" target="_top" xlink:title="ODP Machine Learning (ML) offload.">
<polygon fill="white" stroke="red" points="2186.5,-168.5 2186.5,-187.5 2224.5,-187.5 2224.5,-168.5 2186.5,-168.5"/>
<text text-anchor="middle" x="2205.5" y="-175.5" font-family="Helvetica,sans-Serif" font-size="10.00">ml.h</text>
</a>
</g>
</g>
<!-- Node1&#45;&gt;Node53 -->
<g id="edge42" class="edge">
<title>Node1&#45;&gt;Node53</title>
<path fill="none" stroke="midnightblue" d="M2078.14,-221.19C2111.44,-210.16 2159.9,-194.11 2186.41,-185.32"/>
<polygon fill="midnightblue" stroke="midnightblue" points="2076.72,-217.98 2068.33,-224.44 2078.92,-224.62 2076.72,-217.98"/>
</g>
<!-- Node79 -->
<g id="node39" class="node">
<title>Node79</title>
<g id="a_node39"><a xlink:href="spec_2ml__quantize_8h.html" target="_top" xlink:title="ODP Machine Learning (ML) quantization functions.">
<polygon fill="white" stroke="red" points="2242.5,-168.5 2242.5,-187.5 2328.5,-187.5 2328.5,-168.5 2242.5,-168.5"/>
<text text-anchor="middle" x="2285.5" y="-175.5" font-family="Helvetica,sans-Serif" font-size="10.00">ml_quantize.h</text>
</a>
</g>
</g>
<!-- Node1&#45;&gt;Node79 -->
<g id="edge43" class="edge">
<title>Node1&#45;&gt;Node79</title>
<path fill="none" stroke="midnightblue" d="M2089.12,-222.64C2134.97,-212.45 2204.12,-197.08 2246.95,-187.57"/>
<polygon fill="midnightblue" stroke="midnightblue" points="2088.15,-219.27 2079.14,-224.86 2089.66,-226.1 2088.15,-219.27"/>
</g>
<!-- Node81 -->
<g id="node40" class="node">
<title>Node81</title>
<g id="a_node40"><a xlink:href="spec_2ml__types_8h.html" target="_top" xlink:title="ODP Machine Learning (ML) types.">
<polygon fill="white" stroke="red" points="2347,-168.5 2347,-187.5 2418,-187.5 2418,-168.5 2347,-168.5"/>
<text text-anchor="middle" x="2382.5" y="-175.5" font-family="Helvetica,sans-Serif" font-size="10.00">ml_types.h</text>
</a>
</g>
</g>
<!-- Node1&#45;&gt;Node81 -->
<g id="edge44" class="edge">
<title>Node1&#45;&gt;Node81</title>
<path fill="none" stroke="midnightblue" d="M2089.39,-226.53C2147.68,-218.32 2250.14,-203.39 2337.5,-188 2340.48,-187.47 2343.57,-186.91 2346.67,-186.32"/>
<polygon fill="midnightblue" stroke="midnightblue" points="2088.8,-223.08 2079.38,-227.93 2089.77,-230.01 2088.8,-223.08"/>
</g>
<!-- Node55 -->
<g id="node41" class="node">
<title>Node55</title>
<g id="a_node41"><a xlink:href="spec_2packet_8h.html" target="_top" xlink:title="ODP packet descriptor.">
<polygon fill="white" stroke="red" points="2436.5,-168.5 2436.5,-187.5 2494.5,-187.5 2494.5,-168.5 2436.5,-168.5"/>
<text text-anchor="middle" x="2465.5" y="-175.5" font-family="Helvetica,sans-Serif" font-size="10.00">packet.h</text>
</a>
</g>
</g>
<!-- Node1&#45;&gt;Node55 -->
<g id="edge45" class="edge">
<title>Node1&#45;&gt;Node55</title>
<path fill="none" stroke="midnightblue" d="M2089.26,-229.3C2161.97,-223.15 2306.38,-209.35 2427.5,-188 2430.3,-187.51 2433.21,-186.93 2436.11,-186.32"/>
<polygon fill="midnightblue" stroke="midnightblue" points="2088.74,-225.83 2079.07,-230.15 2089.32,-232.81 2088.74,-225.83"/>
</g>
<!-- Node83 -->
<g id="node42" class="node">
<title>Node83</title>
<g id="a_node42"><a xlink:href="spec_2packet__flags_8h.html" target="_top" xlink:title="ODP packet flags.">
<polygon fill="white" stroke="red" points="2512.5,-168.5 2512.5,-187.5 2598.5,-187.5 2598.5,-168.5 2512.5,-168.5"/>
<text text-anchor="middle" x="2555.5" y="-175.5" font-family="Helvetica,sans-Serif" font-size="10.00">packet_flags.h</text>
</a>
</g>
</g>
<!-- Node1&#45;&gt;Node83 -->
<g id="edge46" class="edge">
<title>Node1&#45;&gt;Node83</title>
<path fill="none" stroke="midnightblue" d="M2089.22,-229.59C2172.63,-223.25 2352.57,-208.4 2503.5,-188 2506.41,-187.61 2509.4,-187.17 2512.41,-186.71"/>
<polygon fill="midnightblue" stroke="midnightblue" points="2088.77,-226.11 2079.06,-230.36 2089.3,-233.09 2088.77,-226.11"/>
</g>
<!-- Node57 -->
<g id="node43" class="node">
<title>Node57</title>
<g id="a_node43"><a xlink:href="spec_2packet__io__types_8h.html" target="_top" xlink:title="ODP Packet IO types.">
<polygon fill="white" stroke="red" points="2616.5,-168.5 2616.5,-187.5 2720.5,-187.5 2720.5,-168.5 2616.5,-168.5"/>
<text text-anchor="middle" x="2668.5" y="-175.5" font-family="Helvetica,sans-Serif" font-size="10.00">packet_io_types.h</text>
</a>
</g>
</g>
<!-- Node1&#45;&gt;Node57 -->
<g id="edge47" class="edge">
<title>Node1&#45;&gt;Node57</title>
<path fill="none" stroke="midnightblue" d="M2089.33,-230.34C2186.23,-224.59 2415.76,-209.76 2607.5,-188 2610.37,-187.67 2613.32,-187.32 2616.29,-186.94"/>
<polygon fill="midnightblue" stroke="midnightblue" points="2089.05,-226.85 2079.27,-230.93 2089.46,-233.83 2089.05,-226.85"/>
</g>
<!-- Node61 -->
<g id="node44" class="node">
<title>Node61</title>
<g id="a_node44"><a xlink:href="spec_2pool_8h.html" target="_top" xlink:title="ODP pool.">
<polygon fill="white" stroke="red" points="2739,-168.5 2739,-187.5 2786,-187.5 2786,-168.5 2739,-168.5"/>
<text text-anchor="middle" x="2762.5" y="-175.5" font-family="Helvetica,sans-Serif" font-size="10.00">pool.h</text>
</a>
</g>
</g>
<!-- Node1&#45;&gt;Node61 -->
<g id="edge48" class="edge">
<title>Node1&#45;&gt;Node61</title>
<path fill="none" stroke="midnightblue" d="M2089.55,-233.16C2201.34,-232.83 2491.39,-227.85 2729.5,-188 2732.55,-187.49 2735.72,-186.82 2738.83,-186.07"/>
<polygon fill="midnightblue" stroke="midnightblue" points="2089.29,-229.66 2079.29,-233.18 2089.3,-236.66 2089.29,-229.66"/>
</g>
<!-- Node85 -->
<g id="node45" class="node">
<title>Node85</title>
<g id="a_node45"><a xlink:href="spec_2proto__stats__types_8h.html" target="_top" xlink:title="ODP proto stats types.">
<polygon fill="white" stroke="red" points="2804,-168.5 2804,-187.5 2917,-187.5 2917,-168.5 2804,-168.5"/>
<text text-anchor="middle" x="2860.5" y="-175.5" font-family="Helvetica,sans-Serif" font-size="10.00">proto_stats_types.h</text>
</a>
</g>
</g>
<!-- Node1&#45;&gt;Node85 -->
<g id="edge50" class="edge">
<title>Node1&#45;&gt;Node85</title>
<path fill="none" stroke="midnightblue" d="M2089.17,-231.48C2207.52,-227.34 2528.89,-214.38 2795.5,-188 2798.22,-187.73 2801,-187.43 2803.81,-187.11"/>
<polygon fill="midnightblue" stroke="midnightblue" points="2088.89,-227.98 2079.02,-231.83 2089.13,-234.98 2088.89,-227.98"/>
</g>
<!-- Node92 -->
<g id="node46" class="node">
<title>Node92</title>
<g id="a_node46"><a xlink:href="spec_2queue_8h.html" target="_top" xlink:title="ODP queue.">
<polygon fill="white" stroke="red" points="2935.5,-168.5 2935.5,-187.5 2991.5,-187.5 2991.5,-168.5 2935.5,-168.5"/>
<text text-anchor="middle" x="2963.5" y="-175.5" font-family="Helvetica,sans-Serif" font-size="10.00">queue.h</text>
</a>
</g>
</g>
<!-- Node1&#45;&gt;Node92 -->
<g id="edge51" class="edge">
<title>Node1&#45;&gt;Node92</title>
<path fill="none" stroke="midnightblue" d="M2089.47,-231.77C2248.01,-227.45 2762.61,-211.89 2926.5,-188 2929.38,-187.58 2932.36,-187.04 2935.33,-186.43"/>
<polygon fill="midnightblue" stroke="midnightblue" points="2089.01,-228.28 2079.11,-232.05 2089.2,-235.28 2089.01,-228.28"/>
</g>
<!-- Node94 -->
<g id="node47" class="node">
<title>Node94</title>
<g id="a_node47"><a xlink:href="spec_2random_8h.html" target="_top" xlink:title="ODP random number API.">
<polygon fill="white" stroke="red" points="3010,-168.5 3010,-187.5 3073,-187.5 3073,-168.5 3010,-168.5"/>
<text text-anchor="middle" x="3041.5" y="-175.5" font-family="Helvetica,sans-Serif" font-size="10.00">random.h</text>
</a>
</g>
</g>
<!-- Node1&#45;&gt;Node94 -->
<g id="edge52" class="edge">
<title>Node1&#45;&gt;Node94</title>
<path fill="none" stroke="midnightblue" d="M2089.57,-233.6C2229.2,-234.76 2653.01,-233.96 3000.5,-188 3003.53,-187.6 3006.68,-187.09 3009.81,-186.51"/>
<polygon fill="midnightblue" stroke="midnightblue" points="2089.27,-230.09 2079.24,-233.5 2089.21,-237.09 2089.27,-230.09"/>
</g>
<!-- Node96 -->
<g id="node48" class="node">
<title>Node96</title>
<g id="a_node48"><a xlink:href="spec_2random__types_8h.html" target="_top" xlink:title="ODP random number API.">
<polygon fill="white" stroke="red" points="3091,-168.5 3091,-187.5 3186,-187.5 3186,-168.5 3091,-168.5"/>
<text text-anchor="middle" x="3138.5" y="-175.5" font-family="Helvetica,sans-Serif" font-size="10.00">random_types.h</text>
</a>
</g>
</g>
<!-- Node1&#45;&gt;Node96 -->
<g id="edge53" class="edge">
<title>Node1&#45;&gt;Node96</title>
<path fill="none" stroke="midnightblue" d="M2089.49,-232.91C2236.49,-232.2 2700.6,-226.82 3082.5,-188 3085.24,-187.72 3088.06,-187.4 3090.89,-187.04"/>
<polygon fill="midnightblue" stroke="midnightblue" points="2089.44,-229.41 2079.46,-232.95 2089.47,-236.41 2089.44,-229.41"/>
</g>
<!-- Node98 -->
<g id="node49" class="node">
<title>Node98</title>
<g id="a_node49"><a xlink:href="spec_2reassembly_8h.html" target="_top" xlink:title="ODP REASSEMBLY API.">
<polygon fill="white" stroke="red" points="3204,-168.5 3204,-187.5 3285,-187.5 3285,-168.5 3204,-168.5"/>
<text text-anchor="middle" x="3244.5" y="-175.5" font-family="Helvetica,sans-Serif" font-size="10.00">reassembly.h</text>
</a>
</g>
</g>
<!-- Node1&#45;&gt;Node98 -->
<g id="edge54" class="edge">
<title>Node1&#45;&gt;Node98</title>
<path fill="none" stroke="midnightblue" d="M2089.75,-233.56C2247.22,-234.93 2768.27,-235.33 3195.5,-188 3198.25,-187.7 3201.08,-187.33 3203.92,-186.91"/>
<polygon fill="midnightblue" stroke="midnightblue" points="2089.51,-230.06 2079.48,-233.47 2089.45,-237.06 2089.51,-230.06"/>
</g>
<!-- Node100 -->
<g id="node50" class="node">
<title>Node100</title>
<g id="a_node50"><a xlink:href="spec_2schedule_8h.html" target="_top" xlink:title="ODP schedule.">
<polygon fill="white" stroke="red" points="3303,-168.5 3303,-187.5 3372,-187.5 3372,-168.5 3303,-168.5"/>
<text text-anchor="middle" x="3337.5" y="-175.5" font-family="Helvetica,sans-Serif" font-size="10.00">schedule.h</text>
</a>
</g>
</g>
<!-- Node1&#45;&gt;Node100 -->
<g id="edge55" class="edge">
<title>Node1&#45;&gt;Node100</title>
<path fill="none" stroke="midnightblue" d="M2089.15,-232.39C2286.59,-229.63 3054.42,-217.22 3294.5,-188 3297.23,-187.67 3300.03,-187.25 3302.85,-186.78"/>
<polygon fill="midnightblue" stroke="midnightblue" points="2089.05,-228.89 2079.1,-232.53 2089.15,-235.89 2089.05,-228.89"/>
</g>
<!-- Node102 -->
<g id="node51" class="node">
<title>Node102</title>
<g id="a_node51"><a xlink:href="spec_2schedule__types_8h.html" target="_top" xlink:title="ODP schedule types.">
<polygon fill="white" stroke="red" points="3390,-168.5 3390,-187.5 3491,-187.5 3491,-168.5 3390,-168.5"/>
<text text-anchor="middle" x="3440.5" y="-175.5" font-family="Helvetica,sans-Serif" font-size="10.00">schedule_types.h</text>
</a>
</g>
</g>
<!-- Node1&#45;&gt;Node102 -->
<g id="edge56" class="edge">
<title>Node1&#45;&gt;Node102</title>
<path fill="none" stroke="midnightblue" d="M2089.32,-233.42C2261.67,-234.53 2877.04,-234.79 3381.5,-188 3384.18,-187.75 3386.93,-187.46 3389.7,-187.14"/>
<polygon fill="midnightblue" stroke="midnightblue" points="2089.1,-229.92 2079.08,-233.35 2089.05,-236.92 2089.1,-229.92"/>
</g>
<!-- Node110 -->
<g id="node52" class="node">
<title>Node110</title>
<g id="a_node52"><a xlink:href="spec_2stash__types_8h.html" target="_top" xlink:title="ODP stash types.">
<polygon fill="white" stroke="red" points="3509.5,-168.5 3509.5,-187.5 3593.5,-187.5 3593.5,-168.5 3509.5,-168.5"/>
<text text-anchor="middle" x="3551.5" y="-175.5" font-family="Helvetica,sans-Serif" font-size="10.00">stash_types.h</text>
</a>
</g>
</g>
<!-- Node1&#45;&gt;Node110 -->
<g id="edge57" class="edge">
<title>Node1&#45;&gt;Node110</title>
<path fill="none" stroke="midnightblue" d="M2089.16,-232.46C2306.07,-229.83 3217.18,-217.22 3500.5,-188 3503.36,-187.7 3506.31,-187.34 3509.26,-186.94"/>
<polygon fill="midnightblue" stroke="midnightblue" points="2089.03,-228.97 2079.07,-232.59 2089.11,-235.96 2089.03,-228.97"/>
</g>
<!-- Node114 -->
<g id="node53" class="node">
<title>Node114</title>
<g id="a_node53"><a xlink:href="spec_2std_8h.html" target="_top" xlink:title="ODP standard types and optimized C library functions.">
<polygon fill="white" stroke="red" points="3612,-168.5 3612,-187.5 3653,-187.5 3653,-168.5 3612,-168.5"/>
<text text-anchor="middle" x="3632.5" y="-175.5" font-family="Helvetica,sans-Serif" font-size="10.00">std.h</text>
</a>
</g>
</g>
<!-- Node1&#45;&gt;Node114 -->
<g id="edge58" class="edge">
<title>Node1&#45;&gt;Node114</title>
<path fill="none" stroke="midnightblue" d="M2089.56,-233.3C2316.61,-234.52 3300.36,-236.8 3602.5,-188 3605.51,-187.51 3608.63,-186.81 3611.68,-186.01"/>
<polygon fill="midnightblue" stroke="midnightblue" points="2089.34,-229.8 2079.32,-233.25 2089.3,-236.8 2089.34,-229.8"/>
</g>
<!-- Node116 -->
<g id="node54" class="node">
<title>Node116</title>
<g id="a_node54"><a xlink:href="spec_2threshold_8h.html" target="_top" xlink:title="ODP threshold descriptor.">
<polygon fill="white" stroke="red" points="3671,-168.5 3671,-187.5 3742,-187.5 3742,-168.5 3671,-168.5"/>
<text text-anchor="middle" x="3706.5" y="-175.5" font-family="Helvetica,sans-Serif" font-size="10.00">threshold.h</text>
</a>
</g>
</g>
<!-- Node1&#45;&gt;Node116 -->
<g id="edge59" class="edge">
<title>Node1&#45;&gt;Node116</title>
<path fill="none" stroke="midnightblue" d="M2089.41,-232.8C2321.23,-231.64 3345.93,-224.49 3662.5,-188 3665.13,-187.7 3667.84,-187.31 3670.56,-186.88"/>
<polygon fill="midnightblue" stroke="midnightblue" points="2089.27,-229.3 2079.29,-232.85 2089.31,-236.3 2089.27,-229.3"/>
</g>
<!-- Node118 -->
<g id="node55" class="node">
<title>Node118</title>
<g id="a_node55"><a xlink:href="spec_2thrmask_8h.html" target="_top" xlink:title="ODP thread masks.">
<polygon fill="white" stroke="red" points="3760.5,-168.5 3760.5,-187.5 3826.5,-187.5 3826.5,-168.5 3760.5,-168.5"/>
<text text-anchor="middle" x="3793.5" y="-175.5" font-family="Helvetica,sans-Serif" font-size="10.00">thrmask.h</text>
</a>
</g>
</g>
<!-- Node1&#45;&gt;Node118 -->
<g id="edge60" class="edge">
<title>Node1&#45;&gt;Node118</title>
<path fill="none" stroke="midnightblue" d="M2089.27,-232.94C2328.44,-232.44 3416.45,-227.96 3751.5,-188 3754.31,-187.66 3757.22,-187.23 3760.12,-186.73"/>
<polygon fill="midnightblue" stroke="midnightblue" points="2089.17,-229.44 2079.17,-232.96 2089.18,-236.44 2089.17,-229.44"/>
</g>
<!-- Node120 -->
<g id="node56" class="node">
<title>Node120</title>
<g id="a_node56"><a xlink:href="spec_2time_8h.html" target="_top" xlink:title="ODP time.">
<polygon fill="white" stroke="red" points="3844.5,-168.5 3844.5,-187.5 3892.5,-187.5 3892.5,-168.5 3844.5,-168.5"/>
<text text-anchor="middle" x="3868.5" y="-175.5" font-family="Helvetica,sans-Serif" font-size="10.00">time.h</text>
</a>
</g>
</g>
<!-- Node1&#45;&gt;Node120 -->
<g id="edge61" class="edge">
<title>Node1&#45;&gt;Node120</title>
<path fill="none" stroke="midnightblue" d="M2089.42,-232.5C2354.44,-229.58 3658.5,-213.97 3835.5,-188 3838.44,-187.57 3841.49,-186.96 3844.49,-186.27"/>
<polygon fill="midnightblue" stroke="midnightblue" points="2089.32,-229 2079.36,-232.61 2089.4,-236 2089.32,-229"/>
</g>
<!-- Node122 -->
<g id="node57" class="node">
<title>Node122</title>
<g id="a_node57"><a xlink:href="spec_2timer__types_8h.html" target="_top" xlink:title="ODP timer API type definitions.">
<polygon fill="white" stroke="red" points="3910.5,-168.5 3910.5,-187.5 3994.5,-187.5 3994.5,-168.5 3910.5,-168.5"/>
<text text-anchor="middle" x="3952.5" y="-175.5" font-family="Helvetica,sans-Serif" font-size="10.00">timer_types.h</text>
</a>
</g>
</g>
<!-- Node1&#45;&gt;Node122 -->
<g id="edge62" class="edge">
<title>Node1&#45;&gt;Node122</title>
<path fill="none" stroke="midnightblue" d="M2089.65,-232.82C2341.92,-231.72 3534.53,-224.61 3901.5,-188 3904.36,-187.71 3907.31,-187.36 3910.27,-186.96"/>
<polygon fill="midnightblue" stroke="midnightblue" points="2089.35,-229.32 2079.36,-232.86 2089.38,-236.32 2089.35,-229.32"/>
</g>
<!-- Node59 -->
<g id="node58" class="node">
<title>Node59</title>
<g id="a_node58"><a xlink:href="spec_2traffic__mngr_8h.html" target="_top" xlink:title=" ">
<polygon fill="white" stroke="red" points="4012.5,-168.5 4012.5,-187.5 4096.5,-187.5 4096.5,-168.5 4012.5,-168.5"/>
<text text-anchor="middle" x="4054.5" y="-175.5" font-family="Helvetica,sans-Serif" font-size="10.00">traffic_mngr.h</text>
</a>
</g>
</g>
<!-- Node1&#45;&gt;Node59 -->
<g id="edge63" class="edge">
<title>Node1&#45;&gt;Node59</title>
<path fill="none" stroke="midnightblue" d="M2089.29,-232.89C2348.94,-232.14 3614.94,-226.52 4003.5,-188 4006.36,-187.72 4009.31,-187.36 4012.27,-186.96"/>
<polygon fill="midnightblue" stroke="midnightblue" points="2089.07,-229.39 2079.08,-232.92 2089.09,-236.39 2089.07,-229.39"/>
</g>
<!-- Node124 -->
<g id="node59" class="node">
<title>Node124</title>
<g id="a_node59"><a xlink:href="system__info_8h.html" target="_top" xlink:title="ODP system information.">
<polygon fill="white" stroke="black" points="4114.5,-168.5 4114.5,-187.5 4200.5,-187.5 4200.5,-168.5 4114.5,-168.5"/>
<text text-anchor="middle" x="4157.5" y="-175.5" font-family="Helvetica,sans-Serif" font-size="10.00">system_info.h</text>
</a>
</g>
</g>
<!-- Node1&#45;&gt;Node124 -->
<g id="edge64" class="edge">
<title>Node1&#45;&gt;Node124</title>
<path fill="none" stroke="midnightblue" d="M2089.15,-232.93C2356.37,-232.4 3695.35,-227.74 4105.5,-188 4108.42,-187.72 4111.42,-187.36 4114.44,-186.96"/>
<polygon fill="midnightblue" stroke="midnightblue" points="2089.01,-229.43 2079.02,-232.95 2089.02,-236.43 2089.01,-229.43"/>
</g>
<!-- Node125 -->
<g id="node60" class="node">
<title>Node125</title>
<g id="a_node60"><a xlink:href="strong__types_8h.html" target="_top" xlink:title="ODP Strong Types.">
<polygon fill="white" stroke="black" points="4219,-168.5 4219,-187.5 4308,-187.5 4308,-168.5 4219,-168.5"/>
<text text-anchor="middle" x="4263.5" y="-175.5" font-family="Helvetica,sans-Serif" font-size="10.00">strong_types.h</text>
</a>
</g>
</g>
<!-- Node1&#45;&gt;Node125 -->
<g id="edge65" class="edge">
<title>Node1&#45;&gt;Node125</title>
<path fill="none" stroke="midnightblue" d="M2089.29,-232.95C2364.73,-232.51 3777.39,-228.28 4209.5,-188 4212.53,-187.72 4215.64,-187.37 4218.78,-186.96"/>
<polygon fill="midnightblue" stroke="midnightblue" points="2089.23,-229.45 2079.24,-232.96 2089.24,-236.45 2089.23,-229.45"/>
</g>
<!-- Node14&#45;&gt;Node15 -->
<g id="edge14" class="edge">
<title>Node14&#45;&gt;Node15</title>
<path fill="none" stroke="midnightblue" d="M1269.69,-106.9C1285.28,-97 1305.63,-84.07 1318.88,-75.65"/>
<polygon fill="midnightblue" stroke="midnightblue" points="1267.72,-104.01 1261.16,-112.32 1271.47,-109.92 1267.72,-104.01"/>
</g>
<!-- Node20 -->
<g id="node16" class="node">
<title>Node20</title>
<g id="a_node16"><a xlink:href="spec_2packet__io_8h.html" target="_top" xlink:title="ODP Packet IO.">
<polygon fill="white" stroke="red" points="1200.5,-56.5 1200.5,-75.5 1272.5,-75.5 1272.5,-56.5 1200.5,-56.5"/>
<text text-anchor="middle" x="1236.5" y="-63.5" font-family="Helvetica,sans-Serif" font-size="10.00">packet_io.h</text>
</a>
</g>
</g>
<!-- Node14&#45;&gt;Node20 -->
<g id="edge15" class="edge">
<title>Node14&#45;&gt;Node20</title>
<path fill="none" stroke="midnightblue" d="M1243.65,-102.1C1241.82,-93.14 1239.73,-82.86 1238.28,-75.75"/>
<polygon fill="midnightblue" stroke="midnightblue" points="1240.26,-102.98 1245.68,-112.08 1247.12,-101.59 1240.26,-102.98"/>
</g>
<!-- Node24 -->
<g id="node19" class="node">
<title>Node24</title>
<g id="a_node19"><a xlink:href="buffer_8h.html" target="_top" xlink:title="ODP buffer descriptor.">
<polygon fill="white" stroke="red" points="1637,-112.5 1637,-131.5 1690,-131.5 1690,-112.5 1637,-112.5"/>
<text text-anchor="middle" x="1663.5" y="-119.5" font-family="Helvetica,sans-Serif" font-size="10.00">buffer.h</text>
</a>
</g>
</g>
<!-- Node23&#45;&gt;Node24 -->
<g id="edge18" class="edge">
<title>Node23&#45;&gt;Node24</title>
<path fill="none" stroke="midnightblue" d="M1663.5,-157.8C1663.5,-148.91 1663.5,-138.78 1663.5,-131.75"/>
<polygon fill="midnightblue" stroke="midnightblue" points="1660,-158.08 1663.5,-168.08 1667,-158.08 1660,-158.08"/>
</g>
<!-- Node27 -->
<g id="node21" class="node">
<title>Node27</title>
<g id="a_node21"><a xlink:href="chksum_8h.html" target="_top" xlink:title="ODP checksum functions.">
<polygon fill="white" stroke="black" points="1708.5,-112.5 1708.5,-131.5 1772.5,-131.5 1772.5,-112.5 1708.5,-112.5"/>
<text text-anchor="middle" x="1740.5" y="-119.5" font-family="Helvetica,sans-Serif" font-size="10.00">chksum.h</text>
</a>
</g>
</g>
<!-- Node26&#45;&gt;Node27 -->
<g id="edge20" class="edge">
<title>Node26&#45;&gt;Node27</title>
<path fill="none" stroke="midnightblue" d="M1740.5,-157.8C1740.5,-148.91 1740.5,-138.78 1740.5,-131.75"/>
<polygon fill="midnightblue" stroke="midnightblue" points="1737,-158.08 1740.5,-168.08 1744,-158.08 1737,-158.08"/>
</g>
<!-- Node28&#45;&gt;Node14 -->
<g id="edge22" class="edge">
<title>Node28&#45;&gt;Node14</title>
<path fill="none" stroke="midnightblue" d="M1226,-159.27C1231.47,-150.05 1237.92,-139.17 1242.31,-131.75"/>
<polygon fill="midnightblue" stroke="midnightblue" points="1222.87,-157.7 1220.78,-168.08 1228.89,-161.26 1222.87,-157.7"/>
</g>
<!-- Node30 -->
<g id="node24" class="node">
<title>Node30</title>
<g id="a_node24"><a xlink:href="comp_8h.html" target="_top" xlink:title="ODP crypto.">
<polygon fill="white" stroke="black" points="1791,-112.5 1791,-131.5 1844,-131.5 1844,-112.5 1791,-112.5"/>
<text text-anchor="middle" x="1817.5" y="-119.5" font-family="Helvetica,sans-Serif" font-size="10.00">comp.h</text>
</a>
</g>
</g>
<!-- Node29&#45;&gt;Node30 -->
<g id="edge24" class="edge">
<title>Node29&#45;&gt;Node30</title>
<path fill="none" stroke="midnightblue" d="M1817.5,-157.8C1817.5,-148.91 1817.5,-138.78 1817.5,-131.75"/>
<polygon fill="midnightblue" stroke="midnightblue" points="1814,-158.08 1817.5,-168.08 1821,-158.08 1814,-158.08"/>
</g>
<!-- Node32 -->
<g id="node26" class="node">
<title>Node32</title>
<g id="a_node26"><a xlink:href="cpu_8h.html" target="_top" xlink:title="ODP CPU.">
<polygon fill="white" stroke="red" points="1862,-112.5 1862,-131.5 1905,-131.5 1905,-112.5 1862,-112.5"/>
<text text-anchor="middle" x="1883.5" y="-119.5" font-family="Helvetica,sans-Serif" font-size="10.00">cpu.h</text>
</a>
</g>
</g>
<!-- Node31&#45;&gt;Node32 -->
<g id="edge26" class="edge">
<title>Node31&#45;&gt;Node32</title>
<path fill="none" stroke="midnightblue" d="M1883.5,-157.8C1883.5,-148.91 1883.5,-138.78 1883.5,-131.75"/>
<polygon fill="midnightblue" stroke="midnightblue" points="1880,-158.08 1883.5,-168.08 1887,-158.08 1880,-158.08"/>
</g>
<!-- Node37 -->
<g id="node28" class="node">
<title>Node37</title>
<g id="a_node28"><a xlink:href="crypto_8h.html" target="_top" xlink:title="ODP crypto.">
<polygon fill="white" stroke="black" points="1401.5,-0.5 1401.5,-19.5 1457.5,-19.5 1457.5,-0.5 1401.5,-0.5"/>
<text text-anchor="middle" x="1429.5" y="-7.5" font-family="Helvetica,sans-Serif" font-size="10.00">crypto.h</text>
</a>
</g>
</g>
<!-- Node36&#45;&gt;Node37 -->
<g id="edge28" class="edge">
<title>Node36&#45;&gt;Node37</title>
<path fill="none" stroke="midnightblue" d="M1429.5,-45.8C1429.5,-36.91 1429.5,-26.78 1429.5,-19.75"/>
<polygon fill="midnightblue" stroke="midnightblue" points="1426,-46.08 1429.5,-56.08 1433,-46.08 1426,-46.08"/>
</g>
<!-- Node39 -->
<g id="node30" class="node">
<title>Node39</title>
<g id="a_node30"><a xlink:href="crypto__types_8h.html" target="_top" xlink:title="ODP crypto.">
<polygon fill="white" stroke="red" points="1355,-112.5 1355,-131.5 1444,-131.5 1444,-112.5 1355,-112.5"/>
<text text-anchor="middle" x="1399.5" y="-119.5" font-family="Helvetica,sans-Serif" font-size="10.00">crypto_types.h</text>
</a>
</g>
</g>
<!-- Node38&#45;&gt;Node39 -->
<g id="edge30" class="edge">
<title>Node38&#45;&gt;Node39</title>
<path fill="none" stroke="midnightblue" d="M1399.5,-157.8C1399.5,-148.91 1399.5,-138.78 1399.5,-131.75"/>
<polygon fill="midnightblue" stroke="midnightblue" points="1396,-158.08 1399.5,-168.08 1403,-158.08 1396,-158.08"/>
</g>
<!-- Node39&#45;&gt;Node15 -->
<g id="edge33" class="edge">
<title>Node39&#45;&gt;Node15</title>
<path fill="none" stroke="midnightblue" d="M1380.67,-105.82C1368.66,-96.15 1353.53,-83.95 1343.46,-75.83"/>
<polygon fill="midnightblue" stroke="midnightblue" points="1378.75,-108.77 1388.74,-112.32 1383.15,-103.32 1378.75,-108.77"/>
</g>
<!-- Node39&#45;&gt;Node36 -->
<g id="edge31" class="edge">
<title>Node39&#45;&gt;Node36</title>
<path fill="none" stroke="midnightblue" d="M1409.35,-103.27C1414.47,-94.05 1420.52,-83.17 1424.64,-75.75"/>
<polygon fill="midnightblue" stroke="midnightblue" points="1406.25,-101.64 1404.45,-112.08 1412.37,-105.04 1406.25,-101.64"/>
</g>
<!-- Node39&#45;&gt;Node17 -->
<g id="edge32" class="edge">
<title>Node39&#45;&gt;Node17</title>
<path fill="none" stroke="midnightblue" d="M1425.31,-107.73C1444.75,-97.73 1470.85,-84.31 1487.67,-75.65"/>
<polygon fill="midnightblue" stroke="midnightblue" points="1423.66,-104.64 1416.37,-112.32 1426.86,-110.86 1423.66,-104.64"/>
</g>
<!-- Node42 -->
<g id="node33" class="node">
<title>Node42</title>
<g id="a_node33"><a xlink:href="dma__types_8h.html" target="_top" xlink:title="ODP DMA.">
<polygon fill="white" stroke="red" points="1961.5,-112.5 1961.5,-131.5 2041.5,-131.5 2041.5,-112.5 1961.5,-112.5"/>
<text text-anchor="middle" x="2001.5" y="-119.5" font-family="Helvetica,sans-Serif" font-size="10.00">dma_types.h</text>
</a>
</g>
</g>
<!-- Node41&#45;&gt;Node42 -->
<g id="edge35" class="edge">
<title>Node41&#45;&gt;Node42</title>
<path fill="none" stroke="midnightblue" d="M2001.5,-157.8C2001.5,-148.91 2001.5,-138.78 2001.5,-131.75"/>
<polygon fill="midnightblue" stroke="midnightblue" points="1998,-158.08 2001.5,-168.08 2005,-158.08 1998,-158.08"/>
</g>
<!-- Node42&#45;&gt;Node45 -->
<g id="edge36" class="edge">
<title>Node42&#45;&gt;Node45</title>
<path fill="none" stroke="midnightblue" d="M1990.52,-103.57C1984.67,-94.27 1977.73,-83.25 1973.01,-75.75"/>
<polygon fill="midnightblue" stroke="midnightblue" points="1987.6,-105.49 1995.89,-112.08 1993.52,-101.76 1987.6,-105.49"/>
</g>
<!-- Node68 -->
<g id="node36" class="node">
<title>Node68</title>
<g id="a_node36"><a xlink:href="hash_8h.html" target="_top" xlink:title="ODP Hash function.">
<polygon fill="white" stroke="black" points="2060,-112.5 2060,-131.5 2109,-131.5 2109,-112.5 2060,-112.5"/>
<text text-anchor="middle" x="2084.5" y="-119.5" font-family="Helvetica,sans-Serif" font-size="10.00">hash.h</text>
</a>
</g>
</g>
<!-- Node67&#45;&gt;Node68 -->
<g id="edge38" class="edge">
<title>Node67&#45;&gt;Node68</title>
<path fill="none" stroke="midnightblue" d="M2084.5,-157.8C2084.5,-148.91 2084.5,-138.78 2084.5,-131.75"/>
<polygon fill="midnightblue" stroke="midnightblue" points="2081,-158.08 2084.5,-168.08 2088,-158.08 2081,-158.08"/>
</g>
</g>
</svg>
