<?xml version="1.0" encoding="UTF-8" standalone="no"?>
<!DOCTYPE svg PUBLIC "-//W3C//DTD SVG 1.1//EN"
 "http://www.w3.org/Graphics/SVG/1.1/DTD/svg11.dtd">
<!-- Generated by graphviz version 2.43.0 (0)
 -->
<!-- Title: std_types.h Pages: 1 -->
<svg width="4457pt" height="252pt"
 viewBox="0.00 0.00 4457.00 252.00" xmlns="http://www.w3.org/2000/svg" xmlns:xlink="http://www.w3.org/1999/xlink">
<g id="graph0" class="graph" transform="scale(1 1) rotate(0) translate(4 248)">
<title>std_types.h</title>
<polygon fill="white" stroke="transparent" points="-4,4 -4,-248 4453,-248 4453,4 -4,4"/>
<!-- Node1 -->
<g id="node1" class="node">
<title>Node1</title>
<g id="a_node1"><a xlink:title="Standard C language types and definitions for ODP.">
<polygon fill="#bfbfbf" stroke="black" points="2085,-224.5 2085,-243.5 2158,-243.5 2158,-224.5 2085,-224.5"/>
<text text-anchor="middle" x="2121.5" y="-231.5" font-family="Helvetica,sans-Serif" font-size="10.00">std_types.h</text>
</a>
</g>
</g>
<!-- Node2 -->
<g id="node2" class="node">
<title>Node2</title>
<g id="a_node2"><a xlink:href="abi-default_2atomic_8h.html" target="_top" xlink:title="ODP atomic operations.">
<polygon fill="white" stroke="black" points="0,-168.5 0,-187.5 59,-187.5 59,-168.5 0,-168.5"/>
<text text-anchor="middle" x="29.5" y="-175.5" font-family="Helvetica,sans-Serif" font-size="10.00">atomic.h</text>
</a>
</g>
</g>
<!-- Node1&#45;&gt;Node2 -->
<g id="edge1" class="edge">
<title>Node1&#45;&gt;Node2</title>
<path fill="none" stroke="midnightblue" d="M2074.8,-232.57C1788.16,-229.83 272.38,-214.21 67.5,-188 64.81,-187.66 62.03,-187.2 59.26,-186.67"/>
<polygon fill="midnightblue" stroke="midnightblue" points="2074.83,-236.07 2084.86,-232.66 2074.89,-229.07 2074.83,-236.07"/>
</g>
<!-- Node3 -->
<g id="node3" class="node">
<title>Node3</title>
<g id="a_node3"><a xlink:href="abi-default_2barrier_8h.html" target="_top" xlink:title="ODP barrier.">
<polygon fill="white" stroke="black" points="77,-168.5 77,-187.5 134,-187.5 134,-168.5 77,-168.5"/>
<text text-anchor="middle" x="105.5" y="-175.5" font-family="Helvetica,sans-Serif" font-size="10.00">barrier.h</text>
</a>
</g>
</g>
<!-- Node1&#45;&gt;Node3 -->
<g id="edge2" class="edge">
<title>Node1&#45;&gt;Node3</title>
<path fill="none" stroke="midnightblue" d="M2074.68,-233.27C1813.51,-234.56 534.36,-238.17 143.5,-188 140.41,-187.6 137.2,-187.06 134.02,-186.43"/>
<polygon fill="midnightblue" stroke="midnightblue" points="2074.97,-236.77 2084.95,-233.22 2074.93,-229.77 2074.97,-236.77"/>
</g>
<!-- Node4 -->
<g id="node4" class="node">
<title>Node4</title>
<g id="a_node4"><a xlink:href="abi-default_2byteorder_8h.html" target="_top" xlink:title="ODP byteorder.">
<polygon fill="white" stroke="black" points="152.5,-168.5 152.5,-187.5 224.5,-187.5 224.5,-168.5 152.5,-168.5"/>
<text text-anchor="middle" x="188.5" y="-175.5" font-family="Helvetica,sans-Serif" font-size="10.00">byteorder.h</text>
</a>
</g>
</g>
<!-- Node1&#45;&gt;Node4 -->
<g id="edge3" class="edge">
<title>Node1&#45;&gt;Node4</title>
<path fill="none" stroke="midnightblue" d="M2074.43,-232.99C1819.93,-232.74 606.15,-229.39 233.5,-188 230.65,-187.68 227.71,-187.28 224.76,-186.81"/>
<polygon fill="midnightblue" stroke="midnightblue" points="2074.79,-236.49 2084.8,-232.99 2074.8,-229.49 2074.79,-236.49"/>
</g>
<!-- Node5 -->
<g id="node5" class="node">
<title>Node5</title>
<g id="a_node5"><a xlink:href="abi-default_2cpumask_8h.html" target="_top" xlink:title="ODP CPU masks and enumeration.">
<polygon fill="white" stroke="black" points="242.5,-168.5 242.5,-187.5 312.5,-187.5 312.5,-168.5 242.5,-168.5"/>
<text text-anchor="middle" x="277.5" y="-175.5" font-family="Helvetica,sans-Serif" font-size="10.00">cpumask.h</text>
</a>
</g>
</g>
<!-- Node1&#45;&gt;Node5 -->
<g id="edge4" class="edge">
<title>Node1&#45;&gt;Node5</title>
<path fill="none" stroke="midnightblue" d="M2074.64,-232.95C1827.73,-232.52 675.73,-228.33 321.5,-188 318.71,-187.68 315.84,-187.28 312.96,-186.81"/>
<polygon fill="midnightblue" stroke="midnightblue" points="2074.71,-236.45 2084.71,-232.97 2074.72,-229.45 2074.71,-236.45"/>
</g>
<!-- Node6 -->
<g id="node6" class="node">
<title>Node6</title>
<g id="a_node6"><a xlink:href="abi-default_2init_8h.html" target="_top" xlink:title="ODP initialization.">
<polygon fill="white" stroke="black" points="331,-168.5 331,-187.5 372,-187.5 372,-168.5 331,-168.5"/>
<text text-anchor="middle" x="351.5" y="-175.5" font-family="Helvetica,sans-Serif" font-size="10.00">init.h</text>
</a>
</g>
</g>
<!-- Node1&#45;&gt;Node6 -->
<g id="edge5" class="edge">
<title>Node1&#45;&gt;Node6</title>
<path fill="none" stroke="midnightblue" d="M2074.71,-232.56C1814.54,-230 551.63,-216.21 380.5,-188 377.8,-187.55 374.99,-186.92 372.24,-186.19"/>
<polygon fill="midnightblue" stroke="midnightblue" points="2074.91,-236.06 2084.94,-232.66 2074.98,-229.06 2074.91,-236.06"/>
</g>
<!-- Node7 -->
<g id="node7" class="node">
<title>Node7</title>
<g id="a_node7"><a xlink:href="abi-default_2ipsec__types_8h_source.html" target="_top" xlink:title=" ">
<polygon fill="white" stroke="black" points="390,-168.5 390,-187.5 473,-187.5 473,-168.5 390,-168.5"/>
<text text-anchor="middle" x="431.5" y="-175.5" font-family="Helvetica,sans-Serif" font-size="10.00">ipsec_types.h</text>
</a>
</g>
</g>
<!-- Node1&#45;&gt;Node7 -->
<g id="edge6" class="edge">
<title>Node1&#45;&gt;Node7</title>
<path fill="none" stroke="midnightblue" d="M2074.82,-232.65C1841.87,-230.75 803.6,-220.56 482.5,-188 479.46,-187.69 476.33,-187.31 473.18,-186.87"/>
<polygon fill="midnightblue" stroke="midnightblue" points="2074.96,-236.15 2084.98,-232.73 2075.01,-229.15 2074.96,-236.15"/>
</g>
<!-- Node8 -->
<g id="node8" class="node">
<title>Node8</title>
<g id="a_node8"><a xlink:href="abi-default_2packet__io__types_8h.html" target="_top" xlink:title="ODP Packet IO.">
<polygon fill="white" stroke="black" points="491.5,-168.5 491.5,-187.5 595.5,-187.5 595.5,-168.5 491.5,-168.5"/>
<text text-anchor="middle" x="543.5" y="-175.5" font-family="Helvetica,sans-Serif" font-size="10.00">packet_io_types.h</text>
</a>
</g>
</g>
<!-- Node1&#45;&gt;Node8 -->
<g id="edge7" class="edge">
<title>Node1&#45;&gt;Node8</title>
<path fill="none" stroke="midnightblue" d="M2074.77,-232.35C1852.45,-229.15 900.49,-214.13 604.5,-188 601.62,-187.75 598.67,-187.45 595.7,-187.11"/>
<polygon fill="midnightblue" stroke="midnightblue" points="2074.75,-235.85 2084.8,-232.49 2074.85,-228.85 2074.75,-235.85"/>
</g>
<!-- Node9 -->
<g id="node9" class="node">
<title>Node9</title>
<g id="a_node9"><a xlink:href="abi-default_2rwlock__recursive_8h.html" target="_top" xlink:title="ODP recursive read/write lock.">
<polygon fill="white" stroke="black" points="613.5,-168.5 613.5,-187.5 721.5,-187.5 721.5,-168.5 613.5,-168.5"/>
<text text-anchor="middle" x="667.5" y="-175.5" font-family="Helvetica,sans-Serif" font-size="10.00">rwlock_recursive.h</text>
</a>
</g>
</g>
<!-- Node1&#45;&gt;Node9 -->
<g id="edge8" class="edge">
<title>Node1&#45;&gt;Node9</title>
<path fill="none" stroke="midnightblue" d="M2074.64,-233.34C1898.12,-234.24 1256.52,-233.94 730.5,-188 727.64,-187.75 724.71,-187.46 721.75,-187.14"/>
<polygon fill="midnightblue" stroke="midnightblue" points="2074.89,-236.84 2084.88,-233.29 2074.86,-229.84 2074.89,-236.84"/>
</g>
<!-- Node10 -->
<g id="node10" class="node">
<title>Node10</title>
<g id="a_node10"><a xlink:href="abi-default_2schedule__types_8h.html" target="_top" xlink:title="ODP schedule.">
<polygon fill="white" stroke="black" points="740,-168.5 740,-187.5 841,-187.5 841,-168.5 740,-168.5"/>
<text text-anchor="middle" x="790.5" y="-175.5" font-family="Helvetica,sans-Serif" font-size="10.00">schedule_types.h</text>
</a>
</g>
</g>
<!-- Node1&#45;&gt;Node10 -->
<g id="edge9" class="edge">
<title>Node1&#45;&gt;Node10</title>
<path fill="none" stroke="midnightblue" d="M2074.33,-233.26C1907.06,-233.76 1326.76,-232.01 850.5,-188 847.46,-187.72 844.34,-187.39 841.19,-187.02"/>
<polygon fill="midnightblue" stroke="midnightblue" points="2074.76,-236.76 2084.75,-233.22 2074.74,-229.76 2074.76,-236.76"/>
</g>
<!-- Node11 -->
<g id="node11" class="node">
<title>Node11</title>
<g id="a_node11"><a xlink:href="abi-default_2spinlock__recursive_8h.html" target="_top" xlink:title="ODP recursive spinlock.">
<polygon fill="white" stroke="black" points="859.5,-168.5 859.5,-187.5 975.5,-187.5 975.5,-168.5 859.5,-168.5"/>
<text text-anchor="middle" x="917.5" y="-175.5" font-family="Helvetica,sans-Serif" font-size="10.00">spinlock_recursive.h</text>
</a>
</g>
</g>
<!-- Node1&#45;&gt;Node11 -->
<g id="edge10" class="edge">
<title>Node1&#45;&gt;Node11</title>
<path fill="none" stroke="midnightblue" d="M2074.45,-232.72C1918.78,-231.46 1406.32,-224.6 984.5,-188 981.58,-187.75 978.59,-187.46 975.57,-187.14"/>
<polygon fill="midnightblue" stroke="midnightblue" points="2074.58,-236.22 2084.61,-232.8 2074.64,-229.22 2074.58,-236.22"/>
</g>
<!-- Node12 -->
<g id="node12" class="node">
<title>Node12</title>
<g id="a_node12"><a xlink:href="abi-default_2traffic__mngr_8h.html" target="_top" xlink:title="ODP traffic mngr.">
<polygon fill="white" stroke="black" points="993.5,-168.5 993.5,-187.5 1077.5,-187.5 1077.5,-168.5 993.5,-168.5"/>
<text text-anchor="middle" x="1035.5" y="-175.5" font-family="Helvetica,sans-Serif" font-size="10.00">traffic_mngr.h</text>
</a>
</g>
</g>
<!-- Node1&#45;&gt;Node12 -->
<g id="edge11" class="edge">
<title>Node1&#45;&gt;Node12</title>
<path fill="none" stroke="midnightblue" d="M2074.27,-233.15C1927.41,-233.13 1465.87,-229.54 1086.5,-188 1083.64,-187.69 1080.7,-187.31 1077.74,-186.89"/>
<polygon fill="midnightblue" stroke="midnightblue" points="2074.7,-236.65 2084.7,-233.14 2074.7,-229.65 2074.7,-236.65"/>
</g>
<!-- Node13 -->
<g id="node13" class="node">
<title>Node13</title>
<g id="a_node13"><a xlink:href="barrier_8h.html" target="_top" xlink:title="ODP execution barriers.">
<polygon fill="white" stroke="black" points="1096,-168.5 1096,-187.5 1153,-187.5 1153,-168.5 1096,-168.5"/>
<text text-anchor="middle" x="1124.5" y="-175.5" font-family="Helvetica,sans-Serif" font-size="10.00">barrier.h</text>
</a>
</g>
</g>
<!-- Node1&#45;&gt;Node13 -->
<g id="edge12" class="edge">
<title>Node1&#45;&gt;Node13</title>
<path fill="none" stroke="midnightblue" d="M2074.65,-233.42C1935.66,-234.11 1513.75,-232.12 1167.5,-188 1162.81,-187.4 1157.87,-186.57 1153.07,-185.64"/>
<polygon fill="midnightblue" stroke="midnightblue" points="2074.95,-236.92 2084.93,-233.36 2074.91,-229.92 2074.95,-236.92"/>
</g>
<!-- Node14 -->
<g id="node14" class="node">
<title>Node14</title>
<g id="a_node14"><a xlink:href="classification_8h.html" target="_top" xlink:title="ODP classification descriptor.">
<polygon fill="white" stroke="black" points="1199,-112.5 1199,-131.5 1288,-131.5 1288,-112.5 1199,-112.5"/>
<text text-anchor="middle" x="1243.5" y="-119.5" font-family="Helvetica,sans-Serif" font-size="10.00">classification.h</text>
</a>
</g>
</g>
<!-- Node1&#45;&gt;Node14 -->
<g id="edge13" class="edge">
<title>Node1&#45;&gt;Node14</title>
<path fill="none" stroke="midnightblue" d="M2074.66,-232.48C1891.3,-230.23 1230.91,-219.93 1200.5,-188 1183.52,-170.17 1212.42,-144.84 1230.54,-131.68"/>
<polygon fill="midnightblue" stroke="midnightblue" points="2074.74,-235.98 2084.79,-232.6 2074.83,-228.98 2074.74,-235.98"/>
</g>
<!-- Node15 -->
<g id="node15" class="node">
<title>Node15</title>
<g id="a_node15"><a xlink:href="spec_2ipsec__types_8h.html" target="_top" xlink:title="ODP IPsec API type definitions.">
<polygon fill="white" stroke="red" points="1292,-56.5 1292,-75.5 1375,-75.5 1375,-56.5 1292,-56.5"/>
<text text-anchor="middle" x="1333.5" y="-63.5" font-family="Helvetica,sans-Serif" font-size="10.00">ipsec_types.h</text>
</a>
</g>
</g>
<!-- Node1&#45;&gt;Node15 -->
<g id="edge41" class="edge">
<title>Node1&#45;&gt;Node15</title>
<path fill="none" stroke="midnightblue" d="M2074.63,-233.29C1918.62,-233.83 1423.56,-232.02 1368.5,-188 1333.32,-159.87 1332.09,-98.66 1332.96,-75.82"/>
<polygon fill="midnightblue" stroke="midnightblue" points="2074.86,-236.79 2084.84,-233.25 2074.83,-229.79 2074.86,-236.79"/>
</g>
<!-- Node22 -->
<g id="node17" class="node">
<title>Node22</title>
<g id="a_node17"><a xlink:href="proto__stats_8h.html" target="_top" xlink:title="ODP proto stats.">
<polygon fill="white" stroke="black" points="1539.5,-168.5 1539.5,-187.5 1619.5,-187.5 1619.5,-168.5 1539.5,-168.5"/>
<text text-anchor="middle" x="1579.5" y="-175.5" font-family="Helvetica,sans-Serif" font-size="10.00">proto_stats.h</text>
</a>
</g>
</g>
<!-- Node1&#45;&gt;Node22 -->
<g id="edge16" class="edge">
<title>Node1&#45;&gt;Node22</title>
<path fill="none" stroke="midnightblue" d="M2074.72,-230.15C1986.96,-224.48 1791.74,-210.39 1628.5,-188 1625.59,-187.6 1622.58,-187.15 1619.56,-186.66"/>
<polygon fill="midnightblue" stroke="midnightblue" points="2074.68,-233.65 2084.88,-230.8 2075.12,-226.67 2074.68,-233.65"/>
</g>
<!-- Node23 -->
<g id="node18" class="node">
<title>Node23</title>
<g id="a_node18"><a xlink:href="spec_2buffer_8h.html" target="_top" xlink:title="ODP buffer.">
<polygon fill="white" stroke="black" points="1638,-168.5 1638,-187.5 1691,-187.5 1691,-168.5 1638,-168.5"/>
<text text-anchor="middle" x="1664.5" y="-175.5" font-family="Helvetica,sans-Serif" font-size="10.00">buffer.h</text>
</a>
</g>
</g>
<!-- Node1&#45;&gt;Node23 -->
<g id="edge17" class="edge">
<title>Node1&#45;&gt;Node23</title>
<path fill="none" stroke="midnightblue" d="M2074.96,-230.14C1997.02,-224.88 1835.39,-211.95 1700.5,-188 1697.46,-187.46 1694.29,-186.81 1691.15,-186.1"/>
<polygon fill="midnightblue" stroke="midnightblue" points="2074.73,-233.63 2084.94,-230.8 2075.19,-226.65 2074.73,-233.63"/>
</g>
<!-- Node26 -->
<g id="node20" class="node">
<title>Node26</title>
<g id="a_node20"><a xlink:href="spec_2chksum_8h.html" target="_top" xlink:title="ODP checksum functions.">
<polygon fill="white" stroke="black" points="1709.5,-168.5 1709.5,-187.5 1773.5,-187.5 1773.5,-168.5 1709.5,-168.5"/>
<text text-anchor="middle" x="1741.5" y="-175.5" font-family="Helvetica,sans-Serif" font-size="10.00">chksum.h</text>
</a>
</g>
</g>
<!-- Node1&#45;&gt;Node26 -->
<g id="edge19" class="edge">
<title>Node1&#45;&gt;Node26</title>
<path fill="none" stroke="midnightblue" d="M2074.86,-227.97C2009.49,-220.65 1887.03,-205.96 1783.5,-188 1780.27,-187.44 1776.9,-186.81 1773.55,-186.14"/>
<polygon fill="midnightblue" stroke="midnightblue" points="2074.52,-231.45 2084.84,-229.08 2075.29,-224.49 2074.52,-231.45"/>
</g>
<!-- Node28 -->
<g id="node22" class="node">
<title>Node28</title>
<g id="a_node22"><a xlink:href="spec_2classification_8h.html" target="_top" xlink:title="ODP classification descriptor.">
<polygon fill="white" stroke="black" points="1210,-168.5 1210,-187.5 1299,-187.5 1299,-168.5 1210,-168.5"/>
<text text-anchor="middle" x="1254.5" y="-175.5" font-family="Helvetica,sans-Serif" font-size="10.00">classification.h</text>
</a>
</g>
</g>
<!-- Node1&#45;&gt;Node28 -->
<g id="edge21" class="edge">
<title>Node1&#45;&gt;Node28</title>
<path fill="none" stroke="midnightblue" d="M2074.45,-231.95C1949.95,-228.84 1601.71,-217.94 1313.5,-188 1308.86,-187.52 1304.03,-186.93 1299.22,-186.28"/>
<polygon fill="midnightblue" stroke="midnightblue" points="2074.68,-235.46 2084.76,-232.21 2074.85,-228.46 2074.68,-235.46"/>
</g>
<!-- Node29 -->
<g id="node23" class="node">
<title>Node29</title>
<g id="a_node23"><a xlink:href="spec_2comp_8h.html" target="_top" xlink:title="ODP Compression.">
<polygon fill="white" stroke="black" points="1792,-168.5 1792,-187.5 1845,-187.5 1845,-168.5 1792,-168.5"/>
<text text-anchor="middle" x="1818.5" y="-175.5" font-family="Helvetica,sans-Serif" font-size="10.00">comp.h</text>
</a>
</g>
</g>
<!-- Node1&#45;&gt;Node29 -->
<g id="edge23" class="edge">
<title>Node1&#45;&gt;Node29</title>
<path fill="none" stroke="midnightblue" d="M2074.42,-226.2C2020.91,-218.21 1931.07,-204 1854.5,-188 1851.47,-187.37 1848.32,-186.66 1845.18,-185.92"/>
<polygon fill="midnightblue" stroke="midnightblue" points="2074.21,-229.71 2084.62,-227.71 2075.24,-222.79 2074.21,-229.71"/>
</g>
<!-- Node31 -->
<g id="node25" class="node">
<title>Node31</title>
<g id="a_node25"><a xlink:href="spec_2cpu_8h.html" target="_top" xlink:title="ODP CPU API.">
<polygon fill="white" stroke="black" points="1863,-168.5 1863,-187.5 1906,-187.5 1906,-168.5 1863,-168.5"/>
<text text-anchor="middle" x="1884.5" y="-175.5" font-family="Helvetica,sans-Serif" font-size="10.00">cpu.h</text>
</a>
</g>
</g>
<!-- Node1&#45;&gt;Node31 -->
<g id="edge25" class="edge">
<title>Node1&#45;&gt;Node31</title>
<path fill="none" stroke="midnightblue" d="M2074.95,-223.77C2033.06,-215.23 1969.91,-201.82 1915.5,-188 1912.46,-187.23 1909.26,-186.36 1906.13,-185.48"/>
<polygon fill="midnightblue" stroke="midnightblue" points="2074.36,-227.22 2084.86,-225.77 2075.75,-220.36 2074.36,-227.22"/>
</g>
<!-- Node37 -->
<g id="node27" class="node">
<title>Node37</title>
<g id="a_node27"><a xlink:href="spec_2crypto_8h.html" target="_top" xlink:title="ODP crypto.">
<polygon fill="white" stroke="black" points="1402.5,-56.5 1402.5,-75.5 1458.5,-75.5 1458.5,-56.5 1402.5,-56.5"/>
<text text-anchor="middle" x="1430.5" y="-63.5" font-family="Helvetica,sans-Serif" font-size="10.00">crypto.h</text>
</a>
</g>
</g>
<!-- Node1&#45;&gt;Node37 -->
<g id="edge27" class="edge">
<title>Node1&#45;&gt;Node37</title>
<path fill="none" stroke="midnightblue" d="M2074.42,-231.88C1915.61,-227.89 1408.19,-213.18 1384.5,-188 1361.35,-163.4 1371.4,-143.14 1384.5,-112 1391,-96.55 1405.67,-83.76 1416.71,-75.81"/>
<polygon fill="midnightblue" stroke="midnightblue" points="2074.72,-235.39 2084.81,-232.14 2074.9,-228.39 2074.72,-235.39"/>
</g>
<!-- Node39 -->
<g id="node29" class="node">
<title>Node39</title>
<g id="a_node29"><a xlink:href="spec_2crypto__types_8h.html" target="_top" xlink:title="ODP crypto types.">
<polygon fill="white" stroke="black" points="1394,-168.5 1394,-187.5 1483,-187.5 1483,-168.5 1394,-168.5"/>
<text text-anchor="middle" x="1438.5" y="-175.5" font-family="Helvetica,sans-Serif" font-size="10.00">crypto_types.h</text>
</a>
</g>
</g>
<!-- Node1&#45;&gt;Node39 -->
<g id="edge29" class="edge">
<title>Node1&#45;&gt;Node39</title>
<path fill="none" stroke="midnightblue" d="M2074.67,-230.9C1970.63,-225.94 1712.47,-212.11 1497.5,-188 1492.87,-187.48 1488.04,-186.87 1483.23,-186.2"/>
<polygon fill="midnightblue" stroke="midnightblue" points="2074.68,-234.4 2084.83,-231.37 2075.01,-227.41 2074.68,-234.4"/>
</g>
<!-- Node17 -->
<g id="node31" class="node">
<title>Node17</title>
<g id="a_node31"><a xlink:href="spec_2ipsec_8h.html" target="_top" xlink:title="ODP IPsec API.">
<polygon fill="white" stroke="red" points="1486,-56.5 1486,-75.5 1537,-75.5 1537,-56.5 1486,-56.5"/>
<text text-anchor="middle" x="1511.5" y="-63.5" font-family="Helvetica,sans-Serif" font-size="10.00">ipsec.h</text>
</a>
</g>
</g>
<!-- Node1&#45;&gt;Node17 -->
<g id="edge40" class="edge">
<title>Node1&#45;&gt;Node17</title>
<path fill="none" stroke="midnightblue" d="M2074.61,-232.71C1941.81,-231.44 1570.16,-224.61 1530.5,-188 1498.32,-158.29 1505.62,-98.04 1509.71,-75.64"/>
<polygon fill="midnightblue" stroke="midnightblue" points="2074.83,-236.21 2084.86,-232.8 2074.9,-229.21 2074.83,-236.21"/>
</g>
<!-- Node42 -->
<g id="node32" class="node">
<title>Node42</title>
<g id="a_node32"><a xlink:href="spec_2dma__types_8h.html" target="_top" xlink:title="ODP DMA.">
<polygon fill="white" stroke="black" points="1924.5,-168.5 1924.5,-187.5 2004.5,-187.5 2004.5,-168.5 1924.5,-168.5"/>
<text text-anchor="middle" x="1964.5" y="-175.5" font-family="Helvetica,sans-Serif" font-size="10.00">dma_types.h</text>
</a>
</g>
</g>
<!-- Node1&#45;&gt;Node42 -->
<g id="edge34" class="edge">
<title>Node1&#45;&gt;Node42</title>
<path fill="none" stroke="midnightblue" d="M2087.11,-221.17C2057.55,-211 2015.63,-196.59 1989.26,-187.52"/>
<polygon fill="midnightblue" stroke="midnightblue" points="2086.03,-224.5 2096.62,-224.44 2088.3,-217.88 2086.03,-224.5"/>
</g>
<!-- Node46 -->
<g id="node34" class="node">
<title>Node46</title>
<g id="a_node34"><a xlink:href="spec_2pool__types_8h.html" target="_top" xlink:title="Type definitions for pools.">
<polygon fill="white" stroke="red" points="1959,-56.5 1959,-75.5 2038,-75.5 2038,-56.5 1959,-56.5"/>
<text text-anchor="middle" x="1998.5" y="-63.5" font-family="Helvetica,sans-Serif" font-size="10.00">pool_types.h</text>
</a>
</g>
</g>
<!-- Node1&#45;&gt;Node46 -->
<g id="edge49" class="edge">
<title>Node1&#45;&gt;Node46</title>
<path fill="none" stroke="midnightblue" d="M2092.84,-219.61C2078.9,-211.95 2062.77,-201.22 2051.5,-188 2035.87,-169.68 2010.22,-99.99 2001.51,-75.54"/>
<polygon fill="midnightblue" stroke="midnightblue" points="2091.56,-222.89 2102.04,-224.42 2094.8,-216.69 2091.56,-222.89"/>
</g>
<!-- Node70 -->
<g id="node35" class="node">
<title>Node70</title>
<g id="a_node35"><a xlink:href="spec_2event__vector__types_8h.html" target="_top" xlink:title="ODP event vector API type definitions.">
<polygon fill="white" stroke="red" points="2060.5,-168.5 2060.5,-187.5 2182.5,-187.5 2182.5,-168.5 2060.5,-168.5"/>
<text text-anchor="middle" x="2121.5" y="-175.5" font-family="Helvetica,sans-Serif" font-size="10.00">event_vector_types.h</text>
</a>
</g>
</g>
<!-- Node1&#45;&gt;Node70 -->
<g id="edge37" class="edge">
<title>Node1&#45;&gt;Node70</title>
<path fill="none" stroke="midnightblue" d="M2121.5,-213.8C2121.5,-204.91 2121.5,-194.78 2121.5,-187.75"/>
<polygon fill="midnightblue" stroke="midnightblue" points="2118,-214.08 2121.5,-224.08 2125,-214.08 2118,-214.08"/>
</g>
<!-- Node93 -->
<g id="node36" class="node">
<title>Node93</title>
<g id="a_node36"><a xlink:href="spec_2hash_8h.html" target="_top" xlink:title="ODP Hash functions.">
<polygon fill="white" stroke="red" points="2201,-168.5 2201,-187.5 2250,-187.5 2250,-168.5 2201,-168.5"/>
<text text-anchor="middle" x="2225.5" y="-175.5" font-family="Helvetica,sans-Serif" font-size="10.00">hash.h</text>
</a>
</g>
</g>
<!-- Node1&#45;&gt;Node93 -->
<g id="edge38" class="edge">
<title>Node1&#45;&gt;Node93</title>
<path fill="none" stroke="midnightblue" d="M2147.33,-219.59C2166.56,-209.61 2192.24,-196.27 2208.83,-187.65"/>
<polygon fill="midnightblue" stroke="midnightblue" points="2145.47,-216.61 2138.21,-224.32 2148.7,-222.82 2145.47,-216.61"/>
</g>
<!-- Node95 -->
<g id="node37" class="node">
<title>Node95</title>
<g id="a_node37"><a xlink:href="spec_2init_8h.html" target="_top" xlink:title=" ">
<polygon fill="white" stroke="red" points="2268,-168.5 2268,-187.5 2309,-187.5 2309,-168.5 2268,-168.5"/>
<text text-anchor="middle" x="2288.5" y="-175.5" font-family="Helvetica,sans-Serif" font-size="10.00">init.h</text>
</a>
</g>
</g>
<!-- Node1&#45;&gt;Node95 -->
<g id="edge39" class="edge">
<title>Node1&#45;&gt;Node95</title>
<path fill="none" stroke="midnightblue" d="M2157.9,-221.23C2191.61,-210.33 2240.56,-194.5 2267.95,-185.64"/>
<polygon fill="midnightblue" stroke="midnightblue" points="2156.4,-218.04 2147.96,-224.44 2158.55,-224.7 2156.4,-218.04"/>
</g>
<!-- Node56 -->
<g id="node38" class="node">
<title>Node56</title>
<g id="a_node38"><a xlink:href="spec_2ml_8h.html" target="_top" xlink:title="ODP Machine Learning (ML) offload.">
<polygon fill="white" stroke="red" points="2327.5,-168.5 2327.5,-187.5 2365.5,-187.5 2365.5,-168.5 2327.5,-168.5"/>
<text text-anchor="middle" x="2346.5" y="-175.5" font-family="Helvetica,sans-Serif" font-size="10.00">ml.h</text>
</a>
</g>
</g>
<!-- Node1&#45;&gt;Node56 -->
<g id="edge42" class="edge">
<title>Node1&#45;&gt;Node56</title>
<path fill="none" stroke="midnightblue" d="M2168.06,-223.55C2208.16,-215.13 2267.46,-202 2318.5,-188 2321.36,-187.22 2324.36,-186.33 2327.29,-185.42"/>
<polygon fill="midnightblue" stroke="midnightblue" points="2167.12,-220.17 2158.04,-225.64 2168.55,-227.02 2167.12,-220.17"/>
</g>
<!-- Node104 -->
<g id="node39" class="node">
<title>Node104</title>
<g id="a_node39"><a xlink:href="spec_2ml__quantize_8h.html" target="_top" xlink:title="ODP Machine Learning (ML) quantization functions.">
<polygon fill="white" stroke="red" points="2383.5,-168.5 2383.5,-187.5 2469.5,-187.5 2469.5,-168.5 2383.5,-168.5"/>
<text text-anchor="middle" x="2426.5" y="-175.5" font-family="Helvetica,sans-Serif" font-size="10.00">ml_quantize.h</text>
</a>
</g>
</g>
<!-- Node1&#45;&gt;Node104 -->
<g id="edge43" class="edge">
<title>Node1&#45;&gt;Node104</title>
<path fill="none" stroke="midnightblue" d="M2168.39,-224.7C2227.05,-214.31 2326.65,-196.68 2383.44,-186.62"/>
<polygon fill="midnightblue" stroke="midnightblue" points="2167.53,-221.3 2158.29,-226.49 2168.75,-228.19 2167.53,-221.3"/>
</g>
<!-- Node74 -->
<g id="node40" class="node">
<title>Node74</title>
<g id="a_node40"><a xlink:href="spec_2ml__types_8h.html" target="_top" xlink:title="ODP Machine Learning (ML) types.">
<polygon fill="white" stroke="red" points="2488,-168.5 2488,-187.5 2559,-187.5 2559,-168.5 2488,-168.5"/>
<text text-anchor="middle" x="2523.5" y="-175.5" font-family="Helvetica,sans-Serif" font-size="10.00">ml_types.h</text>
</a>
</g>
</g>
<!-- Node1&#45;&gt;Node74 -->
<g id="edge44" class="edge">
<title>Node1&#45;&gt;Node74</title>
<path fill="none" stroke="midnightblue" d="M2168.13,-228.21C2236.44,-220.94 2367.66,-206.05 2478.5,-188 2481.49,-187.51 2484.58,-186.97 2487.68,-186.41"/>
<polygon fill="midnightblue" stroke="midnightblue" points="2167.69,-224.73 2158.11,-229.27 2168.43,-231.69 2167.69,-224.73"/>
</g>
<!-- Node58 -->
<g id="node41" class="node">
<title>Node58</title>
<g id="a_node41"><a xlink:href="spec_2packet_8h.html" target="_top" xlink:title="ODP packet descriptor.">
<polygon fill="white" stroke="red" points="2577.5,-168.5 2577.5,-187.5 2635.5,-187.5 2635.5,-168.5 2577.5,-168.5"/>
<text text-anchor="middle" x="2606.5" y="-175.5" font-family="Helvetica,sans-Serif" font-size="10.00">packet.h</text>
</a>
</g>
</g>
<!-- Node1&#45;&gt;Node58 -->
<g id="edge45" class="edge">
<title>Node1&#45;&gt;Node58</title>
<path fill="none" stroke="midnightblue" d="M2168.68,-230.31C2250.5,-225.18 2423.85,-212.3 2568.5,-188 2571.31,-187.53 2574.22,-186.97 2577.12,-186.36"/>
<polygon fill="midnightblue" stroke="midnightblue" points="2167.99,-226.84 2158.22,-230.95 2168.42,-233.83 2167.99,-226.84"/>
</g>
<!-- Node80 -->
<g id="node42" class="node">
<title>Node80</title>
<g id="a_node42"><a xlink:href="spec_2packet__flags_8h.html" target="_top" xlink:title="ODP packet flags.">
<polygon fill="white" stroke="red" points="2653.5,-168.5 2653.5,-187.5 2739.5,-187.5 2739.5,-168.5 2653.5,-168.5"/>
<text text-anchor="middle" x="2696.5" y="-175.5" font-family="Helvetica,sans-Serif" font-size="10.00">packet_flags.h</text>
</a>
</g>
</g>
<!-- Node1&#45;&gt;Node80 -->
<g id="edge46" class="edge">
<title>Node1&#45;&gt;Node80</title>
<path fill="none" stroke="midnightblue" d="M2168.13,-230.33C2259.69,-224.79 2469.36,-210.65 2644.5,-188 2647.41,-187.62 2650.4,-187.2 2653.41,-186.75"/>
<polygon fill="midnightblue" stroke="midnightblue" points="2167.85,-226.84 2158.07,-230.93 2168.27,-233.83 2167.85,-226.84"/>
</g>
<!-- Node60 -->
<g id="node43" class="node">
<title>Node60</title>
<g id="a_node43"><a xlink:href="spec_2packet__io__types_8h.html" target="_top" xlink:title="ODP Packet IO types.">
<polygon fill="white" stroke="red" points="2757.5,-168.5 2757.5,-187.5 2861.5,-187.5 2861.5,-168.5 2757.5,-168.5"/>
<text text-anchor="middle" x="2809.5" y="-175.5" font-family="Helvetica,sans-Serif" font-size="10.00">packet_io_types.h</text>
</a>
</g>
</g>
<!-- Node1&#45;&gt;Node60 -->
<g id="edge47" class="edge">
<title>Node1&#45;&gt;Node60</title>
<path fill="none" stroke="midnightblue" d="M2168.55,-230.83C2273.07,-225.74 2532.44,-211.66 2748.5,-188 2751.37,-187.69 2754.32,-187.34 2757.29,-186.97"/>
<polygon fill="midnightblue" stroke="midnightblue" points="2168.16,-227.34 2158.34,-231.32 2168.49,-234.34 2168.16,-227.34"/>
</g>
<!-- Node64 -->
<g id="node44" class="node">
<title>Node64</title>
<g id="a_node44"><a xlink:href="spec_2pool_8h.html" target="_top" xlink:title="ODP pool.">
<polygon fill="white" stroke="red" points="2880,-168.5 2880,-187.5 2927,-187.5 2927,-168.5 2880,-168.5"/>
<text text-anchor="middle" x="2903.5" y="-175.5" font-family="Helvetica,sans-Serif" font-size="10.00">pool.h</text>
</a>
</g>
</g>
<!-- Node1&#45;&gt;Node64 -->
<g id="edge48" class="edge">
<title>Node1&#45;&gt;Node64</title>
<path fill="none" stroke="midnightblue" d="M2168.19,-233.52C2286.54,-234.13 2607.54,-231.28 2870.5,-188 2873.55,-187.5 2876.72,-186.83 2879.84,-186.08"/>
<polygon fill="midnightblue" stroke="midnightblue" points="2168.06,-230.02 2158.04,-233.46 2168.02,-237.02 2168.06,-230.02"/>
</g>
<!-- Node106 -->
<g id="node45" class="node">
<title>Node106</title>
<g id="a_node45"><a xlink:href="spec_2proto__stats__types_8h.html" target="_top" xlink:title="ODP proto stats types.">
<polygon fill="white" stroke="red" points="2945,-168.5 2945,-187.5 3058,-187.5 3058,-168.5 2945,-168.5"/>
<text text-anchor="middle" x="3001.5" y="-175.5" font-family="Helvetica,sans-Serif" font-size="10.00">proto_stats_types.h</text>
</a>
</g>
</g>
<!-- Node1&#45;&gt;Node106 -->
<g id="edge50" class="edge">
<title>Node1&#45;&gt;Node106</title>
<path fill="none" stroke="midnightblue" d="M2168.49,-231.76C2293.63,-228.17 2645.26,-216.16 2936.5,-188 2939.22,-187.74 2942,-187.44 2944.81,-187.13"/>
<polygon fill="midnightblue" stroke="midnightblue" points="2168.03,-228.27 2158.14,-232.05 2168.23,-235.27 2168.03,-228.27"/>
</g>
<!-- Node84 -->
<g id="node46" class="node">
<title>Node84</title>
<g id="a_node46"><a xlink:href="spec_2queue_8h.html" target="_top" xlink:title="ODP queue.">
<polygon fill="white" stroke="red" points="3076.5,-168.5 3076.5,-187.5 3132.5,-187.5 3132.5,-168.5 3076.5,-168.5"/>
<text text-anchor="middle" x="3104.5" y="-175.5" font-family="Helvetica,sans-Serif" font-size="10.00">queue.h</text>
</a>
</g>
</g>
<!-- Node1&#45;&gt;Node84 -->
<g id="edge51" class="edge">
<title>Node1&#45;&gt;Node84</title>
<path fill="none" stroke="midnightblue" d="M2168.41,-231.96C2334.05,-228.08 2890.94,-213.43 3067.5,-188 3070.38,-187.59 3073.36,-187.05 3076.33,-186.44"/>
<polygon fill="midnightblue" stroke="midnightblue" points="2167.99,-228.46 2158.08,-232.19 2168.16,-235.46 2167.99,-228.46"/>
</g>
<!-- Node109 -->
<g id="node47" class="node">
<title>Node109</title>
<g id="a_node47"><a xlink:href="spec_2random_8h.html" target="_top" xlink:title="ODP random number API.">
<polygon fill="white" stroke="red" points="3151,-168.5 3151,-187.5 3214,-187.5 3214,-168.5 3151,-168.5"/>
<text text-anchor="middle" x="3182.5" y="-175.5" font-family="Helvetica,sans-Serif" font-size="10.00">random.h</text>
</a>
</g>
</g>
<!-- Node1&#45;&gt;Node109 -->
<g id="edge52" class="edge">
<title>Node1&#45;&gt;Node109</title>
<path fill="none" stroke="midnightblue" d="M2168.3,-232.01C2341.99,-228.15 2949.45,-213.12 3141.5,-188 3144.53,-187.6 3147.68,-187.09 3150.81,-186.52"/>
<polygon fill="midnightblue" stroke="midnightblue" points="2168.13,-228.51 2158.21,-232.23 2168.28,-235.51 2168.13,-228.51"/>
</g>
<!-- Node111 -->
<g id="node48" class="node">
<title>Node111</title>
<g id="a_node48"><a xlink:href="spec_2random__types_8h.html" target="_top" xlink:title="ODP random number API.">
<polygon fill="white" stroke="red" points="3232,-168.5 3232,-187.5 3327,-187.5 3327,-168.5 3232,-168.5"/>
<text text-anchor="middle" x="3279.5" y="-175.5" font-family="Helvetica,sans-Serif" font-size="10.00">random_types.h</text>
</a>
</g>
</g>
<!-- Node1&#45;&gt;Node111 -->
<g id="edge53" class="edge">
<title>Node1&#45;&gt;Node111</title>
<path fill="none" stroke="midnightblue" d="M2168.64,-233.07C2321.4,-232.87 2816.5,-228.87 3223.5,-188 3226.24,-187.72 3229.06,-187.4 3231.89,-187.05"/>
<polygon fill="midnightblue" stroke="midnightblue" points="2168.23,-229.57 2158.23,-233.08 2168.24,-236.57 2168.23,-229.57"/>
</g>
<!-- Node113 -->
<g id="node49" class="node">
<title>Node113</title>
<g id="a_node49"><a xlink:href="spec_2reassembly_8h.html" target="_top" xlink:title="ODP REASSEMBLY API.">
<polygon fill="white" stroke="red" points="3345,-168.5 3345,-187.5 3426,-187.5 3426,-168.5 3345,-168.5"/>
<text text-anchor="middle" x="3385.5" y="-175.5" font-family="Helvetica,sans-Serif" font-size="10.00">reassembly.h</text>
</a>
</g>
</g>
<!-- Node1&#45;&gt;Node113 -->
<g id="edge54" class="edge">
<title>Node1&#45;&gt;Node113</title>
<path fill="none" stroke="midnightblue" d="M2168.32,-232.17C2362.31,-228.6 3103.81,-213.54 3336.5,-188 3339.25,-187.7 3342.08,-187.33 3344.92,-186.92"/>
<polygon fill="midnightblue" stroke="midnightblue" points="2168.1,-228.68 2158.17,-232.36 2168.23,-235.67 2168.1,-228.68"/>
</g>
<!-- Node86 -->
<g id="node50" class="node">
<title>Node86</title>
<g id="a_node50"><a xlink:href="spec_2schedule_8h.html" target="_top" xlink:title="ODP schedule.">
<polygon fill="white" stroke="red" points="3444,-168.5 3444,-187.5 3513,-187.5 3513,-168.5 3444,-168.5"/>
<text text-anchor="middle" x="3478.5" y="-175.5" font-family="Helvetica,sans-Serif" font-size="10.00">schedule.h</text>
</a>
</g>
</g>
<!-- Node1&#45;&gt;Node86 -->
<g id="edge55" class="edge">
<title>Node1&#45;&gt;Node86</title>
<path fill="none" stroke="midnightblue" d="M2168.11,-232.48C2371.52,-230.04 3182.55,-218.57 3435.5,-188 3438.23,-187.67 3441.04,-187.26 3443.85,-186.79"/>
<polygon fill="midnightblue" stroke="midnightblue" points="2168.02,-228.98 2158.06,-232.6 2168.1,-235.98 2168.02,-228.98"/>
</g>
<!-- Node91 -->
<g id="node51" class="node">
<title>Node91</title>
<g id="a_node51"><a xlink:href="spec_2schedule__types_8h.html" target="_top" xlink:title="ODP schedule types.">
<polygon fill="white" stroke="red" points="3531,-168.5 3531,-187.5 3632,-187.5 3632,-168.5 3531,-168.5"/>
<text text-anchor="middle" x="3581.5" y="-175.5" font-family="Helvetica,sans-Serif" font-size="10.00">schedule_types.h</text>
</a>
</g>
</g>
<!-- Node1&#45;&gt;Node91 -->
<g id="edge56" class="edge">
<title>Node1&#45;&gt;Node91</title>
<path fill="none" stroke="midnightblue" d="M2168.37,-232.25C2380.34,-228.73 3250.83,-212.99 3522.5,-188 3525.18,-187.75 3527.93,-187.46 3530.7,-187.14"/>
<polygon fill="midnightblue" stroke="midnightblue" points="2168.14,-228.75 2158.2,-232.41 2168.26,-235.75 2168.14,-228.75"/>
</g>
<!-- Node115 -->
<g id="node52" class="node">
<title>Node115</title>
<g id="a_node52"><a xlink:href="spec_2stash__types_8h.html" target="_top" xlink:title="ODP stash types.">
<polygon fill="white" stroke="red" points="3650.5,-168.5 3650.5,-187.5 3734.5,-187.5 3734.5,-168.5 3650.5,-168.5"/>
<text text-anchor="middle" x="3692.5" y="-175.5" font-family="Helvetica,sans-Serif" font-size="10.00">stash_types.h</text>
</a>
</g>
</g>
<!-- Node1&#45;&gt;Node115 -->
<g id="edge57" class="edge">
<title>Node1&#45;&gt;Node115</title>
<path fill="none" stroke="midnightblue" d="M2168.34,-232.53C2391.17,-230.15 3345.33,-218.36 3641.5,-188 3644.36,-187.71 3647.31,-187.35 3650.27,-186.94"/>
<polygon fill="midnightblue" stroke="midnightblue" points="2168.25,-229.03 2158.29,-232.64 2168.33,-236.03 2168.25,-229.03"/>
</g>
<!-- Node119 -->
<g id="node53" class="node">
<title>Node119</title>
<g id="a_node53"><a xlink:href="spec_2std_8h.html" target="_top" xlink:title="ODP standard types and optimized C library functions.">
<polygon fill="white" stroke="red" points="3753,-168.5 3753,-187.5 3794,-187.5 3794,-168.5 3753,-168.5"/>
<text text-anchor="middle" x="3773.5" y="-175.5" font-family="Helvetica,sans-Serif" font-size="10.00">std.h</text>
</a>
</g>
</g>
<!-- Node1&#45;&gt;Node119 -->
<g id="edge58" class="edge">
<title>Node1&#45;&gt;Node119</title>
<path fill="none" stroke="midnightblue" d="M2168.23,-232.44C2417.45,-229.34 3584.64,-213.57 3743.5,-188 3746.51,-187.52 3749.63,-186.81 3752.68,-186.01"/>
<polygon fill="midnightblue" stroke="midnightblue" points="2168.02,-228.94 2158.07,-232.56 2168.11,-235.94 2168.02,-228.94"/>
</g>
<!-- Node121 -->
<g id="node54" class="node">
<title>Node121</title>
<g id="a_node54"><a xlink:href="spec_2threshold_8h.html" target="_top" xlink:title="ODP threshold descriptor.">
<polygon fill="white" stroke="red" points="3812,-168.5 3812,-187.5 3883,-187.5 3883,-168.5 3812,-168.5"/>
<text text-anchor="middle" x="3847.5" y="-175.5" font-family="Helvetica,sans-Serif" font-size="10.00">threshold.h</text>
</a>
</g>
</g>
<!-- Node1&#45;&gt;Node121 -->
<g id="edge59" class="edge">
<title>Node1&#45;&gt;Node121</title>
<path fill="none" stroke="midnightblue" d="M2168.3,-232.86C2405.2,-231.95 3473.93,-225.82 3803.5,-188 3806.13,-187.7 3808.84,-187.32 3811.56,-186.88"/>
<polygon fill="midnightblue" stroke="midnightblue" points="2168.27,-229.36 2158.29,-232.89 2168.3,-236.36 2168.27,-229.36"/>
</g>
<!-- Node123 -->
<g id="node55" class="node">
<title>Node123</title>
<g id="a_node55"><a xlink:href="spec_2thrmask_8h.html" target="_top" xlink:title="ODP thread masks.">
<polygon fill="white" stroke="red" points="3901.5,-168.5 3901.5,-187.5 3967.5,-187.5 3967.5,-168.5 3901.5,-168.5"/>
<text text-anchor="middle" x="3934.5" y="-175.5" font-family="Helvetica,sans-Serif" font-size="10.00">thrmask.h</text>
</a>
</g>
</g>
<!-- Node1&#45;&gt;Node123 -->
<g id="edge60" class="edge">
<title>Node1&#45;&gt;Node123</title>
<path fill="none" stroke="midnightblue" d="M2168.37,-232.99C2412.92,-232.74 3544.53,-229.34 3892.5,-188 3895.31,-187.67 3898.22,-187.23 3901.12,-186.74"/>
<polygon fill="midnightblue" stroke="midnightblue" points="2168.05,-229.49 2158.06,-233 2168.06,-236.49 2168.05,-229.49"/>
</g>
<!-- Node125 -->
<g id="node56" class="node">
<title>Node125</title>
<g id="a_node56"><a xlink:href="spec_2time_8h.html" target="_top" xlink:title="ODP time.">
<polygon fill="white" stroke="red" points="3985.5,-168.5 3985.5,-187.5 4033.5,-187.5 4033.5,-168.5 3985.5,-168.5"/>
<text text-anchor="middle" x="4009.5" y="-175.5" font-family="Helvetica,sans-Serif" font-size="10.00">time.h</text>
</a>
</g>
</g>
<!-- Node1&#45;&gt;Node125 -->
<g id="edge61" class="edge">
<title>Node1&#45;&gt;Node125</title>
<path fill="none" stroke="midnightblue" d="M2168.29,-232.54C2438.43,-229.81 3792.98,-214.85 3976.5,-188 3979.44,-187.57 3982.49,-186.97 3985.49,-186.27"/>
<polygon fill="midnightblue" stroke="midnightblue" points="2168.01,-229.04 2158.05,-232.65 2168.08,-236.04 2168.01,-229.04"/>
</g>
<!-- Node127 -->
<g id="node57" class="node">
<title>Node127</title>
<g id="a_node57"><a xlink:href="spec_2timer__types_8h.html" target="_top" xlink:title="ODP timer API type definitions.">
<polygon fill="white" stroke="red" points="4051.5,-168.5 4051.5,-187.5 4135.5,-187.5 4135.5,-168.5 4051.5,-168.5"/>
<text text-anchor="middle" x="4093.5" y="-175.5" font-family="Helvetica,sans-Serif" font-size="10.00">timer_types.h</text>
</a>
</g>
</g>
<!-- Node1&#45;&gt;Node127 -->
<g id="edge62" class="edge">
<title>Node1&#45;&gt;Node127</title>
<path fill="none" stroke="midnightblue" d="M2168.16,-232.87C2424.36,-231.98 3662.28,-225.78 4042.5,-188 4045.36,-187.72 4048.31,-187.36 4051.27,-186.96"/>
<polygon fill="midnightblue" stroke="midnightblue" points="2168.07,-229.37 2158.08,-232.9 2168.09,-236.37 2168.07,-229.37"/>
</g>
<!-- Node62 -->
<g id="node58" class="node">
<title>Node62</title>
<g id="a_node58"><a xlink:href="spec_2traffic__mngr_8h.html" target="_top" xlink:title=" ">
<polygon fill="white" stroke="red" points="4153.5,-168.5 4153.5,-187.5 4237.5,-187.5 4237.5,-168.5 4153.5,-168.5"/>
<text text-anchor="middle" x="4195.5" y="-175.5" font-family="Helvetica,sans-Serif" font-size="10.00">traffic_mngr.h</text>
</a>
</g>
</g>
<!-- Node1&#45;&gt;Node62 -->
<g id="edge63" class="edge">
<title>Node1&#45;&gt;Node62</title>
<path fill="none" stroke="midnightblue" d="M2168.09,-232.93C2432.12,-232.38 3742.8,-227.68 4144.5,-188 4147.36,-187.72 4150.31,-187.36 4153.27,-186.96"/>
<polygon fill="midnightblue" stroke="midnightblue" points="2168.07,-229.43 2158.08,-232.95 2168.08,-236.43 2168.07,-229.43"/>
</g>
<!-- Node129 -->
<g id="node59" class="node">
<title>Node129</title>
<g id="a_node59"><a xlink:href="system__info_8h.html" target="_top" xlink:title="ODP system information.">
<polygon fill="white" stroke="black" points="4255.5,-168.5 4255.5,-187.5 4341.5,-187.5 4341.5,-168.5 4255.5,-168.5"/>
<text text-anchor="middle" x="4298.5" y="-175.5" font-family="Helvetica,sans-Serif" font-size="10.00">system_info.h</text>
</a>
</g>
</g>
<!-- Node1&#45;&gt;Node129 -->
<g id="edge64" class="edge">
<title>Node1&#45;&gt;Node129</title>
<path fill="none" stroke="midnightblue" d="M2168.67,-232.97C2441.85,-232.62 3823.56,-228.85 4246.5,-188 4249.42,-187.72 4252.42,-187.37 4255.44,-186.97"/>
<polygon fill="midnightblue" stroke="midnightblue" points="2168.31,-229.47 2158.32,-232.98 2168.32,-236.47 2168.31,-229.47"/>
</g>
<!-- Node130 -->
<g id="node60" class="node">
<title>Node130</title>
<g id="a_node60"><a xlink:href="strong__types_8h.html" target="_top" xlink:title="ODP Strong Types.">
<polygon fill="white" stroke="black" points="4360,-168.5 4360,-187.5 4449,-187.5 4449,-168.5 4360,-168.5"/>
<text text-anchor="middle" x="4404.5" y="-175.5" font-family="Helvetica,sans-Serif" font-size="10.00">strong_types.h</text>
</a>
</g>
</g>
<!-- Node1&#45;&gt;Node130 -->
<g id="edge65" class="edge">
<title>Node1&#45;&gt;Node130</title>
<path fill="none" stroke="midnightblue" d="M2168.28,-232.98C2448.28,-232.72 3905.31,-229.37 4350.5,-188 4353.53,-187.72 4356.64,-187.37 4359.78,-186.97"/>
<polygon fill="midnightblue" stroke="midnightblue" points="2168.06,-229.48 2158.07,-232.99 2168.07,-236.48 2168.06,-229.48"/>
</g>
<!-- Node14&#45;&gt;Node15 -->
<g id="edge14" class="edge">
<title>Node14&#45;&gt;Node15</title>
<path fill="none" stroke="midnightblue" d="M1266.54,-107.18C1283.1,-97.24 1304.92,-84.15 1319.08,-75.65"/>
<polygon fill="midnightblue" stroke="midnightblue" points="1264.73,-104.18 1257.96,-112.32 1268.34,-110.18 1264.73,-104.18"/>
</g>
<!-- Node20 -->
<g id="node16" class="node">
<title>Node20</title>
<g id="a_node16"><a xlink:href="spec_2packet__io_8h.html" target="_top" xlink:title="ODP Packet IO.">
<polygon fill="white" stroke="red" points="1201.5,-56.5 1201.5,-75.5 1273.5,-75.5 1273.5,-56.5 1201.5,-56.5"/>
<text text-anchor="middle" x="1237.5" y="-63.5" font-family="Helvetica,sans-Serif" font-size="10.00">packet_io.h</text>
</a>
</g>
</g>
<!-- Node14&#45;&gt;Node20 -->
<g id="edge15" class="edge">
<title>Node14&#45;&gt;Node20</title>
<path fill="none" stroke="midnightblue" d="M1241.4,-102.1C1240.4,-93.14 1239.26,-82.86 1238.47,-75.75"/>
<polygon fill="midnightblue" stroke="midnightblue" points="1237.93,-102.53 1242.51,-112.08 1244.88,-101.76 1237.93,-102.53"/>
</g>
<!-- Node24 -->
<g id="node19" class="node">
<title>Node24</title>
<g id="a_node19"><a xlink:href="buffer_8h.html" target="_top" xlink:title="ODP buffer descriptor.">
<polygon fill="white" stroke="red" points="1638,-112.5 1638,-131.5 1691,-131.5 1691,-112.5 1638,-112.5"/>
<text text-anchor="middle" x="1664.5" y="-119.5" font-family="Helvetica,sans-Serif" font-size="10.00">buffer.h</text>
</a>
</g>
</g>
<!-- Node23&#45;&gt;Node24 -->
<g id="edge18" class="edge">
<title>Node23&#45;&gt;Node24</title>
<path fill="none" stroke="midnightblue" d="M1664.5,-157.8C1664.5,-148.91 1664.5,-138.78 1664.5,-131.75"/>
<polygon fill="midnightblue" stroke="midnightblue" points="1661,-158.08 1664.5,-168.08 1668,-158.08 1661,-158.08"/>
</g>
<!-- Node27 -->
<g id="node21" class="node">
<title>Node27</title>
<g id="a_node21"><a xlink:href="chksum_8h.html" target="_top" xlink:title="ODP checksum functions.">
<polygon fill="white" stroke="black" points="1709.5,-112.5 1709.5,-131.5 1773.5,-131.5 1773.5,-112.5 1709.5,-112.5"/>
<text text-anchor="middle" x="1741.5" y="-119.5" font-family="Helvetica,sans-Serif" font-size="10.00">chksum.h</text>
</a>
</g>
</g>
<!-- Node26&#45;&gt;Node27 -->
<g id="edge20" class="edge">
<title>Node26&#45;&gt;Node27</title>
<path fill="none" stroke="midnightblue" d="M1741.5,-157.8C1741.5,-148.91 1741.5,-138.78 1741.5,-131.75"/>
<polygon fill="midnightblue" stroke="midnightblue" points="1738,-158.08 1741.5,-168.08 1745,-158.08 1738,-158.08"/>
</g>
<!-- Node28&#45;&gt;Node14 -->
<g id="edge22" class="edge">
<title>Node28&#45;&gt;Node14</title>
<path fill="none" stroke="midnightblue" d="M1250.65,-158.1C1248.82,-149.14 1246.73,-138.86 1245.28,-131.75"/>
<polygon fill="midnightblue" stroke="midnightblue" points="1247.26,-158.98 1252.68,-168.08 1254.12,-157.59 1247.26,-158.98"/>
</g>
<!-- Node30 -->
<g id="node24" class="node">
<title>Node30</title>
<g id="a_node24"><a xlink:href="comp_8h.html" target="_top" xlink:title="ODP crypto.">
<polygon fill="white" stroke="black" points="1792,-112.5 1792,-131.5 1845,-131.5 1845,-112.5 1792,-112.5"/>
<text text-anchor="middle" x="1818.5" y="-119.5" font-family="Helvetica,sans-Serif" font-size="10.00">comp.h</text>
</a>
</g>
</g>
<!-- Node29&#45;&gt;Node30 -->
<g id="edge24" class="edge">
<title>Node29&#45;&gt;Node30</title>
<path fill="none" stroke="midnightblue" d="M1818.5,-157.8C1818.5,-148.91 1818.5,-138.78 1818.5,-131.75"/>
<polygon fill="midnightblue" stroke="midnightblue" points="1815,-158.08 1818.5,-168.08 1822,-158.08 1815,-158.08"/>
</g>
<!-- Node32 -->
<g id="node26" class="node">
<title>Node32</title>
<g id="a_node26"><a xlink:href="cpu_8h.html" target="_top" xlink:title="ODP CPU.">
<polygon fill="white" stroke="red" points="1863,-112.5 1863,-131.5 1906,-131.5 1906,-112.5 1863,-112.5"/>
<text text-anchor="middle" x="1884.5" y="-119.5" font-family="Helvetica,sans-Serif" font-size="10.00">cpu.h</text>
</a>
</g>
</g>
<!-- Node31&#45;&gt;Node32 -->
<g id="edge26" class="edge">
<title>Node31&#45;&gt;Node32</title>
<path fill="none" stroke="midnightblue" d="M1884.5,-157.8C1884.5,-148.91 1884.5,-138.78 1884.5,-131.75"/>
<polygon fill="midnightblue" stroke="midnightblue" points="1881,-158.08 1884.5,-168.08 1888,-158.08 1881,-158.08"/>
</g>
<!-- Node38 -->
<g id="node28" class="node">
<title>Node38</title>
<g id="a_node28"><a xlink:href="crypto_8h.html" target="_top" xlink:title="ODP crypto.">
<polygon fill="white" stroke="black" points="1402.5,-0.5 1402.5,-19.5 1458.5,-19.5 1458.5,-0.5 1402.5,-0.5"/>
<text text-anchor="middle" x="1430.5" y="-7.5" font-family="Helvetica,sans-Serif" font-size="10.00">crypto.h</text>
</a>
</g>
</g>
<!-- Node37&#45;&gt;Node38 -->
<g id="edge28" class="edge">
<title>Node37&#45;&gt;Node38</title>
<path fill="none" stroke="midnightblue" d="M1430.5,-45.8C1430.5,-36.91 1430.5,-26.78 1430.5,-19.75"/>
<polygon fill="midnightblue" stroke="midnightblue" points="1427,-46.08 1430.5,-56.08 1434,-46.08 1427,-46.08"/>
</g>
<!-- Node40 -->
<g id="node30" class="node">
<title>Node40</title>
<g id="a_node30"><a xlink:href="crypto__types_8h.html" target="_top" xlink:title="ODP crypto.">
<polygon fill="white" stroke="red" points="1394,-112.5 1394,-131.5 1483,-131.5 1483,-112.5 1394,-112.5"/>
<text text-anchor="middle" x="1438.5" y="-119.5" font-family="Helvetica,sans-Serif" font-size="10.00">crypto_types.h</text>
</a>
</g>
</g>
<!-- Node39&#45;&gt;Node40 -->
<g id="edge30" class="edge">
<title>Node39&#45;&gt;Node40</title>
<path fill="none" stroke="midnightblue" d="M1438.5,-157.8C1438.5,-148.91 1438.5,-138.78 1438.5,-131.75"/>
<polygon fill="midnightblue" stroke="midnightblue" points="1435,-158.08 1438.5,-168.08 1442,-158.08 1435,-158.08"/>
</g>
<!-- Node40&#45;&gt;Node15 -->
<g id="edge33" class="edge">
<title>Node40&#45;&gt;Node15</title>
<path fill="none" stroke="midnightblue" d="M1412.69,-107.73C1393.25,-97.73 1367.15,-84.31 1350.33,-75.65"/>
<polygon fill="midnightblue" stroke="midnightblue" points="1411.14,-110.86 1421.63,-112.32 1414.34,-104.64 1411.14,-110.86"/>
</g>
<!-- Node40&#45;&gt;Node37 -->
<g id="edge31" class="edge">
<title>Node40&#45;&gt;Node37</title>
<path fill="none" stroke="midnightblue" d="M1435.7,-102.1C1434.37,-93.14 1432.85,-82.86 1431.8,-75.75"/>
<polygon fill="midnightblue" stroke="midnightblue" points="1432.25,-102.7 1437.18,-112.08 1439.18,-101.68 1432.25,-102.7"/>
</g>
<!-- Node40&#45;&gt;Node17 -->
<g id="edge32" class="edge">
<title>Node40&#45;&gt;Node17</title>
<path fill="none" stroke="midnightblue" d="M1458.64,-106.1C1471.78,-96.38 1488.48,-84.03 1499.56,-75.83"/>
<polygon fill="midnightblue" stroke="midnightblue" points="1456.19,-103.56 1450.23,-112.32 1460.35,-109.19 1456.19,-103.56"/>
</g>
<!-- Node43 -->
<g id="node33" class="node">
<title>Node43</title>
<g id="a_node33"><a xlink:href="dma__types_8h.html" target="_top" xlink:title="ODP DMA.">
<polygon fill="white" stroke="red" points="1924.5,-112.5 1924.5,-131.5 2004.5,-131.5 2004.5,-112.5 1924.5,-112.5"/>
<text text-anchor="middle" x="1964.5" y="-119.5" font-family="Helvetica,sans-Serif" font-size="10.00">dma_types.h</text>
</a>
</g>
</g>
<!-- Node42&#45;&gt;Node43 -->
<g id="edge35" class="edge">
<title>Node42&#45;&gt;Node43</title>
<path fill="none" stroke="midnightblue" d="M1964.5,-157.8C1964.5,-148.91 1964.5,-138.78 1964.5,-131.75"/>
<polygon fill="midnightblue" stroke="midnightblue" points="1961,-158.08 1964.5,-168.08 1968,-158.08 1961,-158.08"/>
</g>
<!-- Node43&#45;&gt;Node46 -->
<g id="edge36" class="edge">
<title>Node43&#45;&gt;Node46</title>
<path fill="none" stroke="midnightblue" d="M1975.48,-103.57C1981.33,-94.27 1988.27,-83.25 1992.99,-75.75"/>
<polygon fill="midnightblue" stroke="midnightblue" points="1972.48,-101.76 1970.11,-112.08 1978.4,-105.49 1972.48,-101.76"/>
</g>
</g>
</svg>
