<?xml version="1.0" encoding="UTF-8" standalone="no"?>
<!DOCTYPE svg PUBLIC "-//W3C//DTD SVG 1.1//EN"
 "http://www.w3.org/Graphics/SVG/1.1/DTD/svg11.dtd">
<!-- Generated by graphviz version 2.43.0 (0)
 -->
<!-- Title: odp_timer_capability_t Pages: 1 -->
<svg width="270pt" height="128pt"
 viewBox="0.00 0.00 270.00 128.00" xmlns="http://www.w3.org/2000/svg" xmlns:xlink="http://www.w3.org/1999/xlink">
<g id="graph0" class="graph" transform="scale(1 1) rotate(0) translate(4 124)">
<title>odp_timer_capability_t</title>
<polygon fill="white" stroke="transparent" points="-4,4 -4,-124 266,-124 266,4 -4,4"/>
<!-- Node1 -->
<g id="node1" class="node">
<title>Node1</title>
<g id="a_node1"><a xlink:title="Timer capability.">
<polygon fill="#bfbfbf" stroke="black" points="53.5,-0.5 53.5,-19.5 181.5,-19.5 181.5,-0.5 53.5,-0.5"/>
<text text-anchor="middle" x="117.5" y="-7.5" font-family="Helvetica,sans-Serif" font-size="10.00">odp_timer_capability_t</text>
</a>
</g>
</g>
<!-- Node2 -->
<g id="node2" class="node">
<title>Node2</title>
<g id="a_node2"><a xlink:href="structodp__fract__u64__t.html" target="_top" xlink:title="Unsigned 64 bit fractional number.">
<polygon fill="white" stroke="black" points="0,-100.5 0,-119.5 95,-119.5 95,-100.5 0,-100.5"/>
<text text-anchor="middle" x="47.5" y="-107.5" font-family="Helvetica,sans-Serif" font-size="10.00">odp_fract_u64_t</text>
</a>
</g>
</g>
<!-- Node2&#45;&gt;Node1 -->
<g id="edge1" class="edge">
<title>Node2&#45;&gt;Node1</title>
<path fill="none" stroke="#9a32cd" stroke-dasharray="5,2" d="M49.79,-90.23C52.49,-74.78 58.29,-53.06 70.5,-38 76.9,-30.11 86.27,-24.07 94.96,-19.72"/>
<polygon fill="#9a32cd" stroke="#9a32cd" points="46.32,-89.77 48.31,-100.18 53.24,-90.8 46.32,-89.77"/>
<text text-anchor="middle" x="118" y="-74" font-family="Helvetica,sans-Serif" font-size="10.00"> max_base_freq_hz</text>
<text text-anchor="middle" x="118" y="-63" font-family="Helvetica,sans-Serif" font-size="10.00">max_freq_hz</text>
<text text-anchor="middle" x="118" y="-52" font-family="Helvetica,sans-Serif" font-size="10.00">min_base_freq_hz</text>
<text text-anchor="middle" x="118" y="-41" font-family="Helvetica,sans-Serif" font-size="10.00">min_freq_hz</text>
</g>
<!-- Node3 -->
<g id="node3" class="node">
<title>Node3</title>
<g id="a_node3"><a xlink:href="structodp__timer__res__capability__t.html" target="_top" xlink:title="Timer resolution capability.">
<polygon fill="white" stroke="black" points="113,-100.5 113,-119.5 262,-119.5 262,-100.5 113,-100.5"/>
<text text-anchor="middle" x="187.5" y="-107.5" font-family="Helvetica,sans-Serif" font-size="10.00">odp_timer_res_capability_t</text>
</a>
</g>
</g>
<!-- Node3&#45;&gt;Node1 -->
<g id="edge2" class="edge">
<title>Node3&#45;&gt;Node1</title>
<path fill="none" stroke="#9a32cd" stroke-dasharray="5,2" d="M185.55,-90.21C183.1,-74.75 177.64,-53.03 165.5,-38 159.01,-29.97 149.45,-23.91 140.57,-19.58"/>
<polygon fill="#9a32cd" stroke="#9a32cd" points="182.08,-90.7 186.85,-100.17 189.02,-89.8 182.08,-90.7"/>
<text text-anchor="middle" x="207" y="-63" font-family="Helvetica,sans-Serif" font-size="10.00"> max_res</text>
<text text-anchor="middle" x="207" y="-52" font-family="Helvetica,sans-Serif" font-size="10.00">max_tmo</text>
</g>
</g>
</svg>
