<?xml version="1.0" encoding="UTF-8" standalone="no"?>
<!DOCTYPE svg PUBLIC "-//W3C//DTD SVG 1.1//EN"
 "http://www.w3.org/Graphics/SVG/1.1/DTD/svg11.dtd">
<!-- Generated by graphviz version 2.43.0 (0)
 -->
<!-- Title: odp_ipsec_config_t Pages: 1 -->
<svg width="500pt" height="173pt"
 viewBox="0.00 0.00 499.50 173.00" xmlns="http://www.w3.org/2000/svg" xmlns:xlink="http://www.w3.org/1999/xlink">
<g id="graph0" class="graph" transform="scale(1 1) rotate(0) translate(4 169)">
<title>odp_ipsec_config_t</title>
<polygon fill="white" stroke="transparent" points="-4,4 -4,-169 495.5,-169 495.5,4 -4,4"/>
<!-- Node1 -->
<g id="node1" class="node">
<title>Node1</title>
<g id="a_node1"><a xlink:title="IPSEC configuration options.">
<polygon fill="#bfbfbf" stroke="black" points="159,-0.5 159,-19.5 268,-19.5 268,-0.5 159,-0.5"/>
<text text-anchor="middle" x="213.5" y="-7.5" font-family="Helvetica,sans-Serif" font-size="10.00">odp_ipsec_config_t</text>
</a>
</g>
</g>
<!-- Node2 -->
<g id="node2" class="node">
<title>Node2</title>
<g id="a_node2"><a xlink:href="structodp__ipsec__outbound__config__t.html" target="_top" xlink:title="Configuration options for IPSEC outbound processing.">
<polygon fill="white" stroke="black" points="2.5,-67.5 2.5,-97.5 118.5,-97.5 118.5,-67.5 2.5,-67.5"/>
<text text-anchor="start" x="10.5" y="-85.5" font-family="Helvetica,sans-Serif" font-size="10.00">odp_ipsec_outbound</text>
<text text-anchor="middle" x="60.5" y="-74.5" font-family="Helvetica,sans-Serif" font-size="10.00">_config_t</text>
</a>
</g>
</g>
<!-- Node2&#45;&gt;Node1 -->
<g id="edge1" class="edge">
<title>Node2&#45;&gt;Node1</title>
<path fill="none" stroke="#9a32cd" stroke-dasharray="5,2" d="M100.22,-63.2C130.77,-49.12 171.61,-30.3 194.98,-19.53"/>
<polygon fill="#9a32cd" stroke="#9a32cd" points="98.71,-60.04 91.09,-67.4 101.64,-66.4 98.71,-60.04"/>
<text text-anchor="middle" x="176" y="-41" font-family="Helvetica,sans-Serif" font-size="10.00"> outbound</text>
</g>
<!-- Node3 -->
<g id="node3" class="node">
<title>Node3</title>
<g id="a_node3"><a xlink:href="structodp__ipsec__inbound__config__t.html" target="_top" xlink:title="Configuration options for IPSEC inbound processing.">
<polygon fill="white" stroke="black" points="137,-73 137,-92 290,-92 290,-73 137,-73"/>
<text text-anchor="middle" x="213.5" y="-80" font-family="Helvetica,sans-Serif" font-size="10.00">odp_ipsec_inbound_config_t</text>
</a>
</g>
</g>
<!-- Node3&#45;&gt;Node1 -->
<g id="edge2" class="edge">
<title>Node3&#45;&gt;Node1</title>
<path fill="none" stroke="#9a32cd" stroke-dasharray="5,2" d="M213.5,-62.44C213.5,-48.53 213.5,-30.32 213.5,-19.72"/>
<polygon fill="#9a32cd" stroke="#9a32cd" points="210,-62.86 213.5,-72.86 217,-62.86 210,-62.86"/>
<text text-anchor="middle" x="235" y="-41" font-family="Helvetica,sans-Serif" font-size="10.00"> inbound</text>
</g>
<!-- Node4 -->
<g id="node4" class="node">
<title>Node4</title>
<g id="a_node4"><a xlink:href="unionodp__proto__chksums__t.html" target="_top" xlink:title="Flags to control packet data checksum checking.">
<polygon fill="white" stroke="black" points="0,-145.5 0,-164.5 123,-164.5 123,-145.5 0,-145.5"/>
<text text-anchor="middle" x="61.5" y="-152.5" font-family="Helvetica,sans-Serif" font-size="10.00">odp_proto_chksums_t</text>
</a>
</g>
</g>
<!-- Node4&#45;&gt;Node3 -->
<g id="edge3" class="edge">
<title>Node4&#45;&gt;Node3</title>
<path fill="none" stroke="#9a32cd" stroke-dasharray="5,2" d="M89.13,-141.18C119.88,-126.92 168.7,-104.28 195.1,-92.03"/>
<polygon fill="#9a32cd" stroke="#9a32cd" points="87.43,-138.11 79.83,-145.5 90.38,-144.46 87.43,-138.11"/>
<text text-anchor="middle" x="166" y="-119" font-family="Helvetica,sans-Serif" font-size="10.00"> chksums</text>
</g>
<!-- Node5 -->
<g id="node5" class="node">
<title>Node5</title>
<g id="a_node5"><a xlink:href="struct__odp__abi__queue__t.html" target="_top" xlink:title=" ">
<polygon fill="white" stroke="black" points="141.5,-145.5 141.5,-164.5 245.5,-164.5 245.5,-145.5 141.5,-145.5"/>
<text text-anchor="middle" x="193.5" y="-152.5" font-family="Helvetica,sans-Serif" font-size="10.00">_odp_abi_queue_t</text>
</a>
</g>
</g>
<!-- Node5&#45;&gt;Node3 -->
<g id="edge4" class="edge">
<title>Node5&#45;&gt;Node3</title>
<path fill="none" stroke="#9a32cd" stroke-dasharray="5,2" d="M198.79,-135.36C202.75,-121.4 207.99,-102.93 211.03,-92.22"/>
<polygon fill="#9a32cd" stroke="#9a32cd" points="195.31,-134.78 195.95,-145.36 202.05,-136.69 195.31,-134.78"/>
<text text-anchor="middle" x="241" y="-119" font-family="Helvetica,sans-Serif" font-size="10.00"> default_queue</text>
</g>
<!-- Node6 -->
<g id="node6" class="node">
<title>Node6</title>
<g id="a_node6"><a xlink:href="structodp__reass__config__t.html" target="_top" xlink:title="Fragment reassembly configuration.">
<polygon fill="white" stroke="black" points="263.5,-145.5 263.5,-164.5 373.5,-164.5 373.5,-145.5 263.5,-145.5"/>
<text text-anchor="middle" x="318.5" y="-152.5" font-family="Helvetica,sans-Serif" font-size="10.00">odp_reass_config_t</text>
</a>
</g>
</g>
<!-- Node6&#45;&gt;Node3 -->
<g id="edge5" class="edge">
<title>Node6&#45;&gt;Node3</title>
<path fill="none" stroke="#9a32cd" stroke-dasharray="5,2" d="M304.77,-137.46C298.24,-130.26 290,-122.1 281.5,-116 267.57,-106.01 250.09,-97.73 236.34,-92.03"/>
<polygon fill="#9a32cd" stroke="#9a32cd" points="302.38,-140.04 311.58,-145.29 307.66,-135.44 302.38,-140.04"/>
<text text-anchor="middle" x="325" y="-119" font-family="Helvetica,sans-Serif" font-size="10.00"> reassembly</text>
</g>
<!-- Node7 -->
<g id="node7" class="node">
<title>Node7</title>
<g id="a_node7"><a xlink:href="structodp__pktin__vector__config__t.html" target="_top" xlink:title="Packet input vector configuration.">
<polygon fill="white" stroke="black" points="347.5,-73 347.5,-92 491.5,-92 491.5,-73 347.5,-73"/>
<text text-anchor="middle" x="419.5" y="-80" font-family="Helvetica,sans-Serif" font-size="10.00">odp_pktin_vector_config_t</text>
</a>
</g>
</g>
<!-- Node7&#45;&gt;Node1 -->
<g id="edge6" class="edge">
<title>Node7&#45;&gt;Node1</title>
<path fill="none" stroke="#9a32cd" stroke-dasharray="5,2" d="M384.99,-69.69C343.55,-55.51 275.07,-32.07 238.44,-19.53"/>
<polygon fill="#9a32cd" stroke="#9a32cd" points="384.06,-73.07 394.65,-73 386.32,-66.45 384.06,-73.07"/>
<text text-anchor="middle" x="340.5" y="-41" font-family="Helvetica,sans-Serif" font-size="10.00"> vector</text>
</g>
<!-- Node8 -->
<g id="node8" class="node">
<title>Node8</title>
<g id="a_node8"><a xlink:href="struct__odp__abi__pool__t.html" target="_top" xlink:title=" ">
<polygon fill="white" stroke="black" points="392,-145.5 392,-164.5 487,-164.5 487,-145.5 392,-145.5"/>
<text text-anchor="middle" x="439.5" y="-152.5" font-family="Helvetica,sans-Serif" font-size="10.00">_odp_abi_pool_t</text>
</a>
</g>
</g>
<!-- Node8&#45;&gt;Node7 -->
<g id="edge7" class="edge">
<title>Node8&#45;&gt;Node7</title>
<path fill="none" stroke="#9a32cd" stroke-dasharray="5,2" d="M434.21,-135.36C430.25,-121.4 425.01,-102.93 421.97,-92.22"/>
<polygon fill="#9a32cd" stroke="#9a32cd" points="430.95,-136.69 437.05,-145.36 437.69,-134.78 430.95,-136.69"/>
<text text-anchor="middle" x="444" y="-119" font-family="Helvetica,sans-Serif" font-size="10.00"> pool</text>
</g>
</g>
</svg>
