<?xml version="1.0" encoding="UTF-8" standalone="no"?>
<!DOCTYPE svg PUBLIC "-//W3C//DTD SVG 1.1//EN"
 "http://www.w3.org/Graphics/SVG/1.1/DTD/svg11.dtd">
<!-- Generated by graphviz version 2.43.0 (0)
 -->
<!-- Title: odp_ipsec_packet_result_t Pages: 1 -->
<svg width="452pt" height="162pt"
 viewBox="0.00 0.00 452.00 162.00" xmlns="http://www.w3.org/2000/svg" xmlns:xlink="http://www.w3.org/1999/xlink">
<g id="graph0" class="graph" transform="scale(1 1) rotate(0) translate(4 158)">
<title>odp_ipsec_packet_result_t</title>
<polygon fill="white" stroke="transparent" points="-4,4 -4,-158 448,-158 448,4 -4,4"/>
<!-- Node1 -->
<g id="node1" class="node">
<title>Node1</title>
<g id="a_node1"><a xlink:title="IPSEC operation result for a packet.">
<polygon fill="#bfbfbf" stroke="black" points="119,-0.5 119,-19.5 264,-19.5 264,-0.5 119,-0.5"/>
<text text-anchor="middle" x="191.5" y="-7.5" font-family="Helvetica,sans-Serif" font-size="10.00">odp_ipsec_packet_result_t</text>
</a>
</g>
</g>
<!-- Node2 -->
<g id="node2" class="node">
<title>Node2</title>
<g id="a_node2"><a xlink:href="structodp__ipsec__op__flag__t.html" target="_top" xlink:title="IPSEC operation flags.">
<polygon fill="white" stroke="black" points="0,-67.5 0,-86.5 115,-86.5 115,-67.5 0,-67.5"/>
<text text-anchor="middle" x="57.5" y="-74.5" font-family="Helvetica,sans-Serif" font-size="10.00">odp_ipsec_op_flag_t</text>
</a>
</g>
</g>
<!-- Node2&#45;&gt;Node1 -->
<g id="edge1" class="edge">
<title>Node2&#45;&gt;Node1</title>
<path fill="none" stroke="#9a32cd" stroke-dasharray="5,2" d="M84.42,-62.94C110.96,-50.07 150.77,-30.76 173.63,-19.67"/>
<polygon fill="#9a32cd" stroke="#9a32cd" points="82.76,-59.85 75.29,-67.37 85.82,-66.15 82.76,-59.85"/>
<text text-anchor="middle" x="144.5" y="-41" font-family="Helvetica,sans-Serif" font-size="10.00"> flag</text>
</g>
<!-- Node3 -->
<g id="node3" class="node">
<title>Node3</title>
<g id="a_node3"><a xlink:href="struct__odp__abi__ipsec__sa__t.html" target="_top" xlink:title=" ">
<polygon fill="white" stroke="black" points="133.5,-67.5 133.5,-86.5 249.5,-86.5 249.5,-67.5 133.5,-67.5"/>
<text text-anchor="middle" x="191.5" y="-74.5" font-family="Helvetica,sans-Serif" font-size="10.00">_odp_abi_ipsec_sa_t</text>
</a>
</g>
</g>
<!-- Node3&#45;&gt;Node1 -->
<g id="edge2" class="edge">
<title>Node3&#45;&gt;Node1</title>
<path fill="none" stroke="#9a32cd" stroke-dasharray="5,2" d="M191.5,-57.04C191.5,-44.67 191.5,-29.12 191.5,-19.63"/>
<polygon fill="#9a32cd" stroke="#9a32cd" points="188,-57.23 191.5,-67.23 195,-57.23 188,-57.23"/>
<text text-anchor="middle" x="199" y="-41" font-family="Helvetica,sans-Serif" font-size="10.00"> sa</text>
</g>
<!-- Node4 -->
<g id="node4" class="node">
<title>Node4</title>
<g id="a_node4"><a xlink:href="structodp__ipsec__op__status__t.html" target="_top" xlink:title="IPSEC operation status.">
<polygon fill="white" stroke="black" points="268,-67.5 268,-86.5 395,-86.5 395,-67.5 268,-67.5"/>
<text text-anchor="middle" x="331.5" y="-74.5" font-family="Helvetica,sans-Serif" font-size="10.00">odp_ipsec_op_status_t</text>
</a>
</g>
</g>
<!-- Node4&#45;&gt;Node1 -->
<g id="edge3" class="edge">
<title>Node4&#45;&gt;Node1</title>
<path fill="none" stroke="#9a32cd" stroke-dasharray="5,2" d="M303.74,-63.11C276.01,-50.24 234.16,-30.81 210.17,-19.67"/>
<polygon fill="#9a32cd" stroke="#9a32cd" points="302.37,-66.33 312.91,-67.37 305.31,-59.98 302.37,-66.33"/>
<text text-anchor="middle" x="287.5" y="-41" font-family="Helvetica,sans-Serif" font-size="10.00"> status</text>
</g>
<!-- Node5 -->
<g id="node5" class="node">
<title>Node5</title>
<g id="a_node5"><a xlink:href="structodp__ipsec__warn__t.html" target="_top" xlink:title="IPSEC warnings.">
<polygon fill="white" stroke="black" points="218.5,-134.5 218.5,-153.5 322.5,-153.5 322.5,-134.5 218.5,-134.5"/>
<text text-anchor="middle" x="270.5" y="-141.5" font-family="Helvetica,sans-Serif" font-size="10.00">odp_ipsec_warn_t</text>
</a>
</g>
</g>
<!-- Node5&#45;&gt;Node4 -->
<g id="edge4" class="edge">
<title>Node5&#45;&gt;Node4</title>
<path fill="none" stroke="#9a32cd" stroke-dasharray="5,2" d="M285.86,-126.63C297.79,-113.92 313.86,-96.8 323.4,-86.63"/>
<polygon fill="#9a32cd" stroke="#9a32cd" points="283.02,-124.55 278.73,-134.23 288.12,-129.34 283.02,-124.55"/>
<text text-anchor="middle" x="319.5" y="-108" font-family="Helvetica,sans-Serif" font-size="10.00"> warn</text>
</g>
<!-- Node6 -->
<g id="node6" class="node">
<title>Node6</title>
<g id="a_node6"><a xlink:href="structodp__ipsec__error__t.html" target="_top" xlink:title="IPSEC errors.">
<polygon fill="white" stroke="black" points="341,-134.5 341,-153.5 444,-153.5 444,-134.5 341,-134.5"/>
<text text-anchor="middle" x="392.5" y="-141.5" font-family="Helvetica,sans-Serif" font-size="10.00">odp_ipsec_error_t</text>
</a>
</g>
</g>
<!-- Node6&#45;&gt;Node4 -->
<g id="edge5" class="edge">
<title>Node6&#45;&gt;Node4</title>
<path fill="none" stroke="#9a32cd" stroke-dasharray="5,2" d="M377.14,-126.63C365.21,-113.92 349.14,-96.8 339.6,-86.63"/>
<polygon fill="#9a32cd" stroke="#9a32cd" points="374.88,-129.34 384.27,-134.23 379.98,-124.55 374.88,-129.34"/>
<text text-anchor="middle" x="379" y="-108" font-family="Helvetica,sans-Serif" font-size="10.00"> error</text>
</g>
</g>
</svg>
