<?xml version="1.0" encoding="UTF-8" standalone="no"?>
<!DOCTYPE svg PUBLIC "-//W3C//DTD SVG 1.1//EN"
 "http://www.w3.org/Graphics/SVG/1.1/DTD/svg11.dtd">
<!-- Generated by graphviz version 2.40.1 (20161225.0304)
 -->
<!-- Title: odp_comp_packet_op_param_t Pages: 1 -->
<svg width="302pt" height="117pt"
 viewBox="0.00 0.00 302.00 117.00" xmlns="http://www.w3.org/2000/svg" xmlns:xlink="http://www.w3.org/1999/xlink">
<g id="graph0" class="graph" transform="scale(1 1) rotate(0) translate(4 113)">
<title>odp_comp_packet_op_param_t</title>
<polygon fill="#ffffff" stroke="transparent" points="-4,4 -4,-113 298,-113 298,4 -4,4"/>
<!-- Node1 -->
<g id="node1" class="node">
<title>Node1</title>
<polygon fill="#bfbfbf" stroke="#000000" points="88.5,-.5 88.5,-30.5 210.5,-30.5 210.5,-.5 88.5,-.5"/>
<text text-anchor="start" x="96.5" y="-18.5" font-family="Helvetica,sans-Serif" font-size="10.00" fill="#000000">odp_comp_packet_op</text>
<text text-anchor="middle" x="149.5" y="-7.5" font-family="Helvetica,sans-Serif" font-size="10.00" fill="#000000">_param_t</text>
</g>
<!-- Node2 -->
<g id="node2" class="node">
<title>Node2</title>
<g id="a_node2"><a xlink:href="struct__odp__abi__comp__session__t.html" target="_top" xlink:title="_odp_abi_comp_session_t">
<polygon fill="#ffffff" stroke="#000000" points="0,-89.5 0,-108.5 143,-108.5 143,-89.5 0,-89.5"/>
<text text-anchor="middle" x="71.5" y="-96.5" font-family="Helvetica,sans-Serif" font-size="10.00" fill="#000000">_odp_abi_comp_session_t</text>
</a>
</g>
</g>
<!-- Node2&#45;&gt;Node1 -->
<g id="edge1" class="edge">
<title>Node2&#45;&gt;Node1</title>
<path fill="none" stroke="#9a32cd" stroke-dasharray="5,2" d="M87.5531,-81.815C101.6395,-66.7353 121.9246,-45.0198 135.3974,-30.597"/>
<polygon fill="#9a32cd" stroke="#9a32cd" points="84.7162,-79.7246 80.4476,-89.4215 89.8316,-84.503 84.7162,-79.7246"/>
<text text-anchor="middle" x="137.5" y="-57.5" font-family="Helvetica,sans-Serif" font-size="10.00" fill="#000000"> session</text>
</g>
<!-- Node3 -->
<g id="node3" class="node">
<title>Node3</title>
<g id="a_node3"><a xlink:href="structodp__packet__data__range.html" target="_top" xlink:title="Packet API data range specifier. ">
<polygon fill="#ffffff" stroke="#000000" points="161,-89.5 161,-108.5 294,-108.5 294,-89.5 161,-89.5"/>
<text text-anchor="middle" x="227.5" y="-96.5" font-family="Helvetica,sans-Serif" font-size="10.00" fill="#000000">odp_packet_data_range</text>
</a>
</g>
</g>
<!-- Node3&#45;&gt;Node1 -->
<g id="edge2" class="edge">
<title>Node3&#45;&gt;Node1</title>
<path fill="none" stroke="#9a32cd" stroke-dasharray="5,2" d="M211.4469,-81.815C197.3605,-66.7353 177.0754,-45.0198 163.6026,-30.597"/>
<polygon fill="#9a32cd" stroke="#9a32cd" points="209.1684,-84.503 218.5524,-89.4215 214.2838,-79.7246 209.1684,-84.503"/>
<text text-anchor="middle" x="237.5" y="-63" font-family="Helvetica,sans-Serif" font-size="10.00" fill="#000000"> in_data_range</text>
<text text-anchor="middle" x="237.5" y="-52" font-family="Helvetica,sans-Serif" font-size="10.00" fill="#000000">out_data_range</text>
</g>
</g>
</svg>
