<?xml version="1.0" encoding="UTF-8" standalone="no"?>
<!DOCTYPE svg PUBLIC "-//W3C//DTD SVG 1.1//EN"
 "http://www.w3.org/Graphics/SVG/1.1/DTD/svg11.dtd">
<!-- Generated by graphviz version 2.43.0 (0)
 -->
<!-- Title: odp_pktio_capability_t Pages: 1 -->
<svg width="636pt" height="313pt"
 viewBox="0.00 0.00 636.00 313.00" xmlns="http://www.w3.org/2000/svg" xmlns:xlink="http://www.w3.org/1999/xlink">
<g id="graph0" class="graph" transform="scale(1 1) rotate(0) translate(4 309)">
<title>odp_pktio_capability_t</title>
<polygon fill="white" stroke="transparent" points="-4,4 -4,-309 632,-309 632,4 -4,4"/>
<!-- Node1 -->
<g id="node1" class="node">
<title>Node1</title>
<g id="a_node1"><a xlink:title="Packet IO capabilities.">
<polygon fill="#bfbfbf" stroke="black" points="501,-171.5 501,-190.5 628,-190.5 628,-171.5 501,-171.5"/>
<text text-anchor="middle" x="564.5" y="-178.5" font-family="Helvetica,sans-Serif" font-size="10.00">odp_pktio_capability_t</text>
</a>
</g>
</g>
<!-- Node2 -->
<g id="node2" class="node">
<title>Node2</title>
<g id="a_node2"><a xlink:href="unionodp__pktio__set__op__t.html" target="_top" xlink:title="Packet IO set operations.">
<polygon fill="white" stroke="black" points="267,-285.5 267,-304.5 378,-304.5 378,-285.5 267,-285.5"/>
<text text-anchor="middle" x="322.5" y="-292.5" font-family="Helvetica,sans-Serif" font-size="10.00">odp_pktio_set_op_t</text>
</a>
</g>
</g>
<!-- Node2&#45;&gt;Node1 -->
<g id="edge1" class="edge">
<title>Node2&#45;&gt;Node1</title>
<path fill="none" stroke="#9a32cd" stroke-dasharray="5,2" d="M388.09,-284.6C418.25,-277.92 453.85,-267.35 483,-251 512.72,-234.33 541.31,-205.46 555.03,-190.54"/>
<polygon fill="#9a32cd" stroke="#9a32cd" points="387.14,-281.22 378.08,-286.72 388.59,-288.07 387.14,-281.22"/>
<text text-anchor="middle" x="452.5" y="-278" font-family="Helvetica,sans-Serif" font-size="10.00"> set_op</text>
</g>
<!-- Node3 -->
<g id="node3" class="node">
<title>Node3</title>
<g id="a_node3"><a xlink:href="structodp__packet__ref__types__t.html" target="_top" xlink:title="Set of packet types that involve packet references.">
<polygon fill="white" stroke="black" points="256.5,-247.5 256.5,-266.5 388.5,-266.5 388.5,-247.5 256.5,-247.5"/>
<text text-anchor="middle" x="322.5" y="-254.5" font-family="Helvetica,sans-Serif" font-size="10.00">odp_packet_ref_types_t</text>
</a>
</g>
</g>
<!-- Node3&#45;&gt;Node1 -->
<g id="edge2" class="edge">
<title>Node3&#45;&gt;Node1</title>
<path fill="none" stroke="#9a32cd" stroke-dasharray="5,2" d="M385.53,-245.38C415.42,-238.99 451.52,-230.08 483,-219 505.45,-211.1 530.02,-198.95 546.04,-190.53"/>
<polygon fill="#9a32cd" stroke="#9a32cd" points="384.72,-241.97 375.65,-247.45 386.16,-248.82 384.72,-241.97"/>
<text text-anchor="middle" x="452.5" y="-239" font-family="Helvetica,sans-Serif" font-size="10.00"> packet_ref</text>
</g>
<!-- Node4 -->
<g id="node4" class="node">
<title>Node4</title>
<g id="a_node4"><a xlink:href="structodp__lso__capability__t.html" target="_top" xlink:title="Large Send Offload (LSO) capabilities.">
<polygon fill="white" stroke="black" points="264.5,-209.5 264.5,-228.5 380.5,-228.5 380.5,-209.5 264.5,-209.5"/>
<text text-anchor="middle" x="322.5" y="-216.5" font-family="Helvetica,sans-Serif" font-size="10.00">odp_lso_capability_t</text>
</a>
</g>
</g>
<!-- Node4&#45;&gt;Node1 -->
<g id="edge3" class="edge">
<title>Node4&#45;&gt;Node1</title>
<path fill="none" stroke="#9a32cd" stroke-dasharray="5,2" d="M391.03,-209.89C419.47,-205.89 452.88,-200.97 483,-196 493.1,-194.33 503.88,-192.42 514.17,-190.52"/>
<polygon fill="#9a32cd" stroke="#9a32cd" points="390.22,-206.47 380.8,-211.32 391.19,-213.4 390.22,-206.47"/>
<text text-anchor="middle" x="452.5" y="-207" font-family="Helvetica,sans-Serif" font-size="10.00"> lso</text>
</g>
<!-- Node5 -->
<g id="node5" class="node">
<title>Node5</title>
<g id="a_node5"><a xlink:href="structodp__pktin__vector__capability__t.html" target="_top" xlink:title="Packet input vector capabilities.">
<polygon fill="white" stroke="black" points="241,-171.5 241,-190.5 404,-190.5 404,-171.5 241,-171.5"/>
<text text-anchor="middle" x="322.5" y="-178.5" font-family="Helvetica,sans-Serif" font-size="10.00">odp_pktin_vector_capability_t</text>
</a>
</g>
</g>
<!-- Node5&#45;&gt;Node1 -->
<g id="edge4" class="edge">
<title>Node5&#45;&gt;Node1</title>
<path fill="none" stroke="#9a32cd" stroke-dasharray="5,2" d="M414.21,-181C443.14,-181 474.49,-181 500.96,-181"/>
<polygon fill="#9a32cd" stroke="#9a32cd" points="414.08,-177.5 404.08,-181 414.08,-184.5 414.08,-177.5"/>
<text text-anchor="middle" x="452.5" y="-184" font-family="Helvetica,sans-Serif" font-size="10.00"> vector</text>
</g>
<!-- Node6 -->
<g id="node6" class="node">
<title>Node6</title>
<g id="a_node6"><a xlink:href="structodp__reass__capability__t.html" target="_top" xlink:title="Reassembly capabilities.">
<polygon fill="white" stroke="black" points="258.5,-133.5 258.5,-152.5 386.5,-152.5 386.5,-133.5 258.5,-133.5"/>
<text text-anchor="middle" x="322.5" y="-140.5" font-family="Helvetica,sans-Serif" font-size="10.00">odp_reass_capability_t</text>
</a>
</g>
</g>
<!-- Node6&#45;&gt;Node1 -->
<g id="edge5" class="edge">
<title>Node6&#45;&gt;Node1</title>
<path fill="none" stroke="#9a32cd" stroke-dasharray="5,2" d="M397.02,-152.96C424.09,-156.8 454.97,-161.37 483,-166 493.1,-167.67 503.88,-169.58 514.17,-171.48"/>
<polygon fill="#9a32cd" stroke="#9a32cd" points="397.24,-149.46 386.85,-151.53 396.27,-156.39 397.24,-149.46"/>
<text text-anchor="middle" x="452.5" y="-169" font-family="Helvetica,sans-Serif" font-size="10.00"> reassembly</text>
</g>
<!-- Node7 -->
<g id="node7" class="node">
<title>Node7</title>
<g id="a_node7"><a xlink:href="structodp__pktio__stats__capability__t.html" target="_top" xlink:title="Packet IO statistics capabilities.">
<polygon fill="white" stroke="black" points="244.5,-95.5 244.5,-114.5 400.5,-114.5 400.5,-95.5 244.5,-95.5"/>
<text text-anchor="middle" x="322.5" y="-102.5" font-family="Helvetica,sans-Serif" font-size="10.00">odp_pktio_stats_capability_t</text>
</a>
</g>
</g>
<!-- Node7&#45;&gt;Node1 -->
<g id="edge6" class="edge">
<title>Node7&#45;&gt;Node1</title>
<path fill="none" stroke="#9a32cd" stroke-dasharray="5,2" d="M388.38,-116.62C417.71,-122.75 452.55,-131.24 483,-142 505.84,-150.07 530.74,-162.79 546.7,-171.49"/>
<polygon fill="#9a32cd" stroke="#9a32cd" points="388.75,-113.13 378.25,-114.56 387.35,-119.99 388.75,-113.13"/>
<text text-anchor="middle" x="452.5" y="-145" font-family="Helvetica,sans-Serif" font-size="10.00"> stats</text>
</g>
<!-- Node8 -->
<g id="node8" class="node">
<title>Node8</title>
<g id="a_node8"><a xlink:href="structodp__pktio__config__t.html" target="_top" xlink:title="Packet IO configuration options.">
<polygon fill="white" stroke="black" points="268.5,-57.5 268.5,-76.5 376.5,-76.5 376.5,-57.5 268.5,-57.5"/>
<text text-anchor="middle" x="322.5" y="-64.5" font-family="Helvetica,sans-Serif" font-size="10.00">odp_pktio_config_t</text>
</a>
</g>
</g>
<!-- Node8&#45;&gt;Node1 -->
<g id="edge7" class="edge">
<title>Node8&#45;&gt;Node1</title>
<path fill="none" stroke="#9a32cd" stroke-dasharray="5,2" d="M386.71,-76.14C417.17,-82.38 453.42,-92.59 483,-109 513.17,-125.74 541.56,-155.61 555.14,-171.09"/>
<polygon fill="#9a32cd" stroke="#9a32cd" points="387.1,-72.65 376.62,-74.18 385.76,-79.52 387.1,-72.65"/>
<text text-anchor="middle" x="452.5" y="-112" font-family="Helvetica,sans-Serif" font-size="10.00"> config</text>
</g>
<!-- Node9 -->
<g id="node9" class="node">
<title>Node9</title>
<g id="a_node9"><a xlink:href="structodp__pktio__parser__config__t.html" target="_top" xlink:title="Parser configuration.">
<polygon fill="white" stroke="black" points="0,-114.5 0,-133.5 144,-133.5 144,-114.5 0,-114.5"/>
<text text-anchor="middle" x="72" y="-121.5" font-family="Helvetica,sans-Serif" font-size="10.00">odp_pktio_parser_config_t</text>
</a>
</g>
</g>
<!-- Node9&#45;&gt;Node8 -->
<g id="edge8" class="edge">
<title>Node9&#45;&gt;Node8</title>
<path fill="none" stroke="#9a32cd" stroke-dasharray="5,2" d="M140.67,-112.51C166.65,-107.45 196.43,-100.85 223,-93 231.23,-90.57 232.8,-88.55 241,-86 252.24,-82.51 264.54,-79.3 276.07,-76.56"/>
<polygon fill="#9a32cd" stroke="#9a32cd" points="139.7,-109.13 130.54,-114.44 141.02,-116 139.7,-109.13"/>
<text text-anchor="middle" x="192.5" y="-110" font-family="Helvetica,sans-Serif" font-size="10.00"> parser</text>
</g>
<!-- Node10 -->
<g id="node10" class="node">
<title>Node10</title>
<g id="a_node10"><a xlink:href="unionodp__pktin__config__opt__t.html" target="_top" xlink:title="Packet input configuration options bit field.">
<polygon fill="white" stroke="black" points="7.5,-76.5 7.5,-95.5 136.5,-95.5 136.5,-76.5 7.5,-76.5"/>
<text text-anchor="middle" x="72" y="-83.5" font-family="Helvetica,sans-Serif" font-size="10.00">odp_pktin_config_opt_t</text>
</a>
</g>
</g>
<!-- Node10&#45;&gt;Node8 -->
<g id="edge9" class="edge">
<title>Node10&#45;&gt;Node8</title>
<path fill="none" stroke="#9a32cd" stroke-dasharray="5,2" d="M146.94,-80.35C186.02,-77.36 233.08,-73.76 268.48,-71.05"/>
<polygon fill="#9a32cd" stroke="#9a32cd" points="146.38,-76.88 136.67,-81.13 146.91,-83.86 146.38,-76.88"/>
<text text-anchor="middle" x="192.5" y="-81" font-family="Helvetica,sans-Serif" font-size="10.00"> pktin</text>
</g>
<!-- Node11 -->
<g id="node11" class="node">
<title>Node11</title>
<g id="a_node11"><a xlink:href="structodp__reass__config__t.html" target="_top" xlink:title="Fragment reassembly configuration.">
<polygon fill="white" stroke="black" points="17,-38.5 17,-57.5 127,-57.5 127,-38.5 17,-38.5"/>
<text text-anchor="middle" x="72" y="-45.5" font-family="Helvetica,sans-Serif" font-size="10.00">odp_reass_config_t</text>
</a>
</g>
</g>
<!-- Node11&#45;&gt;Node8 -->
<g id="edge10" class="edge">
<title>Node11&#45;&gt;Node8</title>
<path fill="none" stroke="#9a32cd" stroke-dasharray="5,2" d="M137.46,-52.62C163.96,-54.54 194.96,-56.83 223,-59 237.71,-60.14 253.65,-61.41 268.34,-62.61"/>
<polygon fill="#9a32cd" stroke="#9a32cd" points="137.39,-49.1 127.16,-51.87 136.88,-56.08 137.39,-49.1"/>
<text text-anchor="middle" x="192.5" y="-62" font-family="Helvetica,sans-Serif" font-size="10.00"> reassembly</text>
</g>
<!-- Node12 -->
<g id="node12" class="node">
<title>Node12</title>
<g id="a_node12"><a xlink:href="unionodp__pktout__config__opt__t.html" target="_top" xlink:title="Packet output configuration options bit field.">
<polygon fill="white" stroke="black" points="4,-0.5 4,-19.5 140,-19.5 140,-0.5 4,-0.5"/>
<text text-anchor="middle" x="72" y="-7.5" font-family="Helvetica,sans-Serif" font-size="10.00">odp_pktout_config_opt_t</text>
</a>
</g>
</g>
<!-- Node12&#45;&gt;Node8 -->
<g id="edge11" class="edge">
<title>Node12&#45;&gt;Node8</title>
<path fill="none" stroke="#9a32cd" stroke-dasharray="5,2" d="M138.35,-21.37C164.75,-26.29 195.43,-32.43 223,-39 245.83,-44.44 271.3,-51.71 290.63,-57.49"/>
<polygon fill="#9a32cd" stroke="#9a32cd" points="138.92,-17.92 128.45,-19.55 137.65,-24.8 138.92,-17.92"/>
<text text-anchor="middle" x="192.5" y="-42" font-family="Helvetica,sans-Serif" font-size="10.00"> pktout</text>
</g>
</g>
</svg>
