<?xml version="1.0" encoding="UTF-8" standalone="no"?>
<!DOCTYPE svg PUBLIC "-//W3C//DTD SVG 1.1//EN"
 "http://www.w3.org/Graphics/SVG/1.1/DTD/svg11.dtd">
<!-- Generated by graphviz version 2.43.0 (0)
 -->
<!-- Title: odp_timer_periodic_capability_t Pages: 1 -->
<svg width="131pt" height="106pt"
 viewBox="0.00 0.00 131.00 106.00" xmlns="http://www.w3.org/2000/svg" xmlns:xlink="http://www.w3.org/1999/xlink">
<g id="graph0" class="graph" transform="scale(1 1) rotate(0) translate(4 102)">
<title>odp_timer_periodic_capability_t</title>
<polygon fill="white" stroke="transparent" points="-4,4 -4,-102 127,-102 127,4 -4,4"/>
<!-- Node1 -->
<g id="node1" class="node">
<title>Node1</title>
<g id="a_node1"><a xlink:title="Periodic timer capability.">
<polygon fill="#bfbfbf" stroke="black" points="0,-0.5 0,-30.5 110,-30.5 110,-0.5 0,-0.5"/>
<text text-anchor="start" x="8" y="-18.5" font-family="Helvetica,sans-Serif" font-size="10.00">odp_timer_periodic</text>
<text text-anchor="middle" x="55" y="-7.5" font-family="Helvetica,sans-Serif" font-size="10.00">_capability_t</text>
</a>
</g>
</g>
<!-- Node2 -->
<g id="node2" class="node">
<title>Node2</title>
<g id="a_node2"><a xlink:href="structodp__fract__u64__t.html" target="_top" xlink:title="Unsigned 64 bit fractional number.">
<polygon fill="white" stroke="black" points="7.5,-78.5 7.5,-97.5 102.5,-97.5 102.5,-78.5 7.5,-78.5"/>
<text text-anchor="middle" x="55" y="-85.5" font-family="Helvetica,sans-Serif" font-size="10.00">odp_fract_u64_t</text>
</a>
</g>
</g>
<!-- Node2&#45;&gt;Node1 -->
<g id="edge1" class="edge">
<title>Node2&#45;&gt;Node1</title>
<path fill="none" stroke="#9a32cd" stroke-dasharray="5,2" d="M55,-68.24C55,-56.41 55,-41.38 55,-30.58"/>
<polygon fill="#9a32cd" stroke="#9a32cd" points="51.5,-68.36 55,-78.36 58.5,-68.36 51.5,-68.36"/>
<text text-anchor="middle" x="89" y="-52" font-family="Helvetica,sans-Serif" font-size="10.00"> base_freq_hz</text>
</g>
</g>
</svg>
