<?xml version="1.0" encoding="UTF-8" standalone="no"?>
<!DOCTYPE svg PUBLIC "-//W3C//DTD SVG 1.1//EN"
 "http://www.w3.org/Graphics/SVG/1.1/DTD/svg11.dtd">
<!-- Generated by graphviz version 2.43.0 (0)
 -->
<!-- Title: odp_timer_tick_info_t Pages: 1 -->
<svg width="130pt" height="117pt"
 viewBox="0.00 0.00 130.00 117.00" xmlns="http://www.w3.org/2000/svg" xmlns:xlink="http://www.w3.org/1999/xlink">
<g id="graph0" class="graph" transform="scale(1 1) rotate(0) translate(4 113)">
<title>odp_timer_tick_info_t</title>
<polygon fill="white" stroke="transparent" points="-4,4 -4,-113 126,-113 126,4 -4,4"/>
<!-- Node1 -->
<g id="node1" class="node">
<title>Node1</title>
<g id="a_node1"><a xlink:title="Timer tick information.">
<polygon fill="#bfbfbf" stroke="black" points="0,-0.5 0,-19.5 122,-19.5 122,-0.5 0,-0.5"/>
<text text-anchor="middle" x="61" y="-7.5" font-family="Helvetica,sans-Serif" font-size="10.00">odp_timer_tick_info_t</text>
</a>
</g>
</g>
<!-- Node2 -->
<g id="node2" class="node">
<title>Node2</title>
<g id="a_node2"><a xlink:href="structodp__fract__u64__t.html" target="_top" xlink:title="Unsigned 64 bit fractional number.">
<polygon fill="white" stroke="black" points="13.5,-89.5 13.5,-108.5 108.5,-108.5 108.5,-89.5 13.5,-89.5"/>
<text text-anchor="middle" x="61" y="-96.5" font-family="Helvetica,sans-Serif" font-size="10.00">odp_fract_u64_t</text>
</a>
</g>
</g>
<!-- Node2&#45;&gt;Node1 -->
<g id="edge1" class="edge">
<title>Node2&#45;&gt;Node1</title>
<path fill="none" stroke="#9a32cd" stroke-dasharray="5,2" d="M61,-79.19C61,-60.74 61,-33.41 61,-19.62"/>
<polygon fill="#9a32cd" stroke="#9a32cd" points="57.5,-79.34 61,-89.34 64.5,-79.34 57.5,-79.34"/>
<text text-anchor="middle" x="85.5" y="-63" font-family="Helvetica,sans-Serif" font-size="10.00"> clk_cycle</text>
<text text-anchor="middle" x="85.5" y="-52" font-family="Helvetica,sans-Serif" font-size="10.00">freq</text>
<text text-anchor="middle" x="85.5" y="-41" font-family="Helvetica,sans-Serif" font-size="10.00">nsec</text>
</g>
</g>
</svg>
