<?xml version="1.0" encoding="UTF-8" standalone="no"?>
<!DOCTYPE svg PUBLIC "-//W3C//DTD SVG 1.1//EN"
 "http://www.w3.org/Graphics/SVG/1.1/DTD/svg11.dtd">
<!-- Generated by graphviz version 2.43.0 (0)
 -->
<!-- Title: odp_queue_param_t Pages: 1 -->
<svg width="294pt" height="159pt"
 viewBox="0.00 0.00 293.50 159.00" xmlns="http://www.w3.org/2000/svg" xmlns:xlink="http://www.w3.org/1999/xlink">
<g id="graph0" class="graph" transform="scale(1 1) rotate(0) translate(4 155)">
<title>odp_queue_param_t</title>
<!-- Node1 -->
<g id="Node000001" class="node">
<title>Node1</title>
<g id="a_Node000001"><a xlink:title="ODP Queue parameters.">
<polygon fill="#999999" stroke="#666666" points="149.5,-19 33.5,-19 33.5,0 149.5,0 149.5,-19"/>
<text text-anchor="middle" x="91.5" y="-7" font-family="Helvetica,sans-Serif" font-size="10.00">odp_queue_param_t</text>
</a>
</g>
</g>
<!-- Node2 -->
<g id="Node000002" class="node">
<title>Node2</title>
<g id="a_Node000002"><a xlink:href="structodp__schedule__param__t.html" target="_top" xlink:title="Scheduler parameters.">
<polygon fill="white" stroke="#666666" points="129,-85 0,-85 0,-66 129,-66 129,-85"/>
<text text-anchor="middle" x="64.5" y="-73" font-family="Helvetica,sans-Serif" font-size="10.00">odp_schedule_param_t</text>
</a>
</g>
</g>
<!-- Node2&#45;&gt;Node1 -->
<g id="edge1_Node000001_Node000002" class="edge">
<title>Node2&#45;&gt;Node1</title>
<g id="a_edge1_Node000001_Node000002"><a xlink:title=" ">
<path fill="none" stroke="#9a32cd" stroke-dasharray="5,2" d="M72.17,-56.32C77.27,-44.24 83.73,-28.91 87.74,-19.41"/>
<polygon fill="#9a32cd" stroke="#9a32cd" points="68.8,-55.29 68.14,-65.87 75.25,-58.02 68.8,-55.29"/>
</a>
</g>
<text text-anchor="middle" x="96.5" y="-40" font-family="Helvetica,sans-Serif" font-size="10.00" fill="grey"> sched</text>
</g>
<!-- Node3 -->
<g id="Node000003" class="node">
<title>Node3</title>
<g id="a_Node000003"><a xlink:href="structodp__event__aggr__config__t.html" target="_top" xlink:title="Event vector configuration.">
<polygon fill="white" stroke="#666666" points="285.5,-85 147.5,-85 147.5,-66 285.5,-66 285.5,-85"/>
<text text-anchor="middle" x="216.5" y="-73" font-family="Helvetica,sans-Serif" font-size="10.00">odp_event_aggr_config_t</text>
</a>
</g>
</g>
<!-- Node3&#45;&gt;Node1 -->
<g id="edge2_Node000001_Node000003" class="edge">
<title>Node3&#45;&gt;Node1</title>
<g id="a_edge2_Node000001_Node000003"><a xlink:title=" ">
<path fill="none" stroke="#9a32cd" stroke-dasharray="5,2" d="M190.51,-61.19C165.89,-48.59 129.61,-30.01 108.49,-19.2"/>
<polygon fill="#9a32cd" stroke="#9a32cd" points="189.15,-64.43 199.64,-65.87 192.34,-58.2 189.15,-64.43"/>
</a>
</g>
<text text-anchor="middle" x="173" y="-40" font-family="Helvetica,sans-Serif" font-size="10.00" fill="grey"> aggr</text>
</g>
<!-- Node4 -->
<g id="Node000004" class="node">
<title>Node4</title>
<g id="a_Node000004"><a xlink:href="struct__odp__abi__pool__t.html" target="_top" xlink:title=" ">
<polygon fill="white" stroke="#666666" points="264,-151 169,-151 169,-132 264,-132 264,-151"/>
<text text-anchor="middle" x="216.5" y="-139" font-family="Helvetica,sans-Serif" font-size="10.00">_odp_abi_pool_t</text>
</a>
</g>
</g>
<!-- Node4&#45;&gt;Node3 -->
<g id="edge3_Node000003_Node000004" class="edge">
<title>Node4&#45;&gt;Node3</title>
<g id="a_edge3_Node000003_Node000004"><a xlink:title=" ">
<path fill="none" stroke="#9a32cd" stroke-dasharray="5,2" d="M216.5,-121.58C216.5,-109.63 216.5,-94.72 216.5,-85.41"/>
<polygon fill="#9a32cd" stroke="#9a32cd" points="213,-121.87 216.5,-131.87 220,-121.87 213,-121.87"/>
</a>
</g>
<text text-anchor="middle" x="229" y="-106" font-family="Helvetica,sans-Serif" font-size="10.00" fill="grey"> pool</text>
</g>
</g>
</svg>
