<?xml version="1.0" encoding="UTF-8" standalone="no"?>
<!DOCTYPE svg PUBLIC "-//W3C//DTD SVG 1.1//EN"
 "http://www.w3.org/Graphics/SVG/1.1/DTD/svg11.dtd">
<!-- Generated by graphviz version 2.43.0 (0)
 -->
<!-- Title: odp_queue_info_t Pages: 1 -->
<svg width="294pt" height="229pt"
 viewBox="0.00 0.00 293.50 229.00" xmlns="http://www.w3.org/2000/svg" xmlns:xlink="http://www.w3.org/1999/xlink">
<g id="graph0" class="graph" transform="scale(1 1) rotate(0) translate(4 225)">
<title>odp_queue_info_t</title>
<polygon fill="white" stroke="transparent" points="-4,4 -4,-225 289.5,-225 289.5,4 -4,4"/>
<!-- Node1 -->
<g id="node1" class="node">
<title>Node1</title>
<g id="a_node1"><a xlink:title="Queue information Retrieve information about a queue with odp_queue_info()">
<polygon fill="#bfbfbf" stroke="black" points="93.5,-0.5 93.5,-19.5 196.5,-19.5 196.5,-0.5 93.5,-0.5"/>
<text text-anchor="middle" x="145" y="-7.5" font-family="Helvetica,sans-Serif" font-size="10.00">odp_queue_info_t</text>
</a>
</g>
</g>
<!-- Node2 -->
<g id="node2" class="node">
<title>Node2</title>
<g id="a_node2"><a xlink:href="structodp__queue__param__t.html" target="_top" xlink:title="ODP Queue parameters.">
<polygon fill="white" stroke="black" points="87,-67.5 87,-86.5 203,-86.5 203,-67.5 87,-67.5"/>
<text text-anchor="middle" x="145" y="-74.5" font-family="Helvetica,sans-Serif" font-size="10.00">odp_queue_param_t</text>
</a>
</g>
</g>
<!-- Node2&#45;&gt;Node1 -->
<g id="edge1" class="edge">
<title>Node2&#45;&gt;Node1</title>
<path fill="none" stroke="#9a32cd" stroke-dasharray="5,2" d="M145,-57.04C145,-44.67 145,-29.12 145,-19.63"/>
<polygon fill="#9a32cd" stroke="#9a32cd" points="141.5,-57.23 145,-67.23 148.5,-57.23 141.5,-57.23"/>
<text text-anchor="middle" x="162.5" y="-41" font-family="Helvetica,sans-Serif" font-size="10.00"> param</text>
</g>
<!-- Node3 -->
<g id="node3" class="node">
<title>Node3</title>
<g id="a_node3"><a xlink:href="structodp__event__aggr__config__t.html" target="_top" xlink:title="Event vector configuration.">
<polygon fill="white" stroke="black" points="0,-134.5 0,-153.5 138,-153.5 138,-134.5 0,-134.5"/>
<text text-anchor="middle" x="69" y="-141.5" font-family="Helvetica,sans-Serif" font-size="10.00">odp_event_aggr_config_t</text>
</a>
</g>
</g>
<!-- Node3&#45;&gt;Node2 -->
<g id="edge2" class="edge">
<title>Node3&#45;&gt;Node2</title>
<path fill="none" stroke="#9a32cd" stroke-dasharray="5,2" d="M86.87,-127.71C101.85,-114.91 122.68,-97.09 134.91,-86.63"/>
<polygon fill="#9a32cd" stroke="#9a32cd" points="84.57,-125.07 79.25,-134.23 89.12,-130.39 84.57,-125.07"/>
<text text-anchor="middle" x="124.5" y="-108" font-family="Helvetica,sans-Serif" font-size="10.00"> aggr</text>
</g>
<!-- Node4 -->
<g id="node4" class="node">
<title>Node4</title>
<g id="a_node4"><a xlink:href="struct__odp__abi__pool__t.html" target="_top" xlink:title=" ">
<polygon fill="white" stroke="black" points="21.5,-201.5 21.5,-220.5 116.5,-220.5 116.5,-201.5 21.5,-201.5"/>
<text text-anchor="middle" x="69" y="-208.5" font-family="Helvetica,sans-Serif" font-size="10.00">_odp_abi_pool_t</text>
</a>
</g>
</g>
<!-- Node4&#45;&gt;Node3 -->
<g id="edge3" class="edge">
<title>Node4&#45;&gt;Node3</title>
<path fill="none" stroke="#9a32cd" stroke-dasharray="5,2" d="M69,-191.04C69,-178.67 69,-163.12 69,-153.63"/>
<polygon fill="#9a32cd" stroke="#9a32cd" points="65.5,-191.23 69,-201.23 72.5,-191.23 65.5,-191.23"/>
<text text-anchor="middle" x="81.5" y="-175" font-family="Helvetica,sans-Serif" font-size="10.00"> pool</text>
</g>
<!-- Node5 -->
<g id="node5" class="node">
<title>Node5</title>
<g id="a_node5"><a xlink:href="structodp__schedule__param__t.html" target="_top" xlink:title="Scheduler parameters.">
<polygon fill="white" stroke="black" points="156.5,-134.5 156.5,-153.5 285.5,-153.5 285.5,-134.5 156.5,-134.5"/>
<text text-anchor="middle" x="221" y="-141.5" font-family="Helvetica,sans-Serif" font-size="10.00">odp_schedule_param_t</text>
</a>
</g>
</g>
<!-- Node5&#45;&gt;Node2 -->
<g id="edge4" class="edge">
<title>Node5&#45;&gt;Node2</title>
<path fill="none" stroke="#9a32cd" stroke-dasharray="5,2" d="M203.13,-127.71C188.15,-114.91 167.32,-97.09 155.09,-86.63"/>
<polygon fill="#9a32cd" stroke="#9a32cd" points="200.88,-130.39 210.75,-134.23 205.43,-125.07 200.88,-130.39"/>
<text text-anchor="middle" x="203" y="-108" font-family="Helvetica,sans-Serif" font-size="10.00"> sched</text>
</g>
</g>
</svg>
