<?xml version="1.0" encoding="UTF-8" standalone="no"?>
<!DOCTYPE svg PUBLIC "-//W3C//DTD SVG 1.1//EN"
 "http://www.w3.org/Graphics/SVG/1.1/DTD/svg11.dtd">
<!-- Generated by graphviz version 2.40.1 (20161225.0304)
 -->
<!-- Title: odp_ipsec_sa_info_t Pages: 1 -->
<svg width="826pt" height="237pt"
 viewBox="0.00 0.00 826.00 237.00" xmlns="http://www.w3.org/2000/svg" xmlns:xlink="http://www.w3.org/1999/xlink">
<g id="graph0" class="graph" transform="scale(1 1) rotate(0) translate(4 233)">
<title>odp_ipsec_sa_info_t</title>
<polygon fill="#ffffff" stroke="transparent" points="-4,4 -4,-233 822,-233 822,4 -4,4"/>
<!-- Node1 -->
<g id="node1" class="node">
<title>Node1</title>
<polygon fill="#bfbfbf" stroke="#000000" points="703,-116.5 703,-135.5 818,-135.5 818,-116.5 703,-116.5"/>
<text text-anchor="middle" x="760.5" y="-123.5" font-family="Helvetica,sans-Serif" font-size="10.00" fill="#000000">odp_ipsec_sa_info_t</text>
</g>
<!-- Node2 -->
<g id="node2" class="node">
<title>Node2</title>
<g id="a_node2"><a xlink:href="structodp__ipsec__sa__param__t.html" target="_top" xlink:title="IPSEC Security Association (SA) parameters. ">
<polygon fill="#ffffff" stroke="#000000" points="504,-116.5 504,-135.5 632,-135.5 632,-116.5 504,-116.5"/>
<text text-anchor="middle" x="568" y="-123.5" font-family="Helvetica,sans-Serif" font-size="10.00" fill="#000000">odp_ipsec_sa_param_t</text>
</a>
</g>
</g>
<!-- Node2&#45;&gt;Node1 -->
<g id="edge1" class="edge">
<title>Node2&#45;&gt;Node1</title>
<path fill="none" stroke="#9a32cd" stroke-dasharray="5,2" d="M642.1642,-126C662.287,-126 683.7713,-126 702.8354,-126"/>
<polygon fill="#9a32cd" stroke="#9a32cd" points="642.0997,-122.5001 632.0997,-126 642.0997,-129.5001 642.0997,-122.5001"/>
<text text-anchor="middle" x="667.5" y="-129" font-family="Helvetica,sans-Serif" font-size="10.00" fill="#000000"> param</text>
</g>
<!-- Node3 -->
<g id="node3" class="node">
<title>Node3</title>
<g id="a_node3"><a xlink:href="struct__odp__abi__cos__t.html" target="_top" xlink:title="_odp_abi_cos_t">
<polygon fill="#ffffff" stroke="#000000" points="289,-209.5 289,-228.5 380,-228.5 380,-209.5 289,-209.5"/>
<text text-anchor="middle" x="334.5" y="-216.5" font-family="Helvetica,sans-Serif" font-size="10.00" fill="#000000">_odp_abi_cos_t</text>
</a>
</g>
</g>
<!-- Node3&#45;&gt;Node2 -->
<g id="edge2" class="edge">
<title>Node3&#45;&gt;Node2</title>
<path fill="none" stroke="#9a32cd" stroke-dasharray="5,2" d="M381.6316,-206.8911C390.4006,-204.6169 399.4816,-202.2477 408,-200 442.713,-190.8406 453.1957,-193.5865 486,-179 512.6406,-167.1542 540.499,-147.3012 555.9128,-135.548"/>
<polygon fill="#9a32cd" stroke="#9a32cd" points="380.7145,-203.513 371.9102,-209.4066 382.4682,-210.2898 380.7145,-203.513"/>
<text text-anchor="middle" x="456" y="-198" font-family="Helvetica,sans-Serif" font-size="10.00" fill="#000000"> dest_cos</text>
</g>
<!-- Node4 -->
<g id="node4" class="node">
<title>Node4</title>
<g id="a_node4"><a xlink:href="structodp__ipsec__lifetime__t.html" target="_top" xlink:title="IPSEC SA lifetime limits. ">
<polygon fill="#ffffff" stroke="#000000" points="275.5,-171.5 275.5,-190.5 393.5,-190.5 393.5,-171.5 275.5,-171.5"/>
<text text-anchor="middle" x="334.5" y="-178.5" font-family="Helvetica,sans-Serif" font-size="10.00" fill="#000000">odp_ipsec_lifetime_t</text>
</a>
</g>
</g>
<!-- Node4&#45;&gt;Node2 -->
<g id="edge3" class="edge">
<title>Node4&#45;&gt;Node2</title>
<path fill="none" stroke="#9a32cd" stroke-dasharray="5,2" d="M399.5619,-169.6011C426.4551,-164.5052 457.8652,-158.0555 486,-151 503.9007,-146.5109 523.6988,-140.5052 539.3565,-135.5052"/>
<polygon fill="#9a32cd" stroke="#9a32cd" points="398.6773,-166.2058 389.4922,-171.4863 399.9655,-173.0863 398.6773,-166.2058"/>
<text text-anchor="middle" x="456" y="-167" font-family="Helvetica,sans-Serif" font-size="10.00" fill="#000000"> lifetime</text>
</g>
<!-- Node5 -->
<g id="node5" class="node">
<title>Node5</title>
<g id="a_node5"><a xlink:href="struct__odp__abi__queue__t.html" target="_top" xlink:title="_odp_abi_queue_t">
<polygon fill="#ffffff" stroke="#000000" points="282.5,-133.5 282.5,-152.5 386.5,-152.5 386.5,-133.5 282.5,-133.5"/>
<text text-anchor="middle" x="334.5" y="-140.5" font-family="Helvetica,sans-Serif" font-size="10.00" fill="#000000">_odp_abi_queue_t</text>
</a>
</g>
</g>
<!-- Node5&#45;&gt;Node2 -->
<g id="edge4" class="edge">
<title>Node5&#45;&gt;Node2</title>
<path fill="none" stroke="#9a32cd" stroke-dasharray="5,2" d="M396.6409,-138.4758C429.796,-136.062 470.5355,-133.0959 503.972,-130.6616"/>
<polygon fill="#9a32cd" stroke="#9a32cd" points="396.3308,-134.989 386.6113,-139.206 396.8391,-141.9706 396.3308,-134.989"/>
<text text-anchor="middle" x="456" y="-139" font-family="Helvetica,sans-Serif" font-size="10.00" fill="#000000"> dest_queue</text>
</g>
<!-- Node6 -->
<g id="node6" class="node">
<title>Node6</title>
<g id="a_node6"><a xlink:href="structodp__ipsec__crypto__param__t.html" target="_top" xlink:title="IPSEC crypto parameters. ">
<polygon fill="#ffffff" stroke="#000000" points="261,-95.5 261,-114.5 408,-114.5 408,-95.5 261,-95.5"/>
<text text-anchor="middle" x="334.5" y="-102.5" font-family="Helvetica,sans-Serif" font-size="10.00" fill="#000000">odp_ipsec_crypto_param_t</text>
</a>
</g>
</g>
<!-- Node6&#45;&gt;Node2 -->
<g id="edge5" class="edge">
<title>Node6&#45;&gt;Node2</title>
<path fill="none" stroke="#9a32cd" stroke-dasharray="5,2" d="M418.1621,-110.3396C440.2416,-111.9498 464.0351,-113.8646 486,-116 491.7097,-116.5551 497.6371,-117.1809 503.5747,-117.8417"/>
<polygon fill="#9a32cd" stroke="#9a32cd" points="418.3756,-106.846 408.1508,-109.6216 417.8748,-113.8281 418.3756,-106.846"/>
<text text-anchor="middle" x="456" y="-119" font-family="Helvetica,sans-Serif" font-size="10.00" fill="#000000"> crypto</text>
</g>
<!-- Node7 -->
<g id="node7" class="node">
<title>Node7</title>
<g id="a_node7"><a xlink:href="structodp__crypto__key.html" target="_top" xlink:title="Crypto API key structure. ">
<polygon fill="#ffffff" stroke="#000000" points="21.5,-95.5 21.5,-114.5 115.5,-114.5 115.5,-95.5 21.5,-95.5"/>
<text text-anchor="middle" x="68.5" y="-102.5" font-family="Helvetica,sans-Serif" font-size="10.00" fill="#000000">odp_crypto_key</text>
</a>
</g>
</g>
<!-- Node7&#45;&gt;Node6 -->
<g id="edge6" class="edge">
<title>Node7&#45;&gt;Node6</title>
<path fill="none" stroke="#9a32cd" stroke-dasharray="5,2" d="M125.7502,-105C165.2725,-105 218.183,-105 260.8453,-105"/>
<polygon fill="#9a32cd" stroke="#9a32cd" points="125.749,-101.5001 115.749,-105 125.7489,-108.5001 125.749,-101.5001"/>
<text text-anchor="middle" x="199" y="-141" font-family="Helvetica,sans-Serif" font-size="10.00" fill="#000000"> cipher_key_extra</text>
<text text-anchor="middle" x="199" y="-130" font-family="Helvetica,sans-Serif" font-size="10.00" fill="#000000">auth_key</text>
<text text-anchor="middle" x="199" y="-119" font-family="Helvetica,sans-Serif" font-size="10.00" fill="#000000">cipher_key</text>
<text text-anchor="middle" x="199" y="-108" font-family="Helvetica,sans-Serif" font-size="10.00" fill="#000000">auth_key_extra</text>
</g>
<!-- Node8 -->
<g id="node8" class="node">
<title>Node8</title>
<g id="a_node8"><a xlink:href="structodp__ipsec__sa__opt__t.html" target="_top" xlink:title="IPSEC SA option flags. ">
<polygon fill="#ffffff" stroke="#000000" points="278.5,-57.5 278.5,-76.5 390.5,-76.5 390.5,-57.5 278.5,-57.5"/>
<text text-anchor="middle" x="334.5" y="-64.5" font-family="Helvetica,sans-Serif" font-size="10.00" fill="#000000">odp_ipsec_sa_opt_t</text>
</a>
</g>
</g>
<!-- Node8&#45;&gt;Node2 -->
<g id="edge7" class="edge">
<title>Node8&#45;&gt;Node2</title>
<path fill="none" stroke="#9a32cd" stroke-dasharray="5,2" d="M400.7708,-77.291C427.4729,-82.0569 458.4222,-88.3697 486,-96 506.3079,-101.6189 528.7376,-109.9804 544.9978,-116.4498"/>
<polygon fill="#9a32cd" stroke="#9a32cd" points="401.2142,-73.8155 390.7608,-75.5407 400.0085,-80.7109 401.2142,-73.8155"/>
<text text-anchor="middle" x="456" y="-99" font-family="Helvetica,sans-Serif" font-size="10.00" fill="#000000"> opt</text>
</g>
<!-- Node9 -->
<g id="node9" class="node">
<title>Node9</title>
<g id="a_node9"><a xlink:href="structodp__ipsec__tunnel__param__t.html" target="_top" xlink:title="IPSEC tunnel parameters. ">
<polygon fill="#ffffff" stroke="#000000" points="261,-19.5 261,-38.5 408,-38.5 408,-19.5 261,-19.5"/>
<text text-anchor="middle" x="334.5" y="-26.5" font-family="Helvetica,sans-Serif" font-size="10.00" fill="#000000">odp_ipsec_tunnel_param_t</text>
</a>
</g>
</g>
<!-- Node9&#45;&gt;Node2 -->
<g id="edge8" class="edge">
<title>Node9&#45;&gt;Node2</title>
<path fill="none" stroke="#9a32cd" stroke-dasharray="5,2" d="M404.1089,-40.6871C430.5137,-46.5931 460.3751,-55.1009 486,-67 513.996,-80.0001 542.2553,-103.0118 557.1834,-116.1246"/>
<polygon fill="#9a32cd" stroke="#9a32cd" points="404.6868,-37.2314 394.1742,-38.5493 403.2141,-44.0747 404.6868,-37.2314"/>
<text text-anchor="middle" x="456" y="-70" font-family="Helvetica,sans-Serif" font-size="10.00" fill="#000000"> tunnel</text>
</g>
<!-- Node10 -->
<g id="node10" class="node">
<title>Node10</title>
<g id="a_node10"><a xlink:href="structodp__ipsec__ipv4__param__t.html" target="_top" xlink:title="IPv4 header parameters. ">
<polygon fill="#ffffff" stroke="#000000" points="0,-38.5 0,-57.5 137,-57.5 137,-38.5 0,-38.5"/>
<text text-anchor="middle" x="68.5" y="-45.5" font-family="Helvetica,sans-Serif" font-size="10.00" fill="#000000">odp_ipsec_ipv4_param_t</text>
</a>
</g>
</g>
<!-- Node10&#45;&gt;Node9 -->
<g id="edge9" class="edge">
<title>Node10&#45;&gt;Node9</title>
<path fill="none" stroke="#9a32cd" stroke-dasharray="5,2" d="M147.4182,-42.363C183.2598,-39.8029 225.417,-36.7916 260.6305,-34.2764"/>
<polygon fill="#9a32cd" stroke="#9a32cd" points="146.7268,-38.9034 137.0016,-43.107 147.2256,-45.8856 146.7268,-38.9034"/>
<text text-anchor="middle" x="199" y="-44" font-family="Helvetica,sans-Serif" font-size="10.00" fill="#000000"> ipv4</text>
</g>
<!-- Node11 -->
<g id="node11" class="node">
<title>Node11</title>
<g id="a_node11"><a xlink:href="structodp__ipsec__ipv6__param__t.html" target="_top" xlink:title="IPv6 header parameters. ">
<polygon fill="#ffffff" stroke="#000000" points="0,-.5 0,-19.5 137,-19.5 137,-.5 0,-.5"/>
<text text-anchor="middle" x="68.5" y="-7.5" font-family="Helvetica,sans-Serif" font-size="10.00" fill="#000000">odp_ipsec_ipv6_param_t</text>
</a>
</g>
</g>
<!-- Node11&#45;&gt;Node9 -->
<g id="edge10" class="edge">
<title>Node11&#45;&gt;Node9</title>
<path fill="none" stroke="#9a32cd" stroke-dasharray="5,2" d="M147.7073,-13.8545C177.5906,-15.4886 211.878,-17.5787 243,-20 248.729,-20.4457 254.6562,-20.9441 260.6125,-21.4714"/>
<polygon fill="#9a32cd" stroke="#9a32cd" points="147.5071,-10.3387 137.3333,-13.2957 147.1305,-17.3286 147.5071,-10.3387"/>
<text text-anchor="middle" x="199" y="-23" font-family="Helvetica,sans-Serif" font-size="10.00" fill="#000000"> ipv6</text>
</g>
</g>
</svg>
