<?xml version="1.0" encoding="UTF-8" standalone="no"?>
<!DOCTYPE svg PUBLIC "-//W3C//DTD SVG 1.1//EN"
 "http://www.w3.org/Graphics/SVG/1.1/DTD/svg11.dtd">
<!-- Generated by graphviz version 2.43.0 (0)
 -->
<!-- Title: odp_init_t Pages: 1 -->
<svg width="206pt" height="104pt"
 viewBox="0.00 0.00 205.50 104.00" xmlns="http://www.w3.org/2000/svg" xmlns:xlink="http://www.w3.org/1999/xlink">
<g id="graph0" class="graph" transform="scale(1 1) rotate(0) translate(4 100)">
<title>odp_init_t</title>
<!-- Node1 -->
<g id="Node000001" class="node">
<title>Node1</title>
<g id="a_Node000001"><a xlink:title="Global initialization parameters.">
<polygon fill="#999999" stroke="#666666" points="134,-19 69,-19 69,0 134,0 134,-19"/>
<text text-anchor="middle" x="101.5" y="-7" font-family="Helvetica,sans-Serif" font-size="10.00">odp_init_t</text>
</a>
</g>
</g>
<!-- Node2 -->
<g id="Node000002" class="node">
<title>Node2</title>
<g id="a_Node000002"><a xlink:href="structodp__cpumask__s.html" target="_top" xlink:title=" ">
<polygon fill="white" stroke="#666666" points="95,-96 0,-96 0,-77 95,-77 95,-96"/>
<text text-anchor="middle" x="47.5" y="-84" font-family="Helvetica,sans-Serif" font-size="10.00">odp_cpumask_s</text>
</a>
</g>
</g>
<!-- Node2&#45;&gt;Node1 -->
<g id="edge1_Node000001_Node000002" class="edge">
<title>Node2&#45;&gt;Node1</title>
<g id="a_edge1_Node000001_Node000002"><a xlink:title=" ">
<path fill="none" stroke="#9a32cd" stroke-dasharray="5,2" d="M53.03,-67.22C56.5,-57.62 61.63,-46.01 68.5,-37 73.85,-29.99 81.43,-23.73 87.98,-19.05"/>
<polygon fill="#9a32cd" stroke="#9a32cd" points="49.63,-66.36 49.82,-76.96 56.27,-68.56 49.63,-66.36"/>
</a>
</g>
<text text-anchor="middle" x="101" y="-51" font-family="Helvetica,sans-Serif" font-size="10.00" fill="grey"> control_cpus</text>
<text text-anchor="middle" x="101" y="-40" font-family="Helvetica,sans-Serif" font-size="10.00" fill="grey">worker_cpus</text>
</g>
<!-- Node3 -->
<g id="Node000003" class="node">
<title>Node3</title>
<g id="a_Node000003"><a xlink:href="unionodp__feature__t.html" target="_top" xlink:title="Definition of ODP features.">
<polygon fill="white" stroke="#666666" points="197.5,-96 113.5,-96 113.5,-77 197.5,-77 197.5,-96"/>
<text text-anchor="middle" x="155.5" y="-84" font-family="Helvetica,sans-Serif" font-size="10.00">odp_feature_t</text>
</a>
</g>
</g>
<!-- Node3&#45;&gt;Node1 -->
<g id="edge2_Node000001_Node000003" class="edge">
<title>Node3&#45;&gt;Node1</title>
<g id="a_edge2_Node000001_Node000003"><a xlink:title=" ">
<path fill="none" stroke="#9a32cd" stroke-dasharray="5,2" d="M149.49,-67.27C145.8,-57.68 140.43,-46.07 133.5,-37 128.24,-30.12 120.88,-23.87 114.55,-19.17"/>
<polygon fill="#9a32cd" stroke="#9a32cd" points="146.3,-68.74 152.95,-76.99 152.9,-66.39 146.3,-68.74"/>
</a>
</g>
<text text-anchor="middle" x="169.5" y="-45.5" font-family="Helvetica,sans-Serif" font-size="10.00" fill="grey"> not_used</text>
</g>
</g>
</svg>
