<?xml version="1.0" encoding="UTF-8" standalone="no"?>
<!DOCTYPE svg PUBLIC "-//W3C//DTD SVG 1.1//EN"
 "http://www.w3.org/Graphics/SVG/1.1/DTD/svg11.dtd">
<!-- Generated by graphviz version 2.43.0 (0)
 -->
<!-- Title: odp_crypto_packet_result_t Pages: 1 -->
<svg width="256pt" height="104pt"
 viewBox="0.00 0.00 256.00 104.00" xmlns="http://www.w3.org/2000/svg" xmlns:xlink="http://www.w3.org/1999/xlink">
<g id="graph0" class="graph" transform="scale(1 1) rotate(0) translate(4 100)">
<title>odp_crypto_packet_result_t</title>
<!-- Node1 -->
<g id="Node000001" class="node">
<title>Node1</title>
<g id="a_Node000001"><a xlink:title="Crypto packet API operation result.">
<polygon fill="#999999" stroke="#666666" points="194.5,-19 44.5,-19 44.5,0 194.5,0 194.5,-19"/>
<text text-anchor="middle" x="119.5" y="-7" font-family="Helvetica,sans-Serif" font-size="10.00">odp_crypto_packet_result_t</text>
</a>
</g>
</g>
<!-- Node2 -->
<g id="Node000002" class="node">
<title>Node2</title>
<g id="a_Node000002"><a xlink:href="struct__odp__abi__packet__t.html" target="_top" xlink:title=" ">
<polygon fill="white" stroke="#666666" points="107,-96 0,-96 0,-77 107,-77 107,-96"/>
<text text-anchor="middle" x="53.5" y="-84" font-family="Helvetica,sans-Serif" font-size="10.00">_odp_abi_packet_t</text>
</a>
</g>
</g>
<!-- Node2&#45;&gt;Node1 -->
<g id="edge1_Node000001_Node000002" class="edge">
<title>Node2&#45;&gt;Node1</title>
<g id="a_edge1_Node000001_Node000002"><a xlink:title=" ">
<path fill="none" stroke="#9a32cd" stroke-dasharray="5,2" d="M67.88,-69.16C81.47,-53.72 101.33,-31.15 112.02,-19"/>
<polygon fill="#9a32cd" stroke="#9a32cd" points="65.05,-67.08 61.07,-76.9 70.3,-71.7 65.05,-67.08"/>
</a>
</g>
<text text-anchor="middle" x="111.5" y="-45.5" font-family="Helvetica,sans-Serif" font-size="10.00" fill="grey"> pkt_in</text>
</g>
<!-- Node3 -->
<g id="Node000003" class="node">
<title>Node3</title>
<g id="a_Node000003"><a xlink:href="structodp__crypto__op__status.html" target="_top" xlink:title="Crypto API per packet operation completion status.">
<polygon fill="white" stroke="#666666" points="248,-96 125,-96 125,-77 248,-77 248,-96"/>
<text text-anchor="middle" x="186.5" y="-84" font-family="Helvetica,sans-Serif" font-size="10.00">odp_crypto_op_status</text>
</a>
</g>
</g>
<!-- Node3&#45;&gt;Node1 -->
<g id="edge2_Node000001_Node000003" class="edge">
<title>Node3&#45;&gt;Node1</title>
<g id="a_edge2_Node000001_Node000003"><a xlink:title=" ">
<path fill="none" stroke="#9a32cd" stroke-dasharray="5,2" d="M171.9,-69.16C158.11,-53.72 137.95,-31.15 127.1,-19"/>
<polygon fill="#9a32cd" stroke="#9a32cd" points="169.54,-71.77 178.81,-76.9 174.76,-67.11 169.54,-71.77"/>
</a>
</g>
<text text-anchor="middle" x="193.5" y="-51" font-family="Helvetica,sans-Serif" font-size="10.00" fill="grey"> auth_status</text>
<text text-anchor="middle" x="193.5" y="-40" font-family="Helvetica,sans-Serif" font-size="10.00" fill="grey">cipher_status</text>
</g>
</g>
</svg>
