<?xml version="1.0" encoding="UTF-8" standalone="no"?>
<!DOCTYPE svg PUBLIC "-//W3C//DTD SVG 1.1//EN"
 "http://www.w3.org/Graphics/SVG/1.1/DTD/svg11.dtd">
<!-- Generated by graphviz version 2.43.0 (0)
 -->
<!-- Title: odp_ml_data_t Pages: 1 -->
<svg width="119pt" height="106pt"
 viewBox="0.00 0.00 119.00 106.00" xmlns="http://www.w3.org/2000/svg" xmlns:xlink="http://www.w3.org/1999/xlink">
<g id="graph0" class="graph" transform="scale(1 1) rotate(0) translate(4 102)">
<title>odp_ml_data_t</title>
<polygon fill="white" stroke="transparent" points="-4,4 -4,-102 115,-102 115,4 -4,4"/>
<!-- Node1 -->
<g id="node1" class="node">
<title>Node1</title>
<g id="a_node1"><a xlink:title="Model input / output data for a model inference run.">
<polygon fill="#bfbfbf" stroke="black" points="11,-0.5 11,-19.5 100,-19.5 100,-0.5 11,-0.5"/>
<text text-anchor="middle" x="55.5" y="-7.5" font-family="Helvetica,sans-Serif" font-size="10.00">odp_ml_data_t</text>
</a>
</g>
</g>
<!-- Node2 -->
<g id="node2" class="node">
<title>Node2</title>
<g id="a_node2"><a xlink:href="structodp__ml__data__seg__t.html" target="_top" xlink:title="Model input / output data segment.">
<polygon fill="white" stroke="black" points="0,-78.5 0,-97.5 111,-97.5 111,-78.5 0,-78.5"/>
<text text-anchor="middle" x="55.5" y="-85.5" font-family="Helvetica,sans-Serif" font-size="10.00">odp_ml_data_seg_t</text>
</a>
</g>
</g>
<!-- Node2&#45;&gt;Node1 -->
<g id="edge1" class="edge">
<title>Node2&#45;&gt;Node1</title>
<path fill="none" stroke="#9a32cd" stroke-dasharray="5,2" d="M55.5,-68.22C55.5,-52.7 55.5,-31.36 55.5,-19.62"/>
<polygon fill="#9a32cd" stroke="#9a32cd" points="52,-68.28 55.5,-78.28 59,-68.28 52,-68.28"/>
<text text-anchor="middle" x="83" y="-52" font-family="Helvetica,sans-Serif" font-size="10.00"> input_seg</text>
<text text-anchor="middle" x="83" y="-41" font-family="Helvetica,sans-Serif" font-size="10.00">output_seg</text>
</g>
</g>
</svg>
