<?xml version="1.0" encoding="UTF-8" standalone="no"?>
<!DOCTYPE svg PUBLIC "-//W3C//DTD SVG 1.1//EN"
 "http://www.w3.org/Graphics/SVG/1.1/DTD/svg11.dtd">
<!-- Generated by graphviz version 2.40.1 (20161225.0304)
 -->
<!-- Title: odp_pktio_info_t Pages: 1 -->
<svg width="232pt" height="95pt"
 viewBox="0.00 0.00 231.50 95.00" xmlns="http://www.w3.org/2000/svg" xmlns:xlink="http://www.w3.org/1999/xlink">
<g id="graph0" class="graph" transform="scale(1 1) rotate(0) translate(4 91)">
<title>odp_pktio_info_t</title>
<polygon fill="#ffffff" stroke="transparent" points="-4,4 -4,-91 227.5,-91 227.5,4 -4,4"/>
<!-- Node1 -->
<g id="node1" class="node">
<title>Node1</title>
<polygon fill="#bfbfbf" stroke="#000000" points="58.5,-.5 58.5,-19.5 156.5,-19.5 156.5,-.5 58.5,-.5"/>
<text text-anchor="middle" x="107.5" y="-7.5" font-family="Helvetica,sans-Serif" font-size="10.00" fill="#000000">odp_pktio_info_t</text>
</g>
<!-- Node2 -->
<g id="node2" class="node">
<title>Node2</title>
<g id="a_node2"><a xlink:href="struct__odp__abi__pool__t.html" target="_top" xlink:title="_odp_abi_pool_t">
<polygon fill="#ffffff" stroke="#000000" points="0,-67.5 0,-86.5 95,-86.5 95,-67.5 0,-67.5"/>
<text text-anchor="middle" x="47.5" y="-74.5" font-family="Helvetica,sans-Serif" font-size="10.00" fill="#000000">_odp_abi_pool_t</text>
</a>
</g>
</g>
<!-- Node2&#45;&gt;Node1 -->
<g id="edge1" class="edge">
<title>Node2&#45;&gt;Node1</title>
<path fill="none" stroke="#9a32cd" stroke-dasharray="5,2" d="M62.9794,-59.7147C74.4185,-46.941 89.5695,-30.0224 98.9194,-19.5817"/>
<polygon fill="#9a32cd" stroke="#9a32cd" points="60.1604,-57.6161 56.0965,-67.4005 65.3751,-62.2859 60.1604,-57.6161"/>
<text text-anchor="middle" x="94" y="-41" font-family="Helvetica,sans-Serif" font-size="10.00" fill="#000000"> pool</text>
</g>
<!-- Node3 -->
<g id="node3" class="node">
<title>Node3</title>
<g id="a_node3"><a xlink:href="structodp__pktio__param__t.html" target="_top" xlink:title="Packet IO parameters. ">
<polygon fill="#ffffff" stroke="#000000" points="113.5,-67.5 113.5,-86.5 223.5,-86.5 223.5,-67.5 113.5,-67.5"/>
<text text-anchor="middle" x="168.5" y="-74.5" font-family="Helvetica,sans-Serif" font-size="10.00" fill="#000000">odp_pktio_param_t</text>
</a>
</g>
</g>
<!-- Node3&#45;&gt;Node1 -->
<g id="edge2" class="edge">
<title>Node3&#45;&gt;Node1</title>
<path fill="none" stroke="#9a32cd" stroke-dasharray="5,2" d="M152.7626,-59.7147C141.1329,-46.941 125.7293,-30.0224 116.2236,-19.5817"/>
<polygon fill="#9a32cd" stroke="#9a32cd" points="150.4399,-62.3624 159.7602,-67.4005 155.616,-57.6498 150.4399,-62.3624"/>
<text text-anchor="middle" x="159" y="-41" font-family="Helvetica,sans-Serif" font-size="10.00" fill="#000000"> param</text>
</g>
</g>
</svg>
