<?xml version="1.0" encoding="UTF-8" standalone="no"?>
<!DOCTYPE svg PUBLIC "-//W3C//DTD SVG 1.1//EN"
 "http://www.w3.org/Graphics/SVG/1.1/DTD/svg11.dtd">
<!-- Generated by graphviz version 2.40.1 (20161225.0304)
 -->
<!-- Title: odp_pool_param_t Pages: 1 -->
<svg width="292pt" height="95pt"
 viewBox="0.00 0.00 291.50 95.00" xmlns="http://www.w3.org/2000/svg" xmlns:xlink="http://www.w3.org/1999/xlink">
<g id="graph0" class="graph" transform="scale(1 1) rotate(0) translate(4 91)">
<title>odp_pool_param_t</title>
<polygon fill="#ffffff" stroke="transparent" points="-4,4 -4,-91 287.5,-91 287.5,4 -4,4"/>
<!-- Node1 -->
<g id="node1" class="node">
<title>Node1</title>
<polygon fill="#bfbfbf" stroke="#000000" points="94,-.5 94,-19.5 201,-19.5 201,-.5 94,-.5"/>
<text text-anchor="middle" x="147.5" y="-7.5" font-family="Helvetica,sans-Serif" font-size="10.00" fill="#000000">odp_pool_param_t</text>
</g>
<!-- Node2 -->
<g id="node2" class="node">
<title>Node2</title>
<g id="a_node2"><a xlink:href="structodp__pool__pkt__subparam__t.html" target="_top" xlink:title="Packet pool subparameters. ">
<polygon fill="#ffffff" stroke="#000000" points="0,-67.5 0,-86.5 145,-86.5 145,-67.5 0,-67.5"/>
<text text-anchor="middle" x="72.5" y="-74.5" font-family="Helvetica,sans-Serif" font-size="10.00" fill="#000000">odp_pool_pkt_subparam_t</text>
</a>
</g>
</g>
<!-- Node2&#45;&gt;Node1 -->
<g id="edge1" class="edge">
<title>Node2&#45;&gt;Node1</title>
<path fill="none" stroke="#9a32cd" stroke-dasharray="5,2" d="M91.0373,-60.44C105.424,-47.5879 124.8643,-30.2212 136.7743,-19.5817"/>
<polygon fill="#9a32cd" stroke="#9a32cd" points="88.3715,-58.1282 83.2457,-67.4005 93.0351,-63.3485 88.3715,-58.1282"/>
<text text-anchor="middle" x="125" y="-41" font-family="Helvetica,sans-Serif" font-size="10.00" fill="#000000"> sub</text>
</g>
<!-- Node3 -->
<g id="node3" class="node">
<title>Node3</title>
<g id="a_node3"><a xlink:href="unionodp__pool__stats__opt__t.html" target="_top" xlink:title="Pool statistics counters options. ">
<polygon fill="#ffffff" stroke="#000000" points="163.5,-67.5 163.5,-86.5 283.5,-86.5 283.5,-67.5 163.5,-67.5"/>
<text text-anchor="middle" x="223.5" y="-74.5" font-family="Helvetica,sans-Serif" font-size="10.00" fill="#000000">odp_pool_stats_opt_t</text>
</a>
</g>
</g>
<!-- Node3&#45;&gt;Node1 -->
<g id="edge2" class="edge">
<title>Node3&#45;&gt;Node1</title>
<path fill="none" stroke="#9a32cd" stroke-dasharray="5,2" d="M204.7156,-60.44C190.137,-47.5879 170.4375,-30.2212 158.3687,-19.5817"/>
<polygon fill="#9a32cd" stroke="#9a32cd" points="202.7952,-63.413 212.6111,-67.4005 207.4243,-58.1621 202.7952,-63.413"/>
<text text-anchor="middle" x="203.5" y="-41" font-family="Helvetica,sans-Serif" font-size="10.00" fill="#000000"> stats</text>
</g>
</g>
</svg>
