<?xml version="1.0" encoding="UTF-8" standalone="no"?>
<!DOCTYPE svg PUBLIC "-//W3C//DTD SVG 1.1//EN"
 "http://www.w3.org/Graphics/SVG/1.1/DTD/svg11.dtd">
<!-- Generated by graphviz version 2.40.1 (20161225.0304)
 -->
<!-- Title: odp_pool_info_t Pages: 1 -->
<svg width="296pt" height="162pt"
 viewBox="0.00 0.00 295.50 162.00" xmlns="http://www.w3.org/2000/svg" xmlns:xlink="http://www.w3.org/1999/xlink">
<g id="graph0" class="graph" transform="scale(1 1) rotate(0) translate(4 158)">
<title>odp_pool_info_t</title>
<polygon fill="#ffffff" stroke="transparent" points="-4,4 -4,-158 291.5,-158 291.5,4 -4,4"/>
<!-- Node1 -->
<g id="node1" class="node">
<title>Node1</title>
<polygon fill="#bfbfbf" stroke="#000000" points="84,-.5 84,-19.5 178,-19.5 178,-.5 84,-.5"/>
<text text-anchor="middle" x="131" y="-7.5" font-family="Helvetica,sans-Serif" font-size="10.00" fill="#000000">odp_pool_info_t</text>
</g>
<!-- Node2 -->
<g id="node2" class="node">
<title>Node2</title>
<g id="a_node2"><a xlink:href="structodp__pool__ext__param__t.html" target="_top" xlink:title="External memory pool parameters. ">
<polygon fill="#ffffff" stroke="#000000" points="0,-67.5 0,-86.5 128,-86.5 128,-67.5 0,-67.5"/>
<text text-anchor="middle" x="64" y="-74.5" font-family="Helvetica,sans-Serif" font-size="10.00" fill="#000000">odp_pool_ext_param_t</text>
</a>
</g>
</g>
<!-- Node2&#45;&gt;Node1 -->
<g id="edge1" class="edge">
<title>Node2&#45;&gt;Node1</title>
<path fill="none" stroke="#9a32cd" stroke-dasharray="5,2" d="M73.4465,-57.9692C77.3676,-51.1957 82.3327,-43.8139 88,-38 95.0889,-30.7278 104.3912,-24.3799 112.53,-19.5752"/>
<polygon fill="#9a32cd" stroke="#9a32cd" points="70.1348,-56.7384 68.4882,-67.2045 76.3022,-60.0496 70.1348,-56.7384"/>
<text text-anchor="middle" x="129" y="-41" font-family="Helvetica,sans-Serif" font-size="10.00" fill="#000000"> pool_ext_param</text>
</g>
<!-- Node3 -->
<g id="node3" class="node">
<title>Node3</title>
<g id="a_node3"><a xlink:href="unionodp__pool__stats__opt__t.html" target="_top" xlink:title="Pool statistics counters options. ">
<polygon fill="#ffffff" stroke="#000000" points="4,-134.5 4,-153.5 124,-153.5 124,-134.5 4,-134.5"/>
<text text-anchor="middle" x="64" y="-141.5" font-family="Helvetica,sans-Serif" font-size="10.00" fill="#000000">odp_pool_stats_opt_t</text>
</a>
</g>
</g>
<!-- Node3&#45;&gt;Node2 -->
<g id="edge2" class="edge">
<title>Node3&#45;&gt;Node2</title>
<path fill="none" stroke="#9a32cd" stroke-dasharray="5,2" d="M64,-124.1079C64,-111.714 64,-96.3263 64,-86.5817"/>
<polygon fill="#9a32cd" stroke="#9a32cd" points="60.5001,-124.4005 64,-134.4005 67.5001,-124.4006 60.5001,-124.4005"/>
<text text-anchor="middle" x="78" y="-108" font-family="Helvetica,sans-Serif" font-size="10.00" fill="#000000"> stats</text>
</g>
<!-- Node4 -->
<g id="node4" class="node">
<title>Node4</title>
<g id="a_node4"><a xlink:href="structodp__pool__param__t.html" target="_top" xlink:title="Pool parameters. ">
<polygon fill="#ffffff" stroke="#000000" points="146.5,-67.5 146.5,-86.5 253.5,-86.5 253.5,-67.5 146.5,-67.5"/>
<text text-anchor="middle" x="200" y="-74.5" font-family="Helvetica,sans-Serif" font-size="10.00" fill="#000000">odp_pool_param_t</text>
</a>
</g>
</g>
<!-- Node3&#45;&gt;Node4 -->
<g id="edge5" class="edge">
<title>Node3&#45;&gt;Node4</title>
<path fill="none" stroke="#9a32cd" stroke-dasharray="5,2" d="M92.6182,-129.9013C119.0314,-116.889 157.541,-97.9173 180.5507,-86.5817"/>
<polygon fill="#9a32cd" stroke="#9a32cd" points="90.9092,-126.8415 83.4855,-134.4005 94.0028,-133.1209 90.9092,-126.8415"/>
<text text-anchor="middle" x="155" y="-108" font-family="Helvetica,sans-Serif" font-size="10.00" fill="#000000"> stats</text>
</g>
<!-- Node4&#45;&gt;Node1 -->
<g id="edge3" class="edge">
<title>Node4&#45;&gt;Node1</title>
<path fill="none" stroke="#9a32cd" stroke-dasharray="5,2" d="M187.9997,-59.1787C182.8729,-52.1931 176.5613,-44.3481 170,-38 162.9314,-31.1611 154.0931,-24.6778 146.6183,-19.6753"/>
<polygon fill="#9a32cd" stroke="#9a32cd" points="185.1665,-61.2344 193.7896,-67.3902 190.8874,-57.2006 185.1665,-61.2344"/>
<text text-anchor="middle" x="201" y="-41" font-family="Helvetica,sans-Serif" font-size="10.00" fill="#000000"> params</text>
</g>
<!-- Node5 -->
<g id="node5" class="node">
<title>Node5</title>
<g id="a_node5"><a xlink:href="structodp__pool__pkt__subparam__t.html" target="_top" xlink:title="Packet pool subparameters. ">
<polygon fill="#ffffff" stroke="#000000" points="142.5,-134.5 142.5,-153.5 287.5,-153.5 287.5,-134.5 142.5,-134.5"/>
<text text-anchor="middle" x="215" y="-141.5" font-family="Helvetica,sans-Serif" font-size="10.00" fill="#000000">odp_pool_pkt_subparam_t</text>
</a>
</g>
</g>
<!-- Node5&#45;&gt;Node4 -->
<g id="edge4" class="edge">
<title>Node5&#45;&gt;Node4</title>
<path fill="none" stroke="#9a32cd" stroke-dasharray="5,2" d="M210.6313,-124.4863C207.8422,-112.0286 204.349,-96.4258 202.1451,-86.5817"/>
<polygon fill="#9a32cd" stroke="#9a32cd" points="207.2506,-125.4068 212.8509,-134.4005 214.0815,-123.8774 207.2506,-125.4068"/>
<text text-anchor="middle" x="219.5" y="-108" font-family="Helvetica,sans-Serif" font-size="10.00" fill="#000000"> sub</text>
</g>
</g>
</svg>
