<?xml version="1.0" encoding="UTF-8" standalone="no"?>
<!DOCTYPE svg PUBLIC "-//W3C//DTD SVG 1.1//EN"
 "http://www.w3.org/Graphics/SVG/1.1/DTD/svg11.dtd">
<!-- Generated by graphviz version 2.43.0 (0)
 -->
<!-- Title: odp_dma_transfer_param_t Pages: 1 -->
<svg width="221pt" height="173pt"
 viewBox="0.00 0.00 221.00 173.00" xmlns="http://www.w3.org/2000/svg" xmlns:xlink="http://www.w3.org/1999/xlink">
<g id="graph0" class="graph" transform="scale(1 1) rotate(0) translate(4 169)">
<title>odp_dma_transfer_param_t</title>
<polygon fill="white" stroke="transparent" points="-4,4 -4,-169 217,-169 217,4 -4,4"/>
<!-- Node1 -->
<g id="node1" class="node">
<title>Node1</title>
<g id="a_node1"><a xlink:title="DMA transfer parameters.">
<polygon fill="#bfbfbf" stroke="black" points="22,-0.5 22,-19.5 173,-19.5 173,-0.5 22,-0.5"/>
<text text-anchor="middle" x="97.5" y="-7.5" font-family="Helvetica,sans-Serif" font-size="10.00">odp_dma_transfer_param_t</text>
</a>
</g>
</g>
<!-- Node2 -->
<g id="node2" class="node">
<title>Node2</title>
<g id="a_node2"><a xlink:href="struct__odp__abi__pool__t.html" target="_top" xlink:title=" ">
<polygon fill="white" stroke="black" points="0,-78.5 0,-97.5 95,-97.5 95,-78.5 0,-78.5"/>
<text text-anchor="middle" x="47.5" y="-85.5" font-family="Helvetica,sans-Serif" font-size="10.00">_odp_abi_pool_t</text>
</a>
</g>
</g>
<!-- Node2&#45;&gt;Node1 -->
<g id="edge1" class="edge">
<title>Node2&#45;&gt;Node1</title>
<path fill="none" stroke="#9a32cd" stroke-dasharray="5,2" d="M48.98,-68.09C50.48,-58.42 53.49,-46.85 59.5,-38 64.68,-30.37 72.79,-24.18 80.18,-19.66"/>
<polygon fill="#9a32cd" stroke="#9a32cd" points="45.47,-67.96 47.82,-78.3 52.43,-68.75 45.47,-67.96"/>
<text text-anchor="middle" x="93" y="-46.5" font-family="Helvetica,sans-Serif" font-size="10.00"> dst_seg_pool</text>
</g>
<!-- Node3 -->
<g id="node3" class="node">
<title>Node3</title>
<g id="a_node3"><a xlink:href="structodp__dma__seg__t.html" target="_top" xlink:title="DMA segment.">
<polygon fill="white" stroke="black" points="113,-78.5 113,-97.5 206,-97.5 206,-78.5 113,-78.5"/>
<text text-anchor="middle" x="159.5" y="-85.5" font-family="Helvetica,sans-Serif" font-size="10.00">odp_dma_seg_t</text>
</a>
</g>
</g>
<!-- Node3&#45;&gt;Node1 -->
<g id="edge2" class="edge">
<title>Node3&#45;&gt;Node1</title>
<path fill="none" stroke="#9a32cd" stroke-dasharray="5,2" d="M149.11,-69.53C143.02,-59.85 134.89,-47.83 126.5,-38 120.87,-31.41 113.76,-24.77 107.98,-19.72"/>
<polygon fill="#9a32cd" stroke="#9a32cd" points="146.24,-71.55 154.45,-78.26 152.21,-67.9 146.24,-71.55"/>
<text text-anchor="middle" x="162" y="-52" font-family="Helvetica,sans-Serif" font-size="10.00"> dst_seg</text>
<text text-anchor="middle" x="162" y="-41" font-family="Helvetica,sans-Serif" font-size="10.00">src_seg</text>
</g>
<!-- Node4 -->
<g id="node4" class="node">
<title>Node4</title>
<g id="a_node4"><a xlink:href="struct__odp__abi__packet__t.html" target="_top" xlink:title=" ">
<polygon fill="white" stroke="black" points="106,-145.5 106,-164.5 213,-164.5 213,-145.5 106,-145.5"/>
<text text-anchor="middle" x="159.5" y="-152.5" font-family="Helvetica,sans-Serif" font-size="10.00">_odp_abi_packet_t</text>
</a>
</g>
</g>
<!-- Node4&#45;&gt;Node3 -->
<g id="edge3" class="edge">
<title>Node4&#45;&gt;Node3</title>
<path fill="none" stroke="#9a32cd" stroke-dasharray="5,2" d="M159.5,-135.04C159.5,-122.67 159.5,-107.12 159.5,-97.63"/>
<polygon fill="#9a32cd" stroke="#9a32cd" points="156,-135.23 159.5,-145.23 163,-135.23 156,-135.23"/>
<text text-anchor="middle" x="177.5" y="-119" font-family="Helvetica,sans-Serif" font-size="10.00"> packet</text>
</g>
</g>
</svg>
