<?xml version="1.0" encoding="UTF-8" standalone="no"?>
<!DOCTYPE svg PUBLIC "-//W3C//DTD SVG 1.1//EN"
 "http://www.w3.org/Graphics/SVG/1.1/DTD/svg11.dtd">
<!-- Generated by graphviz version 2.43.0 (0)
 -->
<!-- Title: odp_queue_param_t Pages: 1 -->
<svg width="294pt" height="162pt"
 viewBox="0.00 0.00 293.50 162.00" xmlns="http://www.w3.org/2000/svg" xmlns:xlink="http://www.w3.org/1999/xlink">
<g id="graph0" class="graph" transform="scale(1 1) rotate(0) translate(4 158)">
<title>odp_queue_param_t</title>
<polygon fill="white" stroke="transparent" points="-4,4 -4,-158 289.5,-158 289.5,4 -4,4"/>
<!-- Node1 -->
<g id="node1" class="node">
<title>Node1</title>
<g id="a_node1"><a xlink:title="ODP Queue parameters.">
<polygon fill="#bfbfbf" stroke="black" points="87,-0.5 87,-19.5 203,-19.5 203,-0.5 87,-0.5"/>
<text text-anchor="middle" x="145" y="-7.5" font-family="Helvetica,sans-Serif" font-size="10.00">odp_queue_param_t</text>
</a>
</g>
</g>
<!-- Node2 -->
<g id="node2" class="node">
<title>Node2</title>
<g id="a_node2"><a xlink:href="structodp__event__aggr__config__t.html" target="_top" xlink:title="Event vector configuration.">
<polygon fill="white" stroke="black" points="0,-67.5 0,-86.5 138,-86.5 138,-67.5 0,-67.5"/>
<text text-anchor="middle" x="69" y="-74.5" font-family="Helvetica,sans-Serif" font-size="10.00">odp_event_aggr_config_t</text>
</a>
</g>
</g>
<!-- Node2&#45;&gt;Node1 -->
<g id="edge1" class="edge">
<title>Node2&#45;&gt;Node1</title>
<path fill="none" stroke="#9a32cd" stroke-dasharray="5,2" d="M86.87,-60.71C101.85,-47.91 122.68,-30.09 134.91,-19.63"/>
<polygon fill="#9a32cd" stroke="#9a32cd" points="84.57,-58.07 79.25,-67.23 89.12,-63.39 84.57,-58.07"/>
<text text-anchor="middle" x="124.5" y="-41" font-family="Helvetica,sans-Serif" font-size="10.00"> aggr</text>
</g>
<!-- Node3 -->
<g id="node3" class="node">
<title>Node3</title>
<g id="a_node3"><a xlink:href="struct__odp__abi__pool__t.html" target="_top" xlink:title=" ">
<polygon fill="white" stroke="black" points="21.5,-134.5 21.5,-153.5 116.5,-153.5 116.5,-134.5 21.5,-134.5"/>
<text text-anchor="middle" x="69" y="-141.5" font-family="Helvetica,sans-Serif" font-size="10.00">_odp_abi_pool_t</text>
</a>
</g>
</g>
<!-- Node3&#45;&gt;Node2 -->
<g id="edge2" class="edge">
<title>Node3&#45;&gt;Node2</title>
<path fill="none" stroke="#9a32cd" stroke-dasharray="5,2" d="M69,-124.04C69,-111.67 69,-96.12 69,-86.63"/>
<polygon fill="#9a32cd" stroke="#9a32cd" points="65.5,-124.23 69,-134.23 72.5,-124.23 65.5,-124.23"/>
<text text-anchor="middle" x="81.5" y="-108" font-family="Helvetica,sans-Serif" font-size="10.00"> pool</text>
</g>
<!-- Node4 -->
<g id="node4" class="node">
<title>Node4</title>
<g id="a_node4"><a xlink:href="structodp__schedule__param__t.html" target="_top" xlink:title="Scheduler parameters.">
<polygon fill="white" stroke="black" points="156.5,-67.5 156.5,-86.5 285.5,-86.5 285.5,-67.5 156.5,-67.5"/>
<text text-anchor="middle" x="221" y="-74.5" font-family="Helvetica,sans-Serif" font-size="10.00">odp_schedule_param_t</text>
</a>
</g>
</g>
<!-- Node4&#45;&gt;Node1 -->
<g id="edge3" class="edge">
<title>Node4&#45;&gt;Node1</title>
<path fill="none" stroke="#9a32cd" stroke-dasharray="5,2" d="M203.13,-60.71C188.15,-47.91 167.32,-30.09 155.09,-19.63"/>
<polygon fill="#9a32cd" stroke="#9a32cd" points="200.88,-63.39 210.75,-67.23 205.43,-58.07 200.88,-63.39"/>
<text text-anchor="middle" x="203" y="-41" font-family="Helvetica,sans-Serif" font-size="10.00"> sched</text>
</g>
</g>
</svg>
