<?xml version="1.0" encoding="UTF-8" standalone="no"?>
<!DOCTYPE svg PUBLIC "-//W3C//DTD SVG 1.1//EN"
 "http://www.w3.org/Graphics/SVG/1.1/DTD/svg11.dtd">
<!-- Generated by graphviz version 2.43.0 (0)
 -->
<!-- Title: odp_timer_periodic_param_t Pages: 1 -->
<svg width="226pt" height="104pt"
 viewBox="0.00 0.00 225.50 104.00" xmlns="http://www.w3.org/2000/svg" xmlns:xlink="http://www.w3.org/1999/xlink">
<g id="graph0" class="graph" transform="scale(1 1) rotate(0) translate(4 100)">
<title>odp_timer_periodic_param_t</title>
<!-- Node1 -->
<g id="Node000001" class="node">
<title>Node1</title>
<g id="a_Node000001"><a xlink:title="Periodic timer parameters.">
<polygon fill="#999999" stroke="#666666" points="166,-30 56,-30 56,0 166,0 166,-30"/>
<text text-anchor="start" x="64" y="-18" font-family="Helvetica,sans-Serif" font-size="10.00">odp_timer_periodic</text>
<text text-anchor="middle" x="111" y="-7" font-family="Helvetica,sans-Serif" font-size="10.00">_param_t</text>
</a>
</g>
</g>
<!-- Node2 -->
<g id="Node000002" class="node">
<title>Node2</title>
<g id="a_Node000002"><a xlink:href="struct__odp__abi__queue__t.html" target="_top" xlink:title=" ">
<polygon fill="white" stroke="#666666" points="104,-96 0,-96 0,-77 104,-77 104,-96"/>
<text text-anchor="middle" x="52" y="-84" font-family="Helvetica,sans-Serif" font-size="10.00">_odp_abi_queue_t</text>
</a>
</g>
</g>
<!-- Node2&#45;&gt;Node1 -->
<g id="edge1_Node000001_Node000002" class="edge">
<title>Node2&#45;&gt;Node1</title>
<g id="a_edge1_Node000001_Node000002"><a xlink:title=" ">
<path fill="none" stroke="#9a32cd" stroke-dasharray="5,2" d="M65.85,-69.18C75.91,-57.33 89.39,-41.45 99,-30.14"/>
<polygon fill="#9a32cd" stroke="#9a32cd" points="63.04,-67.09 59.23,-76.98 68.37,-71.62 63.04,-67.09"/>
</a>
</g>
<text text-anchor="middle" x="101" y="-51" font-family="Helvetica,sans-Serif" font-size="10.00" fill="grey"> queue</text>
</g>
<!-- Node3 -->
<g id="Node000003" class="node">
<title>Node3</title>
<g id="a_Node000003"><a xlink:href="structodp__fract__u64__t.html" target="_top" xlink:title="Unsigned 64 bit fractional number.">
<polygon fill="white" stroke="#666666" points="217.5,-96 122.5,-96 122.5,-77 217.5,-77 217.5,-96"/>
<text text-anchor="middle" x="170" y="-84" font-family="Helvetica,sans-Serif" font-size="10.00">odp_fract_u64_t</text>
</a>
</g>
</g>
<!-- Node3&#45;&gt;Node1 -->
<g id="edge2_Node000001_Node000003" class="edge">
<title>Node3&#45;&gt;Node1</title>
<g id="a_edge2_Node000001_Node000003"><a xlink:title=" ">
<path fill="none" stroke="#9a32cd" stroke-dasharray="5,2" d="M156.15,-69.18C146.09,-57.33 132.61,-41.45 123,-30.14"/>
<polygon fill="#9a32cd" stroke="#9a32cd" points="153.63,-71.62 162.77,-76.98 158.96,-67.09 153.63,-71.62"/>
</a>
</g>
<text text-anchor="middle" x="165" y="-51" font-family="Helvetica,sans-Serif" font-size="10.00" fill="grey"> freq_hz</text>
</g>
</g>
</svg>
