<?xml version="1.0" encoding="UTF-8" standalone="no"?>
<!DOCTYPE svg PUBLIC "-//W3C//DTD SVG 1.1//EN"
 "http://www.w3.org/Graphics/SVG/1.1/DTD/svg11.dtd">
<!-- Generated by graphviz version 2.40.1 (20161225.0304)
 -->
<!-- Title: odp_ipsec_tunnel_param_t Pages: 1 -->
<svg width="300pt" height="95pt"
 viewBox="0.00 0.00 300.00 95.00" xmlns="http://www.w3.org/2000/svg" xmlns:xlink="http://www.w3.org/1999/xlink">
<g id="graph0" class="graph" transform="scale(1 1) rotate(0) translate(4 91)">
<title>odp_ipsec_tunnel_param_t</title>
<polygon fill="#ffffff" stroke="transparent" points="-4,4 -4,-91 296,-91 296,4 -4,4"/>
<!-- Node1 -->
<g id="node1" class="node">
<title>Node1</title>
<polygon fill="#bfbfbf" stroke="#000000" points="72,-.5 72,-19.5 219,-19.5 219,-.5 72,-.5"/>
<text text-anchor="middle" x="145.5" y="-7.5" font-family="Helvetica,sans-Serif" font-size="10.00" fill="#000000">odp_ipsec_tunnel_param_t</text>
</g>
<!-- Node2 -->
<g id="node2" class="node">
<title>Node2</title>
<g id="a_node2"><a xlink:href="structodp__ipsec__ipv4__param__t.html" target="_top" xlink:title="IPv4 header parameters. ">
<polygon fill="#ffffff" stroke="#000000" points="0,-67.5 0,-86.5 137,-86.5 137,-67.5 0,-67.5"/>
<text text-anchor="middle" x="68.5" y="-74.5" font-family="Helvetica,sans-Serif" font-size="10.00" fill="#000000">odp_ipsec_ipv4_param_t</text>
</a>
</g>
</g>
<!-- Node2&#45;&gt;Node1 -->
<g id="edge1" class="edge">
<title>Node2&#45;&gt;Node1</title>
<path fill="none" stroke="#9a32cd" stroke-dasharray="5,2" d="M87.1188,-60.7992C101.9282,-47.9131 122.1464,-30.3207 134.4882,-19.5817"/>
<polygon fill="#9a32cd" stroke="#9a32cd" points="84.7787,-58.1959 79.5322,-67.4005 89.3737,-63.4767 84.7787,-58.1959"/>
<text text-anchor="middle" x="125" y="-41" font-family="Helvetica,sans-Serif" font-size="10.00" fill="#000000"> ipv4</text>
</g>
<!-- Node3 -->
<g id="node3" class="node">
<title>Node3</title>
<g id="a_node3"><a xlink:href="structodp__ipsec__ipv6__param__t.html" target="_top" xlink:title="IPv6 header parameters. ">
<polygon fill="#ffffff" stroke="#000000" points="155,-67.5 155,-86.5 292,-86.5 292,-67.5 155,-67.5"/>
<text text-anchor="middle" x="223.5" y="-74.5" font-family="Helvetica,sans-Serif" font-size="10.00" fill="#000000">odp_ipsec_ipv6_param_t</text>
</a>
</g>
</g>
<!-- Node3&#45;&gt;Node1 -->
<g id="edge2" class="edge">
<title>Node3&#45;&gt;Node1</title>
<path fill="none" stroke="#9a32cd" stroke-dasharray="5,2" d="M204.6394,-60.7992C189.6376,-47.9131 169.1569,-30.3207 156.6548,-19.5817"/>
<polygon fill="#9a32cd" stroke="#9a32cd" points="202.4582,-63.5396 212.3245,-67.4005 207.0194,-58.2296 202.4582,-63.5396"/>
<text text-anchor="middle" x="201" y="-41" font-family="Helvetica,sans-Serif" font-size="10.00" fill="#000000"> ipv6</text>
</g>
</g>
</svg>
