<?xml version="1.0" encoding="UTF-8" standalone="no"?>
<!DOCTYPE svg PUBLIC "-//W3C//DTD SVG 1.1//EN"
 "http://www.w3.org/Graphics/SVG/1.1/DTD/svg11.dtd">
<!-- Generated by graphviz version 2.43.0 (0)
 -->
<!-- Title: odp_pool_param_t Pages: 1 -->
<svg width="292pt" height="95pt"
 viewBox="0.00 0.00 291.50 95.00" xmlns="http://www.w3.org/2000/svg" xmlns:xlink="http://www.w3.org/1999/xlink">
<g id="graph0" class="graph" transform="scale(1 1) rotate(0) translate(4 91)">
<title>odp_pool_param_t</title>
<polygon fill="white" stroke="transparent" points="-4,4 -4,-91 287.5,-91 287.5,4 -4,4"/>
<!-- Node1 -->
<g id="node1" class="node">
<title>Node1</title>
<g id="a_node1"><a xlink:title="Pool parameters.">
<polygon fill="#bfbfbf" stroke="black" points="94,-0.5 94,-19.5 201,-19.5 201,-0.5 94,-0.5"/>
<text text-anchor="middle" x="147.5" y="-7.5" font-family="Helvetica,sans-Serif" font-size="10.00">odp_pool_param_t</text>
</a>
</g>
</g>
<!-- Node2 -->
<g id="node2" class="node">
<title>Node2</title>
<g id="a_node2"><a xlink:href="structodp__pool__pkt__subparam__t.html" target="_top" xlink:title="Packet pool subparameters.">
<polygon fill="white" stroke="black" points="0,-67.5 0,-86.5 145,-86.5 145,-67.5 0,-67.5"/>
<text text-anchor="middle" x="72.5" y="-74.5" font-family="Helvetica,sans-Serif" font-size="10.00">odp_pool_pkt_subparam_t</text>
</a>
</g>
</g>
<!-- Node2&#45;&gt;Node1 -->
<g id="edge1" class="edge">
<title>Node2&#45;&gt;Node1</title>
<path fill="none" stroke="#9a32cd" stroke-dasharray="5,2" d="M90.55,-60.36C105.29,-47.58 125.59,-29.99 137.55,-19.63"/>
<polygon fill="#9a32cd" stroke="#9a32cd" points="87.88,-58.04 82.61,-67.23 92.46,-63.33 87.88,-58.04"/>
<text text-anchor="middle" x="125" y="-41" font-family="Helvetica,sans-Serif" font-size="10.00"> sub</text>
</g>
<!-- Node3 -->
<g id="node3" class="node">
<title>Node3</title>
<g id="a_node3"><a xlink:href="unionodp__pool__stats__opt__t.html" target="_top" xlink:title="Pool statistics counters options.">
<polygon fill="white" stroke="black" points="163.5,-67.5 163.5,-86.5 283.5,-86.5 283.5,-67.5 163.5,-67.5"/>
<text text-anchor="middle" x="223.5" y="-74.5" font-family="Helvetica,sans-Serif" font-size="10.00">odp_pool_stats_opt_t</text>
</a>
</g>
</g>
<!-- Node3&#45;&gt;Node1 -->
<g id="edge2" class="edge">
<title>Node3&#45;&gt;Node1</title>
<path fill="none" stroke="#9a32cd" stroke-dasharray="5,2" d="M205.63,-60.71C190.65,-47.91 169.82,-30.09 157.59,-19.63"/>
<polygon fill="#9a32cd" stroke="#9a32cd" points="203.38,-63.39 213.25,-67.23 207.93,-58.07 203.38,-63.39"/>
<text text-anchor="middle" x="203.5" y="-41" font-family="Helvetica,sans-Serif" font-size="10.00"> stats</text>
</g>
</g>
</svg>
