<?xml version="1.0" encoding="UTF-8" standalone="no"?>
<!DOCTYPE svg PUBLIC "-//W3C//DTD SVG 1.1//EN"
 "http://www.w3.org/Graphics/SVG/1.1/DTD/svg11.dtd">
<!-- Generated by graphviz version 2.43.0 (0)
 -->
<!-- Title: thread.h Pages: 1 -->
<svg width="665pt" height="148pt"
 viewBox="0.00 0.00 665.00 148.00" xmlns="http://www.w3.org/2000/svg" xmlns:xlink="http://www.w3.org/1999/xlink">
<g id="graph0" class="graph" transform="scale(1 1) rotate(0) translate(4 144)">
<title>thread.h</title>
<!-- Node1 -->
<g id="Node000001" class="node">
<title>Node1</title>
<g id="a_Node000001"><a xlink:title="ODP thread API.">
<polygon fill="#999999" stroke="#666666" points="414,-140 357,-140 357,-121 414,-121 414,-140"/>
<text text-anchor="middle" x="385.5" y="-128" font-family="Helvetica,sans-Serif" font-size="10.00">thread.h</text>
</a>
</g>
</g>
<!-- Node2 -->
<g id="Node000002" class="node">
<title>Node2</title>
<g id="a_Node000002"><a xlink:href="cpu_8h.html" target="_top" xlink:title="ODP CPU.">
<polygon fill="white" stroke="#666666" points="241,-79.5 198,-79.5 198,-60.5 241,-60.5 241,-79.5"/>
<text text-anchor="middle" x="219.5" y="-67.5" font-family="Helvetica,sans-Serif" font-size="10.00">cpu.h</text>
</a>
</g>
</g>
<!-- Node1&#45;&gt;Node2 -->
<g id="edge1_Node000001_Node000002" class="edge">
<title>Node1&#45;&gt;Node2</title>
<g id="a_edge1_Node000001_Node000002"><a xlink:title=" ">
<path fill="none" stroke="#63b8ff" d="M346.84,-117.95C319.63,-109.53 282.51,-97.47 250.5,-85 246.32,-83.37 241.89,-81.48 237.72,-79.62"/>
<polygon fill="#63b8ff" stroke="#63b8ff" points="346.16,-121.4 356.75,-120.99 348.21,-114.71 346.16,-121.4"/>
</a>
</g>
</g>
<!-- Node7 -->
<g id="Node000007" class="node">
<title>Node7</title>
<g id="a_Node000007"><a xlink:href="abi-default_2rwlock__recursive_8h.html" target="_top" xlink:title="ODP recursive read/write lock.">
<polygon fill="white" stroke="#666666" points="367.5,-79.5 259.5,-79.5 259.5,-60.5 367.5,-60.5 367.5,-79.5"/>
<text text-anchor="middle" x="313.5" y="-67.5" font-family="Helvetica,sans-Serif" font-size="10.00">rwlock_recursive.h</text>
</a>
</g>
</g>
<!-- Node1&#45;&gt;Node7 -->
<g id="edge6_Node000001_Node000007" class="edge">
<title>Node1&#45;&gt;Node7</title>
<g id="a_edge6_Node000001_Node000007"><a xlink:title=" ">
<path fill="none" stroke="#63b8ff" d="M367.08,-114.54C353.49,-103.49 335.46,-88.84 324.17,-79.67"/>
<polygon fill="#63b8ff" stroke="#63b8ff" points="364.91,-117.28 374.88,-120.87 369.32,-111.85 364.91,-117.28"/>
</a>
</g>
</g>
<!-- Node8 -->
<g id="Node000008" class="node">
<title>Node8</title>
<g id="a_Node000008"><a xlink:href="rwlock__recursive__inlines_8h_source.html" target="_top" xlink:title=" ">
<polygon fill="white" stroke="#666666" points="531.5,-79.5 385.5,-79.5 385.5,-60.5 531.5,-60.5 531.5,-79.5"/>
<text text-anchor="middle" x="458.5" y="-67.5" font-family="Helvetica,sans-Serif" font-size="10.00">rwlock_recursive_inlines.h</text>
</a>
</g>
</g>
<!-- Node1&#45;&gt;Node8 -->
<g id="edge7_Node000001_Node000008" class="edge">
<title>Node1&#45;&gt;Node8</title>
<g id="a_edge7_Node000001_Node000008"><a xlink:title=" ">
<path fill="none" stroke="#63b8ff" d="M404.17,-114.54C417.96,-103.49 436.24,-88.84 447.68,-79.67"/>
<polygon fill="#63b8ff" stroke="#63b8ff" points="401.89,-111.88 396.27,-120.87 406.26,-117.35 401.89,-111.88"/>
</a>
</g>
</g>
<!-- Node9 -->
<g id="Node000009" class="node">
<title>Node9</title>
<g id="a_Node000009"><a xlink:href="spinlock__recursive__inlines_8h_source.html" target="_top" xlink:title=" ">
<polygon fill="white" stroke="#666666" points="657,-85 550,-85 550,-55 657,-55 657,-85"/>
<text text-anchor="start" x="558" y="-73" font-family="Helvetica,sans-Serif" font-size="10.00">spinlock_recursive</text>
<text text-anchor="middle" x="603.5" y="-62" font-family="Helvetica,sans-Serif" font-size="10.00">_inlines.h</text>
</a>
</g>
</g>
<!-- Node1&#45;&gt;Node9 -->
<g id="edge8_Node000001_Node000009" class="edge">
<title>Node1&#45;&gt;Node9</title>
<g id="a_edge8_Node000001_Node000009"><a xlink:title=" ">
<path fill="none" stroke="#63b8ff" d="M424.37,-119.07C459.65,-109.6 511.98,-95.56 550.98,-85.09"/>
<polygon fill="#63b8ff" stroke="#63b8ff" points="423.2,-115.76 414.45,-121.73 425.01,-122.52 423.2,-115.76"/>
</a>
</g>
</g>
<!-- Node3 -->
<g id="Node000003" class="node">
<title>Node3</title>
<g id="a_Node000003"><a xlink:href="packet__inlines_8h.html" target="_top" xlink:title="Packet inline functions.">
<polygon fill="white" stroke="#666666" points="95,-19 0,-19 0,0 95,0 95,-19"/>
<text text-anchor="middle" x="47.5" y="-7" font-family="Helvetica,sans-Serif" font-size="10.00">packet_inlines.h</text>
</a>
</g>
</g>
<!-- Node2&#45;&gt;Node3 -->
<g id="edge2_Node000002_Node000003" class="edge">
<title>Node2&#45;&gt;Node3</title>
<g id="a_edge2_Node000002_Node000003"><a xlink:title=" ">
<path fill="none" stroke="#63b8ff" d="M188.06,-58.31C154.91,-47.03 103.33,-29.49 72.73,-19.08"/>
<polygon fill="#63b8ff" stroke="#63b8ff" points="187.12,-61.68 197.72,-61.59 189.38,-55.06 187.12,-61.68"/>
</a>
</g>
</g>
<!-- Node4 -->
<g id="Node000004" class="node">
<title>Node4</title>
<g id="a_Node000004"><a xlink:href="rwlock__inlines_8h_source.html" target="_top" xlink:title=" ">
<polygon fill="white" stroke="#666666" points="208,-19 113,-19 113,0 208,0 208,-19"/>
<text text-anchor="middle" x="160.5" y="-7" font-family="Helvetica,sans-Serif" font-size="10.00">rwlock_inlines.h</text>
</a>
</g>
</g>
<!-- Node2&#45;&gt;Node4 -->
<g id="edge3_Node000002_Node000004" class="edge">
<title>Node2&#45;&gt;Node4</title>
<g id="a_edge3_Node000002_Node000004"><a xlink:title=" ">
<path fill="none" stroke="#63b8ff" d="M203.45,-53.09C192.44,-42.17 178.23,-28.08 169.24,-19.17"/>
<polygon fill="#63b8ff" stroke="#63b8ff" points="201.23,-55.81 210.79,-60.37 206.16,-50.84 201.23,-55.81"/>
</a>
</g>
</g>
<!-- Node5 -->
<g id="Node000005" class="node">
<title>Node5</title>
<g id="a_Node000005"><a xlink:href="spinlock__inlines_8h_source.html" target="_top" xlink:title=" ">
<polygon fill="white" stroke="#666666" points="330.5,-19 226.5,-19 226.5,0 330.5,0 330.5,-19"/>
<text text-anchor="middle" x="278.5" y="-7" font-family="Helvetica,sans-Serif" font-size="10.00">spinlock_inlines.h</text>
</a>
</g>
</g>
<!-- Node2&#45;&gt;Node5 -->
<g id="edge4_Node000002_Node000005" class="edge">
<title>Node2&#45;&gt;Node5</title>
<g id="a_edge4_Node000002_Node000005"><a xlink:title=" ">
<path fill="none" stroke="#63b8ff" d="M235.55,-53.09C246.56,-42.17 260.77,-28.08 269.76,-19.17"/>
<polygon fill="#63b8ff" stroke="#63b8ff" points="232.84,-50.84 228.21,-60.37 237.77,-55.81 232.84,-50.84"/>
</a>
</g>
</g>
<!-- Node6 -->
<g id="Node000006" class="node">
<title>Node6</title>
<g id="a_Node000006"><a xlink:href="ticketlock__inlines_8h_source.html" target="_top" xlink:title=" ">
<polygon fill="white" stroke="#666666" points="458.5,-19 348.5,-19 348.5,0 458.5,0 458.5,-19"/>
<text text-anchor="middle" x="403.5" y="-7" font-family="Helvetica,sans-Serif" font-size="10.00">ticketlock_inlines.h</text>
</a>
</g>
</g>
<!-- Node2&#45;&gt;Node6 -->
<g id="edge5_Node000002_Node000006" class="edge">
<title>Node2&#45;&gt;Node6</title>
<g id="a_edge5_Node000002_Node000006"><a xlink:title=" ">
<path fill="none" stroke="#63b8ff" d="M246.81,-56.42C248.05,-55.92 249.28,-55.45 250.5,-55 290.47,-40.25 337.71,-27.14 369.02,-19.04"/>
<polygon fill="#63b8ff" stroke="#63b8ff" points="245.2,-53.3 237.35,-60.42 247.93,-59.74 245.2,-53.3"/>
</a>
</g>
</g>
</g>
</svg>
