<?xml version="1.0" encoding="UTF-8" standalone="no"?>
<!DOCTYPE svg PUBLIC "-//W3C//DTD SVG 1.1//EN"
 "http://www.w3.org/Graphics/SVG/1.1/DTD/svg11.dtd">
<!-- Generated by graphviz version 2.43.0 (0)
 -->
<!-- Title: thread.h Pages: 1 -->
<svg width="539pt" height="151pt"
 viewBox="0.00 0.00 539.00 151.00" xmlns="http://www.w3.org/2000/svg" xmlns:xlink="http://www.w3.org/1999/xlink">
<g id="graph0" class="graph" transform="scale(1 1) rotate(0) translate(4 147)">
<title>thread.h</title>
<polygon fill="white" stroke="transparent" points="-4,4 -4,-147 535,-147 535,4 -4,4"/>
<!-- Node1 -->
<g id="node1" class="node">
<title>Node1</title>
<g id="a_node1"><a xlink:title="ODP thread API.">
<polygon fill="#bfbfbf" stroke="black" points="247,-123.5 247,-142.5 304,-142.5 304,-123.5 247,-123.5"/>
<text text-anchor="middle" x="275.5" y="-130.5" font-family="Helvetica,sans-Serif" font-size="10.00">thread.h</text>
</a>
</g>
</g>
<!-- Node2 -->
<g id="node2" class="node">
<title>Node2</title>
<g id="a_node2"><a xlink:href="abi-default_2rwlock__recursive_8h.html" target="_top" xlink:title="ODP recursive read/write lock.">
<polygon fill="white" stroke="black" points="71.5,-62 71.5,-81 179.5,-81 179.5,-62 71.5,-62"/>
<text text-anchor="middle" x="125.5" y="-69" font-family="Helvetica,sans-Serif" font-size="10.00">rwlock_recursive.h</text>
</a>
</g>
</g>
<!-- Node1&#45;&gt;Node2 -->
<g id="edge1" class="edge">
<title>Node1&#45;&gt;Node2</title>
<path fill="none" stroke="midnightblue" d="M244.7,-119.78C215.55,-108.22 172.55,-91.16 146.95,-81.01"/>
<polygon fill="midnightblue" stroke="midnightblue" points="243.42,-123.04 254.01,-123.48 246,-116.53 243.42,-123.04"/>
</g>
<!-- Node3 -->
<g id="node3" class="node">
<title>Node3</title>
<g id="a_node3"><a xlink:href="cpu_8h.html" target="_top" xlink:title="ODP CPU.">
<polygon fill="white" stroke="black" points="198,-62 198,-81 241,-81 241,-62 198,-62"/>
<text text-anchor="middle" x="219.5" y="-69" font-family="Helvetica,sans-Serif" font-size="10.00">cpu.h</text>
</a>
</g>
</g>
<!-- Node1&#45;&gt;Node3 -->
<g id="edge2" class="edge">
<title>Node1&#45;&gt;Node3</title>
<path fill="none" stroke="midnightblue" d="M260.44,-116C249.84,-104.74 236.07,-90.1 227.51,-81.01"/>
<polygon fill="midnightblue" stroke="midnightblue" points="258.07,-118.59 267.48,-123.48 263.17,-113.79 258.07,-118.59"/>
</g>
<!-- Node8 -->
<g id="node8" class="node">
<title>Node8</title>
<g id="a_node8"><a xlink:href="rwlock__recursive__inlines_8h_source.html" target="_top" xlink:title=" ">
<polygon fill="white" stroke="black" points="259.5,-62 259.5,-81 405.5,-81 405.5,-62 259.5,-62"/>
<text text-anchor="middle" x="332.5" y="-69" font-family="Helvetica,sans-Serif" font-size="10.00">rwlock_recursive_inlines.h</text>
</a>
</g>
</g>
<!-- Node1&#45;&gt;Node8 -->
<g id="edge7" class="edge">
<title>Node1&#45;&gt;Node8</title>
<path fill="none" stroke="midnightblue" d="M290.83,-116C301.62,-104.74 315.64,-90.1 324.35,-81.01"/>
<polygon fill="midnightblue" stroke="midnightblue" points="288.06,-113.83 283.67,-123.48 293.11,-118.68 288.06,-113.83"/>
</g>
<!-- Node9 -->
<g id="node9" class="node">
<title>Node9</title>
<g id="a_node9"><a xlink:href="spinlock__recursive__inlines_8h_source.html" target="_top" xlink:title=" ">
<polygon fill="white" stroke="black" points="424,-56.5 424,-86.5 531,-86.5 531,-56.5 424,-56.5"/>
<text text-anchor="start" x="432" y="-74.5" font-family="Helvetica,sans-Serif" font-size="10.00">spinlock_recursive</text>
<text text-anchor="middle" x="477.5" y="-63.5" font-family="Helvetica,sans-Serif" font-size="10.00">_inlines.h</text>
</a>
</g>
</g>
<!-- Node1&#45;&gt;Node9 -->
<g id="edge8" class="edge">
<title>Node1&#45;&gt;Node9</title>
<path fill="none" stroke="midnightblue" d="M313.72,-120.74C346.62,-111.05 394.26,-97.02 429.68,-86.59"/>
<polygon fill="midnightblue" stroke="midnightblue" points="312.62,-117.42 304.01,-123.6 314.59,-124.13 312.62,-117.42"/>
</g>
<!-- Node4 -->
<g id="node4" class="node">
<title>Node4</title>
<g id="a_node4"><a xlink:href="packet__inlines_8h.html" target="_top" xlink:title="Packet inline functions.">
<polygon fill="white" stroke="black" points="0,-0.5 0,-19.5 95,-19.5 95,-0.5 0,-0.5"/>
<text text-anchor="middle" x="47.5" y="-7.5" font-family="Helvetica,sans-Serif" font-size="10.00">packet_inlines.h</text>
</a>
</g>
</g>
<!-- Node3&#45;&gt;Node4 -->
<g id="edge3" class="edge">
<title>Node3&#45;&gt;Node4</title>
<path fill="none" stroke="midnightblue" d="M192.81,-57.76C191.36,-57.14 189.92,-56.56 188.5,-56 151.17,-41.38 106.98,-27.87 78.15,-19.54"/>
<polygon fill="midnightblue" stroke="midnightblue" points="191.73,-61.11 202.29,-61.97 194.58,-54.71 191.73,-61.11"/>
</g>
<!-- Node5 -->
<g id="node5" class="node">
<title>Node5</title>
<g id="a_node5"><a xlink:href="rwlock__inlines_8h_source.html" target="_top" xlink:title=" ">
<polygon fill="white" stroke="black" points="113,-0.5 113,-19.5 208,-19.5 208,-0.5 113,-0.5"/>
<text text-anchor="middle" x="160.5" y="-7.5" font-family="Helvetica,sans-Serif" font-size="10.00">rwlock_inlines.h</text>
</a>
</g>
</g>
<!-- Node3&#45;&gt;Node5 -->
<g id="edge4" class="edge">
<title>Node3&#45;&gt;Node5</title>
<path fill="none" stroke="midnightblue" d="M203.96,-54.82C192.75,-43.52 178.04,-28.69 168.94,-19.51"/>
<polygon fill="midnightblue" stroke="midnightblue" points="201.52,-57.34 211.05,-61.98 206.49,-52.41 201.52,-57.34"/>
</g>
<!-- Node6 -->
<g id="node6" class="node">
<title>Node6</title>
<g id="a_node6"><a xlink:href="spinlock__inlines_8h_source.html" target="_top" xlink:title=" ">
<polygon fill="white" stroke="black" points="226.5,-0.5 226.5,-19.5 330.5,-19.5 330.5,-0.5 226.5,-0.5"/>
<text text-anchor="middle" x="278.5" y="-7.5" font-family="Helvetica,sans-Serif" font-size="10.00">spinlock_inlines.h</text>
</a>
</g>
</g>
<!-- Node3&#45;&gt;Node6 -->
<g id="edge5" class="edge">
<title>Node3&#45;&gt;Node6</title>
<path fill="none" stroke="midnightblue" d="M235.04,-54.82C246.25,-43.52 260.96,-28.69 270.06,-19.51"/>
<polygon fill="midnightblue" stroke="midnightblue" points="232.51,-52.41 227.95,-61.98 237.48,-57.34 232.51,-52.41"/>
</g>
<!-- Node7 -->
<g id="node7" class="node">
<title>Node7</title>
<g id="a_node7"><a xlink:href="ticketlock__inlines_8h_source.html" target="_top" xlink:title=" ">
<polygon fill="white" stroke="black" points="348.5,-0.5 348.5,-19.5 458.5,-19.5 458.5,-0.5 348.5,-0.5"/>
<text text-anchor="middle" x="403.5" y="-7.5" font-family="Helvetica,sans-Serif" font-size="10.00">ticketlock_inlines.h</text>
</a>
</g>
</g>
<!-- Node3&#45;&gt;Node7 -->
<g id="edge6" class="edge">
<title>Node3&#45;&gt;Node7</title>
<path fill="none" stroke="midnightblue" d="M246.17,-57.72C247.63,-57.12 249.08,-56.54 250.5,-56 290.38,-40.91 337.65,-27.69 368.98,-19.55"/>
<polygon fill="midnightblue" stroke="midnightblue" points="244.42,-54.66 236.68,-61.9 247.24,-61.07 244.42,-54.66"/>
</g>
</g>
</svg>
