<?xml version="1.0" encoding="UTF-8" standalone="no"?>
<!DOCTYPE svg PUBLIC "-//W3C//DTD SVG 1.1//EN"
 "http://www.w3.org/Graphics/SVG/1.1/DTD/svg11.dtd">
<!-- Generated by graphviz version 2.43.0 (0)
 -->
<!-- Title: thread.h Pages: 1 -->
<svg width="406pt" height="203pt"
 viewBox="0.00 0.00 405.50 203.00" xmlns="http://www.w3.org/2000/svg" xmlns:xlink="http://www.w3.org/1999/xlink">
<g id="graph0" class="graph" transform="scale(1 1) rotate(0) translate(4 199)">
<title>thread.h</title>
<!-- Node1 -->
<g id="Node000001" class="node">
<title>Node1</title>
<g id="a_Node000001"><a xlink:title="ODP thread API.">
<polygon fill="#999999" stroke="#666666" points="164,-195 107,-195 107,-176 164,-176 164,-195"/>
<text text-anchor="middle" x="135.5" y="-183" font-family="Helvetica,sans-Serif" font-size="10.00">thread.h</text>
</a>
</g>
</g>
<!-- Node2 -->
<g id="Node000002" class="node">
<title>Node2</title>
<g id="a_Node000002"><a xlink:title=" ">
<polygon fill="#e0e0e0" stroke="#999999" points="124.5,-140 10.5,-140 10.5,-121 124.5,-121 124.5,-140"/>
<text text-anchor="middle" x="67.5" y="-128" font-family="Helvetica,sans-Serif" font-size="10.00">odp/api/abi/thread.h</text>
</a>
</g>
</g>
<!-- Node1&#45;&gt;Node2 -->
<g id="edge1_Node000001_Node000002" class="edge">
<title>Node1&#45;&gt;Node2</title>
<g id="a_edge1_Node000001_Node000002"><a xlink:title=" ">
<path fill="none" stroke="#63b8ff" d="M124.57,-175.98C114.42,-168.07 99.08,-156.11 86.85,-146.58"/>
<polygon fill="#63b8ff" stroke="#63b8ff" points="88.66,-143.56 78.62,-140.17 84.36,-149.08 88.66,-143.56"/>
</a>
</g>
</g>
<!-- Node3 -->
<g id="Node000003" class="node">
<title>Node3</title>
<g id="a_Node000003"><a xlink:href="spec_2thread_8h.html" target="_top" xlink:title="ODP thread API.">
<polygon fill="white" stroke="#666666" points="264.5,-140 142.5,-140 142.5,-121 264.5,-121 264.5,-140"/>
<text text-anchor="middle" x="203.5" y="-128" font-family="Helvetica,sans-Serif" font-size="10.00">odp/api/spec/thread.h</text>
</a>
</g>
</g>
<!-- Node1&#45;&gt;Node3 -->
<g id="edge2_Node000001_Node000003" class="edge">
<title>Node1&#45;&gt;Node3</title>
<g id="a_edge2_Node000001_Node000003"><a xlink:title=" ">
<path fill="none" stroke="#63b8ff" d="M146.43,-175.98C156.58,-168.07 171.92,-156.11 184.15,-146.58"/>
<polygon fill="#63b8ff" stroke="#63b8ff" points="186.64,-149.08 192.38,-140.17 182.34,-143.56 186.64,-149.08"/>
</a>
</g>
</g>
<!-- Node4 -->
<g id="Node000004" class="node">
<title>Node4</title>
<g id="a_Node000004"><a xlink:title=" ">
<polygon fill="#e0e0e0" stroke="#999999" points="121,-85 0,-85 0,-66 121,-66 121,-85"/>
<text text-anchor="middle" x="60.5" y="-73" font-family="Helvetica,sans-Serif" font-size="10.00">odp/visibility_begin.h</text>
</a>
</g>
</g>
<!-- Node3&#45;&gt;Node4 -->
<g id="edge3_Node000003_Node000004" class="edge">
<title>Node3&#45;&gt;Node4</title>
<g id="a_edge3_Node000003_Node000004"><a xlink:title=" ">
<path fill="none" stroke="#63b8ff" d="M180.52,-120.98C157,-112.27 120.21,-98.63 93.56,-88.75"/>
<polygon fill="#63b8ff" stroke="#63b8ff" points="94.49,-85.36 83.89,-85.17 92.05,-91.93 94.49,-85.36"/>
</a>
</g>
</g>
<!-- Node5 -->
<g id="Node000005" class="node">
<title>Node5</title>
<g id="a_Node000005"><a xlink:href="thread__types_8h.html" target="_top" xlink:title="ODP thread.">
<polygon fill="white" stroke="#666666" points="267.5,-85 139.5,-85 139.5,-66 267.5,-66 267.5,-85"/>
<text text-anchor="middle" x="203.5" y="-73" font-family="Helvetica,sans-Serif" font-size="10.00">odp/api/thread_types.h</text>
</a>
</g>
</g>
<!-- Node3&#45;&gt;Node5 -->
<g id="edge4_Node000003_Node000005" class="edge">
<title>Node3&#45;&gt;Node5</title>
<g id="a_edge4_Node000003_Node000005"><a xlink:title=" ">
<path fill="none" stroke="#63b8ff" d="M203.5,-120.75C203.5,-113.8 203.5,-103.85 203.5,-95.13"/>
<polygon fill="#63b8ff" stroke="#63b8ff" points="207,-95.09 203.5,-85.09 200,-95.09 207,-95.09"/>
</a>
</g>
</g>
<!-- Node8 -->
<g id="Node000008" class="node">
<title>Node8</title>
<g id="a_Node000008"><a xlink:title=" ">
<polygon fill="#e0e0e0" stroke="#999999" points="397.5,-85 285.5,-85 285.5,-66 397.5,-66 397.5,-85"/>
<text text-anchor="middle" x="341.5" y="-73" font-family="Helvetica,sans-Serif" font-size="10.00">odp/visibility_end.h</text>
</a>
</g>
</g>
<!-- Node3&#45;&gt;Node8 -->
<g id="edge7_Node000003_Node000008" class="edge">
<title>Node3&#45;&gt;Node8</title>
<g id="a_edge7_Node000003_Node000008"><a xlink:title=" ">
<path fill="none" stroke="#63b8ff" d="M225.67,-120.98C248.27,-112.3 283.56,-98.75 309.25,-88.88"/>
<polygon fill="#63b8ff" stroke="#63b8ff" points="310.84,-92.02 318.92,-85.17 308.33,-85.49 310.84,-92.02"/>
</a>
</g>
</g>
<!-- Node6 -->
<g id="Node000006" class="node">
<title>Node6</title>
<g id="a_Node000006"><a xlink:title=" ">
<polygon fill="#e0e0e0" stroke="#999999" points="192,-30 87,-30 87,0 192,0 192,-30"/>
<text text-anchor="start" x="95" y="-18" font-family="Helvetica,sans-Serif" font-size="10.00">odp/api/abi/thread</text>
<text text-anchor="middle" x="139.5" y="-7" font-family="Helvetica,sans-Serif" font-size="10.00">_types.h</text>
</a>
</g>
</g>
<!-- Node5&#45;&gt;Node6 -->
<g id="edge5_Node000005_Node000006" class="edge">
<title>Node5&#45;&gt;Node6</title>
<g id="a_edge5_Node000005_Node000006"><a xlink:title=" ">
<path fill="none" stroke="#63b8ff" d="M194.06,-65.87C185.77,-58.3 173.39,-46.98 162.51,-37.04"/>
<polygon fill="#63b8ff" stroke="#63b8ff" points="164.68,-34.28 154.94,-30.11 159.96,-39.44 164.68,-34.28"/>
</a>
</g>
</g>
<!-- Node7 -->
<g id="Node000007" class="node">
<title>Node7</title>
<g id="a_Node000007"><a xlink:href="spec_2thread__types_8h.html" target="_top" xlink:title="ODP thread API types.">
<polygon fill="white" stroke="#666666" points="323,-30 210,-30 210,0 323,0 323,-30"/>
<text text-anchor="start" x="218" y="-18" font-family="Helvetica,sans-Serif" font-size="10.00">odp/api/spec/thread</text>
<text text-anchor="middle" x="266.5" y="-7" font-family="Helvetica,sans-Serif" font-size="10.00">_types.h</text>
</a>
</g>
</g>
<!-- Node5&#45;&gt;Node7 -->
<g id="edge6_Node000005_Node000007" class="edge">
<title>Node5&#45;&gt;Node7</title>
<g id="a_edge6_Node000005_Node000007"><a xlink:title=" ">
<path fill="none" stroke="#63b8ff" d="M212.8,-65.87C220.95,-58.3 233.14,-46.98 243.84,-37.04"/>
<polygon fill="#63b8ff" stroke="#63b8ff" points="246.35,-39.48 251.3,-30.11 241.59,-34.35 246.35,-39.48"/>
</a>
</g>
</g>
</g>
</svg>
