<?xml version="1.0" encoding="UTF-8" standalone="no"?>
<!DOCTYPE svg PUBLIC "-//W3C//DTD SVG 1.1//EN"
 "http://www.w3.org/Graphics/SVG/1.1/DTD/svg11.dtd">
<!-- Generated by graphviz version 2.43.0 (0)
 -->
<!-- Title: thread_types.h Pages: 1 -->
<svg width="1825pt" height="319pt"
 viewBox="0.00 0.00 1825.00 319.00" xmlns="http://www.w3.org/2000/svg" xmlns:xlink="http://www.w3.org/1999/xlink">
<g id="graph0" class="graph" transform="scale(1 1) rotate(0) translate(4 315)">
<title>thread_types.h</title>
<polygon fill="white" stroke="transparent" points="-4,4 -4,-315 1821,-315 1821,4 -4,4"/>
<!-- Node1 -->
<g id="node1" class="node">
<title>Node1</title>
<g id="a_node1"><a xlink:title="ODP thread.">
<polygon fill="#bfbfbf" stroke="black" points="848.5,-291.5 848.5,-310.5 937.5,-310.5 937.5,-291.5 848.5,-291.5"/>
<text text-anchor="middle" x="893" y="-298.5" font-family="Helvetica,sans-Serif" font-size="10.00">thread_types.h</text>
</a>
</g>
</g>
<!-- Node2 -->
<g id="node2" class="node">
<title>Node2</title>
<g id="a_node2"><a xlink:href="spec_2init_8h.html" target="_top" xlink:title=" ">
<polygon fill="white" stroke="black" points="803.5,-235.5 803.5,-254.5 844.5,-254.5 844.5,-235.5 803.5,-235.5"/>
<text text-anchor="middle" x="824" y="-242.5" font-family="Helvetica,sans-Serif" font-size="10.00">init.h</text>
</a>
</g>
</g>
<!-- Node1&#45;&gt;Node2 -->
<g id="edge1" class="edge">
<title>Node1&#45;&gt;Node2</title>
<path fill="none" stroke="midnightblue" d="M873.96,-285.1C861.54,-275.38 845.76,-263.03 835.29,-254.83"/>
<polygon fill="midnightblue" stroke="midnightblue" points="871.88,-287.92 881.91,-291.32 876.2,-282.4 871.88,-287.92"/>
</g>
<!-- Node19 -->
<g id="node19" class="node">
<title>Node19</title>
<g id="a_node19"><a xlink:href="thread__inline__types_8h_source.html" target="_top" xlink:title=" ">
<polygon fill="white" stroke="black" points="762,-123.5 762,-142.5 884,-142.5 884,-123.5 762,-123.5"/>
<text text-anchor="middle" x="823" y="-130.5" font-family="Helvetica,sans-Serif" font-size="10.00">thread_inline_types.h</text>
</a>
</g>
</g>
<!-- Node1&#45;&gt;Node19 -->
<g id="edge31" class="edge">
<title>Node1&#45;&gt;Node19</title>
<path fill="none" stroke="midnightblue" d="M885.35,-281.86C870.34,-246.25 837.53,-168.45 826.61,-142.57"/>
<polygon fill="midnightblue" stroke="midnightblue" points="882.13,-283.22 889.24,-291.08 888.58,-280.5 882.13,-283.22"/>
</g>
<!-- Node20 -->
<g id="node20" class="node">
<title>Node20</title>
<g id="a_node20"><a xlink:href="thread__inlines_8h_source.html" target="_top" xlink:title=" ">
<polygon fill="white" stroke="black" points="840.5,-67.5 840.5,-86.5 935.5,-86.5 935.5,-67.5 840.5,-67.5"/>
<text text-anchor="middle" x="888" y="-74.5" font-family="Helvetica,sans-Serif" font-size="10.00">thread_inlines.h</text>
</a>
</g>
</g>
<!-- Node1&#45;&gt;Node20 -->
<g id="edge32" class="edge">
<title>Node1&#45;&gt;Node20</title>
<path fill="none" stroke="midnightblue" d="M893.69,-280.88C894.71,-248.4 896.18,-180.39 893,-123 892.3,-110.29 890.48,-95.64 889.24,-86.6"/>
<polygon fill="midnightblue" stroke="midnightblue" points="890.18,-281.04 893.35,-291.15 897.18,-281.27 890.18,-281.04"/>
</g>
<!-- Node21 -->
<g id="node21" class="node">
<title>Node21</title>
<g id="a_node21"><a xlink:href="spec_2thread_8h.html" target="_top" xlink:title="ODP thread API.">
<polygon fill="white" stroke="black" points="1088.5,-235.5 1088.5,-254.5 1145.5,-254.5 1145.5,-235.5 1088.5,-235.5"/>
<text text-anchor="middle" x="1117" y="-242.5" font-family="Helvetica,sans-Serif" font-size="10.00">thread.h</text>
</a>
</g>
</g>
<!-- Node1&#45;&gt;Node21 -->
<g id="edge21" class="edge">
<title>Node1&#45;&gt;Node21</title>
<path fill="none" stroke="midnightblue" d="M938.27,-289.09C983.14,-278.27 1050.51,-262.03 1088.42,-252.89"/>
<polygon fill="midnightblue" stroke="midnightblue" points="937.39,-285.7 928.49,-291.44 939.04,-292.5 937.39,-285.7"/>
</g>
<!-- Node3 -->
<g id="node3" class="node">
<title>Node3</title>
<g id="a_node3"><a xlink:href="init_8h.html" target="_top" xlink:title="ODP initialization.">
<polygon fill="white" stroke="black" points="758.5,-179.5 758.5,-198.5 799.5,-198.5 799.5,-179.5 758.5,-179.5"/>
<text text-anchor="middle" x="779" y="-186.5" font-family="Helvetica,sans-Serif" font-size="10.00">init.h</text>
</a>
</g>
</g>
<!-- Node2&#45;&gt;Node3 -->
<g id="edge2" class="edge">
<title>Node2&#45;&gt;Node3</title>
<path fill="none" stroke="midnightblue" d="M809.95,-227.14C802.11,-217.74 792.67,-206.4 786.29,-198.75"/>
<polygon fill="midnightblue" stroke="midnightblue" points="807.48,-229.64 816.57,-235.08 812.86,-225.16 807.48,-229.64"/>
</g>
<!-- Node4 -->
<g id="node4" class="node">
<title>Node4</title>
<g id="a_node4"><a xlink:href="spec_2shared__memory_8h.html" target="_top" xlink:title="ODP shared memory.">
<polygon fill="white" stroke="black" points="593,-123.5 593,-142.5 697,-142.5 697,-123.5 593,-123.5"/>
<text text-anchor="middle" x="645" y="-130.5" font-family="Helvetica,sans-Serif" font-size="10.00">shared_memory.h</text>
</a>
</g>
</g>
<!-- Node3&#45;&gt;Node4 -->
<g id="edge3" class="edge">
<title>Node3&#45;&gt;Node4</title>
<path fill="none" stroke="midnightblue" d="M748.94,-175.89C723.83,-165.77 688.64,-151.59 666.33,-142.6"/>
<polygon fill="midnightblue" stroke="midnightblue" points="747.77,-179.19 758.36,-179.68 750.39,-172.7 747.77,-179.19"/>
</g>
<!-- Node6 -->
<g id="node6" class="node">
<title>Node6</title>
<g id="a_node6"><a xlink:href="debug__inlines_8h.html" target="_top" xlink:title="ODP Debug inlines.">
<polygon fill="white" stroke="black" points="705.5,-67.5 705.5,-86.5 798.5,-86.5 798.5,-67.5 705.5,-67.5"/>
<text text-anchor="middle" x="752" y="-74.5" font-family="Helvetica,sans-Serif" font-size="10.00">debug_inlines.h</text>
</a>
</g>
</g>
<!-- Node3&#45;&gt;Node6 -->
<g id="edge5" class="edge">
<title>Node3&#45;&gt;Node6</title>
<path fill="none" stroke="midnightblue" d="M766.34,-170.88C761.15,-162.85 755.73,-152.88 753,-143 747.59,-123.42 749.29,-99.24 750.78,-86.61"/>
<polygon fill="midnightblue" stroke="midnightblue" points="763.6,-173.06 772.16,-179.31 769.36,-169.09 763.6,-173.06"/>
</g>
<!-- Node3&#45;&gt;Node19 -->
<g id="edge18" class="edge">
<title>Node3&#45;&gt;Node19</title>
<path fill="none" stroke="midnightblue" d="M792.73,-171.14C800.4,-161.74 809.63,-150.4 815.87,-142.75"/>
<polygon fill="midnightblue" stroke="midnightblue" points="789.87,-169.12 786.27,-179.08 795.3,-173.54 789.87,-169.12"/>
</g>
<!-- Node5 -->
<g id="node5" class="node">
<title>Node5</title>
<g id="a_node5"><a xlink:href="shared__memory_8h.html" target="_top" xlink:title="ODP shared memory.">
<polygon fill="white" stroke="black" points="583,-67.5 583,-86.5 687,-86.5 687,-67.5 583,-67.5"/>
<text text-anchor="middle" x="635" y="-74.5" font-family="Helvetica,sans-Serif" font-size="10.00">shared_memory.h</text>
</a>
</g>
</g>
<!-- Node4&#45;&gt;Node5 -->
<g id="edge4" class="edge">
<title>Node4&#45;&gt;Node5</title>
<path fill="none" stroke="midnightblue" d="M641.5,-113.1C639.84,-104.14 637.94,-93.86 636.62,-86.75"/>
<polygon fill="midnightblue" stroke="midnightblue" points="638.09,-113.89 643.35,-123.08 644.97,-112.61 638.09,-113.89"/>
</g>
<!-- Node7 -->
<g id="node7" class="node">
<title>Node7</title>
<g id="a_node7"><a xlink:href="buffer__inlines_8h_source.html" target="_top" xlink:title=" ">
<polygon fill="white" stroke="black" points="0,-6 0,-25 92,-25 92,-6 0,-6"/>
<text text-anchor="middle" x="46" y="-13" font-family="Helvetica,sans-Serif" font-size="10.00">buffer_inlines.h</text>
</a>
</g>
</g>
<!-- Node6&#45;&gt;Node7 -->
<g id="edge6" class="edge">
<title>Node6&#45;&gt;Node7</title>
<path fill="none" stroke="midnightblue" d="M695.01,-67.02C430.86,-38.82 359.26,-72.44 101,-31 92.13,-29.58 82.61,-27.33 74.03,-25.03"/>
<polygon fill="midnightblue" stroke="midnightblue" points="694.98,-70.54 705.3,-68.14 695.73,-63.58 694.98,-70.54"/>
</g>
<!-- Node8 -->
<g id="node8" class="node">
<title>Node8</title>
<g id="a_node8"><a xlink:href="crypto__inlines_8h_source.html" target="_top" xlink:title=" ">
<polygon fill="white" stroke="black" points="110,-6 110,-25 204,-25 204,-6 110,-6"/>
<text text-anchor="middle" x="157" y="-13" font-family="Helvetica,sans-Serif" font-size="10.00">crypto_inlines.h</text>
</a>
</g>
</g>
<!-- Node6&#45;&gt;Node8 -->
<g id="edge7" class="edge">
<title>Node6&#45;&gt;Node8</title>
<path fill="none" stroke="midnightblue" d="M695.27,-67.03C480.45,-42.62 422.16,-65.59 213,-31 204.08,-29.53 194.51,-27.3 185.85,-25.02"/>
<polygon fill="midnightblue" stroke="midnightblue" points="694.95,-70.52 705.29,-68.19 695.76,-63.56 694.95,-70.52"/>
</g>
<!-- Node9 -->
<g id="node9" class="node">
<title>Node9</title>
<g id="a_node9"><a xlink:href="dma__inlines_8h_source.html" target="_top" xlink:title=" ">
<polygon fill="white" stroke="black" points="222.5,-6 222.5,-25 307.5,-25 307.5,-6 222.5,-6"/>
<text text-anchor="middle" x="265" y="-13" font-family="Helvetica,sans-Serif" font-size="10.00">dma_inlines.h</text>
</a>
</g>
</g>
<!-- Node6&#45;&gt;Node9 -->
<g id="edge8" class="edge">
<title>Node6&#45;&gt;Node9</title>
<path fill="none" stroke="midnightblue" d="M695.28,-67C525.96,-46.15 479.55,-61.73 316,-31 307.95,-29.49 299.33,-27.27 291.51,-25.03"/>
<polygon fill="midnightblue" stroke="midnightblue" points="694.92,-70.49 705.28,-68.26 695.8,-63.54 694.92,-70.49"/>
</g>
<!-- Node10 -->
<g id="node10" class="node">
<title>Node10</title>
<g id="a_node10"><a xlink:href="event__inlines_8h_source.html" target="_top" xlink:title=" ">
<polygon fill="white" stroke="black" points="325.5,-6 325.5,-25 416.5,-25 416.5,-6 325.5,-6"/>
<text text-anchor="middle" x="371" y="-13" font-family="Helvetica,sans-Serif" font-size="10.00">event_inlines.h</text>
</a>
</g>
</g>
<!-- Node6&#45;&gt;Node10 -->
<g id="edge9" class="edge">
<title>Node6&#45;&gt;Node10</title>
<path fill="none" stroke="midnightblue" d="M695.22,-66.94C574.06,-49.63 541.01,-54.18 425,-31 416.81,-29.36 408.03,-27.19 399.98,-25.03"/>
<polygon fill="midnightblue" stroke="midnightblue" points="694.87,-70.42 705.26,-68.39 695.87,-63.49 694.87,-70.42"/>
</g>
<!-- Node11 -->
<g id="node11" class="node">
<title>Node11</title>
<g id="a_node11"><a xlink:href="event__vector__inlines_8h.html" target="_top" xlink:title="Event vector inline functions.">
<polygon fill="white" stroke="black" points="434.5,-6 434.5,-25 561.5,-25 561.5,-6 434.5,-6"/>
<text text-anchor="middle" x="498" y="-13" font-family="Helvetica,sans-Serif" font-size="10.00">event_vector_inlines.h</text>
</a>
</g>
</g>
<!-- Node6&#45;&gt;Node11 -->
<g id="edge10" class="edge">
<title>Node6&#45;&gt;Node11</title>
<path fill="none" stroke="midnightblue" d="M705.84,-65.19C656.55,-53.64 579.47,-35.58 534.32,-25.01"/>
<polygon fill="midnightblue" stroke="midnightblue" points="705.07,-68.6 715.61,-67.48 706.67,-61.79 705.07,-68.6"/>
</g>
<!-- Node12 -->
<g id="node12" class="node">
<title>Node12</title>
<g id="a_node12"><a xlink:href="ipsec__inlines_8h_source.html" target="_top" xlink:title=" ">
<polygon fill="white" stroke="black" points="579.5,-6 579.5,-25 668.5,-25 668.5,-6 579.5,-6"/>
<text text-anchor="middle" x="624" y="-13" font-family="Helvetica,sans-Serif" font-size="10.00">ipsec_inlines.h</text>
</a>
</g>
</g>
<!-- Node6&#45;&gt;Node12 -->
<g id="edge11" class="edge">
<title>Node6&#45;&gt;Node12</title>
<path fill="none" stroke="midnightblue" d="M724.41,-63.17C699.57,-51.63 663.77,-34.99 642.31,-25.01"/>
<polygon fill="midnightblue" stroke="midnightblue" points="723.12,-66.43 733.66,-67.48 726.07,-60.09 723.12,-66.43"/>
</g>
<!-- Node13 -->
<g id="node13" class="node">
<title>Node13</title>
<g id="a_node13"><a xlink:href="packet__inlines_8h.html" target="_top" xlink:title="Packet inline functions.">
<polygon fill="white" stroke="black" points="1357.5,-6 1357.5,-25 1452.5,-25 1452.5,-6 1357.5,-6"/>
<text text-anchor="middle" x="1405" y="-13" font-family="Helvetica,sans-Serif" font-size="10.00">packet_inlines.h</text>
</a>
</g>
</g>
<!-- Node6&#45;&gt;Node13 -->
<g id="edge12" class="edge">
<title>Node6&#45;&gt;Node13</title>
<path fill="none" stroke="midnightblue" d="M808.82,-69.22C816.28,-68.42 823.82,-67.66 831,-67 1060.37,-45.96 1120.58,-67.54 1348,-31 1357.07,-29.54 1366.81,-27.32 1375.63,-25.04"/>
<polygon fill="midnightblue" stroke="midnightblue" points="808.31,-65.76 798.75,-70.33 809.07,-72.72 808.31,-65.76"/>
</g>
<!-- Node14 -->
<g id="node14" class="node">
<title>Node14</title>
<g id="a_node14"><a xlink:href="packet__vector__inlines_8h.html" target="_top" xlink:title="Packet vector inline functions.">
<polygon fill="white" stroke="black" points="686.5,-6 686.5,-25 817.5,-25 817.5,-6 686.5,-6"/>
<text text-anchor="middle" x="752" y="-13" font-family="Helvetica,sans-Serif" font-size="10.00">packet_vector_inlines.h</text>
</a>
</g>
</g>
<!-- Node6&#45;&gt;Node14 -->
<g id="edge13" class="edge">
<title>Node6&#45;&gt;Node14</title>
<path fill="none" stroke="midnightblue" d="M752,-57.32C752,-46.5 752,-33.4 752,-25.01"/>
<polygon fill="midnightblue" stroke="midnightblue" points="748.5,-57.48 752,-67.48 755.5,-57.48 748.5,-57.48"/>
</g>
<!-- Node15 -->
<g id="node15" class="node">
<title>Node15</title>
<g id="a_node15"><a xlink:href="rwlock__recursive__inlines_8h_source.html" target="_top" xlink:title=" ">
<polygon fill="white" stroke="black" points="1193,-6 1193,-25 1339,-25 1339,-6 1193,-6"/>
<text text-anchor="middle" x="1266" y="-13" font-family="Helvetica,sans-Serif" font-size="10.00">rwlock_recursive_inlines.h</text>
</a>
</g>
</g>
<!-- Node6&#45;&gt;Node15 -->
<g id="edge14" class="edge">
<title>Node6&#45;&gt;Node15</title>
<path fill="none" stroke="midnightblue" d="M808.84,-69.44C816.29,-68.61 823.83,-67.77 831,-67 987.79,-50.07 1027.8,-52.74 1184,-31 1196.03,-29.33 1208.99,-27.19 1220.98,-25.07"/>
<polygon fill="midnightblue" stroke="midnightblue" points="808.32,-65.98 798.78,-70.58 809.11,-72.94 808.32,-65.98"/>
</g>
<!-- Node16 -->
<g id="node16" class="node">
<title>Node16</title>
<g id="a_node16"><a xlink:href="schedule__inlines_8h_source.html" target="_top" xlink:title=" ">
<polygon fill="white" stroke="black" points="835.5,-6 835.5,-25 942.5,-25 942.5,-6 835.5,-6"/>
<text text-anchor="middle" x="889" y="-13" font-family="Helvetica,sans-Serif" font-size="10.00">schedule_inlines.h</text>
</a>
</g>
</g>
<!-- Node6&#45;&gt;Node16 -->
<g id="edge15" class="edge">
<title>Node6&#45;&gt;Node16</title>
<path fill="none" stroke="midnightblue" d="M780.83,-63.48C807.44,-51.92 846.23,-35.08 869.41,-25.01"/>
<polygon fill="midnightblue" stroke="midnightblue" points="779.41,-60.28 771.63,-67.48 782.2,-66.7 779.41,-60.28"/>
</g>
<!-- Node17 -->
<g id="node17" class="node">
<title>Node17</title>
<g id="a_node17"><a xlink:href="spinlock__recursive__inlines_8h_source.html" target="_top" xlink:title=" ">
<polygon fill="white" stroke="black" points="1067.5,-0.5 1067.5,-30.5 1174.5,-30.5 1174.5,-0.5 1067.5,-0.5"/>
<text text-anchor="start" x="1075.5" y="-18.5" font-family="Helvetica,sans-Serif" font-size="10.00">spinlock_recursive</text>
<text text-anchor="middle" x="1121" y="-7.5" font-family="Helvetica,sans-Serif" font-size="10.00">_inlines.h</text>
</a>
</g>
</g>
<!-- Node6&#45;&gt;Node17 -->
<g id="edge16" class="edge">
<title>Node6&#45;&gt;Node17</title>
<path fill="none" stroke="midnightblue" d="M808.69,-69.14C870.48,-61.33 972.15,-47.49 1059,-31 1061.72,-30.48 1064.49,-29.93 1067.29,-29.35"/>
<polygon fill="midnightblue" stroke="midnightblue" points="808.24,-65.67 798.75,-70.39 809.11,-72.62 808.24,-65.67"/>
</g>
<!-- Node18 -->
<g id="node18" class="node">
<title>Node18</title>
<g id="a_node18"><a xlink:href="timer__inlines_8h_source.html" target="_top" xlink:title=" ">
<polygon fill="white" stroke="black" points="960.5,-6 960.5,-25 1049.5,-25 1049.5,-6 960.5,-6"/>
<text text-anchor="middle" x="1005" y="-13" font-family="Helvetica,sans-Serif" font-size="10.00">timer_inlines.h</text>
</a>
</g>
</g>
<!-- Node6&#45;&gt;Node18 -->
<g id="edge17" class="edge">
<title>Node6&#45;&gt;Node18</title>
<path fill="none" stroke="midnightblue" d="M802.26,-65.36C842.79,-56.62 901.22,-43.65 952,-31 959.41,-29.15 967.36,-27.05 974.79,-25.02"/>
<polygon fill="midnightblue" stroke="midnightblue" points="801.39,-61.96 792.35,-67.49 802.86,-68.81 801.39,-61.96"/>
</g>
<!-- Node19&#45;&gt;Node6 -->
<g id="edge19" class="edge">
<title>Node19&#45;&gt;Node6</title>
<path fill="none" stroke="midnightblue" d="M803.41,-117.1C790.63,-107.38 774.39,-95.03 763.61,-86.83"/>
<polygon fill="midnightblue" stroke="midnightblue" points="801.51,-120.06 811.59,-123.32 805.75,-114.48 801.51,-120.06"/>
</g>
<!-- Node19&#45;&gt;Node20 -->
<g id="edge20" class="edge">
<title>Node19&#45;&gt;Node20</title>
<path fill="none" stroke="midnightblue" d="M841.27,-116.82C852.92,-107.15 867.6,-94.95 877.37,-86.83"/>
<polygon fill="midnightblue" stroke="midnightblue" points="838.9,-114.24 833.44,-123.32 843.37,-119.63 838.9,-114.24"/>
</g>
<!-- Node22 -->
<g id="node22" class="node">
<title>Node22</title>
<g id="a_node22"><a xlink:href="thread_8h.html" target="_top" xlink:title="ODP thread API.">
<polygon fill="white" stroke="black" points="1237.5,-123.5 1237.5,-142.5 1294.5,-142.5 1294.5,-123.5 1237.5,-123.5"/>
<text text-anchor="middle" x="1266" y="-130.5" font-family="Helvetica,sans-Serif" font-size="10.00">thread.h</text>
</a>
</g>
</g>
<!-- Node21&#45;&gt;Node22 -->
<g id="edge22" class="edge">
<title>Node21&#45;&gt;Node22</title>
<path fill="none" stroke="midnightblue" d="M1136.75,-229.42C1168.27,-206.15 1228.95,-161.35 1254.36,-142.59"/>
<polygon fill="midnightblue" stroke="midnightblue" points="1134.66,-226.61 1128.69,-235.37 1138.82,-232.24 1134.66,-226.61"/>
</g>
<!-- Node22&#45;&gt;Node15 -->
<g id="edge29" class="edge">
<title>Node22&#45;&gt;Node15</title>
<path fill="none" stroke="midnightblue" d="M1266,-113.16C1266,-87.87 1266,-43.94 1266,-25.28"/>
<polygon fill="midnightblue" stroke="midnightblue" points="1262.5,-113.32 1266,-123.32 1269.5,-113.32 1262.5,-113.32"/>
</g>
<!-- Node22&#45;&gt;Node17 -->
<g id="edge30" class="edge">
<title>Node22&#45;&gt;Node17</title>
<path fill="none" stroke="midnightblue" d="M1247.2,-117.02C1219,-94.56 1166.13,-52.45 1138.63,-30.55"/>
<polygon fill="midnightblue" stroke="midnightblue" points="1245.1,-119.83 1255.1,-123.32 1249.46,-114.35 1245.1,-119.83"/>
</g>
<!-- Node23 -->
<g id="node23" class="node">
<title>Node23</title>
<g id="a_node23"><a xlink:href="abi-default_2rwlock__recursive_8h.html" target="_top" xlink:title="ODP recursive read/write lock.">
<polygon fill="white" stroke="black" points="1505,-67.5 1505,-86.5 1613,-86.5 1613,-67.5 1505,-67.5"/>
<text text-anchor="middle" x="1559" y="-74.5" font-family="Helvetica,sans-Serif" font-size="10.00">rwlock_recursive.h</text>
</a>
</g>
</g>
<!-- Node22&#45;&gt;Node23 -->
<g id="edge23" class="edge">
<title>Node22&#45;&gt;Node23</title>
<path fill="none" stroke="midnightblue" d="M1304.77,-124.85C1358.48,-114.96 1455.39,-97.09 1512.79,-86.52"/>
<polygon fill="midnightblue" stroke="midnightblue" points="1303.83,-121.47 1294.63,-126.72 1305.1,-128.35 1303.83,-121.47"/>
</g>
<!-- Node24 -->
<g id="node24" class="node">
<title>Node24</title>
<g id="a_node24"><a xlink:href="cpu_8h.html" target="_top" xlink:title="ODP CPU.">
<polygon fill="white" stroke="black" points="1443.5,-67.5 1443.5,-86.5 1486.5,-86.5 1486.5,-67.5 1443.5,-67.5"/>
<text text-anchor="middle" x="1465" y="-74.5" font-family="Helvetica,sans-Serif" font-size="10.00">cpu.h</text>
</a>
</g>
</g>
<!-- Node22&#45;&gt;Node24 -->
<g id="edge24" class="edge">
<title>Node22&#45;&gt;Node24</title>
<path fill="none" stroke="midnightblue" d="M1304.23,-121.63C1345.53,-110.42 1409.9,-92.95 1443.28,-83.89"/>
<polygon fill="midnightblue" stroke="midnightblue" points="1303.25,-118.27 1294.51,-124.26 1305.08,-125.02 1303.25,-118.27"/>
</g>
<!-- Node24&#45;&gt;Node13 -->
<g id="edge25" class="edge">
<title>Node24&#45;&gt;Node13</title>
<path fill="none" stroke="midnightblue" d="M1449.19,-60.32C1437.79,-49.02 1422.84,-34.19 1413.58,-25.01"/>
<polygon fill="midnightblue" stroke="midnightblue" points="1446.84,-62.92 1456.4,-67.48 1451.77,-57.95 1446.84,-62.92"/>
</g>
<!-- Node25 -->
<g id="node25" class="node">
<title>Node25</title>
<g id="a_node25"><a xlink:href="rwlock__inlines_8h_source.html" target="_top" xlink:title=" ">
<polygon fill="white" stroke="black" points="1599.5,-6 1599.5,-25 1694.5,-25 1694.5,-6 1599.5,-6"/>
<text text-anchor="middle" x="1647" y="-13" font-family="Helvetica,sans-Serif" font-size="10.00">rwlock_inlines.h</text>
</a>
</g>
</g>
<!-- Node24&#45;&gt;Node25 -->
<g id="edge26" class="edge">
<title>Node24&#45;&gt;Node25</title>
<path fill="none" stroke="midnightblue" d="M1496.33,-65.76C1531.47,-54.27 1587.82,-35.85 1620.74,-25.09"/>
<polygon fill="midnightblue" stroke="midnightblue" points="1495.01,-62.51 1486.59,-68.94 1497.19,-69.16 1495.01,-62.51"/>
</g>
<!-- Node26 -->
<g id="node26" class="node">
<title>Node26</title>
<g id="a_node26"><a xlink:href="spinlock__inlines_8h_source.html" target="_top" xlink:title=" ">
<polygon fill="white" stroke="black" points="1713,-6 1713,-25 1817,-25 1817,-6 1713,-6"/>
<text text-anchor="middle" x="1765" y="-13" font-family="Helvetica,sans-Serif" font-size="10.00">spinlock_inlines.h</text>
</a>
</g>
</g>
<!-- Node24&#45;&gt;Node26 -->
<g id="edge27" class="edge">
<title>Node24&#45;&gt;Node26</title>
<path fill="none" stroke="midnightblue" d="M1496.4,-67.14C1589.13,-46.13 1615.15,-49.23 1704,-31 1712.74,-29.21 1722.14,-27.07 1730.88,-25"/>
<polygon fill="midnightblue" stroke="midnightblue" points="1495.56,-63.74 1486.6,-69.4 1497.13,-70.57 1495.56,-63.74"/>
</g>
<!-- Node27 -->
<g id="node27" class="node">
<title>Node27</title>
<g id="a_node27"><a xlink:href="ticketlock__inlines_8h_source.html" target="_top" xlink:title=" ">
<polygon fill="white" stroke="black" points="1471,-6 1471,-25 1581,-25 1581,-6 1471,-6"/>
<text text-anchor="middle" x="1526" y="-13" font-family="Helvetica,sans-Serif" font-size="10.00">ticketlock_inlines.h</text>
</a>
</g>
</g>
<!-- Node24&#45;&gt;Node27 -->
<g id="edge28" class="edge">
<title>Node24&#45;&gt;Node27</title>
<path fill="none" stroke="midnightblue" d="M1481.07,-60.32C1492.66,-49.02 1507.86,-34.19 1517.28,-25.01"/>
<polygon fill="midnightblue" stroke="midnightblue" points="1478.45,-57.99 1473.74,-67.48 1483.34,-63 1478.45,-57.99"/>
</g>
</g>
</svg>
