<?xml version="1.0" encoding="UTF-8" standalone="no"?>
<!DOCTYPE svg PUBLIC "-//W3C//DTD SVG 1.1//EN"
 "http://www.w3.org/Graphics/SVG/1.1/DTD/svg11.dtd">
<!-- Generated by graphviz version 2.43.0 (0)
 -->
<!-- Title: thrmask.h Pages: 1 -->
<svg width="434pt" height="364pt"
 viewBox="0.00 0.00 433.50 364.00" xmlns="http://www.w3.org/2000/svg" xmlns:xlink="http://www.w3.org/1999/xlink">
<g id="graph0" class="graph" transform="scale(1 1) rotate(0) translate(4 360)">
<title>thrmask.h</title>
<polygon fill="white" stroke="transparent" points="-4,4 -4,-360 429.5,-360 429.5,4 -4,4"/>
<!-- Node1 -->
<g id="node1" class="node">
<title>Node1</title>
<g id="a_node1"><a xlink:title="ODP thread masks.">
<polygon fill="#bfbfbf" stroke="black" points="100.5,-336.5 100.5,-355.5 166.5,-355.5 166.5,-336.5 100.5,-336.5"/>
<text text-anchor="middle" x="133.5" y="-343.5" font-family="Helvetica,sans-Serif" font-size="10.00">thrmask.h</text>
</a>
</g>
</g>
<!-- Node2 -->
<g id="node2" class="node">
<title>Node2</title>
<g id="a_node2"><a xlink:title=" ">
<polygon fill="white" stroke="#bfbfbf" points="0,-280.5 0,-299.5 123,-299.5 123,-280.5 0,-280.5"/>
<text text-anchor="middle" x="61.5" y="-287.5" font-family="Helvetica,sans-Serif" font-size="10.00">odp/api/abi/thrmask.h</text>
</a>
</g>
</g>
<!-- Node1&#45;&gt;Node2 -->
<g id="edge1" class="edge">
<title>Node1&#45;&gt;Node2</title>
<path fill="none" stroke="midnightblue" d="M121.93,-336.32C111.08,-328.18 94.62,-315.84 81.62,-306.09"/>
<polygon fill="midnightblue" stroke="midnightblue" points="83.38,-303.03 73.28,-299.83 79.18,-308.63 83.38,-303.03"/>
</g>
<!-- Node3 -->
<g id="node3" class="node">
<title>Node3</title>
<g id="a_node3"><a xlink:href="spec_2thrmask_8h.html" target="_top" xlink:title="ODP thread masks.">
<polygon fill="white" stroke="black" points="141,-280.5 141,-299.5 272,-299.5 272,-280.5 141,-280.5"/>
<text text-anchor="middle" x="206.5" y="-287.5" font-family="Helvetica,sans-Serif" font-size="10.00">odp/api/spec/thrmask.h</text>
</a>
</g>
</g>
<!-- Node1&#45;&gt;Node3 -->
<g id="edge2" class="edge">
<title>Node1&#45;&gt;Node3</title>
<path fill="none" stroke="midnightblue" d="M145.23,-336.32C156.34,-328.11 173.24,-315.6 186.48,-305.81"/>
<polygon fill="midnightblue" stroke="midnightblue" points="188.6,-308.59 194.56,-299.83 184.44,-302.97 188.6,-308.59"/>
</g>
<!-- Node4 -->
<g id="node4" class="node">
<title>Node4</title>
<g id="a_node4"><a xlink:title=" ">
<polygon fill="white" stroke="#bfbfbf" points="13,-0.5 13,-19.5 134,-19.5 134,-0.5 13,-0.5"/>
<text text-anchor="middle" x="73.5" y="-7.5" font-family="Helvetica,sans-Serif" font-size="10.00">odp/visibility_begin.h</text>
</a>
</g>
</g>
<!-- Node3&#45;&gt;Node4 -->
<g id="edge3" class="edge">
<title>Node3&#45;&gt;Node4</title>
<path fill="none" stroke="midnightblue" d="M161.57,-280.42C110.91,-267.83 35.5,-239.01 35.5,-179 35.5,-179 35.5,-179 35.5,-121 35.5,-86.81 52.1,-49.76 63.36,-28.57"/>
<polygon fill="midnightblue" stroke="midnightblue" points="66.45,-30.22 68.22,-19.77 60.32,-26.83 66.45,-30.22"/>
</g>
<!-- Node5 -->
<g id="node5" class="node">
<title>Node5</title>
<g id="a_node5"><a xlink:href="std__types_8h.html" target="_top" xlink:title="Standard C language types and definitions for ODP.">
<polygon fill="white" stroke="black" points="150.5,-224.5 150.5,-243.5 262.5,-243.5 262.5,-224.5 150.5,-224.5"/>
<text text-anchor="middle" x="206.5" y="-231.5" font-family="Helvetica,sans-Serif" font-size="10.00">odp/api/std_types.h</text>
</a>
</g>
</g>
<!-- Node3&#45;&gt;Node5 -->
<g id="edge4" class="edge">
<title>Node3&#45;&gt;Node5</title>
<path fill="none" stroke="midnightblue" d="M206.5,-280.08C206.5,-273.01 206.5,-262.86 206.5,-253.99"/>
<polygon fill="midnightblue" stroke="midnightblue" points="210,-253.75 206.5,-243.75 203,-253.75 210,-253.75"/>
</g>
<!-- Node12 -->
<g id="node12" class="node">
<title>Node12</title>
<g id="a_node12"><a xlink:title=" ">
<polygon fill="white" stroke="#bfbfbf" points="313.5,-0.5 313.5,-19.5 425.5,-19.5 425.5,-0.5 313.5,-0.5"/>
<text text-anchor="middle" x="369.5" y="-7.5" font-family="Helvetica,sans-Serif" font-size="10.00">odp/visibility_end.h</text>
</a>
</g>
</g>
<!-- Node3&#45;&gt;Node12 -->
<g id="edge15" class="edge">
<title>Node3&#45;&gt;Node12</title>
<path fill="none" stroke="midnightblue" d="M272.04,-280.67C330.69,-269.11 407.5,-241.95 407.5,-179 407.5,-179 407.5,-179 407.5,-121 407.5,-86.81 390.9,-49.76 379.64,-28.57"/>
<polygon fill="midnightblue" stroke="midnightblue" points="382.68,-26.83 374.78,-19.77 376.55,-30.22 382.68,-26.83"/>
</g>
<!-- Node6 -->
<g id="node6" class="node">
<title>Node6</title>
<g id="a_node6"><a xlink:title=" ">
<polygon fill="white" stroke="#bfbfbf" points="65.5,-168.5 65.5,-187.5 195.5,-187.5 195.5,-168.5 65.5,-168.5"/>
<text text-anchor="middle" x="130.5" y="-175.5" font-family="Helvetica,sans-Serif" font-size="10.00">odp/api/abi/std_types.h</text>
</a>
</g>
</g>
<!-- Node5&#45;&gt;Node6 -->
<g id="edge5" class="edge">
<title>Node5&#45;&gt;Node6</title>
<path fill="none" stroke="midnightblue" d="M194.29,-224.32C182.72,-216.11 165.12,-203.6 151.34,-193.81"/>
<polygon fill="midnightblue" stroke="midnightblue" points="153.11,-190.77 142.93,-187.83 149.06,-196.48 153.11,-190.77"/>
</g>
<!-- Node7 -->
<g id="node7" class="node">
<title>Node7</title>
<g id="a_node7"><a xlink:href="spec_2std__types_8h.html" target="_top" xlink:title="Common types and definitions for ODP API files.">
<polygon fill="white" stroke="black" points="214,-168.5 214,-187.5 351,-187.5 351,-168.5 214,-168.5"/>
<text text-anchor="middle" x="282.5" y="-175.5" font-family="Helvetica,sans-Serif" font-size="10.00">odp/api/spec/std_types.h</text>
</a>
</g>
</g>
<!-- Node5&#45;&gt;Node7 -->
<g id="edge6" class="edge">
<title>Node5&#45;&gt;Node7</title>
<path fill="none" stroke="midnightblue" d="M218.71,-224.32C230.28,-216.11 247.88,-203.6 261.66,-193.81"/>
<polygon fill="midnightblue" stroke="midnightblue" points="263.94,-196.48 270.07,-187.83 259.89,-190.77 263.94,-196.48"/>
</g>
<!-- Node7&#45;&gt;Node4 -->
<g id="edge7" class="edge">
<title>Node7&#45;&gt;Node4</title>
<path fill="none" stroke="midnightblue" d="M244.29,-168.5C199.52,-156.33 127.08,-129.27 92.5,-76 83.4,-61.98 78.55,-43.48 76.03,-29.8"/>
<polygon fill="midnightblue" stroke="midnightblue" points="79.44,-28.99 74.42,-19.65 72.53,-30.08 79.44,-28.99"/>
</g>
<!-- Node8 -->
<g id="node8" class="node">
<title>Node8</title>
<g id="a_node8"><a xlink:title=" ">
<polygon fill="white" stroke="#bfbfbf" points="168,-112.5 168,-131.5 221,-131.5 221,-112.5 168,-112.5"/>
<text text-anchor="middle" x="194.5" y="-119.5" font-family="Helvetica,sans-Serif" font-size="10.00">stdint.h</text>
</a>
</g>
</g>
<!-- Node7&#45;&gt;Node8 -->
<g id="edge8" class="edge">
<title>Node7&#45;&gt;Node8</title>
<path fill="none" stroke="midnightblue" d="M268.36,-168.32C254.63,-159.9 233.56,-146.97 217.44,-137.07"/>
<polygon fill="midnightblue" stroke="midnightblue" points="218.96,-133.9 208.6,-131.65 215.3,-139.87 218.96,-133.9"/>
</g>
<!-- Node9 -->
<g id="node9" class="node">
<title>Node9</title>
<g id="a_node9"><a xlink:href="align_8h.html" target="_top" xlink:title="ODP alignments.">
<polygon fill="white" stroke="black" points="239,-112.5 239,-131.5 328,-131.5 328,-112.5 239,-112.5"/>
<text text-anchor="middle" x="283.5" y="-119.5" font-family="Helvetica,sans-Serif" font-size="10.00">odp/api/align.h</text>
</a>
</g>
</g>
<!-- Node7&#45;&gt;Node9 -->
<g id="edge9" class="edge">
<title>Node7&#45;&gt;Node9</title>
<path fill="none" stroke="midnightblue" d="M282.67,-168.08C282.8,-161.01 282.98,-150.86 283.15,-141.99"/>
<polygon fill="midnightblue" stroke="midnightblue" points="286.65,-141.81 283.34,-131.75 279.65,-141.68 286.65,-141.81"/>
</g>
<!-- Node7&#45;&gt;Node12 -->
<g id="edge14" class="edge">
<title>Node7&#45;&gt;Node12</title>
<path fill="none" stroke="midnightblue" d="M297.58,-168.41C310.09,-160.51 327.42,-147.67 337.5,-132 358.2,-99.83 365.56,-54.69 368.14,-29.63"/>
<polygon fill="midnightblue" stroke="midnightblue" points="371.63,-29.91 369.02,-19.64 364.66,-29.3 371.63,-29.91"/>
</g>
<!-- Node10 -->
<g id="node10" class="node">
<title>Node10</title>
<g id="a_node10"><a xlink:title=" ">
<polygon fill="white" stroke="#bfbfbf" points="102,-56.5 102,-75.5 209,-75.5 209,-56.5 102,-56.5"/>
<text text-anchor="middle" x="155.5" y="-63.5" font-family="Helvetica,sans-Serif" font-size="10.00">odp/api/abi/align.h</text>
</a>
</g>
</g>
<!-- Node9&#45;&gt;Node10 -->
<g id="edge10" class="edge">
<title>Node9&#45;&gt;Node10</title>
<path fill="none" stroke="midnightblue" d="M263.22,-112.44C242.15,-103.56 208.98,-89.56 185.01,-79.45"/>
<polygon fill="midnightblue" stroke="midnightblue" points="186.26,-76.18 175.69,-75.52 183.54,-82.63 186.26,-76.18"/>
</g>
<!-- Node11 -->
<g id="node11" class="node">
<title>Node11</title>
<g id="a_node11"><a xlink:href="spec_2align_8h.html" target="_top" xlink:title="ODP alignments.">
<polygon fill="white" stroke="black" points="227.5,-56.5 227.5,-75.5 341.5,-75.5 341.5,-56.5 227.5,-56.5"/>
<text text-anchor="middle" x="284.5" y="-63.5" font-family="Helvetica,sans-Serif" font-size="10.00">odp/api/spec/align.h</text>
</a>
</g>
</g>
<!-- Node9&#45;&gt;Node11 -->
<g id="edge11" class="edge">
<title>Node9&#45;&gt;Node11</title>
<path fill="none" stroke="midnightblue" d="M283.67,-112.08C283.8,-105.01 283.98,-94.86 284.15,-85.99"/>
<polygon fill="midnightblue" stroke="midnightblue" points="287.65,-85.81 284.34,-75.75 280.65,-85.68 287.65,-85.81"/>
</g>
<!-- Node11&#45;&gt;Node4 -->
<g id="edge12" class="edge">
<title>Node11&#45;&gt;Node4</title>
<path fill="none" stroke="midnightblue" d="M251.07,-56.44C214.64,-47.12 156.27,-32.18 116.47,-22"/>
<polygon fill="midnightblue" stroke="midnightblue" points="117.33,-18.61 106.78,-19.52 115.6,-25.39 117.33,-18.61"/>
</g>
<!-- Node11&#45;&gt;Node12 -->
<g id="edge13" class="edge">
<title>Node11&#45;&gt;Node12</title>
<path fill="none" stroke="midnightblue" d="M298.16,-56.32C311.42,-47.9 331.77,-34.97 347.35,-25.07"/>
<polygon fill="midnightblue" stroke="midnightblue" points="349.31,-27.97 355.88,-19.65 345.56,-22.06 349.31,-27.97"/>
</g>
</g>
</svg>
