<?xml version="1.0" encoding="UTF-8" standalone="no"?>
<!DOCTYPE svg PUBLIC "-//W3C//DTD SVG 1.1//EN"
 "http://www.w3.org/Graphics/SVG/1.1/DTD/svg11.dtd">
<!-- Generated by graphviz version 2.40.1 (20161225.0304)
 -->
<!-- Title: ticketlock.h Pages: 1 -->
<svg width="350pt" height="140pt"
 viewBox="0.00 0.00 349.50 140.00" xmlns="http://www.w3.org/2000/svg" xmlns:xlink="http://www.w3.org/1999/xlink">
<g id="graph0" class="graph" transform="scale(1 1) rotate(0) translate(4 136)">
<title>ticketlock.h</title>
<polygon fill="#ffffff" stroke="transparent" points="-4,4 -4,-136 345.5,-136 345.5,4 -4,4"/>
<!-- Node0 -->
<g id="node1" class="node">
<title>Node0</title>
<polygon fill="#bfbfbf" stroke="#000000" points="104.5,-112.5 104.5,-131.5 178.5,-131.5 178.5,-112.5 104.5,-112.5"/>
<text text-anchor="middle" x="141.5" y="-119.5" font-family="Helvetica,sans-Serif" font-size="10.00" fill="#000000">ticketlock.h</text>
</g>
<!-- Node1 -->
<g id="node2" class="node">
<title>Node1</title>
<polygon fill="#ffffff" stroke="#bfbfbf" points="0,-56.5 0,-75.5 131,-75.5 131,-56.5 0,-56.5"/>
<text text-anchor="middle" x="65.5" y="-63.5" font-family="Helvetica,sans-Serif" font-size="10.00" fill="#000000">odp/api/abi/ticketlock.h</text>
</g>
<!-- Node0&#45;&gt;Node1 -->
<g id="edge1" class="edge">
<title>Node0&#45;&gt;Node1</title>
<path fill="none" stroke="#191970" d="M128.2618,-112.2455C116.819,-103.814 100.0704,-91.4729 86.7525,-81.6598"/>
<polygon fill="#191970" stroke="#191970" points="88.7133,-78.757 78.5865,-75.6427 84.5609,-84.3924 88.7133,-78.757"/>
</g>
<!-- Node2 -->
<g id="node3" class="node">
<title>Node2</title>
<g id="a_node3"><a xlink:href="spec_2ticketlock_8h.html" target="_top" xlink:title="ODP ticketlock. ">
<polygon fill="#ffffff" stroke="#000000" points="149.5,-56.5 149.5,-75.5 287.5,-75.5 287.5,-56.5 149.5,-56.5"/>
<text text-anchor="middle" x="218.5" y="-63.5" font-family="Helvetica,sans-Serif" font-size="10.00" fill="#000000">odp/api/spec/ticketlock.h</text>
</a>
</g>
</g>
<!-- Node0&#45;&gt;Node2 -->
<g id="edge2" class="edge">
<title>Node0&#45;&gt;Node2</title>
<path fill="none" stroke="#191970" d="M154.9124,-112.2455C166.5057,-103.814 183.4748,-91.4729 196.9678,-81.6598"/>
<polygon fill="#191970" stroke="#191970" points="199.2126,-84.355 205.2413,-75.6427 195.0953,-78.6938 199.2126,-84.355"/>
</g>
<!-- Node3 -->
<g id="node4" class="node">
<title>Node3</title>
<polygon fill="#ffffff" stroke="#bfbfbf" points="90,-.5 90,-19.5 211,-19.5 211,-.5 90,-.5"/>
<text text-anchor="middle" x="150.5" y="-7.5" font-family="Helvetica,sans-Serif" font-size="10.00" fill="#000000">odp/visibility_begin.h</text>
</g>
<!-- Node2&#45;&gt;Node3 -->
<g id="edge3" class="edge">
<title>Node2&#45;&gt;Node3</title>
<path fill="none" stroke="#191970" d="M206.6553,-56.2455C196.612,-47.9746 182.0005,-35.9416 170.1996,-26.2232"/>
<polygon fill="#191970" stroke="#191970" points="172.1533,-23.298 162.209,-19.6427 167.7033,-28.7015 172.1533,-23.298"/>
</g>
<!-- Node4 -->
<g id="node5" class="node">
<title>Node4</title>
<polygon fill="#ffffff" stroke="#bfbfbf" points="229.5,-.5 229.5,-19.5 341.5,-19.5 341.5,-.5 229.5,-.5"/>
<text text-anchor="middle" x="285.5" y="-7.5" font-family="Helvetica,sans-Serif" font-size="10.00" fill="#000000">odp/visibility_end.h</text>
</g>
<!-- Node2&#45;&gt;Node4 -->
<g id="edge4" class="edge">
<title>Node2&#45;&gt;Node4</title>
<path fill="none" stroke="#191970" d="M230.1705,-56.2455C240.0661,-47.9746 254.4627,-35.9416 266.0901,-26.2232"/>
<polygon fill="#191970" stroke="#191970" points="268.535,-28.7413 273.9632,-19.6427 264.0458,-23.3703 268.535,-28.7413"/>
</g>
</g>
</svg>
