<?xml version="1.0" encoding="UTF-8" standalone="no"?>
<!DOCTYPE svg PUBLIC "-//W3C//DTD SVG 1.1//EN"
 "http://www.w3.org/Graphics/SVG/1.1/DTD/svg11.dtd">
<!-- Generated by graphviz version 2.43.0 (0)
 -->
<!-- Title: ticketlock.h Pages: 1 -->
<svg width="348pt" height="140pt"
 viewBox="0.00 0.00 348.00 140.00" xmlns="http://www.w3.org/2000/svg" xmlns:xlink="http://www.w3.org/1999/xlink">
<g id="graph0" class="graph" transform="scale(1 1) rotate(0) translate(4 136)">
<title>ticketlock.h</title>
<polygon fill="white" stroke="transparent" points="-4,4 -4,-136 344,-136 344,4 -4,4"/>
<!-- Node1 -->
<g id="node1" class="node">
<title>Node1</title>
<g id="a_node1"><a xlink:title="ODP ticketlock.">
<polygon fill="#bfbfbf" stroke="black" points="104.5,-112.5 104.5,-131.5 177.5,-131.5 177.5,-112.5 104.5,-112.5"/>
<text text-anchor="middle" x="141" y="-119.5" font-family="Helvetica,sans-Serif" font-size="10.00">ticketlock.h</text>
</a>
</g>
</g>
<!-- Node2 -->
<g id="node2" class="node">
<title>Node2</title>
<g id="a_node2"><a xlink:title=" ">
<polygon fill="white" stroke="#bfbfbf" points="0,-56.5 0,-75.5 130,-75.5 130,-56.5 0,-56.5"/>
<text text-anchor="middle" x="65" y="-63.5" font-family="Helvetica,sans-Serif" font-size="10.00">odp/api/abi/ticketlock.h</text>
</a>
</g>
</g>
<!-- Node1&#45;&gt;Node2 -->
<g id="edge1" class="edge">
<title>Node1&#45;&gt;Node2</title>
<path fill="none" stroke="midnightblue" d="M128.79,-112.32C117.22,-104.11 99.62,-91.6 85.84,-81.81"/>
<polygon fill="midnightblue" stroke="midnightblue" points="87.61,-78.77 77.43,-75.83 83.56,-84.48 87.61,-78.77"/>
</g>
<!-- Node3 -->
<g id="node3" class="node">
<title>Node3</title>
<g id="a_node3"><a xlink:href="spec_2ticketlock_8h.html" target="_top" xlink:title="ODP ticketlock.">
<polygon fill="white" stroke="black" points="148.5,-56.5 148.5,-75.5 285.5,-75.5 285.5,-56.5 148.5,-56.5"/>
<text text-anchor="middle" x="217" y="-63.5" font-family="Helvetica,sans-Serif" font-size="10.00">odp/api/spec/ticketlock.h</text>
</a>
</g>
</g>
<!-- Node1&#45;&gt;Node3 -->
<g id="edge2" class="edge">
<title>Node1&#45;&gt;Node3</title>
<path fill="none" stroke="midnightblue" d="M153.21,-112.32C164.78,-104.11 182.38,-91.6 196.16,-81.81"/>
<polygon fill="midnightblue" stroke="midnightblue" points="198.44,-84.48 204.57,-75.83 194.39,-78.77 198.44,-84.48"/>
</g>
<!-- Node4 -->
<g id="node4" class="node">
<title>Node4</title>
<g id="a_node4"><a xlink:title=" ">
<polygon fill="white" stroke="#bfbfbf" points="88.5,-0.5 88.5,-19.5 209.5,-19.5 209.5,-0.5 88.5,-0.5"/>
<text text-anchor="middle" x="149" y="-7.5" font-family="Helvetica,sans-Serif" font-size="10.00">odp/visibility_begin.h</text>
</a>
</g>
</g>
<!-- Node3&#45;&gt;Node4 -->
<g id="edge3" class="edge">
<title>Node3&#45;&gt;Node4</title>
<path fill="none" stroke="midnightblue" d="M206.07,-56.32C195.83,-48.18 180.28,-35.84 168,-26.09"/>
<polygon fill="midnightblue" stroke="midnightblue" points="170.13,-23.31 160.12,-19.83 165.78,-28.79 170.13,-23.31"/>
</g>
<!-- Node5 -->
<g id="node5" class="node">
<title>Node5</title>
<g id="a_node5"><a xlink:title=" ">
<polygon fill="white" stroke="#bfbfbf" points="228,-0.5 228,-19.5 340,-19.5 340,-0.5 228,-0.5"/>
<text text-anchor="middle" x="284" y="-7.5" font-family="Helvetica,sans-Serif" font-size="10.00">odp/visibility_end.h</text>
</a>
</g>
</g>
<!-- Node3&#45;&gt;Node5 -->
<g id="edge4" class="edge">
<title>Node3&#45;&gt;Node5</title>
<path fill="none" stroke="midnightblue" d="M227.76,-56.32C237.77,-48.26 252.89,-36.08 264.93,-26.37"/>
<polygon fill="midnightblue" stroke="midnightblue" points="267.45,-28.83 273.04,-19.83 263.06,-23.38 267.45,-28.83"/>
</g>
</g>
</svg>
