<?xml version="1.0" encoding="UTF-8" standalone="no"?>
<!DOCTYPE svg PUBLIC "-//W3C//DTD SVG 1.1//EN"
 "http://www.w3.org/Graphics/SVG/1.1/DTD/svg11.dtd">
<!-- Generated by graphviz version 2.40.1 (20161225.0304)
 -->
<!-- Title: time.h Pages: 1 -->
<svg width="505pt" height="308pt"
 viewBox="0.00 0.00 504.50 308.00" xmlns="http://www.w3.org/2000/svg" xmlns:xlink="http://www.w3.org/1999/xlink">
<g id="graph0" class="graph" transform="scale(1 1) rotate(0) translate(4 304)">
<title>time.h</title>
<polygon fill="#ffffff" stroke="transparent" points="-4,4 -4,-304 500.5,-304 500.5,4 -4,4"/>
<!-- Node0 -->
<g id="node1" class="node">
<title>Node0</title>
<polygon fill="#bfbfbf" stroke="#000000" points="339,-280.5 339,-299.5 387,-299.5 387,-280.5 339,-280.5"/>
<text text-anchor="middle" x="363" y="-287.5" font-family="Helvetica,sans-Serif" font-size="10.00" fill="#000000">time.h</text>
</g>
<!-- Node1 -->
<g id="node2" class="node">
<title>Node1</title>
<g id="a_node2"><a xlink:href="std__types_8h.html" target="_top" xlink:title="Standard C language types and definitions for ODP. ">
<polygon fill="#ffffff" stroke="#000000" points="161,-224.5 161,-243.5 273,-243.5 273,-224.5 161,-224.5"/>
<text text-anchor="middle" x="217" y="-231.5" font-family="Helvetica,sans-Serif" font-size="10.00" fill="#000000">odp/api/std_types.h</text>
</a>
</g>
</g>
<!-- Node0&#45;&gt;Node1 -->
<g id="edge1" class="edge">
<title>Node0&#45;&gt;Node1</title>
<path fill="none" stroke="#191970" d="M338.8911,-280.7527C315.0869,-271.6224 278.4464,-257.5685 251.5506,-247.2523"/>
<polygon fill="#191970" stroke="#191970" points="252.7145,-243.9501 242.1243,-243.6367 250.2076,-250.4858 252.7145,-243.9501"/>
</g>
<!-- Node10 -->
<g id="node11" class="node">
<title>Node10</title>
<polygon fill="#ffffff" stroke="#bfbfbf" points="391.5,-224.5 391.5,-243.5 496.5,-243.5 496.5,-224.5 391.5,-224.5"/>
<text text-anchor="middle" x="444" y="-231.5" font-family="Helvetica,sans-Serif" font-size="10.00" fill="#000000">odp/api/abi/time.h</text>
</g>
<!-- Node0&#45;&gt;Node10 -->
<g id="edge12" class="edge">
<title>Node0&#45;&gt;Node10</title>
<path fill="none" stroke="#191970" d="M377.1091,-280.2455C389.4209,-271.7337 407.4958,-259.2375 421.7538,-249.3801"/>
<polygon fill="#191970" stroke="#191970" points="423.8174,-252.2085 430.0526,-243.6427 419.8366,-246.4506 423.8174,-252.2085"/>
</g>
<!-- Node11 -->
<g id="node12" class="node">
<title>Node11</title>
<g id="a_node12"><a xlink:href="spec_2time_8h.html" target="_top" xlink:title="ODP time. ">
<polygon fill="#ffffff" stroke="#000000" points="330.5,-56.5 330.5,-75.5 443.5,-75.5 443.5,-56.5 330.5,-56.5"/>
<text text-anchor="middle" x="387" y="-63.5" font-family="Helvetica,sans-Serif" font-size="10.00" fill="#000000">odp/api/spec/time.h</text>
</a>
</g>
</g>
<!-- Node0&#45;&gt;Node11 -->
<g id="edge13" class="edge">
<title>Node0&#45;&gt;Node11</title>
<path fill="none" stroke="#191970" d="M364.0313,-280.375C367.67,-246.4133 379.9557,-131.7472 384.9065,-85.5392"/>
<polygon fill="#191970" stroke="#191970" points="388.3873,-85.9051 385.9726,-75.5891 381.4271,-85.1593 388.3873,-85.9051"/>
</g>
<!-- Node2 -->
<g id="node3" class="node">
<title>Node2</title>
<polygon fill="#ffffff" stroke="#bfbfbf" points="0,-168.5 0,-187.5 130,-187.5 130,-168.5 0,-168.5"/>
<text text-anchor="middle" x="65" y="-175.5" font-family="Helvetica,sans-Serif" font-size="10.00" fill="#000000">odp/api/abi/std_types.h</text>
</g>
<!-- Node1&#45;&gt;Node2 -->
<g id="edge2" class="edge">
<title>Node1&#45;&gt;Node2</title>
<path fill="none" stroke="#191970" d="M190.8703,-224.3733C165.9232,-215.1822 128.1408,-201.2624 100.4794,-191.0713"/>
<polygon fill="#191970" stroke="#191970" points="101.3822,-187.674 90.7888,-187.5011 98.9622,-194.2424 101.3822,-187.674"/>
</g>
<!-- Node3 -->
<g id="node4" class="node">
<title>Node3</title>
<g id="a_node4"><a xlink:href="spec_2std__types_8h.html" target="_top" xlink:title="Standard C language types and definitions for ODP. ">
<polygon fill="#ffffff" stroke="#000000" points="148.5,-168.5 148.5,-187.5 285.5,-187.5 285.5,-168.5 148.5,-168.5"/>
<text text-anchor="middle" x="217" y="-175.5" font-family="Helvetica,sans-Serif" font-size="10.00" fill="#000000">odp/api/spec/std_types.h</text>
</a>
</g>
</g>
<!-- Node1&#45;&gt;Node3 -->
<g id="edge3" class="edge">
<title>Node1&#45;&gt;Node3</title>
<path fill="none" stroke="#191970" d="M217,-224.2455C217,-216.9382 217,-206.6944 217,-197.7046"/>
<polygon fill="#191970" stroke="#191970" points="220.5001,-197.6426 217,-187.6427 213.5001,-197.6427 220.5001,-197.6426"/>
</g>
<!-- Node4 -->
<g id="node5" class="node">
<title>Node4</title>
<polygon fill="#ffffff" stroke="#bfbfbf" points="131.5,-.5 131.5,-19.5 252.5,-19.5 252.5,-.5 131.5,-.5"/>
<text text-anchor="middle" x="192" y="-7.5" font-family="Helvetica,sans-Serif" font-size="10.00" fill="#000000">odp/visibility_begin.h</text>
</g>
<!-- Node3&#45;&gt;Node4 -->
<g id="edge4" class="edge">
<title>Node3&#45;&gt;Node4</title>
<path fill="none" stroke="#191970" d="M165.6883,-168.4677C117.8991,-156.3826 50.3358,-130.1964 25,-76 21.2356,-67.9476 19.6134,-63.0709 25,-56 32.0034,-46.8067 90.8107,-32.068 136.6831,-21.7584"/>
<polygon fill="#191970" stroke="#191970" points="137.5448,-25.1523 146.5463,-19.5644 136.0249,-18.3193 137.5448,-25.1523"/>
</g>
<!-- Node5 -->
<g id="node6" class="node">
<title>Node5</title>
<polygon fill="#ffffff" stroke="#bfbfbf" points="101.5,-112.5 101.5,-131.5 154.5,-131.5 154.5,-112.5 101.5,-112.5"/>
<text text-anchor="middle" x="128" y="-119.5" font-family="Helvetica,sans-Serif" font-size="10.00" fill="#000000">stdint.h</text>
</g>
<!-- Node3&#45;&gt;Node5 -->
<g id="edge5" class="edge">
<title>Node3&#45;&gt;Node5</title>
<path fill="none" stroke="#191970" d="M201.4974,-168.2455C187.842,-159.6534 167.7343,-147.0014 152.0011,-137.1018"/>
<polygon fill="#191970" stroke="#191970" points="153.6529,-134.006 143.325,-131.6427 149.9249,-139.9307 153.6529,-134.006"/>
</g>
<!-- Node6 -->
<g id="node7" class="node">
<title>Node6</title>
<g id="a_node7"><a xlink:href="align_8h.html" target="_top" xlink:title="ODP alignments. ">
<polygon fill="#ffffff" stroke="#000000" points="172.5,-112.5 172.5,-131.5 261.5,-131.5 261.5,-112.5 172.5,-112.5"/>
<text text-anchor="middle" x="217" y="-119.5" font-family="Helvetica,sans-Serif" font-size="10.00" fill="#000000">odp/api/align.h</text>
</a>
</g>
</g>
<!-- Node3&#45;&gt;Node6 -->
<g id="edge6" class="edge">
<title>Node3&#45;&gt;Node6</title>
<path fill="none" stroke="#191970" d="M217,-168.2455C217,-160.9382 217,-150.6944 217,-141.7046"/>
<polygon fill="#191970" stroke="#191970" points="220.5001,-141.6426 217,-131.6427 213.5001,-141.6427 220.5001,-141.6426"/>
</g>
<!-- Node9 -->
<g id="node10" class="node">
<title>Node9</title>
<polygon fill="#ffffff" stroke="#bfbfbf" points="271,-.5 271,-19.5 383,-19.5 383,-.5 271,-.5"/>
<text text-anchor="middle" x="327" y="-7.5" font-family="Helvetica,sans-Serif" font-size="10.00" fill="#000000">odp/visibility_end.h</text>
</g>
<!-- Node3&#45;&gt;Node9 -->
<g id="edge11" class="edge">
<title>Node3&#45;&gt;Node9</title>
<path fill="none" stroke="#191970" d="M231.3743,-168.448C243.2295,-159.9919 259.8531,-146.7309 271,-132 295.5,-99.6227 312.5891,-54.8109 321.0074,-29.4841"/>
<polygon fill="#191970" stroke="#191970" points="324.4485,-30.2151 324.1709,-19.6239 317.7831,-28.0765 324.4485,-30.2151"/>
</g>
<!-- Node7 -->
<g id="node8" class="node">
<title>Node7</title>
<polygon fill="#ffffff" stroke="#bfbfbf" points="34.5,-56.5 34.5,-75.5 141.5,-75.5 141.5,-56.5 34.5,-56.5"/>
<text text-anchor="middle" x="88" y="-63.5" font-family="Helvetica,sans-Serif" font-size="10.00" fill="#000000">odp/api/abi/align.h</text>
</g>
<!-- Node6&#45;&gt;Node7 -->
<g id="edge7" class="edge">
<title>Node6&#45;&gt;Node7</title>
<path fill="none" stroke="#191970" d="M194.8241,-112.3733C174.0234,-103.3435 142.7083,-89.7494 119.3542,-79.6111"/>
<polygon fill="#191970" stroke="#191970" points="120.4532,-76.2727 109.8865,-75.5011 117.6657,-82.6938 120.4532,-76.2727"/>
</g>
<!-- Node8 -->
<g id="node9" class="node">
<title>Node8</title>
<g id="a_node9"><a xlink:href="spec_2align_8h.html" target="_top" xlink:title="ODP alignments. ">
<polygon fill="#ffffff" stroke="#000000" points="160,-56.5 160,-75.5 274,-75.5 274,-56.5 160,-56.5"/>
<text text-anchor="middle" x="217" y="-63.5" font-family="Helvetica,sans-Serif" font-size="10.00" fill="#000000">odp/api/spec/align.h</text>
</a>
</g>
</g>
<!-- Node6&#45;&gt;Node8 -->
<g id="edge8" class="edge">
<title>Node6&#45;&gt;Node8</title>
<path fill="none" stroke="#191970" d="M217,-112.2455C217,-104.9382 217,-94.6944 217,-85.7046"/>
<polygon fill="#191970" stroke="#191970" points="220.5001,-85.6426 217,-75.6427 213.5001,-85.6427 220.5001,-85.6426"/>
</g>
<!-- Node8&#45;&gt;Node4 -->
<g id="edge9" class="edge">
<title>Node8&#45;&gt;Node4</title>
<path fill="none" stroke="#191970" d="M212.6453,-56.2455C209.2756,-48.6973 204.507,-38.0158 200.4017,-28.8197"/>
<polygon fill="#191970" stroke="#191970" points="203.5773,-27.3473 196.3048,-19.6427 197.1853,-30.2009 203.5773,-27.3473"/>
</g>
<!-- Node8&#45;&gt;Node9 -->
<g id="edge10" class="edge">
<title>Node8&#45;&gt;Node9</title>
<path fill="none" stroke="#191970" d="M236.1605,-56.2455C253.5111,-47.4125 279.2901,-34.2887 298.9583,-24.2758"/>
<polygon fill="#191970" stroke="#191970" points="300.7353,-27.2986 308.059,-19.6427 297.5595,-21.0605 300.7353,-27.2986"/>
</g>
<!-- Node11&#45;&gt;Node4 -->
<g id="edge14" class="edge">
<title>Node11&#45;&gt;Node4</title>
<path fill="none" stroke="#191970" d="M353.4783,-56.3733C320.6317,-46.9404 270.4405,-32.5265 234.7422,-22.2747"/>
<polygon fill="#191970" stroke="#191970" points="235.6619,-18.8974 225.0843,-19.5011 233.7297,-25.6255 235.6619,-18.8974"/>
</g>
<!-- Node11&#45;&gt;Node9 -->
<g id="edge15" class="edge">
<title>Node11&#45;&gt;Node9</title>
<path fill="none" stroke="#191970" d="M376.5488,-56.2455C367.7731,-48.0549 355.0446,-36.1749 344.686,-26.5069"/>
<polygon fill="#191970" stroke="#191970" points="347.0301,-23.9072 337.3314,-19.6427 342.2539,-29.0246 347.0301,-23.9072"/>
</g>
</g>
</svg>
