<?xml version="1.0" encoding="UTF-8" standalone="no"?>
<!DOCTYPE svg PUBLIC "-//W3C//DTD SVG 1.1//EN"
 "http://www.w3.org/Graphics/SVG/1.1/DTD/svg11.dtd">
<!-- Generated by graphviz version 2.40.1 (20161225.0304)
 -->
<!-- Title: chksum.h Pages: 1 -->
<svg width="158pt" height="140pt"
 viewBox="0.00 0.00 157.50 140.00" xmlns="http://www.w3.org/2000/svg" xmlns:xlink="http://www.w3.org/1999/xlink">
<g id="graph0" class="graph" transform="scale(1 1) rotate(0) translate(4 136)">
<title>chksum.h</title>
<polygon fill="#ffffff" stroke="transparent" points="-4,4 -4,-136 153.5,-136 153.5,4 -4,4"/>
<!-- Node2 -->
<g id="node1" class="node">
<title>Node2</title>
<polygon fill="#bfbfbf" stroke="#000000" points="45.5,-112.5 45.5,-131.5 109.5,-131.5 109.5,-112.5 45.5,-112.5"/>
<text text-anchor="middle" x="77.5" y="-119.5" font-family="Helvetica,sans-Serif" font-size="10.00" fill="#000000">chksum.h</text>
</g>
<!-- Node3 -->
<g id="node2" class="node">
<title>Node3</title>
<g id="a_node2"><a xlink:href="ip_8h.html" target="_top" xlink:title="ODP IP header. ">
<polygon fill="#ffffff" stroke="#000000" points="14,-56.5 14,-75.5 49,-75.5 49,-56.5 14,-56.5"/>
<text text-anchor="middle" x="31.5" y="-63.5" font-family="Helvetica,sans-Serif" font-size="10.00" fill="#000000">ip.h</text>
</a>
</g>
</g>
<!-- Node2&#45;&gt;Node3 -->
<g id="edge1" class="edge">
<title>Node2&#45;&gt;Node3</title>
<path fill="none" stroke="#191970" d="M63.1253,-104.5004C55.3029,-94.9775 45.924,-83.5596 39.4208,-75.6427"/>
<polygon fill="#191970" stroke="#191970" points="60.4354,-106.7399 69.4874,-112.2455 65.8445,-102.2967 60.4354,-106.7399"/>
</g>
<!-- Node5 -->
<g id="node4" class="node">
<title>Node5</title>
<g id="a_node4"><a xlink:href="odph__api_8h.html" target="_top" xlink:title="The OpenDataPlane helper API. ">
<polygon fill="#ffffff" stroke="#000000" points="55.5,-.5 55.5,-19.5 125.5,-19.5 125.5,-.5 55.5,-.5"/>
<text text-anchor="middle" x="90.5" y="-7.5" font-family="Helvetica,sans-Serif" font-size="10.00" fill="#000000">odph_api.h</text>
</a>
</g>
</g>
<!-- Node2&#45;&gt;Node5 -->
<g id="edge4" class="edge">
<title>Node2&#45;&gt;Node5</title>
<path fill="none" stroke="#191970" d="M79.7901,-102.2702C82.6073,-77.9985 87.2764,-37.7725 89.3944,-19.5249"/>
<polygon fill="#191970" stroke="#191970" points="76.2848,-102.1141 78.6084,-112.4509 83.2381,-102.9212 76.2848,-102.1141"/>
</g>
<!-- Node6 -->
<g id="node5" class="node">
<title>Node6</title>
<g id="a_node5"><a xlink:href="udp_8h.html" target="_top" xlink:title="ODP UDP header. ">
<polygon fill="#ffffff" stroke="#000000" points="105.5,-56.5 105.5,-75.5 149.5,-75.5 149.5,-56.5 105.5,-56.5"/>
<text text-anchor="middle" x="127.5" y="-63.5" font-family="Helvetica,sans-Serif" font-size="10.00" fill="#000000">udp.h</text>
</a>
</g>
</g>
<!-- Node2&#45;&gt;Node6 -->
<g id="edge5" class="edge">
<title>Node2&#45;&gt;Node6</title>
<path fill="none" stroke="#191970" d="M93.1247,-104.5004C101.6273,-94.9775 111.8218,-83.5596 118.8905,-75.6427"/>
<polygon fill="#191970" stroke="#191970" points="90.2587,-102.4551 86.2093,-112.2455 95.4803,-107.1172 90.2587,-102.4551"/>
</g>
<!-- Node4 -->
<g id="node3" class="node">
<title>Node4</title>
<g id="a_node3"><a xlink:href="cli_8h.html" target="_top" xlink:title="ODP CLI helper API. ">
<polygon fill="#ffffff" stroke="#000000" points="0,-.5 0,-19.5 37,-19.5 37,-.5 0,-.5"/>
<text text-anchor="middle" x="18.5" y="-7.5" font-family="Helvetica,sans-Serif" font-size="10.00" fill="#000000">cli.h</text>
</a>
</g>
</g>
<!-- Node3&#45;&gt;Node4 -->
<g id="edge2" class="edge">
<title>Node3&#45;&gt;Node4</title>
<path fill="none" stroke="#191970" d="M26.9625,-46.4538C24.8561,-37.3803 22.4464,-26.9998 20.7385,-19.6427"/>
<polygon fill="#191970" stroke="#191970" points="23.5649,-47.2961 29.2356,-56.2455 30.3835,-45.7131 23.5649,-47.2961"/>
</g>
<!-- Node3&#45;&gt;Node5 -->
<g id="edge3" class="edge">
<title>Node3&#45;&gt;Node5</title>
<path fill="none" stroke="#191970" d="M49.0307,-49.3607C59.2377,-39.6727 71.7469,-27.7995 80.3408,-19.6427"/>
<polygon fill="#191970" stroke="#191970" points="46.6206,-46.8227 41.777,-56.2455 51.4396,-51.8998 46.6206,-46.8227"/>
</g>
<!-- Node6&#45;&gt;Node5 -->
<g id="edge6" class="edge">
<title>Node6&#45;&gt;Node5</title>
<path fill="none" stroke="#191970" d="M115.3624,-47.6296C109.1907,-38.2887 101.9434,-27.3197 96.8711,-19.6427"/>
<polygon fill="#191970" stroke="#191970" points="112.6223,-49.8316 121.0551,-56.2455 118.4627,-45.9728 112.6223,-49.8316"/>
</g>
</g>
</svg>
