<?xml version="1.0" encoding="UTF-8" standalone="no"?>
<!DOCTYPE svg PUBLIC "-//W3C//DTD SVG 1.1//EN"
 "http://www.w3.org/Graphics/SVG/1.1/DTD/svg11.dtd">
<!-- Generated by graphviz version 2.43.0 (0)
 -->
<!-- Title: debug.h Pages: 1 -->
<svg width="275pt" height="95pt"
 viewBox="0.00 0.00 275.00 95.00" xmlns="http://www.w3.org/2000/svg" xmlns:xlink="http://www.w3.org/1999/xlink">
<g id="graph0" class="graph" transform="scale(1 1) rotate(0) translate(4 91)">
<title>debug.h</title>
<polygon fill="white" stroke="transparent" points="-4,4 -4,-91 271,-91 271,4 -4,4"/>
<!-- Node1 -->
<g id="node1" class="node">
<title>Node1</title>
<g id="a_node1"><a xlink:title="Helper debug.">
<polygon fill="#bfbfbf" stroke="black" points="142.5,-67.5 142.5,-86.5 198.5,-86.5 198.5,-67.5 142.5,-67.5"/>
<text text-anchor="middle" x="170.5" y="-74.5" font-family="Helvetica,sans-Serif" font-size="10.00">debug.h</text>
</a>
</g>
</g>
<!-- Node2 -->
<g id="node2" class="node">
<title>Node2</title>
<g id="a_node2"><a xlink:href="autoheader__external_8h_source.html" target="_top" xlink:title=" ">
<polygon fill="white" stroke="black" points="0,-0.5 0,-30.5 127,-30.5 127,-0.5 0,-0.5"/>
<text text-anchor="start" x="8" y="-18.5" font-family="Helvetica,sans-Serif" font-size="10.00">odp/helper/autoheader</text>
<text text-anchor="middle" x="63.5" y="-7.5" font-family="Helvetica,sans-Serif" font-size="10.00">_external.h</text>
</a>
</g>
</g>
<!-- Node1&#45;&gt;Node2 -->
<g id="edge1" class="edge">
<title>Node1&#45;&gt;Node2</title>
<path fill="none" stroke="midnightblue" d="M155.17,-67.48C140.2,-59.15 116.92,-46.21 97.57,-35.45"/>
<polygon fill="midnightblue" stroke="midnightblue" points="99.16,-32.32 88.72,-30.52 95.76,-38.44 99.16,-32.32"/>
</g>
<!-- Node3 -->
<g id="node3" class="node">
<title>Node3</title>
<g id="a_node3"><a xlink:title=" ">
<polygon fill="white" stroke="#bfbfbf" points="145.5,-6 145.5,-25 195.5,-25 195.5,-6 145.5,-6"/>
<text text-anchor="middle" x="170.5" y="-13" font-family="Helvetica,sans-Serif" font-size="10.00">stdio.h</text>
</a>
</g>
</g>
<!-- Node1&#45;&gt;Node3 -->
<g id="edge2" class="edge">
<title>Node1&#45;&gt;Node3</title>
<path fill="none" stroke="midnightblue" d="M170.5,-67.48C170.5,-59.08 170.5,-45.98 170.5,-35.16"/>
<polygon fill="midnightblue" stroke="midnightblue" points="174,-35.01 170.5,-25.01 167,-35.01 174,-35.01"/>
</g>
<!-- Node4 -->
<g id="node4" class="node">
<title>Node4</title>
<g id="a_node4"><a xlink:title=" ">
<polygon fill="white" stroke="#bfbfbf" points="214,-6 214,-25 267,-25 267,-6 214,-6"/>
<text text-anchor="middle" x="240.5" y="-13" font-family="Helvetica,sans-Serif" font-size="10.00">stdlib.h</text>
</a>
</g>
</g>
<!-- Node1&#45;&gt;Node4 -->
<g id="edge3" class="edge">
<title>Node1&#45;&gt;Node4</title>
<path fill="none" stroke="midnightblue" d="M180.53,-67.48C191.55,-58.11 209.46,-42.88 222.84,-31.51"/>
<polygon fill="midnightblue" stroke="midnightblue" points="225.14,-34.15 230.49,-25.01 220.6,-28.82 225.14,-34.15"/>
</g>
</g>
</svg>
