<?xml version="1.0" encoding="UTF-8" standalone="no"?>
<!DOCTYPE svg PUBLIC "-//W3C//DTD SVG 1.1//EN"
 "http://www.w3.org/Graphics/SVG/1.1/DTD/svg11.dtd">
<!-- Generated by graphviz version 2.43.0 (0)
 -->
<!-- Title: deprecated.h Pages: 1 -->
<svg width="171pt" height="252pt"
 viewBox="0.00 0.00 170.71 252.00" xmlns="http://www.w3.org/2000/svg" xmlns:xlink="http://www.w3.org/1999/xlink">
<g id="graph0" class="graph" transform="scale(1 1) rotate(0) translate(4 248)">
<title>deprecated.h</title>
<polygon fill="white" stroke="transparent" points="-4,4 -4,-248 166.71,-248 166.71,4 -4,4"/>
<!-- Node1 -->
<g id="node1" class="node">
<title>Node1</title>
<g id="a_node1"><a xlink:title="Macro for deprecated API definitions.">
<polygon fill="#bfbfbf" stroke="black" points="28.5,-224.5 28.5,-243.5 108.5,-243.5 108.5,-224.5 28.5,-224.5"/>
<text text-anchor="middle" x="68.5" y="-231.5" font-family="Helvetica,sans-Serif" font-size="10.00">deprecated.h</text>
</a>
</g>
</g>
<!-- Node2 -->
<g id="node2" class="node">
<title>Node2</title>
<g id="a_node2"><a xlink:href="process_8h.html" target="_top" xlink:title="ODP Linux helper for processes.">
<polygon fill="white" stroke="black" points="0,-56.5 0,-75.5 63,-75.5 63,-56.5 0,-56.5"/>
<text text-anchor="middle" x="31.5" y="-63.5" font-family="Helvetica,sans-Serif" font-size="10.00">process.h</text>
</a>
</g>
</g>
<!-- Node1&#45;&gt;Node2 -->
<g id="edge1" class="edge">
<title>Node1&#45;&gt;Node2</title>
<path fill="none" stroke="midnightblue" d="M64.25,-213.93C56.22,-177.92 39.13,-101.23 33.41,-75.57"/>
<polygon fill="midnightblue" stroke="midnightblue" points="60.92,-215.08 66.51,-224.08 67.75,-213.55 60.92,-215.08"/>
</g>
<!-- Node4 -->
<g id="node4" class="node">
<title>Node4</title>
<g id="a_node4"><a xlink:href="pthread_8h.html" target="_top" xlink:title="ODP Linux helper for pthreads.">
<polygon fill="white" stroke="black" points="73,-168.5 73,-187.5 136,-187.5 136,-168.5 73,-168.5"/>
<text text-anchor="middle" x="104.5" y="-175.5" font-family="Helvetica,sans-Serif" font-size="10.00">pthread.h</text>
</a>
</g>
</g>
<!-- Node1&#45;&gt;Node4 -->
<g id="edge3" class="edge">
<title>Node1&#45;&gt;Node4</title>
<path fill="none" stroke="midnightblue" d="M80.12,-215.57C86.32,-206.27 93.67,-195.25 98.67,-187.75"/>
<polygon fill="midnightblue" stroke="midnightblue" points="77.08,-213.82 74.44,-224.08 82.9,-217.7 77.08,-213.82"/>
</g>
<!-- Node3 -->
<g id="node3" class="node">
<title>Node3</title>
<g id="a_node3"><a xlink:href="linux_8h.html" target="_top" xlink:title="All ODP Linux helpers.">
<polygon fill="white" stroke="black" points="80.5,-0.5 80.5,-19.5 130.5,-19.5 130.5,-0.5 80.5,-0.5"/>
<text text-anchor="middle" x="105.5" y="-7.5" font-family="Helvetica,sans-Serif" font-size="10.00">linux.h</text>
</a>
</g>
</g>
<!-- Node2&#45;&gt;Node3 -->
<g id="edge2" class="edge">
<title>Node2&#45;&gt;Node3</title>
<path fill="none" stroke="midnightblue" d="M51.53,-50.38C64.91,-40.62 82.06,-28.11 93.39,-19.83"/>
<polygon fill="midnightblue" stroke="midnightblue" points="49.4,-47.6 43.39,-56.32 53.53,-53.26 49.4,-47.6"/>
</g>
<!-- Node4&#45;&gt;Node3 -->
<g id="edge4" class="edge">
<title>Node4&#45;&gt;Node3</title>
<path fill="none" stroke="midnightblue" d="M121.86,-161.09C129.75,-153.04 138.61,-142.72 144.5,-132 156.97,-109.31 156.91,-101.63 160.5,-76 161.73,-67.2 164.31,-64.03 160.5,-56 152.73,-39.61 135.75,-27.21 122.7,-19.61"/>
<polygon fill="midnightblue" stroke="midnightblue" points="119.17,-158.82 114.45,-168.31 124.05,-163.84 119.17,-158.82"/>
</g>
<!-- Node5 -->
<g id="node5" class="node">
<title>Node5</title>
<g id="a_node5"><a xlink:href="threads_8h.html" target="_top" xlink:title="ODP Linux helper API.">
<polygon fill="white" stroke="black" points="73.5,-112.5 73.5,-131.5 135.5,-131.5 135.5,-112.5 73.5,-112.5"/>
<text text-anchor="middle" x="104.5" y="-119.5" font-family="Helvetica,sans-Serif" font-size="10.00">threads.h</text>
</a>
</g>
</g>
<!-- Node4&#45;&gt;Node5 -->
<g id="edge5" class="edge">
<title>Node4&#45;&gt;Node5</title>
<path fill="none" stroke="midnightblue" d="M98.03,-158.1C97.4,-149.14 97.84,-138.86 99.37,-131.75"/>
<polygon fill="midnightblue" stroke="midnightblue" points="94.57,-158.62 99.33,-168.08 101.51,-157.71 94.57,-158.62"/>
</g>
<!-- Node5&#45;&gt;Node2 -->
<g id="edge6" class="edge">
<title>Node5&#45;&gt;Node2</title>
<path fill="none" stroke="midnightblue" d="M84.36,-106.1C71.22,-96.38 54.52,-84.03 43.44,-75.83"/>
<polygon fill="midnightblue" stroke="midnightblue" points="82.65,-109.19 92.77,-112.32 86.81,-103.56 82.65,-109.19"/>
</g>
<!-- Node5&#45;&gt;Node4 -->
<g id="edge7" class="edge">
<title>Node5&#45;&gt;Node4</title>
<path fill="none" stroke="midnightblue" d="M110.96,-141.69C111.61,-150.64 111.18,-160.93 109.67,-168.08"/>
<polygon fill="midnightblue" stroke="midnightblue" points="114.42,-141.2 109.63,-131.75 107.48,-142.13 114.42,-141.2"/>
</g>
<!-- Node6 -->
<g id="node6" class="node">
<title>Node6</title>
<g id="a_node6"><a xlink:href="odph__api_8h.html" target="_top" xlink:title="The OpenDataPlane helper API.">
<polygon fill="white" stroke="black" points="81.5,-56.5 81.5,-75.5 151.5,-75.5 151.5,-56.5 81.5,-56.5"/>
<text text-anchor="middle" x="116.5" y="-63.5" font-family="Helvetica,sans-Serif" font-size="10.00">odph_api.h</text>
</a>
</g>
</g>
<!-- Node5&#45;&gt;Node6 -->
<g id="edge8" class="edge">
<title>Node5&#45;&gt;Node6</title>
<path fill="none" stroke="midnightblue" d="M108.7,-102.1C110.69,-93.14 112.98,-82.86 114.56,-75.75"/>
<polygon fill="midnightblue" stroke="midnightblue" points="105.23,-101.56 106.48,-112.08 112.07,-103.08 105.23,-101.56"/>
</g>
</g>
</svg>
