<?xml version="1.0" encoding="UTF-8" standalone="no"?>
<!DOCTYPE svg PUBLIC "-//W3C//DTD SVG 1.1//EN"
 "http://www.w3.org/Graphics/SVG/1.1/DTD/svg11.dtd">
<!-- Generated by graphviz version 2.40.1 (20161225.0304)
 -->
<!-- Title: helper Pages: 1 -->
<svg width="110pt" height="183pt"
 viewBox="0.00 0.00 110.00 183.00" xmlns="http://www.w3.org/2000/svg" xmlns:xlink="http://www.w3.org/1999/xlink">
<g id="graph0" class="graph" transform="scale(1 1) rotate(0) translate(4 179)">
<title>helper</title>
<polygon fill="#ffffff" stroke="transparent" points="-4,4 -4,-179 106,-179 106,4 -4,4"/>
<g id="clust1" class="cluster">
<title>clusterdir_54e0e1aa58a79b9220a8c7726d0d33e7</title>
<g id="a_clust1"><a xlink:href="dir_54e0e1aa58a79b9220a8c7726d0d33e7.html" target="_top" xlink:title="odp">
<polygon fill="#ddddee" stroke="#000000" points="8,-8 8,-167 94,-167 94,-8 8,-8"/>
<text text-anchor="middle" x="51" y="-155" font-family="Helvetica,sans-Serif" font-size="10.00" fill="#000000">odp</text>
</a>
</g>
</g>
<g id="clust2" class="cluster">
<title>clusterdir_c0b2beb9c173b054203136c7ea283bca</title>
<g id="a_clust2"><a xlink:href="dir_c0b2beb9c173b054203136c7ea283bca.html" target="_top">
<polygon fill="#eeeeff" stroke="#000000" points="16,-16 16,-140 86,-140 86,-16 16,-16"/>
</a>
</g>
</g>
<!-- dir_c0b2beb9c173b054203136c7ea283bca -->
<g id="node1" class="node">
<title>dir_c0b2beb9c173b054203136c7ea283bca</title>
<text text-anchor="middle" x="51" y="-111.5" font-family="Helvetica,sans-Serif" font-size="10.00" fill="#000000">helper</text>
</g>
<!-- dir_11d712453c0c3058d005e47695d30dc7 -->
<g id="node2" class="node">
<title>dir_11d712453c0c3058d005e47695d30dc7</title>
<g id="a_node2"><a xlink:href="dir_11d712453c0c3058d005e47695d30dc7.html" target="_top" xlink:title="linux">
<polygon fill="#ffffff" stroke="#000000" points="78,-60 24,-60 24,-24 78,-24 78,-60"/>
<text text-anchor="middle" x="51" y="-39.5" font-family="Helvetica,sans-Serif" font-size="10.00" fill="#000000">linux</text>
</a>
</g>
</g>
<!-- dir_c0b2beb9c173b054203136c7ea283bca&#45;&gt;dir_11d712453c0c3058d005e47695d30dc7 -->
<g id="edge1" class="edge">
<title>dir_c0b2beb9c173b054203136c7ea283bca&#45;&gt;dir_11d712453c0c3058d005e47695d30dc7</title>
<path fill="none" stroke="#000000" d="M51,-95.8314C51,-88.131 51,-78.9743 51,-70.4166"/>
<polygon fill="#000000" stroke="#000000" points="54.5001,-70.4132 51,-60.4133 47.5001,-70.4133 54.5001,-70.4132"/>
<g id="a_edge1&#45;headlabel"><a xlink:href="dir_000003_000004.html" target="_top" xlink:title="3">
<text text-anchor="middle" x="57.3393" y="-71.5079" font-family="Helvetica,sans-Serif" font-size="10.00" fill="#000000">3</text>
</a>
</g>
</g>
</g>
</svg>
