<?xml version="1.0" encoding="UTF-8" standalone="no"?>
<!DOCTYPE svg PUBLIC "-//W3C//DTD SVG 1.1//EN"
 "http://www.w3.org/Graphics/SVG/1.1/DTD/svg11.dtd">
<!-- Generated by graphviz version 2.40.1 (20161225.0304)
 -->
<!-- Title: odph_ipv4_udp_chksum Pages: 1 -->
<svg width="306pt" height="66pt"
 viewBox="0.00 0.00 306.00 66.00" xmlns="http://www.w3.org/2000/svg" xmlns:xlink="http://www.w3.org/1999/xlink">
<g id="graph0" class="graph" transform="scale(1 1) rotate(0) translate(4 62)">
<title>odph_ipv4_udp_chksum</title>
<polygon fill="#ffffff" stroke="transparent" points="-4,4 -4,-62 302,-62 302,4 -4,4"/>
<!-- Node19 -->
<g id="node1" class="node">
<title>Node19</title>
<polygon fill="#bfbfbf" stroke="#000000" points="0,-19.5 0,-38.5 134,-38.5 134,-19.5 0,-19.5"/>
<text text-anchor="middle" x="67" y="-26.5" font-family="Helvetica,sans-Serif" font-size="10.00" fill="#000000">odph_ipv4_udp_chksum</text>
</g>
<!-- Node20 -->
<g id="node2" class="node">
<title>Node20</title>
<g id="a_node2"><a xlink:href="group__odph__header.html#ga4823ba6bb3e3ceed03846da7a064de2c" target="_top" xlink:title="ODP_STATIC_ASSERT">
<polygon fill="#ffffff" stroke="#000000" points="175,-38.5 175,-57.5 293,-57.5 293,-38.5 175,-38.5"/>
<text text-anchor="middle" x="234" y="-45.5" font-family="Helvetica,sans-Serif" font-size="10.00" fill="#000000">ODP_STATIC_ASSERT</text>
</a>
</g>
</g>
<!-- Node19&#45;&gt;Node20 -->
<g id="edge1" class="edge">
<title>Node19&#45;&gt;Node20</title>
<path fill="none" stroke="#191970" d="M134.4439,-36.6733C144.4922,-37.8165 154.8628,-38.9964 164.9437,-40.1433"/>
<polygon fill="#191970" stroke="#191970" points="164.5738,-43.6237 174.9054,-41.2767 165.3652,-36.6686 164.5738,-43.6237"/>
</g>
<!-- Node21 -->
<g id="node3" class="node">
<title>Node21</title>
<g id="a_node3"><a xlink:href="group__odph__chksum.html#gac208183f2a33d5c60ecc2d12bb02351a" target="_top" xlink:title="General Purpose TCP/UDP checksum function. ">
<polygon fill="#ffffff" stroke="#000000" points="170,-.5 170,-19.5 298,-19.5 298,-.5 170,-.5"/>
<text text-anchor="middle" x="234" y="-7.5" font-family="Helvetica,sans-Serif" font-size="10.00" fill="#000000">odph_udp_tcp_chksum</text>
</a>
</g>
</g>
<!-- Node19&#45;&gt;Node21 -->
<g id="edge2" class="edge">
<title>Node19&#45;&gt;Node21</title>
<path fill="none" stroke="#191970" d="M134.4439,-21.3267C142.746,-20.3822 151.2682,-19.4126 159.6652,-18.4573"/>
<polygon fill="#191970" stroke="#191970" points="160.2823,-21.9097 169.8225,-17.3016 159.4909,-14.9546 160.2823,-21.9097"/>
</g>
</g>
</svg>
