<?xml version="1.0" encoding="UTF-8" standalone="no"?>
<!DOCTYPE svg PUBLIC "-//W3C//DTD SVG 1.1//EN"
 "http://www.w3.org/Graphics/SVG/1.1/DTD/svg11.dtd">
<!-- Generated by graphviz version 2.40.1 (20161225.0304)
 -->
<!-- Title: ip.h Pages: 1 -->
<svg width="215pt" height="140pt"
 viewBox="0.00 0.00 214.50 140.00" xmlns="http://www.w3.org/2000/svg" xmlns:xlink="http://www.w3.org/1999/xlink">
<g id="graph0" class="graph" transform="scale(1 1) rotate(0) translate(4 136)">
<title>ip.h</title>
<polygon fill="#ffffff" stroke="transparent" points="-4,4 -4,-136 210.5,-136 210.5,4 -4,4"/>
<!-- Node0 -->
<g id="node1" class="node">
<title>Node0</title>
<polygon fill="#bfbfbf" stroke="#000000" points="58.5,-112.5 58.5,-131.5 93.5,-131.5 93.5,-112.5 58.5,-112.5"/>
<text text-anchor="middle" x="76" y="-119.5" font-family="Helvetica,sans-Serif" font-size="10.00" fill="#000000">ip.h</text>
</g>
<!-- Node1 -->
<g id="node2" class="node">
<title>Node1</title>
<polygon fill="#ffffff" stroke="#bfbfbf" points="0,-.5 0,-19.5 64,-19.5 64,-.5 0,-.5"/>
<text text-anchor="middle" x="32" y="-7.5" font-family="Helvetica,sans-Serif" font-size="10.00" fill="#000000">odp_api.h</text>
</g>
<!-- Node0&#45;&gt;Node1 -->
<g id="edge1" class="edge">
<title>Node0&#45;&gt;Node1</title>
<path fill="none" stroke="#191970" d="M58.4405,-115.8851C41.8028,-109.0397 17.8015,-96.1828 7,-76 -1.3472,-60.4032 7.6721,-41.4068 17.1245,-27.8059"/>
<polygon fill="#191970" stroke="#191970" points="19.9849,-29.826 23.2205,-19.7373 14.3997,-25.6063 19.9849,-29.826"/>
</g>
<!-- Node2 -->
<g id="node3" class="node">
<title>Node2</title>
<g id="a_node3"><a xlink:href="chksum_8h.html" target="_top" xlink:title="ODP checksum helper. ">
<polygon fill="#ffffff" stroke="#000000" points="16.5,-56.5 16.5,-75.5 135.5,-75.5 135.5,-56.5 16.5,-56.5"/>
<text text-anchor="middle" x="76" y="-63.5" font-family="Helvetica,sans-Serif" font-size="10.00" fill="#000000">odp/helper/chksum.h</text>
</a>
</g>
</g>
<!-- Node0&#45;&gt;Node2 -->
<g id="edge2" class="edge">
<title>Node0&#45;&gt;Node2</title>
<path fill="none" stroke="#191970" d="M76,-112.2455C76,-104.9382 76,-94.6944 76,-85.7046"/>
<polygon fill="#191970" stroke="#191970" points="79.5001,-85.6426 76,-75.6427 72.5001,-85.6427 79.5001,-85.6426"/>
</g>
<!-- Node3 -->
<g id="node4" class="node">
<title>Node3</title>
<polygon fill="#ffffff" stroke="#bfbfbf" points="153.5,-56.5 153.5,-75.5 206.5,-75.5 206.5,-56.5 153.5,-56.5"/>
<text text-anchor="middle" x="180" y="-63.5" font-family="Helvetica,sans-Serif" font-size="10.00" fill="#000000">string.h</text>
</g>
<!-- Node0&#45;&gt;Node3 -->
<g id="edge4" class="edge">
<title>Node0&#45;&gt;Node3</title>
<path fill="none" stroke="#191970" d="M93.6422,-112.5004C110.0024,-103.691 134.5755,-90.4593 153.3309,-80.3603"/>
<polygon fill="#191970" stroke="#191970" points="155.1259,-83.3689 162.2713,-75.5462 151.8072,-77.2056 155.1259,-83.3689"/>
</g>
<!-- Node2&#45;&gt;Node1 -->
<g id="edge3" class="edge">
<title>Node2&#45;&gt;Node1</title>
<path fill="none" stroke="#191970" d="M68.3358,-56.2455C62.1527,-48.3761 53.2937,-37.101 45.8711,-27.6542"/>
<polygon fill="#191970" stroke="#191970" points="48.5068,-25.3435 39.5764,-19.6427 43.0025,-29.6683 48.5068,-25.3435"/>
</g>
</g>
</svg>
