<?xml version="1.0" encoding="UTF-8" standalone="no"?>
<!DOCTYPE svg PUBLIC "-//W3C//DTD SVG 1.1//EN"
 "http://www.w3.org/Graphics/SVG/1.1/DTD/svg11.dtd">
<!-- Generated by graphviz version 2.43.0 (0)
 -->
<!-- Title: odph_api.h Pages: 1 -->
<svg width="2233pt" height="207pt"
 viewBox="0.00 0.00 2232.50 207.00" xmlns="http://www.w3.org/2000/svg" xmlns:xlink="http://www.w3.org/1999/xlink">
<g id="graph0" class="graph" transform="scale(1 1) rotate(0) translate(4 203)">
<title>odph_api.h</title>
<polygon fill="white" stroke="transparent" points="-4,4 -4,-203 2228.5,-203 2228.5,4 -4,4"/>
<!-- Node1 -->
<g id="node1" class="node">
<title>Node1</title>
<g id="a_node1"><a xlink:title="The OpenDataPlane helper API.">
<polygon fill="#bfbfbf" stroke="black" points="974.5,-179.5 974.5,-198.5 1044.5,-198.5 1044.5,-179.5 974.5,-179.5"/>
<text text-anchor="middle" x="1009.5" y="-186.5" font-family="Helvetica,sans-Serif" font-size="10.00">odph_api.h</text>
</a>
</g>
</g>
<!-- Node2 -->
<g id="node2" class="node">
<title>Node2</title>
<g id="a_node2"><a xlink:href="autoheader__external_8h_source.html" target="_top" xlink:title=" ">
<polygon fill="white" stroke="black" points="0,-56.5 0,-86.5 127,-86.5 127,-56.5 0,-56.5"/>
<text text-anchor="start" x="8" y="-74.5" font-family="Helvetica,sans-Serif" font-size="10.00">odp/helper/autoheader</text>
<text text-anchor="middle" x="63.5" y="-63.5" font-family="Helvetica,sans-Serif" font-size="10.00">_external.h</text>
</a>
</g>
</g>
<!-- Node1&#45;&gt;Node2 -->
<g id="edge1" class="edge">
<title>Node1&#45;&gt;Node2</title>
<path fill="none" stroke="midnightblue" d="M974.39,-187.37C810.22,-184.3 124.67,-169.9 88.5,-143 74.11,-132.3 67.97,-112.62 65.36,-96.77"/>
<polygon fill="midnightblue" stroke="midnightblue" points="68.8,-96.04 64.07,-86.56 61.86,-96.92 68.8,-96.04"/>
</g>
<!-- Node3 -->
<g id="node3" class="node">
<title>Node3</title>
<g id="a_node3"><a xlink:href="odph__debug_8h.html" target="_top" xlink:title="Helper debug.">
<polygon fill="white" stroke="black" points="97.5,-123.5 97.5,-142.5 237.5,-142.5 237.5,-123.5 97.5,-123.5"/>
<text text-anchor="middle" x="167.5" y="-130.5" font-family="Helvetica,sans-Serif" font-size="10.00">odp/helper/odph_debug.h</text>
</a>
</g>
</g>
<!-- Node1&#45;&gt;Node3 -->
<g id="edge2" class="edge">
<title>Node1&#45;&gt;Node3</title>
<path fill="none" stroke="midnightblue" d="M974.32,-186.51C866.27,-181.79 529.69,-166.15 251.5,-143 250.23,-142.89 248.94,-142.78 247.65,-142.67"/>
<polygon fill="midnightblue" stroke="midnightblue" points="247.88,-139.18 237.6,-141.76 247.25,-146.15 247.88,-139.18"/>
</g>
<!-- Node6 -->
<g id="node6" class="node">
<title>Node6</title>
<g id="a_node6"><a xlink:href="chksum_8h.html" target="_top" xlink:title="ODP checksum helper.">
<polygon fill="white" stroke="black" points="588,-62 588,-81 707,-81 707,-62 588,-62"/>
<text text-anchor="middle" x="647.5" y="-69" font-family="Helvetica,sans-Serif" font-size="10.00">odp/helper/chksum.h</text>
</a>
</g>
</g>
<!-- Node1&#45;&gt;Node6 -->
<g id="edge6" class="edge">
<title>Node1&#45;&gt;Node6</title>
<path fill="none" stroke="midnightblue" d="M974.21,-183.64C931.1,-177.62 856.4,-164.94 795.5,-143 777.54,-136.53 774.62,-131.43 757.5,-123 730.24,-109.58 698.68,-95.21 676.37,-85.24"/>
<polygon fill="midnightblue" stroke="midnightblue" points="677.68,-81.99 667.12,-81.12 674.84,-88.39 677.68,-81.99"/>
</g>
<!-- Node8 -->
<g id="node8" class="node">
<title>Node8</title>
<g id="a_node8"><a xlink:href="odph__cuckootable_8h.html" target="_top" xlink:title="ODP Cuckoo Hash Table.">
<polygon fill="white" stroke="black" points="1750.5,-123.5 1750.5,-142.5 1918.5,-142.5 1918.5,-123.5 1750.5,-123.5"/>
<text text-anchor="middle" x="1834.5" y="-130.5" font-family="Helvetica,sans-Serif" font-size="10.00">odp/helper/odph_cuckootable.h</text>
</a>
</g>
</g>
<!-- Node1&#45;&gt;Node8 -->
<g id="edge8" class="edge">
<title>Node1&#45;&gt;Node8</title>
<path fill="none" stroke="midnightblue" d="M1044.71,-186.19C1149.85,-180.72 1470.78,-163.42 1736.5,-143 1737.77,-142.9 1739.05,-142.8 1740.33,-142.7"/>
<polygon fill="midnightblue" stroke="midnightblue" points="1740.63,-146.19 1750.32,-141.89 1740.07,-139.21 1740.63,-146.19"/>
</g>
<!-- Node9 -->
<g id="node9" class="node">
<title>Node9</title>
<g id="a_node9"><a xlink:href="table_8h.html" target="_top" xlink:title="ODP table.">
<polygon fill="white" stroke="black" points="1554,-62 1554,-81 1659,-81 1659,-62 1554,-62"/>
<text text-anchor="middle" x="1606.5" y="-69" font-family="Helvetica,sans-Serif" font-size="10.00">odp/helper/table.h</text>
</a>
</g>
</g>
<!-- Node1&#45;&gt;Node9 -->
<g id="edge39" class="edge">
<title>Node1&#45;&gt;Node9</title>
<path fill="none" stroke="midnightblue" d="M1044.58,-188.46C1179.28,-189.86 1658.14,-191.4 1703.5,-143 1726.4,-118.56 1682.21,-97 1646.21,-84.35"/>
<polygon fill="midnightblue" stroke="midnightblue" points="1646.93,-80.9 1636.34,-81.02 1644.7,-87.53 1646.93,-80.9"/>
</g>
<!-- Node11 -->
<g id="node11" class="node">
<title>Node11</title>
<g id="a_node11"><a xlink:href="strong__types_8h.html" target="_top" xlink:title="ODP Strong Types.">
<polygon fill="white" stroke="black" points="1705,-0.5 1705,-19.5 1848,-19.5 1848,-0.5 1705,-0.5"/>
<text text-anchor="middle" x="1776.5" y="-7.5" font-family="Helvetica,sans-Serif" font-size="10.00">odp/helper/strong_types.h</text>
</a>
</g>
</g>
<!-- Node1&#45;&gt;Node11 -->
<g id="edge36" class="edge">
<title>Node1&#45;&gt;Node11</title>
<path fill="none" stroke="midnightblue" d="M1044.71,-187.62C1209.35,-185.66 1896.52,-175.54 1927.5,-143 1973.12,-95.09 1867.84,-45.58 1810.52,-23.24"/>
<polygon fill="midnightblue" stroke="midnightblue" points="1811.69,-19.94 1801.1,-19.64 1809.19,-26.48 1811.69,-19.94"/>
</g>
<!-- Node12 -->
<g id="node12" class="node">
<title>Node12</title>
<g id="a_node12"><a xlink:href="eth_8h.html" target="_top" xlink:title="ODP ethernet header.">
<polygon fill="white" stroke="black" points="834.5,-62 834.5,-81 930.5,-81 930.5,-62 834.5,-62"/>
<text text-anchor="middle" x="882.5" y="-69" font-family="Helvetica,sans-Serif" font-size="10.00">odp/helper/eth.h</text>
</a>
</g>
</g>
<!-- Node1&#45;&gt;Node12 -->
<g id="edge12" class="edge">
<title>Node1&#45;&gt;Node12</title>
<path fill="none" stroke="midnightblue" d="M993.74,-179.34C979.34,-171.03 957.86,-157.62 941.5,-143 923.37,-126.8 905.92,-104.9 894.76,-89.84"/>
<polygon fill="midnightblue" stroke="midnightblue" points="897.38,-87.49 888.68,-81.45 891.72,-91.6 897.38,-87.49"/>
</g>
<!-- Node13 -->
<g id="node13" class="node">
<title>Node13</title>
<g id="a_node13"><a xlink:href="gtp_8h.html" target="_top" xlink:title="ODP GTP header.">
<polygon fill="white" stroke="black" points="1234.5,-62 1234.5,-81 1330.5,-81 1330.5,-62 1234.5,-62"/>
<text text-anchor="middle" x="1282.5" y="-69" font-family="Helvetica,sans-Serif" font-size="10.00">odp/helper/gtp.h</text>
</a>
</g>
</g>
<!-- Node1&#45;&gt;Node13 -->
<g id="edge14" class="edge">
<title>Node1&#45;&gt;Node13</title>
<path fill="none" stroke="midnightblue" d="M1021.98,-179.41C1042.01,-165.92 1082.91,-139.6 1120.5,-123 1158.72,-106.12 1204.31,-92.44 1237.38,-83.6"/>
<polygon fill="midnightblue" stroke="midnightblue" points="1238.44,-86.94 1247.22,-81.01 1236.66,-80.17 1238.44,-86.94"/>
</g>
<!-- Node14 -->
<g id="node14" class="node">
<title>Node14</title>
<g id="a_node14"><a xlink:href="odph__hashtable_8h.html" target="_top" xlink:title="ODP Hash Table.">
<polygon fill="white" stroke="black" points="1342.5,-123.5 1342.5,-142.5 1500.5,-142.5 1500.5,-123.5 1342.5,-123.5"/>
<text text-anchor="middle" x="1421.5" y="-130.5" font-family="Helvetica,sans-Serif" font-size="10.00">odp/helper/odph_hashtable.h</text>
</a>
</g>
</g>
<!-- Node1&#45;&gt;Node14 -->
<g id="edge16" class="edge">
<title>Node1&#45;&gt;Node14</title>
<path fill="none" stroke="midnightblue" d="M1044.63,-183.4C1111.14,-174.68 1256.83,-155.58 1346.32,-143.85"/>
<polygon fill="midnightblue" stroke="midnightblue" points="1346.95,-147.3 1356.41,-142.53 1346.04,-140.36 1346.95,-147.3"/>
</g>
<!-- Node15 -->
<g id="node15" class="node">
<title>Node15</title>
<g id="a_node15"><a xlink:href="icmp_8h.html" target="_top" xlink:title="ODP ICMP header.">
<polygon fill="white" stroke="black" points="1348.5,-62 1348.5,-81 1452.5,-81 1452.5,-62 1348.5,-62"/>
<text text-anchor="middle" x="1400.5" y="-69" font-family="Helvetica,sans-Serif" font-size="10.00">odp/helper/icmp.h</text>
</a>
</g>
</g>
<!-- Node1&#45;&gt;Node15 -->
<g id="edge18" class="edge">
<title>Node1&#45;&gt;Node15</title>
<path fill="none" stroke="midnightblue" d="M1031.5,-179.48C1053.33,-170.85 1087.6,-156.85 1116.5,-143 1133.36,-134.92 1135.9,-129.29 1153.5,-123 1232.79,-94.65 1257.19,-104.74 1339.5,-87 1344.82,-85.85 1350.39,-84.6 1355.91,-83.33"/>
<polygon fill="midnightblue" stroke="midnightblue" points="1356.78,-86.72 1365.72,-81.04 1355.18,-79.9 1356.78,-86.72"/>
</g>
<!-- Node16 -->
<g id="node16" class="node">
<title>Node16</title>
<g id="a_node16"><a xlink:href="igmp_8h.html" target="_top" xlink:title="ODP IGMP header.">
<polygon fill="white" stroke="black" points="291,-62 291,-81 396,-81 396,-62 291,-62"/>
<text text-anchor="middle" x="343.5" y="-69" font-family="Helvetica,sans-Serif" font-size="10.00">odp/helper/igmp.h</text>
</a>
</g>
</g>
<!-- Node1&#45;&gt;Node16 -->
<g id="edge20" class="edge">
<title>Node1&#45;&gt;Node16</title>
<path fill="none" stroke="midnightblue" d="M974.37,-187.14C832.52,-183.51 308.39,-168.41 284.5,-143 266.74,-124.11 295.28,-100.81 318.5,-86.3"/>
<polygon fill="midnightblue" stroke="midnightblue" points="320.56,-89.15 327.35,-81.02 316.97,-83.14 320.56,-89.15"/>
</g>
<!-- Node17 -->
<g id="node17" class="node">
<title>Node17</title>
<g id="a_node17"><a xlink:href="ip_8h.html" target="_top" xlink:title="ODP IP header.">
<polygon fill="white" stroke="black" points="805,-123.5 805,-142.5 894,-142.5 894,-123.5 805,-123.5"/>
<text text-anchor="middle" x="849.5" y="-130.5" font-family="Helvetica,sans-Serif" font-size="10.00">odp/helper/ip.h</text>
</a>
</g>
</g>
<!-- Node1&#45;&gt;Node17 -->
<g id="edge22" class="edge">
<title>Node1&#45;&gt;Node17</title>
<path fill="none" stroke="midnightblue" d="M984.15,-179.44C957.23,-170.36 914.5,-155.94 884.41,-145.78"/>
<polygon fill="midnightblue" stroke="midnightblue" points="885.33,-142.4 874.73,-142.52 883.09,-149.03 885.33,-142.4"/>
</g>
<!-- Node19 -->
<g id="node19" class="node">
<title>Node19</title>
<g id="a_node19"><a xlink:href="ipsec_8h.html" target="_top" xlink:title="ODP IPSec headers.">
<polygon fill="white" stroke="black" points="293.5,-123.5 293.5,-142.5 399.5,-142.5 399.5,-123.5 293.5,-123.5"/>
<text text-anchor="middle" x="346.5" y="-130.5" font-family="Helvetica,sans-Serif" font-size="10.00">odp/helper/ipsec.h</text>
</a>
</g>
</g>
<!-- Node1&#45;&gt;Node19 -->
<g id="edge26" class="edge">
<title>Node1&#45;&gt;Node19</title>
<path fill="none" stroke="midnightblue" d="M974.2,-186.21C882.76,-181.41 630.54,-166.99 409.73,-143.06"/>
<polygon fill="midnightblue" stroke="midnightblue" points="409.89,-139.56 399.57,-141.95 409.13,-146.52 409.89,-139.56"/>
</g>
<!-- Node20 -->
<g id="node20" class="node">
<title>Node20</title>
<g id="a_node20"><a xlink:href="macros_8h.html" target="_top" xlink:title="Common helper macros.">
<polygon fill="white" stroke="black" points="1974.5,-123.5 1974.5,-142.5 2090.5,-142.5 2090.5,-123.5 1974.5,-123.5"/>
<text text-anchor="middle" x="2032.5" y="-130.5" font-family="Helvetica,sans-Serif" font-size="10.00">odp/helper/macros.h</text>
</a>
</g>
</g>
<!-- Node1&#45;&gt;Node20 -->
<g id="edge28" class="edge">
<title>Node1&#45;&gt;Node20</title>
<path fill="none" stroke="midnightblue" d="M1044.54,-187.32C1169.31,-184.68 1603.55,-173.71 1960.5,-143 1961.77,-142.89 1963.05,-142.78 1964.35,-142.66"/>
<polygon fill="midnightblue" stroke="midnightblue" points="1964.78,-146.13 1974.38,-141.65 1964.08,-139.17 1964.78,-146.13"/>
</g>
<!-- Node21 -->
<g id="node21" class="node">
<title>Node21</title>
<g id="a_node21"><a xlink:href="odph__lineartable_8h.html" target="_top" xlink:title="ODP Linear Table.">
<polygon fill="white" stroke="black" points="1162.5,-123.5 1162.5,-142.5 1324.5,-142.5 1324.5,-123.5 1162.5,-123.5"/>
<text text-anchor="middle" x="1243.5" y="-130.5" font-family="Helvetica,sans-Serif" font-size="10.00">odp/helper/odph_lineartable.h</text>
</a>
</g>
</g>
<!-- Node1&#45;&gt;Node21 -->
<g id="edge29" class="edge">
<title>Node1&#45;&gt;Node21</title>
<path fill="none" stroke="midnightblue" d="M1044.53,-179.92C1084.95,-170.59 1151.6,-155.21 1196.5,-144.85"/>
<polygon fill="midnightblue" stroke="midnightblue" points="1197.33,-148.25 1206.29,-142.59 1195.76,-141.42 1197.33,-148.25"/>
</g>
<!-- Node22 -->
<g id="node22" class="node">
<title>Node22</title>
<g id="a_node22"><a xlink:href="odph__iplookuptable_8h.html" target="_top" xlink:title="ODP IP Lookup Table.">
<polygon fill="white" stroke="black" points="1518.5,-123.5 1518.5,-142.5 1694.5,-142.5 1694.5,-123.5 1518.5,-123.5"/>
<text text-anchor="middle" x="1606.5" y="-130.5" font-family="Helvetica,sans-Serif" font-size="10.00">odp/helper/odph_iplookuptable.h</text>
</a>
</g>
</g>
<!-- Node1&#45;&gt;Node22 -->
<g id="edge32" class="edge">
<title>Node1&#45;&gt;Node22</title>
<path fill="none" stroke="midnightblue" d="M1044.66,-184.87C1124.83,-177.72 1327.54,-159.61 1508.51,-143.09"/>
<polygon fill="midnightblue" stroke="midnightblue" points="1508.83,-146.57 1518.47,-142.18 1508.2,-139.6 1508.83,-146.57"/>
</g>
<!-- Node23 -->
<g id="node23" class="node">
<title>Node23</title>
<g id="a_node23"><a xlink:href="sctp_8h.html" target="_top" xlink:title="ODP SCTP header.">
<polygon fill="white" stroke="black" points="418,-123.5 418,-142.5 519,-142.5 519,-123.5 418,-123.5"/>
<text text-anchor="middle" x="468.5" y="-130.5" font-family="Helvetica,sans-Serif" font-size="10.00">odp/helper/sctp.h</text>
</a>
</g>
</g>
<!-- Node1&#45;&gt;Node23 -->
<g id="edge34" class="edge">
<title>Node1&#45;&gt;Node23</title>
<path fill="none" stroke="midnightblue" d="M974.35,-185.42C896.2,-179.55 701.92,-164.1 529.05,-143.13"/>
<polygon fill="midnightblue" stroke="midnightblue" points="529.35,-139.64 519,-141.9 528.51,-146.59 529.35,-139.64"/>
</g>
<!-- Node24 -->
<g id="node24" class="node">
<title>Node24</title>
<g id="a_node24"><a xlink:href="tcp_8h.html" target="_top" xlink:title="ODP TCP header.">
<polygon fill="white" stroke="black" points="537,-123.5 537,-142.5 632,-142.5 632,-123.5 537,-123.5"/>
<text text-anchor="middle" x="584.5" y="-130.5" font-family="Helvetica,sans-Serif" font-size="10.00">odp/helper/tcp.h</text>
</a>
</g>
</g>
<!-- Node1&#45;&gt;Node24 -->
<g id="edge37" class="edge">
<title>Node1&#45;&gt;Node24</title>
<path fill="none" stroke="midnightblue" d="M974.44,-184.13C910.6,-176.98 770.9,-160.94 642.11,-143.04"/>
<polygon fill="midnightblue" stroke="midnightblue" points="642.46,-139.55 632.07,-141.64 641.49,-146.49 642.46,-139.55"/>
</g>
<!-- Node25 -->
<g id="node25" class="node">
<title>Node25</title>
<g id="a_node25"><a xlink:href="threads_8h.html" target="_top" xlink:title="ODP Linux helper API.">
<polygon fill="white" stroke="black" points="951,-123.5 951,-142.5 1068,-142.5 1068,-123.5 951,-123.5"/>
<text text-anchor="middle" x="1009.5" y="-130.5" font-family="Helvetica,sans-Serif" font-size="10.00">odp/helper/threads.h</text>
</a>
</g>
</g>
<!-- Node1&#45;&gt;Node25 -->
<g id="edge40" class="edge">
<title>Node1&#45;&gt;Node25</title>
<path fill="none" stroke="midnightblue" d="M1009.5,-179.08C1009.5,-172.01 1009.5,-161.86 1009.5,-152.99"/>
<polygon fill="midnightblue" stroke="midnightblue" points="1013,-152.75 1009.5,-142.75 1006,-152.75 1013,-152.75"/>
</g>
<!-- Node29 -->
<g id="node29" class="node">
<title>Node29</title>
<g id="a_node29"><a xlink:href="udp_8h.html" target="_top" xlink:title="ODP UDP header.">
<polygon fill="white" stroke="black" points="650.5,-123.5 650.5,-142.5 748.5,-142.5 748.5,-123.5 650.5,-123.5"/>
<text text-anchor="middle" x="699.5" y="-130.5" font-family="Helvetica,sans-Serif" font-size="10.00">odp/helper/udp.h</text>
</a>
</g>
</g>
<!-- Node1&#45;&gt;Node29 -->
<g id="edge47" class="edge">
<title>Node1&#45;&gt;Node29</title>
<path fill="none" stroke="midnightblue" d="M974.24,-181.86C921.67,-172.7 822.11,-155.36 758.38,-144.26"/>
<polygon fill="midnightblue" stroke="midnightblue" points="758.92,-140.8 748.47,-142.53 757.72,-147.69 758.92,-140.8"/>
</g>
<!-- Node30 -->
<g id="node30" class="node">
<title>Node30</title>
<g id="a_node30"><a xlink:href="version_8h.html" target="_top" xlink:title="ODP helper version.">
<polygon fill="white" stroke="black" points="2108.5,-123.5 2108.5,-142.5 2224.5,-142.5 2224.5,-123.5 2108.5,-123.5"/>
<text text-anchor="middle" x="2166.5" y="-130.5" font-family="Helvetica,sans-Serif" font-size="10.00">odp/helper/version.h</text>
</a>
</g>
</g>
<!-- Node1&#45;&gt;Node30 -->
<g id="edge50" class="edge">
<title>Node1&#45;&gt;Node30</title>
<path fill="none" stroke="midnightblue" d="M1044.86,-187.72C1180.12,-186.42 1677.72,-179.36 2098.2,-143.02"/>
<polygon fill="midnightblue" stroke="midnightblue" points="2098.77,-146.49 2108.43,-142.13 2098.17,-139.51 2098.77,-146.49"/>
</g>
<!-- Node3&#45;&gt;Node2 -->
<g id="edge3" class="edge">
<title>Node3&#45;&gt;Node2</title>
<path fill="none" stroke="midnightblue" d="M152.6,-123.48C138.12,-115.19 115.63,-102.32 96.87,-91.59"/>
<polygon fill="midnightblue" stroke="midnightblue" points="98.43,-88.45 88.01,-86.52 94.95,-94.53 98.43,-88.45"/>
</g>
<!-- Node4 -->
<g id="node4" class="node">
<title>Node4</title>
<g id="a_node4"><a xlink:title=" ">
<polygon fill="white" stroke="#bfbfbf" points="145.5,-62 145.5,-81 195.5,-81 195.5,-62 145.5,-62"/>
<text text-anchor="middle" x="170.5" y="-69" font-family="Helvetica,sans-Serif" font-size="10.00">stdio.h</text>
</a>
</g>
</g>
<!-- Node3&#45;&gt;Node4 -->
<g id="edge4" class="edge">
<title>Node3&#45;&gt;Node4</title>
<path fill="none" stroke="midnightblue" d="M167.93,-123.48C168.35,-115.08 169.01,-101.98 169.56,-91.16"/>
<polygon fill="midnightblue" stroke="midnightblue" points="173.06,-91.17 170.07,-81.01 166.07,-90.82 173.06,-91.17"/>
</g>
<!-- Node5 -->
<g id="node5" class="node">
<title>Node5</title>
<g id="a_node5"><a xlink:title=" ">
<polygon fill="white" stroke="#bfbfbf" points="214,-62 214,-81 267,-81 267,-62 214,-62"/>
<text text-anchor="middle" x="240.5" y="-69" font-family="Helvetica,sans-Serif" font-size="10.00">stdlib.h</text>
</a>
</g>
</g>
<!-- Node3&#45;&gt;Node5 -->
<g id="edge5" class="edge">
<title>Node3&#45;&gt;Node5</title>
<path fill="none" stroke="midnightblue" d="M177.96,-123.48C189.45,-114.11 208.13,-98.88 222.09,-87.51"/>
<polygon fill="midnightblue" stroke="midnightblue" points="224.52,-90.04 230.06,-81.01 220.1,-84.61 224.52,-90.04"/>
</g>
<!-- Node7 -->
<g id="node7" class="node">
<title>Node7</title>
<g id="a_node7"><a xlink:title=" ">
<polygon fill="white" stroke="#bfbfbf" points="695.5,-0.5 695.5,-19.5 759.5,-19.5 759.5,-0.5 695.5,-0.5"/>
<text text-anchor="middle" x="727.5" y="-7.5" font-family="Helvetica,sans-Serif" font-size="10.00">odp_api.h</text>
</a>
</g>
</g>
<!-- Node6&#45;&gt;Node7 -->
<g id="edge7" class="edge">
<title>Node6&#45;&gt;Node7</title>
<path fill="none" stroke="midnightblue" d="M658.96,-61.98C671.67,-52.52 692.41,-37.1 707.75,-25.69"/>
<polygon fill="midnightblue" stroke="midnightblue" points="710.12,-28.29 716.06,-19.51 705.95,-22.67 710.12,-28.29"/>
</g>
<!-- Node8&#45;&gt;Node9 -->
<g id="edge9" class="edge">
<title>Node8&#45;&gt;Node9</title>
<path fill="none" stroke="midnightblue" d="M1801.83,-123.48C1761.62,-112.98 1693.24,-95.14 1648.98,-83.59"/>
<polygon fill="midnightblue" stroke="midnightblue" points="1649.67,-80.15 1639.11,-81.01 1647.9,-86.92 1649.67,-80.15"/>
</g>
<!-- Node10 -->
<g id="node10" class="node">
<title>Node10</title>
<g id="a_node10"><a xlink:title=" ">
<polygon fill="white" stroke="#bfbfbf" points="1462,-0.5 1462,-19.5 1515,-19.5 1515,-0.5 1462,-0.5"/>
<text text-anchor="middle" x="1488.5" y="-7.5" font-family="Helvetica,sans-Serif" font-size="10.00">stdint.h</text>
</a>
</g>
</g>
<!-- Node9&#45;&gt;Node10 -->
<g id="edge10" class="edge">
<title>Node9&#45;&gt;Node10</title>
<path fill="none" stroke="midnightblue" d="M1589.59,-61.98C1569.97,-52.08 1537.37,-35.64 1514.51,-24.12"/>
<polygon fill="midnightblue" stroke="midnightblue" points="1515.88,-20.89 1505.38,-19.51 1512.73,-27.14 1515.88,-20.89"/>
</g>
<!-- Node9&#45;&gt;Node11 -->
<g id="edge11" class="edge">
<title>Node9&#45;&gt;Node11</title>
<path fill="none" stroke="midnightblue" d="M1630.86,-61.98C1660.14,-51.72 1709.47,-34.46 1742.5,-22.9"/>
<polygon fill="midnightblue" stroke="midnightblue" points="1743.91,-26.12 1752.19,-19.51 1741.59,-19.51 1743.91,-26.12"/>
</g>
<!-- Node12&#45;&gt;Node7 -->
<g id="edge13" class="edge">
<title>Node12&#45;&gt;Node7</title>
<path fill="none" stroke="midnightblue" d="M860.29,-61.98C833.82,-51.81 789.39,-34.76 759.28,-23.2"/>
<polygon fill="midnightblue" stroke="midnightblue" points="760.26,-19.83 749.67,-19.51 757.75,-26.36 760.26,-19.83"/>
</g>
<!-- Node13&#45;&gt;Node7 -->
<g id="edge15" class="edge">
<title>Node13&#45;&gt;Node7</title>
<path fill="none" stroke="midnightblue" d="M1251.98,-61.93C1243.17,-59.71 1233.51,-57.52 1224.5,-56 1057.62,-27.76 856.02,-16.42 769.87,-12.63"/>
<polygon fill="midnightblue" stroke="midnightblue" points="769.84,-9.12 759.7,-12.19 769.54,-16.11 769.84,-9.12"/>
</g>
<!-- Node14&#45;&gt;Node9 -->
<g id="edge17" class="edge">
<title>Node14&#45;&gt;Node9</title>
<path fill="none" stroke="midnightblue" d="M1448.01,-123.48C1480.15,-113.14 1534.49,-95.66 1570.43,-84.1"/>
<polygon fill="midnightblue" stroke="midnightblue" points="1571.6,-87.4 1580.04,-81.01 1569.45,-80.74 1571.6,-87.4"/>
</g>
<!-- Node15&#45;&gt;Node7 -->
<g id="edge19" class="edge">
<title>Node15&#45;&gt;Node7</title>
<path fill="none" stroke="midnightblue" d="M1368.71,-61.93C1359.36,-59.68 1349.07,-57.48 1339.5,-56 1127.19,-23.18 869.62,-14.14 769.83,-11.79"/>
<polygon fill="midnightblue" stroke="midnightblue" points="769.64,-8.28 759.56,-11.55 769.48,-15.28 769.64,-8.28"/>
</g>
<!-- Node16&#45;&gt;Node7 -->
<g id="edge21" class="edge">
<title>Node16&#45;&gt;Node7</title>
<path fill="none" stroke="midnightblue" d="M384.36,-61.99C394.81,-59.92 406.06,-57.79 416.5,-56 512.12,-39.6 624.96,-24.27 684.96,-16.44"/>
<polygon fill="midnightblue" stroke="midnightblue" points="685.71,-19.87 695.18,-15.11 684.81,-12.93 685.71,-19.87"/>
</g>
<!-- Node17&#45;&gt;Node6 -->
<g id="edge24" class="edge">
<title>Node17&#45;&gt;Node6</title>
<path fill="none" stroke="midnightblue" d="M820.56,-123.48C785.23,-113.07 725.37,-95.44 686.14,-83.88"/>
<polygon fill="midnightblue" stroke="midnightblue" points="686.97,-80.48 676.39,-81.01 684.99,-87.19 686.97,-80.48"/>
</g>
<!-- Node17&#45;&gt;Node7 -->
<g id="edge23" class="edge">
<title>Node17&#45;&gt;Node7</title>
<path fill="none" stroke="midnightblue" d="M843.45,-123.49C832.82,-108.84 809.74,-78.32 786.5,-56 774.8,-44.77 760.34,-33.7 748.66,-25.35"/>
<polygon fill="midnightblue" stroke="midnightblue" points="750.56,-22.41 740.36,-19.54 746.55,-28.14 750.56,-22.41"/>
</g>
<!-- Node18 -->
<g id="node18" class="node">
<title>Node18</title>
<g id="a_node18"><a xlink:title=" ">
<polygon fill="white" stroke="#bfbfbf" points="725,-62 725,-81 778,-81 778,-62 725,-62"/>
<text text-anchor="middle" x="751.5" y="-69" font-family="Helvetica,sans-Serif" font-size="10.00">string.h</text>
</a>
</g>
</g>
<!-- Node17&#45;&gt;Node18 -->
<g id="edge25" class="edge">
<title>Node17&#45;&gt;Node18</title>
<path fill="none" stroke="midnightblue" d="M835.46,-123.48C819.45,-113.75 793.05,-97.73 774.13,-86.24"/>
<polygon fill="midnightblue" stroke="midnightblue" points="775.88,-83.21 765.51,-81.01 772.25,-89.19 775.88,-83.21"/>
</g>
<!-- Node19&#45;&gt;Node7 -->
<g id="edge27" class="edge">
<title>Node19&#45;&gt;Node7</title>
<path fill="none" stroke="midnightblue" d="M362.05,-123.45C390.89,-107.91 454.99,-74.92 512.5,-56 571.02,-36.75 641.3,-23.87 685.19,-16.99"/>
<polygon fill="midnightblue" stroke="midnightblue" points="685.87,-20.43 695.22,-15.46 684.81,-13.51 685.87,-20.43"/>
</g>
<!-- Node21&#45;&gt;Node9 -->
<g id="edge31" class="edge">
<title>Node21&#45;&gt;Node9</title>
<path fill="none" stroke="midnightblue" d="M1295.51,-123.48C1361.28,-112.69 1474.39,-94.15 1544.56,-82.65"/>
<polygon fill="midnightblue" stroke="midnightblue" points="1545.29,-86.08 1554.59,-81.01 1544.15,-79.17 1545.29,-86.08"/>
</g>
<!-- Node21&#45;&gt;Node10 -->
<g id="edge30" class="edge">
<title>Node21&#45;&gt;Node10</title>
<path fill="none" stroke="midnightblue" d="M1324.65,-123.6C1377.81,-116.56 1441.1,-104.77 1461.5,-87 1478.13,-72.52 1484.52,-47.09 1486.97,-29.66"/>
<polygon fill="midnightblue" stroke="midnightblue" points="1490.47,-29.89 1488.08,-19.56 1483.51,-29.12 1490.47,-29.89"/>
</g>
<!-- Node22&#45;&gt;Node9 -->
<g id="edge33" class="edge">
<title>Node22&#45;&gt;Node9</title>
<path fill="none" stroke="midnightblue" d="M1606.5,-123.48C1606.5,-115.08 1606.5,-101.98 1606.5,-91.16"/>
<polygon fill="midnightblue" stroke="midnightblue" points="1610,-91.01 1606.5,-81.01 1603,-91.01 1610,-91.01"/>
</g>
<!-- Node23&#45;&gt;Node7 -->
<g id="edge35" class="edge">
<title>Node23&#45;&gt;Node7</title>
<path fill="none" stroke="midnightblue" d="M476.26,-123.28C490.81,-107.48 523.87,-74.06 558.5,-56 598.93,-34.91 650.08,-23.08 685.46,-16.9"/>
<polygon fill="midnightblue" stroke="midnightblue" points="686.17,-20.33 695.46,-15.23 685.02,-13.43 686.17,-20.33"/>
</g>
<!-- Node24&#45;&gt;Node7 -->
<g id="edge38" class="edge">
<title>Node24&#45;&gt;Node7</title>
<path fill="none" stroke="midnightblue" d="M578.48,-123.04C569.01,-107.73 553.21,-76.22 568.5,-56 582.61,-37.34 643.25,-24.2 685.42,-17.11"/>
<polygon fill="midnightblue" stroke="midnightblue" points="686.13,-20.54 695.44,-15.48 685.01,-13.63 686.13,-20.54"/>
</g>
<!-- Node25&#45;&gt;Node7 -->
<g id="edge41" class="edge">
<title>Node25&#45;&gt;Node7</title>
<path fill="none" stroke="midnightblue" d="M1050.97,-123.5C1071.09,-117.06 1093.45,-105.95 1105.5,-87 1112.89,-75.37 1114.65,-66.3 1105.5,-56 1083.48,-31.2 863.6,-17.63 769.68,-12.92"/>
<polygon fill="midnightblue" stroke="midnightblue" points="769.82,-9.42 759.66,-12.43 769.48,-16.41 769.82,-9.42"/>
</g>
<!-- Node26 -->
<g id="node26" class="node">
<title>Node26</title>
<g id="a_node26"><a xlink:href="pthread_8h.html" target="_top" xlink:title="ODP Linux helper for pthreads.">
<polygon fill="white" stroke="black" points="1153,-62 1153,-81 1216,-81 1216,-62 1153,-62"/>
<text text-anchor="middle" x="1184.5" y="-69" font-family="Helvetica,sans-Serif" font-size="10.00">pthread.h</text>
</a>
</g>
</g>
<!-- Node25&#45;&gt;Node26 -->
<g id="edge42" class="edge">
<title>Node25&#45;&gt;Node26</title>
<path fill="none" stroke="midnightblue" d="M1029.67,-123.48C1057.83,-113.14 1109.03,-95.66 1144.9,-84.1"/>
<polygon fill="midnightblue" stroke="midnightblue" points="1146.12,-87.39 1154.58,-81.01 1143.99,-80.72 1146.12,-87.39"/>
</g>
<!-- Node27 -->
<g id="node27" class="node">
<title>Node27</title>
<g id="a_node27"><a xlink:title=" ">
<polygon fill="white" stroke="#bfbfbf" points="949,-62 949,-81 1006,-81 1006,-62 949,-62"/>
<text text-anchor="middle" x="977.5" y="-69" font-family="Helvetica,sans-Serif" font-size="10.00">getopt.h</text>
</a>
</g>
</g>
<!-- Node25&#45;&gt;Node27 -->
<g id="edge45" class="edge">
<title>Node25&#45;&gt;Node27</title>
<path fill="none" stroke="midnightblue" d="M1004.92,-123.48C1000.26,-114.82 992.91,-101.15 986.99,-90.15"/>
<polygon fill="midnightblue" stroke="midnightblue" points="989.9,-88.16 982.08,-81.01 983.73,-91.47 989.9,-88.16"/>
</g>
<!-- Node28 -->
<g id="node28" class="node">
<title>Node28</title>
<g id="a_node28"><a xlink:title=" ">
<polygon fill="white" stroke="#bfbfbf" points="1024.5,-62 1024.5,-81 1096.5,-81 1096.5,-62 1024.5,-62"/>
<text text-anchor="middle" x="1060.5" y="-69" font-family="Helvetica,sans-Serif" font-size="10.00">sys/types.h</text>
</a>
</g>
</g>
<!-- Node25&#45;&gt;Node28 -->
<g id="edge46" class="edge">
<title>Node25&#45;&gt;Node28</title>
<path fill="none" stroke="midnightblue" d="M1016.81,-123.48C1024.53,-114.46 1036.91,-100.02 1046.52,-88.81"/>
<polygon fill="midnightblue" stroke="midnightblue" points="1049.36,-90.88 1053.21,-81.01 1044.04,-86.32 1049.36,-90.88"/>
</g>
<!-- Node26&#45;&gt;Node7 -->
<g id="edge44" class="edge">
<title>Node26&#45;&gt;Node7</title>
<path fill="none" stroke="midnightblue" d="M1160.39,-61.92C1153.4,-59.7 1145.71,-57.52 1138.5,-56 1005.77,-28.1 845.06,-16.87 769.99,-12.9"/>
<polygon fill="midnightblue" stroke="midnightblue" points="769.71,-9.38 759.55,-12.37 769.36,-16.37 769.71,-9.38"/>
</g>
<!-- Node26&#45;&gt;Node25 -->
<g id="edge43" class="edge">
<title>Node26&#45;&gt;Node25</title>
<path fill="none" stroke="midnightblue" d="M1164.37,-81.01C1136.24,-91.34 1085.04,-108.82 1049.16,-120.38"/>
<polygon fill="midnightblue" stroke="midnightblue" points="1047.93,-117.1 1039.47,-123.48 1050.06,-123.76 1047.93,-117.1"/>
</g>
<!-- Node29&#45;&gt;Node6 -->
<g id="edge49" class="edge">
<title>Node29&#45;&gt;Node6</title>
<path fill="none" stroke="midnightblue" d="M692.05,-123.48C684.17,-114.46 671.56,-100.02 661.76,-88.81"/>
<polygon fill="midnightblue" stroke="midnightblue" points="664.15,-86.24 654.94,-81.01 658.88,-90.84 664.15,-86.24"/>
</g>
<!-- Node29&#45;&gt;Node7 -->
<g id="edge48" class="edge">
<title>Node29&#45;&gt;Node7</title>
<path fill="none" stroke="midnightblue" d="M663.71,-123.5C631.78,-115.1 588.54,-101.45 578.5,-87 570.64,-75.69 570.29,-67.06 578.5,-56 602.81,-23.27 650.23,-13.49 685.07,-10.97"/>
<polygon fill="midnightblue" stroke="midnightblue" points="685.64,-14.45 695.43,-10.41 685.26,-7.46 685.64,-14.45"/>
</g>
</g>
</svg>
