<?xml version="1.0" encoding="UTF-8" standalone="no"?>
<!DOCTYPE svg PUBLIC "-//W3C//DTD SVG 1.1//EN"
 "http://www.w3.org/Graphics/SVG/1.1/DTD/svg11.dtd">
<!-- Generated by graphviz version 2.43.0 (0)
 -->
<!-- Title: odph_lineartable.h Pages: 1 -->
<svg width="222pt" height="140pt"
 viewBox="0.00 0.00 222.00 140.00" xmlns="http://www.w3.org/2000/svg" xmlns:xlink="http://www.w3.org/1999/xlink">
<g id="graph0" class="graph" transform="scale(1 1) rotate(0) translate(4 136)">
<title>odph_lineartable.h</title>
<polygon fill="white" stroke="transparent" points="-4,4 -4,-136 218,-136 218,4 -4,4"/>
<!-- Node1 -->
<g id="node1" class="node">
<title>Node1</title>
<g id="a_node1"><a xlink:title="ODP Linear Table.">
<polygon fill="#bfbfbf" stroke="black" points="13,-112.5 13,-131.5 120,-131.5 120,-112.5 13,-112.5"/>
<text text-anchor="middle" x="66.5" y="-119.5" font-family="Helvetica,sans-Serif" font-size="10.00">odph_lineartable.h</text>
</a>
</g>
</g>
<!-- Node2 -->
<g id="node2" class="node">
<title>Node2</title>
<g id="a_node2"><a xlink:title=" ">
<polygon fill="white" stroke="#bfbfbf" points="0,-0.5 0,-19.5 53,-19.5 53,-0.5 0,-0.5"/>
<text text-anchor="middle" x="26.5" y="-7.5" font-family="Helvetica,sans-Serif" font-size="10.00">stdint.h</text>
</a>
</g>
</g>
<!-- Node1&#45;&gt;Node2 -->
<g id="edge1" class="edge">
<title>Node1&#45;&gt;Node2</title>
<path fill="none" stroke="midnightblue" d="M62.2,-112.17C57.91,-103.19 51.3,-88.81 46.5,-76 40.68,-60.45 35.22,-42.37 31.48,-29.23"/>
<polygon fill="midnightblue" stroke="midnightblue" points="34.83,-28.22 28.77,-19.52 28.08,-30.1 34.83,-28.22"/>
</g>
<!-- Node3 -->
<g id="node3" class="node">
<title>Node3</title>
<g id="a_node3"><a xlink:href="table_8h.html" target="_top" xlink:title="ODP table.">
<polygon fill="white" stroke="black" points="55,-56.5 55,-75.5 160,-75.5 160,-56.5 55,-56.5"/>
<text text-anchor="middle" x="107.5" y="-63.5" font-family="Helvetica,sans-Serif" font-size="10.00">odp/helper/table.h</text>
</a>
</g>
</g>
<!-- Node1&#45;&gt;Node3 -->
<g id="edge2" class="edge">
<title>Node1&#45;&gt;Node3</title>
<path fill="none" stroke="midnightblue" d="M73.27,-112.08C79.06,-104.46 87.56,-93.26 94.64,-83.94"/>
<polygon fill="midnightblue" stroke="midnightblue" points="97.6,-85.83 100.86,-75.75 92.02,-81.6 97.6,-85.83"/>
</g>
<!-- Node3&#45;&gt;Node2 -->
<g id="edge3" class="edge">
<title>Node3&#45;&gt;Node2</title>
<path fill="none" stroke="midnightblue" d="M94.49,-56.32C81.97,-47.98 62.82,-35.21 48.03,-25.35"/>
<polygon fill="midnightblue" stroke="midnightblue" points="49.74,-22.29 39.48,-19.65 45.86,-28.11 49.74,-22.29"/>
</g>
<!-- Node4 -->
<g id="node4" class="node">
<title>Node4</title>
<g id="a_node4"><a xlink:href="strong__types_8h.html" target="_top" xlink:title="ODP Strong Types.">
<polygon fill="white" stroke="black" points="71,-0.5 71,-19.5 214,-19.5 214,-0.5 71,-0.5"/>
<text text-anchor="middle" x="142.5" y="-7.5" font-family="Helvetica,sans-Serif" font-size="10.00">odp/helper/strong_types.h</text>
</a>
</g>
</g>
<!-- Node3&#45;&gt;Node4 -->
<g id="edge4" class="edge">
<title>Node3&#45;&gt;Node4</title>
<path fill="none" stroke="midnightblue" d="M113.28,-56.08C118.17,-48.53 125.33,-37.49 131.33,-28.23"/>
<polygon fill="midnightblue" stroke="midnightblue" points="134.33,-30.05 136.83,-19.75 128.45,-26.24 134.33,-30.05"/>
</g>
</g>
</svg>
