<?xml version="1.0" encoding="UTF-8" standalone="no"?>
<!DOCTYPE svg PUBLIC "-//W3C//DTD SVG 1.1//EN"
 "http://www.w3.org/Graphics/SVG/1.1/DTD/svg11.dtd">
<!-- Generated by graphviz version 2.43.0 (0)
 -->
<!-- Title: odph_api.h Pages: 1 -->
<svg width="1708pt" height="263pt"
 viewBox="0.00 0.00 1707.50 263.00" xmlns="http://www.w3.org/2000/svg" xmlns:xlink="http://www.w3.org/1999/xlink">
<g id="graph0" class="graph" transform="scale(1 1) rotate(0) translate(4 259)">
<title>odph_api.h</title>
<polygon fill="white" stroke="transparent" points="-4,4 -4,-259 1703.5,-259 1703.5,4 -4,4"/>
<!-- Node1 -->
<g id="node1" class="node">
<title>Node1</title>
<g id="a_node1"><a xlink:title="The OpenDataPlane helper API.">
<polygon fill="#bfbfbf" stroke="black" points="797.5,-235.5 797.5,-254.5 867.5,-254.5 867.5,-235.5 797.5,-235.5"/>
<text text-anchor="middle" x="832.5" y="-242.5" font-family="Helvetica,sans-Serif" font-size="10.00">odph_api.h</text>
</a>
</g>
</g>
<!-- Node2 -->
<g id="node2" class="node">
<title>Node2</title>
<g id="a_node2"><a xlink:href="autoheader__external_8h_source.html" target="_top" xlink:title=" ">
<polygon fill="white" stroke="black" points="124,-0.5 124,-30.5 251,-30.5 251,-0.5 124,-0.5"/>
<text text-anchor="start" x="132" y="-18.5" font-family="Helvetica,sans-Serif" font-size="10.00">odp/helper/autoheader</text>
<text text-anchor="middle" x="187.5" y="-7.5" font-family="Helvetica,sans-Serif" font-size="10.00">_external.h</text>
</a>
</g>
</g>
<!-- Node1&#45;&gt;Node2 -->
<g id="edge1" class="edge">
<title>Node1&#45;&gt;Node2</title>
<path fill="none" stroke="midnightblue" d="M797.17,-244.05C671.17,-243.88 249.06,-240.22 206.5,-199 163.85,-157.69 173.24,-79.77 181.49,-40.47"/>
<polygon fill="midnightblue" stroke="midnightblue" points="184.91,-41.21 183.69,-30.69 178.08,-39.67 184.91,-41.21"/>
</g>
<!-- Node3 -->
<g id="node3" class="node">
<title>Node3</title>
<g id="a_node3"><a xlink:href="chksum_8h.html" target="_top" xlink:title="ODP checksum helper.">
<polygon fill="white" stroke="black" points="1092,-123.5 1092,-142.5 1211,-142.5 1211,-123.5 1092,-123.5"/>
<text text-anchor="middle" x="1151.5" y="-130.5" font-family="Helvetica,sans-Serif" font-size="10.00">odp/helper/chksum.h</text>
</a>
</g>
</g>
<!-- Node1&#45;&gt;Node3 -->
<g id="edge2" class="edge">
<title>Node1&#45;&gt;Node3</title>
<path fill="none" stroke="midnightblue" d="M867.65,-244.2C994.03,-244.57 1419.96,-242.55 1460.5,-199 1466.56,-192.49 1466.31,-185.72 1460.5,-179 1445.04,-161.13 1307.32,-146.73 1221.04,-139.36"/>
<polygon fill="midnightblue" stroke="midnightblue" points="1221.3,-135.87 1211.04,-138.52 1220.71,-142.84 1221.3,-135.87"/>
</g>
<!-- Node5 -->
<g id="node5" class="node">
<title>Node5</title>
<g id="a_node5"><a xlink:href="debug_8h.html" target="_top" xlink:title="Helper debug.">
<polygon fill="white" stroke="black" points="38.5,-179.5 38.5,-198.5 148.5,-198.5 148.5,-179.5 38.5,-179.5"/>
<text text-anchor="middle" x="93.5" y="-186.5" font-family="Helvetica,sans-Serif" font-size="10.00">odp/helper/debug.h</text>
</a>
</g>
</g>
<!-- Node1&#45;&gt;Node5 -->
<g id="edge4" class="edge">
<title>Node1&#45;&gt;Node5</title>
<path fill="none" stroke="midnightblue" d="M797.45,-242.15C699.01,-236.83 411.63,-220.51 173.5,-199 168.71,-198.57 163.75,-198.09 158.77,-197.58"/>
<polygon fill="midnightblue" stroke="midnightblue" points="158.86,-194.07 148.55,-196.51 158.13,-201.03 158.86,-194.07"/>
</g>
<!-- Node8 -->
<g id="node8" class="node">
<title>Node8</title>
<g id="a_node8"><a xlink:href="eth_8h.html" target="_top" xlink:title="ODP ethernet header.">
<polygon fill="white" stroke="black" points="1470.5,-123.5 1470.5,-142.5 1566.5,-142.5 1566.5,-123.5 1470.5,-123.5"/>
<text text-anchor="middle" x="1518.5" y="-130.5" font-family="Helvetica,sans-Serif" font-size="10.00">odp/helper/eth.h</text>
</a>
</g>
</g>
<!-- Node1&#45;&gt;Node8 -->
<g id="edge8" class="edge">
<title>Node1&#45;&gt;Node8</title>
<path fill="none" stroke="midnightblue" d="M867.64,-243.79C997.16,-242.71 1442.95,-236.31 1493.5,-199 1507.92,-188.36 1514.02,-168.25 1516.6,-153.2"/>
<polygon fill="midnightblue" stroke="midnightblue" points="1520.12,-153.3 1517.97,-142.93 1513.18,-152.38 1520.12,-153.3"/>
</g>
<!-- Node9 -->
<g id="node9" class="node">
<title>Node9</title>
<g id="a_node9"><a xlink:href="gtp_8h.html" target="_top" xlink:title="ODP GTP header.">
<polygon fill="white" stroke="black" points="403.5,-123.5 403.5,-142.5 499.5,-142.5 499.5,-123.5 403.5,-123.5"/>
<text text-anchor="middle" x="451.5" y="-130.5" font-family="Helvetica,sans-Serif" font-size="10.00">odp/helper/gtp.h</text>
</a>
</g>
</g>
<!-- Node1&#45;&gt;Node9 -->
<g id="edge10" class="edge">
<title>Node1&#45;&gt;Node9</title>
<path fill="none" stroke="midnightblue" d="M797.39,-239.3C752.79,-232.8 673.78,-219.49 608.5,-199 587.23,-192.32 583.05,-187.63 562.5,-179 535.61,-167.71 504.87,-155.28 482.57,-146.35"/>
<polygon fill="midnightblue" stroke="midnightblue" points="483.85,-143.1 473.26,-142.64 481.25,-149.6 483.85,-143.1"/>
</g>
<!-- Node10 -->
<g id="node10" class="node">
<title>Node10</title>
<g id="a_node10"><a xlink:href="icmp_8h.html" target="_top" xlink:title="ODP ICMP header.">
<polygon fill="white" stroke="black" points="517.5,-123.5 517.5,-142.5 621.5,-142.5 621.5,-123.5 517.5,-123.5"/>
<text text-anchor="middle" x="569.5" y="-130.5" font-family="Helvetica,sans-Serif" font-size="10.00">odp/helper/icmp.h</text>
</a>
</g>
</g>
<!-- Node1&#45;&gt;Node10 -->
<g id="edge12" class="edge">
<title>Node1&#45;&gt;Node10</title>
<path fill="none" stroke="midnightblue" d="M797.49,-241.29C757.3,-236.97 690.38,-226.06 639.5,-199 616.73,-186.89 595.8,-165.52 582.87,-150.59"/>
<polygon fill="midnightblue" stroke="midnightblue" points="585.34,-148.09 576.23,-142.67 579.97,-152.59 585.34,-148.09"/>
</g>
<!-- Node11 -->
<g id="node11" class="node">
<title>Node11</title>
<g id="a_node11"><a xlink:href="igmp_8h.html" target="_top" xlink:title="ODP IGMP header.">
<polygon fill="white" stroke="black" points="925,-123.5 925,-142.5 1030,-142.5 1030,-123.5 925,-123.5"/>
<text text-anchor="middle" x="977.5" y="-130.5" font-family="Helvetica,sans-Serif" font-size="10.00">odp/helper/igmp.h</text>
</a>
</g>
</g>
<!-- Node1&#45;&gt;Node11 -->
<g id="edge14" class="edge">
<title>Node1&#45;&gt;Node11</title>
<path fill="none" stroke="midnightblue" d="M825.4,-235.11C815.6,-221.69 800.52,-196.01 813.5,-179 826.03,-162.57 873.88,-150.66 914.68,-143.23"/>
<polygon fill="midnightblue" stroke="midnightblue" points="915.36,-146.66 924.61,-141.48 914.15,-139.77 915.36,-146.66"/>
</g>
<!-- Node12 -->
<g id="node12" class="node">
<title>Node12</title>
<g id="a_node12"><a xlink:href="ip_8h.html" target="_top" xlink:title="ODP IP header.">
<polygon fill="white" stroke="black" points="1201,-179.5 1201,-198.5 1290,-198.5 1290,-179.5 1201,-179.5"/>
<text text-anchor="middle" x="1245.5" y="-186.5" font-family="Helvetica,sans-Serif" font-size="10.00">odp/helper/ip.h</text>
</a>
</g>
</g>
<!-- Node1&#45;&gt;Node12 -->
<g id="edge16" class="edge">
<title>Node1&#45;&gt;Node12</title>
<path fill="none" stroke="midnightblue" d="M867.72,-240.06C930.42,-232.95 1065.71,-217.14 1190.61,-199.08"/>
<polygon fill="midnightblue" stroke="midnightblue" points="1191.34,-202.51 1200.73,-197.6 1190.33,-195.58 1191.34,-202.51"/>
</g>
<!-- Node13 -->
<g id="node13" class="node">
<title>Node13</title>
<g id="a_node13"><a xlink:href="string_8h.html" target="_top" xlink:title="ODP string helper.">
<polygon fill="white" stroke="black" points="1344,-123.5 1344,-142.5 1397,-142.5 1397,-123.5 1344,-123.5"/>
<text text-anchor="middle" x="1370.5" y="-130.5" font-family="Helvetica,sans-Serif" font-size="10.00">string.h</text>
</a>
</g>
</g>
<!-- Node1&#45;&gt;Node13 -->
<g id="edge28" class="edge">
<title>Node1&#45;&gt;Node13</title>
<path fill="none" stroke="midnightblue" d="M867.66,-244.27C996.13,-244.9 1434.79,-243.72 1476.5,-199 1501.54,-172.15 1446.52,-152.28 1406.76,-141.98"/>
<polygon fill="midnightblue" stroke="midnightblue" points="1407.59,-138.58 1397.04,-139.56 1405.91,-145.37 1407.59,-138.58"/>
</g>
<!-- Node15 -->
<g id="node15" class="node">
<title>Node15</title>
<g id="a_node15"><a xlink:href="ipsec_8h.html" target="_top" xlink:title="ODP IPSec headers.">
<polygon fill="white" stroke="black" points="215.5,-179.5 215.5,-198.5 321.5,-198.5 321.5,-179.5 215.5,-179.5"/>
<text text-anchor="middle" x="268.5" y="-186.5" font-family="Helvetica,sans-Serif" font-size="10.00">odp/helper/ipsec.h</text>
</a>
</g>
</g>
<!-- Node1&#45;&gt;Node15 -->
<g id="edge22" class="edge">
<title>Node1&#45;&gt;Node15</title>
<path fill="none" stroke="midnightblue" d="M797.44,-241.52C717.03,-235.69 512.95,-220.1 331.56,-199.07"/>
<polygon fill="midnightblue" stroke="midnightblue" points="331.91,-195.58 321.57,-197.9 331.1,-202.54 331.91,-195.58"/>
</g>
<!-- Node16 -->
<g id="node16" class="node">
<title>Node16</title>
<g id="a_node16"><a xlink:href="macros_8h.html" target="_top" xlink:title="Common helper macros.">
<polygon fill="white" stroke="black" points="938.5,-179.5 938.5,-198.5 1054.5,-198.5 1054.5,-179.5 938.5,-179.5"/>
<text text-anchor="middle" x="996.5" y="-186.5" font-family="Helvetica,sans-Serif" font-size="10.00">odp/helper/macros.h</text>
</a>
</g>
</g>
<!-- Node1&#45;&gt;Node16 -->
<g id="edge24" class="edge">
<title>Node1&#45;&gt;Node16</title>
<path fill="none" stroke="midnightblue" d="M858.49,-235.44C886.2,-226.32 930.25,-211.81 961.12,-201.65"/>
<polygon fill="midnightblue" stroke="midnightblue" points="962.23,-204.97 970.64,-198.52 960.04,-198.32 962.23,-204.97"/>
</g>
<!-- Node17 -->
<g id="node17" class="node">
<title>Node17</title>
<g id="a_node17"><a xlink:href="stress_8h.html" target="_top" xlink:title="ODP helper stress.">
<polygon fill="white" stroke="black" points="1072.5,-179.5 1072.5,-198.5 1182.5,-198.5 1182.5,-179.5 1072.5,-179.5"/>
<text text-anchor="middle" x="1127.5" y="-186.5" font-family="Helvetica,sans-Serif" font-size="10.00">odp/helper/stress.h</text>
</a>
</g>
</g>
<!-- Node1&#45;&gt;Node17 -->
<g id="edge25" class="edge">
<title>Node1&#45;&gt;Node17</title>
<path fill="none" stroke="midnightblue" d="M867.79,-237.54C918.1,-228.33 1010.98,-211.33 1070.95,-200.35"/>
<polygon fill="midnightblue" stroke="midnightblue" points="1071.81,-203.75 1081.01,-198.51 1070.55,-196.87 1071.81,-203.75"/>
</g>
<!-- Node18 -->
<g id="node18" class="node">
<title>Node18</title>
<g id="a_node18"><a xlink:href="sctp_8h.html" target="_top" xlink:title="ODP SCTP header.">
<polygon fill="white" stroke="black" points="340,-179.5 340,-198.5 441,-198.5 441,-179.5 340,-179.5"/>
<text text-anchor="middle" x="390.5" y="-186.5" font-family="Helvetica,sans-Serif" font-size="10.00">odp/helper/sctp.h</text>
</a>
</g>
</g>
<!-- Node1&#45;&gt;Node18 -->
<g id="edge26" class="edge">
<title>Node1&#45;&gt;Node18</title>
<path fill="none" stroke="midnightblue" d="M797.33,-240.28C731.47,-233.22 584.78,-217.08 451.03,-199.17"/>
<polygon fill="midnightblue" stroke="midnightblue" points="451.39,-195.69 441.01,-197.82 450.46,-202.62 451.39,-195.69"/>
</g>
<!-- Node19 -->
<g id="node19" class="node">
<title>Node19</title>
<g id="a_node19"><a xlink:href="strong__types_8h.html" target="_top" xlink:title="ODP Strong Types.">
<polygon fill="white" stroke="black" points="1308,-179.5 1308,-198.5 1451,-198.5 1451,-179.5 1308,-179.5"/>
<text text-anchor="middle" x="1379.5" y="-186.5" font-family="Helvetica,sans-Serif" font-size="10.00">odp/helper/strong_types.h</text>
</a>
</g>
</g>
<!-- Node1&#45;&gt;Node19 -->
<g id="edge29" class="edge">
<title>Node1&#45;&gt;Node19</title>
<path fill="none" stroke="midnightblue" d="M867.67,-240.8C944,-233.83 1130.8,-216.53 1298.01,-199.14"/>
<polygon fill="midnightblue" stroke="midnightblue" points="1298.39,-202.62 1307.98,-198.1 1297.67,-195.66 1298.39,-202.62"/>
</g>
<!-- Node20 -->
<g id="node20" class="node">
<title>Node20</title>
<g id="a_node20"><a xlink:href="tcp_8h.html" target="_top" xlink:title="ODP TCP header.">
<polygon fill="white" stroke="black" points="459,-179.5 459,-198.5 554,-198.5 554,-179.5 459,-179.5"/>
<text text-anchor="middle" x="506.5" y="-186.5" font-family="Helvetica,sans-Serif" font-size="10.00">odp/helper/tcp.h</text>
</a>
</g>
</g>
<!-- Node1&#45;&gt;Node20 -->
<g id="edge30" class="edge">
<title>Node1&#45;&gt;Node20</title>
<path fill="none" stroke="midnightblue" d="M797.3,-238.17C741.4,-228.91 631.73,-210.74 564.21,-199.56"/>
<polygon fill="midnightblue" stroke="midnightblue" points="564.6,-196.08 554.16,-197.89 563.45,-202.98 564.6,-196.08"/>
</g>
<!-- Node21 -->
<g id="node21" class="node">
<title>Node21</title>
<g id="a_node21"><a xlink:href="threads_8h.html" target="_top" xlink:title="ODP Linux helper API.">
<polygon fill="white" stroke="black" points="649,-179.5 649,-198.5 766,-198.5 766,-179.5 649,-179.5"/>
<text text-anchor="middle" x="707.5" y="-186.5" font-family="Helvetica,sans-Serif" font-size="10.00">odp/helper/threads.h</text>
</a>
</g>
</g>
<!-- Node1&#45;&gt;Node21 -->
<g id="edge32" class="edge">
<title>Node1&#45;&gt;Node21</title>
<path fill="none" stroke="midnightblue" d="M812.69,-235.44C792.21,-226.6 760.02,-212.69 736.64,-202.59"/>
<polygon fill="midnightblue" stroke="midnightblue" points="737.78,-199.27 727.21,-198.52 735.01,-205.7 737.78,-199.27"/>
</g>
<!-- Node26 -->
<g id="node26" class="node">
<title>Node26</title>
<g id="a_node26"><a xlink:href="udp_8h.html" target="_top" xlink:title="ODP UDP header.">
<polygon fill="white" stroke="black" points="822.5,-179.5 822.5,-198.5 920.5,-198.5 920.5,-179.5 822.5,-179.5"/>
<text text-anchor="middle" x="871.5" y="-186.5" font-family="Helvetica,sans-Serif" font-size="10.00">odp/helper/udp.h</text>
</a>
</g>
</g>
<!-- Node1&#45;&gt;Node26 -->
<g id="edge41" class="edge">
<title>Node1&#45;&gt;Node26</title>
<path fill="none" stroke="midnightblue" d="M838.94,-235.08C844.45,-227.46 852.53,-216.26 859.26,-206.94"/>
<polygon fill="midnightblue" stroke="midnightblue" points="862.16,-208.91 865.18,-198.75 856.49,-204.81 862.16,-208.91"/>
</g>
<!-- Node27 -->
<g id="node27" class="node">
<title>Node27</title>
<g id="a_node27"><a xlink:href="version_8h.html" target="_top" xlink:title="ODP helper version.">
<polygon fill="white" stroke="black" points="1583.5,-179.5 1583.5,-198.5 1699.5,-198.5 1699.5,-179.5 1583.5,-179.5"/>
<text text-anchor="middle" x="1641.5" y="-186.5" font-family="Helvetica,sans-Serif" font-size="10.00">odp/helper/version.h</text>
</a>
</g>
</g>
<!-- Node1&#45;&gt;Node27 -->
<g id="edge44" class="edge">
<title>Node1&#45;&gt;Node27</title>
<path fill="none" stroke="midnightblue" d="M867.85,-242.64C974.15,-238.37 1300.18,-224.03 1569.5,-199 1570.77,-198.88 1572.05,-198.76 1573.34,-198.63"/>
<polygon fill="midnightblue" stroke="midnightblue" points="1573.79,-202.1 1583.38,-197.59 1573.07,-195.14 1573.79,-202.1"/>
</g>
<!-- Node4 -->
<g id="node4" class="node">
<title>Node4</title>
<g id="a_node4"><a xlink:title=" ">
<polygon fill="white" stroke="#bfbfbf" points="744.5,-67.5 744.5,-86.5 808.5,-86.5 808.5,-67.5 744.5,-67.5"/>
<text text-anchor="middle" x="776.5" y="-74.5" font-family="Helvetica,sans-Serif" font-size="10.00">odp_api.h</text>
</a>
</g>
</g>
<!-- Node3&#45;&gt;Node4 -->
<g id="edge3" class="edge">
<title>Node3&#45;&gt;Node4</title>
<path fill="none" stroke="midnightblue" d="M1092.08,-123.44C1016.02,-112.49 886.09,-93.78 819.15,-84.14"/>
<polygon fill="midnightblue" stroke="midnightblue" points="819.36,-80.64 808.96,-82.67 818.36,-87.56 819.36,-80.64"/>
</g>
<!-- Node5&#45;&gt;Node2 -->
<g id="edge5" class="edge">
<title>Node5&#45;&gt;Node2</title>
<path fill="none" stroke="midnightblue" d="M92.9,-179.2C92.36,-166.33 92.62,-141.85 100.5,-123 114.63,-89.21 143.07,-57.68 163.59,-37.83"/>
<polygon fill="midnightblue" stroke="midnightblue" points="166.15,-40.22 171.02,-30.81 161.35,-35.13 166.15,-40.22"/>
</g>
<!-- Node6 -->
<g id="node6" class="node">
<title>Node6</title>
<g id="a_node6"><a xlink:title=" ">
<polygon fill="white" stroke="#bfbfbf" points="109.5,-123.5 109.5,-142.5 159.5,-142.5 159.5,-123.5 109.5,-123.5"/>
<text text-anchor="middle" x="134.5" y="-130.5" font-family="Helvetica,sans-Serif" font-size="10.00">stdio.h</text>
</a>
</g>
</g>
<!-- Node5&#45;&gt;Node6 -->
<g id="edge6" class="edge">
<title>Node5&#45;&gt;Node6</title>
<path fill="none" stroke="midnightblue" d="M100.27,-179.08C106.06,-171.46 114.56,-160.26 121.64,-150.94"/>
<polygon fill="midnightblue" stroke="midnightblue" points="124.6,-152.83 127.86,-142.75 119.02,-148.6 124.6,-152.83"/>
</g>
<!-- Node7 -->
<g id="node7" class="node">
<title>Node7</title>
<g id="a_node7"><a xlink:title=" ">
<polygon fill="white" stroke="#bfbfbf" points="0,-123.5 0,-142.5 53,-142.5 53,-123.5 0,-123.5"/>
<text text-anchor="middle" x="26.5" y="-130.5" font-family="Helvetica,sans-Serif" font-size="10.00">stdlib.h</text>
</a>
</g>
</g>
<!-- Node5&#45;&gt;Node7 -->
<g id="edge7" class="edge">
<title>Node5&#45;&gt;Node7</title>
<path fill="none" stroke="midnightblue" d="M82.74,-179.32C72.73,-171.26 57.61,-159.08 45.57,-149.37"/>
<polygon fill="midnightblue" stroke="midnightblue" points="47.44,-146.38 37.46,-142.83 43.05,-151.83 47.44,-146.38"/>
</g>
<!-- Node8&#45;&gt;Node4 -->
<g id="edge9" class="edge">
<title>Node8&#45;&gt;Node4</title>
<path fill="none" stroke="midnightblue" d="M1470.22,-127.13C1455.54,-125.72 1439.37,-124.23 1424.5,-123 1196.05,-104.13 921.84,-86.86 818.58,-80.54"/>
<polygon fill="midnightblue" stroke="midnightblue" points="818.74,-77.04 808.55,-79.93 818.32,-84.03 818.74,-77.04"/>
</g>
<!-- Node9&#45;&gt;Node4 -->
<g id="edge11" class="edge">
<title>Node9&#45;&gt;Node4</title>
<path fill="none" stroke="midnightblue" d="M499.8,-123.97C563.32,-113.42 673.91,-95.05 734.26,-85.02"/>
<polygon fill="midnightblue" stroke="midnightblue" points="734.92,-88.46 744.21,-83.37 733.77,-81.55 734.92,-88.46"/>
</g>
<!-- Node10&#45;&gt;Node4 -->
<g id="edge13" class="edge">
<title>Node10&#45;&gt;Node4</title>
<path fill="none" stroke="midnightblue" d="M602.3,-123.44C637.99,-114.13 695.15,-99.22 734.19,-89.04"/>
<polygon fill="midnightblue" stroke="midnightblue" points="735.4,-92.34 744.19,-86.43 733.63,-85.57 735.4,-92.34"/>
</g>
<!-- Node11&#45;&gt;Node4 -->
<g id="edge15" class="edge">
<title>Node11&#45;&gt;Node4</title>
<path fill="none" stroke="midnightblue" d="M945.65,-123.44C911.1,-114.16 855.82,-99.31 817.92,-89.13"/>
<polygon fill="midnightblue" stroke="midnightblue" points="818.77,-85.73 808.2,-86.52 816.95,-92.49 818.77,-85.73"/>
</g>
<!-- Node12&#45;&gt;Node3 -->
<g id="edge18" class="edge">
<title>Node12&#45;&gt;Node3</title>
<path fill="none" stroke="midnightblue" d="M1230.4,-179.32C1215.6,-170.82 1192.81,-157.73 1175.52,-147.8"/>
<polygon fill="midnightblue" stroke="midnightblue" points="1176.98,-144.6 1166.57,-142.65 1173.49,-150.67 1176.98,-144.6"/>
</g>
<!-- Node12&#45;&gt;Node4 -->
<g id="edge17" class="edge">
<title>Node12&#45;&gt;Node4</title>
<path fill="none" stroke="midnightblue" d="M1244.92,-179.14C1243.47,-164.78 1238.37,-136.65 1220.5,-123 1188.99,-98.93 923.94,-84.58 819.02,-79.8"/>
<polygon fill="midnightblue" stroke="midnightblue" points="818.94,-76.29 808.79,-79.34 818.62,-83.28 818.94,-76.29"/>
</g>
<!-- Node12&#45;&gt;Node13 -->
<g id="edge19" class="edge">
<title>Node12&#45;&gt;Node13</title>
<path fill="none" stroke="midnightblue" d="M1265.31,-179.44C1285.79,-170.6 1317.98,-156.69 1341.36,-146.59"/>
<polygon fill="midnightblue" stroke="midnightblue" points="1342.99,-149.7 1350.79,-142.52 1340.22,-143.27 1342.99,-149.7"/>
</g>
<!-- Node13&#45;&gt;Node13 -->
<g id="edge21" class="edge">
<title>Node13&#45;&gt;Node13</title>
<path fill="none" stroke="midnightblue" d="M1389.71,-142.57C1402.53,-145.27 1415,-142.08 1415,-133 1415,-126.4 1408.42,-122.92 1399.9,-122.54"/>
<polygon fill="midnightblue" stroke="midnightblue" points="1399.37,-119.07 1389.71,-123.43 1399.98,-126.04 1399.37,-119.07"/>
</g>
<!-- Node14 -->
<g id="node14" class="node">
<title>Node14</title>
<g id="a_node14"><a xlink:title=" ">
<polygon fill="white" stroke="#bfbfbf" points="1326,-67.5 1326,-86.5 1415,-86.5 1415,-67.5 1326,-67.5"/>
<text text-anchor="middle" x="1370.5" y="-74.5" font-family="Helvetica,sans-Serif" font-size="10.00">odp/api/hints.h</text>
</a>
</g>
</g>
<!-- Node13&#45;&gt;Node14 -->
<g id="edge20" class="edge">
<title>Node13&#45;&gt;Node14</title>
<path fill="none" stroke="midnightblue" d="M1370.5,-123.08C1370.5,-116.01 1370.5,-105.86 1370.5,-96.99"/>
<polygon fill="midnightblue" stroke="midnightblue" points="1374,-96.75 1370.5,-86.75 1367,-96.75 1374,-96.75"/>
</g>
<!-- Node15&#45;&gt;Node4 -->
<g id="edge23" class="edge">
<title>Node15&#45;&gt;Node4</title>
<path fill="none" stroke="midnightblue" d="M278.73,-179.46C296.63,-165.05 335.4,-136.17 373.5,-123 439.42,-100.22 644.75,-85.74 734.17,-80.36"/>
<polygon fill="midnightblue" stroke="midnightblue" points="734.45,-83.85 744.23,-79.77 734.04,-76.87 734.45,-83.85"/>
</g>
<!-- Node18&#45;&gt;Node4 -->
<g id="edge27" class="edge">
<title>Node18&#45;&gt;Node4</title>
<path fill="none" stroke="midnightblue" d="M386.05,-179.16C379.79,-165.33 370.62,-138.56 384.5,-123 407.49,-97.22 637.57,-84.13 734.16,-79.74"/>
<polygon fill="midnightblue" stroke="midnightblue" points="734.61,-83.22 744.44,-79.28 734.3,-76.23 734.61,-83.22"/>
</g>
<!-- Node20&#45;&gt;Node4 -->
<g id="edge31" class="edge">
<title>Node20&#45;&gt;Node4</title>
<path fill="none" stroke="midnightblue" d="M463.63,-179.43C422.53,-169.36 370.08,-150.47 394.5,-123 416.79,-97.93 639.5,-84.49 734.22,-79.87"/>
<polygon fill="midnightblue" stroke="midnightblue" points="734.49,-83.36 744.32,-79.39 734.16,-76.37 734.49,-83.36"/>
</g>
<!-- Node21&#45;&gt;Node4 -->
<g id="edge33" class="edge">
<title>Node21&#45;&gt;Node4</title>
<path fill="none" stroke="midnightblue" d="M737.75,-179.49C755.63,-172.73 776.8,-161.29 787.5,-143 795.88,-128.67 791.23,-109.72 785.63,-95.97"/>
<polygon fill="midnightblue" stroke="midnightblue" points="788.71,-94.28 781.36,-86.65 782.34,-97.2 788.71,-94.28"/>
</g>
<!-- Node22 -->
<g id="node22" class="node">
<title>Node22</title>
<g id="a_node22"><a xlink:href="pthread_8h.html" target="_top" xlink:title="ODP Linux helper for pthreads.">
<polygon fill="white" stroke="black" points="715,-123.5 715,-142.5 778,-142.5 778,-123.5 715,-123.5"/>
<text text-anchor="middle" x="746.5" y="-130.5" font-family="Helvetica,sans-Serif" font-size="10.00">pthread.h</text>
</a>
</g>
</g>
<!-- Node21&#45;&gt;Node22 -->
<g id="edge34" class="edge">
<title>Node21&#45;&gt;Node22</title>
<path fill="none" stroke="midnightblue" d="M708.77,-179.08C712.75,-171.3 720.69,-159.8 728.42,-150.37"/>
<polygon fill="midnightblue" stroke="midnightblue" points="731.12,-152.59 735.05,-142.75 725.84,-147.99 731.12,-152.59"/>
</g>
<!-- Node24 -->
<g id="node24" class="node">
<title>Node24</title>
<g id="a_node24"><a xlink:title=" ">
<polygon fill="white" stroke="#bfbfbf" points="640,-123.5 640,-142.5 697,-142.5 697,-123.5 640,-123.5"/>
<text text-anchor="middle" x="668.5" y="-130.5" font-family="Helvetica,sans-Serif" font-size="10.00">getopt.h</text>
</a>
</g>
</g>
<!-- Node21&#45;&gt;Node24 -->
<g id="edge39" class="edge">
<title>Node21&#45;&gt;Node24</title>
<path fill="none" stroke="midnightblue" d="M701.06,-179.08C695.55,-171.46 687.47,-160.26 680.74,-150.94"/>
<polygon fill="midnightblue" stroke="midnightblue" points="683.51,-148.81 674.82,-142.75 677.84,-152.91 683.51,-148.81"/>
</g>
<!-- Node25 -->
<g id="node25" class="node">
<title>Node25</title>
<g id="a_node25"><a xlink:title=" ">
<polygon fill="white" stroke="#bfbfbf" points="834.5,-123.5 834.5,-142.5 906.5,-142.5 906.5,-123.5 834.5,-123.5"/>
<text text-anchor="middle" x="870.5" y="-130.5" font-family="Helvetica,sans-Serif" font-size="10.00">sys/types.h</text>
</a>
</g>
</g>
<!-- Node21&#45;&gt;Node25 -->
<g id="edge40" class="edge">
<title>Node21&#45;&gt;Node25</title>
<path fill="none" stroke="midnightblue" d="M733.33,-179.44C760.75,-170.36 804.28,-155.94 834.93,-145.78"/>
<polygon fill="midnightblue" stroke="midnightblue" points="836.4,-148.98 844.79,-142.52 834.2,-142.34 836.4,-148.98"/>
</g>
<!-- Node22&#45;&gt;Node4 -->
<g id="edge38" class="edge">
<title>Node22&#45;&gt;Node4</title>
<path fill="none" stroke="midnightblue" d="M751.45,-123.08C755.6,-115.61 761.65,-104.72 766.77,-95.52"/>
<polygon fill="midnightblue" stroke="midnightblue" points="769.84,-97.19 771.64,-86.75 763.72,-93.79 769.84,-97.19"/>
</g>
<!-- Node22&#45;&gt;Node21 -->
<g id="edge37" class="edge">
<title>Node22&#45;&gt;Node21</title>
<path fill="none" stroke="midnightblue" d="M745.31,-142.75C741.39,-150.48 733.48,-161.97 725.75,-171.43"/>
<polygon fill="midnightblue" stroke="midnightblue" points="723.02,-169.24 719.11,-179.08 728.3,-173.82 723.02,-169.24"/>
</g>
<!-- Node23 -->
<g id="node23" class="node">
<title>Node23</title>
<g id="a_node23"><a xlink:href="deprecated_8h.html" target="_top" xlink:title="Macro for deprecated API definitions.">
<polygon fill="white" stroke="black" points="434,-67.5 434,-86.5 569,-86.5 569,-67.5 434,-67.5"/>
<text text-anchor="middle" x="501.5" y="-74.5" font-family="Helvetica,sans-Serif" font-size="10.00">odp/helper/deprecated.h</text>
</a>
</g>
</g>
<!-- Node22&#45;&gt;Node23 -->
<g id="edge35" class="edge">
<title>Node22&#45;&gt;Node23</title>
<path fill="none" stroke="midnightblue" d="M714.63,-124.81C711.88,-124.2 709.14,-123.59 706.5,-123 653.27,-111.17 592.21,-97.79 550.67,-88.72"/>
<polygon fill="midnightblue" stroke="midnightblue" points="551.33,-85.28 540.81,-86.57 549.84,-92.12 551.33,-85.28"/>
</g>
<!-- Node23&#45;&gt;Node2 -->
<g id="edge36" class="edge">
<title>Node23&#45;&gt;Node2</title>
<path fill="none" stroke="midnightblue" d="M456.51,-67.48C405.51,-57.81 321.6,-41.91 261.05,-30.44"/>
<polygon fill="midnightblue" stroke="midnightblue" points="261.64,-26.99 251.16,-28.56 260.33,-33.86 261.64,-26.99"/>
</g>
<!-- Node26&#45;&gt;Node3 -->
<g id="edge43" class="edge">
<title>Node26&#45;&gt;Node3</title>
<path fill="none" stroke="midnightblue" d="M915.87,-179.44C965.12,-169.94 1044.63,-154.61 1097.47,-144.42"/>
<polygon fill="midnightblue" stroke="midnightblue" points="1098.18,-147.85 1107.34,-142.52 1096.86,-140.97 1098.18,-147.85"/>
</g>
<!-- Node26&#45;&gt;Node4 -->
<g id="edge42" class="edge">
<title>Node26&#45;&gt;Node4</title>
<path fill="none" stroke="midnightblue" d="M913.83,-179.45C961.01,-169.49 1031.73,-153.12 1039.5,-143 1044.91,-135.95 1045.23,-129.79 1039.5,-123 1011.79,-90.14 886.05,-81.28 818.97,-78.88"/>
<polygon fill="midnightblue" stroke="midnightblue" points="818.84,-75.38 808.73,-78.55 818.61,-82.37 818.84,-75.38"/>
</g>
</g>
</svg>
