<?xml version="1.0" encoding="UTF-8" standalone="no"?>
<!DOCTYPE svg PUBLIC "-//W3C//DTD SVG 1.1//EN"
 "http://www.w3.org/Graphics/SVG/1.1/DTD/svg11.dtd">
<!-- Generated by graphviz version 2.43.0 (0)
 -->
<!-- Title: odph_api.h Pages: 1 -->
<svg width="1708pt" height="258pt"
 viewBox="0.00 0.00 1707.50 258.00" xmlns="http://www.w3.org/2000/svg" xmlns:xlink="http://www.w3.org/1999/xlink">
<g id="graph0" class="graph" transform="scale(1 1) rotate(0) translate(4 254)">
<title>odph_api.h</title>
<!-- Node1 -->
<g id="Node000001" class="node">
<title>Node1</title>
<g id="a_Node000001"><a xlink:title="The OpenDataPlane helper API.">
<polygon fill="#999999" stroke="#666666" points="867.5,-250 797.5,-250 797.5,-231 867.5,-231 867.5,-250"/>
<text text-anchor="middle" x="832.5" y="-238" font-family="Helvetica,sans-Serif" font-size="10.00">odph_api.h</text>
</a>
</g>
</g>
<!-- Node2 -->
<g id="Node000002" class="node">
<title>Node2</title>
<g id="a_Node000002"><a xlink:href="autoheader__external_8h_source.html" target="_top" xlink:title=" ">
<polygon fill="white" stroke="#666666" points="251,-30 124,-30 124,0 251,0 251,-30"/>
<text text-anchor="start" x="132" y="-18" font-family="Helvetica,sans-Serif" font-size="10.00">odp/helper/autoheader</text>
<text text-anchor="middle" x="187.5" y="-7" font-family="Helvetica,sans-Serif" font-size="10.00">_external.h</text>
</a>
</g>
</g>
<!-- Node1&#45;&gt;Node2 -->
<g id="edge1_Node000001_Node000002" class="edge">
<title>Node1&#45;&gt;Node2</title>
<g id="a_edge1_Node000001_Node000002"><a xlink:title=" ">
<path fill="none" stroke="#63b8ff" d="M797.17,-239.58C671.19,-239.5 249.11,-236.16 206.5,-195 164.79,-154.72 173.56,-78.79 181.55,-40.05"/>
<polygon fill="#63b8ff" stroke="#63b8ff" points="184.99,-40.69 183.74,-30.17 178.16,-39.18 184.99,-40.69"/>
</a>
</g>
</g>
<!-- Node3 -->
<g id="Node000003" class="node">
<title>Node3</title>
<g id="a_Node000003"><a xlink:href="chksum_8h.html" target="_top" xlink:title="ODP checksum helper.">
<polygon fill="white" stroke="#666666" points="1211,-140 1092,-140 1092,-121 1211,-121 1211,-140"/>
<text text-anchor="middle" x="1151.5" y="-128" font-family="Helvetica,sans-Serif" font-size="10.00">odp/helper/chksum.h</text>
</a>
</g>
</g>
<!-- Node1&#45;&gt;Node3 -->
<g id="edge2_Node000001_Node000003" class="edge">
<title>Node1&#45;&gt;Node3</title>
<g id="a_edge2_Node000001_Node000003"><a xlink:title=" ">
<path fill="none" stroke="#63b8ff" d="M867.65,-239.73C994.02,-240.21 1419.94,-238.53 1460.5,-195 1466.26,-188.82 1466.03,-182.38 1460.5,-176 1445.03,-158.14 1307.31,-143.97 1221.03,-136.74"/>
<polygon fill="#63b8ff" stroke="#63b8ff" points="1221.29,-133.25 1211.04,-135.92 1220.72,-140.23 1221.29,-133.25"/>
</a>
</g>
</g>
<!-- Node5 -->
<g id="Node000005" class="node">
<title>Node5</title>
<g id="a_Node000005"><a xlink:href="debug_8h.html" target="_top" xlink:title="Helper debug.">
<polygon fill="white" stroke="#666666" points="148.5,-195 38.5,-195 38.5,-176 148.5,-176 148.5,-195"/>
<text text-anchor="middle" x="93.5" y="-183" font-family="Helvetica,sans-Serif" font-size="10.00">odp/helper/debug.h</text>
</a>
</g>
</g>
<!-- Node1&#45;&gt;Node5 -->
<g id="edge4_Node000001_Node000005" class="edge">
<title>Node1&#45;&gt;Node5</title>
<g id="a_edge4_Node000001_Node000005"><a xlink:title=" ">
<path fill="none" stroke="#63b8ff" d="M797.46,-237.61C699.03,-232.2 411.69,-215.69 173.5,-195 168.71,-194.58 163.76,-194.13 158.78,-193.64"/>
<polygon fill="#63b8ff" stroke="#63b8ff" points="158.85,-190.14 148.56,-192.63 158.16,-197.1 158.85,-190.14"/>
</a>
</g>
</g>
<!-- Node8 -->
<g id="Node000008" class="node">
<title>Node8</title>
<g id="a_Node000008"><a xlink:href="eth_8h.html" target="_top" xlink:title="ODP ethernet header.">
<polygon fill="white" stroke="#666666" points="1566.5,-140 1470.5,-140 1470.5,-121 1566.5,-121 1566.5,-140"/>
<text text-anchor="middle" x="1518.5" y="-128" font-family="Helvetica,sans-Serif" font-size="10.00">odp/helper/eth.h</text>
</a>
</g>
</g>
<!-- Node1&#45;&gt;Node8 -->
<g id="edge8_Node000001_Node000008" class="edge">
<title>Node1&#45;&gt;Node8</title>
<g id="a_edge8_Node000001_Node000008"><a xlink:title=" ">
<path fill="none" stroke="#63b8ff" d="M867.63,-239.3C997.11,-238.28 1442.79,-232.09 1493.5,-195 1507.67,-184.63 1513.82,-164.98 1516.47,-150.28"/>
<polygon fill="#63b8ff" stroke="#63b8ff" points="1519.96,-150.62 1517.9,-140.23 1513.03,-149.64 1519.96,-150.62"/>
</a>
</g>
</g>
<!-- Node9 -->
<g id="Node000009" class="node">
<title>Node9</title>
<g id="a_Node000009"><a xlink:href="gtp_8h.html" target="_top" xlink:title="ODP GTP header.">
<polygon fill="white" stroke="#666666" points="499.5,-140 403.5,-140 403.5,-121 499.5,-121 499.5,-140"/>
<text text-anchor="middle" x="451.5" y="-128" font-family="Helvetica,sans-Serif" font-size="10.00">odp/helper/gtp.h</text>
</a>
</g>
</g>
<!-- Node1&#45;&gt;Node9 -->
<g id="edge10_Node000001_Node000009" class="edge">
<title>Node1&#45;&gt;Node9</title>
<g id="a_edge10_Node000001_Node000009"><a xlink:title=" ">
<path fill="none" stroke="#63b8ff" d="M797.45,-234.71C752.91,-228.13 673.96,-214.81 608.5,-195 587.33,-188.59 582.99,-184.34 562.5,-176 535.53,-165.02 504.8,-152.72 482.52,-143.83"/>
<polygon fill="#63b8ff" stroke="#63b8ff" points="483.81,-140.58 473.22,-140.13 481.22,-147.08 483.81,-140.58"/>
</a>
</g>
</g>
<!-- Node10 -->
<g id="Node000010" class="node">
<title>Node10</title>
<g id="a_Node000010"><a xlink:href="icmp_8h.html" target="_top" xlink:title="ODP ICMP header.">
<polygon fill="white" stroke="#666666" points="621.5,-140 517.5,-140 517.5,-121 621.5,-121 621.5,-140"/>
<text text-anchor="middle" x="569.5" y="-128" font-family="Helvetica,sans-Serif" font-size="10.00">odp/helper/icmp.h</text>
</a>
</g>
</g>
<!-- Node1&#45;&gt;Node10 -->
<g id="edge12_Node000001_Node000010" class="edge">
<title>Node1&#45;&gt;Node10</title>
<g id="a_edge12_Node000001_Node000010"><a xlink:title=" ">
<path fill="none" stroke="#63b8ff" d="M797.19,-236.75C757.02,-232.43 690.39,-221.6 639.5,-195 617.13,-183.31 596.37,-162.74 583.37,-148.19"/>
<polygon fill="#63b8ff" stroke="#63b8ff" points="585.84,-145.7 576.65,-140.42 580.54,-150.28 585.84,-145.7"/>
</a>
</g>
</g>
<!-- Node11 -->
<g id="Node000011" class="node">
<title>Node11</title>
<g id="a_Node000011"><a xlink:href="igmp_8h.html" target="_top" xlink:title="ODP IGMP header.">
<polygon fill="white" stroke="#666666" points="1030,-140 925,-140 925,-121 1030,-121 1030,-140"/>
<text text-anchor="middle" x="977.5" y="-128" font-family="Helvetica,sans-Serif" font-size="10.00">odp/helper/igmp.h</text>
</a>
</g>
</g>
<!-- Node1&#45;&gt;Node11 -->
<g id="edge14_Node000001_Node000011" class="edge">
<title>Node1&#45;&gt;Node11</title>
<g id="a_edge14_Node000001_Node000011"><a xlink:title=" ">
<path fill="none" stroke="#63b8ff" d="M825.47,-230.82C815.75,-217.71 800.78,-192.64 813.5,-176 826.04,-159.6 873.89,-147.83 914.69,-140.53"/>
<polygon fill="#63b8ff" stroke="#63b8ff" points="915.36,-143.97 924.61,-138.82 914.17,-137.07 915.36,-143.97"/>
</a>
</g>
</g>
<!-- Node12 -->
<g id="Node000012" class="node">
<title>Node12</title>
<g id="a_Node000012"><a xlink:href="ip_8h.html" target="_top" xlink:title="ODP IP header.">
<polygon fill="white" stroke="#666666" points="1290,-195 1201,-195 1201,-176 1290,-176 1290,-195"/>
<text text-anchor="middle" x="1245.5" y="-183" font-family="Helvetica,sans-Serif" font-size="10.00">odp/helper/ip.h</text>
</a>
</g>
</g>
<!-- Node1&#45;&gt;Node12 -->
<g id="edge16_Node000001_Node000012" class="edge">
<title>Node1&#45;&gt;Node12</title>
<g id="a_edge16_Node000001_Node000012"><a xlink:title=" ">
<path fill="none" stroke="#63b8ff" d="M867.71,-235.52C930.38,-228.36 1065.65,-212.53 1190.6,-195.08"/>
<polygon fill="#63b8ff" stroke="#63b8ff" points="1191.31,-198.52 1200.73,-193.66 1190.34,-191.59 1191.31,-198.52"/>
</a>
</g>
</g>
<!-- Node13 -->
<g id="Node000013" class="node">
<title>Node13</title>
<g id="a_Node000013"><a xlink:href="string_8h.html" target="_top" xlink:title="ODP string helper.">
<polygon fill="white" stroke="#666666" points="1397,-140 1344,-140 1344,-121 1397,-121 1397,-140"/>
<text text-anchor="middle" x="1370.5" y="-128" font-family="Helvetica,sans-Serif" font-size="10.00">string.h</text>
</a>
</g>
</g>
<!-- Node1&#45;&gt;Node13 -->
<g id="edge28_Node000001_Node000013" class="edge">
<title>Node1&#45;&gt;Node13</title>
<g id="a_edge28_Node000001_Node000013"><a xlink:title=" ">
<path fill="none" stroke="#63b8ff" d="M867.66,-239.8C996.12,-240.53 1434.78,-239.7 1476.5,-195 1501.34,-168.38 1446.65,-149.15 1406.97,-139.21"/>
<polygon fill="#63b8ff" stroke="#63b8ff" points="1407.55,-135.75 1397.01,-136.82 1405.92,-142.55 1407.55,-135.75"/>
</a>
</g>
</g>
<!-- Node15 -->
<g id="Node000015" class="node">
<title>Node15</title>
<g id="a_Node000015"><a xlink:href="ipsec_8h.html" target="_top" xlink:title="ODP IPSec headers.">
<polygon fill="white" stroke="#666666" points="321.5,-195 215.5,-195 215.5,-176 321.5,-176 321.5,-195"/>
<text text-anchor="middle" x="268.5" y="-183" font-family="Helvetica,sans-Serif" font-size="10.00">odp/helper/ipsec.h</text>
</a>
</g>
</g>
<!-- Node1&#45;&gt;Node15 -->
<g id="edge22_Node000001_Node000015" class="edge">
<title>Node1&#45;&gt;Node15</title>
<g id="a_edge22_Node000001_Node000015"><a xlink:title=" ">
<path fill="none" stroke="#63b8ff" d="M797.45,-236.97C717.06,-231.05 513.02,-215.32 331.57,-195.07"/>
<polygon fill="#63b8ff" stroke="#63b8ff" points="331.91,-191.59 321.58,-193.95 331.13,-198.54 331.91,-191.59"/>
</a>
</g>
</g>
<!-- Node16 -->
<g id="Node000016" class="node">
<title>Node16</title>
<g id="a_Node000016"><a xlink:href="macros_8h.html" target="_top" xlink:title="Common helper macros.">
<polygon fill="white" stroke="#666666" points="1054.5,-195 938.5,-195 938.5,-176 1054.5,-176 1054.5,-195"/>
<text text-anchor="middle" x="996.5" y="-183" font-family="Helvetica,sans-Serif" font-size="10.00">odp/helper/macros.h</text>
</a>
</g>
</g>
<!-- Node1&#45;&gt;Node16 -->
<g id="edge24_Node000001_Node000016" class="edge">
<title>Node1&#45;&gt;Node16</title>
<g id="a_edge24_Node000001_Node000016"><a xlink:title=" ">
<path fill="none" stroke="#63b8ff" d="M858.85,-230.98C886.26,-222.13 929.39,-208.19 960.06,-198.28"/>
<polygon fill="#63b8ff" stroke="#63b8ff" points="961.5,-201.49 969.94,-195.08 959.35,-194.83 961.5,-201.49"/>
</a>
</g>
</g>
<!-- Node17 -->
<g id="Node000017" class="node">
<title>Node17</title>
<g id="a_Node000017"><a xlink:href="stress_8h.html" target="_top" xlink:title="ODP helper stress.">
<polygon fill="white" stroke="#666666" points="1182.5,-195 1072.5,-195 1072.5,-176 1182.5,-176 1182.5,-195"/>
<text text-anchor="middle" x="1127.5" y="-183" font-family="Helvetica,sans-Serif" font-size="10.00">odp/helper/stress.h</text>
</a>
</g>
</g>
<!-- Node1&#45;&gt;Node17 -->
<g id="edge25_Node000001_Node000017" class="edge">
<title>Node1&#45;&gt;Node17</title>
<g id="a_edge25_Node000001_Node000017"><a xlink:title=" ">
<path fill="none" stroke="#63b8ff" d="M867.79,-233.16C917.81,-224.17 1009.91,-207.63 1069.91,-196.85"/>
<polygon fill="#63b8ff" stroke="#63b8ff" points="1070.77,-200.25 1079.99,-195.04 1069.53,-193.36 1070.77,-200.25"/>
</a>
</g>
</g>
<!-- Node18 -->
<g id="Node000018" class="node">
<title>Node18</title>
<g id="a_Node000018"><a xlink:href="sctp_8h.html" target="_top" xlink:title="ODP SCTP header.">
<polygon fill="white" stroke="#666666" points="441,-195 340,-195 340,-176 441,-176 441,-195"/>
<text text-anchor="middle" x="390.5" y="-183" font-family="Helvetica,sans-Serif" font-size="10.00">odp/helper/sctp.h</text>
</a>
</g>
</g>
<!-- Node1&#45;&gt;Node18 -->
<g id="edge26_Node000001_Node000018" class="edge">
<title>Node1&#45;&gt;Node18</title>
<g id="a_edge26_Node000001_Node000018"><a xlink:title=" ">
<path fill="none" stroke="#63b8ff" d="M797.35,-235.74C731.5,-228.63 584.84,-212.46 451.04,-195.17"/>
<polygon fill="#63b8ff" stroke="#63b8ff" points="451.39,-191.69 441.02,-193.87 450.48,-198.63 451.39,-191.69"/>
</a>
</g>
</g>
<!-- Node19 -->
<g id="Node000019" class="node">
<title>Node19</title>
<g id="a_Node000019"><a xlink:href="strong__types_8h.html" target="_top" xlink:title="ODP Strong Types.">
<polygon fill="white" stroke="#666666" points="1451,-195 1308,-195 1308,-176 1451,-176 1451,-195"/>
<text text-anchor="middle" x="1379.5" y="-183" font-family="Helvetica,sans-Serif" font-size="10.00">odp/helper/strong_types.h</text>
</a>
</g>
</g>
<!-- Node1&#45;&gt;Node19 -->
<g id="edge29_Node000001_Node000019" class="edge">
<title>Node1&#45;&gt;Node19</title>
<g id="a_edge29_Node000001_Node000019"><a xlink:title=" ">
<path fill="none" stroke="#63b8ff" d="M867.66,-236.28C943.98,-229.27 1130.76,-211.94 1298,-195.14"/>
<polygon fill="#63b8ff" stroke="#63b8ff" points="1298.38,-198.62 1307.97,-194.14 1297.67,-191.66 1298.38,-198.62"/>
</a>
</g>
</g>
<!-- Node20 -->
<g id="Node000020" class="node">
<title>Node20</title>
<g id="a_Node000020"><a xlink:href="tcp_8h.html" target="_top" xlink:title="ODP TCP header.">
<polygon fill="white" stroke="#666666" points="554,-195 459,-195 459,-176 554,-176 554,-195"/>
<text text-anchor="middle" x="506.5" y="-183" font-family="Helvetica,sans-Serif" font-size="10.00">odp/helper/tcp.h</text>
</a>
</g>
</g>
<!-- Node1&#45;&gt;Node20 -->
<g id="edge30_Node000001_Node000020" class="edge">
<title>Node1&#45;&gt;Node20</title>
<g id="a_edge30_Node000001_Node000020"><a xlink:title=" ">
<path fill="none" stroke="#63b8ff" d="M797.3,-233.78C741.4,-224.69 631.73,-206.86 564.21,-195.88"/>
<polygon fill="#63b8ff" stroke="#63b8ff" points="564.59,-192.4 554.16,-194.25 563.47,-199.31 564.59,-192.4"/>
</a>
</g>
</g>
<!-- Node21 -->
<g id="Node000021" class="node">
<title>Node21</title>
<g id="a_Node000021"><a xlink:href="threads_8h.html" target="_top" xlink:title="ODP Linux helper API.">
<polygon fill="white" stroke="#666666" points="766,-195 649,-195 649,-176 766,-176 766,-195"/>
<text text-anchor="middle" x="707.5" y="-183" font-family="Helvetica,sans-Serif" font-size="10.00">odp/helper/threads.h</text>
</a>
</g>
</g>
<!-- Node1&#45;&gt;Node21 -->
<g id="edge32_Node000001_Node000021" class="edge">
<title>Node1&#45;&gt;Node21</title>
<g id="a_edge32_Node000001_Node000021"><a xlink:title=" ">
<path fill="none" stroke="#63b8ff" d="M812.42,-230.98C792.13,-222.38 760.54,-208.99 737.33,-199.15"/>
<polygon fill="#63b8ff" stroke="#63b8ff" points="738.52,-195.85 727.95,-195.17 735.79,-202.3 738.52,-195.85"/>
</a>
</g>
</g>
<!-- Node26 -->
<g id="Node000026" class="node">
<title>Node26</title>
<g id="a_Node000026"><a xlink:href="udp_8h.html" target="_top" xlink:title="ODP UDP header.">
<polygon fill="white" stroke="#666666" points="920.5,-195 822.5,-195 822.5,-176 920.5,-176 920.5,-195"/>
<text text-anchor="middle" x="871.5" y="-183" font-family="Helvetica,sans-Serif" font-size="10.00">odp/helper/udp.h</text>
</a>
</g>
</g>
<!-- Node1&#45;&gt;Node26 -->
<g id="edge41_Node000001_Node000026" class="edge">
<title>Node1&#45;&gt;Node26</title>
<g id="a_edge41_Node000001_Node000026"><a xlink:title=" ">
<path fill="none" stroke="#63b8ff" d="M838.94,-230.75C844.39,-223.34 852.36,-212.5 859.06,-203.41"/>
<polygon fill="#63b8ff" stroke="#63b8ff" points="862.07,-205.22 865.18,-195.09 856.43,-201.07 862.07,-205.22"/>
</a>
</g>
</g>
<!-- Node27 -->
<g id="Node000027" class="node">
<title>Node27</title>
<g id="a_Node000027"><a xlink:href="version_8h.html" target="_top" xlink:title="ODP helper version.">
<polygon fill="white" stroke="#666666" points="1699.5,-195 1583.5,-195 1583.5,-176 1699.5,-176 1699.5,-195"/>
<text text-anchor="middle" x="1641.5" y="-183" font-family="Helvetica,sans-Serif" font-size="10.00">odp/helper/version.h</text>
</a>
</g>
</g>
<!-- Node1&#45;&gt;Node27 -->
<g id="edge44_Node000001_Node000027" class="edge">
<title>Node1&#45;&gt;Node27</title>
<g id="a_edge44_Node000001_Node000027"><a xlink:title=" ">
<path fill="none" stroke="#63b8ff" d="M867.84,-238.08C974.12,-233.67 1300.1,-219.02 1569.5,-195 1570.77,-194.89 1572.05,-194.77 1573.34,-194.65"/>
<polygon fill="#63b8ff" stroke="#63b8ff" points="1573.77,-198.12 1583.37,-193.65 1573.07,-191.16 1573.77,-198.12"/>
</a>
</g>
</g>
<!-- Node4 -->
<g id="Node000004" class="node">
<title>Node4</title>
<g id="a_Node000004"><a xlink:title=" ">
<polygon fill="#e0e0e0" stroke="#999999" points="808.5,-85 744.5,-85 744.5,-66 808.5,-66 808.5,-85"/>
<text text-anchor="middle" x="776.5" y="-73" font-family="Helvetica,sans-Serif" font-size="10.00">odp_api.h</text>
</a>
</g>
</g>
<!-- Node3&#45;&gt;Node4 -->
<g id="edge3_Node000003_Node000004" class="edge">
<title>Node3&#45;&gt;Node4</title>
<g id="a_edge3_Node000003_Node000004"><a xlink:title=" ">
<path fill="none" stroke="#63b8ff" d="M1091.67,-121.04C1015.51,-110.28 885.84,-91.95 819.05,-82.51"/>
<polygon fill="#63b8ff" stroke="#63b8ff" points="819.28,-79.01 808.89,-81.08 818.3,-85.94 819.28,-79.01"/>
</a>
</g>
</g>
<!-- Node5&#45;&gt;Node2 -->
<g id="edge5_Node000005_Node000002" class="edge">
<title>Node5&#45;&gt;Node2</title>
<g id="a_edge5_Node000005_Node000002"><a xlink:title=" ">
<path fill="none" stroke="#63b8ff" d="M92.92,-175.89C92.41,-163.31 92.71,-139.38 100.5,-121 114.67,-87.56 143.1,-56.5 163.61,-36.97"/>
<polygon fill="#63b8ff" stroke="#63b8ff" points="166.09,-39.43 171.03,-30.06 161.33,-34.31 166.09,-39.43"/>
</a>
</g>
</g>
<!-- Node6 -->
<g id="Node000006" class="node">
<title>Node6</title>
<g id="a_Node000006"><a xlink:title=" ">
<polygon fill="#e0e0e0" stroke="#999999" points="159.5,-140 109.5,-140 109.5,-121 159.5,-121 159.5,-140"/>
<text text-anchor="middle" x="134.5" y="-128" font-family="Helvetica,sans-Serif" font-size="10.00">stdio.h</text>
</a>
</g>
</g>
<!-- Node5&#45;&gt;Node6 -->
<g id="edge6_Node000005_Node000006" class="edge">
<title>Node5&#45;&gt;Node6</title>
<g id="a_edge6_Node000005_Node000006"><a xlink:title=" ">
<path fill="none" stroke="#63b8ff" d="M100.27,-175.75C106.06,-168.26 114.56,-157.28 121.64,-148.13"/>
<polygon fill="#63b8ff" stroke="#63b8ff" points="124.51,-150.14 127.86,-140.09 118.97,-145.86 124.51,-150.14"/>
</a>
</g>
</g>
<!-- Node7 -->
<g id="Node000007" class="node">
<title>Node7</title>
<g id="a_Node000007"><a xlink:title=" ">
<polygon fill="#e0e0e0" stroke="#999999" points="53,-140 0,-140 0,-121 53,-121 53,-140"/>
<text text-anchor="middle" x="26.5" y="-128" font-family="Helvetica,sans-Serif" font-size="10.00">stdlib.h</text>
</a>
</g>
</g>
<!-- Node5&#45;&gt;Node7 -->
<g id="edge7_Node000005_Node000007" class="edge">
<title>Node5&#45;&gt;Node7</title>
<g id="a_edge7_Node000005_Node000007"><a xlink:title=" ">
<path fill="none" stroke="#63b8ff" d="M82.74,-175.98C72.73,-168.07 57.61,-156.11 45.57,-146.58"/>
<polygon fill="#63b8ff" stroke="#63b8ff" points="47.47,-143.63 37.46,-140.17 43.13,-149.12 47.47,-143.63"/>
</a>
</g>
</g>
<!-- Node8&#45;&gt;Node4 -->
<g id="edge9_Node000008_Node000004" class="edge">
<title>Node8&#45;&gt;Node4</title>
<g id="a_edge9_Node000008_Node000004"><a xlink:title=" ">
<path fill="none" stroke="#63b8ff" d="M1470.21,-124.93C1455.54,-123.6 1439.36,-122.18 1424.5,-121 1196.01,-102.83 921.83,-85.46 818.57,-79.07"/>
<polygon fill="#63b8ff" stroke="#63b8ff" points="818.74,-75.58 808.55,-78.45 818.31,-82.56 818.74,-75.58"/>
</a>
</g>
</g>
<!-- Node9&#45;&gt;Node4 -->
<g id="edge11_Node000009_Node000004" class="edge">
<title>Node9&#45;&gt;Node4</title>
<g id="a_edge11_Node000009_Node000004"><a xlink:title=" ">
<path fill="none" stroke="#63b8ff" d="M499.8,-121.62C563.32,-111.26 673.91,-93.23 734.26,-83.39"/>
<polygon fill="#63b8ff" stroke="#63b8ff" points="734.9,-86.83 744.21,-81.77 733.78,-79.92 734.9,-86.83"/>
</a>
</g>
</g>
<!-- Node10&#45;&gt;Node4 -->
<g id="edge13_Node000010_Node000004" class="edge">
<title>Node10&#45;&gt;Node4</title>
<g id="a_edge13_Node000010_Node000004"><a xlink:title=" ">
<path fill="none" stroke="#63b8ff" d="M602.76,-120.98C638.53,-111.82 695.51,-97.24 734.38,-87.28"/>
<polygon fill="#63b8ff" stroke="#63b8ff" points="735.53,-90.6 744.35,-84.73 733.79,-83.82 735.53,-90.6"/>
</a>
</g>
</g>
<!-- Node11&#45;&gt;Node4 -->
<g id="edge15_Node000011_Node000004" class="edge">
<title>Node11&#45;&gt;Node4</title>
<g id="a_edge15_Node000011_Node000004"><a xlink:title=" ">
<path fill="none" stroke="#63b8ff" d="M945.21,-120.98C910.77,-111.91 856.12,-97.49 818.39,-87.55"/>
<polygon fill="#63b8ff" stroke="#63b8ff" points="819.28,-84.16 808.71,-84.99 817.49,-90.93 819.28,-84.16"/>
</a>
</g>
</g>
<!-- Node12&#45;&gt;Node3 -->
<g id="edge18_Node000012_Node000003" class="edge">
<title>Node12&#45;&gt;Node3</title>
<g id="a_edge18_Node000012_Node000003"><a xlink:title=" ">
<path fill="none" stroke="#63b8ff" d="M1230.4,-175.98C1215.68,-167.69 1193.08,-154.94 1175.83,-145.22"/>
<polygon fill="#63b8ff" stroke="#63b8ff" points="1177.31,-142.03 1166.88,-140.17 1173.87,-148.13 1177.31,-142.03"/>
</a>
</g>
</g>
<!-- Node12&#45;&gt;Node4 -->
<g id="edge17_Node000012_Node000004" class="edge">
<title>Node12&#45;&gt;Node4</title>
<g id="a_edge17_Node000012_Node000004"><a xlink:title=" ">
<path fill="none" stroke="#63b8ff" d="M1244.86,-175.84C1243.31,-161.79 1238.07,-134.3 1220.5,-121 1188.88,-97.07 923.9,-82.96 819,-78.26"/>
<polygon fill="#63b8ff" stroke="#63b8ff" points="818.92,-74.75 808.78,-77.81 818.62,-81.75 818.92,-74.75"/>
</a>
</g>
</g>
<!-- Node12&#45;&gt;Node13 -->
<g id="edge19_Node000012_Node000013" class="edge">
<title>Node12&#45;&gt;Node13</title>
<g id="a_edge19_Node000012_Node000013"><a xlink:title=" ">
<path fill="none" stroke="#63b8ff" d="M1265.58,-175.98C1285.87,-167.38 1317.46,-153.99 1340.67,-144.15"/>
<polygon fill="#63b8ff" stroke="#63b8ff" points="1342.21,-147.3 1350.05,-140.17 1339.48,-140.85 1342.21,-147.3"/>
</a>
</g>
</g>
<!-- Node13&#45;&gt;Node13 -->
<g id="edge21_Node000013_Node000013" class="edge">
<title>Node13&#45;&gt;Node13</title>
<g id="a_edge21_Node000013_Node000013"><a xlink:title=" ">
<path fill="none" stroke="#63b8ff" d="M1391.56,-140.07C1403.7,-142.02 1415,-138.83 1415,-130.5 1415,-124.58 1409.29,-121.25 1401.62,-120.53"/>
<polygon fill="#63b8ff" stroke="#63b8ff" points="1401.41,-117.03 1391.56,-120.93 1401.69,-124.03 1401.41,-117.03"/>
</a>
</g>
</g>
<!-- Node14 -->
<g id="Node000014" class="node">
<title>Node14</title>
<g id="a_Node000014"><a xlink:title=" ">
<polygon fill="#e0e0e0" stroke="#999999" points="1415,-85 1326,-85 1326,-66 1415,-66 1415,-85"/>
<text text-anchor="middle" x="1370.5" y="-73" font-family="Helvetica,sans-Serif" font-size="10.00">odp/api/hints.h</text>
</a>
</g>
</g>
<!-- Node13&#45;&gt;Node14 -->
<g id="edge20_Node000013_Node000014" class="edge">
<title>Node13&#45;&gt;Node14</title>
<g id="a_edge20_Node000013_Node000014"><a xlink:title=" ">
<path fill="none" stroke="#63b8ff" d="M1370.5,-120.75C1370.5,-113.8 1370.5,-103.85 1370.5,-95.13"/>
<polygon fill="#63b8ff" stroke="#63b8ff" points="1374,-95.09 1370.5,-85.09 1367,-95.09 1374,-95.09"/>
</a>
</g>
</g>
<!-- Node15&#45;&gt;Node4 -->
<g id="edge23_Node000015_Node000004" class="edge">
<title>Node15&#45;&gt;Node4</title>
<g id="a_edge23_Node000015_Node000004"><a xlink:title=" ">
<path fill="none" stroke="#63b8ff" d="M279.17,-175.94C297.45,-161.79 336.48,-133.81 374.5,-121 440.43,-98.79 645.15,-84.3 734.3,-78.89"/>
<polygon fill="#63b8ff" stroke="#63b8ff" points="734.56,-82.38 744.33,-78.29 734.14,-75.39 734.56,-82.38"/>
</a>
</g>
</g>
<!-- Node18&#45;&gt;Node4 -->
<g id="edge27_Node000018_Node000004" class="edge">
<title>Node18&#45;&gt;Node4</title>
<g id="a_edge27_Node000018_Node000004"><a xlink:title=" ">
<path fill="none" stroke="#63b8ff" d="M386.12,-175.86C379.97,-162.35 370.93,-136.2 384.5,-121 407.5,-95.24 637.58,-82.45 734.16,-78.18"/>
<polygon fill="#63b8ff" stroke="#63b8ff" points="734.6,-81.66 744.44,-77.74 734.3,-74.67 734.6,-81.66"/>
</a>
</g>
</g>
<!-- Node20&#45;&gt;Node4 -->
<g id="edge31_Node000020_Node000004" class="edge">
<title>Node20&#45;&gt;Node4</title>
<g id="a_edge31_Node000020_Node000004"><a xlink:title=" ">
<path fill="none" stroke="#63b8ff" d="M462.17,-175.95C421.35,-166.18 370.5,-147.96 394.5,-121 416.81,-95.95 639.5,-82.8 734.22,-78.31"/>
<polygon fill="#63b8ff" stroke="#63b8ff" points="734.49,-81.8 744.32,-77.84 734.16,-74.81 734.49,-81.8"/>
</a>
</g>
</g>
<!-- Node21&#45;&gt;Node4 -->
<g id="edge33_Node000021_Node000004" class="edge">
<title>Node21&#45;&gt;Node4</title>
<g id="a_edge33_Node000021_Node000004"><a xlink:title=" ">
<path fill="none" stroke="#63b8ff" d="M738.55,-175.87C756.25,-169.18 776.95,-157.95 787.5,-140 795.63,-126.17 791.2,-107.9 785.73,-94.51"/>
<polygon fill="#63b8ff" stroke="#63b8ff" points="788.89,-93 781.53,-85.38 782.53,-95.92 788.89,-93"/>
</a>
</g>
</g>
<!-- Node22 -->
<g id="Node000022" class="node">
<title>Node22</title>
<g id="a_Node000022"><a xlink:href="pthread_8h.html" target="_top" xlink:title="ODP Linux helper for pthreads.">
<polygon fill="white" stroke="#666666" points="778,-140 715,-140 715,-121 778,-121 778,-140"/>
<text text-anchor="middle" x="746.5" y="-128" font-family="Helvetica,sans-Serif" font-size="10.00">pthread.h</text>
</a>
</g>
</g>
<!-- Node21&#45;&gt;Node22 -->
<g id="edge34_Node000021_Node000022" class="edge">
<title>Node21&#45;&gt;Node22</title>
<g id="a_edge34_Node000021_Node000022"><a xlink:title=" ">
<path fill="none" stroke="#63b8ff" d="M708.77,-175.75C712.71,-168.18 720.53,-157.05 728.18,-147.84"/>
<polygon fill="#63b8ff" stroke="#63b8ff" points="731.04,-149.9 735.05,-140.09 725.8,-145.26 731.04,-149.9"/>
</a>
</g>
</g>
<!-- Node24 -->
<g id="Node000024" class="node">
<title>Node24</title>
<g id="a_Node000024"><a xlink:title=" ">
<polygon fill="#e0e0e0" stroke="#999999" points="697,-140 640,-140 640,-121 697,-121 697,-140"/>
<text text-anchor="middle" x="668.5" y="-128" font-family="Helvetica,sans-Serif" font-size="10.00">getopt.h</text>
</a>
</g>
</g>
<!-- Node21&#45;&gt;Node24 -->
<g id="edge39_Node000021_Node000024" class="edge">
<title>Node21&#45;&gt;Node24</title>
<g id="a_edge39_Node000021_Node000024"><a xlink:title=" ">
<path fill="none" stroke="#63b8ff" d="M701.06,-175.75C695.61,-168.34 687.64,-157.5 680.94,-148.41"/>
<polygon fill="#63b8ff" stroke="#63b8ff" points="683.57,-146.07 674.82,-140.09 677.93,-150.22 683.57,-146.07"/>
</a>
</g>
</g>
<!-- Node25 -->
<g id="Node000025" class="node">
<title>Node25</title>
<g id="a_Node000025"><a xlink:title=" ">
<polygon fill="#e0e0e0" stroke="#999999" points="906.5,-140 834.5,-140 834.5,-121 906.5,-121 906.5,-140"/>
<text text-anchor="middle" x="870.5" y="-128" font-family="Helvetica,sans-Serif" font-size="10.00">sys/types.h</text>
</a>
</g>
</g>
<!-- Node21&#45;&gt;Node25 -->
<g id="edge40_Node000021_Node000025" class="edge">
<title>Node21&#45;&gt;Node25</title>
<g id="a_edge40_Node000021_Node000025"><a xlink:title=" ">
<path fill="none" stroke="#63b8ff" d="M733.69,-175.98C760.94,-167.13 803.8,-153.19 834.28,-143.28"/>
<polygon fill="#63b8ff" stroke="#63b8ff" points="835.68,-146.5 844.11,-140.08 833.51,-139.85 835.68,-146.5"/>
</a>
</g>
</g>
<!-- Node22&#45;&gt;Node4 -->
<g id="edge38_Node000022_Node000004" class="edge">
<title>Node22&#45;&gt;Node4</title>
<g id="a_edge38_Node000022_Node000004"><a xlink:title=" ">
<path fill="none" stroke="#63b8ff" d="M751.45,-120.75C755.56,-113.49 761.53,-102.95 766.6,-93.98"/>
<polygon fill="#63b8ff" stroke="#63b8ff" points="769.76,-95.52 771.64,-85.09 763.67,-92.07 769.76,-95.52"/>
</a>
</g>
</g>
<!-- Node22&#45;&gt;Node21 -->
<g id="edge37_Node000022_Node000021" class="edge">
<title>Node22&#45;&gt;Node21</title>
<g id="a_edge37_Node000022_Node000021"><a xlink:title=" ">
<path fill="none" stroke="#63b8ff" d="M745.31,-140.09C741.39,-147.68 733.48,-158.95 725.75,-168.24"/>
<polygon fill="#63b8ff" stroke="#63b8ff" points="723.11,-165.94 719.11,-175.75 728.35,-170.58 723.11,-165.94"/>
</a>
</g>
</g>
<!-- Node23 -->
<g id="Node000023" class="node">
<title>Node23</title>
<g id="a_Node000023"><a xlink:href="deprecated_8h.html" target="_top" xlink:title="Macro for deprecated API definitions.">
<polygon fill="white" stroke="#666666" points="569,-85 434,-85 434,-66 569,-66 569,-85"/>
<text text-anchor="middle" x="501.5" y="-73" font-family="Helvetica,sans-Serif" font-size="10.00">odp/helper/deprecated.h</text>
</a>
</g>
</g>
<!-- Node22&#45;&gt;Node23 -->
<g id="edge35_Node000022_Node000023" class="edge">
<title>Node22&#45;&gt;Node23</title>
<g id="a_edge35_Node000022_Node000023"><a xlink:title=" ">
<path fill="none" stroke="#63b8ff" d="M714.97,-122.68C673.47,-113.7 600.04,-97.82 551.07,-87.22"/>
<polygon fill="#63b8ff" stroke="#63b8ff" points="551.52,-83.74 541.01,-85.05 550.04,-90.58 551.52,-83.74"/>
</a>
</g>
</g>
<!-- Node23&#45;&gt;Node2 -->
<g id="edge36_Node000023_Node000002" class="edge">
<title>Node23&#45;&gt;Node2</title>
<g id="a_edge36_Node000023_Node000002"><a xlink:title=" ">
<path fill="none" stroke="#63b8ff" d="M455.84,-65.99C404.77,-56.48 321.3,-40.93 261,-29.69"/>
<polygon fill="#63b8ff" stroke="#63b8ff" points="261.63,-26.25 251.16,-27.86 260.35,-33.13 261.63,-26.25"/>
</a>
</g>
</g>
<!-- Node26&#45;&gt;Node3 -->
<g id="edge43_Node000026_Node000003" class="edge">
<title>Node26&#45;&gt;Node3</title>
<g id="a_edge43_Node000026_Node000003"><a xlink:title=" ">
<path fill="none" stroke="#63b8ff" d="M916.49,-175.98C965.43,-166.72 1043.7,-151.9 1096.32,-141.94"/>
<polygon fill="#63b8ff" stroke="#63b8ff" points="1096.99,-145.38 1106.16,-140.08 1095.68,-138.5 1096.99,-145.38"/>
</a>
</g>
</g>
<!-- Node26&#45;&gt;Node4 -->
<g id="edge42_Node000026_Node000004" class="edge">
<title>Node26&#45;&gt;Node4</title>
<g id="a_edge42_Node000026_Node000004"><a xlink:title=" ">
<path fill="none" stroke="#63b8ff" d="M914.25,-175.99C961.42,-166.16 1031.75,-150.07 1039.5,-140 1044.65,-133.31 1044.95,-127.45 1039.5,-121 1011.77,-88.18 886.04,-79.56 818.97,-77.3"/>
<polygon fill="#63b8ff" stroke="#63b8ff" points="818.83,-73.79 808.73,-76.99 818.62,-80.79 818.83,-73.79"/>
</a>
</g>
</g>
</g>
</svg>
