<?xml version="1.0" encoding="UTF-8" standalone="no"?>
<!DOCTYPE svg PUBLIC "-//W3C//DTD SVG 1.1//EN"
 "http://www.w3.org/Graphics/SVG/1.1/DTD/svg11.dtd">
<!-- Generated by graphviz version 2.43.0 (0)
 -->
<!-- Title: process.h Pages: 1 -->
<svg width="389pt" height="258pt"
 viewBox="0.00 0.00 389.26 258.00" xmlns="http://www.w3.org/2000/svg" xmlns:xlink="http://www.w3.org/1999/xlink">
<g id="graph0" class="graph" transform="scale(1 1) rotate(0) translate(4 254)">
<title>process.h</title>
<!-- Node1 -->
<g id="Node000001" class="node">
<title>Node1</title>
<g id="a_Node000001"><a xlink:title="ODP Linux helper for processes.">
<polygon fill="#999999" stroke="#666666" points="218,-250 155,-250 155,-231 218,-231 218,-250"/>
<text text-anchor="middle" x="186.5" y="-238" font-family="Helvetica,sans-Serif" font-size="10.00">process.h</text>
</a>
</g>
</g>
<!-- Node2 -->
<g id="Node000002" class="node">
<title>Node2</title>
<g id="a_Node000002"><a xlink:href="deprecated_8h.html" target="_top" xlink:title="Macro for deprecated API definitions.">
<polygon fill="white" stroke="#666666" points="135,-85 0,-85 0,-66 135,-66 135,-85"/>
<text text-anchor="middle" x="67.5" y="-73" font-family="Helvetica,sans-Serif" font-size="10.00">odp/helper/deprecated.h</text>
</a>
</g>
</g>
<!-- Node1&#45;&gt;Node2 -->
<g id="edge1_Node000001_Node000002" class="edge">
<title>Node1&#45;&gt;Node2</title>
<g id="a_edge1_Node000001_Node000002"><a xlink:title=" ">
<path fill="none" stroke="#63b8ff" d="M169.02,-230.93C154.27,-223.08 133.27,-210.36 118.5,-195 90.91,-166.31 77.05,-120.35 71.15,-94.92"/>
<polygon fill="#63b8ff" stroke="#63b8ff" points="74.56,-94.14 69.04,-85.11 67.72,-95.62 74.56,-94.14"/>
</a>
</g>
</g>
<!-- Node4 -->
<g id="Node000004" class="node">
<title>Node4</title>
<g id="a_Node000004"><a xlink:href="threads_8h.html" target="_top" xlink:title="ODP Linux helper API.">
<polygon fill="white" stroke="#666666" points="245,-195 128,-195 128,-176 245,-176 245,-195"/>
<text text-anchor="middle" x="186.5" y="-183" font-family="Helvetica,sans-Serif" font-size="10.00">odp/helper/threads.h</text>
</a>
</g>
</g>
<!-- Node1&#45;&gt;Node4 -->
<g id="edge3_Node000001_Node000004" class="edge">
<title>Node1&#45;&gt;Node4</title>
<g id="a_edge3_Node000001_Node000004"><a xlink:title=" ">
<path fill="none" stroke="#63b8ff" d="M186.5,-230.75C186.5,-223.8 186.5,-213.85 186.5,-205.13"/>
<polygon fill="#63b8ff" stroke="#63b8ff" points="190,-205.09 186.5,-195.09 183,-205.09 190,-205.09"/>
</a>
</g>
</g>
<!-- Node5 -->
<g id="Node000005" class="node">
<title>Node5</title>
<g id="a_Node000005"><a xlink:title=" ">
<polygon fill="#e0e0e0" stroke="#999999" points="218.5,-85 154.5,-85 154.5,-66 218.5,-66 218.5,-85"/>
<text text-anchor="middle" x="186.5" y="-73" font-family="Helvetica,sans-Serif" font-size="10.00">odp_api.h</text>
</a>
</g>
</g>
<!-- Node1&#45;&gt;Node5 -->
<g id="edge11_Node000001_Node000005" class="edge">
<title>Node1&#45;&gt;Node5</title>
<g id="a_edge11_Node000001_Node000005"><a xlink:title=" ">
<path fill="none" stroke="#63b8ff" d="M218.37,-233.03C282.7,-218.57 418.12,-180.17 371.5,-121 354.08,-98.9 277.9,-86.5 228.89,-80.69"/>
<polygon fill="#63b8ff" stroke="#63b8ff" points="229.21,-77.2 218.88,-79.54 228.42,-84.15 229.21,-77.2"/>
</a>
</g>
</g>
<!-- Node3 -->
<g id="Node000003" class="node">
<title>Node3</title>
<g id="a_Node000003"><a xlink:href="autoheader__external_8h_source.html" target="_top" xlink:title=" ">
<polygon fill="white" stroke="#666666" points="131,-30 4,-30 4,0 131,0 131,-30"/>
<text text-anchor="start" x="12" y="-18" font-family="Helvetica,sans-Serif" font-size="10.00">odp/helper/autoheader</text>
<text text-anchor="middle" x="67.5" y="-7" font-family="Helvetica,sans-Serif" font-size="10.00">_external.h</text>
</a>
</g>
</g>
<!-- Node2&#45;&gt;Node3 -->
<g id="edge2_Node000002_Node000003" class="edge">
<title>Node2&#45;&gt;Node3</title>
<g id="a_edge2_Node000002_Node000003"><a xlink:title=" ">
<path fill="none" stroke="#63b8ff" d="M67.5,-65.87C67.5,-59.11 67.5,-49.35 67.5,-40.26"/>
<polygon fill="#63b8ff" stroke="#63b8ff" points="71,-40.11 67.5,-30.11 64,-40.11 71,-40.11"/>
</a>
</g>
</g>
<!-- Node4&#45;&gt;Node5 -->
<g id="edge4_Node000004_Node000005" class="edge">
<title>Node4&#45;&gt;Node5</title>
<g id="a_edge4_Node000004_Node000005"><a xlink:title=" ">
<path fill="none" stroke="#63b8ff" d="M186.5,-175.66C186.5,-158.17 186.5,-118.8 186.5,-95.27"/>
<polygon fill="#63b8ff" stroke="#63b8ff" points="190,-95.16 186.5,-85.16 183,-95.16 190,-95.16"/>
</a>
</g>
</g>
<!-- Node6 -->
<g id="Node000006" class="node">
<title>Node6</title>
<g id="a_Node000006"><a xlink:href="pthread_8h.html" target="_top" xlink:title="ODP Linux helper for pthreads.">
<polygon fill="white" stroke="#666666" points="158,-140 95,-140 95,-121 158,-121 158,-140"/>
<text text-anchor="middle" x="126.5" y="-128" font-family="Helvetica,sans-Serif" font-size="10.00">pthread.h</text>
</a>
</g>
</g>
<!-- Node4&#45;&gt;Node6 -->
<g id="edge5_Node000004_Node000006" class="edge">
<title>Node4&#45;&gt;Node6</title>
<g id="a_edge5_Node000004_Node000006"><a xlink:title=" ">
<path fill="none" stroke="#63b8ff" d="M171.75,-175.98C161.36,-168.3 147.96,-156.81 138.28,-147.42"/>
<polygon fill="#63b8ff" stroke="#63b8ff" points="140.67,-144.86 131.17,-140.17 135.67,-149.76 140.67,-144.86"/>
</a>
</g>
</g>
<!-- Node7 -->
<g id="Node000007" class="node">
<title>Node7</title>
<g id="a_Node000007"><a xlink:title=" ">
<polygon fill="#e0e0e0" stroke="#999999" points="272,-140 215,-140 215,-121 272,-121 272,-140"/>
<text text-anchor="middle" x="243.5" y="-128" font-family="Helvetica,sans-Serif" font-size="10.00">getopt.h</text>
</a>
</g>
</g>
<!-- Node4&#45;&gt;Node7 -->
<g id="edge9_Node000004_Node000007" class="edge">
<title>Node4&#45;&gt;Node7</title>
<g id="a_edge9_Node000004_Node000007"><a xlink:title=" ">
<path fill="none" stroke="#63b8ff" d="M195.66,-175.98C204,-168.23 216.53,-156.58 226.68,-147.14"/>
<polygon fill="#63b8ff" stroke="#63b8ff" points="229.24,-149.54 234.18,-140.17 224.47,-144.42 229.24,-149.54"/>
</a>
</g>
</g>
<!-- Node8 -->
<g id="Node000008" class="node">
<title>Node8</title>
<g id="a_Node000008"><a xlink:title=" ">
<polygon fill="#e0e0e0" stroke="#999999" points="362.5,-140 290.5,-140 290.5,-121 362.5,-121 362.5,-140"/>
<text text-anchor="middle" x="326.5" y="-128" font-family="Helvetica,sans-Serif" font-size="10.00">sys/types.h</text>
</a>
</g>
</g>
<!-- Node4&#45;&gt;Node8 -->
<g id="edge10_Node000004_Node000008" class="edge">
<title>Node4&#45;&gt;Node8</title>
<g id="a_edge10_Node000004_Node000008"><a xlink:title=" ">
<path fill="none" stroke="#63b8ff" d="M208.99,-175.98C232.02,-167.27 268.04,-153.63 294.13,-143.75"/>
<polygon fill="#63b8ff" stroke="#63b8ff" points="295.48,-146.98 303.6,-140.17 293.01,-140.44 295.48,-146.98"/>
</a>
</g>
</g>
<!-- Node6&#45;&gt;Node2 -->
<g id="edge6_Node000006_Node000002" class="edge">
<title>Node6&#45;&gt;Node2</title>
<g id="a_edge6_Node000006_Node000002"><a xlink:title=" ">
<path fill="none" stroke="#63b8ff" d="M117.02,-120.98C108.3,-113.15 95.16,-101.34 84.6,-91.86"/>
<polygon fill="#63b8ff" stroke="#63b8ff" points="86.93,-89.25 77.15,-85.17 82.25,-94.46 86.93,-89.25"/>
</a>
</g>
</g>
<!-- Node6&#45;&gt;Node4 -->
<g id="edge7_Node000006_Node000004" class="edge">
<title>Node6&#45;&gt;Node4</title>
<g id="a_edge7_Node000006_Node000004"><a xlink:title=" ">
<path fill="none" stroke="#63b8ff" d="M141.35,-140.09C151.71,-147.75 165.02,-159.18 174.66,-168.52"/>
<polygon fill="#63b8ff" stroke="#63b8ff" points="172.26,-171.06 181.76,-175.75 177.25,-166.16 172.26,-171.06"/>
</a>
</g>
</g>
<!-- Node6&#45;&gt;Node5 -->
<g id="edge8_Node000006_Node000005" class="edge">
<title>Node6&#45;&gt;Node5</title>
<g id="a_edge8_Node000006_Node000005"><a xlink:title=" ">
<path fill="none" stroke="#63b8ff" d="M136.14,-120.98C145.01,-113.15 158.37,-101.34 169.11,-91.86"/>
<polygon fill="#63b8ff" stroke="#63b8ff" points="171.51,-94.41 176.68,-85.17 166.87,-89.17 171.51,-94.41"/>
</a>
</g>
</g>
</g>
</svg>
