<?xml version="1.0" encoding="UTF-8" standalone="no"?>
<!DOCTYPE svg PUBLIC "-//W3C//DTD SVG 1.1//EN"
 "http://www.w3.org/Graphics/SVG/1.1/DTD/svg11.dtd">
<!-- Generated by graphviz version 2.40.1 (20161225.0304)
 -->
<!-- Title: pthread.h Pages: 1 -->
<svg width="156pt" height="140pt"
 viewBox="0.00 0.00 155.50 140.00" xmlns="http://www.w3.org/2000/svg" xmlns:xlink="http://www.w3.org/1999/xlink">
<g id="graph0" class="graph" transform="scale(1 1) rotate(0) translate(4 136)">
<title>pthread.h</title>
<polygon fill="#ffffff" stroke="transparent" points="-4,4 -4,-136 151.5,-136 151.5,4 -4,4"/>
<!-- Node0 -->
<g id="node1" class="node">
<title>Node0</title>
<polygon fill="#bfbfbf" stroke="#000000" points="38,-112.5 38,-131.5 101,-131.5 101,-112.5 38,-112.5"/>
<text text-anchor="middle" x="69.5" y="-119.5" font-family="Helvetica,sans-Serif" font-size="10.00" fill="#000000">pthread.h</text>
</g>
<!-- Node1 -->
<g id="node2" class="node">
<title>Node1</title>
<g id="a_node2"><a xlink:href="threads_8h.html" target="_top" xlink:title="ODP Linux helper API. ">
<polygon fill="#ffffff" stroke="#000000" points="11,-56.5 11,-75.5 128,-75.5 128,-56.5 11,-56.5"/>
<text text-anchor="middle" x="69.5" y="-63.5" font-family="Helvetica,sans-Serif" font-size="10.00" fill="#000000">odp/helper/threads.h</text>
</a>
</g>
</g>
<!-- Node0&#45;&gt;Node1 -->
<g id="edge1" class="edge">
<title>Node0&#45;&gt;Node1</title>
<path fill="none" stroke="#191970" d="M64.2332,-112.2455C62.8221,-104.9382 62.4179,-94.6944 63.0205,-85.7046"/>
<polygon fill="#191970" stroke="#191970" points="66.5111,-85.9945 64.2549,-75.6427 59.5632,-85.1421 66.5111,-85.9945"/>
</g>
<!-- Node1&#45;&gt;Node0 -->
<g id="edge2" class="edge">
<title>Node1&#45;&gt;Node0</title>
<path fill="none" stroke="#191970" d="M74.7451,-75.6427C76.1665,-82.9199 76.581,-93.155 75.9887,-102.1575"/>
<polygon fill="#191970" stroke="#191970" points="72.4947,-101.8972 74.7668,-112.2455 79.4439,-102.739 72.4947,-101.8972"/>
</g>
<!-- Node2 -->
<g id="node3" class="node">
<title>Node2</title>
<polygon fill="#ffffff" stroke="#bfbfbf" points="0,-.5 0,-19.5 57,-19.5 57,-.5 0,-.5"/>
<text text-anchor="middle" x="28.5" y="-7.5" font-family="Helvetica,sans-Serif" font-size="10.00" fill="#000000">getopt.h</text>
</g>
<!-- Node1&#45;&gt;Node2 -->
<g id="edge3" class="edge">
<title>Node1&#45;&gt;Node2</title>
<path fill="none" stroke="#191970" d="M62.3583,-56.2455C56.6556,-48.4564 48.51,-37.3308 41.6375,-27.9439"/>
<polygon fill="#191970" stroke="#191970" points="44.2913,-25.6437 35.5598,-19.6427 38.6432,-29.7789 44.2913,-25.6437"/>
</g>
<!-- Node3 -->
<g id="node4" class="node">
<title>Node3</title>
<polygon fill="#ffffff" stroke="#bfbfbf" points="75.5,-.5 75.5,-19.5 147.5,-19.5 147.5,-.5 75.5,-.5"/>
<text text-anchor="middle" x="111.5" y="-7.5" font-family="Helvetica,sans-Serif" font-size="10.00" fill="#000000">sys/types.h</text>
</g>
<!-- Node1&#45;&gt;Node3 -->
<g id="edge4" class="edge">
<title>Node1&#45;&gt;Node3</title>
<path fill="none" stroke="#191970" d="M76.8158,-56.2455C82.7179,-48.3761 91.1742,-37.101 98.2594,-27.6542"/>
<polygon fill="#191970" stroke="#191970" points="101.068,-29.7427 104.268,-19.6427 95.4679,-25.5427 101.068,-29.7427"/>
</g>
</g>
</svg>
