<?xml version="1.0" encoding="UTF-8" standalone="no"?>
<!DOCTYPE svg PUBLIC "-//W3C//DTD SVG 1.1//EN"
 "http://www.w3.org/Graphics/SVG/1.1/DTD/svg11.dtd">
<!-- Generated by graphviz version 2.43.0 (0)
 -->
<!-- Title: pthread.h Pages: 1 -->
<svg width="183pt" height="196pt"
 viewBox="0.00 0.00 183.00 196.00" xmlns="http://www.w3.org/2000/svg" xmlns:xlink="http://www.w3.org/1999/xlink">
<g id="graph0" class="graph" transform="scale(1 1) rotate(0) translate(4 192)">
<title>pthread.h</title>
<polygon fill="white" stroke="transparent" points="-4,4 -4,-192 179,-192 179,4 -4,4"/>
<!-- Node1 -->
<g id="node1" class="node">
<title>Node1</title>
<g id="a_node1"><a xlink:title="ODP Linux helper for pthreads.">
<polygon fill="#bfbfbf" stroke="black" points="23.5,-168.5 23.5,-187.5 86.5,-187.5 86.5,-168.5 23.5,-168.5"/>
<text text-anchor="middle" x="55" y="-175.5" font-family="Helvetica,sans-Serif" font-size="10.00">pthread.h</text>
</a>
</g>
</g>
<!-- Node2 -->
<g id="node2" class="node">
<title>Node2</title>
<g id="a_node2"><a xlink:href="linux_8h.html" target="_top" xlink:title="All ODP Linux helpers.">
<polygon fill="white" stroke="black" points="0,-0.5 0,-19.5 50,-19.5 50,-0.5 0,-0.5"/>
<text text-anchor="middle" x="25" y="-7.5" font-family="Helvetica,sans-Serif" font-size="10.00">linux.h</text>
</a>
</g>
</g>
<!-- Node1&#45;&gt;Node2 -->
<g id="edge1" class="edge">
<title>Node1&#45;&gt;Node2</title>
<path fill="none" stroke="midnightblue" d="M36.3,-161.62C28.14,-153.72 19.44,-143.36 15,-132 -0.49,-92.34 14.69,-39.93 21.79,-19.59"/>
<polygon fill="midnightblue" stroke="midnightblue" points="34.03,-164.29 43.8,-168.4 38.73,-159.1 34.03,-164.29"/>
</g>
<!-- Node3 -->
<g id="node3" class="node">
<title>Node3</title>
<g id="a_node3"><a xlink:href="threads_8h.html" target="_top" xlink:title="ODP Linux helper API.">
<polygon fill="white" stroke="black" points="24,-112.5 24,-131.5 86,-131.5 86,-112.5 24,-112.5"/>
<text text-anchor="middle" x="55" y="-119.5" font-family="Helvetica,sans-Serif" font-size="10.00">threads.h</text>
</a>
</g>
</g>
<!-- Node1&#45;&gt;Node3 -->
<g id="edge2" class="edge">
<title>Node1&#45;&gt;Node3</title>
<path fill="none" stroke="midnightblue" d="M48.53,-158.1C47.9,-149.14 48.34,-138.86 49.87,-131.75"/>
<polygon fill="midnightblue" stroke="midnightblue" points="45.07,-158.62 49.83,-168.08 52.01,-157.71 45.07,-158.62"/>
</g>
<!-- Node3&#45;&gt;Node1 -->
<g id="edge5" class="edge">
<title>Node3&#45;&gt;Node1</title>
<path fill="none" stroke="midnightblue" d="M61.46,-141.69C62.11,-150.64 61.68,-160.93 60.17,-168.08"/>
<polygon fill="midnightblue" stroke="midnightblue" points="64.92,-141.2 60.13,-131.75 57.98,-142.13 64.92,-141.2"/>
</g>
<!-- Node4 -->
<g id="node4" class="node">
<title>Node4</title>
<g id="a_node4"><a xlink:href="process_8h.html" target="_top" xlink:title="ODP Linux helper for processes.">
<polygon fill="white" stroke="black" points="23.5,-56.5 23.5,-75.5 86.5,-75.5 86.5,-56.5 23.5,-56.5"/>
<text text-anchor="middle" x="55" y="-63.5" font-family="Helvetica,sans-Serif" font-size="10.00">process.h</text>
</a>
</g>
</g>
<!-- Node3&#45;&gt;Node4 -->
<g id="edge3" class="edge">
<title>Node3&#45;&gt;Node4</title>
<path fill="none" stroke="midnightblue" d="M55,-101.8C55,-92.91 55,-82.78 55,-75.75"/>
<polygon fill="midnightblue" stroke="midnightblue" points="51.5,-102.08 55,-112.08 58.5,-102.08 51.5,-102.08"/>
</g>
<!-- Node5 -->
<g id="node5" class="node">
<title>Node5</title>
<g id="a_node5"><a xlink:href="odph__api_8h.html" target="_top" xlink:title="The OpenDataPlane helper API.">
<polygon fill="white" stroke="black" points="105,-56.5 105,-75.5 175,-75.5 175,-56.5 105,-56.5"/>
<text text-anchor="middle" x="140" y="-63.5" font-family="Helvetica,sans-Serif" font-size="10.00">odph_api.h</text>
</a>
</g>
</g>
<!-- Node3&#45;&gt;Node5 -->
<g id="edge6" class="edge">
<title>Node3&#45;&gt;Node5</title>
<path fill="none" stroke="midnightblue" d="M77.19,-106.9C92.78,-97 113.13,-84.07 126.38,-75.65"/>
<polygon fill="midnightblue" stroke="midnightblue" points="75.22,-104.01 68.66,-112.32 78.97,-109.92 75.22,-104.01"/>
</g>
<!-- Node4&#45;&gt;Node2 -->
<g id="edge4" class="edge">
<title>Node4&#45;&gt;Node2</title>
<path fill="none" stroke="midnightblue" d="M45.15,-47.27C40.03,-38.05 33.98,-27.17 29.86,-19.75"/>
<polygon fill="midnightblue" stroke="midnightblue" points="42.13,-49.04 50.05,-56.08 48.25,-45.64 42.13,-49.04"/>
</g>
</g>
</svg>
