<?xml version="1.0" encoding="UTF-8" standalone="no"?>
<!DOCTYPE svg PUBLIC "-//W3C//DTD SVG 1.1//EN"
 "http://www.w3.org/Graphics/SVG/1.1/DTD/svg11.dtd">
<!-- Generated by graphviz version 2.43.0 (0)
 -->
<!-- Title: pthread.h Pages: 1 -->
<svg width="384pt" height="148pt"
 viewBox="0.00 0.00 383.50 148.00" xmlns="http://www.w3.org/2000/svg" xmlns:xlink="http://www.w3.org/1999/xlink">
<g id="graph0" class="graph" transform="scale(1 1) rotate(0) translate(4 144)">
<title>pthread.h</title>
<!-- Node1 -->
<g id="Node000001" class="node">
<title>Node1</title>
<g id="a_Node000001"><a xlink:title="ODP Linux helper for pthreads.">
<polygon fill="#999999" stroke="#666666" points="244,-140 181,-140 181,-121 244,-121 244,-140"/>
<text text-anchor="middle" x="212.5" y="-128" font-family="Helvetica,sans-Serif" font-size="10.00">pthread.h</text>
</a>
</g>
</g>
<!-- Node2 -->
<g id="Node000002" class="node">
<title>Node2</title>
<g id="a_Node000002"><a xlink:href="deprecated_8h.html" target="_top" xlink:title="Macro for deprecated API definitions.">
<polygon fill="white" stroke="#666666" points="136,-85 1,-85 1,-66 136,-66 136,-85"/>
<text text-anchor="middle" x="68.5" y="-73" font-family="Helvetica,sans-Serif" font-size="10.00">odp/helper/deprecated.h</text>
</a>
</g>
</g>
<!-- Node1&#45;&gt;Node2 -->
<g id="edge1_Node000001_Node000002" class="edge">
<title>Node1&#45;&gt;Node2</title>
<g id="a_edge1_Node000001_Node000002"><a xlink:title=" ">
<path fill="none" stroke="#63b8ff" d="M189.36,-120.98C165.68,-112.27 128.63,-98.63 101.79,-88.75"/>
<polygon fill="#63b8ff" stroke="#63b8ff" points="102.65,-85.34 92.06,-85.17 100.23,-91.91 102.65,-85.34"/>
</a>
</g>
</g>
<!-- Node4 -->
<g id="Node000004" class="node">
<title>Node4</title>
<g id="a_Node000004"><a xlink:href="threads_8h.html" target="_top" xlink:title="ODP Linux helper API.">
<polygon fill="white" stroke="#666666" points="315,-85 198,-85 198,-66 315,-66 315,-85"/>
<text text-anchor="middle" x="256.5" y="-73" font-family="Helvetica,sans-Serif" font-size="10.00">odp/helper/threads.h</text>
</a>
</g>
</g>
<!-- Node1&#45;&gt;Node4 -->
<g id="edge3_Node000001_Node000004" class="edge">
<title>Node1&#45;&gt;Node4</title>
<g id="a_edge3_Node000001_Node000004"><a xlink:title=" ">
<path fill="none" stroke="#63b8ff" d="M214.6,-120.75C219.35,-113.03 228.49,-101.6 237.16,-92.28"/>
<polygon fill="#63b8ff" stroke="#63b8ff" points="239.72,-94.67 244.24,-85.09 234.73,-89.76 239.72,-94.67"/>
</a>
</g>
</g>
<!-- Node5 -->
<g id="Node000005" class="node">
<title>Node5</title>
<g id="a_Node000005"><a xlink:title=" ">
<polygon fill="#e0e0e0" stroke="#999999" points="209.5,-24.5 145.5,-24.5 145.5,-5.5 209.5,-5.5 209.5,-24.5"/>
<text text-anchor="middle" x="177.5" y="-12.5" font-family="Helvetica,sans-Serif" font-size="10.00">odp_api.h</text>
</a>
</g>
</g>
<!-- Node1&#45;&gt;Node5 -->
<g id="edge8_Node000001_Node000005" class="edge">
<title>Node1&#45;&gt;Node5</title>
<g id="a_edge8_Node000001_Node000005"><a xlink:title=" ">
<path fill="none" stroke="#63b8ff" d="M206.6,-120.7C201.05,-112.01 192.95,-98.14 188.5,-85 182.97,-68.66 180.19,-49.19 178.81,-35.1"/>
<polygon fill="#63b8ff" stroke="#63b8ff" points="182.26,-34.4 177.95,-24.72 175.29,-34.98 182.26,-34.4"/>
</a>
</g>
</g>
<!-- Node3 -->
<g id="Node000003" class="node">
<title>Node3</title>
<g id="a_Node000003"><a xlink:href="autoheader__external_8h_source.html" target="_top" xlink:title=" ">
<polygon fill="white" stroke="#666666" points="127,-30 0,-30 0,0 127,0 127,-30"/>
<text text-anchor="start" x="8" y="-18" font-family="Helvetica,sans-Serif" font-size="10.00">odp/helper/autoheader</text>
<text text-anchor="middle" x="63.5" y="-7" font-family="Helvetica,sans-Serif" font-size="10.00">_external.h</text>
</a>
</g>
</g>
<!-- Node2&#45;&gt;Node3 -->
<g id="edge2_Node000002_Node000003" class="edge">
<title>Node2&#45;&gt;Node3</title>
<g id="a_edge2_Node000002_Node000003"><a xlink:title=" ">
<path fill="none" stroke="#63b8ff" d="M67.76,-65.87C67.18,-59.11 66.35,-49.35 65.57,-40.26"/>
<polygon fill="#63b8ff" stroke="#63b8ff" points="69.05,-39.78 64.71,-30.11 62.07,-40.38 69.05,-39.78"/>
</a>
</g>
</g>
<!-- Node4&#45;&gt;Node1 -->
<g id="edge5_Node000004_Node000001" class="edge">
<title>Node4&#45;&gt;Node1</title>
<g id="a_edge5_Node000004_Node000001"><a xlink:title=" ">
<path fill="none" stroke="#63b8ff" d="M254.5,-85.09C249.81,-92.75 240.7,-104.18 232.02,-113.52"/>
<polygon fill="#63b8ff" stroke="#63b8ff" points="229.43,-111.16 224.93,-120.75 234.43,-116.06 229.43,-111.16"/>
</a>
</g>
</g>
<!-- Node4&#45;&gt;Node5 -->
<g id="edge4_Node000004_Node000005" class="edge">
<title>Node4&#45;&gt;Node5</title>
<g id="a_edge4_Node000004_Node000005"><a xlink:title=" ">
<path fill="none" stroke="#63b8ff" d="M244.84,-65.87C232.36,-56.62 212.32,-41.78 197.34,-30.69"/>
<polygon fill="#63b8ff" stroke="#63b8ff" points="199.32,-27.81 189.2,-24.67 195.16,-33.43 199.32,-27.81"/>
</a>
</g>
</g>
<!-- Node6 -->
<g id="Node000006" class="node">
<title>Node6</title>
<g id="a_Node000006"><a xlink:title=" ">
<polygon fill="#e0e0e0" stroke="#999999" points="285,-24.5 228,-24.5 228,-5.5 285,-5.5 285,-24.5"/>
<text text-anchor="middle" x="256.5" y="-12.5" font-family="Helvetica,sans-Serif" font-size="10.00">getopt.h</text>
</a>
</g>
</g>
<!-- Node4&#45;&gt;Node6 -->
<g id="edge6_Node000004_Node000006" class="edge">
<title>Node4&#45;&gt;Node6</title>
<g id="a_edge6_Node000004_Node000006"><a xlink:title=" ">
<path fill="none" stroke="#63b8ff" d="M256.5,-65.87C256.5,-57.75 256.5,-45.31 256.5,-34.89"/>
<polygon fill="#63b8ff" stroke="#63b8ff" points="260,-34.67 256.5,-24.67 253,-34.67 260,-34.67"/>
</a>
</g>
</g>
<!-- Node7 -->
<g id="Node000007" class="node">
<title>Node7</title>
<g id="a_Node000007"><a xlink:title=" ">
<polygon fill="#e0e0e0" stroke="#999999" points="375.5,-24.5 303.5,-24.5 303.5,-5.5 375.5,-5.5 375.5,-24.5"/>
<text text-anchor="middle" x="339.5" y="-12.5" font-family="Helvetica,sans-Serif" font-size="10.00">sys/types.h</text>
</a>
</g>
</g>
<!-- Node4&#45;&gt;Node7 -->
<g id="edge7_Node000004_Node000007" class="edge">
<title>Node4&#45;&gt;Node7</title>
<g id="a_edge7_Node000004_Node000007"><a xlink:title=" ">
<path fill="none" stroke="#63b8ff" d="M268.75,-65.87C281.86,-56.62 302.92,-41.78 318.65,-30.69"/>
<polygon fill="#63b8ff" stroke="#63b8ff" points="321.05,-33.29 327.2,-24.67 317.01,-27.57 321.05,-33.29"/>
</a>
</g>
</g>
</g>
</svg>
