<?xml version="1.0" encoding="UTF-8" standalone="no"?>
<!DOCTYPE svg PUBLIC "-//W3C//DTD SVG 1.1//EN"
 "http://www.w3.org/Graphics/SVG/1.1/DTD/svg11.dtd">
<!-- Generated by graphviz version 2.43.0 (0)
 -->
<!-- Title: string.h Pages: 1 -->
<svg width="93pt" height="137pt"
 viewBox="0.00 0.00 93.00 137.47" xmlns="http://www.w3.org/2000/svg" xmlns:xlink="http://www.w3.org/1999/xlink">
<g id="graph0" class="graph" transform="scale(1 1) rotate(0) translate(4 133.47)">
<title>string.h</title>
<!-- Node1 -->
<g id="Node000001" class="node">
<title>Node1</title>
<g id="a_Node000001"><a xlink:title="ODP string helper.">
<polygon fill="#999999" stroke="#666666" points="67,-129 14,-129 14,-110 67,-110 67,-129"/>
<text text-anchor="middle" x="40.5" y="-117" font-family="Helvetica,sans-Serif" font-size="10.00">string.h</text>
</a>
</g>
</g>
<!-- Node1&#45;&gt;Node1 -->
<g id="edge4_Node000001_Node000001" class="edge">
<title>Node1&#45;&gt;Node1</title>
<g id="a_edge4_Node000001_Node000001"><a xlink:title=" ">
<path fill="none" stroke="#63b8ff" d="M71.62,-129.47C79.29,-128.75 85,-125.42 85,-119.5 85,-111.17 73.7,-107.98 61.56,-109.93"/>
<polygon fill="#63b8ff" stroke="#63b8ff" points="71.69,-125.97 61.56,-129.07 71.41,-132.97 71.69,-125.97"/>
</a>
</g>
</g>
<!-- Node2 -->
<g id="Node000002" class="node">
<title>Node2</title>
<g id="a_Node000002"><a xlink:href="ip_8h.html" target="_top" xlink:title="ODP IP header.">
<polygon fill="white" stroke="#666666" points="35,-74 0,-74 0,-55 35,-55 35,-74"/>
<text text-anchor="middle" x="17.5" y="-62" font-family="Helvetica,sans-Serif" font-size="10.00">ip.h</text>
</a>
</g>
</g>
<!-- Node1&#45;&gt;Node2 -->
<g id="edge1_Node000001_Node000002" class="edge">
<title>Node1&#45;&gt;Node2</title>
<g id="a_edge1_Node000001_Node000002"><a xlink:title=" ">
<path fill="none" stroke="#63b8ff" d="M32.7,-100.53C28.82,-91.6 24.32,-81.22 21.23,-74.09"/>
<polygon fill="#63b8ff" stroke="#63b8ff" points="29.51,-101.97 36.7,-109.75 35.93,-99.18 29.51,-101.97"/>
</a>
</g>
</g>
<!-- Node3 -->
<g id="Node000003" class="node">
<title>Node3</title>
<g id="a_Node000003"><a xlink:href="odph__api_8h.html" target="_top" xlink:title="The OpenDataPlane helper API.">
<polygon fill="white" stroke="#666666" points="75.5,-19 5.5,-19 5.5,0 75.5,0 75.5,-19"/>
<text text-anchor="middle" x="40.5" y="-7" font-family="Helvetica,sans-Serif" font-size="10.00">odph_api.h</text>
</a>
</g>
</g>
<!-- Node1&#45;&gt;Node3 -->
<g id="edge3_Node000001_Node000003" class="edge">
<title>Node1&#45;&gt;Node3</title>
<g id="a_edge3_Node000001_Node000003"><a xlink:title=" ">
<path fill="none" stroke="#63b8ff" d="M42.75,-99.69C44,-87.06 45.17,-70.04 44.5,-55 43.94,-42.45 42.48,-27.96 41.49,-19.02"/>
<polygon fill="#63b8ff" stroke="#63b8ff" points="39.24,-99.56 41.63,-109.88 46.2,-100.32 39.24,-99.56"/>
</a>
</g>
</g>
<!-- Node2&#45;&gt;Node3 -->
<g id="edge2_Node000002_Node000003" class="edge">
<title>Node2&#45;&gt;Node3</title>
<g id="a_edge2_Node000002_Node000003"><a xlink:title=" ">
<path fill="none" stroke="#63b8ff" d="M25.3,-45.53C29.18,-36.6 33.68,-26.22 36.77,-19.09"/>
<polygon fill="#63b8ff" stroke="#63b8ff" points="22.07,-44.18 21.3,-54.75 28.49,-46.97 22.07,-44.18"/>
</a>
</g>
</g>
</g>
</svg>
