<?xml version="1.0" encoding="UTF-8" standalone="no"?>
<!DOCTYPE svg PUBLIC "-//W3C//DTD SVG 1.1//EN"
 "http://www.w3.org/Graphics/SVG/1.1/DTD/svg11.dtd">
<!-- Generated by graphviz version 2.40.1 (20161225.0304)
 -->
<!-- Title: strong_types.h Pages: 1 -->
<svg width="559pt" height="196pt"
 viewBox="0.00 0.00 559.00 196.00" xmlns="http://www.w3.org/2000/svg" xmlns:xlink="http://www.w3.org/1999/xlink">
<g id="graph0" class="graph" transform="scale(1 1) rotate(0) translate(4 192)">
<title>strong_types.h</title>
<polygon fill="#ffffff" stroke="transparent" points="-4,4 -4,-192 555,-192 555,4 -4,4"/>
<!-- Node1 -->
<g id="node1" class="node">
<title>Node1</title>
<polygon fill="#bfbfbf" stroke="#000000" points="0,-168.5 0,-187.5 89,-187.5 89,-168.5 0,-168.5"/>
<text text-anchor="middle" x="44.5" y="-175.5" font-family="Helvetica,sans-Serif" font-size="10.00" fill="#000000">strong_types.h</text>
</g>
<!-- Node2 -->
<g id="node2" class="node">
<title>Node2</title>
<g id="a_node2"><a xlink:href="odph__api_8h.html" target="_top" xlink:title="The OpenDataPlane helper API. ">
<polygon fill="#ffffff" stroke="#000000" points="134.5,-.5 134.5,-19.5 204.5,-19.5 204.5,-.5 134.5,-.5"/>
<text text-anchor="middle" x="169.5" y="-7.5" font-family="Helvetica,sans-Serif" font-size="10.00" fill="#000000">odph_api.h</text>
</a>
</g>
</g>
<!-- Node1&#45;&gt;Node2 -->
<g id="edge1" class="edge">
<title>Node1&#45;&gt;Node2</title>
<path fill="none" stroke="#191970" d="M35.1879,-158.9051C24.0527,-133.0191 9.4977,-86.5266 31.5,-56 43.6823,-39.0979 97.4889,-24.8743 134.2027,-16.898"/>
<polygon fill="#191970" stroke="#191970" points="32.1556,-160.6908 39.4912,-168.3354 38.5239,-157.7848 32.1556,-160.6908"/>
</g>
<!-- Node3 -->
<g id="node3" class="node">
<title>Node3</title>
<g id="a_node3"><a xlink:href="table_8h.html" target="_top" xlink:title="ODP table. ">
<polygon fill="#ffffff" stroke="#000000" points="144.5,-112.5 144.5,-131.5 194.5,-131.5 194.5,-112.5 144.5,-112.5"/>
<text text-anchor="middle" x="169.5" y="-119.5" font-family="Helvetica,sans-Serif" font-size="10.00" fill="#000000">table.h</text>
</a>
</g>
</g>
<!-- Node1&#45;&gt;Node3 -->
<g id="edge2" class="edge">
<title>Node1&#45;&gt;Node3</title>
<path fill="none" stroke="#191970" d="M75.198,-164.2473C97.8993,-154.0771 128.2315,-140.4883 148.2921,-131.5011"/>
<polygon fill="#191970" stroke="#191970" points="73.6833,-161.0906 65.9883,-168.3733 76.5453,-167.4789 73.6833,-161.0906"/>
</g>
<!-- Node3&#45;&gt;Node2 -->
<g id="edge3" class="edge">
<title>Node3&#45;&gt;Node2</title>
<path fill="none" stroke="#191970" d="M134.4388,-117.6632C87.9302,-110.3999 14.5562,-92.7952 40.5,-56 51.564,-40.3083 100.0082,-26.1079 134.266,-17.7622"/>
<polygon fill="#191970" stroke="#191970" points="134.073,-121.1469 144.4755,-119.1375 135.0904,-114.2213 134.073,-121.1469"/>
</g>
<!-- Node4 -->
<g id="node4" class="node">
<title>Node4</title>
<g id="a_node4"><a xlink:href="odph__cuckootable_8h.html" target="_top" xlink:title="ODP Cuckoo Hash Table. ">
<polygon fill="#ffffff" stroke="#000000" points="49.5,-56.5 49.5,-75.5 163.5,-75.5 163.5,-56.5 49.5,-56.5"/>
<text text-anchor="middle" x="106.5" y="-63.5" font-family="Helvetica,sans-Serif" font-size="10.00" fill="#000000">odph_cuckootable.h</text>
</a>
</g>
</g>
<!-- Node3&#45;&gt;Node4 -->
<g id="edge4" class="edge">
<title>Node3&#45;&gt;Node4</title>
<path fill="none" stroke="#191970" d="M150.7808,-105.3607C139.8818,-95.6727 126.5245,-83.7995 117.348,-75.6427"/>
<polygon fill="#191970" stroke="#191970" points="148.7268,-108.2178 158.5262,-112.2455 153.3774,-102.9859 148.7268,-108.2178"/>
</g>
<!-- Node5 -->
<g id="node5" class="node">
<title>Node5</title>
<g id="a_node5"><a xlink:href="odph__hashtable_8h.html" target="_top" xlink:title="ODP Hash Table. ">
<polygon fill="#ffffff" stroke="#000000" points="182,-56.5 182,-75.5 285,-75.5 285,-56.5 182,-56.5"/>
<text text-anchor="middle" x="233.5" y="-63.5" font-family="Helvetica,sans-Serif" font-size="10.00" fill="#000000">odph_hashtable.h</text>
</a>
</g>
</g>
<!-- Node3&#45;&gt;Node5 -->
<g id="edge6" class="edge">
<title>Node3&#45;&gt;Node5</title>
<path fill="none" stroke="#191970" d="M188.1914,-105.645C199.3219,-95.9058 213.0663,-83.8795 222.4798,-75.6427"/>
<polygon fill="#191970" stroke="#191970" points="185.869,-103.0264 180.6479,-112.2455 190.4785,-108.2945 185.869,-103.0264"/>
</g>
<!-- Node6 -->
<g id="node6" class="node">
<title>Node6</title>
<g id="a_node6"><a xlink:href="odph__iplookuptable_8h.html" target="_top" xlink:title="ODP IP Lookup Table. ">
<polygon fill="#ffffff" stroke="#000000" points="303.5,-56.5 303.5,-75.5 425.5,-75.5 425.5,-56.5 303.5,-56.5"/>
<text text-anchor="middle" x="364.5" y="-63.5" font-family="Helvetica,sans-Serif" font-size="10.00" fill="#000000">odph_iplookuptable.h</text>
</a>
</g>
</g>
<!-- Node3&#45;&gt;Node6 -->
<g id="edge8" class="edge">
<title>Node3&#45;&gt;Node6</title>
<path fill="none" stroke="#191970" d="M204.6397,-111.9086C240.6196,-101.5759 296.122,-85.6368 331.3579,-75.5177"/>
<polygon fill="#191970" stroke="#191970" points="203.239,-108.6693 194.5936,-114.7936 205.1713,-115.3974 203.239,-108.6693"/>
</g>
<!-- Node7 -->
<g id="node7" class="node">
<title>Node7</title>
<g id="a_node7"><a xlink:href="odph__lineartable_8h.html" target="_top" xlink:title="ODP Linear Table. ">
<polygon fill="#ffffff" stroke="#000000" points="444,-56.5 444,-75.5 551,-75.5 551,-56.5 444,-56.5"/>
<text text-anchor="middle" x="497.5" y="-63.5" font-family="Helvetica,sans-Serif" font-size="10.00" fill="#000000">odph_lineartable.h</text>
</a>
</g>
</g>
<!-- Node3&#45;&gt;Node7 -->
<g id="edge10" class="edge">
<title>Node3&#45;&gt;Node7</title>
<path fill="none" stroke="#191970" d="M204.7373,-115.9839C262.1969,-106.1737 376.4259,-86.6712 443.9596,-75.141"/>
<polygon fill="#191970" stroke="#191970" points="203.9613,-112.5656 194.693,-117.6988 205.1394,-119.4658 203.9613,-112.5656"/>
</g>
<!-- Node4&#45;&gt;Node2 -->
<g id="edge5" class="edge">
<title>Node4&#45;&gt;Node2</title>
<path fill="none" stroke="#191970" d="M125.2192,-49.3607C136.1182,-39.6727 149.4755,-27.7995 158.652,-19.6427"/>
<polygon fill="#191970" stroke="#191970" points="122.6226,-46.9859 117.4738,-56.2455 127.2732,-52.2178 122.6226,-46.9859"/>
</g>
<!-- Node5&#45;&gt;Node2 -->
<g id="edge7" class="edge">
<title>Node5&#45;&gt;Node2</title>
<path fill="none" stroke="#191970" d="M214.8086,-49.645C203.6781,-39.9058 189.9337,-27.8795 180.5202,-19.6427"/>
<polygon fill="#191970" stroke="#191970" points="212.5215,-52.2945 222.3521,-56.2455 217.131,-47.0264 212.5215,-52.2945"/>
</g>
<!-- Node6&#45;&gt;Node2 -->
<g id="edge9" class="edge">
<title>Node6&#45;&gt;Node2</title>
<path fill="none" stroke="#191970" d="M321.2804,-53.5882C285.4538,-43.2996 235.2759,-28.8895 202.5843,-19.5011"/>
<polygon fill="#191970" stroke="#191970" points="320.4007,-56.977 330.9783,-56.3733 322.3329,-50.2489 320.4007,-56.977"/>
</g>
<!-- Node7&#45;&gt;Node2 -->
<g id="edge11" class="edge">
<title>Node7&#45;&gt;Node2</title>
<path fill="none" stroke="#191970" d="M433.4805,-55.0698C365.0874,-43.393 259.1801,-25.3112 204.6285,-15.9975"/>
<polygon fill="#191970" stroke="#191970" points="433.2583,-58.5825 443.7048,-56.8154 434.4365,-51.6823 433.2583,-58.5825"/>
</g>
</g>
</svg>
