<?xml version="1.0" encoding="UTF-8" standalone="no"?>
<!DOCTYPE svg PUBLIC "-//W3C//DTD SVG 1.1//EN"
 "http://www.w3.org/Graphics/SVG/1.1/DTD/svg11.dtd">
<!-- Generated by graphviz version 2.43.0 (0)
 -->
<!-- Title: odph_thread_t Pages: 1 -->
<svg width="148pt" height="159pt"
 viewBox="0.00 0.00 148.00 159.00" xmlns="http://www.w3.org/2000/svg" xmlns:xlink="http://www.w3.org/1999/xlink">
<g id="graph0" class="graph" transform="scale(1 1) rotate(0) translate(4 155)">
<title>odph_thread_t</title>
<!-- Node1 -->
<g id="Node000001" class="node">
<title>Node1</title>
<g id="a_Node000001"><a xlink:title="Thread state information.">
<polygon fill="#999999" stroke="#666666" points="113,-19 27,-19 27,0 113,0 113,-19"/>
<text text-anchor="middle" x="70" y="-7" font-family="Helvetica,sans-Serif" font-size="10.00">odph_thread_t</text>
</a>
</g>
</g>
<!-- Node2 -->
<g id="Node000002" class="node">
<title>Node2</title>
<g id="a_Node000002"><a xlink:href="structodph__thread__start__args__t.html" target="_top" xlink:title="Helper internal thread start arguments.">
<polygon fill="white" stroke="#666666" points="140,-85 0,-85 0,-66 140,-66 140,-85"/>
<text text-anchor="middle" x="70" y="-73" font-family="Helvetica,sans-Serif" font-size="10.00">odph_thread_start_args_t</text>
</a>
</g>
</g>
<!-- Node2&#45;&gt;Node1 -->
<g id="edge1_Node000001_Node000002" class="edge">
<title>Node2&#45;&gt;Node1</title>
<g id="a_edge1_Node000001_Node000002"><a xlink:title=" ">
<path fill="none" stroke="#9a32cd" stroke-dasharray="5,2" d="M70,-55.58C70,-43.63 70,-28.72 70,-19.41"/>
<polygon fill="#9a32cd" stroke="#9a32cd" points="66.5,-55.87 70,-65.87 73.5,-55.87 66.5,-55.87"/>
</a>
</g>
<text text-anchor="middle" x="96" y="-40" font-family="Helvetica,sans-Serif" font-size="10.00" fill="grey"> start_args</text>
</g>
<!-- Node3 -->
<g id="Node000003" class="node">
<title>Node3</title>
<g id="a_Node000003"><a xlink:href="structodph__thread__param__t.html" target="_top" xlink:title="Thread parameters (pthreads and processes)">
<polygon fill="white" stroke="#666666" points="131.5,-151 8.5,-151 8.5,-132 131.5,-132 131.5,-151"/>
<text text-anchor="middle" x="70" y="-139" font-family="Helvetica,sans-Serif" font-size="10.00">odph_thread_param_t</text>
</a>
</g>
</g>
<!-- Node3&#45;&gt;Node2 -->
<g id="edge2_Node000002_Node000003" class="edge">
<title>Node3&#45;&gt;Node2</title>
<g id="a_edge2_Node000002_Node000003"><a xlink:title=" ">
<path fill="none" stroke="#9a32cd" stroke-dasharray="5,2" d="M70,-121.58C70,-109.63 70,-94.72 70,-85.41"/>
<polygon fill="#9a32cd" stroke="#9a32cd" points="66.5,-121.87 70,-131.87 73.5,-121.87 66.5,-121.87"/>
</a>
</g>
<text text-anchor="middle" x="99.5" y="-106" font-family="Helvetica,sans-Serif" font-size="10.00" fill="grey"> thr_params</text>
</g>
</g>
</svg>
