<?xml version="1.0" encoding="UTF-8" standalone="no"?>
<!DOCTYPE svg PUBLIC "-//W3C//DTD SVG 1.1//EN"
 "http://www.w3.org/Graphics/SVG/1.1/DTD/svg11.dtd">
<!-- Generated by graphviz version 2.40.1 (20161225.0304)
 -->
<!-- Title: odph_thread_t Pages: 1 -->
<svg width="148pt" height="162pt"
 viewBox="0.00 0.00 148.00 162.00" xmlns="http://www.w3.org/2000/svg" xmlns:xlink="http://www.w3.org/1999/xlink">
<g id="graph0" class="graph" transform="scale(1 1) rotate(0) translate(4 158)">
<title>odph_thread_t</title>
<polygon fill="#ffffff" stroke="transparent" points="-4,4 -4,-158 144,-158 144,4 -4,4"/>
<!-- Node1 -->
<g id="node1" class="node">
<title>Node1</title>
<polygon fill="#bfbfbf" stroke="#000000" points="27,-.5 27,-19.5 113,-19.5 113,-.5 27,-.5"/>
<text text-anchor="middle" x="70" y="-7.5" font-family="Helvetica,sans-Serif" font-size="10.00" fill="#000000">odph_thread_t</text>
</g>
<!-- Node2 -->
<g id="node2" class="node">
<title>Node2</title>
<g id="a_node2"><a xlink:href="structodph__thread__start__args__t.html" target="_top" xlink:title="Helper internal thread start arguments. ">
<polygon fill="#ffffff" stroke="#000000" points="0,-67.5 0,-86.5 140,-86.5 140,-67.5 0,-67.5"/>
<text text-anchor="middle" x="70" y="-74.5" font-family="Helvetica,sans-Serif" font-size="10.00" fill="#000000">odph_thread_start_args_t</text>
</a>
</g>
</g>
<!-- Node2&#45;&gt;Node1 -->
<g id="edge1" class="edge">
<title>Node2&#45;&gt;Node1</title>
<path fill="none" stroke="#9a32cd" stroke-dasharray="5,2" d="M70,-57.1079C70,-44.714 70,-29.3263 70,-19.5817"/>
<polygon fill="#9a32cd" stroke="#9a32cd" points="66.5001,-57.4005 70,-67.4005 73.5001,-57.4006 66.5001,-57.4005"/>
<text text-anchor="middle" x="96" y="-41" font-family="Helvetica,sans-Serif" font-size="10.00" fill="#000000"> start_args</text>
</g>
<!-- Node3 -->
<g id="node3" class="node">
<title>Node3</title>
<g id="a_node3"><a xlink:href="structodph__thread__param__t.html" target="_top" xlink:title="Thread parameters (pthreads and processes) ">
<polygon fill="#ffffff" stroke="#000000" points="8.5,-134.5 8.5,-153.5 131.5,-153.5 131.5,-134.5 8.5,-134.5"/>
<text text-anchor="middle" x="70" y="-141.5" font-family="Helvetica,sans-Serif" font-size="10.00" fill="#000000">odph_thread_param_t</text>
</a>
</g>
</g>
<!-- Node3&#45;&gt;Node2 -->
<g id="edge2" class="edge">
<title>Node3&#45;&gt;Node2</title>
<path fill="none" stroke="#9a32cd" stroke-dasharray="5,2" d="M70,-124.1079C70,-111.714 70,-96.3263 70,-86.5817"/>
<polygon fill="#9a32cd" stroke="#9a32cd" points="66.5001,-124.4005 70,-134.4005 73.5001,-124.4006 66.5001,-124.4005"/>
<text text-anchor="middle" x="99.5" y="-108" font-family="Helvetica,sans-Serif" font-size="10.00" fill="#000000"> thr_params</text>
</g>
</g>
</svg>
