<?xml version="1.0" encoding="UTF-8" standalone="no"?>
<!DOCTYPE svg PUBLIC "-//W3C//DTD SVG 1.1//EN"
 "http://www.w3.org/Graphics/SVG/1.1/DTD/svg11.dtd">
<!-- Generated by graphviz version 2.40.1 (20161225.0304)
 -->
<!-- Title: table.h Pages: 1 -->
<svg width="222pt" height="84pt"
 viewBox="0.00 0.00 222.00 84.00" xmlns="http://www.w3.org/2000/svg" xmlns:xlink="http://www.w3.org/1999/xlink">
<g id="graph0" class="graph" transform="scale(1 1) rotate(0) translate(4 80)">
<title>table.h</title>
<polygon fill="#ffffff" stroke="transparent" points="-4,4 -4,-80 218,-80 218,4 -4,4"/>
<!-- Node0 -->
<g id="node1" class="node">
<title>Node0</title>
<polygon fill="#bfbfbf" stroke="#000000" points="59.5,-56.5 59.5,-75.5 109.5,-75.5 109.5,-56.5 59.5,-56.5"/>
<text text-anchor="middle" x="84.5" y="-63.5" font-family="Helvetica,sans-Serif" font-size="10.00" fill="#000000">table.h</text>
</g>
<!-- Node1 -->
<g id="node2" class="node">
<title>Node1</title>
<polygon fill="#ffffff" stroke="#bfbfbf" points="0,-.5 0,-19.5 53,-19.5 53,-.5 0,-.5"/>
<text text-anchor="middle" x="26.5" y="-7.5" font-family="Helvetica,sans-Serif" font-size="10.00" fill="#000000">stdint.h</text>
</g>
<!-- Node0&#45;&gt;Node1 -->
<g id="edge1" class="edge">
<title>Node0&#45;&gt;Node1</title>
<path fill="none" stroke="#191970" d="M74.3972,-56.2455C65.9972,-48.1352 53.8506,-36.4075 43.8916,-26.7919"/>
<polygon fill="#191970" stroke="#191970" points="46.1122,-24.0707 36.4871,-19.6427 41.25,-29.1066 46.1122,-24.0707"/>
</g>
<!-- Node2 -->
<g id="node3" class="node">
<title>Node2</title>
<g id="a_node3"><a xlink:href="strong__types_8h.html" target="_top" xlink:title="ODP Strong Types. ">
<polygon fill="#ffffff" stroke="#000000" points="71,-.5 71,-19.5 214,-19.5 214,-.5 71,-.5"/>
<text text-anchor="middle" x="142.5" y="-7.5" font-family="Helvetica,sans-Serif" font-size="10.00" fill="#000000">odp/helper/strong_types.h</text>
</a>
</g>
</g>
<!-- Node0&#45;&gt;Node2 -->
<g id="edge2" class="edge">
<title>Node0&#45;&gt;Node2</title>
<path fill="none" stroke="#191970" d="M94.6028,-56.2455C103.0028,-48.1352 115.1494,-36.4075 125.1084,-26.7919"/>
<polygon fill="#191970" stroke="#191970" points="127.75,-29.1066 132.5129,-19.6427 122.8878,-24.0707 127.75,-29.1066"/>
</g>
</g>
</svg>
