<?xml version="1.0" encoding="UTF-8" standalone="no"?>
<!DOCTYPE svg PUBLIC "-//W3C//DTD SVG 1.1//EN"
 "http://www.w3.org/Graphics/SVG/1.1/DTD/svg11.dtd">
<!-- Generated by graphviz version 2.43.0 (0)
 -->
<!-- Title: table.h Pages: 1 -->
<svg width="524pt" height="140pt"
 viewBox="0.00 0.00 523.85 140.00" xmlns="http://www.w3.org/2000/svg" xmlns:xlink="http://www.w3.org/1999/xlink">
<g id="graph0" class="graph" transform="scale(1 1) rotate(0) translate(4 136)">
<title>table.h</title>
<polygon fill="white" stroke="transparent" points="-4,4 -4,-136 519.85,-136 519.85,4 -4,4"/>
<!-- Node1 -->
<g id="node1" class="node">
<title>Node1</title>
<g id="a_node1"><a xlink:title="ODP table.">
<polygon fill="#bfbfbf" stroke="black" points="175.35,-112.5 175.35,-131.5 225.35,-131.5 225.35,-112.5 175.35,-112.5"/>
<text text-anchor="middle" x="200.35" y="-119.5" font-family="Helvetica,sans-Serif" font-size="10.00">table.h</text>
</a>
</g>
</g>
<!-- Node2 -->
<g id="node2" class="node">
<title>Node2</title>
<g id="a_node2"><a xlink:href="odph__api_8h.html" target="_top" xlink:title="The OpenDataPlane helper API.">
<polygon fill="white" stroke="black" points="165.35,-0.5 165.35,-19.5 235.35,-19.5 235.35,-0.5 165.35,-0.5"/>
<text text-anchor="middle" x="200.35" y="-7.5" font-family="Helvetica,sans-Serif" font-size="10.00">odph_api.h</text>
</a>
</g>
</g>
<!-- Node1&#45;&gt;Node2 -->
<g id="edge1" class="edge">
<title>Node1&#45;&gt;Node2</title>
<path fill="none" stroke="midnightblue" d="M165.23,-117.9C115.26,-112.67 27.56,-100.23 8.35,-76 -34.23,-22.29 99.09,-12.68 165.32,-11.16"/>
<polygon fill="midnightblue" stroke="midnightblue" points="164.98,-121.39 175.28,-118.9 165.68,-114.43 164.98,-121.39"/>
</g>
<!-- Node3 -->
<g id="node3" class="node">
<title>Node3</title>
<g id="a_node3"><a xlink:href="odph__cuckootable_8h.html" target="_top" xlink:title="ODP Cuckoo Hash Table.">
<polygon fill="white" stroke="black" points="17.85,-56.5 17.85,-75.5 130.85,-75.5 130.85,-56.5 17.85,-56.5"/>
<text text-anchor="middle" x="74.35" y="-63.5" font-family="Helvetica,sans-Serif" font-size="10.00">odph_cuckootable.h</text>
</a>
</g>
</g>
<!-- Node1&#45;&gt;Node3 -->
<g id="edge2" class="edge">
<title>Node1&#45;&gt;Node3</title>
<path fill="none" stroke="midnightblue" d="M171.19,-108.5C147.56,-98.38 114.92,-84.39 94.22,-75.52"/>
<polygon fill="midnightblue" stroke="midnightblue" points="169.81,-111.72 180.38,-112.44 172.57,-105.29 169.81,-111.72"/>
</g>
<!-- Node4 -->
<g id="node4" class="node">
<title>Node4</title>
<g id="a_node4"><a xlink:href="odph__hashtable_8h.html" target="_top" xlink:title="ODP Hash Table.">
<polygon fill="white" stroke="black" points="148.85,-56.5 148.85,-75.5 251.85,-75.5 251.85,-56.5 148.85,-56.5"/>
<text text-anchor="middle" x="200.35" y="-63.5" font-family="Helvetica,sans-Serif" font-size="10.00">odph_hashtable.h</text>
</a>
</g>
</g>
<!-- Node1&#45;&gt;Node4 -->
<g id="edge4" class="edge">
<title>Node1&#45;&gt;Node4</title>
<path fill="none" stroke="midnightblue" d="M200.35,-101.8C200.35,-92.91 200.35,-82.78 200.35,-75.75"/>
<polygon fill="midnightblue" stroke="midnightblue" points="196.85,-102.08 200.35,-112.08 203.85,-102.08 196.85,-102.08"/>
</g>
<!-- Node5 -->
<g id="node5" class="node">
<title>Node5</title>
<g id="a_node5"><a xlink:href="odph__iplookuptable_8h.html" target="_top" xlink:title="ODP IP Lookup Table.">
<polygon fill="white" stroke="black" points="269.85,-56.5 269.85,-75.5 390.85,-75.5 390.85,-56.5 269.85,-56.5"/>
<text text-anchor="middle" x="330.35" y="-63.5" font-family="Helvetica,sans-Serif" font-size="10.00">odph_iplookuptable.h</text>
</a>
</g>
</g>
<!-- Node1&#45;&gt;Node5 -->
<g id="edge6" class="edge">
<title>Node1&#45;&gt;Node5</title>
<path fill="none" stroke="midnightblue" d="M230.43,-108.5C254.8,-98.38 288.49,-84.39 309.84,-75.52"/>
<polygon fill="midnightblue" stroke="midnightblue" points="228.84,-105.38 220.94,-112.44 231.52,-111.84 228.84,-105.38"/>
</g>
<!-- Node6 -->
<g id="node6" class="node">
<title>Node6</title>
<g id="a_node6"><a xlink:href="odph__lineartable_8h.html" target="_top" xlink:title="ODP Linear Table.">
<polygon fill="white" stroke="black" points="408.85,-56.5 408.85,-75.5 515.85,-75.5 515.85,-56.5 408.85,-56.5"/>
<text text-anchor="middle" x="462.35" y="-63.5" font-family="Helvetica,sans-Serif" font-size="10.00">odph_lineartable.h</text>
</a>
</g>
</g>
<!-- Node1&#45;&gt;Node6 -->
<g id="edge8" class="edge">
<title>Node1&#45;&gt;Node6</title>
<path fill="none" stroke="midnightblue" d="M235.41,-113.77C283.54,-103.85 369.9,-86.05 421.08,-75.5"/>
<polygon fill="midnightblue" stroke="midnightblue" points="234.55,-110.38 225.47,-115.82 235.97,-117.23 234.55,-110.38"/>
</g>
<!-- Node3&#45;&gt;Node2 -->
<g id="edge3" class="edge">
<title>Node3&#45;&gt;Node2</title>
<path fill="none" stroke="midnightblue" d="M103.5,-52.5C127.13,-42.38 159.77,-28.39 180.47,-19.52"/>
<polygon fill="midnightblue" stroke="midnightblue" points="102.12,-49.29 94.31,-56.44 104.88,-55.72 102.12,-49.29"/>
</g>
<!-- Node4&#45;&gt;Node2 -->
<g id="edge5" class="edge">
<title>Node4&#45;&gt;Node2</title>
<path fill="none" stroke="midnightblue" d="M200.35,-45.8C200.35,-36.91 200.35,-26.78 200.35,-19.75"/>
<polygon fill="midnightblue" stroke="midnightblue" points="196.85,-46.08 200.35,-56.08 203.85,-46.08 196.85,-46.08"/>
</g>
<!-- Node5&#45;&gt;Node2 -->
<g id="edge7" class="edge">
<title>Node5&#45;&gt;Node2</title>
<path fill="none" stroke="midnightblue" d="M300.26,-52.5C275.89,-42.38 242.21,-28.39 220.85,-19.52"/>
<polygon fill="midnightblue" stroke="midnightblue" points="299.17,-55.84 309.75,-56.44 301.85,-49.38 299.17,-55.84"/>
</g>
<!-- Node6&#45;&gt;Node2 -->
<g id="edge9" class="edge">
<title>Node6&#45;&gt;Node2</title>
<path fill="none" stroke="midnightblue" d="M410.83,-54.38C358.98,-43.7 280.42,-27.5 235.38,-18.22"/>
<polygon fill="midnightblue" stroke="midnightblue" points="410.33,-57.85 420.83,-56.44 411.74,-51 410.33,-57.85"/>
</g>
</g>
</svg>
