<?xml version="1.0" encoding="UTF-8" standalone="no"?>
<!DOCTYPE svg PUBLIC "-//W3C//DTD SVG 1.1//EN"
 "http://www.w3.org/Graphics/SVG/1.1/DTD/svg11.dtd">
<!-- Generated by graphviz version 2.40.1 (20161225.0304)
 -->
<!-- Title: threads.h Pages: 1 -->
<svg width="241pt" height="140pt"
 viewBox="0.00 0.00 240.50 140.00" xmlns="http://www.w3.org/2000/svg" xmlns:xlink="http://www.w3.org/1999/xlink">
<g id="graph0" class="graph" transform="scale(1 1) rotate(0) translate(4 136)">
<title>threads.h</title>
<polygon fill="#ffffff" stroke="transparent" points="-4,4 -4,-136 236.5,-136 236.5,4 -4,4"/>
<!-- Node4 -->
<g id="node1" class="node">
<title>Node4</title>
<polygon fill="#bfbfbf" stroke="#000000" points="81.5,-112.5 81.5,-131.5 143.5,-131.5 143.5,-112.5 81.5,-112.5"/>
<text text-anchor="middle" x="112.5" y="-119.5" font-family="Helvetica,sans-Serif" font-size="10.00" fill="#000000">threads.h</text>
</g>
<!-- Node5 -->
<g id="node2" class="node">
<title>Node5</title>
<g id="a_node2"><a xlink:href="process_8h.html" target="_top" xlink:title="ODP Linux helper for processes. ">
<polygon fill="#ffffff" stroke="#000000" points="0,-56.5 0,-75.5 63,-75.5 63,-56.5 0,-56.5"/>
<text text-anchor="middle" x="31.5" y="-63.5" font-family="Helvetica,sans-Serif" font-size="10.00" fill="#000000">process.h</text>
</a>
</g>
</g>
<!-- Node4&#45;&gt;Node5 -->
<g id="edge1" class="edge">
<title>Node4&#45;&gt;Node5</title>
<path fill="none" stroke="#191970" d="M90.066,-106.49C75.7746,-96.6096 57.7084,-84.1194 45.4474,-75.6427"/>
<polygon fill="#191970" stroke="#191970" points="88.1749,-109.4376 98.3909,-112.2455 92.1557,-103.6797 88.1749,-109.4376"/>
</g>
<!-- Node7 -->
<g id="node4" class="node">
<title>Node7</title>
<g id="a_node4"><a xlink:href="pthread_8h.html" target="_top" xlink:title="ODP Linux helper for pthreads. ">
<polygon fill="#ffffff" stroke="#000000" points="81,-56.5 81,-75.5 144,-75.5 144,-56.5 81,-56.5"/>
<text text-anchor="middle" x="112.5" y="-63.5" font-family="Helvetica,sans-Serif" font-size="10.00" fill="#000000">pthread.h</text>
</a>
</g>
</g>
<!-- Node4&#45;&gt;Node7 -->
<g id="edge3" class="edge">
<title>Node4&#45;&gt;Node7</title>
<path fill="none" stroke="#191970" d="M106.0113,-102.1575C105.419,-93.155 105.8335,-82.9199 107.2549,-75.6427"/>
<polygon fill="#191970" stroke="#191970" points="102.5561,-102.739 107.2332,-112.2455 109.5053,-101.8972 102.5561,-102.739"/>
</g>
<!-- Node8 -->
<g id="node5" class="node">
<title>Node8</title>
<g id="a_node5"><a xlink:href="odph__api_8h.html" target="_top" xlink:title="The OpenDataPlane helper API. ">
<polygon fill="#ffffff" stroke="#000000" points="162.5,-56.5 162.5,-75.5 232.5,-75.5 232.5,-56.5 162.5,-56.5"/>
<text text-anchor="middle" x="197.5" y="-63.5" font-family="Helvetica,sans-Serif" font-size="10.00" fill="#000000">odph_api.h</text>
</a>
</g>
</g>
<!-- Node4&#45;&gt;Node8 -->
<g id="edge6" class="edge">
<title>Node4&#45;&gt;Node8</title>
<path fill="none" stroke="#191970" d="M136.0419,-106.49C151.039,-96.6096 169.9973,-84.1194 182.8638,-75.6427"/>
<polygon fill="#191970" stroke="#191970" points="133.7309,-103.8212 127.3059,-112.2455 137.5821,-109.6666 133.7309,-103.8212"/>
</g>
<!-- Node6 -->
<g id="node3" class="node">
<title>Node6</title>
<g id="a_node3"><a xlink:href="linux_8h.html" target="_top" xlink:title="All ODP Linux helpers. ">
<polygon fill="#ffffff" stroke="#000000" points="46.5,-.5 46.5,-19.5 96.5,-19.5 96.5,-.5 46.5,-.5"/>
<text text-anchor="middle" x="71.5" y="-7.5" font-family="Helvetica,sans-Serif" font-size="10.00" fill="#000000">linux.h</text>
</a>
</g>
</g>
<!-- Node5&#45;&gt;Node6 -->
<g id="edge2" class="edge">
<title>Node5&#45;&gt;Node6</title>
<path fill="none" stroke="#191970" d="M44.4136,-47.9209C51.1303,-38.5176 59.0717,-27.3997 64.6124,-19.6427"/>
<polygon fill="#191970" stroke="#191970" points="41.4318,-46.0738 38.4675,-56.2455 47.128,-50.1425 41.4318,-46.0738"/>
</g>
<!-- Node7&#45;&gt;Node4 -->
<g id="edge5" class="edge">
<title>Node7&#45;&gt;Node4</title>
<path fill="none" stroke="#191970" d="M118.9795,-85.7046C119.5821,-94.6944 119.1779,-104.9382 117.7668,-112.2455"/>
<polygon fill="#191970" stroke="#191970" points="122.4368,-85.1421 117.7451,-75.6427 115.4889,-85.9945 122.4368,-85.1421"/>
</g>
<!-- Node7&#45;&gt;Node6 -->
<g id="edge4" class="edge">
<title>Node7&#45;&gt;Node6</title>
<path fill="none" stroke="#191970" d="M99.2636,-47.9209C92.3789,-38.5176 84.2391,-27.3997 78.5598,-19.6427"/>
<polygon fill="#191970" stroke="#191970" points="96.6269,-50.2445 105.3583,-56.2455 102.2749,-46.1093 96.6269,-50.2445"/>
</g>
</g>
</svg>
