<?xml version="1.0" encoding="UTF-8" standalone="no"?>
<!DOCTYPE svg PUBLIC "-//W3C//DTD SVG 1.1//EN"
 "http://www.w3.org/Graphics/SVG/1.1/DTD/svg11.dtd">
<!-- Generated by graphviz version 2.43.0 (0)
 -->
<!-- Title: threads.h Pages: 1 -->
<svg width="297pt" height="203pt"
 viewBox="0.00 0.00 297.00 203.00" xmlns="http://www.w3.org/2000/svg" xmlns:xlink="http://www.w3.org/1999/xlink">
<g id="graph0" class="graph" transform="scale(1 1) rotate(0) translate(4 199)">
<title>threads.h</title>
<!-- Node1 -->
<g id="Node000001" class="node">
<title>Node1</title>
<g id="a_Node000001"><a xlink:title="ODP Linux helper API.">
<polygon fill="#999999" stroke="#666666" points="123,-195 61,-195 61,-176 123,-176 123,-195"/>
<text text-anchor="middle" x="92" y="-183" font-family="Helvetica,sans-Serif" font-size="10.00">threads.h</text>
</a>
</g>
</g>
<!-- Node2 -->
<g id="Node000002" class="node">
<title>Node2</title>
<g id="a_Node000002"><a xlink:title=" ">
<polygon fill="#e0e0e0" stroke="#999999" points="64,-85 0,-85 0,-66 64,-66 64,-85"/>
<text text-anchor="middle" x="32" y="-73" font-family="Helvetica,sans-Serif" font-size="10.00">odp_api.h</text>
</a>
</g>
</g>
<!-- Node1&#45;&gt;Node2 -->
<g id="edge1_Node000001_Node000002" class="edge">
<title>Node1&#45;&gt;Node2</title>
<g id="a_edge1_Node000001_Node000002"><a xlink:title=" ">
<path fill="none" stroke="#63b8ff" d="M81.83,-175.95C72.56,-167.65 59.11,-154.24 51,-140 43.07,-126.08 38.15,-108.52 35.31,-95.4"/>
<polygon fill="#63b8ff" stroke="#63b8ff" points="38.67,-94.35 33.32,-85.21 31.8,-95.69 38.67,-94.35"/>
</a>
</g>
</g>
<!-- Node3 -->
<g id="Node000003" class="node">
<title>Node3</title>
<g id="a_Node000003"><a xlink:href="pthread_8h.html" target="_top" xlink:title="ODP Linux helper for pthreads.">
<polygon fill="white" stroke="#666666" points="123.5,-140 60.5,-140 60.5,-121 123.5,-121 123.5,-140"/>
<text text-anchor="middle" x="92" y="-128" font-family="Helvetica,sans-Serif" font-size="10.00">pthread.h</text>
</a>
</g>
</g>
<!-- Node1&#45;&gt;Node3 -->
<g id="edge2_Node000001_Node000003" class="edge">
<title>Node1&#45;&gt;Node3</title>
<g id="a_edge2_Node000001_Node000003"><a xlink:title=" ">
<path fill="none" stroke="#63b8ff" d="M86.83,-175.75C85.34,-168.8 84.9,-158.85 85.52,-150.13"/>
<polygon fill="#63b8ff" stroke="#63b8ff" points="89.01,-150.47 86.87,-140.09 82.07,-149.53 89.01,-150.47"/>
</a>
</g>
</g>
<!-- Node6 -->
<g id="Node000006" class="node">
<title>Node6</title>
<g id="a_Node000006"><a xlink:title=" ">
<polygon fill="#e0e0e0" stroke="#999999" points="198.5,-140 141.5,-140 141.5,-121 198.5,-121 198.5,-140"/>
<text text-anchor="middle" x="170" y="-128" font-family="Helvetica,sans-Serif" font-size="10.00">getopt.h</text>
</a>
</g>
</g>
<!-- Node1&#45;&gt;Node6 -->
<g id="edge7_Node000001_Node000006" class="edge">
<title>Node1&#45;&gt;Node6</title>
<g id="a_edge7_Node000001_Node000006"><a xlink:title=" ">
<path fill="none" stroke="#63b8ff" d="M104.53,-175.98C116.4,-167.92 134.46,-155.65 148.61,-146.03"/>
<polygon fill="#63b8ff" stroke="#63b8ff" points="150.94,-148.69 157.24,-140.17 147,-142.9 150.94,-148.69"/>
</a>
</g>
</g>
<!-- Node7 -->
<g id="Node000007" class="node">
<title>Node7</title>
<g id="a_Node000007"><a xlink:title=" ">
<polygon fill="#e0e0e0" stroke="#999999" points="289,-140 217,-140 217,-121 289,-121 289,-140"/>
<text text-anchor="middle" x="253" y="-128" font-family="Helvetica,sans-Serif" font-size="10.00">sys/types.h</text>
</a>
</g>
</g>
<!-- Node1&#45;&gt;Node7 -->
<g id="edge8_Node000001_Node000007" class="edge">
<title>Node1&#45;&gt;Node7</title>
<g id="a_edge8_Node000001_Node000007"><a xlink:title=" ">
<path fill="none" stroke="#63b8ff" d="M117.87,-175.98C144.78,-167.13 187.12,-153.19 217.23,-143.28"/>
<polygon fill="#63b8ff" stroke="#63b8ff" points="218.53,-146.53 226.93,-140.08 216.34,-139.88 218.53,-146.53"/>
</a>
</g>
</g>
<!-- Node3&#45;&gt;Node1 -->
<g id="edge5_Node000003_Node000001" class="edge">
<title>Node3&#45;&gt;Node1</title>
<g id="a_edge5_Node000003_Node000001"><a xlink:title=" ">
<path fill="none" stroke="#63b8ff" d="M97.13,-140.09C98.64,-146.99 99.09,-156.93 98.49,-165.66"/>
<polygon fill="#63b8ff" stroke="#63b8ff" points="95,-165.38 97.17,-175.75 101.94,-166.29 95,-165.38"/>
</a>
</g>
</g>
<!-- Node3&#45;&gt;Node2 -->
<g id="edge6_Node000003_Node000002" class="edge">
<title>Node3&#45;&gt;Node2</title>
<g id="a_edge6_Node000003_Node000002"><a xlink:title=" ">
<path fill="none" stroke="#63b8ff" d="M82.36,-120.98C73.49,-113.15 60.13,-101.34 49.39,-91.86"/>
<polygon fill="#63b8ff" stroke="#63b8ff" points="51.63,-89.17 41.82,-85.17 46.99,-94.41 51.63,-89.17"/>
</a>
</g>
</g>
<!-- Node4 -->
<g id="Node000004" class="node">
<title>Node4</title>
<g id="a_Node000004"><a xlink:href="deprecated_8h.html" target="_top" xlink:title="Macro for deprecated API definitions.">
<polygon fill="white" stroke="#666666" points="217.5,-85 82.5,-85 82.5,-66 217.5,-66 217.5,-85"/>
<text text-anchor="middle" x="150" y="-73" font-family="Helvetica,sans-Serif" font-size="10.00">odp/helper/deprecated.h</text>
</a>
</g>
</g>
<!-- Node3&#45;&gt;Node4 -->
<g id="edge3_Node000003_Node000004" class="edge">
<title>Node3&#45;&gt;Node4</title>
<g id="a_edge3_Node000003_Node000004"><a xlink:title=" ">
<path fill="none" stroke="#63b8ff" d="M101.32,-120.98C109.81,-113.23 122.56,-101.58 132.88,-92.14"/>
<polygon fill="#63b8ff" stroke="#63b8ff" points="135.49,-94.5 140.51,-85.17 130.77,-89.33 135.49,-94.5"/>
</a>
</g>
</g>
<!-- Node5 -->
<g id="Node000005" class="node">
<title>Node5</title>
<g id="a_Node000005"><a xlink:href="autoheader__external_8h_source.html" target="_top" xlink:title=" ">
<polygon fill="white" stroke="#666666" points="213.5,-30 86.5,-30 86.5,0 213.5,0 213.5,-30"/>
<text text-anchor="start" x="94.5" y="-18" font-family="Helvetica,sans-Serif" font-size="10.00">odp/helper/autoheader</text>
<text text-anchor="middle" x="150" y="-7" font-family="Helvetica,sans-Serif" font-size="10.00">_external.h</text>
</a>
</g>
</g>
<!-- Node4&#45;&gt;Node5 -->
<g id="edge4_Node000004_Node000005" class="edge">
<title>Node4&#45;&gt;Node5</title>
<g id="a_edge4_Node000004_Node000005"><a xlink:title=" ">
<path fill="none" stroke="#63b8ff" d="M150,-65.87C150,-59.11 150,-49.35 150,-40.26"/>
<polygon fill="#63b8ff" stroke="#63b8ff" points="153.5,-40.11 150,-30.11 146.5,-40.11 153.5,-40.11"/>
</a>
</g>
</g>
</g>
</svg>
